<?xml version="1.0" encoding="UTF-8" standalone="no"?>
<!-- Created with Inkscape (http://www.inkscape.org/) -->

<svg
   width="500"
   height="280"
   viewBox="0 0 132.29166 74.083335"
   version="1.1"
   id="svg5"
   inkscape:version="1.4 (e7c3feb100, 2024-10-09)"
   sodipodi:docname="c-programming.svg"
   xmlns:inkscape="http://www.inkscape.org/namespaces/inkscape"
   xmlns:sodipodi="http://sodipodi.sourceforge.net/DTD/sodipodi-0.dtd"
   xmlns="http://www.w3.org/2000/svg"
   xmlns:svg="http://www.w3.org/2000/svg">
  <sodipodi:namedview
     id="namedview7"
     pagecolor="#505050"
     bordercolor="#ffffff"
     borderopacity="1"
     inkscape:showpageshadow="0"
     inkscape:pageopacity="0"
     inkscape:pagecheckerboard="1"
     inkscape:deskcolor="#505050"
     inkscape:document-units="mm"
     showgrid="false"
     inkscape:zoom="0.8374018"
     inkscape:cx="199.42637"
     inkscape:cy="264.50863"
     inkscape:window-width="1366"
     inkscape:window-height="710"
     inkscape:window-x="0"
     inkscape:window-y="0"
     inkscape:window-maximized="1"
     inkscape:current-layer="layer1" />
  <defs
     id="defs2">
    <rect
       x="69.705002"
       y="92.851372"
       width="787.97485"
       height="387.79266"
       id="rect396" />
  </defs>
  <g
     inkscape:label="Layer 1"
     inkscape:groupmode="layer"
     id="layer1">
    <g
       id="text394"
       style="font-size:26.6667px;line-height:1.25;white-space:pre;fill:#00ff00"
       transform="matrix(0.2651179,0,0,0.31351178,-13.484674,-24.009538)"
       aria-label="#include &lt;stdio.h&gt;&#10;&#10;int main() {&#10;  printf(&quot;SNAKE Security\n&quot;);&#10;  return 0;&#10;}">
      <path
         style="font-weight:bold;font-family:'Source Code Pro';-inkscape-font-specification:'Source Code Pro Bold';fill:#808080"
         d="m 77.998422,117.11493 0.613334,-4.98667 h -2.773337 l -0.613334,4.98667 h -2.266669 l 0.613334,-4.98667 h -2.000003 v -2.50667 h 2.320003 l 0.346667,-2.93334 h -2.133336 v -2.50667 h 2.453337 l 0.533334,-4.400004 h 2.240002 l -0.533334,4.400004 h 2.800004 l 0.533334,-4.400004 h 2.240003 l -0.533334,4.400004 h 2.106669 v 2.50667 h -2.400003 l -0.373334,2.93334 h 2.240003 v 2.50667 h -2.533336 l -0.613335,4.98667 z m 0.933334,-7.49334 0.346668,-2.93334 h -2.773337 l -0.373334,2.93334 z m 14.186695,7.49334 v -10.16001 h -5.306673 v -3.06667 h 9.226678 v 13.22668 z m 1.786669,-15.30668 q -1.146668,0 -1.893335,-0.64001 -0.720001,-0.64 -0.720001,-1.733331 0,-1.093335 0.720001,-1.760002 0.746667,-0.693334 1.893335,-0.693334 1.146668,0 1.866669,0.693334 0.746668,0.666667 0.746668,1.760002 0,1.093331 -0.746668,1.733331 -0.720001,0.64001 -1.866669,0.64001 z m 8.72002,15.30668 v -13.22668 h 3.20001 l 0.29333,1.76 h 0.10667 q 0.85333,-0.85333 1.94667,-1.46667 1.12,-0.61333 2.61333,-0.61333 2.24,0 3.28001,1.44 1.04,1.44 1.04,3.94667 v 8.16001 h -3.92001 v -7.65334 q 0,-1.33334 -0.42666,-1.94667 -0.42667,-0.61333 -1.52001,-0.61333 -0.8,0 -1.41333,0.34666 -0.58667,0.34667 -1.28,1.04 v 8.82668 z m 23.22671,0.32 q -1.57334,0 -2.90667,-0.45333 -1.33334,-0.48 -2.34667,-1.36 -0.98667,-0.88 -1.54667,-2.16001 -0.56,-1.30666 -0.56,-2.96 0,-1.65334 0.61333,-2.93334 0.64,-1.30667 1.68,-2.18667 1.06667,-0.88 2.45334,-1.33333 1.38667,-0.48 2.90667,-0.48 1.57334,0 2.82667,0.50666 1.28,0.50667 2.13334,1.28001 l -1.81334,2.42667 q -1.46667,-1.04001 -2.93333,-1.04001 -1.70667,0 -2.77334,1.01334 -1.06667,1.01333 -1.06667,2.74667 0,1.73334 1.01333,2.74667 1.04001,1.01333 2.69334,1.01333 1.04,0 1.89334,-0.37333 0.88,-0.37333 1.6,-0.88 l 1.57333,2.48 q -1.2,1.01334 -2.64,1.49334 -1.44,0.45333 -2.8,0.45333 z m 17.3867,0 q -2.50667,0 -3.78667,-1.46667 -1.25334,-1.49333 -1.25334,-4.02667 v -10.42668 h -4.16 v -3.093336 h 8.08001 v 13.680016 q 0,0.61334 0.16,1.04 0.18666,0.4 0.48,0.66667 0.32,0.24 0.69333,0.34667 0.4,0.10666 0.82667,0.10666 0.45333,0 0.93333,-0.08 0.50667,-0.10666 1.12,-0.34666 l 0.88001,2.88 q -0.53334,0.16 -0.98667,0.29333 -0.45334,0.13334 -0.90667,0.21334 -0.45333,0.10666 -0.96,0.16 -0.50667,0.0533 -1.12,0.0533 z m 11.41335,0 q -2.26666,0 -3.28,-1.44 -1.01333,-1.44 -1.01333,-3.94667 v -8.16001 h 3.92 v 7.65334 q 0,1.33334 0.4,1.94667 0.4,0.61333 1.52,0.61333 0.74667,0 1.30667,-0.32 0.58667,-0.32 1.28,-1.2 v -8.69334 h 3.92001 v 13.22668 h -3.20001 l -0.29333,-1.89333 h -0.10667 q -0.88,1.01333 -1.94667,1.62666 -1.06666,0.58667 -2.50667,0.58667 z m 16.88004,0 q -1.25334,0 -2.29334,-0.48 -1.01333,-0.48 -1.76,-1.36 -0.72,-0.90667 -1.12,-2.18667 -0.4,-1.28 -0.4,-2.90667 0,-1.62667 0.48,-2.90667 0.48,-1.28 1.25333,-2.16 0.8,-0.90667 1.81334,-1.38667 1.01333,-0.48 2.10667,-0.48 1.12,0 1.89333,0.37333 0.77334,0.34667 1.44,1.04 h 0.10667 l -0.18667,-2.05333 v -4.506676 h 3.92001 v 18.693356 h -3.20001 l -0.29333,-1.36 h -0.08 q -0.74667,0.72 -1.70667,1.2 -0.96,0.48 -1.97333,0.48 z m 1.01333,-3.2 q 0.66667,0 1.22667,-0.26667 0.56,-0.29333 1.09333,-0.96 v -5.36001 q -0.53333,-0.48 -1.09333,-0.66666 -0.53333,-0.21334 -1.12,-0.21334 -1.09334,0 -1.89334,0.90667 -0.77333,0.90667 -0.77333,2.77334 0,1.97333 0.66667,2.88 0.66666,0.90667 1.89333,0.90667 z m 16.96003,3.2 q -1.54667,0 -2.90667,-0.45333 -1.33333,-0.48 -2.32,-1.36 -0.98667,-0.88 -1.54667,-2.16001 -0.56,-1.30666 -0.56,-2.96 0,-1.62667 0.56,-2.90667 0.58667,-1.30667 1.54667,-2.18667 0.96,-0.90667 2.18667,-1.36 1.25333,-0.48 2.58667,-0.48 1.52,0 2.69334,0.48 1.17333,0.48 1.94666,1.33333 0.80001,0.85334 1.20001,2.02667 0.4,1.14667 0.4,2.50667 0,0.53334 -0.08,1.04 -0.0533,0.48 -0.10667,0.72 h -9.01334 q 0.29333,1.44001 1.30666,2.10667 1.01334,0.66667 2.64001,0.66667 0.90666,0 1.70667,-0.24 0.82666,-0.24 1.70666,-0.69333 l 1.30667,2.37333 q -1.14667,0.72 -2.53333,1.14667 -1.38667,0.4 -2.72001,0.4 z m -0.32,-10.88001 q -1.17333,0 -1.97333,0.61333 -0.77334,0.61334 -1.06667,1.86667 h 5.65334 q -0.29333,-2.48 -2.61334,-2.48 z"
         id="path1" />
      <path
         style="font-weight:bold;font-family:'Source Code Pro';-inkscape-font-specification:'Source Code Pro Bold';fill:#ffffff"
         d="m 227.09204,116.28826 -10.29335,-6.66667 v -2.72 l 10.29335,-6.66668 v 3.54667 l -7.06668,4.42667 v 0.10667 l 7.06668,4.42667 z"
         id="path2" />
      <path
         style="font-weight:bold;font-family:'Source Code Pro';-inkscape-font-specification:'Source Code Pro Bold';fill:#ffff00"
         d="m 237.59873,117.43493 q -1.78667,0 -3.49334,-0.58667 -1.70667,-0.58666 -2.98667,-1.44 l 1.68,-2.45333 q 1.22667,0.77333 2.56,1.17333 1.33334,0.4 2.77334,0.4 1.09334,0 1.6,-0.32 0.50667,-0.32 0.50667,-0.8 0,-0.26667 -0.16,-0.48 -0.13333,-0.21333 -0.50667,-0.37333 -0.34666,-0.18667 -0.98667,-0.34667 -0.64,-0.16 -1.6,-0.37334 -2.69333,-0.58666 -3.86667,-1.57333 -1.17333,-1.01334 -1.17333,-2.56 0,-0.90667 0.42666,-1.68001 0.42667,-0.77333 1.2,-1.30666 0.80001,-0.53334 1.92001,-0.82667 1.12,-0.32 2.53333,-0.32 1.78667,0 3.22667,0.58667 1.46667,0.56 2.50667,1.22666 l -1.76,2.34667 q -1.01333,-0.61333 -2.10667,-0.93333 -1.09333,-0.32 -2.21333,-0.32 -0.93334,0 -1.38667,0.29333 -0.45334,0.29334 -0.45334,0.74667 0,0.56 0.69334,0.8 0.69333,0.24 2.37333,0.61333 1.52001,0.34667 2.53334,0.74667 1.01334,0.4 1.6,0.90667 0.58667,0.50667 0.82667,1.14667 0.24,0.64 0.24,1.44 0,0.90667 -0.42667,1.68 -0.42666,0.77334 -1.25333,1.36 -0.8,0.56 -2.02667,0.90667 -1.2,0.32 -2.8,0.32 z m 18.45336,0 q -1.57333,0 -2.66667,-0.42667 -1.09333,-0.42666 -1.78667,-1.17333 -0.66666,-0.77333 -0.96,-1.84 -0.29333,-1.06667 -0.29333,-2.37334 v -4.66667 h -3.33334 v -2.90667 l 3.52001,-0.16 0.50666,-4.05334 h 3.22667 v 4.05334 h 5.60001 v 3.06667 h -5.60001 v 4.64 q 0,1.52001 0.66667,2.16001 0.66667,0.61333 2.13334,0.61333 0.74667,0 1.36,-0.13333 0.64,-0.13334 1.25333,-0.34667 l 0.69334,2.82667 q -0.88,0.26667 -1.94667,0.48 -1.04,0.24 -2.37334,0.24 z m 12.48003,0 q -1.25334,0 -2.29334,-0.48 -1.01333,-0.48 -1.76,-1.36 -0.72,-0.90667 -1.12,-2.18667 -0.4,-1.28 -0.4,-2.90667 0,-1.62667 0.48,-2.90667 0.48,-1.28 1.25333,-2.16 0.80001,-0.90667 1.81334,-1.38667 1.01334,-0.48 2.10667,-0.48 1.12,0 1.89334,0.37333 0.77333,0.34667 1.44,1.04 h 0.10666 l -0.18666,-2.05333 v -4.506676 h 3.92 v 18.693356 h -3.2 l -0.29334,-1.36 h -0.08 q -0.74666,0.72 -1.70666,1.2 -0.96001,0.48 -1.97334,0.48 z m 1.01333,-3.2 q 0.66667,0 1.22667,-0.26667 0.56,-0.29333 1.09334,-0.96 v -5.36001 q -0.53334,-0.48 -1.09334,-0.66666 -0.53333,-0.21334 -1.12,-0.21334 -1.09333,0 -1.89333,0.90667 -0.77334,0.90667 -0.77334,2.77334 0,1.97333 0.66667,2.88 0.66667,0.90667 1.89333,0.90667 z m 15.57337,2.88 v -10.16001 h -5.30668 v -3.06667 h 9.22668 v 13.22668 z m 1.78667,-15.30668 q -1.14667,0 -1.89334,-0.64001 -0.72,-0.64 -0.72,-1.733331 0,-1.093335 0.72,-1.760002 0.74667,-0.693334 1.89334,-0.693334 1.14666,0 1.86667,0.693334 0.74666,0.666667 0.74666,1.760002 0,1.093331 -0.74666,1.733331 -0.72001,0.64001 -1.86667,0.64001 z m 14.80003,15.62668 q -1.30667,0 -2.53334,-0.45333 -1.2,-0.48 -2.16,-1.36 -0.93334,-0.88 -1.49334,-2.16001 -0.56,-1.30666 -0.56,-2.96 0,-1.65334 0.56,-2.93334 0.56,-1.30667 1.49334,-2.18667 0.96,-0.88 2.16,-1.33333 1.22667,-0.48 2.53334,-0.48 1.30666,0 2.50667,0.48 1.22666,0.45333 2.16,1.33333 0.96,0.88 1.52,2.18667 0.56,1.28 0.56,2.93334 0,1.65334 -0.56,2.96 -0.56,1.28001 -1.52,2.16001 -0.93334,0.88 -2.16,1.36 -1.20001,0.45333 -2.50667,0.45333 z m 0,-3.17334 q 1.36,0 2.02666,-1.01333 0.69334,-1.01333 0.69334,-2.74667 0,-1.73334 -0.69334,-2.74667 -0.66666,-1.01334 -2.02666,-1.01334 -1.36001,0 -2.05334,1.01334 -0.66667,1.01333 -0.66667,2.74667 0,1.73334 0.66667,2.74667 0.69333,1.01333 2.05334,1.01333 z m 16.00003,3.17334 q -1.38667,0 -2.24001,-0.88 -0.85333,-0.90667 -0.85333,-2.24 0,-0.66667 0.21333,-1.22667 0.24,-0.58667 0.64,-1.01333 0.4,-0.42667 0.96,-0.66667 0.58667,-0.24 1.28001,-0.24 0.69333,0 1.25333,0.24 0.58667,0.24 0.98667,0.66667 0.4,0.42666 0.61333,1.01333 0.24,0.56 0.24,1.22667 0,1.33333 -0.85333,2.24 -0.85334,0.88 -2.24,0.88 z m 9.92002,-0.32 V 98.421574 h 3.92 v 4.586676 l -0.21333,2.53333 h 0.08 q 0.74667,-0.77333 1.81334,-1.36 1.06666,-0.61333 2.58667,-0.61333 2.24,0 3.25333,1.44 1.04,1.44 1.04,3.94667 v 8.16001 h -3.92 v -7.65334 q 0,-1.33334 -0.42667,-1.94667 -0.42666,-0.61333 -1.52,-0.61333 -0.8,0 -1.41333,0.34666 -0.58667,0.34667 -1.28001,1.04 v 8.82668 z"
         id="path3" />
      <path
         style="font-weight:bold;font-family:'Source Code Pro';-inkscape-font-specification:'Source Code Pro Bold';fill:#ffffff"
         d="m 344.31893,116.28826 v -3.54667 l 7.06668,-4.42667 v -0.10667 l -7.06668,-4.42667 v -3.54667 l 10.29335,6.66668 v 2.72 z"
         id="path4" />
      <path
         style="font-weight:bold;font-family:'Source Code Pro';-inkscape-font-specification:'Source Code Pro Bold';fill:#0000ff"
         d="m 77.118421,185.6417 v -10.16002 h -5.306674 v -3.06667 h 9.226679 v 13.22669 z m 1.786669,-15.30669 q -1.146668,0 -1.893336,-0.64 -0.720001,-0.64 -0.720001,-1.73334 0,-1.09333 0.720001,-1.76 0.746668,-0.69333 1.893336,-0.69333 1.146668,0 1.866669,0.69333 0.746667,0.66667 0.746667,1.76 0,1.09334 -0.746667,1.73334 -0.720001,0.64 -1.866669,0.64 z m 8.720021,15.30669 v -13.22669 h 3.200004 l 0.293334,1.76 h 0.106667 q 0.853334,-0.85333 1.946669,-1.46666 1.120001,-0.61334 2.613336,-0.61334 2.240003,0 3.280005,1.44 1.040004,1.44001 1.040004,3.94667 v 8.16002 h -3.920008 v -7.65335 q 0,-1.33333 -0.426667,-1.94667 -0.426668,-0.61333 -1.520002,-0.61333 -0.800001,0 -1.413335,0.34667 -0.586668,0.34666 -1.280002,1.04 v 8.82668 z m 24.426709,0.32 q -1.57334,0 -2.66667,-0.42667 -1.09334,-0.42667 -1.78667,-1.17334 -0.66667,-0.77333 -0.96,-1.84 -0.29333,-1.06667 -0.29333,-2.37333 v -4.66668 h -3.33334 v -2.90667 l 3.52,-0.16 0.50667,-4.05334 h 3.22667 v 4.05334 h 5.60001 v 3.06667 h -5.60001 v 4.64001 q 0,1.52 0.66667,2.16 0.66666,0.61334 2.13333,0.61334 0.74667,0 1.36001,-0.13334 0.64,-0.13333 1.25333,-0.34667 l 0.69333,2.82667 q -0.88,0.26667 -1.94666,0.48001 -1.04001,0.24 -2.37334,0.24 z"
         id="path5" />
      <path
         style="font-weight:bold;font-family:'Source Code Pro';-inkscape-font-specification:'Source Code Pro Bold'"
         d="m 134.63853,185.6417 v -13.22669 h 2.96001 l 0.26667,1.62667 h 0.10666 q 0.37334,-0.8 1.04,-1.36 0.66667,-0.58667 1.81334,-0.58667 0.85333,0 1.44,0.56 0.61334,0.53334 0.85334,1.6 0.37333,-0.90666 1.06666,-1.52 0.72,-0.64 1.86667,-0.64 1.44,0 2.18667,1.14667 0.77334,1.12 0.77334,3.12 v 9.28002 h -3.73334 v -9.01335 q 0,-0.61333 -0.16,-0.90667 -0.16,-0.29333 -0.56,-0.29333 -0.37334,0 -0.64,0.32 -0.26667,0.32 -0.56,0.96 v 8.93335 h -3.06667 v -9.01335 q 0,-1.2 -0.74667,-1.2 -0.37334,0 -0.64,0.32 -0.26667,0.32 -0.53334,0.96 v 8.93335 z m 21.04004,0.32 q -1.01333,0 -1.81333,-0.32 -0.80001,-0.29334 -1.36001,-0.82667 -0.56,-0.56 -0.88,-1.28 -0.29333,-0.72 -0.29333,-1.57334 0,-1.12 0.48,-1.94667 0.48,-0.85333 1.52,-1.44 1.06667,-0.58667 2.72001,-0.93333 1.65333,-0.37334 4,-0.50667 -0.10667,-0.90667 -0.8,-1.41334 -0.66667,-0.50666 -2.02667,-0.50666 -0.96,0 -1.94667,0.34666 -0.96,0.32 -2.08,0.88 l -1.38667,-2.56 q 1.36,-0.77333 2.90667,-1.28 1.57334,-0.50667 3.28,-0.50667 2.77334,0 4.37334,1.46667 1.60001,1.46667 1.60001,4.50667 v 7.57335 h -3.20001 l -0.29333,-1.49334 h -0.10667 q -1.01333,0.77333 -2.21334,1.30667 -1.2,0.50667 -2.48,0.50667 z m 1.25334,-3.04001 q 0.88,0 1.65333,-0.34667 0.77334,-0.37333 1.46667,-0.90666 v -2.18667 q -1.46667,0.08 -2.42667,0.26666 -0.96,0.18667 -1.52,0.48001 -0.56,0.26666 -0.8,0.64 -0.21334,0.37333 -0.21334,0.8 0,0.64 0.48,0.96 0.50667,0.29333 1.36001,0.29333 z m 16.18669,2.72001 v -10.16002 h -5.30667 v -3.06667 h 9.22668 v 13.22669 z m 1.78667,-15.30669 q -1.14667,0 -1.89333,-0.64 -0.72,-0.64 -0.72,-1.73334 0,-1.09333 0.72,-1.76 0.74666,-0.69333 1.89333,-0.69333 1.14667,0 1.86667,0.69333 0.74667,0.66667 0.74667,1.76 0,1.09334 -0.74667,1.73334 -0.72,0.64 -1.86667,0.64 z m 8.72002,15.30669 v -13.22669 h 3.20001 l 0.29333,1.76 h 0.10667 q 0.85333,-0.85333 1.94667,-1.46666 1.12,-0.61334 2.61333,-0.61334 2.24001,0 3.28001,1.44 1.04,1.44001 1.04,3.94667 v 8.16002 h -3.92001 v -7.65335 q 0,-1.33333 -0.42666,-1.94667 -0.42667,-0.61333 -1.52,-0.61333 -0.80001,0 -1.41334,0.34667 -0.58667,0.34666 -1.28,1.04 v 8.82668 z m 24.53338,4.77333 q -2.61334,-2.32 -4.13334,-5.36 -1.49333,-3.04001 -1.49333,-6.82668 0,-3.78667 1.49333,-6.82667 1.52,-3.04001 4.13334,-5.36001 l 2.18667,1.73334 q -2.37334,2.32 -3.46667,4.82667 -1.06667,2.48 -1.06667,5.62667 0,1.57334 0.26667,2.98667 0.26666,1.38667 0.8,2.66667 0.56,1.28 1.41333,2.45334 0.85334,1.2 2.05334,2.34667 z m 11.09336,0 -2.18667,-1.73333 q 1.2,-1.14667 2.05333,-2.34667 0.85334,-1.17334 1.38667,-2.45334 0.56,-1.28 0.82667,-2.66667 0.26667,-1.41333 0.26667,-2.98667 0,-3.14667 -1.09334,-5.62667 -1.06667,-2.50667 -3.44,-4.82667 l 2.18667,-1.73334 q 2.61333,2.32 4.10667,5.36001 1.52,3.04 1.52,6.82667 0,3.78667 -1.52,6.82668 -1.49334,3.04 -4.10667,5.36 z"
         id="path6" />
      <path
         style="font-weight:bold;font-family:'Source Code Pro';-inkscape-font-specification:'Source Code Pro Bold';fill:#ffff00"
         d="m 256.87876,189.69503 q -2.56,0 -3.76,-0.82666 -1.2,-0.8 -1.2,-2.96001 0,-0.72 0.0267,-1.28 0.0533,-0.56 0.10667,-1.06667 0.0533,-0.53333 0.08,-1.04 0.0533,-0.53333 0.0533,-1.17333 0,-0.34667 -0.16,-0.69334 -0.16,-0.34666 -0.58667,-0.61333 -0.42666,-0.29334 -1.14666,-0.45334 -0.69334,-0.18666 -1.76001,-0.21333 v -2.29334 q 1.06667,-0.0267 1.76001,-0.18666 0.72,-0.18667 1.14666,-0.45334 0.42667,-0.29333 0.58667,-0.64 0.16,-0.34666 0.16,-0.69333 0,-0.61334 -0.0533,-1.14667 -0.0267,-0.53333 -0.08,-1.04 -0.0533,-0.53333 -0.10667,-1.09334 -0.0267,-0.58666 -0.0267,-1.28 0,-2.16 1.2,-2.96 1.2,-0.82667 3.76,-0.82667 h 2.05334 v 2.08 h -1.09334 q -0.82667,0 -1.36,0.08 -0.53333,0.08 -0.82667,0.29334 -0.29333,0.21333 -0.42666,0.58667 -0.10667,0.34666 -0.10667,0.90666 0,1.06667 0.0533,2.10667 0.08,1.04 0.08,2.24001 0,1.52 -0.61333,2.21333 -0.61334,0.66667 -2.05334,0.90667 v 0.10667 q 1.44,0.24 2.05334,0.93333 0.61333,0.66667 0.61333,2.18667 0,1.22667 -0.08,2.24 -0.0533,1.01334 -0.0533,2.10667 0,0.56 0.10667,0.90667 0.13333,0.37333 0.42666,0.58667 0.29334,0.21333 0.82667,0.29333 0.53333,0.08 1.36,0.08 h 1.09334 v 2.08 z"
         id="path7" />
      <path
         style="font-weight:bold;font-family:'Source Code Pro';-inkscape-font-specification:'Source Code Pro Bold'"
         d="m 103.62514,224.81175 v -18.13336 h 3.20001 l 0.29333,1.33334 h 0.08 q 0.8,-0.72 1.84,-1.17334 1.04,-0.48 2.10667,-0.48 1.22667,0 2.21334,0.48 0.98667,0.48 1.68,1.36001 0.69333,0.88 1.04,2.13333 0.37333,1.22667 0.37333,2.74667 0,1.70667 -0.48,3.04001 -0.48,1.30666 -1.28,2.24 -0.8,0.90667 -1.84,1.38667 -1.01333,0.48 -2.13334,0.48 -1.81333,0 -3.25333,-1.44 h -0.10667 l 0.18667,2.16 v 3.86667 z m 6.18668,-7.78668 q 1.12,0 1.86667,-0.90666 0.74666,-0.93334 0.74666,-2.98667 0,-3.57334 -2.42667,-3.57334 -1.25333,0 -2.45333,1.22667 v 5.36 q 0.56,0.48 1.14666,0.69334 0.61334,0.18666 1.12001,0.18666 z m 10.98669,2.88001 v -13.22669 h 3.2 l 0.32,2.88001 h 0.08 q 0.98667,-1.62667 2.37334,-2.40001 1.38667,-0.8 2.98667,-0.8 0.88,0 1.41333,0.13334 0.56,0.13333 1.14667,0.4 l -0.8,3.28 q -0.61333,-0.18667 -1.12,-0.26667 -0.48,-0.10666 -1.22667,-0.10666 -1.22667,0 -2.42667,0.72 -1.17333,0.72 -2.02667,2.50667 v 6.88001 z m 20.32003,0 v -10.16002 h -5.30667 v -3.06667 h 9.22668 v 13.22669 z m 1.78667,-15.30669 q -1.14667,0 -1.89333,-0.64 -0.72,-0.64 -0.72,-1.73334 0,-1.09333 0.72,-1.76 0.74666,-0.69333 1.89333,-0.69333 1.14667,0 1.86667,0.69333 0.74667,0.66667 0.74667,1.76 0,1.09334 -0.74667,1.73334 -0.72,0.64 -1.86667,0.64 z m 8.72002,15.30669 v -13.22669 h 3.20001 l 0.29333,1.76001 h 0.10667 q 0.85333,-0.85334 1.94667,-1.46667 1.12,-0.61334 2.61333,-0.61334 2.24001,0 3.28001,1.44001 1.04,1.44 1.04,3.94667 v 8.16001 h -3.92001 v -7.65335 q 0,-1.33333 -0.42666,-1.94666 -0.42667,-0.61334 -1.52001,-0.61334 -0.8,0 -1.41333,0.34667 -0.58667,0.34667 -1.28,1.04 v 8.82668 z m 24.42671,0.32 q -1.57333,0 -2.66667,-0.42667 -1.09333,-0.42667 -1.78667,-1.17333 -0.66667,-0.77334 -0.96,-1.84001 -0.29333,-1.06666 -0.29333,-2.37333 v -4.66668 h -3.33334 v -2.90667 l 3.52,-0.16 0.50667,-4.05333 h 3.22667 v 4.05333 h 5.60001 v 3.06667 h -5.60001 v 4.64001 q 0,1.52 0.66667,2.16 0.66667,0.61334 2.13334,0.61334 0.74666,0 1.36,-0.13334 0.64,-0.13333 1.25333,-0.34666 l 0.69334,2.82667 q -0.88,0.26666 -1.94667,0.48 -1.04,0.24 -2.37334,0.24 z m 11.33336,-0.32 v -10.16002 h -3.49334 v -2.90667 l 3.49334,-0.16 v -0.34666 q 0,-1.14667 0.34667,-2.13334 0.34666,-0.98667 1.06666,-1.70667 0.72,-0.74667 1.84001,-1.17333 1.12,-0.42667 2.66667,-0.42667 1.14666,0 2.13333,0.21333 1.01334,0.21334 1.86667,0.50667 l -0.74667,2.88 q -1.30666,-0.50666 -2.77333,-0.50666 -1.28,0 -1.89334,0.56 -0.58667,0.56 -0.58667,1.76 v 0.37333 h 4.56001 v 3.06667 h -4.56001 v 10.16002 z m 20.77337,4.77334 q -2.61334,-2.32001 -4.13334,-5.36001 -1.49333,-3.04 -1.49333,-6.82668 0,-3.78667 1.49333,-6.82667 1.52,-3.04 4.13334,-5.36001 l 2.18667,1.73334 q -2.37334,2.32 -3.46667,4.82667 -1.06667,2.48 -1.06667,5.62667 0,1.57334 0.26667,2.98668 0.26666,1.38666 0.8,2.66667 0.56,1.28 1.41333,2.45333 0.85334,1.2 2.05334,2.34667 z"
         id="path8" />
      <path
         style="font-weight:bold;font-family:'Source Code Pro';-inkscape-font-specification:'Source Code Pro Bold';fill:#ffffff"
         d="m 216.98536,211.82507 -0.93334,-6.32001 -0.13333,-3.86667 h 4.53334 l -0.13334,3.86667 -0.93333,6.32001 z m 7.06667,0 -0.93333,-6.32001 -0.13334,-3.86667 h 4.53334 l -0.13333,3.86667 -0.93333,6.32001 z"
         id="path9" />
      <path
         style="font-weight:bold;font-family:'Source Code Pro';-inkscape-font-specification:'Source Code Pro Bold';fill:#ff0000"
         d="m 237.65206,220.22508 q -1.76,0 -3.49334,-0.61334 -1.70667,-0.64 -3.12,-1.89333 l 2.26667,-2.69334 q 0.98667,0.8 2.16,1.30667 1.17334,0.50667 2.45334,0.50667 1.28,0 1.86667,-0.42667 0.58666,-0.42667 0.58666,-1.09334 0,-0.45333 -0.18666,-0.74666 -0.18667,-0.32 -0.53334,-0.56 -0.34666,-0.24 -0.85333,-0.45334 -0.50667,-0.21333 -1.12,-0.48 l -2.24001,-0.96 q -0.72,-0.26667 -1.41333,-0.69333 -0.66667,-0.42667 -1.17334,-0.98667 -0.50666,-0.58667 -0.82666,-1.33334 -0.29334,-0.77333 -0.29334,-1.73333 0,-1.06667 0.45334,-2 0.48,-0.96001 1.30666,-1.65334 0.85334,-0.72 2.02667,-1.12 1.17334,-0.4 2.58667,-0.4 1.60001,0 3.09334,0.58667 1.49334,0.58666 2.69334,1.70666 l -2,2.48001 q -0.90667,-0.66667 -1.81334,-1.01334 -0.90667,-0.37333 -2.18667,-0.37333 -0.98667,0 -1.6,0.4 -0.58667,0.4 -0.58667,1.17333 0,0.77334 0.77334,1.20001 0.8,0.4 2.08,0.85333 l 2.10667,0.90667 q 1.73333,0.64 2.72,1.76 1.01334,1.12 1.01334,2.96 0,1.09334 -0.45334,2.08001 -0.45333,0.96 -1.30667,1.70667 -0.85333,0.72 -2.10667,1.17333 -1.25333,0.42667 -2.88,0.42667 z m 9.81336,-0.32 v -17.38669 h 4.02667 l 3.65334,8.64001 1.49333,3.84 h 0.10667 q -0.13334,-1.38666 -0.34667,-3.06667 -0.21333,-1.70666 -0.21333,-3.25333 v -6.16001 h 3.76 v 17.38669 h -4.02667 l -3.65334,-8.66668 -1.49333,-3.78667 h -0.10667 q 0.13333,1.44 0.34667,3.09334 0.21333,1.65333 0.21333,3.2 v 6.16001 z m 20.7467,-8.80001 -0.4,1.6 h 3.65334 l -0.4,-1.6 q -0.34667,-1.30667 -0.72,-2.74667 -0.37334,-1.46667 -0.66667,-2.85334 h -0.10667 q -0.32,1.38667 -0.66667,2.85334 -0.34666,1.44 -0.69333,2.74667 z m -6.26668,8.80001 5.41334,-17.38669 h 4.69334 l 5.41334,17.38669 h -4.16 l -1.04,-4.13334 h -5.25334 l -1.06667,4.13334 z m 17.57337,0 v -17.38669 h 3.97334 v 7.12001 h 0.08 l 5.14667,-7.12001 h 4.34667 l -5.22667,6.90667 5.70667,10.48002 h -4.34667 l -3.70667,-7.38668 -2,2.64 v 4.74668 z m 16.64003,0 v -17.38669 h 11.52002 v 3.30667 h -7.57335 v 3.49334 h 6.42668 v 3.28 h -6.42668 v 4.00001 h 7.84001 v 3.30667 z m 37.4934,0.32 q -1.76,0 -3.49333,-0.61334 -1.70667,-0.64 -3.12001,-1.89333 l 2.26667,-2.69334 q 0.98667,0.8 2.16,1.30667 1.17334,0.50667 2.45334,0.50667 1.28,0 1.86667,-0.42667 0.58667,-0.42667 0.58667,-1.09334 0,-0.45333 -0.18667,-0.74666 -0.18667,-0.32 -0.53333,-0.56 -0.34667,-0.24 -0.85334,-0.45334 -0.50667,-0.21333 -1.12,-0.48 l -2.24,-0.96 q -0.72,-0.26667 -1.41334,-0.69333 -0.66667,-0.42667 -1.17333,-0.98667 -0.50667,-0.58667 -0.82667,-1.33334 -0.29333,-0.77333 -0.29333,-1.73333 0,-1.06667 0.45333,-2 0.48,-0.96001 1.30667,-1.65334 0.85333,-0.72 2.02667,-1.12 1.17333,-0.4 2.58667,-0.4 1.6,0 3.09333,0.58667 1.49334,0.58666 2.69334,1.70666 l -2,2.48001 q -0.90667,-0.66667 -1.81334,-1.01334 -0.90666,-0.37333 -2.18667,-0.37333 -0.98666,0 -1.6,0.4 -0.58667,0.4 -0.58667,1.17333 0,0.77334 0.77334,1.20001 0.8,0.4 2.08,0.85333 l 2.10667,0.90667 q 1.73334,0.64 2.72,1.76 1.01334,1.12 1.01334,2.96 0,1.09334 -0.45334,2.08001 -0.45333,0.96 -1.30666,1.70667 -0.85334,0.72 -2.10667,1.17333 -1.25334,0.42667 -2.88001,0.42667 z m 16.85337,0 q -1.54667,0 -2.90667,-0.45334 -1.33334,-0.48 -2.32001,-1.36 -0.98666,-0.88 -1.54666,-2.16 -0.56,-1.30667 -0.56,-2.96 0,-1.62667 0.56,-2.90667 0.58666,-1.30667 1.54666,-2.18667 0.96001,-0.90667 2.18667,-1.36001 1.25334,-0.48 2.58667,-0.48 1.52001,0 2.69334,0.48 1.17334,0.48 1.94667,1.33334 0.8,0.85333 1.2,2.02667 0.4,1.14667 0.4,2.50667 0,0.53333 -0.08,1.04 -0.0533,0.48 -0.10666,0.72 h -9.01335 q 0.29333,1.44 1.30667,2.10667 1.01333,0.66667 2.64,0.66667 0.90667,0 1.70667,-0.24 0.82667,-0.24 1.70667,-0.69334 l 1.30667,2.37334 q -1.14667,0.72 -2.53334,1.14667 -1.38667,0.4 -2.72,0.4 z m -0.32,-10.88002 q -1.17334,0 -1.97334,0.61334 -0.77333,0.61333 -1.06667,1.86667 h 5.65334 q -0.29333,-2.48001 -2.61333,-2.48001 z m 16.6667,10.88002 q -1.57334,0 -2.90667,-0.45334 -1.33334,-0.48 -2.34667,-1.36 -0.98667,-0.88 -1.54667,-2.16 -0.56,-1.30667 -0.56,-2.96 0,-1.65334 0.61333,-2.93334 0.64,-1.30667 1.68,-2.18667 1.06667,-0.88 2.45334,-1.33334 1.38667,-0.48 2.90667,-0.48 1.57333,0 2.82667,0.50667 1.28,0.50667 2.13334,1.28 l -1.81334,2.42667 q -1.46667,-1.04 -2.93334,-1.04 -1.70667,0 -2.77333,1.01334 -1.06667,1.01333 -1.06667,2.74667 0,1.73333 1.01333,2.74667 1.04,1.01333 2.69334,1.01333 1.04,0 1.89334,-0.37333 0.88,-0.37334 1.6,-0.88 l 1.57333,2.48 q -1.2,1.01333 -2.64,1.49333 -1.44,0.45334 -2.8,0.45334 z m 12.80002,0 q -2.26667,0 -3.28,-1.44 -1.01334,-1.44001 -1.01334,-3.94668 v -8.16001 h 3.92001 v 7.65335 q 0,1.33333 0.4,1.94667 0.4,0.61333 1.52,0.61333 0.74667,0 1.30667,-0.32 0.58667,-0.32 1.28,-1.2 v -8.69335 h 3.92001 v 13.22669 h -3.20001 l -0.29333,-1.89334 h -0.10667 q -0.88,1.01334 -1.94667,1.62667 -1.06667,0.58667 -2.50667,0.58667 z m 13.1467,-0.32 v -13.22669 h 3.2 l 0.32,2.88001 h 0.08 q 0.98667,-1.62667 2.37334,-2.40001 1.38667,-0.8 2.98667,-0.8 0.88,0 1.41333,0.13334 0.56,0.13333 1.14667,0.4 l -0.8,3.28 q -0.61333,-0.18667 -1.12,-0.26667 -0.48,-0.10666 -1.22667,-0.10666 -1.22667,0 -2.42667,0.72 -1.17333,0.72 -2.02667,2.50667 v 6.88001 z m 20.32003,0 v -10.16002 h -5.30667 v -3.06667 h 9.22668 v 13.22669 z m 1.78667,-15.30669 q -1.14667,0 -1.89334,-0.64 -0.72,-0.64 -0.72,-1.73334 0,-1.09333 0.72,-1.76 0.74667,-0.69333 1.89334,-0.69333 1.14667,0 1.86667,0.69333 0.74667,0.66667 0.74667,1.76 0,1.09334 -0.74667,1.73334 -0.72,0.64 -1.86667,0.64 z m 17.1467,15.62669 q -1.57334,0 -2.66667,-0.42667 -1.09334,-0.42667 -1.78667,-1.17333 -0.66667,-0.77334 -0.96,-1.84001 -0.29333,-1.06666 -0.29333,-2.37333 v -4.66668 h -3.33334 v -2.90667 l 3.52,-0.16 0.50667,-4.05333 h 3.22667 v 4.05333 h 5.60001 v 3.06667 h -5.60001 v 4.64001 q 0,1.52 0.66667,2.16 0.66667,0.61334 2.13333,0.61334 0.74667,0 1.36001,-0.13334 0.64,-0.13333 1.25333,-0.34666 l 0.69333,2.82667 q -0.88,0.26666 -1.94666,0.48 -1.04001,0.24 -2.37334,0.24 z m 9.46669,4.85334 q -0.58667,0 -1.09334,-0.08 -0.50666,-0.0533 -0.93333,-0.18667 l 0.69333,-2.98667 q 0.50667,0.16 1.04,0.16 1.14667,0 1.78667,-0.48 0.66667,-0.48 0.98667,-1.25334 l 0.26667,-0.69333 -5.73334,-12.88002 h 3.89334 l 2.21333,5.68001 q 0.37334,0.93334 0.69334,1.94667 0.32,0.98667 0.64,2.02667 h 0.10666 q 0.26667,-0.98667 0.58667,-1.97334 0.32,-1.01333 0.61334,-2 l 1.94666,-5.68001 h 3.70668 l -5.22668,13.36002 q -0.48,1.25334 -1.04,2.18667 -0.56,0.96 -1.28,1.57334 -0.72,0.64 -1.68,0.96 -0.93334,0.32 -2.18667,0.32 z m 22.93337,-0.90667 -8.77334,-23.20003 h 3.28 l 8.77334,23.20003 z m 7.17335,-4.26667 v -13.22669 h 3.20001 l 0.29333,1.76001 h 0.10667 q 0.85333,-0.85334 1.94667,-1.46667 1.12,-0.61334 2.61333,-0.61334 2.24001,0 3.28001,1.44001 1.04,1.44 1.04,3.94667 v 8.16001 h -3.92001 v -7.65335 q 0,-1.33333 -0.42666,-1.94666 -0.42667,-0.61334 -1.52,-0.61334 -0.80001,0 -1.41334,0.34667 -0.58667,0.34667 -1.28,1.04 v 8.82668 z"
         id="path10" />
      <path
         style="font-weight:bold;font-family:'Source Code Pro';-inkscape-font-specification:'Source Code Pro Bold';fill:#ffffff"
         d="m 488.98588,211.82507 -0.93334,-6.32001 -0.13333,-3.86667 h 4.53334 l -0.13334,3.86667 -0.93333,6.32001 z m 7.06667,0 -0.93333,-6.32001 -0.13334,-3.86667 h 4.53334 l -0.13333,3.86667 -0.93334,6.32001 z"
         id="path11" />
      <path
         style="font-weight:bold;font-family:'Source Code Pro';-inkscape-font-specification:'Source Code Pro Bold'"
         d="m 507.25258,224.67842 -2.18667,-1.73334 q 1.2,-1.14667 2.05333,-2.34667 0.85334,-1.17333 1.38667,-2.45333 0.56,-1.28001 0.82667,-2.66667 0.26667,-1.41334 0.26667,-2.98668 0,-3.14667 -1.09334,-5.62667 -1.06667,-2.50667 -3.44,-4.82667 l 2.18667,-1.73334 q 2.61333,2.32001 4.10667,5.36001 1.52,3.04 1.52,6.82667 0,3.78668 -1.52,6.82668 -1.49334,3.04 -4.10667,5.36001 z m 18.45336,-13.06669 q -1.38667,0 -2.24,-0.88 -0.85333,-0.90667 -0.85333,-2.24 0,-0.66667 0.21333,-1.22667 0.24,-0.58667 0.64,-1.01333 0.4,-0.42667 0.96,-0.66667 0.58667,-0.24 1.28,-0.24 0.69334,0 1.25334,0.24 0.58667,0.24 0.98667,0.66667 0.4,0.42666 0.61333,1.01333 0.24,0.56 0.24,1.22667 0,1.33333 -0.85333,2.24 -0.85334,0.88 -2.24001,0.88 z m -2.16,14.08002 -0.98667,-2.29333 q 1.78667,-0.61334 2.64001,-1.60001 0.88,-0.96 0.82666,-2.18667 -0.10666,0.0267 -0.29333,0.0267 -0.56,0 -1.09334,-0.16 -0.50666,-0.18667 -0.90666,-0.53333 -0.4,-0.34667 -0.64,-0.85334 -0.24,-0.50667 -0.24,-1.17333 0,-1.25334 0.85333,-2.00001 0.88,-0.74666 2.13334,-0.74666 1.65333,0 2.48,1.22666 0.82667,1.20001 0.82667,3.36001 0,2.56 -1.41334,4.32 -1.41333,1.76001 -4.18667,2.61334 z"
         id="path12" />
      <path
         style="font-weight:bold;font-family:'Source Code Pro';-inkscape-font-specification:'Source Code Pro Bold';fill:#0000ff"
         d="m 104.79848,254.16846 v -13.22668 h 3.2 l 0.32,2.88 h 0.08 q 0.98667,-1.62667 2.37334,-2.4 1.38667,-0.8 2.98667,-0.8 0.88,0 1.41333,0.13333 0.56,0.13333 1.14667,0.4 l -0.8,3.28 q -0.61333,-0.18666 -1.12,-0.26666 -0.48,-0.10667 -1.22667,-0.10667 -1.22667,0 -2.42667,0.72 -1.17333,0.72 -2.02667,2.50667 v 6.88001 z m 21.7067,0.32 q -1.54667,0 -2.90667,-0.45333 -1.33333,-0.48 -2.32,-1.36001 -0.98667,-0.88 -1.54667,-2.16 -0.56,-1.30667 -0.56,-2.96 0,-1.62667 0.56,-2.90667 0.58667,-1.30667 1.54667,-2.18667 0.96,-0.90667 2.18667,-1.36 1.25333,-0.48 2.58667,-0.48 1.52,0 2.69333,0.48 1.17334,0.48 1.94667,1.33333 0.8,0.85334 1.2,2.02667 0.4,1.14667 0.4,2.50667 0,0.53333 -0.08,1.04 -0.0533,0.48 -0.10666,0.72 h -9.01335 q 0.29334,1.44 1.30667,2.10667 1.01334,0.66667 2.64,0.66667 0.90667,0 1.70667,-0.24 0.82667,-0.24 1.70667,-0.69334 l 1.30667,2.37334 q -1.14667,0.72 -2.53334,1.14667 -1.38666,0.4 -2.72,0.4 z m -0.32,-10.88001 q -1.17333,0 -1.97334,0.61333 -0.77333,0.61333 -1.06666,1.86667 h 5.65334 q -0.29334,-2.48 -2.61334,-2.48 z m 17.8667,10.88001 q -1.57334,0 -2.66667,-0.42667 -1.09333,-0.42666 -1.78667,-1.17333 -0.66667,-0.77334 -0.96,-1.84 -0.29333,-1.06667 -0.29333,-2.37334 v -4.66667 h -3.33334 v -2.90667 l 3.52,-0.16 0.50667,-4.05334 h 3.22667 v 4.05334 h 5.60001 v 3.06667 h -5.60001 v 4.64 q 0,1.52 0.66667,2.16 0.66667,0.61334 2.13333,0.61334 0.74667,0 1.36001,-0.13333 0.64,-0.13334 1.25333,-0.34667 l 0.69334,2.82667 q -0.88001,0.26667 -1.94667,0.48 -1.04001,0.24 -2.37334,0.24 z m 11.60002,0 q -2.26666,0 -3.28,-1.44 -1.01333,-1.44 -1.01333,-3.94667 v -8.16001 h 3.92 v 7.65334 q 0,1.33333 0.4,1.94667 0.4,0.61333 1.52,0.61333 0.74667,0 1.30667,-0.32 0.58667,-0.32 1.28,-1.2 v -8.69334 h 3.92001 v 13.22668 h -3.20001 l -0.29333,-1.89334 h -0.10667 q -0.88,1.01334 -1.94667,1.62667 -1.06666,0.58667 -2.50667,0.58667 z m 13.1467,-0.32 v -13.22668 h 3.2 l 0.32,2.88 h 0.08 q 0.98667,-1.62667 2.37334,-2.4 1.38667,-0.8 2.98667,-0.8 0.88,0 1.41333,0.13333 0.56001,0.13333 1.14667,0.4 l -0.8,3.28 q -0.61333,-0.18666 -1.12,-0.26666 -0.48,-0.10667 -1.22667,-0.10667 -1.22667,0 -2.42667,0.72 -1.17333,0.72 -2.02667,2.50667 v 6.88001 z m 14.82669,0 v -13.22668 h 3.20001 l 0.29333,1.76 h 0.10667 q 0.85333,-0.85334 1.94667,-1.46667 1.12,-0.61333 2.61333,-0.61333 2.24001,0 3.28001,1.44 1.04,1.44 1.04,3.94667 v 8.16001 h -3.92001 v -7.65334 q 0,-1.33334 -0.42666,-1.94667 -0.42667,-0.61334 -1.52,-0.61334 -0.80001,0 -1.41334,0.34667 -0.58667,0.34667 -1.28,1.04 v 8.82668 z"
         id="path13" />
      <path
         style="font-weight:bold;font-family:'Source Code Pro';-inkscape-font-specification:'Source Code Pro Bold';fill:#ff00ff"
         d="m 221.70536,254.48846 q -1.46667,0 -2.66667,-0.56 -1.2,-0.58667 -2.05333,-1.70667 -0.85334,-1.12 -1.33334,-2.77334 -0.45333,-1.65333 -0.45333,-3.81333 0,-2.16001 0.45333,-3.78668 0.48,-1.62667 1.33334,-2.72 0.85333,-1.12 2.05333,-1.65334 1.2,-0.56 2.66667,-0.56 1.46667,0 2.66667,0.56 1.2,0.53334 2.05334,1.65334 0.85333,1.09333 1.30667,2.72 0.48,1.62667 0.48,3.78668 0,2.16 -0.48,3.81333 -0.45334,1.65334 -1.30667,2.77334 -0.85334,1.12 -2.05334,1.70667 -1.2,0.56 -2.66667,0.56 z m 0,-3.04 q 0.64,0 1.17334,-0.29334 0.56,-0.29333 0.96,-0.96 0.4,-0.69333 0.64,-1.78667 0.24,-1.12 0.24,-2.77333 0,-1.65334 -0.24,-2.74668 -0.24,-1.09333 -0.64,-1.73333 -0.4,-0.66667 -0.96,-0.93334 -0.53334,-0.26666 -1.17334,-0.26666 -0.64,0 -1.2,0.26666 -0.53333,0.26667 -0.93333,0.93334 -0.4,0.64 -0.64,1.73333 -0.24,1.09334 -0.24,2.74668 0,1.65333 0.24,2.77333 0.24,1.09334 0.64,1.78667 0.4,0.66667 0.93333,0.96 0.56,0.29334 1.2,0.29334 z m 0,-3.84001 q -0.85333,0 -1.44,-0.53333 -0.56,-0.56 -0.56,-1.49334 0,-0.93333 0.56,-1.46667 0.58667,-0.56 1.44,-0.56 0.85334,0 1.41334,0.56 0.58667,0.53334 0.58667,1.46667 0,0.93334 -0.58667,1.49334 -0.56,0.53333 -1.41334,0.53333 z"
         id="path14" />
      <path
         style="font-weight:bold;font-family:'Source Code Pro';-inkscape-font-specification:'Source Code Pro Bold'"
         d="m 237.70539,245.87512 q -1.38667,0 -2.24,-0.88001 -0.85333,-0.90666 -0.85333,-2.24 0,-0.66667 0.21333,-1.22667 0.24,-0.58666 0.64,-1.01333 0.4,-0.42667 0.96,-0.66667 0.58667,-0.24 1.28,-0.24 0.69334,0 1.25334,0.24 0.58667,0.24 0.98667,0.66667 0.4,0.42667 0.61333,1.01333 0.24,0.56 0.24,1.22667 0,1.33334 -0.85333,2.24 -0.85334,0.88001 -2.24001,0.88001 z m -2.16,14.08001 -0.98667,-2.29333 q 1.78667,-0.61334 2.64001,-1.60001 0.88,-0.96 0.82666,-2.18666 -0.10666,0.0267 -0.29333,0.0267 -0.56,0 -1.09333,-0.16 -0.50667,-0.18666 -0.90667,-0.53333 -0.4,-0.34667 -0.64,-0.85334 -0.24,-0.50666 -0.24,-1.17333 0,-1.25334 0.85333,-2 0.88,-0.74667 2.13334,-0.74667 1.65333,0 2.48,1.22667 0.82667,1.2 0.82667,3.36 0,2.56 -1.41334,4.32001 -1.41333,1.76 -4.18667,2.61333 z"
         id="path15" />
      <path
         style="font-weight:bold;font-family:'Source Code Pro';-inkscape-font-specification:'Source Code Pro Bold';fill:#ffff00"
         d="m 72.505082,292.48516 v -2.08 h 1.093334 q 0.826668,0 1.333335,-0.08 0.533334,-0.08 0.826668,-0.29333 0.293334,-0.21334 0.400001,-0.58667 0.133333,-0.34667 0.133333,-0.90667 0,-1.09333 -0.05333,-2.10667 -0.05333,-1.01333 -0.05333,-2.24 0,-1.52 0.613334,-2.18667 0.613335,-0.69333 2.053336,-0.93333 v -0.10667 q -1.440001,-0.24 -2.053336,-0.90667 -0.613334,-0.69333 -0.613334,-2.21333 0,-1.20001 0.05333,-2.24001 0.05333,-1.04 0.05333,-2.10667 0,-0.56 -0.133333,-0.90666 -0.106667,-0.37334 -0.400001,-0.58667 -0.293334,-0.21334 -0.826668,-0.29334 -0.506667,-0.08 -1.333335,-0.08 h -1.093334 v -2.08 h 2.053336 q 2.560003,0 3.760004,0.82667 1.200002,0.8 1.200002,2.96 0,0.69334 -0.05333,1.28001 -0.02667,0.56 -0.106666,1.09333 -0.05333,0.50667 -0.106667,1.04 -0.02667,0.53334 -0.02667,1.14667 0,0.34667 0.16,0.69333 0.160001,0.34667 0.586668,0.64 0.426667,0.26667 1.120001,0.45334 0.720001,0.16 1.813336,0.18667 v 2.29333 q -1.093335,0.0267 -1.813336,0.21333 -0.693334,0.16001 -1.120001,0.45334 -0.426667,0.26667 -0.586668,0.61333 -0.16,0.34667 -0.16,0.69334 0,0.64 0.02667,1.17333 0.05333,0.50667 0.106667,1.04 0.08,0.50667 0.106666,1.06667 0.05333,0.56 0.05333,1.28 0,2.16001 -1.200002,2.96001 -1.200001,0.82666 -3.760004,0.82666 z"
         id="path16" />
    </g>
  </g>
</svg>
