<?xml version="1.0" encoding="UTF-8" standalone="no"?>
<svg
   viewBox="0 0 512 512"
   height="512"
   width="512"
   id="svg869"
   version="1.1"
   sodipodi:docname="computer-networking.svg"
   inkscape:version="1.2.2 (b0a8486541, 2022-12-01)"
   xmlns:inkscape="http://www.inkscape.org/namespaces/inkscape"
   xmlns:sodipodi="http://sodipodi.sourceforge.net/DTD/sodipodi-0.dtd"
   xmlns="http://www.w3.org/2000/svg"
   xmlns:svg="http://www.w3.org/2000/svg"
   xmlns:rdf="http://www.w3.org/1999/02/22-rdf-syntax-ns#"
   xmlns:cc="http://creativecommons.org/ns#"
   xmlns:dc="http://purl.org/dc/elements/1.1/">
  <sodipodi:namedview
     id="namedview6"
     pagecolor="#505050"
     bordercolor="#ffffff"
     borderopacity="1"
     inkscape:showpageshadow="0"
     inkscape:pageopacity="0"
     inkscape:pagecheckerboard="1"
     inkscape:deskcolor="#505050"
     showgrid="false"
     inkscape:zoom="0.78333333"
     inkscape:cx="237.44681"
     inkscape:cy="251.48936"
     inkscape:window-width="1366"
     inkscape:window-height="705"
     inkscape:window-x="0"
     inkscape:window-y="0"
     inkscape:window-maximized="1"
     inkscape:current-layer="svg869" />
  <metadata
     id="metadata875">
    <rdf:RDF>
      <cc:Work
         rdf:about="">
        <dc:format>image/svg+xml</dc:format>
        <dc:type
           rdf:resource="http://purl.org/dc/dcmitype/StillImage" />
      </cc:Work>
    </rdf:RDF>
  </metadata>
  <defs
     id="defs873" />
  <path
     id="path664"
     style="fill:#000000;fill-rule:evenodd;stroke-width:4.45263;stroke-linecap:round;stroke-linejoin:bevel"
     d="m 350.07799,329.93795 c -1.05382,0.4254 -2.23544,0.61743 -3.05858,1.46403 -1.40234,1.90605 -2.6361,3.96591 -3.99561,5.91631 -2.23682,3.34289 -4.65987,6.58812 -7.2691,9.5772 -5.22089,6.04568 -10.91179,11.70657 -17.15324,16.68662 -2.99202,2.36041 -6.29419,4.55159 -9.48943,6.44583 -9.21523,5.38748 -19.0384,9.91149 -29.46289,12.32111 -14.16684,3.31952 -28.98674,3.6496 -43.32784,1.28188 -9.30726,-1.55644 -18.39867,-4.44428 -26.84782,-8.67807 -16.10772,-7.93165 -30.23002,-19.90867 -40.66015,-34.58747 -1.38863,-1.861 -2.72601,-3.7767 -4.15692,-5.59585 -0.8884,-0.78825 -2.06536,-1.03885 -3.18209,-1.33617 -1.39051,-0.17862 -2.66615,0.58681 -3.9792,0.93713 -1.2139,0.30105 -1.99625,1.3087 -2.6571,2.30273 -1.09451,1.30944 -0.6629,3.0929 -0.74782,4.65679 0.0104,15.89521 -0.0299,31.79193 0.0304,47.6862 0.24473,2.73271 2.33313,4.6956 3.8978,6.75576 2.58139,3.3157 5.32704,6.53998 7.44081,10.1887 1.3239,2.32303 1.20852,5.13369 0.83974,7.69516 -0.36696,2.62696 -1.86663,4.85275 -2.97652,7.19878 -0.79695,1.49458 -0.7656,3.33593 -0.14333,4.88712 0.38379,1.62773 1.34132,3.155 2.86693,3.91382 8.63625,4.79429 17.32271,9.56773 26.51065,13.22532 17.29538,7.0712 35.79244,11.24447 54.46446,11.92198 21.63621,0.96915 43.49908,-2.16838 63.856,-9.6668 8.65905,-3.14766 17.00031,-7.10886 25.13873,-11.42402 3.24622,-1.69728 6.61256,-3.28612 9.43543,-5.66298 2.3235,-2.13633 3.4719,-5.64383 2.34602,-8.6796 -0.69556,-2.22715 -2.05044,-4.24369 -2.26281,-6.61441 -0.41438,-2.5457 -0.18732,-5.36818 1.44551,-7.46546 2.88747,-4.56774 6.5146,-8.59082 9.71718,-12.92502 1.40609,-2.32692 0.94315,-5.13109 1.01065,-7.71271 0,-16.6194 0,-33.2388 0,-49.8582 -0.18931,-0.82623 -0.5889,-1.53596 -1.12017,-2.18536 -0.61597,-1.0257 -1.6347,-1.72427 -2.80319,-1.94674 -1.17782,-0.29509 -2.3108,-0.92255 -3.55474,-0.7274 l -0.0984,0.002 z" />
  <path
     id="path662"
     style="fill:#000000;fill-rule:evenodd;stroke-width:4.45263;stroke-linecap:round;stroke-linejoin:bevel"
     d="m 170.10137,123.67009 c -2.9069,0.42539 -5.21085,2.42928 -7.61147,3.96367 -6.37118,4.36718 -12.64853,8.91338 -18.42446,14.0607 -7.31743,6.60199 -14.09573,13.78606 -20.61015,21.18244 -4.59998,5.29633 -8.72796,10.99142 -12.45442,16.93877 -15.862681,25.01893 -25.608902,53.95527 -27.984625,83.53835 -0.768819,9.62496 -0.639194,19.3111 0.233125,28.92426 0.214831,2.90619 0.451788,5.95773 0.595023,8.77859 0.142334,1.57836 -0.005,3.16644 0.164091,4.74019 0.244858,1.96511 1.879929,3.29686 3.229711,4.5554 1.185994,0.83525 2.67239,1.1836 4.109206,1.04638 18.426549,0.18739 36.855729,0.25105 55.278699,0.67499 3.56371,-0.15766 6.2342,-3.91 5.69453,-7.36172 -0.52656,-2.37849 -1.20154,-4.73151 -1.5788,-7.1453 -0.44467,-2.56115 -0.70861,-5.03503 -0.96433,-7.64628 -0.33937,-3.61668 -0.53947,-7.25888 -0.60503,-10.82885 -0.0705,-3.53996 -0.0135,-7.05667 0.15574,-10.5432 0.2743,-6.48958 1.41473,-12.91844 3.16715,-19.16418 0.64104,-2.33151 1.25734,-4.50706 2.0006,-6.81816 2.15133,-6.78379 4.86863,-13.40844 8.4762,-19.54752 5.8654,-10.17537 13.39589,-19.37205 22.166,-27.15063 0.80201,-0.69863 1.79886,-1.56515 2.6946,-2.30639 1.61019,-1.32923 3.10579,-2.50446 4.78075,-3.74253 1.90462,-1.41129 3.85942,-2.75295 5.84949,-4.03927 0.44454,-0.27231 1.1733,-0.74298 1.64144,-1.02933 1.24254,-0.7661 2.44057,-1.47122 3.75489,-2.21167 1.94979,-1.09916 3.95078,-2.14008 5.89561,-3.07796 9.97537,-4.79601 20.70646,-8.07054 31.69066,-9.41407 3.76824,-0.4417 7.56435,-0.65688 11.30202,-0.68411 4.38928,-0.045 8.96762,0.19444 13.19846,0.61341 1.47952,0.14721 2.8843,0.32715 4.40908,0.52947 9.07758,1.21025 17.9951,3.65729 26.38082,7.36648 18.95585,8.16041 35.39651,22.10187 46.57753,39.527 5.12637,7.90717 9.19225,16.49228 12.21547,25.42418 0.18913,0.59296 0.48841,1.49048 0.7186,2.20082 1.81853,5.99567 3.52698,12.09232 4.00449,18.36801 0.23271,4.07339 0.23152,8.07851 0.26868,12.19413 3.9e-4,3.36012 -0.033,6.72193 -0.15081,10.01988 -0.23367,5.85051 -0.52638,11.82261 -2.51224,17.38498 -0.93902,3.50127 1.85513,7.29242 5.3799,7.68257 4.50259,0.73725 9.08368,0.49795 13.62649,0.57343 14.01322,0.0162 28.02542,-0.18937 42.0381,-0.28359 1.4711,-0.19814 2.76624,-1.02262 3.80465,-2.05522 1.26076,-1.04557 2.0894,-2.58129 2.15611,-4.23446 1.05921,-7.28433 1.95398,-14.6131 2.00742,-21.98512 0.26187,-13.89103 -0.86088,-27.82328 -3.52023,-41.46079 -3.57,-17.74958 -9.91692,-34.91866 -18.58283,-50.78601 -11.68575,-21.34353 -27.75189,-40.27654 -47.02492,-55.0593 -4.86767,-3.77659 -9.81038,-7.52026 -15.23851,-10.45263 -2.32043,-1.16038 -5.34357,-1.39346 -7.48057,0.29027 -2.12895,1.55328 -2.97626,4.18378 -3.66735,6.6136 -1.0486,2.18869 -2.8779,3.85923 -4.5162,5.59909 -1.44899,1.49962 -3.20974,2.83991 -5.33178,3.11288 -2.93914,0.48959 -5.93412,0.34623 -8.89981,0.50464 -14.71593,0.33416 -29.4372,0.24725 -44.15583,0.25463 -26.88449,-0.0432 -53.76869,-0.18729 -80.65305,-0.2738 -2.50856,-1.43984 -5.06983,-2.91726 -6.97888,-5.14774 -1.50335,-1.68324 -2.83775,-3.60559 -3.3279,-5.8509 -0.5771,-2.65339 -2.25801,-5.29101 -4.94714,-6.13255 -0.78869,-0.24291 -1.62505,-0.29876 -2.444,-0.22993 z" />
  <path
     id="path879-3"
     style="fill:#0000ff;stroke-width:0.569474"
     d="m 263.88635,21.008578 c -12.36494,-0.02108 -24.72963,0.003 -37.09436,0.0058 -0.80303,0.0071 -1.6064,0.01416 -2.40943,0.02125 -8.41552,0.05578 -16.8737,-0.129629 -25.23746,0.954523 -5.1028,0.886374 -10.06217,3.902087 -12.39681,8.673797 -2.31745,4.356778 -2.27226,9.432482 -2.39405,14.23863 -0.2746,10.433105 -0.22621,20.870342 -0.26131,31.306049 -11.6709,5.174967 -23.54525,10.065618 -34.3756,16.918638 -23.52568,14.374065 -44.09101,33.506825 -60.610249,55.621285 -15.903888,21.48651 -27.520281,46.09244 -34.512012,71.91773 -2.419568,8.37105 -4.033739,16.96399 -5.047491,25.61755 -2.520939,19.04625 -3.3524,38.46113 -0.632138,57.53419 0.101248,0.64559 0.223162,1.28855 0.34585,1.9303 -5.099607,0.0761 -10.213809,0.0772 -15.294266,0.55456 -3.750139,0.55151 -7.227034,2.36946 -10.070007,4.85377 -1.5505,1.16867 -3.079599,2.30657 -4.645921,3.47029 -0.199926,24.8916 -0.401023,49.78348 -0.601395,74.67503 -4.059105,5.02498 -8.453889,9.9515 -11.4111371,15.77476 -2.1239463,4.85866 -1.3776505,10.6113 1.1835764,15.15257 3.2609377,6.14413 9.7395727,10.59811 16.7295457,10.85722 5.625503,0.43183 11.273223,0.30775 16.910155,0.40384 21.024373,0.1392 42.05072,0.0474 63.075399,0.0792 1.06675,0.039 2.18328,-0.0784 3.21833,0.058 10.2397,7.50424 20.24314,15.35405 30.58468,22.75205 18.01233,12.52237 38.01635,22.15739 59.02319,28.37872 13.22189,3.86508 26.81602,6.46295 40.53173,7.69222 11.58072,0.90827 23.22074,0.57632 34.80022,-0.17003 7.69437,-0.63956 15.29995,-2.06342 22.85878,-3.60555 11.29569,-2.42464 22.40028,-5.76039 33.18049,-9.92782 12.36672,-4.91083 24.17685,-11.18493 35.3824,-18.36782 5.8789,-3.80792 11.62213,-7.84726 17.03697,-12.30059 3.32362,-2.91009 5.77919,-7.09932 5.77377,-11.62239 0.003,-1.02058 -0.12166,-2.041 -0.36506,-3.03167 28.53397,0.14831 57.06973,0.15988 85.60371,0.0387 5.8401,-0.0841 11.70793,-0.14174 17.4981,-0.98158 4.83412,-0.88918 9.45963,-3.63573 12.02022,-7.93568 2.56157,-3.7336 4.22811,-8.3265 3.57186,-12.90732 -0.46974,-4.23576 -2.59949,-8.07622 -5.21081,-11.35573 -2.35346,-3.22209 -4.97121,-6.23545 -7.46461,-9.34622 l 0.006,-72.72155 c -3.7423,-3.51267 -7.48407,-7.02592 -11.22477,-10.54033 h -21.52533 c 1.22723,-11.06746 2.20951,-22.19873 1.84069,-33.34649 -0.30166,-17.33059 -2.77241,-34.61331 -7.16679,-51.36843 -2.1415,-7.74751 -4.89381,-15.30662 -7.69709,-22.83127 -4.98726,-13.08723 -11.08413,-25.79287 -18.80656,-37.48147 -12.69588,-19.85728 -28.59519,-37.66062 -47.0241,-52.29784 -14.14709,-11.274719 -29.72512,-20.814628 -46.41887,-27.764264 -3.05734,-1.227264 -6.43086,-1.996452 -9.71455,-1.348699 -0.096,-12.860313 -0.055,-25.725693 -0.45921,-38.58091 -0.19157,-4.254683 -1.12941,-8.678885 -3.85432,-12.061002 -3.30275,-4.357365 -8.63181,-7.127845 -14.09531,-7.174383 -1.92813,-0.08021 -4.05456,-0.123781 -6.06007,-0.150715 -12.36393,-0.174172 -24.72942,-0.239773 -37.09436,-0.260852 z m -92.07111,107.036082 0.002,0.0503 c 0.32124,6.5799 4.38021,12.6815 10.0066,15.93707 3.34649,1.99346 7.24539,2.96143 11.12677,2.90221 12.02202,0.1591 24.04523,0.19736 36.06834,0.23767 23.28303,0.046 46.56731,0.0105 69.85022,-0.0657 6.77763,-0.0547 13.56353,-0.0223 20.33023,-0.44634 3.90791,-0.34 7.79522,-1.67005 10.82127,-4.23546 4.34198,-3.49781 7.33563,-8.73102 7.89692,-14.32171 13.63986,8.1154 25.91828,18.41437 36.89069,29.88199 8.47278,8.89304 15.90859,18.77498 22.14786,29.37189 1.09837,1.86155 2.25203,3.90343 3.3144,5.86819 6.60475,12.27162 11.91632,25.44586 15.5671,38.97702 0.42701,1.56444 0.77251,2.98424 1.16821,4.58518 0.29216,1.29128 0.58697,2.4906 0.83964,3.72149 0.51352,2.35154 0.94561,4.71937 1.35459,7.0913 0.0928,0.62165 0.244,1.56431 0.35929,2.30901 0.2566,1.68886 0.50918,3.65357 0.71669,5.46823 0.81999,7.29044 1.03275,14.6321 1.17204,21.92698 0.0472,3.36714 0.008,6.7353 -0.1345,10.09979 -0.0474,0.97954 -0.13784,2.21894 -0.22288,3.29832 -0.43331,5.02121 -1.30464,9.98792 -2.01746,14.97288 h -54.36381 c -0.72287,0.58445 -1.446,1.16856 -2.16926,1.75254 a 111.72403,113.71987 0 0 0 4.11563,-30.12546 111.72403,113.71987 0 0 0 -111.72308,-113.71968 111.72403,113.71987 0 0 0 -111.725,113.71968 111.72403,113.71987 0 0 0 4.02531,29.6965 c -1.87461,-0.57742 -3.82389,-0.89028 -5.78338,-0.90622 -6.77036,-0.26937 -13.54793,-0.25271 -20.32255,-0.32847 -10.44051,-0.0788 -20.88179,-0.0623 -31.322505,-0.0773 -0.682961,-8.54125 -1.512012,-17.03105 -1.917547,-25.59629 -0.253822,-6.11841 0.290133,-12.21346 0.764713,-18.29439 0.438391,-5.3084 1.08676,-10.65557 2.013617,-15.83659 2.112404,-11.71805 5.5407,-23.24875 9.981622,-34.34159 6.44041,-15.94483 15.03271,-31.07231 25.94261,-44.36022 9.75863,-11.91462 21.08027,-22.53372 33.54556,-31.53791 3.78338,-2.72247 7.67869,-5.2882 11.68012,-7.67484 z M 352.4048,332.28949 c -0.15497,19.18764 -0.31001,38.37552 -0.46498,57.56317 -3.57011,4.42349 -7.35806,8.70811 -10.39665,13.53143 -2.93709,5.59306 -2.12098,12.6458 1.2124,17.87703 0.33388,0.55649 0.70665,1.0874 1.08559,1.61341 -4.31828,2.81748 -8.828,5.48025 -13.31716,7.86227 -8.6184,4.57655 -17.65289,8.35134 -26.93789,11.32674 -0.79162,0.24113 -1.67292,0.53148 -2.48627,0.76904 -9.42189,2.83778 -19.2944,4.81322 -29.15134,5.8392 -1.85152,0.19249 -3.81499,0.36303 -5.68347,0.4908 -5.12266,0.34679 -10.15817,0.44726 -15.31349,0.30336 -1.61519,-0.0506 -3.44398,-0.12579 -5.13972,-0.22801 -6.70135,-0.40189 -13.50797,-0.93311 -20.04586,-2.23753 -9.78025,-1.83965 -19.42958,-4.45107 -28.7267,-8.02843 -2.00079,-0.77392 -4.2306,-1.67759 -6.24259,-2.56214 -3.30697,-1.44064 -6.59969,-3.02582 -9.70111,-4.65282 -4.64097,-2.43408 -9.18145,-5.0559 -13.69182,-7.72507 3.49929,-4.17545 5.65547,-9.79324 4.78041,-15.28783 -0.48021,-3.65682 -2.46327,-6.86729 -4.65168,-9.7404 -2.51627,-3.18985 -5.07937,-6.34291 -7.63561,-9.50078 -0.0273,-17.64571 0.0536,-35.29241 -0.14218,-52.93741 a 111.72403,113.71987 0 0 0 95.17799,54.45615 111.72403,113.71987 0 0 0 97.47213,-58.73218 z" />
  <path
     id="path920"
     style="fill:#00ff00;fill-opacity:0.984375;fill-rule:evenodd;stroke:none;stroke-width:4.51345;stroke-linecap:round;stroke-linejoin:bevel;stroke-opacity:0.984314"
     d="m 76.164062,320.08594 c -10.14353,0.0767 -20.295887,-0.0485 -30.430115,0.45025 -2.577516,0.19628 -5.463385,0.19821 -7.549861,1.94748 -2.069185,1.76293 -2.508153,4.62182 -2.649998,7.1863 -0.438259,5.74262 -0.365725,11.50804 -0.481051,17.26267 -0.12373,11.48333 -0.268632,22.97695 0.261595,34.4522 0.223749,2.66004 0.544614,5.43138 1.868962,7.7968 1.434091,2.28373 4.235195,3.30637 6.843408,3.20403 11.508983,0.43219 23.028737,0.43541 34.54409,0.53124 19.228119,0.0937 38.456518,0.0916 57.684768,0.14168 1.08223,-0.23719 1.93723,-0.69091 2.83502,-1.32526 0.89092,-0.74058 1.37731,-1.83285 2.00218,-2.78654 1.12973,-1.93042 1.03299,-4.23864 1.31726,-6.38707 0.53712,-7.12602 0.54106,-14.27924 0.59779,-21.42183 0.009,-10.22127 -0.14146,-20.45082 -0.82246,-30.65165 -0.19886,-2.29211 -0.35806,-4.63345 -1.09385,-6.82608 -0.79122,-1.86589 -2.82772,-2.95055 -4.8112,-2.86805 -6.71078,-0.47646 -13.44438,-0.43771 -20.16768,-0.56753 -13.31562,-0.16144 -26.632518,-0.14165 -39.948858,-0.13864 z" />
  <path
     id="path1064"
     style="fill:#ff0000;fill-opacity:0.984375;fill-rule:evenodd;stroke:none;stroke-width:1.59574;stroke-linecap:round;stroke-linejoin:bevel;stroke-opacity:0.984314"
     d="m 70.746094,403.57031 c -1.369489,1.45399 -3.045437,2.68055 -4.069261,4.4219 -0.813706,1.36299 -0.01271,3.25757 1.506761,3.67576 2.244967,0.62948 4.617922,0.49487 6.927682,0.58923 10.52214,0.11522 21.047816,0.0686 31.567434,-0.18996 1.14713,-0.098 2.36113,0.0454 3.45977,-0.31909 0.80649,-0.38382 1.46197,-1.08143 1.53602,-2.00727 0.19467,-2.01919 -1.3465,-3.63107 -2.62636,-4.99168 -1.7121,-1.65084 -4.2718,-1.53231 -6.47853,-1.66885 -8.319786,-0.15697 -16.642407,-0.0473 -24.96336,-0.0804 -1.848926,0.0254 -3.717745,-0.0507 -5.554315,0.0378 -0.43528,0.17752 -0.870561,0.35504 -1.305841,0.53255 z" />
  <path
     id="path1135"
     style="fill:#ff0000;fill-opacity:0.984375;fill-rule:evenodd;stroke:none;stroke-width:1.59574;stroke-linecap:round;stroke-linejoin:bevel;stroke-opacity:0.984314"
     d="m 84.048828,410.70508 c -2.228963,0.10819 -4.57696,-0.0931 -6.679687,0.78515 -1.914875,0.8481 -2.415366,3.86713 -0.614631,5.09555 1.642642,1.09557 3.730597,0.97108 5.617691,1.16985 5.300627,0.35631 10.627273,0.26231 15.915878,-0.22452 1.559091,-0.13966 3.498921,-0.55479 4.068671,-2.23442 0.58059,-1.55491 -0.23069,-3.53557 -1.89822,-3.97832 -2.31451,-0.63535 -4.754797,-0.44528 -7.130405,-0.5586 -3.092931,-0.0401 -6.186068,-0.0789 -9.279297,-0.0547 z" />
  <path
     id="path1060"
     style="fill:#00ff00;fill-opacity:0.984375;fill-rule:evenodd;stroke:none;stroke-width:4.51345;stroke-linecap:round;stroke-linejoin:bevel;stroke-opacity:0.984314"
     d="m 469.58789,320.04102 c -8.18605,0.0593 -16.3775,0.008 -24.56562,0.0254 -18.4619,0.0254 -36.92448,-0.0574 -55.3858,0.10725 -4.44586,0.10784 -8.90846,0.0838 -13.33363,0.56358 -2.15699,0.26445 -4.51217,1.145 -5.50183,3.23642 -1.14168,2.37887 -1.03512,5.09987 -1.23771,7.67157 -0.32667,7.33972 -0.25004,14.69037 -0.29299,22.03561 0.007,9.09261 -0.0646,18.18821 0.17739,27.27822 0.11534,2.6188 0.1243,5.36418 1.23238,7.79117 1.12368,2.21297 3.5727,3.4566 5.99282,3.55461 5.12088,0.60079 10.28926,0.52392 15.4363,0.62779 18.89858,0.1911 37.79869,0.12971 56.69782,0.0755 6.61502,-0.0509 13.24235,-0.0119 19.84158,-0.5221 2.36751,-0.16663 5.06696,-0.91363 6.27328,-3.15792 1.1885,-2.22317 1.11199,-4.83435 1.34371,-7.27865 0.4302,-7.37981 0.42314,-14.77652 0.53289,-22.16604 0.0681,-9.27349 0.26744,-18.55202 -0.0368,-27.82288 -0.11482,-3.04325 -0.35306,-6.31576 -2.2645,-8.83356 -0.59077,-0.92497 -1.19444,-1.90888 -2.24735,-2.35798 -0.79631,-0.49638 -1.70511,-0.8837 -2.66198,-0.82799 z" />
  <path
     id="path1137"
     style="fill:#ff0000;fill-opacity:0.984375;fill-rule:evenodd;stroke:none;stroke-width:1.59574;stroke-linecap:round;stroke-linejoin:bevel;stroke-opacity:0.984314"
     d="m 403.82617,403.63672 c -1.54903,1.56885 -2.92732,3.45889 -3.39453,5.64844 -0.24933,1.33481 0.8173,2.67794 2.18164,2.70703 4.63136,0.39841 9.28887,0.30738 13.9332,0.33966 8.19885,-0.046 16.40366,-0.10063 24.59186,-0.55035 1.47045,-0.14062 3.30158,-0.0288 4.25228,-1.39283 0.62868,-1.02056 0.30396,-2.32224 -0.52184,-3.12945 -1.17603,-1.25276 -2.359,-2.53122 -3.60936,-3.69455 -0.74908,-0.34038 -1.49329,-0.70478 -2.3395,-0.56467 -11.21028,0 -22.42057,0 -33.63086,0 -0.48763,0.21224 -0.97526,0.42448 -1.46289,0.63672 z" />
  <path
     id="path1139"
     style="fill:#ff0000;fill-opacity:0.984375;fill-rule:evenodd;stroke:none;stroke-width:1.59574;stroke-linecap:round;stroke-linejoin:bevel;stroke-opacity:0.984314"
     d="m 416.50781,410.7168 c -1.9624,0.1452 -4.17551,-0.0622 -5.84057,1.17916 -1.17043,0.86213 -1.71048,2.65412 -0.72193,3.85404 1.32764,1.7396 3.67361,1.81771 5.66665,1.97449 5.61018,0.37667 11.25275,0.32315 16.84898,-0.2284 1.50189,-0.14137 3.29641,-0.69231 3.77148,-2.31054 0.49936,-1.56065 -0.34627,-3.44028 -1.9759,-3.88351 -2.35673,-0.62776 -4.83367,-0.44442 -7.24904,-0.5526 -3.49951,-0.0453 -7.00015,-0.10467 -10.49967,-0.0326 z" />
  <path
     id="path1062"
     style="fill:#00ff00;fill-opacity:0.984375;fill-rule:evenodd;stroke:none;stroke-width:4.51345;stroke-linecap:round;stroke-linejoin:bevel;stroke-opacity:0.984314"
     d="m 245.69727,35.496094 c -12.10174,0.09379 -24.21311,0.05432 -36.30196,0.676354 -2.01382,0.14797 -4.37237,0.0918 -5.88164,1.661536 -1.64579,1.795737 -1.51235,4.401182 -1.74642,6.667907 -0.53018,8.259827 -0.512,16.542171 -0.64327,24.814901 -0.0745,9.15499 -0.2287,18.312253 -0.06,27.466743 0.11258,2.328648 0.15002,4.760475 1.10398,6.927405 1.30124,2.6837 4.26128,4.19578 7.15984,4.33881 5.36763,0.59301 10.77962,0.49201 16.17131,0.58063 20.08826,0.12062 40.17768,0.11745 60.26569,-0.0429 5.45334,-0.10542 10.9198,-0.11578 16.3549,-0.6051 1.82272,-0.18599 3.80489,-0.90902 4.64591,-2.67182 1.01012,-2.09483 0.87406,-4.49809 1.08097,-6.760587 0.37471,-7.763838 0.30487,-15.540596 0.35093,-23.311268 -0.008,-9.881791 0.077,-19.769126 -0.31045,-29.645184 -0.14422,-2.177878 -0.24721,-4.450001 -1.16832,-6.462652 -0.92344,-1.765813 -2.91861,-2.714862 -4.86336,-2.692653 -6.75052,-0.581911 -13.53342,-0.575437 -20.3027,-0.734462 -11.95078,-0.191991 -23.90333,-0.220263 -35.85542,-0.20765 z" />
  <path
     id="path1141"
     style="fill:#ff0000;fill-opacity:0.984375;fill-rule:evenodd;stroke:none;stroke-width:1.59574;stroke-linecap:round;stroke-linejoin:bevel;stroke-opacity:0.984314"
     d="m 235.64844,119.35547 c -1.21355,1.5539 -2.7261,2.95318 -3.49601,4.79876 -0.3945,1.15987 0.37154,2.50138 1.5253,2.8653 2.20571,0.75677 4.58241,0.44019 6.87069,0.56918 9.84222,0.0819 19.68758,0.11309 29.52813,-0.10453 1.93257,-0.15185 3.97296,0.059 5.79845,-0.70293 1.41895,-0.66013 1.75635,-2.58938 0.88086,-3.82031 -0.84641,-1.26897 -1.82898,-2.47928 -2.82644,-3.61368 -0.76531,-0.3479 -1.48823,-0.88167 -2.37239,-0.70859 -11.45781,0 -22.91562,0 -34.37344,0 -0.51171,0.23893 -1.02343,0.47787 -1.53515,0.7168 z" />
  <path
     id="path1143"
     style="fill:#ff0000;fill-opacity:0.984375;fill-rule:evenodd;stroke:none;stroke-width:1.59574;stroke-linecap:round;stroke-linejoin:bevel;stroke-opacity:0.984314"
     d="m 250.04688,126.3125 c -2.04726,0.078 -4.12488,-0.0642 -6.14897,0.28304 -2.07534,0.45753 -3.29684,3.12004 -2.08962,4.92849 0.76093,1.31761 2.39165,1.54065 3.77482,1.50478 6.08625,0.11811 12.17884,0.15804 18.26318,-0.0514 0.85076,-0.10425 1.78502,-0.0748 2.58038,-0.3033 0.55869,-0.68075 1.29672,-1.29213 1.74325,-2.01627 -0.05,-0.66193 0.096,-1.40109 -0.0682,-2.01806 -0.64197,-0.61828 -1.19595,-1.42079 -1.89093,-1.92807 -5.37459,-0.46051 -10.77477,-0.40021 -16.16392,-0.39918 z" />
  <path
     id="path879"
     d="m 240.36496,476.73796 c -13.25198,-1.02125 -30.61667,-4.51608 -43.39469,-8.73362 -20.25716,-6.686 -39.33446,-16.62268 -55.88369,-29.1077 l -5.75599,-4.3424 9.65856,-0.27594 c 5.3122,-0.15166 9.95949,-0.45942 10.32726,-0.68376 0.37954,-0.23164 2.66751,0.82109 5.29032,2.43407 20.57484,12.65291 38.59156,19.83808 60.75778,24.23069 7.92504,1.57055 11.27186,1.98386 22.043,2.72227 27.99461,1.91941 55.63961,-2.87477 81.41216,-14.11833 8.12487,-3.54465 17.40198,-8.48455 24.28896,-12.93342 l 4.50339,-2.90918 3.33624,0.62883 c 1.83495,0.34586 6.33406,0.62883 9.99809,0.62883 3.66398,0 6.64667,0.18621 6.62816,0.4138 -0.0626,0.76878 -10.20539,8.20941 -17.60077,12.9116 -8.58468,5.4585 -20.08351,11.49485 -28.80284,15.12032 -12.08789,5.02617 -29.01516,9.88687 -41.14691,11.81544 -2.10144,0.33408 -5.14338,0.84342 -6.75988,1.13192 -7.70125,1.3743 -27.76721,1.92448 -38.89915,1.06658 z M 23.4469,416.64634 c -2.057306,-1.17734 -3.70237,-3.67502 -3.70237,-5.62129 0,-0.72798 2.609462,-4.4415 6.318995,-8.9925 l 6.318995,-7.75241 0.293903,-36.32328 0.293907,-36.32328 1.387699,-1.05435 c 1.343328,-1.02065 3.087964,-1.05437 54.558337,-1.05437 36.963634,0 53.532374,0.18171 54.357374,0.59611 2.80837,1.41064 2.85067,1.99427 2.85067,39.33101 v 34.99725 l 4.55555,5.59225 c 8.23837,10.11309 8.35868,10.30294 7.76434,12.24798 -0.29043,0.95044 -0.99832,2.21574 -1.57311,2.8119 -2.63515,2.73292 0.12688,2.62615 -67.882445,2.62398 -62.102009,0 -63.706044,-0.0286 -65.541845,-1.079 z m 76.86895,-1.44785 c 0.56071,-0.63411 0.60319,-1.12602 0.15488,-1.79304 -0.539798,-0.80315 -1.974561,-0.91925 -11.364218,-0.91925 -9.389671,0 -10.824424,0.1161 -11.364206,0.91925 -0.448333,0.66702 -0.405853,1.15893 0.154851,1.79304 1.152441,1.30327 21.266272,1.30327 22.418693,0 z m 9.679,-5.22676 c 0.64805,-0.98418 -2.52709,-4.9295 -3.99704,-4.96666 -0.72283,-0.0181 -8.577021,-0.0832 -17.453741,-0.14425 l -16.139493,-0.11096 -1.655118,1.30711 c -1.950738,1.54057 -3.000986,3.20147 -2.502815,3.95799 0.508373,0.77204 41.239147,0.72987 41.748207,-0.0431 z m 27.15872,-21.22485 c 0.70596,-0.4641 1.5569,-1.76749 1.89096,-2.89642 0.38069,-1.28655 0.6086,-12.40565 0.61065,-29.79323 0.004,-29.55027 -0.098,-30.69333 -2.84737,-32.07436 -0.82142,-0.41262 -15.50053,-0.5961 -47.683343,-0.5961 -51.278684,0 -48.596124,-0.1842 -49.93811,3.42891 -0.84923,2.28643 -0.865531,56.17012 -0.01787,59.03478 1.177988,3.98096 -2.036119,3.74023 49.93801,3.74023 41.016813,0 46.921213,-0.10366 48.047043,-0.84381 z m 220.87754,28.45413 c -3.01284,-1.1696 -5.43832,-5.4711 -4.2402,-7.5197 0.34,-0.58136 3.1525,-4.15683 6.24998,-7.94549 l 5.63178,-6.88848 0.29392,-36.33008 0.29392,-36.33009 1.64926,-1.33115 1.64925,-1.33116 h 53.48497 53.48487 l 1.44287,1.35417 1.44277,1.35418 v 35.81854 35.81854 l 6.4568,7.92871 c 6.89766,8.47014 7.29989,9.41092 5.32322,12.45347 -2.40277,3.69864 1.96897,3.47853 -68.32784,3.43995 -35.01294,-0.0192 -64.18896,-0.2404 -64.83557,-0.49141 z m 76.16271,-2.00252 c 0.56069,-0.63411 0.60317,-1.12602 0.15488,-1.79304 -0.53979,-0.80315 -1.97456,-0.91925 -11.36425,-0.91925 -9.38964,0 -10.82439,0.1161 -11.36416,0.91925 -0.44836,0.66702 -0.40587,1.15893 0.15482,1.79304 1.15246,1.30327 21.26628,1.30327 22.41871,0 z m 9.81021,-5.62288 c 0.13733,-0.38712 -0.76652,-1.63659 -2.00858,-2.77666 l -2.2583,-2.07281 -17.04656,0.0958 c -9.37564,0.0525 -17.24125,0.12287 -17.47914,0.15606 -0.82427,0.11506 -3.49778,4.41304 -3.1107,5.00083 0.60755,0.92263 41.57259,0.52854 41.90328,-0.40312 z m 25.83113,-20.32593 c 0.71241,-0.17927 1.77044,-0.98273 2.35132,-1.78549 0.97591,-1.34881 1.06955,-3.59414 1.23463,-29.59621 0.0982,-15.47517 0.0147,-28.97051 -0.18563,-29.98964 -0.20024,-1.01912 -1.04669,-2.44664 -1.8809,-3.17227 l -1.51672,-1.3193 H 423.1539 c -32.31703,0 -47.04917,0.18343 -47.87071,0.5961 -2.75321,1.38294 -2.85064,2.49424 -2.85064,32.50585 0,29.80202 0.10439,31.04085 2.73703,32.47715 1.15734,0.63143 92.1997,0.90438 94.66558,0.28381 z M 246.02432,376.07645 c -3.41023,-0.38802 -7.77474,-1.00815 -9.69891,-1.37805 -5.20683,-1.00094 -15.57569,-4.33215 -17.72915,-5.69584 -1.84465,-1.16812 -1.87873,-1.26495 -1.53406,-4.35979 0.22943,-2.06032 0.11326,-3.43561 -0.33276,-3.94005 -0.53371,-0.60356 -0.48692,-0.84637 0.21148,-1.0979 0.52467,-0.18896 0.89671,-1.00144 0.89671,-1.9582 0,-1.14909 0.3485,-1.73904 1.17216,-1.98441 2.76878,-0.82479 4.00306,-4.28099 2.06728,-5.78883 -1.05507,-0.82185 -0.63193,-1.66014 0.83799,-1.66014 0.58793,0 1.40554,-0.38068 1.81696,-0.84594 1.12419,-1.27135 3.39295,-10.88237 2.86682,-12.14464 -0.79434,-1.9059 -0.58225,-2.39307 2.37738,-5.46042 3.70385,-3.83863 4.46887,-6.26527 3.56352,-11.30318 -0.59904,-3.33313 -0.54301,-3.98151 0.57395,-6.64112 0.82899,-1.97398 1.18018,-3.87376 1.06331,-5.75242 -0.17246,-2.77251 -0.20856,-2.82039 -3.11357,-4.13057 -1.6165,-0.72904 -4.26166,-1.44845 -5.87812,-1.59868 -1.6165,-0.15023 -3.46084,-0.61127 -4.09854,-1.02456 -1.53817,-0.99684 -3.79016,-0.95614 -4.2122,0.0761 -0.54785,1.33994 -2.49791,0.99026 -2.90187,-0.52033 -0.19826,-0.74136 -0.19844,-1.59391 -4.1e-4,-1.8946 0.19799,-0.30068 -0.0744,-1.56564 -0.60534,-2.81104 -1.07446,-2.52044 -2.70599,-3.53644 -6.67312,-4.15557 -1.7123,-0.26723 -4.19452,-1.42068 -7.16164,-3.32787 -4.10083,-2.63594 -4.77151,-2.88986 -6.91894,-2.61952 -1.68396,0.212 -2.82666,0.0234 -3.91528,-0.64604 -0.94777,-0.58282 -2.07967,-0.81764 -2.95147,-0.61228 -0.80073,0.18864 -1.4142,0.0893 -1.4142,-0.22908 0,-1.00393 -1.53564,-0.59715 -3.95477,1.04762 -1.70913,1.16201 -2.63612,2.349 -3.3325,4.26721 -0.89732,2.47177 -0.89574,2.8633 0.0234,5.60527 0.96166,2.86939 0.95411,3.01323 -0.28259,5.40228 -1.29076,2.49355 -1.69335,5.97639 -0.75382,6.52136 0.28417,0.16484 0.39324,1.35875 0.24237,2.65314 -0.2399,2.05851 -0.0393,2.59543 1.602,4.28439 1.03197,1.06202 3.20797,3.79293 4.83558,6.06868 4.06085,5.67793 4.90509,6.45617 8.07603,7.44468 1.51788,0.47318 3.46732,1.5535 4.3321,2.40071 1.7336,1.69829 3.52442,7.08583 4.15449,12.49845 0.21192,1.8206 0.88864,4.84014 1.50382,6.71006 0.61522,1.86991 1.30186,4.97324 1.52595,6.89624 0.22405,1.92302 0.78835,4.20218 1.25398,5.06483 0.4656,0.86263 0.73691,1.67138 0.60283,1.79719 -0.46259,0.43415 -8.37964,-5.45677 -12.96392,-9.64623 -8.82122,-8.06141 -16.58987,-18.36591 -21.92543,-29.08215 -2.78196,-5.58747 -7.01664,-17.24214 -7.84445,-21.58942 -2.75854,-14.48685 -3.31892,-21.83478 -2.40673,-31.55888 0.35392,-3.77275 0.76493,-6.9735 0.91333,-7.11279 0.14839,-0.13928 0.64515,0.0392 1.10387,0.39643 0.45876,0.35731 1.17682,0.57889 1.59577,0.49239 0.41895,-0.0866 0.85391,0.33924 0.9665,0.94611 0.5401,2.91048 0.84852,3.63201 1.97289,4.61517 1.00345,0.87741 1.24156,1.8527 1.38435,5.67019 0.20646,5.52024 1.53931,12.16139 2.50109,12.46227 0.38042,0.11903 1.13574,-0.41967 1.67844,-1.19709 1.21277,-1.73717 1.78693,-1.78387 2.23331,-0.1817 0.52427,1.88166 1.68307,0.40544 1.45321,-1.85128 -0.16947,-1.66388 -0.40982,-1.89269 -2.24711,-2.13903 -1.93899,-0.25998 -2.06759,-0.40836 -2.23596,-2.5797 -0.11157,-1.4389 0.39938,-3.87554 1.36085,-6.49007 1.8688,-5.08184 1.7644,-6.93063 -0.44747,-7.92102 -0.88904,-0.39809 -1.61645,-0.96149 -1.61645,-1.252 0,-0.29051 1.22245,-2.25369 2.71657,-4.36259 2.52498,-3.56391 3.02413,-5.53129 1.40343,-5.53129 -0.3407,0 -1.73769,0.95216 -3.10449,2.11593 -2.93639,2.50021 -4.23406,3.03526 -5.06966,2.09031 -0.76582,-0.86606 -0.0563,-3.43436 2.32491,-8.41558 2.1361,-4.46849 3.58557,-6.4142 6.14101,-8.24358 1.65719,-1.18637 2.18199,-1.31419 3.23137,-0.78706 0.98465,0.49459 1.54406,0.45023 2.61319,-0.20724 0.94212,-0.57938 1.87873,-0.7041 3.04662,-0.40565 1.84305,0.47096 1.98302,1.13112 1.15319,5.43825 -0.3694,1.91703 -0.27659,2.40651 0.50986,2.68976 1.35295,0.48727 2.25931,-0.90549 3.47745,-5.34382 1.13707,-4.14278 2.17785,-5.29134 6.94011,-7.65878 1.49235,-0.7419 3.12544,-1.98322 3.62903,-2.75847 1.70631,-2.62683 5.30319,-5.70181 7.95964,-6.80469 1.45475,-0.60397 3.05529,-1.55611 3.55677,-2.11589 1.30649,-1.45829 4.89341,-2.7351 5.93918,-2.11413 1.24353,0.73839 3.11079,0.63219 4.39625,-0.25002 0.993,-0.68151 1.03342,-0.93272 0.34439,-2.14106 -0.89286,-1.56584 -0.39928,-3.70724 0.85449,-3.70724 0.59132,0 0.79962,0.53732 0.69515,1.79302 -0.13879,1.66793 -0.0101,1.80548 1.84253,1.97161 4.42213,0.39646 6.38351,-1.51386 3.44554,-3.35586 -1.26668,-0.79417 -1.27912,-0.87461 -0.29388,-1.90375 1.46758,-1.53304 1.28017,-2.53657 -0.73478,-3.93478 -0.96989,-0.67302 -1.76345,-1.70403 -1.76345,-2.29113 0,-1.37813 -1.69585,-2.2089 -4.5169,-2.21278 -1.23363,-0.002 -3.19779,-0.25201 -4.36479,-0.55625 -1.76913,-0.46125 -2.07962,-0.7606 -1.86779,-1.80072 0.30124,-1.47888 4.36302,-3.85709 5.74039,-3.36103 1.21815,0.43873 0.86056,1.41676 -0.80554,2.20323 -1.8364,0.86689 -1.61878,1.52481 0.64577,1.95258 1.06477,0.20113 2.52635,0.53927 3.24804,0.75142 1.06344,0.31261 1.50906,0.061 2.35124,-1.32769 0.57152,-0.94235 1.36975,-1.71496 1.77389,-1.71687 0.40413,-0.002 0.73478,-0.22968 0.73478,-0.50615 0,-0.89699 -3.58098,-3.35905 -4.89456,-3.36521 -0.70264,-0.003 -2.4678,-0.33886 -3.92264,-0.74576 -2.75908,-0.77165 -6.81442,-0.60981 -7.41072,0.29576 -0.19032,0.28902 0.11767,1.0064 0.68439,1.59413 1.49729,1.55288 -0.01,1.35218 -2.33255,-0.3106 -1.05965,-0.7586 -2.21673,-1.37925 -2.57123,-1.37925 -1.06525,0 -1.511,1.19132 -0.64233,1.71677 0.6795,0.41106 0.66795,0.57758 -0.0716,1.03328 -0.48494,0.29878 -1.37333,0.54705 -1.97412,0.55169 -0.85462,0.006 -1.01689,-0.27393 -0.7455,-1.28889 0.43926,-1.64259 -0.006,-2.05951 -1.60248,-1.50022 -0.69419,0.24319 -1.79117,0.26409 -2.43778,0.0464 -1.13433,-0.38191 -1.12918,-0.40965 0.14698,-0.79046 0.72742,-0.21707 1.32258,-0.61863 1.32258,-0.89237 0,-0.69651 7.70676,-5.49244 12.63795,-7.86465 5.87468,-2.82606 12.91328,-5.34597 19.44413,-6.96123 12.09689,-2.99191 30.31398,-3.01737 42.6644,-0.0596 8.53153,2.04318 25.11466,8.92619 24.75773,10.27598 -0.0715,0.27067 -1.43834,0.62121 -3.03725,0.77898 -1.59891,0.15777 -3.39198,0.69554 -3.98459,1.19505 -0.59255,0.49951 -2.26774,1.33673 -3.72257,1.86047 -3.91577,1.40975 -4.8496,2.38886 -3.91555,4.10556 0.63947,1.17529 1.10537,1.35839 3.15053,1.2381 1.56469,-0.092 2.50398,0.11314 2.69876,0.58951 0.19314,0.47234 -0.14786,0.71732 -0.96443,0.69287 -0.95354,-0.0286 -1.30882,0.33412 -1.44923,1.47935 -0.1234,1.00666 -0.53001,1.51718 -1.20835,1.51718 -0.56233,0 -1.91872,0.62065 -3.01426,1.37925 -2.35679,1.63197 -3.52617,1.77184 -3.13707,0.37524 0.17568,-0.63052 -0.44028,-1.70796 -1.65583,-2.89642 -1.06458,-1.04082 -2.21377,-2.38895 -2.55381,-2.99582 -0.96702,-1.72601 -3.11304,-1.74753 -3.57074,-0.0358 -0.22449,0.83938 -0.79372,1.41506 -1.39925,1.41506 -2.19301,0 -3.98471,3.52977 -2.13064,4.19754 1.11072,0.40004 3.27891,-0.72527 3.27891,-1.70175 0,-0.97215 0.9777,-1.57231 1.79196,-1.09998 0.41987,0.24352 0.39232,0.61093 -0.0864,1.15229 -1.09643,1.23995 0.22073,3.39574 2.23039,3.65049 l 1.64828,0.20893 -1.6165,0.64449 c -2.04356,0.81474 -2.02481,1.09782 0.18816,2.8384 1.30155,1.02374 1.68995,1.69765 1.39334,2.41746 -0.34501,0.83715 -0.99123,0.97368 -4.00895,0.84693 -1.97872,-0.0831 -3.89047,0.0191 -4.2484,0.22712 -0.72543,0.42164 -1.51158,6.13223 -1.01226,7.35347 0.17578,0.42988 1.52851,1.28352 3.00609,1.89698 3.289,1.36547 2.7504,2.22547 -1.64189,2.62158 -2.85246,0.25724 -3.14034,0.43329 -5.39735,3.30083 -1.3113,1.666 -2.73833,4.28893 -3.17112,5.82875 -0.60719,2.16046 -1.37782,3.27377 -3.37522,4.87619 -1.98708,1.59416 -3.10101,3.19656 -4.79519,6.89798 -2.10105,4.59028 -2.18799,5.01691 -1.81326,8.89824 0.29988,3.10578 0.16144,4.73286 -0.58109,6.83112 -1.23657,3.49423 -0.88468,5.10026 2.24106,10.22756 4.21277,6.91039 5.94371,9.18213 7.96457,10.45273 1.75808,1.10535 2.14797,1.15473 4.11473,0.52112 1.19496,-0.38495 3.2733,-0.59352 4.61849,-0.46347 1.93093,0.18666 2.9188,-0.0651 4.69204,-1.19606 2.89864,-1.84868 5.09484,-1.87854 5.96743,-0.0811 0.43891,0.90415 1.45144,1.55242 3.05952,1.95883 3.16639,0.80022 4.02038,2.43405 3.0508,5.83653 -1.09082,3.82786 -0.85571,5.27038 1.36301,8.36256 2.24698,3.13159 4.39211,10.18604 4.39929,14.46741 0.004,1.35342 -0.71009,4.3532 -1.583,6.66617 l -1.58709,4.20538 2.11243,6.29878 c 1.16184,3.46432 2.27726,7.36164 2.47874,8.66071 0.20142,1.29907 1.41987,4.99464 2.70762,8.21237 1.28775,3.21776 2.34137,6.41971 2.34137,7.11547 0,1.60431 1.47012,3.00465 3.12798,2.97956 2.39885,-0.0363 8.6223,-1.49601 9.62142,-2.25667 0.67491,-0.51385 0.85369,-0.53598 0.55456,-0.0688 -0.81925,1.27984 -9.44587,7.08842 -14.77348,9.94745 -11.02005,5.91382 -24.18668,9.83128 -37.44995,11.14247 -6.78101,0.67037 -7.72894,0.6547 -15.77552,-0.26086 z M 197.26414,267.38927 c 0,-0.45516 -0.26451,-0.82755 -0.58779,-0.82755 -0.32329,0 -0.5878,0.37239 -0.5878,0.82755 0,0.45515 0.26451,0.82753 0.5878,0.82753 0.32328,0 0.58779,-0.37238 0.58779,-0.82753 z m -4.04118,-1.37926 c 1.39898,0 1.50885,-2.5197 0.1871,-4.29083 -1.26178,-1.69073 -4.14165,-1.68275 -4.71512,0.0131 -0.23049,0.68156 -0.83994,1.52807 -1.35437,1.88112 -0.84439,0.57948 -0.82309,0.75836 0.21897,1.83906 0.87052,0.90281 1.57312,1.11853 2.85779,0.87737 0.93692,-0.17583 2.19944,-0.31974 2.80563,-0.31974 z m -5.36382,-6.10644 c 0,-1.23727 -3.00617,-6.00041 -4.46836,-7.07991 -1.89077,-1.3959 -3.02105,-1.45808 -4.44947,-0.24477 -1.40661,1.19472 -1.36169,1.84544 0.12735,1.84544 1.66253,0 4.08796,2.42153 4.08796,4.08137 0,1.79104 2.11464,3.24842 3.61779,2.49338 0.59662,-0.29969 1.08473,-0.79266 1.08473,-1.09551 z m 50.94772,-56.9933 c 0.91387,-0.72016 3.24867,-1.74457 5.18845,-2.27646 6.67453,-1.83011 6.3035,-1.60318 11.94506,-7.30628 1.59004,-1.60738 1.63986,-2.96303 0.0755,-2.05565 -0.33955,0.19697 -1.58829,-0.0743 -2.77495,-0.60283 -2.24764,-1.00104 -2.36539,-0.9962 -16.43045,0.67527 -1.81151,0.21529 -2.73616,0.0567 -3.42192,-0.58691 -1.56531,-1.46919 -9.6535,-0.71202 -11.09631,1.03878 -0.34864,0.42303 -1.38814,0.84666 -2.31001,0.9414 l -1.67616,0.17226 1.74069,1.20065 c 1.91298,1.3195 3.5293,1.18931 8.07753,-0.65053 2.31491,-0.93644 2.3355,-0.93469 1.33059,0.11205 -1.21588,1.26655 -0.4211,2.37217 1.70539,2.37217 1.6922,0 2.6396,1.64014 2.18358,3.78017 -0.28065,1.31712 -0.0401,1.95862 1.15399,3.07951 1.85563,1.7416 2.22247,1.75065 4.30896,0.1064 z m 20.70421,-2.50525 c 0.46568,-0.27674 0.65891,-0.88264 0.44686,-1.40125 -0.49933,-1.22134 -5.96978,-1.01447 -5.96978,0.22575 0,1.24679 3.97823,2.09351 5.52292,1.1755 z m -54.01752,-4.70412 c 0,-0.13382 -0.26452,-0.39672 -0.5878,-0.58427 -0.32333,-0.18752 -0.58784,-0.078 -0.58784,0.24329 0,0.32135 0.26451,0.58427 0.58784,0.58427 0.32328,0 0.5878,-0.10948 0.5878,-0.24329 z m 83.79506,-3.66667 c 0.2172,-0.32986 0.86482,-0.48443 1.43913,-0.34347 1.47036,0.36087 2.82053,-0.4909 1.99957,-1.26144 -0.82542,-0.77469 -5.52773,-0.0908 -5.52773,0.80399 0,1.33409 1.38761,1.8661 2.08903,0.80092 z m 29.61172,156.52486 c 1.31583,-2.23726 2.39246,-4.69641 2.39246,-5.4648 0,-0.79652 0.91144,-2.42098 2.12036,-3.77906 2.10484,-2.36455 2.11749,-2.40967 1.72442,-6.15354 l -0.39597,-3.77154 3.91659,-3.51671 3.9166,-3.5167 0.22352,-4.25132 c 0.12291,-2.33822 0.37354,-4.69503 0.55694,-5.23735 0.18339,-0.5423 -0.0787,-1.91192 -0.58256,-3.04359 -0.50382,-1.13167 -0.93594,-3.57047 -0.96028,-5.41957 -0.0551,-4.17794 2.29257,-9.34553 5.91356,-13.01672 4.64918,-4.71361 8.06823,-10.39997 9.78582,-16.27514 1.71445,-5.86438 0.83357,-7.15995 -3.80678,-5.59907 -4.05891,1.36531 -5.84903,1.21651 -6.31467,-0.52488 -0.21098,-0.789 -1.67936,-2.94986 -3.26306,-4.80195 -1.58371,-1.85209 -3.0418,-3.99953 -3.24019,-4.7721 -0.19843,-0.77258 -0.85328,-2.06643 -1.45532,-2.87523 -0.602,-0.80882 -1.75617,-3.61337 -2.56479,-6.23233 -0.80863,-2.61896 -2.27867,-6.26489 -3.26682,-8.10208 -0.9881,-1.83718 -1.7131,-3.38545 -1.61112,-3.4406 0.10201,-0.0552 0.62038,-0.41103 1.15192,-0.79084 0.84473,-0.60354 1.08174,-0.37308 1.88119,1.82907 0.50311,1.38579 2.08532,3.81497 3.516,5.39818 1.43067,1.58322 3.19336,3.99576 3.91712,5.3612 0.72372,1.36547 1.93211,3.25471 2.68533,4.19833 0.75316,0.94363 2.21452,3.30213 3.24745,5.24114 2.0254,3.80219 3.8522,6.00812 4.97547,6.00812 0.38747,0 1.95045,-0.51727 3.47327,-1.14949 1.52282,-0.63223 2.94512,-0.98443 3.16075,-0.78269 0.21557,0.20174 0.47701,5.53772 0.58091,11.85772 0.16018,9.74092 3.5e-4,12.51641 -1.04933,18.22447 -3.95702,21.51797 -13.82823,40.71166 -28.15398,54.74284 -2.09117,2.04818 -4.04177,3.72397 -4.33467,3.72397 -0.29291,0 0.54403,-1.83049 1.85986,-4.06774 z M 62.43551,301.4567 c -0.17204,-0.83444 -0.636239,-5.51019 -1.031556,-10.39053 -1.208174,-14.91536 0.126083,-35.18249 3.62898,-55.12376 0.910303,-5.18217 4.232367,-17.08967 7.143679,-25.6056 4.662288,-13.6377 11.166642,-27.35693 19.033488,-40.14614 19.816559,-32.21596 51.815449,-60.70596 84.304959,-75.060365 l 6.17204,-2.726897 0.16697,5.714704 c 0.16267,5.567928 0.12149,5.776728 -1.60222,8.128198 -1.3594,1.8544 -3.15793,3.1415 -7.76434,5.55635 -22.26008,11.66974 -43.42784,29.60779 -59.63936,50.53979 -20.916752,27.00733 -35.076644,63.25636 -37.801601,96.77132 -1.410963,17.35379 -1.401329,18.56703 0.31002,39.03273 l 0.40367,4.82738 h -6.505966 -6.505951 z m 371.35732,-1.10339 c 1.38912,-9.39399 1.65124,-14.79426 1.3457,-27.7229 -0.39565,-16.74227 -1.94564,-28.4588 -5.6562,-42.7567 -6.35082,-24.47175 -18.1524,-48.688 -33.17853,-68.08089 -15.50937,-20.01644 -37.91586,-39.03353 -58.25834,-49.44565 -5.98604,-3.06388 -7.03938,-3.84333 -9.05645,-6.70145 -1.66341,-2.35698 -1.81811,-2.96335 -1.81811,-7.125945 0,-2.502352 0.15153,-4.920341 0.33673,-5.373295 0.2717,-0.66456 1.55915,-0.270232 6.66811,2.042316 29.59743,13.397204 57.3583,36.543514 76.84012,64.067384 13.97365,19.74191 20.9734,34.33553 30.16659,62.89374 0.90267,2.80423 3.43361,14.06527 4.40181,19.58532 3.13019,17.8464 3.82853,37.26504 1.96898,54.75618 l -0.68917,6.48246 h -6.72937 -6.72942 z m -90.12812,-57.20383 c -0.77618,-0.77545 -1.22651,-1.58327 -1.0007,-1.79519 0.56235,-0.52781 2.92347,1.76459 2.63991,2.56309 -0.13613,0.38324 -0.79676,0.0738 -1.63921,-0.7679 z m -45.50014,-11.03641 c -1.5647,-1.0441 -3.59178,-2.05233 -4.50457,-2.24052 -1.94434,-0.4008 -2.44643,-1.31913 -1.96263,-3.58956 0.60945,-2.86009 -0.52382,-3.4717 -5.73876,-3.09705 l -4.52106,0.32481 0.6284,-1.92175 c 0.34563,-1.05696 0.8099,-1.92174 1.03174,-1.92174 0.22185,0 1.13746,-0.63855 2.0347,-1.419 1.13226,-0.98487 2.45467,-1.48198 4.32241,-1.62482 2.51877,-0.19263 2.94667,-0.0119 6.68388,2.82202 2.19606,1.66534 3.99283,3.26543 3.99283,3.55579 0,1.10335 2.19165,0.46792 2.81503,-0.81618 0.60855,-1.25355 0.43671,-1.4785 -2.55082,-3.33969 -3.00156,-1.86993 -3.99993,-3.04001 -2.59384,-3.04001 0.68363,0 6.26995,5.23487 9.32511,8.73843 1.59737,1.83183 2.16369,2.16429 2.81824,1.65441 0.53599,-0.41751 0.69242,-1.17979 0.45241,-2.20526 -0.2121,-0.90647 -0.1189,-1.56719 0.22109,-1.56719 0.32329,0 0.7548,0.71362 0.95892,1.58582 0.70211,3.00023 4.14638,4.72663 10.30294,5.1642 1.92968,0.13714 2.05736,0.26602 2.05736,2.07717 0,1.45265 -0.2184,1.87296 -0.88173,1.69683 -0.48494,-0.12875 -3.26235,-0.26546 -6.17204,-0.30375 -3.85412,-0.0507 -5.83288,-0.33965 -7.28887,-1.06417 -3.80418,-1.89301 -7.07858,-1.21813 -7.10357,1.46412 -0.0132,1.43099 -1.1528,1.18534 -4.32717,-0.93291 z m 1.96694,-7.20466 c 0,-0.45516 -0.39678,-0.82755 -0.88172,-0.82755 -0.48495,0 -0.88172,0.37239 -0.88172,0.82755 0,0.45515 0.39677,0.82755 0.88172,0.82755 0.48494,0 0.88172,-0.3724 0.88172,-0.82755 z m -6.96559,-4.41359 c 0,-0.28828 -0.28436,-0.61308 -0.63193,-0.7218 -0.34753,-0.10874 -0.63189,0.21606 -0.63189,0.7218 0,0.50572 0.28436,0.83054 0.63189,0.7218 0.34757,-0.10873 0.63193,-0.43354 0.63193,-0.7218 z m -88.26017,-9.6315 c 0,-0.29064 -1.19033,-1.18315 -2.64516,-1.98336 -1.45484,-0.80022 -2.64516,-1.55855 -2.64516,-1.68521 0,-0.12665 1.45079,-1.10133 3.22401,-2.16594 4.66876,-2.80308 11.87796,-2.95699 7.79639,-0.16645 -0.88846,0.60745 -1.6154,1.59937 -1.6154,2.20427 0,0.6049 -0.77319,1.82551 -1.7182,2.71247 -1.80405,1.69319 -2.39648,1.96123 -2.39648,1.08422 z m 92.02652,-7.62138 c 1.84465,-1.45392 2.81375,-3.9215 1.93181,-4.9189 -0.5673,-0.64155 -0.54063,-0.91102 0.12957,-1.30905 1.26809,-0.75312 2.31345,-0.61903 2.31345,0.29673 0,0.44816 0.72742,1.24193 1.6165,1.76397 0.88909,0.52202 1.73069,1.02801 1.87023,1.12437 0.13953,0.0964 -0.63979,1.04046 -1.73179,2.09793 -1.7015,1.64763 -2.36848,1.92093 -4.66237,1.91043 -2.61147,-0.012 -2.64727,-0.0356 -1.4674,-0.96548 z m -105.6095,-70.22101 c -2.55704,-0.64184 -4.01073,-1.60653 -4.92706,-3.26962 -1.7164,-3.11521 -1.24617,-4.20306 5.28424,-12.22487 l 6.17205,-7.5816 0.004,-34.652015 c 0.004,-22.309077 0.22123,-35.388633 0.61518,-36.720005 1.16342,-3.932868 -1.96584,-3.724859 56.0378,-3.724859 31.63232,0 52.59116,0.206527 53.48946,0.527072 0.81241,0.289898 1.93052,1.176578 2.48468,1.970422 0.92051,1.318571 1.02152,4.480328 1.16836,36.574712 0.0883,19.322244 0.1778,35.390163 0.19875,35.706473 0.0211,0.31631 2.81542,4.01213 6.21004,8.21293 3.39462,4.2008 6.17204,8.12497 6.17204,8.72039 0,1.91284 -1.72852,4.57767 -3.6833,5.67849 -1.84861,1.04102 -3.6326,1.0716 -64.8259,1.11159 -34.60875,0.0226 -63.58868,-0.12549 -64.39986,-0.32911 z m 75.00946,-3.28067 v -1.37925 l -11.32896,-0.14989 c -9.69887,-0.12831 -11.37837,-0.0291 -11.67221,0.68962 -0.18877,0.46174 -0.18877,1.21729 0,1.67902 0.29384,0.71871 1.97334,0.81794 11.67221,0.68962 l 11.32896,-0.14988 z m 9.41143,-4.42339 c 0.20337,-0.30881 -0.46453,-1.55014 -1.48419,-2.75849 l -1.854,-2.19702 h -17.52409 -17.52414 l -1.82433,1.95016 c -1.86819,1.99701 -2.1182,2.55541 -1.43243,3.19905 0.66419,0.62338 41.22944,0.4347 41.64318,-0.1937 z m 27.68716,-21.69203 1.40316,-1.53108 V 71.877229 41.660688 l -1.51668,-1.337487 -1.5167,-1.337497 -46.24277,-0.147866 c -34.03474,-0.108825 -46.67693,0.02094 -47.88735,0.491486 -3.42813,1.332747 -3.39763,1.01771 -3.22053,33.265627 l 0.16188,29.472119 1.39493,1.39326 c 0.76718,0.7663 2.08975,1.47109 2.93908,1.56619 0.84927,0.0951 22.14012,0.16315 47.31296,0.15117 l 45.76885,-0.0219 1.40317,-1.53107 z"
     style="fill:#000000;stroke-width:0.569474" />
</svg>
