<?xml version="1.0" encoding="UTF-8" standalone="no"?>
<!-- Created with Inkscape (http://www.inkscape.org/) -->

<svg
   version="1.1"
   id="svg7760"
   width="512"
   height="512"
   viewBox="0 0 512 512"
   sodipodi:docname="favicon.svg"
   inkscape:version="1.2.2 (b0a8486541, 2022-12-01)"
   xml:space="preserve"
   xmlns:inkscape="http://www.inkscape.org/namespaces/inkscape"
   xmlns:sodipodi="http://sodipodi.sourceforge.net/DTD/sodipodi-0.dtd"
   xmlns:xlink="http://www.w3.org/1999/xlink"
   xmlns="http://www.w3.org/2000/svg"
   xmlns:svg="http://www.w3.org/2000/svg"><sodipodi:namedview
     id="namedview892"
     pagecolor="#505050"
     bordercolor="#eeeeee"
     borderopacity="1"
     inkscape:pageshadow="0"
     inkscape:pageopacity="0"
     inkscape:pagecheckerboard="0"
     showgrid="false"
     inkscape:zoom="0.61733737"
     inkscape:cx="309.39323"
     inkscape:cy="324.78189"
     inkscape:window-width="1366"
     inkscape:window-height="691"
     inkscape:window-x="0"
     inkscape:window-y="24"
     inkscape:window-maximized="1"
     inkscape:current-layer="svg7760"
     inkscape:showpageshadow="0"
     inkscape:deskcolor="#505050" /><defs
     id="defs7764"><rect
       x="334.40907"
       y="449.4351"
       width="139.91214"
       height="64.599968"
       id="rect1058" /><linearGradient
       id="linearGradient8120"><stop
         style="stop-color:#ff0000;stop-opacity:1;"
         offset="0"
         id="stop8116" /><stop
         style="stop-color:#ff0000;stop-opacity:0;"
         offset="1"
         id="stop8118" /></linearGradient><linearGradient
       xlink:href="#linearGradient8120"
       id="linearGradient8122"
       x1="416.65988"
       y1="552.31458"
       x2="421.72205"
       y2="-225.3533"
       gradientUnits="userSpaceOnUse"
       gradientTransform="matrix(0.59312171,0,0,0.58624652,8.3716843,11.24208)" /></defs><circle
     style="fill:#000000;fill-rule:evenodd;stroke:none;stroke-width:3.34567;stroke-linejoin:bevel;paint-order:markers stroke fill"
     id="path1180"
     cx="256"
     cy="256"
     r="256" /><text
     xml:space="preserve"
     id="text1056"
     style="font-style:normal;font-weight:normal;font-size:9.33333px;line-height:1.25;font-family:sans-serif;white-space:pre;shape-inside:url(#rect1058);display:inline;opacity:0.117462;fill:#000000;fill-opacity:1;stroke:none"
     transform="rotate(-50.939709,353.90499,397.5219)"><tspan
       x="334.4082"
       y="457.9085"
       id="tspan1040"><tspan
         style="font-weight:500;font-family:'Source Code Pro';-inkscape-font-specification:'Source Code Pro Medium';fill:#00ff00"
         id="tspan1038">You shouldn't be here... </tspan></tspan><tspan
       x="334.4082"
       y="469.7903"
       id="tspan1044"><tspan
         style="font-weight:500;font-family:'Source Code Pro';-inkscape-font-specification:'Source Code Pro Medium';fill:#00ff00"
         id="tspan1042">they're watching!</tspan></tspan></text><path
     style="fill:#00ff00;stroke-width:0.918832"
     d="m 241.03324,494.88158 c -21.10191,-6.60846 -23.55563,-7.77385 -28.72508,-13.64297 -6.62615,-7.52298 -12.1549,-15.67377 -14.27177,-21.04021 -6.40683,-16.24181 -6.11854,-14.82997 -5.97148,-29.24522 0.13148,-12.88787 3.07928,-35.83399 4.17446,-32.4947 0.25121,0.76595 1.17296,3.89936 2.04835,6.96314 3.41092,11.93793 10.11985,23.29292 19.95238,33.76973 12.89734,13.74244 26.34753,21.47126 37.36565,21.47126 12.6199,0 31.84511,-13.04706 44.35646,-30.10222 4.955,-6.75455 11.46128,-20.35261 13.36084,-27.92402 l 1.63046,-6.49895 0.63134,4.64211 c 0.34722,2.55315 1.0429,6.10437 1.54595,7.89157 0.50304,1.7872 1.13115,10.17054 1.39582,18.62965 l 0.48118,15.38017 -3.60829,10.15139 c -4.09508,11.52091 -9.03619,19.3659 -18.28785,29.03557 -5.70859,5.96651 -6.54228,6.48771 -14.24767,8.90706 -4.50134,1.41333 -11.9744,3.78092 -16.60676,5.26129 -4.63238,1.48039 -9.54295,2.6592 -10.91238,2.61958 -1.36943,-0.0396 -7.80966,-1.73801 -14.31161,-3.77423 z M 146.21242,396.8628 C 140.93748,383.38366 136.11709,372.69854 126.97586,354.22216 113.0103,325.99473 103.48384,309.99414 70.899558,260.03673 57.601029,239.64774 47.766727,223.51385 44.601103,216.8922 c -5.42887,-11.35576 -8.647137,-22.24524 -8.600606,-29.10146 0.0342,-5.04249 0.05629,-5.01951 6.791316,7.0722 5.817813,10.44502 12.412377,17.15798 22.981546,23.39412 10.184853,6.00939 10.504511,6.37225 18.889394,21.44161 1.562686,2.80847 4.398264,7.82193 6.301284,11.14105 6.731098,11.73984 14.341193,25.66243 19.791523,36.20836 6.10788,11.81824 24.33673,48.97346 24.33673,49.60469 0,0.22025 1.19511,3.04077 2.65579,6.26785 6.32554,13.97496 11.41103,29.17863 12.88919,38.53364 1.15308,7.29768 0.73062,20.25575 -0.70826,21.72478 -0.57965,0.59181 -1.87408,-1.60806 -3.71659,-6.31624 z m 214.9859,3.68462 c -2.17462,-13.43215 1.35147,-30.35097 10.98081,-52.68783 7.25311,-16.82479 24.94607,-53.45618 30.28179,-62.69522 1.49192,-2.58331 2.71258,-4.96485 2.71258,-5.2923 0,-1.49439 26.75338,-48.64397 30.44213,-53.65053 1.13475,-1.54017 6.34618,-5.37292 11.58094,-8.51725 9.08934,-5.45961 16.1817,-11.94107 19.12637,-17.47889 0.62811,-1.18123 2.98348,-5.36378 5.23416,-9.29452 l 4.09214,-7.14682 0.28991,3.48588 c 0.5347,6.4288 -2.48194,17.14734 -7.96189,28.2898 -5.76153,11.71501 -14.50837,25.94921 -37.45756,60.95668 -28.9499,44.16117 -51.17477,85.50489 -64.57404,120.1236 -1.57297,4.06394 -3.15778,7.38898 -3.52181,7.38898 -0.36403,0 -0.91551,-1.56672 -1.22553,-3.48158 z m -180.6378,-80.86965 c -13.58503,-8.97711 -36.66507,-37.2302 -46.77641,-57.26063 -4.65896,-9.22935 -9.80122,-23.49871 -8.96566,-24.879 0.75317,-1.24419 18.45634,-0.0801 25.73304,1.69199 12.29604,2.99457 25.65731,7.46238 26.35725,8.81347 0.3999,0.77191 1.20792,6.83474 1.79563,13.47294 2.55307,28.83746 4.78905,42.90785 8.61996,54.24307 1.28141,3.79151 2.32983,7.23827 2.32983,7.65947 0,1.63513 -2.53708,0.59132 -9.09364,-3.74131 z m 140.97064,3.40915 c 0.0106,-0.6727 1.02949,-4.14674 2.26434,-7.72009 3.29643,-9.53916 5.63821,-23.4663 7.72776,-45.95872 1.0199,-10.97856 2.04795,-20.58772 2.28456,-21.35367 0.39073,-1.26481 4.0813,-2.57681 19.98659,-7.10519 13.43986,-3.82646 30.9572,-5.29415 31.94118,-2.6762 0.73049,1.94352 -2.88317,12.58759 -7.53644,22.19859 -3.66285,7.56536 -11.89143,20.2785 -21.40804,33.07539 -4.45948,5.9966 -23.99824,25.99575 -25.39731,25.99575 -0.52916,0 -2.04832,0.78076 -3.37589,1.73503 -3.43999,2.47268 -6.51058,3.32904 -6.48675,1.80911 z M 200.03122,248.07193 c -4.95715,-2.54354 -12.28673,-6.51473 -16.28793,-8.82489 -7.73465,-4.46569 -19.8943,-8.68081 -31.82776,-11.03302 -4.0012,-0.78867 -13.82233,-2.72861 -21.82474,-4.31098 -31.442525,-6.21731 -45.870741,-12.84654 -64.493838,-29.63248 -9.691096,-8.73508 -16.482147,-17.33202 -21.215571,-26.85722 -3.931509,-7.91149 -4.345715,-9.3698 -4.63132,-16.3055 -0.280684,-6.81603 -0.03447,-8.24531 2.34166,-13.59349 2.882175,-6.48721 7.927765,-12.43293 9.642789,-11.36307 0.583166,0.36378 4.518168,3.08237 8.744439,6.0413 10.357695,7.25173 10.957838,7.17425 10.957838,-1.41475 0,-9.71103 1.989083,-15.71023 6.856519,-20.67966 6.132141,-6.26063 6.681714,-5.80324 6.596622,5.4902 -0.07985,10.59614 1.136503,17.30721 4.405159,24.30515 2.972405,6.36369 4.553458,8.06311 10.825253,11.63578 4.99115,2.84315 6.19153,3.11915 15.24901,3.50621 10.03211,0.42872 22.14023,-1.0285 24.753,-2.97904 1.16603,-0.87049 0.83984,-1.33032 -2.04698,-2.88554 C 125.2037,142.23651 110.67977,129.3669 101.94316,117.1543 89.549774,99.830007 81.870464,80.507626 84.673584,73.701267 c 1.475153,-3.581865 3.906579,-4.421222 20.792526,-7.177787 7.9629,-1.299917 19.38558,-3.656559 25.38376,-5.237007 17.92701,-4.723523 23.3913,-3.483651 51.07468,11.58907 21.07402,11.474148 32.46905,15.339884 59.56338,20.206771 10.46985,1.880672 14.73417,1.727786 30.00901,-1.075934 26.73563,-4.907369 41.09551,-10.10292 63.39465,-22.936793 4.40519,-2.535328 11.01481,-5.915393 14.68805,-7.511251 6.15304,-2.67322 7.48292,-2.901561 16.89873,-2.901561 7.82927,0 11.44861,0.431527 15.47164,1.844651 2.88832,1.014554 12.78877,3.119759 22.001,4.678234 9.21222,1.558484 17.73586,3.21647 18.94143,3.684435 7.12842,2.767008 5.76367,13.407339 -4.14903,32.348345 -5.61872,10.73614 -10.22511,17.21047 -18.50958,26.01547 -6.39894,6.80097 -19.20294,16.61394 -26.76894,20.51563 -2.28031,1.17595 -3.63287,2.39608 -3.17465,2.8639 1.97648,2.01792 13.03892,3.9713 22.60684,3.99188 9.06376,0.0195 10.54098,-0.22611 15.73244,-2.61575 12.30563,-5.66432 17.81387,-16.60176 18.01162,-35.76476 0.13184,-12.7751 0.8596,-13.47692 6.88272,-6.6374 4.28553,4.86644 6.19909,9.65849 6.21549,15.56511 0.019,6.85718 1.00547,10.56911 2.80871,10.56911 1.42815,0 8.592,-4.40522 16.08711,-9.89237 1.98668,-1.45444 2.20312,-1.40673 4.70055,1.0361 1.4399,1.40841 3.92202,5.05864 5.51585,8.1116 2.56506,4.91343 2.90111,6.42104 2.92632,13.12829 0.0243,6.44717 -0.39314,8.58658 -2.79819,14.34314 -1.55466,3.72114 -4.36654,9.15239 -6.24861,12.06946 -4.48141,6.9458 -17.07167,19.79713 -26.08973,26.63071 -7.72461,5.85345 -22.3775,13.82907 -28.28509,15.39567 -2.0006,0.53053 -5.68352,1.5666 -8.18428,2.30239 -2.50074,0.73578 -15.18638,3.43702 -28.19029,6.00279 -30.2237,5.9633 -37.5249,8.42004 -50.9244,17.13523 -2.50075,1.62653 -7.40379,4.3901 -10.89564,6.14129 -10.24306,5.13698 -17.84453,4.45097 -42.68667,-3.85234 -4.46276,-1.49164 -9.08384,-2.71207 -10.26908,-2.71207 -1.18523,0 -7.15043,1.63789 -13.25597,3.63978 -28.28158,9.27298 -31.09372,9.45717 -43.91872,2.87663 z m 13.72109,-24.34579 c 3.3466,-1.71116 15.91387,-10.73575 15.91387,-11.42781 0,-1.6715 -1.58019,-3.31955 -3.94773,-4.11727 -6.05791,-2.04119 -24.03332,-5.40253 -26.41024,-4.93864 -3.04814,0.5949 -4.70613,3.05125 -5.97298,8.84904 -2.55961,11.7141 8.23322,17.86438 20.41708,11.63468 z m 99.87423,0.093 c 2.65781,-1.23636 5.17275,-6.3412 5.11368,-10.37978 -0.0644,-4.40519 -2.73842,-9.29764 -5.65322,-10.34346 -3.23068,-1.15912 -16.09761,0.67823 -24.25652,3.46375 -8.57366,2.92712 -8.50195,4.57129 0.47042,10.78654 11.74258,8.13421 17.47521,9.65963 24.32564,6.47295 z"
     id="path293" /></svg>
