<?xml version="1.0" encoding="UTF-8" standalone="no"?>
<!-- Created with Inkscape (http://www.inkscape.org/) -->

<svg
   version="1.1"
   id="svg244"
   width="200"
   height="200"
   viewBox="0 0 512 512"
   sodipodi:docname="email.svg"
   inkscape:version="1.2.2 (b0a8486541, 2022-12-01)"
   xmlns:inkscape="http://www.inkscape.org/namespaces/inkscape"
   xmlns:sodipodi="http://sodipodi.sourceforge.net/DTD/sodipodi-0.dtd"
   xmlns="http://www.w3.org/2000/svg"
   xmlns:svg="http://www.w3.org/2000/svg">
  <defs
     id="defs248" />
  <sodipodi:namedview
     id="namedview246"
     pagecolor="#505050"
     bordercolor="#ffffff"
     borderopacity="1"
     inkscape:showpageshadow="0"
     inkscape:pageopacity="0"
     inkscape:pagecheckerboard="1"
     inkscape:deskcolor="#505050"
     showgrid="false"
     inkscape:zoom="0.88035714"
     inkscape:cx="220.36511"
     inkscape:cy="251.60243"
     inkscape:window-width="1366"
     inkscape:window-height="691"
     inkscape:window-x="0"
     inkscape:window-y="24"
     inkscape:window-maximized="1"
     inkscape:current-layer="g250" />
  <g
     inkscape:groupmode="layer"
     inkscape:label="Image"
     id="g250">
    <path
       id="path362"
       style="fill:#ffffff;stroke-width:3.50773"
       d="m 255.98558,47.275076 -23.30736,18.181523 -23.29999,18.181524 h -57.9032 -57.910583 v 45.352027 45.35838 l -41.545989,31.99897 -41.545988,32.00534 -0.0076,113.18605 -0.0076,113.18603 h 245.54266 245.54264 l -0.096,-113.18603 -0.096,-113.18605 -41.45704,-32.22163 -41.45746,-32.22163 V 128.77385 83.638123 l -57.60807,-0.0127 -57.6081,-0.01922 -23.61727,-18.16244 z M 105.00786,93.409579 h 150.99249 150.99248 l 0.99604,97.472821 1.00344,97.47917 41.55336,-22.50741 c 38.6347,-20.92134 41.64675,-21.99467 42.86664,-15.3506 1.60446,8.73845 1.91554,8.52501 -76.48856,51.36376 -34.42644,18.81002 -62.61713,35.17584 -62.64735,36.36939 -0.0302,1.19355 31.75257,28.67581 70.6378,61.0716 64.42267,53.67139 69.70766,58.90231 59.53377,58.90231 -9.42351,0 -21.52068,-8.92307 -77.57319,-57.19738 l -66.41752,-57.19738 -42.0477,23.01002 -42.04033,23.00998 -41.8042,-22.76189 c -39.78398,-21.66361 -42.1234,-22.4876 -48.52567,-17.11278 -3.69956,3.10586 -34.89729,29.4671 -69.33185,58.57786 -41.31666,34.92885 -65.34409,52.92872 -70.652529,52.92872 -4.424221,0 -8.04211,-0.89907 -8.04211,-1.99758 0,-1.09844 31.448381,-28.3595 69.885208,-60.58172 38.436831,-32.22219 69.885211,-59.61647 69.885211,-60.87441 0,-1.25792 -31.44838,-19.5854 -69.885211,-40.72711 -58.815108,-32.35056 -69.885208,-39.6742 -69.885208,-46.24267 0,-4.29263 0.753132,-7.8057 1.674823,-7.8057 0.921692,0 20.045707,10.31224 42.497762,22.91455 l 40.822934,22.90824 0.99605,-97.82273 z M 256.1479,146.44008 c -3.31524,0.0496 -6.67902,0.25562 -10.09324,0.62344 -35.42368,3.81615 -61.20108,26.02747 -69.65647,60.02193 -8.17683,32.87457 6.75163,60.7813 39.5613,73.95391 22.3514,8.97371 62.65057,10.63203 82.65667,3.40346 13.76886,-4.975 36.71334,-20.72991 36.71334,-25.21114 0,-5.95824 -14.02909,-2.74854 -22.67287,5.18474 -21.39372,19.63519 -78.1818,19.50269 -105.39593,-0.24168 -26.40121,-19.1546 -26.95223,-63.60601 -1.07717,-87.18607 14.76874,-13.45886 29.87876,-19.21189 51.49901,-19.61925 47.73013,-0.89932 75.77468,33.14456 56.36118,68.41927 -7.46393,13.56209 -26.68025,23.81524 -30.12472,16.07583 -1.18877,-2.67115 0.54756,-15.10408 3.85135,-27.62854 3.3038,-12.52444 6.00579,-25.77723 6.00579,-29.45432 0,-7.86302 -9.5036,-8.92796 -14.26184,-1.59677 -2.99683,4.61727 -3.76016,4.61727 -8.20445,0 -6.43982,-6.69057 -30.08641,-6.55809 -41.32463,0.22901 -10.52192,6.3545 -22.89666,28.53907 -23.01225,41.25514 -0.10275,11.27778 8.90511,26.86785 17.08765,29.5752 11.13913,3.68559 25.5733,2.09708 32.89149,-3.61339 6.84112,-5.33818 7.41059,-5.33818 10.87531,0 2.39944,3.6969 8.28502,5.6364 17.13188,5.6364 17.61221,0 40.22978,-18.7269 46.37126,-38.39243 11.91369,-38.14856 -25.45386,-72.1791 -75.18266,-71.43468 z m -5.74751,41.4269 c 25.61791,0 30.92277,30.71176 8.80943,51.00751 -18.19751,16.70169 -40.2308,3.38522 -35.37794,-21.38142 2.74173,-13.99258 16.75988,-29.62609 26.56851,-29.62609 z" />
  </g>
</svg>
