<?xml version="1.0" encoding="UTF-8" standalone="no"?>
<svg
   viewBox="0 0 200 200"
   version="1.1"
   id="svg1"
   sodipodi:docname="github.svg"
   width="200"
   height="200"
   inkscape:version="1.4 (e7c3feb100, 2024-10-09)"
   xmlns:inkscape="http://www.inkscape.org/namespaces/inkscape"
   xmlns:sodipodi="http://sodipodi.sourceforge.net/DTD/sodipodi-0.dtd"
   xmlns="http://www.w3.org/2000/svg"
   xmlns:svg="http://www.w3.org/2000/svg">
  <defs
     id="defs1" />
  <sodipodi:namedview
     id="namedview1"
     pagecolor="#505050"
     bordercolor="#eeeeee"
     borderopacity="1"
     inkscape:showpageshadow="0"
     inkscape:pageopacity="0"
     inkscape:pagecheckerboard="0"
     inkscape:deskcolor="#d1d1d1"
     inkscape:zoom="0.76126636"
     inkscape:cx="248.92733"
     inkscape:cy="255.49533"
     inkscape:window-width="1366"
     inkscape:window-height="710"
     inkscape:window-x="0"
     inkscape:window-y="0"
     inkscape:window-maximized="1"
     inkscape:current-layer="svg1" />
  <path
     d="m 76.826614,142.72779 c 0,0.57899 -0.649194,1.04217 -1.467743,1.04217 -0.931451,0.0869 -1.580645,-0.37634 -1.580645,-1.04217 0,-0.57898 0.649194,-1.04217 1.467742,-1.04217 0.846775,-0.0869 1.580646,0.37634 1.580646,1.04217 z m -8.778228,-1.30271 c -0.19758,0.57899 0.366937,1.24482 1.213712,1.4185 0.73387,0.2895 1.580645,0 1.75,-0.57897 0.169353,-0.57899 -0.366937,-1.24482 -1.213712,-1.50536 -0.733868,-0.20264 -1.552418,0.0869 -1.75,0.66583 z m 12.475808,-0.49214 c -0.818549,0.20264 -1.383065,0.75268 -1.298388,1.41851 0.08467,0.57899 0.818549,0.95533 1.665323,0.75267 0.818548,-0.20264 1.383065,-0.75267 1.298389,-1.33165 -0.08468,-0.55003 -0.846775,-0.92637 -1.665324,-0.83953 z M 99.09677,30.000001 C 59.94758,30.000001 30,60.483403 30,100.6358 c 0,32.10456 19.701613,59.57724 47.842743,69.24625 3.612902,0.66582 4.883063,-1.62115 4.883063,-3.50285 0,-1.79484 -0.08468,-11.69543 -0.08468,-17.77474 0,0 -19.758063,4.34236 -23.907257,-8.62683 0,0 -3.217743,-8.42419 -7.846775,-10.59538 0,0 -6.463709,-4.545 0.451612,-4.45816 0,0 7.028226,0.57899 10.895163,7.46887 6.181451,11.17436 16.540323,7.961 20.576611,6.05036 0.649195,-4.63185 2.483872,-7.8452 4.516131,-9.75584 -15.778227,-1.79485 -31.697582,-4.13972 -31.697582,-31.988758 0,-7.961 2.145163,-11.955974 6.661291,-17.051017 C 61.556451,77.766013 59.157256,70.007657 63.024194,59.991269 68.923386,58.109578 82.5,67.807525 82.5,67.807525 c 5.64516,-1.621152 11.713708,-2.460675 17.72581,-2.460675 6.01209,0 12.08064,0.839523 17.7258,2.460675 0,0 13.57662,-9.726898 19.47582,-7.816256 3.86693,10.045336 1.46774,17.774744 0.73387,19.656436 4.51613,5.123991 7.28225,9.118969 7.28225,17.051017 0,27.935878 -16.625,30.164958 -32.40323,31.988758 2.59678,2.28698 4.79838,6.62935 4.79838,13.43238 0,9.75585 -0.0846,21.82762 -0.0846,24.20144 0,1.8817 1.29838,4.16868 4.88306,3.50285 C 150.8629,160.21304 170,132.74036 170,100.6358 170,60.483403 138.24596,30.000001 99.09677,30.000001 Z M 57.435482,129.84544 c -0.366933,0.28949 -0.282256,0.95532 0.197583,1.50535 0.451612,0.46319 1.100806,0.66583 1.467741,0.2895 0.366937,-0.2895 0.282259,-0.95533 -0.19758,-1.50536 -0.451615,-0.46318 -1.100806,-0.66583 -1.467744,-0.28949 z m -3.048386,-2.34488 c -0.197579,0.37634 0.08468,0.83952 0.649194,1.12902 0.451612,0.28949 1.01613,0.20264 1.21371,-0.20264 0.19758,-0.37634 -0.08468,-0.83952 -0.649194,-1.12902 -0.564516,-0.17369 -1.016129,-0.0869 -1.21371,0.20264 z m 9.145161,10.30589 c -0.451612,0.37633 -0.282257,1.24481 0.366937,1.79483 0.649192,0.66584 1.467741,0.75268 1.834677,0.2895 0.366935,-0.37633 0.19758,-1.24482 -0.366936,-1.79484 -0.620967,-0.66583 -1.467741,-0.75268 -1.834678,-0.28949 z m -3.217739,-4.25552 c -0.451616,0.28949 -0.451616,1.04216 0,1.70799 0.451611,0.66583 1.213708,0.95532 1.580643,0.66583 0.451613,-0.37634 0.451613,-1.12901 0,-1.79484 -0.395161,-0.66583 -1.129032,-0.95533 -1.580643,-0.57898 z"
     id="path1"
     style="fill:#ffffff;stroke-width:0.285851" />
</svg>
