<?xml version="1.0" encoding="UTF-8" standalone="no"?>
<svg
   width="200"
   height="200"
   version="1.1"
   id="svg2"
   sodipodi:docname="x.svg"
   inkscape:version="1.4 (e7c3feb100, 2024-10-09)"
   xmlns:inkscape="http://www.inkscape.org/namespaces/inkscape"
   xmlns:sodipodi="http://sodipodi.sourceforge.net/DTD/sodipodi-0.dtd"
   xmlns="http://www.w3.org/2000/svg"
   xmlns:svg="http://www.w3.org/2000/svg">
  <defs
     id="defs2" />
  <sodipodi:namedview
     id="namedview2"
     pagecolor="#505050"
     bordercolor="#eeeeee"
     borderopacity="1"
     inkscape:showpageshadow="0"
     inkscape:pageopacity="0"
     inkscape:pagecheckerboard="0"
     inkscape:deskcolor="#d1d1d1"
     inkscape:zoom="1.7043653"
     inkscape:cx="74.807906"
     inkscape:cy="85.955751"
     inkscape:window-width="1366"
     inkscape:window-height="710"
     inkscape:window-x="0"
     inkscape:window-y="0"
     inkscape:window-maximized="1"
     inkscape:current-layer="svg2" />
  <path
     id="path3"
     style="fill:#f9f9f9;fill-opacity:1;fill-rule:nonzero;stroke:none;stroke-width:1.45309"
     d="M 54.357592,34.99998 C 43.686289,34.99998 35,35.076831 35,35.221784 c 0,0.152414 11.304348,16.214968 25.081523,35.640247 13.777176,19.49999 25.011492,35.708989 24.938012,36.013809 -0.137064,0.22115 -11.441416,13.29535 -25.081524,28.91028 C 46.234314,151.39806 35,164.40519 35,164.62635 c 0,0.22115 2.473444,0.37356 5.508664,0.37356 h 5.442423 l 21.548917,-24.73103 c 11.86674,-13.5947 21.903278,-25.02873 22.327191,-25.40229 0.565217,-0.45276 6.358694,7.0977 18.722835,24.65517 l 17.94455,25.40226 19.28583,0.076 c 10.53284,0 19.21959,-0.2218 19.21959,-0.59536 0,-0.30483 -11.94022,-17.33565 -26.49457,-37.88162 l -26.49455,-37.28046 3.3891,-3.811511 c 1.91043,-2.020231 11.51851,-12.999993 21.33914,-24.281598 9.82066,-11.283095 19.00436,-21.819721 20.41739,-23.38271 l 2.47282,-2.766701 h -11.5141 l -20.27936,23.160867 c -11.08958,12.701144 -20.48804,23.16091 -20.77065,23.16091 -0.28261,0 -7.915867,-10.459766 -16.956521,-23.16091 L 73.715188,34.99998 Z m 6.358697,8.965516 h 8.759768 l 39.145723,55.287326 c 21.47685,30.411028 39.21321,55.660898 39.2782,56.034448 0.14413,0.44828 -3.10729,0.74713 -8.47827,0.74713 l -8.68801,-0.076 -38.858695,-54.98955 C 70.53522,70.787943 52.734491,45.533262 52.453298,45.010275 h 0.0028 c -0.497392,-0.893564 0.985885,-1.04481 8.260231,-1.04481 z" />
</svg>
