<?xml version="1.0" encoding="UTF-8" standalone="no"?>
<svg
   viewBox="0 0 1500 900"
   height="900"
   width="1500"
   id="svg2"
   version="1.1"
   sodipodi:docname="andrax-ng-dragon-high-green.svg"
   inkscape:export-filename="andrax-ng-dragon-high-green.png"
   inkscape:export-xdpi="96"
   inkscape:export-ydpi="96"
   inkscape:version="1.2.2 (b0a8486541, 2022-12-01)"
   xmlns:inkscape="http://www.inkscape.org/namespaces/inkscape"
   xmlns:sodipodi="http://sodipodi.sourceforge.net/DTD/sodipodi-0.dtd"
   xmlns="http://www.w3.org/2000/svg"
   xmlns:svg="http://www.w3.org/2000/svg"
   xmlns:rdf="http://www.w3.org/1999/02/22-rdf-syntax-ns#"
   xmlns:cc="http://creativecommons.org/ns#"
   xmlns:dc="http://purl.org/dc/elements/1.1/">
  <sodipodi:namedview
     id="namedview18"
     pagecolor="#505050"
     bordercolor="#eeeeee"
     borderopacity="1"
     inkscape:showpageshadow="0"
     inkscape:pageopacity="0"
     inkscape:pagecheckerboard="0"
     inkscape:deskcolor="#505050"
     showgrid="false"
     inkscape:zoom="0.34487667"
     inkscape:cx="761.14165"
     inkscape:cy="550.92158"
     inkscape:window-width="1366"
     inkscape:window-height="705"
     inkscape:window-x="0"
     inkscape:window-y="0"
     inkscape:window-maximized="1"
     inkscape:current-layer="svg2" />
  <metadata
     id="metadata8">
    <rdf:RDF>
      <cc:Work
         rdf:about="">
        <dc:format>image/svg+xml</dc:format>
        <dc:type
           rdf:resource="http://purl.org/dc/dcmitype/StillImage" />
      </cc:Work>
    </rdf:RDF>
  </metadata>
  <defs
     id="defs6" />
  <g
     id="g1170"
     transform="matrix(0.2277698,0,0,0.22689929,18.173936,11.000749)">
    <path
       id="path817-5"
       style="fill:#00ff00;stroke-width:1.09977"
       d="m 2513.5508,64.197266 c -0.076,0.449772 0.5855,1.404539 -0.2168,1.355645 -11.5047,2.535295 -21.9213,8.985593 -30.0414,17.431196 -8.6755,8.934059 -15.2225,20.087363 -18.0047,32.277333 -4.0641,17.49779 -0.8253,36.69341 9.2847,51.60866 4.6905,6.93918 10.7094,12.95483 17.5622,17.76076 -35.6175,-10.11067 -71.3904,-19.66919 -107.2779,-28.77909 -38.452,-9.66946 -77.1866,-18.1846 -116.0753,-25.90258 -48.972,-9.82775 -98.1006,-18.87702 -147.3626,-27.12681 -37.8917,-6.311558 -75.884,-12.068643 -114.0252,-16.663016 -16.677,-1.943212 -33.4339,-3.570865 -50.2408,-3.507349 -13.1098,0.449943 -26.2111,4.580354 -36.7719,12.4567 -14.8569,10.699035 -25.1061,27.752165 -27.0591,46.006955 -2.5443,21.50118 6.2994,44.00538 22.8555,57.97196 8.3554,7.13414 18.4417,11.88913 28.7397,15.51021 20.1758,7.41024 40.7815,13.551 61.2906,19.95211 29.9786,9.26614 59.8507,18.76945 89.491,29.0223 45.1624,15.54822 89.8467,32.38889 133.8708,50.90715 42.3715,17.81666 84.1716,37.18135 124.9047,58.54067 27.7526,14.55156 55.0931,30.07304 81.7087,46.67756 4.7669,2.96859 9.5182,5.96252 14.2506,8.98596 -65.8412,11.18021 -131.4855,23.53064 -196.8688,37.13144 -85.7393,17.84964 -171.0534,37.80569 -255.627,60.56606 -66.734,17.97868 -133.0329,37.65426 -198.4257,60.0518 -64.0434,21.92881 -127.1999,46.63977 -188.2601,75.92591 -27.768,13.31136 -55.1138,27.52454 -81.7764,42.93548 -19.5997,11.4317 -38.7869,23.67799 -56.6083,37.75486 -11.793,9.48835 -22.2777,20.47627 -32.1865,31.88586 -7.7115,8.69874 -15.4396,17.39362 -22.7626,26.42349 -7.241,9.95256 -11.4583,22.03679 -12.2029,34.3074 -0.7404,16.50551 6.8985,32.97399 19.5132,43.53919 8.988,7.58099 20.5511,12.03462 32.3065,12.40875 8.0167,0.31697 16.0512,-1.17838 23.536,-4.0234 16.3201,-5.19835 32.6185,-10.46991 48.7845,-16.1334 -72.4436,56.3954 -142.2823,116.19842 -208.3552,179.95527 -54.5073,52.6588 -106.3865,108.1296 -153.8888,167.2125 -38.7166,48.2433 -74.408,99.0783 -104.385,153.2435 -16.8161,30.3942 -31.9533,61.7294 -45.0758,93.8946 -7.6663,18.9223 -14.6811,38.1479 -20.0025,57.8719 -2.78634,10.5052 -5.14283,21.1526 -6.42728,31.9544 -1.58424,13.5863 -1.43953,27.5688 2.22204,40.826 3.36993,12.2427 9.84434,23.7181 19.09314,32.4792 11.7276,11.2758 27.6116,18.1325 43.8747,18.8314 13.3402,0.6592 26.7976,-2.7142 38.3717,-9.347 10.6564,-5.9168 19.7549,-14.1526 28.5739,-22.4671 14.5903,-13.6115 28.7626,-27.6806 43.8502,-40.7513 16.2572,-14.1778 33.4502,-27.3745 52.0339,-38.3749 8.1156,-4.8352 16.5017,-9.202 24.9939,-13.3343 -29.6179,75.96 -53.0646,154.2861 -70.7754,233.8554 -3.934,17.8044 -7.5908,35.6692 -10.8985,53.5996 0,-15.3509 0,-30.7018 0,-46.0527 -196.33329,0 -392.66662,0 -588.99995,0 0,48.7403 0,97.4805 0,146.2207 9.22709,7.6512 19.55846,13.7985 29.90685,19.7854 4.44046,2.6659 9.10033,5.0098 13.22949,8.1597 6.20061,4.6467 9.97255,12.0667 10.90742,19.6817 0.39338,3.1789 0.14289,6.386 0.20384,9.5791 -0.0134,3.2241 -0.0397,6.39 -0.2258,9.5665 -0.64806,12.0997 -2.94773,24.0925 -5.75933,35.8076 -4.83236,20.359 -11.51532,40.2278 -17.87427,60.1937 -78.11662,243.3143 -156.4407,486.5621 -234.80671,729.7963 -61.55243,191.0886 -123.14421,382.1646 -184.78462,573.2249 -18.943,58.6378 -37.86543,117.3189 -57.01573,175.8892 -2.59132,7.968 -5.27848,15.9074 -8.32627,23.714 -3.69083,9.5826 -7.72284,19.0401 -12.07405,28.405 -3.24907,6.9417 -6.55227,14.2374 -12.187464,19.6657 -4.683789,4.3817 -10.796342,6.6845 -16.641267,9.0602 -8.717364,3.4712 -17.670818,6.8312 -25.180299,12.6054 -13.791696,10.5328 -22.386749,27.3625 -23.274771,44.6505 -0.427518,7.2914 0.02646,14.596 -0.116302,21.8932 0.0069,31.7004 0.01506,63.4008 0.02123,95.1012 185.999353,0 371.998703,0 557.998053,0 0,-49.4277 0,-98.8555 0,-148.2832 -12.5256,-8.9562 -26.24773,-16.0472 -40.0918,-22.7109 -5.19719,-2.7006 -10.75244,-4.7991 -15.53588,-8.2323 -0.82251,-0.6828 -1.82825,-1.6731 -2.6399,-2.5841 -1.21342,-1.4095 -2.45571,-2.8594 -3.25781,-4.545 -1.00292,-3.1603 -1.2075,-6.515 -1.24619,-9.8105 0.04,-6.1008 1.00093,-12.1452 1.83692,-18.1745 1.75694,-12.2991 5.37597,-24.2166 8.95831,-36.0799 8.50073,-28.1852 17.66225,-56.2908 26.65603,-84.3999 16.29682,-50.6776 32.64968,-101.3376 48.98829,-152.002 163.04557,0 326.09114,1e-4 489.13668,0 25.2525,76.5568 50.5688,153.0764 75.5437,229.7241 4.0842,13.1195 8.0387,26.305 10.8059,39.7759 0.2078,1.0678 0.4412,2.2092 0.6445,3.3378 1.5402,8.5208 2.602,17.2666 1.4142,25.9036 -0.2336,1.8011 -0.5918,3.6686 -1.004,5.327 -0.5609,1.6724 -0.8759,3.5985 -2.1949,4.8696 -1.3622,0.9508 -2.9931,1.4192 -4.5143,2.054 -5.3135,1.9319 -10.7283,3.5689 -16.0611,5.4461 -12.4808,4.226 -24.9621,8.4502 -37.4426,12.6772 0,52.569 0,105.138 0,157.707 201.6667,0 403.3334,0 605,0 0,-34.2415 0,-68.4831 0,-102.7246 1.6755,-10.1441 0.7453,-20.4511 1,-30.6738 0,-14.8008 0,-29.6016 0,-44.4024 -9.2138,-9.3929 -19.9794,-17.1082 -31.2048,-23.9058 -0.8104,-0.4942 -1.6226,-0.9871 -2.4338,-1.4809 -0.834,-55.96 -0.7064,-111.9277 -0.8216,-167.8922 -0.1472,-118.5027 -0.2523,-237.0054 -0.2956,-355.5082 61.5657,107.3155 123.0774,214.6706 184.567,322.024 36.6756,64.0819 73.3865,128.1428 109.9467,192.2905 3.3361,5.9572 6.7998,11.9517 9.8847,18.084 -5.5462,2.953 -11.0922,5.9066 -16.6387,8.8593 0,44.8438 0,89.6875 0,134.5313 121.6667,0 243.3334,0 365,0 0,-42.4173 0,-84.8346 0,-127.252 -9.1538,-9.4442 -19.9679,-17.098 -31.2221,-23.8245 -0.7619,-0.4615 -1.5238,-0.923 -2.2857,-1.3844 -0.094,-282.48 -0.2543,-564.9599 -0.2561,-847.4399 0.028,-72.1727 0.01,-144.3463 0.5081,-216.5177 0.035,-4.7649 0.093,-9.5296 0.1387,-14.2944 5.8307,-3.5434 11.8467,-6.8462 17.2351,-11.057 10.3357,-8.5579 16.1267,-22.0363 15.9382,-35.3821 -0.073,-7.0742 -0.088,-14.1485 -0.067,-21.223 0,-13.5475 0.01,-27.0951 0.01,-40.6426 0.6621,0 1.3242,0 1.9863,0 0.01,28.0163 0.01,56.0326 0,84.0488 8.7196,8.4619 18.7434,15.435 29.0684,21.7822 1.1759,0.7323 2.3668,1.4403 3.5449,2.169 0.3967,11.3624 0.5019,22.8182 0.6694,34.2232 0.566,49.2539 0.4615,98.512 0.5253,147.7682 0.052,174.5663 -0.078,349.1326 -0.1418,523.6988 -0.055,124.2862 -0.1095,248.5724 -0.1642,372.8586 -7.9678,4.836 -15.9328,9.6768 -23.9024,14.5098 -6.9604,7.0524 -10.2932,17.2521 -9.5918,27.0645 0,36.9615 -0.01,73.9231 -0.012,110.8847 137.5404,-0.046 275.0809,-0.02 412.6211,-0.2438 35.8378,-0.104 71.6798,-0.1815 107.5093,-1.0195 20.5863,-0.7901 41.0387,-3.5396 61.3518,-6.8582 39.0873,-6.6779 77.5385,-18.5617 112.4481,-37.5714 29.8618,-16.2417 56.8038,-37.6108 80.2057,-62.2149 32.403,-33.9144 58.7802,-73.225 80.3733,-114.7686 22.1414,-42.6437 39.2965,-87.7793 52.3392,-133.9934 10.2994,-36.4874 18.1025,-73.6535 24.0798,-111.0845 6.6725,-41.9481 10.9626,-84.258 13.5305,-126.6509 1.1582,-19.5387 1.5813,-39.1121 1.7293,-58.6824 0.2744,-26.5269 0.3234,-53.0565 0.1325,-79.5841 -0.2086,-24.8084 -1.0186,-49.6249 -3.1315,-74.3497 -1.7233,-21.557 -3.7429,-43.0942 -6.2981,-64.5695 -6.4404,-53.2581 -16.6014,-106.1119 -31.3854,-157.6991 -14.4628,-51.021 -33.245,-101.0293 -58.8066,-147.5817 -21.3319,-38.856 -47.498,-75.2852 -79.2598,-106.312 -22.0972,-21.5952 -46.8516,-40.6524 -74.1947,-55.1446 -0.256,-0.2176 -1.7733,-0.7516 -0.866,-0.6775 79.8843,0 159.7685,0 239.6528,0 0,27.4127 0,54.8255 0,82.2382 9.1289,9.7684 19.9786,17.7534 31.3295,24.7432 0.4958,0.3669 1.2001,0.6192 1.5521,1.0678 0.7472,86.2657 0.8265,172.5352 0.9844,258.8035 0.2052,134.8603 0.1973,269.7208 0.1436,404.5812 -0.08,118.9203 -0.1901,237.841 -0.7524,356.7601 -0.1133,19.6472 -0.2071,39.2951 -0.4916,58.9407 -7.4548,4.4483 -14.6503,9.6778 -19.9162,16.6739 -9.0586,11.6018 -13.4593,26.5292 -12.9439,41.1785 0.169,20.0636 -0.086,40.132 0.3327,60.1926 1.5386,14.7728 12.7004,27.8446 26.8282,32.1835 6.6952,2.1184 13.8022,1.7102 20.7253,1.6335 37.439,0.066 74.8787,0.01 112.318,0.022 67.6295,-0.01 135.2589,-0.011 202.8883,-0.016 0,-42.6465 0,-85.293 0,-127.9394 -9.6454,-9.163 -20.7879,-16.5556 -32.1719,-23.3614 -0.4852,-0.3641 -1.2433,-0.6215 -1.6069,-1.0746 -0.8051,-51.1979 -0.6787,-102.4038 -0.8075,-153.6062 -0.1164,-68.081 -0.2328,-136.162 -0.3492,-204.243 29.2565,0.098 58.513,0.1966 87.7695,0.2949 41.4062,101.8858 82.8778,203.7457 124.1239,305.6956 7.0055,17.6076 14.0895,35.2499 20.6654,52.9517 0.016,0.4742 0.9089,1.386 0.1164,1.457 -6.2467,1.8574 -12.4923,3.7183 -18.7397,5.5735 0,48.0839 0,96.1679 0,144.2519 223.9968,0 447.9935,0 671.9902,0 0,-43.9297 0,-87.8594 0,-131.789 -10.158,-8.2042 -21.6128,-14.6045 -33.2717,-20.3997 -1.0637,-0.538 -2.1274,-1.076 -3.1911,-1.614 0.4083,-6.7069 2.0074,-13.2634 3.5375,-19.7833 2.7328,-11.2104 5.8643,-22.2592 8.8957,-33.3978 10.2687,-37.3026 20.9134,-74.4844 31.4476,-111.7134 79.1504,0 158.3008,-10e-5 237.4512,0 13.1377,45.4008 26.3982,90.7803 38.9642,136.3349 1.085,4.1144 2.1848,8.2407 3.1354,12.3799 -4.3847,4.0866 -9.6881,7.2309 -15.4905,8.8041 -10.1086,3.1704 -20.6957,4.3194 -30.943,6.9266 -6.7459,1.6219 -13.338,4.2604 -18.8943,8.4807 -13.6109,9.8923 -22.0758,26.5844 -21.6955,43.4417 0.044,39.755 0.038,79.5099 0.039,119.2649 222.6667,0 445.3334,0 668,0 0,-53.7071 0,-107.4141 0,-161.1211 -16.4334,-5.5533 -33.4089,-9.3065 -50.4576,-12.3975 -3.9659,-0.7619 -7.951,-1.4236 -11.9096,-2.2256 -1.2813,-0.2774 -2.7997,-0.5829 -4.1533,-0.9451 -0.6582,-0.034 -0.9097,-0.4828 -0.9259,-1.0973 -0.9236,-4.2787 -0.2288,-8.7141 1.0744,-12.8358 3.7189,-11.3422 8.7773,-22.1939 14.2001,-32.8097 8.0389,-15.5167 16.907,-30.5816 25.5408,-45.77 63.4965,-110.9659 127.1381,-221.8522 190.7698,-332.7452 63.1357,108.1136 126.2299,216.2409 189.2199,324.4394 11.5119,19.8182 23.0581,39.6201 34.1795,59.661 5.2261,9.9183 9.8203,20.1846 13.5168,30.772 0.909,2.7315 1.8326,5.4708 2.4373,8.2878 0.1418,0.7097 -0.5009,0.9229 -1.0033,1.217 -4.2003,2.346 -8.9028,3.5217 -13.3826,5.196 -15.6977,5.3703 -31.4001,10.7258 -47.1063,16.0713 0,52.1009 0,104.2019 0,156.3028 228.6667,0 457.3334,0 686,0 0,-52.78 0,-105.5599 0,-158.3399 -14.4866,-5.4223 -29.4313,-9.4773 -44.3881,-13.3624 -6.1124,-1.6085 -12.3512,-3.1654 -18.3658,-4.8817 -3.6245,-1.0352 -7.2476,-2.2151 -10.6953,-3.5664 -8.7712,-3.3977 -17.4188,-7.729 -24.1783,-14.4017 -2.0654,-1.9669 -4.1191,-4.185 -5.9291,-6.2487 -4.0016,-4.6032 -7.6221,-9.46 -11.264,-14.3932 -8.5222,-11.7652 -16.4847,-23.9807 -24.3245,-36.244 -21.3982,-33.5591 -41.6082,-67.9197 -61.5992,-102.3689 -40.5319,-69.7886 -81.0113,-139.6081 -121.5175,-209.4118 -90.9663,-156.8523 -181.8983,-313.7244 -272.8417,-470.5899 110.8937,-180.6562 221.7884,-361.312 332.7126,-541.9493 26.8575,-43.6233 53.6631,-87.2794 80.7478,-130.7616 12.3327,-19.5328 24.8088,-38.9454 37.6,-58.1706 7.7548,-11.6049 15.585,-23.1651 23.8008,-34.4501 2.2061,-2.9632 4.3827,-5.9767 6.907,-8.6753 2.5295,-1.9077 5.6298,-2.7787 8.5364,-3.9313 2.5282,-0.8912 5.2683,-1.6904 7.754,-2.347 9.122,-2.3958 18.478,-3.7946 27.5631,-6.3366 17.4427,-5.1478 31.8112,-18.8663 38.7501,-35.5583 3.1616,-7.4924 4.7753,-15.6165 4.7733,-23.7464 0.053,-5.4816 -0.039,-10.9636 0.01,-16.4454 -0.02,-32.0056 -0.039,-64.0112 -0.061,-96.0168 -225.985,0 -451.97,0 -677.955,0 1.2659,31.2612 0.7537,62.63 1.1037,93.9386 0.1028,5.9468 0.1271,11.8992 0.449,17.8387 0.9491,13.0304 5.4905,25.8083 13.0983,36.439 6.183,8.6082 14.4921,15.6548 23.9726,20.3878 6.4908,3.3169 13.48,5.5485 20.5765,7.1464 4.1694,1.0849 8.2549,2.7102 11.7628,5.2475 0.5238,4.0207 -0.7091,8.0048 -1.9915,11.769 -3.2447,9.404 -7.244,18.5319 -11.5393,27.4988 -3.2775,6.7911 -6.7901,13.532 -10.3831,20.0942 -8.3321,15.232 -17.3025,30.1009 -26.0648,45.0862 -51.2529,87.095 -102.8105,174.0099 -154.4139,260.8975 -43.5261,-74.2517 -86.9315,-148.571 -130.2615,-222.9335 -10.289,-17.7162 -20.6028,-35.4189 -30.7422,-53.2212 -9.1644,-16.2537 -18.301,-32.5627 -26.2684,-49.4611 -3.3424,-7.2101 -6.4079,-14.7696 -8.4583,-22.5289 -0.8121,-3.2753 -1.7702,-6.6314 -1.3518,-10.0386 0.3015,-2.6206 1.0311,-5.2548 2.4318,-7.5042 2.2683,-2.9609 5.7369,-4.5921 8.9648,-6.2753 5.6094,-2.6518 11.3178,-4.9767 17.0099,-7.4532 11.0242,-4.7256 22.0493,-9.4495 33.0741,-14.1738 0,-50.918 0,-101.8359 0,-152.7539 -3.9043,0 -7.8086,0 -11.7129,0 28.4558,-8.3536 56.4527,-18.2454 83.9202,-29.4221 16.2462,-6.5585 32.4048,-13.3329 48.4874,-20.281 13.1236,-6.1518 25.799,-13.1988 38.7248,-19.7455 53.6648,-27.8577 107.3301,-55.7146 160.9946,-83.5729 -75.2678,-7.5546 -150.5283,-15.1872 -225.8106,-22.5937 -30.3354,-0.8652 -60.64,-1.6441 -90.9511,-3.1719 -14.6451,-0.8119 -29.4623,-1.7388 -44.1192,-2.7734 -27.1129,-1.9523 -54.1429,-4.4792 -81.1194,-7.6697 -1.1853,-0.1378 -2.3696,-0.2843 -3.5544,-0.4261 17.8541,-5.7703 35.1415,-13.11 52.4808,-20.2397 21.3968,-9.0239 42.5911,-18.789 62.2399,-31.2423 18.2057,-11.685 35.0457,-25.6809 49.0059,-42.2562 46.594,3.3808 93.2098,6.7255 139.7396,10.6957 11.0764,1.078 22.1525,2.2066 33.1686,3.8004 -1.1463,13.3579 -1.3267,27.0164 1.9411,40.1104 4.039,16.1756 13.3288,31.1659 26.6563,41.2987 14.1444,10.8417 32.3982,16.0195 50.1325,14.5624 11.1669,-0.8457 21.9876,-4.3227 32.0611,-9.1115 11.3153,-5.3131 21.8543,-12.0935 32.299,-18.919 16.6681,-11.108 32.4547,-23.838 45.3326,-39.2651 9.9459,-12.01 17.962,-25.6898 23.0598,-40.4494 10.1797,-6.8935 19.8227,-14.9471 26.8713,-25.1205 8.8891,-12.629 14.086,-27.7844 15.0134,-43.1881 14.2101,-10.8643 27.4798,-23.2292 37.8045,-37.9163 9.9677,-14.0266 17.1762,-30.0308 20.8624,-46.8487 4.1567,-18.2868 4.6654,-37.1997 3.5826,-55.8587 -0.2477,-3.7397 -0.5791,-7.4741 -1.0483,-11.1927 17.3742,-0.2425 34.6591,-7.1071 47.1658,-19.2287 13.153,-12.6462 20.9805,-30.463 22.0051,-48.6304 0.4863,-8.3002 -0.1865,-16.6368 -1.4917,-24.836 -3.1581,-19.0987 -10.8504,-37.3317 -21.728,-53.3041 -11.9941,-17.7874 -27.3738,-33.0611 -44.0586,-46.448 -21.7312,-17.3551 -45.8912,-31.3981 -70.6892,-43.8703 -18.4993,-9.2463 -37.5858,-17.4786 -57.4928,-23.1924 -19.9689,-5.8122 -40.6604,-9.2549 -61.4668,-9.7155 -27.4915,-0.7504 -54.9337,3.0645 -81.6497,9.3469 -23.1359,5.2856 -45.7877,12.3911 -68.8229,18.0647 -5.5174,1.2926 -11.1588,2.2256 -16.843,2.115 -6.1406,-0.014 -12.2612,-0.3464 -18.4261,-0.6903 -8.0429,-0.5006 -16.2604,-1.2488 -24.302,-2.4588 -2.8594,-0.4323 -5.9202,-0.9425 -8.8466,-1.481 -9.5078,-1.749 -18.9198,-4.007 -28.1992,-6.716 -2.0009,-0.5872 -4.1844,-1.2498 -6.2439,-1.9041 -4.0244,-1.283 -7.8455,-2.5922 -11.788,-4.0275 -11.5017,-4.1709 -22.7124,-9.0911 -33.8091,-14.231 -33.5794,-15.34843 -67.0213,-31.21601 -101.9707,-43.26674 -25.3407,-8.83935 -51.9989,-14.58951 -78.9246,-14.5708 -23.6488,-0.0735 -47.1252,3.42666 -70.352,7.5694 -10.3385,1.87144 -20.6355,4.03511 -30.7496,6.89558 -10.0315,-2.7809 -20.0558,-5.96923 -30.0477,-9.06269 -38.0553,-11.96919 -75.6311,-25.41269 -112.5418,-40.59824 -9.6368,-3.9578 -19.3165,-8.09879 -28.7961,-12.31963 -8.3938,-3.74335 -16.7789,-7.60744 -24.9996,-11.60564 -21.7006,-10.59588 -42.7716,-22.41794 -63.7587,-34.34823 -29.082,-16.62821 -57.6697,-34.02414 -85.7377,-52.31011 -8.7214,-5.74371 -17.3294,-11.56141 -25.7601,-17.74922 -4.3915,-3.04631 -8.2444,-6.76858 -12.0044,-10.54519 -3.0913,-3.13367 -6.3161,-6.12997 -9.6538,-8.99941 -21.44,-18.77995 -43.9669,-36.26432 -66.5188,-53.67526 -30.189,-23.27603 -60.8422,-45.94537 -91.7323,-68.28063 -21.5585,-15.60015 -43.2343,-31.0378 -64.9255,-46.45301 -0.8925,-20.91505 -7.313,-41.31951 -16.9056,-59.82774 -11.6119,-22.5626 -27.7209,-42.49 -45.3653,-60.60072 -24.068,-24.65123 -51.3368,-45.92897 -79.5619,-65.58787 -17.5637,-12.22867 -35.6009,-23.80987 -54.382,-34.08954 -22.1111,-12.17828 -45.0335,-22.84086 -68.3532,-32.48739 -15.5064,-6.35435 -31.2799,-12.10859 -47.4076,-16.68535 -8.5119,-2.34332 -17.1901,-4.40453 -26.0447,-4.75888 -16.5963,-0.49795 -33.4404,5.0807 -46.0552,15.96582 -8.2806,7.00738 -14.7185,16.13074 -18.7156,26.20448 -40.6719,-20.65957 -82.5548,-38.91757 -125.2547,-54.96475 -32.5443,-12.17128 -65.6826,-22.73193 -99.2059,-31.8568 -7.5868,-2.08318 -15.1779,-4.20751 -22.9107,-5.68373 -11.0516,-1.81919 -22.2104,-2.85758 -33.3025,-4.38648 -55.308,-6.937 -110.6158,-13.87498 -165.9238,-20.81136 48.2794,46.21558 96.5166,92.47517 144.7598,138.72851 -70.7716,-11.25422 -142.0586,-19.37395 -213.5957,-23.71151 -31.6682,-2.03534 -63.3737,-3.45286 -95.0337,-5.61678 -8.1962,-0.59864 -16.3007,-1.21209 -24.4715,-2.3489 -6.0984,-0.8872 -12.1397,-2.50426 -17.6335,-5.34476 -11.3685,-5.3932 -22.4819,-11.29476 -33.7624,-16.86492 -53.8297,-26.96496 -108.7084,-51.83512 -164.47,-74.53613 -60.0891,-24.51531 -121.1271,-46.6895 -182.8477,-66.73443 -70.1921,-22.78079 -141.2767,-42.81023 -212.9639,-60.32336 -73.9075,-18.03433 -148.4847,-33.29594 -223.5065,-45.914798 -38.0288,-6.441542 -76.1018,-12.639616 -114.2421,-18.384898 -12.1468,-1.83563 -24.3158,-3.526604 -36.5199,-4.934356 -3.0312,-1.610706 -6.5433,-1.782846 -9.9026,-1.791483 -5.7243,-0.449115 -11.4607,-0.960292 -17.2009,-1.409689 0.1276,0.833333 0.2552,1.666666 0.3828,2.5 z m 358.7383,267.423824 c 23.0853,11.30437 45.9012,23.17016 68.2597,35.85547 -1.0911,0.0794 -2.2156,0.32348 -3.2866,0.30292 -23.1883,-12.88674 -46.2933,-25.92403 -69.6802,-38.44745 1.569,0.76302 3.1381,1.52604 4.7071,2.28906 z m 1192.33,816.53911 c 4.1399,0.054 8.2792,0.1347 12.418,0.2421 8.2504,0.2354 16.7218,0.6085 24.975,1.0766 16.6783,0.9626 33.3397,2.3753 49.9835,4.0976 20.8473,2.1705 41.6601,4.8676 62.4399,7.8778 62.4047,9.0718 124.4183,21.099 186.1299,34.2234 41.117,8.766 82.107,18.0165 122.8059,28.5803 10.8991,2.834 21.9051,5.7851 32.7459,8.8249 16.2591,4.5448 32.4306,9.3668 48.5464,14.4749 31.7808,10.0944 63.2539,21.4162 94.0983,34.1685 32.763,13.4928 64.8863,28.4031 96.5426,44.3453 40.8671,20.5016 81.2604,42.0502 123.3075,60.0881 31.2135,13.4742 63.2009,25.2274 95.9328,34.4547 37.5308,10.7537 75.7308,18.9204 113.9278,26.895 18.371,3.8779 36.6769,7.6617 54.856,12.363 7.7183,2.044 15.3219,4.2571 22.7395,7.157 1.4624,0.588 2.9057,1.2288 4.2971,1.9706 0.082,5.1923 -0.6221,10.3627 -1.6035,15.4512 -0.3509,1.8034 -0.7821,3.8019 -1.2044,5.6723 -3.0023,13.2511 -6.7302,26.511 -6.9555,40.1894 -0.3664,15.8142 5.2085,31.678 15.3937,43.7825 2.1246,2.5628 4.4469,4.9612 6.9283,7.18 -41.2222,-7.0034 -82.1971,-15.7995 -122.6536,-26.4643 -19.7322,-5.1909 -39.3759,-10.8292 -58.8854,-16.8814 -38.222,-11.8555 -76.014,-25.3275 -113.2498,-40.0613 -32.8522,-12.9677 -65.3225,-27.0015 -97.4044,-41.8518 -29.056,-13.4312 -57.9128,-27.2858 -86.7658,-41.1453 -89.1874,-42.9912 -177.5382,-87.7685 -267.9043,-128.2658 -48.159,-21.5715 -96.8873,-41.9316 -146.4967,-59.9339 -38.2193,-13.9099 -76.9268,-26.4561 -115.9454,-37.9249 -49.8541,-14.6954 -100.1522,-27.8226 -150.5266,-40.5963 0.5091,0 1.0182,0.01 1.5273,0.01 z m -353.2793,324.5781 c 10.1996,0.011 20.3966,0.2699 30.5918,0.5469 1.9999,0.076 4.2026,0.1536 6.2804,0.2482 8.3131,0.3569 16.527,0.8028 24.8296,1.3688 22.8371,1.5289 45.621,3.7573 68.3764,6.6078 51.705,6.5207 103.0052,15.9407 153.8944,27.4541 46.9067,10.6227 93.3981,23.0489 139.4727,36.8969 42.3089,12.712 84.291,26.6558 125.8457,41.7008 31.707,11.4745 63.2816,23.6076 94.5721,36.3075 29.2553,11.9174 58.2224,24.4245 87.1536,37.113 55.5123,24.2293 110.9331,48.7945 167.7754,69.7787 48.3365,17.7499 97.8377,32.5628 148.3793,42.5692 17.5225,3.4471 35.1716,6.2453 52.8931,8.4491 -11.4689,-0.013 -22.9429,0.026 -34.4087,-0.019 -6.7779,-1.4132 -13.7106,-0.5802 -20.5491,-0.5916 -15.7732,0.3423 -31.5464,0.6843 -47.3195,1.0269 8.4635,6.1497 16.927,12.2995 25.3906,18.4492 -4.0418,6.8324 -5.9337,14.8849 -5.4429,22.8027 0.1059,5.7459 0.3446,11.4244 0.4664,17.1493 0.5668,19.3348 0.8314,38.6907 2.2621,57.9868 1.8274,16.2594 9.7816,31.9239 22.4254,42.4188 9.8935,8.2597 22.2006,13.1949 34.776,15.5932 10.2406,2.1163 20.775,3.6266 30.3434,8.068 4.8652,2.2759 9.1897,5.7101 12.4139,10.0146 7.248,8.8947 13.6701,18.4858 20.0552,27.9553 12.0283,18.0732 23.3201,36.6226 34.518,55.2176 19.4985,32.5323 38.3023,65.5276 57.241,98.4194 59.4933,103.5267 118.8957,207.1012 178.2182,310.722 21.7978,38.0609 43.5873,76.1265 65.3815,114.1894 0.8199,3.7923 3.3421,6.8592 5.0888,10.2399 23.5766,41.0496 47.1394,82.1073 70.7539,123.1349 2.3051,3.9505 4.8099,7.7918 7.0967,11.7463 6.3036,11.0472 12.6068,22.0993 18.9102,33.1485 -69.5721,117.3084 -139.3604,234.4977 -209.1695,351.6706 -25.4149,42.6436 -50.8297,85.2873 -76.2446,127.9309 -56.5622,-192.7137 -112.9812,-385.4694 -169.0452,-578.3286 -9.5537,-32.9348 -19.1215,-65.8854 -28.5221,-98.8729 -1.8096,-6.4857 -3.7195,-12.9708 -5.2929,-19.527 -1.1184,-5.5735 -1.7874,-11.2483 -1.8937,-16.9336 6.4743,-4.134 12.4566,-9.1296 17.2244,-15.1814 6.9547,-8.6843 11.4563,-19.2545 13.1064,-30.2454 1.0115,-6.3086 1.0262,-12.7167 0.9155,-19.088 -0.049,-28.816 -0.04,-57.632 -0.047,-86.4481 -131.3333,0 -262.6666,0 -394,0 0,41.0326 0,82.0651 0,123.0977 7.5929,9.4885 16.984,17.3277 26.6636,24.5924 1.2943,1.0689 2.6892,2.0084 4.0161,3.0326 0.3368,2.5324 0.014,5.092 -0.029,7.6338 -0.2582,4.8832 -0.7696,9.8194 -1.4824,14.5849 -0.7261,4.8842 -1.6692,9.7852 -2.7272,14.5054 -2.1848,9.8698 -5.1469,19.7847 -7.8938,29.6188 -30.9855,109.8201 -62.106,219.6021 -93.2065,329.3897 -55.0392,194.2243 -110.1107,388.4394 -165.328,582.613 -5.6927,19.9056 -11.3094,39.8331 -17.0603,59.722 -1.3994,4.7519 -2.858,9.5591 -4.412,14.1862 -1.4357,4.347 -3.0108,8.7517 -4.7119,13.0626 -3.4503,-5.9055 -6.3198,-12.1232 -9.3433,-18.2518 -7.2566,-15.0419 -14.1564,-30.195 -20.8292,-45.5104 -9.2782,-21.3129 -18.1816,-42.8882 -27.1945,-64.354 -35.5494,-84.8826 -70.8616,-169.8638 -106.143,-254.8582 -0.3065,-0.5858 0.8722,-0.6337 1.208,-0.9869 34.0658,-18.0974 64.3472,-43.1925 88.6907,-73.0983 19.9704,-24.4416 35.9746,-51.9736 48.4599,-80.9209 19.3245,-44.6534 30.554,-92.481 36.2905,-140.6965 4.7702,-40.0586 5.8715,-80.4714 5.1539,-120.7809 -0.6067,-31.4215 -2.9078,-62.8372 -7.6182,-93.9195 -4.5945,-31.0772 -11.2271,-61.8748 -20.2631,-91.9698 -10.619,-34.8685 -25.2318,-68.7252 -45.4078,-99.1723 -17.6022,-26.5826 -39.1058,-50.6876 -64.1817,-70.4336 -8.0572,-6.3637 -16.5298,-12.1971 -25.3261,-17.4903 49.2453,-0.016 98.4917,3e-4 147.7364,-0.073 75.0091,-5.2445 150.0182,-10.4884 225.0272,-15.7333 -66.9078,-36.5476 -133.7787,-73.1636 -200.7636,-109.5684 -26.9985,-12.7751 -54.191,-25.135 -81.3196,-37.6312 -128.0612,-58.6962 -256.8125,-115.8732 -385.3718,-173.4781 -65.8525,-29.5225 -131.6297,-59.1962 -197.1698,-89.4224 -40.0677,-18.4568 -80.056,-37.086 -119.9103,-55.9995 -60.9275,-28.9329 -121.5707,-58.569 -181.3055,-89.9277 -26.2027,-13.774 -52.1782,-27.8635 -77.851,-42.5904 -25.4812,-14.634 -50.7036,-29.8534 -75.2895,-46.0018 -15.7072,-10.3184 -31.3054,-21.0845 -46.4353,-32.2574 -11.7257,-8.6473 -23.1762,-17.4992 -34.4713,-26.6875 -14.1596,-11.5589 -28.0597,-23.7352 -40.8127,-36.9335 -3.6816,-3.8188 -7.2667,-7.7447 -10.6869,-11.731 -5.2422,-6.1151 -10.1307,-12.3897 -14.6478,-19.0758 -2.4769,-3.6819 -4.8953,-7.6726 -6.8867,-11.4785 -1.5836,-3.0505 -3.0226,-6.1497 -4.239,-9.31 -2.6674,-6.8205 -4.349,-14.305 -3.0931,-21.6256 1.5277,-7.9809 5.8554,-15.1068 10.8377,-21.4022 10.1573,-12.7036 22.9473,-22.9865 36.1998,-32.2838 16.0033,-11.2049 33.4049,-20.1703 49.9886,-30.4469 6.9835,-4.3584 13.8422,-8.9563 20.2154,-14.1769 4.5526,-3.8395 8.5852,-8.2895 11.9851,-13.1784 39.0318,15.1233 79.0432,27.878 119.9409,36.9001 41.3291,8.9784 83.7074,13.2674 126.0025,12.2634 44.5406,-0.8324 88.8264,-6.7242 132.6011,-14.7116 38.6363,-6.972 77.1095,-14.8434 115.8047,-21.5004 26.7976,-4.6688 53.6168,-8.9767 80.6556,-11.944 12.3886,-1.3586 24.9611,-2.4945 37.4126,-3.362 9.0037,-0.6305 18.0405,-1.14 27.0103,-1.4522 8.9288,-0.2941 17.8614,-0.4415 26.7949,-0.4648 z M 1146.8262,1923.5 c -5.5957,54.675 -7.8962,109.7982 -4.5568,164.6991 0.042,0.6863 0.085,1.3725 0.1271,2.0587 -9.0486,-27.3868 -18.1411,-54.7594 -27.0514,-82.1913 -1.3955,-4.396 -2.7562,-8.8911 -3.7764,-13.3134 -0.6156,-2.5577 -1.17,-5.2587 -1.6292,-7.6965 -1.076,-5.8399 -1.7832,-11.75 -2.045,-17.6836 -0.028,-0.6717 -0.053,-1.5256 -0.073,-2.2867 -0.07,-5.8585 -0.3397,-11.7375 0.1705,-17.5819 1.0469,-4.1798 4.4063,-7.2841 7.9376,-9.4968 5.0474,-3.2555 10.5952,-5.6142 15.9125,-8.3775 5.3983,-2.748 10.6705,-5.8684 15.1752,-9.9543 -0.064,0.6081 -0.1276,1.2161 -0.1914,1.8242 z m 281.541,258.6875 c 8.5643,27.3669 18.0099,54.4669 28.6151,81.1128 13.0958,32.716 28.2445,64.6241 45.5896,95.3048 2.9762,5.3216 6.0381,10.5949 9.1566,15.8344 -39.0286,0 -78.0573,0 -117.0859,0 0.2009,-26.1623 0.3053,-52.3261 0.6925,-78.4864 0.068,-2.8437 0.1591,-5.7613 0.3018,-8.5147 0.6461,-11.8067 1.8045,-23.5938 3.7361,-35.2626 0.7314,-4.4069 1.6265,-9.0081 2.6296,-13.4721 0.9147,-4.0292 1.9049,-7.9633 3.058,-11.9612 1.6603,-5.7297 3.6081,-11.5461 5.8769,-17.1507 3.6998,-9.1521 8.3234,-18.0775 14.0409,-26.2229 0.8547,-1.2197 1.7317,-2.4239 2.6388,-3.6052 0.25,0.8079 0.5,1.6159 0.75,2.4238 z m -202.4805,158.3027 c 11.6138,15.3142 24.5881,29.6991 39.4482,41.9352 7.5348,6.1972 15.606,11.7022 23.8238,16.9451 31.7785,20.5908 63.4933,41.2831 95.2397,61.9303 0.2649,13.0924 0.5308,26.1849 0.795,39.2773 8.4281,8.9221 18.3596,16.2611 28.6548,22.8766 1.5689,1.0069 3.1414,2.0081 4.7084,3.018 0.04,131.9974 0.08,263.9947 0.1192,395.9921 -60.9175,-183.2213 -121.7797,-366.461 -182.6296,-549.7048 -3.7159,-11.1974 -7.4319,-22.3947 -11.1478,-33.592 0.3295,0.4407 0.6589,0.8815 0.9883,1.3222 z m 777.1719,77.543 c 0,27.9401 0,55.8802 0,83.8203 9.2385,9.2459 20.0975,16.6678 31.2715,23.3633 0.6435,0.3924 1.2878,0.7838 1.9316,1.1758 0.4659,43.4893 0.4748,86.9817 0.543,130.473 0.05,96.3238 -0.016,192.6477 -0.048,288.9715 -0.012,27.221 -0.024,54.4419 -0.036,81.6629 -63.3088,-111.1937 -126.6189,-222.3866 -189.8916,-333.6009 -33.0314,-58.2096 -66.06,-116.4153 -98.5923,-174.8962 -0.1296,-0.4885 -0.9343,-1.1148 -0.4698,-1.499 8.3058,-7.3095 14.6064,-16.9562 17.5922,-27.6362 2.5394,-8.5234 3.0579,-17.4991 2.7669,-26.3443 -0.032,-15.1634 -0.052,-30.3268 -0.054,-45.4902 78.3287,0 156.6575,0 234.9863,0 z M 871.79688,2579.7168 c 35.50055,115.7736 70.98919,231.5508 106.46484,347.332 -79.66064,0.097 -159.32139,0.062 -238.98198,-0.068 -0.66095,-9e-4 -1.32191,0 -1.98286,0 40.38058,-130.0313 80.84134,-260.0377 121.38085,-390.0195 4.37305,14.2526 8.7461,28.5052 13.11915,42.7578 z m 2813.93552,132.3574 c 47.1845,0.1001 94.3738,0.025 141.5508,0.9942 1.4143,0.043 3.0662,0.099 4.5704,0.1715 9.3335,0.4997 18.7542,0.6162 27.9398,2.5201 4.0327,0.8564 8.0902,2.3008 11.1506,5.1661 5.6163,4.9202 9.6833,11.397 12.4249,18.298 3.1526,7.9426 5.145,16.4162 6.5178,24.7622 0.978,6.0194 1.68,12.0516 2.1641,18.1669 0.44,5.439 0.7297,11.0826 0.8801,16.5507 0.2708,9.9866 0.1924,20 -0.2377,29.9427 -0.3192,7.0498 -0.868,14.1839 -1.7694,21.2323 -0.2127,1.6016 -0.4639,3.4203 -0.7238,5.0997 -1.6115,10.2165 -4.0794,20.3947 -8.4773,29.7968 -0.5258,1.116 -1.1803,2.4382 -1.818,3.6052 -2.186,4.1596 -4.961,8.1122 -8.755,10.9576 -4.3379,3.4128 -9.6668,5.4349 -15.1244,6.1061 -6.7432,1.1837 -13.5876,1.7312 -20.4321,1.7349 -73.4722,1.192 -146.9551,1.519 -220.4358,1.6753 -0.8465,0.224 -1.0034,-0.2443 -0.8749,-0.999 -0.1959,-65.2681 -0.1833,-130.5365 -0.2278,-195.8047 23.8926,0.01 47.7851,0.016 71.6777,0.023 z m -957.6875,0.25 c 40.3522,0.2227 80.7108,0.2289 121.0531,1.2422 3.7887,0.2297 7.6226,0.7153 11.2875,1.3372 7.3671,1.3058 14.6722,2.9942 21.8469,5.1198 11.6592,3.5011 23.018,8.464 32.7669,15.846 1.3499,1.0085 2.5728,1.9827 3.8994,3.0798 9.548,8.0262 17.4398,17.8267 24.4357,28.1033 5.2123,7.6956 9.8958,15.7434 14.107,24.0276 2.7647,5.4379 5.393,11.1482 7.794,16.8317 3.1684,7.4847 6.0751,15.2376 8.6859,23.0061 3.2586,9.6619 6.1231,19.5291 8.6756,29.4519 1.3142,5.1164 2.5884,10.4335 3.7392,15.6017 4.4943,20.1896 7.8812,40.632 10.487,61.181 0.822,6.4625 1.5863,13.0222 2.2682,19.5012 1.7298,16.5533 3.1393,33.2077 3.6546,49.9011 1.0401,35.5275 1.5404,71.17 0.5631,106.7378 -0.6658,18.8093 -1.9606,37.5168 -3.7112,56.2459 -0.9839,10.4619 -2.1354,20.913 -3.5013,31.3447 -1.0954,8.1839 -2.3318,16.5208 -3.7173,24.7277 -3.1046,18.3933 -6.981,36.819 -12.0152,54.8801 -3.7495,13.4625 -8.2069,26.9824 -13.5358,40.007 -11.6686,28.2731 -27.548,56.2452 -51.8989,75.6453 -5.5402,4.4069 -11.7934,7.8689 -18.3904,10.4174 -7.589,2.9305 -15.4218,5.2184 -23.3615,6.9809 -6.2743,1.3926 -12.6189,2.4524 -18.9919,3.2768 -1.6275,0.2052 -3.4748,0.4321 -5.1906,0.6123 -1.7625,0.1893 -3.4859,0.3561 -5.1853,0.4877 -8.3318,0.6894 -16.6998,0.6437 -25.0525,0.8203 -45.5623,0.657 -91.1306,0.6079 -136.6966,0.6734 0,-235.748 0,-471.4961 0,-707.2441 15.3282,0.052 30.6563,0.1041 45.9844,0.1562 z m 1933.5059,422.7988 c -23.0521,0.035 -46.1042,0.01 -69.1563,-0.017 11.6354,-42.5287 23.2709,-85.0573 34.9063,-127.586 11.4166,42.5345 22.8333,85.069 34.25,127.6035 z" />
    <g
       id="g1746"
       transform="translate(-7481.1131,-168.21566)">
      <path
         id="path1534"
         style="fill:#ff0000;stroke-width:14.3826"
         d="m 11497.877,859.22852 c -28.492,0.46258 -56.923,3.18411 -85.074,7.54359 -14.644,2.30046 -29.238,4.97696 -43.676,8.34664 -14.47,3.45025 -28.842,7.64241 -42.4,13.83185 -9.888,4.72227 -19.167,11.22493 -25.8,20.05553 -8.923,11.74359 -12.683,27.3784 -9.614,41.85088 2.702,13.86395 10.824,26.40545 21.791,35.19623 10.412,8.65684 22.791,14.51896 35.328,19.40786 21.981,8.4685 44.943,14.0175 67.943,18.9114 34.349,7.1641 69.149,11.8965 103.99,15.9068 24.83,2.9611 49.725,6.3594 74.368,10.5526 12.278,2.0832 24.57,4.3531 36.736,6.9166 3.457,0.7295 6.918,1.5248 10.276,2.3928 7.97,2.0132 15.708,4.8114 23.549,7.2574 13.66,4.3171 27.491,8.0686 41.373,11.6108 28.97,7.3486 58.25,13.48 87.743,18.3145 10.331,1.6001 20.956,2.5418 31.313,0.6311 12.577,-2.4401 24.383,-9.5244 31.783,-20.0775 8.777,-12.2453 11.648,-28.6526 7.045,-43.0559 -3.517,-11.4697 -11.114,-21.4396 -20.62,-28.6471 -10.432,-8.39862 -22.046,-15.13027 -33.395,-22.1832 -30.111,-18.21324 -60.506,-35.94506 -90.946,-53.60059 -24.634,-14.21156 -49.446,-28.16457 -75.024,-40.62148 -21.579,-10.37755 -44.053,-19.27107 -67.581,-24.06231 -19.956,-4.0869 -40.336,-5.56471 -60.66,-6.27121 -6.147,-0.18571 -12.298,-0.27467 -18.448,-0.20729 z" />
      <g
         id="g4703"
         transform="matrix(1,0,0,0.98444276,7466.9246,187.76862)">
        <g
           id="g4746"
           transform="matrix(1,0,0,1.161496,0,-610.55012)">
          <g
             id="g4752"
             transform="matrix(1,0,0,1.0577795,0,-218.4404)">
            <path
               d="m 654.1875,2200.5898 v 18.4493 18.4492 l 6.47461,3.0898 c 23.3898,11.1629 39.71955,29.6457 45.69727,51.7246 1.67349,6.1813 2.11925,10.7767 2.15624,22.2871 0.0688,21.213 -3.90269,40.2481 -15.15429,72.6407 -5.6163,16.1688 -482.76498,1240.7634 -491.86328,1262.3593 -7.5983,18.0356 -18.87867,40.066 -26.13477,51.0391 -13.1507,19.8871 -29.30964,31.68 -54.92383,40.082 l -10.25,3.3633 v 18.2578 18.2578 h 212.99805 213 v -18.2793 -18.2773 l -10.42578,-4.1348 c -15.4657,-6.1324 -23.86824,-11.4263 -33.68164,-21.2187 -6.7293,-6.7148 -9.41021,-10.2657 -12.2832,-16.2656 -6.68811,-13.967 -8.06581,-28.133 -4.66211,-47.9746 4.1499,-24.1914 3.88349,-23.456 66.33789,-183.3497 l 36.32617,-93 h 292.44531 292.44336 l 43.1797,108 c 23.7486,59.4 45.938,115.3683 49.3105,124.3731 11.3503,30.3062 15.7918,50.8405 14.6739,67.8594 -2.1749,33.1087 -19.9193,54.1422 -53.4141,63.3203 l -8.25,2.2617 v 18.3418 18.3437 h 236.5 236.5 v -18.3457 -18.3457 l -7.75,-2.4043 -7.75,-2.4043 8.25,-0.291 8.25,-0.289 v -11.8731 -11.873 l -7.6934,-3.8028 c -13.5161,-6.6784 -20.9815,-15.813 -25.0468,-30.6484 -1.5875,-5.7935 -1.7256,-28.4279 -2,-328.2051 -0.2515,-274.6617 -0.09,-321.7644 1.0937,-320.5 2.3162,2.474 420.6006,605.7485 425.6953,613.9629 7.0185,11.3162 12.8118,23.3089 14.5645,30.1504 3.8332,14.9622 -3.4902,30.9718 -16.8633,36.8691 l -4.75,2.0938 v 11.9531 11.9531 h 116.5 116.5 v -11.9726 -11.9707 l -6.25,-3.0996 c -13.7446,-6.815 -20.7476,-14.3473 -25.0234,-26.9141 l -2.2266,-6.543 -0.2754,-453 c -0.2036,-333.0207 0.021,-454.8067 0.8516,-459.8203 2.483,-14.9966 11.0138,-26.0885 25.6738,-33.3789 l 7.25,-3.6054 v -11.8477 -11.8477 h -108.5 -108.5 v 11.8477 11.8477 l 7.3965,3.6562 c 14.4726,7.1528 23.0537,18.3554 25.5273,33.3281 0.8232,4.9804 1.0521,90.9361 0.8516,318.6856 l -0.2754,311.8652 -205.9844,-298.8652 c -120.3368,-174.5972 -207.7339,-302.3306 -210.1894,-307.1992 -12.7312,-25.2424 -8.1567,-49.8076 11.0019,-59.0821 l 4.6719,-2.2617 V 2716.5 2704.5898 H 1590.1562 1464.125 l 0.2812,11.6387 0.2813,11.6387 7.4258,3.8848 c 13.6966,7.1657 20.0485,14.1539 24.3496,26.7949 l 2.2246,6.5429 0.1934,337.5 c 0.1056,185.625 -0.1843,336.6 -0.6426,335.5 -19.6446,-47.1559 -431.3202,-1071.7053 -434.0332,-1080.1914 -6.3703,-19.9265 -8.4312,-32.2194 -8.4317,-50.3086 -4e-4,-14.1661 0.2315,-16.1885 2.6856,-23.5 6.3924,-19.045 22.0973,-34.074 45.9785,-43.996 l 6.75,-2.8028 v -18.3515 -18.3497 h -228.5 z m 4155.6992,14 0.5664,17.584 c 0.3125,9.671 0.7342,17.7478 0.9356,17.9492 0.2014,0.2015 5.2499,1.0923 11.2187,1.9786 33.1573,4.9234 55.0724,14.1752 71.9453,30.373 16.6723,16.005 43.2045,49.8804 80.7618,103.1152 43.5201,61.6866 404.327,582.5642 404.0781,583.3457 -0.5378,1.6891 -381.5031,530.6543 -382.1817,530.6543 -1.1461,0 -243.3668,-684.9203 -246.2578,-696.3359 -5.1756,-20.4367 -5.4005,-36.5452 -0.6836,-49.1523 2.9306,-7.8327 11.826,-17.1647 20.916,-21.9414 l 7.002,-3.6797 v -11.9453 -11.9454 h -131 -131 v 11.8575 11.8593 l 6.0137,3.711 c 12.2813,7.5805 20.3863,18.6431 23.5722,32.1758 3.1834,13.5223 0.37,37.4092 -7.289,61.8964 -3.704,11.8424 -278.7525,813.9649 -283.9219,828 -2.4309,6.6 -7.1872,17.625 -10.5703,24.5 -5.1892,10.5453 -7.2589,13.6134 -13.2285,19.6133 -6.9448,6.98 -15.6437,12.3494 -24.8262,15.3262 l -3.75,1.2168 v 11.9219 11.9218 h 123 123 v -11.8828 -11.8847 l -5.2656,-2.1368 c -10.8056,-4.3857 -21.3448,-13.289 -26.1231,-22.0683 -3.8994,-7.1645 -5.9174,-17.8459 -5.1093,-27.0274 1.5773,-17.9207 2.8944,-22.1967 41.3085,-134 l 18.7247,-54.5 h 168.4785 168.4765 l 27.3516,78 c 28.9028,82.4247 32.8409,95.0201 33.8359,108.2442 l 0.6192,8.2441 -10.3985,10.5918 c -19.6304,19.9947 -39.8598,30.1295 -70.1484,35.1426 l -9.75,1.6133 v 17.832 17.832 h 268 268 v -17.8847 -17.8848 l -8.25,-1.2012 c -38.2829,-5.5735 -59.6564,-27.06 -59.7324,-60.0488 -0.039,-16.7945 9.6701,-38.5956 32.2246,-72.3594 6.7555,-10.1129 251.1609,-362.4236 261.7578,-377.3242 l 3.7012,-5.2031 136.6425,193.3418 c 75.1536,106.3384 139.994,198.5839 144.0899,204.9902 13.9113,21.7582 23.4128,42.7275 25.0644,55.3125 0.8698,6.6278 -1.0165,18.0924 -4.1425,25.1758 -7.1083,16.1069 -23.3309,27.9228 -47.7598,34.7891 l -9.5957,2.6972 v 17.8008 17.7988 h 277 277 v -17.8281 -17.8281 l -10.75,-2.2344 c -13.4828,-2.8004 -31.1068,-8.6257 -42.5176,-14.0527 -27.0667,-12.8729 -44.689,-30.5718 -88.1719,-88.5567 -23.5836,-31.4489 -12.0585,-15.105 -250.8925,-355.7382 l -213.666,-304.7403 206.125,-277.7597 c 113.3698,-152.7684 215.4073,-289.9084 226.75,-304.7539 38.2676,-50.0851 66.3715,-84.2681 76.9238,-93.5665 13.5719,-11.9591 33.1529,-19.1612 66.4492,-24.4374 l 3.75,-0.5938 v -17.9551 -17.9551 h -272.5 -272.5 v 17.9336 c 0,16.2221 0.1669,17.9788 1.75,18.4297 0.9625,0.2742 4.3645,1.0169 7.5586,1.6504 15.0719,2.9889 32.0283,10.5336 42.2266,18.7891 17.1394,13.8744 23.0751,36.8407 15.3457,59.375 -5.2392,15.2746 -15.4586,34.2025 -31.4239,58.2031 -12.1795,18.3093 -234.8058,328.9077 -236.0273,329.2949 -0.5111,0.1621 -34.6797,-47.4726 -75.9297,-105.8535 -41.25,-58.3809 -92.1383,-130.4058 -113.0859,-160.0566 -50.7247,-71.7993 -63.2422,-92.1738 -70.5118,-114.7657 -3.8168,-11.8614 -4.4914,-20.0513 -2.539,-30.8496 4.5132,-24.9622 22.007,-42.713 52.8867,-53.6621 l 7.75,-2.748 v -17.8692 -17.8711 h -280.6504 z m -2643.1972,227.1407 c 3.0228,0.035 16.6558,0.1799 36.7812,0.4043 -0.03,-0.022 -0.061,-0.044 -0.092,-0.066 -26.8301,-0.2515 -40.0133,-0.377 -36.6894,-0.3379 z M 873.35938,2600.4062 c 0.599,0.6103 206.34912,555.154 207.56442,559.4336 0.4722,1.663 -9.9672,1.75 -209.22653,1.75 -167.3372,0 -209.63729,-0.2526 -209.30079,-1.25 5.5135,-16.3398 210.49848,-560.4063 210.9629,-559.9336 z m 1560.82812,104.1836 v 11.8477 11.8477 l 7.25,3.6054 c 9.9982,4.9721 16.968,11.3626 20.7148,18.9903 6.5438,13.3222 6.0764,-24.9002 5.793,473.9316 l -0.2578,453.2773 -2.2246,6.543 c -4.2754,12.5654 -11.1261,19.9181 -25.0254,26.8633 l -6.25,3.123 v 11.9864 11.9804 h 219.75 c 134.475,0 225.9589,-0.3885 235.75,-0.998 82.04,-5.1064 137.9737,-21.8567 184.6582,-55.2969 64.3445,-46.0903 116.2795,-125.5844 144.1914,-220.709 14.8056,-50.4582 23.0697,-97.7875 28.3496,-162.3574 2.1971,-26.8689 2.5312,-122.7773 0.5176,-148.6348 -5.8885,-75.6206 -16.2259,-130.8139 -35.209,-188 -31.5663,-95.0928 -79.8394,-164.3925 -144.5078,-207.455 -43.8857,-29.2234 -97.851,-44.5803 -173.9824,-49.5098 -10.2245,-0.662 -95.8836,-1.0352 -237.75,-1.0352 z m 932.0098,0 v 11.75 11.75 l 7.7461,3.9551 c 13.9011,7.0976 21.7645,17.0713 24.8183,31.4766 2.1241,10.0205 2.0822,906.3093 -0.043,916.3379 -3.0382,14.3365 -11.0763,24.3043 -25.252,31.3086 l -7.2793,3.5957 v 11.914 h 0.01 v 11.9121 h 115.5 115.5 v -11.8359 -11.8359 l -8.502,-4.2129 c -13.8165,-6.8463 -20.1864,-14.5743 -24.2324,-29.3926 -1.5637,-5.727 -1.7237,-20.499 -2.0059,-185.4766 l -0.3066,-179.2558 99.1777,0.2558 99.1778,0.2539 75.7968,154 c 79.7872,162.107 89.8031,183.0853 95.418,199.8653 5.6681,16.9387 4.481,27.0338 -4.0625,34.5351 -3.8052,3.341 -11.3632,7.1724 -16.7109,8.4707 l -2.75,0.668 v 11.9805 11.9804 h 134 134 v -11.83 -11.8282 l -7.75,-1.6816 c -18.2821,-3.9645 -31.8111,-14.7263 -45.459,-36.1602 -6.555,-10.2945 -19.2394,-32.6493 -29.5059,-52 -12.6382,-23.8211 -159.2851,-315.0074 -159.2851,-316.2812 0,-0.5738 1.9125,-1.3624 4.25,-1.7539 7.8293,-1.3112 30.7935,-8.4469 43.5839,-13.543 53.5559,-21.3378 93.1892,-57.7581 118.5879,-108.9765 23.3903,-47.1683 34.0006,-101.1757 33.9766,-172.9454 -0.012,-36.6645 -2.6772,-65.4515 -8.8769,-95.8925 -13.4716,-66.146 -35.8558,-111.9519 -71.6622,-146.6465 -42.0805,-40.7741 -89.0768,-57.9697 -173.3418,-63.4258 -10.3116,-0.6677 -104.4322,-1.0352 -265.25,-1.0352 z M 5211.793,2862.875 c 0.5119,0.4415 0.9804,0.8528 1.3808,1.2188 1.6353,0.9771 2.3111,1.3595 3.043,1.7773 -0.097,-0.1332 -0.1935,-0.2651 -0.291,-0.3984 -1.201,-0.778 -2.6746,-1.7117 -4.1328,-2.5977 z m -2581.6055,11.6094 118.25,0.3574 c 105.274,0.3184 119.7314,0.549 131.75,2.1016 52.5849,6.7933 88.1682,22.1929 117.0254,50.6464 47.7424,47.0744 74.9594,119.1917 84.5371,224 2.1852,23.9129 3.0351,88.5086 1.5273,116.0274 -6.1199,111.6885 -32.1313,190.7995 -79.4238,241.5586 -13.6091,14.6066 -31.562,28.3729 -47.166,36.168 -24.1366,12.0578 -58.3251,19.8022 -98,22.1992 -9.7308,0.588 -62.2184,1.0271 -122.75,1.0371 l -105.75,0.01 v -347.0527 z m 932,0.1054 137.75,0.02 c 137.2883,0.019 163.6229,0.5275 184.2305,3.5605 12.0536,1.774 25.976,6.1301 34,10.6367 38.4713,21.6067 55.2511,58.8169 55.1406,122.2774 -0.056,32.2492 -4.4242,56.8635 -13.4883,75.998 -10.3714,21.8943 -23.3748,35.3679 -44.1328,45.7325 -13.3368,6.6592 -25.7673,9.6058 -50,11.8574 -13.9101,1.2921 -301.5411,2.5691 -302.75,1.3437 -0.4125,-0.4181 -0.75,-61.6603 -0.75,-136.0937 z m 1080.084,92.2188 c 1.1233,2.0651 118.9199,364.1568 118.9199,365.5312 0,0.9931 -24.7926,1.25 -120.6094,1.25 -96.0617,0 -120.5149,-0.2544 -120.1523,-1.25 0.2505,-0.6875 27.6112,-83.5019 60.8008,-184.0312 33.1896,-100.5294 60.6579,-182.2044 61.041,-181.5 z"
               style="fill:#000000"
               id="path817" />
          </g>
        </g>
        <g
           id="g4743"
           transform="matrix(1,0,0,0.89270016,0,5.6817013)">
          <g
             id="g4749"
             transform="matrix(1,0,0,0.97456324,0,67.335697)">
            <path
               id="path844"
               d="m 2544.4017,52.951649 c -0.3545,8.45e-4 -0.5777,0.02702 -0.6638,0.08233 -1.1825,0.761246 22.7328,10.373301 53.1464,21.359177 197.8861,71.481054 371.841,163.315054 470.3772,248.317214 37.079,31.98667 74.6211,69.042 74.6211,73.65743 0,0.87791 -35.3918,2.71487 -78.6489,4.08074 -43.2565,1.36587 -89.0572,4.08531 -101.7764,6.0446 l -23.1253,3.56281 -68.8777,-44.8254 C 2744.4272,283.86478 2593.6688,219.66325 2379.1347,156.422 2262.2863,121.97719 2026.7752,74.273465 1973.7254,74.304873 c -5.5519,9.83e-4 21.9592,11.303958 61.1352,25.11227 174.9324,61.657967 323.2536,135.343557 440.0233,218.604287 52.0642,37.12339 157.3005,119.78436 161.1132,126.55016 0.8924,1.58406 -29.8267,8.50102 -68.2633,15.37146 -317.3418,56.72586 -615.2561,142.11617 -814.8227,233.55002 -105.7566,48.4535 -207.476,111.81034 -235.7913,146.86559 l -9.1036,11.27109 14.1202,-5.95435 c 114.7975,-48.4167 155.361,-61.03332 219.1855,-68.17198 21.375,-2.39065 50.4609,-3.80214 64.6351,-3.1351 l 25.7725,1.21441 -59.2226,45.85933 c -279.2796,216.26954 -506.3558,466.36114 -619.3949,682.17484 -49.1208,93.7828 -87.6285,206.6513 -81.7531,239.6221 1.6741,9.3956 5.8241,6.2708 34.0095,-25.6047 59.9068,-67.749 97.2226,-96.5496 166.7462,-128.6985 40.2743,-18.6233 100.6502,-40.8963 104.3683,-38.5022 1.5166,0.9764 -7.8679,28.2462 -20.8524,60.601 -115.2899,287.2686 -165.2141,654.0962 -115.932,851.8319 17.6973,71.0055 55.8023,141.6753 90.6696,168.1561 l 12.58,9.5543 0.199,-46.4105 c 0.3794,-89.899 17.9812,-157.8402 53.1127,-205.0418 17.4625,-23.4621 68.5743,-67.7184 81.2844,-70.3811 4.2231,-0.8846 8.0198,9.2855 10.5946,28.3789 5.8809,43.6044 31.7269,136.8329 54.5053,196.6056 13.4509,35.2965 28.6939,69.3222 46.6663,103.4528 h 2591.7802 c -103.3561,-56.1722 -226.0351,-120.9784 -377.354,-199.5995 -535.0033,-277.9732 -711.6214,-384.7973 -839.5553,-507.7878 -137.1088,-131.8103 -134.1824,-241.0336 8.9697,-334.6858 17.7129,-11.5877 32.1719,-22.3959 32.1305,-24.0176 -0.062,-1.6213 -15.2131,-8.9679 -33.716,-16.3248 -42.7684,-17.0044 -117.0591,-63.9201 -148.2653,-93.6315 -78.3626,-74.6094 -115.9266,-164.4799 -97.3919,-233.0066 6.5925,-24.3716 25.7183,-55.5334 34.0843,-55.5334 2.0322,0 2.2626,13.4414 0.516,29.8698 -3.9065,36.697 3.4112,86.5024 16.4109,111.7006 5.3508,10.3735 22.8229,31.7756 38.8272,47.5604 16.0044,15.7849 34.6094,35.6513 41.3424,44.1485 22.0857,27.8732 156.7772,108.7386 239.7207,143.9208 124.846,52.9552 204.3925,58.8157 349.5547,25.7537 120.936,-27.5446 167.3041,-35.7634 227.58,-40.3405 204.4539,-15.5245 502.4598,66.0993 796.9503,218.2865 128.9726,66.6505 182.4908,91.2423 244.2115,112.2146 69.0018,23.4457 119.1706,32.439 216.4102,38.7965 360.2564,23.5528 350.2269,23.1662 392.9908,15.1968 49.5148,-9.2272 109.1335,-29.4143 161.06,-54.5347 l 45.191,-21.8615 -29.5424,-0.8868 c -253.5981,-7.6096 -439.7847,-54.8419 -655.7679,-166.355 -34.279,-17.6987 -118.4182,-64.5072 -186.9762,-104.0197 -279.332,-160.9903 -365.7751,-198.8024 -629.1918,-275.2209 -52.2352,-15.1537 -121.3356,-36.0961 -153.5577,-46.538 l -58.5844,-18.9853 25.938,-14.3455 c 41.0192,-22.6863 91.4754,-43.1512 128.4154,-52.0863 97.6589,-23.6217 240.9958,-8.1737 475.2363,51.2193 179.4308,45.4953 280.8168,86.5057 416.1063,168.3149 117.2635,70.9093 165.2724,90.7695 292.3608,120.9392 82.2312,19.5213 104.2907,29.1259 124.1433,54.0502 12.7306,15.9832 14.8793,52.8601 5.511,94.5948 -3.0492,13.5842 -4.8507,25.1442 -4.0042,25.6892 3.5778,2.3035 68.4359,-27.9039 94.8609,-44.182 29.4583,-18.1461 52.929,-43.1435 59.8331,-63.7244 l 3.9117,-11.6595 105.1463,8.8698 c 170.785,14.4092 177.6647,17.7921 170.78,83.9651 -4.8133,46.264 0.084,49.4751 35.3331,23.1602 28.9925,-21.6449 43.8902,-41.0377 48.433,-63.0455 2.5118,-12.1708 9.4433,-22.3896 21.0021,-30.9665 15.2688,-11.3294 17.0719,-15.2856 15.6801,-34.396 -1.433,-19.6747 0.3256,-23.1868 19.8026,-39.5047 33.5284,-28.0942 43.4535,-48.9974 43.2096,-91.0085 -0.1739,-30.0355 -3.5072,-43.0104 -19.2925,-75.1211 -20.5249,-41.7536 -22.4787,-51.2299 -12.9345,-62.712 12.3609,-14.8707 59.7463,-3.6603 80.5989,19.0677 16.2005,17.6574 22.1879,14.4178 18.2899,-9.8998 -5.0799,-31.6907 -34.012,-66.3977 -80.591,-96.6782 -75.213,-48.895 -117.9152,-54.0029 -206.1426,-24.6591 -51.4827,17.1226 -56.0198,17.9243 -90.2363,15.9266 -45.6616,-2.6658 -89.3561,-15.814 -134.665,-40.5209 -115.1186,-62.7743 -137.3251,-69.456 -197.3837,-59.3945 -18.7608,3.1427 -40.26,8.3034 -47.7751,11.4692 -12.7427,5.3685 -16.3425,4.7964 -53.4221,-8.4891 -63.9881,-22.9263 -125.2668,-50.0837 -178.0361,-78.8995 C 4914.4766,982.99579 4784.7408,890.65023 4768.6051,868.76104 4753.9344,848.85788 4666.161,769.60203 4575.4562,694.3563 l -65.2103,-54.09536 1.8751,-26.12265 c 3.6692,-51.14224 -46.3086,-117.49787 -141.3361,-187.64949 -32.4168,-23.93063 -87.2564,-53.11115 -120.8009,-64.27958 -19.8616,-6.61271 -18.6065,-4.33001 10.8605,19.73668 50.3495,41.12222 61.6972,67.16533 50.4578,115.80681 l -7.392,31.99657 -20.8327,-24.21961 c -57.56,-66.92098 -207.1447,-154.83094 -333.7288,-196.13071 l -31.2697,-10.20186 26.3831,22.26557 c 81.6074,68.86904 121.0992,118.53003 113.5585,142.80447 l -3.3916,10.91598 -39.3846,-9.83498 C 3871.007,429.33436 3757.1941,411.01066 3628.6155,403.1011 3513.1947,396.00081 3518.9851,397.27313 3470.6283,368.40496 3265.4712,245.93053 3019.1223,150.86409 2756.0573,92.65455 2692.1659,78.516643 2555.3906,52.925595 2544.4017,52.951649 Z M 4031.8622,755.51652 c 27.5421,-0.0233 54.6228,4.09909 80.7978,12.34426 24.2919,7.65221 48.76,21.64801 99.0897,56.68506 36.757,25.58837 91.47,62.44546 121.5847,81.90329 30.1148,19.45787 51.3763,35.37692 47.2494,35.37692 -4.1275,0 -34.1074,-5.3464 -66.6244,-11.88121 -65.5408,-13.17073 -86.9434,-19.40177 -110.9686,-32.30854 -26.172,-14.06062 -74.0846,-23.46551 -159.8604,-31.37858 -93.8353,-8.65684 -132.127,-19.44366 -163.52,-46.06728 -10.7261,-9.09638 -19.5032,-18.04229 -19.5032,-19.87794 0,-5.38594 74.9086,-30.80047 114.7147,-38.9201 19.1354,-3.90324 38.1957,-5.85991 57.0403,-5.87588 z m 1274.761,412.41018 c 21.5688,-0.2211 44.4225,7.7756 71.8084,24.1 35.1984,20.9807 93.5376,70.3123 78.0443,65.9942 -4.7014,-1.3105 -25.9106,-7.078 -47.131,-12.819 -45.2376,-12.2382 -121.6047,-16.438 -172.1115,-9.4642 -17.2909,2.3876 -32.2059,3.8454 -33.1448,3.2411 -4.1335,-2.6611 29.7548,-40.3183 46.2112,-51.3508 19.2613,-12.9129 37.292,-19.5064 56.3234,-19.7013 z"
               style="fill:#000000;stroke-width:4.76286" />
          </g>
        </g>
      </g>
    </g>
  </g>
</svg>
