<?xml version="1.0" encoding="UTF-8" standalone="no"?>
<!-- Created with Inkscape (http://www.inkscape.org/) -->

<svg
   version="1.1"
   id="svg69"
   width="512"
   height="512"
   viewBox="0 0 800.00001 799.99999"
   sodipodi:docname="arsenal-logo.svg"
   inkscape:version="1.2.2 (b0a8486541, 2022-12-01)"
   xmlns:inkscape="http://www.inkscape.org/namespaces/inkscape"
   xmlns:sodipodi="http://sodipodi.sourceforge.net/DTD/sodipodi-0.dtd"
   xmlns="http://www.w3.org/2000/svg"
   xmlns:svg="http://www.w3.org/2000/svg">
  <defs
     id="defs73">
    <filter
       inkscape:collect="always"
       style="color-interpolation-filters:sRGB"
       id="filter892"
       x="-0.047949757"
       y="-0.048050352"
       width="1.0958995"
       height="1.0961007">
      <feGaussianBlur
         inkscape:collect="always"
         stdDeviation="15.519739"
         id="feGaussianBlur894" />
    </filter>
  </defs>
  <sodipodi:namedview
     id="namedview71"
     pagecolor="#484848"
     bordercolor="#ffffff"
     borderopacity="1"
     inkscape:pageshadow="0"
     inkscape:pageopacity="0"
     inkscape:pagecheckerboard="0"
     showgrid="false"
     width="800px"
     inkscape:zoom="0.89966708"
     inkscape:cx="300.66678"
     inkscape:cy="282.88242"
     inkscape:window-width="1366"
     inkscape:window-height="691"
     inkscape:window-x="0"
     inkscape:window-y="24"
     inkscape:window-maximized="1"
     inkscape:current-layer="g75"
     inkscape:showpageshadow="0"
     inkscape:deskcolor="#7b7b7b" />
  <g
     inkscape:groupmode="layer"
     inkscape:label="Image"
     id="g75">
    <g
       id="g906"
       transform="matrix(0.88947136,0,0,0.89850689,44.211475,40.59725)">
      <path
         id="path791-3"
         style="fill:#ea9b26;fill-opacity:1;stroke-width:3.07363;filter:url(#filter892)"
         d="m 85.04853,12.41797 c -12.399026,0.599163 -24.487952,7.437142 -30.944765,18.161972 -4.181628,7.239143 -5.224213,15.955303 -4.093721,24.154855 1.192656,10.123164 4.628209,19.781724 7.997342,29.338862 4.721492,12.856959 9.974189,25.510121 15.349101,38.102341 1.700214,3.8255 3.398073,7.69375 5.748149,11.16933 4.260893,5.627 12.040429,8.33655 18.829234,6.35574 5.24017,-1.30357 9.63721,-4.61883 13.98264,-7.67678 6.83479,-4.98973 13.34454,-10.46716 19.17556,-16.61793 3.30938,-3.67402 5.88154,-8.28383 6.12834,-13.32192 0.35414,-5.218729 -1.33036,-10.270572 -2.86466,-15.179706 -3.17129,-9.555598 -7.0024,-18.874463 -10.93917,-28.133103 -4.10576,-9.529193 -8.44988,-18.962972 -13.25989,-28.155781 -2.26536,-4.146209 -4.59799,-8.34167 -7.84113,-11.810006 -3.960447,-3.995746 -9.506076,-6.29311 -15.111944,-6.361415 -0.717728,-0.03115 -1.436746,-0.03712 -2.155086,-0.02646 z m 467.11143,61.527696 c -9.5822,0.16444 -19.15406,3.192433 -26.89809,8.907115 -8.21873,5.663979 -15.19867,12.87076 -22.31313,19.823199 -6.64241,6.59159 -13.18479,13.29598 -20.15993,19.53782 -2.89436,2.58614 -5.97263,5.2122 -9.08712,7.63143 -1.15436,0.89993 -2.32202,1.78269 -3.51213,2.63452 -1.47581,-0.88332 -2.981,-1.85501 -4.32147,-2.76114 -11.05681,-7.44916 -20.56259,-16.92079 -31.3946,-24.6708 -5.7513,-4.13133 -11.73793,-7.987966 -18.14413,-11.01814 -5.09762,-2.423531 -10.93443,-3.501609 -16.51227,-2.383168 -7.1361,1.380044 -13.4271,5.496538 -18.69937,10.377458 -8.38719,7.78271 -14.8117,17.41266 -20.43284,27.32422 -6.86782,12.29085 -12.03745,25.49401 -15.78201,39.06431 -3.6113,12.40884 -7.14172,24.88821 -12.20022,36.8002 -2.91891,6.94461 -6.58664,13.69251 -10.78672,19.99329 -6.58419,10.09765 -13.81727,19.92548 -18.41704,31.15695 -1.71937,4.40151 -2.09727,9.45271 -0.76793,13.95693 -8.22471,-0.27074 -16.48484,-0.1012 -24.65078,0.98464 3.8559,-16.7757 7.89649,-33.50958 11.38901,-50.36593 0.86323,-4.51447 1.08859,-9.42197 -0.96931,-13.66022 -2.95809,-6.46561 -10.1321,-10.88578 -17.25011,-10.07508 -2.32367,0.18107 -4.59698,0.87815 -6.65534,1.96929 -7.09265,-17.45442 -13.81751,-35.12981 -20.73588,-52.68485 -8.80012,-22.52222 -17.60193,-45.04336 -26.40121,-67.565928 -5.16278,33.977168 -10.43108,67.941908 -15.51661,101.928158 -1.91074,-2.60863 -3.85545,-5.30437 -6.61395,-7.07769 -3.90109,-2.70414 -8.91873,-3.79859 -13.55539,-2.68744 -6.54241,1.45186 -12.17139,6.90842 -13.3333,13.61108 -0.9421,4.68959 0.25679,9.53378 2.28119,13.77551 6.16436,14.31989 12.59601,28.52089 19.03063,42.71938 3.49893,7.51093 6.82456,15.14052 11.13493,22.23093 1.69757,2.67336 3.41522,5.4467 6.006,7.34795 4.48053,3.49166 10.65659,4.9021 16.11138,3.11833 6.55534,-1.98096 11.57892,-8.11184 12.36398,-14.92645 0.39416,-2.0356 0.70308,-4.08685 0.97497,-6.14218 3.30004,9.47847 6.60015,18.957 9.90021,28.43549 -7.24,3.67688 -14.21786,7.93215 -20.57777,13.00253 -7.00182,5.84555 -12.75856,13.20912 -16.65909,21.47686 -21.95688,-52.5599 -44.16159,-105.01628 -65.97008,-157.63873 -2.05461,-4.85715 -5.79222,-9.21069 -10.81119,-11.07295 -4.26893,-1.5871 -9.08105,-1.09014 -13.25424,0.55752 -3.64155,1.52854 -6.65995,4.47666 -8.22509,8.12092 -2.34176,4.99101 -2.20349,10.89759 -0.29738,16.00558 3.63492,12.56349 7.87189,24.94002 11.90096,37.37852 9.84216,29.98583 19.99557,59.86858 29.80229,89.8668 -27.29903,-11.27857 -54.483188,-22.97981 -81.793483,-34.30931 -11.421627,-4.74381 -22.82816,-9.53357 -34.375963,-13.96072 -5.051107,-1.73991 -10.896376,-1.6289 -15.588136,1.09993 -4.970105,2.76389 -8.362662,8.13298 -8.735153,13.82653 -0.478171,5.78992 2.073415,11.75896 6.687352,15.29499 2.9597,2.53047 6.516783,4.44259 9.779757,6.36708 12.174061,7.15202 24.609615,13.84123 37.020413,20.56593 31.589307,17.10895 63.328433,33.92752 95.092903,50.70989 10.81711,5.66519 21.65089,11.32025 32.77612,16.35522 4.71631,2.00913 9.71096,3.95997 14.92749,3.65886 1.58512,-0.097 3.16148,-0.37659 4.68095,-0.84101 6.7643,10.63034 16.70712,18.90392 27.63404,24.95807 0.95535,0.53048 1.91642,1.05008 2.88913,1.54783 -18.09466,12.05592 -36.16002,24.15664 -54.26298,36.19921 2.9552,-7.75325 5.86032,-15.53524 8.29096,-23.47261 1.14095,-4.23292 1.13173,-8.91508 -0.80181,-12.91937 -2.94039,-6.54727 -10.20858,-10.9335 -17.36678,-10.1261 -6.06171,0.55857 -11.61282,3.25828 -17.24069,5.37299 -12.71405,5.12416 -25.30287,10.59611 -37.55117,16.76533 -4.02706,2.09825 -8.13339,4.57992 -10.56087,8.56505 -3.3085,5.23255 -3.74136,12.29124 -0.66252,17.73107 3.18909,5.94229 9.89387,9.6391 16.57627,9.46464 2.94208,0.11341 5.88554,-0.068 8.81421,-0.34207 -9.72997,28.58903 -19.27686,57.24184 -28.89508,85.86965 14.36109,-7.25884 28.88689,-14.18139 43.32192,-21.28787 6.45153,-3.13543 12.77634,-6.5274 19.02121,-10.05807 5.26834,-2.93109 10.55761,-5.96319 15.75565,-8.93358 0.0717,6.6267 4.09683,13.114 10.14302,15.85819 1.94859,0.74715 3.87027,1.5639 5.75191,2.47199 0.59847,0.21277 1.2667,-0.20079 1.89347,-0.24758 4.79653,-1.00746 9.70576,-2.89031 12.95121,-6.74318 3.29953,-3.87155 4.52097,-8.95367 5.79709,-13.76038 6.10603,-23.31574 11.78277,-46.74295 17.68487,-70.11164 1.5551,-6.21675 3.11199,-12.43249 4.6659,-18.64957 14.82273,7.0001 31.04646,10.68781 47.33283,11.94609 -5.05165,3.15113 -8.91768,8.08462 -10.92788,13.69235 -2.96955,7.75253 -3.31054,16.19767 -3.09429,24.40999 0.41606,13.02935 2.90929,25.89623 6.10576,38.49922 3.89426,14.96939 9.5453,29.48864 16.40876,43.30147 3.60933,7.50608 7.37744,14.93435 11.2215,22.32165 -18.83635,4.61171 -37.74068,8.96142 -56.44253,14.10624 -7.86059,2.25575 -15.77209,4.85385 -22.67262,9.36258 -5.95342,4.04702 -10.74114,10.15993 -12.29058,17.30018 -1.62678,6.7189 -1.07238,13.76495 0.29173,20.4771 1.73765,7.75417 6.04425,14.6994 11.34008,20.5149 5.91631,6.61518 12.79732,12.25364 19.59904,17.91062 18.23999,14.93021 37.3232,28.8108 57.03542,41.71394 18.44212,12.09005 37.35056,23.45008 56.55546,34.2734 25.62544,14.37531 51.87558,27.68315 78.93071,39.1399 10.49771,4.35441 21.12162,8.63436 32.28486,10.93876 8.79847,1.8172 17.89819,2.38436 26.8153,1.14528 13.66904,-1.73922 26.69224,-6.58119 39.36558,-11.81378 13.99141,-5.82042 27.71031,-12.27823 41.39647,-18.78186 36.94831,-17.90419 72.54459,-38.57986 106.65319,-61.45777 18.48748,-12.48197 36.54058,-25.67709 53.39153,-40.33054 8.85969,-7.76018 17.43185,-15.97364 24.51527,-25.43432 4.24878,-5.77159 7.89801,-12.30094 8.82738,-19.52081 0.70331,-5.26151 -0.22416,-10.6694 -2.40541,-15.48776 -3.35188,-7.5767 -9.25217,-13.68035 -15.66719,-18.74784 -7.84212,-6.1838 -16.62678,-11.04372 -25.60693,-15.33846 -15.3574,-7.27658 -31.64554,-12.22586 -47.69797,-17.6706 7.25007,-15.73818 14.01367,-31.73688 19.37507,-48.23223 3.22118,-10.26761 5.88406,-20.72861 7.65855,-31.34971 1.11323,-7.51412 0.81803,-15.40874 -2.05157,-22.51631 -2.12463,-5.38319 -5.11322,-10.42148 -8.74267,-14.91701 -4.28725,-5.23749 -10.14392,-9.10897 -16.58192,-11.12208 -3.08508,-0.98981 -6.26871,-1.64544 -9.47297,-2.09968 22.59278,-5.18938 44.47962,-13.87115 64.07662,-26.35659 12.72791,-8.16068 24.51763,-18.11465 33.46311,-30.41422 6.38099,-8.82303 11.1785,-19.04157 12.50889,-29.94364 1.76761,-14.23105 -1.92682,-29.22974 -10.74907,-40.59323 -6.85257,-8.90355 -16.41627,-15.37587 -26.65342,-19.75138 -13.93472,-5.96672 -29.0113,-8.66406 -44.02773,-10.02783 -17.69671,-1.59045 -35.5088,-1.28818 -53.22401,-0.17387 0.77887,-4.90948 -0.23554,-9.89301 -1.56974,-14.61273 -1.97304,-6.68626 -4.51633,-13.19053 -7.34422,-19.55483 -3.24377,-7.34863 -6.65563,-14.62479 -9.61602,-22.09675 -7.84958,-19.06375 -15.04604,-38.39445 -21.86329,-57.85184 -4.48007,-12.55648 -8.89127,-25.17339 -14.55483,-37.25377 -3.5611,-7.512634 -7.90952,-14.888806 -14.25179,-20.378832 -4.96064,-4.293602 -11.09319,-7.179864 -17.54936,-8.279667 -4.74814,-0.863566 -9.59499,-0.92569 -14.40614,-0.869355 z M 495.7532,673.92008 c 0.29964,0.13566 0.77883,0.66281 0.23716,0.82967 -0.38804,0.0812 -1.46062,-0.49348 -0.73405,-0.75218 0.17474,-0.14081 0.29312,-0.22654 0.49689,-0.0775 z" />
      <path
         id="path791"
         style="fill:#000000;stroke-width:3.07363"
         d="m 86.647023,29.840835 c -3.107107,-0.17683 -7.399526,0.97923 -10.880827,3.105111 -12.542792,7.65937 -11.92894,19.223319 3.017119,56.980589 6.999825,17.683215 13.393821,32.505155 14.210388,32.939125 2.303261,1.22385 26.012237,-17.81485 26.888687,-21.59214 1.4033,-6.048256 -25.391072,-68.048857 -30.596564,-70.797678 -0.698345,-0.368768 -1.6031,-0.576064 -2.638803,-0.635007 z M 554.79743,91.343963 c -14.48743,0 -19.90788,3.547502 -46.10189,30.176097 -16.3262,16.59711 -33.32682,30.17608 -37.77893,30.17608 -4.45209,0 -19.21646,-9.69927 -32.81188,-21.55435 -13.59541,-11.85508 -28.61283,-21.55435 -33.36712,-21.55435 -12.68894,0 -33.33305,29.95792 -42.17379,61.20264 -10.90396,38.53667 -16.02521,50.54581 -30.54198,71.5782 -7.03719,10.19568 -12.79688,20.62169 -12.79688,23.17022 0,2.96924 5.27491,3.5554 14.6847,1.63287 78.30726,-15.99916 178.23037,-22.30571 249.04692,-15.71077 27.00888,2.51527 50.75508,3.60666 52.7723,2.41719 2.01717,-1.18947 -2.00337,-14.2589 -8.93843,-29.04025 -6.93506,-14.78135 -19.37146,-46.27485 -27.63968,-69.98502 -19.84183,-56.899291 -23.8259,-62.508557 -44.35334,-62.508557 z m -329.97086,54.151407 -3.4613,22.60891 c -1.90393,12.43536 -4.50727,30.1175 -5.78956,39.29109 l -2.33389,16.68029 -8.43025,-10.53431 c -4.63691,-5.79361 -11.28045,-14.55898 -14.76186,-19.47547 -6.17774,-8.72419 -6.17538,-8.58917 0.0697,5.60168 3.51934,7.9971 10.97561,24.61369 16.56686,36.92682 5.59125,12.31312 10.68448,21.56435 11.32126,20.56026 0.63669,-1.00411 2.77627,-18.74671 4.75625,-39.43283 1.98,-20.68607 4.1631,-37.95913 4.85223,-38.38394 0.68911,-0.42478 8.39913,19.75368 17.12963,44.84174 l 15.87611,45.61471 7.39129,-31.89402 c 5.76641,-24.87493 6.20013,-28.62248 1.96875,-17.02046 -2.98396,8.18174 -6.23485,15.36963 -7.22377,15.97346 -0.98884,0.60389 -9.93025,-19.70109 -19.86631,-45.12712 z m -98.52033,18.08827 c -0.59511,0.54419 10.4997,34.60367 35.84971,110.20971 9.86685,29.42766 17.35593,53.84871 16.64215,54.27047 -0.71375,0.42174 -28.4081,-10.74337 -61.54134,-24.81254 -33.133264,-14.06922 -70.681937,-29.73177 -83.446028,-34.80824 -16.121918,-6.41195 7.355348,7.06672 76.896078,44.14436 98.01464,52.25932 100.03078,53.18949 96.66452,44.48266 -1.89088,-4.89086 -18.82407,-45.43291 -37.63024,-90.0917 -18.80617,-44.65876 -37.34081,-88.98804 -41.18753,-98.51311 -1.3513,-3.34601 -2.10997,-5.00718 -2.24732,-4.88161 z m 555.84261,107.7415 c -26.84848,-0.12395 -59.7366,2.98292 -98.60127,9.32857 -29.8211,4.86904 -82.00439,11.17612 -115.96618,14.01174 -53.93231,4.50304 -68.89893,4.20704 -118.25489,-2.3416 -62.15366,-8.24665 -79.52251,-6.40361 -107.21219,11.3999 -18.33819,11.79085 -25.49705,31.47037 -19.62728,53.93029 7.41375,28.3678 50.43926,47.15921 97.37409,42.51905 23.13879,-2.2876 25.7116,-1.70264 27.93894,6.42378 2.20863,8.05818 4.65759,8.6704 24.5868,6.05525 14.75857,-1.93668 31.44514,-0.61121 50.05444,3.98959 32.25738,7.97502 38.19894,6.16364 59.09075,-18.01835 l 13.90924,-16.0982 v 22.52388 c 0,19.68715 -1.99191,24.62964 -15.81401,39.22683 -8.69785,9.18549 -15.81587,18.82854 -15.81587,21.43718 0,2.60859 6.60816,6.38116 14.68469,8.37794 19.68582,4.86692 20.33389,18.86724 1.04273,22.63159 -12.70074,2.47835 -40.18148,16.79073 -37.32909,19.44144 0.69888,0.64936 12.0607,-0.86167 25.24744,-3.35835 17.92155,-3.3931 25.33042,-3.24683 29.33362,0.57263 6.71982,6.41135 -2.77979,13.06173 -19.424,13.60542 -6.21272,0.20304 -15.35309,1.88308 -20.31427,3.73067 -7.05244,2.62635 -4.36605,4.02894 12.31882,6.41622 35.67751,5.10459 33.63348,16.70751 -5.30396,30.06647 -12.58218,4.31685 -24.20614,9.89616 -25.82904,12.40155 -1.62292,2.50543 5.41977,12.00957 15.65402,21.11778 14.38122,12.79888 22.27787,16.56122 34.74487,16.56122 19.54671,0 23.60182,7.37401 13.90735,25.26045 -3.9074,7.20932 -7.1033,15.14972 -7.1033,17.63847 0,9.6199 9.41885,3.77977 20.20886,-12.52817 26.43316,-39.95081 39.20069,-68.82924 45.38666,-102.63687 7.80675,-42.66551 11.98039,-49.66191 39.19056,-65.71762 23.47129,-13.84959 28.79752,-21.28349 40.09211,-56.00729 5.37777,-16.53331 10.25355,-24.0628 16.1302,-24.88058 61.76316,-8.59451 114.60913,-45.25199 114.60913,-79.50067 0,-31.4004 -29.84333,-47.30751 -88.90997,-47.58021 z M 179.92364,411.27438 c -6.14464,1.01905 -51.15352,20.63774 -51.65618,22.73365 -0.18015,0.75111 6.18557,0.53907 14.14452,-0.47437 20.12428,-2.56252 21.05206,-1.54954 14.87667,16.26829 -2.8841,8.32161 -8.13937,23.77904 -11.67886,34.34522 l -6.43515,19.20897 9.19064,-4.45828 c 5.05465,-2.4518 20.53347,-11.06769 34.39667,-19.15039 l 25.20602,-14.69778 -1.52643,13.90024 c -2.79251,25.46144 -2.38689,24.96884 5.55051,-6.75262 l 7.88818,-31.52737 -32.36016,21.59781 c -17.79824,11.8788 -32.56459,20.99075 -32.81752,20.24843 -0.25294,-0.74233 5.60252,-16.7065 13.01333,-35.47538 7.4108,-18.76888 13.21216,-34.83736 12.89287,-35.71162 -0.0395,-0.10809 -0.27547,-0.12274 -0.68511,-0.0548 z m 153.37808,16.35523 c -12.37902,-0.52866 -28.18349,1.87818 -32.21147,6.50882 -8.57229,9.85486 -3.03442,51.31649 11.22526,83.99676 6.72341,15.40872 21.7104,44.50184 33.29559,64.65549 27.9483,48.61898 27.8957,49.47737 -1.17258,19.49246 l -24.98393,-25.76505 -32.87211,7.98106 c -45.72436,11.10899 -49.48841,13.4468 -47.82219,29.7055 1.15089,11.2303 8.25769,18.91063 40.79792,44.14437 44.20949,34.28273 114.21899,75.23641 168.43921,98.52066 45.92773,19.7232 55.02754,18.84655 120.5135,-11.59456 92.7172,-43.09956 193.5116,-115.55176 193.5116,-139.095 -5e-5,-12.45828 -22.98288,-28.22809 -58.55245,-40.17934 l -24.1106,-8.10769 -26.42191,34.00692 c -14.53311,18.70108 -27.49219,33.99936 -28.79533,33.99936 -1.30312,0 3.94486,-10.18377 11.65817,-22.63159 24.01227,-38.75113 49.95975,-94.48725 57.42314,-123.34266 6.30517,-24.37749 6.37264,-28.9888 0.55713,-38.915 -5.42861,-9.26576 -10.37412,-11.49046 -27.91448,-12.57164 -12.80705,-0.78946 -21.32123,0.50161 -21.32123,3.23363 0,2.50091 5.98329,4.54711 13.29189,4.54711 14.65748,0 19.70667,4.52772 15.82153,14.1875 -1.40271,3.48767 -20.31649,18.99765 -42.03263,34.46994 -21.71613,15.4723 -41.87816,30.88046 -44.80319,34.24317 -2.92506,3.36265 -8.44462,20.5192 -12.2661,38.12502 -9.06139,41.74637 -29.14984,80.36917 -56.43501,108.51448 l -21.9574,22.6486 -18.38128,-16.99024 C 453.53165,649.00031 424.30131,594.57834 415.929,556.26777 c -3.69561,-16.91062 -9.36725,-34.35618 -12.60301,-38.76381 -3.23577,-4.40764 -19.92322,-17.47555 -37.08253,-29.04025 -53.98351,-36.38274 -63.29581,-52.24449 -30.66621,-52.24449 9.39221,0 14.67559,-1.75055 13.0171,-4.31088 -1.67519,-2.58608 -7.86522,-3.96154 -15.29263,-4.27873 z" />
    </g>
  </g>
</svg>
