<?xml version="1.0" encoding="UTF-8" standalone="no"?>
<!-- Created with Inkscape (http://www.inkscape.org/) -->

<svg
   version="1.1"
   id="svg228"
   width="1200"
   height="800"
   viewBox="0 0 1200 800.00002"
   sodipodi:docname="shadowspotter.svg"
   inkscape:version="1.2.2 (b0a8486541, 2022-12-01)"
   xml:space="preserve"
   xmlns:inkscape="http://www.inkscape.org/namespaces/inkscape"
   xmlns:sodipodi="http://sodipodi.sourceforge.net/DTD/sodipodi-0.dtd"
   xmlns="http://www.w3.org/2000/svg"
   xmlns:svg="http://www.w3.org/2000/svg"><defs
     id="defs232"><rect
       x="332.60477"
       y="310.37125"
       width="511.38132"
       height="184.69443"
       id="rect1428" /></defs><sodipodi:namedview
     id="namedview230"
     pagecolor="#505050"
     bordercolor="#ffffff"
     borderopacity="1"
     inkscape:showpageshadow="0"
     inkscape:pageopacity="0"
     inkscape:pagecheckerboard="1"
     inkscape:deskcolor="#505050"
     showgrid="false"
     inkscape:zoom="0.44501079"
     inkscape:cx="546.05418"
     inkscape:cy="365.15969"
     inkscape:window-width="1366"
     inkscape:window-height="691"
     inkscape:window-x="0"
     inkscape:window-y="24"
     inkscape:window-maximized="1"
     inkscape:current-layer="g234" /><g
     inkscape:groupmode="layer"
     inkscape:label="Image"
     id="g234"><path
       style="fill:#000000;fill-opacity:1;fill-rule:evenodd;stroke:#0000ff;stroke-width:4.31013;stroke-linecap:round;stroke-linejoin:bevel;stroke-dasharray:none;stroke-opacity:1"
       d="m 382.08426,236.71627 v -13.82733 h 15.45339 15.4534 v 13.82733 13.82734 h -15.4534 -15.45339 z"
       id="path1332" /><path
       style="fill:#00ff00;fill-rule:evenodd;stroke:none;stroke-width:9.8059;stroke-linecap:round;stroke-linejoin:bevel"
       d="m 131.73932,778.6806 c 0,-4.03411 7.72884,-24.92211 30.09739,-81.34139 26.60546,-67.10584 30.5765,-80.58052 30.78557,-104.46263 l 0.15794,-18.04181 -6.26912,-4.95245 c -6.17676,-4.87948 -6.71177,-4.97467 -36.31548,-6.46091 -31.17734,-1.56527 -43.39692,-4.00321 -54.329464,-10.83932 -8.440145,-5.27764 -10.32742,-11.41635 -11.746422,-38.20737 l -1.238221,-23.37783 -7.250551,-8.66976 c -3.987803,-4.76835 -7.250551,-9.43673 -7.250551,-10.3742 0,-0.93743 1.536334,-2.90803 3.414074,-4.37905 4.110506,-3.2202 3.074648,-4.74925 -7.625296,-11.25587 -8.711026,-5.29714 -9.023088,-7.69996 -3.032812,-23.35208 2.167247,-5.66286 3.548153,-11.00606 3.068677,-11.87376 -0.479474,-0.86773 -7.385594,-4.95911 -15.346936,-9.09198 -7.961343,-4.13287 -14.475167,-8.00057 -14.475167,-8.59489 0,-0.5943 4.39571,-8.5921 9.768247,-17.77287 5.372538,-9.18077 18.588295,-33.02585 29.368351,-52.98905 l 19.600103,-36.29674 -6.703383,-19.0073 -6.703381,-19.00729 6.831816,-17.28945 c 3.7575,-9.50919 12.356618,-30.09433 19.109146,-45.74473 l 12.27734,-28.45529 -6.23132,-13.59324 c -5.30336,-11.56895 -6.22907,-15.18194 -6.21622,-24.26142 0.0338,-23.89587 18.42044,-48.439842 49.42979,-65.982913 7.76521,-4.393055 9.05888,-4.635847 15.08923,-2.831898 7.24117,2.166161 18.07667,2.518572 26.9558,0.876698 l 5.72359,-1.058372 0.45777,-9.54519 0.45776,-9.54519 12.36271,-4.013213 c 32.42809,-10.526883 82.92659,-20.091129 86.27947,-16.34104 3.54706,3.967292 -2.10434,6.162928 -17.38406,6.7539 l -15.17738,0.587015 0.77118,15.832941 c 0.42416,8.708116 1.02684,16.154928 1.33927,16.548466 0.31246,0.393538 7.87169,1.078832 16.79831,1.522873 l 16.23022,0.807352 V 52.203874 c 0,-12.395298 0.11897,-12.46793 20.47574,-12.503462 l 13.52172,-0.0236 v -8.540076 c 0,-4.697041 0.52798,-8.905041 1.17328,-9.35111 1.78128,-1.231313 27.7672,2.271444 34.15659,4.604118 5.16145,1.884365 5.68487,2.68902 6.39428,9.830236 l 0.77268,7.777873 15.2672,0.497394 c 11.99656,0.390837 15.82676,-0.06898 17.87918,-2.146443 2.36704,-2.39593 3.77432,-2.015143 15.00808,4.060976 6.81787,3.687647 15.4619,8.906432 19.20898,11.597301 l 6.81283,4.892489 -6.95402,1.223627 c -3.82471,0.672996 -27.19252,1.28128 -51.92844,1.351744 l -44.97442,0.128112 -0.99942,13.223903 c -0.54969,7.273145 -0.99943,42.273574 -0.99943,77.778734 v 64.55484 h -66.44959 -66.44957 v 16.41994 16.41996 l 60.65455,0.0191 c 59.54744,0.0186 72.24461,0.66261 72.24461,3.66395 0,0.82626 -0.98785,1.50227 -2.19522,1.50227 -2.11782,0 -2.72238,1.98149 -4.87794,15.98784 l -0.9975,6.48156 h -28.4653 c -21.4012,0 -28.62387,0.53619 -29.10428,2.16052 -0.35145,1.1883 -0.85119,8.96629 -1.11051,17.28441 l -0.4715,15.12391 27.81611,0.0188 c 15.29885,0.0108 30.34557,0.48668 33.43716,1.05854 5.50929,1.0191 5.56307,1.10461 2.70434,4.30201 -2.33496,2.61159 -2.90579,5.7617 -2.86195,15.79329 0.0333,7.58797 0.92592,14.2355 2.26325,16.85206 1.21465,2.37656 2.23313,8.79331 2.26323,14.25942 l 0.0547,9.93835 h 50.22352 50.22352 v -8.64208 -8.64208 h 15.45339 15.45339 v 8.64208 8.64208 l 13.52171,0.20449 c 20.63202,0.31204 8.20203,2.80183 -15.21599,3.04786 -10.70611,0.11245 -25.83111,0.70983 -33.61113,1.3275 l -14.14544,1.12304 v 16.16112 16.16115 l 22.02109,0.0995 c 12.11159,0.0548 24.73625,0.63923 28.05479,1.29878 l 6.03372,1.19918 -9.73649,12.52855 -9.7365,12.52858 H 405.0385 343.4507 l 0.0237,15.12364 c 0.0124,8.31802 0.56817,16.08244 1.23368,17.25429 0.89629,1.5782 11.53853,2.25042 41.04498,2.59262 l 39.83497,0.46199 -13.4808,13.39523 -13.48079,13.39522 H 371.0386 343.45074 v 14.55017 c 0,8.00261 0.42209,15.78047 0.93801,17.28417 0.7716,2.24898 3.77096,2.734 16.90753,2.734 8.78323,0 16.262,0.58333 16.61946,1.2963 0.35749,0.71297 -0.0407,7.90751 -0.88473,15.98786 -2.97097,28.44057 3.3533,51.38936 21.78089,79.03596 l 9.47843,14.22036 -15.03472,5.09602 c -8.26909,2.80282 -30.68128,10.28809 -49.80486,16.63392 -59.53893,19.75699 -116.3085,43.4409 -152.2159,63.50356 -23.15377,12.93678 -31.59161,18.95092 -44.09473,31.42893 -11.87961,11.85578 -15.40083,14.27022 -15.40083,10.56014 z M 397.53765,399.18741 v -17.28418 l -18.9304,0.15138 c -10.41172,0.0834 -22.40742,0.66661 -26.6571,1.29631 l -7.72669,1.14489 -0.45773,13.79214 c -0.38119,11.48601 -0.01,14.15924 2.22703,15.98784 1.90271,1.55611 9.80105,2.19572 27.11483,2.19572 l 24.43006,10e-6 z M 185.82619,361.16225 v -17.28417 h -26.10543 c -22.37918,0 -26.23933,0.39024 -27.04343,2.73399 -0.51591,1.50369 -0.93801,9.28156 -0.93801,17.28416 v 14.55018 h 27.04344 27.04343 z m 131.35382,0 v -17.28417 h -49.25117 -49.25118 l -1.04784,11.8937 c -1.29367,14.68422 -0.13437,20.5139 4.27082,21.47612 1.83244,0.40027 24.01992,0.83368 49.30554,0.96313 l 45.97383,0.23538 z m -66.44957,-62.22299 v -17.28417 h -58.55757 c -51.97126,0 -58.66305,0.30751 -59.49554,2.73399 -0.51591,1.5037 -0.93801,9.28156 -0.93801,17.28417 v 14.55017 h 59.49556 59.49556 z m -64.90425,-61.35879 v -16.41994 h -27.04343 -27.04344 v 16.41994 16.41996 h 27.04344 27.04343 z M 317.18001,175.3575 v -16.41996 h -92.72034 -92.72035 v 16.41996 16.41994 h 92.72035 92.72034 z M 185.82619,113.1345 V 96.714549 h -27.04343 -27.04344 v 16.419951 16.41996 h 27.04344 27.04343 z m 131.35382,0 V 96.714549 H 266.9565 216.73298 v 16.419951 16.41996 h 50.22352 50.22351 z"
       id="path417" /><path
       style="fill:#000000;fill-rule:evenodd;stroke:#0000ff;stroke-width:4.31013;stroke-linecap:round;stroke-linejoin:bevel;stroke-dasharray:none;stroke-opacity:1"
       d="m 519.06692,194.98073 c -0.54604,-5.84321 -0.99281,-19.84338 -0.99281,-31.11148 v -20.48746 h 32.68116 32.68118 l -0.99245,14.25943 c -0.54585,7.84269 -0.99662,21.84287 -1.00172,31.1115 l -0.01,16.85206 H 550.746 520.05937 Z"
       id="path1042" /><path
       style="fill:#000000;fill-rule:evenodd;stroke:#0000ff;stroke-width:4.31013;stroke-linecap:round;stroke-linejoin:bevel;stroke-dasharray:none;stroke-opacity:1"
       d="m 445.44317,283.38351 v -31.1115 h 31.67945 31.67946 v 31.1115 31.11149 h -31.67946 -31.67945 z"
       id="path1113" /><path
       style="fill:#000000;fill-rule:evenodd;stroke:#0000ff;stroke-width:4.31013;stroke-linecap:round;stroke-linejoin:bevel;stroke-dasharray:none;stroke-opacity:1"
       d="m 428.44444,157.85039 v -14.91448 l 14.29439,1.24417 c 7.86191,0.6843 14.38367,1.36796 14.49279,1.51925 0.10907,0.1513 0.69001,6.30294 1.29086,13.67031 l 1.09244,13.39522 h -15.58523 -15.58525 z"
       id="path1115" /><path
       style="fill:#000000;fill-rule:evenodd;stroke:#0000ff;stroke-width:4.31013;stroke-linecap:round;stroke-linejoin:bevel;stroke-dasharray:none;stroke-opacity:1"
       d="m 382.08426,345.6065 v -15.55574 h 15.45339 15.4534 v 15.55574 15.55575 h -15.4534 -15.45339 z"
       id="path1117" /><path
       style="fill:#000000;fill-rule:evenodd;stroke:#0000ff;stroke-width:4.31013;stroke-linecap:round;stroke-linejoin:bevel;stroke-dasharray:none;stroke-opacity:1"
       d="m 611.10353,89.4552 c -1.10361,-1.234357 -1.8544,-7.182531 -1.8544,-14.691538 V 62.146223 h 15.45338 15.45339 v 12.617439 c 0,7.509007 -0.75079,13.457181 -1.8544,14.691538 -2.47759,2.77111 -24.72038,2.77111 -27.19797,0 z"
       id="path1188" /><path
       style="fill:#000000;fill-rule:evenodd;stroke:#0000ff;stroke-width:4.31013;stroke-linecap:round;stroke-linejoin:bevel;stroke-dasharray:none;stroke-opacity:1"
       d="m 592.2504,251.40781 v -14.69154 h 15.45338 15.45339 v 14.69154 14.69154 H 607.70378 592.2504 Z"
       id="path1190" /><path
       style="fill:#000000;fill-rule:evenodd;stroke:#0000ff;stroke-width:4.31013;stroke-linecap:round;stroke-linejoin:bevel;stroke-dasharray:none;stroke-opacity:1"
       d="m 520.23491,89.516373 c -0.61176,-1.10711 -1.43966,-7.718303 -1.83977,-14.691539 l -0.72748,-12.678611 h 16.07298 16.07299 L 549.2177,75.54145 c -0.32775,7.367375 -1.38437,13.966656 -2.34803,14.665071 -2.93293,2.125627 -25.40054,1.543455 -26.63476,-0.690148 z"
       id="path1261" /><g
       id="g361"
       transform="matrix(1.4804504,0,0,2.0023706,25.350076,-250.11584)"><path
         d="m 372.71612,311.21852 -7.37422,16.38606 -1.26673,-0.81675 q 0.0453,-0.51047 0.0453,-0.81675 0,-1.7356 -2.62394,-3.72643 -8.05283,-6.32981 -18.91057,-6.32981 -4.7955,0 -8.45999,1.32721 -2.66919,1.02095 -4.34309,3.06282 -1.62866,2.04188 -1.62866,4.44108 0,3.93061 4.20737,5.35993 2.17155,0.71465 9.31956,1.53141 l 7.10277,0.81675 q 6.33368,0.7657 10.22438,2.09292 3.93593,1.32722 6.96704,3.72643 3.07636,2.5013 4.84075,6.58505 1.80962,4.08376 1.80962,8.72902 0,7.35075 -4.20737,13.06801 -3.80021,5.20679 -11.8078,7.70809 -5.97175,1.88873 -12.80308,1.88873 -12.2602,0 -24.20372,-6.6361 -2.53347,-1.32722 -3.03111,-1.32722 -0.58813,0 -1.85486,1.12304 l -1.31198,-0.7657 6.6956,-17.10073 1.31198,0.71467 q 0,0.45942 0,0.6636 0,2.29711 1.94535,4.2369 2.94063,2.96071 9.09335,5.10469 6.15272,2.14397 11.67208,2.14397 6.01699,0 10.2696,-2.29711 2.35252,-1.27617 3.75497,-3.3691 1.40246,-2.14397 1.40246,-4.44108 0,-3.47119 -3.30256,-4.95155 -2.30727,-1.02094 -9.31956,-1.88874 l -6.96705,-0.81675 q -7.01229,-0.81675 -9.90768,-1.53141 -2.8954,-0.7657 -5.7908,-2.3992 -4.11689,-2.29711 -6.46941,-6.89133 -2.12631,-4.13481 -2.12631,-9.49473 0,-8.83112 5.38363,-14.59942 7.05754,-7.60599 21.1726,-7.60599 5.92652,0 11.0387,1.37826 5.11218,1.32723 12.75784,4.95156 2.62396,1.17407 3.21208,1.17407 0.95006,0 2.21679,-1.17407 z"
         style="font-size:88px;line-height:0.75;font-family:'Copperplate Gothic Bold';-inkscape-font-specification:'Copperplate Gothic Bold, ';white-space:pre;fill:#ff0000;stroke-width:1.1184"
         id="path1482" /><path
         d="m 433.97186,344.6032 h -35.60433 v 25.11509 q 0,1.5314 0.63336,2.3992 0.67861,0.81675 2.26204,1.27618 v 1.6335 h -19.27249 v -1.6335 q 1.62866,-0.51047 2.26203,-1.32723 0.63336,-0.81675 0.63336,-2.34815 v -59.06128 q 0,-1.53142 -0.63336,-2.34817 -0.63337,-0.81675 -2.26203,-1.32721 v -1.6335 h 19.27249 v 1.6335 q -1.62867,0.45941 -2.26204,1.32721 -0.63336,0.81675 -0.63336,2.34817 v 22.46064 h 35.60433 v -22.46064 q 0,-1.53142 -0.63337,-2.34817 -0.63336,-0.8678 -2.26203,-1.32721 v -1.6335 h 19.27249 v 1.6335 q -1.62865,0.51046 -2.26203,1.32721 -0.63336,0.81675 -0.63336,2.34817 v 59.06128 q 0,1.5314 0.63336,2.34815 0.63338,0.81676 2.26203,1.32723 v 1.6335 h -19.27249 v -1.6335 q 1.58343,-0.45943 2.21679,-1.27618 0.67861,-0.8678 0.67861,-2.3992 z"
         style="font-size:88px;line-height:0.75;font-family:'Copperplate Gothic Bold';-inkscape-font-specification:'Copperplate Gothic Bold, ';white-space:pre;fill:#ff0000;stroke-width:1.1184"
         id="path1484" /><path
         d="m 506.71871,357.26284 h -28.04915 l -4.16214,9.801 q -0.85956,2.04188 -0.85956,3.21597 0,2.24606 3.03111,3.11386 v 1.6335 h -20.44874 v -1.6335 q 1.80962,-0.40838 2.75967,-1.42932 0.95006,-1.02093 2.17155,-3.98166 l 22.71078,-53.54822 q 1.08577,-2.55233 1.08577,-4.08375 0,-2.34816 -2.62395,-3.36909 v -1.6335 h 21.89643 v 1.6335 q -2.66918,0.86779 -2.66918,3.01176 0,1.48037 0.85956,3.3691 l 23.5251,53.70135 q 1.49294,3.42015 2.62396,4.69633 1.13101,1.22512 3.03112,1.6335 v 1.6335 h -22.71078 v -1.6335 q 2.98588,-0.56152 2.98588,-3.16491 0,-1.07199 -0.9048,-3.16492 z m -3.89068,-9.54577 -9.99817,-24.8088 -10.13389,24.8088 z"
         style="font-size:88px;line-height:0.75;font-family:'Copperplate Gothic Bold';-inkscape-font-specification:'Copperplate Gothic Bold, ';white-space:pre;fill:#ff0000;stroke-width:1.1184"
         id="path1486" /><path
         d="m 539.74434,369.66724 v -58.95919 q 0,-1.58246 -0.63337,-2.39921 -0.63336,-0.81675 -2.26203,-1.32721 v -1.6335 h 34.42809 q 11.31014,0 17.37238,2.90966 8.68619,4.2369 12.84833,13.98686 3.30255,7.65704 3.30255,17.91747 0,18.01956 -9.81719,27.46324 -4.1169,3.98166 -9.63625,5.71726 -5.51936,1.68455 -14.06982,1.68455 h -34.42809 v -1.6335 q 1.62867,-0.51047 2.26203,-1.32723 0.63337,-0.81675 0.63337,-2.3992 z m 13.4817,-6.12563 h 16.91997 q 8.09807,0 12.16972,-2.5013 8.73143,-5.35993 8.73143,-20.87819 0,-11.23032 -4.70502,-17.20281 -2.62395,-3.31804 -6.33368,-4.69631 -3.70973,-1.42932 -9.86245,-1.42932 h -16.91997 z"
         style="font-size:88px;line-height:0.75;font-family:'Copperplate Gothic Bold';-inkscape-font-specification:'Copperplate Gothic Bold, ';white-space:pre;fill:#ff0000;stroke-width:1.1184"
         id="path1488" /><path
         d="m 648.45746,304.123 q 16.15088,0 25.60617,9.85205 9.99816,10.31148 9.99816,26.64649 0,10.0052 -4.79549,18.68317 -9.3648,16.94758 -30.71836,16.94758 -16.01516,0 -25.47045,-9.85205 -5.06694,-5.25783 -7.6909,-12.60859 -2.30726,-6.48296 -2.30726,-13.62953 0,-10.46461 4.75025,-19.14259 9.09336,-16.59025 30.62788,-16.89653 z m 0.0453,11.79184 q -8.82191,0 -14.70319,5.92144 -6.96704,6.99343 -6.96704,18.32584 0,11.33242 6.96704,18.32584 5.88128,5.92145 14.79367,5.92145 8.9124,0 14.74843,-5.92145 3.48352,-3.52223 5.33839,-8.62692 1.62866,-4.54317 1.62866,-9.39263 0,-11.84289 -6.96705,-18.63213 -5.92652,-5.81935 -14.83891,-5.92144 z"
         style="font-size:88px;line-height:0.75;font-family:'Copperplate Gothic Bold';-inkscape-font-specification:'Copperplate Gothic Bold, ';white-space:pre;fill:#ff0000;stroke-width:1.1184"
         id="path1490" /><path
         d="m 737.71712,325.97108 -14.11506,40.22498 q -1.22149,3.06281 -1.22149,3.87956 0,2.34815 3.3478,3.31805 v 1.6335 h -19.86062 v -1.6335 q 3.03113,-0.66361 3.03113,-3.4712 0,-0.7657 -1.26675,-4.54316 l -17.68906,-51.40426 q -1.31197,-3.82851 -2.39775,-5.15574 -1.04053,-1.37827 -3.07636,-1.83768 v -1.6335 H 705.913 v 1.6335 q -2.85016,0.71466 -2.85016,3.01176 0,1.17408 0.72385,3.3691 l 12.21495,36.85588 13.21026,-37.06007 q 0.85956,-2.39921 0.85956,-3.16491 0,-2.34815 -3.03111,-3.01176 v -1.6335 h 22.43933 v 1.6335 q -3.07637,0.91884 -3.07637,3.31804 0,0.81675 0.76909,3.06282 l 12.57688,37.00901 12.16973,-36.39645 q 0.95004,-2.70548 0.95004,-4.03271 0,-2.24605 -3.25732,-2.96071 v -1.6335 h 21.21783 v 1.6335 q -2.26202,0.71466 -3.12159,1.83768 -0.85958,1.12303 -2.26204,5.15574 l -17.68906,51.40426 q -1.26673,3.67537 -1.26673,4.9005 0,2.50129 3.21208,3.11386 v 1.6335 h -20.13207 v -1.6335 q 3.16685,-0.56152 3.16685,-3.42015 0,-0.96988 -1.40246,-4.59421 z"
         style="font-size:88px;line-height:0.75;font-family:'Copperplate Gothic Bold';-inkscape-font-specification:'Copperplate Gothic Bold, ';white-space:pre;fill:#ff0000;stroke-width:1.1184"
         id="path1492" /></g><g
       id="g370"
       transform="matrix(1.5253047,0,0,1.9561566,-69.336353,-279.9458)"><path
         d="m 372.71612,410.03959 -7.37422,16.38606 -1.26673,-0.81675 q 0.0453,-0.51047 0.0453,-0.81675 0,-1.7356 -2.62394,-3.72643 -8.05283,-6.32982 -18.91057,-6.32982 -4.7955,0 -8.45999,1.32722 -2.66919,1.02095 -4.34309,3.06282 -1.62866,2.04188 -1.62866,4.44108 0,3.93061 4.20737,5.35993 2.17155,0.71466 9.31956,1.53141 l 7.10277,0.81675 q 6.33368,0.7657 10.22438,2.09292 3.93593,1.32723 6.96704,3.72643 3.07636,2.5013 4.84075,6.58505 1.80962,4.08376 1.80962,8.72902 0,7.35075 -4.20737,13.06801 -3.80021,5.20678 -11.8078,7.70808 -5.97175,1.88875 -12.80308,1.88875 -12.2602,0 -24.20372,-6.63611 -2.53347,-1.32722 -3.03111,-1.32722 -0.58813,0 -1.85486,1.12303 l -1.31198,-0.7657 6.6956,-17.10072 1.31198,0.71466 q 0,0.45942 0,0.66361 0,2.29711 1.94535,4.23689 2.94063,2.96072 9.09335,5.1047 6.15272,2.14397 11.67208,2.14397 6.01699,0 10.2696,-2.29712 2.35252,-1.27617 3.75497,-3.36909 1.40246,-2.14397 1.40246,-4.44109 0,-3.47118 -3.30256,-4.95154 -2.30727,-1.02094 -9.31956,-1.88874 l -6.96705,-0.81675 q -7.01229,-0.81675 -9.90768,-1.53141 -2.8954,-0.7657 -5.7908,-2.3992 -4.11689,-2.29712 -6.46941,-6.89133 -2.12631,-4.1348 -2.12631,-9.49473 0,-8.83112 5.38363,-14.59942 7.05754,-7.606 21.1726,-7.606 5.92652,0 11.0387,1.37827 5.11218,1.32723 12.75784,4.95156 2.62396,1.17407 3.21208,1.17407 0.95006,0 2.21679,-1.17407 z"
         style="font-size:88px;line-height:0.75;font-family:'Copperplate Gothic Bold';-inkscape-font-specification:'Copperplate Gothic Bold, ';white-space:pre;fill:#ff0000;stroke-width:1.1184"
         id="path1494" /><path
         d="m 398.36753,445.56824 v 22.97112 q 0,1.53141 0.63336,2.3992 0.67861,0.81675 2.26204,1.27618 v 1.6335 h -19.27249 v -1.6335 q 1.62866,-0.51047 2.26203,-1.32722 0.63336,-0.81675 0.63336,-2.34816 v -59.01024 q 0,-1.58246 -0.63336,-2.39921 -0.63337,-0.81675 -2.26203,-1.32722 v -1.6335 h 38.54498 q 6.74084,0 10.67677,1.02094 3.98117,1.02094 7.01229,3.52224 3.1216,2.60339 4.88598,6.84028 1.76438,4.39004 1.76438,9.29055 0,7.04446 -3.34779,12.35334 -2.8954,4.54318 -7.69091,6.48297 -4.75026,1.88873 -13.30072,1.88873 z m 0,-11.48555 h 20.58446 q 6.15272,0 8.64095,-1.48036 1.58343,-0.9699 2.53347,-3.06282 0.99529,-2.14397 0.99529,-4.69631 0,-2.5013 -0.99529,-4.59423 -0.95004,-2.14397 -2.53347,-3.11385 -2.44299,-1.48037 -8.64095,-1.48037 h -20.58446 z"
         style="font-size:88px;line-height:0.75;font-family:'Copperplate Gothic Bold';-inkscape-font-specification:'Copperplate Gothic Bold, ';white-space:pre;fill:#ff0000;stroke-width:1.1184"
         id="path1496" /><path
         d="m 486.81286,402.94406 q 16.15089,0 25.60617,9.85206 9.99817,10.31148 9.99817,26.64649 0,10.00519 -4.79551,18.68317 -9.36479,16.94759 -30.71835,16.94759 -16.01517,0 -25.47044,-9.85206 -5.06694,-5.25783 -7.6909,-12.60859 -2.30727,-6.48295 -2.30727,-13.62953 0,-10.46461 4.75026,-19.14259 9.09336,-16.59025 30.62787,-16.89654 z m 0.0453,11.79184 q -8.82191,0 -14.70318,5.92145 -6.96706,6.99343 -6.96706,18.32584 0,11.33241 6.96706,18.32584 5.88127,5.92145 14.79367,5.92145 8.91239,0 14.74842,-5.92145 3.48353,-3.52223 5.3384,-8.62693 1.62865,-4.54318 1.62865,-9.39263 0,-11.84289 -6.96705,-18.63212 -5.92651,-5.81935 -14.83891,-5.92145 z"
         style="font-size:88px;line-height:0.75;font-family:'Copperplate Gothic Bold';-inkscape-font-specification:'Copperplate Gothic Bold, ';white-space:pre;fill:#ff0000;stroke-width:1.1184"
         id="path1498" /><path
         d="m 563.99329,415.65475 v 52.83356 q 0,1.58246 0.63337,2.39921 0.63337,0.81675 2.26203,1.32722 v 1.6335 H 547.6162 v -1.6335 q 1.62866,-0.51047 2.26203,-1.32722 0.63337,-0.81675 0.63337,-2.39921 v -52.83356 h -19.18201 q -1.35722,0 -2.08106,0.71465 -0.72385,0.66362 -1.17626,2.5013 h -1.4477 v -18.01956 h 1.4477 q 0.49765,1.88874 1.17626,2.6034 0.72384,0.71465 2.08106,0.71465 h 51.80047 q 1.40245,0 2.1263,-0.71465 0.72385,-0.71466 1.17626,-2.6034 h 1.4477 v 18.01956 h -1.4477 q -0.45241,-1.83768 -1.17626,-2.5013 -0.72385,-0.71465 -2.1263,-0.71465 z"
         style="font-size:88px;line-height:0.75;font-family:'Copperplate Gothic Bold';-inkscape-font-specification:'Copperplate Gothic Bold, ';white-space:pre;fill:#ff0000;stroke-width:1.1184"
         id="path1500" /><path
         d="m 626.47054,415.65475 v 52.83356 q 0,1.58246 0.63337,2.39921 0.63336,0.81675 2.26203,1.32722 v 1.6335 h -19.27249 v -1.6335 q 1.62865,-0.51047 2.26203,-1.32722 0.63336,-0.81675 0.63336,-2.39921 v -52.83356 h -19.182 q -1.35722,0 -2.08107,0.71465 -0.72384,0.66362 -1.17625,2.5013 h -1.4477 v -18.01956 h 1.4477 q 0.49764,1.88874 1.17625,2.6034 0.72385,0.71465 2.08107,0.71465 h 51.80046 q 1.40246,0 2.12631,-0.71465 0.72385,-0.71466 1.17626,-2.6034 h 1.4477 v 18.01956 h -1.4477 q -0.45241,-1.83768 -1.17626,-2.5013 -0.72385,-0.71465 -2.12631,-0.71465 z"
         style="font-size:88px;line-height:0.75;font-family:'Copperplate Gothic Bold';-inkscape-font-specification:'Copperplate Gothic Bold, ';white-space:pre;fill:#ff0000;stroke-width:1.1184"
         id="path1502" /><path
         d="m 672.88737,443.27114 v 19.09154 h 39.72124 q 1.35721,0 2.08106,-0.71465 0.72385,-0.71467 1.17626,-2.55235 h 1.4477 v 18.01956 h -1.4477 q -0.45241,-1.83769 -1.17626,-2.55235 -0.72385,-0.71465 -2.08106,-0.71465 h -56.09832 v -1.6335 q 1.62865,-0.51047 2.26202,-1.32722 0.63337,-0.81675 0.63337,-2.39921 v -58.95919 q 0,-1.58246 -0.63337,-2.39921 -0.63337,-0.81675 -2.26202,-1.32722 v -1.6335 h 55.01254 q 1.35722,0 2.08107,-0.71465 0.72385,-0.76571 1.17625,-2.6034 h 1.4477 v 18.01956 h -1.4477 q -0.4524,-1.78663 -1.17625,-2.5013 -0.72385,-0.71465 -2.08107,-0.71465 h -38.63546 v 16.5392 h 25.06328 q 1.35722,0 2.08107,-0.71466 0.72385,-0.71465 1.17625,-2.55234 h 1.4477 v 17.61119 h -1.4477 q -0.4524,-1.78665 -1.17625,-2.5013 -0.72385,-0.7657 -2.08107,-0.7657 z"
         style="font-size:88px;line-height:0.75;font-family:'Copperplate Gothic Bold';-inkscape-font-specification:'Copperplate Gothic Bold, ';white-space:pre;fill:#ff0000;stroke-width:1.1184"
         id="path1504" /><path
         d="m 743.28172,445.4151 v 23.12426 q 0,1.53141 0.63336,2.3992 0.67861,0.81675 2.26203,1.27618 v 1.6335 h -19.27249 v -1.6335 q 1.62867,-0.51047 2.26204,-1.32722 0.63336,-0.81675 0.63336,-2.34816 v -59.01024 q 0,-1.58246 -0.63336,-2.39921 -0.63337,-0.81675 -2.26204,-1.32722 v -1.6335 h 38.63546 q 7.05753,0 11.17442,0.91885 4.16214,0.91884 7.23849,3.21595 3.57402,2.65445 5.3384,7.19762 1.6739,4.39004 1.6739,9.39264 0,17.04966 -16.78426,19.95934 l 11.98875,19.24469 q 3.16685,5.05364 4.61455,6.53401 1.49293,1.4293 3.61925,1.58245 v 1.6335 h -22.34886 v -1.6335 q 2.30728,-0.40838 2.30728,-1.8377 0,-0.91884 -2.12631,-4.44108 L 759.74928,445.4151 Z m 0,-11.48556 h 20.81066 q 4.61455,0 6.51464,-0.30628 1.90011,-0.30628 3.48353,-1.27617 3.43828,-2.09293 3.43828,-7.55494 0,-5.46202 -3.43828,-7.55495 -1.62866,-1.02093 -3.48353,-1.27617 -1.80962,-0.30628 -6.51464,-0.30628 h -20.81066 z"
         style="font-size:88px;line-height:0.75;font-family:'Copperplate Gothic Bold';-inkscape-font-specification:'Copperplate Gothic Bold, ';white-space:pre;fill:#ff0000;stroke-width:1.1184"
         id="path1506" /></g></g></svg>
