<?xml version="1.0" encoding="UTF-8" standalone="no"?>
<svg
   fill="#00ff00"
   width="150"
   height="150"
   class="bi bi-cash-coin"
   viewBox="0 0 150 150"
   version="1.1"
   id="svg4"
   sodipodi:docname="cash-coin.svg"
   inkscape:version="1.4 (e7c3feb100, 2024-10-09)"
   xmlns:inkscape="http://www.inkscape.org/namespaces/inkscape"
   xmlns:sodipodi="http://sodipodi.sourceforge.net/DTD/sodipodi-0.dtd"
   xmlns="http://www.w3.org/2000/svg"
   xmlns:svg="http://www.w3.org/2000/svg">
  <defs
     id="defs4" />
  <sodipodi:namedview
     id="namedview4"
     pagecolor="#505050"
     bordercolor="#eeeeee"
     borderopacity="1"
     inkscape:showpageshadow="0"
     inkscape:pageopacity="0"
     inkscape:pagecheckerboard="0"
     inkscape:deskcolor="#d1d1d1"
     inkscape:zoom="1.4340563"
     inkscape:cx="8.0192112"
     inkscape:cy="8.0192112"
     inkscape:window-width="1366"
     inkscape:window-height="710"
     inkscape:window-x="0"
     inkscape:window-y="0"
     inkscape:window-maximized="1"
     inkscape:current-layer="svg4" />
  <g
     id="g4"
     transform="matrix(8.125,0,0,8.125,10,10)">
    <path
       d="m 11,15 a 4,4 0 1 0 0,-8 4,4 0 0 0 0,8 m 5,-4 a 5,5 0 1 1 -10,0 5,5 0 0 1 10,0"
       id="path1" />
    <path
       d="m 9.438,11.944 c 0.047,0.596 0.518,1.06 1.363,1.116 v 0.44 h 0.375 v -0.443 c 0.875,-0.061 1.386,-0.529 1.386,-1.207 0,-0.618 -0.39,-0.936 -1.09,-1.1 l -0.296,-0.07 v -1.2 c 0.376,0.043 0.614,0.248 0.671,0.532 h 0.658 C 12.458,9.437 11.965,8.988 11.176,8.939 V 8.5 h -0.375 v 0.45 c -0.747,0.073 -1.255,0.522 -1.255,1.158 0,0.562 0.378,0.92 1.007,1.066 l 0.248,0.061 v 1.272 c -0.384,-0.058 -0.639,-0.27 -0.696,-0.563 H 9.437 Z m 1.36,-1.354 c -0.369,-0.085 -0.569,-0.26 -0.569,-0.522 0,-0.294 0.216,-0.514 0.572,-0.578 v 1.1 z m 0.432,0.746 c 0.449,0.104 0.655,0.272 0.655,0.569 0,0.339 -0.257,0.571 -0.709,0.614 v -1.195 z"
       id="path2" />
    <path
       d="M 1,0 A 1,1 0 0 0 0,1 v 8 a 1,1 0 0 0 1,1 H 5.083 Q 5.171,9.483 5.341,9 H 3 A 2,2 0 0 0 1,7 V 3 A 2,2 0 0 0 3,1 h 10 a 2,2 0 0 0 2,2 v 3.528 c 0.38,0.34 0.717,0.728 1,1.154 V 1 A 1,1 0 0 0 15,0 Z"
       id="path3" />
    <path
       d="M 9.998,5.083 10,5 A 2,2 0 1 0 6.868,6.65 6,6 0 0 1 9.998,5.083"
       id="path4" />
  </g>
</svg>
