<?xml version="1.0" encoding="UTF-8" standalone="no"?>
<!-- Created with Inkscape (http://www.inkscape.org/) -->

<svg
   version="1.1"
   id="svg1"
   width="512"
   height="512"
   viewBox="0 0 512 512"
   sodipodi:docname="help.svg"
   inkscape:version="1.4 (e7c3feb100, 2024-10-09)"
   xmlns:inkscape="http://www.inkscape.org/namespaces/inkscape"
   xmlns:sodipodi="http://sodipodi.sourceforge.net/DTD/sodipodi-0.dtd"
   xmlns="http://www.w3.org/2000/svg"
   xmlns:svg="http://www.w3.org/2000/svg">
  <defs
     id="defs1" />
  <sodipodi:namedview
     id="namedview1"
     pagecolor="#505050"
     bordercolor="#eeeeee"
     borderopacity="1"
     inkscape:showpageshadow="0"
     inkscape:pageopacity="0"
     inkscape:pagecheckerboard="0"
     inkscape:deskcolor="#d1d1d1"
     inkscape:zoom="0.87997258"
     inkscape:cx="238.0756"
     inkscape:cy="276.71317"
     inkscape:window-width="1366"
     inkscape:window-height="710"
     inkscape:window-x="0"
     inkscape:window-y="0"
     inkscape:window-maximized="1"
     inkscape:current-layer="g1" />
  <g
     inkscape:groupmode="layer"
     inkscape:label="Image"
     id="g1">
    <g
       id="g10"
       transform="matrix(0.90087028,0,0,0.90063162,25.390912,25.406693)">
      <path
         id="path1-3"
         style="fill:#f9f9f9;stroke-width:1.80868"
         d="M 37.185547,-15.988281 C 24.308916,-15.797877 11.51374,-9.3872047 4.1523438,1.2675781 -0.09687637,7.3484 -1.8257453,14.719159 -3.0683594,21.917969 -6.5060301,41.762632 -8.4238159,61.823136 -10.794922,81.8125 c -1.833379,16.405119 -3.741532,32.81046 -4.90625,49.2793 -0.479631,7.90681 -0.605605,16.06907 2.019531,23.65234 2.7993,8.3388 8.453923,15.74812 15.9726566,20.36719 13.1397054,8.32955 30.7995984,8.71879 44.3613284,1.13867 8.176949,-4.5203 14.790548,-12.04482 17.630859,-21.00391 1.587798,-4.86723 2.455064,-9.92804 3.447266,-14.93945 0.937574,-5.16657 1.657878,-10.36899 2.386719,-15.56836 0.866381,-0.13706 0.988846,0.33253 0.771484,1.07813 -0.989271,9.16677 -2.085693,18.40328 -1.384766,27.63281 0.688106,7.22232 3.032355,14.35371 7.251953,20.29492 5.785171,8.5366 14.605507,15.25638 24.769531,17.5 3.00963,0.70466 6.10474,1.04233 9.19531,1.01758 0.42691,25.04174 0.77773,50.18748 4.47266,75.00586 2.96114,19.54327 9.04353,38.70422 18.69531,55.99219 7.59171,13.53161 17.70247,25.8385 30.4043,34.86523 3.10416,2.22569 6.34489,4.26192 9.69336,6.09961 -2.11309,13.9247 -4.76458,27.82733 -5.22266,41.9375 -0.0163,2.37042 0.10216,4.74658 0.44141,7.09375 -7.3819,10.72405 -12.14061,23.11239 -14.67774,35.84375 -7.64156,1.9829 -14.97512,6.1075 -19.70312,12.55469 -4.52428,6.26475 -6.05045,14.73228 -3.4668,22.07812 2.14017,6.41872 7.11787,11.69298 13.16406,14.63281 5.28644,2.84918 10.75777,5.33744 16.17579,7.92188 6.64445,3.07528 13.33194,6.11488 20.29296,8.4082 6.69954,1.96814 14.22548,1.99792 20.57618,-1.15234 7.9543,-3.79279 13.40738,-12.15156 14.08203,-20.84766 0.84242,-7.1748 -0.56182,-14.33085 -1.32032,-21.44531 -0.71144,-5.92889 -1.74633,-12.00704 -0.47265,-17.93359 1.00555,-3.85413 2.59986,-7.52616 4.23242,-11.14844 0.75421,-0.0743 1.69616,0.0905 2.43945,0.12109 3.86043,0.32298 7.72178,0.64647 11.57422,1.05469 0.42557,3.17959 0.81249,6.55662 0.97656,9.84766 0.2568,4.45421 -0.8146,8.82781 -1.59765,13.17968 -1.05012,5.22102 -2.26434,10.42171 -3.86719,15.50196 -0.805,2.01346 -2.13368,3.77266 -2.83008,5.83789 -2.23245,5.67443 -2.47959,11.86543 -2.37695,17.89062 -0.005,7.48804 -0.0245,14.97684 -0.0469,22.46485 20.27145,-0.23951 40.54941,0.22512 60.8164,-0.375 6.53443,-0.35486 13.2571,-2.2567 18.22656,-6.68555 7.25566,-6.37084 9.93689,-17.21943 6.87305,-26.32031 -2.3436,-7.62609 -7.84544,-13.93189 -14.30469,-18.43946 -1.24819,-0.87371 -2.53541,-1.69189 -3.86523,-2.43554 0.12759,-13.87447 0.14458,-27.91397 -2.92969,-41.51953 -0.16897,-0.7102 -0.33686,-1.42117 -0.50781,-2.13086 3.70425,-5.14015 5.85372,-11.33685 6.28906,-17.64844 0.6267,-6.54956 0.225,-13.14082 0.60742,-19.70313 0.18687,-5.55624 0.47174,-11.028 0.82422,-16.5664 10.35403,-2.91678 20.00636,-7.96594 28.84961,-14.03125 13.92081,-9.75157 25.18692,-22.93575 33.85547,-37.48047 9.96193,-16.57606 16.8132,-34.8253 22.09375,-53.37305 3.53784,-12.54788 6.12148,-25.33501 8.61523,-38.12304 0.64398,-3.16455 1.29541,-6.23066 2.00586,-9.37696 11.81784,3.31146 25.05762,1.26008 35.21094,-5.67578 6.99606,-4.67793 12.51635,-11.70632 14.85547,-19.83984 1.92992,-6.26945 3.11798,-12.73633 4.2207,-19.19336 0.21221,-1.27372 0.39547,-2.5518 0.5918,-3.82813 13.51622,1.0105 27.39036,-0.059 40.17578,-4.79297 11.15416,-4.09096 21.24388,-11.23083 28.45117,-20.71484 5.59209,-7.23306 9.47701,-15.69954 11.73633,-24.53906 2.75149,-10.38992 3.59994,-21.31094 2.28906,-31.986331 -1.87162,-13.822724 -8.04689,-27.176676 -18.00976,-37.02539 -9.54735,-9.619012 -22.17674,-15.933407 -35.4375,-18.496094 -11.04644,-2.448791 -22.30201,-3.738861 -33.51367,-5.164063 -10.85947,-1.263854 -21.85296,-2.341184 -32.77344,-1.207031 -8.19351,0.990669 -16.39698,3.871154 -22.61133,9.451172 -7.076,6.255526 -11.41111,15.268783 -12.62109,24.576172 -2.08296,12.482317 -3.50696,25.0602 -5.06641,37.615235 -1.42673,11.89713 -2.75126,23.80644 -3.99023,35.72461 -10.16143,-1.8542 -20.42144,-3.07958 -30.66602,-4.36914 2.21036,-22.64823 5.20832,-45.275005 6.86914,-68.000002 0.50663,-8.241489 0.64063,-16.740399 -2.01953,-24.664062 -1.97907,-5.924546 -5.64618,-11.142621 -9.96484,-15.59961 -4.85264,-5.195336 -11.14395,-9.305571 -18.22266,-10.568359 -6.08556,-1.226655 -12.34518,-1.00658 -18.50195,-0.578125 -5.22886,0.572955 -10.39178,2.217967 -14.80664,5.113281 C 270.5036,15.694228 263.74021,12.980809 256.7695,12.085938 239.53641,9.0029551 222.12486,7.1052616 204.73828,5.1269531 194.51049,4.0532999 184.2585,3.0437481 173.97266,2.7832031 167.24265,2.8558006 160.46402,4.1898736 154.39453,7.15625 146.61688,-0.92507543 135.63104,-5.9484929 124.375,-6.0917969 112.34862,-6.3671326 100.11811,-1.202775 92.480469,8.1972656 86.749452,15.206385 83.636405,23.949925 81.785156,32.712891 c -0.828367,3.884225 -1.426753,7.813373 -1.943359,11.75 -0.503981,-0.0606 -1.214009,0.0425 -0.916016,-0.705079 0.382291,-8.251348 0.997137,-16.526087 0.435547,-24.783203 C 78.869643,13.30855 77.03097,7.7519079 73.880859,3.0039062 66.888684,-7.8922044 54.502971,-14.943338 41.638672,-15.869141 c -1.481238,-0.119933 -2.967627,-0.141813 -4.453125,-0.11914 z" />
      <path
         id="path1"
         style="fill:#000000;stroke-width:1.80868"
         d="m 37.207224,6.0233844 c -6.355987,0.2917441 -12.480507,3.3169847 -15.71289,8.9531246 -2.432599,4.24162 -4.82917,19.616992 -9.513672,61.029297 -7.0461568,62.289934 -7.2937454,67.248974 -3.7050781,74.296874 6.3816321,12.53307 28.0197131,12.47199 34.4199211,-0.0976 1.434182,-2.81665 3.848886,-14.74228 5.367188,-26.5 1.518283,-11.75774 3.124195,-21.74618 3.568359,-22.19727 0.775079,-0.78716 42.276857,3.13337 43.210938,4.08203 0.25015,0.25405 -0.698381,10.48576 -2.107422,22.73633 -2.741127,23.83211 -2.08254,28.74467 4.861328,36.27344 10.761184,11.66761 30.168544,4.34154 33.617194,-12.68945 0.56941,-2.81202 1.25378,15.62727 1.52149,40.97461 0.51789,49.03548 3.1066,74.53313 9.60937,94.65039 9.291,28.74307 24.11739,48.38537 44.03516,58.34375 6.25774,3.12871 11.36165,6.60128 11.34375,7.71679 -0.018,1.11549 -1.61835,11.87233 -3.55664,23.90235 -4.03997,25.07407 -4.42318,33.96619 -1.5879,36.8457 1.47228,1.49523 0.50847,3.92101 -3.64648,9.17187 -6.95884,8.79438 -12.2992,22.67664 -13.83789,35.97266 l -1.16406,10.05664 h -7.62891 c -8.96992,0 -17.20736,5.27144 -13.14844,8.41406 1.33523,1.03382 10.3134,5.45834 19.95118,9.83204 22.14784,10.05086 22.52514,9.79456 19.45507,-13.19727 -1.71355,-12.83295 -1.76908,-19.06924 -0.23242,-25.93359 2.01245,-8.98968 9.65466,-25.10763 13.35938,-28.17578 1.1232,-0.93023 9.50481,-0.87988 19.88867,0.12109 27.18892,2.62092 25.35806,1.63406 27.63281,14.90039 1.08967,6.3548 1.98047,15.25208 1.98047,19.77148 0,9.11223 -6.22599,35.90152 -8.99805,38.7168 -0.97352,0.98871 -1.76953,4.09533 -1.76953,6.90234 v 5.10347 h 21.53711 c 20.07013,0 21.53711,-0.23978 21.53711,-3.51367 0,-4.29671 -7.31484,-10.40824 -14.32812,-11.97266 l -5.1836,-1.15625 0.17383,-21.29883 c 0.12068,-14.6993 -0.75446,-24.79425 -2.82813,-32.58398 l -3.00585,-11.28711 4.50976,-4.57812 c 3.9433,-4.00478 4.50781,-6.15697 4.50781,-17.14258 0,-6.90908 0.52659,-20.06957 1.16797,-29.2461 l 1.16602,-16.68554 h 5.94531 c 9.21609,0 23.91236,-6.43794 35.08008,-15.36719 23.83413,-19.05679 40.54392,-54.08248 50.05859,-104.93164 1.78204,-9.52377 4.55621,-22.11214 6.16407,-27.97461 1.60782,-5.86246 2.61954,-12.42448 2.24804,-14.58203 -0.72091,-4.18672 -0.71374,-4.20855 -5.16211,13.84765 -1.66028,6.73914 -1.80764,6.83594 -10.5039,6.83594 -4.85106,0 -10.83304,-0.93201 -13.29297,-2.07031 -4.98127,-2.305 -7.66341,-7.04297 -3.98633,-7.04297 2.63579,0 12.22824,-6.84246 16.46484,-11.24805 l 5.51172,0.20899 c 0.0204,7.7e-4 0.0402,-6e-4 0.0605,0 0.4579,0.14821 1.0841,0.0425 1.80859,-0.19532 1.46485,-0.35847 2.73988,-1.19419 3.65039,-2.34374 0.74999,-0.65931 1.51397,-1.27485 2.20118,-2.16211 7.08908,-9.15284 3.62427,-24.23202 -6.4629,-28.12696 -2.43992,-0.94211 -15.48336,-3.01176 -28.98437,-4.59961 -13.50104,-1.58785 -24.90132,-3.24376 -25.33399,-3.67968 -0.43261,-0.43593 1.39232,-20.25522 4.05469,-44.04297 6.25962,-55.928571 6.24099,-58.880981 -0.42773,-66.460944 -4.63346,-5.266591 -6.30584,-5.953125 -14.50586,-5.953125 -8.10924,0 -9.8933,0.709866 -14.26563,5.679688 -5.74663,6.531885 -5.41092,4.700544 -12.66015,69.052741 -6.88569,61.12436 -6.88644,63.63568 -0.0586,70.11328 6.10422,5.7911 7.81737,6.22895 36.49805,9.3125 l 21.17969,2.27734 0.13281,-0.13281 2.78516,0.10742 -2.83203,2.75586 -22.11914,-2.62695 c -34.38786,-4.08538 -40.03959,-7.23488 -43.66993,-24.33399 l -1.34375,-6.32422 -2.92578,8.14649 c -2.2497,6.26043 -4.49166,8.92482 -9.68554,11.50781 -6.60087,3.2827 -7.55614,3.2691 -41.01172,-0.56055 -18.83924,-2.15652 -34.46658,-3.66932 -34.72657,-3.36132 -0.25998,0.30799 -1.84397,3.29604 -3.51953,6.64062 -8.48277,16.93231 -11.00088,58.33617 -4.58984,75.4668 2.70062,7.21617 3.58916,14.00482 3.58984,27.43359 0.001,24.88712 5.67647,35.22084 25.73633,46.8711 5.12668,2.97744 7.86105,5.56074 6.67578,6.30468 -2.88147,1.80863 -16.54438,-6.82086 -23.45508,-14.81445 -7.05543,-8.16098 -14.92996,-24.78489 -18.85351,-39.80078 -3.80875,-14.5765 -5.32965,-54.16096 -2.90625,-75.63477 1.71805,-15.22362 2.49736,-17.71146 6.48047,-20.6582 2.4906,-1.84256 4.52929,-4.48025 4.52929,-5.86133 0,-1.38108 1.75685,-4.17323 3.9043,-6.20508 1.86695,-1.76644 2.73479,-2.83887 2.85547,-4.06836 l 6.03711,1.79102 c 0.18034,0.0864 0.36991,0.0991 0.55273,0.16406 l 1.69727,0.50391 c 0.91909,0.27259 1.90315,0.33193 2.87891,0.2168 3.61538,0.3152 10.38111,1.04634 18.86523,2.14453 9.8711,1.27773 23.83959,2.43163 31.04101,2.5625 11.67598,0.21237 13.57165,-0.2467 17.5,-4.23633 8.12996,-8.25669 5.78873,-22.70645 -4.59374,-28.34961 -1.51685,-0.82445 -14.04545,-2.81701 -27.83985,-4.42774 -13.7944,-1.61073 -27.55632,-3.32823 -30.58203,-3.81835 l -5.50195,-0.89258 1.2832,-11.03516 c 0.70471,-6.06988 1.68873,-11.45045 2.1875,-11.95703 0.4988,-0.50655 11.84911,0.3668 25.22266,1.94141 32.32183,3.80556 32.84038,3.77295 38.98242,-2.46485 6.3695,-6.46882 7.02458,-15.58009 1.62109,-22.556642 -4.176,-5.391691 -11.7329,-7.261656 -42.61914,-10.544922 l -20.22266,-2.15039 1.17188,-9.330078 c 0.64406,-5.13135 1.2637,-9.465486 1.37695,-9.632813 0.11323,-0.167254 9.89702,0.852352 21.74219,2.265625 42.45972,5.065987 47.32037,4.334364 52.34961,-7.884765 3.41296,-8.29219 -0.53092,-17.852467 -8.76367,-21.246094 -6.16625,-2.541794 -69.82951,-10.276683 -84.17383,-10.226563 -10.28324,0.03593 -16.94913,4.912373 -19.48437,14.253907 -2.3304,8.586711 -12.61524,101.104805 -12.61524,113.480475 v 9.32421 l 0.0312,-0.0273 c 0.17401,1.67096 1.36476,3.08985 3.35352,3.67969 l 3.75,1.11328 c 1.26185,2.28643 3.54085,4.90719 7.03711,8.22852 8.27433,7.86035 8.73219,8.72956 6.02929,11.47461 -2.28713,2.3228 -4.97102,2.72544 -12.30859,1.8496 -16.42156,-1.96011 -15.67039,-0.69946 -14.63281,-24.57812 0.57589,-13.25343 1.66592,-21.30843 2.9414,-21.74024 1.11444,-0.37726 1.54658,-1.47585 0.95899,-2.4414 -0.65747,-1.08039 -2.04313,-0.93465 -3.60157,0.3789 -3.35261,2.8258 -3.46955,4.85046 2.84375,-49.521482 6.7585,-58.206135 6.77269,-60.173528 0.45704,-67.351563 -6.42875,-7.306589 -17.30272,-9.145894 -25.38868,-4.294922 -6.92578,4.154947 -10.27157,13.035568 -12.51367,33.214844 -0.92678,8.34107 -2.061452,15.548422 -2.521489,16.015625 -0.82869,0.841609 -30.750653,-2.212796 -38.572266,-3.9375 C 55.951777,63.001773 55.928312,62.809774 57.058787,40.706978 58.134845,19.667894 57.980458,18.143219 54.31074,13.47065 50.150742,8.173824 43.563211,5.7316403 37.207224,6.0233844 Z M 414.95332,52.896431 c -12.30614,0.334717 -17.0364,3.843643 -19.92773,11.521485 -2.61436,6.942379 -14.53944,113.975194 -13.55859,121.693364 0.64871,5.10456 2.58217,8.79334 6.44922,12.30273 8.72902,7.92166 23.47638,6.19794 29.71679,-3.47461 1.519,-2.35444 3.97196,-13.04959 5.45313,-23.76562 1.48119,-10.71605 2.87587,-19.63273 3.09765,-19.81445 0.2218,-0.1818 6.05701,0.41052 12.9668,1.3164 40.36959,5.29252 63.68278,-10.3193 66.63672,-44.62305 1.69104,-19.638034 -6.76021,-35.880261 -23.02734,-44.251952 -6.93971,-3.571458 -15.58048,-5.548982 -36.23243,-8.292969 -14.07922,-1.87068 -24.19052,-2.812158 -31.57422,-2.611328 z m 20.66211,36.277344 c 1.20607,-0.07112 2.7878,0.18687 4.91797,0.498047 15.90542,2.323471 21.15135,4.420907 22.92774,9.166016 2.25149,6.014212 0.44532,12.870452 -4.27539,16.228522 -2.3456,1.66855 -7.55524,2.61151 -13.70508,2.48047 -16.25357,-0.34645 -16.44588,-0.48827 -15.24024,-11.32227 1.5194,-13.653477 1.7568,-16.837411 5.375,-17.050785 z m -281.89453,78.744145 15.98438,4.74023 c 0.0701,0.9857 -0.10781,1.83395 -0.73828,2.60547 -3.4774,4.25533 -6.41232,3.13497 -13.34766,-5.09375 z m 182.87305,25.31836 15.9668,0.60742 c -1.00131,0.90616 -2.09997,1.83364 -3.69336,2.95508 -7.91113,5.56789 -9.8229,5.8564 -13.00781,1.95898 -1.32653,-1.62328 -1.24001,-2.96346 0.73437,-5.52148 z m -3.85937,7.68945 c 0.7829,0.49141 1.42187,1.96404 1.42187,3.27344 0,1.30939 1.61561,4.46668 3.58984,7.01562 4.13459,5.33825 4.50315,12.94451 1.74024,36.00586 -5.79064,48.33312 -23.79721,83.34055 -49.10352,95.46485 -11.23856,5.3844 -18.47539,7.14089 -19.88281,4.82812 -0.58383,-0.95939 2.39412,-2.66958 6.61914,-3.80078 22.2013,-5.94426 34.37586,-20.65169 36.69141,-44.32812 0.79595,-8.13858 2.73104,-13.94257 7.07812,-21.22657 9.18296,-15.38701 12.01241,-29.56664 11.15039,-55.86328 -0.40138,-12.24444 -0.0876,-21.86055 0.69532,-21.36914 z m -23.34766,6.86133 1.73437,4.63281 c 5.83298,15.58112 1.38677,87.7704 -6.48047,105.22266 -5.08953,11.29036 -13.30669,17.4372 -28.74218,21.49804 -9.7108,2.55478 -35.69447,3.52274 -44.93946,1.67383 -27.78357,-5.55648 -35.13733,-8.46216 -45.51757,-17.98633 -12.25424,-11.24357 -13.81075,-18.27395 -11.23633,-50.75976 2.0383,-25.72079 6.73314,-60.50171 8.58789,-63.62305 0.44458,-0.74821 3.23228,-0.0883 6.19336,1.4668 12.34498,6.48334 53.68322,6.55501 102.72461,0.17578 z m -97.35156,43.29492 c -1.61188,-0.26936 -3.47781,0.72589 -5.41797,3.12695 -3.95363,4.89288 -4.76571,18.2646 -1.32227,21.76172 6.50276,6.60416 12.70047,-0.52692 11.85156,-13.63672 -0.44285,-6.83908 -2.42486,-10.80301 -5.11132,-11.25195 z m 64.46679,7.25586 c -4.61713,0.50386 -6.95508,5.40735 -6.95507,14.61133 0,6.31694 0.84036,9.15092 3.09374,10.43164 7.10071,4.03571 12.02841,-3.73197 10.93946,-17.24414 -0.48047,-5.96182 -1.28473,-7.21938 -4.95899,-7.7461 -0.75239,-0.10784 -1.45955,-0.12471 -2.11914,-0.0527 z m -60.8164,45.77734 c -1.37721,0.2062 -1.77735,0.84197 -1.77735,1.99415 0,2.02481 2.78756,3.0923 10.32032,3.95507 5.67589,0.6501 11.12812,1.46516 12.11523,1.81055 0.98711,0.34539 8.12116,0.69238 15.85352,0.77148 10.49406,0.10742 13.86978,-0.43406 13.3164,-2.13476 -0.48176,-1.48062 -6.34614,-2.65743 -16.75,-3.36328 -8.80529,-0.5974 -20.24931,-1.70137 -25.43164,-2.45117 -3.9136,-0.56623 -6.26928,-0.78823 -7.64648,-0.58204 z" />
    </g>
  </g>
</svg>
