<?xml version="1.0" encoding="UTF-8" standalone="no"?>
<svg
   height="150"
   viewBox="0 -960 3000 3000"
   width="150"
   fill="#0000f5"
   version="1.1"
   id="svg4"
   sodipodi:docname="support-group.svg"
   inkscape:version="1.4 (e7c3feb100, 2024-10-09)"
   xmlns:inkscape="http://www.inkscape.org/namespaces/inkscape"
   xmlns:sodipodi="http://sodipodi.sourceforge.net/DTD/sodipodi-0.dtd"
   xmlns="http://www.w3.org/2000/svg"
   xmlns:svg="http://www.w3.org/2000/svg">
  <defs
     id="defs8" />
  <sodipodi:namedview
     id="namedview6"
     pagecolor="#505050"
     bordercolor="#eeeeee"
     borderopacity="1"
     inkscape:showpageshadow="0"
     inkscape:pageopacity="0"
     inkscape:pagecheckerboard="0"
     inkscape:deskcolor="#505050"
     showgrid="false"
     inkscape:zoom="1.2291667"
     inkscape:cx="19.932203"
     inkscape:cy="24"
     inkscape:window-width="1366"
     inkscape:window-height="710"
     inkscape:window-x="0"
     inkscape:window-y="0"
     inkscape:window-maximized="1"
     inkscape:current-layer="svg4" />
  <path
     d="m 75.5932,1850.5085 v -655.2543 q 0,-118.7648 66.3644,-202.71929 66.36442,-83.95442 160.24577,-83.95442 H 758.661 q 55.0339,0 105.21186,34.81038 50.17797,34.81041 85.78814,96.24053 93.8814,172.0042 239.5594,266.197 145.6779,94.1928 310.7796,94.1928 165.1016,0 310.7796,-94.1928 145.678,-94.1928 242.7966,-266.197 35.6102,-61.43012 84.1696,-96.24053 48.5593,-34.81038 103.5932,-34.81038 h 456.4576 q 93.8814,0 160.2457,83.95442 66.3645,83.95449 66.3645,202.71929 v 655.2543 h -841.6949 v -487.3454 q -116.5424,135.1462 -267.0763,208.8623 -150.534,73.7161 -315.6356,73.7161 -165.1017,0 -314.017,-73.7161 -148.9152,-73.7161 -268.69488,-208.8623 v 487.3454 z M 1500,1154.3008 q -113.3051,0 -218.5169,-67.5731 Q 1176.2712,1019.1546 1111.5254,900.3898 1059.7288,806.19701 986.88981,748.86227 914.05083,691.52752 829.88134,671.05082 923.76269,548.19065 1124.4746,482.66523 1325.1864,417.1398 1500,417.1398 q 174.8136,0 377.144,65.52543 202.3306,65.52542 296.2119,188.38559 -84.1695,20.4767 -157.0085,77.81145 -72.8389,57.33474 -124.6356,151.52753 -64.7458,118.7648 -169.9576,186.3379 -105.2118,67.5731 -221.7542,67.5731 z M 464.06777,621.90676 q -145.67796,0 -250.88983,-133.09852 -105.21186,-133.09852 -105.21186,-317.38877 0,-188.3856 105.21186,-319.43645 105.21187,-131.05085 250.88983,-131.05085 148.91526,0 252.50848,131.05085 103.59322,131.05085 103.59322,319.43645 0,184.29025 -103.59322,317.38877 -103.59322,133.09852 -252.50848,133.09852 z m 2071.86443,0 q -145.678,0 -250.8899,-133.09852 -105.2118,-133.09852 -105.2118,-317.38877 0,-188.3856 105.2118,-319.43645 105.2119,-131.05085 250.8899,-131.05085 148.9153,0 252.5084,131.05085 103.5933,131.05085 103.5933,319.43645 0,184.29025 -103.5933,317.38877 -103.5931,133.09852 -252.5084,133.09852 z M 1500,130.46608 q -145.678,0 -250.8898,-133.09852 -105.2119,-133.09851 -105.2119,-317.38877 0,-188.38559 105.2119,-319.43644 Q 1354.322,-770.5085 1500,-770.5085 q 148.9152,0 252.5084,131.05085 103.5933,131.05085 103.5933,319.43644 0,184.29026 -103.5933,317.38877 Q 1648.9152,130.46608 1500,130.46608 Z"
     id="path2"
     style="stroke-width:3.64113" />
</svg>
