<?xml version="1.0" encoding="UTF-8" standalone="no"?>
<svg
   height="150"
   viewBox="0 -960 6000 6000"
   width="150"
   fill="#fff500"
   version="1.1"
   id="svg1940"
   sodipodi:docname="tools.svg"
   inkscape:version="1.4 (e7c3feb100, 2024-10-09)"
   xmlns:inkscape="http://www.inkscape.org/namespaces/inkscape"
   xmlns:sodipodi="http://sodipodi.sourceforge.net/DTD/sodipodi-0.dtd"
   xmlns="http://www.w3.org/2000/svg"
   xmlns:svg="http://www.w3.org/2000/svg">
  <defs
     id="defs1944" />
  <sodipodi:namedview
     id="namedview1942"
     pagecolor="#505050"
     bordercolor="#eeeeee"
     borderopacity="1"
     inkscape:showpageshadow="0"
     inkscape:pageopacity="0"
     inkscape:pagecheckerboard="0"
     inkscape:deskcolor="#505050"
     showgrid="false"
     inkscape:zoom="1.7383042"
     inkscape:cx="80.538264"
     inkscape:cy="11.793103"
     inkscape:window-width="1366"
     inkscape:window-height="710"
     inkscape:window-x="0"
     inkscape:window-y="0"
     inkscape:window-maximized="1"
     inkscape:current-layer="svg1940" />
  <path
     d="M 5157.6248,4840 3502.5641,3139.0291 4137.3819,2486.602 5792.4427,4187.5728 Z M 985.9649,4840 351.14708,4187.5728 2436.9771,2043.8835 1923.077,1515.7281 1711.471,1733.2039 1326.0459,1337.0874 v 636.8931 L 1114.44,2191.4563 200,1251.6505 411.60594,1034.1748 H 1031.309 L 653.44131,645.82526 1726.5857,-457.08739 q 151.1471,-155.3398 324.9662,-225.24271 173.8192,-69.90291 355.1957,-69.90291 181.3765,0 355.1957,69.90291 173.8192,69.90291 324.9662,225.24271 l -695.2766,714.56315 377.8677,388.3495 -211.6058,217.47572 513.9001,528.15532 680.1619,-699.0291 q -30.2294,-85.43689 -49.1228,-178.64077 -18.8934,-93.20388 -18.8934,-186.40776 0,-458.25248 306.0729,-772.81554 Q 4296.0864,-760 4741.9703,-760 q 113.3603,0 215.3846,23.30097 102.0243,23.30097 207.8273,69.90291 l -748.1781,768.93201 544.1295,559.22335 748.1781,-768.93208 Q 5762.2132,1.16502 5781.1066,106.01942 5800,210.87382 5800,327.37867 q 0,458.25241 -306.0729,772.81543 -306.0728,314.5632 -751.9568,314.5632 -90.6882,0 -181.3765,-15.534 -90.6883,-15.534 -173.8192,-54.3689 z"
     id="path1938"
     style="stroke-width:7.66149" />
</svg>
