<?xml version="1.0" encoding="UTF-8" standalone="no"?>
<!-- Created with Inkscape (http://www.inkscape.org/) -->

<svg
   version="1.1"
   id="svg1262"
   width="500"
   height="500"
   viewBox="0 0 200 200"
   sodipodi:docname="andrax-afos.svg"
   inkscape:version="1.2.2 (b0a8486541, 2022-12-01)"
   xmlns:inkscape="http://www.inkscape.org/namespaces/inkscape"
   xmlns:sodipodi="http://sodipodi.sourceforge.net/DTD/sodipodi-0.dtd"
   xmlns="http://www.w3.org/2000/svg"
   xmlns:svg="http://www.w3.org/2000/svg">
  <sodipodi:namedview
     id="namedview20"
     pagecolor="#505050"
     bordercolor="#ffffff"
     borderopacity="1"
     inkscape:showpageshadow="0"
     inkscape:pageopacity="0"
     inkscape:pagecheckerboard="1"
     inkscape:deskcolor="#505050"
     showgrid="false"
     inkscape:zoom="2.0390625"
     inkscape:cx="79.938697"
     inkscape:cy="110.59004"
     inkscape:window-width="1366"
     inkscape:window-height="691"
     inkscape:window-x="0"
     inkscape:window-y="24"
     inkscape:window-maximized="1"
     inkscape:current-layer="svg1262" />
  <defs
     id="defs1266" />
  <g
     id="g660"
     transform="matrix(0.42887618,0,0,0.43470999,-9.7899893,-11.268332)">
    <path
       id="path1365-3"
       style="fill:#ffffff;stroke-width:0.762744"
       d="m 167.73438,71.248047 0.69531,2.550781 c 0.56857,2.084395 1.13582,4.169164 1.70312,6.253906 -9.62642,-2.855857 -19.44378,-5.08085 -29.36328,-6.638672 -2.37941,-0.368237 -4.82604,-0.445325 -7.17578,0.158204 -2.77093,0.672286 -5.55298,1.300917 -8.33203,1.941406 0.82904,4.40269 1.65551,8.805893 2.48242,13.208984 3.02507,2.938154 6.98419,4.58106 10.88672,5.996094 4.41331,1.706864 8.82292,3.581937 13.01367,5.64063 1.91069,0.942 3.82792,1.92819 5.61914,2.92382 2.84839,1.57663 5.6344,3.26974 8.32617,5.10157 -16.0826,3.80135 -31.98638,8.6249 -47.07226,15.42578 -7.84848,3.6412 -15.4845,7.93715 -22.072268,13.58984 -3.347512,3.17831 -5.724434,7.18227 -8.574218,10.7793 -5.859661,7.86223 -11.718685,15.72354 -17.578125,23.58593 5.515077,-2.42828 11.03098,-4.85482 16.546875,-7.28124 -7.428142,8.58557 -14.280465,17.73672 -19.775391,27.6914 -4.173918,7.62611 -7.578221,15.75166 -9.363281,24.2832 -0.695176,3.58081 -0.558071,7.6014 1.671875,10.64844 2.642575,3.68923 7.913302,5.26528 12.09375,3.40039 0.574065,-0.24107 1.127593,-0.52994 1.652344,-0.86523 -2.626706,11.81892 -4.18558,23.90505 -4.228516,36.02148 0.03887,9.30732 1.20144,18.87022 5.423828,27.28321 1.807967,3.5914 4.156012,6.98216 7.318359,9.51171 1.515099,1.21917 3.003367,2.48977 4.597657,3.59961 3.577384,2.15676 8.720224,0.846 10.820312,-2.76953 0.655369,-1.07585 1.016744,-2.30838 1.171875,-3.55273 5.474994,11.23493 13.300764,21.08268 21.294924,30.60742 2.31623,2.80917 4.68689,5.57613 6.92383,8.44922 -16.75715,0.0212 -33.51436,0.0448 -50.271488,0.0644 -4.389574,3.5188 -9.296506,6.71024 -12.283203,11.61719 -1.960075,3.02597 -3.339716,6.37014 -4.998047,9.56055 -0.06005,17.83141 -0.544472,35.66787 -0.01563,53.49609 0.141815,3.88595 1.04351,7.74754 2.771484,11.23828 2.641261,5.64652 7.106358,10.40146 12.558594,13.41992 1.423036,0.88077 2.805374,1.91453 4.380859,2.48243 100.497961,-0.0186 200.996271,0.0188 301.494141,-0.12305 15.77191,-0.0571 31.54913,-0.0496 47.31446,-0.54688 3.7945,-0.21115 7.80511,-0.33852 11.17383,-2.3125 3.97629,-2.28401 6.93799,-5.93495 9.4707,-9.68164 2.7286,-4.1193 4.6618,-8.87658 4.86328,-13.85742 0.39895,-6.89462 0.40309,-13.80656 0.47852,-20.71094 0.0243,-8.19092 6.5e-4,-16.38606 -0.28907,-24.57226 -0.27446,-5.62846 -0.90713,-11.49218 -3.85156,-16.42969 -1.422,-2.3688 -3.06264,-4.60851 -4.82812,-6.73047 -1.94556,-2.21591 -4.5326,-3.84409 -7.38673,-4.59765 -4.92158,-1.52184 -10.12437,-1.56308 -15.22071,-1.88868 -13.86466,-0.6331 -27.74761,-0.54749 -41.62304,-0.6582 -9.19565,-11.3618 -20.70459,-20.56197 -32.50391,-29.07227 -20.3024,-14.46391 -42.21076,-26.43672 -63.89452,-38.65625 -14.50644,-8.13408 -29.09049,-16.19729 -43.125,-25.08789 -7.29769,-4.6687 -14.5219,-9.6348 -20.51954,-15.93945 -1.89996,-2.12361 -4.04774,-4.33395 -4.60937,-7.23242 0.1028,-1.65769 1.55331,-2.78166 2.71485,-3.78906 1.21412,-0.95891 2.50616,-1.88064 3.7207,-2.79883 6.44011,2.67518 13.49262,4.11456 20.47266,3.40625 9.58618,-0.81633 18.66229,-4.75048 28.32811,-4.9668 4.66814,-0.14535 9.25451,0.47352 13.83986,1.37695 5.78984,1.19624 11.51533,2.91132 17.11914,4.9668 2.50732,0.92662 4.83205,1.85324 7.31445,2.93164 7.46527,3.19988 14.62961,7.04397 21.71875,10.99414 8.23592,4.44362 16.96081,8.43428 26.33984,9.58203 7.2594,0.95626 14.5899,1.13973 21.88086,1.75196 5.09863,0.31331 10.21548,0.84102 15.32422,0.49218 7.42909,-0.86195 14.35728,-3.97931 20.91992,-7.4121 4.94724,-2.58107 9.9071,-5.139 14.86327,-7.70313 l 7.5625,-10.60937 c -0.009,-3.7e-4 -0.0184,3.5e-4 -0.0273,0 1.52121,-1.72377 2.67406,-3.75568 3.47266,-5.89844 1.89907,-1.78529 3.09346,-4.27304 3.44336,-6.83985 2.85935,-2.99931 4.60989,-7.00618 4.85156,-11.14453 0.0969,-0.78334 0.0269,-1.63007 0.11719,-2.37695 3.19416,-1.85073 5.19207,-5.47634 5.15039,-9.15625 0.13964,-5.48085 -2.79989,-10.59737 -6.70702,-14.25977 -3.18599,-3.00002 -6.9385,-5.41387 -10.99024,-7.06445 -4.73947,-1.80261 -10.06481,-1.80421 -14.875,-0.26367 -1.92356,0.53554 -3.77309,1.40426 -5.75195,1.69531 -3.6893,-0.16011 -6.77416,-2.43259 -9.89453,-4.15039 -4.38942,-2.55605 -9.31797,-4.68955 -14.50391,-4.40039 -2.19914,0.0877 -4.37533,0.49401 -6.5,1.05469 -3.80274,-1.47341 -7.53031,-3.16057 -11.07226,-5.1875 -0.81635,-0.46791 -1.86082,-1.09984 -2.74415,-1.66602 -2.60736,-1.73861 -5.14283,-3.58655 -7.61719,-5.50976 -0.45496,-0.3656 -1.1768,-0.93458 -1.72071,-1.39649 -1.36201,-1.05595 -2.55957,-2.28401 -3.6875,-3.58203 -5.05525,-5.41007 -10.60246,-10.33003 -16.11131,-15.26758 -0.66825,-5.86794 -4.10053,-10.99436 -8.09375,-15.17187 -4.88106,-5.06411 -10.654,-9.35997 -17.13673,-12.142581 -2.19779,-0.904911 -4.54241,-1.721562 -6.95702,-1.410156 -1.91492,0.193678 -3.79951,0.891079 -5.30079,2.109375 -6.5299,-3.660525 -13.54811,-6.52469 -20.90234,-8.009766 -8.75268,-2.063665 -17.50467,-4.129673 -26.25781,-6.191406 4.95887,5.464915 9.93657,10.912811 14.8789,16.392574 -4.44741,-0.52913 -8.9212,-0.79825 -13.38477,-1.124996 -1.22073,-0.394648 -2.18355,-1.319392 -3.30664,-1.919922 -19.46268,-12.06924 -41.2791,-20.063032 -63.67578,-24.613281 -3.57621,-0.711564 -7.14658,-1.531216 -10.7793,-1.888672 -3.24556,-0.178183 -6.49958,-0.03003 -9.74805,-0.125 -1.36033,-0.01268 -2.71978,-0.02601 -4.08007,-0.03906 z M 336.38086,191.42773 c 0.27995,0.10287 0.5599,0.20573 0.83984,0.3086 5.30577,1.96535 10.36222,4.55842 15.1211,7.61328 5.92418,3.69621 11.82363,7.61593 18.5,9.83789 3.74776,1.33227 7.63946,2.18361 11.44922,3.31055 -0.1765,1.04624 -0.36205,2.09386 -0.42774,3.15429 -1.59746,-0.49685 -3.17165,-1.06442 -4.73828,-1.65039 -0.37847,-0.14641 -1.11662,-0.4414 -1.63281,-0.64453 -7.69534,-3.08415 -14.89786,-7.23703 -21.9375,-11.58203 -5.72184,-3.45363 -11.38174,-7.0117 -17.17383,-10.34766 z m 72.98633,25.69141 0.8164,0.0723 c 1.69773,0.15459 3.39705,0.29295 5.0918,0.47851 0.0795,0.83198 0.25197,1.65521 0.5,2.45313 -3.07592,-0.1094 -6.23276,-0.17764 -9.25586,-0.35743 1.01134,-0.81168 1.97941,-1.68172 2.84766,-2.64648 z" />
    <g
       id="g631"
       transform="translate(3.7561028e-5,5.3821519e-4)">
      <rect
         style="fill:#ff0000;fill-opacity:1;stroke-width:1.47346"
         id="rect9939"
         width="49.293095"
         height="32.697685"
         x="276.38571"
         y="129.99016" />
      <path
         id="path1365"
         style="fill:#000000;stroke-width:0.762744"
         d="m 180.85156,81.333984 c -0.0911,0.06293 1.75345,0.856595 4.09766,1.763672 15.25279,5.901995 28.66086,13.483529 36.25586,20.501954 2.85803,2.64103 5.75,5.69901 5.75,6.08008 0,0.0725 -2.72832,0.22705 -6.0625,0.33984 -3.33419,0.11275 -6.86535,0.3363 -7.8457,0.49805 l -1.78126,0.29492 -5.30859,-3.70312 c -9.63691,-6.71815 -21.25697,-12.018608 -37.79297,-17.240239 -9.00646,-2.844019 -27.16103,-6.78188 -31.25,-6.779297 -0.42799,2.77e-4 1.69327,0.932154 4.71289,2.072265 13.48354,5.090941 24.91556,11.17617 33.91602,18.050781 4.01303,3.0652 12.12414,9.89057 12.41797,10.44922 0.0688,0.13084 -2.2991,0.7003 -5.26172,1.26758 -24.46025,4.68367 -47.42241,11.73378 -62.80469,19.2832 -8.15159,4.00069 -15.99131,9.23256 -18.17383,12.12695 l -0.70117,0.93164 1.08789,-0.49218 c 8.84846,-3.99762 11.97507,-5.03949 16.89453,-5.62891 1.64759,-0.1974 3.8899,-0.31482 4.98243,-0.25977 l 1.98632,0.10157 -4.5664,3.78515 c -21.526479,17.85679 -39.027353,38.50701 -47.740238,56.32618 -3.786189,7.74334 -6.75558,17.06284 -6.302734,19.78515 0.129076,0.77579 0.450521,0.5186 2.623047,-2.11328 4.61752,-5.59382 7.49279,-7.97254 12.851563,-10.62695 3.104275,-1.53769 7.758308,-3.37736 8.044921,-3.17969 0.116943,0.0806 -0.606554,2.33443 -1.607421,5.00586 -8.886384,23.71897 -12.7342,54.00556 -8.935547,70.33203 1.364047,5.86271 4.298826,11.69639 6.986328,13.88281 l 0.972656,0.79102 0.01367,-3.83203 c 0.02951,-7.42268 1.385897,-13.03239 4.09375,-16.92969 1.345976,-1.93719 5.285952,-5.59266 6.265625,-5.8125 0.325502,-0.0731 0.617933,0.76727 0.816406,2.34375 0.453262,3.6003 2.445464,11.29718 4.201174,16.23242 4.17381,11.73243 10.58664,21.7671 23.96289,37.50196 10.3715,12.20027 11.22994,13.87891 11.21289,21.92968 -0.001,0.85075 -0.093,1.58159 -0.14062,2.36524 l -59.093756,0.0781 -3.324218,2.59375 c -2.058726,1.60574 -4.106093,4.18931 -5.378907,6.78516 l -2.05664,4.18945 -0.210938,25.34375 c -0.134543,16.06106 0.04624,26.46365 0.5,28.41211 1.180672,5.06885 4.363377,9.77678 8.269531,12.23242 l 3.591797,2.25782 174.900391,-0.0195 c 168.17555,-0.0188 175.00735,-0.0786 177.64453,-1.58984 3.45501,-1.97992 7.97682,-8.39223 9.02149,-12.79102 0.52798,-2.22317 0.79883,-11.33208 0.79883,-26.88281 0,-26.8051 -0.33051,-29.18223 -4.84766,-34.88086 -3.75964,-4.74304 1.33546,-5.81457 -63.30859,-5.96484 -7.54061,-10.62065 -19.62896,-21.50574 -37.76368,-34.01367 -13.20033,-9.10456 -28.62253,-18.30214 -59.49414,-35.48438 -41.23727,-22.95145 -54.84998,-31.77278 -64.71093,-41.92773 -10.56814,-10.88326 -10.34449,-19.90219 0.68945,-27.63477 1.3653,-0.95679 2.48171,-1.84658 2.47851,-1.98047 -0.002,-0.13389 -1.17343,-0.74022 -2.59961,-1.34765 -3.29646,-1.40403 -9.02436,-5.27926 -11.42968,-7.73242 -6.04011,-6.16031 -8.93447,-13.58024 -7.50586,-19.23829 0.5081,-2.01232 1.98212,-4.58593 2.62695,-4.58593 0.15666,0 0.17393,1.11033 0.0391,2.46679 -0.30113,3.02996 0.26365,7.1421 1.26563,9.22266 0.41248,0.8565 1.76053,2.62441 2.99414,3.92773 1.23361,1.3033 2.66659,2.94101 3.18555,3.64258 1.70234,2.30145 12.08532,8.97989 18.47851,11.88477 9.62292,4.37238 15.75253,4.85482 26.94141,2.125 9.32157,-2.27426 12.897,-2.95024 17.54297,-3.32813 15.75901,-1.28184 38.72688,5.45583 61.42578,18.02149 9.941,5.50314 14.06687,7.53403 18.82422,9.26562 5.31856,1.93588 9.18457,2.67825 16.67968,3.20313 27.768,1.94472 26.9968,1.91385 30.29297,1.25586 3.81653,-0.76188 8.41165,-2.4298 12.41407,-4.50391 l 3.48437,-1.80469 -2.27734,-0.0723 c -19.54701,-0.62831 -33.89916,-4.52895 -50.54688,-13.73633 -2.64219,-1.46131 -9.12774,-5.32738 -14.41211,-8.58985 -21.53048,-13.29248 -28.19427,-16.41298 -48.49804,-22.72265 -4.02621,-1.25122 -9.35039,-2.98157 -11.83399,-3.84375 l -4.51562,-1.56836 1.99804,-1.18164 c 3.16174,-1.87312 7.05115,-3.56499 9.89844,-4.30274 7.52739,-1.95035 18.57597,-0.6734 36.63086,4.23047 13.83029,3.75645 21.64633,7.14172 32.07422,13.89649 9.03852,5.8548 12.73745,7.49529 22.5332,9.98633 6.3383,1.61181 8.03815,2.40497 9.56836,4.46289 0.98126,1.31967 1.1459,4.36268 0.42383,7.80859 -0.23504,1.12159 -0.37187,2.07806 -0.30664,2.12305 0.27579,0.19021 5.27569,-2.3044 7.3125,-3.64844 2.27063,-1.4983 4.07722,-3.5624 4.60937,-5.26172 l 0.30274,-0.96094 8.10351,0.73047 c 13.16387,1.18972 13.69473,1.46793 13.16407,6.93164 -0.37102,3.8199 0.009,4.08678 2.72461,1.91407 2.23474,-1.78722 3.38033,-3.38993 3.73046,-5.20704 0.19362,-1.00492 0.73012,-1.84649 1.6211,-2.55468 1.17689,-0.93541 1.31626,-1.26391 1.20898,-2.8418 -0.11036,-1.6245 0.0223,-1.9124 1.52344,-3.25977 2.58434,-2.31962 3.35084,-4.04689 3.33203,-7.51562 -0.0129,-2.47996 -0.27157,-3.55183 -1.48828,-6.20313 -1.58206,-3.44747 -1.72979,-4.22969 -0.99414,-5.17773 0.95279,-1.22782 4.60367,-0.30236 6.21094,1.57422 1.24872,1.45796 1.7106,1.19142 1.41015,-0.81641 -0.39158,-2.61663 -2.62072,-5.48226 -6.21093,-7.98242 -5.79731,-4.03714 -9.08824,-4.45996 -15.88868,-2.03711 -3.9682,1.41377 -4.31968,1.4794 -6.95703,1.31445 -3.5195,-0.2201 -6.88657,-1.30571 -10.3789,-3.3457 -8.87318,-5.18309 -10.5856,-5.73507 -15.21485,-4.9043 -1.44603,0.25949 -3.10239,0.68587 -3.68164,0.94727 -0.98219,0.44325 -1.26112,0.39575 -4.11914,-0.70117 -4.93214,-1.893 -9.65527,-4.13249 -13.72265,-6.51172 -4.83821,-2.83016 -14.83835,-10.45635 -16.08204,-12.26367 -1.13084,-1.64335 -7.89531,-8.1856 -14.88672,-14.39844 l -5.02539,-4.4668 0.14258,-2.1582 c 0.28285,-4.22271 -3.56996,-9.70192 -10.89453,-15.49414 -2.49863,-1.97589 -6.72497,-4.38449 -9.31055,-5.30664 -1.53087,-0.54599 -1.43338,-0.35624 0.83789,1.63086 3.88089,3.39535 4.75502,5.54436 3.88868,9.56054 l -0.57032,2.64258 -1.60546,-2.00195 c -4.43665,-5.52553 -15.96375,-12.78142 -25.72071,-16.19141 l -2.41406,-0.84375 2.03516,1.83985 c 6.29021,5.68631 9.33314,9.78479 8.75195,11.78906 l -0.25977,0.90234 -3.03515,-0.8125 c -11.11759,-2.97355 -19.89011,-4.48559 -29.80078,-5.13867 -8.89647,-0.58626 -8.45044,-0.48166 -12.17774,-2.86523 -15.8132,-10.112367 -34.8015,-17.963303 -55.07816,-22.769514 -5.08355,-1.204958 -16.15302,-3.415902 -16.36524,-3.269532 z m 115.70508,58.025396 c 1.77752,0.0894 3.52563,0.42085 5.22461,0.99414 1.8724,0.63181 3.75934,1.78874 7.63867,4.68164 2.83319,2.11278 7.04795,5.15514 9.36914,6.76172 2.3212,1.60658 3.96264,2.92187 3.64453,2.92187 -0.31811,0 -2.63034,-0.44091 -5.13671,-0.98047 -5.05175,-1.08748 -6.70094,-1.60228 -8.55274,-2.66797 -2.01731,-1.16094 -5.70886,-1.9365 -12.32031,-2.58984 -7.23269,-0.71474 -10.1838,-1.60648 -12.60352,-3.80469 -0.82678,-0.75109 -1.50586,-1.49102 -1.50586,-1.64258 0,-0.44471 5.77556,-2.54248 8.84375,-3.21289 1.8153,-0.39665 3.62091,-0.55027 5.39844,-0.46093 z m 97.54883,34.03124 c 1.5765,0.058 3.25355,0.71581 5.24023,1.98438 2.71303,1.73234 7.20981,5.80771 6.01563,5.45117 -0.36237,-0.10816 -1.99913,-0.58458 -3.63477,-1.05859 -3.48686,-1.01049 -9.37264,-1.35704 -13.26562,-0.78125 -1.33275,0.19715 -2.4804,0.31749 -2.55274,0.26758 -0.31862,-0.21973 2.29213,-3.32931 3.56055,-4.24024 1.58361,-1.13724 3.06024,-1.68102 4.63672,-1.62305 z" />
      <path
         id="path4344"
         style="fill:#00e42a;fill-opacity:1;stroke-width:1.86387"
         d="m 243.93216,372.31108 c 0,11.93198 0,23.86396 0,35.79595 6.81507,0 13.63014,0 20.44521,0 0,-12.47392 0,-24.94783 0,-37.42174 -6.81507,0 -13.63014,0 -20.44521,0 0,0.54193 0,1.08386 0,1.62579 z" />
      <path
         id="path6640"
         style="fill:#00e42a;fill-opacity:1;stroke-width:1.86387"
         d="m 218.31143,372.31108 c 0,11.93198 0,23.86396 0,35.79595 6.81507,0 13.63014,0 20.44522,0 0,-12.47392 0,-24.94783 0,-37.42174 -6.81508,0 -13.63015,0 -20.44522,0 0,0.54193 0,1.08386 0,1.62579 z" />
      <path
         id="path6679"
         style="fill:#00e42a;fill-opacity:1;stroke-width:1.86387"
         d="m 192.6907,372.31108 c 0,11.93198 0,23.86396 0,35.79595 6.81556,0 13.63112,0 20.44669,0 0,-12.47392 0,-24.94783 0,-37.42174 -6.81557,0 -13.63113,0 -20.44669,0 0,0.54193 0,1.08386 0,1.62579 z" />
      <path
         id="path6718"
         style="fill:#00e42a;fill-opacity:1;stroke-width:1.86387"
         d="m 167.07144,372.31108 c 0,11.93198 0,23.86396 0,35.79595 6.81508,0 13.63015,0 20.44521,0 1e-5,-12.47392 0,-24.94783 0,-37.42174 -6.81506,0 -13.63013,0 -20.44521,0 0,0.54193 0,1.08386 0,1.62579 z" />
      <path
         id="path6757"
         style="fill:#00e42a;fill-opacity:1;stroke-width:1.86387"
         d="m 140.42476,372.31108 c 0,11.93198 0,23.86396 0,35.79595 6.81507,0 13.63015,0 20.44522,0 0,-12.47392 0,-24.94783 0,-37.42174 -6.81507,0 -13.63015,0 -20.44522,0 0,0.54193 0,1.08386 0,1.62579 z" />
      <path
         id="path6796"
         style="fill:#00e42a;fill-opacity:1;stroke-width:1.86387"
         d="m 114.80403,372.31108 c 0,11.93198 0,23.86396 0,35.79595 6.81507,0 13.63014,0 20.44522,0 0,-12.47392 0,-24.94783 0,-37.42174 -6.81508,0 -13.63015,0 -20.44522,0 0,0.54193 0,1.08386 0,1.62579 z" />
      <path
         id="path6835"
         style="fill:#00e42a;fill-opacity:1;stroke-width:1.86387"
         d="m 89.184778,372.31108 c -0.0019,12.13679 -0.0045,24.27359 -0.0059,36.41038 6.816959,-0.28116 13.634012,-0.55973 20.451122,-0.83671 0,-12.39982 0,-24.79964 0,-37.19946 -6.81507,0 -13.630146,0 -20.445217,0 0,0.54193 0,1.08386 0,1.62579 z" />
    </g>
  </g>
</svg>
