<?xml version="1.0" encoding="UTF-8" standalone="no"?>
<!-- Created with Inkscape (http://www.inkscape.org/) -->

<svg
   version="1.1"
   id="svg834"
   width="500"
   height="500"
   viewBox="0 0 200 200"
   sodipodi:docname="andrax-ng-dragon-terminal.svg"
   inkscape:version="1.2.2 (b0a8486541, 2022-12-01)"
   xml:space="preserve"
   inkscape:export-filename="../GIT Icons/andraxtool.png"
   inkscape:export-xdpi="96"
   inkscape:export-ydpi="96"
   xmlns:inkscape="http://www.inkscape.org/namespaces/inkscape"
   xmlns:sodipodi="http://sodipodi.sourceforge.net/DTD/sodipodi-0.dtd"
   xmlns="http://www.w3.org/2000/svg"
   xmlns:svg="http://www.w3.org/2000/svg"
   xmlns:rdf="http://www.w3.org/1999/02/22-rdf-syntax-ns#"
   xmlns:cc="http://creativecommons.org/ns#"
   xmlns:dc="http://purl.org/dc/elements/1.1/"><metadata
     id="metadata840"><rdf:RDF><cc:Work
         rdf:about=""><dc:format>image/svg+xml</dc:format><dc:type
           rdf:resource="http://purl.org/dc/dcmitype/StillImage" /></cc:Work></rdf:RDF></metadata><defs
     id="defs838"><linearGradient
       id="linearGradient883"
       inkscape:swatch="solid"><stop
         style="stop-color:#000000;stop-opacity:1;"
         offset="0"
         id="stop881" /></linearGradient><rect
       x="123.92838"
       y="227.62947"
       width="430.59601"
       height="320.49741"
       id="rect7321" /></defs><sodipodi:namedview
     pagecolor="#a4a4a4"
     bordercolor="#666666"
     borderopacity="1"
     objecttolerance="10"
     gridtolerance="10"
     guidetolerance="10"
     inkscape:pageopacity="0"
     inkscape:pageshadow="2"
     inkscape:window-width="1366"
     inkscape:window-height="705"
     id="namedview836"
     showgrid="false"
     inkscape:zoom="1.810084"
     inkscape:cx="117.67409"
     inkscape:cy="106.62488"
     inkscape:window-x="0"
     inkscape:window-y="0"
     inkscape:window-maximized="1"
     inkscape:current-layer="svg834"
     inkscape:pagecheckerboard="true"
     inkscape:showpageshadow="0"
     inkscape:deskcolor="#a4a4a4" /><g
     id="g316"
     transform="matrix(0.3,0,0,0.3,23.2,23.2)"><rect
       style="fill:#ffffff;fill-rule:evenodd;stroke-width:3.33295;stroke-linejoin:bevel;paint-order:markers stroke fill"
       id="rect2210"
       width="500"
       height="500"
       x="5.999999"
       y="5.999999"
       ry="49.511074" /><rect
       style="fill:#00ff00;fill-rule:evenodd;stroke-width:4.24043;stroke-linejoin:bevel;paint-order:markers stroke fill"
       id="rect2271"
       width="225.20488"
       height="104.89516"
       x="47.741623"
       y="20.853031"
       ry="0" /><path
       id="path381"
       style="fill:#000000;fill-rule:evenodd;stroke:none;stroke-width:3.671;stroke-linejoin:bevel;stroke-dasharray:none;stroke-opacity:1;paint-order:normal"
       d="m 45.613281,15.804688 -6.441406,3.623046 C 30.108167,24.526618 23.88862,31.802147 19.539062,42.402344 l -3.734374,9.107422 V 255.83984 460.16797 l 3.734374,9.10742 c 4.349558,10.6002 10.569105,17.87769 19.632813,22.97656 l 6.441406,3.62305 208.667969,0.25977 c 170.29648,0.21173 209.55507,-0.074 213.49805,-1.5586 11.69124,-4.40197 20.15703,-13.3358 25.43554,-26.83789 l 2.98047,-7.62695 V 255.83984 51.570312 l -3.01953,-7.734374 C 488.92594,32.961644 482.86248,25.50752 474.02734,20.289062 l -7.59179,-4.484374 H 256.02539 Z m 86.277339,11.361328 c 0.35191,-5.74e-4 4.73125,0.561321 6.77735,0.871093 8.42454,1.275393 16.31275,3.357547 22.88281,6.041016 1.5486,0.632516 1.36423,0.606149 5.06055,0.761719 4.11766,0.173303 7.76171,0.574208 12.38086,1.363281 l 1.26172,0.214844 0.10742,-0.238281 c 0.24149,-0.531863 -1.02132,-1.62191 -3.63477,-3.13086 l -0.8457,-0.486328 1,0.222656 c 4.05381,0.904902 8.84609,2.830603 10.68945,4.296875 l 0.66797,0.53125 0.23438,-0.701172 c 0.35993,-1.06575 -0.003,-1.634148 -1.61524,-2.535156 -0.9437,-0.527313 -0.98371,-0.578484 -0.34765,-0.433594 1.07422,0.244707 2.831,0.883874 3.86914,1.408203 3.0432,1.537053 4.6429,2.990783 4.52539,4.111329 l -0.0586,0.572265 2.08789,1.185547 c 2.90479,1.648659 5.71573,3.38422 6.18555,3.820313 0.51674,0.479606 4.67144,2.502881 6.68164,3.253906 1.68992,0.631358 3.65198,1.228135 5.70117,1.730469 1.18745,0.291088 1.30286,0.303164 1.71094,0.185547 0.24067,-0.06939 0.92849,-0.183101 1.5293,-0.251954 1.92335,-0.220446 2.63564,-0.0746 6.32226,1.300782 1.45099,0.541332 2.84824,0.830258 4.31055,0.888672 1.09577,0.04379 1.24193,0.02556 2.89062,-0.34961 2.82544,-0.642935 4.1929,-0.53029 6.60157,0.541016 1.49168,0.663458 2.41935,1.42478 2.58203,2.11914 0.12484,0.532812 -0.069,0.601726 -0.58789,0.214844 -0.66779,-0.497982 -2.18227,-0.741841 -2.57813,-0.416016 -0.30565,0.251577 -0.24519,0.460163 0.41211,1.375 0.50552,0.703566 0.61339,0.98644 0.61914,1.644532 0.008,0.920482 -0.31102,1.378587 -1.38476,1.99414 -0.62374,0.35753 -0.67872,0.434156 -0.63281,0.865235 0.0446,0.418721 -0.0149,0.503717 -0.50391,0.751953 -0.37017,0.187924 -0.59145,0.413026 -0.67188,0.679687 -0.14549,0.482197 -0.62231,0.90661 -1.55078,1.38086 -1.12867,0.576564 -1.285,0.50586 -1.13086,-0.507813 0.22049,-1.449871 -0.001,-1.522177 -5.4707,-1.83789 l -3.36523,-0.195313 -0.125,0.255859 c -0.2211,0.450929 -0.97458,0.996944 -1.91797,1.394532 -0.84625,0.356659 -2.92254,1.021169 -3.03711,0.970703 -0.0272,-0.01196 0.0292,-0.266821 0.12695,-0.564453 0.30002,-0.914423 0.23192,-1.72207 -0.17578,-2.072266 -0.63577,-0.546106 -1.34118,-0.757828 -3.97461,-1.185547 -4.06997,-0.661035 -5.60799,-1.094777 -9.36328,-2.648437 -4.3326,-1.792475 -7.57998,-2.690672 -13.32617,-3.6875 -7.50147,-1.301323 -12.09128,-1.63866 -15.21875,-1.121094 -1.18299,0.195774 -2.79969,0.643559 -4.11328,1.140625 l -0.83008,0.314453 1.875,0.414063 c 1.03191,0.228779 3.24711,0.687505 4.91992,1.019531 8.43582,1.674363 11.20296,2.503881 20.14844,6.03125 2.19552,0.865745 4.89051,1.891507 5.98828,2.279297 6.91676,2.443299 12.88059,3.479755 21.00195,3.646484 l 0.94336,0.01758 -1.44727,0.480469 c -1.66291,0.550397 -3.57251,0.993145 -5.1582,1.195312 -1.36951,0.174618 -1.04693,0.180117 -12.58398,-0.335937 -3.11407,-0.139288 -4.71992,-0.333955 -6.92969,-0.847656 -1.97659,-0.45951 -3.69197,-1.000595 -7.82227,-2.460938 -9.43094,-3.33449 -18.97393,-5.123355 -25.52148,-4.783203 -1.93032,0.100289 -3.41614,0.281252 -7.28906,0.884766 -4.64877,0.724402 -7.19524,0.597765 -11.19336,-0.5625 -2.65624,-0.770865 -6.97046,-2.543579 -7.67774,-3.154297 -0.21563,-0.186175 -0.80972,-0.620941 -1.32226,-0.966797 -0.51254,-0.345857 -1.07278,-0.81568 -1.24414,-1.042969 -0.4163,-0.552106 -0.65049,-1.643225 -0.52539,-2.447265 0.056,-0.359953 0.0495,-0.654297 -0.0156,-0.654297 -0.26792,0 -0.88263,0.682799 -1.09375,1.216797 -0.59356,1.501444 0.60962,3.470747 3.11914,5.105468 0.99937,0.650994 3.38036,1.678205 4.75,2.050782 0.59255,0.161192 1.07621,0.323855 1.07813,0.359375 9.6e-4,0.03549 -0.46205,0.271501 -1.0293,0.52539 -4.58438,2.051961 -4.67795,4.44401 -0.28711,7.332031 4.09704,2.694779 9.75347,5.036434 26.88672,11.126954 4.84593,1.722625 8.77406,3.142288 12.08398,4.373046 h -83 c -0.57556,-0.747821 -1.06337,-1.492259 -1.494136,-2.265624 -0.72947,-1.309647 -1.55776,-3.353207 -1.746094,-4.308594 -0.08245,-0.418347 -0.204601,-0.642432 -0.339844,-0.623047 -0.407034,0.05832 -2.042333,1.0289 -2.601562,1.542969 -1.125071,1.034206 -1.689025,2.522453 -1.701172,4.492187 l -0.0059,1.017578 -0.404296,-0.210937 c -1.11661,-0.580203 -2.335596,-2.127829 -2.902344,-3.683594 -1.578238,-4.332478 0.01883,-12.369881 3.710937,-18.664062 0.415823,-0.708903 0.718489,-1.30478 0.669922,-1.326172 -0.119071,-0.05249 -2.053983,0.435704 -3.34375,0.84375 -2.226464,0.704394 -3.421353,1.333945 -5.339843,2.818359 -0.902626,0.698413 -1.034282,0.768366 -1.087891,0.5625 C 84.528638,63.48072 85.760913,61.006 87.333984,58.951172 90.954015,54.222602 98.226113,48.742471 107.16992,44.003906 L 109.06641,43 108.24023,42.97461 c -0.45393,-0.01463 -1.3858,0.01402 -2.07031,0.06641 -2.04397,0.156407 -3.34123,0.433303 -7.017576,1.49414 l -0.453125,0.132813 0.292969,-0.248047 c 0.906784,-0.768077 4.163972,-2.157112 7.550782,-3.21875 6.39103,-2.003354 15.93102,-3.874298 26.09375,-5.117188 1.23092,-0.150535 2.21415,-0.303183 2.18555,-0.33789 -0.1221,-0.148245 -3.49282,-1.95809 -5.16016,-2.771485 -3.73951,-1.824277 -8.48769,-3.440058 -14.08984,-4.791015 -1.25458,-0.302547 -2.13679,-0.546855 -1.95899,-0.546875 1.6989,-6.92e-4 9.24235,1.042174 12.98438,1.796875 6.87034,1.385645 11.69722,2.793412 15.70117,4.576172 l 2.20508,0.982422 0.74218,-0.08008 c 0.40734,-0.0429 1.87255,-0.100936 3.25782,-0.130859 1.38527,-0.02995 2.51953,-0.07057 2.51953,-0.08984 0,-0.10113 -1.2032,-0.91439 -2.39063,-1.615234 -3.15557,-1.862435 -8.72725,-3.873278 -15.06445,-5.439453 -0.97399,-0.240703 -1.73904,-0.452073 -1.70117,-0.46875 0.003,-9.81e-4 0.0121,-0.002 0.0234,-0.002 z m 47.63477,15.394531 c -0.60348,3.46e-4 -1.21531,0.04344 -1.82812,0.128906 -1.27478,0.177911 -3.67383,0.733559 -3.67383,0.851563 0,0.04024 0.28344,0.238188 0.62695,0.4375 1.00535,0.583335 2.22934,0.820091 5.23438,1.009765 2.74692,0.173383 4.28294,0.379418 5.12109,0.6875 0.76939,0.282786 1.45383,0.4165 3.55273,0.705078 1.04135,0.143182 2.00063,0.261719 2.13282,0.261719 0.13215,0 -0.54731,-0.349057 -1.51172,-0.77539 -0.96441,-0.426334 -2.7174,-1.234265 -3.89453,-1.794922 -1.6118,-0.767683 -2.39588,-1.074519 -3.17383,-1.242188 -0.83824,-0.180658 -1.70391,-0.270044 -2.58594,-0.269531 z m 40.82422,9.035156 c -0.60947,0.0039 -1.18784,0.15067 -1.80469,0.433594 -0.527,0.241732 -1.61284,1.064742 -1.48047,1.123047 0.03,0.01324 0.50877,-0.01792 1.0625,-0.07031 1.61747,-0.1528 4.06301,-0.0611 5.51172,0.207031 0.67959,0.125783 1.35921,0.252534 1.50977,0.28125 0.49616,0.09461 -1.37278,-0.987568 -2.5,-1.447265 -0.87702,-0.357679 -1.6081,-0.532187 -2.29883,-0.527344 z M 71.355469,70.673828 h 7.318359 7.31836 v 0.56836 0.568359 l -0.216797,0.08594 c -0.764788,0.307006 -1.267942,0.772032 -1.472657,1.361328 -0.07854,0.226231 -0.08596,0.290182 -0.08594,0.728516 1.7e-5,0.55971 0.06552,0.940069 0.269531,1.556641 0.08688,0.262569 13.27095,31.962788 13.900391,33.421868 0.01466,0.034 0.02287,-4.63724 0.01953,-10.380853 l -0.0059,-10.443359 -0.07031,-0.201172 c -0.137705,-0.391128 -0.342621,-0.608355 -0.78125,-0.830078 l -0.236328,-0.119141 -0.0098,-0.361328 -0.0098,-0.359375 h 4.037112 4.03711 v 0.369141 0.36914 l -0.15039,0.06836 c -0.61355,0.286979 -0.75928,1.047079 -0.35157,1.828125 0.0786,0.150646 2.87675,4.103472 6.73047,9.505859 l 6.59571,9.246091 0.01,-9.650388 c 0.007,-7.047026 -0.001,-9.705269 -0.0273,-9.859375 -0.0792,-0.463285 -0.35292,-0.809922 -0.81641,-1.03125 l -0.23828,-0.111328 v -0.367187 -0.367188 h 3.47461 3.47461 v 0.367188 0.367187 l -0.23047,0.109375 c -0.46949,0.225579 -0.74279,0.569177 -0.82227,1.033203 -0.0266,0.155134 -0.036,3.922223 -0.0293,14.226563 l 0.0117,14.01757 0.0703,0.20313 c 0.13694,0.38882 0.36062,0.62116 0.80078,0.83203 l 0.20117,0.0977 v 0.37109 0.36719 h -3.73047 -3.73046 v -0.36719 -0.37109 l 0.15039,-0.0645 c 0.42828,-0.18247 0.66182,-0.67766 0.53906,-1.14062 -0.0562,-0.21169 -0.24008,-0.58346 -0.46485,-0.93359 -0.16315,-0.25418 -13.55865,-18.919541 -13.63281,-18.996095 -0.0379,-0.03915 -0.0432,1.41741 -0.0352,9.916015 0.009,9.27569 0.0135,9.97698 0.0644,10.15625 0.13019,0.45904 0.36988,0.74062 0.80273,0.94726 l 0.24414,0.11914 v 0.36719 0.36524 l -0.26367,0.0117 -0.26367,0.008 0.24805,0.0742 0.24804,0.0762 v 0.5664 0.56836 h -7.574216 -7.572266 v -0.56836 -0.5664 l 0.263672,-0.0723 c 1.072657,-0.28399 1.64129,-0.93259 1.710938,-1.95703 0.0358,-0.52661 -0.107215,-1.16382 -0.470703,-2.10156 -0.108003,-0.27861 -0.817587,-2.00972 -1.578125,-3.84766 l -1.384766,-3.34179 H 78.27542 68.912138 l -1.164062,2.87695 c -2.000076,4.94743 -1.994053,4.9253 -2.126953,5.67383 -0.109003,0.61395 -0.0638,1.05221 0.15039,1.48437 0.09201,0.18565 0.179028,0.29419 0.394532,0.50195 0.314269,0.303 0.582842,0.4665 1.078125,0.65625 l 0.333984,0.12891 v 0.56641 0.5664 h -6.820313 -6.822265 v -0.5664 -0.56641 l 0.328125,-0.10352 c 0.820284,-0.25996 1.336668,-0.62488 1.757812,-1.24023 0.232373,-0.33954 0.592606,-1.02006 0.835938,-1.57812 0.291371,-0.66823 15.574047,-38.560262 15.753906,-39.060548 0.360329,-1.002295 0.486575,-1.589724 0.484375,-2.246094 -0.0012,-0.356157 -0.01672,-0.498187 -0.07031,-0.689453 -0.191435,-0.68316 -0.711891,-1.256161 -1.460938,-1.601563 l -0.208984,-0.0957 v -0.572265 z m 133.085941,0.433594 h 8.98632 8.98829 v 0.554687 0.550782 l -0.24805,0.08594 c -0.98891,0.338787 -1.54883,0.887769 -1.69336,1.660156 -0.0625,0.334122 -0.0422,0.586106 0.0801,0.953125 0.23281,0.699038 0.63338,1.331118 2.25781,3.552735 0.67084,0.917458 2.30203,3.146702 3.62305,4.953125 1.32101,1.806415 2.41528,3.278479 2.43164,3.273437 0.0391,-0.01196 7.16855,-9.620968 7.55859,-10.1875 0.51129,-0.74262 0.84002,-1.330108 1.00781,-1.802734 0.24753,-0.697256 0.0567,-1.406638 -0.49218,-1.835938 -0.32659,-0.255441 -0.86889,-0.489552 -1.35157,-0.582031 -0.10229,-0.01957 -0.21335,-0.04228 -0.24414,-0.05078 -0.0503,-0.01394 -0.0566,-0.06836 -0.0566,-0.570313 v -0.554687 h 8.72852 8.72461 v 0.554687 0.556641 l -0.11914,0.01758 c -1.0663,0.16326 -1.69232,0.387767 -2.12696,0.757813 -0.33793,0.287707 -1.23933,1.34284 -2.46484,2.892578 -0.36324,0.459349 -3.62915,4.704681 -7.25977,9.43164 l -6.60156,8.595703 6.8418,9.427742 c 7.64856,10.53988 7.2799,10.03471 8.03516,11.00781 1.3925,1.79416 1.9574,2.33997 2.82421,2.73828 0.36543,0.16792 0.92955,0.35091 1.36133,0.4375 l 0.34375,0.0664 v 0.55273 0.55274 h -8.87109 -8.86914 v -0.55079 -0.55273 l 0.30664,-0.082 c 0.78234,-0.21246 1.30166,-0.57779 1.5293,-1.07617 0.10011,-0.21916 0.16065,-0.57422 0.13281,-0.7793 -0.0528,-0.3894 -0.35724,-1.03771 -0.80274,-1.71094 -0.13118,-0.19823 -2.20847,-3.05147 -4.61523,-6.34179 l -4.37695,-5.98438 -0.11719,0.16016 c -0.33935,0.46105 -8.16647,11.36287 -8.38281,11.67578 -0.72231,1.04473 -1.03416,1.72057 -1.03321,2.24023 0.003,1.02074 0.68808,1.68497 1.91406,1.85742 l 0.26563,0.0371 v 0.55274 0.55469 h -8.58398 -8.58204 v -0.55274 -0.55273 l 0.3125,-0.0488 c 0.96998,-0.15512 1.61549,-0.46921 2.24415,-1.08789 l 0.33593,-0.32813 -0.0215,-0.2539 c -0.0319,-0.40918 -0.15838,-0.79924 -1.08399,-3.34961 l -0.875,-2.41211 h -5.39648 -5.39453 l -0.59961,1.68555 c -1.2302,3.4594 -1.27372,3.59197 -1.32422,4.14648 -0.0259,0.2841 0.0392,0.61425 0.16406,0.83594 0.15302,0.27165 0.49185,0.54593 0.83789,0.68164 l 0.16797,0.0684 v 0.36718 0.36524 h -3.93945 -3.9375 v -0.36719 -0.36914 l 0.11914,-0.0371 c 0.29407,-0.0922 0.57252,-0.25863 0.79492,-0.47461 0.19118,-0.18565 0.25763,-0.28113 0.42383,-0.60742 0.10834,-0.21272 0.26003,-0.5536 0.33789,-0.75781 0.16554,-0.43428 8.97318,-25.252719 9.0918,-25.619147 0.24529,-0.757676 0.33632,-1.4976 0.23437,-1.916016 -0.10202,-0.418721 -0.36059,-0.76154 -0.7539,-0.996093 l -0.19336,-0.113282 v -0.367187 -0.367188 h 4.19531 4.19336 v 0.369141 0.371094 l -0.22266,0.113281 c -0.29111,0.147799 -0.57609,0.435369 -0.66992,0.677734 -0.15104,0.390084 -0.14229,0.889136 0.0234,1.521485 0.0925,0.35322 7.84803,21.544928 7.88476,21.544928 0.0217,0 12.22106,-16.36571 12.23828,-16.417975 0.008,-0.02422 -11.54574,-16.140119 -12.93945,-18.048828 -1.20277,-1.64719 -2.05201,-2.698133 -2.58594,-3.19336 -0.54034,-0.501196 -1.24284,-0.787117 -2.30468,-0.939453 -0.19116,-0.02738 -0.35073,-0.05433 -0.35743,-0.06055 -0.007,-0.006 -0.0213,-0.255453 -0.0312,-0.554687 z M 78.375,83.044922 c -0.01487,-0.01463 -6.579292,16.82059 -6.755859,17.326168 -0.01077,0.0308 1.344223,0.0391 6.703125,0.0391 6.381194,0 6.716291,-0.004 6.701172,-0.0547 C 84.984528,100.22306 78.394187,83.063803 78.375,83.044922 Z m 49.98438,3.224609 h 7.10156 c 4.54319,0 7.28778,0.01079 7.61523,0.03125 2.43808,0.152524 4.1649,0.628973 5.57031,1.533203 2.07098,1.332442 3.61802,3.475608 4.62891,6.417969 0.60795,1.769452 0.93838,3.476556 1.12695,5.816407 0.0646,0.80009 0.0548,3.76824 -0.0156,4.59961 -0.16908,1.99794 -0.43406,3.46216 -0.9082,5.02344 -0.89386,2.94334 -2.55657,5.40396 -4.61719,6.83007 -1.49506,1.03471 -3.28677,1.55099 -5.91406,1.70899 -0.31356,0.0188 -3.24429,0.0312 -7.55079,0.0312 h -7.0371 v -0.36914 -0.3711 l 0.19921,-0.0977 c 0.44511,-0.2149 0.66582,-0.44128 0.80274,-0.83008 l 0.0703,-0.20313 0.01,-14.02539 c 0.009,-15.434859 0.0241,-14.251843 -0.18555,-14.664058 -0.12,-0.236018 -0.34192,-0.434042 -0.66211,-0.587891 l -0.23437,-0.109375 v -0.367187 z m 29.84765,0 h 7.98438 c 5.15012,0 8.16393,0.01069 8.49414,0.03125 2.69854,0.168825 4.20318,0.701259 5.55078,1.962891 1.14669,1.07352 1.86348,2.490417 2.29492,4.537109 0.19857,0.941904 0.28281,1.834275 0.2832,2.96875 7.7e-4,2.220707 -0.33882,3.890127 -1.08789,5.349609 -0.81338,1.58481 -2.08177,2.71281 -3.79687,3.37305 -0.40961,0.15769 -1.1438,0.3774 -1.39453,0.41797 -0.0749,0.0122 -0.13672,0.0369 -0.13672,0.0547 0,0.0394 4.69487,9.0481 5.09961,9.78516 0.32877,0.59877 0.73539,1.29279 0.94531,1.61133 0.43707,0.6632 0.87156,0.99452 1.45703,1.11719 l 0.24609,0.0527 v 0.36523 0.36524 h -4.29101 -4.29102 v -0.3711 -0.36914 l 0.0879,-0.0195 c 0.17126,-0.0401 0.41524,-0.1603 0.53711,-0.26367 0.2736,-0.23211 0.31044,-0.54229 0.12891,-1.0664 -0.17981,-0.5192 -0.49953,-1.16964 -3.05469,-6.18555 l -2.42773,-4.76367 -3.17578,-0.008 -3.17578,-0.0117 0.01,5.54883 c 0.01,5.10475 0.0124,5.56108 0.0625,5.73828 0.12957,0.45851 0.33488,0.69833 0.77734,0.91016 l 0.27149,0.12891 v 0.36718 0.36524 h -3.69922 -3.69922 v -0.36719 -0.36914 l 0.23438,-0.11133 c 0.45397,-0.21672 0.7113,-0.52513 0.80859,-0.96875 0.0676,-0.3103 0.068,-28.043463 0,-28.353513 -0.0978,-0.44573 -0.34779,-0.753042 -0.79297,-0.972656 l -0.25,-0.125 v -0.361329 z m 59.10547,4.896485 c 0.0467,0.02738 0.0944,0.05606 0.13281,0.08008 0.004,0.0039 0.007,0.008 0.01,0.01172 -0.0234,-0.01295 -0.0454,-0.02247 -0.0977,-0.05273 -0.0129,-0.01137 -0.0285,-0.02531 -0.0449,-0.03906 z m -82.67578,0.359375 v 10.738279 10.73828 h 3.38672 c 1.9385,-2.9e-4 3.62001,-0.013 3.93164,-0.0312 1.27057,-0.0741 2.36569,-0.31244 3.13867,-0.68554 0.49971,-0.2412 1.07394,-0.66914 1.50977,-1.1211 1.51451,-1.57058 2.34697,-4.01679 2.54296,-7.47265 0.0483,-0.85148 0.0213,-2.85188 -0.0488,-3.5918 -0.30672,-3.242978 -1.18007,-5.473114 -2.70899,-6.929688 -0.92416,-0.880406 -2.06208,-1.358163 -3.74609,-1.56836 -0.38489,-0.04805 -0.84741,-0.05457 -4.21875,-0.06445 z m 29.84766,0.0039 v 4.1875 c 0,2.303124 0.0102,4.197996 0.0234,4.210937 0.0387,0.03796 9.24986,-0.0025 9.69531,-0.04297 0.77604,-0.0697 1.17447,-0.161143 1.60157,-0.367188 0.66478,-0.320707 1.08192,-0.734653 1.41406,-1.412109 0.29028,-0.592065 0.42973,-1.353707 0.43164,-2.351563 0.004,-1.963595 -0.53362,-3.116608 -1.76562,-3.785156 -0.25697,-0.139446 -0.70385,-0.273231 -1.08985,-0.328125 -0.65997,-0.09381 -1.50183,-0.108782 -5.89844,-0.109375 z m 34.58789,2.853515 c -0.0122,-0.02175 -0.89024,2.506614 -1.95313,5.617188 -1.06289,3.110586 -1.93963,5.672076 -1.94726,5.693356 -0.0116,0.0308 0.76936,0.0391 3.8457,0.0391 3.0685,0 3.86328,-0.008 3.86328,-0.0391 0,-0.0425 -3.77262,-11.246644 -3.80859,-11.310544 z" /><rect
       style="fill:#000000;fill-opacity:1;fill-rule:evenodd;stroke:#00ff00;stroke-width:8;stroke-linecap:round;stroke-linejoin:bevel;stroke-dasharray:none;stroke-opacity:1;paint-order:normal"
       id="rect940"
       width="437.82184"
       height="331.7912"
       x="37.089081"
       y="136.90196"
       ry="10.946432" /><g
       id="g962"
       transform="translate(-250.77922,-19.035374)"><path
         id="path1620"
         style="fill:#00ff00;fill-rule:evenodd;stroke-width:3.90017;stroke-linejoin:bevel;paint-order:markers stroke fill"
         d="m 569.47752,67.444226 c -5.33744,0.09184 -10.60129,1.975692 -14.36724,5.265735 -3.79705,3.279551 -6.4389,7.461644 -8.19127,11.821053 -2.47519,6.340136 -1.89231,13.499631 1.57882,19.479166 2.60396,4.62734 6.78296,8.46096 11.49152,11.54288 2.28095,1.52072 5.259,1.79944 8.04474,1.64886 4.9678,-0.22212 10.26163,-0.3237 14.61394,-2.68351 6.28717,-3.29149 10.37662,-9.10917 11.92888,-15.237751 2.07322,-8.088615 0.29106,-17.112764 -5.77004,-23.654546 -3.6239,-3.811122 -8.48371,-7.05112 -14.23001,-7.877677 -1.67953,-0.264342 -3.3945,-0.345699 -5.09934,-0.30421 z" /><path
         id="path1622"
         style="fill:#ffff00;fill-rule:evenodd;stroke-width:3.90782;stroke-linejoin:bevel;paint-order:markers stroke fill"
         d="m 629.8226,67.469984 c -6.57528,0.168409 -12.67979,3.292982 -16.74989,7.644655 -4.80721,5.077521 -7.47731,11.636548 -7.24824,18.199436 0.18264,7.097875 3.27307,14.355085 9.42563,19.214365 3.09126,2.46622 7.06977,4.05573 11.25182,4.48905 6.34935,0.6885 13.11409,-0.41125 18.40769,-3.59951 6.42102,-3.97378 10.09868,-10.62757 10.75882,-17.324272 0.99285,-9.090261 -3.24027,-18.661514 -11.61018,-24.384717 -4.00754,-2.756506 -9.07574,-4.411018 -14.23565,-4.239007 z" /><path
         id="path1624"
         style="fill:#ff0000;fill-rule:evenodd;stroke-width:3.89376;stroke-linejoin:bevel;paint-order:markers stroke fill"
         d="m 689.65843,67.463493 c -6.66483,0.21347 -12.79037,3.499031 -16.8495,7.977173 -6.12743,6.695087 -8.68109,15.956681 -6.01817,24.257275 1.39914,4.553139 4.79363,8.363909 8.36992,11.802449 2.10827,1.94236 4.39667,3.86933 7.22963,4.98317 3.30379,1.15959 6.94616,0.64121 10.40044,0.51006 3.97325,-0.22958 8.04559,-0.98989 11.31062,-3.07562 6.32917,-3.74703 10.11111,-10.08894 11.23709,-16.566649 1.39648,-7.895403 -0.80627,-16.482926 -6.98221,-22.545353 -3.40732,-3.324851 -7.78974,-6.118762 -12.91427,-6.957947 -1.90201,-0.32518 -3.84722,-0.44228 -5.78355,-0.384558 z" /></g><g
       id="g1152"
       transform="translate(6.8049011)"><rect
         style="fill:#00ff00;fill-opacity:1;stroke-width:4.74692"
         id="rect351-3"
         width="366.52792"
         height="41.942223"
         x="48.512421"
         y="247.09183"
         ry="0" /><rect
         style="fill:#00ff00;fill-opacity:1;stroke-width:3.09089"
         id="rect351-3-7"
         width="155.39958"
         height="41.942223"
         x="48.512421"
         y="190.16872"
         ry="0" /><rect
         style="fill:#00ff00;fill-opacity:1;stroke-width:4.15869"
         id="rect351-3-6"
         width="281.31662"
         height="41.942223"
         x="48.512421"
         y="305.46521"
         ry="0" /><rect
         style="fill:#00ff00;fill-opacity:1;stroke-width:4.96739"
         id="rect351-3-6-5"
         width="401.36536"
         height="41.942223"
         x="48.512421"
         y="364.23181"
         ry="0" /></g></g></svg>
