<?xml version="1.0" encoding="UTF-8" standalone="no"?>
<!-- Created with Inkscape (http://www.inkscape.org/) -->

<svg
   width="500"
   height="500"
   viewBox="0 0 52.916667 52.916666"
   version="1.1"
   id="svg5"
   xml:space="preserve"
   inkscape:version="1.4 (e7c3feb100, 2024-10-09)"
   sodipodi:docname="andrax-ng-android.svg"
   xmlns:inkscape="http://www.inkscape.org/namespaces/inkscape"
   xmlns:sodipodi="http://sodipodi.sourceforge.net/DTD/sodipodi-0.dtd"
   xmlns:xlink="http://www.w3.org/1999/xlink"
   xmlns="http://www.w3.org/2000/svg"
   xmlns:svg="http://www.w3.org/2000/svg"><sodipodi:namedview
     id="namedview7"
     pagecolor="#505050"
     bordercolor="#ffffff"
     borderopacity="1"
     inkscape:showpageshadow="0"
     inkscape:pageopacity="0"
     inkscape:pagecheckerboard="1"
     inkscape:deskcolor="#505050"
     inkscape:document-units="mm"
     showgrid="false"
     inkscape:zoom="2.6305802"
     inkscape:cx="102.25881"
     inkscape:cy="89.143832"
     inkscape:window-width="1366"
     inkscape:window-height="710"
     inkscape:window-x="0"
     inkscape:window-y="0"
     inkscape:window-maximized="1"
     inkscape:current-layer="layer1"
     showguides="true"><sodipodi:guide
       position="499.88825,-252.42125"
       orientation="1,0"
       id="guide582"
       inkscape:locked="false" /><sodipodi:guide
       position="375.51722,-297.56607"
       orientation="0,-1"
       id="guide3201"
       inkscape:locked="false" /><sodipodi:guide
       position="118.34482,42.675308"
       orientation="0,-1"
       id="guide3412"
       inkscape:locked="false" /><sodipodi:guide
       position="376.57092,-637.46337"
       orientation="0,-1"
       id="guide3436"
       inkscape:locked="false" /><sodipodi:guide
       position="16.092775,-159.50795"
       orientation="1,0"
       id="guide3438"
       inkscape:locked="false" /><sodipodi:guide
       position="976.85727,-178.53764"
       orientation="1,0"
       id="guide3440"
       inkscape:locked="false" /><sodipodi:guide
       position="256.03446,-17.635042"
       orientation="0,-1"
       id="guide577"
       inkscape:locked="false" /></sodipodi:namedview><defs
     id="defs2"><rect
       x="841.08075"
       y="898.16119"
       width="2754.4121"
       height="746.09924"
       id="rect1451" /><rect
       x="2939.5776"
       y="1961.4543"
       width="500.6543"
       height="151.21918"
       id="rect1405" /><rect
       x="3471.8745"
       y="266.99081"
       width="224.05957"
       height="186.5183"
       id="rect581" /><rect
       x="344.64523"
       y="1673.9677"
       width="1935.4048"
       height="224.38052"
       id="rect523" /><rect
       x="1779.2063"
       y="1238.8798"
       width="228.24973"
       height="201.17725"
       id="rect512" /><linearGradient
       id="linearGradient8120"><stop
         style="stop-color:#ff0000;stop-opacity:1;"
         offset="0"
         id="stop8116" /><stop
         style="stop-color:#ff0000;stop-opacity:0;"
         offset="1"
         id="stop8118" /></linearGradient><linearGradient
       xlink:href="#linearGradient8120"
       id="linearGradient8122"
       x1="416.65988"
       y1="552.31458"
       x2="421.72205"
       y2="-225.3533"
       gradientUnits="userSpaceOnUse"
       gradientTransform="matrix(0.59312171,0,0,0.58624652,8.3716843,11.24208)" /><rect
       x="1779.2063"
       y="1238.8798"
       width="228.24973"
       height="201.17725"
       id="rect512-3" /><rect
       x="344.64523"
       y="1673.9677"
       width="1935.4048"
       height="224.38052"
       id="rect523-6" /><rect
       x="3471.8745"
       y="266.99081"
       width="224.05957"
       height="186.5183"
       id="rect581-7" /><rect
       x="2939.5776"
       y="1961.4543"
       width="500.6543"
       height="151.21918"
       id="rect1405-5" /><rect
       x="841.08075"
       y="898.16119"
       width="2754.4121"
       height="746.09924"
       id="rect1451-3" /></defs><g
     inkscape:label="Layer 1"
     inkscape:groupmode="layer"
     id="layer1"><path
       id="path897-3"
       style="fill:#ffffff;stroke-width:0.246168"
       d="m 18.985763,4.151079 c -0.539946,0.016998 -1.023307,0.4408409 -1.148806,0.9609243 -0.09094,0.3859527 0.0088,0.792505 0.187175,1.1384029 0.338717,0.6320472 0.719262,1.2400125 1.102178,1.8459115 -0.987079,0.781476 -1.81013,1.7505003 -2.526334,2.7817413 -0.688054,0.996765 -1.278723,2.06762 -1.688079,3.20985 -0.244853,0.71047 -0.407302,1.447386 -0.518501,2.189895 -0.0097,0.104534 -0.0047,0.210705 0.01792,0.313321 -0.06519,0 -0.130388,0 -0.195582,0 2.1e-5,0.09713 1.94e-4,0.194254 2.58e-4,0.29138 -0.381416,-0.30257 -0.820066,-0.537073 -1.292304,-0.659695 -0.907683,-0.253489 -1.91855,-0.161775 -2.74494,0.301663 -0.6206367,0.355589 -1.0810224,0.969577 -1.2695271,1.658449 -0.2110219,0.669835 -0.2691064,1.374213 -0.3249102,2.070629 -0.072727,1.072456 -0.078801,2.148038 -0.092379,3.22252 -0.014101,1.757654 -0.0078,3.515677 0.036872,5.272871 0.030189,0.923223 0.083872,1.849685 0.2582421,2.758337 0.1229773,0.570609 0.3389133,1.137081 0.7241511,1.583327 0.3932792,0.452976 0.9545641,0.745458 1.5436181,0.841017 0.580605,0.118354 1.180811,0.150773 1.769476,0.07808 0.473529,-0.06761 0.934782,-0.261056 1.29087,-0.585039 0.05073,-0.04331 0.09923,-0.08919 0.147177,-0.135559 0.01955,1.225652 0.03351,2.452037 0.104368,3.676028 0.08072,0.670089 0.481958,1.283395 1.040072,1.655142 0.574921,0.403584 1.267545,0.600851 1.956738,0.692274 0.461888,0.0613 0.928596,0.07225 1.394052,0.07359 0.0037,1.673505 -0.01625,3.348335 0.06826,5.020304 0.05082,0.821624 0.152963,1.648944 0.422452,2.430263 0.21319,0.581407 0.591095,1.117699 1.121514,1.447962 0.500954,0.311752 1.096103,0.433042 1.679112,0.454563 0.651088,0.02991 1.321124,-0.05599 1.911761,-0.344574 0.729067,-0.364199 1.264949,-1.068539 1.47056,-1.852492 0.235014,-0.804392 0.274454,-1.647693 0.316214,-2.479808 0.06023,-1.402001 0.03093,-2.805589 0.04048,-4.20837 3.22e-4,-0.155907 5.8e-4,-0.311815 8.9e-4,-0.467722 0.523692,0 1.047384,0 1.571076,0 0,2.411518 0,4.823037 0,7.234556 0.550645,0.53108 1.023802,1.148054 1.648084,1.598503 0.814696,0.563594 1.898773,0.696164 2.832289,0.375211 0.492071,-0.15949 0.968246,-0.400252 1.339238,-0.767204 0.306832,-0.297169 0.511403,-0.684708 0.643653,-1.087686 0.1499,-0.457075 0.206564,-0.937505 0.257474,-1.41384 0.07242,-0.742972 0.08509,-1.48994 0.10904,-2.235626 0.02925,-1.222851 0.04501,-2.445969 0.06633,-3.668974 0.97402,-0.08714 1.956064,-0.164135 2.904556,-0.415594 0.681556,-0.22657 1.212133,-0.830723 1.380503,-1.526083 0.203425,-0.690389 0.232436,-1.41449 0.284266,-2.127912 0.04158,-0.685781 0.05595,-1.372966 0.06771,-2.059867 0.298002,0.296329 0.661313,0.536985 1.070913,0.643706 0.516682,0.145649 1.061006,0.139992 1.591934,0.101155 0.540387,-0.04761 1.082612,-0.212209 1.518475,-0.544078 0.386999,-0.286792 0.694502,-0.662703 1.023425,-1.009726 0.139246,-0.156743 0.276906,-0.332197 0.308004,-0.546178 0.04696,-0.258151 0.01296,-0.521383 0.02336,-0.781844 0,-4.396756 0,-8.793512 0,-13.190268 -0.528902,-0.461727 -0.977771,-1.019099 -1.571022,-1.403909 -0.839676,-0.533757 -1.935024,-0.65455 -2.862825,-0.286935 -0.387823,0.144418 -0.746969,0.361907 -1.062589,0.629135 3.8e-5,-0.154773 1.29e-4,-0.309544 1.29e-4,-0.464317 -0.03901,0.01153 -0.07807,0.0229 -0.117122,0.03431 -0.196375,-0.892099 -0.338192,-1.804488 -0.6817,-2.65559 C 37.542742,12.324506 36.665509,10.957687 35.63909,9.7290749 35.090631,9.0772681 34.483843,8.4732662 33.818244,7.9415456 34.238869,7.3075987 34.684511,6.681775 34.985672,5.9790824 35.118451,5.6048937 35.120591,5.1676075 34.920296,4.8165044 34.623339,4.2835704 33.917314,4.02327 33.347991,4.2449262 32.988643,4.3728588 32.711509,4.6546888 32.484746,4.9519727 32.085731,5.4497546 31.768958,6.0069252 31.417363,6.5363609 30.948426,6.4388249 30.495754,6.2795874 30.031681,6.156136 29.270598,5.93753 28.490408,5.7697885 27.697707,5.7297901 25.759129,5.5899239 23.798946,5.8939098 21.971637,6.5470828 21.838124,6.5956388 21.705272,6.645786 21.572918,6.69744 21.180788,6.1564658 20.859008,5.5669072 20.438604,5.0461712 20.210544,4.7617091 19.95189,4.4925202 19.6355,4.3068058 19.436363,4.2020141 19.211,4.1460182 18.985774,4.151079 Z" /><ellipse
       style="fill:#ff0000;fill-rule:evenodd;stroke:#0092f0;stroke-width:0.131967;stroke-linejoin:bevel;paint-order:markers stroke fill"
       id="path728"
       cx="31.752165"
       cy="12.766334"
       rx="1.8893275"
       ry="1.5979489" /><ellipse
       style="fill:#ff0000;fill-rule:evenodd;stroke:#0092f0;stroke-width:0.131967;stroke-linejoin:bevel;paint-order:markers stroke fill"
       id="path726"
       cx="21.652819"
       cy="12.738214"
       rx="1.9590949"
       ry="1.6321937" /><path
       id="path897"
       style="fill:#000000;stroke-width:0.246168"
       d="m 19.016502,5.2780328 c -0.059,0.00986 -0.08997,0.078785 -0.08997,0.2098285 0,0.1064573 0.386107,0.8019085 0.8579,1.5452289 l 0.857659,1.3512621 -0.55909,0.3972802 c -1.898584,1.3484235 -3.937129,4.4204745 -4.374288,6.5920725 l -0.165849,0.824013 H 26.574087 37.605305 L 37.437109,15.373705 C 36.995501,13.209313 34.967043,10.185301 32.957341,8.6958327 l -0.666913,-0.49412 0.84615,-1.2626358 c 0.884035,-1.3192457 1.004439,-1.644617 0.608894,-1.644617 -0.130433,0 -0.58757,0.5741878 -1.01576,1.2762201 C 31.877485,7.9679162 32.056913,7.9330659 29.561459,7.1905288 27.224816,6.4952533 24.065381,6.7906466 21.511031,7.9434659 21.202315,8.0828058 20.901509,7.7947118 20.222541,6.7097133 19.622561,5.7510016 19.193522,5.2483711 19.016502,5.2780328 Z m 2.210756,6.3598812 c 0.321571,0.0056 0.631078,0.155773 0.79776,0.486191 0.319952,0.634316 0.316029,0.668086 -0.128261,1.139456 -0.675854,0.717089 -1.775228,0.335936 -1.775228,-0.615598 0,-0.627219 0.569777,-1.01937 1.105729,-1.010049 z m 10.140436,0.05861 c 0.816971,0.04323 1.285372,0.992663 0.655167,1.661329 -0.157731,0.167351 -0.458718,0.304401 -0.669027,0.304401 -1.041692,0 -1.34828,-1.66083 -0.355423,-1.925236 0.128751,-0.0343 0.252575,-0.04669 0.369283,-0.04049 z m 9.696921,5.489999 c -0.571833,0.02126 -1.143274,0.278242 -1.603743,0.766812 l -0.698624,0.741041 v 6.339491 6.339207 l 0.618754,0.780121 c 0.520451,0.656218 0.787708,0.780116 1.683613,0.780116 0.812141,0 1.20436,-0.147795 1.651664,-0.622397 l 0.586574,-0.622391 v -6.61643 -6.616424 l -0.632147,-0.621833 c -0.461964,-0.454257 -1.034255,-0.668584 -1.606091,-0.647313 z m -29.22701,0.02236 c -0.383645,0.0082 -0.758066,0.09874 -1.072373,0.277217 -0.9944293,0.564681 -1.1590564,1.641768 -1.1590564,7.58655 0,5.881043 0.1625759,6.987451 1.1127754,7.573524 0.242338,0.149455 0.888144,0.27565 1.435079,0.279485 0.825558,0.0064 1.101402,-0.127421 1.624412,-0.786915 l 0.630032,-0.794275 -0.07094,-6.454745 -0.07118,-6.454453 -0.670436,-0.611635 c -0.454,-0.414085 -1.118944,-0.628479 -1.758313,-0.614753 z m 3.504413,0.510263 0.0032,9.318669 c 0.0018,5.125208 0.06924,9.580056 0.149876,9.899439 0.212012,0.83975 1.283845,1.32096 2.9418,1.32096 h 1.445879 v 3.558248 c 0,3.747046 0.253171,5.00652 1.112777,5.536723 0.565126,0.348545 1.892719,0.3626 2.485131,0.02603 0.967477,-0.549371 1.18184,-1.534039 1.18184,-5.431664 v -3.689357 h 1.911712 1.911949 v 3.949866 3.949868 l 0.698624,0.74104 c 0.753352,0.799327 1.697587,0.958301 2.729207,0.459577 0.952962,-0.4607 1.109143,-1.149898 1.172442,-5.170024 l 0.05991,-3.80347 1.672807,-0.143559 c 0.920055,-0.07886 1.846553,-0.227611 2.058765,-0.330742 0.856388,-0.416179 0.928606,-1.257003 0.928606,-10.82142 V 17.719126 H 26.574214 Z" /><rect
       style="fill:#ff0000;stroke-width:0.277019;stroke-linecap:round;paint-order:stroke fill markers"
       id="rect1"
       width="2.5781248"
       height="1.1912714"
       x="26.91918"
       y="22.011852" /><path
       style="fill:#00ff00;stroke-width:0.0176806"
       d="m 31.448794,34.923789 c 0.196929,-0.03417 0.334454,-0.149476 0.404518,-0.339156 0.05041,-0.136458 0.04421,-0.50367 -0.01254,-0.743187 -0.196654,-0.830037 -0.784651,-1.610478 -1.944417,-2.580803 -0.557707,-0.466609 -1.209325,-0.938066 -2.513635,-1.818656 -1.742253,-1.176262 -2.317414,-1.628295 -2.734035,-2.148736 -0.446498,-0.557767 -0.436964,-1.019956 0.02921,-1.416251 0.05768,-0.04904 0.104767,-0.09477 0.104632,-0.101632 -1.29e-4,-0.0069 -0.04955,-0.03795 -0.1098,-0.06908 -0.139275,-0.07196 -0.381204,-0.270484 -0.482828,-0.39621 -0.255191,-0.315715 -0.377518,-0.696003 -0.317161,-0.985978 0.02147,-0.103132 0.08375,-0.234996 0.110995,-0.234996 0.0066,0 0.0074,0.05688 0.0017,0.126398 -0.01272,0.155285 0.0111,0.36604 0.05344,0.472668 0.01743,0.0439 0.07433,0.134459 0.126446,0.201254 0.05212,0.06679 0.112703,0.150862 0.134628,0.186818 0.07192,0.117948 0.510554,0.46013 0.780664,0.609004 0.406563,0.224085 0.665606,0.248885 1.138331,0.108981 0.393832,-0.116556 0.544828,-0.151335 0.741119,-0.170702 0.66581,-0.06569 1.636279,0.279709 2.595296,0.923698 0.420002,0.282037 0.594283,0.386095 0.795279,0.47484 0.224706,0.09921 0.388083,0.137273 0.704748,0.164174 1.173184,0.09967 1.140523,0.09802 1.279784,0.0643 0.161245,-0.03905 0.355393,-0.124466 0.524494,-0.230766 l 0.147167,-0.09251 -0.09621,-0.0038 c -0.82585,-0.0322 -1.432166,-0.232062 -2.135523,-0.70394 -0.11163,-0.07489 -0.385634,-0.272969 -0.608895,-0.44017 -0.909652,-0.681241 -1.191156,-0.841244 -2.04898,-1.164615 -0.170105,-0.06412 -0.395133,-0.152742 -0.500065,-0.196927 l -0.190782,-0.08034 0.08447,-0.0607 c 0.133582,-0.096 0.297895,-0.182599 0.418191,-0.220409 0.318028,-0.09996 0.78481,-0.03458 1.547619,0.21674 0.584324,0.192518 0.914488,0.366057 1.355061,0.712238 0.381874,0.300058 0.538215,0.384095 0.95208,0.511761 0.267789,0.08261 0.339625,0.123245 0.404275,0.228712 0.04146,0.06763 0.04846,0.22369 0.01795,0.400294 -0.0099,0.05748 -0.0158,0.106397 -0.01304,0.108703 0.01165,0.0097 0.222864,-0.11808 0.30892,-0.186961 0.09593,-0.07679 0.172365,-0.182565 0.194848,-0.269656 l 0.01274,-0.04934 0.342417,0.03754 c 0.556166,0.06097 0.578566,0.07528 0.556147,0.355299 -0.01568,0.19577 2.58e-4,0.209359 0.115061,0.09801 0.09442,-0.0916 0.142933,-0.173658 0.157727,-0.266785 0.0082,-0.0515 0.03075,-0.09474 0.06839,-0.131038 0.04972,-0.04794 0.05559,-0.06468 0.05106,-0.145547 -0.0047,-0.08325 0.0011,-0.09811 0.06448,-0.167164 0.109187,-0.118881 0.141507,-0.207337 0.140714,-0.38511 -5.8e-4,-0.127098 -0.01142,-0.181999 -0.06282,-0.317878 -0.06684,-0.176683 -0.07321,-0.216784 -0.04213,-0.265371 0.04026,-0.06293 0.19457,-0.01549 0.262476,0.08068 0.05276,0.07472 0.07225,0.06101 0.05956,-0.04189 -0.01655,-0.134103 -0.11076,-0.280966 -0.262443,-0.409099 -0.244934,-0.206903 -0.383994,-0.228519 -0.671309,-0.104348 -0.167654,0.07246 -0.182432,0.07585 -0.293858,0.06739 -0.148699,-0.01128 -0.29099,-0.06692 -0.438539,-0.171464 -0.374887,-0.265634 -0.447206,-0.293912 -0.64279,-0.251336 -0.06109,0.0133 -0.131104,0.03514 -0.155576,0.04854 -0.0415,0.02272 -0.05322,0.0203 -0.173969,-0.03592 -0.208382,-0.09701 -0.407943,-0.211932 -0.579787,-0.333867 -0.204414,-0.145046 -0.626898,-0.535819 -0.679444,-0.628445 -0.04778,-0.08422 -0.333616,-0.419593 -0.629,-0.738002 l -0.212354,-0.228906 0.0061,-0.110543 c 0.01195,-0.216413 -0.150805,-0.497198 -0.460265,-0.794049 -0.105566,-0.101264 -0.284157,-0.224749 -0.393396,-0.272009 -0.06468,-0.02798 -0.06058,-0.01832 0.03538,0.08352 0.163965,0.174011 0.200918,0.284218 0.164315,0.490047 l -0.02408,0.135394 -0.06784,-0.102486 c -0.187446,-0.283136 -0.67457,-0.655132 -1.086796,-0.829894 l -0.101833,-0.04317 0.08592,0.09422 c 0.26575,0.291423 0.394351,0.501565 0.369795,0.604284 l -0.01104,0.04619 -0.128262,-0.04161 C 27.601786,20.901639 27.231154,20.8241 26.812433,20.79063 26.436561,20.76058 26.455421,20.76597 26.297944,20.643809 25.629846,20.125549 24.8276,19.723274 23.970922,19.476955 c -0.214776,-0.06175 -0.682458,-0.175157 -0.691424,-0.167656 -0.0038,0.0032 0.07403,0.04389 0.173073,0.09038 0.644423,0.302477 1.210914,0.691073 1.531799,1.050766 0.12075,0.135353 0.243002,0.292164 0.243002,0.311694 0,0.0037 -0.115255,0.01148 -0.256122,0.01726 -0.140868,0.0058 -0.290012,0.01729 -0.331433,0.02558 l -0.07531,0.01507 -0.224307,-0.18968 c -0.407155,-0.344305 -0.8981,-0.61598 -1.596737,-0.883589 -0.380517,-0.145755 -1.147466,-0.347619 -1.320224,-0.347487 -0.01808,1.5e-5 0.07151,0.04783 0.199085,0.106264 0.569671,0.260911 1.052683,0.572719 1.432947,0.925043 0.169549,0.157091 0.512252,0.506873 0.524667,0.535504 0.0029,0.0067 -0.09713,0.03597 -0.222295,0.06505 -1.033433,0.24004 -2.0036,0.601375 -2.653494,0.988283 -0.344401,0.205035 -0.67565,0.473134 -0.767861,0.621472 l -0.02965,0.0477 0.04598,-0.0252 c 0.373843,-0.204878 0.505941,-0.258265 0.713786,-0.288472 0.06961,-0.01012 0.16433,-0.01609 0.210489,-0.01326 l 0.08393,0.0051 -0.192858,0.194062 c -0.909483,0.91516 -1.648961,1.973444 -2.017075,2.886675 -0.159965,0.396846 -0.28537,0.874453 -0.266237,1.01397 0.0055,0.03976 0.01897,0.02654 0.110756,-0.108347 0.195088,-0.286684 0.316605,-0.408556 0.54301,-0.544594 0.131154,-0.07881 0.327773,-0.173059 0.339881,-0.162928 0.0049,0.0041 -0.02562,0.119531 -0.0679,0.256442 -0.375446,1.215597 -0.538025,2.767858 -0.377534,3.60459 0.05763,0.300464 0.18172,0.599505 0.295265,0.711561 l 0.04097,0.04043 5.8e-4,-0.196391 c 0.0012,-0.380413 0.05856,-0.667914 0.172964,-0.86765 0.05687,-0.09928 0.223316,-0.286552 0.264707,-0.297818 0.01375,-0.0037 0.02612,0.03929 0.0345,0.120083 0.01915,0.184517 0.103317,0.579018 0.177494,0.831949 0.176342,0.601287 0.447185,1.115484 1.012325,1.921895 0.43819,0.625264 0.474472,0.711339 0.473751,1.123943 -4.51e-4,0.282251 -0.0312,0.478064 -0.125087,0.797714 -0.110049,0.374658 -0.25671,0.7221 -0.430218,1.019184 -0.05533,0.09473 -0.104262,0.179369 -0.108745,0.188083 -0.0045,0.0087 0.04326,-0.03074 0.106089,-0.08768 0.06283,-0.05694 0.209921,-0.175845 0.326867,-0.264235 1.347238,-1.018278 2.929893,-1.355107 4.871161,-1.036704 0.895495,0.146878 1.783539,0.397799 3.228112,0.912125 1.168222,0.415931 1.751839,0.55673 2.075139,0.500628 z m 1.162638,-10.569758 c -0.147317,-0.05179 -0.396006,-0.06956 -0.560483,-0.04004 -0.05631,0.0101 -0.10488,0.01628 -0.107937,0.01372 -0.01346,-0.01126 0.0969,-0.170618 0.150485,-0.217302 0.133813,-0.11657 0.249393,-0.111414 0.417267,0.01862 0.114623,0.08878 0.304603,0.297535 0.25415,0.279262 -0.01531,-0.0055 -0.08438,-0.02996 -0.153482,-0.05425 z m -3.567155,-1.334026 c -0.213434,-0.05574 -0.283129,-0.0821 -0.361368,-0.13672 -0.08523,-0.0595 -0.241263,-0.0993 -0.520594,-0.132779 -0.305577,-0.03663 -0.430273,-0.08228 -0.532505,-0.194939 -0.03493,-0.03849 -0.06351,-0.07634 -0.06351,-0.08411 0,-0.02279 0.243938,-0.130338 0.373569,-0.164697 0.153389,-0.04066 0.305311,-0.03139 0.448872,0.02737 0.07911,0.03238 0.158785,0.09161 0.322687,0.23987 0.119701,0.10828 0.297877,0.26424 0.395946,0.346578 0.09807,0.08234 0.167311,0.149704 0.153871,0.149704 -0.01344,0 -0.111075,-0.02262 -0.216968,-0.05027 z"
       id="path844"
       inkscape:connector-curvature="0" /></g></svg>
