<?xml version="1.0" encoding="UTF-8" standalone="no"?>
<!-- Created with Inkscape (http://www.inkscape.org/) -->

<svg
   version="1.1"
   id="svg926"
   width="500"
   height="500"
   viewBox="0 0 512 512"
   sodipodi:docname="andrax-ng-codehackide.svg"
   inkscape:version="1.2.2 (b0a8486541, 2022-12-01)"
   xmlns:inkscape="http://www.inkscape.org/namespaces/inkscape"
   xmlns:sodipodi="http://sodipodi.sourceforge.net/DTD/sodipodi-0.dtd"
   xmlns="http://www.w3.org/2000/svg"
   xmlns:svg="http://www.w3.org/2000/svg">
  <defs
     id="defs930" />
  <sodipodi:namedview
     id="namedview928"
     pagecolor="#636363"
     bordercolor="#ffffff"
     borderopacity="1"
     inkscape:pageshadow="0"
     inkscape:pageopacity="0"
     inkscape:pagecheckerboard="true"
     showgrid="false"
     inkscape:zoom="2.4892962"
     inkscape:cx="100.83171"
     inkscape:cy="102.63945"
     inkscape:window-width="1366"
     inkscape:window-height="691"
     inkscape:window-x="0"
     inkscape:window-y="24"
     inkscape:window-maximized="1"
     inkscape:current-layer="g932"
     inkscape:showpageshadow="0"
     inkscape:deskcolor="#595959" />
  <g
     inkscape:groupmode="layer"
     inkscape:label="Image"
     id="g932">
    <g
       id="g1745"
       transform="matrix(0.8192,0,0,0.8192,46.2848,46.2848)">
      <path
         style="opacity:1;fill:#ececec;fill-rule:evenodd;stroke-width:2.66164;stroke-linejoin:round;paint-order:stroke markers fill"
         id="path1571"
         sodipodi:type="arc"
         sodipodi:cx="256"
         sodipodi:cy="256"
         sodipodi:rx="250"
         sodipodi:ry="250"
         sodipodi:start="4.7101026"
         sodipodi:end="4.7087761"
         sodipodi:open="true"
         sodipodi:arc-type="arc"
         d="M 255.42841,6.0006534 A 250,250 0 0 1 505.99914,255.3455 250,250 0 0 1 256.73741,505.99891 250,250 0 0 1 6.0013458,256.82031 250,250 0 0 1 255.09678,6.0016316" />
      <g
         id="g1517"
         transform="matrix(0.86034882,0,0,0.84654474,35.750704,39.284545)">
        <rect
           style="opacity:1;fill:#4d4d4d;fill-rule:evenodd;stroke-width:2.0808;stroke-linejoin:round;paint-order:stroke markers fill"
           id="rect349"
           width="204.23204"
           height="366.78394"
           x="120.054"
           y="31.198395"
           ry="0" />
        <g
           id="g2429">
          <path
             id="path1034"
             style="fill:#000000;stroke-width:3.38633"
             d="m 275.90141,8.1418102 c -16.87811,-0.168575 -39.08399,-0.133759 -62.55,0.145106 -106.15557,1.261555 -99.61839,-2.078088 -99.61839,50.8646668 0,33.861797 -0.50166,36.786024 -5.94261,34.646276 -15.920389,-6.260985 -27.295107,-5.853987 -34.422068,1.233365 -8.467054,8.420016 -8.938626,14.212066 -2.201949,27.166956 4.524795,8.70135 32.983087,30.62301 39.754497,30.62301 1.54748,0 2.81213,4.30777 2.81213,9.5701 0,5.26234 1.14608,10.71229 2.54684,12.10938 1.40076,1.3971 3.31088,-29.12391 4.24472,-67.82175 l 1.69789,-70.361035 94.67062,-0.896991 c 67.00762,-0.635906 96.02935,0.226962 99.32655,2.948198 3.33741,2.754385 4.65595,12.767746 4.65595,35.312425 0,17.335915 1.52502,32.401623 3.39578,33.551423 2.195,1.34904 3.39578,-12.911164 3.39578,-40.325023 0,-37.725985 -0.74082,-43.145894 -6.70534,-49.07728 -3.68785,-3.667355 -10.20747,-7.544443 -14.49176,-8.6137508 -2.14212,-0.534662 -13.69053,-0.906487 -30.56864,-1.075076 z m 29.21563,98.0556298 c -4.06893,-0.26177 -6.46187,2.39372 -10.00825,7.77612 -9.69512,14.71444 -3.87407,30.39136 19.87723,53.50288 19.19665,18.6795 21.06307,21.8338 25.07705,42.44218 5.7948,29.75106 5.71948,34.29978 -0.51069,31.92233 -4.44266,-1.69534 -5.09367,8.67599 -5.09367,81.15133 0,78.59299 -0.368,83.46293 -6.79156,89.85079 -6.34983,6.31455 -11.31925,6.75382 -76.40505,6.75382 -40.22959,0 -69.61348,1.31341 -69.61348,3.11307 0,5.68688 31.82602,30.2735 60.34141,46.61716 15.46812,8.86559 34.57672,20.27282 42.46715,25.34659 7.8904,5.07377 14.90741,9.25273 15.59274,9.2865 0.68537,0.0338 33.69059,-19.30534 73.34087,-42.97642 l 72.08738,-43.0424 -4.11871,-10.14389 c -2.26834,-5.58139 -5.07472,-26.1064 -6.23444,-45.60804 -3.35656,-56.44409 -15.45039,-113.70913 -37.73825,-178.72547 -11.58939,-33.80751 -16.32657,-40.065 -37.31378,-49.29494 -9.88095,-4.34554 -25.58575,-12.56396 -34.89963,-18.263 -10.24666,-6.2698 -15.9874,-9.44682 -20.05632,-9.70861 z M 99.08209,166.42116 c -7.204354,-0.10506 -19.916948,6.05637 -23.498531,11.39046 -8.354009,12.44175 4.188045,41.74192 22.105732,51.64294 10.030259,5.54255 10.339659,5.50289 20.679769,-2.58544 5.69423,-4.45421 8.94708,-10.29369 8.94708,-16.0601 0,-12.2576 -20.3634,-44.27305 -28.23405,-44.38786 z m 225.18928,18.48065 c -2.23364,-1.37282 -3.39578,30.99759 -3.39578,94.57979 0,60.17457 -1.32686,99.12737 -3.51517,103.19353 -3.34349,6.2127 -8.0356,6.52959 -96.09658,6.52959 -97.97677,0 -100.73926,-0.43197 -100.73926,-15.86883 0,-4.27179 -1.5281,-7.76952 -3.39578,-7.76952 -1.86768,0 -3.39578,7.59804 -3.39578,16.88454 0,12.382 1.81108,18.68554 6.79156,23.63835 6.4614,6.42558 11.32033,6.75381 99.9301,6.75381 h 93.13856 l 7.03694,-8.89737 c 6.77417,-8.56418 7.03697,-12.79804 7.03697,-112.92854 0,-65.71032 -1.25083,-104.79707 -3.39578,-106.11535 z m -206.93033,52.26951 c -0.71238,-0.0682 -1.48861,0.22058 -2.24838,0.97614 -1.12086,1.11465 -0.83936,3.95162 0.62344,6.30532 2.13946,3.44235 2.94195,3.4447 4.09219,0.0132 1.23109,-3.67277 -0.33011,-7.08997 -2.46725,-7.29465 z m -23.147015,0.83104 c -3.989349,-0.21724 -7.755547,1.32719 -11.069448,4.7092 -11.82763,12.07072 -9.957893,29.15611 4.801847,43.83384 12.803736,12.7326 20.495186,14.25779 29.786026,5.8964 8.83278,-7.94911 7.68593,-24.01244 -2.7856,-39.0389 -6.82008,-9.78667 -14.08391,-15.0385 -20.732825,-15.40054 z m 24.221455,64.71526 c -0.41252,-0.0135 -0.8652,0.11718 -1.33974,0.40891 -1.89814,1.16659 -2.57344,3.53428 -1.49891,5.26326 2.91099,4.68391 4.94775,3.81445 4.94775,-2.11719 0,-2.17176 -0.87152,-3.51358 -2.1091,-3.55498 z m -21.303207,2.06442 c -11.011719,0 -20.732829,9.163 -20.732829,19.54253 0,9.63881 11.454716,29.52542 19.79103,34.36267 13.013896,7.55151 27.749886,-1.26756 27.749886,-16.60753 0,-13.91104 -16.8094,-37.29767 -26.808087,-37.29767 z" />
          <path
             id="path1739"
             style="fill:#000000;stroke-width:0.430243"
             d="m 173.49002,39.658434 -0.26127,1.102511 c -0.33189,1.400818 -0.35263,8.791094 -0.0269,9.74918 0.22144,0.651545 3.67923,0.723446 34.96722,0.723446 h 34.72304 l -0.20268,-5.371339 c -0.11052,-2.954733 -0.22689,-5.412568 -0.26127,-5.46301 -0.0345,-0.05024 -15.56275,-0.238015 -34.50328,-0.416229 z m -31.30445,19.347227 v 5.25985 5.257372 h 17.00501 17.00502 v -5.257372 -5.25985 h -17.00502 z m 57.0879,0 v 5.25985 5.257372 h 25.70775 25.70775 v -5.257372 -5.25985 h -25.70775 z m -49.39365,18.289314 v 2.675759 c 0,1.471926 0.1144,3.934303 0.25641,5.470442 l 0.26126,2.792203 3.28185,0.153609 c 1.80623,0.08422 5.88124,0.193904 9.05437,0.245278 l 5.76763,0.09414 V 83.010689 77.29497 h -9.31076 z m 33.19935,0 v 5.715718 5.71572 h 25.50506 25.50751 v -5.71572 -5.715718 h -25.50751 z m 119.20599,17.028236 c -1.60279,0.03552 -2.72672,0.108964 -2.88381,0.227934 -0.28857,0.218526 -0.59076,2.399428 -0.76431,5.497695 l -0.29058,5.13597 h 9.40599 9.40599 l -0.13674,-4.99227 c -0.0754,-2.74584 -0.28869,-5.162557 -0.47372,-5.371341 -0.32746,-0.369593 -9.45444,-0.604543 -14.26282,-0.497988 z m -168.60209,1.261075 v 5.715734 5.71324 h 25.50751 25.50509 v -5.71324 -5.715734 h -25.50509 z m 99.19263,0 v 5.715734 5.71324 h 21.25627 21.25383 v -5.71324 -5.715734 h -21.25383 z m -24.11566,0.455869 c -4.74653,0 -8.72004,0.163714 -8.82971,0.364202 -0.10964,0.2004 -0.33044,2.670562 -0.48836,5.487783 l -0.28571,5.12112 h 9.36936 9.37182 v -4.05577 c 0,-2.23182 -0.11478,-4.701878 -0.25396,-5.487786 l -0.25152,-1.429549 z M 125.183,115.24368 v 5.02944 5.02944 h 25.50507 25.50753 v -5.02944 -5.02944 h -25.50753 z m 82.99589,0 v 5.02944 5.02944 h 8.70518 8.70518 v -5.02944 -5.02944 h -8.70518 z m 33.19933,0 v 5.02944 5.02944 h 17.00501 17.00257 v -5.02944 -5.02944 H 258.38323 Z M 142.18557,299.0436 v 5.02943 5.02944 h 25.50752 25.50751 v -5.02944 -5.02943 h -25.50751 z m 74.49582,0 v 5.02943 5.02944 h 8.70518 8.70517 v -5.02944 -5.02943 h -8.70517 z m 40.89114,0 v 5.02943 5.02944 h 8.90786 8.90541 v -5.02944 -5.02943 h -8.90541 z m 24.69927,16.46088 v 5.66368 5.66617 l 17.10269,-0.23784 c 9.40799,-0.13147 17.19502,-0.32995 17.30535,-0.44348 0.11039,-0.11264 0.26591,-2.55619 0.34675,-5.42833 l 0.1465,-5.2202 h -17.45186 z m -140.08623,1.82842 v 5.71573 5.71325 h 17.00501 17.00502 v -5.71325 -5.71573 h -17.00502 z m 49.39609,0 v 5.411 c 0,2.97565 0.12003,5.54506 0.2686,5.71323 0.14847,0.16707 7.80109,0.30475 17.00501,0.30475 h 16.73398 v -5.71325 -5.71573 h -17.00502 z m 41.29404,0 v 5.48531 5.48778 h 17.01967 c 13.25904,0 17.04981,-0.127 17.17349,-0.5723 0.0874,-0.31449 0.27677,-2.782 0.42,-5.48532 l 0.25884,-4.91547 h -17.43721 z m -81.37693,20.11776 v 5.71572 5.71323 h 16.19432 16.19432 v -5.71323 -5.71572 h -16.19432 z m -9.3132,17.37261 v 5.25985 5.25736 h 17.00501 17.00502 v -5.25736 -5.25985 h -17.00502 z m 57.0879,0 v 5.25985 5.25736 h 13.1591 13.15668 v -5.25736 -5.25985 h -13.15668 z m -57.0879,18.28932 v 5.71571 5.71573 h 41.70184 41.70184 v -5.71573 -5.71571 h -41.70184 z m 106.88446,0 v 2.67574 c 0,1.47178 0.1184,3.9422 0.26127,5.4878 l 0.26128,2.80955 h 16.88537 16.88779 l 0.26128,-3.49831 c 0.14406,-1.92386 0.26128,-4.3918 0.26128,-5.48531 v -1.98947 h -17.40791 z" />
        </g>
        <rect
           style="opacity:1;fill:#ff0000;fill-rule:evenodd;stroke-width:2.0863;stroke-linejoin:round;paint-order:stroke markers fill"
           id="rect1433"
           width="28.348057"
           height="18.127563"
           x="234.27911"
           y="156.05975" />
        <path
           style="fill:#00ff00;stroke-width:0.192797"
           d="m 282.21065,292.02698 c 2.26168,-0.35381 3.84112,-1.5476 4.64578,-3.51143 0.57889,-1.41281 0.50775,-5.21472 -0.14397,-7.69457 -2.25853,-8.5937 -9.01154,-16.67397 -22.33119,-26.72018 -6.40513,-4.831 -13.88883,-9.71221 -28.86853,-18.82935 -20.00938,-12.17837 -26.61499,-16.85847 -31.39977,-22.24683 -5.12795,-5.7748 -5.01843,-10.56005 0.33551,-14.66308 0.66248,-0.50768 1.20322,-0.98119 1.20169,-1.05224 -0.002,-0.071 -0.56903,-0.39286 -1.26105,-0.71517 -1.59953,-0.74501 -4.37803,-2.80046 -5.54517,-4.10214 -2.9308,-3.26874 -4.33571,-7.20604 -3.64251,-10.20828 0.24655,-1.06776 0.96185,-2.43301 1.27474,-2.43301 0.0761,0 0.0847,0.58889 0.0193,1.30865 -0.14611,1.60775 0.12753,3.78978 0.61372,4.89374 0.20014,0.45448 0.85363,1.39212 1.45221,2.08367 0.59857,0.69156 1.29434,1.56196 1.54616,1.93421 0.82604,1.22118 5.86361,4.76392 8.96573,6.3053 4.6693,2.32004 7.64435,2.57682 13.0735,1.12832 4.52307,-1.20675 6.25722,-1.56683 8.51157,-1.76735 7.6467,-0.68016 18.79231,2.89594 29.80639,9.56347 4.82363,2.92005 6.82521,3.99742 9.13361,4.91621 2.58069,1.0272 4.45705,1.42125 8.09388,1.69978 13.47375,1.03188 13.09862,1.01489 14.69801,0.66575 1.85189,-0.40426 4.08162,-1.28866 6.02369,-2.38922 l 1.69018,-0.95782 -1.10492,-0.0388 c -9.48469,-0.33338 -16.4481,-2.40264 -24.52601,-7.28821 -1.28204,-0.77539 -4.42889,-2.82618 -6.99302,-4.55728 -10.44713,-7.05318 -13.68014,-8.70977 -23.53205,-12.05778 -1.95361,-0.66391 -4.53803,-1.5814 -5.74314,-2.03888 l -2.19109,-0.83179 0.9701,-0.62848 c 1.53415,-0.99391 3.42123,-1.89053 4.80281,-2.28199 3.65249,-1.03489 9.01336,-0.35808 17.77407,2.244 6.71081,1.99323 10.50269,3.78996 15.56256,7.37412 4.38572,3.10663 6.18128,3.97671 10.93443,5.29848 3.07549,0.85526 3.90052,1.27603 4.64301,2.36798 0.47613,0.70023 0.55649,2.31594 0.20612,4.1444 -0.11404,0.59512 -0.18145,1.10159 -0.14979,1.12547 0.13381,0.10094 2.55956,-1.22255 3.54787,-1.9357 1.10176,-0.79502 1.97957,-1.89019 2.2378,-2.79187 l 0.14627,-0.51083 3.93258,0.38866 c 6.38745,0.63129 6.64472,0.77946 6.38722,3.67858 -0.18002,2.0269 0.003,2.16758 1.32146,1.0147 1.08436,-0.94831 1.64157,-1.79793 1.81145,-2.76212 0.094,-0.53322 0.35316,-0.98093 0.78551,-1.35671 0.57104,-0.49634 0.6385,-0.66964 0.58643,-1.50691 -0.0536,-0.86195 0.0122,-1.0158 0.74061,-1.73073 1.25398,-1.23083 1.62517,-2.14665 1.61605,-3.9872 -0.007,-1.31592 -0.13114,-1.88434 -0.72149,-3.29114 -0.76767,-1.82927 -0.84076,-2.24446 -0.48382,-2.74751 0.46232,-0.6515 2.23458,-0.16038 3.01446,0.83536 0.60592,0.7736 0.82981,0.63164 0.68401,-0.43374 -0.19,-1.38843 -1.27202,-2.90896 -3.0141,-4.23558 -2.81301,-2.14217 -4.41006,-2.36596 -7.7098,-1.08037 -1.92549,0.75018 -2.09519,0.78525 -3.37492,0.69774 -1.70776,-0.11678 -3.34194,-0.6928 -5.03651,-1.77525 -4.30549,-2.75021 -5.13607,-3.04299 -7.3823,-2.60218 -0.70165,0.13769 -1.50568,0.36383 -1.78676,0.50254 -0.47659,0.2352 -0.61121,0.21014 -1.998,-0.3719 -2.39319,-1.00446 -4.68512,-2.19424 -6.65873,-3.45669 -2.34763,-1.50172 -7.19977,-5.54758 -7.80325,-6.50655 -0.54871,-0.87199 -3.8315,-4.34425 -7.22392,-7.64087 l -2.43882,-2.36998 0.0701,-1.14449 c 0.13724,-2.24062 -1.73196,-5.14771 -5.28603,-8.22115 -1.21242,-1.04842 -3.26348,-2.32693 -4.51806,-2.81623 -0.74282,-0.28971 -0.69582,-0.18967 0.40627,0.86471 1.8831,1.80162 2.30749,2.94264 1.88711,5.07367 l -0.27652,1.4018 -0.7791,-1.06109 c -2.15278,-2.93192 -7.74727,-6.78334 -12.48161,-8.59273 l -1.16953,-0.44699 0.98679,0.9755 c 3.05216,3.01724 4.5291,5.19293 4.24709,6.25643 l -0.12682,0.47823 -1.47306,-0.43085 c -5.39454,-1.5778 -9.65117,-2.3806 -14.46009,-2.72713 -4.31678,-0.31108 -4.1002,-0.25536 -5.90877,-1.52012 -7.67297,-5.36578 -16.88657,-9.5307 -26.72532,-12.08095 -2.46667,-0.63936 -7.83788,-1.81347 -7.94085,-1.73581 -0.0441,0.0333 0.85023,0.45444 1.98771,0.93575 7.40105,3.1317 13.90707,7.15498 17.59237,10.87905 1.38678,1.40138 2.79081,3.02492 2.79081,3.22712 0,0.0385 -1.32369,0.1189 -2.9415,0.17873 -1.61784,0.0598 -3.33073,0.17902 -3.80644,0.26485 l -0.8649,0.15606 -2.5761,-1.96385 c -4.67608,-3.56475 -10.31448,-6.37751 -18.33815,-9.14819 -4.37018,-1.50907 -13.17841,-3.59905 -15.16248,-3.59768 -0.20767,1.4e-4 0.82123,0.49522 2.28642,1.10019 6.54257,2.70132 12.08983,5.92962 16.45709,9.57739 1.94724,1.62643 5.8831,5.24787 6.02567,5.54429 0.0333,0.0694 -1.11547,0.37245 -2.55301,0.67346 -11.86874,2.48525 -23.01089,6.2263 -30.47478,10.23213 -3.95536,2.12283 -7.75968,4.89857 -8.8187,6.43439 l -0.34052,0.49383 0.5281,-0.26091 c 4.2935,-2.12119 5.81061,-2.67392 8.19767,-2.98668 0.79944,-0.10473 1.88729,-0.16652 2.41742,-0.1373 l 0.96388,0.0532 -2.21494,2.00922 c -10.44519,9.47506 -18.93795,20.43193 -23.16565,29.88702 -1.83716,4.10872 -3.27741,9.05359 -3.05766,10.49808 0.0626,0.41164 0.21784,0.27474 1.27201,-1.12177 2.24053,-2.96815 3.63612,-4.22995 6.23633,-5.63843 1.50627,-0.8159 3.76439,-1.79175 3.90347,-1.68686 0.0567,0.0427 -0.29424,1.23756 -0.77989,2.65506 -4.31189,12.58561 -6.17908,28.65685 -4.33588,37.31993 0.66188,3.11083 2.08699,6.20695 3.39105,7.3671 l 0.47049,0.41859 0.008,-2.03333 c 0.0141,-3.93857 0.67251,-6.9152 1.98644,-8.98316 0.65309,-1.0279 2.56473,-2.9668 3.0401,-3.08346 0.15794,-0.0387 0.29994,0.40678 0.39624,1.2433 0.21993,1.91036 1.18656,5.99482 2.03848,8.61353 2.02523,6.22538 5.13582,11.54909 11.62632,19.89823 5.0325,6.47364 5.44919,7.36482 5.44092,11.63667 -0.005,2.92228 -0.3583,4.94963 -1.43662,8.25911 -1.26387,3.87899 -2.94824,7.47622 -4.94094,10.55206 -0.63542,0.98079 -1.19742,1.85707 -1.2489,1.94731 -0.0514,0.0902 0.4968,-0.31829 1.2184,-0.90782 0.72159,-0.5895 2.41089,-1.82059 3.754,-2.73574 15.47272,-10.54269 33.64914,-14.03002 55.94418,-10.73345 10.28455,1.52068 20.48353,4.11859 37.07414,9.44363 13.41674,4.30632 20.11946,5.76407 23.83249,5.18322 z m 13.35263,-109.43341 c -1.69192,-0.53618 -4.54804,-0.72013 -6.43703,-0.41459 -0.64669,0.1046 -1.20452,0.16852 -1.23962,0.14203 -0.1546,-0.11659 1.11282,-1.76647 1.72828,-2.24981 1.53682,-1.20691 2.86422,-1.15353 4.79221,0.19273 1.31643,0.9192 3.49832,3.08051 2.91887,2.89132 -0.17584,-0.0574 -0.96906,-0.31016 -1.76271,-0.56168 z m -40.96796,-13.81176 c -2.45124,-0.57704 -3.25168,-0.85005 -4.15022,-1.41553 -0.97886,-0.616 -2.77087,-1.02804 -5.97893,-1.37471 -3.50948,-0.37926 -4.94159,-0.85188 -6.1157,-2.01829 -0.40116,-0.39853 -0.72939,-0.79041 -0.72939,-0.87083 0,-0.23598 2.80158,-1.34945 4.29036,-1.70518 1.76165,-0.42095 3.50641,-0.32505 5.15518,0.28335 0.90856,0.33525 1.82362,0.94846 3.70598,2.48347 1.37474,1.12109 3.42107,2.73582 4.54735,3.58829 1.12631,0.85247 1.92154,1.54995 1.76718,1.54995 -0.15434,0 -1.27567,-0.23423 -2.49181,-0.52052 z"
           id="path844"
           inkscape:connector-curvature="0" />
        <path
           id="path1095"
           style="opacity:1;fill:#ff0000;fill-rule:evenodd;stroke-width:1.67622;stroke-linejoin:round;paint-order:stroke markers fill"
           d="m 172.05273,38.601562 c -0.31222,0.751731 -0.63823,1.500919 -0.50976,2.333985 0,3.227213 0,6.454427 0,9.681641 0.32065,0.494174 0.37955,1.26866 0.87285,1.577945 0.70716,0.33519 1.44235,0.515583 2.22715,0.422055 22.7401,0 45.48021,-10e-7 68.22031,0 0.48824,-0.322704 1.28086,-0.375329 1.56833,-0.876171 0.27247,-0.757497 0.53693,-1.515816 0.31924,-2.323624 -0.36394,-2.946646 -0.43303,-5.968457 -1.29941,-8.825429 -0.23032,-0.649845 -0.90292,-1.022376 -1.46265,-1.340282 -2.25812,-0.325281 -4.56069,-0.251563 -6.83786,-0.373807 -20.06281,-0.532193 -40.13362,-0.637667 -60.20075,-0.92507 -0.76323,-0.02251 -1.53797,-0.101589 -2.20578,0.344815 -0.23055,0.101314 -0.46111,0.202628 -0.69167,0.303942 z" />
        <path
           id="path1097"
           style="opacity:1;fill:#ff0000;fill-rule:evenodd;stroke-width:1.67622;stroke-linejoin:round;paint-order:stroke markers fill"
           d="m 148.73633,76.619141 c -0.30615,0.745754 -0.61823,1.490435 -0.49219,2.314453 0.0774,2.504118 -0.20684,5.051848 0.31055,7.521484 0.42075,1.953549 2.35651,3.11279 4.23062,3.318073 5.00291,0.746378 10.07852,0.513263 15.11899,0.605755 0.4956,-0.317082 1.27176,-0.369275 1.58251,-0.860878 0.33819,-0.710802 0.52671,-1.448982 0.43116,-2.239122 0,-3.115104 0,-6.230208 0,-9.345312 -0.32065,-0.494175 -0.37955,-1.268661 -0.87285,-1.577946 -0.70716,-0.335189 -1.44236,-0.515582 -2.22715,-0.422054 -5.52461,0 -11.04922,0 -16.57383,0 -0.5026,0.228515 -1.00521,0.457031 -1.50781,0.685547 z" />
        <path
           id="path1099"
           style="opacity:1;fill:#ff0000;fill-rule:evenodd;stroke-width:1.67622;stroke-linejoin:round;paint-order:stroke markers fill"
           d="m 305.12305,92.818359 c -2.25983,0.0961 -4.86488,-0.08013 -6.66604,1.542397 -1.68443,1.620231 -1.51496,4.146586 -1.56253,6.291194 0.0204,1.29005 -0.0663,2.60351 0.0255,3.87869 0.36432,0.58142 0.37713,1.53698 1.20002,1.63034 1.04122,0.52554 2.23866,0.19427 3.35893,0.28629 5.02526,0 10.05052,0 15.07578,0 0.49417,-0.32066 1.26866,-0.37955 1.57794,-0.87285 0.33519,-0.70716 0.51559,-1.44236 0.42206,-2.22715 0,-2.84688 0,-5.693754 0,-8.540629 -0.32065,-0.494175 -0.37955,-1.268661 -0.87285,-1.577946 -0.70716,-0.335189 -1.44236,-0.515583 -2.22715,-0.422054 -3.44389,0.002 -6.88779,-0.0069 -10.33164,0.01172 z" />
        <path
           id="path1101"
           style="opacity:1;fill:#ff0000;fill-rule:evenodd;stroke-width:1.67622;stroke-linejoin:round;paint-order:stroke markers fill"
           d="m 207.38672,114.38086 c -0.30615,0.74575 -0.61823,1.49044 -0.49219,2.31445 0.028,2.6399 -0.0556,5.30397 0.0414,7.92893 0.36653,0.5804 0.38318,1.53548 1.20606,1.62718 1.04038,0.51992 2.23472,0.18957 3.35255,0.28178 4.48945,0 8.97891,0 13.46836,0 0.49417,-0.32065 1.26866,-0.37954 1.57795,-0.87284 0.33519,-0.70717 0.51558,-1.44236 0.42205,-2.22716 -0.028,-2.60656 0.0556,-5.23729 -0.0414,-7.82892 -0.36653,-0.5804 -0.38318,-1.53549 -1.20606,-1.62718 -1.04037,-0.51993 -2.23472,-0.18958 -3.35255,-0.28179 -4.48945,0 -8.97891,0 -13.46836,0 -0.5026,0.22852 -1.00521,0.45703 -1.50781,0.68555 z" />
        <path
           id="path1103"
           style="opacity:1;fill:#ff0000;fill-rule:evenodd;stroke-width:1.67622;stroke-linejoin:round;paint-order:stroke markers fill"
           d="m 140.70117,298.36914 c -0.30615,0.74575 -0.61823,1.49044 -0.49219,2.31445 0.028,2.6399 -0.0555,5.30397 0.0414,7.92893 0.36653,0.5804 0.38318,1.53548 1.20606,1.62718 1.04038,0.51992 2.23473,0.18958 3.35255,0.28178 16.00573,0 32.01146,0 48.01719,0 0.49418,-0.32065 1.26866,-0.37954 1.57795,-0.87284 0.33519,-0.70717 0.51558,-1.44236 0.42205,-2.22716 -0.028,-2.60656 0.0556,-5.2373 -0.0414,-7.82892 -0.36653,-0.5804 -0.38317,-1.53548 -1.20606,-1.62718 -1.04037,-0.51993 -2.23472,-0.18958 -3.35255,-0.28179 -16.00573,0 -32.01146,0 -48.01719,0 -0.5026,0.22852 -1.0052,0.45703 -1.50781,0.68555 z" />
        <path
           id="path1105"
           style="opacity:1;fill:#ff0000;fill-rule:evenodd;stroke-width:1.67622;stroke-linejoin:round;paint-order:stroke markers fill"
           d="m 281.30273,314.4375 c -0.30615,0.74575 -0.61823,1.49044 -0.49218,2.31445 0,3.15886 0,6.31771 0,9.47657 0.32092,0.49345 0.37899,1.27014 0.87328,1.57677 0.71724,0.33164 1.45962,0.51635 2.25201,0.40892 10.74795,-0.13976 21.4959,-0.27952 32.24385,-0.41929 0.49331,-0.32571 1.25569,-0.39881 1.57164,-0.89104 0.64895,-1.20222 0.3974,-2.59839 0.53847,-3.91 0.0863,-2.41075 0.28643,-4.84011 0.30404,-7.23912 -0.33886,-0.55206 -0.28154,-1.49911 -1.04018,-1.63265 -1.07824,-0.61639 -2.33883,-0.29018 -3.52085,-0.37016 -10.40742,0 -20.81484,0 -31.22226,0 -0.50261,0.22852 -1.00521,0.45703 -1.50782,0.68555 z" />
        <path
           id="path1107"
           style="opacity:1;fill:#ff0000;fill-rule:evenodd;stroke-width:1.67622;stroke-linejoin:round;paint-order:stroke markers fill"
           d="m 150.3418,336.13086 c -0.30616,0.74575 -0.61823,1.49044 -0.49219,2.31445 0,3.41602 0,6.83203 0,10.24805 0.32065,0.49417 0.37955,1.26866 0.87285,1.57795 0.70716,0.33518 1.44235,0.51558 2.22715,0.42205 10.07799,0 20.15599,0 30.23398,0 0.49418,-0.32065 1.26866,-0.37955 1.57795,-0.87285 0.33519,-0.70716 0.51558,-1.44235 0.42205,-2.22715 0,-3.38268 0,-6.76537 0,-10.14805 -0.32065,-0.49417 -0.37954,-1.26866 -0.87284,-1.57794 -0.70717,-0.33519 -1.44236,-0.51559 -2.22716,-0.42206 -10.07799,0 -20.15599,0 -30.23398,0 -0.5026,0.22852 -1.00521,0.45703 -1.50781,0.68555 z" />
        <path
           id="path1109"
           style="opacity:1;fill:#ff0000;fill-rule:evenodd;stroke-width:1.67622;stroke-linejoin:round;paint-order:stroke markers fill"
           d="m 140.70117,372.28516 c -0.30615,0.74575 -0.61823,1.49043 -0.49219,2.31445 0,3.14844 0,6.29687 0,9.44531 0.32066,0.49418 0.37955,1.26866 0.87285,1.57795 0.70716,0.33519 1.44236,0.51558 2.22715,0.42205 27.21797,0 54.43594,0 81.65391,0 0.49417,-0.32065 1.26866,-0.37955 1.57795,-0.87285 0.33519,-0.70716 0.51558,-1.44235 0.42205,-2.22715 0,-3.1151 0,-6.23021 0,-9.34531 -0.32065,-0.49417 -0.37955,-1.26866 -0.87285,-1.57795 -0.70716,-0.33519 -1.44235,-0.51558 -2.22715,-0.42205 -27.21797,0 -54.43594,0 -81.65391,0 -0.5026,0.22852 -1.0052,0.45703 -1.50781,0.68555 z" />
        <path
           id="path1111"
           style="opacity:1;fill:#00ff00;fill-rule:evenodd;stroke-width:1.67622;stroke-linejoin:round;paint-order:stroke markers fill"
           d="m 140.70117,58.140625 c -0.30615,0.745754 -0.61823,1.490436 -0.49219,2.314453 0,2.880208 0,5.760417 0,8.640625 0.32066,0.494174 0.37955,1.268661 0.87285,1.577946 0.70716,0.335189 1.44236,0.515582 2.22715,0.422054 10.88138,0 21.76276,0 32.64414,0 0.49418,-0.320651 1.26867,-0.379547 1.57795,-0.872847 0.33519,-0.707163 0.51558,-1.442357 0.42205,-2.227153 0,-2.846875 10e-6,-5.69375 0,-8.540625 -0.32065,-0.494174 -0.37954,-1.268661 -0.87284,-1.577946 -0.70716,-0.335189 -1.44236,-0.515582 -2.22715,-0.422054 -10.88139,0 -21.76277,0 -32.64415,0 -0.5026,0.228516 -1.0052,0.457031 -1.50781,0.685547 z" />
        <path
           id="path1182"
           style="opacity:1;fill:#00ff00;fill-rule:evenodd;stroke-width:1.67622;stroke-linejoin:round;paint-order:stroke markers fill"
           d="m 198.54883,58.140625 c -0.30615,0.745754 -0.61823,1.490436 -0.49219,2.314453 0,2.880208 0,5.760417 0,8.640625 0.32065,0.494174 0.37955,1.268661 0.87285,1.577946 0.70716,0.335189 1.44235,0.515582 2.22715,0.422054 16.50573,0 33.01146,0 49.51719,0 0.49417,-0.320651 1.26866,-0.379547 1.57794,-0.872847 0.33519,-0.707163 0.51559,-1.442357 0.42206,-2.227153 0,-2.846875 0,-5.69375 0,-8.540625 -0.32065,-0.494174 -0.37955,-1.268661 -0.87285,-1.577946 -0.70716,-0.335189 -1.44236,-0.515582 -2.22715,-0.422054 -16.50573,0 -33.01146,0 -49.51719,0 -0.5026,0.228516 -1.00521,0.457031 -1.50781,0.685547 z" />
        <path
           id="path1184"
           style="opacity:1;fill:#00ff00;fill-rule:evenodd;stroke-width:1.67622;stroke-linejoin:round;paint-order:stroke markers fill"
           d="m 231.49023,94.294922 c -0.30615,0.745754 -0.61823,1.490436 -0.49218,2.314453 0,3.416015 0,6.832035 0,10.248045 0.32065,0.49418 0.37954,1.26866 0.87284,1.57795 0.70717,0.33519 1.44236,0.51558 2.22716,0.42205 13.55976,0 27.11953,0 40.67929,0 0.49418,-0.32065 1.26866,-0.37955 1.57795,-0.87285 0.33519,-0.70716 0.51558,-1.44235 0.42205,-2.22715 0,-3.38268 0,-6.765363 0,-10.148045 -0.32065,-0.494174 -0.37954,-1.268661 -0.87284,-1.577946 -0.70717,-0.335189 -1.44236,-0.515582 -2.22716,-0.422054 -13.55976,0 -27.11953,0 -40.67929,0 -0.50261,0.228516 -1.00521,0.457031 -1.50782,0.685547 z" />
        <path
           id="path1186"
           style="opacity:1;fill:#00ff00;fill-rule:evenodd;stroke-width:1.67622;stroke-linejoin:round;paint-order:stroke markers fill"
           d="m 123.82812,114.38086 c -0.30615,0.74575 -0.61823,1.49044 -0.49218,2.31445 0.028,2.6399 -0.0555,5.30397 0.0414,7.92893 0.36653,0.5804 0.38317,1.53548 1.20605,1.62718 1.04038,0.51992 2.23473,0.18957 3.35256,0.28178 16.00573,0 32.01146,0 48.01718,0 0.49418,-0.32065 1.26867,-0.37954 1.57795,-0.87284 0.33519,-0.70717 0.51558,-1.44236 0.42205,-2.22716 -0.028,-2.60656 0.0556,-5.23729 -0.0414,-7.82892 -0.36653,-0.5804 -0.38318,-1.53549 -1.20606,-1.62718 -1.04038,-0.51993 -2.23473,-0.18958 -3.35255,-0.28179 -16.00573,0 -32.01146,0 -48.01719,0 -0.50261,0.22852 -1.00521,0.45703 -1.50782,0.68555 z" />
        <path
           id="path1188"
           style="opacity:1;fill:#00ff00;fill-rule:evenodd;stroke-width:1.67622;stroke-linejoin:round;paint-order:stroke markers fill"
           d="m 240.32812,114.38086 c -0.30615,0.74575 -0.61823,1.49044 -0.49218,2.31445 0.028,2.6399 -0.0555,5.30397 0.0414,7.92893 0.36653,0.5804 0.38317,1.53548 1.20605,1.62718 1.04038,0.51992 2.23473,0.18957 3.35256,0.28178 10.1138,0 20.2276,0 30.3414,0 0.49418,-0.32065 1.26866,-0.37954 1.57795,-0.87284 0.33519,-0.70717 0.51558,-1.44236 0.42205,-2.22716 -0.028,-2.60656 0.0556,-5.23729 -0.0414,-7.82892 -0.36652,-0.5804 -0.38317,-1.53549 -1.20605,-1.62718 -1.04038,-0.51993 -2.23473,-0.18958 -3.35256,-0.28179 -10.1138,0 -20.2276,0 -30.3414,0 -0.50261,0.22852 -1.00521,0.45703 -1.50782,0.68555 z" />
        <path
           id="path1192"
           style="opacity:1;fill:#00ff00;fill-rule:evenodd;stroke-width:1.67622;stroke-linejoin:round;paint-order:stroke markers fill"
           d="m 215.42188,298.36914 c -0.30616,0.74575 -0.61824,1.49044 -0.49219,2.31445 0.028,2.6399 -0.0555,5.30397 0.0414,7.92893 0.36653,0.5804 0.38317,1.53548 1.20605,1.62718 1.04038,0.51992 2.23473,0.18958 3.35256,0.28178 4.75703,0 9.51406,0 14.27109,0 0.49418,-0.32065 1.26866,-0.37954 1.57795,-0.87284 0.33519,-0.70717 0.51558,-1.44236 0.42205,-2.22716 -0.028,-2.60656 0.0556,-5.2373 -0.0414,-7.82892 -0.36653,-0.5804 -0.38318,-1.53548 -1.20606,-1.62718 -1.04037,-0.51993 -2.23472,-0.18958 -3.35255,-0.28179 -4.75703,0 -9.51406,0 -14.27109,0 -0.50261,0.22852 -1.00521,0.45703 -1.50781,0.68555 z" />
        <path
           id="path1194"
           style="opacity:1;fill:#00ff00;fill-rule:evenodd;stroke-width:1.67622;stroke-linejoin:round;paint-order:stroke markers fill"
           d="m 231.49023,316.04492 c -0.30615,0.74576 -0.61823,1.49044 -0.49218,2.31446 0,3.14778 0,6.29557 0,9.44335 0.32065,0.49418 0.37954,1.26867 0.87284,1.57795 0.70717,0.33519 1.44236,0.51558 2.22716,0.42205 10.88138,0 21.76276,0 32.64414,0 0.4944,-0.32056 1.26819,-0.37972 1.57831,-0.8727 0.38749,-0.76136 0.49243,-1.57469 0.42638,-2.41947 -0.0409,-2.97095 0.49666,-5.9058 0.98164,-8.82501 -0.23957,-0.53186 -0.15878,-1.32752 -0.60928,-1.68568 -0.69348,-0.33272 -1.35517,-0.80251 -2.16338,-0.64049 -11.31927,-10e-6 -22.63854,0 -33.95781,0 -0.50261,0.22851 -1.00521,0.45703 -1.50782,0.68554 z" />
        <path
           id="path1196"
           style="opacity:1;fill:#00ff00;fill-rule:evenodd;stroke-width:1.67622;stroke-linejoin:round;paint-order:stroke markers fill"
           d="m 140.70117,353.80664 c -0.30615,0.74575 -0.61823,1.49044 -0.49219,2.31445 0,2.88021 0,5.76042 0,8.64063 0.32066,0.49417 0.37955,1.26866 0.87285,1.57794 0.70716,0.33519 1.44236,0.51559 2.22715,0.42206 10.88138,0 21.76276,0 32.64414,0 0.49418,-0.32065 1.26867,-0.37955 1.57795,-0.87285 0.33519,-0.70716 0.51558,-1.44236 0.42205,-2.22715 0,-2.84688 10e-6,-5.69375 0,-8.54063 -0.32065,-0.49417 -0.37954,-1.26866 -0.87284,-1.57794 -0.70716,-0.33519 -1.44236,-0.51558 -2.22715,-0.42206 -10.88139,0 -21.76277,0 -32.64415,0 -0.5026,0.22852 -1.0052,0.45703 -1.50781,0.68555 z" />
        <path
           id="path1198"
           style="opacity:1;fill:#0000ff;fill-rule:evenodd;stroke-width:1.67622;stroke-linejoin:round;paint-order:stroke markers fill"
           d="m 181.67578,76.619141 c -0.30615,0.745754 -0.61823,1.490435 -0.49219,2.314453 0,3.148437 0,6.296875 0,9.445312 0.32065,0.494175 0.37955,1.268661 0.87285,1.577946 0.70716,0.335189 1.44236,0.515582 2.22715,0.422054 16.50573,0 33.01146,0 49.51719,0 0.49418,-0.320651 1.26866,-0.379547 1.57795,-0.872847 0.33519,-0.707163 0.51558,-1.442357 0.42205,-2.227153 0,-3.115104 0,-6.230208 0,-9.345312 -0.32065,-0.494175 -0.37955,-1.268661 -0.87285,-1.577946 -0.70716,-0.335189 -1.44235,-0.515582 -2.22715,-0.422054 -16.50573,0 -33.01146,0 -49.51719,0 -0.5026,0.228515 -1.0052,0.457031 -1.50781,0.685547 z" />
        <path
           id="path1269"
           style="opacity:1;fill:#0000ff;fill-rule:evenodd;stroke-width:1.67622;stroke-linejoin:round;paint-order:stroke markers fill"
           d="m 132.66602,94.294922 c -0.30616,0.745754 -0.61823,1.490436 -0.49219,2.314453 0,3.416015 0,6.832035 0,10.248045 0.32065,0.49418 0.37955,1.26866 0.87285,1.57795 0.70716,0.33519 1.44235,0.51558 2.22715,0.42205 16.23815,0 32.4763,0 48.71445,0 0.49418,-0.32065 1.26866,-0.37955 1.57795,-0.87285 0.33519,-0.70716 0.51558,-1.44235 0.42205,-2.22715 0,-3.38268 0,-6.765363 0,-10.148045 -0.32065,-0.494174 -0.37955,-1.268661 -0.87285,-1.577946 -0.70716,-0.335189 -1.44235,-0.515582 -2.22715,-0.422054 -16.23815,0 -32.4763,0 -48.71445,0 -0.50261,0.228516 -1.00521,0.457031 -1.50781,0.685547 z" />
        <path
           id="path1271"
           style="opacity:1;fill:#0000ff;fill-rule:evenodd;stroke-width:1.67622;stroke-linejoin:round;paint-order:stroke markers fill"
           d="m 190.51367,316.04492 c -0.30615,0.74576 -0.61823,1.49044 -0.49219,2.31446 0.0818,3.10742 -0.25494,6.28125 0.49219,9.33007 0.298,1.34676 1.45933,2.48142 2.88672,2.46289 7.48581,0.45111 14.99165,0.35738 22.48784,0.4173 3.02228,0.0126 6.04456,0.0252 9.06685,0.0378 0.49496,-0.31884 1.27006,-0.37447 1.58035,-0.86681 0.33728,-0.70888 0.52218,-1.44554 0.42746,-2.23319 0,-3.38268 0,-6.76536 0,-10.14804 -0.32065,-0.49418 -0.37955,-1.26867 -0.87285,-1.57795 -0.70716,-0.33519 -1.44235,-0.51558 -2.22715,-0.42205 -10.6138,0 -21.2276,-10e-6 -31.84141,0 -0.5026,0.22851 -1.0052,0.45703 -1.50781,0.68554 z" />
        <path
           id="path1273"
           style="opacity:1;fill:#0000ff;fill-rule:evenodd;stroke-width:1.67622;stroke-linejoin:round;paint-order:stroke markers fill"
           d="m 247.37109,372.28516 c -0.19675,0.79936 -0.68754,1.59977 -0.26833,2.41153 0.94316,3.02398 0.72275,6.23083 0.76638,9.35409 0.32197,0.49273 0.38299,1.26589 0.87678,1.57398 0.76324,0.38604 1.57752,0.48993 2.42322,0.42016 10.48008,0 20.96016,0 31.44024,0 0.61454,-0.38356 1.57255,-0.41316 1.77248,-1.22401 0.46559,-1.11725 0.53487,-2.37208 0.80955,-3.55138 0.39416,-2.56217 0.51341,-5.1858 0.38244,-7.76095 -0.36653,-0.5804 -0.38318,-1.53549 -1.20606,-1.62718 -1.04038,-0.51993 -2.23473,-0.18958 -3.35256,-0.28179 -10.71211,0 -21.42421,0 -32.13632,0 -0.50261,0.22851 -1.00521,0.45703 -1.50782,0.68555 z" />
        <path
           id="path1275"
           style="opacity:1;fill:#0000ff;fill-rule:evenodd;stroke-width:1.67622;stroke-linejoin:round;paint-order:stroke markers fill"
           d="m 198.54883,353.80664 c -0.30615,0.74575 -0.61823,1.49044 -0.49219,2.31445 0,2.88021 0,5.76042 0,8.64063 0.32065,0.49417 0.37955,1.26866 0.87285,1.57794 0.70716,0.33519 1.44235,0.51559 2.22715,0.42206 7.93542,0 15.87083,0 23.80625,0 0.49417,-0.32065 1.26866,-0.37955 1.57795,-0.87285 0.33519,-0.70716 0.51558,-1.44236 0.42205,-2.22715 0,-2.84688 0,-5.69375 0,-8.54063 -0.32065,-0.49417 -0.37955,-1.26866 -0.87285,-1.57794 -0.70716,-0.33519 -1.44235,-0.51558 -2.22715,-0.42206 -7.93542,0 -15.87083,0 -23.80625,0 -0.5026,0.22852 -1.00521,0.45703 -1.50781,0.68555 z" />
        <path
           id="path1277"
           style="opacity:1;fill:#ffff00;fill-rule:evenodd;stroke-width:1.67622;stroke-linejoin:round;paint-order:stroke markers fill"
           d="m 198.54883,95.097656 c -0.30615,0.745755 -0.61823,1.490436 -0.49219,2.314453 -0.0222,2.786721 0.14203,5.628451 -0.55664,8.349611 -0.1528,1.53059 1.27517,2.67698 2.69103,2.80856 3.21813,0.41321 6.47812,0.23425 9.71522,0.28714 2.63602,-0.0278 5.29614,0.0555 7.9172,-0.0414 0.58016,-0.36662 1.53623,-0.3829 1.62609,-1.20646 0.52058,-1.04344 0.18599,-2.23937 0.27395,-3.35995 -0.0841,-2.30153 0.23157,-4.714994 -0.62779,-6.907823 -0.74035,-1.841924 -2.76722,-2.647877 -4.62109,-2.779297 -3.91792,-0.273688 -7.85156,-0.09884 -11.77617,-0.150391 -0.93532,0.05515 -1.91847,-0.110472 -2.82386,0.08278 -0.44192,0.200923 -0.88384,0.401845 -1.32575,0.602768 z" />
        <path
           id="path1348"
           style="opacity:1;fill:#ffff00;fill-rule:evenodd;stroke-width:1.67622;stroke-linejoin:round;paint-order:stroke markers fill"
           d="m 256.39648,298.36914 c -0.30615,0.74575 -0.61823,1.49044 -0.49218,2.31445 0.028,2.6399 -0.0556,5.30397 0.0414,7.92893 0.36652,0.5804 0.38317,1.53548 1.20605,1.62718 1.04038,0.51992 2.23473,0.18958 3.35256,0.28178 4.75768,0 9.51536,0 14.27304,0 0.49418,-0.32065 1.26866,-0.37954 1.57795,-0.87284 0.33519,-0.70717 0.51558,-1.44236 0.42205,-2.22716 -0.028,-2.60656 0.0556,-5.2373 -0.0414,-7.82892 -0.36652,-0.5804 -0.38317,-1.53548 -1.20605,-1.62718 -1.04038,-0.51993 -2.23473,-0.18958 -3.35256,-0.28179 -4.75768,0 -9.51536,0 -14.27304,0 -0.50261,0.22852 -1.00521,0.45703 -1.50782,0.68555 z" />
        <path
           id="path1350"
           style="opacity:1;fill:#ffff00;fill-rule:evenodd;stroke-width:1.67622;stroke-linejoin:round;paint-order:stroke markers fill"
           d="m 140.70117,316.04492 c -0.30615,0.74576 -0.61823,1.49044 -0.49219,2.31446 0,3.41601 0,6.83203 0,10.24804 0.32066,0.49418 0.37955,1.26866 0.87285,1.57795 0.70716,0.33519 1.44236,0.51558 2.22715,0.42205 10.88138,0 21.76276,0 32.64414,0 0.49418,-0.32065 1.26867,-0.37955 1.57795,-0.87285 0.33519,-0.70716 0.51558,-1.44235 0.42205,-2.22715 0,-3.38268 10e-6,-6.76536 0,-10.14804 -0.32065,-0.49418 -0.37954,-1.26867 -0.87284,-1.57795 -0.70716,-0.33519 -1.44236,-0.51558 -2.22715,-0.42205 -10.88139,-10e-6 -21.76277,0 -32.64415,0 -0.5026,0.22851 -1.0052,0.45703 -1.50781,0.68554 z" />
      </g>
    </g>
  </g>
</svg>
