<?xml version="1.0" encoding="UTF-8" standalone="no"?>
<!-- Created with Inkscape (http://www.inkscape.org/) -->

<svg
   version="1.1"
   id="svg254"
   width="500"
   height="500"
   viewBox="0 0 200 200"
   sodipodi:docname="andrax-introduction.svg"
   xml:space="preserve"
   inkscape:version="1.2.2 (b0a8486541, 2022-12-01)"
   xmlns:inkscape="http://www.inkscape.org/namespaces/inkscape"
   xmlns:sodipodi="http://sodipodi.sourceforge.net/DTD/sodipodi-0.dtd"
   xmlns="http://www.w3.org/2000/svg"
   xmlns:svg="http://www.w3.org/2000/svg"><defs
     id="defs258" /><sodipodi:namedview
     id="namedview256"
     pagecolor="#505050"
     bordercolor="#ffffff"
     borderopacity="1"
     inkscape:showpageshadow="0"
     inkscape:pageopacity="0"
     inkscape:pagecheckerboard="1"
     inkscape:deskcolor="#505050"
     showgrid="false"
     inkscape:zoom="1.8641906"
     inkscape:cx="106.21232"
     inkscape:cy="98.970566"
     inkscape:window-width="1366"
     inkscape:window-height="691"
     inkscape:window-x="0"
     inkscape:window-y="24"
     inkscape:window-maximized="1"
     inkscape:current-layer="g260" /><g
     inkscape:groupmode="layer"
     inkscape:label="Image"
     id="g260"><g
       id="g631"
       transform="matrix(1.0506975,0,0,1.0514896,-5.0934207,-5.1760174)"><path
         id="path610"
         style="fill:#ffffff;fill-rule:evenodd;stroke-width:1.78212;stroke-linejoin:bevel;paint-order:markers stroke fill"
         d="m 130.44531,27.599609 c -6.88479,0.551216 -13.06249,4.739891 -17.11011,10.190351 -2.98838,3.85705 -4.57156,8.640509 -5.05418,13.459784 -0.058,0.698874 -0.49139,-0.692454 -0.74315,-0.887932 -3.30743,-5.398387 -8.519804,-9.438659 -14.227323,-12.051265 -4.541748,-2.062628 -9.537405,-3.001209 -14.513946,-2.971082 -6.093802,0.0124 -12.382508,0.643435 -17.897854,3.428354 -4.601606,2.339673 -8.429047,5.989441 -11.576004,10.038691 -2.069332,2.662279 -3.827491,5.608711 -4.747896,8.874031 -1.283029,4.201833 -1.46,8.629514 -1.425228,12.991615 -0.0327,1.786493 -0.365646,3.57232 -1.122843,5.196012 -2.563195,7.653025 -1.940621,16.178343 1.123615,23.59277 2.477964,6.278222 6.19648,11.969502 8.804572,18.185572 0.05537,0.43186 -0.98519,0.24592 -1.361544,0.49465 -2.140916,0.66434 -4.09382,1.80333 -6.124056,2.73601 -4.069176,2.08413 -8.15521,4.13998 -12.374834,5.9069 -4.266725,1.87385 -8.639191,3.53752 -12.839266,5.59837 -4.077691,2.03763 -7.739599,5.30112 -9.3676155,9.65041 -1.884237,4.6762 -1.6265042,9.80543 -1.9291892,14.74323 -0.061382,1.5288 -0.2358856,3.3648 -0.1758462,5.02762 -0.085497,2.64512 1.1770479,5.14253 2.9869189,7.00685 1.887915,2.18362 4.660517,3.63154 7.574609,3.64302 15.610981,-0.12836 31.232396,0.1897 46.837635,-0.38956 0.719897,0.004 1.457717,-0.24821 2.154163,-0.20659 2.586961,0.94751 5.380339,0.45485 8.067186,0.56904 2.987103,-0.0172 5.983304,0.0818 8.964064,-0.11591 0.670912,-0.0604 1.277411,-0.47521 1.910655,-0.57464 3.062939,0.59183 6.201273,0.3706 9.300497,0.53376 13.24309,0.25865 26.48973,0.1268 39.73416,0.15025 3.00254,-0.11707 5.68206,-1.87837 7.56783,-4.12621 2.09474,-2.2569 2.88178,-5.48795 2.48208,-8.49788 -0.22317,-6.08611 0.031,-12.2812 -1.48936,-18.22942 -1.34401,-4.64595 -4.50901,-8.78483 -8.81566,-11.04733 -3.99538,-2.32185 -8.4994,-3.50532 -12.72731,-5.30619 3.83782,1.36647 7.99093,0.46069 11.79217,-0.5708 3.22065,-0.95567 6.40108,-2.07242 9.49267,-3.38721 4.5344,-2.00745 8.79704,-4.64715 12.56086,-7.87988 4.37903,0.74116 8.99617,1.00501 13.25166,-0.49919 7.30108,-2.29244 13.7159,-7.91567 16.17745,-15.257244 1.88483,-6.410351 2.83345,-13.041432 4.01009,-19.605261 1.14139,-6.85642 2.2427,-13.740514 2.65985,-20.683958 -0.0763,-5.970489 -2.7825,-11.632637 -6.47019,-16.21685 -3.37962,-4.129929 -8.12364,-7.30055 -13.45986,-8.120938 -7.04734,-1.311179 -14.14821,-2.318199 -21.24768,-3.301169 -6.1926,-0.818244 -12.39707,-1.596703 -18.62631,-2.065933 -0.6747,-0.04039 -1.35003,-0.02562 -2.02548,-0.02485 z M 111.2793,101.6543 c 1.75774,1.73753 3.75925,3.23182 5.9414,4.39453 -2.37048,3.0428 -3.52931,7.15521 -2.46644,10.93284 0.85938,3.21722 3.09585,6.04994 6.06215,7.57692 -5.16139,-2.14732 -10.32325,-4.38171 -15.05129,-7.39021 -0.71468,-0.39328 -1.49579,-0.65471 -2.29051,-0.83049 2.59682,-4.88354 5.52906,-9.63239 7.78516,-14.70508 z" /><g
         id="g1136"
         transform="matrix(0.43093596,0,0,0.42702466,-10.319606,-9.3183142)"><path
           id="path372"
           style="fill:#000000;stroke-width:1.49365"
           d="m 326.97144,109.87473 c -11.9386,1.96315 -24.05667,13.72705 -27.31619,26.51764 -1.49787,5.87775 -9.64861,66.56455 -11.08205,82.51333 -0.81819,9.10328 2.89732,17.69825 10.921,25.26842 6.45611,6.09117 12.79948,8.59422 25.4869,10.0559 4.79439,0.55235 8.71644,1.65962 8.71644,2.46128 0,3.56266 -7.96251,15.89721 -14.34862,22.22592 -7.14502,7.08078 -8.27842,9.89158 -5.30857,13.16505 2.26488,2.49645 10.27214,1.07211 26.04298,-4.63272 13.32393,-4.81969 22.87286,-10.47725 33.05016,-19.58174 l 6.00291,-5.37049 11.87059,1.83046 c 10.09801,1.55706 13.02507,1.45753 19.60554,-0.66492 9.26397,-2.98796 17.44819,-10.06819 21.32848,-18.45185 3.87237,-8.36655 16.11538,-83.18878 14.94269,-91.32154 -1.86446,-12.93045 -12.08852,-26.95529 -22.30236,-30.5924 -8.81045,-3.13737 -91.23204,-14.47112 -97.6099,-13.42234 z m 2.46892,10.47438 c 5.86277,-0.27548 20.33712,1.69779 75.12065,9.87457 8.06686,1.20404 16.92706,3.37093 19.68911,4.81562 6.12515,3.20375 11.88044,12.37584 12.83232,20.45124 0.67082,5.69103 -9.2122,70.35964 -12.46312,81.55237 -1.95231,6.72164 -11.29008,15.74921 -17.65168,17.06467 -4.72761,0.97758 -16.49816,0.18054 -27.03207,-1.8289 -3.55201,-0.67759 -5.54634,0.39155 -11.88426,6.36552 -4.18857,3.94808 -10.26953,8.88001 -13.51452,10.96107 -3.24496,2.08107 -9.15928,5.18895 -13.14228,6.90647 l -7.24116,3.12309 6.46782,-14.00357 c 8.08423,-17.49936 7.8199,-17.95089 -12.38261,-21.07587 -19.34812,-2.99281 -23.78001,-5.67897 -29.35361,-17.79777 -2.2396,-4.8696 -2.25976,-6.05969 -0.26284,-14.89788 1.1936,-5.28287 3.88255,-23.71797 5.97555,-40.9676 2.093,-17.24962 4.66203,-33.19986 5.70967,-35.44367 2.95086,-6.31996 11.41071,-13.68711 17.0561,-14.85448 0.57846,-0.11961 1.23939,-0.20553 2.07693,-0.24488 z m -122.79292,7.61787 c -1.97866,-0.0128 -4.03353,0.039 -6.17916,0.15035 -19.30026,1.00107 -28.38331,5.01078 -39.73981,17.5467 -10.66248,11.76983 -13.40361,19.57216 -13.40361,38.15293 0,10.18358 -0.72251,14.98702 -3.20124,21.28357 -2.36072,5.9968 -3.17871,11.02808 -3.1192,19.1679 0.0926,12.66376 3.32899,21.53499 17.88565,49.01017 4.70274,8.87624 8.91653,18.7562 9.36368,21.95467 1.68361,12.04274 7.58955,19.09892 19.38979,23.16672 8.44621,2.91162 26.11295,2.75708 34.25046,-0.29914 8.84883,-3.32337 16.08725,-11.31118 17.20802,-18.98967 0.47394,-3.24699 1.12072,-7.31573 1.43578,-9.04071 0.31504,-1.72495 4.21285,-9.45415 8.66174,-17.17626 18.84602,-32.71182 22.94618,-50.29359 15.67805,-67.22796 -3.11394,-7.25533 -3.73605,-10.90907 -3.73605,-21.93454 0,-21.61966 -5.95773,-34.89326 -20.23302,-45.07955 -10.35672,-7.39015 -20.4105,-10.59569 -34.26108,-10.68518 z m 50.62131,188.10193 -14.4398,41.88671 c -7.9415,23.0375 -14.43315,42.41467 -14.42459,43.06154 0.008,0.64686 24.72764,1.17639 54.93167,1.17639 h 54.9165 l -0.54088,-19.99402 c -0.77882,-28.81266 -2.96061,-32.20654 -26.06578,-40.56617 -15.55661,-5.62853 -41.42506,-17.2568 -48.52919,-21.81364 z m -109.31184,4.87915 c -0.18094,-0.26771 -6.95917,3.00731 -15.06272,7.27844 -8.10356,4.27115 -22.73589,11.09253 -32.51688,15.15828 -34.281331,14.24993 -33.338438,13.06513 -34.671302,43.52031 l -0.668509,15.28846 h 55.370771 c 30.45396,0 55.37077,-0.48352 55.37077,-1.0741 0,-1.00411 -27.10593,-79.11168 -27.82213,-80.17139 z m 53.86967,10.67898 c -15.9437,0 -18.934,2.05056 -18.934,12.98062 0,8.17817 3.18958,13.67808 7.93247,13.67808 2.90832,0 3.37578,0.59841 2.74847,3.52763 -0.41558,1.94058 -2.26307,11.82052 -4.10525,21.95468 l -3.35014,18.4255 h 15.57323 15.57169 l -0.81437,-4.31189 c -2.82988,-14.98746 -6.61821,-38.41678 -6.25056,-38.65511 0.24039,-0.15582 2.35796,-0.97439 4.70539,-1.81962 4.08821,-1.47199 4.28567,-1.96246 4.69932,-11.65697 0.56562,-13.25644 -0.52433,-14.12292 -17.77625,-14.12292 z" /><g
           id="g4703"
           transform="matrix(0.06484123,0,0,0.07878788,661.11126,91.863159)"><g
             id="g1125"
             transform="matrix(0.29905096,0.04384786,-0.05209205,0.25234647,-5376.0928,528.82584)"><g
               id="g4746"
               transform="matrix(1,0,0,1.161496,0,-610.55012)"><g
                 id="g4752"
                 transform="matrix(1,0,0,1.0577795,0,-218.4404)"><path
                   inkscape:connector-curvature="0"
                   d="m 654.1875,2200.5898 v 18.4493 18.4492 l 6.47461,3.0898 c 23.3898,11.1629 39.71955,29.6457 45.69727,51.7246 1.67349,6.1813 2.11925,10.7767 2.15624,22.2871 0.0688,21.213 -3.90269,40.2481 -15.15429,72.6407 -5.6163,16.1688 -482.76498,1240.7634 -491.86328,1262.3593 -7.5983,18.0356 -18.87867,40.066 -26.13477,51.0391 -13.1507,19.8871 -29.30964,31.68 -54.92383,40.082 l -10.25,3.3633 v 18.2578 18.2578 h 212.99805 213 v -18.2793 -18.2773 l -10.42578,-4.1348 c -15.4657,-6.1324 -23.86824,-11.4263 -33.68164,-21.2187 -6.7293,-6.7148 -9.41021,-10.2657 -12.2832,-16.2656 -6.68811,-13.967 -8.06581,-28.133 -4.66211,-47.9746 4.1499,-24.1914 3.88349,-23.456 66.33789,-183.3497 l 36.32617,-93 h 292.44531 292.44336 l 43.1797,108 c 23.7486,59.4 45.938,115.3683 49.3105,124.3731 11.3503,30.3062 15.7918,50.8405 14.6739,67.8594 -2.1749,33.1087 -19.9193,54.1422 -53.4141,63.3203 l -8.25,2.2617 v 18.3418 18.3437 h 236.5 236.5 v -18.3457 -18.3457 l -7.75,-2.4043 -7.75,-2.4043 8.25,-0.291 8.25,-0.289 v -11.8731 -11.873 l -7.6934,-3.8028 c -13.5161,-6.6784 -20.9815,-15.813 -25.0468,-30.6484 -1.5875,-5.7935 -1.7256,-28.4279 -2,-328.2051 -0.2515,-274.6617 -0.09,-321.7644 1.0937,-320.5 2.3162,2.474 420.6006,605.7485 425.6953,613.9629 7.0185,11.3162 12.8118,23.3089 14.5645,30.1504 3.8332,14.9622 -3.4902,30.9718 -16.8633,36.8691 l -4.75,2.0938 v 11.9531 11.9531 h 116.5 116.5 v -11.9726 -11.9707 l -6.25,-3.0996 c -13.7446,-6.815 -20.7476,-14.3473 -25.0234,-26.9141 l -2.2266,-6.543 -0.2754,-453 c -0.2036,-333.0207 0.021,-454.8067 0.8516,-459.8203 2.483,-14.9966 11.0138,-26.0885 25.6738,-33.3789 l 7.25,-3.6054 v -11.8477 -11.8477 h -108.5 -108.5 v 11.8477 11.8477 l 7.3965,3.6562 c 14.4726,7.1528 23.0537,18.3554 25.5273,33.3281 0.8232,4.9804 1.0521,90.9361 0.8516,318.6856 l -0.2754,311.8652 -205.9844,-298.8652 c -120.3368,-174.5972 -207.7339,-302.3306 -210.1894,-307.1992 -12.7312,-25.2424 -8.1567,-49.8076 11.0019,-59.0821 l 4.6719,-2.2617 V 2716.5 2704.5898 H 1590.1562 1464.125 l 0.2812,11.6387 0.2813,11.6387 7.4258,3.8848 c 13.6966,7.1657 20.0485,14.1539 24.3496,26.7949 l 2.2246,6.5429 0.1934,337.5 c 0.1056,185.625 -0.1843,336.6 -0.6426,335.5 -19.6446,-47.1559 -431.3202,-1071.7053 -434.0332,-1080.1914 -6.3703,-19.9265 -8.4312,-32.2194 -8.4317,-50.3086 -4e-4,-14.1661 0.2315,-16.1885 2.6856,-23.5 6.3924,-19.045 22.0973,-34.074 45.9785,-43.996 l 6.75,-2.8028 v -18.3515 -18.3497 h -228.5 z m 4155.6992,14 0.5664,17.584 c 0.3125,9.671 0.7342,17.7478 0.9356,17.9492 0.2014,0.2015 5.2499,1.0923 11.2187,1.9786 33.1573,4.9234 55.0724,14.1752 71.9453,30.373 16.6723,16.005 43.2045,49.8804 80.7618,103.1152 43.5201,61.6866 404.327,582.5642 404.0781,583.3457 -0.5378,1.6891 -381.5031,530.6543 -382.1817,530.6543 -1.1461,0 -243.3668,-684.9203 -246.2578,-696.3359 -5.1756,-20.4367 -5.4005,-36.5452 -0.6836,-49.1523 2.9306,-7.8327 11.826,-17.1647 20.916,-21.9414 l 7.002,-3.6797 v -11.9453 -11.9454 h -131 -131 v 11.8575 11.8593 l 6.0137,3.711 c 12.2813,7.5805 20.3863,18.6431 23.5722,32.1758 3.1834,13.5223 0.37,37.4092 -7.289,61.8964 -3.704,11.8424 -278.7525,813.9649 -283.9219,828 -2.4309,6.6 -7.1872,17.625 -10.5703,24.5 -5.1892,10.5453 -7.2589,13.6134 -13.2285,19.6133 -6.9448,6.98 -15.6437,12.3494 -24.8262,15.3262 l -3.75,1.2168 v 11.9219 11.9218 h 123 123 v -11.8828 -11.8847 l -5.2656,-2.1368 c -10.8056,-4.3857 -21.3448,-13.289 -26.1231,-22.0683 -3.8994,-7.1645 -5.9174,-17.8459 -5.1093,-27.0274 1.5773,-17.9207 2.8944,-22.1967 41.3085,-134 l 18.7247,-54.5 h 168.4785 168.4765 l 27.3516,78 c 28.9028,82.4247 32.8409,95.0201 33.8359,108.2442 l 0.6192,8.2441 -10.3985,10.5918 c -19.6304,19.9947 -39.8598,30.1295 -70.1484,35.1426 l -9.75,1.6133 v 17.832 17.832 h 268 268 v -17.8847 -17.8848 l -8.25,-1.2012 c -38.2829,-5.5735 -59.6564,-27.06 -59.7324,-60.0488 -0.039,-16.7945 9.6701,-38.5956 32.2246,-72.3594 6.7555,-10.1129 251.1609,-362.4236 261.7578,-377.3242 l 3.7012,-5.2031 136.6425,193.3418 c 75.1536,106.3384 139.994,198.5839 144.0899,204.9902 13.9113,21.7582 23.4128,42.7275 25.0644,55.3125 0.8698,6.6278 -1.0165,18.0924 -4.1425,25.1758 -7.1083,16.1069 -23.3309,27.9228 -47.7598,34.7891 l -9.5957,2.6972 v 17.8008 17.7988 h 277 277 v -17.8281 -17.8281 l -10.75,-2.2344 c -13.4828,-2.8004 -31.1068,-8.6257 -42.5176,-14.0527 -27.0667,-12.8729 -44.689,-30.5718 -88.1719,-88.5567 -23.5836,-31.4489 -12.0585,-15.105 -250.8925,-355.7382 l -213.666,-304.7403 206.125,-277.7597 c 113.3698,-152.7684 215.4073,-289.9084 226.75,-304.7539 38.2676,-50.0851 66.3715,-84.2681 76.9238,-93.5665 13.5719,-11.9591 33.1529,-19.1612 66.4492,-24.4374 l 3.75,-0.5938 v -17.9551 -17.9551 h -272.5 -272.5 v 17.9336 c 0,16.2221 0.1669,17.9788 1.75,18.4297 0.9625,0.2742 4.3645,1.0169 7.5586,1.6504 15.0719,2.9889 32.0283,10.5336 42.2266,18.7891 17.1394,13.8744 23.0751,36.8407 15.3457,59.375 -5.2392,15.2746 -15.4586,34.2025 -31.4239,58.2031 -12.1795,18.3093 -234.8058,328.9077 -236.0273,329.2949 -0.5111,0.1621 -34.6797,-47.4726 -75.9297,-105.8535 -41.25,-58.3809 -92.1383,-130.4058 -113.0859,-160.0566 -50.7247,-71.7993 -63.2422,-92.1738 -70.5118,-114.7657 -3.8168,-11.8614 -4.4914,-20.0513 -2.539,-30.8496 4.5132,-24.9622 22.007,-42.713 52.8867,-53.6621 l 7.75,-2.748 v -17.8692 -17.8711 h -280.6504 z m -2643.1972,227.1407 c 3.0228,0.035 16.6558,0.1799 36.7812,0.4043 -0.03,-0.022 -0.061,-0.044 -0.092,-0.066 -26.8301,-0.2515 -40.0133,-0.377 -36.6894,-0.3379 z M 873.35938,2600.4062 c 0.599,0.6103 206.34912,555.154 207.56442,559.4336 0.4722,1.663 -9.9672,1.75 -209.22653,1.75 -167.3372,0 -209.63729,-0.2526 -209.30079,-1.25 5.5135,-16.3398 210.49848,-560.4063 210.9629,-559.9336 z m 1560.82812,104.1836 v 11.8477 11.8477 l 7.25,3.6054 c 9.9982,4.9721 16.968,11.3626 20.7148,18.9903 6.5438,13.3222 6.0764,-24.9002 5.793,473.9316 l -0.2578,453.2773 -2.2246,6.543 c -4.2754,12.5654 -11.1261,19.9181 -25.0254,26.8633 l -6.25,3.123 v 11.9864 11.9804 h 219.75 c 134.475,0 225.9589,-0.3885 235.75,-0.998 82.04,-5.1064 137.9737,-21.8567 184.6582,-55.2969 64.3445,-46.0903 116.2795,-125.5844 144.1914,-220.709 14.8056,-50.4582 23.0697,-97.7875 28.3496,-162.3574 2.1971,-26.8689 2.5312,-122.7773 0.5176,-148.6348 -5.8885,-75.6206 -16.2259,-130.8139 -35.209,-188 -31.5663,-95.0928 -79.8394,-164.3925 -144.5078,-207.455 -43.8857,-29.2234 -97.851,-44.5803 -173.9824,-49.5098 -10.2245,-0.662 -95.8836,-1.0352 -237.75,-1.0352 z m 932.0098,0 v 11.75 11.75 l 7.7461,3.9551 c 13.9011,7.0976 21.7645,17.0713 24.8183,31.4766 2.1241,10.0205 2.0822,906.3093 -0.043,916.3379 -3.0382,14.3365 -11.0763,24.3043 -25.252,31.3086 l -7.2793,3.5957 v 11.914 h 0.01 v 11.9121 h 115.5 115.5 v -11.8359 -11.8359 l -8.502,-4.2129 c -13.8165,-6.8463 -20.1864,-14.5743 -24.2324,-29.3926 -1.5637,-5.727 -1.7237,-20.499 -2.0059,-185.4766 l -0.3066,-179.2558 99.1777,0.2558 99.1778,0.2539 75.7968,154 c 79.7872,162.107 89.8031,183.0853 95.418,199.8653 5.6681,16.9387 4.481,27.0338 -4.0625,34.5351 -3.8052,3.341 -11.3632,7.1724 -16.7109,8.4707 l -2.75,0.668 v 11.9805 11.9804 h 134 134 v -11.83 -11.8282 l -7.75,-1.6816 c -18.2821,-3.9645 -31.8111,-14.7263 -45.459,-36.1602 -6.555,-10.2945 -19.2394,-32.6493 -29.5059,-52 -12.6382,-23.8211 -159.2851,-315.0074 -159.2851,-316.2812 0,-0.5738 1.9125,-1.3624 4.25,-1.7539 7.8293,-1.3112 30.7935,-8.4469 43.5839,-13.543 53.5559,-21.3378 93.1892,-57.7581 118.5879,-108.9765 23.3903,-47.1683 34.0006,-101.1757 33.9766,-172.9454 -0.012,-36.6645 -2.6772,-65.4515 -8.8769,-95.8925 -13.4716,-66.146 -35.8558,-111.9519 -71.6622,-146.6465 -42.0805,-40.7741 -89.0768,-57.9697 -173.3418,-63.4258 -10.3116,-0.6677 -104.4322,-1.0352 -265.25,-1.0352 z M 5211.793,2862.875 c 0.5119,0.4415 0.9804,0.8528 1.3808,1.2188 1.6353,0.9771 2.3111,1.3595 3.043,1.7773 -0.097,-0.1332 -0.1935,-0.2651 -0.291,-0.3984 -1.201,-0.778 -2.6746,-1.7117 -4.1328,-2.5977 z m -2581.6055,11.6094 118.25,0.3574 c 105.274,0.3184 119.7314,0.549 131.75,2.1016 52.5849,6.7933 88.1682,22.1929 117.0254,50.6464 47.7424,47.0744 74.9594,119.1917 84.5371,224 2.1852,23.9129 3.0351,88.5086 1.5273,116.0274 -6.1199,111.6885 -32.1313,190.7995 -79.4238,241.5586 -13.6091,14.6066 -31.562,28.3729 -47.166,36.168 -24.1366,12.0578 -58.3251,19.8022 -98,22.1992 -9.7308,0.588 -62.2184,1.0271 -122.75,1.0371 l -105.75,0.01 v -347.0527 z m 932,0.1054 137.75,0.02 c 137.2883,0.019 163.6229,0.5275 184.2305,3.5605 12.0536,1.774 25.976,6.1301 34,10.6367 38.4713,21.6067 55.2511,58.8169 55.1406,122.2774 -0.056,32.2492 -4.4242,56.8635 -13.4883,75.998 -10.3714,21.8943 -23.3748,35.3679 -44.1328,45.7325 -13.3368,6.6592 -25.7673,9.6058 -50,11.8574 -13.9101,1.2921 -301.5411,2.5691 -302.75,1.3437 -0.4125,-0.4181 -0.75,-61.6603 -0.75,-136.0937 z m 1080.084,92.2188 c 1.1233,2.0651 118.9199,364.1568 118.9199,365.5312 0,0.9931 -24.7926,1.25 -120.6094,1.25 -96.0617,0 -120.5149,-0.2544 -120.1523,-1.25 0.2505,-0.6875 27.6112,-83.5019 60.8008,-184.0312 33.1896,-100.5294 60.6579,-182.2044 61.041,-181.5 z"
                   style="fill:#000000"
                   id="path817" /></g></g><g
               id="g4743"
               transform="matrix(1,0,0,0.89270016,0,5.6817013)"><g
                 id="g4749"
                 transform="matrix(1,0,0,0.97456324,0,67.335697)"><path
                   inkscape:connector-curvature="0"
                   id="path844"
                   d="m 2544.4017,52.951649 c -0.3545,8.45e-4 -0.5777,0.02702 -0.6638,0.08233 -1.1825,0.761246 22.7328,10.373301 53.1464,21.359177 197.8861,71.481054 371.841,163.315054 470.3772,248.317214 37.079,31.98667 74.6211,69.042 74.6211,73.65743 0,0.87791 -35.3918,2.71487 -78.6489,4.08074 -43.2565,1.36587 -89.0572,4.08531 -101.7764,6.0446 l -23.1253,3.56281 -68.8777,-44.8254 C 2744.4272,283.86478 2593.6688,219.66325 2379.1347,156.422 2262.2863,121.97719 2026.7752,74.273465 1973.7254,74.304873 c -5.5519,9.83e-4 21.9592,11.303958 61.1352,25.11227 174.9324,61.657967 323.2536,135.343557 440.0233,218.604287 52.0642,37.12339 157.3005,119.78436 161.1132,126.55016 0.8924,1.58406 -29.8267,8.50102 -68.2633,15.37146 -317.3418,56.72586 -615.2561,142.11617 -814.8227,233.55002 -105.7566,48.4535 -207.476,111.81034 -235.7913,146.86559 l -9.1036,11.27109 14.1202,-5.95435 c 114.7975,-48.4167 155.361,-61.03332 219.1855,-68.17198 21.375,-2.39065 50.4609,-3.80214 64.6351,-3.1351 l 25.7725,1.21441 -59.2226,45.85933 c -279.2796,216.26954 -506.3558,466.36114 -619.3949,682.17484 -49.1208,93.7828 -87.6285,206.6513 -81.7531,239.6221 1.6741,9.3956 5.8241,6.2708 34.0095,-25.6047 59.9068,-67.749 97.2226,-96.5496 166.7462,-128.6985 40.2743,-18.6233 100.6502,-40.8963 104.3683,-38.5022 1.5166,0.9764 -7.8679,28.2462 -20.8524,60.601 -115.2899,287.2686 -165.2141,654.0962 -115.932,851.8319 17.6973,71.0055 55.8023,141.6753 90.6696,168.1561 l 12.58,9.5543 0.199,-46.4105 c 0.3794,-89.899 17.9812,-157.8402 53.1127,-205.0418 17.4625,-23.4621 68.5743,-67.7184 81.2844,-70.3811 4.2231,-0.8846 8.0198,9.2855 10.5946,28.3789 5.8809,43.6044 31.7269,136.8329 54.5053,196.6056 13.4509,35.2965 28.6939,69.3222 46.6663,103.4528 h 2591.7802 c -103.3561,-56.1722 -226.0351,-120.9784 -377.354,-199.5995 -535.0033,-277.9732 -711.6214,-384.7973 -839.5553,-507.7878 -137.1088,-131.8103 -134.1824,-241.0336 8.9697,-334.6858 17.7129,-11.5877 32.1719,-22.3959 32.1305,-24.0176 -0.062,-1.6213 -15.2131,-8.9679 -33.716,-16.3248 -42.7684,-17.0044 -117.0591,-63.9201 -148.2653,-93.6315 -78.3626,-74.6094 -115.9266,-164.4799 -97.3919,-233.0066 6.5925,-24.3716 25.7183,-55.5334 34.0843,-55.5334 2.0322,0 2.2626,13.4414 0.516,29.8698 -3.9065,36.697 3.4112,86.5024 16.4109,111.7006 5.3508,10.3735 22.8229,31.7756 38.8272,47.5604 16.0044,15.7849 34.6094,35.6513 41.3424,44.1485 22.0857,27.8732 156.7772,108.7386 239.7207,143.9208 124.846,52.9552 204.3925,58.8157 349.5547,25.7537 120.936,-27.5446 167.3041,-35.7634 227.58,-40.3405 204.4539,-15.5245 502.4598,66.0993 796.9503,218.2865 128.9726,66.6505 182.4908,91.2423 244.2115,112.2146 69.0018,23.4457 119.1706,32.439 216.4102,38.7965 360.2564,23.5528 350.2269,23.1662 392.9908,15.1968 49.5148,-9.2272 109.1335,-29.4143 161.06,-54.5347 l 45.191,-21.8615 -29.5424,-0.8868 c -253.5981,-7.6096 -439.7847,-54.8419 -655.7679,-166.355 -34.279,-17.6987 -118.4182,-64.5072 -186.9762,-104.0197 -279.332,-160.9903 -365.7751,-198.8024 -629.1918,-275.2209 -52.2352,-15.1537 -121.3356,-36.0961 -153.5577,-46.538 l -58.5844,-18.9853 25.938,-14.3455 c 41.0192,-22.6863 91.4754,-43.1512 128.4154,-52.0863 97.6589,-23.6217 240.9958,-8.1737 475.2363,51.2193 179.4308,45.4953 280.8168,86.5057 416.1063,168.3149 117.2635,70.9093 165.2724,90.7695 292.3608,120.9392 82.2312,19.5213 104.2907,29.1259 124.1433,54.0502 12.7306,15.9832 14.8793,52.8601 5.511,94.5948 -3.0492,13.5842 -4.8507,25.1442 -4.0042,25.6892 3.5778,2.3035 68.4359,-27.9039 94.8609,-44.182 29.4583,-18.1461 52.929,-43.1435 59.8331,-63.7244 l 3.9117,-11.6595 105.1463,8.8698 c 170.785,14.4092 177.6647,17.7921 170.78,83.9651 -4.8133,46.264 0.084,49.4751 35.3331,23.1602 28.9925,-21.6449 43.8902,-41.0377 48.433,-63.0455 2.5118,-12.1708 9.4433,-22.3896 21.0021,-30.9665 15.2688,-11.3294 17.0719,-15.2856 15.6801,-34.396 -1.433,-19.6747 0.3256,-23.1868 19.8026,-39.5047 33.5284,-28.0942 43.4535,-48.9974 43.2096,-91.0085 -0.1739,-30.0355 -3.5072,-43.0104 -19.2925,-75.1211 -20.5249,-41.7536 -22.4787,-51.2299 -12.9345,-62.712 12.3609,-14.8707 59.7463,-3.6603 80.5989,19.0677 16.2005,17.6574 22.1879,14.4178 18.2899,-9.8998 -5.0799,-31.6907 -34.012,-66.3977 -80.591,-96.6782 -75.213,-48.895 -117.9152,-54.0029 -206.1426,-24.6591 -51.4827,17.1226 -56.0198,17.9243 -90.2363,15.9266 -45.6616,-2.6658 -89.3561,-15.814 -134.665,-40.5209 -115.1186,-62.7743 -137.3251,-69.456 -197.3837,-59.3945 -18.7608,3.1427 -40.26,8.3034 -47.7751,11.4692 -12.7427,5.3685 -16.3425,4.7964 -53.4221,-8.4891 -63.9881,-22.9263 -125.2668,-50.0837 -178.0361,-78.8995 C 4914.4766,982.99579 4784.7408,890.65023 4768.6051,868.76104 4753.9344,848.85788 4666.161,769.60203 4575.4562,694.3563 l -65.2103,-54.09536 1.8751,-26.12265 c 3.6692,-51.14224 -46.3086,-117.49787 -141.3361,-187.64949 -32.4168,-23.93063 -87.2564,-53.11115 -120.8009,-64.27958 -19.8616,-6.61271 -18.6065,-4.33001 10.8605,19.73668 50.3495,41.12222 61.6972,67.16533 50.4578,115.80681 l -7.392,31.99657 -20.8327,-24.21961 c -57.56,-66.92098 -207.1447,-154.83094 -333.7288,-196.13071 l -31.2697,-10.20186 26.3831,22.26557 c 81.6074,68.86904 121.0992,118.53003 113.5585,142.80447 l -3.3916,10.91598 -39.3846,-9.83498 C 3871.007,429.33436 3757.1941,411.01066 3628.6155,403.1011 3513.1947,396.00081 3518.9851,397.27313 3470.6283,368.40496 3265.4712,245.93053 3019.1223,150.86409 2756.0573,92.65455 2692.1659,78.516643 2555.3906,52.925595 2544.4017,52.951649 Z M 4031.8622,755.51652 c 27.5421,-0.0233 54.6228,4.09909 80.7978,12.34426 24.2919,7.65221 48.76,21.64801 99.0897,56.68506 36.757,25.58837 91.47,62.44546 121.5847,81.90329 30.1148,19.45787 51.3763,35.37692 47.2494,35.37692 -4.1275,0 -34.1074,-5.3464 -66.6244,-11.88121 -65.5408,-13.17073 -86.9434,-19.40177 -110.9686,-32.30854 -26.172,-14.06062 -74.0846,-23.46551 -159.8604,-31.37858 -93.8353,-8.65684 -132.127,-19.44366 -163.52,-46.06728 -10.7261,-9.09638 -19.5032,-18.04229 -19.5032,-19.87794 0,-5.38594 74.9086,-30.80047 114.7147,-38.9201 19.1354,-3.90324 38.1957,-5.85991 57.0403,-5.87588 z m 1274.761,412.41018 c 21.5688,-0.2211 44.4225,7.7756 71.8084,24.1 35.1984,20.9807 93.5376,70.3123 78.0443,65.9942 -4.7014,-1.3105 -25.9106,-7.078 -47.131,-12.819 -45.2376,-12.2382 -121.6047,-16.438 -172.1115,-9.4642 -17.2909,2.3876 -32.2059,3.8454 -33.1448,3.2411 -4.1335,-2.6611 29.7548,-40.3183 46.2112,-51.3508 19.2613,-12.9129 37.292,-19.5064 56.3234,-19.7013 z"
                   style="fill:#000000;stroke-width:4.76286" /></g></g></g></g></g></g></g></svg>
