<?xml version="1.0" encoding="UTF-8" standalone="no"?>
<!-- Created with Inkscape (http://www.inkscape.org/) -->

<svg
   width="1000mm"
   height="700mm"
   viewBox="0 0 1000 700"
   version="1.1"
   id="svg5"
   xml:space="preserve"
   inkscape:version="1.2.2 (b0a8486541, 2022-12-01)"
   sodipodi:docname="andrax-bug-bounty.svg"
   xmlns:inkscape="http://www.inkscape.org/namespaces/inkscape"
   xmlns:sodipodi="http://sodipodi.sourceforge.net/DTD/sodipodi-0.dtd"
   xmlns:xlink="http://www.w3.org/1999/xlink"
   xmlns="http://www.w3.org/2000/svg"
   xmlns:svg="http://www.w3.org/2000/svg"><sodipodi:namedview
     id="namedview7"
     pagecolor="#505050"
     bordercolor="#ffffff"
     borderopacity="1"
     inkscape:showpageshadow="0"
     inkscape:pageopacity="0"
     inkscape:pagecheckerboard="1"
     inkscape:deskcolor="#505050"
     inkscape:document-units="mm"
     showgrid="false"
     inkscape:zoom="0.16441126"
     inkscape:cx="1496.2479"
     inkscape:cy="1408.0544"
     inkscape:window-width="1366"
     inkscape:window-height="691"
     inkscape:window-x="0"
     inkscape:window-y="24"
     inkscape:window-maximized="1"
     inkscape:current-layer="layer1"
     showguides="true"><sodipodi:guide
       position="1700.787,350.4537"
       orientation="0,-1"
       id="guide3201"
       inkscape:locked="false" /><sodipodi:guide
       position="118.34482,689.75865"
       orientation="0,-1"
       id="guide3412"
       inkscape:locked="false" /><sodipodi:guide
       position="376.57093,9.6199633"
       orientation="0,-1"
       id="guide3436"
       inkscape:locked="false" /><sodipodi:guide
       position="16.092775,487.57539"
       orientation="1,0"
       id="guide3438"
       inkscape:locked="false" /><sodipodi:guide
       position="976.85728,468.5457"
       orientation="1,0"
       id="guide3440"
       inkscape:locked="false" /></sodipodi:namedview><defs
     id="defs2"><rect
       x="852.89258"
       y="1928.7736"
       width="1976.0547"
       height="1229.728"
       id="rect1438" /><rect
       x="1419.9217"
       y="2415.0306"
       width="2327.6286"
       height="1880.0336"
       id="rect1426" /><linearGradient
       id="linearGradient8120"><stop
         style="stop-color:#ff0000;stop-opacity:1;"
         offset="0"
         id="stop8116" /><stop
         style="stop-color:#ff0000;stop-opacity:0;"
         offset="1"
         id="stop8118" /></linearGradient><linearGradient
       xlink:href="#linearGradient8120"
       id="linearGradient8122"
       x1="416.65988"
       y1="552.31458"
       x2="421.72205"
       y2="-225.3533"
       gradientUnits="userSpaceOnUse"
       gradientTransform="matrix(0.59312171,0,0,0.58624652,8.3716843,11.24208)" /></defs><g
     inkscape:label="Layer 1"
     inkscape:groupmode="layer"
     id="layer1"><g
       id="g482"
       transform="matrix(0.97560047,0,0,0.95732289,12.182676,14.953219)"><path
         id="path1732-3"
         style="fill:#ffffff;stroke-width:1.34569"
         d="m 759.07031,-3.5566406 c -8.39451,-0.029801 -16.99981,0.089284 -25.01143,2.89368463 -8.96957,3.24232047 -17.23977,8.16795917 -24.94395,13.74001697 -13.04956,9.578564 -24.30345,21.399878 -34.36444,34.029269 -13.4678,17.047069 -24.64109,35.776868 -34.75948,54.96288 -9.21408,17.61535 -17.52854,35.68984 -25.08384,54.07231 -2.12548,5.53284 -3.97867,11.4152 -3.46489,17.41558 0.77149,5.65584 4.22117,10.66614 8.64741,14.1429 4.15682,3.82425 8.55747,7.36781 12.9357,10.93086 -21.23946,16.75535 -39.28382,37.47404 -53.27921,60.60938 -12.62755,20.74312 -22.3632,43.0861 -30.95222,65.75863 -6.922,18.41523 -13.08944,37.11781 -18.71961,55.96691 -1.71731,5.92025 -3.42182,11.853 -4.73153,17.87859 -1.45943,7.3674 -1.7792,15.21652 0.79955,22.38064 2.05442,5.79374 5.76509,10.94426 10.41818,14.9371 -0.61054,0.72411 -1.16177,1.50089 -1.63086,2.32422 -23.00196,-0.0176 -46.00391,-0.0352 -69.00586,-0.0527 -0.48445,-1.85935 -0.9683,-3.71886 -1.45313,-5.57812 -10.62435,0 -21.24869,0 -31.87304,0 0,34.1263 0,68.2526 0,102.37891 9.04166,0 18.08333,-10e-6 27.125,0 2.07705,-1.55367 3.9171,-3.46234 5.20898,-5.72266 17.10938,0.0124 34.21875,0.0247 51.32813,0.0371 -4.19565,3.49651 -8.54232,6.93911 -13.57968,9.14793 -9.7637,4.72742 -20.16788,7.79185 -30.46103,11.11727 -11.90046,3.77664 -23.93094,7.29218 -35.44236,12.18357 -11.00389,4.78939 -21.45671,11.31284 -29.55782,20.26198 -2.84562,3.19315 -5.52171,6.71044 -6.76576,10.86347 -1.97056,6.13186 -1.48018,13.04238 1.52955,18.75789 2.89818,6.22426 7.13493,11.67237 10.8667,17.39751 3.04504,4.38512 6.14173,8.95937 10.6327,11.99687 0.3586,0.25646 0.99987,0.32664 0.76521,0.92585 0.028,10.93301 -0.42562,21.91416 0.84299,32.79801 1.05334,6.02065 4.34242,11.89791 9.6974,15.0706 5.22426,3.15927 11.73366,3.55766 17.5722,2.13176 6.38737,-1.22281 12.76956,-2.72157 19.26389,-2.36446 9.36316,0.16355 18.60383,2.23181 27.78675,4.01579 15.1226,3.11562 30.12904,7.09521 45.54553,8.49617 12.47676,0.96403 25.18228,-0.0238 37.20361,-3.59646 3.98449,-1.22178 7.88699,-3.09144 10.78409,-6.16154 4.41525,-4.36053 7.04108,-10.34235 7.69874,-16.47975 1.2785,-8.17597 1.02263,-16.4784 1.20271,-24.72533 0.0638,-13.45726 0.27513,-26.93666 -0.62111,-40.37148 -0.56933,-5.44745 -2.27018,-11.03306 -6.0759,-15.11246 -0.6045,-0.32654 -0.32082,-1.01198 -0.41441,-1.56255 -0.32195,-5.35708 -2.89339,-10.24079 -5.79079,-14.63951 -8.32755,-13.76581 -17.70893,-26.85244 -27.15297,-39.86522 -1.1519,-1.53938 -2.30475,-3.07803 -3.48923,-4.59255 1.97074,-0.0334 4.09559,0.0535 5.86938,-0.93087 2.58511,-1.54296 3.72087,-4.81409 3.2439,-7.70234 0,-24.53958 0,-49.07916 0,-73.61875 13.88826,5.47139 28.44651,9.52724 43.36133,10.76954 0.56287,0.40777 1.04466,0.92525 1.68209,1.23918 4.01195,2.61809 8.94003,3.32391 13.64475,3.16592 28.97301,1.01378 57.96785,0.96363 86.954,1.16906 56.18379,0.25357 112.37073,0.22204 168.55139,-0.47584 8.66693,-0.17505 17.34917,-0.26665 25.98771,-1.02601 4.0184,-0.68137 7.91833,-2.48335 10.7699,-5.43755 13.44014,-1.86468 26.55709,-5.78651 38.95228,-11.28307 9.99574,-4.35279 19.75497,-9.56393 28.07111,-16.6866 7.67359,-7.09596 11.5906,-17.93673 10.43073,-28.30437 -0.7336,-9.20967 -3.67808,-18.02839 -6.22771,-26.85101 -6.07125,-20.18007 -12.79069,-40.1687 -20.37973,-59.82727 -8.72962,-22.47381 -18.80679,-44.53349 -31.74343,-64.92032 -12.75182,-20.03959 -28.56734,-38.16975 -46.98041,-53.20624 -1.11365,-0.9102 -2.23479,-1.81134 -3.36698,-2.69846 6.37464,-5.24661 13.04155,-10.28225 18.31587,-16.69315 3.64637,-5.15005 4.3006,-12.03657 2.38206,-17.96972 -1.85085,-6.98614 -4.94379,-13.54919 -7.76778,-20.17596 C 892.91333,127.61535 885.30098,111.6552 877.03084,96.040142 864.79796,73.199056 850.43922,51.308793 832.63229,32.400442 821.21704,20.322371 808.15553,9.5364508 793.1352,2.2532395 c -7.1239,-3.4205723 -14.93207,-5.5482718 -22.85959,-5.6670582 -3.7322,-0.1728087 -7.47012,-0.1531338 -11.2053,-0.1428219 z M 150.79492,9.5488281 c -6.18167,0.3907308 -11.72134,4.8430819 -13.90234,10.5664059 -11.40879,-3.65828 -23.06377,-6.732332 -34.98084,-8.154471 -6.101605,-0.202423 -12.420358,3.023046 -15.212803,8.567316 -3.782656,6.911658 -1.675709,16.471637 4.791725,21.027988 3.685976,2.76033 8.154423,4.073941 12.156218,6.237905 8.2862,3.96887 16.41131,8.380775 23.77695,13.903294 -18.73622,5.525656 -37.224878,12.324896 -54.229093,22.039251 -9.64091,5.51701 -18.970128,12.038443 -25.920099,20.821613 -2.988345,4.19655 -6.033599,8.48348 -7.737112,13.38923 -1.097971,4.82039 0.731615,10.05458 4.271068,13.4335 -13.524381,17.0082 -25.239088,35.65056 -33.115541,55.96393 -3.3718332,8.91898 -6.0972681,18.21141 -6.678123,27.77311 0.1204276,5.84626 2.9907308,11.82774 8.11568,14.866 2.809768,1.69048 6.138887,2.44672 9.404546,2.28954 -3.150317,18.22428 -4.728365,36.79722 -3.595313,55.2853 0.869414,11.00126 3.269133,22.10336 8.756803,31.77993 3.078506,5.37792 7.46736,10.29371 13.258523,12.76815 4.891519,1.85323 10.677347,0.91433 14.820222,-2.24744 6.888089,14.32134 16.276712,27.21243 25.376698,40.171 2.263511,3.29248 4.623687,6.56016 6.403567,10.14297 0.912201,3.03649 0.489975,6.25063 0.379891,9.36401 -0.592071,7.7954 -3.2111,15.33485 -6.121328,22.59926 -2.557956,6.35834 -5.900384,12.3556 -9.359424,18.25724 -1.631344,2.62895 -2.6108,5.6715 -2.644692,8.77644 -0.170585,4.72424 1.960508,9.43351 5.581281,12.46135 3.586462,3.07682 8.533265,4.48962 13.200975,3.69804 3.997132,-0.58866 7.655186,-2.69011 10.497375,-5.51522 10.105186,-8.1695 20.926176,-15.58429 32.797396,-20.95427 12.87613,-5.96311 26.66101,-9.92359 40.69214,-11.72131 22.2934,-2.91094 44.97186,-1.11901 66.96125,3.15164 26.54459,5.14652 52.25221,13.73745 77.88004,22.26115 13.51841,4.43271 27.02945,9.05097 40.98105,11.94654 7.59145,1.57056 15.48704,2.6053 23.18317,1.14213 8.57995,-1.56311 16.55696,-6.88397 20.75897,-14.60129 3.39347,-6.05535 4.51303,-13.1539 4.06713,-20.02252 -0.3366,-13.42935 -4.84936,-26.48617 -11.55603,-38.02866 -7.9757,-13.92573 -18.90687,-25.88612 -30.54063,-36.83559 -22.12503,-20.68445 -47.30493,-37.68351 -72.45044,-54.42572 -23.35747,-15.53158 -47.1782,-30.43368 -69.55853,-47.38666 -7.87568,-6.08877 -15.51075,-12.73074 -21.26841,-20.92385 -1.17925,-1.74892 -2.34925,-3.65774 -2.57262,-5.79359 0.18592,-2.00769 1.96556,-3.28172 3.29113,-4.58461 0.28677,-0.6495 0.82909,-0.20674 1.28371,-0.0379 9.3173,3.66426 19.83372,4.47912 29.52539,2.0332 8.22218,-1.73017 16.1371,-4.87155 24.53125,-5.4082 8.14861,-0.40787 16.0832,1.61114 23.79556,4.11011 13.69468,4.51979 26.38682,11.57559 38.4999,19.27547 9.10417,5.73119 18.32113,11.63368 28.68696,14.81754 11.46796,3.44625 23.54449,3.46067 35.3717,4.56732 5.84109,0.46346 11.71535,1.05961 17.57556,0.6179 5.25959,-0.42716 10.38418,-1.93638 15.16421,-4.14332 8.18229,-3.64694 15.62888,-8.69081 23.37458,-13.11453 6.9025,-4.07623 13.80796,-8.14693 20.71903,-12.20861 0,12.32291 0,24.64583 0,36.96874 8.95378,0 17.90756,10e-6 26.86133,0 1.34406,-1.41626 2.75512,-2.78278 3.90039,-4.37109 0.50978,-0.18429 0.44595,0.24884 0.43946,0.64258 0.078,0.79446 -0.78242,1.16029 -1.12347,1.78679 -2.75867,3.58308 -3.7278,8.28647 -3.28461,12.72962 0.003,5.33828 0.007,10.67656 0.01,16.01484 18.38021,0 36.76041,0 55.14062,0 0,-8.74349 0,-17.48698 0,-26.23047 -1.35031,-1.57138 -2.70583,-3.16551 -4.36523,-4.42383 -0.18432,-0.56032 0.17245,-0.59538 0.66992,-0.54101 0.79837,-0.0738 1.1605,0.79717 1.79672,1.13497 3.63827,2.79422 8.42494,3.71917 12.9228,3.24774 3.65265,-0.087 7.41747,0.37218 10.96109,-0.73328 3.5396,-1.59515 5.35805,-5.79206 4.81744,-9.52873 0,-14.95625 0,-29.9125 0,-44.86875 -8.80404,0 -17.60808,0 -26.41211,0 -1.54813,1.36864 -3.13328,2.72897 -4.37696,4.39258 -0.63367,0.2068 -0.3119,-0.46373 -0.40409,-0.85415 -0.085,-0.65458 0.66212,-0.9269 0.93532,-1.43835 2.8948,-3.62072 3.92272,-8.44853 3.46474,-12.9993 -0.003,-5.27838 -0.007,-10.55677 -0.01,-15.83516 -18.38021,0 -36.76041,1e-5 -55.14062,0 0,8.70639 0,17.41277 0,26.11915 1.33317,1.64297 2.68769,3.30131 4.37695,4.5957 0.22889,0.59606 -0.43185,0.38104 -0.80303,0.41362 -0.70792,-0.0186 -1.04083,-0.8034 -1.63196,-1.11358 -3.57172,-2.75564 -8.26394,-3.72257 -12.69665,-3.29014 -4.74974,0.003 -9.49948,0.006 -14.24922,0.01 1.23653,-2.0519 2.1865,-4.34307 2.33203,-6.75781 3.90196,-5.21401 5.88603,-11.74819 5.8125,-18.24024 5.02661,-4.24688 7.0017,-11.41349 5.65033,-17.7543 -1.32946,-7.55308 -5.86231,-14.20026 -11.48698,-19.26175 -5.36719,-4.89359 -12.03966,-8.69677 -19.34432,-9.54095 -6.18577,-0.65887 -12.43218,0.82297 -18.04364,3.38513 -1.24607,0.10883 -2.22128,-0.87177 -3.31047,-1.31816 -4.8051,-2.78475 -9.14229,-6.4946 -14.48504,-8.25977 -5.57019,-2.03943 -11.7817,-2.39694 -17.51113,-0.80684 -1.10301,-0.44837 -2.11927,-1.0901 -3.19637,-1.60031 -10.08454,-5.37797 -18.94054,-12.93476 -26.12961,-21.79893 -5.21921,-6.366808 -10.93006,-12.300713 -16.58027,-18.282398 -0.9822,-8.067673 -5.11209,-15.425589 -10.31892,-21.53496 -6.6967,-7.978616 -14.97437,-14.911364 -24.76311,-18.716993 -4.27278,-1.45231 -9.17079,-1.297037 -13.19336,0.833984 -7.71906,-4.61521 -16.05823,-8.434106 -24.95312,-10.056641 -7.62151,-0.375315 -14.76099,6.098387 -15.33731,13.667502 -0.26657,0.187767 -0.93911,-0.111205 -1.34042,-0.07136 -3.13593,-0.36086 -6.28255,-0.627439 -9.42579,-0.924269 -2.88202,-2.010661 -5.68158,-4.138118 -8.66457,-6.001049 C 212.98063,26.498875 185.8632,15.898496 157.86119,10.335818 155.53099,9.8957728 153.16765,9.6010754 150.79492,9.5488281 Z M 682.50586,174.27344 c 0.27364,1.44879 0.5239,2.90405 0.81836,4.34961 -1.59113,-1.61248 -3.20123,-3.21218 -4.83399,-4.78516 1.24665,-0.4206 2.47194,-0.80286 3.72852,-1.19922 0.0957,0.54492 0.19141,1.08985 0.28711,1.63477 z m 159.02734,-0.40235 c -1.48905,1.39724 -2.9426,2.83196 -4.3789,4.28321 0.34001,-1.8183 0.65567,-3.64179 0.94726,-5.46875 1.14388,0.39518 2.28776,0.79036 3.43164,1.18554 z m -382.25,39.20118 c -0.69353,-0.0735 -1.60224,-0.0271 -2.16406,-0.17383 0.79223,-1.49525 1.42803,-3.06516 2.16406,-4.58789 0,1.58724 0,3.17448 0,4.76172 z m 307.45899,137.69726 c 0.44293,0.23579 -0.13548,0.70944 -0.12696,0.14063 0.0234,-0.0571 0.0621,-0.12526 0.12696,-0.14063 z m 90.91601,27.64844 c 0.6812,0.18576 -0.28771,0.87036 -0.31917,0.208 -0.0292,-0.18593 0.17415,-0.23871 0.31917,-0.208 z m -188.0332,0.15625 c 0.83135,0.27119 -0.47188,0.90602 -0.34375,0.1543 0.044,-0.14551 0.21442,-0.17599 0.34375,-0.1543 z m 10.57227,5.17773 c 0.61305,0.25964 -0.38175,0.69186 -0.33008,0.10743 -0.004,-0.16734 0.22646,-0.14057 0.33008,-0.10743 z m 166.78125,0.0723 c 0.65747,0.17622 -0.21931,1.03574 -0.21523,0.28873 -0.003,-0.11047 0.0847,-0.29255 0.21523,-0.28873 z m -212.82032,1.89062 c 0.64201,0.21581 -0.40069,0.59292 -0.20117,0.0312 0.0564,-0.0436 0.13419,-0.0505 0.20117,-0.0312 z m 39.11914,21.93946 c 0.64364,0.26762 -0.4536,0.63398 -0.22851,0.0312 0.0667,-0.0454 0.15205,-0.0501 0.22851,-0.0312 z m -3.97265,21.75195 c 0.64433,0.36775 -0.17036,0.40808 -0.13477,-0.008 l 0.043,-0.006 z M 327.4082,518.75391 c -6.38703,0.58965 -12.12872,3.99439 -16.93817,8.05617 -5.74219,4.79908 -11.62797,9.72182 -18.6544,12.55635 -12.45545,5.56577 -25.6798,9.13323 -38.63688,13.34656 -12.27308,3.93638 -24.69917,7.8467 -35.90799,14.34657 -7.19649,4.19576 -13.93969,9.31032 -19.425,15.61265 -2.32839,2.74914 -4.54865,5.69244 -5.73834,9.13248 -2.14927,5.79777 -2.11256,12.44841 0.48998,18.09758 2.61748,6.47153 6.97723,11.99722 10.7404,17.81454 3.23589,4.68438 6.43409,9.61055 11.10902,13.00032 0.32107,0.28441 0.91343,0.38661 1.10771,0.71881 0.0349,11.06043 -0.42155,22.16803 0.83835,33.18045 1.04474,6.0068 4.31472,11.87105 9.63976,15.05908 5.27069,3.21376 11.86251,3.61206 17.75694,2.13947 6.36946,-1.21435 12.74341,-2.70127 19.27472,-2.32999 9.13037,0.17825 18.16779,2.1539 27.13048,3.90585 15.08538,3.0784 30.04167,7.05535 45.40343,8.53374 12.6267,1.04515 25.50442,0.1278 37.68207,-3.48173 3.76989,-1.12716 7.47151,-2.8033 10.32204,-5.58 4.95058,-4.55692 7.85479,-11.08549 8.4364,-17.74711 1.27845,-8.76051 0.9224,-17.6403 1.14048,-26.46452 0.0372,-12.6815 0.21756,-25.38449 -0.65402,-38.04298 -0.57133,-5.48481 -2.30486,-11.11801 -6.19179,-15.18041 -0.51573,-0.32997 -0.15036,-1.01138 -0.29534,-1.51049 -0.34855,-5.34803 -2.92077,-10.22255 -5.81553,-14.61593 -8.37593,-13.84848 -17.79835,-27.02486 -27.34459,-40.08384 -4.16885,-5.55481 -8.32065,-11.1865 -13.36277,-15.99105 -3.35212,-2.82004 -7.67845,-4.64605 -12.10696,-4.47257 z m 416.38672,1.1875 c -6.24991,0.52514 -11.89147,3.79882 -16.64258,7.71679 -5.76754,4.77773 -11.49241,9.77355 -18.49299,12.63335 -13.61993,6.16527 -28.15074,9.90413 -42.30187,14.61447 -12.76355,4.06732 -25.64284,8.46354 -36.91326,15.87632 -7.10012,4.66579 -13.69214,10.31504 -18.60879,17.29372 -4.20636,6.5287 -5.33296,15.1503 -2.23337,22.36041 2.68119,6.92596 7.35341,12.78697 11.34795,18.97091 3.02681,4.40024 6.10031,8.92569 10.36344,12.23262 0.48618,0.33078 0.99531,0.62875 1.52249,0.8893 0.0319,11.10803 -0.44296,22.26515 0.84822,33.32337 1.05217,5.98667 4.31217,11.82648 9.62043,15.00722 5.2187,3.19343 11.74417,3.60606 17.59441,2.17991 6.38623,-1.19572 12.71044,-2.73086 19.24893,-2.34668 10.44723,0.17928 20.63518,2.58394 30.84452,4.63895 13.84671,2.88157 27.61279,6.40546 41.72064,7.77557 12.35075,1.06051 24.93189,0.16422 36.88659,-3.19304 3.95238,-1.11022 7.89769,-2.69751 10.93257,-5.54656 5.11532,-4.53498 8.16975,-11.14847 8.76038,-17.92031 1.29993,-8.8588 0.94832,-17.83917 1.16757,-26.76296 0.0445,-12.55861 0.20293,-25.1374 -0.63373,-37.67428 -0.55213,-5.45573 -2.20677,-11.06022 -5.99441,-15.16934 -0.41432,-0.25793 -0.57957,-0.68257 -0.49224,-1.15029 -0.1794,-5.45808 -2.72543,-10.48694 -5.68724,-14.94906 -8.47305,-14.02832 -18.01808,-27.36822 -27.67919,-40.59538 -4.07788,-5.41578 -8.14258,-10.90045 -13.04632,-15.60759 -3.34804,-2.86005 -7.67979,-4.73185 -12.13215,-4.59742 z m -489.2539,66.66797 c 0.76783,0.29325 -0.20067,0.59256 -0.16407,0.041 0.0404,-0.0443 0.10858,-0.0499 0.16407,-0.041 z m 208.78125,0.41796 c 0.57266,0.27022 -0.68456,0.10467 0,0 z m 207.53125,0.86719 c 0.17279,0.31526 -0.48975,-0.17701 0,0 z M 246.73828,624.5293 c 0.65204,0.2699 -0.37672,0.98016 -0.26175,0.21372 -0.006,-0.13301 0.12116,-0.28537 0.26175,-0.21372 z m 416.51563,1.38086 c 0.37065,0.11035 0.11348,0.8524 -0.16797,0.375 -0.0395,-0.13988 0.0285,-0.32161 0.16797,-0.375 z m -416.0293,21.09961 c 0.47482,0.0401 0.22059,0.65948 -0.10742,0.31445 -0.0912,-0.11315 -0.13763,-0.39488 0.10742,-0.31445 z m 208.53906,0.4375 c 0.76008,0.31126 -0.25472,0.5494 -0.11133,0.0137 0.0283,-0.0263 0.0796,-0.0113 0.11133,-0.0137 z m 207.63477,0.85937 c 0.55147,0.11505 0.11047,0.68701 -0.17383,0.26563 -0.0772,-0.15481 -0.0501,-0.35087 0.17383,-0.26563 z m -359.78711,4.48438 c 0.45408,0.12788 -0.0993,0.75062 -0.19509,0.21877 -0.0616,-0.13283 0.0179,-0.33754 0.19509,-0.21877 z m -37.5918,0.45312 c 0.69314,0.46581 -0.57145,1.10156 -0.24144,0.18917 0.0317,-0.074 0.14971,-0.19911 0.24144,-0.18917 z m 246.33594,0.0566 c 0.59655,0.50703 -0.81083,0.14968 -0.20361,-0.0484 0.07,-0.016 0.13456,0.0497 0.20361,0.0484 z m -37.54102,0.35938 c 0.68669,0.39194 -0.52671,1.12916 -0.28333,0.2257 0.0186,-0.0983 0.16048,-0.29551 0.28333,-0.2257 z m 245.02539,0.23242 c 0.43884,0.0418 0.0286,0.84519 -0.13476,0.33789 -0.025,-0.112 -10e-4,-0.31429 0.13476,-0.33789 z m -37.46679,0.75781 c 0.45024,0.0999 0.095,0.63351 -0.14063,0.25977 -0.0505,-0.11304 -0.0709,-0.37666 0.14063,-0.25977 z" /><g
         id="g457"
         transform="translate(-1109.6003,-9.0830643)"><ellipse
           style="fill:#ff0000;fill-rule:evenodd;stroke:#ffffff;stroke-width:2.045;stroke-linejoin:bevel;paint-order:markers stroke fill"
           id="path407"
           cx="1402.2668"
           cy="123.79732"
           rx="30.287054"
           ry="20.548454" /><ellipse
           style="fill:#ff0000;fill-rule:evenodd;stroke:#ffffff;stroke-width:1.34401;stroke-linejoin:bevel;paint-order:markers stroke fill"
           id="path407-3"
           cx="1839.2841"
           cy="178.4558"
           rx="20.22616"
           ry="13.290486" /><ellipse
           style="fill:#ff0000;fill-rule:evenodd;stroke:#ffffff;stroke-width:1.42671;stroke-linejoin:bevel;paint-order:markers stroke fill"
           id="path407-3-6"
           cx="1896.9662"
           cy="180.98331"
           rx="22.863091"
           ry="13.249135" /><path
           id="path1732"
           style="fill:#000000;stroke-width:1.34569"
           d="m 1869.6686,21.891584 c -14.171,0 -17.5642,0.448851 -23.6678,3.133658 -31.1688,13.710228 -61.8913,51.038623 -89.5145,108.765448 -14.9805,31.30631 -20.4142,44.84881 -19.0603,47.50821 0.6923,1.35987 6.7589,6.77602 13.4813,12.03544 24.5455,19.20374 50.1216,45.70536 72.4401,75.06415 8.3539,10.98925 8.7689,11.31911 14.3686,11.39775 6.9577,0.0977 6.9184,-0.11113 -2.6639,-14.09784 -19.5798,-28.57864 -46.0688,-60.38665 -61.9652,-74.40735 -11.9532,-10.54289 -12.8293,-12.00076 -9.2909,-15.46624 4.79,-4.69125 32.1984,-13.56477 57.567,-18.63814 13.852,-2.77015 20.0244,-3.17419 48.3056,-3.16156 39.2319,0.0178 57.9756,3.06927 90.9592,14.80891 20.1117,7.15825 21.0535,9.91746 7.2027,21.12171 -8.4155,6.80754 -22.6808,22.30368 -37.7734,41.03212 -10.9966,13.64565 -33.9199,45.87356 -33.9199,47.68857 0,0.66047 2.532,1.16437 5.6255,1.11982 5.4221,-0.078 5.9339,-0.48923 14.2265,-11.39775 22.3185,-29.35879 47.8946,-55.86041 72.44,-75.06415 6.7225,-5.25942 12.7896,-10.67557 13.4819,-12.03544 1.3691,-2.68924 -4.0287,-16.07332 -19.7171,-48.89779 -26.8402,-56.156636 -57.9899,-93.79809 -88.8576,-107.375868 -6.1037,-2.684807 -9.4969,-3.133658 -23.6678,-3.133658 z m -607.764,13.121164 c -0.1058,0.0855 2.0364,1.163203 4.7605,2.395202 17.7246,8.016132 33.3059,18.314926 42.1318,27.847396 3.3211,3.587086 6.6838,7.742401 6.6838,8.259961 0,0.0985 -3.17,0.304773 -7.0445,0.457853 -3.8746,0.1532 -7.977,0.458305 -9.1163,0.677995 l -2.0712,0.399459 -6.1696,-5.027084 c -11.1986,-9.12463 -24.702,-16.324595 -43.9178,-23.416658 -10.466,-3.862746 -31.5603,-9.21224 -36.3119,-9.20874 -0.4974,4e-4 1.9666,1.2673 5.4756,2.815848 15.6686,6.914524 28.9535,15.178169 39.4126,24.5153 4.6633,4.163206 14.0891,13.433129 14.4306,14.191899 0.08,0.177479 -2.6711,0.953406 -6.1138,1.723925 -28.4242,6.361404 -55.1086,15.937497 -72.9837,26.191166 -9.4726,5.43377 -18.5834,12.53859 -21.1196,16.46978 l -0.8155,1.26401 1.2645,-0.66766 c 10.2825,-5.42959 13.9158,-6.84447 19.6324,-7.64501 1.9147,-0.26817 4.5203,-0.42621 5.7899,-0.35139 l 2.3084,0.13591 -5.3046,5.14283 c -25.015,24.25321 -45.3545,52.29969 -55.4793,76.50179 -4.3998,10.51709 -7.8488,23.17428 -7.3226,26.87174 0.15,1.05366 0.5218,0.70349 3.0463,-2.87114 5.3659,-7.59759 8.7079,-10.82747 14.935,-14.43271 3.6074,-2.08852 9.0158,-4.58656 9.3488,-4.31808 0.136,0.10948 -0.705,3.16811 -1.8681,6.79648 -10.3265,32.21529 -14.7981,73.35276 -10.3838,95.5275 1.5851,7.96282 4.9984,15.88761 8.1214,18.85725 l 1.1266,1.07177 0.016,-5.20485 c 0.034,-10.08158 1.6106,-17.70114 4.7573,-22.99446 1.5641,-2.63111 6.1423,-7.59396 7.2807,-7.89255 0.3783,-0.0991 0.7187,1.04154 0.9493,3.18276 0.5267,4.88995 2.8416,15.34466 4.8819,22.04775 4.8502,15.93505 12.2993,29.56213 27.8432,50.93332 12.0523,16.5705 13.0506,18.85165 13.0308,29.7863 -0.013,7.48011 -0.8583,12.66959 -3.4407,21.14083 -3.0268,9.92906 -7.0606,19.13703 -11.8328,27.01023 -1.5218,2.51052 -2.8678,4.75325 -2.9911,4.98419 -0.1232,0.23093 1.1895,-0.81441 2.9177,-2.32337 1.7281,-1.50897 5.7741,-4.66019 8.9907,-7.00267 37.0552,-26.98601 80.5855,-35.913 133.9794,-27.47481 24.6302,3.89248 49.0559,10.54276 88.7884,24.1732 32.1315,11.02285 48.1838,14.75422 57.0761,13.26741 h 10e-4 c 5.4164,-0.90561 9.1988,-3.96127 11.1259,-8.98808 1.3864,-3.61637 1.2161,-13.34834 -0.3447,-19.69596 -5.4089,-21.99728 -21.5815,-42.68012 -53.4804,-68.39531 -15.3395,-12.36588 -33.2623,-24.86053 -69.1369,-48.19757 -47.9201,-31.17286 -63.7395,-43.1523 -75.1985,-56.94485 -12.2808,-14.78169 -12.0185,-27.03065 0.8035,-37.53311 1.5866,-1.29951 2.8816,-2.51151 2.8779,-2.69337 0,-0.18171 -1.3632,-1.00587 -3.0205,-1.8309 -3.8307,-1.90693 -10.4847,-7.16821 -13.2798,-10.50013 -7.0189,-8.36697 -10.3836,-18.44488 -8.7235,-26.12967 0.5904,-2.73316 2.3037,-6.22805 3.0531,-6.22805 0.1821,0 0.2026,1.50732 0.046,3.34967 -0.3499,4.11532 0.3052,9.70106 1.4696,12.52688 0.4793,1.16327 2.0449,3.56337 3.4784,5.33353 1.4335,1.77019 3.0995,3.99773 3.7026,4.9506 1.9783,3.12586 14.0428,12.19418 21.4721,16.13958 11.1824,5.93863 18.307,6.59591 31.3092,2.8882 10.8322,-3.0889 14.9854,-4.01048 20.3843,-4.52375 18.3128,-1.74097 45.0053,7.41286 71.3827,24.47964 11.552,7.47441 16.3458,10.23186 21.8741,12.58373 6.1804,2.62932 10.6741,3.63823 19.3838,4.35115 32.268,2.64131 31.3696,2.59798 35.1999,1.70429 4.4351,-1.03478 9.775,-3.29884 14.426,-6.11591 l 4.0479,-2.45153 -2.6464,-0.0997 c -22.7147,-0.85338 -39.3909,-6.14969 -58.7365,-18.65519 -3.0703,-1.98477 -10.6071,-7.23433 -16.7478,-11.66544 -25.0197,-18.05398 -32.7621,-22.2944 -56.3562,-30.86427 -4.6787,-1.69936 -10.8682,-4.04779 -13.7542,-5.2188 l -5.2473,-2.12907 2.3229,-1.60869 c 3.6741,-2.54407 8.1939,-4.8395 11.5027,-5.8415 8.7472,-2.64898 21.5855,-0.91613 42.5664,5.74435 16.0715,5.10206 25.1527,9.701 37.2705,18.87534 10.5033,7.95204 14.8033,10.17913 26.1866,13.56248 7.3654,2.18918 9.3415,3.26605 11.1197,6.06112 1.1403,1.79238 1.3326,5.92836 0.4935,10.60866 -0.2732,1.52331 -0.4344,2.81932 -0.3586,2.88044 0.3204,0.25847 6.1297,-3.12925 8.4966,-4.95473 2.6386,-2.035 4.741,-4.83832 5.3594,-7.14634 l 0.3503,-1.30741 9.4181,0.99477 c 15.2971,1.6159 15.9134,1.99513 15.2967,9.41596 -0.4311,5.18826 0.01,5.54879 3.1647,2.59778 2.5968,-2.4274 3.9314,-4.60235 4.3382,-7.07037 0.225,-1.36486 0.8457,-2.51081 1.881,-3.47266 1.3676,-1.2705 1.5293,-1.71401 1.4046,-3.85713 -0.1282,-2.20637 0.03,-2.60024 1.7735,-4.43022 3.0032,-3.15052 3.8919,-5.49484 3.8701,-10.20609 -0.017,-3.36834 -0.3137,-4.82329 -1.7276,-8.42429 -1.8384,-4.68237 -2.0134,-5.74555 -1.1585,-7.03317 1.1071,-1.66764 5.3514,-0.41039 7.2191,2.13837 1.4511,1.98019 1.9873,1.61703 1.6382,-1.11001 -0.455,-3.55394 -3.0466,-7.446 -7.2187,-10.84171 -6.7368,-5.48327 -10.5615,-6.05644 -18.464,-2.76572 -4.6113,1.92018 -5.0179,2.00993 -8.0827,1.78593 -4.0898,-0.29897 -8.0035,-1.77319 -12.0618,-4.54391 -10.3111,-7.03971 -12.3001,-7.7889 -17.6795,-6.66057 -1.6804,0.35246 -3.6062,0.93116 -4.2794,1.28623 -1.1413,0.60201 -1.4635,0.53797 -4.7847,-0.95188 -5.7314,-2.57108 -11.2203,-5.61653 -15.9468,-8.84804 -5.6223,-3.84392 -17.2425,-14.20006 -18.6878,-16.6548 -1.3141,-2.232 -9.1763,-11.12016 -17.3007,-19.55849 l -5.8405,-6.06629 0.1675,-2.929538 c 0.3287,-5.735304 -4.1476,-13.176635 -12.6592,-21.043677 -2.9036,-2.683667 -7.816,-5.956383 -10.8205,-7.208862 -1.779,-0.741589 -1.6663,-0.485099 0.973,2.213818 4.5098,4.611566 5.5264,7.53198 4.5196,12.986805 l -0.6624,3.588411 -1.8656,-2.716113 c -5.1556,-7.504803 -18.554,-17.363595 -29.8922,-21.99504 l -2.8009,-1.144116 2.3632,2.497005 c 7.3096,7.723202 10.8468,13.292349 10.1715,16.014526 l -0.3039,1.224215 -3.5274,-1.102775 c -12.9193,-4.038686 -23.1137,-6.09391 -34.6305,-6.980969 -10.3381,-0.79622 -9.8192,-0.653342 -14.1505,-3.890719 -18.3758,-13.734706 -40.4417,-24.39586 -64.0044,-30.923694 -5.9073,-1.636588 -18.7708,-4.641959 -19.0174,-4.443139 z m 132.9015,78.783302 c 2.6012,-0.0543 5.159,0.40646 7.6269,1.37976 2.1759,0.85813 4.3674,2.42809 8.8754,6.35723 3.2924,2.86962 8.1929,7.00236 10.8903,9.18445 2.6974,2.18208 4.602,3.96771 4.2323,3.96771 -0.3697,0 -3.0551,-0.5994 -5.9676,-1.33221 -5.8704,-1.47702 -7.7875,-2.17611 -9.9394,-3.62356 -2.3443,-1.57679 -6.6356,-2.63127 -14.3185,-3.51864 -8.4048,-0.97079 -11.8348,-2.18098 -14.6467,-5.16661 -0.9607,-1.02013 -1.7466,-2.02294 -1.7466,-2.22881 0,-0.604 6.7094,-3.45401 10.2748,-4.36458 1.5821,-0.40405 3.1583,-0.62218 4.7191,-0.65474 z m 474.8625,45.90365 c -22.2742,0 -30.2108,0.56658 -44.3358,3.16001 -9.4627,1.73741 -17.7009,3.6602 -18.3069,4.27313 -1.4388,1.45534 2.3242,22.38293 6.6058,36.74297 5.2543,17.62267 13.1159,32.27731 22.9386,42.75967 9.4305,10.06364 13.6208,12.80297 24.1391,15.77991 8.7014,2.46272 8.0268,2.45161 17.6951,0.32091 20.2666,-4.46641 37.137,-24.68476 46.8017,-56.09011 4.7486,-15.43036 8.8166,-37.77575 7.1794,-39.43584 -0.6466,-0.65566 -8.918,-2.61323 -18.3808,-4.35064 -14.1248,-2.59343 -22.0622,-3.16001 -44.3362,-3.16001 z m -359.9502,0.34623 c 1.832,0.0787 3.7809,0.97452 6.0896,2.69751 3.1527,2.35289 8.378,7.88535 6.9903,7.4011 -0.4211,-0.14705 -2.3208,-0.79435 -4.2215,-1.43816 -4.0519,-1.37247 -10.8922,-1.84299 -15.4161,-1.06091 -1.5487,0.26786 -2.8842,0.43104 -2.9683,0.36328 -0.3703,-0.29831 2.6648,-4.52163 4.1388,-5.75882 1.8402,-1.54464 3.5553,-2.28274 5.3872,-2.204 z m 389.2781,9.65471 a 18.882683,8.4023692 0 0 1 18.8841,8.4031 18.882683,8.4023692 0 0 1 -18.8841,8.40207 18.882683,8.4023692 0 0 1 -18.8821,-8.40207 18.882683,8.4023692 0 0 1 18.8821,-8.4031 z m -59.6708,0.40152 a 18.882683,8.4023692 0 0 1 18.8826,8.40156 18.882683,8.4023692 0 0 1 -18.8826,8.40362 18.882683,8.4023692 0 0 1 -18.8825,-8.40362 18.882683,8.4023692 0 0 1 18.8825,-8.40156 z m -227.2368,34.03617 v 2.06706 c 1.6537,0.41341 2.8022,0.96462 3.4453,1.65364 0.6431,0.64309 0.9643,1.60772 0.9643,2.89388 v 24.52926 h -24.598 c -1.2862,0 -2.2736,-0.32172 -2.9626,-0.9648 -0.689,-0.64309 -1.2174,-1.79111 -1.5849,-3.44475 h -2.0671 v 22.32421 h 1.9984 c 0.4134,-1.65364 0.9646,-2.80218 1.6536,-3.44526 0.689,-0.64309 1.6764,-0.9648 2.9626,-0.9648 h 24.598 v 24.59798 c 0,1.28617 -0.3212,2.27411 -0.9643,2.96313 -0.6431,0.68901 -1.7916,1.21692 -3.4453,1.58439 v 2.06706 h 22.3243 v -1.99781 c -1.6537,-0.41341 -2.8022,-0.96463 -3.4453,-1.65364 -0.6431,-0.68902 -0.9643,-1.67696 -0.9643,-2.96313 v -24.59798 h 24.598 c 1.2862,0 2.2508,0.32171 2.8939,0.9648 0.689,0.64308 1.2402,1.79162 1.6536,3.44526 h 2.0671 v -22.32421 h -2.0671 c -0.4134,1.65364 -0.9646,2.80166 -1.6536,3.44475 -0.6431,0.64308 -1.6077,0.9648 -2.8939,0.9648 h -24.598 v -24.52926 c 0,-1.3321 0.3212,-2.31952 0.9643,-2.96261 0.6431,-0.64308 1.7916,-1.1943 3.4453,-1.65364 v -1.99833 z m 152.383,8.95604 c -3.6562,0 -21.3344,14.45586 -33.8419,27.67221 -29.2309,30.88723 -49.9045,72.18521 -72.7702,145.36633 -8.949,28.64114 -9.6489,35.06517 -4.6581,42.78653 5.4272,8.39621 29.9174,19.98808 53.6825,25.41034 4.7314,1.0795 10.5363,2.02631 12.902,2.10323 l 4.3021,0.13952 v -7.5985 c 0,-10.59326 2.856,-13.27206 14.1469,-13.27206 h 8.352 v -13.78055 -13.78056 l -7.6104,2.07481 c -8.1574,2.22425 -26.3712,9.71194 -29.1481,11.98273 -0.9274,0.75851 -1.9818,1.06832 -2.343,0.68833 -0.3613,-0.37979 2.0684,-3.33174 5.3992,-6.55928 6.0913,-5.90257 17.8162,-12.58505 22.1226,-12.61112 4.5672,-0.0268 2.165,-2.4574 -6.6182,-6.69675 -11.3652,-5.4857 -23.8232,-7.6261 -34.9224,-6.00067 -9.8607,1.44402 -11.3627,1.0058 -4.2426,-1.23817 11.9253,-3.75839 34.3828,-3.30138 44.8288,0.91261 4.0337,1.62725 -2.9649,-9.85956 -10.6826,-17.53278 -7.4195,-7.37668 -14.0199,-11.35855 -27.0753,-16.33802 l -8.6011,-3.28145 9.2636,0.79633 c 17.0253,1.46376 34.9209,7.90508 44.6127,16.05793 l 4.9078,4.1305 0.3855,-43.26712 0.3855,-43.26558 4.3222,-4.05815 4.3222,-4.05815 h 33.7261 c 18.5498,0 33.7277,-0.47908 33.7277,-1.0666 0,-4.0115 -55.2814,-65.71589 -58.8755,-65.71589 z m 210.3933,0 c -3.5941,0 -58.876,61.70439 -58.876,65.71589 0,0.58752 16.8409,1.0666 37.4241,1.0666 40.9476,0 41.2094,0.0486 45.2995,8.36331 1.6112,3.27545 1.9777,10.97758 1.9777,41.56749 v 37.54758 l 8.3489,-3.98064 c 10.5981,-5.05183 21.5673,-8.02498 33.3406,-9.03717 l 9.263,-0.79633 -8.6011,3.28145 c -13.0554,4.97947 -19.6558,8.96134 -27.0753,16.33802 -7.7177,7.67322 -14.7163,19.16003 -10.6826,17.53278 10.4461,-4.21399 32.9041,-4.67101 44.8293,-0.91261 7.1202,2.24398 5.6175,2.68219 -4.2431,1.23817 -11.5654,-1.69369 -23.8163,0.56463 -35.9151,6.62079 l -9.9266,4.96869 6.0493,1.66088 c 3.3269,0.91291 8.6878,3.29734 11.9119,5.29838 6.1002,3.78606 15.9642,13.61312 13.6643,13.61312 -0.7251,0 -1.8845,-0.53632 -2.5761,-1.19217 -1.6126,-1.52956 -19.9744,-9.30884 -24.7483,-10.48515 l -3.6391,-0.89659 v 12.54756 12.54755 h 8.3535 c 11.1171,0 14.1454,2.7315 14.1454,12.75581 v 7.08226 l 6.3867,-0.89142 c 19.5574,-2.72737 50.9102,-16.98978 56.5593,-25.72918 4.991,-7.72136 4.2914,-14.14539 -4.6576,-42.78653 -22.8657,-73.18112 -43.5398,-114.4791 -72.7707,-145.36633 -12.5077,-13.21635 -30.1855,-27.67221 -33.8419,-27.67221 z m -100.9313,72.34856 c -101.8025,0 -115.1809,0.24695 -117.7881,2.16679 l -2.9409,2.16473 v 72.96453 72.96299 h 11.8861 c 11.6076,0 11.9048,-0.0808 12.7243,-3.51348 0.4615,-1.93319 1.9227,-4.12549 3.2468,-4.8705 2.8126,-1.58226 36.9093,-1.80869 39.2255,-0.26045 0.8643,0.57777 2.1886,2.75853 2.944,4.84725 l 1.3746,3.79718 h 42.478 v -12.41009 -12.83333 h 2.5844 2.5843 v 12.83333 12.41009 h 1.264 c 47.7005,0 48.9325,-0.0684 49.7494,-2.77399 1.9321,-6.39967 3.8113,-6.96443 23.1629,-6.96443 19.3518,0 21.2308,0.56476 23.1629,6.96443 0.7544,2.49874 2.0108,2.77399 12.6587,2.77399 h 11.822 v -72.34649 c 0,-70.49211 -0.068,-72.41801 -2.6468,-75.12926 -2.6063,-2.74003 -4.4108,-2.78329 -117.4921,-2.78329 z m -6.8497,6.2792 h 2.5844 2.5843 v 12.83333 12.8328 h -2.5843 -2.5844 v -12.8328 z m -5.8756,5.89525 c 0.38,-0.007 0.555,0.0491 0.599,0.16175 0.073,0.18646 0.093,1.34057 0.046,2.56315 l -0.084,2.2226 -2.8717,0.47904 c -26.0854,4.35686 -46.792,24.68924 -51.2305,50.30391 l -0.4893,2.81998 -2.4464,0.0806 c -1.3455,0.0443 -2.5166,0.0113 -2.6035,-0.0739 -0.2338,-0.22957 0.779,-5.7978 1.6366,-8.99635 2.4003,-8.9518 6.6842,-17.37238 12.6742,-24.90908 2.3568,-2.96526 7.7872,-8.29815 10.8071,-10.61227 9.3533,-7.16722 19.9471,-11.80067 31.3164,-13.69787 1.182,-0.19726 1.9677,-0.30641 2.4707,-0.33435 h 5e-4 c 0.063,-0.003 0.1208,-0.006 0.1752,-0.007 z m 16.9194,0 c 0.054,8.3e-4 0.1133,0.003 0.1762,0.007 0.5029,0.028 1.2885,0.13709 2.4707,0.33435 11.3694,1.8972 21.9627,6.53065 31.3158,13.69787 3.02,2.31412 8.4504,7.64701 10.8071,10.61227 5.99,7.53671 10.2738,15.95728 12.6742,24.90908 0.8401,3.13323 1.8726,8.7649 1.6474,8.98601 -0.081,0.0797 -1.2288,0.14418 -2.5502,0.14418 -1.6687,0 -2.4381,-0.10706 -2.5187,-0.35192 -0.064,-0.19389 -0.2665,-1.30416 -0.4496,-2.46755 -0.428,-2.72163 -1.7807,-7.76404 -2.8458,-10.60658 -7.8839,-21.03857 -26.2275,-36.13245 -48.4156,-39.8384 l -2.8717,-0.47852 -0.085,-2.22312 c -0.046,-1.22258 -0.026,-2.37619 0.047,-2.56264 0.044,-0.11268 0.2185,-0.16834 0.5984,-0.16174 z m -16.215,10.13685 v 5.38933 c 0,6.03826 0.1416,6.66644 1.8174,8.11114 1.3594,1.17195 2.6217,1.48776 5.9382,1.48776 3.3164,0 4.5793,-0.31581 5.9386,-1.48776 1.6748,-1.44381 1.817,-2.07447 1.817,-8.0884 0,-2.95222 0.032,-5.36682 0.071,-5.3666 0.6401,0.004 5.5248,1.00351 7.5669,1.54978 21.218,5.67583 37.1271,22.73943 41.335,44.33114 0.2364,1.213 0.4304,2.30004 0.4304,2.41639 10e-5,0.11634 -2.4597,0.21136 -5.4663,0.21136 -6.1248,0 -6.7673,0.13994 -8.2378,1.78439 -1.1934,1.33475 -1.5161,2.5752 -1.5161,5.83168 0,3.25648 0.3227,4.49483 1.5161,5.82962 1.4705,1.64443 2.113,1.7849 8.2378,1.7849 3.0066,0 5.4666,0.031 5.4663,0.0698 -0.01,0.62852 -1.0239,5.42429 -1.5803,7.42952 -5.7803,20.83405 -23.157,36.45653 -45.1465,40.58822 -1.2353,0.23211 -2.3439,0.42269 -2.4624,0.42271 -0.1185,3e-5 -0.2139,-2.41643 -0.2139,-5.36866 0,-6.01392 -0.1422,-6.64403 -1.817,-8.08788 -1.3593,-1.17195 -2.6221,-1.48828 -5.9386,-1.48828 -3.3165,0 -4.5793,0.31633 -5.9387,1.48828 -1.6748,1.44385 -1.8169,2.07396 -1.8169,8.08788 0,4.12242 -0.082,5.36057 -0.3581,5.33714 -0.1975,-0.0168 -1.2641,-0.1945 -2.3699,-0.39481 -18.1312,-3.28417 -33.6263,-14.94503 -41.4859,-31.2229 -2.2896,-4.74212 -4.079,-10.09862 -4.7397,-14.1826 -0.1004,-0.62047 -0.2534,-1.4772 -0.3395,-1.90376 l -0.1551,-0.77463 h 5.4886 c 6.1495,0 6.7896,-0.13947 8.261,-1.7849 1.1935,-1.33479 1.5162,-2.57315 1.5162,-5.82962 0,-3.25648 -0.3227,-4.49691 -1.5162,-5.83168 -1.4714,-1.64544 -2.1115,-1.78439 -8.261,-1.78439 h -5.4886 l 0.1551,-0.77463 c 0.086,-0.42658 0.2391,-1.28381 0.3395,-1.90428 1.6623,-10.27608 7.8422,-21.83077 15.9168,-29.75942 8.0748,-7.92865 19.8434,-13.99772 30.3088,-15.63005 0.6319,-0.0986 1.5034,-0.24822 1.9378,-0.3328 z m 23.5303,20.1383 c -0.2018,-0.007 -0.4045,0.0166 -0.603,0.0744 -0.3672,0.10713 -2.1639,1.65047 -3.9936,3.42925 l -3.3264,3.23391 -1.7653,-0.58291 c -4.1458,-1.37134 -8.0287,-1.37134 -12.1744,0 l -1.7653,0.58291 -3.3259,-3.23391 c -1.8297,-1.77878 -3.6264,-3.32212 -3.9935,-3.42925 -0.1987,-0.058 -0.4012,-0.0809 -0.6031,-0.0739 h -5e-4 c -1.4136,0.0486 -2.7884,1.57236 -2.4696,2.99775 0.1044,0.46653 1.3015,1.87512 3.0339,3.56981 1.574,1.5397 2.8613,2.8754 2.8613,2.96777 0,0.0924 -0.554,0.76117 -1.2309,1.48519 -1.6709,1.78704 -2.9737,3.96579 -3.852,6.44301 -0.601,1.6947 -0.7588,2.76301 -0.8764,5.91282 l -0.1437,3.84473 -4.2344,-1.38752 c -3.9666,-1.30128 -4.2685,-1.45137 -4.7728,-2.37091 -0.5355,-0.97629 -0.5331,-0.9975 0.2558,-4.00699 0.4363,-1.66407 0.7899,-3.50817 0.7865,-4.09691 -0.016,-2.76651 -3.7999,-3.42597 -4.8405,-0.84387 -0.6972,1.7301 -1.7712,6.61766 -1.7653,8.03 0.01,1.89805 0.8101,3.67496 2.3684,5.23999 1.2886,1.29434 2.729,1.92588 8.8986,3.90312 l 3.3745,1.08159 v 2.89904 2.9006 h -5.3227 c -6.1685,0 -7.0561,0.20664 -7.5793,1.7632 -0.3665,1.09031 -0.2073,1.75044 0.6444,2.67942 0.567,0.61859 0.7289,0.63407 6.4295,0.63407 h 5.8472 l -0.081,2.99775 -0.082,2.99569 -5.2152,1.74563 c -6.4663,2.16263 -7.7737,3.06154 -8.8645,6.0973 -0.6098,1.69696 -0.5271,3.56716 0.3028,6.84144 0.9544,3.76551 1.2178,4.36741 2.113,4.84518 1.1104,0.59255 1.8937,0.50973 2.8815,-0.30644 1.1251,-0.92958 1.1511,-1.93813 0.1509,-5.81256 -0.8276,-3.20591 -0.7492,-4.19052 0.3959,-4.97748 0.6953,-0.478 8.4124,-3.14568 9.0986,-3.14554 0.1578,5e-5 0.7054,0.85726 1.2175,1.90428 3.0371,6.2094 9.2956,10.02367 16.4466,10.02367 7.1509,0 13.4094,-3.81427 16.4465,-10.02367 0.5121,-1.04702 1.0592,-1.90423 1.217,-1.90428 0.6862,-1.5e-4 8.4031,2.66754 9.0987,3.14554 1.145,0.78696 1.2235,1.77157 0.3958,4.97748 -1.0002,3.87443 -0.9747,4.88298 0.1504,5.81256 1.0058,0.83103 1.6711,0.90689 2.8251,0.32091 0.9524,-0.48363 1.2036,-1.04947 2.1694,-4.85965 1.1097,-4.37787 0.882,-6.76658 -0.8573,-9.00565 -1.2068,-1.55359 -2.3901,-2.15553 -7.7468,-3.94705 l -5.1728,-1.73167 -0.082,-2.99569 -0.081,-2.99775 h 5.8466 c 5.7006,0 5.8625,-0.0155 6.4296,-0.63407 0.8515,-0.92898 1.0114,-1.58911 0.6449,-2.67942 -0.5231,-1.55656 -1.4108,-1.7632 -7.5793,-1.7632 h -5.3232 v -2.90628 -2.90577 l 2.0831,-0.65525 c 6.4014,-2.01306 8.6788,-2.94936 9.9446,-4.09019 1.6464,-1.48399 2.6151,-3.5064 2.6189,-5.4653 0,-0.82345 -0.3897,-3.04398 -0.8692,-4.9351 -0.6762,-2.66694 -1.0341,-3.57991 -1.5957,-4.07211 -1.4879,-1.30404 -4.0853,-0.39363 -4.2184,1.4795 -0.033,0.46535 0.3245,2.33801 0.7938,4.16047 0.8487,3.2974 0.8502,3.31781 0.3178,4.28863 -0.5003,0.91211 -0.8112,1.06709 -4.7698,2.36574 l -4.2338,1.38752 -0.1442,-3.84473 c -0.1176,-3.14981 -0.275,-4.21812 -0.8759,-5.91282 -0.8784,-2.47722 -2.181,-4.65597 -3.852,-6.44301 -0.6769,-0.72402 -1.2309,-1.39282 -1.2309,-1.48519 0,-0.0924 1.2869,-1.42808 2.8608,-2.96777 1.7324,-1.69469 2.9301,-3.10328 3.0344,-3.56981 0.3189,-1.42536 -1.0566,-2.94981 -2.4701,-2.99827 z m -15.7747,10.50634 c 2.9825,0 3.4629,0.0735 4.9459,0.75602 3.7803,1.73977 6.2173,4.24463 7.3567,7.55768 l 0.586,1.69964 h -12.8886 -12.8886 l 0.586,-1.69964 c 1.1394,-3.31305 3.5762,-5.81791 7.3566,-7.55768 1.4831,-0.68253 1.9634,-0.75602 4.946,-0.75602 z m -13.0685,15.23059 h 13.0685 13.0684 v 12.69225 12.69018 l -0.7436,1.99575 c -0.8957,2.40359 -2.6863,4.86903 -4.3512,5.98878 -1.6399,1.1031 -3.3209,1.91706 -4.4555,2.15749 l -0.9338,0.1974 V 377.4616 365.57292 l -0.8382,-0.82424 c -1.1287,-1.10838 -2.3635,-1.10838 -3.4923,0 l -0.8382,0.82424 v 11.86646 c 0,9.3186 -0.077,11.86171 -0.3596,11.84269 -0.1975,-0.0133 -0.6831,-0.12099 -1.079,-0.23926 -3.6994,-1.10492 -6.8589,-4.16303 -8.3019,-8.03517 l -0.7436,-1.99575 v -12.69018 z m -60.463,7.7556 h 13.069 13.0695 v 2.53938 2.53783 h -13.0695 -13.069 v -2.53783 z m 120.9244,0 h 13.07 13.0685 v 2.53938 2.53783 h -13.0685 -13.07 v -2.53783 z m -113.053,10.18956 c 0.2881,0.003 0.5951,0.0107 0.9064,0.0222 l 2.2629,0.0827 0.4894,2.81999 c 4.4371,25.61345 25.1452,45.94584 51.231,50.30339 l 2.8716,0.4811 0.084,2.36213 c 0.046,1.2994 -0.018,2.44951 -0.1431,2.5554 -0.1253,0.10587 -1.5815,-0.0376 -3.235,-0.31729 -11.3304,-1.91719 -21.9191,-6.55976 -31.2296,-13.69425 -3.0199,-2.3141 -8.4503,-7.64646 -10.8071,-10.61176 -7.2993,-9.18399 -12.0178,-19.58585 -13.95,-30.74954 -0.4018,-2.3215 -0.4458,-3.08702 -0.1835,-3.18586 0.1425,-0.0536 0.8384,-0.0784 1.7028,-0.0682 z m 131.3196,0 h 5e-4 c 0.8643,-0.0103 1.5598,0.0144 1.7022,0.0682 0.2623,0.0988 0.219,0.86487 -0.1829,3.18637 -1.9321,11.16369 -6.6508,21.56502 -13.9501,30.74903 -2.3567,2.96528 -7.7871,8.29765 -10.8071,10.61176 -9.3531,7.16723 -19.9464,11.80066 -31.3158,13.69787 -2.3643,0.39453 -3.1431,0.43742 -3.2438,0.17983 -0.072,-0.18645 -0.093,-1.338 -0.046,-2.56057 l 0.085,-2.22312 2.8717,-0.4811 c 26.0851,-4.35689 46.7934,-24.68999 51.2304,-50.30339 l 0.4894,-2.81999 2.2608,-0.0822 c 0.3113,-0.0114 0.6178,-0.0192 0.9059,-0.0227 z m 29.5181,15.64194 -5e-4,5.2e-4 c 0.3929,0.0176 0.7867,0.16522 1.3508,0.49816 0.7182,0.42392 1.3568,0.68899 2.3983,0.9958 1.0508,0.30958 1.9203,0.49581 2.8773,0.6165 0.3052,0.0385 0.7908,0.1088 1.079,0.15607 2.8785,0.47218 5.0584,1.73289 6.4084,3.70571 0.6413,0.93705 1.3532,2.60368 1.5886,3.72019 0.03,0.14086 0.077,0.36359 0.1044,0.49506 0.028,0.13147 0.079,0.45381 0.1136,0.71675 0.088,0.67119 0.088,2.28936 6e-4,2.98483 -0.2095,1.66053 -0.6694,3.12676 -1.526,4.86275 -0.2037,0.41276 -0.275,0.4811 -0.092,0.0884 0.4869,-1.04555 0.9646,-2.61069 1.1585,-3.79718 0.2196,-1.34453 0.2116,-2.93375 -0.021,-4.18786 -0.2566,-1.38542 -0.7628,-2.76212 -1.3689,-3.72225 -0.078,-0.12321 -0.1369,-0.25728 -0.1369,-0.29818 0,-0.041 -0.1068,-0.24069 -0.2434,-0.4439 -0.9965,-1.48217 -2.5844,-2.59176 -4.3791,-3.05976 -0.5202,-0.13564 -0.7094,-0.17216 -1.2929,-0.24701 -1.509,-0.19367 -1.9406,-0.29891 -3.1941,-0.78238 -0.4661,-0.17975 -0.857,-0.3266 -0.8692,-0.3266 -0.012,0 0.04,0.0408 0.1168,0.091 0.076,0.0503 0.249,0.18006 0.3834,0.28836 0.9709,0.78195 1.2281,1.20652 1.4542,2.40295 0.039,0.20659 0.082,0.41835 0.095,0.47026 l 0.023,0.0946 0.186,-0.21135 c 0.5695,-0.64715 1.1916,-0.93867 2.0831,-0.97617 0.516,-0.0217 0.8905,0.0284 1.3989,0.18707 0.9649,0.3011 1.7825,0.80592 2.5187,1.55494 0.6195,0.63031 0.9893,1.18597 1.5167,2.27893 0.6303,1.30645 0.9032,2.21967 1.1234,3.75636 0.075,0.51905 0.064,2.51908 -0.017,3.12436 -0.2579,1.93723 -0.7166,3.38188 -1.682,5.29322 -0.63,1.24723 -1.6228,2.80157 -2.3833,3.73207 -0.5966,0.72985 -2.2763,2.4086 -3.1895,3.1874 -1.5331,1.30736 -3.0005,2.35484 -4.4468,3.17448 l -0.3421,0.19327 -0.1979,-0.1049 c -0.1629,-0.0863 -0.2489,-0.10745 -0.4811,-0.11937 -0.276,-0.0142 -0.2846,-0.0173 -0.3302,-0.11834 -0.071,-0.15657 -0.2894,-0.35219 -0.5204,-0.46612 -0.1847,-0.0911 -0.2949,-0.12591 -0.6005,-0.18759 -0.069,-0.0138 -0.1074,-0.0611 -0.1684,-0.20464 -0.136,-0.3206 -0.4702,-0.55942 -0.9338,-0.66662 -0.1664,-0.0384 -0.1821,-0.0512 -0.2269,-0.18345 -0.072,-0.21304 -0.2902,-0.41538 -0.5183,-0.48111 -0.1044,-0.0301 -0.2072,-0.0548 -0.2284,-0.0548 -0.021,0 -0.084,-0.0944 -0.1375,-0.20981 -0.3088,-0.65753 -0.9667,-0.84659 -1.373,-0.39429 -0.1319,0.14726 -0.1839,0.31125 -0.1845,0.5793 -2e-4,0.24101 0.087,0.49463 0.263,0.76171 l 0.1323,0.20205 v 0.39274 c 0,0.35787 0.012,0.40993 0.1013,0.58756 0.055,0.11049 0.1558,0.23991 0.2315,0.29869 l 0.1344,0.10387 v 0.28526 c 0,0.41828 0.1245,0.713 0.4211,1.02526 0.133,0.14 0.4222,0.29347 0.5535,0.29404 0.044,1.6e-4 0.079,0.0215 0.079,0.047 0,0.0256 0.04,0.10413 0.089,0.17467 0.05,0.0705 0.087,0.13166 0.079,0.13746 -0.01,0.005 -0.3014,0.0796 -0.6568,0.16536 -1.1608,0.28017 -2.1185,0.43777 -3.022,0.49713 -3.6814,0.24023 -6.6905,-0.99439 -7.8642,-3.22771 -0.3017,-0.5741 -0.4407,-1.05891 -0.4961,-1.73581 -0.1529,-1.85952 0.7634,-3.88801 2.5301,-5.59914 2.8242,-2.73551 6.9255,-4.32489 12.3507,-4.78679 0.6969,-0.0591 3.4356,-0.0999 3.7641,-0.0558 l 0.184,0.0248 -0.2129,0.32453 -0.2135,0.32453 h -1.5601 c -1.599,1.3e-4 -2.1997,0.0284 -3.3589,0.15761 -3.2275,0.35965 -5.8742,1.23253 -8.2926,2.73627 -1.2785,0.79502 -2.1456,1.54282 -3.0143,2.59829 -0.4394,0.53398 -0.8938,1.4862 -1.0443,2.19056 -0.09,0.41945 -0.106,1.12102 -0.037,1.58027 0.062,0.40823 0.2088,0.95856 0.2723,1.01544 0.027,0.0239 0.032,0.0166 0.016,-0.0253 -0.012,-0.0329 -0.04,-0.30211 -0.062,-0.5979 -0.068,-0.90968 0,-1.5628 0.2522,-2.27789 0.3089,-0.89044 0.8013,-1.63261 1.5885,-2.39727 2.2442,-2.17994 6.6103,-3.80392 10.9663,-4.07779 0.691,-0.0435 2.1703,0.0144 3.2396,0.12661 l 0.2,0.0212 -0.1106,0.13746 c -0.4688,0.57859 -1.6413,1.7382 -2.4877,2.46083 l -0.5907,0.50437 -0.1431,-0.0233 c -0.2715,-0.045 -1.5932,-0.0229 -2.0164,0.0336 -1.329,0.17729 -2.441,0.67088 -3.357,1.48983 -0.5819,0.52021 -0.8976,1.14769 -0.7932,1.57665 0.072,0.29612 0.4373,0.57762 0.9379,0.72295 0.2965,0.0861 0.8894,0.13405 1.3483,0.10904 2.5654,-0.13966 5.2232,-1.37656 7.6507,-3.55999 1.8357,-1.65126 3.3612,-3.8674 4.0633,-5.90196 0.3625,-1.0506 0.5307,-2.04035 0.5307,-3.13056 0,-1.7681 -0.5027,-3.14665 -1.4862,-4.07469 -0.4196,-0.39602 -0.8398,-0.6027 -1.4092,-0.69401 -0.6066,-0.0973 -1.3697,0.0464 -1.9958,0.37517 -0.8926,0.46896 -1.8047,1.39679 -2.6225,2.66857 -0.8252,1.28324 -1.1214,1.67173 -1.5519,2.03295 -0.247,0.20725 -0.6849,0.40994 -0.9436,0.43718 l -0.2093,0.0222 0.2114,-0.21807 c 0.1162,-0.12008 0.2516,-0.27222 0.3012,-0.33796 0.2327,-0.30953 0.2113,-0.31275 -0.1467,-0.0196 -0.7268,0.59502 -1.4544,1.00854 -1.9906,1.13068 -0.381,0.0868 -1.2383,0.10713 -1.5456,0.0367 -0.4887,-0.11205 -0.7229,-0.29784 -0.7514,-0.59738 -0.013,-0.13003 0.01,-0.19659 0.1018,-0.37724 0.064,-0.12059 0.1341,-0.22458 0.1561,-0.23203 0.022,-0.007 0.05,0.043 0.064,0.11369 0.031,0.16337 0.1787,0.30476 0.3694,0.35502 0.1815,0.0478 0.518,0.007 1.0393,-0.12402 0.5454,-0.13796 0.7893,-0.26974 1.0014,-0.54157 l 0.094,-0.12196 -0.057,-0.32504 c -0.08,-0.45956 -0.075,-0.79331 0.016,-0.99426 l 0.074,-0.16123 0.064,0.10077 c 0.094,0.14775 0.2971,0.32719 0.4848,0.42788 0.1304,0.0697 0.1672,0.10903 0.1762,0.1881 0.019,0.16439 0.052,0.15741 0.1979,-0.0387 0.1605,-0.2157 0.2243,-0.37562 0.2243,-0.6041 0,-0.0893 0.015,-0.16227 0.03,-0.16227 0.015,0 0.086,0.0393 0.1591,0.0878 0.1267,0.0841 0.1366,0.0858 0.2212,0.0315 0.049,-0.0312 0.1362,-0.15892 0.1948,-0.28422 0.3344,-0.71634 0.4371,-0.90625 0.6765,-1.24954 0.1452,-0.20826 0.4108,-0.5627 0.5906,-0.78807 0.9823,-1.23071 1.3056,-1.77144 1.4434,-2.4138 0.1053,-0.49104 -0.029,-0.88852 -0.4512,-1.33635 -0.4745,-0.50337 -1.1066,-0.70805 -2.8716,-0.92915 -0.9527,-0.11935 -1.66,-0.26575 -2.1456,-0.44441 -0.2806,-0.10329 -0.6041,-0.18775 -0.6041,-0.15762 0,0.0123 0.067,0.0575 0.1488,0.10026 0.082,0.0428 0.1844,0.10502 0.2284,0.13797 l 0.08,0.0594 -0.2599,0.49403 c -0.143,0.27174 -0.3095,0.63727 -0.3705,0.81235 -0.1541,0.44294 -0.2272,1.02386 -0.184,1.46348 0.022,0.18461 0.03,0.34085 0.022,0.3483 -0.028,0.0337 -0.3054,-0.31517 -0.4449,-0.55914 -0.3349,-0.58589 -0.491,-1.19524 -0.491,-1.9296 -8e-4,-0.44862 0.01,-0.51933 0.09,-0.75138 0.05,-0.14086 0.086,-0.26198 0.077,-0.27026 -0.01,-0.008 -0.2538,-0.0149 -0.5467,-0.0155 -0.4505,-8.3e-4 -0.5631,0.0104 -0.7317,0.0693 -0.2799,0.0983 -0.5578,0.27078 -0.7524,0.46664 l -0.1664,0.16743 0.1498,-0.0734 c 0.082,-0.0403 0.1647,-0.0643 0.1835,-0.0532 0.057,0.0346 0.037,0.41598 -0.041,0.7798 -0.128,0.59601 -0.093,1.20777 0.1074,1.83606 0.036,0.1104 0.058,0.20102 0.049,0.20102 -0.048,0 -0.4073,-0.29267 -0.5715,-0.46612 -0.3586,-0.37853 -0.4837,-0.70709 -0.5927,-1.55856 -0.041,-0.31822 -0.1647,-0.70172 -0.3018,-0.93224 -0.1061,-0.17813 -0.1047,-0.18855 0.02,-0.14625 0.057,0.0197 0.137,0.0304 0.1793,0.0238 0.065,-0.009 0.048,-0.029 -0.1054,-0.1261 -0.2119,-0.13376 -0.3964,-0.3637 -0.4754,-0.59221 -0.077,-0.22299 -0.069,-0.66393 0.017,-0.99322 0.1567,-0.59735 0.6059,-1.19155 1.065,-1.4087 0.1962,-0.0928 0.2342,-0.0982 0.6992,-0.10232 0.7028,-0.007 1.2067,-0.1425 1.6676,-0.45113 0.4322,-0.28945 0.6142,-0.32503 1.419,-0.27337 0.9644,0.0619 1.2863,-0.007 2.2082,-0.48007 0.4983,-0.25521 0.511,-0.25954 0.8066,-0.27337 0.056,-0.002 0.1134,-0.003 0.1695,-5.2e-4 z m -183.0761,10e-4 h 5e-4 5e-4 c 0.2944,0.0138 0.3085,0.0186 0.8061,0.27337 0.922,0.47219 1.2433,0.54203 2.2077,0.48008 0.8048,-0.0517 0.9873,-0.0165 1.4195,0.27285 0.4609,0.30863 0.9648,0.4448 1.6676,0.45113 0.465,0.004 0.5025,0.009 0.6987,0.10232 0.4591,0.21714 0.9088,0.81188 1.0655,1.40922 0.086,0.32929 0.094,0.76973 0.017,0.9927 -0.079,0.22851 -0.264,0.45846 -0.4759,0.59221 -0.1537,0.0971 -0.1697,0.11668 -0.1049,0.1261 0.042,0.007 0.1228,-0.004 0.1793,-0.0238 0.1243,-0.0423 0.1258,-0.0319 0.02,0.14625 -0.1371,0.23052 -0.2616,0.61404 -0.3023,0.93224 -0.109,0.85147 -0.2337,1.18003 -0.5922,1.55856 -0.1643,0.17345 -0.5236,0.46612 -0.5721,0.46612 -0.01,0 0.014,-0.0901 0.049,-0.2005 0.2,-0.62829 0.2361,-1.24057 0.108,-1.83658 -0.078,-0.36381 -0.098,-0.74468 -0.04,-0.77928 0.019,-0.0112 0.1006,0.0128 0.183,0.0532 l 0.1498,0.0729 -0.1664,-0.16743 c -0.1946,-0.19587 -0.4725,-0.36831 -0.7524,-0.46664 -0.1685,-0.0593 -0.2812,-0.0695 -0.7317,-0.0687 -0.2929,5.8e-4 -0.5393,0.007 -0.5473,0.0155 -0.01,0.008 0.027,0.12941 0.077,0.27027 0.083,0.23205 0.092,0.30275 0.091,0.75138 -8e-4,0.73434 -0.1561,1.3432 -0.4909,1.92908 -0.1395,0.24398 -0.4175,0.59338 -0.4454,0.55965 -0.01,-0.007 -3e-4,-0.16421 0.022,-0.34881 0.043,-0.43963 -0.03,-1.02003 -0.1835,-1.46296 -0.061,-0.17508 -0.228,-0.54112 -0.371,-0.81287 l -0.2594,-0.49403 0.08,-0.0594 c 0.044,-0.033 0.1467,-0.0947 0.2284,-0.13746 0.082,-0.0427 0.1483,-0.0879 0.1483,-0.10025 0,-0.0301 -0.323,0.0538 -0.6036,0.1571 -0.4857,0.17867 -1.1934,0.3256 -2.1461,0.44493 -1.765,0.22111 -2.3972,0.42526 -2.8717,0.92863 -0.4221,0.44783 -0.5564,0.84583 -0.4511,1.33687 0.1378,0.64235 0.4616,1.18257 1.4438,2.41328 0.1799,0.22538 0.4455,0.58033 0.5907,0.78859 0.2394,0.34328 0.3421,0.53267 0.6764,1.24902 0.059,0.12529 0.1462,0.25304 0.1949,0.28422 0.085,0.0542 0.094,0.0531 0.2206,-0.031 0.072,-0.0484 0.145,-0.0884 0.1597,-0.0884 0.015,0 0.028,0.073 0.029,0.16227 0,0.22849 0.063,0.38891 0.2238,0.60461 0.1462,0.19616 0.1802,0.20217 0.1989,0.0377 0.01,-0.0791 0.046,-0.11838 0.1762,-0.18811 0.1877,-0.10069 0.3905,-0.27908 0.4848,-0.42684 l 0.064,-0.10077 0.073,0.16123 c 0.091,0.20094 0.096,0.53419 0.016,0.99374 l -0.057,0.32556 0.095,0.12092 c 0.2121,0.27184 0.456,0.40361 1.0015,0.54157 0.5212,0.13184 0.8572,0.1723 1.0387,0.12454 0.1908,-0.0503 0.3386,-0.19166 0.37,-0.35502 0.014,-0.0706 0.041,-0.12029 0.063,-0.11317 0.022,0.007 0.092,0.11144 0.1565,0.23203 0.096,0.18066 0.1144,0.24668 0.1018,0.37672 -0.028,0.29953 -0.2628,0.48534 -0.7513,0.59738 -0.3073,0.0705 -1.1652,0.05 -1.5462,-0.0367 -0.5363,-0.12214 -1.2639,-0.53514 -1.9906,-1.13016 -0.358,-0.29315 -0.3788,-0.29045 -0.1462,0.0191 0.05,0.0657 0.185,0.21789 0.3013,0.33796 l 0.2113,0.21859 -0.2098,-0.0222 c -0.2587,-0.0272 -0.6961,-0.23046 -0.9431,-0.4377 -0.4304,-0.36124 -0.7272,-0.74919 -1.5524,-2.03243 -0.8178,-1.2718 -1.7298,-2.20013 -2.6225,-2.66909 -0.626,-0.32886 -1.3887,-0.47246 -1.9953,-0.37517 -0.5693,0.0913 -0.9895,0.2985 -1.4092,0.69453 -0.9834,0.92804 -1.4867,2.30553 -1.4867,4.07365 0,1.0902 0.1682,2.08101 0.5307,3.13159 0.7021,2.03455 2.2275,4.2502 4.0633,5.90145 2.4274,2.18344 5.0859,3.42032 7.6512,3.55999 0.4589,0.025 1.0513,-0.023 1.3478,-0.10904 0.5006,-0.14532 0.8658,-0.42736 0.9379,-0.72347 0.1045,-0.42896 -0.2109,-1.05592 -0.7927,-1.57613 -0.9161,-0.81894 -2.0285,-1.312 -3.3574,-1.48931 -0.4233,-0.0565 -1.745,-0.079 -2.0165,-0.0341 l -0.1426,0.0238 -0.5906,-0.50436 c -0.8465,-0.72264 -2.0189,-1.88276 -2.4878,-2.46135 l -0.1111,-0.13694 0.2005,-0.0212 c 1.0693,-0.1122 2.5486,-0.17004 3.2396,-0.1266 4.3561,0.27386 8.7222,1.89734 10.9663,4.07727 0.7872,0.76468 1.2791,1.50735 1.588,2.39778 0.2482,0.71508 0.3204,1.36822 0.2522,2.2779 -0.022,0.29579 -0.05,0.56398 -0.062,0.59686 -0.015,0.0418 -0.01,0.0497 0.016,0.0258 0.063,-0.0569 0.2108,-0.60669 0.2723,-1.01492 0.069,-0.45925 0.053,-1.1603 -0.037,-1.57975 -0.1506,-0.70437 -0.6041,-1.6571 -1.0433,-2.19108 -0.8687,-1.05548 -1.7368,-1.80275 -3.0153,-2.59778 -2.4184,-1.50374 -5.0647,-2.37712 -8.292,-2.73678 -1.1594,-0.12919 -1.76,-0.15747 -3.359,-0.15761 l -1.5606,-5.2e-4 -0.2129,-0.32401 -0.2129,-0.32453 0.1834,-0.0248 c 0.3285,-0.0441 3.0677,-0.003 3.7646,0.0563 5.4252,0.4619 9.5259,2.05078 12.3502,4.78627 1.7666,1.71114 2.6835,3.73965 2.5306,5.59914 -0.055,0.67691 -0.1944,1.16118 -0.4961,1.7353 -1.1742,2.23438 -4.1857,3.46999 -7.8693,3.22823 l 0.01,-5.2e-4 c -0.9036,-0.0594 -1.8612,-0.21644 -3.022,-0.49661 -0.3556,-0.0858 -0.6511,-0.1602 -0.6568,-0.16537 -0.01,-0.006 0.03,-0.0668 0.08,-0.13746 0.049,-0.0705 0.089,-0.14963 0.089,-0.17518 0,-0.0255 0.034,-0.0464 0.078,-0.0465 0.1312,-5.7e-4 0.4209,-0.15405 0.5539,-0.29404 0.2967,-0.31226 0.4172,-0.60699 0.4207,-1.02526 v -0.28525 l 0.1343,-0.10439 c 0.076,-0.0588 0.1766,-0.18767 0.2321,-0.29817 0.089,-0.17763 0.098,-0.22968 0.1007,-0.58756 v -0.39274 l 0.1328,-0.20206 c 0.1756,-0.26709 0.2633,-0.52121 0.2631,-0.76222 -7e-4,-0.26805 -0.053,-0.43205 -0.185,-0.5793 -0.4063,-0.4523 -1.0643,-0.26272 -1.3731,0.39481 -0.054,0.11539 -0.1156,0.20929 -0.1369,0.20929 -0.021,0 -0.1245,0.0248 -0.2289,0.0548 -0.2281,0.0657 -0.4464,0.26859 -0.5184,0.48162 -0.045,0.1322 -0.06,0.14504 -0.2263,0.18345 -0.4636,0.1072 -0.7983,0.34604 -0.9343,0.66663 -0.061,0.14348 -0.099,0.1908 -0.168,0.20464 -0.3056,0.0617 -0.4163,0.096 -0.601,0.18707 -0.2309,0.11394 -0.4495,0.31007 -0.5203,0.46664 -0.046,0.10105 -0.054,0.10418 -0.3297,0.11833 -0.232,0.0119 -0.3183,0.0331 -0.4811,0.11938 l -0.1985,0.1049 -0.3421,-0.19327 c -1.4462,-0.81964 -2.9131,-1.86763 -4.4462,-3.175 -0.9132,-0.77879 -2.5934,-2.45755 -3.19,-3.1874 -0.7605,-0.9305 -1.7528,-2.48485 -2.3828,-3.73207 -0.9654,-1.91134 -1.4246,-3.35548 -1.6826,-5.2927 -0.081,-0.60526 -0.091,-2.60532 -0.017,-3.12436 0.2202,-1.53669 0.4936,-2.44989 1.124,-3.75636 0.5273,-1.09295 0.8971,-1.64913 1.5167,-2.27945 0.7361,-0.74901 1.5533,-1.25334 2.5182,-1.55443 0.5084,-0.15865 0.8828,-0.20875 1.3988,-0.18706 0.8915,0.0374 1.5137,0.32901 2.0831,0.97616 l 0.1861,0.21136 0.024,-0.0946 c 0.013,-0.0519 0.055,-0.26366 0.095,-0.47025 0.226,-1.19643 0.4827,-1.62101 1.4536,-2.40296 0.1345,-0.10831 0.3074,-0.23811 0.384,-0.28835 0.077,-0.0503 0.1291,-0.0915 0.1168,-0.0915 -0.012,0 -0.4042,0.14737 -0.8703,0.32711 -1.2536,0.48348 -1.6846,0.58871 -3.1936,0.78238 -0.5834,0.0749 -0.7722,0.11137 -1.2924,0.24702 -1.7947,0.468 -3.3826,1.57707 -4.3791,3.05924 -0.1366,0.20321 -0.2465,0.40347 -0.2439,0.44442 0,0.0409 -0.058,0.17496 -0.1364,0.29817 -0.606,0.96013 -1.1122,2.33684 -1.3689,3.72226 -0.2323,1.2541 -0.2402,2.84282 -0.021,4.18734 0.194,1.18649 0.6716,2.75215 1.1586,3.7977 0.183,0.39277 0.1112,0.32444 -0.092,-0.0884 -0.8566,-1.736 -1.3166,-3.20275 -1.526,-4.86327 -0.088,-0.69548 -0.088,-2.31312 5e-4,-2.98431 0.034,-0.26294 0.086,-0.5858 0.1137,-0.71727 0.028,-0.13147 0.075,-0.35421 0.1049,-0.49506 0.2352,-1.11652 0.9462,-2.78264 1.5875,-3.71967 1.3501,-1.97282 3.5309,-3.23354 6.4094,-3.70572 0.2882,-0.0473 0.7738,-0.11756 1.079,-0.15606 0.957,-0.12069 1.8265,-0.30691 2.8774,-0.6165 1.0414,-0.3068 1.6795,-0.57189 2.3977,-0.99581 0.6443,-0.38021 1.0673,-0.51905 1.5193,-0.49816 z m 183.4264,1.08934 c -0.3118,0.002 -0.6501,0.0925 -1.4707,0.38034 -0.1186,0.0416 -0.3389,0.0767 -0.5762,0.0915 l -0.3844,0.0238 0.2971,0.14314 c 0.3954,0.19047 0.7486,0.27001 1.3808,0.31058 0.6202,0.0397 0.7508,0.0774 1.2139,0.35088 0.1887,0.11144 0.3661,0.21083 0.3938,0.22118 0.08,0.03 0.1033,-0.0787 0.1033,-0.48266 0,-0.31974 -0.012,-0.40124 -0.081,-0.54622 -0.151,-0.32032 -0.3658,-0.46134 -0.7436,-0.48783 -0.045,-0.003 -0.089,-0.005 -0.1333,-0.005 z m -184.0796,0.005 c -0.3778,0.0265 -0.5922,0.16751 -0.7431,0.48783 -0.068,0.14497 -0.081,0.22595 -0.081,0.5457 0,0.40397 0.024,0.51315 0.1033,0.48317 0.028,-0.0103 0.205,-0.10973 0.3938,-0.22117 h 5e-4 c 0.4631,-0.27343 0.5932,-0.31165 1.2134,-0.3514 0.6322,-0.0406 0.9858,-0.11957 1.3813,-0.31006 l 0.2971,-0.14314 -0.3845,-0.0238 c -0.2373,-0.0148 -0.4576,-0.0499 -0.5761,-0.0915 -0.938,-0.32897 -1.2461,-0.40084 -1.6046,-0.37569 z m 178.9761,0.99064 v 5.1e-4 c -0.04,8.3e-4 -0.077,0.004 -0.1101,0.009 l -0.1395,0.0233 0.072,0.0754 c 0.04,0.0416 0.073,0.10071 0.073,0.13126 0,0.0306 0.034,0.0949 0.077,0.14314 v 0 c 0.057,0.0633 0.1224,0.0913 0.2361,0.10129 0.2145,0.0189 0.2838,-6.6e-4 0.4155,-0.11834 0.087,-0.0774 0.1346,-0.0966 0.2062,-0.0817 l 0.094,0.0196 -0.098,-0.0822 c -0.1504,-0.12563 -0.5506,-0.22734 -0.8278,-0.22117 z m -173.6292,0.009 c -0.268,-0.0443 -0.7661,0.0683 -0.9379,0.21187 l -0.098,0.0822 0.094,-0.0196 c 0.072,-0.0149 0.12,0.004 0.2067,0.0817 0.1318,0.11764 0.2011,0.13724 0.4155,0.11834 0.1138,-0.01 0.1788,-0.038 0.2356,-0.10129 h 10e-4 c 0.043,-0.0482 0.078,-0.11305 0.078,-0.14366 0,-0.0305 0.033,-0.0891 0.073,-0.13074 l 0.072,-0.076 z m 171.389,0.18087 c -0.074,-0.007 -0.2428,0.0363 -0.4,0.11007 -0.1663,0.0781 -0.3962,0.29404 -0.2744,0.25786 0.049,-0.0145 0.093,8.6e-4 0.1359,0.047 l 6e-4,5.2e-4 c 0.1057,0.11361 0.3022,0.0744 0.432,-0.0868 0.042,-0.0511 0.075,-0.12056 0.075,-0.15451 0,-0.0339 0.015,-0.0717 0.035,-0.0832 0.019,-0.0116 0.035,-0.0411 0.035,-0.0662 0,-0.0144 -0.014,-0.0224 -0.039,-0.0248 z m -169.1565,0.009 c -0.084,-0.0162 -0.1411,-0.0128 -0.1411,0.016 0,0.0251 0.015,0.0545 0.035,0.0661 0.02,0.0116 0.036,0.0493 0.036,0.0832 0,0.0339 0.033,0.10347 0.075,0.15452 0.1299,0.16141 0.3263,0.2005 0.432,0.0863 0.043,-0.046 0.087,-0.0616 0.1359,-0.047 0.1218,0.0362 -0.108,-0.17981 -0.2744,-0.25787 -0.1047,-0.0492 -0.2142,-0.0851 -0.2977,-0.10128 z m 174.1366,3.7021 v 5.2e-4 c 0.395,0 0.4346,0.006 0.6309,0.0992 0.2818,0.13422 0.63,0.48044 0.7928,0.78807 0.3004,0.56787 0.4493,1.30319 0.3793,1.87844 -0.1357,1.12035 -0.9906,2.57506 -2.4169,4.11189 -0.1992,0.2145 -0.4293,0.46841 -0.5111,0.56379 -0.082,0.0954 -0.2042,0.23862 -0.2734,0.31885 -0.069,0.0802 -0.1832,0.17605 -0.2532,0.21239 h -5e-4 c -0.1661,0.0855 -0.3956,0.0888 -0.4713,0.007 -0.082,-0.0886 -0.2486,-0.80221 -0.2811,-1.20147 l -0.021,-0.25632 0.078,0.10284 c 0.3748,0.49368 0.7189,0.61358 1.019,0.35605 0.1344,-0.11532 0.2524,-0.34002 0.2858,-0.54157 l 0.023,-0.13746 0.088,0.0672 c 0.048,0.0371 0.1071,0.0677 0.1307,0.0677 0.058,0 0.3755,-0.30945 0.5008,-0.48783 0.3722,-0.53027 0.6371,-1.31617 0.7596,-2.25413 0.1332,-1.01991 -0.039,-1.72084 -0.5431,-2.20916 -0.2385,-0.23112 -0.5071,-0.38634 -0.7937,-0.45837 l -0.168,-0.0424 v -0.22221 c 0,-0.31143 0.1291,-0.5157 0.4176,-0.65991 0.1954,-0.0972 0.2276,-0.10283 0.6278,-0.10283 z m -179.2195,5.2e-4 h 10e-4 c 0.4002,0 0.4324,0.006 0.6278,0.10231 0.2884,0.1442 0.4176,0.34901 0.4176,0.66043 v 0.22169 l -0.168,0.0424 c -0.2866,0.072 -0.5547,0.22726 -0.7932,0.45837 -0.504,0.48831 -0.6768,1.18978 -0.5437,2.20968 0.1225,0.93796 0.3875,1.72385 0.7597,2.25413 0.1252,0.17838 0.4427,0.48782 0.5007,0.48782 0.024,0 0.083,-0.0305 0.1313,-0.0677 l 0.087,-0.0677 0.023,0.13798 c 0.033,0.20157 0.1519,0.42624 0.2863,0.54156 0.3001,0.25753 0.6437,0.13711 1.0185,-0.35656 l 0.079,-0.10284 -0.021,0.25632 c -0.033,0.39927 -0.1996,1.11342 -0.2816,1.20199 -0.076,0.0818 -0.3047,0.0785 -0.4708,-0.007 v 0 c -0.07,-0.0363 -0.1845,-0.13216 -0.2532,-0.21239 -0.069,-0.0802 -0.1915,-0.22397 -0.2734,-0.31936 -0.082,-0.0954 -0.3119,-0.34877 -0.511,-0.56327 -1.4264,-1.53685 -2.2814,-2.99154 -2.417,-4.1119 -0.07,-0.57524 0.079,-1.31056 0.3794,-1.87843 0.1627,-0.30762 0.5109,-0.65384 0.7927,-0.78807 0.1963,-0.0935 0.2359,-0.0997 0.6309,-0.0997 z m -7.827,3.2954 -0.1886,0.0677 c -0.902,0.32392 -1.4416,1.53964 -1.526,3.43596 -0.029,0.66475 0.026,1.26012 0.1799,1.93529 0.2777,1.21594 0.6888,2.26561 1.2454,3.18016 0.2916,0.47939 0.3133,0.51011 0.8619,1.23197 1.4684,1.93207 3.6968,3.90887 5.6922,5.0493 0.4899,0.28003 1.3413,0.69019 1.8056,0.86972 0.683,0.2641 1.5416,0.48369 1.8903,0.48369 0.084,0 0.1529,0.0132 0.1529,0.0295 0,0.0816 -0.8889,0.0949 -1.4319,0.0212 h -5e-4 c -2.1603,-0.29298 -4.4531,-1.54969 -6.5505,-3.58944 -1.3402,-1.30326 -2.4224,-2.74232 -3.2303,-4.29793 -0.2573,-0.49538 -0.3158,-0.62002 -0.5008,-1.05833 -0.3521,-0.83403 -0.6218,-1.96459 -0.7255,-3.04168 -0.05,-0.52878 -0.024,-1.40574 0.056,-1.85932 0.1201,-0.6765 0.4047,-1.32556 0.7694,-1.75493 0.2772,-0.32627 0.85,-0.61713 1.3431,-0.68213 z m 194.8739,0 0.1571,0.0207 c 0.4932,0.065 1.0659,0.35587 1.3431,0.68213 0.3647,0.42937 0.6498,1.07844 0.7699,1.75493 0.081,0.45358 0.1068,1.33055 0.056,1.85932 -0.1036,1.07709 -0.3734,2.20711 -0.7255,3.04116 -0.185,0.4383 -0.244,0.56349 -0.5013,1.05885 -0.8079,1.55562 -1.8896,2.99467 -3.2297,4.29793 -2.0975,2.03976 -4.3908,3.29596 -6.5511,3.58893 h -5e-4 c -0.543,0.0736 -1.4319,0.0608 -1.4319,-0.0207 0,-0.0162 0.069,-0.0295 0.1535,-0.0295 0.3487,0 1.2068,-0.21959 1.8898,-0.48369 0.4643,-0.17953 1.3155,-0.58968 1.8055,-0.86972 1.9954,-1.14042 4.2243,-3.11722 5.6927,-5.0493 0.5485,-0.72187 0.5703,-0.75259 0.862,-1.23197 0.5565,-0.91456 0.9671,-1.96421 1.2449,-3.18016 0.154,-0.67518 0.2096,-1.27105 0.1803,-1.9358 -0.084,-1.8963 -0.6245,-3.11153 -1.5265,-3.43545 z m -202.9111,11.3068 c 0.01,0.007 0.075,0.13663 0.1525,0.28784 l 0.1405,0.2744 -0.1628,0.0992 c -0.538,0.328 -2.3015,1.68333 -2.7962,2.14871 -0.6121,0.57595 -1.0597,1.17154 -1.3834,1.83968 -0.3811,0.78702 -0.5268,1.46689 -0.4955,2.312 0.028,0.751 0.1467,1.26025 0.4516,1.9265 0.4233,0.92501 1.126,1.80869 2.019,2.53835 1.6659,1.36124 4.3244,2.22636 7.6905,2.5032 0.4856,0.0399 0.7437,0.0288 0.3602,-0.0155 -0.5549,-0.064 -2.3544,-0.40176 -2.9347,-0.55087 -3.0923,-0.7946 -5.687,-2.62933 -6.5748,-4.64933 -0.2399,-0.54583 -0.3287,-0.93055 -0.3499,-1.5136 -0.02,-0.57014 0.028,-0.92031 0.1995,-1.43609 0.2976,-0.89397 0.9897,-1.89343 1.8066,-2.60966 0.516,-0.45238 1.4575,-1.14951 2.3172,-1.71514 l 0.2635,-0.17312 0.1732,0.26045 c 0.6647,0.99736 1.5126,2.01953 2.5399,3.06235 l 0.3048,0.30954 -0.3281,0.27957 c -0.6422,0.5465 -1.3241,1.33016 -1.6681,1.9172 -0.2744,0.46826 -0.5058,1.14954 -0.476,1.40043 0.01,0.0715 0.025,0.0498 0.091,-0.11679 0.2495,-0.63704 0.8771,-1.46846 1.5669,-2.07481 0.3238,-0.28468 0.9468,-0.74471 1.1539,-0.85214 l 0.1468,-0.0765 0.2242,0.21084 0.2243,0.21084 -0.4506,0.27751 c -1.8217,1.12188 -2.789,2.28117 -2.789,3.34346 0,0.75541 0.551,1.51965 1.5203,2.10995 1.0048,0.61188 2.4774,1.09913 3.7518,1.24075 0.5223,0.0581 1.6178,0.0236 2.1693,-0.0682 0.8141,-0.13551 1.6988,-0.38866 2.5446,-0.72761 0.3525,-0.14129 0.4373,-0.16409 0.463,-0.12505 0.074,0.1124 0.1033,0.32719 0.094,0.69711 l -0.01,0.39481 -0.3669,0.16485 c -1.3814,0.62094 -2.823,1.01975 -4.209,1.16375 -0.4824,0.0502 -2.0714,0.0705 -2.6138,0.0336 -3.5828,-0.24388 -6.7212,-1.54875 -8.4336,-3.50624 -1.1163,-1.27599 -1.6934,-3.0789 -1.5095,-4.71496 0.2355,-2.09516 1.5965,-3.96605 3.9403,-5.41569 0.4282,-0.26484 1.2207,-0.68941 1.2428,-0.6656 z m 210.9483,0 c 0.022,-0.0238 0.8147,0.40078 1.2429,0.6656 2.3438,1.44965 3.7048,3.32054 3.9403,5.41569 0.1839,1.63606 -0.3937,3.43897 -1.51,4.71496 -1.7125,1.9575 -4.8503,3.26236 -8.4331,3.50624 -0.5424,0.0369 -2.1314,0.0166 -2.6138,-0.0336 -1.3861,-0.144 -2.8276,-0.54229 -4.209,-1.16324 l -0.3674,-0.16536 -0.01,-0.39481 c -0.01,-0.36991 0.02,-0.58473 0.094,-0.69711 0.026,-0.0391 0.11,-0.0157 0.4625,0.12557 0.8457,0.33894 1.7309,0.59157 2.545,0.72709 0.5516,0.0917 1.6466,0.12626 2.1689,0.0682 1.2743,-0.14161 2.7475,-0.62887 3.7522,-1.24075 0.9693,-0.59029 1.5198,-1.35454 1.5198,-2.10995 0,-1.0623 -0.9668,-2.22159 -2.7885,-3.34346 l -0.4506,-0.27751 0.2243,-0.21032 0.2243,-0.21084 0.1462,0.076 c 0.2071,0.10743 0.8306,0.56745 1.1545,0.85214 0.6898,0.60634 1.3174,1.43779 1.5668,2.07481 0.066,0.16661 0.082,0.18831 0.091,0.11679 0.03,-0.25091 -0.202,-0.93216 -0.4764,-1.40043 -0.3441,-0.58704 -1.0255,-1.37018 -1.6676,-1.91668 l -0.3282,-0.28009 0.3049,-0.30954 c 1.0273,-1.04281 1.8746,-2.06499 2.5394,-3.06235 l 0.1736,-0.25993 0.2636,0.1726 c 0.8596,0.56563 1.8012,1.26274 2.3171,1.71514 0.817,0.71623 1.5086,1.71568 1.8061,2.60966 0.172,0.51577 0.2199,0.86594 0.1995,1.43609 -0.021,0.58304 -0.11,0.96775 -0.3499,1.5136 -0.8877,2.01999 -3.482,3.85473 -6.5742,4.64933 -0.5803,0.1491 -2.3798,0.48687 -2.9347,0.55087 -0.3836,0.0443 -0.1254,0.0555 0.3601,0.0155 3.3662,-0.27684 6.0241,-1.14196 7.69,-2.5032 0.893,-0.72967 1.5962,-1.61332 2.0195,-2.53835 0.3049,-0.66624 0.424,-1.1755 0.4517,-1.9265 0.031,-0.84509 -0.1144,-1.52498 -0.4956,-2.312 -0.3236,-0.66814 -0.7713,-1.26373 -1.3834,-1.83968 -0.4946,-0.46538 -2.2582,-1.82019 -2.7962,-2.14819 l -0.1628,-0.0997 0.1406,-0.2744 c 0.077,-0.15121 0.1443,-0.28039 0.1524,-0.28784 z m -14.3815,2.39107 c 0.1062,-3.9e-4 0.2123,0.002 0.3188,0.006 0.7174,0.0284 0.7228,0.0321 0.3829,0.26768 l -0.2775,0.19224 -0.6206,0.002 c -1.4832,0.004 -2.6052,0.30703 -3.4763,0.93793 -0.2593,0.18785 -0.6552,0.57841 -0.6552,0.64647 h -5e-4 c 0,0.0209 -0.01,0.0288 -0.021,0.0176 -0.044,-0.0434 0.2515,-0.51674 0.4604,-0.73742 0.7652,-0.80788 2.2955,-1.32576 3.8887,-1.33171 z m -182.5041,0.006 c 1.705,-0.0675 3.3914,0.46376 4.2075,1.3255 0.2091,0.22069 0.5047,0.6946 0.4604,0.73794 -0.011,0.0112 -0.021,0.003 -0.021,-0.0176 0,-0.0681 -0.3958,-0.45913 -0.6552,-0.64699 -0.8709,-0.63089 -1.9931,-0.93334 -3.4763,-0.93741 l -0.6211,-0.002 -0.277,-0.19224 c -0.3398,-0.23561 -0.335,-0.23879 0.3824,-0.26716 z m 180.5977,4.47879 c 0.04,8.3e-4 0.083,0.0123 0.1282,0.0351 0.1324,0.067 0.3653,0.35336 0.4206,0.51729 0.038,0.11202 0.035,0.13051 -0.023,0.17001 -0.145,0.0976 -0.1589,0.11867 -0.1157,0.1695 0.025,0.0291 0.1059,0.0481 0.2046,0.0481 0.2344,0 0.5214,0.0924 0.6367,0.20515 0.1472,0.14383 0.1325,0.25726 -0.055,0.42582 -0.1685,0.15078 -0.2289,0.29484 -0.1597,0.37672 0.069,0.0806 0.1464,0.0603 0.3261,-0.0847 0.2621,-0.21182 0.4986,-0.22361 0.8614,-0.0439 0.142,0.0704 0.2088,0.12844 0.2569,0.22376 0.098,0.19624 0.059,0.27821 -0.1918,0.40205 -0.2684,0.13242 -0.3793,0.23918 -0.3793,0.36483 0,0.21043 0.1554,0.23493 0.3576,0.0563 0.2008,-0.1772 0.39,-0.25135 0.6455,-0.25218 0.2779,-8.2e-4 0.5517,0.0983 0.7493,0.2713 0.1859,0.16275 0.169,0.21026 -0.1308,0.36328 -0.2565,0.13105 -0.3717,0.2823 -0.357,0.47026 0.019,0.24374 0.2273,0.25792 0.3911,0.0269 0.052,-0.0729 0.176,-0.17676 0.276,-0.23099 0.1689,-0.0915 0.2085,-0.0981 0.5488,-0.0971 0.3117,8.2e-4 0.3917,0.0135 0.5333,0.0811 0.2097,0.10024 0.3173,0.22414 0.2692,0.31161 -0.019,0.0344 -0.1159,0.10582 -0.2155,0.15864 -0.1,0.0528 -0.1846,0.11218 -0.1927,0.1323 -0.019,0.0588 0.8444,0.44425 1.2826,0.57257 1.0832,0.31719 1.8092,0.41558 3.0561,0.41393 1.0006,-0.002 1.3596,-0.0351 2.1622,-0.20257 0.9481,-0.1979 1.9334,-0.56771 2.5668,-0.96325 0.2872,-0.17916 0.2469,-0.11595 -0.074,0.11627 -0.4614,0.33393 -1.0936,0.68122 -1.5193,0.83457 -0.1103,0.0397 -0.2156,0.0834 -0.2352,0.0972 -0.042,0.0301 -0.6506,0.21537 -0.9436,0.28732 -0.6542,0.16058 -1.0925,0.20454 -2.0613,0.20619 -1.0061,0.002 -1.2795,-0.0248 -2.096,-0.20413 -0.6026,-0.13243 -1.7628,-0.52468 -2.2128,-0.74775 -0.2285,-0.11328 -0.2491,-0.10085 -0.432,0.26148 -0.1829,0.36242 -0.2499,0.66447 -0.2238,1.00614 0.02,0.24425 0.014,0.28463 -0.039,0.31626 -0.076,0.0449 -0.3376,0.0134 -0.4801,-0.0579 -0.1992,-0.0995 -0.3535,-0.24338 -0.4558,-0.42478 -0.09,-0.16072 -0.099,-0.21376 -0.099,-0.45527 0,-0.15025 0.015,-0.36824 0.029,-0.48472 0.026,-0.21018 0.026,-0.21212 -0.068,-0.23513 -0.067,-0.0165 -0.1216,-0.003 -0.1875,0.0444 -0.1294,0.0937 -0.1792,0.20375 -0.1799,0.39584 -8e-4,0.34177 -0.1574,0.44465 -0.4521,0.29766 -0.1762,-0.0878 -0.3702,-0.31099 -0.4377,-0.50591 -0.084,-0.24232 -0.07,-0.61243 0.034,-0.8816 0.1001,-0.26188 0.1074,-0.33985 0.034,-0.36742 -0.1136,-0.0426 -0.2147,0.0528 -0.3514,0.33124 -0.1605,0.32656 -0.2466,0.38114 -0.4501,0.28629 -0.2272,-0.10591 -0.3802,-0.43981 -0.3794,-0.82734 9e-4,-0.28414 0.055,-0.4218 0.2507,-0.64285 0.1624,-0.183 0.1667,-0.20047 0.089,-0.27647 -0.086,-0.0843 -0.1456,-0.0648 -0.3096,0.10025 -0.169,0.16994 -0.1881,0.1757 -0.3322,0.10284 -0.077,-0.0392 -0.1176,-0.10147 -0.1778,-0.27751 -0.098,-0.28758 -0.078,-0.51264 0.07,-0.82165 0.059,-0.12304 0.1064,-0.24424 0.1064,-0.26924 0,-0.084 -0.068,-0.0873 -0.1767,-0.008 l -0.1085,0.0785 -0.1,-0.10903 c -0.1225,-0.13369 -0.1739,-0.30443 -0.1731,-0.57361 8e-4,-0.32293 0.1181,-0.51695 0.2909,-0.51315 z m -178.3348,0.002 v 5.2e-4 c 0.1512,0.0242 0.2514,0.21247 0.2522,0.51056 7e-4,0.26919 -0.051,0.43991 -0.1731,0.57361 l -0.1,0.10904 -0.1085,-0.078 c -0.1091,-0.0789 -0.1768,-0.0761 -0.1768,0.008 0,0.025 0.048,0.14617 0.107,0.26923 0.148,0.30899 0.1673,0.53356 0.07,0.82114 -0.06,0.17604 -0.1002,0.23886 -0.1777,0.27802 -0.1441,0.0729 -0.1634,0.0666 -0.3323,-0.10335 -0.164,-0.165 -0.2244,-0.18402 -0.3106,-0.0997 -0.077,0.076 -0.072,0.0935 0.09,0.27647 0.1958,0.22106 0.2493,0.35873 0.2501,0.64286 8e-4,0.38753 -0.1515,0.72143 -0.3788,0.82734 -0.2035,0.0949 -0.2897,0.0402 -0.4501,-0.28629 -0.1368,-0.27839 -0.2383,-0.37437 -0.3519,-0.33176 -0.073,0.0276 -0.066,0.10606 0.034,0.36793 0.1037,0.26917 0.1177,0.63877 0.034,0.88109 -0.068,0.1949 -0.261,0.41859 -0.4372,0.50643 -0.2947,0.14699 -0.4511,0.0441 -0.4521,-0.29766 -7e-4,-0.19209 -0.05,-0.30263 -0.1799,-0.39636 -0.066,-0.048 -0.1203,-0.0603 -0.1876,-0.0439 -0.094,0.023 -0.094,0.0249 -0.068,0.23512 0.015,0.11647 0.027,0.33448 0.029,0.48473 0,0.24151 -0.01,0.29456 -0.099,0.45527 -0.1022,0.18142 -0.2566,0.32528 -0.4558,0.42478 -0.1422,0.0711 -0.4032,0.10239 -0.4795,0.0579 -0.053,-0.0316 -0.058,-0.0724 -0.04,-0.31626 0.027,-0.34167 -0.041,-0.64371 -0.2238,-1.00614 -0.1829,-0.36231 -0.2035,-0.37478 -0.432,-0.26149 -0.45,0.22306 -1.6102,0.61534 -2.2128,0.74776 -0.8166,0.17945 -1.0905,0.20584 -2.0965,0.20412 -0.9688,-0.002 -1.4066,-0.0456 -2.0608,-0.20619 -0.293,-0.0719 -0.9016,-0.25715 -0.9436,-0.28732 -0.02,-0.0138 -0.1249,-0.0575 -0.2352,-0.0971 -0.4257,-0.15337 -1.0579,-0.50063 -1.5193,-0.83457 -0.3208,-0.2322 -0.3612,-0.29542 -0.074,-0.11627 0.6333,0.39553 1.6187,0.76532 2.5668,0.96324 0.8026,0.16751 1.1611,0.20118 2.1616,0.20258 1.2471,0.002 1.9735,-0.0967 3.0567,-0.41393 0.4382,-0.12832 1.3017,-0.51382 1.2826,-0.57258 -0.01,-0.0201 -0.094,-0.0795 -0.1933,-0.13229 -0.1,-0.0528 -0.1961,-0.12427 -0.2149,-0.15865 -0.048,-0.0875 0.059,-0.21135 0.2687,-0.3116 0.1416,-0.0676 0.2222,-0.08 0.5338,-0.0811 0.3404,-8.2e-4 0.38,0.006 0.5488,0.0971 0.1001,0.0542 0.2242,0.15809 0.276,0.231 0.1638,0.2311 0.3723,0.21692 0.3911,-0.0269 0.015,-0.18797 -0.1009,-0.33923 -0.3576,-0.47026 -0.2996,-0.15303 -0.3165,-0.20054 -0.1307,-0.36328 0.1976,-0.173 0.4718,-0.27227 0.7498,-0.27131 0.2555,8.3e-4 0.4443,0.075 0.6449,0.25219 0.2024,0.17865 0.3582,0.15416 0.3582,-0.0563 0,-0.12563 -0.111,-0.23241 -0.3793,-0.36484 -0.251,-0.12382 -0.2901,-0.20581 -0.1918,-0.40204 0.048,-0.0953 0.1143,-0.15342 0.2564,-0.22376 0.3627,-0.17962 0.5992,-0.16773 0.8614,0.0439 0.1797,0.14518 0.2576,0.16546 0.3261,0.0847 0.069,-0.0819 0.01,-0.22596 -0.1592,-0.37673 -0.1879,-0.16857 -0.2031,-0.28199 -0.056,-0.42581 0.1153,-0.11274 0.4028,-0.20567 0.6372,-0.20567 0.099,0 0.1799,-0.0185 0.2046,-0.0475 0.043,-0.0508 0.028,-0.072 -0.1157,-0.1695 -0.059,-0.0395 -0.061,-0.0582 -0.023,-0.17002 0.055,-0.16394 0.2881,-0.45032 0.4206,-0.51728 0.06,-0.0304 0.116,-0.0407 0.1664,-0.0326 z m 0.2305,17.54054 -0.4186,5.36349 c -0.2304,2.95003 -0.094,6.25583 0.3044,7.34684 0.5835,1.59733 3.8769,1.90892 16.9633,1.5937 l 16.2373,-0.39067 v -6.9572 -6.95616 h -16.5432 z m 145.5807,0 -0.4185,5.36349 c -0.2305,2.95003 -0.094,6.25583 0.3043,7.34684 0.5836,1.59733 3.8754,1.90892 16.9618,1.5937 l 16.2388,-0.39067 v -6.9572 -6.95616 h -16.5432 z m -175.089,9.73894 c -12.1585,10e-6 -22.851,0.50643 -23.7608,1.12551 -2.1358,1.45313 -2.1876,15.14879 -0.066,17.3793 2.1069,2.21477 280.4374,2.43904 284.3656,0.22893 2.0462,-1.15125 2.56,-2.94982 2.56,-8.96173 0,-4.13661 -0.6621,-7.95079 -1.4697,-8.47545 -0.8075,-0.52468 -11.4994,-1.03169 -23.7608,-1.12603 -21.8682,-0.16834 -22.3082,-0.11284 -23.0182,2.86236 -1.61,6.74619 -3.6543,7.40215 -22.9811,7.38042 -9.9566,-0.0118 -18.8222,-0.50191 -19.7006,-1.08882 -0.8783,-0.58687 -2.3674,-2.92462 -3.3088,-5.19555 l -1.7115,-4.12894 h -48.6446 -48.6425 l -1.3813,4.39818 c -0.7593,2.4193 -2.2929,4.76699 -3.4091,5.21725 -1.1161,0.45043 -9.9805,0.81855 -19.6954,0.81855 -18.8481,0 -20.9392,-0.68615 -22.5439,-7.40109 -0.7085,-2.96527 -1.2195,-3.03289 -22.8306,-3.03289 z m -196.1968,16.38715 v 28.56673 h 2.6846 c 0.6171,-2.11602 1.3572,-3.58562 2.2211,-4.40851 0.8638,-0.8229 2.1906,-1.23455 3.9801,-1.23455 h 84.2284 c 1.7278,0 3.0238,0.41165 3.8876,1.23455 0.9256,0.82289 1.6658,2.29249 2.2211,4.40851 h 2.7771 v -28.56673 h -2.7771 c -0.5553,2.11602 -1.2955,3.58562 -2.2211,4.40852 -0.8638,0.82289 -2.1598,1.23455 -3.8876,1.23455 h -84.2284 c -1.7278,0 -3.0546,-0.41166 -3.9801,-1.23455 -0.9256,-0.8229 -1.6349,-2.2925 -2.1286,-4.40852 z m 0,40.99801 v 28.56674 h 2.6846 c 0.6171,-2.17481 1.3572,-3.67399 2.2211,-4.49689 0.8638,-0.8229 2.1906,-1.23403 3.9801,-1.23403 h 84.2284 c 1.7278,0 3.0238,0.41113 3.8876,1.23403 0.9256,0.8229 1.6658,2.32208 2.2211,4.49689 h 2.7771 v -28.56674 h -2.7771 c -0.5553,2.11603 -1.2955,3.58562 -2.2211,4.40852 -0.8638,0.76412 -2.1598,1.14618 -3.8876,1.14618 h -84.2284 c -1.7278,0 -3.0546,-0.41165 -3.9801,-1.23455 -0.9256,-0.82289 -1.6349,-2.2629 -2.1286,-4.32015 z m -121.0959,44.88874 c -1.6049,0.15854 -5.8812,3.05361 -10.2945,7.00991 -10.7356,9.62378 -22.5686,15.03929 -52.111,23.85074 -13.1797,3.93102 -28.2936,9.19097 -33.5887,11.68662 -10.6483,5.01868 -22.0416,14.04947 -24.2275,19.20606 -1.8645,4.3985 -0.9428,6.75266 7.5376,19.25309 3.923,5.78274 7.3619,10.51409 7.6429,10.51409 0.281,0 0.4032,-4.73135 0.2693,-10.51409 -0.1518,-6.55455 0.4456,-11.66343 1.5875,-13.56558 1.0616,-1.76834 1.5221,-5.11851 1.096,-7.96799 -0.6221,-4.16035 -0.1867,-5.30396 2.8334,-7.43469 6.0181,-4.24581 17.7766,-8.67743 42.661,-16.08222 21.2686,-6.32886 31.4776,-10.24534 41.0233,-15.73392 2.6089,-1.50006 3.5201,-1.35316 7.3515,1.18752 4.2394,2.81118 5.9044,2.8981 13.8266,0.71417 2.3674,-0.65261 4.1978,1.11249 10.9647,10.5761 11.4285,15.98312 11.8031,16.87732 9.0666,21.62349 -1.2483,2.16515 -2.2701,5.68308 -2.2701,7.82071 0,3.34877 0.5191,3.88813 3.7439,3.88813 2.0585,0 6.2147,-0.6645 9.2361,-1.47639 4.6729,-1.25571 5.4922,-2.00764 5.4922,-5.03536 0,-4.37163 -38.0854,-58.91566 -41.5566,-59.51523 -0.083,-0.0142 -0.1773,-0.0157 -0.2842,-0.005 z m 208.6901,0.35605 c -1.6049,0.15854 -5.8812,3.0531 -10.2945,7.00939 -10.7356,9.62378 -22.5681,15.0393 -52.1105,23.85074 -13.1797,3.93103 -28.2936,9.19098 -33.5887,11.68662 -10.6483,5.01868 -22.042,14.04947 -24.2279,19.20607 -1.8646,4.39849 -0.9429,6.75318 7.5375,19.2536 3.923,5.78274 7.3619,10.51409 7.6429,10.51409 0.281,0 0.4032,-4.73135 0.2693,-10.51409 -0.1518,-6.55455 0.4456,-11.66395 1.5875,-13.56609 1.0616,-1.76834 1.5221,-5.118 1.096,-7.96748 -0.6221,-4.16035 -0.1861,-5.30447 2.8339,-7.4352 6.0181,-4.24582 17.7761,-8.67743 42.6605,-16.08222 21.2686,-6.32887 31.4782,-10.24483 41.0238,-15.73341 2.6089,-1.50006 3.5201,-1.35368 7.3515,1.18701 4.2394,2.81117 5.9039,2.89861 13.8261,0.71468 2.3674,-0.65261 4.1983,1.11249 10.9652,10.5761 11.4285,15.98312 11.8031,16.8768 9.0666,21.62297 -1.2483,2.16516 -2.2701,5.68308 -2.2701,7.82071 0,3.34878 0.5186,3.88814 3.7434,3.88814 2.0585,0 6.2147,-0.66399 9.2361,-1.47588 4.6729,-1.25571 5.4922,-2.00815 5.4922,-5.03587 0,-4.37164 -38.0849,-58.91515 -41.5561,-59.51471 -0.082,-0.0143 -0.1778,-0.0157 -0.2847,-0.005 z m 207.5894,0.83354 c -1.6049,0.15854 -5.8812,3.05361 -10.2945,7.00991 -10.7356,9.62378 -22.5681,15.0393 -52.1105,23.85074 -13.1797,3.93102 -28.2936,9.19046 -33.5887,11.68611 -10.6483,5.01867 -22.0415,14.04998 -24.2274,19.20658 -1.8646,4.39849 -0.9429,6.75266 7.5375,19.25308 3.923,5.78274 7.3619,10.51409 7.6429,10.51409 0.281,0 0.4032,-4.73135 0.2693,-10.51409 -0.1518,-6.55455 0.4456,-11.66343 1.5875,-13.56558 1.0616,-1.76834 1.5221,-5.11851 1.096,-7.96799 -0.6221,-4.16035 -0.1867,-5.30396 2.8334,-7.43468 6.0181,-4.24582 17.7766,-8.67743 42.661,-16.08223 21.2686,-6.32886 31.4777,-10.24534 41.0233,-15.73392 2.6089,-1.50006 3.5201,-1.35316 7.3515,1.18752 4.2394,2.81118 5.9044,2.8981 13.8266,0.71417 2.3674,-0.65261 4.1978,1.11249 10.9647,10.5761 11.4285,15.98313 11.8031,16.87732 9.0666,21.62349 -1.2483,2.16516 -2.2701,5.68308 -2.2701,7.82071 0,3.34878 0.5191,3.88813 3.7439,3.88813 2.0585,0 6.2148,-0.6645 9.2362,-1.47639 4.6728,-1.25571 5.4916,-2.00764 5.4916,-5.03535 0,-4.37164 -38.0849,-58.91566 -41.5561,-59.51523 -0.082,-0.0143 -0.1778,-0.0157 -0.2847,-0.005 z m -455.8745,37.73103 c -7.0318,-0.006 -14.034,2.30862 -19.0583,7.22591 -2.5593,2.50471 -4.654,5.10985 -4.654,5.78931 0,0.67947 2.3978,1.57449 5.3284,1.98903 15.7646,2.2299 23.2708,3.5915 31.6156,5.73247 15.4649,3.96772 16.7235,3.18187 11.4892,-7.15615 -4.2319,-8.35821 -13.6773,-13.11765 -23.3143,-13.54853 -0.4685,-0.0209 -0.9379,-0.0316 -1.4066,-0.032 z m 208.6906,0.35605 c -7.0318,-0.006 -14.034,2.3081 -19.0583,7.2254 -2.5593,2.50471 -4.6545,5.11036 -4.6545,5.78983 0,0.67946 2.3983,1.57397 5.3289,1.9885 15.7647,2.2299 23.2703,3.5915 31.6151,5.73247 15.4649,3.96773 16.724,3.18188 11.4897,-7.15615 -4.2319,-8.3582 -13.6778,-13.11713 -23.3148,-13.54801 -0.4685,-0.0209 -0.9373,-0.0316 -1.4061,-0.032 z m -166.0023,0.0424 c -0.3031,0.009 -0.607,0.033 -0.9105,0.0718 -1.619,0.20701 -3.2267,0.84337 -4.6349,1.98645 -3.2355,2.62618 -3.3527,7.77718 -0.247,10.85515 4.8792,4.83568 14.7004,1.43145 14.7004,-5.0953 0,-4.79315 -4.3609,-7.95356 -8.908,-7.81813 z m 208.6901,0.35605 c -0.3031,0.009 -0.607,0.0325 -0.9105,0.0713 -1.619,0.20701 -3.2262,0.84336 -4.6344,1.98644 -3.2355,2.62619 -3.3527,7.77718 -0.247,10.85515 4.8792,4.83569 14.7004,1.43146 14.7004,-5.09529 0,-4.79316 -4.3614,-7.95305 -8.9085,-7.81762 z m 164.9016,0.43512 c -7.0318,-0.006 -14.034,2.3081 -19.0583,7.2254 -2.5593,2.50471 -4.654,5.11036 -4.654,5.78983 0,0.67947 2.3978,1.57448 5.3284,1.98902 15.7647,2.2299 23.2708,3.5915 31.6156,5.73247 15.4649,3.96772 16.7235,3.18188 11.4892,-7.15615 -4.2319,-8.35821 -13.6778,-13.11765 -23.3148,-13.54853 -0.4685,-0.021 -0.9373,-0.0316 -1.4061,-0.032 z m 42.6883,0.39843 c -0.3031,0.009 -0.607,0.033 -0.9105,0.0718 -1.619,0.20701 -3.2267,0.84336 -4.6349,1.98644 -3.2355,2.62619 -3.3527,7.77667 -0.247,10.85463 4.8792,4.83569 14.7004,1.43198 14.7004,-5.09478 0,-4.79315 -4.3609,-7.95356 -8.908,-7.81812 z m -484.8117,21.12012 c -15.4807,-0.0622 -26.5213,2.58162 -29.1455,6.97942 -0.8282,1.38799 -1.4046,16.77062 -1.4046,37.4835 0,40.24782 -1.8115,36.41172 15.63,33.11788 13.8405,-2.61381 26.0209,-1.62672 51.8635,4.20698 10.941,2.46984 24.369,5.26441 29.8396,6.21047 10.9392,1.8918 24.6639,1.56533 35.312,-0.84129 11.9968,-2.71144 12.2773,-3.68628 12.283,-42.8656 0,-38.09858 0.3237,-37.13688 -11.1926,-33.83205 -3.812,1.09394 -12.2222,1.90624 -20.0618,1.93632 -11.5191,0.0443 -17.5623,-0.85664 -41.2068,-6.1433 -23.6309,-5.28359 -29.7984,-6.20365 -41.9168,-6.25233 z m 208.6901,0.35554 c -15.4807,-0.0622 -26.5213,2.58161 -29.1455,6.97942 -0.8282,1.38798 -1.4041,16.77113 -1.4041,37.48401 0,40.24782 -1.8115,36.41172 15.6301,33.11788 13.8405,-2.61381 26.0208,-1.62723 51.8635,4.20646 10.941,2.46985 24.3684,5.26441 29.839,6.21047 10.9392,1.8918 24.6639,1.56534 35.312,-0.84129 11.9968,-2.71144 12.2778,-3.68576 12.2835,-42.86508 0,-38.09857 0.3237,-37.1374 -11.1926,-33.83256 -3.812,1.09394 -12.2227,1.90675 -20.0623,1.93683 -11.5191,0.0443 -17.5623,-0.85664 -41.2068,-6.14329 -23.6309,-5.2836 -29.7984,-6.20417 -41.9168,-6.25285 z m 207.5894,0.83405 c -15.4807,-0.0622 -26.5213,2.58162 -29.1455,6.97942 -0.8282,1.38799 -1.4041,16.77062 -1.4041,37.4835 0,40.24782 -1.8115,36.41173 15.6301,33.11788 13.8405,-2.61381 26.0208,-1.62672 51.8635,4.20698 10.941,2.46985 24.3689,5.2639 29.8395,6.20995 10.9392,1.8918 24.664,1.56534 35.312,-0.84129 11.9968,-2.71144 12.2773,-3.68576 12.283,-42.86508 0,-38.09857 0.3237,-37.13688 -11.1926,-33.83205 -3.812,1.09394 -12.2227,1.90624 -20.0623,1.93632 -11.5191,0.0443 -17.5618,-0.85664 -41.2063,-6.14329 -23.6309,-5.2836 -29.7989,-6.20366 -41.9173,-6.25234 z m -418.7388,4.51291 c 8.0644,0.0524 24.4507,2.76274 46.3357,7.66413 12.4524,2.78887 28.0058,5.44199 34.5653,5.89421 11.7292,0.80864 11.9575,0.8873 13.8121,4.86844 1.7289,3.71111 3.9406,5.03669 12.5387,7.51479 2.1904,0.6313 2.4867,2.58583 2.4867,16.41605 v 15.70137 l -6.5526,4.91081 c -3.603,2.70125 -7.4456,6.839 -8.5421,9.19272 l -1.9952,4.27881 -10.9926,-0.17467 c -13.24,-0.20904 -12.5905,-0.10458 -40.1107,-6.39444 -12.7126,-2.90544 -27.3051,-5.35872 -34.493,-5.79706 -11.5931,-0.70704 -12.5193,-0.96954 -13.3046,-3.776 -1.0774,-3.85002 -7.0269,-8.07238 -11.373,-8.07238 h -3.3605 v -16.99069 -16.99328 l 5.3283,-3.07888 c 3.3043,-1.91062 6.5534,-5.38137 8.553,-9.13536 2.6923,-5.05445 3.8647,-6.0496 7.1045,-6.02857 z m 208.6906,0.35553 c 8.0644,0.0524 24.4502,2.76275 46.3352,7.66413 12.4525,2.78887 28.0058,5.442 34.5653,5.89422 11.7292,0.80864 11.958,0.88781 13.8126,4.86895 1.7289,3.71111 3.9402,5.03669 12.5382,7.51479 2.1904,0.6313 2.4867,2.58532 2.4867,16.41553 v 15.70137 l -6.552,4.91133 c -3.603,2.70126 -7.4457,6.83848 -8.5422,9.1922 l -1.9957,4.27881 -10.9926,-0.17415 c -13.24,-0.20904 -12.59,-0.10458 -40.1102,-6.39444 -12.7126,-2.90544 -27.3056,-5.35924 -34.4935,-5.79758 -11.5931,-0.70704 -12.5193,-0.96954 -13.3046,-3.776 -1.0774,-3.85001 -7.0269,-8.07186 -11.373,-8.07186 h -3.3605 v -16.99121 -16.99327 l 5.3283,-3.07889 c 3.3043,-1.91061 6.5539,-5.38085 8.5535,-9.13484 2.6923,-5.05445 3.8647,-6.05012 7.1045,-6.02909 z m 207.5894,0.83406 c 8.0644,0.0524 24.4502,2.76275 46.3352,7.66413 12.4524,2.78887 28.0063,5.442 34.5658,5.89421 11.7292,0.80864 11.9575,0.88731 13.8121,4.86844 1.7289,3.71111 3.9407,5.03669 12.5388,7.51479 2.1904,0.6313 2.4861,2.58583 2.4861,16.41605 v 15.70137 l -6.552,4.91081 c -3.603,2.70126 -7.4457,6.83849 -8.5422,9.1922 l -1.9952,4.27881 -10.9931,-0.17415 c -13.24,-0.20904 -12.59,-0.10458 -40.1102,-6.39444 -12.7126,-2.90544 -27.3056,-5.35872 -34.4935,-5.79706 -11.5931,-0.70704 -12.5188,-0.96954 -13.3041,-3.776 -1.0774,-3.85002 -7.0269,-8.07237 -11.373,-8.07237 h -3.361 v -16.9907 -16.99328 l 5.3283,-3.07888 c 3.3043,-1.91062 6.5539,-5.38137 8.5535,-9.13536 2.6923,-5.05445 3.8647,-6.0496 7.1045,-6.02857 z m -371.9892,13.16715 c -0.6591,-0.004 -1.3182,0.0121 -1.9766,0.0501 -8.1929,0.47324 -16.2164,4.24444 -21.2251,11.47734 -9.4662,13.66999 -2.7883,30.89933 14.0509,36.25411 22.3838,7.11799 43.4794,-13.96171 33.5638,-33.54058 -4.7257,-9.3311 -14.5268,-14.17351 -24.413,-14.241 z m 208.6906,0.35605 c -0.659,-0.004 -1.3187,0.0121 -1.9771,0.0501 -8.1929,0.47324 -16.2164,4.24444 -21.2251,11.47734 -9.4661,13.66999 -2.7878,30.89933 14.0514,36.25411 22.3839,7.11799 43.4789,-13.96223 33.5633,-33.5411 -4.7257,-9.3311 -14.5263,-14.17299 -24.4125,-14.24048 z m 207.5894,0.83355 c -0.659,-0.005 -1.3182,0.0121 -1.9766,0.0501 -8.1929,0.47324 -16.2163,4.24444 -21.225,11.47734 -9.4662,13.66999 -2.7884,30.89933 14.0508,36.25412 22.3839,7.11798 43.4794,-13.96172 33.5638,-33.54059 -4.7257,-9.3311 -14.5268,-14.17351 -24.413,-14.24099 z m -416.9053,6.0942 c 1.1723,0 2.1317,0.87514 2.1317,1.94406 0,1.14496 1.7714,2.2598 4.3124,2.7156 4.8565,0.87116 8.2294,4.99241 5.8394,7.136 -1.0255,0.9198 -2.5784,0.68217 -5.0565,-0.77411 -1.9664,-1.15561 -4.6102,-2.10065 -5.8751,-2.10065 -4.0257,0 -1.383,3.10065 4.8147,5.6503 9.6171,3.95635 9.856,10.76892 0.5193,14.7407 -2.4716,1.05141 -4.5068,2.62852 -4.5237,3.5047 -0.017,0.87618 -0.9899,1.59318 -2.1622,1.59318 -1.1722,0 -2.1446,-0.717 -2.1616,-1.59318 -0.017,-0.87618 -2.0521,-2.45329 -4.5237,-3.5047 -5.7039,-2.42643 -8.109,-5.72005 -5.7335,-7.85068 1.3532,-1.21374 2.4371,-0.94606 5.0312,1.23972 3.7294,3.14243 9.5193,3.73804 9.5193,0.97823 0,-0.99572 -1.8387,-2.17386 -4.085,-2.61638 -2.2464,-0.44251 -5.5203,-2.17583 -7.2771,-3.85299 -4.1267,-3.93983 -2.921,-8.91907 2.8779,-11.87835 2.3116,-1.17959 4.2089,-2.8621 4.2131,-3.73827 0,-0.87618 0.9672,-1.59318 2.1394,-1.59318 z m 208.6907,0.35553 c 1.1723,0 2.1311,0.87514 2.1311,1.94407 0,1.14496 1.7719,2.2598 4.3129,2.71559 4.8565,0.87116 8.2289,4.99293 5.8389,7.13652 -1.0255,0.9198 -2.5784,0.68217 -5.0565,-0.77411 -1.9664,-1.15561 -4.6102,-2.10065 -5.8751,-2.10065 -4.0257,0 -1.3825,3.10065 4.8152,5.6503 9.6171,3.95635 9.8555,10.7684 0.5188,14.74019 -2.4716,1.05141 -4.5068,2.62851 -4.5237,3.50469 -0.017,0.87618 -0.9893,1.59319 -2.1616,1.59319 -1.1722,0 -2.1452,-0.71701 -2.1622,-1.59319 -0.017,-0.87618 -2.0521,-2.45328 -4.5237,-3.50469 -5.7039,-2.42644 -8.109,-5.72006 -5.7335,-7.85069 1.3532,-1.21374 2.4376,-0.94606 5.0317,1.23972 3.7294,3.14244 9.5188,3.73804 9.5188,0.97824 0,-0.99572 -1.8387,-2.17335 -4.085,-2.61587 -2.2464,-0.4425 -5.5198,-2.17635 -7.2766,-3.85351 -4.1267,-3.93982 -2.921,-8.91855 2.8779,-11.87782 2.3116,-1.1796 4.2084,-2.86263 4.2126,-3.73879 0,-0.87618 0.9678,-1.59319 2.14,-1.59319 z m 207.5894,0.83406 c 1.1723,0 2.1311,0.87514 2.1311,1.94407 0,1.14495 1.7719,2.25979 4.3129,2.71559 4.8565,0.87116 8.2289,4.99241 5.8389,7.136 -1.0255,0.9198 -2.5784,0.68217 -5.0565,-0.77411 -1.9664,-1.15561 -4.6102,-2.10065 -5.8751,-2.10065 -4.0257,0 -1.3825,3.10065 4.8152,5.6503 9.6171,3.95635 9.8555,10.76892 0.5188,14.7407 -2.4716,1.05141 -4.5063,2.62852 -4.5232,3.5047 -0.017,0.87618 -0.9898,1.59318 -2.1621,1.59318 -1.1722,0 -2.1452,-0.717 -2.1622,-1.59318 -0.017,-0.87618 -2.0516,-2.45329 -4.5232,-3.5047 -5.7039,-2.42643 -8.109,-5.72005 -5.7335,-7.85068 1.3532,-1.21374 2.4371,-0.94606 5.0312,1.23972 3.7294,3.14244 9.5188,3.73804 9.5188,0.97823 0,-0.99572 -1.8387,-2.17385 -4.085,-2.61637 -2.2464,-0.44251 -5.5198,-2.17584 -7.2766,-3.853 -4.1267,-3.93983 -2.921,-8.91907 2.8779,-11.87834 2.3116,-1.1796 4.2084,-2.86262 4.2126,-3.73879 0,-0.87618 0.9678,-1.59267 2.14,-1.59267 z m -461.9532,1.46658 c -0.1326,-0.004 -0.2638,-3e-4 -0.3954,0.0119 -1.0527,0.0975 -2.1226,0.72249 -3.9548,1.94407 -5.3401,3.56042 -6.0999,9.63697 -1.5652,12.51293 3.7926,2.40535 9.4479,1.67366 12.2194,-1.58285 2.988,-3.51085 1.5387,-9.46052 -2.8391,-11.65407 -1.5507,-0.77692 -2.5373,-1.20295 -3.4649,-1.23196 z m 208.6901,0.35605 c -0.1326,-0.004 -0.2638,-3e-4 -0.3954,0.0119 -1.0527,0.0975 -2.1226,0.72249 -3.9548,1.94407 -5.3401,3.56042 -6.0999,9.63697 -1.5652,12.51293 3.7926,2.40535 9.4479,1.67314 12.2194,-1.58337 2.988,-3.51084 1.5387,-9.46052 -2.8391,-11.65406 -1.5507,-0.77692 -2.5373,-1.20244 -3.4649,-1.23145 z m 207.5899,0.83354 c -0.1325,-0.004 -0.2643,-3e-4 -0.3959,0.0119 -1.0527,0.0975 -2.122,0.72249 -3.9542,1.94407 -5.3401,3.56042 -6.1,9.63697 -1.5653,12.51293 3.7926,2.40535 9.4479,1.67366 12.2194,-1.58285 2.988,-3.51084 1.5387,-9.46052 -2.8391,-11.65407 -1.5507,-0.77692 -2.5373,-1.20295 -3.4649,-1.23196 z m -323.5332,12.7217 c -8.194,0 -12.3879,7.69142 -7.0684,12.96355 5.0511,5.00602 14.7004,0.84546 14.7004,-6.3376 0,-4.58782 -2.3484,-6.62595 -7.632,-6.62595 z m 208.6901,0.35605 c -8.194,0 -12.3879,7.6909 -7.0683,12.96304 5.051,5.00601 14.7003,0.84597 14.7003,-6.33709 0,-4.58782 -2.3484,-6.62595 -7.632,-6.62595 z m 207.5899,0.83354 c -8.194,0 -12.3884,7.69142 -7.0689,12.96355 5.0511,5.00602 14.7004,0.84546 14.7004,-6.33759 0,-4.58783 -2.3478,-6.62596 -7.6315,-6.62596 z" /></g></g></g></svg>
