<?xml version="1.0" encoding="UTF-8" standalone="no"?>
<!-- Created with Inkscape (http://www.inkscape.org/) -->

<svg
   width="1000mm"
   height="700mm"
   viewBox="0 0 1000 700"
   version="1.1"
   id="svg5"
   xml:space="preserve"
   inkscape:version="1.2.2 (b0a8486541, 2022-12-01)"
   sodipodi:docname="andrax-network-hacking.svg"
   xmlns:inkscape="http://www.inkscape.org/namespaces/inkscape"
   xmlns:sodipodi="http://sodipodi.sourceforge.net/DTD/sodipodi-0.dtd"
   xmlns:xlink="http://www.w3.org/1999/xlink"
   xmlns="http://www.w3.org/2000/svg"
   xmlns:svg="http://www.w3.org/2000/svg"><sodipodi:namedview
     id="namedview7"
     pagecolor="#505050"
     bordercolor="#ffffff"
     borderopacity="1"
     inkscape:showpageshadow="0"
     inkscape:pageopacity="0"
     inkscape:pagecheckerboard="1"
     inkscape:deskcolor="#505050"
     inkscape:document-units="mm"
     showgrid="false"
     inkscape:zoom="0.16441126"
     inkscape:cx="1891.5979"
     inkscape:cy="1328.9844"
     inkscape:window-width="1366"
     inkscape:window-height="691"
     inkscape:window-x="0"
     inkscape:window-y="24"
     inkscape:window-maximized="1"
     inkscape:current-layer="layer1"
     showguides="true"><sodipodi:guide
       position="499.88826,394.66209"
       orientation="1,0"
       id="guide582"
       inkscape:locked="false" /><sodipodi:guide
       position="375.51723,349.51726"
       orientation="0,-1"
       id="guide3201"
       inkscape:locked="false" /><sodipodi:guide
       position="118.34482,689.75865"
       orientation="0,-1"
       id="guide3412"
       inkscape:locked="false" /><sodipodi:guide
       position="376.57093,9.6199633"
       orientation="0,-1"
       id="guide3436"
       inkscape:locked="false" /><sodipodi:guide
       position="16.092775,487.57539"
       orientation="1,0"
       id="guide3438"
       inkscape:locked="false" /><sodipodi:guide
       position="976.85728,468.5457"
       orientation="1,0"
       id="guide3440"
       inkscape:locked="false" /><sodipodi:guide
       position="256.03447,629.4483"
       orientation="0,-1"
       id="guide577"
       inkscape:locked="false" /></sodipodi:namedview><defs
     id="defs2"><rect
       x="841.08073"
       y="898.16121"
       width="2754.4122"
       height="746.09922"
       id="rect1451" /><rect
       x="2939.5777"
       y="1961.4543"
       width="500.65429"
       height="151.21918"
       id="rect1405" /><rect
       x="3471.8746"
       y="266.99081"
       width="224.05957"
       height="186.51829"
       id="rect581" /><rect
       x="344.64524"
       y="1673.9676"
       width="1935.4048"
       height="224.38053"
       id="rect523" /><rect
       x="1779.2063"
       y="1238.8798"
       width="228.24973"
       height="201.17725"
       id="rect512" /><linearGradient
       id="linearGradient8120"><stop
         style="stop-color:#ff0000;stop-opacity:1;"
         offset="0"
         id="stop8116" /><stop
         style="stop-color:#ff0000;stop-opacity:0;"
         offset="1"
         id="stop8118" /></linearGradient><linearGradient
       xlink:href="#linearGradient8120"
       id="linearGradient8122"
       x1="416.65988"
       y1="552.31458"
       x2="421.72205"
       y2="-225.3533"
       gradientUnits="userSpaceOnUse"
       gradientTransform="matrix(0.59312171,0,0,0.58624652,8.3716843,11.24208)" /><rect
       x="1779.2063"
       y="1238.8798"
       width="228.24973"
       height="201.17725"
       id="rect512-3" /><rect
       x="344.64523"
       y="1673.9677"
       width="1935.4048"
       height="224.38052"
       id="rect523-6" /><rect
       x="3471.8745"
       y="266.99081"
       width="224.05957"
       height="186.5183"
       id="rect581-7" /><rect
       x="2939.5776"
       y="1961.4543"
       width="500.6543"
       height="151.21918"
       id="rect1405-5" /><rect
       x="841.08075"
       y="898.16119"
       width="2754.4121"
       height="746.09924"
       id="rect1451-3" /></defs><g
     inkscape:label="Layer 1"
     inkscape:groupmode="layer"
     id="layer1"><path
       id="path978-3"
       style="fill:#ffffff;stroke-width:1.06468"
       d="m 400.95703,18.537109 c -12.48525,0.2408 -24.33431,7.800792 -30.36914,18.642579 -7.87185,13.85175 -8.01292,31.869655 0.0198,45.683877 2.32563,3.991329 5.342,7.586975 8.90407,10.532919 0.052,10.195906 7.9e-4,20.391926 0.0117,30.587896 21.82283,25.89916 43.64585,51.79816 65.46875,77.69726 0,18.20052 0,36.40104 0,54.60156 -4.45117,0 -8.90235,0 -13.35352,0 0,-19.08854 0,-38.17708 0,-57.26562 -10.92504,-12.9893 -21.84764,-25.9807 -32.76953,-38.97266 -8.72714,-0.0646 -17.45502,-0.0206 -26.18164,-0.15039 -6.68396,-10.23795 -18.51006,-17.13754 -30.81406,-17.22624 -10.41428,-0.0804 -20.51872,5.13967 -27.0535,13.14923 -10.10424,11.80795 -13.18122,29.17231 -7.72148,43.72851 3.63538,10.03319 11.00449,18.88944 20.74478,23.45769 9.82014,4.53047 21.73759,3.83631 31.12909,-1.44061 5.76759,-3.14951 10.68747,-7.82415 14.16048,-13.401 1.99025,0.069 3.9818,0.0165 5.97266,0.0371 2.74544,3.23893 5.49088,6.47786 8.23633,9.7168 0,12.80338 0,25.60677 0,38.41015 -19.1613,0.0917 -38.36468,-0.3773 -57.47915,1.2261 -10.97933,1.36329 -21.49696,6.09593 -29.83713,13.36168 -8.90249,7.55855 -15.45574,17.60922 -19.73043,28.41944 -0.60925,1.41946 -1.161,2.86263 -1.72868,4.29942 -12.6543,-0.27864 -25.3086,-0.55729 -37.96289,-0.83593 -2.44271,-2.88152 -4.88542,-5.76303 -7.32813,-8.64454 0,-4.35026 0,-8.70052 0,-13.05078 11.47423,-9.8862 17.11532,-25.88612 14.82422,-40.80664 -1.68533,-11.54142 -8.09493,-22.51783 -17.89625,-28.99057 -9.04301,-6.02594 -21.07199,-7.61986 -31.20979,-3.50559 -11.25914,4.26389 -19.99839,14.21411 -23.34977,25.71176 -4.43273,13.77838 -1.91251,29.73765 7.04081,41.18976 1.57076,1.94268 3.31929,3.74089 5.20992,5.37394 0.0349,10.59766 0.0716,21.19531 0.10547,31.79297 10.94133,13.00492 21.87989,26.0122 32.81836,39.01953 17.72396,0 35.44792,0 53.17187,0 0,7.13411 0,14.26823 0,21.40234 -15.40364,0 -30.80729,0 -46.21093,0 -21.81582,-25.90685 -43.63115,-51.81411 -65.44727,-77.7207 -8.42773,-0.006 -16.85547,-0.0118 -25.2832,-0.0176 -6.39351,-10.1698 -17.70973,-17.30969 -29.7882,-17.94532 -7.820983,-0.3738 -15.468629,2.69026 -21.689606,7.27564 -8.662784,6.32121 -14.494381,16.23146 -16.157385,26.79474 -2.207753,12.90776 1.224078,26.84686 9.805601,36.83661 7.278701,8.58341 18.764916,13.62044 30.03537,12.51904 10.3396,-0.9082 20.03817,-6.67679 26.04197,-15.10296 0.5062,-0.67893 0.98042,-1.3813 1.43389,-2.0965 1.98568,-0.007 3.97135,-0.0143 5.95703,-0.0215 21.81515,25.89449 43.62992,51.7893 65.44531,77.68359 21.95248,0 43.90495,0 65.85742,0 0,9.8405 0,19.68099 0,29.52148 -22.27734,0 -44.55468,10e-6 -66.83203,0 -21.4906,25.52053 -42.9804,51.04172 -64.4707,76.5625 -1.97721,0 -3.95443,10e-6 -5.93164,0 -6.40057,-10.38934 -18.29922,-17.2422 -30.54396,-17.21619 -8.975247,-0.0817 -17.918649,3.52469 -24.297256,9.84744 -7.856868,7.41932 -12.340339,18.05536 -12.851957,28.79074 -0.812727,9.28069 1.455096,18.80642 6.44,26.68472 5.034201,8.38393 13.264038,15.03897 22.872313,17.28587 10.00964,2.41997 21.03933,-0.0282 29.11439,-6.41188 3.85953,-2.94914 7.13793,-6.63072 9.74694,-10.72093 7.82085,-0.15464 15.6632,0.20412 23.46838,-0.35517 2.77402,-0.58503 4.47437,-3.06615 6.17607,-5.10641 20.2995,-24.10721 40.59901,-48.21441 60.89852,-72.32162 15.40364,0 30.80729,0 46.21093,0 0,7.13346 0,14.26692 0,21.40039 -17.70507,0 -35.41015,0 -53.11523,0 -10.95823,12.98446 -21.917,25.96847 -32.875,38.95312 -0.0163,10.58659 -0.034,21.17318 -0.0508,31.75977 -8.91301,7.7091 -13.9502,19.38958 -14.30023,31.0894 -0.48579,11.47903 3.23035,23.28478 10.97232,31.88254 7.77124,8.44551 19.67956,13.14734 31.12516,11.55018 11.14191,-1.59932 21.08756,-8.87805 26.65474,-18.56545 2.60109,-4.34351 4.38209,-9.16445 5.32731,-14.13441 3.32724,11.51583 9.00453,22.51664 17.35546,31.19727 6.2023,6.48021 13.74357,11.65238 22.0096,15.13626 4.99538,2.29762 10.35077,4.2155 15.92429,4.1111 4.7651,0.0717 9.5307,-0.10408 14.2958,-0.003 110.07603,-0.0224 220.1522,0.022 330.2281,-0.16023 19.09825,-0.20367 38.23989,-0.0495 57.27473,-1.83141 6.81244,-0.90384 13.36163,-3.5674 18.91754,-7.60502 13.09033,-8.77088 22.74686,-22.28464 27.44666,-37.27181 0.39795,-1.21767 0.77029,-2.44398 1.10641,-3.68022 1.91891,10.73835 8.12246,20.72418 17.17001,26.88401 6.32176,4.35969 14.08921,6.76387 21.79001,6.13898 9.9951,-0.68443 19.60066,-5.84013 25.62593,-13.85646 10.60034,-13.23235 12.45111,-32.6193 5.011,-47.78344 -2.42082,-4.95532 -5.80781,-9.46307 -10.03445,-13.01981 -0.0298,-10.59179 -0.061,-21.18359 -0.0898,-31.77539 -10.94133,-13.00491 -21.8799,-26.0122 -32.81836,-39.01953 -17.6823,0 -35.36459,0 -53.04688,0 0.0664,-6.97786 0.13281,-13.95573 0.19922,-20.93359 15.32943,-0.14453 30.65885,-0.28906 45.98828,-0.4336 21.78168,25.89733 43.56515,51.79315 65.3457,77.69141 8.41797,0 16.83594,0 25.25391,0 6.71403,11.04024 19.42693,18.32959 32.41048,17.99151 11.25133,-0.28108 21.94692,-6.62027 28.2032,-15.87614 6.00394,-8.78955 8.19512,-19.75668 7.44614,-30.26978 -0.77493,-10.38884 -5.34884,-20.54735 -13.02935,-27.65474 -6.38109,-5.98031 -14.94504,-9.78329 -23.75151,-9.79661 -9.16744,-0.0776 -18.26826,3.75971 -24.65427,10.3328 -2.19951,2.18657 -4.26117,4.52594 -6.01727,7.08546 -2.07161,-0.005 -4.14323,-0.0104 -6.21484,-0.0156 -21.46485,-25.49349 -42.92966,-50.98701 -64.39453,-76.48047 -22.17709,-0.18282 -44.35417,-0.36591 -66.53125,-0.54883 -0.0892,-9.68359 -0.17839,-19.36719 -0.26758,-29.05078 22.21419,0 44.42838,0 66.64258,0 21.85808,-25.90754 43.71614,-51.81511 65.57422,-77.72266 1.73893,0 3.47786,0 5.21679,0 4.63734,6.79821 11.06245,12.64258 18.8743,15.48995 11.84644,3.89428 25.7214,1.2045 35.00907,-7.1954 7.44057,-6.54732 12.02528,-15.95246 13.50064,-25.68184 1.93061,-12.45879 -1.33849,-25.8202 -9.48948,-35.54044 -6.98373,-8.28664 -17.75798,-13.49917 -28.66723,-13.02836 -12.00767,0.4292 -23.46588,7.45478 -29.54566,17.77836 -7.83963,0.0163 -15.69446,-0.20522 -23.52148,0.2832 -3.2908,0.88533 -5.49919,3.68467 -7.54353,6.21679 -19.97878,23.73656 -39.96505,47.46698 -59.9467,71.20118 -15.4056,0 -30.8112,0 -46.2168,0 0,-7.13346 0,-14.26693 0,-21.40039 17.78125,0 35.5625,0 53.34375,0 10.8766,-13.01527 21.75512,-26.02894 32.63086,-39.04492 0.006,-10.403 0.0131,-20.80599 0.0195,-31.20899 8.84358,-7.53053 14.2317,-18.91189 14.53081,-30.51599 0.23959,-5.89266 -0.29098,-11.86666 -2.00198,-17.5254 -3.95488,-12.40991 -14.36214,-22.70187 -27.02973,-25.9965 -9.22139,-2.51241 -19.52572,-0.75795 -27.32976,4.78251 -9.46697,6.48087 -16.12544,16.96785 -17.83618,28.32647 -0.81106,5.11631 -0.65102,10.35059 0.0775,15.4659 1.07109,6.90751 3.85777,13.58807 8.3177,18.99777 1.77114,2.32263 3.753,4.482 5.89471,6.46719 0.0685,4.50945 0.071,9.01948 0.0898,13.5293 -2.59467,3.01602 -5.16264,6.05923 -7.92188,8.92774 -12.36812,-0.20786 -24.73784,-0.28969 -37.10742,-0.35352 -5.54251,-15.64048 -16.24449,-29.61698 -30.5308,-38.2121 -8.09765,-4.74986 -17.44693,-7.12419 -26.7923,-7.49126 -12.05039,-0.82937 -24.13881,-0.55184 -36.20853,-0.69348 -4.83907,-0.0129 -9.67813,-0.0258 -14.5172,-0.0387 6.6e-4,-13.1595 0.001,-26.31901 0.002,-39.47851 2.40234,-2.8711 4.80468,-5.74219 7.20703,-8.61328 2.16869,0.005 4.33731,0.0207 6.50586,0.0469 4.7244,7.33851 11.68871,13.50805 20.1052,16.16385 10.89809,3.46701 23.57589,1.40012 32.44574,-5.94325 10.0001,-8.04657 15.66578,-20.85635 15.74464,-33.60652 0.17812,-12.14427 -4.60296,-24.49946 -13.63832,-32.75046 -7.73007,-7.1037 -18.7156,-10.8089 -29.14736,-9.03249 -10.28235,1.61633 -19.6331,8.00912 -25.09389,16.83879 -7.9487,0.0649 -15.90992,-0.10306 -23.84652,0.39826 -3.19711,0.51856 -5.55143,3.02123 -7.51776,5.40311 -9.31304,11.10232 -18.69896,22.14331 -28.04001,33.22207 0,19.10938 0,38.21875 0,57.32813 -4.45117,0 -8.90235,0 -13.35352,0 0,-18.20052 0,-36.40105 0,-54.60157 21.8229,-25.8991 43.64592,-51.7981 65.46875,-77.69726 0.0326,-10.22592 0.0679,-20.45182 0.10156,-30.677736 7.86099,-6.823955 13.5635,-16.428596 14.70692,-26.866937 0.88489,-8.382643 0.27246,-17.1762 -3.3925,-24.878548 -3.00385,-6.375576 -7.36923,-12.204256 -13.02088,-16.462268 -11.94904,-8.680388 -29.43737,-8.698867 -41.39035,-0.01575 -8.50066,6.256555 -14.02326,16.032687 -15.99649,26.31549 -1.88922,9.765671 -0.74413,20.292923 4.14951,29.045204 2.71583,4.869636 6.56318,8.96416 10.2316,13.11688 0.43033,0.436111 0.0946,1.164525 0.20047,1.724446 0.002,3.204083 -0.064,6.407661 -0.10742,9.611331 -21.72686,25.9865 -43.49475,51.93865 -65.25586,77.89648 0,24.49675 0,48.99349 0,73.49024 -6.73112,0 -13.46224,0 -20.19336,0 0,-24.49154 0,-48.98308 0,-73.47461 -21.82275,-25.88686 -43.64586,-51.77342 -65.46875,-77.66016 0,-3.92773 0,-7.855468 0,-11.783202 8.28044,-6.944094 13.18401,-17.394702 14.27358,-28.055658 1.46466,-12.483382 -2.1977,-25.707116 -10.66275,-35.118908 -6.90051,-7.594376 -17.20095,-11.964735 -27.45653,-11.655513 z M 499,357.3418 c 6.00006,0.0404 12.12102,1.29255 17.47852,4.14648 9.84888,4.87991 18.54164,12.34023 24.2832,21.76367 1.87551,3.27296 3.04238,6.80628 3.711,10.46346 0.62305,4.06354 1.1687,8.11889 1.57021,12.19459 0.51167,5.29012 0.6416,10.6423 0.0196,15.94742 -6.39023,-2.97222 -13.51551,-4.09263 -20.523,-4.03582 -6.1846,0.21801 -12.24278,2.59526 -16.97236,6.57761 -3.06842,2.4236 -5.81682,5.25131 -8.17847,8.36641 -3.33359,-4.29183 -7.4362,-7.97762 -11.97656,-10.95117 -6.20533,-3.73866 -13.80464,-5.07842 -20.91036,-3.65156 -4.55527,0.69237 -9.04899,1.93678 -13.21659,3.91914 -0.66197,-9.71535 -0.47071,-19.57809 1.42665,-29.14176 1.20729,-5.58166 3.71879,-10.79724 7.47356,-15.11094 4.98017,-5.94537 11.112,-11.03257 17.70916,-14.92894 4.56965,-2.68282 9.69865,-5.07509 15.05274,-5.41211 1.01608,-0.0774 2.03412,-0.12108 3.05273,-0.14648 z m 25.50586,123.93945 c 0.2674,0.53954 -0.84632,0.98219 -0.80067,0.31853 -0.001,-0.39688 0.55093,-0.42773 0.80067,-0.31853 z m -46.48828,28.16211 c 0.61756,0.31067 -0.38619,0.39708 -0.1875,-0.008 0.059,-0.0288 0.1261,0.002 0.1875,0.008 z m 0.55859,24.67383 c 0.27086,0.30439 -1.17537,1.01326 -0.54092,0.21427 0.187,-0.13043 0.28248,-0.36857 0.54092,-0.21427 z m 287.9043,41.10351 c 0,4.41472 0,8.82943 0,13.24414 -5.1975,4.19094 -8.9321,9.96733 -11.38281,16.12891 -0.30965,-6.1945 -1.72807,-12.34977 -4.40078,-17.95919 -3.83564,-8.20282 -10.05995,-15.33615 -17.8668,-19.9705 8.79622,-0.003 17.59245,-0.007 26.38867,-0.01 2.42057,2.85547 4.84115,5.71093 7.26172,8.5664 z m -499.08008,-8.5625 c -10.25909,5.98747 -17.81331,16.25977 -20.77821,27.73319 -0.90282,3.2757 -1.48632,6.63696 -1.78429,10.02072 -2.61113,-6.02965 -6.50231,-11.55093 -11.54101,-15.79492 -0.0556,-4.39785 -0.027,-8.79869 -0.004,-13.19531 0.35366,-0.78568 1.11644,-1.39093 1.63117,-2.10557 1.85992,-2.21937 3.71984,-4.43874 5.57977,-6.65811 8.96549,0 17.93099,0 26.89648,0 z m 94.07227,51.98828 c 0.82818,0.42249 0.32009,0.71113 -0.19141,0.3961 0.0657,-0.19098 -0.16671,-0.86667 0.19141,-0.3961 z" /><g
       id="g317"
       transform="translate(-0.00826105,0.01125883)"><rect
         style="fill:#ffffff;fill-rule:evenodd;stroke:#ffffff;stroke-width:2.045;stroke-linejoin:bevel;paint-order:markers stroke fill"
         id="rect448"
         width="181.37943"
         height="228.62117"
         x="413.728"
         y="336.81851"
         ry="6.1137385" /><path
         id="path978"
         style="fill:#000000;stroke-width:1.06468"
         d="m 401.67395,33.33427 c -14.23456,-0.03616 -24.52735,15.095223 -21.84883,32.11578 1.14298,7.26318 4.58093,13.177602 10.04295,17.274255 l 4.47253,3.353577 0.003,16.246868 v 16.2468 l 32.73639,38.84867 32.73283,38.8486 v 37.41771 37.41765 H 438.31609 416.8191 V 237.76655 204.4326 l -12.44283,-14.80489 -12.44638,-14.80856 h -14.36065 c -13.51598,0 -14.39814,-0.13679 -14.98346,-2.32619 -1.14812,-4.29449 -5.74249,-9.58328 -10.70799,-12.32828 -22.15094,-12.24519 -42.94349,19.46281 -27.13781,41.38402 4.75054,6.58862 10.1554,9.60696 17.32707,9.6718 8.34928,0.0753 16.77024,-5.90737 20.62783,-14.6508 l 1.40754,-3.18846 h 10.94731 10.94731 l 8.08295,9.54339 8.08288,9.54701 v 29.3163 29.31624 l -33.95739,0.0241 c -37.92997,0.0241 -42.98732,0.70252 -53.2621,7.17315 -11.45835,7.21599 -18.10134,17.09865 -24.99481,37.1792 l -1.09789,3.19213 -27.62335,-0.60935 -27.62336,-0.60912 -7.57272,-8.93795 -7.57615,-8.93434 v -13.04731 -13.04744 l 2.68841,-1.65844 c 5.2104,-3.2163 9.99931,-10.16227 11.6546,-16.89998 6.01721,-24.49212 -16.74251,-44.10925 -34.60486,-29.82629 -13.19896,10.55415 -13.21894,34.19466 -0.0317,44.26431 l 4.55696,3.47832 0.0507,16.80458 0.0507,16.80452 12.44638,14.80856 12.44282,14.80489 h 30.55109 30.55109 v 25.5224 25.51878 h -33.96088 -33.96094 l -32.72579,-38.85969 -32.72225,-38.85963 -13.68857,-0.006 -13.68501,-0.0121 -2.2415,-4.65979 c -4.2943,-8.9275 -14.52177,-14.74068 -23.0449,-13.09869 -1.9654,0.37844 -5.853948,2.31558 -8.642455,4.30383 -12.075767,8.61013 -14.225929,28.84006 -4.373964,41.16756 9.887548,12.37198 27.442399,10.59561 35.291039,-3.57009 l 3.01222,-5.43764 10.75372,-0.0627 10.75728,-0.0621 32.72232,38.85963 32.72224,38.86331 h 36.89571 36.89216 v 29.58043 29.58042 H 251.4304 214.04915 l -32.2367,38.27998 -32.23316,38.28354 h -10.93671 -10.93672 l -2.22044,-4.69275 c -5.93881,-12.54414 -22.04952,-16.5815 -32.004432,-8.02066 -6.141525,5.2815 -9.025809,11.32681 -9.624193,20.17648 -0.443999,6.56168 -0.168085,8.36607 2.139506,13.96467 5.720995,13.88181 19.269959,19.21803 30.906479,12.17046 3.90352,-2.36403 9.17334,-8.91722 10.16968,-12.64375 0.60764,-2.27346 1.35198,-2.39597 14.50489,-2.39597 h 13.86445 l 32.72231,-38.85964 32.72573,-38.8633 h 33.96094 33.96094 v 25.5224 25.51872 H 258.2888 227.76581 l -12.47099,14.77554 -12.47448,14.77186 -0.0254,16.83761 -0.0254,16.83754 -3.94468,2.89126 c -9.96957,7.30421 -13.34352,22.95227 -7.74164,35.91703 2.32789,5.38738 5.37309,8.65611 10.76432,11.55773 16.8376,9.06203 35.43831,-8.97519 31.39215,-30.43902 -1.3712,-7.27385 -6.878,-15.74104 -11.81647,-18.16949 l -2.96643,-1.45663 v -13.46565 -13.46564 l 7.55154,-9.01503 7.55155,-9.01502 h 27.62697 27.62684 v 12.18149 12.17775 h -4.24026 c -2.76668,0 -6.30402,1.22185 -10.16961,3.51502 -15.91427,9.4407 -19.65947,32.98432 -9.01896,56.68419 5.87132,13.07733 15.42949,22.40956 28.31308,27.64316 l 0.003,0.003 6.3516,2.57941 199.33877,0.0121 c 216.60341,0.0181 203.67377,0.39832 214.89934,-6.34396 15.80004,-9.49012 26.02826,-29.32799 26.156,-50.73289 0.0444,-7.47289 -0.38754,-10.04506 -2.57583,-15.35525 -4.33705,-10.52359 -13.95344,-18.00799 -23.14029,-18.00799 h -3.78636 v -12.17781 -12.18149 h 27.58466 27.58118 l 7.59733,8.96368 7.59379,8.96362 v 13.51699 13.51705 l -2.80456,1.37594 c -10.06825,4.95085 -15.33916,23.44942 -10.12388,35.52437 7.01887,16.25103 23.94793,20.56992 35.32275,9.01141 11.32281,-11.50585 10.26622,-33.37752 -2.06561,-42.73055 l -4.58867,-3.48205 -0.0507,-16.80452 -0.0507,-16.80459 -12.44638,-14.80488 -12.44283,-14.80856 h -30.56858 -30.57221 l 0.26387,-25.22887 0.26386,-25.23255 33.71109,-0.3007 33.71459,-0.3007 32.72579,38.87066 32.72929,38.87433 h 13.88557 13.88557 l 1.63633,4.10208 c 2.25222,5.63445 7.72565,10.71619 13.82227,12.83454 13.86991,4.81942 27.51997,-6.38404 28.42922,-23.33559 0.48713,-9.08053 -1.00864,-14.61549 -5.56344,-20.61313 -6.07093,-7.99421 -14.54434,-10.78543 -23.63999,-7.78583 -4.16173,1.37251 -11.13582,8.18614 -13.17828,12.87492 l -1.46735,3.36092 h -10.97192 -10.97199 l -32.22611,-38.26521 -32.22255,-38.26896 -37.14905,-0.3007 -37.14904,-0.30432 -0.26069,-29.29057 -0.26006,-29.29057 h 37.3602 37.35664 l 32.7891,-38.86331 32.78561,-38.85963 H 861.67 872.12821 l 1.42866,3.2765 c 2.06035,4.73 8.52853,11.29518 12.76657,12.95566 2.00827,0.78695 6.20965,1.20757 9.33566,0.93929 20.57658,-1.76691 28.3765,-33.19433 11.93261,-48.08382 -10.63943,-9.63366 -26.47537,-6.12913 -33.11994,7.33091 l -2.47727,5.01937 h -13.83635 -13.83984 l -32.72224,38.86331 -32.72231,38.86331 h -33.96443 -33.96094 v -25.5224 -25.51873 h 30.61097 30.60741 l 12.37946,-14.79024 12.37597,-14.79386 0.006,-16.96969 0.0127,-16.96964 2.93478,-1.44198 c 3.52326,-1.7325 8.52795,-8.24176 10.38076,-13.50603 1.71454,-4.87522 1.72824,-15.63275 0.0254,-20.45898 -4.40752,-12.48611 -16.57628,-19.54711 -27.45451,-15.93134 -5.42358,1.8027 -11.68638,8.0265 -14.38178,14.29857 -2.78026,6.46985 -2.78026,17.16657 0,23.63642 2.12771,4.95109 9.33306,13.12445 11.57018,13.12445 0.99545,0 1.29141,3.12893 1.29141,13.71519 v 13.71145 l -8.12513,9.41498 c -5.62281,6.5154 -8.70981,9.28746 -10.01827,8.9967 -1.03998,-0.2314 -13.35347,-0.46099 -27.36299,-0.5098 l -25.46983,-0.088 -1.65034,-6.20813 c -3.57528,-13.46456 -13.77889,-27.36837 -24.78011,-33.76325 -9.79013,-5.69091 -15.41674,-6.38819 -51.85456,-6.40995 l -33.46829,-0.0241 v -29.84461 -29.84461 l 7.5516,-9.01502 7.54805,-9.0187 h 11.4399 c 10.70178,0 11.47751,0.15427 12.07691,2.39591 1.03579,3.87441 6.32623,10.31449 10.63765,12.94831 5.25023,3.20732 14.28714,3.3904 19.45948,0.39652 13.85544,-8.02042 17.69407,-28.6541 7.86475,-42.28661 -9.68908,-13.43793 -27.83514,-12.21289 -35.94555,2.42532 l -3.01222,5.43396 -14.15654,0.0663 -14.15299,0.0621 -12.47454,14.77186 -12.47098,14.77554 v 33.36697 33.36698 h -21.49713 -21.49692 v -37.41724 -37.41771 l 32.73277,-38.84866 32.73632,-38.84861 0.0507,-16.24687 0.0507,-16.24686 4.56399,-3.478316 c 2.66984,-2.035732 5.79083,-5.851389 7.51996,-9.191106 2.51202,-4.852023 2.95583,-6.866242 2.95583,-13.42901 0,-6.569337 -0.4421,-8.569576 -2.95583,-13.395927 -4.42395,-8.494732 -9.8049,-12.489183 -17.62621,-13.080402 -7.94124,-0.600198 -13.36602,1.666152 -18.27367,7.635412 -5.85667,7.123616 -7.9011,17.220201 -5.53521,27.334925 0.93899,4.014397 5.48022,10.280019 12.60469,17.391643 1.92411,1.920634 2.09105,3.090117 1.90019,13.340909 l -0.21121,11.234842 -32.58854,38.88163 -32.58852,38.88537 v 41.44633 41.45006 H 500.36929 475.45192 V 229.66448 188.22544 L 442.71909,149.39516 409.98276,110.56487 V 98.066718 85.566026 l 3.06499,-1.882247 c 12.85974,-7.894534 15.56047,-30.342364 5.13758,-42.715845 -4.2589,-5.047931 -9.80592,-7.609982 -16.51398,-7.62812 z m 195.86204,17.894279 c 1.24992,-0.01205 2.57932,0.35795 3.9025,1.170447 5.19289,3.187919 5.25042,11.935746 0.0983,15.098416 -3.04101,1.866942 -3.57546,1.952994 -5.8977,0.939347 -3.23973,-1.414202 -4.88773,-4.263516 -4.88773,-8.45737 0,-5.252336 3.03479,-8.717576 6.78443,-8.75084 z m -194.61631,0.0039 c 6.58045,1.906955 8.63852,10.316959 3.74761,15.311198 -3.52802,3.602634 -6.01226,3.424865 -9.46588,-0.675103 -3.63768,-4.318533 -3.61231,-7.493557 0.0983,-11.898927 2.38294,-2.829066 3.47334,-3.359181 5.6197,-2.737168 z M 657.58252,175.93842 c 1.98855,-0.1374 4.02416,0.63587 5.47896,2.36295 2.90965,3.45415 2.60684,9.66421 -0.61907,12.67677 -3.41537,3.18937 -6.75285,3.03582 -9.684,-0.44412 -2.93116,-3.47971 -3.05954,-7.44071 -0.37296,-11.4953 1.26882,-1.91497 3.20891,-2.96327 5.19739,-3.10042 z m -315.51523,0.0422 c 7.00193,0 10.15667,9.95069 4.75403,14.99573 -3.41544,3.18937 -6.75285,3.03582 -9.68401,-0.44412 -4.88089,-5.79426 -1.91383,-14.55173 4.92998,-14.55173 z m -130.57241,62.65749 c 5.36415,0.42363 9.61011,8.54667 4.56406,14.53708 -3.07768,3.65344 -7.31793,3.72057 -10.13448,0.1615 -2.82231,-3.56642 -2.76135,-8.9597 0.13701,-12.19246 1.73413,-1.93407 3.64517,-2.64732 5.43316,-2.506 z m 577.1527,0.16149 c 1.29572,-0.17234 2.63913,-0.006 3.91658,0.5761 4.3498,1.98162 4.64531,12.82622 0.42243,15.50939 -4.84574,3.07873 -11.68625,-1.34689 -11.68625,-7.56207 0,-4.44912 3.46028,-8.00608 7.34743,-8.52336 z m -290.8689,65.06087 c 109.633,-0.19946 167.70773,0.0958 170.11776,0.86589 5.62363,1.7977 11.20286,7.23155 13.57242,13.21617 l 2.1149,5.3349 v 128.23569 c 0,140.3779 0.31207,132.6172 -5.67247,140.19338 -4.20861,5.32808 -9.49487,7.63216 -17.59456,7.66114 l -7.14331,0.0241 0.30255,4.35155 0.30256,4.35156 30.06192,0.30432 30.06555,0.30793 -0.59116,3.17376 c -1.94497,10.43585 -6.20692,16.99344 -13.33317,20.51773 -3.23986,1.60234 -24.9142,1.79029 -200.317,1.76854 -189.35913,-0.0241 -196.8284,-0.10425 -200.59149,-2.17216 -6.73261,-3.70044 -12.2141,-12.85033 -12.2141,-20.38565 v -2.9353 h 29.80155 29.80162 v -4.64142 -4.63773 h -7.01672 c -11.48156,0 -19.6235,-6.52493 -22.23593,-17.81727 -0.80928,-3.49476 -1.03471,-39.67761 -0.83047,-132.40906 0.31017,-140.62225 -0.16237,-130.24003 6.27777,-137.88544 6.51176,-7.73039 -8.67644,-7.08807 175.12166,-7.42264 z m -389.93304,5.62108 c 1.84976,0.40254 3.46713,1.96317 4.62736,4.62676 2.05413,4.7156 1.7916,6.62303 -1.42866,10.44598 -2.82485,3.35352 -4.06196,3.81361 -6.91466,2.56838 -5.508638,-2.40459 -6.82313,-11.1206 -2.3119,-15.33325 2.09383,-1.95523 4.17809,-2.71054 6.02786,-2.30787 z m 785.78489,0.29708 c 0.8906,-0.0181 1.80682,0.19284 2.71309,0.63841 2.81438,1.38395 5.14462,5.37858 5.14462,8.81688 0,0.89144 -0.99006,2.91193 -2.19932,4.491 -2.82675,3.69128 -5.48853,4.53789 -8.54743,2.7115 -3.68589,-2.20073 -5.31467,-6.98002 -3.71945,-10.91933 1.46958,-3.62909 3.93682,-5.68874 6.60849,-5.73846 z m -392.84318,2.29679 c -1.86004,-0.4387 -3.84262,1.06137 -3.84262,3.5737 0,1.44572 0.29621,2.97593 0.65451,3.40131 0.35838,0.42544 1.64654,0.77417 2.86437,0.77417 2.82174,0 4.12507,-4.18524 2.06561,-6.63014 -0.51504,-0.61117 -1.12186,-0.97273 -1.74187,-1.11904 z M 336.69388,327.94433 V 451.48727 575.03021 H 499.87595 663.06148 V 451.48727 327.94439 H 499.87595 Z m 164.45241,14.6141 c 5.90925,0.2079 11.87914,1.3091 16.72533,3.26186 18.74557,7.55357 34.69041,23.15969 39.72137,38.87801 1.95385,6.10448 3.84611,21.34295 3.84611,30.96739 0,6.68365 -3.35733,28.458 -5.50001,35.66749 -1.35648,4.56428 -1.33016,4.71891 1.30904,7.21714 2.59289,2.45443 2.65372,2.74717 1.55184,7.60607 -2.34666,10.34715 -5.15794,16.02276 -10.13092,20.45904 l -4.83497,4.31486 0.54168,11.01839 c 0.47254,9.58997 0.29431,11.54695 -1.38997,15.08004 -1.06458,2.23309 -4.08866,9.27969 -6.71758,15.65987 -5.24,12.71696 -11.94052,21.39085 -19.98738,25.86359 -4.89452,2.72036 -20.21947,4.11733 -27.12366,2.47299 -4.72206,-1.12465 -12.3572,-6.81412 -17.34116,-12.91896 -1.71371,-2.09919 -6.20546,-11.08975 -9.97964,-19.97841 l -6.86182,-16.15876 0.61208,-10.22952 c 0.66651,-11.14742 0.58418,-11.0375 7.06238,-9.49934 2.36715,0.56223 2.95203,1.20154 2.53365,2.76651 -1.09211,4.08497 1.17406,11.40383 4.7787,15.43962 2.59746,2.90831 3.55155,3.46036 3.60686,2.08044 0.0444,-1.03239 0.15287,-3.57317 0.24611,-5.6468 0.0932,-2.07358 -0.13637,-3.77191 -0.5106,-3.77185 -0.3736,6e-5 -0.8143,-2.4804 -0.97826,-5.51103 l -0.29938,-5.5073 -7.32637,-0.94664 c -10.71669,-1.38016 -10.97763,-1.48278 -15.30016,-6.26689 -2.55432,-2.82702 -4.6958,-6.74241 -6.02792,-11.01098 -3.5605,-11.40937 -3.5879,-12.09195 -0.60194,-15.37731 2.42481,-2.6678 2.57304,-3.2668 1.50611,-6.04669 -2.6045,-6.78598 -5.27129,-26.5152 -5.22555,-38.6542 0.0571,-14.71438 1.35635,-23.70313 4.68013,-32.35797 5.5146,-14.3595 23.72713,-30.67356 41.05148,-36.7719 4.60421,-1.62071 10.45371,-2.30636 16.36296,-2.09876 z m -29.66436,89.95583 c -2.09396,0.20609 -4.45845,0.72048 -7.25247,1.50068 -7.22235,2.01669 -9.92015,5.53357 -10.82413,14.12243 -0.79743,7.57684 0.95358,17.5623 3.6843,21.01302 3.40389,4.30142 11.85688,3.72189 20.88116,-1.43096 7.30462,-4.17095 9.98999,-7.39165 11.98539,-14.37558 1.86441,-6.52553 1.3873,-8.84744 -2.72362,-13.25655 -5.63106,-6.0394 -9.46867,-8.19138 -15.75063,-7.57304 z m 53.64921,0.088 c -4.02118,0.39471 -6.93559,2.45015 -11.63,7.485 -4.11099,4.40911 -4.58803,6.73096 -2.72361,13.25655 2.03808,7.13331 4.83559,10.5222 11.98183,14.504 7.26769,4.04947 15.32182,5.20117 19.18855,2.74452 3.55783,-2.26045 5.2383,-8.02892 5.28188,-18.15111 0.0317,-7.86254 -0.31207,-10.04271 -2.00929,-12.75753 -2.39848,-3.83632 -7.35554,-6.05452 -15.59222,-6.97133 -1.69291,-0.18862 -3.15677,-0.24165 -4.49714,-0.11028 z m -27.13781,29.90698 c -1.91516,0 -7.04558,8.97525 -8.49815,14.86732 -1.71378,6.95181 -1.20343,11.14512 1.82985,15.00302 2.36594,3.00907 3.03194,3.1746 4.46898,1.11904 2.35395,-3.36743 4.31434,-30.98938 2.19932,-30.98938 z m 4.72941,0 c -2.10265,0 -0.12558,27.639 2.21696,30.98938 1.45904,2.08708 2.09466,1.894 4.7258,-1.43095 4.17974,-5.28174 2.59632,-17.38387 -3.37459,-25.79026 -1.47281,-2.07351 -3.0785,-3.76817 -3.56817,-3.76817 z m 39.02816,28.30356 c -0.39072,-0.097 -2.03612,0.0422 -5.22911,0.33746 -3.76207,0.35072 -7.37912,1.23239 -8.03713,1.95932 -0.65807,0.72693 -1.31931,4.70927 -1.46741,8.84991 -0.18839,5.27409 -0.63302,7.44221 -1.48848,7.2392 -0.75131,-0.17838 -1.19943,0.93657 -1.16125,2.8986 0.0634,3.17515 0.0679,3.17726 0.98879,0.44774 0.7026,-2.08304 1.22873,-2.43876 2.19583,-1.48597 0.95663,0.94254 2.0481,0.41279 4.38802,-2.12444 2.98311,-3.23456 3.3012,-4.41127 3.53297,-13.07672 0.0507,-2.01639 0.96037,-2.92109 3.97988,-3.97734 1.82459,-0.63828 2.68861,-0.97038 2.29789,-1.06776 z m -18.45665,14.7242 c -0.62287,0.23622 -1.47827,0.99436 -2.40692,2.21253 -0.97274,1.27603 -2.47168,2.37277 -3.32892,2.43623 -0.85724,0.0633 -0.45668,0.5315 0.88679,1.04203 1.34361,0.51101 2.59873,0.98225 2.79048,1.04571 0.19219,0.0639 0.0786,-0.71572 -0.24991,-1.73178 -0.39833,-1.23246 0.0571,-2.04911 1.36181,-2.45467 1.07708,-0.33444 1.96006,-1.06914 1.96006,-1.63276 0,-0.86643 -0.39071,-1.15316 -1.01346,-0.91729 z m -46.10115,0.0916 c -0.62985,-0.26334 -0.76711,0.0609 -0.76711,0.82558 0,0.56343 0.94496,1.3179 2.10076,1.67681 1.93742,0.60141 1.98943,0.85987 0.67919,3.32417 -0.78182,1.47019 -1.25494,3.58733 -1.05215,4.70384 0.20297,1.11652 0.79203,2.02905 1.30903,2.02905 0.58418,0 0.56642,-0.83251 -0.0507,-2.19784 -0.99443,-2.20584 0.56324,-5.08179 2.52655,-4.6634 2.51138,0.53511 2.19056,-0.40797 -1.02399,-2.99774 -1.97047,-1.58745 -3.09309,-2.43731 -3.723,-2.70047 z m -1.65384,3.7939 c -0.48713,0.35735 -0.65394,1.69291 -0.37296,2.96833 0.70311,3.1919 1.25976,2.90494 1.25976,-0.64943 0,-1.63271 -0.3996,-2.67636 -0.88673,-2.3189 z m 36.95198,3.61409 c -0.48713,0.35735 -0.8868,1.40317 -0.8868,2.32257 0,2.40098 0.66308,2.05556 1.25982,-0.6531 0.28099,-1.27693 0.11417,-2.02688 -0.37296,-1.66947 z m -4.87721,0.34831 c -0.12242,-0.0422 -0.27464,0.0362 -0.4643,0.21995 -0.59115,0.58212 -0.88216,2.63454 -0.64399,4.56072 0.57784,4.67395 0.91166,4.41537 1.35129,-1.05673 0.19409,-2.4161 0.12368,-3.59938 -0.24294,-3.72412 z m 14.71604,0.16511 c -0.92402,0 -1.90254,4.2881 -1.17533,5.15146 0.84132,0.9987 0.93608,0.84986 1.43571,-2.25285 0.25688,-1.59505 0.13954,-2.89861 -0.26006,-2.89861 z m -28.53476,1.15954 c -0.41736,0 -0.75657,2.08569 -0.75657,4.63774 0,2.55204 0.17125,4.64141 0.38374,4.64141 0.21248,0 0.555,-2.08937 0.76006,-4.64141 0.20488,-2.55205 0.0317,-4.63774 -0.38691,-4.63774 z m 6.5698,0.38507 c -0.58545,1.8e-4 -0.97477,4.57669 -0.97477,11.40726 0,6.83111 0.38945,11.40394 0.97477,11.40364 0.58544,-3e-4 0.97819,-4.57693 0.97819,-11.40726 0,-6.83093 -0.39326,-11.40388 -0.97819,-11.40364 z m 25.95189,0.77417 c -0.56896,0 -1.03459,0.52125 -1.03459,1.15942 0,0.63804 0.196,1.15948 0.43259,1.15948 0.23722,0 0.7024,-0.52126 1.03458,-1.15948 0.33236,-0.63798 0.13637,-1.15942 -0.43258,-1.15942 z m -39.64395,6.46864 c -0.21692,-0.13257 -0.55436,-0.1145 -0.97476,0.0771 -2.10627,0.95954 -1.83156,1.49128 1.72075,3.32423 3.82949,1.97596 4.36356,2.04465 5.09185,0.64576 0.31079,-0.59658 -0.87525,-1.24843 -2.63216,-1.44928 -1.85763,-0.21211 -3.09468,-0.95688 -2.95938,-1.77588 0.0672,-0.40737 -0.0317,-0.68933 -0.2461,-0.8219 z m 27.28199,0.0482 c -0.25435,0.18078 -0.3977,0.54295 -0.3977,1.06041 0,1.18081 -1.12338,1.72665 -3.66312,1.78318 -2.8232,0.0627 -3.21595,0.29226 -1.71022,0.9943 1.96102,0.9144 6.91136,-0.49715 7.81198,-2.22712 0.26449,-0.5086 -0.17507,-1.22293 -0.97826,-1.58872 -0.44337,-0.20187 -0.80859,-0.20308 -1.06274,-0.0241 z m -8.7022,5.08541 c -0.15603,0 -0.444,2.00126 -0.64044,4.44695 -0.20297,2.52921 0.073,4.44333 0.64044,4.44333 0.56769,0 0.84347,-1.91412 0.64044,-4.44333 -0.19663,-2.44569 -0.48459,-4.44695 -0.64044,-4.44695 z m -9.71921,0.46582 c -0.20233,0.0542 -0.44273,1.46916 -0.80579,4.27087 -0.35837,2.76609 -0.15604,4.15341 0.60511,4.15341 0.73976,0 1.01568,-1.59118 0.78118,-4.50932 -0.21312,-2.65394 -0.37803,-3.96685 -0.58037,-3.91496 z m -5.07776,1.73913 c -0.0882,0.25912 -0.14779,0.89589 -0.15858,1.8529 -0.019,1.91406 0.18268,2.83641 0.45035,2.05103 0.26767,-0.78537 0.28289,-2.34963 0.0317,-3.47831 -0.12368,-0.56404 -0.23912,-0.68444 -0.32729,-0.42544 z m 19.66714,0.28985 c -0.21249,0.0783 -0.41482,1.13363 -0.6686,3.18479 -0.27592,2.23393 -0.0317,3.1843 0.72137,2.83991 0.62604,-0.28503 0.93107,-1.79589 0.67913,-3.36093 -0.29748,-1.84742 -0.51948,-2.74229 -0.7319,-2.66377 z M 106.6105,542.551 c 6.62554,0 9.4542,10.23777 4.24729,15.36995 -2.82485,2.78429 -6.11469,2.54192 -9.26874,-0.67884 -5.3559,-5.46915 -2.203631,-14.69111 5.02145,-14.69111 z m 787.62881,0.21272 c 6.86867,0.68932 9.26253,8.99706 4.29303,14.8966 -5.09387,6.04712 -14.35938,-1.58522 -11.7637,-9.69018 1.30035,-4.06026 3.51198,-5.60378 7.47067,-5.20642 z m -523.34517,56.62905 v 3.86362 c 0,2.12667 0.29304,4.21609 0.65096,4.64142 0.35837,0.42544 58.40215,0.77417 128.98536,0.77417 h 128.33082 v -4.64141 -4.6378 H 499.87595 Z m 417.75344,13.93532 c 1.72557,-0.12655 3.54445,0.55139 5.16929,2.34825 3.20029,3.53815 3.20771,9.77509 0.019,13.00706 -3.12468,3.16568 -8.0889,2.62737 -10.58837,-1.14477 -4.12767,-6.22959 0.22517,-13.83156 5.40157,-14.21054 z m -577.2512,0.11028 c 1.6277,0.0747 3.19698,0.98261 4.66256,2.72252 3.07768,3.65362 3.13527,8.68371 0.13701,12.02741 -2.87839,3.21015 -7.82968,3.30922 -10.44414,0.20549 -2.90965,-3.45415 -2.60329,-9.66428 0.62287,-12.67684 1.70769,-1.59468 3.39374,-2.35294 5.02144,-2.27852 z m 248.28316,3.35364 0.30953,2.60869 c 0.1941,1.62071 1.60988,3.37834 3.73353,4.63779 3.05339,1.81072 6.96255,2.03152 36.4488,2.03266 27.54939,0.002 33.49814,-0.28865 35.87874,-1.75015 2.96972,-1.82313 5.24864,-5.52713 4.18044,-6.7952 -0.33934,-0.40314 -18.60082,-0.73391 -40.58348,-0.73391 z" /></g></g></svg>
