<?xml version="1.0" encoding="UTF-8" standalone="no"?>
<!-- Created with Inkscape (http://www.inkscape.org/) -->

<svg
   width="1000mm"
   height="700mm"
   viewBox="0 0 1000 700"
   version="1.1"
   id="svg5"
   xml:space="preserve"
   inkscape:version="1.2.2 (b0a8486541, 2022-12-01)"
   sodipodi:docname="andrax-modern-phreaking.svg"
   xmlns:inkscape="http://www.inkscape.org/namespaces/inkscape"
   xmlns:sodipodi="http://sodipodi.sourceforge.net/DTD/sodipodi-0.dtd"
   xmlns:xlink="http://www.w3.org/1999/xlink"
   xmlns="http://www.w3.org/2000/svg"
   xmlns:svg="http://www.w3.org/2000/svg"><sodipodi:namedview
     id="namedview7"
     pagecolor="#505050"
     bordercolor="#ffffff"
     borderopacity="1"
     inkscape:showpageshadow="0"
     inkscape:pageopacity="0"
     inkscape:pagecheckerboard="1"
     inkscape:deskcolor="#505050"
     inkscape:document-units="mm"
     showgrid="false"
     inkscape:zoom="0.16441126"
     inkscape:cx="1882.4745"
     inkscape:cy="1335.0667"
     inkscape:window-width="1366"
     inkscape:window-height="691"
     inkscape:window-x="0"
     inkscape:window-y="24"
     inkscape:window-maximized="1"
     inkscape:current-layer="layer1"
     showguides="true"><sodipodi:guide
       position="499.88826,394.66209"
       orientation="1,0"
       id="guide582"
       inkscape:locked="false" /><sodipodi:guide
       position="375.51723,349.51726"
       orientation="0,-1"
       id="guide3201"
       inkscape:locked="false" /><sodipodi:guide
       position="118.34482,689.75865"
       orientation="0,-1"
       id="guide3412"
       inkscape:locked="false" /><sodipodi:guide
       position="376.57093,9.6199633"
       orientation="0,-1"
       id="guide3436"
       inkscape:locked="false" /><sodipodi:guide
       position="16.092775,487.57539"
       orientation="1,0"
       id="guide3438"
       inkscape:locked="false" /><sodipodi:guide
       position="976.85728,468.5457"
       orientation="1,0"
       id="guide3440"
       inkscape:locked="false" /></sodipodi:namedview><defs
     id="defs2"><linearGradient
       id="linearGradient8120"><stop
         style="stop-color:#ff0000;stop-opacity:1;"
         offset="0"
         id="stop8116" /><stop
         style="stop-color:#ff0000;stop-opacity:0;"
         offset="1"
         id="stop8118" /></linearGradient><linearGradient
       xlink:href="#linearGradient8120"
       id="linearGradient8122"
       x1="416.65988"
       y1="552.31458"
       x2="421.72205"
       y2="-225.3533"
       gradientUnits="userSpaceOnUse"
       gradientTransform="matrix(0.59312171,0,0,0.58624652,8.3716843,11.24208)" /></defs><g
     inkscape:label="Layer 1"
     inkscape:groupmode="layer"
     id="layer1"><g
       id="g552"><rect
         style="fill:#ffffff;fill-rule:evenodd;stroke-width:2.045;stroke-linejoin:bevel;paint-order:markers stroke fill"
         id="rect523"
         width="114.03348"
         height="48.331116"
         x="392.3483"
         y="301.77469"
         ry="2.6790493" /><path
         id="path315"
         style="fill:#000000;fill-rule:evenodd;stroke-width:12.4383;stroke-linejoin:bevel;paint-order:markers stroke fill"
         d="m 449.49609,64.484375 c -8.68399,0.435449 -16.93697,3.494038 -24.9535,6.63081 -20.62533,8.47251 -39.09855,21.723078 -54.63761,37.634375 -9.29307,9.59018 -17.59941,20.21948 -24.03883,31.94148 -4.47457,8.53656 -8.29725,17.39996 -11.85597,26.3513 -0.92394,2.48002 -1.90395,4.99653 -2.20627,7.63848 -0.0218,2.28839 2.02164,4.50237 4.3867,4.2402 2.41865,-0.0727 4.61024,-1.2337 6.90705,-1.86118 22.02851,-7.41232 44.22607,-14.28079 66.39796,-21.23174 6.91748,-2.1608 13.83495,-4.3216 20.75243,-6.4824 11.76602,0.12491 23.54058,-0.11187 35.29942,0.38361 9.39415,0.69587 18.45041,3.55709 27.43234,6.23649 11.62378,3.57775 23.16098,7.45554 34.71744,11.21788 10.87543,3.55315 21.70255,7.27927 32.72913,10.34335 1.53494,0.33161 3.19341,0.93477 4.74354,0.38313 1.86829,-0.7416 2.90789,-2.90653 2.48658,-4.84379 -0.34696,-3.18886 -1.72896,-6.12809 -2.76485,-9.12886 -3.26138,-8.42189 -7.14466,-16.5978 -11.43755,-24.54027 -9.33698,-16.6276 -22.10061,-31.21599 -36.79394,-43.319115 -14.16088,-11.593392 -30.20271,-20.845194 -47.20697,-27.579378 -6.35206,-2.452407 -13.09492,-4.25343 -19.9571,-4.014372 z" /><path
         id="path388"
         style="fill:#ffffff;fill-rule:evenodd;stroke-width:12.4383;stroke-linejoin:bevel;paint-order:markers stroke fill"
         d="m 482.81055,211.01562 c -2.46734,0.10242 -4.18186,2.73813 -3.79702,5.06867 -0.57483,12.9329 -0.69225,25.8888 -2.12697,38.75947 -0.15596,1.5063 -0.71975,2.93149 -0.95492,4.41601 -0.1602,2.91313 1.84201,5.36851 3.8509,7.24353 2.18228,2.00191 4.49444,3.92155 6.13808,6.41949 3.87041,5.41986 5.71948,12.33567 5.17118,18.89362 -0.44938,5.76448 -2.66868,11.53469 -6.31446,16.11328 -1.57078,2.13943 -3.64972,3.86892 -5.12109,6.08008 -1.30047,2.53711 1.24302,5.88544 4.0332,5.39062 1.54099,-0.32238 3.00769,-0.92825 4.52149,-1.35937 4.15499,-1.35987 8.124,-3.26477 11.76827,-5.68057 9.80026,-6.29442 17.96571,-14.96643 24.22148,-24.75431 3.73121,-5.9301 6.49033,-12.51163 7.71675,-19.42678 1.61454,-7.74471 2.07975,-15.65452 3.70127,-23.39196 0.69173,-3.37485 1.79768,-6.68912 3.58861,-9.64658 0.7683,-1.41461 1.56106,-3.15082 0.7458,-4.7248 -0.6991,-1.57637 -2.36802,-2.41333 -3.99087,-2.68889 -17.51442,-5.57613 -35.01068,-11.21742 -52.55209,-16.70369 -0.19981,-0.0172 -0.39941,-0.0181 -0.59961,-0.008 z" /><path
         id="path386"
         style="fill:#ffffff;fill-rule:evenodd;stroke-width:12.4383;stroke-linejoin:bevel;paint-order:markers stroke fill"
         d="m 418.05469,210.48828 c -6.525,1.80536 -12.87891,4.14794 -19.34612,6.1308 -10.50205,3.41984 -21.06275,6.67293 -31.5113,10.24811 -2.02905,1.21983 -2.43098,3.88117 -2.03711,6.03515 0.86861,12.81563 1.01112,25.77724 3.573,38.42178 1.63246,7.51073 4.70975,14.75953 9.39479,20.88295 5.31588,7.28217 11.71028,13.88584 19.36336,18.72297 6.40157,4.12069 13.37333,7.33087 20.58575,9.74491 2.49121,0.76289 5.55196,0.99692 7.65536,-0.82339 1.97426,-1.82341 1.88521,-5.23613 -0.0377,-7.06613 -2.25483,-2.72368 -5.24159,-4.81483 -7.07173,-7.89204 -4.14782,-6.34991 -5.4442,-14.32219 -4.07241,-21.75129 1.04841,-5.52901 3.84835,-10.88563 8.43413,-14.27596 2.12061,-1.65124 4.23873,-3.84038 4.37754,-6.68248 0.2585,-3.37294 -1.81341,-6.35095 -2.00774,-9.66265 -1.47411,-10.64259 -0.82186,-21.52445 -1.38147,-32.28106 -0.237,-2.74956 -0.24129,-5.80681 -2.06108,-8.06296 -0.95283,-1.08969 -2.39611,-1.78323 -3.85729,-1.68871 z" /><path
         id="path390"
         style="fill:#ffffff;fill-rule:evenodd;stroke-width:12.4383;stroke-linejoin:bevel;paint-order:markers stroke fill"
         d="m 460.59961,380.89258 c -9.03331,0.0181 -18.06939,-0.0471 -27.10098,0.0315 -1.48905,0.28695 -2.18148,1.98375 -1.91468,3.35793 0.0162,7.16654 -0.0427,14.33729 0.041,21.50117 0.33311,1.44901 1.97923,2.13945 3.34258,1.87112 10.38789,-0.0164 20.77999,0.0431 31.16523,-0.041 1.44909,-0.33486 2.13704,-1.98096 1.86918,-3.34453 -0.0162,-7.16849 0.0427,-14.3412 -0.041,-21.50703 -0.32902,-1.37079 -1.82589,-2.09642 -3.15272,-1.89649 -1.40287,0.009 -2.80574,0.0182 -4.20861,0.0274 z" /><path
         id="path392"
         style="fill:#ffffff;fill-rule:evenodd;stroke-width:12.4383;stroke-linejoin:bevel;paint-order:markers stroke fill"
         d="m 527.01172,422.16211 c -2.11136,0.29956 -3.24353,2.35773 -4.03125,4.11914 -1.32502,3.29003 -2.46605,6.96515 -1.53906,10.51172 0.70842,2.61092 2.48272,4.88408 2.98242,7.50976 0.82939,3.70995 0.93038,7.5463 1.14945,11.29463 0.60805,12.8304 0.62108,25.67861 0.85021,38.51906 0.13626,8.6521 0.20412,17.30931 0.41049,25.9578 0.35354,1.4334 1.98766,2.1039 3.34258,1.83987 9.54304,-0.012 19.08866,0.0338 28.63008,-0.0332 1.42213,-0.2774 2.05321,-1.80625 2.14335,-3.1081 1.31271,-6.49548 2.55696,-13.03539 4.70518,-19.32607 1.90315,-6.06085 4.27865,-11.96885 7.33502,-17.52392 5.63067,-10.68562 11.94784,-21.03793 18.63566,-31.06763 3.1812,-4.75988 6.73421,-9.25487 10.02672,-13.93495 0.58975,-0.99456 1.39463,-1.98029 1.50954,-3.16081 0.002,-1.85847 -1.79308,-3.00642 -3.37066,-3.53058 -4.44883,-1.71422 -9.21581,-2.31011 -13.89203,-3.0823 -13.41855,-1.99281 -27.00712,-2.49566 -40.5207,-3.25947 -5.61251,-0.35132 -11.24017,-0.67762 -16.8108,-1.45547 -0.51105,-0.11836 -1.02476,-0.30175 -1.5562,-0.26945 z" /><g
         id="g322"
         transform="matrix(0.95904145,0,0,0.97811563,20.468528,7.6869486)"><path
           id="path1004-3"
           style="fill:#ffffff;stroke-width:1.32206"
           d="m 442.78711,-1.671875 c -13.58398,0.3293798 -26.825,4.0989521 -39.42383,8.96875 -28.73275,10.664811 -55.152,27.440922 -77.13212,48.791444 -18.58465,17.665652 -34.63772,38.244921 -45.76193,61.419131 -8.02653,16.9132 -14.40444,34.67931 -18.08299,53.05945 -3.24197,17.39097 -3.18247,35.15839 -3.29336,52.78466 0.004,15.32643 -0.13854,30.67197 0.83707,45.97485 0.72269,10.01252 2.78857,19.90156 5.88653,29.44191 6.91013,21.42161 17.6476,41.68103 32.03247,59.03359 2.46459,2.96936 5.02597,5.85872 7.69988,8.64145 -16.27626,1.98898 -32.37558,6.33825 -46.98768,13.86807 -14.27731,7.19674 -27.08795,17.04278 -38.57617,28.10864 -0.85113,0.46318 -1.88486,0.24036 -2.80564,0.4778 -9.68671,1.18101 -19.42628,3.65423 -27.77566,8.86963 -11.55326,7.03595 -20.56623,18.50212 -23.81436,31.71501 -2.25273,9.59042 -1.81423,19.50946 -2.02991,29.28506 -0.25049,34.67583 -0.11787,69.35666 0.6184,104.02603 0.28232,7.90433 0.5644,16.02944 3.56839,23.4596 0.47628,1.30638 1.1575,2.55948 1.66463,3.82881 -1.7574,20.10369 -4.8963,40.14186 -5.15582,60.36584 0.30132,8.10801 3.60583,16.32686 9.87673,21.64231 9.27439,8.12736 23.42249,9.96777 34.53529,4.68373 8.52518,-3.92096 15.18479,-12.00327 16.83049,-21.29983 1.78551,-8.49145 2.49829,-17.15601 3.64226,-25.7468 0.37919,-3.19294 0.75838,-6.38588 1.13756,-9.57882 13.37481,0.15529 26.74763,0.44125 40.11914,0.77148 -2.06412,7.26891 -4.31811,14.4879 -6.17216,21.81241 -1.34428,7.45252 -0.84403,15.41073 2.37124,22.3395 4.9712,10.17974 16.17612,17.02141 27.53022,16.53011 14.99144,0.0504 29.98085,-0.26566 44.9717,-0.34027 21.38371,-0.22359 42.7694,-0.39161 64.15057,-0.76362 12.28015,-1.60384 22.84896,-11.60294 25.39984,-23.67982 1.69125,-7.62139 0.42128,-15.58811 -1.88018,-22.9217 -1.25493,-4.38358 -2.55073,-8.75507 -3.84583,-13.127 20.41212,-0.13055 40.88945,0.3011 61.21785,-1.88318 10.82033,-1.64637 21.07305,-6.85333 28.7896,-14.59432 8.19819,-7.78464 13.96326,-18.26587 15.58195,-29.48426 0.47168,-2.69564 0.75377,-5.42176 0.9145,-8.15347 10.55925,0.007 21.11849,0.0143 31.67774,0.0215 0.22914,32.66537 0.45848,65.33073 0.6875,97.9961 6.89167,4.17989 12.73619,10.09612 20.3125,13.11328 10.16425,3.9146 22.18752,1.65926 30.65285,-5.05466 4.01531,-2.97741 8.03175,-5.95332 12.04636,-8.93167 0,-32.38867 0,-64.77735 0,-97.16602 13.46599,-0.02 26.93586,0.0493 40.39649,-0.39648 -2.23961,5.20381 -2.62684,11.03431 -1.8586,16.60115 0.75683,7.777 1.79908,15.5239 2.61683,23.29489 1.89085,16.42034 3.74472,32.84659 5.75153,49.2524 3.05231,11.04857 12.2159,20.04577 23.14951,23.3082 9.71198,2.72211 20.65501,0.0572 28.17744,-6.61999 5.70767,-4.51698 10.18816,-10.94821 11.32904,-18.23482 0.89517,-7.3362 -0.89429,-14.61125 -1.46161,-21.89793 -2.33642,-19.85175 -4.07093,-39.81745 -8.03443,-59.43192 -1.63342,-6.17181 -4.54113,-12.16023 -9.18729,-16.62745 19.12926,-9.42556 35.1814,-24.8304 45.71303,-43.34351 5.14349,-9.19074 8.63653,-19.36532 9.71248,-29.86543 1.22133,-10.18531 1.1423,-20.46409 1.39229,-30.70463 0.3126,-24.05312 0.22082,-48.10889 0.29503,-72.16338 0.003,-2.44896 0.007,-4.89792 0.0102,-7.34688 15.55107,-2.32896 30.59803,-9.13492 41.93135,-20.14506 11.23745,-10.75922 18.8813,-25.43769 20.42064,-40.98586 0.96601,-10.69738 0.72221,-21.45104 1.0074,-32.17723 0.56437,-46.86045 0.56506,-93.72834 -0.0715,-140.588 -0.19961,-10.27486 -0.31231,-20.5637 -1.09831,-30.81308 -1.69392,-14.18903 -8.65137,-27.48403 -18.57307,-37.663969 -11.11382,-11.489491 -26.10039,-19.075435 -41.88412,-21.488128 -7.78529,-1.275001 -15.69909,-1.246276 -23.56557,-1.226402 -21.67491,-0.186395 -43.3553,0.0071 -65.02196,0.594078 -6.021,0.613759 -11.32069,3.799852 -16.48697,6.701827 -10.46639,5.965678 -19.46941,14.892241 -24.47549,25.941604 -2.86019,6.21551 -4.31135,13.03531 -4.46397,19.86552 -0.61727,10.49133 -0.68879,21.008 -0.5628,31.514 0.18849,8.55039 0.69555,17.15875 2.64512,25.50976 2.31315,8.87514 7.15632,17.12491 14.02666,23.23499 6.62431,6.42211 14.63049,11.75651 23.70318,13.89546 9.39084,2.28285 19.12703,1.99787 28.71157,2.39494 -0.003,8.85743 -0.005,17.71485 -0.008,26.57227 -9.93605,0.23895 -20.00564,0.18407 -29.71811,2.56786 -9.84558,3.02995 -18.38069,9.33067 -25.3753,16.76968 -8.17881,8.85501 -13.01392,20.70303 -13.37652,32.75066 -1.08267,13.67094 -0.96023,27.41456 -0.27957,41.10292 0.52609,8.20991 1.53655,16.58234 4.97453,24.14437 4.86103,10.57382 13.49165,19.17561 23.63187,24.76048 8.99976,5.20181 19.48517,7.56841 29.84138,7.3495 3.43343,0.11938 6.8673,0.22384 10.30172,0.31039 -0.0415,24.06911 0.0277,48.13946 -0.29687,72.20703 -2.89271,-10.47287 -7.05414,-20.60336 -12.48986,-30.01796 -13.37527,-23.45539 -33.90062,-42.8043 -58.21133,-54.58837 -14.84855,-7.58143 -30.93105,-12.99572 -47.55077,-14.81554 14.27347,-14.93175 26.25384,-32.22705 34.11782,-51.38191 5.01407,-11.95574 8.74101,-24.50178 10.50195,-37.36104 1.64991,-14.4638 1.10976,-29.04743 1.52384,-43.57225 0.20573,-20.00902 0.40655,-40.13331 -2.51775,-59.97867 -3.98615,-24.32948 -13.0825,-47.63219 -25.27625,-68.98934 C 590.92272,73.820828 565.21003,47.394446 534.85951,28.381756 513.98083,15.205098 491.0369,5.1387102 466.95527,-0.44033436 458.98731,-1.8996085 450.85019,-1.6672433 442.78711,-1.671875 Z m 5.02539,62.183594 c 8.63947,0.262227 16.86591,3.275036 24.84192,6.350015 31.62255,12.475545 59.30555,34.919416 77.59793,63.638996 6.18337,9.6944 11.24925,20.18343 15.09141,30.996 1.38768,3.86746 2.64175,7.81719 3.70507,11.82358 -16.14674,-5.7864 -32.56996,-10.75755 -48.89354,-16.01629 -15.2735,-4.84028 -30.55592,-9.69955 -46.05104,-13.784 -13.99534,-3.31192 -28.63322,-3.82974 -42.8457,-1.67694 -6.60349,1.0206 -13.03975,2.86549 -19.41298,4.84027 -28.45084,8.54176 -56.87722,17.1909 -84.96666,26.85767 2.25034,-8.34493 5.32697,-16.40511 8.72865,-24.33108 8.85725,-19.80239 22.2454,-37.55062 38.48021,-51.94013 15.24871,-13.570557 33.0075,-24.325707 52.17723,-31.329573 6.44626,-2.351731 12.94785,-4.676796 19.79728,-5.350207 0.58222,-0.05119 1.16581,-0.0746 1.75022,-0.07831 z M 418.33594,210.04297 c -1.47721,6.61872 -1.10759,13.44394 -1.17046,20.17497 0.0748,7.3173 -0.31926,14.78644 1.62749,21.91878 0.8603,3.07997 2.13982,6.06417 3.9707,8.69531 -7.62491,3.6075 -13.17851,10.90477 -15.27978,19.00485 -2.53748,9.41293 -0.62329,20.0753 5.59033,27.67679 5.0163,6.26242 12.71009,10.21278 20.69162,10.83545 6.56372,0.7545 13.18342,0.37974 19.77397,0.49749 6.83329,-0.0843 13.78599,-0.0931 20.41683,-1.94836 10.42685,-3.31555 18.48995,-12.94925 19.97227,-23.78298 1.65286,-10.4662 -2.18608,-21.82716 -10.40547,-28.65238 -2.31671,-1.92641 -4.94116,-3.48536 -7.74805,-4.58203 3.51763,-5.51378 5.00764,-12.14769 4.8419,-18.64365 0.24527,-9.00921 0.33177,-18.04278 -0.34996,-27.03428 -0.17135,-1.50175 -0.42376,-2.99466 -0.75952,-4.46855 20.35592,6.44103 40.69257,12.93406 61.13672,19.08789 -5.30809,5.99737 -8.20849,14.0273 -8.03024,22.02824 -0.21689,5.11574 -0.31788,10.27853 -1.82753,15.23152 -1.4932,5.82484 -3.59926,11.30659 -6.4977,16.58203 -3.85955,7.06537 -9.30215,13.26589 -15.28793,18.66437 -5.53691,5.00946 -11.655,9.5845 -18.71812,12.18846 -8.861,3.46534 -18.41263,5.05419 -27.76739,6.06514 -12.25088,1.19421 -24.64429,0.92077 -36.81661,-0.89151 -9.63417,-1.52769 -19.17457,-4.09546 -27.64749,-9.02087 -12.54654,-7.19098 -22.72235,-18.41979 -28.79573,-31.49584 -1.85497,-4.07312 -3.16169,-8.21599 -3.83064,-12.66648 -1.13561,-7.33828 -1.17058,-14.73734 -1.54031,-22.14253 -0.21937,-5.47318 -0.37294,-10.94871 -0.5489,-16.42339 18.35872,-5.73633 36.71745,-11.47266 55.07617,-17.20899 -0.0254,0.10352 -0.0508,0.20703 -0.0762,0.31055 z m 47.58398,174.55078 c -0.0627,7.65667 -0.0661,15.31514 -0.74414,22.92969 -0.12865,0.37834 -0.19865,0.77338 -0.71445,0.58605 -11.1362,0.003 -22.2724,0.006 -33.4086,0.01 -0.68341,-2.05316 -0.53448,-4.26291 -0.77151,-6.39084 -0.4244,-6.51541 -0.5254,-13.0832 -0.73434,-19.63064 12.10636,0.85257 24.27486,0.77178 36.37695,-0.10352 -0.001,0.86654 -0.003,1.73307 -0.004,2.59961 z m 61.21289,40.08984 c 6.2801,2.23142 13.0338,1.96203 19.59135,2.32025 13.21281,0.53898 26.45875,0.46942 39.60982,1.91413 5.46484,0.69208 10.85644,2.13607 15.91217,4.34428 1.93949,0.80154 3.85054,1.67381 5.72065,2.62642 -4.29009,3.16793 -7.49246,7.52013 -10.34313,11.96771 -6.73765,9.87854 -13.27795,19.90056 -19.4396,30.14997 -5.69139,9.65063 -10.63649,19.88759 -13.16605,30.85628 -1.22177,4.97481 -2.09457,10.03319 -2.69575,15.11979 -10.875,-0.007 -21.75,-0.013 -32.625,-0.0195 -0.0897,-22.75112 0.24863,-45.52046 -0.90006,-68.25145 -0.85633,-6.92599 -3.13746,-13.68716 -6.76401,-19.65675 1.89854,-3.69594 3.41236,-7.58774 4.52149,-11.5918 0.19271,0.0736 0.38541,0.14714 0.57812,0.2207 z m 121.33008,61.5918 c 1.28577,7.19215 2.24808,14.44467 3.35412,21.6762 0.76857,5.30048 1.46515,10.59712 2.13807,15.91169 -9.05143,0.026 -18.10287,0.0521 -27.1543,0.0781 1.48246,-6.21729 4.51544,-11.88993 7.85693,-17.24274 4.37847,-7.22608 9.17151,-14.19053 13.61573,-21.37445 0.0631,0.31706 0.1263,0.63411 0.18945,0.95117 z" /><path
           id="path1004"
           style="fill:#000000;stroke-width:1.32206"
           d="m 448.28917,20.001322 c -11.90546,0.02992 -16.16206,0.629264 -25.7998,3.642067 -31.46119,9.834861 -56.78101,24.75028 -80.84461,47.625085 -24.92419,23.692811 -40.06901,46.859096 -50.87945,77.828676 -8.72876,25.0058 -10.02631,35.18462 -10.10665,79.29527 -0.0475,27.30775 0.47086,41.44253 1.78129,48.26948 6.57316,34.24677 27.31764,68.46431 53.39177,88.07177 l 10.4012,7.82283 0.10663,6.58303 0.10662,6.58299 -20.02768,0.69597 c -37.27643,1.29593 -62.42184,11.03727 -87.24685,33.80181 l -10.18297,9.33842 -9.66196,0.89437 c -17.36138,1.60792 -29.85415,11.23864 -33.12946,25.5408 -1.05129,4.5903 -1.39182,27.08231 -1.09389,72.31015 0.43073,65.35824 0.44604,65.67032 3.53253,71.60909 l 3.10153,5.9644 -3.47251,32.35578 c -3.59224,33.48028 -3.49284,35.77494 1.69946,38.6424 4.76437,2.63118 11.24795,0.93552 13.81645,-3.61369 0.73336,-1.29894 2.6104,-14.15244 4.17084,-28.56423 1.56047,-14.4118 2.95915,-26.22494 3.1097,-26.24962 4.29895,-0.70568 87.85791,1.05448 87.85791,1.85069 0,0.6319 -3.05535,11.13129 -6.78959,23.33183 -2.55752,8.35598 -4.37485,15.16666 -5.53204,20.04806 -0.85879,1.22939 -1.35661,2.7043 -1.34754,4.29163 l 0.0265,4.41015 c 0.0265,4.25821 3.67169,7.65737 8.17803,7.61915 l 105.74425,-0.89695 c 4.21808,-0.0349 7.6481,-3.06902 8.04981,-6.94906 1.43918,-3.10173 0.79153,-6.04601 -5.76388,-27.45847 -4.13024,-13.49075 -7.50971,-24.77926 -7.50971,-25.08716 0,-0.30775 18.52513,-0.55929 41.16835,-0.55929 46.77259,0 51.5113,-0.68099 60.96698,-8.76107 9.13004,-7.80163 11.8995,-15.1129 11.91512,-31.46396 l 0.0158,-13.8362 h 37.30033 37.29759 l 0.38166,54.17461 0.38481,54.17726 3.20515,2.45894 c 4.15337,3.18678 8.44514,3.1169 12.90535,-0.20898 l 3.57894,-2.66775 v -53.96842 -53.96586 l 37.00299,-0.025 c 42.15935,-0.025 50.06194,-1.04339 66.19619,-8.53164 13.45591,-6.2452 28.58167,-20.44867 35.77269,-33.59046 8.64029,-15.79024 8.98894,-19.2099 9.0155,-88.82442 l 0.0211,-62.10569 h 7.40328 c 28.10014,0 49.47364,-15.43535 54.89209,-39.6425 2.13464,-9.53648 2.13464,-194.35424 0,-203.89073 -4.45024,-19.88151 -19.88765,-34.145116 -41.57755,-38.418143 -4.48412,-0.883395 -21.32714,-1.251448 -45.48924,-0.99233 l -38.36965,0.412494 -7.35966,3.861132 c -8.44329,4.429496 -15.53719,12.790157 -17.68175,20.841967 -0.79064,2.96826 -1.43759,16.12351 -1.43759,29.23439 0,27.55858 1.63713,34.12297 10.51579,42.1865 9.51046,8.63734 12.16907,9.35169 36.67017,9.84359 l 22.06541,0.44341 v 34.53124 34.5338 l -22.06541,0.43295 c -21.22574,0.41599 -22.30748,0.56568 -28.41576,3.96942 -7.878,4.3898 -13.98267,11.2724 -16.69701,18.82375 -2.89466,8.05299 -2.94913,50.97799 -0.0765,60.10549 2.60539,8.2781 8.20754,14.54037 17.20988,19.24131 7.03405,3.67314 7.97233,3.81445 28.65853,4.27613 l 21.38621,0.47684 v 61.37884 c 0,65.48964 -0.31408,69.199 -6.95053,81.53001 -3.35844,6.24023 -15.42907,18.61685 -21.39165,21.93485 l -4.1108,2.28628 -0.73654,-4.21686 c -0.4054,-2.3198 -1.9813,-15.22422 -3.50251,-28.67506 -3.23724,-28.6244 -7.02991,-42.78074 -15.65774,-58.43531 -12.11544,-21.98198 -29.35319,-37.98444 -52.88641,-49.09755 -19.11379,-9.02609 -30.82267,-11.63258 -56.01321,-12.47008 l -20.70695,-0.68822 v -6.15524 c 0,-5.86743 0.30405,-6.36517 6.55495,-10.71482 10.20007,-7.09748 26.76321,-24.25848 35.06625,-36.33292 9.24331,-13.44182 15.85765,-27.654 20.50779,-44.06039 3.36519,-11.87299 3.55322,-14.29527 4.08357,-52.61007 0.61127,-44.15879 -0.67382,-58.25282 -7.2833,-79.87263 C 588.72636,93.894438 539.9209,45.28191 475.36404,24.158881 464.02245,20.447933 460.91264,19.970647 448.29307,20.001322 Z m 0.69556,18.743832 c 6.60563,0.128187 13.38497,1.547974 21.71081,4.28385 54.02791,17.753796 97.6199,60.031976 115.37618,111.898516 7.7202,22.55089 8.1917,26.85624 8.1917,74.75367 0,41.7767 -0.14253,44.25884 -3.15069,54.70302 -8.1967,28.46133 -26.35296,53.8281 -50.97214,71.2147 -5.12141,3.61682 -9.85733,7.93664 -10.52398,9.59873 -0.66664,1.6621 -1.21118,9.38222 -1.21118,17.15865 0,15.5377 1.82404,21.23286 7.15238,22.31374 1.6668,0.33817 14.33729,0.85785 28.15394,1.15727 27.53359,0.5968 34.35485,1.81971 50.92031,9.12709 25.38396,11.1974 45.31811,33.28622 53.50907,59.28846 2.32773,7.38938 9.63199,59.6542 9.63199,68.9207 0,2.43451 -1.19885,2.51566 -37.54037,2.51566 h -37.5431 l 0.78288,-11.90561 c 1.00806,-15.34632 4.64565,-26.13106 13.37182,-39.6425 3.86409,-5.98301 9.98829,-15.46274 13.60914,-21.06618 3.6208,-5.60343 6.58498,-11.17381 6.58498,-12.37733 0,-1.20352 -1.26725,-3.71504 -2.81512,-5.58038 -3.25692,-3.92484 -10.5881,-4.66144 -14.01834,-1.40992 -3.34731,3.17297 -23.96299,35.17313 -28.13477,43.67121 -5.3151,10.82714 -7.87779,21.12991 -8.89003,35.76067 l -0.86743,12.55004 h -37.13666 -37.13934 l -0.0317,-44.72795 c -0.0265,-42.21237 -0.18581,-45.05592 -2.79607,-50.52225 -1.52131,-3.18578 -4.34007,-7.35351 -6.26583,-9.26365 l -3.5025,-3.47453 4.14081,-6.18092 c 7.48065,-11.16657 8.45356,-16.93605 8.45356,-50.12022 v -29.95867 l 9.16551,-5.11123 c 34.74426,-19.37454 57.37164,-55.84618 57.37164,-92.47679 0,-6.97793 -0.49303,-8.65663 -3.33338,-11.34892 -1.83317,-1.73765 -4.91454,-3.16004 -6.84959,-3.16004 -1.935,0 -5.01913,1.42239 -6.8523,3.16004 -2.89335,2.74266 -3.33343,4.32799 -3.33343,12.02163 0,11.85578 -4.10051,26.38429 -11.0804,39.25071 -7.58043,13.97237 -24.64315,30.45163 -38.63695,37.32012 -29.43745,14.44861 -81.93518,14.79317 -111.1317,0.72943 -17.9772,-8.65944 -32.41551,-22.59784 -41.79306,-40.34869 -7.30886,-13.8351 -8.84737,-22.27172 -9.67011,-53.0534 l -0.72834,-27.31158 46.43306,-14.50636 46.43307,-14.50638 14.93758,-0.0149 14.93757,-0.015 50.29025,15.96526 c 47.77833,15.16655 50.49416,15.87363 54.28652,14.15068 5.3057,-2.41047 7.35746,-7.89519 4.68096,-12.51397 -1.78751,-3.08513 -7.56487,-5.22092 -54.27284,-20.06655 -49.379,-15.69458 -52.98807,-16.6473 -65.24688,-17.21537 -7.2919,-0.33818 -16.21507,0.0509 -20.3687,0.88414 -12.51994,2.51228 -106.89626,32.20292 -109.14856,34.33791 -1.81565,1.72104 -2.1197,6.86609 -2.11136,35.70661 0.0106,37.29292 1.37256,46.52412 9.31284,63.12378 9.37814,19.60557 27.46223,38.8426 46.2394,49.18453 l 10.97403,6.0443 0.0317,31.68307 c 0.0317,30.33088 0.16945,32.00056 3.24342,39.08573 l 3.21065,7.4001 -68.7631,-0.0349 -68.76031,-0.0349 4.75186,-3.79928 c 7.42233,-5.93539 24.65998,-13.96954 36.27463,-16.90602 8.08698,-2.04467 16.68804,-2.86612 36.57474,-3.49772 33.67728,-1.06959 31.7171,0.3681 31.68917,-23.22875 -0.0106,-9.62447 -0.47138,-18.16485 -1.02021,-18.97841 -0.54877,-0.81381 -4.86471,-4.17856 -9.59108,-7.47507 -25.20046,-17.57663 -42.98646,-42.64149 -51.53685,-72.6298 -3.43663,-12.05289 -3.52979,-13.43808 -3.58986,-52.28267 -0.0692,-44.87848 1.01139,-53.71239 9.51743,-77.81061 9.54457,-27.04055 25.82457,-51.2048 47.9443,-71.158035 20.46719,-18.462567 42.90022,-31.253618 69.78601,-39.791942 7.64087,-2.426581 14.07404,-3.589645 20.67966,-3.461656 z m -0.0158,168.410976 c -1.93501,0 -5.01912,1.41978 -6.8523,3.15744 -3.19924,3.03265 -3.33342,3.83535 -3.33342,20.00939 0,16.1741 0.13407,16.9794 3.33342,20.012 1.83318,1.73765 4.91729,3.1575 6.8523,3.1575 1.935,0 5.01642,-1.41985 6.8496,-3.1575 3.19919,-3.0326 3.33338,-3.8379 3.33338,-20.012 0,-16.17404 -0.13409,-16.97674 -3.33338,-20.00939 -1.83318,-1.73766 -4.9146,-3.15744 -6.8496,-3.15744 z m 1.35846,72.08073 c -17.24493,0 -18.28694,0.14714 -20.29231,2.86107 -2.91293,3.94213 -2.64592,9.50397 0.60283,12.58351 2.42612,2.29975 4.52624,2.57497 19.68948,2.57497 15.16325,0 17.26337,-0.27533 19.68944,-2.57497 3.2488,-3.07954 3.51305,-8.64138 0.60013,-12.58351 -2.00537,-2.71393 -3.04463,-2.86107 -20.28957,-2.86107 z m -43.05604,78.16634 3.87623,0.77068 c 13.629,2.71238 36.97602,3.72346 53.24176,2.30687 9.44313,-0.8224 18.5437,-1.83897 20.22411,-2.26049 l 3.05519,-0.76812 -0.0317,26.86048 c -0.0265,24.2314 -0.30036,27.42407 -2.79601,32.64967 -1.52136,3.18573 -4.37121,7.38639 -6.33404,9.33324 l -3.568,3.53897 h -26.63996 -26.63728 l -4.269,-4.18335 c -8.10313,-7.93619 -8.97507,-11.69228 -9.57741,-41.36427 z m 287.7585,232.28741 c -5.46141,-0.44242 -10.46666,3.08512 -10.46666,7.37432 0,1.35973 1.83481,17.9138 4.07535,36.78656 2.24053,18.87283 4.07265,35.161 4.07265,36.19891 0,1.03792 1.50026,3.30918 3.33342,5.04684 1.83313,1.73767 4.9173,3.16004 6.8523,3.16004 3.66968,0 10.17716,-5.09891 10.19115,-7.98517 0.004,-0.91711 -1.87108,-17.88701 -4.16814,-37.70937 -4.66128,-40.22404 -5.29434,-42.17613 -13.89007,-42.87213 z" /></g></g></g></svg>
