<?xml version="1.0" encoding="UTF-8" standalone="no"?>
<!-- Created with Inkscape (http://www.inkscape.org/) -->

<svg
   width="1000mm"
   height="700mm"
   viewBox="0 0 1000 700"
   version="1.1"
   id="svg5"
   xml:space="preserve"
   inkscape:version="1.2.2 (b0a8486541, 2022-12-01)"
   sodipodi:docname="andrax-iot-hacking.svg"
   xmlns:inkscape="http://www.inkscape.org/namespaces/inkscape"
   xmlns:sodipodi="http://sodipodi.sourceforge.net/DTD/sodipodi-0.dtd"
   xmlns:xlink="http://www.w3.org/1999/xlink"
   xmlns="http://www.w3.org/2000/svg"
   xmlns:svg="http://www.w3.org/2000/svg"><sodipodi:namedview
     id="namedview7"
     pagecolor="#505050"
     bordercolor="#ffffff"
     borderopacity="1"
     inkscape:showpageshadow="0"
     inkscape:pageopacity="0"
     inkscape:pagecheckerboard="1"
     inkscape:deskcolor="#505050"
     inkscape:document-units="mm"
     showgrid="false"
     inkscape:zoom="0.16441126"
     inkscape:cx="1411.0956"
     inkscape:cy="1335.0667"
     inkscape:window-width="1366"
     inkscape:window-height="691"
     inkscape:window-x="0"
     inkscape:window-y="24"
     inkscape:window-maximized="1"
     inkscape:current-layer="layer1"
     showguides="true"><sodipodi:guide
       position="499.88826,394.66209"
       orientation="1,0"
       id="guide582"
       inkscape:locked="false" /><sodipodi:guide
       position="375.51723,349.51726"
       orientation="0,-1"
       id="guide3201"
       inkscape:locked="false" /><sodipodi:guide
       position="118.34482,689.75865"
       orientation="0,-1"
       id="guide3412"
       inkscape:locked="false" /><sodipodi:guide
       position="376.57093,9.6199633"
       orientation="0,-1"
       id="guide3436"
       inkscape:locked="false" /><sodipodi:guide
       position="16.092775,487.57539"
       orientation="1,0"
       id="guide3438"
       inkscape:locked="false" /><sodipodi:guide
       position="976.85728,468.5457"
       orientation="1,0"
       id="guide3440"
       inkscape:locked="false" /></sodipodi:namedview><defs
     id="defs2"><linearGradient
       id="linearGradient8120"><stop
         style="stop-color:#ff0000;stop-opacity:1;"
         offset="0"
         id="stop8116" /><stop
         style="stop-color:#ff0000;stop-opacity:0;"
         offset="1"
         id="stop8118" /></linearGradient><linearGradient
       xlink:href="#linearGradient8120"
       id="linearGradient8122"
       x1="416.65988"
       y1="552.31458"
       x2="421.72205"
       y2="-225.3533"
       gradientUnits="userSpaceOnUse"
       gradientTransform="matrix(0.59312171,0,0,0.58624652,8.3716843,11.24208)" /></defs><g
     inkscape:label="Layer 1"
     inkscape:groupmode="layer"
     id="layer1"><g
       id="g1295"
       transform="matrix(1.2502377,0,0,1.2928254,179.93888,19.036723)"><rect
         style="fill:#ffffff;fill-rule:evenodd;stroke:none;stroke-width:7.72913;stroke-linejoin:bevel;paint-order:markers stroke fill"
         id="rect1243"
         width="85.176918"
         height="41.720837"
         x="175.47714"
         y="371.55994"
         ry="10.125541" /><rect
         style="fill:#ffffff;fill-rule:evenodd;stroke:none;stroke-width:7.72913;stroke-linejoin:bevel;paint-order:markers stroke fill"
         id="rect1243-6"
         width="85.176918"
         height="41.720837"
         x="22.818552"
         y="124.87019"
         ry="10.125541" /><rect
         style="fill:#ffffff;fill-rule:evenodd;stroke:none;stroke-width:5.4936;stroke-linejoin:bevel;paint-order:markers stroke fill"
         id="rect1243-6-7"
         width="43.030323"
         height="41.720837"
         x="233.78416"
         y="459.47699"
         ry="10.125541" /><g
         id="g1081"
         transform="translate(-1.5569094e-4,7.315e-5)"><path
           id="path383-3"
           style="fill:#ffffff;stroke-width:0.386366"
           d="m 218.03531,-7.3184325 c -0.13217,0.4941386 -0.26432,0.9882832 -0.39648,1.4824218 -2.10816,8.3498257 -4.68908,16.5863857 -6.36328,25.0410157 -1.17419,6.174888 -1.52013,12.775458 0.81054,18.734375 0.43032,1.269558 1.14876,2.436937 1.64649,3.660156 0.004,13.497214 0.009,26.994974 0.0117,40.492188 6.8717,-0.03232 13.74352,-0.06096 20.61523,-0.0918 -0.01,1.277333 -0.0219,2.554661 -0.0254,3.832031 -9.78096,-4.216574 -21.74669,-3.155221 -30.43164,3.097656 -3.59971,2.54491 -6.61167,5.922168 -8.71875,9.794922 -0.62821,-0.617182 -1.26212,-1.228749 -1.88086,-1.855469 2.33986,-7.008313 2.62028,-14.848617 0.0508,-21.833984 -2.34841,-5.961356 -7.65355,-10.766722 -13.94531,-12.173828 3.28116,-3.887474 5.78974,-8.651293 6.0625,-13.810547 0.37215,-5.364056 -1.53669,-10.721151 -4.81641,-14.931641 -2.65781,-3.47759 -5.87792,-6.465909 -8.75586,-9.753906 -1.6493,-1.801167 -3.29813,-3.602964 -4.94726,-5.404297 -1.04566,0.574612 -2.09495,1.142974 -3.13867,1.720703 -6.42518,-2.051654 -13.80734,-0.839076 -19.17774,3.265625 -4.41943,3.123808 -7.932,7.292603 -11.83789,10.996094 -1.75675,1.718244 -3.47074,3.502196 -5.17187,5.259766 -4.85861,2.360273 -8.69537,6.333014 -12.07422,10.458984 -0.98605,1.264923 -1.63356,2.769168 -2.53516,4.072266 -3.48401,3.18493 -6.70535,6.640508 -10.13476,9.882812 -3.836672,3.764936 -7.518344,8.018482 -9.062505,13.277344 -1.977084,6.406517 -0.668609,13.616275 3.134766,19.095703 2.404814,3.496822 5.588159,6.360252 8.728519,9.177742 0.64886,0.54683 1.32081,1.06554 2.01562,1.55273 -22.111016,-0.0119 -44.224909,-0.35489 -66.333983,0.0195 -5.777215,0.30773 -11.659787,2.59753 -15.427734,7.11914 -3.616554,4.12393 -5.167855,9.73875 -4.984375,15.1543 -0.267912,7.06536 -0.131797,14.13654 -0.203125,21.20508 -3.274623,6.69282 -5.151968,13.93773 -7.660157,20.92773 -0.828683,2.44923 -1.657433,4.8985 -2.486328,7.34766 6.942974,0.83771 13.846026,1.96195 20.765625,2.96289 3.901396,0.5796 7.842855,0.80553 11.785156,0.76172 18.241994,-0.007 36.492594,0.29897 54.728516,-0.29297 0.493096,0.0161 1.062668,-0.21376 1.503906,-0.0859 0.437401,0.43864 0.875099,0.87777 1.312499,1.31641 -8.111083,-0.51438 -16.55609,2.58832 -21.921874,8.79492 -0.999414,1.1194 -1.900818,2.32587 -2.697265,3.59765 -5.824052,-0.0707 -11.862118,1.76484 -16.076172,5.91602 -3.592886,3.46028 -5.752933,8.26739 -6.296875,13.19922 -2.996016,-2.14916 -5.947955,-4.38708 -9.148438,-6.22461 -2.137698,-1.15081 -4.510569,-1.81477 -6.666015,-2.90039 -5.006884,-4.96061 -12.567174,-7.49269 -19.496094,-5.76953 -3.856519,0.87306 -7.34608,2.98077 -10.2109376,5.66406 -2.2514074,1.27943 -4.242786,3.01071 -5.9101562,4.9707 -2.99487876,1.07012 -5.6301433,2.94432 -7.9609375,5.07227 -8.0039517,4.74554 -12.0973647,15.30752 -9.0449217,24.15625 0.412574,1.40026 1.025788,2.73736 1.77539,3.98828 -1.504369,6.6053 0.741363,13.81269 5.4238286,18.64648 0.046432,6.54127 -0.1506939,13.11746 0.6875,19.61915 1.4892281,7.89512 8.0194108,14.75524 16.0273437,16.08203 4.9252327,0.99471 9.9408097,0.30935 14.9003907,0.36328 3.859442,-0.0471 7.8179,-0.25185 11.441406,-1.70899 4.168451,1.6776 8.788968,1.90652 13.199219,1.41993 5.610812,0.93205 11.31665,0.14658 16.919922,-0.47266 2.083651,-0.2436 4.165208,-0.4992 6.248047,-0.75 2.709307,-5.66174 5.87053,-11.35395 6.441406,-17.72266 0.08728,-0.85968 0.112427,-1.72424 0.115234,-2.58789 0.882773,0.0122 1.765598,0.0201 2.648438,0.0254 0.204407,3.3025 0.773779,6.56982 1.080078,9.86328 0.669642,5.99901 1.437075,11.99568 2,18 -0.800108,3.8446 -1.622263,7.68819 -1.441406,11.64649 -12.26253,-0.0605 -24.532221,-0.1048 -36.78711,0.36914 -4.961776,0.36852 -9.865349,2.39172 -13.333984,6.01562 -4.317368,4.33408 -6.528339,10.54582 -6.291016,16.625 -0.256273,7.81198 -0.08779,15.62923 -0.08398,23.44336 0.07537,4.20035 0.123189,8.46315 1.154297,12.5586 2.198936,7.43573 8.953228,13.35309 16.685547,14.29883 0.788526,0.14725 1.588993,0.21972 2.386718,0.29687 3.567599,5.31779 9.776429,8.84093 16.216797,8.85547 5.694914,0.34471 11.40279,0.0843 17.103516,0.13672 9.242656,-0.0547 18.486015,-0.12824 27.728514,-0.20508 0.0919,-3.06516 0.17481,-6.10736 0.27344,-9.16211 4.60724,-0.74931 8.96343,-3.05797 12.02929,-6.59961 1.31413,-1.46 2.39744,-3.1201 3.25977,-4.88281 3.03567,8.38892 11.52919,14.56247 20.49804,14.54101 6.45103,0.2022 12.9114,0.27283 19.35938,-0.0547 -3.35553,3.34052 -6.73489,6.66105 -9.96484,10.125 -7.42525,-0.0233 -14.88006,-0.25481 -22.27735,0.5039 -10.74474,1.81552 -19.6128,11.03073 -21.4414,21.70899 -0.97385,5.53563 -0.33044,11.1721 -0.52539,16.7539 v 6.07032 c 0.77582,0.16549 0.89683,0.69361 0.70117,1.39648 -0.52015,5.69533 -1.13265,11.40926 -0.96485,17.13477 0.64081,6.669 4.63302,12.77999 10.16407,16.46679 1.55145,1.23955 3.10297,2.47903 4.65429,3.71875 0.0534,2.9e-4 0.10624,5.4e-4 0.21094,0.006 0.3858,0.0195 0.75569,0.12604 1.14063,0.11524 0.38588,4e-5 0.77232,-2.8e-4 1.1582,0 0.2228,0.002 0.44522,0.002 0.66797,-0.004 0.36897,-0.002 0.75805,-0.0273 1.125,0.0215 h 0.002 c 0.56277,-0.1537 1.13778,-0.29846 1.7207,-0.27929 0.38372,3e-5 0.76863,-2.6e-4 1.15235,0 0.71741,0 1.43495,0.003 2.15234,-0.002 0.36294,-0.003 0.72484,0.0216 1.08789,0.0156 -0.26491,0.0937 0.0332,-0.0165 0.2461,-0.0391 0.48758,-0.0517 0.94334,0.04 1.39257,0.21679 h 1.15625 c 0.44768,0 0.89608,-4e-5 1.34375,0 0.38893,6e-5 0.7771,-0.001 1.16602,-0.002 0.3738,0 0.74729,0.004 1.12109,0.002 0.36436,-0.0121 0.72789,0.002 1.0918,0.0215 0.0373,0.002 0.0936,-0.027 0.11133,0.006 0.015,0.028 -0.0648,0.0172 -0.0859,0.041 -0.0152,0.0171 0.044,-0.0126 0.0664,-0.0176 0.4091,-0.0863 0.66249,-0.16112 1.04687,-0.13672 0.25053,10e-4 0.49955,-0.006 0.75,-0.006 0.30332,0.0166 0.58704,0.0537 0.89063,-0.0312 0.19334,-0.017 0.38633,-0.0392 0.58007,-0.0508 0.61068,-0.0367 -0.74062,0.20475 0.69727,-0.0684 -0.59321,0.0772 -0.0613,-0.0242 0.10938,-0.0527 0.44399,-0.0737 0.88004,-0.0774 1.32812,-0.0664 0.65056,0.016 1.16698,0.14925 1.55469,0.35156 7.81445,0.0125 15.63631,0.0997 23.4375,-0.38477 5.39322,-0.53415 10.76751,-2.67943 14.52148,-6.68359 4.57012,-4.71551 6.62791,-11.59671 5.72461,-18.06836 -0.31914,-2.48593 -1.04795,-4.91992 -2.15625,-7.16797 1.74964,-10.07921 1.82808,-20.33918 2.80664,-30.50195 7.10663,4.73658 16.68724,5.54008 24.42578,1.87109 0.81939,-0.38047 1.61633,-0.80829 2.38477,-1.2832 4.45013,2.7149 9.78265,3.85746 14.96289,3.45508 0.006,0.99609 0.0117,1.99219 0.0176,2.98828 h -9.61328 c -2.72493,4.77946 -7.0121,8.52393 -9.25782,13.5957 -2.23794,4.98991 -2.01601,10.57272 -2.10742,15.91602 -0.0584,15.01537 -0.0435,30.03138 -0.0508,45.04687 4.45961,4.44468 8.9193,8.88931 13.37891,13.33399 h 57.49414 c 2.39022,-3.31683 5.24986,-6.27056 7.54297,-9.65821 2.0028,-2.97407 3.38392,-6.3895 3.74023,-9.97265 0.57166,-4.78714 0.37465,-9.62123 0.44141,-14.43164 -0.006,-10.99606 0.16041,-21.9982 -0.26367,-32.98829 -0.37431,-5.18986 -2.48373,-10.2844 -6.1543,-14.00976 -1.34986,-1.388 -2.88423,-2.59854 -4.5586,-3.57227 0.94886,-0.37365 1.82249,-0.96496 2.72071,-1.39257 4.20947,0.0137 8.41959,-0.0296 12.6289,0.0234 6.94486,4.22963 16.5301,3.90948 22.91602,-1.24804 1.24439,-1.00917 2.29051,-2.27272 3.71484,-3.04493 3.51316,-2.46929 6.21965,-6.03413 7.75,-10.03906 3.44601,3.37733 6.91367,6.73504 10.42188,10.04883 0.0373,9.83312 -0.16566,19.68495 0.55078,29.49805 0.88501,6.08477 4.42162,11.99421 9.98828,14.85351 4.6324,2.51371 10.02661,2.80582 15.18555,2.83985 12.19674,0.19363 24.40945,0.3979 36.5957,-0.24805 6.41864,-0.67422 12.56316,-4.43818 15.64063,-10.18164 2.41362,-4.26922 3.08905,-9.27627 2.94336,-14.11524 0.29239,-13.07111 0.073,-26.14585 0.15625,-39.21875 0.002,-6.29033 0.005,-12.58076 0.006,-18.87109 -3.57278,-0.65631 -7.0508,-1.73155 -10.41992,-3.08203 -3.39038,-1.37169 -6.92234,-2.55046 -10.60742,-2.70117 -2.62994,-0.19219 -5.26924,-0.16006 -7.9043,-0.18946 2.40676,-2.39594 4.81477,-4.79071 7.22071,-7.1875 -0.26317,-6.19173 -0.33901,-12.44047 -0.51367,-18.68164 -0.0294,-0.9426 -0.0538,-1.88602 -0.0937,-2.82812 3.4147,-0.0107 6.82955,-0.0164 10.24414,-0.0527 0.0381,5.7382 -0.0426,11.49918 0.5957,17.20899 1.081,6.59549 5.47213,12.68527 11.67383,15.33984 4.81421,2.19288 10.21518,2.17652 15.39843,2.15821 9.22511,0.0628 18.45332,0.06 27.67774,-0.0488 3.84436,-0.11238 7.76211,-0.24069 11.46484,-1.37305 8.29244,-2.83789 14.16845,-11.36697 13.98242,-20.11328 0.40644,-8.20114 0.14976,-16.4161 0.25,-24.62305 -0.0252,-11.089 0.12445,-22.18593 -0.32812,-33.26758 -0.57062,-6.33973 -3.82555,-12.60296 -9.28516,-16.05273 -4.41389,-2.94961 -9.85993,-3.86928 -15.08593,-3.70508 -6.25262,-0.14959 -12.54387,0.4684 -18.75977,-0.4707 -6.55912,-0.76769 -13.12099,-1.51688 -19.68164,-2.27149 0.03,0.78437 -0.18907,-0.50298 -0.31836,-0.77734 -0.50183,-1.72557 -1.35399,-3.3395 -2.22656,-4.88281 -0.1919,-1.82279 -0.5821,-3.62616 -1.17969,-5.35938 1.27663,0.99958 2.45327,2.10715 3.66602,3.17969 7.70083,6.4774 19.13517,8.41854 28.38476,4.26172 1.47159,-0.64727 2.8885,-1.41913 4.22656,-2.31055 5.25331,0.0106 10.50699,-0.008 15.75977,0.0801 7.29241,4.72949 16.9065,5.80518 24.97266,2.46289 2.3918,-0.92998 4.5646,-2.33085 6.71289,-3.70117 7.26137,-2.21513 13.40888,-8.32565 14.96875,-15.84961 1.11908,-4.83242 0.75703,-9.84117 0.375,-14.73828 -0.86133,-6.58887 -4.69439,-12.83088 -10.47657,-16.20508 -4.40674,-2.81074 -9.57101,-3.98853 -14.58398,-5.21094 -1.10079,-1.27776 -2.33681,-2.43025 -3.58398,-3.5625 -1.02287,-5.77708 -4.6398,-10.83528 -9.23829,-14.36328 -7.58348,-6.0953 -18.16887,-8.2015 -27.50586,-5.45703 -6.70934,1.89978 -12.84545,6.15299 -16.54492,12.11719 1.67574,-8.93621 -0.084,-18.4843 -4.97656,-26.16406 -3.99834,-6.47022 -10.07247,-11.6239 -17.11328,-14.50391 3.82867,-3.89462 7.78372,-7.69793 11.14258,-12.01953 10.73027,-0.0322 21.47157,0.14447 32.1914,-0.39844 6.81805,-0.68374 13.42507,-4.52773 16.8086,-10.58008 2.6512,-4.48624 3.37019,-9.83001 3.14258,-14.96289 0.0378,-6.49731 0.18168,-13.01713 -0.43946,-19.49219 -1.02562,-6.95643 -5.47822,-13.4391 -11.90234,-16.44531 -4.16017,-2.0512 -8.88056,-2.53376 -13.46094,-2.4414 -11.77248,-0.29107 -23.54973,-0.13257 -35.32422,-0.25 -9.63916,-0.0339 -19.27881,-0.0688 -28.91797,-0.10157 -4.9492,4.22306 -9.89649,8.4485 -14.84375,12.67383 -4.4e-4,3.32227 0.006,6.64454 -0.004,9.9668 -4.94438,-1.16624 -10.31938,-0.43238 -14.73242,2.0957 -0.48324,0.0554 -0.956,-0.45534 -1.45313,-0.60351 -5.93956,-2.81988 -13.27996,-2.67586 -18.95312,0.73437 -2.33542,-1.34493 -4.92674,-2.25141 -7.59571,-2.63477 0.0488,-0.73304 -0.0974,-1.54675 0.0703,-2.23046 5.18243,-5.16298 10.38606,-10.30401 15.50977,-15.52539 8.3402,3.62712 18.08505,4.16315 26.64844,0.96875 9.73087,-3.37905 18.30691,-10.58707 22.4414,-20.125007 0.82192,-1.823892 1.37084,-3.766861 2.02735,-5.640625 3.8377,-4.886802 5.28307,-11.308106 4.85156,-17.429688 -0.12657,-5.392607 -0.23007,-10.905423 -1.93359,-16.076172 -0.66175,-1.915083 -1.8199,-3.611314 -2.54297,-5.492187 -2.5347,-7.580557 -7.07843,-14.741482 -13.79688,-19.253907 -8.28803,-5.714756 -18.77554,-7.688719 -28.68164,-6.505859 -9.2715,1.133387 -18.33376,5.519605 -24.24219,12.873047 -3.0771,3.811958 -5.34488,8.236914 -6.89062,12.875 -3.3369,4.44681 -4.59677,10.152734 -4.33203,15.638672 0.053,5.661427 0.12338,11.323438 0.21484,16.984375 -6.73748,6.476159 -13.34922,13.080713 -19.97265,19.671875 -3.13295,-3.938054 -6.73738,-7.726935 -11.41211,-9.800781 -6.87405,-3.23626 -15.19862,-2.938331 -21.95508,0.458984 -0.004,-1.932972 -0.0198,-3.865905 -0.0332,-5.798828 6.84827,-0.03268 13.69662,-0.06419 20.54492,-0.09766 0.18913,-13.495349 0.38015,-26.99095 0.57015,-40.486342 3.59976,-6.458627 4.14378,-14.309312 2.33984,-21.402343 -1.12771,-5.630156 -2.03761,-11.4312043 -4.66015,-16.6035159 -3.77157,-6.6006953 -11.43015,-10.4715065 -18.94141,-10.3398438 -13.79073,-0.3373407 -27.586,-0.089977 -41.37891,-0.1816406 -5.13772,-9.986e-4 -10.2763,-0.0035 -15.41406,-0.00391 z M 380.79508,74.628833 c 0.65204,0.09439 0.82618,0.776025 0.64844,1.326172 0.002,0.617387 -0.0997,1.350569 -0.80079,1.533203 -0.61303,0.275453 -1.56721,0.159978 -1.89843,-0.464844 -0.18513,-0.659235 -0.24789,-1.394449 0.33984,-1.876953 0.41528,-0.458502 1.10709,-0.645798 1.71094,-0.517578 z m -22.80274,1.671875 c 0.51338,0.01055 0.19608,1.0094 -0.19531,0.537109 -0.36247,-0.254255 -0.34535,-0.726807 0.19531,-0.537109 z m -221.05859,29.000002 0.0879,0.33008 c 1.15092,4.03061 3.55084,7.68854 6.76563,10.375 -6.5156,0.61341 -12.65748,4.48956 -15.93555,10.16601 -6.1625,3.5518 -10.32817,10.48716 -10.22852,17.64063 -1.39,-1.34645 -2.79672,-2.67586 -4.19336,-4.01563 -0.13347,-9.73629 -0.26693,-19.47269 -0.40039,-29.20898 6.43527,2.42937 13.9997,1.69069 19.76172,-2.10157 1.47475,-0.93247 2.84729,-2.01836 4.14258,-3.18554 z m 85.20508,7.82617 c 0.25287,0.13526 0.30888,0.82523 -0.002,0.78711 -0.18931,-0.1108 -0.36902,-0.89446 0.002,-0.78711 z m 239.71875,14.48242 c 0.14218,-0.011 0.2636,0.0556 0.38281,0.30664 0.43697,0.67139 -0.0712,2.00815 -1,1.63086 -0.89073,-0.23986 -0.8604,-1.70511 0.10547,-1.7793 0.2058,-0.058 0.36954,-0.14722 0.51172,-0.1582 z m -416.861331,6.9375 c 1.341815,0.37451 1.58349,2.48227 0.300782,3.0918 -1.072509,0.70764 -2.502366,-0.54032 -2.177735,-1.71485 0.08423,-0.88201 0.957468,-1.65509 1.876953,-1.37695 z m 33.34961,5.77149 c 0.41469,-0.0764 0.756495,-0.0503 1.091797,0.22656 1.078903,0.91021 0.10934,2.82964 -1.240235,2.6875 -1.083016,0.20653 -2.061217,-1.12413 -1.464843,-2.0918 0.255075,-0.67362 0.952942,-0.87168 1.613281,-0.82226 z m 358.890621,2.92382 c 0.48527,-0.16713 1.05374,-0.19633 1.53907,0.0117 0.5997,0.27661 0.94576,0.93513 0.66406,1.56446 0.0334,0.70262 -0.47551,1.09295 -0.97852,1.48632 -0.63307,0.21168 -1.26403,-0.36993 -1.89453,-0.50195 -0.88381,-0.73854 -0.30505,-2.19502 0.66992,-2.56055 z m -16.27734,0.13086 c 1.2531,0.18552 1.78704,2.12695 0.61914,2.78125 -0.63201,0.43516 -1.40572,0.1573 -2.04687,-0.084 -1.01452,-0.63049 -0.71741,-2.27748 0.40039,-2.59375 0.32509,-0.17222 0.67616,-0.0974 1.02734,-0.10352 z m -206.04297,16.75782 -0.004,0.0918 c -0.1527,0.68002 -0.72121,0.97228 -1.29883,1.25586 -0.23981,0.45004 -1.68824,0.0389 -1.0586,-0.20117 0.78699,-0.3821 1.57433,-0.76438 2.36133,-1.14648 z m 56.85352,0.83007 c 0.0302,0.18702 -0.4914,0.86509 -0.50196,1.04102 -0.67833,-0.0272 -0.29412,-1.01697 0.24805,-1.02734 0.17218,-0.0837 0.24384,-0.076 0.25391,-0.0137 z m 70.8789,2.70508 c 0.86717,0.4704 1.10908,1.78097 0.35743,2.46875 -0.46226,1.02944 -1.95451,0.34235 -1.9961,-0.60547 -0.15168,-0.92724 0.67025,-1.95007 1.63867,-1.86328 z m 14.68555,0.18946 c 1.31145,0.51621 1.05587,2.79497 -0.39453,2.90625 -1.38824,0.12019 -2.26237,-2.05548 -0.98242,-2.79102 0.40714,-0.26087 0.92892,-0.25315 1.37695,-0.11523 z m 14.37695,0.0156 c 1.29636,0.57023 0.94282,2.84891 -0.51953,2.89063 -1.35338,0.0439 -2.16111,-2.08924 -0.88086,-2.78321 0.41316,-0.27452 0.94538,-0.25049 1.40039,-0.10742 z m -20.10351,27.10352 c 1.13567,0.003 2.27057,0.005 3.40625,0.008 -0.65918,0.18727 -1.46403,0.0226 -2.17774,0.0781 -1.03503,-3.9e-4 -2.07045,-0.002 -3.10547,-0.002 0.54257,-0.20985 1.26677,-0.0227 1.87696,-0.084 z m -50.45313,4.63671 c 1.03715,0.0404 1.38126,1.82924 0.28125,2.04493 -0.83551,0.0935 -1.82879,-0.69799 -1.57812,-1.59375 0.35909,-0.3109 0.81356,-0.51186 1.29687,-0.45118 z m -101.19922,12.15821 c 0.18744,0.006 0.40284,0.0558 0.54297,0.0137 0.005,0.46744 -0.88545,0.81609 -0.91797,0.23437 0.0281,-0.21672 0.18757,-0.25416 0.375,-0.24804 z m -80.09375,6.51172 c 0.30745,-0.0355 0.62803,0.0107 0.91602,0.1289 1.29008,0.63588 1.00784,2.99158 -0.51367,3.05469 -1.43044,0.19136 -2.40235,-1.89579 -1.24414,-2.82031 0.23979,-0.2096 0.53434,-0.32778 0.84179,-0.36328 z m 292.30469,10.84961 c 0.48189,0.0157 0.43487,0.85134 -0.0879,0.71093 -0.42998,5.8e-4 -0.72469,-0.66344 -0.12695,-0.70117 0.0716,-0.003 0.14243,-0.0264 0.21484,-0.01 z M 24.617343,226.6054 c 0.256767,-0.0721 0.546646,-0.067 0.84961,0.041 1.271301,0.34673 1.490577,2.41751 0.193359,2.87109 -0.800284,0.27212 -1.295053,-0.54707 -1.861328,-0.95312 -0.418459,-0.83994 0.04806,-1.74282 0.818359,-1.95898 z m -12.808594,9.7832 c 1.454616,0.32874 1.53379,2.60451 0.173829,3.12305 -0.521878,0.0632 -0.955722,-0.65582 -1.44336,-0.88868 -0.9911796,-0.47083 -0.356185,-1.99057 0.53125,-2.21289 0.241631,-0.068 0.493003,-0.0718 0.738281,-0.0215 z m 458.853521,1.6875 c 0.73018,0.0941 1.22575,1.08355 0.5625,1.59961 -0.46489,0.49696 -1.19006,0.49978 -1.81641,0.51172 -0.79417,-0.32477 -0.38823,-1.29369 0.0312,-1.76172 0.32268,-0.3048 0.78796,-0.43508 1.22266,-0.34961 z m -175.55469,2.58984 c 0.56507,0.53704 -0.53036,0.18548 0,0 z m 46.35742,5.39844 c 0.019,0.76288 -0.90257,1.56007 -1.63672,1.31836 -0.28233,-0.58131 0.27038,-1.3083 0.91797,-1.20508 0.23763,-0.0338 0.48768,-0.0956 0.71875,-0.11328 z m -305.919922,15.0625 c 0.593368,0.0163 0.425213,1.1986 -0.189454,0.80859 -0.444842,-0.0377 -0.678186,-0.72533 -0.109375,-0.79297 0.09982,-0.0154 0.197762,-0.0289 0.298829,-0.0156 z m 459.761722,0.87695 c 1.15614,0.0524 0.91569,1.90352 -0.0937,1.95899 -0.95546,0.0169 -1.55332,-1.52842 -0.49414,-1.87891 0.1953,-0.0383 0.38619,-0.10752 0.58789,-0.0801 z m -45.46485,0.0449 c 0.96345,0.10273 1.08856,1.57332 0.16407,1.86329 -0.98079,0.45673 -1.99633,-1.38353 -0.83204,-1.7793 0.22053,-0.0766 0.4352,-0.1056 0.66797,-0.084 z m -312.28125,8.0879 c 0.3353,-0.0313 0.68142,0.22006 1.00977,0.29492 0.55347,0.38461 0.6144,0.97147 0.58594,1.5957 0.16152,0.48971 -0.16622,1.41617 -0.73047,1.26758 l -2.5625,-1.16016 c -0.23708,-1.03222 0.64851,-2.04918 1.69726,-1.99804 z m -93.269529,0.29296 c 1.478264,0.11209 1.214376,2.78834 -0.248047,2.60547 -1.132927,-0.0654 -1.600708,-1.67316 -0.648437,-2.31836 0.246165,-0.21504 0.574548,-0.29917 0.896484,-0.28711 z m -17.058593,0.0508 c 1.294579,0.16414 1.232644,2.23141 0.0293,2.48242 -0.938996,0.65318 -2.106181,-0.66118 -1.5625,-1.58985 0.253866,-0.57053 0.894774,-1.00536 1.533204,-0.89257 z m 105.914062,33.25585 c 0.73735,0.13576 -0.25498,1.3401 -0.47461,0.63086 -0.0353,-0.27276 0.1324,-0.69652 0.47461,-0.63086 z m -25.88477,8.68946 c 1.28335,0.23762 0.78217,2.38384 -0.41601,2.22265 -0.89291,-0.14584 -1.4415,-1.4584 -0.56641,-1.99804 0.29155,-0.19291 0.63775,-0.26066 0.98242,-0.22461 z m 10.87891,0.0117 c 1.29031,0.25431 0.74414,2.41238 -0.46094,2.2207 -0.93393,-0.16873 -1.42685,-1.61506 -0.44336,-2.07227 0.26876,-0.15888 0.59933,-0.20459 0.9043,-0.14843 z m -5.43359,0.004 c 1.35629,0.22656 0.6953,2.53936 -0.53907,2.19727 -0.96858,-0.1821 -1.22731,-1.60863 -0.32617,-2.06641 0.25549,-0.15849 0.57572,-0.17472 0.86524,-0.13086 z m 41.07422,17.21094 c 0.0983,0.001 0.19661,0.003 0.29492,0.004 0.3485,0.0112 1.06853,0.33418 0.5957,0.72461 -0.47841,0.44425 -1.18541,0.08 -1.73633,0.0215 -0.27214,-0.42186 0.52477,-0.72306 0.84571,-0.75 z m 88.09375,42.97852 c 0.0454,0.28342 0.0914,0.56619 0.13671,0.84961 -0.86678,0.1482 -0.10753,-1.54324 -0.13671,-0.84961 z m -31.43164,14.17578 c 1.33105,0.38546 0.81606,2.69657 -0.52344,2.54101 -1.01948,-0.10853 -1.73827,-1.55655 -0.78516,-2.23437 0.37428,-0.27664 0.85089,-0.38173 1.3086,-0.30664 z m 2.95312,3.07617 c 1.25733,0.29805 1.20276,2.48228 -0.15625,2.56055 -1.18132,0.12881 -2.13676,-1.69152 -1.00977,-2.39063 0.35524,-0.21003 0.76614,-0.24791 1.16602,-0.16992 z m -6.10742,0.1543 c 1.18056,0.30817 1.0623,2.29508 -0.19141,2.40234 -1.06797,0.1922 -2.16805,-1.36166 -1.16601,-2.11719 0.37157,-0.3206 0.8904,-0.37467 1.35742,-0.28515 z m 2.98242,3.05078 c 1.19387,0.16864 1.29067,2.07352 0.125,2.37695 -1.09691,0.41769 -2.41511,-1.21663 -1.38672,-2.04883 0.36145,-0.28908 0.80845,-0.37864 1.26172,-0.32812 z m 100.28711,4.15625 c 1.04651,0.10375 0.76584,1.65274 -0.084,1.86328 -0.80548,0.30662 -1.69547,-0.89895 -0.91797,-1.5 0.26934,-0.2449 0.63304,-0.40467 1.00195,-0.36328 z m -0.082,4.69336 c 1.2467,0.0825 0.74068,2.29774 -0.38477,1.94922 -0.96471,-0.14034 -1.05571,-1.58077 -0.15234,-1.89454 0.17823,-0.0432 0.35303,-0.0729 0.53711,-0.0547 z m 0.39844,4.78711 c 0.9895,0.26162 0.46229,1.78259 -0.40039,1.83789 -0.91246,0.28232 -1.6517,-1.21325 -0.69727,-1.65821 0.3597,-0.0571 0.73201,-0.21961 1.09766,-0.17968 z m 80.75195,4.71484 c 1.08153,0.11777 1.30139,1.68069 0.375,2.17383 -0.99249,0.81547 -2.69616,-0.75701 -1.7832,-1.74024 0.35741,-0.38258 0.90345,-0.49935 1.4082,-0.43359 z m -19.23438,0.0566 c 1.17054,0.37492 0.8763,2.37135 -0.38281,2.34375 -1.05522,0.0676 -1.98156,-1.53753 -0.92187,-2.18164 0.39737,-0.24005 0.86029,-0.27535 1.30468,-0.16211 z m 9.47657,0.0996 c 1.05741,0.22188 1.3608,1.97522 0.22265,2.30859 -1.14623,0.55078 -2.48858,-1.14142 -1.49804,-2.03906 0.35451,-0.29852 0.83242,-0.36713 1.27539,-0.26953 z m -190.78907,11.68359 c 0.0968,0.0773 0.1975,0.21566 0.33204,0.2793 0.21391,0.20252 1.37519,0.88372 0.55664,0.53125 -0.3097,-0.25861 -1.67504,-0.28425 -1.19336,-0.7207 0.11589,-0.18425 0.20792,-0.16702 0.30468,-0.0899 z m 74.55079,32.02149 c 1.04958,0.24847 1.22281,2.19573 -0.0156,2.27539 -0.95377,0.22569 -2.01091,-0.98752 -1.24023,-1.79688 0.29738,-0.35845 0.79559,-0.54577 1.25586,-0.47851 z m 5.70898,0.0527 c 0.88804,0.66996 0.3774,2.3849 -0.81445,2.21094 -0.83412,0.0122 -1.44318,-1.05835 -0.79493,-1.69141 0.35374,-0.46246 1.09975,-0.35584 1.60938,-0.51953 z m -16.46875,23.57227 c 0.53811,0.0507 0.0791,1.0263 -0.33203,0.60351 -0.47281,-0.2224 -0.0577,-0.74262 0.33203,-0.60351 z m -119.66797,8.26953 c -0.14152,0.0222 -0.10267,0.0174 0.0586,0.0156 -0.0192,-0.005 -0.0454,-0.0124 -0.0586,-0.0156 z" /><path
           id="path383"
           style="fill:#000000;stroke-width:0.386366"
           d="m 233.38687,12.681567 -0.38671,1.44336 c -3.49129,12.987762 -3.54302,17.037746 -0.24219,19.1875 l 0.98633,0.644531 v 14.019531 14.017578 l 21.02539,-0.09961 21.02343,-0.09766 0.19336,-13.931641 0.19532,-13.927734 1.11132,-0.869141 c 1.43444,-1.121173 2.1836,-2.935122 2.1836,-5.294922 0,-1.492356 -1.96901,-11.093093 -2.95508,-14.416015 -0.1874,-0.6315 -1.55574,-0.675782 -21.66602,-0.675782 z m 17.91602,1.15625 h 3.62109 3.62305 v 2.058594 c 0,1.13268 0.11538,3.646656 0.25391,5.585938 l 0.25,3.52539 h -4.12696 -4.12695 l 0.002,-1.828125 c 0.001,-1.006332 0.11427,-3.520307 0.25196,-5.585937 z m -13.39062,0.08008 c 1.97155,-0.06091 3.58101,0.02651 3.57617,0.193359 -0.005,0.166846 -0.34914,2.556374 -0.76563,5.310547 -0.41649,2.754171 -0.76274,5.13798 -0.76758,5.296875 -0.005,0.158896 -1.83815,0.289062 -4.07617,0.289062 -3.00453,0 -4.06754,-0.124944 -4.05664,-0.480468 0.007,-0.264825 0.57488,-2.736062 1.25977,-5.490235 l 1.24414,-5.007812 z m 33.90039,0 3.57421,0.111328 1.25586,5.201172 c 0.68984,2.860101 1.2591,5.329386 1.26758,5.488281 0.008,0.158895 -1.80876,0.289062 -4.03711,0.289062 h -4.05273 l -0.21485,-1.251953 c -0.36226,-2.097528 -1.36914,-9.116586 -1.36914,-9.544922 0,-0.25839 1.27917,-0.364122 3.57618,-0.292968 z m -40.39258,12.630859 h 4.26367 4.26367 v 1.386719 c 0,2.005255 -1.01994,3.85014 -2.51367,4.554687 -1.60184,0.755545 -2.00658,0.748357 -3.64258,-0.05273 -1.47486,-0.722178 -2.37109,-2.433452 -2.37109,-4.527344 z m 9.6875,0 h 4.07031 4.06836 V 28.3886 c 0,2.18562 -0.75894,3.425271 -2.55664,4.171875 -1.62268,0.673913 -1.62219,0.674784 -3.25,-0.136719 -1.63548,-0.815328 -2.31696,-2.057506 -2.32422,-4.236328 z m 9.68945,0 h 4.07031 4.06836 V 28.3886 c 0,2.18562 -0.75895,3.425271 -2.55664,4.171875 -1.68744,0.700801 -2.04808,0.678129 -3.52148,-0.214844 -1.5961,-0.967349 -2.06055,-1.876318 -2.06055,-4.039063 z m 9.25,0 h 4.28906 4.28711 v 1.560547 c 0,2.122835 -0.94716,3.782722 -2.5332,4.441406 -1.60107,0.664931 -2.04239,0.671486 -3.24219,0.05859 -1.44357,-0.737401 -2.38044,-2.268794 -2.59961,-4.25 z m 9.74024,0 h 4.26367 4.26172 v 1.291016 c 0,1.833002 -0.65745,3.414627 -1.7461,4.205078 -3.10924,2.257617 -6.77929,0.01898 -6.77929,-4.134766 z m 100.95312,12.072266 c -7.51625,-0.448625 -13.42407,2.007834 -16.81836,6.99414 -1.27502,1.873026 -3.14304,6.596541 -3.41992,8.648438 -0.15811,1.171634 -0.40399,1.552063 -1.11914,1.730468 -0.5138,0.128179 -1.00746,0.605018 -1.12695,1.087891 -0.11723,0.473458 -0.16417,3.893838 -0.10352,7.599609 l 0.10937,6.738282 1.32422,0.61914 c 1.25819,0.590124 1.35704,0.788093 2.01563,4.021485 0.38095,1.870263 1.22263,4.468096 1.86914,5.773437 2.17451,4.390415 6.81323,7.980614 11.89453,9.203125 3.00409,0.722769 4.93759,0.731862 7.62109,0.03711 5.29555,-1.371006 10.23391,-5.106514 12.09375,-9.146485 0.90315,-1.961811 1.81148,-5.139255 2.30274,-8.060547 0.18673,-1.110367 0.4767,-1.492984 1.35937,-1.798828 1.89481,-0.656552 2.04841,-1.409243 1.74805,-8.478515 -0.27482,-6.468168 -0.59635,-7.765625 -1.92969,-7.765625 -0.27884,0 -0.55331,-0.821652 -0.67968,-2.039063 -0.22631,-2.179503 -2.27172,-6.930794 -3.91016,-9.085937 -2.68989,-3.538175 -7.46545,-5.734027 -13.23047,-6.078125 z m -213.35547,1.02539 c -0.49613,0 -1.80462,0.932079 -3.21875,2.292969 l -2.38476,2.294922 2.12109,2.136719 2.11914,2.138671 2.83594,-2.794921 2.83594,-2.794922 -1.73438,-1.636719 c -0.95535,-0.900402 -2.11431,-1.636719 -2.57422,-1.636719 z m 213.07617,0.470703 c 3.39935,0.170227 6.68834,1.100768 9.20508,2.761719 3.55233,2.344397 6.76758,7.777401 6.76758,11.4375 v 1.439453 l -17.22656,0.02539 c -9.47483,0.01491 -17.30127,-0.09906 -17.39258,-0.253906 -0.22505,-0.381602 1.19815,-5.353535 2.00195,-6.996094 1.14214,-2.333996 4.35574,-5.465408 6.78516,-6.607422 2.95093,-1.387154 6.46005,-1.976867 9.85937,-1.80664 z m -131.67773,0.298828 h 8.7207 8.71875 v 4.580079 4.576171 l -1.06445,0.140625 c -0.58615,0.07702 -4.51114,0.09455 -8.7207,0.03711 l -7.6543,-0.103516 v -4.615234 z m -76.47852,3.044922 -2.64453,2.605469 c -1.45492,1.435081 -2.64648,2.78326 -2.64648,2.994141 0,0.210878 0.88915,1.276647 1.97461,2.36914 l 1.97265,1.986328 2.28907,-2.445312 c 1.25908,-1.345309 2.29101,-2.800576 2.29101,-3.234375 0,-0.433799 -0.72949,-1.571906 -1.61914,-2.53125 z m -11.20507,1.494141 -2.36329,2.349609 -2.36132,2.347657 2.10937,2.123046 2.10938,2.125 2.24218,-2.205078 c 1.23233,-1.212105 2.24024,-2.324826 2.24024,-2.474609 0,-0.149782 -0.8968,-1.171189 -1.99024,-2.269531 z m 4.87109,5.089844 c -0.16024,0 -1.29951,0.991578 -2.53125,2.203125 l -2.23828,2.203125 2.02148,2.037109 c 1.11172,1.118907 2.11778,2.033203 2.23828,2.033203 0.1205,0 1.22457,-1.01012 2.45313,-2.24414 l 2.23633,-2.244141 -1.94532,-1.994141 c -1.06879,-1.096431 -2.07413,-1.99414 -2.23437,-1.99414 z m -10.35742,0.378906 -2.05078,2.011719 c -1.75105,1.718873 -2.04883,2.225691 -2.04883,3.458984 0,1.066161 0.31329,1.799547 1.20117,2.804688 0.66151,0.74888 1.31094,1.361328 1.44336,1.361328 0.4101,0 5.49172,-5.155113 5.49414,-5.574219 0.001,-0.217542 -0.90584,-1.220118 -2.01758,-2.228516 z m 4.90039,5.015625 c -0.16663,0 -1.51762,1.221182 -3.00391,2.714844 l -2.70312,2.714843 1.63086,1.523438 c 2.34028,2.181764 3.27356,2.068913 6.05859,-0.728516 l 2.23633,-2.248047 -1.95703,-1.988281 c -1.07723,-1.093508 -2.09509,-1.988281 -2.26172,-1.988281 z m -13.14844,2.587891 c -0.88487,-0.168132 -1.45433,0.192746 -3.68164,2.330078 -2.16543,2.07794 -2.63477,2.744735 -2.63477,3.748047 0,0.671436 0.13025,1.349945 0.28907,1.507812 0.30733,0.305467 7.07422,-6.416617 7.07422,-7.027344 0,-0.198401 -0.47116,-0.4492 -1.04688,-0.558593 z m 2.16406,0.736328 -3.75195,3.728515 -3.75195,3.728516 5.01367,4.994141 c 4.79476,4.776505 4.9813,5.023373 4.35351,5.71289 -0.36092,0.39641 -0.65429,0.967366 -0.65429,1.265625 0,0.29827 2.30486,2.837518 5.12304,5.644531 l 5.125,5.103516 1.50977,-1.439453 c 2.76552,-2.635792 9.35995,-9.363829 9.46289,-9.654297 0.13465,-0.379836 -10.12547,-10.46875 -10.64648,-10.46875 -0.22266,-10e-7 -0.62137,0.262293 -0.88672,0.580078 -0.26534,0.317791 -0.60799,0.578125 -0.75977,0.578125 -0.15179,0 -2.49326,-2.201005 -5.20508,-4.888672 z m 216.47461,0.529297 c 0.66603,-1e-6 0.92619,0.361632 1.3086,1.828125 0.26241,1.006332 0.7889,2.521703 1.16992,3.36914 l 0.69336,1.542969 0.66601,-1.986328 c 0.3665,-1.09239 0.75416,-2.476246 0.86328,-3.074219 0.21775,-1.193567 0.73854,-1.666753 1.84375,-1.675781 0.84819,-0.0069 0.86917,-0.100606 -1.19531,5.193359 -1.93865,4.971221 -2.88834,5.278304 -4.17578,1.34961 -0.38183,-1.165228 -1.09109,-3.015467 -1.57422,-4.111329 -0.94186,-2.136352 -0.89216,-2.435546 0.40039,-2.435546 z m 23.45508,0.107421 c 3.4651,-0.103157 4.65039,0.515534 4.65039,2.421875 0,0.89548 -0.27464,1.490317 -0.90234,1.960938 l -0.90039,0.675781 1.09375,1.613281 c 1.30331,1.919507 1.36926,2.435759 0.29687,2.355469 -0.46964,-0.03516 -1.34843,-0.817877 -2.13086,-1.90039 -1.78338,-2.467375 -2.88086,-2.526566 -2.88086,-0.154297 0,1.364512 -0.15097,1.725861 -0.77734,1.888672 -0.72811,0.189238 -0.77566,0.01176 -0.7793,-2.939454 -0.002,-1.728006 -0.10315,-3.748726 -0.22656,-4.490234 l -0.22656,-1.347656 z m -0.56055,1.605469 c -0.20825,0.115536 -0.21289,0.405147 -0.21289,0.978516 0,1.119379 0.0595,1.158203 1.75391,1.158203 1.23693,0 1.82607,-0.178289 1.99023,-0.603516 0.32184,-0.833616 -0.17582,-1.181232 -2.09765,-1.46875 -0.81401,-0.121777 -1.22534,-0.18001 -1.4336,-0.06445 z m -124.22461,4.833985 c -0.25602,0 -0.38867,14.379977 -0.38867,42.371088 0,27.99116 0.13265,42.37305 0.38867,42.37305 0.25602,0 0.38672,-14.38189 0.38672,-42.37305 0,-27.991111 -0.1307,-42.371088 -0.38672,-42.371088 z m 114.70313,0.0039 c 0.93206,0.01937 1.83741,1.072962 2.5918,3.158203 1.15637,3.196489 1.62123,3.384766 8.32421,3.384766 h 5.76954 l -0.18555,0.86914 c -0.10076,0.476685 -0.35467,1.748489 -0.56836,2.828125 -1.40108,7.078817 -5.68952,11.631942 -12.64844,13.433594 -2.49579,0.646151 -3.74008,0.677874 -6.37695,0.166016 -4.27391,-0.829641 -9.41811,-4.50347 -11.2207,-8.015625 -0.90448,-1.762253 -2.34375,-6.904652 -2.34375,-8.376954 v -0.904296 l 5.52343,-0.01367 c 3.80047,-0.0094 5.80663,-0.170941 6.43555,-0.517578 0.54933,-0.30278 1.32601,-1.484881 1.94727,-2.964844 0.86123,-2.051663 1.81988,-3.066247 2.75195,-3.046875 z m -240.39453,2.152344 c -0.90981,0.0979 -1.8891,0.821322 -3.28125,2.205078 l -2.19336,2.177734 2.11328,2.125 2.11133,2.125 2.82226,-2.785156 2.82422,-2.789063 -1.52539,-1.515625 c -1.12018,-1.113423 -1.96126,-1.640867 -2.87109,-1.542968 z m 5.03515,4.005859 c -0.23628,0 -1.61306,1.167911 -3.05664,2.591797 l -2.62304,2.58789 2.02148,2.033204 c 1.11123,1.118425 2.13094,2.033203 2.26563,2.033203 0.61468,0 4.62304,-4.652576 4.62304,-5.365235 0,-0.855881 -2.51772,-3.880859 -3.23047,-3.880859 z m -11.08007,1.603516 c -0.64823,-0.06037 -1.27813,0.588792 -2.56836,1.884765 l -2.27735,2.291016 2.10938,2.123047 2.11133,2.123047 2.30078,-2.28711 2.30078,-2.289062 -1.29883,-1.470703 c -1.36199,-1.542985 -2.02949,-2.314627 -2.67773,-2.375 z m 4.61523,4.40039 -2.32227,2.283203 -2.32031,2.283203 2.02149,2.033204 c 1.11172,1.118903 2.11973,2.035156 2.24023,2.035156 0.1205,0 1.20819,-0.996651 2.41406,-2.214844 2.47119,-2.496443 2.50282,-2.20331 -0.60156,-5.087891 z m -10.30469,0.511719 -2.20703,2.298828 c -2.6638,2.775879 -2.78335,3.647238 -0.80469,5.824219 0.77081,0.848046 1.51744,1.541015 1.65821,1.541015 0.14078,-10e-7 1.46695,-1.216457 2.94922,-2.701171 l 2.69726,-2.699219 -2.14648,-2.132813 z m 45.73828,0.302734 c -0.56767,0.02162 -1.75717,1.156885 -5.76562,5.123047 -5.01983,4.966767 -5.57044,5.64019 -4.98242,6.06836 0.36368,0.264822 1.19567,0.48008 1.84765,0.478515 0.98369,-0.0023 1.8618,-0.675087 5.17383,-3.949219 2.19514,-2.170047 4.15602,-4.205647 4.35547,-4.523437 0.53111,-0.846237 0.45267,-2.057565 -0.1875,-2.910156 -0.13289,-0.176986 -0.2522,-0.294314 -0.44141,-0.28711 z m 213.5625,0.595703 c -0.28513,0.03334 -0.65718,0.169283 -1.17773,0.416016 -3.0686,1.454508 -8.60517,1.499214 -11.97266,0.09961 -1.68543,-0.700491 -2.64862,-0.565478 -2.30664,0.320313 0.26872,0.696057 2.77819,1.687841 5.39453,2.132812 4.7158,0.802042 12.32632,-1.163872 10.71289,-2.767578 -0.16731,-0.1663 -0.36525,-0.234504 -0.65039,-0.201173 z m -201.90429,2.865235 c -0.2109,0.03226 -0.41559,0.995614 -0.46875,2.865234 -0.24043,8.452227 -6.24347,14.429997 -14.83789,14.775391 -3.42093,0.137483 -3.21418,0.08969 -2.87891,0.628903 0.17778,0.28593 1.44685,0.37194 3.80273,0.25586 4.15855,-0.20492 6.77653,-1.217047 9.59375,-3.707029 3.70904,-3.278149 5.4872,-7.344717 5.29297,-12.103515 -0.0756,-1.849939 -0.29298,-2.747108 -0.5039,-2.714844 z m -3.96875,0.609375 c -0.34837,-0.119255 -0.48438,0.418709 -0.48438,1.916015 0,6.227783 -4.84382,11.078125 -11.06054,11.078125 -1.998,0 -2.49449,0.255415 -1.82618,0.939454 0.15986,0.16361 1.34677,0.215944 2.63868,0.115234 6.38913,-0.498018 11.11905,-5.242511 11.18554,-11.222656 0.0201,-1.804224 -0.12441,-2.713645 -0.45312,-2.826172 z m -48.54102,0.484375 -2.80859,2.804687 -2.81055,2.804688 1.63281,1.523437 c 2.33266,2.179567 3.28365,2.072747 6.05078,-0.677734 l 2.2168,-2.201172 -2.14062,-2.126953 z m 44.9668,0.185547 c -0.21982,0 -0.40039,0.659003 -0.40039,1.464843 0,0.805842 -0.44466,2.355111 -0.99024,3.44336 -0.80938,1.614412 -1.35821,2.160346 -2.98242,2.964844 -1.09485,0.542297 -2.65412,0.984375 -3.46484,0.984375 -1.3869,0 -1.80838,0.310433 -1.2168,0.898437 0.37897,0.376688 1.49051,0.315452 3.53125,-0.195312 2.70129,-0.676097 5.27696,-3.376293 5.91211,-6.197266 0.48682,-2.162285 0.34769,-3.363281 -0.38867,-3.363281 z m 181.22461,2.4375 c -0.15882,-0.15787 -7.07286,6.456873 -15.36524,14.697261 l -15.07617,14.98047 -0.0293,23.13672 -0.0312,23.13476 -11.0957,11.04102 c -10.63928,10.5849 -11.14912,11.03192 -12.33984,10.83984 -2.43096,-0.39211 -3.62186,2.5343 -1.60352,3.93945 1.02907,0.71641 1.42525,0.71096 2.49414,-0.0332 0.58489,-0.40721 0.86133,-0.99507 0.86133,-1.83203 0,-1.102 1.20993,-2.43605 11.43164,-12.5918 l 11.42969,-11.35937 v -23.11328 -23.11133 l 14.80859,-14.71875 c 8.14332,-8.096327 14.67446,-14.851886 14.51563,-15.009761 z M 170.55094,103.0761 c -0.20857,0.20731 4.50654,5.16668 11.6582,12.26172 l 12.00781,11.91211 v 20.62695 20.625 l 9.30078,9.23828 c 8.52747,8.47055 9.30079,9.34951 9.30079,10.56055 0,0.72649 0.28786,1.636 0.64062,2.02344 0.91714,1.00729 2.26949,0.87571 3.21289,-0.31641 1.33788,-1.69059 0.16181,-3.75226 -2.01367,-3.52734 -0.9301,0.0962 -2.25867,-1.07252 -10.36719,-9.12696 l -9.30078,-9.23633 v -20.6875 -20.6875 L 182.94742,114.7343 c -7.17391,-7.15072 -12.18792,-11.8655 -12.39648,-11.6582 z m 51.88672,0.21094 c -4.67868,-0.23027 -9.18003,2.37219 -10.40625,6.67968 -1.14844,4.03424 -0.46617,7.73892 2.56054,13.92383 1.29993,2.65639 1.67401,3.77709 1.36524,4.08399 -0.57885,0.57538 -0.54552,5.38572 0.041,5.96875 0.31653,0.31463 2.16191,0.46093 5.78321,0.46093 6.34835,0 6.53906,-0.0966 6.53906,-3.41797 0,-1.22 -0.22801,-2.52326 -0.50977,-2.90625 -0.44132,-0.59988 -0.31131,-1.06715 0.96485,-3.44531 5.02215,-9.35899 4.36506,-17.0685 -1.71485,-20.13086 -1.48444,-0.7477 -3.06352,-1.14003 -4.62304,-1.21679 z m 64.10546,1.55273 c -0.51558,-0.007 -1.03848,0.0652 -1.56054,0.2207 -1.84926,0.55072 -3.55311,2.29298 -3.89063,3.97657 -0.14278,0.7122 -0.17301,6.00312 -0.0664,11.75976 l 0.19336,10.4668 0.96875,1.04101 c 0.53287,0.57317 1.49338,1.28386 2.13281,1.57618 1.35026,0.61726 3.82158,0.38718 5.15234,-0.47852 0.48976,-0.31859 1.22921,-1.13352 1.64453,-1.81055 0.70182,-1.14401 0.75666,-2.00821 0.75782,-12.21875 v -10.98632 l -1.1836,-1.42579 c -1.13082,-1.36358 -2.60172,-2.10026 -4.14844,-2.12109 z m -64.11132,0.32227 c 4.25047,0.23036 7.7966,3.60096 7.8164,8.375 0.01,2.43145 -1.27192,6.41906 -3.36718,10.46875 l -1.4961,2.88867 -3.31445,0.11133 c -2.35189,0.0782 -3.43584,-0.0354 -3.7207,-0.38672 -0.7195,-0.8872 -3.29393,-6.22242 -4.03321,-8.35742 -1.29453,-3.73862 -0.79433,-8.41446 1.13281,-10.57227 0.36488,-0.40853 1.53584,-1.14893 2.60157,-1.64648 1.46805,-0.68539 2.96402,-0.95764 4.38086,-0.88086 z m 54.58398,18.14843 c -0.79332,0.11239 -0.83398,0.31348 -0.83398,4.16016 0,3.80377 0.0694,4.1716 1.19336,6.16406 1.31987,2.33963 3.87318,4.34168 6.39843,5.01758 l 1.51368,0.4043 v 2.08984 2.09375 l -4.16407,0.10742 c -3.98675,0.1046 -4.17245,0.14715 -4.29101,0.97657 l -0.12305,0.86718 h 9.74219 9.74023 l -0.12304,-0.86718 c -0.11856,-0.82942 -0.30038,-0.87197 -4.28711,-0.97657 l -4.16797,-0.10742 v -2.09375 -2.08984 l 1.51562,-0.4043 c 2.65627,-0.71096 5.14298,-2.7281 6.42969,-5.2168 1.06511,-2.06003 1.16016,-2.57463 1.16016,-6.1289 v -3.87891 h -0.9668 c -0.96075,0 -0.9719,0.0332 -1.16406,4.10742 -0.1793,3.8018 -0.27934,4.23435 -1.3711,5.7793 -3.74755,5.30321 -12.13019,4.45444 -14.42187,-1.45898 -0.23669,-0.61076 -0.54805,-2.80909 -0.68946,-4.88672 -0.24376,-3.58141 -0.29901,-3.77024 -1.08984,-3.65821 z m 126.91602,0.68164 -1.09375,0.93555 -1.09571,0.9375 v 10.66016 10.66015 l 0.91602,0.73438 c 0.88349,0.7109 1.96917,0.73828 31.63867,0.73828 28.71212,0 30.77778,-0.0442 31.5625,-0.67578 0.82625,-0.66512 0.83887,-0.84505 0.80859,-11.45703 -0.0293,-10.2537 -0.0701,-10.82248 -0.80859,-11.55664 -0.76217,-0.75771 -1.34111,-0.77185 -31.34961,-0.87305 z m -336.607426,3.57227 c -20.495625,-0.0782 -26.005618,0.003 -26.25,0.38672 -0.17011,0.26634 -0.311183,6.68352 -0.314453,14.26172 l -0.0078,13.77929 -1.742188,3.45118 c -0.959145,1.89821 -1.74414,3.54025 -1.74414,3.65039 0,0.11014 13.427799,0.20117 29.839843,0.20117 20.067027,0 29.839844,-0.12778 29.839844,-0.39258 0,-0.21656 -0.740625,-1.82131 -1.646484,-3.56445 L 93.650558,156.1679 93.457199,141.91594 93.26384,127.66399 Z m 394.207036,0.0547 c 0.53966,-0.11303 0.96024,0.39687 0.79882,1.22461 -0.18122,0.9291 -0.8768,1.09477 -1.49414,0.35547 -0.42567,-0.50981 -0.40194,-0.71459 0.13477,-1.24805 0.18864,-0.18752 0.38065,-0.29436 0.56055,-0.33203 z m -419.226567,1.77929 h 24.800781 24.802735 v 12.32422 12.32813 H 67.105624 42.304843 v -12.32813 z m 10.267578,4.23633 c -4.521223,0 -7.169922,0.14381 -7.169922,0.38672 0,0.24292 2.648699,0.38281 7.169922,0.38281 4.521228,10e-6 7.169922,-0.13989 7.169922,-0.38281 0,-0.24291 -2.648694,-0.38672 -7.169922,-0.38672 z m 93.009769,2.3125 c -0.45143,0 -0.58203,0.50925 -0.58203,2.28516 v 2.28711 l -1.25782,0.11914 c -1.10747,0.10618 -1.27599,0.27226 -1.38281,1.37305 l -0.12305,1.2539 h -2.29882 c -1.78667,0 -2.30079,0.1294 -2.30079,0.57813 0,0.44939 0.51572,0.57617 2.32422,0.57617 h 2.32618 v 1.92578 1.92773 h -2.35352 c -2.03237,0 -2.33603,0.0898 -2.22461,0.67188 0.10185,0.53175 0.59875,0.69993 2.35352,0.79101 l 2.22461,0.11524 v 1.70703 c 0,1.90009 -0.51876,2.24248 -3.0586,2.02539 -0.79113,-0.0677 -1.38315,0.0792 -1.48633,0.36914 -0.11759,0.33056 0.29655,0.48272 1.31641,0.48633 2.92388,0.0108 3.28034,0.26711 3.15039,2.25977 l -0.11523,1.77929 -2.10157,0.19336 c -3.04714,0.27929 -3.09279,1.15625 -0.0605,1.15625 h 2.35547 v 1.92578 1.92578 h -2.32618 c -1.80849,0 -2.32422,0.12872 -2.32422,0.57813 0,0.44871 0.51412,0.57812 2.30079,0.57812 h 2.29882 l 0.12305,1.25196 c 0.10681,1.10079 0.27535,1.26687 1.38281,1.37304 l 1.25782,0.11914 v 2.28711 c 0,1.77591 0.1306,2.28907 0.58203,2.28907 0.45212,0 0.58203,-0.5149 0.58203,-2.3125 v -2.31055 h 1.9375 1.93555 v 2.33984 c 0,2.02088 0.0938,2.31958 0.67968,2.20703 0.49975,-0.0959 0.69012,-0.53286 0.72657,-1.66406 0.0975,-3.0292 0.003,-2.88281 1.88867,-2.88281 h 1.74414 v 2.31055 c 0,2.05435 0.0864,2.3125 0.77539,2.3125 0.68896,0 0.77344,-0.25815 0.77344,-2.3125 v -2.31055 h 1.74609 c 1.63546,0 1.74588,0.0651 1.7793,1.05859 0.10246,3.0465 0.1772,3.36047 0.83593,3.48828 0.58603,0.11376 0.67774,-0.18564 0.67774,-2.20703 v -2.33984 h 1.9375 1.93945 v 2.31055 c 0,1.7976 0.12601,2.3125 0.57813,2.3125 0.45143,0 0.58203,-0.51316 0.58203,-2.28907 V 167.58 l 1.25976,-0.11914 c 1.05811,-0.10159 1.28678,-0.30522 1.45313,-1.27734 0.1899,-1.10983 0.2879,-1.15855 2.42578,-1.26953 1.63288,-0.0848 2.22461,-0.26409 2.22461,-0.67383 0,-0.42591 -0.55128,-0.56055 -2.32422,-0.56055 h -2.32617 v -1.92578 -1.92578 h 2.32617 c 1.8085,0 2.32422,-0.12872 2.32422,-0.57812 0,-0.38729 -0.41359,-0.58972 -1.25781,-0.61524 -3.3577,-0.10124 -3.1891,0.001 -3.31641,-1.96289 l -0.11523,-1.81055 2.24609,-0.11718 c 1.68861,-0.0872 2.25,-0.25949 2.25,-0.69336 0,-0.43322 -0.5578,-0.60864 -2.22852,-0.69531 l -2.22851,-0.11524 v -1.69336 -1.69531 l 2.22656,-0.11524 c 1.75479,-0.0911 2.25167,-0.25926 2.35352,-0.79101 0.11142,-0.58213 -0.1942,-0.67188 -2.22657,-0.67188 h -2.35351 v -1.92773 -1.92578 h 2.32617 c 1.8085,0 2.32422,-0.12677 2.32422,-0.57617 0,-0.44872 -0.5141,-0.57813 -2.30078,-0.57813 H 169.465 l -0.12305,-1.2539 c -0.10682,-1.10079 -0.27143,-1.26688 -1.3789,-1.37305 l -1.26172,-0.11914 v -2.28711 c 0,-1.7759 -0.1306,-2.28516 -0.58203,-2.28516 -0.45212,-1e-5 -0.57813,0.51294 -0.57813,2.31055 v 2.31055 h -1.93945 -1.9375 v -2.31055 c 0,-1.78439 -0.12917,-2.31055 -0.57227,-2.31055 -0.56682,0 -1.10625,1.32033 -0.96093,2.35547 0.2746,1.95631 0.0346,2.26563 -1.75977,2.26563 h -1.74609 v -2.31055 c 0,-2.05441 -0.0845,-2.31055 -0.77344,-2.31055 -0.68897,-1e-5 -0.77539,0.25614 -0.77539,2.31055 v 2.31055 h -1.74414 c -1.77677,0 -1.96795,-0.20419 -1.8125,-1.92579 0.10948,-1.21286 -0.40198,-2.69531 -0.92969,-2.69531 -0.41449,0 -0.55273,0.5704 -0.55273,2.31055 v 2.31055 h -1.93555 -1.9375 v -2.31055 c 0,-1.79761 -0.12991,-2.31055 -0.58203,-2.31055 z m 76.24218,0.084 c -4.54386,-0.10364 -4.74414,-0.0775 -4.74414,0.67187 0,0.7447 0.23424,0.7832 4.87305,0.7832 4.43176,0 4.86039,-0.0607 4.74219,-0.67382 -0.11396,-0.59098 -0.71321,-0.68639 -4.8711,-0.78125 z m -167.314449,1.84179 c -5.261058,0 -9.107422,0.1476 -9.107422,0.35157 0,0.19421 0.175435,0.41175 0.386719,0.48242 0.945841,0.31614 17.830078,-0.12216 17.830078,-0.46289 0,-0.22751 -3.526443,-0.3711 -9.109375,-0.3711 z m 167.509769,0.76953 c -2.64441,0 -4.91361,0.10382 -5.04102,0.23047 -0.1274,0.12665 -0.13465,0.47785 -0.0176,0.78125 0.17188,0.44504 1.11948,0.53236 4.91016,0.44532 4.11433,-0.0944 4.71026,-0.1927 4.82422,-0.78321 0.1182,-0.61271 -0.30558,-0.67383 -4.67578,-0.67383 z m 0.19726,2.61719 c -3.00897,-0.13965 -4.36806,0.28807 -3.80273,1.19727 0.15677,0.25214 1.58148,0.42383 3.53515,0.42383 2.96798,0 3.27149,-0.0708 3.27149,-0.74219 0,-0.65418 -0.34871,-0.75569 -3.00391,-0.87891 z m 180.49414,1.23438 h 31.49805 31.49805 l -0.082,2.1582 c -0.0457,1.18684 -0.16807,2.24095 -0.27149,2.34375 -0.60455,0.60089 -5.60369,0.67999 -32.33203,0.50586 -33.09932,-0.21564 -30.29379,0.0788 -30.30469,-3.17773 z m -246.79297,0.77148 c 8.71216,0 9.55446,0.0573 10.14258,0.70313 0.56011,0.61517 0.64063,1.90354 0.64063,10.15039 0,8.65964 -0.0572,9.4955 -0.70703,10.08008 -0.61888,0.55674 -1.91411,0.63671 -10.21094,0.63671 -8.71212,-1e-5 -9.55446,-0.059 -10.14258,-0.70507 -0.56011,-0.61516 -0.64062,-1.89966 -0.64062,-10.14649 0,-8.65965 0.0591,-9.49746 0.70898,-10.08203 0.61888,-0.55673 1.91217,-0.63672 10.20898,-0.63672 z m 290.45508,0.11914 c -5.38445,-0.0592 -6.45898,0.0217 -6.45898,0.48242 0,0.45839 1.12938,0.55274 6.62109,0.55274 5.12426,0 6.58422,-0.10975 6.45899,-0.48242 -0.11953,-0.35561 -1.85115,-0.50025 -6.6211,-0.55274 z m -34.36133,0.0742 c -4.71929,0 -6.36985,0.11953 -6.49023,0.47852 -0.12498,0.37269 1.34035,0.48242 6.49023,0.48242 5.14992,0 6.61522,-0.10963 6.49024,-0.48242 -0.12037,-0.35899 -1.77091,-0.47852 -6.49024,-0.47852 z m 17.2461,0 c -4.87435,0 -6.56298,0.11879 -6.6836,0.47852 -0.12514,0.37305 1.37866,0.48242 6.6836,0.48242 5.30488,0 6.81065,-0.10938 6.68555,-0.48242 -0.12062,-0.35977 -1.81126,-0.47852 -6.68555,-0.47852 z m 32.47851,0.39649 c -0.20788,-0.0615 -0.42504,-0.0648 -0.63086,0.0137 -0.64785,0.24712 -0.8835,1.34602 -0.39257,1.83398 0.48294,0.48005 1.70391,0.2605 1.93945,-0.34961 0.23325,-0.60412 -0.29242,-1.31365 -0.91602,-1.49804 z m -315.3789,0.75781 -0.10547,9.04492 c -0.0573,4.97432 -0.0195,9.26606 0.0859,9.53906 0.15061,0.38955 2.20779,0.47371 9.60156,0.39258 l 9.40625,-0.10352 v -9.43554 -9.4375 h -9.49414 z m 78.60547,0.70508 c -0.15578,0.15484 1.32834,1.89453 3.30078,3.86328 l 3.58594,3.57812 -0.0312,11.69141 c -0.0303,11.18325 -0.0652,11.71327 -0.79688,12.22265 -0.93478,0.65081 -0.99666,2.29247 -0.12305,3.25196 1.72108,1.89031 4.85093,-0.46634 3.44727,-2.59571 -0.33978,-0.51541 -0.78789,-0.9375 -0.99609,-0.9375 -0.23824,0 -0.37892,-4.39337 -0.37891,-11.85156 v -11.85156 l -3.86133,-3.82617 c -2.12456,-2.10381 -3.99071,-3.69976 -4.14648,-3.54492 z m 187.04882,0.25781 c -5.59767,-1e-5 -6.58593,0.0872 -6.58593,0.57812 0,0.49089 0.98826,0.57618 6.58593,0.57618 5.59772,0 6.5879,-0.0853 6.5879,-0.57618 0,-0.49101 -0.99018,-0.57812 -6.5879,-0.57812 z m 34.51368,0 c -5.9678,0 -7.44466,0.20034 -6.73047,0.91015 0.1363,0.13547 3.1855,0.24415 6.77344,0.24415 5.54028,0 6.52343,-0.0855 6.52343,-0.57618 0,-0.49089 -0.98902,-0.57812 -6.5664,-0.57812 z m -17.46094,0.0879 c -5.73346,-0.0917 -6.58789,-0.0283 -6.58789,0.49023 0,0.51864 0.85443,0.58196 6.58789,0.49024 4.0635,-0.065 6.58984,-0.25268 6.58984,-0.49024 0,-0.23757 -2.52634,-0.42523 -6.58984,-0.49023 z m -93.06836,0.38672 c -0.57031,0.32073 -0.7064,2.20396 -0.71094,7.13476 l -0.004,6.25782 h -2.25 c -1.23624,0 -2.45716,0.20866 -2.71289,0.46289 -0.31249,0.31061 -0.4629,2.05506 -0.4629,5.3164 0,3.26135 0.15041,5.00385 0.4629,5.31446 0.35237,0.3503 6.7299,0.46093 26.32617,0.46093 22.99197,0 25.9273,-0.0654 26.46875,-0.60351 0.48514,-0.48222 0.60937,-1.53333 0.60937,-5.17188 0,-5.46771 -0.17894,-5.77929 -3.32226,-5.77929 h -2.10352 v -6.3086 c 0,-5.13771 -0.10867,-6.39853 -0.58203,-6.78906 -0.46377,-0.38258 -0.69834,-0.38258 -1.16211,0 -0.4734,0.39053 -0.58203,1.65135 -0.58203,6.78906 v 6.3086 h -9.09766 -9.09765 l -0.10743,-6.64454 c -0.10136,-6.35275 -0.1379,-6.64453 -0.8789,-6.64453 -0.74102,0 -0.78145,0.29178 -0.88281,6.64453 l -0.10547,6.64454 h -9.08789 -9.08789 l -0.10743,-6.41211 c -0.0937,-5.65844 -0.18853,-6.45931 -0.79687,-6.83594 -0.29751,-0.1842 -0.53475,-0.25028 -0.72461,-0.14453 z m -174.91406,3.37695 c 0.48442,0 0.58203,0.77104 0.58203,4.62305 0,3.85195 -0.0976,4.62109 -0.58203,4.62109 -0.48442,0 -0.58008,-0.76914 -0.58008,-4.62109 0,-3.85201 0.0957,-4.62305 0.58008,-4.62305 z m -7.19141,0.19336 c 0.28644,0 1.1641,1.6683 2.00195,3.80859 2.03888,5.20841 2.04739,5.24219 1.37305,5.24219 -0.32489,0 -0.86415,-0.75362 -1.24023,-1.73242 -0.62705,-1.63205 -0.75333,-1.73242 -2.13282,-1.73242 -1.37927,-1e-5 -1.49701,0.0956 -2.01367,1.63672 -0.32621,0.97304 -0.82616,1.68936 -1.23242,1.76757 -0.79098,0.15243 -0.84395,0.37039 1.26172,-5.13671 0.83543,-2.18498 1.69327,-3.85352 1.98242,-3.85352 z m 134.49805,0 c -0.24035,0.14764 -0.38867,3.63202 -0.38867,9.17578 v 8.94141 l -4.85157,4.80664 c -3.90824,3.87507 -5.03047,4.78707 -5.78906,4.68945 -0.51781,-0.0666 -1.30036,0.0697 -1.73828,0.30274 -1.13566,0.60411 -1.09434,2.84027 0.0664,3.64843 0.47372,0.32981 1.04466,0.59961 1.26953,0.59961 1.12438,0 2.13086,-1.24271 2.13086,-2.6289 0,-1.31543 0.38284,-1.80904 4.84375,-6.23243 l 4.84375,-4.80273 v -9.36914 c 0,-6.14829 -0.13242,-9.28708 -0.38672,-9.13086 z m -33.68164,1.34961 c -0.2213,0 -0.23534,1.29647 -0.0625,6.83594 0.0149,0.47668 0.12519,0.86523 0.24218,0.86523 0.1171,0 0.17928,-1.73295 0.14258,-3.85156 -0.0367,-2.1186 -0.17972,-3.84961 -0.32226,-3.84961 z m -100.93946,1.1875 c -0.08,0.0882 -0.26665,0.55065 -0.41406,1.02734 -0.21998,0.71133 -0.12036,0.86524 0.5586,0.86524 0.67901,0 0.78052,-0.15391 0.56054,-0.86524 -0.30376,-0.98231 -0.49424,-1.25971 -0.70508,-1.02734 z m -56.166012,0.23242 c -0.197601,0.12139 13.046582,13.54467 29.429692,29.83008 L 156.81656,211.83 h 15.44922 15.44531 l 0.76172,0.96485 c 0.87775,1.10916 1.72418,1.21151 2.94531,0.36133 1.63022,-1.13498 0.69499,-4.02344 -1.30273,-4.02344 -0.88764,0 -2.09961,0.90516 -2.09961,1.56836 0,0.21412 -6.18435,0.35937 -15.40625,0.35937 h -15.4043 L 127.58414,181.61321 C 111.2921,165.41825 97.799315,152.26916 97.601718,152.39055 Z m 157.072262,6.66797 c -0.24572,0 -0.38867,2.88105 -0.38867,7.87695 v 7.88086 l -0.9707,0.96289 c -0.53286,0.52965 -0.9668,1.29089 -0.9668,1.69141 0,0.75659 0.93161,1.76358 1.9375,2.09375 0.63889,0.20972 1.96676,-0.34781 2.41406,-1.01367 0.55847,-0.83136 0.284,-2.03893 -0.66992,-2.92969 l -0.96875,-0.90234 v -7.83203 c -1e-5,-4.96284 -0.14107,-7.82813 -0.38672,-7.82813 z m 161.19727,0 c -0.22206,0 -12.1692,11.69948 -26.54883,26 l -26.14453,26.00195 h -18.19336 -18.19531 l -0.96875,-0.96289 c -0.53286,-0.52965 -1.31191,-0.96484 -1.73242,-0.96484 -0.69544,0 -2.3711,1.63459 -2.3711,2.3125 0,0.15472 0.36097,0.7387 0.80274,1.29687 1.01913,1.28787 2.3959,1.30974 3.39062,0.0527 l 0.76172,-0.96485 h 18.54688 18.54296 l 26.25586,-26.09375 c 14.44109,-14.35287 26.25782,-26.22723 26.25782,-26.38671 0,-0.15948 -0.18229,-0.29102 -0.4043,-0.29102 z m -76.32813,3.85352 h 2.7129 2.71289 v 2.31054 2.31055 h -2.71289 -2.7129 v -2.31055 z m 14.72657,0 h 2.51953 2.51953 v 2.31054 2.31055 h -2.51953 -2.51953 v -2.31055 z m 14.33984,0 h 2.51758 2.51953 v 2.31054 2.31055 h -2.51953 -2.51758 v -2.31055 z m -195.41406,8.85742 c -0.16116,0 -0.29102,0.16652 -0.29102,0.37109 0,0.20456 5.3254,5.65467 11.83399,12.10938 10.61663,10.52874 11.80559,11.83516 11.58593,12.70507 -0.18447,0.73058 -5.7e-4,1.21103 0.74415,1.95118 1.14552,1.13868 1.68589,1.21068 2.875,0.38281 1.02278,-0.71211 1.15782,-2.51755 0.2539,-3.41602 -0.33494,-0.33292 -1.16688,-0.60547 -1.8457,-0.60547 -1.10199,0 -2.49928,-1.25978 -13.04883,-11.75 -6.49824,-6.46171 -11.94625,-11.74804 -12.10742,-11.74804 z m 162.34375,5.13476 c -0.15837,-0.15741 -4.94525,4.33399 -10.63867,9.97852 -9.29699,9.21706 -10.45778,10.24002 -11.38086,10.05469 -2.32767,-0.46732 -3.67942,2.99858 -1.49219,3.82617 0.94247,0.3566 1.93568,0.31066 2.76562,-0.13086 0.58945,-0.31354 0.7493,-0.73378 0.66211,-1.74024 -0.10984,-1.26756 0.34106,-1.77958 10.12891,-11.51367 5.63362,-5.60268 10.11345,-10.31719 9.95508,-10.47461 z m -84.09375,14.56446 v 0.002 c -1.81518,0.0379 -3.44922,0.13562 -4.7168,0.30078 -16.88471,2.20007 -31.86126,10.60152 -42.49609,23.83984 -2.45603,3.05729 -2.70918,4.02619 -1.46094,5.60352 0.61832,0.78134 1.1446,1.01563 2.28906,1.01563 1.37654,0 1.63835,-0.1921 3.51758,-2.59961 1.11625,-1.43006 3.54243,-4.07224 5.39453,-5.87305 8.17964,-7.95319 18.82858,-13.43453 30.42969,-15.66211 4.83979,-0.9296 15.67821,-0.9333 20.73437,-0.01 4.33692,0.79329 11.88784,3.27002 15.52735,5.0918 6.90346,3.45559 14.56629,9.562 19.18359,15.29102 1.24005,1.5386 2.51496,3.01446 2.83399,3.27929 0.89645,0.74411 3.03953,0.58601 3.91992,-0.28906 1.79444,-1.78365 0.73158,-3.9682 -4.81445,-9.9043 -8.79502,-9.41344 -21.04543,-16.2297 -34.13282,-18.99218 -3.6901,-0.77892 -10.76348,-1.20745 -16.20898,-1.09375 z m 157.76367,6.22461 c -5.1392,-0.081 -10.19001,2.22046 -13.56445,6.63476 -5.44745,7.12597 -4.13386,17.79469 2.87109,23.32031 2.25167,1.77614 3.56007,2.41304 6.63477,3.23633 2.50252,0.67011 4.66757,0.72028 7.32812,0.16406 11.36731,-2.37648 17.13611,-15.06958 11.27344,-24.80273 -1.8721,-3.10805 -2.59145,-3.85511 -5.54102,-5.77344 -2.80351,-1.82338 -5.9184,-2.73068 -9.00195,-2.77929 z m 0.53516,1.05468 1.42578,0.72657 c 2.24156,1.14613 4.36027,3.70453 4.86523,5.87304 0.20771,0.89204 0.0957,1.05993 -0.82812,1.25586 -0.58599,0.12428 -2.03782,0.30522 -3.22852,0.40235 l -2.16601,0.17578 -0.0332,-4.2168 z m -1.99414,0.75586 c 0.72196,0 0.77343,0.26016 0.77343,3.85352 0,2.11859 -0.0446,3.823 -0.0976,3.78906 -0.0533,-0.034 -0.70521,-0.12249 -1.45117,-0.19531 -3.78297,-0.36915 -4.6504,-0.57955 -4.6504,-1.13086 0,-1.87534 3.81472,-6.31641 5.42579,-6.31641 z m -4.16797,0.70899 -0.77149,1.08984 c -0.42516,0.59964 -1.14896,1.82811 -1.60742,2.72852 -0.93179,1.82998 -0.96211,1.84118 -2.50586,1.00976 l -1.10351,-0.5957 1.10351,-1.1582 c 0.60835,-0.63701 1.95891,-1.59027 2.99805,-2.11719 z m 11.2832,0.17968 c 0.083,-0.0824 0.82665,0.15577 1.65234,0.53125 1.86916,0.85009 4.08244,2.98169 3.81446,3.67579 -0.11033,0.28592 -0.72366,0.71655 -1.35938,0.95507 -0.99561,0.37354 -1.20841,0.33482 -1.53906,-0.27929 -0.21112,-0.39213 -0.38281,-0.95913 -0.38281,-1.26172 0,-0.30258 -0.52578,-1.20851 -1.16797,-2.01172 -0.64218,-0.80321 -1.10053,-1.52692 -1.01758,-1.60938 z m -316.5625,3.74415 c -1.261853,0.0846 -2.345546,0.37364 -3.082031,0.85351 -3.140917,2.04653 -4.100421,5.50728 -2.439453,8.78125 0.69797,1.37579 1.313955,1.93977 3.097656,2.82617 l 2.228516,1.10742 v 4.13672 c 0,4.06908 -0.0132,4.13243 -0.871094,4.00977 -0.479574,-0.0686 -4.142232,-0.50608 -8.138672,-0.97266 l -7.265625,-0.84961 V 221.039 c 0,-2.11226 -0.167604,-3.15635 -0.568359,-3.55469 -0.786044,-0.78131 -6.602473,-1.284 -7.384766,-0.63867 -0.770874,0.63593 -0.850065,13.80263 -0.08789,14.5918 0.361182,0.37399 1.32132,0.4425 3.777344,0.26562 3.67289,-0.26454 4.263672,-0.65325 4.263672,-2.80469 0,-0.76467 0.193731,-1.27388 0.484375,-1.27148 0.266431,0.002 4.83519,0.51782 10.154297,1.14648 10.50629,1.24174 10.27011,1.26618 10.28125,-1.02734 0.005,-1.0532 -0.14335,-1.24488 -1.05859,-1.34961 l -1.06641,-0.12109 -0.10938,-3.99414 c -0.0869,-3.12903 -0.006,-3.95614 0.38477,-3.8125 0.41465,0.15255 21.20671,6.96551 22.66797,7.42773 1.25834,0.39803 2.10333,-1.22155 3.61914,-6.93945 0.84246,-3.17791 1.53048,-5.80762 1.53125,-5.8418 7.9e-4,-0.0342 1.22983,-0.5398 2.73047,-1.125 2.13434,-0.83236 2.61972,-1.16176 2.22851,-1.50976 -0.27505,-0.24468 -7.03833,-1.60398 -15.03125,-3.02149 -7.99287,-1.41752 -15.27858,-2.74736 -16.1875,-2.95508 -1.45624,-0.3328 -2.896347,-0.45182 -4.1582,-0.36718 z m 298.27148,1.57031 1.7129,0.82812 c 1.29971,0.62766 1.66083,0.99185 1.49609,1.50782 -0.11953,0.37422 -0.33669,1.77053 -0.48438,3.10156 l -0.26953,2.41992 -2.66211,0.11328 -2.66211,0.11524 0.26368,-1.76563 c 0.28399,-1.88233 1.06918,-3.99093 2.02148,-5.43555 z m 25.21875,0.0996 c 0.19494,0.0504 0.36824,0.2083 0.57422,0.48828 0.29127,0.39592 0.62311,0.66441 0.73828,0.59375 0.11517,-0.0707 0.32667,-0.001 0.46875,0.15625 0.1421,0.15781 0.0399,0.16084 -0.22656,0.01 -0.64118,-0.36677 -0.61856,-0.2205 0.29102,1.88868 0.42629,0.9885 0.77539,2.47676 0.77539,3.30664 v 1.50586 h -2.4375 -2.4336 l -0.51757,-2.78516 c -0.28512,-1.53226 -0.60335,-3.00006 -0.70508,-3.26367 -0.10342,-0.26773 0.30339,-0.67464 0.91992,-0.91797 0.60708,-0.23958 1.43898,-0.60805 1.84961,-0.82227 0.29039,-0.1515 0.50818,-0.21062 0.70312,-0.16015 z m -6.11718,2.14453 c 1.65107,-0.0188 1.71434,0.6824 1.92578,3.45508 l 0.17969,2.35156 h -3.81446 -3.8164 l -0.27149,-2.33594 c -0.14995,-1.28416 -0.15332,-2.45566 -0.008,-2.60156 0.14596,-0.14589 1.74808,-0.44203 3.56055,-0.66016 0.96725,-0.11641 1.69378,-0.20272 2.24414,-0.20898 z M 402.4982,208.08 c 0.55079,0.006 1.32543,0.0827 2.35157,0.23438 1.63122,0.24119 3.12329,0.34244 3.31835,0.22266 0.20171,-0.12391 0.35547,0.9535 0.35547,2.5 v 2.7207 h -3.92968 -3.92579 l 0.20313,-2.54102 c 0.11275,-1.3966 0.38782,-2.71924 0.60937,-2.93945 0.13938,-0.13856 0.46679,-0.20349 1.01758,-0.19727 z m -148.33984,2.46875 c -3.1257,0.0398 -6.23155,0.27211 -8.14063,0.67969 -9.16129,1.95589 -17.0025,6.18895 -23.3789,12.625 -3.46569,3.49813 -5.16992,5.78432 -5.16992,6.93555 0,0.41046 0.52903,1.2712 1.17382,1.91211 1.44643,1.43771 2.75279,1.26934 4.38672,-0.56445 7.63561,-8.56982 13.17957,-12.17712 22.73047,-14.78711 1.99043,-0.54393 3.94198,-0.68473 9.30078,-0.66993 6.23319,0.0173 7.06193,0.10464 10.26758,1.06641 8.49648,2.54906 14.81107,6.82798 20.79883,14.0957 1.21145,1.4704 1.61781,1.71485 2.85547,1.71485 1.69998,0 2.89258,-1.17592 2.89258,-2.85352 0,-2.2541 -5.85043,-8.55846 -11.43164,-12.3164 -5.40046,-3.63625 -11.7948,-6.25015 -18.01954,-7.36719 -1.99408,-0.35787 -5.13992,-0.51049 -8.26562,-0.47071 z m -134.49024,3.73829 c 0.51119,-0.12752 1.18631,-0.0178 1.50391,0.24414 0.81492,0.67226 0.7152,2.2048 -0.17383,2.67773 -0.99671,0.53021 -1.06788,0.51675 -1.93359,-0.34375 -0.95098,-0.94525 -0.64142,-2.26752 0.60351,-2.57812 z m 10.21485,0.2539 c -0.41176,0.004 -0.82498,0.14546 -0.99805,0.42383 -0.14957,0.24054 -0.76002,2.35617 -1.35742,4.70313 -0.78689,3.09124 -0.97169,4.40459 -0.67188,4.76367 0.52492,0.6287 1.28091,0.63421 1.75,0.0137 0.58172,-0.76965 2.55875,-9.03605 2.27149,-9.49805 -0.17114,-0.27523 -0.58236,-0.40998 -0.99414,-0.40625 z m 263.81055,0.71875 2.66796,0.11524 2.66797,0.11523 0.26953,2.41992 c 0.14769,1.33104 0.36485,2.72734 0.48438,3.10157 0.16529,0.51768 -0.20489,0.88515 -1.54688,1.5332 l -1.76171,0.84961 -1.13086,-2.41211 c -0.62107,-1.32629 -1.24695,-3.15567 -1.39063,-4.06641 z m 7.08203,0.0391 h 3.87304 3.875 v 2.45899 2.46094 l -1.64648,0.22656 c -0.90586,0.12531 -2.53573,0.33895 -3.62305,0.47266 l -1.97851,0.24023 -0.2461,-1.48438 c -0.13593,-0.81755 -0.24637,-2.13717 -0.25,-2.93164 z m 9.29882,0 h 3.91797 3.91993 l -0.21094,1.25 c -0.11626,0.68854 -0.32739,1.98828 -0.4668,2.88868 -0.28681,1.85254 -0.27488,1.85099 -4.73633,1.16992 l -2.42383,-0.36914 v -2.47266 z m 9.39649,0 h 2.52148 2.52149 l -0.18946,1.67774 c -0.10464,0.92296 -0.64267,2.65592 -1.19335,3.85156 -1.06967,2.32243 -1.31524,2.44196 -3.26954,1.59766 -1.44001,-0.62214 -1.39833,-0.40112 -0.82617,-4.22461 z m -287.79297,1.53907 c -0.73927,0 -2.3229,6.22251 -1.68359,6.61523 0.60513,0.37175 0.58617,0.40696 1.45507,-2.61328 0.90119,-3.13231 0.95024,-4.00195 0.22852,-4.00195 z M 22.660312,220.3652 c -0.734566,0.60597 -0.657341,0.84563 0.830078,2.61524 0.736115,0.87573 1.251104,1.81771 1.144531,2.09375 -0.12102,0.31346 0.286135,0.6469 1.083985,0.88671 0.702599,0.21122 1.373614,0.33634 1.492187,0.27735 0.454498,-0.22587 -0.122828,-2.85352 -0.626953,-2.85352 -0.285789,0 -1.168702,-0.774 -1.964844,-1.7207 -1.112624,-1.32307 -1.567415,-1.62185 -1.958984,-1.29883 z m 387.414058,1.41992 1.06446,0.20117 c 0.58615,0.11159 1.98255,0.31806 3.10156,0.45508 1.11901,0.13703 2.03516,0.31985 2.03516,0.40821 0,0.0883 -0.35607,0.8949 -0.78907,1.79296 -0.88154,1.82861 -2.04345,3.25126 -3.46679,4.24219 -1.78536,1.24298 -1.94532,0.97822 -1.94532,-3.21679 z m -1.84179,0.32617 c 0.15986,0.0915 0.29101,1.80063 0.29101,3.80079 0,3.37808 -0.0545,3.63867 -0.77343,3.63867 -1.12249,0 -3.56125,-2.34545 -4.81055,-4.62696 -0.59409,-1.08491 -1.01106,-2.04218 -0.92774,-2.125 0.2455,-0.24398 5.90306,-0.86916 6.22071,-0.6875 z m -20.1543,1.27344 c -0.16196,0 -3.60487,3.29502 -7.65039,7.32031 l -7.35547,7.31836 H 341.98648 310.9025 l -0.99414,-0.98437 c -0.72674,-0.72188 -1.2259,-0.92132 -1.85938,-0.73438 -1.77956,0.52519 -2.38179,2.4055 -1.1914,3.71289 0.86494,0.95001 2.70693,0.91296 3.32226,-0.0664 0.47754,-0.75957 0.90547,-0.77149 31.72266,-0.77149 h 31.23633 l 7.61523,-7.5625 c 7.01668,-6.96762 8.14109,-8.23242 7.32422,-8.23242 z m 12.23828,0.0312 c 0.31908,-0.0166 0.45899,0.14203 0.45899,0.47461 0,0.27729 0.59574,1.49153 1.32617,2.69727 0.73047,1.20574 1.29536,2.19186 1.25781,2.18945 -0.46504,-0.0246 -4.16576,-2.46596 -4.85351,-3.20117 l -0.91016,-0.97266 1.18359,-0.60937 c 0.71975,-0.36994 1.21803,-0.56157 1.53711,-0.57813 z m 18.21875,0.17969 c 0.35541,0.14591 0.95317,0.35038 1.32617,0.45703 0.373,0.10665 0.67579,0.31341 0.67579,0.45899 0,0.36546 -2.30737,2.46261 -3.48633,3.16796 -2.05743,1.23098 -2.43213,1.19002 -1.43555,-0.1582 0.50635,-0.685 1.22568,-1.90832 1.59766,-2.71875 0.51218,-1.116 0.83293,-1.40795 1.32226,-1.20703 z M 18.42789,223.7714 c -1.070072,0 -0.929848,0.88137 0.396484,2.49024 0.789633,0.9578 1.293941,1.92875 1.169922,2.25 -0.156515,0.40541 0.201877,0.66821 1.261719,0.92968 0.812744,0.20053 1.525579,0.32924 1.585938,0.28711 0.06036,-0.0421 -0.0023,-0.779 -0.140625,-1.63867 -0.168448,-1.04708 -0.415085,-1.50004 -0.748047,-1.37305 -0.273375,0.10424 -1.066887,-0.51511 -1.763672,-1.37695 -0.696786,-0.86184 -1.490255,-1.56836 -1.761719,-1.56836 z m 13.507813,2.7168 c -0.611825,0.0209 -2.268506,1.1068 -5.75,3.68554 -5.984242,4.43262 -5.737283,4.21293 -5.408204,4.74219 0.145357,0.23379 0.469002,0.30113 0.720704,0.15039 1.610926,-0.96475 10.730468,-7.98408 10.730468,-8.25976 0,-0.21318 -0.08903,-0.32536 -0.292968,-0.31836 z m 3.548828,0.75 c -0.624838,0 -28.8359378,21.33599 -28.8359378,21.80859 0,0.40597 0.6926614,0.53516 2.9082031,0.53516 h 2.9062497 v 14.79687 c 0,11.47829 0.110579,14.83991 0.486328,14.99024 0.266431,0.10665 1.790098,0.16489 3.388672,0.1289 l 2.90625,-0.0645 0.101563,-12.23047 0.105469,-12.23047 h 16.076171 16.078125 v 12.09375 c 0,9.93493 0.09318,12.12907 0.533204,12.29688 0.438993,0.16747 5.096508,0.11427 6.15039,-0.0703 0.159858,-0.0281 0.291016,-6.72623 0.291016,-14.88282 v -14.82812 h 2.90625 c 2.205632,0 2.90625,-0.12797 2.90625,-0.5293 0,-0.46985 -28.285528,-21.81445 -28.908203,-21.81445 z m 435.191409,0.82422 c -1.54873,-0.0347 -3.104,0.19638 -4.28907,0.70312 -2.40978,1.03042 -4.59359,3.14883 -4.22656,4.09961 0.22315,0.57794 0.45251,0.48206 1.69727,-0.70312 3.86834,-3.68319 8.93529,-3.87743 12.66211,-0.48438 1.47345,1.34148 2.53515,1.71922 2.53515,0.90234 0,-0.66513 -2.4518,-2.81722 -4.12695,-3.62304 -1.16263,-0.55924 -2.70323,-0.85989 -4.25195,-0.89453 z m -215.03321,0.60156 c -6.00891,-0.18748 -12.08542,1.61878 -17.21679,5.45117 -2.10312,1.57073 -4.97603,4.58528 -5.7461,6.03125 -0.56906,1.06854 -0.16529,2.79387 0.8125,3.47461 1.74363,1.21393 2.86906,0.76206 6.01953,-2.41797 4.3976,-4.43875 9.47367,-6.64453 15.28516,-6.64453 5.78213,0 10.50608,2.07425 15.11133,6.63281 2.57524,2.54916 3.22152,2.9961 4.33008,2.9961 1.48325,0 2.91211,-1.42483 2.91211,-2.90625 0,-1.04699 -2.34871,-4.09813 -4.70118,-6.10547 -4.8565,-4.14405 -10.79767,-6.32425 -16.80664,-6.51172 z M 9.1954682,230.1718 c -0.8576851,0.32714 -0.7828532,0.56788 0.7851562,2.56836 0.7656196,0.9768 1.2857356,1.94335 1.1582036,2.14844 -0.127522,0.20511 0.250426,0.54653 0.83789,0.75976 1.604075,0.58222 2.153522,0.53599 1.884766,-0.16015 -0.129376,-0.33511 -0.236328,-1.04705 -0.236328,-1.58203 0,-0.69857 -0.160169,-0.91035 -0.570313,-0.75391 -0.31407,0.11978 -0.707546,-0.0103 -0.873047,-0.28711 -0.916759,-1.53857 -2.4317562,-2.90489 -2.9863278,-2.69336 z m 461.9335918,2.08594 c -1.45535,-0.16671 -2.97167,0.14098 -4.1914,0.96484 -0.84548,0.57109 -1.44532,1.29214 -1.44532,1.73438 0,0.91112 0.49713,0.9765 1.1836,0.15429 0.73873,-0.8847 2.50542,-1.70898 3.66601,-1.70898 1.1781,0 2.34876,0.5436 3.58399,1.66211 0.66675,0.60372 0.98547,0.68628 1.32812,0.3457 0.34267,-0.34058 0.2719,-0.64506 -0.29492,-1.26758 -0.97947,-1.07575 -2.37473,-1.71804 -3.83008,-1.88476 z m -300.64062,0.375 c -15.18304,0 -23.16407,0.1303 -23.16407,0.38281 0,0.25247 7.91663,0.38672 22.97071,0.38672 h 22.96679 l 3.86524,3.85547 c 3.34556,3.33795 3.84708,4.00502 3.74414,4.98047 -0.0785,0.74299 0.15495,1.39838 0.68359,1.92383 1.01168,1.00555 2.13028,1.01405 3.125,0.0254 0.99819,-0.99223 0.98575,-2.10238 -0.0371,-3.11914 -0.56039,-0.55706 -1.15535,-0.75747 -1.91601,-0.64649 -0.96907,0.14138 -1.59391,-0.32772 -5.0918,-3.8164 l -3.98437,-3.97266 z m -165.6621124,0.875 c -0.1368351,0.0655 -0.2736965,0.19717 -0.4335938,0.38867 -0.3082829,0.36923 -0.070412,0.92884 0.9316406,2.1875 0.739826,0.92929 1.2790264,1.87537 1.1992188,2.10352 -0.079796,0.22815 0.3981155,0.61652 1.0585937,0.86523 1.6470664,0.62022 1.7814467,0.60891 1.7753907,-0.16211 -0.0099,-1.26583 -0.4593999,-2.35326 -0.90625,-2.19726 -0.2454301,0.0857 -1.0323851,-0.62058 -1.75,-1.56836 -1.0515997,-1.38892 -1.4644952,-1.81369 -1.875,-1.61719 z m 13.6484374,2.58984 c -0.716869,0 -11.0488281,7.61258 -11.0488281,8.14063 0,0.18472 0.2280254,0.33594 0.5078125,0.33594 0.5883247,0 10.8591416,-7.52126 11.0527346,-8.09375 0.07105,-0.21011 -0.158689,-0.38282 -0.511719,-0.38282 z m 450.074215,0.41797 c -1.33585,0.0456 -1.16968,0.50223 -0.76757,2.56836 l 0.32031,1.63672 -5.4707,0.0117 c -3.00867,0.006 -7.0945,0.16649 -9.08008,0.35742 -5.22121,0.50205 -6.58806,1.31135 -9.85547,5.83594 -1.43753,1.99058 -2.76562,3.80213 -2.95117,4.02734 -0.18551,0.22521 -0.53733,0.77715 -0.7793,1.22656 -0.59536,1.10579 -0.58413,10.65846 0.0137,11.77344 0.57153,1.06659 1.49476,1.77915 2.33203,1.79492 0.35863,0.007 0.75356,0.32843 0.87696,0.71485 0.35459,1.11048 2.31669,2.77631 3.95117,3.35547 3.12155,1.10612 5.99185,0.25722 8.33594,-2.46485 l 1.37304,-1.59375 h 15.75586 c 9.80267,0 15.75195,0.13915 15.75195,0.36914 0,0.93734 3.02315,3.35986 4.8125,3.85742 3.10799,0.86494 6.69203,-0.48013 8.24415,-3.09179 0.60677,-1.02105 0.87712,-1.13477 2.63867,-1.13477 1.14823,0 2.31616,-0.24861 2.82031,-0.59961 0.79711,-0.55497 0.86133,-0.90195 0.86133,-4.64843 0,-2.22643 -0.17817,-4.38192 -0.39844,-4.79102 -0.66532,-1.23564 -2.9736,-2.11823 -9.56836,-3.6543 -3.45728,-0.80527 -6.42281,-1.56324 -6.58984,-1.68554 -0.16703,-0.12231 -1.30543,-1.472 -2.53125,-2.99805 -3.80342,-4.73498 -5.83649,-5.81174 -11.72071,-6.20899 l -3.87304,-0.25976 0.13086,-1.1543 c 0.38347,-3.30061 0.58472,-3.07047 -2.74805,-3.19531 -0.826,-0.0309 -1.43948,-0.062 -1.88477,-0.0469 z m 1.78711,1.89258 c 0.74601,0 1.35547,0.17485 1.35547,0.38672 0,0.21186 -0.60946,0.38476 -1.35547,0.38476 -0.746,0 -1.35742,-0.1729 -1.35742,-0.38476 0,-0.21187 0.61142,-0.38672 1.35742,-0.38672 z m -7.4707,3.91992 c 12.82318,-0.13511 17.57144,0.20979 20.01563,1.44922 1.24186,0.62974 5.35644,4.72594 5.60546,5.58008 0.0351,0.12037 -10.09411,0.26407 -22.50976,0.31836 -12.4157,0.0543 -22.56042,0.0119 -22.54492,-0.0937 0.0155,-0.10593 0.8497,-1.3146 1.85547,-2.6836 1.29426,-1.76169 2.38631,-2.77478 3.73828,-3.46679 1.90489,-0.97503 1.94526,-0.9782 13.83984,-1.10352 z m -208.86719,9.17188 c -2.22276,0.0449 -4.4032,0.17781 -5.08398,0.37304 -0.71671,0.20554 -1.41687,0.3509 -1.55274,0.32032 -0.52069,-0.11724 -3.83283,1.01836 -6.08789,2.08789 -3.70568,1.75756 -7.48519,4.84535 -9.73047,7.94726 -5.0615,6.99273 -6.74792,17.60476 -4.32421,27.20899 2.594,10.27925 9.93437,17.39532 20.28515,19.66406 3.29211,0.72162 10.49053,0.69948 13.875,-0.041 1.53408,-0.33567 4.39793,-1.37629 6.36524,-2.31445 2.83133,-1.3502 4.16245,-2.28741 6.39257,-4.49609 1.54957,-1.53468 3.47654,-3.91527 4.28125,-5.29102 6.2605,-10.70257 5.09106,-27.98012 -2.43359,-35.94336 -1.11185,-1.17665 -2.26788,-2.48961 -2.56836,-2.91601 -0.30044,-0.42639 -1.41336,-1.24619 -2.47461,-1.82032 -1.06124,-0.57412 -1.92969,-1.18899 -1.92969,-1.36718 0,-0.1782 -0.2675,-0.32227 -0.5957,-0.32227 -0.32821,0 -1.33119,-0.37302 -2.22851,-0.82812 -1.46337,-0.74214 -4.15869,-1.56671 -6.86329,-2.09766 -0.83832,-0.16458 -3.1034,-0.20891 -5.32617,-0.16406 z m -54.74218,0.39257 v 28.50391 28.50586 h 6.9746 6.97657 V 280.39641 251.8925 h -6.97657 z m 89.11328,0 0.10742,6.06641 0.10547,6.06836 7.26758,0.10352 7.26562,0.10546 v 22.33204 22.33398 h 6.97461 6.97656 v -22.34375 -22.3418 h 7.36328 7.36328 v -6.16211 -6.16211 h -21.71289 z m -98.9375,3.12696 c -0.52046,0.0305 -1.03511,0.33708 -1.58399,0.92578 l -0.90625,0.97461 -58.34765,-0.008 c -38.19138,-0.005 -58.428398,0.12671 -58.583989,0.37695 -0.156867,0.25228 19.686658,0.38086 58.345699,0.38086 h 58.58204 l 0.76171,0.96289 c 0.9243,1.16799 2.35552,1.24941 3.41797,0.19336 1.00873,-1.0026 0.98158,-2.08865 -0.0742,-3.06641 -0.56522,-0.52344 -1.09086,-0.77071 -1.61132,-0.74023 z m 153.58789,0.008 c -0.42677,-0.0566 -0.85872,0.13108 -1.45313,0.54492 -1.02283,0.7121 -1.15586,2.5195 -0.25195,3.41797 1.0444,1.0381 3.6543,0.49843 3.6543,-0.75586 0,-0.49215 5.45016,-0.56445 42.6289,-0.56445 28.24669,0 42.62696,-0.13071 42.62696,-0.38672 0,-0.25612 -14.29237,-0.37983 -42.39844,-0.36719 l -42.39844,0.0195 -0.98828,-0.98047 c -0.57208,-0.56861 -0.99313,-0.87109 -1.41992,-0.92773 z m 152.19531,3.0293 c 2.74685,0.005 4.89648,2.13146 4.89648,4.84375 0,1.79154 -0.78757,3.28354 -2.22656,4.2207 -3.28727,2.14094 -7.71875,-0.24459 -7.71875,-4.15234 0,-2.92645 2.04469,-4.91693 5.04883,-4.91211 z m -45.47852,0.006 c 5.24366,-0.02 6.83218,7.12277 2.08204,9.36328 -1.75417,0.82744 -2.88014,0.81423 -4.51758,-0.0586 -2.59517,-1.38336 -3.45798,-4.66375 -1.85157,-7.0332 1.08533,-1.60082 2.33668,-2.26426 4.28711,-2.27148 z m -415.765621,0.95703 0.128906,1.44336 c 0.126549,1.4372 0.118653,1.44604 -1.357422,1.46289 -1.789954,0.0205 -4.166829,0.81702 -5.195312,1.74219 -0.414019,0.37242 -0.942322,1.30421 -1.173828,2.07226 -0.391394,1.29847 -0.51101,1.3861 -1.734375,1.24414 -1.664878,-0.1932 -2.266157,0.86394 -1.048829,1.84375 0.692961,0.55773 0.724559,0.72686 0.257813,1.36133 -0.55675,0.75682 -0.790482,8.28098 -0.273438,8.79492 0.142097,0.14123 1.274242,0.25586 2.517579,0.25586 2.15296,0 2.259765,-0.0437 2.259765,-0.96094 v -0.96484 h 7.169922 7.167969 v 0.96484 c 0,0.91822 0.107519,0.96094 2.285156,0.96094 1.724977,0 2.341855,-0.14914 2.519531,-0.60937 0.47875,-1.24008 0.250007,-7.69535 -0.298828,-8.44141 -0.466748,-0.63447 -0.435147,-0.8036 0.257813,-1.36133 1.180412,-0.95009 0.624732,-1.99553 -0.980469,-1.8418 -1.151014,0.11026 -1.319324,-0.0148 -1.888672,-1.41992 -0.834557,-2.05961 -2.575562,-3.17988 -5.439453,-3.50195 l -2.316406,-0.26172 0.121093,-1.39258 c 0.120754,-1.38719 0.117145,-1.39062 -1.427734,-1.39062 z m 1.333984,2.11719 c 0.200565,-10e-6 0.471786,0.17485 0.603516,0.38671 0.13173,0.21186 -0.03098,0.38282 -0.363281,0.38282 -0.332294,0 -0.603516,-0.17096 -0.603516,-0.38282 0,-0.21186 0.162715,-0.38671 0.363281,-0.38671 z m 217.953127,3.1582 c 6.29691,-0.31821 10.58564,1.8282 12.94922,6.48633 1.54014,3.03527 2.03712,5.55121 2.00781,10.15039 -0.0539,8.47926 -3.72989,14.1861 -10.05469,15.61523 -4.10465,0.92748 -8.93019,0.20349 -11.74609,-1.76367 -3.7452,-2.61637 -5.66909,-6.68915 -5.99219,-12.69336 -0.44449,-8.2604 2.07334,-13.87981 7.44531,-16.62109 1.54347,-0.78761 2.689,-1.03731 5.39063,-1.17383 z m 139.37695,4.16211 v 1.15429 c 0,0.63558 0.17553,1.15625 0.38867,1.15625 0.24218,0 0.38868,2.30269 0.38868,6.14063 v 6.14258 l 1.83984,0.14453 c 1.01244,0.0793 -2.25869,0.17744 -7.26758,0.2168 -5.00886,0.0394 -9.73035,0.24276 -10.49219,0.45312 -1.86986,0.51631 -3.09243,1.90662 -3.34961,3.8125 l -0.21289,1.57813 h 3.17578 c 2.01743,0 3.08778,0.14193 2.93555,0.38671 -0.13172,0.21186 -1.27668,0.38477 -2.54297,0.38477 h -2.30273 v 13.67773 13.67969 l 16.56836,-0.10156 16.5664,-0.0977 0.10352,-9.88672 0.10352,-9.88671 1.40234,0.38281 c 1.19849,0.32892 1.51503,0.27398 2.17187,-0.37891 0.76695,-0.76235 0.76513,-0.76524 -1.07031,-1.57226 -1.01217,-0.44503 -1.99364,-0.8086 -2.17969,-0.8086 -0.18606,0 -0.33789,-1.29972 -0.33789,-2.88867 10e-6,-2.41421 0.10273,-2.89062 0.63086,-2.89062 0.50492,0 0.58854,-0.26925 0.41407,-1.33789 -0.42032,-2.57458 -1.9821,-3.8812 -5.16211,-4.31446 l -1.69532,-0.23047 v -6.11523 c 0,-3.96516 0.15638,-6.36903 0.44727,-6.83203 0.24674,-0.39277 0.34054,-0.99595 0.20703,-1.3418 -0.20798,-0.53879 -0.99347,-0.62695 -5.48633,-0.62695 z m -348.232421,1.95508 c 0.44688,0.12084 0.806641,0.58321 0.806641,1.3164 0,0.87826 -0.193766,1.18422 -0.808594,1.27149 -1.178867,0.16742 -1.879582,-0.81258 -1.322265,-1.84766 0.344593,-0.64001 0.877342,-0.86107 1.324218,-0.74023 z m -17.123046,0.12695 c 0.762114,0.19963 1.269924,0.98841 0.833984,1.67969 -0.447368,0.70944 -1.74181,1.0738 -2.199219,0.61914 -0.600224,-0.59662 -0.260177,-2.02397 0.542969,-2.27735 0.285413,-0.09 0.568226,-0.0881 0.822266,-0.0215 z m 5.835937,0.32617 c 1.447585,-0.0743 3.71383,-0.0727 5.037109,0.002 1.323284,0.075 0.140005,0.13554 -2.630859,0.13477 -2.770864,-6.8e-4 -3.85383,-0.0625 -2.40625,-0.13672 z m 79.37695,0.0859 c -0.2688,-0.005 -0.5493,0.057 -0.82031,0.20117 -0.44917,0.23894 -0.77539,0.80626 -0.77539,1.34961 0,0.93622 -0.006,0.93893 -4.73047,1.04687 l -4.73242,0.10743 -0.25391,1.24023 c -0.13984,0.68144 -0.20665,1.28563 -0.14648,1.3457 0.0602,0.0598 5.19406,0.0616 11.40625,0.002 l 11.29297,-0.10742 -0.11914,-1.24024 -0.1211,-1.24023 -4.74804,-0.10743 c -4.74137,-0.10794 -4.7461,-0.11042 -4.7461,-1.04687 0,-0.90449 -0.69946,-1.53487 -1.50586,-1.55078 z m 216.17578,2.11133 c -0.67618,0.002 -1.3308,0.33453 -1.76562,0.99414 -1.31257,1.99119 1.12763,4.41796 3.13086,3.11328 0.54159,-0.35272 0.98242,-0.81256 0.98242,-1.01953 0,-0.23483 3.61048,-0.375 9.59766,-0.375 h 9.59375 l 8.71289,8.66601 c 7.97883,7.93669 9.61116,9.397 9.23242,8.26758 -0.0735,-0.21898 -4.04193,-4.29105 -8.81641,-9.05078 l -8.67968,-8.6543 h -9.66797 -9.66602 l -0.76172,-0.96484 c -0.51873,-0.65549 -1.21637,-0.97947 -1.89258,-0.97656 z m -139.46093,2.71484 c -0.71071,0.0626 -1.39486,0.32778 -1.66992,0.76563 -0.4724,0.75183 -0.90257,0.77148 -17.92188,0.77148 h -17.43945 l -7.46289,7.41211 c -4.10503,4.07626 -7.46485,7.54218 -7.46485,7.70312 0,0.75706 1.07528,-0.1883 7.75196,-6.83203 l 7.16211,-7.125 h 17.44726 c 17.02689,0 17.45533,0.0158 17.92774,0.76758 0.58946,0.93827 2.48578,1.03436 3.35742,0.16797 0.72069,-0.71634 0.80296,-2.51741 0.14453,-3.17188 -0.38228,-0.37993 -1.12131,-0.52155 -1.83203,-0.45898 z m -76.75977,1.15234 c -9.59815,0 -11.23828,0.0839 -11.23828,0.56446 0,0.56387 0.92441,8.71588 2.33984,20.62109 0.41562,3.4957 0.75704,6.57506 0.75782,6.83984 0.001,0.34731 0.92092,0.47852 3.29687,0.47852 1.93767,0 3.29297,0.16014 3.29297,0.38672 0,0.22597 -1.33323,0.38476 -3.22656,0.38476 h -3.22852 l -1.01758,4.87696 c -0.72378,3.47185 -0.90499,5.08044 -0.63281,5.58594 0.355,0.65927 1.04292,0.70703 9.65625,0.70703 8.5819,0 9.30192,-0.0523 9.65235,-0.70313 0.26862,-0.49898 0.0949,-1.9265 -0.59766,-4.91211 -1.18074,-5.08995 -1.14887,-6.03154 0.79687,-22.42187 0.76181,-6.41725 1.38672,-11.83372 1.38672,-12.03711 0,-0.22777 -4.31625,-0.3711 -11.23828,-0.3711 z m 1.35547,6.9336 c 2.19604,0 3.68164,0.155 3.68164,0.38476 0,0.22978 -1.4856,0.38672 -3.68164,0.38672 -2.19603,0 -3.67969,-0.15694 -3.67969,-0.38672 0,-0.22976 1.48366,-0.38476 3.67969,-0.38476 z m -1.35547,3.46679 c 1.29178,0 2.32617,0.17273 2.32617,0.38672 0,0.214 -1.03439,0.38477 -2.32617,0.38477 -1.29178,0 -2.32422,-0.17077 -2.32422,-0.38477 0,-0.21399 1.03244,-0.38672 2.32422,-0.38672 z m 277.47461,1.92579 c 0.23922,0 0.38867,1.99119 0.38867,5.20117 v 5.20117 h 8.52539 c 5.42549,0 8.52539,0.13965 8.52539,0.38477 0,0.24513 -3.0999,0.38281 -8.52539,0.38281 h -8.52539 v 7.49023 c 0,4.57694 -0.15181,7.5811 -0.38867,7.72656 -0.2555,0.15695 -0.38672,-4.29757 -0.38672,-13.07421 0,-8.61797 0.13584,-13.3125 0.38672,-13.3125 z m -276.14258,1.92578 c 2.03745,0 3.70508,0.1407 3.70508,0.3125 0,0.41072 -6.95797,0.41213 -7.21289,0.002 -0.10785,-0.17345 1.47036,-0.31445 3.50781,-0.31445 z m 75.56641,3.64258 c -0.52828,0.0123 -1.03226,0.26574 -1.5332,0.76367 l -0.99414,0.98633 H 172.40641 157.9943 l -22.9668,22.8496 c -12.63218,12.56571 -22.9668,23.05714 -22.9668,23.31641 0,0.33657 0.19163,0.36234 0.67578,0.0918 0.373,-0.20845 10.78854,-10.43959 23.14454,-22.73828 l 22.46679,-22.36133 h 14.35156 c 13.93413,0 14.36801,0.0198 14.8379,0.76758 0.65997,1.05045 3.00352,1.06923 3.56445,0.0273 0.54716,-1.01616 0.50602,-2.54401 -0.082,-3.01172 -0.59422,-0.47253 -1.14553,-0.70365 -1.67383,-0.6914 z m 138.39453,5.25195 c -0.40709,0.0478 -0.80818,0.22822 -1.15234,0.57031 -0.79273,0.788 -0.7802,2.63663 0.0234,3.43555 0.36771,0.36551 1.09939,0.58291 1.74414,0.51562 0.99816,-0.104 2.84966,1.6134 18.45118,17.09961 l 17.3457,17.21289 29.68555,0.0293 c 16.3265,0.0155 29.96959,-0.0811 30.32031,-0.21484 0.35068,-0.13377 0.54179,-0.39822 0.42383,-0.58789 -0.12319,-0.19817 -12.9731,-0.34571 -30.21485,-0.34571 h -30.00195 l -17.06055,-16.95117 c -15.86775,-15.76631 -17.0625,-17.0469 -17.0625,-18.27734 0,-1.56799 -1.28071,-2.6296 -2.50195,-2.48633 z m -37.96289,9.06445 c -1.11824,0.2555 -2.02251,1.42619 -1.61523,3.03906 0.12627,0.50024 0.57968,1.01862 1.00976,1.1543 0.76884,0.24249 0.78143,0.52551 0.75781,16.66797 l -0.0234,16.42383 35.16211,34.95117 c 19.33884,19.22323 35.32193,34.84991 35.51953,34.72852 0.19759,-0.12137 -15.4415,-15.9281 -34.75586,-35.12696 l -35.11914,-34.90625 v -16.23437 c 0,-14.14517 0.0763,-16.25994 0.58789,-16.45508 0.87245,-0.33279 1.43339,-2.06862 0.95508,-2.95703 -0.3476,-0.64558 -0.82449,-1.03793 -1.33008,-1.21875 -0.37919,-0.13561 -0.77569,-0.1516 -1.14844,-0.0664 z m -182.66016,3.29688 c 0.64049,0.0904 0.87305,0.38001 0.87305,1.08593 0,0.70598 -0.23256,0.99554 -0.87305,1.08594 -0.95222,0.1344 -1.49328,-0.68998 -1.10742,-1.68945 0.14005,-0.36281 0.58336,-0.55645 1.10742,-0.48242 z m 5.42578,0 c 0.64049,0.0904 0.87305,0.38001 0.87305,1.08593 0,0.70598 -0.23256,0.99554 -0.87305,1.08594 -0.95217,0.1344 -1.49328,-0.68998 -1.10742,-1.68945 0.14006,-0.36281 0.58337,-0.55645 1.10742,-0.48242 z m 5.42579,0 c 0.64049,0.0904 0.87304,0.38001 0.87304,1.08593 0,0.70598 -0.23255,0.99554 -0.87304,1.08594 -0.95222,0.1344 -1.49524,-0.68998 -1.10938,-1.68945 0.14005,-0.36281 0.58532,-0.55645 1.10938,-0.48242 z m 335.50976,1.80664 v 29.68554 29.68555 h 1.16406 1.16602 l -0.0996,-29.56445 -0.0996,-29.5625 -1.06641,-0.12305 z m -9.65625,0.0508 c -4.6717,0 -8.77026,0.10379 -9.10742,0.23242 -0.53054,0.20237 -0.61328,1.26632 -0.61328,7.89844 v 7.66211 h 9.10742 9.10547 v -7.89844 -7.89453 z m 21.48047,0.0879 -8.34766,0.10547 0.002,29.36914 c 0.001,16.15427 0.006,29.45852 0.006,29.56445 0.005,0.38795 16.72281,0.18977 17.46875,-0.20703 0.73095,-0.3888 0.75,-1.11814 0.75,-29.25977 0,-28.32626 -0.016,-28.87078 -0.76563,-29.26953 -0.48628,-0.25876 -3.79776,-0.36882 -9.11328,-0.30273 z m -241.20312,0.37109 c -1.37707,-0.13967 -2.90101,1.07738 -2.56641,2.61133 0.18936,0.86811 -1.87386,3.04667 -18.97852,20.04102 l -19.18945,19.06445 v 22.34766 22.34375 l -9.2793,9.21875 c -5.10347,5.06943 -9.18921,9.35686 -9.08203,9.52929 0.10718,0.17241 0.28395,0.31446 0.39258,0.31446 0.38922,0 18.2518,-17.92979 18.69336,-18.76368 0.32851,-0.62044 0.44459,-6.80999 0.43164,-22.76953 l -0.0156,-21.91992 18.98437,-18.87695 c 16.89986,-16.80547 19.09252,-18.85659 19.98242,-18.6875 2.0431,0.38821 3.33311,-2.22936 1.88281,-3.82227 -0.35202,-0.38662 -0.79687,-0.5843 -1.25585,-0.63086 z m -27.92579,3.39258 c -1.38377,0 -2.11791,0.8795 -2.07226,2.48242 0.0329,1.15481 -0.96247,2.25354 -11.9375,13.15821 -6.58554,6.54327 -11.97266,12.15874 -11.97266,12.47656 0,0.31784 5.53541,-4.92162 12.30274,-11.64258 10.48546,-10.41367 12.4333,-12.18775 13.17578,-11.99219 1.31781,0.3471 2.81054,-0.79587 2.81054,-2.15234 0,-1.4147 -0.90679,-2.33008 -2.30664,-2.33008 z m 118.15821,0.39258 c -0.40567,0.0788 -0.8206,0.28324 -1.20703,0.63086 -1.66431,1.4971 -0.0756,4.39324 2.11132,3.84765 0.76259,-0.19019 2.63984,1.51329 13.08399,11.89844 6.70525,6.66741 12.25405,11.92781 12.33398,11.68946 0.0799,-0.23835 -5.28031,-5.82753 -11.91406,-12.42383 -11.48676,-11.42187 -12.0625,-12.06321 -12.0625,-13.42383 0,-1.56105 -1.12872,-2.45529 -2.3457,-2.21875 z m -42.0918,1.33789 c -0.85486,-0.17515 -1.67378,0.2162 -2.2793,1.13477 -0.66845,1.014 -0.25662,2.65111 0.76563,3.04101 0.54644,0.20843 0.60937,2.56089 0.60937,22.27149 v 22.03906 l 6.29688,6.27539 c 3.46354,3.45103 6.42999,6.27718 6.58984,6.2832 0.97165,0.0362 -0.39635,-1.61433 -5.72656,-6.91406 l -5.99805,-5.96289 -0.0469,-20.61524 c -0.0276,-11.33883 -0.0371,-21.11306 -0.0234,-21.7207 0.0137,-0.60764 0.3828,-1.43875 0.82227,-1.8457 1.12556,-1.04234 1.05118,-2.84047 -0.15039,-3.62305 -0.28621,-0.18639 -0.57442,-0.3049 -0.85938,-0.36328 z m -35.51953,1.35156 c -0.69846,0 -1.47861,0.20671 -1.73438,0.46094 -0.75298,0.74846 -0.56736,2.89031 0.30274,3.49609 0.74421,0.51813 0.76812,1.04264 0.79101,17.42578 l 0.0234,16.89063 -8.34765,8.32812 c -4.59134,4.5809 -8.34961,8.44978 -8.34961,8.59766 0,0.97353 1.92669,-0.68835 9.39453,-8.10547 l 8.43359,-8.37304 v -17.20118 c 0,-14.97712 0.0748,-17.22963 0.58399,-17.42382 0.32153,-0.12265 0.7819,-0.65277 1.02343,-1.17969 0.6562,-1.43151 -0.42342,-2.91602 -2.12109,-2.91602 z m 18.08398,1.92578 c -1.1,0 -2.45703,1.2616 -2.45703,2.28321 0,0.77318 0.95362,1.95312 1.57813,1.95312 0.21356,0 0.35937,4.77498 0.35937,11.74805 0,7.57559 0.13878,11.75195 0.38867,11.75195 0.24963,0 0.38672,-4.06441 0.38672,-11.41797 v -11.41406 l 0.96875,-0.89258 c 0.53286,-0.49087 0.96875,-1.27793 0.96875,-1.74804 0,-1.15077 -1.07926,-2.26368 -2.19336,-2.26368 z m -111.68554,4.6211 -0.80469,1.01758 c -0.79,0.99826 -0.80078,1.3557 -0.80078,21.78906 0,13.96256 0.13461,21.02562 0.41211,21.54101 0.22709,0.42175 0.79412,0.92175 1.25976,1.11328 0.46564,0.19157 5.40547,0.31224 10.97852,0.26758 9.35519,-0.0749 10.19476,-0.13697 10.94726,-0.81445 0.81019,-0.72896 0.81446,-0.87483 0.81446,-22.05273 0,-20.80525 -0.0171,-21.33801 -0.77344,-22.08985 -0.7374,-0.73297 -1.29393,-0.77148 -11.40625,-0.77148 z m 9.72851,2.80859 c 0.58615,-0.0882 1.54471,-0.0882 2.13086,0 0.58615,0.0882 0.10581,0.16016 -1.0664,0.16016 -1.17229,0 -1.65061,-0.0719 -1.06446,-0.16016 z m 281.25391,0.66016 v 3.08008 3.08203 h 9.10742 9.10547 v -3.08203 -3.08008 h -9.10547 z m -290.65039,1.92578 h 10.46094 10.46484 v 16.5625 16.56445 h -10.46484 -10.46094 v -16.56445 z m -67.285159,3.82422 c -14.299386,-0.0156 -28.6654,0.12102 -29.238281,0.42578 -0.722729,0.38446 -0.748047,0.97503 -0.748047,16.48633 0,11.99908 0.117993,16.20601 0.464844,16.55078 0.342201,0.34013 3.718823,0.46094 12.787109,0.46094 h 12.324219 v 3.49023 3.48828 l -3.972656,-0.0449 c -2.184721,-0.025 -4.188652,-0.0361 -4.455078,-0.0234 -0.510593,0.0244 -0.671962,1.25261 -0.222657,1.69922 0.144961,0.14412 5.944659,0.21601 12.886719,0.16016 l 12.621094,-0.0996 0.125,-0.86914 c 0.122302,-0.85587 0.06862,-0.86719 -4.359375,-0.86719 h -4.484375 v -3.46484 -3.46875 h 12.039062 c 7.55771,0 12.318491,-0.14617 12.789061,-0.39649 0.72273,-0.38447 0.74805,-0.97703 0.74805,-16.48828 0,-11.99911 -0.11605,-16.20407 -0.46289,-16.54883 -0.30757,-0.30574 -14.542409,-0.47458 -28.841799,-0.49023 z m 357.935549,1.56836 v 17.06445 c 0,12.75866 0.11714,17.17978 0.46484,17.52539 0.3339,0.33188 2.90259,0.46289 9.10742,0.46289 h 8.64063 v -17.52734 -17.52539 h -1.54883 -1.54883 v 2.69726 2.69531 h -5.62109 -5.61914 v -2.69531 -2.69726 h -1.9375 z m -382.109377,6.54882 h 6.00586 6.007812 v 4.42969 4.42969 h -6.007812 -6.00586 v -4.42969 z m 17.826172,0 h 6.007813 6.005859 v 4.42969 4.42969 h -6.005859 -6.007813 v -4.42969 z m 17.826172,0 h 6.005859 6.007813 v 4.42969 4.42969 h -6.007813 -6.005859 v -4.42969 z m 269.533203,5.27735 -1.93945,1.01367 c -2.83165,1.48152 -12.67222,10.5547 -13.25196,12.21875 -0.56572,1.62381 -0.64941,7.64466 -0.125,9.01563 0.21005,0.54913 0.77904,1.1569 1.26172,1.3496 0.48266,0.19275 9.47346,0.36151 19.98047,0.375 l 19.10352,0.0254 1.00976,-1.00391 1.00782,-1.00195 -0.25586,-10.44532 c -0.18566,-7.62126 -0.38468,-10.58019 -0.74219,-10.93554 -0.37254,-0.37031 -3.55558,-0.50128 -13.27149,-0.54883 z m -102.4707,0.88476 c -0.2213,0 -0.23534,1.30039 -0.0625,6.83985 0.0149,0.47668 0.12519,0.86523 0.24218,0.86523 0.1171,0 0.17928,-1.73296 0.14258,-3.85156 -0.0367,-2.11861 -0.17972,-3.85352 -0.32226,-3.85352 z m 99.73828,1.54493 c 0.34093,0.004 2.57339,1.57807 4.37695,3.08789 0.68356,0.57222 0.60163,1.64382 -0.19336,2.51953 -0.37301,0.41087 -1.16919,1.3986 -1.76953,2.19726 -0.60034,0.79867 -1.47212,1.69105 -1.9375,1.98243 -1.42732,0.89359 -2.25085,0.91782 -6.4668,0.20117 -2.23798,-0.38043 -4.1205,-0.7031 -4.18554,-0.71875 -0.065,-0.0156 0.81909,-0.88928 1.96679,-1.94141 1.1477,-1.05214 3.37496,-3.13286 4.94727,-4.62305 1.5723,-1.49015 3.03919,-2.70747 3.26172,-2.70507 z m 2.51172,3.53515 c -0.27975,0.0927 -0.58253,0.39771 -0.67578,0.67578 -0.0969,0.2889 0.0473,0.43224 0.33789,0.33594 0.27975,-0.0927 0.58447,-0.39772 0.67773,-0.67578 0.0969,-0.28891 -0.0491,-0.43224 -0.33984,-0.33594 z m -2.0586,2.23828 c -0.34581,0 -0.6289,0.26034 -0.6289,0.57813 0,0.31779 0.0659,0.57812 0.14648,0.57812 0.0804,0 0.36161,-0.26033 0.62695,-0.57812 0.39512,-0.4732 0.37043,-0.57813 -0.14453,-0.57813 z m -100.22461,0.77149 c -0.25605,0 -0.38867,14.63781 -0.38867,43.14258 0,28.50471 0.13262,43.14257 0.38867,43.14257 0.25605,0 0.38672,-14.63786 0.38672,-43.14257 -1e-5,-28.50477 -0.13067,-43.14258 -0.38672,-43.14258 z m 98.21875,1.60156 c -0.37988,0.0732 -0.76968,0.36534 -0.86523,0.65039 -0.11105,0.33152 0.0758,0.47182 0.51758,0.38672 0.37988,-0.0732 0.76773,-0.36729 0.86328,-0.65234 0.11105,-0.33151 -0.0739,-0.46988 -0.51563,-0.38477 z M 230.4943,380.58391 c -1.86539,-0.21663 -3.54413,0.70025 -5.42969,2.87109 l -1.82617,2.10157 h -3.73242 -3.73243 l -1.96093,-2.09766 c -2.83884,-3.03771 -4.74851,-3.5746 -7.58789,-2.13476 -2.40796,1.22101 -2.71117,2.21334 -3.51954,11.52539 -1.12004,12.90225 -1.05974,13.60463 1.32227,15.09179 1.47674,0.92197 4.15035,0.80206 5.30469,-0.23633 0.40919,-0.36802 1.78962,-2.44749 3.0664,-4.62304 2.69627,-4.59424 4.02024,-5.67383 6.97266,-5.67383 3.29279,0 4.3934,0.89981 7.24414,5.9043 1.16641,2.04761 2.48096,4.04676 2.92188,4.44336 1.1451,1.03013 4.58677,0.99925 5.77148,-0.0508 1.35549,-1.20132 1.97903,-3.05417 1.7207,-5.11718 -0.125,-0.99825 -0.54568,-5.57366 -0.93554,-10.16797 -0.78441,-9.24408 -1.03478,-10.00779 -3.66016,-11.2461 -0.6775,-0.31951 -1.31766,-0.51763 -1.93945,-0.58984 z m -1.10157,5.82422 c 0.25033,-0.0311 0.47852,0.37252 0.47852,1.23633 0,1.32071 0.0596,1.3789 1.35742,1.3789 0.9473,0 1.35547,0.17264 1.35547,0.57618 0,0.40355 -0.40817,0.58007 -1.35547,0.58007 -1.29183,0 -1.35742,0.0636 -1.35742,1.34766 0,1.27472 -0.32515,1.66748 -0.9043,1.0918 -0.14211,-0.14123 -0.25781,-0.73737 -0.25781,-1.32422 0,-0.92222 -0.17311,-1.08314 -1.26172,-1.1875 -1.61921,-0.15518 -1.63574,-0.85462 -0.0234,-1.00977 1.06892,-0.10292 1.25389,-0.28348 1.35743,-1.32031 0.0873,-0.87467 0.36101,-1.33801 0.61132,-1.36914 z m -19.24414,0.49805 c 0.7712,0 0.92774,0.19249 0.92774,1.15429 0,0.87826 -0.19572,1.18229 -0.81055,1.26953 -0.44494,0.0632 -1.04527,-0.16593 -1.33398,-0.51171 -0.70413,-0.84331 -0.0237,-1.91211 1.21679,-1.91211 z m 83.71485,1.34765 c -15.97933,0 -21.32149,0.11468 -21.67188,0.46289 -0.34121,0.33916 -0.46679,3.56543 -0.46679,12.11914 0,13.16291 -0.17646,12.45704 3.10546,12.45704 1.58036,0 1.60268,0.0169 1.35352,1.14453 -0.13979,0.63043 -0.13885,1.33372 0.004,1.5625 0.52087,0.83769 1.52065,0.15802 1.85937,-1.26563 l 0.34375,-1.4414 h 15.40234 15.40625 l 0.6211,1.57617 c 0.76434,1.93409 1.64537,1.83734 1.58203,-0.17383 -0.044,-1.3973 -0.0337,-1.40234 1.5625,-1.40234 0.88274,0 1.99113,-0.2698 2.46484,-0.59961 0.85646,-0.59652 0.86328,-0.66108 0.86328,-11.91602 0,-9.77186 -0.0854,-11.39711 -0.61132,-11.91992 -0.5388,-0.5355 -3.05207,-0.60352 -21.81641,-0.60352 z m -80.71094,1.56055 c 0.54384,0.0766 1.06432,0.45725 1.1543,1.08984 0.0719,0.50569 -0.10359,1.0665 -0.38868,1.2461 -1.22577,0.77231 -2.50623,-0.21241 -2.0664,-1.58985 0.18943,-0.59325 0.75695,-0.82264 1.30078,-0.74609 z m -6.06055,0.16016 c 0.49789,0.0578 0.93314,0.37725 1.01172,0.92968 0.0719,0.50569 -0.0997,1.0665 -0.38476,1.2461 -1.24065,0.78165 -2.74425,-0.3599 -2.00586,-1.52344 0.32112,-0.50603 0.881,-0.71014 1.3789,-0.65234 z m 103.19336,2.1289 c 1.67932,0 2.90625,0.16416 2.90625,0.38672 -10e-6,0.22256 -1.22693,0.38477 -2.90625,0.38477 -1.67931,0 -2.9082,-0.16221 -2.9082,-0.38477 0,-0.22256 1.22889,-0.38672 2.9082,-0.38672 z m -100.09179,0.95117 c 0.49785,0.0578 0.93312,0.38118 1.01171,0.9336 0.0719,0.5057 -0.10166,1.06649 -0.38671,1.24609 -1.24065,0.78166 -2.7423,-0.3599 -2.00391,-1.52344 0.32112,-0.50603 0.88101,-0.71406 1.37891,-0.65625 z m 66.18164,0.20704 h 13.5625 13.56445 v 1.53906 1.54297 l -9.62891,-0.002 c -8.83555,0 -9.68098,0.0587 -10.26953,0.70508 -0.86996,0.95552 -0.80678,2.59735 0.13477,3.5332 0.70069,0.69649 1.29288,0.76954 6.16015,0.76954 4.5641,0 5.41867,0.094 5.61914,0.61328 0.13019,0.33693 0.13954,0.76825 0.0195,0.96093 v 0.002 c -0.12124,0.19498 -4.42134,0.35156 -9.69141,0.35156 h -9.4707 v -5.00781 z m 33.91015,1.15429 c 1.67932,0 2.90625,0.16221 2.90625,0.38477 -10e-6,0.22256 -1.22693,0.38476 -2.90625,0.38476 -1.67931,0 -2.9082,-0.1622 -2.9082,-0.38476 0,-0.22256 1.22889,-0.38477 2.9082,-0.38477 z m 0.58789,2.91602 v 0.002 c 0.23672,0.12648 0.37891,0.37578 0.37891,0.71875 0,0.67415 -0.84656,1.3123 -1.45313,1.0957 -0.69246,-0.24727 -0.59812,-1.52392 0.13282,-1.80273 0.37453,-0.14286 0.70469,-0.1398 0.9414,-0.0137 z m -16.54687,0.46875 9.17578,0.11133 v 5.18554 5.1875 h -13.30664 c -7.3179,0 -13.4204,-0.11851 -13.5625,-0.25976 -0.14209,-0.14121 -0.25781,-0.9203 -0.25781,-1.73242 v -1.47657 h 9.62695 c 8.83557,0 9.68097,-0.0568 10.26953,-0.70312 0.9405,-1.033 0.82628,-2.97752 -0.21875,-3.70508 -0.67757,-0.47173 -1.99245,-0.59961 -6.16016,-0.59961 -4.30529,0 -5.33784,-0.10585 -5.51562,-0.56641 -0.54386,-1.40867 0.47019,-1.55491 9.94922,-1.4414 z m 15.50781,4.20312 c 0.77088,-0.29403 1.5154,0.30374 1.36133,1.09375 -0.14672,0.75235 -0.63621,0.99372 -1.39649,0.69141 -0.64541,-0.25658 -0.62033,-1.53521 0.0352,-1.78516 z m 0.60156,4.73828 c 0.98492,0 1.23556,0.37944 0.79102,1.20508 -0.46103,0.85623 -1.45996,0.95071 -1.76367,0.16406 -0.29295,-0.75881 0.13911,-1.36914 0.97265,-1.36914 z m 74.95313,0.76368 c -9.53633,0.006 -19.02465,0.14298 -19.51953,0.40625 -0.72864,0.38755 -0.75,1.0605 -0.75,23.99804 0,15.76009 0.13432,23.73164 0.40234,23.99805 0.60792,0.60422 39.39715,0.71565 40.125,0.11523 0.46539,-0.38388 0.55273,-4.12919 0.55273,-24.10546 v -23.65235 l -0.99414,-0.37695 c -0.69475,-0.26255 -10.28008,-0.3884 -19.8164,-0.38281 z m -13.62891,3.93554 c 1.06715,-0.12342 1.64804,0.62624 1.26172,1.62696 -0.31083,0.8051 -1.1448,1.00673 -1.89844,0.45898 -0.96371,-0.70042 -0.58356,-1.9448 0.63672,-2.08594 z m 19.52539,0.11524 c 0.8944,0 1.18435,0.19215 1.27735,0.84179 0.16079,1.12278 -1.10304,1.82659 -2.04688,1.14063 -1.07177,-0.779 -0.6045,-1.98242 0.76953,-1.98242 z m -9.92187,0.008 c 0.50872,9.6e-4 1.06473,0.23277 1.34765,0.69141 0.34412,0.55782 0.28006,0.8054 -0.32226,1.25 -0.41374,0.30538 -0.87322,0.55468 -1.01953,0.55468 -0.52935,0 -1.19558,-1.13378 -1.06446,-1.81054 0.0888,-0.45763 0.54988,-0.6865 1.0586,-0.68555 z m 4.29687,10.97266 c 10.33424,0 15.88867,0.13422 15.88867,0.38476 0,0.25053 -5.55443,0.38281 -15.88867,0.38281 -10.33422,0 -15.89062,-0.13228 -15.89062,-0.38281 0,-0.25054 5.5564,-0.38476 15.89062,-0.38476 z m -235.36719,0.84179 c -9.88406,-0.0786 -15.66094,0.022 -16.56835,0.28711 -2.88121,0.84205 -5,3.86691 -5,7.13867 v 1.7461 h 2.90625 c 1.67929,0 2.90429,0.16221 2.90429,0.38476 0,0.21186 -0.78304,0.38477 -1.74219,0.38477 -0.95911,0 -1.74488,0.13016 -1.74609,0.28906 -0.001,0.15889 -0.53578,5.75028 -1.18359,12.42383 -0.64782,6.67357 -1.27881,13.79265 -1.4043,15.82031 -0.22799,3.6838 -0.22903,3.68661 0.84375,4.52539 v -0.002 c 1.07158,0.83942 1.11483,0.83984 21.08984,0.83984 21.90772,0 21.73438,0.0187 21.73438,-2.20507 0,-1.95683 -0.91406,-2.41797 -4.80859,-2.41797 h -3.52344 l 1.16406,-0.71875 c 1.68041,-1.03738 2.75773,-2.31602 3.66016,-4.34375 0.93476,-2.10046 2.15844,-8.9915 2.53711,-14.29102 l 0.26953,-3.75586 h -6.625 -6.62305 v -3.4668 -3.46679 h 6.00586 6.00781 v -1.65039 c 0,-2.14538 -1.34195,-4.72721 -3.23437,-6.22461 l -1.48828,-1.17774 z m 220.25196,4.16602 h 15.11523 15.11524 v 1.1543 1.15625 h -11.21289 -11.20899 l -0.80469,1.01367 c -1.00995,1.27621 -1.01778,2.23839 -0.0273,3.22265 0.7193,0.71503 1.29221,0.77149 7.95703,0.77149 6.16301,0 7.21405,0.0835 7.41406,0.60156 0.49607,1.28498 -0.55469,1.51304 -7.91601,1.70898 l -7.23242,0.19336 -0.59571,1.0586 c -0.53553,0.95276 -0.53587,1.16443 0,2.11719 l 0.59571,1.06054 7.21093,0.10352 c 5.76751,0.0837 7.3066,0.21843 7.6836,0.66992 0.25927,0.31049 0.36979,0.82795 0.24609,1.14844 -0.19354,0.50131 -1.76905,0.58203 -11.28125,0.58203 h -11.05859 v -8.2832 z m 30.23047,3.83789 v 8.48047 8.48047 h -15.11524 -15.11523 v -1.33008 -1.33399 l 11.27344,-0.11132 11.27343,-0.11329 0.74024,-0.91015 c 0.94968,-1.1667 0.93846,-2.16518 -0.0352,-3.13281 -0.71574,-0.71141 -1.28998,-0.77149 -7.52344,-0.77149 -3.71255,0 -7.02612,-0.10379 -7.36328,-0.23242 -0.33714,-0.12858 -0.61328,-0.54349 -0.61328,-0.92188 0,-0.37834 0.27614,-0.79328 0.61328,-0.92187 0.33716,-0.12861 3.61724,-0.23633 7.28906,-0.23633 7.15594,0 7.74388,-0.13939 8.18165,-1.94922 0.16399,-0.67823 -7.1e-4,-1.28299 -0.5254,-1.92773 -0.74922,-0.92075 -0.90046,-0.94192 -8.0625,-1.13086 -6.97837,-0.18409 -7.30273,-0.22463 -7.30273,-0.96094 0,-0.75018 0.29167,-0.7735 11.14063,-0.87305 z m -261.20118,1.16992 h 8.52735 8.52344 v 3.46484 3.46875 h -6.61133 -6.61133 l 0.24414,2.79297 c 0.91112,10.46664 2.15199,15.63508 4.32813,18.0293 1.34804,1.48334 1.43673,1.51758 4.02343,1.51758 1.45463,0 2.75304,0.1729 2.88477,0.38476 0.39587,0.63667 -14.33267,0.51284 -14.86524,-0.125 -0.47317,-0.56668 -0.6019,-5.66682 -0.50586,-20.19336 z m 95.39063,18.87305 -0.80469,1.01367 c -0.7911,1.00002 -0.80078,1.3415 -0.80078,23.13086 v 22.11328 l 0.95117,0.94727 0.68946,0.6875 h 39.58398 l 0.59961,-0.75782 c 0.79109,-1.00021 0.80273,-1.33617 0.80273,-23.30273 0,-21.77599 -0.0183,-22.30985 -0.77539,-23.0625 -0.75478,-0.75041 -1.29041,-0.76953 -20.50976,-0.76953 z m 3.81836,3.85156 h 4.07031 4.06836 v 1.73242 1.73633 h -4.06836 -4.07031 v -1.73633 z m 26.54492,0 c 0.47909,0 1.28693,1.27409 1.10547,1.74414 -0.12026,0.31167 -0.61822,0.56641 -1.10547,0.56641 -1.11184,0 -1.51243,-0.9454 -0.73047,-1.72266 0.32588,-0.32392 0.65429,-0.58789 0.73047,-0.58789 z m 5.23242,0.0293 c 0.17031,0 0.34109,0.14558 0.63477,0.4375 0.34883,0.34675 0.52748,0.9021 0.39844,1.23633 -0.12903,0.33421 -0.59353,0.60742 -1.03321,0.60742 -1.06293,0 -1.42512,-1.05621 -0.63281,-1.84375 0.29367,-0.29192 0.46252,-0.4375 0.63281,-0.4375 z m -34.87695,6.90429 h 18.99023 18.98829 v 17.52735 17.52734 H 254.67398 235.68375 V 479.7384 Z m 18.79492,4.45704 c -6.75703,0.0268 -12.01434,5.11205 -12.49805,12.08984 -0.37142,5.35811 3.33309,10.78602 8.625,12.64453 2.04866,0.71949 6.53042,0.55176 8.91211,-0.33398 2.5737,-0.95714 5.3672,-3.5724 6.78125,-6.34766 0.81997,-1.60924 0.96875,-2.43311 0.96875,-5.36719 0,-3.02078 -0.1402,-3.7516 -1.08984,-5.67383 -1.33903,-2.71038 -4.35574,-5.43487 -7.03906,-6.35546 -1.1442,-0.39255 -3.06557,-0.66227 -4.66016,-0.65625 z m -0.70703,4.99414 c 4.27953,-0.55548 8.66347,2.70971 8.64648,7.73242 -0.007,2.24996 -1.12462,4.40659 -3.09375,5.9707 -3.07199,2.44017 -7.98728,1.95981 -10.47656,-1.02148 -0.36908,-0.44202 -0.53562,-1.94406 -0.5625,-5.05274 l -0.041,-4.42187 1.44922,-1.30078 c 1.23662,-1.11052 2.65161,-1.72109 4.07812,-1.90625 z" /></g></g></g></svg>
