<?xml version="1.0" encoding="UTF-8" standalone="no"?>
<!-- Created with Inkscape (http://www.inkscape.org/) -->

<svg
   width="1000mm"
   height="700mm"
   viewBox="0 0 1000 700"
   version="1.1"
   id="svg5"
   xml:space="preserve"
   inkscape:version="1.2.2 (b0a8486541, 2022-12-01)"
   sodipodi:docname="andrax-ics-hacking.svg"
   xmlns:inkscape="http://www.inkscape.org/namespaces/inkscape"
   xmlns:sodipodi="http://sodipodi.sourceforge.net/DTD/sodipodi-0.dtd"
   xmlns:xlink="http://www.w3.org/1999/xlink"
   xmlns="http://www.w3.org/2000/svg"
   xmlns:svg="http://www.w3.org/2000/svg"><sodipodi:namedview
     id="namedview7"
     pagecolor="#505050"
     bordercolor="#ffffff"
     borderopacity="1"
     inkscape:showpageshadow="0"
     inkscape:pageopacity="0"
     inkscape:pagecheckerboard="1"
     inkscape:deskcolor="#505050"
     inkscape:document-units="mm"
     showgrid="false"
     inkscape:zoom="0.11625632"
     inkscape:cx="1221.439"
     inkscape:cy="1333.2609"
     inkscape:window-width="1366"
     inkscape:window-height="705"
     inkscape:window-x="0"
     inkscape:window-y="0"
     inkscape:window-maximized="1"
     inkscape:current-layer="layer1"
     showguides="true"><sodipodi:guide
       position="499.88826,394.66209"
       orientation="1,0"
       id="guide582"
       inkscape:locked="false" /><sodipodi:guide
       position="375.51723,349.51726"
       orientation="0,-1"
       id="guide3201"
       inkscape:locked="false" /><sodipodi:guide
       position="118.34482,689.75865"
       orientation="0,-1"
       id="guide3412"
       inkscape:locked="false" /><sodipodi:guide
       position="376.57093,9.6199633"
       orientation="0,-1"
       id="guide3436"
       inkscape:locked="false" /><sodipodi:guide
       position="16.092775,487.57539"
       orientation="1,0"
       id="guide3438"
       inkscape:locked="false" /><sodipodi:guide
       position="976.85728,468.5457"
       orientation="1,0"
       id="guide3440"
       inkscape:locked="false" /></sodipodi:namedview><defs
     id="defs2"><linearGradient
       id="linearGradient8120"><stop
         style="stop-color:#ff0000;stop-opacity:1;"
         offset="0"
         id="stop8116" /><stop
         style="stop-color:#ff0000;stop-opacity:0;"
         offset="1"
         id="stop8118" /></linearGradient><linearGradient
       xlink:href="#linearGradient8120"
       id="linearGradient8122"
       x1="416.65988"
       y1="552.31458"
       x2="421.72205"
       y2="-225.3533"
       gradientUnits="userSpaceOnUse"
       gradientTransform="matrix(0.59312171,0,0,0.58624652,8.3716843,11.24208)" /></defs><g
     inkscape:label="Layer 1"
     inkscape:groupmode="layer"
     id="layer1"><path
       id="path318"
       style="fill:#000000;fill-rule:evenodd;stroke-width:5.68965;stroke-linecap:round;stroke-linejoin:bevel"
       d="m 231.00391,415.10547 c -10.89097,0.0606 -21.79669,-0.0288 -32.66924,0.68689 -2.17465,0.20179 -4.72186,0.62609 -5.9795,2.63396 -1.07278,1.75492 -1.14381,3.87814 -1.73799,5.80589 -3.04814,12.96795 -6.00323,25.95664 -8.63923,39.01466 -0.32672,2.16065 -0.72593,4.51954 0.2076,6.58321 0.9097,1.58007 2.87765,2.10243 4.58894,1.93242 13.55878,0.40616 27.12551,0.36694 40.68865,0.48246 53.15265,0.31551 106.30655,0.27911 159.4599,0.26691 24.93379,-0.0261 49.86831,0.0103 74.80127,-0.21904 7.20317,-0.11002 14.4157,-0.12236 21.60577,-0.60533 1.87492,-0.19817 3.8909,-0.32746 5.5176,-1.36905 1.59803,-1.14419 2.2817,-3.33143 1.68076,-5.19359 -0.86478,-5.47645 -2.29287,-10.84092 -3.45441,-16.25777 -2.28898,-10.02167 -4.62653,-20.03917 -7.41936,-29.93337 -0.63065,-1.73357 -2.43502,-2.98422 -4.30021,-2.76 -8.71127,-0.26748 -17.42823,-0.26463 -26.14246,-0.36825 -38.88939,-0.32235 -77.78016,-0.43083 -116.67054,-0.56575 -33.11187,-0.0908 -66.22399,-0.17571 -99.33595,-0.14733 -0.73387,0.004 -1.46774,0.009 -2.2016,0.0131 z" /><rect
       style="fill:#000000;fill-rule:evenodd;stroke-width:1.33665;stroke-linecap:round;stroke-linejoin:bevel"
       id="rect433"
       width="229.70204"
       height="161.37727"
       x="220.36743"
       y="217.70486" /><g
       id="g463"><path
         id="path380"
         style="fill:#ffffff;fill-rule:evenodd;stroke-width:12.4383;stroke-linejoin:bevel;paint-order:markers stroke fill"
         d="m 815.98047,618.48242 c -6.98457,0.11465 -13.97547,0.0266 -20.9625,0.0536 -41.96327,0.0146 -83.9269,-0.0634 -125.88982,0.14373 -17.46393,0.10332 -34.92965,0.23422 -52.38869,0.66961 -3.78163,0.17654 -7.54511,0.68123 -11.27019,1.32276 -1.48939,0.2787 -2.30748,1.82742 -2.24235,3.24887 0.0547,15.79555 -0.0227,31.59467 0.0465,47.38951 0.31829,1.79771 2.35538,2.74263 4.03359,2.40429 69.83114,-0.005 139.66316,0.0104 209.49375,-0.008 1.82885,-0.21088 2.90046,-2.25074 2.5547,-3.95156 -0.01,-16.27045 0.0286,-32.54293 -0.0274,-48.81211 -0.27654,-1.53282 -1.8455,-2.54254 -3.34765,-2.46094 z" /><path
         id="path378"
         style="fill:#ffffff;fill-rule:evenodd;stroke-width:12.4383;stroke-linejoin:bevel;paint-order:markers stroke fill"
         d="m 815.97656,514.95898 c -10.58581,0.11822 -21.1727,0.0242 -31.75898,0.0545 -59.50145,0.002 -119.00379,-0.0106 -178.50469,0.0139 -2.12988,0.24408 -3.38907,2.61796 -2.99611,4.60196 0.0118,16.27103 -0.0417,32.54469 0.043,48.81406 0.3837,2.07567 2.73587,3.19562 4.68789,2.80664 69.81551,-0.004 139.6319,0.009 209.44687,-0.0156 2.12262,-0.26198 3.38944,-2.62716 2.99025,-4.61368 -0.0105,-16.26328 0.0391,-32.52869 -0.041,-48.79062 -0.32353,-1.76389 -2.12941,-2.95975 -3.86719,-2.8711 z" /><path
         id="path376"
         style="fill:#ffffff;fill-rule:evenodd;stroke-width:12.4383;stroke-linejoin:bevel;paint-order:markers stroke fill"
         d="m 815.98047,410.88477 c -7.18066,0.11697 -14.36766,0.0222 -21.55078,0.0552 -20.59134,0.0159 -41.18201,0.19081 -61.77185,0.43003 -42.26934,0.47107 -84.5366,1.1073 -126.80432,1.7023 -1.85852,0.17551 -2.95895,2.24594 -2.60743,3.96523 0.01,15.55886 -0.0286,31.11978 0.0274,46.67734 0.31829,1.79772 2.35538,2.74264 4.03359,2.4043 69.83114,-0.005 139.66316,0.0104 209.49375,-0.008 1.82885,-0.21088 2.90046,-2.25075 2.5547,-3.95156 -0.01,-16.27111 0.0286,-32.54424 -0.0274,-48.81407 -0.27654,-1.53281 -1.8455,-2.54253 -3.34765,-2.46093 z" /><path
         id="path382"
         style="fill:#ffffff;fill-rule:evenodd;stroke-width:12.4383;stroke-linejoin:bevel;paint-order:markers stroke fill"
         d="m 689.91406,28.681641 c -2.36555,0.04794 -4.02535,2.219739 -4.56587,4.344456 -1.1011,3.323871 -1.6392,6.881403 -3.38804,9.916188 -3.01653,5.719918 -8.19977,10.262174 -14.31339,12.399715 -2.70115,0.912644 -5.7373,1.587281 -7.65885,3.87339 -1.84519,2.155028 -1.61027,5.266482 -0.80275,7.801235 1.07345,3.598527 2.86687,6.92514 3.39447,10.678388 0.61908,3.163553 0.9148,6.369855 0.57398,9.607565 -0.34481,3.955739 -1.31157,7.851524 -2.87815,11.500993 -1.0599,2.731679 -2.09746,5.720469 -1.45758,8.674999 0.69759,2.55936 3.06424,4.22743 5.47207,5.02679 3.06736,1.14365 6.2562,2.0629 9.04078,3.83843 2.94714,1.76416 5.57869,4.31644 7.40945,7.33706 3.35531,5.29736 4.54683,11.61154 7.63154,17.04152 0.58443,1.01821 1.80399,1.6514 2.96162,1.27291 3.64207,-1.3197 7.03551,-3.31517 10.60802,-4.86243 3.81782,-1.68188 8.07712,-2.94358 12.26762,-2.08793 5.76959,1.01845 10.66325,4.96348 16.59571,5.31641 2.72532,0.10116 5.1857,-1.82165 6.22852,-4.25612 1.81881,-3.52611 2.49892,-7.55219 4.66198,-10.91669 2.91459,-4.97108 7.66713,-8.60294 12.8328,-11.00618 3.62253,-1.75721 7.6036,-3.0987 10.54553,-5.95694 0.95242,-1.1982 0.62166,-2.83071 0.10031,-4.1336 -1.46778,-4.566987 -3.95776,-8.783324 -4.92969,-13.509769 -1.41483,-6.939886 -0.17612,-14.169246 2.8545,-20.566915 1.27546,-2.750883 2.56963,-5.863206 1.68638,-8.928423 -0.88379,-2.837711 -3.73013,-4.464431 -6.44552,-5.186913 -2.29178,-0.627247 -4.74685,-0.998064 -6.68559,-2.481588 -3.5214,-2.260097 -6.49646,-5.337595 -8.94623,-8.719368 -1.97867,-2.66424 -3.53713,-5.677887 -4.21815,-8.943735 -0.6643,-2.565846 -1.97078,-5.338654 -4.59108,-6.371948 -2.97625,-1.162766 -6.18752,-0.115658 -9.07523,0.804716 -4.10624,1.363789 -7.9928,3.480785 -12.17076,4.484279 -3.02123,0.348385 -5.73199,-1.316197 -8.51323,-2.199752 -4.27959,-1.547943 -8.60339,-3.137717 -13.13156,-3.761808 -0.3634,-0.03452 -0.72895,-0.03573 -1.09361,-0.02894 z m 22.8711,23.669921 c 6.49473,-0.05163 13.08504,2.099236 17.97324,6.447572 3.47925,3.010922 6.2725,6.665706 8.56455,10.642317 2.30606,4.341293 2.33407,9.413748 2.65947,14.164018 0.11902,3.656246 0.34698,7.447259 -0.97178,10.935474 -1.27884,3.492544 -3.17981,6.731467 -5.27041,9.794997 -2.06974,2.85541 -4.41907,5.57694 -7.28665,7.65713 -3.13128,2.03853 -6.8242,2.94737 -10.41284,3.70135 -4.28313,0.80049 -8.60926,1.15701 -12.97807,0.80868 -2.72708,-0.19966 -5.42522,-0.96405 -7.737,-2.45093 -6.64493,-3.96665 -11.36531,-10.66617 -14.05534,-17.768121 -1.69946,-4.514817 -2.58554,-9.375661 -2.34217,-14.241493 0.21854,-3.612116 0.99031,-7.168467 2.21014,-10.585531 1.93538,-5.414304 5.33719,-10.331387 10.10779,-13.59765 3.06327,-2.121277 6.70342,-3.699203 10.41039,-4.502073 2.98935,-0.692789 6.06289,-0.987727 9.12868,-1.00574 z" /><path
         id="path978"
         style="fill:#ffffff;stroke-width:1.57448"
         d="m 694.93784,9.9250673 c -2.89101,-0.0061 -6.52102,1.3468107 -12.55372,4.0578887 -7.32515,3.291894 -10.3293,5.531056 -10.76382,8.020902 -3.08296,17.666419 -2.88233,17.430701 -16.68293,19.684664 -6.13136,1.001405 -7.35112,2.874769 -13.37014,20.555051 -1.97578,5.803579 -1.87071,6.261751 2.83507,12.453512 6.05951,7.97295 6.10681,11.022254 0.29162,18.759728 -5.47633,7.286497 -5.50495,7.669547 -1.32106,18.807157 4.0975,10.90773 9.08171,16.00384 15.65789,16.00384 7.3524,0 10.06366,2.96452 11.50179,12.58395 0.70139,4.69155 1.58436,8.85664 1.96255,9.25653 0.37799,0.39989 4.44058,2.52714 9.02779,4.72907 10.75917,5.16461 15.95009,5.201 21.6331,0.14464 5.82443,-5.18218 11.07888,-5.13101 17.03511,0.16839 5.6577,5.03386 11.47229,4.73504 23.20312,-1.19057 7.36352,-3.71949 7.65029,-4.12732 9.3934,-13.34051 1.90693,-10.07876 3.65074,-12.27372 9.80611,-12.34914 8.79856,-0.10788 10.9384,-1.8427 15.474,-12.53177 5.4994,-12.96058 5.47104,-15.983197 -0.22456,-23.028691 -5.67787,-7.023814 -5.66843,-9.435922 0.063,-17.061623 5.58818,-7.435346 5.65606,-9.487284 0.71325,-21.406476 -4.61434,-11.12721 -7.09328,-13.402167 -14.59924,-13.402167 -7.01945,0 -9.39482,-2.834503 -11.37841,-13.570561 -1.4465,-7.829122 -1.95504,-8.499807 -9.15567,-12.133339 -11.74054,-5.9244857 -17.62748,-6.2237167 -23.2951,-1.181082 -5.98641,5.326285 -11.21346,5.348996 -17.14275,0.07355 -3.06864,-2.730267 -5.21937,-4.0968477 -8.11044,-4.1029437 z M 731.59185,29.03342 c 3.37115,-0.232252 4.95504,2.055022 5.77104,7.162366 1.63082,10.206569 12.07368,20.832535 20.47353,20.832535 1.67836,0 4.09412,1.573722 5.36736,3.495809 2.11086,3.186701 2.02683,3.921867 -0.95553,8.350569 -1.9899,2.954928 -3.53372,8.21608 -3.94306,13.435363 -0.55412,7.065425 0.0108,9.81514 3.20514,15.579341 4.81589,8.689247 3.5444,11.867067 -5.73965,14.338967 -8.61899,2.29482 -15.80284,9.78595 -18.10271,18.87831 -2.47137,9.77034 -5.35594,11.0573 -13.6079,6.06904 -8.44889,-5.10765 -15.78284,-5.10962 -24.86289,-0.005 -3.95964,2.22619 -7.37679,4.0484 -7.59236,4.0484 -2.08423,0 -5.38036,-5.1269 -6.15908,-9.57906 -1.85771,-10.62078 -8.98874,-17.45256 -21.12845,-20.24436 -5.71522,-1.31436 -6.59615,-5.88283 -2.53675,-13.157897 2.2137,-3.96726 3.40701,-8.756353 3.40701,-13.684393 0,-4.92804 -1.19331,-9.719502 -3.40701,-13.686769 -4.06226,-7.280104 -3.17531,-11.860546 2.53675,-13.108091 11.61272,-2.536255 19.63806,-10.470919 21.25631,-21.015149 1.29547,-8.441355 4.89718,-9.714282 13.61234,-4.814443 9.01783,5.069958 14.97103,5.11413 24.18781,0.180267 3.53039,-1.889878 6.19543,-2.936663 8.2181,-3.076024 z m -19.51578,21.520311 c -19.21272,0 -32.6357,14.056697 -32.66385,34.206251 -0.0203,14.028351 8.19493,26.795198 20.62605,32.059898 1.98308,0.83988 7.05101,1.55684 11.26177,1.59375 27.73776,0.24296 43.04969,-34.049295 24.9414,-55.857 -6.57199,-7.914608 -14.80308,-12.002899 -24.16537,-12.002899 z m -1.22687,16.648953 c 4.40117,-0.317058 8.66196,1.700131 12.31595,5.986038 7.70654,9.039258 4.83058,22.178441 -5.89222,26.915808 -6.15441,2.71905 -6.22726,2.71918 -12.4684,-0.149447 -11.35362,-5.21836 -12.45222,-22.125096 -1.92671,-29.64557 2.63917,-1.885677 5.33069,-2.916628 7.97138,-3.106852 z M 294.38354,102.60662 c -10.85091,0.8678 -19.4304,11.01372 -19.39915,25.65171 0.0244,11.42779 3.99101,18.8743 12.17913,22.8603 7.37941,3.59224 10.06668,3.72944 16.508,0.84668 9.67377,-4.32945 14.05621,-13.78439 7.22451,-15.58885 -3.0826,-0.81417 -4.34467,-0.12733 -6.48429,3.53377 -2.04136,3.49282 -3.81474,4.54179 -7.65518,4.52273 -8.61405,-0.0428 -11.8898,-4.86463 -11.8898,-17.50038 0,-14.14776 9.1534,-20.38294 18.15878,-12.37051 3.59511,3.1986 5.85934,4.06301 8.68468,3.3132 3.66724,-0.97324 3.73186,-1.20258 1.57229,-5.61842 -1.2379,-2.53127 -4.62594,-5.79197 -7.5273,-7.24776 -3.88693,-1.95034 -7.7547,-2.69174 -11.37167,-2.40247 z m -46.55884,0.1114 c -8.24804,0.51132 -15.01869,5.86313 -15.01869,13.32865 0,7.769 3.73622,11.87346 13.46883,14.79671 9.89599,2.97229 13.40316,5.72205 12.04904,9.45334 -2.49526,6.87575 -15.67949,6.33405 -17.42311,-0.71623 -1.09784,-4.439 -9.62443,-4.61551 -9.62443,-0.19921 0,4.61968 5.75362,11.33254 11.19671,13.06301 2.68401,0.85335 6.86007,1.22722 9.28128,0.83008 2.42116,-0.39713 5.25504,-0.72098 6.29815,-0.72098 4.1841,0 9.97208,-8.42276 9.97208,-14.51209 0,-7.70682 -4.43629,-12.18954 -15.40895,-15.57694 -10.74909,-3.31842 -13.28309,-5.72235 -9.85545,-9.34667 3.63353,-3.84206 9.56366,-3.26942 13.57871,1.31152 2.42718,2.76925 4.4925,3.69312 6.81853,3.04995 6.41246,-1.77315 2.05841,-10.47189 -6.78712,-13.55872 -2.88181,-1.00565 -5.79623,-1.37285 -8.54558,-1.20242 z m 99.2117,1.10517 -5.24172,0.48382 -5.24396,0.48382 -8.82373,23.88009 -8.82371,23.88247 h 5.06457 c 4.43077,0 5.28699,-0.71106 6.83423,-5.66823 1.7572,-5.6301 1.82807,-5.66586 10.86249,-5.66586 8.88453,0 9.15059,0.12923 11.64757,5.66586 2.02673,4.49405 3.44757,5.66823 6.86564,5.66823 2.37045,0 4.31092,-0.53718 4.31092,-1.19294 0,-0.65577 -3.92812,-11.61938 -8.72729,-24.3639 z m 84.05619,0.009 -4.82456,13.43063 c -2.65392,7.38694 -6.60917,18.35088 -8.79005,24.36157 l -3.96552,10.92856 h 5.12285 c 4.46914,0 5.30761,-0.67373 6.54718,-5.26269 1.38552,-5.12946 1.65987,-5.27325 10.88941,-5.74176 l 9.46741,-0.48142 2.26989,5.74174 c 1.89601,4.79826 3.03612,5.74415 6.9396,5.74415 2.56942,0 4.67205,-0.21714 4.67205,-0.48143 0,-0.26436 -4.00255,-11.00997 -8.89327,-23.88011 l -8.89101,-23.40102 -5.2731,-0.47909 z m -60.48072,0.14945 v 24.28565 24.28566 h 12.3249 c 14.35305,0 20.09677,-2.44165 23.88057,-10.1483 3.33203,-6.78685 3.3491,-21.45329 0.0357,-28.20596 -4.22904,-8.61315 -7.80912,-10.21704 -22.79945,-10.21704 z m 9.18709,8.09441 h 6.89026 c 9.89929,0 13.01578,3.7902 13.01578,15.83074 0,5.84575 -0.89466,10.70279 -2.38425,12.95155 -1.91654,2.89324 -3.86604,3.59777 -9.95193,3.59777 h -7.56986 v -16.18947 z m -38.20841,3.23729 c 0.10411,-1.16462 6.05255,15.14251 6.05367,16.59679 7.1e-4,0.66786 -2.75354,1.21427 -6.11871,1.21427 h -6.11869 l 3.05708,-8.49997 c 1.68046,-4.67497 3.08683,-8.86585 3.12665,-9.31109 z m 94.7146,1.61984 c 0.60223,0 2.19734,3.64206 3.54386,8.09442 l 2.44702,8.0968 h -5.98413 c -3.29114,0 -5.98417,-0.23515 -5.98417,-0.52175 0,-2.25362 5.11791,-15.66947 5.97742,-15.66947 z m 274.71003,45.46683 c -2.18924,0.11712 -4.30764,1.28283 -5.75311,3.46498 -1.95724,2.95465 -2.38425,9.18053 -2.38425,34.80863 v 31.21088 h -95.66337 -95.66331 l -2.50766,4.04839 c -2.32336,3.74949 -2.32341,4.34493 0,8.09442 l 2.50766,4.04841 h 102.49977 c 99.7713,0 102.54272,-0.0847 104.08559,-3.13294 0.95928,-1.89533 1.58352,-17.66385 1.58352,-39.94326 0,-31.9821 -0.33277,-37.20019 -2.53452,-39.7725 -1.72266,-2.01276 -3.98102,-2.94406 -6.17032,-2.82701 z m -374.83233,14.43838 c -134.88996,0 -150.87612,0.26395 -153.03089,2.54239 -2.1409,2.26376 -2.40954,15.07013 -2.44481,116.16796 l -0.0407,113.62081 -8.25847,34.64027 c -8.54955,35.85446 -8.90038,41.09109 -2.85077,42.74889 1.52158,0.41691 76.51264,0.84292 166.64551,0.94631 146.03235,0.16717 164.24778,-0.0857 167.28025,-2.33135 1.87168,-1.38621 3.40475,-3.96217 3.40475,-5.72513 0,-1.76301 -3.44662,-17.72353 -7.65736,-35.468 l -7.65512,-32.26426 V 297.87585 c 0,-100.41508 -0.28197,-114.2652 -2.38424,-117.43915 l -2.38424,-3.59777 z m -138.59313,16.18906 h 138.57072 138.57288 v 103.6196 103.61956 H 336.16044 197.58972 V 296.64735 Z m 20.07874,9.71428 -2.38423,3.59777 c -2.08626,3.14949 -2.38201,14.56102 -2.38201,91.47678 0,85.71892 0.0746,87.95771 3.06161,91.11626 3.00893,3.18164 5.10263,3.23729 120.08668,3.23729 104.34535,0 117.28634,-0.27624 119.43175,-2.54476 2.12983,-2.25203 2.40664,-12.90348 2.40664,-92.76931 0,-68.01782 -0.45165,-90.70704 -1.83692,-92.17166 -1.39742,-1.47756 -30.16274,-1.94237 -120.11137,-1.94237 z m 12.07595,16.16989 106.03471,0.41502 106.03244,0.41502 0.39933,77.3109 0.39677,77.30856 H 336.17614 229.74441 v -77.72594 z m 24.49957,17.93675 c -1.8566,0 -3.71415,0.81331 -5.25071,2.43806 -2.09406,2.2142 -2.40668,9.76132 -2.40668,58.19307 v 55.65066 l 3.40254,2.51867 c 1.87168,1.38621 3.78747,2.52107 4.25485,2.52107 0.46739,0 2.38093,-1.13486 4.25261,-2.52107 l 3.40253,-2.51867 v -55.65067 c 0,-48.43175 -0.31259,-55.97888 -2.40668,-58.19308 -1.53656,-1.62473 -3.39187,-2.43805 -5.24846,-2.43805 z m 65.05182,17.70433 c -7.81827,0 -8.39977,3.48717 -8.39977,50.44491 0,23.7867 0.65014,45.05543 1.44446,47.26455 0.79433,2.20909 2.68841,4.35717 4.20996,4.77411 4.71188,1.29122 4.98058,1.22246 8.12617,-2.10366 2.9187,-3.08619 3.0638,-5.39784 3.0638,-49.2662 0,-49.91226 -0.19967,-51.11371 -8.44462,-51.11371 z m -31.86536,16.95253 c -2.01544,-0.0612 -3.98051,0.73445 -5.54904,2.393 -2.9847,3.15596 -3.14011,5.16866 -3.14011,40.5575 0,35.38881 0.15546,37.4039 3.14011,40.5599 3.13707,3.31706 7.85732,3.17348 11.40758,-0.34605 0.93804,-0.92999 1.52971,-16.50825 1.52971,-40.21364 0,-23.70538 -0.59167,-39.28364 -1.52971,-40.21361 -1.7751,-1.75991 -3.84305,-2.67579 -5.85854,-2.73689 z m 326.69449,28.37909 c -78.10279,0 -101.07013,0.45306 -102.96184,2.02541 -4.21168,3.50072 -4.76102,8.79483 -1.29196,12.46301 3.09927,3.27704 4.39406,3.32265 98.07455,3.32265 h 94.93214 l 0.0203,29.54597 c 0.0108,16.25115 0.41659,31.10419 0.89943,33.00621 0.48264,1.90198 2.3681,4.17041 4.18982,5.03974 1.82174,0.86936 4.3463,1.21298 5.60955,0.76607 5.70023,-2.01677 6.12323,-4.99838 6.12323,-43.04066 0,-32.34838 -0.33125,-37.59191 -2.53453,-40.16619 -2.40592,-2.81105 -7.61559,-2.96221 -103.06055,-2.96221 z m 97.39265,97.14266 c -89.94856,0 -118.71171,0.46479 -120.10908,1.94236 -1.32583,1.40191 -1.83698,12.63905 -1.83698,40.36064 0,32.76642 0.35208,38.79311 2.40448,40.96308 2.14539,2.26855 15.08635,2.54477 119.4317,2.54477 114.984,0 117.07997,-0.0581 120.0889,-3.23964 2.87906,-3.04429 3.06161,-5.39579 3.06161,-39.3053 0,-30.02419 -0.39779,-36.67278 -2.38201,-39.66814 l -2.38424,-3.59777 z m 106.19844,16.16985 v 25.91498 25.91496 H 711.25964 604.80558 l 0.42166,-25.4999 0.42168,-25.49996 106.0324,-0.41486 z m -622.51952,4.86188 140.82039,0.41283 140.8203,0.41281 5.79579,24.28565 c 3.18792,13.35713 5.81545,24.83211 5.83832,25.49991 0.0254,0.66791 -68.51727,1.21432 -152.31086,1.21432 -83.79366,0 -152.36703,-0.54641 -152.38495,-1.21432 -0.0177,-0.6678 2.54529,-12.32822 5.69481,-25.91258 z m 516.32108,82.58815 c -89.94856,0 -118.71171,0.4648 -120.10908,1.94236 -1.32583,1.40196 -1.83698,12.63905 -1.83698,40.36069 0,32.76637 0.35208,38.79074 2.40448,40.9607 2.14539,2.26854 15.08635,2.54476 119.4317,2.54476 114.984,0 117.07997,-0.0556 120.0889,-3.23727 2.87906,-3.04431 3.06161,-5.39815 3.06161,-39.30767 0,-30.02425 -0.39779,-36.67049 -2.38201,-39.66579 l -2.38424,-3.59778 z m -310.28069,3.67366 c -1.02745,0 -2.05569,0.6144 -3.82869,1.84278 l -3.82867,2.65388 v 38.8191 38.81909 h -30.12038 c -25.87837,0 -30.51375,0.37767 -32.91953,2.68 -3.64844,3.49125 -3.55191,7.8581 0.26215,11.89137 2.88431,3.0498 5.10414,3.2397 38.17025,3.2397 29.8745,0 35.46558,-0.3797 37.51306,-2.54477 2.07239,-2.19132 2.40669,-8.81041 2.40669,-47.72466 v -45.17983 l -3.82871,-2.65388 c -1.77301,-1.22838 -2.799,-1.84278 -3.8264,-1.84278 z M 212.78111,506.557 c -0.0371,0.0355 0.71388,0.45869 1.66873,0.94388 6.21287,3.15845 11.67384,7.21539 14.76747,10.97125 1.16416,1.4134 2.34389,3.0524 2.34389,3.25631 0,0.0408 -1.11136,0.11984 -2.46947,0.18041 -1.3581,0.0601 -2.79685,0.1789 -3.1962,0.26553 l -0.72444,0.15902 -2.16445,-1.98272 c -3.92538,-3.59517 -8.65769,-6.43138 -15.39325,-9.22572 -3.66858,-1.52194 -11.06311,-3.62998 -12.72866,-3.62861 -0.1743,1.6e-4 0.68999,0.49998 1.91995,1.10994 5.49224,2.72442 10.14811,5.98077 13.81424,9.65972 1.63462,1.64035 4.93812,5.29338 5.05781,5.59234 0.0281,0.0699 -0.93526,0.3746 -2.14199,0.6783 -9.96331,2.50651 -19.31729,6.27899 -25.58291,10.31903 -3.32034,2.14093 -6.51268,4.93987 -7.40167,6.48882 l -0.2871,0.49793 0.44407,-0.26093 c 3.60422,-2.1393 4.8775,-2.69896 6.88133,-3.01432 0.6711,-0.10545 1.58485,-0.16717 2.02985,-0.13762 l 0.80971,0.0545 -1.8594,2.02538 c -8.7683,9.55598 -15.89949,20.60541 -19.44848,30.14121 -1.54221,4.14387 -2.75036,9.1326 -2.56591,10.58942 0.0526,0.41535 0.18274,0.27726 1.06763,-1.1313 1.88085,-2.99348 3.05225,-4.26665 5.23501,-5.68717 1.26446,-0.82289 3.16018,-1.80628 3.27693,-1.70047 0.0477,0.0408 -0.24727,1.24794 -0.65494,2.67758 -3.61965,12.69315 -5.18756,28.90098 -3.64029,37.63803 0.55562,3.1374 1.75385,6.26029 2.84854,7.43036 l 0.39475,0.42198 0.004,-2.05148 c 0.0121,-3.97221 0.56575,-6.97403 1.66873,-9.05966 0.54825,-1.03669 2.15342,-2.99159 2.55247,-3.10922 0.13259,-0.0408 0.25112,0.41078 0.33195,1.25458 0.18463,1.92671 0.9962,6.04627 1.71135,8.68736 1.70011,6.27858 4.31051,11.64604 9.75902,20.06651 4.22459,6.52891 4.57355,7.42892 4.56662,11.73726 -0.004,2.94725 -0.29926,4.99149 -1.20447,8.32918 -1.06097,3.91218 -2.47442,7.53952 -4.1472,10.64161 -0.53339,0.98919 -1.00647,1.87273 -1.04968,1.96371 -0.0433,0.0908 0.417,-0.32108 1.02277,-0.91546 0.60575,-0.59452 2.02386,-1.83528 3.15132,-2.75821 12.98871,-10.63273 28.24682,-14.15131 46.96254,-10.82655 8.63346,1.53366 17.19585,4.15401 31.12297,9.52453 11.26275,4.34309 16.89005,5.8129 20.00699,5.2271 v 0.003 c 1.89854,-0.35676 3.22494,-1.56267 3.90043,-3.54325 0.48621,-1.42489 0.42574,-5.25901 -0.12097,-7.76003 -1.89596,-8.66714 -7.56516,-16.81699 -18.74645,-26.94904 -5.37685,-4.87226 -11.66007,-9.79469 -24.2349,-18.98973 -16.79704,-12.2824 -22.34235,-17.00141 -26.35897,-22.43575 -4.30469,-5.82417 -4.21179,-10.65155 0.28263,-14.7896 0.55613,-0.51206 1.01062,-0.98849 1.00931,-1.06013 -0.001,-0.0714 -0.47771,-0.39603 -1.05866,-0.72097 -1.34274,-0.75139 -3.67658,-2.8257 -4.65632,-4.13852 -2.46032,-3.29668 -3.63904,-7.26747 -3.05712,-10.29536 0.20696,-1.0769 0.80721,-2.45226 1.06987,-2.45226 0.0638,0 0.0707,0.59273 0.0159,1.31865 -0.12272,1.62145 0.10767,3.82197 0.51587,4.93537 0.168,0.45817 0.71767,1.40384 1.22014,2.10125 0.50252,0.69748 1.08505,1.57648 1.29643,1.9519 0.6934,1.23159 4.92316,4.80383 7.52729,6.35838 3.91967,2.33984 6.41715,2.59927 10.97466,1.13836 3.79695,-1.21706 5.25133,-1.5812 7.14374,-1.78343 6.41907,-0.68599 15.77631,2.921 25.02217,9.64547 4.04924,2.94501 5.72854,4.03248 7.66635,4.95912 2.1664,1.036 3.74315,1.43377 6.79607,1.71471 11.31064,1.04067 10.99575,1.02328 12.33843,0.67115 1.55454,-0.40772 3.42525,-1.29961 5.05557,-2.4096 l 1.41977,-0.96764 -0.92861,-0.0356 c -7.96198,-0.33637 -13.80686,-2.42245 -20.58789,-7.34972 -1.07623,-0.78202 -3.71729,-2.85036 -5.86976,-4.59626 -8.76991,-7.11343 -11.48548,-8.7852 -19.75574,-12.16179 -1.63998,-0.66959 -3.80842,-1.59483 -4.82007,-2.05623 l -1.8392,-0.83955 0.81418,-0.63325 c 1.28785,-1.0024 2.87078,-1.90566 4.03057,-2.30049 3.06611,-1.04373 7.56799,-0.36186 14.92223,2.26257 5.63341,2.01025 8.8153,3.82269 13.06283,7.43748 3.68162,3.13319 5.19025,4.01025 9.18035,5.3433 2.58173,0.86255 3.27267,1.28694 3.89596,2.38828 0.39985,0.70616 0.46895,2.33473 0.17478,4.17882 -0.0955,0.60023 -0.15189,1.11192 -0.12552,1.13603 0.11228,0.10197 2.14673,-1.23265 2.97635,-1.95187 0.92491,-0.80182 1.66283,-1.90578 1.87961,-2.81516 l 0.12339,-0.517 3.29937,0.39347 c 5.36198,0.63665 5.57896,0.78532 5.36284,3.70922 -0.15139,2.04419 0.002,2.18486 1.11027,1.02217 0.91028,-0.95641 1.37808,-1.81188 1.52073,-2.7843 0.0786,-0.5378 0.2967,-0.98945 0.65938,-1.36844 0.4796,-0.50047 0.53486,-0.67585 0.49128,-1.52019 -0.0459,-0.8694 0.0108,-1.02452 0.62129,-1.74558 1.0527,-1.24133 1.36466,-2.16604 1.35699,-4.02234 -0.005,-1.32714 -0.11027,-1.89908 -0.6056,-3.31791 -0.64439,-1.84486 -0.70562,-2.26273 -0.40592,-2.77009 0.38814,-0.65706 1.87528,-0.16207 2.53,0.84196 0.50864,0.78022 0.69657,0.63573 0.5742,-0.43883 -0.15955,-1.40023 -1.06761,-2.93334 -2.53001,-4.27134 -2.36143,-2.16042 -3.70089,-2.38514 -6.47089,-1.08859 -1.61633,0.7566 -1.76081,0.79029 -2.83507,0.70201 -1.43359,-0.11766 -2.80535,-0.69649 -4.22791,-1.78822 -3.61427,-2.77371 -4.31161,-3.06994 -6.19721,-2.62541 -0.58902,0.13915 -1.26238,0.36747 -1.49831,0.50761 -0.39982,0.23701 -0.51353,0.20998 -1.6777,-0.37714 -2.00901,-1.01303 -3.93266,-2.21075 -5.58939,-3.48397 -1.97074,-1.51454 -6.04504,-5.59517 -6.5516,-6.56235 -0.46082,-0.87941 -3.21484,-4.38306 -6.06267,-7.70782 l -2.04779,-2.38824 0.0583,-1.15499 c 0.11523,-2.25977 -1.45305,-5.19162 -4.43652,-8.29127 -1.01776,-1.05744 -2.73963,-2.34778 -3.7928,-2.84123 -0.62357,-0.29204 -0.58424,-0.19062 0.34094,0.87274 1.58079,1.81702 1.9364,2.96641 1.5835,5.11563 l -0.23101,1.41589 -0.65492,-1.07197 c -1.80719,-2.95699 -6.50249,-6.84118 -10.47675,-8.66601 l -0.98241,-0.45054 0.82764,0.98424 c 2.56219,3.04302 3.80301,5.23837 3.56627,6.31095 l -0.10757,0.48162 -1.23585,-0.43422 c -4.52852,-1.59125 -8.10188,-2.40162 -12.13877,-2.75109 -3.62376,-0.31395 -3.44089,-0.25636 -4.95912,-1.53207 -6.44137,-5.4116 -14.17711,-9.61353 -22.43634,-12.18558 -2.07067,-0.64664 -6.57957,-1.83043 -6.66602,-1.7521 z m 604.93491,10.25736 v 25.91733 25.91497 H 711.25964 604.80558 l 0.42166,-25.4999 0.42168,-25.49996 106.0324,-0.41486 z m -557.80415,20.79455 c 0.72404,0.0459 1.4365,0.2268 2.12855,0.53367 0.76268,0.33791 1.53078,0.95632 3.11094,2.50445 1.15404,1.13062 2.86976,2.75941 3.81524,3.61914 0.94549,0.85974 1.61439,1.56291 1.48483,1.56291 -0.12955,0 -1.07174,-0.23546 -2.09265,-0.52418 -2.05771,-0.58192 -2.72899,-0.85739 -3.4833,-1.4277 -0.82169,-0.62127 -2.32666,-1.03778 -5.01967,-1.3874 -2.94609,-0.38274 -4.14846,-0.85851 -5.13409,-2.0349 -0.33677,-0.40213 -0.61231,-0.79875 -0.61231,-0.87989 0,-0.23801 2.35238,-1.36063 3.60214,-1.71942 0.73942,-0.21203 1.47631,-0.29458 2.20032,-0.24668 z m 39.73361,18.21192 c 0.64212,0.0307 1.326,0.38376 2.13527,1.06247 1.10508,0.92707 2.9357,3.10794 2.44926,2.91712 -0.14733,-0.0581 -0.81409,-0.31292 -1.48033,-0.56683 -1.42027,-0.54075 -3.81754,-0.72549 -5.40324,-0.41741 -0.54284,0.10556 -1.01119,0.16921 -1.04071,0.1422 -0.13008,-0.11781 0.93455,-1.78218 1.45117,-2.26967 0.64507,-0.60857 1.24643,-0.89903 1.88858,-0.868 z m 411.8721,48.44561 c -89.94856,0 -118.71171,0.46482 -120.10908,1.94236 -1.32583,1.4019 -1.83698,12.63905 -1.83698,40.36064 0,32.76642 0.35208,38.79079 2.40448,40.96069 2.14539,2.2686 15.08635,2.54482 119.4317,2.54482 114.984,0 117.07997,-0.0555 120.0889,-3.23728 2.87906,-3.04434 3.06161,-5.39814 3.06161,-39.30765 0,-30.02427 -0.39779,-36.67046 -2.38201,-39.6658 l -2.38424,-3.59778 z m 106.19844,16.1675 v 25.915 25.91731 H 711.25964 604.80558 l 0.42166,-25.49996 0.42168,-25.49991 106.0324,-0.4174 z" /></g><path
       id="path504"
       style="fill:#00ff00;fill-rule:evenodd;stroke-width:2.84483;stroke-linecap:round;stroke-linejoin:bevel"
       d="m 253.64453,236.20898 c -3.22508,0.22251 -5.73375,3.01957 -6.58912,5.98814 -0.46831,1.90863 -0.33517,3.90693 -0.45016,5.85812 -0.39413,15.9767 -0.42837,31.95957 -0.53629,47.94007 -0.0859,19.01458 -0.17073,38.02916 -0.25451,57.04375 0.22439,1.11222 1.47695,1.4269 2.24477,2.08825 1.94182,1.27292 3.80669,2.70067 5.89586,3.72425 1.0342,0.31369 1.85408,-0.6511 2.68479,-1.09897 1.96475,-1.37343 3.92479,-2.77265 5.8074,-4.25064 0.62378,-0.85976 0.22181,-1.98696 0.33473,-2.96875 -0.0385,-23.71752 0.0342,-47.43555 -0.14219,-71.15262 -0.12494,-10.75171 -0.16025,-21.51164 -0.75153,-32.25023 -0.19438,-2.17189 -0.17867,-4.41184 -0.85781,-6.50219 -1.08443,-2.33564 -3.53642,-3.81193 -5.9943,-4.3187 -0.45838,-0.0844 -0.92593,-0.11639 -1.39164,-0.10048 z" /><path
       id="path506"
       style="fill:#00ff00;fill-rule:evenodd;stroke-width:2.84483;stroke-linecap:round;stroke-linejoin:bevel"
       d="m 287.12305,271.00195 c -3.13221,0.0819 -6.44907,1.93087 -7.40983,5.05263 -0.97721,3.09103 -1.01969,6.3756 -1.25679,9.58289 -0.64214,11.60427 -0.54284,23.23221 -0.48652,34.84919 0.10761,9.18169 0.16168,18.37067 0.68209,27.5401 0.0962,3.23073 1.37981,6.62448 4.14916,8.48161 1.14249,0.71268 2.32955,1.45242 3.65392,1.75921 1.31357,0.0935 2.59538,-0.41472 3.81669,-0.8404 1.84755,-0.80377 3.81711,-2.15684 4.11292,-4.31238 0.52787,-3.19991 0.49636,-6.46134 0.6593,-9.69366 0.39687,-10.81876 0.61878,-21.64435 0.54401,-32.47073 -0.0828,-10.59265 -0.18683,-21.19466 -0.8773,-31.76786 -0.17405,-1.59203 -0.14936,-3.25652 -0.71659,-4.76993 -1.28313,-2.44099 -4.24981,-3.48499 -6.87106,-3.41067 z" /><path
       id="path508"
       style="fill:#00ff00;fill-rule:evenodd;stroke-width:2.84483;stroke-linecap:round;stroke-linejoin:bevel"
       d="m 318.95312,253.8457 c -2.11192,-0.007 -4.43471,0.67211 -5.60268,2.56864 -1.54569,2.45409 -1.81881,5.43547 -2.18855,8.24671 -0.79918,6.80086 -0.72184,13.6614 -0.8572,20.49715 -0.14861,16.37548 -0.13774,32.75479 0.22807,49.12742 0.18239,5.28238 0.26177,10.58228 0.88696,15.83526 0.28787,2.33303 0.92017,4.94697 3.03275,6.30162 2.08336,1.35184 4.72394,2.50188 7.21159,1.61656 2.33222,-0.90908 3.88375,-3.05576 5.10156,-5.14453 0.80347,-1.56043 0.67169,-3.38702 0.86776,-5.08634 0.53216,-9.17624 0.60057,-18.37254 0.70191,-27.56169 0.1013,-16.48424 0.0756,-32.97372 -0.45147,-49.45124 -0.17409,-3.63754 -0.20309,-7.3005 -0.77149,-10.90334 -0.53577,-2.32858 -1.86117,-4.75509 -4.26077,-5.55403 -1.24613,-0.44659 -2.58627,-0.52016 -3.89844,-0.49219 z" /></g></svg>
