<?xml version="1.0" encoding="UTF-8" standalone="no"?>
<svg
   version="1.1"
   id="svg2"
   width="3543"
   height="2480"
   viewBox="0 0 3543 2480"
   sodipodi:docname="aa.svg"
   inkscape:version="1.2.2 (b0a8486541, 2022-12-01)"
   xmlns:inkscape="http://www.inkscape.org/namespaces/inkscape"
   xmlns:sodipodi="http://sodipodi.sourceforge.net/DTD/sodipodi-0.dtd"
   xmlns="http://www.w3.org/2000/svg"
   xmlns:svg="http://www.w3.org/2000/svg"
   xmlns:rdf="http://www.w3.org/1999/02/22-rdf-syntax-ns#"
   xmlns:cc="http://creativecommons.org/ns#"
   xmlns:dc="http://purl.org/dc/elements/1.1/">
  <metadata
     id="metadata8">
    <rdf:RDF>
      <cc:Work
         rdf:about="">
        <dc:format>image/svg+xml</dc:format>
        <dc:type
           rdf:resource="http://purl.org/dc/dcmitype/StillImage" />
      </cc:Work>
    </rdf:RDF>
  </metadata>
  <defs
     id="defs6" />
  <sodipodi:namedview
     pagecolor="#7c7c7c"
     bordercolor="#ffffff"
     borderopacity="1"
     objecttolerance="10"
     gridtolerance="10"
     guidetolerance="10"
     inkscape:pageopacity="0"
     inkscape:pageshadow="2"
     inkscape:window-width="1366"
     inkscape:window-height="705"
     id="namedview4"
     showgrid="false"
     inkscape:zoom="0.10855917"
     inkscape:cx="1381.735"
     inkscape:cy="598.75184"
     inkscape:window-x="0"
     inkscape:window-y="0"
     inkscape:window-maximized="1"
     inkscape:current-layer="g10"
     inkscape:pagecheckerboard="true"
     inkscape:showpageshadow="0"
     inkscape:deskcolor="#7a7a7a" />
  <g
     inkscape:groupmode="layer"
     inkscape:label="Image"
     id="g10">
    <g
       id="g254"
       transform="matrix(2.4385776,0,0,2.4620467,-3.7827449,185.5881)">
      <path
         id="path14-3"
         style="fill:#ffffff;stroke-width:1.01474;stroke-miterlimit:4;stroke-dasharray:none"
         d="m 910.30273,17.015625 c -169.07267,0.124407 -338.14996,0.249849 -507.22265,0.373047 -3.94179,5.596983 -9.5776,9.904812 -12.91797,15.93164 -2.80996,5.125981 -3.2047,11.070256 -3.45117,16.773438 -0.66105,15.776713 -0.5597,31.571468 -0.79102,47.357422 -0.58515,64.588048 -0.66145,129.181838 -1.51172,193.767578 -65.54439,0.62619 -131.09267,1.17072 -196.64062,1.17773 -24.11744,0.0144 -48.23414,0.0175 -72.35156,0.0195 -6.00695,5.30063 -12.01449,10.60177 -18.021489,15.90234 v 372.92187 c -13.762612,17.34289 -27.876454,34.38257 -41.835937,51.57227 -2.844366,3.58929 -5.764802,7.17531 -7.908203,11.22656 -1.561328,3.28384 -2.224741,7.00707 -1.728516,10.60938 -4.840241,0.87752 -9.128198,4.01069 -11.525391,8.21875 -2.696026,4.59189 -3.233438,10.30905 -1.505859,15.32617 1.565557,4.76747 4.492987,8.95951 7.568359,12.89844 3.106138,3.82228 6.920013,7.01053 10.90625,9.9082 1.49014,1.11734 2.865739,2.49733 4.650391,3.14648 1.592633,0.4628 3.268937,0.13435 4.900391,0.25391 48.570354,0.44872 97.141964,0.8458 145.714844,0.83203 118.18307,0.16962 236.36974,-0.0122 354.55273,-0.1582 73.39948,-0.10799 146.79976,-0.21469 220.19922,-0.32422 6.12564,-4.56369 12.52277,-9.06596 17.04297,-15.28906 3.63272,-4.4946 6.75615,-9.73698 7.23047,-15.57617 0.077,-1.20859 -0.13615,-2.40461 -0.32617,-3.59766 l -63.72266,-85.01563 h -0.0645 v -0.0859 l -0.0332,-0.0449 0.0332,-0.0273 v -25.1582 h 256.94336 v 25.3164 h -0.0254 c -0.0602,16.88866 -0.1377,33.77746 -0.15821,50.66602 -0.01,22.26132 0.0172,44.52303 0.41993,66.78125 0.13606,3.6697 0.15716,7.40077 1.09765,10.97656 1.82945,6.33479 6.13495,11.59204 10.64255,16.31055 2.7952,2.8789 5.7167,5.6598 8.416,8.5625 0.5459,0.42755 1.038,1.10287 1.8164,0.91992 h 136.5508 c 4.6198,-4.97223 10.4437,-8.77576 14.582,-14.19336 4.1565,-5.35793 5.9633,-12.07439 6.7149,-18.67578 0.7173,-6.66181 0.917,-13.36739 1.1562,-20.05859 0.099,-3.37428 0.1975,-6.74866 0.293,-10.12305 50.7745,-0.0523 101.553,0.0539 152.3262,-0.42188 15.0274,-0.20069 30.0629,-0.43528 45.0644,-1.375 5.6536,-0.4429 11.4049,-0.93294 16.7715,-2.85742 7.2805,-2.79336 13.1813,-8.21418 17.8711,-14.24218 4.3941,-5.68251 7.5083,-12.17489 10.4551,-18.66211 0.9476,-1.87511 1.7933,-3.90826 1.5918,-6.04688 -0.058,-98.64117 -0.023,-197.28298 -0.3086,-295.92383 -0.1067,-25.28882 -0.1489,-50.57954 -0.5801,-75.86523 -0.2542,-6.82574 -0.4095,-13.71557 -1.8906,-20.41406 -1.9699,-7.39959 -6.4663,-13.85461 -11.4844,-19.58203 -4.032,-4.44899 -8.6617,-8.53996 -14.1836,-11.10157 -3.8357,-1.64279 -8.0735,-2.06908 -12.2188,-2.00195 -15.2623,-0.49365 -30.5366,-0.51471 -45.8046,-0.70313 -36.1634,-0.34197 -72.3284,-0.42149 -108.4922,-0.5957 -0.5539,-50.6074 -0.63,-101.22061 -0.8574,-151.83008 -0.1175,-26.60061 -0.1859,-53.20161 -0.5059,-79.800778 -0.1583,-9.947581 -0.3395,-19.907467 -1.1719,-29.826172 -0.5169,-5.567595 -1.5927,-11.339846 -4.957,-15.986328 -3.1448,-4.401479 -8.006,-7.458724 -13.2734,-8.789063 -5.9517,-1.634683 -12.194,-1.620397 -18.2872,-1.998047 -17.8395,-0.778731 -35.7016,-0.791338 -53.5546,-0.990234 -43.7054,-0.356072 -87.4148,-0.327705 -131.1211,-0.392578 -31.69282,-0.02715 -63.38542,-0.01444 -95.07813,-0.01563 z" />
      <g
         id="g379"
         transform="matrix(0.97814859,0,0,0.96214068,15.882908,16.193458)">
        <rect
           style="fill:#ff0000;stroke-width:1.91279"
           id="rect1700"
           width="188.29274"
           height="71.937584"
           x="309.19498"
           y="709.55298" />
        <rect
           style="fill:#ff0000;stroke-width:1.1169"
           id="rect1574"
           width="314.51404"
           height="81.72937"
           x="183.60138"
           y="684.91309"
           transform="matrix(0.99999321,-0.00368528,-0.11521586,0.99334048,0,0)" />
        <rect
           style="fill:#ff0000;stroke-width:1.18645"
           id="rect1574-6"
           width="335.95105"
           height="86.33905"
           x="131.39442"
           y="722.07324"
           transform="matrix(0.99999405,-0.00345013,0.34033127,0.9403056,0,0)" />
        <path
           id="path1431"
           style="fill:#ff0000;stroke-width:0.525743"
           d="m 1084.8892,645.63957 c -3.1059,0.0166 -6.0239,1.53811 -8.1908,3.70477 -1.565,1.42732 -3.364,2.92744 -3.8898,5.07445 -0.4571,2.09758 0.9394,4.37428 3.0273,4.89022 1.9987,0.58498 3.9309,-0.47621 5.8447,-0.9066 3.0102,-0.90027 6.1511,-1.51755 8.9652,-2.95938 2.0847,-1.24173 3.0615,-4.22759 1.6737,-6.32856 -1.558,-2.41624 -4.6535,-3.55417 -7.4303,-3.4749 z" />
        <path
           id="path1219"
           style="fill:#ff0000;stroke-width:1.05149"
           d="m 891.62541,129.74487 c -5.6131,0.35029 -11.20488,1.37012 -16.54592,3.14767 -2.10486,0.71012 -4.39474,1.82963 -5.20875,4.06287 -0.89378,2.29535 0.58625,4.87628 2.69673,5.87739 3.59321,1.96003 7.54959,3.18725 11.53966,4.02729 7.99876,1.59656 16.17495,2.14449 24.12993,3.98693 6.64916,1.43765 13.12349,3.78798 19.92292,4.45767 2.02645,0.19968 4.42272,-0.40925 5.39189,-2.37819 1.1387,-1.90627 0.34081,-4.44541 -1.37238,-5.72156 -2.86521,-2.10693 -6.00082,-3.81336 -9.03908,-5.65232 -4.78994,-2.7375 -9.59091,-5.48255 -14.61329,-7.77281 -5.30651,-2.39019 -11.02777,-4.17378 -16.90171,-4.03494 z" />
        <path
           id="path903"
           style="fill:#ff0000;stroke-width:1.05149"
           d="m 489.74362,392.35869 c -6.94088,0.40984 -13.98232,0.21547 -20.80006,1.77208 -2.14895,0.48516 -4.45142,1.61647 -5.22851,3.83543 -0.96189,2.53577 0.76555,5.37126 3.13936,6.35395 3.87921,1.79851 8.14135,2.48092 12.2922,3.35619 8.55475,1.6483 17.18106,2.97794 25.62421,5.1614 2.04611,0.40754 4.19371,0.87945 6.26852,0.42536 2.27885,-0.59318 3.8712,-3.22303 3.0082,-5.49344 -0.5202,-1.63433 -2.00377,-2.6409 -3.44355,-3.40117 -6.72455,-4.05409 -13.48894,-8.03427 -20.2449,-12.03627 -0.20519,0.008 -0.41028,0.0176 -0.61547,0.0265 z" />
        <path
           id="path1061"
           style="fill:#ff0000;stroke-width:1.05149"
           d="m 1218.6758,456.9601 c -4.8313,0.0705 -9.1324,2.74393 -12.7237,5.76639 -2.7951,2.45033 -5.6566,4.9028 -7.8808,7.90443 -0.8944,1.30414 -1.1003,3.03047 -0.4718,4.48586 0.5254,1.6489 2.3734,2.3792 3.969,2.40962 1.4951,-0.0922 2.8722,-0.77149 4.317,-1.11869 5.0717,-1.55342 10.1418,-3.12436 15.2866,-4.42268 2.7641,-0.77399 5.4352,-1.93845 7.8504,-3.49402 1.5812,-1.06222 3.0089,-2.77931 2.7768,-4.80725 -0.083,-1.68452 -1.2863,-3.06712 -2.7429,-3.79105 -2.6369,-1.47191 -5.5571,-2.50449 -8.5606,-2.86132 -0.6049,-0.0576 -1.2125,-0.0857 -1.82,-0.0713 z" />
        <path
           id="path14"
           style="fill:#000000;stroke-width:1.046;stroke-miterlimit:4;stroke-dasharray:none"
           d="m 787.01906,18.934956 -382.66992,0.306641 -3.43164,3.822265 c -3.40476,3.794363 -3.43315,3.91833 -4.03125,16.908203 -0.33135,7.197045 -0.8633,66.584875 -1.18164,131.970705 -0.31835,65.3858 -0.85282,121.77679 -1.1875,125.31445 l -0.60742,6.4336 -73.59961,0.69921 c -40.47932,0.38502 -104.66335,0.70072 -142.63086,0.70118 h -69.03321 l -3.65625,3.27929 -3.6582,3.28125 v 192.88672 192.88672 l -10.027339,12.80274 c -5.515228,7.04216 -16.591053,20.88899 -24.611329,30.76953 -14.373328,17.70699 -18.132812,22.63563 -18.132812,23.76562 0,0.31596 9.661809,0.70083 21.470703,0.85742 11.808791,0.15659 32.840557,0.52408 46.736327,0.81641 17.48947,0.36792 25.47731,0.18195 25.95508,-0.60742 0.39021,-0.64484 3.57405,2.76163 7.32812,7.83984 l 6.63867,8.98047 255.24414,0.0449 255.24219,0.0449 7.4961,-10.56445 c 4.12307,-5.80994 7.68819,-10.36759 7.92187,-10.1289 0.2338,0.23865 -0.0488,1.33738 -0.62695,2.4414 -1.02669,1.95911 0.11214,2.00546 47.41211,1.93945 26.65531,-0.0371 48.0907,-0.30509 47.63476,-0.5957 -0.45593,-0.2906 -2.89268,-3.38188 -5.41406,-6.86914 -2.52138,-3.48726 -14.48337,-18.46632 -26.58399,-33.28711 l -22.00195,-26.94726 0.47266,-26.7168 c 0.26,-14.69356 0.65165,-26.88563 0.87109,-27.0957 0.21955,-0.21008 7.38339,0.0161 15.91992,0.5039 81.90868,4.68055 176.20113,-0.0695 220.60938,-11.11328 16.65497,-4.14188 23.07031,-8.01371 23.07031,-13.92578 0,-4.39385 -1.3219,-5.78865 -9.45117,-9.96289 l -8.1543,-4.18555 -65.69726,0.2793 -65.69922,0.2793 V 593.4857 c 10e-5,-7.31756 0.3057,-21.22741 0.67969,-30.91016 l 0.67968,-17.60351 h 122.97071 122.96871 l 0.012,5.01757 c 0,2.76073 0.3013,7.51702 0.6602,10.56836 l 0.6523,5.54883 -19.0273,0.008 c -29.1047,0.0122 -35.6856,1.7098 -39.8535,10.27539 -1.8542,3.81077 -1.9524,9.18751 -2.2696,123.92383 -0.2254,81.56724 0.016,121.13842 0.7539,123.68555 0.597,2.05999 3.2771,5.98376 5.9551,8.71875 l 4.8692,4.97266 h 62.7812 62.7832 l 4.6719,-4.20118 c 6.2717,-5.63806 6.92,-8.79573 7.7129,-37.59961 l 0.6523,-23.71874 90.1153,-0.0508 c 102.7066,-0.0584 133.3227,-0.85538 140.0585,-3.64648 5.5569,-2.30248 11.7152,-9.37967 15.75,-18.10156 l 3.1172,-6.73828 -0.078,-185.19141 c -0.042,-101.855 -0.4154,-192.35956 -0.8301,-201.12109 -0.7043,-14.88487 -0.9448,-16.26521 -3.6875,-21.04493 -3.8215,-6.65948 -10.8001,-13.73397 -14.623,-14.82226 -1.6655,-0.47415 -42.6993,-1.04093 -91.1836,-1.25977 l -88.1523,-0.39648 -0.5469,-4.44727 c -0.3002,-2.44573 -0.7465,-66.74269 -0.9922,-142.88086 -0.4866,-150.691035 -0.363,-147.57556 -6.0606,-150.359373 -6.4988,-3.175258 -48.0023,-3.482003 -428.47454,-3.175781 z m 273.03514,40.587891 v 0 c 79.2534,0.341706 119.9453,1.046101 120.9883,2.111328 0.9971,1.018235 1.5139,9.915356 2.0645,35.492187 0.4041,18.772428 1.2008,41.025618 1.7695,49.453128 0.5688,8.4275 1.2735,50.86921 1.5664,94.31445 l 0.5332,78.99219 h -33.7734 -33.7715 l 1.2246,-2.37695 c 2.2613,-4.38668 22.4315,-37.20149 25.5977,-41.64454 2.0432,-2.86705 4.2316,-4.63984 6.2988,-5.10351 2.4692,-0.55389 3.168,-1.27336 3.168,-3.26758 v -2.55859 h -31.043 -31.041 v 2.52734 c 0,1.83178 0.7299,2.71573 2.6543,3.20899 1.7176,0.44023 3.1731,1.94461 4.1211,4.26171 1.9825,4.84563 0.8277,7.92951 -9.9043,26.46094 -4.7124,8.13689 -11.1232,19.22848 -14.2461,24.64844 -4.5703,7.9321 -5.9213,9.58044 -6.9278,8.45312 -1.5809,-1.77086 -23.3062,-39.82634 -26.8535,-47.03906 -3.3866,-6.88592 -3.4198,-11.26377 -0.1113,-14.64258 1.3968,-1.4266 3.028,-2.5957 3.623,-2.5957 0.595,0 1.0801,-1.1876 1.0801,-2.64063 v -2.64257 h -32.5937 c -32.07213,0 -32.59375,0.0342 -32.59375,2.14648 0,1.18067 0.81454,2.39959 1.81055,2.70899 5.1171,1.58973 8.45568,4.22372 11.65429,9.19726 1.94429,3.02309 14.57581,25.15871 28.07031,49.18945 l 24.5351,43.69336 -4.3925,7.5586 c -32.7396,56.3401 -39.3567,67.24935 -40.0391,66.0039 -1.1311,-2.06405 -28.88084,-99.52709 -28.88084,-101.43554 0,-0.89919 0.93008,-2.84449 2.06836,-4.32227 1.13818,-1.47776 2.07031,-3.20501 2.07031,-3.83984 0,-0.78142 -4.84631,-1.1543 -15.0039,-1.1543 -16.05959,0 -16.68961,0.24148 -13.32813,5.14258 1.1466,1.67189 1.52256,3.8327 1.18945,6.83984 -0.41525,3.74961 -26.66367,100.07604 -33.11718,121.53321 -1.19704,3.97995 -3.02886,7.78111 -4.07032,8.44531 -1.04133,0.66419 -1.89257,2.04382 -1.89257,3.0664 0,1.68274 1.32639,1.85938 13.96875,1.85938 11.72695,0 13.96875,-0.25521 13.96875,-1.58594 0,-0.8718 -0.93214,-2.53484 -2.07032,-3.69726 -2.785,-2.84418 -2.57945,-5.81164 1.38086,-20.07813 l 3.37305,-12.15234 h 19.59766 19.59765 l 3.52539,12.98437 c 4.07431,15.00609 3.80461,16.84359 -2.91015,19.86914 -3.17003,1.42835 -4.20899,2.49956 -4.20899,4.33594 v 2.4375 h 31.04097 31.043 v -2.53906 c 0,-1.87153 -0.8183,-2.8282 -3.1113,-3.64453 -3.6068,-1.28414 -5.6058,-5.54264 -4.7247,-10.06055 0.5127,-2.62848 29.0736,-54.83457 32.9434,-60.2168 1.2867,-1.78958 2.0587,-0.831 8.8457,10.97461 l 7.4356,12.9336 v 31.56054 31.56055 l -68.0332,-0.19141 c -74.99841,-0.20992 -138.70199,-1.12958 -197.89259,-2.85547 -21.34133,-0.62225 -51.25716,-1.14238 -66.48047,-1.15624 l -27.67969,-0.0254 v -4.22656 -4.22656 l 19.91797,-0.0156 c 21.98135,-0.0183 28.66734,-1.06702 36.42969,-5.71289 10.16133,-6.08153 18.50377,-22.42701 21.81054,-42.73242 2.41936,-14.85532 1.65474,-46.44487 -1.41015,-58.26953 -4.14046,-15.97422 -8.36207,-24.18788 -16.18359,-31.48828 -8.21592,-7.6686 -12.73299,-8.66797 -39.16211,-8.66797 h -21.40235 v -5.28516 -5.2832 l 93.38477,-0.043 c 84.84085,-0.0384 93.11402,-0.19151 90.43164,-1.67578 -1.62375,-0.89855 -20.01545,-9.47626 -40.8711,-19.0625 -77.86963,-35.79255 -99.5292,-48.74856 -105.83398,-63.30469 -1.70436,-3.93514 -1.86896,-5.36813 -0.94336,-8.23242 1.27317,-3.93979 6.26142,-9.24803 12.11133,-12.88672 l 3.97461,-2.4707 -3.48047,-1.25781 c -6.83967,-2.47131 -15.76301,-7.96703 -20.41992,-12.57617 -8.34288,-8.25747 -10.71717,-16.3567 -6.91211,-23.58008 l 1.78125,-3.38282 0.67773,6.3418 c 0.37274,3.48725 1.00047,7.12443 1.39453,8.08399 1.41107,3.43665 13.5994,12.81355 22.78125,17.52539 22.88116,11.74187 33.5709,13.18675 60.87891,8.22851 35.42242,-6.43146 65.1278,-1.3045 112.99414,19.5 31.14677,13.53762 32.89094,13.88189 82.77923,16.42774 13.1426,0.6707 22.3245,-0.89528 32.834,-5.60157 l 4.416,-1.97656 -11.5937,-0.72851 c -30.4991,-1.91596 -47.8078,-7.1999 -87.57615,-26.73633 -34.32575,-16.86276 -41.90318,-19.69896 -77.49024,-29.00586 -9.25944,-2.42159 -17.46344,-4.74457 -18.23242,-5.16211 -2.04121,-1.10814 12.08355,-6.19862 20.63672,-7.4375 10.8234,-1.56769 31.9924,1.05187 55.7793,6.90234 16.697,4.10672 26.13245,7.54408 41.90624,15.26953 16.16645,7.91783 20.31195,9.42562 35.09375,12.76368 12.9456,2.92341 15.6638,5.17431 14.7226,12.1875 -0.3627,2.70207 -0.2126,4.66992 0.3575,4.66992 2.7905,0 12.3334,-5.39368 14.7656,-8.3457 l 2.7851,-3.37891 13.1719,1.2168 c 17.9727,1.65885 18.3858,1.85714 17.9629,8.55468 -0.2922,4.62795 1.8541,4.51169 6.252,-0.33789 2.283,-2.51743 5.0608,-5.57916 6.1718,-6.80273 1.111,-1.22358 2.0196,-3.22702 2.0196,-4.45313 0,-1.22609 0.9262,-2.73659 2.0586,-3.35547 2.3424,-1.28024 5.1855,-6.34548 5.1855,-9.24023 0,-1.0684 -0.9321,-3.80788 -2.0703,-6.08789 -2.8636,-5.73611 -2.7067,-7.92578 0.5683,-7.92578 1.4511,0 4.0124,0.72656 5.6915,1.61328 2.6292,1.38851 3.0527,1.3988 3.0527,0.0801 0,-5.02789 -14.3072,-14.37305 -22.0039,-14.37305 -2.2456,0 -6.9446,0.76257 -10.4414,1.69531 -8.3191,2.21914 -16.9692,1.48668 -25.5176,-2.16211 -16.2227,-6.92447 -17.1877,-7.14891 -25.2285,-5.82422 -7.3166,1.20541 -7.5125,1.17721 -17.7207,-2.71484 -16.63287,-6.3415 -28.57522,-13.24938 -40.68749,-23.5293 -3.22775,-2.7394 -10.40395,-8.2919 -15.94727,-12.33984 -9.0375,-6.5996 -10.08008,-7.69816 -10.08008,-10.64062 0,-6.26106 -12.55501,-17.74121 -24.78906,-22.666021 -6.72391,-2.706649 -7.22245,-2.676448 -3.54687,0.220703 4.4385,3.498537 5.50266,5.217338 5.53906,8.945318 0.0478,4.9187 -1.52946,5.16073 -6.32031,0.97265 -2.34147,-2.04677 -7.80628,-5.59151 -12.14453,-7.878905 -7.36842,-3.885078 -21.7454,-9.675782 -24.0254,-9.675782 -0.55648,0 1.40618,2.022052 4.36133,4.492188 6.1278,5.122232 9.71963,9.629799 8.83594,11.089849 -0.36265,0.59934 -5.46818,0.0333 -12.77148,-1.41797 -6.69169,-1.32967 -18.23201,-2.943015 -25.64649,-3.583989 C 834.32552,97.058208 832.29436,96.580202 817.88234,89.76894 795.30987,79.100977 770.47493,71.405661 740.46633,65.778706 732.60329,64.304291 725.62029,63.120474 724.9468,63.1498 c -0.67351,0.02927 4.36214,2.094619 11.1914,4.589843 22.79484,8.328702 35.2228,14.530357 47.25977,23.580078 7.87748,5.92237 7.2367,6.466576 -7.74805,6.576172 l -10.15625,0.07422 -9.50391,-5.183594 c -11.52527,-6.286101 -24.65052,-11.337456 -43.86328,-16.882812 -14.19818,-4.098062 -37.72816,-8.966429 -48.9375,-10.125 -5.17431,-0.534798 -4.51545,-0.171143 7.24414,4.007812 22.84965,8.119898 33.43937,13.318031 51.60547,25.328125 11.1693,7.384486 11.36293,7.009676 -5.0332,9.671876 -48.81149,7.92532 -96.93169,23.02485 -111.29492,34.92383 l -3.05274,2.52734 8.03907,-2.57812 c 8.95659,-2.87255 20.96803,-5.0308 25.11328,-4.51368 2.36785,0.29543 1.32419,1.31415 -8.17383,7.97852 -24.38989,17.11392 -48.26041,39.25495 -60.47656,56.0957 -7.24309,9.98519 -14.43698,24.10321 -15.39649,30.2168 l -0.64844,4.13086 6.84375,-5.92969 c 3.76377,-3.26078 8.14484,-6.60625 9.73438,-7.43555 4.04801,-2.11191 18.09727,-7.19009 18.56641,-6.71093 0.21331,0.21786 -1.26699,4.10329 -3.28907,8.63476 -10.59053,23.73367 -16.39649,57.03171 -13.5,77.41797 l 0.78907,5.54688 h -6.17969 c -3.69471,0 -6.59842,-0.53045 -7.22461,-1.32032 -0.57595,-0.72649 -2.53823,-6.07658 -4.35938,-11.88867 -3.98267,-12.71041 -3.87539,-18.71817 0.39453,-22.19531 1.47878,-1.20428 2.6875,-3.24148 2.6875,-4.52734 v -2.33789 h -26.38476 c -25.34389,0 -26.38477,0.0812 -26.38477,2.0332 0,1.1177 1.39625,3.45755 3.10352,5.20117 2.75403,2.81262 3.10007,3.86516 3.06055,9.32813 -0.027,3.72576 -1.1694,9.70568 -2.89258,15.14062 l -2.84766,8.98242 -33.8418,0.27735 -33.83984,0.27929 0.01,-116.52148 c 0,-64.08604 0.29294,-118.937301 0.64062,-121.892579 l 0.63281,-5.373047 270.85352,-0.683594 C 862.98084,59.201967 980.79958,59.181147 1060.0544,59.52285 Z M 895.18508,133.70253 c 7.56226,0.72429 15.63942,4.64416 31.34375,14.32813 4.7738,2.94368 5.6101,3.79412 3.62109,3.68555 -4.25902,-0.23245 -7.32042,-0.89278 -16.55469,-3.57422 -4.83734,-1.40467 -13.91777,-3.06704 -20.17773,-3.69336 -10.86229,-1.08674 -20.17774,-4.03091 -20.17774,-6.37695 0,-1.11524 6.79179,-3.07563 14.29102,-4.125 2.66969,-0.37358 5.13365,-0.48555 7.6543,-0.24415 z m 145.91602,41.67383 c 4.0573,0.39414 8.5548,2.4467 13.2168,6.10938 2.3414,1.83959 2.3906,2.02595 0.5175,1.95117 -1.1383,-0.0455 -3.9326,-0.53641 -6.2089,-1.08984 -2.2765,-0.5534 -7.748,-0.86145 -12.1602,-0.68555 -8.7716,0.34971 -9.4273,-0.3502 -3.9043,-4.17188 1.4243,-0.98552 2.9796,-1.63433 4.6387,-1.95312 1.2443,-0.23909 2.5479,-0.29154 3.9004,-0.16016 z M 597.35891,291.35488 c 0.85028,0 1.92181,2.04037 2.63671,5.01953 0.66237,2.76073 1.44701,5.85009 1.74414,6.86719 0.48329,1.65402 -0.34067,1.84961 -7.80664,1.84961 -7.13523,0 -8.34765,-0.25831 -8.34765,-1.7793 0,-2.10486 9.70113,-11.95703 11.77344,-11.95703 z m -470.16016,41.20898 284.81055,0.26563 284.80859,0.26562 0.91602,24.30469 c 0.50355,13.36775 0.92788,79.22994 0.9414,146.35938 0.0229,116.04429 -0.88574,165.86865 -3.0664,168.0957 -0.52666,0.53792 -26.88903,1.4202 -59.36524,1.98633 -92.72084,1.61638 -155.89324,2.01618 -181.03516,1.14453 -12.80479,-0.44392 -91.8446,-1.18127 -175.64453,-1.63867 L 127.19875,672.51503 V 502.53847 Z m 719.98437,2.11719 c -17.53867,0 -31.88867,0.28076 -31.88867,0.625 0,0.34425 0.93225,1.83474 2.07031,3.3125 2.01958,2.62235 2.07032,4.2883 2.07032,69.31641 0,66.27932 -0.0135,66.64093 -2.17969,68.99609 -1.19777,1.30214 -1.86795,2.87773 -1.49024,3.50195 0.42994,0.7104 5.50325,1.13477 13.56055,1.13477 11.24053,0 12.87305,-0.21936 12.87305,-1.73242 0,-0.95303 -0.81454,-2.34104 -1.81055,-3.08399 -1.62739,-1.21404 -1.84429,-4.08823 -2.13476,-28.38476 l -0.32422,-27.03321 11.70703,0.004 11.70508,0.004 10.08789,25.64843 c 5.54871,14.10622 10.08789,26.48285 10.08789,27.50391 0,1.02106 -0.69715,2.13029 -1.55078,2.46484 -0.85364,0.33455 -1.55274,1.50914 -1.55274,2.60938 0,1.87382 0.9829,2 15.52149,2 12.53376,0 15.52148,-0.281 15.52148,-1.46289 0,-0.80496 -1.15878,-2.23839 -2.57422,-3.18555 -1.41545,-0.94714 -3.45405,-3.4989 -4.52929,-5.66992 -1.47441,-2.97671 -17.19758,-40.96867 -20.52735,-49.59961 -0.27737,-0.71872 1.23157,-1.99932 3.48242,-2.95703 4.91849,-2.09278 11.2586,-8.23016 13.89844,-13.45313 3.79029,-7.49906 5.32991,-17.28624 4.78516,-30.40234 -0.65021,-15.65616 -3.36578,-24.46669 -9.79297,-31.76758 -7.06857,-8.02916 -9.08939,-8.38867 -47.01563,-8.38867 z m -491.8457,7.6582 c -0.338,0.31559 2.2845,1.44056 7.77539,3.46094 14.03752,5.16512 29.89148,13.42751 35.24219,18.36719 l 4.5957,4.24219 -9.64648,0.043 c -8.39821,0.0377 -10.20469,-0.28896 -13.96875,-2.5332 -12.82343,-7.64556 -37.1704,-15.67178 -61.04297,-20.12109 -7.86303,-1.46548 -15.08101,-2.6385 -16.03906,-2.60742 -0.95805,0.0311 3.8465,2.07645 10.67578,4.54492 15.01022,5.42558 25.2003,10.40265 36.21484,17.68945 7.03893,4.65671 7.96866,5.59889 6.20899,6.28711 -1.13818,0.44515 -10.21839,2.3462 -20.17774,4.22461 -30.30281,5.71538 -56.48398,13.90649 -70.07617,21.92578 -3.54204,2.08982 -6.24901,3.99402 -6.01563,4.23242 0.23348,0.2384 3.36578,-0.56284 6.95899,-1.78125 3.59321,-1.21839 9.55862,-2.47758 13.25781,-2.79883 6.6716,-0.57937 6.70606,-0.56847 4.17969,1.31446 -35.99569,26.82896 -51.42558,42.46498 -60.21485,61.01953 -5.80621,12.25718 -5.39299,13.37367 2.63477,7.08984 5.47801,-4.28797 18.75994,-10.53213 19.9082,-9.35937 0.16224,0.16577 -0.83129,2.78561 -2.20898,5.82226 -9.86618,21.74829 -14.00208,52.89185 -8.87695,66.84571 1.1881,3.2348 3.55612,7.2471 5.26172,8.91601 l 3.10156,3.03321 0.01,-4.16016 c 0.0104,-6.86222 2.05434,-12.32365 6.19532,-16.55273 2.14696,-2.19263 4.37835,-3.98633 4.95898,-3.98633 0.58063,0 2.07733,3.43567 3.32617,7.63476 1.24883,4.19909 3.39637,9.90429 4.77344,12.67969 l 2.5,5.04688 h 114.32031 c 62.87595,0 114.32031,-0.2151 114.32031,-0.47852 0,-0.26339 -1.97982,-1.39241 -4.39843,-2.50781 -2.41873,-1.11539 -16.50418,-7.60361 -31.30078,-14.41797 -51.44738,-23.69344 -71.09275,-35.14249 -77.4043,-45.11133 -2.16498,-3.41945 -2.7538,-5.38417 -2.31055,-7.71875 0.68401,-3.60229 4.8655,-8.47329 9.3086,-10.8418 l 3.06054,-1.63086 -7.19922,-3.66601 c -14.43998,-7.35665 -21.63244,-18.79163 -16.16015,-25.69336 l 1.90429,-2.40039 0.0742,5.05664 c 0.0676,4.55458 0.55347,5.55567 4.88672,10.04883 4.8201,4.99777 16.44482,11.62518 26.92969,15.35351 8.20965,2.91931 18.0819,3.10953 32.19336,0.6211 28.7112,-5.063 52.09974,-1.0324 89.90625,15.49218 18.16309,7.93877 24.80609,9.56065 44.84961,10.94922 21.84366,1.5133 31.96342,0.91836 39.99804,-2.34961 l 6.20899,-2.52539 -6.20899,-0.25195 c -15.01156,-0.61356 -33.42659,-4.40682 -46.04492,-9.48438 -3.69916,-1.4885 -15.80697,-7.1072 -26.90429,-12.48437 -11.09744,-5.3772 -23.64857,-11.04259 -27.89063,-12.58984 -6.2218,-2.26944 -41.35933,-12.21289 -43.15625,-12.2129 -0.25958,0 -0.18689,-0.46953 0.16016,-1.04296 0.34705,-0.57345 3.93414,-2.06757 7.97265,-3.32032 6.30138,-1.95468 8.89913,-2.19011 18.31446,-1.65625 21.24826,1.20482 44.37899,7.34874 64.86523,17.23047 7.3138,3.52789 16.53802,7.00376 22.67578,8.54297 13.33636,3.34439 15.00391,4.44049 15.00391,9.85938 0,2.31142 0.24793,4.20117 0.55078,4.20117 1.8771,0 8.6854,-3.71155 11.05078,-6.02539 2.74831,-2.6885 3.01014,-2.73006 12.79883,-2.02735 11.87296,0.85233 13.88476,1.71734 13.88477,5.97657 0,1.72316 0.40219,3.13281 0.89453,3.13281 1.6643,0 6.34765,-4.36921 6.34765,-5.92188 0,-0.84787 0.699,-1.81389 1.55274,-2.14843 0.85364,-0.33456 1.55273,-1.43517 1.55273,-2.44532 0,-1.01015 0.98411,-2.74242 2.1875,-3.84961 3.78498,-3.48202 4.2664,-6.42136 1.93555,-11.80273 -1.49241,-3.44572 -1.76047,-5.06622 -0.92774,-5.5918 1.35118,-0.85287 5.00362,-0.11291 6.89258,1.39649 2.17766,1.74004 1.54071,-2.14339 -0.73242,-4.46485 -3.28839,-3.35828 -10.27209,-6.51395 -14.54492,-6.57421 -2.18713,-0.0309 -6.38146,0.53342 -9.32227,1.2539 -6.83696,1.67507 -12.71138,0.82342 -21.08203,-3.05273 -8.72716,-4.04132 -11.77295,-4.6517 -17.08984,-3.43164 -3.64905,0.83731 -5.62548,0.58233 -11.60352,-1.49414 -10.60021,-3.68207 -24.49909,-11.51346 -32.95117,-18.56641 -4.08773,-3.41117 -10.14409,-8.14482 -13.45898,-10.51953 -4.7499,-3.40289 -6.16552,-5.0703 -6.67969,-7.86914 -0.81693,-4.44746 -8.75551,-11.99078 -16.61719,-15.78907 -7.11703,-3.43851 -7.67411,-3.38152 -3.73437,0.37696 3.18811,3.04153 3.76812,4.7925 2.61132,7.87109 -0.48204,1.28294 -1.53514,0.8709 -5.32812,-2.08594 -5.62246,-4.38302 -10.75826,-7.14445 -19.63477,-10.55664 -8.66684,-3.33157 -9.78215,-3.18111 -4.63476,0.62696 4.3033,3.1836 8.1668,8.07965 7.17578,9.09179 -0.2964,0.30274 -5.59627,-0.42437 -11.7793,-1.61718 -6.183,-1.19283 -16.83089,-2.60516 -23.66015,-3.13672 -11.736,-0.91351 -13.04085,-1.25361 -23.79883,-6.22071 -17.92638,-8.27675 -37.74057,-14.49815 -59.35157,-18.63281 -6.35294,-1.21544 -9.65223,-1.70819 -9.99023,-1.39258 z m 375.53711,16.5586 c 0.23504,-0.24233 8.07211,-0.20272 17.41602,0.0879 16.77322,0.52166 17.03945,0.56633 20.89453,3.57226 5.40966,4.2181 9.35272,11.00807 11.60547,19.98438 2.72343,10.85249 2.71594,41.76944 -0.0117,50.89844 -4.15409,13.90109 -9.12874,20.25447 -17.73828,22.65625 -4.45943,1.24406 -30.76365,1.62392 -31.90235,0.46093 -0.73195,-0.74741 -0.99157,-96.91019 -0.26367,-97.66015 z m 107.18555,0.0879 h 19.58007 c 19.44356,0 19.60256,0.018 22.69532,2.67578 4.26066,3.66133 5.66258,8.68961 5.11523,18.3457 -0.50659,8.93785 -2.36423,12.96875 -7.13867,15.49024 -2.2175,1.17104 -7.29146,1.53125 -21.57617,1.53125 h -18.67578 v -19.02149 z m 270.58002,1.58398 68.8106,0.26172 c 37.845,0.14323 101.7537,0.55715 142.0176,0.91992 l 73.207,0.66016 v 182.16015 182.16015 h -110.1992 -110.1993 v -22.67969 -22.67773 l 4.3985,-1.1543 c 2.4187,-0.63445 12.3335,-3.93663 22.0332,-7.33789 36.1801,-12.68651 55.5292,-16.93416 77.1855,-16.94531 23.3464,-0.0121 42.2733,6.027 59.3535,18.9375 2.8455,2.15081 5.7415,4.2551 6.4356,4.67773 0.6942,0.42266 -0.3381,-2.69832 -2.2949,-6.93554 -6.339,-13.72682 -8.3546,-26.5536 -5.3242,-33.89258 0.7723,-1.87026 5.1713,-9.27127 9.7753,-16.44727 9.4893,-14.79034 13.6938,-24.29174 16.3243,-36.88476 1.7741,-8.49371 1.873,-8.67162 3.8105,-6.88086 3.0928,2.8584 4.018,5.2715 5.3203,13.87305 l 1.209,7.98437 2.4961,-5.77148 c 4.8811,-11.28698 3.984,-37.44473 -2.1328,-62.24024 -1.6399,-6.64777 -2.8653,-12.20589 -2.7227,-12.35156 0.9367,-0.95677 7.7619,3.92737 11.6328,8.32422 4.3046,4.88968 4.6192,5.06328 4.6192,2.54687 0,-4.59451 -6.1459,-20.33562 -11.4805,-29.40039 -6.5505,-11.13088 -14.8419,-22.34634 -23.2324,-31.42968 -3.6719,-3.9752 -6.6758,-7.54984 -6.6758,-7.94141 0,-1.18039 7.4902,0.58771 11.7422,2.77148 5.9027,3.03155 5.6959,1.60172 -0.4883,-3.39062 -9.6873,-7.8203 -25.7486,-15.10722 -45.4004,-20.59961 -5.9755,-1.6701 -11.0682,-3.19846 -11.3183,-3.39453 -0.723,-0.56647 9.3079,-10.67978 14.4238,-14.54297 2.5609,-1.93387 8.1477,-5.45908 12.416,-7.83399 9.0117,-5.01426 7.9228,-5.39195 -4.7988,-1.6582 -11.6196,3.4103 -26.0784,10.53029 -33.7637,16.625 -5.5262,4.38243 -6.3178,4.69126 -10.8613,4.24219 -2.6948,-0.26637 -5.2695,-0.57152 -5.7227,-0.67774 -1.3842,-0.3243 6.2412,-8.75848 11.4434,-12.65625 2.6954,-2.01966 8.3938,-5.63636 12.6621,-8.03711 8.302,-4.66959 7.1312,-4.73332 -6.6328,-0.36132 -10.8802,3.45598 -21.3118,8.60516 -31.3867,15.49218 -7.2725,4.97132 -9.1258,5.74856 -15.336,6.42774 -3.8849,0.4249 -10.5222,1.69767 -14.748,2.82812 -4.2261,1.13043 -7.8949,1.83922 -8.1524,1.57618 -0.6764,-0.69093 2.3671,-6.39801 4.2735,-8.01368 0.891,-0.75533 1.6191,-1.80041 1.6191,-2.32226 0,-1.8396 -8.7094,3.61909 -14.1328,8.85742 -4.7234,4.56228 -5.5891,5.03784 -6.2031,3.4043 -0.4128,-1.09907 0.029,-3.22012 1.0488,-5.03516 2.6619,-4.73663 1.3473,-4.5927 -3.9941,0.43555 -5.281,4.97139 -7.7551,9.04231 -7.7676,12.77929 -0.016,4.61657 -21.7114,28.16356 -31.2715,33.93946 -5.4477,3.29123 -6.8982,3.72055 -10.748,3.18164 -3.8035,-0.53241 -5.1818,-0.1434 -9.4805,2.67383 -6.3847,4.1842 -10.0261,4.89257 -15.2949,2.97265 -5.0619,-1.84454 -9.1598,-0.53538 -12.7012,4.0625 -2.9422,3.82001 -3.0622,6.33834 -0.2168,4.52344 3.0542,-1.94789 3.6219,-0.38681 2.1465,5.89453 -1.2179,5.18443 -1.1538,6.05683 0.7187,9.78125 1.1307,2.2489 3.0489,6.34669 4.2618,9.10742 2.5025,5.69653 4.3007,6.49644 4.3007,1.91211 0,-3.85188 0.3506,-4.06889 8.4414,-5.25 5.6238,-0.82093 6.7409,-0.70604 7.8086,0.79492 4.1083,5.77581 8.8909,8.46109 7.8535,4.41016 -1.2625,-4.93079 0.4471,-7.11818 7.8067,-9.99023 3.8954,-1.52017 8.9534,-4.05989 11.2402,-5.64258 2.2871,-1.58267 7.0658,-4.88296 10.6192,-7.33399 7.1081,-4.90267 13.537,-7.62856 25.5859,-10.85156 9.6219,-2.57383 16.8825,-2.71343 21.3242,-0.41015 6.777,3.51418 6.6929,3.65269 -5.0937,8.49218 -15.3451,6.30061 -19.8218,8.82721 -33.502,18.90625 -21.3314,15.71584 -29.3196,19.60835 -43.9746,21.41992 l -7.2441,0.89454 6.1328,2.98046 6.1347,2.97852 13.9942,-1.26367 c 16.0743,-1.45336 18.0342,-2.16911 34.0117,-12.41211 12.9058,-8.27364 24.9203,-13.55673 34.334,-15.0957 7.1533,-1.1695 7.211,-1.16242 21.4766,2.27734 9.1755,2.21241 9.6946,2.2296 15.0019,0.49805 6.5341,-2.13187 16.3244,-9.38984 20.4082,-15.12891 1.6097,-2.2621 3.3766,-6.49046 3.9258,-9.39648 l 0.998,-5.28321 0.8125,4.00782 c 1.1518,5.67836 -1.7317,12.80878 -7.6113,18.82226 -2.6164,2.67623 -5.455,5.11154 -6.3086,5.41016 -1.2443,0.43532 -1.0139,1.14648 1.166,3.58789 5.6568,6.33495 6.4502,11.40328 2.8985,18.51367 -4.8597,9.72849 -14.9377,18.38244 -49.0762,42.13476 -27.9801,19.46775 -43.6706,31.46215 -53.0293,40.53711 l -7.502,7.27344 -0.039,-10.4375 c -0.079,-20.88271 -1.7515,-43.27911 -3.4883,-46.70898 -0.9119,-1.80087 -3.8614,-4.59317 -6.5547,-6.20508 l -4.8965,-2.92969 -24.5918,-0.40234 -24.5937,-0.40235 0.2637,-102.64648 z m -145.35737,13.36524 c 0.40716,0.78605 3.40942,11.61759 6.66992,24.06836 3.2603,12.45079 6.16523,23.26934 6.45508,24.04101 0.42224,1.12361 -2.25771,1.40235 -13.45508,1.40235 h -13.98242 l 3.39453,-12.94532 c 8.06793,-30.76132 10.209,-37.93509 10.91797,-36.5664 z m -473.41015,22.56444 10.60547,6.1875 c 5.83325,3.40327 10.60742,6.37617 10.60742,6.60547 0,0.85158 -4.81552,0.22703 -9.83008,-1.27539 -2.84555,-0.85257 -8.66737,-2.06265 -12.93555,-2.6875 -13.39145,-1.96046 -18.28934,-3.06328 -20.29883,-4.57031 -1.84672,-1.38511 -1.7886,-1.52866 1.15625,-2.79493 1.70727,-0.73418 7.06315,-1.36276 11.90039,-1.39843 z m 104.92968,31.17383 c 2.0513,0 7.60651,2.53005 11.47657,5.22656 1.23677,0.86173 1.02818,1.04633 -1.03321,0.90234 -1.4226,-0.0994 -6.54534,-0.44972 -11.38281,-0.77734 l -8.79492,-0.5957 3.74414,-2.37696 c 2.05899,-1.3077 4.75431,-2.3789 5.99023,-2.3789 z m 623.73824,32.85351 c 1.8379,-0.0299 3.7987,0.49324 6.2813,1.5625 l 3.8476,1.65821 -2.4023,2.00781 c -1.3211,1.10437 -4.1136,2.26699 -6.2071,2.58398 -2.0935,0.31697 -7.3,1.76394 -11.5683,3.21485 -4.2681,1.45089 -8.2181,2.63217 -8.7774,2.62695 -1.4054,-0.0143 9.3291,-9.62791 13.2852,-11.89844 1.9899,-1.14204 3.703,-1.72595 5.541,-1.75586 z m -72.25,30.72266 c 1.3556,-0.10578 2.654,0.72718 4.2578,2.4707 l 2.4297,2.64258 h -5.2695 c -2.8982,0 -6.1216,0.31115 -7.1641,0.69141 -1.3459,0.49093 -1.0154,-0.27578 1.1426,-2.64258 1.8342,-2.0118 3.248,-3.05633 4.6035,-3.16211 z m -944.07222,4.05664 c -18.23256,0 -20.17773,0.17171 -20.17773,1.78125 0,0.97965 1.04707,2.91814 2.32617,4.30859 1.74887,1.90129 2.28182,3.65491 2.15234,7.07227 -0.0957,2.51369 -6.48932,24.55032 -14.31055,49.32031 -7.77598,24.62696 -18.11285,57.36243 -22.9707,72.7461 -7.72075,24.45007 -9.27144,28.42125 -12.33008,31.54492 -1.92441,1.96538 -3.5,4.23904 -3.5,5.05273 0,1.21478 3.42465,1.47852 19.14258,1.47852 17.38122,0 19.14258,-0.16549 19.14258,-1.8086 0,-0.99525 -1.27504,-2.84733 -2.83203,-4.11523 -3.91987,-3.19204 -3.61416,-7.28831 1.82422,-24.45703 l 4.43554,-14.00195 h 26.02149 26.01953 l 4.85937,15.29101 c 2.67281,8.41016 4.85938,16.29312 4.85938,17.51758 0,1.22445 -1.39626,3.65287 -3.10352,5.39648 -5.87569,6.0007 -5.35684,6.17774 18.12305,6.17774 h 21.22852 l -0.19727,-3.4336 c -0.10837,-1.8889 -0.82013,-4.19288 -1.58203,-5.11914 -1.11281,-1.34908 -1.33168,-8.80477 -1.11328,-37.48437 l 0.27344,-35.79883 19.03515,34.08984 c 10.46906,18.74945 19.24294,35.20355 19.49805,36.56641 0.25512,1.36284 -0.0447,2.80033 -0.66797,3.19336 -3.01195,1.90114 -0.27766,2.70313 9.21484,2.70312 5.691,0 10.33214,-0.35706 10.31446,-0.79296 -0.0177,-0.43592 -0.7172,-1.71556 -1.55274,-2.84375 -2.30589,-3.11403 -2.27478,-103.25097 0.0332,-105.20703 0.85362,-0.72355 1.55273,-1.97085 1.55273,-2.77149 0,-1.12792 -2.08365,-1.45703 -9.25195,-1.45703 -9.37269,0 -11.63522,0.8156 -8.84375,3.18164 1.30906,1.10952 1.53774,6.64752 1.52734,36.83984 l -0.0117,35.53711 -18.58008,-33.28711 c -10.21811,-18.30802 -18.5926,-34.3301 -18.61132,-35.60351 -0.0187,-1.27344 0.43091,-2.60954 1,-2.96875 0.56909,-0.3592 1.03515,-1.33825 1.03515,-2.17578 0,-1.23354 -2.16053,-1.52344 -11.38086,-1.52344 -9.03906,0 -11.38281,0.30363 -11.38281,1.47266 0,0.80961 0.69912,1.74551 1.55273,2.08007 1.3414,0.52568 1.54077,5.67108 1.46485,37.89258 l -0.0879,37.28321 -19.73828,-60.28516 c -20.73938,-63.3451 -20.85705,-63.84346 -16.27344,-67.85156 1.12258,-0.98165 2.03906,-2.62887 2.03906,-3.66211 0,-1.73612 -1.5292,-1.87891 -20.17578,-1.87891 z m 388.98047,1.22852 c -3.75992,-0.0619 -8.87755,-0.006 -15.68945,0.0723 -21.16755,0.24418 -24.60272,0.50901 -24.86719,1.91406 -0.19365,1.02825 1.16809,2.29444 3.6875,3.42969 4.44183,2.00143 6.83974,5.83668 33.23828,53.14844 l 13.61133,24.39258 -16.76367,28.79297 c -10.72656,18.42328 -17.0322,28.28543 -17.50977,27.38672 -2.20637,-4.15303 -21.7749,-75.67578 -21.33789,-77.99024 0.27727,-1.46854 0.83414,-3.73919 1.23828,-5.04687 0.73175,-2.36725 0.68897,-2.37891 -10.76758,-2.37891 -7.23923,0 -11.50195,0.40723 -11.50195,1.0957 0,0.60166 0.73871,2.24537 1.64258,3.6543 2.0773,3.23776 2.81001,0.006 -12.70899,56.01367 -8.39509,30.29713 -13.57736,47.2562 -14.87695,48.67774 -1.09699,1.19985 -1.99414,2.50781 -1.99414,2.90625 0,0.39844 4.92615,0.7246 10.94922,0.7246 6.02295,0 10.78211,-0.35706 10.57422,-0.79296 -0.208,-0.43592 -1.02428,-2.10626 -1.8125,-3.71289 -1.28305,-2.61545 -1.12938,-4.02932 1.46093,-13.50196 l 2.89258,-10.57812 15.06446,0.29101 15.0625,0.29102 2.47656,9.36328 c 2.84919,10.76976 2.50979,13.67856 -1.82617,15.63867 -1.75064,0.79137 -3.10547,2.21411 -3.10547,3.25977 0,1.71573 1.79282,1.85547 23.79883,1.85547 22.65421,0 23.79882,-0.0952 23.79882,-1.99805 0,-1.24761 -0.96753,-2.24687 -2.57226,-2.6582 -2.91055,-0.74604 -4.23883,-4.37398 -3.17969,-8.6836 0.60123,-2.44672 23.45254,-44.11167 25.26953,-46.07422 0.86695,-0.93633 26.78105,44.30024 27.07422,47.26172 0.43753,4.41923 -0.11048,5.89408 -2.61719,7.06055 -1.42283,0.66204 -2.58593,2.07931 -2.58593,3.14844 0,1.83333 1.41263,1.94336 24.83398,1.94336 24.14372,0 24.83203,-0.0585 24.83203,-2.11329 0,-1.27046 -0.68884,-2.11328 -1.72851,-2.11328 -3.85498,0 -10.99632,-10.59743 -31.19532,-46.29296 -11.56367,-20.43527 -20.8262,-37.51932 -20.58398,-37.96485 3.03629,-5.58512 40.9701,-68.31444 42.88672,-70.91992 1.43022,-1.94415 3.96274,-4.02009 5.6289,-4.61328 1.95521,-0.69608 2.913,-1.69001 2.70313,-2.80469 -0.28787,-1.5294 -3.07599,-1.76053 -24.36719,-2.01172 -22.71237,-0.26795 -24.04492,-0.17673 -24.04492,1.65039 0,1.06384 1.39626,2.9902 3.10351,4.2793 3.68036,2.77884 3.86538,5.05617 0.89649,11.03906 -3.17877,6.40603 -19.6046,34.83873 -21.08203,36.49219 -1.00048,1.11957 -3.09547,-1.81206 -10.57422,-14.79492 -15.32379,-26.60124 -15.49505,-27.09911 -11.14648,-32.37696 4.05599,-4.92283 4.99428,-6.17536 -6.28516,-6.36132 z m -389.77149,43.58007 c 0.58646,0.59892 17.82595,58.12041 17.84571,59.54493 0.0146,1.00715 -4.28353,1.32031 -18.08985,1.32031 -9.95926,0 -18.1219,-0.35707 -18.14062,-0.79297 -0.0582,-1.38957 18.01618,-60.4487 18.38476,-60.07227 z m 520.45704,4.68165 29.03125,0.35156 c 15.9664,0.19394 29.31525,0.645 29.66406,1.00195 0.34872,0.35697 0.92342,13.90973 1.27734,30.11719 l 0.64258,29.46875 h -28.13281 c -22.34369,0 -28.31093,0.28999 -28.98828,1.41015 -0.47373,0.78322 -1.16115,-9.5552 -1.54688,-23.24804 -0.3821,-13.56234 -0.97617,-27.90908 -1.32031,-31.88086 z m -276.76368,5.48632 c -19.00102,-0.0213 -23.02343,0.23042 -23.02343,1.44532 0,0.80961 0.69909,1.74551 1.55273,2.08007 1.35065,0.52932 1.55274,7.38605 1.55273,52.82227 0,45.12186 -0.21134,52.39047 -1.55273,53.52734 -0.85364,0.72354 -1.55273,1.73216 -1.55273,2.24219 0,0.51005 4.65667,0.92774 10.34765,0.92773 5.691,0 10.33214,-0.35705 10.31446,-0.79296 -0.0177,-0.4359 -0.7172,-1.71556 -1.55274,-2.84375 -1.21077,-1.63477 -1.51758,-6.08736 -1.51758,-21.92774 v -19.875 l 9.05274,0.0176 9.05469,0.0176 7.53515,19.26758 c 7.54697,19.29771 8.36289,22.27645 6.43359,23.49414 -3.00767,1.89844 0.0499,2.64257 10.86524,2.64257 6.54471,0 11.89844,-0.25962 11.89844,-0.57812 0,-0.31848 -1.14489,-1.62641 -2.54492,-2.90625 -1.57061,-1.43575 -5.57701,-9.81469 -10.45899,-21.87695 -4.35199,-10.75235 -8.11485,-19.89225 -8.36133,-20.31055 -0.24658,-0.41832 1.08442,-1.43185 2.95703,-2.25195 4.44872,-1.94844 9.58294,-7.54449 11.77735,-12.83789 1.06142,-2.56029 1.95518,-8.33028 2.26562,-14.63086 1.05581,-21.42769 -4.71486,-33.55567 -17.38476,-36.53711 -2.54946,-0.59994 -14.99568,-1.10106 -27.65821,-1.11524 z m -100.82226,0.11133 c -3.23337,0.17676 -3.94336,0.57121 -3.94336,1.2832 0,0.89356 0.46411,1.91815 1.0332,2.27735 0.66716,0.42114 1.03516,19.18851 1.03516,52.83789 0,33.64939 -0.368,52.41481 -1.03516,52.83594 -0.56909,0.35922 -1.0332,1.36994 -1.0332,2.24609 0,1.38344 3.16417,1.55023 24.05664,1.25977 26.72177,-0.37148 27.33485,-0.51376 34.35547,-7.89649 4.28282,-4.50363 7.89191,-11.85542 10.55078,-21.49805 1.52257,-5.52163 1.8939,-10.70444 1.9043,-26.41992 0.0104,-17.20177 -0.26989,-20.5422 -2.33399,-27.8164 -4.14491,-14.60787 -9.08916,-21.97882 -17.61914,-26.26953 -4.56726,-2.29746 -6.29852,-2.4711 -27.89258,-2.81446 -10.08967,-0.16044 -15.84488,-0.20213 -19.07812,-0.0254 z m 12.61133,18.88281 h 11.93359 c 13.67155,0 17.52254,1.16712 21.45313,6.49414 4.66002,6.31561 6.2232,12.92527 6.72656,28.43555 0.67631,20.83885 -3.01999,33.60071 -11.14063,38.46094 -2.99404,1.792 -5.8173,2.23275 -16.29687,2.54101 l -12.67578,0.3711 V 607.4291 Z m 82.77929,0 h 14.94532 c 14.12257,0 15.09892,0.1349 17.72461,2.44141 5.29058,4.64759 5.212,19.9822 -0.12696,24.76953 -2.488,2.23102 -3.57377,2.37891 -17.59765,2.37891 h -14.94532 v -14.79492 z m 642.83982,0.29883 c 1.573,-0.24294 3.9014,-0.23519 5.1738,0.0156 1.2728,0.25081 -0.014,0.45078 -2.8593,0.4414 -2.8454,-0.008 -3.8872,-0.21415 -2.3145,-0.45703 z m -547.07224,11.44531 c 0.60279,-0.61542 1.07424,0.91222 5.66406,18.37305 2.29155,8.71811 4.41925,16.68404 4.72657,17.70117 0.50648,1.67655 -0.41555,1.84961 -9.85938,1.84961 -6.8458,0 -10.41797,-0.39719 -10.41797,-1.15625 0,-1.48019 9.33822,-36.20725 9.88672,-36.76758 z m 494.54494,16.25977 66.2226,0.39844 c 36.4225,0.21928 66.3464,0.50349 66.4961,0.63086 0.1498,0.1274 0.1498,16.82903 0,37.11523 l -0.2734,36.88477 -2.8301,-4.91797 c -1.5569,-2.70492 -5.1659,-7.52619 -8.0195,-10.71485 -5.2046,-5.8159 -6.3044,-7.74132 -3.8946,-6.8164 0.7114,0.27303 2.4561,0.82417 3.8789,1.22461 2.5283,0.71163 2.5402,0.68818 0.5176,-0.99805 -3.5561,-2.96477 -13.2943,-7.63817 -19.7129,-9.46094 -3.3849,-0.96122 -6.8116,-1.96834 -7.6133,-2.23633 -2.1423,-0.71606 3.3328,-6.27548 9.9942,-10.14843 2.9878,-1.73709 5.4336,-3.3255 5.4336,-3.5293 0,-0.71889 -10.9182,2.94666 -15.0039,5.03711 -2.2765,1.1647 -5.6593,3.28209 -7.5176,4.70508 -3.2011,2.45131 -7.4863,2.6571 -7.4863,0.35937 0,-1.1107 6.6829,-6.52853 10.8652,-8.80859 1.7074,-0.93074 2.5397,-1.71112 1.8496,-1.73438 -2.3635,-0.0797 -12.3205,4.18541 -18.1738,7.78516 -6.2846,3.86494 -20.4082,7.60368 -20.4082,5.40234 0,-0.65079 0.5572,-1.75373 1.2402,-2.45117 2.7923,-2.85174 -1.3091,-1.14207 -4.8262,2.01172 -3.5567,3.18887 -3.6582,3.21352 -3.6582,0.87305 v -2.4082 l -2.498,2.39843 c -1.3747,1.31886 -2.7967,3.60158 -3.1582,5.07227 -1.5429,6.27869 -16.7114,20.3869 -20.457,19.02734 -0.7187,-0.26083 -3.1066,0.44831 -5.3067,1.57617 -2.493,1.27807 -4.9622,1.80467 -6.5547,1.39649 -3.3639,-0.86222 -6.2708,0.15358 -7.5781,2.64844 -0.8717,1.66328 -0.7599,1.90014 0.6348,1.35351 1.4213,-0.55698 1.5799,-0.14358 0.9941,2.58008 -0.5059,2.35218 -0.054,4.50101 1.6406,7.82031 1.6258,3.18499 2.4519,4.02458 2.7188,2.76172 0.2345,-1.10985 1.7917,-2.08322 4.0078,-2.50781 2.9781,-0.57055 3.8967,-0.29408 5.1621,1.55078 1.9388,2.82699 3.4671,2.90684 2.7598,0.14453 -0.4324,-1.68871 0.378,-2.49995 4.1347,-4.14453 2.569,-1.12466 6.6556,-3.51343 9.0821,-5.30859 4.6389,-3.43193 15.8333,-7.49515 20.4765,-7.43164 1.505,0.0206 3.8312,0.65786 5.1699,1.41601 2.3512,1.33163 2.2182,1.46114 -3.9179,3.80469 -3.4935,1.33428 -10.2329,5.17562 -14.9785,8.53515 -10.8097,7.65284 -15.4262,10.05062 -21.2461,11.04102 l -4.5977,0.7832 2.7813,1.48828 c 2.1943,1.17416 4.4167,1.28017 10.539,0.50391 6.4302,-0.81528 9.1349,-1.82134 15.7871,-5.87695 11.5668,-7.052 17.4592,-8.60917 26.2051,-6.92383 3.8102,0.73421 8.0515,1.04557 9.4258,0.69336 4.1497,-1.06367 10.2481,-7.21606 11.1758,-11.27539 l 0.8457,-3.69727 0.1054,4.10156 c 0.086,3.35521 -0.5239,4.70796 -3.3476,7.42774 l -3.4512,3.32422 1.9649,2.68945 c 4.5095,6.16881 -0.4649,11.90569 -25.9161,29.87891 -22.1489,15.6412 -30.0661,22.92124 -34.2675,31.50781 -3.8871,7.94428 -4.0754,11.82289 -0.6817,14.09375 2.2499,1.50565 3.0662,1.51099 8.5371,0.0469 3.3269,-0.8903 10.1181,-3.04128 15.0918,-4.7793 16.7238,-5.8439 21.3597,-6.77584 33.8985,-6.81641 13.4177,-0.0434 19.7558,1.70562 28.5468,7.88281 3.8699,2.71922 4.7399,3.02441 4.084,1.43164 -4.9883,-12.11374 -4.9136,-16.09317 0.4649,-24.59179 5.8752,-9.28332 8.1419,-14.13148 8.916,-19.07617 0.3725,-2.37818 0.9885,-4.32422 1.3711,-4.32422 1.6924,0 3.1797,2.81671 3.1797,6.02344 0,5.72468 2.992,3.7037 3.1777,-2.14649 0.071,-2.21813 0.1,-2.22375 0.9609,-0.17773 0.4891,1.16241 0.9224,21.25287 0.9629,44.64648 l 0.072,42.53514 h -67.2637 -67.2617 l 0.2637,-100.6543 z m 55.9941,52.36133 c 0.8121,0.1248 1.5941,0.41871 2.3203,0.88867 1.7309,1.12013 0.6552,1.84961 -4.5976,3.11914 -2.2266,0.53818 -4.981,1.34547 -6.1192,1.79297 -1.627,0.63968 -1.4205,0.10105 0.9688,-2.51953 2.2843,-2.50533 4.9917,-3.65564 7.4277,-3.28125 z m -35.6055,15.4043 c 0.8106,0.51164 0.5508,1.02151 -0.7968,1.56054 -2.3371,0.93473 -4.5879,1.15867 -4.5879,0.45703 0,-1.11818 4.273,-2.71928 5.3847,-2.01757 z m 108.7813,14.48242 c 0.2157,-0.22026 1.1585,-0.0989 2.0937,0.26758 1.4101,0.55262 1.6992,2.35926 1.6992,10.59179 0,5.45929 -0.2331,9.92578 -0.5175,9.92578 -0.2846,0 -0.5228,-1.54663 -0.5332,-3.43554 -0.01,-1.88893 -0.7165,-6.47485 -1.5743,-10.19141 -0.8579,-3.71656 -1.3836,-6.93793 -1.1679,-7.1582 z M 134.61867,705.59707 h 278.57617 278.57617 l 17.26954,22.22265 c 9.4977,12.22248 17.26757,22.60653 17.26757,23.07422 0,0.46766 -98.82959,1.16588 -219.62109,1.55274 -211.23588,0.67645 -376.14697,0.64152 -397.33594,-0.084 -5.54871,-0.19 -10.089838,-0.70253 -10.089838,-1.13867 0,-1.04636 22.489958,-30.58946 29.705078,-39.02149 z m 550.13477,2.11328 -272.82618,0.0273 -272.82812,0.0273 -14.66992,20.30274 c -8.06884,11.16644 -14.43326,20.5464 -14.14258,20.84375 0.29068,0.29736 25.51658,0.79047 56.05859,1.0957 79.08071,0.7903 548.58203,1.15129 548.58203,0.42188 0,-0.33428 -6.7887,-10.08164 -15.08593,-21.66211 z m -143.70313,1.28711 c 3.54131,0.009 6.66371,0.28495 8.31836,0.82617 1.56707,0.51251 -2.71498,0.83224 -10.86328,0.81055 -10.25784,-0.0273 -12.22259,-0.23179 -8.27734,-0.85938 3.32289,-0.52857 7.28105,-0.78633 10.82226,-0.77734 z m -67.4043,0.0547 c 2.1708,-0.004 4.59033,0.16184 7.2129,0.5 l 7.97851,1.0293 -12.93359,0.0254 c -11.18126,0.0213 -12.26341,-0.11856 -7.98047,-1.0293 1.62833,-0.34624 3.55187,-0.52126 5.72265,-0.52539 z m 32.07032,0.004 c 2.17151,-0.003 4.70672,0.16381 7.55664,0.50195 l 8.67578,1.0293 -12.9336,0.0195 c -10.70471,0.0169 -12.19949,-0.16043 -8.67578,-1.0293 1.3985,-0.34485 3.20554,-0.51805 5.37696,-0.52148 z m -222.26563,0.0937 c 2.1242,0.005 3.97079,0.16755 5.375,0.48828 3.68827,0.84242 2.32788,1.01143 -7.96875,0.98828 l -12.41601,-0.0273 7.96875,-0.98828 c 2.51574,-0.3119 4.91691,-0.46572 7.04101,-0.46094 z m -32.42969,0.0312 c 2.23632,0.002 4.29074,0.15607 5.92188,0.46094 4.53346,0.8473 3.4423,0.98894 -7.64453,0.97851 -12.76622,-0.0107 -12.83511,-0.0252 -5.28906,-0.99023 2.35798,-0.30152 4.77552,-0.45109 7.01171,-0.44922 z m 160.04102,0 c 2.23631,-0.002 4.65383,0.14769 7.01172,0.44922 7.54604,0.96501 7.47714,0.97754 -5.28906,0.98828 -11.08683,0.009 -12.1781,-0.12926 -7.64454,-0.97656 1.63114,-0.30488 3.68566,-0.45907 5.92188,-0.46094 z m -96.81445,0.0449 c 2.16818,-0.003 4.52171,0.13968 6.76562,0.42774 7.33075,0.9411 7.25788,0.95472 -4.97461,0.97265 -10.44753,0.0152 -11.62783,-0.13605 -7.4414,-0.95507 1.50028,-0.29351 3.4823,-0.44215 5.65039,-0.44532 z m 128.52734,0.0312 c 2.28291,-10e-4 4.67319,0.1371 6.78906,0.41407 6.83344,0.89442 6.54327,0.944 -5.73633,0.94921 -11.19559,0.005 -12.16275,-0.12254 -7.19726,-0.94336 1.68647,-0.27886 3.86162,-0.41882 6.14453,-0.41992 z m -288.10156,0.4961 c 5.65157,0.0271 11.28484,0.24061 11.66797,0.61328 0.25771,0.28187 -4.99762,0.51367 -11.72071,0.51367 -6.73442,0 -11.96977,-0.28164 -11.63281,-0.625 0.36265,-0.37034 6.02451,-0.52908 11.68555,-0.50195 z m 186.62305,0.12304 c 4.78618,-0.3726 10.60596,-0.35868 12.93359,0.0312 2.55248,0.42756 -0.90197,0.69662 -8.70313,0.67774 -12.27782,-0.0297 -12.49099,-0.0658 -4.23046,-0.70899 z m 43.64453,0 c 8.26041,0.64306 8.0454,0.67927 -4.23243,0.70899 -7.80104,0.0189 -11.25373,-0.25019 -8.70117,-0.67774 2.32763,-0.38992 8.1474,-0.40383 12.9336,-0.0312 z m 212.28515,0.22071 c 3.84146,-0.20333 10.12742,-0.20333 13.96875,0 3.84146,0.20333 0.69842,0.36914 -6.98437,0.36914 -7.6829,0 -10.82582,-0.16581 -6.98438,-0.36914 z m -415.40429,0.002 c 3.56958,-0.20602 9.1309,-0.20356 12.38476,0.004 3.17076,0.20755 0.31973,0.37707 -6.47461,0.375 -6.82926,-0.002 -9.48932,-0.17196 -5.91015,-0.37891 z m 28.93164,0 c 3.55689,-0.20636 9.37865,-0.20636 12.93554,0 3.55681,0.20635 0.64691,0.375 -6.46679,0.375 -7.11382,0 -10.02556,-0.16865 -6.46875,-0.375 z m 354.91406,0 c 3.55692,-0.20636 9.37669,-0.20636 12.93359,0 3.55691,0.20634 0.64691,0.375 -6.46679,0.375 -7.11373,0 -10.02371,-0.16866 -6.4668,-0.375 z m 67.77344,0.0254 c 1.56498,-0.24214 4.1263,-0.24214 5.6914,0 1.565,0.24212 0.2844,0.43945 -2.8457,0.43945 -3.12999,0 -4.41069,-0.19733 -2.8457,-0.43945 z m 33.11132,0 c 1.5651,-0.24214 4.12641,-0.24214 5.69141,0 1.56499,0.24212 0.28427,0.43945 -2.8457,0.43945 -3.1301,0 -4.41068,-0.19733 -2.84571,-0.43945 z m -385.18554,4.04688 c 0.69275,0.0214 1.44503,0.30697 2.46289,0.86328 1.65235,0.90314 4.52551,1.22164 7.97851,0.88281 5.9821,-0.58704 9.50252,-0.007 8.63672,1.42383 -0.77022,1.27272 -26.43706,1.16507 -28.38281,-0.11914 -1.17707,-0.77685 -0.73678,-1.02871 1.82422,-1.04102 1.85724,-0.009 4.27371,-0.58849 5.36914,-1.28711 0.785,-0.50066 1.41859,-0.74404 2.11133,-0.72265 z m -33.83594,0.125 c 0.66852,0.0158 1.51717,0.26798 2.67969,0.75976 1.70331,0.72054 5.10429,1.1999 7.55859,1.06641 7.50838,-0.40834 9.8784,-0.0848 8.08399,1.09961 -2.0721,1.36751 -26.59229,1.36751 -27.41993,0 -0.37783,-0.6244 0.78236,-1.0586 2.83594,-1.0586 1.91163,0 4.00881,-0.54385 4.66016,-1.20898 0.4445,-0.45392 0.93315,-0.67395 1.60156,-0.6582 z m -22.89063,0.79101 c 2.93686,0.0874 5.48148,0.32224 7.01172,0.74023 2.34448,0.64042 2.38282,0.75061 0.51758,1.4961 -2.82059,1.12724 -27.12104,1.15647 -27.80078,0.0332 -0.88453,-1.46159 11.46091,-2.53164 20.27148,-2.26953 z m 262.58594,0.0215 c 9.94959,0 17.78393,1.0352 17.04688,2.2539 -0.71397,1.17881 -25.33826,1.17213 -27.16211,-0.008 -2.27813,-1.47485 1.18974,-2.24414 10.11523,-2.24414 z m 67.23438,0 c 11.36669,0 19.37523,1.03067 17.49023,2.25195 -1.4505,0.93927 -24.25836,1.12611 -26.46679,0.21679 -3.31833,-1.36624 0.68921,-2.46875 8.97656,-2.46874 z m -372.59375,0.01 c 10.87082,0.0141 17.4778,0.96789 15.51562,2.23828 -1.79244,1.16085 -24.75904,1.15548 -26.55273,-0.006 -2.34001,-1.51492 1.27161,-2.24515 11.03711,-2.23242 z m 202.80664,0 c 10.69464,0.0124 19.32335,1.11403 17.57812,2.24414 -1.78766,1.15711 -25.79015,1.1482 -27.58007,-0.01 -2.27355,-1.4719 1.18805,-2.24502 10.00195,-2.23438 z m 68.81055,0.002 c 11.33724,0.0139 18.02563,0.94829 16.0332,2.23829 -1.79276,1.16103 -25.79388,1.15565 -27.58789,-0.006 -2.36975,-1.53415 1.31142,-2.24505 11.55469,-2.23243 z m 141.85351,0 c 22.11177,-0.24153 59.22989,0.8754 55.90625,2.20313 -2.48155,0.99151 -67.02674,0.98606 -71.34961,-0.006 l -3.10351,-0.71289 3.49218,-0.74805 c 1.98224,-0.42452 7.68421,-0.65583 15.05469,-0.73633 z m -276.91016,0.002 c 11.64146,0.0152 16.06959,0.66425 15.12891,2.21875 -0.5876,0.97096 -23.76536,1.17939 -26.06055,0.23437 -3.53307,-1.45468 0.9754,-2.46606 10.93164,-2.45312 z m 97.35743,0.52539 c 8.30669,-0.85196 21.7504,0.30906 19.61132,1.69336 -1.86855,1.20936 -25.4355,1.19869 -26.16796,-0.0117 -0.31616,-0.52243 2.635,-1.27943 6.55664,-1.68164 z m 101.33007,0.0137 c 4.17301,-0.34733 9.72794,-0.41282 14.16407,0.0117 4.24465,0.4062 7.46309,1.15825 7.15234,1.67187 -0.72593,1.19956 -25.33935,1.19601 -27.19336,-0.004 -1.0868,-0.70334 1.70406,-1.33236 5.87695,-1.67969 z m 148.83008,0.0156 c 4.05538,-0.34356 9.44078,-0.40569 13.68555,0.0215 4.02523,0.40508 7.06666,1.15098 6.75976,1.6582 -0.72091,1.19115 -24.30935,1.17707 -26.15234,-0.0156 -1.07505,-0.69569 1.65166,-1.3205 5.70703,-1.66407 z m -304.12695,0.0254 c 4.33421,0.34748 7.35229,0.97023 6.30469,1.64844 -1.83092,1.18535 -26.45296,1.19053 -27.16993,0.006 -0.30699,-0.50722 2.69158,-1.24867 6.66407,-1.64844 4.21553,-0.42424 9.86696,-0.35319 14.20117,-0.006 z m -202.95117,0.16993 c 3.04147,0.32058 5.28188,0.99269 4.97851,1.49414 -0.70866,1.17087 -24.30236,1.16571 -26.11132,-0.006 -1.79005,-1.15915 13.82513,-2.25855 21.13281,-1.48828 z m 380.58789,5.71093 c 0.28226,-0.0722 0.85078,0.0333 1.73437,0.3086 1.36937,0.42676 7.37797,1.04639 13.35352,1.37695 6.87107,0.38011 10.10561,0.90561 8.79687,1.42969 -2.62297,1.05039 -21.74761,0.99104 -25.86914,-0.0801 l -3.10351,-0.80664 2.90625,-0.125 c 1.91828,-0.0825 2.6545,-0.54035 2.16601,-1.34766 -0.2627,-0.43407 -0.26652,-0.68371 0.0156,-0.75586 z m -20.99414,0.91797 c 3.13507,0.006 5.88083,0.25171 8.66211,0.73438 l 4.13867,0.71679 -3.10352,0.73633 c -3.98787,0.94569 -20.78954,0.95485 -24.83398,0.0137 -2.5372,-0.59039 -1.78111,-0.86576 4.13867,-1.50585 4.33826,-0.46908 7.86297,-0.7013 10.99805,-0.69532 z m 95.91406,0.0234 c 3.38146,-0.003 9.49756,0.23119 22.94727,0.69727 15.57442,0.53969 20.69427,0.99521 17.07226,1.51953 -6.21868,0.90021 -38.25483,0.86576 -45.52734,-0.0488 l -5.17383,-0.65039 4.13867,-0.79297 c 2.5142,-0.48136 3.1615,-0.72137 6.54297,-0.72461 z m -271.43359,0.0527 c 0.56909,-0.0291 4.29361,0.26924 8.27734,0.66211 5.89826,0.58169 6.66651,0.85024 4.13867,1.44922 -4.05547,0.96106 -20.85474,0.9477 -24.83203,-0.0195 -2.52481,-0.61403 -1.75262,-0.87425 4.13867,-1.39648 3.98373,-0.35314 7.70826,-0.66633 8.27735,-0.69532 z m -100.77735,0.16993 c 6.38707,0.11562 12.3086,0.46009 12.3086,0.93359 0,0.36383 -1.7468,0.95617 -3.88086,1.31641 -5.14094,0.86782 -20.79324,0.66956 -24.05664,-0.30469 l -2.58789,-0.77344 3.11523,-0.73437 c 1.86171,-0.4398 8.71451,-0.55312 15.10156,-0.4375 z m 328.67578,0.0762 c 7.80355,-0.5849 30.13652,0.9342 27.16211,1.84766 -2.70804,0.83162 -21.21907,1.00731 -26.12695,0.24804 -3.16431,-0.48958 -3.85365,-1.88442 -1.03516,-2.0957 z m -286.8789,0.12695 c 5.49078,0.51942 5.7358,0.71542 2.07031,1.66797 -4.00006,1.03955 -21.98281,1.08411 -25.35156,0.0625 -2.99532,-0.90838 16.58581,-2.36383 23.28125,-1.73047 z M 419.48,723.08957 c 4.27345,0.34081 6.87077,0.95915 4.6875,1.60743 -3.26717,0.9702 -20.19322,0.96891 -24.31641,-0.002 -2.46741,-0.58098 -1.46601,-0.89784 4.88477,-1.54687 4.51993,-0.46192 10.47066,-0.39939 14.74414,-0.0586 z m 251.65625,0.11133 c 4.68238,-0.33507 10.8626,-0.41491 14.86328,0.0234 5.14051,0.56317 6.08432,0.90574 4.09375,1.48633 -3.35744,0.97933 -21.48415,0.97791 -24.83398,-0.002 -1.99026,-0.58215 1.19454,-1.17274 5.87695,-1.50781 z m -527.17774,0.008 c 7.81541,-0.32961 18.61946,-0.40609 26.41407,0.0234 11.70823,0.64511 13.32973,0.91745 9.08007,1.52149 -6.2789,0.89249 -37.5007,0.85783 -43.9746,-0.0488 -4.16073,-0.58271 0.66507,-1.1665 8.48046,-1.4961 z m 156.51563,0.0781 c 4.6568,-0.30003 11.00862,-0.3585 15.82227,0.0352 7.3788,0.60351 7.68914,0.71937 3.88085,1.44335 -5.19947,0.98836 -21.90635,0.94814 -25.35156,-0.0605 -1.97029,-0.5769 0.99162,-1.11794 5.64844,-1.41797 z m 77.13086,0.48437 c 8.97594,0 13.96354,0.33954 12.41601,0.84571 -1.4227,0.46534 -7.00957,0.8457 -12.41601,0.8457 -5.40645,0 -10.99525,-0.38036 -12.41797,-0.8457 -1.54763,-0.50617 3.44204,-0.84571 12.41797,-0.84571 z m 103.47265,0 c 8.97595,0 13.96365,0.33954 12.41602,0.84571 -1.42272,0.46534 -7.00946,0.8457 -12.41602,0.8457 -5.40643,0 -10.99329,-0.38036 -12.41601,-0.8457 -1.54763,-0.50617 3.44018,-0.84571 12.41601,-0.84571 z m -276.27343,0.0156 c 11.14267,0.0113 14.77589,0.28318 11.90039,0.89062 -5.21697,1.10207 -21.91884,1.06223 -25.35156,-0.0605 -1.52745,-0.49961 3.98082,-0.84051 13.45117,-0.83008 z m 241.60937,0.004 c 9.20026,0.0117 14.25795,0.348 12.41797,0.82617 -4.11943,1.07051 -22.07857,1.07051 -25.35156,0 -1.53442,-0.50186 3.72719,-0.83775 12.93359,-0.82617 z m -289.27344,6.27148 c 11.37521,10e-4 22.85964,0.28285 25.93555,0.8418 2.83141,0.51453 -7.10475,0.85116 -25.35156,0.85742 -18.44795,0.006 -28.41176,-0.32577 -25.86719,-0.86328 2.64244,-0.55842 13.9081,-0.83738 25.2832,-0.83594 z m 524.63086,0.0195 c 4.46567,-0.0108 9.37754,0.26196 12.46094,0.82227 3.40258,0.61833 0.75577,0.86185 -9.83008,0.90429 -8.94276,0.0358 -13.69344,-0.29091 -12.41601,-0.85156 1.30094,-0.57091 5.31961,-0.86417 9.78515,-0.875 z m -468.68945,0.92383 c 4.32121,0.53945 2.82808,0.71171 -6.20703,0.71484 -9.55084,0.003 -10.67436,-0.13538 -5.69141,-0.70898 3.41464,-0.39304 8.76845,-0.39649 11.89844,-0.006 z m 394.94141,0.2168 c 9.78016,-0.17352 26.07855,-0.17316 36.21679,0 10.13824,0.17316 2.13531,0.31603 -17.7832,0.3164 -19.9184,3.5e-4 -28.21386,-0.14289 -18.43359,-0.3164 z m -371.8711,0.008 c 4.43654,-0.19813 11.42148,-0.19815 15.52149,0.002 4.09987,0.20004 0.47012,0.36232 -8.06641,0.36133 -8.53643,-0.001 -11.89161,-0.1647 -7.45508,-0.36328 z m 34.14649,0 c 4.43653,-0.19813 11.4215,-0.19815 15.52148,0.002 4.0999,0.20004 0.47003,0.36232 -8.0664,0.36133 -8.53655,-0.001 -11.89163,-0.1647 -7.45508,-0.36328 z m 212.11914,0 c 4.43652,-0.19814 11.4216,-0.19816 15.52148,0.002 4.10001,0.20006 0.47002,0.36232 -8.0664,0.36133 -8.53653,-0.001 -11.89173,-0.16471 -7.45508,-0.36328 z m -141.76172,0.002 c 3.86506,-0.2041 9.91788,-0.20189 13.45117,0.004 3.5332,0.20572 0.37091,0.37318 -7.02734,0.37109 -7.39835,-0.002 -10.289,-0.17111 -6.42383,-0.375 z m 38.28516,0 c 3.86504,-0.2041 9.91786,-0.20189 13.45117,0.004 3.53318,0.20572 0.37102,0.37318 -7.02735,0.37109 -7.39825,-0.002 -10.28899,-0.17111 -6.42382,-0.375 z m -71.43946,0.004 c 3.27237,-0.20972 8.62607,-0.20972 11.89844,0 3.27237,0.20972 0.59541,0.38086 -5.94922,0.38086 -6.54472,0 -9.22157,-0.17114 -5.94922,-0.38086 z m 140.72266,0 c 3.27237,-0.20972 8.62802,-0.20972 11.90039,0 3.27237,0.20971 0.59539,0.38086 -5.94922,0.38086 -6.54472,0 -9.22354,-0.17115 -5.95117,-0.38086 z m -34.14453,0.004 c 2.70328,-0.2177 7.12486,-0.2177 9.82812,0 2.70318,0.21769 0.49239,0.39649 -4.91406,0.39649 -5.40643,0 -7.61723,-0.1788 -4.91406,-0.39649 z m 108.14648,0.008 c 1.85983,-0.23511 4.65418,-0.22938 6.20899,0.0117 1.5549,0.24113 0.0333,0.43399 -3.38086,0.42773 -3.41465,-0.006 -4.68787,-0.20427 -2.82813,-0.43945 z m 35.67969,0.01 c 1.5651,-0.24213 4.12641,-0.24213 5.69141,0 1.56497,0.24212 0.28428,0.43946 -2.84571,0.43946 -3.13008,0 -4.4107,-0.19734 -2.8457,-0.43946 z m -183.92383,6.04102 c 7.36892,0 15.00391,1.14731 15.00391,2.25586 0,0.5022 -6.75203,0.91406 -15.00391,0.91406 -8.25199,0 -15.00195,-0.41186 -15.00195,-0.91406 0,-1.10858 7.63292,-2.25586 15.00195,-2.25586 z m -138.12109,0.22461 c 4.80199,0.3062 8.26367,1.02681 8.26367,2.02734 0,0.50518 -6.75201,0.91797 -15.00391,0.91797 -15.02312,0 -19.77355,-1.23276 -9.57031,-2.48437 5.36662,-0.65831 11.50855,-0.76714 16.31055,-0.46094 z m 365.96484,0.14844 c 13.72957,-0.009 28.18112,0.59986 30.32227,1.83593 0.87881,0.50735 -10.87766,0.91144 -27.10156,0.92969 -15.75893,0.0176 -28.90208,-0.38346 -29.20899,-0.89062 -0.74859,-1.23703 12.25862,-1.86571 25.98828,-1.875 z m -464.0332,0.0859 c 10.35154,-0.30728 24.60398,-0.30167 40.20898,0.0899 17.14494,0.43019 30.65367,1.18502 30.34375,1.69726 -0.73497,1.21457 -87.35351,1.20878 -87.35351,-0.006 0,-0.85471 6.44934,-1.47399 16.80078,-1.78125 z m 317.83398,0.0527 c 4.05113,0.31796 6.82618,0.93123 6.82617,1.72265 0,1.2204 -29.71092,1.22384 -30.44921,0.004 -0.31024,-0.51268 3.80283,-1.26709 9.14062,-1.67578 5.10402,-0.39081 10.43142,-0.36874 14.48242,-0.0508 z m -39.23047,0.008 c 4.91755,0.35076 8.80665,0.9857 8.80664,1.70117 0,0.52072 -6.98505,0.94727 -15.52148,0.94727 -16.29129,0 -20.59964,-1.37738 -8.26367,-2.64258 4.11434,-0.42198 10.06098,-0.35648 14.97851,-0.006 z m -114.29687,0.01 c 6.89427,0.0144 13.78976,0.47799 14.67187,1.37891 0.95473,0.97503 -2.36676,1.25977 -14.70117,1.25977 -12.74936,0 -15.67576,-0.26344 -14.63867,-1.32032 0.88047,-0.8972 7.77361,-1.33274 14.66797,-1.31836 z m 43.30273,0.0156 c 4.74137,0.34118 8.4043,0.96781 8.4043,1.69141 0,0.51293 -6.98495,0.93164 -15.52148,0.93164 -16.51959,0 -20.61761,-1.37694 -7.75977,-2.60742 4.31581,-0.41303 10.1356,-0.35684 14.87695,-0.0156 z m -71.38281,0.006 c 4.23572,0.3304 7.20827,0.94688 6.76367,1.68164 -0.31117,0.51427 -7.31656,0.93555 -15.56836,0.93555 -16.15723,0 -19.09939,-1.3715 -5.5332,-2.58008 4.60492,-0.41022 10.10219,-0.36752 14.33789,-0.0371 z m 370.25391,0.084 c 6.82687,-0.81942 22.84893,0.28133 23.66211,1.625 0.30254,0.49998 -6.2281,0.90821 -14.51367,0.90821 -15.33618,0 -19.84682,-1.24907 -9.14844,-2.53321 z m -161.12696,0.41993 c 8.4599,0 14.62732,0.43426 15.00391,1.05664 0.41558,0.68669 -4.83863,1.05664 -15.00391,1.05664 -10.16518,0 -15.41754,-0.36995 -15.00195,-1.05664 0.37669,-0.62238 6.54217,-1.05664 15.00195,-1.05664 z m 204.75586,0 c 8.54123,0 14.748,0.43356 15.125,1.05664 0.41475,0.68528 -4.45169,1.05664 -13.8457,1.05664 -8.54121,0 -14.74995,-0.43355 -15.12695,-1.05664 -0.41475,-0.68528 4.45364,-1.05664 13.84765,-1.05664 z m -167.7539,0.0195 c 6.98121,0 13.70117,0.34577 13.70117,1.03711 0,0.65746 -5.76815,1.05165 -15.26367,1.04101 -10.23641,-0.0109 -14.75003,-0.35396 -13.70899,-1.04101 1.04739,-0.69134 8.29027,-1.03711 15.27149,-1.03711 z m 35.63867,0.008 c 7.26762,0 14.37986,0.34355 14.79492,1.0293 0.41621,0.68772 -5.07309,1.05165 -15.71875,1.04101 -10.94372,-0.0109 -15.84498,-0.35568 -14.80664,-1.04101 1.03907,-0.68575 8.46295,-1.0293 15.73047,-1.0293 z m -38.80469,5.64844 c 1.55626,-0.12494 4.02143,0.14946 8.66211,0.72265 5.36662,0.66283 10.45497,1.62046 11.30859,2.12696 0.94151,0.55857 -3.72966,0.93373 -11.87109,0.95312 l -13.42187,0.0312 2.11328,-2.1582 c 1.00506,-1.02646 1.65283,-1.55084 3.20898,-1.67578 z m -290.23242,1.44916 c 5.40009,-10e-4 10.66252,0.38842 11.42773,1.16992 0.89409,0.91321 -2.12718,1.20584 -12.21289,1.18164 -10.12514,-0.0243 -12.92764,-0.31121 -11.4707,-1.17578 1.31768,-0.78213 6.85577,-1.17463 12.25586,-1.17578 z m 261.05664,0.43359 c 4.6849,-0.0125 9.71392,0.26162 12.41406,0.83203 2.96796,0.62697 0.0405,0.88799 -10.34765,0.92188 -8.95222,0.0292 -13.69491,-0.3001 -12.41602,-0.86133 1.32413,-0.58111 5.66473,-0.88011 10.34961,-0.89258 z m -298.78516,0.002 c 4.7654,0 9.87682,0.29673 12.16211,0.89062 1.94137,0.50449 -1.9352,0.84792 -10.34765,0.91602 -9.02596,0.073 -12.9399,-0.22865 -11.89844,-0.91602 0.89981,-0.59389 5.31861,-0.89062 10.08398,-0.89062 z m 73.83985,0.0273 c 4.48281,-0.0122 9.187,0.25348 11.78711,0.80273 2.94922,0.62301 -0.0229,0.87916 -10.34571,0.89063 -8.69378,0.009 -13.45289,-0.32233 -11.90039,-0.83008 1.71517,-0.56099 5.97606,-0.85107 10.45899,-0.86328 z m 389.7539,0.0371 c 4.09023,-0.007 9.03235,0.25557 13.67969,0.78906 5.33448,0.61239 3.51578,0.79055 -8.79492,0.85938 -9.49334,0.0532 -14.71881,-0.26676 -13.45312,-0.82227 1.23831,-0.54346 4.47804,-0.81925 8.56835,-0.82617 z m -80.64257,0.0312 c 7.29737,-0.007 15.42356,0.24462 20.33789,0.75976 4.95788,0.51966 0.0623,0.77861 -15.51953,0.82032 -12.76716,0.0342 -21.62855,-0.31064 -20.17774,-0.78516 1.59453,-0.52149 8.0621,-0.78777 15.35938,-0.79492 z m -429.71485,0.0195 c 7.10925,0.007 13.51003,0.26689 15.4668,0.77539 1.70727,0.44367 -7.1399,0.78836 -19.66016,0.76563 -15.47936,-0.0281 -20.44672,-0.28454 -15.52148,-0.80079 4.78722,-0.50183 12.60572,-0.74729 19.71484,-0.74023 z m 554.22071,0.0117 c 1.81738,0.005 3.38687,0.18483 4.6875,0.53711 3.31696,0.89845 2.23484,1.06014 -6.9336,1.03125 l -10.86523,-0.0352 6.93359,-1.02929 c 2.29435,-0.34093 4.36033,-0.50964 6.17774,-0.50391 z m -79.00391,0.004 c 1.81595,-0.005 3.99631,0.16247 6.52539,0.5039 l 7.63086,1.0293 -10.86524,0.0352 c -8.71125,0.0271 -10.22194,-0.17814 -7.6289,-1.03125 1.07183,-0.35263 2.52194,-0.53147 4.33789,-0.5371 z m -244.78516,1.06054 c 1.56499,-0.24213 4.12641,-0.24213 5.69141,0 1.565,0.24213 0.28427,0.43945 -2.8457,0.43946 -3.13009,0 -4.41071,-0.19733 -2.84571,-0.43946 z m 112.00782,9.26172 c 0.84831,0.0462 1.84426,0.65587 2.42968,1.79883 1.27442,2.4879 4.29883,16.38912 4.29883,19.75781 0,2.12578 -0.51609,2.69727 -2.42969,2.69727 -2.27062,0 -2.53894,-0.68258 -4.13867,-10.51953 -0.94079,-5.78581 -1.71094,-11.25429 -1.71094,-12.15235 0,-1.11109 0.70246,-1.62817 1.55079,-1.58203 z m -157.09571,0.20313 c 0.53196,-0.14528 1.0724,0.0741 1.62891,0.64257 0.91499,0.93482 0.90745,2.35867 -0.0312,5.94336 -0.67902,2.59305 -1.52945,7.26853 -1.88867,10.39063 l -0.65235,5.67773 14.86719,0.69336 c 18.79604,0.87819 50.44289,0.89032 57.52539,0.0215 4.01243,-0.49223 5.56536,-1.17156 6.01953,-2.63282 0.71125,-2.28878 2.54102,-2.65463 2.54102,-0.50781 0,2.3668 3.42166,2.72567 27.9375,2.93164 22.73234,0.19097 22.95385,0.21426 9.31445,0.94727 -13.72656,0.7377 -91.68467,0.88354 -112.57422,0.21093 -7.7011,-0.24796 -10.7991,-0.73454 -11.18359,-1.75781 -0.29245,-0.7785 0.45761,-5.72317 1.66797,-10.98828 1.7056,-7.41917 3.23234,-11.13644 4.82812,-11.57226 z m 8.50782,27.40625 c -156.42859,0.18228 -301.087169,0.60955 -301.593752,1.12695 -1.197873,1.22335 4.459906,9.84769 8.5625,13.05273 l 3.929687,3.07032 70.363275,0.625 c 38.69875,0.34365 202.83333,0.42798 364.74219,0.1875 l 294.38086,-0.4375 3.43359,-2.67383 c 3.78249,-2.94578 9.5,-10.48417 9.5,-12.52539 0,-1.0093 -18.07083,-1.47479 -81.10546,-2.08594 -47.58452,-0.46136 -215.78443,-0.52213 -372.21289,-0.33984 z" />
      </g>
    </g>
  </g>
</svg>
