<?xml version="1.0" encoding="UTF-8" standalone="no"?>
<!-- Created with Inkscape (http://www.inkscape.org/) -->

<svg
   width="1000mm"
   height="700mm"
   viewBox="0 0 1000 700"
   version="1.1"
   id="svg5"
   xml:space="preserve"
   inkscape:version="1.2.2 (b0a8486541, 2022-12-01)"
   sodipodi:docname="andrax-apple.svg"
   xmlns:inkscape="http://www.inkscape.org/namespaces/inkscape"
   xmlns:sodipodi="http://sodipodi.sourceforge.net/DTD/sodipodi-0.dtd"
   xmlns:xlink="http://www.w3.org/1999/xlink"
   xmlns="http://www.w3.org/2000/svg"
   xmlns:svg="http://www.w3.org/2000/svg"><sodipodi:namedview
     id="namedview7"
     pagecolor="#505050"
     bordercolor="#ffffff"
     borderopacity="1"
     inkscape:showpageshadow="0"
     inkscape:pageopacity="0"
     inkscape:pagecheckerboard="1"
     inkscape:deskcolor="#505050"
     inkscape:document-units="mm"
     showgrid="false"
     inkscape:zoom="0.16441126"
     inkscape:cx="1870.3099"
     inkscape:cy="1328.9844"
     inkscape:window-width="1366"
     inkscape:window-height="691"
     inkscape:window-x="0"
     inkscape:window-y="24"
     inkscape:window-maximized="1"
     inkscape:current-layer="layer1"
     showguides="true"><sodipodi:guide
       position="499.88826,394.66209"
       orientation="1,0"
       id="guide582"
       inkscape:locked="false" /><sodipodi:guide
       position="375.51723,349.51726"
       orientation="0,-1"
       id="guide3201"
       inkscape:locked="false" /><sodipodi:guide
       position="118.34482,689.75865"
       orientation="0,-1"
       id="guide3412"
       inkscape:locked="false" /><sodipodi:guide
       position="376.57093,9.6199633"
       orientation="0,-1"
       id="guide3436"
       inkscape:locked="false" /><sodipodi:guide
       position="16.092775,487.57539"
       orientation="1,0"
       id="guide3438"
       inkscape:locked="false" /><sodipodi:guide
       position="976.85728,468.5457"
       orientation="1,0"
       id="guide3440"
       inkscape:locked="false" /><sodipodi:guide
       position="256.03447,629.4483"
       orientation="0,-1"
       id="guide577"
       inkscape:locked="false" /></sodipodi:namedview><defs
     id="defs2"><rect
       x="841.08073"
       y="898.16121"
       width="2754.4122"
       height="746.09922"
       id="rect1451" /><rect
       x="2939.5777"
       y="1961.4543"
       width="500.65429"
       height="151.21918"
       id="rect1405" /><rect
       x="3471.8746"
       y="266.99081"
       width="224.05957"
       height="186.51829"
       id="rect581" /><rect
       x="344.64524"
       y="1673.9676"
       width="1935.4048"
       height="224.38053"
       id="rect523" /><rect
       x="1779.2063"
       y="1238.8798"
       width="228.24973"
       height="201.17725"
       id="rect512" /><linearGradient
       id="linearGradient8120"><stop
         style="stop-color:#ff0000;stop-opacity:1;"
         offset="0"
         id="stop8116" /><stop
         style="stop-color:#ff0000;stop-opacity:0;"
         offset="1"
         id="stop8118" /></linearGradient><linearGradient
       xlink:href="#linearGradient8120"
       id="linearGradient8122"
       x1="416.65988"
       y1="552.31458"
       x2="421.72205"
       y2="-225.3533"
       gradientUnits="userSpaceOnUse"
       gradientTransform="matrix(0.59312171,0,0,0.58624652,8.3716843,11.24208)" /><rect
       x="1779.2063"
       y="1238.8798"
       width="228.24973"
       height="201.17725"
       id="rect512-3" /><rect
       x="344.64523"
       y="1673.9677"
       width="1935.4048"
       height="224.38052"
       id="rect523-6" /><rect
       x="3471.8745"
       y="266.99081"
       width="224.05957"
       height="186.5183"
       id="rect581-7" /><rect
       x="2939.5776"
       y="1961.4543"
       width="500.6543"
       height="151.21918"
       id="rect1405-5" /><rect
       x="841.08075"
       y="898.16119"
       width="2754.4121"
       height="746.09924"
       id="rect1451-3" /></defs><g
     inkscape:label="Layer 1"
     inkscape:groupmode="layer"
     id="layer1"><g
       id="g394"><rect
         style="fill:#ffffff;fill-rule:evenodd;stroke-width:2.045;stroke-linejoin:bevel;paint-order:markers stroke fill"
         id="rect310"
         width="169.29178"
         height="99.146133"
         x="315.41351"
         y="468.37375"
         ry="2.6790493" /><rect
         style="fill:#ffffff;fill-rule:evenodd;stroke-width:2.045;stroke-linejoin:bevel;paint-order:markers stroke fill"
         id="rect310-3"
         width="169.29178"
         height="99.146133"
         x="560.64648"
         y="469.80804"
         ry="2.6790493" /><path
         id="path1259-6"
         style="fill:#ffffff;stroke-width:7.38886"
         d="m 641.36523,7.9296875 c -12.23802,2.3904925 -24.49332,4.8371435 -36.47711,8.3172515 -11.2939,3.391987 -22.31636,7.67399 -33.00778,12.647608 -17.02194,8.039802 -33.1058,18.463527 -46.31311,31.972716 -12.69592,13.014178 -22.50969,28.759036 -28.93538,45.750007 -5.90111,14.8181 -10.51908,30.22658 -12.72139,46.04998 -0.65537,5.86969 -0.52243,12.10191 2.13261,17.50254 0.62885,1.21784 1.39937,2.36202 2.27724,3.41419 -7.50765,-0.30616 -14.95703,-1.30309 -22.2646,-3.04285 -23.92526,-5.06866 -47.73756,-11.00877 -72.09063,-13.67386 -36.93477,-3.57445 -75.13457,5.14643 -106.35878,25.32885 -27.12031,17.41249 -48.84052,42.91608 -62.23827,72.18893 -12.27739,26.6063 -18.47045,55.71073 -20.35227,84.86436 -2.42103,37.42354 2.21072,75.15895 12.38479,111.20167 6.27573,21.83574 15.03547,42.931 25.72498,62.97048 8.33698,15.8504 17.50479,31.29699 27.999,45.82193 14.97493,20.19556 33.34067,37.70752 53.35643,52.8431 12.77784,9.56348 26.38602,18.14171 41.01952,24.57951 8.76927,3.76792 17.95512,6.78308 27.4591,7.94046 7.75173,0.57018 15.3999,-1.14372 23.01894,-2.28039 -0.21863,6.50974 1.45158,13.23247 5.50022,18.42657 5.01661,6.56369 12.94493,11.08068 21.29079,11.20234 5.94954,0.0448 11.70198,-2.21616 16.6687,-5.36094 0.4644,-0.39706 0.85411,-0.57177 0.9856,0.17344 2.95495,6.11582 7.43375,11.41931 12.72472,15.64871 3.5103,2.96285 7.13096,5.80206 10.75226,8.62086 3.13358,1.78226 7.14342,1.04235 9.99843,-0.94662 7.29529,-3.81834 14.83337,-7.485 20.96404,-13.09248 6.11374,5.68141 13.87224,9.52927 22.03491,11.19456 6.59837,1.24975 13.6367,0.56133 19.68493,-2.44458 7.98163,-3.71265 14.56226,-10.03012 19.30946,-17.38084 6.92178,3.54748 14.98528,5.31471 22.70228,3.79632 8.56663,-1.57662 16.65181,-6.6824 21.02433,-14.31943 2.89176,-5.08496 3.82593,-10.98849 4.29097,-16.74056 9.69009,0.29465 19.4735,-0.17856 28.96679,-2.26368 11.8756,-2.66257 23.01313,-7.99299 33.15506,-14.64576 8.04684,-5.25813 15.57159,-11.27387 22.91477,-17.46143 18.25482,-15.49935 34.65171,-33.26281 48.16766,-53.05085 13.09063,-19.04609 23.87761,-39.62906 32.64413,-61.00134 2.05906,-5.18823 4.03336,-10.43187 5.4689,-15.83073 1.13963,-5.60392 -0.0841,-11.87692 -4.03248,-16.15139 -3.91084,-4.63419 -9.35136,-7.51426 -14.37909,-10.7393 -6.25893,-3.80708 -12.45246,-7.73518 -18.08034,-12.42862 -11.78971,-9.19964 -22.65898,-19.84786 -30.69803,-32.53584 -6.68948,-10.32822 -12.40816,-21.31473 -16.73012,-32.84322 -2.80004,-7.98578 -4.01136,-16.36431 -3.97797,-24.8033 -0.0667,-15.59177 3.26999,-31.17354 9.44472,-45.48173 4.3522,-10.12928 10.50733,-19.41042 18.12927,-27.38058 7.30563,-7.85929 15.20326,-15.18142 23.67614,-21.76812 9.54638,-7.26872 20.0099,-13.20796 29.76613,-20.1688 2.70461,-2.66773 1.72138,-7.74468 -1.58789,-9.45508 -17.46933,-14.1158 -34.27021,-29.19052 -53.21429,-41.35284 -16.95968,-10.41708 -35.48882,-18.39819 -54.89632,-22.91314 -15.33535,-3.24887 -31.12293,-3.16588 -46.71678,-2.60788 -14.83047,0.53734 -29.69665,2.19712 -44.10349,5.75049 -10.25471,2.30678 -20.43306,4.90961 -30.69412,7.19173 23.29933,-10.64971 43.73493,-27.53951 58.40908,-48.55187 15.15665,-21.567313 24.53815,-46.986561 27.89737,-73.08333 0.90136,-7.233046 1.59549,-14.487011 2.31046,-21.739415 0.39974,-4.32748 0.82204,-8.658078 1.17411,-12.986714 -0.24413,-2.727082 -2.80142,-5.0325797 -5.5586,-4.8710935 z M 702.50781,491.01758 c -0.80835,7.48671 -2.01605,15.09091 -4.90677,22.11049 -2.40698,5.47406 -6.42006,10.16069 -11.2654,13.6326 -10.60975,7.93596 -23.08234,13.04525 -35.67396,16.8112 -13.26472,3.93714 -26.98147,6.04195 -40.78282,6.77494 -4.41798,0.26979 -8.86454,0.49419 -13.29878,0.70007 28.37513,-17.63247 57.05454,-34.77352 86.00225,-51.44832 6.70458,-3.84472 13.4434,-7.62863 20.20087,-11.37981 -0.0918,0.93294 -0.18359,1.86589 -0.27539,2.79883 z m -371.74023,-1.4668 c 23.83586,12.62641 47.2417,26.04683 70.54844,39.61987 12.33019,7.21604 24.58391,14.56848 36.79921,21.98755 -18.43392,-0.57609 -36.90711,-2.40616 -54.78985,-7.03345 -11.47071,-2.94915 -22.8152,-7.05759 -32.68296,-13.771 -5.79874,-4.00242 -11.11029,-9.07211 -14.21636,-15.48311 -2.38519,-5.03408 -3.38097,-10.56217 -4.62917,-15.95094 -0.68827,-3.24095 -1.29283,-6.49974 -1.8047,-9.77322 0.25846,0.13477 0.51692,0.26954 0.77539,0.4043 z" /><g
         id="g1536"
         transform="matrix(1.4190096,0,0,1.3154271,137.07059,11.596408)"><path
           style="fill:#000000;stroke-width:5.40818"
           d="m 243.48582,499.06122 c -3.16783,-2.7814 -5.23169,-6.34776 -6.94156,-11.99511 -1.33836,-4.42027 -3.15751,-8.03686 -4.0426,-8.03686 -0.88506,0 -4.66761,2.43513 -8.40566,5.41141 -7.23839,5.76329 -9.8417,5.98983 -14.14822,1.23118 -2.35566,-2.60297 -2.31601,-7.22586 0.15272,-17.806 1.02058,-4.37387 1.8035,-4.34822 -19.14722,-0.62706 -9.18488,1.63137 -10.18862,1.5535 -19.10472,-1.48197 -21.4787,-7.31238 -51.99118,-33.2516 -68.74408,-58.44056 C 91.643599,390.08412 78.519909,363.42049 72.401662,344.93677 55.219088,293.02679 54.660671,236.09619 70.9212,194.00352 c 19.175723,-49.63905 63.32796,-77.58761 112.47801,-71.19908 6.56321,0.85309 22.09836,4.06435 34.52256,7.13613 22.07974,5.45905 23.08417,5.58304 44.51451,5.49537 21.79088,-0.0891 22.07548,-0.12892 46.50769,-6.49956 22.02899,-5.74401 26.44611,-6.47171 42.52132,-7.00525 21.62076,-0.71759 30.85394,1.08193 48.43921,9.44067 11.68705,5.55516 20.16623,11.61583 35.74002,25.54591 l 7.56247,6.7643 -7.66811,5.39137 c -9.47983,6.66519 -23.57507,21.18684 -30.00204,30.90971 -13.36689,20.22171 -18.90784,50.35032 -13.42519,72.99862 2.83065,11.69314 12.16463,30.59679 20.58552,41.69086 7.77026,10.23687 21.10428,22.22178 32.19551,28.93802 4.11696,2.493 7.50233,5.24453 7.52306,6.11451 0.0763,3.20117 -7.13092,21.38121 -13.59592,34.29558 -12.03605,24.04297 -25.59242,42.16226 -44.24842,59.14194 -19.64946,17.88389 -31.61842,23.14884 -50.86823,22.37614 l -11.50535,-0.46182 -0.6644,9.75364 c -0.55825,8.19538 -1.16556,10.15907 -3.80138,12.29132 -4.26911,3.45351 -9.48811,3.18668 -15.33967,-0.7843 -6.72923,-4.56657 -8.47366,-4.20785 -11.30821,2.32539 -2.75127,6.34122 -7.03355,10.79966 -12.28299,12.78821 -4.82203,1.82665 -14.34592,-2.93615 -16.93628,-8.46964 -3.3178,-7.0874 -6.50682,-6.94949 -11.37657,0.49201 -1.4368,2.19558 -4.83578,5.24159 -7.55331,6.76893 l -4.94097,2.77699 z m 17.29216,-48.26364 c 5.37546,-1.19504 8.35644,-1.18304 12.97479,0.0522 9.41816,2.51898 11.27492,2.18087 11.26049,-2.05051 -0.0147,-4.32621 -6.24773,-15.61241 -11.12998,-20.15334 -4.75685,-4.42428 -10.46472,-4.20661 -15.47133,0.59002 -4.98941,4.78012 -10.59238,15.87553 -10.59238,20.97576 0,3.39655 0.37283,3.77176 2.98978,3.00889 1.64438,-0.47935 6.13026,-1.56972 9.96863,-2.42304 z m -15.17447,-30.14515 c 0.65296,-0.65296 0.7369,-1.91585 0.18652,-2.8064 -1.33263,-2.15623 -44.50642,-30.42641 -74.44491,-48.7465 -28.94307,-17.71095 -46.3485,-27.24749 -47.54554,-26.05045 -2.86033,2.86033 1.24178,33.72307 5.87733,44.2188 8.70266,19.70444 34.27429,31.79527 73.27143,34.64436 16.92128,1.23625 40.86632,0.52904 42.65517,-1.25981 z m 104.33313,-0.77962 c 15.43527,-2.95013 28.58191,-7.91848 38.77618,-14.65423 15.73083,-10.39394 20.54375,-20.87012 22.09912,-48.10251 0.81722,-14.30849 0.74059,-14.95232 -1.77972,-14.95232 -5.66058,0 -119.35572,73.41476 -119.35572,77.06989 0,1.28872 1.87857,2.31299 5.31516,2.89801 8.55667,1.45662 42.89043,0.0452 54.94498,-2.25884 z"
           id="path1259" /><path
           style="fill:#000000;stroke-width:5.40818"
           d="m 256.26658,114.25973 c -2.17138,-5.65854 4.684,-32.475637 12.37142,-48.394885 10.71842,-22.195874 29.36048,-37.766715 58.22213,-48.63021 4.79707,-1.805612 11.18142,-3.835539 14.18744,-4.510948 l 5.46551,-1.228017 -0.86512,9.533264 c -3.56364,39.269789 -23.46437,71.236602 -53.885,86.556186 -15.23149,7.67046 -33.77612,11.15752 -35.49638,6.67461 z"
           id="path1335" /></g></g></g></svg>
