<?xml version="1.0" encoding="UTF-8" standalone="no"?>
<!-- Created with Inkscape (http://www.inkscape.org/) -->

<svg
   width="1000mm"
   height="700mm"
   viewBox="0 0 1000 700"
   version="1.1"
   id="svg5"
   xml:space="preserve"
   inkscape:version="1.2.2 (b0a8486541, 2022-12-01)"
   sodipodi:docname="andrax-self-contained.svg"
   xmlns:inkscape="http://www.inkscape.org/namespaces/inkscape"
   xmlns:sodipodi="http://sodipodi.sourceforge.net/DTD/sodipodi-0.dtd"
   xmlns:xlink="http://www.w3.org/1999/xlink"
   xmlns="http://www.w3.org/2000/svg"
   xmlns:svg="http://www.w3.org/2000/svg"><sodipodi:namedview
     id="namedview7"
     pagecolor="#505050"
     bordercolor="#ffffff"
     borderopacity="1"
     inkscape:showpageshadow="0"
     inkscape:pageopacity="0"
     inkscape:pagecheckerboard="1"
     inkscape:deskcolor="#505050"
     inkscape:document-units="mm"
     showgrid="false"
     inkscape:zoom="0.16441126"
     inkscape:cx="1940.2564"
     inkscape:cy="1769.9518"
     inkscape:window-width="1366"
     inkscape:window-height="705"
     inkscape:window-x="0"
     inkscape:window-y="0"
     inkscape:window-maximized="1"
     inkscape:current-layer="layer1"
     showguides="true"><sodipodi:guide
       position="499.88826,394.66209"
       orientation="1,0"
       id="guide582"
       inkscape:locked="false" /><sodipodi:guide
       position="375.51723,349.51726"
       orientation="0,-1"
       id="guide3201"
       inkscape:locked="false" /><sodipodi:guide
       position="118.34482,689.75865"
       orientation="0,-1"
       id="guide3412"
       inkscape:locked="false" /><sodipodi:guide
       position="376.57093,9.6199633"
       orientation="0,-1"
       id="guide3436"
       inkscape:locked="false" /><sodipodi:guide
       position="16.092775,487.57539"
       orientation="1,0"
       id="guide3438"
       inkscape:locked="false" /><sodipodi:guide
       position="976.85728,468.5457"
       orientation="1,0"
       id="guide3440"
       inkscape:locked="false" /></sodipodi:namedview><defs
     id="defs2"><linearGradient
       id="linearGradient8120"><stop
         style="stop-color:#ff0000;stop-opacity:1;"
         offset="0"
         id="stop8116" /><stop
         style="stop-color:#ff0000;stop-opacity:0;"
         offset="1"
         id="stop8118" /></linearGradient><linearGradient
       xlink:href="#linearGradient8120"
       id="linearGradient8122"
       x1="416.65988"
       y1="552.31458"
       x2="421.72205"
       y2="-225.3533"
       gradientUnits="userSpaceOnUse"
       gradientTransform="matrix(0.59312171,0,0,0.58624652,8.3716843,11.24208)" /></defs><g
     inkscape:label="Layer 1"
     inkscape:groupmode="layer"
     id="layer1"><rect
       style="fill:#ffffff;fill-rule:evenodd;stroke-width:0.878999;stroke-linejoin:bevel;paint-order:markers stroke fill"
       id="rect311"
       width="521.50238"
       height="298.84097"
       x="238.18234"
       y="100.44324" /><path
       id="path163-6"
       style="fill:#ffffff;stroke-width:1.25569"
       d="M 189.47939 11.76414 L 189.47939 12.277804 L 189.47939 448.04294 L 228.55142 448.04294 L 228.55142 492.14825 L 159.23059 492.14825 L 159.23059 688.23603 L 356.78494 688.23603 L 356.78494 503.43025 L 401.22099 503.43025 L 401.22099 688.23603 L 598.77896 688.23603 L 598.77896 503.43025 L 643.215 503.43025 L 643.215 688.23603 L 840.76935 688.23603 L 840.76935 492.14825 L 768.92981 492.14825 L 768.92981 448.04294 L 810.5221 448.04294 L 810.5221 61.803979 L 799.17706 61.803979 L 799.17706 24.273971 L 407.19995 24.273971 L 407.19995 11.76414 L 189.47939 11.76414 z M 283.72118 107.7805 C 283.98089 107.8444 284.24075 107.9084 284.50046 107.97222 C 289.58519 109.09245 294.82768 108.78606 299.99616 108.98611 C 304.65733 109.04351 309.31867 108.97819 313.9798 108.94839 C 316.67171 109.9953 319.56554 109.23788 322.33536 109.30702 C 331.82169 108.9782 341.30827 108.64986 350.79461 108.32104 C 350.73771 110.80823 351.11403 113.58769 353.07819 115.34645 C 355.23826 117.4927 358.49116 118.12882 361.43944 117.76439 C 368.48836 117.76939 375.53754 117.77321 382.58647 117.77731 C 383.01465 122.15001 383.73915 126.76358 386.53041 130.33261 C 388.71418 133.29612 391.83892 135.48691 395.23221 136.89087 C 383.39001 140.18758 371.66865 144.20064 360.81105 150.0017 C 355.56423 153.00171 350.50449 156.82428 347.50954 162.16478 C 345.59818 165.80404 344.92224 170.12302 345.86726 174.13717 C 335.39194 183.26186 325.61411 193.45787 318.66324 205.53474 C 315.02701 211.89647 312.20647 218.93058 311.90241 226.31538 C 311.99561 226.80531 311.8732 227.08641 311.25025 226.93137 L 279.00054 226.93137 L 279.00054 258.54184 C 279.78333 259.27175 280.534 260.03751 281.35699 260.72362 C 269.57627 295.29538 257.78203 329.86247 245.87181 364.39016 L 245.87181 109.20005 C 258.48829 108.72677 271.10472 108.25395 283.72118 107.7805 z M 516.59896 117.77731 L 545.72121 117.77731 C 543.08074 119.03711 540.73496 120.92977 539.01413 123.28912 C 534.76891 122.89295 530.43896 123.01126 526.2795 121.98325 C 523.07318 120.53435 519.8526 119.11705 516.59896 117.77731 z M 562.64266 117.77731 L 754.12813 117.77731 L 754.12813 228.18969 C 742.24942 228.18969 730.37078 228.18968 718.49206 228.18969 C 719.99112 226.38786 721.26611 224.41871 722.49802 222.43448 C 723.90098 220.60141 725.4362 218.73008 726.3939 216.57438 C 727.06476 215.22215 727.58791 213.79842 727.96952 212.34001 C 734.26734 206.79391 735.92329 196.92023 732.04059 189.55277 C 729.25408 183.42104 723.87616 178.80069 717.95204 175.73811 C 709.48164 171.03669 699.07713 169.61184 689.75118 172.47733 C 687.92636 172.97983 685.88908 173.23417 684.12982 172.36622 C 678.21118 170.39312 672.58267 167.2081 666.24719 166.74021 C 662.79232 166.39834 659.3037 166.63428 655.88193 167.17119 C 647.03296 164.6828 638.6291 160.54875 631.29532 155.09493 C 626.98549 151.92041 622.74461 148.65342 618.27286 145.69912 C 617.69842 145.41634 617.42134 144.8914 617.2078 144.32142 C 614.229 137.91846 608.83167 132.96312 602.96113 129.16214 C 596.12846 124.58091 588.37764 121.01754 580.11394 120.10636 C 577.6913 120.00314 575.24641 120.41182 572.995 121.30681 C 569.6119 119.94851 566.17476 118.69768 562.64266 117.77731 z M 538.91698 231.38536 L 538.91698 231.38588 C 550.82606 231.67953 562.681 234.25103 574.02904 237.79117 C 585.18251 241.32983 595.85463 246.17596 606.89526 250.02195 C 607.04897 253.21116 607.25634 256.39788 607.44148 259.58622 C 610.37635 263.36074 614.9007 265.58802 619.51412 266.60337 C 620.73804 268.48918 621.95467 270.33783 623.13302 272.24798 L 590.09576 272.24798 C 586.64255 268.59278 581.73799 266.95465 577.2366 264.98331 C 555.56339 255.51295 533.58306 246.71576 512.17391 236.65326 C 511.17221 236.16332 510.10598 235.65585 509.0821 235.15205 C 518.50563 234.70267 527.68092 231.93759 537.07626 231.4484 C 537.68966 231.4188 538.30298 231.39696 538.91698 231.38536 z M 754.12813 265.27838 L 754.12813 364.66508 C 753.196 364.44122 752.26016 364.23397 751.32468 364.02429 C 746.4604 356.99759 742.18323 349.59633 737.64386 342.36463 C 731.5578 332.49502 725.4716 322.62571 719.38555 312.7561 C 729.44477 297.30497 739.48083 281.83681 749.7377 266.51035 C 751.21717 266.15839 752.67894 265.73482 754.12813 265.27838 z M 644.98802 318.39504 C 644.98697 318.3423 645.05323 318.3484 645.24485 318.48599 C 645.59986 319.23992 644.99117 318.55325 644.98802 318.39504 z M 314.31777 318.94281 C 314.95222 319.17188 313.94919 319.63033 314.09246 319.00947 C 314.11976 318.92157 314.24756 318.92411 314.31777 318.94281 z M 304.11064 368.76147 L 324.3094 368.76147 C 324.5532 369.46911 324.79682 370.1767 325.04062 370.88434 C 324.2551 371.29057 323.46981 371.69686 322.68418 372.10287 L 322.68418 392.06961 L 305.92293 392.06961 L 305.92293 375.61532 C 305.01659 374.36374 304.12892 373.08454 303.02026 371.99693 C 303.38373 370.91841 303.74718 369.83999 304.11064 368.76147 z M 682.93196 369.50561 C 683.11963 369.4566 683.31892 370.07809 683.519 370.32313 C 684.21061 371.46857 684.9022 372.61418 685.59381 373.75962 L 685.59433 373.75962 C 683.59763 378.19565 683.92847 383.16491 683.98616 387.90035 C 683.98561 389.29023 683.98512 390.67973 683.98409 392.06961 C 683.3775 392.06461 682.55249 392.27692 682.83429 391.39058 C 682.83229 384.49008 682.84882 377.58943 682.81362 370.689 C 682.65121 370.36314 682.34145 370.09139 682.74851 369.81722 C 682.80801 369.6131 682.8694 369.52195 682.93196 369.50561 z M 610.72396 373.08679 C 611.21933 373.48572 609.87377 374.04398 610.23045 373.25887 C 610.31885 373.09278 610.55036 373.02835 610.72396 373.08679 z M 501.11308 537.12174 C 501.18434 537.09654 501.26323 537.09388 501.33477 537.12225 C 502.04152 537.48223 500.6441 537.84262 500.93687 537.2561 C 500.97817 537.19451 501.04182 537.14693 501.11308 537.12174 z M 258.63073 537.32121 C 258.70683 537.30142 258.79124 537.30779 258.86327 537.33826 C 259.57065 537.71324 258.20442 538.20354 258.44882 537.46125 C 258.48677 537.38673 258.55462 537.34099 258.63073 537.32121 z M 212.12607 543.76578 C 212.66875 543.98841 211.71052 544.84836 211.71576 544.14456 C 211.72276 543.94779 211.90242 543.6811 212.12607 543.76578 z M 298.80192 548.10763 C 299.10235 548.12507 299.46898 548.17134 299.62099 548.1252 L 300.39252 548.1252 C 300.31752 548.57918 300.66988 549.53425 299.89022 549.16596 C 299.22383 549.17296 298.77037 548.74591 298.3792 548.26266 C 298.26694 548.10185 298.50149 548.09019 298.80192 548.10763 z M 540.57476 548.1252 L 542.37361 548.1252 C 542.27451 548.40968 542.59269 549.19647 542.20618 549.15976 C 541.48163 549.14976 540.98368 548.65662 540.57476 548.1252 z M 783.25555 548.1252 L 784.37124 548.1252 C 784.39614 548.65406 784.50635 549.43575 783.78833 548.92877 C 783.5536 548.78211 782.666 548.02841 783.25555 548.1252 z M 786.1856 583.56076 C 786.99195 583.9173 785.66217 584.29123 785.94324 583.61761 C 785.99524 583.53351 786.10143 583.54516 786.1856 583.56076 z M 300.39252 607.92517 L 300.39252 610.73636 C 299.60441 609.88595 298.80059 609.04829 297.97148 608.23781 C 298.78251 608.16691 299.59149 608.06984 300.39252 607.92517 z M 542.38291 607.95204 C 542.38355 608.76203 542.38396 609.57188 542.38498 610.38186 C 541.69255 609.6436 540.98596 608.91728 540.2616 608.20939 C 540.9718 608.15039 541.6802 608.07079 542.38291 607.95204 z M 784.36194 607.99338 C 784.36258 608.64542 784.36298 609.29782 784.36401 609.94985 L 784.36349 609.94985 C 783.79758 609.35559 783.22271 608.76993 782.6375 608.1944 C 783.21427 608.146 783.79005 608.08154 784.36194 607.99338 z M 695.38649 629.47786 C 695.46109 629.39756 695.56657 629.44763 695.65056 629.47837 C 696.1776 630.19426 694.97187 630.19236 695.38649 629.47786 z " /><g
       id="g555"
       transform="matrix(0.97774626,0,0,0.97047752,11.12687,10.332868)"><path
         id="path163"
         style="fill:#000000;stroke-width:1.28907"
         d="M 200.93635,19.999996 V 226.25098 432.49934 h 143.0872 143.08455 v 11.60246 11.60245 H 364.00217 240.89887 v 19.33481 19.3348 h 10.31036 10.313 v -9.02239 -9.02237 H 374.31517 487.1081 v 9.02237 9.02239 h 9.66826 9.66827 v -9.02239 -9.02237 h 115.37184 115.37185 v 9.02237 9.02239 h 9.66826 9.66827 v -19.3348 -19.33481 H 631.48474 506.44463 V 444.1018 432.49934 H 652.75545 799.06364 V 252.03072 71.562089 H 592.81168 386.56233 V 45.782348 19.999996 h -92.8143 z m 194.64953,12.88987 v 9.664792 9.662179 l 185.94702,0.326426 185.94967,0.329035 0.40262,4.188686 0.40526,4.188685 h 9.58405 9.5867 V 47.069768 32.889866 H 591.52485 Z m -174.02354,7.734967 h 72.18569 72.18832 v 25.782352 25.77974 H 572.18831 778.43765 V 252.03072 411.87451 H 500 221.56234 V 226.25098 Z m 20.62335,21.914868 v 10.367258 10.364646 l 9.99195,-0.376041 9.98931,-0.376042 0.37631,-9.991216 0.37631,-9.988605 h -10.36562 z m 39.96252,0 v 9.453269 c 0,5.199215 0.38524,9.839762 0.85788,10.312418 0.47267,0.472669 5.11377,0.85915 10.31299,0.85915 h 9.45249 V 72.85212 62.539701 H 292.4612 Z m 41.24934,0 v 10.364647 10.364646 l 10.63405,-0.376041 10.63667,-0.373431 0.37631,-9.991216 0.3763,-9.988605 H 334.40791 Z M 240.89887,504.68628 v 5.15751 5.15491 H 205.44944 170 V 597.50066 680 H 252.49869 335 V 597.50066 514.9987 h -36.73889 -36.73888 v -5.15491 -5.15751 h -10.313 z m 246.20923,0 v 5.15751 5.15491 h -34.80471 -34.8047 V 597.50066 680 H 500 582.50131 V 597.50066 514.9987 h -38.02834 -38.02834 v -5.15491 -5.15751 h -9.66827 z m 250.08022,0 v 5.15751 5.15491 H 701.09415 664.99999 V 597.50066 680 h 82.50131 82.49869 V 597.50066 514.9987 h -36.73625 -36.73889 v -5.15491 -5.15751 h -9.66827 z m -546.56496,30.93986 h 61.87533 61.87533 v 61.87452 61.87451 h -61.87533 -61.87533 v -61.87451 z m 247.50131,0 H 500 561.87533 v 61.87452 61.87451 H 500 438.12467 v -61.87451 z m 247.5013,0 h 61.87533 61.87533 v 61.87452 61.87451 H 747.5013 685.62597 v -61.87451 z" /><path
         style="fill:#000000;stroke-width:0.120274"
         d="m 286.41341,650.20984 c 1.33135,-0.23392 2.2611,-1.02316 2.73476,-2.3215 0.34077,-0.93404 0.29889,-3.44759 -0.0847,-5.08707 -1.32949,-5.68151 -5.30468,-11.02357 -13.14536,-17.66537 -3.77042,-3.1939 -8.17574,-6.42098 -16.99362,-12.44855 -11.77862,-8.0514 -15.66705,-11.14553 -18.48364,-14.70791 -3.01859,-3.81787 -2.95413,-6.98152 0.19751,-9.69413 0.38996,-0.33564 0.70827,-0.64869 0.70737,-0.69565 -8.4e-4,-0.0469 -0.33497,-0.25974 -0.74231,-0.47283 -0.94158,-0.49253 -2.57717,-1.85144 -3.26421,-2.71203 -1.72523,-2.16104 -2.55223,-4.76407 -2.14418,-6.74893 0.14514,-0.70593 0.5662,-1.60854 0.75038,-1.60854 0.0447,0 0.0498,0.38935 0.0108,0.8652 -0.086,1.06292 0.0751,2.5055 0.36126,3.23536 0.11776,0.30047 0.50251,0.92036 0.85486,1.37758 0.35237,0.4572 0.76193,1.03263 0.91015,1.27875 0.48625,0.80734 3.45164,3.14954 5.27774,4.16857 2.7486,1.53384 4.49988,1.7036 7.69577,0.74598 2.66254,-0.79781 3.68335,-1.03589 5.01038,-1.16845 4.50126,-0.44966 11.06219,1.91458 17.54571,6.32264 2.83944,1.93052 4.01768,2.64279 5.37653,3.25023 1.51915,0.67912 2.62366,0.93963 4.7645,1.12377 7.93139,0.6822 7.71059,0.67098 8.65207,0.44014 1.09011,-0.26726 2.40266,-0.85196 3.54587,-1.57956 l 0.99495,-0.63325 -0.65044,-0.0257 c -5.58321,-0.2204 -9.68225,-1.58844 -14.43734,-4.8184 -0.75469,-0.51265 -2.60711,-1.86846 -4.11648,-3.01293 -6.14977,-4.66304 -8.05291,-5.75826 -13.85229,-7.9717 -1.14999,-0.43892 -2.67132,-1.04551 -3.38071,-1.34794 l -1.2898,-0.54993 0.57106,-0.41551 c 0.90307,-0.6571 2.01391,-1.24987 2.8272,-1.50867 2.15004,-0.6842 5.30576,-0.23672 10.46278,1.48356 3.95037,1.31777 6.18247,2.50564 9.16099,4.87521 2.58168,2.05388 3.63865,2.6291 6.4366,3.50296 1.81042,0.56542 2.29607,0.8436 2.73313,1.56552 0.28029,0.46295 0.3276,1.53114 0.1214,2.73998 -0.0671,0.39345 -0.10684,0.72828 -0.0881,0.74406 0.0788,0.0667 1.5067,-0.80825 2.08847,-1.27973 0.64856,-0.52561 1.1653,-1.24965 1.31729,-1.84577 l 0.0861,-0.33772 2.31494,0.25695 c 3.75999,0.41736 3.91143,0.51531 3.75987,2.43199 -0.10604,1.34003 10e-4,1.43304 0.77787,0.67085 0.63832,-0.62695 0.96632,-1.18867 1.06633,-1.82612 0.0552,-0.35252 0.20789,-0.64851 0.46239,-0.89695 0.33615,-0.32813 0.37585,-0.44272 0.34521,-0.99624 -0.0315,-0.56987 0.007,-0.67158 0.43596,-1.14423 0.73816,-0.81374 0.95666,-1.41921 0.9513,-2.63604 -0.004,-0.86998 -0.0772,-1.24577 -0.42473,-2.17585 -0.45187,-1.20939 -0.4949,-1.48387 -0.28478,-1.81645 0.27213,-0.43072 1.31538,-0.10602 1.77448,0.55228 0.35667,0.51144 0.48847,0.41758 0.40264,-0.28675 -0.11183,-0.91793 -0.74879,-1.9232 -1.77427,-2.80025 -1.65589,-1.41625 -2.59601,-1.5642 -4.53841,-0.71426 -1.13345,0.49594 -1.23337,0.51914 -1.98667,0.46129 -1.00528,-0.0773 -1.96725,-0.45803 -2.96477,-1.17367 -2.53445,-1.81823 -3.02338,-2.01178 -4.34562,-1.72036 -0.41303,0.091 -0.88634,0.24055 -1.05178,0.33224 -0.28056,0.1555 -0.3598,0.13893 -1.17614,-0.24588 -1.40877,-0.66407 -2.75793,-1.45066 -3.9197,-2.28529 -1.38195,-0.99283 -4.23819,-3.66764 -4.59342,-4.30165 -0.323,-0.57649 -2.25543,-2.87209 -4.25239,-5.05157 l -1.43565,-1.56684 0.0412,-0.75666 c 0.0808,-1.48133 -1.01952,-3.40328 -3.11166,-5.4352 -0.71367,-0.69313 -1.92106,-1.53838 -2.65957,-1.86188 -0.43726,-0.19153 -0.4096,-0.12541 0.23914,0.57168 1.10851,1.1911 1.35832,1.94544 1.11088,3.35433 l -0.16279,0.92677 -0.45862,-0.70152 c -1.26724,-1.93835 -4.56049,-4.48463 -7.34737,-5.68085 l -0.68845,-0.29553 0.58088,0.64493 c 1.79667,1.99477 2.66609,3.43317 2.50007,4.13627 l -0.0746,0.31617 -0.86712,-0.28484 c -3.17554,-1.04313 -5.68122,-1.57387 -8.51201,-1.80297 -2.54111,-0.20566 -2.41361,-0.16882 -3.47824,-1.00498 -4.51673,-3.54745 -9.94036,-6.30099 -15.732,-7.98702 -1.45202,-0.4227 -4.61381,-1.19893 -4.67442,-1.14759 -0.026,0.0221 0.50049,0.30045 1.17006,0.61866 4.35668,2.07043 8.18648,4.73033 10.35585,7.1924 0.81634,0.92649 1.64283,1.99984 1.64283,2.13353 0,0.0254 -0.7792,0.0786 -1.73153,0.11819 -0.95234,0.0396 -1.96066,0.11833 -2.24068,0.17511 l -0.50913,0.10322 -1.51644,-1.29834 c -2.75259,-2.35674 -6.07166,-4.21633 -10.79485,-6.04809 -2.57253,-0.99769 -7.75754,-2.37943 -8.92547,-2.37852 -0.12221,9e-5 0.48343,0.3274 1.34593,0.72736 3.8513,1.78591 7.11673,3.92022 9.68754,6.33185 1.14625,1.07527 3.46312,3.4695 3.54704,3.66547 0.0197,0.0459 -0.65663,0.24623 -1.50283,0.44525 -6.9866,1.64304 -13.5455,4.11635 -17.93914,6.76471 -2.32835,1.40345 -4.56779,3.23856 -5.19118,4.25391 l -0.20044,0.32648 0.31086,-0.17248 c 2.52738,-1.40237 3.42044,-1.7678 4.8256,-1.97456 0.4706,-0.0693 1.11097,-0.11017 1.42303,-0.0908 l 0.56738,0.0352 -1.30383,1.32835 c -6.14862,6.26418 -11.14792,13.50804 -13.63658,19.75903 -1.08146,2.71638 -1.92926,5.98556 -1.7999,6.94055 0.0369,0.27214 0.12826,0.18164 0.74877,-0.74163 1.3189,-1.96233 2.14042,-2.79653 3.67105,-3.7277 0.88667,-0.53942 2.21593,-1.18457 2.29779,-1.11523 0.0334,0.0282 -0.1732,0.81817 -0.45908,1.75533 -2.53823,8.32066 -3.63735,18.94574 -2.55235,24.67311 0.38963,2.05666 1.22853,4.10357 1.99616,4.87057 l 0.27696,0.27674 0.004,-1.34428 c 0.008,-2.60389 0.39589,-4.57181 1.16933,-5.93898 0.38445,-0.67958 1.50975,-1.96142 1.78958,-2.03854 0.093,-0.0257 0.17657,0.26893 0.23325,0.82195 0.12948,1.26299 0.69846,3.96334 1.19996,5.69463 1.19216,4.11575 3.02322,7.63539 6.84389,13.1552 2.96241,4.27988 3.20769,4.86906 3.20283,7.69329 -0.003,1.932 -0.21091,3.27232 -0.84568,5.4603 -0.74397,2.56451 -1.7355,4.94272 -2.9085,6.97623 -0.37405,0.64842 -0.70488,1.22776 -0.73518,1.28741 -0.0303,0.0596 0.29244,-0.21042 0.71722,-0.60018 0.42476,-0.38974 1.41919,-1.20365 2.20981,-1.80867 9.10811,-6.97002 19.80775,-9.27558 32.93184,-7.09615 6.05406,1.00537 12.05774,2.72291 21.82388,6.24342 7.89784,2.84702 11.84344,3.81077 14.02913,3.42676 z m 7.86009,-72.34913 c -0.99595,-0.35447 -2.67723,-0.47609 -3.78918,-0.2741 -0.38068,0.0691 -0.70904,0.11137 -0.72971,0.0939 -0.091,-0.077 0.65505,-1.16786 1.01735,-1.4874 0.90467,-0.79792 1.68605,-0.76262 2.82097,0.12742 0.77492,0.6077 2.0593,2.0366 1.71821,1.91152 -0.10348,-0.038 -0.57044,-0.20506 -1.03764,-0.37135 z m -24.116,-9.13129 c -1.44294,-0.38149 -1.91412,-0.56198 -2.44305,-0.93583 -0.57622,-0.40726 -1.63108,-0.67967 -3.51952,-0.90886 -2.06588,-0.25074 -2.9089,-0.5632 -3.60003,-1.33435 -0.23615,-0.26348 -0.42938,-0.52256 -0.42938,-0.57573 0,-0.15599 1.64917,-0.89215 2.52554,-1.12734 1.03701,-0.27829 2.06408,-0.21489 3.03464,0.18733 0.53482,0.22166 1.07347,0.62707 2.18155,1.6419 0.80924,0.74117 2.01381,1.8087 2.67681,2.37229 0.66302,0.5636 1.13112,1.02472 1.04027,1.02472 -0.0908,0 -0.75094,-0.15486 -1.46683,-0.34413 z"
         id="path844"
         inkscape:connector-curvature="0" /><path
         style="fill:#000000;stroke-width:0.120274"
         d="m 534.24097,650.19081 c 1.33136,-0.23392 2.26111,-1.02315 2.73477,-2.3215 0.34077,-0.93404 0.29889,-3.44759 -0.0847,-5.08706 -1.3295,-5.68151 -5.30468,-11.02358 -13.14537,-17.66537 -3.77041,-3.1939 -8.17574,-6.42099 -16.99361,-12.44855 -11.77863,-8.05141 -15.66706,-11.14554 -18.48365,-14.70791 -3.01858,-3.81787 -2.95412,-6.98153 0.19751,-9.69414 0.38996,-0.33563 0.70827,-0.64869 0.70737,-0.69564 -8.3e-4,-0.0469 -0.33496,-0.25975 -0.74231,-0.47283 -0.94158,-0.49254 -2.57716,-1.85145 -3.2642,-2.71203 -1.72524,-2.16104 -2.55224,-4.76408 -2.14418,-6.74894 0.14514,-0.70593 0.5662,-1.60853 0.75038,-1.60853 0.0447,0 0.0499,0.38934 0.0108,0.86519 -0.086,1.06292 0.075,2.5055 0.36126,3.23536 0.11776,0.30048 0.50251,0.92037 0.85485,1.37758 0.35237,0.4572 0.76194,1.03263 0.91016,1.27876 0.48625,0.80734 3.45163,3.14953 5.27773,4.16857 2.74861,1.53383 4.49989,1.7036 7.69578,0.74597 2.66253,-0.79781 3.68335,-1.03588 5.01038,-1.16845 4.50126,-0.44966 11.06219,1.91458 17.5457,6.32265 2.83944,1.93052 4.01768,2.64279 5.37654,3.25023 1.51914,0.67912 2.62366,0.93963 4.7645,1.12376 7.93139,0.6822 7.71058,0.67098 8.65207,0.44014 1.09011,-0.26726 2.40265,-0.85196 3.54586,-1.57956 l 0.99495,-0.63325 -0.65043,-0.0257 c -5.58322,-0.22039 -9.68225,-1.58844 -14.43735,-4.8184 -0.75469,-0.51264 -2.6071,-1.86845 -4.11648,-3.01293 -6.14976,-4.66304 -8.0529,-5.75826 -13.85229,-7.97169 -1.14998,-0.43893 -2.67131,-1.04551 -3.38071,-1.34795 l -1.2898,-0.54992 0.57106,-0.41552 c 0.90307,-0.6571 2.01392,-1.24987 2.82721,-1.50867 2.15004,-0.6842 5.30575,-0.23672 10.46278,1.48357 3.95037,1.31777 6.18246,2.50563 9.16099,4.87521 2.58168,2.05387 3.63864,2.62909 6.4366,3.50295 1.81041,0.56542 2.29606,0.84361 2.73313,1.56553 0.28029,0.46294 0.32759,1.53113 0.1214,2.73997 -0.0671,0.39345 -0.10685,0.72829 -0.0881,0.74406 0.0788,0.0667 1.5067,-0.80825 2.08847,-1.27973 0.64856,-0.5256 1.16529,-1.24965 1.31729,-1.84577 l 0.0861,-0.33772 2.31495,0.25695 c 3.75998,0.41736 3.91142,0.51531 3.75986,2.43199 -0.10603,1.34004 10e-4,1.43304 0.77788,0.67085 0.63832,-0.62695 0.96632,-1.18867 1.06633,-1.82611 0.0552,-0.35253 0.20788,-0.64852 0.46238,-0.89695 0.33615,-0.32814 0.37586,-0.44272 0.34522,-0.99624 -0.0315,-0.56987 0.007,-0.67158 0.43596,-1.14424 0.73816,-0.81373 0.95666,-1.41921 0.95129,-2.63603 -0.004,-0.86999 -0.0772,-1.24577 -0.42472,-2.17586 -0.45187,-1.20939 -0.49491,-1.48387 -0.28479,-1.81644 0.27214,-0.43073 1.31539,-0.10603 1.77448,0.55227 0.35667,0.51145 0.48847,0.41759 0.40265,-0.28675 -0.11183,-0.91793 -0.74879,-1.92319 -1.77427,-2.80025 -1.65589,-1.41624 -2.59602,-1.5642 -4.53842,-0.71426 -1.13344,0.49595 -1.23336,0.51915 -1.98666,0.46129 -1.00528,-0.0773 -1.96725,-0.45803 -2.96477,-1.17366 -2.53445,-1.81824 -3.02338,-2.01179 -4.34563,-1.72037 -0.41302,0.0911 -0.88633,0.24055 -1.05177,0.33224 -0.28056,0.1555 -0.3598,0.13893 -1.17614,-0.24588 -1.40878,-0.66406 -2.75793,-1.45066 -3.91971,-2.28529 -1.38194,-0.99283 -4.23818,-3.66764 -4.59341,-4.30165 -0.323,-0.57649 -2.25543,-2.87208 -4.25239,-5.05156 l -1.43565,-1.56685 0.0412,-0.75665 c 0.0808,-1.48133 -1.01953,-3.40328 -3.11166,-5.43521 -0.71368,-0.69313 -1.92106,-1.53838 -2.65957,-1.86187 -0.43727,-0.19153 -0.40961,-0.12542 0.23914,0.57167 1.1085,1.1911 1.35832,1.94545 1.11088,3.35433 l -0.16279,0.92677 -0.45862,-0.70151 c -1.26724,-1.93836 -4.56049,-4.48464 -7.34737,-5.68086 l -0.68845,-0.29553 0.58088,0.64494 c 1.79667,1.99476 2.66609,3.43316 2.50007,4.13627 l -0.0747,0.31617 -0.86711,-0.28485 c -3.17555,-1.04312 -5.68122,-1.57386 -8.51201,-1.80296 -2.54111,-0.20567 -2.41361,-0.16883 -3.47824,-1.00499 -4.51673,-3.54745 -9.94036,-6.30098 -15.732,-7.98701 -1.45202,-0.42271 -4.61382,-1.19894 -4.67442,-1.14759 -0.026,0.0221 0.50048,0.30044 1.17006,0.61866 4.35668,2.07042 8.18648,4.73032 10.35585,7.1924 0.81634,0.92648 1.64283,1.99983 1.64283,2.13352 0,0.0254 -0.7792,0.0786 -1.73153,0.11819 -0.95235,0.0396 -1.96066,0.11833 -2.24068,0.17512 l -0.50913,0.10322 -1.51644,-1.29835 c -2.75259,-2.35674 -6.07166,-4.21633 -10.79485,-6.04808 -2.57253,-0.9977 -7.75754,-2.37943 -8.92547,-2.37852 -0.12221,9e-5 0.48342,0.3274 1.34593,0.72736 3.85129,1.7859 7.11672,3.92022 9.68754,6.33184 1.14624,1.07527 3.46312,3.46951 3.54704,3.66547 0.0197,0.0459 -0.65663,0.24623 -1.50283,0.44525 -6.9866,1.64305 -13.5455,4.11635 -17.93914,6.76471 -2.32835,1.40345 -4.56779,3.23856 -5.19118,4.25392 l -0.20045,0.32648 0.31086,-0.17248 c 2.52738,-1.40238 3.42045,-1.7678 4.82561,-1.97456 0.4706,-0.0693 1.11097,-0.11018 1.42303,-0.0908 l 0.56738,0.0352 -1.30383,1.32834 c -6.14862,6.26418 -11.14792,13.50804 -13.63658,19.75904 -1.08146,2.71638 -1.92927,5.98555 -1.79991,6.94054 0.0369,0.27214 0.12827,0.18164 0.74878,-0.74162 1.3189,-1.96233 2.14042,-2.79654 3.67105,-3.7277 0.88667,-0.53943 2.21592,-1.18458 2.29779,-1.11524 0.0334,0.0282 -0.1732,0.81817 -0.45908,1.75533 -2.53823,8.32066 -3.63735,18.94574 -2.55235,24.67312 0.38963,2.05665 1.22852,4.10356 1.99616,4.87057 l 0.27696,0.27674 0.004,-1.34429 c 0.008,-2.60389 0.3959,-4.57181 1.16934,-5.93898 0.38445,-0.67958 1.50974,-1.96142 1.78957,-2.03854 0.093,-0.0257 0.17657,0.26893 0.23326,0.82196 0.12948,1.26299 0.69846,3.96333 1.19996,5.69462 1.19216,4.11575 3.02321,7.63539 6.84389,13.1552 2.96241,4.27988 3.20769,4.86906 3.20283,7.6933 -0.003,1.93199 -0.21092,3.27232 -0.84568,5.4603 -0.74398,2.5645 -1.7355,4.94271 -2.9085,6.97623 -0.37405,0.64842 -0.70488,1.22776 -0.73518,1.2874 -0.0303,0.0596 0.29244,-0.21042 0.71722,-0.60018 0.42476,-0.38973 1.41919,-1.20364 2.20981,-1.80866 9.1081,-6.97003 19.80775,-9.27559 32.93184,-7.09615 6.05406,1.00537 12.05774,2.7229 21.82388,6.24341 7.89784,2.84702 11.84343,3.81077 14.02913,3.42676 z m 7.8601,-72.34912 c -0.99596,-0.35448 -2.67723,-0.47609 -3.78918,-0.27411 -0.38068,0.0691 -0.70904,0.11138 -0.72971,0.0939 -0.091,-0.077 0.65505,-1.16786 1.01735,-1.4874 0.90466,-0.79791 1.68604,-0.76262 2.82097,0.12742 0.77491,0.6077 2.0593,2.0366 1.7182,1.91152 -0.10347,-0.038 -0.57044,-0.20506 -1.03763,-0.37134 z m -24.116,-9.13129 c -1.44294,-0.3815 -1.91412,-0.56199 -2.44305,-0.93584 -0.57622,-0.40726 -1.63108,-0.67967 -3.51953,-0.90886 -2.06587,-0.25073 -2.90889,-0.5632 -3.60003,-1.33435 -0.23615,-0.26348 -0.42937,-0.52255 -0.42937,-0.57573 0,-0.15599 1.64917,-0.89215 2.52554,-1.12733 1.03701,-0.27829 2.06408,-0.21489 3.03464,0.18733 0.53481,0.22165 1.07347,0.62707 2.18154,1.64189 0.80925,0.74118 2.01381,1.80871 2.67682,2.37229 0.66301,0.56361 1.13112,1.02472 1.04027,1.02472 -0.0908,0 -0.75094,-0.15485 -1.46683,-0.34412 z"
         id="path844-3"
         inkscape:connector-curvature="0" /><path
         style="fill:#000000;stroke-width:0.120274"
         d="m 782.14247,650.19081 c 1.33135,-0.23392 2.2611,-1.02315 2.73476,-2.3215 0.34077,-0.93404 0.2989,-3.44759 -0.0848,-5.08706 -1.32949,-5.68151 -5.30468,-11.02358 -13.14536,-17.66537 -3.77042,-3.1939 -8.17574,-6.42099 -16.99361,-12.44855 -11.77863,-8.05141 -15.66706,-11.14554 -18.48365,-14.70791 -3.01858,-3.81787 -2.95413,-6.98153 0.19751,-9.69414 0.38996,-0.33563 0.70827,-0.64869 0.70737,-0.69564 -8.4e-4,-0.0469 -0.33497,-0.25975 -0.74231,-0.47283 -0.94158,-0.49254 -2.57716,-1.85145 -3.2642,-2.71203 -1.72524,-2.16104 -2.55224,-4.76408 -2.14418,-6.74894 0.14513,-0.70593 0.56619,-1.60853 0.75037,-1.60853 0.0447,0 0.0498,0.38934 0.0108,0.86519 -0.086,1.06292 0.0751,2.5055 0.36127,3.23536 0.11775,0.30048 0.5025,0.92037 0.85485,1.37758 0.35237,0.4572 0.76194,1.03263 0.91016,1.27876 0.48624,0.80734 3.45163,3.14953 5.27773,4.16857 2.7486,1.53383 4.49988,1.7036 7.69578,0.74597 2.66253,-0.79781 3.68335,-1.03588 5.01037,-1.16845 4.50126,-0.44966 11.06219,1.91458 17.54571,6.32265 2.83944,1.93052 4.01768,2.64279 5.37653,3.25023 1.51915,0.67912 2.62366,0.93963 4.7645,1.12376 7.93139,0.6822 7.71059,0.67098 8.65207,0.44014 1.09011,-0.26726 2.40266,-0.85196 3.54587,-1.57956 l 0.99495,-0.63325 -0.65043,-0.0257 c -5.58322,-0.22039 -9.68225,-1.58844 -14.43735,-4.8184 -0.75469,-0.51264 -2.6071,-1.86845 -4.11648,-3.01293 -6.14977,-4.66304 -8.05291,-5.75826 -13.85229,-7.97169 -1.14999,-0.43893 -2.67132,-1.04551 -3.38071,-1.34795 l -1.2898,-0.54992 0.57106,-0.41552 c 0.90307,-0.6571 2.01392,-1.24987 2.8272,-1.50867 2.15004,-0.6842 5.30576,-0.23672 10.46278,1.48357 3.95037,1.31777 6.18247,2.50563 9.16099,4.87521 2.58168,2.05387 3.63865,2.62909 6.4366,3.50295 1.81042,0.56542 2.29607,0.84361 2.73314,1.56553 0.28028,0.46294 0.32759,1.53113 0.12139,2.73997 -0.0671,0.39345 -0.10684,0.72829 -0.0881,0.74406 0.0788,0.0667 1.50669,-0.80825 2.08846,-1.27973 0.64856,-0.5256 1.1653,-1.24965 1.31729,-1.84577 l 0.0861,-0.33772 2.31494,0.25695 c 3.75999,0.41736 3.91143,0.51531 3.75987,2.43199 -0.10604,1.34004 0.001,1.43304 0.77787,0.67085 0.63832,-0.62695 0.96632,-1.18867 1.06634,-1.82611 0.0552,-0.35253 0.20788,-0.64852 0.46238,-0.89695 0.33615,-0.32814 0.37585,-0.44272 0.34521,-0.99624 -0.0315,-0.56987 0.007,-0.67158 0.43597,-1.14424 0.73815,-0.81373 0.95665,-1.41921 0.95129,-2.63603 -0.004,-0.86999 -0.0772,-1.24577 -0.42472,-2.17586 -0.45188,-1.20939 -0.49491,-1.48387 -0.28479,-1.81644 0.27213,-0.43073 1.31539,-0.10603 1.77448,0.55227 0.35667,0.51145 0.48847,0.41759 0.40264,-0.28675 -0.11183,-0.91793 -0.74879,-1.92319 -1.77427,-2.80025 -1.65589,-1.41624 -2.59601,-1.5642 -4.53841,-0.71426 -1.13344,0.49595 -1.23336,0.51915 -1.98667,0.46129 -1.00528,-0.0773 -1.96724,-0.45803 -2.96477,-1.17366 -2.53445,-1.81824 -3.02337,-2.01179 -4.34562,-1.72037 -0.41303,0.0911 -0.88634,0.24055 -1.05178,0.33224 -0.28056,0.1555 -0.35979,0.13893 -1.17614,-0.24588 -1.40877,-0.66406 -2.75792,-1.45066 -3.9197,-2.28529 -1.38195,-0.99283 -4.23819,-3.66764 -4.59342,-4.30165 -0.323,-0.57649 -2.25543,-2.87208 -4.25238,-5.05156 l -1.43566,-1.56685 0.0412,-0.75665 c 0.0808,-1.48133 -1.01952,-3.40328 -3.11165,-5.43521 -0.71368,-0.69313 -1.92107,-1.53838 -2.65957,-1.86187 -0.43727,-0.19153 -0.40961,-0.12542 0.23914,0.57167 1.1085,1.1911 1.35831,1.94545 1.11087,3.35433 l -0.16279,0.92677 -0.45862,-0.70151 c -1.26723,-1.93836 -4.56048,-4.48464 -7.34736,-5.68086 l -0.68846,-0.29553 0.58088,0.64494 c 1.79668,1.99476 2.66609,3.43316 2.50007,4.13627 l -0.0746,0.31617 -0.86711,-0.28485 c -3.17555,-1.04312 -5.68122,-1.57386 -8.51201,-1.80296 -2.54111,-0.20567 -2.41361,-0.16883 -3.47825,-1.00499 -4.51672,-3.54745 -9.94036,-6.30098 -15.732,-7.98701 -1.45202,-0.42271 -4.61381,-1.19894 -4.67442,-1.14759 -0.026,0.0221 0.50049,0.30044 1.17007,0.61866 4.35667,2.07042 8.18648,4.73032 10.35584,7.1924 0.81634,0.92648 1.64283,1.99983 1.64283,2.13352 0,0.0254 -0.77919,0.0786 -1.73153,0.11819 -0.95234,0.0396 -1.96065,0.11833 -2.24067,0.17512 l -0.50914,0.10322 -1.51644,-1.29835 c -2.75259,-2.35674 -6.07165,-4.21633 -10.79485,-6.04808 -2.57253,-0.9977 -7.75754,-2.37943 -8.92547,-2.37852 -0.1222,9e-5 0.48343,0.3274 1.34593,0.72736 3.8513,1.7859 7.11673,3.92022 9.68755,6.33184 1.14624,1.07527 3.46311,3.46951 3.54704,3.66547 0.0197,0.0459 -0.65663,0.24623 -1.50283,0.44525 -6.9866,1.64305 -13.5455,4.11635 -17.93915,6.76471 -2.32835,1.40345 -4.56778,3.23856 -5.19118,4.25392 l -0.20044,0.32648 0.31086,-0.17248 c 2.52738,-1.40238 3.42044,-1.7678 4.8256,-1.97456 0.4706,-0.0693 1.11097,-0.11018 1.42303,-0.0908 l 0.56738,0.0352 -1.30383,1.32834 c -6.14861,6.26418 -11.14792,13.50804 -13.63657,19.75904 -1.08147,2.71638 -1.92927,5.98555 -1.79991,6.94054 0.0369,0.27214 0.12827,0.18164 0.74877,-0.74162 1.31891,-1.96233 2.14043,-2.79654 3.67105,-3.7277 0.88668,-0.53943 2.21593,-1.18458 2.29779,-1.11524 0.0334,0.0282 -0.1732,0.81817 -0.45908,1.75533 -2.53822,8.32066 -3.63735,18.94574 -2.55234,24.67312 0.38962,2.05665 1.22852,4.10356 1.99616,4.87057 l 0.27696,0.27674 0.004,-1.34429 c 0.008,-2.60389 0.39589,-4.57181 1.16934,-5.93898 0.38445,-0.67958 1.50974,-1.96142 1.78957,-2.03854 0.093,-0.0257 0.17657,0.26893 0.23325,0.82196 0.12948,1.26299 0.69847,3.96333 1.19996,5.69462 1.19216,4.11575 3.02322,7.63539 6.84389,13.1552 2.96241,4.27988 3.2077,4.86906 3.20283,7.6933 -0.003,1.93199 -0.21091,3.27232 -0.84567,5.4603 -0.74398,2.5645 -1.73551,4.94271 -2.90851,6.97623 -0.37405,0.64842 -0.70487,1.22776 -0.73518,1.2874 -0.0303,0.0596 0.29245,-0.21042 0.71722,-0.60018 0.42477,-0.38973 1.41919,-1.20364 2.20981,-1.80866 9.10811,-6.97003 19.80775,-9.27559 32.93184,-7.09615 6.05406,1.00537 12.05775,2.7229 21.82388,6.24341 7.89784,2.84702 11.84344,3.81077 14.02913,3.42676 z m 7.8601,-72.34912 c -0.99596,-0.35448 -2.67724,-0.47609 -3.78919,-0.27411 -0.38068,0.0691 -0.70904,0.11138 -0.72971,0.0939 -0.0909,-0.077 0.65506,-1.16786 1.01736,-1.4874 0.90466,-0.79791 1.68604,-0.76262 2.82096,0.12742 0.77492,0.6077 2.0593,2.0366 1.71821,1.91152 -0.10348,-0.038 -0.57044,-0.20506 -1.03763,-0.37134 z m -24.116,-9.13129 c -1.44295,-0.3815 -1.91413,-0.56199 -2.44305,-0.93584 -0.57622,-0.40726 -1.63109,-0.67967 -3.51953,-0.90886 -2.06587,-0.25073 -2.9089,-0.5632 -3.60003,-1.33435 -0.23615,-0.26348 -0.42937,-0.52255 -0.42937,-0.57573 0,-0.15599 1.64916,-0.89215 2.52553,-1.12733 1.03701,-0.27829 2.06408,-0.21489 3.03464,0.18733 0.53482,0.22165 1.07348,0.62707 2.18155,1.64189 0.80924,0.74118 2.01381,1.80871 2.67681,2.37229 0.66302,0.56361 1.13113,1.02472 1.04028,1.02472 -0.0908,0 -0.75095,-0.15485 -1.46683,-0.34412 z"
         id="path844-3-6"
         inkscape:connector-curvature="0" /><g
         id="g1746"
         transform="matrix(0.08064677,0,0,0.07660146,-362.44568,88.621137)"><path
           id="path1534"
           style="fill:#ff0000;stroke-width:14.3826"
           d="m 11497.877,859.22852 c -28.492,0.46258 -56.923,3.18411 -85.074,7.54359 -14.644,2.30046 -29.238,4.97696 -43.676,8.34664 -14.47,3.45025 -28.842,7.64241 -42.4,13.83185 -9.888,4.72227 -19.167,11.22493 -25.8,20.05553 -8.923,11.74359 -12.683,27.3784 -9.614,41.85088 2.702,13.86395 10.824,26.40545 21.791,35.19623 10.412,8.65684 22.791,14.51896 35.328,19.40786 21.981,8.4685 44.943,14.0175 67.943,18.9114 34.349,7.1641 69.149,11.8965 103.99,15.9068 24.83,2.9611 49.725,6.3594 74.368,10.5526 12.278,2.0832 24.57,4.3531 36.736,6.9166 3.457,0.7295 6.918,1.5248 10.276,2.3928 7.97,2.0132 15.708,4.8114 23.549,7.2574 13.66,4.3171 27.491,8.0686 41.373,11.6108 28.97,7.3486 58.25,13.48 87.743,18.3145 10.331,1.6001 20.956,2.5418 31.313,0.6311 12.577,-2.4401 24.383,-9.5244 31.783,-20.0775 8.777,-12.2453 11.648,-28.6526 7.045,-43.0559 -3.517,-11.4697 -11.114,-21.4396 -20.62,-28.6471 -10.432,-8.39862 -22.046,-15.13027 -33.395,-22.1832 -30.111,-18.21324 -60.506,-35.94506 -90.946,-53.60059 -24.634,-14.21156 -49.446,-28.16457 -75.024,-40.62148 -21.579,-10.37755 -44.053,-19.27107 -67.581,-24.06231 -19.956,-4.0869 -40.336,-5.56471 -60.66,-6.27121 -6.147,-0.18571 -12.298,-0.27467 -18.448,-0.20729 z" /><g
           id="g4703"
           transform="matrix(1,0,0,0.98444276,7466.9246,187.76862)"><g
             id="g4746"
             transform="matrix(1,0,0,1.161496,0,-610.55012)"><g
               id="g4752"
               transform="matrix(1,0,0,1.0577795,0,-218.4404)"><path
                 d="m 654.1875,2200.5898 v 18.4493 18.4492 l 6.47461,3.0898 c 23.3898,11.1629 39.71955,29.6457 45.69727,51.7246 1.67349,6.1813 2.11925,10.7767 2.15624,22.2871 0.0688,21.213 -3.90269,40.2481 -15.15429,72.6407 -5.6163,16.1688 -482.76498,1240.7634 -491.86328,1262.3593 -7.5983,18.0356 -18.87867,40.066 -26.13477,51.0391 -13.1507,19.8871 -29.30964,31.68 -54.92383,40.082 l -10.25,3.3633 v 18.2578 18.2578 h 212.99805 213 v -18.2793 -18.2773 l -10.42578,-4.1348 c -15.4657,-6.1324 -23.86824,-11.4263 -33.68164,-21.2187 -6.7293,-6.7148 -9.41021,-10.2657 -12.2832,-16.2656 -6.68811,-13.967 -8.06581,-28.133 -4.66211,-47.9746 4.1499,-24.1914 3.88349,-23.456 66.33789,-183.3497 l 36.32617,-93 h 292.44531 292.44336 l 43.1797,108 c 23.7486,59.4 45.938,115.3683 49.3105,124.3731 11.3503,30.3062 15.7918,50.8405 14.6739,67.8594 -2.1749,33.1087 -19.9193,54.1422 -53.4141,63.3203 l -8.25,2.2617 v 18.3418 18.3437 h 236.5 236.5 v -18.3457 -18.3457 l -7.75,-2.4043 -7.75,-2.4043 8.25,-0.291 8.25,-0.289 v -11.8731 -11.873 l -7.6934,-3.8028 c -13.5161,-6.6784 -20.9815,-15.813 -25.0468,-30.6484 -1.5875,-5.7935 -1.7256,-28.4279 -2,-328.2051 -0.2515,-274.6617 -0.09,-321.7644 1.0937,-320.5 2.3162,2.474 420.6006,605.7485 425.6953,613.9629 7.0185,11.3162 12.8118,23.3089 14.5645,30.1504 3.8332,14.9622 -3.4902,30.9718 -16.8633,36.8691 l -4.75,2.0938 v 11.9531 11.9531 h 116.5 116.5 v -11.9726 -11.9707 l -6.25,-3.0996 c -13.7446,-6.815 -20.7476,-14.3473 -25.0234,-26.9141 l -2.2266,-6.543 -0.2754,-453 c -0.2036,-333.0207 0.021,-454.8067 0.8516,-459.8203 2.483,-14.9966 11.0138,-26.0885 25.6738,-33.3789 l 7.25,-3.6054 v -11.8477 -11.8477 h -108.5 -108.5 v 11.8477 11.8477 l 7.3965,3.6562 c 14.4726,7.1528 23.0537,18.3554 25.5273,33.3281 0.8232,4.9804 1.0521,90.9361 0.8516,318.6856 l -0.2754,311.8652 -205.9844,-298.8652 c -120.3368,-174.5972 -207.7339,-302.3306 -210.1894,-307.1992 -12.7312,-25.2424 -8.1567,-49.8076 11.0019,-59.0821 l 4.6719,-2.2617 V 2716.5 2704.5898 H 1590.1562 1464.125 l 0.2812,11.6387 0.2813,11.6387 7.4258,3.8848 c 13.6966,7.1657 20.0485,14.1539 24.3496,26.7949 l 2.2246,6.5429 0.1934,337.5 c 0.1056,185.625 -0.1843,336.6 -0.6426,335.5 -19.6446,-47.1559 -431.3202,-1071.7053 -434.0332,-1080.1914 -6.3703,-19.9265 -8.4312,-32.2194 -8.4317,-50.3086 -4e-4,-14.1661 0.2315,-16.1885 2.6856,-23.5 6.3924,-19.045 22.0973,-34.074 45.9785,-43.996 l 6.75,-2.8028 v -18.3515 -18.3497 h -228.5 z m 4155.6992,14 0.5664,17.584 c 0.3125,9.671 0.7342,17.7478 0.9356,17.9492 0.2014,0.2015 5.2499,1.0923 11.2187,1.9786 33.1573,4.9234 55.0724,14.1752 71.9453,30.373 16.6723,16.005 43.2045,49.8804 80.7618,103.1152 43.5201,61.6866 404.327,582.5642 404.0781,583.3457 -0.5378,1.6891 -381.5031,530.6543 -382.1817,530.6543 -1.1461,0 -243.3668,-684.9203 -246.2578,-696.3359 -5.1756,-20.4367 -5.4005,-36.5452 -0.6836,-49.1523 2.9306,-7.8327 11.826,-17.1647 20.916,-21.9414 l 7.002,-3.6797 v -11.9453 -11.9454 h -131 -131 v 11.8575 11.8593 l 6.0137,3.711 c 12.2813,7.5805 20.3863,18.6431 23.5722,32.1758 3.1834,13.5223 0.37,37.4092 -7.289,61.8964 -3.704,11.8424 -278.7525,813.9649 -283.9219,828 -2.4309,6.6 -7.1872,17.625 -10.5703,24.5 -5.1892,10.5453 -7.2589,13.6134 -13.2285,19.6133 -6.9448,6.98 -15.6437,12.3494 -24.8262,15.3262 l -3.75,1.2168 v 11.9219 11.9218 h 123 123 v -11.8828 -11.8847 l -5.2656,-2.1368 c -10.8056,-4.3857 -21.3448,-13.289 -26.1231,-22.0683 -3.8994,-7.1645 -5.9174,-17.8459 -5.1093,-27.0274 1.5773,-17.9207 2.8944,-22.1967 41.3085,-134 l 18.7247,-54.5 h 168.4785 168.4765 l 27.3516,78 c 28.9028,82.4247 32.8409,95.0201 33.8359,108.2442 l 0.6192,8.2441 -10.3985,10.5918 c -19.6304,19.9947 -39.8598,30.1295 -70.1484,35.1426 l -9.75,1.6133 v 17.832 17.832 h 268 268 v -17.8847 -17.8848 l -8.25,-1.2012 c -38.2829,-5.5735 -59.6564,-27.06 -59.7324,-60.0488 -0.039,-16.7945 9.6701,-38.5956 32.2246,-72.3594 6.7555,-10.1129 251.1609,-362.4236 261.7578,-377.3242 l 3.7012,-5.2031 136.6425,193.3418 c 75.1536,106.3384 139.994,198.5839 144.0899,204.9902 13.9113,21.7582 23.4128,42.7275 25.0644,55.3125 0.8698,6.6278 -1.0165,18.0924 -4.1425,25.1758 -7.1083,16.1069 -23.3309,27.9228 -47.7598,34.7891 l -9.5957,2.6972 v 17.8008 17.7988 h 277 277 v -17.8281 -17.8281 l -10.75,-2.2344 c -13.4828,-2.8004 -31.1068,-8.6257 -42.5176,-14.0527 -27.0667,-12.8729 -44.689,-30.5718 -88.1719,-88.5567 -23.5836,-31.4489 -12.0585,-15.105 -250.8925,-355.7382 l -213.666,-304.7403 206.125,-277.7597 c 113.3698,-152.7684 215.4073,-289.9084 226.75,-304.7539 38.2676,-50.0851 66.3715,-84.2681 76.9238,-93.5665 13.5719,-11.9591 33.1529,-19.1612 66.4492,-24.4374 l 3.75,-0.5938 v -17.9551 -17.9551 h -272.5 -272.5 v 17.9336 c 0,16.2221 0.1669,17.9788 1.75,18.4297 0.9625,0.2742 4.3645,1.0169 7.5586,1.6504 15.0719,2.9889 32.0283,10.5336 42.2266,18.7891 17.1394,13.8744 23.0751,36.8407 15.3457,59.375 -5.2392,15.2746 -15.4586,34.2025 -31.4239,58.2031 -12.1795,18.3093 -234.8058,328.9077 -236.0273,329.2949 -0.5111,0.1621 -34.6797,-47.4726 -75.9297,-105.8535 -41.25,-58.3809 -92.1383,-130.4058 -113.0859,-160.0566 -50.7247,-71.7993 -63.2422,-92.1738 -70.5118,-114.7657 -3.8168,-11.8614 -4.4914,-20.0513 -2.539,-30.8496 4.5132,-24.9622 22.007,-42.713 52.8867,-53.6621 l 7.75,-2.748 v -17.8692 -17.8711 h -280.6504 z m -2643.1972,227.1407 c 3.0228,0.035 16.6558,0.1799 36.7812,0.4043 -0.03,-0.022 -0.061,-0.044 -0.092,-0.066 -26.8301,-0.2515 -40.0133,-0.377 -36.6894,-0.3379 z M 873.35938,2600.4062 c 0.599,0.6103 206.34912,555.154 207.56442,559.4336 0.4722,1.663 -9.9672,1.75 -209.22653,1.75 -167.3372,0 -209.63729,-0.2526 -209.30079,-1.25 5.5135,-16.3398 210.49848,-560.4063 210.9629,-559.9336 z m 1560.82812,104.1836 v 11.8477 11.8477 l 7.25,3.6054 c 9.9982,4.9721 16.968,11.3626 20.7148,18.9903 6.5438,13.3222 6.0764,-24.9002 5.793,473.9316 l -0.2578,453.2773 -2.2246,6.543 c -4.2754,12.5654 -11.1261,19.9181 -25.0254,26.8633 l -6.25,3.123 v 11.9864 11.9804 h 219.75 c 134.475,0 225.9589,-0.3885 235.75,-0.998 82.04,-5.1064 137.9737,-21.8567 184.6582,-55.2969 64.3445,-46.0903 116.2795,-125.5844 144.1914,-220.709 14.8056,-50.4582 23.0697,-97.7875 28.3496,-162.3574 2.1971,-26.8689 2.5312,-122.7773 0.5176,-148.6348 -5.8885,-75.6206 -16.2259,-130.8139 -35.209,-188 -31.5663,-95.0928 -79.8394,-164.3925 -144.5078,-207.455 -43.8857,-29.2234 -97.851,-44.5803 -173.9824,-49.5098 -10.2245,-0.662 -95.8836,-1.0352 -237.75,-1.0352 z m 932.0098,0 v 11.75 11.75 l 7.7461,3.9551 c 13.9011,7.0976 21.7645,17.0713 24.8183,31.4766 2.1241,10.0205 2.0822,906.3093 -0.043,916.3379 -3.0382,14.3365 -11.0763,24.3043 -25.252,31.3086 l -7.2793,3.5957 v 11.914 h 0.01 v 11.9121 h 115.5 115.5 v -11.8359 -11.8359 l -8.502,-4.2129 c -13.8165,-6.8463 -20.1864,-14.5743 -24.2324,-29.3926 -1.5637,-5.727 -1.7237,-20.499 -2.0059,-185.4766 l -0.3066,-179.2558 99.1777,0.2558 99.1778,0.2539 75.7968,154 c 79.7872,162.107 89.8031,183.0853 95.418,199.8653 5.6681,16.9387 4.481,27.0338 -4.0625,34.5351 -3.8052,3.341 -11.3632,7.1724 -16.7109,8.4707 l -2.75,0.668 v 11.9805 11.9804 h 134 134 v -11.83 -11.8282 l -7.75,-1.6816 c -18.2821,-3.9645 -31.8111,-14.7263 -45.459,-36.1602 -6.555,-10.2945 -19.2394,-32.6493 -29.5059,-52 -12.6382,-23.8211 -159.2851,-315.0074 -159.2851,-316.2812 0,-0.5738 1.9125,-1.3624 4.25,-1.7539 7.8293,-1.3112 30.7935,-8.4469 43.5839,-13.543 53.5559,-21.3378 93.1892,-57.7581 118.5879,-108.9765 23.3903,-47.1683 34.0006,-101.1757 33.9766,-172.9454 -0.012,-36.6645 -2.6772,-65.4515 -8.8769,-95.8925 -13.4716,-66.146 -35.8558,-111.9519 -71.6622,-146.6465 -42.0805,-40.7741 -89.0768,-57.9697 -173.3418,-63.4258 -10.3116,-0.6677 -104.4322,-1.0352 -265.25,-1.0352 z M 5211.793,2862.875 c 0.5119,0.4415 0.9804,0.8528 1.3808,1.2188 1.6353,0.9771 2.3111,1.3595 3.043,1.7773 -0.097,-0.1332 -0.1935,-0.2651 -0.291,-0.3984 -1.201,-0.778 -2.6746,-1.7117 -4.1328,-2.5977 z m -2581.6055,11.6094 118.25,0.3574 c 105.274,0.3184 119.7314,0.549 131.75,2.1016 52.5849,6.7933 88.1682,22.1929 117.0254,50.6464 47.7424,47.0744 74.9594,119.1917 84.5371,224 2.1852,23.9129 3.0351,88.5086 1.5273,116.0274 -6.1199,111.6885 -32.1313,190.7995 -79.4238,241.5586 -13.6091,14.6066 -31.562,28.3729 -47.166,36.168 -24.1366,12.0578 -58.3251,19.8022 -98,22.1992 -9.7308,0.588 -62.2184,1.0271 -122.75,1.0371 l -105.75,0.01 v -347.0527 z m 932,0.1054 137.75,0.02 c 137.2883,0.019 163.6229,0.5275 184.2305,3.5605 12.0536,1.774 25.976,6.1301 34,10.6367 38.4713,21.6067 55.2511,58.8169 55.1406,122.2774 -0.056,32.2492 -4.4242,56.8635 -13.4883,75.998 -10.3714,21.8943 -23.3748,35.3679 -44.1328,45.7325 -13.3368,6.6592 -25.7673,9.6058 -50,11.8574 -13.9101,1.2921 -301.5411,2.5691 -302.75,1.3437 -0.4125,-0.4181 -0.75,-61.6603 -0.75,-136.0937 z m 1080.084,92.2188 c 1.1233,2.0651 118.9199,364.1568 118.9199,365.5312 0,0.9931 -24.7926,1.25 -120.6094,1.25 -96.0617,0 -120.5149,-0.2544 -120.1523,-1.25 0.2505,-0.6875 27.6112,-83.5019 60.8008,-184.0312 33.1896,-100.5294 60.6579,-182.2044 61.041,-181.5 z"
                 style="fill:#000000"
                 id="path817" /></g></g><g
             id="g4743"
             transform="matrix(1,0,0,0.89270016,0,5.6817013)"><g
               id="g4749"
               transform="matrix(1,0,0,0.97456324,0,67.335697)"><path
                 id="path844-36"
                 d="m 2544.4017,52.951649 c -0.3545,8.45e-4 -0.5777,0.02702 -0.6638,0.08233 -1.1825,0.761246 22.7328,10.373301 53.1464,21.359177 197.8861,71.481054 371.841,163.315054 470.3772,248.317214 37.079,31.98667 74.6211,69.042 74.6211,73.65743 0,0.87791 -35.3918,2.71487 -78.6489,4.08074 -43.2565,1.36587 -89.0572,4.08531 -101.7764,6.0446 l -23.1253,3.56281 -68.8777,-44.8254 C 2744.4272,283.86478 2593.6688,219.66325 2379.1347,156.422 2262.2863,121.97719 2026.7752,74.273465 1973.7254,74.304873 c -5.5519,9.83e-4 21.9592,11.303958 61.1352,25.11227 174.9324,61.657967 323.2536,135.343557 440.0233,218.604287 52.0642,37.12339 157.3005,119.78436 161.1132,126.55016 0.8924,1.58406 -29.8267,8.50102 -68.2633,15.37146 -317.3418,56.72586 -615.2561,142.11617 -814.8227,233.55002 -105.7566,48.4535 -207.476,111.81034 -235.7913,146.86559 l -9.1036,11.27109 14.1202,-5.95435 c 114.7975,-48.4167 155.361,-61.03332 219.1855,-68.17198 21.375,-2.39065 50.4609,-3.80214 64.6351,-3.1351 l 25.7725,1.21441 -59.2226,45.85933 c -279.2796,216.26954 -506.3558,466.36114 -619.3949,682.17484 -49.1208,93.7828 -87.6285,206.6513 -81.7531,239.6221 1.6741,9.3956 5.8241,6.2708 34.0095,-25.6047 59.9068,-67.749 97.2226,-96.5496 166.7462,-128.6985 40.2743,-18.6233 100.6502,-40.8963 104.3683,-38.5022 1.5166,0.9764 -7.8679,28.2462 -20.8524,60.601 -115.2899,287.2686 -165.2141,654.0962 -115.932,851.8319 17.6973,71.0055 55.8023,141.6753 90.6696,168.1561 l 12.58,9.5543 0.199,-46.4105 c 0.3794,-89.899 17.9812,-157.8402 53.1127,-205.0418 17.4625,-23.4621 68.5743,-67.7184 81.2844,-70.3811 4.2231,-0.8846 8.0198,9.2855 10.5946,28.3789 5.8809,43.6044 31.7269,136.8329 54.5053,196.6056 13.4509,35.2965 28.6939,69.3222 46.6663,103.4528 h 2591.7802 c -103.3561,-56.1722 -226.0351,-120.9784 -377.354,-199.5995 -535.0033,-277.9732 -711.6214,-384.7973 -839.5553,-507.7878 -137.1088,-131.8103 -134.1824,-241.0336 8.9697,-334.6858 17.7129,-11.5877 32.1719,-22.3959 32.1305,-24.0176 -0.062,-1.6213 -15.2131,-8.9679 -33.716,-16.3248 -42.7684,-17.0044 -117.0591,-63.9201 -148.2653,-93.6315 -78.3626,-74.6094 -115.9266,-164.4799 -97.3919,-233.0066 6.5925,-24.3716 25.7183,-55.5334 34.0843,-55.5334 2.0322,0 2.2626,13.4414 0.516,29.8698 -3.9065,36.697 3.4112,86.5024 16.4109,111.7006 5.3508,10.3735 22.8229,31.7756 38.8272,47.5604 16.0044,15.7849 34.6094,35.6513 41.3424,44.1485 22.0857,27.8732 156.7772,108.7386 239.7207,143.9208 124.846,52.9552 204.3925,58.8157 349.5547,25.7537 120.936,-27.5446 167.3041,-35.7634 227.58,-40.3405 204.4539,-15.5245 502.4598,66.0993 796.9503,218.2865 128.9726,66.6505 182.4908,91.2423 244.2115,112.2146 69.0018,23.4457 119.1706,32.439 216.4102,38.7965 360.2564,23.5528 350.2269,23.1662 392.9908,15.1968 49.5148,-9.2272 109.1335,-29.4143 161.06,-54.5347 l 45.191,-21.8615 -29.5424,-0.8868 c -253.5981,-7.6096 -439.7847,-54.8419 -655.7679,-166.355 -34.279,-17.6987 -118.4182,-64.5072 -186.9762,-104.0197 -279.332,-160.9903 -365.7751,-198.8024 -629.1918,-275.2209 -52.2352,-15.1537 -121.3356,-36.0961 -153.5577,-46.538 l -58.5844,-18.9853 25.938,-14.3455 c 41.0192,-22.6863 91.4754,-43.1512 128.4154,-52.0863 97.6589,-23.6217 240.9958,-8.1737 475.2363,51.2193 179.4308,45.4953 280.8168,86.5057 416.1063,168.3149 117.2635,70.9093 165.2724,90.7695 292.3608,120.9392 82.2312,19.5213 104.2907,29.1259 124.1433,54.0502 12.7306,15.9832 14.8793,52.8601 5.511,94.5948 -3.0492,13.5842 -4.8507,25.1442 -4.0042,25.6892 3.5778,2.3035 68.4359,-27.9039 94.8609,-44.182 29.4583,-18.1461 52.929,-43.1435 59.8331,-63.7244 l 3.9117,-11.6595 105.1463,8.8698 c 170.785,14.4092 177.6647,17.7921 170.78,83.9651 -4.8133,46.264 0.084,49.4751 35.3331,23.1602 28.9925,-21.6449 43.8902,-41.0377 48.433,-63.0455 2.5118,-12.1708 9.4433,-22.3896 21.0021,-30.9665 15.2688,-11.3294 17.0719,-15.2856 15.6801,-34.396 -1.433,-19.6747 0.3256,-23.1868 19.8026,-39.5047 33.5284,-28.0942 43.4535,-48.9974 43.2096,-91.0085 -0.1739,-30.0355 -3.5072,-43.0104 -19.2925,-75.1211 -20.5249,-41.7536 -22.4787,-51.2299 -12.9345,-62.712 12.3609,-14.8707 59.7463,-3.6603 80.5989,19.0677 16.2005,17.6574 22.1879,14.4178 18.2899,-9.8998 -5.0799,-31.6907 -34.012,-66.3977 -80.591,-96.6782 -75.213,-48.895 -117.9152,-54.0029 -206.1426,-24.6591 -51.4827,17.1226 -56.0198,17.9243 -90.2363,15.9266 -45.6616,-2.6658 -89.3561,-15.814 -134.665,-40.5209 -115.1186,-62.7743 -137.3251,-69.456 -197.3837,-59.3945 -18.7608,3.1427 -40.26,8.3034 -47.7751,11.4692 -12.7427,5.3685 -16.3425,4.7964 -53.4221,-8.4891 -63.9881,-22.9263 -125.2668,-50.0837 -178.0361,-78.8995 C 4914.4766,982.99579 4784.7408,890.65023 4768.6051,868.76104 4753.9344,848.85788 4666.161,769.60203 4575.4562,694.3563 l -65.2103,-54.09536 1.8751,-26.12265 c 3.6692,-51.14224 -46.3086,-117.49787 -141.3361,-187.64949 -32.4168,-23.93063 -87.2564,-53.11115 -120.8009,-64.27958 -19.8616,-6.61271 -18.6065,-4.33001 10.8605,19.73668 50.3495,41.12222 61.6972,67.16533 50.4578,115.80681 l -7.392,31.99657 -20.8327,-24.21961 c -57.56,-66.92098 -207.1447,-154.83094 -333.7288,-196.13071 l -31.2697,-10.20186 26.3831,22.26557 c 81.6074,68.86904 121.0992,118.53003 113.5585,142.80447 l -3.3916,10.91598 -39.3846,-9.83498 C 3871.007,429.33436 3757.1941,411.01066 3628.6155,403.1011 3513.1947,396.00081 3518.9851,397.27313 3470.6283,368.40496 3265.4712,245.93053 3019.1223,150.86409 2756.0573,92.65455 2692.1659,78.516643 2555.3906,52.925595 2544.4017,52.951649 Z M 4031.8622,755.51652 c 27.5421,-0.0233 54.6228,4.09909 80.7978,12.34426 24.2919,7.65221 48.76,21.64801 99.0897,56.68506 36.757,25.58837 91.47,62.44546 121.5847,81.90329 30.1148,19.45787 51.3763,35.37692 47.2494,35.37692 -4.1275,0 -34.1074,-5.3464 -66.6244,-11.88121 -65.5408,-13.17073 -86.9434,-19.40177 -110.9686,-32.30854 -26.172,-14.06062 -74.0846,-23.46551 -159.8604,-31.37858 -93.8353,-8.65684 -132.127,-19.44366 -163.52,-46.06728 -10.7261,-9.09638 -19.5032,-18.04229 -19.5032,-19.87794 0,-5.38594 74.9086,-30.80047 114.7147,-38.9201 19.1354,-3.90324 38.1957,-5.85991 57.0403,-5.87588 z m 1274.761,412.41018 c 21.5688,-0.2211 44.4225,7.7756 71.8084,24.1 35.1984,20.9807 93.5376,70.3123 78.0443,65.9942 -4.7014,-1.3105 -25.9106,-7.078 -47.131,-12.819 -45.2376,-12.2382 -121.6047,-16.438 -172.1115,-9.4642 -17.2909,2.3876 -32.2059,3.8454 -33.1448,3.2411 -4.1335,-2.6611 29.7548,-40.3183 46.2112,-51.3508 19.2613,-12.9129 37.292,-19.5064 56.3234,-19.7013 z"
                 style="fill:#000000;stroke-width:4.76286" /></g></g></g></g></g></g></svg>
