<?xml version="1.0" encoding="UTF-8" standalone="no"?>
<!-- Created with Inkscape (http://www.inkscape.org/) -->

<svg
   width="1000mm"
   height="700mm"
   viewBox="0 0 1000 700"
   version="1.1"
   id="svg5"
   xml:space="preserve"
   inkscape:version="1.2.2 (b0a8486541, 2022-12-01)"
   sodipodi:docname="andrax-android-hacking.svg"
   xmlns:inkscape="http://www.inkscape.org/namespaces/inkscape"
   xmlns:sodipodi="http://sodipodi.sourceforge.net/DTD/sodipodi-0.dtd"
   xmlns:xlink="http://www.w3.org/1999/xlink"
   xmlns="http://www.w3.org/2000/svg"
   xmlns:svg="http://www.w3.org/2000/svg"><sodipodi:namedview
     id="namedview7"
     pagecolor="#505050"
     bordercolor="#ffffff"
     borderopacity="1"
     inkscape:showpageshadow="0"
     inkscape:pageopacity="0"
     inkscape:pagecheckerboard="1"
     inkscape:deskcolor="#505050"
     inkscape:document-units="mm"
     showgrid="false"
     inkscape:zoom="0.16441126"
     inkscape:cx="1891.5979"
     inkscape:cy="1328.9844"
     inkscape:window-width="1366"
     inkscape:window-height="691"
     inkscape:window-x="0"
     inkscape:window-y="24"
     inkscape:window-maximized="1"
     inkscape:current-layer="layer1"
     showguides="true"><sodipodi:guide
       position="499.88826,394.66209"
       orientation="1,0"
       id="guide582"
       inkscape:locked="false" /><sodipodi:guide
       position="375.51723,349.51726"
       orientation="0,-1"
       id="guide3201"
       inkscape:locked="false" /><sodipodi:guide
       position="118.34482,689.75865"
       orientation="0,-1"
       id="guide3412"
       inkscape:locked="false" /><sodipodi:guide
       position="376.57093,9.6199633"
       orientation="0,-1"
       id="guide3436"
       inkscape:locked="false" /><sodipodi:guide
       position="16.092775,487.57539"
       orientation="1,0"
       id="guide3438"
       inkscape:locked="false" /><sodipodi:guide
       position="976.85728,468.5457"
       orientation="1,0"
       id="guide3440"
       inkscape:locked="false" /><sodipodi:guide
       position="256.03447,629.4483"
       orientation="0,-1"
       id="guide577"
       inkscape:locked="false" /></sodipodi:namedview><defs
     id="defs2"><rect
       x="841.08073"
       y="898.16121"
       width="2754.4122"
       height="746.09922"
       id="rect1451" /><rect
       x="2939.5777"
       y="1961.4543"
       width="500.65429"
       height="151.21918"
       id="rect1405" /><rect
       x="3471.8746"
       y="266.99081"
       width="224.05957"
       height="186.51829"
       id="rect581" /><rect
       x="344.64524"
       y="1673.9676"
       width="1935.4048"
       height="224.38053"
       id="rect523" /><rect
       x="1779.2063"
       y="1238.8798"
       width="228.24973"
       height="201.17725"
       id="rect512" /><linearGradient
       id="linearGradient8120"><stop
         style="stop-color:#ff0000;stop-opacity:1;"
         offset="0"
         id="stop8116" /><stop
         style="stop-color:#ff0000;stop-opacity:0;"
         offset="1"
         id="stop8118" /></linearGradient><linearGradient
       xlink:href="#linearGradient8120"
       id="linearGradient8122"
       x1="416.65988"
       y1="552.31458"
       x2="421.72205"
       y2="-225.3533"
       gradientUnits="userSpaceOnUse"
       gradientTransform="matrix(0.59312171,0,0,0.58624652,8.3716843,11.24208)" /><rect
       x="1779.2063"
       y="1238.8798"
       width="228.24973"
       height="201.17725"
       id="rect512-3" /><rect
       x="344.64523"
       y="1673.9677"
       width="1935.4048"
       height="224.38052"
       id="rect523-6" /><rect
       x="3471.8745"
       y="266.99081"
       width="224.05957"
       height="186.5183"
       id="rect581-7" /><rect
       x="2939.5776"
       y="1961.4543"
       width="500.6543"
       height="151.21918"
       id="rect1405-5" /><rect
       x="841.08075"
       y="898.16119"
       width="2754.4121"
       height="746.09924"
       id="rect1451-3" /></defs><g
     inkscape:label="Layer 1"
     inkscape:groupmode="layer"
     id="layer1"><path
       id="path897-3"
       style="fill:#ffffff;stroke-width:3.81469"
       d="m 384.16992,4.5703125 c -8.37382,0.2632014 -15.87008,6.8259595 -17.8164,14.8789065 -1.4104,5.976073 0.13603,12.27111 2.90282,17.626977 5.25305,9.78659 11.15477,19.200295 17.09327,28.582007 -15.30824,12.100338 -28.07263,27.104666 -39.17996,43.072347 -10.67078,15.43387 -19.83125,32.01494 -26.17979,49.70118 -3.79734,11.00088 -6.3167,22.41125 -8.04125,33.90823 -0.15056,1.61859 -0.0735,3.26254 0.27795,4.85145 -1.01107,0 -2.02213,0 -3.0332,0 3.2e-4,1.5039 0.003,3.00781 0.004,4.51171 -5.91524,-4.68499 -12.7181,-8.31602 -20.04187,-10.21469 -14.07691,-3.92501 -29.75407,-2.50492 -42.57024,4.67093 -9.62523,5.50593 -16.76518,15.01289 -19.68863,25.67935 -3.27266,10.37169 -4.17347,21.27826 -5.03891,32.06153 -1.12789,16.60585 -1.2221,33.26011 -1.43268,49.89734 -0.21868,27.21543 -0.12104,54.43659 0.57183,81.6449 0.46819,14.29514 1.30074,28.64043 4.00498,42.70996 1.90721,8.83527 5.25608,17.60651 11.23059,24.51615 6.09922,7.01386 14.80398,11.54264 23.93939,13.02227 9.00439,1.83259 18.31276,2.33456 27.44214,1.20904 7.34379,-1.04687 14.49719,-4.04218 20.01963,-9.05872 0.7868,-0.67061 1.53897,-1.38093 2.28252,-2.09899 0.30326,18.97794 0.51967,37.96723 1.6186,56.91944 1.25181,10.37563 7.4745,19.87204 16.13009,25.62815 8.91623,6.24908 19.65788,9.30354 30.34631,10.71913 7.16326,0.94914 14.40125,1.11873 21.61984,1.13953 0.0579,25.91248 -0.25197,51.84547 1.0586,77.73415 0.78817,12.722 2.37225,25.53217 6.55166,37.63009 3.30627,9.00248 9.16706,17.3064 17.39313,22.42017 7.76911,4.82715 16.99906,6.70521 26.04072,7.03844 10.09748,0.46306 20.48882,-0.86693 29.64879,-5.33537 11.30684,-5.63925 19.61763,-16.54521 22.80637,-28.6839 3.64474,-12.45517 4.2564,-25.5128 4.90404,-38.39723 0.93401,-21.70853 0.47968,-43.44161 0.62784,-65.16221 0.005,-2.41406 0.009,-4.82813 0.0138,-7.24219 8.12175,0 16.24349,0 24.36524,0 0,37.33984 0,74.67969 0,112.01953 8.53975,8.22322 15.87776,17.77642 25.55952,24.75115 12.63482,8.72666 29.44736,10.77937 43.92491,5.80974 7.63134,-2.46953 15.01617,-6.19748 20.76975,-11.87934 4.75854,-4.60135 7.93115,-10.60199 9.98217,-16.84169 2.32474,-7.07732 3.20353,-14.51627 3.99307,-21.89182 1.12319,-11.50415 1.31963,-23.07017 1.69106,-34.61633 0.45362,-18.93458 0.69812,-37.87328 1.02873,-56.81022 15.10571,-1.34926 30.33587,-2.54147 45.04568,-6.43505 10.56999,-3.50819 18.79852,-12.86287 21.40971,-23.6298 3.15484,-10.68995 3.60476,-21.90189 4.40857,-32.94848 0.64479,-10.6186 0.86771,-21.25894 1.05011,-31.89488 4.62159,4.58834 10.25605,8.31465 16.60839,9.9671 8.01302,2.25523 16.45474,2.16764 24.6887,1.56628 8.38066,-0.73715 16.78983,-3.28583 23.54946,-8.42447 6.00183,-4.44067 10.77078,-10.26126 15.87193,-15.63455 2.15951,-2.42701 4.29443,-5.14373 4.77671,-8.457 0.72835,-3.99719 0.20097,-8.07307 0.36223,-12.10603 0,-68.07917 0,-136.15833 0,-204.2375 -8.20255,-7.14935 -15.1639,-15.77968 -24.3644,-21.73806 -13.02222,-8.26466 -30.00956,-10.13502 -44.39848,-4.44289 -6.01461,2.23617 -11.58447,5.60376 -16.47931,9.7415 6e-4,-2.39649 0.002,-4.79297 0.002,-7.18946 -0.60504,0.17855 -1.2108,0.35464 -1.8164,0.53126 -3.04555,-13.81334 -5.24493,-27.94072 -10.57227,-41.11915 -9.16979,-23.11296 -22.77447,-44.27672 -38.69281,-63.300491 -8.50585,-10.092546 -17.9163,-19.444882 -28.23883,-27.67802 6.52331,-9.816004 13.43462,-19.506228 18.1052,-30.386688 2.05922,-5.793921 2.09241,-12.56484 -1.01389,-18.001303 -4.60539,-8.2519252 -15.55487,-12.2824043 -24.38428,-8.8502905 -5.573,1.9809019 -9.87097,6.3447445 -13.38775,10.9478755 -6.18818,7.707631 -11.10089,16.334835 -16.55365,24.532593 -7.27257,-1.510244 -14.29289,-3.975869 -21.49003,-5.887385 -11.80334,-3.384885 -23.90302,-5.982187 -36.19673,-6.601521 -30.06468,-2.165681 -60.46443,2.541222 -88.80348,12.654922 -2.07061,0.75184 -4.13095,1.528316 -6.18359,2.328125 -6.08139,-8.37642 -11.07176,-17.505118 -17.59165,-25.568169 -3.5369,-4.404598 -7.54827,-8.5727061 -12.45504,-11.4482994 -3.08834,-1.6225897 -6.58341,-2.4896273 -10.07636,-2.4112661 z" /><ellipse
       style="fill:#ff0000;fill-rule:evenodd;stroke:#0092f0;stroke-width:2.045;stroke-linejoin:bevel;paint-order:markers stroke fill"
       id="path728"
       cx="582.1593"
       cy="137.96851"
       rx="29.300877"
       ry="24.742567" /><ellipse
       style="fill:#ff0000;fill-rule:evenodd;stroke:#0092f0;stroke-width:2.045;stroke-linejoin:bevel;paint-order:markers stroke fill"
       id="path726"
       cx="425.53229"
       cy="137.5331"
       rx="30.382872"
       ry="25.27281" /><g
       id="g581"><path
         id="path897"
         style="fill:#000000;stroke-width:3.81469"
         d="m 384.64665,22.020011 c -0.91507,0.15272 -1.3953,1.219906 -1.3953,3.248976 0,1.64838 5.98799,12.416713 13.30485,23.926252 l 13.30112,20.922879 -8.67072,6.151468 C 371.74217,97.148506 340.12713,144.716 333.3474,178.34093 l -2.5721,12.75897 h 171.07911 171.07905 l -2.60849,-12.75897 C 663.47624,144.82758 632.01764,98.003926 600.84991,74.941066 l -10.34289,-7.650931 13.12261,-19.550594 c 13.71017,-20.427138 15.57748,-25.465173 9.44311,-25.465173 -2.02283,0 -9.11239,8.890698 -15.75303,19.760933 -13.21687,21.634739 -10.43419,21.09512 -49.13526,9.597709 -36.23812,-10.765613 -85.23662,-6.191757 -124.85108,11.658443 -4.78777,2.157533 -9.45286,-2.303301 -19.98272,-19.103367 -9.30486,-14.844648 -15.95867,-22.627354 -18.704,-22.168075 z m 34.28578,98.476099 c 4.98713,0.0865 9.78716,2.41199 12.37216,7.52816 4.96203,9.82172 4.90119,10.34462 -1.98915,17.64328 -10.48156,11.10338 -27.53135,5.20162 -27.53135,-9.53188 0,-9.71183 8.83646,-15.78388 17.14834,-15.63956 z m 157.26425,0.90759 c 12.67009,0.66943 19.93435,15.37035 10.16073,25.72395 -2.44619,2.59126 -7.11408,4.71333 -10.37568,4.71333 -16.15522,0 -20.90998,-25.71622 -5.51213,-29.81027 1.99675,-0.53113 3.91709,-0.72288 5.72708,-0.62701 z m 150.38592,85.0069 c -8.86834,0.32919 -17.73061,4.30828 -24.87185,11.87327 l -10.8347,11.47425 v 98.16039 98.15598 l 9.59603,12.07936 c 8.07148,10.16084 12.21627,12.07927 26.11052,12.07927 12.5952,0 18.67797,-2.28844 25.61505,-9.63716 l 9.09695,-9.63708 V 328.51039 226.06199 l -9.80372,-9.62843 C 744.32645,209.39987 735.451,206.08123 726.5826,206.4106 Z m -453.2708,0.34617 c -5.9498,0.12727 -11.75656,1.52891 -16.63103,4.29241 -15.42223,8.7435 -17.97537,25.42106 -17.97537,117.46979 0,91.06179 2.52133,108.19337 17.25762,117.26809 3.75833,2.31416 13.7739,4.26815 22.25611,4.32754 12.80326,0.0992 17.08123,-1.97299 25.19239,-12.18456 l 9.77094,-12.29852 -1.10022,-99.94496 -1.10387,-99.94045 -10.39754,-9.47053 c -7.04092,-6.41168 -17.35329,-9.73135 -27.26903,-9.51881 z m 54.34864,7.90089 0.0493,144.28984 c 0.0282,79.35848 1.07385,148.33714 2.32437,153.28244 3.28802,13.00265 19.91067,20.45369 45.62329,20.45369 h 22.42359 v 55.09574 c 0,58.01909 3.92633,77.52073 17.25764,85.73037 8.76434,5.39685 29.35348,5.61448 38.54097,0.40302 15.00425,-8.50643 18.32872,-23.75299 18.32872,-84.10363 V 532.6833 h 29.64803 29.65171 v 61.15955 61.15957 l 10.8347,11.47423 c 11.68345,12.37674 26.32724,14.83828 42.32624,7.11607 14.77914,-7.13346 17.20129,-17.80498 18.18298,-80.05242 l 0.92905,-58.89275 25.94294,-2.22286 c 14.2688,-1.22111 28.6375,-3.52432 31.92862,-5.12119 13.2814,-6.4441 14.40141,-19.46338 14.40141,-167.55837 V 214.65732 H 501.85638 Z" /><path
         style="fill:#ffffff;stroke-width:0.273983"
         d="m 577.45443,481.05351 c 3.0541,-0.52912 5.18691,-2.31447 6.27352,-5.25147 0.7817,-2.11291 0.68563,-7.7988 -0.19444,-11.50748 -3.04983,-12.85224 -12.16886,-24.93656 -30.15523,-39.96102 -8.64927,-7.22495 -18.75498,-14.52498 -38.98304,-28.15999 -27.01994,-18.21319 -35.93991,-25.21244 -42.40112,-33.27093 -6.92458,-8.63644 -6.77672,-15.79295 0.45306,-21.92917 0.89458,-0.75927 1.62479,-1.4674 1.62271,-1.57366 -0.002,-0.10624 -0.76839,-0.58755 -1.70286,-1.06958 -2.15995,-1.11417 -5.91194,-4.18817 -7.48799,-6.1349 -3.95766,-4.88851 -5.85479,-10.77688 -4.91873,-15.26684 0.33294,-1.59689 1.29884,-3.63867 1.72137,-3.63867 0.1027,0 0.1144,0.88072 0.0261,1.95715 -0.1973,2.40443 0.17216,5.66774 0.82874,7.31876 0.27026,0.67968 1.15272,2.08196 1.96101,3.11621 0.8083,1.03425 1.74786,2.33595 2.08789,2.89269 1.11543,1.8263 7.91799,7.12462 12.10702,9.42979 6.30524,3.46971 10.32265,3.85372 17.65396,1.68745 6.10779,-1.80474 8.44953,-2.34326 11.49373,-2.64314 10.32581,-1.0172 25.37645,4.331 40.24949,14.3025 6.51365,4.36704 9.21651,5.97828 12.33368,7.35239 3.48488,1.53622 6.01864,2.12553 10.92968,2.54207 18.19447,1.54323 17.68794,1.51782 19.84769,0.99566 2.50069,-0.60459 5.51165,-1.92723 8.13418,-3.57316 l 2.28236,-1.43245 -1.49206,-0.0581 c -12.8078,-0.49858 -22.21092,-3.59324 -33.11903,-10.89978 -1.73123,-1.15962 -5.98065,-4.22664 -9.44313,-6.81557 -14.10744,-10.5483 -18.47319,-13.02579 -31.77686,-18.03285 -2.6381,-0.99289 -6.12797,-2.36504 -7.75532,-3.04921 l -2.95877,-1.24398 1.30997,-0.93992 c 2.07167,-1.48643 4.61994,-2.82735 6.48556,-3.4128 4.93218,-1.54771 12.17133,-0.5355 24.00146,3.35599 9.06205,2.98094 14.18245,5.66801 21.01513,11.02827 5.92234,4.64608 8.34697,5.94731 14.76546,7.92407 4.15304,1.27906 5.26711,1.90833 6.26975,3.54138 0.64296,1.04724 0.75148,3.4636 0.27834,6.19812 -0.15403,0.89003 -0.24502,1.64746 -0.20226,1.68316 0.18065,0.15095 3.45632,-1.82835 4.79092,-2.8949 1.48776,-1.18898 2.67315,-2.82683 3.02183,-4.17533 l 0.19753,-0.76397 5.31042,0.58127 c 8.62537,0.9441 8.97276,1.16569 8.62507,5.50143 -0.2431,3.0313 0.004,3.2417 1.78445,1.51753 1.46427,-1.41824 2.21669,-2.6889 2.44612,-4.13088 0.12685,-0.79745 0.47689,-1.46701 1.06071,-2.02899 0.77113,-0.7423 0.86219,-1.00148 0.79191,-2.25364 -0.0723,-1.28909 0.017,-1.51917 1.00007,-2.58836 1.69334,-1.84075 2.19458,-3.21039 2.18228,-5.96302 -0.009,-1.96798 -0.17707,-2.81807 -0.97431,-4.92202 -1.0366,-2.73574 -1.13533,-3.35667 -0.65332,-4.10898 0.62431,-0.97435 3.01751,-0.23986 4.07065,1.2493 0.81819,1.15695 1.12052,0.94464 0.92365,-0.64868 -0.25658,-2.07644 -1.71773,-4.35047 -4.07013,-6.33447 -3.79859,-3.20368 -5.95521,-3.53838 -10.41108,-1.61572 -2.60008,1.12191 -2.82927,1.17438 -4.55733,1.04349 -2.30611,-0.17467 -4.51285,-1.0361 -6.80113,-2.65494 -5.81399,-4.11306 -6.93556,-4.55091 -9.9688,-3.89167 -0.94749,0.20593 -2.03324,0.54414 -2.41276,0.75157 -0.64358,0.35174 -0.82536,0.31427 -2.69803,-0.55621 -3.23172,-1.50218 -6.32664,-3.28155 -8.9917,-5.16959 -3.17018,-2.24588 -9.72233,-8.29659 -10.53724,-9.7308 -0.74096,-1.30408 -5.17393,-6.49697 -9.75492,-11.42719 l -3.29333,-3.54438 0.0948,-1.71164 c 0.18537,-3.35093 -2.33877,-7.69858 -7.13807,-12.29501 -1.63719,-1.56797 -4.40688,-3.48001 -6.10103,-4.21178 -1.00307,-0.43327 -0.9396,-0.28366 0.54861,1.29321 2.54288,2.69438 3.11597,4.40081 2.5483,7.58786 l -0.37339,2.09643 -1.05208,-1.58689 c -2.90706,-4.38476 -10.46169,-10.14472 -16.85474,-12.85073 l -1.5793,-0.66847 1.33252,1.45889 c 4.12142,4.51239 6.11584,7.76622 5.73502,9.35671 l -0.17121,0.71521 -1.98917,-0.64434 c -7.2846,-2.35967 -13.03259,-3.56028 -19.52638,-4.07854 -5.82925,-0.46522 -5.53677,-0.38189 -7.97902,-2.27337 -10.36128,-8.02471 -22.80302,-14.25352 -36.08891,-18.0675 -3.33089,-0.9562 -10.58399,-2.71213 -10.72304,-2.59598 -0.0597,0.0499 1.14812,0.67965 2.68412,1.39946 9.99412,4.68354 18.77962,10.70054 23.75611,16.27002 1.87266,2.0958 3.76862,4.52385 3.76862,4.82626 0,0.0576 -1.78745,0.1778 -3.9721,0.2673 -2.18467,0.0895 -4.49769,0.26774 -5.14007,0.3961 l -1.16793,0.23338 -3.47868,-2.937 c -6.31442,-5.3312 -13.9283,-9.53781 -24.7632,-13.68145 -5.9013,-2.25687 -17.79563,-5.38251 -20.47487,-5.38047 -0.28042,2.3e-4 1.10898,0.74064 3.08753,1.64538 8.83483,4.03993 16.32568,8.86796 22.22305,14.32333 2.62947,2.43239 7.94433,7.84839 8.13686,8.29171 0.0451,0.10378 -1.5063,0.557 -3.44749,1.00718 -16.02712,3.71676 -31.07309,9.31165 -41.15204,15.30252 -5.34119,3.17475 -10.47841,7.32599 -11.90847,9.62285 l -0.45982,0.73853 0.71312,-0.39018 c 5.79779,-3.17232 7.84645,-3.99896 11.06983,-4.46669 1.07956,-0.15665 2.54854,-0.24905 3.2644,-0.20534 l 1.30158,0.0795 -2.99097,3.00484 c -14.10482,14.1703 -25.57312,30.55671 -31.28206,44.69714 -2.48083,6.14474 -4.42569,13.53999 -4.12896,15.70027 0.0846,0.61563 0.29418,0.41089 1.71767,-1.67765 3.02555,-4.43899 4.91011,-6.32605 8.42133,-8.43247 2.03403,-1.22024 5.08331,-2.67963 5.2711,-2.52276 0.0767,0.0639 -0.39733,1.85081 -1.05312,3.97074 -5.82265,18.82224 -8.34403,42.85737 -5.85503,55.81329 0.89377,4.65237 2.81822,9.28272 4.57915,11.01778 l 0.63534,0.62601 0.009,-3.04092 c 0.0192,-5.89029 0.90817,-10.34194 2.68243,-13.43464 0.88193,-1.53727 3.46333,-4.43696 4.10524,-4.61141 0.2133,-0.0579 0.40503,0.60835 0.53507,1.85937 0.297,2.85704 1.6023,8.96548 2.75269,12.88185 2.73482,9.3103 6.93522,17.2721 15.69976,29.75854 6.79573,9.68155 7.35842,11.01434 7.34724,17.40307 -0.007,4.37037 -0.48384,7.40233 -1.93994,12.35177 -1.7067,5.80119 -3.98122,11.18097 -6.67208,15.781 -0.85804,1.4668 -1.61697,2.77734 -1.68649,2.91227 -0.0695,0.13492 0.67086,-0.47602 1.6453,-1.35766 0.9744,-0.88163 3.25558,-2.72278 5.06926,-4.09141 20.8938,-15.76697 45.43861,-20.98241 75.54502,-16.05227 13.88789,2.27424 27.66023,6.1595 50.06358,14.12329 18.11751,6.44026 27.16862,8.62039 32.18256,7.7517 z m 18.03092,-163.66163 c -2.28469,-0.80188 -6.14152,-1.077 -8.69233,-0.62006 -0.87325,0.15645 -1.62655,0.25204 -1.67395,0.21244 -0.20876,-0.17437 1.50272,-2.64184 2.33382,-3.3647 2.07525,-1.80495 3.86774,-1.72512 6.47123,0.28825 1.77764,1.3747 4.72398,4.60702 3.94152,4.32408 -0.23745,-0.0859 -1.30857,-0.46386 -2.38029,-0.84001 z m -55.32168,-20.656 c -3.31007,-0.86299 -4.39095,-1.27128 -5.60432,-2.11696 -1.32179,-0.92127 -3.74167,-1.53748 -8.07371,-2.05595 -4.73907,-0.5672 -6.67293,-1.27402 -8.25842,-3.01842 -0.54171,-0.59602 -0.98495,-1.18209 -0.98495,-1.30237 0,-0.3529 3.78315,-2.01815 5.79355,-2.55016 2.37885,-0.62953 4.73495,-0.4861 6.96139,0.42377 1.22686,0.50138 2.46253,1.41847 5.00442,3.71414 1.8564,1.6766 4.61967,4.09148 6.14058,5.36639 1.52092,1.27491 2.59477,2.31802 2.38634,2.31802 -0.20844,0 -1.72263,-0.35031 -3.36488,-0.77846 z"
         id="path844"
         inkscape:connector-curvature="0" /></g></g></svg>
