<?xml version="1.0" encoding="UTF-8" standalone="no"?>
<!-- Created with Inkscape (http://www.inkscape.org/) -->

<svg
   version="1.1"
   id="svg64"
   width="512"
   height="512"
   viewBox="0 0 512 512"
   sodipodi:docname="4glte.svg"
   inkscape:version="1.2.2 (b0a8486541, 2022-12-01)"
   xmlns:inkscape="http://www.inkscape.org/namespaces/inkscape"
   xmlns:sodipodi="http://sodipodi.sourceforge.net/DTD/sodipodi-0.dtd"
   xmlns="http://www.w3.org/2000/svg"
   xmlns:svg="http://www.w3.org/2000/svg"
   xmlns:rdf="http://www.w3.org/1999/02/22-rdf-syntax-ns#"
   xmlns:cc="http://creativecommons.org/ns#"
   xmlns:dc="http://purl.org/dc/elements/1.1/">
  <sodipodi:namedview
     id="namedview13208"
     pagecolor="#505050"
     bordercolor="#eeeeee"
     borderopacity="1"
     inkscape:pageshadow="0"
     inkscape:pageopacity="0"
     inkscape:pagecheckerboard="0"
     showgrid="false"
     inkscape:zoom="0.65186406"
     inkscape:cx="171.04793"
     inkscape:cy="254.65432"
     inkscape:window-width="1366"
     inkscape:window-height="705"
     inkscape:window-x="0"
     inkscape:window-y="26"
     inkscape:window-maximized="1"
     inkscape:current-layer="svg64"
     inkscape:showpageshadow="0"
     inkscape:deskcolor="#505050" />
  <metadata
     id="metadata70">
    <rdf:RDF>
      <cc:Work
         rdf:about="">
        <dc:format>image/svg+xml</dc:format>
        <dc:type
           rdf:resource="http://purl.org/dc/dcmitype/StillImage" />
      </cc:Work>
    </rdf:RDF>
  </metadata>
  <defs
     id="defs68" />
  <rect
     style="fill:#000000;stroke:#ffffff;stroke-width:15.2748;stroke-dasharray:none;stroke-opacity:1"
     id="rect295"
     width="484.72522"
     height="484.72522"
     x="13.63739"
     y="13.63739"
     ry="40.00341" />
  <g
     id="g1651"
     transform="translate(-0.38297107,1.7388864)">
    <path
       id="path5107"
       style="fill:#00ff01;fill-opacity:1;stroke-width:2.00547"
       d="m 254.15234,57.041016 c -21.4484,0.263157 -42.90731,3.996802 -62.99606,11.583494 -21.85728,8.193841 -41.94062,20.858519 -59.1997,36.53289 -6.46572,6.11548 -12.45827,12.71243 -18.29172,19.42754 -2.83618,3.37739 -5.77352,6.70074 -8.18129,10.40579 -0.70342,1.05066 -1.31545,2.54751 -0.41279,3.66949 1.45742,1.75565 3.38403,3.04943 5.1648,4.45401 3.8635,2.84813 7.80165,5.64977 12.09254,7.82327 1.04188,0.52934 2.39579,0.90081 3.39104,0.0801 2.06622,-1.62571 3.68873,-3.73557 5.40735,-5.709 2.99366,-3.64043 5.8273,-7.41645 9.04613,-10.86778 9.07744,-9.93743 19.69647,-18.54775 30.96798,-25.75726 4.83917,-3.09824 9.93862,-5.99234 15.00196,-8.55664 8.63855,-4.357874 17.64466,-8.00229 26.92578,-10.746091 2.02433,-0.592754 4.24804,-1.198458 6.36991,-1.720838 1.61558,-0.390951 3.23686,-0.75807 4.86446,-1.095568 0.62471,-0.130637 1.57086,-0.299546 2.32032,-0.421875 8.31431,-1.252271 16.72823,-1.680777 25.12376,-1.956195 5.10108,-0.14652 10.20648,-0.16752 15.30788,-0.02427 1.7597,0.0571 3.74181,0.144772 5.49336,0.274603 2.56716,0.15694 5.34604,0.535975 7.9812,0.969355 20.34261,3.288605 40.04324,10.480052 57.76293,20.992429 6.03678,3.6334 11.90597,7.58443 17.31908,12.10328 6.8761,5.87291 13.28761,12.27709 19.39944,18.93643 2.83466,3.10383 5.55098,6.32176 7.9732,9.75937 1.23313,1.53033 2.40578,3.2011 4.06298,4.30047 1.32678,0.83581 2.81343,-0.0952 3.99622,-0.76417 4.79141,-2.85089 9.35043,-6.08384 13.78112,-9.46435 1.14141,-1.0005 2.56578,-1.83461 3.22656,-3.25586 0.44939,-1.57834 -0.76858,-2.95666 -1.55859,-4.19922 -3.8609,-5.27746 -8.21775,-10.16944 -12.56996,-15.04166 -5.407,-5.93456 -10.87473,-11.85832 -17.05595,-17.00436 C 360.53366,87.807174 342.03907,76.231524 321.92114,68.577013 302.60622,61.153294 281.94816,57.4509 261.28379,57.062773 c -2.37687,-0.04899 -4.75429,-0.05016 -7.13145,-0.02176 z" />
    <path
       style="fill:#ffffff;fill-opacity:1;stroke-width:2.00547"
       d="m 183.76851,335.57286 v -10.19527 l -14.46647,-0.74947 c -7.95655,-0.41222 -22.50812,-0.75159 -32.3368,-0.75416 l -17.87035,-0.005 V 308.7262 293.58311 l 24.64226,-40.75664 24.64228,-40.75663 h 28.11779 28.11779 v 38.61114 38.61115 h 7.94238 7.94237 v 17.86487 17.86486 h -7.94237 -7.94238 v 10.37314 10.37315 h -20.42325 -20.42325 z m -0.0595,-67.31516 c -0.0695,-24.53865 1.71487,-24.8652 -14.96853,2.73951 l -11.05687,18.29492 h 13.04246 13.04245 z"
       id="path1948" />
    <path
       style="fill:#ffffff;fill-opacity:1;stroke-width:2.00547"
       d="m 311.7393,345.7937 c -29.81878,-7.69677 -49.45386,-29.42694 -52.95927,-58.61015 -2.59323,-21.58906 4.30401,-41.40288 19.68681,-56.55468 13.0719,-12.8756 28.06309,-19.0713 49.39905,-20.41611 23.70239,-1.49397 44.19998,7.4521 57.14005,24.93848 2.89538,3.91262 5.26432,7.53516 5.26432,8.05008 0,0.94834 -22.52683,13.33999 -29.10786,16.01176 -3.48918,1.41654 -3.70226,1.31623 -8.50968,-4.0062 -8.60114,-9.52253 -19.97774,-12.28596 -32.78704,-7.96409 -7.90349,2.66663 -16.012,10.88877 -18.62783,18.88887 -2.70117,8.26108 -2.0074,22.89668 1.40354,29.60875 2.96047,5.82565 9.27318,11.57782 16.08985,14.66115 11.02661,4.98757 35.23102,1.11792 35.23102,-5.63252 0,-2.79349 -0.0229,-2.79861 -12.48088,-2.79861 h -12.48087 v -17.86486 -17.86486 h 32.33681 32.33682 v 27.58961 27.58962 l -6.1416,5.50044 c -8.70445,7.79573 -19.02059,13.82684 -29.57517,17.29051 -12.66128,4.15499 -33.48945,4.86828 -46.21807,1.58281 z"
       id="path1987" />
    <path
       id="path2026"
       style="fill:#ff0500;fill-opacity:1;stroke-width:2.00547"
       d="m 160.21094,368.82031 c 0,27.5599 0,55.11979 0,82.67969 19.10872,0 38.21745,0 57.32617,0 0,-7.09635 0,-14.19271 0,-21.28906 -10.96745,0 -21.9349,0 -32.90234,0 0,-21.13021 0,-42.26042 0,-63.39063 -8.14128,0 -16.28256,0 -24.42383,0 0,0.66667 0,1.33334 0,2 z" />
    <path
       id="path3138"
       style="fill:#ff0500;fill-opacity:1;stroke-width:2.00547"
       d="m 210.13477,368.82031 c 0,6.38216 0,12.76433 0,19.14649 7.39446,0.22247 14.78901,0.44183 22.18359,0.66015 0.63356,20.95548 1.38638,41.90901 1.67578,62.87305 7.75195,0 15.50391,0 23.25586,0 0,-21.13086 0,-42.26172 0,-63.39258 7.5638,0 15.1276,0 22.69141,0 0,-7.0957 0,-14.1914 0,-21.28711 -23.26888,0 -46.53776,0 -69.80664,0 0,0.66667 0,1.33334 0,2 z" />
    <path
       id="path3177"
       style="fill:#ff0500;fill-opacity:1;stroke-width:2.00547"
       d="m 289.55859,368.82031 c 0,27.5599 0,55.11979 0,82.67969 21,0 42,0 63,0 0,-7.06771 0,-14.13542 0,-21.20312 -13.07813,-0.21029 -26.15623,-0.42267 -39.23437,-0.63282 -0.1632,-3.47852 -0.3266,-6.95704 -0.49024,-10.43554 12.86329,0 25.72657,0 38.58985,0 0,-7.09636 0,-14.19271 0,-21.28907 -12.85938,0 -25.71875,0 -38.57813,0 0,-3.27734 0,-6.55468 0,-9.83203 13.23763,0 26.47526,0 39.71289,0 0,-7.0957 0,-14.1914 0,-21.28711 -21,0 -42,0 -63,0 0,0.66667 0,1.33334 0,2 z" />
    <path
       id="path3216"
       style="fill:#ff0500;fill-opacity:1;stroke-width:2.00547"
       d="m 254.11133,148.37695 c -6.68387,0.1277 -13.42397,0.46827 -19.95117,2.01172 -6.3993,1.78108 -12.51495,4.44787 -18.49005,7.32231 -5.68386,2.82703 -11.39194,5.80519 -16.22089,9.98043 -1.3936,1.18049 -2.3564,3.06988 -1.83399,4.91015 0.73289,2.54005 2.67287,4.46892 4.29741,6.47124 3.03591,3.43805 5.99467,6.95916 9.27486,10.16939 0.4323,0.35899 1.01184,0.68297 1.52997,0.77638 2.01296,-0.76645 3.72457,-2.12493 5.54911,-3.24176 4.06266,-2.80947 8.38022,-5.27149 12.98687,-7.07459 1.88141,-0.75167 3.85011,-1.42607 5.70396,-1.9675 5.37946,-1.581 10.95595,-2.47087 16.55626,-2.70738 0.40478,-0.014 1.09633,-0.0404 1.55619,-0.0444 1.46243,-0.0341 2.92556,-0.005 4.38717,0.0483 0.6496,0.0333 1.60268,0.0844 2.36524,0.14453 0.99629,0.077 2.26047,0.20244 3.35625,0.34102 9.69939,1.21174 19.18156,4.54124 27.27926,10.05833 2.22188,1.41384 4.40031,2.91419 6.73363,4.13971 0.56349,0.18685 1.13527,0.45763 1.63058,-0.0281 1.24424,-0.73118 2.09763,-1.96714 3.11624,-2.96793 4.64126,-5.08992 9.10986,-10.33331 13.65357,-15.50988 -3.08153,-2.52291 -5.94483,-5.34665 -9.36527,-7.4234 -6.67422,-4.12361 -13.7925,-7.4976 -21.06705,-10.41679 -4.43423,-1.76564 -9.01344,-3.24581 -13.762,-3.86255 -6.38043,-0.92044 -12.8451,-1.18371 -19.28615,-1.12929 z" />
    <path
       id="path3255"
       style="fill:#ffe000;fill-opacity:1;stroke-width:2.00547"
       d="m 253.34766,102.45117 c -19.50315,0.32811 -38.93237,4.90725 -56.47693,13.4465 -14.06336,6.80652 -26.86873,16.1079 -37.93371,27.1214 -3.84937,3.74243 -7.69966,7.4839 -11.54835,11.22702 5.86665,5.01213 11.68585,10.09279 17.83447,14.75973 0.82433,0.60556 1.74048,1.31097 2.76827,1.36863 1.68377,-0.76364 2.88443,-2.24154 4.27699,-3.41145 5.15182,-4.74568 10.04182,-9.79442 15.59262,-14.08902 11.63202,-9.20513 25.12467,-16.07379 39.4671,-19.89156 0.69652,-0.17932 1.69058,-0.44547 2.50883,-0.63591 4.94228,-1.20783 10.1462,-2.07464 15.09469,-2.59651 1.69748,-0.16933 3.31008,-0.30203 5.0556,-0.4067 1.72032,-0.0971 3.33908,-0.15557 5.10074,-0.18109 6.8064,-0.0913 13.61931,0.45043 20.32804,1.60146 0.9786,0.17568 2.22412,0.40635 3.30078,0.62305 18.52877,3.76109 36.0015,12.4476 50.2667,24.84455 4.53708,3.95541 8.74596,8.26674 13.11793,12.40037 0.86035,0.82825 1.72104,1.65615 2.58216,2.48359 5.64306,-4.53961 11.45491,-8.87886 16.88163,-13.68025 0.7691,-0.76683 1.80527,-1.47416 2.086,-2.5587 0.21569,-1.53179 -1.08762,-2.65238 -1.95584,-3.73963 -4.31123,-4.77094 -8.92034,-9.27009 -13.68069,-13.59081 -12.7777,-11.4788 -27.61836,-20.73664 -43.76962,-26.65112 -15.72319,-5.79231 -32.52098,-8.52088 -49.25951,-8.46095 -0.54597,0.006 -1.09194,0.0116 -1.6379,0.0174 z" />
  </g>
</svg>
