<?xml version="1.0" encoding="UTF-8" standalone="no"?>
<!-- Created with Inkscape (http://www.inkscape.org/) -->

<svg
   width="512mm"
   height="512mm"
   viewBox="0 0 512 512"
   version="1.1"
   id="svg148"
   inkscape:version="1.2.2 (b0a8486541, 2022-12-01)"
   sodipodi:docname="adalanche.svg"
   xmlns:inkscape="http://www.inkscape.org/namespaces/inkscape"
   xmlns:sodipodi="http://sodipodi.sourceforge.net/DTD/sodipodi-0.dtd"
   xmlns="http://www.w3.org/2000/svg"
   xmlns:svg="http://www.w3.org/2000/svg">
  <sodipodi:namedview
     id="namedview150"
     pagecolor="#000000"
     bordercolor="#000000"
     borderopacity="1"
     inkscape:pageshadow="2"
     inkscape:pageopacity="0"
     inkscape:pagecheckerboard="true"
     inkscape:document-units="mm"
     showgrid="false"
     inkscape:zoom="0.20021921"
     inkscape:cx="849.0694"
     inkscape:cy="869.0475"
     inkscape:window-width="1366"
     inkscape:window-height="705"
     inkscape:window-x="0"
     inkscape:window-y="0"
     inkscape:window-maximized="1"
     inkscape:current-layer="layer1"
     inkscape:showpageshadow="0"
     inkscape:deskcolor="#2d2d2d" />
  <defs
     id="defs145" />
  <g
     inkscape:label="Layer 1"
     inkscape:groupmode="layer"
     id="layer1">
    <path
       id="path1363-2"
       style="color:#000000;fill:#ffffff;stroke:none;stroke-width:4.58581;-inkscape-stroke:none"
       d="m 255.8603,11 c -33.72258,0 -61.46141,27.768946 -61.46141,61.53961 0,17.283926 7.27014,32.99435 18.88556,44.21606 L 82.461737,378.75083 C 79.200728,378.20688 75.857351,377.92082 72.451841,377.92082 38.729398,377.92082 11,405.68985 11,439.46051 11,473.23111 38.729398,501 72.451841,501 c 33.722559,0 61.461439,-27.76889 61.461439,-61.53949 0,-4.07749 -0.40862,-8.06673 -1.17936,-11.93087 L 310.65303,310.42881 c 10.87218,9.6824 25.15067,15.59479 40.70747,15.59479 3.32968,0 6.60013,-0.27391 9.79204,-0.79444 l 35.28448,70.54172 c -11.29987,11.18415 -18.34316,26.6734 -18.34316,43.68963 0,33.7706 27.72933,61.53949 61.45182,61.53949 C 473.26821,501 501,473.23111 501,439.46051 c 0,-33.77066 -27.73179,-61.53969 -61.45432,-61.53969 -3.60175,0 -7.13255,0.31801 -10.57115,0.92492 l -35.0737,-70.11488 c 11.63265,-11.22384 18.91159,-26.94637 18.91159,-44.2469 0,-33.77067 -27.72944,-61.53962 -61.45192,-61.53962 -3.27602,0 -6.49509,0.26416 -9.63812,0.76834 L 298.40059,116.78882 C 310.03338,105.565 317.31213,89.840246 317.31213,72.539611 317.31213,38.768947 289.5828,11 255.8603,11 Z m 0,36.712705 c 13.90981,0 24.79387,10.897175 24.79387,24.826905 0,13.929729 -10.88406,24.82928 -24.79387,24.82928 -13.90984,0 -24.80096,-10.899551 -24.80096,-24.82928 0,-13.92973 10.89112,-24.826905 24.80096,-24.826905 z m -9.8394,85.564965 c 3.20703,0.52563 6.49327,0.80392 9.8394,0.80392 3.32803,0 6.59686,-0.27656 9.7873,-0.79681 l 43.28388,86.8432 c -11.69807,11.23089 -19.02281,26.99981 -19.02281,44.35598 0,4.99295 0.61025,9.85311 1.75233,14.51341 L 115.30238,395.06656 Z m 105.3396,106.37937 c 13.90985,0 24.79152,10.8972 24.79152,24.82692 0,13.92972 -10.88167,24.82693 -24.79152,24.82693 -13.90986,0 -24.79147,-10.89721 -24.79147,-24.82693 0,-13.92972 10.88161,-24.82692 24.79147,-24.82692 z M 72.451841,414.63353 c 13.909875,0 24.800977,10.89721 24.800977,24.82698 0,13.92967 -10.891102,24.82688 -24.800977,24.82688 -13.909807,0 -24.791491,-10.89721 -24.791491,-24.82688 0,-13.92977 10.881684,-24.82698 24.791491,-24.82698 z m 367.093839,0 c 13.9099,0 24.79387,10.89721 24.79387,24.82698 0,13.92967 -10.88397,24.82688 -24.79387,24.82688 -13.90981,0 -24.79147,-10.89721 -24.79147,-24.82688 0,-13.92977 10.88166,-24.82698 24.79147,-24.82698 z" />
  </g>
</svg>
