<?xml version="1.0" encoding="UTF-8" standalone="no"?>
<svg
   width="512"
   height="512"
   viewBox="0 0 512 512"
   version="1.1"
   xml:space="preserve"
   style="clip-rule:evenodd;fill-rule:evenodd;stroke-linecap:round;stroke-linejoin:round;stroke-miterlimit:1.5"
   id="svg961"
   sodipodi:docname="afl.svg"
   inkscape:version="1.1.2 (0a00cf5339, 2022-02-04)"
   xmlns:inkscape="http://www.inkscape.org/namespaces/inkscape"
   xmlns:sodipodi="http://sodipodi.sourceforge.net/DTD/sodipodi-0.dtd"
   xmlns="http://www.w3.org/2000/svg"
   xmlns:svg="http://www.w3.org/2000/svg"><defs
   id="defs965">
        
    
            
            
            
            
            
            
            
            
            
            
            
            
            
            
        </defs><sodipodi:namedview
   id="namedview963"
   pagecolor="#505050"
   bordercolor="#eeeeee"
   borderopacity="1"
   inkscape:pageshadow="0"
   inkscape:pageopacity="0"
   inkscape:pagecheckerboard="0"
   showgrid="false"
   inkscape:zoom="0.63449255"
   inkscape:cx="252.95805"
   inkscape:cy="325.45693"
   inkscape:window-width="1366"
   inkscape:window-height="695"
   inkscape:window-x="0"
   inkscape:window-y="24"
   inkscape:window-maximized="1"
   inkscape:current-layer="svg961" />
    
<g
   id="g7191"
   transform="matrix(0.96636473,0,0,0.9570341,8.6106289,10.999271)"><g
     id="g1426"
     transform="matrix(0.35500872,0,0,0.35455667,-66.795903,-10.386769)"><g
       transform="matrix(-0.993191,-0.01551443,0.0155439,-0.99507962,909.2619,751.32353)"
       id="g920">
                <circle
   cx="0"
   cy="0"
   r="687.995"
   style="fill:#561741;stroke:#ffc000;stroke-width:39.81px"
   id="circle918" />
            </g><g
       id="ear_front"
       transform="matrix(1,0,0,1.0000035,-1065.2692,-346.46971)">
                <path
   d="m 2294.78,980.99 c 2.83,-20.348 -2.43,-42.697 -7,-62.177 -2.05,-8.779 -3.9,-17.661 -7.01,-26.124 -2.54,-6.9 -9.76,-11.511 -11.98,-18.518 -0.68,-2.164 4.95,-2.935 4.46,-5.151 -0.8,-3.619 -10.74,-21.325 -12.01,-24.044 -7.46,-15.953 -4.75,-16.87 -11.85,-32.914 -5.67,-12.822 -20.06,-23.238 -18.01,-38.983 0.51,-3.912 11.2,-1.87 11.84,-1.681 5.33,1.581 15.17,13.302 17.28,15.931 17.22,21.447 28.23,38.627 40.87,61.858 2.8,5.155 6.78,9.718 8.89,15.193 2.24,5.827 2.51,12.236 4.01,18.298 1.86,7.524 3.84,15.018 5.74,22.53 1.27,4.996 3.74,9.748 4.19,14.882 0.5,5.683 -1.7,11.365 -1.37,17.06 0.05,0.847 5.12,3.834 5.28,4.434 4.75,17.938 3.58,39.368 2.68,57.688 -0.09,1.758 -3.02,26.178 -3.95,29.218 -1.79,5.9 -6.57,7.46 -7.3,13.93 -0.6,5.32 3.36,14.77 3.54,19.84 0.21,6.09 -0.89,12.16 -1.14,18.25 -0.26,6.24 1.72,8.93 -2.25,13.25 -5.68,6.18 -23.67,3.5 -29.35,-1.68 -3.54,-3.23 -5.89,-10.32 -7.32,-14.52 -2.36,-6.92 -6.16,-18.36 -6.38,-25.72 -0.36,-11.77 3.2,-11.17 3.96,-22.77 0.29,-4.52 -2.73,-6.84 -1.99,-11.42 2.14,-13.31 14.34,-23.495 16.17,-36.66 z"
   style="fill:#ffc000"
   id="path931" />
            </g><g
       id="main_body"
       transform="matrix(1,0,0,1.0000035,127.7319,8.5316098)">
                <path
   d="m 1072.63,615.462 c 0.81,0.089 0.32,2.342 0.22,3.471 -0.02,0.274 -0.02,0.542 -0.03,0.804 -0.64,11.886 -6.02,10.356 -9.84,25.996 -3.55,14.528 -2.67,40.716 1.38,56.664 1.03,4.063 1.78,10.436 3.52,14.248 3.43,7.51 6.92,15.008 9.86,22.727 5.16,13.592 5.07,29.922 5.34,44.008 0.2,9.814 0.51,19.643 0.03,29.447 -1.29,26.633 -24.74,50.423 -41.98,68.273 -15.45,15.992 -34.1,30.15 -57.803,28.072 -5.612,-0.492 -11.076,-2.315 -16.339,-4.324 -24.571,-9.38 -27.136,-43.656 -15.432,-63.955 4.329,-7.508 9.723,-14.376 15.186,-21.103 2.155,-2.653 4.77,-4.957 7.571,-6.916 4.588,-3.209 12.891,0.371 17.487,0 9.34,-0.753 21.71,-11.895 27.28,-16.684 6.79,-5.842 17.14,-19.262 8.3,-28.097 -4.01,-4.011 -13.02,7.286 -14.17,8.295 -14.827,13.078 -22.356,20.228 -42.38,17.847 -18.6,-2.211 -33.124,-13.804 -44.642,-27.882 -4.787,-5.851 -8.184,-15.743 -17.409,-15.485 -10.29,0.287 -6.113,13.143 -3.552,18.353 5.912,12.024 18.56,20.455 28.627,28.583 3.678,2.969 11.952,7.46 9.888,13.956 -7.795,24.529 -20.496,46.072 -35.48,66.823 -12.025,16.653 -25.166,33.843 -41.833,46.235 -19.085,14.189 -46.032,22.893 -69.31,15.198 -15.122,-4.999 -28.542,-15.251 -40.343,-25.679 -10.216,-9.028 -19.982,-18.557 -30.216,-27.565 -4.622,-4.069 -19.807,-10.116 -18.602,1.819 1.27,12.572 11.71,21.856 19.828,30.357 15.381,16.109 20.039,21.347 38.761,33.594 11.815,7.73 28.487,9.374 41.855,10.146 22.356,1.29 37.646,-1.517 56.195,-13.75 16.826,-11.097 31.818,-25.065 45.079,-40.184 4.128,-4.707 6.682,-13.393 12.938,-13.612 5.171,-0.181 5.263,7.038 7.487,9.452 8.851,9.611 15.789,13.833 27.877,17.922 14.005,4.737 20.199,5.288 35.277,5.668 6.107,0.154 12.215,-0.339 18.325,-0.405 0.95,-0.011 6.99,-0.409 8.88,0.956 19.67,14.249 2.06,48.552 2.47,72.845 0.42,25.51 -0.06,44.44 2.48,70.76 2.9,30.03 42.26,47.54 33.02,78.81 -0.95,3.21 -1.8,6.53 -3.46,9.44 -1.98,3.49 -6.4,6.06 -9.96,7.46 -14.02,5.49 -22.56,8.34 -37.42,10.63 -22.098,3.4 -48.259,2.37 -67.403,-10.68 -7.807,-5.33 -13.298,-14.35 -19.763,-20.98 -11.253,-11.54 -25.321,-18.42 -38.995,-26.68 -8.847,-5.34 -12.058,-6.72 -18.518,-14.81 -2.407,-3.01 -3.913,-10.27 -9.039,-10.8 -4.885,-0.51 -3.148,11.82 -3.098,12.29 0.952,9.06 2.105,17.04 9.962,22.53 16.462,11.49 46.15,17.91 53.647,39.01 0.779,2.19 -0.228,7.18 -1.283,9.12 -6.61,12.18 -17.503,19.83 -29.933,25.71 -19.303,9.12 -41.137,5.91 -61.594,7.41 -10.643,0.78 -21.151,2.94 -31.788,3.81 -29.664,2.4 -60.784,4.23 -90.603,1.11 -17.157,-1.8 -32.739,-9.67 -48.71,-15.47 -12.329,-4.47 -24.888,-8.31 -37.164,-12.93 -6.902,-2.6 -36.467,-7.06 -41.155,-22.15 -3.418,-10.99 5.68,-23.84 8.458,-33.14 5.244,-17.55 9.878,-35.29 14.023,-53.13 2.196,-9.46 1.585,-19.79 2.392,-29.35 h 84.756 v -43.05 h -80.874 c 4.443,-60.825 2.929,-122.256 -8.519,-182.284 -7.647,-40.092 -22.878,-77.045 -32.472,-116.482 -10.04,-41.275 -10.781,-86.352 -5.232,-128.329 1.688,-12.761 5.774,-19.985 7.311,-32.779 0.673,-5.597 -9.165,-7.197 -12.146,-3.907 -8.804,9.716 -11.324,25.324 -13.509,37.437 -5.282,29.281 -5.011,58.731 -2.357,88.354 4.645,51.855 17.518,102.08 26.041,153.29 6.463,38.826 8.844,75.447 9.887,114.532 0.624,23.378 2.351,46.891 -0.989,70.168 H 420.22 v 43.05 h 139.916 c -5.436,21.24 -15.143,51.49 -22.478,72.2 -8.026,22.66 -14.793,44.03 -26.451,64.74 -8.944,15.88 -21.216,39.31 -38.504,48.32 -12.789,6.67 -28.421,6.36 -42.23,7.73 -10.927,1.08 -22.62,3.84 -33.421,-0.02 -13.741,-4.91 -24.998,-15.61 -35.48,-25.17 -15.952,-14.56 -36.117,-30.9 -45.455,-51.42 -6.91,-15.19 -0.071,-31.15 -1.028,-46.79 -1.417,-23.15 -6.542,-22.48 -6.342,-45.56 0.023,-2.64 0.027,-10.31 -0.013,-10.72 -0.924,-9.31 -0.509,-18.72 -0.398,-28.07 0.221,-18.75 5.005,-17.7 7.716,-36.026 2.028,-13.705 -0.032,-27.719 0.619,-41.558 1.547,-32.832 6.382,-65.449 8.11,-98.272 1.342,-25.488 -0.088,-25.346 1.742,-50.773 h 187.239 v -46.578 h -184.16 c 0.236,-4.628 -2.343,-10.925 -1.146,-15.644 0.768,-3.031 8.74,-17.691 9.682,-20.631 2.287,-7.14 4.077,-21.102 3.945,-28.519 -0.028,-1.565 -8.294,2.369 -8.119,1.475 3.974,-20.266 8.566,-18.91 11.177,-39.296 1.693,-13.217 0.159,-26.662 0.94,-39.964 1.483,-25.221 11.19,-46.828 17.85,-71.075 3.382,-12.317 3.327,-29.015 11.163,-40.133 6.012,-8.53 13.185,-16.186 19.469,-24.517 1.339,-1.775 -3.64,-2.677 -4.936,-4.482 -1.266,-1.763 -3.113,-8.414 -2.055,-10.641 2.619,-5.508 7.288,-9.856 10.023,-15.307 1.161,-2.315 2.05,-13.578 3.59,-15.833 1.928,-2.823 6.13,-3.615 7.899,-6.54 0.396,-0.654 2.462,-17.09 2.73,-17.75 1.166,-2.867 6.843,-5.812 8.313,-8.381 1.373,-2.399 2.129,-10.604 3.818,-12.92 30.049,-41.182 69.42,-72.924 112.115,-100.136 23.065,-14.7 48.559,-31.615 75.463,-39.242 19.967,-5.661 40.856,-0.097 61.164,-2.089 7.466,-0.732 11.443,-6.921 18.518,-8.519 18.375,-4.15 35.981,-1.864 54.445,1.428 12.372,2.207 16.559,4.509 27.692,10.211 2.774,1.42 6.602,4.632 9.966,4.89 0.585,0.045 -0.304,-1.178 -0.693,-1.618 -0.932,-1.056 -2.146,-1.825 -3.185,-2.776 -2.335,-2.138 -4.934,-4.036 -6.935,-6.489 -1.044,-1.279 -1.511,-5.272 0.109,-4.952 11.081,2.183 20.214,12.574 28.807,18.511 8.949,6.184 16.589,4.673 26.935,7.745 5.314,1.578 10.024,4.889 15.374,6.343 1.087,0.295 -1.199,-1.936 -2.014,-2.712 -5.27,-5.015 -12.655,-5.842 -17.808,-10.722 -0.397,-0.376 0.912,-0.699 1.455,-0.762 24.383,-2.797 44.13,20.118 62.477,31.793 8.584,5.463 31.385,15.763 39.772,21.612 h -152.76 v 41.002 h 200.152 c 21.905,24.156 31.346,57.215 43.366,86.484 9.25,22.524 10.38,29.059 19.71,51.546 3.18,7.661 9.05,14.21 12.79,21.636 -0.13,0.218 -0.29,0.605 -0.61,0.55 -3.73,-0.646 -5.55,-1.553 -8.41,-0.185 -20.12,9.616 -25.28,110.091 18.48,112.026 8.14,0.36 8.2,-9.738 11.37,-11.371 0.34,-0.177 0.51,-0.215 0.94,-0.167 z m -285.128,2.316 c -3.95,7.013 -9.319,13.678 -15.969,18.343 -23.804,16.697 -49.029,-0.665 -59.591,-23.483 -12.385,-26.759 -11.141,-62.355 5.76,-86.983 13.565,-19.767 38.223,-27.354 57.713,-10.24 7.764,6.818 13.416,16.324 17.007,25.877 -0.276,0.154 2.109,9.024 -0.078,8.947 -6.593,-0.232 -8.567,-4.387 -15.609,-3.771 -7.105,0.623 -12.978,10.328 -15.521,15.792 -5.783,12.425 -5.663,33.115 4.545,43.494 3.752,3.816 4.51,4.18 9.357,3.866 4.833,-0.313 12.05,-3.12 15.647,1.625 -0.727,1.652 -3.261,6.533 -3.261,6.533 z"
   style="fill:#ffc000"
   id="path952" />
            </g><g
       id="whiisker_lower"
       transform="matrix(1,0,0,1.0000035,-1065.2692,-346.46971)">
                <path
   d="m 2270.47,1188.59 c 3.97,-0.09 14.66,7.04 16.87,8.69 10.56,7.87 20.97,15.96 31.18,24.28 23.62,19.24 42.76,48.42 52.5,77.07 1.62,4.77 9.78,34.94 10.19,36.62 1.11,4.58 5.24,17.89 2.76,13.88 -4.99,-8.1 -2.78,-6.37 -5.22,-10.17 -0.26,-0.41 -0.36,-1.02 -0.73,-1.82 -3.08,-6.71 -5.93,-13.52 -8.86,-20.3 -7.79,-18 -14.91,-32.43 -27.49,-47.75 -20.88,-25.43 -42.88,-47.69 -69.77,-66.56 -2.06,-1.45 -4.7,-2.54 -5.87,-4.78 -1.4,-2.66 0.68,-9.08 4.44,-9.16 z"
   style="fill:#ffc000"
   id="path922" />
            </g><g
       id="foot_front"
       transform="matrix(1,0,0,1.0000035,-1065.2692,-346.46971)">
                <path
   d="m 2238.97,1267.5 c 4.74,-7.55 10.42,-14.47 15.94,-21.46 5.45,-6.92 10.86,-13.91 16.95,-20.27 1.71,-1.78 5.76,-1.22 7.5,-0.16 5.46,3.34 9.22,7.66 14.38,11.44 2.83,2.07 8.27,7.49 9.35,11.22 1.3,4.46 0.61,12.63 1.03,16.87 0.73,7.25 1.71,14.53 3.49,21.6 3.86,15.32 9.17,30.25 13.42,45.47 3.84,13.71 7.2,28.48 12.77,41.64 1.32,3.12 4.44,5.28 5.66,8.45 0.12,0.31 -2.81,4.91 -2.58,5.34 1.88,3.59 5.35,6.12 7.61,9.49 4.19,6.25 6.39,13.66 10.35,20.06 2.86,4.64 9.54,11.1 11.48,16.39 3.32,9.03 -1.37,15.82 4.17,24.83 1.36,2.22 4.14,3.38 5.39,5.66 1,1.81 0.42,4.16 1.1,6.11 0.77,2.26 2.59,4.09 3.2,6.4 1.06,3.99 0.31,8.27 0.89,12.37 1.05,7.27 4,12.23 0.52,18.38 -2.37,4.19 -9.46,8.58 -12.43,10.43 -18.45,11.47 -41.17,8.81 -62.05,7.09 -4.4,-0.36 -8.66,-1.76 -12.93,-2.89 -4,-1.06 -16.95,-5.02 -20.66,-7.64 -1.24,-0.88 -1.02,-6.09 -1.43,-7.04 -1.25,-2.88 -3.83,-5.13 -4.72,-8.14 -2.53,-8.54 -2.87,-17.58 -4.55,-26.33 -0.56,-2.92 -1.55,-12.65 -2.55,-15.23 -2.59,-6.7 -10.73,-11.75 -13.86,-18.34 -1.25,-2.64 -0.85,-5.85 -2.04,-8.52 -2.75,-6.19 -5.94,-4.64 -6.48,-11.36 -0.97,-12.02 -0.53,-24.11 -0.38,-36.17 0.42,-35.32 1.73,-70.63 2.1,-105.95 0.03,-2.36 -2.22,-7.22 -0.64,-9.74 z"
   style="fill:#ffc000"
   id="path925" />
            </g><g
       id="body"
       transform="matrix(1,0,0,1.0000035,-1065.2692,-346.46971)">
                <path
   d="m 1573.26,793.46 c -3.49,12.412 -6.49,11.034 -10.53,23.383 -9.32,28.461 -6.08,29.179 -14.78,57.916 -0.59,1.94 -14.34,35.554 -14.95,37.484 -9.69,30.649 -11.17,63.396 -18.47,94.537 -3,12.79 -8.24,24.96 -11.51,37.68 -4.22,16.44 -4.2,29.81 -7.57,46.39 -6.46,31.88 -16.89,64.08 -19.15,96.81 -1.12,16.14 -0.63,32.36 -1.82,48.49 -1.39,18.99 -6.78,37.62 -5.85,56.8 0.72,14.67 2.47,29.26 3.3,43.92 0.51,8.88 -0.11,17.82 0.72,26.69 0.38,4.13 1.92,8.08 2.89,12.12 0.42,1.76 1.72,4.44 0.1,6.24 -2.09,2.32 -7.83,-3.93 -8.17,-4.23 -3.29,-2.78 -6.59,-5.54 -9.86,-8.34 -5.88,-5.04 -11.19,-10.81 -17.58,-15.18 -1.99,-1.35 -4.85,-0.62 -7.03,-1.62 -12.53,-5.72 -24.58,-12.45 -36.97,-18.48 -1.09,-0.53 -5.56,-2.01 -6.79,-0.94 -5.47,4.77 7.95,9.16 8.92,9.78 18.98,12.18 23.15,16.64 39.9,35.1 14.51,16 23.8,35.68 31.48,55.64 3.04,7.88 5.06,17.39 0.29,25.11 -2.2,3.56 -8.98,11.49 -13.66,14.89 -0.56,0.41 -1.7,0.18 -2.06,-0.42 -14.91,-25.12 -29.12,-50.65 -43.38,-76.15 -23.55,-42.12 -44.6,-85.7 -58.2,-132.12 -24.22,-82.7 -27.45,-169.87 -19.75,-255.24 1.26,-13.95 3.02,-27.88 5.63,-41.642 3.62,-19.098 9.09,-28.13 15.42,-46.3 2.98,-8.585 4.06,-20.419 11.66,-26.9 11.55,-9.852 37.39,-31.823 52.93,-34.751 1.19,-0.224 2.4,0.245 2.54,1.662 0.12,1.228 -1.48,4.168 -0.35,3.686 6.83,-2.898 7.58,-11.624 13.48,-15.562 12.56,-8.387 22,-12.544 35.27,-19.676 19.52,-10.495 19.13,-11.319 40.45,-17.24 1.81,-0.503 9.15,0.296 9.75,-3.878 0.16,-1.116 -2.18,-7.553 0.23,-7.902 1.06,-0.155 12.2,1.257 13.28,0.961 7.98,-2.189 15.28,-6.966 22.84,-10.266 1.79,-0.784 20.57,-9.897 17.35,1.548 z"
   style="fill:#ffc000"
   id="path928" />
            </g><g
       id="glitch_top"
       transform="matrix(1,0,0,1.0000035,-1065.2692,-346.46971)">
                <rect
   x="2062.1499"
   y="557.02002"
   width="93.717003"
   height="40.681999"
   style="fill:#ffc000"
   id="rect934" />
            </g><g
       id="glitch_mid_air"
       transform="matrix(1,0,0,1.0000035,-1065.2692,-346.46971)">
                <rect
   x="2350.98"
   y="759.87097"
   width="94.857002"
   height="40.316002"
   style="fill:#ffc000"
   id="rect937" />
            </g><g
       id="glitch_right_ring"
       transform="matrix(1,0,0,1.0000035,-1065.2692,-346.46971)">
                <rect
   x="2465.55"
   y="1328.66"
   width="138.737"
   height="39.931"
   style="fill:#ffc000"
   id="rect940" />
            </g><g
       id="whisker_mid"
       transform="matrix(1,0,0,1.0000035,-1065.2692,-346.46971)">
                <path
   d="m 2276.64,1159.46 c 14.84,-5.32 33,0.66 47.02,4.37 40.36,10.69 94.55,27.19 109.6,71.88 2.81,8.38 4.5,17.09 6.95,25.58 1.18,4.07 2.89,8.82 2.02,12.97 -0.42,2.01 -4.25,-7.77 -5.7,-11.77 -2.66,-7.35 -5.63,-14.63 -9.35,-21.5 -8.21,-15.21 -22.03,-28.13 -36.18,-37.71 -25.69,-17.39 -58.22,-25.48 -88.03,-31.56 -8.63,-1.76 -17.69,-1.36 -26.16,-3.75 -2.67,-0.76 -2.99,-7.49 -0.17,-8.51 z"
   style="fill:#ffc000"
   id="path943" />
            </g><g
       id="whisker_upper"
       transform="matrix(1,0,0,1.0000035,-1065.2692,-346.46971)">
                <path
   d="m 2274.85,1112.64 c 14.79,-1.37 29.71,-0.46 44.55,-0.15 26.51,0.53 66.23,-1.18 93.01,9.29 9.7,3.79 18.78,9.03 27.9,14.06 6.47,3.57 13.33,6.78 18.82,11.73 2.63,2.36 -6.64,-2.46 -9.93,-3.73 -19.49,-7.52 -19.1,-8.3 -39.47,-12.62 -34.94,-7.39 -70.26,-6.68 -105.72,-7.12 -9.54,-0.12 -19.11,-0.01 -28.62,-0.85 -3.54,-0.32 -4.41,-10.25 -0.54,-10.61 z"
   style="fill:#ffc000"
   id="path946" />
            </g><g
       id="glitch_mid_rabbit"
       transform="matrix(1,0,0,1.0000035,127.7319,8.5316098)">
                <path
   d="m 1060.91,355.103 0.17,-0.001 c 0,0 5.36,7.137 7.71,10.922 3.55,5.709 10.34,17.597 13.58,23.332 1.67,2.957 7.23,8.054 7.03,10.161 v 1.626 h -16.52 l -0.01,0.001 c -3.97,0.057 -7.94,0.075 -11.9,0.073 -4.54,-0.002 -9.07,-0.03 -13.6,-0.073 l -0.04,-0.001 h -52.487 v -1.758 h 4.878 L 938.995,374.721 H 772.816 v -19.942 h 288.094 z"
   style="fill:#ffc000"
   id="path949" />
            </g><g
       id="pupil_front"
       transform="matrix(1.0801,0.35073998,-0.279294,0.86008525,215.3319,-274.05922)">
                <path
   d="m 1049.36,592.49 c -7.41,-5.82 -14.53,-35.95 -12.48,-46.34 0.53,-2.723 3.14,-4.618 5.02,-4.155 6.56,1.614 13.65,20.16 17.22,34.627 3.31,13.467 1.04,24.362 -9.76,15.868 z"
   style="fill:#ffc000"
   id="path955" />
            </g></g><path
     style="fill:#561741;fill-opacity:1;stroke-width:0.488601"
     d="m 243.59525,220.21758 c -0.79379,-0.13415 -2.1325,-0.54872 -2.97491,-0.92127 -11.15629,-4.93384 -15.64185,-23.62185 -8.90859,-37.11556 4.2368,-8.49072 12.0359,-12.08091 18.92026,-8.70964 3.22058,1.57711 5.86489,4.48672 8.05736,8.86573 1.07428,2.14567 1.68271,5.30777 1.02127,5.30777 -0.17102,0 -1.14367,-0.31344 -2.16145,-0.69653 -1.01778,-0.38309 -2.30573,-0.69589 -2.86212,-0.6951 -2.04381,0.003 -4.29994,2.08449 -5.86933,5.41531 -1.03532,2.19731 -1.41104,4.08148 -1.41104,7.07594 0,4.04062 0.94675,6.75973 3.10579,8.91998 l 1.21268,1.21336 3.06472,-0.17502 c 2.5637,-0.14641 3.1692,-0.10167 3.70379,0.27369 l 0.63907,0.44871 -1.01607,1.85629 c -3.50984,6.41228 -9.10012,9.85248 -14.52143,8.93634 z"
     id="path7044" /></g></svg>
