<?xml version="1.0" encoding="UTF-8" standalone="no"?>
<!-- Created with Inkscape (http://www.inkscape.org/) -->

<svg
   version="1.1"
   id="svg870"
   width="512"
   height="512"
   viewBox="0 0 512 512"
   sodipodi:docname="amass.svg"
   inkscape:version="1.1.2 (0a00cf5339, 2022-02-04)"
   xmlns:inkscape="http://www.inkscape.org/namespaces/inkscape"
   xmlns:sodipodi="http://sodipodi.sourceforge.net/DTD/sodipodi-0.dtd"
   xmlns="http://www.w3.org/2000/svg"
   xmlns:svg="http://www.w3.org/2000/svg">
  <defs
     id="defs874" />
  <sodipodi:namedview
     id="namedview872"
     pagecolor="#505050"
     bordercolor="#eeeeee"
     borderopacity="1"
     inkscape:pageshadow="0"
     inkscape:pageopacity="0"
     inkscape:pagecheckerboard="0"
     showgrid="false"
     inkscape:zoom="0.8117387"
     inkscape:cx="194.64392"
     inkscape:cy="263.01567"
     inkscape:window-width="1366"
     inkscape:window-height="695"
     inkscape:window-x="0"
     inkscape:window-y="24"
     inkscape:window-maximized="1"
     inkscape:current-layer="g876" />
  <g
     inkscape:groupmode="layer"
     inkscape:label="Image"
     id="g876">
    <g
       id="g996"
       transform="matrix(1.4437756,0,0,1.4811291,-176.43961,-99.435334)">
      <path
         style="fill:#fefefe;stroke-width:0.32"
         d="m 367.19998,395.42886 c -1.40368,-0.6654 -4.32,-3.33462 -4.32,-3.95398 0,-0.21405 -0.22499,-0.61418 -0.5,-0.88918 -0.40579,-0.40576 -0.48118,-1.15722 -0.4,-3.98698 l 0.1,-3.48698 -1.55712,-1.39587 c -0.85645,-0.76774 -2.01894,-1.82787 -2.58333,-2.35587 -0.56441,-0.528 -1.9383,-1.752 -3.05308,-2.72 -1.11479,-0.968 -2.56999,-2.264 -3.23376,-2.88 -0.66378,-0.616 -2.11024,-1.912 -3.2144,-2.88 -1.10416,-0.968 -2.4728,-2.228 -3.04144,-2.8 -1.19098,-1.19802 -1.56676,-1.2784 -2.01968,-0.4321 -0.40388,0.75466 -2.89597,1.6322 -4.63418,1.63184 -2.71465,0 -6.14345,-2.11843 -7.1064,-4.38947 -0.63974,-1.50883 -0.54717,-5.10169 0.17136,-6.65027 0.7224,-1.55683 2.40535,-3.30096 3.43447,-3.55923 0.41667,-0.10458 0.75756,-0.29898 0.75756,-0.43203 0,-0.52055 4.33219,-0.12554 5.76231,0.5254 2.80371,1.27616 4.68934,4.35149 4.41728,7.2042 -0.0641,0.67193 -0.0282,1.22166 0.0798,1.22166 0.10794,0 0.91584,0.684 1.79533,1.52 0.87949,0.836 2.0607,1.90803 2.62493,2.3823 l 1.02589,0.86231 1.38979,-1.50231 c 0.76441,-0.82627 2.72589,-3.0143 4.35888,-4.8623 2.64349,-2.99158 8.59318,-9.49843 10.42957,-11.40624 l 0.68374,-0.71034 -0.76422,-0.71795 c -1.34759,-1.26598 -1.8248,-4.72425 -1.02176,-7.40461 0.44787,-1.49478 2.8016,-3.98896 4.04409,-4.28531 0.46992,-0.11209 1.00461,-0.32083 1.18816,-0.46387 0.4777,-0.37226 3.36634,-0.0321 4.16359,0.49027 0.73824,0.48371 4.75171,8.93392 4.69411,9.8833 -0.0611,1.00681 -2.09015,3.32765 -3.52003,4.02617 -0.86711,0.42362 -1.99424,0.66858 -3.0762,0.66858 -1.65411,0 -1.75523,0.0527 -3.22432,1.68 -1.83497,2.03258 -3.99305,4.40368 -5.93091,6.51632 -1.35225,1.47427 -4.48093,4.94336 -8.26742,9.16707 -0.90893,1.01386 -1.65258,1.96931 -1.65258,2.1232 0,0.15389 0.35351,0.51143 0.7856,0.79453 0.43207,0.2831 1.34669,1.05568 2.03251,1.7168 0.68583,0.66115 2.15492,1.99408 3.26464,2.96208 1.10973,0.968 2.41476,2.15805 2.9001,2.64451 0.79712,0.79907 0.93034,0.83661 1.37856,0.38839 1.96902,-1.96906 7.78144,-2.12432 9.648,-0.25776 0.3001,0.30009 0.61987,0.39913 0.73965,0.22908 0.116,-0.16476 1.65094,-0.86019 3.41094,-1.5454 1.76,-0.68522 3.272,-1.35031 3.36,-1.47799 0.088,-0.12768 1.456,-0.73417 3.04,-1.34781 1.584,-0.6136 3.58544,-1.49305 4.44765,-1.95433 1.71773,-0.91898 2.59517,-1.05408 2.84861,-0.43869 0.0906,0.22 0.53225,1.21907 0.98144,2.22013 l 0.81667,1.82013 -3.00922,1.16598 c -1.65507,0.64128 -3.05331,1.26886 -3.1072,1.39462 -0.0539,0.1258 -1.39395,0.70903 -2.97795,1.29607 -1.584,0.58707 -3.096,1.24 -3.36,1.45101 -0.264,0.21097 -1.16378,0.63584 -1.99949,0.94409 -1.4159,0.52231 -1.5032,0.61872 -1.28,1.41424 0.42995,1.53267 0.22509,4.42563 -0.41542,5.86631 -0.78502,1.7656 -3.04525,3.9606 -5.10419,4.95683 -1.93197,0.93481 -4.45379,0.94246 -6.4009,0.0195 z m 6.08,-5.3838 c 0.528,-0.32685 0.816,-0.59892 0.64,-0.60458 -0.176,-0.006 -0.12361,-0.13469 0.11639,-0.28675 0.26777,-0.16967 0.44579,-0.89811 0.46067,-1.88538 0.0442,-2.93376 -2.04746,-4.65408 -4.9881,-4.1024 -0.57805,0.10845 -1.36592,0.41773 -1.75081,0.68733 -0.74144,0.51933 -1.49092,2.6889 -1.24445,3.60246 0.0807,0.29933 0.23389,0.9361 0.34035,1.41501 0.43462,1.95575 4.08579,2.62295 6.42595,1.17431 z m -32.83021,-25.78813 c 1.47469,-1.10656 1.6194,-1.33143 1.62532,-2.52541 0.005,-1.08307 -1.3882,-3.18669 -2.32231,-3.50557 -0.96752,-0.3303 -2.33126,0.15898 -3.54707,1.27258 -1.63561,1.49821 -1.55341,2.96486 0.27427,4.89296 0.92842,0.97942 2.55885,0.92416 3.96979,-0.13456 z m 35.63021,-17.77136 c 1.58992,-1.24458 1.66202,-2.73923 0.21671,-4.49267 -0.86509,-1.04951 -1.1536,-1.1929 -2.4,-1.1929 -0.7792,0 -1.41671,0.1209 -1.41671,0.26864 0,0.14774 -0.36288,0.43398 -0.80643,0.63606 -1.66083,0.75674 -1.76355,3.16455 -0.20579,4.82506 1.45657,1.55267 2.58608,1.54186 4.61222,-0.0442 z m -240.24246,31.81939 c -0.88136,-0.30477 -2.15152,-0.9729 -2.82258,-1.48474 -1.17834,-0.89878 -2.77495,-3.48192 -2.77495,-4.4896 0,-0.26982 -0.144,-0.49062 -0.32,-0.49062 -0.53685,0 -0.38808,-2.78541 0.16,-2.99571 0.264,-0.10131 0.48135,-0.44074 0.48301,-0.75424 0.002,-0.31354 0.44105,-1.33392 0.97646,-2.26752 1.07652,-1.87725 3.10311,-3.38746 5.2885,-3.94099 l 1.30797,-0.3313 -0.0665,-9.81514 c -0.0366,-5.3983 -0.0852,-10.7014 -0.10797,-11.7847 l -0.0415,-1.9696 -1.52,-0.9104 c -0.836,-0.5007 -1.75594,-1.00781 -2.04431,-1.12688 -0.28837,-0.11907 -1.35342,-1.48707 -2.36677,-3.04 -1.01336,-1.55293 -2.31991,-3.41702 -2.90345,-4.14243 -0.58354,-0.72541 -0.98166,-1.39824 -0.88472,-1.49517 0.25692,-0.25693 -0.5736,-3.74592 -0.89167,-3.74592 -0.14799,0 -0.26908,-0.216 -0.26908,-0.48 0,-0.264 0.144,-0.48 0.32,-0.48 0.176,0 0.32,-0.216 0.32,-0.48 0,-0.264 -0.144,-0.48 -0.32,-0.48 -0.176,0 -0.32,-0.36 -0.32,-0.8 0,-0.44 0.18,-0.8022 0.4,-0.8049 0.27119,-0.003 0.24543,-0.11422 -0.08,-0.34436 -0.36122,-0.25546 -0.38101,-0.37963 -0.08,-0.50177 0.22,-0.0893 0.4,-0.64164 0.4,-1.22749 0,-5.6768 3.76837,-12.58463 8.61705,-15.796 1.99641,-1.32225 4.20193,-2.43628 4.61664,-2.33191 0.15052,0.0379 0.45225,-0.0793 0.67051,-0.26045 0.39473,-0.3276 2.12508,-0.58943 5.08851,-0.76999 l 1.55271,-0.0946 1.19242,-2.21426 c 2.69344,-5.00162 3.69313,-6.77281 4.68143,-8.29427 1.46437,-2.25435 2.94709,-4.78126 4.20755,-7.17068 0.59497,-1.12787 1.36334,-2.4461 1.70748,-2.92939 0.34413,-0.4833 0.6257,-1.0365 0.6257,-1.22933 0,-0.19283 0.144,-0.3506 0.32,-0.3506 0.176,0 0.32,-0.204 0.32,-0.45333 0,-0.24934 0.108,-0.50134 0.24,-0.56 0.132,-0.0587 0.52197,-0.68267 0.86659,-1.38667 0.34462,-0.704 0.86642,-1.64 1.15955,-2.08 0.29313,-0.44 0.936,-1.592 1.4286,-2.56 0.49261,-0.968 1.66281,-2.94044 2.60046,-4.38321 0.93764,-1.44277 1.7048,-2.76277 1.7048,-2.93334 0,-0.17056 0.10928,-0.35812 0.24286,-0.41678 0.13357,-0.0587 0.61583,-0.82667 1.0717,-1.70667 0.96473,-1.86232 1.59199,-2.97349 3.63115,-6.43239 0.81957,-1.39018 1.64268,-2.80426 1.82913,-3.14239 0.18646,-0.33814 0.70166,-1.27414 1.14491,-2.08 0.44324,-0.80587 0.91136,-1.60922 1.04025,-1.78522 0.1289,-0.176 0.59426,-0.968 1.03414,-1.76 0.43988,-0.792 1.53915,-2.63857 2.44282,-4.10349 0.90367,-1.46492 1.64304,-2.79692 1.64304,-2.96 0,-0.16308 0.144,-0.29651 0.32,-0.29651 0.176,0 0.30443,-0.108 0.28539,-0.24 -0.0697,-0.48339 0.43738,-1.68 0.71193,-1.68 0.15547,0 0.28268,-0.204 0.28268,-0.45333 0,-0.24934 0.15986,-0.50662 0.35524,-0.57175 0.21107,-0.0704 -0.0346,-0.69802 -0.60534,-1.54667 -1.0086,-1.49965 -1.66511,-3.40514 -1.66811,-4.84158 -9.6e-4,-0.46934 -0.18179,-0.92637 -0.40179,-1.01564 -0.30102,-0.12214 -0.28122,-0.24631 0.08,-0.50177 0.32542,-0.23014 0.35119,-0.34104 0.08,-0.34436 -0.22,-0.003 -0.4,-0.3649 -0.4,-0.8049 0,-0.44 0.11116,-0.8 0.24702,-0.8 0.13587,0 0.42978,-0.972 0.65314,-2.16 0.70883,-3.77008 4.83652,-8.77742 7.97006,-9.66857 2.11473,-0.6014 5.68834,-0.75436 7.8953,-0.33794 1.55333,0.2931 2.69994,0.7921 4.4255,1.92598 4.50403,2.95962 5.73637,5.06646 5.94657,10.1664 0.12506,3.03423 -0.26774,6.03971 -0.84559,6.46988 -0.12135,0.0903 -0.57139,0.86003 -1.00009,1.71042 -0.82449,1.63551 -3.73146,4.52865 -5.11091,5.08661 -0.45155,0.18264 -1.613,0.49929 -2.581,0.70368 l -1.76,0.3716 0.0719,2.86597 c 0.0395,1.57628 0.30787,4.82315 0.59627,7.21527 l 0.52436,4.34929 -3.15627,7.13691 c -2.82901,6.39691 -3.1638,7.00769 -3.22891,5.8907 -0.10747,-1.84361 -0.78457,-8.82606 -0.92765,-9.5662 -0.068,-0.352 -0.20634,-2.04108 -0.30732,-3.75351 -0.10097,-1.71244 -0.28007,-3.77191 -0.39799,-4.57662 l -0.2144,-1.4631 -0.63694,1.21662 c -0.35031,0.66913 -0.72082,1.28861 -0.82334,1.37661 -0.26522,0.22765 -0.73095,1.39453 -0.67052,1.68 0.0279,0.132 -0.0932,0.24 -0.2692,0.24 -0.176,0 -0.32,0.20884 -0.32,0.4641 0,0.25525 -0.252,0.61088 -0.56,0.79027 -0.308,0.17939 -0.44508,0.33055 -0.30463,0.3359 0.14046,0.005 -0.15683,0.62173 -0.66065,1.36973 -1.02987,1.52902 -1.91888,3.07426 -3.91218,6.8 -0.75329,1.408 -1.54007,2.776 -1.74839,3.04 -0.35202,0.44611 -2.71838,4.43238 -4.844,8.16 -0.50181,0.88 -0.88038,1.708 -0.84126,1.84 0.0391,0.132 -0.0729,0.24 -0.24889,0.24 -0.176,0 -0.32,0.15405 -0.32,0.34234 0,0.18829 -0.432,0.97024 -0.96,1.73766 -0.528,0.76742 -0.96,1.54937 -0.96,1.73766 0,0.18829 -0.144,0.34234 -0.32,0.34234 -0.176,0 -0.32,0.13111 -0.32,0.29135 0,0.16024 -0.55486,1.27624 -1.23301,2.48 -2.63016,4.66862 -3.29324,5.92906 -3.17917,6.04314 0.0651,0.0651 1.72219,-0.91957 3.68247,-2.18809 3.53229,-2.28578 3.56017,-2.31356 3.11827,-3.1064 -0.24523,-0.44 -0.45098,-1.70507 -0.45722,-2.81126 -0.012,-2.1346 0.21158,-2.66833 2.12969,-5.08318 1.82261,-2.29464 5.51527,-2.98118 8.47303,-1.57531 1.50315,0.71447 3.78594,3.01216 3.78594,3.81064 0,0.74224 -3.69919,9.16607 -4.28463,9.757 -0.66254,0.66876 -3.70178,0.85008 -5.01958,0.29947 -1.38064,-0.57687 -1.29532,-0.61498 -7.12594,3.18306 -2.26058,1.47254 -4.70858,2.98105 -5.44,3.35225 -3.41646,1.73389 -4.07118,2.44412 -6.50906,7.06097 -0.25372,0.4805 -0.60016,0.95945 -0.76986,1.06432 -0.25789,0.15939 1.67167,1.74204 2.12388,1.74204 0.0805,0 1.06948,0.9 2.19771,2 3.35919,3.27515 4.80672,6.72314 5.49651,13.09266 0.18715,1.72808 0.0957,2.04164 -1.96087,6.72001 -4.74034,10.78378 -4.97889,11.21479 -6.88558,12.44051 -1.97049,1.26672 -4.17457,2.35853 -4.57626,2.26682 -0.15053,-0.0343 -0.45937,0.0917 -0.68632,0.28 -0.22694,0.18835 -0.53579,0.32035 -0.68631,0.29334 -0.15053,-0.0269 -0.34569,-0.0237 -0.43369,0.007 -1.37225,0.48314 -9.46866,0.53136 -10.64518,0.0634 l -0.88518,-0.35207 0.18566,11.50893 0.18566,11.50893 1.89952,1.89952 1.89952,1.89952 v 2.24301 c 0,1.97798 -0.16643,2.6016 -1.40841,5.27753 -1.54939,3.33824 -2.04806,3.80788 -4.60734,4.33885 -2.26949,0.47085 -3.13012,0.43264 -5.02672,-0.22323 z m 4.71946,-4.75651 c 1.29989,-0.65479 1.90677,-1.78272 1.81401,-3.37149 -0.14787,-2.53274 -1.38246,-3.86384 -3.55584,-3.83386 -1.33565,0.0186 -3.27087,1.03463 -3.7792,1.98445 -0.4552,0.85056 -0.38855,2.76384 0.13128,3.76909 1.14163,2.20768 2.93184,2.68989 5.38975,1.45181 z m 9.78131,-43.99997 c 2.42156,-0.59907 7.16367,-4.08259 6.84776,-5.0303 -0.0657,-0.197 0.0366,-0.35818 0.22728,-0.35818 0.19066,0 0.34666,-0.204 0.34666,-0.45334 0,-0.24932 0.13639,-0.50132 0.30309,-0.56 0.34458,-0.12125 0.68863,-1.79972 0.71367,-3.48173 0.0197,-1.32324 -1.09118,-4.14995 -2.24878,-5.72217 -3.06532,-4.16327 -6.41178,-5.36681 -10.71605,-3.85398 -2.13406,0.75006 -4.99778,2.52824 -5.00618,3.10851 -0.003,0.21851 -0.29375,0.57715 -0.64575,0.79697 -0.352,0.21983 -0.64,0.56905 -0.64,0.77605 0,0.207 -0.14405,0.42437 -0.32012,0.48307 -0.17607,0.0587 -0.49333,0.93249 -0.70504,1.94177 -0.87819,4.18683 1.28492,8.77509 5.45732,11.57563 1.90254,1.277 3.55464,1.47821 6.38614,0.7777 z m 33.89811,-47.70026 c 1.30488,-1.22587 0.85495,-4.52725 -0.7328,-5.37699 -1.00733,-0.53911 -3.29495,-0.14851 -4.22002,0.72055 -1.33343,1.25269 -0.80776,4.4045 0.88272,5.29256 1.05813,0.55587 3.14915,0.22907 4.0701,-0.63612 z m 14.64984,-50.66504 c 1.03156,-0.48801 2.14628,-1.34669 2.76911,-2.13308 0.88644,-1.11922 1.03703,-1.55981 1.00596,-2.94318 -0.0484,-2.1563 -0.78338,-3.76583 -2.50632,-5.48876 -1.30374,-1.30374 -1.54876,-1.41816 -3.03686,-1.41816 -4.2126,0 -7.79698,3.38613 -7.15225,6.75667 0.44031,2.30184 2.46074,5.27474 3.95411,5.81814 1.20078,0.43694 3.32762,0.18357 4.96625,-0.59163 z M 458.29035,378.5616 c -0.58832,-0.1391 -1.18688,-0.37635 -1.33012,-0.52723 -0.44592,-0.4697 -4.80025,-10.31674 -4.80025,-10.85543 0,-0.28057 0.85478,-1.36492 1.89952,-2.40966 l 1.89952,-1.89952 0.18566,-11.50893 0.18567,-11.50893 -0.88519,0.35207 c -1.17651,0.46793 -9.27293,0.41971 -10.64518,-0.0634 -0.088,-0.031 -0.28317,-0.0342 -0.4337,-0.007 -0.15053,0.0269 -0.45936,-0.10499 -0.6863,-0.29334 -0.22695,-0.18835 -0.53578,-0.3113 -0.68631,-0.27325 -0.4256,0.10765 -3.8416,-1.63216 -4.38089,-2.2312 -0.57443,-0.63811 -8.89354,-18.87546 -8.92819,-19.57259 -0.10068,-2.02615 1.04828,-6.38315 2.3214,-8.80296 0.82359,-1.5654 4.6921,-5.92 5.25917,-5.92 0.45223,0 2.38176,-1.58265 2.12387,-1.74204 -0.16969,-0.10487 -0.51612,-0.58382 -0.76985,-1.06432 -2.43786,-4.61685 -3.09258,-5.32708 -6.50906,-7.06097 -0.73142,-0.3712 -3.18374,-1.88283 -5.4496,-3.35918 -5.61945,-3.66139 -5.7943,-3.74212 -6.98054,-3.22271 -1.27389,0.5578 -3.52346,0.56006 -4.07942,0.004 -0.2448,-0.24482 -1.49613,-2.75113 -2.78074,-5.56958 -2.32963,-5.11137 -2.33411,-5.12646 -1.74438,-5.90828 1.99507,-2.6449 5.64665,-3.73708 8.78841,-2.62859 1.69712,0.59877 2.2353,1.07209 3.66064,3.21948 0.98496,1.48391 1.11418,1.91759 1.10416,3.70632 -0.006,1.11434 -0.21197,2.3857 -0.45725,2.82577 -0.44189,0.79284 -0.41398,0.82062 3.11827,3.1064 1.96029,1.26852 3.61741,2.25316 3.6825,2.18809 0.11408,-0.11408 -0.54902,-1.37452 -3.17917,-6.04314 -0.67817,-1.20376 -1.23302,-2.31976 -1.23302,-2.48 0,-0.16024 -0.144,-0.29135 -0.32,-0.29135 -0.176,0 -0.32,-0.15405 -0.32,-0.34234 0,-0.18829 -0.432,-0.97024 -0.96,-1.73766 -0.528,-0.76742 -0.96,-1.54937 -0.96,-1.73766 0,-0.18829 -0.144,-0.34234 -0.32,-0.34234 -0.176,0 -0.288,-0.108 -0.2489,-0.24 0.0391,-0.132 -0.33945,-0.96 -0.84125,-1.84 -2.12563,-3.72762 -4.49199,-7.71389 -4.84399,-8.16 -0.20832,-0.264 -0.99511,-1.632 -1.74839,-3.04 -1.99331,-3.72574 -2.88233,-5.27098 -3.91219,-6.8 -0.50381,-0.748 -0.80112,-1.36438 -0.66064,-1.36973 0.14045,-0.005 0.004,-0.15651 -0.30464,-0.3359 -0.308,-0.17939 -0.56,-0.53502 -0.56,-0.79027 0,-0.25526 -0.144,-0.4641 -0.32,-0.4641 -0.176,0 -0.29715,-0.108 -0.26918,-0.24 0.0604,-0.28547 -0.40532,-1.45235 -0.67053,-1.68 -0.10253,-0.088 -0.47303,-0.70748 -0.82336,-1.37661 l -0.63693,-1.21662 -0.21478,1.46575 c -0.11812,0.80616 -0.29604,2.79363 -0.39536,4.41661 -0.0993,1.62298 -0.26324,3.59887 -0.36426,4.39087 -0.10102,0.792 -0.35581,3.02384 -0.56621,4.95965 l -0.38253,3.51965 -3.09619,-6.79036 -3.09619,-6.79036 0.44794,-3.44929 c 0.24636,-1.89711 0.48835,-4.88302 0.53776,-6.63536 l 0.0898,-3.18607 -1.76,-0.3715 c -0.968,-0.20433 -2.12944,-0.52094 -2.58099,-0.70358 -1.37946,-0.55796 -4.28643,-3.4511 -5.11091,-5.08661 -0.42871,-0.85039 -0.87876,-1.62008 -1.0001,-1.71042 -0.57786,-0.43017 -0.97066,-3.43565 -0.8456,-6.46988 0.21021,-5.09994 1.44256,-7.20678 5.94659,-10.1664 1.72554,-1.13388 2.87216,-1.63288 4.42547,-1.92598 2.20698,-0.41642 5.78058,-0.26346 7.8953,0.33794 3.13357,0.89115 7.26125,5.89849 7.97008,9.66857 0.22336,1.188 0.51728,2.16 0.65315,2.16 0.13584,0 0.24701,0.36 0.24701,0.8 0,0.44 -0.18,0.8022 -0.4,0.8049 -0.2712,0.003 -0.24541,0.11422 0.08,0.34436 0.36122,0.25546 0.38102,0.37963 0.08,0.50177 -0.22,0.0893 -0.4008,0.5463 -0.40179,1.01564 -0.003,1.43644 -0.65952,3.34193 -1.6681,4.84158 -0.57078,0.84865 -0.81641,1.47631 -0.60534,1.54667 0.19536,0.0651 0.35523,0.32241 0.35523,0.57175 0,0.24933 0.1272,0.45333 0.28269,0.45333 0.27453,0 0.78163,1.19661 0.71193,1.68 -0.0189,0.132 0.10938,0.24 0.28538,0.24 0.176,0 0.32,0.13343 0.32,0.29651 0,0.16308 0.73936,1.49508 1.64304,2.96 0.90368,1.46492 2.00294,3.31149 2.44281,4.10349 0.43988,0.792 0.90525,1.584 1.03415,1.76 0.12889,0.176 0.59702,0.97935 1.04025,1.78522 0.44324,0.80586 0.95847,1.74186 1.1449,2.08 0.18646,0.33813 1.00957,1.75221 1.82915,3.14239 2.03914,3.4589 2.6664,4.57007 3.63114,6.43239 0.45587,0.88 0.93814,1.648 1.07171,1.70667 0.13357,0.0587 0.24285,0.24622 0.24285,0.41678 0,0.17057 0.76717,1.49057 1.7048,2.93334 0.93766,1.44277 2.10784,3.41521 2.60045,4.38321 0.4926,0.968 1.13548,2.12 1.4286,2.56 0.29316,0.44 0.81495,1.376 1.15956,2.08 0.34464,0.704 0.73459,1.328 0.86659,1.38667 0.132,0.0587 0.24,0.31066 0.24,0.56 0,0.24933 0.144,0.45333 0.32,0.45333 0.176,0 0.32,0.15777 0.32,0.3506 0,0.19283 0.28157,0.74603 0.62569,1.22933 0.34416,0.48329 1.11252,1.80152 1.70749,2.92939 1.26045,2.38942 2.74317,4.91633 4.20755,7.17068 0.98829,1.52146 1.988,3.29265 4.68144,8.29427 l 1.19242,2.21426 1.5527,0.0946 c 2.96343,0.18056 4.69376,0.44239 5.08852,0.76999 0.21824,0.18113 0.51996,0.29834 0.67049,0.26045 0.41472,-0.10437 2.62026,1.00966 4.61664,2.33191 4.8487,3.21137 8.61706,10.1192 8.61706,15.796 0,0.58585 0.18,1.13822 0.4,1.22749 0.30102,0.12214 0.28121,0.24631 -0.08,0.50177 -0.32541,0.23014 -0.3512,0.34104 -0.08,0.34436 0.22,0.003 0.4,0.3649 0.4,0.8049 0,0.44 -0.144,0.8 -0.32,0.8 -0.176,0 -0.32,0.216 -0.32,0.48 0,0.264 0.144,0.48 0.32,0.48 0.176,0 0.32,0.216 0.32,0.48 0,0.264 -0.12109,0.48 -0.26909,0.48 -0.31805,0 -1.14858,3.48899 -0.89165,3.74592 0.0969,0.0969 -0.30118,0.76976 -0.88474,1.49517 -0.58352,0.72541 -1.89008,2.5895 -2.90345,4.14243 -1.01335,1.55293 -2.0784,2.92093 -2.36675,3.04 -0.28839,0.11907 -1.20832,0.62618 -2.04432,1.12688 l -1.52,0.9104 -0.0415,1.9696 c -0.0227,1.0833 -0.0714,6.3864 -0.10796,11.7847 l -0.0665,9.81514 1.30797,0.3313 c 2.18537,0.55353 4.21197,2.06374 5.28851,3.94099 0.53539,0.9336 0.97482,1.95398 0.97645,2.26752 0.003,0.3135 0.21901,0.65293 0.48301,0.75424 0.54809,0.2103 0.69686,2.99571 0.16,2.99571 -0.176,0 -0.32,0.2208 -0.32,0.49062 0,0.26986 -0.3538,1.18887 -0.78624,2.04221 -1.65594,3.26787 -5.89482,5.09395 -9.72339,4.18877 z m 4.54239,-5.08381 c 1.34298,-1.16969 1.92708,-3.73801 1.17127,-5.15024 -0.50832,-0.94982 -2.44355,-1.96601 -3.77917,-1.98445 -2.20838,-0.0304 -3.42349,1.3145 -3.55421,3.93402 -0.09,1.80342 0.77111,2.9671 2.68935,3.6343 1.41782,0.49319 2.57443,0.34877 3.47276,-0.43363 z m -7.74492,-44.70701 c 4.17241,-2.80054 6.33552,-7.3888 5.45731,-11.57563 -0.21168,-1.00928 -0.52896,-1.88309 -0.70503,-1.94177 -0.17606,-0.0587 -0.32012,-0.27607 -0.32012,-0.48307 0,-0.207 -0.288,-0.55622 -0.64,-0.77605 -0.352,-0.21982 -0.64259,-0.57846 -0.64576,-0.79697 -0.008,-0.58027 -2.87213,-2.35845 -5.00618,-3.10851 -4.30425,-1.51283 -7.65072,-0.30929 -10.71603,3.85398 -1.1576,1.57222 -2.26848,4.39893 -2.2488,5.72217 0.025,1.68201 0.36909,3.36048 0.7137,3.48173 0.16668,0.0587 0.30307,0.31068 0.30307,0.56 0,0.24934 0.156,0.45334 0.34665,0.45334 0.19069,0 0.29296,0.16118 0.2273,0.35818 -0.2968,0.89036 4.36912,4.41235 6.62605,5.00153 0.704,0.18378 2.09353,0.34903 3.08784,0.3672 1.57267,0.0288 2.03056,-0.11641 3.52,-1.11613 z m -35.46256,-46.81384 c 0.39337,-0.39336 0.68176,-1.22938 0.78125,-2.26479 0.20067,-2.08849 -0.59216,-3.08081 -2.71591,-3.39928 -2.43792,-0.36559 -3.61062,0.77326 -3.61062,3.50641 0,1.44805 0.78,2.5227 2.08,2.86568 1.10346,0.29113 2.81603,-0.0588 3.46528,-0.70802 z m -13.1951,-51.09738 c 1.13177,-1.07466 2.34035,-3.31579 2.64393,-4.90289 0.64474,-3.37054 -2.93965,-6.75667 -7.15225,-6.75667 -1.4881,0 -1.73312,0.11442 -3.03687,1.41816 -1.72291,1.72293 -2.45789,3.33246 -2.5063,5.48876 -0.031,1.3829 0.11958,1.82405 1.00441,2.94123 2.32468,2.93513 6.89901,3.85101 9.04708,1.81141 z m -163.71017,143.3101 c -0.352,-0.0858 -1.7455,-0.81033 -3.09665,-1.61001 -2.44607,-1.44765 -3.86597,-3.05184 -4.98335,-5.63015 -0.47418,-1.09414 -0.50972,-3.98624 -0.0723,-5.88192 0.34111,-1.4782 0.0926,-2.09811 -1.71396,-4.27539 -1.83996,-2.21753 -5.33377,-6.99705 -5.33377,-7.29657 0,-0.17005 -0.32865,-0.57162 -0.73033,-0.89239 -0.40169,-0.32077 -1.04014,-1.08723 -1.4188,-1.70323 -0.37865,-0.616 -0.95428,-1.408 -1.27917,-1.76 -0.32489,-0.352 -1.05708,-1.2937 -1.62709,-2.09267 l -1.03638,-1.45264 1.36551,-3.11792 1.3655,-3.11789 0.88088,1.05056 c 0.48449,0.57779 1.49266,1.89411 2.24038,2.92512 0.74773,1.03098 1.87642,2.48909 2.50821,3.24019 l 1.14871,1.36567 4.13129,-1.18682 c 2.27221,-0.65274 4.41929,-1.3464 4.77129,-1.54144 0.352,-0.19507 1.504,-0.59498 2.56,-0.88874 1.056,-0.29372 3,-0.89017 4.32,-1.32544 1.32,-0.43526 4.344,-1.39862 6.72,-2.1408 l 4.32,-1.34944 -0.10643,-1.93152 c -0.14942,-2.71171 0.41684,-4.49651 1.96584,-6.19622 1.50045,-1.64643 3.88229,-3.18653 4.94059,-3.19453 0.396,-0.003 0.71999,-0.11347 0.71999,-0.24547 -2e-5,-0.47693 2.75931,-0.1657 4.49038,0.50646 1.10695,0.42983 2.3061,1.23687 3.2,2.15364 l 1.42963,1.4662 8.48,-0.2342 c 4.664,-0.12884 9.128,-0.26727 9.92,-0.30762 0.792,-0.0404 2.664,-0.0901 4.16,-0.11059 l 2.71999,-0.0372 0.0739,-1.2951 c 0.0407,-0.71232 0.29265,-1.51386 0.56,-1.78119 0.26735,-0.26736 0.48608,-0.67689 0.48608,-0.91008 0,-0.3815 0.68439,-1.05833 2.86531,-2.83369 1.14446,-0.93166 3.87174,-1.37227 5.88286,-0.95044 1.32452,0.27782 2.04323,0.67933 3.2,1.78769 0.82051,0.78614 1.49183,1.64163 1.49183,1.90102 0,0.25942 0.36,0.8601 0.8,1.33488 0.69376,0.74858 0.8,1.1585 0.8,3.08672 0,1.22294 -0.11295,2.22352 -0.251,2.22352 -0.13806,0 -0.5214,0.45773 -0.85188,1.01722 -1.12593,1.90604 -3.57952,3.78278 -4.94548,3.78278 -0.1934,0 -0.35164,0.144 -0.35164,0.32 0,0.176 -0.76759,0.32 -1.70576,0.32 -2.27505,0 -5.42268,-1.55139 -6.22768,-3.0695 -0.26748,-0.50442 -0.61532,-0.64954 -1.41078,-0.58861 -0.58068,0.0445 -2.67577,0.12253 -4.65577,0.17344 -1.98,0.0509 -3.6,0.22544 -3.6,0.38781 0,0.16236 -0.22698,0.10684 -0.50439,-0.1234 -0.418,-0.34688 -0.55502,-0.3399 -0.8,0.0408 -0.25534,0.39683 -0.34253,0.39404 -0.63998,-0.0205 -0.23724,-0.33069 -0.39178,-0.36477 -0.49681,-0.10957 -0.10257,0.24925 -1.53434,0.39222 -4.37564,0.43699 -2.32275,0.0366 -4.94318,0.10941 -5.82318,0.16179 -0.88,0.0523 -1.924,0.10771 -2.32,0.12301 -0.54726,0.0211 -0.72,0.21971 -0.72,0.82778 0,0.44 -0.18,0.8022 -0.4,0.80489 -0.26667,0.003 -0.24,0.10832 0.08,0.31511 0.28368,0.18332 0.32522,0.31219 0.10156,0.3151 -0.20814,0.003 -0.48118,0.3289 -0.60675,0.7249 -0.70241,2.2151 -3.68684,5.08489 -6.18256,5.94508 -2.34368,0.80778 -6.09791,0.21396 -7.17548,-1.13497 -0.32077,-0.40157 -0.81455,-0.73011 -1.09728,-0.73011 -0.6812,0 -2.48824,0.58016 -4.11454,1.32096 -0.72328,0.32947 -1.5445,0.59904 -1.82495,0.59904 -0.28044,0 -0.84067,0.13424 -1.24495,0.29833 -0.40428,0.1641 -1.59905,0.53469 -2.65505,0.82359 -1.056,0.28889 -2.36401,0.74038 -2.90668,1.00332 -0.54267,0.26295 -1.47867,0.60004 -2.08,0.74903 -0.60133,0.14902 -1.88532,0.5071 -2.85332,0.79574 -0.968,0.28864 -2.12,0.60775 -2.56,0.70915 -0.44,0.10144 -1.016,0.361 -1.28,0.57684 -0.51115,0.41788 -2.66828,1.07756 -4.42368,1.35276 l -1.06368,0.16679 0.78406,0.84221 c 0.43123,0.46323 1.37931,1.72579 2.10683,2.80566 1.94381,2.88528 1.8853,2.86163 4.24478,1.71498 2.92674,-1.42234 4.91894,-1.38285 8.18982,0.1623 2.92612,1.3823 5.10135,3.55827 5.95239,5.9544 0.30569,0.8607 0.69387,1.5649 0.86264,1.5649 0.16876,0 0.30684,0.72 0.30684,1.6 0,0.88 -0.126,1.6 -0.28,1.6 -0.154,0 -0.36911,0.44553 -0.47802,0.99011 -0.10891,0.54454 -0.63893,1.91395 -1.17782,3.04307 -0.74164,1.55395 -1.3909,2.36336 -2.67106,3.32989 -0.93019,0.7023 -1.85817,1.27693 -2.06218,1.27693 -0.20401,0 -0.37092,0.13721 -0.37092,0.30496 0,0.72777 -4.52374,1.24134 -6.56,0.7447 z m 4,-6.0351 c 0.528,-0.10198 0.96,-0.29485 0.96,-0.42861 0,-0.13379 0.33872,-0.39757 0.75271,-0.58617 1.01228,-0.46122 1.77447,-2.76266 1.41006,-4.2577 -0.55096,-2.26042 -0.92248,-2.79181 -2.53778,-3.62986 -0.88223,-0.45772 -1.85172,-0.83222 -2.15442,-0.83222 -0.75226,0 -3.2355,1.20899 -4.08834,1.99043 -1.46513,1.3425 -1.19881,4.88279 0.50112,6.6616 1.47114,1.53939 2.10377,1.67223 5.15665,1.08253 z m 22.10963,-31.66989 c 1.18503,-0.6128 1.57037,-1.57833 1.57037,-3.93485 0,-1.50256 -0.12109,-1.91244 -0.67921,-2.29916 -0.37357,-0.25888 -0.8754,-0.65879 -1.11517,-0.88868 -0.23979,-0.22992 -1.14011,-0.43408 -2.00072,-0.45369 -1.33109,-0.0304 -1.72173,0.11107 -2.61591,0.94675 -0.88301,0.82525 -1.07142,1.25613 -1.17789,2.69366 -0.0977,1.31876 0.0214,1.94704 0.51889,2.73898 0.98188,1.56294 3.66339,2.14656 5.49964,1.19699 z m 40.58261,-5.98937 c 1.03582,-0.53021 1.78714,-2.64535 1.49424,-4.20666 -0.19371,-1.03258 -0.42504,-1.29014 -1.64227,-1.82858 -2.74769,-1.21545 -4.95439,0.18983 -4.9371,3.14404 0.004,0.66876 0.25592,1.53353 0.56,1.92172 0.9976,1.27354 3.06555,1.71658 4.52513,0.96948 z m 7.29491,30.03033 c -2.04448,-0.72317 -2.82933,-1.15424 -3.58716,-1.97014 -0.176,-0.18951 -0.932,-0.8136 -1.68,-1.38691 -0.748,-0.57328 -1.36,-1.22861 -1.36,-1.45629 0,-0.22765 -0.2394,-0.61155 -0.532,-0.85312 -0.88215,-0.72823 -1.64691,-2.86711 -1.87887,-5.25475 -0.40058,-4.12343 1.14729,-7.88093 4.56027,-11.07018 1.84717,-1.72611 2.75849,-2.23891 5.68713,-3.20032 2.12533,-0.6977 2.15608,-0.69856 4.43183,-0.12112 1.26041,0.31981 2.64,0.75702 3.06576,0.97162 0.65184,0.32854 0.94243,0.29084 1.84,-0.23876 0.58624,-0.34588 1.06624,-0.72265 1.06665,-0.83728 0,-0.11459 0.7737,-0.61222 1.71837,-1.10582 0.9447,-0.4936 1.98835,-1.14778 2.31923,-1.45373 0.33091,-0.30595 1.43031,-1.02905 2.44311,-1.60688 1.0128,-0.57782 2.0208,-1.22451 2.24,-1.43709 0.2192,-0.21254 1.08134,-0.78297 1.9159,-1.26761 1.51817,-0.8816 6.096,-3.84711 7.60262,-4.92493 0.44,-0.31478 1.58947,-1.04995 2.55437,-1.63376 0.9649,-0.58378 1.83181,-1.18678 1.9265,-1.33997 0.45276,-0.7326 2.36294,-0.95856 8.09996,-0.9582 l 6.13917,3.2e-4 -0.94819,0.81544 c -0.5215,0.44848 -1.7815,1.27354 -2.8,1.83348 -1.0185,0.5599 -1.85181,1.12035 -1.85181,1.2454 0,0.12506 -0.85088,0.68087 -1.89081,1.23517 -1.03997,0.55427 -2.15597,1.25475 -2.48,1.55661 -0.32407,0.30186 -1.49252,1.07821 -2.59658,1.72525 -1.10403,0.64704 -2.18403,1.33277 -2.4,1.52387 -0.51814,0.45856 -4.04531,2.75686 -6.23606,4.06346 -0.9586,0.57171 -2.14775,1.36371 -2.64256,1.76 -0.49485,0.39628 -2.29072,1.58454 -3.99088,2.64054 -1.70013,1.056 -3.66557,2.32358 -4.36765,2.81686 l -1.27648,0.89687 0.87776,1.49779 c 0.69082,1.17882 0.908,2.02051 1.01984,3.95226 0.24896,4.30096 -0.95344,7.29766 -4.25658,10.60828 -3.45769,3.46554 -8.20675,4.57463 -12.73284,2.97357 z m 5.85284,-6.61296 c 2.63501,-0.60694 3.84,-2.35469 3.84,-5.56953 0,-2.20045 -0.63363,-3.96141 -1.80595,-5.01911 -1.05942,-0.95584 -3.33558,-1.33136 -5.43189,-0.89616 -4.33624,0.90019 -5.9035,5.56039 -3.19622,9.50384 1.48889,2.16874 3.35068,2.72803 6.59406,1.98096 z m -25.85955,-84.67839 c -1.4442,-0.69945 -3.15361,-2.33161 -3.55918,-3.39836 -0.41593,-1.09398 -0.45001,-5.0153 -0.0525,-6.03509 0.38348,-0.98366 2.10998,-2.87538 2.37885,-2.6065 0.11679,0.11678 0.21235,0.0358 0.21235,-0.17988 0,-0.21572 0.144,-0.30322 0.32,-0.19445 0.176,0.10877 0.32,0.0368 0.32,-0.16 0,-0.19677 0.11487,-0.28677 0.25528,-0.2 0.61171,0.37806 1.23134,-0.60761 2.22618,-3.54124 0.58543,-1.72632 1.06754,-3.39076 1.07136,-3.69876 0.004,-0.308 0.1505,-0.56 0.32595,-0.56 0.17545,0 0.24081,-0.12651 0.14525,-0.28113 -0.0956,-0.15462 0.0579,-0.74556 0.34111,-1.3132 0.28318,-0.56764 0.51486,-1.37713 0.51486,-1.79887 0,-0.42174 0.0988,-0.7668 0.21951,-0.7668 0.16812,0 0.96952,-2.48028 1.13735,-3.52 0.0142,-0.088 0.20579,-0.484 0.42574,-0.88 0.21996,-0.396 0.32496,-0.72 0.23333,-0.72 -0.0916,0 0.12852,-0.74869 0.4892,-1.66375 l 0.65579,-1.66376 -1.22045,-1.21002 c -0.67126,-0.66552 -1.96279,-1.86028 -2.87008,-2.65503 l -1.64961,-1.445 -1.93244,0.95878 c -1.06284,0.52733 -2.25521,0.95878 -2.64971,0.95878 -0.51371,0 -3.32011,2.61086 -9.88899,9.2 l -9.17172,9.2 0.0735,1.74731 c 0.14902,3.54189 -2.10242,6.40617 -5.93142,7.54596 -2.80809,0.8359 -5.99473,-0.31251 -7.66835,-2.76353 -0.55217,-0.80865 -1.02544,-1.75573 -1.05172,-2.10464 -0.0263,-0.3489 0.80037,-2.5408 1.83701,-4.87087 1.71738,-3.86021 1.98534,-4.27852 3.01685,-4.70951 0.6536,-0.27309 1.92361,-0.44444 3.00489,-0.40542 1.49968,0.0541 2.13166,0.25507 3.17184,1.00857 l 1.299,0.94099 7.87114,-7.87114 7.87114,-7.87114 -0.7959,-0.5483 c -4.45543,-3.06934 -5.67628,-9.51507 -2.48156,-13.10192 0.60271,-0.67669 0.59048,-0.73968 -1.203,-6.19456 l -1.8119,-5.51092 0.52152,-1.32544 c 1.19532,-3.03792 2.66375,-5.79191 2.83952,-5.32544 0.0995,0.264 1.21904,3.67923 2.4879,7.5894 1.26886,3.91018 2.4346,7.03056 2.59054,6.93418 0.15593,-0.0964 1.14625,-0.17109 2.2007,-0.16605 l 1.91718,0.009 2.7916,-3.39311 c 1.53538,-1.86622 3.81647,-4.62414 5.06908,-6.12872 2.02851,-2.43654 2.2248,-2.78829 1.79555,-3.21754 -0.26507,-0.26507 -0.67794,-0.95103 -0.91749,-1.52436 -1.51877,-3.63493 1.54681,-7.83719 5.32445,-7.29868 0.792,0.1129 1.60318,0.37412 1.80261,0.58049 0.19943,0.20638 0.95716,1.71126 1.68384,3.3442 1.49806,3.3663 1.48688,4.10247 -0.0814,5.35679 -0.55279,0.44213 -1.18224,0.94874 -1.39878,1.1258 -0.21654,0.17705 -0.46854,0.31888 -0.56,0.31517 -2.35226,-0.0953 -2.2102,-0.19662 -5.71113,4.07326 -1.83988,2.244 -4.08009,4.872 -4.97824,5.84 -0.89814,0.968 -1.63375,1.904 -1.63467,2.08 -9.6e-4,0.176 0.53819,0.84433 1.19803,1.48517 1.41946,1.37857 2.95971,4.10159 2.95971,5.23249 0,0.44129 0.18,0.80455 0.4,0.80724 0.29292,0.004 0.28323,0.0789 -0.0362,0.28127 -0.36828,0.23332 -0.36828,0.30731 0,0.4751 0.3378,0.1539 0.34596,0.24085 0.0362,0.3854 -0.22,0.10267 -0.4,0.54413 -0.4,0.98104 0,0.4369 -0.14313,1.06183 -0.31808,1.38872 -0.2715,0.5073 0.1855,1.04808 3.12,3.692 1.89095,1.70371 4.28779,3.90141 5.32631,4.88379 1.03852,0.98238 4.20652,3.87281 7.04,6.42319 2.83347,2.55037 5.38467,4.89974 5.66931,5.22082 0.61158,0.68986 1.11315,0.74489 1.46656,0.16092 0.14074,-0.23257 0.9759,-0.7724 1.8559,-1.19962 2.05447,-0.9974 5.0801,-1.03166 7.21072,-0.0816 1.41837,0.63242 1.49511,0.74487 3.44138,5.04248 1.12918,2.49346 1.93584,4.69553 1.864,5.08864 -0.20653,1.13016 -1.65984,3.63661 -2.64214,4.55672 -5.32896,4.99151 -15.08279,0.42132 -14.68932,-6.88271 0.0821,-1.52354 0.0112,-1.6975 -1.06838,-2.62853 -0.63594,-0.54834 -2.74026,-2.46507 -4.67626,-4.25938 -7.95337,-7.37128 -8.48,-7.78942 -8.48,-6.73308 0,0.70341 -0.0229,0.78455 -0.81159,2.88 -0.39747,1.056 -0.74141,2.02649 -0.7643,2.15664 -0.0229,0.13015 -0.0996,0.41815 -0.17042,0.64 -0.0708,0.22185 -0.7245,2.34736 -1.45258,4.72336 -0.72808,2.376 -1.51586,4.76286 -1.75063,5.30412 -0.41874,0.96547 -0.40298,0.99884 0.83085,1.76 2.1133,1.30371 3.3009,3.78751 3.22502,6.74495 -0.0242,0.94116 -1.11267,3.25522 -1.93581,4.11527 -1.56227,1.63231 -5.6287,2.35861 -7.67009,1.36994 z m 5.49261,-5.21632 c 0.25962,-0.52042 0.43959,-1.12887 0.39994,-1.35209 -0.45978,-2.5884 -2.87932,-3.67094 -4.93429,-2.20767 -0.56029,0.39896 -1.02602,0.75158 -1.03497,0.78359 -0.009,0.032 -0.0945,0.67173 -0.19022,1.42159 -0.15606,1.22303 -0.0708,1.45979 0.82863,2.29994 0.55142,0.51511 1.39302,0.98527 1.87022,1.04481 1.08283,0.13511 2.44104,-0.74805 3.06069,-1.99017 z m 29.90378,-7.1653 c 1.89843,-0.98171 2.38697,-2.20071 1.88428,-4.70148 -0.36393,-1.81059 -1.53993,-2.69435 -3.55968,-2.67516 -1.29385,0.0123 -1.91296,0.19826 -2.66339,0.8 -1.70432,1.36664 -2.06544,2.81869 -1.21005,4.86587 0.90685,2.17043 3.25812,2.89535 5.54884,1.71077 z m -62.68091,-0.81977 c 0.75998,-0.40673 1.62408,-1.92944 1.62408,-2.86194 0,-2.04535 -2.08512,-3.74183 -4.24324,-3.45237 -2.09689,0.28125 -3.21483,2.30505 -2.4887,4.50525 0.28053,0.85003 0.68207,1.22614 1.84767,1.7307 1.5387,0.66606 2.13526,0.6804 3.26019,0.0784 z m 26.21803,-29.25586 c 0.97261,-0.87338 1.37501,-1.94042 1.37743,-3.6525 0.003,-1.74587 -0.7185,-2.84469 -2.34399,-3.57244 -1.52142,-0.68117 -3.22983,-0.54233 -4.50804,0.36636 -1.21186,0.86151 -1.51395,1.54358 -1.59223,3.59497 -0.0594,1.55636 0.0417,1.87899 0.85436,2.72725 1.5707,1.63946 4.68465,1.90831 6.21247,0.53636 z m 14.27011,-27.19819 c 1.71952,-1.37109 0.86037,-4.03884 -1.30071,-4.03884 -1.18641,0 -2.68652,1.31284 -2.51367,2.19988 0.0557,0.28607 0.11237,0.67297 0.12583,0.85978 0.0482,0.6687 1.26934,1.66034 2.0446,1.66034 0.43434,0 1.17412,-0.30652 1.64395,-0.68116 z m -99.27977,23.55758 c -0.38736,-1.71764 -0.70517,-3.40951 -0.70625,-3.7597 -9.6e-4,-0.3502 -0.5592,-3.01272 -1.24027,-5.91672 -0.68108,-2.904 -1.34088,-6.12656 -1.46623,-7.16124 l -0.2279,-1.88123 -1.59828,0.18929 c -4.55579,0.53957 -10.82536,-4.82514 -10.82536,-9.26298 0,-0.76752 -0.17267,-1.43109 -0.4,-1.53717 -0.32,-0.14934 -0.32,-0.224 0,-0.37334 0.22,-0.10266 0.40141,-0.64266 0.40313,-1.2 0.008,-2.59876 2.91539,-6.35864 6.20323,-8.02214 1.28396,-0.64962 2.13043,-0.83494 3.87805,-0.84903 2.54757,-0.0205 3.79081,0.28948 5.73866,1.431 2.91371,1.70755 4.93797,5.14858 5.21792,8.86993 0.13493,1.79353 0.0367,2.39186 -0.63299,3.8546 -0.43599,0.95233 -1.23184,2.23165 -1.76855,2.84293 l -0.97584,1.11143 0.58768,2.71397 c 0.32322,1.49269 0.82378,4.03329 1.11234,5.64578 0.28857,1.61249 0.77825,3.95222 1.08819,5.1994 l 0.5635,2.26761 -1.88525,4.24059 c -1.03689,2.33233 -1.99241,4.34847 -2.12337,4.48031 -0.13096,0.13183 -0.55504,-1.16564 -0.94241,-2.88329 z m -2.52242,-25.24613 c 1.62387,-1.22489 2.32848,-4.59515 1.35448,-6.47866 -0.255,-0.49312 -0.85825,-1.15515 -1.34056,-1.47117 -1.08542,-0.7112 -4.83256,-1.03878 -5.82243,-0.50902 -1.06176,0.56824 -2.03588,2.76791 -2.02196,4.56578 0.0173,2.23714 0.25459,2.73963 1.75397,3.71478 2.16198,1.40608 4.36315,1.47067 6.0765,0.17829 z m 177.54919,23.26294 -1.98857,-4.45379 0.77782,-3.45972 c 0.42778,-1.90285 0.94128,-4.54739 1.14109,-5.87677 0.19981,-1.32937 0.56717,-3.18985 0.81632,-4.1344 l 0.45305,-1.71735 -0.99305,-1.131 c -0.54615,-0.62205 -1.34973,-1.91018 -1.78573,-2.86251 -0.66966,-1.46274 -0.76794,-2.06107 -0.63299,-3.8546 0.27997,-3.72135 2.30422,-7.16238 5.21792,-8.86993 1.94784,-1.14152 3.19107,-1.45153 5.73865,-1.431 1.74762,0.0141 2.59412,0.19941 3.87805,0.84903 3.28784,1.6635 6.19523,5.42338 6.20323,8.02214 0.003,0.55734 0.18314,1.09734 0.40314,1.2 0.32,0.14934 0.32,0.224 0,0.37334 -0.22733,0.10608 -0.4,0.76965 -0.4,1.53717 0,4.43784 -6.26957,9.80255 -10.82534,9.26298 l -1.59831,-0.18929 -0.2279,1.88123 c -0.12535,1.03468 -0.78512,4.25724 -1.46621,7.16124 -0.68109,2.904 -1.2392,5.59488 -1.24029,5.97973 -0.003,0.71667 -1.16109,5.84606 -1.36771,6.05269 -0.063,0.063 -1.00947,-1.8896 -2.10317,-4.33919 z m 11.33399,-23.42363 c 1.54822,-1.0449 1.76627,-1.50116 1.78355,-3.73238 0.0138,-1.79787 -0.96023,-3.99754 -2.02195,-4.56578 -0.98989,-0.52976 -4.73703,-0.20218 -5.82247,0.50902 -1.78681,1.17077 -2.3376,3.89137 -1.25337,6.19118 1.36822,2.90228 4.40012,3.56467 7.31424,1.59796 z M 222.23999,183.45206 c -1.12825,-0.157 -4.37175,-1.13433 -5.8023,-1.74835 -2.08333,-0.8942 -5.98578,-4.41529 -7.03078,-6.34371 -0.33381,-0.616 -0.7069,-1.19554 -0.8291,-1.28787 -0.24279,-0.18345 -0.86008,-2.42298 -1.12241,-4.07213 -0.091,-0.572 -0.29368,-1.04 -0.45042,-1.04 -0.15674,0 -0.28499,-0.936 -0.28499,-2.08 0,-1.17333 0.13949,-2.08 0.32,-2.08 0.176,0 0.32,-0.44123 0.32,-0.98051 0,-0.53927 0.36,-1.76754 0.8,-2.72948 0.44,-0.96194 0.8,-1.83387 0.8,-1.93763 0,-0.10377 0.49311,-0.9995 1.09579,-1.99052 1.41184,-2.32153 3.56322,-4.61953 4.98421,-5.32388 0.616,-0.30534 1.336,-0.7282 1.6,-0.93971 1.6864,-1.35106 8.22587,-2.224 10.56142,-1.40982 1.03882,0.36213 1.08739,0.3361 2.83537,-1.52 0.97815,-1.03865 3.04402,-3.22231 4.59083,-4.85258 1.54681,-1.63028 2.81238,-3.12051 2.81238,-3.31164 0,-0.19113 0.20483,-0.80127 0.45519,-1.35587 0.55421,-1.22771 1.4548,-3.89147 2.61289,-7.72836 0.47809,-1.584 0.95316,-3.024 1.05569,-3.2 0.10254,-0.176 0.19891,-0.392 0.21416,-0.48 0.0153,-0.088 0.18834,-0.52 0.38462,-0.96 0.19629,-0.44 0.80799,-2.312 1.35934,-4.16 1.08164,-3.62546 2.13225,-6.81623 2.58143,-7.84 0.15443,-0.352 0.72407,-2.04695 1.26586,-3.76655 l 0.98506,-3.12656 -0.65712,-0.92284 c -0.36142,-0.50757 -0.65712,-1.08062 -0.65712,-1.27345 0,-0.19283 -0.12825,-0.3506 -0.28499,-0.3506 -0.8554,0 -1.01647,-5.585462 -0.22851,-7.923693 0.77508,-2.300003 3.12523,-4.812013 5.69501,-6.087222 1.82317,-0.904717 2.26621,-0.993808 4.57849,-0.920679 3.17682,0.100474 4.84997,0.815668 7.0445,3.011188 2.17016,2.171132 3.14175,4.186332 3.29825,6.840953 0.11492,1.949333 0.0176,2.349793 -1.20556,4.959903 -1.61741,3.45146 -2.39667,4.30256 -5.11334,5.58468 -1.9377,0.9145 -2.31259,0.9825 -4.74692,0.86109 l -2.64307,-0.13181 -0.32689,1.30279 c -0.17979,0.71654 -0.60486,1.9508 -0.94459,2.7428 -0.66221,1.54377 -2.71603,7.85519 -3.0719,9.44 -0.11857,0.528 -0.54707,1.68 -0.95223,2.56 -1.88847,4.10171 -1.46296,3.84876 5.65238,-3.36 3.73496,-3.784 6.6472,-6.592 6.47165,-6.24 -0.17555,0.352 -2.61039,5.80492 -5.41074,12.11759 l -5.09154,11.47758 -2.68448,2.84863 c -1.47646,1.56674 -4.47257,4.64583 -6.65803,6.84241 -2.18546,2.19658 -3.83371,3.99379 -3.66278,3.99379 0.70715,0 3.88529,4.93818 3.88529,6.03694 0,0.32959 -2.13827,5.38838 -4.7517,11.24175 -4.48806,10.05203 -4.81208,10.66907 -5.84,11.12147 -1.06832,0.47017 -5.81537,0.76923 -7.8083,0.4919 z m 5.42388,-9.71665 c 2.05342,-0.59947 4.09532,-2.61244 4.64635,-4.58052 0.71319,-2.54725 -0.37923,-6.44104 -2.41921,-8.62298 -1.13509,-1.21407 -3.46526,-2.20111 -5.33687,-2.26064 -1.72245,-0.0548 -4.53853,1.06913 -6.19592,2.47285 -2.09643,1.77554 -2.78747,4.9275 -1.71317,7.81402 2.08036,5.58972 4.96437,6.94479 11.01882,5.17727 z m 31.08127,-69.06224 c 2.62362,-1.19159 3.41897,-3.69041 2.09853,-6.59317 -0.72913,-1.602877 -1.153,-1.952598 -2.9362,-2.422608 -2.31575,-0.610368 -4.71019,0.298099 -5.69725,2.161571 -0.55165,1.041459 -0.41915,4.258097 0.22025,5.346857 1.1606,1.97626 3.86229,2.62117 6.31467,1.50735 z m 111.65484,78.72851 c -2.09472,-0.54668 -2.19168,-0.7044 -7.15833,-11.64041 -2.66292,-5.86344 -4.84167,-10.90892 -4.84167,-11.21219 0,-1.05812 3.19885,-5.98908 3.88528,-5.98908 0.17095,0 -1.47731,-1.79721 -3.66278,-3.99379 -2.18544,-2.19658 -5.1968,-5.28522 -6.69187,-6.86363 l -2.71834,-2.86985 -5.36134,-11.77637 c -2.94877,-6.477 -5.44227,-11.99236 -5.54115,-12.25636 -0.0989,-0.264 2.94969,2.688 6.77462,6.56 7.28489,7.37452 7.71059,7.63211 5.81734,3.52 -0.40518,-0.88 -0.83366,-2.032 -0.95225,-2.56 -0.35588,-1.58481 -2.4097,-7.89623 -3.07188,-9.44 -0.33974,-0.792 -0.7648,-2.02626 -0.9446,-2.7428 l -0.32688,-1.30279 -2.64308,0.13181 c -2.43312,0.12135 -2.80976,0.0531 -4.74169,-0.85864 -2.5552,-1.20595 -3.72038,-2.38157 -5.26045,-5.30758 -1.1215,-2.1308 -1.17341,-2.3648 -1.06457,-4.8 0.13948,-3.121267 0.96684,-4.947062 3.29913,-7.280406 2.19453,-2.19552 3.86768,-2.910714 7.04451,-3.011188 2.31229,-0.07313 2.75533,0.01597 4.5785,0.920679 2.56976,1.275209 4.91993,3.787219 5.69501,6.087222 0.78796,2.338231 0.62688,7.923693 -0.22852,7.923693 -0.15673,0 -0.28499,0.15777 -0.28499,0.3506 0,0.19283 -0.29571,0.76588 -0.65712,1.27345 l -0.65712,0.92284 0.98506,3.12656 c 0.54179,1.7196 1.11142,3.41455 1.26585,3.76655 0.44919,1.02377 1.49978,4.21454 2.58144,7.84 0.55136,1.848 1.16304,3.72 1.35933,4.16 0.19629,0.44 0.36938,0.872 0.38464,0.96 0.0154,0.088 0.11162,0.304 0.21415,0.48 0.10252,0.176 0.5776,1.616 1.05571,3.2 1.15808,3.83689 2.05865,6.50065 2.61286,7.72836 0.25037,0.5546 0.4552,1.16474 0.4552,1.35587 0,0.19113 1.26557,1.68136 2.81239,3.31164 1.54681,1.63027 3.61267,3.81393 4.59081,4.85258 1.748,1.8561 1.79655,1.88213 2.83539,1.52 2.33556,-0.81418 8.87501,0.0588 10.56141,1.40982 0.264,0.21151 0.984,0.63437 1.6,0.93971 1.42099,0.70435 3.57238,3.00235 4.98419,5.32388 0.60269,0.99102 1.09581,1.88675 1.09581,1.99052 0,0.10376 0.36,0.97569 0.8,1.93763 0.44,0.96194 0.8,2.19021 0.8,2.72948 0,0.53928 0.144,0.98051 0.32,0.98051 0.18051,0 0.32,0.90667 0.32,2.08 0,1.144 -0.12826,2.08 -0.28499,2.08 -0.15674,0 -0.35943,0.468 -0.45043,1.04 -0.26231,1.64915 -0.87962,3.88868 -1.1224,4.07213 -0.12221,0.0923 -0.4953,0.67187 -0.82909,1.28787 -1.04541,1.92914 -4.94912,5.45098 -7.03079,6.34301 -3.55945,1.52528 -9.62908,2.37022 -12.2023,1.69867 z m 8.75674,-9.93088 c 2.07542,-1.47783 3.95068,-5.53706 3.73763,-8.09056 -0.25027,-2.99978 -1.67363,-4.78191 -5.04851,-6.32104 -3.01021,-1.37282 -6.60573,-0.76397 -8.69687,1.47271 -2.04,2.18194 -3.13241,6.07573 -2.41923,8.62298 0.44634,1.59415 2.63962,4.0693 3.89536,4.396 4.61063,1.19951 6.76298,1.17931 8.53162,-0.0801 z m -34.19885,-68.78498 c 1.54547,-0.82885 2.19075,-2.08141 2.21872,-4.30686 0.0349,-2.775072 -0.87098,-4.073341 -3.30701,-4.739619 -1.39462,-0.38145 -3.69366,0.0048 -4.62777,0.777478 -1.58426,1.310464 -2.13693,5.267461 -0.94698,6.780231 1.48707,1.89052 4.61203,2.58875 6.66304,1.48877 z"
         id="path1000" />
      <path
         style="fill:#fe0000;stroke-width:0.32"
         d="m 135.78661,395.6 c 0.0794,-0.132 1.88078,-4.128 4.00304,-8.88 2.12226,-4.752 4.58579,-10.04854 5.4745,-11.77014 0.88871,-1.72157 1.61584,-3.35844 1.61584,-3.63751 0,-0.60707 15.17515,-34.6631 16.16272,-36.27235 0.83376,-1.35862 6.23728,-13.47427 6.23728,-13.98509 0,-0.51737 15.30262,-34.69382 15.79896,-35.28493 0.48476,-0.57733 3.72104,-7.85158 3.72104,-8.36385 0,-0.51801 3.42442,-8.18359 4.49933,-10.07178 1.17567,-2.06518 5.38753,-11.45233 5.80343,-12.93435 0.3984,-1.41964 12.08062,-27.62465 12.4111,-27.84 0.3354,-0.21856 3.84614,-8.03363 3.84614,-8.5617 0,-0.55758 15.3465,-34.97517 15.87518,-35.60327 0.51237,-0.60872 9.40482,-20.44718 9.40482,-20.98152 0,-0.53379 8.14252,-18.77101 9.27491,-20.77351 1.13951,-2.01508 10.56509,-23.11733 10.56509,-23.65341 0,-0.47196 2.92239,-7.04016 5.1422,-11.5573 0.86779,-1.7659 1.5778,-3.36189 1.5778,-3.54664 0,-0.18476 1.76887,-4.283936 3.93082,-9.109287 L 275.06163,84 l 24.17892,-0.082 24.17892,-0.082 4.0952,9.041997 c 2.25235,4.973101 5.38781,11.850003 6.96768,15.282003 1.57984,3.432 3.19325,7.176 3.58531,8.32 0.83901,2.44807 9.87987,22.36902 10.8921,24 0.90803,1.46305 9.44022,20.26104 9.44022,20.7985 0,0.54632 8.87799,20.09186 9.59383,21.1215 0.68944,0.99168 15.68617,34.07495 15.68617,34.6042 0,0.52878 3.52314,8.25006 4.21421,9.2358 0.69158,0.98648 11.62691,25.14791 12.04717,26.61804 0.40912,1.43118 5.44115,12.45776 5.96086,13.06196 0.53312,0.61976 4.65776,9.77176 4.65776,10.3349 0,0.54933 4.08464,9.50976 4.62467,10.1451 0.5289,0.62225 14.25222,30.86346 14.64397,32.26997 0.38832,1.39425 6.72345,15.37352 7.99267,17.63685 1.25392,2.23606 14.33869,31.04355 14.33869,31.56816 0,0.52236 3.32022,7.85129 4.47821,9.88502 0.68956,1.21107 7.18428,15.17318 8.22489,17.6816 0.13309,0.32083 -6.03235,0.38518 -30.65885,0.32 l -30.82543,-0.0816 -4.24941,-9.26026 c -2.33719,-5.09312 -4.24941,-9.4312 -4.24941,-9.64016 0,-0.54988 -1.5799,-4.05411 -2.08278,-4.61958 -0.52471,-0.59005 -11.31015,-24.06614 -11.73386,-25.54054 -0.42224,-1.46919 -3.73763,-8.75242 -4.25142,-9.33946 -0.23107,-0.264 -2.184,-4.332 -4.33987,-9.04 l -3.91972,-8.56 -1.79619,-0.0314 c -8.51229,-0.14863 -135.28785,0.12527 -135.4564,0.29265 -0.12114,0.12028 -1.70837,3.53071 -3.52718,7.57871 -1.8188,4.048 -3.54404,7.72 -3.83385,8.16 -0.55231,0.8385 -2.16791,4.55894 -2.73307,6.29379 -0.18165,0.55757 -5.63802,12.90557 -12.12527,27.44 L 197.28537,395.84 H 166.4638 c -16.95187,0 -30.7566,-0.108 -30.67719,-0.24 z m 209.663,-126.12963 c -0.1064,-0.33529 -1.62812,-3.74468 -3.38156,-7.57643 -1.75344,-3.83174 -3.18807,-7.1512 -3.18807,-7.37657 0,-0.54073 -3.17161,-7.50046 -3.69916,-8.11737 -0.54813,-0.64099 -21.26411,-45.97276 -21.56973,-47.2 -0.30877,-1.23991 -2.04391,-5.04063 -2.81527,-6.16666 -0.32904,-0.48034 -3.03447,-6.23238 -6.01207,-12.78231 -2.9776,-6.54994 -5.50566,-11.80594 -5.61791,-11.68 -0.11225,0.12593 -3.1937,6.92497 -6.84767,15.10897 -3.65396,8.184 -6.82559,15.096 -7.04806,15.36 -0.57649,0.68411 -2.36043,4.64455 -3.02697,6.72 -0.67883,2.11376 -17.77285,40.24623 -18.35645,40.94865 -0.52528,0.63222 -3.7267,7.793 -3.7267,8.3357 0,0.22644 -1.44,3.62965 -3.2,7.5627 -1.76,3.93305 -3.2,7.22344 -3.2,7.31197 0,0.0885 20.6737,0.16098 45.94156,0.16098 45.03293,0 45.93773,-0.0121 45.74806,-0.60963 z"
         id="path998" />
    </g>
  </g>
</svg>
