<?xml version="1.0" encoding="UTF-8" standalone="no"?><!-- Created with Inkscape (http://www.inkscape.org/) --><svg xmlns="http://www.w3.org/2000/svg" xmlns:cc="http://creativecommons.org/ns#" xmlns:dc="http://purl.org/dc/elements/1.1/" xmlns:inkscape="http://www.inkscape.org/namespaces/inkscape" xmlns:rdf="http://www.w3.org/1999/02/22-rdf-syntax-ns#" xmlns:sodipodi="http://sodipodi.sourceforge.net/DTD/sodipodi-0.dtd" xmlns:svg="http://www.w3.org/2000/svg" xmlns:xlink="http://www.w3.org/1999/xlink" height="512" id="svg3843" inkscape:version="1.1.2 (0a00cf5339, 2022-02-04)" sodipodi:docname="amber.svg" version="1.1" viewBox="0 0 511.99998 512" width="512">
  <metadata id="metadata3849">
    <rdf:RDF>
      <cc:Work rdf:about="">
        <dc:format>image/svg+xml</dc:format>
        <dc:type rdf:resource="http://purl.org/dc/dcmitype/StillImage"/>
      </cc:Work>
    </rdf:RDF>
  </metadata>
  <defs id="defs3847">
    <linearGradient id="linearGradient3364" inkscape:collect="always">
      <stop id="stop3360" offset="0" style="stop-color:#e49b00;stop-opacity:1;"/>
      <stop id="stop3362" offset="1" style="stop-color:#ffffff;stop-opacity:1"/>
    </linearGradient>
    <linearGradient gradientUnits="userSpaceOnUse" id="linearGradient3366" inkscape:collect="always" x1="320.16269" x2="433.98962" xlink:href="#linearGradient3364" y1="351.32318" y2="459.34277"><stop id="stop3360" offset="0" style="stop-color:#e49b00;stop-opacity:1;"/><stop id="stop3362" offset="1" style="stop-color:#ffffff;stop-opacity:1"/></linearGradient>
  </defs>
  <sodipodi:namedview bordercolor="#666666" borderopacity="1" gridtolerance="10" guidetolerance="10" id="namedview3845" inkscape:current-layer="svg3843" inkscape:cx="149.79757" inkscape:cy="261.53846" inkscape:pagecheckerboard="0" inkscape:pageopacity="0" inkscape:pageshadow="2" inkscape:window-height="695" inkscape:window-maximized="1" inkscape:window-width="1366" inkscape:window-x="0" inkscape:window-y="24" inkscape:zoom="0.6175" objecttolerance="10" pagecolor="#ffffff" showgrid="false"/>
  <ellipse cx="256" cy="256" id="path992" rx="222.5513" ry="250.84966" style="fill:url(#linearGradient3366);fill-opacity:1;stroke-width:2.02688"/>
  <path d="m 391.33509,437.96068 c -0.77366,-0.70109 -0.13666,-8.97431 1.41507,-18.38493 2.65916,-16.12433 2.1074,-19.25055 -9.57585,-54.25788 -6.81868,-20.4312 -20.24121,-57.03381 -29.82784,-81.33911 l -17.43028,-44.19146 -0.87376,-34.71504 -0.87377,-34.71503 -21.43983,-8.36594 c -21.02723,-8.20495 -21.70925,-8.2884 -35.43921,-4.33494 -13.62577,3.92344 -30.24232,15.02233 -30.24232,20.20012 0,2.43357 25.34563,1.41399 64.23354,-2.58387 14.61788,-1.50282 15.50466,-1.25072 15.50466,4.40797 0,3.30107 -5.87172,30.23357 -13.04824,59.85005 -7.1765,29.61644 -16.76851,77.57207 -21.31552,106.56808 -4.54698,28.99601 -8.81667,52.22215 -9.48817,51.61362 -2.80727,-2.54397 6.36125,-108.88252 11.23847,-130.34691 4.82144,-21.21881 4.86513,-23.04068 0.48122,-20.07204 -2.65185,1.79575 -19.61333,13.20242 -37.69217,25.3482 -36.83975,24.74973 -33.3978,18.84079 -38.58135,66.23371 l -2.34174,21.41017 -1.47663,-28.52697 -1.47665,-28.52693 -48.57268,50.66879 c -26.71498,27.86784 -51.1703,52.7482 -54.34513,55.28967 -3.17481,2.54145 19.0521,-24.057 49.39316,-59.10766 l 55.16559,-63.72852 -0.82047,-36.12368 -0.82047,-36.12364 -14.47701,35.62168 c -7.96233,19.59192 -15.33692,36.52384 -16.38791,37.62643 -1.05099,1.10263 -8.84224,-2.39234 -17.31386,-7.76657 -8.4716,-5.37426 -14.91685,-10.21183 -14.32278,-10.75017 0.59408,-0.53839 6.92463,1.39236 14.06785,4.29053 7.14323,2.89814 13.77691,4.42493 14.7415,3.39288 0.96462,-1.03207 8.58465,-19.71473 16.93342,-41.51706 12.46797,-32.55944 14.26552,-39.39903 10.06265,-38.28836 -2.81432,0.7437 -12.5128,3.24761 -21.55226,5.5642 -16.22728,4.15868 -16.56324,4.45161 -26.54052,23.1413 -10.95609,20.52317 -11.33982,18.36573 5.06592,28.48147 3.21932,1.98499 0.73816,1.69877 -6.10418,-0.70422 -6.34052,-2.22676 -11.82527,-3.73177 -12.18834,-3.34445 -4.68684,4.99938 -13.3313,25.56716 -15.76984,37.52119 -3.6404,17.84557 -8.88248,27.82197 -21.41675,40.75872 -11.455617,11.82349 -17.79929,12.49295 -6.87258,0.72528 10.71391,-11.53852 18.40461,-28.35169 20.82479,-45.52658 1.08816,-7.72227 3.62287,-17.05133 5.63267,-20.7312 9.60256,-17.58211 9.47781,-17.82614 -14.64112,-28.64115 -12.29474,-5.51299 -21.901189,-11.2549 -21.347676,-12.75978 0.55356,-1.50488 15.614676,-7.34047 33.469156,-12.96793 29.74877,-9.37645 32.74716,-10.94493 35.86636,-18.76182 1.87206,-4.69151 2.62995,-12.85104 1.68424,-18.13227 -1.45965,-8.15106 -0.55657,-10.43125 5.97547,-15.08746 4.77427,-3.40318 7.69499,-8.13241 7.69499,-12.45971 0,-14.82905 42.80851,-42.69279 64.46261,-41.95822 5.96512,0.20234 43.55673,0.98933 83.5369,1.74884 67.31228,1.27868 73.15808,1.77501 78.99988,6.70702 6.61719,5.58661 7.70794,9.68515 3.9884,14.98621 -4.25541,6.06467 -16.99981,7.97747 -40.50211,6.07896 -12.99437,-1.04968 -23.83764,-1.75542 -24.09615,-1.5683 -0.25841,0.18707 0.22415,5.87956 1.0723,12.64983 l 1.54232,12.30957 23.0085,8.52498 c 37.86351,14.02904 57.03161,29.06942 51.3917,40.32484 -2.61842,5.22549 -3.48637,5.03783 -24.86263,-5.37561 -28.12994,-13.70349 -47.4641,-21.95875 -48.73374,-20.80823 -0.54483,0.49376 0.12514,15.3473 1.48884,33.00795 2.10304,27.23546 4.51781,37.73735 15.90604,69.17606 7.38465,20.38618 18.92578,54.59597 25.64697,76.02176 11.48664,36.61706 12.09711,40.29673 10.16763,61.28712 -1.85311,20.15955 -3.61794,24.89271 -7.85128,21.05644 z m -124.2106,-184.2884 c 13.4789,-8.783 23.44618,-16.8605 22.1495,-17.94994 -3.4329,-2.88436 -61.04259,-34.60079 -61.60453,-33.91577 -0.26136,0.31841 -1.33304,18.43058 -2.3819,40.24923 l -1.90695,39.67033 9.61837,-6.04238 c 5.29015,-3.32329 20.64662,-13.22845 34.12551,-22.01147 z M 143.86215,226.09314 c 3.2317,-6.8321 5.34686,-12.90133 4.7004,-13.48717 -1.6601,-1.50436 -37.38411,7.7156 -37.27897,9.62128 0.0684,1.24133 22.40821,15.11296 25.85951,16.05718 0.46377,0.12685 3.48736,-5.35917 6.71906,-12.19129 z M 306.10664,215.0978 c 1.85131,-8.4637 4.05099,-17.56025 4.88817,-20.21452 1.39115,-4.41046 -0.72413,-4.79203 -24.56781,-4.43174 -42.46291,0.64162 -42.6599,0.85556 -16.39125,17.80168 12.53296,8.08514 24.73318,16.39515 27.11161,18.46667 2.37842,2.07154 4.60992,3.76646 4.95885,3.76646 0.3489,0 2.14911,-6.92486 4.00043,-15.38855 z m -104.50886,-30.2204 7.96974,-2.74588 -8.36255,-7.90994 c -4.59938,-4.35042 -8.6283,-7.62137 -8.95311,-7.26874 -0.32482,0.35263 -3.52717,5.91629 -7.1163,12.3637 l -6.52568,11.72252 7.50906,-1.70789 c 4.12998,-0.93933 11.09546,-2.94352 15.47884,-4.45377 z m 134.00229,-39.36263 c -0.0984,-10.18341 -4.38914,-12.10678 -14.53496,-6.51546 l -9.53253,5.25335 8.36479,2.76151 c 12.29651,4.05951 15.75318,3.72945 15.7027,-1.4994 z m -26.71185,-13.82502 10.15881,-4.90272 -17.50299,-4.61104 c -9.62662,-2.53605 -21.33078,-6.4048 -26.00927,-8.59717 l -8.50632,-3.98624 4.77575,6.17883 c 2.62666,3.39837 4.77576,8.83337 4.77576,12.07777 0,9.53397 16.45758,11.49036 32.30826,3.84057 z" id="path3853" inkscape:connector-curvature="0" style="opacity:0.62;fill:#000000;stroke-width:2.81135"/>
</svg>