<?xml version="1.0" encoding="UTF-8" standalone="no"?>
<!-- Created with Inkscape (http://www.inkscape.org/) -->

<svg
   version="1.1"
   id="svg834"
   width="512"
   height="512"
   viewBox="0 0 512 512"
   sodipodi:docname="andraxtool.svg"
   inkscape:version="1.2.2 (b0a8486541, 2022-12-01)"
   xml:space="preserve"
   inkscape:export-filename="../GIT Icons/andraxtool.png"
   inkscape:export-xdpi="96"
   inkscape:export-ydpi="96"
   xmlns:inkscape="http://www.inkscape.org/namespaces/inkscape"
   xmlns:sodipodi="http://sodipodi.sourceforge.net/DTD/sodipodi-0.dtd"
   xmlns="http://www.w3.org/2000/svg"
   xmlns:svg="http://www.w3.org/2000/svg"
   xmlns:rdf="http://www.w3.org/1999/02/22-rdf-syntax-ns#"
   xmlns:cc="http://creativecommons.org/ns#"
   xmlns:dc="http://purl.org/dc/elements/1.1/"><metadata
     id="metadata840"><rdf:RDF><cc:Work
         rdf:about=""><dc:format>image/svg+xml</dc:format><dc:type
           rdf:resource="http://purl.org/dc/dcmitype/StillImage" /></cc:Work></rdf:RDF></metadata><defs
     id="defs838"><linearGradient
       id="linearGradient883"
       inkscape:swatch="solid"><stop
         style="stop-color:#000000;stop-opacity:1;"
         offset="0"
         id="stop881" /></linearGradient><rect
       x="123.92838"
       y="227.62947"
       width="430.59602"
       height="320.49741"
       id="rect7321" /></defs><sodipodi:namedview
     pagecolor="#a4a4a4"
     bordercolor="#666666"
     borderopacity="1"
     objecttolerance="10"
     gridtolerance="10"
     guidetolerance="10"
     inkscape:pageopacity="0"
     inkscape:pageshadow="2"
     inkscape:window-width="1366"
     inkscape:window-height="691"
     id="namedview836"
     showgrid="false"
     inkscape:zoom="0.90504201"
     inkscape:cx="223.74652"
     inkscape:cy="254.68431"
     inkscape:window-x="0"
     inkscape:window-y="24"
     inkscape:window-maximized="1"
     inkscape:current-layer="svg834"
     inkscape:pagecheckerboard="true"
     inkscape:showpageshadow="0"
     inkscape:deskcolor="#a4a4a4" /><rect
     style="fill:#ffffff;fill-rule:evenodd;stroke-width:3.33295;stroke-linejoin:bevel;paint-order:markers stroke fill"
     id="rect2210"
     width="500"
     height="500"
     x="5.999999"
     y="5.999999"
     ry="49.511074" /><rect
     style="fill:#00ff00;fill-rule:evenodd;stroke-width:4.24043;stroke-linejoin:bevel;paint-order:markers stroke fill"
     id="rect2271"
     width="225.20488"
     height="104.89516"
     x="47.741623"
     y="20.853031"
     ry="0" /><path
     id="path381"
     style="fill:#000000;fill-rule:evenodd;stroke-width:3.671;stroke-linejoin:bevel;paint-order:normal;stroke:none;stroke-opacity:1;stroke-dasharray:none"
     d="M 45.613281 15.804688 L 39.171875 19.427734 C 30.108167 24.526618 23.88862 31.802147 19.539062 42.402344 L 15.804688 51.509766 L 15.804688 255.83984 L 15.804688 460.16797 L 19.539062 469.27539 C 23.88862 479.87559 30.108167 487.15308 39.171875 492.25195 L 45.613281 495.875 L 254.28125 496.13477 C 424.57773 496.3465 463.83632 496.06081 467.7793 494.57617 C 479.47054 490.1742 487.93633 481.24037 493.21484 467.73828 L 496.19531 460.11133 L 496.19531 255.83984 L 496.19531 51.570312 L 493.17578 43.835938 C 488.92594 32.961644 482.86248 25.50752 474.02734 20.289062 L 466.43555 15.804688 L 256.02539 15.804688 L 45.613281 15.804688 z M 131.89062 27.166016 C 132.24253 27.165442 136.62187 27.727337 138.66797 28.037109 C 147.09251 29.312502 154.98072 31.394656 161.55078 34.078125 C 163.09938 34.710641 162.91501 34.684274 166.61133 34.839844 C 170.72899 35.013147 174.37304 35.414052 178.99219 36.203125 L 180.25391 36.417969 L 180.36133 36.179688 C 180.60282 35.647825 179.34001 34.557778 176.72656 33.048828 L 175.88086 32.5625 L 176.88086 32.785156 C 180.93467 33.690058 185.72695 35.615759 187.57031 37.082031 L 188.23828 37.613281 L 188.47266 36.912109 C 188.83259 35.846359 188.46927 35.277961 186.85742 34.376953 C 185.91372 33.84964 185.87371 33.798469 186.50977 33.943359 C 187.58399 34.188066 189.34077 34.827233 190.37891 35.351562 C 193.42211 36.888615 195.02181 38.342345 194.9043 39.462891 L 194.8457 40.035156 L 196.93359 41.220703 C 199.83838 42.869362 202.64932 44.604923 203.11914 45.041016 C 203.63588 45.520622 207.79058 47.543897 209.80078 48.294922 C 211.4907 48.92628 213.45276 49.523057 215.50195 50.025391 C 216.6894 50.316479 216.80481 50.328555 217.21289 50.210938 C 217.45356 50.141548 218.14138 50.027837 218.74219 49.958984 C 220.66554 49.738538 221.37783 49.884383 225.06445 51.259766 C 226.51544 51.801098 227.91269 52.090024 229.375 52.148438 C 230.47077 52.192226 230.61693 52.174002 232.26562 51.798828 C 235.09106 51.155893 236.45852 51.268538 238.86719 52.339844 C 240.35887 53.003302 241.28654 53.764624 241.44922 54.458984 C 241.57406 54.991796 241.38019 55.06071 240.86133 54.673828 C 240.19354 54.175846 238.67906 53.931987 238.2832 54.257812 C 237.97755 54.509389 238.03801 54.717975 238.69531 55.632812 C 239.20083 56.336378 239.3087 56.619252 239.31445 57.277344 C 239.32245 58.197826 239.00343 58.655931 237.92969 59.271484 C 237.30595 59.629014 237.25097 59.70564 237.29688 60.136719 C 237.34146 60.55544 237.28197 60.640436 236.79297 60.888672 C 236.4228 61.076596 236.20152 61.301698 236.12109 61.568359 C 235.9756 62.050556 235.49878 62.474969 234.57031 62.949219 C 233.44164 63.525783 233.28531 63.455079 233.43945 62.441406 C 233.65994 60.991535 233.43806 60.919229 227.96875 60.603516 L 224.60352 60.408203 L 224.47852 60.664062 C 224.25742 61.114991 223.50394 61.661006 222.56055 62.058594 C 221.7143 62.415253 219.63801 63.079763 219.52344 63.029297 C 219.49624 63.017337 219.55267 62.762476 219.65039 62.464844 C 219.95041 61.550421 219.88231 60.742774 219.47461 60.392578 C 218.83884 59.846472 218.13343 59.63475 215.5 59.207031 C 211.43003 58.545996 209.89201 58.112254 206.13672 56.558594 C 201.80412 54.766119 198.55674 53.867922 192.81055 52.871094 C 185.30908 51.569771 180.71927 51.232434 177.5918 51.75 C 176.40881 51.945774 174.79211 52.393559 173.47852 52.890625 L 172.64844 53.205078 L 174.52344 53.619141 C 175.55535 53.84792 177.77055 54.306646 179.44336 54.638672 C 187.87918 56.313035 190.64632 57.142553 199.5918 60.669922 C 201.78732 61.535667 204.48231 62.561429 205.58008 62.949219 C 212.49684 65.392518 218.46067 66.428974 226.58203 66.595703 L 227.52539 66.613281 L 226.07812 67.09375 C 224.41521 67.644147 222.50561 68.086895 220.91992 68.289062 C 219.55041 68.46368 219.87299 68.469179 208.33594 67.953125 C 205.22187 67.813837 203.61602 67.61917 201.40625 67.105469 C 199.42966 66.645959 197.71428 66.104874 193.58398 64.644531 C 184.15304 61.310041 174.61005 59.521176 168.0625 59.861328 C 166.13218 59.961617 164.64636 60.14258 160.77344 60.746094 C 156.12467 61.470496 153.5782 61.343859 149.58008 60.183594 C 146.92384 59.412729 142.60962 57.640015 141.90234 57.029297 C 141.68671 56.843122 141.09262 56.408356 140.58008 56.0625 C 140.06754 55.716643 139.5073 55.24682 139.33594 55.019531 C 138.91964 54.467425 138.68545 53.376306 138.81055 52.572266 C 138.86655 52.212313 138.86002 51.917969 138.79492 51.917969 C 138.527 51.917969 137.91229 52.600768 137.70117 53.134766 C 137.10761 54.63621 138.31079 56.605513 140.82031 58.240234 C 141.81968 58.891228 144.20067 59.918439 145.57031 60.291016 C 146.16286 60.452208 146.64652 60.614871 146.64844 60.650391 C 146.6494 60.685881 146.18639 60.921892 145.61914 61.175781 C 141.03476 63.227742 140.94119 65.619791 145.33203 68.507812 C 149.42907 71.202591 155.0855 73.544246 172.21875 79.634766 C 177.06468 81.357391 180.99281 82.777054 184.30273 84.007812 L 101.30273 84.007812 C 100.72717 83.259991 100.23936 82.515553 99.808594 81.742188 C 99.079124 80.432541 98.250834 78.388981 98.0625 77.433594 C 97.98005 77.015247 97.857899 76.791162 97.722656 76.810547 C 97.315622 76.868867 95.680323 77.839447 95.121094 78.353516 C 93.996023 79.387722 93.432069 80.875969 93.419922 82.845703 L 93.414062 83.863281 L 93.009766 83.652344 C 91.893156 83.072141 90.67417 81.524515 90.107422 79.96875 C 88.529184 75.636272 90.126251 67.598869 93.818359 61.304688 C 94.234182 60.595785 94.536848 59.999908 94.488281 59.978516 C 94.36921 59.926026 92.434298 60.41422 91.144531 60.822266 C 88.918067 61.52666 87.723178 62.156211 85.804688 63.640625 C 84.902062 64.339038 84.770406 64.408991 84.716797 64.203125 C 84.528638 63.48072 85.760913 61.006 87.333984 58.951172 C 90.954015 54.222602 98.226113 48.742471 107.16992 44.003906 L 109.06641 43 L 108.24023 42.974609 C 107.7863 42.959979 106.85443 42.988626 106.16992 43.041016 C 104.12595 43.197423 102.82869 43.474319 99.152344 44.535156 L 98.699219 44.667969 L 98.992188 44.419922 C 99.898972 43.651845 103.15616 42.26281 106.54297 41.201172 C 112.934 39.197818 122.47399 37.326874 132.63672 36.083984 C 133.86764 35.933449 134.85087 35.780801 134.82227 35.746094 C 134.70017 35.597849 131.32945 33.788004 129.66211 32.974609 C 125.9226 31.150332 121.17442 29.534551 115.57227 28.183594 C 114.31769 27.881047 113.43548 27.636739 113.61328 27.636719 C 115.31218 27.636027 122.85563 28.678893 126.59766 29.433594 C 133.468 30.819239 138.29488 32.227006 142.29883 34.009766 L 144.50391 34.992188 L 145.24609 34.912109 C 145.65343 34.869209 147.11864 34.811173 148.50391 34.78125 C 149.88918 34.7513 151.02344 34.710676 151.02344 34.691406 C 151.02344 34.590276 149.82024 33.777016 148.63281 33.076172 C 145.47724 31.213737 139.90556 29.202894 133.56836 27.636719 C 132.59437 27.396016 131.82932 27.184646 131.86719 27.167969 C 131.87019 27.166988 131.87924 27.166016 131.89062 27.166016 z M 179.52539 42.560547 C 178.92191 42.560893 178.31008 42.603991 177.69727 42.689453 C 176.42249 42.867364 174.02344 43.423012 174.02344 43.541016 C 174.02344 43.581256 174.30688 43.779204 174.65039 43.978516 C 175.65574 44.561851 176.87973 44.798607 179.88477 44.988281 C 182.63169 45.161664 184.16771 45.367699 185.00586 45.675781 C 185.77525 45.958567 186.45969 46.092281 188.55859 46.380859 C 189.59994 46.524041 190.55922 46.642578 190.69141 46.642578 C 190.82356 46.642578 190.1441 46.293521 189.17969 45.867188 C 188.21528 45.440854 186.46229 44.632923 185.28516 44.072266 C 183.67336 43.304583 182.88928 42.997747 182.11133 42.830078 C 181.27309 42.64942 180.40742 42.560034 179.52539 42.560547 z M 220.34961 51.595703 C 219.74014 51.599603 219.16177 51.746373 218.54492 52.029297 C 218.01792 52.271029 216.93208 53.094039 217.06445 53.152344 C 217.09445 53.165584 217.57322 53.134421 218.12695 53.082031 C 219.74442 52.929231 222.18996 53.020927 223.63867 53.289062 C 224.31826 53.414845 224.99788 53.541596 225.14844 53.570312 C 225.6446 53.664922 223.77566 52.582744 222.64844 52.123047 C 221.77142 51.765368 221.04034 51.59086 220.34961 51.595703 z M 71.355469 70.673828 L 78.673828 70.673828 L 85.992188 70.673828 L 85.992188 71.242188 L 85.992188 71.810547 L 85.775391 71.896484 C 85.010603 72.20349 84.507449 72.668516 84.302734 73.257812 C 84.224194 73.484043 84.216777 73.547994 84.216797 73.986328 C 84.216814 74.546038 84.282319 74.926397 84.486328 75.542969 C 84.573208 75.805538 97.757278 107.50576 98.386719 108.96484 C 98.401379 108.99884 98.40959 104.3276 98.40625 98.583984 L 98.400391 88.140625 L 98.330078 87.939453 C 98.192373 87.548325 97.987457 87.331098 97.548828 87.109375 L 97.3125 86.990234 L 97.302734 86.628906 L 97.292969 86.269531 L 101.33008 86.269531 L 105.36719 86.269531 L 105.36719 86.638672 L 105.36719 87.007812 L 105.2168 87.076172 C 104.60325 87.363151 104.45752 88.123251 104.86523 88.904297 C 104.94383 89.054943 107.74198 93.007769 111.5957 98.410156 L 118.19141 107.65625 L 118.20117 98.005859 C 118.20817 90.958833 118.19983 88.30059 118.17383 88.146484 C 118.09463 87.683199 117.82091 87.336562 117.35742 87.115234 L 117.11914 87.003906 L 117.11914 86.636719 L 117.11914 86.269531 L 120.59375 86.269531 L 124.06836 86.269531 L 124.06836 86.636719 L 124.06836 87.003906 L 123.83789 87.113281 C 123.3684 87.33886 123.0951 87.682458 123.01562 88.146484 C 122.98904 88.301618 122.97963 92.068707 122.98633 102.37305 L 122.99805 116.39062 L 123.06836 116.59375 C 123.2053 116.98257 123.42898 117.21491 123.86914 117.42578 L 124.07031 117.52344 L 124.07031 117.89453 L 124.07031 118.26172 L 120.33984 118.26172 L 116.60938 118.26172 L 116.60938 117.89453 L 116.60938 117.52344 L 116.75977 117.45898 C 117.18805 117.27651 117.42159 116.78132 117.29883 116.31836 C 117.24263 116.10667 117.05875 115.7349 116.83398 115.38477 C 116.67083 115.13059 103.27533 96.465226 103.20117 96.388672 C 103.16327 96.349522 103.15802 97.806082 103.16602 106.30469 C 103.17502 115.58038 103.17957 116.28167 103.23047 116.46094 C 103.36066 116.91998 103.60035 117.20156 104.0332 117.4082 L 104.27734 117.52734 L 104.27734 117.89453 L 104.27734 118.25977 L 104.01367 118.27148 L 103.75 118.2793 L 103.99805 118.35352 L 104.24609 118.42969 L 104.24609 118.99609 L 104.24609 119.56445 L 96.671875 119.56445 L 89.099609 119.56445 L 89.099609 118.99609 L 89.099609 118.42969 L 89.363281 118.35742 C 90.435938 118.07343 91.004571 117.42483 91.074219 116.40039 C 91.110019 115.87378 90.967004 115.23657 90.603516 114.29883 C 90.495513 114.02022 89.785929 112.28911 89.025391 110.45117 L 87.640625 107.10938 L 78.275391 107.10938 L 68.912109 107.10938 L 67.748047 109.98633 C 65.747971 114.93376 65.753994 114.91163 65.621094 115.66016 C 65.512091 116.27411 65.557293 116.71237 65.771484 117.14453 C 65.863494 117.33018 65.950512 117.43872 66.166016 117.64648 C 66.480285 117.94948 66.748858 118.11298 67.244141 118.30273 L 67.578125 118.43164 L 67.578125 118.99805 L 67.578125 119.56445 L 60.757812 119.56445 L 53.935547 119.56445 L 53.935547 118.99805 L 53.935547 118.43164 L 54.263672 118.32812 C 55.083956 118.06816 55.60034 117.70324 56.021484 117.08789 C 56.253857 116.74835 56.61409 116.06783 56.857422 115.50977 C 57.148793 114.84154 72.431469 76.949505 72.611328 76.449219 C 72.971657 75.446924 73.097903 74.859495 73.095703 74.203125 C 73.094503 73.846968 73.078981 73.704938 73.025391 73.513672 C 72.833956 72.830512 72.3135 72.257511 71.564453 71.912109 L 71.355469 71.816406 L 71.355469 71.244141 L 71.355469 70.673828 z M 204.44141 71.107422 L 213.42773 71.107422 L 222.41602 71.107422 L 222.41602 71.662109 L 222.41602 72.212891 L 222.16797 72.298828 C 221.17906 72.637615 220.61914 73.186597 220.47461 73.958984 C 220.41211 74.293106 220.43239 74.54509 220.55469 74.912109 C 220.7875 75.611147 221.18807 76.243227 222.8125 78.464844 C 223.48334 79.382302 225.11453 81.611546 226.43555 83.417969 C 227.75656 85.224384 228.85083 86.696448 228.86719 86.691406 C 228.90629 86.679446 236.03574 77.070438 236.42578 76.503906 C 236.93707 75.761286 237.2658 75.173798 237.43359 74.701172 C 237.68112 74.003916 237.49031 73.294534 236.94141 72.865234 C 236.61482 72.609793 236.07252 72.375682 235.58984 72.283203 C 235.48755 72.263633 235.37649 72.240922 235.3457 72.232422 C 235.2954 72.218482 235.28906 72.164064 235.28906 71.662109 L 235.28906 71.107422 L 244.01758 71.107422 L 252.74219 71.107422 L 252.74219 71.662109 L 252.74219 72.21875 L 252.62305 72.236328 C 251.55675 72.399588 250.93073 72.624095 250.49609 72.994141 C 250.15816 73.281848 249.25676 74.336981 248.03125 75.886719 C 247.66801 76.346068 244.4021 80.5914 240.77148 85.318359 L 234.16992 93.914062 L 241.01172 103.3418 C 248.66028 113.88168 248.29162 113.37651 249.04688 114.34961 C 250.43938 116.14377 251.00428 116.68958 251.87109 117.08789 C 252.23652 117.25581 252.80064 117.4388 253.23242 117.52539 L 253.57617 117.5918 L 253.57617 118.14453 L 253.57617 118.69727 L 244.70508 118.69727 L 235.83594 118.69727 L 235.83594 118.14648 L 235.83594 117.59375 L 236.14258 117.51172 C 236.92492 117.29926 237.44424 116.93393 237.67188 116.43555 C 237.77199 116.21639 237.83253 115.86133 237.80469 115.65625 C 237.75189 115.26685 237.44745 114.61854 237.00195 113.94531 C 236.87077 113.74708 234.79348 110.89384 232.38672 107.60352 L 228.00977 101.61914 L 227.89258 101.7793 C 227.55323 102.24035 219.72611 113.14217 219.50977 113.45508 C 218.78746 114.49981 218.47561 115.17565 218.47656 115.69531 C 218.47956 116.71605 219.16464 117.38028 220.39062 117.55273 L 220.65625 117.58984 L 220.65625 118.14258 L 220.65625 118.69727 L 212.07227 118.69727 L 203.49023 118.69727 L 203.49023 118.14453 L 203.49023 117.5918 L 203.80273 117.54297 C 204.77271 117.38785 205.41822 117.07376 206.04688 116.45508 L 206.38281 116.12695 L 206.36133 115.87305 C 206.32943 115.46387 206.20295 115.07381 205.27734 112.52344 L 204.40234 110.11133 L 199.00586 110.11133 L 193.61133 110.11133 L 193.01172 111.79688 C 191.78152 115.25628 191.738 115.38885 191.6875 115.94336 C 191.6616 116.22746 191.72668 116.55761 191.85156 116.7793 C 192.00458 117.05095 192.34341 117.32523 192.68945 117.46094 L 192.85742 117.5293 L 192.85742 117.89648 L 192.85742 118.26172 L 188.91797 118.26172 L 184.98047 118.26172 L 184.98047 117.89453 L 184.98047 117.52539 L 185.09961 117.48828 C 185.39368 117.39608 185.67213 117.22965 185.89453 117.01367 C 186.08571 116.82802 186.15216 116.73254 186.31836 116.40625 C 186.4267 116.19353 186.57839 115.85265 186.65625 115.64844 C 186.82179 115.21416 195.62943 90.395725 195.74805 90.029297 C 195.99334 89.271621 196.08437 88.531697 195.98242 88.113281 C 195.8804 87.69456 195.62183 87.351741 195.22852 87.117188 L 195.03516 87.003906 L 195.03516 86.636719 L 195.03516 86.269531 L 199.23047 86.269531 L 203.42383 86.269531 L 203.42383 86.638672 L 203.42383 87.009766 L 203.20117 87.123047 C 202.91006 87.270846 202.62508 87.558416 202.53125 87.800781 C 202.38021 88.190865 202.38896 88.689917 202.55469 89.322266 C 202.64719 89.675486 210.40272 110.86719 210.43945 110.86719 C 210.46115 110.86719 222.66051 94.501484 222.67773 94.449219 C 222.68573 94.424999 211.13199 78.3091 209.73828 76.400391 C 208.53551 74.753201 207.68627 73.702258 207.15234 73.207031 C 206.612 72.705835 205.9095 72.419914 204.84766 72.267578 C 204.6565 72.240198 204.49693 72.213251 204.49023 72.207031 C 204.48323 72.201031 204.46898 71.951578 204.45898 71.652344 L 204.44141 71.107422 z M 78.375 83.044922 C 78.36013 83.030292 71.795708 99.865512 71.619141 100.37109 C 71.608371 100.40189 72.963364 100.41016 78.322266 100.41016 C 84.70346 100.41016 85.038557 100.40657 85.023438 100.35547 C 84.984528 100.22306 78.394187 83.063803 78.375 83.044922 z M 128.35938 86.269531 L 135.46094 86.269531 C 140.00413 86.269531 142.74872 86.280321 143.07617 86.300781 C 145.51425 86.453305 147.24107 86.929754 148.64648 87.833984 C 150.71746 89.166426 152.2645 91.309592 153.27539 94.251953 C 153.88334 96.021405 154.21377 97.728509 154.40234 100.06836 C 154.46694 100.86845 154.45712 103.8366 154.38672 104.66797 C 154.21764 106.66591 153.95266 108.13013 153.47852 109.69141 C 152.58466 112.63475 150.92195 115.09537 148.86133 116.52148 C 147.36627 117.55619 145.57456 118.07247 142.94727 118.23047 C 142.63371 118.24927 139.70298 118.26172 135.39648 118.26172 L 128.35938 118.26172 L 128.35938 117.89258 L 128.35938 117.52148 L 128.55859 117.42383 C 129.0037 117.20893 129.22441 116.98255 129.36133 116.59375 L 129.43164 116.39062 L 129.44141 102.36523 C 129.45041 86.930371 129.46548 88.113387 129.25586 87.701172 C 129.13586 87.465154 128.91394 87.26713 128.59375 87.113281 L 128.35938 87.003906 L 128.35938 86.636719 L 128.35938 86.269531 z M 158.20703 86.269531 L 166.19141 86.269531 C 171.34153 86.269531 174.35534 86.280221 174.68555 86.300781 C 177.38409 86.469606 178.88873 87.00204 180.23633 88.263672 C 181.38302 89.337192 182.09981 90.754089 182.53125 92.800781 C 182.72982 93.742685 182.81406 94.635056 182.81445 95.769531 C 182.81522 97.990238 182.47563 99.659658 181.72656 101.11914 C 180.91318 102.70395 179.64479 103.83195 177.92969 104.49219 C 177.52008 104.64988 176.78589 104.86959 176.53516 104.91016 C 176.46026 104.92236 176.39844 104.94704 176.39844 104.96484 C 176.39844 105.00424 181.09331 114.01294 181.49805 114.75 C 181.82682 115.34877 182.23344 116.04279 182.44336 116.36133 C 182.88043 117.02453 183.31492 117.35585 183.90039 117.47852 L 184.14648 117.53125 L 184.14648 117.89648 L 184.14648 118.26172 L 179.85547 118.26172 L 175.56445 118.26172 L 175.56445 117.89062 L 175.56445 117.52148 L 175.65234 117.50195 C 175.8236 117.46185 176.06758 117.34165 176.18945 117.23828 C 176.46305 117.00617 176.49989 116.69599 176.31836 116.17188 C 176.13855 115.65268 175.81883 115.00224 173.26367 109.98633 L 170.83594 105.22266 L 167.66016 105.21484 L 164.48438 105.20312 L 164.49414 110.75195 C 164.50414 115.8567 164.50654 116.31303 164.55664 116.49023 C 164.68621 116.94874 164.89152 117.18856 165.33398 117.40039 L 165.60547 117.5293 L 165.60547 117.89648 L 165.60547 118.26172 L 161.90625 118.26172 L 158.20703 118.26172 L 158.20703 117.89453 L 158.20703 117.52539 L 158.44141 117.41406 C 158.89538 117.19734 159.15271 116.88893 159.25 116.44531 C 159.3176 116.13501 159.318 88.401847 159.25 88.091797 C 159.1522 87.646067 158.90221 87.338755 158.45703 87.119141 L 158.20703 86.994141 L 158.20703 86.632812 L 158.20703 86.269531 z M 217.3125 91.166016 C 217.3592 91.193396 217.40688 91.222074 217.44531 91.246094 C 217.44931 91.249994 217.45208 91.254144 217.45508 91.257812 C 217.43168 91.244864 217.40972 91.235338 217.35742 91.205078 C 217.34452 91.193708 217.3289 91.179766 217.3125 91.166016 z M 134.63672 91.525391 L 134.63672 102.26367 L 134.63672 113.00195 L 138.02344 113.00195 C 139.96194 113.00166 141.64345 112.9889 141.95508 112.9707 C 143.22565 112.8966 144.32077 112.65826 145.09375 112.28516 C 145.59346 112.04396 146.16769 111.61602 146.60352 111.16406 C 148.11803 109.59348 148.95049 107.14727 149.14648 103.69141 C 149.19478 102.83993 149.16776 100.83953 149.09766 100.09961 C 148.79094 96.856632 147.91759 94.626496 146.38867 93.169922 C 145.46451 92.289516 144.32659 91.811759 142.64258 91.601562 C 142.25769 91.553514 141.79517 91.546989 138.42383 91.537109 L 134.63672 91.525391 z M 164.48438 91.529297 L 164.48438 95.716797 C 164.48438 98.019921 164.49461 99.914793 164.50781 99.927734 C 164.54651 99.965694 173.75767 99.925276 174.20312 99.884766 C 174.97916 99.815066 175.37759 99.723623 175.80469 99.517578 C 176.46947 99.196871 176.88661 98.782925 177.21875 98.105469 C 177.50903 97.513404 177.64848 96.751762 177.65039 95.753906 C 177.65439 93.790311 177.11677 92.637298 175.88477 91.96875 C 175.6278 91.829304 175.18092 91.695519 174.79492 91.640625 C 174.13495 91.546815 173.29309 91.531843 168.89648 91.53125 L 164.48438 91.529297 z M 199.07227 94.382812 C 199.06007 94.361064 198.18203 96.889426 197.11914 100 C 196.05625 103.11059 195.17951 105.67208 195.17188 105.69336 C 195.16028 105.72416 195.94124 105.73242 199.01758 105.73242 C 202.08608 105.73242 202.88086 105.72396 202.88086 105.69336 C 202.88086 105.65086 199.10824 94.446712 199.07227 94.382812 z " /><rect
     style="fill:#000000;fill-opacity:1;fill-rule:evenodd;stroke:#00ff00;stroke-width:8;stroke-linejoin:bevel;stroke-dasharray:none;stroke-opacity:1;paint-order:normal;stroke-linecap:round"
     id="rect940"
     width="437.82184"
     height="331.7912"
     x="37.089081"
     y="136.90196"
     ry="10.946432" /><path
     style="fill:#00ff00;stroke-width:0.617634"
     d="m 245.5213,442.34309 c -14.77411,-4.26491 -16.49204,-5.01702 -20.11133,-8.8048 -4.63918,-4.85512 -8.51003,-10.11542 -9.99212,-13.57877 -4.48563,-10.48201 -4.28378,-9.57084 -4.18083,-18.87406 0.0921,-8.31748 2.1559,-23.12627 2.92267,-20.97118 0.17588,0.49432 0.82123,2.51654 1.43412,4.49383 2.38809,7.7044 7.08524,15.0326 13.9693,21.79404 9.02982,8.869 18.44673,13.85697 26.16087,13.85697 8.83559,0 22.29576,-8.42023 31.05536,-19.42715 3.46915,-4.35921 8.0244,-13.13502 9.35433,-18.0214 l 1.14155,-4.19423 0.44201,2.99588 c 0.24311,1.64774 0.73017,3.93959 1.08237,5.09301 0.35221,1.15341 0.79196,6.56379 0.97725,12.02306 l 0.3369,9.92594 -2.52627,6.55142 c -2.8671,7.43528 -6.32653,12.49822 -12.80391,18.73876 -3.99676,3.85062 -4.58046,4.187 -9.97523,5.74836 -3.15155,0.91213 -8.38366,2.44011 -11.62693,3.3955 -3.24327,0.9554 -6.68132,1.71617 -7.6401,1.69061 -0.95878,-0.0256 -5.46778,-1.12168 -10.02001,-2.43579 z m -66.38705,-63.25862 c -3.69315,-8.69906 -7.06806,-15.59494 -13.46813,-27.51909 -9.77772,-18.21721 -16.4475,-28.54355 -39.26077,-60.78469 -9.31072,-13.15849 -16.19603,-23.57084 -18.41239,-27.84429 -3.80092,-7.32868 -6.05413,-14.35646 -6.02155,-18.78127 0.0239,-3.25429 0.0394,-3.23946 4.75481,4.5642 4.07323,6.74092 8.6903,11.07329 16.09011,15.09792 7.13074,3.8783 7.35454,4.11248 13.22506,13.83783 1.09409,1.81251 3.07937,5.04805 4.41173,7.19011 4.71264,7.57659 10.04072,16.56184 13.85667,23.3679 4.27631,7.62715 17.03891,31.6061 17.03891,32.0135 0,0.14213 0.83674,1.96242 1.8594,4.04509 4.4287,9.01904 7.98922,18.83108 9.02413,24.86855 0.8073,4.70972 0.51153,13.0725 -0.49588,14.02057 -0.40582,0.38192 -1.3121,-1.03781 -2.6021,-4.07633 z m 150.51841,2.37796 c -1.52252,-8.66875 0.94621,-19.58768 7.68801,-34.00327 5.07813,-10.85826 17.46554,-34.49916 21.20125,-40.46177 1.04453,-1.6672 1.89915,-3.20418 1.89915,-3.41551 0,-0.96443 18.7309,-31.39347 21.3135,-34.62458 0.79448,-0.99398 4.44316,-3.46753 8.10818,-5.49679 6.36374,-3.52348 11.32932,-7.70643 13.39098,-11.28039 0.43976,-0.76233 2.08883,-3.46164 3.66459,-5.99843 l 2.86504,-4.61236 0.20298,2.24969 c 0.37436,4.14897 -1.73768,11.06642 -5.57437,18.25746 -4.03383,7.56055 -10.15777,16.7469 -26.22523,39.33975 -20.26873,28.5004 -35.82907,55.1825 -45.21033,77.52447 -1.10126,2.62275 -2.21085,4.76864 -2.46571,4.76864 -0.25487,0 -0.64098,-1.01112 -0.85804,-2.24691 z M 203.18244,329.27138 c -9.5113,-5.79358 -25.67037,-24.02735 -32.74963,-36.95443 -3.26189,-5.95637 -6.86215,-15.16543 -6.27714,-16.05623 0.5273,-0.80295 12.92186,-0.0517 18.01651,1.09197 8.60884,1.93262 17.96349,4.81602 18.45353,5.68797 0.27998,0.49818 0.8457,4.41096 1.25718,8.69506 1.78749,18.61091 3.35296,27.69155 6.03511,35.007 0.89716,2.44693 1.63119,4.67136 1.63119,4.9432 0,1.05527 -1.77629,0.38163 -6.36675,-2.41454 z m 98.698,2.20018 c 0.007,-0.43415 0.72079,-2.6762 1.58534,-4.98234 2.30792,-6.15631 3.94748,-15.1445 5.41044,-29.66049 0.71407,-7.08526 1.43383,-13.28675 1.59949,-13.78106 0.27357,-0.81628 2.85745,-1.66301 13.99323,-4.58551 9.40969,-2.46948 21.67413,-3.41669 22.36304,-1.72714 0.51144,1.2543 -2.0186,8.12368 -5.2765,14.32636 -2.56448,4.88247 -8.32556,13.08718 -14.98844,21.34593 -3.12222,3.87005 -16.80192,16.77695 -17.78146,16.77695 -0.37048,0 -1.4341,0.50389 -2.36357,1.11975 -2.40844,1.59579 -4.55825,2.14846 -4.54157,1.16755 z M 216.8145,283.05895 c -3.47067,-1.64153 -8.60234,-4.20443 -11.4037,-5.69534 -5.41527,-2.88204 -13.92863,-5.60236 -22.28362,-7.12041 -2.80137,-0.50899 -9.67745,-1.76097 -15.28019,-2.78219 -22.01389,-4.01248 -32.11555,-8.29079 -45.15417,-19.12399 -6.78504,-5.63737 -11.53968,-11.1856 -14.85369,-17.33289 -2.75257,-5.10587 -3.04257,-6.04703 -3.24254,-10.52314 -0.19651,-4.39886 -0.0241,-5.32129 1.63948,-8.77285 2.0179,-4.18668 5.55048,-8.02388 6.75122,-7.33343 0.40829,0.23479 3.16332,1.98929 6.12226,3.8989 7.25175,4.68007 7.67193,4.63006 7.67193,-0.91304 0,-6.26723 1.39261,-10.13895 4.80046,-13.34609 4.29331,-4.04043 4.67807,-3.74524 4.6185,3.54323 -0.0559,6.83845 0.7957,11.1696 3.08419,15.68587 2.08108,4.10695 3.18803,5.20371 7.5791,7.5094 3.49447,1.8349 4.33489,2.01303 10.67631,2.26283 7.0238,0.27668 15.50108,-0.66377 17.33036,-1.92259 0.81637,-0.5618 0.588,-0.85855 -1.43316,-1.86225 -9.01185,-4.47529 -19.18052,-12.78098 -25.29728,-20.66265 -8.67701,-11.18062 -14.05353,-23.65076 -12.09098,-28.04339 1.03279,-2.31164 2.73511,-2.85334 14.5575,-4.63236 5.57506,-0.83891 13.57244,-2.35984 17.77196,-3.37981 12.55127,-3.04844 16.377,-2.24824 35.759,7.47927 14.75459,7.4051 22.73261,9.89994 41.70221,13.04089 7.33026,1.21374 10.31585,1.11507 21.01026,-0.69437 18.71844,-3.16708 28.77226,-6.52015 44.38458,-14.80278 3.08421,-1.63623 7.71181,-3.81762 10.28357,-4.84756 4.30793,-1.72522 5.23903,-1.87259 11.83133,-1.87259 5.48152,0 8.01554,0.27851 10.83218,1.1905 2.02222,0.65476 8.95383,2.0134 15.40359,3.01919 6.44978,1.0058 12.41745,2.07584 13.26151,2.37784 4.99082,1.78575 4.03532,8.65273 -2.90488,20.87673 -3.93385,6.92882 -7.15891,11.10717 -12.95913,16.78967 -4.48009,4.38916 -13.44459,10.72217 -18.74178,13.24022 -1.59652,0.75892 -2.54349,1.54637 -2.22268,1.84828 1.3838,1.30231 9.12897,2.56297 15.82776,2.57624 6.34583,0.0126 7.38008,-0.14592 11.01478,-1.68813 8.61556,-3.65559 12.47205,-10.7143 12.61051,-23.08157 0.0923,-8.24471 0.60183,-8.69765 4.8188,-4.2836 3.00044,3.14065 4.34019,6.23332 4.35167,10.04529 0.0132,4.42544 0.70395,6.82101 1.96646,6.82101 0.9999,0 6.01553,-2.84301 11.2631,-6.38426 1.39093,-0.93866 1.54247,-0.90787 3.291,0.66867 1.00811,0.90895 2.74593,3.26469 3.86181,5.23501 1.79589,3.17099 2.03117,4.14395 2.04882,8.47262 0.017,4.16084 -0.27525,5.54154 -1.9591,9.25666 -1.08847,2.40153 -3.05716,5.90671 -4.37485,7.7893 -3.13759,4.48264 -11.95242,12.77653 -18.26625,17.18673 -5.40824,3.77766 -15.66719,8.9249 -19.80327,9.93594 -1.40069,0.3424 -3.97923,1.01105 -5.73009,1.4859 -1.75084,0.47486 -10.63246,2.21817 -19.7369,3.87403 -21.16056,3.84856 -26.27237,5.43406 -35.65378,11.05862 -1.75086,1.04971 -5.18363,2.83325 -7.62839,3.96342 -7.17148,3.31526 -12.49351,2.87252 -29.88627,-2.48619 -3.12452,-0.96267 -6.35988,-1.75031 -7.18971,-1.75031 -0.82982,0 -5.00625,1.05706 -9.28091,2.34902 -19.80084,5.98453 -21.76972,6.1034 -30.74889,1.8565 z m 9.60656,-15.71211 c 2.34306,-1.10433 11.14182,-6.92855 11.14182,-7.37519 0,-1.07873 -1.10635,-2.14235 -2.76394,-2.65718 -4.24133,-1.31732 -16.8265,-3.48663 -18.49065,-3.18725 -2.13409,0.38393 -3.29491,1.96919 -4.18187,5.71092 -1.79207,7.55996 5.76434,11.52919 14.29464,7.5087 z m 69.92511,0.06 c 1.8608,-0.79791 3.62159,-4.09244 3.58023,-6.69883 -0.0451,-2.84299 -1.91724,-6.00043 -3.95798,-6.67538 -2.2619,-0.74806 -11.27045,0.43772 -16.98276,2.23542 -6.00269,1.88907 -5.95249,2.95017 0.32935,6.96132 8.22135,5.2496 12.23495,6.23407 17.03116,4.17747 z"
     id="path293" /><g
     id="g962"
     transform="translate(-250.77922,-19.035374)"><path
       id="path1620"
       style="fill:#00ff00;fill-rule:evenodd;stroke-width:3.90017;stroke-linejoin:bevel;paint-order:markers stroke fill"
       d="m 569.47752,67.444226 c -5.33744,0.09184 -10.60129,1.975692 -14.36724,5.265735 -3.79705,3.279551 -6.4389,7.461644 -8.19127,11.821053 -2.47519,6.340136 -1.89231,13.499631 1.57882,19.479166 2.60396,4.62734 6.78296,8.46096 11.49152,11.54288 2.28095,1.52072 5.259,1.79944 8.04474,1.64886 4.9678,-0.22212 10.26163,-0.3237 14.61394,-2.68351 6.28717,-3.29149 10.37662,-9.10917 11.92888,-15.237751 2.07322,-8.088615 0.29106,-17.112764 -5.77004,-23.654546 -3.6239,-3.811122 -8.48371,-7.05112 -14.23001,-7.877677 -1.67953,-0.264342 -3.3945,-0.345699 -5.09934,-0.30421 z" /><path
       id="path1622"
       style="fill:#ffff00;fill-rule:evenodd;stroke-width:3.90782;stroke-linejoin:bevel;paint-order:markers stroke fill"
       d="m 629.8226,67.469984 c -6.57528,0.168409 -12.67979,3.292982 -16.74989,7.644655 -4.80721,5.077521 -7.47731,11.636548 -7.24824,18.199436 0.18264,7.097875 3.27307,14.355085 9.42563,19.214365 3.09126,2.46622 7.06977,4.05573 11.25182,4.48905 6.34935,0.6885 13.11409,-0.41125 18.40769,-3.59951 6.42102,-3.97378 10.09868,-10.62757 10.75882,-17.324272 0.99285,-9.090261 -3.24027,-18.661514 -11.61018,-24.384717 -4.00754,-2.756506 -9.07574,-4.411018 -14.23565,-4.239007 z" /><path
       id="path1624"
       style="fill:#ff0000;fill-rule:evenodd;stroke-width:3.89376;stroke-linejoin:bevel;paint-order:markers stroke fill"
       d="m 689.65843,67.463493 c -6.66483,0.21347 -12.79037,3.499031 -16.8495,7.977173 -6.12743,6.695087 -8.68109,15.956681 -6.01817,24.257275 1.39914,4.553139 4.79363,8.363909 8.36992,11.802449 2.10827,1.94236 4.39667,3.86933 7.22963,4.98317 3.30379,1.15959 6.94616,0.64121 10.40044,0.51006 3.97325,-0.22958 8.04559,-0.98989 11.31062,-3.07562 6.32917,-3.74703 10.11111,-10.08894 11.23709,-16.566649 1.39648,-7.895403 -0.80627,-16.482926 -6.98221,-22.545353 -3.40732,-3.324851 -7.78974,-6.118762 -12.91427,-6.957947 -1.90201,-0.32518 -3.84722,-0.44228 -5.78355,-0.384558 z" /></g></svg>
