<?xml version="1.0" encoding="UTF-8" standalone="no"?>
<svg
   viewBox="0 0 512 512"
   height="512"
   width="512"
   id="svg885"
   version="1.1"
   sodipodi:docname="antiphishing.svg"
   inkscape:version="1.2.2 (b0a8486541, 2022-12-01)"
   xmlns:inkscape="http://www.inkscape.org/namespaces/inkscape"
   xmlns:sodipodi="http://sodipodi.sourceforge.net/DTD/sodipodi-0.dtd"
   xmlns="http://www.w3.org/2000/svg"
   xmlns:svg="http://www.w3.org/2000/svg"
   xmlns:rdf="http://www.w3.org/1999/02/22-rdf-syntax-ns#"
   xmlns:cc="http://creativecommons.org/ns#"
   xmlns:dc="http://purl.org/dc/elements/1.1/">
  <sodipodi:namedview
     id="namedview10903"
     pagecolor="#505050"
     bordercolor="#eeeeee"
     borderopacity="1"
     inkscape:pageshadow="0"
     inkscape:pageopacity="0"
     inkscape:pagecheckerboard="0"
     showgrid="false"
     inkscape:zoom="0.65186406"
     inkscape:cx="281.50041"
     inkscape:cy="325.22118"
     inkscape:window-width="1366"
     inkscape:window-height="705"
     inkscape:window-x="0"
     inkscape:window-y="26"
     inkscape:window-maximized="1"
     inkscape:current-layer="svg885"
     inkscape:showpageshadow="0"
     inkscape:deskcolor="#505050" />
  <metadata
     id="metadata891">
    <rdf:RDF>
      <cc:Work
         rdf:about="">
        <dc:format>image/svg+xml</dc:format>
        <dc:type
           rdf:resource="http://purl.org/dc/dcmitype/StillImage" />
      </cc:Work>
    </rdf:RDF>
  </metadata>
  <defs
     id="defs889" />
  <g
     id="g2369"
     transform="matrix(0.97064075,0,0,1.0105356,4.318621,-1.6765182)">
    <path
       id="path1678"
       style="fill:#333333;stroke:none;stroke-width:14.1776;stroke-opacity:1"
       d="m 323.89453,284.64844 c -26.77613,22.06305 -53.69926,43.94712 -80.14946,66.40083 -5.284,4.54508 -10.65834,9.0005 -15.64351,13.87651 -1.28361,1.25093 -2.13979,3.26007 -1.27539,4.97852 0.82553,1.79377 2.50413,2.95441 3.86129,4.31773 8.95506,8.18615 18.24831,15.99183 27.5456,23.78205 5.74796,4.76847 11.54082,9.48212 17.31577,14.21858 17.07402,-30.94031 34.67124,-61.58706 52.11196,-92.32129 0.44957,-0.68291 0.0979,-1.56865 0.18201,-2.34401 -0.25639,-11.84138 -0.51078,-23.68281 -0.76858,-35.52416 -1.0599,0.87175 -2.11979,1.74349 -3.17969,2.61524 z" />
    <path
       id="path1538"
       style="fill:#333333;stroke:none;stroke-width:14.1776;stroke-opacity:1"
       d="m 25.048828,286.7168 c -0.484835,1.56587 -0.954353,3.14886 -0.947266,4.80468 -0.401105,21.6817 -0.374038,43.36905 -0.430857,65.05389 -0.01303,32.73854 -0.01029,65.4771 -0.01055,98.21565 15.619196,-12.18552 30.979169,-24.69377 46.303169,-37.24573 14.676127,-12.03991 29.379353,-24.05087 43.750986,-36.45651 3.12878,-2.69752 6.31269,-5.34318 9.38516,-8.10402 1.71132,-1.72112 3.09985,-4.23911 2.34793,-6.71585 -0.63588,-1.99006 -2.56683,-3.08276 -3.99275,-4.4609 C 107.33278,349.68054 92.856529,337.97572 78.514325,326.11135 63.962244,314.154 49.52023,302.06472 34.880859,290.21484 c -1.673347,-1.28363 -3.273446,-2.70232 -5.109819,-3.74592 -1.348808,-0.69993 -2.697619,-1.39986 -4.046431,-2.09978 -0.22526,0.78255 -0.45052,1.5651 -0.675781,2.34766 z" />
    <path
       id="path1329"
       style="fill:#808080;stroke:none;stroke-width:14.1776;stroke-opacity:1"
       d="m 174.9668,344.44727 c -2.005,-0.009 -3.40081,1.59026 -4.91668,2.65787 -14.55156,11.24392 -28.83403,22.83262 -43.14395,34.38271 -24.81395,20.12386 -49.574886,40.32042 -74.032968,60.88131 -3.591099,3.03786 -7.208196,6.0608 -10.609675,9.30834 -0.994167,1.10337 -1.348667,2.58195 -1.851418,3.93383 -0.299935,1.08845 0.363982,2.32803 1.455419,2.64351 3.576593,0.69095 7.25754,0.45772 10.887117,0.54818 37.209007,0.25975 74.419265,0.21336 111.628945,0.21639 28.81224,-0.006 57.62448,-0.0121 86.43672,-0.0175 6.85312,-13.01128 13.70708,-26.02211 20.56055,-39.0332 -5.07358,-4.56807 -10.26356,-9.00454 -15.58296,-13.2836 -21.18132,-17.34225 -42.47015,-34.55207 -63.85004,-51.64895 -4.01517,-3.12549 -7.97461,-6.36079 -12.33263,-9.00495 -1.43846,-0.76327 -2.96935,-1.62734 -4.64843,-1.58398 z" />
    <path
       id="path1684"
       style="fill:#cccccc;stroke:none;stroke-width:14.1776;stroke-opacity:1"
       d="m 101.76562,186.19922 c -0.091,4.59883 0.18346,9.21909 -0.33843,13.79928 -0.0985,0.76629 -0.20033,1.53514 -0.38227,2.28666 -3.527284,-1.32724 -6.769827,-3.30117 -9.972921,-5.26441 -2.28433,-1.45197 -4.495036,-3.02216 -6.589577,-4.73755 -0.498875,-0.42043 -1.22951,-1.02749 -1.798646,-1.54696 -2.434303,-2.16033 -4.685843,-4.70182 -7.728698,-6.01358 -2.277461,-0.82372 -5.032499,0.0959 -6.283639,2.18763 -1.120972,1.48944 -1.426734,3.37832 -1.42781,5.19756 -0.505536,9.33405 -0.578714,18.68494 -0.751597,28.02965 -0.381356,25.73485 -0.415961,51.47308 -0.616304,77.20964 -0.0152,2.42205 -0.0306,4.84409 -0.04565,7.26614 19.801092,16.41843 39.483252,32.9818 59.480582,49.16081 2.95064,2.33807 5.94614,4.72371 9.39637,6.28255 2.29979,0.8299 4.6769,-0.37106 6.55448,-1.6472 5.27337,-3.52564 10.16712,-7.57352 15.17208,-11.46129 6.32057,-4.96586 12.56418,-10.07053 19.33674,-14.41817 0.36234,-0.32461 0.76078,-0.19845 1.10403,0.0755 3.04572,1.73485 5.7085,4.04235 8.48909,6.15759 8.38139,6.57323 16.56398,13.41486 25.23344,19.60951 1.9323,1.34378 4.51801,1.95367 6.73894,0.95986 2.98203,-1.13354 5.46961,-3.20559 8.02649,-5.05572 9.57525,-7.2516 18.83701,-14.90102 28.2205,-22.39531 10.45279,-8.41109 20.90617,-16.82144 31.35859,-25.23299 0.19467,-40.81511 0.39193,-81.63021 0.58789,-122.44532 -61.25326,1e-5 -122.50651,0 -183.75977,0 -0.001,0.66537 -0.003,1.33073 -0.004,1.9961 z m 74.16993,40.95898 c 1.71554,-0.003 3.47618,0.0298 5.09607,0.12441 8.58258,0.39695 17.05152,2.84609 24.56685,6.9976 2.31515,1.28652 4.68801,2.8808 6.66325,4.4444 8.37187,6.55184 14.34462,16.24695 15.9154,26.80646 1.03633,7.0678 0.59228,14.36025 -1.28365,21.25231 -1.27792,4.62403 -3.53427,8.94504 -6.50798,12.70346 -1.81023,2.33501 -3.83705,4.50057 -6.03197,6.478 -0.64776,0.57784 -1.51555,1.33009 -2.28127,1.9392 -7.19946,5.75509 -15.78427,9.82972 -24.87836,11.44279 -13.30306,2.39875 -27.51602,0.60154 -39.43671,-5.9248 -1.1769,-0.64531 -2.43586,-1.39599 -3.44448,-2.06785 -7.28736,-4.78037 -13.81206,-11.11879 -17.56686,-19.08241 -0.40721,-0.86462 -0.73481,-1.6412 -1.10562,-2.58385 -0.86335,-2.2016 -1.53627,-4.70203 -1.94881,-6.88909 -0.16834,-0.92251 -0.30417,-1.78716 -0.42442,-2.78615 -0.82192,-7.18855 -0.037,-14.57248 2.30934,-21.41854 0.32694,-0.94683 0.69393,-1.89195 1.04542,-2.71425 0.6452,-1.54871 1.48125,-3.23612 2.23763,-4.58497 4.40686,-7.96947 11.3565,-14.44313 19.50938,-18.46704 5.50176,-2.77823 11.54408,-4.34041 17.65019,-5.03663 1.65868,-0.21151 3.52783,-0.36189 5.06503,-0.46508 1.61966,-0.0954 3.16113,-0.15113 4.85157,-0.16797 z" />
    <path
       id="path1680"
       style="fill:#1a1a1a;stroke:none;stroke-width:14.1776;stroke-opacity:1"
       d="m 298.46484,256.50391 c -2.01376,-0.0236 -3.70272,1.63356 -4.0732,3.55014 -0.43431,2.75403 -0.4755,5.56027 -0.56352,8.34439 -0.0521,5.79864 -0.12764,11.60808 0.25999,17.39706 0.18157,1.7713 0.10807,3.7523 1.36892,5.1713 1.53797,1.89919 4.43658,2.54446 6.57559,1.29281 2.71949,-1.38417 4.89162,-3.58365 7.2467,-5.48117 5.19522,-4.40425 10.35033,-8.85606 15.52537,-13.2843 -7.02987,-5.17846 -13.79422,-10.76274 -21.30147,-15.25479 -1.55353,-0.87184 -3.1889,-1.83342 -5.03838,-1.73544 z" />
    <path
       id="path1682"
       style="fill:#1a1a1a;stroke:none;stroke-width:14.1776;stroke-opacity:1"
       d="m 52.673828,256.51758 c -2.710408,0.0976 -4.889049,1.93847 -7.049631,3.36485 -4.678031,3.31213 -9.288167,6.74298 -13.588353,10.53701 -1.149739,1.08112 -2.244214,2.6869 -1.801469,4.32861 0.559542,2.26311 2.654155,3.55875 4.280228,5.02334 4.384693,3.62199 8.846593,7.17464 13.603156,10.29951 1.924457,1.25918 4.30126,2.4394 6.645913,1.75527 1.969755,-0.63034 3.2261,-2.60219 3.386488,-4.607 0.705552,-4.53676 0.599707,-9.14961 0.53626,-13.72594 -0.129281,-4.46535 -0.339043,-8.97665 -1.407496,-13.33029 -0.609309,-2.00717 -2.435295,-3.67989 -4.605096,-3.64536 z" />
    <path
       id="path1755"
       style="fill:#000080;stroke:none;stroke-width:14.1776;stroke-opacity:1"
       d="m 172.11133,231.40039 c -4.69457,0.008 -9.57429,0.20617 -13.86754,2.3202 -6.02281,2.61714 -11.8488,5.88446 -16.65794,10.40775 -6.96518,6.43375 -11.87538,15.24576 -12.96181,24.7242 -0.44445,3.93153 -0.39697,7.93388 0.20816,11.84438 0.86049,4.54156 3.12751,8.64424 5.33561,12.648 1.54547,2.61946 3.39396,5.3812 6.31081,6.58572 2.3241,0.88237 5.13735,0.0378 6.57764,-1.99332 1.35031,-1.64433 1.46469,-3.91246 2.75684,-5.59096 2.79137,-4.27285 6.74903,-7.63526 9.82167,-11.62175 0.88229,-1.14923 1.47181,-2.67022 0.94619,-4.10186 -1.17247,-3.38872 -3.86701,-6.15882 -4.34844,-9.80241 -1.03501,-6.15028 1.35634,-12.6665 5.82079,-16.95508 3.78948,-3.38886 9.14087,-4.45996 14.09543,-4.09726 6.01405,0.42836 12.11578,2.86326 16.08315,7.52985 1.92906,2.36556 3.25573,5.25354 3.731,8.27051 0.31622,3.61043 -1.61161,6.8433 -3.11869,9.97128 -0.85244,1.84478 -1.80864,3.70879 -2.1235,5.73184 -0.13591,2.29402 1.61982,4.03178 3.07783,5.56627 2.22193,2.25056 4.70487,4.25582 6.63311,6.78334 1.89716,2.23203 3.40522,4.74432 4.93065,7.23404 1.02366,1.50097 1.99142,3.14276 3.48537,4.22299 0.85497,0.49188 1.91242,0.90608 2.89153,0.71813 1.74305,-0.44303 3.02629,-1.8373 3.79734,-3.40495 2.26703,-3.90749 4.18057,-8.01861 5.85636,-12.21058 1.38935,-3.71499 1.74313,-7.71228 1.70609,-11.65072 0.0244,-4.40094 0.13258,-8.90027 -1.10289,-13.16867 -1.67195,-5.67923 -5.40196,-10.46322 -9.51489,-14.60626 -4.78603,-4.83682 -10.21565,-9.11726 -16.31151,-12.18131 -3.04239,-1.54965 -6.34064,-2.63592 -9.75783,-2.90172 -4.42304,-0.39589 -8.87133,-0.23319 -13.30638,-0.27408 -0.33139,8.1e-4 -0.66277,0.002 -0.99415,0.002 z" />
    <path
       id="path1895"
       style="fill:#000000;stroke:none;stroke-width:14.1776;stroke-opacity:1"
       d="m 172.42383,285.19727 c -3.27932,0.0898 -6.5875,0.90596 -9.42076,2.51958 -4.47576,2.30618 -8.59373,5.88848 -10.29557,10.75445 -1.49179,4.15883 -0.40569,9.12787 2.8032,12.19494 3.01348,3.07763 7.26642,4.76783 11.5405,4.95585 3.99376,0.2595 8.00121,0.03 11.99443,-0.13097 4.73581,-0.26733 9.60161,-0.62396 14.01252,-2.51199 2.86264,-1.29776 5.56025,-3.62765 6.27974,-6.8014 0.68148,-3.44003 -0.38875,-6.93051 -1.67303,-10.09741 -1.4796,-3.41716 -3.59229,-6.7395 -6.74103,-8.83423 -3.07122,-1.80603 -6.75345,-1.6752 -10.18975,-1.89166 -2.76837,-0.11692 -5.53899,-0.21345 -8.31025,-0.15716 z" />
    <path
       id="path2173"
       style="fill:#000000;stroke:none;stroke-width:14.1776;stroke-opacity:1"
       d="m 173.5,251.29102 c -2.83647,0.1422 -5.28417,1.89588 -7.33197,3.72228 -1.83087,1.76588 -3.70439,3.93427 -3.83014,6.59998 0.0746,3.35074 2.25246,6.26732 4.75004,8.3208 1.98872,1.62834 4.41185,2.62704 6.83738,3.40589 2.46199,0.7457 4.88587,-0.48881 7.1104,-1.41269 3.03235,-1.44081 5.58417,-3.96944 6.8705,-7.09064 0.80323,-1.55169 1.02618,-3.48013 0.13172,-5.04503 -1.66822,-3.45308 -5.01952,-5.71154 -8.46131,-7.15755 -1.92487,-0.7882 -3.9847,-1.34362 -6.07662,-1.34304 z" />
    <path
       id="path546"
       style="fill:#e6e6e6;stroke-width:2.22735"
       d="m 82.351988,39.13294 c -2.79252,0 -3.553164,2.90347 -3.553164,13.560135 0,12.799416 -0.380226,13.733686 -6.773241,16.656667 -13.403132,6.128055 -15.470956,24.182023 -3.705848,32.364308 5.649833,3.92925 5.741531,4.52595 5.741531,37.72702 v 33.73055 h -5.727655 c -13.184619,0 -13.210375,0.0564 -13.426161,34.25825 L 54.708461,239.1438 32.99621,254.9169 11.288564,270.69412 10.668611,367.7748 c -0.443814,69.93753 0.135485,97.87698 2.068041,99.9359 3.704933,3.94699 321.696978,4.28605 326.151368,0.34768 2.12964,-1.88291 2.83556,-26.70144 2.80831,-98.95824 -0.019,-53.04471 -0.8194,-97.39355 -1.77659,-98.54918 -0.95717,-1.15566 -11.06665,-8.97551 -22.46638,-17.3807 L 296.72655,237.888 v -29.84456 c 0,-20.41975 -0.90046,-30.64065 -2.84535,-32.36022 -1.99638,-1.76513 -15.30487,-2.5116 -44.70607,-2.5116 h -41.86079 l -14.81412,-10.47177 c -8.14909,-5.75948 -15.69278,-10.47177 -16.76191,-10.47177 -1.06914,0 -8.34676,4.71229 -16.17431,10.47177 -16.42207,12.08334 -22.58687,13.4894 -20.65741,4.71229 3.56341,-16.21038 6.73782,-38.46189 5.62585,-39.44502 -0.69409,-0.6137 -8.89508,8.12801 -18.22387,19.42596 -13.91328,16.85002 -16.19647,20.67455 -12.69521,21.27078 11.43976,1.94811 7.40632,4.50776 -7.10169,4.50776 H 90.642697 v -33.11697 -33.11699 l 7.106343,-6.02126 c 5.37378,-4.552002 7.10633,-7.89863 7.10633,-13.72374 0,-8.425691 -6.664622,-17.665988 -14.277466,-19.802287 -4.016794,-1.127189 -4.672765,-3.21387 -4.672765,-14.787293 0,-10.579002 -0.763068,-13.47014 -3.553178,-13.47014 z m -0.254476,42.913827 c 3.868459,-0.0041 8.42514,2.27625 8.50817,5.706292 0.01897,0.823388 -1.986483,2.451904 -4.455331,3.620115 -5.051758,2.390397 -10.949239,-1.865769 -9.160527,-6.610304 0.712788,-1.890605 2.786635,-2.71387 5.107688,-2.716103 z m 93.821278,89.300493 c 1.07333,0 2.14671,0.14724 2.96097,0.43768 1.62854,0.58098 0.29609,1.05535 -2.96097,1.05535 -3.25707,0 -4.58952,-0.47437 -2.96098,-1.05535 0.81426,-0.29048 1.88761,-0.43768 2.96098,-0.43768 z M 72.821345,187.83212 c 1.924211,0 5.283898,2.40841 7.467196,5.35451 3.318947,4.47851 18.87501,13.49466 23.285309,13.49466 0.7033,0 1.28155,-4.24105 1.28155,-9.42459 v -9.42458 h 88.82924 88.82924 v 58.21651 58.2165 l -32.23763,26.08128 c -17.72959,14.34409 -33.2201,26.40411 -34.42595,26.80118 -1.20587,0.39707 -10.15415,-5.96454 -19.88478,-14.1369 -9.73069,-8.17234 -18.64851,-14.85683 -19.81542,-14.85683 -1.16691,0 -10.11015,6.59723 -19.87553,14.66049 -9.7654,8.06327 -18.6681,14.64041 -19.78303,14.61548 -1.11489,-0.0249 -7.38108,-4.50156 -13.92582,-9.94817 -6.54477,-5.44667 -21.2016,-17.64757 -32.570728,-27.1121 L 69.323695,303.1607 v -57.66431 c 0,-49.46139 0.496808,-57.66427 3.49765,-57.66427 z m 103.046535,35.60402 c -24.02985,0 -41.38222,9.55242 -51.1971,28.18789 -13.44571,25.52935 -2.33863,54.48017 25.71423,67.02751 35.37729,15.8234 78.65673,-5.22777 81.90333,-39.8418 2.96832,-31.64728 -21.20622,-55.3736 -56.42046,-55.3736 z m 0.051,10.47177 c 12.76756,0 21.04611,3.18931 31.4141,12.09571 14.10894,12.12008 17.16866,27.91439 8.60995,44.45186 l -4.87635,9.42459 -4.52936,-7.72293 c -2.48948,-4.24772 -6.6987,-9.06821 -9.35485,-10.71311 -4.62566,-2.86459 -4.65969,-3.25183 -0.84664,-9.12598 9.11257,-14.03831 -2.45192,-30.03272 -21.71228,-30.03272 -8.40314,0 -11.17486,1.09705 -16.26222,6.44259 -6.87257,7.22135 -8.17781,19.27226 -2.77132,25.57403 2.8154,3.28162 2.37101,4.48128 -3.62717,9.78458 -3.76097,3.32525 -6.83799,7.47567 -6.83799,9.22414 0,7.02922 -5.09056,5.29271 -9.46589,-3.23152 -5.81581,-11.33065 -5.89786,-21.31791 -0.25907,-32.08617 8.09893,-15.46627 22.60057,-24.08507 40.51909,-24.08507 z m -1.45273,18.89829 c 3.31576,0.03 6.87198,1.3334 9.7527,4.14779 3.54979,3.46806 3.82662,5.10536 1.60078,9.42461 -4.81472,9.34295 -21.74465,6.07538 -21.74465,-4.19689 0,-5.93661 4.86489,-9.42555 10.39117,-9.37551 z m 124.03708,6.31168 c 0.97714,0.0433 6.03206,3.30234 11.23783,7.24025 l 9.46586,7.15844 -9.3502,8.4715 c -5.14447,4.65805 -10.20404,8.46741 -11.24246,8.46741 -1.03841,0 -1.88761,-7.06845 -1.88761,-15.70766 0,-8.63919 0.79947,-15.6733 1.77658,-15.62994 z m -245.168708,0.008 c 0.977123,-0.0479 1.776596,6.98256 1.776596,15.62175 0,8.63921 -0.399834,15.70765 -0.88368,15.70765 -0.483874,0 -5.547139,-3.68057 -11.2517,-8.18106 l -10.368038,-8.18515 9.475117,-7.4366 c 5.211303,-4.09076 10.274582,-7.47862 11.251705,-7.52659 z m -26.648773,28.36379 10.067319,8.54102 c 5.537003,4.69785 27.122537,22.43785 47.967801,39.4246 20.845241,16.98677 38.183161,31.52674 38.529651,32.31113 0.34652,0.78438 -17.24171,16.06231 -39.084867,33.94738 -21.843172,17.88506 -43.711399,35.6066 -48.596978,39.38369 l -8.882926,6.86798 v -80.23995 z m 148.219911,0.87126 c 14.08475,0 16.9701,1.40966 20.11151,9.82548 2.27918,6.10591 2.12701,7.90808 -0.89293,10.57813 -4.25877,3.76539 -24.2671,5.53739 -31.49736,2.78974 -14.90235,-5.6632 -5.62188,-23.19335 12.27878,-23.19335 z m 149.06195,0.5645 0.64308,39.5105 c 0.35386,21.7306 0.35386,57.39197 0,79.24596 l -0.64308,39.73136 -47.37559,-38.65148 c -26.05656,-21.25884 -47.3756,-39.39461 -47.3756,-40.30405 0,-0.90945 21.31904,-19.17819 47.3756,-40.59447 z m -147.99785,58.07744 c 1.9412,0 132.60079,106.40121 132.60079,107.98198 0,0.50894 -59.94923,0.92445 -133.21609,0.92445 H 42.142899 l 10.627116,-9.21598 c 23.8508,-20.67811 121.497165,-99.69045 123.199675,-99.69045 z" />
    <g
       id="g2353"
       transform="translate(0.70710679,-8.4004979)">
      <path
         id="path985"
         style="fill:#ffdd00;fill-opacity:1;stroke:#e6e6e6;stroke-width:11.737;stroke-dasharray:none;stroke-opacity:1"
         d="m 372.20508,240.01953 -17.38086,27.96485 c -37.98141,61.11905 -111.8457,194.01729 -111.8457,201.23437 0,0.67354 4.17156,1.68149 9.26953,2.24023 19.89647,2.18056 244.25792,1.69402 247.62304,-0.5371 2.93173,-1.94379 2.1161,-5.15504 -4.75781,-18.73633 C 474.61933,411.69417 397.695,277.4388 380.66992,252.44727 Z" />
      <path
         id="path11147"
         style="fill:#000000;fill-opacity:1;stroke-width:2.7636"
         d="m 369.94649,288.99158 c -3.66333,-0.0383 -6.44834,3.057 -8.52344,5.87321 -2.74269,4.43159 -2.60538,9.95916 -3.02802,15.03356 -1.05017,22.92673 -1.3652,45.92316 -0.10938,68.84783 0.45062,5.77971 0.62666,11.67557 2.21057,17.26713 0.88701,3.40884 4.37602,4.88697 7.38459,5.50473 5.01095,1.0062 9.95046,-2.2704 12.3008,-6.79902 3.28178,-5.72915 3.19388,-12.60237 3.52279,-19.05396 0.69417,-18.73494 0.81353,-37.49748 0.40369,-56.24138 -0.36514,-7.04386 -0.34652,-14.3206 -2.73475,-21.01349 -1.71345,-4.78144 -5.97576,-8.46173 -10.75221,-9.36836 -0.22555,-0.0215 -0.44679,-0.0774 -0.67466,-0.0503 z" />
      <path
         id="path11297"
         style="fill:#000000;fill-opacity:1;stroke-width:2.7636"
         d="m 371.07143,413.78864 c -5.25914,0.19456 -11.12316,1.40898 -14.52455,6.0152 -2.49821,3.4382 -3.89251,7.75047 -4.22306,12.03949 -0.01,4.795 2.3547,9.12241 4.44945,13.23078 2.62261,4.92681 7.05015,8.99909 12.45984,10.01231 6.62243,1.54372 13.50695,-1.64901 17.91665,-6.81107 4.22408,-5.00675 7.82026,-11.43225 7.24929,-18.35029 -0.45473,-6.8264 -5.56817,-12.4705 -11.5975,-14.56936 -3.73858,-1.43743 -7.77717,-1.77802 -11.73012,-1.56706 z" />
    </g>
  </g>
</svg>
