<?xml version="1.0" encoding="UTF-8" standalone="no"?>
<!-- Created with Inkscape (http://www.inkscape.org/) -->

<svg
   version="1.1"
   id="svg870"
   width="512"
   height="512"
   viewBox="0 0 512 512"
   sodipodi:docname="apple-bleee.svg"
   inkscape:version="1.2.2 (b0a8486541, 2022-12-01)"
   inkscape:export-filename="../GIT Icons/apple-bleee.png"
   inkscape:export-xdpi="96"
   inkscape:export-ydpi="96"
   xmlns:inkscape="http://www.inkscape.org/namespaces/inkscape"
   xmlns:sodipodi="http://sodipodi.sourceforge.net/DTD/sodipodi-0.dtd"
   xmlns="http://www.w3.org/2000/svg"
   xmlns:svg="http://www.w3.org/2000/svg">
  <defs
     id="defs874" />
  <sodipodi:namedview
     id="namedview872"
     pagecolor="#505050"
     bordercolor="#eeeeee"
     borderopacity="1"
     inkscape:pageshadow="0"
     inkscape:pageopacity="0"
     inkscape:pagecheckerboard="0"
     showgrid="false"
     inkscape:zoom="0.83618183"
     inkscape:cx="272.66797"
     inkscape:cy="259.51293"
     inkscape:window-width="1366"
     inkscape:window-height="705"
     inkscape:window-x="0"
     inkscape:window-y="0"
     inkscape:window-maximized="1"
     inkscape:current-layer="g876"
     inkscape:showpageshadow="0"
     inkscape:deskcolor="#505050" />
  <g
     inkscape:groupmode="layer"
     inkscape:label="Image"
     id="g876">
    <g
       id="g1156"
       transform="matrix(0.92357177,0,0,0.91112102,19.560024,22.741089)">
      <path
         id="path17816-6"
         style="fill:#ffffff;fill-opacity:1;stroke-width:0.862007"
         d="m 245.67188,-11.851562 c -8.87769,0.340961 -17.30645,3.5210342 -25.43103,6.8650333 -14.1,5.9955629 -26.68762,15.7523057 -35.50066,28.3358767 -8.40336,11.782371 -14.00223,25.59251 -15.97652,39.939714 -0.79496,6.561744 -0.4252,13.503248 2.53711,19.519532 -7.68204,-0.354473 -15.39388,-1.088908 -23.07422,-0.291016 -15.63226,1.446794 -30.8552,7.187699 -43.48009,16.531875 -14.536266,10.450867 -26.053842,24.745987 -34.285675,40.571897 -6.448249,12.1791 -11.409929,25.217 -14.012366,38.7719 -1.703007,9.29623 -1.820428,18.77424 -2.233058,28.18882 -0.509484,14.08861 -0.626854,28.19597 -0.223708,42.28889 0.276931,7.53226 1.34781,15.08304 3.817993,22.22733 3.318713,9.87023 9.198947,18.94724 17.239316,25.61819 5.677019,4.78707 12.207899,8.48675 19.05259,11.32649 0.705772,11.81736 6.322808,23.31525 15.398438,30.95312 1.42403,7.4728 2.46036,15.11909 3.44141,22.59375 0.78162,6.2811 1.4582,12.6783 2.01757,18.91797 0.727,8.3444 1.29449,16.65547 1.58399,25.01367 0.19038,5.96827 0.25521,12.09668 0.0381,18.12377 -0.19624,3.84811 -0.67273,7.68126 -1.32875,11.42002 -0.41652,2.72867 -1.11544,5.40671 -1.53752,8.132 -0.68572,5.6611 1.23577,11.53103 5.05433,15.75314 2.94777,3.36461 6.92632,5.68101 11.13996,7.08849 8.37387,3.25951 17.13902,5.32546 25.75391,7.82567 3.02251,0.82594 6.04,1.67043 9.06938,2.46941 -3.58632,6.39304 -6.15295,13.29348 -8.31718,20.27921 -1.63137,4.86747 -3.49704,9.65744 -5.12396,14.52359 -1.21345,5.14345 2.28178,10.97692 7.52119,12.04307 2.76994,0.63648 5.62558,0.19491 8.4348,0.33382 53.97554,-0.005 107.95092,0.007 161.92656,0.0137 3.9875,0.65576 8.03805,0.16848 12.0539,0.333 8.57187,0.0419 17.14544,-0.0479 25.71172,-0.34862 10.86784,0 21.73568,0 32.60352,0 -2.85561,-7.40725 -5.62927,-14.84636 -8.23438,-22.3457 -1.47064,-4.26993 -2.98064,-8.67302 -4.47882,-12.98981 -1.63799,-4.80506 -3.8564,-9.44094 -6.41375,-13.7934 13.29984,-3.5739 26.43093,-7.8995 39.00565,-13.5411 5.96054,-2.83988 10.82709,-8.14499 12.60489,-14.56191 0.98381,-3.33042 1.02446,-6.85999 0.52695,-10.27675 -0.14071,-1.12265 -0.29213,-2.24424 -0.43828,-3.36633 -0.0761,-0.70926 -0.20515,-1.72436 -0.24846,-2.55581 -0.74323,-10.07336 -1.49364,-20.12142 -2.09693,-30.21094 -0.69543,-13.19063 -0.91093,-26.36705 -1.28893,-39.5727 -0.14317,-5.45642 -0.27932,-10.91301 -0.41841,-16.36954 9.89012,-5.41869 17.45258,-14.85104 20.68851,-25.64557 2.8311,-9.16809 2.60456,-19.20488 -0.46993,-28.28214 -0.60139,-1.82361 -1.29644,-3.61742 -2.1053,-5.3594 1.36616,-6.84607 2.75196,-13.78398 3.36328,-20.70117 1.4196,-13.32435 1.7743,-26.84887 -0.20703,-40.13672 4.1187,-8.48595 6.43503,-17.73149 7.87672,-27.01846 2.45427,-17.23245 0.46467,-34.88557 -4.33182,-51.54728 -4.49376,-15.45444 -11.49702,-30.22926 -20.98995,-43.24646 C 426.18632,94.29699 419.27957,87.542559 411.66296,81.756269 401.15921,73.669957 389.66639,66.899133 377.63318,61.357935 364.13035,55.241076 349.82488,50.985603 335.2548,48.316567 321.17171,45.668304 306.7851,44.23546 292.45366,45.078052 c -9.77024,0.65366 -19.49283,2.479447 -28.7271,5.769604 5.23245,-10.738529 8.34303,-22.565274 8.70185,-34.521872 0.20661,-5.786081 -1.15838,-11.6730937 -4.25714,-16.59456017 -3.60187,-5.90697603 -9.91464,-9.91854683 -16.68659,-11.10841483 -1.91337,-0.365255 -3.86631,-0.50573 -5.8128,-0.474371 z M 351.21289,221.02148 c 0.94342,0.24844 1.611,1.74464 0.59375,2.32618 -0.81614,0.48671 -1.9313,0.13345 -2.28567,-0.75721 -0.58831,-0.7723 0.52961,-1.67699 1.30204,-1.61759 0.13272,-0.018 0.26004,0.0313 0.38988,0.0486 z M 290.86914,366.875 c 1.29227,0.25839 1.41065,2.18 0.29335,2.74844 -0.91859,0.50563 -1.97096,-0.63228 -1.90349,-1.54998 -0.0477,-0.86396 0.83742,-1.35478 1.61014,-1.19846 z m -46.75195,82.22461 c 0.6824,0.11878 1.29089,0.62043 1.25344,1.36082 0.21142,0.60777 0.20692,1.27704 -0.34915,1.70168 -0.58086,0.51022 -1.43179,0.33784 -2.07821,0.0997 -1.13126,-0.65924 -1.03228,-2.51838 0.18618,-3.02657 0.31285,-0.13054 0.65002,-0.17186 0.98774,-0.13566 z m 58.14062,0.89648 c 0.91635,0.2188 1.61371,1.24182 1.20167,2.15654 0.004,1.06551 -1.36173,1.42727 -2.13455,0.89316 -1.27323,-0.62064 -1.06449,-2.86811 0.40526,-3.06712 0.17701,-0.0414 0.35069,3.8e-4 0.52762,0.0174 z" />
      <g
         id="g22381"
         transform="matrix(0.67107657,0,0,0.64686653,-12.430628,-2.9205135)">
        <path
           id="path17816"
           style="opacity:1;fill:#c80200;fill-opacity:1;stroke-width:1.30833"
           d="m 429.31641,571.45508 c -3.48367,0.12406 -7.2462,0.14369 -10.27164,2.11751 -2.82105,1.86192 -3.97046,5.2173 -4.99811,8.26857 -0.81231,2.099 -1.67741,4.36885 -3.48796,5.8129 -0.34714,0.36362 -0.8685,0.2709 -1.0908,-0.1744 -1.32406,-1.92839 -1.50278,-4.37274 -1.69077,-6.63919 -0.20356,-2.19886 -0.0597,-4.6935 -1.0369,-6.80141 -0.76884,-1.68067 -2.69559,-2.2785 -4.40646,-2.3647 -3.19341,-0.14282 -6.15643,1.45581 -8.71769,3.20486 -4.46839,3.1191 -8.14742,7.58585 -9.64321,12.88923 -2.15625,7.41177 -0.80509,15.51421 2.61823,22.32757 3.52995,7.03578 9.61403,13.02337 17.2113,15.43744 6.84429,2.22395 14.57837,1.18868 20.71035,-2.53123 6.26289,-3.72069 10.90903,-9.96596 12.86682,-16.96585 2.45937,-8.5078 3.01576,-17.43352 2.92316,-26.24927 0,-2.78255 0,-5.5651 0,-8.34766 -3.66207,0.007 -7.32437,-0.0166 -10.98632,0.0156 z" />
        <path
           id="path1866"
           style="opacity:1;fill:#ffc1ab;fill-opacity:1;stroke-width:1.85026"
           d="m 600.40039,430.98047 c -2.87331,0.19185 -5.49433,1.53965 -8.11719,2.61523 -5.36192,2.44058 -10.76841,4.79446 -16.0294,7.44875 -3.28134,1.74888 -6.75812,3.57067 -8.95686,6.67839 -1.84533,2.58296 -1.89231,5.93667 -1.37505,8.94935 0.57974,3.6907 0.34273,7.58183 0.0156,11.1989 -0.57055,5.63947 -1.64997,11.45666 -3.25977,16.99219 -1.31011,4.69084 -3.37223,9.15621 -6.07033,13.20957 -6.72476,10.27895 -17.23206,17.81482 -28.85219,21.61423 -15.20128,5.04598 -32.41355,3.88551 -46.68026,-3.4578 -3.7067,-1.87632 -7.17582,-4.19335 -10.448,-6.74686 -0.28092,-0.23802 -0.91374,-0.73529 -1.32627,-1.07834 -6.05652,-4.97201 -11.01942,-11.30123 -14.17577,-18.48764 -3.29723,-7.2975 -4.89697,-15.242 -6.02022,-23.10405 -0.71813,-4.11578 -1.38127,-8.39184 -3.54956,-12.03802 -2.21751,-3.5809 -5.91911,-5.93862 -9.68404,-7.63765 -6.90285,-2.96782 -14.62629,-3.80716 -22.0573,-2.92255 -5.2354,0.68926 -10.60227,2.26345 -14.64123,5.81259 -1.8877,1.65887 -3.3207,3.84718 -3.88708,6.31098 -1.49741,5.52821 -2.15429,11.23213 -2.8873,16.89841 -0.99113,6.21952 -2.50468,12.42064 -5.17748,18.14666 -5.88445,12.04131 -16.66571,21.24952 -28.89258,26.46094 -0.50848,0.21631 -1.33723,0.55922 -1.97631,0.80378 -12.5458,4.89281 -26.80706,5.79316 -39.66615,1.54604 -8.27216,-2.59932 -16.03289,-6.99608 -22.19134,-13.13713 -6.03747,-5.96708 -10.64334,-13.24622 -14.24566,-20.89577 -1.68372,-3.51386 -2.24078,-7.42364 -2.39903,-11.28049 -0.29472,-7.11643 -0.12279,-14.24209 -0.17126,-21.3626 -2e-4,-2.26172 -6.7e-4,-4.52344 -6.4e-4,-6.78516 -11.43016,-5.13436 -22.85864,-10.27245 -34.28906,-15.40625 -0.24021,5.28421 -0.62442,10.56342 -0.75586,15.85156 -0.002,9.23058 0.52064,18.4538 1.18053,27.65794 1.64313,21.10484 4.06302,42.18118 8.18275,62.9573 3.86638,19.22045 9.22758,38.28975 17.87079,55.95082 6.43256,13.16861 14.86983,25.41153 25.32014,35.71828 4.78762,4.84447 10.06048,9.25073 15.95955,12.68397 5.68569,3.35071 11.62408,6.25805 17.63679,8.97074 13.91887,6.21831 28.7438,10.21891 43.76208,12.6932 14.83899,2.45841 29.85168,3.69969 44.86339,4.48297 17.74679,0.74657 35.55468,-0.26976 53.13627,-2.75747 17.45239,-2.51569 34.84518,-6.48036 51.01528,-13.65794 11.44373,-5.0267 22.09494,-11.83269 31.46898,-20.09932 5.91489,-5.23693 11.49625,-10.87297 16.51077,-16.982 5.72521,-6.93679 10.20997,-14.85894 13.37979,-23.26888 4.10287,-10.85422 6.59657,-22.22837 8.85034,-33.58526 2.40663,-12.5074 4.57609,-25.0635 6.24551,-37.69205 2.608,-19.71706 4.68911,-39.50748 6.10632,-59.34665 0.55015,-8.1199 0.98885,-16.26177 0.76365,-24.40202 -0.0819,-1.86452 -0.49994,-4.09007 -2.31349,-5.04121 -0.65859,-0.36388 -1.42569,-0.49969 -2.17186,-0.47968 z m -182.19141,50.35351 c 0.91988,0.38962 1.67496,1.19062 2.19532,2.02735 0.66242,2.28791 0.4118,4.71781 0.33743,7.06747 -0.41222,7.7052 -1.82058,15.33061 -2.00763,23.04985 0.002,3.04026 0.17602,6.43159 2.2952,8.82408 2.09998,2.33084 5.4132,2.79991 8.37977,3.0075 3.83427,0.2941 7.69795,-0.0632 11.52186,0.36689 0.40808,0.0827 1.09739,0.0715 0.98156,0.68056 0.16537,1.51864 -0.039,3.37122 -1.34999,4.34349 -2.74081,0.57344 -5.56414,0.62199 -8.35339,0.77124 -4.904,0.14676 -9.82998,0.2647 -14.72083,-0.19897 -2.19597,-0.22052 -4.49795,-0.8376 -6.01444,-2.55078 -1.37832,-1.2685 -2.37831,-2.98947 -2.45902,-4.89252 -0.25951,-3.8271 0.47746,-7.63099 1.01874,-11.40404 1.0213,-6.24841 2.10485,-12.49043 3.46058,-18.6761 0.36359,-1.5804 0.78488,-3.37204 1.25257,-5.01409 0.39583,-1.43623 0.91622,-3.09635 1.54226,-4.58692 0.4973,-0.99364 0.90305,-2.22002 1.89072,-2.82087 z m 4.61133,80.59766 c 2.01132,-2.3e-4 4.02239,0.0213 6.03321,0.0664 1.40266,0.0431 3.04306,0.0867 4.53579,0.16566 5.3296,0.24714 10.8002,0.72546 15.97788,1.55699 5.63437,0.90883 11.20302,2.47474 16.33203,5.00391 0.45357,0.25998 1.37824,0.56531 0.46233,0.9149 -2.73459,1.64304 -5.96447,2.26253 -9.10954,2.50555 -2.40666,0.0558 -5.06702,0.0299 -7.05006,1.6108 -1.00528,0.78558 -1.40308,2.08351 -1.28906,3.32226 -0.17536,4.21919 -0.75985,8.40861 -1.33789,12.5879 -0.29317,1.94628 -0.61904,4.09093 -0.96152,6.10803 -0.91778,5.20025 -1.80306,10.42836 -3.31104,15.49636 -2.0657,5.58943 -5.84926,10.46594 -10.44616,14.21775 -4.01003,3.25656 -8.74617,5.69475 -13.85317,6.62756 -6.19896,1.18703 -12.6962,1.13134 -18.80652,-0.51808 -5.37955,-1.41057 -9.84658,-5.04169 -13.55342,-9.05536 -4.16948,-4.62751 -7.61475,-10.15674 -8.73843,-16.36228 -0.4635,-2.24932 -0.74198,-4.73022 -0.88247,-6.8968 -0.22429,-3.46187 -0.14173,-7.32438 0.26953,-10.73632 0.3682,-3.2122 1.12672,-6.38976 2.48269,-9.33469 0.60277,-1.65329 1.56985,-3.49604 0.84934,-5.26297 -0.66916,-1.49963 -2.46202,-1.81249 -3.93279,-1.75931 -0.46177,-0.0412 -1.12391,0.0712 -1.44416,-0.31882 0.1362,-1.42019 1.38384,-2.42534 2.46419,-3.21543 2.95636,-1.88359 6.43375,-2.6956 9.80349,-3.50292 9.27604,-1.98251 18.76868,-2.73275 28.23237,-3.08533 2.42342,-0.0889 4.84851,-0.11981 7.27338,-0.13577 z" />
        <path
           id="path20815"
           style="opacity:1;fill:#f8ff00;fill-opacity:1;stroke-width:1.30833"
           d="m 610.92383,515.80469 c -1.70826,-0.0736 -3.22478,1.10985 -3.84182,2.6576 -1.23767,2.95298 -1.68051,6.15827 -2.33377,9.2737 -2.09919,11.21097 -3.95541,22.5439 -6.1291,33.6937 -2.20903,11.14439 -4.5023,22.30986 -8.05078,33.11914 -0.13104,0.38743 -0.39291,1.13455 -0.57402,1.65966 -5.28397,15.06752 -14.44518,28.7121 -26.23486,39.4633 -5.19662,4.77853 -10.87426,9.02086 -16.84932,12.77548 -1.02081,0.62761 -2.25698,1.38777 -3.37377,2.04405 -7.56237,4.43168 -15.66391,8.16067 -23.7903,11.21766 -6.99893,2.63056 -14.15601,4.82861 -21.39843,6.68164 -5.81196,1.47451 -11.85881,2.78513 -17.82327,3.9034 -1.42731,0.25995 -2.69613,0.49645 -4.1627,0.69144 -2.19815,0.30408 -4.6481,-0.0767 -6.57263,1.27235 -1.66455,1.10175 -1.93648,3.34404 -1.44371,5.13833 0.79552,3.03288 2.18764,5.87596 3.62731,8.64878 3.54262,6.6178 8.92212,12.10617 15.06076,16.36177 4.29864,2.9762 8.85464,5.5962 13.61145,7.76694 2.07119,0.83746 4.17225,1.81296 6.42935,1.96114 3.86171,-0.15281 7.67132,-0.89479 11.48302,-1.48763 13.7572,-2.35761 27.43894,-5.15525 41.03842,-8.29577 14.17202,-3.29779 28.11061,-7.53905 41.86757,-12.26353 6.19493,-2.20016 12.42497,-4.36942 18.35122,-7.23432 1.80957,-0.87378 3.61361,-2.01759 4.55274,-3.86524 0.76319,-1.31932 1.06316,-2.93388 0.57031,-4.40039 -0.71703,-5.06856 -0.95863,-10.18687 -1.3284,-15.26387 -1.43752,-23.10837 -2.4036,-46.25731 -3.33023,-69.41054 -0.99017,-25.36771 -1.78035,-50.70559 -2.43707,-76.0834 -2.30597,-0.007 -4.61252,0.0203 -6.91797,-0.0254 z" />
        <path
           id="path21927"
           style="opacity:1;fill:#f8ff00;fill-opacity:1;stroke-width:1.30833"
           d="m 221.61328,513.29883 c -0.8887,-0.004 -1.82964,0.28419 -2.45711,0.89437 -0.71254,1.43037 -0.25004,3.05883 -0.18879,4.57606 1.15899,11.71513 2.96828,23.36057 4.44397,35.01124 1.8496,14.36743 3.42346,28.65074 4.2474,43.12163 1.32924,22.91143 1.06246,45.98334 1.12949,68.98028 0.008,8.21172 0.0152,16.42345 0.0243,24.63517 15.81363,4.58811 31.6315,9.16636 47.43164,13.79687 1.58381,0.2884 2.92256,-1.01341 3.37528,-2.42975 1.07316,-3.12741 1.34905,-6.45539 1.80705,-9.71212 1.31434,-10.83269 2.19722,-21.67088 3.95244,-32.43625 0.13971,-0.75084 0.25921,-1.50557 0.42187,-2.25195 2.31912,5.62978 4.43868,11.53419 6.50549,17.33664 2.61269,7.32685 4.93458,14.75353 7.57068,22.07156 1.39629,3.59956 2.85815,7.49031 6.04534,9.90308 3.12952,2.31273 7.11873,2.80485 10.84369,3.47429 6.40147,0.99218 12.75998,2.25332 19.17675,3.14436 4.00577,0.54566 8.20597,0.77524 12.06826,-0.6441 3.42371,-1.26792 6.70297,-2.91846 9.85578,-4.75368 6.85877,-4.15128 13.06409,-9.4497 18.04758,-15.74238 2.42081,-3.08749 4.35649,-6.53131 6.03633,-10.06778 0.91567,-1.98911 1.55842,-4.52215 0.2131,-6.47414 -1.43093,-2.06967 -4.01688,-2.78651 -6.30585,-3.47272 -4.28421,-1.15124 -8.74024,-2.0021 -12.99074,-3.03295 -16.12139,-3.83509 -32.2029,-8.60958 -46.81436,-16.58279 -5.77197,-3.13543 -11.27653,-6.75136 -16.50595,-10.72385 -0.68433,-0.52975 -1.6,-1.22582 -2.3634,-1.8354 -5.04116,-3.96398 -9.86194,-8.23115 -14.12152,-13.03586 -1.72666,-1.92503 -3.45446,-3.97359 -4.99076,-5.9327 -5.57771,-7.05808 -10.43813,-14.66939 -14.66886,-22.60424 -0.43144,-0.82852 -1.00061,-1.89846 -1.46482,-2.83193 -4.25568,-8.38893 -7.73272,-17.17349 -10.31252,-26.22081 -0.32203,-1.15284 -0.71911,-2.48892 -1.03985,-3.66795 -3.08473,-11.29836 -5.85736,-22.69067 -8.02805,-34.20205 -0.85702,-4.53768 -1.17486,-9.21924 -2.75679,-13.58904 -0.41099,-1.34034 -1.73117,-2.01125 -2.99933,-2.33337 -4.06702,-1.14173 -8.26264,-1.792 -12.45881,-2.23637 -0.90658,-0.0896 -1.81767,-0.14864 -2.72889,-0.13137 z" />
        <path
           id="path21966"
           style="opacity:1;fill:#f8ff00;fill-opacity:1;stroke-width:1.30833"
           d="m 230.58789,367.14648 c -1.92284,0.26879 -3.38431,1.71983 -4.84652,2.87412 -5.56327,4.85043 -10.71955,10.14226 -15.99439,15.29922 -5.80414,5.80475 -11.72064,11.51748 -17.11417,17.71338 -2.31108,2.79413 -4.80716,5.80921 -5.25976,9.53907 -0.30628,3.01625 0.65585,5.95829 1.26536,8.87703 1.69307,6.94321 3.52734,13.86364 5.81514,20.63752 0.67881,1.80275 1.33866,3.80872 2.91754,5.03037 0.99818,0.69434 2.21433,0.25509 3.16812,-0.29065 3.76787,-1.90294 7.22461,-4.35239 10.94521,-6.33615 2.9209,-1.62202 6.35889,-1.33384 9.57257,-1.24504 4.5207,0.16307 9.04002,0.3627 13.5602,0.53981 -0.0722,-16.11634 -0.0179,-32.23357 -0.20388,-48.34917 -0.13213,-6.82429 -0.18032,-13.6569 -0.661,-20.46755 -0.0509,-1.33089 -0.3433,-2.91543 -1.67466,-3.55002 -0.45441,-0.23298 -0.98175,-0.32642 -1.48976,-0.27194 z" />
        <path
           id="path22005"
           style="opacity:1;fill:#f8ff00;fill-opacity:1;stroke-width:1.30833"
           d="m 534.58594,274.37695 c -14.82454,0.0803 -29.68003,0.4982 -44.39752,2.3979 -16.18009,2.0519 -32.17008,5.33212 -48.15281,8.53355 -9.14972,1.89773 -18.33664,3.65342 -27.38794,5.98838 -2.65157,0.7599 -5.44256,1.38093 -7.75019,2.96169 -1.46516,0.97597 -2.2391,3.08806 -1.2217,4.64778 1.65165,2.59801 3.91521,4.7315 6.02756,6.94797 7.00194,7.02828 14.38267,13.6793 22.04638,19.97792 6.44369,5.21092 13.26413,9.94245 20.23139,14.42309 11.40012,7.23752 23.39555,13.6835 36.17818,18.12416 7.11686,2.39545 14.55187,4.29713 22.11444,4.1259 4.76269,-0.1365 9.80827,-1.32847 13.31383,-4.75055 1.77673,-1.73645 3.13212,-3.96647 3.50834,-6.44893 0.99111,-4.87936 1.13653,-9.86819 1.48682,-14.81953 0.22983,-1.94077 0.28454,-4.01559 1.26884,-5.75386 0.48618,-0.62876 1.41388,-0.13258 2.03023,-0.004 1.92995,0.69661 3.72874,1.7767 5.41704,2.77132 9.89023,6.13576 19.97769,12.16087 31.00034,16.05048 7.84377,2.78674 16.0605,4.42404 24.3221,5.33419 2.75468,0.31175 5.57902,-0.057 8.11912,-1.18635 2.15333,-0.82767 4.17037,-2.05759 6.43344,-2.56746 0.77188,0.031 1.15307,0.9453 1.39524,1.57637 1.11549,3.40862 1.33496,7.02711 1.66638,10.5763 0.38822,5.17721 0.58058,10.38368 0.70774,15.51977 0.40725,17.17115 0.26374,34.34881 0.33948,51.52321 0.006,3.12815 0.012,6.25629 0.0181,9.38443 10.57812,-0.0383 21.15626,-0.0741 31.73438,-0.11328 1.76659,-8.77491 3.74312,-17.52149 4.82968,-26.41551 3.9559,-30.49462 0.95467,-61.72309 -7.65357,-91.19177 -2.97203,-10.26739 -6.68475,-20.30759 -10.86321,-30.14253 -0.72873,-1.75784 -1.45626,-3.51618 -2.18595,-5.27363 -10.74905,-3.17494 -21.40139,-6.79602 -32.43908,-8.86709 -14.79375,-2.84642 -29.91394,-3.15575 -44.9323,-3.31706 -5.73474,-0.0552 -11.46993,-0.0372 -17.20479,-0.0131 z" />
        <path
           id="path22161"
           style="opacity:1;fill:#ffc1ab;fill-opacity:1;stroke-width:1.85026"
           d="m 219.91602,446.10352 c -5.26136,0.19783 -9.96855,3.3257 -13.27318,7.25922 -5.41633,6.46034 -7.92,14.99677 -7.97682,23.34234 0.0403,3.37518 0.29969,6.75897 0.86576,10.08788 0.45391,2.87044 1.84874,5.55673 3.93558,7.57895 4.37543,4.44215 9.66197,7.93331 15.30872,10.54241 3.53161,1.49051 7.25854,2.50124 11.01609,3.23387 1.84815,0.27698 3.93936,0.60786 5.61799,-0.42749 1.71587,-1.16711 1.81501,-3.45159 1.80911,-5.32889 -0.12219,-4.77073 -0.57041,-9.5276 -0.84221,-14.29163 -0.55874,-7.9873 -0.93215,-15.98855 -1.60347,-23.96712 -0.40227,-3.75569 -0.70493,-7.61229 -2.15836,-11.13892 -0.93233,-2.32394 -3.07903,-3.82228 -5.16157,-5.04182 -2.2866,-1.27976 -4.91398,-1.95296 -7.53764,-1.8488 z" />
        <path
           id="path22237"
           style="opacity:1;fill:#ffc1ab;fill-opacity:1;stroke-width:1.85026"
           d="m 627.3125,446.75391 c -4.5467,0.15877 -9.17651,1.9093 -12.29102,5.29687 -1.08588,1.71026 -1.37174,3.78296 -1.83974,5.72208 -1.69225,8.43748 -2.69944,16.99483 -3.63877,25.54355 -0.60694,6.33069 -1.27865,12.67623 -1.22091,19.0436 0.075,1.6497 0.0321,3.689 1.56784,4.7248 1.9458,1.24545 4.40059,0.9444 6.58228,0.69091 6.01002,-0.92509 11.77372,-3.05158 17.27587,-5.59017 5.19952,-2.46975 10.33922,-5.7443 13.38644,-10.77364 2.98403,-4.83339 3.50152,-10.723 3.08232,-16.2695 -0.51267,-6.71953 -1.96514,-13.61673 -5.81735,-19.26714 -3.47633,-5.12725 -9.25842,-8.88739 -15.54508,-9.10776 -0.5133,-0.0294 -1.02807,-0.0245 -1.54188,-0.0136 z" />
        <path
           id="path17285"
           style="opacity:1;fill:#ffc1ab;fill-opacity:1;stroke-width:1.85026"
           d="m 391.1543,297.59375 c -6.5593,1.63882 -13.12834,3.24826 -19.59567,5.22749 -15.81281,4.73991 -31.48199,9.95458 -47.04705,15.45297 -9.28032,3.30313 -18.5495,6.68455 -27.4966,10.82196 -12.56104,5.70085 -24.9292,11.8222 -37.11533,18.28516 -5.26867,2.75563 -10.53702,5.51188 -15.8059,8.26711 -0.003,22.35221 -0.009,44.70442 -0.0137,67.05664 12.52188,5.72635 25.0416,11.45742 37.56445,17.18164 4.19678,-2.60873 8.28784,-5.39268 12.57755,-7.84841 6.46237,-3.67118 13.67064,-5.90942 21.01911,-6.9148 5.04947,-0.72222 10.16267,-0.99755 15.2062,-1.10287 4.9914,-0.0988 9.98816,-0.0535 14.97253,0.24498 0.60677,0.049 1.54451,0.10316 2.16025,0.15432 9.39446,0.74475 18.94723,2.57525 27.2045,7.32248 3.95674,2.19566 7.38606,5.17486 10.73404,8.18658 1.85709,1.63494 3.71332,3.27086 5.57113,4.90498 3.59541,-1.86726 7.11724,-3.8827 10.77306,-5.62963 5.15962,-2.40049 10.97128,-2.41435 16.54608,-2.51603 4.7525,0.021 9.54732,-0.15009 14.25293,0.63309 4.71792,0.75503 8.60919,3.70915 12.72874,5.90224 1.78058,0.9168 3.49654,2.04224 5.43943,2.58299 1.82744,0.0403 3.07435,-1.54306 4.22932,-2.73983 1.80194,-2.03709 3.19078,-4.42807 5.25649,-6.23205 5.19213,-4.79314 11.91395,-7.52661 18.64872,-9.35648 10.50352,-2.78193 21.44744,-3.44827 32.27344,-3.26128 5.80056,0.16427 11.60697,0.39518 17.38267,0.97503 4.26948,0.41961 8.46667,1.48365 12.40635,3.18496 6.02362,2.5695 11.88946,5.49096 17.83546,8.23276 0.95595,0.44852 1.91159,0.89767 2.86794,1.34533 7.46206,-3.16763 14.97071,-6.22749 22.39669,-9.47879 5.48268,-2.50001 10.95915,-5.07809 16.05954,-8.3031 2.2557,-1.46102 4.04252,-3.50584 6.05804,-5.26204 0.45085,-0.38725 0.9768,-0.74408 0.73448,-1.41294 -0.76486,-13.78147 -1.32169,-27.57477 -2.35892,-41.33901 -0.22058,-2.24428 -0.26758,-4.5262 -0.7547,-6.73139 -0.41229,-1.43666 -2.08804,-1.76758 -3.35484,-2.09244 -5.1586,-1.20469 -10.47936,-1.37247 -15.68068,-2.31975 -1.53843,-0.27238 -3.28928,-0.61916 -4.89522,-0.99249 -8.37591,-1.89251 -16.67469,-4.66585 -24.45634,-8.11102 -3.87509,-1.62364 -7.46171,-3.99821 -11.58399,-4.98242 -1.97624,-0.49116 -4.38435,-0.21954 -5.69531,1.50195 -1.47912,1.84464 -1.41548,4.32261 -1.57617,6.55469 -0.67374,3.138 -2.60583,5.83179 -4.62891,8.2539 -2.31954,2.65564 -5.11529,5.09357 -8.57394,6.07679 -6.33645,2.0405 -13.14509,1.82103 -19.66043,0.89196 -0.62465,-0.10065 -1.57165,-0.24481 -2.31532,-0.38215 -9.36755,-1.70345 -18.4077,-4.8596 -27.18117,-8.50354 -8.98788,-3.78941 -17.57678,-8.49889 -25.67539,-13.93071 -0.67415,-0.46789 -1.60139,-1.08884 -2.36887,-1.62203 -14.88505,-10.34995 -28.12653,-22.82574 -40.942,-35.59241 -4.34352,-4.28672 -8.68807,-8.57239 -13.03093,-12.85978 -0.36393,0.0918 -0.72786,0.18359 -1.09179,0.27539 z m 121.77148,95.93555 c 4.90649,-0.002 9.95154,0.13203 14.56346,2.00144 3.51295,1.39227 6.86968,3.15256 10.15724,5.00832 0.90214,0.51794 2.0117,1.19518 2.96536,1.82365 3.13098,2.11173 6.31282,4.45119 8.24949,7.7701 0.89549,1.51196 1.15713,3.42333 0.38086,5.04102 -0.21485,0.4541 -0.4344,1.31063 -1.12015,1.04034 -2.41429,-0.62818 -4.47046,-2.14264 -6.58094,-3.41284 -5.70273,-3.75136 -11.30348,-7.79176 -17.67206,-10.3636 -4.98148,-2.08833 -10.51522,-2.97924 -15.87553,-2.11944 -5.61414,0.82722 -10.83221,3.1828 -15.93076,5.5636 -3.67164,1.56348 -7.47994,3.08276 -11.50166,3.34834 -0.71436,0.002 -1.53335,0.0499 -2.15093,-0.34156 0.17776,-1.51867 1.30137,-2.72378 2.21273,-3.88014 3.67819,-4.25859 8.47029,-7.60275 13.87666,-9.24523 5.94218,-1.86822 12.23827,-2.20476 18.42623,-2.234 z m -188.41797,0.0137 c 5.41826,0.0628 10.93443,0.42068 16.10157,2.17187 4.65014,1.83255 8.88042,4.73606 12.31445,8.36328 1.17765,1.37301 2.52426,2.84101 2.77929,4.69922 0.0877,0.50916 -0.24473,0.94727 -0.77929,0.91407 -1.96521,0.13078 -3.86561,-0.57416 -5.68945,-1.21875 -0.75208,-0.28245 -1.75832,-0.70203 -2.59366,-1.0804 -3.78073,-1.75972 -7.47542,-3.74143 -11.4556,-5.03302 -5.52517,-1.9171 -11.56563,-2.55955 -17.30625,-1.26858 -7.55953,1.64416 -14.29216,5.69136 -20.72682,9.82763 -3.08683,1.90811 -6.13445,3.98206 -9.56574,5.22686 -0.5407,0.13664 -1.17206,0.41815 -1.71131,0.19274 -0.64577,-1.25088 -0.55498,-2.74008 -0.57031,-4.11133 0.4952,-1.96195 2.02567,-3.44383 3.39074,-4.85542 1.81952,-1.77682 3.91228,-3.37462 5.91785,-4.76958 3.74441,-2.53045 7.69186,-4.79876 11.8661,-6.54017 4.95253,-1.76576 10.25222,-2.26609 15.4741,-2.47797 0.85132,-0.0268 1.70262,-0.0377 2.55433,-0.0404 z" />
        <path
           id="path978"
           style="fill:#000000;stroke-width:1.89782"
           d="m 387.01207,17.172334 c -4.4631,-0.467799 -11.05849,1.18633 -20.30377,4.638874 -22.68777,8.472512 -38.03796,20.476195 -50.54885,39.527643 -12.47617,18.998609 -20.40619,48.847949 -15.42813,58.076359 2.68536,4.9782 13.66607,4.89425 28.97238,-0.22154 34.35829,-11.48344 58.76953,-42.076872 64.2579,-80.526981 2.00478,-14.044984 0.48899,-20.714689 -6.94953,-21.494355 z m 80.61539,87.483036 c -3.86395,-0.0235 -7.55413,0.088 -11.02172,0.34362 -28.41843,2.09549 -48.42305,10.23068 -72.38629,29.43153 -23.81037,19.07836 -50.79414,28.19515 -86.38834,29.1919 -11.52723,0.3228 -26.94904,0.0254 -34.27149,-0.66236 -35.07464,-3.29392 -63.95937,8.40531 -89.77613,36.36271 -20.1102,21.77771 -37.71402,59.13428 -42.48227,90.1461 -2.70871,17.61687 -4.00033,93.0519 -1.86099,108.6948 4.22224,30.87335 19.31167,47.67761 52.4808,58.44033 9.79929,3.17967 9.83495,3.21916 8.09863,9.22576 -4.33934,15.01136 0.43599,30.63331 12.34021,40.36861 6.51935,5.33155 7.13297,6.78483 9.8154,23.23959 8.53763,52.37153 12.50459,119.20536 8.63425,145.46671 -1.27177,8.62927 -2.72028,16.74632 -3.22067,18.04007 -0.62832,1.62448 9.58192,5.37417 32.99878,12.11714 18.64959,5.37021 34.54995,9.75716 35.3359,9.75022 0.78595,-0.008 1.51393,-2.35394 1.61835,-5.21308 0.10443,-2.85915 0.80433,-7.32508 1.55426,-9.9243 1.23975,-4.29692 1.66267,-3.84171 4.66506,5.0164 3.54379,10.45547 3.83775,10.63483 21.2194,13.04628 5.23965,0.72694 10.24572,1.73454 11.12472,2.24032 0.87898,0.50579 -2.56929,3.2817 -7.66142,6.16707 -18.40369,10.42814 -30.81513,28.15223 -37.9019,54.12699 -0.28034,1.02752 -0.60802,1.68126 -0.91104,2.63367 h 11.54591 c 3.13983,-10.26645 9.0324,-23.32837 14.56516,-29.5197 5.14909,-5.76198 21.04517,-17.42598 29.75751,-21.83572 l 7.55841,-3.8273 -0.81719,39.80797 c -0.12199,5.94682 -0.29239,10.25647 -0.44637,15.37475 H 517.4713 c -4.07632,-20.01127 -10.47878,-54.08283 -9.99166,-54.59043 1.6201,-1.68814 21.80572,11.12638 31.46513,19.9752 10.20561,9.3492 18.39682,23.47406 20.55786,34.61523 h 11.78627 c -0.68503,-2.03486 -1.38133,-4.08387 -2.74915,-8.56338 -6.94488,-22.74527 -18.65786,-38.36773 -36.22861,-48.32387 -5.82329,-3.29968 -8.41007,-5.68858 -6.70689,-6.19422 1.525,-0.45273 12.20324,-2.69252 23.73047,-4.9757 23.21563,-4.59831 49.84078,-12.56455 71.13875,-21.28413 13.71045,-5.61318 13.96119,-5.83678 12.97199,-11.62205 -0.55474,-3.24433 -1.5315,-14.40482 -2.17001,-24.80171 -0.6385,-10.39691 -1.5098,-23.15702 -1.93652,-28.35545 -0.42673,-5.19846 -1.33887,-32.84424 -2.02809,-61.43571 l -1.25439,-51.98389 9.56131,-3.32091 c 22.28373,-7.73715 31.3538,-34.02924 19.61707,-56.86916 -3.16381,-6.15699 -3.15533,-7.23942 0.18541,-23.22829 4.60968,-22.06204 6.3172,-54.81543 3.7792,-72.53102 -1.93038,-13.4744 -1.79035,-14.66171 2.85215,-24.07603 2.74873,-5.57405 6.19584,-17.87017 7.88573,-28.1294 6.757,-41.02139 -7.11236,-93.74985 -34.18679,-129.97667 -14.90259,-19.94036 -47.3566,-42.51386 -79.4228,-55.24149 -26.16202,-10.38416 -61.65262,-17.17253 -88.70027,-17.337 z m 74.08704,170.69341 c 35.23605,-0.0524 52.46319,1.95698 74.61582,8.70354 l 11.74048,3.57637 5.73175,13.67925 c 16.58515,39.59482 20.86144,86.9719 11.68326,129.43185 -2.09002,9.66872 -2.0932,9.67121 -7.7278,7.72242 -3.09995,-1.07204 -8.40196,-1.56181 -11.78168,-1.08964 -3.37968,0.47212 -7.43089,1.42308 -9.00279,2.11371 -2.49317,1.09544 -2.80434,-3.39161 -2.43783,-35.15553 0.23108,-20.02641 -0.22729,-40.66583 -1.01862,-45.86428 -1.2178,-7.99992 -2.01291,-9.34935 -5.18239,-8.78944 -2.05958,0.36384 -4.30549,1.55513 -4.9901,2.6495 -1.82832,2.92266 -22.0516,0.36998 -34.92388,-4.4083 -5.97418,-2.21765 -16.23432,-7.68152 -22.80112,-12.142 -14.64108,-9.94487 -17.12101,-9.11731 -16.52456,5.50923 0.36895,9.04824 -0.2474,11.21481 -4.34461,15.27981 -3.6841,3.65511 -6.73629,4.73607 -13.36799,4.73607 -23.97359,0 -66.15214,-23.37191 -95.42089,-52.87684 -12.82679,-12.9303 -12.69456,-13.5225 3.81126,-17.14032 60.26427,-13.20899 80.65715,-15.87405 121.94169,-15.9354 z m -150.12205,22.92762 16.94804,17.01147 c 28.40786,28.5132 54.06408,45.22962 82.33674,53.64999 26.36588,7.85248 44.49446,1.87867 47.30987,-15.58952 0.6355,-3.94295 1.75111,-7.16855 2.47902,-7.16855 0.72789,0 5.97724,2.48454 11.66495,5.52279 11.80965,6.30836 29.04386,11.10131 42.25566,11.75092 7.72405,0.37981 9.05299,1.01647 9.06002,4.34498 0.005,2.14502 0.45915,13.83033 1.00947,25.96595 1.17476,25.9071 2.96836,23.39447 -25.57315,35.81337 -18.14728,7.89623 -18.15944,7.89904 -23.9525,4.49872 -13.02117,-7.64297 -17.67239,-9.21189 -32.84771,-11.07723 -19.82124,-2.43642 -40.59105,0.21134 -53.38499,6.80459 -5.01208,2.58292 -10.86077,7.22404 -12.99716,10.31539 l -3.88449,5.62226 -6.98387,-4.38568 c -14.5822,-9.15631 -33.81757,-9.43196 -48.07897,-0.68724 l -5.79585,3.55376 -5.88742,-6.1377 c -11.56305,-12.05696 -31.88046,-17.45225 -58.85806,-15.62794 -17.65048,1.19355 -25.45363,3.50735 -36.61089,10.84891 l -8.03224,5.28316 -18.64193,-8.33053 -18.64423,-8.33053 v -32.4224 -32.42013 l 21.42999,-11.83003 c 26.12298,-14.42095 62.36695,-28.83931 98.56144,-39.20889 z m -159.92373,68.69694 c 1.20415,0 1.80517,13.07083 1.64124,35.71844 l -0.25866,35.72069 -9.52698,-0.93365 c -8.0456,-0.78853 -10.6501,-0.17128 -16.75577,3.97649 -7.95213,5.40214 -8.35387,5.54994 -9.60022,3.49498 -2.16461,-3.56895 -8.89292,-27.83314 -8.89292,-32.07198 0,-3.50524 5.39504,-10.08957 20.74785,-25.32165 11.41078,-11.32108 21.60089,-20.58332 22.64546,-20.58332 z m 282.00734,24.63668 c -12.24908,-0.51291 -24.19354,3.02073 -31.47658,9.809 -9.60891,8.95613 -2.68761,13.66112 8.90208,6.0518 11.58921,-7.60906 23.99017,-8.27788 36.94052,-1.99165 5.615,2.72556 11.79394,6.6922 13.72965,8.81432 4.54083,4.9781 9.46976,4.04469 9.46976,-1.79271 0,-5.30956 -14.15564,-15.90663 -25.37629,-18.99858 -3.98922,-1.09928 -8.1061,-1.72121 -12.18914,-1.89218 z m -193.32538,0.0678 c -6.09198,0.10752 -9.78944,1.21584 -16.17893,4.20256 -15.88512,7.42543 -24.04404,16.22391 -19.35841,20.87269 2.23004,2.21249 4.22126,1.40276 13.07958,-5.30578 15.74021,-11.9203 32.54091,-13.30096 46.9253,-3.85668 14.36685,9.43278 18.06624,0.59895 3.88908,-9.2868 -6.73098,-4.6935 -10.47883,-5.82611 -21.27891,-6.43158 -2.75082,-0.1542 -5.04705,-0.23026 -7.07771,-0.19441 z m 283.6852,38.7025 c 1.21922,1.2096 -2.312,54.00397 -5.24189,78.36806 -3.65856,30.42355 -11.29987,69.16892 -16.12857,81.77712 -5.30163,13.84304 -14.30373,26.57229 -27.33571,38.65277 -19.89568,18.44306 -47.43855,30.2876 -82.68009,35.55792 -33.75275,5.04768 -85.33903,2.58384 -119.71676,-5.7172 -7.2505,-1.75075 -20.47241,-6.61888 -29.37982,-10.81953 -46.47011,-21.91489 -70.06002,-71.78349 -78.04021,-164.96942 -1.96258,-22.91732 -2.62497,-50.09397 -1.22006,-50.09397 0.41963,0 8.06311,3.32911 16.98467,7.39914 l 16.22013,7.39914 -1.59088,6.99674 c -5.85427,25.75296 12.14313,56.93304 38.08961,65.99094 38.49121,13.43719 79.6132,-13.76733 80.38649,-53.17977 0.23151,-11.80051 2.60874,-16.07398 11.47723,-20.62401 10.50389,-5.38905 32.16471,-1.42313 39.03728,7.14595 1.10326,1.37561 2.6089,8.02899 3.34428,14.78698 1.68239,15.46058 6.24439,25.81368 16.00955,36.32429 23.60438,25.40639 65.77168,25.30157 88.35692,-0.21928 12.50777,-14.13354 16.71719,-30.18457 14.29733,-54.52261 -0.36304,-3.65118 2.14866,-5.39547 18.06511,-12.53536 10.16787,-4.56119 18.74689,-8.03392 19.06539,-7.7179 z m -385.20409,16.70176 c 1.82362,-0.18283 3.72522,0.23517 6.56954,1.1665 7.98231,2.61368 8.00836,2.71525 9.59565,34.50899 l 1.20404,24.10089 -5.38612,-0.0181 c -9.26519,-0.0317 -24.77069,-8.44091 -28.45961,-15.43353 -7.19735,-13.64311 -1.97738,-34.73002 10.36935,-41.88777 2.53718,-1.47088 4.28353,-2.25416 6.10715,-2.437 z m 412.34753,0.35945 c 10.55163,1.35514 18.18641,12.90149 18.18641,29.97636 0,8.93747 -0.83342,11.34673 -5.89656,17.06798 -3.94121,4.4535 -9.10817,7.60811 -15.58836,9.51738 -5.33121,1.57076 -11.79873,2.85521 -14.37287,2.85521 -4.67448,0 -4.67921,-0.0195 -3.43815,-14.65134 3.65141,-43.04859 2.75166,-39.44041 10.73332,-43.01132 1.94195,-0.86883 3.84525,-1.42806 5.68825,-1.69775 1.61263,-0.23598 3.18058,-0.25029 4.68796,-0.0565 z m -213.32244,32.81574 c -2.97671,0.35482 -5.04607,7.27593 -7.62249,23.58095 -3.36062,21.26788 -3.35877,22.0095 0.0663,25.76474 3.06108,3.35591 5.43031,3.7945 17.93233,3.32091 13.29221,-0.50348 14.45193,-0.87449 15.01381,-4.79937 0.56551,-3.95056 -0.11286,-4.25484 -9.52698,-4.2817 -15.5283,-0.0443 -15.63156,-0.21722 -12.82549,-21.49662 1.76294,-13.36898 1.84184,-18.82511 0.29528,-20.3595 -1.2461,-1.23631 -2.3406,-1.84768 -3.33284,-1.72941 z M 222.93604,514.7753 c 1.85952,0.12985 4.35322,0.38613 7.03421,0.73923 8.90919,1.17257 9.75147,1.70911 9.77878,6.23716 0.0479,7.95933 7.00214,38.46372 12.41803,54.47062 17.87308,52.82437 55.66722,84.30199 114.2574,95.16023 7.33551,1.35945 14.03944,3.06552 14.89706,3.79112 2.14815,1.8174 -2.77009,12.84259 -8.99362,20.1651 -2.83347,3.33384 -9.71187,8.64996 -15.28621,11.81421 -5.57436,3.16423 -11.74534,5.6567 -13.71363,5.53861 -9.12821,-0.54781 -37.8401,-5.64391 -38.83584,-6.89274 -0.61382,-0.76982 -4.89998,-13.0967 -9.5247,-27.39243 -4.62471,-14.29574 -8.95704,-25.99081 -9.6277,-25.99081 -0.67062,0 -2.33817,11.48252 -3.70367,25.51833 -1.36549,14.03582 -2.99409,25.4962 -3.62125,25.46634 -0.62717,-0.0299 -11.85828,-3.25615 -24.9574,-7.16855 l -23.81745,-7.11204 0.95224,-11.26487 c 2.92445,-34.57525 -0.81731,-99.96767 -8.37788,-146.42297 -1.43828,-8.83737 -2.38444,-16.3221 -2.10363,-16.63394 0.1404,-0.15592 1.36574,-0.1525 3.22526,-0.0226 z m 389.1092,1.53499 h 4.3652 l 1.3139,47.73158 c 1.31376,47.67907 4.24801,103.53967 5.93777,113.05562 0.84702,4.77004 0.0602,5.35229 -14.8055,10.99132 -23.98799,9.09941 -45.58232,15.02413 -73.46214,20.15153 -13.95486,2.56642 -26.81454,4.65613 -28.57866,4.6434 -4.30228,-0.0306 -19.06182,-8.48695 -25.76543,-14.76212 -5.53559,-5.18179 -9.28139,-11.22936 -11.62602,-18.77025 -1.10823,-3.56432 -0.60768,-4.2534 3.09248,-4.25457 2.42847,-10e-4 13.41852,-2.15869 24.42178,-4.7926 43.61863,-10.44119 74.70726,-31.99357 89.58384,-62.10711 5.9944,-12.13408 8.74841,-21.43211 13.21462,-44.6277 3.10289,-16.11519 6.15824,-33.34124 6.79158,-38.27976 0.99596,-7.76613 1.7418,-8.97934 5.51658,-8.97934 z m -195.4954,43.93141 c -12.18274,0.40271 -24.27842,1.89595 -32.50206,4.35629 -10.66542,3.19085 -15.10246,8.42322 -7.1441,8.42322 4.4741,0 4.62356,1.18785 0.95224,7.55964 -4.12814,7.16465 -3.55744,23.84139 1.14681,33.48265 4.27374,8.75897 13.30674,16.74638 22.06863,19.51401 8.67158,2.73913 21.77702,0.4314 30.0299,-5.28768 10.92219,-7.56889 15.99911,-18.79975 17.51115,-38.72964 l 1.25439,-16.53898 6.86483,-0.0294 c 3.77514,-0.016 8.14967,-0.86614 9.72156,-1.88991 4.22897,-2.75431 0.0207,-4.9168 -16.8748,-8.66964 -8.57635,-1.90497 -20.8458,-2.5933 -33.02855,-2.19057 z m 22.27693,12.01314 -0.18084,15.07183 c -0.20612,17.32601 -3.88666,27.07726 -12.52791,33.18197 -16.1562,11.41378 -36.54574,2.2189 -41.26222,-18.6075 -3.22416,-14.23691 5.41505,-28.74282 17.17695,-28.83924 4.82051,-0.0396 5.10285,0.43337 4.76349,7.99143 -0.30709,6.83952 0.19418,8.03439 3.37176,8.03439 2.70232,0 4.09287,-1.74387 5.03588,-6.31854 1.74807,-8.47983 3.0046,-9.36932 14.0959,-9.98535 z M 394.63,676.88046 c 0.72969,0.0603 15.3674,0.10846 32.52725,0.10846 h 31.1996 l 1.2315,6.11282 c 0.67772,3.36198 3.34368,9.27724 5.92404,13.14574 l 4.69025,7.03518 -4.25533,2.97728 c -2.34114,1.63756 -9.70668,4.65415 -16.36664,6.70287 -12.32535,3.79146 -30.16369,4.59961 -41.65593,1.88991 -3.37282,-0.79531 -10.88519,-3.75211 -16.69397,-6.57174 l -10.56162,-5.12718 4.08365,-5.69009 c 2.24639,-3.12996 5.08988,-9.06747 6.31774,-13.1932 1.22783,-4.12571 2.82975,-7.45041 3.55946,-7.3901 z" />
        <path
           id="path17324"
           style="opacity:1;fill:#ffc1ab;fill-opacity:1;stroke-width:1.85026"
           d="m 392.84766,676.69727 c -1.27986,3.72038 -2.54015,7.45536 -4.23828,11.01171 -1.9079,4.33392 -4.34075,8.41077 -6.24984,12.74278 -0.4668,1.25856 -1.34635,2.67152 -0.75418,4.02138 0.67176,1.16971 2.07014,1.62856 3.19472,2.26143 6.13962,2.92778 12.49618,5.38055 18.89156,7.68737 3.48275,1.22454 7.01789,2.44172 10.7268,2.71768 7.36533,0.69884 14.78928,0.0794 22.09723,-0.921 7.68923,-1.12746 15.35824,-2.7315 22.64261,-5.48596 3.28442,-1.29363 6.61217,-2.81873 9.13579,-5.35114 1.32766,-1.36351 1.29643,-3.47935 0.57941,-5.13263 -1.49912,-3.69867 -3.69375,-7.06612 -5.29331,-10.72095 -1.47954,-3.24602 -2.93457,-6.54667 -3.60672,-10.07047 -0.32083,-1.36743 -0.6413,-2.73494 -0.96368,-4.102 -21.89844,0 -43.79688,0 -65.69532,0 -0.1556,0.44726 -0.31119,0.89453 -0.46679,1.3418 z" />
        <path
           id="path17541"
           style="opacity:1;fill:#ffc1ab;fill-opacity:1;stroke-width:0.640623"
           d="m 342.03711,726.27701 c -6.52159,3.32203 -13.14504,6.52241 -19.17379,10.64244 -5.06554,3.47651 -10.12749,6.99917 -14.69144,11.07805 -4.6302,4.12139 -8.3809,9.0982 -11.19502,14.51333 -3.32653,6.26329 -5.75129,12.91116 -8.35381,19.46848 18.31054,0 36.62109,0 54.93164,0 0.28778,-13.87957 0.52223,-27.76046 0.9414,-41.63717 0.16025,-5.16542 0.40543,-10.4258 0.61524,-15.6273 -1.02474,0.52072 -2.04948,1.04145 -3.07422,1.56217 z" />
        <path
           id="path17580"
           style="opacity:1;fill:#ffc1ab;fill-opacity:1;stroke-width:0.648539"
           d="m 508.29883,726.72265 c -1.03212,0.0221 -2.02216,0.76633 -2.14063,1.80258 -0.18494,1.89703 0.28167,3.79106 0.50831,5.6697 1.82727,11.32768 4.10607,22.5825 6.30899,33.84184 1.01465,5.13366 2.02954,10.26728 3.04403,15.40098 12.25014,-0.0288 24.50128,0.0702 36.75069,-0.0827 2.16496,-0.12649 4.41121,0.0574 6.49791,-0.61354 1.2321,-0.42874 1.79894,-1.83294 1.4159,-3.02237 -0.80379,-3.26277 -2.16566,-6.3641 -3.48897,-9.44957 -2.18674,-5.12168 -5.2935,-9.81428 -8.69431,-14.23012 -5.0932,-6.57215 -11.35757,-12.20277 -18.21272,-16.95886 -5.59104,-3.9295 -11.32893,-7.69638 -17.42256,-10.83612 -1.44044,-0.65545 -2.93591,-1.53884 -4.56664,-1.5219 z" />
      </g>
    </g>
  </g>
</svg>
