<?xml version="1.0" encoding="UTF-8" standalone="no"?>
<!-- Created with Inkscape (http://www.inkscape.org/) -->

<svg
   version="1.1"
   id="svg64"
   width="512"
   height="512"
   viewBox="0 0 512 511.99999"
   sodipodi:docname="barq.svg"
   inkscape:version="1.2.2 (b0a8486541, 2022-12-01)"
   xmlns:inkscape="http://www.inkscape.org/namespaces/inkscape"
   xmlns:sodipodi="http://sodipodi.sourceforge.net/DTD/sodipodi-0.dtd"
   xmlns="http://www.w3.org/2000/svg"
   xmlns:svg="http://www.w3.org/2000/svg"
   xmlns:rdf="http://www.w3.org/1999/02/22-rdf-syntax-ns#"
   xmlns:cc="http://creativecommons.org/ns#"
   xmlns:dc="http://purl.org/dc/elements/1.1/">
  <metadata
     id="metadata70">
    <rdf:RDF>
      <cc:Work
         rdf:about="">
        <dc:format>image/svg+xml</dc:format>
        <dc:type
           rdf:resource="http://purl.org/dc/dcmitype/StillImage" />
      </cc:Work>
    </rdf:RDF>
  </metadata>
  <defs
     id="defs68" />
  <sodipodi:namedview
     pagecolor="#a9a9a9"
     bordercolor="#666666"
     borderopacity="1"
     objecttolerance="10"
     gridtolerance="10"
     guidetolerance="10"
     inkscape:pageopacity="0"
     inkscape:pageshadow="2"
     inkscape:window-width="1366"
     inkscape:window-height="705"
     id="namedview66"
     showgrid="false"
     inkscape:zoom="0.84670104"
     inkscape:cx="169.48131"
     inkscape:cy="245.65932"
     inkscape:window-x="0"
     inkscape:window-y="26"
     inkscape:window-maximized="1"
     inkscape:current-layer="svg64"
     inkscape:pagecheckerboard="0"
     inkscape:showpageshadow="0"
     inkscape:deskcolor="#a9a9a9" />
  <g
     id="g428">
    <ellipse
       style="fill:#ffffff;stroke-width:13.9024"
       id="path415"
       cx="252.7222"
       cy="52.814018"
       rx="9.6447248"
       ry="10.137936" />
    <path
       style="fill:#ffc800;fill-opacity:1;stroke-width:2.07424"
       d="m 359.9535,493.28814 -0.31952,-13.56545 -4.97277,3.66171 c -9.20031,6.77469 -20.28634,4.1836 -26.32489,-6.15281 -3.21901,-5.5101 -3.29729,-6.02351 -2.95522,-19.3788 0.33136,-12.93688 0.53761,-13.98594 3.61896,-18.40711 4.09268,-5.87225 11.91832,-9.88327 17.38612,-8.91123 2.17459,0.38658 5.81802,2.11817 8.09651,3.84795 5.14543,3.90631 5.71631,3.91132 5.71631,0.0502 0,-2.95737 0.30134,-3.09492 6.7803,-3.09492 h 6.7803 v 37.75797 37.75797 h -6.74329 -6.74329 z m -7.89259,-18.72021 c 9.56072,-3.65117 8.85153,-30.31061 -0.84811,-31.88171 -7.62024,-1.23429 -11.65052,4.34266 -11.50181,15.91577 0.10993,8.55515 1.41788,12.689 4.84744,15.32055 3.06532,2.35208 3.0393,2.34984 7.50248,0.64539 z"
       id="path5543" />
    <path
       id="path1022"
       style="fill:#ffffff;fill-opacity:1;stroke-width:1.03712"
       d="m 364.75586,169.81641 c -2.75281,0.15062 -5.47212,0.68007 -8.21039,0.99084 -15.94824,2.09926 -31.86677,4.29601 -47.82667,6.24897 -2.29135,0.0161 -4.00081,1.85514 -5.27935,3.55706 -3.78774,5.07496 -7.25443,10.39096 -10.31953,15.93361 -0.52109,0.90885 -1.04219,1.8177 -1.56328,2.72655 4.85661,-0.87811 9.69092,-1.8704 14.49409,-3.00508 7.6497,-1.69725 15.25955,-3.58527 22.95318,-5.07695 0.62077,-0.22117 -0.19083,0.84015 -0.26808,1.22561 -6.46145,13.98006 -13.28093,27.79125 -20.00129,41.64763 -18.40676,37.76914 -37.05591,75.42022 -55.48114,113.17928 -2.04149,4.26718 -4.20434,8.47886 -6.14012,12.79513 0.0542,0.65952 0.15498,1.30184 0.64484,1.78726 0.30074,0.51082 1.05881,0.58532 1.59458,0.62446 1.69232,-0.14126 2.39681,-1.90123 3.25401,-3.11121 8.46371,-13.2754 16.71955,-26.68 25.03686,-40.04657 22.04142,-35.56996 44.0147,-71.18021 65.89488,-106.84784 7.56713,-12.37825 15.18648,-24.72457 22.61208,-37.18948 0.67416,-1.20243 1.77207,-2.58432 1.10742,-4.01743 -0.39339,-0.98225 -1.49328,-1.45205 -2.50209,-1.42184 z" />
    <path
       id="path1431"
       style="fill:#ffffff;fill-opacity:1;stroke-width:1.03712"
       d="m 249.01562,55.193359 c -1.22215,0.0477 -2.02128,1.205514 -2.65466,2.130628 -8.65931,13.519341 -17.03449,27.217888 -25.49208,40.863856 -27.01693,43.715037 -54.04468,87.427357 -81.00599,131.173747 -0.63256,1.21365 -1.87171,2.3931 -1.53408,3.86852 0.28665,1.29962 1.72415,1.88613 2.94761,1.72751 3.54256,-0.35228 6.9984,-1.27756 10.47749,-2.00059 18.15315,-4.14721 36.24901,-8.54486 54.3683,-12.84136 15.94785,-3.78608 31.88417,-7.62098 47.84263,-11.36176 1.97147,-2.41072 3.60227,-5.07954 5.39116,-7.62531 2.82183,-4.2438 5.78823,-8.40318 8.3398,-12.81807 0.67701,-1.18067 1.35958,-2.79848 0.39021,-4.01409 -0.735,-1.02915 -2.10206,-0.94012 -3.2144,-0.77443 -12.03575,1.34715 -24.03355,3.01271 -36.04104,4.59161 -16.41197,2.18994 -32.82061,4.40933 -49.24905,6.46958 -0.65497,0.15951 0.21929,-0.78967 0.27633,-1.13371 6.56614,-12.94901 13.396,-25.7622 20.16035,-38.60831 15.11172,-28.6397 30.41354,-57.178234 45.49555,-85.831252 1.78027,-3.456997 3.66013,-6.865012 5.34953,-10.36735 0.29333,-0.790929 0.45041,-1.711817 0.068,-2.48282 -0.51158,-0.401042 -0.8575,-1.237811 -1.6181,-0.9839 -0.0992,0.0058 -0.19834,0.01167 -0.29752,0.0175 z" />
    <ellipse
       style="fill:#ffffff;stroke-width:11.837"
       id="path361"
       cx="247.97792"
       cy="362.01248"
       rx="5.4108624"
       ry="6.1140146" />
    <path
       style="fill:#ffc800;fill-opacity:1;stroke-width:2.07424"
       d="m 238.31091,401.30429 c -3.77741,-22.30843 -11.28839,-70.58073 -11.50725,-73.95582 -0.33463,-5.16095 -0.13305,-5.67847 5.29054,-13.58244 l 5.24104,-7.63795 -0.76183,-10.12573 c -0.41901,-5.56917 -1.06265,-12.21481 -1.4303,-14.76812 l -0.66846,-4.64237 H 207.6188 c -22.89812,0 -26.95228,-0.27525 -27.51009,-1.86771 -0.99983,-2.85435 0.5611,-6.16769 10.47759,-22.24042 5.03013,-8.15287 9.14568,-15.26948 9.14568,-15.81472 0,-1.4949 -4.85602,-3.21946 -13.15485,-4.67182 -5.34392,-0.93521 -11.36827,-0.89954 -21.32776,0.12627 -7.63409,0.78631 -14.43683,1.22512 -15.11721,0.97512 -0.68038,-0.24999 22.02439,-5.95753 50.45503,-12.68339 28.43065,-6.72589 52.51027,-13.00832 53.51027,-13.96096 2.57327,-2.45143 14.95334,-21.46188 14.38322,-22.08644 -0.25986,-0.28469 -18.75863,1.93733 -41.10837,4.93781 -22.34975,3.00048 -42.54286,5.70908 -44.87358,6.01913 -2.33074,0.31005 -4.2377,0.23439 -4.2377,-0.16813 0,-1.11667 9.94609,-20.16619 44.10833,-84.47972 35.51816,-66.866193 34.22938,-64.360328 33.50757,-65.151069 -0.65108,-0.713246 -13.5125,19.645272 -61.73007,97.713329 -20.09356,32.53307 -36.76918,58.89312 -37.05694,58.57789 -0.6882,-0.75393 93.94983,-171.820474 105.45816,-190.624882 l 3.70001,-6.0457766 2.32039,8.5217096 c 1.27621,4.68694 6.08702,23.284458 10.69072,41.327815 l 8.37033,32.806106 -3.84598,5.757537 c -2.11528,3.166637 -4.91115,8.395481 -6.21303,11.619641 -2.23215,5.52804 -5.38939,21.38304 -5.47595,27.4991 l -0.0394,2.78542 25.70863,0.0169 c 14.13974,0.009 26.85279,0.35282 28.25124,0.76338 1.43094,0.42009 2.5426,1.71122 2.5426,2.95307 0,1.21364 -4.5767,9.62253 -10.17044,18.68644 -5.59375,9.06391 -10.17045,16.92993 -10.17045,17.48005 0,0.55012 1.14418,0.74066 2.54261,0.42343 1.39844,-0.31723 7.8821,-0.8468 14.40814,-1.17682 l 11.86552,-0.60001 -15.02027,2.24602 c -10.44025,1.56116 -15.6813,2.90138 -17.18816,4.3953 -3.25509,3.22715 -10.64261,15.36578 -9.86799,16.21438 0.3721,0.40762 8.29047,-0.98523 17.59639,-3.09526 9.30592,-2.10993 17.22813,-3.8363 17.60492,-3.8363 1.25808,0 -3.08623,9.02285 -70.81159,147.07142 -12.57107,25.62434 -15.1655,32.02613 -10.76427,26.56093 2.04574,-2.5403 56.10747,-89.57868 86.49931,-139.26231 11.55233,-18.8854 21.20542,-34.11669 21.45129,-33.84734 0.24588,0.26936 -3.59449,8.2004 -8.53417,17.62454 -4.93967,9.42413 -28.11124,54.59419 -51.49235,100.3779 -51.36236,100.57514 -53.87629,105.43045 -54.97349,106.1733 -0.47608,0.32235 -1.92585,-5.67543 -3.2217,-13.32837 z"
       id="path1470" />
    <path
       style="fill:#0067ff;fill-opacity:1;stroke-width:2.07424"
       d="m 380.19835,252.28368 c -0.43368,-0.47509 -0.77779,-3.41711 -0.76468,-6.53782 l 0.0238,-5.67401 39.25088,-17.08454 c 21.58797,-9.39651 41.53675,-18.21575 44.33062,-19.59833 l 5.07974,-2.51376 -3.95517,-2.19929 c -2.17535,-1.2096 -22.13484,-10.15982 -44.35445,-19.88937 l -40.39926,-17.69008 v -5.93451 c 0,-3.26398 0.38139,-6.19081 0.84754,-6.50404 0.46614,-0.31324 24.74808,9.9004 53.95986,22.69695 l 53.11233,23.26648 0.33057,6.0127 0.33057,6.0127 -51.74783,22.53677 c -28.4613,12.39522 -52.53716,22.85788 -53.50192,23.25037 -0.96476,0.39247 -2.10893,0.32488 -2.54261,-0.15022 z"
       id="path2508" />
    <path
       style="fill:#0067ff;fill-opacity:1;stroke-width:2.07424"
       d="M 83.901905,233.4122 C 59.662344,222.66987 36.27032,212.23723 31.91963,210.22856 l -7.910346,-3.65215 v -6.10685 -6.10686 l 50.287201,-21.99531 c 27.657965,-12.09743 51.685635,-22.5353 53.394845,-23.19527 l 3.10763,-1.19996 v 6.58268 6.58268 l -41.52932,18.28083 c -22.841125,10.05448 -42.797,18.9878 -44.346389,19.85184 -2.790008,1.55591 -2.757442,1.59979 3.390148,4.56688 3.413971,1.64774 23.367903,10.47464 44.342071,19.61534 l 38.13485,16.61944 0.004,6.49933 c 0.003,4.41035 -0.4497,6.47894 -1.40825,6.43592 -0.7769,-0.0349 -21.24493,-8.85257 -45.484488,-19.5949 z"
       id="path5174" />
    <path
       style="fill:#ffc800;fill-opacity:1;stroke-width:2.07424"
       d="m 155.68328,485.7319 c -1.54103,-0.71064 -3.6562,-2.13906 -4.70036,-3.17425 -1.71523,-1.70049 -1.97026,-1.63446 -2.64201,0.68417 -0.65073,2.24607 -1.65063,2.56632 -8.01268,2.56632 h -7.26918 V 448.05017 410.2922 h 7.34533 7.34532 v 13.61763 c 0,7.4897 0.30118,13.61763 0.6693,13.61763 0.3681,0 1.96006,-1.11228 3.53767,-2.47173 9.08121,-7.82545 21.55657,-4.90378 27.47273,6.43396 2.43946,4.675 2.77793,6.82859 2.78208,17.70218 0.006,14.11102 -1.34944,18.12711 -7.98594,23.67242 -4.49251,3.75383 -13.57462,5.1584 -18.54226,2.86761 z m 9.23774,-13.64751 c 4.03827,-5.22057 4.02676,-19.89523 -0.0203,-25.86213 -2.90015,-4.27592 -8.5994,-4.8345 -12.14072,-1.18989 -4.99244,5.13805 -5.8723,20.92638 -1.48866,26.71274 3.52167,4.64858 10.18811,4.81428 13.64967,0.33928 z"
       id="path5291" />
    <path
       style="fill:#ffc800;fill-opacity:1;stroke-width:2.07424"
       d="m 207.04899,485.73326 c -9.29578,-2.9628 -14.33316,-15.65048 -9.80043,-24.68443 3.31716,-6.61126 7.67969,-8.71725 21.25193,-10.25926 13.00563,-1.47764 15.37928,-3.09293 10.67603,-7.2651 -3.19128,-2.83091 -11.62676,-3.00709 -20.40415,-0.42615 -8.24704,2.42499 -7.91035,2.55941 -7.91035,-3.15809 0,-4.55247 0.36146,-5.18048 3.91889,-6.80881 6.12191,-2.80218 25.85028,-2.38935 32.00272,0.66968 7.20695,3.58333 8.33267,7.56121 9.02472,31.8901 l 0.57223,20.11694 h -7.50361 c -5.91651,0 -7.50361,-0.39276 -7.50361,-1.85694 0,-2.43637 -0.90642,-2.3461 -6.21527,0.61898 -4.66737,2.6068 -12.08476,3.08319 -18.1091,1.16308 z m 20.18765,-11.82454 c 3.00821,-3.29548 4.98367,-10.35709 3.58895,-12.82929 -0.5091,-0.90242 -3.1434,-1.10167 -7.73984,-0.58545 -7.46695,0.83862 -12.05328,4.37336 -12.05328,9.28965 0,7.27419 10.81615,10.02766 16.20417,4.12509 z"
       id="path5465" />
    <path
       style="fill:#ffc800;fill-opacity:1;stroke-width:2.07424"
       d="m 269.79504,458.5729 v -27.23527 l 4.80271,0.0169 c 6.43756,0.0226 9.88794,1.14711 9.88794,3.22239 0,2.31233 1.42783,2.15579 5.86816,-0.6434 5.50433,-3.46994 10.48842,-4.23696 16.78271,-2.58278 l 5.60036,1.4718 v 6.62217 6.62217 l -3.91888,-1.79378 c -9.21551,-4.2182 -20.45577,-0.83866 -22.85601,6.87198 -0.74183,2.38309 -1.37748,11.15717 -1.41256,19.49797 l -0.0638,15.16508 h -7.34533 -7.34532 z"
       id="path5504" />
  </g>
</svg>
