<?xml version="1.0" encoding="UTF-8" standalone="no"?>
<!-- Created with Inkscape (http://www.inkscape.org/) -->

<svg
   version="1.1"
   id="svg870"
   width="512"
   height="512"
   viewBox="0 0 512 512"
   sodipodi:docname="bettercap.svg"
   inkscape:version="1.2.2 (b0a8486541, 2022-12-01)"
   xmlns:inkscape="http://www.inkscape.org/namespaces/inkscape"
   xmlns:sodipodi="http://sodipodi.sourceforge.net/DTD/sodipodi-0.dtd"
   xmlns="http://www.w3.org/2000/svg"
   xmlns:svg="http://www.w3.org/2000/svg">
  <defs
     id="defs874" />
  <sodipodi:namedview
     id="namedview872"
     pagecolor="#505050"
     bordercolor="#eeeeee"
     borderopacity="1"
     inkscape:pageshadow="0"
     inkscape:pageopacity="0"
     inkscape:pagecheckerboard="0"
     showgrid="false"
     inkscape:zoom="0.9470339"
     inkscape:cx="265.566"
     inkscape:cy="252.36689"
     inkscape:window-width="1366"
     inkscape:window-height="705"
     inkscape:window-x="0"
     inkscape:window-y="26"
     inkscape:window-maximized="1"
     inkscape:current-layer="g876"
     inkscape:showpageshadow="0"
     inkscape:deskcolor="#505050" />
  <g
     inkscape:groupmode="layer"
     inkscape:label="Image"
     id="g876">
    <g
       id="g1064"
       transform="matrix(0.96558756,0,0,0.93516561,8.8134273,16.597924)">
      <path
         id="path1951-6"
         style="fill:#ffffff;fill-opacity:1;stroke-width:4.29763"
         d="M 66.947266,36.105469 C 52.608824,36.349119 38.717979,42.114409 27.55829,50.957626 14.784222,61.044102 5.4364098,75.173873 0.43824924,90.612336 -6.1027951,109.89056 -6.4367926,131.10338 -1.0885297,150.70602 c 5.3841541,20.24823 16.0043027,38.80046 29.1482907,54.99599 3.468204,4.26714 7.102613,8.39581 10.748833,12.51088 -0.946586,7.83249 -2.736289,15.53363 -4.893069,23.11422 -2.369594,8.36972 -5.037114,16.6576 -7.105995,25.11055 -5.150134,20.64134 -7.973472,41.79893 -9.448626,63.00187 -1.921432,26.43855 -2.168178,52.95644 -2.947483,79.44388 -0.08488,3.36829 -0.17141,6.73655 -0.255218,10.10487 5.243431,7.5804 9.771313,15.81884 16.594887,22.1533 8.082243,7.76708 18.308545,12.98836 28.963707,16.24709 15.178267,4.66446 31.095463,5.98166 46.854943,7.10357 39.51293,2.82974 78.97397,6.36208 118.50168,8.98145 7.39342,0.50679 14.79183,0.9217 22.19025,1.33881 4.01608,1.37988 8.3222,0.97378 12.49167,1.08735 3.30507,-0.0868 6.60093,-0.57213 9.91134,-0.34014 38.24229,0.81462 76.63822,-0.7136 114.46145,-6.66847 20.43103,-3.26909 40.72953,-7.88876 60.12986,-15.16729 13.01477,-4.9478 25.68949,-11.20903 36.59661,-19.95346 5.17887,-4.22068 9.91142,-8.97404 14.82442,-13.41003 0.69881,-0.64553 1.39768,-1.29098 2.09637,-1.93663 -0.95156,-31.19617 -1.33296,-62.42469 -3.52042,-93.56792 -1.02062,-12.97151 -3.11025,-25.82779 -5.25618,-38.65251 -2.45905,-14.26935 -5.27072,-28.49036 -8.84387,-42.52558 -1.25885,-4.82644 -2.72995,-9.71729 -4.13344,-14.42391 -0.89629,-3.15297 -1.8646,-6.30282 -2.34179,-9.58399 2.71792,-3.63745 5.93663,-6.86913 8.68847,-10.48297 9.47958,-11.77014 17.67193,-24.59514 24.22803,-38.21538 5.18339,-11.20931 8.01764,-23.37316 9.47091,-35.59732 1.14342,-10.25193 1.08658,-20.72459 -1.11668,-30.83664 -2.06705,-9.770024 -5.63797,-19.223003 -10.5017,-27.942562 -7.39543,-13.107836 -18.24721,-24.472072 -31.68646,-31.421748 -10.34309,-5.389834 -22.24291,-8.087976 -33.89021,-6.733008 -13.07827,1.374354 -25.48207,6.635499 -36.49028,13.67128 -13.81824,8.94063 -25.64987,21.073794 -33.80921,35.397737 -1.63215,2.887048 -3.12788,5.85066 -4.47881,8.879363 C 341.39368,84.066223 316.35967,76.456591 290.93108,72.30687 275.75664,69.834512 260.30556,68.952541 244.9591,70.006346 c -22.18269,1.429868 -44.13942,6.082555 -65.06987,13.549343 -10.6386,3.831493 -20.98308,8.501587 -30.81696,14.088842 C 145.65389,89.368327 141.28496,81.446954 135.68595,74.438365 124.92779,60.698374 110.77562,49.615398 94.821677,42.535613 86.054943,38.691159 76.593497,35.9538 66.947266,36.105469 Z M 252.41992,130.1582 c 0.34068,0.35152 -0.17235,1.36549 -0.59765,0.80274 -0.42255,-0.45446 0.11621,-0.9091 0.59765,-0.80274 z" />
      <path
         id="path1951"
         style="fill:#94d4fd;fill-opacity:1;stroke-width:4.29763"
         d="m 444.83266,65.706938 c -12.26318,0.214857 -24.07832,5.23651 -33.67235,12.702441 -10.53596,8.143234 -18.67674,19.095921 -24.39902,31.060121 -1.28808,2.57002 -2.57462,5.14081 -3.86418,7.71009 5.10031,2.88686 9.99599,6.14527 15.25586,8.74219 2.33931,1.11621 5.20388,1.83892 7.64272,0.601 2.46841,-1.22905 3.55022,-4.0245 3.96889,-6.5944 0.63888,-5.30525 2.61987,-10.44188 5.77494,-14.76058 4.02544,-5.649667 9.8778,-10.268052 16.75201,-11.766086 5.78229,-1.351964 11.85693,-1.437991 17.68566,-0.321729 -6.94667,1.404413 -13.83411,3.911017 -19.38551,8.428285 -6.02372,4.86 -9.97777,11.72497 -13.118,18.68343 -1.52021,3.258 -3.09327,6.7049 -2.86401,10.39102 0.21066,3.80126 2.44891,7.10222 4.80555,9.94437 4.57265,5.34817 9.65409,10.22876 14.44746,15.37472 6.29841,6.7371 12.50787,13.75186 16.75904,22.00435 1.8343,3.58451 3.16749,7.44031 5.40235,10.80859 0.94784,1.35292 2.51957,2.38867 4.22851,2.15235 2.58628,-0.30116 4.34885,-2.44716 6.00016,-4.2443 3.13516,-3.69704 5.82983,-7.7496 8.3426,-11.88825 4.28217,-7.22613 7.81062,-14.88835 10.74344,-22.75432 3.75661,-10.29478 5.9292,-21.30205 5.20679,-32.28945 -0.42151,-6.80072 -1.73466,-13.55128 -3.88935,-20.013565 -2.70689,-7.105851 -7.16546,-13.4117 -12.18489,-19.067933 -3.78997,-4.15015 -8.00626,-7.968216 -12.77807,-10.960411 -4.14527,-2.50476 -8.96061,-3.788662 -13.79059,-3.897186 -1.02236,-0.05101 -2.04659,-0.05164 -3.07001,-0.04475 z" />
      <path
         id="path1875"
         style="fill:#94d4fd;fill-opacity:1;stroke-width:4.29763"
         d="m 64.541649,63.753813 c -6.253391,0.258893 -12.474674,2.302225 -17.454861,6.137901 -6.465984,4.779507 -11.838017,10.912327 -16.338801,17.542759 -3.331377,4.947612 -5.974044,10.4234 -7.202836,16.286157 -1.799257,7.81982 -2.547211,15.88957 -2.187181,23.90603 0.51485,8.39091 2.983321,16.5146 5.844038,24.37031 3.516638,9.42654 7.893613,18.57955 13.532847,26.92931 1.86072,2.67024 3.775096,5.32974 5.978669,7.72597 0.961532,0.79566 2.175708,1.18639 3.253906,1.79297 1.518901,-1.09618 2.991044,-2.34061 3.868656,-4.03107 4.187324,-6.50519 7.624051,-13.5384 12.701656,-19.43377 3.920906,-4.6725 8.245787,-8.88241 12.52106,-13.19544 7.109186,-7.03983 14.223226,-14.06095 21.340268,-21.09363 -2.830755,-6.80282 -4.95739,-14.01142 -9.22674,-20.10861 -4.129903,-6.1243 -9.950371,-11.117847 -16.726446,-14.090128 -3.597891,-1.608588 -7.413782,-2.685171 -11.277282,-3.432118 3.273367,-0.756571 6.661771,-0.930274 10.011719,-0.8125 0.349097,0.01853 1.140694,0.05667 1.658529,0.107756 1.298406,0.100471 2.589402,0.280387 3.872721,0.499665 0.341261,0.07362 1.158859,0.216605 1.677922,0.341175 3.886138,0.772423 7.589,2.421405 10.719246,4.857131 4.920869,3.810649 8.844054,8.948279 11.139241,14.739389 1.13581,2.75683 1.64549,5.70973 1.95886,8.65934 0.3318,2.47089 0.66367,4.94177 0.99496,7.41273 5.56094,-3.16788 11.25574,-6.10593 16.70843,-9.45924 2.21226,-1.39657 4.30626,-3.57056 4.36088,-6.33997 0.0495,-2.75976 -1.3206,-5.26024 -2.43638,-7.69977 -3.576,-7.104984 -8.29381,-13.591684 -13.55131,-19.540793 C 102.62672,77.35301 93.002419,70.558091 82.240054,66.658789 76.581213,64.635216 70.563269,63.510634 64.541649,63.753813 Z" />
      <path
         id="path1990"
         style="fill:#94d4fd;fill-opacity:1;stroke-width:4.29763"
         d="m 226.34829,206.53116 c 0.946,3.73821 2.24676,7.4 2.81716,11.22367 0.83316,7.16886 0.86971,14.40447 0.73227,21.61166 -0.17656,5.21477 -0.41076,10.44943 -1.24684,15.60646 -0.21732,1.24946 -0.47674,2.48265 -0.7527,3.62571 -0.46741,1.95475 -1.10004,4.13287 -1.76111,6.14038 -4.66961,14.25267 -12.65085,27.43942 -23.22936,38.08252 -1.47089,1.47478 -2.85938,2.77074 -4.44151,4.1243 -3.36627,2.88281 -7.01714,5.42072 -10.83862,7.66147 -1.34487,0.80055 -2.9292,1.70831 -4.30454,2.45639 -5.68699,3.07807 -11.59635,5.81169 -17.78604,7.7146 -6.15057,1.7561 -12.57352,2.20936 -18.93481,2.48722 -3.90089,0.11967 -7.99573,0.10176 -11.96047,-0.1899 -1.54442,-0.0967 -3.30259,-0.27268 -4.70164,-0.45854 -5.82115,-0.85461 -11.52854,-2.42511 -17.0498,-4.44418 -5.71167,-2.08251 -11.32034,-4.88307 -16.344725,-8.12809 -6.482647,-4.18016 -12.556521,-9.39411 -17.703228,-15.25969 -0.735054,-0.83675 -1.489859,-1.71912 -2.127583,-2.49595 -5.320844,-6.44685 -9.742306,-13.59785 -13.450269,-21.07887 -1.354551,-2.55731 -2.709892,-5.15542 -4.542286,-7.40735 -1.381839,-1.55122 -3.931441,-2.07275 -5.641478,-0.75032 -1.892686,1.33593 -2.359559,3.76011 -2.978859,5.84302 -1.954676,7.28819 -3.190257,14.7535 -4.10752,22.23692 -0.599991,5.17515 -0.545769,10.61545 1.587607,15.46241 1.945535,4.60041 5.013518,8.60589 8.086867,12.50082 8.907538,10.89836 20.381796,19.78785 33.392374,25.22831 6.441809,2.67444 13.32176,4.45376 20.32187,4.59009 8.30546,0.33989 16.6235,-0.008 24.9126,-0.54695 5.62532,-0.42228 11.27572,-0.96873 16.74367,-2.41923 6.42671,-1.5993 12.74414,-3.65929 18.82354,-6.29332 11.01957,-4.62532 21.86807,-9.6467 32.69609,-14.69992 5.24211,-2.48606 10.4935,-4.96865 15.58532,-7.75236 1.60062,-0.88024 2.88511,-2.29673 3.51181,-4.02117 1.0146,-2.32652 0.96419,-4.90488 1.168,-7.38267 0.74523,-4.56933 4.04487,-8.27795 7.76041,-10.8139 1.94157,-1.33833 4.03923,-2.445 6.22473,-3.32854 0.31803,-0.12932 1.06084,-0.41537 1.54688,-0.58008 4.34162,-1.55885 9.00954,-1.84395 13.58397,-1.91962 5.87462,0.0307 11.83017,0.33612 17.50587,1.96845 5.14562,1.55821 10.11722,4.3096 13.48508,8.58443 1.86658,2.41351 2.99382,5.44915 2.79252,8.52338 -0.034,2.38106 0.65677,5.04503 2.77578,6.40604 2.18564,1.5283 4.93296,1.78668 7.2846,2.97047 15.9527,6.5951 31.33193,14.48181 47.25742,21.13514 8.47488,3.49257 17.15658,6.65211 26.21447,8.23585 8.69059,1.6031 17.56087,1.78737 26.37411,1.8201 10.44259,-0.011 20.9956,-0.29696 31.18628,-2.80031 8.59488,-2.11067 16.76222,-5.71357 24.41343,-10.12677 5.51249,-3.11313 10.96886,-6.38181 15.97133,-10.27515 1.70043,-1.38997 3.35567,-2.83368 5.03209,-4.25248 -1.08858,-13.35032 -1.95486,-26.75225 -4.38052,-39.94497 -1.17556,-6.6839 -2.79657,-13.29281 -4.99708,-19.71547 -1.45122,-4.53302 -2.90269,-9.06596 -4.35287,-13.59932 -5.00745,11.33829 -9.54861,22.94185 -15.87646,33.63573 -4.46764,7.6419 -10.16027,14.54756 -16.75791,20.44514 -5.393,4.88105 -11.363,9.15512 -17.90082,12.36895 -5.99438,2.99318 -12.34018,5.2692 -18.82732,6.92755 -3.15968,0.78636 -6.48234,1.11415 -9.63839,1.36151 -5.8917,0.41909 -12.00091,0.43008 -17.97708,0.0676 -3.05098,-0.18574 -6.29132,-0.46749 -9.1978,-0.91003 -6.26988,-0.90963 -12.26622,-3.12923 -18.01819,-5.72037 -16.93301,-7.7961 -31.21638,-21.06911 -40.4783,-37.22437 -3.54317,-6.15545 -6.38049,-12.71901 -8.4039,-19.52791 -0.33572,-1.14879 -0.7245,-2.53792 -1.0332,-3.79297 -1.11397,-4.22849 -1.6759,-8.5746 -2.00977,-12.92774 -0.0722,-1.16694 -0.19005,-2.58526 -0.23886,-3.85283 -0.0775,-1.36314 -0.11112,-2.60869 -0.15843,-4.0172 -0.0523,-2.38329 -0.10823,-4.96651 -0.079,-7.42877 0.0231,-2.13448 0.0698,-4.1126 0.17474,-6.26318 0.20933,-4.50565 0.57394,-9.0581 1.97662,-13.37294 0.71648,-2.61737 1.43329,-5.23465 2.14915,-7.85219 -20.18489,0 -40.36979,0 -60.55469,0 0.23177,0.8431 0.46355,1.6862 0.69532,2.5293 z" />
      <path
         id="path1593"
         style="fill:#ffffff;stroke-width:4.29763"
         d="m 249.95375,123.98623 c -2.98106,0.70898 -6.00957,1.21113 -9.04882,1.60938 -2.04982,0.40146 -4.21522,0.73374 -5.9961,1.89258 -2.2668,1.79991 -2.48924,5.16313 -1.42578,7.68359 0.83935,2.01795 2.43307,3.69522 4.28671,4.82011 0.91114,0.56297 2.06644,0.35442 2.83692,-0.34797 3.16508,-2.61511 5.98704,-5.61804 8.82976,-8.57302 1.17082,-1.34398 2.62034,-2.57822 3.21849,-4.30537 0.39673,-1.67284 -0.99621,-3.06131 -2.70118,-2.7793 z" />
      <path
         id="path1554"
         style="fill:#ffffff;stroke-width:4.29763"
         d="m 254.10024,113.70303 c 1.12183,3.06746 2.62054,6.02319 3.28939,9.23739 0.30711,1.55724 0.39247,3.61305 -1.14095,4.57121 -1.40713,0.70272 -2.96492,1.51545 -3.55469,3.08203 -0.32511,0.78264 -0.36556,1.66865 -0.17383,2.49023 -1.88203,1.50314 -4.2103,2.29436 -6.35523,3.34343 -2.48936,1.19271 -5.11155,2.33966 -7.08813,4.32063 -1.52734,1.40859 -1.20925,4.17911 0.57813,5.2168 1.87364,1.0703 4.13264,0.43423 6.0889,-0.0491 4.04163,-1.11813 7.8683,-2.90387 11.95239,-3.88675 5.45995,-1.40208 11.09138,-2.41407 16.74828,-2.22754 1.70041,0.0609 3.48875,0.41298 5.00144,1.06374 -2.63806,2.8096 -5.4548,5.48242 -8.56762,7.76217 -1.23297,0.85031 -2.79996,0.95183 -4.22392,1.28241 -0.61386,0.11766 -1.23216,0.20926 -1.84908,0.30894 1.83723,-1.1807 3.87546,-2.29427 5.09463,-4.1688 0.87244,-1.29241 0.38518,-3.23086 -1.05393,-3.88026 -2.04183,-0.93152 -4.38616,-0.55769 -6.52312,-0.19899 -4.79731,0.97009 -9.52047,2.38681 -14.01297,4.33522 -1.66212,0.73555 -3.26901,1.72298 -4.47298,3.09569 -0.36601,0.47939 -0.47891,1.14243 -0.46439,1.71075 0.29708,0.59967 0.53522,1.25479 1.22352,1.48803 0.94244,0.46144 2.03737,0.27995 3.05299,0.37422 -1.69744,2.2572 -4.05347,3.90289 -5.87622,6.05308 -0.83359,0.95072 -1.9307,2.12542 -1.47658,3.49328 0.47197,1.55762 2.26038,2.05424 3.72037,2.08802 3.70529,0.0947 7.41725,-0.63591 10.8961,-1.88829 2.18384,-1.00801 4.49601,-1.7581 6.90226,-1.97279 0.43553,-0.0491 1.04562,-0.1064 1.53576,-0.14206 0.57969,-0.0499 1.19549,-0.0699 1.71823,-0.1039 4.99818,-0.24399 10.04088,0.12752 15.00491,-0.6222 1.20661,-0.1618 2.5468,-0.85196 2.72184,-2.16913 0.0214,-0.48444 -0.055,-0.96008 -0.29706,-1.38054 0.6406,-1.63036 2.13309,-2.72815 3.421,-3.84167 2.83215,-2.25747 6.14072,-4.02947 8.38173,-6.94739 0.84172,-1.05782 0.70742,-2.57031 -0.0781,-3.61914 -1.63203,-2.21525 -3.97115,-3.7843 -6.26324,-5.24759 -1.9842,-1.14538 -4.07998,-2.42211 -6.43598,-2.48484 1.01001,-0.3228 1.9683,-0.57687 2.91682,-0.8109 3.03184,-0.79685 6.32226,-1.04151 9.01872,-2.77113 1.2376,-0.76753 1.83315,-2.43212 1.13502,-3.75733 -1.03296,-2.06876 -3.09802,-3.34273 -4.97292,-4.56917 -3.09036,-1.90715 -6.47941,-3.29247 -9.98636,-4.21792 -3.62775,-1.18514 -7.07019,-2.84866 -10.45886,-4.58634 -3.2989,-1.51567 -6.87633,-2.71242 -10.55438,-2.50791 -1.86666,0 -3.73333,0 -5.6,0 0.35938,0.91145 0.71875,1.82291 1.07813,2.73437 z m 21.96094,11.64258 c -1.69055,1.2721 -3.42891,2.51265 -5.35743,3.40039 -0.27693,-1.12176 0.19767,-2.36353 0.97071,-3.18359 1.7316,-0.77664 3.66369,-0.97042 5.53711,-1.13282 -0.38347,0.30534 -0.76693,0.61068 -1.15039,0.91602 z" />
      <path
         style="fill:#343a42;stroke-width:1.71672"
         d="m 253.03906,461.1751 c 3.0131,-0.39126 7.53941,-0.38319 10.05847,0.0179 2.51906,0.40114 0.0538,0.72125 -5.47836,0.71139 -5.53216,-0.0105 -7.59321,-0.33806 -4.58011,-0.72932 z m 2.06549,-5.86654 C 206.39165,453.37441 124.33459,444.53534 85.652407,437.05539 l -12.438459,-2.40522 21.793344,1.15402 c 11.986338,0.63471 49.328398,1.11865 82.982348,1.07542 48.82249,-0.0628 65.10535,-0.68741 80.56697,-3.09098 43.58116,-6.77488 39.72076,-7.37281 -48.1312,-7.45507 -50.85238,-0.0476 -92.69145,-0.94457 -110.38889,-2.36653 -28.068922,-2.25532 -57.320086,-6.09858 -58.881921,-7.73644 -0.439071,-0.46043 -0.798309,-7.78042 -0.798309,-16.26664 0,-10.74579 0.661549,-15.86891 2.179334,-16.87702 2.747496,-1.82489 7.314066,-1.00118 42.413201,7.65056 48.440495,11.9403 60.710055,13.80249 98.178325,14.90085 23.41165,0.68631 39.17704,0.31062 49.12807,-1.17066 8.05934,-1.1997 14.26188,-2.5918 13.78342,-3.09357 -0.47849,-0.50175 -13.15629,-1.9928 -28.17293,-3.31342 -75.32188,-6.62415 -141.800469,-16.33695 -163.253349,-23.85202 -10.259824,-3.59406 -11.634251,-4.60556 -12.106163,-8.90946 -0.464501,-4.23631 3.935174,-24.15186 5.335549,-24.15186 0.285181,0 3.609722,3.08371 7.38787,6.85269 12.35322,12.32325 33.938527,16.98641 71.540593,15.45524 31.32088,-1.27541 41.5376,-3.83505 67.98354,-17.03225 24.70778,-12.32982 37.35756,-15.04348 62.86542,-13.48607 19.17965,1.17105 34.12473,4.96722 60.3508,15.32963 27.20044,10.74738 40.84154,13.97673 59.03929,13.97673 24.38905,0 67.40743,-10.48867 83.87475,-20.45022 l 7.12475,-4.30996 -0.0168,5.78761 c -0.0282,9.9243 -7.21901,23.33539 -16.20107,30.21498 -4.44978,3.40821 -10.35366,6.73594 -13.11974,7.39497 -4.48237,1.06794 -4.66467,1.34848 -1.67641,2.58014 8.19879,3.3792 25.92404,-3.12224 31.00893,-11.37377 l 3.35771,-5.44876 -0.41922,25.42873 -0.4192,25.42873 -8.92434,6.53522 c -31.65136,23.17823 -110.33075,35.09574 -206.4941,31.27757 z M 241.6404,318.50229 c -6.04239,-2.07502 -11.68202,-6.01617 -11.68202,-8.16374 0,-1.00928 2.45175,-3.39007 5.44834,-5.2906 4.21183,-2.6713 8.49204,-3.45554 18.85962,-3.45554 10.36758,0 14.6478,0.78424 18.85963,3.45554 6.80802,4.31789 6.8411,6.35061 0.17052,10.48278 -5.84423,3.62029 -24.63159,5.38387 -31.65609,2.97156 z m 65.04381,-112.23682 c 3.0131,-0.39126 7.53941,-0.38318 10.05847,0.0179 2.51906,0.40113 0.0538,0.72125 -5.47836,0.71138 -5.53216,-0.01 -7.5932,-0.33806 -4.58011,-0.72932 z m -110.64313,-1.75799 c 3.0131,-0.39127 7.53941,-0.38319 10.05847,0.0179 2.51906,0.40113 0.0538,0.72125 -5.47836,0.71138 -5.53216,-0.01 -7.59321,-0.33806 -4.58011,-0.72932 z m -1.28733,-9.44986 c -21.92444,-1.99675 -44.44775,-6.1464 -56.01674,-10.32043 -9.26214,-3.34173 -21.87272,-10.37335 -20.73791,-11.56339 0.29515,-0.30951 10.33043,0.58781 22.30063,1.99403 31.30298,3.67739 103.29265,5.2298 124.02508,2.67453 19.92745,-2.45606 30.33399,-5.12374 28.29313,-7.25287 -0.80881,-0.84378 -16.18106,-2.38971 -34.16057,-3.4354 -73.2374,-4.25949 -110.59689,-9.86296 -108.55646,-16.28215 0.37554,-1.18144 3.80653,-3.09649 7.62443,-4.25567 7.72071,-2.34414 43.72227,-7.52224 54.56542,-7.84814 3.83402,-0.11523 -5.15336,-1.27611 -19.97196,-2.57973 -28.68899,-2.52381 -40.11353,-5.23641 -40.11353,-9.5244 0,-3.56809 24.92281,-16.37222 40.87828,-21.00127 32.59333,-9.456075 72.64767,-11.219434 103.29307,-4.54739 32.42695,7.05991 87.06547,29.52233 104.32078,42.88727 11.26135,8.72238 11.07541,12.31578 -1.26012,24.3536 -5.73544,5.59701 -12.36343,11.26813 -14.72887,12.60249 -6.28276,3.54415 -24.45595,8.51537 -38.87766,10.63488 -34.43801,5.06124 -113.42681,6.87477 -150.877,3.46404 z m 60.74618,-34.31942 c 3.88725,-2.108 8.03152,-2.61795 15.89571,-1.95596 9.4612,0.79641 10.53762,0.56513 9.73362,-2.09137 -0.648,-2.14102 0.99848,-4.10809 5.81438,-6.9465 3.69509,-2.17783 6.71836,-4.64276 6.71836,-5.47762 0,-2.48454 -8.58592,-8.8051 -11.96095,-8.8051 -5.93596,0 -3.1072,-3.05579 3.71735,-4.01571 3.76425,-0.52946 7.30567,-1.4467 7.86981,-2.0383 2.07966,-2.18087 -5.89593,-8.15585 -12.2995,-9.21427 -3.63299,-0.60049 -8.40454,-2.55292 -10.60344,-4.33874 -2.1989,-1.78582 -6.52441,-3.24694 -9.61224,-3.24694 h -5.61423 l 2.75959,6.06855 c 3.15809,6.94489 1.23389,11.35236 -5.11461,11.71535 -2.83292,0.16198 -2.96315,0.36932 -0.63295,1.0079 4.73066,1.29642 3.40338,3.35806 -3.57305,5.54998 -7.83272,2.46094 -11.98421,6.71761 -8.08284,8.28757 1.40366,0.56485 4.7044,-0.14017 7.33497,-1.56668 7.173,-3.88983 24.08887,-6.79074 29.74411,-5.10083 l 4.88714,1.46038 -4.88714,5.54148 c -3.83638,4.35001 -6.68936,5.75239 -13.26921,6.52245 l -8.38206,0.98098 7.40833,-3.5868 c 5.50155,-2.66362 6.92139,-4.09746 5.51638,-5.57083 -1.40498,-1.47337 -4.71408,-1.18293 -12.85666,1.12843 -10.01468,2.84278 -14.61391,6.23801 -8.4501,6.23801 3.79571,0 3.02275,2.76247 -1.67641,5.99133 -2.30507,1.58384 -4.19103,3.65258 -4.19103,4.59718 0,2.67666 7.98984,2.02046 13.80667,-1.13394 z m 13.67475,-33.33132 c 0.55967,-1.52943 1.01757,-3.11163 1.01757,-3.51599 0,-0.40437 2.45175,-0.7089 5.44833,-0.67673 l 5.44834,0.0585 -3.95764,3.4575 c -4.84084,4.22909 -9.39834,4.61672 -7.9566,0.67673 z m -21.77643,3.55079 8.09606,-8.01997 -5.95721,2.61022 c -3.27647,1.43563 -7.44869,2.20121 -9.27161,1.70131 -4.78781,-1.31298 -7.91849,5.19216 -4.3166,8.96933 1.44707,1.5175 2.79355,2.75909 2.99217,2.75909 0.19864,0 4.00438,-3.60899 8.45719,-8.01998 z"
         id="path1378" />
      <path
         id="path1376"
         style="fill:#030404;stroke-width:1.71672"
         d="m 67.097656,48.101562 c -11.13931,0.186062 -21.90458,4.608234 -30.74527,11.236119 -10.227735,7.647632 -18.084684,18.301279 -22.726958,30.17396 -5.3311669,13.156679 -7.4078069,27.596369 -6.0654,41.724949 1.5831116,17.34936 8.016226,33.97868 17.014021,48.79504 5.836091,9.67058 12.818186,18.60372 20.370627,26.9867 2.152556,2.43985 4.305112,4.87971 6.457668,7.31956 -0.632872,4.48634 -1.060891,9.00451 -1.890625,13.46094 -0.205736,1.03897 -0.476548,2.39272 -0.70858,3.46106 -1.583554,7.25522 -3.540615,14.55549 -5.787776,21.68707 -4.659671,15.16131 -8.183455,30.67262 -10.435259,46.37528 -3.225932,22.37771 -4.332157,44.9937 -5.055919,67.57061 -0.457302,16.18908 -0.845289,32.38011 -1.272232,48.57004 2.540063,3.73957 4.876281,7.62316 7.604724,11.231 5.042511,6.62549 11.798683,11.85934 19.329567,15.36976 9.596224,4.51883 20.084492,6.72725 30.529645,8.21725 11.447525,1.635 23.013731,2.09318 34.528921,3.03097 22.45688,1.66717 44.90069,3.50282 67.34876,5.28269 19.06008,1.45897 38.12289,2.89058 57.20783,3.97467 35.12008,1.84875 70.38891,1.78483 105.43661,-1.31875 23.07325,-2.09695 46.09545,-5.46122 68.52822,-11.34808 14.67544,-3.91484 29.18153,-8.87033 42.5461,-16.17044 6.88451,-3.77604 13.40585,-8.27529 19.07062,-13.7325 2.41525,-2.22971 4.83108,-4.4588 7.24596,-6.68891 -0.47314,-16.616 -0.85798,-33.23539 -1.40892,-49.8486 -0.49813,-13.44788 -1.06873,-26.89785 -2.1127,-40.31546 -0.76164,-8.36023 -1.9999,-16.66934 -3.26688,-24.96546 -2.61507,-16.39647 -5.66847,-32.73524 -9.61288,-48.86784 -1.86086,-7.83889 -4.54438,-15.39854 -6.52411,-23.19716 -0.7382,-3.23336 -1.61708,-6.67872 -0.61798,-9.95272 1.14906,-3.31144 3.69943,-5.8458 5.89308,-8.4884 8.40907,-9.4757 15.69439,-19.918 22.04302,-30.87058 4.04228,-7.06072 7.72985,-14.39861 9.97528,-22.24837 3.05532,-10.33802 4.74917,-21.10054 4.83521,-31.88565 0.0511,-5.54758 -0.52049,-11.0996 -1.797,-16.50133 -3.22498,-14.320385 -9.88846,-28.063399 -20.17448,-38.646305 -7.9422,-8.213514 -18.20809,-14.352955 -29.46796,-16.613447 -9.14683,-1.873769 -18.67223,-0.346571 -27.37986,2.739469 -11.98989,4.304648 -22.83209,11.513444 -31.94313,20.368964 -7.73333,7.545936 -14.19996,16.448036 -18.58371,26.344609 -1.75143,3.91673 -3.56823,7.83117 -4.80012,11.94942 -0.11675,0.42429 -0.20476,0.85765 -0.23069,1.29769 -3.8115,-1.71249 -7.28245,-4.07618 -10.94962,-6.06394 -15.25935,-8.475172 -31.76968,-14.548072 -48.65051,-18.886167 -12.8726,-3.270195 -26.01088,-5.547917 -39.25249,-6.614463 -18.85703,-1.379721 -37.86295,0.27085 -56.36686,4.026119 -18.87767,3.891481 -37.36703,10.004145 -54.50872,18.869741 -4.38622,2.22417 -8.56914,4.81272 -12.81282,7.2898 -1.90048,0.97934 -3.78767,2.17161 -5.93554,2.49414 -0.55796,0.0669 -0.40816,-0.78177 -0.51563,-1.14649 0.0317,-2.60537 -1.05904,-5.03557 -1.9043,-7.44921 -2.62933,-6.720487 -5.60921,-13.360028 -9.69248,-19.337441 C 122.27871,75.570375 112.13806,66.137841 100.61276,59.054753 92.799316,54.302039 84.270949,50.565142 75.274562,48.772784 72.580634,48.273816 69.836351,48.06145 67.097656,48.101562 Z m -0.792968,20.878907 c 8.903428,0.01156 17.519785,3.226621 25.076853,7.762579 11.969379,7.26508 21.708419,18.159872 27.545589,30.891132 0.91491,1.89343 1.82983,3.78685 2.74475,5.68027 -4.01939,2.34176 -8.00462,4.74515 -12.09571,6.96094 0.0315,-2.84969 -0.66074,-5.64847 -1.68823,-8.29126 -2.0951,-5.35412 -5.05969,-10.39453 -8.830275,-14.741656 -2.6812,-3.150881 -6.302336,-5.313365 -10.019329,-7.028081 -8.365309,-3.773429 -18.031198,-4.871463 -26.954958,-2.574197 -3.430859,0.89756 -6.706337,2.389105 -9.649784,4.361757 -1.109186,0.715931 -1.677234,2.321808 -0.847409,3.446538 1.009623,1.368301 2.88685,1.430826 4.41366,1.772882 5.030351,0.788701 10.103565,1.600505 14.877951,3.440737 5.796382,2.12638 11.070002,5.82081 14.71062,10.84384 3.296558,4.36943 5.321796,9.51014 7.111171,14.63778 0.47644,1.30821 0.95288,2.61642 1.429319,3.92463 -9.798411,8.51121 -19.66171,17.03522 -28.258804,26.7916 -3.561949,4.03768 -6.746784,8.40133 -9.490903,13.03413 -2.368607,3.83903 -4.744967,7.67557 -7.006152,11.57857 -2.059078,-2.3894 -3.809974,-5.02999 -5.556875,-7.65171 -5.216377,-8.20625 -9.387256,-17.05744 -12.701123,-26.19118 -0.634301,-1.76878 -1.238846,-3.59113 -1.797218,-5.45628 -1.506038,-4.89582 -2.439772,-9.96898 -2.628901,-15.09199 -0.0622,-1.3014 -0.09361,-2.90606 -0.07357,-4.33186 0.01857,-2.04657 0.126343,-4.13448 0.287148,-6.03107 0.196167,-2.34182 0.474552,-4.52265 0.862206,-6.85507 0.860056,-4.90306 2.052912,-9.79995 4.131775,-14.340062 2.791213,-5.459638 6.718267,-10.253123 10.905378,-14.696865 0.679483,-0.719804 1.501842,-1.524424 2.135834,-2.145488 3.592194,-3.41978 7.520841,-6.750658 12.329419,-8.276023 2.907379,-0.974283 5.976946,-1.403539 9.037573,-1.424593 z m 379.304692,1.759765 c 5.73241,-9.61e-4 11.55969,1.641281 16.11182,5.205058 2.797,2.091241 5.44558,4.611162 7.77685,7.074239 4.0339,4.342345 7.82376,9.01111 10.51757,14.31836 2.25219,4.971329 3.49041,10.342109 4.33594,15.714839 0.11092,0.76952 0.26685,1.89486 0.35598,2.6731 0.17745,1.51262 0.30781,2.99573 0.39916,4.44189 0.13381,2.06222 0.19689,4.36133 0.15842,6.51893 -0.0247,1.42978 -0.0766,2.63513 -0.17922,4.05679 -0.28653,5.09727 -1.49145,10.08876 -3.09951,14.91871 -2.17835,6.62639 -4.961,13.17224 -8.01178,19.35738 -3.33111,6.6272 -7.00352,13.18977 -12.05821,18.67652 -0.53916,0.59823 -1.08862,1.18794 -1.6664,1.74926 -1.94082,-3.39412 -3.00514,-7.20116 -4.94395,-10.59845 -4.22319,-7.76544 -9.65648,-14.81741 -15.56774,-21.36573 -3.89188,-4.31946 -8.14738,-8.29468 -12.604,-12.0242 -2.48928,-2.2782 -5.19269,-4.56305 -6.59329,-7.71084 -1.22085,-2.97861 -0.17537,-6.23238 0.86693,-9.09722 2.4209,-6.20345 5.28381,-12.46083 10.07057,-17.22114 4.40494,-4.44002 10.33087,-6.98489 16.33602,-8.417879 3.86106,-0.997835 7.84802,-1.349849 11.73819,-2.195398 1.25384,-0.244925 2.67659,-1.000583 2.80079,-2.407031 0.17349,-1.573254 -1.30094,-2.567917 -2.50977,-3.231641 -4.79255,-2.907701 -10.34462,-4.432634 -15.92792,-4.680457 -9.31428,-0.421666 -18.83945,2.241339 -26.35724,7.811317 -4.07195,3.314722 -7.02138,7.787069 -9.45312,12.388669 -2.02398,4.03814 -3.78914,8.35588 -4.05972,12.91309 -0.0554,1.00136 0.009,2.02716 -0.27231,3.00098 -2.15661,-0.50808 -4.02606,-1.79494 -5.9408,-2.85969 -2.54149,-1.52639 -5.06987,-3.10283 -7.62366,-4.66571 2.59414,-5.28865 4.93791,-10.73936 8.31346,-15.59704 2.18968,-3.254091 4.66199,-6.315278 7.35647,-9.164674 0.36401,-0.381095 0.96844,-1.012052 1.44126,-1.474463 7.61707,-7.552559 16.92761,-13.613607 27.30461,-16.548164 3.57359,-0.99152 7.27069,-1.575658 10.9846,-1.559405 z M 255.30859,99.111328 c 3.27704,-4.64e-4 6.55363,0.06703 9.82813,0.195313 1.01811,0.05673 2.3038,0.109851 3.42614,0.175151 9.1387,0.542418 18.25459,1.656018 27.20667,3.592428 0.58569,0.13031 1.49547,0.34014 2.20547,0.50095 1.72701,0.39837 3.44768,0.82279 5.08327,1.25227 14.91407,3.91299 29.48867,9.02558 43.83452,14.65409 13.41995,5.32913 26.68983,11.1062 39.40409,17.96964 6.36715,3.52342 12.76241,7.25329 17.93079,12.44877 1.41061,1.4882 2.89735,3.44448 2.40124,5.62545 -0.7233,2.79997 -2.75882,4.99748 -4.61608,7.11984 -3.46844,3.72572 -7.16748,7.23423 -10.94198,10.64706 -3.69739,3.36247 -7.84733,6.30556 -12.53726,8.10776 -5.14307,1.99319 -10.47304,3.46744 -15.81503,4.82074 -2.71301,0.6637 -5.62315,1.27572 -8.25372,1.78507 -1.42125,0.25178 -2.80695,0.523 -4.15273,0.73861 -2.06823,0.35198 -4.02944,0.64101 -6.1367,0.94844 -2.45255,0.34483 -4.76231,0.64027 -7.2301,0.93795 -2.3008,0.25919 -4.78935,0.54294 -7.16566,0.77711 -8.18963,0.81803 -16.53663,1.4965 -24.80699,2.03369 -14.51055,0.83785 -29.13617,1.08297 -43.72486,1.20257 -16.7123,0.1041 -33.47279,-0.0263 -50.14355,-0.63144 -7.96821,-0.28959 -15.93117,-0.79395 -23.85119,-1.73332 -13.17083,-1.52936 -26.31106,-3.57204 -39.17695,-6.81864 -5.30434,-1.33168 -10.50721,-3.08619 -15.45419,-5.42844 -3.00908,-1.39268 -5.97007,-2.8972 -8.827,-4.58122 8.09426,0.67148 16.20948,1.79572 24.34162,2.52516 17.38002,1.51732 34.82041,2.23493 52.25632,2.72446 16.47459,0.406 32.96367,0.61744 49.43769,0.0922 6.41448,-0.1999 12.83089,-0.59365 19.1827,-1.54256 6.70438,-0.94185 13.44135,-1.88406 19.97308,-3.70943 1.89163,-0.62977 4.02892,-1.16869 5.33746,-2.7825 1.11184,-1.36916 0.4179,-3.65196 -1.25543,-4.1804 -2.63828,-0.79141 -5.41543,-0.97235 -8.13679,-1.32652 -15.95254,-1.73929 -32.00036,-2.30028 -47.99887,-3.47204 -10.39178,-0.72141 -20.79344,-1.53425 -31.19321,-2.52 -6.74764,-0.6336 -13.62605,-1.373 -20.32152,-2.20097 -4.18726,-0.53621 -8.27737,-1.09474 -12.47224,-1.77276 -4.02664,-0.65107 -7.88062,-1.3519 -11.838,-2.30073 -3.03582,-0.78828 -6.17195,-1.51084 -8.88634,-3.14167 -0.81407,-0.29688 -0.32239,-0.72404 0.2083,-0.99968 2.27073,-1.33012 4.82074,-2.10102 7.35351,-2.76172 0.44907,-0.0996 1.25963,-0.29272 1.84814,-0.41414 9.66679,-1.97353 19.43973,-3.37858 29.213,-4.70596 6.9715,-0.89155 13.95122,-1.81844 20.97422,-2.18188 0.98786,-0.048 2.20149,10e-4 2.77957,-0.95455 0.19508,-0.45306 1.24681,-0.88515 0.81273,-1.3536 -0.62868,-0.6916 -1.066,-1.66664 -2.06682,-1.85732 -3.03996,-0.69204 -6.1674,-0.90701 -9.25823,-1.28004 -10.64202,-1.13759 -21.33358,-1.83123 -31.93542,-3.33454 -4.19351,-0.60455 -8.5305,-1.28908 -12.66606,-2.45462 -1.84916,-0.6049 -3.88899,-1.10983 -5.30565,-2.52166 -0.26353,-0.4351 0.60614,-0.77833 0.83084,-1.12827 3.6148,-2.93033 7.759,-5.11318 11.85242,-7.28908 4.99984,-2.58803 10.18378,-4.95905 15.35681,-7.05559 5.42519,-2.22612 11.01135,-4.04383 16.70109,-5.46165 1.18955,-0.31284 2.50816,-0.61922 3.78914,-0.93874 0.95056,-0.21877 2.16985,-0.49779 3.22479,-0.73555 3.18325,-0.69215 6.38094,-1.31559 9.58967,-1.87773 0.96376,-0.16162 2.19795,-0.3624 3.26562,-0.53906 1.55468,-0.22827 3.3284,-0.51382 4.9737,-0.72218 4.11971,-0.56264 8.11927,-0.99435 12.29053,-1.342821 3.55657,-0.296316 7.19582,-0.516594 10.67974,-0.64493 2.85701,-0.116866 5.71638,-0.160645 8.57556,-0.176791 z M 85.386719,178.64844 c 2.205879,0.59049 4.353572,1.57998 6.333659,2.50156 4.19929,2.02129 8.209985,4.41597 12.472732,6.3108 16.4939,7.62321 34.30267,11.9613 52.199,14.742 13.10391,2.03835 26.32882,3.15829 39.56036,3.95524 4.0815,0.28358 8.16435,0.59833 12.1811,0.9879 1.91726,0.17806 3.8726,0.38473 5.84495,0.6275 0.89393,0.14559 2.05876,0.23104 3.00195,0.51758 1.29617,2.03692 1.73326,4.47632 2.26151,6.79775 1.17352,5.9538 1.64896,12.10148 1.76967,18.09476 0.0717,3.97226 -0.0659,7.81321 -0.42613,11.78503 -0.81497,9.59654 -3.12853,19.12527 -7.41261,27.78113 -2.97718,6.02067 -6.62908,11.71485 -10.85823,16.93243 -7.29499,8.76235 -16.47481,15.93331 -26.66432,21.03259 -6.2417,3.13492 -12.97191,5.29271 -19.89025,6.27833 -9.99699,1.46921 -20.26137,1.30061 -30.17613,-0.68249 -11.34866,-2.31345 -21.79159,-8.0137 -30.701168,-15.30664 -4.40998,-3.6172 -8.54327,-7.78282 -12.111328,-12.11719 -5.948032,-7.25018 -10.885699,-15.57066 -14.006052,-24.50823 -0.906853,-2.59443 -1.646273,-5.45514 -2.197073,-8.01521 -2.153877,-10.39031 -2.615974,-21.11671 -1.574218,-31.66992 0.09147,-0.76026 0.20001,-1.8262 0.327321,-2.70023 0.725662,-5.54472 2.054327,-11.02781 4.255258,-16.17935 2.68458,-6.49769 5.891694,-12.77553 9.462342,-18.8294 1.725153,-2.78812 3.517175,-5.83617 5.875081,-8.25444 0.13072,-0.21594 0.27181,-0.11866 0.472576,-0.0815 z m 347.367191,8.35547 c 4.8369,7.07185 9.3001,14.59556 11.44157,22.96612 1.90839,7.24256 2.30855,14.83374 2.4246,22.22992 0.0268,6.70831 0.10445,13.43478 -0.50958,20.12185 -0.41971,4.8426 -1.787,9.54458 -3.59948,14.0381 -6.14641,15.43371 -16.97706,28.93308 -30.5724,38.455 -8.62694,6.01806 -18.49479,10.42655 -28.93225,12.0324 -0.88077,0.14316 -1.69375,0.26545 -2.49541,0.36827 -1.15516,0.15442 -2.35031,0.28285 -3.59247,0.39411 -9.43019,0.79286 -19.03216,0.28758 -28.22304,-2.04837 -10.50078,-2.76821 -20.11252,-8.34325 -28.38881,-15.29959 -2.86336,-2.423 -5.63238,-5.07919 -8.20852,-7.90443 -2.6042,-2.85658 -4.90755,-5.72776 -7.11297,-8.87496 -0.42382,-0.61424 -0.95652,-1.38347 -1.35038,-1.98819 -1.93211,-2.9398 -3.72167,-6.05879 -5.21807,-9.1531 -2.41019,-4.88883 -4.24017,-10.06662 -5.28555,-15.42096 -0.45717,-2.19336 -0.83512,-4.43474 -1.13093,-6.57286 -0.53793,-3.83748 -0.89708,-7.80514 -1.07485,-11.75139 -0.10429,-2.33208 -0.14481,-4.66078 -0.11677,-7.04774 0.0307,-2.00505 0.10201,-3.81921 0.24356,-5.81599 0.074,-1.08826 0.18467,-2.13412 0.28182,-3.08366 0.49583,-4.4861 1.62564,-8.86854 2.67774,-13.24805 12.50693,-0.88826 25.03333,-1.51449 37.52521,-2.59898 18.85101,-1.70232 37.72262,-4.38878 55.872,-9.90909 10.74854,-3.26152 21.16253,-7.6551 30.9026,-13.25994 2.92676,-1.63853 5.85351,-3.27706 8.78027,-4.91558 1.88737,2.76237 3.77474,5.52474 5.66211,8.28711 z m -327.375,19.56445 c -5.930438,0.17777 -11.64194,2.90965 -15.72274,7.17769 -4.892749,4.94065 -7.288456,12.13721 -6.520552,19.02891 0.739407,7.59687 5.207444,14.80026 11.89218,18.56097 5.715242,3.30155 12.890602,4.08624 19.102312,1.75142 7.10114,-2.57966 12.51413,-8.71134 15.13356,-15.69282 2.0392,-5.38205 1.84827,-11.58055 -0.67481,-16.77064 -4.10309,-8.67365 -13.6306,-14.41513 -23.20995,-14.05553 z m 296.72461,0 c -5.93038,0.17792 -11.6419,2.90969 -15.72274,7.17769 -4.89275,4.94065 -7.28846,12.13721 -6.52055,19.02891 0.7394,7.59687 5.20744,14.80026 11.89218,18.56097 5.71524,3.30155 12.8906,4.08623 19.10231,1.75142 7.19039,-2.61558 12.66086,-8.86564 15.2293,-15.96807 2.0432,-5.55626 1.66292,-11.94849 -1.11316,-17.18763 -4.27648,-8.29011 -13.54381,-13.71195 -22.86734,-13.36329 z m -146.16016,2.9707 c 7.69531,0 15.39062,0 23.08594,0 -0.92064,3.25727 -1.86596,6.52358 -2.23334,9.90036 -1.0111,8.30142 -0.94486,16.70318 -0.39083,25.03593 0.50905,6.92215 1.37256,13.88244 3.58089,20.49246 5.29344,16.96657 14.84675,32.70674 28.04635,44.67916 11.66283,10.64822 26.14534,18.19427 41.59276,21.51811 19.36613,4.19959 40.11918,2.08424 58.08451,-6.35439 15.61881,-7.25505 28.93571,-19.16835 38.26391,-33.60937 4.37938,-6.69281 7.83999,-13.94913 10.61657,-21.44095 0.36449,-0.9403 0.72898,-1.88061 1.09347,-2.82092 2.01866,5.61435 3.41468,11.57426 4.55002,17.47819 1.85834,9.6208 2.88474,19.38212 3.46151,29.15816 0.22988,3.36731 0.45976,6.73462 0.68965,10.10193 -6.88634,4.7483 -13.61821,9.78804 -21.07993,13.62166 -8.87591,4.69882 -18.58486,7.76879 -28.52603,9.1591 -3.9952,0.57878 -8.02221,0.91559 -12.0542,1.0962 -0.88181,0.0294 -2.05016,0.0806 -3.04325,0.0975 -3.87943,0.0907 -7.82003,0.0396 -11.62243,-0.10439 -6.3246,-0.24267 -12.65754,-0.61462 -18.92026,-1.5673 -0.73768,-0.1267 -1.7805,-0.28301 -2.63141,-0.44901 -1.97126,-0.34963 -4.13024,-0.84834 -5.94085,-1.29904 -10.85643,-2.81909 -21.1126,-7.59958 -31.18946,-12.34375 -10.9666,-5.27087 -21.85327,-10.74378 -33.14843,-15.29101 -1.84351,-0.76338 -3.74968,-1.34866 -5.69424,-1.78718 -0.41446,-0.17028 -1.01735,-0.24469 -1.25694,-0.62298 0.3495,-1.34888 0.53534,-2.74941 0.33264,-4.14239 -0.52119,-4.67234 -2.81907,-9.06502 -6.2341,-12.27696 -5.13867,-4.88431 -11.92879,-7.63696 -18.7628,-9.1658 -9.33109,-2.01176 -19.18444,-1.87056 -28.37828,0.76798 -4.77529,1.42367 -9.46522,3.48834 -13.30992,6.7113 -3.93811,3.42729 -7.04896,8.06693 -7.91726,13.27912 -0.33041,1.80663 -0.10355,3.64115 0.25467,5.42119 0.12605,1.12637 -1.13588,1.65767 -1.90435,2.19299 -3.76237,2.13341 -7.82769,3.6592 -11.72912,5.5121 -8.40411,3.82712 -16.72901,7.82378 -25.08198,11.7602 -7.27085,3.29914 -14.77928,6.29591 -22.43505,8.84967 -3.27701,1.10322 -6.81401,2.01669 -10.10398,2.58279 -3.45625,0.61368 -6.95633,1.05324 -10.38669,1.37932 -3.66236,0.34167 -7.21805,0.56491 -10.89651,0.68708 -3.91361,0.12272 -7.98367,0.13708 -11.95458,-0.0325 -1.19085,-0.0454 -2.67708,-0.14027 -3.82862,-0.21745 -4.30295,-0.30686 -8.60079,-0.93657 -12.714101,-2.27272 -12.556524,-3.77862 -23.81653,-11.32617 -32.611955,-20.9938 -2.724187,-2.96069 -5.241606,-6.20517 -7.531723,-9.41501 -2.286808,-3.23233 -4.684941,-6.69047 -5.010288,-10.76057 -0.467795,-4.93803 0.385391,-9.87006 1.090273,-14.74356 0.501805,-3.17013 1.08377,-6.39146 1.72907,-9.45254 0.492047,-2.37059 1.067314,-4.89152 1.761611,-7.30516 3.112892,4.97981 5.21711,10.50183 8.277344,15.51172 9.455646,16.02106 23.889748,29.03585 40.797759,36.79293 14.18934,6.57151 30.08887,9.37854 45.67106,8.0643 15.72567,-1.25247 31.09094,-6.733 44.02936,-15.76469 14.27138,-9.87896 25.50728,-23.87995 32.66621,-39.648 2.68211,-5.93131 4.91536,-12.08612 6.43063,-18.42126 1.68223,-7.95876 2.22351,-16.11527 2.33818,-24.2342 0.0215,-6.49887 -0.16554,-13.05053 -1.45171,-19.43973 -0.42411,-1.98204 -1.03877,-3.91658 -1.55766,-5.87474 7.69596,0 15.39193,0 23.08789,0 z m -1.67774,94.05274 c 1.69465,0.005 3.31961,0.0207 4.95205,0.0811 1.39712,0.0597 3.09599,0.14895 4.60491,0.34248 3.19344,0.33104 6.35146,1.3207 8.97537,3.20994 1.24392,0.88879 2.7004,1.69727 3.44814,3.08132 -0.11797,0.82938 -0.99521,1.33353 -1.57226,1.86914 -1.81794,1.41476 -3.84936,2.56966 -6.08945,3.15801 -5.60728,1.59941 -11.46355,2.20056 -17.28045,2.27488 -3.70775,-0.0173 -7.54689,-0.16112 -10.97009,-1.74523 -2.88126,-1.26601 -5.78566,-2.74439 -7.97851,-5.05111 -0.60638,-0.42349 0.19334,-0.8522 0.46578,-1.21938 2.80576,-2.70524 6.34277,-4.75637 10.23563,-5.3343 1.97119,-0.35471 4.16761,-0.49388 6.04287,-0.57896 1.71605,-0.0637 3.38918,-0.0838 5.16601,-0.0879 z m -7.77148,30.94922 c 8.24913,0.0901 16.50843,0.58368 24.67188,1.80664 0.64457,0.10815 1.4794,0.22712 2.13152,0.34207 9.62596,1.599 19.10255,4.37109 28.25324,7.56418 11.39278,3.94197 22.543,8.83959 34.02459,12.66041 10.48887,3.55094 21.32927,6.312 32.41426,7.02624 8.1489,0.60277 16.34442,0.26336 24.44976,-0.72343 14.13392,-1.72102 28.10089,-4.72057 41.76968,-8.68922 8.41973,-2.51445 16.80345,-5.32859 24.6526,-9.31895 2.45512,-1.25605 4.76743,-2.76489 7.13638,-4.17185 0.0804,2.88244 -0.13537,5.78244 -0.91334,8.56899 -1.93156,7.03828 -5.71009,13.54242 -10.69994,18.85288 -3.55334,3.71661 -7.94789,6.5105 -12.45508,8.92383 -1.71528,0.92584 -3.55201,1.59454 -5.46052,1.98823 -1.34694,0.36051 -3.09171,0.83149 -3.42806,2.39651 -0.35737,1.37501 0.8079,2.53858 1.99313,3.01448 3.94672,2.0053 8.57438,1.82471 12.81426,1.03998 6.02428,-1.18981 11.85523,-3.62185 16.77641,-7.3188 1.74052,-1.33408 3.35534,-2.86364 4.61728,-4.66532 -0.2327,14.21097 -0.46782,28.42189 -0.70313,42.63281 -3.6802,2.63381 -7.23954,5.4417 -11.02221,7.9289 -2.92308,1.87505 -6.04594,3.55202 -9.1041,5.0175 -11.50191,5.47194 -23.71938,9.27642 -36.04179,12.40805 -4.8137,1.21125 -9.70512,2.31324 -14.50746,3.27852 -5.20581,1.05689 -10.45664,1.98732 -15.65136,2.80089 -3.98477,0.62729 -7.94553,1.1824 -11.90433,1.67582 -11.12243,1.37915 -22.29621,2.30833 -33.47773,3.05048 -8.34001,0.52352 -16.85736,0.90718 -25.27533,1.14554 -14.54688,0.38799 -29.23991,0.37112 -43.83869,-0.0249 -8.23812,-0.20429 -16.62987,-0.5609 -24.86059,-0.97811 -17.76145,-0.93934 -35.55899,-2.33054 -53.22266,-4.04688 -12.62678,-1.24304 -25.1782,-2.63052 -37.77919,-4.18264 -14.55793,-1.78547 -29.15463,-3.75758 -43.66562,-5.90649 -1.06202,-0.15779 -2.12403,-0.31558 -3.18605,-0.47337 25.12567,0.5967 50.26021,0.72663 75.39219,0.71004 17.2265,-0.0563 34.45969,-0.0556 51.67582,-0.71536 9.83049,-0.37657 19.65849,-1.16111 29.36551,-2.79797 7.08543,-1.14411 14.19958,-2.16758 21.20682,-3.73771 1.57126,-0.44262 3.38639,-0.66777 4.56474,-1.89845 0.95585,-1.02732 0.58007,-2.8176 -0.66406,-3.43359 -1.8018,-0.89151 -3.89274,-0.84368 -5.85156,-1.07618 -9.80455,-0.62106 -19.63494,-0.62079 -29.45508,-0.74414 -28.16815,-0.20855 -56.33833,-0.0352 -84.50539,-0.41037 -18.78817,-0.25739 -37.54697,-0.56157 -56.30486,-1.4547 -8.35279,-0.38021 -16.610237,-1.14867 -24.915599,-1.94296 -10.297788,-1.01705 -20.689499,-2.17427 -30.910949,-3.65804 -3.814549,-0.59713 -7.811162,-1.1232 -11.617205,-2.14268 -0.296966,-0.40443 -0.145304,-1.14454 -0.261657,-1.67866 -0.383915,-6.20203 -0.428584,-12.4232 -0.292936,-18.63446 0.05193,-1.64847 0.136985,-3.51653 0.301109,-5.24237 0.191796,-1.54986 0.29178,-3.17407 0.984048,-4.59748 1.431281,-0.73175 3.119486,-0.33866 4.648001,-0.21429 6.548404,0.9714 12.970514,2.62397 19.414499,4.11273 18.751599,4.49491 37.468799,9.40502 56.402339,13.21094 11.37714,2.28251 22.88965,3.90864 34.46875,4.70117 11.57306,0.80054 23.17415,1.1241 34.77083,1.3581 11.2702,0.15668 22.56908,0.21823 33.80458,-0.7984 5.58066,-0.55144 11.12719,-1.47307 16.59581,-2.71096 1.43487,-0.41368 3.16404,-0.61862 4.06316,-1.96007 0.0948,-0.60033 0.522,-1.23626 0.0316,-1.76663 -0.42272,-1.2393 -1.90053,-1.39046 -3.01016,-1.61423 -7.14672,-1.11638 -14.3578,-1.75922 -21.55268,-2.4752 -18.74412,-1.66194 -37.43721,-3.44482 -56.12936,-5.56158 -22.74201,-2.56811 -45.46177,-5.4723 -68.056825,-9.15669 -12.361932,-2.06085 -24.725339,-4.24165 -36.862694,-7.39637 -4.824748,-1.28347 -9.582207,-2.86136 -14.158029,-4.86262 -1.451241,-0.69287 -3.224426,-1.55164 -3.467999,-3.33915 -0.36808,-1.43874 -0.130527,-3.16835 0.0147,-4.4662 0.796403,-5.80047 1.992037,-11.5568 3.673261,-17.16665 0.07202,-0.78384 0.65308,0.33296 0.953328,0.44483 3.226777,2.97587 6.138769,6.32522 9.786065,8.81461 7.794751,5.51064 17.148981,8.27975 26.463967,9.86849 12.710745,2.09455 25.650676,2.21836 38.496756,1.82218 11.20935,-0.43625 22.47416,-0.90953 33.52194,-2.99268 9.18497,-1.71033 18.01234,-4.93609 26.49229,-8.80464 8.1604,-3.65986 16.00654,-7.99173 24.25888,-11.45294 1.41954,-0.58732 3.04435,-1.26482 4.56497,-1.833 7.12205,-2.74494 14.5792,-4.66607 22.18307,-5.4209 0.4014,-0.0334 1.38336,-0.12473 1.77149,-0.16406 1.28461,-0.10207 2.55824,-0.17112 3.72461,-0.23438 1.97046,-0.0797 3.942,-0.11479 5.91406,-0.10937 z" />
    </g>
  </g>
</svg>
