<?xml version="1.0" encoding="UTF-8" standalone="no"?>
<svg
   version="1.1"
   id="svg62"
   width="512"
   height="512"
   viewBox="0 0 512 512"
   sodipodi:docname="bgpleak.svg"
   inkscape:version="1.2.2 (b0a8486541, 2022-12-01)"
   xmlns:inkscape="http://www.inkscape.org/namespaces/inkscape"
   xmlns:sodipodi="http://sodipodi.sourceforge.net/DTD/sodipodi-0.dtd"
   xmlns="http://www.w3.org/2000/svg"
   xmlns:svg="http://www.w3.org/2000/svg"
   xmlns:rdf="http://www.w3.org/1999/02/22-rdf-syntax-ns#"
   xmlns:cc="http://creativecommons.org/ns#"
   xmlns:dc="http://purl.org/dc/elements/1.1/">
  <sodipodi:namedview
     id="namedview58"
     pagecolor="#7a7a7a"
     bordercolor="#999999"
     borderopacity="1"
     inkscape:pageshadow="0"
     inkscape:pageopacity="0"
     inkscape:pagecheckerboard="0"
     showgrid="false"
     inkscape:zoom="0.65600727"
     inkscape:cx="282.77126"
     inkscape:cy="259.14347"
     inkscape:window-width="1366"
     inkscape:window-height="705"
     inkscape:window-x="0"
     inkscape:window-y="26"
     inkscape:window-maximized="1"
     inkscape:current-layer="svg62"
     inkscape:showpageshadow="0"
     inkscape:deskcolor="#7a7a7a" />
  <metadata
     id="metadata68">
    <rdf:RDF>
      <cc:Work
         rdf:about="">
        <dc:format>image/svg+xml</dc:format>
        <dc:type
           rdf:resource="http://purl.org/dc/dcmitype/StillImage" />
      </cc:Work>
    </rdf:RDF>
  </metadata>
  <defs
     id="defs66" />
  <g
     id="g1043"
     transform="matrix(0.96874184,0,0,0.96267972,7.9956494,9.573553)">
    <path
       id="path993-6-9"
       style="fill:#ffffff;fill-opacity:1;stroke:none;stroke-width:2.24401;stroke-opacity:1"
       d="m 159.99219,57.605469 c -14.54893,-0.0623 -29.17794,0.208414 -43.54967,2.69144 -8.98062,1.565931 -17.831837,3.803416 -26.594839,6.299423 -16.417822,4.78232 -32.391,11.463231 -46.699112,20.901566 C 29.361426,96.54165 17.01427,108.212 8.6992188,122.55859 2.2475083,133.74758 -1.50842,146.607 -1.3006612,159.56792 c -0.012998,2.55529 0.30435752,5.09463 0.44447256,7.64028 0.0344206,3.71584 -0.34999966,7.42085 -0.35917646,11.13693 -0.393761,14.6351 -0.568716,29.27503 -0.8316939,43.91284 -0.2124419,15.4301 -0.3551999,30.87964 0.5490117,46.2913 0.68542877,8.76084 2.942946,17.44047 7.0190374,25.24771 5.2379289,10.84425 12.5041389,20.73385 21.4868219,28.77333 13.540121,12.33356 29.835861,21.32412 46.905523,27.77355 17.675172,6.76215 36.155505,11.38264 54.899165,13.95106 14.79241,1.85003 29.74271,1.2845 44.59203,0.58811 18.25843,-0.96419 36.58633,-3.00647 54.19126,-8.13128 16.20531,-4.6211 31.96046,-11.07483 46.34609,-19.89751 13.78352,-8.50691 26.30818,-19.42437 35.34854,-32.95595 0.56541,-0.84309 1.10713,-1.70191 1.63927,-2.56626 10.45165,-0.0734 20.90362,-0.0616 31.35547,-0.0742 5.66953,5.39059 13.32778,8.37088 21.05679,9.07625 7.93617,0.94203 15.94082,0.42564 23.90961,0.61012 3.29375,0.0101 6.5875,0.0203 9.88125,0.0304 0,2.40234 0,4.80469 0,7.20703 -10.21219,0.50917 -20.53936,1.81644 -30.09179,5.64453 -3.99624,1.59372 -7.82886,3.61782 -11.34375,6.10352 -15.4657,0.28271 -30.99279,-0.0298 -46.37873,1.82 -12.94081,1.8975 -25.69037,6.49377 -36.10753,14.53541 -8.29901,6.55229 -14.61833,15.91453 -16.53838,26.40307 -2.09908,10.75078 0.65732,22.3715 7.48966,30.95329 6.30373,8.38444 15.21462,14.44075 24.65615,18.79602 13.01763,6.04847 27.36977,8.66052 41.62933,9.40117 12.64552,0.72978 25.29318,0.79532 37.92244,1.42888 3.28061,0.20893 6.56648,1.05034 9.35229,2.84097 10.7504,5.62738 21.27787,11.98432 33.00211,15.41884 10.74497,3.00357 22.0218,3.04809 33.08791,2.66862 10.73345,-0.46139 21.51928,-2.20167 31.50823,-6.27677 8.22054,-3.27655 16.11884,-7.62098 22.7405,-13.54225 6.67886,-6.07625 11.91045,-14.00473 13.81408,-22.9101 1.83821,-8.27401 0.94646,-17.10797 -2.40463,-24.88481 4.55981,-7.81563 6.0269,-17.46757 3.56346,-26.21569 -2.28228,-8.66513 -7.94258,-16.20494 -15.10862,-21.47976 -1.97018,-1.53945 -4.04818,-2.93923 -6.19702,-4.21666 -0.6025,-2.22226 -1.31494,-4.41372 -2.09961,-6.57812 2.51237,0 5.02474,0 7.53711,0 0,-23.45769 0,-46.91537 0,-70.37305 -2.82422,0 -5.64844,0 -8.47266,0 -0.72901,-8.47958 -2.85646,-17.03292 -7.54492,-24.23242 -3.11299,-4.87756 -7.14846,-9.18632 -11.91016,-12.48633 6.20776,-8.0832 9.30821,-18.71923 7.53486,-28.83859 -1.87979,-11.22027 -9.30957,-21.19324 -19.19256,-26.70669 -8.13531,-4.61215 -18.0377,-6.2679 -27.14787,-3.9239 -2.07271,0.47999 -4.0702,1.25977 -6.11247,1.81798 -5.14175,0.4492 -10.3209,0.39988 -15.46812,0.0827 -2.47097,-0.21244 -4.68983,-1.42948 -7.10612,-1.89882 -12.21287,-2.94529 -25.70793,0.83815 -34.80688,9.44848 -4.30933,4.05352 -7.57919,9.17744 -9.63601,14.71287 -1.38404,3.81498 -2.16523,7.85667 -2.22303,11.91726 -7.74024,0 -15.48047,0 -23.2207,0 -10e-6,3.22005 0,6.4401 0,9.66015 -3.57813,0 -7.15625,0 -10.73438,0 0.0114,-15.45391 -0.0412,-30.91054 0.0706,-46.36269 1.36622,-9.24622 -0.64972,-18.6619 -4.05692,-27.25645 -6.09599,-15.43601 -17.03432,-28.5908 -29.94914,-38.845098 -16.69678,-13.370739 -36.50695,-22.382323 -56.96226,-28.308538 -17.07789,-5.018122 -34.7325,-8.436867 -52.5699,-8.748442 -5.88687,-0.162706 -11.77662,-0.149718 -17.66518,-0.144793 z" />
    <path
       id="path993-6"
       style="fill:#000000;fill-opacity:1;stroke:none;stroke-width:2.24401;stroke-opacity:1"
       d="m 150.27456,69.622419 c -14.13828,0.141252 -28.36536,1.18323 -42.09444,4.620126 -18.929101,4.2825 -37.610589,10.526475 -54.142363,20.58169 -13.335671,8.003125 -25.385245,18.445845 -33.602314,31.488855 -7.193098,11.41785 -10.9980042,25.06893 -9.40006,38.44483 0.411056,2.93956 -0.05378,5.88901 -0.107974,8.83512 -0.441377,11.72115 -0.477399,23.4525 -0.762879,35.1778 -0.3186977,18.37843 -0.6869736,36.77167 0.05496,55.14476 0.349029,7.57284 1.532118,15.25661 4.933842,22.15685 4.214402,9.42729 10.054642,18.23407 17.635518,25.46167 11.539388,11.23386 25.766461,19.59641 40.7595,25.78886 15.714083,6.45498 32.24085,10.98695 49.03019,13.91856 5.96746,1.03945 11.98829,1.81503 18.05041,2.06361 10.54638,0.48713 21.11577,0.17762 31.65383,-0.35349 12.07803,-0.66219 24.16059,-1.73645 36.05514,-3.92125 15.72772,-3.0527 31.07185,-8.02215 45.48129,-14.84792 14.39641,-6.90759 27.89088,-15.98475 38.44057,-27.80455 4.58512,-5.16059 8.5549,-10.85197 11.60373,-16.99107 14.63846,-0.19352 29.27892,-0.0934 43.9183,-0.1289 2.89078,4.44048 7.76682,7.51144 13.06259,8.53223 6.73473,1.48807 13.69133,1.01232 20.54161,1.13772 3.9343,0.0119 7.86858,0.025 11.80288,0.0359 0,-4.35169 0,-8.70336 0,-13.05504 0.89048,-0.64554 1.70498,-1.49541 2.64149,-2.01715 4.43429,0 8.86858,0 13.30287,0 0,10.73332 0,21.46664 0,32.19997 4.60584,0 9.21167,0 13.81751,0 -2.40884,4.53945 -4.56831,9.20718 -6.35017,14.0116 -7.74746,-0.45172 -15.52339,-0.19741 -23.26038,0.31363 -9.60999,0.7365 -19.41776,2.55894 -27.78449,7.41367 -1.99811,1.1638 -3.89078,2.50381 -5.60412,4.03646 -15.37255,0.29937 -30.78284,0.027 -46.111,1.37154 -10.75957,1.21275 -21.40499,4.52365 -30.41391,10.4285 -6.97942,4.67143 -12.66927,11.55181 -14.61466,19.65294 -1.77334,7.03821 -0.71207,14.81113 3.40864,20.92173 4.90158,7.67313 12.73295,13.13658 21.00696,17.02341 11.33157,5.36009 23.91138,7.80296 36.44112,8.50514 12.57519,0.83811 25.18547,0.78862 37.73524,1.42062 4.88358,0.24865 9.90177,0.9625 14.18356,3.3982 10.78257,5.48175 21.09864,12.11953 32.85968,15.53871 7.1766,1.97643 14.70298,2.19819 22.11584,2.27316 7.85047,-0.0336 15.73164,-0.62433 23.42056,-2.20103 8.44329,-1.95027 16.50494,-5.38864 23.7954,-9.93294 6.87423,-4.44807 12.90786,-10.65156 15.52451,-18.37329 2.49484,-7.16115 1.8859,-15.22998 -1.54098,-22.01004 -0.70929,-1.47758 -1.54928,-2.89282 -2.44281,-4.27226 4.31677,-4.57051 7.12687,-10.66256 6.87907,-16.92465 -0.16267,-6.91042 -3.65721,-13.54037 -8.96595,-18.09629 -3.52486,-3.23283 -7.62491,-5.83836 -11.95267,-7.95005 -1.7406,-9.33778 -5.88651,-18.02181 -10.03125,-26.54876 4.63934,0 9.27868,0 13.91802,0 0,-15.45738 0,-30.91475 0,-46.37213 -2.65661,0 -5.31323,0 -7.96985,0 -0.0962,-7.42809 -0.31582,-14.98725 -2.54425,-22.1526 -2.76008,-8.31268 -8.80488,-15.87124 -17.17323,-19.45387 -2.12251,-0.89358 -4.36022,-1.50141 -6.61573,-1.98866 -0.38673,-1.38284 -0.97808,-2.79852 -1.47009,-4.08407 6.9182,-3.1171 12.11952,-9.28364 14.56016,-16.21346 2.02142,-5.81535 1.73978,-12.36949 -0.99598,-17.92624 -4.10713,-8.71463 -13.36226,-15.1956 -23.36918,-15.42245 -4.02935,-0.0981 -8.01994,0.90361 -11.66661,2.50808 -3.20209,0.63339 -6.49422,0.54301 -9.74428,0.68981 -4.58782,0.0423 -9.21627,0.0202 -13.74802,-0.72179 -2.51965,-0.80637 -4.97358,-1.8955 -7.6444,-2.1629 -9.20098,-1.2778 -19.00924,2.66425 -24.37934,10.04631 -4.45943,5.8248 -6.51229,13.5297 -4.68098,20.64236 0.50075,2.11997 1.27539,4.17597 2.25532,6.13165 -8.70684,0 -17.41369,0 -26.12053,0 0,3.22023 0,6.44045 0,9.66067 -11.57847,0 -23.15695,0 -34.73543,0 0.004,-19.63869 0.006,-39.27738 0.01,-58.91608 1.47989,-7.79645 -0.47864,-15.76663 -3.44269,-23.01666 C 300.35045,124.20216 290.80197,112.9902 279.59619,104.09555 263.61617,91.270961 244.32517,82.881347 224.50294,77.308799 212.84414,74.033841 200.92118,71.518003 188.83172,70.34 176.50653,69.305448 164.12135,69.680176 151.7655,69.610351 c -0.4969,0.0041 -0.99381,0.008 -1.49072,0.01201 z m 149.05479,81.889571 c -0.12803,-0.13213 -0.0439,-0.29377 0,0 z M 98.959043,201.83704 c -0.650771,0.0763 0.352173,-0.40606 0,0 z" />
    <path
       style="fill:#000000;fill-opacity:1;stroke:none;stroke-width:2.24401;stroke-opacity:1"
       d="M 131.16411,336.22521 C 102.55184,331.95543 75.048898,322.41699 58.150043,310.90281 44.170095,301.37747 36.741112,293.07312 30.8606,280.39784 c -2.932069,-6.31998 -3.39609,-8.5205 -4.035019,-19.13514 -0.397075,-6.59667 -0.392765,-28.66694 0.0096,-49.04506 l 0.731533,-37.05114 2.883006,5.73919 c 8.411788,16.74533 29.61173,32.27941 57.69279,42.27393 23.73093,8.44622 41.20027,11.13083 72.83417,11.19286 21.82708,0.0428 34.82762,-1.22975 50.29665,-4.92317 37.37912,-8.92473 64.1181,-24.99374 77.45427,-46.5468 l 3.64392,-5.88906 v 29.23426 29.23425 h 34.12057 34.12059 v -4.83004 -4.83004 h 7.91202 7.91203 v 28.44357 28.44358 h -4.32689 c -2.37979,0 -5.72142,-0.30271 -7.42587,-0.67266 -2.68072,-0.58187 -3.18165,-1.23376 -3.71152,-4.83004 l -0.61257,-4.15739 h -34.02522 c -31.52848,0 -34.06705,0.13784 -34.59526,1.87835 -7.90878,26.06038 -39.93589,48.10169 -83.78309,57.66021 -19.47126,4.24467 -59.89339,6.15949 -76.79218,3.63771 z"
       id="path993" />
    <path
       style="fill:#001aff;fill-opacity:1;stroke:none;stroke-width:2.24401;stroke-opacity:1"
       d="M 132.22187,230.02435 C 120.70654,228.82042 101.32505,224.27799 88.984921,219.89096 63.666175,210.88987 44.29588,197.26752 34.335695,181.45832 12.850068,147.35554 43.030427,107.89928 102.48303,92.36597 c 21.61779,-5.648131 30.22224,-6.618036 58.35114,-6.577466 22.54908,0.03253 28.00379,0.373401 39.0656,2.441326 36.80339,6.880135 64.0779,20.24388 80.67285,39.52743 8.59951,9.99276 14.02259,23.98248 11.88116,30.64932 -0.58921,1.8343 -1.07129,5.3417 -1.07129,7.79422 0,9.46993 -11.08162,25.58133 -24.09841,35.03633 -8.54196,6.20458 -26.20424,15.3671 -36.82629,19.10407 -25.85177,9.09496 -66.00522,13.0529 -98.23592,9.68315 z m 107.38367,-19.49222 c 8.06739,-4.31992 11.0225,-7.14583 8.4469,-8.07759 -0.63734,-0.23056 -10.17475,-6.27961 -21.19422,-13.4423 l -20.03544,-13.02309 11.12629,-3.75337 c 6.11944,-2.06436 11.12627,-4.13461 11.12627,-4.60055 0,-0.46596 -12.84192,-0.84717 -28.53764,-0.84717 h -28.53762 l -4.25187,9.92839 c -7.05202,16.46701 -7.19095,16.90514 -5.3601,16.90514 0.86925,0 5.841,-1.932 11.04831,-4.29335 5.20731,-2.36135 9.82238,-4.29337 10.25572,-4.29337 0.43333,0 5.36995,3.23009 10.97026,7.17799 16.86763,11.89069 33.73491,22.87559 35.12542,22.87559 0.71987,0 5.13783,-2.05035 9.81772,-4.55632 z m -114.9194,2.41896 c 7.03657,-0.005 11.43841,-0.4 10.87904,-0.97485 -0.51676,-0.53105 -5.50134,-3.00587 -11.07685,-5.49964 -5.5755,-2.49376 -10.13727,-4.68761 -10.13727,-4.87524 0,-0.18762 4.33925,-3.11003 9.64277,-6.49425 11.88676,-7.585 31.89534,-21.62226 31.89534,-22.37656 0,-0.30592 -4.40915,-2.95752 -9.79809,-5.89243 l -9.79808,-5.33621 -21.60275,15.13422 c -11.8815,8.32382 -22.353729,15.35768 -23.271616,15.6308 -0.917875,0.27312 -6.119022,-1.48387 -11.558098,-3.90441 -5.439076,-2.42054 -10.139965,-4.40099 -10.446414,-4.40099 -1.249239,0 -0.329832,3.41729 4.203648,15.62435 l 4.760829,12.81922 12.299467,0.64438 c 6.764708,0.35441 14.524724,0.47936 17.244474,0.27767 2.71976,-0.2017 10.26337,-0.37092 16.7636,-0.37606 z m 74.50129,-67.79789 c 8.0071,-5.40545 18.48628,-12.42089 23.28706,-15.58987 l 8.72866,-5.76179 10.3358,5.00693 c 5.68469,2.75383 10.57293,4.74957 10.86277,4.43501 0.28985,-0.31456 -1.86283,-6.2991 -4.78373,-13.29893 l -5.31072,-12.72699 -25.65426,-0.61531 c -14.10984,-0.3384 -26.76689,-0.2785 -28.12677,0.13315 l -2.4725,0.74845 2.50855,1.09481 c 1.37969,0.60214 5.83021,2.17074 9.89003,3.48576 7.2922,2.36204 7.35358,2.4121 5.0757,4.13876 -2.90467,2.20178 -29.09471,20.05263 -35.33512,24.08402 -3.14533,2.03191 -4.34256,3.37001 -3.66915,4.10083 1.49294,1.62026 17.37791,10.52573 18.83965,10.56191 0.69611,0.0172 7.81692,-4.39129 15.82403,-9.79674 z m -43.13875,-6.27205 c 3.15298,-7.37922 5.39637,-13.54186 4.98525,-13.69474 -0.41108,-0.15287 -5.33346,1.39817 -10.93856,3.44673 l -10.19113,3.72472 -23.59301,-14.4178 -23.593015,-14.41778 -9.530418,4.80059 c -7.07209,3.56228 -9.447994,5.25931 -9.210878,6.57901 0.179173,0.99721 9.100667,7.47968 20.309571,14.75721 10.99451,7.13832 20.0068,13.24594 20.0273,13.5725 0.0206,0.32654 -3.18935,1.68502 -7.13299,3.01881 -3.94365,1.33379 -8.461409,2.96669 -10.039473,3.62869 -2.552313,1.07069 -2.661542,1.29302 -0.989003,2.01313 1.034105,0.44523 13.643956,0.71864 28.021916,0.60761 l 26.14171,-0.20191 z"
       id="path997" />
    <path
       style="fill:#001aff;fill-opacity:1;stroke:none;stroke-width:2.24401;stroke-opacity:1"
       d="m 440.21888,371.94135 c -15.52542,-7.65451 -15.11342,-27.42508 1.1412,-54.76221 l 5.67281,-9.54051 2.96686,4.44033 c 4.2301,6.33096 11.15663,20.75917 13.47186,28.06235 3.83553,12.09887 1.8857,24.29205 -4.67806,29.25388 -6.30276,4.76454 -12.38436,5.59818 -18.57467,2.54616 z"
       id="path1924" />
    <path
       style="fill:#001aff;fill-opacity:1;stroke:none;stroke-width:2.24401;stroke-opacity:1"
       d="m 419.45831,424.68904 c -4.07639,-1.04206 -12.26065,-4.74398 -19.90415,-9.00309 -18.77774,-10.46331 -19.34696,-10.59472 -48.83151,-11.27347 -27.67893,-0.63719 -36.29763,-1.87835 -48.6059,-6.99959 -9.2368,-3.84326 -16.32001,-10.16687 -17.22,-15.37333 -1.23037,-7.11771 4.08597,-14.07643 13.90327,-18.19842 10.66522,-4.47798 16.24754,-5.19733 42.93397,-5.53258 l 26.12092,-0.32814 2.06565,-2.7311 c 2.87463,-3.80067 9.59741,-6.69686 18.70299,-8.05727 8.46385,-1.26452 25.70866,-1.51951 31.57652,-0.4669 l 3.70876,0.66529 0.0218,6.03128 c 0.0276,7.65984 2.44587,13.46407 7.78742,18.69095 5.27943,5.16612 7.67256,6.12382 15.30257,6.12382 10.89522,0 20.99219,-7.70864 22.92716,-17.50398 1.03103,-5.21935 1.23141,-5.28939 6.39982,-2.2365 6.1516,3.63364 9.12666,7.08777 9.12666,10.5963 0,3.53227 -2.3322,6.30457 -8.87854,10.55402 -2.8681,1.86178 -5.21474,3.65294 -5.21474,3.98034 0,0.32741 2.04344,2.44906 4.54097,4.71476 15.15921,13.75213 9.0267,26.92454 -16.40249,35.23196 -9.06089,2.96007 -30.50937,3.55739 -40.0611,1.11565 z m 27.39614,-20.82583 c 6.05375,-1.39402 14.63647,-5.79947 14.63647,-7.51282 0,-0.67622 -0.73053,-0.86275 -1.73075,-0.44192 -13.95005,5.86911 -30.07959,4.89646 -45.62049,-2.75105 -8.06869,-3.9705 -9.82585,-3.48145 -4.05754,1.12931 11.4867,9.18157 24.15738,12.48135 36.77231,9.57648 z"
       id="path1963" />
    <path
       id="path2002-3"
       style="fill:#000000;fill-opacity:1;stroke:none;stroke-width:9.4237;stroke-dasharray:none;stroke-opacity:1;paint-order:stroke fill markers"
       d="m 438.45117,184.67969 c -2.49632,0.0868 -4.7102,1.38863 -7.04349,2.09724 -5.45282,1.14492 -11.05981,1.07459 -16.60376,1.12431 -4.75568,-0.0605 -9.5564,-0.22684 -14.21894,-1.22044 -2.3092,-0.76248 -4.55437,-1.95004 -7.04787,-1.90541 -4.70836,-0.15302 -9.36331,2.46367 -11.70021,6.55235 -1.92472,3.0248 -2.65205,6.9006 -1.43045,10.33013 0.97387,3.12057 2.7893,6.09885 5.48219,8.01169 3.76951,2.40873 8.67041,2.60283 12.83206,1.16638 2.49441,-1.02069 4.8787,-2.29084 7.3418,-3.38477 0,3.95768 0,7.91537 0,11.87305 -2.69017,0.47789 -5.66171,0.76213 -7.74426,2.73557 -2.96046,2.54921 -4.31673,6.42443 -4.90093,10.18363 -0.29913,1.51719 -0.59848,3.03434 -0.89778,4.5515 -2.40967,-1.44652 -4.6644,-3.1811 -7.23437,-4.3418 -1.66962,-0.72724 -3.81831,-0.87582 -5.2417,0.45048 -1.19297,0.94102 -1.6225,2.46284 -1.71009,3.91834 -0.60058,4.98635 -0.59308,9.99555 -0.7132,15.00726 -0.0597,4.50136 -0.0272,9.03497 0.1686,13.47214 0.30684,5.1275 1.49828,10.14102 2.28154,15.20452 3.6691,-2.94163 7.33963,-5.88147 11.00781,-8.82422 12.90691,0 25.81381,0 38.72071,0 0,3.41602 0,6.83203 0,10.24805 -2.63737,0 -5.27474,0 -7.91211,0 0,7.31771 0,14.63541 0,21.95312 16.84245,0 33.68489,0 50.52734,0 0,-7.31771 0,-14.63541 0,-21.95312 -2.64258,0 -5.28515,0 -7.92773,0 -0.0453,-5.07023 0.0314,-10.14139 -0.0801,-15.21094 -0.10203,-3.85206 -0.3545,-7.91007 -1.00395,-11.79172 -0.91252,-5.78449 -4.10265,-11.33428 -9.03707,-14.58719 -3.76152,-2.31866 -8.30814,-2.64806 -12.56206,-3.22964 -0.6187,-0.0792 -1.23726,-0.15945 -1.8559,-0.23911 -0.51573,-4.36218 -1.15898,-8.96691 -3.82654,-12.60616 -1.63598,-2.22234 -4.19418,-3.54745 -6.82586,-4.20752 -0.79137,-0.23946 -1.58318,-0.47748 -2.37495,-0.71561 0,-3.84636 0,-7.69271 0,-11.53907 3.1548,1.26345 6.1976,2.85399 9.48843,3.74611 3.70799,1.00592 7.85589,0.0152 10.70049,-2.57069 3.37375,-3.01331 5.81362,-7.48063 5.36063,-12.10489 -0.52737,-5.05797 -4.34729,-9.32796 -8.9181,-11.27596 -1.6065,-0.66887 -3.35919,-1.00296 -5.1002,-0.91761 z" />
    <path
       id="path2002"
       style="fill:#fff300;fill-opacity:1;stroke:none;stroke-width:9.4237;stroke-dasharray:none;stroke-opacity:1;paint-order:stroke fill markers"
       d="m 439.13672,188.67773 c -1.46352,-0.009 -2.95809,0.40573 -4.45899,1.24805 -4.7404,2.66039 -31.80495,2.67485 -36.96093,0.0195 -5.81201,-2.99315 -11.94577,-0.0715 -13.80078,6.57422 -0.81189,2.90866 1.65325,8.39381 4.51953,10.05859 2.9938,1.73887 8.27631,1.49331 10.90625,-0.50585 1.24256,-0.94453 4.16347,-1.7168 6.49023,-1.7168 h 4.23047 v 6.97656 6.97656 h 6.42969 6.42773 v -6.97656 -6.97656 h 3.33594 c 1.83469,0 5.28312,0.92806 7.66406,2.0625 5.39576,2.57093 9.01765,1.89814 12.25196,-2.27344 3.19117,-4.1158 3.16223,-8.39703 -0.082,-11.91797 -2.15899,-2.34311 -4.51393,-3.53425 -6.95312,-3.54883 z m -22.08008,34.50196 c -6.29445,8e-4 -12.66053,0.36102 -14.14648,0.80078 -3.46071,1.02416 -5.70508,5.73788 -5.70508,11.98437 0,4.79925 -0.0541,4.88477 -3.23047,4.88477 -1.84736,0 -4.84623,-1.19097 -7,-2.7793 -2.0724,-1.52831 -4.052,-2.47171 -4.39844,-2.0957 -0.98212,1.06586 -1.38991,27.40702 -0.5039,32.55859 l 0.79296,4.60742 3.40625,-2.72851 3.40625,-2.73047 h 22.06055 22.06055 v 9.12305 9.125 h -3.95508 -3.95703 v 6.97656 6.97656 h 21.26367 21.26367 v -6.97656 -6.97656 h -3.95703 -3.95508 l -0.0234,-13.14844 c -0.026,-14.51411 -0.89139,-20.21358 -3.68164,-24.26953 -3.93968,-5.72675 -6.06929,-6.59234 -19.06836,-7.74805 -0.821,-0.073 -1.22726,-0.11884 -1.98829,-0.1875 1.1e-4,-0.0137 0,-0.0273 0,-0.041 v -3.96875 c 0,-0.54373 -0.0805,-1.06822 -0.22851,-1.5625 0.19462,-0.46013 -0.10399,-2.31607 -0.71289,-4.31836 -1.9399,-6.3792 -4.60953,-7.50786 -17.74219,-7.50586 z" />
  </g>
</svg>
