<?xml version="1.0" encoding="UTF-8" standalone="no"?>
<!-- Created with Inkscape (http://www.inkscape.org/) -->

<svg
   version="1.1"
   id="svg870"
   width="512"
   height="512"
   viewBox="0 0 512 512"
   sodipodi:docname="bitb.svg"
   inkscape:version="1.2.2 (b0a8486541, 2022-12-01)"
   xml:space="preserve"
   inkscape:export-filename="../GIT Icons/bitb.png"
   inkscape:export-xdpi="96"
   inkscape:export-ydpi="96"
   xmlns:inkscape="http://www.inkscape.org/namespaces/inkscape"
   xmlns:sodipodi="http://sodipodi.sourceforge.net/DTD/sodipodi-0.dtd"
   xmlns="http://www.w3.org/2000/svg"
   xmlns:svg="http://www.w3.org/2000/svg"><defs
     id="defs874" /><sodipodi:namedview
     id="namedview872"
     pagecolor="#505050"
     bordercolor="#eeeeee"
     borderopacity="1"
     inkscape:pageshadow="0"
     inkscape:pageopacity="0"
     inkscape:pagecheckerboard="0"
     showgrid="false"
     inkscape:zoom="0.73591788"
     inkscape:cx="240.51597"
     inkscape:cy="323.40565"
     inkscape:window-width="1366"
     inkscape:window-height="705"
     inkscape:window-x="0"
     inkscape:window-y="0"
     inkscape:window-maximized="1"
     inkscape:current-layer="g876"
     inkscape:showpageshadow="0"
     inkscape:deskcolor="#505050" /><g
     inkscape:groupmode="layer"
     inkscape:label="Image"
     id="g876"><g
       id="g1813"><path
         id="path3001-7"
         style="fill:#ffffff;fill-opacity:1;stroke-width:5.32083"
         d="M 470.8541,65.614208 C 327.09914,65.765281 183.34358,65.906855 39.58839,66.053449 33.868123,67.836638 28.023169,69.769138 23.248689,73.512504 17.07601,78.134128 12.567323,84.657667 9.4990366,91.661699 8.3783529,93.776661 7.4551599,96.126266 7.7170146,98.563991 7.451597,214.50867 7.1844363,330.45336 6.9201084,446.39805 c 166.0532616,0 332.1065216,0 498.1597816,0 -0.26916,-117.117 -0.53911,-234.23399 -0.81074,-351.350985 -3.25713,-6.162044 -6.12611,-12.739146 -11.15243,-17.723188 -4.93593,-5.050965 -11.44196,-8.068956 -17.71235,-11.105244 -1.43185,-0.619034 -3.01666,-0.64468 -4.55027,-0.604425 z" /><path
         id="path1335"
         style="fill:#5817b1;fill-opacity:1;stroke-width:3.76239"
         d="m 28.414062,148 c 0,92.80534 10e-7,185.61068 0,278.41602 151.964198,0 303.928388,0 455.892578,0 0,-93.47201 0,-186.94401 0,-280.41602 -151.96419,0 -303.92838,0 -455.892578,0 10e-7,0.66667 0,1.33333 0,2 z m 431.007818,35.75195 c 3.56135,1.87991 6.65302,4.81966 8.39516,8.471 0.60845,3.11477 0.50654,6.31141 0.66261,9.46858 0.38478,16.10239 0.31721,32.2112 0.38601,48.31703 0.0697,52.3001 0.0227,104.60028 0.0367,156.90042 0,1.0655 0,2.13099 0,3.19649 -103.7539,0 -207.50781,0 -311.26172,0 0.0123,-57.60623 -0.0432,-115.21257 0.0683,-172.81872 0.0727,-13.44257 0.0194,-26.8908 0.52438,-40.32609 0.11772,-1.68296 0.0993,-3.43346 0.62408,-5.04269 1.66535,-3.20194 4.29478,-5.90184 7.41406,-7.70703 1.35703,-0.71334 2.95055,-0.54192 4.42774,-0.74414 6.18088,-0.36869 12.35883,-0.37492 18.57848,-0.48927 21.84815,-0.25474 43.69832,-0.25154 65.54762,-0.31401 67.2795,-0.15226 134.55917,-0.22095 201.83874,-0.3354 0.91927,0.47461 1.83854,0.94922 2.75782,1.42383 z" /><path
         id="path3001"
         style="fill:#00ff00;fill-opacity:1;stroke-width:5.32083"
         d="m 162.35638,226.94775 c 0,59.84368 0,119.68737 0,179.53104 100.74554,0 201.49108,0 302.23662,0 0,-60.48439 0,-120.96879 0,-181.45319 -100.74554,0 -201.49108,0 -302.23662,0 0,0.64072 0,1.28143 0,1.92215 z" /><path
         id="path978"
         style="fill:#000000;stroke-width:0.571587"
         d="m 472.00812,75.225876 -215.44851,0.21962 -215.446625,0.21962 -3.811018,1.255777 c -7.942773,2.618355 -13.962901,8.145005 -17.969718,16.499669 l -1.982631,4.137119 -0.39126,169.614339 -0.389378,169.61436 h 239.43008 239.43196 l -0.39126,-169.68943 -0.39314,-169.691314 -2.68803,-5.17703 C 488.34675,85.270696 484.56666,81.551961 477.45754,77.97019 Z M 186.5712,98.12081 H 305.96364 425.3542 l 2.19707,1.379664 c 1.20834,0.758956 3.0962,2.424696 4.19475,3.701636 4.51574,5.24904 4.52754,13.65334 0.0263,18.88545 -3.55855,4.1364 -3.5261,4.12836 -23.34576,4.60264 -21.76868,0.52093 -181.7077,0.46072 -204.28633,-0.077 -21.18987,-0.50461 -22.37943,-0.81127 -25.39048,-6.54168 -1.54704,-2.94418 -1.80015,-4.02242 -1.81335,-7.74114 -0.0135,-3.83129 0.18098,-4.63815 1.72306,-7.11982 0.99934,-1.60823 3.05331,-3.71152 4.82679,-4.94427 z m -78.49078,6.01984 c 3.48246,-0.0279 6.92923,2.41918 8.38198,6.79884 1.0077,3.03791 -1.03026,6.91491 -4.57472,8.7041 -2.88882,1.45823 -4.67534,1.57525 -7.2289,0.46927 -4.968832,-2.15207 -6.227495,-8.86547 -2.4623,-13.13216 1.69136,-1.91664 3.79446,-2.82333 5.88394,-2.84005 z m -25.281377,0.25154 c 5.031511,0 8.549395,3.43846 8.549395,8.35495 0,2.81478 -1.02762,4.69354 -3.61915,6.61864 -4.905421,3.64394 -13.088194,-0.36995 -13.092143,-6.42155 -0.0028,-4.50696 3.858331,-8.55204 8.161898,-8.55204 z m -25.315237,0.0244 c 4.37149,-0.14529 8.746905,3.03098 8.746905,8.34369 0,2.66894 -1.137769,4.69096 -3.715083,6.60549 -3.784119,2.811 -9.986414,1.19003 -11.954104,-3.12348 -1.426036,-3.12566 -1.426544,-5.38951 0.0019,-7.7205 1.675541,-2.73424 4.297507,-4.01803 6.920402,-4.1052 z M 31.656921,149.43497 H 256.00093 480.34307 V 285.98428 422.53359 H 256.00093 31.656921 V 285.98428 Z" /><path
         id="path978-3"
         style="fill:#000000;fill-opacity:1;stroke-width:0.376293"
         d="m 457.21178,178.5706 -143.50071,0.14291 -143.49945,0.1429 -2.53835,0.81714 c -5.29033,1.70375 -9.30007,5.29992 -11.96883,10.73627 l -1.32055,2.692 -0.26059,110.36737 -0.25936,110.36737 H 313.3377 472.81273 l -0.2606,-110.41622 -0.26186,-110.41745 -1.79037,-3.36868 c -2.40569,-4.52748 -4.92344,-6.94725 -9.65851,-9.27789 z m -190.11689,14.89765 h 79.52201 79.52076 l 1.46337,0.89775 c 0.80483,0.49383 2.06224,1.57772 2.79394,2.40863 3.00774,3.41552 3.0156,8.88417 0.0175,12.28869 -2.37019,2.69152 -2.34858,2.6863 -15.54958,2.99491 -14.49915,0.33896 -121.02744,0.29979 -136.06606,-0.0501 -14.11364,-0.32835 -14.90595,-0.52788 -16.91148,-4.25664 -1.03041,-1.91577 -1.199,-2.61738 -1.20779,-5.03713 -0.009,-2.493 0.12054,-3.01802 1.14765,-4.63284 0.66561,-1.04647 2.03368,-2.41507 3.21491,-3.21722 z m -52.27923,3.91708 c 2.31951,-0.0181 4.61526,1.57415 5.58286,4.42398 0.67119,1.97676 -0.68621,4.4995 -3.04701,5.66372 -1.92412,0.94887 -3.11404,1.02501 -4.81485,0.30535 -3.30952,-1.40034 -4.14786,-5.76872 -1.64003,-8.54504 1.12654,-1.24715 2.52732,-1.83714 3.91903,-1.84801 z m -16.8388,0.16367 c 3.35126,0 5.69437,2.2374 5.69437,5.43654 0,1.83157 -0.68446,3.05407 -2.41056,4.30672 -3.26728,2.37109 -8.71746,-0.24073 -8.7201,-4.17847 -0.002,-2.93267 2.56986,-5.56479 5.43629,-5.56479 z m -16.86136,0.016 c 2.91166,-0.0946 5.82593,1.97224 5.82593,5.4292 0,1.73667 -0.75783,3.05239 -2.47446,4.29817 -2.52043,1.8291 -6.65151,0.77435 -7.9621,-2.03244 -0.94982,-2.03385 -0.95015,-3.50693 0.002,-5.0237 1.11602,-1.77916 2.86239,-2.61451 4.60937,-2.67123 z m -17.20214,29.29328 h 149.4256 149.42436 v 88.85204 88.85208 H 313.33896 163.91336 v -88.85212 z" /><path
         id="path1374"
         style="fill:#ffffff;stroke-width:3.76239"
         d="m 265.03564,192.96669 c -2.06736,2.153 -4.63232,4.11151 -5.52824,7.086 -1.03005,3.19706 0.15565,6.63712 1.9047,9.34934 1.30628,2.07782 3.76552,2.95488 6.08525,3.30349 4.04567,0.75944 8.17747,0.59011 12.2726,0.68772 25.69544,0.20237 51.39214,0.0954 77.08782,-0.005 21.59449,-0.11911 43.1903,-0.2087 64.7819,-0.60046 2.19105,-0.0908 4.40192,-0.0211 6.57749,-0.30302 1.70059,-0.56131 2.86871,-2.10387 3.79712,-3.56485 1.29652,-2.22045 2.30629,-4.80095 2.02851,-7.41053 -0.51354,-2.75696 -2.24525,-5.07897 -4.08053,-7.12299 -0.55728,-0.6609 -1.11465,-1.32172 -1.67174,-1.9828 -54.23018,0 -108.46037,0 -162.69056,0 -0.1881,0.18771 -0.3762,0.37543 -0.56432,0.56313 z" /><path
         id="path1413"
         style="fill:#ffffff;stroke-width:3.76239"
         d="m 186.30409,96.697971 c -2.8743,1.987292 -6.06946,3.768589 -8.02328,6.768909 -2.32059,3.42539 -2.8212,7.78247 -2.31827,11.80626 0.59318,4.2333 2.74249,8.51683 6.53994,10.72441 1.95145,0.89633 4.16181,0.91175 6.26448,1.13966 8.31063,0.5718 16.64518,0.67751 24.97171,0.85522 24.87601,0.3919 49.75585,0.45319 74.63445,0.52504 33.13869,0.0545 66.27842,0.0584 99.41589,-0.26153 10.73076,-0.12305 21.4623,-0.32914 32.18622,-0.72591 2.79512,-0.18207 5.66367,-0.15795 8.35856,-1.00877 2.62464,-0.97238 4.29041,-3.42056 5.66304,-5.7252 2.04238,-3.40105 3.14421,-7.54924 2.1778,-11.47437 -0.91111,-3.99882 -3.63503,-7.27459 -6.62375,-9.95792 -1.05016,-0.999462 -2.10203,-1.99715 -3.15082,-2.998045 -79.86897,0 -159.73792,0 -239.60689,0 -0.16303,0.110749 -0.32605,0.221497 -0.48908,0.332246 z" /><path
         id="path1452"
         style="fill:#ff0000;stroke-width:3.76239"
         d="m 57.781012,102.83044 c -2.912492,0.12908 -5.401029,2.05087 -7.245553,4.16198 -1.688801,1.96822 -3.040879,4.67999 -2.204867,7.3052 1.07601,3.34016 3.743764,6.09655 6.941093,7.50275 1.85281,0.86212 4.048132,0.68485 5.82287,-0.28421 2.720416,-1.44415 5.02107,-3.82082 6.142521,-6.70609 0.877627,-2.13305 0.249829,-4.54964 -0.992084,-6.3995 -1.666345,-2.49344 -4.094881,-4.67434 -7.060713,-5.42808 -0.460388,-0.10256 -0.931298,-0.15933 -1.403267,-0.15205 z" /><path
         id="path1528"
         style="fill:#ffff00;stroke-width:3.76239"
         d="m 82.684299,103.07634 c -3.788793,0.0819 -7.150474,2.78266 -8.549752,6.2151 -1.235587,2.62411 -1.065657,5.91859 0.734959,8.24812 1.545411,2.05207 3.872956,3.3809 6.231588,4.29982 1.982856,0.77608 4.260506,0.38199 5.994278,-0.80487 2.410568,-1.5359 4.614192,-3.7138 5.3121,-6.56983 0.858855,-3.13514 -0.370515,-6.59472 -2.800428,-8.70015 -1.855424,-1.73105 -4.365445,-2.78398 -6.922745,-2.68819 z" /><path
         id="path1604"
         style="fill:#00ff00;stroke-width:3.76239"
         d="m 108.33625,102.80604 c -4.51262,0.0407 -8.412229,3.78815 -9.241986,8.10978 -0.784326,3.57114 0.839992,7.42261 3.783566,9.54184 1.82728,1.34719 4.21261,2.40879 6.50064,1.66437 2.99355,-0.90697 5.63411,-2.93363 7.38302,-5.51183 1.69547,-2.54334 1.22487,-5.90113 -0.0811,-8.5029 -1.48877,-3.17008 -4.81757,-5.35114 -8.34414,-5.30126 z" /><path
         id="path1680"
         style="fill:#00ff00;stroke-width:3.76239"
         d="m 214.81524,196.27225 c -3.96409,0.0945 -7.29507,4.18414 -6.45433,8.07693 0.64521,3.69982 5.04236,6.13467 8.5301,4.72289 2.03996,-0.78027 3.70452,-2.38953 4.83147,-4.229 0.81953,-1.48018 0.20575,-3.20722 -0.60729,-4.54327 -1.16684,-2.35203 -3.5977,-4.14123 -6.29995,-4.02755 z" /><path
         id="path1719"
         style="fill:#ffff00;stroke-width:3.76239"
         d="m 198.03999,196.17276 c -3.10078,-0.0266 -5.87345,2.49626 -6.34268,5.51947 -0.53704,2.50596 0.33218,5.5494 2.76868,6.74173 2.83008,1.3821 6.5746,0.79157 8.77324,-1.48291 1.81581,-1.95813 2.18444,-5.09833 0.74017,-7.36983 -1.21555,-2.05192 -3.54004,-3.42335 -5.93941,-3.40846 z" /><path
         id="path1795"
         style="fill:#ff0000;stroke-width:3.76239"
         d="m 180.99388,196.16526 c -2.43546,0.12686 -4.54594,1.8246 -5.79742,3.82177 -1.15711,1.91214 -0.74524,4.36789 0.44957,6.15875 0.67606,1.21165 1.7169,2.24871 3.08869,2.61666 2.34765,0.65172 5.09655,0.53479 7.13756,-0.90175 2.10853,-1.70888 2.46419,-4.81383 1.74151,-7.28561 -0.4457,-1.68542 -1.68208,-3.14258 -3.34988,-3.72067 -1.02361,-0.45696 -2.14314,-0.74213 -3.27003,-0.68915 z" /><path
         id="path163"
         style="fill:#000000;stroke-width:0.490274"
         d="M 313.47461 236.74023 C 308.31968 236.74023 307.08555 236.90178 304.86523 237.86523 C 293.52698 242.78527 282.35115 256.18071 272.30273 276.89648 C 266.85329 288.13102 264.87664 292.99097 265.36914 293.94531 C 265.62097 294.43331 267.82806 296.37629 270.27344 298.26367 C 279.20231 305.15509 288.50628 314.66551 296.625 325.20117 C 299.6639 329.14476 299.81456 329.26282 301.85156 329.29102 C 304.38254 329.32608 304.36863 329.25167 300.88281 324.23242 C 293.76034 313.97672 284.12439 302.5627 278.3418 297.53125 C 273.99356 293.74784 273.67379 293.22409 274.96094 291.98047 C 276.70337 290.29698 286.67404 287.11163 295.90234 285.29102 C 300.94126 284.29692 303.18683 284.15125 313.47461 284.15625 C 327.74596 284.16261 334.56414 285.25783 346.5625 289.4707 C 353.8785 292.0395 354.22012 293.03005 349.18164 297.05078 C 346.12035 299.49373 340.93161 305.05453 335.44141 311.77539 C 331.44121 316.67226 323.10352 328.23733 323.10352 328.88867 C 323.10352 329.12569 324.0231 329.30702 325.14844 329.29102 C 327.12082 329.26301 327.30764 329.11579 330.32422 325.20117 C 338.44294 314.66551 347.74691 305.15509 356.67578 298.26367 C 359.12117 296.37629 361.32825 294.43331 361.58008 293.94531 C 362.0781 292.98026 360.11517 288.17583 354.4082 276.39648 C 344.64465 256.24417 333.3127 242.73774 322.08398 237.86523 C 319.86367 236.90178 318.62953 236.74023 313.47461 236.74023 z M 313.47461 286.19336 C 305.37201 286.19336 302.48589 286.39745 297.34766 287.32812 C 293.90544 287.9516 290.90794 288.64136 290.6875 288.86133 C 290.16412 289.38358 291.53235 296.89364 293.08984 302.04688 C 295.00122 308.37092 297.86035 313.62894 301.43359 317.39062 C 304.86411 321.00205 306.38864 321.98639 310.21484 323.05469 C 313.38014 323.93845 313.13536 323.93259 316.65234 323.16797 C 324.02467 321.56516 330.16201 314.31109 333.67773 303.04102 C 335.40511 297.50369 336.88461 289.48441 336.28906 288.88867 C 336.05384 288.65338 333.04573 287.9516 329.60352 287.32812 C 324.46528 286.39745 321.5772 286.19336 313.47461 286.19336 z M 275.20703 305.35547 C 273.87695 305.35547 267.44635 310.54236 262.89648 315.28516 C 252.26321 326.36932 244.74355 341.1895 236.42578 367.45117 C 233.17042 377.72929 232.91491 380.0338 234.73047 382.80469 C 236.70471 385.81774 245.61478 389.97801 254.25977 391.92383 C 255.98087 392.31122 258.09257 392.65013 258.95312 392.67773 L 260.51758 392.72852 L 260.51758 390.00195 C 260.51758 386.20047 261.55672 385.24023 265.66406 385.24023 L 268.70117 385.24023 L 268.70117 380.29492 L 268.70117 375.34961 L 265.93359 376.09375 C 262.96618 376.89194 256.34021 379.57768 255.33008 380.39258 C 254.9927 380.66476 254.60994 380.77698 254.47852 380.64062 C 254.34711 380.50434 255.22978 379.44536 256.44141 378.28711 C 258.65721 376.16892 262.92175 373.77072 264.48828 373.76172 C 266.14968 373.7521 265.27706 372.87875 262.08203 371.35742 C 257.94773 369.38883 253.41646 368.62178 249.37891 369.20508 C 245.79194 369.72328 245.2439 369.56503 247.83398 368.75977 C 252.17205 367.41103 260.34263 367.57566 264.14258 369.08789 C 265.60992 369.67185 263.06331 365.55048 260.25586 362.79688 C 257.5569 360.14969 255.15738 358.72053 250.4082 356.93359 L 247.27734 355.75586 L 250.64844 356.04102 C 256.8417 356.5663 263.35138 358.87702 266.87695 361.80273 L 268.66211 363.28516 L 268.80273 347.75977 L 268.94336 332.23242 L 270.51562 330.77734 L 272.08594 329.32031 L 284.35547 329.32031 C 291.10334 329.32031 296.625 329.14834 296.625 328.9375 C 296.625 327.49794 276.51443 305.35547 275.20703 305.35547 z M 351.74219 305.35547 C 350.43479 305.35547 330.32422 327.49794 330.32422 328.9375 C 330.32422 329.14834 336.45002 329.32031 343.9375 329.32031 C 358.83297 329.32031 358.92818 329.33842 360.41602 332.32227 C 361.00212 333.49768 361.13672 336.26082 361.13672 347.23828 L 361.13672 360.71289 L 364.17383 359.28516 C 368.02913 357.47226 372.01807 356.40425 376.30078 356.04102 L 379.67188 355.75586 L 376.54297 356.93359 C 371.79379 358.72053 369.39231 360.14969 366.69336 362.79688 C 363.8859 365.55048 361.3393 369.67185 362.80664 369.08789 C 366.60659 367.57566 374.77718 367.41103 379.11523 368.75977 C 381.70531 369.56503 381.15921 369.72328 377.57227 369.20508 C 373.36514 368.59728 368.90701 369.40677 364.50586 371.58008 L 360.89648 373.36328 L 363.0957 373.95898 C 364.30595 374.28659 366.25686 375.14129 367.42969 375.85938 C 369.64873 377.21803 373.23701 380.74609 372.40039 380.74609 C 372.13663 380.74609 371.71444 380.55372 371.46289 380.31836 C 370.87626 379.76947 364.19755 376.97682 362.46094 376.55469 L 361.13672 376.23242 L 361.13672 380.73633 L 361.13672 385.24023 L 364.17383 385.24023 C 368.21794 385.24023 369.32031 386.2191 369.32031 389.81641 L 369.32031 392.35742 L 371.64453 392.03906 C 378.75885 391.06032 390.16381 385.94089 392.21875 382.80469 C 394.03431 380.0338 393.77879 377.72929 390.52344 367.45117 C 382.20567 341.1895 374.686 326.36932 364.05273 315.28516 C 359.50286 310.54236 353.07226 305.35547 351.74219 305.35547 z M 315.02539 331.31836 C 277.99291 331.31836 273.12815 331.40479 272.17969 332.09375 L 271.10938 332.87109 L 271.10938 359.05469 L 271.10938 385.24023 L 275.43164 385.24023 C 279.65411 385.24023 279.76243 385.21034 280.06055 383.97852 C 280.22845 383.28477 280.76048 382.49783 281.24219 382.23047 C 282.26535 381.66264 294.66916 381.58112 295.51172 382.13672 C 295.82614 382.34406 296.30723 383.12739 296.58203 383.87695 L 297.08203 385.24023 L 314.875 385.24023 C 332.22693 385.24023 332.67551 385.21509 332.97266 384.24414 C 333.67552 381.94755 334.35889 381.74414 341.39844 381.74414 C 348.43798 381.74414 349.12137 381.94755 349.82422 384.24414 C 350.09866 385.14084 350.55439 385.24023 354.42773 385.24023 L 358.72852 385.24023 L 358.72852 359.27734 C 358.72852 333.98063 358.70379 333.28936 357.76562 332.31641 C 356.81756 331.33315 356.16072 331.31836 315.02539 331.31836 z M 325.94531 336.36914 C 326.78226 336.36914 327.16955 336.40848 327.59961 336.54297 C 327.90839 336.63947 328.96637 336.84001 329.95117 336.98828 C 330.93596 337.13654 331.84769 337.29532 331.97656 337.33984 C 332.7386 337.60308 332.59287 338.61409 331.5332 340.41602 C 330.93255 341.43739 330.44032 342.05493 329.55469 342.89258 C 328.87064 343.53958 327.50217 344.47257 326.69336 344.84375 C 326.4496 344.95562 326.30455 345.07072 326.35352 345.11523 C 326.56482 345.30719 327.7467 345.49412 328.76953 345.49609 C 329.73844 345.49809 329.8962 345.47344 330.45117 345.24609 C 331.76666 344.70722 332.35581 343.66679 332.37695 341.84375 C 332.39095 340.6284 332.4694 340.56222 333.11328 341.21289 C 333.5714 341.67585 333.77558 342.13144 333.77734 342.69336 C 333.77934 343.34571 333.88536 343.69922 334.07812 343.69922 C 334.23079 343.69922 334.99564 343.27981 335.79688 342.75781 C 336.00924 342.61944 336.0338 342.62499 336.30078 342.85742 C 336.45472 342.99141 336.72025 343.33846 336.89062 343.62891 C 337.16484 344.09634 337.20043 344.23887 337.20312 344.87695 C 337.20612 345.49029 337.16134 345.69454 336.9043 346.24219 C 336.73811 346.59619 336.43752 347.11311 336.23633 347.39062 C 335.75726 348.05139 334.41129 349.27373 333.44727 349.92383 C 332.62149 350.48069 331.05339 351.23963 330.42188 351.38867 C 330.20801 351.43917 329.81616 351.53741 329.54883 351.60742 C 329.2815 351.67742 327.92529 351.93364 326.53516 352.17773 C 323.30422 352.74504 322.52227 352.97949 321.08984 353.80859 C 320.82251 353.96333 320.29906 354.22598 319.92578 354.39258 C 318.83077 354.88128 318.01895 354.81532 315.36328 354.02539 C 314.88622 353.88349 314.39037 353.76758 314.26367 353.76758 C 314.13697 353.76758 313.50035 353.92479 312.84766 354.11523 C 309.82432 354.99741 309.52336 355.01471 308.15234 354.38867 C 307.62242 354.1467 306.83983 353.7686 306.41211 353.54883 C 305.58526 353.12399 304.28547 352.72183 303.00977 352.49805 C 302.58204 352.42295 301.53125 352.24037 300.67578 352.08984 C 297.31453 351.49836 295.77208 350.86644 293.78125 349.26953 C 292.74525 348.43852 292.01968 347.62101 291.51367 346.71484 C 291.09339 345.9622 291.04812 345.82388 291.01758 345.16406 C 290.98758 344.51562 291.0152 344.37988 291.26953 343.87109 C 291.57764 343.25394 292.11549 342.68727 292.29883 342.78906 C 292.36123 342.82376 292.78258 343.08179 293.23438 343.36328 C 294.34163 344.05316 294.40625 344.04758 294.40625 343.23047 C 294.40625 342.30663 294.61832 341.73449 295.13867 341.26172 C 295.79419 340.66613 295.85284 340.71078 295.84375 341.78516 C 295.83575 342.79322 295.96502 343.43193 296.31445 344.09766 C 296.63219 344.70306 296.80219 344.86324 297.47266 345.20312 C 298.00622 345.4736 298.1333 345.50028 299.10156 345.53711 C 300.174 345.57801 301.46875 345.43941 301.74805 345.25391 C 301.8727 345.17101 301.83783 345.12648 301.5293 344.97852 C 300.15331 344.31882 298.59996 343.09541 297.66602 341.93359 C 296.34114 340.28547 295.52065 338.44634 295.82031 337.79883 C 295.97801 337.45807 296.23784 337.37943 298.04297 337.11719 C 298.89421 336.99352 300.1166 336.7695 300.75781 336.61914 C 302.67423 336.16978 303.25741 336.28677 306.2168 337.7207 C 308.46963 338.81228 309.68757 339.17958 312.58398 339.64258 C 313.70322 339.82151 314.16007 339.80769 315.79297 339.54102 C 318.65105 339.07415 320.18456 338.5803 322.56836 337.35938 C 323.03928 337.11819 323.746 336.79636 324.13867 336.64453 C 324.79644 336.39022 324.93874 336.36914 325.94531 336.36914 z M 337.61719 348.27148 L 337.64844 348.60352 C 337.70554 349.21511 337.38268 350.23489 336.79688 351.29492 C 336.18096 352.40942 335.24627 353.76336 332.79297 357.09375 C 329.69819 361.29497 327.32107 365.22808 325.88867 368.52148 C 325.72052 368.90811 325.55064 369.22461 325.51172 369.22461 C 325.47282 369.22461 325.41397 369.0767 325.38086 368.89453 C 325.14838 367.61667 325.5253 366.00586 326.55469 363.88086 C 327.33005 362.28026 329.22258 358.79495 329.79297 357.91602 C 329.95247 357.67025 330.08203 357.44521 330.08203 357.41406 C 330.08203 357.27189 332.94159 352.78488 333.33594 352.30859 C 333.45723 352.16207 334.01463 351.79913 334.57422 351.5 C 335.54588 350.98061 336.30437 350.36277 336.61914 349.83594 C 336.68624 349.72356 336.93909 349.32511 337.17969 348.95117 L 337.61719 348.27148 z M 290.66016 348.35156 C 290.7252 348.33619 290.89438 348.60722 291.34375 349.32617 C 291.96568 350.31984 292.67092 350.95946 293.80078 351.55273 C 294.88955 352.12442 294.92394 352.15821 295.82031 353.5918 C 295.98735 353.85899 296.28875 354.33658 296.49219 354.65234 C 297.21175 355.76919 298.02673 357.09243 298.60938 358.0957 C 299.26231 359.22001 301.21094 362.7544 301.21094 362.81445 C 301.21094 362.83535 301.338 363.10511 301.49414 363.41211 C 302.17036 364.7416 302.71504 366.18815 302.87305 367.07812 C 302.99632 367.77238 302.95067 369.00478 302.79688 369.14453 C 302.73498 369.20083 302.59541 368.99088 302.39844 368.54297 C 301.83455 367.26064 301.32096 366.24405 300.34375 364.48633 C 298.85081 361.80094 297.83096 360.27997 294.34766 355.52734 C 292.92604 353.58766 291.87552 352.05182 291.53711 351.42188 C 290.95677 350.34157 290.61221 349.30656 290.61719 348.6543 C 290.61869 348.47441 290.62113 348.36079 290.66016 348.35156 z M 319.81055 350.07812 C 319.2371 350.09318 318.29867 350.24069 317.64453 350.43945 C 316.728 350.71792 316.73613 350.87357 317.69531 351.46484 C 318.95061 352.23868 319.56456 352.3852 320.29688 352.08203 C 320.58099 351.96441 320.84811 351.47795 320.8418 351.09375 C 320.8338 350.67467 320.54986 350.20886 320.23828 350.10938 C 320.15194 350.08181 320.0017 350.07311 319.81055 350.07812 z M 308.07617 350.12305 C 307.75033 350.17955 307.57292 350.41328 307.4375 350.96484 C 307.16387 352.07925 308.31667 352.66492 309.61914 352.07227 C 309.97689 351.90947 311.32031 351.05021 311.32031 350.98438 C 311.32031 350.82537 311.15154 350.66965 310.89844 350.59375 C 310.25085 350.39957 308.33027 350.07892 308.07617 350.12305 z M 300.4668 353.33789 C 301.06949 353.32691 302.27986 353.42016 302.86328 353.54688 C 304.17774 353.83176 305.60682 354.25623 305.68164 354.38477 C 305.72434 354.45817 305.81022 355.03644 305.87305 355.66797 C 306.14597 358.41138 306.3854 359.74977 306.79492 360.82812 C 306.9319 361.18881 307.04297 361.51657 307.04297 361.55664 C 307.04297 361.7122 306.77122 361.6134 306.07031 361.20117 C 304.61805 360.34715 302.15123 357.65752 301.07031 355.75195 C 300.57226 354.87393 300.02201 353.51804 300.11133 353.38672 C 300.13145 353.35713 300.2659 353.34155 300.4668 353.33789 z M 327.62891 353.33984 C 327.84171 353.35609 327.97761 353.39282 328.00391 353.45508 C 328.08201 353.63998 327.69666 354.65403 327.19922 355.56836 C 326.80765 356.28808 325.9275 357.49743 324.91016 358.71484 C 324.43344 359.28532 322.34487 361.1875 322.19531 361.1875 C 322.13881 361.1875 321.97589 361.26081 321.83398 361.35156 C 321.46623 361.5868 321.13809 361.66998 321.14062 361.52539 C 321.14154 361.46139 321.25081 361.13097 321.38281 360.79102 C 321.73521 359.88352 321.9856 358.55776 322.20898 356.41797 C 322.318 355.37353 322.42783 354.4596 322.45312 354.38672 C 322.49492 354.2664 322.88955 354.14175 324.58984 353.71094 C 325.6674 353.43792 326.99051 353.29111 327.62891 353.33984 z M 320.4375 368.47461 L 320.50586 368.91602 C 320.54296 369.15892 320.61615 369.496 320.66992 369.66602 C 320.72372 369.83604 320.79203 370.63471 320.82031 371.43945 L 320.87109 372.90234 L 320.48633 373.86719 C 320.04855 374.96322 319.52026 375.71095 318.53125 376.63086 C 317.921 377.19848 317.83152 377.2464 317.00781 377.47656 C 316.52661 377.61102 315.72763 377.83769 315.23242 377.97852 C 314.73721 378.11936 314.21281 378.23034 314.06641 378.22656 C 313.92002 378.22256 313.23022 378.06091 312.53516 377.86719 C 310.27934 377.23851 310.01746 377.12865 309.46484 376.57031 C 308.7565 375.85462 308.16574 375.07888 307.93945 374.56836 C 307.25455 373.02321 307.28506 373.15849 307.30078 371.78711 C 307.31478 370.56104 307.63097 368.37764 307.74805 368.69531 C 307.77485 368.76821 307.87321 369.06595 307.9668 369.35742 C 308.33142 370.49312 309.04849 371.57361 310.09961 372.57031 C 311.47834 373.87768 312.9159 374.61328 314.09375 374.61328 C 315.44284 374.61328 317.49845 373.37056 318.83594 371.74805 C 319.36564 371.10546 320.0606 369.8121 320.26367 369.0918 L 320.4375 368.47461 z M 282.42188 383.99023 L 282.26953 385.91602 C 282.18568 386.97465 282.23599 388.1612 282.38086 388.55273 C 282.59314 389.12632 283.79037 389.23812 288.55078 389.125 L 294.45898 388.98438 L 294.45898 386.48828 L 294.45898 383.99023 L 288.43945 383.99023 L 282.42188 383.99023 z M 335.37891 383.99023 L 335.22656 385.91602 C 335.14271 386.97465 335.19303 388.1612 335.33789 388.55273 C 335.55017 389.12632 336.7474 389.23812 341.50781 389.125 L 347.41602 388.98438 L 347.41602 386.48828 L 347.41602 383.99023 L 341.39844 383.99023 L 335.37891 383.99023 z M 271.6875 387.48633 C 267.26455 387.48633 263.37591 387.66847 263.04492 387.89062 C 262.26797 388.41209 262.24967 393.32651 263.02148 394.12695 C 263.78792 394.92172 365.03393 395.0021 366.46289 394.20898 C 367.20724 393.79585 367.39453 393.14962 367.39453 390.99219 C 367.39453 389.50773 367.1551 388.13944 366.86133 387.95117 C 366.56756 387.76288 362.67715 387.58077 358.2168 387.54688 C 350.26183 387.48647 350.10203 387.50655 349.84375 388.57422 C 349.2581 390.99515 348.51488 391.23066 341.48438 391.22266 C 337.86248 391.21846 334.63789 391.04265 334.31836 390.83203 C 333.99884 390.62143 333.45572 389.7837 333.11328 388.96875 L 332.49023 387.48633 L 314.79688 387.48633 L 297.10156 387.48633 L 296.59961 389.06445 C 296.32339 389.93263 295.7654 390.77592 295.35938 390.9375 C 294.95335 391.09914 291.72935 391.23047 288.19531 391.23047 C 281.33899 391.23047 280.57786 390.98394 279.99414 388.57422 C 279.73639 387.51006 279.54905 387.48633 271.6875 387.48633 z " /><ellipse
         style="fill:#ff0000;stroke-width:1.73252"
         id="path596"
         cx="302.43704"
         cy="292.94183"
         rx="6.8689032"
         ry="3.0152574" /><ellipse
         style="fill:#ff0000;stroke-width:1.73252"
         id="path596-3"
         cx="324.14359"
         cy="292.79779"
         rx="6.8689032"
         ry="3.0152574" /></g></g></svg>
