<?xml version="1.0" encoding="UTF-8" standalone="no"?>
<!-- Created with Inkscape (http://www.inkscape.org/) -->

<svg
   version="1.1"
   id="svg870"
   width="512"
   height="512"
   viewBox="0 0 512 512"
   sodipodi:docname="bittwist.svg"
   inkscape:version="1.2.2 (b0a8486541, 2022-12-01)"
   inkscape:export-filename="../GIT Icons/bittwist.png"
   inkscape:export-xdpi="96"
   inkscape:export-ydpi="96"
   xmlns:inkscape="http://www.inkscape.org/namespaces/inkscape"
   xmlns:sodipodi="http://sodipodi.sourceforge.net/DTD/sodipodi-0.dtd"
   xmlns="http://www.w3.org/2000/svg"
   xmlns:svg="http://www.w3.org/2000/svg">
  <defs
     id="defs874" />
  <sodipodi:namedview
     id="namedview872"
     pagecolor="#505050"
     bordercolor="#eeeeee"
     borderopacity="1"
     inkscape:pageshadow="0"
     inkscape:pageopacity="0"
     inkscape:pagecheckerboard="0"
     showgrid="false"
     inkscape:zoom="0.79019183"
     inkscape:cx="232.85485"
     inkscape:cy="261.96171"
     inkscape:window-width="1366"
     inkscape:window-height="705"
     inkscape:window-x="0"
     inkscape:window-y="0"
     inkscape:window-maximized="1"
     inkscape:current-layer="g876"
     inkscape:showpageshadow="0"
     inkscape:deskcolor="#505050" />
  <g
     inkscape:groupmode="layer"
     inkscape:label="Image"
     id="g876">
    <g
       id="g964">
      <path
         id="path978-6"
         style="fill:#ffffff;stroke-width:1.21986"
         d="m 248.83463,14.004705 c -4.74761,0.192966 -8.94724,2.616843 -13.32656,4.162012 -58.90969,23.094354 -117.84367,46.12999 -176.70489,69.343866 -6.200558,2.468822 -12.425255,4.883558 -18.574252,7.476295 -4.62496,2.221683 -8.089278,6.602302 -9.311574,11.538622 -3.582783,2.94668 -5.614009,7.45239 -6.130913,11.98626 -0.446814,4.38042 0.213478,8.76679 0.397142,13.11912 1.539457,22.13814 3.572534,44.22997 5.324889,66.34717 3.650964,44.03107 7.200832,88.07068 10.925888,132.0955 0.58438,5.53129 1.01586,11.18399 3.013949,16.42901 1.040648,2.33308 2.604835,4.43316 4.534548,6.11805 0.808106,4.78903 3.893725,8.93896 7.765917,11.79089 3.131988,2.41918 6.414182,4.63931 9.60298,6.98382 21.455023,15.33889 43.156276,30.32841 64.810046,45.38909 34.90392,24.20373 69.88563,48.29376 105.01204,72.18103 3.34263,2.236 6.90743,4.40378 10.46622,6.09897 1.91835,0.97995 3.83674,1.95985 5.75507,2.93986 1.26899,-1.17252 2.53058,-2.35292 3.80645,-3.51806 4.59216,1.28717 9.61553,0.3647 13.69224,-2.00501 3.98453,-2.10645 7.53161,-4.90935 11.32277,-7.32355 27.61219,-18.70192 54.97955,-37.75547 82.39559,-56.74162 29.29252,-20.32994 58.56555,-40.69115 87.59284,-61.39434 2.87288,-2.11256 5.88562,-4.16881 8.11513,-6.98376 1.65438,-2.14368 2.88161,-4.63399 3.43044,-7.28591 4.71011,-3.79091 7.25143,-9.80868 7.37054,-15.75867 0.82688,-12.05958 1.88617,-24.18276 2.87454,-36.26631 4.09995,-49.26509 8.46555,-98.52722 12.52362,-147.80222 0.74956,-9.49533 1.58959,-18.99178 1.84542,-28.51579 0.0264,-3.21723 -0.39206,-6.42183 -0.85325,-9.60042 -0.29247,-2.28288 -1.12352,-4.48149 -2.44535,-6.37476 -0.48042,-0.7571 -1.11872,-1.41711 -1.67031,-2.10547 -1.72078,-5.46258 -6.2312,-9.80211 -11.53991,-11.884798 C 463.13796,90.91191 455.17844,87.93946 447.30215,84.780994 408.65582,69.57055 369.92442,54.571354 331.22286,39.497936 310.07585,31.275739 288.9337,23.039337 267.76658,14.868679 c -3.81191,-1.332663 -8.07716,-1.059736 -11.81851,0.373167 -2.25319,-0.888839 -4.68934,-1.314659 -7.11344,-1.237141 z m 8.41126,218.311075 c 1.05323,0.0938 1.07852,1.75139 0.0818,1.97786 -0.99802,0.26884 -1.77114,-1.45824 -0.69096,-1.85958 0.19496,-0.0755 0.39641,-0.14254 0.60917,-0.11828 z" />
      <path
         style="fill:#0000ff;stroke-width:1.21986"
         d="M 311.97441,148.73076 260.90127,127.25521 V 79.812737 c 0,-37.492036 0.32859,-47.31286 1.56667,-46.824519 0.86165,0.339889 36.81651,14.330686 79.89969,31.090683 122.69953,47.731929 124.29244,48.369709 123.21703,49.333969 -1.54483,1.38513 -101.0605,56.94714 -101.84948,56.86502 -0.3782,-0.0394 -23.67054,-9.73556 -51.76077,-21.54713 z"
         id="path952" />
      <path
         style="fill:#0000ff;stroke-width:1.21986"
         d="M 111.75517,149.5071 C 91.419919,138.16479 68.362376,125.31883 60.516189,120.96053 c -9.846313,-5.4693 -13.727482,-8.20957 -12.528159,-8.84537 0.955684,-0.50665 34.447188,-13.731853 74.42555,-29.389323 39.97837,-15.657487 84.5319,-33.118975 99.00785,-38.803342 14.47594,-5.684359 27.03127,-10.611342 27.90073,-10.948863 1.26011,-0.489168 1.51439,9.211291 1.25333,47.812418 l -0.3275,48.42611 -50.01028,20.56864 c -27.50562,11.31276 -50.34753,20.51917 -50.7598,20.45868 -0.41225,-0.0605 -17.38747,-9.39005 -37.72274,-20.73238 z"
         id="path950" />
      <path
         style="fill:#0000ae;stroke-width:1.21986;fill-opacity:1"
         d="m 208.01752,202.02935 c -26.67343,-14.52195 -48.82328,-26.71254 -49.22193,-27.09016 -0.39863,-0.37764 21.57538,-9.87434 48.83115,-21.1038 l 49.55592,-20.41717 43.53249,18.62873 c 23.94286,10.2458 45.69426,19.65737 48.33646,20.91458 l 4.80399,2.28585 -7.93732,4.45621 c -4.36551,2.45091 -18.93526,10.50771 -32.3772,17.90399 -13.44195,7.39629 -31.53727,17.3788 -40.21181,22.18334 -8.67455,4.80453 -16.00653,8.7145 -16.29327,8.68878 -0.28677,-0.0258 -22.34507,-11.92836 -49.01848,-26.45035 z"
         id="path948" />
      <path
         style="fill:#0000ff;stroke-width:1.21986"
         d="m 406.5703,318.34832 -42.95693,-22.74022 0.68458,-11.87286 c 0.37651,-6.53008 1.51941,-32.95893 2.53978,-58.73079 1.34527,-33.97829 2.2851,-47.23759 3.41916,-48.23914 0.86017,-0.75966 23.55988,-13.47312 50.44377,-28.25215 l 48.87982,-26.87094 0.38215,3.44157 c 0.21016,1.89286 -1.33821,23.40401 -3.44085,47.8025 -9.91367,115.03539 -13.86124,162.05756 -13.86124,165.11058 0,1.9272 -0.6577,3.27344 -1.56666,3.2067 -0.86167,-0.0633 -20.89727,-10.34812 -44.52358,-22.85525 z"
         id="path946" />
      <path
         style="fill:#0000ff;stroke-width:1.21986"
         d="M 58.115222,323.21249 C 56.304666,300.48068 47.33587,191.3963 44.04216,152.04676 c -1.361848,-16.27005 -2.24991,-29.79618 -1.973448,-30.05808 0.276472,-0.2619 23.607305,12.1626 51.846296,27.60999 l 51.343632,28.08615 0.78138,22.15578 c 0.42975,12.18568 1.1459,38.75827 1.59146,59.05021 l 0.81007,36.89441 -16.77652,8.72916 c -9.2271,4.80103 -28.79882,15.04604 -43.492732,22.76668 -14.693901,7.72065 -27.143408,14.03753 -27.665576,14.03753 -0.522148,0 -1.598331,-8.14774 -2.3915,-18.1061 z"
         id="path944" />
      <path
         style="fill:#0000ae;stroke-width:1.21986;fill-opacity:1"
         d="m 260.90127,294.39158 v -55.23802 l 5.32666,-3.00337 c 2.92964,-1.65187 12.37661,-6.93487 20.99324,-11.74002 58.11479,-32.40831 73.34103,-40.78251 73.63891,-40.50032 0.18549,0.17572 -0.63492,25.80247 -1.82317,56.94834 l -2.16042,56.62885 -47.29694,26.07128 c -26.01334,14.3392 -47.60776,26.07128 -47.98762,26.07128 -0.37986,0 -0.69066,-24.85711 -0.69066,-55.23802 z"
         id="path942" />
      <path
         style="fill:#0000ae;stroke-width:1.21986;fill-opacity:1"
         d="m 224.52297,335.62149 c -13.45941,-7.64121 -34.75032,-19.68548 -47.31315,-26.76503 l -22.84147,-12.87192 v -55.10018 c 0,-30.30511 0.423,-55.07995 0.94,-55.05522 0.517,0.0247 22.08991,11.67477 47.93982,25.889 l 46.99982,25.84407 0.32559,56.03368 c 0.17909,30.81855 -0.10289,56.00783 -0.62665,55.9762 -0.52376,-0.0316 -11.96453,-6.30938 -25.42396,-13.9506 z"
         id="path940" />
      <path
         style="fill:#0000ff;stroke-width:1.21986"
         d="m 261.20302,419.43521 0.32492,-59.60853 30.07989,-17.5648 c 16.54393,-9.66065 38.0092,-22.12464 47.7006,-27.69777 l 17.62072,-10.13295 44.04915,22.89603 c 24.22705,12.59283 44.17106,23.42237 44.32006,24.06567 0.22882,0.98793 -182.19903,127.65087 -183.85073,127.65087 -0.31324,0 -0.42333,-26.82383 -0.24461,-59.60852 z"
         id="path938" />
      <path
         style="fill:#0000ff;stroke-width:1.21986"
         d="m 157.62575,415.71638 c -50.25289,-34.71522 -91.339441,-63.61481 -91.30342,-64.22133 0.036,-0.60653 19.865993,-11.4619 44.06665,-24.12303 l 44.00116,-23.02027 43.54228,25.12586 c 23.94824,13.8192 45.65725,26.41855 48.24224,27.99855 l 4.69998,2.87271 v 59.34742 c 0,32.64109 -0.42299,59.30046 -0.94,59.24305 -0.51699,-0.0575 -42.05599,-28.50774 -92.30889,-63.22296 z"
         id="path978" />
    </g>
  </g>
</svg>
