<?xml version="1.0" encoding="UTF-8" standalone="no"?>
<svg
   viewBox="0 0 512 512"
   version="1.1"
   id="svg255"
   width="512"
   height="512"
   sodipodi:docname="braa.svg"
   inkscape:version="1.2.2 (b0a8486541, 2022-12-01)"
   xmlns:inkscape="http://www.inkscape.org/namespaces/inkscape"
   xmlns:sodipodi="http://sodipodi.sourceforge.net/DTD/sodipodi-0.dtd"
   xmlns="http://www.w3.org/2000/svg"
   xmlns:svg="http://www.w3.org/2000/svg"
   xmlns:rdf="http://www.w3.org/1999/02/22-rdf-syntax-ns#"
   xmlns:cc="http://creativecommons.org/ns#"
   xmlns:dc="http://purl.org/dc/elements/1.1/">
  <sodipodi:namedview
     id="namedview924"
     pagecolor="#505050"
     bordercolor="#eeeeee"
     borderopacity="1"
     inkscape:pageshadow="0"
     inkscape:pageopacity="0"
     inkscape:pagecheckerboard="0"
     showgrid="false"
     inkscape:zoom="0.87304688"
     inkscape:cx="221.63758"
     inkscape:cy="241.68233"
     inkscape:window-width="1366"
     inkscape:window-height="705"
     inkscape:window-x="0"
     inkscape:window-y="26"
     inkscape:window-maximized="1"
     inkscape:current-layer="svg255"
     inkscape:showpageshadow="0"
     inkscape:deskcolor="#505050" />
  <metadata
     id="metadata259">
    <rdf:RDF>
      <cc:Work
         rdf:about="">
        <dc:format>image/svg+xml</dc:format>
        <dc:type
           rdf:resource="http://purl.org/dc/dcmitype/StillImage" />
      </cc:Work>
    </rdf:RDF>
  </metadata>
  <defs
     id="defs4">
    <style
       id="style2">.cls-1,.cls-3,.cls-5,.cls-6,.cls-8,.cls-9{fill:none;}.cls-1{stroke:#d62027;}.cls-1,.cls-3,.cls-5,.cls-9{stroke-linecap:round;stroke-linejoin:round;}.cls-1,.cls-3,.cls-5,.cls-8{stroke-width:2px;}.cls-2{fill:#d62027;}.cls-3,.cls-8,.cls-9{stroke:#3e4c70;}.cls-4{fill:#3e4c70;}.cls-5{stroke:#158aff;}.cls-7{fill:#158aff;}.cls-8{stroke-miterlimit:10;}.cls-9{stroke-width:3.7px;}</style>
  </defs>
  <g
     id="g358"
     transform="translate(-1.335144e-5,1.8027691e-5)">
    <path
       id="path1329"
       style="fill:#00ff00;stroke-width:1.47295"
       d="m 374.70117,410.91992 c -9.25787,0.34989 -18.0287,6.79875 -20.95312,15.61524 -1.7844,5.50842 -1.00985,11.79658 2.19114,16.6403 4.41884,6.89536 12.78872,10.96237 20.9384,10.28173 6.6471,-0.44281 13.17525,-3.73959 17.05378,-9.22885 3.6189,-4.86806 4.99061,-11.45937 3.11934,-17.28626 -2.02459,-6.49734 -7.16599,-11.88812 -13.43548,-14.46356 -2.822,-1.12502 -5.87613,-1.67488 -8.91406,-1.5586 z" />
    <path
       id="path1290"
       style="fill:#00ff00;stroke-width:1.47295"
       d="m 255.30078,451.49219 c -6.45862,0.0438 -12.6576,3.27715 -16.79974,8.16229 -1.97806,2.1329 -3.15766,4.86029 -3.81397,7.6664 -1.03734,4.0803 -1.48599,8.37171 -0.89227,12.55568 0.84287,4.72897 3.68564,8.89212 7.15128,12.12 4.72901,4.34609 11.45723,6.18309 17.77468,5.35218 6.93992,-0.8478 13.51881,-4.91126 16.99347,-11.03753 2.02978,-3.43121 2.52447,-7.48749 2.66226,-11.39985 0.0839,-4.20395 -0.54463,-8.56304 -2.7447,-12.21845 -2.60105,-4.615 -6.94687,-8.23329 -12.01417,-9.82275 -2.66704,-0.92038 -5.49138,-1.42529 -8.31684,-1.37797 z" />
    <path
       id="path1251"
       style="fill:#00ff00;stroke-width:1.47295"
       d="m 136.05078,410.74023 c -7.61172,0.38648 -15.05601,4.67375 -18.74464,11.42168 -3.70771,6.53563 -3.62042,15.14166 0.5815,21.43266 4.5941,7.05908 13.44823,10.8969 21.75103,9.75113 7.84408,-0.98628 15.28023,-5.99755 18.4667,-13.33533 2.33718,-5.24659 2.0585,-11.56166 -0.75771,-16.57287 -3.78863,-7.03983 -11.24216,-12.08013 -19.25053,-12.66042 -0.68141,-0.043 -1.36378,-0.0631 -2.04635,-0.0369 z" />
    <path
       id="path1368"
       style="fill:#00ff00;stroke-width:1.47295"
       d="m 374.61914,53.585938 c -9.10389,0.341876 -17.83481,6.499774 -20.79034,15.187735 -2.02118,5.717159 -1.13402,12.326149 2.24623,17.35108 3.12772,4.806376 8.28851,8.091534 13.85434,9.309214 8.04423,1.862076 17.08116,-0.611096 22.71675,-6.736018 4.70587,-5.038371 6.70651,-12.709115 4.31792,-19.27793 -2.07907,-6.001959 -6.6927,-11.028465 -12.35662,-13.849707 -3.09773,-1.480856 -6.56327,-2.133903 -9.98828,-1.984374 z" />
    <path
       id="path1407"
       style="fill:#00ff00;stroke-width:1.47295"
       d="m 255.19922,13.40625 c -7.67803,0.282699 -15.14222,4.664633 -18.97199,11.348298 -2.47489,4.517216 -2.60518,9.823366 -2.55238,14.848307 0.038,2.992477 0.82228,5.994467 2.46368,8.509764 2.76127,4.635279 7.16257,8.453637 12.41626,9.907108 1.53192,0.414256 3.14474,0.293512 4.65821,-0.124068 2.51424,-0.424442 5.10867,-0.27191 7.57216,0.356294 3.23278,0.402607 6.2045,-1.398683 8.6875,-3.257812 3.95997,-3.020896 7.28792,-7.187175 8.45117,-12.103516 0.72044,-3.642451 0.24733,-7.372318 0.0351,-11.041016 -0.27398,-3.074317 -1.22291,-6.130665 -3.10097,-8.613096 -4.15694,-6.046602 -11.35216,-9.899621 -18.70915,-9.840971 -0.31663,-0.0088 -0.63308,0.0057 -0.94964,0.01071 z" />
    <path
       id="path1446"
       style="fill:#00ff00;stroke-width:1.47295"
       d="m 135.94531,53.537109 c -7.2566,0.159397 -14.20204,4.156694 -18.25121,10.137249 -1.74753,2.326705 -2.75058,5.194055 -2.74683,8.110798 -0.11305,3.088418 -0.18266,6.211334 0.29177,9.272974 0.73764,3.484931 2.87708,6.536371 5.41776,8.963973 4.25537,3.869061 10.01448,5.86707 15.71468,6.076414 5.6287,0.178608 11.37501,-1.66015 15.59698,-5.446113 4.82778,-4.112474 7.73361,-10.517398 7.20677,-16.885547 -0.4542,-6.474199 -4.2617,-12.448119 -9.579,-16.065454 -3.96253,-2.774303 -8.80097,-4.326677 -13.65092,-4.164294 z" />
    <line
       class="cls-5"
       x1="256.31808"
       y1="181.50677"
       x2="256.31808"
       y2="64.267494"
       id="line102"
       style="fill:none;stroke:#158aff;stroke-width:12.093px;stroke-linecap:round;stroke-linejoin:round" />
    <path
       class="cls-7"
       d="m 256.31811,16.897241 a 18.448651,17.333793 0 0 1 18.44865,17.93151 19.084811,17.93151 0 1 1 -37.53346,0 18.448651,17.333793 0 0 1 19.08481,-17.93151 m 0,-11.95434 a 31.808018,29.88585 0 0 0 -31.80802,29.88585 31.808018,29.88585 0 1 0 62.97988,0 31.171858,29.288133 0 0 0 -31.17186,-29.88585 z"
       id="path104"
       style="fill:#158aff;stroke-width:6.16639" />
    <polyline
       class="cls-3"
       points="196.9 320 203.4 326.6 203.4 334.8"
       id="polyline106"
       style="fill:none;stroke:#3e4c70;stroke-width:2px;stroke-linecap:round;stroke-linejoin:round"
       transform="matrix(6.3616037,0,0,5.97717,-1096.795,-1819.8871)" />
    <path
       class="cls-4"
       d="m 136.71996,56.94428 a 18.448651,17.333793 0 0 1 13.35937,5.379453 19.084811,17.93151 0 0 1 0,25.701831 20.357132,19.126944 0 0 1 -26.71874,0 19.084811,17.93151 0 0 1 0,-25.701831 18.448651,17.333793 0 0 1 13.35937,-5.379453 m 0,-11.95434 a 32.444179,30.483567 0 0 0 -22.26562,8.965755 31.808018,29.88585 0 1 0 44.53123,0 32.444179,30.483567 0 0 0 -22.26561,-8.965755 z"
       id="path108"
       style="fill:#3e4c70;stroke-width:6.16639" />
    <polyline
       class="cls-3"
       points="228.4 320 221.9 326.6 221.9 334.8"
       id="polyline110"
       style="fill:none;stroke:#3e4c70;stroke-width:2px;stroke-linecap:round;stroke-linejoin:round"
       transform="matrix(6.3616037,0,0,5.97717,-1096.795,-1819.8871)" />
    <path
       class="cls-4"
       d="m 375.2801,56.94428 a 18.448651,17.333793 0 0 1 13.35936,5.379453 19.084811,17.93151 0 0 1 0,25.701831 20.357132,19.126944 0 0 1 -13.35936,4.781736 21.629453,20.322378 0 0 1 -13.35937,-4.781736 19.084811,17.93151 0 0 1 0,-25.701831 19.084811,17.93151 0 0 1 13.35937,-5.379453 m 0,-11.95434 a 32.444179,30.483567 0 0 0 -22.26562,8.965755 31.808018,29.88585 0 1 0 44.53123,0 32.444179,30.483567 0 0 0 -22.26561,-8.965755 z"
       id="path112"
       style="fill:#3e4c70;stroke-width:6.16639" />
    <line
       class="cls-5"
       x1="256.31808"
       y1="328.30777"
       x2="256.31808"
       y2="447.25342"
       id="line114"
       style="fill:none;stroke:#158aff;stroke-width:12.3328px;stroke-linecap:round;stroke-linejoin:round" />
    <path
       class="cls-7"
       d="m 256.31811,455.0238 a 18.448651,17.333793 0 0 1 18.44865,17.93151 19.084811,17.93151 0 1 1 -37.53346,0 18.448651,17.333793 0 0 1 19.08481,-17.93151 m 0,-11.95434 a 31.808018,29.88585 0 0 0 -31.80802,29.88585 31.808018,29.88585 0 1 0 62.97988,0 31.171858,29.288133 0 0 0 -31.17186,-29.88585 z"
       id="path116"
       style="fill:#158aff;stroke-width:6.16639" />
    <polyline
       class="cls-3"
       points="228.6 374 221.9 367.3 221.9 359.4"
       id="polyline118"
       style="fill:none;stroke:#3e4c70;stroke-width:2px;stroke-linecap:round;stroke-linejoin:round"
       transform="matrix(6.3616037,0,0,5.97717,-1096.795,-1819.8871)" />
    <path
       class="cls-4"
       d="m 375.2801,414.37905 a 19.084811,17.93151 0 0 1 0,35.86302 19.084811,17.93151 0 0 1 -13.35937,-5.37946 18.448651,17.333793 0 0 1 0,-25.10411 19.084811,17.93151 0 0 1 13.35937,-5.37945 m 0,-11.95434 a 29.899537,28.092699 0 0 0 -22.26562,8.96575 30.535698,28.690416 0 0 0 0,41.84019 30.535698,28.690416 0 0 0 44.53123,0 30.535698,28.690416 0 0 0 0,-41.84019 29.899537,28.092699 0 0 0 -22.26561,-8.96575 z"
       id="path120"
       style="fill:#3e4c70;stroke-width:6.16639" />
    <polyline
       class="cls-3"
       points="196.9 373.8 203.4 367.3 203.4 359.4"
       id="polyline122"
       style="fill:none;stroke:#3e4c70;stroke-width:2px;stroke-linecap:round;stroke-linejoin:round"
       transform="matrix(6.3616037,0,0,5.97717,-1096.795,-1819.8871)" />
    <path
       class="cls-4"
       d="m 136.71996,414.37905 a 19.084811,17.93151 0 1 1 -13.35937,5.37945 18.448651,17.333793 0 0 1 13.35937,-5.37945 m 0,-11.95434 a 31.808018,29.88585 0 1 0 22.26561,50.80594 30.535698,28.690416 0 0 0 0,-41.84019 29.899537,28.092699 0 0 0 -22.26561,-8.96575 z"
       id="path124"
       style="fill:#3e4c70;stroke-width:6.16639" />
    <rect
       class="cls-3"
       x="14.577147"
       y="181.26935"
       width="482.84573"
       height="145.00615"
       rx="28.627216"
       id="rect126"
       style="fill:none;stroke:#3e4c70;stroke-width:12.3328px;stroke-linecap:round;stroke-linejoin:round" />
    <path
       class="cls-4"
       d="m 110.00122,275.7087 a 5.089283,4.781736 0 0 1 3.1808,-8.36804 h 3.18081 a 24.174094,22.713246 0 0 0 17.17633,5.97717 c 6.3616,0 10.81472,-2.98858 10.81472,-7.1726 v 0 c 0,-4.18402 -2.54464,-6.57489 -13.99553,-8.96575 -11.45088,-2.39087 -20.35713,-6.57489 -20.35713,-17.3338 v 0 c 0,-9.56347 8.90625,-16.73607 20.99329,-16.73607 a 34.35266,32.276718 0 0 1 19.72098,5.37945 5.089283,4.781736 0 0 1 2.54464,4.18402 5.7254433,5.379453 0 0 1 -5.72545,4.78173 h -2.54464 a 25.446415,23.90868 0 0 0 -13.99553,-4.78173 c -6.3616,0 -10.17856,2.98858 -10.17856,7.1726 v 0 c 0,4.78174 2.54464,6.57489 14.63169,8.96576 12.08704,2.39087 19.72097,7.77032 19.72097,17.33379 v 0 c 0,10.75891 -8.90625,17.33379 -22.26561,17.33379 a 38.169622,35.86302 0 0 1 -22.90178,-7.77032 z"
       id="path128"
       style="fill:#3e4c70;stroke-width:6.16639" />
    <path
       class="cls-4"
       d="m 178.70654,229.08678 a 5.7254433,5.379453 0 0 1 5.72545,-5.37946 h 1.27232 a 5.7254433,5.379453 0 0 1 5.08928,2.98859 l 31.17186,37.65617 v -35.86302 a 5.7254433,5.379453 0 0 1 5.08928,-4.78174 5.7254433,5.379453 0 0 1 5.72544,4.78174 v 49.01279 a 5.089283,4.781736 0 0 1 -5.08928,4.78174 h -0.63616 a 6.9977641,6.574887 0 0 1 -5.72544,-2.98859 l -31.80802,-38.25388 v 36.46073 a 5.7254433,5.379453 0 0 1 -5.08928,5.37946 5.7254433,5.379453 0 0 1 -5.72545,-5.37946 z"
       id="path130"
       style="fill:#3e4c70;stroke-width:6.16639" />
    <path
       class="cls-4"
       d="m 259.49891,229.08678 a 5.089283,4.781736 0 0 1 5.08928,-5.37946 h 1.27232 a 5.7254433,5.379453 0 0 1 5.08929,2.98859 l 19.08481,27.49498 18.44865,-28.0927 a 7.6339244,7.172604 0 0 1 5.08928,-2.39087 h 1.27232 a 5.089283,4.781736 0 0 1 5.08928,5.37946 v 48.41507 a 5.089283,4.781736 0 0 1 -5.08928,5.37946 5.7254433,5.379453 0 0 1 -5.72544,-5.37946 v -34.66758 l -14.63169,20.92009 a 5.7254433,5.379453 0 0 1 -5.08928,2.98859 c -1.90848,0 -3.18081,-1.19544 -4.45313,-2.98859 l -14.63168,-20.92009 v 34.66758 a 5.7254433,5.379453 0 0 1 -5.72545,5.37946 5.089283,4.781736 0 0 1 -5.08928,-5.37946 z"
       id="path132"
       style="fill:#3e4c70;stroke-width:6.16639" />
    <path
       class="cls-4"
       d="m 346.65288,229.08678 a 5.089283,4.781736 0 0 1 5.72544,-4.78174 h 19.08481 c 13.99553,0 23.53794,7.1726 23.53794,19.12694 v 0 c 0,13.14978 -11.45089,20.32238 -24.81026,20.32238 h -12.7232 v 13.74749 a 5.089283,4.781736 0 0 1 -5.08929,5.37946 5.7254433,5.379453 0 0 1 -5.72544,-5.37946 z m 23.53793,25.10411 c 8.27009,0 13.35937,-4.18402 13.35937,-10.16119 v 0 c 0,-7.1726 -5.08928,-10.75891 -13.35937,-10.75891 h -12.7232 v 20.9201 z"
       id="path134"
       style="fill:#3e4c70;stroke-width:6.16639" />
    <path
       id="path1056"
       style="fill:#00ff00;stroke-width:1.47295"
       d="m 130.4707,221.6543 c -6.08747,0.16424 -12.40865,2.00396 -16.85937,6.33008 -3.33925,3.20329 -5.15701,7.85775 -4.96085,12.47255 0.0211,3.82432 1.497,7.66828 4.30842,10.3064 3.6627,3.5004 8.52599,5.32869 13.2682,6.85082 4.5629,1.48609 9.4198,2.19602 13.70259,4.45226 1.31268,0.68202 2.56615,1.8894 2.49815,3.48279 -0.0251,1.67369 -0.48343,3.62341 -2.06807,4.49479 -2.7814,1.60314 -6.14193,1.69309 -9.26386,1.45269 -3.83733,-0.32851 -7.55635,-1.54982 -10.94294,-3.36298 -2.57354,-1.1833 -5.41005,-2.46643 -8.30481,-1.88735 -3.10271,0.64957 -5.59236,3.97831 -4.76687,7.15724 0.54476,2.48069 2.67614,4.16316 4.79678,5.32357 4.61298,2.60926 9.63494,4.5363 14.83287,5.58729 6.7473,1.16925 14.0356,0.7163 20.14029,-2.6063 5.0242,-2.66696 8.86981,-7.64129 9.75672,-13.30576 0.68509,-4.31748 -0.9757,-8.67904 -3.47513,-12.14459 -2.78038,-3.79828 -7.23275,-5.82082 -11.58036,-7.25359 -4.97245,-1.69728 -10.19397,-2.5286 -15.15939,-4.24308 -1.45688,-0.50835 -3.01683,-1.27654 -3.57181,-2.83175 -0.59946,-1.12074 -0.86148,-2.56909 -0.0185,-3.64813 0.86058,-1.20629 1.86912,-2.35508 3.08789,-3.20703 1.54678,-0.6684 3.29705,-0.39867 4.93788,-0.47866 2.92783,-0.0553 5.87992,0.4337 8.54325,1.68325 2.83068,1.2151 5.76452,2.78579 8.94233,2.48817 2.68464,-0.28607 4.78135,-2.4323 5.92225,-4.75136 0.88553,-1.81012 0.36331,-4.06141 -1.08203,-5.42382 -2.16477,-2.0763 -5.02819,-3.19452 -7.76818,-4.29673 -4.74774,-1.79669 -9.83146,-2.77104 -14.91542,-2.64077 z" />
    <path
       id="path1095"
       style="fill:#00ff00;stroke-width:1.47295"
       d="m 184.49219,222.07031 c -2.53192,0.0711 -5.06761,1.51439 -6.26367,3.76953 -0.93713,2.20374 -0.84758,4.66614 -0.98685,7.01411 -0.23202,9.40993 -0.11526,18.82492 -0.14792,28.23707 0,6.40065 0,12.8013 0,19.20195 1.85311,1.28623 3.55037,2.8285 5.56055,3.86914 1.51192,0.77229 3.30213,0.26311 4.57614,-0.73481 1.36401,-0.92434 2.78269,-2.03105 3.18167,-3.72222 0.73784,-2.95331 0.66336,-6.03167 0.81677,-9.05323 0.23605,-8.17647 0.38527,-16.35515 0.57776,-24.53271 7.78322,9.3022 15.44398,18.70577 23.35016,27.90327 2.59911,2.89175 5.09019,5.95822 8.24609,8.27087 1.73523,1.3184 4.09405,1.90787 6.17766,1.10129 1.4852,-0.53467 2.9099,-1.22456 4.37062,-1.8223 -0.0245,-15.40095 0.0567,-30.80238 -0.0592,-46.20297 -0.10237,-2.97821 0.0212,-6.00716 -0.64393,-8.92985 -0.31924,-1.45232 -1.45828,-2.49792 -2.71886,-3.17791 -1.52727,-1.01535 -3.53074,-1.55734 -5.27138,-0.75959 -1.58304,0.69104 -3.22255,1.77026 -3.67597,3.54785 -0.75192,2.71906 -0.69553,5.57898 -0.85808,8.37613 -0.27801,8.41369 -0.41507,16.83194 -0.61829,25.2479 -9.26303,-11.06341 -18.31899,-22.30765 -27.95235,-33.05425 -1.26049,-1.28912 -2.36316,-2.7863 -3.86406,-3.80708 -1.18046,-0.5182 -2.50586,-0.77231 -3.79687,-0.74219 z" />
    <path
       id="path1134"
       style="fill:#00ff00;stroke-width:1.47295"
       d="m 265.02148,222.06836 c -2.51021,0.1026 -5.02143,1.5307 -6.20898,3.77148 -0.94761,2.23855 -0.84923,4.7383 -0.98885,7.12185 -0.22126,9.1276 -0.11687,18.26012 -0.13902,27.38987 0.0588,5.69064 -0.0793,11.39308 0.34662,17.07227 0.15202,1.8731 0.57789,3.91424 2.11529,5.16071 1.43739,1.4281 3.55907,2.44586 5.59376,1.78902 1.66855,-0.53647 3.17673,-1.58385 4.35736,-2.86965 1.42059,-1.92008 1.34327,-4.44344 1.55305,-6.7156 0.38879,-8.62225 0.47197,-17.25556 0.70722,-25.88308 -0.0558,-0.86574 0.58814,0.584 0.86886,0.83184 3.98994,5.65317 7.8221,11.45649 12.45639,16.61374 0.80417,0.91731 1.83201,1.71576 3.101,1.76937 2.39827,0.35971 4.49612,-1.23406 6.01249,-2.91176 3.45984,-3.83968 6.23063,-8.2391 9.2049,-12.42925 1.21763,-1.72921 2.44434,-3.45232 3.71327,-5.1444 0.44782,8.36681 0.43093,16.74804 0.55844,25.16166 0.0374,2.99363 0.0725,5.9873 0.11149,8.98091 1.79023,0.86309 3.46182,2.0127 5.36328,2.6211 1.84861,0.5643 3.60361,-0.52704 5.09808,-1.48802 0.87362,-0.53774 1.74732,-1.07535 2.62067,-1.61354 -0.0278,-14.87715 0.0681,-29.755 -0.0799,-44.63161 -0.10501,-3.34923 -0.0197,-6.73862 -0.66424,-10.04027 -0.35132,-2.06754 -2.10262,-3.60294 -4.05556,-4.15691 -3.22094,-0.99076 -7.15934,0.0241 -9.09736,2.89231 -6.28342,8.27657 -11.49295,17.29409 -17.58146,25.70796 -6.71538,-8.72381 -12.49779,-18.1384 -19.47822,-26.66127 -0.74359,-0.91334 -1.60912,-1.83494 -2.83604,-2.01753 -0.86092,-0.24084 -1.75897,-0.35457 -2.65254,-0.3212 z" />
    <path
       id="path1173"
       style="fill:#00ff00;stroke-width:1.47295"
       d="m 359.44141,222.86719 c -3.26165,0.0908 -6.56815,-0.0536 -9.78247,0.59299 -1.66257,0.30207 -3.20632,1.46769 -3.6023,3.16677 -0.71874,2.93731 -0.63025,5.99508 -0.75171,8.99796 -0.16331,11.03699 -0.11923,22.07635 -0.0639,33.1141 0.0922,3.54551 -0.0263,7.12656 0.5929,10.63208 0.27754,1.70519 1.44542,3.07172 2.81949,4.0382 1.5302,1.26236 3.7559,1.53186 5.52571,0.62093 1.71005,-0.81214 3.54263,-1.95716 4.03957,-3.91694 0.66301,-2.66009 0.43331,-5.43679 0.50659,-8.1535 0.003,-2.28021 3.6e-4,-4.56043 0.001,-6.84064 5.75832,-0.0726 11.54414,0.21815 17.27667,-0.45793 3.74568,-0.42308 7.32589,-1.82341 10.48137,-3.86439 5.53911,-3.2493 9.28125,-9.26231 9.85764,-15.64612 0.642,-6.06331 -1.64111,-12.46604 -6.33979,-16.43516 -3.20672,-2.77674 -7.2537,-4.4736 -11.4396,-5.05756 -6.15791,-0.92574 -12.40919,-0.77696 -18.6183,-0.79238 -0.16772,5.3e-4 -0.33543,0.001 -0.50314,0.002 z m 5.92187,12.1289 c 1.22291,10e-4 2.53019,0.0268 3.59375,0.0703 3.24263,0.19682 6.65267,0.35581 9.57751,1.91727 1.94104,0.99796 2.81481,3.19813 2.94849,5.27221 0.12378,2.20231 0.2857,4.7175 -1.20178,6.53317 -1.16354,1.23421 -2.58745,2.33903 -4.23437,2.82422 -3.07871,0.6553 -6.25666,0.47472 -9.38473,0.54579 -2.64519,0.004 -5.29039,0.003 -7.93559,0.005 0,-5.72265 0,-11.44531 0,-17.16797 2.21224,0 4.42448,0 6.63672,0 z" />
  </g>
</svg>
