<?xml version="1.0" encoding="UTF-8" standalone="no"?>
<!-- Created with Inkscape (http://www.inkscape.org/) -->

<svg
   version="1.1"
   id="svg876"
   width="512"
   height="512"
   viewBox="0 0 512 512"
   sodipodi:docname="brakeman.svg"
   inkscape:version="1.1.2 (0a00cf5339, 2022-02-04)"
   xmlns:inkscape="http://www.inkscape.org/namespaces/inkscape"
   xmlns:sodipodi="http://sodipodi.sourceforge.net/DTD/sodipodi-0.dtd"
   xmlns="http://www.w3.org/2000/svg"
   xmlns:svg="http://www.w3.org/2000/svg">
  <defs
     id="defs880" />
  <sodipodi:namedview
     id="namedview878"
     pagecolor="#9f9f9f"
     bordercolor="#eeeeee"
     borderopacity="1"
     inkscape:pageshadow="0"
     inkscape:pageopacity="0"
     inkscape:pagecheckerboard="0"
     showgrid="false"
     inkscape:zoom="0.72801303"
     inkscape:cx="173.07383"
     inkscape:cy="291.89038"
     inkscape:window-width="1366"
     inkscape:window-height="695"
     inkscape:window-x="0"
     inkscape:window-y="24"
     inkscape:window-maximized="1"
     inkscape:current-layer="g882" />
  <g
     inkscape:groupmode="layer"
     inkscape:label="Image"
     id="g882">
    <g
       id="g16651"
       transform="matrix(2.2317782,0,0,2.2605961,4.9249505,-91.001497)">
      <path
         id="path986-3"
         style="fill:#ffffff"
         d="m 114.46509,42.869359 c -1.26901,-0.008 -2.55875,0.0055 -3.8086,0.02734 -1.27952,0.03918 -2.55009,0.109057 -3.89453,0.222657 -2.94755,0.237537 -6.11378,0.723922 -8.82226,1.308593 -2.07913,0.448814 -4.195672,1.017575 -6.132812,1.638672 -1.21654,0.384105 -2.676124,0.904266 -3.964844,1.414063 -3.0265,1.198447 -5.958247,2.636572 -8.748047,4.314453 -0.73701,0.454021 -1.708534,1.055879 -2.521484,1.595703 -3.92598,2.58777 -7.564448,5.59049 -10.960938,8.837891 -0.51472,0.510591 -1.265076,1.229446 -1.853515,1.835937 -3.25521,3.323336 -6.433947,6.787958 -8.753907,10.84961 -2.56265,4.423118 -4.632527,9.113084 -6.605469,13.822265 -1.431029,3.676159 -2.901468,7.401262 -3.330078,11.353517 -0.27687,2.07317 -0.379385,3.99901 -0.453125,6.10351 -0.22647,8.40503 0.0055,16.95032 2.277344,25.09766 0.54086,1.23986 0.05411,2.68434 -0.910156,3.56641 -3.15638,3.95527 -6.041068,8.4987 -6.423828,13.67578 -0.34865,4.21172 0.911827,8.4055 2.867187,12.09961 0.14594,0.27814 0.526597,0.97034 0.785156,1.39062 1.129461,1.89996 2.547001,3.60555 4.056641,5.21289 -1.13996,5.35367 -1.985937,10.82069 -1.679687,16.31055 0.54125,13.32704 5.786736,26.60894 15.248046,36.12109 0.52318,0.6142 1.240425,1.14792 1.646485,1.81055 0.0546,6.40858 -0.09006,12.94259 0.08984,19.27149 0.0759,2.2899 0.16793,4.49147 0.375,6.72851 0.41193,4.05843 1.622639,8.37381 4.849609,11.10742 2.88238,2.48583 6.515651,4.04393 10.244141,4.71485 4.64712,0.74589 9.37308,0.59892 14.0625,0.72851 14.434671,0.1622 28.871741,0.1464 43.304691,-0.13867 2.99573,-0.0683 6.12427,-0.17241 9.03906,-0.35156 1.53169,-0.12527 2.89287,-0.15213 4.42188,-0.38477 4.59787,-0.96991 8.25322,-4.26911 11.18359,-7.77344 0.81224,-0.92802 1.59998,-1.87857 2.43164,-2.78906 v -30.10156 c 3.52575,-3.76622 6.91945,-7.70931 9.49219,-12.20313 0.8972,-1.44094 1.75096,-2.95534 2.48828,-4.3789 2.29878,-4.44257 4.10083,-9.22596 4.52734,-14.24414 0.44739,-4.49064 0.43684,-9.01946 0.22852,-13.52344 -0.20109,-3.67273 -0.73945,-7.32248 -1.55469,-10.9082 3.02604,-3.31834 5.90218,-7.00187 7.05664,-11.42578 1.8565,-6.45365 0.31148,-13.77734 -3.875,-18.96485 -0.74242,-0.98169 -1.53028,-1.92828 -2.29492,-2.89258 0.88633,-3.97694 1.78176,-7.96632 2.38672,-11.93945 0.29538,-1.94508 0.55585,-4.13242 0.6875,-6.1875 0.49748,-7.7181 -0.20716,-15.52475 -2.25195,-22.990234 -0.19357,-0.686688 -0.47375,-1.672584 -0.72461,-2.464844 -2.60904,-8.429527 -7.04571,-16.240029 -12.72071,-22.980468 -3.63627,-4.303331 -7.69277,-8.28322 -12.2207,-11.644532 -5.23281,-3.706132 -11.09134,-6.315145 -17.04883,-8.796874 -1.17919,-0.459407 -2.39097,-0.901573 -3.66797,-1.316407 -4.78761,-1.60204 -9.83107,-2.493963 -14.8457,-2.662109 -1.16437,-0.06025 -2.41263,-0.08967 -3.68164,-0.09766 z m -1.0293,16.3125 c 4.78789,0.114701 9.63318,0.27273 14.30078,1.433593 9.61502,2.840785 18.04084,8.829979 24.91211,16.021485 5.28662,5.619119 9.39467,12.43206 11.38086,19.917968 2.39744,8.575995 3.13286,17.719785 1.44336,26.498045 -0.46952,2.52211 -1.31417,4.94851 -2.23047,7.33789 -2.37698,-0.25983 -4.74656,-0.58074 -7.10156,-0.99609 -0.66303,-3.37887 -1.96583,-6.67734 -4.16016,-9.36133 -2.20415,-2.79422 -5.3353,-4.83718 -8.81054,-5.64062 -0.88239,0.031 -0.65764,-0.77229 -0.67188,-1.39453 -0.0164,-3.86091 -0.02,-7.73378 0.008,-11.5879 -0.18412,-0.55646 -0.93166,-0.13958 -1.3457,-0.26562 -19.55845,0.0262 -39.11732,0.0124 -58.675778,0.0137 v 13.34375 c -2.53144,0.74156 -4.987646,1.86072 -6.972656,3.62891 -0.90306,0.76046 -1.871975,1.81595 -2.490235,2.62695 -1.87573,2.36686 -3.037558,5.22411 -3.605468,8.17578 -0.34295,0.3531 -1.130308,0.2235 -1.648438,0.38672 -1.48073,0.22424 -2.954161,0.48945 -4.431641,0.73437 -2.17387,-5.87889 -3.427716,-12.13518 -3.279296,-18.41796 0.26386,-17.015873 9.043097,-33.774964 23.179687,-43.337896 7.52276,-5.184329 16.410487,-8.484056 25.562495,-8.986328 1.54344,-0.102966 3.08999,-0.137142 4.63672,-0.130859 z m 13.64649,68.925781 c 0.2461,0.005 0.49218,0.0104 0.73828,0.0156 4.22584,0.1622 8.47373,-0.22517 12.67969,0.35547 0.57732,1.13847 0.94834,2.36664 0.96289,3.65039 0.0565,0.68944 0.11339,1.37892 0.16992,2.06836 -4.10222,-0.008 -8.20443,-0.018 -12.30664,-0.0273 -2.14063,-0.005 -4.28125,-0.01 -6.42188,-0.0137 -0.59031,-0.46729 -1.14687,-0.0427 -1.77148,-0.004 -2.04258,-0.004 -4.08438,-0.008 -6.12696,-0.0117 1.11914,-0.57877 2.23829,-1.15757 3.35743,-1.73632 -1.17578,-0.45378 -2.35157,-0.90755 -3.52735,-1.36133 0.056,1.03255 0.11198,2.0651 0.16797,3.09766 -2.24725,-0.0256 -4.49625,-0.0297 -6.74414,-0.0469 0.21303,-0.67977 0.28144,-1.22552 -0.60547,-0.87695 -1.04293,-0.007 -0.74299,0.24649 0.0273,0.58985 0.17321,0.0957 0.34631,0.1914 0.51953,0.2871 -0.91463,-0.007 -1.83131,0.0117 -2.74414,-0.0195 -1.14224,-0.16853 -2.28399,-0.44222 -3.43164,-0.1582 -2.329168,0.35847 -4.693988,0.11443 -7.041018,0.17773 -3.86914,-0.009 -7.738282,-0.0166 -11.607422,-0.0273 0.21878,-1.69066 -0.084,-3.74457 1.328125,-5 1.08645,-0.94068 2.638246,-0.78038 3.978516,-0.90039 3.18574,-0.005 6.372335,-0.001 9.558593,-0.004 0.926908,0.95628 2.012216,1.74934 3.257816,2.23046 0.5733,0.24988 1.14699,0.76481 1.7207,0.85352 1.13177,-0.70024 2.36604,-1.17277 3.54883,-1.76758 0.53326,-0.16467 1.04607,-0.91051 1.5957,-0.62695 1.82803,1.06952 4.06975,1.44091 6.10937,0.79297 1.03546,-0.29279 1.92977,-0.90769 2.86329,-1.41992 1.2396,1.02801 2.71029,1.83966 4.34765,1.94335 0.51681,0.52535 1.00314,-0.16099 1.60742,-0.0664 1.4603,-0.19598 2.72286,-1.01964 3.78907,-1.99414 z m 2.24414,6.0625 0.1914,-3.02344 -3.48828,1.29687 c 1.09896,0.57552 2.19793,1.15105 3.29688,1.72657 z m -31.548829,-1.23633 c 0.069,0.38868 0.138021,0.77734 0.207031,1.16601 0.54557,-0.29753 1.09114,-0.59504 1.63672,-0.89257 -0.61459,-0.0911 -1.229171,-0.18229 -1.843751,-0.27344 z m -2.921875,29.22461 h 1.419922 33.603512 c 1.37981,3.46665 2.2726,7.14244 2.3711,10.88281 0.17402,4.58496 -0.65498,9.22633 -2.64844,13.375 -0.18734,0.57472 -1.03651,0.22577 -1.51758,0.39063 -7.56272,0.63202 -15.15835,0.75106 -22.74414,0.77929 -3.16907,-0.0187 -6.344668,-0.0636 -9.49414,-0.45117 -1.3373,-2.03101 -2.180022,-4.35708 -2.476562,-6.76953 -0.49616,-4.17859 -0.61776,-8.43398 -0.04687,-12.61133 0.25383,-1.92725 0.865213,-3.77817 1.533203,-5.5957 z m 53.529294,10.47656 c 0.63476,1.4694 1.26953,2.9388 1.9043,4.4082 0.12245,3.40711 -0.12777,6.81101 -0.44336,10.20118 -1.37631,0.063 -3.05075,0.61455 -4.16211,-0.4961 -0.81142,-0.75448 -0.78691,-1.98106 -0.35547,-2.92187 0.54829,-2.28327 0.78708,-4.63724 1.00781,-6.95899 0.68275,-1.41075 1.36608,-2.82167 2.04883,-4.23242 z m -71.593747,3.21094 c 0.73568,1.48698 1.471361,2.97396 2.207031,4.46094 0.30593,2.38609 0.931017,4.71181 1.498047,7.04492 -1.22577,-0.0282 -2.464008,0.10042 -3.679688,0.0176 -1.23087,-0.1589 -2.066441,-1.47402 -1.800781,-2.66797 -0.0107,-1.46068 -0.123692,-2.95357 0.06836,-4.39258 0.56927,-1.48722 1.137762,-2.97567 1.707032,-4.46289 z m 35.693357,47.3125 c 7.63679,0.003 15.27374,-0.01 22.91016,0.0781 -0.52215,3.068 -0.80898,6.16985 -0.8711,9.28125 -0.0436,1.12218 -0.0873,2.24306 -0.13086,3.36524 -1.36391,-0.83424 -2.60236,-1.8982 -4.05664,-2.56836 -1.49494,-0.5914 -3.39521,-0.26389 -4.35547,1.10156 -0.97036,1.05701 -2.87965,0.84485 -3.54296,-0.44336 -1.0246,-2.27018 -4.32092,-3.16889 -6.28711,-1.55078 -1.29631,1.00696 -1.96364,2.57214 -2.9375,3.85742 -0.8004,-1.03514 -1.37202,-2.2738 -2.33594,-3.16601 -1.02189,-0.60263 -2.18132,-1.11056 -3.38281,-1.15821 -1.12781,0.59744 -2.15373,1.44477 -2.85547,2.51367 -0.57504,0.53885 -1.38573,0.86631 -2.15625,0.58008 -0.81221,-0.14111 -1.22919,-0.95707 -1.61328,-1.60742 -1.317108,-1.88636 -4.229349,-2.48811 -6.060549,-0.99609 -1.0725,0.77294 -2.144277,1.54545 -3.216797,2.31836 -0.10842,-2.69347 -0.03742,-5.32736 -0.292969,-7.98828 -0.18485,-1.20026 -0.48459,-2.3809 -0.71875,-3.57227 7.30143,-0.0254 14.602815,-0.0451 21.904295,-0.0449 z m -35.431639,0.17969 c 0.64974,0.0573 1.299479,0.11457 1.949219,0.17187 1.02924,-0.25601 2.215508,-0.0631 2.861328,0.84766 0.6416,1.00296 0.119138,2.18742 0.05859,3.28125 -0.56502,5.17009 -0.503441,10.3897 -0.275391,15.57812 0.0395,1.70343 0.499881,3.34269 1.087891,4.92969 0.57319,0.81107 -0.439895,0.66302 -0.984375,0.79883 -1.19255,0.25332 -2.57626,0.49398 -3.59375,-0.36719 -1.28026,-1.11823 -1.441912,-2.91983 -1.482422,-4.51172 -0.32878,-5.30968 -0.178766,-10.63794 -0.002,-15.95117 0.0767,-1.59573 0.247219,-3.18572 0.380859,-4.77734 z m 66.886719,0.0137 c 0.38929,-0.0362 1.00068,0.13243 1.38086,0.0879 0.2442,0.0143 0.48822,0.0287 0.73242,0.043 0.63103,0.0418 1.26167,0.0935 1.89258,0.13867 0.20787,2.72377 0.48346,5.47539 0.43164,8.19531 -0.36403,0.81592 -0.72778,1.63136 -1.0918,2.44727 0.37846,0.8748 0.91221,1.71185 1.19727,2.60937 -0.004,0.83463 -0.01,1.66928 -0.0137,2.50391 -0.63214,-1.17122 -1.26432,-2.34244 -1.89648,-3.51367 l -1.77734,3.98437 c 1.22396,-0.0462 2.44791,-0.0924 3.67187,-0.13867 0.0193,2.80322 -0.0905,5.6062 -0.38672,8.39453 -1.04341,0.33067 -2.2434,0.96662 -3.27929,0.26563 -0.96993,-0.54061 -1.21709,-1.85242 -0.83008,-2.84766 0.37527,-2.90616 0.45375,-5.83901 0.50976,-8.76563 l 1.19727,-2.54882 c -0.39435,-0.85172 -1.01581,-1.63995 -1.26758,-2.53125 -0.0776,-2.71223 -0.33989,-5.47957 -0.76953,-8.20313 0.0637,-0.0731 0.16906,-0.10904 0.29883,-0.12109 z m 4.2832,5.43945 c -1.1888,0.007 -2.37759,0.013 -3.56641,0.0195 0.60091,1.24544 1.20183,2.49088 1.80274,3.73633 0.58789,-1.25196 1.17578,-2.50391 1.76367,-3.75586 z" />
      <path
         id="path998"
         style="fill:#969798"
         d="m 112.9655,46.774068 c -12.93526,0.0225 -14.570397,0.241659 -21.499998,2.873047 C 71.96279,57.052913 57.3037,71.880594 50.85417,90.727193 47.24356,101.278 46.48011,115.70221 48.94597,126.78579 l 1.70508,7.65625 -3.03125,3.14258 c -3.79787,3.93805 -5.15519,7.48448 -5.15039,13.45898 0.004,4.99741 2.55759,10.4069 6.30078,13.34766 2.00735,1.57703 2.04908,1.93368 0.78516,6.86523 -4.10195,16.00497 0.91975,34.91386 12.29296,46.28711 l 3.61719,3.61719 0.002,13.7832 c 0.002,15.63634 1.04021,19.10142 6.89649,23.01367 3.37719,2.25613 3.61873,2.26953 39.79883,2.26953 39.30246,0 39.15741,0.0181 44.30273,-5.48242 2.41132,-2.5778 2.51277,-3.22438 2.82422,-18.26562 l 0.32227,-15.59571 4.34179,-4.96289 c 10.90198,-12.4626 15.11417,-29.22453 11.16797,-44.4375 -1.34225,-5.17451 -1.34049,-5.18256 1.62305,-7.96679 7.29576,-6.85432 7.75634,-18.42577 1.01367,-25.49414 l -2.58203,-2.70508 1.70703,-6.07813 c 6.2147,-22.14919 -0.31902,-46.839046 -16.74609,-63.283201 -8.16162,-8.170105 -15.17315,-12.658203 -25.83594,-16.537109 -6.65561,-2.421176 -8.63198,-2.666632 -21.33594,-2.644532 z m 0.60156,9.123047 c 5.39333,0.09231 10.82664,0.679747 14.34571,1.728516 21.40667,6.379701 37.11268,23.860348 40.73633,45.341799 1.34305,7.96176 0.0437,21.38614 -2.70508,27.96484 -1.22844,2.94007 -1.68311,3.25537 -3.38282,2.34571 -1.08017,-0.57809 -3.79313,-1.05079 -6.02929,-1.05079 -3.72448,0 -4.06641,-0.2198 -4.06641,-2.63086 -1e-5,-5.23294 -6.865,-12.36914 -11.90039,-12.36914 -0.6764,0 -1.09961,-2.30676 -1.09961,-6 v -6 h -26.5 -26.5 v 5.92188 c 0,5.74437 -0.088,5.93906 -2.95312,6.56836 -5.57048,1.22348 -11.04688,7.40108 -11.04688,12.46094 0,1.683 -0.63658,2.04882 -3.56445,2.04882 -1.96116,0 -4.44073,0.46889 -5.50977,1.04102 -1.63973,0.87755 -2.10402,0.62298 -2.96093,-1.63086 -3.31825,-8.72766 -4.27946,-24.81698 -1.99805,-33.410157 5.23022,-19.700192 21.05142,-35.542872 41.033202,-41.08789 3.355318,-0.931114 8.708228,-1.334495 14.101558,-1.242188 z M 93.465502,112.22719 h 18.999998 19 v 6.5 6.5 h 5 c 6.59832,0 9.06713,2.30602 8.83203,8.25 l -0.16797,4.25 -0.40625,-4 c -0.59451,-5.86103 -2.54134,-7.5 -8.91211,-7.5 h -5.3457 v -6.52148 -6.52344 l -17.75,0.27344 -17.749998,0.27148 -0.296875,6.25 -0.298828,6.25 H 89.03972 c -3.33638,0 -5.76049,0.52232 -6.48437,1.39454 -0.63601,0.76635 -1.54261,3.35385 -2.01368,5.75 -0.59961,3.04995 -0.89009,3.55149 -0.96679,1.67187 -0.13149,-3.22205 1.55751,-7.98293 3.20312,-9.0293 0.6531,-0.41527 3.325,-0.76308 5.9375,-0.77148 l 4.750002,-0.0156 v -6.5 z m -38.654292,30.5 0.7246,6.5 c 0.85794,7.69419 -0.36593,9.93018 -2.56054,4.67774 -1.39967,-3.34989 -1.38556,-4.01139 0.15039,-7.42774 z m 116.48632,3.45313 c 1.17883,0.22545 1.38347,7.08437 0.11133,8.61719 -1.79399,2.16163 -3.16883,1.71536 -2.37891,-0.77344 0.38487,-1.21262 0.79028,-3.35012 0.9004,-4.75 0.11013,-1.39988 0.61457,-2.77188 1.11914,-3.04688 0.0871,-0.0475 0.16945,-0.0619 0.24804,-0.0469 z m -21.46093,12.34375 c 0.22234,-0.22235 0.95494,1.89375 1.6289,4.70312 0.67395,2.80937 1.02625,5.30775 0.7832,5.55079 -0.24304,0.24304 -0.97564,-1.87305 -1.6289,-4.70313 -0.65326,-2.83007 -1.00554,-5.32844 -0.7832,-5.55078 z m -73.99415,0.12109 c 0.16386,0.17931 -0.0131,1.17114 -0.49804,2.60547 -1.51392,4.47773 -2.36692,5.34633 -1.44922,1.47656 0.3913,-1.65 1.14195,-3.43912 1.66797,-3.97656 0.13151,-0.13436 0.22467,-0.16525 0.27929,-0.10547 z m -11.31835,3.60547 c 0.63872,0.19844 0.78658,2.1229 0.2832,5.72656 -0.44175,3.1625 -0.72385,9.6875 -0.625,14.5 l 0.17969,8.75 h -2.90235 c -2.56288,0 -2.98545,-0.43958 -3.60742,-3.75 -0.88642,-4.71798 0.74986,-14.50709 3.44141,-20.59179 1.46229,-3.30574 2.59175,-4.8332 3.23047,-4.63477 z m 95.90429,0.16211 c 0.61509,0.18344 1.71445,1.88772 3.12891,5.06445 1.74885,3.92773 2.43291,7.57972 2.71875,14.5 l 0.38281,9.25 -2.8457,0.002 h -2.84766 v -10.25 c -1e-5,-5.63785 -0.34272,-12.16446 -0.76172,-14.50196 -0.52171,-2.91048 -0.39049,-4.24788 0.22461,-4.06445 z m -87.45117,4.63477 c 0.057,0.0591 0.11826,0.20598 0.18164,0.44922 0.25355,0.97297 0.23681,2.32297 -0.0371,3 -0.27392,0.67703 -0.48132,-0.11954 -0.46094,-1.76954 0.0153,-1.2375 0.14546,-1.85701 0.31641,-1.67968 z m 79.97656,2.67968 0.29492,9.91211 c 0.16181,5.45151 -0.0607,10.26925 -0.49414,10.70508 -0.43349,0.43583 -0.56661,-4.02478 -0.29492,-9.91211 z m -80.90429,5.24805 c 0.0463,0.10492 0.0976,0.44129 0.15039,1.0293 0.21125,2.35204 0.20725,5.95204 -0.008,8 -0.21488,2.04796 -0.38641,0.12265 -0.38281,-4.27735 0.003,-3.3 0.10151,-5.0667 0.24024,-4.75195 z m 77.63671,26.25195 c 0.45069,0 -0.14347,1.9125 -1.32226,4.25 -1.99899,3.96395 -3.66647,6.51381 -2.7793,4.25 0.21554,-0.55 1.04264,-2.6875 1.83789,-4.75 0.79524,-2.0625 1.81298,-3.75 2.26367,-3.75 z m -84.9707,0.0176 c 1.79631,0.0136 2.67819,1.12263 4.3711,5.5 1.16626,3.0156 1.991,5.48242 1.83398,5.48242 -0.65636,0 -8.45508,-9.35343 -8.45508,-10.14062 0,-0.47257 1.0125,-0.8508 2.25,-0.8418 z m 97.02539,0.01 c 0.81039,0.0103 0.4662,0.60224 -0.91211,2.93555 -1.01635,1.72055 -3.11943,4.34421 -4.67383,5.83203 l -2.82617,2.70507 2.53907,-5.5 c 1.75322,-3.79893 3.19858,-5.60173 4.67382,-5.83203 0.53101,-0.0829 0.92909,-0.14404 1.19922,-0.14062 z m -86.17968,0.12305 c 0.21001,0.0346 1.04545,1.34521 2.02148,3.19531 1.11546,2.11441 1.85095,4.02013 1.63476,4.23633 -0.4322,0.43221 -3.778,-6.21532 -3.70703,-7.36524 0.003,-0.0492 0.0208,-0.0713 0.0508,-0.0664 z m 1.0957,17.8496 c 0.62404,0 0.37258,0.82571 -0.56641,1.86329 -1.43573,1.58646 -1.64286,3.83675 -1.40429,15.2207 0.27501,13.12305 0.32366,13.38426 2.77929,14.625 1.86218,0.9409 10.95412,1.26635 35.63867,1.27734 30.10799,0.0134 33.33125,-0.1464 35.23828,-1.73633 1.8593,-1.55014 2.13325,-3.00629 2.39844,-12.75 l 0.30078,-11 0.21094,11.72461 0.21289,11.72461 -2.94922,1.52539 c -2.47854,1.2817 -8.19544,1.51357 -35.75,1.44727 -18.039818,-0.0434 -33.47579,-0.32751 -34.30078,-0.63086 -4.59018,-1.68777 -5,-3.04155 -5,-16.51172 0,-12.45388 0.82361,-16.7793 3.19141,-16.7793 z m 71.4375,0.0312 c 0.62015,-0.0167 1.6666,0.61934 2.32617,1.41407 0.65953,0.79472 1.00013,2.48222 0.75781,3.75 -0.39757,2.07997 -0.45328,2.04211 -0.57617,-0.39453 -0.0749,-1.48517 -0.92422,-3.16012 -1.88672,-3.72071 -0.9625,-0.56062 -1.24125,-1.03213 -0.62109,-1.04883 z" />
      <path
         id="path996"
         style="fill:#7c7d81"
         d="m 113.59173,46.552485 c -9.71339,-0.09652 -19.378284,2.064582 -28.603524,6.488282 -28.52839,13.679964 -43.35541,45.955464 -35.07422,76.347653 1.46523,5.37743 1.46109,5.40262 -1.10351,7.41993 -3.26102,2.56512 -6.27735,9.1407 -6.27735,13.68164 0,4.54094 3.01633,11.11652 6.27735,13.68164 2.55754,2.01176 2.56592,2.05924 1.13867,7.42188 -2.96363,11.13531 -0.96179,26.25325 4.76953,36.01953 1.41281,2.40744 4.44348,6.50553 6.73633,9.10742 l 4.16992,4.73242 0.18164,14.26758 c 0.20841,16.33975 1.21815,19.42099 7.44922,22.71094 3.50549,1.85087 5.88581,1.97357 39.232424,2.01367 39.08764,0.047 39.86955,-0.0631 44.42969,-6.27539 1.85385,-2.52554 2.09238,-4.41927 2.2832,-18.04493 l 0.21485,-15.2207 3.91601,-4.24414 c 5.08148,-5.50423 9.70994,-14.26731 11.76758,-22.28125 1.77636,-6.91842 1.4573,-18.5901 -0.67383,-24.66015 -1.06182,-3.02432 -0.94197,-3.43651 1.58203,-5.42188 3.36995,-2.65081 6.42969,-9.15903 6.45899,-13.74023 0.0248,-3.87527 -3.0698,-10.93508 -5.92774,-13.52149 -1.78844,-1.61852 -1.80874,-1.9617 -0.34179,-5.88086 2.42144,-6.46919 2.90225,-26.58734 0.82812,-34.664065 -3.05848,-11.909758 -8.14103,-20.646507 -17.51172,-30.109375 -6.87932,-6.946996 -10.1669,-9.412295 -17.02539,-12.767578 -9.42118,-4.608987 -19.18309,-6.964026 -28.89648,-7.060547 z m 0.86718,9.134766 c 24.80542,0.62706 47.032,17.75537 53.55079,42.802734 2.07878,7.987325 1.55806,24.060995 -1.01172,31.249995 -0.93364,2.61187 -1.99251,4.90089 -2.35352,5.0879 -0.36101,0.18701 -1.78125,-0.25611 -3.15625,-0.98437 -1.375,-0.72827 -3.96251,-1.3299 -5.75,-1.3379 -2.61305,-0.0119 -3.25,-0.41918 -3.25,-2.08008 0,-4.86014 -4.82735,-10.54209 -10.18359,-11.98437 l -3.81641,-1.02735 v -5.96093 -5.9629 h -26 -26.000004 v 5.98243 c 0,5.70034 -0.12902,6.01102 -2.75,6.63086 -4.95316,1.17138 -9.20176,5.18113 -10.45508,9.86718 -1.05884,3.95887 -1.47935,4.38366 -4.72851,4.77149 -1.9613,0.23411 -4.35678,0.77131 -5.32227,1.19531 -2.30758,1.0134 -4.3561,-3.78316 -5.92383,-13.86719 -4.56958,-29.392701 16.74264,-58.615085 46.398444,-63.617184 3.61058,-0.609003 7.20833,-0.855203 10.75195,-0.765625 z M 93.488206,112.48998 h 19.000004 19 v 5.87305 5.87305 l 5.1875,0.49805 c 6.50975,0.62551 8.8125,3.08925 8.8125,9.42578 0,2.71085 -0.39058,4.20672 -1,3.83008 -0.55001,-0.33992 -1,-2.52489 -1,-4.85742 -1e-5,-5.52703 -1.29083,-6.64259 -7.69922,-6.64259 h -5.30078 v -6 -6 h -18 -18.000004 v 6 6 h -4.56445 c -7.02185,0 -8.43555,1.1781 -8.43555,7.03517 0,2.73065 -0.45,4.96484 -1,4.96484 -0.55,0 -1,-1.9746 -1,-4.38867 0,-6.16553 2.21587,-8.5152 8.75,-9.27735 l 5.25,-0.61133 v -5.86133 z m -38.0664,30.50001 0.0449,3.5 c 0.0243,1.925 0.32315,5.1875 0.66406,7.25 0.71,4.29548 -0.66916,4.97778 -3.08594,1.52734 -2.12248,-3.03026 -1.955,-7.07697 0.41016,-9.91601 z m 115.566404,1.99414 c 0.45937,-0.0814 0.96735,0.60237 1.51953,2.05469 1.1302,2.97267 0.59274,7.0079 -1.22265,9.19531 -2.10831,2.54038 -2.79861,1.11538 -2.17774,-4.49414 0.48269,-4.3611 1.11523,-6.62024 1.88086,-6.75586 z m -95.312504,13.50586 c 0.56476,0 0.778,0.6469 0.47461,1.4375 -2.17565,5.66966 -3.04183,11.49103 -3.09765,20.8125 -0.0354,5.9125 -0.12838,10.75 -0.20704,10.75 -0.79721,0 -1.35742,-4.59159 -1.35742,-11.13281 0,-8.6451 2.53201,-21.86719 4.1875,-21.86719 z m 73.863284,0 c 1.78813,0 3.23752,7.96213 3.68555,20.25 0.25568,7.0125 0.083,12.7508 -0.38477,12.75 -0.46773,-7.9e-4 -0.89873,-5.28829 -0.95703,-11.75 -0.0687,-7.61499 -0.65022,-13.42122 -1.65234,-16.5 -0.85035,-2.6125 -1.16173,-4.75 -0.69141,-4.75 z m -84.740234,4 c 1.13413,0 1.25578,0.85812 0.59961,4.25 -0.45219,2.3375 -0.84129,8.8625 -0.86524,14.5 l -0.0449,10.25 h -2.98047 c -2.37776,0 -3.11322,-0.52555 -3.63476,-2.60352 -1.80434,-7.18909 3.23499,-26.39648 6.92578,-26.39648 z m 95.876954,0.01 c 0.63272,0.10645 1.62556,1.57268 2.89453,4.44141 2.69654,6.09598 4.22075,15.05227 3.44336,20.23633 -0.58912,3.9285 -0.90301,4.3125 -3.51172,4.3125 h -2.86328 l 0.17578,-8.25 c 0.0961,-4.5375 -0.18519,-11.0625 -0.625,-14.5 -0.48521,-3.79235 -0.36562,-5.88161 0.23829,-6.20313 0.0755,-0.0402 0.15765,-0.0523 0.24804,-0.0371 z m 3.01563,37.8379 -1.73438,2.9375 c -1.95654,3.31218 -8.37404,11.0255 -8.43164,10.13476 -0.0206,-0.31907 1.04461,-3.24407 2.36524,-6.5 2.00669,-4.94735 2.84477,-5.97346 5.10156,-6.24609 z m -102.253914,0.15234 h 3.02539 c 1.74867,0 3.02956,0.52757 3.03516,1.25 0.005,0.6875 1.11076,3.6125 2.45508,6.5 1.34432,2.8875 2.06147,5.25 1.59375,5.25 -1.20293,0 -6.72504,-6.4566 -8.56446,-10.01367 z m 88.634774,0.43945 c 0.35346,0.11482 -0.0389,1.80357 -1.44336,4.97852 -1.11503,2.52071 -2.51137,4.58203 -3.10157,4.58203 -0.59019,0 0.0905,-2.29493 1.51172,-5.09961 1.57997,-3.11792 2.67974,-4.57576 3.03321,-4.46094 z m -73.943364,0.88086 c 0.38211,0.18687 0.90764,0.99316 1.33203,2.10938 0.56585,1.4883 1.49557,3.57569 2.06445,4.63867 0.56889,1.06297 0.63621,1.93164 0.15039,1.93164 -1.1693,0 -4.67882,-7.84071 -3.87109,-8.64844 0.0864,-0.0864 0.19685,-0.0935 0.32422,-0.0312 z m 1.2832,17.67969 c 1.06357,0 0.85139,0.46919 -0.70117,1.55664 -2.10094,1.47156 -2.22266,2.26188 -2.22266,14.42969 0,10.36837 0.30648,13.17757 1.57227,14.44336 1.3691,1.3691 6.10618,1.57031 36.798834,1.57031 26.06667,0 35.54176,-0.3113 36.42968,-1.19922 0.81252,-0.81252 1.19922,-5.47635 1.19922,-14.44336 -1e-5,-12.55162 -0.11622,-13.32538 -2.22265,-14.80078 -1.75579,-1.2298 -1.87263,-1.55664 -0.55665,-1.55664 3.68755,0 4.7793,3.83168 4.7793,16.76953 -1e-5,11.75029 -0.11459,12.43686 -2.45508,14.77734 l -2.45312,2.45313 -34.29688,-0.0293 c -33.857874,-0.03 -36.940024,-0.29796 -39.029294,-3.38476 -0.40408,-0.597 -0.7416,-7.18227 -0.75,-14.63477 -0.0155,-13.75077 0.52421,-15.95117 3.9082,-15.95117 z" />
      <path
         id="path994"
         style="fill:#6b6c6f"
         d="m 113.17328,46.812276 c -14.792704,0.04692 -24.048774,2.736047 -35.648444,10.355469 -12.77451,8.39113 -21.28557,19.509275 -26.44531,34.550781 -2.33617,6.810321 -2.75188,9.688644 -2.81641,19.490234 -0.0552,8.3889 0.40889,13.07244 1.71289,17.30859 l 1.78711,5.80664 -3.06054,2.85938 c -3.63059,3.39147 -6.03825,8.69726 -6.00782,13.24414 0.0294,4.396 3.12101,10.96052 6.35938,13.50782 l 2.63086,2.07031 -1.62891,6.35156 c -2.0709,8.07355 -1.4029,19.12526 1.6543,27.35156 2.39164,6.4354 9.89513,17.81735 13.04297,19.78321 1.75263,1.09453 1.91992,2.48801 1.91992,16.00781 0,17.31586 0.80109,19.80757 7.3164,22.76562 3.85146,1.74862 6.96417,1.90168 39.199224,1.92188 32.1942,0.0202 35.2947,-0.12782 38.46875,-1.83008 6.88928,-3.69476 7.49527,-5.48493 7.68555,-22.67578 l 0.17188,-15.38281 4.00781,-4.17188 c 5.19942,-5.41104 9.71739,-13.97494 11.61133,-22.00976 1.90471,-8.08053 1.90806,-13.71784 0.0137,-21.75391 l -1.4961,-6.34766 2.53125,-1.99218 c 7.42895,-5.84362 8.24352,-18.58393 1.64063,-25.65235 l -2.82227,-3.02148 1.7793,-6.82032 c 2.18988,-8.3994 2.40024,-23.55861 0.44141,-31.82031 -5.31317,-22.40918 -23.39177,-41.302467 -46.04883,-48.126953 -4.39172,-1.32282 -9.21657,-1.797391 -18,-1.769531 z m -1.73828,8.626953 c 23.70659,-0.891339 46.11113,13.110959 55.24218,37.269531 3.43971,9.10063 3.95204,24.99411 1.10743,34.35938 -1.17596,3.87158 -2.47467,7.24729 -2.88672,7.50195 -0.41205,0.25467 -1.86823,-0.15485 -3.23633,-0.91211 -1.3681,-0.75726 -3.95079,-1.39456 -5.73828,-1.41406 -2.60637,-0.0284 -3.25,-0.44297 -3.25,-2.09961 -1e-5,-4.86014 -4.82736,-10.54209 -10.1836,-11.98438 l -3.8164,-1.02734 v -5.96094 -5.96289 H 112.72211 86.768976 l -0.29687,6.09766 -0.29883,6.09765 -4,1.36133 c -4.84522,1.64983 -8.19106,5.28705 -9.04297,9.82813 -0.55467,2.95664 -1.08881,3.44627 -4.29492,3.94336 -2.01364,0.3122 -4.60461,0.85149 -5.75781,1.19726 -1.86258,0.55846 -2.29245,-0.0643 -3.8379,-5.57226 -4.00357,-14.26862 -2.75365,-28.682116 3.61914,-41.73438 4.42418,-9.061251 15.9017,-20.574749 24.87891,-24.957031 7.7481,-3.78229 15.795084,-5.734136 23.697274,-6.03125 z M 93.673276,112.20876 h 19.000004 19 v 5.87305 5.87304 l 5.00976,0.48243 c 6.86639,0.65977 8.99024,2.78186 8.99024,8.98632 0,3.01472 -0.38526,4.66509 -1,4.28516 -0.55001,-0.33992 -1,-2.60025 -1,-5.02344 0,-5.24334 -1.60492,-6.47656 -8.4336,-6.47656 h -4.5664 v -6 -6 H 113.22406 95.772886 l -0.29883,5.75 -0.30078,5.75 -5.79492,0.51563 c -6.64831,0.59148 -7.66742,1.61575 -7.68946,7.73437 -0.008,2.3375 -0.46562,4.25 -1.01562,4.25 -0.55,0 -1,-1.9746 -1,-4.38867 0,-6.27271 2.3256,-8.74369 8.81445,-9.36719 l 5.18555,-0.49805 v -5.87304 z m 21.544924,19 c 4.35482,0 10.02452,2.46905 10.9082,4.75 0.37306,0.96293 -2.6663,1.2501 -13.23437,1.2461 l -13.718754,-0.006 3.000004,-2.41211 c 3.32532,-2.67396 6.62137,-3.57813 13.04492,-3.57813 z m -59.833984,11.63867 0.59375,4.93164 c 0.32604,2.71181 0.72856,5.78146 0.89453,6.82227 0.44473,2.78874 -1.77032,3.05754 -3.60547,0.4375 -2.12215,-3.0298 -2.0151,-7.08668 0.26172,-9.89844 z m 115.781254,2.24414 c 0.63382,-0.18761 1.32424,0.89587 1.91796,3.29883 0.71372,2.8886 0.5468,4.23508 -0.77343,6.25 -2.21487,3.3803 -4.53154,3.42439 -3.59375,0.0684 0.15368,-0.55 0.54519,-2.92587 0.86914,-5.28125 0.36972,-2.68816 0.94627,-4.14831 1.58008,-4.33594 z m -59.07422,2.1875 c 13.15416,-0.0387 23.7081,0.13955 23.45312,0.39454 -0.75915,0.75915 -43.800614,1.09416 -45.660154,0.35546 -0.94108,-0.37385 9.05286,-0.71129 22.207034,-0.75 z m -36.230474,10.92969 c 0.56476,0 0.778,0.6469 0.47461,1.4375 -2.14615,5.59279 -2.99581,11.48329 -3.00391,20.8125 -0.005,5.9125 -0.0794,10.75 -0.16601,10.75 -2.05569,0 -1.99925,-16.87631 0.0879,-26.05273 0.86909,-3.82108 2.04265,-6.94727 2.60742,-6.94727 z m 73.789064,0 c 2.40255,0 5.40619,18.49152 4.41992,27.20899 -0.36035,3.18509 -0.93393,5.79122 -1.27539,5.79101 -0.34145,-2.2e-4 -0.64774,-5.06272 -0.68164,-11.25 -0.0408,-7.44507 -0.61554,-13.02551 -1.69726,-16.5 -0.89898,-2.8875 -1.24333,-5.25 -0.76563,-5.25 z m -84.734374,3.66602 c 0.15449,-0.0134 0.3016,0.0222 0.4375,0.10937 0.86815,0.55655 0.91516,1.98909 0.17968,5.4375 -0.5493,2.57549 -0.85559,8.98333 -0.67968,14.23828 l 0.32031,9.55469 -3.28125,-0.004 c -4.13804,-0.003 -4.59675,-1.19503 -4.00586,-10.40235 0.49355,-7.6906 4.71204,-18.73214 7.0293,-18.93359 z M 160.31,162.20876 c 3.44283,0 8.37197,17.83333 6.97851,25.25 -0.61307,3.26305 -1.06609,3.75 -3.48047,3.75 h -2.77343 l -0.0312,-10.75 c -0.0169,-5.9125 -0.51189,-12.4375 -1.09961,-14.5 -0.88961,-3.12191 -0.82222,-3.75 0.40625,-3.75 z m -84.847664,38 c 0.44822,0 1.76589,2.25 2.92774,5 1.16183,2.75 1.74852,5 1.30468,5 -0.44384,0 -1.04032,-0.5625 -1.32422,-1.25 -0.2839,-0.6875 -1.23681,-2.9375 -2.11914,-5 -0.88233,-2.0625 -1.23729,-3.75 -0.78906,-3.75 z m -11.06445,0.0156 c 2.47313,0.0136 3.06352,0.72211 5.41601,6.5 1.45215,3.5666 2.28619,6.48437 1.85352,6.48437 -1.15065,0 -6.70679,-6.54596 -8.5,-10.01367 -1.53572,-2.97023 -1.52964,-2.9859 1.23047,-2.9707 z m 98.234374,0.0293 c 1.04243,0.008 0.78216,0.55 -0.30468,2.63282 -1.52652,2.9254 -8.53793,11.26479 -8.61133,10.24218 -0.0229,-0.31907 1.03874,-3.24407 2.35937,-6.5 1.99378,-4.91552 2.8521,-5.97438 5.0625,-6.24218 0.6548,-0.0793 1.14666,-0.13536 1.49414,-0.13282 z m -12.375,0.39454 c 0.35346,0.11482 -0.0389,1.80356 -1.44336,4.97851 -1.11503,2.52071 -2.51136,4.58203 -3.10156,4.58203 -0.59019,0 0.0905,-2.29493 1.51172,-5.09961 1.57997,-3.11792 2.67973,-4.57575 3.0332,-4.46093 z m -60.179684,0.56054 c 1.29462,0 4.93662,1.55591 8.09374,3.45703 10.948964,6.59311 21.836604,5.72786 33.705084,-2.67968 2.18723,-1.54942 2.88446,-0.78154 3.22852,3.55468 0.2263,2.85208 -0.11727,3.61745 -1.82617,4.07618 -1.15746,0.31071 -11.45695,0.57012 -22.88672,0.57812 -15.764354,0.0104 -20.874224,-0.2881 -21.164064,-1.23633 -0.21014,-0.6875 -0.63451,-2.7125 -0.94336,-4.5 -0.50196,-2.90523 -0.31117,-3.25 1.79297,-3.25 z m -12.78126,18 c 0.96259,0 0.7745,0.60246 -0.62304,2 -1.78398,1.78399 -2,3.33403 -2,14.34571 0,10.68966 0.24656,12.56693 1.83008,14 1.62671,1.47215 5.60988,1.65429 36.064454,1.65429 21.68809,0 34.94658,-0.3794 36.17187,-1.03515 1.7647,-0.94444 1.9336,-2.21061 1.9336,-14.44336 -1e-5,-12.72195 -0.11389,-13.48781 -2.22266,-14.96485 -1.75579,-1.2298 -1.87263,-1.55664 -0.55664,-1.55664 3.68755,0 4.7793,3.83168 4.7793,16.76953 -1e-5,11.75029 -0.11459,12.43687 -2.45508,14.77735 l -2.45312,2.45312 -34.29688,-0.0137 c -25.618684,-0.011 -34.927434,-0.33559 -36.794924,-1.2793 -2.47026,-1.24831 -2.50251,-1.43266 -2.77735,-15.59765 -0.28017,-14.44001 0.25,-17.10938 3.40039,-17.10938 z m 20.17188,0.26172 c 4.510594,0.007 10.495064,0.10775 16.863284,0.30274 l 23.15625,0.70898 0.0742,8.11328 c 0.0842,9.16565 -0.5925,10.93324 -4.00195,10.45117 -2.21159,-0.3127 -2.40767,-0.83369 -2.68164,-7.08789 -0.22356,-5.10354 -0.65043,-6.75 -1.75,-6.75 -1.12956,0 -1.45508,1.51548 -1.45508,6.78711 0,6.27963 -0.16403,6.79953 -2.20313,6.95313 -3.69359,0.27823 -4.79687,-1.54547 -4.79687,-7.93555 0,-5.1337 -0.24031,-5.90244 -1.75,-5.60156 -1.3348,0.26602 -1.77401,1.40936 -1.84961,4.82226 -0.16061,7.24763 -0.3003,7.71681 -2.49609,8.29102 -4.05541,1.06052 -4.9043,-0.13665 -4.9043,-6.92188 0,-5.01601 -0.32309,-6.39453 -1.5,-6.39453 -1.17676,0 -1.5,1.3765 -1.5,6.38672 0,6.37411 -0.005,6.38879 -3.0918,6.8418 -3.56813,0.52369 -3.756514,0.19395 -4.130864,-7.22852 -0.20672,-4.09894 -0.65944,-5.5 -1.77734,-5.5 -1.14157,0 -1.5703,1.49343 -1.79688,6.25 -0.29551,6.2037 -0.31971,6.25 -3.28125,6.25 -3.5018,0 -3.58324,-0.18888 -4.3164,-10.15039 -0.48902,-6.64446 -0.33541,-7.73931 1.16601,-8.32226 0.47544,-0.18459 3.51284,-0.27249 8.02344,-0.26563 z" />
      <path
         id="path992"
         style="fill:#c3373b"
         d="M 111.97569,46.79841 C 99.31491,46.89385 90.4585,49.350455 79.40342,55.82966 55.0787,70.08599 42.11229,102.41534 50.02842,129.07185 l 1.5293,5.15039 -3.54492,3.65039 c -5.98047,6.1579 -6.8995,14.71844 -2.3711,22.08594 1.09893,1.7879 2.91691,3.8937 4.03906,4.67968 1.81064,1.26822 1.91046,1.80184 0.88477,4.74414 -0.63568,1.82351 -1.41321,6.46773 -1.72656,10.32032 -1.06123,13.04726 3.67278,26.43214 12.73828,36.01757 l 4.89844,5.17969 v 14.75 c 0,16.93687 0.76403,19.24169 7.46875,22.56055 3.79267,1.87739 6.06835,1.99535 38.26172,1.99609 37.99206,8.8e-4 40.22102,-0.31792 44.5332,-6.36328 2.05857,-2.88597 2.25229,-4.35979 2.42383,-18.46484 l 0.18554,-15.32813 4.62891,-4.94726 c 9.85883,-10.53988 14.20614,-26.60302 11.18359,-41.32227 -1.56759,-7.63386 -1.55804,-7.97344 0.26172,-9.24805 2.57498,-1.80358 5.68751,-7.11698 6.54688,-11.17578 0.97409,-4.60058 -1.10671,-11.37295 -4.58789,-14.93359 l -2.87891,-2.94531 2.11719,-8.36914 c 1.74606,-6.90473 2.02042,-10.21228 1.57031,-18.88672 -0.90984,-17.534107 -6.48858,-29.882478 -19.27734,-42.667971 -6.52051,-6.518838 -9.83779,-8.954603 -16.54688,-12.148437 -11.3301,-5.393646 -17.36352,-6.705622 -30.39062,-6.607422 z m 2.48437,8.625 c 4.13138,0.02975 8.11257,0.419593 11.40235,1.195312 20.11352,4.742709 36.88964,20.907094 42.1289,40.595704 2.18991,8.229444 1.92248,23.366574 -0.55469,31.386724 -1.1221,3.63294 -2.3596,6.57009 -2.75,6.52539 -0.3904,-0.0447 -2.06093,-0.69956 -3.71093,-1.45508 -1.65001,-0.75553 -4.23751,-1.39512 -5.75,-1.41992 -2.09087,-0.0343 -2.75,-0.53536 -2.75,-2.09375 -10e-6,-5.02557 -4.96244,-10.78832 -10.20899,-11.85547 -3.2533,-0.66173 -3.29358,-0.74122 -3.58789,-6.88282 l -0.29883,-6.21289 H 112.42881 86.47569 v 6.5 c 0,5.88583 -0.19284,6.5 -2.04883,6.5 -5.13163,0 -10.04368,4.59698 -11.3711,10.64063 -0.58039,2.6425 -1.23945,3.19719 -4.38085,3.68359 -2.03386,0.31491 -4.62007,0.84884 -5.7461,1.1875 -1.77855,0.53492 -2.28694,-0.14568 -3.875,-5.18359 -9.03685,-28.668181 7.14019,-60.297121 36.00195,-70.388674 5.21585,-1.823726 12.51867,-2.772233 19.4043,-2.722656 z m -20.98437,56.7832 h 19 19 v 6 6 h 4.36523 c 6.64665,0 9.63477,2.81545 9.63477,9.07422 0,2.71008 -0.45,4.92578 -1,4.92578 -0.55001,0 -1,-1.99202 -1,-4.42773 -10e-6,-5.86801 -1.8148,-7.57227 -8.07032,-7.57227 h -4.92968 v -6 -6 h -17.5 -17.5 v 6 6 h -5.34375 c -6.5982,0 -8.65625,1.86178 -8.65625,7.83008 0,2.29418 -0.45,4.16992 -1,4.16992 -0.55,0 -1,-2.04492 -1,-4.54492 0,-3.49272 0.56902,-5.11394 2.45507,-7 1.88606,-1.88606 3.5073,-2.45508 7,-2.45508 h 4.54493 v -6 z m 23.30078,13.51368 c 0.96295,0.15607 2.29733,0.79658 4.42969,2.02734 2.62315,1.51405 6.14541,4.22247 7.82617,6.01953 l 3.05469,3.26758 -2.92969,0.58594 c -3.91526,0.78306 -28.55082,0.56364 -31.56641,-0.28125 -2.31516,-0.64864 -2.25584,-0.77403 2,-4.25196 5.4386,-4.4445 9.83157,-6.65217 12.1836,-6.12109 0.98892,0.2233 2.44254,-0.12928 3.23046,-0.7832 0.28467,-0.23625 0.57737,-0.39231 0.91602,-0.46094 0.25398,-0.0515 0.53448,-0.054 0.85547,-0.002 z m -61.58985,17.12499 0.59375,4.93165 c 0.32604,2.71181 0.72857,5.78145 0.89454,6.82226 0.44473,2.78874 -1.77032,3.05754 -3.60547,0.4375 -2.12215,-3.0298 -2.0151,-7.08668 0.26172,-9.89844 z m 115.61329,1.45704 c 0.47433,0.11579 1.04117,0.71976 1.64062,1.83984 1.48388,2.77267 1.27738,6.27357 -0.52148,8.8418 -2.54441,3.63266 -4.92275,2.61528 -3.37891,-1.44532 0.51489,-1.35425 0.93555,-4.00728 0.93555,-5.89648 0,-2.37248 0.53368,-3.53283 1.32422,-3.33984 z m -59.57422,2.91992 c 17.51021,-0.01 27.25,0.34179 27.25,0.98437 0,1.32788 -50.94525,1.32788 -53,0 -0.98879,-0.63901 7.7869,-0.97427 25.75,-0.98437 z m -35.77735,10.79687 c 0.12751,-0.0499 0.23862,-0.0475 0.33203,0 0.56046,0.28501 0.49679,2.20917 -0.33789,4.38672 -0.69592,1.81558 -1.53507,9.07894 -1.86523,16.14063 -0.69186,14.79784 -2.10156,15.9416 -2.10156,1.70508 0,-8.22401 1.9561,-20.33502 3.54101,-21.91993 0.16023,-0.16023 0.30414,-0.26255 0.43164,-0.3125 z m 73.89258,0.1875 c 2.63613,0 5.7201,18.46939 4.5918,27.5 -0.37795,3.025 -0.97315,5.5 -1.32227,5.5 -0.34913,0 -0.66382,-4.8375 -0.69922,-10.75 -0.0558,-9.32147 -0.92201,-15.14284 -3.09765,-20.8125 -0.30339,-0.7906 -0.0661,-1.4375 0.52734,-1.4375 z m -65.65039,0.41407 c 0.26426,-0.0645 0.47485,-0.0585 0.56836,0.0352 0.18701,0.18701 -0.33207,2.52472 -1.15234,5.19531 -1.12195,3.65277 -1.53676,4.23616 -1.67579,2.35547 -0.29606,-4.00518 0.16855,-6.44827 1.36915,-7.19531 0.30745,-0.1913 0.62636,-0.32617 0.89062,-0.39062 z m 56.97656,0.71679 c 0.17183,0.0503 0.48958,0.43511 0.93164,1.19531 0.58413,1.00375 0.84927,2.0355 0.5918,2.29297 -0.25747,0.25747 -0.74886,-0.26255 -1.0918,-1.15625 -0.60311,-1.57168 -0.71803,-2.41584 -0.43164,-2.33203 z m -75.71484,2.06836 c 0.91897,0.23203 1.15581,2.44321 0.39258,6 -0.55445,2.58378 -0.86537,8.99701 -0.68946,14.25195 l 0.32032,9.55469 -3.08203,-0.004 c -1.69583,-0.001 -3.38333,-0.3013 -3.75,-0.66797 -2.52253,-2.52253 1.01109,-22.77394 4.84765,-27.7793 0.58834,-0.76757 1.10365,-1.20006 1.52539,-1.33203 0.15816,-0.0495 0.30427,-0.0566 0.43555,-0.0234 z m 95.18555,0.80078 c 3.71481,0 8.76546,19.17553 6.95312,26.39649 -0.51769,2.06262 -1.26075,2.60351 -3.57226,2.60351 h -2.91993 l 0.0215,-10.25 c 0.0118,-5.6375 -0.41788,-12.1625 -0.95508,-14.5 -0.80299,-3.49404 -0.71862,-4.25 0.47266,-4.25 z m -77.33594,22.3418 c 0.18668,-0.18668 0.8234,1.23563 1.41406,3.16016 0.59065,1.92453 0.72079,3.49804 0.29102,3.49804 -0.78944,0 -2.33353,-6.02975 -1.70508,-6.6582 z m 58.20898,4.05664 c 0.10159,-0.0241 0.19451,-8.3e-4 0.27149,0.0762 0.30789,0.30789 0.002,1.11463 -0.68164,1.79297 -0.98762,0.98026 -1.10323,0.86465 -0.56055,-0.56055 0.28165,-0.73967 0.66594,-1.23615 0.9707,-1.30859 z m 22.5918,11.45703 -1.58203,3.0586 c -0.87003,1.68246 -2.96933,4.63984 -4.66602,6.57226 -1.69669,1.93243 -3.46082,3.51367 -3.91992,3.51367 -0.45911,0 0.43784,-2.8125 1.99414,-6.25 2.33006,-5.14655 3.3018,-6.30668 5.50195,-6.57226 z m -99.29492,0.14453 c 2.55423,0 3.08409,0.6373 5.41015,6.5 1.4184,3.575 2.25352,6.5 1.85547,6.5 -1.41906,0 -10.09765,-10.6611 -10.09765,-12.40429 0,-0.3276 1.27448,-0.59571 2.83203,-0.59571 z m 10.96875,0 c 0.69692,0 5.19922,8.25036 5.19922,9.52735 0,1.82714 -1.95852,-0.26082 -3.80078,-4.05274 -2.43899,-5.02019 -2.55468,-5.47461 -1.39844,-5.47461 z m 14.80469,0 c 0.79328,0 3.6877,1.54414 6.43164,3.43164 9.80524,6.74482 22.01501,6.80938 31.70117,0.16602 3.87433,-2.65725 5.47334,-3.18184 8.57422,-2.81445 2.28155,0.27032 3.64233,0.9057 3.38867,1.58398 -0.2331,0.62333 -0.0915,2.03281 0.31445,3.13281 0.40592,1.1 0.28765,2.5625 -0.26172,3.25 -0.75347,0.94291 -7.45042,1.25 -27.25976,1.25 H 86.71006 l -0.60351,-2.25 c -1.46821,-5.47861 -0.30403,-7.75 3.97461,-7.75 z m 59.59375,0 c 1.30016,0 0.93222,1.82476 -1.21875,6.04102 -2.90119,5.6868 -4.20054,4.88867 -1.69532,-1.04102 1.16184,-2.75 2.47323,-5 2.91407,-5 z m -64.19922,19 h 27.03125 c 24.08029,0 27.10015,0.17857 27.6582,1.63282 0.34454,0.89785 0.10555,2.46664 -0.53125,3.48632 -0.6368,1.01968 -1.1582,4.58998 -1.1582,7.9336 -10e-6,7.65369 -1.16118,9.94726 -5.03516,9.94726 h -2.96484 v -8.5 c 0,-6.88889 -0.28432,-8.5 -1.5,-8.5 -1.21569,0 -1.5,1.61111 -1.5,8.5 v 8.5 h -3.375 c -2.98001,0 -3.44815,-0.36574 -4,-3.125 -0.34376,-1.71875 -0.625,-5.54375 -0.625,-8.5 -1e-5,-8.34916 -1.87909,-6.32691 -2.20703,2.375 l -0.29297,7.75 -3.75,0.31055 -3.75,0.31055 v -8.06055 c 0,-6.49811 -0.29073,-8.06055 -1.5,-8.06055 -1.20834,0 -1.5,1.55556 -1.5,8 v 8 h -3.39258 c -4.11037,0 -4.60742,-1.03313 -4.60742,-9.58203 0,-3.61214 -0.43721,-6.41797 -1,-6.41797 -0.57186,0 -1,3.01033 -1,7.03125 0,7.63671 -0.80098,8.73847 -5.50196,7.5586 -2.36528,-0.59364 -2.49804,-0.99673 -2.49804,-7.60742 0,-5.53863 -0.30991,-6.98243 -1.5,-6.98243 -1,0 -1.5,-1 -1.5,-3 z m 62.41797,0 c 3.71827,0 4.51738,2.86343 4.55078,16.29688 0.0305,12.27251 -0.0696,12.89578 -2.42383,15.25 l -2.45313,2.45312 h -34.93554 c -43.16102,0 -39.53714,1.46753 -39.9336,-16.1582 -0.30932,-13.75176 0.63013,-17.18721 4.80274,-17.56445 1.36123,-0.12307 1.79961,0.0414 0.97461,0.36523 -3.41965,1.34232 -4,3.64811 -4,15.89453 0,10.50449 0.24952,12.37821 1.83007,13.8086 1.6275,1.47286 5.63555,1.65429 36.42774,1.65429 30.12106,0 34.80386,-0.20229 36.17187,-1.57031 1.2658,-1.26579 1.57032,-4.075 1.57032,-14.44336 -10e-6,-12.16781 -0.12172,-12.95813 -2.22266,-14.42969 -1.98359,-1.38936 -2.02144,-1.55664 -0.35937,-1.55664 z" />
      <path
         id="path990"
         style="fill:#4d4e53"
         d="m 111.97569,46.798405 c -12.660789,0.0954 -21.517189,2.55205 -32.572269,9.03125 -24.32472,14.25633 -37.29113,46.585675 -29.375,73.242185 l 1.5293,5.15039 -3.54492,3.65039 c -5.98047,6.1579 -6.8995,14.71844 -2.3711,22.08594 1.09893,1.7879 2.91692,3.89371 4.03907,4.67969 1.81063,1.26822 1.91045,1.80184 0.88476,4.74414 -0.63568,1.82351 -1.41321,6.46772 -1.72656,10.32031 -1.06123,13.04726 3.67278,26.43215 12.73828,36.01758 l 4.89844,5.17969 v 14.75 c 0,16.93686 0.76403,19.24168 7.46875,22.56054 3.79267,1.87739 6.06834,1.99536 38.261719,1.9961 37.99205,8.8e-4 40.22102,-0.31792 44.5332,-6.36328 2.05857,-2.88597 2.25229,-4.35981 2.42383,-18.46485 l 0.18555,-15.32812 4.6289,-4.94727 c 9.85883,-10.53988 14.20615,-26.60301 11.1836,-41.32226 -1.56759,-7.63386 -1.55805,-7.97344 0.26171,-9.24805 2.57498,-1.80359 5.68751,-7.11698 6.54688,-11.17578 0.97409,-4.60058 -1.10671,-11.37296 -4.58789,-14.9336 l -2.87891,-2.94531 2.11719,-8.36914 c 1.74606,-6.90473 2.02042,-10.21228 1.57031,-18.88672 -0.90984,-17.534095 -6.48858,-29.882465 -19.27734,-42.667965 -6.52051,-6.51884 -9.83779,-8.9546 -16.54688,-12.14843 -11.33009,-5.39365 -17.36352,-6.70563 -30.39062,-6.60743 z m 2.48437,8.625 c 4.13137,0.0298 8.11257,0.4196 11.40235,1.19532 20.11352,4.7427 36.88964,20.90709 42.1289,40.5957 2.18991,8.229435 1.92249,23.366565 -0.55468,31.386715 -1.1221,3.63294 -2.3596,6.57009 -2.75,6.52539 -0.3904,-0.0447 -2.06094,-0.69956 -3.71094,-1.45508 -1.65001,-0.75553 -4.23751,-1.39512 -5.75,-1.41992 -2.09087,-0.0343 -2.75,-0.53536 -2.75,-2.09375 -10e-6,-5.02557 -4.96244,-10.78831 -10.20899,-11.85547 -3.2533,-0.66172 -3.29358,-0.74122 -3.58789,-6.88281 l -0.29882,-6.21289 H 112.42881 86.475691 v 6.5 c 0,5.88582 -0.19284,6.5 -2.04883,6.5 -5.13163,0 -10.04368,4.59697 -11.37109,10.64062 -0.58039,2.6425 -1.23946,3.1972 -4.38086,3.6836 -2.03386,0.31491 -4.62007,0.84884 -5.7461,1.1875 -1.77855,0.53492 -2.28694,-0.14569 -3.875,-5.1836 -9.03685,-28.668175 7.14018,-60.297115 36.00196,-70.388665 5.215839,-1.82373 12.518649,-2.77223 19.404289,-2.72266 z M 93.475691,112.20661 h 18.999999 19 v 6 6 h 4.36523 c 6.64665,0 9.63477,2.81545 9.63477,9.07422 0,2.71008 -0.45,4.92578 -1,4.92578 -0.55001,0 -1,-1.99203 -1,-4.42774 -10e-6,-5.86801 -1.81479,-7.57226 -8.07031,-7.57226 h -4.92969 v -6 -6 h -17.5 -17.499999 v 6 6 h -5.34375 c -6.5982,0 -8.65625,1.86178 -8.65625,7.83007 0,2.29418 -0.45,4.16993 -1,4.16993 -0.55,0 -1,-2.04492 -1,-4.54493 0,-3.49272 0.56902,-5.11394 2.45508,-7 1.88606,-1.88607 3.5073,-2.45507 7,-2.45507 h 4.54492 v -6 z m 23.298829,13.51367 c 0.96295,0.15608 2.29928,0.79658 4.43164,2.02734 2.62315,1.51405 6.14541,4.22247 7.82617,6.01953 l 3.05469,3.26758 -2.92969,0.58594 c -3.91526,0.78306 -28.55082,0.56364 -31.566409,-0.28125 -2.31516,-0.64864 -2.25584,-0.77402 2,-4.25195 5.438599,-4.4445 9.831569,-6.65218 12.183599,-6.1211 0.98893,0.2233 2.44255,-0.12928 3.23047,-0.7832 0.28467,-0.23625 0.57736,-0.39231 0.91601,-0.46094 0.25399,-0.0515 0.53253,-0.054 0.85352,-0.002 z m -61.587889,17.125 0.59375,4.93164 c 0.32604,2.71181 0.72856,5.78146 0.89453,6.82226 0.44473,2.78873 -1.77032,3.05753 -3.60547,0.4375 -2.12215,-3.02979 -2.0151,-7.08667 0.26172,-9.89843 z m 115.328119,1.44726 c 0.0902,-0.0179 0.18634,-0.0144 0.28516,0.01 0.47433,0.11579 1.04117,0.71976 1.64062,1.83984 1.48388,2.77267 1.27738,6.27357 -0.52148,8.8418 -2.54441,3.63266 -4.92275,2.61529 -3.37891,-1.44531 0.51489,-1.35425 0.93555,-4.00729 0.93555,-5.89649 0,-2.07592 0.40731,-3.22436 1.03906,-3.34961 z m -59.28906,2.92969 c 17.51022,-0.01 27.25,0.3418 27.25,0.98438 0,1.32788 -50.945249,1.32788 -52.999999,0 -0.98879,-0.63901 7.7869,-0.97428 25.749999,-0.98438 z m -35.777349,10.79688 c 0.12751,-0.0499 0.23863,-0.0475 0.33204,0 0.56046,0.28501 0.49679,2.20917 -0.33789,4.38672 -0.69592,1.81558 -1.53508,9.07893 -1.86524,16.14062 -0.69186,14.79784 -2.10156,15.94162 -2.10156,1.70508 0,-8.224 1.9561,-20.33501 3.54101,-21.91992 0.16023,-0.16023 0.30414,-0.26256 0.43164,-0.3125 z m 17.19336,0.1875 h 19.833989 19.83594 l 1.80468,4.72656 c 2.55155,6.68114 2.37392,17.37703 -0.39062,23.52344 l -2.13672,4.75 h -4.48242 c -0.0934,0.004 -0.18474,0.0137 -0.2793,0.0137 h -16.42187 c -0.11751,0.007 -0.23176,0.0157 -0.36328,0 H 99.657331 c -0.23082,0 -0.45793,-0.0153 -0.68164,-0.041 -0.2098,0.003 -0.33986,0.0274 -0.55664,0.0274 h -5.05469 l -2.13086,-4.75 c -2.79102,-6.22205 -2.98285,-16.86754 -0.42383,-23.5 z m 56.699219,0 c 2.63613,0 5.7201,18.4694 4.5918,27.5 -0.37795,3.02501 -0.97315,5.5 -1.32227,5.5 -0.34913,0 -0.66381,-4.8375 -0.69921,-10.75 -0.0558,-9.32146 -0.92202,-15.14284 -3.09766,-20.8125 -0.30339,-0.7906 -0.0661,-1.4375 0.52734,-1.4375 z m -65.302729,0.37304 c 0.09737,0.005 0.17395,0.0294 0.2207,0.0762 0.18701,0.18701 -0.33207,2.52472 -1.15234,5.19531 -1.12195,3.65277 -1.53675,4.23616 -1.67578,2.35547 -0.29607,-4.00518 0.16854,-6.44828 1.36914,-7.19532 0.30745,-0.1913 0.62636,-0.32617 0.89062,-0.39062 0.13213,-0.0323 0.25029,-0.0462 0.34766,-0.041 z m 56.628909,0.75782 c 0.17182,0.0503 0.48958,0.43511 0.93164,1.19531 0.58413,1.00375 0.84926,2.0355 0.59179,2.29297 -0.25747,0.25747 -0.74885,-0.26255 -1.09179,-1.15625 -0.60311,-1.57168 -0.71803,-2.41584 -0.43164,-2.33203 z m -75.714849,2.06836 c 0.91897,0.23203 1.15581,2.4432 0.39258,6 -0.55446,2.58378 -0.86536,8.99701 -0.68945,14.25195 l 0.32031,9.55469 -3.08203,-0.004 c -1.69583,-0.001 -3.38333,-0.3013 -3.75,-0.66797 -2.52253,-2.52254 1.01109,-22.77394 4.84765,-27.7793 0.58834,-0.76757 1.10365,-1.20006 1.52539,-1.33203 0.15815,-0.0495 0.30427,-0.0566 0.43555,-0.0234 z m 95.185549,0.80078 c 3.71481,0 8.76546,19.17551 6.95312,26.39648 -0.51769,2.06262 -1.26075,2.60352 -3.57226,2.60352 h -2.91992 l 0.0215,-10.25 c 0.0118,-5.63749 -0.41788,-12.1625 -0.95508,-14.5 -0.80299,-3.49404 -0.71862,-4.25 0.47266,-4.25 z m -66.343749,15.19336 -0.14649,0.23828 0.14649,0.18359 z m -10.99219,7.14843 c 0.18668,-0.18668 0.8234,1.23563 1.41406,3.16016 0.59065,1.92454 0.72079,3.49805 0.29102,3.49805 -0.78944,0 -2.33353,-6.02976 -1.70508,-6.65821 z m 58.208979,4.05664 c 0.1016,-0.0241 0.19451,-8.4e-4 0.27149,0.0762 0.30789,0.30789 0.002,1.11462 -0.68164,1.79296 -0.98762,0.98026 -1.10323,0.86466 -0.56055,-0.56054 0.28165,-0.73967 0.66594,-1.23616 0.9707,-1.3086 z m 22.5918,11.45704 -1.58203,3.05859 c -0.87003,1.68246 -2.96932,4.63984 -4.66601,6.57227 -1.6967,1.93243 -3.46083,3.51367 -3.91993,3.51367 -0.45911,0 0.43784,-2.8125 1.99414,-6.25 2.33006,-5.14656 3.30181,-6.30669 5.50196,-6.57227 z m -99.294919,0.14453 c 2.55423,0 3.0841,0.63729 5.41016,6.5 1.4184,3.575 2.25352,6.5 1.85546,6.5 -1.41906,0 -10.09765,-10.66111 -10.09765,-12.4043 0,-0.3276 1.27448,-0.5957 2.83203,-0.5957 z m 10.96875,0 c 0.69692,0 5.19922,8.25035 5.19922,9.52734 0,1.82714 -1.95852,-0.26081 -3.80078,-4.05273 -2.43899,-5.0202 -2.55468,-5.47461 -1.39844,-5.47461 z m 14.80469,0 c 0.79327,0 3.68769,1.54414 6.43164,3.43164 9.805229,6.74482 22.015009,6.80938 31.701169,0.16601 3.87433,-2.65725 5.47334,-3.18184 8.57422,-2.81445 2.28155,0.27032 3.64233,0.9057 3.38867,1.58398 -0.2331,0.62333 -0.0915,2.03281 0.31445,3.13282 0.40592,1.1 0.28766,2.5625 -0.26171,3.25 -0.75347,0.94291 -7.45044,1.25 -27.25977,1.25 H 86.710061 l -0.60351,-2.25 c -1.46821,-5.47862 -0.30404,-7.75 3.97461,-7.75 z m 27.121089,0 c 1.4342,0 2.42057,0.16175 2.19141,0.35937 -1.17815,1.01601 -6.02323,1.62304 -5.44141,0.68164 0.35354,-0.57204 1.8158,-1.04101 3.25,-1.04101 z m 32.47266,0 c 1.30016,0 0.93222,1.82475 -1.21875,6.04101 -2.90119,5.6868 -4.20053,4.88868 -1.69532,-1.04101 1.16184,-2.75001 2.47323,-5 2.91407,-5 z m -41.50781,0.0996 c 1.75504,-0.0548 3.46865,0.35039 3.80859,0.90039 0.71072,1.14998 -0.90919,1.14998 -4.5,0 -2.3875,-0.76461 -2.35596,-0.80519 0.69141,-0.90039 z M 85.475691,219.2066 h 27.031249 c 24.08028,0 27.10015,0.17856 27.6582,1.63281 0.34454,0.89785 0.10555,2.46665 -0.53125,3.48633 -0.6368,1.01968 -1.1582,4.58997 -1.1582,7.93359 -10e-6,7.65368 -1.16119,9.94727 -5.03516,9.94727 h -2.96484 v -8.5 c 0,-6.88889 -0.28432,-8.5 -1.5,-8.5 -1.21569,0 -1.5,1.61111 -1.5,8.5 v 8.5 h -3.375 c -2.98001,0 -3.44815,-0.36574 -4,-3.125 -0.34376,-1.71875 -0.625,-5.54375 -0.625,-8.5 -1e-5,-8.34916 -1.87909,-6.32691 -2.20703,2.375 l -0.29297,7.75 -3.75,0.31054 -3.75,0.31055 v -8.06055 c 0,-6.49811 -0.29073,-8.06054 -1.5,-8.06054 -1.20834,0 -1.5,1.55556 -1.5,8 v 8 h -3.39258 c -4.110369,0 -4.607419,-1.03314 -4.607419,-9.58203 0,-3.61214 -0.4372,-6.41797 -1,-6.41797 -0.57185,0 -1,3.01033 -1,7.03125 0,7.6367 -0.80098,8.73846 -5.50195,7.55859 -2.36529,-0.59364 -2.49805,-0.99674 -2.49805,-7.60742 0,-5.53862 -0.30992,-6.98242 -1.5,-6.98242 -1,0 -1.5,-1 -1.5,-3 z m 62.417969,0 c 3.71827,0 4.51738,2.86342 4.55078,16.29687 0.0305,12.2725 -0.0696,12.89578 -2.42383,15.25 l -2.45312,2.45313 h -34.93555 c -43.161029,0 -39.537129,1.46752 -39.933599,-16.15821 -0.30932,-13.75175 0.63014,-17.18721 4.80274,-17.56445 1.36124,-0.12307 1.79961,0.0414 0.97461,0.36523 -3.41966,1.34233 -4,3.64812 -4,15.89454 0,10.50448 0.24952,12.3782 1.83008,13.80859 1.62749,1.47286 5.63553,1.6543 36.427729,1.6543 30.12105,0 34.80387,-0.2023 36.17188,-1.57032 1.2658,-1.26579 1.57031,-4.075 1.57031,-14.44335 -10e-6,-12.16782 -0.12172,-12.95813 -2.22266,-14.42969 -1.98359,-1.38935 -2.02144,-1.55664 -0.35937,-1.55664 z" />
      <path
         id="path988"
         style="fill:#2f2f31;fill-opacity:1"
         d="m 114.80743,46.829423 c -6.58956,-0.18462 -13.15022,0.39997 -18.228513,1.79297 -23.09353,6.33466 -41.53978,25.35092 -47.1582,48.61719 -1.8291,7.574417 -1.58644,23.083587 0.48242,30.828127 l 1.6914,6.32617 -3.49414,3.86719 c -7.0762,7.8325 -6.67329,18.37506 0.97461,25.46289 2.36781,2.19441 2.37502,2.25409 0.92188,9.11328 -1.81799,8.58141 -1.82514,11.19534 -0.0488,19.57618 1.88186,8.87907 6.00724,17.06218 11.80078,23.40625 l 4.75,5.20117 v 15.0332 c 0,14.87385 0.0294,15.06691 2.70117,18.24219 1.48523,1.7651 4.07273,3.80654 5.75,4.53711 2.33349,1.01641 11.08711,1.33729 37.279303,1.36719 38.00212,0.0435 40.21501,-0.27043 44.5332,-6.32422 2.06316,-2.89241 2.24815,-4.32266 2.38086,-18.40821 l 0.14453,-15.27343 3.95313,-4.29102 c 10.81608,-11.73407 15.1848,-28.85041 11.34375,-44.44922 -1.26566,-5.13995 -1.23348,-5.34773 1.20898,-7.61133 7.54778,-6.99504 8.22663,-17.52278 1.61524,-25.05273 l -3.00586,-3.42383 1.58203,-5.8125 c 2.48161,-9.11696 2.97517,-22.58043 1.14258,-31.179697 -4.77673,-22.41426 -22.14566,-41.68722 -43.91407,-48.72656 -5.19804,-1.68092 -11.8167,-2.63374 -18.40625,-2.81836 z m -1.57617,8.59961 c 1.06943,0.0129 2.15789,0.0491 3.26758,0.10742 11.21244,0.5895 18.71291,2.97727 27.66016,8.80664 14.24299,9.27967 23.02118,23.26779 25.41796,40.500007 1.16158,8.35138 0.0216,19.61105 -2.66601,26.32813 -0.89557,2.23826 -1.91675,4.01482 -2.26953,3.94922 -0.35278,-0.0656 -2.21758,-0.71502 -4.14258,-1.44336 -1.92501,-0.72833 -4.40001,-1.35087 -5.5,-1.38477 -1.48647,-0.0459 -2.38517,-1.2775 -3.5,-4.79297 -1.63273,-5.1485 -6.36068,-9.25976 -10.64844,-9.25976 -2.22825,0 -2.35156,-0.34231 -2.35156,-6.5 v -6.5 h -26 -26.000003 v 6.5 c 0,5.96745 -0.17357,6.5 -2.13086,6.5 -4.15569,0 -8.74336,3.87944 -10.52734,8.90234 -1.64512,4.63196 -1.8359,4.79013 -7.21289,5.91797 -6.53124,1.36994 -6.43639,1.45794 -8.59961,-8.01758 -4.539,-19.8821 0.85487,-38.406497 15.38476,-52.835947 11.26251,-11.18466 22.21069,-16.27404 36.666023,-16.74609 1.03252,-0.0337 2.08291,-0.0442 3.15234,-0.0312 z M 93.498837,112.23959 h 19.500003 19.5 v 6 6 h 3.56641 c 3.6621,0 7.36879,1.45474 8.66797,3.40039 0.40406,0.60516 0.74198,3.12539 0.75,5.60156 l 0.0156,4.50391 -25.75,0.33398 c -24.632113,0.31965 -31.817493,-0.1114 -30.748053,-1.8418 0.26826,-0.43406 3.27819,-2.24127 6.6875,-4.01562 3.4093,-1.77435 6.818293,-3.84561 7.576173,-4.60352 0.75793,-0.75792 1.74289,-1.3789 2.18946,-1.3789 0.44656,0 1.04828,-0.9 1.33594,-2 0.58954,-2.25441 2.70898,-2.74012 2.70898,-0.6211 0,2.01994 2.49788,3.75082 4.37305,3.03125 0.89471,-0.34334 1.62695,-1.47446 1.62695,-2.51562 -10e-6,-2.75492 2.48681,-2.31757 3.85156,0.67773 1.40605,3.08594 4.20895,2.91914 5.64063,-0.33593 0.54508,-1.2393 1.73259,-2.48915 2.64062,-2.77735 1.53585,-0.48746 2.82162,-3.28546 2.85352,-6.20898 0.0104,-0.9529 -4.14571,-1.25 -17.48633,-1.25 H 95.498837 v 6 6 h -4.77734 c -6.80183,0 -9.22266,1.98338 -9.22266,7.55664 0,2.44382 -0.45,4.44336 -1,4.44336 -0.55,0 -1,-2.04492 -1,-4.54492 0,-3.49272 0.56902,-5.11394 2.45508,-7 1.88606,-1.88606 3.5073,-2.45508 7,-2.45508 h 4.54492 v -6 z m -38.16406,31.16015 c 0.47319,0.16241 0.68527,1.18242 0.71484,3.08985 0.0277,1.7875 0.2527,4.81204 0.5,6.7207 0.32883,2.53799 0.0462,3.55212 -1.05078,3.77344 -3.56413,0.71903 -5.29619,-7.44852 -2.44336,-11.52149 1.07135,-1.52957 1.80611,-2.22491 2.2793,-2.0625 z m 115.076173,0.94922 c 0.55101,-0.18596 1.29191,0.40458 2.05273,1.82617 1.65273,3.08816 1.20345,7.50765 -1.0039,9.87696 -1.12142,1.20371 -2.19785,2.1875 -2.39258,2.1875 -1.05694,0 -1.38137,-3.35682 -0.53906,-5.57227 0.53457,-1.40603 0.9707,-3.87799 0.9707,-5.49219 0,-1.67837 0.36111,-2.6402 0.91211,-2.82617 z m -15.4707,2.89063 c 0.85746,0 1.55859,0.45 1.55859,1 -1e-5,0.55 -0.42387,1 -0.94141,1 -0.51754,0 -1.21867,-0.45 -1.55859,-1 -0.33993,-0.55 0.0839,-1 0.94141,-1 z m -49.19141,0.0156 c 24.41922,0.01 36.73331,0.34891 35.75,0.98438 -2.06909,1.33714 -73.000003,1.33714 -73.000003,0 0,-0.64904 13.07312,-0.99438 37.250003,-0.98438 z m -25.746093,10.98438 h 5.4082 l -1.54688,4.25 c -2.05776,5.65327 -2.04917,18.03391 0.0176,23.62695 1.99823,5.40769 2.0197,5.12305 -0.38281,5.12305 -1.1,0 -2,-0.16335 -2,-0.36328 0,-0.19993 -0.41256,-2.56243 -0.91797,-5.25 -0.50542,-2.68758 -1.2171,-8.26172 -1.58203,-12.38672 -0.71105,-8.03724 -1.70493,-10.19351 -3.75,-8.14844 -0.86613,0.86613 -1.25,5.07255 -1.25,13.69922 0,9.78712 -0.28803,12.44922 -1.34961,12.44922 -1.0876,0 -1.26112,-2.48148 -0.88672,-12.75 0.25568,-7.0125 0.99803,-14.4375 1.64844,-16.5 1.17477,-3.7253 1.21872,-3.75 6.5918,-3.75 z m 12.66211,0 h 19.833983 19.83594 l 1.80468,4.72656 c 2.55155,6.68114 2.37392,17.37702 -0.39062,23.52344 l -2.13672,4.75 h -5.05664 c -2.78093,0 -5.05664,-0.14256 -5.05664,-0.31836 0,-0.1758 2.22633,-3.19722 4.94727,-6.71289 l 4.94726,-6.39063 -2.59375,-4.76758 c -2.77268,-5.09433 -5.92584,-8.51752 -6.92383,-7.51953 -0.33575,0.33575 0.789,2.88262 2.49805,5.66016 l 3.10742,5.04883 h -2.39258 c -3.30649,0 -6.6805,-5.62892 -5.26953,-8.79102 0.9085,-2.03601 0.52024,-3.18599 -0.37304,-2.96484 -0.17651,-0.15529 -0.40746,-0.25 -0.66211,-0.25 h -13.23047 c -0.3514,0 -0.6589,0.17909 -0.83789,0.45117 -0.45285,0.16558 -1.01042,0.43843 -1.75977,0.82813 -1.75729,0.91387 -4.149963,3.75566 -5.898443,7.00585 l -2.9414,5.4668 5.20898,6.62695 5.207033,6.62696 h -5.572263 -5.57227 l -2.13086,-4.75 c -2.79102,-6.22206 -2.98285,-16.86754 -0.42383,-23.5 z m 46.951173,0.0801 5.65039,0.30468 5.65039,0.30469 1.26172,4.90625 c 1.93631,7.53348 2.63671,15.7179 1.87109,21.8457 l -0.69336,5.5586 h -6.92969 c -3.81042,0 -6.92773,-0.1672 -6.92773,-0.37305 0,-0.20585 0.72505,-2.34335 1.61133,-4.75 2.03587,-5.52825 2.04423,-17.93042 0.0156,-23.58594 z m 20.63672,3.1621 c 3.02035,0.17448 7.46505,14.02486 7.04882,22.85743 l -0.30273,6.40039 -3.25,0.31445 -3.25,0.3125 -0.0234,-10.8125 c -0.0131,-5.94735 -0.41686,-12.50293 -0.89648,-14.56836 -0.53807,-2.31721 -0.50207,-3.98454 0.0918,-4.35156 0.18682,-0.11548 0.38067,-0.16395 0.58203,-0.15235 z m -95.279303,0.17774 c 0.62938,0.16614 0.86214,1.54534 0.52539,4.17578 -0.275,2.14805 -0.5,8.74329 -0.5,14.65625 v 10.75 h -3.88672 l -3.88476,-0.002 0.48632,-9.25 c 0.38578,-7.3422 1.05198,-10.44617 3.23243,-15.05078 1.55834,-3.29086 2.88937,-5.07043 3.73437,-5.27539 0.10562,-0.0256 0.20306,-0.0275 0.29297,-0.004 z m 39.578123,4.58008 c 1.7534,0 1.8999,3.67405 0.26758,6.70508 -1.22759,2.27948 -2.49411,3.29492 -4.10937,3.29492 h -2.335943 l 2.722663,-5 c 1.49673,-2.75 3.05132,-5 3.45507,-5 z m 2.90039,0 h 10.08008 c -2.22348,2.77206 -8.01829,2.80669 -10.08008,0 z m 3.14649,4.14062 c 0.56837,-0.0377 1.25883,-0.007 2.13281,0.0606 3.06545,0.23681 4.26649,0.93753 5.8125,3.38867 l 1.94922,3.08984 -3.63086,4.66016 c -1.99685,2.56304 -3.90717,4.64247 -4.24609,4.6211 -0.33893,-0.0214 -2.144,-2.11356 -4.01172,-4.6504 l -3.39649,-4.61328 1.83008,-3.39648 c 1.24127,-2.30488 1.85546,-3.04694 3.56055,-3.16016 z m -9.69141,7.85938 c 1.88344,0 3.55464,1.3605 6.56055,5.34179 2.21782,2.93749 4.03125,5.86248 4.03125,6.5 -1e-5,2.81024 -3.85757,0.72819 -7.58398,-4.09179 -5.845723,-7.56123 -5.920573,-7.75 -3.00782,-7.75 z m 23.3418,0.043 c 1.23749,-0.0234 2.25034,0.29453 2.25,0.70703 -3.5e-4,0.4125 -2.03294,3.33749 -4.51562,6.5 -2.92798,3.7297 -5.24827,5.75 -6.60547,5.75 -2.66363,0 -2.08594,-1.61945 2.8789,-8.06055 2.46547,-3.19856 4.50971,-4.86838 5.99219,-4.89648 z m -34.957033,21.94726 c 2.34545,0.14963 4.57953,0.75551 5.33594,1.66992 0.75485,0.91252 3.62108,2.70813 6.371093,3.99024 9.08964,4.23776 22.41223,2.53305 29.07422,-3.72071 1.79411,-1.68392 3.3163,-1.91402 11.24609,-1.68945 5.04366,0.14283 9.17278,0.61637 9.17578,1.05078 0.0101,1.61988 -4.07277,8.70899 -5.01562,8.70899 -1.25894,0 -1.23501,-0.65504 0.11719,-3.18164 0.86596,-1.61803 0.81329,-1.95596 -0.25,-1.60547 -0.74091,0.24421 -1.49027,1.42081 -1.66602,2.61523 l -0.32031,2.17188 h -29.46094 c -22.692473,0 -29.553663,-0.28721 -29.857423,-1.25 -1.18533,-3.75703 -1.07942,-7.71279 0.21875,-8.21094 0.7524,-0.28872 1.6913,-0.46495 2.69922,-0.54102 0.75594,-0.057 1.55021,-0.0575 2.33203,-0.008 z m -24.92578,0.01 c 2.93026,0 2.99069,0.0915 7.82812,11.75 1.59624,3.84704 -5.18335,-1.943 -9.04297,-7.72266 -2.27786,-3.41101 -2.09249,-4.02734 1.21485,-4.02734 z m 11.01953,0 c 0.81018,0 5.11328,8.10185 5.11328,9.62695 0,1.44214 -2.1991,-0.11923 -3.34766,-2.37695 -2.18078,-4.28676 -2.90188,-7.25 -1.76562,-7.25 z m 41.839843,0 c 1.43421,0 2.42057,0.16175 2.19141,0.35937 -1.17815,1.01601 -6.02323,1.62304 -5.44141,0.68164 0.35354,-0.57204 1.8158,-1.04101 3.25,-1.04101 z m 43.27344,0 c 1.65,0 3,0.34972 3,0.77734 0,1.179 -2.94299,5.33883 -6.34766,8.97266 -4.32276,4.61372 -4.92768,4.04091 -2.11523,-2 1.34432,-2.8875 2.44812,-5.8125 2.45312,-6.5 0.006,-0.72005 1.28165,-1.25 3.00977,-1.25 z m -52.30859,0.0996 c 1.75504,-0.0548 3.46866,0.35039 3.80859,0.90039 0.71072,1.14998 -0.90919,1.14998 -4.5,0 -2.38749,-0.76461 -2.35596,-0.80519 0.69141,-0.90039 z m -30.523443,18.90039 c 1.99519,0 1.9899,0.0538 -0.21094,1.83594 -2.15255,1.74303 -2.26223,2.47817 -2.16992,14.7207 0.0833,11.0448 0.3467,13.06992 1.8457,14.16601 1.33937,0.97938 9.74857,1.27735 35.904303,1.27735 31.81774,0 34.26681,-0.12448 35.80859,-1.82813 2.36944,-2.61815 2.4383,-25.24527 0.084,-27.59961 -1.89102,-1.89102 -3.39713,-2.02953 -3.51563,-0.32226 -0.0477,0.6875 -0.24789,2.825 -0.44531,4.75 -0.19741,1.925 -0.55585,6.40787 -0.79492,9.96094 -0.66088,9.82178 -2.53891,8.80648 -2.88281,-1.5586 -0.19528,-5.88596 -0.69914,-8.87545 -1.54102,-9.1543 -0.94214,-0.31206 -1.25,1.95736 -1.25,9.2168 v 9.63281 l -3.24023,1.36133 c -1.78206,0.7493 -3.58206,1.15089 -4,0.89258 -0.41795,-0.2583 -0.75977,-4.86827 -0.75977,-10.24414 0,-5.37587 -0.33751,-10.11465 -0.75,-10.53125 -0.4125,-0.4166 -1.2,4.08623 -1.75,10.00586 -0.70736,7.61321 -1.40601,10.89705 -2.38867,11.2207 -0.84224,0.27742 -1.11472,0.0131 -0.69141,-0.67187 0.44642,-0.72232 -0.18614,-1.13086 -1.7539,-1.13086 -3.19717,0 -3.66602,-1.48142 -3.66602,-11.58203 0,-4.94547 -0.41254,-8.41797 -1,-8.41797 -0.59563,0 -1,3.79477 -1,9.38476 -1e-5,8.69893 -0.1674,9.49676 -2.30664,10.89844 -1.59665,1.04617 -2.82944,1.21953 -4,0.56445 -1.40205,-0.78463 -1.69336,-2.55611 -1.69336,-10.33789 0,-5.16521 -0.40162,-9.63993 -0.89258,-9.94336 -0.49097,-0.30343 -1.21406,3.94544 -1.60742,9.44141 -0.6312,8.81877 -0.93757,10.00687 -2.60742,10.11719 -1.04067,0.0687 -2.45508,0.18833 -3.14258,0.26562 -1.852373,0.2082 -2.539203,-2.93788 -2.650393,-12.14062 -0.0576,-4.76688 -0.5218,-8.25 -1.09961,-8.25 -0.58852,0 -1,3.51033 -1,8.53125 0,9.33934 -0.89978,10.74838 -5.52148,8.64258 -2.18055,-0.99351 -2.41879,-1.77787 -2.68555,-8.80274 -0.19212,-5.05953 -0.72275,-7.85166 -1.54297,-8.12305 -0.8826,-0.29203 -1.25,0.98203 -1.25,4.33594 0,6.91424 -0.68687,5.05935 -1.23438,-3.33398 l -0.47265,-7.25 h 33.318363 c 31.91728,0 33.36185,0.0826 34.35351,1.93554 0.56935,1.06384 1.03516,7.7815 1.03516,14.92774 0,12.84564 -0.0298,13.0154 -2.63477,15.06445 -2.55133,2.00688 -3.74101,2.07227 -37.54492,2.07227 H 77.409007 l -2.45508,-2.45313 c -2.3405,-2.34097 -2.45509,-3.0273 -2.45509,-14.77759 0,-13.27499 1.07694,-16.76953 5.16797,-16.76953 z" />
      <path
         id="path986"
         style="fill:#050606"
         d="m 112.98427,46.864808 c -17.8854,0.0796 -32.23524,6.05016 -45.12501,18.77734 -6.84264,6.75632 -8.83612,9.52051 -12.64063,17.52148 -2.48452,5.22501 -5.01557,11.61231 -5.625,14.19336 -1.63085,6.907002 -1.36574,22.873302 0.50391,30.316412 l 1.61133,6.41797 -3.08203,3.89258 c -3.63127,4.58485 -5.14258,8.19295 -5.14258,12.27734 0,3.96452 2.52503,9.79536 5.65625,13.06445 2.41829,2.52477 2.49078,2.92395 1.44531,7.79883 -3.40224,15.86408 1.57248,33.86169 12.46094,45.08203 l 3.4375,3.54297 0.006,14.95703 c 0.004,17.39636 0.98779,20.1895 8.26757,23.49414 3.89423,1.76777 6.84331,1.92045 37.22853,1.93555 19.3919,0.01 34.51269,-0.40333 36.66797,-1.00196 2.05749,-0.57146 5.02095,-2.56 6.75,-4.52929 l 3.08203,-3.50977 v -15.06836 -15.06836 l 4.65234,-5.14648 c 2.55842,-2.83081 6.249,-8.49607 8.20118,-12.58789 3.03543,-6.36229 3.61112,-8.71954 3.97265,-16.28125 0.23252,-4.8632 -0.10918,-11.53903 -0.75781,-14.83594 l -1.17969,-5.99609 3.54102,-4.13477 c 5.93489,-6.93358 6.14345,-16.02713 0.52734,-23.01562 l -3.20508,-3.98828 1.77735,-8.1543 c 5.10618,-23.4374 -0.97345,-45.063292 -17.23438,-61.324222 -5.79997,-5.79997 -9.14922,-8.17104 -16.53515,-11.70508 -11.4794,-5.49268 -17.74757,-6.97507 -29.26172,-6.92382 z m 0.17578,8.31054 c 5.40302,0.007 12.13464,0.6274 14.95703,1.37891 14.11079,3.75727 29.25358,16.08908 36.06055,29.36523 6.63055,12.93209 8.16687,31.608182 3.59765,43.744142 -2.04488,5.43124 -1.64522,5.28857 -10.94726,3.91992 -3.80725,-0.56016 -4.21227,-0.91053 -4.82227,-4.1621 -1.20681,-6.43289 -6.12281,-11.25782 -11.4707,-11.25782 -1.85599,0 -2.05078,-0.61418 -2.05078,-6.5 v -6.5 h -26 -26.00001 v 6.38868 6.38867 l -3.32422,0.625 c -4.40811,0.82697 -8.82472,5.57362 -9.5918,10.31054 -0.58448,3.60929 -0.82312,3.8162 -5.09766,4.38477 -2.46694,0.32814 -5.20947,0.91454 -6.09374,1.30273 -1.29814,0.56987 -2.05239,-0.67503 -3.91407,-6.46484 -7.31255,-22.74207 2.4275,-49.743702 22.83789,-63.312502 10.08869,-6.70694 19.76159,-9.62595 31.85939,-9.61133 z M 93.48426,112.16363 h 19.50001 19.5 v 6 6 h 4.5 c 6.23663,0 8.5,2.40317 8.5,9.02344 v 5.02344 l -33,-0.0723 -33.00001,-0.0742 v -4.77539 c 0,-6.43182 2.74867,-9.125 9.31445,-9.125 h 4.68555 v -6 z m 34.38868,2.33789 c -0.11973,0.023 -0.25117,0.0771 -0.38867,0.16211 -0.55001,0.33992 -1,1.06914 -1,1.61914 -10e-6,0.55 0.45,0.72078 1,0.38086 0.55,-0.33992 1,-1.06718 1,-1.61718 0,-0.275 -0.11172,-0.45616 -0.29297,-0.5254 -0.0906,-0.0346 -0.19864,-0.0426 -0.31836,-0.0195 z m -4.92383,0.0156 c -0.35681,0.0681 -0.92352,0.49433 -1.44531,1.12305 -0.78875,0.95038 -0.86427,1.52343 -0.20117,1.52343 1.20855,0 2.61731,-1.89634 1.92382,-2.58984 -0.0629,-0.0629 -0.1584,-0.0793 -0.27734,-0.0566 z m -19.5918,6.6914 c -1.0669,-0.0146 -2.13332,0.4725 -2.51562,1.46876 -0.31927,0.83199 -0.0326,2.17207 0.63672,2.97851 0.90197,1.08681 1.70673,1.20485 3.11133,0.45313 2.1215,-1.13539 2.13107,-1.16397 1.28711,-3.36329 -0.38635,-1.0068 -1.45263,-1.52247 -2.51954,-1.53711 z m 18.24024,0.10743 c -0.46667,0.0539 -0.92364,0.25957 -1.3125,0.64843 -0.58606,0.58606 -0.79562,1.77085 -0.46485,2.63282 0.91157,2.37551 4.66407,2.00137 4.66407,-0.46485 -10e-6,-1.76894 -1.48674,-2.97801 -2.88672,-2.8164 z m -8.33985,0.0684 c -1.85761,-0.0965 -3.72514,1.74051 -3.08593,3.40625 0.76569,1.99538 4.70792,1.31959 5.12695,-0.87891 0.18377,-0.96417 -0.37931,-2.02646 -1.25195,-2.36133 -0.25762,-0.0989 -0.52369,-0.15223 -0.78907,-0.16601 z m -57.91212,21.77929 c 1.02441,0 1.21634,1.49005 1.56836,12.16797 0.0997,3.0253 -1.93504,3.37601 -3.83593,0.66211 -2.86568,-4.09133 -1.32102,-12.83008 2.26757,-12.83008 z m 115.85353,0.61914 c 0.52386,0.12536 1.09594,1.0764 1.80664,2.77735 1.65551,3.96219 1.26386,6.93957 -1.29492,9.85351 -3.4212,3.89606 -4.72269,1.40158 -3.13672,-6.01367 1.01358,-4.739 1.7519,-6.82612 2.625,-6.61719 z m -57.21484,3.09375 c 37.78552,0.13703 42.5,0.27953 42.5,1.28711 0,0.65152 -15.33333,1 -44,1 -28.66669,0 -44.00001,-0.34848 -44.00001,-1 0,-1.05624 12.41143,-1.40711 45.50001,-1.28711 z M 74.5409,158.16364 h 5.47265 c 3.00964,0 5.46694,0.1125 5.46094,0.25 -0.006,0.1375 -0.68095,2.46025 -1.5,5.16016 -1.98476,6.54256 -1.83254,15.91132 0.36328,22.26562 l 1.78907,5.17579 -6.95118,0.32421 c -5.45416,0.25506 -7.08354,0.001 -7.57031,-1.17578 -1.28534,-3.10808 -0.47111,-20.53664 1.22656,-26.25 z m 17.84179,0 h 20.03712 20.03711 l 1.57227,3.75 c 2.58071,6.16055 2.97887,15.17909 0.95508,21.61328 -0.97128,3.08791 -2.34634,6.09606 -3.05664,6.68555 -1.35243,1.12243 -30.50655,1.90983 -35.94337,0.9707 -2.26367,-0.39102 -3.49089,-1.50131 -5,-4.51953 -2.61397,-5.22793 -2.76626,-19.14919 -0.27149,-24.75 z m 48.79494,0.0762 c 1.04023,0 2.47538,0.0425 4.05664,0.125 l 5.75,0.29882 1.79492,7 c 1.22967,4.79482 1.70221,9.74111 1.5,15.70118 -0.16237,4.78562 -0.74492,9.06063 -1.29492,9.5 -0.55,0.43939 -3.96184,0.66833 -7.58203,0.50781 l -6.58204,-0.29297 1.79883,-5.20703 c 2.20607,-6.38478 2.36508,-15.74517 0.37696,-22.29883 -0.81904,-2.69991 -1.494,-5.04404 -1.5,-5.20898 -0.003,-0.0825 0.64142,-0.125 1.68164,-0.125 z m -76.12306,2.92382 c 1.38537,0 1.54614,0.57048 0.91797,3.25 -0.41906,1.7875 -0.87714,8.65 -1.01758,15.25 l -0.25391,12 -3.11523,0.31446 c -4.02702,0.40582 -4.45686,-0.81393 -3.91406,-11.10547 0.49255,-9.33887 4.37673,-19.70899 7.38281,-19.70899 z m 94.79688,0 c 4.0394,0 9.04556,16.7748 7.75977,26 -0.58442,4.19304 -0.84864,4.52248 -3.87695,4.81446 -1.78751,0.17235 -3.25191,0.17235 -3.25391,0 -0.16209,-12.2034 -0.92434,-26.87243 -1.48437,-28.56446 -0.56467,-1.70605 -0.35756,-2.25 0.85546,-2.25 z m -95.31251,39 c 2.75047,0 3.30506,0.56316 5.54883,5.63672 3.43631,7.7701 2.81082,9.92179 -1.55664,5.36328 -3.36995,-3.51736 -7.03597,-8.85288 -7.04297,-10.25 -0.002,-0.4125 1.37052,-0.75 3.05078,-0.75 z m 9.72852,0 h 9.17578 c 8.22674,0 9.51193,0.25647 12.42774,2.48047 6.6532,5.07463 17.13742,6.93006 24.71485,4.37305 1.86957,-0.63089 5.33415,-2.43089 7.69922,-4 3.92556,-2.60442 5.07974,-2.85352 13.25,-2.85352 5.17668,0 8.94922,0.41377 8.94922,0.98047 -1e-5,0.53887 -0.7227,2.78887 -1.60742,5 l -1.60938,4.01953 h -34.36914 -34.3672 l -1.45508,-2.25 c -0.80043,-1.2375 -1.76094,-3.4875 -2.13281,-5 z m 86.38478,0 c 1.55754,0 2.83203,0.24411 2.83203,0.54102 -1e-5,1.76195 -4.35515,8.59359 -6.60742,10.36523 -1.46452,1.15199 -3.01074,2.09375 -3.4375,2.09375 -0.42677,0 0.38432,-2.925 1.80273,-6.5 2.32606,-5.8627 2.85592,-6.5 5.41016,-6.5 z m -48.20508,0.11719 c 4.88283,0.0154 6.93234,0.33846 5.98242,0.93945 -1.88806,1.19451 -10.02675,1.17852 -11.92773,-0.0234 -0.99895,-0.63163 0.94203,-0.93182 5.94531,-0.91602 z m 0.0371,18.88281 c 36.47645,0 37.96931,0.0754 38.96484,1.93555 0.56935,1.06384 1.03516,7.79621 1.03516,14.96094 -1e-5,12.11315 -0.15245,13.1685 -2.1875,15.06445 -2.11786,1.97306 -3.34353,2.03906 -37.92774,2.03906 H 76.63073 l -2.07422,-2.63476 c -1.84431,-2.34466 -2.07226,-4.00267 -2.07226,-15.06446 0,-6.83699 0.4658,-13.30139 1.03515,-14.36523 0.99552,-1.86016 2.48838,-1.93555 38.96486,-1.93555 z m 27,6 c -0.60317,0 -1,4.16667 -1,10.5 0,6.33333 0.39682,10.5 1,10.5 0.60316,0 1,-4.16667 1,-10.5 0,-6.33333 -0.39683,-10.5 -1,-10.5 z m -52.77931,0.45703 c -0.0697,-0.0188 -0.1434,-0.005 -0.2207,0.043 -0.55815,0.34496 -1,5.01191 -1,10.56055 0,8.54518 0.2315,9.93945 1.64062,9.93945 1.39097,0 1.54289,-0.79528 1.00781,-5.25 -0.34683,-2.8875 -0.63387,-7.63863 -0.63867,-10.55859 -0.005,-2.87239 -0.30107,-4.60282 -0.78906,-4.73438 z m 10.55859,10.00391 c -0.48849,0.1487 -0.77929,1.96053 -0.77929,4.98047 0,3.05746 0.45,5.55859 1,5.55859 0.55,0 1,-2.22191 1,-4.93945 0,-2.71754 -0.45,-5.22063 -1,-5.56055 -0.0776,-0.048 -0.15092,-0.0603 -0.22071,-0.0391 z m 21.44142,0 c -0.0698,-0.0212 -0.1431,-0.009 -0.2207,0.0391 -0.55,0.33992 -1,2.84301 -1,5.56055 0,2.71754 0.45,4.93945 1,4.93945 0.54999,0 1,-2.50113 1,-5.55859 0,-3.01994 -0.2908,-4.83177 -0.7793,-4.98047 z m -10.44141,0.65234 c -0.17198,0.0348 -0.49906,1.28792 -0.83984,3.32422 -0.45439,2.71505 -0.60075,5.30255 -0.32422,5.75 0.27654,0.44744 0.98472,0.8125 1.57422,0.8125 0.68208,0 0.84757,-1.3636 0.45313,-3.75 -0.34092,-2.0625 -0.67735,-4.65 -0.74805,-5.75 -0.0177,-0.275 -0.0579,-0.39834 -0.11524,-0.38672 z m 20.67969,0.80469 c -0.21693,0.0546 -0.31037,1.2504 -0.35937,3.83203 -0.0551,2.89979 0.34805,5.25 0.90039,5.25 1.16053,0 1.16053,-4.37622 0,-8 -0.23623,-0.73761 -0.41086,-1.1148 -0.54102,-1.08203 z" />
    </g>
  </g>
</svg>
