<?xml version="1.0" encoding="UTF-8" standalone="no"?><svg xmlns="http://www.w3.org/2000/svg" xmlns:xlink="http://www.w3.org/1999/xlink" height="512" version="1.1" viewBox="0 0 135.47 135.47" width="512"><defs><linearGradient id="b"><stop offset="0" stop-color="#c64570"/><stop offset="1" stop-color="#8c42ab"/></linearGradient><linearGradient id="a"><stop offset="0" stop-color="#5cb6e8"/><stop offset="1" stop-color="#087142"/></linearGradient><linearGradient gradientTransform="matrix(1 0 0 .90711 0 .5161)" gradientUnits="userSpaceOnUse" id="d" x1="52.786" x2="66.921" y1="119.35" y2="43.57"><stop offset="0" stop-color="#0ca15e"/><stop offset="1" stop-color="#19a187"/></linearGradient><radialGradient cx="68.63" cy="103.22" gradientTransform="matrix(1.4774 0 0 .69157 -34.259 25.367)" gradientUnits="userSpaceOnUse" id="c" r="23.839"><stop offset="0"/><stop offset="1" stop-color="#087142"/></radialGradient><linearGradient gradientTransform="matrix(1.3371 0 0 1.3371 -20.132 -39.457)" gradientUnits="userSpaceOnUse" id="w" x1="60.912" x2="67.773" xlink:href="#a" y1="113.37" y2="104.67"><stop offset="0" stop-color="#5cb6e8"/><stop offset="1" stop-color="#087142"/></linearGradient><linearGradient gradientTransform="matrix(1.3371 0 0 1.3371 -20.132 -39.457)" gradientUnits="userSpaceOnUse" id="v" x1="57.138" x2="65.08" xlink:href="#a" y1="103.84" y2="103.84"><stop offset="0" stop-color="#5cb6e8"/><stop offset="1" stop-color="#087142"/></linearGradient><linearGradient gradientTransform="matrix(1.3371 0 0 1.3371 -20.132 -39.457)" gradientUnits="userSpaceOnUse" id="u" x1="61.718" x2="68.411" xlink:href="#a" y1="106.2" y2="106.2"><stop offset="0" stop-color="#5cb6e8"/><stop offset="1" stop-color="#087142"/></linearGradient><linearGradient gradientTransform="matrix(1.3371 0 0 1.3371 -20.132 -39.457)" gradientUnits="userSpaceOnUse" id="t" x1="52.809" x2="59.825" xlink:href="#a" y1="104.53" y2="104.53"><stop offset="0" stop-color="#5cb6e8"/><stop offset="1" stop-color="#087142"/></linearGradient><linearGradient gradientTransform="matrix(1.3371 0 0 1.3371 -20.132 -39.457)" gradientUnits="userSpaceOnUse" id="s" x1="51.117" x2="56.992" xlink:href="#a" y1="107.06" y2="107.06"><stop offset="0" stop-color="#5cb6e8"/><stop offset="1" stop-color="#087142"/></linearGradient><linearGradient gradientTransform="matrix(1.3371 0 0 1.3371 -20.132 -39.457)" gradientUnits="userSpaceOnUse" id="x" x1="51.506" x2="56.693" xlink:href="#a" y1="103.9" y2="103.9"><stop offset="0" stop-color="#5cb6e8"/><stop offset="1" stop-color="#087142"/></linearGradient><linearGradient gradientTransform="matrix(1.3371 0 0 1.3371 -20.132 -39.457)" gradientUnits="userSpaceOnUse" id="r" x1="54.207" x2="60.781" xlink:href="#a" y1="116.45" y2="106.58"><stop offset="0" stop-color="#5cb6e8"/><stop offset="1" stop-color="#087142"/></linearGradient><linearGradient gradientTransform="matrix(1.3371 0 0 1.3371 -20.132 -39.457)" gradientUnits="userSpaceOnUse" id="q" x1="58.04" x2="63.54" xlink:href="#a" y1="107.47" y2="107.47"><stop offset="0" stop-color="#5cb6e8"/><stop offset="1" stop-color="#087142"/></linearGradient><linearGradient gradientTransform="matrix(.8639 0 0 .8639 8.0123 14.091)" gradientUnits="userSpaceOnUse" id="p" x1="69.147" x2="69.147" y1="102.84" y2="85.641"><stop offset="0" stop-color="#fd3535"/><stop offset="1" stop-opacity="0"/></linearGradient><linearGradient gradientUnits="userSpaceOnUse" id="o" x1="23.294" x2="37.142" y1="90.18" y2="90.18"><stop offset="0" stop-opacity="0"/><stop offset="1"/></linearGradient><linearGradient gradientUnits="userSpaceOnUse" id="n" x1="371.56" x2="420.07" y1="338.61" y2="338.61"><stop offset="0"/><stop offset="1" stop-opacity="0"/></linearGradient><linearGradient gradientTransform="translate(-16.972 2.2948)" gradientUnits="userSpaceOnUse" id="y" x1="51.506" x2="56.693" xlink:href="#a" y1="103.9" y2="103.9"><stop offset="0" stop-color="#5cb6e8"/><stop offset="1" stop-color="#087142"/></linearGradient><linearGradient gradientUnits="userSpaceOnUse" id="m" x1="95.084" x2="120.14" xlink:href="#b" y1="26.256" y2="26.256"><stop offset="0" stop-color="#c64570"/><stop offset="1" stop-color="#8c42ab"/></linearGradient><linearGradient gradientUnits="userSpaceOnUse" id="l" x1="90.969" x2="112.63" xlink:href="#b" y1="17.451" y2="17.451"><stop offset="0" stop-color="#c64570"/><stop offset="1" stop-color="#8c42ab"/></linearGradient><linearGradient gradientUnits="userSpaceOnUse" id="k" x1="93.737" x2="111.59" xlink:href="#b" y1="9.3947" y2="9.3947"><stop offset="0" stop-color="#c64570"/><stop offset="1" stop-color="#8c42ab"/></linearGradient><linearGradient gradientUnits="userSpaceOnUse" id="j" x1="77.216" x2="98.962" xlink:href="#b" y1="15.271" y2="15.271"><stop offset="0" stop-color="#c64570"/><stop offset="1" stop-color="#8c42ab"/></linearGradient><linearGradient gradientUnits="userSpaceOnUse" id="i" x1="82.946" x2="106.08" xlink:href="#b" y1="7.427" y2="7.427"><stop offset="0" stop-color="#c64570"/><stop offset="1" stop-color="#8c42ab"/></linearGradient><linearGradient gradientUnits="userSpaceOnUse" id="h" x1="73.772" x2="94.706" xlink:href="#b" y1="6.9431" y2="6.9431"><stop offset="0" stop-color="#c64570"/><stop offset="1" stop-color="#8c42ab"/></linearGradient><linearGradient gradientUnits="userSpaceOnUse" id="g" x1="73.618" x2="95.76" xlink:href="#b" y1="4.7826" y2="4.7826"><stop offset="0" stop-color="#c64570"/><stop offset="1" stop-color="#8c42ab"/></linearGradient><linearGradient gradientUnits="userSpaceOnUse" id="f" x1="67.932" x2="89.709" xlink:href="#b" y1="7.2812" y2="7.2812"><stop offset="0" stop-color="#c64570"/><stop offset="1" stop-color="#8c42ab"/></linearGradient><linearGradient gradientTransform="matrix(.95868 0 0 .95868 2.2365 1.2441)" gradientUnits="userSpaceOnUse" id="e" x1="42.448" x2="39.988" y1="43.828" y2="28.344"><stop offset="0" stop-color="#fff"/><stop offset="1" stop-color="#fff" stop-opacity="0"/></linearGradient></defs><g><circle cx="84.689" cy="4.7826" fill="url(#g)" r="9.8957" stroke="#811035" stroke-linecap="round" stroke-width="2.3506" transform="rotate(10.162)"/><circle cx="78.821" cy="7.2812" fill="url(#f)" r="9.713" stroke="#811035" stroke-linecap="round" stroke-width="2.3506" transform="rotate(10.162)"/><circle cx="84.239" cy="6.9431" fill="url(#h)" r="9.2916" stroke="#811035" stroke-linecap="round" stroke-width="2.3506" transform="rotate(10.162)"/><circle cx="94.513" cy="7.427" fill="url(#i)" r="10.392" stroke="#811035" stroke-linecap="round" stroke-width="2.3506" transform="rotate(10.162)"/><circle cx="88.089" cy="15.271" fill="url(#j)" r="9.6977" stroke="#811035" stroke-linecap="round" stroke-width="2.3506" transform="rotate(10.162)"/><circle cx="102.66" cy="9.3947" fill="url(#k)" r="7.7504" stroke="#811035" stroke-linecap="round" stroke-width="2.3506" transform="rotate(10.162)"/><circle cx="101.8" cy="17.451" fill="url(#l)" r="9.6555" stroke="#811035" stroke-linecap="round" stroke-width="2.3506" transform="rotate(10.162)"/><circle cx="107.61" cy="26.256" fill="url(#m)" r="11.355" stroke="#811035" stroke-linecap="round" stroke-width="2.3506" transform="rotate(10.162)"/><path d="m67.279 5.5593c-45.373-0.33146-51.718 26.132-51.718 52.052 7.1438 9.8789 11.456 20.21 9.4581 32.239 1.5486 19.52 25.779 30.038 45.225 28.33 16.158-1.2182 35.048-9.2642 39.173-24.699 1.2303-11.231-1.6353-22.713 7.5559-31.892 5.1672-8.0042 4.3555-22.375-9.3542-20.629-18.327-4.6594-33.727-18.655-38.845-35.397-0.49833-0.00109-0.99667-0.00209-1.495-0.00317z" fill="url(#d)"/><path color="#000000" color-rendering="auto" d="m55.201 86.425c-18.028 18.028 2.7955 27.758 18.71 20.862 21.92-1.1416 21.256-21.199-6.1555-21.199-4.1741 0.24113-8.3664 0.64848-12.554 0.33651z" dominant-baseline="auto" image-rendering="auto" opacity=".7" shape-rendering="auto" solid-color="#000000" stop-color="#000000" stroke-opacity="0" style="font-feature-settings:normal;font-variant-alternates:normal;font-variant-caps:normal;font-variant-east-asian:normal;font-variant-ligatures:normal;font-variant-numeric:normal;font-variant-position:normal;font-variation-settings:normal;inline-size:0;isolation:auto;mix-blend-mode:normal;shape-margin:0;shape-padding:0;text-decoration-color:#000000;text-decoration-line:none;text-decoration-style:solid;text-indent:0;text-orientation:mixed;text-transform:none;white-space:normal"/><path color="#000000" color-rendering="auto" d="m40.606 46.294a3.9177 3.9177 0 0 0-2.7677 1.1476 3.9177 3.9177 0 0 0 0 5.5405l4.5963 4.5963-4.5963 4.5963a3.9177 3.9177 0 0 0 0 5.5405 3.9177 3.9177 0 0 0 5.5405 0l4.5963-4.5963 4.5963 4.5963a3.9177 3.9177 0 0 0 5.5407 0 3.9177 3.9177 0 0 0 0-5.5405l-4.5963-4.5963 4.5963-4.5963a3.9177 3.9177 0 0 0 0-5.5405 3.9177 3.9177 0 0 0-2.773-1.1476 3.9177 3.9177 0 0 0-2.7677 1.1476l-4.5963 4.5963-4.5963-4.5963a3.9177 3.9177 0 0 0-2.7729-1.1476z" dominant-baseline="auto" image-rendering="auto" opacity=".5" shape-rendering="auto" solid-color="#000000" stop-color="#000000" style="font-feature-settings:normal;font-variant-alternates:normal;font-variant-caps:normal;font-variant-east-asian:normal;font-variant-ligatures:normal;font-variant-numeric:normal;font-variant-position:normal;font-variation-settings:normal;inline-size:0;isolation:auto;mix-blend-mode:normal;shape-margin:0;shape-padding:0;text-decoration-color:#000000;text-decoration-line:none;text-decoration-style:solid;text-indent:0;text-orientation:mixed;text-transform:none;white-space:normal"/><circle cx="47.885" cy="56.501" opacity=".2" r="17.269"/><circle cx="47.885" cy="53.855" opacity=".2" r="17.269"/><path color="#000000" color-rendering="auto" d="m40.606 41.003a3.9177 3.9177 0 0 0-2.7677 1.1476 3.9177 3.9177 0 0 0 0 5.5405l4.5963 4.5963-4.5963 4.5963a3.9177 3.9177 0 0 0 0 5.5405 3.9177 3.9177 0 0 0 5.5405 0l4.5963-4.5963 4.5963 4.5963a3.9177 3.9177 0 0 0 5.5407 0 3.9177 3.9177 0 0 0 0-5.5405l-4.5963-4.5963 4.5963-4.5963a3.9177 3.9177 0 0 0 0-5.5405 3.9177 3.9177 0 0 0-2.773-1.1476 3.9177 3.9177 0 0 0-2.7677 1.1476l-4.5963 4.5963-4.5963-4.5963a3.9177 3.9177 0 0 0-2.7729-1.1476z" dominant-baseline="auto" fill="#fff" image-rendering="auto" shape-rendering="auto" solid-color="#000000" stop-color="#000000" style="font-feature-settings:normal;font-variant-alternates:normal;font-variant-caps:normal;font-variant-east-asian:normal;font-variant-ligatures:normal;font-variant-numeric:normal;font-variant-position:normal;font-variation-settings:normal;inline-size:0;isolation:auto;mix-blend-mode:normal;shape-margin:0;shape-padding:0;text-decoration-color:#000000;text-decoration-line:none;text-decoration-style:solid;text-indent:0;text-orientation:mixed;text-transform:none;white-space:normal"/><path color="#000000" color-rendering="auto" d="m79.783 50.507a3.9177 3.9177 0 0 0-2.7676 1.1476 3.9177 3.9177 0 0 0 0 5.5405l4.5963 4.5963-4.5963 4.5963a3.9177 3.9177 0 0 0 0 5.5405 3.9177 3.9177 0 0 0 5.5405 0l4.5963-4.5963 4.5963 4.5963a3.9177 3.9177 0 0 0 5.5407 0 3.9177 3.9177 0 0 0 0-5.5405l-4.5963-4.5963 4.5963-4.5963a3.9177 3.9177 0 0 0 0-5.5405 3.9177 3.9177 0 0 0-2.773-1.1476 3.9177 3.9177 0 0 0-2.7677 1.1476l-4.5963 4.5963-4.5963-4.5963a3.9177 3.9177 0 0 0-2.7729-1.1476z" dominant-baseline="auto" image-rendering="auto" opacity=".5" shape-rendering="auto" solid-color="#000000" stop-color="#000000" style="font-feature-settings:normal;font-variant-alternates:normal;font-variant-caps:normal;font-variant-east-asian:normal;font-variant-ligatures:normal;font-variant-numeric:normal;font-variant-position:normal;font-variation-settings:normal;inline-size:0;isolation:auto;mix-blend-mode:normal;shape-margin:0;shape-padding:0;text-decoration-color:#000000;text-decoration-line:none;text-decoration-style:solid;text-indent:0;text-orientation:mixed;text-transform:none;white-space:normal"/><circle cx="87.123" cy="59.579" opacity=".2" r="18.381"/><circle cx="87.123" cy="56.933" opacity=".2" r="18.381"/><path color="#000000" color-rendering="auto" d="m79.783 45.216a3.9177 3.9177 0 0 0-2.7676 1.1476 3.9177 3.9177 0 0 0 0 5.5405l4.5963 4.5963-4.5963 4.5963a3.9177 3.9177 0 0 0 0 5.5405 3.9177 3.9177 0 0 0 5.5405 0l4.5963-4.5963 4.5963 4.5963a3.9177 3.9177 0 0 0 5.5407 0 3.9177 3.9177 0 0 0 0-5.5405l-4.5963-4.5963 4.5963-4.5963a3.9177 3.9177 0 0 0 0-5.5405 3.9177 3.9177 0 0 0-2.773-1.1476 3.9177 3.9177 0 0 0-2.7677 1.1476l-4.5963 4.5963-4.5963-4.5963a3.9177 3.9177 0 0 0-2.7729-1.1476z" dominant-baseline="auto" fill="#fff" image-rendering="auto" shape-rendering="auto" solid-color="#000000" stop-color="#000000" style="font-feature-settings:normal;font-variant-alternates:normal;font-variant-caps:normal;font-variant-east-asian:normal;font-variant-ligatures:normal;font-variant-numeric:normal;font-variant-position:normal;font-variation-settings:normal;inline-size:0;isolation:auto;mix-blend-mode:normal;shape-margin:0;shape-padding:0;text-decoration-color:#000000;text-decoration-line:none;text-decoration-style:solid;text-indent:0;text-orientation:mixed;text-transform:none;white-space:normal"/><path color="#000000" color-rendering="auto" d="m55.201 84.837c-18.028 18.028 2.7955 27.758 18.71 20.862 21.92-1.1416 21.256-21.199-6.1555-21.199-4.1741 0.24113-8.3664 0.64848-12.554 0.33651z" dominant-baseline="auto" fill="url(#c)" image-rendering="auto" shape-rendering="auto" solid-color="#000000" stop-color="#000000" stroke-opacity="0" style="font-feature-settings:normal;font-variant-alternates:normal;font-variant-caps:normal;font-variant-east-asian:normal;font-variant-ligatures:normal;font-variant-numeric:normal;font-variant-position:normal;font-variation-settings:normal;inline-size:0;isolation:auto;mix-blend-mode:normal;shape-margin:0;shape-padding:0;text-decoration-color:#000000;text-decoration-line:none;text-decoration-style:solid;text-indent:0;text-orientation:mixed;text-transform:none;white-space:normal"/><path d="m53.009 101.73c0.42885 0.27224 0.83048 0.5657 1.2835 0.81652 0.92432 0.51182 1.8955 0.97641 2.9 1.3835 1.0045 0.40709 2.0419 0.75655 3.0991 1.038 1.0573 0.28142 2.1343 0.49517 3.217 0.62993 0.54134 0.0674 1.0842 0.11474 1.6268 0.14152 0.54256 0.0268 1.0847 0.0329 1.625 0.0165 0.54035-0.0164 1.0787-0.0551 1.6134-0.11741 0.53473-0.0622 1.0659-0.1482 1.5915-0.25893 0.52568-0.11072 1.0462-0.24622 1.5594-0.40803 0.51321-0.16181 1.0192-0.35012 1.5165-0.56563 0.68501-0.0357 1.3414-0.0966 1.9697-0.18125 0.62821-0.0846 1.2281-0.19319 1.8005-0.32323 0.57241-0.13002 1.1173-0.28189 1.6348-0.45357 0.51758-0.17168 1.0082-0.36313 1.4719-0.57278 0.46373-0.20964 0.90076-0.43732 1.3116-0.68125 0.41086-0.24393 0.7955-0.50404 1.1545-0.77858 0.17012-0.13011 0.31548-0.27346 0.47411-0.40982a15.515 9.5886 0 0 0-14.76-6.6349 15.515 9.5886 0 0 0-15.089 7.3594z" fill="url(#p)" opacity=".7"/><path d="m23.294 71.809c0.13298 0.37361 0.30204 0.73893 0.42375 1.1152 0.43033 1.3303 0.78953 2.6773 1.0702 4.0437 0.28069 1.3663 0.48301 2.7522 0.60048 4.1594 0.05874 0.7036 0.09624 1.4123 0.11162 2.127 0.01538 0.71473 0.0085 1.4352-0.02119 2.1616-0.02967 0.72647-0.08223 1.459-0.15865 2.1978-0.07642 0.73882-0.1764 1.4843-0.30127 2.236 0.04839 0.61 0.11847 1.2112 0.21032 1.8035 0.09186 0.59232 0.20536 1.1758 0.339 1.7503 0.26728 1.1489 0.61639 2.2616 1.0408 3.3378 0.42437 1.0762 0.92385 2.1157 1.4919 3.1176 0.56805 1.0019 1.2044 1.9662 1.9027 2.8923 0.69831 0.9261 1.4587 1.8141 2.2738 2.6629 1.366 1.4227 3.5075 3.1858 3.5502 3.2298 2.5533-3.6735 0.59933-12.041 0.59941-17.569-1.7e-5 -10.692-5.3568-19.359-11.965-19.359-0.39017 1.62e-4 -0.78011 0.03121-1.1684 0.09302z" fill="url(#o)" opacity=".5"/><path d="m376.68 406.18c2.6456-0.64188 14.279-12.275 15.743-14.315 2.1653-3.0167 4.7672-5.6699 6.9043-8.666s4.1049-6.1008 5.8867-9.3125c1.7818-3.2117 3.3772-6.5306 4.7715-9.959s2.586-6.9653 3.5606-10.611c0.58126-5.3058 0.92194-10.627 1.1387-15.943s0.30973-10.63 0.40039-15.92c0.0907-5.2899 0.17778-10.556 0.38086-15.781s0.5222-10.408 1.0762-15.531c0.55397-5.123 1.343-10.187 2.4863-15.17 0.29811-1.2992 0.69262-2.5771 1.041-3.8652-0.53624-0.0317-1.0728-0.048-1.6094-0.0488-24.974 4.1e-4 -45.219 32.758-45.219 73.166 8e-5 20.005-5.5087 48.15 3.4383 61.957z" fill="url(#n)" opacity=".5" transform="scale(.26458)"/><circle cx="52.144" cy="105.11" opacity=".3" r="3.9279"/><path d="m452.98 190.05c-0.90541 11.53-4.7946 23.295-10.881 32.723-34.738 34.69-23.908 78.089-28.559 120.54-15.592 58.336-86.984 88.745-148.05 93.35-71.577 6.2891-160.3-31.259-170.29-101.37-0.19172 1.427-0.40343 2.861-0.64258 4.3008 5.8529 73.776 97.434 113.53 170.93 107.07 61.071-4.6043 132.46-35.014 148.05-93.35 4.6501-42.446-6.1796-85.845 28.559-120.54 7.8684-12.188 12.059-28.28 10.881-42.723zm-394.08 17.816c-0.05875 3.2901-0.091797 6.5817-0.091797 9.8711 21.515 29.753 36.219 60.596 37.49 94.9 1.5095-38.311-13.865-72.195-37.398-104.77z" opacity=".3" transform="scale(.26458)"/><path d="m254.28 21.012c-171.49-1.2528-195.47 98.765-195.47 196.73 0.03101 0.04288 0.060815 0.08602 0.091797 0.1289 1.6909-94.697 29.647-188.07 195.38-186.86 1.8834 0.004082 3.7669 0.007599 5.6504 0.011719 19.343 63.277 77.545 116.17 146.81 133.79 30.94-3.94 44.49 13.841 46.236 35.246 1.9999-25.467-10.568-49.788-46.236-45.246-69.269-17.61-127.47-70.508-146.81-133.79-1.8834-0.00412-3.7669-0.007637-5.6504-0.011719zm-157.98 301.63c-0.21877 5.5527-0.78738 11.199-1.7422 16.947 0.1527 1.9248 0.37502 3.821 0.64258 5.6992 1.038-7.7264 1.3732-15.265 1.0996-22.646z" fill="#fff" opacity=".2" transform="scale(.26458)"/><circle cx="54.462" cy="100.31" opacity=".3" r="4.69"/><circle cx="55.17" cy="100.31" fill="url(#t)" r="4.69"/><circle cx="60.869" cy="100.1" opacity=".3" r="5.3095"/><circle cx="61.577" cy="99.39" fill="url(#v)" r="5.3095"/><circle cx="61.15" cy="106.36" opacity=".3" r="3.6775"/><circle cx="61.15" cy="104.24" fill="url(#q)" r="3.6775"/><circle cx="66.866" cy="104.66" opacity=".3" r="4.4748"/><circle cx="66.866" cy="102.54" fill="url(#u)" r="4.4748"/><circle cx="52.851" cy="102.98" opacity=".3" r="3.9279"/><circle cx="52.144" cy="103.69" fill="url(#s)" r="3.9279"/><rect height="24.783" opacity=".3" rx="3.1459" ry="3.1459" width="6.2918" x="52.453" y="107.1"/><rect fill="url(#r)" height="24.783" rx="3.1459" ry="3.1459" width="6.2918" x="52.453" y="103.56"/><rect height="15.599" opacity=".3" rx="3.1459" ry="3.1459" width="6.2918" x="60.974" y="105.95"/><rect fill="url(#w)" height="15.599" rx="3.1459" ry="3.1459" width="6.2918" x="60.974" y="102.41"/><ellipse cx="41.862" cy="34.153" fill="url(#e)" opacity=".3" rx="20.61" ry="10.305" transform="rotate(-12.418)"/></g></svg>