<?xml version="1.0" encoding="UTF-8" standalone="no"?>
<!-- Created with Inkscape (http://www.inkscape.org/) -->

<svg
   width="512mm"
   height="512mm"
   viewBox="0 0 512 512"
   version="1.1"
   id="svg2524"
   sodipodi:docname="cameradar.svg"
   inkscape:version="1.2.2 (b0a8486541, 2022-12-01)"
   inkscape:export-filename="../GIT Icons/cameradar.png"
   inkscape:export-xdpi="96"
   inkscape:export-ydpi="96"
   xmlns:inkscape="http://www.inkscape.org/namespaces/inkscape"
   xmlns:sodipodi="http://sodipodi.sourceforge.net/DTD/sodipodi-0.dtd"
   xmlns="http://www.w3.org/2000/svg"
   xmlns:svg="http://www.w3.org/2000/svg">
  <sodipodi:namedview
     id="namedview10380"
     pagecolor="#505050"
     bordercolor="#eeeeee"
     borderopacity="1"
     inkscape:pageshadow="0"
     inkscape:pageopacity="0"
     inkscape:pagecheckerboard="0"
     inkscape:document-units="mm"
     showgrid="false"
     inkscape:zoom="0.17247237"
     inkscape:cx="701.56165"
     inkscape:cy="974.06906"
     inkscape:window-width="1366"
     inkscape:window-height="705"
     inkscape:window-x="0"
     inkscape:window-y="0"
     inkscape:window-maximized="1"
     inkscape:current-layer="svg2524"
     inkscape:showpageshadow="0"
     inkscape:deskcolor="#505050" />
  <defs
     id="defs2521" />
  <g
     id="g1000"
     transform="matrix(0.87264635,0,0,0.94536483,36.681135,14.009277)">
    <path
       id="path1142-3"
       style="fill:#ffffff;stroke-width:0.203243"
       d="m 260.92773,130.46094 c -13.75843,0.51068 -27.54262,4.87469 -38.52291,13.30368 -4.36326,3.83185 -9.20811,7.42287 -12.09514,12.58375 -1.98886,4.62804 -2.10329,9.78324 -3.25377,14.57378 -1.4021,7.74079 -2.8042,15.48159 -4.2063,23.22238 -11.44291,-7.11495 -21.52489,-16.52708 -29.26723,-27.55256 -3.20034,-4.50924 -5.97415,-9.44282 -8.40746,-14.48601 -1.57719,-3.08892 -3.04563,-6.37559 -5.71673,-8.70049 -4.87668,-4.48908 -12.56647,-5.88103 -18.54022,-2.82646 -4.12135,2.26268 -7.87359,5.12041 -11.87459,7.57993 C 90.084126,173.54415 51.100247,198.89421 12.396285,224.66235 -2.4788291,234.62886 -17.224436,244.78513 -32,254.89844 c 23.531359,-2.16173 47.047228,-4.49875 70.58655,-6.56876 9.81896,-0.46089 19.693523,0.19725 29.198707,2.59338 9.441973,2.32471 18.653872,6.36185 26.21264,12.64386 7.932233,6.57718 13.683863,15.51924 17.159463,25.16789 1.70944,4.56929 2.74446,9.34466 3.82277,14.08979 0.67274,3.19511 2.23987,6.19753 4.56132,8.50233 2.92589,3.01938 7.04609,4.76346 11.235,4.90984 4.68358,0.20138 9.35217,-1.47174 12.99303,-4.39279 6.21122,-4.3608 13.05945,-7.7729 20.30305,-10.08818 4.40455,-1.40714 8.98745,-2.35805 13.52513,-2.76361 8.615,-0.68995 17.4351,1.10877 25.00139,5.31517 7.30658,3.98873 13.51198,9.77113 18.73954,16.15333 9.28851,11.32832 15.87249,24.59495 21.42474,38.04025 2.06817,4.88903 3.85722,9.91186 5.94507,14.80315 1.25095,2.81443 3.34119,5.30564 6.12152,6.70081 3.46357,1.87686 7.88591,2.09844 11.36076,0.1257 3.7488,-1.94116 6.3955,-5.5922 7.59486,-9.58891 4.96283,-13.27478 10.40846,-26.45826 17.97972,-38.51214 5.27032,-8.32242 11.48439,-16.25847 19.23702,-22.45221 5.54998,-4.43165 11.90761,-7.8708 18.84342,-9.53828 2.91056,-0.69762 6.1506,-1.08806 9.26158,-1.10267 11.30051,-0.22503 22.38416,3.52712 32.09941,9.03385 4.84122,2.72245 9.33446,6.00115 13.77894,9.31726 2.65876,1.92711 5.98712,3.23261 9.30929,2.67148 4.50917,-0.69648 8.34457,-4.19597 9.69096,-8.52287 0.8194,-2.59514 1.38263,-5.26373 2.07567,-7.89447 1.93071,-7.82749 3.74857,-15.74484 7.58152,-22.91718 5.04678,-9.63309 12.86462,-17.86885 22.47398,-22.98691 8.82457,-4.81979 18.62943,-7.54006 28.60365,-8.71372 7.70698,-0.96128 15.61824,-0.453 23.42578,-0.33399 3.56772,0.14177 7.12537,-0.22166 10.65111,-0.7363 8.40755,-1.23945 16.84292,-2.28176 25.26195,-3.44168 3.53092,-0.47462 7.062,-0.94807 10.5928,-1.42358 -9.14506,-4.65688 -17.72999,-10.39593 -25.54332,-17.04861 -5.80314,-4.87598 -11.83667,-9.50501 -18.27777,-13.51105 -8.33023,-5.38117 -16.60198,-10.85378 -24.91283,-16.2661 -28.22972,-18.44752 -56.43918,-36.9297 -84.81918,-55.14164 -5.42195,-3.09995 -12.51367,-2.45825 -17.59296,1.04335 -3.25741,2.16152 -5.69647,5.43815 -7.01845,9.10098 -4.26497,9.06157 -9.75516,17.65823 -16.60282,25.03755 -4.90353,5.38075 -10.37209,10.24926 -16.30493,14.46912 -2.17072,-11.68142 -3.99938,-23.43204 -6.48633,-35.04688 -1.512,-3.01279 -4.48971,-4.78951 -6.72695,-7.16114 -5.65003,-5.30365 -12.10473,-9.86706 -19.3575,-12.69349 -9.48307,-3.94731 -19.84252,-5.54869 -30.08157,-5.30943 z" />
    <g
       id="g10478"
       transform="translate(0.81073296,-0.78056396)">
      <g
         id="g1600"
         transform="matrix(0.65744524,0,0,0.61358199,-6.4443128,-19.298652)">
        <path
           style="fill:#ccb0c5;stroke-width:0.32"
           d="m 402.79502,610.62193 c -0.85043,-2.41779 -2.76439,-7.46736 -4.25322,-11.22125 -21.47846,-54.15549 -49.32301,-88.24941 -82.74686,-101.31837 -23.02876,-9.00441 -48.73576,-7.73968 -75.43867,3.71146 -8.71136,3.73574 -19.76496,10.10752 -27.29163,15.7321 -2.33384,1.74406 -4.39084,3.22998 -4.57111,3.30204 -0.19347,0.0773 -0.70127,-1.87116 -1.23932,-4.75545 -11.96838,-64.15827 -54.48315,-101.57107 -120.672919,-106.19171 -8.394358,-0.58599 -25.223002,-0.12813 -30.88,0.84016 -0.993856,0.17011 -1.065939,0.13792 -0.64,-0.28592 0.677328,-0.67402 177.878339,-125.00354 178.291169,-125.09444 0.18641,-0.041 1.11627,1.79738 2.06635,4.08538 0.95009,2.288 3.08156,6.896 4.73661,10.24 16.82218,33.98886 43.48411,61.74138 76.9442,80.09152 6.27373,3.44064 19.02449,9.36294 19.3729,8.99808 0.0681,-0.0713 0.28528,-1.9296 0.48272,-4.1296 0.19741,-2.2 1.08608,-8.32 1.97482,-13.6 0.8887,-5.28 4.02413,-23.856 6.96755,-41.28 l 5.35168,-31.68 3.34598,-3.48917 c 6.48362,-6.76101 11.35991,-10.6261 17.90602,-14.19278 7.22176,-3.93481 16.5113,-6.95073 25.58131,-8.30518 5.20522,-0.77731 17.32391,-0.77641 22.41869,0.002 8.35046,1.27527 15.54288,3.50474 22.88,7.09222 7.5968,3.71445 10.89158,6.10257 17.66918,12.80701 l 5.82919,5.76624 5.78627,34.94714 c 3.18243,19.22093 6.13078,36.14093 6.55184,37.6 1.00704,3.48966 2.01302,8.50233 2.2776,11.34918 0.11686,1.25725 0.3313,2.47824 0.47658,2.71328 0.30864,0.49936 3.64204,-1.06774 11.16934,-5.25097 35.95738,-19.98295 64.07283,-51.11732 80.11616,-88.71863 1.2015,-2.816 2.22842,-5.16552 2.28202,-5.22116 0.0536,-0.0556 10.73196,7.34936 23.72966,16.45555 12.9977,9.10619 53.29616,37.28331 89.55216,62.61585 36.256,25.33251 65.98,46.11552 66.05334,46.18445 0.43936,0.41296 -0.66611,0.39002 -4.4824,-0.0931 -5.47875,-0.69353 -25.53494,-0.80022 -31.65094,-0.16835 -13.72118,1.4176 -24.58973,3.64435 -35.42835,7.25866 -37.52323,12.5126 -63.21933,38.80723 -75.98391,77.75372 -1.8399,5.6138 -4.367,15.62487 -5.37536,21.29437 -0.39129,2.2 -0.76531,4.17917 -0.83116,4.39815 -0.072,0.23955 -1.43076,-0.60352 -3.41047,-2.11613 -21.70499,-16.58365 -48.92461,-26.60512 -72.25075,-26.60064 -34.96854,0.007 -65.64832,20.12406 -90.85117,59.57312 -10.12749,15.85219 -20.70797,37.94531 -28.51651,59.5455 -0.74762,2.068 -1.44771,3.75821 -1.55581,3.756 -0.10806,-0.003 -0.89232,-1.98221 -1.74278,-4.4 z"
           id="path1148" />
        <path
           style="fill:#9360a3;stroke-width:0.32"
           d="m 404.35889,614.67172 c -5.48061,-15.51773 -10.97811,-28.55056 -17.66826,-41.88579 -20.61395,-41.08918 -45.63948,-66.49824 -75.15848,-76.3103 -8.69913,-2.89156 -15.34248,-3.99636 -25.43086,-4.22922 -10.3517,-0.23894 -17.49561,0.60272 -27.73064,3.2671 -15.95024,4.1522 -33.74753,12.94404 -47.14936,23.29172 -1.496,1.15507 -2.80914,2.00128 -2.91809,1.88041 -0.10895,-0.12083 -0.43974,-1.58771 -0.73508,-3.25971 -3.64093,-20.61213 -11.11136,-39.95776 -21.31581,-55.2 -4.01607,-5.99875 -7.81051,-10.55446 -13.74354,-16.50083 -6.36953,-6.38387 -9.74827,-9.23178 -16.01983,-13.50288 -17.11186,-11.65373 -37.22779,-18.73978 -61.599041,-21.69891 -9.938333,-1.20672 -30.757754,-1.19738 -38.356614,0.0173 -0.897597,0.14348 -1.672365,0.223 -1.721709,0.17676 -0.104039,-0.0975 178.321314,-125.362 178.640634,-125.4156 0.11716,-0.0197 0.95357,1.76424 1.85867,3.96424 2.1406,5.20308 7.16,15.33651 10.30288,20.8 15.69973,27.29197 38.52027,50.33364 66.08753,66.72788 6.19473,3.684 18.88976,9.92844 24.77942,12.18851 0.42407,0.16272 0.50071,-0.14333 0.50148,-2.00215 0.003,-4.23299 -0.44759,-1.40316 10.69696,-67.36883 l 3.60435,-21.33459 2.36889,-2.63093 c 3.71517,-4.12613 9.56103,-9.32361 13.3256,-11.84767 8.9714,-6.0151 20.46858,-10.22038 32.4033,-11.85205 3.86685,-0.52866 15.52944,-0.53611 19.52,-0.0125 12.42096,1.62987 22.82986,5.44032 32.69933,11.97049 3.11773,2.06285 4.9424,3.62804 9.5544,8.19581 l 5.70073,5.64602 5.64864,34.4 c 3.10676,18.92 6.0512,35.912 6.54324,37.76 0.492,1.848 1.05292,4.02221 1.24649,4.83155 0.49943,2.08797 1.32717,7.75517 1.32717,9.08634 0,0.61715 0.0737,1.12211 0.16378,1.12211 0.48995,0 11.03392,-5.49923 15.09958,-7.87523 13.96979,-8.164 25.17738,-16.85533 37.07286,-28.74938 10.06333,-10.06211 15.67821,-16.85776 23.01536,-27.85539 2.34842,-3.52 5.46218,-8.4865 6.91949,-11.03666 3.07255,-5.37665 8.24074,-15.92025 10.22832,-20.86671 0.83619,-2.08101 1.50986,-3.34366 1.71808,-3.2201 0.18839,0.1118 26.19053,18.29033 57.78253,40.39675 31.592,22.1064 71.73104,50.17472 89.19789,62.37405 17.46685,12.19932 31.69686,22.27939 31.62221,22.40012 -0.0746,0.12077 -1.76567,0.0106 -3.75789,-0.24489 -2.60141,-0.3336 -7.22951,-0.47082 -16.42221,-0.48691 -13.7408,-0.024 -17.30666,0.22089 -27.68,1.9014 -31.51594,5.1057 -57.06851,18.6096 -75.3544,39.82295 -13.74458,15.94499 -23.13763,35.85488 -28.45776,60.32 -0.61235,2.816 -1.20922,5.85757 -1.3264,6.75904 -0.11715,0.90144 -0.32035,1.81264 -0.45152,2.02489 -0.16394,0.26525 -1.27792,-0.40905 -3.56419,-2.15747 -9.37936,-7.17286 -21.36851,-13.90067 -32.81379,-18.41366 -33.0985,-13.05117 -64.54615,-9.91677 -91.36874,9.10672 -10.53363,7.47081 -21.31018,18.2704 -30.43757,30.50272 -13.40742,17.96832 -25.89821,42.12889 -36.07446,69.77776 -1.10122,2.992 -2.05034,5.49661 -2.10915,5.56579 -0.0588,0.0692 -0.1778,-0.0748 -0.26442,-0.32 z"
           id="path1146" />
        <path
           style="fill:#f12d57;stroke-width:0.32"
           d="m 403.05703,610.79963 c -12.05062,-33.2481 -26.239,-59.52868 -43.06832,-79.7737 -3.89907,-4.69043 -13.28723,-13.93507 -17.90979,-17.63603 -14.96867,-11.98432 -31.14839,-18.9585 -48.61763,-20.95639 -4.31368,-0.49331 -14.86839,-0.48691 -19.2,0.0115 -21.43659,2.46743 -44.30021,11.94692 -62.637,25.96996 -3.01412,2.30505 -3.28907,2.44934 -3.42736,1.79846 -0.0827,-0.38922 -0.52054,-2.63952 -0.97299,-5.00067 -6.90526,-36.03573 -23.83477,-64.25585 -49.22536,-82.05464 -18.88369,-13.23747 -41.37629,-20.84432 -68.857289,-23.28707 -8.408003,-0.74739 -24.020854,-0.47987 -32.64,0.55923 l -1.6,0.1929 5.613104,-3.95869 C 99.599681,379.09937 233.09089,285.58593 233.35524,285.58593 c 0.19342,0 1.17424,1.944 2.17959,4.32 6.19715,14.64596 14.36362,28.62266 23.8183,40.76438 10.01637,12.86304 22.96267,25.59492 35.70816,35.11671 10.79078,8.06147 24.41683,15.95478 36.8,21.31753 5.50256,2.38298 5.11955,2.35735 5.12243,0.34295 0,-0.93587 0.14387,-2.92557 0.31674,-4.42157 0.17286,-1.496 0.39526,-3.512 0.49421,-4.48 0.0989,-0.968 0.2414,-1.976 0.31657,-2.24 0.0752,-0.264 3.09299,-17.976 6.70627,-39.36 l 6.5696,-38.88 5.83709,-5.77956 c 4.76432,-4.71738 6.56839,-6.26665 9.81623,-8.42992 19.30009,-12.85506 44.88688,-15.90413 68.02086,-8.10575 4.87494,1.64333 12.04893,5.23409 16.75693,8.38729 3.19165,2.13761 5.01942,3.70977 9.45075,8.12904 l 5.49382,5.4789 5.72432,34.70902 c 3.19613,19.37959 6.12647,36.19783 6.63488,38.08 0.95485,3.53492 1.99271,9.0154 2.35239,12.42215 0.2584,2.44733 -0.16035,2.50432 6.39065,-0.8696 12.66647,-6.52355 23.90519,-13.9936 34.87626,-23.18119 4.6056,-3.85689 14.69389,-13.71731 19.03027,-18.60038 13.57946,-15.29146 24.8392,-33.28872 32.49203,-51.93445 0.85024,-2.07156 1.35264,-2.92387 1.65501,-2.80783 0.23882,0.0916 30.63562,21.30564 67.54845,47.14225 36.91283,25.83657 77.00403,53.8823 89.09158,62.32381 12.08752,8.44153 21.92167,15.40387 21.85367,15.4719 -0.068,0.068 -1.82183,-0.0742 -3.89735,-0.316 -5.08195,-0.5921 -27.84409,-0.60646 -33.21366,-0.0208 -20.18179,2.20067 -36.0785,6.63408 -51.36899,14.32618 -28.57047,14.3728 -48.46051,38.46704 -59.01997,71.4951 -1.77411,5.54909 -3.65779,12.96179 -4.7977,18.88 -0.45763,2.376 -0.93587,4.72669 -1.06272,5.22374 l -0.23062,0.90375 -2.72,-2.14704 c -1.496,-1.1809 -4.736,-3.47815 -7.2,-5.10499 -18.36006,-12.12218 -37.91379,-19.47396 -56.66538,-21.30496 -4.9687,-0.48516 -17.48992,-0.20477 -21.89462,0.4903 -28.48186,4.49446 -53.44634,22.49194 -74.66723,53.82938 -11.62685,17.16963 -22.49543,39.20339 -31.35389,63.56352 l -1.72141,4.73369 -1.54173,-4.25369 z"
           id="path1144" />
        <path
           style="fill:#88309b;stroke-width:0.32"
           d="m 403.05703,610.79963 c -12.05062,-33.2481 -26.239,-59.52868 -43.06832,-79.7737 -3.89907,-4.69043 -13.28723,-13.93507 -17.90979,-17.63603 -14.96867,-11.98432 -31.14839,-18.9585 -48.61763,-20.95639 -4.31368,-0.49331 -14.86839,-0.48691 -19.2,0.0115 -21.43659,2.46743 -44.30021,11.94692 -62.637,25.96996 -3.01412,2.30505 -3.28907,2.44934 -3.42736,1.79846 -0.0827,-0.38922 -0.52054,-2.63952 -0.97299,-5.00067 -6.90526,-36.03573 -23.83477,-64.25585 -49.22536,-82.05464 -18.88369,-13.23747 -41.37629,-20.84432 -68.857289,-23.28707 -8.408003,-0.74739 -24.020854,-0.47987 -32.64,0.55923 l -1.6,0.1929 5.613104,-3.95869 C 99.599681,379.09937 233.09089,285.58593 233.35524,285.58593 c 0.19342,0 1.17424,1.944 2.17959,4.32 6.19715,14.64596 14.36362,28.62266 23.8183,40.76438 10.01637,12.86304 22.96267,25.59492 35.70816,35.11671 10.79078,8.06147 24.41683,15.95478 36.8,21.31753 5.50256,2.38298 5.11955,2.35735 5.12243,0.34295 0,-0.93587 0.14387,-2.92557 0.31674,-4.42157 0.17286,-1.496 0.39526,-3.512 0.49421,-4.48 0.0989,-0.968 0.2414,-1.976 0.31657,-2.24 0.0752,-0.264 3.09299,-17.976 6.70627,-39.36 l 6.5696,-38.88 5.83709,-5.77956 c 4.76432,-4.71738 6.56839,-6.26665 9.81623,-8.42992 19.30009,-12.85506 44.88688,-15.90413 68.02086,-8.10575 4.87494,1.64333 12.04893,5.23409 16.75693,8.38729 3.19165,2.13761 5.01942,3.70977 9.45075,8.12904 l 5.49382,5.4789 5.72432,34.70902 c 3.19613,19.37959 6.12647,36.19783 6.63488,38.08 0.95485,3.53492 1.99271,9.0154 2.35239,12.42215 0.2584,2.44733 -0.16035,2.50432 6.39065,-0.8696 12.66647,-6.52355 23.90519,-13.9936 34.87626,-23.18119 4.6056,-3.85689 14.69389,-13.71731 19.03027,-18.60038 13.57946,-15.29146 24.8392,-33.28872 32.49203,-51.93445 0.85024,-2.07156 1.35264,-2.92387 1.65501,-2.80783 0.23882,0.0916 30.63562,21.30564 67.54845,47.14225 36.91283,25.83657 77.00403,53.8823 89.09158,62.32381 12.08752,8.44153 21.92167,15.40387 21.85367,15.4719 -0.068,0.068 -1.82183,-0.0742 -3.89735,-0.316 -5.08195,-0.5921 -27.84409,-0.60646 -33.21366,-0.0208 -20.18179,2.20067 -36.0785,6.63408 -51.36899,14.32618 -28.57047,14.3728 -48.46051,38.46704 -59.01997,71.4951 -1.77411,5.54909 -3.65779,12.96179 -4.7977,18.88 -0.45763,2.376 -0.93587,4.72669 -1.06272,5.22374 l -0.23062,0.90375 -2.72,-2.14704 c -1.496,-1.1809 -4.736,-3.47815 -7.2,-5.10499 -18.36006,-12.12218 -37.91379,-19.47396 -56.66538,-21.30496 -4.9687,-0.48516 -17.48992,-0.20477 -21.89462,0.4903 -28.48186,4.49446 -53.44634,22.49194 -74.66723,53.82938 -11.62685,17.16963 -22.49543,39.20339 -31.35389,63.56352 l -1.72141,4.73369 -1.54173,-4.25369 z m 9.18996,-212.27108 c 4.7296,-1.61152 7.17616,-7.27449 5.10768,-11.82262 -0.92538,-2.03466 -2.04736,-3.21254 -4.01732,-4.2175 -3.31472,-1.69095 -7.01875,-1.196 -9.73936,1.3014 -4.63577,4.25552 -3.67001,11.46055 1.90996,14.2489 2.27622,1.13744 4.38793,1.29094 6.73904,0.48982 z"
           id="path1142" />
        <path
           style="fill:#732c90;stroke-width:0.32"
           d="m 402.92395,610.34094 c -0.94272,-2.61527 -2.97879,-7.92301 -4.52464,-11.79501 -18.97482,-47.52787 -42.67223,-79.25082 -71.19383,-95.30477 -6.63606,-3.7352 -13.81202,-6.59421 -21.42419,-8.53565 -22.80294,-5.81577 -47.33092,-2.3462 -72.50647,10.25629 -7.34494,3.67677 -16.33072,9.26163 -21.94957,13.64221 l -2.94769,2.29808 -0.34834,-1.81808 c -2.83517,-14.79738 -5.87849,-25.34794 -10.28871,-35.66896 -6.53301,-15.28886 -14.51379,-27.28419 -25.38876,-38.15994 -17.64142,-17.64265 -40.4952,-28.80748 -68.73689,-33.58019 -11.307172,-1.91088 -24.516683,-2.70749 -35.505102,-2.14121 -3.920656,0.20204 -8.333805,0.5191 -9.806995,0.70457 -1.47319,0.18551 -2.739885,0.27591 -2.81488,0.2009 -0.075,-0.075 39.914054,-28.24592 88.864557,-62.60211 48.9505,-34.35615 89.07366,-62.393 89.16257,-62.30409 0.0889,0.0889 1.2072,2.58519 2.48509,5.5473 18.6357,43.19675 53.45464,77.93019 96.63287,96.39557 2.09642,0.89654 3.93242,1.63008 4.08,1.63008 0.14758,0 0.26941,-0.756 0.27075,-1.68 0,-0.924 0.14387,-2.904 0.31674,-4.4 0.17286,-1.496 0.39526,-3.512 0.49421,-4.48 0.0989,-0.968 0.2414,-1.976 0.31657,-2.24 0.0752,-0.264 3.09299,-17.976 6.70627,-39.36 l 6.5696,-38.88 5.83709,-5.77956 c 4.76432,-4.71738 6.56839,-6.26665 9.81623,-8.42992 19.30009,-12.85506 44.88688,-15.90413 68.02086,-8.10575 4.87494,1.64333 12.04893,5.23409 16.75693,8.38729 3.19165,2.13761 5.01942,3.70977 9.45075,8.12904 l 5.49382,5.4789 5.72432,34.70902 c 3.19613,19.37959 6.12647,36.19783 6.63488,38.08 0.95383,3.53114 1.9928,9.01568 2.35111,12.41098 0.11606,1.1 0.34969,2 0.51917,2 0.56928,0 10.30556,-5.06122 14.82902,-7.70854 31.50234,-18.43668 56.63491,-45.50132 72.62813,-78.21146 1.63501,-3.344 3.67254,-7.77436 4.52784,-9.84525 0.93273,-2.25836 1.70313,-3.70845 1.92499,-3.62331 0.20346,0.0781 29.65347,20.64019 65.44448,45.69358 35.79101,25.05341 75.89728,53.10791 89.12509,62.3433 13.22777,9.23542 23.84656,16.83846 23.59731,16.89565 -0.24928,0.0572 -1.71203,-0.0503 -3.25053,-0.23898 -12.78211,-1.5672 -29.96387,-1.01193 -44.86793,1.44995 -35.28103,5.82778 -63.12215,22.32784 -81.50522,48.3041 -10.42778,14.73501 -18.01299,33.19926 -22.20851,54.06096 -0.70794,3.52 -1.31603,6.49882 -1.35139,6.61955 -0.0353,0.12077 -1.25568,-0.69702 -2.71191,-1.81731 -23.47283,-18.05811 -53.62432,-28.40602 -77.87373,-26.72595 -19.97472,1.38387 -36.3592,8.00966 -53.1928,21.51091 -3.95881,3.1751 -14.792,13.95613 -18.42153,18.3328 -13.64765,16.45699 -25.11837,36.22851 -36.10941,62.24 -1.92797,4.56278 -6.78138,17.22672 -7.64768,19.95501 -0.26458,0.83328 -0.44368,0.49021 -2.00454,-3.84 z m 1.57734,-97.55501 v -50.08 h -1.40819 c -2.05091,0 -8.42973,-1.14253 -12.67181,-2.2697 -19.74058,-5.24521 -36.73824,-19.21222 -46.07686,-37.8614 -1.1537,-2.30391 -2.58909,-5.64087 -3.1898,-7.41549 l -1.09212,-3.22659 -2.58061,-0.8952 c -39.54431,-13.71754 -73.9883,-39.4809 -98.27728,-73.50922 -3.79323,-5.31424 -9.10297,-13.65642 -11.85984,-18.63311 -1.03846,-1.87462 -2.00109,-3.26251 -2.18866,-3.15552 -1.59228,0.90824 -110.22063,77.34709 -110.09607,77.47164 0.0902,0.0902 2.86338,0.84262 6.16262,1.672 32.71516,8.22432 59.14626,25.17347 77.57034,49.74259 5.80826,7.7455 11.12367,16.67395 15.14529,25.44 1.95903,4.27014 5.38805,12.85635 6.54047,16.37722 l 0.69954,2.13721 5.18149,-2.54464 c 14.90416,-7.31945 30.54656,-11.91949 46.14149,-13.56905 8.68806,-0.91901 21.3574,-0.51117 30.0034,0.96582 29.61932,5.05984 56.9718,23.3488 79.31164,53.03098 6.97856,9.27219 14.42106,21.02784 19.96496,31.53529 1.408,2.66861 2.596,4.85543 2.64,4.85959 0.044,0.004 0.08,-22.52842 0.08,-50.07242 z m 7.7457,-114.25738 c 4.7296,-1.61152 7.17616,-7.27449 5.10768,-11.82262 -0.92538,-2.03466 -2.04736,-3.21254 -4.01732,-4.2175 -3.31472,-1.69095 -7.01875,-1.196 -9.73936,1.3014 -4.63577,4.25552 -3.67001,11.46055 1.90996,14.2489 2.27622,1.13744 4.38793,1.29094 6.73904,0.48982 z M 361.61966,335.5282 c 0.96889,-0.86777 3.19881,-2.63977 4.95536,-3.93776 11.04643,-8.16281 24.02704,-12.87809 38.31488,-13.91816 l 5.05139,-0.36771 v -16.29755 -16.29754 l -3.44,0.21953 c -10.02035,0.63945 -17.89117,2.6807 -26.01216,6.7461 -5.27926,2.64282 -8.68733,5.12101 -12.83018,9.3295 l -3.72233,3.78132 -2.76288,16.48 c -1.51959,9.064 -2.76055,16.6103 -2.75767,16.7696 0.005,0.30896 0.42954,-0.023 3.20359,-2.50733 z"
           id="path1140" />
        <path
           style="fill:#662c8b;stroke-width:0.32"
           d="m 404.069,613.37518 c -6.29398,-17.22746 -11.03363,-28.39635 -17.47645,-41.18295 -22.48723,-44.62886 -50.52204,-70.84758 -83.69126,-78.26982 -26.29746,-5.88454 -56.57209,1.19219 -84.81188,19.82483 -2.47053,1.63005 -5.61494,3.85619 -6.98757,4.94698 -1.37263,1.09078 -2.54846,1.93046 -2.61294,1.86598 -0.0645,-0.0645 -0.63296,-2.6792 -1.26327,-5.81049 -8.61568,-42.80157 -29.59766,-72.74128 -63.10953,-90.05255 -15.3677,-7.93849 -32.66561,-12.69165 -54.014809,-14.8423 -5.85031,-0.58935 -24.903632,-0.50432 -30.4,0.13568 -2.288,0.2664 -4.195453,0.45289 -4.238784,0.41443 -0.129075,-0.11459 177.641563,-124.81904 177.933983,-124.81904 0.14781,0 1.00929,1.8 1.91439,4 0.9051,2.2 3.03384,6.808 4.73053,10.24 18.00436,36.41862 47.33075,65.69565 83.65988,83.51904 5.2831,2.59194 12.3919,5.76096 12.92307,5.76096 0.12115,0 0.40039,-2.124 0.62051,-4.72 0.50052,-5.90266 0.59917,-6.7167 1.17332,-9.68 0.25577,-1.32 3.28019,-19.104 6.72092,-39.52 l 6.25588,-37.12 5.83315,-5.78366 c 4.81913,-4.77824 6.52851,-6.24415 9.83315,-8.43258 12.28032,-8.13237 26.42966,-12.2574 42.08,-12.2678 12.51315,-0.008 23.3175,2.40422 33.92,7.57412 8.22131,4.0088 14.10182,8.43948 20.96282,15.79445 l 2.71718,2.9128 5.72906,34.66133 c 3.25897,19.71705 6.12355,36.11001 6.64403,38.02134 0.95693,3.51414 1.99929,8.99402 2.35872,12.4 0.11606,1.1 0.34269,2 0.50361,2 0.16093,0 2.43354,-1.07226 5.05028,-2.38282 27.20838,-13.62691 50.83414,-34.17408 68.43001,-59.51315 6.64077,-9.56305 14.18215,-23.28904 18.33936,-33.37917 0.95971,-2.32933 1.88893,-4.18266 2.06493,-4.11852 0.176,0.0641 9.104,6.27352 19.84,13.7986 10.736,7.5251 27.872,19.53586 38.08,26.69058 70.74742,49.58653 120.1497,84.30147 120.07472,84.37642 -0.0484,0.0484 -1.95699,-0.10708 -4.24134,-0.34544 -13.25008,-1.38276 -30.14365,-0.75607 -44.15338,1.63792 -28.80774,4.92265 -51.97338,16.45136 -69.76461,34.71939 -12.89513,13.2407 -22.48643,29.64691 -28.76854,49.20947 -1.78243,5.5505 -4.31296,15.63907 -5.31232,21.17901 l -0.72743,4.03225 -3.92076,-2.9486 c -6.67965,-5.02336 -15.61517,-10.41428 -23.34634,-14.08509 -50.24211,-23.8553 -95.78397,-11.58983 -130.73206,35.20915 -13.2153,17.69658 -25.20608,40.74605 -35.51504,68.26925 l -2.79764,7.46925 z m 2.64973,-54.11184 c 14.4263,-27.46791 32.15322,-49.66669 51.07488,-63.95936 16.24803,-12.27309 32.94963,-19.43728 52.14768,-22.3689 6.34128,-0.96832 19.51642,-1.21846 26.29325,-0.49917 15.15334,1.60839 29.80288,5.77834 44.74675,12.73709 2.288,1.06541 4.7785,2.29568 5.53446,2.73392 0.75594,0.43821 1.41645,0.74327 1.46778,0.67789 0.0513,-0.0654 0.63328,-1.70288 1.29325,-3.63888 2.82409,-8.28435 7.69821,-19.06656 12.01104,-26.57018 11.08662,-19.2888 27.12573,-35.64124 45.98985,-46.88828 12.04375,-7.18064 25.94036,-12.84496 40.67946,-16.58109 3.39674,-0.86103 6.2288,-1.61843 6.29354,-1.68314 0.0873,-0.0874 -88.43735,-62.37344 -107.87466,-75.90076 l -2.67757,-1.86345 -0.55859,1.01088 c -6.5417,11.8388 -14.3017,23.19631 -22.9544,33.59602 -5.2953,6.36442 -18.42749,19.49891 -24.77386,24.77818 -15.60563,12.9816 -33.23612,23.80323 -50.56188,31.03494 l -4.93159,2.05843 -0.72467,2.50423 c -1.25907,4.351 -2.36224,7.17331 -4.60605,11.78422 -7.97104,16.38003 -21.67021,29.03939 -38.74601,35.80506 -10.8256,4.28928 -23.68804,5.90633 -34.91655,4.38969 -10.86205,-1.46717 -20.19078,-4.65494 -28.74355,-9.82221 -14.25494,-8.61228 -24.71482,-21.17318 -30.72992,-36.90249 l -1.51818,-3.96992 -4.27593,-1.50167 C 290.9212,394.51355 252.22795,362.11732 228.3406,320.37271 c -1.54001,-2.69126 -2.93588,-4.84792 -3.10193,-4.79257 -0.47583,0.15861 -110.64748,77.50704 -110.65219,77.68579 -0.002,0.088 2.32536,0.71642 5.17263,1.39651 37.16946,8.87799 66.85706,29.58509 85.51717,59.64826 5.84232,9.41251 10.70773,19.68691 14.58303,30.79523 0.5833,1.672 1.16387,3.1583 1.29015,3.30288 0.12629,0.14461 2.13333,-0.69107 4.46011,-1.85699 14.63246,-7.33235 30.80261,-12.16659 46.73172,-13.97101 5.39289,-0.61088 19.27135,-0.51994 24.44207,0.16016 26.48158,3.48314 48.72049,14.96035 69.47793,35.85674 13.08032,13.16784 25.0008,29.85916 35.52,49.7358 1.408,2.66048 2.632,4.83949 2.72,4.84224 0.088,0.003 1.08586,-1.75785 2.21744,-3.91241 z m 5.52826,-160.73479 c 4.7296,-1.61152 7.17616,-7.27449 5.10768,-11.82262 -0.92538,-2.03466 -2.04736,-3.21254 -4.01732,-4.2175 -3.31472,-1.69095 -7.01875,-1.196 -9.73936,1.3014 -4.63577,4.25552 -3.67001,11.46055 1.90996,14.2489 2.27622,1.13744 4.38793,1.29094 6.73904,0.48982 z m -46.16602,-66.512 c 10.18173,-7.5775 22.46138,-12.46793 35.06032,-13.96295 4.94349,-0.5866 13.74778,-0.52257 18.224,0.13254 12.23584,1.79076 23.63325,6.49358 33.408,13.78485 1.6984,1.26688 3.916,3.06297 4.928,3.99129 1.012,0.92832 1.84,1.52426 1.84,1.32429 0,-0.19997 -1.22336,-7.73843 -2.71859,-16.75213 l -2.71856,-16.38851 -3.66864,-3.57417 c -9.47373,-9.22976 -21.8496,-14.3935 -37.20496,-15.52348 -14.08429,-1.03645 -29.01162,3.00844 -39.99408,10.83729 -1.09165,0.77818 -3.63882,3.02711 -5.66039,4.99762 l -3.67558,3.58274 -2.76442,16.64 c -1.52041,9.152 -2.8455,16.928 -2.94464,17.28 -0.10796,0.38333 0.805,-0.29446 2.27652,-1.69018 1.3512,-1.2816 3.87705,-3.38726 5.61302,-4.6792 z"
           id="path1138" />
        <path
           style="fill:#522775;stroke-width:0.32"
           d="m 400.18129,462.23726 c -25.62227,-3.46183 -47.30589,-19.86503 -57.40768,-43.42775 -3.97267,-9.26643 -5.79232,-18.0254 -5.79232,-27.88192 0,-6.54969 0.43494,-9.91318 3.95968,-30.62166 1.66259,-9.768 4.70714,-27.768 6.76566,-40 l 3.74272,-22.24 4.52599,-4.58468 c 7.01149,-7.10246 11.0424,-10.10933 18.64505,-13.90834 10.4002,-5.19694 19.98532,-7.51605 32.33031,-7.8223 7.52259,-0.18662 11.68115,0.13312 18.19059,1.39863 8.80234,1.71126 18.85469,5.8126 26.12477,10.65885 3.51344,2.34205 8.58333,6.8428 12.91366,11.46396 l 2.47959,2.64613 5.84502,35.11386 c 3.21475,19.31264 6.14861,36.12189 6.51965,37.35389 1.92723,6.39936 3.07846,15.51069 2.81197,22.25546 -0.4313,10.9167 -2.70519,19.99612 -7.40919,29.58454 -5.13398,10.4649 -12.4215,19.24877 -21.76547,26.23459 -9.3727,7.00733 -19.07488,11.17242 -31.36,13.46269 -3.90643,0.72826 -16.65165,0.91779 -21.12,0.31405 z m 12.0657,-63.70871 c 4.7296,-1.61152 7.17616,-7.27449 5.10768,-11.82262 -0.92538,-2.03466 -2.04736,-3.21254 -4.01732,-4.2175 -3.31472,-1.69095 -7.01875,-1.196 -9.73936,1.3014 -4.63577,4.25552 -3.67001,11.46055 1.90996,14.2489 2.27622,1.13744 4.38793,1.29094 6.73904,0.48982 z M 365.2531,332.74359 c 9.41232,-7.30649 20.7736,-12.16252 33.32819,-14.24508 4.89299,-0.81165 17.45085,-0.81624 22.06627,-0.008 14.10538,2.46989 26.5128,8.35987 36.78432,17.46205 1.21581,1.0774 2.25354,1.916 2.30602,1.86348 0.0525,-0.0525 -1.17632,-7.72172 -2.73072,-17.04275 l -2.82615,-16.94729 -3.63987,-3.44448 c -4.40304,-4.16668 -8.04061,-6.6754 -13.55987,-9.35185 -15.08758,-7.31641 -32.76461,-8.27881 -49.06461,-2.67128 -7.96822,2.74124 -14.50656,6.73355 -20.22358,12.34855 l -3.82736,3.75906 -2.88221,17.07184 c -1.58525,9.3895 -2.88224,17.14227 -2.88224,17.22835 0,0.0861 0.972,-0.73917 2.16,-1.83389 1.188,-1.09472 3.4343,-2.97962 4.99181,-4.18864 z"
           id="path1136" />
        <path
           style="fill:#342441;stroke-width:0.32"
           d="m 404.4522,449.24475 c -7.51232,-0.60404 -14.59536,-2.64717 -21.70272,-6.26023 -2.55651,-1.29961 -6.00467,-3.33398 -7.66256,-4.52077 -3.6103,-2.58441 -8.89142,-7.55216 -11.60512,-10.91654 -5.94688,-7.3728 -10.25555,-16.58621 -12.16573,-26.01446 -0.65094,-3.213 -0.73321,-4.52141 -0.72096,-11.46682 0.0131,-7.36547 0.0676,-8.08211 0.90119,-11.84 4.41721,-19.91286 17.52147,-35.45725 36.32173,-43.08525 3.68851,-1.49657 10.29491,-3.15766 14.49939,-3.64569 4.88323,-0.56682 13.83072,-0.25386 18.32637,0.64099 18.423,3.66707 34.09737,15.87513 42.12579,32.80995 2.21542,4.67306 2.40483,5.40499 4.17513,16.13302 1.76564,10.69981 1.82247,12.1706 0.73351,18.97735 -3.53651,22.10541 -20.2824,40.91014 -41.95517,47.11337 -6.31779,1.80832 -14.57296,2.61364 -21.27085,2.07508 z m 9.10839,-51.28634 c 3.15948,-1.85158 4.99644,-5.32464 4.55929,-8.6201 -0.9815,-7.39881 -9.76195,-10.46771 -14.99033,-5.23929 -1.49274,1.4927 -2.2505,3.23619 -2.40583,5.53526 -0.21936,3.24755 1.08042,6.05341 3.60039,7.77203 1.95513,1.33344 2.99593,1.61786 5.50336,1.50394 1.77052,-0.0805 2.61251,-0.2951 3.73312,-0.95184 z"
           id="path1134" />
        <path
           style="fill:#313131;stroke-width:0.32"
           d="m 401.94129,433.41185 c -8.6879,-1.58064 -16.32118,-5.44221 -22.59078,-11.42832 -6.24893,-5.9664 -10.08679,-12.48842 -12.37949,-21.0376 -0.94557,-3.52586 -0.98781,-3.95475 -1.00832,-10.24 -0.0166,-5.13514 0.1015,-7.12938 0.54454,-9.18134 1.8833,-8.72272 5.80826,-15.9496 12.05562,-22.19732 6.16377,-6.16412 13.47942,-10.13504 22.17261,-12.03513 4.1678,-0.91098 13.39964,-0.82775 17.84582,0.16093 11.09238,2.46649 20.74448,9.00822 26.92768,18.2502 2.6464,3.95559 3.35018,5.30948 4.85334,9.33652 2.27559,6.09638 3.20701,13.5407 2.4778,19.80316 -1.22176,10.49245 -5.33568,19.07744 -12.65882,26.41664 -6.21744,6.23111 -14.66506,10.61968 -23.37427,12.14304 -3.53635,0.61856 -11.48944,0.62349 -14.86573,0.009 z m 11.25741,-35.14314 c 2.74857,-1.3406 4.70006,-4.18457 4.97853,-7.25532 0.44944,-4.95674 -3.68503,-9.57575 -8.57895,-9.58432 -9.52493,-0.0166 -12.53798,12.50121 -4.04275,16.79593 1.44906,0.73255 1.97798,0.82752 4.06576,0.73005 1.44845,-0.0676 2.86682,-0.33974 3.57741,-0.68634 z"
           id="path1132" />
        <path
           style="fill:#161616;stroke-width:0.32"
           d="m 402.74129,433.46135 c -14.45885,-2.39235 -26.16634,-11.04636 -32.49856,-24.02249 -3.38624,-6.9392 -4.63526,-12.91357 -4.3512,-20.81293 0.41206,-11.4591 4.63891,-21.21616 12.68877,-29.29008 6.05373,-6.07181 14.07209,-10.33824 22.64387,-12.04842 4.25658,-0.84924 12.64464,-0.76956 16.9519,0.161 8.29242,1.79155 15.37632,5.52848 21.3226,11.24822 6.76518,6.50742 11.23894,14.8471 12.87964,24.00928 0.71469,3.99107 0.72183,11.01046 0.015,14.95155 -3.18889,17.7848 -16.06704,31.244 -33.81219,35.33776 -3.5511,0.8192 -12.17261,1.07293 -15.84,0.46611 z m 12.42902,-10.27548 c 10.30528,-1.79709 19.5544,-8.74602 24.14343,-18.13917 8.09337,-16.56605 1.30685,-36.56618 -15.16765,-44.69949 -5.17501,-2.55485 -8.98867,-3.39974 -15.1648,-3.35968 -3.88909,0.0253 -5.13814,0.16202 -7.71805,0.84518 -21.15152,5.601 -31.4679,28.93575 -21.26877,48.10813 1.80695,3.39667 3.63389,5.76832 6.64938,8.63175 2.86506,2.72057 4.39296,3.79836 7.77744,5.48627 6.5519,3.26758 13.73507,4.35014 20.74902,3.12701 z m -9.54902,-6.56634 c -15.60954,-2.37338 -25.84698,-17.78189 -21.9417,-33.02477 2.95357,-11.52816 13.45357,-19.75833 25.3017,-19.83216 4.01152,-0.025 6.66349,0.4289 9.98675,1.70925 8.48755,3.27005 15.02487,11.24768 16.59216,20.24784 0.48023,2.75766 0.21639,8.90771 -0.49536,11.54624 -0.73785,2.7353 -3.10697,7.34202 -4.97753,9.67872 -3.30004,4.1224 -8.90247,7.75574 -13.97844,9.06541 -2.89228,0.74624 -7.73654,1.02777 -10.48758,0.60947 z m 7.64909,-18.38483 c 1.58905,-0.77383 3.1871,-2.3696 4.1032,-4.09728 1.00643,-1.89802 1.02144,-5.8976 0.0291,-7.76586 -0.93475,-1.75993 -3.18314,-3.76531 -4.99917,-4.45885 -2.13056,-0.81369 -5.42714,-0.55292 -7.36461,0.5825 -6.22189,3.64627 -5.88963,12.65149 0.58234,15.78336 1.34669,0.65168 1.97997,0.75763 4,0.66934 1.51923,-0.0664 2.8584,-0.32816 3.64909,-0.71321 z"
           id="path1130" />
      </g>
    </g>
  </g>
</svg>
