<?xml version="1.0" encoding="UTF-8" standalone="no"?>
<!-- Created with Inkscape (http://www.inkscape.org/) -->

<svg
   version="1.1"
   id="svg870"
   width="512"
   height="512"
   viewBox="0 0 512 512"
   sodipodi:docname="cansina.svg"
   inkscape:version="1.2.2 (b0a8486541, 2022-12-01)"
   xmlns:inkscape="http://www.inkscape.org/namespaces/inkscape"
   xmlns:sodipodi="http://sodipodi.sourceforge.net/DTD/sodipodi-0.dtd"
   xmlns="http://www.w3.org/2000/svg"
   xmlns:svg="http://www.w3.org/2000/svg">
  <defs
     id="defs874" />
  <sodipodi:namedview
     id="namedview872"
     pagecolor="#505050"
     bordercolor="#eeeeee"
     borderopacity="1"
     inkscape:pageshadow="0"
     inkscape:pageopacity="0"
     inkscape:pagecheckerboard="0"
     showgrid="false"
     inkscape:zoom="0.61733737"
     inkscape:cx="403.34509"
     inkscape:cy="258.36764"
     inkscape:window-width="1366"
     inkscape:window-height="695"
     inkscape:window-x="0"
     inkscape:window-y="24"
     inkscape:window-maximized="1"
     inkscape:current-layer="g876"
     inkscape:showpageshadow="0"
     inkscape:deskcolor="#505050" />
  <g
     inkscape:groupmode="layer"
     inkscape:label="Image"
     id="g876">
    <g
       id="g1150"
       transform="matrix(0.95211185,0,0,0.9497561,12.259395,12.862438)">
      <path
         id="path978-3-6-7"
         style="fill:#ffffff;stroke-width:0.959849"
         d="m 14.088029,-0.67626202 -0.58398,0.578125 C 7.892789,5.456604 2.281239,11.011101 -3.329941,16.565925 V 329.52686 c 4.08116004,2.56109 7.10862,6.38446 10.81446,9.4043 1.43183,1.15073 2.97748,2.16791 4.625,2.98242 -0.003,14.26561 -0.0058,28.53127 -0.0098,42.79688 -4.13942,2.29504 -7.44407,5.76135 -10.66992,9.16015 -2.25022996,2.50751 -3.96056,5.56074 -4.50391,8.91407 -0.77211,4.06293 -0.21632,8.17599 -0.27929,12.25781 0.24351,16.02798 0.17452,32.06864 1.01562,48.08008 0.57616,6.97866 2.74250004,13.8354 6.42578,19.80078 6.9363,11.85749 17.89454,21.40948 30.76368,26.29883 5.57909,2.05021 11.54373,2.84542 17.46679,2.86718 13.43492,0.4754 26.88264,0.43897 40.32422,0.51758 43.074931,0.1265 86.149561,0.0422 129.224611,0.0371 82.59986,-0.0402 165.20101,-0.13162 247.80081,-0.20312 7.6271,-3.0214 15.5519,-5.83322 22.0019,-11.06836 8.6444,-6.6315 15.0653,-15.78959 19.5528,-25.64063 1.8745,-3.64729 3.7665,-7.55169 3.5546,-11.76367 0.2369,-22.03173 0.4729,-44.06401 0.711,-66.0957 -4.8199,-3.25945 -8.3393,-8.03036 -13.0235,-11.45313 -0.8518,-0.61514 -1.7276,-1.19988 -2.6484,-1.70703 -0.1592,-79.82601 -0.3208,-159.65249 -0.4785,-239.47851 -3.1383,-6.66489 -5.8359,-13.7427 -10.8438,-19.28907 -6.4804,-7.68009 -14.7751,-14.11493 -24.4355,-17.1875 -6.9066,-2.0266 -14.1747,-1.8131 -21.2949,-2.05078 -11.8571,-0.18101 -23.7144,-0.27164 -35.5723,-0.37891 V 16.565925 c -5.8059,-5.74753 -11.6121,-11.49474 -17.418,-17.24218702 z M 454.09194,389.39796 c 1.1236,0.25551 1.5659,2.04973 0.5352,2.6582 -0.7253,-0.33487 -1.6111,-0.5117 -2.2383,-0.94336 -0.2036,-0.58968 0.6122,-1.03426 0.8515,-1.56055 0.155,-0.27455 0.5904,-0.17325 0.8516,-0.15429 z" />
      <g
         id="g824"
         transform="translate(0.003101,-0.00420206)">
        <path
           id="path716"
           style="fill:#00ff00;stroke-width:5.80725"
           d="m 386.29492,172.38477 c 0,32.79817 0,65.59635 0,98.39453 8.44643,2.66351 16.94328,5.17073 25.34614,7.97006 3.479,1.2401 7.06058,2.37687 10.19327,4.37944 1.2606,0.77648 2.34972,2.06923 2.25296,3.63363 0.16446,1.50791 -0.70497,2.887 -1.89995,3.73331 -3.06559,2.29919 -6.67138,3.71488 -10.14312,5.27336 -7.41448,3.1504 -15.10042,5.99751 -22.47704,9.39798 -1.57089,0.79359 -3.30451,1.38335 -4.64898,2.54398 -1.31797,1.75445 -2.10492,3.8398 -3.06195,5.80046 -3.48281,7.62935 -6.39987,15.64267 -9.89922,23.17598 -1.42842,2.92413 -2.76906,5.97772 -4.95898,8.42773 -0.81513,0.95841 -2.11659,1.50332 -3.357,1.12247 -1.61969,-0.34317 -3.27159,-1.07988 -4.12422,-2.58165 -1.87425,-3.05886 -2.85823,-6.5514 -4.00884,-9.92282 -0.99777,-3.09455 -1.99036,-6.19086 -2.98651,-9.28596 -91.82942,-0.19808 -183.65885,-0.39373 -275.488277,-0.58985 0,16.22787 0,32.45573 0,48.6836 119.311197,0 238.622397,0 357.933597,0 0,-67.38542 0,-134.77084 0,-202.15625 -16.22396,0 -32.44792,0 -48.67188,0 0,0.66666 0,1.33333 0,2 z" />
        <path
           style="fill:#000000;stroke-width:0.959849"
           d="M 43.236832,490.96731 C 33.039016,487.7213 23.336221,478.61974 19.131686,468.35583 c -1.675334,-4.08977 -1.907971,-7.55361 -2.2153,-32.98528 l -0.343388,-28.41564 2.885036,-2.85493 c 2.445766,-2.42024 3.630912,-2.85492 7.783757,-2.85492 h 4.898711 v -38.19307 -38.19307 h -5.350795 c -4.394571,0 -5.774057,-0.41883 -7.719186,-2.34367 L 16.70213,320.17158 V 172.53401 24.896439 l 2.820475,-2.791032 2.820475,-2.791032 H 201.9626 381.58213 l 2.82046,2.791032 2.82048,2.791032 v 50.624166 50.624165 l 34.49511,0.29381 c 33.0738,0.28169 34.68266,0.37954 39.04676,2.37463 6.39311,2.92267 13.6331,9.95238 16.3311,15.85678 l 2.27481,4.97823 0.25518,125.79841 0.25517,125.79842 h 4.88476 c 4.13735,0 5.3262,0.43683 7.76981,2.85492 l 2.88503,2.85493 -0.30578,28.46883 -0.3058,28.46883 -3.62722,7.25893 c -4.40746,8.82035 -11.67585,15.82739 -19.77478,19.06374 l -5.54495,2.21577 -208.41802,0.18954 C 53.911724,492.80563 48.890519,492.76688 43.236832,490.96731 Z M 468.80721,474.26405 c 2.92443,-1.78919 5.83537,-4.66853 7.64343,-7.56047 l 2.92021,-4.67074 0.30435,-22.75529 0.30435,-22.75527 H 256.06002 32.140502 l 0.04236,21.24489 c 0.04545,22.79805 0.509399,25.66355 5.124585,31.65122 1.374063,1.78268 4.772618,4.36275 7.552345,5.73349 l 5.05406,2.49225 207.085068,-0.24518 207.08506,-0.24518 z m -66.14577,-27.18732 v -7.63861 h 7.71918 7.71919 v 7.63861 7.63861 h -7.71919 -7.71918 z m 30.87674,0 v -7.63861 h 7.71919 7.71919 v 7.63861 7.63861 h -7.71919 -7.71919 z m 30.64613,-170.67527 -0.25183,-124.84358 -2.31679,-3.21446 c -4.6787,-6.49151 -6.39387,-6.76678 -42.30976,-6.79026 l -32.08286,-0.021 v 7.63861 7.63861 h 28.05627 28.05627 l 2.82047,2.79103 2.82048,2.79103 v 109.4445 109.44451 l -2.3684,2.34366 -2.36838,2.34367 H 255.9969 67.754019 l -2.368381,-2.34367 -2.368391,-2.34366 v -28.21079 -28.21079 h -7.719186 -7.719186 v 38.19307 38.19307 H 256.00751 464.43613 Z m -30.64613,-5.01284 v -99.30197 h -23.16632 -23.16632 l 0.24999,48.90525 0.24998,48.90526 16.88572,5.01063 c 17.73469,5.26257 21.22777,7.24974 21.22777,12.07626 0,4.42786 -2.63172,6.0792 -21.66348,13.59334 l -18.79626,7.42114 -7.31983,18.21717 c -4.04137,10.05794 -8.20959,18.96555 -9.30642,19.88811 -2.44434,2.05595 -6.43905,2.15179 -9.22426,0.22132 -1.8695,-1.29578 -3.29237,-4.98837 -7.62773,-19.79527 -0.46297,-1.58122 -7.81736,-1.67095 -136.95732,-1.67095 H 78.455619 v 22.91584 22.91584 H 255.9969 433.53818 Z m -64.27655,35.89888 c 1.90057,-4.6753 4.16317,-9.27426 5.02799,-10.2199 0.86483,-0.94565 5.64769,-3.31548 10.6286,-5.26632 4.98091,-1.95082 8.85812,-3.74298 8.616,-3.98257 -0.55844,-0.55261 -40.48151,-12.47961 -40.80532,-12.19058 -0.27974,0.24969 11.31823,38.82404 12.02201,39.98475 0.67131,1.10714 0.69118,1.07048 4.51072,-8.32538 z m -22.87719,0.95486 c -0.28566,-0.73663 -3.44707,-11.0361 -7.02536,-22.88771 -7.08949,-23.48104 -7.15226,-24.44683 -1.81367,-27.9083 2.43808,-1.58081 2.97622,-1.49494 17.65334,2.81667 8.32623,2.44596 15.46425,4.44598 15.86227,4.4445 0.39802,-0.002 0.72367,-38.02866 0.72367,-84.50485 V 95.700511 H 201.9626 32.140502 V 202.64109 309.58169 H 189.52215 c 134.64581,0 157.30663,-0.19348 156.86229,-1.33933 z M 49.947266,291.9608 c -2.345012,-2.32054 -2.368391,-2.51917 -2.368391,-20.12482 v -17.78114 l 2.820475,-2.79103 2.820474,-2.79103 H 186.52423 319.82864 l 2.82046,2.79103 2.82048,2.79103 v 17.78114 c 0,17.60565 -0.0233,17.80428 -2.36839,20.12481 l -2.36839,2.34367 H 186.52423 52.315647 Z M 310.0312,271.38862 V 263.75 H 186.52423 63.017247 v 7.63862 7.63861 H 186.52423 310.0312 Z M 49.947266,230.85189 47.578875,228.50822 V 172.53401 116.5598 l 2.820475,-2.79102 2.820474,-2.79104 h 83.129696 83.1297 l 2.82046,2.79104 2.82048,2.79102 v 55.97421 55.97421 l -2.36839,2.34367 -2.36839,2.34367 H 136.34952 52.315647 Z m 65.411474,-26.53566 -13.74556,-13.6021 -13.745567,13.6021 -13.745574,13.60209 h 27.491141 27.49114 z m 69.47496,-7.63936 -21.46551,-21.24146 -13.7371,13.5937 -13.7371,13.59372 7.68309,7.64774 7.68309,7.64775 h 27.51952 27.51953 z M 99.875222,172.55092 c 3.586018,-0.89064 5.873278,0.59305 15.984078,10.36839 l 8.93919,8.6426 16.63062,-16.2993 c 9.14684,-8.96462 17.64801,-16.82046 18.89151,-17.45744 1.26077,-0.64582 3.38811,-0.87817 4.80911,-0.52524 1.53893,0.38221 10.86662,8.8101 23.55014,21.27836 l 21.00191,20.64548 v -36.47441 -36.47439 h -53.92312 -53.92312 l -0.64643,5.11976 c -1.309343,10.37031 -8.495037,21.39818 -17.718702,27.19288 -4.89215,3.07346 -13.357125,5.88043 -17.733595,5.88043 h -2.719566 v 21.18762 21.18764 l 17.167431,-16.82287 c 10.018279,-9.81718 18.218158,-17.08382 19.690544,-17.44951 z m -24.48384,-26.90799 c 5.194472,-3.17797 9.471538,-9.48783 10.391231,-15.32995 l 0.63884,-4.05801 H 74.71935 63.017247 v 11.58364 11.58364 l 3.956787,-0.52517 c 2.176232,-0.28885 5.964037,-1.75322 8.417348,-3.25415 z m 165.167148,79.91401 v -7.63862 h 57.89389 57.8939 v 7.63862 7.63861 h -57.8939 -57.89389 z m 0,-30.55446 v -7.63861 h 57.89389 57.8939 v 7.63861 7.63861 h -57.8939 -57.89389 z m 2.36839,-25.2595 -2.36839,-2.34366 V 141.97956 116.5598 l 2.82047,-2.79102 2.82047,-2.79104 h 52.25295 52.25296 l 2.82047,2.79104 2.82047,2.79102 v 25.41976 25.41976 l -2.36839,2.34366 -2.36838,2.34367 H 298.45242 245.2953 Z M 340.90795,141.5322 V 126.25497 H 298.45242 255.9969 v 15.27723 15.27722 h 42.45552 42.45553 z M 140.20911,57.507443 V 34.591602 H 86.174805 32.140502 v 22.915841 22.915841 h 54.034303 54.034305 z m -92.630235,0 V 49.86883 h 7.719186 7.719186 v 7.638613 7.638614 h -7.719186 -7.719186 z m 30.876744,0 V 49.86883 h 7.719186 7.719187 v 7.638613 7.638614 h -7.719187 -7.719186 z m 30.876741,0 V 49.86883 h 7.71919 7.71919 v 7.638613 7.638614 h -7.71919 -7.71919 z m 262.45233,0 V 34.591602 H 263.71609 155.64748 v 22.915841 22.915841 h 108.06861 108.0686 z m -200.69884,0 V 49.86883 h 92.63024 92.63023 v 7.638613 7.638614 h -92.63023 -92.63024 z"
           id="path978-3-6" />
        <path
           id="path1115"
           style="fill:#ffffff;stroke-width:4.47465"
           d="m 30.928747,96.319691 c 0,71.846989 0,143.693959 0,215.540939 74.194863,-0.37744 148.390043,-0.69949 222.584613,-1.13062 29.57539,-0.1973 59.15157,-0.33865 88.72547,-0.70265 1.5328,-0.0309 3.06843,-0.0277 4.59233,-0.21625 0.27887,-0.88364 0.67315,-1.7861 0.36289,-2.71739 -1.30374,-5.48643 -2.99804,-10.87439 -4.60459,-16.27936 -2.17584,-7.24966 -4.52202,-14.46784 -6.18669,-21.85669 -0.456,-2.40268 -1.08082,-4.90585 -0.53442,-7.34293 0.50983,-1.71172 2.17788,-2.75177 3.69679,-3.51572 0.75376,-0.41345 1.59442,0.0822 2.37677,0.16769 9.30574,2.09691 18.39972,5.01037 27.67886,7.20702 0.5208,-0.0343 1.27696,0.51536 1.6154,0.0279 0.52319,-0.63125 1.02006,-1.31469 0.99707,-2.17112 0.34074,-6.18783 0.33787,-12.38926 0.43742,-18.58449 0.43289,-38.38989 0.28,-76.78292 0.31076,-115.17442 0,-11.7205 0,-23.441 0,-35.161494 -114.01756,0 -228.03512,0 -342.052673,0 0,0.636551 0,1.273103 0,1.909653 z M 136.74718,112.44731 c 27.51593,0 55.03187,0 82.5478,0 1.68176,1.59376 3.36342,3.18763 5.04499,4.7816 0,36.73409 0,73.46819 0,110.20228 -1.68157,1.59397 -3.36323,3.18784 -5.04499,4.7816 -55.476,0 -110.95199,0 -166.42799,0 -0.838181,-0.98606 -1.919801,-1.79808 -2.576203,-2.91856 -0.714928,-2.15876 -0.666121,-4.47475 -0.821885,-6.72012 -0.34702,-9.902 -0.255861,-19.96729 -0.30572,-29.94855 -0.01359,-25.13159 -0.0041,-50.26319 -0.0069,-75.39479 1.679893,-1.59642 3.362013,-3.18825 5.043102,-4.78346 27.515934,0 55.031856,0 82.547796,0 z m 214.29599,0 c 0.92696,1.10004 2.16899,1.98743 2.80801,3.29527 0.71248,2.22076 0.63482,4.59456 0.76755,6.89775 0.21581,9.59203 0.1098,19.18777 0.12589,28.78144 -0.058,4.79257 0.0573,9.60122 -0.40838,14.37736 -0.12313,1.18381 -0.39936,2.4635 -1.43036,3.2123 -1.12452,1.31394 -2.99852,1.26029 -4.57837,1.46585 -2.51907,0.20083 -5.06208,0.26396 -7.51722,0.31925 -12.61392,0.21904 -25.23083,0.14392 -37.84619,0.16978 -18.89467,0.003 -37.78934,5.6e-4 -56.68401,9.6e-4 -0.92306,-1.09169 -2.14654,-1.97825 -2.79858,-3.2673 -0.72361,-2.19632 -0.63912,-4.55207 -0.77662,-6.83399 -0.2207,-9.49582 -0.10952,-18.99556 -0.12957,-28.4931 0.0606,-4.91978 -0.0681,-9.85627 0.40981,-14.75929 0.12789,-1.1714 0.3871,-2.44604 1.40815,-3.18952 1.09103,-1.29651 2.91719,-1.28388 4.4682,-1.47437 1.52257,-0.13021 3.00293,-0.20079 4.46323,-0.24476 7.97132,-0.24955 16.1355,-0.2143 24.18904,-0.24466 24.50976,-0.0279 49.01964,-0.007 73.52942,-0.0135 z m -52.38342,76.5577 c 18.69804,0 37.39609,0 56.09413,0 0,4.19478 0,8.38955 0,12.58432 -37.39546,0 -74.79092,0 -112.18639,0 0,-4.19477 0,-8.38954 0,-12.58432 18.69743,0 37.39484,0 56.09226,0 z m 0,30.6216 c 18.69804,0 37.39609,0 56.09413,0 0,4.1954 0,8.39079 0,12.58618 -37.39546,0 -74.79092,0 -112.18639,0 0,-4.19539 0,-8.39078 0,-12.58618 18.69743,0 37.39484,0 56.09226,0 z m -112.02243,30.62345 c 44.48646,0 88.97292,0 133.45937,0 0.96096,1.13836 2.25143,2.06001 2.8947,3.42769 0.75977,2.4167 0.63944,4.99444 0.75394,7.49679 0.0879,6.9884 0.10499,13.97966 -0.0566,20.96711 -0.0228,0.60105 -0.0446,1.3715 -0.0819,1.97426 -0.0462,0.92669 -0.0968,1.77279 -0.1979,2.75089 -0.17427,1.6187 -0.3676,3.35811 -1.50318,4.63213 -0.32883,0.47943 -0.58649,1.09408 -1.28767,0.86607 -89.64923,0 -179.29846,0 -268.947681,0 -0.78392,-1.09474 -1.689829,-2.1799 -1.841222,-3.56753 -0.277617,-1.48709 -0.387579,-3.07736 -0.459338,-4.48119 -0.05287,-0.92432 -0.08627,-1.87426 -0.109725,-2.80514 -0.139646,-7.15908 -0.140622,-14.32182 -0.02944,-21.48128 0.111899,-2.16253 0.0082,-4.4009 0.705676,-6.47928 0.622671,-1.22728 1.875267,-1.97626 2.802567,-2.96036 0.433955,-0.61919 1.269895,-0.23449 1.909475,-0.34016 43.996346,0 87.992688,0 131.989038,0 z" />
        <path
           id="path1154"
           style="fill:#ffffff;stroke-width:4.47465"
           d="m 154.71087,35.074645 c 0,15.583071 0,31.166141 0,46.749211 72.75685,0 145.5137,0 218.27055,0 0,-16.219622 0,-32.439243 0,-48.658864 -72.75685,0 -145.5137,0 -218.27055,0 0,0.636551 0,1.273102 0,1.909653 z m 109.13527,16.12762 c 30.30259,0 60.60516,0 90.90774,0 0,4.194772 0,8.389545 0,12.584318 -60.60515,0 -121.21032,0 -181.81548,0 0,-4.194773 0,-8.389546 0,-12.584318 30.30258,0 60.60516,0 90.90774,0 z" />
        <path
           id="path1193"
           style="fill:#ffffff;stroke-width:4.47465"
           d="m 30.928747,35.074645 c 0,15.583071 0,31.166141 0,46.749211 37.021689,0 74.043373,0 111.065063,0 0,-16.219622 0,-32.439243 0,-48.658864 -37.02169,0 -74.043374,0 -111.065063,0 0,0.636551 0,1.273102 0,1.909653 z m 24.58606,16.12762 c 2.119509,0 4.239019,0 6.358529,0 0,4.194772 0,8.389545 0,12.584318 -4.23902,0 -8.478039,0 -12.717058,0 0,-4.194773 0,-8.389546 0,-12.584318 2.11951,0 4.239019,0 6.358529,0 z m 30.946474,0 c 2.119509,0 4.239019,0 6.358528,0 0,4.194772 0,8.389545 0,12.584318 -4.239647,0 -8.479294,0 -12.718942,0 0,-4.194773 0,-8.389546 0,-12.584318 2.120138,0 4.240276,0 6.360414,0 z m 30.944589,0 c 2.12014,0 4.24027,0 6.36042,0 0,4.194772 0,8.389545 0,12.584318 -4.23965,0 -8.4793,0 -12.71895,0 0,-4.194773 0,-8.389546 0,-12.584318 2.11951,0 4.23902,0 6.35853,0 z" />
        <path
           id="path1232"
           style="fill:#ffffff;stroke-width:4.47465"
           d="m 61.873336,264.7459 c 0,5.37525 0,10.75051 0,16.12575 83.072344,0 166.144684,0 249.217014,0 0,-6.0118 0,-12.0236 0,-18.03541 -83.07233,0 -166.14467,0 -249.217014,0 0,0.63656 0,1.27311 0,1.90966 z" />
        <path
           id="path1271"
           style="fill:#ff0000;stroke-width:4.47465"
           d="m 354.23562,275.12404 c -0.59246,-0.01 -1.05997,0.1904 -1.31919,0.74037 -0.79874,0.9514 -0.31903,2.28996 -0.14662,3.38926 1.60011,7.05381 3.70846,13.98298 5.80641,20.90434 1.47558,4.66337 2.87351,9.36152 4.6816,13.91188 0.29193,0.74767 0.75784,1.45892 1.5535,1.73532 0.46581,0.3839 1.07114,-0.057 1.56354,-0.18519 1.26637,-0.89495 1.76342,-2.45477 2.49468,-3.75265 1.91751,-3.7735 3.32466,-7.7762 5.24152,-11.548 0.75457,-1.58803 2.0671,-2.8579 3.66211,-3.6148 3.78248,-1.92017 7.67714,-3.62967 11.62644,-5.18578 1.37915,-0.57164 3.23753,-0.76976 3.92005,-2.27375 0.61453,-1.23098 -0.27739,-2.62179 -1.42882,-3.16984 -2.03045,-0.99968 -4.25188,-1.56157 -6.3918,-2.28993 -9.073,-2.8258 -18.18796,-5.52844 -27.3812,-7.94572 -1.27877,-0.2665 -2.56364,-0.76869 -3.88222,-0.71551 z" />
        <path
           id="path1310"
           style="fill:#8b8b8b;fill-opacity:1;stroke-width:4.47465"
           d="m 385.70036,142.10848 c 0,5.42436 0,10.84872 0,16.27308 15.5769,0.0214 31.15418,-0.049 46.73082,0.0507 3.64835,0.0942 7.33031,-0.006 10.94069,0.5945 1.72311,0.24269 2.73594,1.77827 3.98141,2.80537 0.48668,0.37681 0.12869,1.11526 0.23814,1.65359 0,72.27964 0,144.55928 0,216.83891 -1.23721,1.30409 -2.47596,2.60424 -3.7126,3.90882 -125.09943,0 -250.19887,0 -375.29831,0 -0.991557,-0.99519 -2.095203,-1.78281 -2.928317,-2.87604 -0.777442,-1.73172 -0.682789,-3.69327 -0.832449,-5.54759 -0.289655,-8.53971 -0.151701,-17.08671 -0.191172,-25.62974 0,-9.06451 0,-18.12902 0,-27.19354 -6.075844,0 -12.151687,0 -18.227531,0 0,26.42806 0,52.85613 0,79.28418 139.805969,0 279.611939,0 419.417909,0 -0.0101,-60.32614 0.0228,-120.65231 -0.0226,-180.97843 -0.0347,-18.04758 0.002,-36.0968 -0.3013,-54.14241 -0.13841,-4.93283 -0.12659,-9.889 -0.77772,-14.78916 -0.20988,-1.76304 -0.9008,-3.43214 -1.95309,-4.86544 -1.30936,-2.15827 -3.27111,-3.97262 -5.71419,-4.7789 -3.89021,-1.30018 -8.04555,-1.42012 -12.10755,-1.66625 -10.9286,-0.44735 -21.87017,-0.42865 -32.80569,-0.58332 -8.81216,-0.0959 -17.62429,-0.19399 -26.43646,-0.28856 0,0.64339 0,1.28678 0,1.93017 z" />
        <path
           id="path1682"
           style="fill:#313131;fill-opacity:1;stroke-width:4.47465"
           d="m 30.730867,416.79645 c 0.207643,10.57156 0.291547,21.14635 0.606078,31.71529 0.222661,5.10082 0.331121,10.27533 1.657849,15.23953 0.847308,3.28395 2.773748,6.26314 5.447721,8.3841 3.045515,2.44026 6.445066,4.39678 9.673128,6.58494 0.601829,0.2457 1.34234,0.0352 1.997241,0.10632 138.020276,0 276.040566,0 414.060836,0 3.59857,-2.45017 7.40336,-4.70285 10.39406,-7.90457 2.05028,-2.1374 3.89497,-4.5067 5.28237,-7.11795 0.84869,-2.47407 0.86447,-5.13138 1.06346,-7.7132 0.47485,-10.20495 0.30048,-20.42541 0.36286,-30.63796 0.006,-3.53262 0.0115,-7.06524 0.0185,-10.59785 -150.19873,0 -300.39745,0 -450.59618,0 0.01068,0.64712 0.02135,1.29424 0.03203,1.94135 z m 379.555553,23.75132 c 2.11951,0 4.23902,0 6.35853,0 0,4.19539 0,8.39079 0,12.58618 -4.23902,0 -8.47804,0 -12.71706,0 0,-4.19539 0,-8.39079 0,-12.58618 2.11951,0 4.23902,0 6.35853,0 z m 30.94647,0 c 2.11951,0 4.23902,0 6.35853,0 0,4.19539 0,8.39079 0,12.58618 -4.23964,0 -8.47929,0 -12.71895,0 10e-6,-4.19539 0,-8.39079 0,-12.58618 2.12014,0 4.24029,0 6.36042,0 z" />
        <path
           id="path1721"
           style="fill:#ff0000;fill-opacity:1;stroke-width:4.47465"
           d="m 401.17265,439.73281 c 0,5.37588 0,10.75174 0,16.12762 6.07585,0 12.15168,0 18.22753,0 0,-6.01242 0,-12.02485 0,-18.03727 -6.07585,0 -12.15168,0 -18.22753,0 0,0.63655 0,1.2731 0,1.90965 z" />
        <path
           id="path1908"
           style="fill:#00ff0c;fill-opacity:1;stroke-width:4.47465"
           d="m 432.11913,439.73281 c 0,5.37588 0,10.75174 0,16.12762 6.07583,0 12.15168,0 18.22752,0 0,-6.01242 0,-12.02485 0,-18.03727 -6.07584,0 -12.15169,0 -18.22752,0 0,0.63655 0,1.2731 0,1.90965 z" />
        <path
           id="path3020"
           style="fill:#00ff0c;fill-opacity:1;stroke-width:4.47465"
           d="m 46.401041,50.38544 c 0,5.375874 0,10.751747 0,16.12762 6.075844,0 12.151687,0 18.227531,0 0,-6.012424 0,-12.024849 0,-18.037273 -6.075844,0 -12.151687,0 -18.227531,0 0,0.636551 0,1.273103 0,1.909653 z" />
        <path
           id="path3059"
           style="fill:#ffff00;fill-opacity:1;stroke-width:4.47465"
           d="m 77.347515,50.38544 c 0,5.375874 0,10.751747 0,16.12762 6.075844,0 12.151687,0 18.227531,0 0,-6.012424 0,-12.024849 0,-18.037273 -6.075844,0 -12.151687,0 -18.227531,0 0,0.636551 0,1.273103 0,1.909653 z" />
        <path
           id="path3135"
           style="fill:#ff0000;fill-opacity:1;stroke-width:4.47465"
           d="m 108.29211,50.38544 c 0,5.375874 0,10.751747 0,16.12762 6.07584,0 12.15168,0 18.22752,0 0,-6.012424 0,-12.024849 0,-18.037273 -6.07584,0 -12.15168,0 -18.22752,0 0,0.636551 0,1.273103 0,1.909653 z" />
        <path
           id="path3211"
           style="fill:#ffff00;fill-opacity:1;stroke-width:4.47465"
           d="m 61.873336,126.94315 c 0,8.18502 0,16.37006 0,24.55508 4.373295,-1.11262 8.911142,-1.92676 12.891305,-4.14721 4.731526,-2.4835 8.457797,-6.65085 10.585963,-11.49535 1.596001,-3.44118 2.307019,-7.18155 3.272275,-10.82217 -8.916515,0 -17.833029,0 -26.749543,0 0,0.63654 0,1.2731 0,1.90965 z" />
        <path
           id="path3287"
           style="fill:#00ff00;fill-opacity:1;stroke-width:4.47465"
           d="m 100.53334,190.12022 c -9.9128,9.83672 -19.826913,19.67215 -29.742234,29.50639 17.61712,-0.0312 35.235324,0.0881 52.851504,-0.13254 1.61022,-0.0793 3.25303,0.0403 4.84112,-0.2364 0.7946,-0.33068 1.58906,-0.66165 2.3836,-0.99243 -0.90126,-1.31445 -1.82616,-2.6155 -3.00566,-3.70465 -8.54489,-8.70544 -17.30189,-17.2036 -25.96579,-25.79241 -0.45418,0.45068 -0.90836,0.90136 -1.36254,1.35204 z" />
        <path
           id="path3363"
           style="fill:#00ff00;fill-opacity:1;stroke-width:4.47465"
           d="m 162.49036,174.8113 c -9.4863,9.363 -18.97123,18.72736 -28.45696,28.09092 5.59002,5.57564 11.18136,11.15 16.77265,16.72439 19.88344,0 39.76688,0 59.65031,0 -15.53379,-15.38795 -31.06879,-30.77469 -46.60157,-46.16363 -0.45481,0.44943 -0.90962,0.89888 -1.36443,1.34832 z" />
        <path
           id="path3402"
           style="fill:#008cff;fill-opacity:1;stroke-width:4.47465"
           d="m 100.8801,126.44895 c -0.70589,2.42981 -1.361477,5.04934 -1.422845,7.50434 -0.209904,2.32535 -1.303174,4.46059 -2.267135,6.55697 -2.524291,4.9623 -5.605314,9.79534 -9.975441,13.37113 -5.444543,4.55128 -12.110201,7.69657 -19.154274,8.8423 -2.062342,0.40454 -4.124368,0.81065 -6.187069,1.2134 0,15.23434 0,30.46866 0,45.703 8.836776,-8.52385 17.601931,-17.1214 26.530933,-25.55093 3.083925,-2.84624 6.224178,-5.83195 9.606609,-8.41189 1.21395,-0.82718 2.454512,-1.9205 3.996192,-1.97745 1.88591,0.51116 3.3575,1.90202 4.8698,3.06053 4.8116,4.06794 9.23249,8.55963 13.82144,12.8666 1.33541,1.27412 2.67065,2.54843 4.00648,3.82211 9.10022,-8.78742 18.09177,-17.6872 27.33719,-26.3258 3.00093,-2.71199 5.92821,-5.5534 9.32139,-7.79028 0.76718,-0.43417 1.61093,-1.02069 2.53288,-0.91598 2.06644,0.95322 3.73511,2.55709 5.47917,3.9776 5.92698,5.17199 11.59335,10.75129 17.2949,16.2474 8.3194,8.07954 16.63163,16.16702 24.95071,24.24717 0,-25.9519 0,-51.90379 0,-77.85567 -36.7855,0 -73.57099,0 -110.35648,0 -0.12815,0.47181 -0.2563,0.94363 -0.38445,1.41545 z" />
        <path
           id="path3959"
           style="fill:#008cff;fill-opacity:1;stroke-width:4.47465"
           d="m 254.1802,126.94315 c 0,10.47947 0,20.95894 0,31.43841 29.28491,0 58.56983,0 87.85474,0 0,-11.11602 0,-22.23205 0,-33.34806 -29.28491,0 -58.56983,0 -87.85474,0 0,0.63654 0,1.2731 0,1.90965 z" />
      </g>
    </g>
  </g>
</svg>
