<?xml version="1.0" encoding="UTF-8" standalone="no"?>
<!-- Created with Inkscape (http://www.inkscape.org/) -->

<svg
   version="1.1"
   id="svg834"
   width="512"
   height="512"
   viewBox="0 0 512 512"
   sodipodi:docname="cantoolz.svg"
   inkscape:version="1.2.2 (b0a8486541, 2022-12-01)"
   inkscape:export-filename="../GIT Icons/cantoolz.png"
   inkscape:export-xdpi="96"
   inkscape:export-ydpi="96"
   xmlns:inkscape="http://www.inkscape.org/namespaces/inkscape"
   xmlns:sodipodi="http://sodipodi.sourceforge.net/DTD/sodipodi-0.dtd"
   xmlns="http://www.w3.org/2000/svg"
   xmlns:svg="http://www.w3.org/2000/svg"
   xmlns:rdf="http://www.w3.org/1999/02/22-rdf-syntax-ns#"
   xmlns:cc="http://creativecommons.org/ns#"
   xmlns:dc="http://purl.org/dc/elements/1.1/">
  <metadata
     id="metadata840">
    <rdf:RDF>
      <cc:Work
         rdf:about="">
        <dc:format>image/svg+xml</dc:format>
        <dc:type
           rdf:resource="http://purl.org/dc/dcmitype/StillImage" />
      </cc:Work>
    </rdf:RDF>
  </metadata>
  <defs
     id="defs838" />
  <sodipodi:namedview
     pagecolor="#9b9b9b"
     bordercolor="#666666"
     borderopacity="1"
     objecttolerance="10"
     gridtolerance="10"
     guidetolerance="10"
     inkscape:pageopacity="0"
     inkscape:pageshadow="2"
     inkscape:window-width="1366"
     inkscape:window-height="695"
     id="namedview836"
     showgrid="false"
     inkscape:zoom="0.6275"
     inkscape:cx="186.45418"
     inkscape:cy="258.96414"
     inkscape:window-x="0"
     inkscape:window-y="24"
     inkscape:window-maximized="1"
     inkscape:current-layer="svg834"
     inkscape:pagecheckerboard="0"
     inkscape:showpageshadow="0"
     inkscape:deskcolor="#9b9b9b" />
  <g
     id="g483"
     transform="matrix(0.98315673,0,0,0.98996051,4.3118758,2.5701118)">
    <path
       id="path844-3"
       style="fill:#ffffff;stroke-width:1.25377"
       d="m 266.48823,159.45607 c -9.86748,0.0429 -19.70638,1.48865 -29.2207,4.08398 -10.2998,2.72185 -20.46959,5.97623 -30.36524,9.92969 -10.35533,4.13317 -20.32772,9.16256 -30.01367,14.67187 -8.1914,4.58778 -16.24097,9.39887 -24.64258,13.60938 -6.95384,2.87951 -14.46319,3.90992 -21.73828,5.66016 -23.96808,5.26827 -48.091243,10.22702 -71.333983,18.23437 -8.37427,2.88362 -16.66568,6.31344 -23.9375,11.44727 -8.42906,5.86385 -15.69134,13.44684 -21.06055,22.20703 -4.4648696,7.33505 -7.4541396,15.68399 -7.8535096,24.30664 -0.34109,5.97792 -0.09712,11.98758 0.58007,17.93359 0.37754,2.9791 1.0869,5.91194 1.38867,8.89844 0.0594,2.80302 -1.22719,5.45475 -3.02734,7.53906 -3.19337,4.35762 -4.26318,9.86678 -4.38672,15.16992 -0.50261,6.46736 -1.00562,12.93301 -1.50781,19.40039 142.7090426,-0.68 285.4183226,-1.37405 428.1289526,-1.6289 20.9507,-0.0832 41.9041,0.025 62.8515,-0.39844 3.8594,-0.17005 7.9693,-0.27916 11.334,-2.42773 3.7304,-2.25129 6.2896,-6.13955 7.3008,-10.33789 1.0616,-2.91934 1.5377,-6.30219 0.1211,-9.19141 -0.8274,-2.18456 -2.5018,-4.03672 -2.8496,-6.39453 0.1404,-2.4084 0.8783,-4.76272 0.7343,-7.19336 0.07,-4.80233 -1.4742,-9.81998 -5.0488,-13.16797 -3.1594,-3.24802 -6.4995,-6.31357 -9.6914,-9.5293 6.4101,-10.28378 13.284,-20.27746 19.4805,-30.69336 1.9534,-3.8921 0.5703,-8.89442 -2.6231,-11.69922 -1.6202,-1.44231 -3.7535,-2.03151 -5.832,-2.4414 -1.7435,-0.41247 -3.4958,-0.78762 -5.2461,-1.16992 -2.5607,-3.9596 -5.8122,-7.73451 -6.7031,-12.50196 -0.5114,-3.47035 0.2225,-7.13034 -1.1485,-10.46093 -1.9329,-5.50488 -6.9244,-9.76821 -12.6445,-10.88282 -6.2795,-1.66768 -12.8479,-1.87204 -19.1055,-3.64648 -5.9146,-1.44332 -11.9173,-3.35212 -17.7148,-5.44922 -9.9714,-3.62078 -19.7172,-7.82064 -29.4902,-11.9375 -18.9432,-8.07831 -37.8116,-16.54649 -57.64847,-22.24023 -12.60445,-3.668 -25.47265,-6.43937 -38.4668,-8.30078 -8.91457,-1.13856 -17.91891,-1.16237 -26.89062,-1.32032 -7.2426,-0.0882 -14.4855,-0.087 -21.72852,-0.0781 z m -126.9707,173.31054 a 166.5753,65.435402 0 0 0 6.96289,2.38477 c -1.70086,-0.18241 -3.37495,-0.59729 -4.94141,-1.32227 -0.69766,-0.306 -1.3692,-0.66755 -2.02148,-1.0625 z" />
    <path
       style="fill:#000000;stroke-width:1.25377"
       d="m 18.079986,331.79511 c 0.350338,-4.57611 0.600466,-4.8117 6.920928,-6.51895 3.606599,-0.97422 7.235301,-2.03059 8.063783,-2.34753 1.015591,-0.38851 0.177412,-2.50149 -2.572799,-6.48582 -5.590046,-8.09848 -7.237027,-14.10163 -7.25988,-26.46181 -0.01646,-8.90476 0.499407,-11.71619 3.311968,-18.04982 3.958122,-8.91329 13.033688,-18.5361 22.990873,-24.37716 10.861762,-6.3717 39.078926,-14.71502 75.020121,-22.18218 31.03455,-6.44775 33.86365,-7.30286 43.89445,-13.26741 32.69646,-19.44209 48.17499,-26.34106 74.13971,-33.04499 13.53489,-3.49461 15.75521,-3.68796 41.13311,-3.58195 19.11086,0.0799 29.74054,0.7155 36.96019,2.21023 5.57384,1.15398 13.35336,2.75757 17.28784,3.56352 7.12245,1.45899 20.95652,5.77826 34.57565,10.79519 3.93448,1.44936 19.83311,8.1879 35.3303,14.97453 28.16605,12.33463 46.94833,18.43816 61.30006,19.92021 4.19339,0.43302 7.34925,1.27952 7.01303,1.88111 -0.33621,0.60159 -3.0716,2.29731 -6.07866,3.76826 -6.79197,3.3224 -22.14604,3.57559 -37.95151,0.62579 -5.9017,-1.10145 -16.63209,-2.87457 -23.84528,-3.94028 -7.2132,-1.06572 -17.67532,-2.62675 -23.24916,-3.46896 -13.59275,-2.05386 -85.04221,-1.98485 -101.34246,0.0979 -6.88532,0.87976 -17.55136,2.1511 -23.70228,2.82519 -6.15093,0.67408 -16.88132,2.37291 -23.84528,3.77514 -21.36143,4.30128 -46.66656,9.21725 -58.56395,11.37706 -6.22958,1.1309 -25.00775,2.62444 -41.72926,3.31897 -62.287271,2.58707 -82.848977,7.93621 -100.594173,26.16962 -6.696931,6.88118 -3.376905,0.25624 3.663678,-7.31069 15.739202,-16.91581 47.376515,-24.92929 121.371925,-30.74253 7.86894,-0.6182 19.94063,-2.34893 26.82594,-3.84606 16.05978,-3.49202 45.49529,-8.67332 63.78614,-11.2278 7.86894,-1.09896 19.13584,-2.74699 25.03754,-3.66229 7.24923,-1.12428 27.43177,-1.67854 62.21117,-1.70843 28.31445,-0.0244 50.69819,-0.52856 49.74168,-1.12047 -3.89247,-2.40883 -40.08172,-16.56812 -52.33963,-20.47822 -10.38228,-3.31182 -30.923,-7.67655 -45.35897,-9.63839 -18.77474,-2.55148 -49.04698,1.99418 -70.375,10.56748 -17.04789,6.85283 -40.01699,18.88789 -48.20236,25.2565 -4.30374,3.34852 -17.32341,7.50881 -28.80741,9.20506 -8.3055,1.22679 -18.64561,3.29141 -41.53619,8.29352 -38.928137,8.50672 -53.109294,14.56458 -64.627292,27.60722 -7.821583,8.85692 -10.336027,17.72867 -8.243325,29.08501 1.863416,10.1121 5.519118,17.25599 12.4407,24.31137 6.736742,6.86697 10.456133,8.96993 19.53041,11.04258 5.816099,1.32842 8.618767,1.33589 13.867985,0.0367 3.618318,-0.89544 7.166969,-2.41185 7.885889,-3.36978 1.071096,-1.42721 24.633633,-1.68582 130.487473,-1.43224 71.04917,0.1702 129.87288,0.7828 130.71934,1.36131 0.84646,0.57851 4.77617,1.79886 8.73269,2.7119 17.84474,4.118 35.66804,-5.59284 43.7354,-23.82879 2.18272,-4.93391 3.02444,-9.3091 3.34604,-17.3921 0.37314,-9.37872 0.0304,-11.7642 -2.60448,-18.1288 -3.34701,-8.08464 -2.7645,-9.68083 1.10492,-3.02767 7.76325,13.34831 9.05893,28.07701 3.62464,41.20342 -1.79541,4.33678 -4.39795,9.21939 -5.78342,10.85027 -1.38548,1.63085 -2.28681,3.22204 -2.00296,3.53592 0.28385,0.31391 13.11771,1.79383 28.51969,3.2887 39.56166,3.83976 70.73021,8.02132 72.2408,9.69179 0.34437,0.38083 -27.4415,0.6048 -61.74639,0.49771 -34.30488,-0.10699 -141.67262,0.19548 -238.59496,0.6724 l -176.222459,0.86715 0.363475,-4.74768 z m 39.112062,-14.00266 c -8.582899,-3.57497 -10.198431,-4.53505 -12.759937,-7.58308 -3.151622,-3.75024 -6.32074,-11.7431 -6.304644,-15.90105 0.01835,-4.74148 5.269547,-15.79078 9.678528,-20.36506 5.09805,-5.28919 16.81177,-11.77439 23.395156,-12.95254 4.847726,-0.86754 5.067124,-0.76167 5.067124,2.44548 0,2.83481 -0.690177,3.49122 -4.470991,4.2522 -5.832425,1.17391 -16.886184,7.35157 -20.189072,11.28317 -3.543264,4.2177 -5.146543,9.37127 -5.146543,16.54301 0,5.1832 0.585761,6.63208 4.208939,10.41087 5.082919,5.30119 10.453441,7.11145 21.126676,7.1212 7.787685,0.006 8.047783,0.11397 8.047783,3.3035 0,3.23733 -0.164884,3.29511 -9.240048,3.23828 -5.082026,-0.0318 -11.117863,-0.84004 -13.412971,-1.79598 z m 32.352579,-0.45346 -2.48725,-2.3073 7.681134,-16.48073 c 4.224623,-9.0644 10.227789,-21.96064 13.340369,-28.65834 3.11258,-6.6977 6.03224,-11.7408 6.48814,-11.2069 0.4559,0.53391 7.09527,13.41178 14.75418,28.61749 l 13.92527,27.64676 -2.62231,2.34816 c -1.44226,1.29149 -2.96527,2.33935 -3.38442,2.32859 -0.41918,-0.0108 -2.93463,-4.60887 -5.58991,-10.21803 l -4.82779,-10.19849 -12.44292,0.50249 c -14.01303,0.56589 -13.50454,0.21874 -17.787926,12.14413 -1.538809,4.28421 -3.194169,7.78947 -3.678576,7.78947 -0.484408,0 -2.000003,-1.03828 -3.367991,-2.3073 z m 34.116043,-24.645 c 0.16388,-0.16257 -1.95716,-4.8845 -4.71341,-10.49316 l -5.01137,-10.19757 -4.46764,9.6481 c -2.45719,5.30645 -4.49418,10.25292 -4.52663,10.99217 -0.049,1.11522 17.59788,1.16278 18.71905,0.0504 z m 35.03965,26.00265 -2.81485,-0.59054 0.7625,-22.63253 c 0.41937,-12.44789 1.07886,-26.1467 1.46552,-30.4418 l 0.70304,-7.80927 7.19993,8.46851 c 3.95997,4.65767 12.8832,14.90204 19.82941,22.76525 l 12.62949,14.29678 0.3276,-21.21868 0.32761,-21.21866 h 3.63845 3.63844 l -0.84126,29.33569 c -0.46268,16.13461 -1.05557,29.59984 -1.31753,29.92272 -0.26196,0.32287 -9.56015,-9.76333 -20.66265,-22.41379 l -20.18639,-23.00082 -0.048,22.7434 c -0.0265,12.50886 -0.45043,22.6626 -0.94224,22.56384 -0.4918,-0.0987 -2.16088,-0.44529 -3.70905,-0.7701 z m 125.49286,-1.56619 c -9.29316,-4.66704 -13.58583,-12.6184 -13.58583,-25.16519 0,-4.73499 0.90215,-9.83745 2.4025,-13.58822 2.85098,-7.12729 11.58694,-16.07931 16.82087,-17.23688 6.5813,-1.45559 16.49359,-0.88318 21.05385,1.21581 16.23999,7.47488 17.97236,36.9188 2.97696,50.59761 -7.72469,7.04645 -20.4008,8.83108 -29.66835,4.17687 z m 20.75097,-5.92886 c 7.61273,-4.38015 11.2673,-11.68035 11.2673,-22.50709 0,-16.8352 -9.14248,-25.10833 -23.34107,-21.12158 -7.07061,1.98531 -10.8942,5.90125 -13.26037,13.58052 -4.26912,13.85534 -0.44762,25.54682 10.07356,30.81905 3.15815,1.58257 11.94137,1.13887 15.26058,-0.7709 z m 43.57483,5.13003 c -15.67202,-8.63631 -16.92342,-34.81917 -2.34253,-49.01224 5.92155,-5.76404 9.3559,-7.00368 19.40323,-7.00368 19.33379,0 29.21606,18.19674 21.79468,40.13165 -5.73216,16.94213 -23.64624,24.26549 -38.85538,15.88427 z m 23.08505,-5.86799 c 6.66517,-4.4941 9.96074,-11.56516 10.02983,-21.52026 0.0903,-13.00408 -3.91717,-19.55632 -13.40871,-21.92358 -5.37028,-1.3394 -14.55358,1.23643 -18.30584,5.13461 -3.40993,3.54251 -6.58384,13.06827 -6.58384,19.75978 0,6.89106 4.55898,15.8634 9.51951,18.73497 5.4874,3.17655 13.88605,3.09344 18.74905,-0.18552 z m -9.91931,-10.25548 c -1.10782,-1.94213 -1.60675,-2.02668 -3.2204,-0.54572 -2.60162,2.38767 -4.74969,0.61551 -3.88294,-3.20342 0.57774,-2.54561 0.15491,-3.27647 -2.28793,-3.95448 -3.28956,-0.913 -4.02874,-4.14602 -1.22039,-5.33775 1.14904,-0.4876 1.67529,-2.21884 1.49033,-4.90283 -0.26203,-3.80214 -0.0125,-4.11734 2.99278,-3.76956 2.56325,0.29669 3.27873,-0.17601 3.27873,-2.16624 0,-1.40017 0.84866,-2.90589 1.88591,-3.34605 2.65393,-1.1262 2.88315,-1.03878 2.88315,1.09958 0,2.77369 2.22583,3.84248 4.20996,2.02151 2.76404,-2.53674 5.51247,-0.57797 4.63206,3.30118 -0.57693,2.54196 -0.29421,3.3251 1.20039,3.3251 3.01379,0 3.81013,4.05351 1.2095,6.15643 -1.85223,1.49774 -2.00144,2.26066 -0.84326,4.31151 1.80499,3.19617 -0.43166,5.5784 -4.21131,4.48538 -2.08968,-0.6043 -2.62056,-0.1925 -2.62056,2.03286 0,3.44803 -3.62488,3.77285 -5.49602,0.4925 z m 5.25757,-8.51317 c 2.30906,-2.55345 1.65344,-6.10643 -1.55592,-8.43185 -3.33063,-2.4133 -5.83231,-1.16106 -7.19994,3.60405 -1.45932,5.08463 5.20218,8.75763 8.75586,4.8278 z m 53.89035,26.9874 -6.55746,-0.46532 0.23055,-28.62107 0.23055,-28.62107 3.64431,-0.2149 3.64432,-0.21492 v 25.59522 25.59523 h 8.34585 8.34585 v 3.95537 c 0,4.37534 0.48202,4.29471 -17.88397,2.99146 z m 39.50251,-0.27732 -11.16872,-0.73646 4.85287,-7.2515 c 2.66908,-3.98835 5.31174,-7.84613 5.87258,-8.57285 0.56085,-0.72673 3.93951,-5.98675 7.50812,-11.68892 3.56861,-5.70218 8.21309,-13.11721 10.32106,-16.47786 l 3.83266,-6.11025 -14.26498,-0.3702 -14.26497,-0.3702 v -3.25557 -3.25555 l 14.00911,0.13039 c 7.705,0.0717 16.8422,0.51669 20.30487,0.98884 l 6.29577,0.85844 -8.15311,12.52535 c -4.48422,6.88896 -11.8235,18.3936 -16.30955,25.56589 l -8.15644,13.04053 15.12264,-0.64423 c 8.31744,-0.35431 15.40675,-0.13587 15.75398,0.48545 0.34725,0.62134 0.29232,2.311 -0.12209,3.75481 -0.67975,2.3684 -1.70753,2.60044 -10.50927,2.37274 -5.3657,-0.13879 -14.78176,-0.58377 -20.92455,-0.98885 z m -222.16714,-25.12646 0.34792,-25.05216 h -10.85944 -10.85941 l 0.37725,-3.34061 0.37726,-3.34062 24.14394,-0.28515 24.14391,-0.28514 -5.6e-4,3.62577 -5.9e-4,3.62575 H 255.70405 245.5698 v 25.0507 25.0507 l -3.87486,0.001 -3.87486,10e-4 0.34793,-25.05217 z m 227.97067,-43.44401 c -16.22216,-2.45239 -19.07622,-3.36737 -19.07622,-6.11556 0,-1.89708 1.10229,-2.29716 12.11562,-4.39735 3.71275,-0.708 8.74106,-2.20705 11.17405,-3.33122 5.78078,-2.67101 5.93957,-2.61888 3.67338,1.20584 -3.01493,5.08839 -2.4085,8.06245 2.12954,10.44382 2.23027,1.17036 4.64461,2.1279 5.36519,2.1279 0.72057,0 1.31014,0.59331 1.31014,1.31847 0,0.72515 -0.40239,1.24705 -0.89421,1.1598 -0.4918,-0.0874 -7.60068,-1.17252 -15.79749,-2.4117 z"
       id="path844"
       inkscape:connector-curvature="0" />
    <path
       id="path1105"
       style="fill:#375aff;fill-opacity:1;stroke-width:0.857294"
       d="m 73.482682,260.95989 c -5.26272,0.62577 -10.090544,2.97841 -14.63933,5.47367 -5.085502,2.92173 -10.102295,6.36501 -13.331083,11.24677 -2.858052,4.17459 -5.155068,8.743 -6.578762,13.55592 -0.641778,2.05314 -0.598152,4.2415 0.01344,6.29429 1.088365,4.45977 3.149244,8.68122 5.790612,12.47788 2.340101,2.74689 5.763621,4.32204 8.966094,5.94335 1.070006,0.50568 2.216178,1.00601 3.195874,1.35033 3.838048,1.43014 7.939583,1.76644 12.017891,1.99016 3.046975,0.0599 6.137761,0.11313 9.143899,-0.42386 1.26573,-0.1422 1.396442,-1.55102 1.519696,-2.51756 0.119177,-1.12225 -0.345821,-2.47313 -1.661224,-2.67525 -2.689069,-0.5913 -5.484962,-0.25762 -8.219371,-0.43822 -5.835062,-0.19476 -11.97416,-1.2485 -16.645505,-4.853 -2.877332,-2.22159 -5.658498,-5.01974 -6.401739,-8.62158 -0.654882,-3.12118 -0.468226,-6.35896 -0.04167,-9.49762 0.793737,-5.32057 3.1491,-10.70812 7.713343,-14.02559 4.36197,-3.38651 9.367308,-5.96018 14.56943,-7.92917 2.049005,-0.74071 4.433429,-0.95466 6.117915,-2.40085 1.142668,-1.13029 1.41512,-2.99239 0.737815,-4.40431 -0.449541,-0.76322 -1.508879,-0.61032 -2.267325,-0.54536 z" />
    <path
       id="path2224"
       style="fill:#375aff;fill-opacity:1;stroke-width:1.2124"
       d="m 362.46661,272.74375 c -2.09354,0.32328 -3.10612,2.39416 -3.3616,4.21764 -0.27737,0.61433 0.0552,1.88005 -0.96042,1.70595 -1.73411,0.15573 -3.46904,0.29938 -5.20662,0.41378 -0.2058,2.28016 -0.0627,4.62291 -0.68411,6.84749 -0.30112,1.00123 -1.14051,1.66925 -1.88819,2.34505 -0.85364,1.10767 -0.17396,2.59178 0.93632,3.25448 1.10088,0.78869 2.42022,1.20629 3.6492,1.76743 0.0338,1.9302 -0.36914,3.88378 -0.0351,5.79757 0.0912,0.83342 0.97508,1.24042 1.74487,0.93699 1.25518,-0.33252 2.31301,-1.50472 3.71808,-1.08556 1.52316,0.22214 1.93438,1.94903 3.30387,2.46524 1.02611,0.64724 2.39742,0.0325 2.7177,-1.05938 0.38743,-0.94254 0.50116,-1.96526 0.76441,-2.94355 2.0982,-0.12024 4.3791,0.30731 6.32358,-0.64054 1.29355,-0.71609 0.63619,-2.36316 0.11196,-3.35089 -0.90041,-1.68276 -0.61526,-4.0076 1.11018,-5.09617 1.35977,-1.18049 1.54489,-3.54545 -0.0669,-4.6097 -0.79989,-0.56985 -1.63655,-1.03154 -2.54097,-1.61256 -0.20184,-1.92414 0.12798,-4.00235 -0.7965,-5.78497 -0.5151,-1.07797 -2.03888,-1.05647 -2.81705,-0.27738 -1.26696,1.1863 -3.07269,1.46551 -4.64216,2.1203 -0.34319,-1.74119 -0.63402,-3.49828 -0.84292,-5.25138 -0.12779,-0.19953 -0.30827,-0.22938 -0.5375,-0.15984 z m -0.0757,9.2428 c 3.90305,0.41896 7.14363,4.4943 5.91124,8.22034 -0.81708,2.79689 -4.42284,4.10679 -7.11332,3.02756 -2.09092,-0.79673 -3.83757,-2.83518 -3.57018,-5.09433 0.24786,-1.64846 0.91953,-3.24947 1.84281,-4.65385 0.66877,-0.70287 1.43524,-1.66521 2.5312,-1.50913 0.13312,-0.002 0.26608,-0.013 0.39825,0.01 z" />
  </g>
</svg>
