<?xml version="1.0" encoding="UTF-8" standalone="no"?>
<!-- Created with Inkscape (http://www.inkscape.org/) -->

<svg
   version="1.1"
   id="svg870"
   width="512"
   height="512"
   viewBox="0 0 512 512.00001"
   sodipodi:docname="capstone.svg"
   inkscape:version="1.1.2 (0a00cf5339, 2022-02-04)"
   xmlns:inkscape="http://www.inkscape.org/namespaces/inkscape"
   xmlns:sodipodi="http://sodipodi.sourceforge.net/DTD/sodipodi-0.dtd"
   xmlns="http://www.w3.org/2000/svg"
   xmlns:svg="http://www.w3.org/2000/svg">
  <defs
     id="defs874" />
  <sodipodi:namedview
     id="namedview872"
     pagecolor="#505050"
     bordercolor="#eeeeee"
     borderopacity="1"
     inkscape:pageshadow="0"
     inkscape:pageopacity="0"
     inkscape:pagecheckerboard="0"
     showgrid="false"
     inkscape:zoom="0.59089469"
     inkscape:cx="198.00483"
     inkscape:cy="268.23731"
     inkscape:window-width="1366"
     inkscape:window-height="695"
     inkscape:window-x="0"
     inkscape:window-y="24"
     inkscape:window-maximized="1"
     inkscape:current-layer="g876" />
  <g
     inkscape:groupmode="layer"
     inkscape:label="Image"
     id="g876">
    <g
       id="g14452"
       transform="matrix(0.94809392,0,0,0.93597108,13.287954,16.391403)">
      <path
         id="path1050"
         style="fill:#ffffff;fill-opacity:1;stroke-width:0.817553"
         d="m 257.298,7.9729556 c -0.63707,-0.07359 -1.28666,-0.05683 -1.9082,0.01172 -4.5561,1.025296 -8.2099,4.0902184 -12.1543,6.3984374 -11.92636,7.612749 -24.0044,15.080618 -35.0332,23.980469 -4.47123,3.740159 -8.80549,7.692464 -13.76367,10.794922 -3.24048,2.126828 -6.16368,4.677619 -9.03125,7.273437 -13.30742,11.834103 -26.15984,24.1947 -38.24219,37.283203 -24.72102,26.699566 -46.7625,55.836926 -66.185552,86.595706 -23.87215,37.97585 -43.61905,78.5916 -58.20507,121.02343 -10.47418,30.54488 -18.1466904,62.10645 -22.02930041,94.18165 -1.30276,10.62298 -2.11703999,21.29916 -2.66015999,31.98632 -0.28575,5.36479 -0.53277,10.73243 -0.77734,16.09961 13.2131204,6.53747 26.3911504,13.16748 39.8847604,19.11328 6.18854,2.71185 12.42938,5.3159 18.82422,7.50586 5.70574,2.0113 11.37697,4.11906 17.06446,6.17969 12.72866,4.36719 25.77384,7.72645 38.818362,11 15.61862,3.84385 31.38939,7.08692 47.28515,9.55664 25.04664,3.90664 50.33714,6.3024 75.6836,6.89649 17.6317,0.43581 35.27478,0.18429 52.90039,-0.37696 24.22175,-0.94317 48.35146,-3.68787 72.25976,-7.63672 23.48449,-3.90764 46.76702,-9.16765 69.48438,-16.31836 23.82622,-7.44623 47.1347,-16.66004 69.3496,-28.07031 3.44424,-1.82781 6.9746,-3.52782 10.23047,-5.68359 2.42902,-1.61089 4.29719,-4.06572 5.00782,-6.91016 1.1729,-4.2921 0.27382,-8.75225 0.0723,-13.10547 -0.88433,-12.37345 -1.6645,-24.77512 -3.55664,-37.04492 -1.09796,-6.65547 -2.81403,-13.2461 -2.99414,-20.02148 -0.51343,-5.16293 -1.83374,-10.19913 -2.99023,-15.24414 -4.62412,-19.11072 -10.02933,-38.04102 -16.5586,-56.5918 -13.42835,-38.42771 -31.39586,-75.20258 -52.63671,-109.90234 -20.92888,-34.11576 -45.12237,-66.2664 -72.5,-95.478519 -23.04978,-24.51168 -48.38283,-46.976927 -76.1836,-65.976563 -8.94682,-6.073216 -18.13541,-11.802319 -27.62305,-16.9941404 -0.57041,-0.287867 -1.19496,-0.451802 -1.83203,-0.525391 z" />
      <g
         id="g14161">
        <path
           id="path4408"
           style="opacity:1;fill:#ff5555;fill-opacity:1;stroke-width:4.87045"
           d="m 209.83594,131.46289 c -1.52179,0.33427 -2.5567,1.65551 -3.67969,2.64063 -5.26879,5.29883 -10.1074,11.0041 -14.96792,16.67378 -12.32714,14.57816 -24.28529,29.49617 -35.19157,45.17524 -22.13255,31.69973 -40.89493,65.77509 -55.60086,101.53701 -11.639134,28.39278 -20.74652,57.89976 -26.083003,88.14292 -2.534673,14.88066 -4.257282,29.89542 -5.35434,44.94822 -0.584202,8.28976 -0.955218,16.60736 -0.601737,24.91671 0.09527,3.42209 0.190332,6.84418 0.285758,10.26627 8.915799,2.96969 17.811122,6.02278 26.886709,8.47735 19.139883,5.27225 38.592943,9.35212 58.147233,12.74855 19.47098,3.34094 39.07531,6.0138 58.78698,7.41984 12.55644,0.88986 25.15266,0.90739 37.73455,0.9625 14.17071,-0.009 28.34695,-0.11147 42.50613,-0.71304 9.75013,-0.49857 19.47629,-1.39765 29.1853,-2.40313 41.459,-4.43361 82.61878,-12.82443 121.97179,-26.74531 16.89392,-5.97317 33.40678,-13.02606 49.36141,-21.18612 4.20774,-2.10928 8.41489,-4.21973 12.62302,-6.32822 -0.27507,-7.60403 -0.5235,-15.21163 -1.15536,-22.79616 -0.61649,-7.95725 -1.2441,-15.91922 -2.25886,-23.83697 -0.23277,-1.58326 -0.36373,-3.54473 -1.96468,-4.38444 -1.86449,-0.86011 -3.89465,0.09 -5.67065,0.73305 -6.48131,2.68921 -12.72801,5.90299 -19.06785,8.90348 -15.10829,7.27445 -30.52257,13.93512 -46.29861,19.62909 -11.54316,4.17272 -23.48338,7.89359 -35.34702,11.03661 -6.47446,1.72342 -12.9947,3.29604 -19.48892,4.74659 -16.09823,3.59768 -32.40169,6.36371 -48.82958,8.33586 -12.1805,1.47392 -24.55872,2.54099 -36.80548,3.20221 -16.31968,0.89051 -32.6766,1.09416 -49.03959,0.64348 -8.10541,-0.22223 -16.30164,-0.62125 -24.3672,-1.1713 -20.54708,-1.41862 -40.95069,-3.88102 -61.24787,-7.57543 -8.26134,-1.54534 -16.59478,-3.17318 -24.81898,-5.10739 -3.38956,-0.86238 -6.85303,-1.60545 -10.04236,-3.07895 -0.55959,-0.18983 -0.91918,-0.53856 -0.63127,-1.14518 1.24568,-7.8386 2.76485,-15.63241 4.34633,-23.40957 6.97188,-33.90699 17.13337,-67.30604 31.16887,-99.06389 8.2412,-18.71422 17.81554,-36.90327 28.50842,-54.37356 7.44865,-12.23575 15.63422,-24.112 24.10914,-35.70479 2.86212,-3.86197 5.75528,-7.81983 8.92585,-11.50686 0.36383,-0.50601 0.76503,0.55416 1.1345,0.74756 4.19801,4.51422 8.11604,9.22808 12.04464,13.93981 9.23769,11.16616 18.23505,22.53981 26.65151,34.34114 6.84277,9.4894 13.43788,19.28689 19.55323,29.31163 3.19493,5.22134 6.33584,10.65049 9.3971,16.01776 2.05544,3.49563 3.95004,7.11737 6.45157,10.32339 1.27855,1.66956 3.19057,2.87446 5.31478,3.03198 4.22599,0.49591 8.48514,0.007 12.70622,-0.30925 9.26345,-0.86016 18.49256,-2.0772 27.6827,-3.52078 2.28033,-0.45743 4.72853,-0.74962 6.67893,-2.1136 1.26747,-0.86247 1.68558,-2.59229 1.08762,-3.97904 -1.47771,-3.98281 -3.50567,-7.73349 -5.41323,-11.52167 -5.45545,-10.49829 -11.19997,-20.84775 -17.25122,-31.01404 -8.54377,-14.10138 -17.86412,-27.72449 -27.68239,-40.96559 -5.57552,-7.47484 -11.28531,-14.86617 -17.55408,-21.77794 -11.63402,-12.92421 -23.85006,-25.3122 -36.27543,-37.47395 -7.4103,-7.16397 -14.83878,-14.326 -22.72212,-20.97289 -1.99563,-1.5943 -3.93048,-3.35113 -6.2603,-4.44508 -0.49469,-0.19479 -1.04871,-0.33613 -1.57812,-0.22852 z" />
        <path
           id="path1224"
           style="opacity:1;fill:#ff2424;fill-opacity:1;stroke-width:4.87045"
           d="m 255.01172,16.974609 c -8.91152,5.600613 -17.83661,11.181303 -26.55059,17.087451 -5.19788,3.565837 -10.4841,7.024616 -15.42765,10.942508 -0.77279,0.596482 -1.49755,1.437094 -1.47625,2.450877 0.34396,1.574646 1.91639,2.327798 3.11951,3.185533 3.18569,1.988514 6.49889,3.766498 9.65456,5.806073 11.42986,7.222321 22.57727,14.940583 33.52106,22.819907 6.5711,4.741754 13.08054,9.581763 19.22644,14.869811 13.08094,11.145631 25.48855,23.061261 37.52557,35.320241 9.80842,10.07618 19.42811,20.36714 28.21724,31.35399 19.03966,24.00096 36.26228,49.46231 51.15105,76.24369 1.9864,3.58889 4.02711,7.33617 5.95868,11.02706 1.92783,3.64922 3.8594,7.46157 5.69561,11.14286 4.45309,8.98957 8.65263,18.10406 12.60157,27.32617 1.26824,2.97549 2.57297,6.10935 3.81615,9.16172 2.29512,5.64974 4.54145,11.51678 6.6258,17.31072 3.52818,9.79714 6.90721,19.60317 9.91022,29.54556 0.28014,0.97064 0.60438,2.06127 0.82566,2.90598 0.22308,0.86078 0.46712,1.71697 0.64053,2.58969 -3.69707,1.95004 -7.67441,3.2968 -11.58736,4.74051 -5.77692,2.06552 -11.7028,3.98993 -17.49468,5.82199 -16.20784,5.06763 -32.59301,9.57929 -49.15234,13.34961 -5.97144,1.35417 -12.09799,2.63927 -18.1712,3.75942 -8.08968,1.51193 -16.38108,2.76972 -24.6154,3.7562 -4.02564,0.46788 -8.24374,0.90725 -12.35434,1.25628 -8.16742,0.70483 -16.54485,1.15802 -24.74468,1.40869 -19.74357,0.60298 -39.53443,0.13546 -59.24655,-0.45648 -8.83823,-0.33619 -17.69314,-0.60559 -26.48936,-1.58027 -1.49843,-0.19511 -3.00953,-0.37869 -4.46245,-0.8079 0.046,-0.79065 0.2858,-1.82436 0.42187,-2.42969 0.34017,-1.39237 0.73413,-2.68624 1.15234,-3.98828 0.43094,-1.34405 0.97713,-2.89548 1.4894,-4.3065 4.19462,-11.37929 9.15339,-22.45873 14.22154,-33.47084 6.96405,-14.95557 14.35213,-29.8382 22.34724,-44.31838 3.47856,-6.35393 7.21949,-12.55824 11.06104,-18.69795 2.19035,-3.62702 4.47422,-7.20934 6.41037,-10.9804 0.37246,-0.67104 0.39743,-1.44521 0.0349,-2.12632 -1.54562,-2.70684 -3.49993,-5.15677 -5.30333,-7.69386 -6.31905,-8.5294 -12.7423,-16.98643 -19.47687,-25.19349 -2.52364,-2.97697 -5.13592,-5.87775 -7.70027,-8.81968 -6.67296,9.6841 -13.46319,19.29356 -19.6925,29.27306 -12.49546,19.87407 -23.72618,40.55707 -33.38239,61.95806 -5.58653,12.36988 -10.55407,25.02568 -14.65922,37.96602 -5.14725,16.08488 -9.72722,32.35159 -13.71284,48.76232 -1.48422,6.34766 -3.02057,12.70308 -3.8655,19.17435 -0.14309,1.67835 -0.51559,3.5431 0.36518,5.08299 1.08004,1.33778 2.90454,1.6325 4.45144,2.15351 7.35334,1.95557 14.86941,3.20896 22.3593,4.51159 16.27128,2.71367 32.62106,4.984 49.0309,6.66674 6.41456,0.70513 12.86294,1.01885 19.31296,1.14432 18.22357,0.3676 36.45472,0.13037 54.67397,-0.34959 11.23363,-0.36625 22.47953,-0.69224 33.67514,-1.7312 28.54898,-3.29313 56.92178,-8.49574 84.56464,-16.41216 20.49253,-5.85676 40.53791,-13.27348 59.89434,-22.19581 10.60806,-4.88284 21.1688,-9.89639 31.41976,-15.49914 2.24718,-1.31543 4.62687,-2.48463 6.59196,-4.21504 1.54177,-1.54151 1.38874,-3.92716 1.23653,-5.93455 -0.6705,-5.78088 -2.1926,-11.41836 -3.57966,-17.05811 -4.44443,-17.52462 -9.61504,-34.87013 -15.68776,-51.9025 -21.32359,-59.98048 -52.82589,-116.27605 -92.42004,-166.09991 -20.673,-25.9107 -43.53873,-50.112814 -68.57498,-71.850138 -18.30311,-15.83267 -37.80348,-30.385742 -58.85707,-42.37162 -1.16475,-0.677114 -2.33042,-1.352655 -3.49377,-2.032177 -0.3418,0.215495 -0.68359,0.43099 -1.02539,0.646484 z" />
        <path
           id="path5002"
           style="opacity:1;fill:#b11e29;fill-opacity:1;stroke-width:4.87045"
           d="m 200.33594,55.037109 c -4.15884,3.354421 -8.32288,6.707646 -12.23424,10.352347 -10.46477,9.599902 -20.62527,19.530525 -30.53719,29.700034 -20.90332,21.63047 -39.61684,45.31312 -56.57928,70.13357 -18.627533,27.32825 -35.160258,56.10427 -49.145879,86.08089 -7.160516,15.3395 -13.5624,31.0313 -19.153298,47.0103 -7.689861,21.74947 -14.087215,43.983 -18.483583,66.64053 -4.193508,21.3796 -6.6155715,43.07052 -8.0254638,64.80018 -0.1922872,2.80565 -0.3870958,5.61113 -0.5773968,8.41692 13.4501316,6.41722 26.8312776,12.98058 40.3830986,19.18104 2.132976,0.85568 4.220608,2.05187 6.553218,2.22315 1.814279,0.15343 3.456442,-1.16577 3.996931,-2.85088 0.985334,-2.86607 0.971261,-5.94746 1.204536,-8.93837 0.403061,-8.18462 0.796319,-16.29668 1.501496,-24.45138 1.178428,-14.14248 2.999741,-28.24588 5.565099,-42.25481 2.549904,-13.94534 5.877066,-27.9008 9.887651,-41.49779 4.067324,-13.84948 8.906083,-27.54548 14.265392,-40.89534 8.486804,-21.03766 18.232739,-41.57128 29.250599,-61.44151 9.3995,-16.97469 19.66587,-33.47029 30.76698,-49.38466 3.51814,-5.00721 7.18965,-10.11755 10.91907,-15.05386 6.08284,-8.08687 12.47723,-16.05624 19.09655,-23.75864 6.58135,-7.63539 13.50067,-15.14349 20.69549,-22.27204 3.37156,-3.34045 6.74481,-6.67919 10.11701,-10.01898 7.54324,6.28892 15.26583,12.37031 22.53971,18.97506 13.20962,11.92721 25.85447,24.46809 38.20019,37.28299 6.35239,6.64089 12.70211,13.46219 18.68061,20.4139 6.60416,7.72938 12.64057,15.92223 18.59,24.15966 8.47032,11.85716 16.6863,24.04647 24.22457,36.57876 2.19762,3.65402 4.30283,7.37377 6.33207,11.05978 2.02539,3.64838 4.01163,7.3846 5.97973,11.12165 4.77703,9.17252 9.48179,18.5263 13.69598,28.02446 0.95455,2.21534 1.91853,4.43278 2.66339,6.72945 -6.21966,1.50222 -12.55502,2.45891 -18.86397,3.49908 -7.81079,1.23842 -15.69771,2.35973 -23.54533,3.34612 -14.22493,1.82242 -28.42979,2.56718 -42.75792,3.05198 -13.12366,0.41275 -26.33522,0.56661 -39.49467,0.84254 -3.51179,0.0666 -7.02358,0.13339 -10.53537,0.19973 -3.36545,7.07222 -6.69534,14.16216 -9.79436,21.35609 -3.07058,7.10185 -6.18236,14.19122 -8.95564,21.41539 -0.58692,1.49768 -1.11413,3.37247 -0.0156,4.77315 1.34718,1.65296 3.64777,1.8494 5.61452,2.15724 6.73242,0.71843 13.51155,0.81705 20.27241,1.08747 32.91148,1.32129 65.97055,-0.15771 98.55592,-5.04509 14.60135,-2.17617 29.07983,-5.14803 43.37444,-8.83327 13.60552,-3.49951 27.1471,-7.28361 40.47637,-11.72905 3.56476,-1.26079 7.20592,-2.40103 10.55045,-4.18978 1.10001,-0.55971 2.07903,-1.68796 1.79648,-2.99606 -0.5371,-3.33975 -1.73201,-6.53053 -2.76197,-9.74102 -3.51309,-10.28075 -7.42313,-20.42244 -11.47602,-30.50066 C 392.7583,249.73649 364.89477,202.66193 330.30126,161.09668 307.65174,133.94835 282.17426,109.05346 253.76524,87.956256 238.05866,76.236565 221.49903,65.6974 204.49901,55.961563 c -1.03075,-0.598149 -2.06141,-1.196467 -3.09276,-1.793594 -0.35677,0.289713 -0.71354,0.579427 -1.07031,0.86914 z" />
      </g>
    </g>
  </g>
</svg>
