<?xml version="1.0" encoding="UTF-8" standalone="no"?>
<!-- Created with Inkscape (http://www.inkscape.org/) -->

<svg
   version="1.1"
   id="svg80"
   width="512"
   height="512"
   viewBox="0 0 512 512"
   sodipodi:docname="cdpsnarf.svg"
   inkscape:version="1.1.2 (0a00cf5339, 2022-02-04)"
   xmlns:inkscape="http://www.inkscape.org/namespaces/inkscape"
   xmlns:sodipodi="http://sodipodi.sourceforge.net/DTD/sodipodi-0.dtd"
   xmlns="http://www.w3.org/2000/svg"
   xmlns:svg="http://www.w3.org/2000/svg"
   xmlns:rdf="http://www.w3.org/1999/02/22-rdf-syntax-ns#"
   xmlns:cc="http://creativecommons.org/ns#"
   xmlns:dc="http://purl.org/dc/elements/1.1/">
  <metadata
     id="metadata86">
    <rdf:RDF>
      <cc:Work
         rdf:about="">
        <dc:format>image/svg+xml</dc:format>
        <dc:type
           rdf:resource="http://purl.org/dc/dcmitype/StillImage" />
      </cc:Work>
    </rdf:RDF>
  </metadata>
  <defs
     id="defs84">
    <rect
       x="17.417363"
       y="363.68641"
       width="454.46794"
       height="79.394992"
       id="rect9310" />
  </defs>
  <sodipodi:namedview
     pagecolor="#ffffff"
     bordercolor="#666666"
     borderopacity="1"
     objecttolerance="10"
     gridtolerance="10"
     guidetolerance="10"
     inkscape:pageopacity="0"
     inkscape:pageshadow="2"
     inkscape:window-width="1366"
     inkscape:window-height="695"
     id="namedview82"
     showgrid="false"
     inkscape:zoom="0.72363279"
     inkscape:cx="201.75979"
     inkscape:cy="259.10932"
     inkscape:window-x="0"
     inkscape:window-y="24"
     inkscape:window-maximized="1"
     inkscape:current-layer="svg80"
     inkscape:pagecheckerboard="0" />
  <g
     id="g16767"
     transform="translate(0,39.426687)">
    <path
       id="path90"
       style="fill:#00506d;fill-opacity:1;stroke-width:1.31074"
       d="m 137.96836,59.607626 c -1.53072,0.08146 -3.15754,0.841742 -4.98437,2.254188 -1.65642,1.280661 -3.57456,4.357328 -4.26172,6.837702 -0.91307,3.295795 -1.1683,28.809527 -0.95313,94.776864 l 0.29297,90.26591 3.00781,3.8658 c 3.22499,4.1467 8.9294,5.15156 12.59571,2.2179 5.26914,-4.21621 5.30078,-4.80684 5.30078,-100.20246 V 70.432907 l -3.64453,-5.44891 c -2.51516,-3.760477 -4.80231,-5.512082 -7.35352,-5.376371 z m 236.38867,0 c -2.5512,-0.135711 -4.83836,1.615894 -7.35351,5.376371 l -3.64453,5.44891 v 89.190623 c -1e-5,94.82641 0.0458,95.72798 5.09179,100.12215 3.46606,3.01834 9.58852,1.99528 12.80274,-2.13759 l 3.00781,-3.8658 0.29492,-90.26591 c 0.21518,-65.967337 -0.042,-91.481069 -0.95508,-94.776864 -0.68716,-2.480374 -2.60531,-5.557041 -4.26172,-6.837702 -1.82683,-1.412446 -3.4517,-2.172748 -4.98242,-2.254188 z M 80.419529,120.44734 c -4.501082,-0.19636 -9.24521,3.71966 -10.66211,9.79665 -0.748956,3.2122 -1.189453,20.14567 -1.189453,45.8066 0,42.79423 0.475968,47.6194 5.091797,51.639 1.031777,0.89849 3.722241,1.65751 5.978516,1.68418 3.130884,0.0371 4.844897,-1.06245 7.236328,-4.63794 l 3.132812,-4.68456 v -43.47469 c 10e-7,-46.12928 -0.434749,-50.59549 -5.300781,-54.48913 -1.31377,-1.05123 -2.786748,-1.57466 -4.287109,-1.64011 z m 117.916021,0 c -4.50108,-0.19636 -9.24521,3.71966 -10.66211,9.79665 -0.74895,3.2122 -1.18946,20.14567 -1.18945,45.8066 0,42.79423 0.47596,47.6194 5.09179,51.639 1.03177,0.89849 3.72225,1.65751 5.97852,1.68418 3.13088,0.0371 4.84491,-1.06245 7.23633,-4.63794 l 3.13281,-4.68456 v -43.47469 c 0,-46.12928 -0.43474,-50.59549 -5.30078,-54.48913 -1.31377,-1.05123 -2.78675,-1.57466 -4.28711,-1.64011 z m 235.70312,0.0829 c -1.91204,-0.0747 -3.96107,0.52965 -5.85742,1.8215 -5.48448,3.73615 -5.86523,7.15378 -5.86523,52.57694 0,43.98998 0.45696,48.72478 5.09179,52.76091 3.46529,3.0177 9.59041,1.99891 12.80469,-2.13241 l 3.00781,-3.86579 0.31836,-43.70271 c 0.33491,-45.99246 -0.0361,-50.58232 -4.45703,-55.21202 -1.35478,-1.41876 -3.13092,-2.17177 -5.04297,-2.24642 z m -118.80664,0.0622 c -4.16994,0.0999 -8.23625,3.6199 -9.64258,9.65155 -0.74896,3.2122 -1.18945,20.14567 -1.18945,45.80661 0,42.79423 0.47597,47.61939 5.0918,51.63899 1.03178,0.89849 3.72225,1.65752 5.97851,1.68418 3.14456,0.0374 4.84514,-1.06266 7.28321,-4.70789 l 3.18164,-4.75452 -0.31641,-45.87139 -0.31445,-45.8714 -3.00781,-3.8658 c -2.02259,-2.59975 -4.56249,-3.77025 -7.06446,-3.71033 z m 176.76172,43.65607 c -1.03343,0 -2.06718,0.71141 -4.01172,2.13499 -5.84001,4.27548 -6.6733,8.09705 -6.6914,30.66213 -0.0165,20.5537 1.07847,27.16267 5.07617,30.64396 3.46448,3.017 9.58841,1.99723 12.80273,-2.13241 2.99468,-3.84744 3.00944,-3.96074 3.30274,-26.04491 0.33593,-25.29455 -0.31435,-28.62453 -6.4668,-33.12877 -1.94454,-1.42358 -2.97828,-2.13499 -4.01172,-2.13499 z m -471.21094,0.52855 c -3.033172,-0.24608 -6.019477,1.58208 -8.271484,5.35044 l -3.054688,5.11209 0.34375,23.22589 c 0.344866,23.19285 0.350298,23.23325 3.353516,27.09168 1.942522,2.49568 4.341411,3.86581 6.771484,3.86581 9.006047,0 11.125,-6.07283 11.125,-31.87212 0,-21.40744 -0.747464,-25.98687 -4.90625,-30.061 -1.704321,-1.66963 -3.541425,-2.56515 -5.361328,-2.71279 z m 235.80078,0.17099 c -4.24772,-0.13641 -8.5665,3.2711 -10.11718,9.36913 -0.56328,2.21502 -1.02344,12.66932 -1.02344,23.23367 0,20.01717 1.1267,26.6858 5.0918,30.13872 3.46641,3.01865 9.58851,1.99864 12.80273,-2.13499 l 3.00781,-3.8684 v -24.14311 c 0,-23.90575 -0.0279,-24.18594 -2.80664,-28.34057 -1.88356,-2.81614 -4.40644,-4.17259 -6.95508,-4.25445 z" />
    <g
       aria-label="CDPSnarf"
       id="text9308"
       style="font-size:40px;line-height:1.25;white-space:pre;shape-inside:url(#rect9310);fill:#c4002c;fill-opacity:1"
       transform="matrix(2.0782812,0,0,2.6108286,-26.641524,-710.1766)">
      <path
         d="m 45.697969,390.58642 3.68,5.56 -0.48,0.36 q -0.6,-0.52 -0.92,-0.52 -0.32,0 -2.6,1.32 -5.04,2.92 -10.48,2.92 -6.28,0 -10.36,-3 -5.32,-3.92 -5.32,-10.84 0,-6.92 5.32,-10.8 4.08,-3 10.4,-3 5.16,0 9.76,2.56 0.12,0.04 2.36,1.32 0.6,0.36 0.92,0.36 0.32,0 0.92,-0.52 l 0.48,0.36 -3.68,5.56 -0.52,-0.36 v -0.56 q 0,-0.96 -2.24,-2.24 -3.48,-1.96 -7.28,-1.96 -4.56,0 -7.28,2.28 -3.2,2.68 -3.2,7 0,4.36 3.2,7.04 2.72,2.28 7.28,2.28 3.84,0 7.28,-1.96 2.24,-1.28 2.24,-2.28 v -0.52 z"
         style="font-family:Copperplate-Gothic;-inkscape-font-specification:Copperplate-Gothic;fill:#c4002c;fill-opacity:1"
         id="path13680" />
      <path
         d="m 54.617921,397.70642 v -22.6 q 0,-1.08 -1.24,-1.4 v -0.64 h 14.84 q 6.88,0 10.24,2.84 4.24,3.6 4.24,10.48 0,6.88 -4.24,10.52 -3.32,2.84 -10.24,2.84 h -14.84 v -0.64 q 1.24,-0.32 1.24,-1.4 z m 5.8,-2.36 h 7.32 q 4.88,0 6.92,-2.32 2.08,-2.32 2.08,-6.64 0,-4.24 -2.08,-6.56 -2.04,-2.36 -6.92,-2.36 h -7.32 z"
         style="font-family:Copperplate-Gothic;-inkscape-font-specification:Copperplate-Gothic;fill:#c4002c;fill-opacity:1"
         id="path13682" />
      <path
         d="m 93.89784,388.94642 v 8.76 q 0,1.08 1.24,1.4 v 0.64 h -8.28 v -0.64 q 1.24,-0.32 1.24,-1.4 v -22.6 q 0,-1.08 -1.24,-1.4 v -0.64 h 16.6 q 5.36,0 7.64,1.72 2.88,2.16 2.88,6.2 0,4.08 -2.88,6.2 -2.4,1.76 -7.64,1.76 z m 0,-4.4 h 8.88 q 2.72,0 3.72,-0.56 1.52,-0.84 1.52,-3 0,-2.12 -1.52,-2.96 -1,-0.56 -3.72,-0.56 h -8.88 z"
         style="font-family:Copperplate-Gothic;-inkscape-font-specification:Copperplate-Gothic;fill:#c4002c;fill-opacity:1"
         id="path13684" />
      <path
         d="m 142.21776,375.30642 -3.16,6.28 -0.56,-0.28 v -0.36 q 0,-0.64 -1.12,-1.4 -3.52,-2.44 -8.16,-2.44 -2.84,0 -4.56,0.92 -1.68,0.92 -1.68,2.48 0,1.16 1.2,1.8 0.84,0.44 4.64,0.84 l 3.08,0.32 q 5.08,0.52 7.44,2.2 2.88,2.04 2.88,5.88 0,1.96 -0.96,3.76 -0.96,1.76 -2.6,2.76 -3.48,2.16 -8.88,2.16 -4.32,0 -9.16,-1.96 -0.12,-0.04 -1.96,-0.88 -0.4,-0.24 -0.68,-0.24 -0.24,0 -0.8,0.44 l -0.56,-0.28 2.88,-6.56 0.6,0.28 q -0.04,0.12 -0.04,0.24 0,0.92 0.84,1.64 1.28,1.16 3.92,2 2.68,0.8 5.08,0.8 2.96,0 4.8,-1.08 1.88,-1.08 1.88,-2.8 0,-1.36 -1.44,-1.92 -1,-0.4 -4.04,-0.72 l -3,-0.32 q -4.92,-0.52 -6.8,-1.48 -3.72,-1.88 -3.72,-6.28 0,-3.96 3.08,-6.24 3.08,-2.28 8.4,-2.28 4.04,0 8.84,1.84 0.12,0.04 1.12,0.48 0.16,0.08 0.88,0.36 0.52,0.2 0.8,0.2 0.4,0 0.96,-0.44 z"
         style="font-family:Copperplate-Gothic;-inkscape-font-specification:Copperplate-Gothic;fill:#c4002c;fill-opacity:1"
         id="path13686" />
      <path
         d="m 151.73773,385.34642 v 12.4 q 0,1.12 1.24,1.48 v 0.52 h -7.24 v -0.52 q 1.24,-0.4 1.24,-1.48 v -17.88 q 0,-1.08 -1.24,-1.44 v -0.56 h 8.4 v 0.56 q -0.88,0.16 -0.88,0.76 0,0.44 0.64,1.08 l 11.72,11.64 v -12.04 q 0,-1.12 -1.24,-1.44 v -0.56 h 7.28 v 0.56 q -1.28,0.32 -1.28,1.44 v 17.88 q 0,1.12 1.24,1.48 v 0.52 h -7.8 v -0.52 q 0.84,-0.2 0.84,-0.72 0,-0.48 -1.28,-1.72 z"
         style="font-family:Copperplate-Gothic;-inkscape-font-specification:Copperplate-Gothic;fill:#c4002c;fill-opacity:1"
         id="path13688" />
      <path
         d="m 192.45767,394.26642 h -10.08 l -1.12,2.36 q -0.44,0.96 -0.44,1.36 0,0.92 1.28,1.24 v 0.52 h -8.04 v -0.52 q 1.16,-0.2 1.96,-1.8 l 7.96,-16.16 q 0.48,-0.96 0.48,-1.6 0,-0.8 -1.12,-1.24 v -0.56 h 8.52 v 0.56 q -1.08,0.4 -1.08,1.32 0,0.64 0.48,1.56 l 8.32,15.72 q 0.68,1.28 1.04,1.64 0.4,0.36 1.2,0.56 v 0.52 h -8.92 v -0.52 q 1.28,-0.24 1.28,-1.2 0,-0.56 -0.52,-1.52 z m -1.56,-3.08 -3.6,-7 -3.4,7 z"
         style="font-family:Copperplate-Gothic;-inkscape-font-specification:Copperplate-Gothic;fill:#c4002c;fill-opacity:1"
         id="path13690" />
      <path
         d="m 210.0976,390.74642 v 7 q 0,1.12 1.24,1.48 v 0.52 h -7.72 v -0.52 q 1.24,-0.4 1.24,-1.48 v -17.88 q 0,-1.04 -1.24,-1.48 v -0.52 h 14.32 q 4.84,0 6.88,1.32 2.36,1.56 2.36,5 0,2.68 -1.48,4.2 -1.44,1.48 -4.68,2.12 l 4.16,5.8 q 1.2,1.68 1.84,2.28 0.68,0.56 1.48,0.64 v 0.52 h -9.16 v -0.52 q 1,-0.28 1,-0.88 0,-0.48 -0.6,-1.32 l -4.4,-6.28 z m 0,-3.96 h 7.92 q 2.08,0 2.96,-0.56 0.88,-0.56 0.88,-1.92 0,-1.4 -0.84,-1.92 -0.84,-0.56 -3,-0.56 h -7.92 z"
         style="font-family:Copperplate-Gothic;-inkscape-font-specification:Copperplate-Gothic;fill:#c4002c;fill-opacity:1"
         id="path13692" />
      <path
         d="m 237.65749,390.42642 v 7.32 q 0,1.12 1.24,1.48 v 0.52 h -7.72 v -0.52 q 1.24,-0.4 1.24,-1.48 v -17.88 q 0,-1.04 -1.24,-1.48 v -0.52 h 19.6 q 1.12,0 1.48,-1.24 h 0.52 v 6.48 h -0.52 q -0.36,-1.28 -1.48,-1.28 h -13.12 v 4.8 h 8.24 q 1.12,0 1.48,-1.24 h 0.52 v 6.32 h -0.52 q -0.4,-1.28 -1.48,-1.28 z"
         style="font-family:Copperplate-Gothic;-inkscape-font-specification:Copperplate-Gothic;fill:#c4002c;fill-opacity:1"
         id="path13694" />
    </g>
  </g>
</svg>
