<?xml version="1.0" encoding="UTF-8" standalone="no"?>
<!-- Created with Inkscape (http://www.inkscape.org/) -->

<svg
   version="1.1"
   id="svg64"
   width="512"
   height="512"
   viewBox="0 0 512 512"
   sodipodi:docname="cellphonetower.svg"
   inkscape:version="1.2.2 (b0a8486541, 2022-12-01)"
   xmlns:inkscape="http://www.inkscape.org/namespaces/inkscape"
   xmlns:sodipodi="http://sodipodi.sourceforge.net/DTD/sodipodi-0.dtd"
   xmlns="http://www.w3.org/2000/svg"
   xmlns:svg="http://www.w3.org/2000/svg"
   xmlns:rdf="http://www.w3.org/1999/02/22-rdf-syntax-ns#"
   xmlns:cc="http://creativecommons.org/ns#"
   xmlns:dc="http://purl.org/dc/elements/1.1/">
  <sodipodi:namedview
     id="namedview13847"
     pagecolor="#505050"
     bordercolor="#eeeeee"
     borderopacity="1"
     inkscape:pageshadow="0"
     inkscape:pageopacity="0"
     inkscape:pagecheckerboard="0"
     showgrid="false"
     inkscape:zoom="0.65186406"
     inkscape:cx="142.66778"
     inkscape:cy="254.65432"
     inkscape:window-width="1366"
     inkscape:window-height="705"
     inkscape:window-x="0"
     inkscape:window-y="26"
     inkscape:window-maximized="1"
     inkscape:current-layer="svg64"
     inkscape:showpageshadow="0"
     inkscape:deskcolor="#505050" />
  <metadata
     id="metadata70">
    <rdf:RDF>
      <cc:Work
         rdf:about="">
        <dc:format>image/svg+xml</dc:format>
        <dc:type
           rdf:resource="http://purl.org/dc/dcmitype/StillImage" />
      </cc:Work>
    </rdf:RDF>
  </metadata>
  <defs
     id="defs68" />
  <path
     id="path7118"
     style="fill:#00ff01;fill-opacity:1;stroke-width:1.79793"
     d="m 105.39844,135.56445 c -2.99388,0.0619 -5.462948,2.05236 -7.641522,3.89915 -5.566407,4.97896 -10.471022,10.66747 -14.902777,16.66863 -11.576278,15.8069 -19.572187,34.00971 -24.902179,52.80066 -1.836459,6.08871 -2.367676,12.46503 -2.860412,18.77564 -0.717551,10.71832 -0.854678,21.49065 -0.143662,32.21323 0.316088,5.18243 1.174824,10.31614 2.396889,15.35895 3.508349,14.50591 9.371325,28.39093 16.797192,41.31561 5.940947,10.24117 12.910417,19.96258 21.324932,28.32425 2.216653,2.07467 4.419722,4.25529 7.099649,5.72847 1.75145,0.94794 3.78731,-4e-4 5.29709,-0.98892 2.07051,-1.4517 4.06252,-3.38292 4.72816,-5.8984 0.42102,-1.74141 -0.82756,-3.25052 -1.69324,-4.63209 -3.6808,-5.43932 -8.2612,-10.18306 -12.132189,-15.48023 -11.051437,-14.678 -19.511613,-31.40597 -24.035498,-49.24827 -1.428986,-5.66657 -2.63104,-11.42141 -2.939212,-17.27148 -0.221088,-3.13011 -0.346282,-6.32614 -0.402681,-9.3829 -0.08444,-3.72101 -0.05658,-7.58768 0.02508,-11.21745 0.205852,-6.38114 0.476479,-12.80629 1.891034,-19.05537 4.057589,-19.5948 12.889469,-38.05859 24.857013,-54.04229 0.564385,-0.72389 1.27505,-1.68927 1.915973,-2.49098 2.72309,-3.57425 5.79991,-6.85458 8.64069,-10.3307 1.7157,-2.22696 3.62908,-4.641 3.79342,-7.5654 0.1054,-2.72969 -1.8205,-5.07725 -3.96336,-6.54065 -0.93696,-0.59618 -2.03638,-0.94292 -3.15039,-0.93946 z" />
  <path
     style="fill:#db0b00;fill-opacity:1;stroke-width:1.79793"
     d="M 234.0849,495.18738 C 177.1235,489.15528 125.07032,465.4714 85.131192,427.41437 52.961559,396.7607 29.35246,356.85245 18.464429,314.72251 0.39828042,244.81767 14.791903,173.07706 58.713587,114.1129 67.232747,102.67607 91.565989,78.0601 103.7728,68.530163 141.11689,39.375369 187.69099,21.218339 234.83808,17.43403 c 72.84107,-5.84666 141.67298,18.496485 193.21126,68.331242 25.04559,24.217738 43.57895,51.717458 56.74947,84.204598 11.20024,27.62711 16.35539,54.97924 16.34245,86.7093 -0.0253,61.93905 -24.24135,120.31461 -68.36819,164.80909 -14.18017,14.2983 -27.04452,24.84084 -43.02182,35.25701 -29.38461,19.15692 -67.53488,32.93048 -102.41954,36.97696 -9.9982,1.15975 -46.61599,2.16733 -53.24681,1.46515 z m 37.89247,-14.82623 c 17.07976,-1.27894 34.41508,-3.74636 35.75501,-5.08916 1.44748,-1.45059 -1.30707,-4.06235 -18.85702,-17.87965 -24.66995,-19.42297 -31.52141,-24.38434 -33.16364,-24.0149 -1.94714,0.43802 -38.3466,28.73022 -46.10378,35.83506 -4.44542,4.0716 -5.53301,5.59102 -4.44054,6.20371 1.26832,0.71131 24.64354,4.3186 34.55016,5.33182 7.58872,0.77615 18.47109,0.64564 32.25981,-0.38688 z m -85.579,-15.12588 c 0.55818,-2.09296 6.79393,-34.51798 13.85726,-72.05561 7.0633,-37.53764 14.74909,-78.30717 17.07954,-90.59897 2.33043,-12.29179 3.98718,-22.59924 3.68164,-22.90542 -0.30553,-0.3062 -2.98888,0.16747 -5.96301,1.05259 -2.97413,0.88512 -5.55428,1.6093 -5.73368,1.6093 -0.1794,0 1.50385,-1.83395 3.74054,-4.07544 4.65519,-4.6652 9.30927,-13.33295 11.83608,-22.04356 1.35481,-4.67034 1.65004,-8.86234 1.33342,-18.93325 -0.37849,-12.03933 -0.63916,-13.43215 -3.76526,-20.11904 -1.84724,-3.95133 -4.33167,-8.22338 -5.52094,-9.49345 -1.9768,-2.11109 -2.00362,-2.30922 -0.31249,-2.30922 2.68906,0 8.38549,3.79081 10.79749,7.18541 2.9943,4.21414 7.168,15.85914 7.168,19.99938 0,4.51474 2.05994,5.65743 10.19865,5.65743 h 6.23681 l -0.28079,-17.17438 -0.28079,-17.17439 -3.7868,-0.6159 c -8.87057,-1.44275 -9.72363,-8.71254 -1.18446,-10.09399 3.94487,-0.6382 3.9473,-0.64166 4.25668,-6.01374 l 0.30955,-5.37517 h -8.64509 c -7.04114,0 -9.09366,-0.36929 -11.06282,-1.99041 -2.2889,-1.88435 -2.33392,-2.14411 -0.84502,-4.87501 1.53795,-2.82086 1.79373,-2.89112 11.57358,-3.179 l 10.00085,-0.29436 -0.30824,-5.34077 c -0.25558,-4.42832 -0.65818,-5.39308 -2.35648,-5.64692 -5.20304,-0.77771 -6.67596,-1.42341 -7.72414,-3.38614 -1.90119,-3.56004 1.19725,-7.10329 6.21156,-7.10329 h 4.07288 v -8.89948 c 0,-6.8408 0.39207,-9.33365 1.69492,-10.77635 2.37161,-2.62624 4.96303,-2.33838 7.44783,0.82733 1.73872,2.21515 2.12258,4.16402 2.12258,10.77635 v 8.07215 h 3.97109 c 4.99927,0 7.0063,2.10788 5.65996,5.94437 -0.87429,2.49138 -2.28103,3.3235 -8.3509,4.93983 -0.80942,0.21555 -1.28015,2.23968 -1.28015,5.50471 v 5.1638 h 9.14394 c 6.94717,0 9.53056,0.38745 10.75327,1.61279 5.14222,5.15327 -1.78658,9.42384 -15.6008,9.61554 l -4.40863,0.0612 0.31214,4.86237 c 0.30658,4.7757 0.38252,4.87378 4.25927,5.50058 8.35552,1.35095 7.53361,10.16343 -0.94792,10.16343 l -3.51127,10e-6 v 17.49239 17.4924 l 7.32705,-0.30154 7.32704,-0.30155 1.71529,-7.32903 c 3.31836,-14.17866 8.80898,-21.97763 17.23117,-24.47552 2.16544,-0.64224 2.05829,-0.29888 -1.27076,4.07178 -5.42959,7.12842 -8.23415,17.28501 -8.2247,29.78541 0.0121,16.13897 3.71198,27.565 11.96991,36.96664 l 4.3006,4.89623 -3.03378,-0.56567 c -1.66857,-0.31112 -4.07069,-0.89365 -5.33804,-1.29449 -2.03219,-0.64276 -2.30428,-0.37235 -2.30428,2.29004 0,3.93262 34.23341,186.8438 35.13936,187.75168 0.74661,0.74823 14.85534,-4.22197 25.07354,-8.83286 57.07738,-25.75573 99.8958,-71.49832 121.08668,-129.35598 10.82769,-29.56292 15.43732,-67.80318 11.81495,-98.01351 -5.07643,-42.33686 -18.06972,-75.57268 -42.6145,-109.0046 C 432.58779,111.15237 407.89112,86.660169 394.3598,76.892605 358.73622,51.177768 319.88411,36.905869 274.26356,32.776569 257.64132,31.272023 231.01985,32.699164 213.88191,36.013544 141.89814,49.934802 83.128327,93.288646 51.51383,155.79069 c -16.656446,32.92989 -24.064626,64.0199 -24.039877,100.88848 0.02867,42.7097 10.957766,81.4477 33.049472,117.14334 15.391132,24.86888 41.901695,52.06845 67.064305,68.80726 16.04425,10.67306 54.18308,28.64842 57.0356,26.88168 0.4181,-0.25896 1.21686,-2.18323 1.77504,-4.27618 z m 30.22187,-15.63576 c 17.93962,-13.85493 28.4447,-22.66082 28.97474,-24.28807 0.67527,-2.07316 -33.20665,-27.79266 -34.60345,-26.26719 -0.57722,0.63039 -9.46462,45.19579 -12.01334,60.24016 -0.71637,4.22849 0.47008,3.57718 17.64205,-9.6849 z m 96.83402,11.15786 c 0,-1.11454 -9.40698,-50.64935 -11.06474,-58.2641 -0.42091,-1.93346 -1.24937,-3.6771 -1.84102,-3.87473 -0.90177,-0.30124 -13.92811,9.3977 -30.36335,22.60749 -6.03321,4.84919 -8.17535,2.36874 22.6184,26.19056 10.32787,7.98956 19.19932,14.52647 19.71432,14.52647 0.51501,0 0.93639,-0.53356 0.93639,-1.18569 z M 266.5112,410.57736 c 12.71517,-9.61877 26.46064,-21.29892 26.46064,-22.4848 0,-0.93265 -19.90974,-17.97215 -31.18898,-26.6927 l -5.67546,-4.38799 -3.33035,2.54606 c -14.11483,10.79082 -33.80722,28.24481 -33.33658,29.54728 0.51473,1.42448 35.01858,28.70612 36.30545,28.70612 0.66144,0 5.50582,-3.25529 10.76528,-7.23397 z m -35.37651,-46.75014 c 7.81855,-6.54775 14.81733,-12.47854 15.55287,-13.17952 1.08374,-1.03286 -0.66394,-2.89665 -9.21709,-9.82949 -13.48852,-10.93322 -13.07225,-10.6287 -13.68683,-10.0128 -0.28744,0.28805 -2.30973,9.70621 -4.494,20.92923 -2.18426,11.223 -4.29151,21.21369 -4.6828,22.20152 -1.60549,4.05318 2.92847,1.28008 16.52785,-10.10894 z m 66.55708,10.10894 c -0.65755,-2.19231 -7.79229,-40.10479 -7.79229,-41.4066 0,-1.99941 -3.12522,-0.72656 -9.36045,3.81238 -7.97294,5.80391 -14.19433,11.66326 -14.19433,13.36832 0,0.69965 5.64547,6.06162 12.54548,11.91551 16.89922,14.33709 20.02292,16.38233 18.80159,12.31039 z m -37.89021,-34.38169 c 4.80229,-3.61001 21.31079,-17.58174 22.11977,-18.72074 0.85152,-1.19889 -2.2318,-4.53908 -15.81542,-17.13299 l -9.96794,-9.24167 -12.85266,12.11392 c -7.45418,7.02574 -12.72612,12.77241 -12.5514,13.68164 0.28022,1.45816 23.91855,21.60906 25.34887,21.60906 0.3558,0 2.02925,-1.03915 3.71878,-2.30922 z m -20.59605,-43.35068 9.21708,-8.6305 -6.54099,-6.27491 c -3.94004,-3.77977 -6.91239,-5.90271 -7.47503,-5.33887 -0.5137,0.51481 -1.796,5.27783 -2.84952,10.58449 -2.8419,14.31478 -3.37962,18.37671 -2.42674,18.33124 0.47196,-0.0225 5.0058,-3.92468 10.0752,-8.67145 z m 42.42007,-6.73835 c -1.56013,-7.9747 -3.08777,-14.75116 -3.39477,-15.05883 -0.30698,-0.30766 -3.60413,2.40454 -7.32698,6.02708 l -6.7688,6.58647 9.31435,8.99834 c 5.1229,4.94907 9.69649,8.76165 10.16357,8.47236 0.46706,-0.28928 -0.42725,-7.05072 -1.98737,-15.02542 z m -14.995,-19.28577 9.2067,-9.07852 -0.72641,-5.82648 -0.72641,-5.82647 -18.09277,0.27995 -18.09278,0.27995 -0.88478,5.57592 -0.88479,5.57592 9.17688,9.04913 c 5.04727,4.97703 9.77105,9.04913 10.49728,9.04913 0.72622,0 5.46341,-4.08533 10.52708,-9.07853 z"
     id="path997" />
  <path
     id="path4144"
     style="fill:#808080;fill-opacity:1;stroke-width:1.79793"
     d="m 202.10938,203.93555 c -4.14634,0.18088 -7.83098,2.48212 -10.97657,5.01367 -2.99521,2.79503 -5.0212,6.43556 -6.89457,10.03305 -2.69179,5.43306 -4.90971,11.16821 -5.94218,17.16272 -1.44067,9.05936 -0.6701,18.47739 2.24715,27.17545 1.89452,5.47398 4.70263,10.86638 9.2146,14.63268 3.0636,2.57696 7.21138,4.02755 11.20841,3.26455 4.91258,-0.87473 8.92972,-4.30407 11.91376,-8.13916 4.85837,-6.33 7.64821,-14.0234 9.13564,-21.80312 1.57711,-8.49518 1.46962,-17.29462 -0.23046,-25.76172 -1.07752,-5.22397 -3.39545,-10.2144 -6.9249,-14.23574 -2.67678,-3.1174 -5.89413,-6.17121 -10.02873,-7.09599 -0.89185,-0.19804 -1.8096,-0.27351 -2.72215,-0.24639 z" />
  <path
     id="path4886"
     style="fill:#808080;fill-opacity:1;stroke-width:1.79793"
     d="m 309.81445,204.39062 c -3.64718,0.12125 -6.83401,2.29881 -9.45377,4.66609 -4.24834,3.98357 -7.48692,9.16838 -8.69077,14.90423 -1.5025,6.87595 -1.88493,13.96228 -1.63481,20.98296 0.19046,4.60399 0.76524,9.24128 2.3838,13.58205 2.15899,6.17302 5.16554,12.1665 9.56766,17.05463 2.22793,2.46773 5.02958,4.5421 8.31617,5.30028 3.92251,1.08277 8.27459,0.31336 11.59601,-2.0351 4.47041,-3.10109 7.28087,-8.003 9.30746,-12.93895 2.19492,-5.47775 3.49225,-11.2745 4.39115,-17.09273 0.71223,-4.77312 -0.53259,-9.52 -1.42938,-14.17736 -1.68883,-7.58129 -4.22822,-15.1671 -8.88946,-21.47156 -3.05447,-4.10621 -7.3541,-7.60951 -12.50717,-8.51651 -0.97408,-0.17991 -1.96655,-0.26285 -2.95689,-0.25803 z" />
  <path
     id="path4925"
     style="fill:#ff0900;fill-opacity:1;stroke-width:1.79793"
     d="m 349.91211,190.99609 c -2.78536,0.0312 -5.29314,1.85941 -6.77125,4.12635 -1.34727,2.12627 -0.82546,4.83575 0.30491,6.93092 2.03301,3.96302 5.10964,7.25291 7.43784,11.03291 0.93492,1.43149 1.90387,3.09226 2.65741,4.47232 3.37374,6.14913 5.3993,13.02232 5.86874,20.02206 0.22093,2.92237 0.2141,5.85772 0.0942,8.78458 -0.031,0.4485 -0.0553,1.1285 -0.0929,1.60212 -0.0948,1.44929 -0.24592,2.89446 -0.4423,4.33343 -0.0603,0.41686 -0.17846,1.21044 -0.28096,1.76796 -1.16131,6.99163 -4.14601,13.56458 -8.05819,19.43524 -2.54846,4.01481 -5.86815,7.58339 -7.71358,12.0136 -0.86212,2.05883 -0.79503,4.55201 0.54566,6.39547 1.40902,2.132 3.85672,3.7362 6.46215,3.70414 2.38044,-0.2822 4.26002,-1.98386 6.0006,-3.49294 4.402,-4.11329 8.08253,-8.95573 11.23987,-14.07284 3.75309,-6.29627 6.40824,-13.23041 8.03738,-20.36969 2.96739,-13.01474 1.95773,-26.89919 -2.90188,-39.33478 -3.30453,-8.49497 -8.25721,-16.35061 -14.48392,-23.00541 -2.11062,-2.1538 -4.72264,-4.33476 -7.90377,-4.34544 z" />
  <path
     id="path5778"
     style="fill:#ff0900;fill-opacity:1;stroke-width:1.79793"
     d="m 161.39258,190.05078 c -1.584,0.3889 -2.79922,1.60371 -4.0704,2.56272 -4.62614,3.67271 -8.00172,8.61406 -11.12491,13.56033 -3.96242,6.52502 -7.41634,13.45905 -9.30679,20.88669 -1.21655,5.33123 -0.98229,10.84201 -1.05447,16.27151 0.031,6.30438 -0.0722,12.75395 1.8883,18.82395 2.97133,9.62669 7.64075,18.83548 14.29265,26.44939 2.20637,2.44283 4.58253,4.83627 7.48088,6.44872 1.46627,0.90244 3.29575,0.5997 4.7545,-0.15099 2.27967,-1.17338 4.41264,-2.94367 5.47227,-5.32693 0.53243,-1.13934 0.28974,-2.43391 -0.32186,-3.4889 -3.90138,-7.60486 -9.54208,-14.1989 -13.02524,-22.0354 -2.68333,-5.8946 -3.81603,-12.38253 -4.13967,-18.81601 -0.24217,-6.15469 0.6362,-12.3436 2.51607,-18.20656 0.16804,-0.52294 0.44891,-1.37305 0.6858,-2.00958 1.86816,-5.22702 4.62629,-10.08748 7.80785,-14.62074 1.80031,-2.75044 3.74097,-5.41243 5.4458,-8.2232 0.76524,-1.52201 1.80448,-3.31433 1.0625,-5.03906 -1.10404,-2.24966 -2.96081,-4.03822 -4.85716,-5.63247 -1.00109,-0.75933 -2.17792,-1.64025 -3.50612,-1.45347 z" />
  <path
     id="path5817"
     style="fill:#ffec00;fill-opacity:1;stroke-width:1.79793"
     d="m 377.86914,163.34375 c -1.94365,-0.0183 -3.98882,0.67501 -5.14258,2.32031 -1.00694,1.42585 -1.84655,3.00468 -2.36133,4.67578 -0.49281,1.84537 0.56153,3.60387 1.72073,4.95286 7.089,8.31178 13.76421,17.08025 18.75928,26.8337 3.61892,7.06179 6.3891,14.58471 7.99875,22.36067 0.80861,4.19505 0.93831,8.52674 1.02064,12.71839 0.0598,5.25405 0.0795,10.50969 -0.0248,15.76329 -0.0213,0.67751 -0.0394,1.52488 -0.0767,2.19083 -0.11173,3.99515 -0.7947,7.95854 -1.98194,11.77334 -2.81655,9.9368 -7.26423,19.40937 -13.18107,27.87821 -3.40378,4.94701 -7.41935,9.43352 -10.86971,14.34726 -1.37672,1.99716 -2.92494,4.00222 -3.52728,6.39239 -0.38714,1.76944 0.85581,3.30732 2.1452,4.35047 1.57906,1.35283 3.21855,2.8187 5.2591,3.39563 2.71123,0.21909 5.16909,-1.33511 7.24258,-2.91154 4.43134,-3.548 7.95165,-8.07731 11.22328,-12.67831 6.42563,-9.24971 11.67592,-19.30996 15.71881,-29.81828 1.45523,-4.02721 3.00067,-8.05993 3.77041,-12.28719 0.84116,-5.39227 0.67555,-10.87175 0.74609,-16.31133 0.003,-9.80182 -0.0135,-19.60364 -0.0195,-29.40546 -2.84283,-7.60322 -5.4786,-15.30633 -9.07343,-22.5995 -5.43574,-11.26797 -12.68526,-21.6772 -21.51055,-30.55285 -1.75797,-1.74122 -3.94471,-3.30447 -6.51207,-3.371 -0.44028,-0.0321 -0.88278,-0.0263 -1.32387,-0.0177 z" />
  <path
     id="path6411"
     style="fill:#ffec00;fill-opacity:1;stroke-width:1.79793"
     d="m 133.48633,163.57227 c -3.1833,0.0508 -5.78965,2.21175 -8.0034,4.27387 -4.80115,4.68303 -9.00265,9.95873 -12.77166,15.49849 -9.90027,14.6618 -16.031263,31.82439 -17.716456,49.43247 -1.90778,19.57399 1.662144,39.6555 10.279236,57.33911 5.18064,10.66129 12.11738,20.48331 20.51166,28.85662 1.88167,1.71715 3.86664,3.54697 6.37452,4.25146 2.04608,0.47431 3.94379,-0.82106 5.54246,-1.93318 1.74689,-1.34225 3.55906,-2.83862 4.4531,-4.90638 0.47177,-1.01365 0.15008,-2.15315 -0.52298,-2.99215 -3.22146,-4.52449 -7.08952,-8.54175 -10.36359,-13.02807 -1.95666,-2.6103 -3.81267,-5.29631 -5.54656,-8.05982 -0.64793,-1.04562 -1.4013,-2.29023 -2.05664,-3.4336 -0.52582,-0.92182 -1.16641,-2.07416 -1.70518,-3.10354 -1.50657,-2.85055 -2.89192,-5.83357 -4.08975,-8.74802 -0.6734,-1.63386 -1.38056,-3.48103 -1.9974,-5.22403 -1.55265,-4.46488 -3.11278,-9.00857 -3.35407,-13.77083 -0.0805,-1.11561 -0.13707,-2.19607 -0.16894,-3.23049 -0.13976,-4.61523 -0.12955,-9.41429 -0.12335,-14.10744 0.076,-6.65214 0.24505,-13.37002 1.77072,-19.87619 0.11661,-0.4663 0.31463,-1.28785 0.4821,-1.88128 1.02256,-3.75563 2.4887,-7.3708 4.06087,-10.92536 0.31839,-0.7091 0.76939,-1.69107 1.13671,-2.50586 2.66166,-5.87114 5.8843,-11.48752 9.702,-16.68488 2.82613,-3.95534 5.8657,-7.6479 8.78433,-11.51825 1.49724,-2.16149 3.27021,-4.43679 3.36853,-7.17617 0.0728,-2.20561 -1.60367,-3.97572 -3.40802,-5.00012 -1.39711,-0.87654 -2.9557,-1.57424 -4.63824,-1.54636 z" />
  <path
     id="path6450"
     style="fill:#00ff01;fill-opacity:1;stroke-width:1.79793"
     d="m 408.03516,134.60352 c -2.44913,0.18688 -4.44728,1.8881 -6.11074,3.55472 -1.38425,1.51447 -2.84961,3.35244 -2.74864,5.52145 0.2796,1.68033 1.49443,2.99819 2.40136,4.38141 3.9509,5.48517 8.61116,10.41208 12.58086,15.88387 1.1565,1.54193 2.27107,3.11461 3.37325,4.69565 0.53878,0.80518 1.24957,1.82768 1.83228,2.73226 8.64573,13.05749 15.02213,27.62177 18.61666,42.86965 1.18364,4.81541 2.09023,9.71721 2.26028,14.68346 0.35992,8.1484 0.0472,16.4692 -0.0914,24.69344 -0.12078,4.87101 -0.16312,9.75549 -0.33282,14.61808 -3.4695,10.38494 -6.6438,20.91172 -11.31659,30.84123 -2.18792,4.71428 -4.76482,9.39933 -7.50551,13.71032 -4.35081,6.83259 -9.28782,13.12704 -14.48375,19.34418 -2.21902,2.76508 -4.59534,5.49213 -6.09437,8.7359 -0.95295,2.00928 -0.98474,4.5145 0.33632,6.37158 1.34673,2.10826 3.66541,3.87091 6.27978,3.64629 3.1209,-0.25445 5.6749,-2.33783 7.95275,-4.30834 4.12687,-3.76706 7.75959,-8.03749 11.28661,-12.35992 11.14758,-14.09568 19.37932,-30.37642 24.92604,-47.43558 1.82685,-5.70714 3.42769,-11.49977 4.54477,-17.38974 1.22191,-7.61963 1.51042,-15.3535 1.65046,-23.05823 0.0851,-9.203 -0.10873,-18.43487 -1.24392,-27.57662 -0.70054,-5.24705 -2.0664,-10.37871 -3.48162,-15.47068 -3.44022,-12.0809 -8.67303,-23.61499 -15.21441,-34.32715 -4.53287,-7.55795 -9.72881,-14.70442 -15.39694,-21.44923 -3.25774,-3.84405 -6.54947,-7.69707 -10.33402,-11.03823 -1.06365,-0.85257 -2.23748,-1.90781 -3.68668,-1.86977 z" />
</svg>
