<?xml version="1.0" encoding="UTF-8" standalone="no"?>
<!-- Created with Inkscape (http://www.inkscape.org/) -->

<svg
   height="512"
   id="svg870"
   version="1.1"
   viewBox="0 0 512.00001 512"
   width="512"
   sodipodi:docname="chameleon.svg"
   inkscape:version="1.2.2 (b0a8486541, 2022-12-01)"
   inkscape:export-filename="../GIT Icons/chameleon.png"
   inkscape:export-xdpi="96"
   inkscape:export-ydpi="96"
   xmlns:inkscape="http://www.inkscape.org/namespaces/inkscape"
   xmlns:sodipodi="http://sodipodi.sourceforge.net/DTD/sodipodi-0.dtd"
   xmlns:xlink="http://www.w3.org/1999/xlink"
   xmlns="http://www.w3.org/2000/svg"
   xmlns:svg="http://www.w3.org/2000/svg">
  <sodipodi:namedview
     id="namedview288"
     pagecolor="#505050"
     bordercolor="#eeeeee"
     borderopacity="1"
     inkscape:showpageshadow="0"
     inkscape:pageopacity="0"
     inkscape:pagecheckerboard="0"
     inkscape:deskcolor="#505050"
     showgrid="false"
     showguides="false"
     inkscape:zoom="0.63114805"
     inkscape:cx="320.8439"
     inkscape:cy="266.1816"
     inkscape:window-width="1366"
     inkscape:window-height="705"
     inkscape:window-x="0"
     inkscape:window-y="26"
     inkscape:window-maximized="1"
     inkscape:current-layer="svg870" />
  <defs
     id="defs874">
    <linearGradient
       id="linearGradient4044">
      <stop
         id="stop4048"
         offset="0"
         style="stop-color:#00ff0a;stop-opacity:1;" />
      <stop
         id="stop4050"
         offset="1"
         style="stop-color:#00ff0a;stop-opacity:0;" />
    </linearGradient>
    <linearGradient
       gradientTransform="matrix(0.91960479,0,0,0.88215844,16.488087,37.687319)"
       gradientUnits="userSpaceOnUse"
       id="linearGradient4046"
       x1="548.7818"
       x2="302.45767"
       xlink:href="#linearGradient4044"
       y1="114.54622"
       y2="571.2854">
      <stop
         id="stop276"
         offset="0"
         style="stop-color:#00ff0a;stop-opacity:1;" />
      <stop
         id="stop278"
         offset="1"
         style="stop-color:#00ff0a;stop-opacity:0;" />
    </linearGradient>
  </defs>
  <g
     id="g1396"
     transform="matrix(0.98344306,0,0,0.98560003,4.3485985,2.5394196)">
    <path
       id="rect4761-5-3"
       style="fill:#ffffff;fill-opacity:1;stroke:none;stroke-width:1.39228;stroke-opacity:1"
       d="m 331.3418,113.35352 c -25.22144,5.34975 -51.0107,7.03359 -76.45381,10.97796 13.9546,14.78402 54.39114,16.75525 43.78724,45.20947 -13.92509,28.94914 -49.29406,33.52004 -77.26652,39.51322 -11.50978,2.66914 -36.95462,6.35975 -39.55361,9.90794 15.39539,4.84399 19.81454,27.83697 -1.8488,24.78391 -24.57325,5.74986 -48.54112,15.46273 -73.66942,18.06033 0.9739,-16.88229 25.49539,-35.50142 19.3605,-57.15161 -3.90511,-22.26856 -32.647985,-25.30417 -48.937195,-14.68927 -17.436176,9.80594 -28.609203,27.11402 -43.465447,40.11685 -19.689683,20.3721 -39.6791973,50.03444 -28.9889083,79.40561 10.1235743,24.99585 37.6620103,35.657 61.8162853,41.26538 16.001196,2.84874 46.180955,-7.53591 47.881905,16.51018 -0.0241,30.39946 36.49604,20.84648 55.88669,20.36492 24.1649,3.05267 51.82463,13.66586 73.49244,-2.94205 26.43592,-14.66386 57.49139,-4.18293 85.74098,-9.67784 23.42891,1.31396 36.98038,29.50243 61.65513,25.77791 19.9365,-1.98116 50.66955,-3.43822 53.68854,-28.81972 6.42053,-25.41154 -22.68262,-33.81251 -33.34452,-50.76121 -6.76152,-28.69072 28.67079,-41.04464 34.36928,-66.26854 5.88174,-29.39858 33.67923,-39.4862 53.9914,-56.00635 18.04698,-17.84053 12.80648,-48.22137 -8.24955,-61.08176 -29.08915,-22.46382 -67.67644,-22.60755 -102.67324,-21.28539 -19.09725,-0.65697 -38.06851,-4.11946 -57.21937,-3.20994 z" />
    <g
       id="g1376"
       transform="translate(3.947929,-7.8605809)">
      <path
         id="rect4761-5"
         style="fill:#000000;fill-opacity:1;stroke:none;stroke-width:1.39228;stroke-opacity:1"
         d="m 342.94667,139.20925 c -6.80285,0.57076 -13.55406,1.55316 -20.33897,2.27358 -5.09667,0.59093 -10.19337,1.18169 -15.28995,1.77333 9.5567,5.09132 19.04947,10.2811 28.59575,15.38812 -4.15998,0.88815 -8.30124,2.3109 -11.67721,4.79889 -4.18877,3.36942 -5.42542,9.6399 -2.40425,14.03739 -3.11714,1.08272 -6.3918,2.35649 -8.44933,4.91653 -2.02775,2.38296 -2.9825,5.56852 -2.37732,8.57493 -3.35359,1.45919 -6.26404,4.10343 -7.22596,7.50739 -0.19602,0.66374 -0.33663,1.34256 -0.40071,2.02873 -3.79751,1.09543 -7.66717,2.91455 -9.76347,6.20564 -0.74116,1.14598 -1.2721,2.41273 -1.54517,3.72673 -3.28294,0.41995 -6.70637,1.27648 -9.1142,3.52916 -2.16748,1.93271 -3.55683,4.64425 -3.66118,7.44928 -10.1182,2.20192 -20.21663,4.48149 -30.32894,6.7092 -4.35797,0.96662 -8.71599,1.93301 -13.07408,2.89913 8.87274,2.88501 17.74578,5.76922 26.61868,8.65383 -11.06229,4.49401 -22.18627,8.73287 -33.45819,12.71066 -20.58964,7.32827 -41.44947,14.24426 -62.44184,20.4435 -10.8168,3.19705 -21.76877,6.21475 -32.67786,8.97386 -9.56503,2.39433 -19.2137,4.60414 -28.89195,6.40554 -5.814494,1.07885 -11.546274,2.02396 -17.437202,2.6964 -1.34527,0.15181 -2.749375,0.28712 -3.997683,0.38834 -3.88793,0.31771 -7.795223,0.47629 -11.69773,0.36989 0.52279,-3.85967 1.771701,-7.60083 3.156385,-11.25837 2.829723,-7.12213 6.372026,-13.9724 9.806539,-20.85245 4.18798,-8.24166 8.619361,-16.44519 13.372237,-24.37511 2.512984,-4.28688 5.502454,-8.40165 7.120234,-13.08383 0.87927,-3.12206 -0.32582,-6.27978 -1.41907,-9.20869 -0.48218,-1.75954 -2.34087,-2.91173 -4.211543,-3.0917 -2.899309,-0.8747 -6.10492,-1.68868 -9.090364,-0.66352 -4.317165,1.31971 -7.485563,4.49841 -10.849768,7.17594 -10.121588,8.37838 -19.890307,17.12388 -29.395181,26.10533 -9.320591,9.00194 -18.210776,18.49864 -25.350176,29.1262 -5.063598,7.64279 -9.002503,16.17254 -9.791751,25.20681 -0.309507,3.54818 -0.497209,7.1681 0.258271,10.67955 1.042706,4.60251 3.638973,8.78337 6.782769,12.41341 3.947541,4.52632 9.12678,7.98321 14.666675,10.63097 8.707554,4.20922 18.255849,6.62156 27.80806,8.51137 14.133677,2.6723 28.531053,3.78225 42.883568,4.87647 15.15821,1.08821 30.35081,1.81828 45.55511,1.95662 -3.44082,3.67432 -6.57506,7.64513 -8.78519,12.08516 -2.07056,3.98506 -4.04003,8.01477 -6.11915,11.99644 -1.2658,2.4815 -2.53227,4.96269 -3.79659,7.44485 16.90243,0.60599 33.79451,0.86443 50.68629,1.70575 2.53165,0.15413 5.24019,0.39918 7.63362,0.75972 3.79402,0.53569 7.50698,1.54072 11.00015,3.02225 3.9869,1.53659 8.09157,3.28893 12.49793,3.21542 3.71344,-0.0976 7.38381,-1.78854 9.51465,-4.65903 2.42816,-3.08091 3.4312,-6.9262 3.8013,-10.67626 0.0709,-1.16265 0.0482,-2.33077 -0.0869,-3.48865 30.93195,0 61.8639,0 92.79586,0 3.32212,-3.96219 7.69157,-7.25981 9.91068,-11.94871 0.30838,-0.64139 0.58824,-1.29509 0.82147,-1.96365 6.83869,5.01857 13.82828,9.89481 20.09896,15.54026 4.03775,3.5988 7.69736,7.57318 10.76027,11.93226 1.92012,2.5658 3.83946,5.13211 5.76012,7.69756 13.60621,-0.13495 27.23406,0.3897 40.82105,-0.48947 3.55564,-0.29279 7.19861,-1.5591 9.48572,-4.21933 3.21863,-3.48762 3.93639,-8.64294 2.175,-12.89055 -1.90348,-5.95144 -6.19262,-11.10676 -11.60588,-14.67022 -3.88045,-2.72121 -7.91306,-5.27067 -11.50929,-8.32643 -7.62452,-6.20542 -14.54791,-13.34075 -19.37421,-21.68161 -1.2315,-2.32823 -2.56914,-4.84927 -2.25437,-7.51941 0.56684,-3.59938 2.95477,-6.64997 5.40782,-9.36428 2.85743,-3.0242 6.35647,-5.42555 9.83295,-7.78603 4.56835,-3.34215 7.88058,-7.99459 10.00032,-12.99294 1.86463,-2.25937 3.82651,-4.45076 5.75631,-6.66337 4.65939,-5.30201 9.49854,-10.54183 13.06648,-16.56963 5.87693,-9.67131 9.29941,-20.64729 9.7199,-31.76281 0.0857,-0.55245 -0.1457,-1.2196 0.45496,-1.56996 5.32622,-5.34699 10.93663,-10.48781 17.22226,-14.85831 7.71475,-5.54038 16.0754,-10.12492 24.03602,-15.387 5.16878,-3.51927 10.40411,-7.32782 13.60771,-12.60778 2.82995,-4.63688 3.33773,-10.39481 1.46377,-15.42562 -2.01615,-5.78938 -6.53323,-10.51196 -11.65851,-14.14072 -7.13659,-5.13763 -15.73736,-8.42786 -24.64459,-9.66726 -1.18935,-0.22095 -2.47325,-0.28154 -3.44444,-1.03758 -3.21513,-1.94637 -6.643,-3.57905 -10.13443,-5.04927 -3.40496,-1.40288 -6.99952,-2.457 -10.72035,-2.77553 -4.40573,-0.3875 -8.85746,-0.40529 -13.26475,-0.0262 -6.43082,0.56707 -12.8006,2.32142 -18.28304,5.5526 -0.6868,0.38811 -1.36146,0.79547 -2.02136,1.222 -7.91728,-3.65023 -16.35941,-6.55798 -25.19433,-7.41911 -7.13631,-0.82516 -14.33866,-0.84413 -21.51641,-1.04629 -1.30228,-0.0336 -2.80625,-0.12512 -4.18097,-0.10038 z" />
      <rect
         height="23.584898"
         id="rect4761"
         style="fill:#ff0000;fill-opacity:1;stroke:none;stroke-width:1.39228;stroke-opacity:1"
         width="42.11771"
         x="398.17935"
         y="164.36823" />
      <path
         d="m 371.52392,371.99129 c -5.36118,-7.17169 -13.89583,-14.75634 -27.47391,-24.41582 -16.32843,-11.61605 -19.63251,-16.28262 -19.66269,-27.77091 -0.0237,-9.0159 1.39673,-13.21587 6.41983,-18.98257 3.62631,-4.16313 12.62726,-19.85326 12.62726,-22.01138 0,-1.66207 -1.78601,-0.39782 -4.15843,2.94358 -1.41282,1.98987 -6.92902,8.36853 -12.25824,14.17482 -11.03768,12.02573 -12.19775,14.83224 -12.19775,29.50924 0,8.05958 0.17792,8.72291 3.236,12.06402 5.46477,5.97058 5.9952,11.64495 1.52145,16.27566 l -2.53665,2.62563 h -40.34062 -40.3406 l 2.69343,-5.09881 c 1.48139,-2.80433 3.35856,-7.72232 4.17148,-10.92886 1.68813,-6.65867 2.72235,-16.50477 1.73366,-16.50477 -0.36529,0 -4.46821,3.68965 -9.11764,8.19921 -4.64942,4.50957 -13.10333,11.90086 -18.78646,16.42509 -5.68315,4.52425 -10.32069,8.49751 -10.30564,8.82949 0.0151,0.33198 1.93336,1.44679 4.26296,2.47736 5.19625,2.29871 7.82369,6.65741 6.89027,11.43038 -0.36561,1.86949 -1.08009,3.64533 -1.58775,3.9463 -0.50765,0.30096 -3.2314,-0.40347 -6.05276,-1.56543 -10.70101,-4.40711 -16.31146,-5.30021 -37.21977,-5.92484 l -20.43228,-0.61041 2.84999,-5.59151 c 2.04031,-4.00302 6.53282,-9.05736 15.81357,-17.79118 8.92098,-8.39527 13.84779,-13.89562 15.79892,-17.63811 1.55941,-2.99114 2.64165,-5.62422 2.40496,-5.85126 -0.23669,-0.22705 -2.40176,1.82995 -4.81126,4.57114 -2.52433,2.87179 -6.72708,6.10547 -9.91704,7.63037 -5.05272,2.41536 -6.65152,2.64471 -18.31048,2.62692 -27.99141,-0.0427 -68.502461,-2.90296 -86.485816,-6.10619 -22.224549,-3.95867 -35.477341,-10.06555 -40.819113,-18.80942 -2.561394,-4.19273 -2.797365,-5.39699 -2.346428,-11.97508 0.834689,-12.17598 9.399869,-25.65293 28.51589,-44.86849 10.348541,-10.40244 37.988071,-34.48846 38.744258,-33.76307 0.190711,0.18295 -2.067463,4.18092 -5.018162,8.88437 -7.724877,12.31358 -21.358608,38.87648 -25.253144,49.20129 -1.888738,5.00722 -3.448438,11.28194 -3.58826,14.43566 -0.221557,4.99725 0.06252,5.83434 2.7262,8.03327 2.677605,2.21043 3.943256,2.4547 12.717523,2.45452 29.025892,-5.8e-4 92.756592,-16.48373 165.003762,-42.67614 21.39466,-7.75639 51.95952,-20.50342 51.36729,-21.42265 -0.28612,-0.4441 -3.73417,-1.848 -7.66232,-3.11977 l -7.14209,-2.31231 5.82886,-1.29328 c 3.20588,-0.7113 10.5615,-1.76827 16.34585,-2.34883 5.78433,-0.58056 10.72307,-1.25326 10.97496,-1.49489 0.43568,-0.41793 -9.84253,-3.5568 -17.78267,-5.43068 -3.81206,-0.89964 -2.6668,-1.07482 25.7,-3.93126 3.3516,-0.3375 6.09381,-0.97536 6.09381,-1.41747 0,-1.01563 -13.57768,-4.01672 -18.17272,-4.01672 -5.44485,0 -2.27414,-1.86194 6.05199,-3.55394 4.04342,-0.82167 10.80923,-1.5019 15.03515,-1.5116 4.22595,-0.01 7.68352,-0.4085 7.68352,-0.8862 0,-1.05844 -14.34659,-5.23898 -17.9635,-5.23451 -4.84034,0.006 -0.71163,-1.77806 8.95526,-3.86969 5.24597,-1.13506 11.68421,-2.35371 14.3072,-2.70808 14.06303,-1.89995 13.32751,-2.80394 -3.70927,-4.55883 -6.41176,-0.66044 -12.61155,-1.30884 -13.77733,-1.44087 -2.65447,-0.30064 13.72814,-5.23126 22.18537,-6.67705 3.45864,-0.59126 8.10848,-1.07503 10.33298,-1.07503 2.2245,0 4.04453,-0.40884 4.04453,-0.90854 0,-1.9119 -15.62658,-6.84716 -27.02473,-8.53508 -1.36993,-0.20287 -0.0581,-1.01157 3.70928,-2.28654 6.37474,-2.1574 24.85254,-2.77283 33.91339,-1.12954 l 4.76907,0.86493 -4.76907,-4.75848 c -5.50945,-5.49718 -11.4025,-9.05781 -20.5471,-12.41466 l -6.47764,-2.37784 13.77733,0.39264 c 14.38428,0.40993 21.19751,1.99212 33.52249,7.78472 l 4.90809,2.30675 3.57026,-2.6006 c 6.22403,-4.5336 12.34778,-6.32868 21.58677,-6.32779 7.06588,6.8e-4 9.5329,0.47435 14.80837,2.84325 3.48151,1.56333 7.05831,3.45798 7.94845,4.21033 0.89013,0.75235 4.24142,1.6864 7.4473,2.07568 11.48865,1.39499 24.02312,9.1015 26.49649,16.29071 2.23242,6.48883 -1.72196,10.78944 -20.02242,21.77553 -14.02827,8.42142 -22.63883,14.84541 -31.00029,23.1281 l -5.97985,5.9235 -0.5025,7.62477 c -0.76029,11.53641 -6.03568,23.71411 -14.38452,33.20523 l -2.82752,3.2144 -0.0363,-11.85583 c -0.0496,-16.19401 -2.64562,-24.09565 -9.38717,-28.57221 -10.59354,-7.03439 -16.65166,-15.61031 -18.17475,-25.72826 -1.10357,-7.33115 -3.04382,-6.07751 -2.225,1.43763 0.99948,9.17299 4.81287,16.18014 13.46235,24.73716 6.22868,6.16208 7.85899,8.50394 9.55126,13.71982 3.66655,11.30094 2.16075,26.75865 -3.86047,39.62936 -2.02254,4.32328 -3.8936,6.47007 -7.95801,9.13067 -11.05957,7.23968 -17.86648,16.83086 -17.91146,25.2379 -0.0614,11.47488 15.77637,30.85261 35.84461,43.85633 4.8891,3.16801 7.2577,5.50116 8.68125,8.55127 1.46548,3.13997 1.64022,4.3882 0.69499,4.96471 -0.69448,0.42357 -8.89321,0.75517 -18.21938,0.73689 l -16.95671,-0.0333 -4.23419,-5.66409 z m 58.13603,-193.20853 c 3.28708,-2.07656 5.97651,-4.27981 5.97651,-4.89612 0,-1.45544 -10.33476,-5.56124 -13.99829,-5.56124 -1.72526,0 -4.66879,1.48782 -7.54244,3.8124 -2.59212,2.0968 -6.31716,5.04179 -8.27786,6.54437 l -3.56491,2.73201 6.99956,-0.57777 c 4.28289,-0.35353 7.77919,-0.1435 9.00825,0.54116 3.25078,1.81086 5.08689,1.3929 11.39918,-2.59481 z"
         id="path1115"
         style="fill:url(#linearGradient4046);fill-opacity:1;stroke:none;stroke-width:1.57953;stroke-miterlimit:4;stroke-dasharray:none;stroke-opacity:1" />
    </g>
  </g>
</svg>
