<?xml version="1.0" encoding="UTF-8" standalone="no"?>
<!-- Created with Inkscape (http://www.inkscape.org/) -->

<svg
   version="1.1"
   id="svg447"
   width="512"
   height="512"
   viewBox="0 0 512 512"
   sodipodi:docname="chimera.svg"
   inkscape:version="1.2.2 (b0a8486541, 2022-12-01)"
   inkscape:export-filename="../GIT Icons/chimera.png"
   inkscape:export-xdpi="96"
   inkscape:export-ydpi="96"
   xmlns:inkscape="http://www.inkscape.org/namespaces/inkscape"
   xmlns:sodipodi="http://sodipodi.sourceforge.net/DTD/sodipodi-0.dtd"
   xmlns="http://www.w3.org/2000/svg"
   xmlns:svg="http://www.w3.org/2000/svg">
  <defs
     id="defs451" />
  <sodipodi:namedview
     id="namedview449"
     pagecolor="#505050"
     bordercolor="#eeeeee"
     borderopacity="1"
     inkscape:showpageshadow="0"
     inkscape:pageopacity="0"
     inkscape:pagecheckerboard="0"
     inkscape:deskcolor="#505050"
     showgrid="false"
     inkscape:zoom="0.86915208"
     inkscape:cx="244.49116"
     inkscape:cy="258.87299"
     inkscape:window-width="1366"
     inkscape:window-height="705"
     inkscape:window-x="0"
     inkscape:window-y="26"
     inkscape:window-maximized="1"
     inkscape:current-layer="g453" />
  <g
     inkscape:groupmode="layer"
     inkscape:label="Image"
     id="g453">
    <path
       id="path1128"
       style="fill:#00ff00;stroke-width:1.48329"
       d="m 226.21827,108.16952 c -6.84997,0.0159 -9.09979,0.45038 -7.5414,1.46098 1.22161,0.79219 3.59874,1.45178 5.28331,1.46355 5.50457,0.041 18.03674,4.44133 21.59281,7.5808 1.91335,1.68915 2.64339,2.64554 1.62321,2.12508 -3.72591,-1.90078 -17.39276,-3.36736 -20.31439,-2.17872 -2.66521,1.08435 -2.55006,1.23427 1.03712,1.31796 2.22313,0.0518 6.75198,1.17958 10.06096,2.5082 5.63255,2.26147 5.83273,2.5432 3.1717,4.41363 -3.96233,2.78481 -11.77791,15.36511 -15.26092,24.56353 -4.04007,10.66927 -3.92628,24.8908 0.33037,41.26274 2.98186,11.4687 3.16458,13.57174 1.36177,15.75164 -1.57933,1.90947 -3.44226,2.29723 -7.73102,1.60914 -5.26978,-0.84559 -5.53275,-0.71737 -3.89567,1.91307 2.68091,4.30751 9.27384,7.62422 15.15462,7.62422 4.68279,0 5.64191,0.68377 8.30561,5.92315 l 3.01081,5.92313 -2.98208,2.99094 c -4.16596,4.18024 -12.34337,3.86439 -20.2483,-0.78412 -7.26195,-4.27057 -7.85725,-3.25036 -3.5969,6.16323 2.60918,5.76519 7.8113,9.4753 18.13384,12.93435 3.09268,1.03644 5.05252,9.35996 2.83557,12.04039 -2.39411,2.8947 -16.16837,6.31766 -36.38259,9.04436 -26.42729,3.56476 -42.34918,7.42228 -54.37852,13.16936 -26.17934,12.50734 -63.242177,19.30896 -86.193201,15.81801 -19.747177,-3.0037 -29.544541,-8.88327 -35.555199,-21.3376 -7.202905,-14.92506 -6.325583,-29.42779 2.884411,-47.77082 12.787269,-25.4676 36.987351,-45.16405 40.11738,-32.65004 1.171896,4.68515 4.706274,6.6474 11.97718,6.64851 4.528768,7.3e-4 7.380403,1.40326 14.367456,7.05976 12.930973,10.46846 13.949353,11.12148 15.643013,10.07112 1.92647,-1.19471 2.07825,-9.84199 0.16376,-9.33043 -0.76463,0.20432 -3.71519,-3.47435 -6.556,-8.17336 l -5.165498,-8.5412 h 8.937638 c 8.79329,0 8.92099,0.0589 8.00682,3.71381 -0.51101,2.04303 -0.63585,3.71377 -0.2758,3.71377 1.60867,0 12.72989,-12.56914 12.72989,-14.38769 0,-2.22628 -5.83972,-4.927 -10.65277,-4.927 -1.68067,0 -5.63607,-2.34004 -8.79112,-5.20032 -4.09832,-3.7154 -7.11152,-5.19623 -10.546481,-5.17987 -6.996551,0.0332 -26.69666,5.23694 -40.344338,10.65603 -10.005397,3.97278 -13.455675,6.33759 -22.210501,15.21525 -19.723513,20.00052 -29.5976004,47.01455 -25.8102574,70.61282 3.5002724,21.8104 17.2799354,35.15259 42.4559294,41.11207 13.128667,3.10758 42.916462,1.96749 62.572068,-2.39584 7.73683,-1.71751 15.93067,-3.51533 18.20855,-3.99472 l 4.14272,-0.87098 -2.95333,7.7979 c -7.30554,19.29326 -24.14256,38.62276 -36.325145,41.70208 -21.101261,5.33352 -24.182714,8.42676 -27.700642,27.80478 -1.445255,7.9609 -2.656915,15.64468 -2.691917,17.07469 -0.05662,2.31373 1.63356,2.60016 15.326997,2.60016 12.415178,0 15.556937,-0.43776 16.254938,-2.263 0.971218,-2.53971 -3.880761,-8.13762 -7.053001,-8.13762 -1.134466,0 -2.416204,-0.92181 -2.847064,-2.04847 -1.104272,-2.88755 1.335201,-12.83479 3.740552,-15.24841 1.122522,-1.12644 13.269382,-3.87377 27.462192,-6.20921 l 25.45116,-4.18632 8.55265,-6.65363 c 6.41008,-4.98567 11.87784,-11.63397 21.80255,-26.51747 13.81861,-20.72332 18.07631,-23.40218 9.43753,-5.93846 l -5.04484,10.19627 5.11379,0.44185 c 4.23597,0.36695 5.95978,1.68055 10.05808,7.66256 5.95324,8.6896 6.11675,12.08402 1.10893,23.28132 -3.81106,8.52185 -3.81949,8.62947 -1.17215,14.3034 1.46688,3.14392 6.22061,9.22646 10.56658,13.51672 l 7.90339,7.80047 h 15.48214 c 13.47914,0 15.48214,-0.3206 15.48214,-2.48267 0,-6.05611 -7.32332,-9.65902 -13.20968,-6.49782 -2.79362,1.50027 -7.38993,-2.31976 -12.44833,-10.34698 -2.27012,-3.60256 -2.08208,-4.1487 5.73148,-16.71456 7.13151,-11.46909 8.07632,-13.9075 8.0585,-20.79356 -0.0115,-4.29014 -0.43663,-9.35803 -0.94518,-11.26392 -0.87697,-3.28654 -1.37194,-3.41334 -9.60414,-2.45458 -6.31036,0.73494 -8.67906,0.52603 -8.67906,-0.76625 0,-1.3202 5.04688,-1.62338 19.61911,-1.17747 17.16465,0.52528 20.82953,1.10325 29.28651,4.62817 5.31666,2.21597 13.97791,4.96821 19.2485,6.11468 7.2779,1.58316 8.37118,2.11213 4.54494,2.20172 l -5.0362,0.11744 0.98256,18.20362 c 0.90552,16.75219 2.76092,26.51509 7.05874,37.14542 l 1.65192,4.08671 h 15.37009 c 12.50916,0 15.36721,-0.40456 15.36721,-2.17619 0,-3.13259 -4.79107,-5.25392 -11.86799,-5.25392 h -6.13655 l 0.93657,-10.03028 c 1.63738,-17.52931 3.74963,-30.61774 6.10781,-37.85037 2.24006,-6.87038 2.4464,-7.04159 9.58691,-7.99202 4.01331,-0.53422 7.29721,-1.0742 7.29721,-1.19791 0,-0.12384 -2.35151,-5.81617 -5.22297,-12.64829 -2.87153,-6.83224 -4.99371,-12.64681 -4.71729,-12.92414 1.30622,-1.3109 18.82332,26.42534 18.82332,29.80469 0,3.01682 3.81517,7.00954 18.88081,19.7617 10.38352,8.78901 24.58639,21.49669 31.56182,28.24154 l 12.68103,12.26519 h 20.26268 c 19.007,0 20.26555,-0.17767 20.26555,-2.85814 0,-1.57178 -1.72406,-4.91579 -3.83247,-7.43011 -3.4528,-4.1176 -4.67156,-4.57198 -12.253,-4.57198 h -8.41764 l -11.28767,-11.51423 c -10.51442,-10.72413 -11.82024,-12.78924 -18.9871,-30.04226 l -7.69654,-18.52544 4.21458,-3.38175 c 3.60939,-2.89843 5.94949,-3.38672 16.33251,-3.39193 13.60763,-0.008 29.00698,2.82161 39.18081,7.19766 5.7812,2.48669 6.95392,3.70952 7.77698,8.11207 1.19811,6.40834 6.11582,12.91392 9.75929,12.91392 1.50049,0 5.50064,3.16329 8.89167,7.0291 5.26931,6.00686 6.02475,7.68243 5.19424,11.51678 -0.5345,2.46765 -1.23845,7.15985 -1.56574,10.42873 -0.56982,5.6908 -0.52152,5.7694 1.14053,1.85688 2.36189,-5.55957 4.10534,-5.15261 3.18607,0.74327 -0.4802,3.08002 0.0716,5.90518 1.52553,7.80047 2.20541,2.87492 2.28254,2.8283 2.35005,-1.48398 0.12899,-8.24598 4.71619,-10.91664 11.28767,-6.56935 5.37853,3.55805 7.81374,3.51781 12.2616,-0.19923 3.29798,-2.75615 3.37054,-3.13134 1.10606,-5.64217 -2.77581,-3.07783 -1.50375,-5.51224 1.55138,-2.96796 1.11259,0.92661 2.33877,1.36944 2.72352,0.98337 1.0831,-1.08684 -3.37329,-15.01878 -5.86073,-18.32112 -4.40077,-5.84254 -2.76263,-28.56121 4.3381,-60.15092 2.74883,-12.22881 2.74703,-15.18494 -0.0202,-26.06029 -6.68664,-26.2815 -22.35027,-43.41868 -42.70876,-46.7287 -8.43955,-1.37215 -13.03329,0.53498 -4.95291,2.05612 12.72238,2.39492 30.19589,20.96969 35.87983,38.14154 3.24487,9.80303 3.38972,27.43782 0.27581,33.48017 -4.33958,8.42087 -6.1995,9.05961 -15.95616,5.49404 -4.7637,-1.74099 -9.92304,-2.83313 -11.46293,-2.42902 -1.84126,0.48318 -5.20296,-1.35424 -9.81963,-5.36377 -10.6046,-9.20993 -22.07035,-14.14993 -39.69794,-17.10789 l -5.55334,-0.93229 v 8.68933 c 0,10.42596 -5.313,22.43893 -12.05762,27.2582 -2.42002,1.72918 -4.63522,2.90381 -4.9213,2.61036 -0.28607,-0.29348 -0.15237,-5.08695 0.29592,-10.65092 0.891,-11.05842 2.89928,-11.62551 3.63422,-1.02677 l 0.46254,6.68684 4.17147,-6.98824 c 5.42246,-9.08249 6.48008,-19.56874 3.33258,-33.04087 l -2.40749,-10.30866 7.76548,-7.89242 c 4.27174,-4.34028 8.2812,-7.8924 8.9089,-7.8924 0.62768,0 2.18183,2.49944 3.45326,5.5528 2.65019,6.36474 7.72029,12.27791 10.52635,12.27791 1.10569,0 1.54932,0.95608 1.05148,2.25793 -0.71359,1.86587 -0.20555,2.00607 2.93037,0.80966 3.14601,-1.20023 3.94148,-0.97552 4.66851,1.32306 0.482,1.5238 1.76134,3.50926 2.84416,4.41108 1.59419,1.32761 1.98684,0.15108 2.05127,-6.18113 0.0439,-4.30116 0.70401,-9.49162 1.46806,-11.53468 1.08539,-2.90209 0.78746,-4.33986 -1.36463,-6.57444 -2.56319,-2.66118 -2.75512,-2.67547 -2.75512,-0.212 0,1.80402 -0.74852,2.359 -2.34431,1.7445 -1.28823,-0.49605 -2.93605,-0.90162 -3.66297,-0.90162 -2.47153,0 -5.84215,-8.74523 -5.83774,-15.1565 0.002,-7.7038 3.7003,-15.49105 9.32261,-19.62887 3.56373,-2.6229 4.33744,-2.74101 5.53034,-0.84797 0.76275,1.21044 1.39885,3.74498 1.41062,5.63195 0.0292,4.43367 2.35868,2.98607 3.67732,-2.28599 0.56202,-2.2469 1.69864,-4.5063 2.52529,-5.01897 1.88687,-1.17019 -2.47859,-10.05088 -5.516,-11.2205 -1.17903,-0.45399 -2.14606,-1.44572 -2.14606,-2.20425 0,-0.77789 1.2916,-0.68506 2.96197,0.212 2.67003,1.43389 2.96198,1.12999 2.96198,-3.08801 0,-4.65023 -0.0366,-4.67408 -6.29167,-3.80827 -22.01121,3.04661 -24.93137,3.01165 -25.79878,-0.31671 -0.85631,-3.28568 -3.2085,-3.27462 -12.207,0.0585 -2.51848,0.93297 -3.94008,0.75746 -4.79207,-0.59002 -2.26494,-3.58247 -1.26362,-6.08267 4.72884,-11.80286 l 5.98715,-5.71114 h -4.55357 c -2.50366,0 -6.94198,1.00143 -9.86558,2.22724 -6.53348,2.73934 -6.53759,2.73934 -5.49015,0 1.10998,-2.90267 -2.30734,-2.89077 -6.45256,0.023 -2.90516,2.04178 -3.35097,2.0083 -4.77188,-0.37037 -1.49095,-2.49552 -1.64436,-2.49618 -3.12288,-0.023 -1.20656,2.01852 -3.6062,2.6103 -10.73321,2.65126 -5.04944,0.0289 -10.76957,0.93612 -12.70978,2.01523 l -3.52795,1.96161 5.00752,1.89519 5.01034,1.89521 -10.82513,1.95138 c -15.57101,2.80452 -23.31506,8.19142 -26.2211,18.24452 l -1.01127,3.49666 4.22033,-3.00115 c 2.32139,-1.65066 5.88749,-3.4712 7.92349,-4.04581 7.59723,-2.14416 -4.6408,8.1908 -16.28943,13.7568 -6.46148,3.08747 -14.88673,8.78828 -20.14773,13.63164 -15.73634,14.48668 -27.23525,24.1755 -27.23525,22.94673 0,-2.47606 9.36154,-14.8157 13.45098,-17.7311 l 4.26917,-3.04459 -5.15116,-5.00873 -5.15113,-5.00874 -4.44728,3.29999 c -5.42677,4.02615 -5.99263,1.67309 -0.61765,-2.5695 l 3.83245,-3.02414 -4.82649,-6.7456 c -4.63393,-6.47495 -4.96372,-6.65379 -8.23089,-4.50555 -2.84438,1.87004 -3.26857,1.88865 -2.59137,0.11742 0.44566,-1.16536 1.78637,-2.49476 2.98207,-2.95519 1.77276,-0.68261 1.47896,-1.86455 -1.59446,-6.40332 -4.19342,-6.19247 -4.96918,-14.54696 -1.7611,-18.94946 2.71786,-3.72957 5.79562,-2.25152 11.37962,5.46085 4.51282,6.23281 4.54684,6.39626 1.39622,6.8784 -1.87529,0.28699 -4.77244,-0.95928 -6.91509,-2.97309 l -3.68884,-3.46601 1.77548,3.92323 c 2.98217,6.59138 7.51181,8.05393 18.88367,6.0994 8.6353,-1.48428 10.23091,-1.39027 12.57187,0.7356 2.50216,2.27216 2.92633,2.18943 6.33764,-1.23369 2.01041,-2.01734 4.2729,-5.83679 5.03049,-8.48753 l 1.379,-4.81973 -3.88133,3.065 c -2.90344,2.29184 -5.02083,2.8112 -8.40038,2.06634 -9.97205,-2.19779 -15.666,-9.3029 -15.666,-19.54969 0,-3.14589 -0.79829,-6.52352 -1.77548,-7.50418 -1.38198,-1.38678 -0.14748,-1.78267 5.55336,-1.78792 8.45525,-0.006 12.64299,-2.21779 24.35656,-12.85261 14.5963,-13.25209 21.06131,-15.7755 23.49468,-9.17461 2.0129,5.46029 3.51755,0.34654 2.36731,-8.04569 -0.75487,-5.50731 -2.21209,-8.82282 -5.19712,-11.81817 -3.92313,-3.93667 -10.08792,-5.94074 -8.0384,-2.61292 1.42265,2.30988 -1.99226,5.69733 -9.57256,9.49642 -9.96134,4.99253 -14.16618,5.64387 -20.17073,3.12633 -3.69426,-1.54888 -7.86043,-1.95306 -13.76987,-1.33327 -7.57222,0.79418 -9.48651,0.37653 -18.03042,-3.95134 -14.87814,-7.5364 -24.57539,-10.37719 -35.34548,-10.35207 z m 61.31087,19.19464 -3.70029,2.98839 c -3.97769,3.21011 -4.70143,3.32636 -10.3655,1.68064 -3.40366,-0.98888 -3.46424,-1.14653 -0.74119,-1.95137 1.62879,-0.48145 5.62543,-1.28877 8.88304,-1.7956 z M 91.553281,185.56877 c 0.230607,-0.18204 1.100803,0.0333 2.752267,0.53639 2.029504,0.61832 4.322842,1.71899 5.096541,2.44435 0.850801,0.79764 0.191386,1.31794 -1.669174,1.31794 -1.691971,0 -3.985217,-1.09805 -5.096541,-2.44177 -0.904295,-1.09333 -1.313701,-1.67473 -1.083093,-1.85691 z m 317.597839,9.82338 c 0.34681,0.0132 0.54012,0.0976 0.54011,0.26053 0,2.83815 -5.37686,5.53004 -9.42317,4.72013 -4.13615,-0.82785 -4.07364,-0.90845 2.59138,-3.37662 2.81711,-1.04334 5.25128,-1.6435 6.29168,-1.60404 z m 49.10672,43.6407 -9.32834,0.13284 6.94382,1.92074 c 8.21073,2.26918 15.2506,6.41614 20.69648,12.1962 4.34636,4.61305 11.59795,17.59378 11.59795,20.75779 0,1.10411 0.42593,2.00757 0.94521,2.00757 0.51941,0 0.50789,-3.72803 -0.026,-8.28318 -2.25634,-19.26415 -12.69154,-28.9903 -30.82924,-28.73196 z m 17.01341,88.09107 c 0.28206,-0.28301 2.75405,1.80773 5.493,4.6435 5.43158,5.62323 5.53032,7.03367 0.35051,5.0675 -2.92941,-1.11192 -7.25291,-8.29682 -5.84351,-9.711 z" />
  </g>
</svg>
