<?xml version="1.0" encoding="UTF-8" standalone="no"?>
<!-- Created with Inkscape (http://www.inkscape.org/) -->

<svg
   version="1.1"
   id="svg64"
   width="512"
   height="512"
   viewBox="0 0 511.99998 512.00002"
   sodipodi:docname="chisel.svg"
   inkscape:version="1.2.2 (b0a8486541, 2022-12-01)"
   inkscape:export-filename="../GIT Icons/chisel.png"
   inkscape:export-xdpi="96"
   inkscape:export-ydpi="96"
   xmlns:inkscape="http://www.inkscape.org/namespaces/inkscape"
   xmlns:sodipodi="http://sodipodi.sourceforge.net/DTD/sodipodi-0.dtd"
   xmlns="http://www.w3.org/2000/svg"
   xmlns:svg="http://www.w3.org/2000/svg"
   xmlns:rdf="http://www.w3.org/1999/02/22-rdf-syntax-ns#"
   xmlns:cc="http://creativecommons.org/ns#"
   xmlns:dc="http://purl.org/dc/elements/1.1/">
  <metadata
     id="metadata70">
    <rdf:RDF>
      <cc:Work
         rdf:about="">
        <dc:format>image/svg+xml</dc:format>
        <dc:type
           rdf:resource="http://purl.org/dc/dcmitype/StillImage" />
      </cc:Work>
    </rdf:RDF>
  </metadata>
  <defs
     id="defs68" />
  <sodipodi:namedview
     pagecolor="#8c8c8c"
     bordercolor="#666666"
     borderopacity="1"
     objecttolerance="10"
     gridtolerance="10"
     guidetolerance="10"
     inkscape:pageopacity="0"
     inkscape:pageshadow="2"
     inkscape:window-width="1366"
     inkscape:window-height="695"
     id="namedview66"
     showgrid="false"
     inkscape:zoom="0.83071755"
     inkscape:cx="300.94465"
     inkscape:cy="254.59917"
     inkscape:window-x="0"
     inkscape:window-y="24"
     inkscape:window-maximized="1"
     inkscape:current-layer="svg64"
     inkscape:pagecheckerboard="0"
     inkscape:showpageshadow="0"
     inkscape:deskcolor="#8c8c8c" />
  <g
     id="g479"
     transform="matrix(0.91273732,0,0,0.92202532,22.352616,19.952194)">
    <path
       id="path4496-3"
       style="fill:#ffffff;fill-opacity:1;stroke-width:2.09301"
       d="M 250.34766,-15.123047 C 216.02379,-14.658861 182.04588,-6.1956626 150.85373,7.955372 112.04568,25.500929 77.48896,52.301687 50.731454,85.427425 26.056136,115.82176 7.6935138,151.18982 -3.7532817,188.59245 c -5.1104583,16.5516 -9.0321403,33.49387 -11.3216263,50.67146 -1.568865,13.48571 -1.331053,27.08524 -1.591518,40.63639 -0.500135,43.2562 -0.536065,86.51579 -0.757036,129.77388 -0.16398,39.15939 -0.329599,78.31877 -0.492554,117.47816 182.600916,0 365.201826,0 547.802736,0 -0.24483,-71.52242 -0.32288,-143.046 -0.92344,-214.56667 -0.25892,-23.15839 -0.56088,-46.33169 -2.03033,-69.44931 -0.74006,-11.22874 -2.38993,-22.40717 -5.17574,-33.31533 C 518.5045,196.70124 514.6109,183.72509 509.88,171.05553 500.97165,147.12961 489.30682,124.17868 474.69506,103.22249 458.93899,80.73192 439.8075,60.688668 418.58194,43.303258 392.03445,21.769469 361.36545,5.1701234 328.51087,-4.4095913 303.18325,-11.857736 276.73243,-15.334272 250.34766,-15.123047 Z m 2.75195,106.777344 c 8.22047,0.08413 16.3804,0.415856 24.58964,1.136062 2.09716,0.175501 4.17944,0.484203 6.25802,0.807297 0.38759,0.0737 1.18246,0.208596 1.72595,0.30572 2.26271,0.387801 4.73616,0.960027 7.06941,1.534697 10.00815,2.516699 19.74637,6.070377 29.11557,10.385177 25.37939,11.8163 47.54482,30.15607 64.55747,52.33318 2.92689,3.79482 5.76893,7.84061 8.33042,11.74787 7.44769,11.36947 13.7184,23.61199 18.66797,36.20508 3.64371,9.26546 6.67972,18.94112 8.9401,28.70605 1.1516,4.78182 1.93367,9.6478 2.33529,14.5498 0.0791,1.03223 0.19476,2.31794 0.27523,3.39911 0.68559,8.79872 1.03644,17.77916 1.30485,26.59113 0.5554,20.21139 0.60255,40.43343 0.39844,60.65039 -17.51324,-14.25908 -35.00098,-28.5539 -52.49609,-42.8418 -0.5635,-14.62856 -0.65926,-29.36114 -3.30007,-43.80622 -2.89665,-14.41067 -8.66928,-28.13805 -16.08665,-40.78753 -9.97455,-16.65003 -23.92182,-30.9449 -40.50224,-41.06636 -11.88477,-7.32157 -25.04132,-12.72604 -38.80358,-15.21301 -9.62256,-1.52302 -19.40265,-1.12861 -29.10196,-0.88653 -11.73003,0.55039 -23.38504,3.30641 -33.99466,8.37293 -14.39844,6.4656 -27.73947,15.50062 -38.51129,27.08842 -14.7283,15.6119 -25.55649,34.90925 -31.06833,55.66031 -3.3489,13.01358 -4.35148,26.47985 -4.97345,39.8587 -0.1569,3.72513 -0.25015,7.45306 -0.27692,11.18164 -17.37401,14.12134 -34.74171,28.24834 -52.136714,42.34375 -0.04695,-28.41657 -0.08153,-56.83388 0.04102,-85.25 0.212229,-2.42803 0.979129,-4.76151 1.402322,-7.15527 2.598126,-12.11349 5.512183,-24.19409 9.733258,-35.8585 4.279364,-12.06315 9.632554,-23.75636 16.143714,-34.78116 4.96809,-8.41197 10.74304,-16.56542 17.11166,-24.07036 5.83768,-6.9395 12.24417,-13.53184 18.94107,-19.54878 4.44572,-3.9719 9.15799,-7.85242 13.90235,-11.32226 10.54778,-7.75407 22.12691,-14.07367 34.29723,-18.88494 3.62849,-1.4482 7.35919,-2.78907 11.12624,-4.031403 5.73073,-1.881115 11.56874,-3.54738 17.53413,-4.79723 1.23604,-0.265333 2.59453,-0.5212 3.70916,-0.72175 3.76999,-0.66964 7.57784,-1.108906 11.39378,-1.412335 0.87633,-0.05247 2.0359,-0.148795 3.02585,-0.187175 1.51146,-0.08384 2.90838,-0.12949 4.4616,-0.172222 1.61988,-0.03892 3.23989,-0.0559 4.86021,-0.06248 z m 1.72851,169.898433 c 1.80777,0.0465 3.63307,-0.0919 5.42945,0.0511 1.89048,0.8986 3.51235,2.29286 5.0065,3.74193 2.17763,2.20715 4.00505,4.82131 5.13244,7.71256 0.0682,0.61013 0.0933,0.97823 0.12124,1.5193 0.0245,0.54286 0.0302,1.01588 0.0467,1.55913 -9.74609,0 -19.49218,0 -29.23828,0 0.0902,-0.58368 0.1782,-1.07321 0.32219,-1.72314 0.59006,-2.85938 1.82988,-5.60895 3.83797,-7.75538 1.84499,-2.0732 4.03125,-3.97013 6.63676,-4.99397 0.8872,-0.17006 1.80622,-0.132 2.70503,-0.1115 z" />
    <g
       id="g454"
       transform="translate(-1.35e-5,0.80005304)">
      <path
         id="rect1198"
         style="fill:#ffff00;stroke-width:1.1964"
         d="m 231.14224,446.26651 c 0,16.88236 0,33.76474 0,50.64711 16.60926,0 33.21853,0 49.82779,0 0,-17.54354 0,-35.08708 0,-52.63062 -16.60926,-1e-5 -33.21853,0 -49.82779,0 0,0.66116 0,1.32233 0,1.98351 z" />
      <path
         style="fill:#000000;stroke-width:0.520389"
         d="M 11.845339,380.13014 C 12.016603,312.47636 12.348102,260.2206 12.634995,255.65259 13.796336,237.16136 17.96668,215.48215 24.385673,194.56764 42.547076,135.39372 80.537411,83.809678 129.63673,51.655611 c 30.72376,-20.120316 65.33785,-33.044127 99.99733,-37.335866 4.61349,-0.571266 11.52152,-0.833639 21.94455,-0.833471 23.26517,3.74e-4 35.21999,1.036838 50.59396,4.386415 36.76796,8.010755 69.80068,23.740907 97.9672,46.651888 11.16232,9.079536 17.4767,15.082965 28.51704,27.112624 11.0513,12.041619 16.69175,18.886759 22.17694,26.913619 21.33148,31.21585 35.58058,64.68743 43.80275,102.89421 2.84454,13.21791 3.65433,19.27126 4.32191,32.30715 0.41707,8.14404 1.30215,147.06107 1.46596,230.08664 l 0.0255,12.89573 H 389.72956 279.00931 v -24.43398 -24.43398 h -22.94203 -22.94203 v 24.43398 24.43398 H 122.3377 11.550157 Z M 279.00931,375.92208 V 351.2166 h -22.94203 -22.94203 v 24.70548 24.70544 h 22.94203 22.94203 z m 177.21284,-28.37057 c 0.34844,-57.29368 -0.11072,-90.42161 -1.37533,-99.22911 -5.88317,-40.97423 -19.42541,-74.67278 -42.87689,-106.69504 -6.49756,-8.87226 -21.23865,-24.85993 -29.72146,-32.23492 C 353.25968,84.189476 319.14856,67.971251 283.9967,62.678378 269.51297,60.497539 250.17086,60.036238 236.72692,61.55101 176.08777,68.383443 121.61308,104.05791 88.748002,158.45965 73.696442,183.37458 65.056994,206.23132 58.373086,238.8203 l -2.282946,11.13104 -0.133448,74.22348 c -0.09948,55.32822 0.01238,74.38265 0.439387,74.84865 0.645533,0.70448 2.352824,-0.65471 69.126051,-55.0314 l 41.76946,-34.01492 v -15.40941 c 0,-23.29481 0.92195,-32.40817 4.51337,-44.61433 6.39885,-21.74773 19.64527,-40.39066 37.13141,-52.25853 8.65787,-5.87612 19.87668,-10.96056 28.42707,-12.88334 9.55599,-2.14892 24.31773,-2.36756 34.66351,-0.51341 10.45474,1.8737 25.09933,8.55355 34.40537,15.6934 8.66234,6.64598 16.83874,15.82186 23.0423,25.85896 3.12093,5.04955 8.86508,17.7418 10.82521,23.91934 3.03955,9.57949 3.76684,16.95153 4.34628,44.05515 l 0.34594,16.1818 55.16088,45.01963 c 30.33851,24.7608 55.29339,45.02829 55.45532,45.03888 0.16196,0.0106 0.4382,-23.62061 0.6139,-52.51378 z M 300.93909,295.96866 c -0.0224,-12.13634 -0.84154,-26.62301 -1.71172,-30.27099 -2.576,-10.7991 -10.88819,-22.34613 -20.62519,-28.65186 -22.16549,-14.35446 -51.22085,-4.85194 -62.67121,20.49653 -4.01018,8.87764 -4.37273,11.22953 -4.62614,30.01016 l -0.22163,16.42508 h 44.93532 44.93534 z"
         id="path74"
         inkscape:connector-curvature="0" />
      <path
         id="path4335"
         style="fill:#ffff00;fill-opacity:1;stroke-width:2.09301"
         d="m 231.15386,351.61635 c 0,16.97729 0,33.95458 0,50.93186 16.43375,0 32.8675,0 49.30125,0 0,-17.63845 0,-35.2769 0,-52.91536 -16.43375,0 -32.8675,0 -49.30125,0 0,0.66117 0,1.32234 0,1.9835 z" />
      <path
         style="fill:#000000;fill-opacity:1;stroke-width:2.09301"
         d="M 12.717401,372.21067 C 13.221857,252.43816 13.322816,247.87583 15.775347,234.02262 27.955995,165.21983 61.311348,106.43317 110.90666,66.359836 151.84554,33.280951 204.49129,13.723444 252.47663,13.767653 c 73.11827,0.06736 135.70328,30.285469 185.43748,89.535317 26.64559,31.74371 46.58934,74.27583 56.53744,120.57194 3.71704,17.29825 4.66078,48.55039 5.02014,166.24371 l 0.32352,105.95434 -110.06417,-2.2e-4 -110.06419,-2.1e-4 v -24.49915 -24.49914 l -23.56388,0.32369 -23.56387,0.3237 -0.32299,24.17545 -0.32297,24.17545 H 122.04443 12.195721 Z m 266.949449,3.85477 v -25.693 l -23.56388,0.3237 -23.56387,0.32371 -0.32439,23.8433 c -0.1784,13.11381 -0.061,24.52999 0.26084,25.36929 0.44742,1.16669 6.07216,1.526 23.88826,1.526 h 23.30304 z m 176.87071,-22.35943 c 0.91003,-63.05117 -0.4545,-106.22308 -3.8583,-122.07108 C 434.25605,145.8567 372.4176,80.657069 293.38759,63.685035 c -7.0921,-1.523059 -17.82715,-2.53457 -31.61736,-2.979147 -25.22479,-0.813213 -41.54633,1.508704 -64.4439,9.167852 -31.51752,10.542478 -56.17669,26.326006 -80.69244,51.64857 -28.681688,29.62563 -47.72127,66.5441 -57.605879,111.69999 l -3.665403,16.74467 v 74.70189 c 0,58.97206 0.314039,74.69934 1.491385,74.68977 1.58687,-0.0129 7.273706,-4.52299 70.393357,-55.82757 l 40.26738,-32.72993 9.9e-4,-13.31842 c 9.9e-4,-18.57925 1.97121,-37.38802 4.91978,-46.97616 7.68171,-24.9793 24.41621,-46.08816 45.16029,-56.96507 14.79482,-7.75747 21.63803,-9.45184 38.20889,-9.46048 13.1231,-0.007 16.05992,0.38316 24.4587,3.24814 25.07185,8.55243 44.86598,27.33666 55.3431,52.51945 6.18555,14.86762 7.35117,21.52624 8.25003,47.12859 l 0.83468,23.77432 54.88296,44.82576 c 30.18563,24.65417 55.19887,44.86212 55.58501,44.90655 0.38613,0.0444 1.0064,-21.00558 1.37838,-46.7778 z M 300.92349,284.88494 c -0.51397,-19.76734 -0.60054,-20.32627 -4.31853,-27.8833 -4.76242,-9.67984 -13.62032,-18.77498 -22.56618,-23.17049 -6.02769,-2.96169 -8.25646,-3.39007 -17.63753,-3.39007 -9.3092,0 -11.72578,0.45656 -18.16192,3.43132 -9.01967,4.16883 -18.31259,13.5561 -22.51711,22.74572 -3.89705,8.51755 -5.24029,17.32392 -5.24871,34.4108 l -0.007,14.02773 h 45.49069 45.49069 z"
         id="path4496" />
      <path
         id="path6644"
         style="fill:#2f2f2f;fill-opacity:1;stroke-width:2.09301"
         d="m 249.34274,60.171191 c -8.53581,0.05924 -17.14305,0.147201 -25.53262,1.907671 -25.27652,5.133351 -49.67346,14.811148 -71.35425,28.827353 -21.09894,13.591815 -39.5252,31.238245 -54.295828,51.518955 -11.371508,15.56428 -20.59545,32.65058 -27.832656,50.50454 -5.405572,13.44017 -9.052059,27.49847 -12.291292,41.59332 -1.143642,4.96452 -2.346944,9.92224 -3.453407,14.89101 -0.002,51.01115 -0.006,102.0223 -0.0097,153.03345 4.979969,-3.74572 9.952569,-7.50213 14.781182,-11.44257 24.878003,-19.96663 49.653181,-40.06129 74.376071,-60.21635 8.06925,-6.58972 16.10892,-13.21548 24.15934,-19.82822 0.40414,-11.22725 0.67606,-22.46007 1.20965,-33.68213 0.37009,-7.58542 1.09055,-15.19542 3.01417,-22.56257 4.56154,-18.58994 14.47674,-35.97065 28.77209,-48.77442 6.3862,-5.74266 13.64623,-10.49272 21.43824,-14.09634 5.82178,-2.81035 11.89987,-5.31192 18.35331,-6.16449 1.63937,-0.23802 3.23946,-0.39315 4.82715,-0.50847 1.94147,-0.13432 3.74788,-0.20042 5.71921,-0.24741 7.81138,-0.10469 15.71357,-0.22429 23.40329,1.36044 7.44834,1.5463 14.35705,4.91303 21.00327,8.51379 9.49875,5.2607 18.02385,12.30675 24.81541,20.79403 6.86543,8.5461 12.13221,18.28724 16.26136,28.41712 0.72378,1.81705 1.45798,3.89638 2.04726,5.8667 1.84246,6.10044 2.7322,12.52875 3.28701,18.79292 0.876,10.16103 1.07857,20.51571 1.48385,30.76035 0.1372,3.77957 0.27356,7.55917 0.41131,11.33871 37.47164,30.50006 74.94332,61.00008 112.4145,91.5007 0.36886,-17.59843 0.81303,-35.19541 1.13022,-52.79485 0.27121,-20.84994 0.2337,-41.70521 -0.1881,-62.55288 -0.26509,-10.28025 -0.58343,-20.56099 -1.06901,-30.83343 -0.3828,-7.90559 -1.00389,-15.83403 -2.74067,-23.57312 -6.7458,-31.42285 -19.40646,-61.70866 -38.0826,-87.92483 C 399.5609,122.28682 379.36696,103.04394 356.10607,88.627432 335.47423,75.807808 312.51415,66.780447 288.70925,61.99407 c -8.78188,-1.628958 -17.74981,-1.685487 -26.65134,-1.801991 -4.23838,-0.03422 -8.47673,-0.03128 -12.7152,-0.02089 z" />
      <path
         id="path8607"
         style="fill:#ffffff;fill-opacity:1;stroke-width:2.09301"
         d="m 254.24035,229.67547 c -4.35915,0.0248 -8.83616,0.26806 -12.8931,2.01983 -6.8753,2.75896 -13.06953,7.15831 -17.95728,12.7262 -4.07543,4.55973 -7.21537,9.87997 -9.67136,15.46464 -1.52994,3.20139 -2.61473,6.62897 -2.94763,10.17222 -0.63848,6.09062 -0.66202,12.22419 -0.9173,18.3383 -0.19559,5.81666 -0.38894,11.63338 -0.5861,17.44997 31.00008,0 62.00017,0 93.00025,0 -0.28958,-10.46398 -0.47377,-20.93182 -0.85748,-31.39245 -0.20087,-4.46122 -0.49035,-9.04971 -2.36773,-13.17406 -2.30891,-5.33524 -5.16383,-10.47091 -8.89164,-14.95201 -5.13983,-6.28 -11.69312,-11.52332 -19.28738,-14.49591 -3.76198,-1.62334 -7.88637,-2.09498 -11.94856,-2.14005 -1.55805,-0.0287 -3.11646,-0.0274 -4.67469,-0.0167 z" />
    </g>
  </g>
</svg>
