<?xml version="1.0" encoding="UTF-8" standalone="no"?>
<!-- Created with Inkscape (http://www.inkscape.org/) -->

<svg
   version="1.1"
   id="svg80"
   width="512"
   height="512"
   viewBox="0 0 512 512"
   sodipodi:docname="ciscopwdecrypt.svg"
   inkscape:version="1.1.2 (0a00cf5339, 2022-02-04)"
   xmlns:inkscape="http://www.inkscape.org/namespaces/inkscape"
   xmlns:sodipodi="http://sodipodi.sourceforge.net/DTD/sodipodi-0.dtd"
   xmlns="http://www.w3.org/2000/svg"
   xmlns:svg="http://www.w3.org/2000/svg"
   xmlns:rdf="http://www.w3.org/1999/02/22-rdf-syntax-ns#"
   xmlns:cc="http://creativecommons.org/ns#"
   xmlns:dc="http://purl.org/dc/elements/1.1/">
  <metadata
     id="metadata86">
    <rdf:RDF>
      <cc:Work
         rdf:about="">
        <dc:format>image/svg+xml</dc:format>
        <dc:type
           rdf:resource="http://purl.org/dc/dcmitype/StillImage" />
      </cc:Work>
    </rdf:RDF>
  </metadata>
  <defs
     id="defs84" />
  <sodipodi:namedview
     pagecolor="#ffffff"
     bordercolor="#666666"
     borderopacity="1"
     objecttolerance="10"
     gridtolerance="10"
     guidetolerance="10"
     inkscape:pageopacity="0"
     inkscape:pageshadow="2"
     inkscape:window-width="1366"
     inkscape:window-height="695"
     id="namedview82"
     showgrid="false"
     inkscape:zoom="0.72363279"
     inkscape:cx="279.83807"
     inkscape:cy="299.18489"
     inkscape:window-x="0"
     inkscape:window-y="24"
     inkscape:window-maximized="1"
     inkscape:current-layer="svg80"
     inkscape:pagecheckerboard="0"
     showguides="true"
     inkscape:guide-bbox="true" />
  <g
     id="g2860"
     transform="matrix(1.0194174,0,0,0.9649586,-95.931525,24.462264)">
    <path
       style="fill:#00506d;fill-opacity:1;stroke-width:2.42347"
       d="m 166.52913,243.06913 c -6.39413,-1.06104 -6.63937,-2.58387 -7.08852,-44.01741 -0.44854,-41.37721 -0.25333,-42.89286 6.05696,-47.02752 4.96638,-3.25409 9.65621,-0.81718 11.54969,6.00143 0.85326,3.07268 1.46107,20.48067 1.46558,41.97531 0.008,36.33959 -0.025,36.75478 -3.10161,39.52451 -4.06541,3.65986 -5.27463,4.1423 -8.8821,3.54368 z"
       id="path2176" />
    <path
       style="fill:#00506d;fill-opacity:1;stroke-width:2.42347"
       d="m 458.48538,269.94671 c -1.36089,-0.99512 -3.00732,-4.57083 -3.65873,-7.94602 -0.65141,-3.37521 -1.21146,-39.807 -1.24456,-80.95955 l -0.0602,-74.82282 4.00923,-4.29189 c 4.83728,-5.178334 7.46895,-5.376589 11.94562,-0.89992 l 3.39198,3.39198 v 80.92523 80.92524 l -4.49123,2.73835 c -5.29518,3.22853 -6.593,3.35178 -9.89213,0.9394 z"
       id="path1903" />
    <path
       style="fill:#00506d;fill-opacity:1;stroke-width:2.42347"
       d="m 518.79735,242.59126 c -1.72117,-0.63978 -3.74222,-2.77506 -4.49122,-4.74508 -1.72566,-4.53881 -1.81109,-76.66381 -0.0962,-81.17443 1.67355,-4.40177 8.51745,-7.30251 12.36766,-5.24194 4.80657,2.5724 5.69774,10.15854 5.7058,48.57113 0.008,36.33969 -0.0249,36.75477 -3.1016,39.52417 -4.14244,3.72875 -6.62775,4.46257 -10.38448,3.06615 z"
       id="path1942" />
    <path
       style="fill:#00506d;fill-opacity:1;stroke-width:2.42347"
       d="m 575.9811,240.9481 c -2.71167,-2.71167 -3.53113,-5.36801 -4.34923,-14.09831 -1.23497,-13.179 0.11869,-29.26204 2.80842,-33.36708 2.80334,-4.27844 7.07399,-5.30411 11.10035,-2.66594 4.73007,3.09926 5.5061,7.22552 5.3069,28.21759 -0.15265,16.08671 -0.50628,18.76472 -2.76383,20.9298 -4.55309,4.3666 -8.40666,4.6799 -12.10261,0.98394 z"
       id="path1981" />
    <path
       style="fill:#00506d;fill-opacity:1;stroke-width:2.42347"
       d="m 397.40944,239.25383 c -1.82428,-2.7842 -2.42223,-8.39245 -2.98405,-27.98761 -0.38643,-13.47813 -0.24063,-31.28355 0.32401,-39.5676 0.89992,-13.20298 1.42708,-15.46237 4.2713,-18.30659 4.08472,-4.08473 6.38802,-4.0824 11.14719,0.0113 l 3.78526,3.25595 0.61481,38.77572 c 0.60572,38.20335 0.57,38.83864 -2.42039,43.03825 -4.01725,5.64171 -11.30027,6.02745 -14.73813,0.78061 z"
       id="path2020" />
    <path
       style="fill:#00506d;fill-opacity:1;stroke-width:2.42347"
       d="m 342.60434,243.06672 c -5.07054,-1.12527 -6.54533,-7.42599 -6.54533,-27.96348 0,-18.83808 0.11149,-19.58976 3.39198,-22.87025 3.64619,-3.64619 6.36962,-4.1816 10.37268,-2.03923 4.20662,2.25131 5.58217,9.23086 5.58217,28.32378 0,17.13262 -0.18376,18.37418 -3.10931,21.00757 -3.6681,3.30178 -6.35264,4.28274 -9.69219,3.54161 z"
       id="path2059" />
    <path
       style="fill:#00506d;fill-opacity:1;stroke-width:2.42347"
       d="m 283.1979,242.41008 c -2.36018,-0.7996 -4.19524,-2.68622 -4.8367,-4.97261 -0.5685,-2.02629 -1.03363,-20.99515 -1.03363,-42.153 v -38.46883 l 3.87733,-3.33414 c 4.68053,-4.02482 6.56031,-4.14536 10.82518,-0.69413 l 3.2624,2.64002 0.40769,39.82852 c 0.28848,28.18262 -0.059,40.70048 -1.18826,42.81058 -2.24351,4.19203 -6.70528,5.90496 -11.31401,4.34359 z"
       id="path2098" />
    <path
       style="fill:#00506d;fill-opacity:1;stroke-width:2.42347"
       d="m 224.76677,270.44108 c -1.5465,-0.62687 -3.49587,-1.98663 -4.33194,-3.02173 -1.96349,-2.43086 -3.92488,-114.45931 -2.50222,-142.91837 0.94165,-18.83663 1.27398,-20.69296 4.23465,-23.65363 4.30321,-4.303208 6.55574,-4.053961 11.5535,1.27841 l 4.2094,4.49123 -0.079,69.78678 c -0.0903,79.75958 -0.61757,88.96468 -5.31332,92.76706 -3.53317,2.861 -3.75648,2.89749 -7.77104,1.27025 z"
       id="path2137" />
    <path
       style="fill:#00506d;fill-opacity:1;stroke-width:2.42347"
       d="m 107.30387,242.71058 c -6.06211,-2.25852 -6.83874,-4.96834 -7.333187,-25.58697 l -0.471585,-19.66522 4.132092,-4.62461 c 3.70087,-4.142 4.54019,-4.48108 8.04275,-3.2493 2.15087,0.75642 4.69204,2.91964 5.64706,4.80715 2.35688,4.65817 2.3801,39.49518 0.0294,44.05418 -2.03714,3.95082 -6.17474,5.70725 -10.0465,4.26477 z"
       id="path2215" />
    <path
       style="fill:#c4002c;fill-opacity:1;stroke-width:2.42347"
       d="m 132.45666,338.54862 c -0.5067,-0.5067 -0.92127,-4.85974 -0.92127,-9.67341 0,-5.07526 -0.59712,-8.75214 -1.42133,-8.75214 -0.78173,0 -5.11376,1.86394 -9.62675,4.14209 -8.13363,4.10584 -8.21877,4.11716 -9.7299,1.29358 -1.95493,-3.65281 -0.34625,-5.66009 8.53249,-10.64672 3.69326,-2.07427 6.7033,-4.08234 6.68899,-4.46236 -0.0143,-0.38003 -3.18007,-2.55655 -7.03502,-4.83671 -7.14151,-4.22413 -10.31181,-7.96382 -8.81054,-10.39293 1.5176,-2.45552 6.48795,-1.41385 13.32396,2.79239 3.70574,2.28016 7.03929,4.14575 7.4079,4.14575 0.36861,0 0.6702,-4.33116 0.6702,-9.6248 0,-8.40227 0.37338,-9.82462 2.93957,-11.198 3.73464,-1.99872 5.30116,0.13449 5.33076,7.25915 0.0116,2.80072 0.62069,6.6691 1.35345,8.5964 l 1.33228,3.50417 7.3047,-3.40071 c 8.46263,-3.93979 11.52623,-4.26024 12.65316,-1.32349 0.99138,2.5835 -2.4251,6.13766 -9.98329,10.3856 -3.15125,1.77111 -5.69967,3.57208 -5.66315,4.00216 0.0365,0.43009 3.43255,2.9133 7.54672,5.51824 7.40575,4.68906 9.70587,7.465 8.20184,9.89856 -1.31357,2.1254 -4.85436,1.41929 -12.6327,-2.51925 -8.66242,-4.38618 -10.03527,-3.5571 -10.07068,6.08179 -0.0116,3.16807 -0.39863,6.74378 -0.85997,7.94602 -0.84523,2.20263 -4.82319,2.97285 -6.53142,1.26462 z"
       id="path2254" />
    <path
       style="fill:#c4002c;fill-opacity:1;stroke-width:2.42347"
       d="m 111.5454,381.38176 c -4.53404,-0.33553 -9.04254,-1.27304 -10.0189,-2.08334 -2.240121,-1.85914 -2.321289,-11.09133 -0.11689,-13.29573 1.84485,-1.84485 55.42542,-2.27579 65.36464,-0.52572 5.29064,0.93156 5.54542,1.21475 5.94156,6.60395 0.26743,3.63813 -0.289,6.21402 -1.57241,7.27915 -2.10416,1.7463 -44.07867,3.17016 -59.598,2.02169 z"
       id="path2330" />
    <path
       style="fill:#c4002c;fill-opacity:1;stroke-width:2.42347"
       d="m 238.8098,337.35707 c -0.47677,-1.24243 -0.86685,-5.62835 -0.86685,-9.74648 0,-8.62598 -0.85133,-9.00478 -8.98245,-3.99668 -6.39274,3.93739 -11.08054,4.3831 -12.31324,1.17071 -1.11805,-2.91358 0.79285,-5.10337 8.28475,-9.49392 3.35575,-1.9666 6.10136,-4.17901 6.10136,-4.91646 0,-0.73746 -3.45756,-3.55261 -7.68347,-6.25589 -13.30778,-8.51288 -6.93035,-14.07179 7.00006,-6.10162 l 7.59299,4.34427 v -7.612 c 0,-9.01671 1.87027,-14.7015 4.83671,-14.7015 2.95475,0 4.83671,5.67585 4.83671,14.58718 v 7.49767 l 8.81281,-4.34579 c 14.52914,-7.16465 18.83533,-1.90019 5.44973,6.66247 l -7.84811,5.02038 4.14609,3.59943 c 2.28035,1.97969 5.85955,4.84316 7.95377,6.36327 2.68893,1.95178 3.53018,3.47438 2.86322,5.18219 -1.27293,3.25939 -3.64041,3.04974 -11.7041,-1.03644 -3.74974,-1.90013 -7.38752,-3.45479 -8.08396,-3.45479 -0.69644,0 -1.80537,4.19757 -2.46429,9.32794 -1.02714,7.99734 -1.61648,9.38763 -4.13146,9.74647 -1.7302,0.24687 -3.28899,-0.50803 -3.80027,-1.84041 z"
       id="path2369" />
    <path
       style="fill:#c4002c;fill-opacity:1;stroke-width:2.42347"
       d="m 219.65024,381.37374 c -12.35523,-0.64938 -14.11989,-2.24768 -12.64755,-11.45523 l 0.89134,-5.57412 h 35.06225 35.06225 v 7.51899 c 0,4.13544 -0.4835,7.8178 -1.07443,8.18302 -1.58197,0.9777 -44.86674,1.98049 -57.29386,1.32734 z"
       id="path2408" />
    <path
       style="fill:#c4002c;fill-opacity:1;stroke-width:2.42347"
       d="m 345.04147,329.79648 c -0.5343,-5.32037 -1.59403,-9.67341 -2.35494,-9.67341 -0.76091,0 -4.42477,1.70959 -8.1419,3.7991 -5.36756,3.01725 -7.25804,3.48394 -9.18612,2.26774 -3.98415,-2.51313 -2.81566,-5.08285 4.48188,-9.85654 3.80027,-2.48594 7.10251,-5.09461 7.33831,-5.79704 0.23581,-0.70243 -3.07089,-3.51583 -7.34821,-6.252 -5.29725,-3.38861 -7.63259,-5.73243 -7.3242,-7.35079 0.72995,-3.83057 5.48513,-3.47721 13.9429,1.0361 l 7.90132,4.21639 v -3.96681 c 0,-8.52623 1.84622,-17.05472 3.85917,-17.82716 3.53237,-1.3555 5.81425,3.76526 5.81425,13.04777 0,4.79508 0.32426,8.71833 0.72058,8.71833 0.39633,0 3.1606,-1.61472 6.14282,-3.58827 6.37543,-4.21905 14.21929,-5.15907 14.91577,-1.78752 0.30106,1.45741 -2.41821,4.07895 -7.88388,7.60054 -4.5889,2.95668 -8.34826,5.68672 -8.35414,6.06675 -0.006,0.38002 3.01108,2.38809 6.70433,4.46236 7.92885,4.45314 10.46909,7.17171 9.37219,10.03016 -1.13184,2.94954 -4.10042,2.61046 -11.94426,-1.36432 -3.74973,-1.90013 -7.46024,-3.45479 -8.24556,-3.45479 -0.78532,0 -1.43634,2.95385 -1.44672,6.5641 -0.0281,9.76705 -1.16963,12.78273 -4.83876,12.78273 -2.89037,0 -3.23439,-0.80678 -4.12483,-9.67342 z"
       id="path2447" />
    <path
       style="fill:#c4002c;fill-opacity:1;stroke-width:2.42347"
       d="m 325.69464,381.01945 -11.05533,-0.78302 -0.41444,-7.94602 -0.41444,-7.94602 h 35.24521 35.24521 l 0.90567,4.82763 c 0.49811,2.65519 0.53847,6.29066 0.0897,8.07881 -0.77858,3.10212 -1.53002,3.29233 -16.38961,4.14855 -16.56747,0.95463 -25.47546,0.87631 -43.21194,-0.37993 z"
       id="path2486" />
    <path
       style="fill:#c4002c;fill-opacity:1;stroke-width:2.42347"
       d="m 453.73361,339.12884 c -0.87649,-0.87649 -1.59362,-5.21994 -1.59362,-9.65211 0,-9.89981 -1.6887,-10.91009 -10.04792,-6.01127 -6.42179,3.76343 -11.28944,4.5545 -12.81693,2.08298 -1.19894,-1.93994 4.21362,-7.62663 10.76197,-11.307 2.85631,-1.60534 5.1933,-3.29208 5.1933,-3.7483 0,-0.45622 -2.02106,-1.98439 -4.49123,-3.39592 -6.74743,-3.85568 -11.97533,-9.16219 -11.14871,-11.31635 1.09394,-2.85076 5.23151,-2.33323 13.05945,1.63349 3.85058,1.95124 7.32776,3.221 7.72706,2.8217 0.3993,-0.39931 1.14482,-4.77235 1.6567,-9.71788 1.05684,-10.21071 1.65368,-11.28406 5.18485,-9.32447 1.76782,0.98104 2.93525,4.11176 3.90392,10.46918 l 1.38191,9.06961 6.90958,-3.3897 c 9.06755,-4.44837 13.47635,-4.57394 12.87884,-0.36683 -0.38198,2.6896 -8.76262,9.6384 -15.26477,12.65676 -1.2217,0.56713 -1.28896,1.0443 -0.21996,1.56053 5.31128,2.56484 14.56277,9.25256 15.23963,11.01641 0.44202,1.15189 0.0533,2.99844 -0.86373,4.10344 -1.43502,1.7291 -2.79923,1.43776 -9.78861,-2.09047 -4.46666,-2.25476 -8.7608,-4.09957 -9.54253,-4.09957 -0.82725,0 -1.42132,3.73409 -1.42132,8.93384 0,7.27247 -0.4746,9.18783 -2.55213,10.29969 -1.75591,0.93973 -3.04931,0.86867 -4.14575,-0.22776 z"
       id="path2525" />
    <path
       style="fill:#c4002c;fill-opacity:1;stroke-width:2.42347"
       d="m 430.76808,381.38176 c -10.03607,-0.7427 -11.79408,-2.05142 -11.79408,-8.77989 0,-4.6162 0.5058,-5.3996 4.35196,-6.74037 6.26192,-2.18292 65.03061,-2.0595 67.2313,0.14119 2.27171,2.27171 2.09388,11.46096 -0.25959,13.41417 -2.03525,1.6891 -44.37276,3.08654 -59.52959,1.9649 z"
       id="path2564" />
    <path
       style="fill:#c4002c;fill-opacity:1;stroke-width:2.42347"
       d="m 528.50439,381.38905 c -6.84331,-0.47046 -8.92911,-1.16395 -10.10409,-3.35942 -2.3586,-4.40708 -1.03698,-9.95615 2.83551,-11.90545 4.15785,-2.09294 64.44985,-2.49071 67.68249,-0.44652 2.38799,1.51006 2.80553,11.64647 0.57175,13.88024 -1.56042,1.56042 -45.66212,2.88461 -60.98566,1.83115 z"
       id="path2603" />
    <path
       style="fill:#c4002c;fill-opacity:1;stroke-width:2.42347"
       d="m 551.68659,338.17883 c -0.7868,-1.47014 -1.43054,-6.13411 -1.43054,-10.36437 0,-4.37129 -0.61635,-7.69139 -1.42785,-7.69139 -0.78533,0 -4.49583,1.55466 -8.24556,3.45479 -8.79036,4.45441 -12.78754,4.56772 -12.18788,0.34548 0.27332,-1.9245 3.0745,-4.86888 7.35117,-7.72698 3.80027,-2.53972 6.90958,-5.12573 6.90958,-5.7467 0,-0.62098 -3.10329,-3.20699 -6.89619,-5.74671 -12.2291,-8.18856 -8.98759,-13.73067 4.46975,-7.64209 4.29909,1.94507 8.31389,3.2291 8.92176,2.85342 0.60787,-0.37569 1.10522,-3.94775 1.10522,-7.93793 0,-4.33723 0.834,-8.33364 2.0738,-9.93733 2.03509,-2.63243 2.12535,-2.6216 4.8367,0.57992 1.91204,2.2577 2.76292,5.27224 2.76292,9.78858 0,3.58939 0.38667,6.91284 0.85927,7.38543 0.47259,0.4726 3.87216,-0.66748 7.55459,-2.53351 15.74146,-7.9768 17.99712,0.0191 2.50191,8.86874 -7.57179,4.32443 -7.62811,4.14483 3.24887,10.36039 6.65684,3.804 8.3169,7.36905 4.79316,10.2935 -1.29907,1.07813 -3.75135,0.38677 -9.20325,-2.59462 -4.08776,-2.23541 -7.88236,-4.06438 -8.43244,-4.06438 -0.55008,0 -1.26023,4.08468 -1.57812,9.07706 -0.37597,5.90447 -1.2775,9.51961 -2.57934,10.34321 -2.91485,1.84407 -3.81143,1.61783 -5.40753,-1.36451 z"
       id="path2642" />
  </g>
</svg>
