<?xml version="1.0" encoding="UTF-8" standalone="no"?>
<!-- Created with Inkscape (http://www.inkscape.org/) -->

<svg
   version="1.1"
   id="svg870"
   width="512"
   height="512"
   viewBox="0 0 512 512"
   sodipodi:docname="cloudsploit.svg"
   inkscape:version="1.1.2 (0a00cf5339, 2022-02-04)"
   xmlns:inkscape="http://www.inkscape.org/namespaces/inkscape"
   xmlns:sodipodi="http://sodipodi.sourceforge.net/DTD/sodipodi-0.dtd"
   xmlns="http://www.w3.org/2000/svg"
   xmlns:svg="http://www.w3.org/2000/svg">
  <defs
     id="defs874" />
  <sodipodi:namedview
     id="namedview872"
     pagecolor="#505050"
     bordercolor="#eeeeee"
     borderopacity="1"
     inkscape:pageshadow="0"
     inkscape:pageopacity="0"
     inkscape:pagecheckerboard="0"
     showgrid="false"
     inkscape:zoom="0.63810184"
     inkscape:cx="142.61046"
     inkscape:cy="281.30306"
     inkscape:window-width="1366"
     inkscape:window-height="695"
     inkscape:window-x="0"
     inkscape:window-y="24"
     inkscape:window-maximized="1"
     inkscape:current-layer="g876" />
  <g
     inkscape:groupmode="layer"
     inkscape:label="Image"
     id="g876">
    <g
       id="g1066"
       transform="matrix(4.11164,0,0,4.1155107,-33.761685,-29.720826)">
      <path
         style="fill:#fec802"
         d="M 12.5,43.277121 C 14.841912,40.998723 47.767552,13.207083 50.535313,11.172545 53.395412,9.0701299 54.552766,8.9415939 70.584824,8.9458431 84.756253,8.9495991 101.52994,10.19661 102.66405,11.330718 102.86826,11.534931 23.056264,40.381119 12.620117,43.875 11.876776,44.123861 11.836372,43.922751 12.5,43.277121 Z"
         id="path1080" />
      <path
         style="fill:#fe445f"
         d="M 10.460685,29.531632 C 9.4787742,21.672682 10.36736,19.162593 14.785591,17.314578 19.321374,15.417394 37.05172,10.850573 38.285249,11.26175 39.048594,11.516198 15.63971,32.301085 12.323643,34.313214 11.504441,34.810291 10.938828,33.358555 10.460685,29.531632 Z"
         id="path1076" />
      <path
         style="fill:#07b0d4"
         d="M 26.527494,85.643365 C 27.612372,84.897215 50.305915,69.084812 76.957589,50.504691 124.16515,17.594106 125.48076,16.75931 127.95759,18.14366 c 2.08864,1.167386 2.59774,2.285707 2.85239,6.265823 0.4042,6.317235 -2.58472,26.77291 -4.11918,28.191052 C 125.57708,53.62983 27.351251,87 25.435218,87 c -0.484127,0 0.0074,-0.610486 1.092276,-1.356635 z M 18.161022,68.795724 C 16.39958,63.133076 14.855261,56.704568 14.7292,54.510152 L 14.5,50.520303 65.480958,32.324443 C 93.520485,22.31672 116.52857,14.212152 116.61003,14.314292 c 0.39128,0.490593 -92.072704,64.2243 -93.548778,64.481432 -1.348255,0.234867 -2.356681,-1.823048 -4.90023,-10 z"
         id="path1074" />
      <path
         style="fill:#1803d9"
         d="m 66,129.2986 c -2.482737,-0.8996 -12.142545,-6.48939 -11.802335,-6.8296 0.173979,-0.17398 9.236468,-2.37609 20.138864,-4.89357 10.902395,-2.51749 21.024247,-4.86285 22.493004,-5.21192 L 99.5,111.72883 l -3,3.24059 c -3.380062,3.65112 -11.897124,9.67982 -18.210162,12.88983 -4.004464,2.03616 -9.021201,2.6237 -12.289838,1.43935 z m -19.626932,-13.005 c 1.349569,-1.34957 75.019482,-44.234381 75.375942,-43.877925 1.26417,1.264171 -12.75652,29.282695 -15.08367,30.142745 -2.05954,0.76116 -60.670378,14.11329 -60.292272,13.73518 z M 36.035645,104.92588 c -4.067796,-5.146149 -7.50294,-10.84571 -6.859381,-11.381027 0.755225,-0.6282 91.223216,-30.478704 91.508196,-30.193726 0.4362,0.436203 -76.657453,45.829053 -78.774927,46.382783 -1.168419,0.30555 -3.047903,-1.23289 -5.873888,-4.80803 z"
         id="path1072" />
    </g>
  </g>
</svg>
