<?xml version="1.0" encoding="UTF-8" standalone="no"?>
<!-- Created with Inkscape (http://www.inkscape.org/) -->

<svg
   version="1.1"
   id="svg64"
   width="512"
   height="512"
   viewBox="0 0 512 512"
   sodipodi:docname="cminer.svg"
   inkscape:version="1.2.2 (b0a8486541, 2022-12-01)"
   xmlns:inkscape="http://www.inkscape.org/namespaces/inkscape"
   xmlns:sodipodi="http://sodipodi.sourceforge.net/DTD/sodipodi-0.dtd"
   xmlns="http://www.w3.org/2000/svg"
   xmlns:svg="http://www.w3.org/2000/svg"
   xmlns:rdf="http://www.w3.org/1999/02/22-rdf-syntax-ns#"
   xmlns:cc="http://creativecommons.org/ns#"
   xmlns:dc="http://purl.org/dc/elements/1.1/">
  <metadata
     id="metadata70">
    <rdf:RDF>
      <cc:Work
         rdf:about="">
        <dc:format>image/svg+xml</dc:format>
        <dc:type
           rdf:resource="http://purl.org/dc/dcmitype/StillImage" />
      </cc:Work>
    </rdf:RDF>
  </metadata>
  <defs
     id="defs68" />
  <sodipodi:namedview
     pagecolor="#9a9a9a"
     bordercolor="#666666"
     borderopacity="1"
     objecttolerance="10"
     gridtolerance="10"
     guidetolerance="10"
     inkscape:pageopacity="0"
     inkscape:pageshadow="2"
     inkscape:window-width="1366"
     inkscape:window-height="695"
     id="namedview66"
     showgrid="false"
     inkscape:zoom="0.55741076"
     inkscape:cx="348.03778"
     inkscape:cy="262.82234"
     inkscape:window-x="0"
     inkscape:window-y="24"
     inkscape:window-maximized="1"
     inkscape:current-layer="svg64"
     inkscape:pagecheckerboard="0"
     inkscape:showpageshadow="0"
     inkscape:deskcolor="#9a9a9a" />
  <g
     id="g1310"
     transform="matrix(0.92377752,0,0,0.93098988,18.593686,17.663027)">
    <path
       id="path19366-6"
       style="fill:#ffffff;fill-opacity:1;stroke-width:0.806585"
       d="m 257.41992,-12.519531 c -2.37745,-0.01741 -4.75534,-0.0016 -7.13281,0.002 -6.52296,0.0038 -13.31531,1.003268 -18.90234,4.5859374 -4.6507,2.9934403 -8.22027,7.53868808 -10.27344,12.6542968 -8.6876,2.3598717 -17.26424,5.3229988 -25.1875,9.6445318 -7.52455,4.040253 -14.68704,8.827249 -21.04492,14.544921 -5.47413,4.943175 -10.15344,10.721908 -14.06055,16.96875 -5.69577,8.944459 -10.15496,18.641569 -13.66211,28.636719 -2.67188,7.904373 -4.57358,16.075068 -5.56641,24.361328 -1.53066,2.011777 -3.0943,3.998127 -4.66992,5.974617 -3.45221,4.48381 -6.32128,9.64248 -7.01367,15.33984 -0.47895,3.43474 -0.29365,6.95065 0.45117,10.33398 -3.98189,5.72681 -5.88153,13.1569 -4.07422,20.00196 1.38793,5.7367 5.03596,10.53529 8.6543,15.06054 0.35505,0.59727 1.15343,1.00307 1.02148,1.7793 0.17641,5.42613 1.60617,10.98202 5.0293,15.29492 0.36386,0.54087 0.93398,0.9738 1.23047,1.53321 0.78718,8.30498 1.23984,16.61471 1.80078,24.94921 0.95349,15.14789 1.7065,30.31639 3.29883,45.41407 1.12468,9.58813 3.3815,19.15167 7.75391,27.80859 3.25189,6.84088 6.90035,13.48134 10.39062,20.20117 -1.16566,6.14897 -2.21772,12.3255 -3.4668,18.46094 -0.44006,2.14734 -0.94383,4.47741 -1.45117,6.68555 -0.21834,0.93961 -0.44322,1.87865 -0.67773,2.81445 -4.92278,2.87542 -8.54605,7.58818 -10.79688,12.76563 -1.19122,2.41678 -2.20631,4.94576 -3.21875,7.42187 -5.28765,-2.56393 -11.59656,-2.84249 -17.10742,-0.81836 -5.74521,1.99404 -11.35907,4.34827 -16.96875,6.69141 -7.85335,3.29579 -15.596469,6.85386 -23.183593,10.72461 -4.511467,2.28276 -9.008649,4.59119 -13.509766,6.89453 0.478572,4.88722 0.954238,9.77476 1.431641,14.66211 -12.372321,6.01142 -24.886658,11.76654 -36.884766,18.50976 -7.376128,4.34688 -14.018395,9.87158 -19.871094,16.10742 -9.124026,9.37806 -17.0755473,19.99186 -22.8769526,31.7461 -4.4930839,9.49168 -6.8631853,19.80613 -8.7871094,30.07812 -1.200959,6.87926 -1.463564,13.881 -1.335938,20.85157 -0.0046,6.12494 -0.237248,12.24683 -0.390624,18.36914 H 527.62305 c -1.33813,-10.47683 -2.35149,-20.99164 -3.49219,-31.49024 -1.05739,-8.73425 -3.03694,-17.34834 -5.84961,-25.68359 -3.26022,-9.8558 -7.45019,-19.48839 -13.28711,-28.10742 -6.06867,-8.7082 -13.6916,-16.16784 -21.35937,-23.44922 -6.24156,-5.63042 -13.62228,-9.78594 -21.11915,-13.49414 -9.45143,-4.82591 -19.03523,-9.38424 -28.5332,-14.11719 -0.15038,-5.59925 -1.93419,-11.264 -5.63476,-15.54297 -3.37821,-4.08405 -8.07196,-6.79875 -12.88868,-8.85156 -8.0253,-3.70774 -16.15245,-7.19196 -24.28906,-10.64649 -4.45287,-1.83697 -8.91607,-3.69872 -13.53906,-5.0664 -4.02505,-0.99867 -8.45368,-0.94762 -12.23633,0.89453 -1.55295,-4.27207 -3.10623,-8.57973 -5.32031,-12.5625 -2.27697,-3.92455 -5.54669,-7.35256 -9.61914,-9.41992 -1.81857,-8.1195 -3.21481,-16.20389 -4.63477,-24.38282 -0.15252,-0.63135 -0.28045,-1.25762 0.21094,-1.77539 5.04434,-8.8027 10.22162,-17.59641 13.9375,-27.06445 3.41994,-9.7496 4.0129,-20.15382 4.92383,-30.35937 1.60731,-19.62158 2.53262,-39.27411 4.21484,-58.87891 3.3677,-3.78205 5.16101,-8.77765 5.5,-13.79102 0.23452,-1.13201 0.31619,-2.3342 0.70508,-3.41406 1.98025,-2.40259 3.85288,-4.89631 5.67773,-7.41797 3.27732,-4.82197 5.55528,-10.64126 4.96289,-16.55468 -0.40572,-4.60603 -2.3253,-8.99347 -5.08398,-12.67188 1.8776,-8.10402 0.0288,-16.97625 -4.95703,-23.64062 -1.64239,-2.23421 -3.60737,-4.23316 -5.83008,-5.89258 -0.83162,-6.959596 -2.17629,-13.865167 -4.21875,-20.574225 -3.56508,-12.71751 -8.34669,-25.304243 -16.0625,-36.125 C 338.52757,28.376595 322.16525,15.95877 303.68359,9.3398438 299.3344,7.6819777 294.9297,6.149094 290.42578,4.9648438 287.86025,-1.4933588 282.82326,-7.0735375 276.33789,-9.7285156 270.39145,-12.292812 263.80185,-12.548885 257.41992,-12.519531 Z M 406.86719,441.99414 c 0.27992,-0.0868 0.58732,-0.0951 0.89648,0.002 0.69044,0.16066 0.96327,0.90573 1.19727,1.47461 0.16692,0.87628 -0.55853,2.08575 -1.54688,1.75977 -0.66335,-0.1708 -1.48783,-0.30791 -1.63086,-1.11328 -0.34862,-0.90092 0.24423,-1.86274 1.08399,-2.12305 z M 379.65234,460.125 c 0.28801,-0.0522 0.57368,0.45976 0.13868,0.42773 -0.27841,0.14852 -0.66739,-0.17691 -0.37891,-0.4082 0.0765,-0.0271 0.16026,-0.031 0.24023,-0.0195 z" />
    <g
       id="g432">
      <path
         id="path19366"
         style="fill:#d9d9d9;fill-opacity:1;stroke-width:0.806585"
         d="m 267.4043,79.341797 c -2.11378,0.229766 -3.36208,2.29777 -3.94219,4.150577 -2.41325,7.126792 -4.44105,14.377172 -6.52242,21.606316 -1.43663,5.16747 -2.97485,10.3155 -4.1067,15.56009 -0.47049,1.63365 0.73733,3.37218 2.37184,3.67243 1.52898,0.41347 3.36027,0.0888 4.31368,-1.27565 1.56375,-2.25892 2.18879,-4.99166 3.07991,-7.55347 2.79261,-9.01207 5.34165,-18.103202 7.55392,-27.275528 0.446,-2.286016 1.36351,-4.762553 0.31556,-7.022204 -0.53802,-1.167842 -1.75218,-2.00301 -3.0636,-1.862561 z" />
      <path
         id="path4068"
         style="fill:#d03000;fill-opacity:1;stroke-width:2.28137"
         d="m 236.84766,440.61133 c -24.20961,0.0819 -48.42065,0.13074 -72.62756,0.52977 -3.51598,0.10652 -7.04594,0.0679 -10.54822,0.41359 -0.62568,0.12846 -1.30719,0.34868 -1.54297,1.00586 -0.66799,1.2757 -0.36685,2.79801 -0.371,4.18402 0.52099,8.31157 1.58239,16.57965 2.7261,24.825 0.55093,3.81248 1.14785,7.62029 1.91833,11.39527 -14.59635,0 -29.1927,0 -43.78906,0 -1.96627,-11.99126 -3.70112,-24.02457 -6.05503,-35.94765 -0.32289,-1.37521 -0.44996,-3.17964 -1.92934,-3.82969 -1.43342,-0.69692 -2.9581,0.33145 -3.83985,1.43945 -2.673512,3.2872 -4.684353,7.04489 -6.863199,10.6624 -2.479016,4.25196 -4.959464,8.50309 -7.43758,12.75557 0,11.0905 0,22.18099 0,33.27149 112.888019,0 225.776039,0 338.664059,0 0,-10.80013 0,-21.60026 0,-32.40039 -4.10123,-6.94468 -7.99442,-14.01626 -12.3385,-20.81397 -1.19954,-1.74422 -2.24102,-3.65161 -3.79822,-5.10986 -0.47812,-0.34256 -1.14958,-0.60799 -1.71398,-0.50075 -0.88282,0.23642 -1.52947,0.92617 -1.8035,1.78776 -1.05435,3.13732 -1.58455,6.42243 -2.24021,9.65954 -1.49439,8.05594 -2.64775,16.10092 -4.11201,24.14398 -0.25658,1.34746 -0.47541,2.70335 -0.7924,4.03837 -1.73986,0.58763 -3.61848,0.53195 -5.43164,0.66797 -0.57828,0.0196 -1.52582,0.0578 -2.14564,0.0689 -8.70737,0.15446 -17.41791,0.12917 -26.12585,0.0327 -2.66163,-0.059 -5.32699,-0.10351 -8.02734,-0.37109 -0.41929,-0.18993 -1.51403,0.0968 -1.40897,-0.52676 1.15207,-10.0783 2.90548,-20.16128 4.00712,-30.28264 0.24013,-2.71667 0.64569,-5.44532 0.48981,-8.17634 -0.0638,-0.65772 -0.35255,-1.40396 -0.88346,-1.7817 -1.42907,-0.67175 -3.0689,-0.44756 -4.60236,-0.57711 -11.35036,-0.33451 -22.7078,-0.35396 -34.06221,-0.44747 -27.77138,-0.16584 -55.54359,-0.16883 -83.31532,-0.11618 z" />
      <path
         id="path6401"
         style="fill:#d03000;fill-opacity:1;stroke-width:2.28137"
         d="m 378.29297,374.68164 c -1.54714,-0.0218 -3.5106,0.64742 -3.80583,2.37011 -1.0193,7.13573 -2.22765,14.24463 -3.35548,21.36431 -4.06289,25.07254 -8.13336,50.13493 -12.37892,75.18044 -0.45163,2.94744 -1.21501,5.83166 -1.86993,8.73748 6.56267,-0.46313 13.21577,-0.96138 19.6836,-1.375 3.07139,-0.16854 6.14253,-0.34483 9.21679,-0.45312 2.34347,-0.0894 4.87431,-0.0604 7.29024,-0.0644 0.92343,0 1.84687,0 2.77031,0 3.20411,-19.04898 6.48828,-38.0851 9.62088,-57.14561 1.63137,-10.29105 3.31721,-20.58004 4.46641,-30.93835 0.0788,-1.57033 0.47437,-3.20472 -0.003,-4.74222 -0.67682,-1.20547 -2.11729,-1.63378 -3.27303,-2.25516 -6.63073,-3.05762 -13.44424,-5.70467 -20.28449,-8.25307 -2.51033,-0.86309 -4.98924,-1.90108 -7.60445,-2.39847 -0.15752,-0.0129 -0.31434,-0.0445 -0.47279,-0.0269 z m 1.89453,77.89844 c 2.7359,0.0797 5.19374,2.00498 6.13174,4.54305 0.53601,1.51478 0.96871,3.11042 1.01865,4.72257 -0.17614,1.28076 -1.40475,2.0485 -2.23047,2.92383 -1.50953,1.29802 -2.93204,2.83514 -4.82422,3.56445 -1.43394,0.34695 -2.73793,-0.6552 -3.93039,-1.3059 -1.9886,-1.29816 -3.95613,-3.15737 -4.32239,-5.61223 -0.24279,-3.16763 1.30772,-6.5413 4.22888,-7.97916 1.20319,-0.62446 2.57396,-0.92378 3.9282,-0.85661 z" />
      <path
         id="path6440"
         style="fill:#d03000;fill-opacity:1;stroke-width:2.28137"
         d="m 132.65625,375.2207 c -3.12938,0.23359 -6.11439,1.32724 -9.07737,2.2909 -5.72248,2.00988 -11.34799,4.30705 -16.84575,6.86672 -2.24336,1.13757 -4.79806,2.45452 -5.70188,4.97324 -0.63415,1.86255 0.0681,3.81309 0.225,5.69663 2.62975,17.62307 5.50981,35.20843 8.37497,52.79499 1.64387,9.77327 3.16475,19.56902 5.02816,29.30323 0.31373,1.53316 0.62808,3.0662 0.94023,4.59968 8.45404,-0.0373 16.9102,0.088 25.36269,-0.0927 3.26153,-0.13587 6.55527,-0.12974 9.77561,-0.70988 0.88122,-0.16858 1.72309,-0.71166 1.96752,-1.61061 0.18681,-0.84009 -0.0876,-1.75919 -0.13316,-2.62393 -1.48573,-10.88162 -3.30809,-21.71545 -5.04905,-32.55792 -3.28538,-19.94617 -6.58156,-39.89225 -10.20236,-59.78007 -0.50964,-2.53809 -0.86305,-5.12308 -1.59307,-7.60743 -0.40618,-1.2204 -1.91156,-1.60731 -3.07154,-1.54286 z m -1.4707,77.82422 c 2.99726,-0.0781 6.15552,1.54795 7.26835,4.43763 1.21628,2.83994 0.10724,6.21741 -2.11976,8.22812 -1.45855,1.25589 -3.08505,2.72886 -5.1232,2.74636 -2.00108,-0.15428 -3.62633,-1.53191 -5.10156,-2.76758 -1.36788,-1.12034 -1.86938,-2.91126 -1.87485,-4.61805 -0.0467,-2.2028 -0.0245,-4.71486 1.54281,-6.44445 1.40712,-1.38669 3.53705,-1.55594 5.40821,-1.58203 z" />
      <path
         style="fill:#d54a02;fill-opacity:1;stroke-width:2.28137"
         d="m 237.90619,36.829892 c 0.5081,-30.0908257 0.0784,-29.362456 17.32345,-29.362456 17.51505,0 17.58817,0.088775 18.43396,22.381703 0.3687,9.718455 0.25484,20.456873 -0.25302,23.863152 -0.83414,5.594513 -1.19605,6.108877 -3.74368,5.320664 -6.68582,-2.068539 -21.05038,-2.223751 -26.57212,-0.287117 l -5.59178,1.961196 z"
         id="path16738" />
      <path
         style="fill:#2f2f2f;fill-opacity:1;stroke-width:2.28137"
         d="m 6.7684262,498.74854 c 0,-7.35543 2.98127,-21.67649 6.4581778,-31.02301 3.689735,-9.91864 13.444021,-23.4837 24.190963,-33.64181 7.907519,-7.47427 12.018692,-9.95027 34.659724,-20.8742 l 25.688025,-12.39405 -0.725778,-7.49041 -0.725778,-7.49041 6.19206,-3.15587 c 7.77845,-3.9644 30.72989,-13.60135 33.58828,-14.1032 1.59616,-0.28023 2.49686,1.19947 3.53548,5.80823 l 1.39368,6.18425 6.7351,-3.15388 6.73509,-3.15389 11.05312,4.36433 c 29.44495,11.62633 55.54223,16.56452 88.32858,16.71373 33.37171,0.15188 58.08553,-4.41103 90.95427,-16.79289 l 12.10601,-4.5604 5.34585,2.743 c 2.94022,1.50865 6.08224,2.45879 6.98226,2.11142 0.90002,-0.34736 2.01776,-3.03022 2.48387,-5.9619 0.4661,-2.93169 1.07103,-5.33035 1.34427,-5.33035 1.44415,0 35.34322,14.60956 38.07256,16.40822 2.90883,1.91694 3.15401,2.77789 2.62344,9.21277 l -0.58526,7.09822 26.55312,13.03978 c 26.25888,12.89527 26.67696,13.16593 37.72827,24.42546 8.56952,8.73096 12.30743,13.73659 16.03132,21.46839 5.66186,11.75558 9.69919,25.53079 10.8799,37.12176 l 0.83654,8.21229 H 256 6.7684262 Z m 67.2525318,0.71844 c 1.424013,-0.90767 0.825154,-5.3009 -3.242872,-23.78964 l -4.989419,-22.67639 -0.355896,22.7345 c -0.366512,23.4125 -0.08426,24.84479 4.895915,24.84479 1.070147,0 2.73167,-0.50097 3.692272,-1.11326 z M 424.45014,484.56856 v -16.05164 l -7.81986,-13.30269 c -4.30092,-7.31648 -8.37582,-13.30269 -9.05533,-13.30269 -1.56675,0 -2.0466,2.01401 -5.59522,23.48346 l -2.91113,17.6126 -22.33223,0.35697 c -12.28273,0.19633 -22.33679,-0.0972 -22.34237,-0.65232 -0.005,-0.55511 1.26817,-9.65975 2.83052,-20.23252 1.56237,-10.57278 2.39416,-19.67263 1.84845,-20.22188 -1.20736,-1.21518 -190.61958,-2.14555 -200.21392,-0.98343 -6.48191,0.78513 -6.81003,1.00935 -6.81003,4.6535 0,3.72654 3.16429,26.94816 4.65266,34.14425 l 0.74206,3.58775 h -22.59693 -22.59694 l -3.3717,-20.36147 c -1.85444,-11.19882 -3.65956,-20.65099 -4.01137,-21.00484 -1.36766,-1.37555 -3.67723,1.53017 -10.544991,13.26686 l -7.130197,12.18518 v 16.43728 16.43727 H 255.82087 424.45014 Z m 19.54249,14.7011 c 2.32463,-1.25128 2.50902,-2.92913 2.50902,-22.83114 0,-11.81434 -0.44001,-21.48061 -0.97779,-21.48061 -1.40024,0 -9.85411,41.28407 -8.94291,43.67229 0.88117,2.30958 3.83542,2.56447 7.41168,0.63946 z M 152.04902,478.96462 c 0,-2.77873 -15.40176,-98.3835 -16.32029,-101.30645 -1.06129,-3.37723 -3.77704,-2.88743 -20.38575,3.67668 -14.55765,5.75349 -15.05839,6.08091 -14.46527,9.45862 1.41296,8.0465 14.85116,89.2329 14.85116,89.72277 0,0.29392 8.17203,0.53441 18.16007,0.53441 15.77694,0 18.16008,-0.27375 18.16008,-2.08603 z m 235.48713,0.78922 7.83763,-0.008 7.44066,-44.68381 c 4.09236,-24.57611 7.4241,-45.43221 7.40386,-46.34691 -0.0202,-0.91469 -1.64202,-2.30332 -3.60396,-3.08583 -23.7982,-9.49181 -29.54819,-11.30527 -30.4884,-9.61551 -0.54104,0.97237 -4.48972,23.38893 -8.77487,49.81457 -4.28514,26.42565 -8.14215,49.75329 -8.57112,51.83921 l -0.77997,3.79259 10.84928,-0.84934 c 5.96709,-0.46713 14.37619,-0.85285 18.68689,-0.85714 z"
         id="path6479" />
      <path
         style="fill:#2f2f2f;fill-opacity:1;stroke-width:2.28137"
         d="m 227.28362,387.61593 c -18.08169,-3.42944 -26.13415,-5.33726 -38.90875,-9.21835 -17.14235,-5.20808 -27.24581,-9.32487 -27.24581,-11.1017 0,-0.67907 1.75435,-5.47313 3.89854,-10.65347 3.48479,-8.41917 4.26876,-9.4134 7.38679,-9.36793 3.11182,0.0455 3.72374,-0.72342 5.67064,-7.12462 1.20032,-3.94653 3.55235,-14.7334 5.22672,-23.97081 l 3.04433,-16.79531 -8.67286,-16.55634 c -10.2707,-19.6066 -10.38564,-20.19447 -13.28083,-67.92268 -2.4704,-40.72554 -2.72823,-42.60533 -5.96018,-43.45538 -1.88542,-0.49591 -2.50174,-1.81302 -2.50174,-5.34637 v -4.68837 h 100.04255 100.04254 l -0.81071,4.07698 c -0.4459,2.24236 -0.81072,4.5907 -0.81072,5.21856 0,0.62785 -0.8075,1.14156 -1.79443,1.14156 -2.70499,0 -3.16987,3.22731 -5.35594,37.18214 -3.21944,50.00584 -3.74963,53.97221 -8.48173,63.45273 -2.2792,4.56627 -6.37777,12.11837 -9.1079,16.78245 l -4.96387,8.48013 2.49057,14.58999 c 1.36981,8.02449 3.57965,18.88559 4.91073,24.13579 2.42768,9.57548 3.21452,10.37607 8.17454,8.3174 1.67984,-0.69723 2.91987,1.45908 6.36458,11.06738 3.3846,9.44064 3.92253,12.15444 2.57526,12.99192 -3.80378,2.36443 -37.93123,13.06683 -49.99512,15.67852 -10.3653,2.24395 -18.42622,2.8857 -40.80565,3.2486 -15.33878,0.24873 -29.34798,0.17545 -31.13155,-0.16282 z m 65.41111,-25.28068 c 14.83051,-3.18307 34.39012,-10.38644 36.24843,-13.34948 1.49371,-2.38169 -6.80658,-42.96296 -8.91346,-43.57917 -0.71342,-0.20868 -2.75644,1.55096 -4.54001,3.91029 -1.78359,2.35933 -6.58549,7.99835 -10.67092,12.53116 l -7.42806,8.24147 -20.46063,5.05433 -20.46063,5.05433 -21.27352,-4.91655 -21.27351,-4.91655 -11.04032,-12.72021 c -6.07218,-6.99612 -11.45386,-12.72021 -11.95929,-12.72021 -0.50543,0 -1.62127,3.6693 -2.47963,8.15398 -0.85837,4.48469 -2.97732,13.8377 -4.70879,20.78446 -4.18835,16.80399 -4.12288,17.75199 1.38582,20.06698 6.7885,2.85277 26.01225,8.22484 36.99781,10.33899 14.46287,2.78336 53.59408,1.71115 70.57671,-1.93382 z M 255.1723,291.67754 c 2.85373,0.0612 11.02576,0.2781 18.16008,0.48212 11.5584,0.33054 13.67802,0.0235 19.45722,-2.81825 3.77207,-1.85483 10.66518,-7.46995 16.47474,-13.4203 8.37935,-8.58245 11.13251,-12.5885 17.08533,-24.86049 11.63347,-23.98288 16.69984,-41.85218 18.11136,-63.87944 l 0.56432,-8.8063 h -89.49156 -89.49155 l 0.8838,12.06789 c 3.23122,44.12095 29.17436,90.82256 56.07437,100.94241 3.61487,1.35992 7.87593,1.63182 15.95753,1.01825 6.06417,-0.46039 13.36063,-0.78704 16.21436,-0.72589 z"
         id="path8109" />
      <path
         style="fill:#ffbb00;fill-opacity:1;stroke-width:2.28137"
         d="m 306.40965,102.30297 c 0,-4.9705 -1.96852,-8.171428 -6.4048,-10.414615 -1.72188,-0.870653 -4.94935,-5.188855 -7.2087,-9.644866 -2.25001,-4.437617 -6.313,-10.542156 -9.02887,-13.565641 l -4.93792,-5.497246 0.61891,-19.392975 c 0.3404,-10.666135 0.96337,-19.739422 1.38438,-20.162861 1.01956,-1.025449 16.79857,4.25312 24.92843,8.339336 14.25757,7.166116 26.32537,19.2832 33.42316,33.559678 4.19033,8.428397 9.45763,25.517056 10.55601,34.246716 l 0.8618,6.849344 h -22.09621 -22.09619 z"
         id="path15770" />
      <path
         style="fill:#ffbb00;fill-opacity:1;stroke-width:2.28137"
         d="m 161.73466,99.118186 c 2.33891,-19.397649 14.38803,-44.704023 26.28868,-55.213255 8.70747,-7.689397 20.0772,-14.232248 30.46977,-17.534217 5.62187,-1.786199 10.77516,-3.247634 11.45176,-3.247634 0.72403,0 1.23019,8.555973 1.23019,20.794843 v 20.794844 l -5.29339,6.15134 c -2.91136,3.383238 -6.62785,9.186228 -8.25887,12.895535 -2.15408,4.898895 -4.05442,7.19785 -6.94533,8.402218 -3.91171,1.629635 -6.74252,6.686 -6.74252,12.04339 0,2.25282 -1.44401,2.41459 -21.55241,2.41459 h -21.55241 z"
         id="path16660" />
      <path
         style="fill:#ffbb00;fill-opacity:1;stroke-width:2.28137"
         d="m 148.25172,150.14924 c -1.47864,-1.89064 -2.68844,-4.10835 -2.68844,-4.92826 0,-3.10889 4.13394,-7.28985 7.20787,-7.28985 3.91224,0 3.91115,-0.0893 -0.0735,-5.99498 -3.94703,-5.84985 -4.09214,-9.52752 -0.55443,-14.05095 l 2.68844,-3.43753 h 24.55167 c 23.99001,0 24.55167,0.062 24.55167,2.70962 0,1.4903 1.70625,4.42574 3.79166,6.52319 2.9969,3.01421 4.943,3.81356 9.28451,3.81356 4.41788,0 6.80218,1.01598 12.18335,5.19148 8.72204,6.76786 16.24718,9.4772 26.6264,9.58652 9.60378,0.1011 20.39622,-4.07263 28.08283,-10.86052 3.21115,-2.83572 5.7669,-3.92279 9.25532,-3.93672 6.89089,-0.0275 11.07388,-2.59624 12.77105,-7.8426 l 1.46614,-4.53221 22.50965,-0.35828 c 24.36244,-0.38777 28.38977,0.3712 30.85586,5.81491 1.79159,3.95485 0.88474,7.40202 -3.45532,13.13444 l -3.21018,4.24007 h 3.17072 c 3.14061,0 8.81152,4.7688 8.81152,7.40981 0,0.75392 -1.2098,2.91766 -2.68844,4.8083 l -2.68844,3.43753 H 255.8209 150.94019 Z"
         id="path16699" />
      <path
         style="fill:#929292;fill-opacity:1;stroke-width:0.806585"
         d="m 247.57981,135.2633 c -5.97019,-1.62867 -11.91326,-5.12923 -17.40844,-10.25386 -3.67536,-3.4275 -3.73715,-3.44924 -10.76696,-3.78874 -8.6838,-0.41938 -9.29207,-1.27909 -9.06581,-12.81343 0.18888,-9.629087 0.22599,-9.692121 5.95538,-10.115541 4.23886,-0.313263 4.97409,-0.859922 4.97409,-3.698363 0,-2.342507 1.60489,-7.416016 3.50149,-11.06912 3.46085,-6.666083 10.52208,-13.908005 16.34352,-16.761731 5.88095,-2.882904 15.00448,-3.849513 22.08839,-2.340195 6.59478,1.405108 14.35935,6.440314 19.14548,12.415552 2.85029,3.558454 5.05739,8.167891 6.7538,14.104997 1.46478,5.126509 2.70812,6.918879 4.79951,6.918879 2.10711,0 5.77085,1.408133 6.34104,2.437132 0.38631,0.69718 0.57114,3.54155 0.58114,8.94353 0.0136,7.32424 -0.0576,8.01949 -0.94381,9.22517 -1.47136,2.00173 -2.9716,2.49046 -8.79966,2.86663 -6.21168,0.40094 -6.83433,0.65665 -11.32922,4.65281 -4.37211,3.88701 -9.15285,6.79075 -13.90747,8.44718 -5.31962,1.85327 -13.19722,2.2109 -18.26247,0.8291 z m 13.79767,-10.43229 c 10.48125,-2.74579 17.7888,-11.88257 18.46547,-23.08779 0.4933,-8.16851 -1.90533,-14.744798 -7.40656,-20.306412 -4.89419,-4.94792 -9.92975,-7.099257 -16.61697,-7.099257 -7.24725,0 -12.28355,2.064909 -17.26945,7.080553 -5.15931,5.190094 -7.19246,10.229503 -7.19246,17.827423 0,4.925013 0.66055,7.818563 2.82635,12.380783 4.92684,10.37831 16.51083,16.00327 27.19362,13.2047 z"
         id="path18252" />
      <path
         id="path19327"
         style="fill:#d9d9d9;fill-opacity:1;stroke-width:0.806585"
         d="m 254.92188,75.621094 c -2.16336,0.123567 -4.34521,0.237943 -6.47852,0.61914 -0.58436,0.159173 -1.28308,0.203726 -1.25321,0.978474 -3.65966,12.534173 -7.25185,25.088942 -10.87374,37.634812 2.55064,2.24699 4.91364,4.79219 7.89677,6.47962 0.93588,0.57764 2.19872,1.02157 3.16757,0.2718 1.32673,-1.05316 1.78478,-2.80234 2.43602,-4.29789 2.81195,-7.643 4.85599,-15.53809 7.1577,-23.342732 1.32396,-4.805432 2.79916,-9.578102 3.84194,-14.454552 0.3728,-1.577589 -0.75077,-3.195595 -2.29584,-3.565233 -1.1605,-0.354766 -2.39687,-0.347168 -3.59869,-0.323439 z" />
      <path
         style="fill:#ffffff;fill-opacity:1;stroke-width:0.806585"
         d="m 250.28646,124.36613 c -8.74383,-2.36865 -15.63484,-9.61953 -17.75988,-18.68738 -0.89763,-3.83032 -0.90095,-9.655199 -0.007,-13.105349 1.06,-4.093079 2.83411,-7.044209 6.45099,-10.730827 5.20713,-5.30752 10.5047,-7.343464 18.0473,-6.93586 6.3845,0.34502 11.05228,2.546229 15.68729,7.397736 2.32942,2.438233 5.01965,7.209 5.91159,10.483454 0.63058,2.314934 1.28933,11.070206 0.83294,11.070206 -0.16062,0 -0.42705,0.90568 -0.5921,2.01261 -0.56074,3.76089 -3.21741,8.44718 -6.81114,12.01464 -6.24362,6.19798 -14.13127,8.54721 -21.75953,6.48077 z m 8.59265,-3.0955 c 1.14647,-1.89137 2.72371,-6.99711 7.0802,-22.91957 4.17865,-15.27248 4.34536,-17.555885 1.28167,-17.555885 -1.37725,0 -2.1119,1.633678 -4.87446,10.839582 -2.81443,9.378803 -8.07845,28.750083 -8.07845,29.728243 0,1.13638 0.41259,1.40673 2.14692,1.40673 1.24016,0 1.71019,-0.28829 2.44412,-1.4991 z m -11.79561,-1.62291 c 0.40369,-0.44865 1.15849,-1.95351 1.67734,-3.34413 1.59051,-4.26283 10.14225,-34.217617 10.42662,-36.522053 0.25547,-2.070187 0.21111,-2.180991 -0.99489,-2.485426 -1.46436,-0.369652 -9.00816,0.13035 -9.45679,0.626793 -0.36956,0.408947 -10.4991,35.408486 -10.4991,36.276436 0,0.95434 6.44047,6.2641 7.59804,6.2641 0.28315,0 0.84509,-0.36708 1.24878,-0.81572 z"
         id="path19405" />
    </g>
  </g>
</svg>
