<?xml version="1.0" encoding="UTF-8" standalone="no"?>
<!-- Created with Inkscape (http://www.inkscape.org/) -->

<svg
   version="1.1"
   id="svg254"
   width="512"
   height="512"
   viewBox="0 0 512 512"
   sodipodi:docname="cmseek.svg"
   inkscape:version="1.2.2 (b0a8486541, 2022-12-01)"
   xml:space="preserve"
   inkscape:export-filename="../GIT Icons/cmseek.png"
   inkscape:export-xdpi="96"
   inkscape:export-ydpi="96"
   xmlns:inkscape="http://www.inkscape.org/namespaces/inkscape"
   xmlns:sodipodi="http://sodipodi.sourceforge.net/DTD/sodipodi-0.dtd"
   xmlns:xlink="http://www.w3.org/1999/xlink"
   xmlns="http://www.w3.org/2000/svg"
   xmlns:svg="http://www.w3.org/2000/svg"><defs
     id="defs258"><rect
       x="351.69553"
       y="85.485077"
       width="247.70271"
       height="226.00032"
       id="rect552" /><rect
       x="351.69553"
       y="85.485077"
       width="247.70271"
       height="226.00032"
       id="rect552-3" /><rect
       x="351.69553"
       y="85.485077"
       width="247.70271"
       height="226.00032"
       id="rect552-3-7" /><rect
       x="334.40907"
       y="449.4351"
       width="139.91214"
       height="64.599968"
       id="rect1058" /><linearGradient
       id="linearGradient8120"><stop
         style="stop-color:#ff0000;stop-opacity:1;"
         offset="0"
         id="stop8116" /><stop
         style="stop-color:#ff0000;stop-opacity:0;"
         offset="1"
         id="stop8118" /></linearGradient><linearGradient
       xlink:href="#linearGradient8120"
       id="linearGradient8122"
       x1="416.65988"
       y1="552.31458"
       x2="421.72205"
       y2="-225.3533"
       gradientUnits="userSpaceOnUse"
       gradientTransform="matrix(0.59312171,0,0,0.58624652,8.3716843,11.24208)" /></defs><sodipodi:namedview
     id="namedview256"
     pagecolor="#505050"
     bordercolor="#eeeeee"
     borderopacity="1"
     inkscape:showpageshadow="0"
     inkscape:pageopacity="0"
     inkscape:pagecheckerboard="0"
     inkscape:deskcolor="#505050"
     showgrid="false"
     inkscape:zoom="0.7140625"
     inkscape:cx="454.44201"
     inkscape:cy="246.47702"
     inkscape:window-width="1366"
     inkscape:window-height="705"
     inkscape:window-x="0"
     inkscape:window-y="26"
     inkscape:window-maximized="1"
     inkscape:current-layer="g260" /><g
     inkscape:groupmode="layer"
     inkscape:label="Image"
     id="g260"><g
       id="g3516"><path
         id="rect958-6"
         style="fill:#ffffff;stroke-width:9.35284"
         d="m 10.153694,74.550132 c -0.01106,25.672998 0.05259,51.347168 -0.06059,77.019398 -0.2393321,4.09189 -6.15e-4,8.19244 -0.095,12.28803 0,91.98023 0,183.96046 0,275.94067 163.813416,0 327.626826,0 491.440246,0 0,-94.4986 0,-188.99718 0,-283.49578 0.98951,-3.63041 0.36961,-7.41621 0.55036,-11.11894 0,-12.5862 0,-25.17242 0,-37.75863 -71.07005,0 -142.14011,0 -213.21017,0 -24.93901,-11.74126 -49.87889,-23.480693 -74.81735,-35.223113 -67.93583,0 -135.871659,0 -203.807497,0 0,0.782783 0,1.565574 10e-7,2.348365 z" /><rect
         style="fill:#000000;stroke-width:9.35285"
         id="rect958"
         width="458.15063"
         height="268.89648"
         x="26.642199"
         y="154.46194" /><path
         id="path960"
         style="fill:#1a1a1a;stroke-width:4.60208"
         d="m 26.796838,92.198583 c 0,19.384067 0,38.768137 0,58.152197 152.849242,0 305.698472,0 458.547752,0 0,-8.82884 0,-17.65767 0,-26.4865 -66.77422,0 -133.5484,0 -200.32261,0 -24.9438,-11.74168 -49.88797,-23.48266 -74.83262,-35.222705 -61.13085,0 -122.261687,0 -183.392522,0 0,1.185669 0,2.371339 0,3.557008 z m 25.607335,14.148127 c 2.165426,0.0473 3.465361,2.00616 4.82895,3.32993 1.460487,1.4603 2.01393,3.72993 0.762741,5.47575 -0.97462,1.5072 -2.129008,2.98531 -3.587549,4.09542 -2.270012,0.2745 -4.647883,0.33108 -6.901951,-0.066 -2.731749,-1.75839 -4.759856,-5.18482 -3.372439,-8.28879 0.749584,-2.04559 2.210016,-4.3 4.771563,-4.41231 1.155824,-0.16822 2.332328,-0.17259 3.498685,-0.13399 z m 29.678377,0.0174 c 0.478523,-0.0427 0.404721,-0.0618 0,0 z m 0.693881,-0.0381 c 0.27737,-0.008 -0.383047,-0.004 0,0 z m 31.210099,0.0174 c 0.20735,0.005 0.38445,-0.0297 0,0 z m 2.62791,0 c 0.27632,0.004 -0.47029,-0.0254 0,0 z m -32.232473,0.0382 c 0.278447,0.0171 -0.340114,-0.0307 0,0 z m 33.118283,0.0209 c 0.46724,0.0369 -0.43217,-0.0514 0,0 z m -4.46966,0.0139 c 0.42423,-0.0305 0.3105,-0.041 0,0 z m -31.60502,0.073 c 0.306499,-0.0389 0.671144,-0.16251 0,0 z m 36.29244,-0.059 c 0.55449,0.0783 -0.29032,-0.0523 0,0 z m -4.93471,0.0313 c 0.15203,-0.0163 0.38334,-0.0719 0,0 z m -27.76281,-0.0174 c 0.473857,0.0537 -0.339451,-0.0475 0,0 z m 27.54505,0.0625 c 0.12452,-0.008 0.46436,-0.12568 0,0 z m -0.0148,0.004 c -0.32172,0.0841 -0.10603,0.0533 0,0 z m -0.16609,0.0521 c 0.18145,-0.0744 -0.0701,0.0236 0,0 z m -0.011,0.004 c -0.25415,0.091 -0.4479,0.20868 0,0 z m -0.29158,0.12849 c -0.15283,0.0481 -0.034,0.0352 0,0 z m -0.004,0.004 c -0.30554,0.16921 -0.17662,0.11176 0,0 z m 5.98661,-0.20146 c 0.27775,0.0545 -0.5339,-0.12622 0,0 z m 0.0591,0.0107 c 0.54593,0.17689 -0.0759,-0.0467 0,0 z m 0.26206,0.0834 c 0.63168,0.31717 -0.0413,-0.0166 0,0 z m -32.775033,-0.0521 c 0.46458,0.0795 -0.347376,-0.0712 0,0 z m -4.798151,0.13548 c 0.482899,-0.13197 0.473429,-0.17017 0,0 z m 5.351787,-0.0139 c 0.451824,0.10507 -0.580805,-0.16163 0,0 z m 0.387534,0.11457 c 0.539776,0.17108 -0.47278,-0.17132 0,0 z m 32.217713,0.0382 c 0.27187,0.16882 -0.35929,-0.24459 0,0 z m -38.5771,0.10774 c 0.43784,-0.16963 0.377084,-0.16721 0,0 z m 6.735863,-0.004 c 0.542068,0.22514 -0.56185,-0.25597 0,0 z m 24.728907,0.0416 c 0.15451,-0.0851 0.30905,-0.22023 0,0 z m 7.25257,-0.0486 c 0.36288,0.27124 -0.20855,-0.16547 0,0 z m -31.671444,0.15978 c 0.48566,0.24652 -0.559227,-0.31915 0,0 z m 0.132804,0.0625 c 0.01394,0.0121 0.0055,-0.003 0,0 z m -7.817278,0.10413 c 0.426146,-0.20391 0.298436,-0.16455 0,0 z m 7.946465,-0.0107 c 0.559945,0.36314 -0.4484,-0.31364 0,0 z m 0.291576,0.21884 c 0.435548,0.33986 -0.459431,-0.38808 0,0 z m 31.730517,-0.0313 c 0.38048,0.32272 -0.29124,-0.26351 0,0 z m -40.607081,0.20148 c 0.334661,-0.19516 0.324666,-0.21674 0,0 z m 9.131239,0.0555 c 0.446495,0.4165 -0.404625,-0.40946 0,0 z m 22.591882,0.0973 c 0.11762,-0.0878 0.2848,-0.25254 0,0 z m -22.340907,0.17021 c 0.383544,0.42265 -0.245508,-0.29331 0,0 z m -10.00228,0.10775 c 0.342033,-0.23453 0.29823,-0.23249 0,0 z m 10.312313,0.27789 c 0.2806,0.36249 -0.231786,-0.32031 0,0 z m -10.884406,0.19453 c 0.277798,-0.21978 0.206343,-0.18167 0,0 z m 43.29773,0.34737 c 0.33912,0.35471 -0.25188,-0.27945 0,0 z m -43.836595,0.17367 c 0.278419,-0.26691 0.263855,-0.28412 0,0 z m 12.054422,0.25359 c 0.148417,0.24994 -0.168932,-0.30623 0,0 z m -12.534243,0.28483 c 0.294033,-0.32998 0.230033,-0.28681 0,0 z m 44.873746,-0.0695 c 0.19454,0.23613 -0.33478,-0.43015 0,0 z m 0.0443,0.0521 c 0.0973,0.16213 0.19991,0.25728 0,0 z m 0.17347,0.264 c 0.15252,0.2381 -0.17478,-0.30154 0,0 z m -32.250922,0.0382 c 0.170491,0.32358 -0.131286,-0.27299 0,0 z m -13.246567,0.26399 c 0.269888,-0.35748 0.234188,-0.3568 0,0 z m 45.586079,-0.13546 c 0.13032,0.23349 -0.13556,-0.2825 0,0 z m 0.0369,0.0625 c 0.0797,0.22517 0.0652,0.12381 0,0 z m -13.82605,0.15631 c 0.24649,-0.25606 0.29949,-0.34718 0,0 z m 13.91464,0.0904 c 0.0808,0.26213 -0.0914,-0.31941 0,0 z m 0.0221,0.0695 c 0.0358,0.18356 0.0977,0.34551 0,0 z M 75.9736,110.6689 c 0.240718,-0.39268 0.21475,-0.40451 0,0 z m 13.877718,-0.15977 c 0.172452,0.39012 -0.182751,-0.44525 0,0 z m 17.904472,0.15284 c -0.22544,0.3344 0.38853,-0.56345 0,0 z m -0.0185,0.0313 c -0.18086,0.26426 -0.0356,0.0784 0,0 z m -32.011007,0.50715 c 0.183634,-0.35893 0.18137,-0.4653 0,0 z m 31.915247,-0.35458 c -0.10409,0.1771 -0.0493,0.14525 0,0 z m -0.0628,0.12849 c -0.11057,0.25352 -0.0315,0.10694 0,0 z m -0.0554,0.13896 c 0.0643,-0.23968 -0.16056,0.51586 0,0 z m -0.0406,0.12849 c -0.0907,0.32053 -0.008,0.0869 0,0 z m -0.0369,0.15284 c -0.011,-0.0193 -0.0681,0.49781 0,0 z m 14.70077,-0.38557 c 0.0409,0.30866 -0.0464,-0.49097 0,0 z m -32.084822,0.0521 c 0.167662,0.46154 -0.10547,-0.3193 0,0 z m -14.483026,0.61832 c 0.109197,-0.28155 0.146664,-0.50206 0,0 z m 0.03327,-0.0869 c -0.08725,0.33239 -0.02195,0.16827 0,0 z m 14.638029,0.0799 c 0.119413,0.43002 -0.136946,-0.56416 0,0 z m 31.959349,0.15285 c 0.0283,0.42144 -0.008,-0.30411 0,0 z m -46.678579,0.1841 c 0.05301,-0.24444 0.03838,-0.34658 0,0 z m 0,0 c -0.02761,0.40327 -0.0055,0.0606 0,0 z m 31.815389,0.29179 c 0.04,-0.38327 0.0138,-0.33838 0,0 z m -16.989115,-0.13548 c 0.09553,0.50378 -0.07317,-0.46028 0,0 z m 0.0664,0.50715 c 0.0555,0.53937 -0.03548,-0.489 0,0 z m 16.911615,0.45853 c 0.011,-0.14609 -0.01,-0.36642 0,0 z m -31.763732,0.1841 c -0.02443,-0.45745 -0.03948,-0.34971 0,0 z m 14.87056,-0.15632 c 0.01104,0.56214 0.01243,-0.5047 0,0 z m -0.02209,0.50021 c -0.0381,0.50065 0.06392,-0.57598 0,0 z m 16.948532,0.31262 c -0.011,-0.31535 -0.0355,-0.35018 0,0 z m -31.667762,0.20148 c -0.05715,-0.42057 -0.08297,-0.38199 0,0 z m 14.656486,-0.059 c -0.09166,0.53938 0.107265,-0.53009 0,0 z m 31.852306,0.0625 c -0.006,0.26006 0.0269,-0.44258 0,0 z m -14.75983,0.47589 c -0.0547,-0.4494 -0.0944,-0.48045 0,0 z m -17.199533,-0.0834 c -0.143959,0.55204 0.156742,-0.51906 0,0 z m -14.353839,0.39948 c -0.06475,-0.30291 -0.07745,-0.26526 0,0 z m 31.678852,0.18062 c -0.0906,-0.41651 -0.15387,-0.47981 0,0 z m 0,0 c 0.20658,0.55468 0.21046,0.41306 0,0 z m 14.5716,-0.13896 c -0.0393,0.43975 0.0545,-0.40671 0,0 z m -32.05163,0.0209 c -0.176331,0.498 0.158841,-0.39572 0,0 z m 32.0221,0.1841 c -0.0831,0.52186 0.0556,-0.27324 0,0 z m -0.0627,0.29526 c -0.0765,0.33357 0.11417,-0.42868 0,0 z m -0.0185,0.0869 c -0.2777,0.62623 -0.14702,0.35981 -0.0295,0.0973 l 0.0554,-0.16328 z m -0.0516,0.15978 c -0.0266,0.0634 0.007,0.0107 0,0 z m -0.18454,0.33347 c -0.007,8e-5 -0.003,0.0178 0,0 z m -31.915,-0.56273 c -0.222468,0.49143 0.233926,-0.46779 0,0 z m 18.07794,0.39948 c -0.17172,-0.35189 -0.26322,-0.4291 0,0 z m -31.700983,-0.0382 c -0.04721,-0.13426 -0.152311,-0.31744 0,0 z m 13.364682,0.12502 c -0.231468,0.4162 0.23365,-0.38836 0,0 z m 18.646331,0.34736 c -0.22472,-0.34208 -0.24035,-0.31505 0,0 z m 13.39421,-0.0938 c -0.003,0.0284 0.0571,-0.0748 0,0 z m 0,0.004 c -0.19621,0.21467 -0.22803,0.28309 0,0 z m -45.076733,0.21537 c -0.103952,-0.19384 -0.177657,-0.28464 0,0 z m 12.707702,0.0451 c -0.234975,0.36011 0.255186,-0.36019 0,0 z m 19.432501,0.39948 c -0.16228,-0.20622 -0.23829,-0.27445 0,0 z m 12.34968,-0.0278 c -0.34856,0.36335 0.26,-0.25448 0,0 z m -32.1808,0.17019 c -0.218699,0.2897 0.287475,-0.35299 0,0 z m -11.744389,0.15285 c -0.09539,-0.12554 -0.249636,-0.26517 0,0 z m 0.435534,0.4342 c -0.140245,-0.14704 -0.284866,-0.23904 0,0 z m 0.228832,0.19105 c -0.05729,-0.0618 -0.316591,-0.24377 0,0 z m 0.269432,0.20496 c -0.15093,-0.12823 -0.302592,-0.21108 0,0 z m 41.411701,0.29525 c -0.38018,0.3225 0.30832,-0.24779 0,0 z m -9.31949,0.12501 c -0.15608,-0.17403 -0.26185,-0.2415 0,0 z m -22.791184,0.18062 c -0.436156,0.38971 0.458298,-0.37796 0,0 z m -8.131011,0.0486 c -0.100225,-0.0622 -0.36673,-0.15514 0,0 z m 39.577315,0.15632 c -0.26405,0.19342 0.46932,-0.31878 0,0 z m -0.0591,0.0451 c -0.154,0.0791 -0.31846,0.20808 0,0 z m -0.18085,0.11109 c -0.01,-0.003 -0.0202,0.0212 0,0 z m -0.011,0.007 c -0.11086,0.038 -0.27187,0.15717 0,0 z m -7.80252,-0.004 c -0.18615,-0.18064 -0.28196,-0.22719 0,0 z m -30.86679,-0.0729 c -0.278226,-0.0977 -0.359289,-0.10721 0,0 z m 7.038511,0.0521 c -0.370913,0.27468 0.436514,-0.29752 0,0 z m -0.08117,0.0625 c -0.194029,0.0873 -0.252272,0.14044 0,0 z m -0.177159,0.0903 c -0.519745,0.18899 -0.22614,0.11136 0,0 z m -0.321105,0.12153 c -0.222564,0.0265 -0.626526,0.12662 0,0 z m -0.08863,0.0139 c 0.418582,-0.10573 0.06516,-0.0312 0,0 z m 0.54625,-0.20841 c 0.163714,-0.0811 0.02292,-0.03 0,0 z m 23.968583,-0.0416 c 0.0795,0.11685 0.45513,0.26193 0.54255,0.26399 -0.19891,-0.0495 -0.40775,-0.1626 -0.54255,-0.26399 z m 0.56101,0.26747 c 0.39093,0.09 0.10354,0.0107 0,0 z m -0.0922,-0.0174 c 0.0648,0.0389 0.0236,-0.003 0,0 z m -0.14025,-0.0451 c -0.0286,-0.0386 -0.0308,0.0234 0,0 z m 7.27472,-0.12849 c -0.10961,0.0633 0.0697,-0.0328 0,0 z m 0,0 c -0.10284,0.0349 -0.20352,0.0976 0,0 z m -0.12921,0.0555 c -0.18829,0.0459 -0.1552,0.0727 0,0 z m -0.12922,0.0451 c -0.062,0.009 -0.19369,0.0836 0,0 z m -0.0185,0.004 c -0.23649,0.0553 -0.35974,0.0999 0,0 z m -0.22513,0.059 c -0.33023,0.0537 -0.2945,0.0658 0,0 z m -37.108134,-0.0834 c -0.309329,-0.0962 -0.563244,-0.12581 0,0 z m 5.842665,-0.0107 c -0.03769,0.0313 0.159931,-0.0609 0,0 z m 24.540679,0.0695 c -0.0282,8.1e-4 -0.10933,-0.0562 0,0 z m -29.530747,0.0904 c -0.445046,-0.0861 -0.396783,-0.049 0,0 z m 35.871677,-0.004 c -0.40337,0.0616 0.2818,-0.0318 0,0 z m -5.74669,0.0313 c -0.20093,-0.0393 -0.35192,-0.0446 0,0 z m -26.15359,0.0107 c -0.62215,0.0779 0.420114,-0.0351 0,0 z m 31.49798,0.004 c -0.34586,0.0351 0.46336,-0.0315 0,0 z m -34.524507,0.0521 c -0.402651,-0.0404 -0.400483,-0.0187 0,0 z m 1.99677,0.0107 c 0.411127,-0.001 0.09387,-0.0167 0,0 z m 31.372487,0 c 0.38704,-0.007 0.046,-0.0121 0,0 z m -2.77922,0 c -0.0881,-0.0121 -0.33502,0.003 0,0 z" /><rect
         style="fill:#00ff00;fill-rule:evenodd;stroke-width:4.51592;stroke-linejoin:bevel;paint-order:markers stroke fill"
         id="rect528"
         width="137.14294"
         height="114.69816"
         x="58.145908"
         y="202.65503" /><g
         id="g683"
         transform="matrix(1.3805007,0,0,1.338454,-69.10043,-78.873012)"><circle
           style="fill:#00ff00;fill-rule:evenodd;stroke-width:3.72968;stroke-linejoin:bevel;paint-order:markers stroke fill"
           id="path634"
           cx="131.38747"
           cy="143.58662"
           r="10" /><circle
           style="fill:#ffff00;fill-rule:evenodd;stroke-width:3.72968;stroke-linejoin:bevel;paint-order:markers stroke fill"
           id="path634-3"
           cx="108.46861"
           cy="143.58662"
           r="10" /><circle
           style="fill:#ff0000;fill-rule:evenodd;stroke-width:3.72968;stroke-linejoin:bevel;paint-order:markers stroke fill"
           id="path634-3-6"
           cx="85.949867"
           cy="143.58662"
           r="10" /></g><rect
         style="fill:#00ff00;fill-rule:evenodd;stroke-width:3.57679;stroke-linejoin:bevel;paint-order:markers stroke fill"
         id="rect737"
         width="259.24182"
         height="19.26124"
         x="207.0381"
         y="203.22409" /><rect
         style="fill:#00ff00;fill-rule:evenodd;stroke-width:3.36589;stroke-linejoin:bevel;paint-order:markers stroke fill"
         id="rect737-7"
         width="229.57164"
         height="19.26124"
         x="207.26442"
         y="229.97668" /><rect
         style="fill:#00ff00;fill-rule:evenodd;stroke-width:3.20859;stroke-linejoin:bevel;paint-order:markers stroke fill"
         id="rect737-7-5"
         width="208.61481"
         height="19.26124"
         x="207.94658"
         y="258.91013" /><rect
         style="fill:#00ff00;fill-rule:evenodd;stroke-width:4.08549;stroke-linejoin:bevel;paint-order:markers stroke fill"
         id="rect737-7-5-3"
         width="338.22232"
         height="19.26124"
         x="56.518024"
         y="335.58133" /><rect
         style="fill:#00ff00;fill-rule:evenodd;stroke-width:2.79519;stroke-linejoin:bevel;paint-order:markers stroke fill"
         id="rect737-7-5-3-5"
         width="158.31943"
         height="19.26124"
         x="56.379837"
         y="368.25928" /><path
         style="fill:#000000;stroke-width:0.221874"
         d="m 122.90093,309.44833 c -5.38083,-1.51117 -6.00653,-1.77766 -7.32469,-3.11974 -1.68962,-1.72029 -3.09943,-3.58414 -3.6392,-4.81129 -1.6337,-3.71401 -1.56019,-3.39117 -1.52269,-6.68752 0.0335,-2.94706 0.7852,-8.19416 1.06446,-7.43057 0.0641,0.17516 0.29908,0.89166 0.52231,1.59226 0.86976,2.72986 2.58049,5.32641 5.08771,7.72213 3.28874,3.14251 6.71844,4.90986 9.528,4.90986 3.21798,0 8.12028,-2.98347 11.31058,-6.88349 1.2635,-1.54456 2.92256,-4.65404 3.40693,-6.3854 l 0.41576,-1.48611 0.16099,1.0615 c 0.0885,0.58385 0.26593,1.3959 0.3942,1.80458 0.12825,0.40867 0.28844,2.3257 0.35592,4.26005 l 0.12273,3.51699 -0.92009,2.32132 c -1.04423,2.6345 -2.30418,4.42841 -4.66329,6.63957 -1.45564,1.36437 -1.66824,1.48356 -3.63305,2.0368 -1.14782,0.32318 -3.05341,0.86458 -4.2346,1.20309 -1.18124,0.33852 -2.4334,0.60808 -2.7826,0.59901 -0.34919,-0.009 -1.9914,-0.39741 -3.64936,-0.86304 z m -24.178653,-22.414 c -1.345077,-3.08228 -2.574247,-5.52564 -4.905195,-9.75065 -3.561126,-6.45477 -5.99031,-10.11364 -14.299074,-21.53742 -3.391035,-4.66236 -5.898714,-8.35171 -6.70592,-9.86588 -1.384325,-2.59673 -2.20495,-5.08682 -2.193091,-6.65465 0.0083,-1.15306 0.01436,-1.1478 1.731741,1.6172 1.483486,2.38849 3.16506,3.92354 5.860115,5.34955 2.597081,1.37418 2.678586,1.45715 4.816677,4.90307 0.398482,0.64221 1.121533,1.78864 1.606779,2.54762 1.716377,2.68455 3.656919,5.86824 5.04671,8.27979 1.557453,2.70248 6.205696,11.19877 6.205696,11.34311 0,0.0503 0.304732,0.69533 0.677205,1.43327 1.612977,3.19567 2.909736,6.6723 3.286668,8.81151 0.294022,1.66876 0.186302,4.6319 -0.180611,4.96782 -0.147796,0.13532 -0.477874,-0.36772 -0.9477,-1.44434 z m 54.819933,0.84256 c -0.55452,-3.07152 0.34461,-6.94037 2.80003,-12.04815 1.84949,-3.84733 6.36107,-12.22383 7.72165,-14.33654 0.38042,-0.59073 0.69168,-1.1353 0.69168,-1.21019 0,-0.34172 6.82194,-11.12343 7.76255,-12.26829 0.28935,-0.35218 1.61823,-1.22863 2.95307,-1.94763 2.3177,-1.24846 4.12622,-2.73058 4.87708,-3.99692 0.16017,-0.2701 0.76077,-1.22653 1.33467,-2.12538 l 1.04348,-1.63425 0.074,0.79711 c 0.13639,1.47007 -0.63289,3.92108 -2.03024,6.46903 -1.46915,2.67888 -3.69955,5.93381 -9.55142,13.939 -7.38202,10.09835 -13.04922,19.55243 -16.46594,27.46871 -0.4011,0.92929 -0.80521,1.68964 -0.89804,1.68964 -0.0929,0 -0.23344,-0.35826 -0.3125,-0.79614 z m -46.0614,-18.49249 c -3.46409,-2.05279 -9.349346,-8.51344 -11.927665,-13.09381 -1.188004,-2.11048 -2.499245,-5.37346 -2.286179,-5.68909 0.192056,-0.28452 4.706238,-0.0183 6.561741,0.3869 3.135403,0.68478 6.542443,1.70642 6.720913,2.01538 0.10202,0.17651 0.30802,1.56291 0.45788,3.08087 0.65101,6.59426 1.22117,9.81175 2.19804,12.40378 0.32675,0.867 0.59408,1.65518 0.59408,1.7515 0,0.3739 -0.64693,0.13522 -2.31881,-0.85553 z m 35.94654,0.77956 c 0.003,-0.15381 0.26251,-0.94822 0.57741,-1.76535 0.84056,-2.18132 1.43769,-5.36605 1.97051,-10.50939 0.26006,-2.51047 0.52223,-4.70781 0.58254,-4.88296 0.0997,-0.28922 1.04072,-0.58923 5.09645,-1.62474 3.42708,-0.875 7.89387,-1.21061 8.14478,-0.61198 0.18628,0.44443 -0.73519,2.87841 -1.92174,5.07618 -0.93401,1.72996 -3.03223,4.63709 -5.45889,7.56335 -1.13714,1.37124 -6.1194,5.94446 -6.47616,5.94446 -0.13488,0 -0.5223,0.17854 -0.86083,0.39676 -0.87717,0.56541 -1.66013,0.76124 -1.65407,0.41367 z M 112.4457,253.01027 c -1.26403,-0.58164 -3.13304,-1.48974 -4.15331,-2.018 -1.97228,-1.02117 -5.07291,-1.98505 -8.11587,-2.52292 -1.020269,-0.18034 -3.524593,-0.62396 -5.565153,-0.9858 -8.017631,-1.4217 -11.69672,-2.93764 -16.445491,-6.77607 -2.471165,-1.99745 -4.202837,-3.96332 -5.409823,-6.14145 -1.002492,-1.80912 -1.108114,-2.1426 -1.180935,-3.72859 -0.07165,-1.55861 -0.0083,-1.88545 0.597094,-3.10842 0.734937,-1.48344 2.021508,-2.84305 2.458837,-2.59841 0.148708,0.0831 1.152097,0.70486 2.229771,1.38147 2.64116,1.65826 2.794175,1.64054 2.794175,-0.3235 0,-2.22062 0.50721,-3.59248 1.748376,-4.72884 1.563652,-1.43161 1.703787,-1.32703 1.682085,1.25545 -0.02043,2.42302 0.289809,3.95765 1.123286,5.55787 0.75795,1.45519 1.161098,1.8438 2.760366,2.66076 1.272712,0.65014 1.57881,0.71327 3.888388,0.80176 2.558123,0.0981 5.645613,-0.23519 6.311856,-0.68121 0.297318,-0.19906 0.214143,-0.30421 -0.521967,-0.65984 -3.282196,-1.5857 -6.985707,-4.52859 -9.213462,-7.32126 -3.160228,-3.96154 -5.118413,-8.38001 -4.403632,-9.93641 0.376159,-0.81907 0.996156,-1.011 5.301951,-1.64135 2.030482,-0.29726 4.943187,-0.83616 6.472685,-1.19755 4.571266,-1.08014 5.964633,-0.79661 13.023703,2.65008 5.37372,2.62379 8.27938,3.50778 15.18825,4.62068 2.66975,0.43006 3.75712,0.3951 7.65209,-0.24604 6.81741,-1.12216 10.47909,-2.31023 16.16521,-5.24496 1.12328,-0.57975 2.80869,-1.35268 3.74535,-1.71759 1.56898,-0.6113 1.9081,-0.66352 4.30907,-0.66352 1.99639,0 2.9193,0.0987 3.94515,0.42183 0.73651,0.232 3.26105,0.7134 5.61011,1.06977 2.34904,0.35638 4.52252,0.73551 4.82993,0.84252 1.81769,0.63273 1.46969,3.06586 -1.05798,7.39711 -1.43274,2.45504 -2.60734,3.93551 -4.71982,5.94896 -1.63167,1.55519 -4.89661,3.79913 -6.82588,4.69133 -0.58147,0.26889 -0.92636,0.54792 -0.80953,0.65489 0.50399,0.46144 3.32485,0.90811 5.7646,0.91282 2.31119,0.005 2.68787,-0.0517 4.01166,-0.59815 3.13784,-1.29525 4.54242,-3.79631 4.59283,-8.17833 0.0335,-2.92128 0.2192,-3.08178 1.75506,-1.51778 1.09278,1.11282 1.58072,2.20861 1.58491,3.55927 0.006,1.56804 0.25639,2.41685 0.71619,2.41685 0.36418,0 2.19091,-1.00734 4.10211,-2.2621 0.5066,-0.33258 0.56178,-0.32167 1.19862,0.23693 0.36715,0.32208 1.00009,1.15678 1.40649,1.85489 0.65408,1.12356 0.73977,1.4683 0.74619,3.00206 0.007,1.47426 -0.10023,1.96348 -0.71351,3.27984 -0.39643,0.85092 -1.11345,2.09288 -1.59335,2.75993 -1.14274,1.5883 -4.35317,4.52703 -6.65271,6.08966 -1.96973,1.33851 -5.70611,3.1623 -7.2125,3.52053 -0.51015,0.12127 -1.44926,0.35823 -2.08694,0.52648 -0.63767,0.16826 -3.87243,0.78594 -7.18834,1.37267 -7.70684,1.36362 -9.56858,1.92542 -12.98536,3.91832 -0.63768,0.37193 -1.88792,1.00388 -2.77832,1.40434 -2.6119,1.17466 -4.55024,1.0178 -10.8848,-0.88092 -1.13799,-0.34111 -2.31633,-0.62019 -2.61856,-0.62019 -0.30221,0 -1.82331,0.37456 -3.38019,0.83232 -7.21159,2.12046 -7.92867,2.16258 -11.19896,0.65781 z m 3.49879,-5.56718 c 0.85336,-0.39128 4.05792,-2.45492 4.05792,-2.6132 0,-0.38222 -0.40293,-0.75907 -1.00665,-0.94148 -1.54471,-0.46676 -6.12832,-1.2354 -6.73442,-1.12933 -0.77724,0.13604 -1.20004,0.69773 -1.52307,2.02351 -0.65269,2.67868 2.09942,4.08506 5.20622,2.6605 z m 25.46725,0.0213 c 0.67771,-0.28272 1.31901,-1.45004 1.30393,-2.37356 -0.0164,-1.00733 -0.69825,-2.12609 -1.44152,-2.36523 -0.8238,-0.26507 -4.10478,0.1551 -6.18526,0.79205 -2.1862,0.66935 -2.16792,1.04532 0.11997,2.46656 2.99429,1.86006 4.45607,2.20888 6.20289,1.48018 z"
         id="path293" /></g></g></svg>
