<?xml version="1.0" encoding="UTF-8" standalone="no"?><!-- Created with Inkscape (http://www.inkscape.org/) --><svg xmlns="http://www.w3.org/2000/svg" xmlns:inkscape="http://www.inkscape.org/namespaces/inkscape" xmlns:sodipodi="http://sodipodi.sourceforge.net/DTD/sodipodi-0.dtd" xmlns:svg="http://www.w3.org/2000/svg" xmlns:xlink="http://www.w3.org/1999/xlink" height="512" id="svg875" inkscape:version="1.1.2 (0a00cf5339, 2022-02-04)" sodipodi:docname="crackle.svg" version="1.1" viewBox="0 0 511.99999 512" width="512">
  <defs id="defs879">
    <linearGradient id="linearGradient2705-3" inkscape:collect="always">
      <stop id="stop2701" offset="0" style="stop-color:#ffffff;stop-opacity:1"/>
      <stop id="stop2703" offset="1" style="stop-color:#2f46ff;stop-opacity:1"/>
    </linearGradient>
    <linearGradient gradientTransform="translate(2.139138e-6)" gradientUnits="userSpaceOnUse" id="linearGradient2707" inkscape:collect="always" x1="72.307365" x2="142.0313" xlink:href="#linearGradient2705-3" y1="509.39493" y2="334.43088"><stop id="stop2701" offset="0" style="stop-color:#ffffff;stop-opacity:1"/><stop id="stop2703" offset="1" style="stop-color:#2f46ff;stop-opacity:1"/></linearGradient>
  </defs>
  <sodipodi:namedview bordercolor="#eeeeee" borderopacity="1" id="namedview877" inkscape:current-layer="g881" inkscape:cx="273.08509" inkscape:cy="257.58566" inkscape:pagecheckerboard="0" inkscape:pageopacity="0" inkscape:pageshadow="0" inkscape:window-height="695" inkscape:window-maximized="1" inkscape:window-width="1366" inkscape:window-x="0" inkscape:window-y="24" inkscape:zoom="0.67744453" pagecolor="#505050" showgrid="false"/>
  <g id="g881" inkscape:groupmode="layer" inkscape:label="Image">
    <path d="m 362.86711,55.922895 c -47.84002,1.322447 -93.76421,30.391822 -112.18778,96.136355 -3.75936,13.4151 -6.98662,24.70772 -7.17607,25.09817 -0.18922,0.39044 -35.47115,-10.28232 -78.40329,-23.71514 C 61.543132,121.0409 62.868162,120.91963 52.116922,163.41293 27.658942,260.08083 5.1534421,364.60176 6.9929321,373.00027 c 2.73916,12.50608 5.9588499,13.85515 109.1471079,45.78993 48.05601,14.87232 93.58797,29.16743 101.17576,31.75598 37.82782,12.90482 38.72245,11.56818 64.14476,-95.53597 37.11833,-156.37972 36.78914,-152.32911 13.31355,-161.11711 -13.9314,-5.21518 -14.13096,-5.92627 -7.99937,-28.55037 11.19764,-41.31643 50.57032,-72.218824 85.06474,-66.760473 71.37993,11.295073 105.75964,62.994733 89.73341,134.936123 -5.40763,24.27466 31.96438,29.74476 38.08826,5.57499 C 527.66336,128.57396 442.60046,53.71881 362.86711,55.922895 Z m 28.49838,85.093595 c -2.10839,0.81726 -4.12989,10.37908 -10.13258,37.1916 -11.42154,51.01729 -11.31414,50.9108 -22.93156,24.3584 -5.43925,-12.4318 -10.25951,-23.08508 -10.71262,-23.67225 -0.45316,-0.58718 -5.07041,1.89172 -10.2635,5.51066 l -9.44023,6.58277 15.15675,27.86421 c 19.2144,35.31269 19.66321,32.87243 -9.22506,50.6895 -26.47391,16.32804 -26.96693,17.07346 -19.63824,29.8905 l 4.90255,8.55546 18.3284,-14.26981 c 22.98549,-17.88667 22.56362,-18.84741 11.74182,26.99579 -4.98802,21.13009 -9.10253,39.60205 -9.14085,41.0512 -0.13077,4.94595 2.42795,3.46209 51.21476,-29.75113 l 25.2238,-17.17525 -15.40935,-28.47531 c -10.36811,-19.1559 -14.26638,-29.29394 -11.91019,-30.96262 1.9266,-1.36443 13.02853,-8.62021 24.67176,-16.12457 11.64329,-7.50438 21.16956,-14.77553 21.17262,-16.15675 0.005,-2.16284 -25.07784,-51.22402 -38.83674,-75.95919 -2.21114,-3.97512 -3.50653,-6.63356 -4.77154,-6.14321 z m 8.49521,54.29179 c 1.46525,0.73579 3.137,3.85655 5.3423,9.15585 l 5.11774,12.28642 -8.98176,5.31767 c -12.182,7.21871 -12.10588,7.29223 -8.52333,-9.61685 2.74856,-12.97271 4.60302,-18.36938 7.04505,-17.14309 z m -232.7492,28.57181 c 6.37389,0.25898 13.00157,2.99941 19.08626,8.86638 15.83046,15.26404 15.54808,37.42924 -0.70172,54.89218 -5.01949,5.39423 -9.79213,17.35946 -13.79072,34.56491 -3.87058,16.65446 -8.55983,28.57957 -12.7803,32.49574 -7.55976,7.01468 -11.36947,7.49538 -18.98332,2.41225 -10.96934,-7.32328 -11.9375,-15.55637 -5.1458,-43.92446 5.48721,-22.91935 5.92259,-29.1322 2.90036,-41.50149 -6.58858,-26.96568 10.29363,-48.58249 29.41524,-47.80551 z m 210.63165,64.31605 c 0.90613,0.13651 1.89326,2.40365 3.52717,5.93951 2.23227,4.83051 4.31278,10.18789 4.63124,11.91116 0.31855,1.72327 -3.57714,6.1476 -8.6543,9.83129 l -9.22501,6.7007 3.19037,-13.34781 c 3.72607,-15.57916 5.02025,-21.2624 6.53053,-21.03485 z" id="path1523" style="fill:url(#linearGradient2707);fill-opacity:1;stroke-width:3.28182"/>
  </g>
</svg>