<?xml version="1.0" encoding="UTF-8" standalone="no"?>
<!-- Created with Inkscape (http://www.inkscape.org/) -->

<svg
   version="1.1"
   id="svg870"
   width="512"
   height="512"
   viewBox="0 0 512 512"
   sodipodi:docname="crlfuzz.svg"
   inkscape:version="1.1.2 (0a00cf5339, 2022-02-04)"
   xmlns:inkscape="http://www.inkscape.org/namespaces/inkscape"
   xmlns:sodipodi="http://sodipodi.sourceforge.net/DTD/sodipodi-0.dtd"
   xmlns="http://www.w3.org/2000/svg"
   xmlns:svg="http://www.w3.org/2000/svg">
  <defs
     id="defs874" />
  <sodipodi:namedview
     id="namedview872"
     pagecolor="#505050"
     bordercolor="#eeeeee"
     borderopacity="1"
     inkscape:pageshadow="0"
     inkscape:pageopacity="0"
     inkscape:pagecheckerboard="0"
     showgrid="false"
     inkscape:zoom="0.58480747"
     inkscape:cx="123.11744"
     inkscape:cy="271.02937"
     inkscape:window-width="1366"
     inkscape:window-height="695"
     inkscape:window-x="0"
     inkscape:window-y="24"
     inkscape:window-maximized="1"
     inkscape:current-layer="g876" />
  <g
     inkscape:groupmode="layer"
     inkscape:label="Image"
     id="g876">
    <g
       id="g2197"
       transform="matrix(0.91148124,0,0,0.93025504,22.639636,17.853865)">
      <path
         id="path1032-3"
         style="fill:#ffffff;fill-opacity:1;stroke-width:0.341405"
         d="m 341.26367,-1.1191406 c -47.36849,0.030767 -94.73698,0.063823 -142.10547,0.095703 -3.13761,0.61231891 -6.17826,1.65420569 -9.16406,2.78125 -6.6815,2.624274 -12.7582,6.8186975 -17.42574,12.2869076 -4.77255,5.516714 -8.10231,12.213545 -9.8709,19.276962 -0.67771,2.184879 -1.05508,4.470137 -0.90503,6.76074 -0.0558,67.736198 -0.11165,135.472398 -0.16747,203.208598 -30.93519,0.0894 -61.871784,-0.15823 -92.805946,0.16005 -4.779681,0.1062 -9.572065,0.77269 -14.096398,2.35948 -9.413084,3.13997 -17.627388,9.6197 -22.980766,17.96307 -4.587347,7.04642 -7.157656,15.44441 -6.960394,23.87281 -0.253025,16.13448 -0.142107,32.27168 -0.177588,48.40748 -0.0045,46.08617 0.04746,92.17319 0.125284,138.25877 0.196656,2.89135 1.292757,5.61264 2.088276,8.37247 2.633327,7.92712 7.509473,15.10559 14.01261,20.36368 6.243564,5.07354 13.83297,8.53411 21.794424,9.74914 3.16012,0.33197 6.342734,0.0693 9.512993,0.16516 64.850765,0.16666 129.701815,0.13898 194.552735,0.16998 54.50898,0.003 109.01811,0.0126 163.5269,-0.13599 6.24957,-0.039 12.5039,-0.0243 18.74929,-0.22756 7.34015,-0.72488 14.27138,-3.84346 20.28423,-8.01608 6.00466,-4.24843 10.81399,-10.11204 13.90982,-16.77706 1.84748,-3.94545 3.25284,-8.1147 4.09313,-12.38914 0.37072,-3.14443 0.0643,-6.31505 0.16437,-9.47126 0,-143.15456 0,-286.30912 0,-429.463676 -1.63501,-6.634213 -3.84134,-13.271334 -7.85073,-18.88167 -6.6663,-9.6510328 -17.3171,-16.580588 -28.95163,-18.34554771 -4.44273,-0.56548699 -8.93259,-0.30953663 -13.3976,-0.45211159 -19.91613,-0.1527861 -39.83312,-0.088608 -59.74965,-0.1056089 -12.06823,0.00448 -24.13646,0.00897 -36.20469,0.013454 z M 256.13672,35.880859 c 57.11853,0.03419 114.23719,0.04061 171.35547,0.232422 -9.91689,10.959691 -19.78544,21.963135 -29.69922,32.927735 -48.35482,0 -96.70964,0 -145.06445,0 -9.951,-11.068516 -19.98696,-22.058396 -29.98633,-33.082032 11.13134,-0.06815 22.26303,-0.0564 33.39453,-0.07813 z M 200.6543,66.992188 c 8.55626,9.354806 17.00829,18.80607 25.58398,28.144531 -0.0508,61.669921 -0.10156,123.339841 -0.15234,185.009761 -9.00664,-8.74295 -18.01009,-17.48922 -27.04297,-26.20507 0.0111,-62.89714 0.0221,-125.79427 0.0332,-188.69141 0.52604,0.580729 1.05209,1.161458 1.57813,1.742188 z m 249.73047,55.066402 c 0.0186,90.98178 -0.0237,181.9636 -0.15189,272.94529 -0.0245,18.86983 -0.075,37.73961 -0.1196,56.6094 -8.49916,-7.76561 -16.98485,-15.54609 -25.42578,-23.375 0,-111.14323 0,-222.28646 0,-333.429686 8.52882,-9.503872 17.10684,-18.964953 25.64844,-28.455078 0.0163,18.568359 0.0326,37.136714 0.0488,55.705074 z m -62.79102,140.07422 c 0,52.01367 0,104.02735 0,156.04102 -89.85156,0 -179.70312,0 -269.55469,0 0,-24.92774 0,-49.85547 0,-74.78321 40.65256,-0.0198 81.30549,0.0438 121.95773,-0.12588 3.38423,-0.0799 6.81616,-0.0115 10.13993,-0.73154 7.15032,-1.88027 12.49976,-8.67275 13.0957,-15.97851 0.28017,-3.2242 0.12434,-6.46559 0.22632,-9.69722 0.19836,-26.22709 0.14285,-52.45524 0.1834,-78.68286 0.0318,-43.97486 0.0192,-87.94974 0.0219,-131.92461 41.3099,-0.0508 82.61979,-0.10156 123.92969,-0.15234 0,52.01172 0,104.02343 0,156.03515 z m -195.33203,37.01758 c 2.44456,2.38226 4.88934,4.76431 7.33398,7.14649 -30.59566,0.0649 -61.1914,0.0428 -91.78711,0.0469 -7.65174,-8.55713 -15.334182,-17.08204 -23.007809,-25.61914 24.273629,-0.11286 48.547669,-0.0421 72.821489,-0.0674 5.18515,-3.2e-4 10.37031,-6.5e-4 15.55546,-9.8e-4 6.36133,6.16471 12.72266,12.32943 19.08399,18.49414 z M 69.703125,319.58594 c 3.747396,4.15885 7.494792,8.31771 11.242187,12.47656 -0.0098,32.45703 -0.01953,64.91406 -0.0293,97.37109 -6.321358,6.57691 -12.643594,13.15296 -18.978516,19.7168 -0.187052,-40.88485 -0.235925,-81.77024 -0.244141,-122.65547 0.0033,-5.26393 0.01212,-10.52786 0.01758,-15.7918 2.664062,2.96094 5.328125,5.92188 7.992187,8.88282 z m 290.164065,8.01758 c -8.05298,0.25833 -15.66314,6.37361 -17.23507,14.34681 -0.52446,2.88342 -0.32743,5.83152 -0.45911,8.74602 -0.0315,2.03595 -0.035,4.07219 -0.0363,6.10834 -14.79688,0 -29.59375,0 -44.39063,0 2.18429,-7.35725 -0.63125,-16.00449 -6.99652,-20.39166 -4.50002,-3.16592 -10.43082,-4.22519 -15.75152,-2.84467 -4.66509,1.38492 -8.16691,4.95684 -11.57551,8.23731 -6.54812,6.33271 -12.95997,12.80645 -19.25285,19.39229 -2.49036,2.60461 -4.95947,5.44423 -5.95094,8.99149 -1.70926,5.51405 -0.77672,11.97687 3.04608,16.41244 2.61746,3.18226 5.61133,6.02599 8.44072,9.01531 6.43845,6.56918 12.973,13.06138 19.90312,19.11334 4.09169,3.24242 9.74486,4.01942 14.7268,2.75882 5.67596,-1.40439 10.67148,-5.55193 12.78293,-11.04753 1.62219,-3.96439 1.87189,-8.50683 0.55152,-12.59417 22.52865,0.0162 45.05729,0.0331 67.58594,0.0488 4.10558,-1.67564 8.24636,-3.95043 10.70508,-7.77929 2.4301,-3.36085 3.31995,-7.60598 3.14191,-11.69719 0.19795,-10.24617 0.0718,-20.49516 0.10027,-30.74227 0.008,-1.12681 -0.10708,-2.26467 -0.67579,-3.26067 -1.64542,-3.88409 -4.03823,-7.66421 -7.7318,-9.88185 -3.22129,-2.08126 -7.10105,-3.09854 -10.92834,-2.93169 z m 39.42187,127.93945 c 7.4157,6.80959 14.8782,13.56788 22.29883,20.37305 -85.8912,0.13595 -171.78255,0.12763 -257.67383,0.10664 -25.36785,-0.005 -50.73569,-0.0281 -76.103513,-0.0676 6.514323,-6.79623 13.028643,-13.59245 19.542973,-20.38867 97.31185,-0.0221 194.62369,-0.0299 291.93554,-0.0234 z" />
      <g
         id="g2108">
        <path
           id="path1032"
           style="fill:#000000;stroke-width:0.341405"
           d="m 323.40966,8.8868537 -123.23964,0.08949 -2.63948,0.75124 C 185.02968,13.28263 176.16574,22.182658 172.71319,34.647543 l -0.91809,3.308788 -0.0897,107.656299 -0.0897,107.65423 -12.73,0.0374 c -7.00125,0.0198 -30.11164,0.0107 -51.35821,-0.0188 -25.631804,-0.0354 -39.724136,0.0713 -41.879025,0.31424 -8.301009,0.93589 -15.183249,4.18852 -20.880048,9.87017 -5.480551,5.46599 -8.981302,12.60501 -9.8777,20.14198 -0.278722,2.34847 -0.355825,28.97281 -0.281684,96.83095 l 0.102238,93.59084 0.934771,3.38371 c 2.777843,10.04738 9.267404,17.87447 18.549378,22.37073 2.940867,1.4246 6.58005,2.60326 9.744161,3.15479 0.470057,0.0819 86.567859,0.17004 191.329849,0.19561 133.59061,0.0326 191.27589,-0.0626 193.15139,-0.31838 5.36528,-0.73165 10.79988,-3.07158 15.91407,-6.85274 5.62721,-4.16039 10.03718,-10.88805 12.14369,-18.52504 l 0.93895,-3.40868 V 255.99504 37.956325 l -0.93902,-3.408676 C 472.82882,21.315724 462.62437,11.778693 449.49327,9.3280257 c -2.54316,-0.47463 -15.7835,-0.520987 -126.08361,-0.441172 z m 2.56436,17.0308933 c 105.91539,0.09293 120.50707,0.167914 121.77281,0.618057 l 1.43762,0.509844 -5.88196,6.509364 c -3.23521,3.580157 -7.13365,7.877137 -8.66333,9.547623 -1.52973,1.670481 -6.29858,6.96006 -10.59756,11.755561 -4.29902,4.795497 -10.96452,12.199891 -14.81238,16.452375 l -6.99617,7.73091 h -76.98097 -76.98305 l -4.03954,-4.517848 c -2.22264,-2.484679 -5.37293,-5.974414 -7.00036,-7.755882 -1.62743,-1.781468 -6.17013,-6.776308 -10.0947,-11.097965 -3.92457,-4.321655 -11.36733,-12.514352 -16.53795,-18.206658 -5.17063,-5.692307 -9.44572,-10.464318 -9.50212,-10.604769 -0.4013,-0.998958 5.7067,-1.045178 124.87966,-0.940612 z m -136.89607,13.403713 1.10169,1.213221 c 1.9232,2.118048 16.42633,18.123087 17.88586,19.738273 0.77033,0.852483 3.1558,3.470347 5.29982,5.816391 2.14403,2.346045 6.51231,7.171151 9.70869,10.723387 3.19639,3.55224 7.46598,8.252201 9.48752,10.444532 h 0.002 l 3.67441,3.987193 -0.0856,106.262043 -0.0856,106.26203 -9.40196,-9.1231 c -5.17063,-5.01843 -14.86251,-14.42938 -21.53731,-20.91195 -6.67481,-6.48256 -13.02249,-12.62596 -14.10713,-13.65343 l -1.97178,-1.86874 0.004,-83.87465 c 0.003,-46.13064 0.0113,-95.379667 0.0167,-109.443888 z m 270.89602,1.419241 0.25666,1.498319 c 0.3437,2.007931 0.11795,429.14794 -0.22744,430.34429 -0.14888,0.51569 -0.38304,0.93853 -0.52163,0.93853 -0.13858,0 -4.39887,-3.79725 -9.46665,-8.43845 -5.06779,-4.64119 -13.97493,-12.79346 -19.79297,-18.11718 -5.818,-5.3237 -11.69234,-10.75112 -13.0555,-12.05938 l -2.47881,-2.37858 V 261.75317 90.98017 l 5.8757,-6.56555 c 3.23233,-3.611136 7.43131,-8.254839 9.32894,-10.317592 1.89763,-2.062752 5.35473,-5.898449 7.68474,-8.523771 2.33001,-2.625321 4.40338,-4.92549 4.60709,-5.113013 0.20372,-0.187523 1.59187,-1.72305 3.08392,-3.410757 1.49201,-1.687707 5.41097,-6.045936 8.70923,-9.687049 z m -62.37931,55.34624 V 262.13191 428.17479 H 252.8177 108.03865 v -47.39266 -47.39058 l 69.31292,-0.009 c 68.99208,-0.007 69.31733,-0.01 70.84861,-0.7013 2.83685,-1.28075 4.35633,-3.28401 5.08282,-6.7029 0.27354,-1.28729 0.37868,-33.57126 0.37975,-115.75139 l 0.002,-113.967978 71.96491,-0.08532 z M 122.17917,270.65569 h 55.0493 l 3.77873,3.65631 c 24.25324,23.46801 42.92229,41.6881 42.92229,41.88842 0,0.079 -27.1347,0.14359 -60.29904,0.14359 h -60.29904 l -3.714045,-4.17033 C 97.574456,309.88 92.365736,304.07575 88.041218,299.27566 68.499702,277.58517 63.419103,271.91397 63.32819,271.68369 c -0.367649,-0.93144 5.140572,-1.028 58.85098,-1.028 z m -69.920098,14.6856 c 0.124982,0.0134 1.996223,2.02038 4.158483,4.45958 5.160283,5.82123 13.804163,15.44782 27.093776,30.17656 l 7.434354,8.24076 -0.01464,52.62013 -0.01464,52.62221 -7.035828,7.32929 c -7.967001,8.29976 -12.058075,12.54568 -18.228049,18.92251 -2.358723,2.4378 -6.246037,6.4657 -8.638294,8.95037 -2.392257,2.48468 -4.409842,4.51786 -4.483983,4.51786 -0.07415,0 -0.257615,-0.34597 -0.408963,-0.7679 -0.324403,-0.90426 -0.621539,-180.99939 -0.304635,-184.62411 0.118871,-1.35954 0.317377,-2.46069 0.442347,-2.44726 z M 360.02642,337.6139 c -1.15763,0.0933 -2.32554,0.41611 -3.4407,0.98847 -1.77357,0.91027 -3.58563,3.09295 -4.10006,4.94029 -0.20977,0.75333 -0.35471,5.74285 -0.35471,12.26541 l -0.004,10.99599 h -37.67454 -37.67673 l 5.15793,-5.20041 c 2.83639,-2.85973 5.41921,-5.7144 5.74009,-6.34497 0.88146,-1.73216 1.05334,-4.46132 0.4027,-6.36577 -1.19962,-3.51131 -3.84903,-5.57268 -7.54285,-5.86842 -3.93441,-0.31496 -4.1916,-0.11655 -18.48052,14.16536 -8.43656,8.4324 -12.97159,13.217 -13.6314,14.38178 -1.24026,2.18942 -1.36417,5.18693 -0.31089,7.53114 1.00811,2.24369 26.46392,27.52969 28.5314,28.34112 2.30868,0.90607 4.94245,0.78693 7.13599,-0.32255 4.16091,-2.10459 5.95416,-7.33987 3.89765,-11.38307 -0.32072,-0.63056 -2.98705,-3.5687 -5.92369,-6.52809 l -5.33946,-5.37939 43.34377,0.0333 43.34379,0.0332 1.51483,-0.73251 c 1.71828,-0.82963 3.05895,-2.26759 3.96861,-4.25772 0.57591,-1.26009 0.62169,-2.63322 0.62596,-18.06932 l 0.004,-16.70625 -0.80539,-1.72931 c -1.53396,-3.28549 -4.90874,-5.0683 -8.38166,-4.78838 z m -95.95599,107.92475 139.1099,0.004 1.05371,0.976 c 2.72359,2.52358 17.69578,16.17914 19.54049,17.82167 1.14378,1.01848 4.29801,3.91055 7.0087,6.4282 5.78714,5.37515 7.42255,6.88525 12.4045,11.44549 3.41951,3.1301 3.65236,3.41859 2.90656,3.62719 -0.85544,0.23932 -378.094331,0.28676 -380.038987,0.0478 -0.622494,-0.0765 -1.085016,-0.27722 -1.02658,-0.44534 0.05842,-0.16816 2.875224,-3.1896 6.259632,-6.71537 3.384409,-3.52578 11.924183,-12.43016 18.975032,-19.78615 l 12.819723,-13.37457 10.93767,-0.0166 c 6.01672,-0.01 73.53939,-0.0157 150.04965,-0.0125 z" />
        <path
           id="path1312"
           style="fill:#666666;stroke-width:4.92115"
           d="m 53.509766,286.63281 c -1.579601,0.43602 -1.949288,2.26185 -2.110084,3.67294 -0.526592,4.96408 -0.483781,9.9675 -0.598345,14.95318 -0.220673,19.37698 -0.155296,38.75577 -0.175416,58.13365 0.0039,37.67969 0.023,75.35937 0.03424,113.03906 13.80633,-13.98729 27.613613,-27.97363 41.419922,-41.96094 0,-35.7194 0,-71.4388 0,-107.1582 -12.006574,-13.30532 -23.968709,-26.64937 -36.039062,-39.89648 -0.635757,-0.66085 -1.626377,-1.08653 -2.53125,-0.78321 z" />
        <path
           id="path1694"
           style="fill:#b3b3b3;stroke-width:4.92115"
           d="m 397.16602,93.732422 c -39.16791,0.618038 -78.33499,1.37308 -117.50781,1.593121 -9.02407,0.01868 -18.04818,0.0036 -27.07227,0.0084 -0.22269,77.348957 -0.44505,154.697917 -0.66797,232.046877 -1.4461,1.44778 -2.89272,2.89504 -4.33985,4.3418 -47.12043,0.23551 -94.24087,0.47005 -141.36132,0.70312 0,32.33333 0,64.66667 0,97 97.6608,0 195.32161,0 292.98242,0 0,-111.90885 0,-223.81771 0,-335.726562 -0.67774,0.01107 -1.35547,0.02214 -2.0332,0.0332 z M 361.31055,339.08984 c 2.33779,0.1925 3.95788,2.10676 5.7578,3.38488 0.61333,0.3045 0.2015,1.10708 0.32032,1.65184 -0.0339,9.38434 0.0839,18.77046 -0.1036,28.15348 -0.12189,2.40221 -0.0518,4.87509 -0.78312,7.19066 -0.40226,1.22991 -1.78881,1.49394 -2.90871,1.64302 -2.16236,0.31398 -4.43239,0.39602 -6.51415,0.48674 -8.2258,0.28127 -16.63895,0.24576 -24.94432,0.28638 -19.97786,0.023 -39.95573,0.007 -59.9336,0.0116 3.53862,3.63283 7.16532,7.18231 10.64412,10.87191 1.77503,2.0529 3.64351,4.32184 4.00035,7.10474 0.20429,2.12094 -1.1122,4.18509 -2.84955,5.30264 -1.79459,0.94384 -3.97651,1.13354 -5.93297,0.65653 -2.30953,-0.86599 -4.06075,-2.70857 -5.88934,-4.29283 -5.32718,-5.00054 -10.42496,-10.23904 -15.57905,-15.41623 -2.39336,-2.55293 -4.99027,-5.02519 -6.66114,-8.13887 -0.8354,-1.49976 -0.88568,-3.3707 -0.0615,-4.88614 1.52462,-2.97013 3.96643,-5.32593 6.22072,-7.74096 5.01341,-5.06923 10.02629,-10.14172 15.18392,-15.06488 2.01848,-1.82057 3.96326,-3.83064 6.41895,-5.06089 1.71155,-0.71557 3.68171,-0.4912 5.42751,-0.0163 1.8747,0.49979 3.37111,2.18278 3.45953,4.14952 0.22072,3.26883 -1.48498,6.29806 -3.37513,8.83683 -2.57807,3.20668 -5.21136,6.36896 -7.81109,9.55823 25.85352,0 51.70704,0 77.56055,0 0.26045,-6.46279 0.35986,-12.93361 0.75641,-19.38992 0.23551,-2.34675 0.29092,-4.83973 1.4373,-6.96068 1.01037,-1.62489 3.09469,-1.87606 4.80629,-2.2451 0.44798,-0.0678 0.9005,-0.1038 1.35352,-0.0762 z" />
        <path
           style="fill:#666666;stroke-width:4.92115"
           d="M 87.661742,297.89229 C 78.68397,287.83585 69.802612,277.77214 67.925391,275.52849 l -3.41313,-4.07937 h 56.490019 56.49003 l 22.49358,22.35081 22.49357,22.3508 -59.24725,0.013 -59.24725,0.013 z"
           id="path1499" />
        <path
           id="path1538"
           style="fill:#666666;stroke-width:4.92115"
           d="m 187.83398,41.234375 c -0.20789,72.339195 -0.41603,144.678385 -0.62109,217.017575 16.44804,15.92045 32.89469,31.84233 49.34375,47.76172 0.21021,-71.88021 0.42283,-143.76042 0.63477,-215.640623 -16.44743,-18.096861 -32.8951,-36.193495 -49.3418,-54.291016 -0.005,1.717448 -0.0104,3.434896 -0.0156,5.152344 z" />
        <path
           id="path1577"
           style="fill:#666666;stroke-width:4.92115"
           d="m 294.44922,24.158203 c -24.34483,0.05633 -48.69116,0.09599 -73.03322,0.49862 -4.9712,0.114024 -9.9567,0.128915 -14.8976,0.756265 -2.62468,0.270005 -5.2493,0.540503 -7.87387,0.811521 16.11205,17.872983 32.22466,35.745462 48.33594,53.619141 52.18359,0.0025 104.36719,0.0053 156.55078,0.0078 16.19687,-18.055896 32.3903,-36.114874 48.58594,-54.171874 -18.60591,-0.352042 -37.21033,-0.791505 -55.81749,-1.072149 -33.94815,-0.419253 -67.90016,-0.470222 -101.85048,-0.449336 z" />
        <path
           id="path1616"
           style="fill:#666666;stroke-width:4.92115"
           d="m 457.98633,41.066406 c -14.88366,16.433416 -29.76575,32.868256 -44.65039,49.300782 0,114.218102 0,228.436202 0,342.654292 12.3281,11.38898 24.52668,22.92004 37.0113,34.13712 2.15128,1.85367 4.18703,3.86319 6.50042,5.51523 0.56938,0.32657 1.15009,0.41052 1.74822,0.10245 1.25083,-0.40992 1.62574,-1.89232 1.79655,-3.06951 0.65634,-4.8119 0.69064,-9.68333 0.87438,-14.52957 0.47368,-18.60917 0.50441,-37.22598 0.60177,-55.83995 0.17851,-58.38755 0.0174,-116.77542 -0.0672,-175.163 -0.11422,-62.31459 -0.22765,-124.629188 -0.34237,-186.943781 -1.15755,1.278646 -2.3151,2.557291 -3.47265,3.835937 z" />
        <path
           id="path1655"
           style="fill:#666666;stroke-width:4.92115"
           d="m 102.49219,444.17969 c -10.836011,11.38475 -21.810606,22.63705 -32.464244,34.19214 -1.579196,1.79357 -3.312869,3.47303 -4.692008,5.42895 -0.293757,0.75906 -0.587221,1.51824 -0.88086,2.27734 1.303509,0.38428 2.600786,0.8538 3.981912,0.7676 11.904798,0.24611 23.813252,0.24723 35.71999,0.33159 85.28642,0.38746 170.57398,0.26451 255.86099,0.28753 29.73164,0 59.46328,0 89.19492,0 -2.79569,-3.06356 -5.44637,-6.26931 -8.51638,-9.06932 -12.39674,-11.76714 -25.06452,-23.24483 -37.62815,-34.83302 -99.99544,0 -199.99089,0 -299.98633,0 -0.19661,0.20573 -0.39323,0.41146 -0.58984,0.61719 z" />
      </g>
    </g>
  </g>
</svg>
