<?xml version="1.0" encoding="UTF-8" standalone="no"?>
<!-- Created with Inkscape (http://www.inkscape.org/) -->

<svg
   version="1.1"
   id="svg80"
   width="512"
   height="512"
   viewBox="0 0 512 512"
   sodipodi:docname="cryptomobile.svg"
   inkscape:version="1.2.2 (b0a8486541, 2022-12-01)"
   xmlns:inkscape="http://www.inkscape.org/namespaces/inkscape"
   xmlns:sodipodi="http://sodipodi.sourceforge.net/DTD/sodipodi-0.dtd"
   xmlns="http://www.w3.org/2000/svg"
   xmlns:svg="http://www.w3.org/2000/svg"
   xmlns:rdf="http://www.w3.org/1999/02/22-rdf-syntax-ns#"
   xmlns:cc="http://creativecommons.org/ns#"
   xmlns:dc="http://purl.org/dc/elements/1.1/">
  <sodipodi:namedview
     id="namedview14159"
     pagecolor="#505050"
     bordercolor="#eeeeee"
     borderopacity="1"
     inkscape:pageshadow="0"
     inkscape:pageopacity="0"
     inkscape:pagecheckerboard="0"
     showgrid="false"
     inkscape:zoom="0.65186406"
     inkscape:cx="343.62993"
     inkscape:cy="255.42135"
     inkscape:window-width="1366"
     inkscape:window-height="695"
     inkscape:window-x="0"
     inkscape:window-y="24"
     inkscape:window-maximized="1"
     inkscape:current-layer="svg80"
     inkscape:showpageshadow="0"
     inkscape:deskcolor="#505050" />
  <metadata
     id="metadata86">
    <rdf:RDF>
      <cc:Work
         rdf:about="">
        <dc:format>image/svg+xml</dc:format>
        <dc:type
           rdf:resource="http://purl.org/dc/dcmitype/StillImage" />
      </cc:Work>
    </rdf:RDF>
  </metadata>
  <defs
     id="defs84" />
  <g
     id="g1415"
     transform="matrix(0.92677961,0,0,0.92052652,18.732956,20.330095)">
    <path
       id="path90-7"
       style="fill:#ffffff;stroke-width:0.945726"
       d="m 322.76758,-11.460938 c -69.64583,0.01218 -139.29167,0.005 -208.9375,0.0039 C 106.01099,-7.7368954 97.844888,-4.2833808 91.341057,1.5881811 83.255326,8.5719555 77.4342,17.844504 73.380859,27.654297 71.822004,31.763619 71.496453,36.220682 71.723719,40.576164 71.617896,59.186193 71.512073,77.796221 71.40625,96.40625 58.997118,92.101337 44.848726,93.069053 33.184399,99.132246 c -9.854364,5.034204 -17.967346,13.587084 -22.01283,23.932044 -5.5555389,13.73909 -4.7428797,29.94396 2.351869,42.97868 -9.6691125,6.14506 -16.9899915,15.90051 -20.0803394,26.9432 -3.6838866,12.56436 -2.4386753,26.69051 4.176042,38.08024 1.79987011,3.04064 3.9511898,5.86747 6.359375,8.45117 -5.0515491,5.40051 -9.1509614,11.8734 -10.9087673,19.11661 -1.8591755,7.28318 -2.0925171,14.95937 -0.8939671,22.36972 1.5866019,9.29338 5.941223,18.15837 12.6549364,24.81931 2.6853943,2.72598 5.7008544,5.12333 8.9368604,7.16311 -6.6749746,11.87247 -8.2502904,26.5633 -3.9279677,39.51199 3.7207757,11.47925 11.9203137,21.50782 22.6396357,27.12223 11.783595,6.33645 26.247991,7.58978 38.884035,3.11968 0.134789,32.69467 0.269392,65.38933 0.404297,98.08399 4.094812,8.3207 7.890616,16.99267 14.101006,24.00855 6.507783,7.50868 15.315186,12.65759 24.518136,16.16918 4.55409,2.11104 9.66168,2.77926 14.64023,2.45248 91.01641,-0.14602 182.03281,-0.29398 273.04922,-0.43881 7.68988,-3.72062 15.77045,-7.05595 22.23438,-12.79396 7.69578,-6.5482 13.30701,-15.22329 17.34727,-24.41416 2.1327,-4.37149 2.77418,-9.32987 2.46881,-14.14695 0.1212,-29.6681 0.2424,-59.3362 0.3636,-89.0043 12.16617,4.35445 26.14134,3.64073 37.64153,-2.34172 12.66701,-6.45952 22.21425,-18.74295 25.23242,-32.65141 2.60564,-11.68496 0.66822,-24.28654 -5.23918,-34.69046 8.80376,-5.57018 15.99018,-13.93008 19.41136,-23.83791 3.85316,-10.90055 3.79262,-23.08175 0.14621,-34.02721 -2.0412,-5.88093 -5.62339,-11.12487 -9.8564,-15.6466 8.85238,-9.75681 13.79812,-23.16571 12.62812,-36.35967 -1.18525,-14.86591 -9.55281,-29.0671 -22.2121,-37.02315 5.68863,-10.56979 7.63257,-23.18413 5.08047,-34.93715 -1.89862,-8.71612 -6.43334,-16.79291 -12.75235,-23.07312 -8.98842,-9.01122 -21.57556,-14.434523 -34.34023,-14.364638 -5.3555,-0.02136 -10.71417,0.863487 -15.78086,2.597569 -0.12027,-21.837891 -0.24194,-43.675776 -0.36133,-65.513672 -3.88549,-8.011522 -7.47978,-16.375387 -13.48417,-23.08462 -7.01836,-8.18682125 -16.38595,-14.1555172 -26.4464,-17.894229 -2.94343,-1.041398 -6.08149,-1.402057 -9.19169,-1.288363 -22.73269,0.0064 -45.46537,0.01278 -68.19805,0.01916 z M 183.98633,52.728516 c -0.37708,0.181644 -1.09494,0.02251 -1.6,0.07617 -15.38138,-0.0013 -30.76797,0.0026 -46.1461,-0.002 0.4145,-0.182663 1.16034,-0.02565 1.70196,-0.07799 15.34804,0.0013 30.69609,0.0025 46.04414,0.0038 z m 191.6289,0 c -0.40388,0.183339 -1.16234,0.02128 -1.69804,0.07617 -15.33177,-0.0026 -30.67396,0.0052 -45.99922,-0.0039 0.37752,-0.179905 1.09902,-0.01583 1.6,-0.07227 15.36575,0 30.73151,0 46.09726,0 z m 96.78516,153.906254 c 0.39109,0.18611 0.28841,1.14334 -0.24023,0.77148 -0.4523,-0.22303 -0.2104,-0.85704 0.24023,-0.77148 z m -432.796874,0.0566 c 0.431725,0.23298 -0.347773,0.73567 -0.441407,0.19531 0.125711,-0.10662 0.265074,-0.21617 0.441407,-0.19531 z M 472.2793,272.12695 c -0.31247,0.25853 -0.15545,-0.51119 0,0 z M 55.488281,336.58398 c 0.423218,0.0361 0.518895,0.87223 -0.03516,0.62891 -0.370968,-0.0344 -0.590553,-0.54515 -0.101563,-0.61328 0.04398,-0.003 0.09109,-0.0294 0.136719,-0.0156 z m 400.966799,0.0488 c 0.62133,-0.0181 0.20817,1.02011 -0.25183,0.59391 -0.64224,-0.17747 -0.20717,-0.67984 0.25183,-0.59391 z m -319.94531,5.77539 c 8.98085,14.55369 20.65813,27.30297 33.64884,38.36759 5.31957,4.54582 10.86485,8.82547 16.59334,12.84335 -16.85547,0 -33.71093,0 -50.5664,0 0,-17.24935 0,-34.4987 0,-51.74805 0.10807,0.17904 0.21614,0.35808 0.32422,0.53711 z m 239.16015,51.21094 c -16.85742,0 -33.71484,0 -50.57226,0 17.02514,-12.0088 32.72274,-26.21009 44.91211,-43.19141 1.98505,-2.78273 3.8805,-5.63015 5.66015,-8.54882 0,17.24674 0,34.49349 0,51.74023 z m -168.10156,65.13672 c -0.0532,0.49544 -0.99767,0.0794 -1.40391,0.21468 -19.107,-0.0317 -38.21429,-0.0464 -57.3207,-0.21468 19.57487,0 39.14974,0 58.72461,0 z m 168.04492,0 c -0.5418,0.15181 -1.35581,0.0236 -2.00195,0.0681 -23.1009,0.0452 -46.20181,0.0802 -69.30274,0.10772 0.1294,-0.42485 1.06762,-0.0487 1.49805,-0.17578 23.26888,0 46.53776,0 69.80664,0 z" />
    <g
       id="g1387"
       transform="translate(0,1.4e-5)">
      <path
         style="fill:#000000;stroke-width:0.945726"
         d="m 115.59726,497.1544 c -7.97011,-3.32783 -13.10193,-8.29322 -17.263095,-16.70324 l -2.590695,-5.23599 -0.265913,-64.9739 -0.265922,-64.9739 h -8.405314 -8.405314 l -1.856888,3.68825 c -6.452532,12.81632 -24.217875,16.49587 -35.932087,7.44223 -14.450994,-11.16883 -11.304826,-34.82097 5.608056,-42.16012 4.453346,-1.93247 13.765041,-1.99327 18.181422,-0.11868 4.546275,1.92969 10.579921,7.55554 12.499573,11.65473 l 1.549891,3.30962 h 8.411371 8.41138 V 304.80744 280.53148 H 79.030986 62.788247 l -3.251779,4.88776 c -4.803626,7.22034 -11.519488,10.82223 -20.162684,10.81378 -5.492604,-0.006 -7.390036,-0.46214 -11.512884,-2.77153 -8.295263,-4.64656 -12.444235,-11.8141 -12.444235,-21.498 0,-3.17522 0.654802,-7.36587 1.455113,-9.31256 1.835734,-4.46523 7.288008,-10.23397 12.167559,-12.8738 5.260907,-2.84612 15.401844,-2.84039 20.732971,0.0117 3.821184,2.0443 9.655508,7.87026 11.635117,11.61842 1.00338,1.8998 1.779926,1.98824 17.45819,1.98824 h 16.40811 V 239.59555 215.79558 H 78.362819 c -14.51053,0 -16.910915,0.20557 -16.910915,1.44823 0,0.79651 -2.219555,3.75498 -4.932346,6.57434 -3.794895,3.94399 -6.109121,5.47611 -10.03521,6.64378 -6.356463,1.89046 -7.864674,1.89046 -14.221137,0 -6.338704,-1.8852 -13.926077,-9.26026 -15.691903,-15.2528 -3.975666,-13.49195 2.38428,-27.02785 14.696634,-31.27893 11.066465,-3.82091 23.130342,0.59995 28.91055,10.59439 l 2.391452,4.13503 h 16.35189 16.351891 v -24.27597 -24.27596 h -8.436359 -8.436359 l -1.812047,3.57 c -6.988565,13.76852 -26.641145,16.93653 -38.038626,6.13187 -9.662709,-9.16013 -9.32641,-27.46232 0.661621,-36.00668 12.038438,-10.29842 30.463856,-7.0691 37.377005,6.55085 l 1.812047,3.56999 h 8.396361 8.396362 L 95.468595,85.133799 95.74347,36.343873 98.284355,31.10148 c 3.316685,-6.843031 9.342375,-12.981508 15.779265,-16.074589 l 5.16722,-2.482979 h 136.69649 136.69649 l 5.16723,2.482979 c 6.43687,3.093081 12.46258,9.231558 15.77925,16.074589 l 2.5409,5.242393 0.27487,48.789926 0.27487,48.789921 h 8.39636 8.39636 l 1.81205,-3.56999 c 9.05382,-17.83741 35.0347,-16.55648 43.44653,2.14199 3.74146,8.31684 1.2252,21.02573 -5.40791,27.31384 -11.39748,10.80466 -31.05007,7.63665 -38.03862,-6.13187 l -1.81205,-3.57 h -8.43636 -8.43635 v 24.27596 24.27597 h 16.35188 16.35189 l 2.39145,-4.13503 c 9.57114,-16.54928 33.88953,-15.69537 42.33926,1.48668 4.68884,9.53449 2.94095,20.17405 -4.60392,28.02467 -4.64747,4.83581 -11.27133,7.94362 -16.93063,7.94362 -1.10423,0 -4.30398,-0.68293 -7.11057,-1.51763 -3.92608,-1.16767 -6.24032,-2.69979 -10.03521,-6.64378 -2.71279,-2.81936 -4.93235,-5.77783 -4.93235,-6.57434 0,-1.24266 -2.40037,-1.44823 -16.9109,-1.44823 h -16.9109 v 23.79997 23.79996 h 16.4081 c 15.67828,0 16.45481,-0.0884 17.45819,-1.98822 1.99343,-3.77432 7.82497,-9.57991 11.63511,-11.58333 5.39692,-2.83775 15.55019,-2.86327 20.73298,-0.0521 4.8834,2.64877 10.33324,8.41732 12.16756,12.87908 0.80032,1.94665 1.45511,6.1373 1.45511,9.31252 0,9.6839 -4.14897,16.85144 -12.44424,21.498 -4.12285,2.30939 -6.02028,2.76616 -11.51288,2.77153 -8.64319,0.009 -15.35907,-3.59344 -20.16268,-10.81378 l -3.25178,-4.88776 h -16.24274 -16.24273 v 24.27596 24.27596 h 8.41136 8.41138 l 1.54989,-3.30962 c 1.91965,-4.09919 7.9533,-9.72504 12.49958,-11.65473 4.41637,-1.87459 13.72807,-1.81379 18.18141,0.11868 12.95134,5.62008 18.65272,21.49724 12.20825,33.99753 -8.62575,16.73134 -31.18901,17.82595 -41.48807,2.01271 l -3.24384,-4.9806 h -8.23393 -8.23396 l -0.26591,64.9739 -0.26591,64.9739 -2.61303,5.39179 c -3.34839,6.90917 -9.16498,12.81139 -15.70712,15.93837 l -5.16723,2.4698 -135.757,0.22047 -135.757,0.22049 z m 277.18342,-16.85629 c 6.30299,-4.22686 6.88936,-6.55563 6.88936,-27.36079 v -18.1821 H 255.92733 112.18463 v 18.1821 c 0,14.80348 0.28339,18.78725 1.52507,21.43872 1.65005,3.52351 5.50353,6.74932 9.55285,7.99682 1.39961,0.43119 61.76389,0.71071 134.14283,0.62115 l 131.5981,-0.16285 z m -158.53399,-15.9577 c -1.51043,-1.53052 -2.74622,-3.69379 -2.74622,-4.80727 0,-2.75871 2.41257,-7.2804 4.26981,-8.00257 0.83646,-0.32526 9.90714,-0.59137 20.15705,-0.59137 10.24993,0 19.32059,0.26611 20.15705,0.59137 1.85724,0.72217 4.26982,5.24386 4.26982,8.00257 0,1.11348 -1.23579,3.27675 -2.74622,4.80727 l -2.74621,2.78277 H 255.92733 236.9929 Z M 399.67004,255.77953 V 93.939783 H 255.92733 112.18463 V 255.77953 417.61926 h 143.7427 143.74271 z M 247.47189,400.17771 c -10.7927,-4.66613 -31.85549,-16.04313 -41.33778,-22.32848 -32.65531,-21.64559 -53.33104,-46.84038 -60.35586,-73.54778 l -2.12054,-8.06199 v -84.25187 -84.25186 l 2.55125,-4.90166 c 3.16322,-6.07737 8.23843,-10.43059 14.29529,-12.26165 6.93826,-2.09753 183.9079,-2.09753 190.84616,0 6.05687,1.83106 11.13208,6.18428 14.29528,12.26165 l 2.55127,4.90166 v 84.25186 84.25187 l -2.12055,8.06199 c -8.1824,31.10835 -34.83543,60.06042 -77.06864,83.71641 -13.46325,7.54114 -27.4477,13.65062 -32.14095,14.04162 -2.95681,0.24636 -5.78105,-0.31933 -9.39493,-1.88177 z m 22.91722,-21.42421 c 44.38323,-21.7601 72.1579,-49.23145 79.4884,-78.62034 1.80494,-7.23621 1.87829,-10.68607 1.87829,-88.34112 v -80.81086 l -2.30603,-2.33673 -2.30603,-2.33671 h -91.21641 -91.21641 l -2.30602,2.33671 -2.30603,2.33673 v 80.81086 c 0,77.69593 0.0724,81.09782 1.87907,88.25576 5.93781,23.52557 22.87269,43.83865 53.55112,64.23355 9.13097,6.07024 37.70358,20.96997 40.21328,20.96997 0.76639,0 7.35744,-2.92402 14.64677,-6.49782 z m -25.39006,-15.75423 c -38.88325,-19.17674 -65.07495,-46.36606 -68.92144,-71.54658 -0.67316,-4.40683 -0.92369,-28.71117 -0.74548,-72.32512 l 0.2684,-65.68788 2.16122,-3.522 c 1.18867,-1.93711 3.7253,-4.50752 5.63697,-5.712 l 3.47575,-2.18998 h 69.12147 69.12148 l 3.77741,2.53303 c 7.69807,5.16215 7.32532,1.49296 7.62477,75.05484 0.17501,42.99254 -0.0778,67.46505 -0.74175,71.82471 -3.29252,21.617 -21.34741,43.26581 -51.72089,62.01623 -11.52872,7.117 -25.06537,13.71881 -28.12963,13.71881 -1.36682,0 -6.28453,-1.87382 -10.92828,-4.16406 z M 264.222,345.73851 c 26.08868,-14.19317 44.07706,-30.25634 51.70029,-46.16705 l 3.42094,-7.14 0.30786,-16.18398 0.30786,-16.18397 -18.25753,18.32598 c -16.71934,16.78202 -18.53442,18.32597 -21.54417,18.32597 -4.69393,0 -8.2585,-3.55764 -8.2585,-8.24242 0,-3.39997 1.16228,-4.7543 23.95711,-27.9152 l 23.95712,-24.34185 v -28.97226 -28.97227 l -14.39563,14.47807 c -12.6426,12.715 -14.76793,14.47806 -17.45292,14.47806 -3.69636,0 -8.54972,-4.4317 -8.54972,-7.80692 0,-3.44838 1.84255,-5.68865 19.6135,-23.84703 l 16.53747,-16.89796 h -28.19039 -28.19038 l -10.78886,11.04708 c -11.33314,11.60438 -15.28341,14.28223 -18.96451,12.85589 -4.09132,-1.58532 -5.87486,-4.7777 -5.55521,-9.94339 0.0595,-0.96163 2.71183,-4.49592 5.89406,-7.85398 l 5.78589,-6.1056 h -21.7573 -21.75729 v 22.04686 22.04686 l 6.02541,-5.86288 c 5.28557,-5.14303 6.47668,-5.86289 9.7009,-5.86289 5.4499,0 8.24854,3.52588 7.86924,9.91417 -0.0595,1.0022 -5.39285,7.23424 -11.85187,13.84897 l -11.74368,12.0268 v 28.50919 28.5092 l 28.88947,-29.07521 c 37.25336,-37.49289 39.88009,-39.93316 42.9844,-39.93316 3.63012,0 7.98319,4.74669 7.98319,8.70508 0,2.86333 -3.28423,6.47134 -37.3282,41.00824 -36.92931,37.46403 -37.31332,37.89353 -35.93567,40.19236 3.44215,5.74384 12.76712,16.07659 19.35506,21.44686 l 7.20025,5.86938 13.79496,-13.86703 c 11.68735,-11.74844 14.23131,-13.86704 16.65111,-13.86704 5.81224,0 10.25954,6.64492 7.76776,11.60615 -0.60714,1.20881 -6.18281,7.39709 -12.39038,13.75175 l -11.2865,11.55392 4.10724,2.38964 c 5.08446,2.95822 11.46501,6.30151 12.09295,6.33649 0.25836,0.0144 3.99096,-1.88951 8.29467,-4.23088 z M 61.217036,341.84645 c 5.880583,-6.66892 -2.712664,-16.37556 -9.949824,-11.23898 -3.008956,2.1356 -4.045739,5.40663 -2.831962,8.9348 1.995704,5.8011 8.641777,6.99919 12.781786,2.30418 z m 398.013954,2.09534 c 3.96924,-1.68053 5.84157,-6.24241 4.08311,-9.94838 -1.56563,-3.29956 -5.37031,-5.36173 -8.44815,-4.57896 -7.2888,1.85372 -8.32075,11.1975 -1.6163,14.63513 2.84659,1.45957 2.25417,1.47023 5.98134,-0.10779 z M 44.257562,278.15031 c 3.990919,-2.83255 3.224403,-11.50354 -1.16789,-13.21144 -4.75862,-1.85036 -10.120224,0.76969 -11.29693,5.52043 -0.601967,2.43038 1.607862,7.68369 3.568422,8.48302 2.438435,0.99415 6.945055,0.59294 8.896398,-0.79201 z m 431.939208,0.83781 c 2.22458,-0.86502 4.51277,-5.91414 3.86515,-8.52882 -1.38615,-5.59641 -8.41722,-7.95297 -12.8577,-4.30943 -1.67348,1.37314 -2.1966,2.75763 -2.1966,5.81362 0,3.056 0.52312,4.44049 2.1966,5.81363 2.19355,1.79987 6.11874,2.32846 8.99255,1.211 z M 43.682922,213.62332 c 3.918272,-3.0484 4.628002,-7.76929 1.72939,-11.50332 -1.953211,-2.51615 -6.111791,-3.33343 -9.754416,-1.91702 -2.290147,0.89051 -4.399366,5.69416 -3.714429,8.45946 1.219726,4.92447 8.067018,7.81801 11.739455,4.96088 z m 433.263158,-0.66867 c 3.11128,-2.4799 3.91852,-5.99368 2.16594,-9.42789 -2.37915,-4.66203 -8.49399,-5.44605 -12.3108,-1.57842 -6.60478,6.69266 2.78122,16.87566 10.14486,11.00631 z M 60.584679,147.32493 c 3.60115,-3.64908 3.566788,-7.0042 -0.109905,-10.72982 -2.400903,-2.43285 -3.336264,-2.79682 -5.868578,-2.28362 -6.834426,1.38507 -9.171439,9.11402 -4.093985,13.53958 3.480874,3.03397 6.72643,2.86443 10.072468,-0.52614 z m 400.757781,0.52614 c 5.07745,-4.42556 2.74044,-12.15451 -4.09399,-13.53958 -2.53231,-0.5132 -3.46767,-0.14923 -5.86858,2.28362 -3.67669,3.72562 -3.71106,7.08074 -0.1099,10.72982 3.34605,3.39057 6.59159,3.56011 10.07247,0.52614 z M 399.67004,58.621711 c 0,-20.805295 -0.58638,-23.134027 -6.88956,-27.360785 l -3.77741,-2.533041 H 255.92733 122.85159 l -3.77741,2.533041 c -6.30317,4.226758 -6.88955,6.55549 -6.88955,27.360785 v 18.182101 h 143.7427 143.74271 z M 210.05585,58.416474 c -2.8824,-3.109009 -2.75866,-8.581728 0.26328,-11.643889 l 2.30604,-2.336728 h 23.13259 23.1326 l 2.74621,2.782769 c 2.93117,2.970169 3.41541,5.589223 1.65327,8.941801 -2.25504,4.290347 -2.92275,4.397371 -27.63276,4.429128 -23.42877,0.03012 -23.56971,0.01821 -25.60123,-2.173081 z m 72.1532,-0.202669 c -3.20255,-3.454335 -3.04388,-8.555877 0.35837,-11.52132 2.22552,-1.939779 3.57699,-2.256628 9.62556,-2.256628 6.21821,0 7.3047,0.271754 9.34255,2.336728 3.12123,3.162767 3.18502,8.870619 0.13162,11.777304 -1.85897,1.769645 -3.26631,2.069946 -9.70094,2.069946 -6.83524,0 -7.73137,-0.220978 -9.75716,-2.40603 z"
         id="path90" />
      <path
         id="path1025"
         style="fill:#ff0000;fill-opacity:1;stroke-width:1.92147"
         d="m 257.93907,158.04198 c -5.72132,5.69161 -11.29266,11.54027 -17.1871,17.0527 -2.49157,2.21924 -4.96898,4.58528 -8.02037,6.00763 -1.23812,0.61262 -2.78813,0.57278 -3.8734,-0.34234 -1.81308,-1.39718 -3.67101,-3.37327 -3.56458,-5.83733 0.20829,-2.80789 1.9958,-5.15719 3.66314,-7.29326 2.88419,-3.40943 5.85389,-6.74544 8.77201,-10.12574 -15.61827,0 -31.23655,0 -46.85481,0 0,15.73693 0,31.47386 0,47.21078 3.73544,-3.17442 7.34246,-6.50666 11.19242,-9.54158 1.72727,-1.24888 3.57767,-2.71995 5.79822,-2.77686 2.21051,0.13026 4.68362,1.22015 5.47077,3.4627 0.54681,1.7001 0.70061,3.6247 0.11834,5.33443 -1.06488,2.35655 -2.92041,4.2268 -4.57417,6.17056 -5.91267,6.50578 -12.00542,12.84315 -18.00558,19.2671 0,19.98023 0,39.96046 0,59.94069 16.08179,-16.03192 32.11227,-32.11609 48.23651,-48.1048 6.1006,-5.96416 12.12432,-12.02495 18.59587,-17.5867 2.00702,-1.61481 3.98475,-3.41718 6.43301,-4.31376 1.31495,-0.46069 2.38759,0.71977 3.2991,1.48761 1.53305,1.5534 2.90721,3.59425 2.86551,5.8641 -0.19479,0.79839 -0.94432,1.35458 -1.38452,2.03416 -5.38243,6.39315 -11.16684,12.42871 -16.88714,18.51324 -11.97468,12.64356 -24.31192,25.01582 -36.28413,37.69388 -5.5204,5.84482 -11.06482,11.67168 -16.30843,17.77188 -0.7756,1.0679 -2.0063,2.06162 -2.01641,3.4822 0.22211,2.02457 1.55065,3.69144 2.64683,5.32853 3.82683,5.26289 8.2334,10.08276 12.88683,14.61329 3.75052,3.61662 7.87699,6.80558 11.82349,10.19793 0.43359,-0.0861 0.84409,-0.78963 1.26922,-1.10207 7.28506,-7.05354 14.42291,-14.20498 21.87785,-21.07148 1.69292,-1.51717 3.45155,-3.19472 5.30674,-4.6086 2.12109,-1.48789 5.15918,-1.01854 6.93972,0.79381 1.78708,1.71813 2.65052,4.53244 1.81118,6.91349 -1.23506,2.64517 -3.30739,4.76473 -5.1707,6.96688 -6.20228,6.90419 -12.58343,13.64339 -18.87169,20.46811 5.89409,3.27084 11.78966,6.53901 17.68401,9.80939 7.91512,-4.30991 15.94932,-8.43206 23.4859,-13.40171 11.36662,-7.43581 22.05556,-16.18795 30.47541,-26.94972 3.55792,-4.59869 6.74989,-9.53891 9.04668,-14.90224 1.8015,-4.49711 1.90374,-9.42168 2.22265,-14.19394 0.42581,-8.68303 0.75853,-17.37116 1.1427,-26.05643 -10.00165,9.87578 -19.933,19.82418 -29.99806,29.63461 -2.93782,2.77058 -5.78722,5.68017 -9.09174,8.01521 -1.11235,0.83554 -2.53119,1.23505 -3.90083,0.90994 -2.70175,-0.47259 -5.36047,-2.64721 -5.5675,-5.53275 0.01,-1.96807 1.29833,-3.61462 2.35045,-5.17006 3.48028,-4.66325 7.56954,-8.82007 11.55927,-13.03603 10.40806,-10.74673 21.08051,-21.22965 31.63334,-31.83158 0.83749,-0.83733 1.6748,-1.67484 2.51249,-2.51198 0,-20.51409 0,-41.02817 0,-61.54226 -7.82066,7.67707 -15.5379,15.46195 -23.45683,23.03692 -2.44958,2.26454 -4.95084,4.69775 -7.82618,6.5328 -1.16892,0.74779 -2.73411,1.41874 -4.02785,0.55695 -1.6165,-0.99083 -3.07279,-2.25795 -4.37312,-3.63795 -0.75386,-0.74253 -1.0897,-1.88785 -0.62417,-2.88042 1.09048,-2.71449 3.09312,-4.91893 4.9173,-7.15504 5.91496,-6.83993 12.23651,-13.30841 18.39755,-19.92147 4.25859,-4.52731 8.51679,-9.05499 12.77582,-13.58189 -19.58669,-0.2175 -39.17341,-0.43067 -58.76008,-0.64794 -0.19365,0.19547 -0.3873,0.39094 -0.58094,0.58641 z" />
      <path
         id="path1249"
         style="fill:#ff0000;fill-opacity:1;stroke-width:1.92147"
         d="m 228.12046,124.54357 c -17.49586,0.0602 -34.99458,-0.0311 -52.48734,0.35876 -3.80283,0.16128 -7.64519,0.12362 -11.39793,0.83712 -1.65016,0.27945 -3.15497,1.41816 -3.65062,3.06021 -0.81438,2.67744 -0.7921,5.51953 -0.96022,8.29164 -0.38093,11.23086 -0.34264,22.47136 -0.39251,33.70749 -0.0474,27.96381 -0.0528,55.92778 -0.004,83.89158 0.0851,11.99154 0.0355,23.99372 0.7002,35.97057 0.40493,6.58574 1.06431,13.32791 3.84499,19.39226 2.32484,5.11378 4.83382,10.16834 7.99674,14.81826 7.42242,11.02539 16.94943,20.46383 27.2011,28.81973 5.091,4.09143 10.33703,8.00676 15.85691,11.49487 11.36307,6.99235 23.15814,13.25136 35.1101,19.15512 1.79384,0.81512 3.52399,1.83504 5.42821,2.36446 1.1193,0.083 2.15814,-0.59015 3.18684,-0.97857 7.33502,-3.32086 14.536,-6.94065 21.6372,-10.74031 15.41043,-8.35114 30.24072,-18.06059 42.9701,-30.22038 10.51873,-10.05511 19.47442,-21.98306 25.03696,-35.5318 1.53127,-3.7993 2.94554,-7.64552 4.43003,-11.46366 0.22008,-55.61598 0.43501,-111.23199 0.65355,-166.84798 -1.9905,-2.12794 -3.97783,-4.25887 -5.96602,-6.38899 -39.73138,0.003 -79.46278,-0.008 -119.19416,0.01 z m 27.73949,19.31498 c 23.41116,0 46.82231,0 70.23348,0 1.5535,1.36555 3.23649,2.78639 4.66542,4.08284 1.2547,1.04761 2.22219,2.46401 2.47416,4.10915 0.70365,3.68839 0.96583,7.44794 1.07181,11.19799 0.40575,14.38859 0.51489,28.9511 0.60982,43.40888 0.0868,18.7392 0.12054,37.47928 -0.0136,56.21831 -0.0809,8.08061 -0.15655,16.10783 -0.69328,24.15293 -0.0838,1.227 -0.18801,2.44986 -0.30847,3.58504 -0.45184,4.86845 -1.44975,9.74004 -3.58954,14.1608 -2.37489,5.25371 -5.42556,10.18068 -8.9732,14.7118 -7.95889,10.18719 -17.78015,18.76404 -28.25256,26.24343 -8.66686,6.13035 -17.84514,11.54367 -27.4387,16.06964 -2.97488,1.31283 -5.9722,2.69901 -9.17717,3.32959 -1.90664,0.15897 -3.74678,-0.60257 -5.53,-1.18456 -6.60397,-2.49161 -12.78371,-5.9763 -18.84249,-9.57725 -9.44162,-5.74589 -18.57235,-12.07905 -26.86747,-19.41862 -8.31634,-7.46413 -15.82459,-15.99947 -21.28934,-25.81519 -2.31908,-4.25922 -4.33967,-8.764 -5.27854,-13.55136 -0.72915,-4.37643 -0.98806,-8.82849 -1.24659,-13.20097 -0.72249,-14.3671 -0.78349,-28.79521 -0.80187,-43.22566 0.0247,-27.44358 0.58727,-54.88253 0.94624,-82.32283 0.0231,-1.5932 0.0461,-3.1864 0.0692,-4.7796 2.69449,-2.73141 5.38894,-5.46287 8.08336,-8.19436 23.38313,0 46.76627,0 70.1494,0 z" />
      <path
         id="path1288"
         style="fill:#ff0100;fill-opacity:1;stroke-width:1.92147"
         d="m 54.739143,132.87443 c -1.574919,0.21284 -3.009025,1.06388 -4.298101,1.96299 -2.603992,1.85738 -4.201473,5.20202 -3.555037,8.40919 0.691042,3.61039 3.489757,6.60955 6.811668,7.99494 1.784055,0.79122 3.719117,-0.0913 5.182331,-1.15099 2.230248,-1.63055 4.309871,-3.64232 5.526682,-6.16471 0.902848,-1.80954 0.08365,-3.87888 -1.042184,-5.37616 -1.741709,-2.29848 -4.003844,-4.31948 -6.708662,-5.37149 -0.6145,-0.2096 -1.26575,-0.34967 -1.916697,-0.30377 z" />
      <path
         id="path1919"
         style="fill:#ff0100;fill-opacity:1;stroke-width:1.92147"
         d="m 38.866723,198.2197 c -3.518885,0.0769 -6.844162,2.59136 -7.763398,6.03202 -1.179123,3.78804 0.471114,8.25021 3.89069,10.2631 1.5119,0.8285 3.167645,1.47887 4.88551,1.68554 2.185604,0.20218 3.951734,-1.33816 5.421395,-2.759 2.253457,-2.06249 3.59662,-5.31844 2.776623,-8.35971 -1.043348,-4.02832 -5.055469,-7.07934 -9.21082,-6.86195 z" />
      <path
         id="path1958"
         style="fill:#ff0100;fill-opacity:1;stroke-width:1.92147"
         d="m 39.717099,263.15736 c -4.017777,0.12331 -7.760316,3.14561 -8.838193,7.02539 -0.865365,3.12756 0.517541,6.45231 2.729288,8.6665 2.094582,2.33316 5.634366,2.73986 8.451446,1.64235 3.509561,-1.24253 6.45719,-4.62672 6.350886,-8.49996 0.03239,-3.45428 -2.007641,-6.93165 -5.262707,-8.20797 -1.081594,-0.45136 -2.260854,-0.66127 -3.43072,-0.62631 z" />
      <path
         id="path1997"
         style="fill:#ff0100;fill-opacity:1;stroke-width:1.92147"
         d="m 55.583786,327.85279 c -3.606707,-0.0372 -6.937854,2.51734 -8.113856,5.90301 -1.324318,3.38762 -0.401647,7.55421 2.382177,9.92546 1.643036,1.36641 3.724742,2.54773 5.92469,2.35984 2.481289,-0.40965 4.541559,-2.08571 6.289197,-3.80927 1.432442,-1.52745 2.996814,-3.46299 2.688409,-5.70732 -0.444668,-2.74436 -2.377959,-4.98768 -4.444814,-6.70678 -1.358103,-1.04979 -2.961924,-1.97938 -4.725803,-1.96494 z" />
      <path
         id="path2036"
         style="fill:#0cff00;fill-opacity:1;stroke-width:1.92147"
         d="m 455.88768,327.96622 c -3.05433,0.0727 -5.72179,2.24157 -7.17374,4.83164 -1.75887,3.1475 -1.24968,7.33198 1.15196,10.00086 1.7991,2.13144 4.63729,3.65833 7.46865,3.03021 2.93659,-0.62381 5.2243,-2.87065 6.95157,-5.22115 1.29264,-1.73999 1.687,-4.18453 0.65906,-6.14899 -1.14203,-2.18871 -2.95684,-4.00525 -5.01582,-5.33321 -1.21627,-0.73067 -2.61478,-1.19256 -4.04168,-1.15936 z" />
      <path
         id="path3148"
         style="fill:#0cff00;fill-opacity:1;stroke-width:1.92147"
         d="m 471.51168,263.01702 c -3.07931,0.0924 -5.69721,2.44529 -6.72197,5.27507 -1.38046,3.46101 -0.83873,7.93808 2.13192,10.4028 1.44892,1.10918 3.18058,1.85241 4.9443,2.28576 2.06545,0.5116 4.19406,-0.40649 5.66123,-1.86191 2.45363,-2.0399 3.86263,-5.36361 3.28928,-8.55456 -0.5516,-3.75322 -3.70411,-6.92023 -7.44731,-7.43373 -0.61419,-0.0936 -1.23623,-0.13494 -1.85745,-0.11343 z" />
      <path
         id="path3187"
         style="fill:#0cff00;fill-opacity:1;stroke-width:1.92147"
         d="m 472.06204,198.17163 c -2.35306,0.16798 -4.29288,1.77678 -5.94862,3.33294 -1.53121,1.58479 -3.14061,3.46275 -3.25456,5.77661 0.13954,2.04964 1.47251,3.77582 2.74426,5.28788 1.67888,1.78569 3.72743,3.74154 6.34235,3.67937 2.40647,-0.12023 4.42594,-1.70169 6.17062,-3.23147 2.69375,-2.4862 3.54673,-6.75871 1.89024,-10.05979 -1.40513,-3.03393 -4.65135,-4.88264 -7.94429,-4.78554 z" />
      <path
         id="path3226"
         style="fill:#0cff00;fill-opacity:1;stroke-width:1.92147"
         d="m 455.37936,132.83982 c -2.24374,0.11944 -3.86832,1.9285 -5.301,3.47232 -1.95165,2.20191 -3.04409,5.40273 -2.03135,8.27894 0.96139,2.85518 3.49862,4.80051 6.04819,6.16404 1.81261,0.96107 4.08717,0.83201 5.78065,-0.32877 2.54074,-1.78351 4.94154,-4.2612 5.50568,-7.44175 0.56843,-2.9193 -0.98038,-5.88661 -3.31938,-7.5692 -1.80379,-1.30502 -3.90918,-2.30931 -6.13052,-2.57365 -0.18383,4.6e-4 -0.36902,-0.024 -0.55227,-0.002 z" />
      <path
         id="path3392"
         style="fill:#00ff00;fill-opacity:1;stroke-width:1.92147"
         d="m 111.13346,94.630898 c 0,107.993602 0,215.987212 0,323.980802 96.7009,0 193.4018,0 290.1027,0 0,-108.64986 0,-217.29973 0,-325.949601 -96.7009,0 -193.4018,0 -290.1027,0 0,0.656267 0,1.312533 0,1.968799 z m 113.26063,16.419472 c 28.60438,9.9e-4 57.20869,0.11238 85.8127,0.24794 9.44376,0.0651 18.88922,0.1169 28.3289,0.42691 3.9181,0.15704 8.01007,0.31156 11.96335,0.84294 2.66359,0.382 5.61461,0.85067 7.4943,2.99334 1.56185,1.78535 3.21181,3.48828 4.83403,5.21679 2.17857,2.32424 2.54579,5.65533 2.92498,8.6806 0.47638,4.40872 0.59947,8.85328 0.72252,13.23235 0.33225,15.71795 0.24284,31.44094 0.267,47.16145 -0.008,35.892 -0.003,71.78398 -0.004,107.67598 -1.86824,5.81352 -3.46036,11.63593 -5.81318,17.27731 -0.94373,2.30787 -1.98414,4.57509 -3.09952,6.80394 -0.43461,0.86621 -1.00657,1.96284 -1.51922,2.90321 -6.44864,11.8215 -15.3077,22.13894 -25.02662,31.35281 -2.62845,2.46975 -5.34941,4.83899 -8.07994,7.10601 -1.43081,1.17839 -3.04386,2.48453 -4.57593,3.67427 -9.44474,7.36752 -19.54616,14.0548 -29.89667,19.92252 -5.97753,3.37098 -12.09245,6.50213 -18.37196,9.26527 -1.37292,0.58936 -2.95222,1.24768 -4.43418,1.79341 -1.52073,0.5696 -3.31279,1.16463 -4.98319,1.6079 -3.00996,0.78592 -6.18364,1.2386 -9.27987,0.76522 -3.38665,-0.73241 -6.46037,-2.43179 -9.56917,-3.90598 -17.71701,-8.87264 -35.36895,-18.27992 -50.82565,-30.83922 -8.40298,-6.83742 -16.16517,-14.47266 -23.19967,-22.72501 -2.71249,-3.22388 -5.28272,-6.57064 -7.65338,-10.0574 -0.44728,-0.66511 -1.05559,-1.57349 -1.54465,-2.34492 -6.0753,-9.43067 -10.49154,-19.95313 -12.88338,-30.93354 -0.70979,-3.71289 -0.85222,-7.50302 -1.01253,-11.27138 -0.32258,-10.16331 -0.33487,-20.51671 -0.38012,-30.75479 -0.0773,-42.26452 -0.018,-84.52914 -0.0291,-126.7937 0.0522,-0.81495 -0.20779,-1.71362 0.38969,-2.38234 2.51801,-4.27487 4.66482,-9.01757 8.64876,-12.15267 3.40196,-2.67452 7.76822,-3.65854 11.97701,-4.09647 1.52717,-0.0963 2.84723,-0.15128 4.37917,-0.20083 12.17336,-0.34398 24.53492,-0.37361 36.78225,-0.44625 5.88576,-0.0255 11.77164,-0.029 17.65745,-0.0457 z" />
    </g>
  </g>
</svg>
