<?xml version="1.0" encoding="UTF-8" standalone="no"?>
<!-- Created with Inkscape (http://www.inkscape.org/) -->

<svg
   version="1.1"
   id="svg870"
   width="512"
   height="512"
   viewBox="0 0 512 512"
   sodipodi:docname="delorean.svg"
   inkscape:version="1.2.2 (b0a8486541, 2022-12-01)"
   inkscape:export-filename="../GIT Icons/delorean.png"
   inkscape:export-xdpi="96"
   inkscape:export-ydpi="96"
   xmlns:inkscape="http://www.inkscape.org/namespaces/inkscape"
   xmlns:sodipodi="http://sodipodi.sourceforge.net/DTD/sodipodi-0.dtd"
   xmlns="http://www.w3.org/2000/svg"
   xmlns:svg="http://www.w3.org/2000/svg">
  <defs
     id="defs874" />
  <sodipodi:namedview
     id="namedview872"
     pagecolor="#505050"
     bordercolor="#eeeeee"
     borderopacity="1"
     inkscape:pageshadow="0"
     inkscape:pageopacity="0"
     inkscape:pagecheckerboard="0"
     showgrid="false"
     inkscape:zoom="0.85839035"
     inkscape:cx="239.98406"
     inkscape:cy="237.65412"
     inkscape:window-width="1366"
     inkscape:window-height="705"
     inkscape:window-x="0"
     inkscape:window-y="0"
     inkscape:window-maximized="1"
     inkscape:current-layer="g876"
     inkscape:showpageshadow="0"
     inkscape:deskcolor="#505050" />
  <g
     inkscape:groupmode="layer"
     inkscape:label="Image"
     id="g876">
    <path
       id="path1572"
       style="fill:#9aa3ad;stroke-width:1.48233"
       d="m 418.12701,67.468835 c -5.9526,0 -10.82422,0.619844 -10.82422,1.378906 0,0.759064 -1.28525,1.02561 -2.85742,0.591797 -1.65332,-0.456208 -7.58581,1.625813 -14.07031,4.9375 -13.70192,6.99766 -31.91552,15.839963 -32.84961,15.947266 -0.91048,0.104585 -33.25779,15.892376 -39.64844,19.351566 -7.55351,4.08863 -26.84186,44.03194 -35.3164,73.13477 l -0.99805,3.42578 H 255.82623 230.0899 l -1.46094,-4.1875 c -5.14385,-14.75336 -17.89617,-45.38524 -19.07226,-45.81055 -0.77675,-0.2809 -1.06072,-1.11239 -0.62891,-1.84961 1.56443,-2.67095 -10.03057,-23.48938 -12.26953,-22.0293 -0.64983,0.42377 -1.57971,-0.32383 -2.0664,-1.66211 -0.4867,-1.33826 -1.81277,-2.05817 -2.94532,-1.59961 -1.13256,0.45857 -2.26203,0.27544 -2.51172,-0.4082 -0.75917,-2.07855 -15.61707,-9.418574 -17.10351,-8.44922 -0.76393,0.49818 -1.38867,0.29842 -1.38867,-0.445314 0,-0.74374 -3.40935,-3.0116 -7.57618,-5.03906 -4.16681,-2.02745 -7.79433,-4.204575 -8.06054,-4.837892 -0.26622,-0.633317 -1.02814,-0.79709 -1.69336,-0.363282 -0.66522,0.43381 -10.67371,-4.089997 -22.24024,-10.052734 -11.56651,-5.962735 -21.98472,-10.453242 -23.15234,-9.980469 -1.16761,0.472773 -2.50746,0.203233 -2.97656,-0.597656 -1.11224,-1.898924 -21.897531,-1.898924 -23.009771,0 -0.4691,0.800889 -1.7681,1.086909 -2.88476,0.634765 -5.40313,-2.187754 -61.3711,18.377629 -61.3711,22.550778 0,0.7829 -0.67728,0.98176 -1.50586,0.44141 -5.69247,-3.712228 -12.4874794,9.086154 -9.9335894,18.710944 4.5398194,17.10914 8.9208694,17.19545 45.8320294,0.90429 75.316401,-33.241716 68.447551,-31.440815 86.294921,-22.640625 7.62008,3.757331 14.42831,6.458841 15.12891,6.001951 0.70061,-0.45688 1.27344,-0.22961 1.27344,0.50586 0,0.73548 8.81529,5.695004 19.58984,11.021494 22.96018,11.35053 23.84878,12.36748 34.55664,39.59179 3.78801,9.63086 8.73955,22.20759 11.00391,27.94727 2.26436,5.73966 4.11719,10.7071 4.11719,11.03906 0,0.33196 -10.22805,0.56117 -22.72852,0.50977 l -22.72852,-0.0937 7.2168,-3.4961 c 3.96841,-1.92322 7.64086,-3.25007 8.16211,-2.94922 0.52124,0.30085 0.59311,-0.88201 0.16016,-2.6289 -0.44533,-1.79693 -1.19621,-2.47912 -1.72852,-1.57031 -1.34336,2.29351 -21.48568,10.83203 -25.55273,10.83203 -1.87504,0 -3.41016,0.6218 -3.41016,1.38086 0,0.75906 -1.22215,1.04133 -2.7168,0.6289 -4.83815,-1.335 -50.89794,39.47835 -68.021481,60.27344 -1.20636,1.46501 -3.00449,2.37807 -3.9961,2.0293 -8.80209,-3.09591 -42.9309,24.12284 -49.94726,39.83398 -7.52032,16.83959 -18.17969,44.97613 -18.17969,47.98633 v 3.17969 H 255.78326 491.00004 v -2.97461 c 0,-3.71319 -2.953,-10.73047 -4.5156,-10.73047 -0.6414,0 -0.7908,-1.02702 -0.334,-2.2832 0.4569,-1.2562 0.072,-2.28321 -0.8535,-2.28321 -0.9252,0 -1.3623,-0.54579 -0.9727,-1.21093 0.3896,-0.66516 -0.6016,-4.26261 -2.2031,-7.99415 -1.6014,-3.73152 -4.2571,-10.55213 -5.9004,-15.1582 -3.5955,-10.07792 -9.0956,-19.62373 -11.9785,-20.79101 -1.1566,-0.46832 -2.1016,-1.80606 -2.1016,-2.97266 0,-1.94917 -1.8238,-2.809 -4.7988,-2.26367 -0.6543,0.11991 -0.8135,-0.42321 -0.3555,-1.20508 2.0024,-3.41867 -26.03825,-21.10568 -30.55855,-19.27539 -0.99437,0.40264 -1.80664,-0.005 -1.80664,-0.90625 0,-0.90078 -0.85913,-1.29001 -1.9082,-0.86524 -1.04906,0.42477 -2.69321,-0.55581 -3.6543,-2.17968 -0.9611,-1.62388 -2.37681,-2.54363 -3.14453,-2.04297 -0.76772,0.50065 -1.39453,-0.27159 -1.39453,-1.7168 0,-1.44521 -0.34531,-2.26576 -0.76563,-1.82226 -0.4203,0.44351 -5.39999,-4.2381 -11.0664,-10.4043 -5.66642,-6.1662 -10.77403,-11.21094 -11.35156,-11.21094 -0.57754,0 -5.77302,-5.13894 -11.54493,-11.41992 -5.77191,-6.28099 -11.1039,-11.41992 -11.84765,-11.41992 -0.74374,0 -2.63447,-1.72063 -4.20117,-3.82227 -1.56673,-2.10165 -3.44568,-3.43122 -4.17579,-2.95508 -0.73011,0.47614 -1.32617,0.0663 -1.32617,-0.91015 0,-0.97649 -0.97549,-1.38049 -2.16601,-0.89844 -1.19052,0.48205 -2.16406,0.25596 -2.16406,-0.50391 0,-0.75987 -3.08353,-1.85722 -6.85352,-2.4375 -3.76998,-0.58028 -11.64529,-3.04872 -17.5,-5.48437 -12.48181,-5.19262 -15.70977,-4.51454 -4.37109,0.91797 l 7.80078,3.73633 -22.72852,0.0879 c -12.50047,0.0482 -22.72851,-0.22946 -22.72851,-0.61719 0,-1.22338 5.76137,-16.49199 9.21484,-24.41992 1.82404,-4.18734 5.1111,-12.60822 7.30273,-18.71485 2.19165,-6.10661 6.02799,-14.31154 8.52539,-18.23242 l 4.54102,-7.12897 31.02539,-15.48242 c 17.06412,-8.514864 33.44067,-16.344162 36.39258,-17.398438 l 5.36719,-1.916016 12.66992,5.423828 c 6.96909,2.982826 29.27663,12.677676 49.57222,21.544926 20.2958,8.86725 38.1724,16.12305 39.7247,16.12305 9.3086,0 18.6049,-18.82892 12.4843,-25.28711 -1.3889,-1.465564 -2.2015,-3.056614 -1.8047,-3.535164 0.9177,-1.10662 -11.7789,-7.737387 -13.6953,-7.152342 -0.7866,0.240135 -2.3321,-0.515443 -3.4336,-1.677735 -1.1015,-1.162299 -2.8922,-1.753111 -3.9804,-1.3125 -1.0882,0.440613 -1.9785,0.249022 -1.9785,-0.427734 -10e-5,-1.756357 -7.172,-4.974138 -8.7676,-3.933594 -0.7342,0.478797 -1.334,0.253744 -1.334,-0.5 0,-3.52442 -29.9899,-13.184372 -36.85353,-11.871094 -1.95421,0.373916 -3.55273,0.03982 -3.55273,-0.742187 0,-0.782007 -4.86966,-1.421875 -10.82227,-1.421875 z m -376.142581,26.058591 1.42188,4.30078 c 1.25653,3.803334 1.00987,4.498644 -2.12109,6.003914 -1.9476,0.93634 -3.7308,1.70313 -3.9629,1.70312 -0.61683,0 -3.95477,-7.961004 -3.46484,-8.263674 0.22814,-0.14094 2.15076,-1.04067 4.27148,-2 z m 429.275411,0.8086 c 0.3965,-0.0656 0.7963,-0.0505 1.1875,0.0371 2.6077,0.5841 4.8383,4.37582 3.2461,8.753904 -0.986,2.71138 -1.4192,2.77161 -5.9785,0.83789 -3.7572,-1.59353 -3.769,-1.64367 -1.6231,-6.613284 0.8176,-1.89336 1.9785,-2.81888 3.168,-3.01562 z m -312.88478,98.023434 97.4082,0.0195 97.40625,0.0195 25.97461,25.16992 c 14.28625,13.84422 27.81861,27.09286 30.07227,29.4414 l 4.09765,4.27149 -15.64258,-0.23828 c -8.60309,-0.13072 -16.39497,0.34237 -17.3164,1.05078 -0.97001,0.74574 -2.08778,0.58441 -2.6543,-0.38281 -0.71006,-1.21229 -1.50238,-1.21229 -2.88672,0 -1.38434,1.21229 -2.17471,1.21229 -2.88476,0 -0.71006,-1.21229 -1.50238,-1.21229 -2.88672,0 -1.38434,1.21229 -2.17666,1.21229 -2.88672,0 -0.71005,-1.21229 -1.50043,-1.21229 -2.88477,0 -1.38432,1.21229 -2.17667,1.21229 -2.88671,0 -0.71005,-1.21229 -1.50238,-1.21229 -2.88672,0 -1.04921,0.9188 -2.22771,1.12384 -2.61914,0.45507 -0.39143,-0.66875 -44.66897,-0.8738 -98.39454,-0.45507 -53.72555,0.41874 -98.0031,0.2137 -98.39453,-0.45508 -0.39143,-0.66877 -1.56993,-0.46371 -2.61914,0.45508 -1.38434,1.21229 -2.17667,1.21229 -2.88672,0 -0.71004,-1.21229 -1.50239,-1.21229 -2.88671,0 -1.38434,1.21229 -2.17471,1.21229 -2.88477,0 -0.71005,-1.21229 -1.50238,-1.21229 -2.88672,0 -1.38434,1.21229 -2.17666,1.21229 -2.88672,0 -0.71006,-1.21229 -1.50042,-1.21229 -2.88476,0 -1.38433,1.21229 -2.17666,1.21229 -2.88672,0 -0.71006,-1.21229 -1.50238,-1.21229 -2.88672,0 -1.38434,1.21229 -2.17472,1.21229 -2.88477,0 -0.71006,-1.21229 -1.50238,-1.21229 -2.88672,0 -1.38432,1.21229 -2.17665,1.21229 -2.88671,0 -0.71005,-1.21229 -1.50238,-1.21229 -2.88672,0 -1.38434,1.21229 -2.17471,1.21229 -2.88477,0 -0.71006,-1.21229 -1.50239,-1.21229 -2.88672,0 -1.04921,0.9188 -2.25612,1.07608 -2.68164,0.34961 -0.42553,-0.7265 -3.7302,-1.15638 -7.34375,-0.95508 -8.333881,0.46424 -10.271031,3.09545 17.60157,-23.90625 13.29413,-12.87879 26.76864,-25.98533 29.94335,-29.12696 z M 46.080139,299.67587 H 255.78326 465.48444 l 4.0215,15.98828 c 2.212,8.79339 4.0566,17.06932 4.0996,18.39258 0.071,2.18251 -20.1538,2.40625 -217.82228,2.40625 -197.668411,0 -217.895221,-0.22374 -217.824221,-2.40625 0.043,-1.32326 1.88763,-9.59919 4.09961,-18.39258 z" />
    <path
       style="fill:#7d8186;stroke-width:1.48233"
       d="m 209.24376,377.7794 c 24.80256,-0.23367 65.38857,-0.23367 90.19113,0 24.80256,0.23367 4.50955,0.42484 -45.09557,0.42484 -49.60512,0 -69.89812,-0.19117 -45.09556,-0.42484 z m -5.77224,-41.11225 c 28.77097,-0.23059 75.85075,-0.23059 104.62172,0 28.77097,0.23058 5.23108,0.41925 -52.31086,0.41925 -57.54194,0 -81.08183,-0.18867 -52.31086,-0.41925 z M 58.510141,303.17677 c 6.187311,-0.28611 15.927953,-0.28437 21.645872,0.005 5.717918,0.28824 0.655572,0.52234 -11.249657,0.5202 -11.905229,-0.002 -16.583526,-0.23797 -10.396215,-0.52408 z"
       id="path1570" />
    <path
       id="path1568"
       style="fill:#f96501;stroke-width:1.48233"
       d="m 40.697266,92.648438 c -2.165596,1.255922 -4.485307,2.272004 -6.50857,3.757249 -1.374506,0.980016 -2.088066,2.768878 -1.651587,4.416583 0.484399,1.85383 1.325919,3.59966 2.149366,5.32307 0.633671,1.39578 2.228691,2.34489 3.754583,1.89802 1.713238,-0.47183 3.269281,-1.38482 4.853864,-2.17031 1.546106,-0.76532 2.833636,-2.3064 2.705078,-4.11133 -0.181523,-2.395087 -1.319432,-4.575279 -2.033751,-6.837515 -0.405418,-1.132054 -0.809706,-2.264512 -1.214296,-3.396861 -0.684896,0.373698 -1.369792,0.747396 -2.054687,1.121094 z m 431.521484,1.201171 c -2.72067,0.03533 -5.10661,1.837777 -6.69531,3.927735 -1.18185,1.540319 -1.91334,3.860726 -0.67625,5.579416 0.92102,1.21479 2.43345,1.76134 3.66265,2.60493 1.68421,0.93697 3.3895,2.23211 5.40422,2.17698 1.70108,-0.0673 2.8235,-1.6279 3.23693,-3.14017 0.54621,-1.96533 1.18754,-3.94797 1.26112,-6.000453 0.03,-1.712633 -1.19043,-3.144099 -2.6699,-3.858287 -1.11753,-0.556989 -2.22948,-1.299769 -3.52346,-1.290151 z M 87.830078,349.99023 c 0,5.74219 0,11.48438 0,17.22657 14.320962,0 28.641932,0 42.962892,0 0,-6.40886 0,-12.81771 0,-19.22657 -14.32096,0 -28.64193,0 -42.962892,0 0,0.66667 0,1.33334 0,2 z m 292.941402,0 c 0,5.74219 0,11.48438 0,17.22657 14.32097,0 28.64193,0 42.9629,0 -10e-6,-6.40886 0,-12.81771 0,-19.22657 -14.32097,0 -28.64193,0 -42.9629,0 0,0.66667 0,1.33334 0,2 z" />
    <rect
       style="fill:#ffffff;stroke-width:30.3282;paint-order:stroke fill markers"
       id="rect422"
       width="417.84155"
       height="34.344437"
       x="46.492435"
       y="300.91855"
       ry="0" />
    <path
       style="fill:#171717;stroke-width:1.48233"
       d="m 33.551433,462.66737 -2.886117,-3.04534 3e-6,-40.73138 2e-6,-40.73139 H 255.78238 480.89944 v 40.73139 40.73138 l -2.88611,3.04534 c -2.61869,2.76316 -4.81019,3.04534 -23.6506,3.04534 -29.37443,0 -27.69615,2.28744 -28.20852,-38.44739 l -0.091,-7.23267 H 255.92729 85.79136 l -0.505683,19.9301 -0.505682,19.93012 -3.406748,2.90991 c -5.253029,4.48695 -43.543883,4.37853 -47.821814,-0.13541 z M 25.71648,359.50657 c -2.255361,-7.32784 -4.406814,-14.17985 -4.781004,-15.22668 -0.542548,-1.51783 47.024289,-1.90334 234.846904,-1.90334 187.82261,0 235.38946,0.38551 234.84691,1.90334 -0.3742,1.04683 -2.52565,7.89884 -4.78101,15.22668 l -4.10066,13.32335 H 255.78238 29.817139 Z m 103.07679,-1.90333 v -7.61335 H 109.31198 89.830699 v 7.61335 7.61334 h 19.481281 19.48129 z m 292.94079,0 v -7.61335 h -19.48128 -19.48129 v 7.61335 7.61334 h 19.48129 19.48128 z M 37.880607,335.24101 c 0,-0.57469 1.258487,-5.885 2.796635,-11.80069 1.53815,-5.9157 3.511308,-13.66791 4.384795,-17.22715 l 1.588161,-6.47134 H 255.78238 464.91456 l 1.58816,6.47134 c 0.87349,3.55924 2.84665,11.31145 4.3848,17.22715 1.53814,5.91569 2.79663,11.226 2.79663,11.80069 0,0.57467 -98.05579,1.04487 -217.90177,1.04487 -119.84598,0 -217.901773,-0.4702 -217.901773,-1.04487 z M 89.830699,318.01385 V 302.78717 H 68.906356 47.982014 v 15.22668 15.22669 h 20.924342 20.924343 z m 51.950091,-0.0419 V 302.7035 l -20.56358,0.42246 -20.56358,0.42254 -0.41302,14.84602 -0.413017,14.84602 h 20.976597 20.9766 v -15.2685 z m 269.54335,0.42254 -0.41301,-14.84602 -20.56358,-0.42248 -20.56358,-0.42246 v 15.26848 15.2685 h 20.9766 20.97659 z m 52.25861,-0.38067 V 302.78717 H 442.6584 421.73406 v 15.22668 15.22669 h 20.92434 20.92435 z m -222.48467,6.28835 c 1.14921,-0.76881 1.72441,-3.33895 1.44306,-6.44801 l -0.46781,-5.16968 -10.58062,-0.4499 c -9.52669,-0.40508 -10.5303,-0.17757 -10.0755,2.284 0.38612,2.08976 1.94361,2.76333 6.6103,2.85877 8.87453,0.18151 9.4033,2.15914 0.57728,2.15914 -6.49376,0 -7.4558,0.39294 -7.4558,3.04534 0,3.27744 15.60944,4.62354 19.94909,1.72034 z m 10.57134,-2.86234 0.21621,-4.18734 0.60117,4.18734 c 0.91971,6.40615 6.10689,5.79031 6.41264,-0.76134 l 0.23094,-4.94867 0.58202,4.94867 c 0.99404,8.45194 6.17139,6.85518 6.17139,-1.90333 v -6.85201 h -10.10141 -10.10141 v 6.85201 c 0,8.21228 5.57393,10.6925 5.98845,2.66467 z m 38.74635,1.142 c 0,-2.62825 -1.0376,-3.07811 -7.57605,-3.28455 l -7.57606,-0.23923 7.20277,-0.90277 c 12.94072,-1.62198 10.97244,-6.48907 -2.39438,-5.9207 l -10.58062,0.4499 -0.46837,4.31596 c -0.8463,7.79827 0.2337,8.62673 11.24602,8.62673 9.18465,0 10.14669,-0.28875 10.14669,-3.04534 z M 194.60982,179.87088 c -2.4913,-2.62873 0.15054,-5.05489 10.21307,-9.37931 8.49219,-3.64957 11.362,-4.31813 12.2439,-2.85238 1.76006,2.92527 1.50515,3.40199 -2.77233,5.18502 -2.18263,0.9098 -7.3068,3.07617 -11.38706,4.81414 -4.08026,1.73798 -7.81417,2.74261 -8.29758,2.23253 z m 109.17387,-4.00159 c -10.96203,-5.0314 -11.12395,-5.1749 -9.28572,-8.2301 1.67657,-2.78653 23.64003,6.7442 23.0415,9.99853 -0.66518,3.61666 -2.55148,3.37416 -13.75578,-1.76843 z M 47.787882,134.15162 c -3.404005,-4.35142 -7.266306,-14.43834 -6.016246,-15.71224 1.430904,-1.45819 50.276451,-22.735143 52.193117,-22.735143 2.391223,0 9.576987,21.290073 8.047247,23.842503 -5.499831,9.17667 -49.251904,20.96098 -54.224118,14.60488 z m 380.439938,-4.44077 c -22.41347,-9.78623 -21.76466,-8.75682 -15.73688,-24.96821 l 3.74439,-10.070357 26.9206,11.815587 c 29.42881,12.91646 28.49497,11.99707 23.23535,22.87554 -4.94479,10.22732 -15.31917,10.32176 -38.16346,0.34744 z M 137.27173,83.090622 121.93974,75.525543 121.18772,64.678197 c -0.41361,-5.966041 -0.13009,-11.6539 0.63004,-12.639688 1.92986,-2.50276 13.87973,-6.61271 16.33556,-5.618331 1.82593,0.739329 16.18597,42.78955 14.96105,43.810093 -0.28085,0.233987 -7.41004,-2.978855 -15.84264,-7.139649 z m 220.96778,7.009199 c 0,-3.05812 12.2468,-41.273211 13.76961,-42.966893 1.63734,-1.821057 3.02735,-1.708645 9.58559,0.775202 l 7.67054,2.90512 0.41343,12.175983 0.41343,12.175983 -15.92631,7.857675 c -8.75946,4.321722 -15.92629,7.506339 -15.92629,7.07693 z"
       id="path1566" />
    <path
       id="rect523"
       style="fill:#ffffff;stroke-width:5.73734;paint-order:stroke fill markers"
       d="M 354.42515 272.7901 L 354.42421 363.36052 L 507.39101 363.36052 L 525.70155 363.36052 L 678.66835 363.36052 L 549.09702 272.7901 L 525.70249 272.7901 L 377.81968 272.7901 L 354.42515 272.7901 z "
       transform="matrix(1,0,-0.7153127,0.6988045,0,0)" />
  </g>
</svg>
