<?xml version="1.0" encoding="UTF-8" standalone="no"?>
<svg
   width="512"
   height="512"
   version="1.1"
   viewBox="0 0 384 384"
   id="svg1233"
   sodipodi:docname="dex2jar.svg"
   inkscape:version="1.2.2 (b0a8486541, 2022-12-01)"
   inkscape:export-filename="../GIT Icons/dex2jar.png"
   inkscape:export-xdpi="96"
   inkscape:export-ydpi="96"
   xmlns:inkscape="http://www.inkscape.org/namespaces/inkscape"
   xmlns:sodipodi="http://sodipodi.sourceforge.net/DTD/sodipodi-0.dtd"
   xmlns="http://www.w3.org/2000/svg"
   xmlns:svg="http://www.w3.org/2000/svg">
  <defs
     id="defs1237" />
  <sodipodi:namedview
     id="namedview1235"
     pagecolor="#505050"
     bordercolor="#ffffff"
     borderopacity="1"
     inkscape:showpageshadow="0"
     inkscape:pageopacity="0"
     inkscape:pagecheckerboard="1"
     inkscape:deskcolor="#505050"
     showgrid="false"
     inkscape:zoom="0.96875"
     inkscape:cx="196.12903"
     inkscape:cy="257.03226"
     inkscape:window-width="1366"
     inkscape:window-height="705"
     inkscape:window-x="0"
     inkscape:window-y="0"
     inkscape:window-maximized="1"
     inkscape:current-layer="svg1233" />
  <g
     id="g2115"
     transform="translate(-0.00262572)">
    <g
       transform="matrix(1.6712634,0,0,1.651203,-686.74767,-70.440309)"
       id="g1211">
      <path
         d="m 494.18,47.359 -10.379,6 14.363,24.891 c -26.254,12.688 -26.363,42.281 -26.363,42.281 h 108 c 0,0 -0.1211,-29.598 -26.363,-42.281 l 14.363,-24.891 -10.383,-6 -15.539,26.906 c -4.7656,-1.0664 -10.02,-1.7344 -16.055,-1.7344 -6.0508,0 -11.328,0.66406 -16.105,1.7344 z m 7.6445,49.172 c 3.3242,0 5.9766,2.6758 5.9766,5.9766 0,3.3008 -2.6875,6.0234 -5.9766,6.0234 -3.3242,0 -6.0234,-2.6875 -6.0234,-6.0234 0,-3.3008 2.6992,-5.9766 6.0234,-5.9766 z m 48,0 c 3.3242,0 5.9766,2.6758 5.9766,5.9766 0,3.3008 -2.6875,6.0234 -5.9766,6.0234 -3.3242,0 -6.0234,-2.6875 -6.0234,-6.0234 0,-3.3008 2.6992,-5.9766 6.0234,-5.9766 z m 48.504,29.984 c -6.8984,0 -12.527,6.3594 -12.527,14.195 v 55.566 c 0,7.8359 5.6289,14.23 12.527,14.23 6.9024,0 11.473,-6.3945 11.473,-14.23 V 140.71 c 0,-7.8477 -4.5586,-14.207 -11.473,-14.207 m -126.53,0.0117 -0.004,102 c 0,2.8281 3.1719,6 6.0039,6 h 18 v 22.5 c 0,7.4649 4.75,13.5 12,13.5 7.1992,0 12.238,-6.043 12,-13.496 v -22.5 h 12 v 22.5 c 0,7.4648 4.75,13.5 12,13.5 7.1992,0 12,-6.1406 12,-13.5 v -22.5 h 18 c 2.832,0 6,-3.168 6,-6 v -102 z m -17.473,0 c -6.9023,2e-5 -12.527,6.3594 -12.527,14.195 v 55.566 c 0,7.8359 5.625,14.23 12.527,14.23 6.9024,0 11.473,-6.3945 11.473,-14.23 v -55.566 c 0,-7.8477 -4.5586,-14.207 -11.473,-14.207"
         fill="#0ba05d"
         id="path1209" />
    </g>
    <path
       d="m 207.16888,178.3202 v 25.08479 h 12.6942 v -7.29716 h 24.58268 l 5.65361,12.22902 c 0,-13.96913 3.88792,-24.31564 -30.2364,-24.31564 v -5.70078 z m -49.91548,0.64218 v 11.5361 h -16.97251 v -11.51817 c -4.08084,2.76188 -6.52322,7.33226 -6.52969,12.21893 0.007,4.88656 2.4493,9.45627 6.52969,12.2178 v 57.29149 c -4.08039,2.76153 -6.52266,7.33124 -6.52969,12.2178 0.007,4.88712 2.44885,9.4575 6.52969,12.21893 v -11.51817 h 16.97251 v 11.53611 c 4.08618,-2.76546 6.52925,-7.34392 6.5297,-12.23799 -4.9e-4,-4.89351 -2.44352,-9.47196 -6.5297,-12.23798 v -57.25225 c 4.08618,-2.76546 6.52925,-7.34391 6.5297,-12.23798 -4.9e-4,-4.89352 -2.44352,-9.47197 -6.5297,-12.23799 z m 68.13971,20.62237 v 83.89888 h 16.97251 v -83.89888 z"
       fill="#80c6ed"
       id="path1221"
       style="stroke-width:1.128" />
    <path
       d="m 189.61307,206.78207 c -6.44555,0 -12.29446,2.34512 -16.4956,6.02105 h -71.70704 v 38.37811 h 72.50965 c 4.12956,3.28172 9.65002,5.33614 15.69299,5.33614 h 4.28386 v 0.68324 h 8.51122 16.62838 v -6.01938 h 62.88345 v -38.37811 h -62.88345 v -6.02105 h -29.42329 z"
       fill="#087142"
       id="path1225"
       style="stroke-width:0.845999" />
    <path
       d="m 202.41394,252.15175 h 8.11699 v -33.59812 h -20.91151 c -21.50615,0 -21.55495,32.91418 0,32.91418 h 7.52483 v -7.29738 h -7.60177 c -9.59203,0 -9.79312,-17.78684 0,-17.78684 h 12.87237 z"
       opacity="0.3"
       id="path1227"
       style="stroke-width:1.128" />
    <path
       d="m 202.41394,248.78813 h 8.11699 v -33.59812 h -20.91151 c -21.50615,0 -21.55495,32.91418 0,32.91418 h 7.52483 v -7.29738 h -7.60177 c -9.59203,0 -9.79312,-17.78685 0,-17.78685 h 12.87237 z"
       fill="#54bd8e"
       id="path1229"
       style="stroke-width:1.128" />
  </g>
</svg>
