<?xml version="1.0" encoding="UTF-8" standalone="no"?>
<!-- Created with Inkscape (http://www.inkscape.org/) -->

<svg
   version="1.1"
   id="svg870"
   width="512"
   height="512"
   viewBox="0 0 512.00001 512.00001"
   sodipodi:docname="dhcpig.svg"
   inkscape:version="1.1.2 (0a00cf5339, 2022-02-04)"
   xmlns:inkscape="http://www.inkscape.org/namespaces/inkscape"
   xmlns:sodipodi="http://sodipodi.sourceforge.net/DTD/sodipodi-0.dtd"
   xmlns="http://www.w3.org/2000/svg"
   xmlns:svg="http://www.w3.org/2000/svg">
  <defs
     id="defs874" />
  <sodipodi:namedview
     id="namedview872"
     pagecolor="#505050"
     bordercolor="#eeeeee"
     borderopacity="1"
     inkscape:pageshadow="0"
     inkscape:pageopacity="0"
     inkscape:pagecheckerboard="0"
     showgrid="false"
     inkscape:zoom="0.83812503"
     inkscape:cx="171.2155"
     inkscape:cy="263.08724"
     inkscape:window-width="1366"
     inkscape:window-height="695"
     inkscape:window-x="0"
     inkscape:window-y="24"
     inkscape:window-maximized="1"
     inkscape:current-layer="g876" />
  <g
     inkscape:groupmode="layer"
     inkscape:label="Image"
     id="g876">
    <g
       id="g1086">
      <path
         id="path978-3"
         style="fill:#ffffff;stroke-width:2.38671"
         d="m 463.43028,20.484453 c -17.77457,0.347769 -35.56651,1.794533 -53.05631,5.117192 -11.29856,2.297064 -22.22235,6.145051 -32.98019,10.282432 -12.72876,4.984917 -25.13714,10.85156 -36.95547,17.791014 -5.32452,-4.764784 -10.73375,-9.484119 -16.76315,-13.313462 -10.04753,-6.662689 -20.83398,-12.237202 -32.2079,-16.137797 -8.95818,-2.886646 -18.45268,-2.876761 -27.75225,-2.990385 -8.19427,-0.0632 -16.39091,-0.032 -24.58302,0.171981 -7.27535,0.257435 -14.62655,1.158589 -21.45979,3.840996 -7.45244,2.768188 -14.64097,6.258264 -21.53081,10.256 -7.55946,4.403823 -14.81715,9.404831 -21.32044,15.3201 -1.07448,0.954883 -2.14796,1.91087 -3.22713,2.860257 C 163.16644,48.790337 154.45468,44.413188 145.52564,40.553003 133.26246,35.193239 120.6965,30.495036 107.79646,26.987717 97.224819,24.294766 86.368651,23.027231 75.540879,21.962239 63.864994,20.9082 52.13624,20.358761 40.41345,20.545703 c -8.689193,0.196537 -17.505737,0.965129 -25.755914,3.924488 -4.026933,1.499658 -7.7567779,4.277481 -9.6828571,8.261363 -2.0093275,4.112434 -1.8414558,9.02057 -0.3142687,13.26439 1.5802327,4.584523 4.1675816,8.7135 6.7158588,12.789586 3.781264,5.817596 7.848164,11.44226 11.426429,17.39651 9.00211,14.598637 15.976422,30.57056 19.872146,47.37364 2.223666,9.56319 3.608745,19.35021 5.882898,28.97111 2.594916,11.2427 5.908076,22.471 11.603033,32.52914 3.831069,6.72875 8.785773,12.76552 14.498581,17.92 0.278116,0.37836 1.135711,0.68619 0.538181,1.16756 -9.433273,14.20018 -18.741448,28.56051 -26.208818,43.95791 -7.250973,14.79483 -12.850437,30.61811 -14.796663,47.10196 -1.569079,12.89277 -1.232941,26.06822 1.382163,38.79751 2.724565,12.62653 8.345503,24.57677 16.24223,34.69548 9.281514,12.1071 21.0522,21.94216 33.29451,30.79064 14.808707,10.69017 30.629851,19.80117 46.466531,28.79176 4.43693,2.60685 8.9346,5.18844 12.91009,8.50097 2.34801,2.03908 4.18218,4.63255 5.49932,7.46412 3.50154,6.71359 8.56748,12.56234 14.67939,16.92862 6.51342,4.70904 14.10956,7.76367 21.95704,9.18816 4.82582,1.23754 9.39181,3.30971 13.94135,5.32482 7.82809,3.69183 15.39778,7.94335 23.37221,11.31455 3.67281,1.61861 7.4563,3.11671 11.45992,3.59023 4.80523,0.64491 9.66138,0.74409 14.50003,0.89944 13.56571,0.25875 27.34684,-0.84934 40.27,-5.30446 7.34193,-2.51785 14.31701,-6.20665 20.42578,-11.07151 2.50212,-1.50796 5.35819,-2.24781 8.13067,-3.05792 5.92336,-1.55921 11.99022,-2.68123 17.67102,-5.06617 8.54314,-3.39343 16.48126,-8.86823 21.86372,-16.5244 2.17328,-3.02105 3.79045,-6.40083 5.71128,-9.58016 3.00674,-4.29028 7.56554,-7.01384 11.84212,-9.80474 8.90501,-5.59154 18.14505,-10.60513 27.09684,-16.1144 14.17659,-8.59995 28.10482,-17.75269 40.77557,-28.55753 7.37102,-6.36687 14.03251,-13.64704 19.3144,-21.91108 8.69233,-13.28705 14.35866,-28.733 15.62368,-44.68785 1.34563,-15.72156 -1.18077,-31.58444 -5.95132,-46.53108 -5.34302,-16.8239 -13.30189,-32.66568 -22.31282,-47.73661 -4.49526,-7.43084 -9.26168,-14.68549 -14.01239,-21.94846 5.71362,-5.52518 11.42013,-11.2761 15.27903,-18.35291 4.98284,-8.82176 7.70674,-18.70358 10.25083,-28.47597 3.6056,-14.12329 6.36555,-28.4618 9.54801,-42.65719 0.40388,-1.49621 0.84686,-2.97465 1.3036,-4.36748 0.72049,-2.1848 1.45317,-4.20564 2.32708,-6.34826 3.29272,-8.134815 7.31692,-15.945077 11.70468,-23.518716 0.55894,-0.955174 1.1733,-2.00707 1.75913,-2.968507 4.12505,-6.93407 8.77715,-13.518899 13.23118,-20.232455 2.75678,-4.327924 5.40007,-8.900811 6.46085,-14.002225 0.83431,-4.372085 -0.056,-9.178894 -2.90816,-12.635631 -3.07968,-3.870573 -7.81543,-5.814068 -12.44373,-6.972723 -9.60023,-2.488752 -19.58047,-2.635429 -29.42761,-2.57677 z m -208.22215,35.42808 c 1.75223,0.02776 3.63296,0.06529 5.26625,0.154813 6.13568,0.299078 12.2467,1.130229 18.24143,2.495902 0.65441,0.153692 1.6056,0.386363 2.36828,0.591608 6.44877,1.694987 12.66187,4.359726 18.26586,8.035938 0.85996,0.535951 1.89268,1.246501 2.6168,1.715816 7.92181,5.43928 15.12873,11.960026 21.4027,19.295761 3.37066,3.970863 6.21966,8.382664 8.5581,13.056429 3.45362,6.26938 7.73461,12.33545 13.71642,16.32898 4.32821,2.82638 9.89321,4.04768 14.84939,2.31865 4.89691,-1.64064 8.68676,-5.72049 10.84868,-10.39333 0.30083,-0.78235 0.75639,-1.49671 1.50937,-1.89106 3.38875,-2.38416 7.14788,-4.15617 10.88124,-5.89965 7.14181,-3.194686 14.42911,-5.84587 21.8232,-8.296119 9.23678,-3.02169 18.59136,-5.553529 28.14072,-7.45046 3.47228,-0.692015 7.07463,-1.292978 10.64328,-1.632008 -4.12739,10.328009 -7.78947,20.891787 -10.19973,31.782537 -0.81773,4.08148 -1.42543,8.38458 -2.14968,12.3089 -2.67944,13.50576 -6.58616,26.81694 -12.32931,39.31474 -0.40957,0.88847 -0.85137,1.76107 -1.29619,2.63152 -3.38105,-5.34228 -9.00927,-9.44241 -15.32256,-10.03196 -5.1461,-0.50753 -10.4858,1.72346 -13.69153,5.8747 -3.48364,4.44735 -4.38737,10.51884 -3.42453,16.01686 0.70909,4.15469 2.33261,8.07655 4.05033,11.88959 0.91625,1.96887 1.89197,3.90908 2.91551,5.82195 -4.46081,-0.26674 -9.13369,1.32918 -12.13367,4.79215 -3.62862,4.01541 -5.25112,9.34746 -6.87298,14.42664 -2.60262,8.17656 -4.16195,16.71363 -7.65574,24.58001 -1.49665,3.47183 -3.20462,6.84791 -5.08704,10.11892 -0.37927,0.6476 -0.90661,1.55508 -1.36499,2.28904 -3.72437,6.01265 -7.94218,11.74785 -12.87738,16.78963 -2.69111,2.73165 -5.61467,5.22181 -8.71409,7.45924 -7.86903,-8.43211 -15.54034,-17.09213 -22.3052,-26.48024 -2.44218,-3.32424 -4.83136,-6.81818 -7.85714,-9.67394 -3.5905,-3.46605 -7.94517,-6.36979 -12.86797,-7.32622 -4.9733,-0.89005 -10.45415,0.6905 -13.85652,4.58707 -4.02185,4.26459 -5.66461,10.76243 -3.91975,16.43549 1.47637,5.45344 4.63197,10.2087 7.74414,14.81761 5.26929,7.52534 11.27466,14.48026 17.32783,21.3514 1.88738,2.13029 3.7778,4.25828 5.62184,6.42773 -2.30921,2.8442 -3.74171,6.3296 -4.44315,9.93134 -1.1439,5.40785 -1.03974,10.97488 -1.10766,16.47581 0.0743,7.91195 0.98403,15.91403 3.68008,23.37592 -15.87226,-4.3774 -32.37816,-5.81552 -48.77545,-5.97269 -14.28201,-0.075 -28.61133,0.97419 -42.63366,3.81009 -3.15361,0.65254 -6.28913,1.40035 -9.39092,2.27408 3.89656,-10.22921 4.50876,-21.40382 3.92534,-32.25737 -0.21773,-4.05996 -0.6291,-8.18136 -2.16161,-11.97595 -0.81875,-2.11266 -1.93193,-4.1141 -3.34941,-5.87075 3.48475,-4.26958 7.19687,-8.33473 10.76707,-12.52932 6.26585,-7.27422 12.46389,-14.71872 17.1979,-23.14694 2.41907,-4.48571 4.12588,-9.69788 3.24434,-14.85795 -1.06644,-6.02851 -5.68014,-11.45927 -11.65828,-12.74852 -5.23957,-1.21006 -10.73593,0.60516 -15.0375,3.67913 -5.06736,3.43483 -8.86405,8.38941 -12.36435,13.37671 -6.42759,8.68812 -13.50762,16.85611 -20.92228,24.68008 -0.50004,0.53402 -1.00009,1.06803 -1.50013,1.60205 -6.24181,-5.94513 -12.65855,-11.80712 -17.74731,-18.84876 -6.97195,-9.35529 -11.77158,-20.20819 -15.12827,-31.39723 -1.85433,-5.90322 -3.19156,-11.98374 -5.47126,-17.74198 -1.66494,-4.11715 -4.19309,-8.15327 -8.1549,-10.29993 -2.39677,-1.34971 -5.13071,-2.06597 -7.86813,-2.09084 2.85021,-5.36343 5.58002,-10.91761 6.7987,-16.9321 1.06657,-5.34191 0.51271,-11.24892 -2.57571,-15.82785 -2.23697,-3.42186 -5.82591,-5.89278 -9.80571,-6.63614 -5.36398,-1.11114 -11.03567,0.7595 -15.161333,4.31646 -1.974355,1.66104 -3.655881,3.67211 -5.011886,5.8814 -3.65486,-6.7391 -6.153936,-14.04724 -8.413865,-21.37014 -2.525018,-8.40092 -4.274143,-17.01841 -5.702652,-25.67544 C 76.908249,110.24299 72.710132,97.041927 67.7055,84.343803 c 7.974888,0.820915 15.815284,2.627578 23.578161,4.612022 5.335408,1.382097 10.722099,2.99568 15.893889,4.704884 8.48049,2.831521 16.91018,5.913974 24.94577,9.890861 2.75897,1.39989 5.55374,2.82304 7.97403,4.78322 0.67615,1.15353 1.21825,2.39067 2.00804,3.47849 2.73315,4.14813 6.7366,7.7482 11.64012,8.81206 3.98763,0.86601 8.21967,-0.17916 11.57006,-2.48536 4.10151,-2.73688 7.19403,-6.70582 10.18937,-10.59107 4.52101,-6.02043 8.43627,-12.478488 12.7321,-18.620745 8.5749,-11.861492 20.49428,-21.062106 33.74925,-26.862668 6.66758,-2.949855 13.80361,-4.701353 21.022,-5.486137 2.35007,-0.271942 4.86931,-0.443681 7.13133,-0.551495 1.6897,-0.06833 3.33001,-0.1041 5.06851,-0.115332 z m -83.08952,88.550017 c -9.10581,0.16684 -18.34654,0.9478 -26.99984,4.02576 -4.70957,1.59829 -9.05032,5.08878 -10.71972,9.9737 -2.97555,8.03226 0.57567,17.93012 7.90504,22.15521 1.78956,1.99365 3.17142,4.32471 4.64156,6.56427 2.59455,4.12508 5.25188,8.26153 8.68358,11.72837 7.04921,7.39914 16.70006,12.40609 26.8747,13.02928 6.06558,0.38825 12.16247,-0.71906 17.86617,-2.79839 3.05262,2.68518 6.78961,4.78051 10.88215,5.05453 4.97764,0.44652 10.14814,-1.72157 13.19962,-5.7881 3.26372,-4.10259 4.39338,-9.51533 4.41033,-14.69169 0.18355,-11.38657 -4.50175,-22.54711 -11.98718,-30.9 -9.62939,-10.96096 -23.74478,-17.62185 -38.16429,-18.17863 -2.1945,-0.134 -4.3936,-0.18918 -6.59212,-0.17431 z m 164.49331,0.10188 c -7.11766,0.15313 -14.36456,1.0024 -20.94446,3.93164 -10.46785,4.33259 -19.93121,11.53501 -26.33517,21.08003 -2.67885,4.12498 -4.34653,8.86068 -5.17433,13.71826 -1.23865,6.49769 -1.67778,13.256 -0.43217,19.78763 0.91411,4.05371 3.43294,7.83239 7.15344,9.69465 5.24068,2.82449 11.82181,2.19368 16.84935,-0.81342 1.38238,-0.80625 2.66796,-1.77459 3.89759,-2.80324 3.33006,0.94064 6.63233,2.05231 10.07829,2.47585 9.75302,1.33429 19.8957,-1.56589 27.74288,-7.55969 6.45337,-4.78708 11.79605,-11.00413 16.1349,-17.79778 0.98295,-1.65118 1.78846,-3.42408 2.26942,-5.29592 1.67156,-1.06381 3.39138,-2.10851 4.69399,-3.64663 5.32271,-5.70505 7.04986,-14.8077 3.64967,-21.96278 -1.99501,-4.08502 -5.93891,-7.05948 -10.32705,-7.92437 -7.62637,-2.12749 -15.57315,-2.5931 -23.43842,-2.88231 -1.939,-0.0315 -3.87901,-0.0432 -5.81793,-0.002 z M 91.62847,245.26083 c -4.43635,19.818 -5.043245,40.76803 -0.01143,60.53531 4.53861,18.03403 13.53664,34.72516 25.18448,49.00553 2.2134,2.74832 4.52309,5.41504 6.72549,8.17281 0.64387,0.81179 1.44423,1.83319 2.06679,2.78731 1.78877,2.63667 3.06816,5.62736 3.65056,8.78099 0.97883,4.23385 1.57168,8.54664 2.19783,12.84557 -12.63161,-8.12137 -24.9802,-16.70885 -36.903685,-25.87486 -3.594426,-2.79958 -7.097237,-5.75948 -10.068172,-9.25262 -4.93976,-5.67353 -9.286834,-11.96978 -12.154784,-18.99874 -2.60369,-6.23667 -3.975402,-12.98048 -4.109068,-19.75212 -0.231296,-9.1597 1.557545,-18.25287 4.256051,-26.95455 0.547977,-1.74673 1.185511,-3.67753 1.836703,-5.47168 1.600674,-4.45286 3.427931,-8.81889 5.398896,-13.11407 0.744055,-1.5964 1.577551,-3.38077 2.393001,-5.03088 2.939422,-6.01352 6.170839,-11.94635 9.537338,-17.678 z m 328.68458,0.23643 c 5.8953,9.8896 11.38297,20.27581 15.66423,30.87823 0.94767,2.38881 1.84558,4.79788 2.67678,7.23132 0.16242,0.48717 0.4284,1.30742 0.63051,1.92225 3.25036,10.02967 5.26278,20.64803 4.39582,31.24032 -0.6086,8.15653 -3.1842,16.10386 -7.23318,23.15363 -1.92108,3.40708 -4.22357,6.67642 -6.6177,9.65251 -0.91905,1.13484 -1.88649,2.28029 -2.80166,3.28978 -2.99661,3.39491 -6.44209,6.33498 -10.03397,9.0518 -11.01451,8.5591 -22.61656,16.47407 -34.3218,24.10263 -0.80429,0.5111 -1.60458,1.02876 -2.41249,1.53393 0.77776,-4.94005 1.43358,-9.92474 2.77549,-14.74727 0.75279,-2.7423 2.0517,-5.29939 3.7411,-7.56331 3.21203,-4.47022 7.04428,-8.43059 10.32438,-12.84737 12.34018,-16.01413 21.40863,-34.87543 24.89681,-54.99678 3.04372,-17.26426 2.13486,-35.13221 -1.8391,-52.16117 0.0516,0.0865 0.10319,0.173 0.15478,0.2595 z m -295.92334,32.94075 c 4.97941,6.62951 10.47542,12.84649 16.22308,18.79185 6.89656,7.05006 14.25275,13.69078 22.35653,19.27623 3.25318,2.18192 6.75452,3.95467 10.35424,5.45372 0.32894,0.55283 0.26157,1.36137 0.34417,2.02191 0.0671,3.868 -0.21323,7.7415 -0.66506,11.58062 -0.33105,2.31489 -1.0622,4.82632 -3.07806,6.19293 -2.51461,1.82366 -5.55006,2.64223 -8.39262,3.77363 -0.92177,0.28126 -1.93765,0.72499 -2.89829,0.48462 -1.81622,-0.94681 -3.2146,-2.52245 -4.73529,-3.87383 -5.97671,-5.62926 -11.47522,-11.84405 -15.83822,-18.86515 -1.63557,-2.59326 -3.14183,-5.30084 -4.47766,-7.98914 -1.40419,-2.83322 -2.63042,-5.67388 -3.73075,-8.6026 -0.88752,-2.37099 -1.64591,-4.67851 -2.35112,-7.14095 -1.37855,-4.81095 -2.36668,-9.88033 -2.95239,-14.76442 -0.26462,-2.29027 -0.46464,-4.58891 -0.56442,-6.89302 0.13528,0.18454 0.27057,0.36907 0.40586,0.5536 z m 263.4245,0.39213 c -0.3972,10.91972 -2.71384,21.79321 -7.10862,31.77785 -4.78361,11.08871 -12.00844,20.96219 -20.51225,29.38121 -1.10979,1.1077 -2.23475,2.2002 -3.42443,3.21928 -0.40881,0.34113 -1.06426,0.91419 -1.59949,1.30368 -1.09289,0.73437 -2.21236,1.69761 -3.57284,1.768 -2.34829,-0.2391 -4.40503,-1.56684 -6.47485,-2.61996 -2.72109,-1.45021 -5.09118,-3.82159 -5.98218,-6.87814 -1.19073,-3.43568 -1.90327,-7.10638 -1.70081,-10.75997 0.1226,-1.8271 0.86547,-3.85118 2.63272,-4.62103 2.3914,-1.13066 4.81838,-2.20514 7.06233,-3.63031 6.32351,-3.91522 11.96435,-8.84654 17.45787,-13.86549 8.45514,-7.87878 16.25902,-16.492 23.24143,-25.74789 -0.007,0.22426 -0.0126,0.44852 -0.0189,0.67277 z M 255.99719,380.27813 c 2.8901,0.0135 5.89008,0.0628 8.7099,0.14032 7.03024,0.21622 14.17437,0.71311 21.06498,1.76458 2.0546,0.32096 4.08773,0.66967 6.17243,1.10663 1.06771,0.21905 2.13804,0.4608 3.1083,0.6985 7.0876,1.73955 14.10667,4.373 20.0171,8.80724 4.48807,3.415 8.18051,7.89377 10.74242,12.96534 -5.64049,-6.98565 -13.17197,-12.23133 -21.29669,-15.78218 -4.80387,-2.02062 -9.90773,-3.72657 -15.17013,-3.52825 -5.6274,0.13869 -11.30292,3.45996 -13.58397,8.81906 -2.72739,5.72541 -2.22624,13.11283 1.86693,18.04743 3.23621,4.2636 8.05439,6.79548 12.75172,9.02626 3.09065,1.60879 5.97477,3.71568 8.19435,6.45525 -18.46771,-10.82535 -40.98031,-14.4191 -61.76295,-9.47855 -8.03022,1.88449 -15.76955,4.99202 -22.96133,9.08065 2.06271,-2.62337 4.91068,-4.47512 7.79184,-6.0456 2.99616,-1.49841 6.0692,-2.91365 8.71802,-5.01799 3.83459,-2.90777 6.89657,-7.19246 7.48135,-12.11781 0.72279,-5.59535 -1.30132,-11.64051 -5.61245,-15.27798 -3.80002,-3.11506 -8.96333,-4.00552 -13.70173,-3.26169 -6.56387,0.90759 -12.66801,3.80987 -18.37661,7.10836 -4.50134,2.69927 -8.65982,6.01934 -12.19416,9.9432 0.8504,-1.32932 1.86558,-2.80661 2.89054,-4.14915 0.63991,-0.837 1.20305,-1.53885 1.84951,-2.3133 0.25086,-0.27443 0.72329,-0.85386 1.08595,-1.22375 5.37534,-5.77957 12.68179,-9.24238 20.10114,-11.40568 3.35849,-0.97831 6.7828,-1.70779 10.23009,-2.27531 0.55416,-0.0855 1.44962,-0.23113 2.02774,-0.30919 1.66023,-0.24259 3.28432,-0.43698 5.00401,-0.62567 8.28506,-0.89884 16.53486,-1.11111 24.8517,-1.15072 z m 0.0246,72.31126 c 5.17114,0.0221 10.41468,0.40713 15.3622,2.03945 -1.35481,0.31055 -2.92175,0.57608 -4.17185,0.76312 -1.07385,0.15001 -2.01872,0.25852 -3.13852,0.36698 -1.58977,0.14977 -3.16643,0.24693 -4.68762,0.29445 -6.25824,0.19649 -12.5768,-0.0652 -18.71131,-1.42262 4.94462,-1.63507 10.17801,-2.03331 15.3471,-2.04138 z" />
      <path
         style="fill:#808080;stroke-width:4.73612"
         d=""
         id="path1230" />
      <path
         id="path1807"
         style="fill:#ffff00;stroke-width:4.73612"
         d="m 393.74729,248.84574 c -1.81549,0.35921 -2.80949,2.16055 -3.74013,3.61551 -1.86055,3.21147 -3.34363,6.63647 -5.29973,9.79424 -2.7039,4.55002 -5.73935,8.88839 -8.95758,13.07432 -0.63759,0.80161 -1.41499,1.82277 -2.13009,2.69166 -7.03126,8.68793 -14.81714,16.78386 -23.48493,23.78818 -3.95319,3.19516 -8.16338,6.0679 -12.65165,8.42617 -3.41776,1.97391 -7.05367,4.18633 -8.88837,7.88603 -1.55946,3.23636 -1.73205,6.93093 -1.82526,10.47132 -0.0841,6.40044 1.60098,12.98844 5.5898,18.03442 3.00078,3.91378 7.17801,6.69955 11.59816,8.69052 2.11755,0.92833 4.2433,1.98451 6.54044,2.34222 3.37643,0.12046 6.50759,-1.54219 9.29678,-3.31256 5.87731,-3.92318 10.81878,-9.11486 15.34727,-14.5435 6.66065,-8.17038 12.41851,-17.18854 16.43728,-27.01054 3.15639,-7.72557 5.38685,-15.87163 6.21675,-24.20924 0.94634,-9.20321 0.62854,-18.48617 0.0194,-27.70101 -0.28176,-3.31932 -0.4592,-6.67401 -1.21586,-9.92525 -0.27417,-1.31341 -1.50104,-2.35999 -2.85234,-2.11249 z" />
      <path
         id="path1768"
         style="fill:#ffff00;stroke-width:4.73612"
         d="m 117.50334,247.82697 c -1.47846,0.12339 -2.14609,1.6886 -2.45761,2.97225 -0.66992,2.49719 -0.63986,5.11753 -0.82211,7.68302 -0.38913,8.77268 -0.41668,17.56362 -0.13199,26.33997 0.20716,5.67129 0.77732,11.38176 2.50125,16.80572 2.62947,8.49496 6.22706,16.6681 10.4887,24.44029 2.13482,3.88949 4.60844,7.58218 7.43811,10.98278 4.53334,5.51893 9.39112,10.78681 14.73182,15.50571 2.58572,2.25887 5.57614,4.45479 9.10422,4.63522 3.94715,0.20533 7.65133,-1.53148 11.15313,-3.17148 4.04572,-1.99604 8.3405,-4.1379 10.95771,-8.02459 2.57616,-3.85399 3.17676,-8.61323 3.73927,-13.12859 0.45653,-4.23541 0.97023,-8.61089 -0.0917,-12.79652 -0.78706,-3.17661 -3.01358,-5.78369 -5.69199,-7.50779 -1.79679,-1.23863 -3.79571,-2.11639 -5.66735,-3.22365 -0.6415,-0.37802 -1.51881,-0.92946 -2.24439,-1.38572 -8.18289,-5.38047 -15.42821,-12.08954 -22.31835,-19.06359 -7.55249,-7.75061 -14.82915,-15.92812 -20.29697,-25.37477 -2.62563,-4.34317 -4.68324,-9.00847 -7.23215,-13.39408 -0.68158,-1.14008 -1.67829,-2.49797 -3.15956,-2.29418 z" />
      <path
         id="path4771"
         style="fill:#ff0000;fill-opacity:1;stroke-width:4.73612"
         d="m 174.0705,168.19596 c -2.01021,0.0446 -4.39014,0.36793 -5.61216,2.20092 -1.15002,1.84261 -0.39277,4.15149 0.52108,5.9227 1.90653,3.51792 4.72622,6.53782 8.07762,8.65915 4.44363,2.66542 10.03454,3.17491 14.9273,1.58836 2.42351,-0.81442 4.98632,-2.41559 5.6398,-5.10396 0.59914,-2.443 -0.91989,-4.8045 -2.75093,-6.24418 -3.5771,-2.89581 -7.94826,-4.56118 -12.31367,-5.78316 -2.77118,-0.72356 -5.61877,-1.26182 -8.48904,-1.23983 z" />
      <path
         id="path5661"
         style="fill:#ff0000;fill-opacity:1;stroke-width:4.73612"
         d="m 337.199,168.20365 c -4.91664,0.25309 -9.73355,1.64452 -14.23803,3.62272 -3.0428,1.36023 -5.97579,3.20158 -7.99909,5.94348 -1.17537,1.42633 -2.00816,3.52972 -1.0799,5.30395 1.02531,1.93244 3.19218,2.78821 5.12768,3.45521 4.21053,1.24426 8.80559,0.96842 12.9283,-0.49201 3.4615,-1.18952 6.10632,-3.94524 8.39777,-6.72939 1.52189,-1.99016 3.11911,-4.11687 3.58163,-6.65406 0.3288,-1.64379 -0.77803,-3.23315 -2.25959,-3.80788 -1.40118,-0.59947 -2.95819,-0.67596 -4.45877,-0.64202 z" />
      <path
         id="path1191"
         style="fill:#808080;stroke-width:4.73612"
         d="m 253.01272,442.44017 c -6.71252,0.12117 -13.65907,0.34707 -19.89762,3.15979 -5.42931,2.41109 -10.02244,6.30123 -14.86675,9.69323 -0.73612,0.53269 -1.47223,1.06539 -2.20835,1.59808 5.25282,2.33813 10.41321,4.92347 15.86578,6.76043 3.05449,1.09935 6.18794,2.01246 9.41981,2.35676 7.51029,0.89246 15.09995,0.9397 22.6455,0.56864 4.61458,-0.279 9.27996,-0.6971 13.68418,-2.22237 4.38191,-1.36616 8.65429,-3.07215 12.80906,-5.03895 1.78287,-0.80742 3.56567,-1.615 5.34848,-2.42258 -4.00763,-2.84279 -7.89961,-5.86054 -12.01352,-8.54401 -3.99952,-2.6103 -8.51053,-4.41695 -13.22058,-5.10862 -5.80761,-0.88952 -11.70864,-0.81446 -17.56599,-0.8004 z" />
      <path
         id="path1152"
         style="fill:#808080;stroke-width:4.73612"
         d="m 252.20478,45.159742 c -7.27362,0.116102 -14.6121,0.540256 -21.67342,2.44823 -12.56689,3.173202 -24.3051,9.432349 -34.27041,17.818513 -9.25538,7.710248 -17.03174,17.106433 -23.73089,27.156091 -3.30541,4.733594 -6.5837,9.546384 -10.64851,13.649324 -1.53107,1.39698 -3.21594,3.04021 -5.38753,3.14088 -1.98505,-0.11563 -3.38927,-1.80406 -4.59172,-3.2326 -1.62654,-2.05669 -2.94232,-4.39086 -4.93672,-6.12485 -3.58991,-3.266352 -8.03527,-5.302856 -12.3256,-7.421442 C 122.34112,86.796556 109.45349,82.358067 96.359075,78.83862 86.545327,76.273713 76.568678,74.13297 66.438442,73.463807 c -3.102988,-0.137937 -6.227489,-0.530686 -9.326781,-0.15728 -1.605883,0.184237 -3.287739,1.207932 -3.592315,2.9352 -0.379353,2.202404 0.709501,4.296045 1.467678,6.292231 2.426297,5.533195 4.578803,11.189036 6.412181,16.954669 2.646009,8.226243 4.842697,16.596723 6.748019,25.031093 1.261157,5.69488 2.370829,11.60081 3.821867,17.31971 2.585521,10.31477 5.666884,20.54872 10.003862,30.25297 1.951284,4.21248 4.059,8.4601 7.201088,11.89641 1.386372,1.41496 3.087067,2.74073 5.084011,3.01012 1.923152,0.17034 3.426367,-1.36759 4.415229,-2.86839 2.326959,-3.33712 3.745499,-7.37283 6.855139,-10.10196 1.6739,-1.50205 3.99246,-2.86207 6.28373,-2.13732 2.08508,0.78954 3.2746,3.08333 3.52456,5.23529 0.2642,3.46158 -1.04367,6.78735 -2.30155,9.93243 -0.41036,0.98288 -0.82092,1.90318 -1.23868,2.79207 -0.34178,0.74648 -0.67153,1.39011 -1.05304,2.17828 -0.62988,1.26251 -1.38258,2.7171 -2.09676,4.03503 -7.10485,13.0777 -15.340336,25.46572 -23.0606,38.16502 -5.078283,8.27415 -9.984092,16.68111 -14.082162,25.51163 -6.019904,12.65731 -11.137645,25.93369 -13.318148,39.8835 -1.406625,9.07436 -1.384282,18.46899 0.900505,27.39633 2.665055,11.05993 8.128481,21.32163 15.379659,29.95681 5.977166,7.2076 13.125657,13.30574 20.658368,18.75628 10.307208,7.54036 20.833338,14.77253 31.562418,21.67506 4.45145,2.82568 8.95369,5.59051 13.64682,7.98192 0.70512,0.30891 1.56394,0.77285 2.28769,0.2891 1.03157,-0.32331 1.31502,-1.58732 1.30453,-2.57483 -0.0738,-4.59637 -0.69715,-9.16232 -1.22104,-13.72258 -0.76831,-5.79563 -1.47919,-11.61965 -2.84804,-17.30726 -1.20859,-4.9957 -3.5321,-9.64151 -6.4341,-13.83101 -3.93985,-5.78986 -8.6709,-10.9628 -12.647,-16.72634 -8.59433,-12.1128 -15.31422,-25.74224 -18.71255,-40.32648 -0.41017,-1.74057 -0.82437,-3.75237 -1.16023,-5.62092 -0.85075,-4.79632 -1.357995,-9.65326 -1.559252,-14.52223 -0.01614,-0.52061 -0.05115,-1.47189 -0.05982,-2.02289 -0.05579,-2.45697 -0.02352,-4.91522 0.06737,-7.3709 0.04846,-1.00618 0.106509,-2.27944 0.185128,-3.38583 0.131023,-1.94321 0.293969,-3.74058 0.509524,-5.69954 0.31463,-2.86136 0.72749,-5.7108 1.21382,-8.54698 0.31424,-1.81236 0.6944,-3.82005 1.08922,-5.69741 0.54236,-2.57938 1.13249,-5.09701 1.80025,-7.68655 1.46508,-5.64393 3.17796,-11.4257 5.23668,-16.96089 1.44863,-3.68477 2.95976,-7.46672 5.55239,-10.49092 1.23636,-1.42362 3.15805,-2.6738 5.0872,-2.11388 1.88209,0.88811 2.94923,2.84751 3.93927,4.60608 3.21785,6.23418 4.74345,13.1586 7.0132,19.76853 2.7464,8.38774 6.08952,16.6192 10.6532,24.1649 2.95016,5.19395 6.83704,9.73595 10.67505,14.2572 5.15705,5.93108 10.4474,11.76339 16.18513,17.12048 1.38541,1.17816 2.70834,2.57229 4.43916,3.20261 1.56312,0.47042 2.87494,-0.82448 3.9898,-1.74575 4.39164,-3.98275 8.33142,-8.44804 12.2787,-12.87787 5.16448,-5.84326 10.07957,-11.90748 14.90317,-18.04357 3.0214,-3.69105 6.0075,-7.47419 9.64678,-10.56244 1.75338,-1.48198 3.93933,-2.68082 6.28963,-2.4478 1.33666,0.0505 3.10846,0.28163 3.59475,1.79315 0.67787,2.00934 0.37779,4.22572 -0.48176,6.12909 -2.03651,4.7534 -5.11949,8.93686 -8.14276,13.07505 -5.76971,7.74652 -12.25032,14.86609 -18.32062,22.35707 -1.81349,2.35803 -3.8285,4.64901 -4.9825,7.43804 -0.67205,1.59291 -0.377,3.58108 0.92224,4.75524 2.52624,2.05217 3.68615,5.28053 4.49634,8.35838 1.69797,7.01196 1.66102,14.35307 0.78443,21.48408 -0.62971,4.7305 -1.70202,9.42243 -3.46772,13.85329 -0.27937,0.68137 -0.6757,1.62494 -1.05765,2.38562 -2.80197,5.9061 -7.64835,10.62278 -13.24548,13.77776 -5.21152,3.01824 -10.98173,4.82693 -16.76368,6.32344 -2.25882,0.68987 -4.58648,1.26687 -6.68743,2.38261 -1.37847,0.87943 -1.25547,2.73585 -1.24173,4.18493 0.23231,4.97555 0.93813,9.92578 1.94382,14.79778 0.39725,1.49579 0.58782,3.20858 1.71796,4.35089 0.84873,0.75008 2.13062,0.60839 2.9409,-0.13155 2.81612,-2.56057 4.62689,-6.00583 6.92553,-9.01188 5.89482,-7.9759 13.63067,-14.49903 22.37766,-18.99508 12.00294,-6.21566 25.38621,-9.0375 38.68737,-10.48758 7.08002,-0.76004 14.19671,-1.11182 21.27493,-1.21491 7.05244,-0.0969 14.11582,0.0247 21.0854,0.45071 4.83747,0.2971 9.68417,0.74861 14.52706,1.40953 3.69804,0.50456 7.63433,1.17854 11.40242,2.00495 11.34744,2.49557 22.5891,6.56764 31.99231,13.65369 5.56688,4.16392 10.30525,9.42809 14.00711,15.35973 1.54074,2.23891 2.90708,4.6713 4.93417,6.50298 1.09125,0.9941 2.92553,1.1615 3.97552,0.0192 1.35295,-1.4851 1.51319,-3.63442 1.89393,-5.53236 0.72112,-4.74953 1.45082,-9.5387 1.35615,-14.35778 -0.008,-1.2139 -0.37573,-2.60975 -1.57945,-3.12053 -4.56507,-2.11848 -9.59229,-2.85469 -14.29435,-4.58179 -7.14944,-2.52051 -14.12219,-6.3593 -18.97945,-12.4037 -2.96272,-3.59058 -4.73904,-8.01424 -5.846,-12.5256 -1.64834,-6.6675 -2.38376,-13.56701 -2.2494,-20.43921 0.0126,-0.47607 0.0292,-1.01919 0.0592,-1.52972 0.0634,-1.30933 0.17266,-2.51231 0.32,-3.86304 0.0855,-0.78802 0.17892,-1.57128 0.28287,-2.24808 0.34029,-2.69009 1.2022,-5.36122 2.91382,-7.48012 1.43592,-1.93778 3.03054,-3.81476 4.02045,-6.04102 0.53695,-1.20924 -0.36283,-2.3345 -1.05519,-3.24347 -5.49452,-7.14085 -11.59588,-13.76517 -17.27665,-20.74896 -0.74919,-0.94307 -1.63527,-2.0189 -2.39083,-2.98004 -3.59267,-4.57284 -7.23682,-9.33232 -10.23762,-14.43038 -1.33852,-2.28719 -2.65694,-4.86987 -2.23495,-7.62151 0.16886,-1.79305 1.54617,-3.41498 3.34241,-3.61609 2.23721,-0.41371 4.5424,0.31359 6.32162,1.71143 3.54555,2.7156 6.32254,6.2953 9.15196,9.73638 4.41447,5.62425 8.87471,11.21304 13.54272,16.62271 5.34249,6.32516 11.09911,12.2659 16.70625,18.34439 5.40262,-4.15136 10.97078,-8.12241 15.8578,-12.91558 9.24569,-8.84425 16.56851,-19.65691 21.8976,-31.35383 3.5046,-7.60836 6.16077,-15.58839 8.39538,-23.66885 1.15242,-3.85912 2.29232,-7.90941 3.91957,-11.69644 0.79442,-1.72378 1.76904,-3.79814 3.78984,-4.2213 2.05583,-0.53512 3.9283,0.96165 5.22932,2.41385 2.75434,3.13374 4.51963,7.00197 6.1347,10.83204 0.24453,0.627 0.61986,1.53823 0.89305,2.28324 1.65924,4.39538 3.02275,8.90023 4.25664,13.43651 1.01811,3.73229 1.95811,7.67848 2.72963,11.54474 0.75521,3.84278 1.36915,7.65678 1.81287,11.59331 0.21672,1.91388 0.39776,3.8787 0.51485,5.71379 0.67059,9.71124 0.0973,19.73646 -1.94827,29.34854 -0.46387,2.21416 -1.05815,4.5784 -1.64044,6.64698 -0.75578,2.68684 -1.69328,5.50322 -2.62015,8.01366 -5.06392,13.61582 -12.88697,25.99869 -21.88598,37.24925 -3.41457,4.48344 -6.76209,9.05131 -9.53876,13.97931 -1.61618,3.01125 -2.27023,6.42355 -3.06692,9.72524 -1.69944,7.84539 -3.03767,15.78178 -3.83228,23.77684 -0.13358,2.07832 -0.44228,4.2117 0.0242,6.26633 0.26448,0.90092 1.00172,1.65189 1.94662,1.72321 1.45111,-0.0439 2.69747,-1.02452 3.97512,-1.64642 8.26741,-4.76238 16.28834,-9.95337 24.26807,-15.19405 8.04716,-5.31112 15.89671,-10.93605 23.50724,-16.87746 7.78891,-6.12579 15.2894,-12.89065 20.76825,-21.29915 3.24971,-5.00608 6.03747,-10.33905 8.20209,-15.9231 3.54943,-9.14001 4.87049,-19.12183 4.04161,-28.90297 -1.00932,-12.36756 -4.9015,-24.28421 -9.69301,-35.62344 -6.31865,-14.80953 -14.23373,-28.84834 -22.54379,-42.57555 -5.39989,-8.83698 -10.93396,-17.65677 -16.00901,-26.64703 -3.12805,-5.62192 -6.28751,-11.28078 -8.45431,-17.37371 -0.84008,-2.60547 -1.70507,-5.48518 -0.85305,-8.20212 0.70319,-2.05824 2.53627,-4.00902 4.82693,-3.84013 2.87703,0.21435 5.17204,2.38655 6.81339,4.63746 1.41673,1.95111 2.22923,4.10168 3.45426,6.18192 1.06069,1.80063 2.34,3.93932 4.56204,4.28851 2.18931,0.2667 3.942,-1.42368 5.40451,-2.84101 3.2904,-3.5047 5.47799,-7.88737 7.5366,-12.21234 4.41263,-9.6692 7.6307,-19.85969 10.3039,-30.15378 1.63751,-6.1977 2.82825,-12.50182 4.13894,-18.77588 2.53894,-11.91513 6.06367,-23.619514 10.70962,-34.861248 1.18423,-3.044223 2.67865,-5.984702 3.48705,-9.166111 0.44219,-1.663922 0.17264,-3.729116 -1.34027,-4.743992 -1.89499,-1.247673 -4.27639,-1.03708 -6.43361,-1.028023 -5.58408,0.228917 -11.17143,0.65567 -16.67493,1.681495 -12.04385,2.156724 -23.85924,5.493153 -35.45663,9.413935 -8.98182,3.11753 -17.90301,6.548764 -26.29538,11.091122 -3.73206,1.995377 -7.14825,4.634401 -9.85547,7.939402 -1.44912,1.59653 -2.54313,3.50882 -4.11093,4.99084 -1.22968,1.20386 -3.13224,1.56298 -4.68943,0.83316 -2.92497,-1.25654 -5.08387,-3.77206 -7.0549,-6.21856 -3.42127,-4.299733 -5.85682,-9.282166 -9.01615,-13.768676 -9.03308,-13.089266 -20.79862,-24.266771 -34.40646,-32.290055 -7.09406,-4.149606 -14.70523,-7.487695 -22.69338,-9.362796 -7.29584,-1.530538 -14.76178,-1.999299 -22.19357,-2.202076 -1.96444,-0.04493 -3.92954,-0.05233 -5.89435,-0.03196 z m 86.7781,110.734138 c 2.12663,-0.006 4.29797,0.0538 6.33591,0.17332 1.46106,0.082 2.89003,0.18209 4.27723,0.30178 4.04088,0.3784 8.10493,0.73555 12.07283,1.63059 2.2282,0.58298 4.62192,2.03241 5.06684,4.51831 0.46215,2.87034 -1.1575,5.57143 -2.92881,7.65881 -1.54089,1.66031 -3.16217,3.25365 -4.50891,5.09096 -1.78101,2.24129 -3.28116,4.68918 -4.72642,7.16139 -3.17406,4.80331 -7.26695,8.94896 -11.81559,12.40401 -4.64167,3.54454 -10.38354,5.80093 -16.23905,5.57969 -4.34603,-0.0525 -8.53403,-1.33276 -12.77273,-2.14587 -2.16562,-0.44113 -4.49037,-0.3538 -6.47457,0.7185 -3.09313,1.5499 -5.9385,3.87001 -9.43506,4.3907 -1.03935,0.19177 -2.13049,-0.33303 -2.52577,-1.35706 -1.10348,-2.55267 -1.03647,-5.42409 -1.03457,-8.15961 0.0307,-2.15258 0.13961,-4.30586 0.39842,-6.44335 0.0524,-0.37018 0.15136,-1.12502 0.23974,-1.63772 0.64423,-4.16899 2.33974,-8.15476 4.93373,-11.4506 2.98958,-3.79552 6.51744,-7.15035 10.36242,-10.03293 5.46882,-4.0929 11.96469,-6.65485 18.66699,-7.64774 3.34201,-0.52942 6.72754,-0.73001 10.10737,-0.75318 z m -166.78121,0.0385 c 4.20568,0.0627 8.42713,0.20405 12.59642,0.80163 4.64019,0.67011 8.90188,2.82142 13.00019,5.02869 5.67749,3.13926 10.74486,7.59464 14.08828,13.27111 2.411,4.10615 4.25283,8.59176 5.26063,13.27098 0.76096,3.79547 0.98847,7.9628 -0.71565,11.53771 -0.7869,1.72447 -2.58362,3.00605 -4.49606,2.75713 -2.51866,-0.23272 -4.56578,-1.91785 -6.39358,-3.55278 -1.69059,-1.44025 -4.03864,-1.31205 -6.07413,-0.92601 -4.62561,0.79982 -9.12057,2.40381 -13.82595,2.69149 -3.15308,0.0875 -6.26598,-0.69339 -9.25573,-1.64367 -6.35289,-2.12248 -11.70919,-6.59693 -15.8082,-11.8896 -2.39281,-3.07915 -4.42571,-6.43083 -6.87507,-9.4679 -1.94081,-2.51724 -3.98869,-4.95597 -6.27047,-7.16043 -1.87583,-2.06878 -3.29719,-5.05208 -2.4345,-7.89261 0.51333,-1.75006 2.09771,-2.83182 3.70387,-3.42533 2.75452,-1.108 5.67226,-1.71855 8.58325,-2.22403 0.72338,-0.1158 1.72555,-0.2725 2.46932,-0.36965 2.94683,-0.39615 5.97815,-0.63658 8.8343,-0.74137 1.20388,-0.0453 2.4084,-0.0651 3.61308,-0.0653 z" />
      <path
         id="path1269"
         style="fill:#4d4d4d;stroke-width:4.73612"
         d="m 43.327591,45.075166 c -2.241505,0.139867 -4.630629,0.09299 -6.667295,1.185761 -1.389875,0.729992 -1.973426,2.558285 -1.333726,3.998009 0.866453,1.91218 2.403889,3.413976 3.915875,4.808291 2.937148,2.558397 6.918526,3.108662 10.613018,3.606963 5.242923,0.653225 10.57907,0.907896 15.745238,1.553683 6.568351,0.795955 13.190254,1.894305 19.628426,3.160098 10.880518,2.157339 21.761463,4.838402 32.308183,8.121298 5.92232,1.852994 11.90449,3.9481 17.65163,6.476075 5.53069,2.35578 11.0115,4.83738 16.58176,7.093973 1.98256,0.711186 4.19238,1.659851 6.28824,0.865679 1.71441,-0.713895 2.6665,-2.531839 3.24308,-4.224997 0.51448,-1.743539 -0.42716,-3.510524 -1.70649,-4.632503 -3.54331,-3.280327 -7.91538,-5.396085 -12.11503,-7.648069 C 137.23286,64.228749 126.69988,59.595199 115.95304,55.560563 106.10601,51.92119 95.975401,48.969387 85.586208,47.475165 73.947104,45.763158 62.170166,45.381617 50.42886,45.075223 c -2.366856,-0.04816 -4.734551,-0.06467 -7.101269,-5.7e-5 z" />
      <path
         id="path1382"
         style="fill:#4d4d4d;stroke-width:4.73612"
         d="m 464.45719,45.046333 c -9.99424,0.221095 -19.98984,0.680876 -29.946,1.614563 -12.09016,1.118929 -24.12291,3.300041 -35.67848,7.142984 -13.5508,4.462299 -26.45503,10.687543 -39.20217,17.097538 -2.45573,1.325798 -5.07266,2.494588 -7.12409,4.448408 -1.36746,1.272609 -1.78733,3.231809 -1.63287,5.049621 0.12549,1.867487 0.3211,4.024381 1.87261,5.274518 1.28041,1.087225 3.03679,0.428343 4.42973,-0.0417 6.91087,-2.515748 13.70494,-5.353078 20.57588,-7.980689 13.96768,-5.404467 28.1733,-10.327103 42.8312,-13.400541 2.07911,-0.431742 4.34176,-0.877997 6.50128,-1.26673 2.40709,-0.430283 5.04269,-0.861176 7.47051,-1.213301 6.64706,-1.010433 13.28055,-1.630541 19.95858,-2.438213 5.03779,-0.688423 10.14409,-1.316412 14.96325,-3.037744 2.95656,-1.053937 5.77372,-3.024492 7.10157,-6.001111 0.65882,-1.459874 0.0876,-3.329737 -1.33354,-4.068212 -2.03737,-1.09258 -4.42674,-1.03946 -6.6692,-1.161447 -1.37273,-0.03529 -2.74525,-0.02895 -4.11826,-0.01795 z" />
      <path
         id="path1846"
         style="fill:#ffaea4;fill-opacity:1;stroke-width:4.73612"
         d="m 253.07812,369.03906 c -12.88553,0.12787 -25.85816,0.95812 -38.42443,3.97062 -6.04846,1.50738 -12.05567,3.47763 -17.46754,6.62058 -7.12994,4.34092 -12.89898,10.60974 -17.63633,17.41767 -4.31964,6.3769 -7.91582,13.40095 -9.48927,20.98918 -0.87443,4.3967 -0.96048,9.18654 1.10852,13.27967 2.37372,4.81123 6.18987,8.86083 10.67005,11.77814 4.10214,2.56133 8.87249,4.42028 13.78369,4.07693 5.53368,-0.34575 10.71312,-2.58069 15.70476,-4.8308 5.97664,-2.77403 11.74927,-5.98735 17.87859,-8.43043 4.82787,-1.97309 9.81654,-3.60271 14.95595,-4.53562 0.48769,-0.0865 1.33173,-0.23331 1.95933,-0.31841 3.78599,-0.56404 7.62693,-0.70896 11.44887,-0.54292 0.64003,0.0365 1.60284,0.0865 2.36295,0.14703 1.7313,0.13602 3.72497,0.31218 5.5514,0.54376 5.46626,0.60041 10.8109,2.07418 15.87275,4.2094 9.52827,3.86424 18.38729,9.3569 28.30551,12.24512 4.52891,1.32599 9.43449,1.75274 14.01212,0.40563 4.24978,-1.0996 7.97526,-3.62557 11.19117,-6.54362 4.17018,-3.87357 6.86204,-9.34654 7.1275,-15.0552 0.37811,-6.61032 -1.72783,-13.06786 -4.36087,-19.0435 -3.34103,-7.6908 -8.19257,-14.83074 -14.7045,-20.18086 -7.85445,-6.56063 -17.62877,-10.34968 -27.51932,-12.58617 -13.59248,-3.03232 -27.5861,-3.62109 -41.46917,-3.61917 -0.28724,9.9e-4 -0.57448,0.002 -0.86173,0.003 z m 37.92969,28.82422 c 4.87737,0.43692 9.32476,2.72542 13.59555,4.96031 5.15225,2.73645 10.08838,6.2428 13.3565,11.16774 1.49814,2.30455 3.13507,4.69199 3.55967,7.4657 0.28791,1.70391 -0.89142,3.17288 -2.18587,4.11452 -1.5167,1.28597 -3.69624,1.46591 -5.50148,0.72918 -4.21812,-1.61616 -7.26951,-5.08743 -10.65218,-7.9248 -3.69907,-3.06065 -7.56663,-5.97527 -11.85942,-8.15626 -2.25494,-1.30414 -4.79394,-2.88627 -5.46316,-5.59076 -0.35434,-1.78311 -0.51803,-3.86549 0.5957,-5.42188 1.08829,-1.31383 2.9777,-1.42502 4.55469,-1.34375 z m -69.10351,0.0918 c 1.58484,-0.0176 3.56922,0.4033 4.15703,2.09254 0.56921,1.65467 0.58516,3.51531 0.12422,5.19847 -0.78674,2.18827 -2.98011,3.36753 -4.84623,4.52023 -2.27392,1.25779 -4.60371,2.43018 -6.69997,3.98155 -3.66561,2.5729 -7.07353,5.49343 -10.26263,8.63418 -1.76312,1.54373 -3.49518,3.37876 -5.83575,3.985 -1.75351,0.26594 -3.5868,0.13799 -5.30025,-0.3153 -1.20447,-0.2576 -1.96838,-1.37894 -2.06103,-2.56152 -0.51772,-2.99995 0.71248,-5.95194 2.32563,-8.4176 3.27351,-4.95185 7.92276,-8.86681 12.95083,-11.95087 4.56418,-2.7197 9.64832,-4.89771 15.01651,-5.16473 0.14388,-4.2e-4 0.28776,-10e-4 0.43164,-0.002 z" />
      <path
         style="fill:#000000;stroke-width:2.38671"
         d="m 233.43078,480.20633 c -3.6917,-1.13546 -13.58214,-5.68483 -21.97871,-10.10972 -8.3966,-4.4249 -18.98674,-8.71693 -23.5337,-9.53784 -13.0975,-2.36462 -23.92125,-10.13465 -29.52786,-21.1971 -4.32513,-8.53397 -8.65844,-12.16643 -26.42565,-22.1516 -67.887791,-38.15304 -88.885744,-63.20658 -89.054138,-106.25418 -0.112458,-28.74032 9.935269,-55.37333 35.446483,-93.9565 l 9.780354,-14.79181 -7.834486,-7.31625 C 66.715837,182.20283 60.593239,167.45658 54.403459,132.5122 49.654165,105.70011 40.686456,84.451433 23.674164,59.700286 8.9604621,38.293367 9.3572516,34.609241 26.711369,31.500572 c 16.292854,-2.918562 59.821449,-0.09692 79.182261,5.132808 17.80154,4.808539 42.17764,14.857164 57.82119,23.835764 l 9.04463,5.19117 11.27443,-9.926491 c 6.20093,-5.45957 18.61489,-13.248192 27.58658,-17.308046 15.37141,-6.955852 17.93177,-7.381552 44.39609,-7.381552 26.46433,0 29.02469,0.4257 44.3961,7.381552 8.97166,4.059854 21.38566,11.848476 27.5866,17.308046 l 11.27442,9.926491 9.04464,-5.217721 c 16.11758,-9.29799 38.78941,-18.676403 57.08925,-23.615483 20.08646,-5.421278 63.3043,-8.301888 79.9142,-5.326538 16.87395,3.022656 17.52593,6.810624 4.41474,25.648515 -14.53573,20.884595 -25.36509,42.861143 -28.45126,57.737423 -11.78712,56.81816 -14.80709,65.10473 -28.68565,78.71138 l -8.77418,8.60223 11.4539,17.5531 c 39.80818,61.0062 44.57738,107.38008 15.00109,145.86472 -10.43348,13.57604 -31.04371,28.85858 -66.3499,49.1987 -21.4236,12.34229 -25.97818,16.04147 -30.33493,24.63783 -5.93034,11.70127 -15.8269,18.30707 -32.90307,21.96236 -6.65076,1.42364 -13.75845,3.98118 -15.79487,5.68344 -10.55175,8.82027 -26.07446,13.78847 -45.21795,14.47251 -10.74517,0.38391 -22.55717,-0.23093 -26.2489,-1.36645 z m 49.14475,-18.8662 10.68548,-4.63106 -6.12441,-4.60146 c -8.95206,-6.726 -17.7095,-9.35996 -31.12005,-9.35996 -13.41054,0 -22.16801,2.63396 -31.12004,9.35996 l -6.12441,4.60146 10.68546,4.63106 c 7.14789,3.09785 15.94063,4.63105 26.55899,4.63105 10.61837,0 19.41112,-1.5332 26.55898,-4.63105 z m -65.31264,-23.57229 c 24.29768,-14.63776 53.86412,-14.37294 78.46023,0.70275 13.7192,8.4089 24.99517,9.44716 34.94839,3.21793 11.97941,-7.49731 13.22049,-22.71254 3.35864,-41.17665 -11.38951,-21.32437 -34.08785,-30.07474 -78.0136,-30.07474 -32.81039,0 -51.55156,4.23938 -64.77851,14.65337 -10.27839,8.09248 -20.63465,27.18053 -20.67049,38.09864 -0.0306,9.30694 7.88837,18.91005 17.83488,21.62789 9.78772,2.67449 14.71927,1.46995 28.86046,-7.04919 z m -27.12531,-12.44879 c -4.2889,-4.93614 4.39029,-17.48852 16.63866,-24.06385 11.17986,-6.00173 18.82929,-6.61188 20.81845,-1.6606 2.23353,5.5595 -0.47402,9.44629 -9.41823,13.52026 -4.57621,2.08441 -10.14897,6.4555 -12.38392,9.71353 -4.54282,6.6224 -11.15141,7.6738 -15.65496,2.49066 z m 116.10297,-2.49066 c -2.2349,-3.25803 -7.80769,-7.62912 -12.38392,-9.71353 -8.94419,-4.07397 -11.65173,-7.96076 -9.41822,-13.52026 1.98917,-4.95128 9.6386,-4.34113 20.81845,1.6606 12.24838,6.57533 20.92756,19.12771 16.63868,24.06385 -4.50357,5.18314 -11.11215,4.13174 -15.65499,-2.49066 z m -165.46997,-38.5849 c -2.65665,-17.94346 -3.84603,-20.73285 -13.83568,-32.44757 -27.241965,-31.94634 -35.267977,-67.31948 -24.76721,-109.15694 6.35535,-25.32119 10.8898,-33.66005 17.78816,-32.7125 4.33778,0.59583 6.09732,3.68724 9.70773,17.05591 6.46374,23.93399 15.34039,39.65029 30.65854,54.28171 l 13.59765,12.98799 11.83307,-12.64145 c 6.50818,-6.95282 15.27461,-17.62742 19.48093,-23.72133 7.93959,-11.50246 16.9905,-14.86998 19.97821,-7.43318 2.07633,5.16827 -3.68681,14.71398 -20.37061,33.74066 -14.34964,16.36473 -14.44287,16.56631 -9.74052,21.05784 3.75531,3.58696 4.74781,7.79436 4.74781,20.1267 0,26.50228 -11.5372,41.19811 -36.27594,46.20739 -7.57239,1.53332 -8.08034,2.19204 -6.71571,8.70926 0.81195,3.87777 1.47628,9.01861 1.47628,11.4241 0,6.86597 3.18175,5.14279 9.25259,-5.01103 12.58498,-21.04911 43.77933,-32.52108 88.43067,-32.52108 44.65135,0 75.8457,11.47197 88.4307,32.52108 6.07082,10.15382 9.25258,11.877 9.25258,5.01103 0,-2.40549 0.66432,-7.54633 1.47629,-11.4241 1.36383,-6.51351 0.85233,-7.17918 -6.71574,-8.74033 -25.41488,-5.24259 -36.27594,-18.76779 -36.27594,-45.1743 0,-13.23024 0.94664,-17.49796 4.67023,-21.05461 4.5989,-4.39272 4.50413,-4.64672 -6.20768,-16.63331 -18.09291,-20.2461 -25.78886,-32.15146 -24.0895,-37.26564 2.83977,-8.54619 11.88625,-5.65228 20.19264,6.45952 4.17925,6.09391 12.7044,16.60462 18.94481,23.35715 l 11.34614,12.27727 9.41239,-7.12054 c 13.97067,-10.56893 27.90589,-32.02054 32.78467,-50.46823 6.37665,-24.11144 7.88211,-26.87633 14.16913,-26.02318 4.48566,0.60871 6.6964,4.23315 12.2743,20.12321 16.20327,46.1594 9.19078,86.84516 -21.0886,122.35341 -9.60982,11.26933 -10.95074,14.40347 -13.61852,31.83045 -1.62749,10.63166 -2.51153,19.7578 -1.96447,20.28033 2.19459,2.09622 52.5928,-31.88148 62.46927,-42.11582 31.91163,-33.06794 29.39884,-71.49017 -8.58421,-131.25747 -20.86598,-32.83315 -27.67982,-45.85851 -27.67982,-52.91283 0,-11.32482 12.5339,-10.54243 16.76342,1.0464 1.38554,3.79637 3.65966,6.90249 5.05363,6.90249 7.81778,0 21.57015,-34.10103 25.83162,-64.05341 1.39725,-9.82069 7.32023,-27.670781 14.54326,-43.82922 1.56124,-3.492576 0.43283,-4.082045 -7.81423,-4.082045 -24.39656,0 -82.41798,19.845006 -86.26286,29.504405 -4.95787,12.45556 -15.13895,8.36433 -24.33402,-9.778514 -7.17019,-14.147604 -26.677,-32.170092 -43.21543,-39.927069 -19.60356,-9.194606 -51.37588,-10.582816 -72.12674,-3.151394 -18.72286,6.705152 -35.35794,19.775753 -45.78393,35.97359 -13.10344,20.357537 -18.18786,25.694047 -22.8516,23.984627 -2.24653,-0.82342 -5.08841,-4.01898 -6.31529,-7.10124 -3.84487,-9.659399 -61.866284,-29.504405 -86.262865,-29.504405 -8.247044,0 -9.37547,0.589469 -7.814228,4.082045 7.797542,17.443597 13.220851,34.69533 15.582246,49.56769 4.775174,30.07453 16.850658,58.31494 24.935243,58.31494 1.315519,0 3.525481,-3.10612 4.911024,-6.90249 4.23308,-11.59863 16.76342,-12.3693 16.76342,-1.03102 0,7.01172 -6.02161,18.69922 -23.917154,46.42135 -41.622122,64.47719 -45.142621,103.74948 -12.346885,137.73357 9.440637,9.78269 60.232649,44.25221 62.298949,42.27855 0.45335,-0.43302 -0.48364,-9.62131 -2.08222,-20.41842 z m 65.6499,-182.80723 c -2.93202,-2.80054 -5.24516,-3.09079 -10.22373,-1.28279 -15.2979,5.55549 -30.24298,-0.48634 -39.68777,-16.04451 -3.59805,-5.92696 -7.41943,-11.1302 -8.49198,-11.56274 -4.85726,-1.95887 -6.71602,-9.43649 -3.18425,-12.80993 5.04524,-4.81905 30.08348,-7.17022 42.45959,-3.98708 19.90627,5.11989 33.82711,23.09513 31.69933,40.93165 -0.94996,7.96322 -6.86878,10.20217 -12.57119,4.7554 z m -12.87675,-16.69018 c 10.29474,-3.77335 -3.14658,-14.91232 -17.99459,-14.91232 -8.77569,0 -9.21777,1.88644 -2.38612,10.18212 4.9332,5.99038 12.28646,7.69701 20.38071,4.7302 z m 100.73211,18.52158 c -2.94105,-2.8092 -1.70142,-19.53449 1.94736,-26.27409 5.12675,-9.46958 17.03258,-18.29043 28.7577,-21.30612 9.2336,-2.37488 31.44597,-1.38861 40.09114,1.78012 5.02771,1.84282 3.93381,11.86798 -1.60388,14.69879 -2.68629,1.3732 -4.88417,4.03128 -4.88417,5.90685 0,1.87555 -3.94608,7.58212 -8.76907,12.68125 -9.88342,10.4493 -20.90169,13.69654 -32.90853,9.69858 -6.0776,-2.02369 -8.33928,-1.83878 -11.22515,0.9177 -3.83208,3.66028 -8.70993,4.47155 -11.4054,1.89692 z m 44.60522,-23.88044 c 6.60044,-8.85389 6.4249,-9.55346 -2.39707,-9.55346 -14.2053,0 -28.33693,11.10951 -18.80486,14.78335 8.44381,3.25441 16.32655,1.30996 21.20193,-5.22989 z m -169.67654,173.7529 c 9.25858,-3.69504 12.78886,-8.56307 13.68083,-18.86501 1.36663,-15.78445 0.15861,-19.13964 -8.06182,-22.39201 -13.37889,-5.29327 -41.69486,-34.07973 -50.09106,-50.92335 l -7.48077,-15.00719 -1.76521,11.24355 c -5.05833,32.21904 5.11742,65.02301 27.14866,87.52025 12.50761,12.77215 14.27205,13.33156 26.56937,8.42376 z m 200.51524,-8.94472 c 22.03627,-23.28703 31.09529,-51.88899 26.81025,-84.6477 l -1.7722,-13.5482 -7.46897,14.98373 c -8.31162,16.67416 -36.6741,45.59621 -49.81103,50.79375 -9.16244,3.62507 -11.94345,12.72073 -8.07976,26.42604 1.77034,6.27986 5.00481,10.53821 10.38392,13.671 12.20967,7.11092 17.13904,5.84662 29.93779,-7.67862 z M 160.35527,80.362296 c 1.07786,-5.30905 -43.20374,-25.361574 -67.219234,-30.439625 -17.914062,-3.787908 -56.97002,-5.139814 -56.829173,-1.967116 0.263708,5.939997 7.350935,9.913538 17.68182,9.913538 23.393398,0 67.537827,11.107707 90.971277,22.890373 10.86685,5.464007 14.22293,5.377425 15.39531,-0.39717 z m 223.87058,-6.725687 c 22.78655,-8.680182 43.8971,-13.593101 64.71516,-15.060734 19.87894,-1.401426 26.52971,-4.119232 26.78526,-10.945677 0.12527,-3.346967 -53.57387,0.137909 -68.30066,4.432443 -15.07272,4.395428 -53.00431,21.465116 -55.18371,24.833349 -0.77933,1.204434 -0.79494,3.738123 -0.0346,5.630416 1.20325,2.995099 2.57501,2.943449 10.59523,-0.398947 5.06718,-2.111715 14.70771,-5.932597 21.42342,-8.49085 z"
         id="path978" />
    </g>
  </g>
</svg>
