<?xml version="1.0" encoding="UTF-8" standalone="no"?>
<svg
   width="512"
   height="512"
   version="1.1"
   viewBox="0 0 135.47 135.47"
   id="svg328"
   sodipodi:docname="dirsearch.svg"
   inkscape:version="1.2.2 (b0a8486541, 2022-12-01)"
   inkscape:export-filename="../GIT Icons/dirsearch.png"
   inkscape:export-xdpi="96"
   inkscape:export-ydpi="96"
   xmlns:inkscape="http://www.inkscape.org/namespaces/inkscape"
   xmlns:sodipodi="http://sodipodi.sourceforge.net/DTD/sodipodi-0.dtd"
   xmlns="http://www.w3.org/2000/svg"
   xmlns:svg="http://www.w3.org/2000/svg">
  <sodipodi:namedview
     id="namedview330"
     pagecolor="#505050"
     bordercolor="#ffffff"
     borderopacity="1"
     inkscape:showpageshadow="0"
     inkscape:pageopacity="0"
     inkscape:pagecheckerboard="1"
     inkscape:deskcolor="#505050"
     showgrid="false"
     inkscape:zoom="0.96875"
     inkscape:cx="256"
     inkscape:cy="256"
     inkscape:window-width="1366"
     inkscape:window-height="705"
     inkscape:window-x="0"
     inkscape:window-y="0"
     inkscape:window-maximized="1"
     inkscape:current-layer="svg328" />
  <defs
     id="defs318">
    <linearGradient
       id="c"
       x1="107.22"
       x2="30.6"
       y1="117.27"
       y2="17.033"
       gradientUnits="userSpaceOnUse">
      <stop
         stop-color="#0f2751"
         offset="0"
         id="stop301" />
      <stop
         stop-color="#198388"
         offset="1"
         id="stop303" />
    </linearGradient>
    <linearGradient
       id="b"
       x1="60.491"
       x2="95.165"
       y1="52.53"
       y2="87.203"
       gradientUnits="userSpaceOnUse">
      <stop
         stop-color="#23bac2"
         offset="0"
         id="stop306" />
      <stop
         stop-color="#72a2f4"
         offset="1"
         id="stop308" />
    </linearGradient>
    <radialGradient
       id="a"
       cx="67.733"
       cy="67.733"
       r="38.245"
       gradientTransform="matrix(0.68527,0,0,0.67457,21.318,22.042)"
       gradientUnits="userSpaceOnUse">
      <stop
         stop-color="#191919"
         offset="0"
         id="stop311" />
      <stop
         stop-color="#191919"
         offset=".5"
         id="stop313" />
      <stop
         stop-color="#737680"
         offset="1"
         id="stop315" />
    </radialGradient>
  </defs>
  <g
     stroke-linecap="square"
     stroke-miterlimit="16.8"
     id="g326"
     transform="matrix(1.0604679,0,0,1.066684,-4.0937783,-4.5156141)">
    <path
       d="m 67.733,39.45 -7.5695,7.5695 1.6315,1.6315 -13.271,13.271 -1.6698,-1.67 -7.5702,7.5702 1.8873,1.8875 5.6829,5.6827 1.7587,-1.7589 13.182,13.182 -1.6315,1.6315 7.5695,7.5695 7.5695,-7.5695 -1.6308,-1.6308 13.182,-13.182 1.7582,1.7582 7.5702,-7.5702 -7.5702,-7.5702 -1.6698,1.67 -13.271,-13.271 1.6315,-1.6315 z m 7.24e-4,7.5476 0.02188,0.02188 -0.02257,0.02257 -0.02188,-0.02188 z m -2.1658,5.4274 2.1651,2.164 2.1651,-2.164 13.27,13.27 -2.1273,2.1261 1.8868,1.8882 0.1509,0.15091 -13.18,13.181 -2.1651,-2.164 -2.1651,2.164 -13.181,-13.181 2.0384,-2.0384 -2.1273,-2.1264 z m -18.713,15.375 0.02257,0.0212 -0.02257,0.02257 -0.02188,-0.02188 z m 41.757,0 0.02191,0.02188 -0.02191,0.02188 -0.02257,-0.02234 z m -20.878,20.625 0.02188,0.02191 -0.02257,0.02257 -0.02188,-0.02186 z"
       color="#000000"
       fill="url(#a)"
       style="fill:url(#a);-inkscape-stroke:none"
       id="path320" />
    <path
       d="m 67.733,8.2021 -15.933,15.933 3.434,3.434 -27.933,27.933 -3.5146,-3.5151 -15.934,15.934 3.9724,3.9728 11.962,11.961 3.7018,-3.7022 27.746,27.746 -3.434,3.434 15.933,15.933 15.933,-15.933 -3.4326,-3.4326 27.745,-27.746 3.7008,3.7008 15.934,-15.934 -15.934,-15.934 -3.5146,3.5151 -27.933,-27.933 3.434,-3.434 z m 0.0015,15.887 0.04606,0.04606 -0.0475,0.0475 L 67.687,24.1366 Z m -4.5587,11.424 4.5572,4.5549 4.5573,-4.5549 27.931,27.931 -4.4776,4.4752 3.9714,3.9743 0.31763,0.31764 -27.743,27.743 -4.5573,-4.5549 -4.5572,4.5549 -27.744,-27.744 4.2905,-4.2905 -4.4776,-4.4757 z m -39.389,32.362 0.0475,0.04462 -0.0475,0.0475 -0.04606,-0.04606 z m 87.892,0 0.0461,0.04606 -0.0461,0.04606 -0.0475,-0.04702 z m -43.945,43.411 0.04606,0.0461 -0.0475,0.0475 -0.04606,-0.046 z"
       color="#000000"
       fill="url(#b)"
       style="fill:url(#b);-inkscape-stroke:none"
       id="path322" />
    <path
       d="m 67.733,13.652 -10.483,10.483 3.434,3.434 -33.382,33.382 -3.5137,-3.5137 -10.483,10.483 10.483,10.483 3.7008,-3.7008 33.195,33.195 -3.434,3.434 10.483,10.483 10.483,-10.483 -3.434,-3.434 33.195,-33.195 3.7008,3.7008 10.483,-10.483 -10.483,-10.483 -3.5137,3.5137 -33.382,-33.382 3.434,-3.434 z m -10e-7,4.9857 5.4972,5.4972 -5.4972,5.4972 -5.4972,-5.4972 z m -4.5563,11.424 4.5563,4.5558 4.5563,-4.5558 33.382001,33.382 -4.4766,4.4762 1.2461,1.2466 3.043,3.043 -33.195001,33.195 -4.5563,-4.5558 -4.5563,4.5558 -33.195,-33.195 4.2895,-4.289 -4.4766,-4.4762 z m -39.389,32.361 5.4977,5.4972 -5.4977,5.4972 -5.4972,-5.4972 z m 87.890001,-5e-6 5.4972,5.4972 -5.4972,5.4972 -5.4977,-5.4972 z m -43.945001,43.410995 5.4972,5.4972 -5.4972,5.49721 -5.4972,-5.49721 z"
       color="#000000"
       fill="url(#c)"
       style="fill:url(#c);-inkscape-stroke:none"
       id="path324" />
  </g>
</svg>
