<?xml version="1.0" encoding="UTF-8" standalone="no"?>
<!-- Created with Inkscape (http://www.inkscape.org/) -->

<svg
   version="1.1"
   id="svg254"
   width="512"
   height="512"
   viewBox="0 0 512 512"
   sodipodi:docname="dns2proxy.svg"
   inkscape:version="1.2.2 (b0a8486541, 2022-12-01)"
   inkscape:export-filename="../GIT Icons/dns2proxy.png"
   inkscape:export-xdpi="96"
   inkscape:export-ydpi="96"
   xmlns:inkscape="http://www.inkscape.org/namespaces/inkscape"
   xmlns:sodipodi="http://sodipodi.sourceforge.net/DTD/sodipodi-0.dtd"
   xmlns="http://www.w3.org/2000/svg"
   xmlns:svg="http://www.w3.org/2000/svg">
  <defs
     id="defs258" />
  <sodipodi:namedview
     id="namedview256"
     pagecolor="#505050"
     bordercolor="#ffffff"
     borderopacity="1"
     inkscape:showpageshadow="0"
     inkscape:pageopacity="0"
     inkscape:pagecheckerboard="1"
     inkscape:deskcolor="#505050"
     showgrid="false"
     inkscape:zoom="0.68086649"
     inkscape:cx="255.55671"
     inkscape:cy="228.38545"
     inkscape:window-width="1366"
     inkscape:window-height="691"
     inkscape:window-x="0"
     inkscape:window-y="24"
     inkscape:window-maximized="1"
     inkscape:current-layer="g260" />
  <g
     inkscape:groupmode="layer"
     inkscape:label="Image"
     id="g260">
    <g
       id="g1184">
      <path
         id="path775-6"
         style="fill:#ffffff;fill-rule:evenodd;stroke-width:3.45024;stroke-linejoin:bevel;paint-order:markers stroke fill"
         d="M 78.420651,8.9713127 C 62.155597,9.3731309 45.839622,14.930512 33.369869,25.518187 16.367061,39.92831 6.5130737,62.497886 7.8952602,84.783812 8.8854951,100.3883 15.915041,115.22636 26.172604,126.87756 c 4.038842,4.57634 8.635554,8.66134 13.660156,12.12695 0.07584,13.41159 -0.258681,26.84633 0.708985,40.23438 0.733903,7.55118 2.998196,15.20199 7.882812,21.14258 6.197817,7.87199 15.727876,13.16123 25.779297,13.75 4.896408,0.46674 9.818457,0.51703 14.732422,0.61523 0.143475,0.59673 0.669642,1.17868 0.228515,1.76562 -1.467032,3.80635 -1.781238,7.94204 -1.574218,11.98438 0.02075,20.31741 -0.04481,40.63687 0.123046,60.95312 0.241898,2.22575 0.831798,4.40661 1.683594,6.47461 -0.167012,0.64575 -0.406987,1.16041 -1.164062,0.94727 -7.821661,0.0864 -15.81655,0.30123 -23.289063,2.85938 -6.204744,2.19186 -11.785564,6.04762 -16.103515,11.00585 -3.765288,3.90211 -7.049895,8.60934 -7.921875,14.07032 -1.042559,5.5073 -0.516597,11.13842 -0.792969,16.70312 l -0.574219,31.51758 c -13.558442,9.38367 -24.049672,23.27826 -28.851562,39.0957 -3.8534229,12.52189 -4.1179237,26.19481 -0.300782,38.75977 5.391836,18.26922 18.327081,34.02632 34.830079,43.42578 9.825163,5.56415 21.055745,8.65405 32.357421,8.71875 18.294111,0.25975 36.646984,-6.7439 49.906254,-19.39453 14.44753,-13.57631 23.00069,-33.36366 22.45312,-53.23242 -0.30021,-14.25457 -4.99531,-28.47405 -13.66601,-39.83594 12.8125,-0.052 25.62658,-0.012 38.43945,-0.0293 5.59716,0.002 11.19386,0.002 16.79102,0.004 A 183.97046,187.90019 0 0 0 320.36011,444.98889 183.97046,187.90019 0 0 0 504.33081,257.0885 183.97046,187.90019 0 0 0 320.36011,69.188109 183.97046,187.90019 0 0 0 193.76831,121.33068 c -19.20312,0.008 -38.40634,0.004 -57.60937,0.0645 9.81944,-13.63062 15.0483,-30.717079 13.64257,-47.527343 C 148.21518,55.658037 138.89316,38.524902 125.323,26.43225 114.7096,16.995224 101.20819,10.613596 87.000729,9.3111564 84.150011,9.0349481 81.284056,8.938169 78.420651,8.9713127 Z" />
      <path
         id="path775"
         style="fill:#ffff00;fill-rule:evenodd;stroke-width:3.45024;stroke-linejoin:bevel;paint-order:markers stroke fill"
         d="m 263.94659,318.86424 c -2.96839,0.0834 -5.90467,1.6269 -7.60724,4.0636 -1.35338,2.31194 -1.18508,5.10306 -1.31363,7.68611 -0.027,4.63334 -0.13675,9.27527 0.14932,13.90256 0.12574,2.15957 0.71639,4.48069 2.50409,5.87137 2.65071,2.41695 6.72963,3.33142 10.03769,1.77115 2.46095,-1.09061 4.2871,-3.35734 4.9603,-5.94997 1.30078,-4.60876 1.41076,-9.47194 1.10032,-14.22317 -0.30428,-3.12104 -0.67386,-6.38632 -2.2996,-9.13532 -1.63276,-2.48759 -4.54196,-4.07703 -7.53125,-3.98633 z" />
      <path
         id="path773"
         style="fill:#00ff00;fill-rule:evenodd;stroke-width:3.45024;stroke-linejoin:bevel;paint-order:markers stroke fill"
         d="m 231.72003,318.91112 c -2.70033,0.0665 -5.51546,1.36962 -6.93094,3.73438 -1.41761,2.80843 -1.67268,6.02123 -1.93894,9.10781 -0.27355,4.85198 -0.19905,9.78443 0.88712,14.5408 0.43799,1.89407 1.26783,3.8314 2.96908,4.91779 3.06339,2.29297 7.53273,2.1239 10.58603,-0.0983 1.89476,-1.3188 3.47553,-3.2573 3.80686,-5.60166 0.56695,-3.76199 0.3542,-7.58471 0.39761,-11.37581 -0.0678,-3.01616 0.0893,-6.11158 -0.77682,-9.03557 -1.28618,-3.67598 -5.09783,-6.31628 -9,-6.18945 z" />
      <path
         id="path694"
         style="fill:#ff0000;fill-rule:evenodd;stroke-width:3.45024;stroke-linejoin:bevel;paint-order:markers stroke fill"
         d="m 200.22003,318.93065 c -3.4533,0.0846 -6.76497,2.20272 -8.37912,5.23668 -1.15083,2.62882 -0.95284,5.57994 -1.05643,8.38441 0.0341,4.08078 -0.16866,8.18599 0.33799,12.24528 0.43568,4.24053 4.24408,7.73013 8.44912,8.05746 2.9553,0.26166 6.14708,-1.00187 7.81055,-3.51758 1.47133,-2.7317 1.7362,-5.90729 2.02209,-8.94392 0.30359,-4.93391 0.244,-9.951 -0.84028,-14.79347 -0.43639,-1.89327 -1.22536,-3.85211 -2.91619,-4.95988 -1.55247,-1.15898 -3.49324,-1.7594 -5.42773,-1.70898 z" />
      <path
         id="path771"
         style="fill:#00ff00;fill-rule:evenodd;stroke-width:3.45024;stroke-linejoin:bevel;paint-order:markers stroke fill"
         d="m 263.94659,238.89745 c -2.96874,0.0804 -5.90484,1.62791 -7.60724,4.06359 -1.35394,2.31184 -1.18485,5.10305 -1.31367,7.68611 -0.0269,4.634 -0.1367,9.27657 0.14938,13.90451 0.12485,2.16089 0.71853,4.48261 2.50818,5.87309 2.65128,2.41348 6.72699,3.3258 10.03358,1.76748 2.46091,-1.09129 4.28722,-3.35696 4.9603,-5.94997 1.30818,-4.63692 1.41368,-9.53029 1.09369,-14.30966 -0.30645,-3.0923 -0.67924,-6.32661 -2.29297,-9.04883 -1.62877,-2.48705 -4.54484,-4.08027 -7.53125,-3.98632 z" />
      <path
         id="path765"
         style="fill:#ff0000;fill-rule:evenodd;stroke-width:3.45024;stroke-linejoin:bevel;paint-order:markers stroke fill"
         d="m 231.70831,238.94237 c -2.69339,0.074 -5.49945,1.37097 -6.91596,3.72815 -1.43114,2.8417 -1.68608,6.0915 -1.94842,9.21384 -0.26451,4.81924 -0.18684,9.71749 0.89321,14.44103 0.43633,1.8919 1.26472,3.82637 2.9614,4.91385 3.06537,2.29998 7.54495,2.13201 10.59896,-0.0994 1.90297,-1.32164 3.48421,-3.27338 3.80729,-5.62719 0.56206,-3.78517 0.3488,-7.62977 0.39162,-11.44334 -0.072,-3.01369 0.0927,-6.11392 -0.80902,-9.02744 -1.31923,-3.63431 -5.104,-6.22646 -8.97908,-6.09953 z" />
      <path
         id="path846"
         style="fill:#ffff00;fill-rule:evenodd;stroke-width:3.45024;stroke-linejoin:bevel;paint-order:markers stroke fill"
         d="m 200.23175,238.96385 c -3.45876,0.0777 -6.77835,2.20164 -8.39276,5.24061 -1.14672,2.62029 -0.95045,5.56167 -1.05451,8.35705 0.0316,4.05634 -0.16162,8.13522 0.32344,12.17173 0.23662,2.4111 1.53819,4.62198 3.42772,6.11463 3.06694,2.56962 7.86433,2.79203 11.07892,0.36598 1.7411,-1.12617 2.53228,-3.14357 2.97461,-5.08203 1.07707,-4.94133 1.13229,-10.05523 0.78373,-15.08234 -0.29593,-2.93932 -0.57509,-6.01946 -2.0435,-8.64422 -1.54125,-2.26374 -4.39668,-3.51228 -7.09765,-3.44141 z" />
      <path
         id="path767"
         style="fill:#ff0000;fill-rule:evenodd;stroke-width:3.45024;stroke-linejoin:bevel;paint-order:markers stroke fill"
         d="m 263.93487,158.9287 c -2.96271,0.0876 -5.89027,1.6293 -7.59206,4.05941 -1.35571,2.31287 -1.18921,5.1052 -1.31709,7.69029 -0.027,4.63465 -0.13673,9.27787 0.14934,13.90646 0.12784,2.12797 0.69293,4.41216 2.43169,5.80868 2.634,2.42942 6.69367,3.39332 10.0189,1.87103 2.46896,-1.06488 4.33454,-3.30484 5.02086,-5.89586 1.29332,-4.47226 1.424,-9.1987 1.16522,-13.81954 -0.27213,-3.22741 -0.6282,-6.59065 -2.23038,-9.46813 -1.60711,-2.58644 -4.58985,-4.24782 -7.64648,-4.15234 z" />
      <path
         id="path769"
         style="fill:#00ff00;fill-rule:evenodd;stroke-width:3.45024;stroke-linejoin:bevel;paint-order:markers stroke fill"
         d="m 200.23175,158.99706 c -3.45921,0.076 -6.77924,2.20078 -8.39314,5.24042 -1.14848,2.62732 -0.95044,5.57625 -1.05413,8.37872 0.0314,4.04788 -0.16115,8.11832 0.32332,12.14636 0.23485,2.40924 1.53447,4.61887 3.4212,6.11163 3.06565,2.57678 7.86778,2.79873 11.08556,0.37287 1.8561,-1.20151 2.62102,-3.39237 3.05612,-5.45327 1.02372,-5.01055 1.05796,-10.18108 0.65677,-15.26353 -0.32526,-2.81764 -0.60881,-5.79293 -2.11336,-8.267 -1.58569,-2.14927 -4.33834,-3.33645 -6.98234,-3.2662 z" />
      <path
         style="fill:#0000ff;fill-rule:evenodd;stroke-width:3.45024;stroke-linejoin:bevel;paint-order:markers stroke fill"
         d="m 229.63961,124.97908 c 5.08442,-4.2711 30.90789,-16.62019 42.88243,-20.50688 11.58422,-3.76 15.79506,-4.901256 15.79506,-4.2809 0,0.20152 -1.55092,3.07866 -3.44648,6.39365 -1.89556,3.31498 -4.81645,9.11135 -6.49087,12.88082 l -3.0444,6.85358 -15.48358,0.67583 c -8.51597,0.37171 -19.49852,0.65903 -24.40568,0.63849 l -8.9221,-0.0373 z"
         id="path609" />
      <path
         style="fill:#000000;fill-rule:evenodd;stroke-width:3.45024;stroke-linejoin:bevel;paint-order:markers stroke fill"
         d="m 72.82014,478.55121 c -17.23206,-2.41612 -33.781279,-17.67386 -38.535086,-35.52786 -5.29368,-19.8816 4.502553,-41.41553 23.995532,-52.74661 l 6.231237,-3.62215 0.51927,-28.67181 0.51927,-28.67182 2.596349,-2.81183 c 4.537075,-4.91363 7.875815,-5.65976 25.325923,-5.65976 8.825175,0 16.785015,-0.28367 17.688525,-0.63038 1.29299,-0.49617 1.64275,-2.26509 1.64275,-8.30832 v -7.67793 h 95.69328 95.69328 l -0.73471,19.47262 c -0.64488,17.09178 -1.02357,20.1075 -3.09727,24.66531 -3.34536,7.35285 -6.86619,11.1096 -13.95084,14.88568 l -6.17034,3.28876 h -72.65102 -72.65103 l -6.14808,-3.97369 c -3.38144,-2.18554 -7.37998,-5.43773 -8.88564,-7.22711 -2.70399,-3.21351 -2.86937,-3.25712 -13.48555,-3.55572 l -10.74798,-0.3023 -0.276432,17.65517 -0.276433,17.65517 5.988395,3.11035 c 7.75863,4.02979 17.6966,14.03832 21.27005,21.42106 16.52104,34.13243 -11.77911,72.52955 -49.55345,67.23317 z M 205.9459,349.73745 c 2.23027,-2.09523 2.40365,-3.08302 2.40365,-13.69372 0,-10.31185 -0.22189,-11.6718 -2.25811,-13.83925 -3.09389,-3.29329 -8.43642,-3.22747 -11.80938,0.14549 -2.38002,2.38002 -2.54914,3.26647 -2.54914,13.36096 0,9.36547 0.28794,11.17788 2.15245,13.54822 2.78696,3.54303 8.55479,3.77177 12.06053,0.4783 z m 32.04923,-0.29103 c 2.38558,-2.38558 2.54915,-3.25491 2.54915,-13.54822 0,-10.29332 -0.16357,-11.16265 -2.54915,-13.54823 -3.25988,-3.25988 -8.36796,-3.38734 -11.66384,-0.29103 -2.23026,2.09523 -2.40365,3.08302 -2.40365,13.69372 0,10.31185 0.2219,11.6718 2.25811,13.83925 3.09389,3.29329 8.43642,3.22747 11.80938,-0.14549 z m 31.77284,0.56382 c 2.32333,-1.88132 2.45176,-2.62057 2.45176,-14.11204 0,-11.49148 -0.12843,-12.23072 -2.45176,-14.11205 -3.27929,-2.6554 -8.25351,-2.5347 -11.24195,0.27279 -2.23027,2.09523 -2.40365,3.08302 -2.40365,13.69372 0,10.31185 0.22189,11.6718 2.25811,13.83925 2.80299,2.98365 7.98438,3.17399 11.38749,0.41833 z"
         id="path603" />
      <path
         style="fill:#000000;fill-rule:evenodd;stroke-width:3.45024;stroke-linejoin:bevel;paint-order:markers stroke fill"
         d="m 112.80391,255.93065 v -31.67546 h 95.54564 95.54564 v 31.67546 31.67546 h -95.54564 -95.54564 z m 93.14199,13.83925 c 2.23026,-2.09522 2.40365,-3.08301 2.40365,-13.69371 0,-10.31186 -0.2219,-11.67181 -2.25811,-13.83925 -3.27621,-3.48737 -9.33099,-3.32231 -12.20607,0.33275 -1.85899,2.36333 -2.15245,4.18494 -2.15245,13.36096 0,9.17602 0.29346,10.99763 2.15245,13.36096 2.78695,3.54303 8.55479,3.77177 12.06053,0.47829 z m 32.04923,-0.29103 c 2.38558,-2.38557 2.54915,-3.25491 2.54915,-13.54822 0,-10.29331 -0.16357,-11.16265 -2.54915,-13.54822 -3.25988,-3.25989 -8.36796,-3.38734 -11.66384,-0.29103 -2.23026,2.09522 -2.40365,3.08301 -2.40365,13.69371 0,10.31186 0.2219,11.67181 2.25811,13.83925 3.09389,3.2933 8.43642,3.22748 11.80938,-0.14549 z m 31.77284,0.56382 c 2.32333,-1.88132 2.45176,-2.62057 2.45176,-14.11204 0,-11.49147 -0.12843,-12.23072 -2.45176,-14.11204 -3.27929,-2.65541 -8.25351,-2.53471 -11.24195,0.27279 -2.23027,2.09522 -2.40365,3.08301 -2.40365,13.69371 0,10.31186 0.22189,11.67181 2.25811,13.83925 2.80299,2.98366 7.98438,3.174 11.38749,0.41833 z"
         id="path605" />
      <path
         id="path848"
         style="fill:#ffff00;fill-rule:evenodd;stroke-width:3.45024;stroke-linejoin:bevel;paint-order:markers stroke fill"
         d="m 231.72003,158.97557 c -2.6705,0.0661 -5.43982,1.34097 -6.88149,3.64747 -1.45259,2.79217 -1.70723,6.0107 -1.98216,9.09492 -0.28182,4.8847 -0.21227,9.85152 0.88089,14.6406 0.43621,1.89431 1.26832,3.8321 2.96908,4.91779 3.06268,2.29533 7.53322,2.12445 10.58603,-0.0983 1.8947,-1.31877 3.47627,-3.25701 3.80686,-5.60166 0.56705,-3.76198 0.35414,-7.58471 0.39761,-11.37581 -0.0671,-3.01494 0.0878,-6.10817 -0.77487,-9.03166 -1.28525,-3.67782 -5.09837,-6.32021 -9.00195,-6.19336 z" />
      <path
         style="fill:#000000;fill-rule:evenodd;stroke-width:3.45024;stroke-linejoin:bevel;paint-order:markers stroke fill"
         d="m 112.80391,199.8693 c 0,-9.39211 1.6039,-8.71318 -21.477513,-9.09134 -15.110093,-0.24755 -17.09927,-0.49213 -19.732251,-2.4262 -6.191659,-4.54813 -6.559418,-6.58053 -6.563907,-36.27507 l -0.004,-27.00202 -5.967055,-3.11562 C 47.492188,115.91954 37.669301,103.5835 34.250186,90.802862 29.414598,72.727452 38.21791,50.975376 54.631464,40.442827 c 10.963222,-7.03508 26.479272,-9.393874 38.604971,-5.868837 15.286125,4.443798 28.354785,18.202536 32.693215,34.419541 5.34848,19.992592 -5.90336,43.648379 -25.35212,53.300159 l -5.475881,2.7175 0.28318,17.68691 0.283181,17.68691 10.74798,-0.30231 c 10.61618,-0.29859 10.78156,-0.3422 13.48555,-3.55571 1.50566,-1.78938 5.5042,-5.04158 8.88564,-7.22711 l 6.14808,-3.97369 h 73.18925 73.18925 l 5.31911,3.04489 c 6.96862,3.98915 10.34506,7.64304 13.50092,14.61028 2.34401,5.17495 2.65633,7.54272 3.32197,25.18458 l 0.73471,19.47262 h -95.69328 -95.69328 z m 93.14199,-10.06694 c 2.23027,-2.09523 2.40365,-3.08302 2.40365,-13.69371 0,-10.31186 -0.22189,-11.67181 -2.25811,-13.83926 -3.27621,-3.48736 -9.33099,-3.32231 -12.20607,0.33276 -1.86451,2.37034 -2.15245,4.18275 -2.15245,13.54821 0,10.0945 0.16912,10.98095 2.54914,13.36096 3.25989,3.25989 8.36796,3.38735 11.66384,0.29104 z m 32.04923,-0.29104 c 2.38002,-2.38001 2.54915,-3.26646 2.54915,-13.36096 0,-9.36546 -0.28795,-11.17787 -2.15246,-13.54821 -2.78695,-3.54303 -8.55478,-3.77177 -12.06053,-0.4783 -2.23026,2.09523 -2.40365,3.08302 -2.40365,13.69371 0,10.31186 0.2219,11.67181 2.25811,13.83926 3.09389,3.29329 8.43642,3.22747 11.80938,-0.1455 z m 31.77284,0.56382 c 2.32333,-1.88131 2.45176,-2.62056 2.45176,-14.11204 0,-11.49147 -0.12843,-12.23072 -2.45176,-14.11203 -3.27929,-2.65542 -8.25351,-2.53472 -11.24195,0.27278 -2.23027,2.09523 -2.40365,3.08302 -2.40365,13.69371 0,10.31186 0.22189,11.67181 2.25811,13.83926 2.80299,2.98365 7.98438,3.17399 11.38749,0.41832 z"
         id="path607" />
      <path
         style="fill:#0000ff;fill-rule:evenodd;stroke-width:3.45024;stroke-linejoin:bevel;paint-order:markers stroke fill"
         d="m 339.7248,192.01929 c -6.85436,-0.39365 -13.91824,-0.7791 -15.69751,-0.85655 l -3.23505,-0.14081 -0.55817,-12.72211 c -0.58906,-13.42605 -2.15618,-19.74349 -6.76259,-27.26166 -3.50428,-5.71939 -10.1774,-12.47185 -16.06716,-16.2582 -2.71319,-1.74422 -4.93307,-3.67264 -4.93307,-4.28538 0,-2.71628 8.61915,-18.44233 13.16872,-24.02694 9.77753,-12.001971 16.44528,-12.730292 26.23403,-2.86556 9.05999,9.13033 16.66215,25.48976 23.35137,50.25085 2.5815,9.55575 7.86657,34.9326 7.86657,37.77215 0,1.62205 -1.53622,1.64797 -23.36714,0.39421 z"
         id="path680" />
      <path
         style="fill:#0000ff;fill-rule:evenodd;stroke-width:3.45024;stroke-linejoin:bevel;paint-order:markers stroke fill"
         d="m 465.38809,218.54698 c -10.55781,-5.34972 -20.15794,-9.05421 -33.23327,-12.82402 -9.08337,-2.61886 -33.96733,-8.06949 -43.58874,-9.54777 -3.98192,-0.6118 -7.33018,-1.20371 -7.44058,-1.31537 -0.1104,-0.11165 -1.42067,-7.21315 -2.91171,-15.7811 -5.16483,-29.67857 -12.51767,-53.44252 -21.93118,-70.88032 -2.5439,-4.71237 -4.15817,-8.567952 -3.58728,-8.567952 0.5709,0 7.23293,2.039072 14.80452,4.531272 26.6646,8.7767 45.3978,20.23415 64.67627,39.55677 17.20473,17.24415 29.11497,35.56423 37.16702,57.16956 2.62299,7.03804 7.17431,22.59081 6.67573,22.81228 -0.13496,0.06 -4.91881,-2.25906 -10.63078,-5.15335 z"
         id="path682" />
      <path
         style="fill:#0000ff;fill-rule:evenodd;stroke-width:3.45024;stroke-linejoin:bevel;paint-order:markers stroke fill"
         d="m 383.34347,255.93045 c 0,-28.04565 0.36274,-43.09671 1.03853,-43.09174 0.5712,0.004 9.06404,1.62891 18.87298,3.61047 47.84338,9.6651 78.52641,26.50656 75.70375,41.55268 -1.66295,8.86428 -17.34293,20.06049 -38.49559,27.48757 -13.02276,4.57253 -50.37642,13.54142 -56.39349,13.5405 -0.3994,-6e-5 -0.72618,-19.39483 -0.72618,-43.09948 z"
         id="path684" />
      <path
         style="fill:#0000ff;fill-rule:evenodd;stroke-width:3.45024;stroke-linejoin:bevel;paint-order:markers stroke fill"
         d="m 356.26939,403.68735 c 9.42716,-17.463 16.77688,-41.21077 21.9444,-70.90477 1.49104,-8.56795 2.81848,-15.68662 2.94987,-15.81926 0.13138,-0.13264 7.21838,-1.42328 15.74889,-2.86808 27.42634,-4.64516 53.12332,-12.51869 69.85277,-21.40281 7.40619,-3.93303 9.56129,-4.70904 9.15757,-3.29746 -0.29039,1.01531 -1.50017,5.40176 -2.68841,9.74765 -11.31111,41.36967 -41.96092,78.56333 -81.13113,98.45296 -10.29042,5.22521 -27.57847,11.66801 -37.59791,14.01174 l -2.87453,0.67242 z"
         id="path686" />
      <path
         style="fill:#0000ff;fill-rule:evenodd;stroke-width:3.45024;stroke-linejoin:bevel;paint-order:markers stroke fill"
         d="m 314.26438,413.42825 c -5.06121,-2.6829 -12.88671,-12.652 -17.71163,-22.56331 -2.24482,-4.61128 -4.0815,-8.88549 -4.0815,-9.49822 0,-0.61274 2.21988,-2.54116 4.93307,-4.28538 5.88976,-3.78635 12.56288,-10.53881 16.06716,-16.2582 4.59476,-7.49917 6.17377,-13.84186 6.75817,-27.14686 l 0.55375,-12.60731 11.02851,-0.64619 c 6.06568,-0.3554 15.58511,-0.92482 21.15427,-1.26536 8.65848,-0.52946 10.12576,-0.38937 10.12576,0.96677 0,2.35973 -4.99287,27.06145 -7.30613,36.14637 -7.45194,29.26609 -19.66291,52.25824 -30.48017,57.39137 -4.56203,2.16482 -6.59782,2.12173 -11.04126,-0.23368 z"
         id="path688" />
      <path
         style="fill:#0000ff;fill-rule:evenodd;stroke-width:3.45024;stroke-linejoin:bevel;paint-order:markers stroke fill"
         d="m 320.51105,255.93065 v -47.77282 l 17.91519,0.75838 c 25.00004,1.0583 26.55639,1.32734 27.51772,4.75699 1.02123,3.64332 1.02123,80.87158 0,84.5149 -0.96133,3.42965 -2.51768,3.69869 -27.51772,4.75699 l -17.91519,0.75838 z"
         id="path690" />
      <path
         style="fill:#0000ff;fill-rule:evenodd;stroke-width:3.45024;stroke-linejoin:bevel;paint-order:markers stroke fill"
         d="m 275.85462,408.7282 c -16.05754,-4.85047 -38.16353,-15.33817 -46.23942,-21.93728 l -3.09121,-2.52594 8.9221,-0.0374 c 16.05993,-0.0672 40.40853,1.30474 40.40853,2.27689 0,0.52327 2.57039,6.1073 5.71197,12.40895 3.14158,6.30165 5.71197,11.64234 5.71197,11.8682 0,0.90524 -4.02312,0.18208 -11.42394,-2.05347 z"
         id="path692" />
    </g>
  </g>
</svg>
