<?xml version="1.0" encoding="UTF-8" standalone="no"?>
<svg
   viewBox="0 0 512 512"
   height="512"
   width="512"
   id="svg62"
   version="1.1"
   sodipodi:docname="dnsteal.svg"
   inkscape:version="1.2.2 (b0a8486541, 2022-12-01)"
   xml:space="preserve"
   inkscape:export-filename="../GIT Icons/dnsteal.png"
   inkscape:export-xdpi="96"
   inkscape:export-ydpi="96"
   xmlns:inkscape="http://www.inkscape.org/namespaces/inkscape"
   xmlns:sodipodi="http://sodipodi.sourceforge.net/DTD/sodipodi-0.dtd"
   xmlns="http://www.w3.org/2000/svg"
   xmlns:svg="http://www.w3.org/2000/svg"
   xmlns:rdf="http://www.w3.org/1999/02/22-rdf-syntax-ns#"
   xmlns:cc="http://creativecommons.org/ns#"
   xmlns:dc="http://purl.org/dc/elements/1.1/"><sodipodi:namedview
     id="namedview43"
     pagecolor="#505050"
     bordercolor="#eeeeee"
     borderopacity="1"
     inkscape:showpageshadow="0"
     inkscape:pageopacity="0"
     inkscape:pagecheckerboard="0"
     inkscape:deskcolor="#505050"
     showgrid="false"
     inkscape:zoom="0.92187499"
     inkscape:cx="147.52543"
     inkscape:cy="251.66102"
     inkscape:window-width="1366"
     inkscape:window-height="705"
     inkscape:window-x="0"
     inkscape:window-y="0"
     inkscape:window-maximized="1"
     inkscape:current-layer="svg62" /><metadata
     id="metadata68"><rdf:RDF><cc:Work
         rdf:about=""><dc:format>image/svg+xml</dc:format><dc:type
           rdf:resource="http://purl.org/dc/dcmitype/StillImage" /></cc:Work></rdf:RDF></metadata><defs
     id="defs66" /><path
     id="path985-6"
     style="fill:#ffffff;fill-opacity:1;stroke-width:2.0245"
     d="m 145.75974,6.0225294 c -8.6719,0.1529386 -17.52161,0.9062682 -25.63081,4.2143466 -7.17626,2.822454 -12.87984,9.058819 -15.14205,16.433627 -0.8215,2.209242 -1.51521,4.464973 -2.12462,6.741497 -4.26625,-0.794401 -8.738291,-1.276483 -12.97647,-0.06009 -7.197267,1.854018 -13.454338,7.281541 -16.000108,14.31917 -3.769828,9.783936 -0.807565,21.779405 7.208383,28.563601 0.43473,0.362804 0.872693,0.721853 1.329327,1.056916 -7.980552,2.845307 -14.179378,10.441217 -14.920479,18.957983 -0.418675,3.93907 0.26776,7.91273 1.474392,11.65941 -10.578296,5.72519 -19.104946,14.6508 -25.790089,24.5534 -7.839274,11.58086 -13.36309,24.55673 -17.886216,37.74571 -6.858251,20.34267 -11.055992,41.4783 -14.184288,62.68694 -2.6130327,18.24697 -3.8624361,36.66102 -4.4961089,55.0756 -0.2067257,4.94391 -0.4146944,9.88776 -0.6206184,14.83171 3.7465335,3.30232 7.2998423,6.81418 10.9384083,10.23346 -2.601499,18.96086 -5.366374,37.90469 -7.279198,56.9511 -0.9758165,9.85017 -1.7494802,19.7348 -1.7300617,29.6401 -0.036868,6.21805 0.016191,12.43656 -0.087976,18.65417 7.2361657,2.19436 14.4669067,4.40674 21.7111117,6.57207 -1.079005,9.97676 -1.909389,19.98354 -2.388179,30.00785 -0.110842,3.57778 -0.311441,7.17606 0.03887,10.74474 1.006667,7.73035 4.659554,14.82759 8.96803,21.21241 3.603576,5.23718 8.370583,9.81755 14.207861,12.45132 5.599781,2.80204 11.687086,4.97548 18.015172,5.00612 7.107306,0.11874 14.076631,-2.07944 20.342926,-5.31666 5.888052,-3.09259 11.080445,-7.59508 14.687721,-13.21499 3.7592,-5.65484 6.09068,-12.39749 7.03611,-18.983 1.67838,-9.33715 2.79263,-18.76573 3.69523,-28.2066 4.24103,0.14497 8.48448,0.22561 12.72803,0.25454 1.40599,12.33108 3.05832,24.69283 6.3613,36.67937 2.72136,8.75873 8.29607,16.67022 15.88744,21.85505 8.18594,5.80873 18.58092,8.71796 28.56351,7.14766 14.29436,-1.98788 27.15878,-11.85721 32.93978,-25.08552 3.35735,-7.54162 4.16745,-15.92843 4.011,-24.10294 -0.11755,-6.19725 -0.8804,-12.35783 -1.71029,-18.49309 5.08967,-0.35932 10.22009,-0.7453 15.18094,-1.99918 7.43632,-2.19842 13.77727,-8.27417 15.70767,-15.87599 1.46502,-5.25039 0.76514,-10.85498 -0.88666,-15.97344 -3.30897,-11.93565 -7.21267,-23.69473 -10.5981,-35.6085 -9.06366,-31.20221 -17.31484,-62.60943 -24.60374,-94.27414 -1.60672,-7.07303 -3.15291,-14.18419 -4.58042,-21.28094 7.48155,1.67669 15.29787,1.72012 22.83678,0.39584 3.68425,-0.71282 7.28561,-1.88416 10.65784,-3.53708 0,25.8788 0,51.7576 0,77.63639 3.93865,-0.30457 7.87491,-0.64148 11.81665,-0.90382 1.11453,-0.067 2.46908,-0.13972 3.67629,-0.1801 5.39838,-0.27751 10.8309,0.13237 16.20687,-0.53362 2.10048,-0.28036 4.15608,-0.8428 6.17525,-1.45575 7.78271,-0.3625 15.60201,-0.32476 23.43526,-0.40664 9.59698,-0.05 19.1941,-0.044 28.79116,-0.045 -0.013,51.7021 0.0226,103.40538 -0.0734,155.10672 -0.41684,4.30415 -1.11889,8.87024 0.24837,13.13129 2.67866,8.94345 11.82051,15.4353 21.1355,14.97101 6.85295,-0.1196 13.70805,-0.0429 20.56191,-0.0671 6.13098,0 12.26196,0 18.39295,0 0,-4.13359 0,-8.2672 0,-12.4008 19.76437,0 39.52875,0 59.29313,0 0,4.1336 0,8.26721 0,12.4008 19.89633,0 39.79266,0 59.68899,0 0,-151.53145 0,-303.06292 0,-454.594363 -59.74914,0 -119.49827,0 -179.2474,0 0,44.372085 0,88.744163 0,133.116243 -1.20326,0.0627 -2.408,0.42709 -3.59812,0.10828 -2.01991,-0.30875 -4.07401,-0.22929 -6.1047,-0.21784 -3.78154,-0.8673 -7.77059,-0.77432 -11.52038,0.20917 -4.42153,-0.63724 -8.99573,-0.14114 -13.18833,1.39815 -0.76993,-0.28771 -1.55909,-0.52224 -2.35485,-0.72674 0,-5.40449 0,-10.80896 0,-16.21345 -9.51887,0 -19.03773,0 -28.55659,0 5.01897,-13.99639 10.16832,-27.95148 14.71351,-42.11151 1.63724,-5.78975 1.69282,-12.23081 -0.90104,-17.75464 -2.83424,-6.34107 -8.46298,-11.184754 -14.88895,-13.639536 -7.88422,-3.694443 -15.72957,-7.471154 -23.58051,-11.235836 1.68011,-6.568292 0.53037,-13.879718 -3.41353,-19.435844 -3.59044,-5.229631 -9.35678,-8.884593 -15.60655,-9.917215 -1.50304,-0.378004 -3.01276,-0.729636 -4.52669,-1.0596 0.20367,-6.342489 -0.0746,-12.916991 -2.70612,-18.795245 -2.48724,-5.809261 -6.80747,-10.784629 -12.15971,-14.123098 -4.81948,-3.214743 -9.98819,-5.872366 -15.22966,-8.319908 -9.95469,-4.4112186 -20.85021,-6.5587182 -31.72141,-6.5670491 -1.8828,-0.041874 -3.76628,-0.034259 -5.64923,-0.00684 z M 194.58029,89.81044 c 0.15393,0.490145 -0.45125,-0.24583 0,0 z m -18.07848,5.109356 c 0.23368,0.211808 0.13452,0.754224 -0.25126,0.481366 -0.47616,-0.05504 -0.31346,-0.6295 0.0977,-0.585989 0.0655,-0.02044 0.095,0.09825 0.15353,0.104623 z" /><path
     id="path985"
     style="fill:#552800;fill-opacity:1;stroke-width:2.0245"
     d="M 349.37583,73.979235 V 272.41002 470.84081 h 66.99981 66.99982 V 272.41002 73.979235 H 416.37564 Z M 259.27381,191.65397 v 55.37625 55.37625 h 4.04411 c 2.22368,0 4.0423,-0.5192 4.0423,-1.15371 0,-0.74581 13.47645,-1.15372 38.11981,-1.15372 h 38.1198 v -28.84273 -28.84093 h -38.1198 -38.11981 v -25.3816 -25.37981 h -4.0423 z m 105.11962,283.92264 -7.35061,0.40805 c -4.04319,0.22435 -7.3875,0.45646 -7.43017,0.51637 -0.0427,0.06 -0.22341,1.60077 -0.40314,3.42501 l -0.32722,3.31669 h 7.75557 7.75557 v -3.83305 z m 104.54111,0.16791 v 3.75001 3.7482 h 7.22045 7.22047 v -3.7482 -3.75001 h -7.22047 z" /><path
     style="fill:#000000;fill-opacity:1;stroke-width:1.01225"
     d="m 302.94697,236.03313 c -0.29112,-0.75766 -3.24237,-26.69796 -3.24237,-28.49911 0,-0.32667 0.88017,-0.59394 1.95594,-0.59394 1.86106,0 1.97297,0.11893 2.30663,2.45153 0.93324,6.52412 2.60861,25.87448 2.30799,26.6569 -0.44487,1.15781 -2.88173,1.14654 -3.32819,-0.0153 z"
     id="path14460" /><path
     id="path7143"
     style="fill:#000000;fill-opacity:1;stroke-width:2.0245"
     d="m 89.996094,98.679688 c -0.263703,0.263362 1.588048,5.895522 4.115234,12.517582 2.527186,6.62206 4.595703,12.09977 4.595703,12.17187 0,0.0721 -3.119372,0.41453 -6.93164,0.75977 -28.213792,2.55502 -49.350348,44.58114 -59.025391,117.36523 -1.223001,9.2005 -2.557083,24.61894 -2.964844,34.26172 l -0.740234,17.53125 3.958984,3.81055 c 2.177267,2.09576 4.927537,4.34998 6.113282,5.00976 2.085712,1.16055 2.036938,2.02524 -1.503907,26.53516 -4.144386,28.68765 -7.003379,55.43323 -7.037109,65.82031 l -0.02344,7.02734 10.107422,3.05665 c 20.68883,6.25393 41.473409,9.65109 68.230466,11.15429 26.30616,1.47786 110.94862,-0.61161 113.13282,-2.79297 0.24957,-0.24927 -1.63933,-7.1217 -4.19727,-15.27148 -13.54938,-43.16917 -29.44784,-104.16445 -37.03125,-142.07813 -5.93125,-29.65359 -9.79419,-53.19135 -8.88086,-54.10351 0.40079,-0.40027 5.79514,4.49659 11.98828,10.88281 13.89846,14.3318 20.45454,18.10428 31.47657,18.11328 8.79708,0.007 12.99737,-1.87399 19.78711,-8.86133 11.09119,-11.41397 12.46299,-22.03226 3.82421,-29.60742 -5.93092,-5.20068 -8.83139,-4.69984 -16.15234,2.78906 -3.72902,3.81457 -7.19767,6.34571 -8.69531,6.34571 -3.62357,0 -17.90889,-14.86771 -25.4961,-26.53516 -3.50726,-5.39338 -9.4539,-15.70808 -13.21484,-22.92187 -3.76094,-7.21378 -8.24652,-14.5523 -9.96875,-16.30664 l -3.13086,-3.18946 6.32031,-16.46484 c 3.47614,-9.05598 6.12381,-16.661669 5.88477,-16.900392 -0.23903,-0.238722 -5.1244,0.609413 -10.85742,1.884762 -24.03243,5.34628 -39.21344,5.33291 -62.66016,-0.0586 -5.799252,-1.333512 -10.759736,-2.208674 -11.023438,-1.945312 z m 0.101562,49.080082 c 2.158311,-0.12746 3.711021,0.8321 7.513672,3.85351 3.859682,3.06675 6.036052,4.14369 11.378902,5.62891 2.06459,0.57392 2.94032,0.57903 6.16602,0.0371 5.64591,-0.94848 8.77675,-2.09438 13.82227,-5.0586 0.99675,-0.58557 2.47592,-1.35734 3.2871,-1.71679 1.35883,-0.6021 1.64066,-0.64643 3.5625,-0.55079 1.59802,0.0795 2.3192,0.22504 3.08594,0.61719 0.55049,0.28158 2.49025,0.90374 4.31055,1.38477 1.8203,0.48103 3.49656,0.98078 3.72461,1.10937 1.34848,0.76033 0.66065,3.39163 -2.0918,8 -1.56013,2.61211 -2.7494,4.17438 -4.7793,6.2793 -1.56789,1.62583 -4.5594,3.9369 -6.2539,4.83008 -0.51071,0.26919 -0.83333,0.55873 -0.75781,0.67969 0.32573,0.52177 2.50686,1.11839 4.45898,1.2207 1.84921,0.097 2.1609,0.0512 3.3125,-0.49024 2.72974,-1.28324 4.27465,-3.94673 5.05273,-8.70898 0.51873,-3.17478 0.69409,-3.34168 1.66016,-1.58008 0.68738,1.25342 0.89394,2.46496 0.66992,3.9336 -0.26001,1.70501 -0.202,2.63793 0.16602,2.65625 0.29149,0.0145 1.92299,-1.00881 3.66406,-2.29688 0.46152,-0.34141 0.50423,-0.32605 0.91992,0.30664 0.23967,0.3648 0.60666,1.29706 0.81446,2.07227 0.33439,1.24761 0.34484,1.62516 0.0918,3.29297 -0.2432,1.60312 -0.41053,2.13036 -1.12304,3.53711 -0.46058,0.90934 -1.2438,2.23137 -1.74024,2.9375 -1.18211,1.68132 -4.24781,4.75007 -6.35156,6.35742 -1.80199,1.3768 -5.09914,3.2096 -6.36523,3.53906 -0.42877,0.11162 -1.22102,0.3327 -1.75977,0.49023 -0.53874,0.15751 -3.23138,0.69926 -5.98438,1.20508 -6.39852,1.17557 -7.98226,1.71352 -11.05273,3.74414 -0.57305,0.37899 -1.68084,1.01613 -2.46094,1.41602 -2.28847,1.17311 -3.81359,0.9241 -8.56445,-1.39258 -0.8535,-0.4162 -1.75027,-0.7653 -1.99219,-0.77734 -0.24192,-0.0121 -1.52243,0.33384 -2.8457,0.76953 -6.129524,2.01812 -6.709853,2.0358 -9.07422,0.26953 -0.913886,-0.68273 -2.258578,-1.74439 -2.986328,-2.35938 -1.4068,-1.18883 -3.725131,-2.36037 -6.070313,-3.0664 -0.786322,-0.23671 -2.716607,-0.82023 -4.289062,-1.29492 -6.178376,-1.86513 -8.868485,-3.65903 -12.023438,-8.02149 -1.641775,-2.27014 -2.697425,-4.47636 -3.296875,-6.89258 -0.497895,-2.00684 -0.525106,-2.37433 -0.316406,-4.10156 0.205108,-1.69744 0.309178,-2.04997 1,-3.35547 0.838018,-1.58357 2.097382,-3.00997 2.40625,-2.72656 0.105029,0.0963 0.80402,0.81125 1.552734,1.58984 1.834941,1.9081 1.960369,1.89514 2.291016,-0.24023 0.373842,-2.41434 1.010514,-3.88425 2.195313,-5.07031 1.49264,-1.49421 1.586895,-1.37525 1.134765,1.43164 -0.424216,2.63356 -0.43293,4.31293 -0.03516,6.08593 0.361715,1.61233 0.617171,2.05198 1.759766,3.00391 0.90929,0.75756 1.144696,0.8391 2.978515,1.02734 2.031145,0.2085 4.557633,-0.0318 5.166016,-0.49023 0.271507,-0.20458 0.222717,-0.32231 -0.306641,-0.73828 -2.360282,-1.85477 -4.829497,-5.20116 -6.142578,-8.32617 -1.862684,-4.43302 -2.685727,-9.31482 -1.851562,-10.97852 0.438982,-0.87554 0.968785,-1.06042 4.521484,-1.57422 1.675347,-0.24229 4.097685,-0.71098 5.382812,-1.04297 0.960229,-0.24806 1.745407,-0.41259 2.464844,-0.45507 z m -26.49414,30.1582 c 0.130066,-0.034 0.343859,0.68969 0.912109,2.61133 0.785372,2.65592 1.873816,4.39106 3.791016,6.04882 1.847483,1.59751 1.897982,1.69175 3.029297,5.52344 0.210845,0.71408 0.596772,1.98947 0.857421,2.83399 0.921934,2.9871 1.94,6.52585 2.646485,9.20312 0.791716,3.00028 3.080941,12.42315 3.05664,12.58008 -0.0085,0.0547 0.126871,0.76685 0.300782,1.58398 0.753115,3.53869 1.206867,7.3701 1.148437,9.71094 -0.04558,1.82603 -0.630227,5.04393 -0.980469,5.39453 -0.141092,0.14124 -0.320801,-0.41815 -0.515625,-1.60742 -0.557765,-3.40472 -1.130617,-6.11048 -2.285156,-10.79687 -1.763845,-7.15971 -3.092736,-11.23504 -7.820312,-23.98633 -1.929454,-5.20414 -3.315806,-9.31573 -3.707032,-10.99414 -0.670929,-2.87839 -0.908204,-5.61815 -0.634765,-7.32227 0.07541,-0.46999 0.123132,-0.7628 0.201172,-0.7832 z m 89.689454,4.25391 -0.0742,0.86914 c -0.13825,1.60373 -1.16741,4.23857 -2.71484,6.95312 -1.627,2.85402 -3.96037,6.30309 -9.99219,14.77344 -7.609,10.68517 -13.73706,20.73826 -17.80469,29.20898 -0.47752,0.99438 -0.92961,1.80448 -1.00391,1.80078 -0.0742,-0.004 -0.12566,-0.39774 -0.11523,-0.87695 0.0732,-3.36157 1.44421,-7.53277 4.26953,-12.98828 2.12814,-4.10927 7.14899,-13.0365 8.59375,-15.2793 0.40395,-0.6271 0.74519,-1.20569 0.75781,-1.28711 0.0574,-0.37153 7.33363,-11.82202 8.2793,-13.02929 0.29089,-0.37137 1.50192,-1.27143 2.69141,-2 2.06541,-1.26502 3.76196,-2.80546 4.57617,-4.15235 0.17369,-0.2873 0.81703,-1.3034 1.42773,-2.25781 z m -57.152345,2.03124 c -0.645059,0.11692 -1.078778,0.71012 -1.560547,2.13868 -0.973393,2.88631 0.992093,4.52466 3.71875,3.09961 0.748909,-0.39142 3.662812,-2.50764 3.689452,-2.67969 0.0644,-0.41557 -0.19591,-0.84013 -0.64844,-1.0625 -1.15791,-0.569 -4.696196,-1.58728 -5.199215,-1.4961 z m 22.423825,0.99415 c -1.10099,-0.0152 -2.94989,0.28097 -4.27929,0.73828 -1.86265,0.64064 -1.91237,1.05115 -0.32032,2.6875 2.08361,2.14158 3.19587,2.57815 4.7168,1.85547 0.59008,-0.28036 1.29996,-1.52266 1.44336,-2.52735 0.1564,-1.09585 -0.20118,-2.33931 -0.75586,-2.6289 -0.1537,-0.0803 -0.43769,-0.11995 -0.80469,-0.125 z m -38.25195,6.68164 c 1.155144,0.0288 3.427465,0.38953 4.490234,0.77539 2.394459,0.86941 4.950164,2.11596 5.041016,2.45898 0.0519,0.19598 -0.01673,1.71085 -0.152344,3.36719 -0.589037,7.19544 -0.673675,10.71716 -0.328125,13.57422 0.115586,0.95566 0.195898,1.82303 0.179688,1.92773 -0.06295,0.40652 -0.539474,0.1204 -1.710938,-1.02344 -2.427246,-2.36985 -6.051029,-9.62832 -7.34375,-14.71093 -0.59564,-2.34193 -1.096728,-5.9407 -0.873047,-6.27539 0.05041,-0.0754 0.312218,-0.10336 0.697266,-0.0937 z m 51.1543,2.52929 c 0.80551,0.021 1.33943,0.14854 1.37695,0.39649 0.0744,0.49061 -1.07282,3.10118 -2.39258,5.44336 -1.03887,1.84369 -3.20948,4.921 -5.64453,8.00586 -1.14108,1.44555 -5.89801,6.21928 -6.18359,6.20507 -0.10798,-0.006 -0.44816,0.17274 -0.75586,0.39649 -0.79733,0.57981 -1.45792,0.7624 -1.39453,0.38476 v -0.002 c 0.0278,-0.16715 0.37014,-1.01868 0.75976,-1.89453 1.04004,-2.33812 2.05528,-5.77689 3.34766,-11.34766 0.63082,-2.71909 1.20934,-5.0991 1.28711,-5.28711 0.12843,-0.31049 0.93277,-0.59822 4.35351,-1.5625 1.80658,-0.50925 3.90357,-0.77331 5.2461,-0.73828 z m -43.501956,38.21289 c 0.01622,0.004 0.02727,0.0314 0.0332,0.084 0.02177,0.19299 0.08966,0.98134 0.150391,1.75195 0.236627,3.00261 1.169852,5.89306 2.773437,8.59766 2.103444,3.5476 4.54993,5.60683 6.798828,5.71875 2.57584,0.1282 7.00263,-2.92008 10.21289,-7.03321 1.27139,-1.62894 3.12358,-4.94355 3.80274,-6.80664 l 0.58203,-1.59961 -0.0488,1.16016 c -0.0274,0.6383 -0.0223,1.5291 0.0117,1.97852 0.0336,0.44947 -0.16197,2.53875 -0.43359,4.64453 l -0.49414,3.83008 -1.12696,2.48632 c -1.2794,2.82272 -2.589,4.72314 -4.84961,7.03321 -1.39485,1.42541 -1.58608,1.54711 -3.25195,2.07031 -0.97321,0.30569 -2.589291,0.81766 -3.5918,1.13867 -1.002499,0.32098 -2.050135,0.56478 -2.328125,0.54102 -0.27797,-0.0238 -1.52667,-0.5117 -2.77539,-1.08399 -4.052703,-1.85733 -4.508692,-2.17192 -5.337891,-3.68359 -1.062849,-1.93766 -1.878038,-4.02127 -2.103516,-5.37695 -0.682448,-4.10308 -0.676751,-3.74771 -0.0918,-7.33008 0.490288,-3.00265 1.825027,-8.17914 2.06836,-8.1211 z" /><path
     style="fill:#000000;fill-opacity:1;stroke-width:2.0245"
     d="m 165.12868,480.56386 c -5.57329,-2.89488 -8.46978,-6.23223 -10.33404,-11.90705 -1.74628,-5.31566 -4.40587,-21.63054 -5.87635,-36.04767 l -0.78129,-7.66013 17.7952,-0.83293 c 9.78734,-0.45811 18.80868,-0.6404 20.04741,-0.4051 1.93945,0.36843 2.53786,2.34899 4.30892,14.2614 2.82334,18.99008 2.32482,28.77095 -1.78232,34.96925 -5.48119,8.27194 -15.70747,11.60621 -23.37753,7.62223 z"
     id="path8699" /><path
     style="fill:#000000;fill-opacity:1;stroke-width:2.0245"
     d="m 64.629919,480.81964 c -1.906011,-0.72913 -4.618762,-1.98418 -6.028337,-2.789 -2.89933,-1.65541 -7.752273,-9.57079 -8.905769,-14.52573 -0.851977,-3.65972 2.580649,-44.64869 3.854214,-46.02314 0.442259,-0.47729 9.094102,0.42988 19.226317,2.01594 10.132218,1.58606 18.815707,2.88508 19.296646,2.88673 1.548645,0.006 -2.417801,36.60856 -4.892693,45.15091 -1.602496,5.53117 -4.874868,9.54047 -9.523431,11.66809 -5.774076,2.64275 -9.224447,3.07083 -13.026947,1.6162 z"
     id="path11972" /><path
     style="fill:#000000;fill-opacity:1;stroke-width:2.0245"
     d="m 169.77543,125.31812 c 0.43009,-1.26903 3.416,-9.4455 6.63536,-18.16993 3.21936,-8.724422 5.54159,-16.173983 5.16051,-16.554572 -0.38108,-0.38059 -6.31585,0.611691 -13.18838,2.205067 -19.75469,4.58007 -29.41669,5.768548 -41.64394,5.122428 -14.64997,-0.774145 -15.32516,-1.086689 -15.32516,-7.094046 0,-5.359371 2.98959,-17.982355 4.65301,-19.64644 0.65558,-0.655851 6.76948,-0.04724 15.82384,1.575189 18.88038,3.383129 48.76911,9.20639 51.56726,10.046914 1.94031,0.582838 2.10898,1.652158 1.67863,10.641793 -0.38967,8.139727 -1.13715,11.381367 -4.029,17.472717 -3.3928,7.14653 -13.01978,19.38052 -11.33213,14.40088 z"
     id="path12011" /><path
     style="fill:#000000;fill-opacity:1;stroke-width:2.0245"
     d="M 152.0163,70.899181 C 96.918744,60.601446 95.403194,60.2476 95.02425,57.592817 c -0.348343,-2.440436 -0.04462,-2.656765 2.887893,-2.056646 8.744607,1.789539 21.238767,3.425709 21.809207,2.856018 0.35186,-0.351422 1.90863,-6.247173 3.45946,-13.101669 1.55083,-6.854495 3.47504,-12.884294 4.27601,-13.399552 3.41592,-2.197422 10.29541,-3.239985 21.41923,-3.246011 13.15189,-0.0071 21.10257,2.016483 31.95461,8.133095 10.24988,5.77721 10.31923,5.934103 9.59177,21.702838 l -0.63248,13.710065 12.19623,2.440855 c 6.70792,1.342471 12.38622,2.630599 12.61843,2.862507 1.20161,1.200066 -1.36559,4.197585 -3.51005,4.098409 -1.36153,-0.06297 -27.94675,-4.875062 -59.07826,-10.693545 z"
     id="path12167-6" /><path
     style="fill:#000000;fill-opacity:1;stroke-width:1.01225"
     d="m 211.91257,197.88102 c -2.96439,-1.40354 -12.34512,-11.10553 -17.32355,-17.91682 -2.38042,-3.2568 -6.58496,-9.48661 -9.34344,-13.84401 -3.89892,-6.15893 -4.94503,-8.24357 -4.69932,-9.36463 1.54757,-7.06085 20.30467,-58.599904 22.6588,-62.259802 0.63388,-0.985458 0.28861,-1.136772 29.21157,12.801912 11.11841,5.35822 20.47519,9.7878 20.79286,9.84351 0.31766,0.0556 0.9123,0.54855 1.32141,1.09522 0.76084,1.01663 0.10007,2.95899 -19.24822,56.58188 l -3.91574,10.8523 -2.65184,1.39139 c -3.27362,1.71762 -4.03185,2.38513 -8.65611,7.62039 -3.98291,4.50917 -4.74581,4.80871 -8.14642,3.19866 z m 6.38194,-15.22388 c 0.66397,-1.29979 1.0808,-2.69227 0.9263,-3.09438 -0.43263,-1.12595 -11.8103,-6.75367 -13.23976,-6.54878 -0.77365,0.11091 -1.48322,0.80369 -1.82693,1.78372 -0.48889,1.39399 -0.34016,1.82116 1.14353,3.28442 1.26972,1.25223 10.70334,6.85935 11.65701,6.92864 0.073,0.006 0.6759,-1.05383 1.33985,-2.35362 z m 9.98845,-18.23009 c 0.29035,-1.01109 0.37559,-2.23476 0.18943,-2.71926 -0.59573,-1.55045 -27.78426,-14.4971 -31.81711,-15.1507 -1.91836,-0.31091 -2.12077,-0.19782 -2.89112,1.61528 -0.45558,1.07228 -0.65215,2.12281 -0.43683,2.33451 1.4197,1.39578 32.47797,16.11189 33.58182,15.91182 0.46524,-0.0843 1.08345,-0.98057 1.37381,-1.99165 z m 3.75218,-17.79323 c 1.40376,-3.07694 0.99715,-3.64577 -4.38353,-6.13216 -10.24358,-4.73353 -22.96088,-9.76827 -24.9523,-9.87854 -1.904,-0.10544 -2.06204,0.0152 -2.22587,1.6992 -0.26713,2.74556 2.07105,4.14908 18.41258,11.0525 13.21386,5.58214 12.2035,5.33173 13.14912,3.259 z m 6.99728,-16.09245 c 2.12524,-2.55746 0.10769,-3.94131 -17.58979,-12.06482 -9.23927,-4.24102 -13.18399,-5.67326 -14.37176,-5.21806 -0.91544,0.35083 -1.73848,2.86233 -1.21515,3.70803 0.77615,1.2542 20.37122,10.95321 27.42729,13.57573 2.71864,1.01043 4.90928,1.0101 5.74941,-8.7e-4 z"
     id="path13862" /><path
     style="fill:#000000;fill-opacity:1;stroke-width:1.01225"
     d="m 275.67692,236.26462 c -0.47274,-0.76391 -3.06141,-23.17801 -3.09589,-26.80573 -0.0187,-1.97253 0.19414,-2.44088 1.23275,-2.71213 1.63567,-0.42719 2.05128,-0.12475 2.45463,1.78622 0.31061,1.47166 3.22092,26.63788 3.22092,27.85218 0,0.78703 -3.31565,0.6822 -3.81241,-0.12054 z"
     id="path14123" /><path
     style="fill:#000000;fill-opacity:1;stroke-width:1.01225"
     d="m 284.75091,235.63754 c -0.26709,-0.71382 -1.06309,-6.74895 -1.76888,-13.41138 -0.70579,-6.66243 -1.42299,-12.82733 -1.5938,-13.69979 -0.28112,-1.43593 -0.15315,-1.58546 1.34998,-1.57747 0.9133,0.005 1.94194,0.19955 2.28588,0.43263 0.63809,0.43245 3.13974,21.84442 3.13276,26.81393 -0.004,2.54422 -0.10801,2.73996 -1.46208,2.73996 -0.98332,0 -1.6164,-0.4227 -1.94386,-1.29788 z"
     id="path14421" /><path
     style="fill:#000000;fill-opacity:1;stroke-width:1.01225"
     d="m 311.61353,234.7723 c -0.17697,-1.18972 -0.88119,-7.7244 -1.56495,-14.5215 -1.19855,-11.91475 -1.20559,-12.38582 -0.19619,-13.12296 0.57585,-0.42053 1.4622,-0.7646 1.96968,-0.7646 0.92354,0 1.05871,0.96188 3.91087,27.83222 l 0.29085,2.73996 h -2.04425 c -1.91999,0 -2.06381,-0.13149 -2.36601,-2.16312 z"
     id="path14499" /><path
     style="fill:#000000;fill-opacity:1;stroke-width:1.01225"
     d="m 321.34269,236.32445 c -0.43779,-0.70744 -3.12848,-23.9988 -3.14468,-27.22125 -0.01,-1.91748 0.15078,-2.16312 1.41275,-2.16312 0.78299,0 1.67461,0.46836 1.98137,1.04081 0.45807,0.85481 3.52594,25.32653 3.52594,28.12567 0,0.97847 -3.19074,1.16263 -3.77538,0.21789 z"
     id="path14538" /><path
     style="fill:#000000;fill-opacity:1;stroke-width:1.01225"
     d="m 330.37755,235.65426 c -0.62106,-1.63142 -3.51229,-27.66386 -3.14102,-28.28156 0.14303,-0.23794 1.09786,-0.43262 2.12187,-0.43262 h 1.86183 l 1.34286,13.69979 c 0.73856,7.53489 1.37989,14.21895 1.42517,14.85347 0.12976,1.81914 -2.92757,1.95541 -3.61071,0.16092 z"
     id="path14577" /><path
     style="fill:#000000;fill-opacity:1;stroke-width:1.01225"
     d="m 339.28891,236.21438 c -0.19887,-0.61702 -3.19684,-27.67722 -3.19684,-28.85521 0,-0.2305 0.76972,-0.41909 1.71048,-0.41909 1.50943,0 1.78428,0.27371 2.33833,2.32865 0.6105,2.26428 2.88215,22.79189 2.88215,26.04433 0,1.4218 -0.21645,1.62236 -1.75086,1.62236 -0.96299,0 -1.85545,-0.32447 -1.98326,-0.72104 z"
     id="path14616" /></svg>
