<?xml version="1.0" encoding="UTF-8" standalone="no"?>
<!-- Created with Inkscape (http://www.inkscape.org/) -->

<svg
   version="1.1"
   id="svg870"
   width="512"
   height="512"
   viewBox="0 0 512 512"
   sodipodi:docname="dnstwist.svg"
   inkscape:version="1.2.2 (b0a8486541, 2022-12-01)"
   inkscape:export-filename="../GIT Icons/dnstwist.png"
   inkscape:export-xdpi="96"
   inkscape:export-ydpi="96"
   xmlns:inkscape="http://www.inkscape.org/namespaces/inkscape"
   xmlns:sodipodi="http://sodipodi.sourceforge.net/DTD/sodipodi-0.dtd"
   xmlns="http://www.w3.org/2000/svg"
   xmlns:svg="http://www.w3.org/2000/svg">
  <defs
     id="defs874" />
  <sodipodi:namedview
     id="namedview872"
     pagecolor="#505050"
     bordercolor="#eeeeee"
     borderopacity="1"
     inkscape:pageshadow="0"
     inkscape:pageopacity="0"
     inkscape:pagecheckerboard="0"
     showgrid="false"
     inkscape:zoom="0.5117645"
     inkscape:cx="318.50588"
     inkscape:cy="340.00014"
     inkscape:window-width="1366"
     inkscape:window-height="705"
     inkscape:window-x="0"
     inkscape:window-y="0"
     inkscape:window-maximized="1"
     inkscape:current-layer="g1102"
     inkscape:showpageshadow="0"
     inkscape:deskcolor="#505050" />
  <g
     inkscape:groupmode="layer"
     inkscape:label="Image"
     id="g876">
    <g
       id="g1102"
       transform="translate(30.449762,-92.453347)">
      <g
         id="g1164">
        <path
           sodipodi:type="star"
           style="fill:#ffffff;stroke-width:8.006;paint-order:stroke fill markers"
           id="path349"
           inkscape:flatsided="true"
           sodipodi:sides="3"
           sodipodi:cx="-561.9884"
           sodipodi:cy="-103.45521"
           sodipodi:r1="366.98935"
           sodipodi:r2="183.49467"
           sodipodi:arg1="0.580599"
           sodipodi:arg2="1.6277965"
           inkscape:rounded="0"
           inkscape:randomized="0"
           d="M -255.13604,97.847581 -889.74791,61.635335 -541.08125,-469.84854 Z"
           transform="matrix(0.76678863,0.04592093,0.04414139,-0.79770156,660.97234,218.4897)"
           inkscape:transform-center-x="-0.07374843"
           inkscape:transform-center-y="76.11461" />
        <path
           style="fill:#054c81;stroke-width:5.79551"
           d="m 198.61088,372.27614 c -9.15743,0.27219 -18.31125,1.39531 -27.46872,2.33684 -12.04156,1.22491 -24.12925,2.50711 -36.19163,3.75543 11.23818,11.12798 22.41594,22.32768 33.72168,33.37567 7.88786,7.47232 16.41013,14.50329 26.2878,18.62133 2.33612,0.98386 4.85876,1.81883 7.21939,2.43544 7.97435,2.10342 16.24971,2.41795 24.41897,1.98296 1.05921,-0.0651 2.34633,-0.12741 3.4917,-0.22199 3.29735,-0.24096 6.5821,-0.59286 9.8151,-0.99962 5.80948,-0.73997 11.46836,-1.67915 17.25239,-2.66889 11.3717,-2.00974 22.71904,-4.17526 34.0787,-6.26204 -17.15587,-12.18171 -34.27634,-24.42037 -51.49266,-36.50277 -3.30451,-2.27398 -6.72628,-4.62382 -10.05496,-6.68281 -5.82592,-3.57159 -11.95435,-6.83649 -18.5987,-8.1611 -1.06817,-0.22533 -1.97254,-0.38035 -3.0751,-0.53753 -1.00274,-0.14203 -1.78915,-0.2265 -2.79995,-0.31037 -0.58311,-0.0548 -1.21623,-0.0783 -1.72161,-0.11339 -1.62653,-0.0683 -3.25497,-0.0632 -4.8824,-0.0472 z"
           id="path407" />
        <path
           style="fill:#054c81;stroke-width:5.84055"
           d="m 175.8319,223.43397 c -36.0106,3.72552 -72.01186,7.56438 -108.066382,10.79117 -2.948441,0.26029 -5.90514,0.4757 -8.855299,0.65761 -1.356946,0.17729 -2.31074,1.78176 -1.754874,3.1182 0.772179,1.78736 2.409918,2.93094 3.8481,4.09565 3.741178,2.89435 7.785833,5.53118 11.807673,8.05799 16.115673,9.98651 32.806692,19.29674 50.174542,26.81268 4.33847,1.89252 8.7475,3.70297 13.10141,5.31067 5.45736,1.9817 11.04157,3.9517 16.7758,5.06846 4.83286,0.98996 9.77327,0.40475 14.64637,0.1716 19.16599,-1.1726 38.28936,-2.9023 57.4305,-4.58706 35.50443,-3.19369 71.00243,-6.6603 106.42665,-10.47546 11.62535,-1.28683 23.2072,-2.56696 34.78267,-4.2012 1.93235,-0.30582 4.08225,-0.55066 6.03922,-1.24657 0.60389,-0.2364 1.09133,-0.74717 1.15366,-1.43612 0.44141,-0.96813 -0.4925,-1.83408 -1.17475,-2.33154 -1.84517,-1.06508 -3.87519,-1.72589 -5.82172,-2.55806 -10.03124,-3.98299 -20.22994,-7.47713 -30.39635,-11.05732 -25.68832,-8.90284 -51.53851,-17.32261 -77.3348,-25.96427 -6.76813,-2.25369 -13.53605,-4.50889 -20.30434,-6.76163 -20.82603,2.1784 -41.65204,4.35679 -62.47808,6.5352 z"
           id="path1104" />
        <ellipse
           style="fill:#054c81;fill-opacity:1;stroke-width:7.8059;paint-order:stroke fill markers"
           id="path492"
           cx="-63.035881"
           cy="434.54834"
           rx="15.283783"
           ry="75.534775"
           transform="matrix(0.84272893,-0.53833814,0.50782623,0.86145953,0,0)" />
        <path
           id="path1106"
           style="fill:#389ac8;stroke-width:5.46455"
           d="m 222.04525,143.31955 c -40.45928,0 -80.64442,0.20691 -110.80633,0.61897 L 1.5572701,145.43311 28.617683,194.00802 c 14.886644,26.71899 28.701347,47.53811 30.697198,46.26677 4.244605,-2.70377 108.253899,-13.32223 170.394599,-17.40162 23.68349,-1.55476 74.53394,-5.88559 112.9926,-9.62172 l 69.92051,-6.79358 17.69341,-30.51239 17.68291,-30.51237 -113.53916,-1.49459 c -31.22458,-0.41203 -71.95518,-0.61897 -112.4145,-0.61897 z m 147.31782,120.25134 c -5.36899,-0.1864 -13.10872,0.35321 -22.58276,1.64723 -17.02251,2.32492 -83.02726,8.46767 -146.67665,13.64251 -63.64941,5.17482 -116.324546,9.92845 -117.060334,10.56443 -2.652353,2.29254 31.698314,61.4601 51.251344,90.08785 0.006,-1.6e-4 0.009,-0.002 0.014,-0.002 0.18812,-8.6e-4 0.47009,0.0821 0.64467,0.0688 0.24379,-0.0122 0.48401,-0.0108 0.72175,0 0.14208,-0.0982 0.47868,-0.0842 0.52029,0.0437 0.17169,0.0197 0.34139,0.0475 0.50978,0.0789 0.14375,0.0174 0.18781,0.0242 0.46249,0.0537 -5.9e-4,0.006 -9e-4,0.01 -0.002,0.0152 0.13435,0.0108 0.26858,0.0212 0.40292,0.0317 v 0.002 c 0.0731,0.007 0.1433,0.0137 0.21548,0.02 -0.20203,-0.0127 -0.41501,-0.0182 -0.6219,-0.0284 -2e-4,0.002 1.9e-4,0.004 0,0.006 0.52704,0.13207 1.03771,0.31796 1.53109,0.55355 2.7e-4,-0.007 0.002,-0.0146 0.002,-0.0219 0.012,-0.32899 -0.29021,-0.43978 -0.68671,-0.48646 1.50079,0.15389 2.7993,0.46857 3.90832,0.89743 0.67617,-0.2029 1.35626,-0.37415 2.05313,-0.37574 0.99212,-0.003 2.00344,0.19818 3.02715,0.60386 l 23.9124,-0.71458 c 17.53855,-0.52191 35.51843,-1.35576 39.95908,-1.86361 4.44066,-0.50784 31.54792,-2.87429 60.23995,-5.2453 l 52.17629,-4.30094 27.21633,-48.62859 c 14.97443,-26.74203 27.22858,-51.00165 27.22858,-53.91752 0,-1.62283 -2.9977,-2.54446 -8.36669,-2.73084 z M 137.94372,380.61497 c 0.0478,0.0155 0.10244,0.0333 0.14541,0.047 0.0181,5.7e-4 0.0362,8.7e-4 0.0543,0.002 -0.0652,-0.018 -0.13195,-0.0336 -0.19971,-0.0486 z m 151.64658,43.09308 c -3.89517,-0.25418 -13.0032,0.6481 -23.54976,2.4373 -33.09132,5.61392 -57.49502,6.04264 -72.61658,1.34699 -0.21467,0.1038 -0.4264,0.21237 -0.64117,0.31535 -0.446,0.21486 -0.88796,0.43609 -1.33313,0.65251 -0.20134,0.0898 -0.40257,0.17955 -0.60439,0.2684 -0.002,6.7e-4 -0.8313,0.44772 -0.26803,0.1107 0.16171,-0.0967 0.16561,-0.10215 0.29081,-0.1778 -0.13859,0.0776 -0.30647,0.16756 -0.58686,0.30361 -0.33624,0.16315 -0.54637,0.22189 -0.8654,0.32038 0.63825,-0.32202 1.10949,-0.56603 1.55912,-0.79677 -0.21732,0.0396 -0.6557,0.17583 -1.19475,0.35226 -0.41155,0.38023 -0.8319,0.74947 -1.29985,1.10373 -0.51462,0.24295 -1.05469,0.44143 -1.5486,0.71963 0.21871,-0.10076 0.48372,-0.21772 0.84788,-0.36399 0.0574,-0.0232 0.0599,-0.0173 0.028,0.006 0.0892,-0.0418 0.19803,-0.0932 0.26628,-0.12413 0.0511,-0.0276 0.0865,-0.0444 0.14015,-0.0738 0.0208,-0.0114 -0.0397,0.0272 -0.0614,0.0368 -0.0177,0.008 -0.0585,0.0278 -0.0788,0.0369 -0.27519,0.14888 -0.52547,0.28047 -0.73926,0.38413 -0.0681,0.0353 -0.15137,0.0816 -0.19621,0.10234 -1.24903,0.57597 -0.80353,0.40187 -2.05839,0.74812 2.00553,-0.53193 -0.40109,0.12783 -0.73052,0.20299 -0.25533,0.0427 -0.16448,0.0273 -0.24525,0.0401 -0.0641,0.0122 -0.0787,0.0176 -0.11912,0.0217 -0.0169,0.002 -0.0339,0.004 -0.0507,0.006 -0.006,5.1e-4 -0.0105,7.3e-4 -0.0158,0.002 -0.12129,0.0121 -0.24302,0.0238 -0.36438,0.0352 1.5e-4,-2.3e-4 -0.004,2.4e-4 -0.004,0 -0.007,0.007 -0.0482,0.0185 -0.14891,0.0369 -0.24662,0.0453 -0.49388,0.0866 -0.74102,0.12917 -0.31587,0.0117 -0.63188,0.0222 -0.94774,0.0336 -0.0675,0.008 -0.0528,0.006 -0.41343,0.0503 -0.37553,0.0304 -0.75109,0.0565 -1.12643,0.0856 -0.99739,1.07479 -2.48035,2.14184 -4.59503,3.36157 -7.93398,4.57628 -6.0358,10.41821 16.32524,50.37478 13.91263,24.8602 28.4767,45.20496 32.37019,45.20496 5.72662,0 67.33483,-97.5734 67.33483,-106.64235 0,-0.35196 -0.71971,-0.56445 -2.01809,-0.64918 z m -98.61539,4.78067 c 0.11499,-0.0211 0.19218,-0.0267 0.14014,0.0219 0.74212,-0.45457 0.49821,-0.3494 -0.14014,-0.0219 z m -1.56789,0.47639 c -0.18898,0.0631 -0.32499,0.10591 -0.51327,0.16943 0.0403,0.002 0.0932,5e-4 0.12788,0.004 0.12256,-0.0521 0.14947,-0.0594 0.32234,-0.13251 0.0394,-0.0265 0.0272,-0.0163 0.063,-0.0401 z m -0.38539,0.17276 c -0.61329,0.26135 -0.79593,0.33559 -1.08613,0.31201 -0.12293,0.0404 -0.32138,0.10851 -0.41869,0.13922 0.15536,0.006 0.15904,-8.6e-4 0.69021,-0.11574 -0.15303,0.0436 -0.30002,0.0759 -0.4467,0.10401 0.0936,-0.0106 0.18686,-0.0221 0.2803,-0.0335 0.0353,-0.007 0.0732,-0.0162 0.1086,-0.0235 -0.0182,0.005 -0.0539,0.0162 -0.0719,0.0201 0.10629,-0.0132 0.21249,-0.0259 0.31883,-0.0385 1.04917,-0.22423 1.08413,-0.3298 0.6254,-0.36401 z m -1.08613,0.31201 c 0.28104,-0.0928 0.60685,-0.19683 0.95825,-0.31534 -0.78193,-0.0344 -2.5502,0.0764 -3.833,0.20631 -0.19917,0.0202 -0.0178,0.0728 0.26103,0.12412 1.69325,-0.10111 2.31052,-0.0397 2.61372,-0.0152 z" />
        <rect
           style="fill:#054c81;fill-opacity:1;stroke-width:10.612;paint-order:stroke fill markers"
           id="rect1100"
           width="111.67268"
           height="17.782074"
           x="119.65342"
           y="442.48532"
           ry="7.4180331"
           transform="rotate(-6.34775)" />
        <ellipse
           style="fill:#054c81;fill-opacity:1;stroke-width:10.715;paint-order:stroke fill markers"
           id="path1154"
           cx="174.29213"
           cy="493.3313"
           rx="12.253621"
           ry="3.3938107"
           transform="matrix(0.95352656,-0.30130897,0.22877926,0.97347833,0,0)" />
      </g>
    </g>
  </g>
</svg>
