<?xml version="1.0" encoding="UTF-8" standalone="no"?>
<!-- Created with Inkscape (http://www.inkscape.org/) -->

<svg
   version="1.1"
   id="svg870"
   width="512"
   height="512"
   viewBox="0 0 512 512"
   sodipodi:docname="dnsx.svg"
   inkscape:version="1.1.2 (0a00cf5339, 2022-02-04)"
   xmlns:inkscape="http://www.inkscape.org/namespaces/inkscape"
   xmlns:sodipodi="http://sodipodi.sourceforge.net/DTD/sodipodi-0.dtd"
   xmlns="http://www.w3.org/2000/svg"
   xmlns:svg="http://www.w3.org/2000/svg">
  <defs
     id="defs874" />
  <sodipodi:namedview
     id="namedview872"
     pagecolor="#505050"
     bordercolor="#eeeeee"
     borderopacity="1"
     inkscape:pageshadow="0"
     inkscape:pageopacity="0"
     inkscape:pagecheckerboard="0"
     showgrid="false"
     inkscape:zoom="0.55818966"
     inkscape:cx="284.84942"
     inkscape:cy="183.62934"
     inkscape:window-width="1366"
     inkscape:window-height="695"
     inkscape:window-x="0"
     inkscape:window-y="24"
     inkscape:window-maximized="1"
     inkscape:current-layer="g876" />
  <g
     inkscape:groupmode="layer"
     inkscape:label="Image"
     id="g876">
    <g
       id="g1515"
       transform="matrix(0.92579976,0,0,0.91578815,18.894,21.558232)">
      <path
         id="path978-3"
         style="fill:#ffffff;stroke-width:2.4212"
         d="M 83.800781,-4.4765625 C 74.57205,5.133231 65.342379,14.742121 56.113281,24.351562 54.604562,24.987712 53.734044,26.46479 52.524897,27.494954 32.713169,47.255707 12.901793,67.016812 -6.9101562,86.777344 50.051038,143.59154 107.01168,200.40629 163.97266,257.2207 107.45123,313.57558 50.929341,369.92999 -5.5917969,426.28516 c 7.6169352,7.15931 14.3762524,15.18057 22.1465039,22.18064 2.074651,1.83943 4.399945,3.45288 7.013652,4.42092 -0.248452,0.42986 -1.231343,0.85992 -1.008774,1.28966 7.36717,7.1595 14.120724,14.92394 21.617779,21.95159 2.502685,2.33971 5.225354,4.57874 8.476933,5.78023 -0.233432,0.44407 -1.395085,0.87865 -0.765964,1.33153 11.107934,11.56942 22.216414,23.13832 33.324558,34.70754 56.703939,-56.55648 113.407529,-113.11331 170.111329,-169.66993 45.38879,45.19375 90.78562,90.37933 136.39222,135.35086 7.52099,7.37836 14.99479,14.80796 22.60379,22.09457 2.28323,2.0954 4.52909,4.45364 7.55477,5.43739 3.27636,1.16594 6.98192,0.95243 10.11691,-0.54561 4.49958,-1.91684 7.87682,-5.58884 11.33451,-8.91558 3.65864,-3.68617 7.26016,-7.43425 10.77247,-11.25761 1.64822,-2.13517 2.45236,-4.86641 2.37963,-7.55074 4.61972,-0.64646 8.76534,-3.20099 12.01296,-6.46673 6.1957,-5.632 11.70268,-11.95718 17.59017,-17.89948 1.47672,-1.54001 2.95355,-3.07991 4.43007,-4.62011 -0.16872,-0.35525 -1.31734,-0.9091 -0.79434,-1.12228 4.47654,-1.74856 7.86846,-5.28239 11.25562,-8.55213 3.44938,-3.42852 6.77279,-6.98124 10.08572,-10.5379 3.99618,-5.01134 2.93811,-13.10808 -2.1095,-17.01621 -54.19596,-54.05404 -108.39193,-108.10807 -162.58789,-162.16211 4.03933,-1.66076 6.90448,-5.08269 10.04261,-7.96976 15.50254,-14.81131 30.69384,-29.94639 45.94128,-45.01695 C 441.36375,162.82242 480.20111,123.93439 519.12891,85.136719 508.99743,75.463602 498.8701,65.786138 488.74023,56.111328 488.11988,54.625721 486.66376,53.776649 485.64988,52.591 466.22098,33.213046 446.79236,13.834807 427.36328,-5.5429688 370.41654,51.27591 313.47148,108.09648 256.52539,164.91602 199.4212,107.96161 142.31718,51.007039 85.212891,-5.9472656 c -0.470704,0.4902344 -0.941407,0.9804687 -1.41211,1.4707031 z M 290.07227,199.10547 c 0.17984,0.85023 -0.80004,0.99633 -1.33435,1.36924 -0.55256,0.38596 -1.09826,0.6948 -1.55576,0.0126 -0.47067,-0.40142 -1.24186,-0.76995 -0.93847,-1.51725 -0.0405,-0.7023 0.45607,-1.15962 1.14694,-1.07589 0.60416,-0.0806 1.20833,-0.16123 1.81249,-0.24185 0.28972,0.48438 0.57943,0.96875 0.86915,1.45313 z m 24.32812,23.67187 c 0.26676,0.49967 1.2062,0.93004 0.65776,1.5137 -0.3716,0.69856 -0.74319,1.39712 -1.11479,2.09568 -0.54361,0.0648 -1.41869,0.14053 -1.47695,-0.59953 -0.25704,-0.69143 -0.51407,-1.38286 -0.7711,-2.0743 0.44648,-0.4092 0.74416,-1.15826 1.46327,-0.94476 0.41394,0.003 0.82787,0.006 1.24181,0.009 z" />
      <path
         id="path978"
         style="fill:#000000;stroke-width:2.4212"
         d="m 85.432105,14.041577 -7.112018,7.405346 -7.112017,7.405346 205.98361,205.460581 c 113.29063,113.00364 206.59852,205.46057 207.35203,205.46057 0.75354,0 4.2736,-3.02141 7.82228,-6.71584 l 6.4491,-6.72052 -206.6891,-206.14539 z M 427.36339,14.225762 348.686,92.723381 270.01335,171.2257 l 7.10729,7.40063 7.10729,7.40064 78.84313,-78.64403 78.84785,-78.639301 -7.27777,-7.258938 z M 57.755824,42.047759 49.881449,49.901771 42.007074,57.760505 248.04278,263.27303 c 113.32062,113.03356 206.65535,205.51725 207.40886,205.51725 0.75354,0 4.53647,-3.29774 8.40943,-7.32978 l 7.04098,-7.33452 -206.57074,-206.03675 z m 397.515886,0.01427 -77.56465,77.331091 c -42.65945,42.53352 -77.55992,78.36014 -77.55992,79.61217 0,1.25201 2.3709,4.79482 5.2701,7.87291 2.89922,3.07808 6.45119,5.59653 7.89331,5.59653 1.44212,0 37.51088,-34.815 80.15471,-77.36414 L 471.0015,57.751163 463.1366,49.906596 Z M 28.663753,71.064733 20.789378,78.918728 12.915003,86.777463 218.9507,292.29 c 113.32063,113.03355 206.65536,205.51724 207.40887,205.51724 0.75353,0 4.53647,-3.29774 8.40943,-7.32978 l 7.04098,-7.33452 L 235.23924,277.1062 Z m 455.591127,0.122838 -78.66319,78.431499 -78.66319,78.43147 6.45861,6.72056 c 3.55098,3.69687 7.07349,6.72055 7.83175,6.72055 0.75826,0 36.5914,-35.13087 79.62439,-78.06786 L 499.085,85.355951 491.66994,78.271773 Z m -312.73977,198.281919 -78.663194,78.4315 -78.663189,78.43148 6.458609,6.72054 c 3.550978,3.69687 7.073495,6.72055 7.831755,6.72055 0.758261,0 36.591401,-35.13086 79.624399,-78.06784 l 78.24174,-78.06785 -7.41506,-7.08418 z m 28.18767,30.05589 c -1.44212,0 -37.48399,34.78815 -80.09789,77.30746 l -77.479436,77.30746 7.031529,7.32506 c 3.869634,4.02858 7.647603,7.32507 8.390493,7.32507 2.366737,0 155.323444,-153.42172 155.323444,-155.79564 0,-3.21991 -10.0211,-13.46941 -13.16814,-13.46941 z m 28.86479,26.63185 -78.6774,78.49761 -78.672645,78.50232 7.10729,7.40063 7.10729,7.40063 78.843125,-78.64402 78.84786,-78.63931 -7.27777,-7.25893 z" />
    </g>
  </g>
</svg>
