<?xml version="1.0" encoding="UTF-8" standalone="no"?>
<!-- Created with Inkscape (http://www.inkscape.org/) -->

<svg
   version="1.1"
   id="svg64"
   width="512"
   height="512"
   viewBox="0 0 512.00001 511.99999"
   sodipodi:docname="docem.svg"
   inkscape:version="1.1.2 (0a00cf5339, 2022-02-04)"
   xmlns:inkscape="http://www.inkscape.org/namespaces/inkscape"
   xmlns:sodipodi="http://sodipodi.sourceforge.net/DTD/sodipodi-0.dtd"
   xmlns="http://www.w3.org/2000/svg"
   xmlns:svg="http://www.w3.org/2000/svg"
   xmlns:rdf="http://www.w3.org/1999/02/22-rdf-syntax-ns#"
   xmlns:cc="http://creativecommons.org/ns#"
   xmlns:dc="http://purl.org/dc/elements/1.1/">
  <metadata
     id="metadata70">
    <rdf:RDF>
      <cc:Work
         rdf:about="">
        <dc:format>image/svg+xml</dc:format>
        <dc:type
           rdf:resource="http://purl.org/dc/dcmitype/StillImage" />
      </cc:Work>
    </rdf:RDF>
  </metadata>
  <defs
     id="defs68" />
  <sodipodi:namedview
     pagecolor="#a1a1a1"
     bordercolor="#666666"
     borderopacity="1"
     objecttolerance="10"
     gridtolerance="10"
     guidetolerance="10"
     inkscape:pageopacity="0"
     inkscape:pageshadow="2"
     inkscape:window-width="1366"
     inkscape:window-height="695"
     id="namedview66"
     showgrid="false"
     inkscape:zoom="0.86565418"
     inkscape:cx="163.46019"
     inkscape:cy="253.56546"
     inkscape:window-x="0"
     inkscape:window-y="24"
     inkscape:window-maximized="1"
     inkscape:current-layer="svg64"
     inkscape:pagecheckerboard="0" />
  <path
     style="fill:#007cff;fill-opacity:1;stroke-width:2.17996"
     d="m 11.796836,474.26264 c -2.8420391,-3.09595 -3.2821731,-12.99467 -3.2821731,-73.81698 0,-84.91214 -3.5293478,-77.32543 35.9718821,-77.32543 h 26.687786 v 18.90485 c 0,24.85859 1.102306,26.2887 20.886556,27.09755 15.160023,0.61984 15.664913,0.82382 15.664913,6.32863 v 5.68815 l -27.849551,1.13764 c -34.945741,1.42749 -33.765786,0.1459 -33.765786,36.67393 0,26.13783 0.1165,26.80297 5.503313,31.4188 4.893635,4.19324 8.36447,4.71566 31.329835,4.71566 h 25.826519 v 6.31952 c 0,3.47576 -1.46314,8.5951 -3.25142,11.3763 -3.18333,4.95091 -4.16435,5.0568 -46.845558,5.0568 -36.846165,0 -44.102194,-0.55343 -46.876316,-3.57542 z m 175.447074,0 c -2.84204,-3.09595 -3.28218,-12.99467 -3.28218,-73.81698 0,-84.91214 -3.52934,-77.32543 35.9719,-77.32543 h 26.68777 v 18.90485 c 0,24.85859 1.10231,26.2887 20.88657,27.09755 15.16002,0.61984 15.66491,0.82382 15.66491,6.32863 v 5.68815 l -27.84956,1.13764 c -34.94575,1.42749 -33.76579,0.1459 -33.76579,36.67393 0,26.13783 0.11655,26.80297 5.50332,31.4188 4.89364,4.19324 8.36446,4.71566 31.32984,4.71566 h 25.82651 v 6.31952 c 0,3.47576 -1.46313,8.5951 -3.25141,11.3763 -3.18333,4.95091 -4.16436,5.0568 -46.84557,5.0568 -36.84616,0 -44.10218,-0.55343 -46.87631,-3.57542 z m 167.09245,0 c -2.84204,-3.09595 -3.28217,-12.99467 -3.28217,-73.81698 0,-84.91214 -3.52936,-77.32543 35.97188,-77.32543 h 26.68779 v 18.90485 c 0,24.85859 1.10231,26.2887 20.88655,27.09755 15.16002,0.61984 15.66492,0.82382 15.66492,6.32863 v 5.68815 l -27.84955,1.13764 c -34.94577,1.42749 -33.76579,0.1459 -33.76579,36.67393 0,26.13783 0.11655,26.80297 5.5033,31.4188 4.89365,4.19324 8.36448,4.71566 31.32984,4.71566 h 25.82653 v 6.31952 c 0,3.47576 -1.46315,8.5951 -3.25141,11.3763 -3.18335,4.95091 -4.16436,5.0568 -46.84559,5.0568 -36.84616,0 -44.10218,-0.55343 -46.8763,-3.57542 z M 54.929824,446.99301 c -4.312932,-3.29079 -4.642049,-5.2957 -4.642049,-28.27827 0,-19.4539 0.700906,-25.49986 3.282173,-28.31174 2.79655,-3.0464 10.504845,-3.57542 52.097952,-3.57542 58.84535,0 55.31863,-2.06303 55.31863,32.35993 0,32.89141 2.70334,31.3474 -54.88465,31.3474 -38.732868,0 -47.307884,-0.59352 -51.172056,-3.5419 z m 14.535891,-15.79782 c 1.308525,-3.1285 3.060068,-5.68817 3.892315,-5.68817 0.832249,0 3.052785,2.55967 4.934529,5.68817 5.606814,9.32159 8.159713,6.44419 3.057142,-3.44572 l -4.712504,-9.13391 4.551716,-10.20583 c 5.005638,-11.22364 2.503637,-14.35084 -2.704288,-3.38006 -1.782141,3.75418 -4.041987,6.82578 -5.02188,6.82578 -0.979892,0 -2.949574,-3.0716 -4.377071,-6.82578 -1.427495,-3.75419 -3.825097,-6.82579 -5.328001,-6.82579 -1.877843,0 -1.090644,3.20017 2.516717,10.23109 l 5.249272,10.23105 -4.351977,7.67078 c -4.892951,8.62428 -5.297313,10.54654 -2.218543,10.54654 1.173389,0 3.204046,-2.55967 4.512573,-5.68815 z m 26.772482,-5.68817 c 0,-11.00115 2.462244,-14.97628 4.932623,-7.9634 1.77648,5.04304 6.63721,4.14414 9.22742,-1.70645 1.92207,-4.34144 2.28796,-3.13133 2.40784,7.96341 0.0777,7.19552 1.08125,13.08276 2.23001,13.08276 1.22862,0 2.08866,-7.96342 2.08866,-19.33972 0,-11.06076 -0.87275,-19.33974 -2.03876,-19.33974 -1.12132,0 -3.84552,3.8364 -6.05379,8.52532 l -4.01503,8.52529 -3.73201,-8.52529 c -6.334779,-14.47106 -9.224273,-11.08344 -9.224273,10.81442 0,11.3763 0.860035,19.33972 2.088655,19.33972 1.14876,0 2.088655,-5.11934 2.088655,-11.37632 z m 52.216383,9.10106 c 0,-1.2514 -4.69947,-2.27527 -10.44327,-2.27527 h -10.44328 v -17.06446 c 0,-9.85946 -0.88188,-17.06447 -2.08866,-17.06447 -1.22862,0 -2.08866,7.96342 -2.08866,19.33974 v 19.33972 h 12.53194 c 6.96218,0 12.53193,-1.01122 12.53193,-2.27526 z m 81.92233,12.38493 c -4.31296,-3.29079 -4.64206,-5.2957 -4.64206,-28.27827 0,-19.4539 0.70091,-25.49986 3.28217,-28.31174 2.79655,-3.0464 10.50485,-3.57542 52.09795,-3.57542 58.84534,0 55.31863,-2.06303 55.31863,32.35993 0,32.89141 2.70334,31.3474 -54.88464,31.3474 -38.73288,0 -47.30789,-0.59352 -51.17205,-3.5419 z m 14.53587,-15.79782 c 1.30854,-3.1285 3.06006,-5.68817 3.89234,-5.68817 0.83225,0 3.05278,2.55967 4.93451,5.68817 5.60682,9.32159 8.15973,6.44419 3.05714,-3.44572 l -4.71251,-9.13391 4.55172,-10.20583 c 5.00563,-11.22364 2.50363,-14.35084 -2.70428,-3.38006 -1.78215,3.75418 -4.04199,6.82578 -5.02188,6.82578 -0.9799,0 -2.94957,-3.0716 -4.37707,-6.82578 -1.4275,-3.75419 -3.82511,-6.82579 -5.328,-6.82579 -1.87785,0 -1.09065,3.20017 2.51671,10.23109 l 5.24927,10.23105 -4.35197,7.67078 c -4.89297,8.62428 -5.29731,10.54654 -2.21854,10.54654 1.17338,0 3.20404,-2.55967 4.51256,-5.68815 z m 26.77249,-5.68817 c 0,-11.00115 2.46224,-14.97628 4.93263,-7.9634 1.77649,5.04304 6.63721,4.14414 9.22743,-1.70645 1.92207,-4.34144 2.28794,-3.13133 2.40783,7.96341 0.0777,7.19552 1.08125,13.08276 2.23001,13.08276 1.22863,0 2.08866,-7.96342 2.08866,-19.33972 0,-11.06076 -0.87275,-19.33974 -2.03875,-19.33974 -1.12133,0 -3.84554,3.8364 -6.05379,8.52532 l -4.01504,8.52529 -3.73201,-8.52529 c -6.33479,-14.47106 -9.22427,-11.08344 -9.22427,10.81442 0,11.3763 0.86002,19.33972 2.08865,19.33972 1.14875,0 2.08865,-5.11934 2.08865,-11.37632 z m 52.2164,9.10106 c 0,-1.2514 -4.69948,-2.27527 -10.44328,-2.27527 H 303.0151 v -17.06446 c 0,-9.85946 -0.88187,-17.06447 -2.08865,-17.06447 -1.22863,0 -2.08865,7.96342 -2.08865,19.33974 v 19.33972 h 12.53194 c 6.96217,0 12.53193,-1.01122 12.53193,-2.27526 z m 73.56768,12.38493 c -4.31294,-3.29079 -4.64206,-5.2957 -4.64206,-28.27827 0,-19.4539 0.70091,-25.49986 3.28218,-28.31174 2.79654,-3.0464 10.50486,-3.57542 52.09794,-3.57542 58.84536,0 55.31864,-2.06303 55.31864,32.35993 0,32.89141 2.70334,31.3474 -54.88463,31.3474 -38.73288,0 -47.30791,-0.59352 -51.17207,-3.5419 z m 14.53587,-15.79782 c 1.30856,-3.1285 3.06008,-5.68817 3.89234,-5.68817 0.83225,0 3.05278,2.55967 4.93451,5.68817 5.60684,9.32159 8.15973,6.44419 3.05715,-3.44572 l -4.7125,-9.13391 4.55172,-10.20583 c 5.00563,-11.22364 2.50363,-14.35084 -2.7043,-3.38006 -1.78213,3.75418 -4.04199,6.82578 -5.02187,6.82578 -0.97989,0 -2.94958,-3.0716 -4.37708,-6.82578 -1.42748,-3.75419 -3.82509,-6.82579 -5.32798,-6.82579 -1.87785,0 -1.09066,3.20017 2.51669,10.23109 l 5.24929,10.23105 -4.35197,7.67078 c -4.89297,8.62428 -5.29731,10.54654 -2.21856,10.54654 1.1734,0 3.20404,-2.55967 4.51256,-5.68815 z m 26.77251,-5.68817 c 0,-11.00115 2.46222,-14.97628 4.93263,-7.9634 1.77648,5.04304 6.63719,4.14414 9.22742,-1.70645 1.92207,-4.34144 2.28794,-3.13133 2.40782,7.96341 0.0777,7.19552 1.08126,13.08276 2.23003,13.08276 1.22863,0 2.08865,-7.96342 2.08865,-19.33972 0,-11.06076 -0.87274,-19.33974 -2.03876,-19.33974 -1.12131,0 -3.84553,3.8364 -6.05379,8.52532 l -4.01504,8.52529 -3.73201,-8.52529 c -6.33478,-14.47106 -9.22427,-11.08344 -9.22427,10.81442 0,11.3763 0.86002,19.33972 2.08865,19.33972 1.14877,0 2.08867,-5.11934 2.08867,-11.37632 z m 52.21638,9.10106 c 0,-1.2514 -4.69947,-2.27527 -10.44328,-2.27527 h -10.44327 v -17.06446 c 0,-9.85946 -0.88187,-17.06447 -2.08867,-17.06447 -1.22863,0 -2.08865,7.96342 -2.08865,19.33974 v 19.33972 h 12.53194 c 6.96218,0 12.53193,-1.01122 12.53193,-2.27526 z M 76.619433,360.47597 c -1.64755,-4.67703 -1.648357,-31.63223 -0.001,-33.42677 1.113763,-1.21326 30.063037,33.48441 30.063037,36.0326 0,0.54625 -6.4787,0.99315 -14.397119,0.99315 -11.201531,0 -14.678527,-0.79882 -15.664918,-3.59898 z m 175.447077,0 c -1.64756,-4.67703 -1.64837,-31.63223 -0.001,-33.42677 1.11376,-1.21326 30.06304,33.48441 30.06304,36.0326 0,0.54625 -6.47871,0.99315 -14.39712,0.99315 -11.20155,0 -14.67853,-0.79882 -15.66492,-3.59898 z m 167.09244,0 c -1.64754,-4.67703 -1.64836,-31.63223 -10e-4,-33.42677 1.11376,-1.21326 30.06304,33.48441 30.06304,36.0326 0,0.54625 -6.47871,0.99315 -14.39712,0.99315 -11.20154,0 -14.67853,-0.79882 -15.66492,-3.59898 z M 142.92646,303.21168 c 0.56065,-2.18993 1.64879,-6.35945 2.4181,-9.2656 0.79855,-3.01655 2.54788,-4.80352 4.07675,-4.16443 1.58979,0.66456 7.11445,-5.80234 13.59581,-15.91466 6.00479,-9.36878 11.46003,-16.44344 12.12279,-15.72147 0.66275,0.72196 -3.52195,8.7255 -9.29931,17.78566 -5.77736,9.06015 -10.12886,17.64078 -9.66997,19.06809 0.85181,2.64953 -8.788,12.19413 -12.31578,12.19413 -1.07125,0 -1.48903,-1.79177 -0.92839,-3.98172 z m 110.34311,-4.55051 c -1.53641,-5.44546 -1.66319,-8.80662 -0.35044,-9.29065 1.13129,-0.41716 2.0569,-7.8402 2.0569,-16.49566 0,-8.97466 0.89754,-15.73724 2.08865,-15.73724 1.19112,0 2.08865,6.76258 2.08865,15.73724 0,9.7912 0.90296,16.06511 2.38984,16.60501 1.7765,0.64507 1.73491,3.02951 -0.16207,9.29066 -1.40349,4.63258 -3.2611,8.42287 -4.12805,8.42287 -0.86692,0 -2.65954,-3.83951 -3.98355,-8.53223 z m 103.30204,3.04894 c -3.81795,-3.40189 -5.12945,-5.88565 -3.63806,-6.88975 1.51358,-1.01902 -1.46893,-7.50068 -8.4971,-18.46617 -5.95612,-9.2928 -10.29065,-17.48282 -9.63228,-18.2 0.65836,-0.71719 6.07047,6.37554 12.02688,15.76159 6.44793,10.16061 11.91397,16.61234 13.50925,15.94548 1.73428,-0.72497 3.43775,2.13441 4.82918,8.10603 2.53973,10.89966 0.45346,11.80784 -8.59787,3.74282 z m -196.3057,-64.66018 c -3.10009,-3.73161 -3.4567,-13.9423 -3.4567,-98.97391 0,-91.779351 0.13362,-94.958632 4.17732,-99.363568 3.89712,-4.245281 6.96218,-4.550513 45.69549,-4.550513 h 41.51818 l 21.07583,26.734336 C 290.13314,87.35316 290.35252,87.75455 290.4175,99.57572 l 0.0656,11.94513 h 31.46715 c 17.58783,0 33.23955,1.0333 35.48552,2.34271 8.46861,4.93717 10.32763,13.75112 10.32763,48.96522 v 33.33182 l -7.10144,7.73589 -7.10143,7.7359 h -31.53869 -31.53871 v 10.23868 c 0,7.20499 -1.23772,11.58698 -4.1773,14.78919 -3.98082,4.33648 -6.96218,4.55053 -63.38029,4.55053 -54.7023,0 -59.46575,-0.31631 -62.65967,-4.16086 z m 118.55883,-4.04599 c 2.30758,-0.9646 3.30381,-4.34674 3.30381,-11.21615 v -9.83508 l -32.33247,-0.72898 c -32.15561,-0.72498 -32.36412,-0.76345 -38.11797,-7.03136 -5.75484,-6.26901 -5.78904,-6.48933 -6.45556,-41.58994 l -0.67009,-35.28754 7.24934,-7.89702 7.24934,-7.89702 h 31.53872 31.53869 v -7.96341 -7.963423 h -16.62787 c -23.1334,0 -25.14525,-2.491873 -25.14525,-31.145074 V 43.262982 h -37.37232 c -32.15193,0 -37.54944,0.502736 -38.64014,3.598981 -0.69729,1.979444 -1.26779,43.753257 -1.26779,92.830697 0,66.36876 0.64218,89.93127 2.50638,91.96203 1.81948,1.98202 17.22827,2.73032 56.22288,2.73032 29.54407,0 55.2032,-0.62148 57.0203,-1.38107 z m 77.64952,-35.25472 c 3.37188,-4.05257 4.08515,-9.11726 4.67545,-33.19905 0.76992,-31.40923 -1.23114,-40.68946 -9.51335,-44.11968 -2.76729,-1.14611 -32.57039,-2.08386 -66.22913,-2.08386 -78.25901,0 -72.20432,-3.5435 -72.20432,42.25749 0,29.79247 0.38605,33.2467 4.17732,37.3767 3.99963,4.35695 6.96218,4.55051 69.64624,4.55051 63.8713,0 65.56603,-0.11672 69.44779,-4.78211 z M 234.08947,183.93327 c 0,-2.72057 5.63937,-12.43136 12.53193,-21.57955 6.89256,-9.14819 12.53193,-17.6729 12.53193,-18.94378 0,-1.30732 -5.44164,-2.31068 -12.53193,-2.31068 -9.74706,0 -12.53193,-0.75843 -12.53193,-3.41289 0,-2.76601 3.36505,-3.41289 17.75358,-3.41289 22.28881,0 22.49947,1.34346 4.10284,26.1655 l -13.49032,18.20209 13.57053,0.67278 c 11.86165,0.58805 13.57052,1.23271 13.57052,5.11934 0,4.06316 -1.53079,4.44656 -17.75357,4.44656 -16.83487,0 -17.75358,-0.25597 -17.75358,-4.94648 z m 41.77311,0.39597 c 0,-2.52809 1.39244,-4.55053 3.13299,-4.55053 2.53916,0 3.13298,-3.66571 3.13298,-19.33973 0,-15.67403 -0.59382,-19.33972 -3.13298,-19.33972 -1.72314,0 -3.13299,-1.5358 -3.13299,-3.41289 0,-2.57863 2.55281,-3.41289 10.44329,-3.41289 7.89048,0 10.44327,0.83426 10.44327,3.41289 0,1.87709 -1.40985,3.41289 -3.13299,3.41289 -2.53916,0 -3.13298,3.66569 -3.13298,19.33972 0,15.67402 0.59382,19.33973 3.13298,19.33973 1.74055,0 3.13299,2.02244 3.13299,4.55053 0,3.94378 -1.39244,4.55051 -10.44327,4.55051 -9.05085,0 -10.44329,-0.60673 -10.44329,-4.55051 z m 29.24119,-22.75262 v -27.30314 h 12.62686 c 10.75024,0 13.41857,0.8624 17.95363,5.80265 4.14503,4.51536 5.02019,7.16533 3.94492,11.94512 -2.09808,9.32642 -6.0438,12.35949 -17.66022,13.5754 l -10.59922,1.10945 v 11.08682 c 0,8.33812 -0.77677,11.08683 -3.13299,11.08683 -2.61082,0 -3.13298,-4.55051 -3.13298,-27.30313 z m 25.89549,-9.80312 c 3.08951,-5.52423 -3.6755,-11.1286 -12.31924,-10.20566 -5.41544,0.57823 -6.35609,1.69156 -6.92992,8.20201 l -0.66399,7.53298 8.80587,-0.70719 c 5.74586,-0.46144 9.60561,-2.13712 11.10728,-4.82214 z M 277.68481,84.800879 c -1.5766,-2.182051 -8.7409,-11.39176 -15.92065,-20.466012 L 248.71007,47.836225 v 17.73568 c 0,10.76075 0.98569,18.809444 2.50638,20.466011 1.42908,1.55674 8.27221,2.730315 15.92065,2.730315 12.46056,0 13.21047,-0.282076 10.54771,-3.967352 z"
     id="path74"
     inkscape:connector-curvature="0" />
</svg>
