<?xml version="1.0" encoding="UTF-8" standalone="no"?>
<!-- Created with Inkscape (http://www.inkscape.org/) -->

<svg
   version="1.1"
   id="svg870"
   width="512"
   height="512"
   viewBox="0 0 512 512"
   sodipodi:docname="donut.svg"
   inkscape:version="1.1.2 (0a00cf5339, 2022-02-04)"
   xmlns:inkscape="http://www.inkscape.org/namespaces/inkscape"
   xmlns:sodipodi="http://sodipodi.sourceforge.net/DTD/sodipodi-0.dtd"
   xmlns="http://www.w3.org/2000/svg"
   xmlns:svg="http://www.w3.org/2000/svg">
  <defs
     id="defs874" />
  <sodipodi:namedview
     id="namedview872"
     pagecolor="#505050"
     bordercolor="#eeeeee"
     borderopacity="1"
     inkscape:pageshadow="0"
     inkscape:pageopacity="0"
     inkscape:pagecheckerboard="0"
     showgrid="false"
     inkscape:zoom="0.65478514"
     inkscape:cx="274.89934"
     inkscape:cy="271.08129"
     inkscape:window-width="1366"
     inkscape:window-height="695"
     inkscape:window-x="0"
     inkscape:window-y="24"
     inkscape:window-maximized="1"
     inkscape:current-layer="g876" />
  <g
     inkscape:groupmode="layer"
     inkscape:label="Image"
     id="g876">
    <g
       id="g1209"
       transform="matrix(0.96133432,0,0,0.95495646,9.9048695,11.524091)">
      <path
         id="path1010-6"
         style="fill:#ffffff;stroke-width:1.0386"
         d="m 243.55859,-1.5292969 c -2.38271,0.051502 -4.70222,0.71885594 -6.93398,1.47656253 -1.97401,-0.09529766 -3.95271,-0.12760642 -5.91563,0.14453124 C 201.27796,3.4925413 172.2564,11.236738 145.43366,23.901914 c -19.97167,9.426081 -38.62822,21.592793 -55.459051,35.881289 -3.2454,1.540305 -5.981481,3.998705 -8.289254,6.715093 -0.254524,0.479545 -0.55952,0.887215 -1.09527,1.059308 -3.625175,1.965813 -6.271648,5.217247 -9.193601,8.042005 -1.976003,2.03491 -3.732232,4.307399 -5.0428,6.823144 C 39.400961,111.53218 19.157131,146.92117 8.2775548,185.10275 4.5999973,197.91786 2.0102278,211.04021 0.4375,224.27734 c -1.9067085,3.70782 -2.1709059,8.1262 -1.12109375,12.12696 -0.20176237,1.99491 0.0363648,4.06275 -0.68191525,5.97521 -0.9397242,3.68963 -0.537034,7.52809 -0.6587735,11.29197 -0.017179,1.98843 0.1402918,3.97996 0.2511348,5.9579 -0.7504349,3.74773 -0.5534623,7.69393 0.6640013,11.31809 0.14082949,2.09437 0.31722373,4.20585 -0.00775,6.29148 -0.1934853,2.81215 0.12963418,5.68487 1.13838338,8.32746 -0.42098784,2.98826 -0.13858948,6.07386 0.7881916,8.93387 -0.11913893,2.23781 0.27949572,4.48846 1.00868342,6.59152 -0.069707,2.20022 0.4687655,4.35979 1.0683564,6.45344 0.1228876,2.87434 1.1060291,5.668 2.5959924,8.10464 7.9338602,33.2098 22.5901062,64.78922 42.7868232,92.31692 1.063265,3.2244 3.39628,5.78768 5.649265,8.23409 1.269395,2.22657 3.126216,4.02788 4.871832,5.86591 1.597872,2.40646 3.613417,4.50289 5.608576,6.57588 1.394407,1.1946 2.964818,2.20261 4.109854,3.66249 4.398525,4.73879 9.170213,9.11357 13.742878,13.67585 2.280464,2.80449 4.725468,5.64461 8.005876,7.29437 1.934207,2.37246 4.329868,4.42676 7.181876,5.60436 1.232548,0.42382 2.116899,1.46305 3.187259,2.17494 28.36256,21.40024 61.17698,36.93785 95.80627,44.96358 1.99799,0.52218 4.08007,0.79928 6.02278,1.4822 2.60514,1.56591 5.68275,2.16875 8.68658,2.19875 2.26644,0.85876 4.73195,1.03893 7.125,0.98047 2.64752,1.02816 5.54274,1.15778 8.343,0.9584 3.70318,0.59453 7.46109,1.03101 11.2142,0.77175 1.16462,0.0163 2.32681,0.11288 3.4269,0.51588 3.74973,0.89863 7.63887,0.57939 11.45548,0.52413 1.14252,-0.0495 2.27941,-0.31034 3.39596,-0.45786 3.72418,0.83695 7.57014,0.51021 11.35089,0.4499 1.90755,-0.10824 3.7672,-0.62166 5.57363,-1.18654 1.38905,0.006 2.73875,0.46779 4.13774,0.42469 2.53132,0.10982 5.04783,-0.3925 7.44511,-1.15465 0.89564,-0.14642 1.80978,-0.24618 2.69098,0.0266 3.76743,0.59332 7.71473,-0.16681 11.0157,-2.05013 23.26057,-4.0613 46.01244,-11.11089 67.43673,-21.04596 20.15563,-9.39725 38.99471,-21.56227 56.01563,-35.86213 3.71845,-1.55663 6.59244,-4.54165 9.0332,-7.65625 3.9226,-2.03989 6.85925,-5.45144 9.92435,-8.54927 1.58946,-1.64231 3.0032,-3.46801 4.2319,-5.38042 1.98883,-1.52448 3.49816,-3.56167 5.39412,-5.18829 2.09264,-2.09732 3.7911,-4.58561 5.00001,-7.28303 16.88196,-20.4868 30.44755,-43.68457 40.17983,-68.37743 6.6099,-16.77511 11.40711,-34.25585 14.41628,-52.03015 1.9588,-3.25642 2.57836,-7.24091 1.91016,-10.96485 1.44398,-3.131 1.32404,-6.65786 1.28872,-10.02154 -0.0398,-1.07125 -0.35089,-2.14434 -0.3122,-3.20414 1.69051,-4.15776 1.63676,-8.79556 0.78104,-13.1393 -0.0318,-3.0192 0.29339,-6.15251 0.089,-9.23388 0.0235,-0.93957 -0.3642,-1.89358 0.0405,-2.78005 0.8082,-3.55939 0.51694,-7.36167 -0.84017,-10.74413 0.33251,-1.75068 0.31902,-3.54837 0.0625,-5.30469 0.24087,-1.96809 0.29679,-3.97498 -0.12853,-5.9248 -0.15482,-1.02401 -0.56303,-2.00959 -0.74842,-3.01075 0.22378,-3.16408 -0.52915,-6.34965 -2.02149,-9.13867 -0.37792,-1.6633 -0.58698,-3.38055 -0.93459,-5.0587 -4.57376,-24.45201 -12.50614,-48.31336 -23.94356,-70.42372 -8.01841,-15.64093 -17.65312,-30.45195 -28.69021,-44.130862 -1.07093,-3.567847 -3.59796,-6.501903 -6.46403,-8.780833 -0.90845,-1.342809 -2.25158,-2.31491 -3.293,-3.525853 -2.08421,-3.586373 -5.4395,-6.122396 -8.28598,-9.047014 -3.16334,-3.030941 -6.33607,-6.052038 -9.51167,-9.070128 -0.58927,0.09652 -0.8923,-0.583415 -1.39486,-0.81133 -2.39877,-1.873155 -5.07349,-3.386249 -7.29912,-5.479889 C 385.99289,29.898005 344.18965,10.668793 300.31989,3.0800134 299.26308,2.8761913 298.12976,2.8881077 297.225,2.2259907 c -2.70042,-1.39418429 -5.8031,-1.79332234 -8.80312,-1.69669382 -2.64612,-1.09239734 -5.58508,-1.15733315 -8.38792,-0.84716589 -1.68151,-0.26128978 -3.39806,-0.18245727 -5.07888,0.0444315 -3.44941,-1.40643069 -7.32725,-1.58218599 -10.94922,-0.80273439 -3.96802,-0.6241102 -8.00337,-0.4537632 -12.00391,-0.3964843 -1.39383,0.028368 -2.79308,0.2906227 -4.17578,0.2636718 -1.40457,-0.2661942 -2.83916,-0.3669238 -4.26758,-0.3203125 z M 415.22852,72.835938 c -0.1659,0.141954 -0.58904,-0.160008 -0.22657,-0.283204 0.13577,-0.119611 0.15151,0.2282 0.22657,0.283204 z m -160.4336,97.308592 c 2.91878,0.006 6.01379,0.0415 8.82031,0.1582 4.75122,0.22704 9.54715,0.57236 14.1236,1.96128 2.60586,0.74123 5.34187,1.67879 7.77484,2.58365 17.89968,6.81487 33.6239,19.3757 43.90299,35.57076 5.45226,8.5895 9.4698,18.13329 11.52865,28.10502 -0.12034,1.99946 -0.23132,4.02974 0.20487,6.00519 0.20796,1.25594 0.71234,2.44647 1.06726,3.64937 0.27582,3.3319 -0.2666,6.66234 -0.0438,9.99654 0.0679,2.46337 0.3771,4.93306 0.008,7.38696 -0.36004,3.32235 -0.83232,6.64586 -1.04752,9.97429 -2.67871,6.47407 -4.45017,13.33179 -7.82205,19.51002 -2.2573,4.43805 -4.80872,8.75625 -7.89715,12.66819 -1.97975,1.75461 -3.92661,3.66492 -5.02779,6.11412 -0.6965,0.85008 -1.68502,1.4263 -2.4285,2.24528 -1.48071,1.35614 -2.67095,2.99173 -4.10275,4.38949 -1.13657,0.8604 -2.47182,1.43184 -3.51929,2.42081 -1.80642,1.53916 -3.43291,3.31281 -5.49886,4.52093 -9.3138,6.28227 -19.76586,10.93985 -30.73966,13.3981 -1.77645,0.0342 -3.58911,-0.13757 -5.3128,0.41384 -1.23242,0.35104 -2.49555,0.53291 -3.77682,0.52023 -4.56821,0.26484 -9.14943,0.46101 -13.72183,0.18578 -1.80613,-0.0835 -3.62895,0.0157 -5.42605,-0.11539 -2.50593,-1.01172 -5.25526,-1.09508 -7.91875,-0.90875 -8.17874,-1.85894 -16.03857,-5.00116 -23.42957,-8.94185 -3.60062,-1.97149 -7.1297,-4.13479 -10.31982,-6.72016 -1.7658,-1.94031 -4.04157,-3.29737 -6.11119,-4.86369 -1.80729,-1.95187 -3.70223,-3.81968 -5.7199,-5.55353 -1.01374,-0.81151 -1.25071,-2.15746 -2.07347,-3.12411 -1.14507,-1.65935 -2.73442,-2.93322 -4.10853,-4.37763 -6.35559,-8.44484 -10.72424,-18.20941 -13.94931,-28.2279 -0.54973,-1.60943 -1.28484,-3.17322 -1.73223,-4.8067 0.14366,-3.97494 -1.01627,-7.87558 -0.87998,-11.84396 0.68217,-4.33698 0.30814,-8.73786 0.1068,-13.09416 0.29681,-6.18629 1.22608,-12.36742 3.14492,-18.26904 5.88266,-18.72421 18.3343,-35.23201 34.52805,-46.27878 7.96315,-5.38435 16.73958,-9.61734 25.98578,-12.27509 3.54545,-1.01321 7.17133,-1.78994 10.86313,-1.97301 3.51195,-0.25456 7.02799,-0.37641 10.54883,-0.4043 z M 66.707031,410.38281 c 0.392404,0.0659 -0.05972,0.80063 -0.30664,0.35938 -0.24364,-0.16135 0.126722,-0.43469 0.30664,-0.35938 z" />
      <g
         id="g996"
         transform="matrix(0.77990781,0,0,0.7780042,-10.247254,-9.450059)">
        <path
           style="fill:#84cde1;stroke-width:1.33333"
           d="m 490.76346,293.8202 c -1.5199,-1.93223 -2.76344,-4.75468 -2.76344,-6.27211 0,-1.74659 5.83366,-8.59263 15.89802,-18.65699 14.63654,-14.63653 16.19707,-15.82466 19.66667,-14.97349 4.74464,1.16399 6.68407,3.09388 7.83813,7.79964 0.83298,3.39647 -0.44772,5.09357 -14.84132,19.66667 -17.38752,17.60436 -20.53816,19.12316 -25.79806,12.43628 z M 177.33334,268.57481 c -21.84125,-7.01148 -24.80215,-8.34843 -26.4374,-11.9374 -1.97632,-4.33755 0.005,-9.52709 4.40205,-11.53057 2.83658,-1.29243 6.25695,-0.62408 22.26055,4.34972 10.39996,3.23224 20.10381,6.83329 21.56413,8.00234 3.75396,3.00524 3.54843,10.23331 -0.38149,13.41555 -3.89275,3.15216 -4.6928,3.06621 -21.40784,-2.29964 z m 182.66667,-100.5748 c -3.43282,-3.43283 -3.42205,-9.56975 0.0223,-12.68683 2.6672,-2.41379 29.03224,-7.19883 40.1044,-7.27863 7.28792,-0.0525 11.0564,5.59364 8.38312,12.56011 -1.35699,3.53625 -4.80487,4.6076 -23.82311,7.4024 -22.2136,3.26439 -21.42533,3.26429 -24.68668,0.003 z M 206.66667,134.68224 c -17.14397,-13.25591 -19.40454,-16.59623 -15.1265,-22.35159 5.10837,-6.87242 8.6657,-5.79835 26.45984,7.98902 14.1266,10.94567 16.05001,12.91627 16.4271,16.83016 0.55164,5.72537 -2.79653,9.53828 -8.30042,9.45259 -3.10118,-0.0483 -7.9371,-3.01052 -19.46002,-11.92018 z m 270.88805,-9.19504 c -12.85098,-0.69777 -15.39444,-1.20776 -17,-3.4087 -2.46272,-3.37595 -2.39432,-7.429 0.18756,-11.11515 C 462.74,108.11122 463.61795,108 484.13623,108 c 21.07395,0 21.35731,0.039 24.71876,3.40043 2.64607,2.64606 3.20475,4.19898 2.51832,7 -1.92261,7.84548 -5.61084,8.61836 -33.81859,7.08677 z"
           id="path1010" />
        <path
           style="fill:#f0cd59;stroke-width:1.33333"
           d="m 327.66668,653.70216 c 2.38333,-0.29576 6.28333,-0.29576 8.66666,0 2.38334,0.29577 0.43334,0.53777 -4.33333,0.53777 -4.76667,0 -6.71667,-0.242 -4.33333,-0.53777 z m 18.66667,0 c 2.38333,-0.29576 6.28333,-0.29576 8.66666,0 2.38334,0.29577 0.43334,0.53777 -4.33333,0.53777 -4.76667,0 -6.71667,-0.242 -4.33333,-0.53777 z m -46.58334,-2.61295 c 0.96249,-0.38516 2.11249,-0.3378 2.55556,0.1052 0.44305,0.44305 -0.34445,0.75819 -1.75,0.70029 -1.55327,-0.064 -1.8692,-0.37992 -0.80556,-0.80554 z m 84,0 c 0.9625,-0.38516 2.11251,-0.3378 2.55556,0.1052 0.44306,0.44305 -0.34445,0.75819 -1.75,0.70029 -1.55326,-0.064 -1.8692,-0.37992 -0.80556,-0.80554 z m -93.33333,-1.33333 c 0.96249,-0.38516 2.11249,-0.3378 2.55556,0.1052 0.44305,0.44305 -0.34446,0.75818 -1.75,0.70029 -1.55327,-0.064 -1.8692,-0.37992 -0.80556,-0.80555 z m -8,-1.33334 c 0.96249,-0.38516 2.11249,-0.3378 2.55556,0.1052 0.44305,0.44306 -0.34446,0.75819 -1.75,0.7003 -1.55327,-0.064 -1.8692,-0.37992 -0.80556,-0.80555 z M 142.49659,583.00002 c -1.65849,-2.11475 -1.61133,-2.16191 0.50341,-0.50341 1.28334,1.00646 2.33334,2.05646 2.33334,2.33333 0,1.09739 -1.09492,0.39108 -2.83675,-1.82992 z m -8.62327,-7.33333 -2.53998,-3 3,2.53998 c 2.81925,2.38696 3.60698,3.46002 2.53998,3.46002 -0.25301,0 -1.60301,-1.35 -3,-3 z m 428.1267,-13 c 2.86432,-2.93334 5.50787,-5.33334 5.87453,-5.33334 0.36667,0 -1.67688,2.4 -4.5412,5.33334 -2.86432,2.93333 -5.50786,5.33333 -5.87453,5.33333 -0.36667,0 1.67688,-2.4 4.5412,-5.33333 z m -456.1267,-15 -2.53998,-3 3,2.53998 c 2.81926,2.38696 3.60699,3.46002 2.53998,3.46002 -0.25301,0 -1.60301,-1.35 -3,-3 z m 470.1267,-0.17008 c 0,-0.27687 1.05,-1.32687 2.33333,-2.33334 2.11475,-1.65849 2.16191,-1.61133 0.50342,0.50342 -1.74183,2.221 -2.83675,2.9273 -2.83675,1.82992 z M 98.496597,539.00002 c -1.658495,-2.11475 -1.611335,-2.16191 0.503406,-0.50341 1.283337,1.00646 2.333337,2.05646 2.333337,2.33333 0,1.09739 -1.09492,0.39108 -2.836743,-1.82992 z m -5.333334,-6.66667 c -1.658495,-2.11475 -1.611335,-2.16191 0.503407,-0.50341 1.283333,1.00646 2.333333,2.05646 2.333333,2.33333 0,1.09739 -1.094914,0.39108 -2.83674,-1.82992 z M 330.34889,469.72367 c 1.65855,-0.31892 4.05855,-0.30681 5.33333,0.0269 1.27479,0.33372 -0.0823,0.59467 -3.01554,0.57987 -2.93334,-0.0148 -3.97634,-0.28785 -2.31779,-0.60677 z m 17.33334,0 c 1.65854,-0.31892 4.05854,-0.30681 5.33333,0.0269 1.27479,0.33372 -0.0823,0.59467 -3.01555,0.57987 -2.93333,-0.0148 -3.97633,-0.28785 -2.31778,-0.60677 z m -27.93222,-1.30113 c 0.96249,-0.38516 2.11249,-0.3378 2.55556,0.1052 0.44305,0.44305 -0.34445,0.75818 -1.75,0.70029 -1.55327,-0.064 -1.8692,-0.37992 -0.80556,-0.80555 z m 41.33334,0 c 0.96249,-0.38516 2.1125,-0.3378 2.55556,0.1052 0.44305,0.44305 -0.34446,0.75818 -1.75,0.70029 -1.55327,-0.064 -1.8692,-0.37992 -0.80556,-0.80555 z M 259.82993,441.66668 c -1.65849,-2.11474 -1.61133,-2.1619 0.50341,-0.50341 1.28334,1.00647 2.33334,2.05647 2.33334,2.33333 0,1.09739 -1.09492,0.39108 -2.83675,-1.82992 z m 160.17008,1.82992 c 0,-0.27686 1.05,-1.32686 2.33334,-2.33333 2.11474,-1.65849 2.1619,-1.61133 0.50341,0.50341 -1.74183,2.221 -2.83675,2.92731 -2.83675,1.82992 z m -170.76759,-11.16325 -3.23241,-3.66667 3.66667,3.23241 c 3.42705,3.02119 4.27812,4.10092 3.23241,4.10092 -0.23883,0 -1.88883,-1.65 -3.66667,-3.66666 z m 182.76759,0.33333 c 1.72234,-1.83333 3.43151,-3.33333 3.79818,-3.33333 0.36666,0 -0.74251,1.5 -2.46484,3.33333 -1.72234,1.83333 -3.43151,3.33333 -3.79818,3.33333 -0.36666,0 0.74251,-1.5 2.46484,-3.33333 z m -192.17008,-11 c -1.6585,-2.11475 -1.61134,-2.16191 0.50341,-0.50341 2.221,1.74182 2.92731,2.83674 1.82992,2.83674 -0.27687,0 -1.32687,-1.05 -2.33333,-2.33333 z m 200.17009,1.82992 c 0,-0.27687 1.05,-1.32687 2.33333,-2.33333 2.11475,-1.6585 2.16191,-1.61134 0.50341,0.50341 -1.74182,2.221 -2.83674,2.92731 -2.83674,1.82992 z M 34.771931,405.88891 c 0.06397,-1.55327 0.379921,-1.8692 0.805556,-0.80556 0.385161,0.96249 0.337792,2.1125 -0.105267,2.55556 -0.443056,0.44305 -0.758188,-0.34446 -0.700293,-1.75 z m -1.333334,-6.66667 c 0.06397,-1.55327 0.379921,-1.8692 0.805556,-0.80556 0.385162,0.96249 0.337792,2.11251 -0.105266,2.55556 -0.443057,0.44305 -0.758189,-0.34445 -0.700294,-1.75 z m -1.333333,-8 c 0.06397,-1.55327 0.379921,-1.8692 0.805556,-0.80556 0.385161,0.96249 0.337792,2.11251 -0.105267,2.55556 -0.443056,0.44305 -0.758188,-0.34445 -0.700293,-1.75 z m 618.666696,-6.66667 c 0.064,-1.55326 0.37992,-1.8692 0.80554,-0.80556 0.38516,0.9625 0.3378,2.11251 -0.1052,2.55556 -0.44305,0.44306 -0.75818,-0.34445 -0.70029,-1.75 z M 30.877194,382.66668 c 0,-1.83333 0.302631,-2.58333 0.672515,-1.66667 0.369883,0.91667 0.369883,2.41667 0,3.33334 -0.369884,0.91666 -0.672515,0.16666 -0.672515,-1.66667 z M 652.10529,372.55557 c 0.064,-1.55326 0.37992,-1.8692 0.80555,-0.80556 0.38516,0.9625 0.3378,2.11251 -0.1052,2.55556 -0.44306,0.44306 -0.75819,-0.34445 -0.7003,-1.75 z M 29.593266,370.00001 c 0.02717,-2.2 0.325998,-2.93858 0.664056,-1.64129 0.338058,1.29729 0.315826,3.09729 -0.0494,4 -0.365236,0.90271 -0.641829,-0.15871 -0.614656,-2.35871 z m 624.076334,-16 c 0.0148,-2.93333 0.28785,-3.97633 0.60677,-2.31778 0.31892,1.65854 0.30681,4.05854 -0.0269,5.33333 -0.33372,1.27479 -0.59467,-0.0823 -0.57987,-3.01555 z M 28.259933,351.33335 c 0.02717,-2.2 0.325997,-2.93859 0.664056,-1.6413 0.338057,1.2973 0.315825,3.0973 -0.0494,4 -0.365236,0.90271 -0.641829,-0.1587 -0.614656,-2.3587 z m 67.04245,-29.94213 C 91.930327,320.03925 74.271,284.09984 74.898619,279.86645 c 0.239094,-1.61273 2.112214,-4.18011 4.162489,-5.70529 6.34107,-4.71707 9.5487,-1.66323 19.437397,18.50552 4.674175,9.53333 8.524175,19.0119 8.555555,21.06349 0.0912,5.96339 -6.03114,9.95461 -11.751677,7.66105 z M 592.66669,309.94484 c -21.08846,-4.89336 -23.32095,-5.73864 -24.69388,-9.34972 -1.64431,-4.32486 0.45142,-9.6488 4.38721,-11.14519 4.38327,-1.66651 42.28045,6.88691 44.60628,10.06767 4.13764,5.65857 -0.29041,13.95004 -7.29961,13.66842 -2.01667,-0.0811 -9.66667,-1.53956 -17,-3.24118 z M 263.54,188.22835 c -4.7357,-5.23288 -2.89775,-9.35857 11.07756,-24.86626 7.25532,-8.05086 14.43958,-15.19483 15.96502,-15.8755 6.25466,-2.79091 13.05242,4.3751 10.5208,11.09072 -1.09289,2.89912 -21.23593,26.2169 -26.28061,30.4227 -2.91975,2.43421 -8.74187,2.03602 -11.28277,-0.77166 z m 144.01245,-87.55009 c -5.78972,-3.019705 -29.33692,-19.453039 -31.2191,-21.787475 -3.96671,-4.919817 0.27438,-13.549213 6.66666,-13.564733 4.24602,-0.01027 36.49659,21.93822 37.41914,25.46606 0.99106,3.789845 -1.02159,8.72291 -4.26766,10.460158 -3.41685,1.82864 -4.07689,1.78458 -8.59904,-0.57401 z"
           id="path1008" />
        <path
           style="fill:#d86e88;stroke-width:1.33333"
           d="m 212.44829,341.33334 c 0,-5.5 0.23534,-7.75 0.52301,-5 0.28765,2.75 0.28765,7.25001 0,10.00001 -0.28767,2.75 -0.52301,0.5 -0.52301,-5.00001 z m 257.33334,0 c 0,-5.5 0.23535,-7.75 0.52301,-5 0.28766,2.75 0.28766,7.25001 0,10.00001 -0.28766,2.75 -0.52301,0.5 -0.52301,-5.00001 z M 28.480662,336.00001 c 0,-6.96667 0.224727,-9.81667 0.499391,-6.33333 0.274665,3.48333 0.274665,9.18333 0,12.66667 -0.274664,3.48333 -0.499391,0.63333 -0.499391,-6.33334 z m 625.063218,-9.33333 c 0,-1.83334 0.30264,-2.58334 0.67252,-1.66667 0.36988,0.91667 0.36988,2.41667 0,3.33333 -0.36988,0.91667 -0.67252,0.16667 -0.67252,-1.66666 z m -185.4386,-4.77778 c 0.064,-1.55326 0.37992,-1.8692 0.80555,-0.80556 0.38516,0.9625 0.3378,2.1125 -0.1052,2.55556 -0.44305,0.44306 -0.75819,-0.34445 -0.70029,-1.75 z m -438.666683,-12 c 0.06397,-1.55326 0.379921,-1.8692 0.805556,-0.80556 0.385161,0.9625 0.337792,2.1125 -0.105267,2.55556 -0.443056,0.44306 -0.758188,-0.34445 -0.700293,-1.75 z m 622.666693,-2.66666 c 0.064,-1.55327 0.37992,-1.8692 0.80555,-0.80556 0.38516,0.96249 0.3378,2.11249 -0.1052,2.55556 -0.44306,0.44305 -0.75819,-0.34446 -0.7003,-1.75 z m -1.33333,-9.33334 c 0.064,-1.55326 0.37992,-1.8692 0.80554,-0.80556 0.38516,0.9625 0.3378,2.1125 -0.1052,2.55556 -0.44305,0.44306 -0.75818,-0.34445 -0.70029,-1.75 z m -141.43861,-9.22222 c 3.98323,-4.03334 7.54224,-7.33334 7.90891,-7.33334 0.36666,0 -2.59235,3.3 -6.57558,7.33334 -3.98322,4.03333 -7.54224,7.33333 -7.9089,7.33333 -0.36667,0 2.59234,-3.3 6.57557,-7.33333 z m 47.33158,-74.65257 c -21.50314,-4.87265 -24.02759,-5.95997 -25.26271,-10.8811 -1.02112,-4.06846 2.60402,-10.15006 6.50747,-10.91702 4.23569,-0.83225 41.23794,8.26496 43.72237,10.74939 4.22967,4.22967 1.84035,13.14889 -3.92635,14.65692 -1.30673,0.34172 -10.77509,-1.28197 -21.04078,-3.60819 z m -220.33159,-1.65206 c 2.75,-0.28766 7.25001,-0.28766 10.00001,0 2.75,0.28766 0.5,0.52301 -5.00001,0.52301 -5.5,0 -7.75,-0.23535 -5,-0.52301 z M 463.362,210.69833 c -2.09386,-2.31368 -2.35812,-5.11832 -2.16704,-23 0.18547,-17.3561 0.57599,-20.85748 2.64316,-23.69832 3.60248,-4.95075 9.7372,-5.14139 13.45259,-0.41803 2.8286,3.59597 2.90001,4.43624 2.01756,23.73964 -1.04672,22.89704 -2.14025,26.01172 -9.13235,26.01172 -2.71821,0 -5.35048,-1.01792 -6.81392,-2.63501 z M 115.40043,206.18831 C 113.5302,204.31807 112,201.56354 112,200.0671 c 0,-2.79184 26.43511,-32.51461 30.20466,-33.96113 8.38053,-3.21591 15.94827,4.62672 11.88031,12.31184 -3.03623,5.73597 -27.71425,29.33344 -31.68454,30.29718 -2.79553,0.67859 -4.35912,0.11427 -7,-2.52668 z m 109.68291,-59.09912 c 0.96249,-0.38516 2.11249,-0.3378 2.55556,0.1052 0.44305,0.44307 -0.34445,0.75819 -1.75,0.7003 -1.55327,-0.064 -1.8692,-0.37992 -0.80556,-0.80555 z m 5.58333,-0.92593 c 0,-0.27687 1.05,-1.32687 2.33334,-2.33334 2.11474,-1.65849 2.1619,-1.61133 0.50341,0.50342 -1.74183,2.221 -2.83675,2.92731 -2.83675,1.82992 z m 4.10527,-8.27436 c 0.064,-1.55327 0.37992,-1.8692 0.80555,-0.80556 0.38516,0.96249 0.3378,2.11249 -0.1052,2.55556 -0.44307,0.44305 -0.75819,-0.34446 -0.7003,-1.75 z m 343.72467,-0.22223 c -1.6585,-2.11475 -1.61134,-2.16191 0.50341,-0.50341 2.221,1.74182 2.92731,2.83674 1.82992,2.83674 -0.27687,0 -1.32687,-1.05 -2.33333,-2.33333 z m -16.53832,-18 -7.95827,-8.33333 8.33333,7.95826 c 7.74096,7.39255 8.94347,8.7084 7.95827,8.7084 -0.20629,0 -3.95629,-3.75 -8.33333,-8.33333 z m -83.65467,6.03769 c 2.36697,-0.29455 6.56697,-0.29939 9.33333,-0.0108 2.76635,0.28863 0.82973,0.52963 -4.3036,0.53555 -5.13333,0.006 -7.39672,-0.23024 -5.02973,-0.52479 z M 119.33334,120 c 2.86432,-2.93333 5.50786,-5.33333 5.87453,-5.33333 0.36666,0 -1.67688,2.4 -4.5412,5.33333 -2.86432,2.93334 -5.50786,5.33334 -5.87453,5.33334 -0.36666,0 1.67687,-2.4 4.5412,-5.33334 z m 160.76344,-14.17981 c -1.51989,-1.93223 -2.71549,-4.48223 -2.65689,-5.66667 0.0585,-1.184431 2.90859,-10.553517 6.33333,-20.820184 6.84143,-20.509246 8.856,-23.036345 16.29654,-20.442561 6.84677,2.3868 6.93588,6.466111 0.58776,26.9106 -3.12896,10.076998 -6.74992,19.494095 -8.04659,20.926885 -3.40331,3.76062 -9.17096,3.3421 -12.51415,-0.90807 z m 187.65324,1.26899 c 0.96249,-0.38516 2.1125,-0.33779 2.55556,0.10527 0.44305,0.44306 -0.34446,0.75819 -1.75,0.7003 -1.55327,-0.064 -1.8692,-0.37993 -0.80556,-0.80556 z M 383.75001,31.089182 c 0.9625,-0.385161 2.11251,-0.337792 2.55556,0.105267 0.44306,0.443056 -0.34445,0.758188 -1.75,0.700293 -1.55326,-0.06397 -1.8692,-0.379921 -0.80556,-0.805556 z m -9.33333,-1.333333 c 0.96249,-0.385161 2.11251,-0.337792 2.55556,0.105267 0.44305,0.443056 -0.34445,0.758188 -1.75,0.700293 -1.55327,-0.06397 -1.8692,-0.379921 -0.80556,-0.805556 z m -50.05796,-1.346503 c 1.29729,-0.338057 3.09729,-0.315825 4,0.0494 0.9027,0.365231 -0.15871,0.641824 -2.35871,0.614651 -2.2,-0.02717 -2.93859,-0.325997 -1.64129,-0.664056 z m 30.66667,0 c 1.29729,-0.338057 3.09729,-0.315825 4,0.0494 0.9027,0.365231 -0.15871,0.641824 -2.35871,0.614651 -2.2,-0.02717 -2.93859,-0.325997 -1.64129,-0.664056 z"
           id="path1006" />
        <path
           style="fill:#d9a047;stroke-width:1.33333"
           d="M 292.8492,649.90437 C 256.72849,643.71009 227.2447,633.99962 197.33334,618.44629 110.1672,573.12154 49.971964,490.40023 33.41198,393.18276 c -3.436214,-20.17272 -4.968102,-43.14232 -2.960016,-44.38339 0.81758,-0.50529 4.050353,-0.23833 7.18394,0.59323 4.661232,1.23696 8.392814,4.27819 20.517715,16.72183 16.555374,16.99057 23.829101,21.47761 32.254212,19.89705 11.000169,-2.06365 19.998159,-9.68901 33.840429,-28.67813 4.00926,-5.5 9.48569,-11.92475 12.16982,-14.27723 11.82034,-10.35979 24.00166,-8.08914 38.30569,7.14035 4.00193,4.26085 9.80732,10.2815 12.90086,13.37922 6.7289,6.73799 14.02867,9.19763 21.32108,7.1841 2.6974,-0.74479 5.13159,-1.12692 5.40934,-0.84918 0.27774,0.27774 2.44181,6.13984 4.80905,13.02688 14.66743,42.67224 48.65016,73.34066 93.85283,84.69939 13.73031,3.45022 45.58207,3.04362 59.52766,-0.75989 44.18136,-12.05001 77.21231,-42.75027 91.32061,-84.87698 2.21035,-6.6 4.35359,-11.90128 4.76274,-11.78061 12.47592,3.67929 18.18818,1.02577 34.70541,-16.12176 11.84883,-12.30099 14.15073,-14.07906 20.675,-15.97002 13.35872,-3.87184 18.95698,-0.51572 35.33768,21.18473 6.33014,8.38586 13.54146,16.92117 16.02516,18.96734 l 4.51584,3.72032 -2.07582,12 c -8.62062,49.83411 -28.23388,94.88543 -59.49837,136.66667 -11.33981,15.15433 -36.20476,40.9701 -50.97949,52.92893 -41.71431,33.76404 -95.24624,58.20513 -144.43569,65.94505 -7.00781,1.10268 -10.12261,2.06776 -8.60669,2.66667 4.34469,1.71651 -1.9378,1.04173 -21.44177,-2.30296 z m 74.81748,2.54595 c 0.91667,-0.36988 2.41667,-0.36988 3.33333,0 0.91667,0.36988 0.16667,0.67252 -1.66666,0.67252 -1.83334,0 -2.58334,-0.30264 -1.66667,-0.67252 z m 181.00001,-77.78363 c 1.32732,-1.46667 2.7133,-2.66667 3.07997,-2.66667 0.36667,0 -0.41932,1.2 -1.74664,2.66667 -1.32732,1.46666 -2.71331,2.66666 -3.07997,2.66666 -0.36667,0 0.41932,-1.2 1.74664,-2.66666 z m 23.33333,-23.17008 c 0,-0.27687 1.05,-1.32687 2.33333,-2.33334 2.11475,-1.65849 2.16191,-1.61133 0.50342,0.50342 -1.74183,2.221 -2.83675,2.9273 -2.83675,1.82992 z m 80.10527,-182.94104 c 0.064,-1.55326 0.37992,-1.8692 0.80555,-0.80556 0.38516,0.9625 0.3378,2.11251 -0.1052,2.55556 -0.44306,0.44306 -0.75819,-0.34445 -0.7003,-1.75 z M 262.4966,188.33334 c -1.6585,-2.11475 -1.61134,-2.16191 0.50341,-0.50341 1.28333,1.00646 2.33333,2.05646 2.33333,2.33333 0,1.09739 -1.09492,0.39108 -2.83674,-1.82992 z m 14.83674,-2.17008 c 0,-0.27687 1.05,-1.32687 2.33334,-2.33333 2.11474,-1.6585 2.1619,-1.61134 0.50341,0.50341 -1.74183,2.221 -2.83675,2.92731 -2.83675,1.82992 z m -17.12281,-3.49659 c 0,-1.83333 0.30264,-2.58333 0.67252,-1.66666 0.36988,0.91666 0.36988,2.41666 0,3.33333 -0.36988,0.91667 -0.67252,0.16667 -0.67252,-1.66667 z m 5.78948,-10.66666 c 1.32732,-1.46667 2.71331,-2.66667 3.07997,-2.66667 0.36667,0 -0.41932,1.2 -1.74664,2.66667 -1.32732,1.46666 -2.7133,2.66666 -3.07997,2.66666 -0.36667,0 0.41932,-1.2 1.74664,-2.66666 z m 23.33333,0.82992 c 0,-0.27687 1.05,-1.32687 2.33334,-2.33334 2.11474,-1.65849 2.1619,-1.61133 0.50341,0.50342 -1.74183,2.221 -2.83675,2.9273 -2.83675,1.82992 z m -11.33333,-14.16326 c 1.32732,-1.46666 2.71331,-2.66666 3.07997,-2.66666 0.36667,0 -0.41932,1.2 -1.74664,2.66666 -1.32732,1.46667 -2.7133,2.66667 -3.07997,2.66667 -0.36667,0 0.41932,-1.2 1.74664,-2.66667 z"
           id="path1004" />
        <path
           style="fill:#c78334;stroke-width:1.33333"
           d="m 314.29097,652.20733 c -1.51592,-0.59891 1.59888,-1.56399 8.60669,-2.66667 59.25562,-9.32382 118.81302,-39.82716 164.24996,-84.12339 31.35654,-30.56933 54.50363,-64.34067 70.89479,-103.43467 9.84918,-23.49096 19.74813,-59.75503 20.95262,-76.75848 l 0.33832,-4.77589 4,2.43757 c 5.036,3.06891 15.35626,3.19449 21.5359,0.26207 2.53305,-1.20203 10.11229,-8.13872 16.84273,-15.41488 13.64644,-14.75294 17.8759,-17.8758 25.96112,-19.16868 l 5.54995,-0.88748 0.53427,-8.83841 c 0.29384,-4.86113 0.28909,-1.63841 -0.0107,7.16159 -1.19291,35.03215 -6.15727,63.50795 -16.50379,94.66667 -26.06719,78.50167 -83.1784,143.89802 -157.78154,180.67091 -31.61553,15.58374 -70.12305,26.7941 -105.07553,30.58974 -14.34154,1.55741 -56.36603,1.75321 -60.09493,0.28 z M 85.692046,385.74269 c 1.297289,-0.33805 3.097289,-0.31582 4,0.0495 0.902709,0.36524 -0.15871,0.64183 -2.35871,0.61465 -2.2,-0.0272 -2.938581,-0.326 -1.64129,-0.66405 z m -19.75478,-11.40934 -5.270597,-5.66667 5.666667,5.2706 c 3.116666,2.89883 5.666666,5.44883 5.666666,5.66667 0,1.00877 -1.161133,-6.6e-4 -6.062736,-5.2706 z m 505.312204,0 -3.91612,-4.33334 4.33334,3.91612 c 2.38333,2.15387 4.33333,4.10387 4.33333,4.33334 0,1.03008 -1.10017,0.1232 -4.75055,-3.91612 z m -368.91613,-3.21638 c 0.91667,-0.36988 2.41667,-0.36988 3.33333,0 0.91667,0.36988 0.16667,0.67252 -1.66666,0.67252 -1.83334,0 -2.58334,-0.30264 -1.66667,-0.67252 z m 274.02538,-0.0409 c 1.2973,-0.33805 3.0973,-0.31583 4,0.0495 0.90271,0.36524 -0.1587,0.64182 -2.3587,0.61465 -2.2,-0.0272 -2.93859,-0.326 -1.6413,-0.66405 z M 113.33334,370.1633 c 0,-0.27687 1.05,-1.32687 2.33333,-2.33334 2.11474,-1.65849 2.1619,-1.61133 0.50341,0.50342 -1.74183,2.221 -2.83674,2.9273 -2.83674,1.82992 z m 72.58279,-7.82992 -3.91612,-4.33334 4.33333,3.91612 c 2.38333,2.15387 4.33333,4.10387 4.33333,4.33334 0,1.03008 -1.10017,0.1232 -4.75054,-3.91612 z m -134.645531,-4 -5.270597,-5.66667 5.666666,5.2706 c 3.116667,2.89883 5.666667,5.44883 5.666667,5.66667 0,1.00877 -1.161133,-6.6e-4 -6.062736,-5.2706 z m 449.396081,-2.33334 c 1.32732,-1.46666 2.71331,-2.66666 3.07998,-2.66666 0.36666,0 -0.41932,1.2 -1.74664,2.66666 -1.32732,1.46667 -2.71331,2.66667 -3.07998,2.66667 -0.36666,0 0.41932,-1.2 1.74664,-2.66667 z m -324.76759,-5 -3.23242,-3.66666 3.66667,3.23241 c 3.42705,3.02119 4.27812,4.10092 3.23241,4.10092 -0.23882,0 -1.88882,-1.65 -3.66666,-3.66667 z m 375.93085,-1.33333 c -1.65849,-2.11475 -1.61133,-2.16191 0.50341,-0.50341 1.28334,1.00646 2.33334,2.05646 2.33334,2.33333 0,1.09739 -1.09492,0.39108 -2.83675,-1.82992 z m -418.4966,-5 c 1.72233,-1.83333 3.4315,-3.33334 3.79817,-3.33334 0.36667,0 -0.74251,1.50001 -2.46484,3.33334 -1.72233,1.83333 -3.4315,3.33333 -3.79817,3.33333 -0.36667,0 0.74251,-1.5 2.46484,-3.33333 z m 35.20665,-1 -2.53998,-3 3,2.53999 c 2.81925,2.38696 3.60698,3.46001 2.53998,3.46001 -0.25301,0 -1.60301,-1.35 -3,-3 z m -22.12332,-7.24415 c 0.9625,-0.38516 2.1125,-0.3378 2.55556,0.1052 0.44306,0.44305 -0.34445,0.75819 -1.75,0.70029 -1.55327,-0.064 -1.8692,-0.37992 -0.80556,-0.80554 z m 8,0 c 0.9625,-0.38516 2.1125,-0.3378 2.55556,0.1052 0.44306,0.44305 -0.34445,0.75819 -1.75,0.70029 -1.55326,-0.064 -1.8692,-0.37992 -0.80556,-0.80554 z m 372.00001,0 c 0.9625,-0.38516 2.11251,-0.3378 2.55556,0.1052 0.44306,0.44305 -0.34445,0.75819 -1.75,0.70029 -1.55326,-0.064 -1.8692,-0.37992 -0.80556,-0.80554 z m 82.66667,-22.66667 c 0.9625,-0.38516 2.11251,-0.3378 2.55556,0.1052 0.44306,0.44306 -0.34445,0.75819 -1.75,0.7003 -1.55326,-0.064 -1.8692,-0.37992 -0.80556,-0.80555 z M 73.438599,280.55557 c 0.06397,-1.55327 0.379921,-1.8692 0.805556,-0.80556 0.385161,0.96249 0.337792,2.11249 -0.105267,2.55556 -0.443056,0.44305 -0.758188,-0.34445 -0.700293,-1.75 z m 443.894751,0.36056 c 0,-0.22947 1.95,-2.17947 4.33333,-4.33333 l 4.33334,-3.91612 -3.91612,4.33333 c -3.65038,4.03928 -4.75055,4.9462 -4.75055,3.91612 z M 248.00001,251.4966 c 0,-0.27687 1.05,-1.32687 2.33333,-2.33334 2.11475,-1.65849 2.16191,-1.61133 0.50342,0.50342 -1.74183,2.221 -2.83675,2.9273 -2.83675,1.82992 z m 183.82992,-1.82992 c -1.65849,-2.11475 -1.61133,-2.16191 0.50342,-0.50342 2.221,1.74183 2.9273,2.83675 1.82992,2.83675 -0.27687,0 -1.32687,-1.05 -2.33334,-2.33333 z m 28.47942,-51.00001 c 0,-2.56666 0.2744,-3.61666 0.60977,-2.33333 0.33536,1.28333 0.33536,3.38333 0,4.66667 -0.33537,1.28333 -0.60977,0.23333 -0.60977,-2.33334 z M 121.33334,186.00001 c 3.98323,-4.03334 7.54224,-7.33334 7.9089,-7.33334 0.36667,0 -2.59234,3.3 -6.57557,7.33334 -3.98323,4.03333 -7.54224,7.33333 -7.90891,7.33333 -0.36666,0 2.59235,-3.3 6.57558,-7.33333 z m 357.64268,3.33333 c 0,-2.56667 0.2744,-3.61667 0.60977,-2.33333 0.33536,1.28333 0.33536,3.38333 0,4.66666 -0.33537,1.28334 -0.60977,0.23334 -0.60977,-2.33333 z m -195.64268,-9.33333 c 1.32732,-1.46667 2.71331,-2.66667 3.07998,-2.66667 0.36666,0 -0.41932,1.2 -1.74664,2.66667 -1.32732,1.46666 -2.71331,2.66666 -3.07998,2.66666 -0.36666,0 0.41932,-1.2 1.74664,-2.66666 z m 12,-13.33334 c 1.32732,-1.46666 2.71331,-2.66666 3.07998,-2.66666 0.36666,0 -0.41932,1.2 -1.74664,2.66666 -1.32732,1.46667 -2.71331,2.66667 -3.07998,2.66667 -0.36666,0 0.41932,-1.2 1.74664,-2.66667 z m -23.33333,-1.83674 c 0,-0.27687 1.05,-1.32687 2.33333,-2.33334 2.11475,-1.65849 2.16191,-1.61133 0.50342,0.50342 -1.74183,2.221 -2.83675,2.9273 -2.83675,1.82992 z m 12,-13.33334 c 0,-0.27686 1.05,-1.32686 2.33333,-2.33333 2.11475,-1.65849 2.16191,-1.61133 0.50342,0.50341 -1.74183,2.221 -2.83675,2.92731 -2.83675,1.82992 z m 184.33334,-25.74902 c 1.28333,-0.33537 3.38333,-0.33537 4.66667,0 1.28333,0.33537 0.23333,0.60976 -2.33334,0.60976 -2.56666,0 -3.61666,-0.27439 -2.33333,-0.60976 z M 132,108.82993 c 0,-0.27687 1.05,-1.32687 2.33334,-2.33333 2.11474,-1.6585 2.1619,-1.61134 0.50341,0.5034 C 133.09492,109.221 132,109.92731 132,108.82993 Z m 339.66668,-1.71297 c 0.91667,-0.36988 2.41667,-0.36988 3.33334,0 0.91666,0.36989 0.16666,0.67252 -1.66667,0.67252 -1.83333,0 -2.58333,-0.30263 -1.66667,-0.67252 z M 373.43861,73.888892 c 0.064,-1.553258 0.37992,-1.8692 0.80555,-0.805556 0.38516,0.9625 0.3378,2.1125 -0.1052,2.555556 -0.44305,0.443055 -0.75819,-0.344445 -0.70029,-1.75 z m 8.97807,-9.466375 c 0.96249,-0.385161 2.11251,-0.337792 2.55556,0.105267 0.44305,0.443056 -0.34445,0.758188 -1.75,0.700293 -1.55327,-0.06397 -1.8692,-0.379921 -0.80556,-0.805556 z M 335.00001,28.353282 c 3.48333,-0.274665 9.18334,-0.274665 12.66667,0 3.48333,0.274664 0.63333,0.499391 -6.33334,0.499391 -6.96666,0 -9.81666,-0.224727 -6.33333,-0.499391 z"
           id="path1002" />
        <path
           style="fill:#89481f;stroke-width:1.33333"
           d="M 77.135849,382.64559 C 74.460565,381.23215 66.710782,374.06388 59.914111,366.71612 47.348031,353.13115 39.891259,348.00001 32.7151,348.00001 h -3.776303 l 0.775004,-21.66667 C 32.462421,249.49062 64.691676,176.5723 120.63199,120.63199 172.2487,69.015277 235.01791,39.132861 310.66668,30.162545 c 3.3,-0.391308 4.93093,-0.273421 3.62429,0.261971 -1.55367,0.636613 1.4244,1.571382 8.60669,2.701512 38.95097,6.128903 83.3457,23.727135 117.80685,46.69906 16.94325,11.294434 33.85868,24.180012 33.92328,25.841582 0.0215,0.55 -1.98019,1 -4.44796,1 -9.83261,0 -15.399,10.73136 -8.71076,16.79335 2.37257,2.15043 5.33927,2.60782 19.34348,2.98228 l 16.54111,0.44229 7.44476,8.42731 c 10.19656,11.54229 24.4248,31.06943 32.56152,44.68811 l 6.77129,11.33333 -3.73228,0.44011 c -4.85129,0.57205 -9.73227,5.17917 -9.73227,9.18625 0,5.40357 5.08335,8.98337 15.56193,10.95903 6.51602,1.22854 9.76728,2.48426 10.2066,3.94205 0.35457,1.17657 3.10325,8.55467 6.10817,16.39576 5.25844,13.72144 12.16939,38.2685 14.09857,50.0768 0.84186,5.15291 0.6734,5.66667 -1.85806,5.66667 -3.96039,0 -8.1172,4.67377 -8.1172,9.12668 0,4.38523 3.66173,8.19824 9.76861,10.17224 l 4.23139,1.36775 1.09245,16 c 1.04091,15.24506 -0.57435,53.25968 -2.33796,55.02328 -1.32183,1.32183 -9.89437,-7.68329 -18.85101,-19.80225 -4.65247,-6.29511 -11.13018,-13.90782 -14.3949,-16.91714 -13.19741,-12.16495 -26.59233,-8.49355 -44.33532,12.15182 -10.4328,12.13936 -17.13908,16.07902 -25.9322,15.23412 -3.64817,-0.35054 -6.92675,-0.93107 -7.28573,-1.29006 -0.35899,-0.35898 0.0217,-5.3958 0.846,-11.1929 1.74334,-12.26063 0.7559,-33.43834 -2.1237,-45.5475 -11.34126,-47.6918 -49.02033,-85.20503 -97.69456,-97.26459 -12.39356,-3.07063 -44.23927,-3.07063 -56.63283,0 -48.67423,12.05956 -86.3533,49.57279 -97.69456,97.26459 -2.83171,11.90775 -3.86702,33.299 -2.1783,45.0073 1.67975,11.64608 0.64242,13.33333 -8.1974,13.33333 -8.17929,0 -13.43778,-3.39355 -25.16714,-16.24151 -16.86776,-18.4764 -27.6332,-22.41473 -39.93871,-14.61081 -3.95284,2.50681 -10.05164,9.16243 -17.79146,19.4158 -6.47727,8.5808 -13.67046,17.04577 -15.98487,18.81107 -9.825528,7.49429 -20.302516,9.16184 -28.928641,4.60436 z M 105.33334,320.00001 C 106.8,318.53334 108,315.86714 108,314.07512 c 0,-3.62858 -14.857339,-35.93584 -18.250088,-39.68479 -3.333273,-3.68323 -10.324987,-3.10823 -13.653136,1.12283 -1.519892,1.93222 -2.76344,4.14172 -2.76344,4.90997 0,2.67845 16.290954,36.26656 19.033958,39.24355 3.451301,3.74569 9.400726,3.89864 12.966046,0.33333 z m 411.66668,-38.0674 c 16.33057,-16.80949 17.56924,-19.48457 11.72726,-25.32653 -5.80482,-5.80484 -8.22592,-4.59894 -25.13153,12.51749 -12.03136,12.18141 -15.59573,16.6 -15.59573,19.33333 0,4.85266 4.36761,8.87208 9.66666,8.89603 3.78574,0.0171 6.2289,-1.93156 19.33334,-15.42032 z M 199.90323,269.8202 c 6.70811,-8.52796 2.02878,-13.11078 -20.72445,-20.29696 -20.6764,-6.53026 -23.36921,-6.73013 -27.082,-2.01008 -6.65976,8.4665 -2.66092,12.43093 19.90323,19.7319 21.6721,7.01234 24.22742,7.24816 27.90322,2.57514 z m 276.41288,-58.97933 c 1.92917,-1.84397 2.46379,-5.79657 3.20023,-23.66044 0.85602,-20.76508 0.79301,-21.53776 -1.98276,-24.31353 -3.75051,-3.75051 -9.65331,-3.69067 -13.12888,0.13307 -2.41304,2.65478 -2.80851,5.3014 -3.43672,23 -0.39044,11 -0.28731,21.11502 0.2292,22.47782 1.2584,3.32027 6.83538,6.2498 10.13617,5.32443 1.46667,-0.41119 3.70891,-1.74381 4.98276,-2.96139 z m -336.044,-17.23542 c 9.94715,-9.94714 15.7279,-16.74194 15.7279,-18.48686 0,-4.73974 -5.02262,-9.78525 -9.74087,-9.78525 -3.60202,0 -6.39558,2.20191 -19.23656,15.16247 C 114.46716,193.16814 112,196.32735 112,199.73237 c 0,4.57597 5.12146,9.60097 9.78526,9.60097 1.74491,0 8.53971,-5.78075 18.48685,-15.72789 z m 132.37275,-2.44824 c 1.20796,-0.46354 8.45703,-7.75384 16.10906,-16.20068 14.96142,-16.51548 16.60624,-20.26304 11.24609,-25.62319 -3.00684,-3.00684 -9.10071,-3.50391 -12.25971,-1 -1.15649,0.91667 -7.87117,8.11965 -14.9215,16.00663 -14.32612,16.02617 -15.74763,19.82933 -9.30564,24.8966 3.703,2.91278 5.53958,3.29906 9.1317,1.92064 z m 114.4815,-23.09554 c 19.57823,-2.90788 22.5726,-4.5268 21.93833,-11.86106 -0.26546,-3.06971 -1.50806,-5.41458 -3.73134,-7.04135 -3.2405,-2.37105 -3.90012,-2.35437 -23.68354,0.59871 -13.96313,2.08429 -21.04237,3.72985 -22.55556,5.24304 -2.92108,2.92106 -2.80548,9.63478 0.22352,12.98178 3.00322,3.31852 5.94062,3.32686 27.80859,0.0789 z M 233.66667,143.79543 c 5.15715,-6.09469 2.81906,-9.54945 -16.54682,-24.44941 -15.8552,-12.19888 -20.12502,-13.67418 -25.11984,-8.67935 -2.70834,2.70833 -3.3301,6.05305 -1.84475,9.92378 0.75751,1.97405 25.38756,21.93622 31.74332,25.72734 3.55195,2.1187 8.79121,0.99571 11.76809,-2.52236 z m 58.7553,-36.12876 c 1.28971,-0.94903 4.86929,-10.147663 8.31331,-21.363123 5.38916,-17.549795 5.86033,-20.082098 4.32321,-23.234878 -2.51868,-5.166019 -8.39697,-6.749887 -12.81347,-3.452502 -2.71401,2.026304 -4.71908,6.530203 -9.12208,20.490505 -3.1039,9.841332 -5.67634,19.243331 -5.71653,20.893328 -0.15944,6.54631 9.40704,10.79368 15.01556,6.66667 z M 418.66668,100 c 4.53205,-4.532046 3.47437,-9.837933 -3,-15.049732 -6.06092,-4.878973 -23.63321,-16.795728 -28.78764,-19.522519 -6.94392,-3.67347 -15.55092,4.819097 -12.18205,12.020094 0.82822,1.770354 8.78174,8.168827 17.67448,14.218827 17.2401,11.72898 21.53762,13.09092 26.29521,8.33333 z m 201.33334,268.66668 c 1.72233,-1.83333 3.43151,-3.33333 3.79817,-3.33333 0.36667,0 -0.7425,1.5 -2.46484,3.33333 -1.72233,1.83333 -3.4315,3.33333 -3.79817,3.33333 -0.36667,0 0.74251,-1.5 2.46484,-3.33333 z m 32.10527,-54.77778 c 0.064,-1.55326 0.37992,-1.8692 0.80555,-0.80556 0.38516,0.9625 0.3378,2.1125 -0.1052,2.55556 -0.44306,0.44306 -0.75819,-0.34445 -0.7003,-1.75 z m -1.33333,-12 c 0.064,-1.55326 0.37992,-1.8692 0.80554,-0.80556 0.38516,0.9625 0.3378,2.1125 -0.1052,2.55556 -0.44305,0.44306 -0.75818,-0.34445 -0.70029,-1.75 z m -70.77194,-85.05897 c 0,-0.27687 1.05,-1.32687 2.33333,-2.33334 2.11475,-1.65849 2.16191,-1.61133 0.50342,0.50342 -1.74183,2.221 -2.83675,2.9273 -2.83675,1.82992 z m 4.10527,-8.27436 c 0.064,-1.55327 0.37992,-1.8692 0.80554,-0.80556 0.38516,0.96249 0.3378,2.11249 -0.1052,2.55556 -0.44305,0.44305 -0.75818,-0.34446 -0.70029,-1.75 z m -27.02194,-13.46638 c 0.9625,-0.38516 2.11251,-0.3378 2.55556,0.1052 0.44306,0.44306 -0.34445,0.75819 -1.75,0.7003 -1.55326,-0.064 -1.8692,-0.37992 -0.80556,-0.80555 z m 16.07992,-62.75585 c -1.65849,-2.11474 -1.61133,-2.1619 0.50342,-0.50341 1.28333,1.00646 2.33333,2.05646 2.33333,2.33333 0,1.09738 -1.09492,0.39108 -2.83675,-1.82992 z m -24,-24 c -1.65849,-2.11474 -1.61133,-2.1619 0.50342,-0.50341 1.28333,1.00646 2.33333,2.05646 2.33333,2.33333 0,1.09738 -1.09492,0.39107 -2.83675,-1.82992 z m -66.82992,-1.31633 c 3.85,-0.26933 10.15,-0.26933 14,0 3.85,0.26934 0.7,0.48971 -7,0.48971 -7.7,0 -10.85,-0.22037 -7,-0.48971 z M 379.75001,31.089182 c 0.9625,-0.385161 2.11251,-0.337792 2.55556,0.105267 0.44306,0.443056 -0.34445,0.758188 -1.75,0.700293 -1.55326,-0.06397 -1.8692,-0.379921 -0.80556,-0.805556 z m -12,-1.333333 c 0.9625,-0.385161 2.11251,-0.337792 2.55556,0.105267 0.44306,0.443056 -0.34445,0.758188 -1.75,0.700293 -1.55326,-0.06397 -1.8692,-0.379921 -0.80556,-0.805556 z"
           id="path1000" />
        <path
           style="fill:#6f3c17;stroke-width:1.33333"
           d="m 584.87065,383.07044 -5.12936,-2.12551 0.76425,-6.80578 c 1.68455,-15.00111 2.21796,-38.2423 1.18959,-51.83171 -0.73098,-9.65956 -0.64071,-14.19688 0.2758,-13.8632 0.74933,0.27281 7.51446,1.87985 15.03362,3.57118 10.98515,2.47098 14.32908,2.77542 17.01964,1.54951 7.11086,-3.23992 7.68602,-13.28364 0.95651,-16.70305 -2.00604,-1.01932 -11.23532,-3.53132 -20.50949,-5.58223 l -16.86216,-3.72893 -2.26748,-11.44203 c -2.81872,-14.22363 -9.86843,-37.6038 -15.27312,-50.6529 -2.25011,-5.43265 -3.936,-10.03036 -3.74643,-10.2171 0.18956,-0.18676 4.92972,0.61969 10.53368,1.79212 9.38316,1.96309 10.45109,1.95996 13.50291,-0.0396 4.66912,-3.05934 5.7904,-8.58415 2.61674,-12.89331 -2.09062,-2.83863 -5.66793,-4.23708 -20.71466,-8.09784 l -18.18766,-4.66667 -6.59801,-11.03785 C 528.7887,165.76418 517.43876,150.04482 506.31114,137.1344 l -9.02222,-10.46773 h 4.45646 c 7.72386,0 12.55157,-7.88345 8.94945,-14.61408 -2.02656,-3.78664 -8.64315,-5.38592 -22.28287,-5.38592 -10.94064,0 -12.89556,-0.35694 -15.46769,-2.82415 C 467.48464,98.605617 446.0862,82.929816 434.00001,75.313235 402.13785,55.234057 358.78741,38.773252 322.89766,33.126028 c -15.54004,-2.445212 -10.45065,-3.587851 16.4755,-3.69898 37.32956,-0.154066 69.44889,5.029996 103.56354,16.715164 90.8061,31.103493 162.53984,102.943848 193.73782,194.025808 10.36844,30.27048 16.65884,65.8124 16.65884,94.12551 v 13.70648 h -4.04283 c -6.916,0 -12.28767,3.28832 -21.95718,13.44128 -15.90769,16.70306 -18.76961,19.32071 -23.66153,21.64208 -5.84973,2.77588 -12.0814,2.77159 -18.80117,-0.0133 z"
           id="path998" />
      </g>
    </g>
  </g>
</svg>
