<?xml version="1.0" encoding="UTF-8" standalone="no"?>
<!-- Created with Inkscape (http://www.inkscape.org/) -->

<svg
   version="1.1"
   id="svg228"
   width="512"
   height="512"
   viewBox="0 0 512.00002 512"
   sodipodi:docname="dotdotpwn.svg"
   inkscape:version="1.2.2 (b0a8486541, 2022-12-01)"
   inkscape:export-filename="../GIT Icons/dotdotpwn.png"
   inkscape:export-xdpi="96"
   inkscape:export-ydpi="96"
   xmlns:inkscape="http://www.inkscape.org/namespaces/inkscape"
   xmlns:sodipodi="http://sodipodi.sourceforge.net/DTD/sodipodi-0.dtd"
   xmlns="http://www.w3.org/2000/svg"
   xmlns:svg="http://www.w3.org/2000/svg">
  <defs
     id="defs232" />
  <sodipodi:namedview
     id="namedview230"
     pagecolor="#505050"
     bordercolor="#eeeeee"
     borderopacity="1"
     inkscape:showpageshadow="0"
     inkscape:pageopacity="0"
     inkscape:pagecheckerboard="0"
     inkscape:deskcolor="#505050"
     showgrid="false"
     inkscape:zoom="0.50469687"
     inkscape:cx="273.43146"
     inkscape:cy="243.71065"
     inkscape:window-width="1366"
     inkscape:window-height="705"
     inkscape:window-x="0"
     inkscape:window-y="0"
     inkscape:window-maximized="1"
     inkscape:current-layer="g234" />
  <g
     inkscape:groupmode="layer"
     inkscape:label="Image"
     id="g234">
    <g
       id="g1029"
       transform="matrix(0.92819056,0,0,0.93596007,18.433,16.400173)">
      <path
         id="path586-3-3"
         style="fill:#ffffff;fill-opacity:1;stroke-width:1.24967"
         d="m 211.30469,53.253906 c -42.59528,0.02197 -85.19103,-0.05653 -127.785864,0.162678 -10.624733,0.169026 -21.298158,0.325605 -31.821006,1.942082 -8.810645,1.578062 -17.46179,5.334147 -23.791341,11.796294 -8.828838,8.677924 -13.883316,20.894312 -14.293977,33.22326 -0.572617,9.75062 -0.378778,19.5237 -0.47258,29.28584 -0.02479,9.88345 -0.03981,19.76692 -0.05008,29.65039 -10.6930751,5.09571 -18.4782141,15.60341 -20.6167226,27.21235 -0.8272498,4.24341 -0.8091198,8.60218 -0.3711997,12.88867 3.8897279,69.6028 7.9109574,139.19864 12.2253459,208.77646 0.3741991,5.45079 0.645773,10.91319 1.2080023,16.34746 1.7225146,12.03552 9.1956471,23.29873 20.0556701,28.94451 6.209848,3.32146 13.367422,4.47344 20.350013,4.25949 29.494598,0.57142 58.995899,0.56996 88.494569,0.72146 88.45008,0.33559 176.90107,0.31497 265.35157,0.1989 18.43537,-0.0648 36.87351,-0.0272 55.30528,-0.44248 5.70283,-0.15739 11.41463,-0.28925 17.09844,-0.80135 6.7616,-0.73016 13.50051,-2.77474 19.08289,-6.75128 7.9805,-5.48097 13.74441,-14.26632 15.2888,-23.81903 1.30319,-6.90763 1.4735,-13.95483 2.01233,-20.94627 1.96433,-31.95074 3.5099,-63.92406 5.20004,-95.89055 1.95354,-38.16122 3.98619,-76.31936 5.61107,-114.49635 0.41194,-10.34443 0.82094,-20.69739 0.67169,-31.05132 -0.2999,-6.88784 -2.14803,-13.86498 -6.24513,-19.49628 -3.87762,-5.54289 -9.41673,-9.88874 -15.69531,-12.39657 -0.0411,-8.00449 -0.10556,-16.13482 -2.19872,-23.91755 -2.38804,-8.32016 -7.69742,-15.947388 -15.21503,-20.386461 C 474.36069,84.41235 466.84611,82.93757 459.49523,82.8887 445.28794,82.233342 431.06083,82.322698 416.84262,82.154918 361.11235,81.820152 305.37867,82.176331 249.65039,81.5 245.03281,72.302772 237.62397,64.591557 228.77055,59.37915 c -4.02569,-2.807831 -8.4233,-5.534211 -13.43442,-5.953547 -1.33801,-0.148592 -2.68575,-0.199222 -4.03144,-0.171697 z" />
      <path
         id="path586-3"
         style="fill:#000000;fill-opacity:1;stroke-width:1.24967"
         d="m 107.47309,71.264892 c -15.99648,0.142074 -32.025767,-0.180968 -47.983117,1.14311 -5.80116,0.587537 -11.773155,1.908403 -16.546326,5.427346 -4.581861,3.455891 -7.734774,8.505725 -9.707153,13.827219 -1.707034,4.996464 -1.70558,10.343473 -1.940502,15.558523 -0.193653,7.16455 -0.113861,14.33347 -0.171444,21.49996 -0.04443,14.86198 0.02641,29.72423 -0.07376,44.58605 -4.552189,0.28063 -9.323149,1.10025 -13.036189,3.93265 -4.255692,3.17596 -7.178984,8.07601 -8.011885,13.30699 -0.4808278,3.78481 0.187653,7.58122 0.264482,11.36989 2.268672,42.1357 4.782532,84.25991 7.238334,126.38606 1.805554,30.50662 3.605221,61.0142 5.576161,91.51048 0.384879,4.87381 2.112878,9.73106 5.414802,13.40337 3.370165,3.88432 8.376119,6.40779 13.561453,6.42798 5.308511,0.23198 10.624669,0.22173 15.936869,0.32605 27.395943,0.38199 54.795125,0.40692 82.193015,0.53722 85.26037,0.31574 170.52156,0.27666 255.78232,0.19932 21.23854,-0.0526 42.48019,-0.065 63.71392,-0.55392 4.83458,-0.16595 9.7016,-0.32205 14.4652,-1.21941 6.29658,-1.49974 11.99737,-6.13009 13.98442,-12.3865 1.40707,-4.44451 1.51702,-9.16413 1.95295,-13.73118 1.11109,-14.93087 1.78389,-29.88123 2.62757,-44.82419 2.34249,-43.8015 4.59262,-87.6079 6.80025,-131.41635 1.02439,-20.72286 2.0109,-41.45013 2.59631,-62.19047 0.0706,-4.22187 0.17933,-8.47169 -0.3651,-12.66699 -0.94899,-5.36651 -4.73911,-10.16563 -9.82869,-12.19318 -3.71121,-1.59811 -7.79923,-1.8922 -11.78646,-2.10698 -0.10243,-9.5995 0.31448,-19.2244 -0.52767,-28.80087 -0.52554,-4.72501 -2.05539,-9.61512 -5.60033,-12.96438 -3.23941,-3.10076 -7.77914,-4.53386 -12.20509,-4.59932 -8.34686,-0.65196 -16.72685,-0.57075 -25.09208,-0.74256 -25.58805,-0.326808 -51.17884,-0.27186 -76.76841,-0.32952 -39.94456,-0.05262 -79.89181,0.03064 -119.83273,-0.59149 -1.08746,-0.02076 -2.17502,-0.03604 -3.26231,-0.06476 -1.67051,-9.204583 -7.04268,-17.795514 -14.94543,-22.915994 -2.29652,-1.527721 -4.59935,-3.051008 -6.90339,-4.564363 -1.43743,-0.89166 -3.17256,-0.51231 -4.76735,-0.590467 -34.25088,0.0036 -68.50176,0.0071 -102.75264,0.01069 z" />
      <g
         id="g1213"
         transform="matrix(0.93807914,0,0,0.93643548,15.856468,16.285887)">
        <path
           style="fill:#f6b600;fill-opacity:1;stroke-width:1.33333"
           d="m 305.63178,154.68218 -21.55469,14.00781 -21.55273,14.00977 h -124.375 c -111.28654,0 -124.59418,0.21893 -126.46875,2.09375 -1.15238,1.15212 -2.1032405,2.80392 -2.1152405,3.66796 -0.0671,4.9446 13.5771805,238.32926 14.1464905,241.97461 0.4514,2.89055 1.69427,4.80861 3.61523,5.58203 1.65206,0.66538 101.77993,1.21598 229.92578,1.26368 218.63511,0.0814 227.09032,-0.006 229.45117,-2.36719 2.9319,-2.93188 2.05117,9.84801 10.41407,-151.24219 4.72475,-91.01607 6.03779,-124.30206 4.96679,-126 -1.3549,-2.14826 -8.18618,-2.33005 -98.95507,-2.64844 z"
           id="path586" />
        <path
           style="fill:#000000;stroke-width:1.33333"
           d="m 455.79193,321.36577 c 5.91444,0 9.79493,3.96101 9.79493,10 0,2.88889 -1.01717,5.68319 -2.66797,7.33399 -3.55744,3.55721 -10.81012,3.5229 -14.0586,-0.0664 -1.38793,-1.53392 -2.47461,-4.7228 -2.47461,-7.26758 0,-6.03743 3.72706,-10 9.40625,-10 z"
           id="path610" />
        <path
           style="fill:#000000;stroke-width:1.33333"
           d="m 425.12592,321.36577 c 5.91419,0 9.79297,3.96101 9.79297,10 0,2.88889 -1.01522,5.68319 -2.66602,7.33399 -3.55719,3.55721 -10.81231,3.5229 -14.06054,-0.0664 -1.38819,-1.53392 -2.47266,-4.7228 -2.47266,-7.26758 0,-6.03743 3.72681,-10 9.40625,-10 z"
           id="path608" />
        <path
           style="fill:#000000;stroke-width:1.33333"
           d="m 347.79193,321.36577 c 5.91444,0 9.79493,3.96101 9.79493,10 0,2.88889 -1.01717,5.68319 -2.66797,7.33399 -3.55744,3.55721 -10.81012,3.5229 -14.0586,-0.0664 -1.38793,-1.53392 -2.47461,-4.7228 -2.47461,-7.26758 0,-6.03743 3.72706,-10 9.40625,-10 z"
           id="path606" />
        <path
           style="fill:#000000;stroke-width:1.33333"
           d="m 317.12592,321.36577 c 5.91419,0 9.79297,3.96101 9.79297,10 0,2.88889 -1.01522,5.68319 -2.66602,7.33399 -3.55719,3.55721 -10.81231,3.5229 -14.06054,-0.0664 -1.38819,-1.53392 -2.47266,-4.7228 -2.47266,-7.26758 0,-6.03743 3.72681,-10 9.40625,-10 z"
           id="path604" />
        <path
           style="fill:#000000;stroke-width:1.33333"
           d="m 241.12592,321.36577 c 5.91419,0 9.79297,3.96101 9.79297,10 0,2.88889 -1.01522,5.68319 -2.66602,7.33399 -3.55719,3.55721 -10.81231,3.5229 -14.06054,-0.0664 -1.38819,-1.53392 -2.47266,-4.7228 -2.47266,-7.26758 0,-6.03743 3.72681,-10 9.40625,-10 z"
           id="path602" />
        <path
           style="fill:#000000;stroke-width:1.33333"
           d="m 209.12592,321.36577 c 5.91419,0 9.79297,3.96101 9.79297,10 0,2.88889 -1.01522,5.68319 -2.66602,7.33399 -3.55719,3.55721 -10.81231,3.5229 -14.06054,-0.0664 -1.38819,-1.53392 -2.47266,-4.7228 -2.47266,-7.26758 0,-6.03743 3.72681,-10 9.40625,-10 z"
           id="path600" />
        <path
           style="fill:#000000;stroke-width:1.33333"
           d="m 133.12592,321.36577 c 5.91419,0 9.79297,3.96101 9.79297,10 0,2.88889 -1.01522,5.68319 -2.66602,7.33399 -3.55719,3.55721 -10.81231,3.5229 -14.06054,-0.0664 -1.38818,-1.53392 -2.47266,-4.7228 -2.47266,-7.26758 0,-6.03743 3.72681,-10 9.40625,-10 z"
           id="path598" />
        <path
           style="fill:#000000;stroke-width:1.33333"
           d="m 101.12592,321.36577 c 5.91419,0 9.79297,3.96101 9.79297,10 0,2.88889 -1.01522,5.68319 -2.66602,7.33399 -3.55719,3.55721 -10.81231,3.5229 -14.06054,-0.0664 -1.38818,-1.53392 -2.47266,-4.7228 -2.47266,-7.26758 0,-6.03743 3.72681,-10 9.40625,-10 z"
           id="path596" />
        <path
           style="fill:#000000;stroke-width:1.33333"
           d="m 405.07904,256.15288 c 2.87968,0.0265 3.17383,0.65329 3.17383,2.72266 0,3.31321 -25.8749,73.41472 -28.84765,78.15625 -1.49813,2.38908 -3.10533,3 -7.89258,3 -3.69624,0 -6.26563,-0.66475 -6.67383,-1.72852 -0.36514,-0.95149 6.10378,-19.7033 14.375,-41.66797 l 15.03906,-39.93554 7,-0.4043 c 1.61943,-0.0932 2.86628,-0.15142 3.82617,-0.14258 z"
           id="path594" />
        <path
           style="fill:#000000;stroke-width:1.33333"
           d="m 297.07904,256.15288 c 2.87968,0.0265 3.17383,0.65329 3.17383,2.72266 0,3.31321 -25.8749,73.41472 -28.84765,78.15625 -1.49814,2.38908 -3.10532,3 -7.89258,3 -3.69624,0 -6.26563,-0.66475 -6.67383,-1.72852 -0.36513,-0.95149 6.10379,-19.7033 14.375,-41.66797 l 15.03906,-39.93554 7,-0.4043 c 1.61944,-0.0932 2.86628,-0.15142 3.82617,-0.14258 z"
           id="path592" />
        <path
           style="fill:#000000;stroke-width:1.33333"
           d="m 189.07904,256.15288 c 2.87968,0.0265 3.17383,0.65329 3.17383,2.72266 0,3.31321 -25.8749,73.41472 -28.84765,78.15625 -1.49813,2.38908 -3.10532,3 -7.89258,3 -3.69624,0 -6.26563,-0.66475 -6.67383,-1.72852 -0.36513,-0.95149 6.10378,-19.7033 14.375,-41.66797 l 15.03906,-39.93554 7,-0.4043 c 1.61944,-0.0932 2.86628,-0.15142 3.82617,-0.14258 z"
           id="path590" />
        <path
           style="fill:#000000;stroke-width:1.33333"
           d="m 82.41303,256.15288 c 2.87967,0.0265 3.17383,0.65329 3.17383,2.72266 0,3.31321 -25.87466,73.41472 -28.84766,78.15625 -1.49813,2.38908 -3.10508,3 -7.89258,3 -3.69599,0 -6.26563,-0.66475 -6.67383,-1.72852 -0.36514,-0.95149 6.10378,-19.7033 14.375,-41.66797 l 15.03907,-39.93554 7,-0.4043 c 1.6192,-0.0932 2.86628,-0.15142 3.82617,-0.14258 z"
           id="path588" />
        <path
           style="fill:#be8c00;fill-opacity:1;stroke-width:1.33333"
           d="m 126.67865,74.699757 c -88.0607,0 -86.61337,-0.131267 -91.72461,8.251953 -2.53069,4.15115 -2.69226,6.652945 -2.69726,42.08008 l -0.004,37.66797 h 112.47461 112.47266 l 19.85937,-12.88868 c 10.92246,-7.08826 21.96068,-13.66144 24.52735,-14.60742 3.62536,-1.33626 23.92761,-1.73404 91,-1.77929 l 86.33203,-0.0586 v -12.40039 c 0,-7.86647 -0.58451,-12.98498 -1.59961,-14 -1.22167,-1.2217 -31.1917,-1.59961 -126.75391,-1.59961 -83.72,0 -126.00915,-0.45757 -127.73437,-1.38086 -1.98942,-1.06468 -2.57908,-2.81689 -2.58008,-7.666013 -0.003,-7.9101 -3.35741,-14.69372 -9.19531,-18.59375 l -4.53125,-3.02539 z"
           id="path346" />
      </g>
    </g>
  </g>
</svg>
