<?xml version="1.0" encoding="UTF-8" standalone="no"?>
<!-- Created with Inkscape (http://www.inkscape.org/) -->

<svg
   version="1.1"
   id="svg886"
   width="512"
   height="512"
   viewBox="0 0 511.99998 511.99998"
   sodipodi:docname="dumpsterdiver.svg"
   inkscape:version="1.1.2 (0a00cf5339, 2022-02-04)"
   xmlns:inkscape="http://www.inkscape.org/namespaces/inkscape"
   xmlns:sodipodi="http://sodipodi.sourceforge.net/DTD/sodipodi-0.dtd"
   xmlns="http://www.w3.org/2000/svg"
   xmlns:svg="http://www.w3.org/2000/svg">
  <defs
     id="defs890" />
  <sodipodi:namedview
     id="namedview888"
     pagecolor="#000000"
     bordercolor="#eeeeee"
     borderopacity="1"
     inkscape:pageshadow="0"
     inkscape:pageopacity="0"
     inkscape:pagecheckerboard="0"
     showgrid="false"
     inkscape:zoom="0.67044639"
     inkscape:cx="208.8161"
     inkscape:cy="276.68133"
     inkscape:window-width="1366"
     inkscape:window-height="695"
     inkscape:window-x="0"
     inkscape:window-y="24"
     inkscape:window-maximized="1"
     inkscape:current-layer="g892" />
  <g
     inkscape:groupmode="layer"
     inkscape:label="Image"
     id="g892">
    <g
       id="g1084"
       transform="matrix(0.48087494,0,0,0.49228527,-57.596163,-57.792298)">
      <path
         style="fill:#cbcbcb;stroke-width:0.32"
         d="m 619.99995,1054.7199 c 0.86676,-0.88 1.64794,-1.6 1.73594,-1.6 0.088,0 -0.54918,0.72 -1.41594,1.6 -0.86675,0.88 -1.64793,1.6 -1.73593,1.6 -0.088,0 0.54918,-0.72 1.41593,-1.6 z m -49.39804,-27.958 c -19.14416,-19.1452 -26.55312,-26.7496 -26.23929,-26.93132 0.24355,-0.14102 0.32524,-0.13024 0.18438,0.0243 -0.13917,0.15272 11.74051,12.27182 26.39926,26.93132 14.65875,14.6595 26.58026,26.6537 26.49226,26.6537 -0.088,0 -12.16448,-12.0051 -26.83661,-26.6781 z m 55.79804,21.238 c 0.86675,-0.88 1.64794,-1.6 1.73594,-1.6 0.088,0 -0.54919,0.72 -1.41594,1.6 -0.86675,0.88 -1.64793,1.6 -1.73593,1.6 -0.088,0 0.54918,-0.72 1.41593,-1.6 z m 6.72,-7.04 c 0.86675,-0.88 1.64794,-1.6 1.73594,-1.6 0.088,0 -0.54919,0.72 -1.41594,1.6 -0.86675,0.88 -1.64793,1.6 -1.73593,1.6 -0.088,0 0.54918,-0.72 1.41593,-1.6 z m 6.72,-7.04 c 0.86675,-0.88 1.64794,-1.6 1.73594,-1.6 0.088,0 -0.54919,0.72 -1.41594,1.6 -0.86675,0.88 -1.64793,1.6 -1.73593,1.6 -0.088,0 0.54918,-0.72 1.41593,-1.6 z m 6.4,-6.72 c 0.86675,-0.88 1.64794,-1.6 1.73594,-1.6 0.088,0 -0.54919,0.72 -1.41594,1.6 -0.86675,0.88 -1.64793,1.6 -1.73593,1.6 -0.088,0 0.54918,-0.72 1.41593,-1.6 z m -343.35997,-14.08 c 0.31855,-0.352 0.65119,-0.64 0.73919,-0.64 0.088,0 -0.10064,0.288 -0.41919,0.64 -0.31856,0.352 -0.6512,0.64 -0.7392,0.64 -0.088,0 0.10064,-0.288 0.4192,-0.64 z m 1.76,-2.0408 c 0,-0.066 0.252,-0.3184 0.56,-0.56 0.50754,-0.398 0.51885,-0.3867 0.12082,0.1208 -0.41804,0.533 -0.68082,0.7026 -0.68082,0.4392 z m 2.24,-2.56 c 0,-0.066 0.252,-0.3184 0.56,-0.56 0.50754,-0.398 0.51885,-0.3867 0.12082,0.1208 -0.41804,0.533 -0.68082,0.7026 -0.68082,0.4392 z m 2.24,-2.56 c 0,-0.066 0.252,-0.3184 0.56,-0.56 0.50754,-0.398 0.51885,-0.3867 0.12082,0.1208 -0.41804,0.533 -0.68082,0.7026 -0.68082,0.4392 z m 1.92,-2.24 c 0,-0.066 0.252,-0.3184 0.56,-0.56 0.50754,-0.398 0.51885,-0.3867 0.12082,0.1208 -0.41804,0.533 -0.68082,0.7026 -0.68082,0.4392 z m 2.24,-2.56 c 0,-0.066 0.252,-0.3184 0.56,-0.56 0.50754,-0.398 0.51885,-0.3867 0.12082,0.1208 -0.41804,0.533 -0.68082,0.7026 -0.68082,0.4392 z m 2.24,-2.56001 c 0,-0.0664 0.252,-0.31843 0.56,-0.56 0.50754,-0.39801 0.51885,-0.38672 0.12082,0.12084 -0.41804,0.53302 -0.68082,0.70256 -0.68082,0.43916 z m 1.92,-2.24 c 0,-0.0664 0.252,-0.31843 0.56,-0.56 0.50754,-0.39801 0.51885,-0.38672 0.12082,0.12084 -0.41804,0.53302 -0.68082,0.70256 -0.68082,0.43916 z m 2.24,-2.56 c 0,-0.0664 0.252,-0.31843 0.56,-0.56 0.50755,-0.39801 0.51884,-0.38672 0.12083,0.12084 -0.41805,0.53302 -0.68083,0.70256 -0.68083,0.43916 z m 2.24,-2.56 c 0,-0.0664 0.252,-0.31843 0.56,-0.56 0.50755,-0.39801 0.51884,-0.38672 0.12083,0.12084 -0.41805,0.53302 -0.68083,0.70256 -0.68083,0.43916 z m 1.92,-2.24 c 0,-0.0664 0.252,-0.31843 0.56,-0.56 0.50755,-0.39801 0.51884,-0.38672 0.12083,0.12084 -0.41805,0.53302 -0.68083,0.70256 -0.68083,0.43916 z m 2.24,-2.56 c 0,-0.0664 0.252,-0.31843 0.56,-0.56 0.50755,-0.39801 0.51884,-0.38672 0.12083,0.12084 -0.41805,0.53302 -0.68083,0.70256 -0.68083,0.43916 z m 2.24,-2.56 c 0,-0.0664 0.252,-0.31843 0.56,-0.56 0.50755,-0.39801 0.51884,-0.38672 0.12083,0.12084 -0.41805,0.53302 -0.68083,0.70256 -0.68083,0.43916 z m 1.92,-2.24 c 0,-0.0664 0.252,-0.31843 0.56,-0.56 0.50755,-0.39801 0.51884,-0.38672 0.12083,0.12084 -0.41805,0.53302 -0.68083,0.70256 -0.68083,0.43916 z m 2.24,-2.56 c 0,-0.0664 0.252,-0.31843 0.56,-0.56 0.50755,-0.39801 0.51884,-0.38672 0.12083,0.12084 -0.41805,0.53302 -0.68083,0.70256 -0.68083,0.43916 z m 2.23999,-2.56 c 0,-0.0664 0.252,-0.31843 0.56,-0.56 0.50756,-0.39801 0.51885,-0.38672 0.12084,0.12084 -0.41805,0.53302 -0.68084,0.70256 -0.68084,0.43916 z m 1.92,-2.24 c 0,-0.0664 0.252,-0.31843 0.56,-0.56 0.50756,-0.39801 0.51885,-0.38671 0.12084,0.12084 -0.41805,0.53302 -0.68084,0.70256 -0.68084,0.43916 z m 2.24,-2.55999 c 0,-0.0664 0.252,-0.31844 0.56,-0.56 0.50756,-0.39802 0.51885,-0.38672 0.12084,0.12083 -0.41805,0.53302 -0.68084,0.70256 -0.68084,0.43917 z m 522.17997,-2.01776 c 0.231,-0.0924 0.507,-0.0811 0.61334,0.0253 0.10634,0.10633 -0.0827,0.18198 -0.42,0.16809 -0.3728,-0.0154 -0.44861,-0.0912 -0.19334,-0.19334 z M 341.11997,969.1591 c 0,-0.0664 0.252,-0.31844 0.56,-0.56 0.50756,-0.39802 0.51885,-0.38672 0.12084,0.12083 -0.41805,0.53302 -0.68084,0.70256 -0.68084,0.43917 z m 513.85997,-0.0978 c 0.231,-0.0924 0.507,-0.0811 0.61334,0.0253 0.10634,0.10633 -0.0827,0.18198 -0.42,0.16809 -0.3728,-0.0154 -0.44861,-0.0912 -0.19334,-0.19334 z m -6.08,-0.64 c 0.231,-0.0924 0.507,-0.0811 0.61334,0.0253 0.10634,0.10633 -0.0827,0.18198 -0.42,0.16809 -0.3728,-0.0154 -0.44861,-0.0912 -0.19334,-0.19334 z m -505.37997,-2.02141 c 0.31856,-0.352 0.6512,-0.64 0.7392,-0.64 0.088,0 -0.10064,0.288 -0.4192,0.64 -0.31856,0.352 -0.6512,0.64 -0.7392,0.64 -0.088,0 0.10064,-0.288 0.4192,-0.64 z m 490.01997,0.42141 c 0.23101,-0.0924 0.50701,-0.0811 0.61334,0.0253 0.10634,0.10633 -0.0827,0.18198 -0.42,0.16809 -0.3728,-0.0154 -0.44861,-0.0912 -0.19334,-0.19334 z m -6.08,-0.64 c 0.23101,-0.0924 0.50701,-0.0811 0.61334,0.0253 0.10634,0.10633 -0.0827,0.18198 -0.42,0.16809 -0.3728,-0.0154 -0.44861,-0.0912 -0.19334,-0.19334 z m -6.08,-0.64 c 0.23101,-0.0924 0.50701,-0.0811 0.61334,0.0253 0.10634,0.10633 -0.0827,0.18198 -0.42,0.16809 -0.3728,-0.0154 -0.44861,-0.0912 -0.19334,-0.19334 z m -6.08,-0.64 c 0.23101,-0.0924 0.50701,-0.0811 0.61334,0.0253 0.10634,0.10633 -0.0827,0.18198 -0.42,0.16809 -0.3728,-0.0154 -0.44861,-0.0912 -0.19334,-0.19334 z m -470.01997,-0.5422 c 0,-0.0664 0.252,-0.31844 0.56,-0.56 0.50756,-0.39802 0.51885,-0.38672 0.12084,0.12083 -0.41805,0.53302 -0.68084,0.70256 -0.68084,0.43917 z m 454.65997,-1.05776 c 0.23101,-0.0924 0.50701,-0.0811 0.61334,0.0253 0.10634,0.10633 -0.0827,0.18198 -0.42,0.16809 -0.3728,-0.0154 -0.4486,-0.0912 -0.19334,-0.19334 z m -6.08,-0.64 c 0.23101,-0.0924 0.50701,-0.0811 0.61334,0.0253 0.10634,0.10633 -0.0827,0.18198 -0.42,0.16809 -0.3728,-0.0154 -0.4486,-0.0912 -0.19334,-0.19334 z m -6.08,-0.64 c 0.23101,-0.0924 0.50701,-0.0811 0.61334,0.0253 0.10634,0.10633 -0.0827,0.18198 -0.42,0.16809 -0.3728,-0.0154 -0.4486,-0.0912 -0.19334,-0.19334 z M 347.51997,961.7991 c 0,-0.0664 0.252,-0.31844 0.56,-0.56 0.50756,-0.39802 0.51885,-0.38672 0.12084,0.12083 -0.41805,0.53302 -0.68084,0.70256 -0.68084,0.43917 z m 2.24,-2.56 c 0,-0.0664 0.252,-0.31844 0.56,-0.56 0.50756,-0.39802 0.51885,-0.38672 0.12084,0.12083 -0.41805,0.53302 -0.68084,0.70256 -0.68084,0.43917 z m 1.92,-2.24 c 0,-0.0664 0.252,-0.31844 0.56,-0.56 0.50756,-0.39802 0.51885,-0.38672 0.12084,0.12083 -0.41805,0.53302 -0.68084,0.70256 -0.68084,0.43917 z m 2.24,-2.56 c 0,-0.0664 0.252,-0.31844 0.56,-0.56 0.50756,-0.39802 0.51885,-0.38672 0.12084,0.12083 -0.41805,0.53302 -0.68084,0.70256 -0.68084,0.43917 z m 2.24,-2.56 c 0,-0.0664 0.252,-0.31844 0.56,-0.56 0.50756,-0.39802 0.51885,-0.38672 0.12084,0.12083 -0.41805,0.53302 -0.68084,0.70256 -0.68084,0.43917 z m 1.92,-2.24 c 0,-0.0664 0.252,-0.31844 0.56,-0.56 0.50756,-0.39802 0.51885,-0.38672 0.12084,0.12083 -0.41805,0.53302 -0.68084,0.70256 -0.68084,0.43917 z m 2.41367,-2.41706 c -0.10125,-0.16384 -0.0618,-0.3735 0.0878,-0.46592 0.14954,-0.0924 0.27191,0.0416 0.27191,0.29789 0,0.53958 -0.10093,0.58672 -0.35968,0.16803 z m 256.78631,-42.79705 c -15.76467,-1.12915 -31.25753,-5.73107 -44.31999,-13.16464 -3.71421,-2.1137 -8.78861,-5.52762 -12.64,-8.50387 -4.28381,-3.31043 -13.54362,-12.49088 -16.92979,-16.7847 -12.45232,-15.79005 -19.89712,-34.53111 -21.81328,-54.91123 -0.54445,-5.79072 -0.22032,-18.33383 0.61245,-23.70061 2.97248,-19.15597 9.88732,-35.07241 21.68761,-49.92 1.71005,-2.15164 8.95664,-9.70643 18.64144,-19.43427 15.14749,-15.21475 15.87001,-15.89059 16.43849,-15.37609 0.56877,0.51472 3.05799,-1.92522 57.20704,-56.0736 53.90758,-53.90694 56.58697,-56.63983 56.08028,-57.1997 -0.50668,-0.55991 3.0721,-4.19367 74.97184,-76.12368 41.52713,-41.54464 77.0879,-76.97727 79.0239,-78.73922 15.49961,-14.10608 34.8358,-22.89277 56.63999,-25.73811 5.40669,-0.70557 17.99568,-0.77018 23.2,-0.11908 2.024,0.25325 4.22,0.46567 4.88,0.4721 0.66,0.006 1.2,0.1 1.2,0.2079 0,0.10791 1.26,0.44228 2.8,0.74304 20.38832,3.98195 39.30739,14.18819 53.52739,28.87635 13.13768,13.57024 21.46808,28.63245 26.22058,47.40976 2.2683,8.96192 2.7042,12.84822 2.7157,24.21462 0.01,7.96448 -0.1037,10.67696 -0.5669,13.76 -2.9556,19.67229 -9.8522,35.73654 -21.84349,50.88 -2.05543,2.59571 -41.86813,42.62009 -151.62028,152.42629 -81.85814,81.89846 -150.41698,150.27842 -152.35298,151.95548 -16.67114,14.4414 -37.30461,22.99187 -59.66397,24.72467 -3.97756,0.30825 -10.66281,0.36448 -14.09603,0.11859 z m 12.08759,-76.93308 c 7.56272,-1.91591 14.62208,-8.36666 17.3222,-15.82887 5.36736,-14.8334 -3.92892,-31.023 -19.38009,-33.75068 -3.46032,-0.61085 -8.92541,-0.26227 -12.1097,0.77238 -7.08838,2.3032 -13.25414,7.98455 -15.93615,14.68413 -1.9058,4.76054 -2.32503,11.2455 -1.03898,16.07107 1.26246,4.73709 4.48787,9.82614 8.15261,12.8631 6.51792,5.40144 14.7854,7.26743 22.99011,5.18887 z m 69.42831,-71.97257 c 5.16925,-0.67146 10.00634,-2.98346 13.8727,-6.63082 3.7633,-3.55008 6.11389,-7.42627 7.37946,-12.1689 1.02496,-3.84105 0.94301,-9.55551 -0.19162,-13.35967 -2.54057,-8.51789 -8.72028,-14.74848 -17.29644,-17.43879 -3.07331,-0.96409 -8.39306,-1.20617 -11.89735,-0.54144 -5.27488,1.00061 -8.93136,2.98307 -13.09558,7.10023 -3.25734,3.22051 -5.01001,6.01152 -6.4304,10.24 -0.77769,2.31516 -0.86118,3.01904 -0.87296,7.36 -0.015,5.53948 0.37735,7.41843 2.41779,11.57814 4.74356,9.67033 15.28858,15.26752 26.1144,13.86125 z m 74.16409,-57.75763 c 1.94448,-0.29651 2.99402,-0.53795 6.72,-1.54595 0.176,-0.0476 0.644,-0.26474 1.04,-0.48247 0.396,-0.21773 0.72,-0.30224 0.72,-0.18781 0,0.11444 0.36,-0.0278 0.8,-0.31609 0.44,-0.28832 0.8,-0.44519 0.8,-0.34861 0,0.0966 0.4305,-0.047 0.95664,-0.3191 0.52618,-0.27207 0.99418,-0.45636 1.04,-0.40948 0.0459,0.0469 0.51536,-0.21475 1.04336,-0.58144 0.528,-0.36665 1.176,-0.74889 1.44,-0.8494 0.264,-0.10052 1.36704,-0.90493 2.4512,-1.78756 1.08413,-0.88265 2.02781,-1.54819 2.09706,-1.47894 0.16742,0.16746 5.0054,-4.70925 5.48009,-5.524 0.20442,-0.35082 1.05079,-1.48678 1.88087,-2.52438 0.83008,-1.0376 1.52992,-2.03053 1.55516,-2.20653 0.0253,-0.176 0.293,-0.68 0.59492,-1.12 0.46304,-0.67478 1.38195,-2.65741 1.48313,-3.2 0.0163,-0.088 0.31936,-0.808 0.67325,-1.6 0.35386,-0.792 0.76061,-1.872 0.9039,-2.4 0.14327,-0.528 0.30157,-1.104 0.35175,-1.28 1.49878,-5.25594 1.63597,-13.94064 0.30073,-19.04 -0.31315,-1.19597 -0.34844,-1.32057 -0.8159,-2.88 -0.23741,-0.792 -0.44675,-1.512 -0.46525,-1.6 -0.0186,-0.088 -0.23283,-0.52 -0.47632,-0.96 -0.24352,-0.44 -0.41289,-0.83862 -0.37641,-0.88582 0.11824,-0.15296 -1.01344,-2.44749 -1.69376,-3.43418 -0.36407,-0.528 -0.61207,-1.0072 -0.55114,-1.06486 0.0609,-0.0577 -0.55155,-0.95776 -1.36106,-2.00016 -0.80947,-1.04243 -1.47459,-2.00323 -1.47801,-2.13514 -0.009,-0.33296 -5.84032,-6.15984 -6.16496,-6.15984 -0.14487,0 -1.24365,-0.792 -2.4417,-1.76 -1.19808,-0.968 -2.32297,-1.76 -2.49977,-1.76 -0.1768,0 -0.69581,-0.29446 -1.15335,-0.65433 -0.4575,-0.35991 -0.94492,-0.66515 -1.08313,-0.67834 -0.13821,-0.0131 -0.6113,-0.16086 -1.0513,-0.32816 -0.44,-0.16729 -0.8,-0.26969 -0.8,-0.22758 0,0.0421 -0.36,-0.12083 -0.8,-0.36211 -0.44,-0.24128 -0.98,-0.48164 -1.2,-0.53408 -0.6719,-0.16023 -1.1415,-0.29037 -2.64,-0.73156 -0.792,-0.23321 -1.656,-0.46566 -1.92,-0.51664 -3.98569,-0.76915 -5.56707,-0.92467 -8.96,-0.88118 -2.2,0.0282 -4.504,0.14307 -5.12,0.25523 -0.616,0.11219 -1.49616,0.25459 -1.95587,0.31648 -0.45974,0.0619 -1.14374,0.27728 -1.52,0.47866 -0.37629,0.20137 -0.68413,0.30067 -0.68413,0.22067 0,-0.23155 -2.21862,0.40896 -4.48,1.29334 -2.1743,0.85034 -2.55107,1.02922 -4.44384,2.10986 -0.6359,0.36304 -1.49024,0.83805 -1.89859,1.05555 -1.89312,1.00848 -9.65757,7.87312 -9.65757,8.53837 0,0.17437 -0.54,0.98499 -1.2,1.80144 -0.66,0.81641 -1.38521,1.81481 -1.61161,2.21865 -1.44355,2.57504 -2.27837,4.22573 -2.13712,4.22573 0.0899,0 -0.0724,0.36 -0.3607,0.8 -0.28829,0.44 -0.42388,0.8 -0.30128,0.8 0.12262,0 -0.0886,0.504 -0.46928,1.12 -0.38071,0.616 -0.6034,1.12 -0.49485,1.12 0.10854,0 0.0627,0.252 -0.10183,0.56 -0.16457,0.308 -0.38752,1.1168 -0.49545,1.79735 -0.10794,0.68054 -0.25213,1.32854 -0.32042,1.44 -0.0683,0.11145 -0.20781,0.70665 -0.31001,1.32265 -0.10221,0.616 -0.26426,1.48 -0.36007,1.92 -0.0958,0.44 -0.17421,2.744 -0.17421,5.12 0,2.376 0.0784,4.68 0.17421,5.12 0.0958,0.44 0.25786,1.304 0.36007,1.92 0.1022,0.616 0.24172,1.2112 0.31001,1.32266 0.0683,0.11145 0.21248,0.75945 0.32042,1.44 0.10793,0.68054 0.31161,1.45334 0.45264,1.71734 0.14099,0.264 0.26765,0.5895 0.28144,0.72336 0.0138,0.13382 0.24771,0.67382 0.51977,1.2 0.2721,0.52614 0.40138,0.95664 0.2873,0.95664 -0.11405,0 -0.0403,0.20131 0.16387,0.44736 0.20419,0.24605 0.43015,0.75299 0.50208,1.12656 0.0719,0.37357 0.43632,1.10829 0.8097,1.63267 0.3734,0.52435 0.58976,0.95341 0.48083,0.95341 -0.10893,0 0.16925,0.4816 0.61821,1.07021 0.44896,0.58861 0.81628,1.18444 0.81628,1.32403 0,0.71331 6.81044,8.48576 7.43546,8.48576 0.15798,0 1.03366,0.64438 1.94592,1.43197 0.91222,0.78758 1.74182,1.39958 1.84352,1.36 0.10173,-0.0396 0.71373,0.33136 1.36,0.82432 0.6463,0.49296 1.1751,0.80713 1.1751,0.6982 0,-0.10892 0.41824,0.0997 0.92941,0.46372 0.51117,0.364 1.10093,0.66179 1.31063,0.66179 0.20966,0 0.76342,0.20816 1.23059,0.46259 1.89312,1.03101 5.48937,2.276 5.48937,1.90035 0,-0.08 0.30208,0.0163 0.6713,0.21383 0.36922,0.1976 1.12522,0.41177 1.68,0.47593 0.55478,0.0642 1.63385,0.18474 2.39792,0.26787 0.76409,0.0832 1.43667,0.19866 1.49465,0.25664 0.19908,0.19908 7.03642,0.0285 8.63613,-0.21545 z m -5.03875,-17.30717 c -0.0525,-0.0526 -1.13968,-0.17309 -2.41584,-0.26781 -1.27616,-0.0947 -2.56893,-0.30531 -2.87283,-0.46793 -0.30391,-0.16266 -0.69658,-0.31408 -0.87258,-0.33651 -0.98598,-0.1256 -2.72016,-0.72372 -2.8886,-0.99626 -0.10759,-0.17408 -0.3074,-0.24742 -0.44404,-0.16298 -0.13664,0.0845 -1.13542,-0.56121 -2.21952,-1.43478 -1.08406,-0.87357 -2.08739,-1.58832 -2.22956,-1.58832 -0.32288,0 -1.97828,-1.70714 -1.97828,-2.0401 0,-0.13478 -0.55356,-0.91891 -1.23014,-1.74249 -1.31901,-1.6056 -2.34758,-3.46957 -2.76874,-5.01741 -0.14368,-0.528 -0.30227,-1.104 -0.35244,-1.28 -0.0502,-0.176 -0.19303,-0.68 -0.31738,-1.12 -0.28966,-1.0247 -0.29139,-7.8583 -0.003,-9.12 0.53898,-2.35251 1.63984,-4.92496 2.73885,-6.4 0.65568,-0.88 1.17862,-1.70301 1.16214,-1.82893 -0.0411,-0.31436 3.39907,-3.77107 3.75306,-3.77107 0.1567,0 0.8096,-0.41526 1.45094,-0.92281 0.97754,-0.7736 3.39882,-2.02621 3.65187,-1.88922 0.0408,0.0221 0.40752,-0.13821 0.81495,-0.35626 1.68592,-0.9023 6.38931,-1.34236 9.81923,-0.91875 2.53549,0.31312 5.33741,1.30295 7.23613,2.55623 0.45987,0.30355 0.91936,0.46864 1.02112,0.36688 0.10176,-0.10176 1.64902,1.279 3.43836,3.06832 1.78932,1.78934 3.16551,3.34115 3.05815,3.44851 -0.10733,0.10733 0.007,0.42285 0.25366,0.70112 0.46749,0.52697 2.05981,4.14553 2.32726,5.28867 0.81642,3.48947 0.55229,10.00361 -0.48201,11.88784 -0.18403,0.3352 -0.57792,1.29142 -0.87536,2.12493 -0.29744,0.8335 -0.73802,1.67913 -0.97904,1.8792 -0.24106,0.20003 -0.43827,0.56598 -0.43827,0.81318 0,0.60061 -5.69216,6.27184 -6.06423,6.04192 -0.16035,-0.0991 -0.37904,-0.0387 -0.48595,0.13437 -0.38163,0.61747 -3.86006,2.14896 -5.20838,2.29315 -0.1328,0.0141 -0.47693,0.15187 -0.76477,0.30592 -0.46131,0.24688 -1.1848,0.38227 -4.02826,0.75395 -0.39139,0.0511 -0.75459,0.05 -0.80716,-0.003 z m 77.19875,-68.80307 c 8.28438,-2.12931 15.31408,-8.86022 17.9968,-17.2319 0.43529,-1.35843 0.66969,-3.23408 0.78224,-6.25961 0.19881,-5.34311 -0.2897,-7.95264 -2.24634,-12 -3.3399,-6.90867 -9.15395,-11.75635 -16.5512,-13.80019 -2.8752,-0.7944 -9.88781,-0.7944 -12.76301,0 -4.86457,1.34406 -8.59414,3.64179 -12.29267,7.57337 -1.96381,2.08752 -2.79881,3.30199 -4.03561,5.86947 -1.93568,4.01834 -2.57021,6.81533 -2.57021,11.32931 0,7.24023 2.64393,13.37098 7.90781,18.33664 3.67196,3.46394 7.82252,5.60266 12.73219,6.56071 2.78649,0.54374 8.17158,0.35948 11.04,-0.3778 z m 77.59999,-76.72853 c 4.1856,-1.37271 7.00378,-3.13684 10.24,-6.41005 5.5825,-5.64634 7.80243,-11.39341 7.42909,-19.23293 -0.5272,-11.0711 -8.12695,-20.38908 -18.94909,-23.23328 -3.54371,-0.93136 -9.24665,-0.93715 -12.71968,-0.0128 -4.73792,1.2608 -8.61741,3.6128 -12.16889,7.3776 -13.19101,13.98314 -6.31728,37.21363 12.40857,41.93613 3.77098,0.95101 10.16752,0.75363 13.76,-0.42455 z m -774.74156,301.557 c 0,-4.312 0.0453,-6.076 0.10066,-3.92 0.0554,2.156 0.0554,5.684 0,7.84 -0.0554,2.156 -0.10066,0.392 -0.10066,-3.92 z m 216.90768,-73.18176 c 0.31136,-0.0811 0.74336,-0.0758 0.96,0.0118 0.21667,0.0876 -0.0381,0.15402 -0.56608,0.14752 -0.528,-0.006 -0.70525,-0.0782 -0.39392,-0.15939 z m 8.64,0 c 0.31136,-0.0811 0.74336,-0.0758 0.96,0.0118 0.21667,0.0876 -0.0381,0.15402 -0.56608,0.14752 -0.528,-0.006 -0.70525,-0.0782 -0.39392,-0.15939 z m 18.79392,-8.85907 c 0,-0.0664 0.252,-0.31843 0.56,-0.56 0.50755,-0.39801 0.51885,-0.38672 0.12083,0.12083 -0.41805,0.53303 -0.68083,0.70256 -0.68083,0.43917 z m 2.24,-2.24 c 0,-0.0664 0.252,-0.31843 0.56,-0.56 0.50755,-0.39801 0.51885,-0.38672 0.12083,0.12083 -0.41805,0.53303 -0.68083,0.70256 -0.68083,0.43917 z m -87.40081,-18.35917 c -0.39804,-0.50755 -0.38672,-0.51884 0.12082,-0.12083 0.53304,0.41805 0.70255,0.68083 0.43918,0.68083 -0.0664,0 -0.31845,-0.252 -0.56,-0.56 z m -6.05011,-5.75999 -1.74907,-1.84 1.84,1.74905 c 1.012,0.96202 1.84,1.79002 1.84,1.84 0,0.23754 -0.30599,-0.0396 -1.93093,-1.74905 z m -5.78989,-6.08 c -0.39804,-0.50756 -0.38672,-0.51885 0.12082,-0.12084 0.308,0.24157 0.56,0.49357 0.56,0.56 0,0.2634 -0.26278,0.0939 -0.68082,-0.43916 z m 280.97657,-22.08 -0.77577,-0.88 0.88,0.77577 c 0.82249,0.72509 1.02675,0.98423 0.77577,0.98423 -0.0573,0 -0.45331,-0.396 -0.88,-0.88 z m -310.32523,-34.96 c 0,-0.44 0.0726,-0.62 0.16141,-0.4 0.0888,0.22 0.0888,0.58 0,0.8 -0.0888,0.22 -0.16141,0.04 -0.16141,-0.4 z m -0.26082,-5.28 c 0.001,-1.408 0.0574,-1.94419 0.12502,-1.19155 0.0676,0.75267 0.0666,1.90467 -0.002,2.56 -0.0688,0.65536 -0.12407,0.0395 -0.12291,-1.36845 z m 290.82081,-2.72 c 0,-0.44 0.0726,-0.62 0.1614,-0.4 0.0888,0.22 0.0888,0.58 0,0.8 -0.0888,0.22 -0.1614,0.04 -0.1614,-0.4 z m -290.58525,-2.42666 c 0.0154,-0.3728 0.0912,-0.4486 0.19334,-0.19334 0.0924,0.23101 0.0811,0.50701 -0.0252,0.61334 -0.10634,0.10634 -0.18197,-0.0827 -0.16807,-0.42 z m 290.27709,-0.29334 c 0.006,-0.528 0.0782,-0.70525 0.15939,-0.39392 0.0811,0.31136 0.0758,0.74336 -0.0118,0.96 -0.0876,0.21667 -0.15402,-0.0381 -0.14752,-0.56608 z m -0.2552,-7.84 c 0,-2.552 0.0497,-3.596 0.11043,-2.32 0.0607,1.276 0.0607,3.364 0,4.64 -0.0607,1.276 -0.11043,0.232 -0.11043,-2.32 z m 0.24336,-7.68 c 0,-0.44 0.0726,-0.62 0.1614,-0.4 0.0888,0.22 0.0888,0.58 0,0.8 -0.0888,0.22 -0.1614,0.04 -0.1614,-0.4 z m 0.32,-2.88 c 0,-0.44 0.0726,-0.62 0.1614,-0.4 0.0888,0.22 0.0888,0.58 0,0.8 -0.0888,0.22 -0.1614,0.04 -0.1614,-0.4 z m 132.72523,-49.19999 -0.77577,-0.88 0.88,0.77577 c 0.82249,0.72509 1.02675,0.98423 0.77577,0.98423 -0.0573,0 -0.45331,-0.396 -0.88,-0.88 z m -2.2566,-1.92 c -0.39802,-0.50756 -0.38672,-0.51885 0.12083,-0.12084 0.53302,0.41805 0.70256,0.68084 0.43917,0.68084 -0.0664,0 -0.31844,-0.252 -0.56,-0.56 z m -191.37916,-5.0986 c 0.23101,-0.0924 0.50701,-0.0811 0.61335,0.0253 0.10633,0.10634 -0.0827,0.18199 -0.42,0.1681 -0.3728,-0.0154 -0.44861,-0.0912 -0.19335,-0.19334 z m 126.39999,-12.15999 c 0.23101,-0.0924 0.50701,-0.0811 0.61335,0.0253 0.10633,0.10633 -0.0827,0.18198 -0.42,0.16809 -0.3728,-0.0154 -0.44861,-0.0912 -0.19335,-0.19334 z m 27.52,0 c 0.23101,-0.0924 0.50701,-0.0811 0.61335,0.0253 0.10633,0.10633 -0.0827,0.18198 -0.42,0.16809 -0.3728,-0.0154 -0.44861,-0.0912 -0.19335,-0.19334 z m -25.6,-0.32 c 0.23101,-0.0925 0.50701,-0.0811 0.61335,0.0253 0.10633,0.10633 -0.0827,0.18198 -0.42,0.16809 -0.3728,-0.0154 -0.44861,-0.0912 -0.19335,-0.19334 z m 23.68,0 c 0.23101,-0.0925 0.50701,-0.0811 0.61335,0.0253 0.10633,0.10633 -0.0827,0.18198 -0.42,0.16809 -0.3728,-0.0154 -0.44861,-0.0912 -0.19335,-0.19334 z m -21.12,-0.32 c 0.23101,-0.0924 0.50701,-0.0811 0.61335,0.0253 0.10633,0.10633 -0.0827,0.18198 -0.42,0.16809 -0.3728,-0.0154 -0.44861,-0.0912 -0.19335,-0.19334 z m 18.54,0.007 c 0.22,-0.0888 0.58,-0.0888 0.8,0 0.22,0.0888 0.04,0.1614 -0.4,0.1614 -0.44,0 -0.62,-0.0726 -0.4,-0.1614 z m -15.52,-0.32864 c 0.308,-0.0805 0.812,-0.0805 1.12,0 0.308,0.0805 0.056,0.14633 -0.56,0.14633 -0.616,0 -0.868,-0.0658 -0.56,-0.14633 z m 11.84,0 c 0.308,-0.0805 0.812,-0.0805 1.12,0 0.308,0.0805 0.056,0.14633 -0.56,0.14633 -0.616,0 -0.868,-0.0658 -0.56,-0.14633 z m -132.15282,-2.65949 c 0,-0.792 0.0624,-1.116 0.13866,-0.72 0.0763,0.396 0.0763,1.044 0,1.44 -0.0763,0.396 -0.13866,0.072 -0.13866,-0.72 z m -3.648,-10.16 c -0.39802,-0.50755 -0.38672,-0.51885 0.12083,-0.12083 0.53303,0.41804 0.70256,0.68083 0.43917,0.68083 -0.0664,0 -0.31843,-0.252 -0.56,-0.56 z m -15.95917,-33.84 c 4.8376,-4.84 8.86765,-8.8 8.95565,-8.8 0.088,0 -3.79805,3.96 -8.63565,8.8 -4.8376,4.84 -8.86764,8.8 -8.95564,8.8 -0.088,0 3.79804,-3.96 8.63564,-8.8 z m -32.47999,7.84 c 0.31856,-0.352 0.6512,-0.64 0.7392,-0.64 0.088,0 -0.10064,0.288 -0.4192,0.64 -0.31856,0.352 -0.6512,0.64 -0.7392,0.64 -0.088,0 0.10064,-0.288 0.4192,-0.64 z m 13.85999,-4.37859 c 0.23101,-0.0924 0.50701,-0.0811 0.61335,0.0253 0.10633,0.10633 -0.0827,0.18198 -0.42,0.16809 -0.3728,-0.0154 -0.44861,-0.0912 -0.19335,-0.19334 z m 592.77994,-15.05062 c 0.484,-0.0733 1.276,-0.0733 1.76,0 0.484,0.0733 0.088,0.13331 -0.88,0.13331 -0.968,0 -1.364,-0.06 -0.88,-0.13331 z m -3.34,-0.30938 c 0.231,-0.0924 0.507,-0.0811 0.6134,0.0253 0.1063,0.10634 -0.083,0.18198 -0.42,0.1681 -0.3728,-0.0154 -0.4486,-0.0912 -0.1934,-0.19335 z m 8,0 c 0.231,-0.0924 0.507,-0.0811 0.6134,0.0253 0.1063,0.10634 -0.083,0.18198 -0.42,0.1681 -0.3728,-0.0154 -0.4486,-0.0912 -0.1934,-0.19335 z m -560.31994,-2.56 c 0.23101,-0.0924 0.50701,-0.0811 0.61335,0.0253 0.10633,0.10634 -0.0827,0.18198 -0.42,0.1681 -0.3728,-0.0154 -0.44861,-0.0912 -0.19335,-0.19335 z m 5.12,0 c 0.23101,-0.0924 0.50701,-0.0811 0.61335,0.0253 0.10633,0.10634 -0.0827,0.18198 -0.42,0.1681 -0.3728,-0.0154 -0.44861,-0.0912 -0.19335,-0.19335 z m 590.13994,-24.58141 c 11.351,-11.352 20.7102,-20.63999 20.7982,-20.63999 0.088,0 -9.1272,9.28799 -20.4782,20.63999 -11.351,11.352 -20.7101,20.64 -20.7981,20.64 -0.088,0 9.1271,-9.288 20.4781,-20.64 z m -715.20035,-37.83999 -46.23958,-46.32 46.38688,46.24 c 25.51277,25.43199 46.45277,46.27599 46.53334,46.31999 0.0806,0.044 0.0141,0.08 -0.14729,0.08 -0.16157,0 -21.10157,-20.844 -46.53335,-46.31999 z m 742.10565,4.21334 c 0.015,-0.3728 0.091,-0.44861 0.1933,-0.19334 0.092,0.231 0.081,0.507 -0.025,0.61334 -0.1063,0.10634 -0.182,-0.0827 -0.1681,-0.42 z m 0.3571,-2.53334 c 0.01,-0.528 0.078,-0.70525 0.1594,-0.39392 0.081,0.31136 0.076,0.74336 -0.012,0.96 -0.088,0.21667 -0.154,-0.0381 -0.1475,-0.56608 z m 0,-4.8 c 0.01,-0.528 0.078,-0.70525 0.1594,-0.39392 0.081,0.31136 0.076,0.74336 -0.012,0.96 -0.088,0.21667 -0.154,-0.0381 -0.1475,-0.56608 z m -0.3571,-2.58666 c 0.015,-0.3728 0.091,-0.44861 0.1933,-0.19334 0.092,0.23101 0.081,0.50701 -0.025,0.61334 -0.1063,0.10634 -0.182,-0.0827 -0.1681,-0.42 z m -6.1461,-12.85334 c -0.398,-0.50755 -0.3867,-0.51885 0.1208,-0.12083 0.308,0.24156 0.56,0.49356 0.56,0.56 0,0.26339 -0.2628,0.0939 -0.6808,-0.43917 z m -2.88,-2.88 c -0.398,-0.50755 -0.3867,-0.51885 0.1208,-0.12083 0.533,0.41804 0.7026,0.68083 0.4392,0.68083 -0.066,0 -0.3184,-0.252 -0.56,-0.56 z M 732.73995,401.38138 c 0.231,-0.0924 0.507,-0.0811 0.61334,0.0253 0.10633,0.10633 -0.0827,0.18198 -0.42,0.16809 -0.3728,-0.0154 -0.44861,-0.0912 -0.19334,-0.19334 z m -15.36,-1.6 c 0.231,-0.0924 0.507,-0.0811 0.61334,0.0253 0.10634,0.10633 -0.0827,0.18198 -0.42,0.16809 -0.3728,-0.0154 -0.44861,-0.0912 -0.19334,-0.19334 z m -6.08,-0.64 c 0.231,-0.0925 0.507,-0.0811 0.61334,0.0253 0.10634,0.10633 -0.0827,0.18198 -0.42,0.16809 -0.3728,-0.0154 -0.44861,-0.0912 -0.19334,-0.19334 z m -6.08,-0.64 c 0.23101,-0.0924 0.50701,-0.0811 0.61334,0.0253 0.10634,0.10633 -0.0827,0.18198 -0.42,0.16809 -0.3728,-0.0154 -0.44861,-0.0912 -0.19334,-0.19334 z m -6.08,-0.64 c 0.23101,-0.0924 0.50701,-0.0811 0.61334,0.0253 0.10634,0.10633 -0.0827,0.18198 -0.42,0.16809 -0.3728,-0.0154 -0.44861,-0.0912 -0.19334,-0.19334 z m -15.36,-1.6 c 0.23101,-0.0924 0.50701,-0.0811 0.61334,0.0253 0.10634,0.10633 -0.0827,0.18198 -0.42,0.16809 -0.3728,-0.0154 -0.44861,-0.0912 -0.19334,-0.19334 z m -6.08,-0.64 c 0.23101,-0.0924 0.50701,-0.0811 0.61334,0.0253 0.10634,0.10633 -0.0827,0.18198 -0.42,0.16809 -0.3728,-0.0154 -0.4486,-0.0912 -0.19334,-0.19334 z m -6.08,-0.64 c 0.23101,-0.0924 0.50701,-0.0811 0.61334,0.0253 0.10634,0.10633 -0.0827,0.18198 -0.42,0.16809 -0.3728,-0.0154 -0.4486,-0.0912 -0.19334,-0.19334 z m -6.08,-0.64 c 0.23101,-0.0925 0.50701,-0.0811 0.61334,0.0253 0.10634,0.10633 -0.0827,0.18198 -0.42,0.16809 -0.3728,-0.0154 -0.4486,-0.0912 -0.19334,-0.19334 z m 376.77995,-4.80199 c 0.308,-0.0805 0.812,-0.0805 1.12,0 0.308,0.0805 0.056,0.14634 -0.56,0.14634 -0.616,0 -0.868,-0.0659 -0.56,-0.14634 z m 4.8,0 c 0.308,-0.0805 0.812,-0.0805 1.12,0 0.308,0.0805 0.056,0.14634 -0.56,0.14634 -0.616,0 -0.868,-0.0659 -0.56,-0.14634 z m -17.8831,-15.93942 c 0,-1.76 0.055,-2.43917 0.1194,-1.50928 0.065,0.92992 0.064,2.36992 0,3.2 -0.066,0.83011 -0.1187,0.0693 -0.1179,-1.69072 z m 39.8088,-2.9519 c 0.5752,-0.0712 1.4392,-0.0698 1.92,0.003 0.4809,0.073 0.01,0.13126 -1.0457,0.12947 -1.056,-0.003 -1.4494,-0.0615 -0.8743,-0.13274 z m -10.1899,-4.4881 -0.7758,-0.88 0.88,0.77578 c 0.8225,0.72509 1.0268,0.98422 0.7758,0.98422 -0.057,0 -0.4533,-0.396 -0.88,-0.88 z m -148.11052,-7.94665 c 0.0154,-0.3728 0.0912,-0.44861 0.19334,-0.19335 0.0924,0.23101 0.0811,0.50701 -0.0253,0.61335 -0.10633,0.10633 -0.18198,-0.0827 -0.16809,-0.42 z m 174.40002,-0.96 c 0.015,-0.3728 0.091,-0.44861 0.1933,-0.19335 0.092,0.23101 0.081,0.50701 -0.025,0.61335 -0.1063,0.10633 -0.182,-0.0827 -0.1681,-0.42 z m -30.6581,-2.05335 c 0,-0.792 0.062,-1.116 0.1386,-0.72 0.076,0.396 0.076,1.044 0,1.44 -0.076,0.396 -0.1386,0.072 -0.1386,-0.72 z m -143.98218,-1.12 c 0,-1.232 0.0593,-1.6968 0.12855,-1.03286 0.0693,0.66394 0.0681,1.67194 -0.003,2.24 -0.0707,0.56806 -0.12736,0.025 -0.12595,-1.20714 z m 174.66548,-0.8 c 0,-0.44 0.073,-0.62 0.1615,-0.4 0.089,0.22 0.089,0.58 0,0.8 -0.089,0.22 -0.1615,0.04 -0.1615,-0.4 z m -174.42522,-3.38665 c 0.0154,-0.3728 0.0912,-0.44861 0.19334,-0.19335 0.0924,0.23101 0.0811,0.50701 -0.0253,0.61335 -0.10633,0.10633 -0.18198,-0.0827 -0.16809,-0.42 z m 148.13472,-5.41335 c 0.5971,-0.616 1.1576,-1.12 1.2456,-1.12 0.088,0 -0.3285,0.504 -0.9256,1.12 -0.597,0.616 -1.1575,1.12 -1.2455,1.12 -0.088,0 0.3285,-0.504 0.9255,-1.12 z m 10,-4.55312 c 0.66,-0.069 1.74,-0.069 2.4,0 0.66,0.0691 0.12,0.12554 -1.2,0.12554 -1.32,0 -1.86,-0.0565 -1.2,-0.12554 z M 937.75993,315.51998 c 11.61501,-11.616 21.19017,-21.12 21.27817,-21.12 0.088,0 -9.34316,9.504 -20.95817,21.12 -11.61501,11.616 -21.19017,21.11999 -21.27817,21.11999 -0.088,0 9.34316,-9.50399 20.95817,-21.11999 z m 168.72567,15.12809 c 0.5752,-0.0712 1.4392,-0.0698 1.92,0.003 0.4809,0.073 0.01,0.13127 -1.0457,0.12947 -1.056,-0.003 -1.4494,-0.0615 -0.8743,-0.13273 z m -12.005,-12.72809 c 0,-0.704 0.069,-0.95432 0.1457,-0.55627 0.077,0.39805 0.074,0.97405 -0.01,1.28 -0.08,0.30595 -0.1428,-0.0197 -0.1392,-0.72373 z m 2.4793,-7.64082 c 0,-0.0664 0.252,-0.31845 0.56,-0.56 0.5076,-0.39804 0.5189,-0.38672 0.1208,0.12082 -0.418,0.53304 -0.6808,0.70255 -0.6808,0.43918 z m 19.1828,-1.39918 -1.1028,-1.2 1.2,1.10277 c 1.1169,1.02644 1.3472,1.29723 1.1028,1.29723 -0.053,0 -0.5935,-0.54 -1.2,-1.2 z m -11.2428,-3.4986 c 0.231,-0.0924 0.507,-0.0811 0.6134,0.0253 0.1063,0.10633 -0.083,0.18196 -0.42,0.16807 -0.3728,-0.0154 -0.4486,-0.0912 -0.1934,-0.19333 z m 4.48,0 c 0.231,-0.0924 0.507,-0.0811 0.6134,0.0253 0.1063,0.10633 -0.083,0.18196 -0.42,0.16807 -0.3728,-0.0154 -0.4486,-0.0912 -0.1934,-0.19333 z m -315.51996,-7.68 c 0.23101,-0.0924 0.50701,-0.0811 0.61334,0.0253 0.10634,0.10633 -0.0827,0.18197 -0.42,0.16807 -0.3728,-0.0154 -0.4486,-0.0912 -0.19334,-0.19333 z m 203.21915,-0.3414 c -0.39801,-0.50754 -0.38672,-0.51886 0.12084,-0.12082 0.308,0.24155 0.56,0.49355 0.56,0.56 0,0.26337 -0.26279,0.0939 -0.68084,-0.43918 z m -208.67915,0.0281 c 0.22,-0.0888 0.58,-0.0888 0.8,0 0.22,0.0888 0.04,0.16141 -0.4,0.16141 -0.44,0 -0.62,-0.0726 -0.4,-0.16141 z m -5.12,-0.32 c 0.22,-0.0888 0.58,-0.0888 0.8,0 0.22,0.0888 0.04,0.16141 -0.4,0.16141 -0.44,0 -0.62,-0.0726 -0.4,-0.16141 z m -5.12,-0.32 c 0.22,-0.0888 0.58,-0.0888 0.8,0 0.22,0.0888 0.04,0.16141 -0.4,0.16141 -0.44,0 -0.62,-0.0726 -0.4,-0.16141 z m -5.44,-0.32 c 0.22,-0.0888 0.58,-0.0888 0.8,0 0.22,0.0888 0.04,0.16141 -0.4,0.16141 -0.44,0 -0.62,-0.0726 -0.4,-0.16141 z m -5.12,-0.32 c 0.22,-0.0888 0.58,-0.0888 0.8,0 0.22,0.0888 0.04,0.16141 -0.4,0.16141 -0.44,0 -0.62,-0.0726 -0.4,-0.16141 z m -5.12,-0.32 c 0.22,-0.0888 0.58,-0.0888 0.8,0 0.22,0.0888 0.04,0.16141 -0.4,0.16141 -0.44,0 -0.62,-0.0726 -0.4,-0.16141 z m -5.12,-0.32 c 0.22,-0.0888 0.58,-0.0888 0.8,0 0.22,0.0888 0.04,0.16141 -0.4,0.16141 -0.44,0 -0.62,-0.0726 -0.4,-0.16141 z m -5.44,-0.32 c 0.22,-0.0888 0.58,-0.0888 0.8,0 0.22,0.0888 0.04,0.16141 -0.4,0.16141 -0.44,0 -0.62,-0.0726 -0.4,-0.16141 z m -5.12,-0.32 c 0.22,-0.0888 0.58,-0.0888 0.8,0 0.22,0.0888 0.04,0.16141 -0.4,0.16141 -0.44,0 -0.62,-0.0726 -0.4,-0.16141 z m 247.39915,-0.34806 c -0.39801,-0.50754 -0.38672,-0.51886 0.12084,-0.12082 0.53302,0.41804 0.70256,0.68082 0.43916,0.68082 -0.0664,0 -0.31843,-0.252 -0.56,-0.56 z m -252.51915,0.0281 c 0.22,-0.0888 0.58,-0.0888 0.8,0 0.22,0.0888 0.04,0.16141 -0.4,0.16141 -0.44,0 -0.62,-0.0726 -0.4,-0.16141 z m -5.27392,-0.32983 c 0.31136,-0.0811 0.74336,-0.0758 0.96,0.0119 0.21668,0.0876 -0.0381,0.15404 -0.56608,0.14751 -0.528,-0.007 -0.70524,-0.0782 -0.39392,-0.15937 z m -5.28607,-0.31017 c 0.22,-0.0888 0.58,-0.0888 0.8,0 0.22,0.0888 0.04,0.16141 -0.4,0.16141 -0.44,0 -0.62,-0.0726 -0.4,-0.16141 z m -5.12,-0.32 c 0.22,-0.0888 0.58,-0.0888 0.8,0 0.22,0.0888 0.04,0.16141 -0.4,0.16141 -0.44,0 -0.62,-0.0726 -0.4,-0.16141 z m -5.12,-0.32 c 0.22,-0.0888 0.58,-0.0888 0.8,0 0.22,0.0888 0.04,0.16141 -0.4,0.16141 -0.44,0 -0.62,-0.0726 -0.4,-0.16141 z m -5.44,-0.32 c 0.22,-0.0888 0.58,-0.0888 0.8,0 0.22,0.0888 0.04,0.16141 -0.4,0.16141 -0.44,0 -0.62,-0.0726 -0.4,-0.16141 z m -5.12,-0.32 c 0.22,-0.0888 0.58,-0.0888 0.8,0 0.22,0.0888 0.04,0.16141 -0.4,0.16141 -0.44,0 -0.62,-0.0726 -0.4,-0.16141 z m -4.78,-0.32666 c 0.23101,-0.0924 0.50701,-0.0811 0.61334,0.0252 0.10634,0.10634 -0.0827,0.18197 -0.42,0.16807 -0.3728,-0.0154 -0.44861,-0.0912 -0.19334,-0.19333 z m -1.72013,-1.14141 -0.93987,-1.04 1.04,0.93987 c 0.96944,0.87609 1.1871,1.14013 0.93987,1.14013 -0.0551,0 -0.52307,-0.468 -1.04,-1.04 z m 269.54011,-3.01193 c 0.22,-0.0888 0.58,-0.0888 0.8,0 0.22,0.0888 0.04,0.16141 -0.4,0.16141 -0.44,0 -0.62,-0.0726 -0.4,-0.16141 z m 5.76,0 c 0.22,-0.0888 0.58,-0.0888 0.8,0 0.22,0.0888 0.04,0.16141 -0.4,0.16141 -0.44,0 -0.62,-0.0726 -0.4,-0.16141 z m 169.76437,-5.13769 c 0.4864,-0.0736 1.2064,-0.0716 1.6,0.004 0.3936,0.076 0,0.13613 -0.8844,0.13373 -0.88,-0.003 -1.202,-0.0645 -0.7156,-0.1381 z m -456.88982,-4.01037 -3.51453,-3.6 3.6,3.51454 c 3.34381,3.26445 3.74531,3.68546 3.51453,3.68546 -0.047,0 -1.66698,-1.62 -3.6,-3.6 z m 452.64542,-7.76 c 0.4134,-0.44 0.8236,-0.8 0.9116,-0.8 0.088,0 -0.1782,0.36 -0.5916,0.8 -0.4133,0.44 -0.8235,0.8 -0.9115,0.8 -0.088,0 0.1782,-0.36 0.5915,-0.8 z m 9.5758,-0.08 -0.7758,-0.88 0.88,0.77578 c 0.484,0.42668 0.88,0.82268 0.88,0.88 0,0.25097 -0.2591,0.0467 -0.9842,-0.77578 z m -5.172,-1.90632 c 0.398,-0.0765 0.974,-0.0736 1.28,0.006 0.3059,0.0801 -0.02,0.14272 -0.7238,0.13917 -0.704,-0.004 -0.9543,-0.0691 -0.5562,-0.14563 z m -470.94733,-4.39718 c -1.656,-1.66293 -3.12916,-2.95043 -3.27367,-2.86112 -0.14451,0.0893 -0.26275,0.01 -0.26275,-0.17649 0,-0.70193 0.57811,-0.25247 3.68,2.86111 1.75341,1.76 3.11584,3.2 3.02768,3.2 -0.0882,0 -1.51523,-1.36058 -3.17126,-3.0235 z"
         id="path1098" />
      <path
         style="fill:#f9ae39;stroke-width:0.32"
         d="m 366.48605,763.29818 c 0.31136,-0.0811 0.74336,-0.0758 0.96,0.0118 0.21667,0.0876 -0.0381,0.15402 -0.56608,0.14752 -0.528,-0.006 -0.70525,-0.0782 -0.39392,-0.15939 z m 5.59392,0.01 c 0.22,-0.0888 0.58,-0.0888 0.8,0 0.22,0.0888 0.04,0.16141 -0.4,0.16141 -0.44,0 -0.62,-0.0726 -0.4,-0.16141 z m -8.94,-0.32665 c 0.23101,-0.0924 0.50701,-0.0811 0.61335,0.0253 0.10633,0.10633 -0.0827,0.18198 -0.42,0.16809 -0.3728,-0.0154 -0.44861,-0.0912 -0.19335,-0.19334 z m 25.98,-5.66234 c 0,-0.0664 0.252,-0.31843 0.56,-0.56 0.50755,-0.39801 0.51885,-0.38672 0.12083,0.12083 -0.41805,0.53303 -0.68083,0.70256 -0.68083,0.43917 z m 3.94458,-4.03165 c 1.439,-1.71017 3.41484,-5.95696 4.31161,-9.26716 0.76256,-2.81479 0.82906,-3.57389 0.82867,-9.46036 0,-5.74771 -0.0897,-6.82399 -0.87654,-10.55999 -3.96525,-18.82771 -16.18237,-39.43267 -33.96832,-57.28976 -18.31696,-18.39021 -38.94559,-30.70694 -58.20066,-34.74982 -2.36909,-0.49744 -4.82973,-0.72048 -9.15933,-0.83027 -6.55158,-0.16615 -10.04796,0.31132 -14.01577,1.91398 -1.09133,0.44083 -1.98423,0.77062 -1.98423,0.73293 0,-0.46103 159.65541,-91.22297 166.39999,-94.59615 3.63209,-1.81652 10.94662,-3.89389 10.50448,-2.98336 -1.54016,3.17187 -1.62695,3.49763 -1.60452,6.0224 0.0574,6.45631 4.67626,14.81235 12.15619,21.99177 6.81351,6.53974 14.54125,10.50829 20.46228,10.50829 2.5408,0 3.94608,-0.39005 5.46204,-1.5161 l 1.06048,-0.78771 -0.21206,1.2319 c -0.63159,3.66871 -1.76416,7.21651 -3.23024,10.11869 -1.75011,3.46442 -92.41356,163.34348 -93.49551,164.8732 -1.62935,2.30368 -3.6186,4.57645 -4.54039,5.18749 -0.77321,0.51255 -0.77014,0.49629 0.10183,-0.53997 z m -80.14539,-14.64752 c -0.39804,-0.50755 -0.38672,-0.51884 0.12082,-0.12083 0.53304,0.41805 0.70255,0.68083 0.43918,0.68083 -0.0664,0 -0.31845,-0.252 -0.56,-0.56 z m -1.92,-1.6 c -0.39804,-0.50755 -0.38672,-0.51884 0.12082,-0.12083 0.53304,0.41805 0.70255,0.68083 0.43918,0.68083 -0.0665,0 -0.31845,-0.252 -0.56,-0.56 z m -2.06959,-1.76 -0.60959,-0.72 0.72,0.6096 c 0.396,0.33527 0.72,0.65927 0.72,0.72 0,0.25607 -0.25754,0.067 -0.83041,-0.6096 z m -3.18972,-2.87999 -0.93987,-1.04 1.04,0.93987 c 0.96942,0.87609 1.18708,1.14012 0.93987,1.14012 -0.0551,0 -0.52308,-0.46799 -1.04,-1.03999 z m -8.96,-8.96 -0.93987,-1.04 1.04,0.93987 c 0.572,0.51693 1.04,0.98493 1.04,1.04 0,0.24723 -0.26404,0.0294 -1.14013,-0.93987 z m -2.89028,-3.2 -0.60959,-0.72 0.72,0.6096 c 0.67662,0.57286 0.86567,0.8304 0.60959,0.8304 -0.0607,0 -0.38472,-0.324 -0.72,-0.72 z m -2.09041,-2.4 c -0.39804,-0.50756 -0.38672,-0.51885 0.12082,-0.12084 0.308,0.24157 0.56,0.49357 0.56,0.56 0,0.2634 -0.26278,0.0939 -0.68082,-0.43916 z m -25.53392,-51.14666 c 0.0154,-0.3728 0.0912,-0.4486 0.19334,-0.19334 0.0924,0.23101 0.0811,0.50701 -0.0252,0.61334 -0.10634,0.10634 -0.18197,-0.0827 -0.16807,-0.42 z m -0.32,-2.88 c 0.0154,-0.3728 0.0912,-0.4486 0.19334,-0.19334 0.0924,0.23101 0.0811,0.50701 -0.0252,0.61334 -0.10634,0.10634 -0.18197,-0.0827 -0.16807,-0.42 z m 0,-8.32 c 0.0154,-0.3728 0.0912,-0.4486 0.19334,-0.19334 0.0924,0.23101 0.0811,0.50701 -0.0252,0.61334 -0.10634,0.10634 -0.18197,-0.0827 -0.16807,-0.42 z m 7.33474,-16.93334 c 0.59705,-0.616 1.15755,-1.12 1.24555,-1.12 0.088,0 -0.3285,0.504 -0.92555,1.12 -0.59705,0.616 -1.15755,1.12 -1.24555,1.12 -0.088,0 0.3285,-0.504 0.92555,-1.12 z"
         id="path1096" />
      <path
         style="fill:#f6921d;stroke-width:0.32"
         d="m 182.5224,854.42755 c -0.86559,-0.39309 -1.74432,-1.19427 -2.56151,-2.33545 l -1.24392,-1.73712 -1.27849,0.59193 c -3.70494,1.71543 -7.84869,-1.03958 -7.83323,-5.208 0.0109,-2.94329 -0.22063,-2.75117 20.78585,-17.24832 l 19.35111,-13.35475 -0.0908,-2.52793 c -0.25664,-7.14256 4.43579,-12.93002 11.54576,-14.24007 5.73447,-1.05664 12.09846,2.22084 14.63585,7.53744 3.8865,8.14346 -0.4703,17.30464 -9.30611,19.56826 -2.46214,0.63078 -5.00935,0.46259 -8.03449,-0.5305 l -2.10889,-0.69229 -8.48705,5.85632 -8.48705,5.85632 1.97529,2.88404 c 1.85416,2.70713 1.97529,2.99625 1.97529,4.71478 0,2.05331 -0.59179,3.12928 -2.39674,4.35773 -1.37007,0.93248 -3.89137,0.98096 -5.33196,0.10252 -0.55478,-0.33827 -1.84442,-1.84038 -2.86587,-3.33798 l -1.85717,-2.72291 -0.89904,0.53107 c -0.49447,0.2921 -1.28026,0.83507 -1.7462,1.20659 l -0.84716,0.67549 1.21127,1.96243 c 1.12396,1.82096 1.20121,2.10157 1.07163,3.89293 -0.11486,1.58794 -0.30636,2.10781 -1.0792,2.9296 -1.7798,1.89254 -3.79756,2.31213 -6.09714,1.26787 z m 47.48051,-41.62588 c 2.1388,-1.30403 2.89883,-3.95904 1.79762,-6.27968 -1.55949,-3.28637 -6.2975,-3.53626 -8.38249,-0.44205 -0.62964,0.93443 -0.73336,1.42493 -0.62594,2.96032 0.10476,1.49715 0.30397,2.02547 1.06832,2.83325 0.51676,0.54611 1.22756,1.11283 1.57956,1.25939 1.19375,0.49702 3.47623,0.33133 4.56293,-0.33123 z m 135.04292,-49.63773 c -12.18413,-1.17517 -26.97254,-7.10393 -40.88585,-16.39132 -27.23033,-18.1768 -49.62416,-47.16915 -56.17447,-72.72675 -3.96608,-15.47456 -2.09287,-27.57981 5.44709,-35.20093 4.11829,-4.16262 8.79465,-6.50656 14.94805,-7.49235 3.61824,-0.57965 12.65819,-0.25059 16.77866,0.61075 19.215,4.01677 39.883,16.35594 58.20066,34.74685 17.78595,17.85709 30.00307,38.46205 33.96832,57.28976 0.78682,3.736 0.87616,4.81228 0.87654,10.55999 0,5.88743 -0.066,6.64525 -0.82915,9.46234 -1.51117,5.57834 -4.07603,9.7848 -7.90323,12.96154 -4.13123,3.42908 -9.56185,5.56959 -15.73843,6.20345 -3.60586,0.37002 -4.63878,0.36726 -8.68819,-0.0234 z M 483.35753,574.1236 c -9.10035,-2.60707 -20.20473,-12.29577 -25.17292,-21.96364 -2.05888,-4.00647 -2.85658,-6.7759 -2.88525,-10.01683 -0.0205,-2.32538 0.0919,-2.88237 0.90102,-4.46455 0.76871,-1.5031 1.21335,-1.95862 2.63859,-2.70316 1.47063,-0.76829 2.08384,-0.89492 4.31754,-0.89165 1.4319,0.003 3.32346,0.19664 4.20345,0.43232 13.68013,3.66413 28.65325,20.58259 28.63687,32.35744 -0.005,3.77529 -1.71575,6.46144 -4.76461,7.48223 -1.57312,0.52669 -5.64486,0.40666 -7.87469,-0.23216 z"
         id="path1094" />
      <path
         style="fill:#7787a2;stroke-width:0.32"
         d="m 617.59995,1057.1591 c 0,-0.066 0.252,-0.3184 0.56,-0.56 0.50756,-0.398 0.51885,-0.3867 0.12084,0.1208 -0.41805,0.533 -0.68084,0.7026 -0.68084,0.4392 z m 6.4,-6.7592 c 0.41335,-0.44 0.82356,-0.8 0.91156,-0.8 0.088,0 -0.17821,0.36 -0.59156,0.8 -0.41334,0.44 -0.82355,0.8 -0.91155,0.8 -0.088,0 0.17821,-0.36 0.59155,-0.8 z m 5.76,-6.0201 c 0,-0.055 0.468,-0.5231 1.04,-1.04 l 1.04,-0.9399 -0.93987,1.04 c -0.8761,0.9695 -1.14013,1.1871 -1.14013,0.9399 z m 6.72,-7.04 c 0,-0.055 0.468,-0.5231 1.04,-1.04 l 1.04,-0.9399 -0.93987,1.04 c -0.8761,0.9695 -1.14013,1.1871 -1.14013,0.9399 z m 6.4,-6.72 c 0,-0.055 0.468,-0.5231 1.04,-1.04 l 1.04,-0.9399 -0.93987,1.04 c -0.8761,0.9695 -1.14013,1.1871 -1.14013,0.9399 z M 318.39998,995.39909 c 0,-0.0664 0.252,-0.31843 0.56,-0.56 0.50754,-0.39801 0.51885,-0.38672 0.12082,0.12084 -0.41804,0.53302 -0.68082,0.70256 -0.68082,0.43916 z m 6.4,-7.36 c 0,-0.0664 0.252,-0.31843 0.56,-0.56 0.50755,-0.39801 0.51884,-0.38672 0.12083,0.12084 -0.41805,0.53302 -0.68083,0.70256 -0.68083,0.43916 z m 6.4,-7.36 c 0,-0.0664 0.252,-0.31843 0.56,-0.56 0.50755,-0.39801 0.51884,-0.38672 0.12083,0.12084 -0.41805,0.53302 -0.68083,0.70256 -0.68083,0.43916 z m 6.39999,-7.35999 c 0,-0.0664 0.252,-0.31844 0.56,-0.56 0.50756,-0.39802 0.51885,-0.38672 0.12084,0.12083 -0.41805,0.53302 -0.68084,0.70256 -0.68084,0.43917 z m 521.21997,-3.93776 c 0.231,-0.0924 0.507,-0.0811 0.61334,0.0253 0.10634,0.10633 -0.0827,0.18198 -0.42,0.16809 -0.3728,-0.0154 -0.44861,-0.0912 -0.19334,-0.19334 z m -6.08,-0.64 c 0.231,-0.0924 0.507,-0.0811 0.61334,0.0253 0.10634,0.10633 -0.0827,0.18198 -0.42,0.16809 -0.3728,-0.0154 -0.44861,-0.0912 -0.19334,-0.19334 z m -6.08,-0.64 c 0.231,-0.0925 0.507,-0.0811 0.61334,0.0253 0.10634,0.10633 -0.0827,0.18198 -0.42,0.16809 -0.3728,-0.0154 -0.44861,-0.0912 -0.19334,-0.19334 z m -3.2,-0.32 c 0.231,-0.0924 0.507,-0.0811 0.61334,0.0253 0.10634,0.10633 -0.0827,0.18198 -0.42,0.16809 -0.3728,-0.0154 -0.44861,-0.0912 -0.19334,-0.19334 z m -2.88,-0.32 c 0.231,-0.0924 0.507,-0.0811 0.61334,0.0253 0.10634,0.10633 -0.0827,0.18198 -0.42,0.16809 -0.3728,-0.0154 -0.44861,-0.0912 -0.19334,-0.19334 z m -3.2,-0.32 c 0.23101,-0.0924 0.50701,-0.0811 0.61334,0.0253 0.10634,0.10633 -0.0827,0.18198 -0.42,0.16809 -0.3728,-0.0154 -0.44861,-0.0912 -0.19334,-0.19334 z m -6.08,-0.64 c 0.23101,-0.0924 0.50701,-0.0811 0.61334,0.0253 0.10634,0.10633 -0.0827,0.18198 -0.42,0.16809 -0.3728,-0.0154 -0.44861,-0.0912 -0.19334,-0.19334 z m -6.08,-0.64 c 0.23101,-0.0924 0.50701,-0.0811 0.61334,0.0253 0.10634,0.10633 -0.0827,0.18198 -0.42,0.16809 -0.3728,-0.0154 -0.44861,-0.0912 -0.19334,-0.19334 z m -6.08,-0.64 c 0.23101,-0.0925 0.50701,-0.0811 0.61334,0.0253 0.10634,0.10633 -0.0827,0.18198 -0.42,0.16809 -0.3728,-0.0154 -0.44861,-0.0912 -0.19334,-0.19334 z m -6.08,-0.64 c 0.23101,-0.0924 0.50701,-0.0811 0.61334,0.0253 0.10634,0.10633 -0.0827,0.18198 -0.42,0.16809 -0.3728,-0.0154 -0.4486,-0.0912 -0.19334,-0.19334 z m -3.2,-0.32 c 0.23101,-0.0924 0.50701,-0.0811 0.61334,0.0253 0.10634,0.10633 -0.0827,0.18198 -0.42,0.16809 -0.3728,-0.0154 -0.4486,-0.0912 -0.19334,-0.19334 z m -2.88,-0.32 c 0.23101,-0.0924 0.50701,-0.0811 0.61334,0.0253 0.10634,0.10633 -0.0827,0.18198 -0.42,0.16809 -0.3728,-0.0154 -0.4486,-0.0912 -0.19334,-0.19334 z m -3.2,-0.32 c 0.23101,-0.0924 0.50701,-0.0811 0.61334,0.0253 0.10634,0.10633 -0.0827,0.18198 -0.42,0.16809 -0.3728,-0.0154 -0.4486,-0.0912 -0.19334,-0.19334 z m -6.08,-0.64 c 0.23101,-0.0925 0.50701,-0.0811 0.61334,0.0253 0.10634,0.10633 -0.0827,0.18198 -0.42,0.16809 -0.3728,-0.0154 -0.4486,-0.0912 -0.19334,-0.19334 z m -6.08,-0.64 c 0.23101,-0.0924 0.50701,-0.0811 0.61334,0.0253 0.10634,0.10633 -0.0827,0.18198 -0.42,0.16809 -0.3728,-0.0154 -0.4486,-0.0912 -0.19334,-0.19334 z M 359.03997,948.6791 c 0,-0.0664 0.252,-0.31844 0.56,-0.56 0.50755,-0.39802 0.51885,-0.38672 0.12084,0.12083 -0.41805,0.53302 -0.68084,0.70256 -0.68084,0.43917 z M 230.65998,875.94134 c 0.231,-0.0924 0.507,-0.0811 0.61334,0.0253 0.10633,0.10634 -0.0827,0.18199 -0.42,0.1681 -0.37279,-0.0154 -0.44861,-0.0912 -0.19334,-0.19335 z m -28.48,-3.84 c 0.231,-0.0925 0.50701,-0.0811 0.61334,0.0253 0.10633,0.10634 -0.0827,0.18199 -0.42,0.1681 -0.37278,-0.0154 -0.44861,-0.0912 -0.19334,-0.19335 z m -11.83999,-1.6 c 0.23099,-0.0924 0.507,-0.0811 0.61333,0.0253 0.10633,0.10634 -0.0827,0.18199 -0.42,0.1681 -0.37278,-0.0154 -0.44861,-0.0912 -0.19333,-0.19335 z m -28.48,-3.84 c 0.231,-0.0924 0.507,-0.0811 0.61333,0.0253 0.10634,0.10634 -0.0827,0.18199 -0.42,0.1681 -0.37278,-0.0154 -0.44861,-0.0912 -0.19333,-0.19334 z m -11.84,-1.6 c 0.231,-0.0924 0.507,-0.0811 0.61333,0.0253 0.10634,0.10634 -0.0827,0.18199 -0.42,0.1681 -0.37278,-0.0154 -0.4486,-0.0912 -0.19333,-0.19334 z m -2.04162,-43.9414 c 0,-4.312 0.0453,-6.076 0.10066,-3.92 0.0554,2.156 0.0554,5.684 0,7.84 -0.0554,2.156 -0.10066,0.392 -0.10066,-3.92 z m 474.02158,7.13417 c 0.396,-0.0763 1.044,-0.0763 1.44,0 0.396,0.0763 0.072,0.13866 -0.72,0.13866 -0.792,0 -1.116,-0.0624 -0.72,-0.13866 z m -3.18,-0.31276 c 0.23101,-0.0925 0.50701,-0.0811 0.61335,0.0253 0.10633,0.10633 -0.0827,0.18198 -0.42,0.16809 -0.3728,-0.0154 -0.44861,-0.0912 -0.19335,-0.19334 z m 7.34,0.007 c 0.22,-0.0888 0.58,-0.0888 0.8,0 0.22,0.0888 0.04,0.1614 -0.4,0.1614 -0.44,0 -0.62,-0.0726 -0.4,-0.1614 z m -21.53507,-7.22807 -1.26493,-1.36 1.36,1.26493 c 0.748,0.69574 1.36,1.30774 1.36,1.36 0,0.24211 -0.27868,-1.3e-4 -1.45507,-1.26493 z m 42.76032,-11.94665 c 0.0154,-0.3728 0.0912,-0.44861 0.19334,-0.19335 0.0924,0.23101 0.0811,0.50701 -0.0253,0.61335 -0.10633,0.10633 -0.18198,-0.0827 -0.16809,-0.42 z m 0.32,-1.6 c 0.0154,-0.3728 0.0912,-0.44861 0.19334,-0.19335 0.0924,0.23101 0.0811,0.50701 -0.0253,0.61335 -0.10633,0.10633 -0.18198,-0.0827 -0.16809,-0.42 z m -50.191,-2.05341 c 0,-0.616 0.0659,-0.868 0.14633,-0.56 0.0805,0.308 0.0805,0.812 0,1.12 -0.0805,0.308 -0.14633,0.056 -0.14633,-0.56 z m 50.59334,-2.24 c 0,-1.32 0.0565,-1.86 0.12553,-1.2 0.069,0.66 0.069,1.74 0,2.4 -0.069,0.66 -0.12553,0.12 -0.12553,-1.2 z m -50.59334,-2.24 c 0,-0.616 0.0659,-0.868 0.14633,-0.56 0.0805,0.308 0.0805,0.812 0,1.12 -0.0805,0.308 -0.14633,0.056 -0.14633,-0.56 z m 50.191,-1.78666 c 0.0154,-0.3728 0.0912,-0.4486 0.19334,-0.19334 0.0924,0.23101 0.0811,0.50701 -0.0253,0.61334 -0.10633,0.10634 -0.18198,-0.0827 -0.16809,-0.42 z m -49.92,-0.64 c 0.0154,-0.3728 0.0912,-0.4486 0.19335,-0.19334 0.0924,0.23101 0.0811,0.50701 -0.0253,0.61334 -0.10634,0.10634 -0.18199,-0.0827 -0.1681,-0.42 z m 4.77475,-10.81417 c 0,-0.0664 0.252,-0.31843 0.56,-0.56 0.50756,-0.39802 0.51885,-0.38672 0.12084,0.12083 -0.41805,0.53302 -0.68084,0.70256 -0.68084,0.43917 z m 39.31917,-1.07917 c -0.39802,-0.50755 -0.38672,-0.51885 0.12083,-0.12083 0.53303,0.41805 0.70256,0.68083 0.43917,0.68083 -0.0664,0 -0.31843,-0.252 -0.56,-0.56 z m -2.70957,-2.72 -0.6096,-0.72 0.72,0.6096 c 0.396,0.33527 0.72,0.65927 0.72,0.72 0,0.25607 -0.25753,0.067 -0.8304,-0.6096 z m -32.7696,-0.0408 c 0,-0.0664 0.252,-0.31843 0.56,-0.56 0.50756,-0.39802 0.51885,-0.38672 0.12084,0.12083 -0.41805,0.53303 -0.68084,0.70256 -0.68084,0.43917 z m 11.14,-5.53776 c 0.23101,-0.0924 0.50701,-0.0811 0.61335,0.0253 0.10633,0.10634 -0.0827,0.18198 -0.42,0.1681 -0.3728,-0.0154 -0.44861,-0.0912 -0.19335,-0.19335 z m 1.9,-0.31334 c 0.22,-0.0888 0.58,-0.0888 0.8,0 0.22,0.0888 0.04,0.1614 -0.4,0.1614 -0.44,0 -0.62,-0.0726 -0.4,-0.1614 z m 5.92608,-0.01 c 0.31136,-0.0811 0.74336,-0.0758 0.96,0.0118 0.21668,0.0876 -0.0381,0.15401 -0.56608,0.14752 -0.528,-0.006 -0.70524,-0.0782 -0.39392,-0.1594 z m 68.95392,-22.08973 c 0.572,-0.071 1.508,-0.071 2.08,0 0.572,0.071 0.104,0.12906 -1.04,0.12906 -1.144,0 -1.612,-0.0581 -1.04,-0.12906 z m -3.18,-0.3071 c 0.23101,-0.0924 0.50701,-0.0811 0.61334,0.0253 0.10634,0.10633 -0.0827,0.18198 -0.42,0.16809 -0.3728,-0.0154 -0.44861,-0.0912 -0.19334,-0.19334 z m 7.98,0.007 c 0.22,-0.0888 0.58,-0.0888 0.8,0 0.22,0.0888 0.04,0.1614 -0.4,0.1614 -0.44,0 -0.62,-0.0726 -0.4,-0.1614 z m -20.5904,-5.94807 -0.6096,-0.72 0.72,0.6096 c 0.396,0.33527 0.72,0.65927 0.72,0.72 0,0.25607 -0.25754,0.067 -0.8304,-0.6096 z m -2.24,-2.24 -0.6096,-0.72 0.72,0.6096 c 0.67661,0.57287 0.86566,0.8304 0.6096,0.8304 -0.0607,0 -0.38474,-0.324 -0.72,-0.72 z m 44.05564,-12.90665 c 0.0154,-0.3728 0.0912,-0.44861 0.19335,-0.19335 0.0924,0.23101 0.0811,0.50701 -0.0253,0.61335 -0.10634,0.10633 -0.18199,-0.0827 -0.1681,-0.42 z m -50.21471,-1.09331 c 0,-0.44 0.0726,-0.62 0.16141,-0.4 0.0888,0.22 0.0888,0.58 0,0.79999 -0.0888,0.22 -0.16141,0.04 -0.16141,-0.39999 z m 50.60537,-2.88 c 0,-0.968 0.06,-1.364 0.13331,-0.88 0.0733,0.484 0.0733,1.276 0,1.76 -0.0733,0.484 -0.13331,0.088 -0.13331,-0.88 z m -50.59353,-2.72 c 0.006,-0.528 0.0782,-0.70525 0.15939,-0.39392 0.0811,0.31136 0.0758,0.74336 -0.0118,0.96 -0.0876,0.21667 -0.15402,-0.0381 -0.14752,-0.56608 z m 50.22815,-1.12 c 0,-0.44 0.0726,-0.62 0.16141,-0.4 0.0888,0.22 0.0888,0.58 0,0.8 -0.0888,0.22 -0.16141,0.04 -0.16141,-0.4 z M 670.4252,725.2538 c 0.0154,-0.3728 0.0912,-0.44861 0.19334,-0.19334 0.0924,0.231 0.0811,0.507 -0.0253,0.61334 -0.10633,0.10634 -0.18198,-0.0827 -0.16809,-0.42 z m 4.77475,-10.49418 c 0,-0.0664 0.252,-0.31843 0.56,-0.56 0.50755,-0.39801 0.51885,-0.38672 0.12083,0.12084 -0.41805,0.53302 -0.68083,0.70256 -0.68083,0.43916 z m 38.08,-2.27916 c -0.77728,-0.792 -1.34125,-1.44 -1.25325,-1.44 0.088,0 0.79597,0.648 1.57325,1.44 0.77728,0.792 1.34124,1.44 1.25324,1.44 -0.088,0 -0.79596,-0.648 -1.57324,-1.44 z m -34.24,-1.56084 c 0,-0.0664 0.252,-0.31843 0.56,-0.56 0.50755,-0.39801 0.51885,-0.38672 0.12083,0.12084 -0.41805,0.53302 -0.68083,0.70256 -0.68083,0.43916 z m 21.06,-5.53775 c 0.23101,-0.0924 0.50701,-0.0811 0.61334,0.0253 0.10634,0.10633 -0.0827,0.18198 -0.42,0.16809 -0.3728,-0.0154 -0.44861,-0.0912 -0.19334,-0.19334 z m -7.53392,-0.32317 c 0.31136,-0.0811 0.74336,-0.0758 0.96,0.0118 0.21667,0.0877 -0.0381,0.15401 -0.56608,0.14752 -0.528,-0.006 -0.70525,-0.0782 -0.39392,-0.15939 z m 4.79392,0 c 0.308,-0.0805 0.812,-0.0805 1.12,0 0.308,0.0805 0.056,0.14633 -0.56,0.14633 -0.616,0 -0.868,-0.0658 -0.56,-0.14633 z m -61.36,-58.65824 c 31.15162,-31.152 56.71133,-56.63999 56.79933,-56.63999 0.088,0 -25.32771,25.48799 -56.47933,56.63999 -31.15161,31.152 -56.71132,56.64 -56.79932,56.64 -0.088,0 25.32771,-25.488 56.47932,-56.64 z m -58.10422,55.12 -0.77577,-0.88 0.88,0.77577 c 0.82249,0.72509 1.02675,0.98423 0.77577,0.98423 -0.0573,0 -0.45331,-0.396 -0.88,-0.88 z m -2.89661,-3.2 c -0.39801,-0.50755 -0.38672,-0.51885 0.12084,-0.12083 0.308,0.24156 0.56,0.49356 0.56,0.56 0,0.26339 -0.26279,0.0938 -0.68084,-0.43917 z m 197.10082,-0.61859 c 0.23101,-0.0924 0.50701,-0.0811 0.61335,0.0253 0.10633,0.10633 -0.0827,0.18198 -0.42,0.16809 -0.3728,-0.0154 -0.44861,-0.0912 -0.19335,-0.19334 z m -11.22,-0.31335 c 0.22,-0.0888 0.58,-0.0888 0.8,0 0.22,0.0888 0.04,0.16141 -0.4,0.16141 -0.44,0 -0.62,-0.0726 -0.4,-0.16141 z m 12.8,0 c 0.22,-0.0888 0.58,-0.0888 0.8,0 0.22,0.0888 0.04,0.16141 -0.4,0.16141 -0.44,0 -0.62,-0.0726 -0.4,-0.16141 z m 3.22,-0.64665 c 0.23101,-0.0924 0.50701,-0.0811 0.61335,0.0253 0.10633,0.10633 -0.0827,0.18198 -0.42,0.16809 -0.3728,-0.0154 -0.44861,-0.0912 -0.19335,-0.19334 z m -20.42,-0.41136 c 0,-0.1705 0.216,-0.22708 0.48,-0.12576 0.264,0.10131 0.48,0.24076 0.48,0.30995 0,0.0692 -0.216,0.12576 -0.48,0.12576 -0.264,0 -0.48,-0.13949 -0.48,-0.30995 z m -1.28,-0.34893 c 0,-0.1864 0.144,-0.24989 0.32,-0.14112 0.176,0.10877 0.32,0.26128 0.32,0.33888 0,0.0776 -0.144,0.14112 -0.32,0.14112 -0.176,0 -0.32,-0.15251 -0.32,-0.33888 z m 24.64,0.0189 c 0,-0.176 0.15251,-0.32 0.33888,-0.32 0.1864,0 0.24989,0.144 0.14112,0.32 -0.10877,0.176 -0.26128,0.32 -0.33888,0.32 -0.0776,0 -0.14112,-0.144 -0.14112,-0.32 z m -26.88,-0.97888 c 0,-0.1864 0.144,-0.24989 0.32,-0.14112 0.176,0.10877 0.32,0.26128 0.32,0.33888 0,0.0776 -0.144,0.14112 -0.32,0.14112 -0.176,0 -0.32,-0.15251 -0.32,-0.33888 z m 32.32,-1.26112 c 0,-0.176 0.15251,-0.32 0.33888,-0.32 0.1864,0 0.24989,0.144 0.14112,0.32 -0.10877,0.176 -0.26128,0.32 -0.33888,0.32 -0.0776,0 -0.14112,-0.144 -0.14112,-0.32 z m -36.64,-0.64 c -0.10876,-0.176 -0.0453,-0.32 0.14112,-0.32 0.18637,0 0.33888,0.144 0.33888,0.32 0,0.176 -0.0635,0.32 -0.14112,0.32 -0.0776,0 -0.23011,-0.144 -0.33888,-0.32 z m 38.72,-0.64 c 0.10877,-0.176 0.34176,-0.32 0.51776,-0.32 0.176,0 0.23101,0.144 0.12224,0.32 -0.10877,0.176 -0.34176,0.32 -0.51776,0.32 -0.176,0 -0.23101,-0.144 -0.12224,-0.32 z m -41.12,-0.8 c -0.22617,-0.27251 -0.3392,-0.56746 -0.2512,-0.65546 0.088,-0.088 0.34503,0.063 0.5712,0.33546 0.22618,0.27251 0.3392,0.56745 0.2512,0.65545 -0.088,0.088 -0.34502,-0.0629 -0.5712,-0.33545 z m -1.7904,-1.52 -0.6096,-0.72 0.72,0.6096 c 0.67661,0.57286 0.86567,0.8304 0.6096,0.8304 -0.0607,0 -0.38473,-0.324 -0.72,-0.72 z m 47.5504,-0.88 c 0,-0.176 0.15251,-0.32 0.33888,-0.32 0.1864,0 0.24989,0.144 0.14112,0.32 -0.10877,0.176 -0.26128,0.32 -0.33888,0.32 -0.0776,0 -0.14112,-0.144 -0.14112,-0.32 z m -51.78592,-2.68589 c -1.26176,-1.30125 -2.29408,-2.46618 -2.29408,-2.58877 0,-0.19629 5.11021,4.67165 5.11725,4.87466 0.015,0.43744 -0.90451,-0.30717 -2.82317,-2.28589 z m 50.02051,-0.14685 c -0.10784,-0.1072 -5.13161,-0.43926 -6.31459,-0.41741 -0.41238,0.008 -0.56777,-0.25852 -0.58953,-1.00972 -0.1096,-3.78375 -0.59741,-10.22467 -0.78938,-10.42224 -0.0652,-0.0671 0.52432,-0.87469 1.31014,-1.7945 0.78583,-0.91981 1.42877,-1.81923 1.42877,-1.99872 0,-0.17945 0.19722,-0.48998 0.43827,-0.69001 0.24103,-0.20007 0.6816,-1.0457 0.97904,-1.8792 0.29744,-0.83351 0.69133,-1.78973 0.87536,-2.12493 1.03431,-1.88423 1.29843,-8.39837 0.48202,-11.88784 -0.26093,-1.1152 -1.85459,-4.75581 -2.30374,-5.26269 -0.23396,-0.264 -0.41988,-0.6016 -0.41319,-0.75017 0.007,-0.14861 -0.65216,-1.03972 -1.46416,-1.98023 -1.10451,-1.27936 -1.33494,-1.70934 -0.91497,-1.70736 0.30876,0 1.92937,-0.088 3.60137,-0.19878 3.03949,-0.20141 5.62854,-0.36685 6.9327,-0.44301 0.62183,-0.0363 0.71431,-0.27782 0.90391,-2.36045 0.26614,-2.92333 0.50819,-7.1447 0.48157,-8.39891 l -0.0205,-0.95888 1.59401,1.57005 c 0.87674,0.86355 1.56909,1.65507 1.53856,1.75891 -0.0304,0.10387 0.62029,1.05283 1.44627,2.10883 0.82599,1.056 1.47117,1.992 1.4338,2.08 -0.0374,0.088 0.22988,0.592 0.59395,1.12 0.68349,0.99127 1.71344,3.07783 1.65856,3.36 -0.017,0.088 0.16809,0.52 0.41161,0.96 0.24349,0.44 0.45786,0.872 0.47632,0.96 0.0186,0.088 0.22784,0.808 0.46525,1.6 1.39773,4.66295 1.69639,6.74733 1.69639,11.84 0,4.42211 -0.30151,6.99507 -1.18122,10.08 -0.0502,0.176 -0.20848,0.752 -0.35174,1.28 -0.1433,0.528 -0.55005,1.608 -0.90391,2.4 -0.35389,0.792 -0.65683,1.512 -0.67325,1.6 -0.11123,0.59648 -1.04428,2.55949 -1.59705,3.36 -0.36458,0.528 -0.61303,1.0072 -0.5521,1.06486 0.0609,0.0577 -0.58761,0.97821 -1.44125,2.04557 -0.85363,1.06739 -1.72268,2.24429 -1.93126,2.61536 -0.20858,0.37107 -0.83024,1.10656 -1.38144,1.63443 -0.93178,0.89229 -1.1713,0.95978 -3.40678,0.95978 -1.3225,0 -2.45559,-0.0507 -2.51796,-0.11274 z m -13.59459,-8.04726 c 0,-0.176 0.15251,-0.32 0.33888,-0.32 0.1864,0 0.24989,0.144 0.14112,0.32 -0.10877,0.176 -0.26128,0.32 -0.33888,0.32 -0.0776,0 -0.14112,-0.144 -0.14112,-0.32 z m 1.92643,-1.12774 c 0.22263,-0.26826 0.47066,-0.42183 0.5512,-0.34128 0.22192,0.22192 -0.22896,0.82902 -0.61571,0.82902 -0.21219,0 -0.1879,-0.18362 0.0645,-0.48774 z m -24.16643,-1.43226 c -0.31856,-0.352 -0.4352,-0.64 -0.2592,-0.64 0.176,0 0.58064,0.288 0.8992,0.64 0.31856,0.352 0.4352,0.64 0.2592,0.64 -0.176,0 -0.58064,-0.288 -0.8992,-0.64 z m -3.03356,-3.03226 c -0.25242,-0.30412 -0.27671,-0.48774 -0.0645,-0.48774 0.38676,0 0.83764,0.6071 0.61572,0.82902 -0.0806,0.0806 -0.32858,-0.073 -0.5512,-0.34128 z M 556.21049,652.79995 c 0,-0.44 0.0726,-0.62 0.1614,-0.4 0.0888,0.22 0.0888,0.58 0,0.8 -0.0888,0.22 -0.1614,0.04 -0.1614,-0.4 z m 194.66945,-6.08 c 0.10877,-0.176 0.34176,-0.32 0.51776,-0.32 0.176,0 0.23101,0.144 0.12224,0.32 -0.10876,0.176 -0.34176,0.32 -0.51776,0.32 -0.176,0 -0.231,-0.144 -0.12224,-0.32 z m 27.52,-5.12 c -0.10877,-0.176 -0.0453,-0.32 0.14112,-0.32 0.18637,0 0.33888,0.144 0.33888,0.32 0,0.176 -0.0635,0.32 -0.14112,0.32 -0.0776,0 -0.23011,-0.144 -0.33888,-0.32 z m -222.18945,-1.6 c 0,-0.44 0.0726,-0.62 0.1614,-0.4 0.0888,0.22 0.0888,0.58 0,0.8 -0.0888,0.22 -0.1614,0.04 -0.1614,-0.4 z m 178.82945,-1.28 c 0,-0.176 0.15252,-0.32 0.33888,-0.32 0.1864,0 0.24989,0.144 0.14112,0.32 -0.10876,0.176 -0.26128,0.32 -0.33888,0.32 -0.0776,0 -0.14112,-0.144 -0.14112,-0.32 z m 2.56,-3.38803 c 0,-0.17382 0.74957,-1.03062 1.66573,-1.904 l 1.66576,-1.58797 -1.39517,1.6 c -0.76732,0.88 -1.51692,1.7368 -1.66572,1.904 -0.17002,0.19101 -0.2706,0.18653 -0.2706,-0.0122 z m 5.12,-5.21773 c 0,-0.15718 0.23636,-0.37648 0.52525,-0.48733 0.4392,-0.16854 0.45901,-0.12169 0.12083,0.28576 -0.46083,0.5553 -0.64608,0.61306 -0.64608,0.20157 z m 3.84,-2.91424 c 0,-0.176 0.15252,-0.32 0.33888,-0.32 0.1864,0 0.24989,0.144 0.14112,0.32 -0.10876,0.176 -0.26128,0.32 -0.33888,0.32 -0.0776,0 -0.14112,-0.144 -0.14112,-0.32 z m 40.48,-0.96 c -0.10877,-0.176 -0.0453,-0.32 0.14112,-0.32 0.18637,0 0.33888,0.144 0.33888,0.32 0,0.176 -0.0635,0.32 -0.14112,0.32 -0.0776,0 -0.23011,-0.144 -0.33888,-0.32 z m -2.08,-1.29888 c 0,-0.1864 0.144,-0.24988 0.32,-0.14112 0.176,0.10877 0.32,0.26128 0.32,0.33888 0,0.0776 -0.144,0.14112 -0.32,0.14112 -0.176,0 -0.32,-0.15251 -0.32,-0.33888 z m -17.66,-4.03971 c 0.23101,-0.0924 0.50701,-0.0811 0.61335,0.0253 0.10633,0.10634 -0.0827,0.18199 -0.42,0.1681 -0.3728,-0.0154 -0.44861,-0.0912 -0.19335,-0.19335 z m 70.06,-8.65571 c 0.748,-0.0674 1.972,-0.0674 2.72,0 0.748,0.0674 0.136,0.1225 -1.36,0.1225 -1.496,0 -2.108,-0.0551 -1.36,-0.1225 z m -3.18,-0.30429 c 0.23101,-0.0924 0.50701,-0.0811 0.61334,0.0253 0.10634,0.10634 -0.0827,0.18199 -0.42,0.1681 -0.3728,-0.0154 -0.44861,-0.0912 -0.19334,-0.19335 z m 8.64,0 c 0.231,-0.0924 0.507,-0.0811 0.61334,0.0253 0.10634,0.10634 -0.0827,0.18199 -0.42,0.1681 -0.3728,-0.0154 -0.44861,-0.0912 -0.19334,-0.19335 z m 11.26,-4.70224 c 0,-0.0664 0.252,-0.31843 0.56,-0.56 0.50755,-0.39801 0.51884,-0.38672 0.12083,0.12083 -0.41805,0.53303 -0.68083,0.70256 -0.68083,0.43917 z m -35.24083,-4.27917 c -0.39802,-0.50755 -0.38672,-0.51884 0.12083,-0.12083 0.308,0.24157 0.56,0.49357 0.56,0.56 0,0.26339 -0.26279,0.0939 -0.68083,-0.43917 z m -278.75688,-29.75727 -29.03728,-29.03728 -3.76249,3.67552 -3.7625,3.67552 3.76074,-3.83728 3.76073,-3.83728 29.19904,29.19904 c 16.05949,16.05948 29.12704,29.19903 29.03904,29.19903 -0.088,0 -13.22675,-13.06678 -29.19728,-29.03727 z m 323.30295,19.25062 c 0.0154,-0.3728 0.0912,-0.44861 0.19335,-0.19334 0.0924,0.231 0.0811,0.507 -0.0253,0.61334 -0.10634,0.10634 -0.18199,-0.0827 -0.1681,-0.42 z m -49.89471,-2.05334 c 0,-0.44 0.0726,-0.62 0.1614,-0.4 0.0888,0.22 0.0888,0.58 0,0.8 -0.0888,0.22 -0.1614,0.04 -0.1614,-0.4 z m 50.21471,0.13334 c 0.0154,-0.3728 0.0912,-0.44861 0.19335,-0.19334 0.0924,0.231 0.0811,0.507 -0.0253,0.61334 -0.10634,0.10634 -0.18199,-0.0827 -0.1681,-0.42 z m -173.01563,-2.45334 -0.6096,-0.72 0.72,0.6096 c 0.67661,0.57286 0.86566,0.8304 0.6096,0.8304 -0.0607,0 -0.38474,-0.324 -0.72,-0.72 z m -2.73043,-2.4 c -0.39802,-0.50756 -0.38672,-0.51885 0.12083,-0.12084 0.308,0.24157 0.56,0.49357 0.56,0.56 0,0.2634 -0.26279,0.0939 -0.68083,-0.43916 z m 125.53135,-2 c 0,-0.44 0.0726,-0.62 0.1614,-0.4 0.0888,0.22 0.0888,0.58 0,0.8 -0.0888,0.22 -0.1614,0.04 -0.1614,-0.4 z m 50.21471,-0.18666 c 0.0154,-0.3728 0.0912,-0.44861 0.19335,-0.19334 0.0924,0.231 0.0811,0.507 -0.0253,0.61334 -0.10634,0.10634 -0.18199,-0.0827 -0.1681,-0.42 z m -0.32,-1.92 c 0.0154,-0.3728 0.0912,-0.44861 0.19335,-0.19334 0.0924,0.231 0.0811,0.507 -0.0253,0.61334 -0.10634,0.10634 -0.18199,-0.0827 -0.1681,-0.42 z m -368.72522,-1.95194 c 0.23101,-0.0924 0.50701,-0.0811 0.61335,0.0253 0.10633,0.10634 -0.0827,0.18199 -0.42,0.1681 -0.3728,-0.0154 -0.44861,-0.0912 -0.19335,-0.19334 z m 61.49945,-35.5414 -35.35945,-35.44 35.44,35.35946 c 19.492,19.44771 35.44,35.3957 35.44,35.43999 0,0.0443 -0.0363,0.0806 -0.0806,0.0806 -0.0443,0 -15.99229,-15.948 -35.44,-35.44 z m -51.83945,31.12 c 0.41335,-0.44 0.82355,-0.8 0.91155,-0.8 0.088,0 -0.1782,0.36 -0.59155,0.8 -0.41334,0.44 -0.82355,0.8 -0.91155,0.8 -0.088,0 0.17821,-0.36 0.59155,-0.8 z m 352.27914,-6.16 c -0.39801,-0.50755 -0.38672,-0.51885 0.12084,-0.12083 0.53302,0.41804 0.70256,0.68083 0.43916,0.68083 -0.0664,0 -0.31843,-0.252 -0.56,-0.56 z m -34.19916,-1.48083 c 0,-0.0664 0.252,-0.31844 0.56,-0.56 0.50755,-0.39802 0.51885,-0.38672 0.12083,0.12083 -0.41805,0.53302 -0.68083,0.70256 -0.68083,0.43917 z m -194.93999,-0.73776 c 0.23101,-0.0924 0.50701,-0.0811 0.61335,0.0253 0.10633,0.10633 -0.0827,0.18198 -0.42,0.16809 -0.3728,-0.0154 -0.44861,-0.0912 -0.19335,-0.19334 z m 16.64,0 c 0.23101,-0.0924 0.50701,-0.0811 0.61335,0.0253 0.10633,0.10633 -0.0827,0.18198 -0.42,0.16809 -0.3728,-0.0154 -0.44861,-0.0912 -0.19335,-0.19334 z m -12.66,-0.32199 c 0.308,-0.0805 0.812,-0.0805 1.12,0 0.308,0.0805 0.056,0.14634 -0.56,0.14634 -0.616,0 -0.868,-0.0659 -0.56,-0.14634 z m 8,0 c 0.308,-0.0805 0.812,-0.0805 1.12,0 0.308,0.0805 0.056,0.14634 -0.56,0.14634 -0.616,0 -0.868,-0.0659 -0.56,-0.14634 z m 194.41999,-4.47801 c 0.23101,-0.0925 0.50701,-0.0811 0.61334,0.0253 0.10634,0.10633 -0.0827,0.18198 -0.42,0.16809 -0.3728,-0.0154 -0.44861,-0.0912 -0.19334,-0.19334 z m 9.28,0 c 0.231,-0.0925 0.507,-0.0811 0.61334,0.0253 0.10634,0.10633 -0.0827,0.18198 -0.42,0.16809 -0.3728,-0.0154 -0.44861,-0.0912 -0.19334,-0.19334 z m -5.94,-0.33661 c 0.836,-0.0659 2.204,-0.0659 3.04,0 0.836,0.0659 0.152,0.11984 -1.52,0.11984 -1.672,0 -2.356,-0.0539 -1.52,-0.11984 z m -332.9042,-9.2848 -0.77578,-0.88 0.88,0.77577 c 0.484,0.42669 0.88,0.82269 0.88,0.88 0,0.25098 -0.25913,0.0467 -0.98422,-0.77577 z M 911.76601,535.7782 c 0.31136,-0.0811 0.74336,-0.0758 0.96,0.0118 0.21667,0.0877 -0.0381,0.15402 -0.56608,0.14752 -0.528,-0.006 -0.70525,-0.0782 -0.39392,-0.15939 z m 5.76,0 c 0.31136,-0.0811 0.74336,-0.0758 0.96,0.0118 0.21667,0.0877 -0.0381,0.15402 -0.56608,0.14752 -0.528,-0.006 -0.70525,-0.0782 -0.39392,-0.15939 z m 2.41392,-0.31683 c 0.23101,-0.0924 0.50701,-0.0811 0.61334,0.0253 0.10634,0.10633 -0.0827,0.18198 -0.42,0.16809 -0.37279,-0.0154 -0.4486,-0.0912 -0.19334,-0.19334 z m 10.62,-4.70224 c 0,-0.0664 0.252,-0.31843 0.56,-0.56 0.50755,-0.39802 0.51885,-0.38672 0.12083,0.12083 -0.41805,0.53302 -0.68083,0.70256 -0.68083,0.43917 z m -32.36083,-1.07917 c -0.39802,-0.50755 -0.38672,-0.51885 0.12083,-0.12083 0.308,0.24157 0.56,0.49357 0.56,0.56 0,0.26339 -0.26278,0.0938 -0.68083,-0.43917 z m -418.37926,-1.76 -0.93988,-1.04 1.04,0.93987 c 0.572,0.51693 1.04,0.98493 1.04,1.04 0,0.24723 -0.26403,0.0294 -1.14012,-0.93987 z m 415.98969,-0.64 -0.6096,-0.72 0.72,0.6096 c 0.67661,0.57286 0.86567,0.8304 0.6096,0.8304 -0.0607,0 -0.38473,-0.324 -0.72,-0.72 z m -437.88956,-0.0408 c 0,-0.0664 0.252,-0.31843 0.56,-0.56 0.50755,-0.39802 0.51884,-0.38672 0.12083,0.12083 -0.41805,0.53302 -0.68083,0.70256 -0.68083,0.43917 z m 476.47996,-0.32 c 0,-0.0664 0.252,-0.31843 0.56,-0.56 0.50755,-0.39802 0.51885,-0.38672 0.12083,0.12083 -0.41805,0.53302 -0.68083,0.70256 -0.68083,0.43917 z M 466.49997,523.3014 c 0.231,-0.0924 0.507,-0.0811 0.61334,0.0253 0.10633,0.10633 -0.0827,0.18198 -0.42,0.16809 -0.3728,-0.0154 -0.44861,-0.0912 -0.19334,-0.19334 z m 423.44521,-8.60806 c 0.0154,-0.3728 0.0912,-0.44861 0.19335,-0.19335 0.0924,0.23101 0.0811,0.50701 -0.0253,0.61335 -0.10634,0.10633 -0.18199,-0.0827 -0.1681,-0.42 z m 50.27712,-1.57335 c 0.006,-0.528 0.0782,-0.70525 0.15939,-0.39392 0.0811,0.31136 0.0758,0.74336 -0.0118,0.96 -0.0877,0.21667 -0.15402,-0.0381 -0.14752,-0.56608 z m -50.51737,-2.56 c 0,-1.232 0.0593,-1.6968 0.12854,-1.03286 0.0693,0.66393 0.0681,1.67193 -0.003,2.24 -0.0707,0.56806 -0.12736,0.025 -0.12595,-1.20714 z m -390.18497,-0.64 c 0.59706,-0.616 1.15754,-1.12 1.24554,-1.12 0.088,0 -0.32848,0.504 -0.92554,1.12 -0.59705,0.616 -1.15753,1.12 -1.24553,1.12 -0.088,0 0.32848,-0.504 0.92553,-1.12 z m 440.71421,-1.76 c 0,-0.616 0.0659,-0.868 0.14634,-0.56 0.0805,0.308 0.0805,0.812 0,1.12 -0.0805,0.308 -0.14634,0.056 -0.14634,-0.56 z m 121.14573,-0.21859 c 0.231,-0.0924 0.507,-0.0811 0.6134,0.0253 0.1063,0.10634 -0.083,0.18198 -0.42,0.1681 -0.3728,-0.0154 -0.4486,-0.0912 -0.1934,-0.19335 z m -171.40944,-1.38141 c 0,-0.44 0.0726,-0.62 0.16141,-0.4 0.0888,0.22 0.0888,0.58 0,0.8 -0.0888,0.22 -0.16141,0.04 -0.16141,-0.4 z m 49.89472,-0.82665 c 0.0154,-0.3728 0.0912,-0.44861 0.19334,-0.19335 0.0924,0.23101 0.0811,0.50701 -0.0253,0.61335 -0.10633,0.10633 -0.18198,-0.0827 -0.16809,-0.42 z M 509.05996,505.3814 c 0.23101,-0.0924 0.50701,-0.0811 0.61335,0.0253 0.10633,0.10634 -0.0827,0.18198 -0.42,0.1681 -0.3728,-0.0154 -0.44861,-0.0912 -0.19335,-0.19335 z m 572.53994,-3.10224 c 0,-0.0664 0.252,-0.31843 0.56,-0.56 0.5076,-0.39802 0.5189,-0.38672 0.1209,0.12083 -0.4181,0.53303 -0.6809,0.70256 -0.6809,0.43917 z m -148.79997,-9.63917 c -0.77728,-0.792 -1.34125,-1.44 -1.25325,-1.44 0.088,0 0.79597,0.648 1.57325,1.44 0.77728,0.792 1.34125,1.44 1.25325,1.44 -0.088,0 -0.79597,-0.648 -1.57325,-1.44 z m -29.20534,-4.67971 c 0.21709,-0.21869 0.47529,-0.31702 0.57382,-0.21849 0.0985,0.0985 -0.0791,0.27747 -0.39469,0.39763 -0.45606,0.17366 -0.4928,0.13689 -0.17913,-0.17914 z m 7.38534,-2.41888 c 0.23101,-0.0924 0.50701,-0.0811 0.61335,0.0253 0.10633,0.10634 -0.0827,0.18199 -0.42,0.1681 -0.3728,-0.0154 -0.44861,-0.0912 -0.19335,-0.19335 z m 7.68,0 c 0.23101,-0.0924 0.50701,-0.0811 0.61335,0.0253 0.10633,0.10634 -0.0827,0.18199 -0.42,0.1681 -0.3728,-0.0154 -0.44861,-0.0912 -0.19335,-0.19335 z m -4.33561,-0.33104 c 0.48643,-0.0735 1.20643,-0.0716 1.6,0.004 0.3936,0.0759 -0.004,0.13613 -0.88439,0.13373 -0.88,-0.003 -1.20201,-0.0645 -0.71561,-0.13811 z m 209.51558,-25.1712 c 0,-0.0664 0.252,-0.31843 0.56,-0.56 0.5076,-0.39801 0.5189,-0.38672 0.1208,0.12084 -0.418,0.53302 -0.6808,0.70256 -0.6808,0.43916 z M 993.87909,444.87997 c -0.39801,-0.50756 -0.38672,-0.51885 0.12084,-0.12084 0.308,0.24157 0.56,0.49357 0.56,0.56 0,0.2634 -0.26279,0.0939 -0.68084,-0.43916 z m 136.77671,-2.64 c 0,-0.968 0.06,-1.364 0.1333,-0.88 0.073,0.484 0.073,1.276 0,1.76 -0.073,0.484 -0.1333,0.088 -0.1333,-0.88 z m -138.84627,0.24 -0.6096,-0.72 0.72,0.6096 c 0.396,0.33526 0.72,0.65926 0.72,0.72 0,0.25606 -0.25754,0.067 -0.8304,-0.6096 z m -3.89744,-4.16647 -1.34109,-1.36646 20.7145,-20.63354 20.7144,-20.63353 -20.5619,20.64281 -20.56185,20.64282 1.35718,1.35718 c 0.74644,0.74647 1.28128,1.35719 1.18852,1.35719 -0.0928,0 -0.77216,-0.61491 -1.50976,-1.36647 z m -7.153,-6.55353 c -0.39801,-0.50755 -0.38672,-0.51885 0.12084,-0.12083 0.53302,0.41804 0.70256,0.68083 0.43916,0.68083 -0.0664,0 -0.31843,-0.252 -0.56,-0.56 z m 21.32081,-19.92 c 11.263,-11.264 20.5501,-20.48 20.6381,-20.48 0.088,0 -9.0551,9.216 -20.3181,20.48 -11.26295,11.264 -20.55009,20.48 -20.63809,20.48 -0.088,0 9.05514,-9.216 20.31809,-20.48 z m -23.24081,18.32 c -0.39801,-0.50755 -0.38672,-0.51885 0.12084,-0.12083 0.308,0.24156 0.56,0.49356 0.56,0.56 0,0.26339 -0.26279,0.0939 -0.68084,-0.43917 z m 143.86071,-7.2 -0.9399,-1.04 1.04,0.93987 c 0.572,0.51693 1.04,0.98493 1.04,1.04 0,0.24723 -0.264,0.0294 -1.1401,-0.93987 z M 935.29993,410.02138 c 0.23101,-0.0925 0.50701,-0.0811 0.61334,0.0253 0.10634,0.10633 -0.0827,0.18198 -0.42,0.16809 -0.3728,-0.0154 -0.4486,-0.0912 -0.19334,-0.19334 z m -1.6,-0.32 c 0.23101,-0.0924 0.50701,-0.0811 0.61334,0.0253 0.10634,0.10633 -0.0827,0.18198 -0.42,0.16809 -0.3728,-0.0154 -0.4486,-0.0912 -0.19334,-0.19334 z m -197.11999,-8 c 0.23101,-0.0924 0.50701,-0.0811 0.61335,0.0253 0.10633,0.10633 -0.0827,0.18198 -0.42,0.16809 -0.3728,-0.0154 -0.44861,-0.0912 -0.19335,-0.19334 z m -6.07999,-0.64 c 0.231,-0.0924 0.507,-0.0811 0.61334,0.0253 0.10634,0.10633 -0.0827,0.18198 -0.42,0.16809 -0.3728,-0.0154 -0.44861,-0.0912 -0.19334,-0.19334 z m -3.2,-0.32 c 0.231,-0.0924 0.507,-0.0811 0.61334,0.0253 0.10634,0.10633 -0.0827,0.18198 -0.42,0.16809 -0.3728,-0.0154 -0.44861,-0.0912 -0.19334,-0.19334 z m -2.88,-0.32 c 0.231,-0.0924 0.507,-0.0811 0.61334,0.0253 0.10634,0.10633 -0.0827,0.18198 -0.42,0.16809 -0.3728,-0.0154 -0.44861,-0.0912 -0.19334,-0.19334 z m -3.2,-0.32 c 0.231,-0.0924 0.507,-0.0811 0.61334,0.0253 0.10634,0.10633 -0.0827,0.18198 -0.42,0.16809 -0.3728,-0.0154 -0.44861,-0.0912 -0.19334,-0.19334 z m -6.08,-0.64 c 0.231,-0.0925 0.507,-0.0811 0.61334,0.0253 0.10634,0.10633 -0.0827,0.18198 -0.42,0.16809 -0.3728,-0.0154 -0.44861,-0.0912 -0.19334,-0.19334 z m -6.08,-0.64 c 0.231,-0.0924 0.507,-0.0811 0.61334,0.0253 0.10634,0.10633 -0.0827,0.18198 -0.42,0.16809 -0.3728,-0.0154 -0.44861,-0.0912 -0.19334,-0.19334 z m -6.08,-0.64 c 0.23101,-0.0924 0.50701,-0.0811 0.61334,0.0253 0.10634,0.10633 -0.0827,0.18198 -0.42,0.16809 -0.3728,-0.0154 -0.44861,-0.0912 -0.19334,-0.19334 z m -6.08,-0.64 c 0.23101,-0.0924 0.50701,-0.0811 0.61334,0.0253 0.10634,0.10633 -0.0827,0.18198 -0.42,0.16809 -0.3728,-0.0154 -0.44861,-0.0912 -0.19334,-0.19334 z m -3.2,-0.32 c 0.23101,-0.0924 0.50701,-0.0811 0.61334,0.0253 0.10634,0.10633 -0.0827,0.18198 -0.42,0.16809 -0.3728,-0.0154 -0.44861,-0.0912 -0.19334,-0.19334 z m -2.88,-0.32 c 0.23101,-0.0925 0.50701,-0.0811 0.61334,0.0253 0.10634,0.10633 -0.0827,0.18198 -0.42,0.16809 -0.3728,-0.0154 -0.44861,-0.0912 -0.19334,-0.19334 z M 362.71997,375.99997 c 11.43898,-11.44 20.87015,-20.8 20.95815,-20.8 0.088,0 -9.19917,9.36 -20.63815,20.8 -11.43897,11.44 -20.87014,20.8 -20.95814,20.8 -0.088,0 9.19917,-9.36 20.63814,-20.8 z m 324.89998,20.58141 c 0.23101,-0.0925 0.50701,-0.0811 0.61334,0.0253 0.10634,0.10633 -0.0827,0.18198 -0.42,0.16809 -0.3728,-0.0154 -0.44861,-0.0912 -0.19334,-0.19334 z m -6.08,-0.64 c 0.23101,-0.0924 0.50701,-0.0811 0.61334,0.0253 0.10634,0.10633 -0.0827,0.18198 -0.42,0.16809 -0.3728,-0.0154 -0.44861,-0.0912 -0.19334,-0.19334 z m -6.08,-0.64 c 0.23101,-0.0924 0.50701,-0.0811 0.61334,0.0253 0.10634,0.10633 -0.0827,0.18198 -0.42,0.16809 -0.3728,-0.0154 -0.4486,-0.0912 -0.19334,-0.19334 z m -6.08,-0.64 c 0.23101,-0.0924 0.50701,-0.0811 0.61334,0.0253 0.10634,0.10633 -0.0827,0.18198 -0.42,0.16809 -0.3728,-0.0154 -0.4486,-0.0912 -0.19334,-0.19334 z m -6.08,-0.64 c 0.23101,-0.0925 0.50701,-0.0811 0.61334,0.0253 0.10634,0.10633 -0.0827,0.18198 -0.42,0.16809 -0.3728,-0.0154 -0.4486,-0.0912 -0.19334,-0.19334 z m 381.26435,-4.49104 c 0.4864,-0.0735 1.2064,-0.0716 1.6,0.004 0.3936,0.0759 0,0.13613 -0.8844,0.13373 -0.88,-0.003 -1.202,-0.0645 -0.7156,-0.13812 z m 36.0756,-23.29037 c 0.4134,-0.44 0.8236,-0.8 0.9116,-0.8 0.088,0 -0.1782,0.36 -0.5916,0.8 -0.4133,0.44 -0.8235,0.8 -0.9115,0.8 -0.088,0 0.1782,-0.36 0.5915,-0.8 z m 4.5715,-10.88 c 0,-0.88 0.065,-1.20201 0.1382,-0.71561 0.073,0.48643 0.072,1.20643 0,1.6 -0.076,0.3936 -0.1362,-0.004 -0.1338,-0.88439 z m -4.5887,-10.96 -1.1028,-1.2 1.2,1.10279 c 0.66,0.60653 1.2,1.14653 1.2,1.2 0,0.24435 -0.2708,0.0141 -1.2972,-1.10279 z m 35.5372,-17.51999 c 0.5971,-0.616 1.1576,-1.12 1.2456,-1.12 0.088,0 -0.3285,0.504 -0.9256,1.12 -0.597,0.616 -1.1575,1.12 -1.2455,1.12 -0.088,0 0.3285,-0.504 0.9255,-1.12 z m 3.5453,-7.06667 c 0.015,-0.37278 0.091,-0.44861 0.1933,-0.19333 0.092,0.23099 0.081,0.507 -0.025,0.61334 -0.1063,0.10634 -0.182,-0.0827 -0.1681,-0.42001 z m -21.7853,-10.49415 c 0,-0.0665 0.252,-0.31845 0.56,-0.56 0.5076,-0.39804 0.5189,-0.38672 0.1208,0.12082 -0.418,0.53304 -0.6808,0.70255 -0.6808,0.43918 z m 7.94,-3.93778 c 0.231,-0.0924 0.507,-0.0811 0.6134,0.0253 0.1063,0.10633 -0.083,0.18196 -0.42,0.16807 -0.3728,-0.0154 -0.4486,-0.0912 -0.1934,-0.19333 z m 2.56,0 c 0.231,-0.0924 0.507,-0.0811 0.6134,0.0253 0.1063,0.10633 -0.083,0.18196 -0.42,0.16807 -0.3728,-0.0154 -0.4486,-0.0912 -0.1934,-0.19333 z m -316.01388,-7.68316 c 0.31136,-0.0811 0.74336,-0.0758 0.96,0.0119 0.21667,0.0877 -0.0381,0.15404 -0.56608,0.14752 -0.528,-0.007 -0.70525,-0.0782 -0.39392,-0.15937 z m -5.28608,-0.31017 c 0.22,-0.0888 0.58,-0.0888 0.8,0 0.22,0.0888 0.04,0.1614 -0.4,0.1614 -0.44,0 -0.62,-0.0726 -0.4,-0.1614 z m -5.12,-0.32 c 0.22,-0.0888 0.58,-0.0888 0.8,0 0.22,0.0888 0.04,0.1614 -0.4,0.1614 -0.44,0 -0.62,-0.0726 -0.4,-0.1614 z m -5.27392,-0.32983 c 0.31136,-0.0811 0.74336,-0.0758 0.96,0.0119 0.21667,0.0877 -0.0381,0.15404 -0.56608,0.14752 -0.528,-0.007 -0.70525,-0.0782 -0.39392,-0.15937 z m 218.93378,-0.81824 -0.93987,-1.04 1.04,0.93987 c 0.572,0.51692 1.04,0.98492 1.04,1.04 0,0.24722 -0.26404,0.0296 -1.14013,-0.93987 z m -224.21986,0.50807 c 0.22,-0.0888 0.58,-0.0888 0.8,0 0.22,0.0888 0.04,0.1614 -0.4,0.1614 -0.44,0 -0.62,-0.0726 -0.4,-0.1614 z m -5.12,-0.32 c 0.22,-0.0888 0.58,-0.0888 0.8,0 0.22,0.0888 0.04,0.1614 -0.4,0.1614 -0.44,0 -0.62,-0.0726 -0.4,-0.1614 z m -5.12,-0.32 c 0.22,-0.0888 0.58,-0.0888 0.8,0 0.22,0.0888 0.04,0.1614 -0.4,0.1614 -0.44,0 -0.62,-0.0726 -0.4,-0.1614 z m -5.27392,-0.32983 c 0.31136,-0.0811 0.74336,-0.0758 0.96,0.0119 0.21668,0.0877 -0.0381,0.15404 -0.56608,0.14752 -0.528,-0.007 -0.70524,-0.0782 -0.39392,-0.15937 z m -5.28608,-0.31017 c 0.22,-0.0888 0.58,-0.0888 0.8,0 0.22,0.0888 0.04,0.1614 -0.4,0.1614 -0.44,0 -0.62,-0.0726 -0.4,-0.1614 z m -5.12,-0.32 c 0.22,-0.0888 0.58,-0.0888 0.8,0 0.22,0.0888 0.04,0.1614 -0.4,0.1614 -0.44,0 -0.62,-0.0726 -0.4,-0.1614 z m -5.27392,-0.32983 c 0.31136,-0.0811 0.74336,-0.0758 0.96,0.0119 0.21668,0.0877 -0.0381,0.15404 -0.56608,0.14752 -0.528,-0.007 -0.70524,-0.0782 -0.39392,-0.15937 z m -5.28608,-0.31017 c 0.22,-0.0888 0.58,-0.0888 0.8,0 0.22,0.0888 0.04,0.1614 -0.4,0.1614 -0.44,0 -0.62,-0.0726 -0.4,-0.1614 z m -5.11999,-0.32 c 0.22,-0.0888 0.58,-0.0888 0.8,0 0.22,0.0888 0.04,0.1614 -0.4,0.1614 -0.44,0 -0.62,-0.0726 -0.4,-0.1614 z m -5.12,-0.32 c 0.22,-0.0888 0.58,-0.0888 0.8,0 0.22,0.0888 0.04,0.1614 -0.4,0.1614 -0.44,0 -0.62,-0.0726 -0.4,-0.1614 z m -5.27392,-0.32983 c 0.31136,-0.0811 0.74336,-0.0758 0.96,0.0119 0.21667,0.0877 -0.0381,0.15404 -0.56608,0.14752 -0.528,-0.007 -0.70525,-0.0782 -0.39392,-0.15937 z m -5.28608,-0.31017 c 0.22,-0.0888 0.58,-0.0888 0.8,0 0.22,0.0888 0.04,0.1614 -0.4,0.1614 -0.44,0 -0.62,-0.0726 -0.4,-0.1614 z m -5.12,-0.32 c 0.22,-0.0888 0.58,-0.0888 0.8,0 0.22,0.0888 0.04,0.1614 -0.4,0.1614 -0.44,0 -0.62,-0.0726 -0.4,-0.1614 z m -8.09002,-4.34807 -1.90998,-2 2,1.90998 c 1.1,1.05049 2,1.95049 2,2 0,0.23645 -0.31581,-0.0522 -2.09002,-1.90998 z m 274.49,-0.15311 c 0.66,-0.069 1.74,-0.069 2.4,0 0.66,0.069 0.12,0.12552 -1.2,0.12552 -1.32,0 -1.86,-0.0565 -1.2,-0.12552 z m 169.15917,-7.04689 c -0.398,-0.50754 -0.3867,-0.51886 0.1208,-0.12082 0.308,0.24155 0.56,0.49355 0.56,0.56 0,0.26337 -0.2628,0.0939 -0.6808,-0.43918 z m -458.04917,-7.52 -1.90998,-2 2,1.90998 c 1.1,1.05049 2,1.95049 2,2 0,0.23645 -0.31581,-0.0521 -2.09002,-1.90998 z m 327.55527,-69.54666 c 0.015,-0.37278 0.091,-0.44861 0.1933,-0.19334 0.092,0.231 0.081,0.50701 -0.025,0.61334 -0.1063,0.10633 -0.1819,-0.0827 -0.1681,-0.42 z m 0.96,-7.36 c 0.015,-0.37278 0.091,-0.44861 0.1933,-0.19333 0.092,0.23099 0.081,0.507 -0.025,0.61333 -0.1063,0.10633 -0.1819,-0.0827 -0.1681,-0.42 z m 3.52,-26.88 c 0.015,-0.37278 0.091,-0.44861 0.1933,-0.19333 0.092,0.231 0.081,0.507 -0.025,0.61333 -0.1063,0.10633 -0.1819,-0.0827 -0.1681,-0.42 z"
         id="path1092" />
      <path
         style="fill:#e14044;stroke-width:0.32"
         d="m 187.83999,853.9591 c 0,-0.0664 0.252,-0.31843 0.56,-0.56 0.50754,-0.39801 0.51885,-0.38672 0.12082,0.12084 -0.41804,0.53302 -0.68082,0.70256 -0.68082,0.43916 z m 1.98238,-4.19916 c 0.007,-0.528 0.0782,-0.70525 0.15937,-0.39392 0.0811,0.31136 0.0758,0.74336 -0.0119,0.96 -0.0877,0.21667 -0.15404,-0.0381 -0.14752,-0.56608 z m 8.0237,-1.02176 c 0.31136,-0.0811 0.74336,-0.0758 0.96,0.0118 0.21665,0.0876 -0.0381,0.15401 -0.56608,0.14752 -0.528,-0.006 -0.70527,-0.0782 -0.39392,-0.1594 z m 3.75391,-1.17908 c 0,-0.0664 0.252,-0.31843 0.56,-0.56 0.50754,-0.39801 0.51886,-0.38672 0.12082,0.12084 -0.41803,0.53302 -0.68082,0.70256 -0.68082,0.43916 z m -32.29473,-1.66582 c 0.0154,-0.3728 0.0912,-0.44861 0.19333,-0.19334 0.0924,0.231 0.0811,0.507 -0.0252,0.61334 -0.10633,0.10634 -0.18196,-0.0827 -0.16807,-0.42 z m 67.84,-32.64 c 0.0154,-0.3728 0.0912,-0.4486 0.19333,-0.19334 0.0924,0.23101 0.0811,0.50701 -0.0252,0.61334 -0.10633,0.10634 -0.18197,-0.0827 -0.16807,-0.42 z m 0,-2.56 c 0.0154,-0.3728 0.0912,-0.4486 0.19333,-0.19334 0.0924,0.23101 0.0811,0.50701 -0.0252,0.61334 -0.10633,0.10634 -0.18197,-0.0827 -0.16807,-0.42 z m -6.46609,-5.49334 c -0.39803,-0.50755 -0.38672,-0.51885 0.12082,-0.12083 0.53304,0.41805 0.70256,0.68083 0.43918,0.68083 -0.0664,0 -0.31844,-0.252 -0.56,-0.56 z M 782.71994,644.54565 c -0.264,-0.0924 -1.272,-0.83754 -2.24,-1.65597 -1.59808,-1.35114 -3.05261,-2.22221 -3.55081,-2.12643 -0.10496,0.0202 -0.39648,-0.13399 -0.64784,-0.34259 -0.54208,-0.44989 -3.08256,-1.34148 -4.53316,-1.59092 -1.40515,-0.24163 -6.56931,-0.2544 -7.74819,-0.0192 -1.92125,0.38336 -2.37049,0.51108 -3.01923,0.85828 -0.36342,0.19449 -0.66077,0.26 -0.66077,0.14556 0,-0.11443 -0.36,0.0278 -0.8,0.3161 -0.44,0.28832 -0.8,0.43536 -0.8,0.32678 0,-0.10854 -0.72032,0.32013 -1.60073,0.95264 -0.88042,0.63252 -1.70157,1.15002 -1.82477,1.15002 -0.12323,0 -0.6865,0.44822 -1.25171,0.9961 l -1.02771,0.99606 -0.19876,-1.71606 c -0.10931,-0.94388 -0.26428,-3.2281 -0.34441,-5.0761 -0.23469,-5.41405 -0.0434,-4.9504 -2.07191,-5.02301 -6.02348,-0.21558 -9.11561,-0.44461 -9.3646,-0.6936 -0.16628,-0.16627 0.15817,-0.59462 0.77996,-1.02976 0.58554,-0.40979 1.78464,-1.35987 2.66464,-2.11133 0.88,-0.75142 1.67783,-1.33385 1.77293,-1.29427 0.0951,0.0396 0.77914,-0.40813 1.52,-0.99491 0.7409,-0.58678 1.34707,-0.9776 1.34707,-0.86848 0,0.10915 0.53744,-0.16675 1.19428,-0.61309 0.65686,-0.44636 1.37881,-0.81155 1.60435,-0.81155 0.22553,0 0.66009,-0.13702 0.96573,-0.30451 1.06467,-0.58342 2.80115,-1.27264 3.59564,-1.42714 0.44,-0.0855 1.16,-0.24784 1.6,-0.36064 0.44,-0.1128 1.016,-0.24336 1.28,-0.29014 0.264,-0.0467 0.84,-0.17562 1.28,-0.2863 2.34509,-0.58996 9.85383,-0.89639 11.68,-0.47668 0.528,0.12135 1.464,0.29447 2.08,0.38471 0.91933,0.13465 2.51645,0.51728 5.28,1.26489 0.176,0.0476 0.644,0.26474 1.04,0.48247 0.396,0.21773 0.72,0.30224 0.72,0.18781 0,-0.11444 0.36,0.0278 0.8,0.31609 0.44,0.28832 0.8,0.44749 0.8,0.35373 0,-0.23277 3.22451,1.42803 3.92,2.01904 0.308,0.26173 0.56,0.36842 0.56,0.23706 0,-0.13133 0.9329,0.49433 2.07312,1.39039 1.14022,0.89607 2.19024,1.62922 2.33338,1.62922 0.14313,0 0.86121,0.61235 1.59574,1.36077 1.45958,1.48723 1.47411,1.55613 1.23094,5.83923 -0.35827,6.3103 -0.5126,7.19677 -1.26048,7.24045 -0.38099,0.0221 -1.4127,0.0857 -2.2927,0.14102 -0.88,0.0553 -2.93069,0.17178 -4.55709,0.25885 -1.6264,0.0871 -3.0664,0.22019 -3.2,0.29581 -0.1336,0.0756 -0.45891,0.062 -0.72291,-0.0304 z M 462.48435,533.85033 c 0.48643,-0.0735 1.20643,-0.0716 1.6,0.004 0.3936,0.0759 -0.004,0.13613 -0.88438,0.13373 -0.88,-0.003 -1.20202,-0.0645 -0.71562,-0.13812 z"
         id="path1090" />
      <path
         style="fill:#425c79;stroke-width:0.32"
         d="m 621.43995,1053.0198 c 0,-0.055 0.468,-0.5231 1.04,-1.04 l 1.04,-0.9399 -0.93987,1.04 c -0.87609,0.9695 -1.14013,1.1871 -1.14013,0.9399 z m 7.36,-7.7399 c 0.41335,-0.44 0.82355,-0.8 0.91155,-0.8 0.088,0 -0.1782,0.36 -0.59155,0.8 -0.41334,0.44 -0.82355,0.8 -0.91155,0.8 -0.088,0 0.17821,-0.36 0.59155,-0.8 z m 6.72,-7.04 c 0.41335,-0.44 0.82355,-0.8 0.91155,-0.8 0.088,0 -0.1782,0.36 -0.59155,0.8 -0.41334,0.44 -0.82355,0.8 -0.91155,0.8 -0.088,0 0.17821,-0.36 0.59155,-0.8 z m 6.4,-6.72 c 0.41335,-0.44 0.82355,-0.8 0.91155,-0.8 0.088,0 -0.1782,0.36 -0.59155,0.8 -0.41334,0.44 -0.82355,0.8 -0.91155,0.8 -0.088,0 0.17821,-0.36 0.59155,-0.8 z m 6.72,-7.04 c 0.41335,-0.44 0.82355,-0.8 0.91155,-0.8 0.088,0 -0.1782,0.36 -0.59155,0.8 -0.41334,0.44 -0.82355,0.8 -0.91155,0.8 -0.088,0 0.17821,-0.36 0.59155,-0.8 z m -346.87997,-9.8808 c 0,-0.066 0.252,-0.3184 0.56,-0.56 0.50754,-0.398 0.51885,-0.3867 0.12082,0.1208 -0.41804,0.533 -0.68082,0.7026 -0.68082,0.4392 z m 533.37996,-47.77776 c 0.23101,-0.0924 0.50701,-0.0811 0.61334,0.0253 0.10634,0.10633 -0.0827,0.18198 -0.42,0.16809 -0.3728,-0.0154 -0.44861,-0.0912 -0.19334,-0.19334 z m -6.08,-0.64 c 0.23101,-0.0924 0.50701,-0.0811 0.61334,0.0253 0.10634,0.10633 -0.0827,0.18198 -0.42,0.16809 -0.3728,-0.0154 -0.44861,-0.0912 -0.19334,-0.19334 z m -27.52,-2.88 c 0.23101,-0.0924 0.50701,-0.0811 0.61334,0.0253 0.10634,0.10633 -0.0827,0.18198 -0.42,0.16809 -0.3728,-0.0154 -0.4486,-0.0912 -0.19334,-0.19334 z m -6.08,-0.64 c 0.23101,-0.0924 0.50701,-0.0811 0.61334,0.0253 0.10634,0.10633 -0.0827,0.18198 -0.42,0.16809 -0.3728,-0.0154 -0.4486,-0.0912 -0.19334,-0.19334 z M 148.29492,864.52998 c -0.0907,-0.23648 -0.12065,-1.49648 -0.0665,-2.8 l 0.0985,-2.37004 0.15649,2.80073 c 0.15595,2.79082 0.12455,3.18531 -0.18857,2.36931 z m 469.16446,-36.87641 c -9.45629,-2.11942 -17.02743,-9.55411 -19.25872,-18.91152 -0.76189,-3.19523 -0.68419,-8.84848 0.16634,-12.10211 3.77068,-14.42435 18.92451,-22.45609 32.98271,-17.48131 6.36048,2.25082 11.06839,6.48726 14.09258,12.68131 1.85846,3.80653 2.55856,6.89306 2.55542,11.2665 -0.008,11.20457 -7.10422,20.66063 -18.07776,24.08953 -3.00931,0.94032 -9.27945,1.17059 -12.46057,0.4576 z M 147.96215,809.75994 c 6.4e-4,-2.112 0.0524,-2.93437 0.11509,-1.82746 0.0627,1.10688 0.0622,2.83488 -10e-4,3.84 -0.0633,1.00509 -0.11457,0.0995 -0.11394,-2.01254 z m 61.39853,2.24 c 0.004,-0.704 0.0691,-0.95434 0.14563,-0.55626 0.0765,0.39805 0.0736,0.97405 -0.006,1.28 -0.0801,0.30592 -0.14272,-0.0198 -0.13916,-0.72374 z m 17.5993,-8.06058 c 0.308,-0.0805 0.812,-0.0805 1.12,0 0.308,0.0805 0.056,0.14634 -0.56,0.14634 -0.616,0 -0.868,-0.0659 -0.56,-0.14634 z m -13.68,-1.69942 c 0.31856,-0.352 0.6512,-0.64 0.7392,-0.64 0.088,0 -0.10064,0.288 -0.4192,0.64 -0.31855,0.352 -0.65119,0.64 -0.73919,0.64 -0.088,0 0.10064,-0.288 0.41919,-0.64 z m 477.30403,-47.04816 c -16.43273,-3.4534 -25.11836,-21.02278 -17.79302,-35.99183 2.56362,-5.23863 6.32941,-8.99869 11.52896,-11.51133 4.06512,-1.96442 6.55238,-2.51827 11.2,-2.49398 4.72525,0.0246 7.61776,0.72457 11.69264,2.82918 3.51232,1.81405 7.13884,5.07689 9.27782,8.34752 7.22122,11.04153 4.79027,25.98854 -5.51661,33.91948 -2.26454,1.74253 -6.15388,3.71463 -8.73385,4.42852 -2.25101,0.62284 -9.53533,0.91811 -11.65594,0.47244 z m -113.015,-54.18658 c -6.41145,-7.03549 -11.45315,-14.76676 -14.96131,-22.94263 -10.25293,-23.89478 -8.1607,-51.98882 5.50007,-73.85394 l 1.26912,-2.0313 -29.16595,-29.16598 -29.16599,-29.16595 -3.68249,3.67206 c -2.02538,2.01962 -3.6825,3.79725 -3.6825,3.95027 0,0.153 0.66051,1.01287 1.46784,1.91079 3.29504,3.66489 4.64711,8.79341 3.61853,13.72569 -1.12131,5.37709 -5.4239,10.22413 -10.44698,11.76893 -1.82598,0.56154 -5.51939,1.14378 -5.51939,0.87008 0,-0.0785 0.19482,-0.7009 0.43293,-1.38304 0.23814,-0.68211 0.61306,-2.24822 0.83315,-3.48022 0.22013,-1.232 0.74531,-2.95229 1.16707,-3.82282 0.93124,-1.92214 1.04461,-5.54707 0.26935,-8.61101 -0.77629,-3.06774 -3.42781,-8.18748 -6.0225,-11.62864 -2.6263,-3.48304 -7.18348,-8.03036 -10.5879,-10.56499 -4.35798,-3.24451 -10.16451,-5.81568 -14.30086,-6.33248 -2.10624,-0.26316 -5.02717,0.26253 -6.09178,1.09639 -0.61264,0.47987 -5.34569,1.72179 -5.62409,1.47574 -0.0465,-0.0411 0.20028,-0.9967 0.54854,-2.12349 2.34448,-7.58617 10.32819,-12.32348 18.09808,-10.73897 3.19446,0.65142 5.46595,1.76425 7.62035,3.73325 l 1.7025,1.556 10.0576,-10.07082 c 5.53164,-5.53894 10.74182,-10.51289 11.57817,-11.05321 4.71901,-3.04884 11.70995,-3.1048 16.69382,-0.13364 0.71805,0.42807 17.28931,16.77139 36.82502,36.3185 19.53571,19.5471 35.6512,35.54019 35.81219,35.54019 0.161,0 1.6218,-0.79309 3.24621,-1.7624 20.4304,-12.19127 45.4288,-14.57738 68.17033,-6.50695 9.65671,3.42695 18.68138,8.95075 27.50774,16.8369 l 1.88874,1.68755 -56.63232,56.59769 -56.63234,56.59769 z m 189.95852,-3.07488 c -0.34784,-0.12624 -1.06784,-0.1761 -1.6,-0.11076 -0.53216,0.0653 -1.97559,-0.0408 -3.20759,-0.23577 -1.232,-0.19501 -2.56163,-0.40519 -2.95472,-0.46707 -0.39308,-0.0619 -0.86054,-0.2026 -1.03878,-0.31277 -0.38221,-0.23619 -1.56662,-0.52794 -2.2465,-0.55331 -0.264,-0.01 -0.66,-0.15994 -0.88,-0.33351 -0.22,-0.17353 -0.4,-0.22221 -0.4,-0.10816 0,0.11408 -0.468,-0.0422 -1.04,-0.34739 -0.572,-0.30515 -1.112,-0.57328 -1.2,-0.59587 -0.57433,-0.14733 -1.55545,-0.56679 -2.24,-0.95763 -0.44,-0.25124 -1.25062,-0.67002 -1.80137,-0.93063 -0.55075,-0.26057 -1.45075,-0.85193 -2,-1.31411 -0.54925,-0.46214 -0.99863,-0.74058 -0.99863,-0.61869 0,0.12189 -0.54,-0.24912 -1.2,-0.82441 -1.72073,-1.49991 -5.46016,-4.99636 -4.82691,-4.51328 0.64397,0.49126 0.83459,0.0304 0.90439,-2.18701 0.025,-0.792 0.10726,-2.376 0.18297,-3.52 0.0757,-1.144 0.13229,-2.7353 0.1257,-3.53626 l -0.0118,-1.45622 1.53293,-0.0374 c 2.5934,-0.0633 8.19852,-0.40346 9.23996,-0.5607 0.80912,-0.12221 1.181,0.051 2.06279,0.96076 0.59161,0.61044 1.1911,1.10986 1.33219,1.10986 0.14106,0 0.9704,0.5129 1.84298,1.13981 0.8726,0.62688 1.62892,1.1216 1.68076,1.09933 0.10868,-0.0467 0.96026,0.22454 2.33421,0.74336 1.8008,0.67999 3.62464,0.91148 7.04,0.89356 3.22678,-0.017 4.94838,-0.3374 7.47978,-1.39228 0.46214,-0.19258 0.91222,-0.37248 1.00022,-0.39981 1.00301,-0.31123 2.40774,-1.20378 3.93677,-2.50138 1.02121,-0.86662 1.90768,-1.52326 1.96985,-1.45917 0.1872,0.19296 0.67578,6.68618 0.78384,10.41671 0.0218,0.7512 0.17716,1.01737 0.58954,1.00972 0.308,-0.006 1.856,0.0794 3.44,0.18912 1.584,0.10973 3.816,0.24874 4.96,0.30893 1.144,0.0602 2.21625,0.12803 2.38278,0.15075 0.35091,0.0479 -1.7367,2.28135 -2.13241,2.28135 -0.14525,0 -1.16103,0.684 -2.25725,1.52 -1.09623,0.836 -2.35312,1.72419 -2.79312,1.97373 -2.55731,1.45043 -4.17981,2.24233 -5.6,2.73328 -0.88,0.30419 -2.00598,0.7696 -2.50214,1.0342 -0.4962,0.26464 -0.97504,0.40826 -1.0641,0.3192 -0.0891,-0.089 -0.6191,-0.0186 -1.17786,0.15642 -0.55875,0.17507 -1.3759,0.3689 -1.8159,0.43075 -0.44,0.0618 -1.304,0.21155 -1.92,0.33267 -0.616,0.12116 -1.93779,0.25933 -2.93731,0.30708 -0.99952,0.0478 -1.93552,0.15564 -2.08,0.23971 -0.14448,0.0841 -0.54727,0.0496 -0.89511,-0.0767 z m -31.84759,-16.98925 c 0,-0.1864 0.144,-0.24989 0.32,-0.14112 0.176,0.10877 0.32,0.26128 0.32,0.33888 0,0.0776 -0.144,0.14112 -0.32,0.14112 -0.176,0 -0.32,-0.15251 -0.32,-0.33888 z m 15.04,-8.96 c 0,-0.1864 0.144,-0.24989 0.32,-0.14112 0.176,0.10877 0.32,0.26128 0.32,0.33888 0,0.0776 -0.144,0.14112 -0.32,0.14112 -0.176,0 -0.32,-0.15251 -0.32,-0.33888 z m -0.32,-24.62112 c 0,-0.176 0.15252,-0.32 0.33888,-0.32 0.1864,0 0.24989,0.144 0.14112,0.32 -0.10876,0.176 -0.26128,0.32 -0.33888,0.32 -0.0776,0 -0.14112,-0.144 -0.14112,-0.32 z m -14.88,-9.28 c 0.10877,-0.176 0.26128,-0.32 0.33888,-0.32 0.0776,0 0.14112,0.144 0.14112,0.32 0,0.176 -0.15251,0.32 -0.33888,0.32 -0.1864,0 -0.24988,-0.144 -0.14112,-0.32 z m 3.04,-3.64083 c 0,-0.0664 0.252,-0.31843 0.56,-0.56 0.50756,-0.39802 0.51885,-0.38672 0.12084,0.12083 -0.41805,0.53303 -0.68084,0.70256 -0.68084,0.43917 z m 94.56,-22.73341 c -9.05773,-2.08508 -16.18842,-8.90822 -18.77367,-17.96387 -1.03535,-3.62662 -1.03535,-9.77715 0,-13.40377 2.52192,-8.83389 9.34784,-15.53405 18.10487,-17.77142 3.48989,-0.89162 9.04972,-0.89136 12.5376,0 7.53974,1.92819 13.22601,6.65059 16.59388,13.78108 1.78887,3.78736 2.24512,5.96007 2.24512,10.69159 0,4.95062 -0.47072,7.03136 -2.53382,11.2 -3.13949,6.34358 -7.92861,10.51334 -14.73398,12.82847 -2.20909,0.75152 -3.17408,0.88519 -7.04,0.97511 -3.01959,0.0702 -5.10589,-0.0399 -6.4,-0.33783 z m 78.14108,-76.03417 c -7.8983,-1.24617 -15.09651,-6.43273 -18.60963,-13.4088 -2.07606,-4.12252 -2.57242,-6.35769 -2.5633,-11.54278 0.009,-5.35046 0.42986,-7.31328 2.43328,-11.36 4.04704,-8.17465 12.05722,-13.38758 21.25514,-13.83257 7.93564,-0.38394 14.63964,2.35933 20.05206,8.20521 2.49779,2.69786 4.76355,6.84595 5.73514,10.49978 0.87721,3.29897 0.94403,9.19997 0.14044,12.40758 -1.27622,5.09427 -4.5864,10.33821 -8.59225,13.61178 -2.40563,1.96585 -6.99037,4.26662 -9.83197,4.93398 -2.65424,0.62336 -7.62086,0.86419 -10.01891,0.48582 z m 148.57888,-27.983 c -1.32,-0.25194 -2.976,-0.66253 -3.68,-0.91239 -2.5845,-0.91737 -40.0112,-17.24931 -40.3481,-17.60678 -0.1915,-0.20317 -0.8721,-2.41414 -1.5123,-4.91328 -4.1346,-16.13824 -12.0769,-30.60486 -23.85775,-43.45612 l -3.52016,-3.84 21.17921,-21.15888 c 22.3037,-22.28237 22.3127,-22.29046 27.1647,-24.23155 4.804,-1.92189 11.1612,-2.37322 16.2544,-1.15395 1.9581,0.46876 11.3371,4.41808 33.4842,14.09958 16.9203,7.39664 31.6654,13.97862 32.767,14.62662 4.4331,2.60781 8.7384,7.62256 10.7924,12.57095 2.612,6.29276 2.6771,14.42217 0.1656,20.69571 -1.8878,4.71574 -2.8885,5.8407 -24.3624,27.38809 -11.2017,11.2401 -21.4303,21.29213 -22.7302,22.33782 -4.606,3.70535 -9.8739,5.65661 -15.8766,5.8808 -2.2603,0.0844 -4.3789,-0.0324 -5.92,-0.32662 z m -80.79997,-77.49968 c -4.07175,-3.32134 -11.43376,-8.0656 -16.64,-10.72316 -8.40093,-4.28836 -16.20115,-7.10605 -24.71747,-8.9288 -2.59738,-0.55594 -4.91245,-1.10218 -5.14455,-1.21386 -0.5712,-0.27485 -20.05571,-45.23324 -20.93987,-48.31644 -0.57414,-2.00218 -0.70054,-3.26048 -0.69574,-6.92663 0.006,-4.77648 0.376,-6.77024 1.95837,-10.55923 1.93049,-4.62265 3.18733,-6.01491 25.59782,-28.35588 11.75977,-11.72331 22.02944,-21.74817 22.82144,-22.27745 2.20774,-1.47541 5.05616,-2.82989 7.69126,-3.65735 2.08909,-0.65599 3.03098,-0.75008 7.50874,-0.75008 5.76793,0 7.64057,0.36279 11.65158,2.2573 4.60918,2.17702 9.07181,6.1279 11.51094,10.19089 0.90515,1.50781 19.52355,43.68288 26.43075,59.8718 2.3424,5.49024 3.0467,8.44915 3.0467,12.8 0,5.53463 -1.509,10.55437 -4.5115,15.00723 -1.0836,1.60711 -7.6063,8.33504 -22.2705,22.97133 l -20.73797,20.69856 z M 718.97995,399.78138 c 0.231,-0.0924 0.507,-0.0811 0.61334,0.0253 0.10634,0.10633 -0.0827,0.18198 -0.42,0.16809 -0.3728,-0.0154 -0.44861,-0.0912 -0.19334,-0.19334 z m -6.08,-0.64 c 0.231,-0.0925 0.507,-0.0811 0.61334,0.0253 0.10634,0.10633 -0.0827,0.18198 -0.42,0.16809 -0.3728,-0.0154 -0.44861,-0.0912 -0.19334,-0.19334 z m -27.52,-2.88 c 0.23101,-0.0924 0.50701,-0.0811 0.61334,0.0253 0.10634,0.10633 -0.0827,0.18198 -0.42,0.16809 -0.3728,-0.0154 -0.44861,-0.0912 -0.19334,-0.19334 z m -6.08,-0.64 c 0.23101,-0.0924 0.50701,-0.0811 0.61334,0.0253 0.10634,0.10633 -0.0827,0.18198 -0.42,0.16809 -0.3728,-0.0154 -0.4486,-0.0912 -0.19334,-0.19334 z m 386.65345,-25.56781 c -5.388,-1.44893 -9.7296,-6.07366 -10.8798,-11.58934 -1.6473,-7.89914 3.2086,-15.78253 11.0063,-17.86861 3.4796,-0.93088 8.4159,-0.32246 11.36,1.40019 1.9461,1.13869 4.6835,3.77136 5.6679,5.45114 2.0313,3.46611 2.6128,8.64611 1.4058,12.5239 -2.3812,7.65098 -10.7324,12.18771 -18.5602,10.08272 z m -373.29288,-2.14739 c 0.12016,-0.31558 0.29911,-0.49318 0.39764,-0.39469 0.0985,0.0985 1.9e-4,0.35674 -0.2185,0.57383 -0.31603,0.31366 -0.3528,0.27692 -0.17914,-0.17914 z m 411.17938,-37.7742 c -2.2204,-0.73994 -3.8761,-1.73866 -5.3867,-3.24922 -7.2277,-7.22772 -3.206,-19.65449 6.8824,-21.26612 6.728,-1.07481 12.9694,3.28787 14.3435,10.02599 1.1066,5.42656 -1.7832,11.15248 -6.8998,13.67136 -1.7136,0.84362 -2.494,1.02461 -4.8508,1.12493 -1.7955,0.0765 -3.2703,-0.0343 -4.0886,-0.30694 z M 790.95994,297.70805 c 0.22,-0.0888 0.58,-0.0888 0.8,0 0.22,0.0888 0.04,0.1614 -0.4,0.1614 -0.44,0 -0.62,-0.0726 -0.4,-0.1614 z m -5.12,-0.32 c 0.22,-0.0888 0.58,-0.0888 0.8,0 0.22,0.0888 0.04,0.1614 -0.4,0.1614 -0.44,0 -0.62,-0.0726 -0.4,-0.1614 z m -5.12,-0.32 c 0.22,-0.0888 0.58,-0.0888 0.8,0 0.22,0.0888 0.04,0.1614 -0.4,0.1614 -0.44,0 -0.62,-0.0726 -0.4,-0.1614 z m -5.1,-0.32667 c 0.23101,-0.0924 0.50701,-0.0811 0.61335,0.0253 0.10633,0.10633 -0.0827,0.18197 -0.42,0.16807 -0.3728,-0.0154 -0.44861,-0.0912 -0.19335,-0.19333 z m -5.46,-0.31333 c 0.22,-0.0888 0.58,-0.0888 0.8,0 0.22,0.0888 0.04,0.1614 -0.4,0.1614 -0.44,0 -0.62,-0.0726 -0.4,-0.1614 z m -5.12,-0.32 c 0.22,-0.0888 0.58,-0.0888 0.8,0 0.22,0.0888 0.04,0.1614 -0.4,0.1614 -0.44,0 -0.62,-0.0726 -0.4,-0.1614 z m -5.12,-0.32 c 0.22,-0.0888 0.58,-0.0888 0.8,0 0.22,0.0888 0.04,0.1614 -0.4,0.1614 -0.44,0 -0.62,-0.0726 -0.4,-0.1614 z m -5.44,-0.32 c 0.22,-0.0888 0.58,-0.0888 0.8,0 0.22,0.0888 0.04,0.1614 -0.4,0.1614 -0.44,0 -0.62,-0.0726 -0.4,-0.1614 z m -5.12,-0.32 c 0.22,-0.0888 0.58,-0.0888 0.8,0 0.22,0.0888 0.04,0.1614 -0.4,0.1614 -0.44,0 -0.62,-0.0726 -0.4,-0.1614 z m -5.12,-0.32 c 0.22,-0.0888 0.58,-0.0888 0.8,0 0.22,0.0888 0.04,0.1614 -0.4,0.1614 -0.44,0 -0.62,-0.0726 -0.4,-0.1614 z m -5.1,-0.32667 c 0.23101,-0.0924 0.50701,-0.0811 0.61335,0.0253 0.10633,0.10633 -0.0827,0.18197 -0.42,0.16807 -0.3728,-0.0154 -0.44861,-0.0912 -0.19335,-0.19333 z m -5.46,-0.31333 c 0.22,-0.0888 0.58,-0.0888 0.8,0 0.22,0.0888 0.04,0.1614 -0.4,0.1614 -0.44,0 -0.62,-0.0726 -0.4,-0.1614 z m -5.11999,-0.32 c 0.22,-0.0888 0.58,-0.0888 0.8,0 0.22,0.0888 0.04,0.1614 -0.4,0.1614 -0.44,0 -0.62,-0.0726 -0.4,-0.1614 z m -5.12,-0.32 c 0.22,-0.0888 0.58,-0.0888 0.8,0 0.22,0.0888 0.04,0.1614 -0.4,0.1614 -0.44,0 -0.62,-0.0726 -0.4,-0.1614 z m -5.44,-0.32 c 0.22,-0.0888 0.58,-0.0888 0.8,0 0.22,0.0888 0.04,0.1614 -0.4,0.1614 -0.44,0 -0.62,-0.0726 -0.4,-0.1614 z m -5.12,-0.32 c 0.22,-0.0888 0.58,-0.0888 0.8,0 0.22,0.0888 0.04,0.1614 -0.4,0.1614 -0.44,0 -0.62,-0.0726 -0.4,-0.1614 z m -5.12,-0.32 c 0.22,-0.0888 0.58,-0.0888 0.8,0 0.22,0.0888 0.04,0.1614 -0.4,0.1614 -0.44,0 -0.62,-0.0726 -0.4,-0.1614 z m -10.49095,-8.02807 -1.74905,-1.84 1.84,1.74907 c 1.70941,1.62494 1.98659,1.93093 1.74905,1.93093 -0.05,0 -0.87798,-0.828 -1.84,-1.84 z m 449.4283,-2.2857 c -2.807,-1.27493 -4.4004,-4.61715 -3.6642,-7.68608 1.0869,-4.53037 6.5524,-6.64641 10.3227,-3.99653 5.4534,3.8328 2.8704,12.27425 -3.7559,12.27425 -0.88,0 -2.1862,-0.26624 -2.9026,-0.59164 z m -463.98737,-12.5943 -1.90998,-2 2,1.90998 c 1.1,1.05049 2,1.95049 2,2 0,0.23645 -0.31581,-0.0522 -2.09002,-1.90998 z"
         id="path1088" />
      <path
         style="fill:#223053;stroke-width:0.32"
         d="m 338.99687,1095.2584 -39.08313,-14.7469 -14.57428,-23.3758 c -8.01585,-12.8567 -14.62045,-23.5632 -14.67688,-23.7923 -0.0631,-0.2561 5.96957,-3.9687 15.66214,-9.6389 l 15.76475,-9.2224 29.33742,-33.72105 c 16.13558,-18.54663 29.25695,-33.50512 29.15859,-33.24112 -0.70016,1.87901 -24.10157,67.56457 -24.34259,68.32737 -0.27914,0.8833 1.53312,5.0056 20.86876,47.4702 11.64599,25.5766 21.1281,46.5445 21.07139,46.5954 -0.0567,0.051 -17.69046,-6.5437 -39.18617,-14.6545 z m 267.77716,-40.1939 -9.38591,-1.8369 -26.61408,-26.6552 c -14.63776,-14.6603 -26.39808,-26.58575 -26.13408,-26.5009 0.264,0.085 23.91472,5.3954 52.55715,11.8013 28.64243,6.4059 52.07843,11.7402 52.07999,11.8541 0,0.1138 -7.08214,7.6378 -15.74156,16.72 -13.024,13.6598 -15.88531,16.508 -16.56,16.4838 -0.44858,-0.016 -5.03927,-0.8559 -10.20151,-1.8662 z m 216.67909,-89.42662 c -20.27676,-2.14771 -36.94102,-3.97914 -37.03171,-4.06982 -0.18803,-0.18804 -15.5399,-70.03097 -15.54441,-70.71894 -0.003,-0.30611 28.72816,-60.50349 29.25337,-61.29363 0.0854,-0.12845 127.29714,-18.70317 127.50268,-18.61721 0.13373,0.0559 -1.58413,12.48566 -3.81744,27.62166 l -4.06061,27.52 -28.49161,51.67999 -28.49161,51.68 -1.22592,0.0515 c -0.67428,0.0282 -17.816,-1.70576 -38.09274,-3.8535 z m -614.17314,-92.63247 -60.63999,-8.21066 -0.20418,-3.03741 c -0.1123,-1.67059 -0.2203,-14.86144 -0.24,-29.31299 l -0.0358,-26.27561 5.2,-1.53158 c 2.86,-0.8424 26.8,-7.90608 53.19999,-15.69712 26.4,-7.79104 48.01635,-14.14183 48.03634,-14.11283 0.0954,0.13846 15.80787,105.40498 15.80591,105.89272 -10e-4,0.308 -0.11025,0.54564 -0.24225,0.52807 -0.132,-0.0176 -27.528,-3.72675 -60.88,-8.24259 z m -21.51569,-18.80493 c 0.48163,-0.35091 1.209,-1.27757 1.61636,-2.05926 1.01543,-1.94855 0.81049,-3.62839 -0.72477,-5.94068 -1.3183,-1.9855 -1.37338,-1.81286 1.07853,-3.38041 l 1.09442,-0.69965 0.50558,0.77542 c 1.24651,1.91181 3.45885,4.62954 4.22902,5.19508 1.3301,0.97667 3.37738,1.04534 5.05782,0.16963 1.66177,-0.86602 2.51629,-1.92496 2.88983,-3.58119 0.38932,-1.7262 -0.1303,-3.2038 -2.1356,-6.07289 -0.96618,-1.38237 -1.63493,-2.62605 -1.4861,-2.76378 0.70002,-0.64768 16.30968,-11.29488 16.5906,-11.31625 0.176,-0.0134 1.37421,0.31174 2.66269,0.72259 1.93406,0.61667 2.83606,0.72336 5.17136,0.61171 2.46715,-0.11795 3.13532,-0.28678 5.22789,-1.32099 3.8023,-1.8792 6.35963,-5.0079 7.41959,-9.07734 1.91485,-7.35162 -2.55009,-14.97847 -9.92153,-16.94752 -5.67767,-1.51664 -11.93536,0.83229 -15.18614,5.70035 -1.69003,2.53085 -2.36999,4.87635 -2.39433,8.25926 l -0.0195,2.71459 -18.77137,12.96541 c -10.32426,7.13095 -19.0926,13.25338 -19.4852,13.60538 -0.90444,0.81091 -1.88724,2.93068 -1.8964,4.09027 -0.01,1.21645 0.81485,3.09008 1.82273,4.14233 1.52807,1.59533 4.52187,2.06528 6.5327,1.02544 1.02934,-0.53228 1.05899,-0.52812 1.54352,0.21674 0.84854,1.30448 2.68477,3.22499 3.36395,3.5184 1.11663,0.48237 4.2495,0.15034 5.21438,-0.55264 z m 37.58551,-41.29273 c -2.31706,-1.14202 -3.19883,-3.85034 -2.0358,-6.25283 0.88146,-1.82087 2.06301,-2.49498 4.373,-2.49498 1.69709,0 1.91742,0.0892 3.07063,1.24237 0.80975,0.80973 1.25916,1.56189 1.29061,2.16 0.15089,2.86941 -0.52354,4.30589 -2.4623,5.24441 -1.57723,0.76355 -2.8313,0.79344 -4.23614,0.10103 z M 738.20439,683.85041 c -1.12445,-1.2559 -2.04467,-2.38403 -2.04496,-2.50697 -2.5e-4,-0.12292 -0.35997,-0.72749 -0.79933,-1.34349 -1.34003,-1.87878 -2.79164,-4.64976 -3.0174,-5.76 -0.0179,-0.088 -0.14976,-0.3447 -0.29299,-0.57043 -0.32586,-0.51357 -0.83828,-2.16743 -1.06256,-3.42957 -0.0939,-0.528 -0.31296,-1.22608 -0.48692,-1.5513 -0.17398,-0.32521 -0.37564,-1.04521 -0.44816,-1.6 -0.0725,-0.55478 -0.25104,-1.74348 -0.39673,-2.64156 -0.30186,-1.86052 -0.27232,-9.56084 0.0403,-10.52714 0.11389,-0.352 0.27152,-1.17523 0.35024,-1.82937 0.0787,-0.65418 0.22272,-1.31821 0.32003,-1.47562 0.0973,-0.15741 0.23792,-0.77421 0.31255,-1.37062 0.16412,-1.31216 2.27417,-6.50042 3.14147,-7.72439 0.34294,-0.484 0.52963,-0.88 0.41488,-0.88 -0.11479,0 0.21449,-0.54 0.73171,-1.2 0.51721,-0.66 0.99731,-1.37984 1.06688,-1.59965 0.0696,-0.21977 1.12931,-1.55635 2.35497,-2.97014 l 2.22852,-2.5705 3.37148,0.17904 c 1.85434,0.0985 4.45152,0.22567 5.77152,0.28263 2.77376,0.11968 2.45962,-0.49853 2.70292,5.31862 0.0847,2.024 0.23225,4.27047 0.328,4.99213 0.15772,1.18896 0.0537,1.44886 -1.10842,2.76909 -0.70538,0.80134 -1.2825,1.54256 -1.2825,1.64713 0,0.10461 -0.468,0.8745 -1.04,1.71092 -0.572,0.83641 -1.08966,1.73673 -1.15033,2.00073 -0.0607,0.264 -0.15863,0.72266 -0.21763,1.01923 -0.059,0.29658 -0.27021,0.84368 -0.46938,1.21581 -1.03968,1.94266 -0.95843,10.04579 0.12573,12.5368 0.50157,1.15238 0.8207,2.09261 0.80307,2.36573 -0.006,0.094 0.50186,0.8848 1.12874,1.75741 0.62691,0.87257 1.1398,1.70323 1.1398,1.84588 0,0.14269 0.4305,0.67184 0.95668,1.17594 0.99267,0.95104 1.00598,1.19056 0.0741,1.33197 -0.69088,0.10483 -7.07207,0.46867 -9.12365,0.52022 l -1.53293,0.0385 0.0118,1.45622 c 0.007,0.80096 -0.0521,2.39226 -0.1305,3.53626 -0.0783,1.144 -0.16019,2.80816 -0.18188,3.69811 -0.065,2.66534 -0.32564,2.6807 -2.58932,0.15235 z m 337.95551,-28.77651 -18.72,-11.76822 -37.2242,-5.73219 c -32.12633,-4.94717 -37.10035,-5.78394 -36.31997,-6.11002 0.49732,-0.20781 22.70847,-9.89177 49.35827,-21.51996 26.6497,-11.62819 48.5285,-21.06765 48.6196,-20.97655 0.1117,0.11168 13.1932,75.66669 13.4759,77.83299 0.042,0.31798 -2.5433,-1.2615 -19.1896,-11.72605 z m -687.84758,-212.20158 -46.071,-46.07184 20.6384,-20.64025 c 11.3511,-11.35213 20.78748,-20.64026 20.96969,-20.64026 0.37264,0 75.62201,32.4848 75.90508,32.76787 0.17447,0.17447 -24.74662,99.46361 -25.16582,100.26422 -0.12742,0.24336 -17.68509,-17.08797 -46.27635,-45.67974 z m 309.84769,-45.22534 c -20.19596,-2.13786 -36.68396,-3.99056 -36.64,-4.11712 0.044,-0.12659 7.13594,-5.94608 15.75994,-12.93226 14.03113,-11.36636 15.67017,-12.78912 15.58662,-13.52985 -0.1159,-1.02739 -17.60272,-103.5636 -17.85033,-104.66777 -0.11952,-0.53297 3.26694,2.72484 10.14544,9.76 5.67868,5.808 12.49238,12.75884 15.14156,15.44632 l 4.81671,4.88632 44.47443,2.73478 c 24.46092,1.50413 44.52937,2.78972 44.59654,2.85688 0.0672,0.0672 -12.67555,23.34965 -28.31715,51.73889 l -28.43923,51.6168 -1.27732,0.047 c -0.70249,0.0259 -17.80124,-1.70215 -37.99721,-3.84 z M 956.69868,213.48515 c -31.20179,-4.83617 -36.29206,-5.6983 -35.52,-6.01591 0.49568,-0.20391 22.7088,-9.88436 49.36246,-21.51212 26.65367,-11.62777 48.51096,-21.09161 48.57186,-21.03075 0.061,0.0608 -1.2314,10.36828 -2.8716,22.90541 l -2.9822,22.79479 -9.0629,4.2867 c -6.10505,2.88767 -9.39145,4.27535 -10.06962,4.25188 -0.55373,-0.0192 -17.39632,-2.57516 -37.428,-5.68 z"
         id="path1086" />
    </g>
  </g>
</svg>
