<?xml version="1.0" encoding="UTF-8" standalone="no"?><!-- Created with Inkscape (http://www.inkscape.org/) --><svg xmlns="http://www.w3.org/2000/svg" xmlns:inkscape="http://www.inkscape.org/namespaces/inkscape" xmlns:sodipodi="http://sodipodi.sourceforge.net/DTD/sodipodi-0.dtd" xmlns:svg="http://www.w3.org/2000/svg" xmlns:xlink="http://www.w3.org/1999/xlink" height="512" id="svg870" inkscape:version="1.1.2 (0a00cf5339, 2022-02-04)" sodipodi:docname="eaphammer.svg" version="1.1" viewBox="0 0 512 511.99999" width="512">
  <defs id="defs874">
    <linearGradient id="3250-3-5-3" inkscape:collect="always">
      <stop id="stop3246" offset="0" style="stop-color:#00ff08;stop-opacity:0.99823529"/>
      <stop id="stop3248" offset="1" style="stop-color:#00ffe9;stop-opacity:1"/>
    </linearGradient>
    <linearGradient gradientUnits="userSpaceOnUse" id="linearGradient3252" inkscape:collect="always" x1="255.01614" x2="253.30121" xlink:href="#3250-3-5-3" y1="629.08063" y2="-11.276634"><stop id="stop3246" offset="0" style="stop-color:#00ff08;stop-opacity:0.99823529"/><stop id="stop3248" offset="1" style="stop-color:#00ffe9;stop-opacity:1"/></linearGradient>
  </defs>
  <sodipodi:namedview bordercolor="#eeeeee" borderopacity="1" id="namedview872" inkscape:current-layer="g876" inkscape:cx="249.69175" inkscape:cy="269.17637" inkscape:pagecheckerboard="0" inkscape:pageopacity="0" inkscape:pageshadow="0" inkscape:window-height="695" inkscape:window-maximized="1" inkscape:window-width="1366" inkscape:window-x="0" inkscape:window-y="24" inkscape:zoom="0.69285428" pagecolor="#505050" showgrid="false"/>
  <g id="g876" inkscape:groupmode="layer" inkscape:label="Image">
    <path d="m 167.89357,5.3319479 -13.20974,2.2499598 -13.20975,2.2499603 -13.20054,4.841914 -13.19132,4.841914 -11.1463,6.236889 -11.146303,6.227891 -10.92522,8.810842 -10.916004,8.810842 -9.018367,10.673809 -9.018369,10.673814 -6.383792,10.880807 -6.374577,10.889805 -4.955958,12.896765 -4.955958,12.88777 -2.312166,12.90577 -2.302954,12.91477 v 86.93846 86.93846 l 3.122806,14.93973 3.113594,14.93974 4.716451,11.0968 4.707239,11.0968 5.250734,8.84685 5.250741,8.84684 6.346937,8.12686 6.356158,8.11785 10.427775,9.62083 10.436992,9.62083 10.787037,7.00188 10.787044,7.01087 9.85665,4.36492 9.85664,4.36491 13.26502,3.77997 13.25581,3.77992 14.33359,1.19696 14.34279,1.20598 25.65492,-0.18017 25.65491,-0.18017 v -10.3228 -10.32282 l -37.7316,-0.88199 -37.73161,-0.88198 -11.05418,-3.20395 -11.05419,-3.21294 -9.63556,-4.26595 -9.62635,-4.26592 -8.7328,-5.6519 -8.723597,-5.6519 -10.022458,-9.22484 -10.031669,-9.23383 -7.737928,-10.93481 -7.728715,-10.9348 -4.578274,-9.96282 -4.578272,-9.97183 -3.334677,-11.88879 -3.334677,-11.89779 V 230.19295 137.2966 l 2.828026,-10.19682 2.828027,-10.19682 4.237438,-10.02582 4.228223,-10.02582 7.111521,-10.736809 7.111526,-10.745808 10.73177,-10.484816 10.731765,-10.484811 11.072601,-6.992875 11.08183,-7.001875 9.29473,-3.743933 9.29471,-3.743934 10.56596,-3.014948 10.56596,-3.014946 63.00883,-0.55799 63.01805,-0.55799 V 15.546766 5.3319479 h -58.67006 z m 133.93062,0 v 17.5676881 17.56769 l -70.56252,0.611987 -70.55331,0.602987 -11.5332,3.104949 -11.54241,3.104945 -9.58951,4.697915 -9.5987,4.697915 -9.07365,6.290887 -9.07364,6.281892 -6.420638,6.812876 -6.429852,6.803882 -6.540388,9.953822 -6.549602,9.953817 -3.859756,9.58483 -3.859749,9.58483 -2.017391,9.58483 -2.017387,9.58483 v 76.67864 76.66964 h 10.565954 10.565958 l 0.755368,-81.09756 0.755368,-81.09756 3.887388,-9.75583 3.8966,-9.76483 4.265072,-7.19987 4.274285,-7.190865 10.85152,-10.502814 10.85153,-10.493815 11.17393,-5.336904 11.17394,-5.327906 8.99074,-2.23196 8.99994,-2.231961 h 5.72053 5.71133 V 80.534613 98.2283 h 10.56596 10.56596 V 80.534613 62.840925 h 76.37518 76.38439 l 9.26709,2.330957 9.27631,2.339961 10.51989,5.390905 10.51989,5.381906 9.39606,8.585846 9.39606,8.594846 5.64684,8.315844 5.65606,8.32485 4.61512,12.59978 4.62433,12.59978 v 92.15836 92.15837 l -1.76867,5.5259 -1.76867,5.5259 h 18.74605 18.74605 v 0.48599 0.47699 l -3.55576,10.20582 -3.55576,10.21482 -4.19138,8.10886 -4.19138,8.10885 -4.61512,6.64188 -4.6059,6.63289 -9.90271,10.11582 -9.90271,10.11582 -9.05521,6.29989 -9.05522,6.29988 -9.05522,4.39193 -9.05522,4.38292 -9.81058,3.08694 -9.81059,3.07795 -8.95388,1.54798 -8.9631,1.54797 h -32.16767 -32.17688 v 11.06079 11.0608 l 23.02033,-0.0184 v 0.009 l 23.02034,-0.0184 16.7655,-1.44896 16.76552,-1.44896 13.42161,-3.76195 13.41241,-3.75292 11.01733,-5.06692 11.01734,-5.05791 11.00812,-7.44287 11.01733,-7.43387 10.76862,-10.52081 10.76861,-10.52981 7.69187,-10.86281 7.68266,-10.86281 5.11255,-10.80881 5.11258,-10.7998 3.78603,-12.78878 3.79529,-12.79777 1.00409,-9.54883 1.00407,-9.54883 h -18.2486 -18.2394 l -0.5435,-88.83678 -0.5435,-88.83742 -2.68985,-8.79284 -2.68064,-8.80185 -4.3664,-9.40483 -4.3664,-9.413825 -6.70621,-9.17984 -6.69699,-9.170835 -9.21181,-8.333853 -9.21182,-8.333854 -10.15142,-5.849895 -10.15143,-5.858894 -11.89246,-3.878932 -11.90167,-3.869932 -17.90777,-1.646972 -17.90777,-1.646971 V 22.746638 5.3319479 h -10.56596 z m 39.24235,0 V 15.582766 25.842583 l 5.65605,0.944984 5.66527,0.944983 9.37764,2.033964 9.37763,2.033963 9.46053,3.761932 9.46054,3.752937 10.39093,6.02989 10.39094,6.029894 11.33053,10.520813 11.33053,10.511813 6.42064,8.855843 6.42064,8.855843 4.15453,8.072856 4.15453,8.072852 2.89251,8.14485 2.90172,8.14486 2.1832,10.05282 2.19241,10.04383 v 76.57963 76.57965 h 10.56598 10.55669 l -0.0188,-77.77662 -0.0188,-77.78562 -2.80959,-13.30177 -2.80964,-13.30176 -4.7256,-11.53779 -4.7257,-11.537797 -5.36127,-8.918843 -5.35206,-8.927841 -6.54961,-8.31585 -6.5496,-8.315855 -9.94876,-9.089838 -9.94876,-9.098836 -8.69595,-5.759898 -8.69597,-5.768898 -9.81062,-4.832914 -9.81059,-4.832914 L 379.55262,13.179808 368.98667,9.660871 356.33884,7.4919096 343.69101,5.3319479 h -1.31639 z M 212.77355,77.420669 v 10.331814 10.331819 l 66.78568,0.440978 66.78568,0.440978 10.11458,4.679912 10.11458,4.67992 6.98256,6.82188 6.97333,6.81287 4.79937,9.88183 4.79014,9.88182 0.44217,52.71207 0.45136,52.72106 h -14.48096 -14.47176 l -3.70316,3.61796 -3.71236,3.61794 v 29.62747 29.63648 l -2.28453,4.31992 -2.29374,4.32893 -4.42167,2.23196 -4.43089,2.24096 h -31.01619 -31.01619 v 10.32281 10.32282 l 32.83092,-0.072 32.8217,-0.063 5.66527,-1.97096 5.66527,-1.97997 5.24152,-3.90593 5.25075,-3.90593 4.18216,-6.95688 4.18216,-6.95688 0.49744,-26.90952 0.49744,-26.90952 h 7.42473 7.43393 v 22.7066 22.69759 l -3.03069,9.36884 -3.02147,9.36883 -5.28758,7.00188 -5.28759,6.99287 -7.15758,5.16591 -7.15758,5.15691 -9.58951,2.96094 -9.59871,2.95196 h -30.77669 -30.78589 v 10.32281 10.32282 l 33.58629,-0.036 33.57707,-0.0451 9.90271,-3.29395 9.89349,-3.29393 8.75123,-5.14791 8.75123,-5.13891 7.03783,-7.48787 7.03782,-7.48787 4.82699,-8.85584 4.83621,-8.85584 2.30295,-8.66685 2.31217,-8.66685 v -85.64237 -85.63348 l -2.31217,-8.67584 -2.30295,-8.66685 -4.67961,-8.55885 -4.67039,-8.56785 -7.07467,-7.20887 -7.08389,-7.217867 -8.19852,-5.309906 -8.19851,-5.309907 -9.05522,-3.311942 -9.05522,-3.311941 -68.29642,-0.503986 z m -54.3313,2.915946 -3.38995,0.998983 -3.39916,1.007982 -10.06851,5.111909 -10.06853,5.111909 -8.99073,9.152832 -8.99074,9.14384 -4.72566,9.15283 -4.72566,9.14384 -2.22926,9.23384 -2.229263,9.22484 -0.01839,41.66025 -0.02783,41.65127 h 10.464623 10.46464 l 0.51586,-43.86522 0.50664,-43.86523 3.49128,-8.53184 3.49128,-8.53185 8.11562,-8.55885 8.10639,-8.55885 6.8536,-3.54594 6.85359,-3.55493 V 91.127424 Z m 83.00769,37.061335 v 1.23298 1.24198 l -3.76763,1.67397 -3.77685,1.68297 v 5.3279 5.33691 l 7.92217,-1.22398 7.93137,-1.21498 6.03374,-0.0272 6.03374,-0.018 7.9498,1.15198 7.9498,1.16099 0.89354,-2.26797 0.89355,-2.26795 -0.94881,-3.68994 -0.94882,-3.68093 h -2.04502 -2.05424 l -1.87921,-2.21397 -1.87921,-2.20495 h -14.14935 z m -72.44173,11.78979 v 47.93315 47.92415 l 19.99885,-0.89999 19.99886,-0.89098 2.64379,-2.96094 2.63457,-2.96095 v -6.47989 -6.48888 l 8.29986,0.95398 8.30906,0.95398 v -1.35897 -1.35898 l -8.30906,-8.00986 -8.29986,-8.00985 v -25.55055 -25.55055 l -3.70314,-3.62693 -3.70315,-3.61794 H 187.9477 Z m 136.50992,0 -3.36231,2.29496 -3.35311,2.29496 v 25.85654 25.84755 l -9.05521,9.20683 -9.05522,9.21583 v 1.10699 1.10698 l 8.67754,-0.495 8.67753,-0.49499 0.45137,7.62287 0.4606,7.62286 1.88843,1.52998 1.88842,1.52997 13.50453,0.49499 13.50453,0.50399 6.41142,0.29698 6.42063,0.30601 V 177.11189 129.18774 H 324.0431 Z m -139.5314,0.96299 -3.76763,3.46493 -3.77685,3.46494 v 40.85028 40.85027 l 3.39916,2.31296 3.38995,2.31296 0.3777,0.072 0.37768,0.081 v -46.7002 z m 179.60281,0.51299 v 46.44817 46.44818 h 1.01331 1.01329 l 2.76355,-2.43896 2.76355,-2.43895 v -41.30927 -41.31827 l -2.50562,-2.69095 -2.49641,-2.69995 h -1.27123 z m -116.20708,4.42792 v 1.47597 1.46697 h -6.04296 -6.03374 l -0.30397,18.06268 -0.30398,18.06268 0.33162,5.9039 0.32242,5.89489 10.54753,10.12483 10.53832,10.12481 v 1.30498 1.30498 h -1.51074 -1.51074 v 4.58092 4.58092 l 2.64379,-1.06199 2.6438,-1.06198 2.63458,-0.74698 2.64378,-0.73799 v -1.30497 -1.30499 h 2.26611 2.25689 v 1.47598 1.47598 h 5.91399 5.91399 l 0.76458,-1.84497 0.76458,-1.84497 1.2436,1.51197 1.25281,1.50298 4.34797,1.86296 4.33877,1.87197 0.35006,-0.42301 0.35005,-0.423 0.99488,-4.05893 0.99487,-4.04993 h -2.29374 -2.29374 v -0.99898 -1.00798 l 11.32132,-11.3578 11.32133,-11.3668 v -13.95875 -13.95876 l -0.97646,-9.07183 -0.96723,-9.06284 h -5.06651 -5.0665 v -1.46698 -1.47597 h -27.16565 z m -74.86445,5.8949 -1.80551,1.77296 -1.81473,1.76397 v 30.77045 30.77046 l 1.566,2.84395 1.5568,2.85294 h 1.45547 1.45547 v -35.38736 -35.38737 h -1.20675 z m 201.63749,0.09 v 35.34237 35.34237 h 1.35414 1.34492 l 0.91197,-2.33096 0.92119,-2.33095 V 174.93394 142.7775 l -2.26611,-0.84598 z m -93.49074,8.75684 h 10.05009 10.05009 l -4.22822,4.31992 -4.23743,4.31993 -5.48104,1.42197 -5.48103,1.43098 3.5834,0.15298 3.57418,0.15298 -1.72261,2.03397 -1.73182,2.03396 -4.86384,1.16998 -4.87305,1.17898 4.81777,0.55799 4.80859,0.56699 -11.38582,10.60181 -11.39501,10.61082 -1.34493,0.48598 -1.35414,0.495 v -1.42198 -1.41297 l 2.37665,-1.92597 2.37665,-1.92597 2.91093,-5.5709 2.90173,-5.5619 v -0.80098 -0.79199 h -5.58236 -5.58236 l 1.61206,-1.58397 1.62128,-1.57497 7.36024,-1.97997 7.36946,-1.97096 -4.9099,-0.13501 -4.90069,-0.13502 v -1.17897 -1.17899 l 1.80552,-1.76396 1.81472,-1.77297 h 2.68065 2.67142 l 2.3398,-4.41886 z m -21.21482,70.77475 v 11.79879 11.79879 h -3.76763 -3.77685 v 0.61199 0.62099 l -0.91197,2.33096 -0.92118,2.33096 h 4.70724 4.70723 l -0.96724,5.90389 -0.95802,5.8949 h 2.45034 2.45956 v 2.21396 2.20496 h -1.51074 -1.51074 v 5.90389 5.8949 h 1.51074 1.51074 v 15.53372 15.52473 l -2.26611,0.84598 -2.25689,0.85499 v 10.8988 10.89881 h 16.80236 16.80235 l -0.76458,-10.48481 -0.7738,-10.49382 -1.49231,-0.93598 -1.49231,-0.93599 -1.087,-15.22772 -1.08699,-15.22773 2.57009,-1.83597 2.57009,-1.84497 -1.05014,-4.67992 -1.05936,-4.68891 h -1.38177 -1.39099 v -2.20496 -2.21396 h 2.68065 2.68063 l -0.58034,-5.8949 -0.57114,-5.90389 h 4.044 4.03477 l -0.49743,-2.58296 -0.49744,-2.57395 -4.13611,-0.46799 -4.14532,-0.468 v -11.69979 -11.69979 h -14.33359 z m -1.74103,3.68994 -2.78197,7.37086 -2.78197,7.37087 -0.11975,1.84497 -0.11975,1.84497 h 3.02148 3.02147 l -0.11975,-9.21584 z m 32.17688,0 -0.11976,8.23485 -0.12894,8.23485 1.00409,0.98098 1.01329,0.98099 h 2.12794 2.13714 l -1.05936,-4.78792 -1.05015,-4.79691 -1.96211,-4.41892 z m -172.528147,22.85959 0.543495,37.22334 0.543502,37.23234 3.85054,9.80082 3.85054,9.80083 6.91808,9.46783 6.91808,9.46784 8.04191,6.00289 8.04191,6.00289 6.42064,3.14095 6.41143,3.14994 7.92217,2.08796 7.92216,2.07897 33.65077,0.099 33.65077,0.099 -0.44217,-9.95382 -0.45136,-9.95382 -33.95475,-0.73799 -33.96398,-0.73799 -10.03167,-4.64391 -10.04089,-4.64392 -6.03373,-5.8949 -6.03375,-5.89489 -3.84132,-6.41689 -3.85055,-6.41689 -2.34901,-8.79284 -2.33979,-8.78384 v -21.06869 -21.07762 h 7.42471 7.42473 l 0.50665,26.17153 0.50665,26.18054 3.2702,5.97589 3.27019,5.9759 4.86385,4.64391 4.86383,4.64392 5.44419,2.64595 5.44417,2.65495 35.08783,0.44098 35.08781,0.44098 v -10.31382 -10.31382 l -33.17176,-0.45001 -33.18096,-0.45001 -4.92833,-4.81491 -4.93753,-4.82392 -0.47902,-31.65244 -0.48822,-31.65243 -3.86896,-2.96995 -3.86897,-2.96995 h -24.81664 z m -36.43274,64.87085 0.865909,9.95382 0.865912,9.95383 4.375611,12.04178 4.366405,12.04179 5.16783,8.60385 5.167829,8.60384 12.832062,12.66278 12.822849,12.67177 10.27119,5.5709 10.28038,5.56191 7.83926,2.92494 7.83926,2.92495 9.81059,1.92597 9.80137,1.92596 34.34166,0.13501 34.33244,0.144 v -10.32283 -10.32281 l -30.56481,-0.054 -30.55561,-0.0451 -12.07668,-2.10596 -12.06748,-2.09697 -12.56492,-6.08389 -12.55572,-6.07489 -10.07772,-9.32384 -10.08695,-9.31483 -5.094135,-8.27085 -5.103345,-8.26186 -3.574188,-9.62083 -3.564972,-9.62083 -0.976452,-8.06385 -0.967245,-8.06386 H 73.500069 Z m 181.546517,23.59758 v 1.47597 1.47598 h 11.22921 11.22921 l 0.93959,-1.47598 0.9304,-1.47597 h -12.16882 z m 18.80132,5.7509 -10.52911,0.44098 -10.53832,0.44097 -0.45136,6.88488 -0.45137,6.87588 2.75433,0.85498 2.75433,0.85499 9.72769,9.59383 9.72768,9.58483 h 0.42373 0.42372 v -5.12088 -5.12091 l -5.45339,-4.83292 -5.44419,-4.82391 6.57724,-0.73799 6.57724,-0.73799 0.4698,-6.21888 0.46062,-6.21889 -3.51893,-0.86399 z m 154.85987,7.51486 -5.14019,7.84786 -5.13098,7.83887 -8.08798,7.77586 -8.07877,7.77586 -9.84743,5.6429 -9.83822,5.6519 -10.56596,3.27594 -10.56595,3.27594 -35.84319,0.70199 -35.85239,0.69299 v 10.27782 10.28681 l 37.35392,-0.62999 37.35392,-0.62999 9.06443,-2.45695 9.05522,-2.45696 13.57822,-6.55188 13.58743,-6.55189 8.68675,-7.08287 8.69595,-7.08288 6.78911,-8.10885 6.78911,-8.10886 5.26916,-9.80082 5.26916,-9.80083 v -0.89098 -0.89099 h -11.26605 z m -173.66119,15.56072 v 4.15792 4.16693 l 10.0593,10.17882 10.05931,10.17882 h 1.26202 1.26201 v -3.35694 -3.35694 l -11.32132,-10.97981 z m 0,21.30262 v 3.28494 3.28494 l 10.90679,10.72781 10.90679,10.71881 h 0.41454 0.41452 v -3.82493 -3.83393 l -10.0593,-10.17882 -10.05931,-10.17882 h -1.26202 z m 0,18.45867 v 4.20293 4.20292 l 10.94364,11.04281 10.94364,11.0428 0.49744,-4.06793 0.50665,-4.05893 -11.45029,-11.1868 z m 0,17.82868 v 5.45391 5.4449 h 5.28758 5.27837 v -0.44098 -0.45001 l -5.27837,-5.00391 z m 0,15.32673 v 4.41892 4.42793 h -1.51074 -1.51074 v 5.77792 5.76888 l 1.88843,0.74699 1.88842,0.74699 10.2896,0.11704 10.28039,0.11704 2.92014,-1.52997 2.92015,-1.52996 v -4.41895 -4.40992 l -2.26611,-0.855 -2.2569,-0.84596 v -4.26593 -4.26592 h -11.32132 z m 4.53221,4.41892 h 6.78911 6.78911 v 1.30498 1.30498 l -3.38995,0.56701 -3.39916,0.56696 -3.39916,-0.49498 -3.38995,-0.50399 v -1.36798 z m 25.65492,20.55565 -18.48813,0.41379 -18.48811,0.41379 -0.44217,11.4298 -0.44216,11.4298 h 2.33058 2.32138 v 2.20494 2.21396 h 14.3428 14.33359 v -2.21396 -2.20494 h 2.26611 2.26611 V 474.1872 Z m -33.20861,5.99388 h 1.51074 1.51074 v 5.15691 5.1569 h -1.51074 -1.51074 v -5.1569 z m 12.07669,0 h 3.02148 3.01226 v 5.15691 5.1569 h -3.01226 -3.02148 v -5.1569 z m 13.58743,0 h 2.2569 2.26611 v 5.15691 5.1569 h -2.26611 -2.2569 v -5.1569 z m -25.66412,25.06459 v 2.32193 2.33096 l 4.41246,4.30195 4.41247,4.3109 h 4.74408 4.74409 l 3.29783,-1.70996 3.29783,-1.71898 1.83315,-2.33995 1.84236,-2.33994 0.0462,-2.57399 0.0462,-2.58292 h -14.33358 z" id="path2686" style="fill:url(#linearGradient3252);stroke-width:1.4918;fill-opacity:1"/>
  </g>
</svg>