<?xml version="1.0" encoding="UTF-8" standalone="no"?>
<svg
   inkscape:version="1.2.2 (b0a8486541, 2022-12-01)"
   sodipodi:docname="empire.svg"
   viewBox="0 0 512 512"
   height="512"
   width="512"
   id="svg885"
   version="1.1"
   inkscape:export-filename="../GIT Icons/empire.png"
   inkscape:export-xdpi="96"
   inkscape:export-ydpi="96"
   xmlns:inkscape="http://www.inkscape.org/namespaces/inkscape"
   xmlns:sodipodi="http://sodipodi.sourceforge.net/DTD/sodipodi-0.dtd"
   xmlns="http://www.w3.org/2000/svg"
   xmlns:svg="http://www.w3.org/2000/svg"
   xmlns:rdf="http://www.w3.org/1999/02/22-rdf-syntax-ns#"
   xmlns:cc="http://creativecommons.org/ns#"
   xmlns:dc="http://purl.org/dc/elements/1.1/">
  <metadata
     id="metadata891">
    <rdf:RDF>
      <cc:Work
         rdf:about="">
        <dc:format>image/svg+xml</dc:format>
        <dc:type
           rdf:resource="http://purl.org/dc/dcmitype/StillImage" />
      </cc:Work>
    </rdf:RDF>
  </metadata>
  <defs
     id="defs889" />
  <sodipodi:namedview
     inkscape:current-layer="g893"
     inkscape:window-maximized="1"
     inkscape:window-y="24"
     inkscape:window-x="0"
     inkscape:cy="249.31853"
     inkscape:cx="238.33161"
     inkscape:zoom="0.59161267"
     showgrid="false"
     id="namedview887"
     inkscape:window-height="695"
     inkscape:window-width="1366"
     inkscape:pageshadow="2"
     inkscape:pageopacity="0"
     guidetolerance="10"
     gridtolerance="10"
     objecttolerance="10"
     borderopacity="1"
     bordercolor="#ffffff"
     pagecolor="#a1a1a1"
     inkscape:pagecheckerboard="true"
     inkscape:showpageshadow="0"
     inkscape:deskcolor="#7d7d7d" />
  <g
     id="g893"
     inkscape:label="Image"
     inkscape:groupmode="layer">
    <g
       id="g603"
       transform="matrix(0.93997153,0,0,0.94140068,15.367289,15.001428)">
      <rect
         style="fill:#ffffff;stroke-width:5.87228"
         id="rect547"
         width="373.59906"
         height="425.86679"
         x="72.118774"
         y="46.859623"
         ry="103.73283" />
      <path
         id="path1135-3"
         style="fill:#ffffff;fill-opacity:1;stroke-width:2.09606"
         d="m 262.40373,-8.2623951 c -20.51828,0.2864984 -41.07631,0.7790824 -61.47606,3.1542917 -13.59206,1.8128659 -27.07201,4.47258563 -40.34078,7.9322911 C 143.89553,7.2887756 127.51472,13.569724 113.03,23.11199 96.771278,33.787275 82.790027,48.173755 73.44273,65.292519 67.154207,76.981545 62.980641,89.788446 60.995595,102.90506 c -1.013825,7.24726 -0.650273,14.66402 -0.388741,21.89699 0.123989,4.0009 0.215983,8.00821 0.0059,12.00782 -7.63951,2.69041 -14.543993,7.54523 -19.420092,14.03884 -5.940883,7.76854 -9.244188,17.17222 -11.533269,26.58389 -3.682023,15.08644 -5.032101,30.63957 -5.274293,46.13606 -0.09131,5.14492 -0.0703,10.29101 -0.06532,15.43652 -6.745927,6.5049 -13.267668,13.36615 -18.2720759,21.33487 -6.44427221,9.8405 -11.3427136,20.81952 -13.4990367,32.42045 -1.5189689,9.12007 -1.0082847,18.39853 -1.0111285,27.59956 0.1581123,6.54807 1.4782637,13.14263 4.4797831,19.00157 3.69632292,8.15101 8.9391692,15.49253 14.681793,22.31657 4.998674,6.65214 9.110492,13.99535 14.888582,20.04114 3.374489,3.61382 7.141947,6.89072 11.353176,9.49678 1.287535,5.31551 4.155493,10.07025 5.578126,15.34375 2.362865,8.17074 3.34301,16.66782 5.715667,24.83722 4.017653,14.349 10.791497,27.92467 19.915698,39.71025 7.553481,9.94112 16.241919,19.09039 26.204572,26.64589 10.983714,8.19096 23.639374,14.09751 36.946684,17.34537 13.73321,3.52158 27.93035,5.03707 42.08964,5.16614 14.47004,0.0521 28.94865,-1.34097 43.13952,-4.17061 11.8275,-2.50265 23.39456,-6.92234 33.23726,-14.04059 2.0175,-1.43205 3.96362,-2.96265 5.85252,-4.56008 11.13814,8.70916 24.53318,14.14527 38.26309,17.19063 16.36792,3.67089 33.23151,4.4784 49.95771,4.1829 9.7449,-0.22028 19.52997,-0.74142 29.11358,-2.62729 9.06771,-1.73609 17.93613,-4.59073 26.20883,-8.70646 22.13582,-10.66766 40.56897,-28.5539 52.48691,-49.98935 9.26052,-16.51304 14.62399,-35.11526 16.07778,-53.9675 0.15596,-0.69085 -0.0355,-1.50753 0.31757,-2.11726 7.07081,-8.12733 13.72211,-16.62254 19.79343,-25.52291 4.31385,-6.05363 9.23793,-11.63457 14.18034,-17.17455 11.93227,-14.06426 18.85781,-32.44644 18.51051,-50.94044 -0.19614,-14.31822 -4.47493,-28.38633 -11.28229,-40.91686 -5.47649,-10.32324 -12.49462,-19.96388 -21.41087,-27.58451 -0.37724,-0.38899 -0.96369,-0.67604 -1.2282,-1.10999 0.0396,-12.44139 -0.1436,-24.91286 -1.60858,-37.28136 -1.25988,-12.12743 -3.10134,-24.24696 -6.48723,-35.97997 -1.64929,-5.39541 -4.31922,-10.5539 -8.27762,-14.62128 -4.25863,-4.58096 -9.28624,-8.43343 -14.72337,-11.51134 -0.52003,-0.28013 -1.04499,-0.55037 -1.57518,-0.81074 -0.90238,-14.26207 -2.6877,-28.5211 -6.35502,-42.356851 C 442.93592,77.812313 435.34946,60.574093 424.09084,45.90052 415.35375,34.395006 404.33784,24.539234 391.61202,17.641683 376.37498,9.1633843 359.61547,3.8299853 342.70428,-0.15128931 327.26005,-3.703576 311.55544,-6.0898073 295.77359,-7.4857835 c -11.1021,-0.8227188 -22.24396,-0.788051 -33.36986,-0.7766116 z m -5.80468,59.5859381 c 12.44236,0.118586 24.82425,0.340849 37.23635,1.040859 6.04468,0.341933 12.15504,0.750918 18.19239,1.693956 4.45609,0.70932 8.91712,1.575241 13.27193,2.487209 11.66811,2.493365 23.36996,5.568262 33.98234,11.159437 8.63373,4.448711 16.09842,11.349632 20.66684,19.970604 4.56353,8.218885 7.51803,17.217112 9.91471,26.273782 1.15123,4.54601 2.07027,9.15083 2.72958,13.79407 0.0757,0.55766 0.1905,1.45462 0.28119,2.14239 0.10762,0.96281 0.20339,1.92708 0.30279,2.89081 -22.45994,-2.54606 -44.92657,-5.70754 -67.49378,-7.52591 -23.01911,-1.75324 -46.12348,-1.42599 -69.19059,-1.49854 -19.80565,0.0277 -39.62403,-0.10346 -59.41306,0.83159 -10.55585,0.50319 -21.07855,1.53387 -31.56195,2.84982 -10.729,1.31217 -21.45804,2.86815 -32.14921,4.31375 6.26668,-7.91338 13.15268,-15.68736 20.35838,-22.9361 10.85594,-10.949541 22.69569,-20.915158 35.31064,-29.779956 9.5828,-6.735578 19.27665,-13.310962 28.9012,-19.986798 3.4232,-2.360767 6.84641,-4.721534 10.26962,-7.082301 3.98652,-0.254422 7.94021,-0.39637 11.891,-0.484219 5.4991,-0.120322 10.99954,-0.125306 16.49963,-0.154453 z M 243.98381,173.18487 c 18.75588,0.0356 37.46348,0.43984 56.18455,1.36538 14.53152,0.70326 29.20568,1.69422 43.6854,3.04774 16.41819,1.52108 32.7764,3.46848 49.01477,6.43142 2.10319,0.38995 4.2044,0.79126 6.29888,1.22577 0.4481,6.18675 0.78248,12.38902 1.10007,18.60915 0.0558,1.10294 0.11167,2.20588 0.1675,3.30882 -4.3897,1.59955 -7.93365,5.16389 -9.73467,9.45076 -2.03397,4.29881 -3.1464,9.09928 -4.48603,13.53947 -1.29853,4.19556 -2.87979,8.39529 -5.46605,11.98201 -0.36924,0.32154 -0.59387,1.1573 -1.14792,0.99089 -4.57328,-1.17904 -8.96078,-3.31906 -13.2454,-5.0393 -6.58464,-2.77589 -13.06301,-5.89732 -19.94896,-7.87242 -6.31566,-1.44903 -13.52906,0.97425 -17.22952,6.40351 -4.14758,5.71922 -3.8055,14.23176 0.85109,19.56213 2.87506,3.51869 7.11845,5.41195 11.11036,7.34809 15.07266,7.42022 31.0325,12.86538 46.06077,20.379 0.55861,1.7774 -0.66503,3.42574 -1.28526,5.012 -2.73406,5.74987 -6.00403,11.22858 -9.355,16.63626 -2.11499,3.39437 -4.30595,6.74076 -6.4945,10.08807 -5.09729,-2.19953 -10.07804,-4.70982 -14.76534,-7.68902 -3.4741,-2.45105 -6.42168,-5.54387 -9.58883,-8.3612 -15.33887,-14.21036 -29.87335,-29.26113 -45.15962,-43.52541 -6.50015,-5.96838 -13.21472,-11.95003 -21.23228,-15.80892 -4.9049,-2.33926 -10.24522,-3.66296 -15.64289,-4.18507 -8.27064,-0.92687 -16.78312,0.0407 -24.53792,3.11046 -9.18966,3.45713 -17.51415,8.9477 -24.77353,15.51681 -17.58095,15.37159 -33.86916,32.13833 -51.12772,47.86032 -5.03523,4.48428 -10.17037,8.99935 -16.23465,12.05501 -1.68155,0.86059 -3.388,1.67325 -5.12863,2.40788 -5.7509,-8.86768 -11.22787,-17.91588 -16.42809,-27.11598 -0.67435,-1.35058 -1.19757,-2.90346 -0.87269,-4.42309 2.10103,-1.47224 4.33472,-2.55955 6.61055,-3.77978 7.71316,-3.97935 15.63386,-7.57473 23.08564,-12.04402 13.80005,-7.8187 27.60944,-15.6204 41.41905,-23.42229 -19.2496,-0.69002 -38.49385,-1.52378 -57.74101,-2.27165 -2.52765,-0.0543 -5.05788,0.14487 -7.58321,-0.0233 -1.97501,-2.99664 -3.23664,-6.39657 -4.40346,-9.77105 -2.12045,-6.43983 -3.25325,-13.16608 -5.50084,-19.56489 -1.56642,-4.02535 -4.50945,-7.63637 -8.52301,-9.39516 -0.64701,-0.20826 -0.14314,-1.11992 -0.26563,-1.64875 0.2166,-5.99815 0.50521,-11.99349 0.81794,-17.98734 7.98972,-1.77409 16.28146,-3.26045 24.46128,-4.66162 5.69335,-0.96488 11.406,-1.86531 17.07598,-2.66996 3.90967,-0.57475 7.95914,-1.04422 11.80649,-1.48287 4.97342,-0.53999 9.95628,-0.98613 14.94336,-1.37891 6.16841,-0.46705 12.54827,-0.86161 18.75106,-1.1505 14.81042,-0.72023 29.60859,-0.99839 44.45792,-1.05848 z m 13.85156,114.61718 c 5.57483,-0.004 11.22624,1.32254 15.95995,4.33665 8.01102,4.60106 14.9933,10.71079 22.16891,16.47195 11.04089,9.072 22.1579,18.15409 34.43242,25.53331 11.7431,7.15064 24.36001,12.76097 37.27905,17.41648 8.25133,3.03329 16.61966,5.76148 24.75538,9.10099 3.12335,1.37652 5.94033,3.36826 8.38086,5.74609 2.0911,1.96155 4.10865,4.00156 6.25586,5.90235 -1.12331,4.03128 -0.72379,8.25971 -0.75335,12.39083 0.13485,6.44661 0.50147,12.8073 0.41005,19.25403 -0.0579,3.00177 -0.52408,5.99518 -1.49773,8.83932 -3.16121,10.82067 -8.53743,21.11666 -16.35216,29.31059 -1.59901,1.7119 -3.27997,3.34759 -5.03728,4.89663 -0.82177,0.71209 -1.84654,1.58169 -2.78828,2.30628 -4.41325,3.576 -9.60408,6.17233 -15.12289,7.52321 -7.70209,1.96454 -15.7605,2.30795 -23.60874,2.49638 -4.81567,0.0959 -9.62967,0.0469 -14.39268,-0.14637 -7.89861,-0.35106 -15.81493,-1.13511 -23.52296,-2.94668 -3.1951,-0.77143 -6.36883,-1.7774 -9.26172,-3.35977 -0.0769,-3.64018 0.0309,-7.2807 0.10938,-10.91992 4.21386,-4.1571 6.4197,-9.8279 8.00197,-15.41979 1.88916,-6.20821 3.50425,-12.56142 3.93716,-19.05627 0.19769,-5.91254 -2.03775,-11.91437 -6.28484,-16.07277 -0.3879,-0.38964 -0.94362,-0.71527 -0.77747,-1.34793 -0.0743,-4.89627 -0.53481,-10.00836 -3.06777,-14.31962 -1.01536,-1.82013 -2.3475,-3.46399 -3.84421,-4.89886 -8.7e-4,-5.03265 -1.23048,-10.29654 -4.60799,-14.16818 -3.40722,-4.01774 -8.32303,-6.3292 -13.18107,-8.09354 -5.25479,-1.74359 -11.19601,-1.72747 -16.25046,0.66464 -0.85469,0.37871 -1.68174,0.81756 -2.48782,1.29044 -4.1701,-2.66424 -9.31365,-4.29816 -14.25576,-3.17334 -3.7368,0.81743 -7.13962,2.63769 -10.67588,4.03076 -4.42374,1.92734 -8.78864,4.69573 -11.15906,9.04303 -1.95065,3.45025 -2.67733,7.56605 -2.08118,11.48041 -3.38133,2.73615 -5.92482,6.67589 -6.37845,11.06205 -0.3126,2.54864 -0.40952,5.13236 -1.06137,7.62833 -0.47244,2.38496 -1.02155,4.90927 -2.73247,6.74728 -2.36957,2.97465 -4.26166,6.59762 -4.12849,10.49789 0.0434,3.98052 1.81061,7.63561 2.74243,11.44158 1.83203,6.12438 3.43775,12.37596 6.25688,18.14138 1.07589,1.99156 2.46664,3.81348 4.10421,5.37602 0.12924,2.79281 0.66892,5.60547 0.21289,8.39453 -1.11328,1.66045 -3.00693,2.53321 -4.65788,3.55437 -3.45465,1.83626 -7.21811,3.01886 -11.03158,3.84407 -0.34568,0.0706 -1.06302,0.22231 -1.562,0.3151 -3.59041,0.67218 -7.22183,1.09905 -10.85792,1.431 -0.58873,0.0422 -1.34481,0.1137 -1.99713,0.15416 -4.00544,0.28455 -7.90532,0.39362 -11.93256,0.35951 -3.37175,-0.0446 -6.78066,-0.17772 -10.11523,-0.42969 -2.20609,-0.16562 -4.51348,-0.38953 -6.56641,-0.63476 -2.12295,-0.2617 -4.23139,-0.56537 -6.26873,-0.92492 -1.94627,-0.3447 -4.13612,-0.7915 -6.15675,-1.2872 -4.91892,-1.21713 -10.01273,-2.64575 -13.94756,-6.00468 -1.56173,-1.34911 -3.16528,-2.70316 -4.65625,-4.0918 -4.27559,-3.92833 -8.41204,-8.27021 -12.10938,-12.8457 -2.70236,-3.43416 -4.89913,-7.24428 -6.70312,-11.21875 -0.17258,-0.38236 -0.43987,-0.98211 -0.62483,-1.43105 -2.89696,-6.4717 -3.38871,-13.73997 -3.76634,-20.65523 -0.40533,-7.21577 -0.2861,-14.48555 -1.38867,-21.64409 -0.24999,-1.17828 -0.6178,-2.33192 -1.09516,-3.4376 3.89824,-2.24291 6.95851,-5.60321 10.32857,-8.52411 2.94155,-2.669 6.12528,-5.13134 9.76269,-6.77851 6.96766,-3.4948 14.39531,-5.92176 21.63982,-8.75645 14.06942,-5.31666 28.03437,-11.17222 40.82346,-19.16427 15.22929,-9.47348 28.73563,-21.34949 43.01127,-32.13878 4.31183,-3.21139 8.63025,-6.43566 13.20619,-9.26465 3.51845,-2.11827 7.48699,-3.70499 11.64765,-3.71625 1.7721,-0.0974 3.54832,-0.0922 5.32253,-0.11011 z" />
      <path
         style="fill:#000000;fill-opacity:1;stroke-width:2.09606"
         d="m 313.7937,457.85763 c -7.31982,-2.06981 -14.80443,-7.09081 -17.73528,-11.89759 -1.74082,-2.85507 -2.34045,-6.00794 -2.34378,-12.32362 -0.007,-13.45318 3.6003,-20.79588 10.21677,-20.79588 1.53181,0 3.0575,-0.44076 3.39044,-0.97946 0.33293,-0.5387 -1.55121,-5.47226 -4.18698,-10.96346 -5.71288,-11.90183 -10.63676,-23.8263 -10.57648,-25.61374 0.0239,-0.70838 3.1959,5.18834 7.04892,13.10382 7.2791,14.95386 14.15745,23.25762 19.26527,23.25762 3.24689,0 8.24649,-2.66859 16.80921,-8.97211 8.90725,-6.55714 13.95177,-8.22418 22.53219,-7.44614 20.20194,1.83185 35.12537,23.13467 28.0651,40.06222 -3.87224,9.284 -12.41114,15.42198 -28.62468,20.57614 -10.51765,3.34349 -35.12867,4.46135 -43.8607,1.9922 z"
         id="path5332" />
      <path
         style="fill:#000000;fill-opacity:1;stroke-width:2.09606"
         d="m 159.63686,503.67183 c -34.18122,-3.22338 -53.9097,-12.83117 -73.616236,-35.85121 -14.085391,-16.45375 -21.390736,-31.88509 -25.202895,-53.23701 -1.286147,-7.2037 -3.728953,-16.05582 -5.428459,-19.67136 -1.699504,-3.61554 -3.095262,-7.47095 -3.101684,-8.56758 -0.02226,-3.80125 -1.522918,-5.88782 -5.836379,-8.11512 -5.489087,-2.83435 -11.854448,-9.50836 -17.32157,-18.16148 -2.347865,-3.7161 -6.526996,-9.36351 -9.286962,-12.54981 -2.759964,-3.18628 -6.676224,-9.28927 -8.7028,-13.56218 -3.5052384,-7.39058 -3.6846826,-8.49652 -3.6846826,-22.70917 0,-12.41828 0.4675257,-16.35253 2.7696506,-23.30677 4.075211,-12.31036 11.490681,-23.98966 21.362161,-33.64521 l 8.736714,-8.54562 0.0098,-16.55399 c 0.01159,-19.6297 1.511005,-34.33564 4.917119,-48.22729 4.489531,-18.31032 11.160619,-26.76728 23.637142,-29.96492 5.547247,-1.42172 5.821649,-1.69527 7.053378,-7.0314 0.768853,-3.33085 1.01618,-11.74485 0.618197,-21.0309 -0.560796,-13.08509 -0.281927,-17.06772 1.803321,-25.753843 4.590912,-19.1235 13.212708,-34.223006 27.314895,-47.83706 20.86129,-20.139205 48.15575,-31.208528 94.2079,-38.206194 21.23337,-3.2264297 78.27255,-4.5679131 99.00387,-2.3284354 47.72829,5.1557974 82.34536,16.8993764 101.15814,34.3171284 22.50768,20.838659 35.1333,52.181907 37.78418,93.799554 l 0.81128,12.73685 5.23488,1.46568 c 5.70878,1.59836 15.10903,9.12901 17.64264,14.13374 4.54284,8.97363 9.06625,40.36928 9.0751,62.98763 l 0.007,18.00495 5.37412,4.02667 c 9.79108,7.33614 19.94633,22.56735 24.9925,37.48464 7.76585,22.95712 2.72689,46.05495 -13.91289,63.77448 -4.18698,4.45868 -10.44145,12.29924 -13.89881,17.42348 -3.45735,5.12424 -9.51621,13.06981 -13.46412,17.65681 l -7.17802,8.34 -1.17017,11.43781 c -3.86492,37.77758 -26.50945,70.99437 -59.13372,86.74197 -15.00346,7.24211 -29.03046,9.77452 -54.27822,9.79936 -37.08184,0.0365 -61.5599,-7.02111 -77.35127,-22.30211 l -5.04051,-4.8776 -6.35003,6.00559 c -7.9578,7.52615 -14.65998,11.78161 -24.22712,15.38267 -14.77373,5.56082 -44.26778,8.50322 -65.32749,6.51725 z m 42.52602,-28.81763 c 16.07105,-2.8007 27.79951,-9.92949 30.67605,-18.64553 0.86191,-2.61159 1.12109,-7.08052 0.6642,-11.45195 -0.47021,-4.49876 -0.26577,-7.75167 0.54889,-8.73328 1.80305,-2.17254 0.31984,-4.05939 -3.19097,-4.05939 -3.27428,0 -3.79979,-1.00087 -7.9725,-15.18384 l -2.55727,-8.69216 2.72948,-3.69182 c 2.2134,-2.99379 4.71213,-12.87379 4.88833,-19.3285 0.0133,-0.4842 1.93387,-1.67836 4.26814,-2.65367 4.04877,-1.69169 4.20899,-1.98121 3.48129,-6.29094 -0.41955,-2.4847 -1.00048,-5.39419 -1.29097,-6.46552 -0.49831,-1.83779 0.39171,-2.3704 11.0933,-6.63862 0.76574,-0.30542 3.529,1.37513 6.14058,3.73453 l 4.74833,4.28983 5.067,-4.23335 c 5.25539,-4.39076 6.56999,-4.50951 13.05579,-1.17932 2.62412,1.34738 2.88347,2.15412 2.60753,8.1111 -0.27797,6.00098 -0.0492,6.69518 2.46455,7.48007 3.87508,1.20992 4.5246,2.62801 4.54549,9.92403 0.016,5.61056 0.47651,6.82102 3.76233,9.89041 3.37158,3.14953 3.67466,3.99979 3.04685,8.54726 -0.38345,2.77741 -1.79345,8.5913 -3.13335,12.91975 -1.84409,5.95728 -3.16553,8.20225 -5.43728,9.23732 -2.86812,1.30681 -3.00951,1.85851 -3.19049,12.44881 -0.25608,14.98446 -0.19378,15.33155 3.43118,19.1152 7.30074,7.62032 27.13958,12.05172 54.1287,12.09072 32.46452,0.047 46.07579,-4.47164 62.17714,-20.64108 10.06612,-10.10866 17.03239,-22.06926 21.53695,-36.97731 2.38382,-7.88943 2.60002,-10.62161 2.07174,-26.18246 -0.52084,-15.34159 -0.39527,-17.00252 1.07345,-14.19936 0.91481,1.74598 2.1336,3.17449 2.70841,3.17449 2.0121,0 17.01636,-17.2761 23.60747,-27.18193 15.35595,-23.07857 18.83165,-45.04484 8.66265,-54.74751 l -3.69833,-3.52872 -1.99802,2.49922 c -1.09891,1.37459 -9.77565,15.76057 -19.28164,31.96886 l -17.28361,29.46964 -4.23033,-3.99254 c -7.26701,-6.8585 -10.94238,-8.74897 -29.35957,-15.10134 -33.39912,-11.51989 -47.66953,-19.60164 -75.27799,-42.63208 -25.34859,-21.1453 -34.04727,-25.51854 -50.75818,-25.51854 -16.90734,0 -21.75775,2.56689 -55.0099,29.11173 -24.86367,19.84842 -36.40765,26.30749 -67.73759,37.90053 -19.49175,7.21254 -25.12403,10.27532 -33.5705,18.25534 -3.4585,3.26751 -6.416667,5.72279 -6.57371,5.45618 -0.157042,-0.26661 -1.56569,-2.90505 -3.13033,-5.86322 -6.469654,-12.23178 -34.078553,-56.43036 -35.61873,-57.02138 -2.217755,-0.85103 -6.300025,2.9196 -8.314976,7.6802 -0.895328,2.11535 -1.681482,6.95599 -1.747008,10.75697 -0.09076,5.2647 -0.347086,6.19914 -1.07608,3.92286 -0.526317,-1.64343 -1.018789,-5.13945 -1.094382,-7.76893 -0.09913,-3.44837 -0.447546,-4.29052 -1.250062,-3.02155 -1.705818,2.69734 -2.8813,-1.38681 -2.092271,-7.26946 1.478704,-11.02456 13.238129,-27.39911 23.480429,-32.69562 3.997011,-2.06693 11.195105,-1.76469 12.613059,0.5296 0.365712,0.59173 -3.514822,4.26323 -8.623411,8.15887 -12.643689,9.64165 -23.777508,21.74836 -20.000684,21.74836 0.353233,0 4.52156,-3.18319 9.262949,-7.07375 4.74139,-3.89056 12.887317,-10.4792 18.102063,-14.64143 5.214745,-4.16223 9.665924,-8.14732 9.891508,-8.85576 1.210358,-3.80108 -16.678233,-6.69635 -23.560026,-3.81318 -11.947527,5.00547 -22.667955,21.25804 -25.644948,38.87871 -0.469811,2.78079 -0.214639,7.96128 0.580902,11.79338 1.137135,5.47754 2.53726,8.03871 7.053499,12.90256 3.099106,3.33763 7.725151,9.69891 10.2801,14.13616 4.300422,7.46867 6.539124,9.81774 6.539124,6.86151 0,-0.66343 -2.2549,-6.44531 -5.010887,-12.84861 -6.466307,-15.02393 -7.45639,-24.46097 -3.097917,-29.528 l 2.899547,-3.37092 6.659221,10.62827 c 11.010912,17.57367 21.120662,35.75075 23.848482,42.87899 l 2.571267,6.71913 -3.290414,6.88434 c -3.292112,6.88789 -3.714774,12.1139 -1.050646,12.99069 0.779406,0.25652 2.182733,-0.99487 3.118506,-2.78085 1.560228,-2.97781 1.75296,-1.76905 2.322702,14.56747 0.687254,19.70602 2.650302,27.24649 10.619164,40.79038 5.18923,8.8196 21.43655,25.11147 29.13608,29.21595 15.39564,8.20714 48.54298,11.26873 73.99055,6.834 z M 421.42196,345.22109 c 1.78433,-3.91618 1.31901,-4.58498 -6.18416,-8.88826 -9.45969,-5.42539 -16.3215,-4.24557 -12.86547,2.21208 1.08771,2.03239 14.41472,9.7538 16.83491,9.7538 0.44686,0 1.44348,-1.38493 2.21472,-3.07762 z m -24.77339,-9.03466 c 7.67973,-8.22119 33.25972,-51.94331 33.29662,-56.91163 0.0108,-1.47908 0.24629,-2.68924 0.5229,-2.68924 0.908,0 20.28691,12.18042 26.10697,16.40927 3.13145,2.27531 7.10178,6.53988 8.82294,9.47682 3.26492,5.57117 3.40117,9.36814 0.90538,25.23365 -0.66978,4.25773 -0.50425,4.98921 0.99844,4.41257 0.99072,-0.38018 3.27124,-3.39198 5.06782,-6.6929 4.37452,-8.03741 4.6447,-21.95443 0.63127,-32.5171 -4.83409,-12.72257 -18.08926,-26.08731 -27.44033,-27.66716 -6.30957,-1.066 -13.70867,0.2353 -17.08608,3.00496 -2.32773,1.90888 -2.48878,2.54259 -1.18846,4.67639 1.72369,2.82854 1.22556,3.07363 -2.06736,1.01716 -3.47964,-2.17306 -6.6762,1.39892 -22.15571,24.75789 -20.83298,31.43747 -23.32973,37.73152 -15.8269,39.89788 5.68423,1.64126 5.61218,1.65969 9.4125,-2.40856 z m 31.66279,-1.67719 c 1.88517,-2.87713 1.8594,-3.16829 -0.50299,-5.68294 -1.36947,-1.45773 -5.51009,-4.26144 -9.20137,-6.23045 l -6.7114,-3.58001 -2.31981,2.82165 c -4.28324,5.20986 -2.74397,8.24904 6.64435,13.11876 6.45355,3.34746 9.68322,3.22806 12.09122,-0.44701 z m -277.02565,-4.15252 c 11.56412,-5.41151 17.40422,-10.24531 46.93231,-38.84541 14.64538,-14.18512 29.75967,-27.88239 33.58731,-30.43839 10.64541,-7.10874 19.20542,-9.93778 28.00743,-9.25634 14.21161,1.10023 18.09068,3.86037 50.53603,35.95855 16.15753,15.98464 31.93526,30.79115 35.06162,32.90334 7.64782,5.1669 22.25994,12.01544 27.42438,12.85352 l 4.19403,0.68059 8.13303,-12.37924 c 10.45566,-15.9145 16.93614,-27.99353 17.9215,-33.40408 1.18027,-6.48074 -1.23387,-13.67804 -5.74104,-17.11584 -2.12458,-1.62049 -12.99919,-6.66086 -24.16583,-11.20084 -19.117,-7.77232 -35.16082,-15.38763 -29.86471,-14.17549 1.31474,0.30091 8.60241,3.28157 16.19482,6.62369 17.37316,7.64753 22.89875,8.54853 28.6259,4.66774 5.81412,-3.93973 11.05038,-13.26117 14.2472,-25.36243 1.49108,-5.64438 3.14179,-9.9963 3.66822,-9.67095 1.05605,0.65267 4.21681,17.45286 5.40195,28.71259 0.63831,6.06434 0.18189,8.98565 -2.91373,18.64952 -2.01882,6.30234 -3.67057,12.34442 -3.67057,13.42683 0,3.55402 4.37649,2.08242 7.58772,-2.5514 5.89358,-8.50442 6.52641,-18.52013 4.28334,-67.79134 -0.71826,-15.7769 -1.67109,-31.37387 -2.11743,-34.65996 l -0.81151,-5.9747 -9.55074,-2.04865 c -58.26417,-12.49775 -175.29443,-16.67587 -243.8137,-8.70441 -18.11228,2.10717 -51.65942,8.13658 -58.56573,10.52602 l -4.780883,1.65407 -1.026023,19.60381 c -0.564311,10.78209 -1.10216,33.31895 -1.195219,50.0819 -0.163754,29.49788 -0.08258,30.64017 2.523951,35.5178 2.537322,4.74813 5.693814,7.51009 8.582864,7.51009 2.15071,0 1.43461,-4.19862 -2.31187,-13.55501 -2.86793,-7.16232 -3.57813,-10.70922 -3.54809,-17.7198 0.0335,-7.81959 3.75111,-33.86844 5.01378,-35.13112 0.27228,-0.27227 1.4681,3.66624 2.65737,8.75225 3.85539,16.48787 9.14976,27.03244 15.1981,30.26942 1.37001,0.73321 5.51648,1.30312 9.21437,1.26649 l 6.72344,-0.0666 -12.5498,6.21968 c -9.28019,4.59927 -13.25043,7.27776 -15.23905,10.2809 -3.19516,4.82524 -3.54952,12.48251 -0.87401,18.88592 1.8801,4.49971 19.9384,33.93862 23.19963,37.82039 2.41432,2.87369 7.32328,2.09875 17.81964,-2.81309 z m 282.4698,-5.55003 c 1.20216,-1.08794 2.18574,-2.83725 2.18574,-3.88735 0,-1.87166 -14.67674,-12.06286 -17.3722,-12.06286 -1.41724,0 -4.14174,4.97599 -4.14174,7.56445 0,1.42066 13.78747,10.31439 16.04135,10.3476 0.6056,0.008 2.08468,-0.8739 3.28685,-1.96184 z m 7.53354,-12.3052 c 1.00293,-1.93947 1.82352,-3.79561 1.82352,-4.12478 0,-1.24834 -15.28568,-9.08199 -17.72158,-9.08199 -3.17132,0 -4.79855,5.1164 -2.50584,7.87895 1.45466,1.75275 13.81246,8.67032 15.71465,8.79663 0.47615,0.0317 1.68631,-1.52934 2.68925,-3.46881 z M 88.588387,263.73695 c 1.749112,-5.9296 4.604462,-42.96436 4.75308,-61.6489 0.197369,-24.81367 0.246624,-24.70568 -11.268214,-24.70568 h -6.797566 l -1.852268,7.47012 c -3.72358,15.01704 -4.751478,27.0604 -4.043007,47.36983 0.741924,21.26846 2.133719,29.72808 5.283175,32.11224 1.085474,0.82172 4.523788,1.49403 7.6407,1.49403 4.365392,0 5.808832,-0.48045 6.2841,-2.09164 z m 344.974813,0.89642 c 3.95866,0 5.67864,-3.32278 7.24656,-13.99945 2.38788,-16.26002 1.92095,-37.9276 -1.2051,-55.92087 -1.4847,-8.54582 -2.94808,-15.94124 -3.25196,-16.43426 -0.30389,-0.49303 -4.23744,-0.89642 -8.74123,-0.89642 h -8.1887 l -0.80549,9.86056 c -0.95408,11.67967 1.35331,65.24968 3.09153,71.77484 1.21024,4.5432 4.73493,7.22916 8.0553,6.13847 0.87547,-0.28758 2.58507,-0.52287 3.79909,-0.52287 z M 144.90539,146.31055 c 44.38154,-6.16553 51.35007,-6.57774 111.15538,-6.57517 59.21062,0.002 63.93945,0.27174 115.33865,6.56543 15.44821,1.8916 30.23904,3.60798 32.86853,3.81419 l 4.78087,0.37494 0.39006,-6.5737 c 1.00938,-17.01067 -4.68551,-42.36331 -13.5668,-60.397016 -12.57523,-25.534416 -34.58414,-37.670628 -82.44079,-45.459727 -16.05893,-2.613735 -69.18895,-3.663895 -90.41509,-1.78713 -53.52339,4.732415 -85.0953,16.43731 -103.18896,38.256042 -5.57616,6.724159 -10.89068,17.208628 -13.1819,26.005191 -1.9815,7.60752 -2.41594,20.01249 -0.66291,18.92906 0.61428,-0.37964 2.82252,-5.11317 4.90721,-10.51895 7.6485,-19.833218 13.99091,-28.552993 28.08205,-38.608222 14.00378,-9.99288 35.88022,-17.724935 54.34008,-19.206067 l 8.96414,-0.71924 -19.69905,13.585699 c -26.43959,18.234405 -48.63765,39.76304 -67.93869,65.88989 -4.93713,6.68315 -10.96784,17.75275 -10.96784,20.13188 0,1.70916 6.36798,1.13668 41.23506,-3.7071 z"
         id="path1135" />
      <path
         style="fill:#ff0000;fill-opacity:1;stroke-width:2.09606"
         d="m 355.30962,231.60364 c -4.57648,-2.36279 -17.75377,-10.25192 -29.28287,-17.5314 -11.52909,-7.27949 -27.74336,-16.59243 -36.0317,-20.69542 -8.28834,-4.103 -15.95268,-8.34296 -17.03187,-9.42215 -3.25567,-3.25567 -2.45285,-7.50348 1.92229,-10.17106 4.43402,-2.70347 17.56508,-3.16531 33.00508,-1.16084 4.84103,0.62848 23.66573,2.22426 41.83266,3.54617 44.89314,3.26665 44.38537,3.15169 44.38537,10.04914 0,9.89553 -11.0336,38.952 -17.32389,45.62165 -5.24479,5.5611 -10.3553,5.50492 -21.47507,-0.23609 z"
         id="path1174" />
      <path
         style="fill:#ff0000;fill-opacity:1;stroke-width:2.09606"
         d="m 135.941,233.25887 c -5.55001,-3.78872 -10.3318,-13.02115 -13.77571,-26.59745 -3.61257,-14.24119 -3.92062,-23.89841 -0.81534,-25.56031 2.77375,-1.48446 16.92045,-3.28532 37.89807,-4.82437 72.1336,-5.29218 75.92415,-5.37394 79.58146,-1.71663 2.33218,2.33218 2.38427,2.75969 0.72548,5.95427 -2.24768,4.32872 -6.03939,7.11721 -19.43852,14.29541 -5.86807,3.14365 -21.42618,12.00354 -34.5736,19.68864 -40.40373,23.61734 -41.74431,24.12438 -49.60184,18.76044 z"
         id="path1694" />
      <path
         style="fill:#333333;fill-opacity:1;stroke-width:2.09606"
         d="m 125.68236,455.52727 c -8.48042,-4.94415 -15.823,-14.24963 -22.44538,-28.44572 -6.569388,-14.08248 -7.934894,-19.76696 -7.926516,-32.99737 0.0081,-12.85666 1.319657,-17.90772 6.371896,-24.54015 5.07674,-6.6646 10.19896,-9.37128 29.84318,-15.76971 19.57142,-6.37473 36.70813,-14.75806 52.12471,-25.4996 20.13036,-14.02586 26.6957,-18.32032 27.21465,-17.80137 0.27857,0.27857 -2.71152,5.40724 -6.64464,11.39705 -10.18136,15.50536 -12.27146,21.70779 -12.9335,38.3805 -0.41717,10.50579 0.0303,16.9693 1.89866,27.4266 1.34445,7.52487 2.31444,13.81161 2.15552,13.97052 -0.15892,0.15892 -4.89444,-2.06274 -10.52337,-4.93702 -16.61388,-8.4835 -23.87375,-10.4961 -35.72891,-9.90488 -11.66954,0.58196 -17.19738,2.89417 -24.13779,10.09649 -6.40799,6.64981 -9.2707,13.79514 -9.30209,23.21809 -0.0361,10.84849 2.32766,17.72902 9.4395,27.4763 3.33965,4.57721 6.07209,8.57971 6.07209,8.89442 0,1.03307 -2.93979,0.51566 -5.47801,-0.96415 z"
         id="path1733" />
      <path
         id="path3326"
         style="fill:#333333;fill-opacity:1;stroke-width:2.09606"
         d="m 84.394531,182.56445 c -2.924553,0.11063 -5.827822,1.94395 -6.761173,4.79304 -1.425002,4.041 -1.989099,8.31954 -2.622438,12.53936 -1.716402,12.70404 -2.422172,25.52983 -2.460849,38.34468 0.0143,4.08036 -0.189048,8.18841 0.356133,12.24364 0.241773,1.93731 1.259207,3.74191 2.849261,4.88895 1.659379,1.29889 3.507173,2.5985 5.643142,2.88449 1.76581,0.15351 2.96995,-1.47641 3.548659,-2.94611 1.495216,-3.7752 2.060811,-7.83515 2.681737,-11.82506 1.643196,-11.93977 2.245408,-23.99931 2.447026,-36.04209 0.07305,-8.29725 0.03431,-16.59512 0.05874,-24.89262 -1.913311,0.008 -3.827247,-0.0157 -5.740235,0.0117 z" />
      <path
         style="fill:#333333;fill-opacity:1;stroke-width:2.09606"
         d="m 125.46163,253.32875 c -1.92045,-1.61595 -4.96556,-6.22225 -6.76693,-10.23623 -3.63216,-8.09352 -9.55238,-30.4298 -10.76381,-40.61055 -0.73598,-6.18515 -0.66805,-6.43241 1.14928,-4.18326 1.06232,1.31474 5.94608,10.29186 10.8528,19.94915 10.92155,21.49554 13.54379,24.1522 23.12245,23.42593 4.36571,-0.33102 10.47055,-2.21652 17.87099,-5.5195 6.18208,-2.75921 11.46231,-4.79457 11.73384,-4.52304 0.59065,0.59065 -25.79999,19.12262 -31.84761,22.36395 -5.83434,3.12702 -11.11519,2.89775 -15.35101,-0.66645 z"
         id="path3365" />
      <path
         style="fill:#333333;fill-opacity:1;stroke-width:2.09606"
         d="m 138.58902,321.10747 c -1.26273,-1.80777 -3.74864,-6.21242 -5.52425,-9.78812 -1.7756,-3.5757 -4.99675,-8.95419 -7.1581,-11.95219 -5.54622,-7.69314 -5.90635,-9.29744 -3.10467,-13.83065 2.50617,-4.05508 14.23863,-10.93043 27.48188,-16.10469 18.09277,-7.06902 41.55126,-20.31711 61.92099,-34.96965 5.46093,-3.92821 10.18143,-6.88973 10.49,-6.58116 0.30857,0.30857 -10.82538,16.63735 -24.74211,36.28618 -41.76568,58.96836 -42.84858,60.22713 -51.81235,60.22713 -4.37989,0 -5.63802,-0.54762 -7.55139,-3.28685 z"
         id="path3404" />
      <path
         style="fill:#000000;fill-opacity:1;stroke-width:2.09606"
         d="m 156.57617,458.87244 c -14.59895,-4.0849 -24.71243,-11.43499 -29.66628,-21.56029 -7.21114,-14.73905 -1.4342,-29.23111 14.99307,-37.61168 3.59943,-1.83629 7.02021,-2.39317 14.60821,-2.37812 10.80241,0.0214 11.23501,0.19509 26.27399,10.54654 6.30917,4.34265 8.19395,5.08109 11.57043,4.53316 2.21845,-0.36001 5.11559,-1.61878 6.43811,-2.79727 1.32251,-1.1785 7.66134,-12.8997 14.08629,-26.04711 14.11792,-28.88958 16.79079,-32.77319 25.48278,-37.02579 5.40802,-2.6459 8.25931,-3.22995 15.92367,-3.26177 10.76307,-0.0447 16.9196,2.03991 22.7823,7.71407 5.3368,5.16517 4.91623,6.83459 -0.51946,2.06199 -6.72345,-5.90326 -13.0083,-8.28062 -21.8909,-8.28062 -9.09688,0 -15.52793,2.5119 -21.3584,8.34237 -5.70003,5.70003 -8.70424,10.86876 -17.40197,29.93998 -4.24327,9.30408 -9.12996,19.0546 -10.85932,21.66783 -3.6965,5.5858 -3.28872,7.60235 1.76166,8.7116 2.86249,0.62871 4.32888,2.07178 6.49081,6.3876 9.51556,18.99571 5.40827,30.70108 -13.12899,37.41635 -9.28286,3.3628 -35.99606,4.32452 -45.586,1.64116 z"
         id="path3443" />
    </g>
  </g>
</svg>
