<?xml version="1.0" encoding="UTF-8" standalone="no"?>
<!-- Created with Inkscape (http://www.inkscape.org/) -->

<svg
   version="1.1"
   id="svg870"
   width="512"
   height="512"
   viewBox="0 0 512 512"
   sodipodi:docname="espoofer.svg"
   inkscape:version="1.1.2 (0a00cf5339, 2022-02-04)"
   xmlns:inkscape="http://www.inkscape.org/namespaces/inkscape"
   xmlns:sodipodi="http://sodipodi.sourceforge.net/DTD/sodipodi-0.dtd"
   xmlns="http://www.w3.org/2000/svg"
   xmlns:svg="http://www.w3.org/2000/svg">
  <defs
     id="defs874" />
  <sodipodi:namedview
     id="namedview872"
     pagecolor="#505050"
     bordercolor="#eeeeee"
     borderopacity="1"
     inkscape:pageshadow="0"
     inkscape:pageopacity="0"
     inkscape:pagecheckerboard="0"
     showgrid="false"
     inkscape:zoom="0.67827625"
     inkscape:cx="213.7772"
     inkscape:cy="242.52655"
     inkscape:window-width="1366"
     inkscape:window-height="695"
     inkscape:window-x="0"
     inkscape:window-y="24"
     inkscape:window-maximized="1"
     inkscape:current-layer="g876" />
  <g
     inkscape:groupmode="layer"
     inkscape:label="Image"
     id="g876">
    <g
       id="g2127">
      <path
         id="path1999"
         style="fill:#ffffff;stroke-width:6.00051"
         d="m 159.9082,357.23828 c -1.19403,-0.0222 -2.55372,0.50016 -2.86523,1.77149 -0.33706,1.91298 0.37151,3.81106 0.76232,5.66492 2.12428,7.82493 4.84285,15.48491 7.95838,22.96789 1.38119,3.23913 2.76033,6.47921 4.14063,9.71875 6.18847,-8.45177 12.66785,-16.74695 17.82456,-25.8919 1.13944,-2.16414 2.42815,-4.3736 2.69981,-6.84666 0.18354,-1.42159 -0.72169,-2.85502 -2.12148,-3.22703 -3.31596,-1.10736 -6.80205,-1.58376 -10.23441,-2.19231 -5.66931,-0.87012 -11.36073,-1.72213 -17.09698,-1.97144 -0.35597,-0.009 -0.71173,-0.004 -1.0676,0.006 z" />
      <path
         id="path1960"
         style="fill:#ffffff;stroke-width:6.00051"
         d="m 354.04102,357.39648 c -5.79453,0.35909 -11.54079,1.25743 -17.27528,2.13328 -3.80802,0.65202 -7.65697,1.18536 -11.37121,2.27297 -0.9666,0.29092 -1.9051,1.06352 -1.86914,2.14844 0.0986,1.78468 0.95722,3.42781 1.52355,5.10047 2.99163,7.55131 6.25578,14.99874 9.8249,22.29511 0.9614,1.91173 1.92334,3.87807 3.5246,5.34856 0.59911,0.64954 1.41739,1.18621 2.2816,1.26975 0.8508,-0.24778 1.57596,-0.76978 1.98233,-1.57254 2.00332,-3.61557 3.55239,-7.46157 5.22448,-11.23673 3.16845,-7.48931 6.32599,-14.99262 9.01759,-22.66923 0.39364,-1.334 1.11471,-2.83113 0.35602,-4.16751 -0.72967,-0.94331 -2.10719,-0.97702 -3.21944,-0.92257 z" />
      <path
         id="path1921"
         style="fill:#ffffff;stroke-width:6.00051"
         d="m 429.00781,193.21094 c -2.9144,0.26282 -5.61744,1.50846 -8.36684,2.42253 -10.45064,3.83421 -20.71963,8.14394 -30.97728,12.4612 -6.14364,2.64823 -12.33245,5.2132 -18.3253,8.19314 -1.50493,0.83719 -3.40274,1.78412 -3.65089,3.68875 -0.20103,2.01084 1.15642,3.70758 2.09073,5.36346 3.22389,4.8119 3.9964,10.85565 3.40341,16.5135 -0.69436,6.46104 -3.46038,12.94915 -8.60031,17.1006 -4.52657,3.65898 -10.48136,4.86794 -16.16992,5.05954 -6.62775,0.23826 -13.57914,-0.6951 -19.27632,-4.30988 -4.7475,-2.94371 -8.0447,-7.87308 -9.4677,-13.22835 -0.67401,-2.26221 -1.31599,-4.64239 -2.80411,-6.52426 -0.69116,-0.81195 -1.84724,-1.14232 -2.84255,-0.7258 -5.32977,1.79093 -10.52267,3.96287 -15.75097,6.02563 -8.79796,3.58668 -17.60913,7.15565 -26.40357,10.75343 -1.43377,0.52708 -2.66683,1.96891 -2.32713,3.56979 0.44307,2.02499 2.08687,3.4742 3.38571,4.98793 8.08119,8.43256 16.39407,16.82557 26.25759,23.19026 6.90649,4.48406 14.57462,7.75579 22.53546,9.83058 6.64972,1.65814 13.56494,1.23164 20.34859,1.05572 6.46464,-0.27601 13.11045,-0.32308 19.24663,-2.63268 6.12974,-2.37848 11.9683,-5.49409 17.45151,-9.11663 13.03479,-8.63832 23.69202,-20.52305 31.92718,-33.74692 8.28019,-13.22652 14.27533,-27.75259 18.96285,-42.59928 1.201,-3.86405 2.63203,-7.68575 3.32798,-11.68384 0.31019,-1.74004 0.21975,-3.92718 -1.39662,-5.01561 -0.74402,-0.52041 -1.68512,-0.67959 -2.57813,-0.63281 z" />
      <path
         id="path1845"
         style="fill:#ffffff;stroke-width:6.00051"
         d="m 84.171875,193.63867 c -1.779241,-0.0434 -3.550151,1.14416 -3.9375,2.92578 -0.542708,2.41877 0.258586,4.87203 0.860017,7.20342 1.640734,5.50634 3.546461,10.93179 5.476838,16.3424 5.365512,14.78689 12.068013,29.26465 21.64001,41.83286 5.99782,7.88368 12.96015,15.02465 20.59341,21.332 5.13163,4.23255 10.90602,7.65063 17.02959,10.23745 4.44806,1.85528 8.95943,3.69295 13.74142,4.47897 8.54398,1.49487 17.32043,1.42419 25.90218,0.27903 6.23333,-0.8616 12.42777,-2.43325 18.04577,-5.32841 7.82504,-3.92088 15.12394,-8.82216 22.08136,-14.11394 4.65093,-3.63179 9.26881,-7.39364 13.1071,-11.90165 1.35396,-1.69469 2.87503,-3.59867 2.86033,-5.87807 -0.006,-2.45141 -1.89623,-4.34395 -3.83724,-5.5743 -3.89871,-2.47093 -8.22101,-4.16316 -12.44671,-5.97946 -6.72926,-2.73348 -13.4423,-5.52867 -20.31726,-7.88024 -2.48834,-0.75527 -5.0839,-1.6899 -7.71949,-1.29728 -1.95233,0.2688 -3.39576,2.01136 -3.65285,3.9104 -0.35343,1.52484 0.0203,3.17528 -0.74807,4.60372 -1.66883,3.58307 -4.32026,6.62402 -7.18901,9.30231 -2.1936,2.04207 -4.77559,3.71468 -7.68917,4.50753 -4.79567,1.41725 -9.87095,1.68969 -14.83783,1.31584 -0.29965,-0.0266 -1.02176,-0.0897 -1.48502,-0.14883 -4.68664,-0.51057 -9.35936,-1.89544 -13.23865,-4.64316 -3.47162,-2.33717 -5.90039,-6.01002 -7.00308,-10.02041 -0.94685,-3.23817 -1.26111,-6.61835 -1.40411,-9.97666 -0.0478,-1.18528 -0.10008,-2.62178 -0.0679,-3.90536 -0.0173,-2.82135 0.60841,-5.66053 2.06206,-8.09855 1.14759,-2.13556 2.70426,-4.2176 2.92578,-6.70312 0.15282,-1.69771 -1.07537,-3.14993 -2.55234,-3.81879 -5.30797,-2.74615 -10.82706,-5.05714 -16.30018,-7.44946 -11.49742,-4.90977 -23.04824,-9.71629 -34.820575,-13.93309 -2.293134,-0.75093 -4.635498,-1.62347 -7.07886,-1.62093 z" />
      <path
         style="fill:#ff0000;stroke-width:2.23704"
         d="M 232.30465,504.60543 C 152.58716,498.2665 77.428108,451.36877 37.946412,383.32976 27.053732,364.55835 14.359051,327.92913 10.923914,305.35911 7.5199329,282.99362 9.3785292,238.05509 14.523745,218.31996 c 2.018704,-7.74303 7.349929,-22.74533 11.84713,-33.33845 8.176741,-19.2602 8.176741,-19.2602 2.27562,-31.65243 -16.993614,-35.68618 -16.988936,-83.608064 0.01383,-138.726438 3.641655,-11.8054958 3.641655,-11.8054958 11.548,3.598456 8.900454,17.340809 29.001614,39.142622 43.234169,46.891977 5.196165,2.82922 14.770234,6.606775 21.275696,8.394569 11.82812,3.250531 11.82812,3.250531 39.17443,-9.671665 16.76438,-7.921821 36.26334,-15.13969 50.3901,-18.652753 20.57489,-5.116595 27.24088,-5.730558 62.2182,-5.730558 34.97733,0 41.64332,0.613963 62.21821,5.730558 14.12676,3.513063 33.62572,10.730932 50.3901,18.652753 27.34631,12.922196 27.34631,12.922196 39.17443,9.620285 6.50546,-1.816051 16.19049,-5.706554 21.52229,-8.645562 14.48285,-7.983293 34.06567,-29.206975 42.98758,-46.589604 7.90634,-15.4039518 7.90634,-15.4039518 11.548,-3.598456 16.83666,54.580869 16.88918,103.287978 0.14932,138.441408 -6.14336,12.90091 -6.14336,12.90091 0.84757,28.75413 14.42195,32.70445 17.53775,48.9024 17.46145,90.77606 -0.0585,32.07956 -0.84382,40.65534 -5.03765,55.00895 -16.13981,55.23918 -48.04711,100.33016 -93.58368,132.25118 -34.55007,24.21952 -81.74726,41.62275 -119.54962,44.08207 -10.40072,0.67665 -21.50284,1.50015 -24.67136,1.83001 -3.16852,0.32985 -15.61217,-0.18373 -27.65254,-1.14102 z M 350.10472,377.28939 c 4.71294,-10.40728 8.1901,-19.27936 7.72706,-19.71576 -0.46306,-0.4364 -5.82353,0.30814 -11.91211,1.65451 -6.08861,1.3464 -13.72525,2.63158 -16.97032,2.856 -5.90013,0.40801 -5.90013,0.40801 2.08505,18.45343 4.39184,9.92498 8.55129,17.51186 9.24323,16.85977 0.69196,-0.65211 5.11413,-9.70068 9.82709,-20.10795 z M 173.8008,390.38771 c 1.38526,-2.09024 6.19678,-9.21909 10.6923,-15.84188 7.42848,-10.9436 7.76073,-12.07077 3.64423,-12.36299 -2.49119,-0.17677 -10.24644,-1.44004 -17.23387,-2.80711 -6.98743,-1.36705 -13.12182,-2.09215 -13.63198,-1.61136 -1.17137,1.10391 11.2479,36.28681 12.83674,36.36558 0.64569,0.0319 2.30735,-1.652 3.69258,-3.74224 z m 25.08362,-96.28083 c 8.20963,-2.89472 17.83464,-8.88518 26.68937,-16.61101 21.33126,-18.6117 21.45017,-17.83961 -4.37395,-28.40412 -25.05998,-10.2519 -25.76523,-10.40865 -25.76523,-5.7273 0,6.27187 -6.95957,16.09082 -13.75085,19.40048 -14.33429,6.9857 -33.78182,2.3291 -40.36303,-9.6647 -4.92623,-8.97765 -4.44491,-22.23641 1.046,-28.815 4.54161,-5.44122 4.54161,-5.44122 -27.97305,-18.81199 -17.883085,-7.35392 -33.071011,-12.84648 -33.750964,-12.20569 -2.185933,2.06006 11.239282,40.87772 18.732752,54.16387 8.398512,14.89086 25.872112,33.68994 37.738942,40.60169 19.7809,11.52124 40.53346,13.56182 61.77001,6.07377 z m 171.44474,-3.16082 c 15.06571,-7.72758 33.64326,-26.38111 43.25332,-43.43017 7.52866,-13.3565 20.96715,-52.18341 18.77605,-54.24834 -0.67995,-0.64079 -15.86788,4.85177 -33.75096,12.20569 -32.51466,13.37077 -32.51466,13.37077 -27.97308,18.81199 9.12124,10.92801 4.077,32.00478 -9.20924,38.4797 -14.33429,6.9857 -33.78181,2.3291 -40.36303,-9.6647 -1.92256,-3.50372 -3.49558,-7.88484 -3.49558,-9.73578 0,-1.85094 -0.90603,-3.36536 -2.0134,-3.36536 -1.8689,0 -44.21044,17.12198 -46.05618,18.62411 -1.60645,1.30737 23.57151,24.9503 31.46829,29.54974 21.65125,12.61063 48.12141,13.66891 69.36381,2.77312 z"
         id="path1690" />
    </g>
  </g>
</svg>
