<?xml version="1.0" encoding="UTF-8" standalone="no"?><svg xmlns="http://www.w3.org/2000/svg" xmlns:inkscape="http://www.inkscape.org/namespaces/inkscape" xmlns:sodipodi="http://sodipodi.sourceforge.net/DTD/sodipodi-0.dtd" xmlns:svg="http://www.w3.org/2000/svg" xmlns:xlink="http://www.w3.org/1999/xlink" height="512" id="svg994" inkscape:version="1.1.2 (0a00cf5339, 2022-02-04)" sodipodi:docname="evilwinrm.svg" version="1.1" viewBox="0 0 384 384" width="512">
  <sodipodi:namedview bordercolor="#eeeeee" borderopacity="1" id="namedview996" inkscape:current-layer="svg994" inkscape:cx="256" inkscape:cy="256" inkscape:pagecheckerboard="0" inkscape:pageopacity="0" inkscape:pageshadow="0" inkscape:window-height="695" inkscape:window-maximized="1" inkscape:window-width="1366" inkscape:window-x="0" inkscape:window-y="24" inkscape:zoom="0.87304688" pagecolor="#505050" showgrid="false"/>
  <defs id="defs960">
    <radialGradient cx="-300.02" cy="211.93" gradientTransform="matrix(1.3068,0,0,0.60529,586.68,-64.451)" gradientUnits="userSpaceOnUse" id="b" r="89.044" xlink:href="#a"><stop id="stop944" offset="0" stop-color="#fd3535"/><stop id="stop946" offset="1" stop-color="#951212"/></radialGradient>
    <linearGradient id="a">
      <stop id="stop944" offset="0" stop-color="#fd3535"/>
      <stop id="stop946" offset="1" stop-color="#951212"/>
    </linearGradient>
    <linearGradient gradientTransform="matrix(1.1587,0,0,1.1587,-31.384,11.72)" gradientUnits="userSpaceOnUse" id="e" x1="156.18" x2="248" xlink:href="#a" y1="-115.21" y2="-23.39"><stop id="stop944" offset="0" stop-color="#fd3535"/><stop id="stop946" offset="1" stop-color="#951212"/></linearGradient>
    <linearGradient gradientTransform="matrix(0.91065,0,0,0.91065,465.21,-151.44)" gradientUnits="userSpaceOnUse" id="d" x1="-300" x2="-300" y1="190.55" y2="266.68">
      <stop id="stop950" offset="0" stop-color="#fff"/>
      <stop id="stop952" offset="1" stop-color="#951212" stop-opacity="0"/>
    </linearGradient>
    <linearGradient gradientTransform="matrix(1.1587,0,0,1.1587,-30.479,-4.7507)" gradientUnits="userSpaceOnUse" id="c" x1="196.84" x2="196.84" y1="41.92" y2="124.69">
      <stop id="stop955" offset="0"/>
      <stop id="stop957" offset="1" stop-color="#d41919"/>
    </linearGradient>
  </defs>
  <g id="g1094" transform="matrix(1.0457446,0,0,1.038258,-8.7822228,-7.3447595)">
    <rect height="134.67" id="rect962" opacity="0.3" rx="20.940001" ry="20.940001" stroke-width="1.1103" transform="rotate(45)" width="134.67" x="144.17" y="-127.36"/>
    <path d="m 81.539,22.473 c -9.928,39.313 3.7957,66.968 25.064,82.705 L 141.884,62.957 C 111.986,58.3887 99.036,36.079 81.541,22.472 Z m 220.92,0 C 284.962,36.08 272.015,58.39 242.116,62.958 l 35.281,42.221 c 21.268,-15.738 34.99,-43.393 25.061,-82.705 z" fill="url(#b)" id="path964" stroke-width="0.75" style="fill:url(#b)"/>
    <rect fill="#ca2a2a" fill-opacity="0.99608" height="116.22" id="rect966" rx="18.070999" ry="18.070999" stroke-width="1.1103" transform="rotate(45)" width="116.22" x="287.14001" y="-117.38"/>
    <rect fill="url(#e)" height="134.67" id="rect968" rx="20.940001" ry="20.940001" stroke-width="1.1103" style="fill:url(#e)" transform="rotate(45)" width="134.67" x="138.87" y="-132.66"/>
    <rect fill="#ca2a2a" height="116.22" id="rect970" rx="18.070999" ry="18.070999" stroke-width="1.1103" transform="rotate(45)" width="116.22" x="287.14001" y="15.614"/>
    <rect fill="#ca2a2a" height="116.22" id="rect972" rx="18.070999" ry="18.070999" stroke-width="1.1103" transform="rotate(45)" width="116.22" x="154.14999" y="15.614"/>
    <path d="m 192,221.54 c -4.6194,0 -9.24,1.7719 -12.779,5.3115 l -56.619,56.619 c -4.4946,4.4946 -6.1135,10.726 -4.8984,16.491 0.7065,-3.2874 2.3369,-6.4195 4.9014,-8.9842 l 56.619,-56.619 c 3.5396,-3.5396 8.1585,-5.3101 12.778,-5.3101 4.6193,0 9.24,1.7704 12.779,5.3101 l 56.619,56.619 c 2.5614,2.5614 4.1906,5.689 4.8984,8.9722 1.2104,-5.7622 -0.4083,-11.989 -4.8999,-16.48 l -56.62,-56.619 c -3.5396,-3.5397 -8.1585,-5.3115 -12.778,-5.3115 z" fill="#ffffff" fill-opacity="0.99608" id="path974" opacity="0.3" stroke-width="0.75"/>
    <path d="m 286.04,127.5 c -4.6193,0 -9.2385,1.769 -12.778,5.3086 l -56.62,56.619 c -4.4961,4.4961 -6.1143,10.73 -4.897,16.497 0.70587,-3.2894 2.337,-6.4239 4.9028,-8.9895 l 56.619,-56.619 c 3.5396,-3.5396 8.16,-5.3101 12.779,-5.3101 4.6194,0 9.2385,1.7704 12.778,5.3101 l 56.619,56.619 c 2.5586,2.5586 4.1878,5.6827 4.897,8.9618 1.2062,-5.7592 -0.41394,-11.98 -4.9028,-16.469 l -56.62,-56.619 c -3.5397,-3.5397 -8.157,-5.3086 -12.776,-5.3086 z" fill="#ffffff" fill-opacity="0.99608" id="path976" opacity="0.2" stroke-width="0.75"/>
    <path d="m 97.958,127.5 c -4.6193,0 -9.2385,1.769 -12.778,5.3086 l -56.619,56.619 c -4.4935,4.4935 -6.1118,10.723 -4.8984,16.486 0.70726,-3.2851 2.3372,-6.4153 4.8999,-8.9782 l 56.619,-56.619 c 3.5396,-3.5396 8.1585,-5.3101 12.778,-5.3101 4.6193,0 9.24,1.7704 12.779,5.3101 l 56.619,56.619 c 2.5617,2.5616 4.1922,5.6901 4.8999,8.9738 1.2115,-5.7628 -0.40908,-11.991 -4.9014,-16.483 l -56.62,-56.619 c -3.5396,-3.5397 -8.1585,-5.3086 -12.778,-5.3086 z" fill="#ffffff" fill-opacity="0.99608" id="path978" opacity="0.2" stroke-width="0.75"/>
    <path d="m 192,13.029 c -5.3527,0 -10.707,2.0514 -14.808,6.153 l -65.607,65.607 c -5.2094,5.2094 -7.086,12.431 -5.676,19.112 0.81812,-3.811 2.7084,-7.4425 5.6811,-10.415 l 65.607,-65.607 c 4.1014,-4.1014 9.4554,-6.153 14.808,-6.153 5.3527,0 10.705,2.0515 14.806,6.153 l 65.607,65.607 c 2.967,2.967 4.8553,6.5902 5.676,10.393 1.4011,-6.6759 -0.47575,-13.888 -5.6795,-19.091 l -65.609,-65.607 c -4.1014,-4.1015 -9.4536,-6.153 -14.806,-6.153 z" fill="#ffffff" fill-opacity="0.99608" id="path980" opacity="0.2" stroke-width="0.75"/>
    <path d="m 118.17,290.7 c -2.0251,6.2469 -0.56547,13.358 4.4137,18.337 l 56.62,56.62 c 7.0792,7.0792 18.478,7.0792 25.557,0 l 56.62,-56.62 c 4.9792,-4.9791 6.441,-12.09 4.4159,-18.337 -0.85418,2.634 -2.3164,5.1162 -4.4159,7.2158 l -56.62,56.62 c -7.079,7.0792 -18.478,7.0792 -25.557,0 l -56.62,-56.62 c -2.0995,-2.0994 -3.5596,-4.5819 -4.4137,-7.2158 z" id="path982" opacity="0.3"/>
    <path d="m 212.22,196.65 c -2.0251,6.2469 -0.56546,13.36 4.4137,18.339 l 56.62,56.62 c 7.0792,7.0792 18.476,7.0792 25.555,0 l 56.62,-56.62 c 4.9792,-4.9792 6.441,-12.092 4.4159,-18.339 -0.85417,2.6341 -2.3163,5.1184 -4.4159,7.2179 l -56.62,56.62 c -7.079,7.0792 -18.476,7.0792 -25.555,0 l -56.62,-56.62 c -2.0996,-2.0995 -3.5596,-4.5838 -4.4137,-7.2179 z" id="path984" opacity="0.3"/>
    <path d="m 24.138,196.65 c -2.0251,6.2469 -0.56329,13.36 4.4159,18.339 l 56.618,56.62 c 7.0792,7.0792 18.478,7.0792 25.557,0 l 56.62,-56.62 c 4.9792,-4.9792 6.4389,-12.092 4.4137,-18.339 -0.85418,2.6341 -2.3141,5.1184 -4.4137,7.2179 l -56.62,56.62 c -7.079,7.0792 -18.478,7.0792 -25.557,0 l -56.618,-56.62 c -2.0996,-2.0995 -3.5617,-4.5838 -4.4159,-7.2179 z" id="path986" opacity="0.3"/>
    <path d="m 139.18,119.11 c -2.0257,6.2472 -0.56362,13.36 4.4159,18.339 l 35.62,29.62 c 7.6978,6.4011 18.478,7.0792 25.557,0 l 35.62,-29.62 c 5.4147,-4.5026 6.4396,-12.092 4.4138,-18.339 -0.85417,2.6341 -2.1307,5.3194 -4.4138,7.2179 l -35.62,29.62 c -7.079,7.0792 -18.478,7.0792 -25.557,0 l -35.62,-29.62 c -2.2831,-1.8985 -3.5617,-4.5838 -4.4159,-7.2179 z" id="path988" opacity="0.4"/>
    <path d="m 113.69,90.138 c 34.079,16.97 46.78,45.578 67.642,9.4506 -34.079,-16.97 -46.78,-45.578 -67.642,-9.4506 z m 88.973,9.4506 c 14.916,38.706 40.272,6.3509 67.642,-9.4506 -14.916,-38.706 -40.272,-6.3509 -67.642,9.4506 z" fill="url(#c)" id="path990" stroke-width="0.75" style="fill:url(#c);paint-order:stroke fill markers"/>
    <path d="m 192,21.835 a 35.719,35.719 0 0 0 -4.0364,0.28855 c -3.9387,0.77544 -7.7028,2.6922 -10.766,5.7558 l -19.384,19.384 a 35.719,35.719 0 0 0 -1.5327,10.29 35.719,35.719 0 0 0 35.72,35.72 35.719,35.719 0 0 0 35.72,-35.72 35.719,35.719 0 0 0 -1.5158,-10.281 l -19.393,-19.393 c -3.3236,-3.324 -7.4717,-5.2765 -11.773,-5.9069 a 35.719,35.719 0 0 0 -3.0383,-0.13749 z" fill="url(#d)" id="path992" opacity="0.2" stroke-width="0.5625" style="fill:url(#d);paint-order:stroke fill markers"/>
  </g>
</svg>