<?xml version="1.0" encoding="UTF-8" standalone="no"?>
<svg
   inkscape:version="1.2.2 (b0a8486541, 2022-12-01)"
   sodipodi:docname="evilssdp.svg"
   viewBox="0 0 512.00002 512.00002"
   height="512"
   width="512"
   id="svg885"
   version="1.1"
   xmlns:inkscape="http://www.inkscape.org/namespaces/inkscape"
   xmlns:sodipodi="http://sodipodi.sourceforge.net/DTD/sodipodi-0.dtd"
   xmlns="http://www.w3.org/2000/svg"
   xmlns:svg="http://www.w3.org/2000/svg"
   xmlns:rdf="http://www.w3.org/1999/02/22-rdf-syntax-ns#"
   xmlns:cc="http://creativecommons.org/ns#"
   xmlns:dc="http://purl.org/dc/elements/1.1/">
  <metadata
     id="metadata891">
    <rdf:RDF>
      <cc:Work
         rdf:about="">
        <dc:format>image/svg+xml</dc:format>
        <dc:type
           rdf:resource="http://purl.org/dc/dcmitype/StillImage" />
      </cc:Work>
    </rdf:RDF>
  </metadata>
  <defs
     id="defs889" />
  <sodipodi:namedview
     inkscape:current-layer="g3136"
     inkscape:window-maximized="1"
     inkscape:window-y="24"
     inkscape:window-x="0"
     inkscape:cy="358.67308"
     inkscape:cx="230.78161"
     inkscape:zoom="0.51997211"
     showgrid="false"
     id="namedview887"
     inkscape:window-height="695"
     inkscape:window-width="1366"
     inkscape:pageshadow="2"
     inkscape:pageopacity="0"
     guidetolerance="10"
     gridtolerance="10"
     objecttolerance="10"
     borderopacity="1"
     bordercolor="#666666"
     pagecolor="#838383"
     inkscape:pagecheckerboard="0"
     showguides="true"
     inkscape:guide-bbox="true"
     inkscape:showpageshadow="0"
     inkscape:deskcolor="#838383" />
  <g
     id="g893"
     inkscape:label="Image"
     inkscape:groupmode="layer">
    <g
       id="g3136">
      <g
         id="g517">
        <path
           style="fill:#ffffff;stroke-width:6.6839"
           id="path455"
           sodipodi:type="arc"
           sodipodi:cx="256"
           sodipodi:cy="256"
           sodipodi:rx="250"
           sodipodi:ry="250"
           sodipodi:start="4.7101026"
           sodipodi:end="4.7087761"
           sodipodi:open="true"
           sodipodi:arc-type="arc"
           d="M 255.42841,6.0006534 A 250,250 0 0 1 505.99914,255.3455 250,250 0 0 1 256.73741,505.99891 250,250 0 0 1 6.0013458,256.82031 250,250 0 0 1 255.09678,6.0016316" />
        <g
           id="g1285"
           transform="matrix(0.79130764,0,0,0.81677739,55.004523,25.85854)">
          <path
             id="path985"
             style="fill:#ff0009;stroke-width:3.35471"
             d="m 127.65645,27.083245 c -7.67537,1.630912 -15.35732,3.359787 -22.81391,6.161404 C 81.262301,41.782016 59.516396,57.989321 42.87421,80.117462 27.107501,100.91577 16.003139,126.88947 11.037621,154.55339 c -2.4353282,13.31759 -3.3658959,26.99686 -3.1553083,40.62683 0.1214355,7.88243 0.2512628,15.79717 1.1401832,23.61659 0.8327674,5.98119 1.6788641,11.95998 2.5172391,17.94015 3.13643,-5.61482 6.158846,-11.32772 9.36893,-16.87924 3.374289,-5.17892 7.356397,-9.80339 11.812724,-13.58103 5.253815,-4.03026 11.10207,-6.75073 16.964405,-9.15201 4.523757,-1.71555 9.141537,-3.42607 13.910142,-3.59859 2.218591,-0.25746 3.541897,-2.89878 3.884962,-5.35817 0.862309,-5.71652 0.749718,-11.56698 0.877433,-17.35661 0.0613,-7.21631 0.214511,-14.33917 0.834211,-21.55494 0.257083,-3.01976 0.619801,-6.41941 1.069652,-9.56437 2.246539,-16.46046 7.503008,-32.06287 13.781153,-46.803851 2.485707,-5.737103 5.377442,-11.479497 8.345364,-16.681877 1.358034,-2.371952 2.756113,-4.705215 4.25949,-7.057282 6.934449,-10.886946 15.066849,-20.662584 24.262339,-28.702138 4.42369,-4.053487 8.92316,-7.988652 13.1496,-12.3501 0.84391,-0.838209 1.68783,-1.676419 2.53174,-2.514629 -2.97847,0.500374 -5.95695,1.000748 -8.93543,1.501122 z" />
          <path
             id="path985-2"
             style="fill:#ff0009;stroke-width:3.35471"
             d="m 380.35198,25.979211 c 7.67537,1.630912 15.35732,3.359787 22.81391,6.161404 23.58024,8.537367 45.32615,24.744672 61.96833,46.872813 15.76671,20.798303 26.87107,46.772002 31.83659,74.435922 2.43533,13.31759 3.3659,26.99686 3.15531,40.62683 -0.12144,7.88243 -0.25126,15.79717 -1.14018,23.61659 -0.83277,5.98119 -1.67887,11.95998 -2.51724,17.94015 -3.13643,-5.61482 -6.15885,-11.32772 -9.36893,-16.87924 -3.37429,-5.17892 -7.3564,-9.80339 -11.81273,-13.58103 -5.25381,-4.03026 -11.10207,-6.75073 -16.9644,-9.15201 -4.52376,-1.71555 -9.14154,-3.42607 -13.91014,-3.59859 -2.2186,-0.25746 -3.5419,-2.89878 -3.88497,-5.35817 -0.86231,-5.71652 -0.74971,-11.56698 -0.87743,-17.35661 -0.0613,-7.21631 -0.21451,-14.33917 -0.83421,-21.55494 -0.25708,-3.01976 -0.6198,-6.41941 -1.06965,-9.56437 -2.24654,-16.46046 -7.50301,-32.06287 -13.78116,-46.803845 -2.4857,-5.737103 -5.37744,-11.479497 -8.34536,-16.681877 -1.35803,-2.371952 -2.75611,-4.705215 -4.25949,-7.057282 -6.93445,-10.886946 -15.06685,-20.662584 -24.26234,-28.702138 -4.42369,-4.053487 -8.92316,-7.988652 -13.1496,-12.3501 -0.84391,-0.838209 -1.68783,-1.676419 -2.53174,-2.514629 2.97847,0.500374 5.95695,1.000748 8.93543,1.501122 z" />
          <path
             id="path2594"
             style="fill:#000000;fill-opacity:1;stroke-width:3.35471"
             d="m 67.976911,206.56262 c -9.706726,0.19977 -19.702062,2.30676 -28.069757,8.61558 -7.668945,5.68061 -13.424778,14.62739 -17.195974,24.44907 -2.581645,7.56934 -3.638868,15.75934 -4.330743,23.86732 -0.870952,11.31423 -0.756231,22.86043 1.460935,33.95052 1.77869,9.77843 5.167153,19.07681 9.798873,27.34066 6.474601,11.59782 14.464201,21.77509 22.476301,31.78976 8.209699,10.23667 16.67486,20.25546 23.849604,31.62637 4.069511,6.49236 7.519209,13.88275 8.430958,22.09497 0.248538,1.92976 0.377317,3.87958 0.451339,5.83011 0.0063,0.585 0.05317,1.81978 0.04917,2.65431 -0.06042,4.15674 0.194169,8.43453 -0.791927,12.46483 -0.902141,2.92889 -2.883454,5.10988 -4.756228,7.14224 -6.147127,6.03083 -15.862622,5.64797 -21.608539,-0.98712 -1.537457,-1.50921 -2.782285,-3.54124 -3.091049,-5.96697 -0.881857,-5.91243 -0.809587,-11.95657 -1.088096,-17.939 -0.197163,-5.83017 -0.397346,-11.66019 -0.592087,-17.49048 -11.939166,0 -23.878332,0 -35.817497,0 0.042,8.4069 -0.08946,16.81741 0.07662,25.22192 0.44769,14.11898 3.184764,28.47811 9.602872,40.40607 5.20527,9.80826 13.149577,17.48936 22.324811,20.98895 15.36127,5.90894 32.612839,5.03616 47.225001,-3.43786 9.334942,-5.39481 17.554642,-14.33855 21.825212,-25.95187 3.40206,-9.37213 5.01799,-19.57301 5.74304,-29.73981 0.81896,-11.85074 -0.15984,-23.93453 -3.18297,-35.25905 C 116.99008,374.2713 109.5376,362.39033 101.72469,351.4169 91.137913,336.53049 79.113253,323.27359 68.616928,308.28754 63.98814,301.56441 59.427675,294.24203 57.880876,285.48171 c -1.131742,-6.62762 -1.017747,-13.45496 -0.821484,-20.18479 0.121486,-3.52246 0.709193,-7.20566 2.672,-9.93579 1.638896,-2.47452 3.54102,-5.20875 6.313471,-5.57177 3.306045,-0.56493 6.672601,-0.44947 9.998174,-0.22721 2.152125,0.11376 4.32229,1.02545 5.773299,3.04363 2.088987,2.56339 4.024237,5.61254 4.384666,9.31574 0.705745,5.97927 0.349432,12.0453 0.440893,18.06443 0,2.79197 0,5.58392 0,8.37589 12.277164,0 24.554325,0 36.831505,0 -0.45543,-9.72265 -0.70635,-19.4616 -1.3292,-29.1706 -0.47877,-7.20856 -1.70869,-14.42481 -4.38315,-20.92752 -3.48739,-9.00624 -8.58383,-17.35976 -15.58774,-22.6982 -10.105533,-7.79273 -22.529791,-9.11837 -34.196387,-9.0029 z" />
          <path
             id="path3114"
             style="fill:#000000;fill-opacity:1;stroke-width:3.35471"
             d="m 188.75559,206.28563 c -7.95227,0.2997 -15.98821,1.46871 -23.50911,4.76437 -4.94613,2.21123 -9.31306,6.02641 -13.16602,10.3481 -6.4214,7.33894 -10.6166,17.21124 -12.67732,27.57243 -2.68176,13.29832 -2.50766,27.16296 -1.52949,40.7164 0.70033,9.17557 2.57353,18.30784 6.22338,26.42703 4.71309,10.61263 11.3508,19.69585 17.99098,28.55511 7.98992,10.53206 16.41973,20.56061 24.26066,31.26385 4.30872,5.90434 8.69769,11.76163 12.48091,18.19095 1.81961,3.4975 2.9121,7.49108 3.81656,11.46199 1.70506,8.20946 2.15331,17.0147 0.27356,25.23927 -0.96523,3.90548 -2.62487,8.1935 -5.94163,9.77765 -4.10312,1.88176 -8.62684,1.98709 -12.93522,1.34223 -2.80579,-0.54448 -6.02295,-1.31692 -7.71657,-4.40337 -2.55411,-4.53385 -3.43022,-10.09771 -4.0831,-15.44169 -0.95843,-8.6484 -0.55847,-17.39655 -0.69387,-26.09516 -12.08821,0 -24.17642,0 -36.26464,0 0.0537,7.52985 -0.11884,15.06544 0.10997,22.5913 0.55547,12.23794 2.51175,24.50026 6.56688,35.75919 1.95805,5.45361 4.68691,10.53686 8.32054,14.55149 5.43365,6.10756 11.83119,11.00745 18.78422,14.09312 5.89051,2.51784 12.21047,2.90564 18.39811,3.05665 6.77473,0.0107 13.62004,-0.44421 20.21274,-2.46546 10.82011,-3.57593 20.27261,-12.42542 26.25519,-23.93038 2.48552,-4.81229 4.54497,-9.96919 6.09271,-15.33409 2.00424,-7.65513 1.78578,-15.79826 1.88118,-23.73673 0.0254,-11.82188 0.0858,-23.94625 -3.04558,-35.28173 -3.15221,-11.45697 -9.43028,-21.09032 -15.85327,-30.09281 -12.00726,-16.72709 -25.655,-31.63731 -37.07844,-48.99737 -4.68979,-7.25223 -9.10324,-15.29306 -10.33217,-24.59114 -0.57983,-4.31636 -0.68759,-8.7286 -0.36036,-13.08337 0.0405,-0.54927 0.14768,-1.68624 0.23793,-2.45918 0.5366,-4.01455 1.01648,-8.4143 3.42816,-11.48448 3.99058,-5.21815 10.49497,-6.77812 16.03777,-5.02222 3.68281,1.16468 7.22254,4.15934 8.48257,8.69925 2.04774,6.83167 2.16083,14.19968 2.87127,21.34687 0.24676,2.91273 0.4933,5.82547 0.74044,8.73814 12.15662,0 24.31324,0 36.46987,0 -0.58985,-8.54754 -0.9785,-17.11818 -1.73235,-25.64714 -1.26805,-12.4686 -4.31835,-25.01789 -10.64337,-35.12149 -5.64923,-9.07409 -13.84186,-15.588 -22.75519,-18.85039 -6.37138,-2.11983 -13.04088,-2.60121 -19.61789,-2.45719 z" />
          <path
             id="path3153"
             style="fill:#000000;fill-opacity:1;stroke-width:3.35471"
             d="m 260.36859,215.80166 c 0,90.18547 0,180.37092 0,270.55637 15.93254,-0.048 31.86615,0.11513 47.79785,-0.12535 8.71244,-0.26881 17.50128,-0.47821 26.06167,-2.66594 5.9491,-1.47881 11.63083,-4.63552 16.28531,-9.41793 3.618,-3.71432 6.98054,-7.81297 10.04628,-12.20302 3.67744,-5.23165 5.90236,-11.75309 7.00418,-18.46282 1.79896,-10.98069 2.03818,-22.2217 2.35549,-33.37858 0.44922,-22.61446 0.3368,-45.2383 0.3475,-67.85755 -0.0512,-20.70846 0.0408,-41.42337 -0.45474,-62.12486 -0.29525,-8.56755 -0.42118,-17.26833 -2.29157,-25.59188 -2.62749,-11.45167 -7.75525,-22.28796 -15.46415,-29.74545 -4.45792,-4.33877 -9.63304,-7.54068 -15.05122,-9.67092 -5.8422,-2.00801 -11.9765,-1.94907 -17.99446,-2.18576 -15.07541,-0.2615 -30.15341,-0.1165 -45.22993,-0.16966 -4.47074,-0.002 -8.94147,-0.006 -13.41221,-0.006 0,1.01663 0,2.03327 0,3.04989 z m 50.22611,39.27043 c 4.21066,0.34762 8.47541,0.0699 12.64082,0.99996 2.0622,0.39847 3.91564,2.05116 4.67269,4.45715 0.70188,1.85249 1.07298,3.85719 1.38812,5.85193 0.0668,0.50857 0.23777,1.72307 0.32252,2.50485 0.44893,3.99654 0.63159,8.28661 0.79165,12.14301 0.47369,15.69816 0.31675,31.66253 0.33656,47.4813 -0.0373,34.99062 -0.0113,69.98128 -0.0189,104.97192 -2.20582,2.40642 -4.04493,5.44845 -6.74806,7.07475 -3.59793,1.93395 -7.60201,2.16724 -11.45883,2.70462 -4.7115,0.51834 -9.42757,0.97473 -14.141,1.46713 0,-63.478 0,-126.956 0,-190.43399 4.07147,0.25912 8.14296,0.51824 12.21445,0.77737 z" />
          <path
             id="path3192"
             style="fill:#000000;fill-opacity:1;stroke-width:3.35471"
             d="m 388.92211,214.74731 c 0.001,90.53691 0.004,181.07381 0.005,271.61072 12.67055,0 25.3411,0 38.01166,0 0,-33.55186 0,-67.10371 0,-100.65559 7.086,-0.5434 14.19045,-0.78534 21.26085,-1.59297 9.62136,-1.19992 19.44788,-3.7944 27.62393,-10.3905 7.06127,-5.61709 12.16389,-14.26828 15.45324,-23.62359 1.91247,-4.90635 2.89493,-10.25905 3.30039,-15.64805 0.9387,-12.28022 0.80555,-24.63218 0.89874,-36.95246 -0.0424,-11.16842 0.19067,-22.35798 -0.4667,-33.50626 -0.29053,-5.36444 -1.29057,-10.67619 -3.14957,-15.5636 -2.4451,-6.89296 -5.95079,-13.20274 -10.07669,-18.76235 -3.67918,-4.55588 -7.8791,-8.61769 -12.67133,-11.28896 -7.17568,-3.89005 -15.12975,-4.6454 -22.8683,-5.29066 -13.72619,-0.91533 -27.47985,-0.84143 -41.22076,-1.15249 -5.36679,-0.0927 -10.73358,-0.18332 -16.10034,-0.27782 0,1.03152 0,2.06305 0,3.09458 z m 45.64232,39.91077 c 5.64516,0.0823 11.45534,0.51707 16.73126,3.17457 1.51321,0.8678 3.20985,1.90977 3.9696,3.81565 0.59623,3.72325 0.69597,7.55952 0.90104,11.23956 0.65077,15.60009 0.5622,31.22855 0.42216,46.84245 -0.15381,4.38863 -0.0244,8.88319 -1.01099,13.14695 -0.71971,2.50875 -2.53587,4.21201 -4.11134,5.91586 -2.52531,2.34961 -5.88383,2.16327 -8.89656,2.37681 -5.20951,0.12108 -10.42071,0.0471 -15.63095,0.0677 0,-28.85986 0,-57.71972 0,-86.57959 2.54193,0 5.08386,0 7.62578,0 z" />
        </g>
      </g>
    </g>
  </g>
</svg>
