<?xml version="1.0" encoding="UTF-8" standalone="no"?>
<!-- Created with Inkscape (http://www.inkscape.org/) -->

<svg
   version="1.1"
   id="svg870"
   width="512"
   height="512"
   viewBox="0 0 512 512"
   sodipodi:docname="evil-apple.svg"
   inkscape:version="1.2.2 (b0a8486541, 2022-12-01)"
   inkscape:export-filename="../GIT Icons/evil-apple.png"
   inkscape:export-xdpi="96"
   inkscape:export-ydpi="96"
   xmlns:inkscape="http://www.inkscape.org/namespaces/inkscape"
   xmlns:sodipodi="http://sodipodi.sourceforge.net/DTD/sodipodi-0.dtd"
   xmlns="http://www.w3.org/2000/svg"
   xmlns:svg="http://www.w3.org/2000/svg">
  <defs
     id="defs874" />
  <sodipodi:namedview
     id="namedview872"
     pagecolor="#505050"
     bordercolor="#eeeeee"
     borderopacity="1"
     inkscape:pageshadow="0"
     inkscape:pageopacity="0"
     inkscape:pagecheckerboard="0"
     showgrid="false"
     inkscape:zoom="0.75256365"
     inkscape:cx="440.4943"
     inkscape:cy="276.38858"
     inkscape:window-width="1366"
     inkscape:window-height="705"
     inkscape:window-x="0"
     inkscape:window-y="26"
     inkscape:window-maximized="1"
     inkscape:current-layer="g876"
     inkscape:showpageshadow="0"
     inkscape:deskcolor="#505050" />
  <g
     inkscape:groupmode="layer"
     inkscape:label="Image"
     id="g876">
    <g
       id="g1036"
       transform="matrix(1.0129636,0,0,0.96604499,-3.1952129,10.491928)">
      <path
         id="path1598-6"
         style="fill:#ffffff;stroke-width:5.2604"
         d="M 357.35352,-0.10351562 C 315.11659,6.8802771 269.61418,27.232752 253.28028,69.885921 244.8131,85.289791 242.87681,111.45015 241.28477,122.839 205.9415,115.10535 168.34134,102.64753 132.93046,117.49186 82.483968,135.64251 54.826109,189.27146 51.5337,240.38462 c -5.868746,69.44036 16.939308,141.95437 64.15043,193.55048 19.7989,19.08921 43.1762,39.99276 72.02416,41.00101 12.03923,-1.64721 19.25207,32.2364 39.73312,17.26506 8.95018,17.47051 24.89461,23.85605 38.74023,7.81055 15.21484,16.87601 35.56864,-0.14765 47.58926,-5.0146 27.22909,9.5203 22.6673,-29.50495 45.32401,-23.82014 32.30454,-8.37311 55.37078,-35.97442 74.04533,-62.06901 12.00707,-20.45016 26.02637,-42.18316 27.9877,-66.15763 -10.60038,-19.0878 -36.43329,-25.64646 -45.99447,-46.77078 -20.92716,-29.03729 -18.52754,-71.76364 6.13463,-97.84719 7.02717,-14.73582 39.21675,-23.44714 35.87262,-35.41866 -27.79084,-26.55434 -61.22883,-54.84638 -102.22197,-52.55108 -11.77985,-3.03369 -46.47547,8.21246 -42.76252,3.53812 33.88308,-24.273553 46.11011,-66.965877 47.16509,-106.7792911 -1.32486,-1.6458737 4.00529,-10.877374 -1.9678,-7.22497452 z" />
      <g
         id="g954"
         transform="translate(0.23507353,-1.378713)">
        <path
           id="path1598"
           style="fill:#ff0000;stroke-width:5.2604"
           d="m 128.61698,340.25263 c -1.53989,-0.0622 -2.7556,1.23975 -3.05135,2.66929 -0.75172,2.85544 -0.46084,5.85267 -0.27486,8.76304 0.72486,8.13797 2.24436,16.19383 4.21419,24.11859 1.09363,4.06572 2.16357,8.19987 4.14703,11.94078 4.48874,7.42926 11.44937,13.05014 18.95122,17.25628 10.18954,5.69968 21.50825,9.10415 32.93521,11.2877 8.31427,1.60337 16.76266,2.41386 25.22029,2.71182 9.06967,0.31437 18.17038,0.33374 27.2173,-0.45264 2.58933,-0.30314 5.27088,-0.46795 7.69405,-1.50129 1.25825,-0.50749 2.18009,-2.03812 1.50724,-3.32863 -0.86098,-1.49266 -2.39968,-2.42945 -3.7024,-3.50596 -7.21108,-5.37565 -14.75327,-10.28957 -22.25757,-15.24352 -19.11048,-12.47815 -38.44893,-24.60878 -58.00291,-36.38119 -8.73012,-5.19893 -17.44762,-10.44068 -26.48558,-15.09583 -2.39532,-1.12502 -4.70421,-2.5327 -7.29423,-3.17011 -0.27061,-0.0413 -0.54325,-0.079 -0.81763,-0.0683 z" />
        <path
           id="path1674"
           style="fill:#ff0000;stroke-width:5.2604"
           d="m 404.28925,339.24855 c -1.75581,0.2868 -3.29735,1.28206 -4.8717,2.0581 -8.52887,4.61829 -16.77294,9.73505 -25.0487,14.78383 -19.15403,11.83945 -38.14175,23.9505 -56.90981,36.39046 -7.82837,5.23591 -15.68599,10.4418 -23.22817,16.08602 -1.86495,1.44804 -3.77612,2.88273 -5.34935,4.65331 -0.92628,1.03513 -1.05665,2.78888 0.0437,3.7506 1.83537,1.58325 4.41181,1.60533 6.70447,1.83733 8.47467,0.53421 16.97721,0.3942 25.45921,0.1257 9.46169,-0.31387 18.93802,-1.05115 28.23034,-2.92604 12.4155,-2.46641 24.65196,-6.58483 35.39645,-13.37067 6.05301,-3.84037 11.73863,-8.60021 15.40232,-14.84711 4.19342,-7.01638 5.79552,-15.20068 6.66094,-23.22684 0.60149,-5.84326 0.85891,-11.71901 0.96487,-17.59029 -0.059,-2.10587 0.12925,-4.35698 -0.83443,-6.29895 -0.52468,-0.92533 -1.54792,-1.52028 -2.62017,-1.42545 z" />
        <g
           id="g1536"
           transform="matrix(0.97353582,0,0,0.97181369,6.770993,7.3722749)">
          <path
             style="fill:#000000;stroke-width:5.40818"
             d="m 243.48582,499.06122 c -3.16783,-2.7814 -5.23169,-6.34776 -6.94156,-11.99511 -1.33836,-4.42027 -3.15751,-8.03686 -4.0426,-8.03686 -0.88506,0 -4.66761,2.43513 -8.40566,5.41141 -7.23839,5.76329 -9.8417,5.98983 -14.14822,1.23118 -2.35566,-2.60297 -2.31601,-7.22586 0.15272,-17.806 1.02058,-4.37387 1.8035,-4.34822 -19.14722,-0.62706 -9.18488,1.63137 -10.18862,1.5535 -19.10472,-1.48197 -21.4787,-7.31238 -51.99118,-33.2516 -68.74408,-58.44056 C 91.643599,390.08412 78.519909,363.42049 72.401662,344.93677 55.219088,293.02679 54.660671,236.09619 70.9212,194.00352 c 19.175723,-49.63905 63.32796,-77.58761 112.47801,-71.19908 6.56321,0.85309 22.09836,4.06435 34.52256,7.13613 22.07974,5.45905 23.08417,5.58304 44.51451,5.49537 21.79088,-0.0891 22.07548,-0.12892 46.50769,-6.49956 22.02899,-5.74401 26.44611,-6.47171 42.52132,-7.00525 21.62076,-0.71759 30.85394,1.08193 48.43921,9.44067 11.68705,5.55516 20.16623,11.61583 35.74002,25.54591 l 7.56247,6.7643 -7.66811,5.39137 c -9.47983,6.66519 -23.57507,21.18684 -30.00204,30.90971 -13.36689,20.22171 -18.90784,50.35032 -13.42519,72.99862 2.83065,11.69314 12.16463,30.59679 20.58552,41.69086 7.77026,10.23687 21.10428,22.22178 32.19551,28.93802 4.11696,2.493 7.50233,5.24453 7.52306,6.11451 0.0763,3.20117 -7.13092,21.38121 -13.59592,34.29558 -12.03605,24.04297 -25.59242,42.16226 -44.24842,59.14194 -19.64946,17.88389 -31.61842,23.14884 -50.86823,22.37614 l -11.50535,-0.46182 -0.6644,9.75364 c -0.55825,8.19538 -1.16556,10.15907 -3.80138,12.29132 -4.26911,3.45351 -9.48811,3.18668 -15.33967,-0.7843 -6.72923,-4.56657 -8.47366,-4.20785 -11.30821,2.32539 -2.75127,6.34122 -7.03355,10.79966 -12.28299,12.78821 -4.82203,1.82665 -14.34592,-2.93615 -16.93628,-8.46964 -3.3178,-7.0874 -6.50682,-6.94949 -11.37657,0.49201 -1.4368,2.19558 -4.83578,5.24159 -7.55331,6.76893 l -4.94097,2.77699 z m 17.29216,-48.26364 c 5.37546,-1.19504 8.35644,-1.18304 12.97479,0.0522 9.41816,2.51898 11.27492,2.18087 11.26049,-2.05051 -0.0147,-4.32621 -6.24773,-15.61241 -11.12998,-20.15334 -4.75685,-4.42428 -10.46472,-4.20661 -15.47133,0.59002 -4.98941,4.78012 -10.59238,15.87553 -10.59238,20.97576 0,3.39655 0.37283,3.77176 2.98978,3.00889 1.64438,-0.47935 6.13026,-1.56972 9.96863,-2.42304 z m -15.17447,-30.14515 c 0.65296,-0.65296 0.7369,-1.91585 0.18652,-2.8064 -1.33263,-2.15623 -44.50642,-30.42641 -74.44491,-48.7465 -28.94307,-17.71095 -46.3485,-27.24749 -47.54554,-26.05045 -2.86033,2.86033 1.24178,33.72307 5.87733,44.2188 8.70266,19.70444 34.27429,31.79527 73.27143,34.64436 16.92128,1.23625 40.86632,0.52904 42.65517,-1.25981 z m 104.33313,-0.77962 c 15.43527,-2.95013 28.58191,-7.91848 38.77618,-14.65423 15.73083,-10.39394 20.54375,-20.87012 22.09912,-48.10251 0.81722,-14.30849 0.74059,-14.95232 -1.77972,-14.95232 -5.66058,0 -119.35572,73.41476 -119.35572,77.06989 0,1.28872 1.87857,2.31299 5.31516,2.89801 8.55667,1.45662 42.89043,0.0452 54.94498,-2.25884 z"
             id="path1259" />
          <path
             style="fill:#000000;stroke-width:5.40818"
             d="m 256.26658,114.25973 c -2.17138,-5.65854 4.684,-32.475637 12.37142,-48.394885 10.71842,-22.195874 29.36048,-37.766715 58.22213,-48.63021 4.79707,-1.805612 11.18142,-3.835539 14.18744,-4.510948 l 5.46551,-1.228017 -0.86512,9.533264 c -3.56364,39.269789 -23.46437,71.236602 -53.885,86.556186 -15.23149,7.67046 -33.77612,11.15752 -35.49638,6.67461 z"
             id="path1335" />
        </g>
      </g>
    </g>
  </g>
</svg>
