<?xml version="1.0" encoding="UTF-8" standalone="no"?>
<svg
   viewBox="0 0 512 512"
   height="512"
   width="512"
   id="svg2"
   version="1.1"
   sodipodi:docname="evilginx2.svg"
   inkscape:version="1.2.2 (b0a8486541, 2022-12-01)"
   xmlns:inkscape="http://www.inkscape.org/namespaces/inkscape"
   xmlns:sodipodi="http://sodipodi.sourceforge.net/DTD/sodipodi-0.dtd"
   xmlns="http://www.w3.org/2000/svg"
   xmlns:svg="http://www.w3.org/2000/svg"
   xmlns:rdf="http://www.w3.org/1999/02/22-rdf-syntax-ns#"
   xmlns:cc="http://creativecommons.org/ns#"
   xmlns:dc="http://purl.org/dc/elements/1.1/">
  <sodipodi:namedview
     id="namedview292"
     pagecolor="#505050"
     bordercolor="#eeeeee"
     borderopacity="1"
     inkscape:showpageshadow="0"
     inkscape:pageopacity="0"
     inkscape:pagecheckerboard="0"
     inkscape:deskcolor="#505050"
     showgrid="false"
     inkscape:zoom="0.89257812"
     inkscape:cx="240.3151"
     inkscape:cy="255.43983"
     inkscape:window-width="1366"
     inkscape:window-height="705"
     inkscape:window-x="0"
     inkscape:window-y="26"
     inkscape:window-maximized="1"
     inkscape:current-layer="svg2" />
  <metadata
     id="metadata8">
    <rdf:RDF>
      <cc:Work
         rdf:about="">
        <dc:format>image/svg+xml</dc:format>
        <dc:type
           rdf:resource="http://purl.org/dc/dcmitype/StillImage" />
      </cc:Work>
    </rdf:RDF>
  </metadata>
  <defs
     id="defs6" />
  <g
     id="g978">
    <path
       id="path817-3"
       style="fill:#ffffff;stroke-width:0.958249"
       d="m 34.178657,94.174023 c -5.721866,0.05837 -11.6931,1.044719 -16.490028,4.415396 -5.170478,3.473551 -8.4174361,9.238941 -10.0796803,15.191631 -2.7093486,8.70676 -2.5229411,17.94297 -2.6516536,26.97033 -0.05173,10.48988 -0.3344918,21.00952 0.6036013,31.46966 1.1361355,9.31887 4.3949357,18.19425 7.9466186,26.80566 9.071758,21.21452 23.257212,40.00078 40.395245,55.15403 5.437581,4.78229 11.188888,9.19386 17.176134,13.24084 -6.279096,32.78197 -12.737805,65.52894 -18.662882,98.37865 -1.188675,6.86525 -2.422491,13.74481 -2.918234,20.70447 -0.192676,7.89407 3.027835,15.58063 7.946664,21.58533 2.070704,2.58783 4.134379,5.18548 6.170803,7.79848 1.230903,1.39373 3.11401,2.16274 4.952609,1.90163 126.410976,-0.18219 252.821946,-0.36401 379.232926,-0.54641 0.95985,-2.12228 1.96127,-4.38652 3.09622,-6.31994 3.06115,-5.35754 6.70997,-10.55017 8.14339,-16.66985 1.44408,-5.67156 1.28059,-11.67048 0.0341,-17.36262 -6.23916,-36.04162 -13.93285,-71.78936 -20.41244,-107.77847 0.0295,-0.4692 0.80623,-0.60911 1.13058,-0.95295 9.16929,-6.08329 17.83707,-12.96953 25.6638,-20.7603 15.42098,-15.20931 27.88555,-33.68765 35.34374,-54.21815 3.06306,-8.26877 5.66011,-16.85774 6.09211,-25.73722 0.41096,-6.95961 0.13243,-13.93503 0.20214,-20.9018 -0.0841,-8.58719 0.0679,-17.21924 -1.09063,-25.74587 -0.86977,-5.12081 -2.40573,-10.11076 -4.28655,-14.93512 -1.89972,-4.36623 -5.49291,-7.933156 -9.86379,-9.703348 -3.23854,-1.378646 -6.78353,-1.71476 -10.26025,-1.7717 -5.7315,-0.45048 -11.77022,-0.186371 -16.98514,2.520786 -7.19346,3.723242 -11.71183,11.992552 -11.26593,20.147562 -0.31197,5.3079 0.24192,10.76549 -1.32164,15.91932 -1.52944,3.87535 -4.79564,6.70087 -8.1568,8.92953 -6.18597,3.9165 -13.38338,5.73486 -20.49566,6.9776 -2.77597,0.4655 -5.57072,0.80809 -8.36974,1.09348 -1.5203,-7.45172 -3.03666,-14.94853 -5.59896,-22.11689 -2.96825,-6.77816 -8.43581,-12.26424 -14.83482,-15.74074 -4.83825,-2.48829 -10.34224,-3.06076 -15.68721,-3.21347 -8.9036,-0.43885 -17.82118,-0.38499 -26.73259,-0.48723 -28.19803,-0.16324 -56.39669,-0.10633 -84.59503,-0.13698 -38.71536,9.5e-4 -77.43103,-0.0182 -116.14604,0.16761 -9.10928,0.0849 -18.23106,0.11671 -27.31859,0.81788 -5.10252,0.50859 -10.16447,2.17619 -14.29814,5.31707 -5.95689,4.35363 -10.074947,10.9685 -12.096342,18.07769 -1.717447,5.53654 -2.723973,11.26122 -3.846832,16.94307 -2.879864,-0.37987 -5.752716,-0.83294 -8.539204,-1.42095 -6.606093,-1.44392 -13.27472,-3.43702 -18.892682,-7.37663 -3.225779,-2.29934 -5.780189,-5.64734 -6.80898,-9.54353 -1.00532,-3.43818 -0.916505,-7.07433 -0.546555,-10.60384 0.422859,-6.53021 -1.394877,-13.34363 -5.673078,-18.33003 -4.716809,-5.550041 -12.060292,-8.39931 -19.2046,-8.153667 z M 288.26168,238.18957 c 0.79547,0.51359 0.96123,1.92203 0.0448,2.39326 -0.40829,0.42984 -0.84696,0.7784 -1.46847,0.63817 -0.64403,-0.21723 -1.30823,-0.69929 -1.21208,-1.4803 0.16393,-0.54088 0.29863,-1.2375 0.89882,-1.45841 0.4567,-0.40941 1.22147,-0.35961 1.73691,-0.0927 z" />
    <path
       id="path817"
       style="fill:#000000;stroke-width:0.958247"
       d="m 33.900068,113.08915 c -1.932083,0.18411 -4.057664,0.0158 -5.752752,1.12835 -1.76528,1.27765 -2.156379,3.59246 -2.838199,5.53174 -1.459217,4.66095 -1.452409,9.60564 -1.630359,14.44239 -0.162604,9.20957 -0.199313,18.42265 -0.07936,27.63296 0.09289,4.87849 0.340504,9.81096 1.708019,14.52207 5.026709,18.59006 14.869875,35.65019 27.423482,50.09354 9.598008,11.04544 20.888673,20.57808 33.315503,28.2326 1.977353,1.31169 4.067788,2.54481 5.691776,4.30461 -4.393486,22.45847 -8.687433,44.93864 -13.016627,67.41058 -3.095179,16.27039 -6.255835,32.5305 -9.014748,48.86193 -0.623507,4.01421 -1.386836,8.02445 -1.593127,12.08857 0.0083,2.17797 0.935814,4.23455 1.909947,6.1347 1.057144,2.01622 2.719303,3.60601 4.0999,5.38919 120.802497,-0.17325 241.605007,-0.34304 362.407497,-0.51587 1.52777,-2.71149 3.5031,-5.24034 4.2999,-8.30436 0.64977,-2.29486 0.8159,-4.73417 0.33924,-7.08 -1.63191,-10.15138 -3.59819,-20.24486 -5.48669,-30.3504 -5.03099,-26.65632 -10.5713,-53.24866 -15.39227,-79.9222 -0.74157,-4.3256 -1.57339,-8.64396 -2.02343,-13.01281 6.04176,-4.03934 12.31972,-7.72204 18.12861,-12.10884 16.78845,-12.41372 31.17656,-28.37163 40.81786,-47.0441 3.95302,-7.59457 7.04095,-15.63066 9.34012,-23.88483 1.13075,-3.69251 1.68404,-7.54024 1.78475,-11.39892 0.23142,-7.81723 0.0882,-15.64011 0.0761,-23.45959 -0.0982,-5.8189 -0.0108,-11.66449 -0.72866,-17.44942 -0.44719,-3.60705 -1.8396,-6.98997 -2.84488,-10.4576 -0.0998,-0.63314 -0.98516,-0.25695 -1.4537,-0.41614 -3.07578,-0.1162 -6.19049,-0.67847 -9.24947,-0.10477 -1.09006,0.18601 -2.14754,1.0692 -2.06831,2.26196 -0.26642,5.06995 -0.10398,10.16339 -0.61915,15.21887 -0.42076,3.97548 -1.35545,7.92926 -3.10482,11.53298 -0.1526,0.29757 -0.49138,0.98439 -0.73506,1.41863 -2.99432,5.29816 -7.38874,9.70528 -12.33039,13.173 -7.97872,5.5295 -17.41253,8.45664 -26.84848,10.23391 -8.1422,1.55092 -16.42347,2.11671 -24.68515,2.56586 -1.27155,0.0764 -2.54311,0.15281 -3.81467,0.22921 -2.10774,-10.39292 -3.89044,-20.86377 -6.5779,-31.12729 -0.58155,-1.99844 -0.98895,-4.16727 -2.43751,-5.74984 -1.4663,-1.69125 -3.09096,-3.36366 -5.13649,-4.32309 -2.56279,-0.90033 -5.32466,-0.86637 -8.00219,-1.05318 -10.00694,-0.39446 -20.02481,-0.38332 -30.03801,-0.46006 -33.06054,-0.13419 -66.12148,-0.0892 -99.18221,-0.10266 -30.76844,0.0164 -61.53715,-0.0297 -92.3053,0.12482 -8.90595,0.0892 -17.81785,0.0742 -26.71597,0.49144 -2.38506,0.18533 -4.862,0.17706 -7.11587,1.07664 -2.774,1.37159 -4.87899,3.90004 -6.00655,6.777 -1.69615,4.25407 -2.50729,8.79432 -3.44187,13.26262 -1.37102,6.88913 -2.57506,13.81707 -4.09539,20.67672 -2.23676,0.27216 -4.49783,-0.0531 -6.73844,-0.16103 C 90.951123,168.642 79.69944,167.06429 69.103244,163.2258 61.303612,160.37582 53.781577,156.07268 48.430387,149.55721 43.03307,143.053 40.284199,134.57238 40.109752,126.14805 c -0.143838,-2.21016 0.203363,-4.40097 0.320775,-6.60116 0.108587,-1.94973 -0.13451,-4.27327 -1.853578,-5.48993 -1.343428,-0.97961 -3.086103,-1.01009 -4.676872,-0.96781 z m 142.313502,82.91814 c 5.32242,2.76562 10.30855,6.13151 15.35251,9.372 1.16542,0.75528 2.33084,1.51057 3.49627,2.26586 -4.44917,0.95743 -8.09162,4.15072 -10.56115,7.89184 -1.8506,2.83018 -2.29315,6.32845 -2.36518,9.64722 0.0156,3.44522 0.43532,7.06507 2.26241,10.0543 2.5802,3.94869 6.49969,7.31332 11.23143,8.12471 3.04017,0.45866 6.21323,0.0596 9.06929,-1.07821 4.08254,-1.6149 7.1221,-5.21229 8.72404,-9.25659 0.93739,-2.41301 1.73242,-4.95308 1.78368,-7.56447 0.006,-1.84316 -0.52277,-3.62862 -1.06874,-5.36901 6.21718,3.93407 12.42871,7.88172 18.52645,12.0021 1.40292,1.03087 2.96672,1.94949 4.0224,3.36793 0.63213,1.30896 0.0821,2.79597 -0.35864,4.07714 -0.69709,1.98361 -1.51961,3.91267 -2.32279,5.73698 -3.70756,8.27271 -7.84531,16.34872 -12.29762,24.23811 -1.71389,2.90733 -3.34157,5.90307 -5.4979,8.50849 -0.57045,0.55674 -1.48897,0.45127 -2.2199,0.64347 -2.20368,0.29943 -4.39565,0.43595 -6.55978,0.55477 -7.01892,0.33115 -14.19997,0.33842 -21.20505,0.11746 -2.87823,-0.1119 -5.75851,-0.24559 -8.62267,-0.56491 -0.33973,-0.0512 -1.07231,-0.13306 -1.5591,-0.22209 -0.66208,-0.13592 -1.47379,-0.13926 -1.80033,-0.85459 -2.46249,-3.42371 -4.45013,-7.16491 -6.49498,-10.84983 -4.23108,-7.81703 -8.2749,-15.74626 -11.87892,-23.87881 -0.75568,-1.81621 -1.60106,-3.61812 -2.05554,-5.54022 0.90779,-3.05222 2.34379,-5.91253 3.63907,-8.8106 4.18007,-8.92914 8.62278,-17.73893 13.44161,-26.3359 1.06408,-1.779 2.02077,-3.65669 3.36514,-5.23964 0.53792,-0.43225 1.14158,-1.01143 1.81491,-1.0997 l 0.0843,0.0377 z m 158.08688,0.33785 c 1.57587,1.00285 2.46894,2.74705 3.48408,4.2645 3.76639,6.32553 6.98172,12.9623 10.34441,19.50977 2.46954,4.99299 5.08688,9.9301 7.10684,15.13178 0.31205,1.01952 0.85267,2.09055 0.65153,3.17644 -1.24464,3.41999 -2.92434,6.66133 -4.47723,9.94652 -3.72474,7.5706 -7.62307,15.15891 -11.72658,22.58218 -1.27344,2.1902 -2.4132,4.48405 -3.96442,6.49221 -0.57257,0.65698 -1.14514,1.31397 -1.7177,1.97096 -10.80233,-0.0295 -21.60573,0.0721 -32.40726,-0.0849 -0.76267,-0.0191 -1.66205,-0.0431 -2.4164,-0.0836 -1.76464,-0.14037 -3.6355,-0.0707 -5.27369,-0.83593 -1.28975,-0.77281 -1.89212,-2.25047 -2.72588,-3.44213 -4.21987,-7.04753 -7.99064,-14.35759 -11.68629,-21.69475 -2.30646,-4.69679 -4.68222,-9.37521 -6.56501,-14.26569 -0.31343,-0.86643 -0.56298,-1.80219 -0.52542,-2.72404 0.60083,-1.04245 1.64232,-1.72505 2.54573,-2.48123 0.28551,-0.20734 0.87574,-0.66096 1.28449,-0.95301 6.31403,-4.4672 12.86987,-8.57415 19.34683,-12.79356 2.73105,-1.7626 5.4621,-3.5252 8.19315,-5.28779 -4.3213,6.76802 -4.02384,16.288 0.90612,22.65948 2.60282,3.40834 6.63147,5.65216 10.88893,6.00437 3.94868,0.39362 8.175,-0.54948 11.19614,-3.2546 2.75688,-2.18328 5.0979,-5.0912 5.94273,-8.58205 0.81158,-3.29061 0.80237,-6.74338 0.43024,-10.09595 -0.39026,-3.38567 -1.9397,-6.61015 -4.3773,-8.97846 -2.00717,-1.98151 -4.28666,-3.84686 -7.06413,-4.56076 -2.14298,-0.60948 -4.41163,-0.73888 -6.61563,-0.43958 5.61174,-3.51452 11.17266,-7.1358 17.02732,-10.23194 0.71816,-0.34367 1.43185,-0.71384 2.1944,-0.94818 z m -135.55374,17.04718 c 3.01075,0.29101 5.71409,2.16886 7.50383,4.56469 3.39733,4.58004 3.37632,11.54017 -0.40762,15.8887 -2.11114,2.50581 -5.49222,4.15048 -8.77781,3.4139 -3.48909,-0.74518 -6.23815,-3.4706 -7.95013,-6.51301 -1.14284,-2.23898 -0.92232,-4.84775 -0.89766,-7.28474 -0.003,-1.53674 0.46692,-3.07056 1.48879,-4.23285 1.93098,-2.37118 4.12168,-4.89067 7.19037,-5.6766 0.60511,-0.14286 1.22995,-0.19339 1.85023,-0.16009 z m 118.14447,0.0454 c 2.75053,0.13522 5.32234,1.54296 7.31563,3.3972 2.46069,2.31325 3.33816,5.84067 3.20797,9.13607 -0.0633,3.81723 -1.75935,7.81146 -5.11314,9.81084 -1.59183,0.85522 -3.28485,1.636 -5.08324,1.89628 -1.81136,0.10788 -3.40548,-0.97146 -4.91419,-1.83838 -3.92336,-2.51885 -5.99623,-7.44272 -5.38074,-12.04917 0.49522,-4.23136 3.24609,-8.24709 7.19859,-9.87875 0.8814,-0.33683 1.82645,-0.50288 2.76912,-0.47409 z m -15.07794,30.0964 c -3.40042,0.0564 -6.62726,2.25486 -7.95166,5.41265 -1.94808,4.28271 -0.70933,9.7358 2.85841,12.7698 2.12472,1.93792 5.32055,2.66279 8.00216,1.54264 3.86131,-1.5463 6.6362,-5.62283 6.44413,-9.84469 -0.0709,-4.28192 -2.95078,-8.59846 -7.18094,-9.6419 -0.70902,-0.17802 -1.44176,-0.25639 -2.1721,-0.2385 z m -119.03088,0.36692 c -3.20852,0.0649 -6.23126,2.06447 -7.65158,4.95158 -0.98948,2.00017 -1.49665,4.30189 -1.24313,6.5337 0.40478,2.33795 2.1266,4.12266 3.71897,5.74516 1.7286,1.59374 4.01919,3.06868 6.46571,2.63765 3.05056,-0.65876 5.3464,-3.06363 7.14171,-5.49469 1.20423,-1.58244 1.56059,-3.66676 1.18184,-5.60108 -0.41673,-3.36918 -2.39596,-6.68258 -5.57965,-8.03485 -1.26468,-0.55653 -2.65758,-0.79106 -4.03387,-0.73747 z m 0.56031,5.93608 c 2.50863,0.38194 3.90052,3.78385 2.356,5.83435 -0.89101,1.34031 -2.96989,1.92836 -4.25853,0.80652 -1.86654,-1.52477 -1.78703,-4.82963 0.26036,-6.1667 0.47091,-0.34699 1.05784,-0.53271 1.64217,-0.47417 z m 118.87414,0.0255 c 2.16607,0.23412 3.31149,2.84978 2.64026,4.79316 -0.32319,1.56612 -1.98125,2.76657 -3.55189,2.27092 -1.6284,-0.49387 -2.40252,-2.37431 -2.39522,-3.96398 0.007,-1.72079 1.62165,-3.1904 3.30685,-3.1001 z m -0.61256,56.50181 c 3.17549,0.0332 6.40439,0.01 9.50683,0.77674 0.49304,0.1641 0.25756,0.94713 0.40056,1.38306 0.31263,3.95086 0.31634,7.81454 0.35432,11.78305 0.0607,13.69971 -0.15915,27.3988 -0.24397,41.09804 -0.005,0.6002 -0.0101,1.2004 -0.015,1.8006 -5.72223,0.0935 -11.44616,0.4202 -17.1692,0.2338 -1.10392,-0.0624 -2.22404,-0.10384 -3.29745,-0.39182 -0.48272,-2.87019 -0.46759,-5.85086 -0.5757,-8.70253 -0.22243,-11.43399 -0.17613,-22.87181 -0.0962,-34.30715 0.0886,-3.77258 0.0225,-7.56826 0.52913,-11.31425 0.11926,-0.3889 0.0713,-0.97345 0.40464,-1.2324 2.31294,-0.79128 4.7946,-0.87765 7.2136,-1.03544 0.99515,-0.0625 1.99193,-0.0694 2.98847,-0.0917 z m -48.63893,0.0218 c 3.72372,0.0302 7.48794,0.0883 11.14366,0.87208 0.41715,0.13414 1.0565,0.13658 1.0536,0.72593 0.58823,2.87133 0.51828,5.82913 0.63027,8.74682 0.16033,10.74626 0.13823,21.49512 0.0474,32.24198 -0.0913,4.42577 -0.0663,8.77858 -0.51785,13.18969 0.0597,0.60852 -0.24656,0.89789 -0.84277,0.86519 -5.19594,0.65891 -10.449,0.73337 -15.67968,0.65755 -1.36733,-0.0516 -2.73867,-0.0908 -4.09694,-0.26702 -0.37127,-7.7193 -0.36722,-15.45161 -0.42404,-23.17834 -0.0155,-8.3398 -0.0192,-16.75859 0.17361,-25.04783 0.10995,-2.6912 0.11135,-5.4035 0.5459,-8.06676 2.58284,-0.68023 5.31488,-0.66583 7.96686,-0.73929 z m -47.70928,0.0581 c 2.38711,-0.007 4.9839,0.0738 7.23179,0.26338 1.30221,0.12522 2.6154,0.24228 3.88254,0.58489 0.38796,2.8118 0.38013,5.65535 0.45973,8.44233 0.18496,13.76626 -0.0788,27.53328 -0.15743,41.29945 -0.0172,2.05717 -0.0346,4.11435 -0.0518,6.17152 -5.72223,0.0935 -11.44616,0.42021 -17.16919,0.23379 -1.10289,-0.0613 -2.22079,-0.10605 -3.29385,-0.39001 -0.476,-2.8213 -0.46429,-5.7663 -0.57113,-8.56714 -0.24007,-11.8911 -0.17126,-23.78611 -0.12368,-35.67884 0.0805,-3.56029 -0.0133,-7.145 0.474,-10.6794 0.0636,-0.42825 0.16434,-0.95896 0.69731,-0.97544 2.81482,-0.64665 5.74929,-0.63564 8.62179,-0.70453 z m -46.79044,0.0381 c 3.38204,0.0242 6.79731,0.007 10.13423,0.62848 0.44336,0.0392 0.851,0.25446 0.84614,0.75634 0.51198,3.02429 0.41852,6.11323 0.5082,9.17076 0.0866,11.13964 0.10826,22.28094 -0.0313,33.42022 -0.0801,3.94078 -0.0844,7.83855 -0.50181,11.77478 0.11393,0.70138 -0.44948,0.78987 -1.00932,0.81949 -5.20017,0.63583 -10.45428,0.71825 -15.68684,0.62599 -1.30594,-0.0487 -2.61543,-0.0916 -3.91258,-0.26012 -0.37125,-7.7193 -0.36721,-15.45161 -0.42404,-23.17834 -0.0168,-8.338 -0.0162,-16.76457 0.17361,-25.04602 0.10927,-2.66755 0.11417,-5.3542 0.53149,-7.99591 3.07257,-0.63625 6.24763,-0.64515 9.37214,-0.71567 z m 190.27141,0.004 c 2.89638,0.0573 5.82024,-0.11762 8.69278,0.32759 1.26836,0.11786 1.75757,1.54087 1.9133,2.62699 0.57542,4.09357 0.4956,8.24445 0.59202,12.36894 0.0719,11.06917 0.12816,22.14192 -0.19728,33.20782 -0.1,2.41613 -0.15368,4.99689 -0.47382,7.45716 0.0463,0.8026 -0.8799,0.83788 -1.44763,0.93026 -3.57385,0.37394 -7.17749,0.22375 -10.76499,0.25888 -2.69451,-0.0514 -5.41807,0.084 -8.08469,-0.37429 -0.50302,-0.0193 -0.84415,-0.42119 -0.81254,-0.92274 -0.26481,-2.19673 -0.33002,-4.27874 -0.42184,-6.50522 -0.31792,-9.59903 -0.29189,-19.37324 -0.2748,-29.04265 0.0701,-5.64658 -0.038,-11.30673 0.42118,-16.93935 0.14605,-0.82006 0.10125,-1.77217 0.58354,-2.47609 1.21897,-0.71778 2.71573,-0.6549 4.08381,-0.79225 2.06136,-0.11309 4.1271,-0.11369 6.19096,-0.12505 z" />
    <path
       style="fill:#ff0000;fill-opacity:1;stroke-width:1.8605"
       d="m 174.8745,279.33549 c -2.62551,-1.58983 -5.861,-7.02316 -14.45423,-24.27286 -4.09144,-8.21296 -7.43898,-16.16993 -7.43898,-17.68213 0,-3.4211 17.23449,-37.87604 20.4864,-40.95612 l 2.38316,-2.25724 8.37602,5.14392 c 15.32456,9.41116 15.04507,9.13328 10.17401,10.11549 -3.34826,0.67515 -8.45174,5.37119 -9.84651,9.0604 -1.64349,4.34709 -1.06239,12.21924 1.17508,15.91911 5.28509,8.73939 16.38279,10.26511 22.85712,3.14242 4.25414,-4.68017 6.03231,-10.70248 4.62293,-15.65702 -0.56309,-1.97948 -0.88155,-3.74248 -0.70768,-3.91777 0.64988,-0.65521 24.83232,15.76247 25.39503,17.24094 0.88141,2.31575 -1.66912,8.69986 -9.91566,24.81943 -11.13135,21.75851 -8.14963,19.8512 -31.53312,20.17065 -12.56953,0.17172 -20.37382,-0.14273 -21.57357,-0.86922 z m 13.35802,-19.78479 c 3.38055,-3.4083 3.59802,-7.58062 0.59568,-11.42881 -2.86264,-3.66912 -7.53619,-3.75025 -11.06539,-0.19208 -3.42854,3.45667 -3.33806,7.67021 0.2457,11.44155 3.55021,3.73603 6.64247,3.79027 10.22401,0.17934 z"
       id="path1007" />
    <path
       style="fill:#ff0000;fill-opacity:1;stroke-width:1.8605"
       d="m 292.64395,278.6041 c -4.09307,-3.54453 -21.32611,-37.44977 -21.32611,-41.95817 0,-1.49269 4.69797,-5.1692 16.93907,-13.25606 19.50558,-12.88602 21.81193,-14.07955 17.72779,-9.17412 -8.35204,10.03163 -1.62795,27.90362 10.49836,27.90362 9.40293,0 15.05174,-6.19658 15.05174,-16.51135 0,-10.80882 -4.15242,-15.43882 -14.78417,-16.48453 l -5.81118,-0.57158 11.0375,-6.65172 c 6.07062,-3.65845 11.62489,-6.65173 12.34282,-6.65173 0.71794,0 2.25353,1.34254 3.41242,2.98341 4.23432,5.99537 19.16833,36.62757 19.16833,39.31752 0,3.12947 -16.91333,36.83743 -20.33241,40.5221 -2.15307,2.32032 -2.85503,2.3968 -21.99776,2.3968 -17.30767,0 -20.04219,-0.23249 -21.9264,-1.86419 z m 14.26525,-18.56121 c 2.90889,-2.75519 3.29818,-8.76522 0.80061,-12.36026 -2.15019,-3.09502 -8.07321,-3.22225 -11.03414,-0.23702 -4.50758,4.54457 -1.01222,14.91346 5.02733,14.91346 1.51844,0 3.86123,-1.04228 5.2062,-2.31618 z"
       id="path1194" />
  </g>
</svg>
