<?xml version="1.0" encoding="UTF-8" standalone="no"?>
<svg
   width="512"
   height="512"
   version="1.1"
   viewBox="0 0 135.47 135.47"
   id="svg934"
   sodipodi:docname="exe2hex.svg"
   inkscape:version="1.1.2 (0a00cf5339, 2022-02-04)"
   xmlns:inkscape="http://www.inkscape.org/namespaces/inkscape"
   xmlns:sodipodi="http://sodipodi.sourceforge.net/DTD/sodipodi-0.dtd"
   xmlns="http://www.w3.org/2000/svg"
   xmlns:svg="http://www.w3.org/2000/svg">
  <defs
     id="defs938" />
  <sodipodi:namedview
     id="namedview936"
     pagecolor="#505050"
     bordercolor="#eeeeee"
     borderopacity="1"
     inkscape:pageshadow="0"
     inkscape:pageopacity="0"
     inkscape:pagecheckerboard="0"
     showgrid="false"
     inkscape:zoom="0.87304688"
     inkscape:cx="256"
     inkscape:cy="256"
     inkscape:window-width="1366"
     inkscape:window-height="695"
     inkscape:window-x="0"
     inkscape:window-y="24"
     inkscape:window-maximized="1"
     inkscape:current-layer="svg934" />
  <g
     transform="matrix(1.0809581,0,0,1.0979422,-5.4825963,-183.98413)"
     id="g932">
    <g
       transform="matrix(0.88223,0,0,0.88223,8.4439,27.001)"
       id="g930">
      <path
         d="m 39.352,161.79 c -5.2216,-0.15775 -9.5403,4.0319 -9.541,9.2559 v 7.9062 l -23.297,32.203 c -1.1418,1.5794 -1.7563,3.4788 -1.7559,5.4277 v 49.369 c 1.655e-4,3.8131 2.3374,7.2364 5.8887,8.625 16.318,6.3797 38.771,16.461 50.266,20.709 0.14074,0.0516 0.28271,0.0998 0.42578,0.14453 l 2.7949,0.88282 c 1.9861,0.62641 4.1253,0.56517 6.0723,-0.17383 l 52.141,-20.191 c 1.7556,-0.66659 3.2671,-1.8511 4.334,-3.3965 l 1.332,-1.9297 c 1.0671,-1.5464 1.6386,-3.3809 1.6387,-5.2598 v -46.629 c 2.1e-4,-2.7885 -1.256,-5.4287 -3.4199,-7.1875 l -2.4863,-2.5487 -2.6663,-2.7168 -16.6,-18.32 v -9.5449 c -5.1e-4,-4.6488 -3.4473,-8.5769 -8.0566,-9.1816 l -56.146,-7.3691 c -0.30651,-0.0401 -0.61484,-0.0649 -0.92383,-0.0742 z m 8.9785,19.811 37.627,4.9375 v 4.9922 c 3e-6,2.2987 0.85489,4.5153 2.3984,6.2188 l 22.563,24.9 c 0.38707,0.42399 0.81273,0.81108 1.2715,1.1562 v 36.588 l -45.48,17.262 c -8.9439,-3.3485 -27.476,-11.448 -43.432,-17.896 v -40.178 l 23.297,-32.203 c 1.1418,-1.5794 1.7562,-3.4788 1.7559,-5.4277 z m 67.354,43.848 c 1.3109,0.3054 2.6726,0.32141 3.9902,0.0469 l -3.1289,0.65429 z"
         color="#000000"
         color-rendering="auto"
         dominant-baseline="auto"
         fill="#ffffff"
         image-rendering="auto"
         shape-rendering="auto"
         solid-color="#000000"
         style="font-variant-ligatures:normal;font-variant-position:normal;font-variant-caps:normal;font-variant-numeric:normal;font-variant-alternates:normal;font-feature-settings:normal;text-indent:0;text-decoration-line:none;text-decoration-style:solid;text-decoration-color:#000000;text-transform:none;text-orientation:mixed;white-space:normal;shape-padding:0;isolation:auto;mix-blend-mode:normal"
         id="path906" />
      <g
         transform="matrix(1.5596,0,0,1.5596,-154.13,-102.47)"
         id="g928">
        <g
           id="g922">
          <path
             d="m 108.48,205.25 v 31.656 l 33.451,12.568 34.112,-12.946 V 206.29 l -15.497,-17.103 v -8.41 l -36.002,-4.7247 v 6.9926 z"
             fill="#ffffff"
             stroke="#000000"
             stroke-width="2.6458"
             id="path908" />
          <path
             d="m 108.48,205.25 33.64,8.1265 18.426,-24.19 c 0,0 -36.002,-6.1421 -36.002,-6.1421 z"
             fill="#ffffff"
             stroke="#000000"
             stroke-linejoin="bevel"
             stroke-width="2.6458"
             id="path910" />
          <path
             d="m 175.77,204.99 -33.924,7.0879 -1.0508,1.2871 -0.18946,36.098 1.793,1.2441 34.111,-12.947 0.85351,-1.2363 v -30.238 z"
             color="#000000"
             color-rendering="auto"
             dominant-baseline="auto"
             image-rendering="auto"
             shape-rendering="auto"
             solid-color="#000000"
             style="font-variant-ligatures:normal;font-variant-position:normal;font-variant-caps:normal;font-variant-numeric:normal;font-variant-alternates:normal;font-feature-settings:normal;text-indent:0;text-decoration-line:none;text-decoration-style:solid;text-decoration-color:#000000;text-transform:none;text-orientation:mixed;white-space:normal;shape-padding:0;isolation:auto;mix-blend-mode:normal"
             id="path912" />
          <path
             d="m 160.55,190.24 -18.426,24.19 33.923,-7.087 z"
             fill="#ffffff"
             id="path914" />
          <path
             d="m 160.55,189.18 -18.426,24.19 33.923,-7.087 z"
             id="path916" />
          <path
             d="m 160.55,189.18 c 0.94494,1.7009 15.814,17.454 15.814,17.454 L 155.4,195.912 Z"
             fill="#ffffff"
             stroke="#000000"
             stroke-linejoin="bevel"
             stroke-width="2.6458"
             id="path918" />
          <path
             d="m 172.89,214.26 -10.286,1.6554 0.0584,9.9195 10.291,-2.6908 z m -11.394,1.8338 -12.66,2.0376 0.063,11.303 12.673,-3.314 z m 11.465,8.1642 -10.292,2.7099 0.0584,9.9707 10.296,-3.8306 z m -11.38,2.9965 -12.676,3.3376 0.0641,11.465 12.688,-4.7205 z"
             fill="#ffffff"
             id="path920" />
        </g>
        <path
           d="m 135.9,190.2 c -0.25251,-0.0246 -0.51181,0.22759 -0.83664,0.73225 -0.80914,1.2571 -2.4083,5.4907 -2.2516,5.9609 0.0782,0.23474 1.3236,0.9382 2.7673,1.5632 1.4437,0.62502 3.0001,1.1525 3.4587,1.172 0.8816,0.0374 0.89175,-0.10033 0.21136,-2.8406 -0.1913,-0.77048 -0.0899,-0.98075 0.57619,-1.1922 0.44481,-0.14118 1.8104,-0.70554 3.0344,-1.2547 l 2.2252,-0.9989 -0.59532,-1.249 c -0.32758,-0.68694 -0.71072,-1.249 -0.85162,-1.249 -0.1409,0 -1.5475,0.55297 -3.1254,1.2284 l -2.8691,1.2278 -0.67748,-1.5808 c -0.42805,-0.99861 -0.74143,-1.4877 -1.0661,-1.5193 z m -10.481,4.3579 c -0.0653,-0.003 -0.11247,0.003 -0.13901,0.0196 -0.46485,0.2873 -0.36573,1.477 0.21704,2.604 l 0.52297,1.0108 -2.7275,1.1245 c -3.2499,1.34 -3.4092,1.4688 -3.128,2.526 0.48719,1.8316 0.64915,1.8535 3.7517,0.50901 1.6024,-0.69438 3.0397,-1.184 3.1946,-1.0883 0.1549,0.0957 0.46714,0.73624 0.69401,1.4237 0.32067,0.97163 0.57784,1.2257 1.1539,1.1415 0.56747,-0.0829 1.0216,-0.80977 1.9394,-3.1027 0.76747,-1.9173 1.0896,-3.1671 0.89555,-3.4747 -0.34848,-0.55245 -5.3954,-2.6496 -6.3748,-2.6934 z"
           stroke-width="0.35278"
           id="path924" />
        <path
           d="m 118.2,215.71 c -0.84741,-0.0332 -0.98944,0.97097 -0.0258,2.5513 0.58654,0.96194 0.62456,1.3032 0.2775,2.4696 -0.22148,0.74433 -0.60778,1.4799 -0.85835,1.635 -0.72305,0.44774 -0.56287,3.4295 0.25012,4.6571 0.3855,0.58208 0.70202,1.394 0.70331,1.804 0.002,0.49191 0.21229,0.72946 0.61961,0.69866 0.74954,-0.0567 2.2845,-0.87585 2.6407,-1.4092 0.6564,-0.98305 0.006,-6.0574 -1.0377,-8.1013 -0.63407,-1.2412 -0.31475,-1.6269 1.5565,-1.8779 1.5816,-0.21214 3.9335,0.78174 4.8095,2.0324 0.46474,0.66351 0.44271,0.91304 -0.21033,2.3859 -0.42205,0.95191 -0.79875,2.7165 -0.894,4.1878 l -0.16433,2.5425 1.4893,1.7787 c 0.81916,0.97842 1.6302,1.7792 1.8025,1.7792 0.1723,0 0.41352,-0.40078 0.5364,-0.89038 0.12288,-0.4896 0.52971,-1.1043 0.90382,-1.3663 0.98041,-0.6867 1.2411,-2.7953 0.48783,-3.945 -0.33288,-0.50804 -0.88877,-1.7484 -1.2356,-2.7564 l -0.63045,-1.833 0.83768,-0.9741 c 0.97968,-1.139 1.0473,-1.7334 0.2837,-2.497 -0.68919,-0.68917 -0.98013,-0.69115 -2.2867,-0.0155 -0.97711,0.50528 -1.1096,0.4888 -2.1286,-0.26458 -0.78309,-0.57899 -1.6234,-0.81916 -3.0086,-0.85886 -1.4876,-0.0426 -2.2031,-0.26875 -3.1631,-1.001 -0.63879,-0.48724 -1.1698,-0.71664 -1.5549,-0.73174 z m 0.32246,0.63148 c 0.18833,0.0243 0.50837,0.24328 0.93947,0.67438 0.77601,0.776 0.82291,0.94811 0.36381,1.3291 -0.44033,0.36544 -0.62247,0.25329 -1.1043,-0.67851 -0.42315,-0.81829 -0.49224,-1.278 -0.2713,-1.3234 0.0215,-0.004 0.0454,-0.005 0.0724,-0.002 z m -5.2302,0.27441 c -1.0199,0 -1.0935,0.0852 -1.0935,1.2697 0,1.787 0.94375,3.5658 2.4257,4.5728 1.5078,1.0246 1.7585,1.0541 2.0578,0.24288 0.12528,-0.33955 0.33254,-0.69675 0.46044,-0.79375 0.12789,-0.097 0.41887,-0.72025 0.64647,-1.3849 0.36751,-1.0733 0.32957,-1.2981 -0.33797,-2.0087 -1.0057,-1.0706 -2.819,-1.8981 -4.1589,-1.8981 z m 15.867,2.4846 c 0.38491,0.01 0.67851,0.16951 0.67851,0.4594 0,0.26097 -0.28318,0.73104 -0.62941,1.0444 -0.5831,0.5277 -0.66359,0.51524 -1.0909,-0.16898 -0.38155,-0.61095 -0.37972,-0.79101 0.0119,-1.0392 0.27247,-0.17269 0.58091,-0.26745 0.8599,-0.29042 0.0581,-0.005 0.11503,-0.007 0.17001,-0.005 z m 3.3233,2.4686 c -0.50792,0.006 -1.0169,0.0788 -1.5312,0.21653 -0.76267,0.2042 -0.80756,0.34572 -0.58446,1.8335 0.13296,0.8866 0.54462,1.9966 0.91467,2.467 0.37005,0.4704 0.67283,1.0612 0.67283,1.3126 0,0.2514 0.35719,0.52568 0.79375,0.60978 0.43656,0.0841 0.91795,0.17462 1.0697,0.20102 0.93647,0.16306 2.7973,-1.1031 3.2644,-2.221 0.83854,-2.0069 0.67869,-2.469 -1.2072,-3.4954 -1.1617,-0.63226 -2.2751,-0.93803 -3.3926,-0.92398 z m -13.219,3.189 c 0.1123,0.0159 0.21589,0.11805 0.33487,0.31057 0.17313,0.28016 0.23622,0.63638 0.14056,0.79117 -0.24651,0.39886 -0.75444,0.34842 -1.033,-0.10232 -0.13036,-0.21094 -0.0535,-0.56664 0.17054,-0.79065 0.15393,-0.15393 0.27476,-0.22465 0.38705,-0.20877 z m 9.5426,2.8897 c 0.35151,0.003 0.67852,0.31659 0.67852,0.786 -1e-5,0.75389 -0.57651,0.93359 -1.0738,0.33435 -0.31858,-0.38388 -0.33914,-0.64996 -0.0708,-0.9183 0.14129,-0.14129 0.30635,-0.20354 0.46612,-0.20205 z m -6.4818,1.6955 c -0.7296,0.0107 -1.4432,0.20535 -2.1337,0.58601 -2.5734,1.4187 -2.8142,2.0282 -1.6795,4.2514 0.98764,1.9351 1.8743,2.5665 4.0127,2.8567 1.0634,0.14432 2.3774,0.60045 2.9419,1.0211 2.0476,1.5259 4.3718,0.68142 4.3718,-1.5885 0,-1.5722 -0.44712,-2.3688 -2.5533,-4.5501 -1.6736,-1.7333 -3.3548,-2.6001 -4.9599,-2.5766 z m 0.12299,0.77876 c 1.2246,-0.0526 2.9703,0.84859 4.4933,2.4283 2.015,2.0901 2.6265,3.3554 2.1038,4.3501 -0.20404,0.38824 -0.54564,0.82225 -0.75913,0.96479 -0.70225,0.4689 -1.4253,0.2813 -3.0339,-0.78806 -1.0682,-0.71007 -2.0289,-1.0558 -2.9373,-1.0568 -1.0151,-10e-4 -1.6014,-0.25318 -2.3632,-1.0149 -1.7764,-1.7764 -1.7148,-3.9259 0.11265,-3.9259 0.39753,0 1.0094,-0.25931 1.3601,-0.57671 0.26494,-0.23977 0.61549,-0.36333 1.0237,-0.38085 z m -1.2087,2.0722 c -0.0491,4.2e-4 -0.0976,0.005 -0.14573,0.0145 -0.85929,0.16675 -0.93881,0.98754 -0.0956,0.98754 0.46866,0 0.86769,0.32633 1.079,0.88212 0.4246,1.1168 0.70538,1.1269 0.70538,0.0253 0,-0.95037 -0.80729,-1.9157 -1.543,-1.9094 z m 4.6524,1.7079 c -0.75115,0 -1.171,0.78944 -0.85627,1.6097 0.24607,0.64124 0.9219,0.35106 0.9219,-0.39584 0,-0.70083 0.59783,-0.63846 1.0144,0.10594 0.18912,0.33794 0.46087,0.49772 0.60358,0.35501 0.38318,-0.38318 -0.91531,-1.6748 -1.6836,-1.6748 z m -4.3801,3.5094 c -0.35747,0.004 -0.47982,0.1309 -0.21291,0.41496 0.25094,0.26705 1.3618,0.83435 2.4691,1.2609 1.1073,0.42655 2.4104,0.78265 2.8954,0.79065 0.70918,0.012 0.50697,-0.20023 -1.0309,-1.0821 -1.4114,-0.80933 -3.3342,-1.3935 -4.1207,-1.3844 z"
           stroke-width="0.35278"
           id="path926" />
      </g>
    </g>
  </g>
</svg>
