<?xml version="1.0" encoding="UTF-8" standalone="no"?>
<!-- Created with Inkscape (http://www.inkscape.org/) -->

<svg
   version="1.1"
   id="svg886"
   width="512"
   height="512"
   viewBox="0 0 512 512.00001"
   sodipodi:docname="ffuf.svg"
   inkscape:version="1.1.2 (0a00cf5339, 2022-02-04)"
   xmlns:inkscape="http://www.inkscape.org/namespaces/inkscape"
   xmlns:sodipodi="http://sodipodi.sourceforge.net/DTD/sodipodi-0.dtd"
   xmlns="http://www.w3.org/2000/svg"
   xmlns:svg="http://www.w3.org/2000/svg">
  <defs
     id="defs890" />
  <sodipodi:namedview
     id="namedview888"
     pagecolor="#505050"
     bordercolor="#eeeeee"
     borderopacity="1"
     inkscape:pageshadow="0"
     inkscape:pageopacity="0"
     inkscape:pagecheckerboard="0"
     showgrid="false"
     inkscape:zoom="0.85847183"
     inkscape:cx="189.87228"
     inkscape:cy="234.71941"
     inkscape:window-width="1366"
     inkscape:window-height="695"
     inkscape:window-x="0"
     inkscape:window-y="24"
     inkscape:window-maximized="1"
     inkscape:current-layer="g892" />
  <g
     inkscape:groupmode="layer"
     inkscape:label="Image"
     id="g892">
    <g
       id="g2342"
       transform="matrix(0.98181914,0,0,1,4.2421645,-0.362285)">
      <path
         id="path1196-6"
         style="fill:#ffffff;stroke-width:1.69238"
         d="m 112.23828,142.44141 c -18.239138,0.66532 -36.48136,1.27397 -54.732137,1.50315 -6.638105,0.25124 -13.481109,0.24657 -19.775405,2.64806 -4.009933,1.52246 -7.613428,4.20511 -9.951225,7.83107 -2.845455,4.17055 -4.328674,9.08578 -5.367404,13.97865 -0.185459,0.94094 -0.449041,2.20214 -0.628996,3.17777 -1.793107,9.58796 -2.785447,19.29994 -4.226592,28.94242 -4.295306,30.98997 -9.0651032,61.92505 -13.4619834,92.88777 -0.2520287,4.06706 2.1729462,7.80879 5.2000452,10.32121 1.2004642,1.04945 2.3924772,1.99573 3.6137342,2.91743 6.760299,4.96998 13.935313,9.33641 20.970985,13.89835 9.840625,6.29763 19.688662,12.59331 29.536714,18.8863 0.295549,-1.96615 0.590908,-3.93232 0.886718,-5.89843 8.31457,-0.22906 16.642376,-0.32829 24.926306,-0.66638 3.61954,-0.16343 7.371579,-0.62821 10.9646,0.33555 2.57071,0.54895 4.7558,2.05574 6.93297,3.44523 18.1976,11.53105 36.3847,23.09095 54.58042,34.6356 0.28886,-0.7031 0.58032,-1.40512 0.87109,-2.10743 6.11204,0.49751 12.08288,1.14638 18.22852,1.22266 7.73535,0.1177 15.56601,-1.08303 22.67926,-4.20983 0.62616,-0.268 1.25442,-0.5698 1.9516,-0.9054 1.13017,-0.55457 2.49712,-1.31346 3.5293,-1.95118 1.72922,-1.07056 3.46971,-2.30676 4.97348,-3.50955 7.2636,-5.83305 12.63243,-13.72923 16.39903,-22.18733 1.55265,-3.35547 2.76625,-6.86395 4.41075,-10.1755 3.43886,-6.28474 10.54279,-10.20682 17.664,-10.11707 4.27992,-0.0143 8.50496,1.41398 11.99759,3.86597 4.41649,2.69755 8.44635,6.1685 13.42436,7.82702 8.45497,3.27757 17.78053,3.69393 26.69409,2.47918 5.33926,-0.7142 10.53502,-2.23106 15.56361,-4.13365 4.88857,-1.88867 10.55237,-1.31719 15.1054,1.2104 3.21008,1.69784 5.51046,4.58971 8.33731,6.79919 1.32456,1.07531 2.62713,2.02281 3.97139,3.0097 0.76502,0.54178 1.75189,1.25334 2.61349,1.84673 5.54207,3.78209 11.19698,7.39351 16.81581,11.06012 3.87822,2.49866 7.84827,4.97398 11.80331,7.20951 3.38099,1.84126 6.78968,3.67175 10.38067,5.0731 3.91431,1.33759 8.09758,1.43792 12.1875,1.67968 1.1706,0.0496 2.59467,0.0919 3.86368,0.10179 9.69419,0.0656 19.42684,-0.98418 28.81282,-3.44448 11.00857,-3.07907 21.0952,-10.18773 26.77211,-20.22568 3.24301,-5.93487 5.05299,-12.50087 6.94776,-18.95417 1.46701,-4.70244 1.52019,-9.65514 2.48645,-14.45792 1.84194,-11.45057 3.43051,-22.88101 5.09961,-34.35938 4.87597,-1.68481 10.05018,-2.29409 14.90429,-4.04492 3.0471,-1.32606 4.8663,-4.26801 7.1587,-6.52174 2.57731,-2.71476 5.15462,-5.42952 7.73193,-8.14428 -2.97135,-0.29624 -5.94283,-0.59128 -8.91406,-0.88867 0.61604,-10.29727 1.86125,-20.5394 3.08984,-30.77734 -0.0413,-4.3321 -0.006,-8.87456 1.99878,-12.83085 0.98637,-2.3403 1.81561,-4.83615 2.49543,-7.1815 1.47982,-5.20546 2.68685,-10.48406 4.10521,-15.70552 0.41179,-1.67939 0.93123,-3.38583 0.90058,-5.12393 -0.42364,-2.1518 -2.53549,-3.63069 -4.6543,-3.75195 -5.23863,-1.18486 -9.45438,-4.69065 -13.80177,-7.62803 -12.08741,-8.23666 -24.8052,-15.87271 -38.79553,-20.39805 -7.21416,-2.38151 -14.70413,-4.00501 -22.29528,-4.48759 -1.63339,-0.10596 -3.48545,-0.15339 -5.20703,-0.13672 -10.37792,0.13353 -20.92515,2.76784 -29.54984,8.69104 -7.53802,5.10866 -13.33399,12.54135 -17.05547,20.80753 -4.15054,8.17305 -13.90416,12.7828 -22.87794,11.38598 -1.52807,-0.17012 -2.98235,-0.88331 -4.54276,-0.65545 -14.73815,0.45878 -29.43888,0.73669 -44.15731,1.52622 -3.04403,0.17408 -6.13886,0.29178 -9.04667,1.30451 -3.76352,1.21595 -7.40575,2.89091 -11.10834,4.15894 -1.61189,0.59685 -3.22431,1.19226 -4.8355,1.79099 -3.5574,-4.19792 -6.63605,-8.82419 -10.65747,-12.6114 -2.70212,-2.50976 -5.91852,-4.23412 -8.93555,-6.29595 -11.56974,-7.6314 -23.2094,-15.24691 -35.30354,-22.06508 -5.47418,-2.68741 -11.66365,-3.2091 -17.65509,-3.6585 -4.62511,-0.29744 -9.41827,-0.27812 -13.9503,-0.0859 -7.75015,0.32661 -15.48927,1.44309 -22.91861,3.71204 -4.61501,1.60645 -9.85264,0.77539 -13.96462,-1.7772 -2.75263,-1.70541 -5.43695,-3.51968 -8.18303,-5.23689 -3.05018,-1.95401 -6.10036,-3.90801 -9.15054,-5.86202 -9.29231,0.33399 -18.58463,0.66797 -27.87695,1.00196 z" />
      <g
         id="g2257"
         transform="matrix(1.7062894,0,0,1.4753041,539.45702,234.92889)">
        <path
           id="path1196"
           style="fill:#78e0e0;stroke-width:1.06667"
           d="m -235.31753,-57.881334 -30.49805,1.267578 c -36.35389,1.51289 -30.13859,-6.495807 -37.04101,47.7402345 -3.20224,25.1617085 -6.01036,46.8777525 -6.24219,48.2578125 -0.36084,2.14808 1.51668,3.938756 13.05078,12.447266 l 13.47266,9.939453 5.53125,-43.916016 c 3.04202,-24.1530405 5.9224,-46.074844 6.40039,-48.714844 l 0.86914,-4.798828 30.30469,-1.339843 c 16.66818,-0.736261 30.40879,-1.216007 30.53515,-1.066407 0.41222,0.48803 -2.66001,22.449083 -3.21875,23.007813 -0.29887,0.29887 -7.37431,0.824672 -15.72265,1.169922 l -15.17969,0.628906 -0.80469,4.7324215 c -1.04636,6.1508154 -2.80534,5.7329266 20.41406,4.8417966 l 20.32813,-0.7792968 1.10547,-4.3984378 c 4.69409,-18.6908495 18.23103,-27.3710095 36.20898,-23.2187495 2.62408,0.60607 4.89042,0.980665 5.03711,0.833985 0.2976,-0.29759 -19.76363,-15.243245 -24.69336,-18.396485 -5.04089,-3.22437 -22.85217,-2.90097 -29.57812,0.53711 l -4.99414,2.554687 -7.64258,-5.666015 z m 167.138666,3.222656 c -11.93036,0.409331 -20.90945,7.985006 -24.0957,22.222657 -1.10507,4.93796 -1.65719,5.733712 -4.57422,6.570312 -2.45447,0.70393 -3.458216,1.71967 -3.855466,3.90625 l -0.53711,2.957031 -5.57422,-4.166015 -5.57617,-4.166016 -13.625,0.447266 c -16.45941,0.54056 -16.29101,0.494493 -16.29101,4.527343 0,3.95439 -0.41492,3.984041 -5.1543,0.369141 -2.06541,-1.57536 -5.75385,-3.166579 -8.19531,-3.537109 l -4.4375,-0.673829 -1.25781,6.089844 c -1.19084,5.76544 -1.45464,6.124807 -4.94336,6.779297 -7.56611,1.41941 -9.59101,8.7120718 -2.10743,7.5898435 4.65068,-0.69742 4.81696,-0.629226 4.3086,1.7460936 -0.29087,1.35909 -1.09562,6.9112222 -1.78907,12.3378906 l -1.26171,9.8652353 h -4.59961 c -5.17154,0 -4.5186,-1.401792 -6.80274,14.605468 -1.28923,9.03483 -1.31376,9.783842 -0.27734,8.189454 0.51485,-0.79203 4.16722,1.311342 10.64844,6.132812 11.32392,8.42403 11.30951,8.417879 9.15625,4.101562 -2.38607,-4.782989 0.94976,-49.5627544 4.06836,-54.6152344 0.73224,-1.18631 27.30818,-3.3901881 28.47461,-2.3613281 0.20037,0.1767599 -0.64014,8.3030237 -1.86719,18.0585935 -2.81188,22.355641 -2.58788,25.089836 2.05273,25.089845 4.74043,-1e-6 6.35237,-4.487696 8.66992,-24.134767 l 2.28125,-19.3359375 5.44922,-0.65625 c 2.99723,-0.36015 9.68723,-0.659062 14.867186,-0.664062 l 9.41797,-0.0098 -0.58789,2.933594 c -4.74916,23.6269105 -5.23828,42.9335945 -1.08789,42.9335945 h 2.82422 l -0.76758,8.267578 c -1.03196,11.09799 -3.40723,12.482767 -20.281246,11.835937 -12.86009,-0.49297 -12.35184,1.436249 3.47851,13.199219 14.597826,10.84712 13.756626,10.554226 14.558596,5.097656 0.34491,-2.34667 0.91095,-6.186543 1.25586,-8.533203 0.53809,-3.66111 1.00162,-4.267578 3.26953,-4.267578 7.01946,0 7.33551,-0.771225 10.49219,-25.572265 2.76289,-21.707061 2.78339,-21.289767 -1.03125,-20.560547 -3.15493,0.6031 -3.16093,0.521167 -1.26563,-14.1328133 l 1.24023,-9.6015622 3.4668,-0.333985 c 2.45688,-0.23689 3.4668,-0.874156 3.4668,-2.191406 0,-18.5928095 22.15497,-32.1815195 41.0664,-25.1874995 1.17333,0.43393 -3.69166,-3.555964 -10.81054,-8.865234 -11.51632,-8.588904 -22.58021,-12.605478 -31.85938,-12.28711 z m -138.128896,74.671875 -14.0586,0.710938 c -16.68259,0.84433 -14.40916,-0.838303 -15.96289,11.804687 -1.41693,11.52978 -3.14876,14.478516 -8.50781,14.478516 -3.37356,0 -3.71033,0.767731 -4.71289,10.769531 l -0.70508,7.03711 13.17383,9.669921 13.17187,9.667969 1.25391,-8.705078 c 0.68911,-4.78792 1.28972,-8.825986 1.33398,-8.972656 0.0442,-0.14667 1.40035,-0.274203 3.01368,-0.283203 3.50569,-0.01952 4.88762,-0.836603 6.45703,-3.820313 1.15909,-2.20361 5.53701,-33.223449 5.54101,-39.261719 z m 160.175776,36.47461 c -6e-4,0.04979 -0.008,0.06715 -0.008,0.11914 0,0.07389 0.0144,0.08095 0.0156,0.150391 0.002,-0.03586 0.004,-0.07156 0.006,-0.107422 -0.003,-0.05469 -0.009,-0.108259 -0.0137,-0.162109 z" />
        <path
           id="path1194"
           style="fill:#068cab;stroke-width:1.06667"
           d="m -211.64565,-38.27977 c -11.70122,0.155413 -57.21188,2.397146 -57.8711,2.966797 -0.73064,0.63137 -12.49253,89.3711 -12.51757,94.44141 -0.0106,2.14321 15.43834,2.76252 26.14648,1.04687 l 3.2207,-0.51758 2.37696,-18.83984 c 2.82888,-22.41525 -0.99856,-19.14127 23.44922,-20.04492 l 20.5332,-0.75977 -0.002,3.02539 c -0.004,5.98323 -4.38968,36.99671 -5.54101,39.18555 -1.56244,2.97046 -2.9506,3.80268 -6.38477,3.82226 -3.30148,0.0188 -3.6491,0.82752 -4.6543,10.84961 -0.63662,6.34723 -0.50269,7.15988 1.26758,7.66797 24.8234,7.12453 37.53805,-5.74631 41.98438,-42.50195 3.12816,-25.85908 2.51322,-24 7.92968,-24 h 4.56446 l 1.25976,-9.86523 c 0.69344,-5.42667 1.49819,-10.9788 1.78906,-12.3379 0.50835,-2.37531 0.34208,-2.44351 -4.30859,-1.74609 -7.45341,1.11771 -5.46948,-6.16867 2.06445,-7.58203 3.50381,-0.65732 3.70448,-0.95929 5.30274,-7.98633 2.22534,-9.78408 2.4549,-9.23213 -4.42383,-10.66015 -19.02018,-3.948599 -31.78379,4.12049 -36.55273,23.10937 l -1.10547,4.39649 -20.32813,0.78124 c -23.21942,0.89117 -21.46041,1.30903 -20.41406,-4.84179 l 0.80473,-4.73438 15.17969,-0.62695 c 8.34834,-0.34525 15.42379,-0.87299 15.72266,-1.17188 0.55686,-0.55683 3.6333,-22.516981 3.22265,-23.003901 -0.0623,-0.0739 -1.04324,-0.09447 -2.71484,-0.07227 z m 176.539064,3.083985 c -16.97448,-0.721971 -31.46875,10.830862 -31.46875,26.730472 0,1.31725 -1.00992,1.95647 -3.4668,2.19336 l -3.4668,0.33398 -1.24023,9.60156 c -1.8953,14.65398 -1.88931,14.73592 1.26562,14.13281 3.81464,-0.72918 3.79414,-1.14651 1.03125,20.56055 -3.15668,24.80104 -3.47272,25.57227 -10.49218,25.57227 -2.81353,0 -2.73238,-0.23313 -4.50977,12.97851 -0.62038,4.61134 -0.4851,5.01764 1.83789,5.51367 7.39779,1.57974 20.77669,0.0778 25.86524,-2.90429 9.81286,-5.75071 12.28271,-11.78885 15.53711,-37.98828 3.51606,-28.30589 2.66025,-25.59961 8.08398,-25.59961 4.42736,0 4.68624,-0.17172 5.22656,-3.4668 0.57594,-3.51233 2.72852,-19.7707 2.72852,-20.60937 0,-0.25088 -2.16078,-0.45704 -4.80078,-0.45704 -2.64,0 -4.79883,-0.50189 -4.79883,-1.11523 0,-2.13333 5.25328,-6.35156 7.91015,-6.35156 2.80342,0 3.22881,-0.91645 5.77344,-12.43946 l 0.98047,-4.4414 -4.60351,-1.16016 c -2.49115,-0.627269 -4.96766,-0.980847 -7.39258,-1.083982 z m -50.49805,27.658202 -9.41797,0.01 c -5.179964,0.005 -11.871914,0.30391 -14.869144,0.66406 l -5.44922,0.6543 -2.28125,19.33593 c -2.31755,19.6478 -3.92949,24.13672 -8.66992,24.13672 -4.64061,0 -4.86461,-2.7342 -2.05273,-25.08984 2.6438,-21.01931 4.35747,-18.52085 -12.13672,-17.71289 -15.51787,0.76014 -15.08739,0.49025 -16.13867,10.11133 -0.39407,3.60649 -1.57725,13.72457 -2.63086,22.48437 -2.65571,22.07971 -0.37118,29.53113 9.97656,32.54102 v -0.002 c 7.72263,2.24632 16.77251,0.31977 24.21875,-5.15625 l 4.50781,-3.31445 3.54492,3.43555 c 4.16731,4.0391 14.31673,5.29577 24.453134,3.02734 6.83905,-1.53052 6.3805,-0.84301 7.32422,-10.99219 l 0.76758,-8.26562 h -2.82422 c -4.15039,0 -3.66127,-19.30636 1.08789,-42.9336 z m 56.16602,22.98438 c -0.0295,0.0599 -0.0652,0.12219 -0.0937,0.18164 0.0152,-0.0192 0.002,-10e-4 0.0176,-0.0215 0.0195,-0.0246 0.0476,-0.0436 0.0703,-0.0664 0.003,-0.0312 0.003,-0.0626 0.006,-0.0937 z m -0.99805,2.60937 c -0.0296,0.10761 -0.0539,0.21368 -0.0801,0.32031 0.0307,0.0134 0.0611,0.0276 0.0918,0.041 0.0906,-0.11038 0.18026,-0.22214 0.27148,-0.33203 -0.0944,-0.01 -0.1889,-0.0187 -0.2832,-0.0293 z" />
      </g>
    </g>
  </g>
</svg>
