<?xml version="1.0" encoding="UTF-8" standalone="no"?>
<!-- Created with Inkscape (http://www.inkscape.org/) -->

<svg
   version="1.1"
   id="svg928"
   width="512"
   height="512"
   viewBox="0 0 512 512"
   sodipodi:docname="findalllinks.svg"
   inkscape:version="1.2.2 (b0a8486541, 2022-12-01)"
   xmlns:inkscape="http://www.inkscape.org/namespaces/inkscape"
   xmlns:sodipodi="http://sodipodi.sourceforge.net/DTD/sodipodi-0.dtd"
   xmlns="http://www.w3.org/2000/svg"
   xmlns:svg="http://www.w3.org/2000/svg">
  <defs
     id="defs932" />
  <sodipodi:namedview
     id="namedview930"
     pagecolor="#505050"
     bordercolor="#eeeeee"
     borderopacity="1"
     inkscape:pageshadow="0"
     inkscape:pageopacity="0"
     inkscape:pagecheckerboard="0"
     showgrid="false"
     inkscape:zoom="0.68418369"
     inkscape:cx="247.74048"
     inkscape:cy="260.16405"
     inkscape:window-width="1366"
     inkscape:window-height="705"
     inkscape:window-x="0"
     inkscape:window-y="26"
     inkscape:window-maximized="1"
     inkscape:current-layer="g934"
     inkscape:showpageshadow="0"
     inkscape:deskcolor="#505050" />
  <g
     inkscape:groupmode="layer"
     inkscape:label="Image"
     id="g934">
    <g
       id="g1019"
       transform="matrix(0.9872157,0,0,0.98210003,3.2708678,4.5891925)">
      <path
         id="path1036-3-3"
         style="fill:#ffffff;fill-opacity:1;stroke-width:1.25466"
         d="M 180.75195,7.1796875 C 150.84332,7.5181176 120.91123,15.162824 94.912109,30.056641 69.121539,44.797316 47.238808,66.11726 31.285813,91.133974 19.077289,110.43526 10.941078,132.29064 7.5531648,154.87593 c -4.1262401,26.62598 -2.6467456,54.23517 5.2470982,80.04664 7.651711,25.1681 21.071683,48.56028 38.962312,67.84766 17.911471,19.40936 40.20118,34.74539 64.732855,44.53136 14.09072,5.6508 28.89424,9.63787 43.99457,11.33769 13.27675,1.40947 26.67182,1.30589 39.98461,0.5072 9.89662,-0.71304 19.70219,-2.5092 29.24614,-5.20779 18.49497,-5.10262 36.1448,-13.18636 52.19136,-23.69064 -0.87531,8.40978 0.36079,16.96496 3.04174,24.95551 1.81113,4.96781 4.95878,9.31427 8.48337,13.20585 6.49183,7.48874 13.59113,14.41465 20.51378,21.49772 18.43825,18.62067 37.07179,37.05045 55.68709,55.49604 16.50211,16.27825 33.07791,32.48878 50.08261,48.24331 3.75389,3.3335 8.0838,6.05406 12.83875,7.70589 11.93725,4.68437 25.74615,4.69676 37.52317,-0.50172 8.45433,-3.6965 15.76462,-9.61909 22.01684,-16.33384 4.7609,-5.16546 8.95049,-10.98791 11.43569,-17.6041 2.19332,-5.61381 3.18591,-11.65605 3.13617,-17.67342 0.1511,-6.52614 -0.5837,-13.27233 -3.63737,-19.13994 -3.57818,-7.40745 -9.21402,-13.51918 -14.66901,-19.57477 -8.66609,-9.37154 -17.71494,-18.37954 -26.69973,-27.44365 -17.07034,-17.08918 -34.2313,-34.08316 -51.42049,-51.05166 -12.2545,-12.07888 -24.58114,-24.08969 -37.24492,-35.73981 -4.69048,-4.21145 -9.54968,-8.49559 -15.50316,-10.81507 -6.71497,-2.77483 -13.99457,-4.00166 -21.23102,-4.22634 -1.77855,-0.007 -3.55728,0.0855 -5.32617,0.26953 8.05104,-12.21914 15.0209,-25.22242 19.88025,-39.05124 6.65533,-18.56357 9.76189,-38.31969 9.72718,-58.0179 0.0911,-21.37935 -3.14627,-42.90364 -10.77738,-62.9312 C 342.23827,101.61462 330.82472,83.263661 316.82462,67.272291 300.84387,49.076619 281.14935,34.111853 259.18501,23.87563 237.02442,13.497946 212.68752,7.9009331 188.23902,7.2572435 c -2.49475,-0.072766 -4.99122,-0.089158 -7.48707,-0.077556 z" />
      <path
         id="path1036"
         style="fill:#000000;stroke-width:1.25466"
         d="M 182.87415,23.166281 C 138.05068,23.217508 97.693353,40.174318 66.807739,71.935812 36.21727,103.3938 21.263355,140.445 21.305786,184.66823 c 0.07391,77.08288 55.99519,143.00655 133.218754,157.04688 15.12647,2.7502 43.02457,2.71401 57.56054,-0.0762 22.35543,-4.29114 42.68605,-12.59805 61.65821,-25.18945 l 10.42187,-6.91601 7.8457,7.70898 c 6.95939,6.83919 7.71304,8.05162 6.6836,10.73633 -1.74249,4.54433 -1.4002,12.83603 0.8418,20.43945 1.92312,6.52193 4.45875,9.23005 65.20507,69.6543 34.76238,34.57808 65.55596,64.25489 68.42969,65.94726 2.87372,1.69236 7.69218,3.54234 10.70899,4.11133 12.50141,2.35784 22.78049,-1.17562 33.62304,-11.55664 9.39929,-8.99918 13.17864,-16.76241 13.18164,-27.07422 0.004,-15.34562 1.11587,-13.99209 -68.14843,-82.83007 -46.20783,-45.92343 -64.26173,-63.07757 -68.85157,-65.41797 -7.05917,-3.59957 -18.74269,-5.12193 -24.37304,-3.17579 -3.54795,1.22636 -4.13438,0.89617 -11.49219,-6.46484 l -7.75586,-7.75781 6.97656,-10.33399 c 18.818,-27.87654 27.50292,-56.09259 27.54102,-89.47656 0.0381,-33.43969 -8.22283,-61.49775 -25.97656,-88.228512 C 287.97587,49.698803 238.28469,23.102941 182.87415,23.166281 Z m -1.75391,35.873047 c 14.02931,-0.238711 28.08457,1.829592 41.48828,6.291015 40.64128,13.527434 70.94523,45.854747 82.01563,87.490237 2.74917,10.33956 3.34045,15.37929 3.43945,29.34961 0.0677,9.5456 -0.58625,20.11884 -1.50586,24.36132 -11.56077,53.33431 -52.10439,92.02589 -104.7832,99.9961 -19.63024,2.97 -34.36671,1.93974 -54.69922,-3.82227 -11.8157,-3.34843 -26.8249,-10.47609 -36.6582,-17.4082 C 102.16293,279.47827 87.957699,265.65196 81.948364,257.5862 50.154593,214.91255 49.193759,156.49443 79.569458,112.92604 87.259341,101.89631 103.83802,85.735962 114.30969,79.062765 134.42596,66.243474 157.73805,59.437179 181.12024,59.039328 Z m -13.13672,38.808593 c -7.13031,-0.05255 -14.98543,0.476097 -19.27539,1.478516 -31.12277,7.272323 -54.336087,30.814053 -61.191407,62.058593 -1.218601,5.55402 -1.67344,20.27641 -0.820312,26.58008 2.490631,18.40325 11.093093,35.07173 24.630859,47.72461 12.19595,11.39875 27.74636,18.71198 44.73633,21.04101 5.81702,0.79741 19.64912,0.26541 25.55469,-0.98437 15.30408,-3.23879 28.3921,-10.0245 39.63281,-20.54688 l 4.33594,-4.05859 -2.01563,-6.03906 -2.01562,-6.03711 -1.41602,1.74218 c -0.7784,0.95871 -1.4683,1.82453 -1.5332,1.92383 -0.0649,0.0993 -1.92693,-1.17961 -4.13867,-2.8418 -3.38637,-2.5449 -11.3314,-7.44851 -12.92969,-7.98046 -0.25598,-0.0852 0.0329,-2.92178 0.64258,-6.30274 0.60972,-3.38096 1.10742,-6.83257 1.10742,-7.66992 v -1.52148 h 4.875 c 5.38428,0 7.60142,-0.67013 9.68555,-2.92579 1.14673,-1.24111 1.37764,-2.11646 1.61914,-6.13281 l 0.2832,-4.68359 7.68945,-0.15039 7.69141,-0.14844 -0.0195,1.76562 c -0.0109,0.97143 -0.35389,3.46429 -0.76172,5.53907 -0.40785,2.07477 -0.58087,3.92387 -0.38477,4.10937 0.56891,0.53811 9.30582,3.30317 9.57813,3.03125 0.13558,-0.13536 0.64539,-2.16146 1.13281,-4.50195 1.30965,-6.28749 1.30582,-23.10413 -0.006,-29.56445 -2.24086,-11.03685 -6.36848,-21.08406 -12.30469,-29.94532 -4.14672,-6.19003 -12.67231,-15.11298 -18.80468,-19.68359 -9.33686,-6.95901 -22.62382,-12.56275 -34.45313,-14.531248 -2.83019,-0.470966 -6.84681,-0.712612 -11.125,-0.744141 z m -1.70117,10.226559 c 1.43724,0.0445 2.87484,0.39922 4.30469,1.07031 4.99333,2.34358 10.90971,9.88635 14.5332,18.5293 2.89319,6.90097 3.4209,8.90242 2.5,9.4707 -1.41965,0.87606 -9.96891,2.70145 -15.0957,3.22266 -9.05361,0.92043 -17.7191,0.0775 -26.17578,-2.54297 -1.48422,-0.45993 -2.76701,-0.88983 -2.84961,-0.95703 -0.32851,-0.26735 2.8406,-8.33508 4.86914,-12.39648 5.47214,-10.95596 11.686,-16.58934 17.91406,-16.39649 z m 22.6875,3.73242 c 0.51551,0 8.27052,3.59838 11.35156,5.26758 4.11438,2.229 9.71485,6.40603 9.71485,7.2461 0,0.77124 -4.32702,4.14411 -8.16211,6.36328 -1.52036,0.87977 -2.97883,1.59961 -3.24219,1.59961 -0.26337,0 -1.06708,-1.63604 -1.78516,-3.63672 -1.61669,-4.50436 -3.72316,-9.07316 -6.21289,-13.47266 -1.04834,-1.85249 -1.79761,-3.36719 -1.66406,-3.36719 z m -46.12891,0.17774 c 0,0.0648 -1.5208,3.14238 -3.3789,6.83984 -1.85811,3.69747 -3.84299,8.17865 -4.41211,9.95703 -0.56914,1.77837 -1.18463,3.41297 -1.36719,3.63282 -0.30667,0.3693 -8.30998,-4.60612 -11.30664,-7.0293 l -1.30469,-1.05469 3.46485,-2.54492 c 4.83638,-3.55527 9.80457,-6.42574 14.39062,-8.31055 2.15214,-0.88451 3.91406,-1.55503 3.91406,-1.49023 z m 75.52735,19.73828 2.45507,3.10937 c 7.33572,9.29007 12.96929,22.80878 14.10157,33.84375 l 0.35742,3.48633 h -7.54102 c -4.14737,0 -7.70249,-0.16176 -7.90039,-0.35937 -0.19789,-0.19759 -0.36032,-2.07629 -0.36132,-4.17578 -0.004,-6.99813 -2.28523,-8.9375 -10.51368,-8.9375 -3.67462,0 -5.22679,-0.1932 -5.36328,-0.67188 -0.10564,-0.3705 -0.69915,-3.82654 -1.32031,-7.67969 -0.87987,-5.45808 -0.9839,-7.0975 -0.4668,-7.42187 0.36506,-0.22898 2.77242,-1.65644 5.34961,-3.17188 2.57718,-1.51543 6.15314,-3.94076 7.94531,-5.38867 z m -104.84961,0.0566 4.21094,3.22266 c 2.316,1.77309 6.24214,4.37332 8.7246,5.77734 2.48245,1.40402 4.4188,2.80578 4.30274,3.11523 -0.11603,0.30945 -0.61944,3.21949 -1.11914,6.4668 -0.4997,3.24731 -1.01795,6.45029 -1.15039,7.11719 -0.22989,1.15765 -0.47759,1.21089 -5.49219,1.21289 -8.2052,0.003 -10.38465,1.85911 -10.81055,9.20508 l -0.24609,4.26562 h -7.56641 -7.564451 l 0.316406,-3.63672 c 0.921286,-10.58548 6.431535,-23.89264 13.863285,-33.48046 z m 77.63281,15.71094 c 0.35653,0.41343 1.80985,10.34544 1.57031,10.73242 -0.39122,0.63213 -52.99103,0.5724 -53.38281,-0.0606 -0.3103,-0.50132 1.06302,-10.14964 1.50781,-10.59375 0.12713,-0.12695 2.02317,0.25979 4.21485,0.85938 12.80929,3.50428 27.8912,3.58676 40.89453,0.22265 2.78587,-0.72073 5.12331,-1.24365 5.19531,-1.16015 z m -55.50781,20.32617 c 1.09619,-0.058 1.97835,1.6096 3.47265,5.94922 l 1.94141,5.64062 1.84961,-5.64258 c 1.689,-5.15279 1.97369,-5.65802 3.2832,-5.81054 2.7641,-0.32195 2.69198,1.05677 -0.58398,10.94531 -3.02663,9.13584 -3.04013,9.16211 -4.64844,9.16211 -1.57059,0 -1.66127,-0.1478 -3.46484,-5.6582 l -1.85157,-5.65821 -1.58398,5.11914 c -0.87077,2.81576 -1.8302,5.42247 -2.13281,5.79297 -0.90065,1.1027 -2.88971,0.7955 -3.49024,-0.53906 -0.30009,-0.66689 -1.70376,-4.91213 -3.11914,-9.43359 -2.09627,-6.69661 -2.44792,-8.36901 -1.90234,-9.02539 0.81543,-0.98106 2.36741,-1.04771 3.10937,-0.13282 0.30049,0.37049 1.27115,2.94373 2.15625,5.71875 0.8851,2.77502 1.73336,4.83573 1.88477,4.58008 0.15139,-0.25565 0.91032,-2.55391 1.68555,-5.10937 0.77524,-2.55547 1.76223,-4.93995 2.19531,-5.29883 0.44365,-0.36765 0.83382,-0.58027 1.19922,-0.59961 z m 19.80859,0.0352 c 1.458,0 1.87745,0.7533 3.91211,7.00586 l 1.49219,4.58007 1.44922,-4.62695 c 1.82308,-5.81544 2.44052,-6.95898 3.75,-6.95898 1.37112,0 2.23901,1.51686 3.77734,6.60156 0.69497,2.29707 1.41231,4.17578 1.5957,4.17578 0.1834,0 1.02036,-2.12136 1.85938,-4.71484 0.83902,-2.59347 1.76893,-5.0182 2.06641,-5.38868 0.73188,-0.91151 2.28949,-0.85119 3.09765,0.1211 0.53529,0.64402 0.10962,2.50892 -2.22851,9.77734 -2.9675,9.22498 -3.86974,10.74261 -5.70313,9.58789 -0.50865,-0.32036 -1.65329,-2.80529 -2.54297,-5.52148 -0.88966,-2.71618 -1.74807,-4.93469 -1.9082,-4.92969 -0.16012,0.005 -1.0278,2.37119 -1.92774,5.25586 -1.48584,4.76275 -1.76478,5.25976 -3.05078,5.41016 -0.77891,0.0911 -1.62238,-0.1468 -1.87304,-0.52735 -0.25067,-0.38053 -1.6999,-4.57689 -3.22071,-9.32617 -2.91447,-9.10144 -2.98757,-10.52148 -0.54492,-10.52148 z m 30.44922,0.10156 c 1.342,0.1545 1.62891,0.64323 3.40625,5.80664 l 1.94141,5.63867 1.88281,-5.63867 c 1.81376,-5.43303 1.93845,-5.63867 3.44922,-5.63867 1.51413,0 1.63171,0.19344 3.41015,5.6582 l 1.8418,5.6582 1.80469,-5.35742 c 0.99265,-2.9474 2.02978,-5.58684 2.30664,-5.86328 0.27686,-0.27641 1.12873,-0.34572 1.89258,-0.1543 1.94707,0.48794 1.83036,1.3965 -1.4668,11.375 -2.82802,8.55874 -2.86095,8.62305 -4.44922,8.62305 -1.54684,0 -1.66287,-0.18279 -3.48047,-5.51172 l -1.88086,-5.51367 -1.89648,5.51367 c -1.71999,4.99584 -2.03309,5.52765 -3.33203,5.67774 -0.78829,0.0911 -1.59266,-0.0948 -1.78906,-0.41211 -0.19641,-0.31731 -1.56367,-4.39233 -3.03711,-9.05664 -2.9403,-9.30777 -3.04013,-11.0852 -0.60352,-10.80469 z m -81.41797,14.44922 h 7.45508 l 0.25,4.33398 c 0.2684,4.62938 0.96998,6.13042 3.87305,8.29688 1.21796,0.90893 2.46361,1.14528 6.84961,1.29687 4.98505,0.17228 5.3785,0.26535 5.5996,1.3457 0.13078,0.63907 0.63619,3.68209 1.12305,6.76172 0.48686,3.07961 0.99826,5.89365 1.13672,6.25391 0.1474,0.38354 -1.75165,1.82944 -4.58203,3.48828 -2.65881,1.55827 -6.57359,4.13967 -8.69922,5.73633 -2.12563,1.59666 -3.95366,2.9043 -4.0625,2.9043 -0.10888,0 -1.67248,-2.002 -3.47461,-4.44727 -4.14096,-5.6188 -8.76865,-14.872 -10.576172,-21.15039 -1.409488,-4.89582 -2.971052,-13.66944 -2.566406,-14.41602 0.12048,-0.2223 3.573648,-0.40429 7.673828,-0.40429 z m 61.60742,14.01172 h 27.0293 l -0.2832,1.48046 c -0.15537,0.81509 -0.57646,3.24175 -0.9375,5.39063 -0.73499,4.37459 -0.75449,4.38468 -5.00977,3.0957 -11.3248,-3.43043 -26.59671,-3.63047 -39.63867,-0.51953 -5.32216,1.26947 -6.56931,1.49621 -6.57031,1.19531 -4e-4,-0.0741 -0.36415,-2.19547 -0.8086,-4.71484 -0.44447,-2.51937 -0.80818,-4.88341 -0.80859,-5.25391 -5.7e-4,-0.52994 5.76364,-0.67382 27.02734,-0.67382 z m 57.09766,0.63476 c -2.68369,0.39825 -2.57328,0.87477 6.23437,27.25781 4.65987,13.95846 8.80921,25.65706 9.22071,25.99805 1.82564,1.51286 3.06639,0.40905 6.36914,-5.66016 1.77423,-3.26036 3.49537,-6.10451 3.82422,-6.32226 1.60777,-1.06462 3.07503,-0.0534 10.33203,7.13086 5.54706,5.49143 7.97304,7.54492 8.91601,7.54492 1.61541,0 9.68555,-7.81281 9.68555,-9.37695 0,-0.63073 -3.15194,-4.22457 -7.89453,-8.99805 -6.80764,-6.85198 -7.85148,-8.12365 -7.57031,-9.24219 0.24604,-0.97885 1.83943,-2.11713 6.49218,-4.63476 3.39132,-1.83505 6.31724,-3.7303 6.50196,-4.21094 0.42285,-1.10024 -0.0653,-2.69885 -0.92383,-3.02734 -6.48369,-2.48069 -50.34517,-16.58399 -51.1875,-16.45899 z m -55.07813,17.14258 c 2.78129,0.0402 5.44797,0.23018 7.82032,0.58203 5.98987,0.88839 12.24609,2.67219 12.24609,3.49219 0,1.2241 -2.74163,8.41088 -4.71875,12.36914 -3.65797,7.32343 -8.07782,12.56387 -12.43164,14.73828 -2.85986,1.42829 -4.8892,1.67639 -7.70898,0.94141 -2.94638,-0.76797 -4.93552,-2.11552 -7.95899,-5.39063 -4.20682,-4.55694 -7.9222,-11.28619 -10.67773,-19.33984 l -1.25196,-3.66016 1.31446,-0.49805 c 5.63875,-2.14059 15.02331,-3.35509 23.36718,-3.23437 z m 30.45704,8.0957 c 0.92884,0.008 11.34063,7.11381 11.60156,7.91797 0.3462,1.06694 -6.70578,5.90922 -13.60352,9.3418 -3.54946,1.76634 -6.74276,3.21289 -7.09765,3.21289 -0.35489,0 0.42792,-1.88067 1.74023,-4.17774 2.20929,-3.86711 6.68359,-14.3932 6.68359,-15.72265 0,-0.31873 0.30474,-0.57627 0.67579,-0.57227 z m -65.33399,0.29297 c 0.19696,-0.0382 0.33105,-0.0286 0.39063,0.0391 0.22717,0.25804 0.97451,2.04608 1.66015,3.97266 0.68563,1.92657 2.60459,6.16351 4.26563,9.41406 1.66105,3.25055 3.10227,6.09993 3.20117,6.33203 0.37284,0.87457 -1.0222,0.32394 -7.79102,-3.07226 -3.82925,-1.9213 -8.49764,-4.68941 -10.375,-6.15235 l -3.41406,-2.66015 2.73438,-2.1582 c 3.49277,-2.7567 7.94938,-5.44775 9.32812,-5.71485 z" />
      <path
         id="path2914"
         style="fill:#ffb500;fill-opacity:1;stroke:#000000;stroke-width:10.049;stroke-dasharray:none;stroke-opacity:1"
         d="m 178.46008,23.047139 c -8.20745,0.08008 -16.4621,-0.0499 -24.60361,1.147586 -6.14722,0.97902 -12.15522,2.670147 -18.10924,4.456375 C 116.3248,34.61893 98.071133,44.301805 82.176002,56.951986 67.988146,68.21791 55.469958,81.644744 45.592987,96.851144 35.650005,112.10191 28.265677,129.02311 23.866333,146.68972 c -2.078302,8.69235 -2.119807,17.68488 -2.29121,26.57049 -0.08416,9.25013 -0.179777,18.50371 0.03635,27.75244 0.147821,6.14456 0.652561,12.31324 2.162382,18.28819 5.894339,24.01272 17.072321,46.75272 32.755607,65.88881 16.490915,20.2355 37.936776,36.3669 61.894128,46.71635 11.38771,4.92864 23.31645,8.63202 35.51157,10.93198 9.96191,1.82723 20.13894,1.52417 30.21893,1.39848 8.2289,-0.19863 16.47462,-0.26404 24.67386,-1.0544 7.90214,-0.72711 15.56057,-2.97834 23.04994,-5.50389 13.22317,-4.5857 25.94701,-10.57054 38.0484,-17.59025 4.83952,-2.82601 9.55378,-5.85942 14.32481,-8.79859 4.97122,4.89381 9.93869,9.78962 14.91016,14.68359 1.83031,-3.40206 3.40575,-6.95003 5.49414,-10.20703 3.32474,-4.97517 7.62593,-9.44233 12.92773,-12.30469 1.97221,-0.97578 4.07733,-1.85847 6.14056,-2.81019 1.19718,-0.54008 2.39457,-1.07968 3.59186,-1.6195 -5.19832,-5.26607 -10.39805,-10.52856 -15.59765,-15.79297 4.61963,-6.90879 9.39296,-13.73226 13.41365,-21.0169 10.3324,-18.38102 17.21664,-38.75177 19.65387,-59.71908 1.79839,-15.05776 1.2596,-30.35357 -1.20449,-45.3044 -2.7206,-16.96991 -8.07347,-33.55782 -16.24736,-48.69743 -8.21798,-15.289018 -19.1022,-29.056609 -31.50692,-41.159112 -18.70903,-17.988689 -41.80037,-31.316569 -66.61319,-38.864066 -6.5405,-1.905925 -13.13985,-3.754701 -19.91725,-4.589621 -8.11261,-0.917398 -16.29295,-0.785925 -24.44394,-0.842719 -2.13073,-0.0038 -4.26146,3.14e-4 -6.39219,0.0019 z m 5.08789,37.41211 c 2.36671,0.0076 4.58649,0.07229 6.96484,0.217189 3.19691,0.190231 6.44859,0.525012 9.53968,0.959052 2.74495,0.389894 5.45441,0.863284 8.11127,1.420997 18.53897,3.89517 36.31943,11.761811 51.28271,23.435665 14.66565,11.349686 26.48972,26.208028 34.74408,42.783498 0.51556,1.02746 1.12327,2.29646 1.6543,3.42578 2.75216,5.90908 5.10802,12.11955 7.02539,18.2754 1.52778,4.68362 2.65355,9.51995 2.93505,14.4504 0.0849,0.99219 0.12775,2.17362 0.18214,3.0496 0.28887,8.15452 0.21468,16.49226 0.19146,24.73039 -0.0173,1.82936 -0.065,3.86291 -0.12896,5.56062 -0.14954,4.52128 -0.74108,9.04525 -2.10727,13.36926 -3.63146,11.81819 -8.22132,23.40115 -14.4934,34.08291 -2.67196,4.57243 -5.63381,8.97622 -8.8798,13.16111 -5.96175,7.7019 -13.06611,14.76364 -20.82755,20.77286 -5.57009,4.29395 -11.44586,8.21564 -17.65292,11.52988 -9.39899,4.83921 -19.51353,8.42603 -29.79277,11.14596 -1.95883,0.51402 -4.242,1.04587 -6.20918,1.46537 -5.5442,1.18305 -11.18459,1.86541 -16.83789,2.24023 -0.63019,0.0292 -1.58366,0.084 -2.33789,0.12305 -0.48798,0.0191 -1.3331,0.0442 -1.95791,0.0656 -13.00536,0.38333 -26.04302,-1.63216 -38.39756,-5.68154 -9.24183,-3.01395 -18.16584,-6.97408 -26.71131,-11.59795 -6.48363,-3.4996 -12.31644,-8.07035 -17.71533,-13.05768 -6.189789,-5.64527 -12.111564,-11.60919 -17.383911,-18.12878 -0.43786,-0.55059 -1.076159,-1.34369 -1.581,-1.99587 -3.111287,-3.99868 -5.970696,-8.19365 -8.530328,-12.56663 -0.242802,-0.4191 -0.661135,-1.15847 -0.971189,-1.70027 -3.189497,-5.69289 -5.833065,-11.68705 -7.938967,-17.86223 -0.18533,-0.58237 -0.487072,-1.46734 -0.711139,-2.16977 -2.85532,-9.10056 -4.693124,-18.51324 -5.642377,-28.00016 -0.06279,-0.74436 -0.163474,-1.79252 -0.218688,-2.65524 -0.103489,-1.43122 -0.187941,-2.92442 -0.234209,-4.25336 -0.271795,-7.26857 0.180014,-14.56212 1.331803,-21.74374 0.104858,-0.58315 0.269395,-1.60954 0.374907,-2.19654 1.578632,-8.72499 4.135854,-17.25429 7.326265,-25.52026 0.3757,-0.96969 0.918636,-2.30233 1.324219,-3.25586 2.18047,-5.1757 4.879617,-10.3398 7.849609,-14.96484 7.21177,-11.24639 16.710969,-20.760929 26.308555,-29.96065 4.21554,-4.027887 8.74676,-7.785566 13.87761,-10.597606 6.28467,-3.45225 12.77575,-6.540714 19.44221,-9.184966 2.81149,-1.103185 5.59728,-2.106236 8.43067,-3.017159 4.13807,-1.34229 8.47789,-2.50199 12.64603,-3.405634 4.40849,-0.94934 9.14207,-1.705914 13.61329,-2.148437 4.04519,-0.402747 8.01048,-0.604214 12.10546,-0.599609 z" />
      <path
         id="path3150"
         style="fill:#c03300;fill-opacity:1;stroke:#000000;stroke-width:10.049;stroke-dasharray:none;stroke-opacity:1"
         d="m 334.21594,296.03737 c -9.40937,0.20038 -18.62127,4.07367 -25.49598,10.47337 -3.78847,3.47997 -6.85984,7.68667 -9.35475,12.16912 -1.95788,3.54718 -2.03697,7.70366 -2.03321,11.65048 0.0824,4.98432 -1.7e-4,9.99078 0.59242,14.94846 0.35292,3.12438 1.56333,6.09918 3.34285,8.67952 1.69301,2.70193 4.03739,4.90109 6.16448,7.25119 12.41742,13.09981 25.16641,25.87667 37.88593,38.68034 20.39472,20.40955 40.86411,40.74368 61.62483,60.78034 7.73648,7.38741 15.42982,14.83521 23.55615,21.79775 2.21968,1.81669 4.42701,3.80097 7.21142,4.69443 6.60051,2.4003 13.86934,2.76867 20.74528,1.46001 4.27767,-0.79481 8.36912,-2.52944 11.88342,-5.09948 5.71425,-4.11253 10.64992,-9.25687 14.82535,-14.91006 2.57645,-3.59237 4.94431,-7.48731 5.82851,-11.87619 1.09749,-4.31719 2.0923,-8.87691 1.01651,-13.30528 -1.25876,-5.31489 -4.52976,-9.84456 -7.81318,-14.09814 -5.81421,-7.30609 -12.30854,-14.03363 -18.76951,-20.76301 -13.11186,-13.51419 -26.50223,-26.75453 -39.8124,-40.0742 -18.33782,-18.25745 -36.71569,-36.47895 -55.3838,-54.39839 -3.26997,-3.07639 -6.46426,-6.24333 -9.90603,-9.12911 -7.36182,-5.82491 -16.68414,-9.20079 -26.10829,-8.93115 z" />
      <path
         id="path4792"
         style="fill:#003aff;fill-opacity:1;stroke-width:2.10318"
         d="m 165.34876,96.051046 c -8.79904,0.194965 -17.65108,1.304466 -25.9961,4.201174 -8.81584,3.04396 -17.00773,7.77284 -24.31054,13.54882 -14.98254,12.02412 -25.665687,29.36445 -29.406667,48.22762 -0.81148,5.41213 -0.867247,10.90532 -0.871027,16.36806 0.0688,4.83649 0.148459,9.70353 0.945556,14.48484 2.367743,11.24356 6.946426,22.04697 13.554958,31.45695 4.37437,5.89817 9.53802,11.18341 15.06428,16.0055 4.78875,4.19735 10.30041,7.47837 15.98665,10.30202 9.15942,4.4673 19.14329,7.392 29.33562,8.03783 6.59991,0.24777 13.22404,-0.0815 19.77148,-0.94141 10.16114,-1.50736 19.85114,-5.42872 28.67701,-10.60969 6.54246,-3.86812 12.59442,-8.59142 17.77059,-14.1669 0.52242,-0.53891 1.04517,-1.0775 1.56803,-1.61599 -1.38567,-4.0659 -2.60405,-8.1916 -4.1582,-12.19726 -0.58721,-0.95101 -1.89676,-1.26412 -2.87367,-0.73276 -0.91122,0.45189 -1.59221,1.24491 -2.23376,2.01401 -4.7142,-3.23356 -9.42274,-6.4927 -14.38867,-9.33203 -0.78816,-0.33043 -0.39587,-1.298 -0.40625,-1.9336 0.51148,-3.66748 1.36718,-7.30543 1.44141,-11.02148 3.65367,-0.21616 7.42125,-0.007 10.94336,-1.16211 2.2865,-0.7302 4.06165,-2.67215 4.67658,-4.98072 0.77159,-2.48275 0.63099,-5.11943 1.13006,-7.65209 3.90394,-0.26784 7.82035,-0.16801 11.73047,-0.19727 -0.38789,3.70088 -0.82212,7.39667 -1.26172,11.0918 3.67777,1.0856 7.29773,2.39301 11.03711,3.2539 0.57473,-0.0976 1.41229,0.29594 1.65821,-0.41602 1.27033,-1.68692 1.3365,-3.89948 1.64204,-5.90872 0.73947,-7.17359 0.88581,-14.40288 0.66781,-21.60814 -0.10129,-3.69686 -0.44312,-7.40135 -1.3862,-10.98744 -1.58307,-6.27767 -3.66384,-12.4571 -6.50664,-18.28181 -6.2289,-12.43598 -15.58884,-23.32605 -27.13467,-31.11176 -9.25805,-6.2785 -19.8095,-10.603727 -30.76086,-12.836803 -5.23222,-1.041055 -10.57753,-1.405146 -15.90625,-1.298521 z m 0.96093,13.869144 c 3.72018,0.28101 6.77845,2.81189 9.18031,5.47328 3.2756,3.6911 5.60615,8.09931 7.7512,12.51179 1.1696,2.52931 2.34505,5.09455 2.96302,7.82352 -3.82621,1.30921 -7.82732,2.04778 -11.82219,2.62547 -1.60422,0.19505 -3.2482,0.27546 -4.77261,0.32669 -4.9334,0.10835 -9.90013,0.0764 -14.7908,-0.64523 -3.12063,-0.56624 -6.26324,-1.20514 -9.20424,-2.42217 1.54586,-4.43563 3.5394,-8.70952 5.71969,-12.86617 1.67971,-3.08044 3.60525,-6.06529 6.06156,-8.5889 0.24606,-0.24289 0.79378,-0.78324 1.18367,-1.11409 2.11829,-1.86506 4.82855,-3.32492 7.73039,-3.12419 z m -27.24804,5.70898 c -2.15806,4.6804 -4.37021,9.34459 -6.24805,14.14844 -0.23402,0.61198 -0.98192,-0.37198 -1.42931,-0.45837 -2.56434,-1.53592 -5.08938,-3.14853 -7.47108,-4.95765 2.8333,-2.15139 5.93067,-4.09449 8.94646,-5.80728 1.99927,-1.143 4.22777,-2.34851 6.39924,-3.37436 -0.0657,0.14974 -0.13151,0.29948 -0.19726,0.44922 z m 53.79687,-0.17383 c 4.29386,2.11239 8.57618,4.29896 12.55095,6.9746 0.7976,0.57613 1.55786,1.20795 2.25179,1.90626 -2.47129,2.31 -5.339,4.1845 -8.3711,5.67383 -1.9832,-4.96983 -4.02344,-9.93435 -6.59765,-14.63281 l 0.0905,0.0426 z m 25.28711,18.69727 c 4.53019,5.5709 7.98379,11.95328 10.73632,18.56508 2.19345,5.23081 3.56711,10.78068 4.36134,16.38804 -0.0467,0.46583 0.46614,1.48021 -0.38477,1.22852 -3.80538,-0.0385 -7.6191,0.10392 -11.41797,-0.16211 -0.39996,-3.13553 -0.10375,-6.53837 -1.75976,-9.36524 -1.38778,-2.35629 -4.21136,-3.20098 -6.76701,-3.50423 -2.55055,-0.34773 -5.13232,-0.37017 -7.68612,-0.69108 -0.21503,-0.99527 -0.41257,-2.03269 -0.61051,-3.11852 -0.51615,-3.02417 -1.0878,-6.04904 -1.34457,-9.10804 1.85167,-1.61442 4.09076,-2.70645 6.11921,-4.07915 2.99954,-1.92831 5.95312,-3.97026 8.75384,-6.15327 z m -103.79883,0.45312 c 4.31681,3.17938 8.8221,6.08941 13.29392,9.04298 0.36469,0.34795 1.03538,0.57686 1.20282,1.03214 -0.72961,3.97416 -1.20222,7.99705 -2.11197,11.9366 -3.66001,0.60101 -7.48462,0.21087 -11.03906,1.41992 -2.6622,1.09267 -4.23431,3.80822 -4.7437,6.53682 -0.4165,1.89135 -0.46112,3.83438 -0.57857,5.76006 -3.89388,0 -7.78776,0 -11.681642,0 0.974396,-10.09464 4.553172,-19.84133 9.741442,-28.51634 1.63421,-2.63384 3.4869,-5.12279 5.33473,-7.60866 0.19401,0.13216 0.38802,0.26432 0.58203,0.39648 z m 75.5625,15.23242 c 0.38991,2.17441 0.68129,4.36786 0.85547,6.57032 -11.90406,0.27847 -23.81303,0.29186 -35.71992,0.29644 -4.58984,-0.028 -9.18953,0.0359 -13.77227,-0.1734 0.11822,-1.38556 0.2328,-2.79028 0.38676,-4.07814 0.10512,-0.9251 0.21082,-1.85104 0.37692,-2.76756 3.74952,0.57094 7.32168,1.7326 11.11054,2.24368 4.82893,0.56134 9.70375,0.34503 14.55467,0.37784 5.2099,-0.0553 10.49749,0.10589 15.59016,-1.18625 2.1932,-0.48801 4.36633,-1.07432 6.58056,-1.46261 l 0.0202,0.0979 z m 17.31836,20.07227 c -0.34758,2.39197 -1.18083,4.73672 -1.87692,6.95962 -1.06273,3.11809 -1.96121,6.30476 -3.27375,9.32973 -0.20344,0.41824 -0.49646,-0.58286 -0.64382,-0.71713 -1.21848,-2.51242 -1.6572,-5.36263 -3.09277,-7.77126 -0.31567,-0.53357 -0.81792,-0.78543 -1.40822,-0.90611 -1.03041,-0.17884 -1.99167,0.52347 -2.45256,1.42351 -0.85451,1.66805 -1.22138,3.53534 -1.99505,5.24205 -0.4121,0.97152 -0.7855,1.96798 -1.32722,2.87709 -0.53189,-0.0199 -0.5308,-0.86007 -0.77488,-1.26431 -1.1082,-3.2215 -2.04127,-6.50084 -3.00832,-9.76694 -0.36278,-1.27992 -0.77691,-2.7932 -1.06113,-4.1887 -0.23675,-0.96589 0.27132,0.32487 0.40784,0.62706 1.65034,4.35136 3.00653,8.80868 4.52829,13.20617 1.44717,-4.30987 2.7341,-8.67612 4.30121,-12.94406 0.29307,-0.72948 0.60197,-1.46161 1.0484,-2.11258 1.5417,2.72934 1.97315,5.9315 3.40592,8.71017 0.25328,0.72819 1.04974,0.85245 1.65267,1.19022 0.79722,-0.21252 1.62175,-0.50461 2.0332,-1.28125 1.58451,-2.73406 1.92757,-6.0029 3.49805,-8.74219 0.11369,-0.21987 0.0239,0.0951 0.0391,0.12891 z m -41.07031,-0.004 c 1.41425,2.3631 2.03796,5.09019 2.96658,7.66105 0.74046,2.22556 1.4806,4.45123 2.22092,6.67684 1.6868,-4.50761 3.23861,-9.06783 5.0166,-13.53994 0.21539,-0.57726 0.45972,-0.95292 0.26251,-0.12926 -0.54571,2.55404 -1.38817,5.03309 -2.1795,7.51881 -0.35925,1.03862 -0.78516,2.33213 -1.19948,3.45846 -0.55518,1.49948 -1.07203,3.02259 -1.79466,4.4517 -1.68221,-2.53747 -2.02672,-5.68795 -3.56836,-8.29102 -0.39063,-0.38599 -0.68993,-0.94707 -1.3255,-0.85243 -0.58116,-0.17481 -1.10429,-0.0676 -1.57141,0.32082 -1.10898,0.85522 -1.4548,2.34199 -1.9597,3.59452 -0.64883,1.82621 -1.14164,3.74177 -2.0887,5.43905 -0.44853,0.30176 -0.53433,-0.70971 -0.77278,-0.99077 -1.71254,-4.30973 -2.9783,-8.78922 -4.05242,-13.29658 -0.13247,-0.60575 -0.26352,-1.21276 -0.34473,-1.82789 1.4255,2.75376 1.78148,5.96549 3.42167,8.61534 0.41445,0.67465 1.173,0.86767 1.88107,1.08388 0.58368,-0.33849 1.40918,-0.40418 1.64258,-1.13476 1.41637,-2.731 1.71742,-5.92562 3.27291,-8.59645 0.0489,-0.002 0.11896,-0.2946 0.1724,-0.16137 z m -40.82813,0.3125 c 1.34285,2.70084 1.80372,5.77905 3.34542,8.38469 0.4016,0.64008 1.15602,0.81268 1.80302,1.11141 0.74944,-0.36193 1.55299,-0.71809 1.89063,-1.54102 1.32289,-2.55429 1.92512,-5.4105 3.24023,-7.9668 1.57312,2.90605 2.49894,6.10369 3.72472,9.16181 0.64905,1.72536 1.2981,3.45072 1.94716,5.17609 1.42496,-4.28449 2.68219,-8.62742 4.23632,-12.86719 0.21126,-0.50553 0.42567,-1.01345 0.71485,-1.48047 -0.89898,3.91804 -2.17584,7.73968 -3.39231,11.56814 -0.54137,1.54078 -0.9921,3.15008 -1.87527,4.53733 -1.16757,-1.70042 -1.56253,-3.78764 -2.27447,-5.69757 -0.50886,-1.27848 -0.80978,-2.78068 -1.8782,-3.71871 -0.52887,-0.22119 -1.04254,-0.68704 -1.61252,-0.31416 -1.51853,0.34384 -1.95284,2.06542 -2.4031,3.34644 -0.70977,2.16164 -1.36272,4.37109 -2.30632,6.43478 -0.65597,0.0991 -0.66905,-0.81776 -0.9375,-1.23828 -1.44004,-4.16415 -2.81215,-8.36124 -3.90441,-12.63165 -0.20321,-0.82546 -0.37506,-1.66174 -0.45301,-2.50898 0.0449,0.0814 0.0898,0.16276 0.13476,0.24414 z m -14.83398,16.11142 c 0.16093,3.24238 0.84647,6.75303 3.32227,9.0625 1.28213,1.36263 3.08991,2.04278 4.91601,2.25977 2.65266,0.39308 5.3527,0.36382 7.99414,0.84765 0.1874,0.71003 0.38661,1.67333 0.55772,2.53463 0.5149,2.87667 1.10815,5.72016 1.45986,8.60209 0.23331,0.88965 -0.6953,1.31351 -1.28661,1.7326 -4.32754,2.6483 -8.54659,5.47184 -12.68037,8.4099 -0.43858,0.12243 -1.01551,1.11226 -1.32306,0.40426 -5.7848,-7.69165 -10.50204,-16.32538 -12.86543,-25.70211 -0.39895,-1.52148 -0.720347,-2.98914 -1.020699,-4.46911 -0.357037,-1.86954 -0.766154,-3.73277 -0.995707,-5.62359 0.799067,-0.0792 1.565746,-0.10295 2.251956,-0.14453 3.10432,-0.12501 6.35786,-0.0711 9.54492,-0.0898 0.0417,0.72526 0.0833,1.45052 0.125,2.17578 z m 80.39844,12.54883 c -0.42228,2.08994 -0.74444,4.20354 -1.30274,6.26367 -3.38623,-0.5672 -6.67274,-1.62084 -10.07313,-2.12406 -10.55023,-1.82377 -21.40948,-1.18782 -31.84648,1.04031 -1.83827,0.37162 -3.67424,0.75486 -5.51398,1.11891 -0.10992,-0.57702 -0.24783,-1.21736 -0.31987,-1.64927 -0.22252,-1.25148 -0.37775,-2.29182 -0.56685,-3.56362 0.0979,-0.44003 -0.54326,-1.51051 0.17418,-1.42269 15.83766,-0.38347 31.68164,-0.35551 47.52267,-0.48245 0.69935,-0.004 1.39871,-0.009 2.09807,-0.0128 -0.0573,0.27734 -0.11458,0.55469 -0.17187,0.83203 z m -27.33985,17.33398 c 5.69569,0.0114 11.42723,0.19956 17.04313,1.21615 1.89759,0.40816 3.77797,0.92489 5.59164,1.61979 -1.60091,5.10725 -3.8022,10.02376 -6.41189,14.69312 -2.06047,3.46715 -4.81595,6.52603 -7.99357,9.00452 -2.56029,2.03077 -6.20725,2.69355 -9.23554,1.35126 -3.89016,-1.64399 -6.71675,-5.00156 -9.05655,-8.40288 -3.37209,-5.04432 -5.78002,-10.66912 -7.75558,-16.38625 -0.30207,-0.59957 0.84481,-0.4684 1.17335,-0.72678 5.14653,-1.50055 10.49259,-2.35788 15.8597,-2.35553 0.26177,-0.004 0.52353,-0.0103 0.78531,-0.0134 z m 35.88282,8.55078 c 2.88962,1.73395 5.70492,3.5956 8.41601,5.59766 -2.70227,2.4267 -5.91767,4.18928 -9.06289,5.96854 -2.00723,1.09496 -4.0408,2.14138 -6.09336,3.14865 2.20826,-4.38099 4.06304,-8.92551 6.0494,-13.40734 0.21896,-0.4236 0.42466,-0.96825 0.69084,-1.30751 z m -66.76758,-0.0137 c 2.01233,4.99863 4.39391,9.83836 6.64453,14.73243 -5.27003,-2.61965 -10.49317,-5.41438 -15.23828,-8.91528 -0.37337,-0.30756 0.59943,-0.60848 0.80078,-0.90308 2.48199,-1.80491 5.04818,-3.53365 7.79297,-4.91407 z" />
      <path
         id="path6356"
         style="fill:#ffffff;fill-opacity:1;stroke-width:2.10318"
         d="m 134.11633,166.65065 c -1.08785,1.12964 -1.92476,2.46098 -2.49604,3.92021 -0.4578,1.06088 -0.86905,2.1419 -1.23443,3.238 -0.81283,-2.17554 -1.5063,-4.45073 -2.81054,-6.39258 -1.1802,-1.44908 -3.6028,-1.53211 -4.83789,-0.10742 -1.28196,1.31003 -1.29487,3.33348 -0.73111,4.97443 1.40859,5.1096 2.98687,10.17676 4.77017,15.16814 0.47389,1.36264 1.78419,2.42316 3.26758,2.31836 1.4828,0.048 2.93716,-0.7592 3.56836,-2.12109 0.88561,-1.74505 1.38775,-3.65009 2.0332,-5.49023 0.77093,2.10833 1.25739,4.38597 2.54822,6.25628 1.18663,1.72299 4.02608,1.81265 5.27977,0.12165 1.45217,-1.90774 2.01646,-4.30705 2.85271,-6.51663 1.1746,-3.68863 2.59521,-7.33115 3.24243,-11.16138 0.26733,-1.51008 -0.0182,-3.39975 -1.51297,-4.17453 -1.52788,-0.85787 -3.5992,-0.31011 -4.5187,1.1808 -1.22681,1.85794 -1.81375,4.04214 -2.55552,6.11998 -0.77448,-2.15181 -1.50266,-4.39412 -2.88702,-6.24222 -0.81877,-0.9631 -1.6367,-1.92691 -2.45478,-2.89059 -0.50781,0.59961 -1.01562,1.19921 -1.52344,1.79882 z" />
      <path
         id="path6432"
         style="fill:#ffffff;fill-opacity:1;stroke-width:2.10318"
         d="m 155.05188,166.20729 c -1.60517,-0.0353 -2.92141,1.41968 -2.90625,2.99219 -0.003,2.63015 0.95664,5.13783 1.66285,7.63949 1.16109,3.53665 2.17731,7.1315 3.59374,10.57684 0.51185,1.32439 1.74557,2.50177 3.25318,2.34617 1.54222,0.0247 2.95152,-0.95276 3.56445,-2.35351 0.78874,-1.60805 1.31218,-3.32695 1.94141,-5 0.92063,2.23942 1.62522,4.70652 3.36068,6.4756 1.10425,1.16152 3.11619,1.16589 4.20182,-0.0264 1.24726,-1.28124 1.63482,-3.11406 2.30831,-4.71996 1.49308,-4.2882 2.97788,-8.59701 3.99051,-13.02809 0.28023,-1.48484 0.30408,-3.42249 -1.16259,-4.30812 -1.46935,-0.86932 -3.63116,-0.71772 -4.65772,0.7671 -1.31551,1.90548 -1.89568,4.19657 -2.74609,6.32617 -0.81925,-2.31469 -1.53691,-4.81838 -3.29462,-6.61813 -1.15207,-1.24014 -3.45086,-1.42243 -4.4964,0.0381 -1.32502,1.97493 -2.02248,4.28809 -2.79492,6.51757 -0.81466,-2.12085 -1.36345,-4.41512 -2.72501,-6.27103 -0.72536,-0.95137 -1.90916,-1.4355 -3.09335,-1.35397 z" />
      <path
         style="fill:#ffffff;fill-opacity:1;stroke-width:2.10318"
         d=""
         id="path6471" />
      <path
         id="path6510"
         style="fill:#ffffff;fill-opacity:1;stroke-width:2.10318"
         d="m 206.70227,166.21511 c -1.74954,0.15241 -2.60174,1.94395 -3.19682,3.37456 -0.60732,1.44424 -1.10826,2.93648 -1.63912,4.39302 -0.748,-2.23548 -1.36265,-4.63104 -2.90039,-6.47657 -0.99042,-1.2293 -2.92953,-1.52183 -4.16308,-0.4872 -1.72583,1.48219 -2.34942,3.78866 -3.11376,5.84537 -0.1712,0.30255 -0.32366,1.421 -0.50211,1.08338 -0.86099,-2.14169 -1.44981,-4.4551 -2.81766,-6.347 -1.06729,-1.42986 -3.44157,-1.86167 -4.81081,-0.64297 -1.19352,1.15186 -0.9266,2.98378 -0.77226,4.4742 1.15649,4.81999 2.66187,9.55077 4.17968,14.26758 0.46332,1.45174 0.98874,3.14023 2.52449,3.78388 1.91691,0.94751 4.24012,-0.28239 5.08345,-2.11982 0.80605,-1.6434 1.39587,-3.38273 1.98972,-5.11132 0.84184,2.15221 1.34964,4.51561 2.78906,6.37304 1.29104,1.56249 3.9805,1.49923 5.16406,-0.16015 1.43879,-1.97122 2.01878,-4.40274 2.84436,-6.66475 1.12771,-3.56404 2.4358,-7.08546 3.23963,-10.7415 0.36466,-1.49605 8.1e-4,-3.28727 -1.39453,-4.13086 -0.73416,-0.47979 -1.62042,-0.78626 -2.50391,-0.71289 z" />
    </g>
  </g>
</svg>
