<?xml version="1.0" encoding="UTF-8" standalone="no"?>
<!-- Created with Inkscape (http://www.inkscape.org/) -->

<svg
   version="1.1"
   id="svg870"
   width="512"
   height="512"
   viewBox="0 0 512 512"
   xmlns="http://www.w3.org/2000/svg"
   xmlns:svg="http://www.w3.org/2000/svg">
  <defs
     id="defs874" />
  <g
     id="g876">
    <path
       style="fill:#000000;stroke-width:2.09173"
       d="M 4.2679868,474.68572 V 443.39994 H 77.689826 151.11166 v 31.28578 31.28577 H 77.689826 4.2679868 Z m 167.8213432,0 v -31.28578 h 83.91066 83.91068 v 31.28578 31.28577 h -83.91068 -83.91066 z m 189.26737,0.52143 0.58052,-30.76435 72.8974,-0.54846 72.89739,-0.54846 v 31.31281 31.3128 H 434.2541 360.77617 Z M 4.2679868,391.25698 V 359.97121 H 35.73449 67.200992 v 31.28577 31.28578 H 35.73449 4.2679868 Z m 83.9106732,0 v -31.28577 h 83.91067 83.91066 v 31.28577 31.28578 H 172.08933 88.17866 Z m 188.799,0 v -31.28577 h 73.42184 73.42184 v 31.28577 31.28578 H 350.3995 276.97766 Z m 167.82135,0 v -31.28577 h 31.4665 31.4665 v 31.28577 31.28578 h -31.4665 -31.4665 z M 4.2679868,307.82825 V 276.54247 H 77.689826 151.11166 v 31.28578 31.28577 H 77.689826 4.2679868 Z m 167.8213432,0 v -31.28578 h 83.91066 83.91068 v 31.28578 31.28577 h -83.91068 -83.91066 z m 188.799,0 v -31.28578 h 73.42184 73.42184 v 31.28578 31.28577 H 434.31017 360.88833 Z M 89.39724,227.9347 C 70.236255,202.95764 68.076564,159.5352 84.656992,132.62791 90.098719,123.79688 102.67667,109.685 105.10606,109.685 c 0.96515,0 1.21449,4.53612 0.55407,10.08025 -2.22844,18.70769 8.8112,43.18757 22.84346,50.65428 5.83368,3.10415 6.34539,1.49682 2.46393,-7.73945 -6.27411,-14.92983 -3.26643,-33.13557 10.6502,-64.466529 17.63789,-39.70873 18.10052,-59.187204 1.94242,-81.783385 -3.84622,-5.378731 -6.77684,-9.9945622 -6.51248,-10.2574034 1.22141,-1.2143972 30.96574,5.5316664 40.79982,9.2534654 35.08771,13.279279 47.43454,29.001654 58.07955,73.95815 5.9822,25.264232 8.65975,31.356252 17.41912,39.632442 l 6.1118,5.77465 8.577,-6.17745 c 10.40838,-7.49649 19.68265,-20.60692 24.35001,-34.422024 6.86868,-20.330857 3.42828,-55.560895 -7.20862,-73.816921 l -4.0343,-6.924052 4.73557,1.345214 c 13.78868,3.916908 39.56193,18.191707 50.01084,27.69907 20.9998,19.107492 29.03525,40.043509 33.33234,86.846033 2.5139,27.38061 6.92076,40.45641 15.52366,46.06086 5.11268,3.33071 5.67532,3.28038 11.79992,-1.05568 8.71985,-6.17342 18.32133,-23.45995 21.28531,-38.32211 l 2.44232,-12.24639 3.78746,4.94637 c 13.65583,17.83428 18.1904,59.26781 8.71999,79.67662 -2.57081,5.54015 -7.60539,13.75266 -11.18797,18.25003 l -6.51376,8.17706 h -48.99685 -48.99682 l 3.00931,-5.73572 c 8.10705,-15.4519 0.24202,-44.17299 -15.48515,-56.54795 -7.00094,-5.5087 -21.56219,-12.80219 -25.55923,-12.80219 -0.88652,0 -0.24628,4.63166 1.42276,10.29258 4.17565,14.16269 0.96701,25.64308 -10.09365,36.11465 -13.33158,12.62154 -19.70814,9.764 -25.91856,-11.61494 -4.52786,-15.58687 -13.04855,-25.17091 -26.87034,-30.22363 -11.37556,-4.15849 -26.61996,-7.18672 -26.61996,-5.28793 0,0.60729 1.88799,3.49058 4.19553,6.4073 6.25847,7.91066 5.31885,18.75591 -3.14665,36.31897 -7.66897,15.91054 -8.80509,22.29244 -5.1706,29.04454 2.11704,3.93302 0.98715,4.03432 -44.99523,4.03432 H 94.685478 Z"
       id="path978" />
    <path
       style="fill:#ff8800;stroke:#000000;stroke-width:2.51002"
       d="M 5.1860006,307.7027 V 277.16292 H 77.790009 150.39402 v 30.53978 30.53979 H 77.790009 5.1860006 Z"
       id="path1115" />
    <path
       style="fill:#ff8800;stroke:#000000;stroke-width:2.51002"
       d="m 172.29047,307.7027 v -30.53978 h 83.55223 83.55223 v 30.53978 30.53979 H 255.8427 172.29047 Z"
       id="path1154" />
    <path
       style="fill:#ff8800;stroke:#000000;stroke-width:2.51002"
       d="m 361.29138,307.7027 v -30.53978 h 73.18023 73.18023 v 30.53978 30.53979 h -73.18023 -73.18023 z"
       id="path1193" />
    <path
       style="fill:#ff8800;stroke:#000000;stroke-width:2.51002"
       d="m 445.41983,391.25494 v -31.11601 h 31.11601 31.116 v 31.11601 31.116 h -31.116 -31.11601 z"
       id="path1232" />
    <path
       style="fill:#ff8800;stroke:#000000;stroke-width:2.51002"
       d="m 277.16292,391.25494 v -31.11601 h 73.18023 73.18023 v 31.11601 31.116 h -73.18023 -73.18023 z"
       id="path1271" />
    <path
       style="fill:#ff8800;stroke:#000000;stroke-width:2.51002"
       d="m 88.162011,391.25494 v -31.11601 h 83.552229 83.55224 v 31.11601 31.116 H 171.71424 88.162011 Z"
       id="path1310" />
    <path
       style="fill:#ff8800;stroke:#000000;stroke-width:2.51002"
       d="M 5.1860006,391.25494 V 360.13893 H 35.725782 66.265564 v 31.11601 31.116 H 35.725782 5.1860006 Z"
       id="path1349" />
    <path
       style="fill:#ff8800;stroke:#000000;stroke-width:2.51002"
       d="M 5.1860006,474.80717 V 444.26739 H 77.790009 150.39402 v 30.53978 30.53978 H 77.790009 5.1860006 Z"
       id="path1388" />
    <path
       style="fill:#ff8800;stroke:#000000;stroke-width:2.51002"
       d="m 172.29047,474.80717 v -30.53978 h 83.55223 83.55223 v 30.53978 30.53978 H 255.8427 172.29047 Z"
       id="path1427" />
    <path
       style="fill:#ff8800;stroke:#000000;stroke-width:2.51002"
       d="m 361.88827,475.6715 c 0.45772,-16.32149 1.07234,-29.93475 1.36582,-30.25167 0.29349,-0.31692 32.90304,-0.75756 72.46568,-0.9792 l 71.93207,-0.40297 v 30.65464 30.65465 h -73.29789 -73.29789 z"
       id="path1466" />
    <path
       style="fill:#ff1b00;stroke:#000000;stroke-width:2.51002;fill-opacity:1"
       d="m 90.40089,228.09468 c -5.765918,-7.80504 -10.681898,-18.10484 -13.433561,-28.14554 -1.555714,-5.67674 -2.043818,-11.6774 -2.01545,-24.77756 0.03442,-15.89341 0.296463,-18.02885 3.251307,-26.49517 4.270611,-12.23629 9.525132,-20.61993 19.294669,-30.78482 l 8.082285,-8.40935 -0.49456,8.44583 c -1.07027,18.2774 4.96585,36.06658 15.97268,47.0734 5.42851,5.42851 11.16104,8.5612 12.75302,6.96921 0.32812,-0.32812 -0.805,-5.09193 -2.51804,-10.58626 -5.27719,-16.92579 -3.13435,-29.16627 11.10357,-63.42663 11.45548,-27.565027 15.06787,-43.673611 12.6873,-56.575964 -1.45462,-7.883846 -7.22785,-20.450212 -13.16111,-28.647274 -2.27102,-3.1375092 -3.94538,-5.8883057 -3.7208,-6.1128815 0.70119,-0.7011882 27.33014,5.5317275 36.13327,8.4575485 13.83698,4.598876 26.00507,11.370201 34.18821,19.025128 13.12879,12.281329 18.45764,23.574367 27.70812,58.71969 6.0032,22.807923 8.57961,28.332063 17.1094,36.684663 l 6.32859,6.19712 6.92475,-5.32847 c 23.14697,-17.81119 32.88877,-42.750537 29.09483,-74.483788 -1.6316,-13.64702 -4.93071,-25.991146 -9.0274,-33.777363 -1.73106,-3.290087 -3.31831,-6.356169 -3.52722,-6.813517 -0.66688,-1.460023 11.56141,3.227949 21.68684,8.314101 16.1878,8.131369 27.07772,15.779532 36.05379,25.321147 16.55379,17.596784 22.4849,34.292684 27.37392,77.05687 3.6146,31.61689 6.78355,42.05317 14.76769,48.63437 4.82866,3.98018 7.45513,4.24364 12.37815,1.24162 9.72662,-5.93122 19.29681,-23.09481 23.3716,-41.91561 l 1.93727,-8.94796 4.29191,6.51719 c 9.04588,13.73601 14.00787,39.44261 11.47963,59.47256 -1.56698,12.41439 -6.00084,22.48464 -15.58655,35.40051 l -6.00895,8.0965 -48.11456,0.0143 c -26.46301,0.008 -48.11456,-0.17913 -48.11456,-0.41547 0,-0.23636 1.07754,-2.86571 2.39455,-5.843 6.64163,-15.01452 -0.3869,-41.84524 -14.21966,-54.28208 -5.86526,-5.27342 -22.52791,-14.35415 -26.33902,-14.35415 -2.71124,0 -2.78006,2.51773 -0.32621,11.93433 3.30794,12.69411 0.8175,21.7362 -8.9218,32.39254 -12.4911,13.66726 -19.07639,11.49226 -25.73426,-8.4995 -4.92887,-14.80003 -11.4612,-23.56534 -21.55879,-28.92834 -9.21091,-4.89205 -33.21616,-10.15911 -33.21616,-7.28803 0,0.41989 1.68545,3.3941 3.74544,6.60935 3.22134,5.02788 3.72933,6.8159 3.6302,12.77778 -0.11386,6.84724 -0.45301,7.88954 -10.18012,31.28263 -3.21277,7.72653 -3.88249,12.61932 -2.59945,18.99095 l 0.8374,4.15857 -6.07196,0.72929 c -3.33958,0.40112 -23.81765,0.73381 -45.50683,0.73932 l -39.434876,0.01 z"
       id="path1505" />
  </g>
</svg>
