<?xml version="1.0" encoding="UTF-8" standalone="no"?>
<!-- Created with Inkscape (http://www.inkscape.org/) -->

<svg
   version="1.1"
   id="svg870"
   width="512"
   height="512"
   viewBox="0 0 512 512"
   sodipodi:docname="flasm.svg"
   inkscape:version="1.1.2 (0a00cf5339, 2022-02-04)"
   xmlns:inkscape="http://www.inkscape.org/namespaces/inkscape"
   xmlns:sodipodi="http://sodipodi.sourceforge.net/DTD/sodipodi-0.dtd"
   xmlns="http://www.w3.org/2000/svg"
   xmlns:svg="http://www.w3.org/2000/svg">
  <defs
     id="defs874" />
  <sodipodi:namedview
     id="namedview872"
     pagecolor="#505050"
     bordercolor="#eeeeee"
     borderopacity="1"
     inkscape:pageshadow="0"
     inkscape:pageopacity="0"
     inkscape:pagecheckerboard="0"
     showgrid="false"
     inkscape:zoom="0.79019183"
     inkscape:cx="223.99624"
     inkscape:cy="219.56694"
     inkscape:window-width="1366"
     inkscape:window-height="695"
     inkscape:window-x="0"
     inkscape:window-y="24"
     inkscape:window-maximized="1"
     inkscape:current-layer="g876" />
  <g
     inkscape:groupmode="layer"
     inkscape:label="Image"
     id="g876">
    <g
       id="g14587"
       transform="matrix(0.98754327,0,0,-0.99150358,2.9873612,510.05776)">
      <path
         id="path13061"
         style="fill:#b8003a;fill-opacity:1;stroke-width:6.41616"
         d="m 482.75781,200.4707 c -5.08032,0.18853 -9.81642,2.32255 -14.29145,4.55767 -4.01519,2.21464 -7.04202,6.03254 -8.47007,10.37332 -2.13463,5.87538 -2.64218,12.16463 -3.20269,18.34284 -1.05754,13.68327 -1.12607,27.41688 -1.32123,41.13288 -0.25812,26.60136 -0.1622,53.20438 -0.19112,79.80657 0,21.87813 0,43.75625 0,65.63438 5.34921,5.13058 10.65903,10.52021 17.27539,14.02148 3.79113,1.99193 8.2064,2.97726 12.45898,2.16407 5.75542,-1.03579 10.62548,-4.55467 15.07513,-8.15402 2.57277,-2.08417 5.11305,-4.20755 7.68659,-6.2913 0,-68.15429 0,-136.30859 0,-204.46289 -4.5183,-4.30068 -8.71744,-8.95208 -13.54084,-12.92145 -3.26502,-2.52805 -7.27263,-4.37234 -11.47869,-4.20355 z" />
      <path
         id="path1339"
         style="fill:#ffe400;fill-opacity:1;stroke-width:6.41616"
         d="m 27.748047,66.787109 c -4.712222,0.07354 -9.372924,1.527725 -13.311192,4.11244 -3.304381,1.999653 -6.517844,4.144695 -9.8059956,6.170763 0.20541,51.922658 0.332444,103.845808 0.6809398,155.767768 0.1309416,14.48918 0.2194276,28.98451 0.8623111,43.46153 0.188534,2.73845 0.294288,5.53132 1.0778428,8.17695 1.3075456,3.5504 4.2369489,6.15817 7.1074009,8.47148 4.284089,3.31015 9.351365,5.87525 14.799231,6.39989 3.235738,0.26693 6.509421,-0.66038 9.183424,-2.48745 3.982764,-2.54286 7.196155,-6.05893 10.657813,-9.23194 1.875008,-1.78443 3.750501,-3.56836 5.625178,-5.35315 0.372243,-42.19304 0.875183,-84.38511 1.10606,-126.57927 0.05465,-15.96926 0.136526,-31.94791 -0.53883,-47.90607 -0.366105,-7.48881 -0.810157,-15.06612 -2.890375,-22.309217 -1.473301,-4.705182 -3.705416,-9.210956 -6.758886,-13.092161 -2.591923,-3.040462 -6.396981,-4.944851 -10.364996,-5.316743 -2.46166,-0.331657 -4.951666,-0.305873 -7.429926,-0.28482 z" />
      <path
         id="path4613"
         style="fill:#ffa700;fill-opacity:1;stroke-width:6.41616"
         d="m 94.541016,157.88477 c -5.911846,0.12754 -11.362586,3.08693 -15.797504,6.81481 -3.720206,3.209 -7.111461,6.77698 -10.653198,10.17281 -1.246874,1.4793 -1.131774,3.50403 -1.049771,5.31194 0.315628,50.72869 0.674355,101.45769 1.006557,152.1865 0.09974,14.87118 0.19784,29.74237 0.298603,44.61355 3.209064,3.36499 6.199974,7.03335 10.136852,9.59397 4.806162,3.43044 10.561645,5.91781 16.561887,5.71594 6.541878,-0.1763 12.723588,-3.62004 16.852038,-8.6107 4.00881,-4.6453 6.78297,-10.39789 7.60327,-16.50021 0.86609,-5.69183 1.15515,-11.4529 1.43159,-17.19801 0.4926,-12.47486 0.53687,-24.96242 0.64735,-37.44527 0.16132,-27.16725 -0.0219,-54.33717 -0.58373,-81.49912 -0.31206,-13.66819 -0.69154,-27.34094 -1.612,-40.98323 -0.42609,-5.50435 -0.98183,-11.07888 -2.78918,-16.32749 -1.40724,-3.85358 -3.90733,-7.26919 -7.09183,-9.84549 -4.14099,-3.55057 -9.39761,-6.16329 -14.960934,-6 z" />
      <path
         id="path5244"
         style="fill:#ff8000;fill-opacity:1;stroke-width:6.41616"
         d="m 158.35938,197.23633 c -5.05642,0.16267 -9.58366,2.89588 -13.36564,6.05503 -4.30535,3.65766 -8.26958,7.69039 -12.41952,11.51919 0.0691,47.23804 -0.0726,94.47898 0.62323,141.71338 0.24281,15.47811 0.56378,30.95659 1.27816,46.42014 0.31172,4.62258 0.3407,9.30642 1.38572,13.84109 0.76086,3.38637 2.69153,6.40093 5.16854,8.79477 2.75821,2.64242 5.94298,4.98457 9.63615,6.11148 6.37752,2.03236 13.49296,1.02371 19.31445,-2.17188 4.13126,-2.24367 7.79064,-5.49128 10.22206,-9.53445 2.21755,-4.33937 2.54026,-9.29541 3.05645,-14.05499 1.03987,-12.1401 1.12244,-24.33402 1.356,-36.50925 0.43486,-29.92551 0.34626,-59.85516 0.40113,-89.78294 0.0178,-21.60977 0.0376,-43.21954 0.0542,-64.82931 -4.8456,-4.41234 -9.34067,-9.23626 -14.57927,-13.19827 -3.51027,-2.56748 -7.69228,-4.52835 -12.13166,-4.37399 z" />
      <path
         id="path6208"
         style="fill:#ff4900;fill-opacity:1;stroke-width:6.41616"
         d="m 221.92578,209.77539 c -4.29377,0.0748 -8.06065,2.53159 -11.23592,5.2098 -4.7422,4.03458 -9.17704,8.4149 -13.74141,12.64264 -1.20762,1.32519 -1.15891,3.28192 -1.08807,4.88619 -0.004,30.66272 9.4e-4,61.32614 0.0367,91.9891 0.0568,21.03855 0.0333,42.07933 0.44278,63.11477 0.24504,9.56543 0.42409,19.14403 1.28127,28.67843 0.4497,4.22846 0.93208,8.49979 2.23172,12.56581 1.08275,3.35302 2.94499,6.44436 5.45289,8.92467 3.10993,3.32926 7.0754,5.91547 11.51471,7.04631 6.90605,1.95313 14.70933,0.54939 20.38429,-3.88561 6.17423,-4.68384 9.89126,-12.07028 11.08921,-19.62986 0.56898,-4.10796 0.48495,-8.26818 0.68884,-12.40259 0.58532,-18.82851 0.80933,-37.66755 1.07484,-56.50329 0.44755,-37.617 0.66641,-75.23619 1.00517,-112.85423 0.0245,-2.99314 0.0504,-5.98626 0.0739,-8.97941 -5.00838,-5.37956 -9.48037,-11.34051 -15.31055,-15.88867 -3.97566,-3.03281 -8.83539,-5.06536 -13.90039,-4.91406 z" />
      <path
         id="path7542"
         style="fill:#bf0027;fill-opacity:1;stroke-width:6.41616"
         d="m 288.89648,192.44727 c -5.97178,0.22093 -11.51642,2.88771 -16.52148,5.96093 -3.03164,1.93901 -6.03827,4.22975 -7.81108,7.43132 -1.33429,2.81707 -1.19722,6.0149 -1.44973,9.05064 -0.64407,12.07867 -0.66547,24.17883 -0.83266,36.27077 -0.38192,36.00864 -0.44132,72.01962 -0.62916,108.02957 -0.0793,17.98468 -0.15956,35.96935 -0.23831,53.95403 5.71905,4.49863 11.0415,9.65924 17.625,12.91797 9.14609,3.93835 20.56771,1.19879 27.11479,-6.25048 2.9095,-3.12503 4.84511,-7.19833 5.1213,-11.48379 0.79741,-7.2045 0.73284,-14.4654 0.89582,-21.70276 0.3332,-22.44368 0.32826,-44.89052 0.44718,-67.33596 0.0915,-26.22626 0.23055,-52.45589 -0.24802,-78.67933 -0.20185,-8.88883 -0.44973,-17.79798 -1.53935,-26.63009 -0.60245,-4.3892 -1.53516,-8.89753 -3.97743,-12.66786 -3.91076,-5.82248 -11.03751,-9.01861 -17.95687,-8.86496 z" />
      <path
         id="path11651"
         style="fill:#ff0034;fill-opacity:1;stroke-width:6.41616"
         d="m 352.47461,161.68945 c -4.7117,0.26768 -8.90726,2.71032 -12.84386,5.10253 -4.47423,2.81886 -8.42567,6.39782 -11.92401,10.34908 -0.84408,0.88094 -1.69452,1.84423 -2.14229,2.97847 0.0113,43.3122 -0.0594,86.62464 0.0993,129.93663 0.1048,19.41347 0.19385,38.82996 0.71472,58.23739 0.0956,4.04172 0.7303,8.08533 2.1483,11.88243 2.00725,5.60369 5.77658,10.66825 10.94588,13.71464 5.50292,3.39285 12.38943,4.88404 18.69525,3.08711 5.81904,-1.56726 10.73169,-5.41225 14.66636,-9.86639 2.01639,-2.24561 3.89871,-4.60642 5.85909,-6.9004 0,-67.30729 0,-134.61459 0,-201.92188 -4.97782,-4.53808 -9.45573,-9.69912 -15.09896,-13.45065 -3.29882,-2.08789 -7.19933,-3.29424 -11.11979,-3.14896 z" />
      <path
         id="path12393"
         style="fill:#ff0050;fill-opacity:1;stroke-width:6.41616"
         d="m 415.83008,162.99805 c -5.1685,0.0881 -10.39189,1.4191 -14.70941,4.32706 -3.15409,1.80157 -5.76186,4.68791 -6.81158,8.20756 -1.6409,4.76595 -1.81649,9.85869 -2.1805,14.84017 -0.70277,13.00388 -0.61799,26.0333 -0.70902,39.0517 -0.0855,30.61647 -0.0333,61.23313 -0.0578,91.84968 0.009,14.49486 -0.0264,28.99342 0.3736,43.48373 0.18966,5.51861 0.41275,11.07677 1.53053,16.49893 0.81211,3.6641 2.71058,7.237 5.89836,9.35479 2.08399,1.452 4.17293,2.9102 6.3611,4.20083 5.55994,3.03684 12.52615,3.91014 18.4374,1.3589 3.60314,-1.57933 6.43501,-4.40211 9.36459,-6.9454 3.81683,-3.4849 7.44412,-7.16955 11.17457,-10.74553 -0.0454,-40.41676 -0.008,-80.83387 -0.21045,-121.25025 -0.11796,-19.10006 -0.24301,-38.20285 -0.77265,-57.29646 -0.29316,-7.00506 -0.77375,-14.08913 -2.75276,-20.85029 -1.41442,-4.60005 -4.1411,-8.92951 -8.22119,-11.59804 -4.86656,-3.33276 -10.88199,-4.61257 -16.71482,-4.48738 z" />
    </g>
  </g>
</svg>
