<?xml version="1.0" encoding="UTF-8" standalone="no"?>
<!-- Created with Inkscape (http://www.inkscape.org/) -->

<svg
   version="1.1"
   id="svg870"
   width="512"
   height="512"
   viewBox="0 0 512 511.99999"
   sodipodi:docname="forbidden.svg"
   inkscape:version="1.2.2 (b0a8486541, 2022-12-01)"
   xmlns:inkscape="http://www.inkscape.org/namespaces/inkscape"
   xmlns:sodipodi="http://sodipodi.sourceforge.net/DTD/sodipodi-0.dtd"
   xmlns="http://www.w3.org/2000/svg"
   xmlns:svg="http://www.w3.org/2000/svg">
  <defs
     id="defs874" />
  <sodipodi:namedview
     id="namedview872"
     pagecolor="#505050"
     bordercolor="#eeeeee"
     borderopacity="1"
     inkscape:pageshadow="0"
     inkscape:pageopacity="0"
     inkscape:pagecheckerboard="0"
     showgrid="false"
     inkscape:zoom="0.74301865"
     inkscape:cx="285.99551"
     inkscape:cy="263.7888"
     inkscape:window-width="1366"
     inkscape:window-height="705"
     inkscape:window-x="0"
     inkscape:window-y="26"
     inkscape:window-maximized="1"
     inkscape:current-layer="g876"
     inkscape:showpageshadow="0"
     inkscape:deskcolor="#505050" />
  <g
     inkscape:groupmode="layer"
     inkscape:label="Image"
     id="g876">
    <g
       id="g999">
      <path
         id="path1070-3"
         style="fill:#00ff00;stroke-width:1.38752"
         d="m 164.39841,113.67537 c -25.02792,0.0691 -50.0638,-0.003 -75.080688,0.83626 -7.218145,0.28848 -14.507073,0.66249 -21.531421,2.4727 -5.547619,1.55637 -10.610182,5.1615 -13.422229,10.25104 -2.708064,4.50888 -4.520593,9.60595 -4.843196,14.87863 -0.749359,8.42921 -0.771981,16.90008 -0.965993,25.35484 -0.263073,17.06759 -0.27306,34.1378 -0.372079,51.20685 -0.133663,33.14902 -0.320258,66.30101 0.153758,99.44815 0.09738,4.68133 0.255039,9.36111 0.483729,14.03786 -13.897135,0.0541 -27.794272,0.10756 -41.6914056,0.16211 -0.1856295,9.48742 -0.6542303,18.95896 -0.8939839,28.46857 -0.1344669,6.99865 0.6306182,14.25851 3.9994525,20.51385 4.569656,8.53431 13.466449,14.63982 23.126845,15.60056 5.338103,0.62069 10.711326,0.59716 16.051536,0.79446 19.257165,0.49231 38.522421,0.4133 57.784105,0.50649 69.75573,0.16714 139.51172,0.11893 209.26759,0.123 38.02082,-0.0251 76.04237,0.0152 114.06229,-0.2803 13.80319,-0.13851 27.61248,-0.34551 41.395,-1.1506 5.04887,-0.38584 10.13922,-0.88323 15.01808,-2.30089 5.15523,-1.59809 9.85933,-4.93528 12.61067,-9.63561 2.76845,-4.26004 5.19028,-8.92864 5.76347,-14.04845 0.86106,-6.13383 0.28858,-12.36398 0.16029,-18.47981 -0.22154,-6.70377 -0.44637,-13.40743 -0.66566,-20.11127 -14.28125,-0.0575 -28.5625,-0.11456 -42.84375,-0.17188 0.78235,-21.55513 0.75378,-43.12955 0.90361,-64.69604 0.15263,-34.32267 0.13105,-68.64653 -0.11467,-102.96864 -0.11328,-8.51208 -0.25227,-17.04069 -1.10142,-25.5159 -0.85479,-5.91432 -3.28046,-11.70202 -7.33401,-16.13856 -3.19274,-3.37198 -7.56531,-5.36715 -12.04687,-6.3625 -5.62944,-1.30757 -11.4344,-1.46574 -17.17752,-1.84786 -11.53982,-0.58923 -23.09873,-0.59948 -34.6501,-0.75055 -33.08334,-0.28575 -66.1683,-0.17125 -99.25246,-0.20461 -42.26432,-0.004 -84.52864,6.5e-4 -126.79297,0.008 z" />
      <path
         id="path594"
         style="fill:#000000;stroke-width:4.82495"
         d="m 26.552713,354.49568 c -0.03381,3.00202 -0.0268,6.01368 0.435957,8.98825 0.533788,3.54383 1.060704,7.39733 3.549752,10.1693 2.133532,2.35824 5.328035,3.36948 8.373868,3.86743 6.789738,0.22583 13.587281,0.19466 20.380632,0.26241 54.132828,0.27895 108.266608,0.2848 162.400028,0.29235 62.47855,-0.0275 124.95724,-0.0582 187.4355,-0.26364 19.52196,-0.0985 39.04603,-0.12409 58.56467,-0.52792 3.31116,-0.1354 6.645,-0.0806 9.93186,-0.54794 1.40971,-0.39127 2.56274,-1.41964 3.58132,-2.43263 2.61548,-2.82769 3.27589,-6.80765 3.71485,-10.49446 0.37746,-3.76618 0.64877,-7.54272 0.98312,-11.31315 -58.58203,0 -117.16406,0 -175.74609,0 -0.0749,2.12785 0.12426,4.27801 -0.17501,6.39008 -0.20076,1.15395 -1.60652,1.23522 -2.51835,1.50445 -1.89467,0.3727 -3.84278,0.28702 -5.76367,0.39258 -14.53057,0.33038 -29.25239,0.3443 -43.85781,0.36906 -15.68972,-0.0282 -31.38234,-0.0173 -47.06797,-0.41593 -0.86888,-0.0299 -1.76912,-0.0591 -2.64878,-0.11136 -1.84731,-0.15577 -3.73468,-0.25467 -5.51919,-0.78122 -0.517,-0.35653 -0.48802,-1.16036 -0.721,-1.69918 -0.5204,-1.87967 -1.01647,-3.76609 -1.52705,-5.64848 -57.93554,0 -115.87109,0 -173.806637,0 0,0.66667 0,1.33334 0,2 z" />
      <rect
         style="fill:#000000;stroke-width:5.07"
         id="rect471"
         width="333.0896"
         height="184.77782"
         x="90.209946"
         y="152.49904" />
      <path
         id="path1070"
         style="fill:#000000;stroke-width:1.38752"
         d="m 255.9934,128.98117 c -197.184392,2.8e-4 -184.420744,-0.56512 -189.697746,8.39941 -2.355243,4.00107 -2.57062,11.41012 -2.902769,99.66819 -0.246891,65.60303 0.120377,96.17794 1.17745,98.01173 4.608919,7.99535 4.933937,2.51767 5.660679,-95.20449 0.763183,-102.62238 0.684254,-101.5388 7.558716,-103.64665 4.87448,-1.49462 347.81945,-1.76628 354.35515,-0.28073 9.93208,2.25754 9.6109,-1.25834 9.6109,105.25292 0,93.63586 0.26888,99.34211 4.48323,95.42944 0.81568,-0.75728 1.38024,-39.72076 1.42074,-98.29245 0.0614,-86.17707 -0.18716,-97.49807 -2.22118,-101.14989 -4.85409,-8.71481 7.29713,-8.18775 -189.44517,-8.18748 z m -170.641241,19.40528 -0.373293,92.91781 c -0.204991,51.10446 -0.06243,93.66997 0.31572,94.58911 0.785013,1.90806 1.123272,1.9759 4.25851,0.85891 2.046102,-0.72896 2.278757,-10.04515 2.278757,-91.5811 V 154.40251 H 255.9934 420.1568 v 90.76867 c 0,83.49621 0.19103,90.83894 2.39948,91.62572 1.32045,0.47046 2.94538,0.34969 3.61035,-0.26772 0.66511,-0.61739 1.04286,-43.20155 0.83945,-94.63188 l -0.36959,-93.51085 H 255.9934 Z m 150.704431,27.64853 c -6.19883,0.0652 -10.49163,0.20613 -11.38264,0.40901 l -3.24078,0.73806 v 37.85498 c 0,20.81995 0.43215,38.2553 0.96016,38.7455 0.528,0.49021 15.7445,0.89051 33.81365,0.89051 h 32.85347 l 0.79116,-3.00803 c 0.43557,-1.65445 0.61054,-19.25075 0.38815,-39.1043 l -0.40486,-36.09813 -30.96101,-0.3774 c -8.51412,-0.10396 -16.61846,-0.1154 -22.8173,-0.0502 z m -94.26108,0.0837 c -2.05607,0.65938 -2.44219,7.16693 -2.44219,25.71321 0,18.42296 0.44844,24.69366 1.79961,25.14432 4.67173,1.55817 5.39882,-1.82863 5.39882,-25.11086 0,-18.56638 -0.40908,-23.38473 -2.09675,-24.68513 -1.10369,-0.85041 -1.97413,-1.28133 -2.65949,-1.06154 z m 197.00018,0.34394 c -32.16045,0 -33.12092,0.077 -33.12092,2.67338 0,2.57636 1.08948,2.68772 29.88014,3.03591 28.24799,0.34162 29.88014,0.49955 29.88014,2.89834 0,1.39557 0.40691,3.51918 0.90259,4.71839 0.49565,1.19921 1.95254,1.99242 3.23891,1.76243 1.8195,-0.32534 2.34005,-2.04814 2.34005,-7.75431 v -7.33417 z m -102.08908,6.20753 c 4.54255,-0.025 10.73336,0.0107 17.47604,0.11155 l 24.51847,0.36623 -14.23527,16.71145 c -13.79942,16.2009 -15.9513,20.25031 -11.21551,21.09707 1.96444,0.35122 8.05637,-6.19451 28.25883,-30.36282 1.39447,-1.66824 1.76318,4.00181 1.7996,27.64853 l 0.0464,29.74745 h -25.32448 -25.32263 l 5.88354,-6.86008 c 3.23542,-3.77262 5.88169,-7.98411 5.88169,-9.3587 -1e-5,-4.50393 -5.06722,-2.69273 -10.17177,3.63454 l -4.94753,6.13131 -0.38814,-29.05587 c -0.21375,-15.98136 -0.1448,-29.284 0.15414,-29.56154 0.14948,-0.13877 3.04402,-0.2241 7.58658,-0.24912 z m 132.3295,16.51996 c -2.41196,0 -2.95242,1.027 -3.31877,6.31722 l -0.43644,6.31722 -22.60371,0.3681 c -21.51081,0.35005 -22.60186,0.4968 -22.60186,3.04149 0,2.54512 1.09174,2.69104 22.67986,3.04149 l 22.67986,0.36809 v 17.12417 c 0,9.41788 0.45491,17.54552 1.0103,18.06116 0.55539,0.5158 2.01414,0.75848 3.24078,0.53913 1.92708,-0.34456 2.23047,-4.1219 2.23047,-27.78796 0,-26.49763 -0.0941,-27.39011 -2.88049,-27.39011 z m -189.72374,15.61643 c -3.1328,0.41308 -3.25282,0.96896 -3.64378,16.80441 l -0.40487,16.37866 h -14.2687 -14.2687 l -0.44757,-5.01399 c -0.36216,-4.06259 -1.0736,-5.09577 -3.75708,-5.44902 -3.19319,-0.42035 -3.2966,-0.13505 -2.88048,8.02016 l 0.43086,8.45889 17.64134,0.37555 17.63948,0.37554 v 7.08874 c 0,3.89906 0.43214,7.48906 0.96015,7.97926 0.52801,0.49021 2.14719,0.89237 3.59922,0.89237 2.26473,0 2.6409,-1.13328 2.6409,-7.96811 v -7.9681 l 11.88038,-0.38669 c 10.78074,-0.35236 11.88037,-0.63736 11.88037,-3.06379 0,-2.42643 -1.09963,-2.70958 -11.88037,-3.06194 l -11.88038,-0.3867 v -16.75234 c 0,-16.60632 -0.0286,-16.74644 -3.24077,-16.3229 z m 136.80345,33.42476 c -10.31418,0.2075 -11.92915,1.32077 -10.66391,4.38189 0.76281,1.84556 3.90751,2.0798 23.59173,1.76057 21.61917,-0.35061 22.71143,-0.49621 22.71143,-3.04149 0,-2.54229 -1.09351,-2.69313 -22.20999,-3.0452 -5.58667,-0.0932 -9.99119,-0.12494 -13.42926,-0.0558 z m -45.45628,29.41281 c -2.62578,-0.23401 -5.66537,0.26133 -6.75456,1.10059 -2.8459,2.19281 -1.00772,5.34119 3.1182,5.34119 3.34311,0 3.49987,0.35611 3.08663,7.01996 l -0.43644,7.01809 H 255.9934 242.31342 l -0.43457,-7.01809 -0.43458,-7.01996 h 7.12042 c 4.83946,0 7.37389,-0.61104 7.90972,-1.90744 1.36985,-3.31423 -2.76418,-4.93331 -11.51822,-4.51203 l -8.40187,0.40343 -0.39744,22.00801 c -0.21842,12.10451 -0.0819,22.77412 0.30457,23.7091 0.95431,2.30886 5.10756,0.66178 5.23168,-2.07476 0.0548,-1.20813 0.21714,-5.50595 0.36029,-9.55019 l 0.26,-7.35274 5.76097,-0.37554 c 5.63049,-0.36664 5.96371,-0.13486 14.811,10.30128 6.05614,7.14373 9.74844,10.42854 11.15978,9.92572 3.48481,-1.24152 2.39324,-4.77724 -3.65121,-11.82944 -3.15121,-3.67659 -5.73569,-7.1359 -5.74426,-7.68739 -0.009,-0.55148 2.59954,-1.0039 5.79626,-1.0039 h 5.81297 l -0.41229,-13.03415 -0.4123,-13.036 z m 82.73728,0.0502 c -12.42551,-0.25179 -19.17936,0.13313 -20.52182,1.16752 -2.03347,1.56682 -2.71682,9.95552 -1.12545,13.80567 0.48073,1.16312 2.09992,2.1138 3.59921,2.1138 2.2203,0 2.72634,-0.99104 2.72634,-5.34677 v -5.34863 h 13.67997 13.67998 v 7.41781 7.41594 l -15.70987,-0.21751 c -8.64075,-0.11914 -16.41767,0.18875 -17.28104,0.68415 -2.10918,1.21028 -2.06879,22.4722 0.0464,24.436 3.54311,3.28948 5.45936,0.21349 5.88354,-9.44236 l 0.42158,-9.57065 h 5.63839 c 5.26734,0 6.22317,0.65931 14.52128,10.02613 4.88565,5.51487 9.79124,10.02798 10.90163,10.02798 4.32642,0 2.80195,-5.05162 -3.75335,-12.43181 l -6.77128,-7.6223 6.70256,-0.409 6.70255,-0.41087 -0.41043,-12.95977 -0.41229,-12.95978 z m -49.99338,0.002 c -18.23385,0.35342 -19.32951,0.5246 -19.32951,3.04706 0,2.5008 1.09577,2.69849 16.92075,3.05078 l 16.92075,0.37739 v 17.33797 17.33796 h -13.63355 -13.63354 l -0.40672,-15.04198 c -0.37962,-14.02325 -0.60195,-15.04011 -3.2872,-15.04011 -2.71057,0 -2.90429,1.01764 -3.28535,17.27661 -0.30286,12.92285 0.0611,17.5493 1.44116,18.36233 3.02596,1.78269 36.2891,1.3673 38.27645,-0.47779 1.99644,-1.85352 2.4571,-42.05126 0.51443,-44.89354 -0.87739,-1.28372 -6.00129,-1.61769 -20.49767,-1.33668 z m -163.33139,0.37368 -0.39557,22.62895 c -0.30113,17.20808 0.0431,22.88644 1.43931,23.7091 1.00978,0.59497 9.69463,1.09159 19.29979,1.10244 13.55353,0.0159 17.85444,-0.4151 19.20508,-1.92603 3.38856,-3.79069 0.0723,-4.73698 -16.59203,-4.73698 H 146.55175 V 301.51508 284.1827 l 14.04026,-0.38111 c 12.9428,-0.35274 14.04028,-0.59334 14.04028,-3.05822 0,-2.52531 -0.95897,-2.67338 -17.27919,-2.67338 z m 47.52148,0 v 12.70135 12.70138 l 8.99246,0.39784 8.99431,0.39785 8.28116,9.62828 c 4.55451,5.29604 8.87261,10.02418 9.59603,10.50763 1.90134,1.27064 5.17596,-0.18728 5.17596,-2.30529 0,-0.99568 -2.91564,-5.13449 -6.47969,-9.19697 -3.56404,-4.06244 -6.47969,-7.696 -6.47969,-8.07406 0,-0.37807 2.93897,-0.68786 6.53169,-0.68786 h 6.5317 l -0.4123,-13.03415 -0.41229,-13.036 H 207.7532 Z m 6.47969,6.01604 h 13.67998 13.67997 v 7.29325 7.29138 H 207.7532 194.07322 v -7.29138 z m -36.55112,14.94902 c -5.89067,-0.44834 -9.10013,1.16831 -7.39899,3.72378 1.54521,2.32122 12.98909,1.18275 12.98909,-1.29208 0,-1.36511 -1.78504,-2.14209 -5.5901,-2.4317 z m 33.73007,8.10753 c -0.64348,0.024 -1.40218,0.37955 -2.28247,1.05782 -2.51116,1.9349 -2.86434,13.40929 -0.48101,15.62202 3.45119,3.20413 5.58453,0.25779 5.58453,-7.7134 0,-6.12771 -0.89063,-9.0385 -2.82105,-8.96644 z m -78.70164,40.1045 -90.559717,0.34392 -0.417865,10.99286 c -0.483194,12.71946 1.525102,17.71657 8.767737,21.81653 4.519183,2.55822 8.952126,2.60819 224.620125,2.6139 242.17126,0.006 227.02322,0.54464 232.8697,-8.26927 2.45438,-3.70019 2.87076,-6.28785 2.54991,-15.78934 l -0.38258,-11.36468 -90.56158,-0.34392 c -65.69352,-0.2498 -91.09859,0.0698 -92.5209,1.16565 -1.07839,0.83093 -1.96118,3.24201 -1.96118,5.35792 v 3.84834 H 255.9934 207.03262 v -3.84834 c -1e-5,-2.11591 -0.88094,-4.52699 -1.95933,-5.35792 -1.42231,-1.09596 -26.82924,-1.41545 -92.52276,-1.16565 z m -84.080022,6.35998 h 85.680912 85.68277 v 3.17905 c 0,1.74824 0.84499,3.83022 1.87946,4.6273 2.8168,2.17038 105.54201,2.32549 108.34778,0.1636 1.1515,-0.88725 2.09304,-3.04266 2.09304,-4.7909 v -3.17905 h 85.68091 85.68277 v 7.44197 c 0,8.37181 -1.48173,11.79049 -6.15469,14.21467 -2.51459,1.30449 -49.22376,1.69074 -216.32968,1.78846 -117.21762,0.0685 -216.289711,-0.25174 -220.161037,-0.71204 -9.590582,-1.14032 -12.402235,-4.50902 -12.402235,-14.85978 z" />
      <path
         id="path1387"
         style="fill:#00ff00;stroke-width:3.68492"
         d="m 138.95041,278.12891 c -0.33436,12.20004 -0.99563,24.39914 -0.74566,36.6072 0.0185,2.48436 0.20782,4.96431 0.66887,7.40768 0.18093,1.16419 0.36185,2.32838 0.54295,3.49255 3.46174,0.43606 6.91274,1.0292 10.41041,1.07217 7.28012,0.2131 14.57584,0.2215 21.84733,-0.22681 2.82991,-0.25144 5.76672,-0.39228 8.3996,-1.55925 1.50679,-0.64691 2.65503,-2.34905 2.13787,-4.00601 -0.53887,-1.76169 -2.51882,-2.32261 -4.13434,-2.60682 -4.67748,-0.71995 -9.4248,-0.76528 -14.14481,-0.95861 -5.32887,-0.18119 -10.65984,-0.32743 -15.98977,-0.49334 0,-10.44814 0,-20.89627 0,-31.34442 6.94444,-0.11226 13.91725,0.0771 20.82978,-0.71268 2.11263,-0.32721 4.45975,-0.54618 6.12158,-2.03577 1.35437,-1.22274 1.19139,-3.62092 -0.34307,-4.62341 -1.86995,-1.2185 -4.19743,-1.27331 -6.34899,-1.50058 -7.48498,-0.49121 -14.99296,-0.29852 -22.48902,-0.35086 -2.23505,-0.002 -4.4701,-0.003 -6.70516,-0.006 -0.0192,0.61474 -0.0384,1.22949 -0.0576,1.84423 z" />
      <path
         id="path1426"
         style="fill:#00ff00;stroke-width:3.68492"
         d="m 154.64542,297.70336 c -1.61777,0.10073 -3.39633,0.0168 -4.8138,0.9184 -1.38674,1.04636 -1.26688,3.13852 -0.56829,4.55851 0.99526,1.71038 3.17078,2.07765 4.97881,2.23895 2.58176,0.13299 5.334,-0.0812 7.60727,-1.41908 1.04834,-0.73511 2.35248,-1.55519 2.40839,-2.98066 -0.0463,-1.05434 -0.85673,-1.87198 -1.81056,-2.22601 -2.42323,-1.11043 -5.1902,-1.06833 -7.80182,-1.09011 z" />
      <path
         id="path1465"
         style="fill:#00ff00;stroke-width:3.68492"
         d="m 185.71416,278.2293 c 0.18149,8.90692 0.35983,17.8139 0.54044,26.72083 6.13548,0.18257 12.271,0.36415 18.40649,0.54658 5.21303,5.80475 10.21331,11.80942 15.7236,17.33872 1.30879,1.19365 2.48524,2.64976 4.13521,3.37909 1.70178,0.32871 3.39891,-0.71793 4.44422,-2.00039 1.09761,-1.519 0.37551,-3.50197 -0.43553,-4.97427 -2.07793,-3.6806 -4.9063,-6.86182 -7.65682,-10.04509 -0.88369,-0.9939 -1.77614,-1.99019 -2.48614,-3.11987 3.47995,-0.59303 7.02838,-0.49308 10.54191,-0.71665 0.58729,-0.0257 1.1746,-0.0515 1.7619,-0.0772 -0.46929,-6.80347 -1.03511,-13.6027 -1.25917,-20.42035 -0.0657,-1.85174 -0.0396,-3.89708 -0.0446,-5.82344 0,-0.91691 0,-1.83383 0,-2.75073 -14.57018,0 -29.14036,0 -43.71055,0 0.013,0.64759 0.0261,1.29517 0.039,1.94276 z m 22.31399,7.30068 c 4.04122,0 8.08244,0 12.12366,0 0,3.86384 0,7.72766 0,11.59148 -8.08305,10e-6 -16.16612,0 -24.24918,0 0,-3.86382 0,-7.72764 0,-11.59148 4.04184,0 8.08369,0 12.12552,0 z" />
      <path
         id="path1504"
         style="fill:#00ff00;stroke-width:3.68492"
         d="m 190.78611,306.27939 c -2.0933,0.0321 -3.7108,1.91306 -4.23251,3.81487 -0.85103,3.27815 -0.89151,6.72255 -0.61813,10.08158 0.20863,1.82099 0.48773,3.9402 2.13322,5.05503 1.30435,1.13788 3.42259,1.4339 4.78755,0.23673 1.4502,-1.17844 1.69584,-3.21054 2.09035,-4.8292 0.33189,-1.33646 0.79343,-2.66597 0.65449,-4.06622 -0.14872,-2.78785 -0.28021,-5.72829 -1.65591,-8.22733 -0.64865,-1.13515 -1.80077,-2.07349 -3.15906,-2.06546 z" />
      <path
         id="path1543"
         style="fill:#00ff00;stroke-width:3.68492"
         d="m 234.63037,278.02108 c 0.0414,12.92122 -0.11901,25.84528 0.18014,38.76409 0.11305,2.43618 0.0569,4.89537 0.4253,7.30998 0.28026,1.21741 1.55809,1.95224 2.71343,2.16385 1.80255,0.21454 3.45723,-1.08043 4.04856,-2.73274 1.05678,-2.81549 1.15063,-5.87055 1.42244,-8.83538 0.20005,-2.76636 0.38281,-5.53464 0.57588,-8.3018 2.65082,-0.30242 5.3309,-0.73412 8.00072,-0.42573 2.4367,1.80816 4.5362,4.02683 6.69801,6.14665 4.41345,4.47036 8.53028,9.25088 13.26364,13.39338 0.79594,0.78752 2.02768,1.03161 3.03348,0.51433 1.87191,-0.87051 2.34832,-3.23543 2.02716,-5.10172 -0.3735,-2.52989 -2.20242,-4.45931 -3.62792,-6.46606 -2.14242,-2.88086 -4.64932,-5.52468 -6.56109,-8.55351 1.18595,-0.33736 2.50159,-0.38633 3.61415,-0.4257 2.30016,-0.0288 4.60084,-0.006 6.90119,-0.013 0,-9.72371 0,-19.44742 0,-29.17113 -3.13924,0.0572 -6.28961,-0.13444 -9.42072,0.14082 -2.18828,0.26029 -4.66298,0.71673 -6.11457,2.54186 -1.06193,1.36537 -0.72161,3.3821 0.45644,4.56146 1.45881,1.50227 3.6355,2.01685 5.66668,2.03835 0.83064,0.0354 0.80576,1.09242 0.89467,1.69732 0.17648,2.99923 -0.39344,5.97472 -0.68481,8.94973 -8.09173,0 -16.18345,0 -24.27518,0 -0.50789,-3.53905 -0.94868,-7.10429 -0.90815,-10.6861 4.14167,-0.06 8.443,0.31074 12.40458,-1.15203 1.52773,-0.54587 3.03989,-1.92209 2.82577,-3.68522 -0.17487,-1.67932 -1.64055,-2.95703 -3.24189,-3.27947 -3.55075,-0.85842 -7.23497,-0.87716 -10.8662,-1.03599 -3.15057,-0.10898 -6.30119,-0.21634 -9.45171,-0.32683 0,0.65688 0,1.31375 0,1.97064 z" />
      <path
         id="path1582"
         style="fill:#00ff00;stroke-width:3.68492"
         d="m 308.99178,276.3702 c -6.74696,0.1235 -13.50763,0.11766 -20.23552,0.68536 -1.62936,0.22758 -3.4714,0.2303 -4.79924,1.3299 -1.05166,0.93374 -1.75278,2.54999 -0.96697,3.86129 1.00464,1.59537 3.0634,1.85127 4.76763,2.14133 5.75163,0.73954 11.56311,0.77298 17.35023,0.99967 3.6551,0.11806 7.3102,0.23611 10.96529,0.35417 0,10.43575 0,20.87149 0,31.30723 -8.08615,0 -16.1723,0 -24.25846,0 -0.0912,-7.1821 0.12253,-14.38189 -0.48394,-21.54644 -0.27391,-2.29568 -0.44207,-4.76607 -1.78367,-6.73046 -0.99359,-1.47494 -3.15495,-1.91038 -4.63181,-0.91281 -1.34437,0.76577 -1.91928,2.33236 -1.97886,3.81191 -0.47934,6.10684 -0.44094,12.24109 -0.44337,18.36303 0.0671,4.35204 0.0191,8.72117 0.48796,13.05302 0.0518,1.08406 0.74516,2.03851 1.7597,2.4188 3.45475,1.5232 7.31136,1.23637 10.99301,1.32368 7.81523,-0.0146 15.63618,-0.14379 23.43591,-0.65459 1.61201,-0.15115 3.50145,-0.0929 4.66096,-1.43132 1.51322,-1.77885 1.64845,-4.24608 1.90781,-6.46415 0.53912,-6.8389 0.41361,-13.70782 0.46176,-20.56232 -0.0466,-4.99267 0.0815,-9.99923 -0.35638,-14.97803 -0.18291,-1.9185 -0.68436,-4.09299 -2.45579,-5.16257 -1.94638,-1.16211 -4.31782,-1.06589 -6.50741,-1.19091 -2.62897,-0.0789 -5.25933,-0.0306 -7.88884,-0.0158 z" />
      <path
         id="path1621"
         style="fill:#00ff00;stroke-width:3.68492"
         d="m 347.53566,276.29584 c -3.90508,0.0777 -7.8394,-0.0817 -11.71542,0.48063 -2.2626,0.26741 -4.31401,1.79728 -5.12919,3.9403 -1.16957,2.96674 -1.34088,6.26937 -0.89675,9.40461 0.27588,1.90873 1.02656,3.8643 2.63856,5.03152 1.26287,1.12811 3.23189,1.82942 4.78246,0.85683 1.79717,-1.1325 2.21306,-3.43755 2.42769,-5.39447 0.1826,-1.68857 0.13556,-3.38976 0.14264,-5.08528 8.08306,0 16.16612,0 24.24918,0 0,3.86384 0,7.72766 0,11.59148 -8.15134,0.0372 -16.30566,-0.0955 -24.45475,0.12613 -2.34781,0.14903 -4.82767,0.0817 -6.99285,1.13063 -1.90595,1.02805 -2.4937,3.31189 -2.68499,5.31358 -0.34916,3.89153 -0.28941,7.81171 -0.14399,11.71259 0.15934,2.41866 0.20468,4.88617 0.86038,7.23322 0.61658,1.84271 2.20244,3.68754 4.30121,3.58992 2.10004,-0.0937 3.53789,-2.13092 3.78473,-4.0783 0.90231,-5.10315 1.04534,-10.29815 1.42095,-15.45712 2.60384,-0.19483 5.24695,-0.41948 7.83729,0.0261 1.24595,0.7554 2.46628,1.88244 3.47106,2.74403 5.70301,5.02004 10.56586,10.93053 16.44856,15.75216 0.88902,0.76559 2.13092,1.44526 3.2951,0.86633 1.8613,-0.83604 2.37148,-3.2138 1.95004,-5.05118 -0.73924,-2.78934 -2.65788,-5.04737 -4.36094,-7.30491 -2.02575,-2.57442 -4.16586,-5.05538 -6.2844,-7.55301 3.89641,-0.36442 7.79273,-0.72985 11.68908,-1.095 0.0242,-4.46337 0.0147,-8.92826 -0.26889,-13.38454 -0.26783,-5.14 -0.68928,-10.27036 -1.03671,-15.40548 -8.44335,0.003 -16.88672,-0.009 -25.33005,0.01 z" />
      <path
         id="path1905"
         style="fill:#ff0000;stroke-width:2.60563"
         d="m 142.21904,174.72022 c -1.6789,0.0126 -2.81818,1.55772 -3.16649,3.06565 -0.83831,3.48693 -0.8291,7.10451 -1.00671,10.66828 -0.27435,9.94269 -0.48358,19.90503 0.0756,29.84193 0.22502,2.7579 0.32763,5.5782 1.18373,8.2298 0.44724,1.49367 1.97347,2.42645 3.46921,2.53581 1.79484,-0.01 2.85575,-1.69332 3.65678,-3.07308 0.99853,-2.17159 0.86084,-4.63727 1.00616,-6.97045 0.18868,-9.29629 0.11394,-18.59589 0.10387,-27.89358 -0.064,-3.77171 0.0532,-7.56256 -0.38267,-11.31543 -0.1328,-1.64025 -1.01868,-3.14668 -2.36539,-4.08501 -0.74396,-0.5496 -1.62017,-1.04932 -2.57405,-1.00392 z" />
      <path
         id="path1981"
         style="fill:#ff0000;stroke-width:2.60563"
         d="m 179.96619,213.28166 c -2.0448,0.0334 -4.35609,1.19606 -4.87509,3.31292 -0.54008,4.09301 -0.63305,8.23049 -0.85347,12.34988 -0.23065,5.76324 -0.42883,11.52779 -0.64528,17.2916 -4.16082,0.30808 -8.34064,0.17591 -12.50995,0.21937 -4.03521,-0.0492 -8.08391,0.13364 -12.10826,-0.22317 -0.4003,-0.12089 -1.23923,0.0298 -1.08783,-0.62153 0.0525,-2.59247 -0.0774,-5.43324 -1.7876,-7.53743 -1.18614,-1.46786 -3.13756,-2.3751 -5.0274,-2.19987 -1.73747,0.18804 -2.77246,1.91802 -2.93296,3.52656 -0.41826,3.28536 -0.0304,6.6063 0.15334,9.89618 0.19295,1.64149 0.14454,3.34758 0.64015,4.93215 0.17587,0.61987 0.53582,1.0257 1.20159,1.07642 1.75606,0.34711 3.57566,0.26894 5.35979,0.3883 9.26952,0.32818 18.54552,0.43147 27.8187,0.62119 0.34345,4.32059 0.37338,8.70649 1.39288,12.93934 0.41774,1.85723 2.45538,2.6655 4.17518,2.74541 1.70821,0.12606 3.85726,-0.35429 4.55542,-2.1189 0.60535,-2.45468 0.66991,-5.00718 0.85155,-7.51981 0.11092,-2.02437 0.19868,-4.05058 0.2999,-6.07578 5.61664,-0.24118 11.24623,-0.28086 16.84998,-0.7559 1.97618,-0.25924 4.25607,-0.36776 5.7203,-1.90262 1.34175,-1.45443 1.14083,-4.12225 -0.64053,-5.14218 -1.91562,-1.11793 -4.21599,-1.17781 -6.36676,-1.41701 -5.22281,-0.39929 -10.46301,-0.49927 -15.69485,-0.73405 -0.1662,-8.81219 -0.12688,-17.63137 -0.55159,-26.43639 -0.18978,-1.74192 -0.0653,-3.6108 -0.86543,-5.21663 -0.66925,-0.98346 -1.9178,-1.42384 -3.07178,-1.39805 z" />
      <path
         id="path2020"
         style="fill:#ff0000;stroke-width:2.60563"
         d="m 245.29058,174.73323 c -7.147,0.0682 -14.299,0.0281 -21.44069,0.33335 -1.51558,0.1603 -2.99376,0.5739 -4.49295,0.84346 0.2956,22.35718 0.43988,44.71697 0.92858,67.07114 0.10453,3.15646 0.0851,6.32397 0.37145,9.46985 0.51414,1.8616 2.34262,3.30162 4.29881,3.18152 11.02179,0.26193 22.04843,0.24818 33.07281,0.30995 8.8001,-0.006 17.60292,0.10916 26.40103,-0.10858 1.79471,-0.13455 3.71481,0.01 5.36823,-0.81176 1.05292,-0.54862 1.40305,-1.78013 1.36417,-2.89206 0.28686,-8.65964 0.26964,-17.32714 0.32765,-25.9909 0.0395,-14.85038 0.09,-29.70225 -0.13337,-44.55144 -0.073,-1.70365 0.0317,-3.43923 -0.26957,-5.11813 -0.13274,-0.60187 -0.32796,-1.14329 -1.0219,-1.20573 -1.28233,-0.43205 -2.68338,-0.25403 -4.01803,-0.3565 -13.58316,-0.25934 -27.17131,-0.2016 -40.75622,-0.17417 z m 2.89719,9.62271 c 7.14592,0.0333 14.39145,0.10972 21.47269,0.31232 1.83143,0.0564 3.66182,0.14497 5.48797,0.29746 -6.68459,7.94319 -13.55672,15.733 -19.91206,23.94703 -1.9476,2.64178 -4.06459,5.24973 -5.27499,8.33437 -0.59492,1.48292 -0.46335,3.44292 0.93016,4.43027 0.97903,0.82396 2.37636,0.78838 3.46649,0.21186 2.64955,-1.30037 4.99767,-3.194 7.00084,-5.35231 4.91115,-6.0984 10.07991,-11.91996 15.28576,-17.78976 1.47092,-1.64422 2.95222,-3.27941 4.45048,-4.89869 0.50284,6.39031 0.40288,12.80883 0.49215,19.2138 0.0385,11.13101 0.0421,22.26209 0.0613,33.39314 -13.69461,-0.0293 -27.39015,0.0744 -41.08403,-0.0942 -1.37583,-0.0345 -2.91985,-0.0565 -4.19026,-0.114 -0.2088,-0.17771 0.60587,-0.81513 0.80632,-1.16674 2.85244,-3.44234 5.83374,-6.87474 7.80638,-10.92185 0.74453,-1.57487 1.31265,-3.67232 0.0789,-5.15456 -1.24737,-1.47097 -3.54198,-1.35919 -5.07547,-0.41451 -3.05326,1.7423 -5.48511,4.36605 -7.77174,6.99477 -0.36321,0.44077 -0.73021,0.87841 -1.07977,1.33021 -0.41631,-7.92802 -0.46031,-15.89776 -0.5722,-23.88353 -0.0929,-9.57789 -0.0919,-19.15637 -0.13539,-28.73456 5.91883,0.0198 11.83766,0.0397 17.75649,0.0595 z" />
      <path
         id="path2059"
         style="fill:#ff0000;stroke-width:2.60563"
         d="m 368.93592,197.77491 c -1.48943,-0.0875 -3.06033,0.63801 -3.65493,2.06732 -0.92677,2.25494 -0.9026,4.7525 -1.23033,7.13726 -0.12062,1.01564 -0.24838,2.03145 -0.4337,3.03759 -11.63447,0.65443 -23.31219,0.58535 -34.97995,1.0727 -2.42294,0.14294 -4.86964,0.12574 -7.27048,0.4962 -1.83638,0.43894 -3.01893,2.56337 -2.3589,4.35403 0.64575,2.01244 2.78966,3.16066 4.81964,3.14735 7.68256,0.51773 15.38432,0.66196 23.08053,0.85351 5.50225,0.12272 11.00449,0.24545 16.50673,0.36819 0.32249,9.9905 0.38294,19.9954 1.12014,29.96707 0.18308,1.55529 0.0487,3.35963 1.26976,4.54204 1.29931,1.48065 3.73667,1.5769 5.19138,0.27199 1.16651,-0.93604 1.75213,-2.41876 1.76685,-3.89387 0.44893,-6.70764 0.47339,-13.43567 0.57271,-20.15572 0.0588,-8.94923 0.14664,-17.90459 -0.20821,-26.84875 -0.11184,-1.84175 -0.21385,-3.89206 -1.44261,-5.37396 -0.68388,-0.77926 -1.74198,-1.06906 -2.74863,-1.04295 z" />
      <path
         id="path2098"
         style="fill:#ff0000;stroke-width:2.60563"
         d="m 372.03926,174.60309 c -18.50518,0.18127 -37.0131,0.18654 -55.51528,0.59765 -3.24899,0.12186 -6.51251,0.0899 -9.74781,0.43044 -1.81247,0.45313 -3.2475,2.50461 -2.56662,4.35959 0.55532,1.77401 2.54079,2.36158 4.18422,2.61574 4.76744,0.67849 9.59787,0.68234 14.40158,0.86644 12.55005,0.33379 25.08481,0.45858 37.60513,1.09957 0.98588,0.14525 2.085,-0.0482 2.98248,0.44339 0.68083,1.32581 0.80277,2.86954 1.38143,4.24475 0.5075,1.56837 1.41341,3.20724 3.0728,3.75818 2.09702,0.78444 4.54967,-0.85038 4.85952,-3.02054 0.95579,-4.52015 0.92381,-9.16734 1.27868,-13.75626 -0.0359,-0.51553 0.21206,-1.30072 0.006,-1.6549 -0.64741,0.006 -1.29482,0.0107 -1.94223,0.016 z" />
      <path
         id="path2137"
         style="fill:#ff0000;stroke-width:2.60563"
         d="m 323.95321,246.90161 c -5.38976,0.0715 -10.79205,0.0403 -16.1658,0.50331 -1.94652,0.11038 -4.01601,1.50394 -4.22416,3.55511 -0.17782,2.00025 1.54166,3.60515 3.27049,4.26477 2.59727,0.57882 5.28811,0.4894 7.93306,0.62498 9.61822,0.19323 19.24622,0.11823 28.85594,-0.33812 2.2947,-0.16688 4.63651,-0.1559 6.87326,-0.74605 1.62635,-0.6228 2.99729,-2.34553 2.54805,-4.15323 -0.58952,-2.10138 -2.89607,-3.05876 -4.90094,-3.18087 -5.90923,-0.47448 -11.84498,-0.46307 -17.76963,-0.52768 -2.1401,-0.0127 -4.28015,-0.008 -6.42027,-0.002 z" />
    </g>
  </g>
</svg>
