<?xml version="1.0" encoding="UTF-8" standalone="no"?>
<!-- Generator: Adobe Illustrator 18.0.0, SVG Export Plug-In . SVG Version: 6.00 Build 0)  -->

<svg
   version="1.1"
   id="Layer_1"
   x="0px"
   y="0px"
   viewBox="0 0 512.00002 512"
   enable-background="new 0 0 204.4 39"
   xml:space="preserve"
   sodipodi:docname="frida.svg"
   width="512"
   height="512"
   inkscape:version="1.2.2 (b0a8486541, 2022-12-01)"
   xmlns:inkscape="http://www.inkscape.org/namespaces/inkscape"
   xmlns:sodipodi="http://sodipodi.sourceforge.net/DTD/sodipodi-0.dtd"
   xmlns="http://www.w3.org/2000/svg"
   xmlns:svg="http://www.w3.org/2000/svg"><defs
   id="defs333">
	
	
	
	
	
</defs><sodipodi:namedview
   id="namedview331"
   pagecolor="#505050"
   bordercolor="#eeeeee"
   borderopacity="1"
   inkscape:showpageshadow="0"
   inkscape:pageopacity="0"
   inkscape:pagecheckerboard="0"
   inkscape:deskcolor="#505050"
   showgrid="false"
   inkscape:zoom="0.68323674"
   inkscape:cx="336.63295"
   inkscape:cy="233.44763"
   inkscape:window-width="1366"
   inkscape:window-height="695"
   inkscape:window-x="0"
   inkscape:window-y="24"
   inkscape:window-maximized="1"
   inkscape:current-layer="Layer_1" />
<g
   id="g494"
   transform="matrix(0.72748222,0,0,0.83799214,85.300276,41.474012)"><path
     id="path320-3"
     style="fill:#ffffff;stroke-width:13.5917"
     d="m 251.53125,-37.992188 c -38.23175,0.214529 -76.64772,4.118895 -113.57061,14.343162 C 107.14228,-15.067302 77.427508,-1.5905541 51.941235,17.905301 27.148166,36.934355 6.8915898,62.017606 -5.7794371,90.63635 c -11.4313169,25.67537 -17.0615999,53.74727 -17.6640459,81.79199 -0.719396,29.93457 3.219552,60.19555 13.5439667,88.39047 9.63930633,26.45116 24.9863203,50.84889 44.9245053,70.74978 8.395146,8.45108 17.522082,16.17219 27.217199,23.09157 C 14.591202,419.77348 -33.060234,484.88647 -80.710938,550 c 85.4212245,0 170.842448,0 256.263668,0 30.25383,-47.00935 60.51065,-94.01678 90.76563,-141.02539 21.99935,0 43.9987,0 65.99805,0 0,47.00846 0,94.01693 0,141.02539 72.56119,0 145.12239,0 217.68359,0 0,-196 0,-392 0,-588 -99.48958,0.0025 -198.97917,0.0052 -298.46875,0.0078 z m 2.82227,177.736328 c 25.98763,0 51.97526,0 77.96289,0 0,26.22135 0,52.44271 0,78.66406 -29.32967,-0.041 -58.66111,0.076 -87.98913,-0.26403 -4.09647,-0.17853 -8.27143,-0.5002 -12.22078,-0.96587 -9.63375,-1.19185 -19.33932,-3.10638 -28.13072,-7.36809 -4.91719,-2.35833 -9.62843,-5.66845 -12.40467,-10.47638 -3.33601,-5.55896 -4.26593,-12.15312 -4.5672,-18.52328 -0.03,-0.6645 -0.057,-1.65158 -0.0651,-2.44007 -0.0168,-2.38148 0.095,-4.93166 0.33857,-7.19665 0.64441,-5.45641 1.93955,-11.13795 5.54417,-15.45433 2.47248,-3.07756 5.83971,-5.25587 9.32441,-7.02442 7.13041,-3.62554 15.00543,-5.4587 22.84041,-6.82008 7.54483,-1.21858 15.18099,-1.7874 22.8164,-2 2.08806,-0.0468 4.38528,-0.0972 6.55079,-0.13086 z" /><path
     fill="#ef6456"
     d="M 151.53314,506 H 5.9999988 L 127.03747,340.61538 C 57.873197,311.1282 20.40922,257.28205 20.40922,179.07692 20.40922,67.538456 105.42363,5.9999992 253.83862,5.9999992 H 506 V 506 H 376.317 V 364.97436 H 253.83862 242.31124 Z M 376.317,262.41025 V 95.743585 H 253.83862 c -70.60519,0 -110.95101,25.641025 -110.95101,82.051285 0,57.69231 40.34582,84.61538 110.95101,84.61538 z"
     id="path320"
     style="stroke-width:13.5917" /></g>
</svg>
