<?xml version="1.0" encoding="UTF-8" standalone="no"?>
<!-- Created with Inkscape (http://www.inkscape.org/) -->

<svg
   version="1.1"
   id="svg228"
   width="512"
   height="512"
   viewBox="0 0 512 512"
   sodipodi:docname="geckodriver.svg"
   xml:space="preserve"
   inkscape:version="1.2.2 (b0a8486541, 2022-12-01)"
   xmlns:inkscape="http://www.inkscape.org/namespaces/inkscape"
   xmlns:sodipodi="http://sodipodi.sourceforge.net/DTD/sodipodi-0.dtd"
   xmlns="http://www.w3.org/2000/svg"
   xmlns:svg="http://www.w3.org/2000/svg"><defs
     id="defs232"><radialGradient
       id="a"
       cx="-14480.522"
       cy="-8329.079"
       r="450.875"
       fx="-14509.28126515"
       gradientTransform="matrix(0.762,0.034,-0.05,1.12,11560.893,10069.103)"
       gradientUnits="userSpaceOnUse"><stop
         offset=".045"
         stop-color="#ffea00"
         id="stop1302" /><stop
         offset=".12"
         stop-color="#ffde00"
         id="stop1304" /><stop
         offset=".254"
         stop-color="#ffbf00"
         id="stop1306" /><stop
         offset=".429"
         stop-color="#ff8e00"
         id="stop1308" /><stop
         offset=".769"
         stop-color="#ff272d"
         id="stop1310" /><stop
         offset=".872"
         stop-color="#e0255a"
         id="stop1312" /><stop
         offset=".953"
         stop-color="#cc2477"
         id="stop1314" /><stop
         offset="1"
         stop-color="#c42482"
         id="stop1316" /></radialGradient><radialGradient
       id="b"
       cx="-7529.669"
       cy="-7921.608"
       r="791.229"
       gradientTransform="matrix(1.225,0,0,1.225,9921.963,9899.103)"
       gradientUnits="userSpaceOnUse"><stop
         offset="0"
         stop-color="#00ccda"
         id="stop1319" /><stop
         offset=".22"
         stop-color="#0083ff"
         id="stop1321" /><stop
         offset=".261"
         stop-color="#007af9"
         id="stop1323" /><stop
         offset=".33"
         stop-color="#0060e8"
         id="stop1325" /><stop
         offset=".333"
         stop-color="#005fe7"
         id="stop1327" /><stop
         offset=".438"
         stop-color="#2639ad"
         id="stop1329" /><stop
         offset=".522"
         stop-color="#401e84"
         id="stop1331" /><stop
         offset=".566"
         stop-color="#4a1475"
         id="stop1333" /></radialGradient><radialGradient
       id="d"
       cx="-8260.94"
       cy="-6516.556"
       r="266.886"
       gradientTransform="matrix(1.219,0.123,-0.123,1.219,10296.265,9597.23)"
       gradientUnits="userSpaceOnUse"><stop
         offset=".003"
         stop-color="#ffea00"
         id="stop1336" /><stop
         offset=".497"
         stop-color="#ff272d"
         id="stop1338" /><stop
         offset="1"
         stop-color="#c42482"
         id="stop1340" /></radialGradient><radialGradient
       id="e"
       cx="-8285.087"
       cy="-6772.468"
       r="445.678"
       gradientTransform="matrix(1.219,0.123,-0.123,1.219,10296.265,9597.23)"
       gradientUnits="userSpaceOnUse"><stop
         offset=".003"
         stop-color="#ffe900"
         id="stop1343" /><stop
         offset=".157"
         stop-color="#ffaf0e"
         id="stop1345" /><stop
         offset=".316"
         stop-color="#ff7a1b"
         id="stop1347" /><stop
         offset=".472"
         stop-color="#ff4e26"
         id="stop1349" /><stop
         offset=".621"
         stop-color="#ff2c2e"
         id="stop1351" /><stop
         offset=".762"
         stop-color="#ff1434"
         id="stop1353" /><stop
         offset=".892"
         stop-color="#ff0538"
         id="stop1355" /><stop
         offset="1"
         stop-color="#ff0039"
         id="stop1357" /></radialGradient><radialGradient
       id="f"
       cx="-8222.051"
       cy="-6359.332"
       r="408.958"
       gradientTransform="matrix(1.219,0.123,-0.123,1.219,10296.265,9597.23)"
       gradientUnits="userSpaceOnUse"><stop
         offset=".003"
         stop-color="#ff272d"
         id="stop1360" /><stop
         offset=".497"
         stop-color="#c42482"
         id="stop1362" /><stop
         offset=".986"
         stop-color="#620700"
         id="stop1364" /></radialGradient><radialGradient
       id="g"
       cx="750.189"
       cy="396.041"
       r="782.18"
       fx="778.1665281"
       fy="382.21240501"
       gradientUnits="userSpaceOnUse"><stop
         offset=".156"
         stop-color="#ffea00"
         id="stop1367" /><stop
         offset=".231"
         stop-color="#ffde00"
         id="stop1369" /><stop
         offset=".365"
         stop-color="#ffbf00"
         id="stop1371" /><stop
         offset=".541"
         stop-color="#ff8e00"
         id="stop1373" /><stop
         offset=".763"
         stop-color="#ff272d"
         id="stop1375" /><stop
         offset=".796"
         stop-color="#f92433"
         id="stop1377" /><stop
         offset=".841"
         stop-color="#e91c45"
         id="stop1379" /><stop
         offset=".893"
         stop-color="#cf0e62"
         id="stop1381" /><stop
         offset=".935"
         stop-color="#b5007f"
         id="stop1383" /></radialGradient><radialGradient
       id="h"
       cx="691.339"
       cy="3.289"
       r="923.615"
       gradientUnits="userSpaceOnUse"><stop
         offset=".279"
         stop-color="#ffea00"
         id="stop1386" /><stop
         offset=".402"
         stop-color="#fd0"
         id="stop1388" /><stop
         offset=".63"
         stop-color="#ffba00"
         id="stop1390" /><stop
         offset=".856"
         stop-color="#ff9100"
         id="stop1392" /><stop
         offset=".933"
         stop-color="#ff6711"
         id="stop1394" /><stop
         offset=".994"
         stop-color="#ff4a1d"
         id="stop1396" /></radialGradient><linearGradient
       id="c"
       x1="575.669"
       x2="384.231"
       y1="731.188"
       y2="104.96"
       gradientUnits="userSpaceOnUse"><stop
         offset="0"
         stop-color="#000f43"
         stop-opacity=".4"
         id="stop1399" /><stop
         offset=".485"
         stop-color="#001962"
         stop-opacity=".173"
         id="stop1401" /><stop
         offset="1"
         stop-color="#002079"
         stop-opacity="0"
         id="stop1403" /></linearGradient><linearGradient
       id="i"
       x1="-8944.65"
       x2="-8660.289"
       y1="-6677.742"
       y2="-6750.226"
       gradientTransform="matrix(1.219,0.123,-0.123,1.219,10296.265,9597.23)"
       gradientUnits="userSpaceOnUse"><stop
         offset="0"
         stop-color="#c42482"
         stop-opacity=".5"
         id="stop1406" /><stop
         offset=".474"
         stop-color="#ff272d"
         stop-opacity=".5"
         id="stop1408" /><stop
         offset=".486"
         stop-color="#ff2c2c"
         stop-opacity=".513"
         id="stop1410" /><stop
         offset=".675"
         stop-color="#ff7a1a"
         stop-opacity=".72"
         id="stop1412" /><stop
         offset=".829"
         stop-color="#ffb20d"
         stop-opacity=".871"
         id="stop1414" /><stop
         offset=".942"
         stop-color="#ffd605"
         stop-opacity=".964"
         id="stop1416" /><stop
         offset="1"
         stop-color="#ffe302"
         id="stop1418" /></linearGradient><linearGradient
       id="j"
       x1="245.347"
       x2="190.775"
       y1="-1082.012"
       y2="-1221.859"
       gradientTransform="matrix(0.995,0.1,-0.1,0.995,-173.696,1313.941)"
       gradientUnits="userSpaceOnUse"><stop
         offset="0"
         stop-color="#891551"
         stop-opacity=".6"
         id="stop1421" /><stop
         offset="1"
         stop-color="#c42482"
         stop-opacity="0"
         id="stop1423" /></linearGradient><linearGradient
       id="k"
       x1="22.04"
       x2="116.148"
       y1="718.827"
       y2="825.714"
       gradientTransform="rotate(5.73,2610.9022,2923.8449)"
       gradientUnits="userSpaceOnUse"><stop
         offset=".005"
         stop-color="#891551"
         stop-opacity=".5"
         id="stop1426" /><stop
         offset=".484"
         stop-color="#ff272d"
         stop-opacity=".5"
         id="stop1428" /><stop
         offset="1"
         stop-color="#ff272d"
         stop-opacity="0"
         id="stop1430" /></linearGradient><linearGradient
       id="l"
       x1="200.104"
       x2="200.171"
       y1="904.616"
       y2="829.835"
       gradientTransform="rotate(5.73,2610.9022,2923.8449)"
       gradientUnits="userSpaceOnUse"><stop
         offset="0"
         stop-color="#c42482"
         id="stop1433" /><stop
         offset=".083"
         stop-color="#c42482"
         stop-opacity=".81"
         id="stop1435" /><stop
         offset=".206"
         stop-color="#c42482"
         stop-opacity=".565"
         id="stop1437" /><stop
         offset=".328"
         stop-color="#c42482"
         stop-opacity=".362"
         id="stop1439" /><stop
         offset=".447"
         stop-color="#c42482"
         stop-opacity=".204"
         id="stop1441" /><stop
         offset=".562"
         stop-color="#c42482"
         stop-opacity=".091"
         id="stop1443" /><stop
         offset=".673"
         stop-color="#c42482"
         stop-opacity=".023"
         id="stop1445" /><stop
         offset=".773"
         stop-color="#c42482"
         stop-opacity="0"
         id="stop1447" /></linearGradient><linearGradient
       id="m"
       x1="655.531"
       x2="961.187"
       y1="38.12"
       y2="721.615"
       gradientUnits="userSpaceOnUse"><stop
         offset="0"
         stop-color="#fff14f"
         id="stop1450" /><stop
         offset=".268"
         stop-color="#ffee4c"
         id="stop1452" /><stop
         offset=".452"
         stop-color="#ffe643"
         id="stop1454" /><stop
         offset=".612"
         stop-color="#ffd834"
         id="stop1456" /><stop
         offset=".757"
         stop-color="#ffc41e"
         id="stop1458" /><stop
         offset=".892"
         stop-color="#ffab02"
         id="stop1460" /><stop
         offset=".902"
         stop-color="#ffa900"
         id="stop1462" /><stop
         offset=".949"
         stop-color="#ffa000"
         id="stop1464" /><stop
         offset="1"
         stop-color="#ff9100"
         id="stop1466" /></linearGradient><linearGradient
       id="n"
       x1="715.885"
       x2="571.098"
       y1="431.21"
       y2="819.96"
       gradientUnits="userSpaceOnUse"><stop
         offset="0"
         stop-color="#ff8e00"
         id="stop1469" /><stop
         offset=".04"
         stop-color="#ff8e00"
         stop-opacity=".858"
         id="stop1471" /><stop
         offset=".084"
         stop-color="#ff8e00"
         stop-opacity=".729"
         id="stop1473" /><stop
         offset=".13"
         stop-color="#ff8e00"
         stop-opacity=".628"
         id="stop1475" /><stop
         offset=".178"
         stop-color="#ff8e00"
         stop-opacity=".557"
         id="stop1477" /><stop
         offset=".227"
         stop-color="#ff8e00"
         stop-opacity=".514"
         id="stop1479" /><stop
         offset=".282"
         stop-color="#ff8e00"
         stop-opacity=".5"
         id="stop1481" /><stop
         offset=".389"
         stop-color="#ff8e00"
         stop-opacity=".478"
         id="stop1483" /><stop
         offset=".524"
         stop-color="#ff8e00"
         stop-opacity=".416"
         id="stop1485" /><stop
         offset=".676"
         stop-color="#ff8e00"
         stop-opacity=".314"
         id="stop1487" /><stop
         offset=".838"
         stop-color="#ff8e00"
         stop-opacity=".172"
         id="stop1489" /><stop
         offset="1"
         stop-color="#ff8e00"
         stop-opacity="0"
         id="stop1491" /></linearGradient></defs><sodipodi:namedview
     id="namedview230"
     pagecolor="#505050"
     bordercolor="#eeeeee"
     borderopacity="1"
     inkscape:showpageshadow="0"
     inkscape:pageopacity="0"
     inkscape:pagecheckerboard="0"
     inkscape:deskcolor="#505050"
     showgrid="false"
     inkscape:zoom="0.53554689"
     inkscape:cx="263.28227"
     inkscape:cy="253.01239"
     inkscape:window-width="1366"
     inkscape:window-height="695"
     inkscape:window-x="0"
     inkscape:window-y="24"
     inkscape:window-maximized="1"
     inkscape:current-layer="g234" /><g
     inkscape:groupmode="layer"
     inkscape:label="Image"
     id="g234"><g
       id="g2207"
       inkscape:export-filename="../GIT Icons/geckodriver.png"
       inkscape:export-xdpi="96"
       inkscape:export-ydpi="96"><path
         style="fill:#f58500;stroke-width:5.56991;fill-opacity:1"
         id="path990"
         sodipodi:type="arc"
         sodipodi:cx="256"
         sodipodi:cy="256"
         sodipodi:rx="250"
         sodipodi:ry="250"
         sodipodi:start="4.7101026"
         sodipodi:end="4.7087761"
         sodipodi:open="true"
         sodipodi:arc-type="arc"
         d="M 255.42841,6.0006534 A 250,250 0 0 1 505.99914,255.3455 250,250 0 0 1 256.73741,505.99891 250,250 0 0 1 6.0013458,256.82031 250,250 0 0 1 255.09678,6.0016316" /><g
         id="g936"
         transform="matrix(0.87390076,0,0,0.82196742,11.184406,45.57634)"><path
           style="fill:#ff5555;stroke-width:5.02936"
           id="path709"
           sodipodi:type="arc"
           sodipodi:cx="129.82689"
           sodipodi:cy="282.93118"
           sodipodi:rx="103.17867"
           sodipodi:ry="48.359188"
           sodipodi:start="4.7101026"
           sodipodi:end="4.7087761"
           sodipodi:open="true"
           sodipodi:arc-type="arc"
           d="M 129.59098,234.57212 A 103.17867,48.359188 0 0 1 233.00521,282.80458 103.17867,48.359188 0 0 1 130.13123,331.29016 103.17867,48.359188 0 0 1 26.648772,283.08986 103.17867,48.359188 0 0 1 129.45412,234.57231"
           transform="matrix(0.92016602,-0.39152841,0.36970142,0.92915061,0,0)" /><path
           style="fill:#ff0000;stroke-width:5.91343"
           id="path903"
           sodipodi:type="arc"
           sodipodi:cx="276.50742"
           sodipodi:cy="153.24034"
           sodipodi:rx="40.594975"
           sodipodi:ry="34.218449"
           sodipodi:start="4.7101026"
           sodipodi:end="4.7087761"
           sodipodi:open="true"
           sodipodi:arc-type="arc"
           d="m 276.4146,119.02198 a 40.594975,34.218449 0 0 1 40.68765,34.12878 40.594975,34.218449 0 0 1 -40.47509,34.30788 40.594975,34.218449 0 0 1 -40.7145,-34.10602 40.594975,34.218449 0 0 1 40.44809,-34.3305" /><path
           style="fill:#000000;stroke-width:0.817704"
           d="M 280.80385,422.52031 C 157.82021,397.01264 79.182207,367.06296 39.376259,330.57138 6.0881757,300.05497 -0.4654507,265.97837 19.844748,229.01435 c 7.263062,-13.21858 17.791586,-25.95716 34.007344,-41.14588 18.77322,-17.58418 38.03178,-31.80929 65.007208,-48.01681 13.41203,-8.05825 38.20761,-21.71336 38.71284,-21.31942 0.141,0.10994 -0.53202,2.34236 -1.49554,4.96096 -0.96353,2.61861 -1.75647,5.38835 -1.76214,6.15499 -0.006,0.90172 -4.30665,4.14636 -12.17789,9.189 -20.6023,13.19871 -24.4915,16.01872 -28.4387,20.62046 -6.83891,7.97295 -7.87272,14.41593 -3.32312,20.71019 1.87853,2.59887 2.05447,3.24404 1.0281,3.76992 -8.30609,4.25571 -29.14047,19.78194 -40.834704,30.4309 -31.60574,28.78069 -41.603965,55.85317 -30.245226,81.89586 13.544006,31.05296 55.406986,60.26602 125.92072,87.87074 32.95939,12.90294 78.94287,27.37649 121.82419,38.34488 24.02846,6.14613 22.22364,6.1561 -7.26398,0.0402 z m 29.21224,-42.34515 c -2.02921,-0.94391 -4.29497,-2.56224 -5.03503,-3.59633 -3.26992,-4.56903 -2.92721,-14.16255 0.87691,-24.54702 1.74855,-4.77316 1.83129,-5.57912 0.76416,-7.44381 -1.08694,-1.89929 -1.54477,-2.0552 -4.99069,-1.6996 -4.88321,0.50392 -10.10842,3.69694 -22.35393,13.65999 -11.30409,9.19713 -15.74806,11.18462 -26.2478,11.73891 -8.4037,0.44366 -11.20894,-0.43905 -12.85456,-4.04492 -2.52486,-5.53247 1.25157,-9.31708 13.25124,-13.28002 8.68594,-2.86858 17.30484,-7.12236 21.63197,-10.67636 l 3.60901,-2.96416 -1.70917,-1.598 -1.7092,-1.59802 -19.65059,2.22913 c -17.09182,1.93887 -20.18437,2.10238 -23.74979,1.25562 -9.36089,-2.22309 -11.09797,-8.45069 -3.13075,-11.224 1.19751,-0.41684 12.72295,-1.17494 25.61209,-1.68467 12.88914,-0.50973 24.09254,-1.24907 24.89647,-1.64296 3.04117,-1.49014 2.68433,-3.63677 -1.78259,-10.72287 -2.38221,-3.77904 -4.33129,-7.49094 -4.33129,-8.24865 0,-2.14396 3.88667,-5.21859 6.59686,-5.21859 3.53204,0 8.54356,2.72298 14.3444,7.79393 5.97636,5.22446 9.2035,6.91667 14.44458,7.57436 6.10475,0.76607 9.09202,-0.19658 19.39884,-6.25061 29.4918,-17.32321 54.63029,-29.74115 70.81737,-34.98248 9.99618,-3.23674 11.81671,-4.6939 8.74699,-7.0012 -3.69448,-2.77688 -21.12274,-7.58975 -37.15916,-10.26163 -3.18343,-0.53042 -5.49082,-1.21082 -5.12753,-1.51205 0.36328,-0.30125 2.67673,-1.14656 5.14102,-1.87852 15.18112,-4.50914 35.45714,-17.52967 43.12424,-27.69282 l 1.38674,-1.8382 7.63842,2.05764 c 21.88505,5.89535 41.55288,15.2639 49.98658,23.81056 9.28077,9.40504 9.51676,18.80959 0.72279,28.80344 -5.80991,6.60263 -10.9991,9.80671 -23.97339,14.80241 -6.36926,2.45244 -21.37575,8.48933 -33.3478,13.41531 -25.9597,10.68129 -37.52735,14.95955 -56.68211,20.96382 -15.25562,4.782 -18.80442,6.55889 -18.37919,9.20247 0.40075,2.49168 4.14821,3.04143 17.5785,2.57888 18.20757,-0.62709 23.67391,0.74345 26.94152,6.75493 6.06321,11.15456 -11.85979,12.68457 -47.89614,4.0887 -6.23018,-1.48609 -12.07335,-2.70201 -12.98484,-2.70201 -0.91148,0 -2.73624,0.85037 -4.05501,1.88966 -4.41769,3.48153 -2.91144,12.26124 3.58751,20.91106 5.46111,7.26855 3.51605,11.68512 -5.37638,12.20787 -3.77508,0.22182 -5.71828,-0.1021 -8.57127,-1.42919 z M 156.46123,287.42184 c -9.25376,-1.31325 -18.39794,-5.05593 -23.1395,-9.47083 -4.03783,-3.75967 -8.70629,-12.66237 -9.77593,-18.64256 -1.4741,-8.2416 -1.62869,-7.97358 4.92763,-8.54314 3.17266,-0.2755 6.82602,-0.68365 8.11861,-0.90685 1.77547,-0.30652 2.35011,-0.0971 2.35011,0.85606 0,2.34403 4.1018,8.69299 7.83083,12.12091 4.25293,3.90951 11.71727,7.40899 18.60587,8.72297 3.01163,0.57445 8.9868,0.74829 16.2927,0.47405 15.26441,-0.57298 28.43242,-3.54839 49.99344,-11.29641 27.96482,-10.04922 52.07476,-27.86651 71.85149,-53.09836 5.42198,-6.91755 11.95841,-17.33821 11.27052,-17.96799 -0.19773,-0.18109 -5.32912,0.70617 -11.40294,1.97168 -23.42885,4.88155 -42.57165,6.62148 -72.57364,6.59637 -42.28551,-0.0354 -74.68082,-3.44954 -96.9958,-10.22245 -14.59107,-4.4286 -20.49994,-8.84723 -20.50693,-15.33504 -0.01,-8.08344 4.49361,-12.60048 27.10516,-27.19353 l 18.74459,-12.0974 0.92257,-3.91204 c 5.11246,-21.67835 22.95364,-32.518264 49.43824,-30.037555 4.36888,0.409222 10.68664,1.381835 14.0394,2.161375 5.86465,1.36355 6.37743,1.36439 13.51108,0.022 21.3895,-4.024691 46.046,-5.806603 64.0487,-4.628764 16.95151,1.109073 26.20145,2.989413 39.58591,8.047104 3.95214,1.49342 11.03137,3.51389 15.73162,4.48993 31.4574,6.53237 56.41688,20.0597 64.95317,35.20278 5.64845,10.02018 6.17768,32.33021 1.19384,50.33015 -5.48322,19.80349 -15.85756,33.27994 -34.01354,44.1842 -15.10353,9.071 -31.30268,13.44893 -55.63468,15.03563 -11.82685,0.77124 -32.73402,3.11703 -38.4565,4.31482 -1.17504,0.24587 2.47833,-1.71157 8.11861,-4.35008 41.00521,-19.18199 67.99692,-39.96155 74.47988,-57.33832 2.1078,-5.64973 1.89767,-12.52038 -0.52525,-17.17357 -1.89671,-3.64258 -4.47361,-6.37143 -3.06719,-3.24801 3.06889,6.81539 2.59751,11.86885 -1.8697,20.04406 -6.41842,11.74606 -26.37051,27.65595 -55.77161,44.47263 -12.33817,7.05709 -39.9972,21.71904 -42.05738,22.29446 -1.07466,0.30015 -6.37643,2.12055 -11.78172,4.0453 -24.32921,8.66335 -47.22912,14.91105 -67.08519,18.30259 -9.08852,1.55236 -32.43022,2.62896 -38.45647,1.77374 z M 294.99901,175.32259 c 6.41899,-2.7501 12.05021,-7.67245 14.87731,-13.00455 2.94491,-5.5543 2.86418,-13.33684 -0.19453,-18.7574 -5.71797,-10.13301 -17.22787,-15.97204 -31.57915,-16.02026 -23.57902,-0.0793 -39.91316,19.49465 -30.07628,36.04169 8.0202,13.49119 30.04022,18.99495 46.97271,11.74052 z m -17.57443,-7.07137 c -1.25656,-6.62988 -0.82886,-30.45292 0.60483,-33.68829 0.80592,-1.81869 0.91872,-1.68136 1.60697,1.95603 1.0016,5.2937 0.81838,30.53001 -0.24997,34.42599 l -0.85816,3.12964 z M 107.32236,245.2758 c -13.767746,-2.86272 -28.103491,-10.76776 -27.190662,-14.99357 0.366522,-1.69683 2.738134,-1.73677 12.961182,-0.21829 18.08955,2.68699 46.61542,-5.74125 81.57488,-24.10203 l 9.66065,-5.0738 15.98092,0.8722 c 8.78948,0.47972 21.93987,0.87931 29.22312,0.88799 l 13.2422,0.0147 -6.48896,3.85083 c -31.82415,18.88585 -65.0128,32.65841 -91.48178,37.96297 -9.04,1.81168 -30.41729,2.26675 -37.48155,0.79788 z m 35.46544,-11.74222 c 12.95499,-2.44202 28.32338,-8.07718 40.86394,-14.98376 5.54482,-3.0537 18.52994,-11.79261 18.52994,-12.47049 0,-0.21712 -0.48071,-0.11326 -1.06823,0.23061 -0.58752,0.34411 -3.81273,2.27019 -7.1671,4.28012 -20.21731,12.11424 -43.82224,20.69304 -65.26491,23.71934 l -8.11294,1.145 7.6913,-0.31614 c 4.23021,-0.17398 10.76782,-0.89605 14.528,-1.60482 z m 274.07486,-12.79177 c 0.14421,-0.27785 1.72445,-3.09135 3.51169,-6.25233 3.68974,-6.52573 7.47978,-16.70127 9.22484,-24.76671 0.76519,-3.53675 1.18498,-10.88147 1.18498,-20.73384 0,-13.90032 -0.1753,-15.7212 -1.97051,-20.47766 -7.18371,-19.03287 -32.4817,-34.41902 -70.61631,-42.94863 -5.61099,-1.25502 -13.35372,-3.52127 -17.20604,-5.03613 -13.11606,-5.157651 -31.79202,-8.187132 -50.78177,-8.237457 -12.50496,-0.03309 -9.58272,-1.084709 9.48728,-3.414018 27.73166,-3.387284 37.04736,-3.965641 64.00212,-3.973518 35.36401,-0.01027 52.85437,2.1397 76.82888,9.444332 43.73118,13.324141 65.10722,33.654821 63.01038,59.928951 -2.32764,29.16662 -21.4086,48.26562 -60.36252,60.41965 -9.36614,2.92236 -26.76664,6.92138 -26.31302,6.04736 z m -277.37497,-5.32134 c 1.74537,-2.51385 10.60895,-12.78795 11.0323,-12.78795 0.15158,0 -1.23769,2.37099 -3.08732,5.26885 -1.84966,2.89785 -3.36299,5.67143 -3.36299,6.16346 0,1.1426 -1.59242,2.30663 -4.1318,3.0203 l -1.99534,0.56075 z"
           id="path346" /><path
           id="path849"
           style="fill:#ff0000;stroke-width:6.69415"
           d="m 183.24414,200.05859 c -5.06636,2.69312 -10.21902,5.51363 -15.26172,8.07032 -4.89164,2.45671 -9.84878,4.78318 -14.87695,6.94726 -1.4297,0.59816 -3.06253,1.2986 -4.58341,1.90465 -9.26302,3.74768 -18.77218,6.93159 -28.51815,9.16566 -0.69932,0.14694 -1.70589,0.37184 -2.52344,0.54688 -5.36168,1.10287 -10.79714,1.89352 -16.26953,2.13672 -0.46923,0.0187 -1.09483,0.0398 -1.6311,0.0487 -3.699794,0.12243 -7.387254,-0.24758 -11.052734,-0.70533 -2.347471,-0.18742 -4.766145,-0.5892 -7.088381,-0.0241 -1.505881,0.33731 -2.586195,1.96443 -2.106694,3.4718 0.550883,1.77876 1.992105,3.10123 3.294922,4.35938 3.931905,3.4022 8.821298,5.39589 13.596847,7.30202 2.446799,1.00151 4.96706,1.84095 7.58947,2.23433 7.55457,1.19674 15.23599,1.26261 22.86656,1.09863 8.98196,-0.28307 17.98989,-0.96702 26.80597,-2.77592 5.90146,-1.31105 11.63476,-3.27343 17.3362,-5.26125 15.70908,-5.6338 30.99053,-12.4258 45.86771,-19.97799 7.42514,-3.75663 14.66166,-7.86881 21.83268,-12.08679 3.0908,-1.79624 6.18168,-3.59235 9.27253,-5.3885 -21.36327,-0.43799 -42.72653,-0.87681 -64.08984,-1.3125 -0.15365,0.082 -0.30729,0.16406 -0.46094,0.24609 z" /></g></g></g></svg>
