<?xml version="1.0" encoding="UTF-8" standalone="no"?>
<!-- Created with Inkscape (http://www.inkscape.org/) -->

<svg
   version="1.1"
   id="svg870"
   width="512"
   height="512"
   viewBox="0 0 512 512"
   sodipodi:docname="godoh.svg"
   inkscape:version="1.1.2 (0a00cf5339, 2022-02-04)"
   xmlns:inkscape="http://www.inkscape.org/namespaces/inkscape"
   xmlns:sodipodi="http://sodipodi.sourceforge.net/DTD/sodipodi-0.dtd"
   xmlns="http://www.w3.org/2000/svg"
   xmlns:svg="http://www.w3.org/2000/svg">
  <defs
     id="defs874" />
  <sodipodi:namedview
     id="namedview872"
     pagecolor="#505050"
     bordercolor="#eeeeee"
     borderopacity="1"
     inkscape:pageshadow="0"
     inkscape:pageopacity="0"
     inkscape:pagecheckerboard="0"
     showgrid="false"
     inkscape:zoom="0.65478514"
     inkscape:cx="213.8106"
     inkscape:cy="280.2446"
     inkscape:window-width="1366"
     inkscape:window-height="695"
     inkscape:window-x="0"
     inkscape:window-y="24"
     inkscape:window-maximized="1"
     inkscape:current-layer="g876" />
  <g
     inkscape:groupmode="layer"
     inkscape:label="Image"
     id="g876">
    <g
       id="g1474"
       transform="matrix(0.93886896,0,0,0.91818927,15.990939,24.905037)">
      <path
         id="path996-3"
         style="fill:#ffffff;stroke-width:0.954693"
         d="m 7.3046875,-17.785156 c -3.3519337,0.330093 -6.579794,1.698783 -9.2734375,3.699218 -4.034091,3.18127 -6.1486034,8.4310513 -5.852311,13.51674656 0.089219,3.56025484 0.4636245,7.10564924 0.5914764,10.66488244 0.9041523,16.478614 2.109731,32.976561 4.9327413,49.253764 6.5282503,40.156681 19.1858873,79.314695 37.4589523,115.666165 -5.590382,12.69997 -10.403177,25.77061 -13.824493,39.22878 -11.9069541,45.61603 -10.570244,94.67366 4.249943,139.45971 11.93709,36.47889 32.512722,70.12731 59.72172,97.21665 25.114371,25.06583 55.768151,44.54947 89.125371,56.64591 11.43833,4.13997 23.21451,7.31736 35.15444,9.63095 7.95443,1.56578 15.96215,2.91946 24.029,3.74294 9.54044,0.41102 19.09186,0.12764 28.63682,0.0913 13.92757,-0.15251 27.95268,-0.80601 41.57865,-3.90421 18.96903,-4.01261 37.54639,-10.02988 55.06142,-18.37579 48.62288,-23.03078 89.32869,-62.54933 113.39231,-110.70862 21.68173,-43.07621 30.60697,-92.56081 24.82242,-140.47172 -2.97603,-25.01374 -9.85647,-49.54136 -20.16635,-72.51881 7.70703,-15.60288 14.81509,-31.53645 20.4321,-48.02091 12.32467,-35.405126 19.42192,-72.574529 21.59952,-109.982004 0.25864,-4.460906 0.37619,-9.123606 -1.44649,-13.3074197 -2.41903,-6.1029012 -8.00442,-10.8245218 -14.44281,-12.1398122 -5.30948,-1.1454069 -11.12189,-0.010276 -15.45715,3.3122845 -4.4887,3.165561 -7.45352,7.8936865 -10.95832,12.019099 -6.6437,8.3979774 -14.02232,16.1886344 -21.79287,23.5486844 -6.66943,6.333094 -13.62749,12.36398 -20.88125,18.019301 -0.50355,0.387496 -1.27428,0.968079 -1.88034,1.429654 -9.17067,7.007243 -19.14622,12.863329 -29.21315,18.471005 -3.49187,1.922625 -7.02518,3.771078 -10.61158,5.51145 C 381.10875,66.353864 369.44261,59.466227 357.14993,53.863246 335.11405,43.64634 311.56523,36.549996 287.44111,33.541549 271.68368,31.783182 255.787,31.366217 239.94945,32.008277 222.94958,32.961131 206.13921,36.224149 189.77663,40.856072 164.9323,48.034576 141.22988,59.184375 119.92188,73.845703 104.90984,66.792671 90.799635,57.919963 77.519406,48.008646 65.641066,39.083057 54.731993,28.903814 44.791301,17.869296 37.223585,9.5512483 30.257758,0.71558847 23.365806,-8.1623162 21.091401,-11.044772 18.88002,-14.22913 15.459239,-15.846954 12.960716,-17.159519 10.12981,-17.853242 7.3046875,-17.785156 Z M 355.77539,196.05078 c -9.33812,8.19159 -19.31505,15.62234 -28.6727,23.79069 -3.02537,2.69554 -5.11137,6.36455 -5.98342,10.31411 -1.45222,6.33194 0.11067,13.33773 4.37315,18.28452 3.71117,4.7166 8.61647,8.25697 13.11913,12.15722 5.32915,4.43866 10.76655,8.75508 15.91189,13.41049 -6.45343,-4.80397 -12.7202,-9.85238 -19.04704,-14.82056 -9.85521,-7.83162 -19.62853,-15.76542 -29.42562,-23.66967 16.73817,-13.50634 33.41076,-27.10241 50.53165,-40.12379 0.0721,-0.046 -0.63092,0.5113 -0.80704,0.65699 z m -196.2207,2.39649 c 11.94408,9.1619 23.62909,18.6404 35.35953,28.06999 3.71544,2.9988 7.43088,5.99761 11.14633,8.99641 -15.68236,12.62 -31.25919,25.3771 -47.23219,37.62987 -0.50032,0.3812 -1.01226,0.74669 -1.51977,1.11818 9.53916,-8.62231 19.94699,-16.23201 29.41102,-24.93728 2.09139,-2.29794 4.03198,-4.73837 5.85763,-7.24805 2.76118,-4.57951 2.03083,-10.79209 -1.35982,-14.84802 -2.78131,-4.4199 -6.51872,-8.17538 -10.70006,-11.27746 -8.16511,-6.75594 -16.69881,-13.0735 -24.54275,-20.21263 1.19336,0.903 2.38672,1.80599 3.58008,2.70899 z m 91.43164,180.15625 c 20.82162,0.0305 41.64372,-0.0412 62.46484,0.13867 -30.87713,0.18416 -61.75498,0.0869 -92.6324,0.0584 -6.51778,-0.01 -13.03549,-0.0476 -19.55315,-0.0858 16.57329,-0.10887 33.14717,-0.0778 49.72071,-0.11132 z" />
      <path
         id="path1227"
         style="fill:#ff0000;stroke-width:7.743"
         d="m 356.51172,171.05859 c -4.8882,0.092 -9.27845,2.64242 -13.11951,5.44994 -9.60282,7.22689 -18.96404,14.76559 -28.39193,22.21819 -12.11378,9.64989 -24.25469,19.26876 -36.17573,29.15761 -3.12376,2.64482 -6.21177,5.33183 -9.31869,7.99653 24.55287,19.5014 49.03232,39.09809 73.68643,58.46821 3.70583,2.88512 8.16316,4.97546 12.90026,5.25509 4.83258,0.36828 9.71022,-1.12627 13.64203,-3.92787 5.4529,-3.70575 9.54405,-9.63327 10.34226,-16.2524 0.45546,-3.563 0.1814,-7.25257 -0.92922,-10.67167 -1.58489,-4.01132 -4.78658,-7.04988 -7.77457,-10.03933 -8.2856,-7.97751 -17.52766,-14.90251 -25.65968,-23.04497 -0.44835,-0.42968 -1.06389,-0.8843 -0.20752,-1.23712 9.18213,-7.5975 18.65554,-14.88026 27.23243,-23.17494 2.13721,-2.13855 4.3899,-4.28546 5.63934,-7.09577 3.05962,-6.38426 2.54073,-14.16848 -0.84845,-20.31948 -2.55061,-4.775 -6.78364,-8.6239 -11.81647,-10.6375 -2.8916,-1.28357 -6.00857,-2.22053 -9.20098,-2.14452 z" />
      <path
         id="path1151"
         style="fill:#ff0000;stroke-width:7.743"
         d="m 153.97461,171.42969 c -9.12414,0.12507 -17.58036,6.4496 -20.88244,14.85655 -2.55483,6.28028 -1.93614,13.87253 2.02319,19.43875 3.3676,4.40552 7.47503,8.16814 11.50999,11.94609 6.59886,5.97485 13.60745,11.47368 20.33754,17.29767 -3.67896,3.87814 -7.74712,7.35907 -11.78125,10.85742 -5.88797,5.02438 -12.04498,10.0054 -17.29492,15.79492 -3.18746,3.53993 -6.04777,7.77897 -6.42563,12.65956 -0.30345,4.41175 0.90828,8.82006 2.81527,12.76663 2.34408,4.59719 6.44261,8.13802 11.11349,10.24307 3.33277,1.58844 6.97173,3.14476 10.74775,2.61497 4.69593,-0.57558 8.73618,-3.27147 12.62314,-5.76968 6.91303,-4.69394 13.42302,-9.94779 19.98242,-15.11418 8.94618,-7.12779 17.84152,-14.32023 26.70999,-21.54452 6.98791,-5.76574 13.97686,-11.55538 20.46064,-17.89091 1.36001,-1.38722 2.94757,-2.94049 3.06277,-4.99814 0.0861,-1.59979 -0.89822,-3.01304 -2.14981,-3.91207 -5.5075,-4.88913 -11.31107,-9.42503 -17.04209,-14.04494 -16.01765,-12.75535 -32.14869,-25.37294 -48.546,-37.63853 -2.61643,-1.93163 -5.21414,-3.91605 -8.01284,-5.57473 -2.86997,-1.37859 -6.07279,-2.03247 -9.25121,-1.98793 z" />
      <path
         id="path1266"
         style="fill:#ff0000;stroke-width:7.743"
         d="m 209.65625,355.92383 c -12.54051,0.0961 -25.09205,0.0368 -37.61737,0.73101 -2.93882,0.17179 -6.02666,0.33321 -8.6174,1.89182 -5.5781,3.01273 -9.39713,8.7405 -10.61404,14.9032 -1.64541,7.75694 0.42468,16.44388 6.12029,22.10483 2.24264,2.21344 4.97322,4.16163 8.1598,4.63135 4.45868,0.79075 9.0078,0.79411 13.51987,0.98282 14.55443,0.40229 29.1171,0.3183 43.6758,0.33155 40.99696,-0.0692 81.99349,-0.28926 122.99024,-0.43205 3.39288,-3.34715 7.3453,-6.30575 9.64634,-10.58265 3.67345,-6.48489 4.0791,-14.70888 0.97165,-21.49512 -1.59796,-3.61561 -4.17466,-6.713 -7.14632,-9.28644 -1.16039,-1.09093 -2.32213,-2.18043 -3.48144,-3.27251 -40.96453,-0.18353 -81.92885,-0.44225 -122.89375,-0.52304 -4.90456,-0.007 -9.80911,0.009 -14.71367,0.0152 z" />
      <path
         style="fill:#000000;stroke-width:0.954693"
         d="M 233.7318,500.96613 C 202.78355,496.62395 182.74157,490.84499 159.62926,479.59919 64.079698,433.10744 14.306445,325.86806 40.017416,221.88849 c 3.158607,-12.77393 7.229914,-24.6675 12.698966,-37.09764 l 4.503211,-10.23497 -6.521415,-13.26987 C 29.553034,118.25959 16.225145,67.902848 13.414856,20.418438 l -0.567796,-9.593809 2.613682,3.328573 c 12.934704,16.472615 27.383779,31.499474 41.445404,43.10271 16.557904,13.663094 37.896643,27.185043 55.481994,35.157867 l 9.60342,4.353991 8.84351,-6.15545 c 30.11505,-20.961345 66.1641,-34.276809 103.26961,-38.144768 15.45283,-1.610839 43.99501,-0.634717 59.00416,2.017902 31.32426,5.536045 60.87906,17.528297 86.84666,35.239175 l 10.36906,7.072088 8.14372,-3.651422 c 9.41917,-4.223287 27.54063,-14.531243 37.61611,-21.397002 19.16025,-13.056439 42.48891,-34.743416 55.98948,-52.049391 3.60178,-4.617024 6.73182,-8.394587 6.95564,-8.394587 0.22382,0 0.13468,3.777563 -0.19809,8.394587 -3.71504,51.544751 -15.99229,97.996948 -37.42929,141.617288 l -6.53624,13.30007 4.51778,10.20477 c 27.42986,61.95878 25.78995,132.16356 -4.51721,193.38259 -28.44874,57.4651 -81.92597,100.89553 -143.61267,116.63206 -19.76362,5.04179 -27.35258,5.95677 -51.87111,6.25397 -12.54043,0.152 -24.08332,0.0964 -25.65088,-0.12352 z M 345.14067,397.40946 c 16.04627,-6.77054 16.04627,-30.55375 0,-37.32428 -3.08797,-1.30294 -14.00275,-1.48486 -89.0831,-1.48486 -75.08036,0 -85.99514,0.18192 -89.08311,1.48486 -15.93163,6.72216 -16.06666,30.33825 -0.21317,37.28087 2.88075,1.26155 14.62862,1.45813 89.08929,1.49072 75.3237,0.033 86.19959,-0.14331 89.29009,-1.44731 z M 160.42042,295.85714 c 3.40534,-1.03495 12.79224,-8.10451 40.94556,-30.83739 l 36.52731,-29.49461 -36.14816,-29.21666 c -19.88149,-16.06917 -37.58403,-29.82253 -39.33901,-30.56302 -1.75497,-0.74048 -5.35918,-1.34634 -8.00937,-1.34634 -14.24616,0 -24.09019,15.36217 -18.13566,28.30175 2.17261,4.72125 5.434,7.81847 22.65565,21.51524 7.44588,5.92189 13.53796,10.93826 13.53796,11.14751 0,0.20924 -7.42742,6.40563 -16.50538,13.76975 -9.07797,7.3641 -17.44459,14.9239 -18.59251,16.79955 -6.62932,10.83201 -1.13211,25.47936 11.23789,29.94342 4.46538,1.61145 6.47097,1.6082 11.82572,-0.0192 z m 207.74098,-2.27227 c 6.20334,-3.81658 9.82018,-11.16028 9.19342,-18.66643 -0.27692,-3.31645 -1.2955,-6.85976 -2.57112,-8.94405 -1.16188,-1.89845 -9.58388,-9.51257 -18.71555,-16.92026 -13.60209,-11.0341 -16.37076,-13.68418 -15.31784,-14.66174 0.70686,-0.65627 7.69792,-6.38039 15.53569,-12.72027 16.21291,-13.11443 17.86881,-14.75101 19.90534,-19.67307 6.65156,-16.07608 -10.44173,-33.02173 -26.48233,-26.25359 -1.75498,0.74049 -19.45752,14.49385 -39.33901,30.56302 l -36.14815,29.21666 36.54159,29.50615 c 25.11259,20.27758 37.79751,29.91798 40.55706,30.82293 5.3997,1.77072 11.6414,0.92964 16.8409,-2.26935 z"
         id="path996" />
    </g>
  </g>
</svg>
