<?xml version="1.0" encoding="UTF-8" standalone="no"?>
<!-- Created with Inkscape (http://www.inkscape.org/) -->

<svg
   version="1.1"
   id="svg886"
   width="512"
   height="512"
   viewBox="0 0 512 512"
   xmlns="http://www.w3.org/2000/svg"
   xmlns:svg="http://www.w3.org/2000/svg">
  <defs
     id="defs890" />
  <g
     id="g892">
    <path
       id="path1012"
       style="fill:#ffffff;stroke-width:2.56964"
       d="m 255.99761,8.1449438 c -1.47929,0 -53.69492,27.6945062 -116.03709,61.5437202 L 26.611299,131.23239 v 124.84234 124.8378 l 112.714241,61.39864 c 61.99423,33.76816 114.21462,61.46245 116.04188,61.54371 1.82726,0.081 54.32991,-27.54939 116.67207,-61.39861 L 485.3887,380.91253 V 256.07473 131.23239 L 372.03949,69.688664 C 309.69733,35.83945 257.47691,8.1449438 255.99761,8.1449438 Z m -1.6662,37.5692412 c 1.64337,0.0017 46.29162,23.507697 99.22235,52.238701 l 96.23846,52.238704 v 107.32514 107.32516 l -93.60311,50.9146 c -51.48058,28.00417 -95.40499,51.89349 -97.61343,53.08667 -2.90251,1.5682 -31.20131,-12.51586 -102.10596,-50.82845 L 58.383642,365.01421 58.975649,257.42152 59.567658,149.83336 155.45282,97.771504 C 208.19035,69.137239 252.68803,45.712467 254.33141,45.714185 Z M 294.7403,118.5763 c -9.9131,1.33451 -18.70533,8.84428 -18.70533,21.49405 0,7.18974 1.79721,10.49786 8.63653,15.92101 l 8.63176,6.84726 -0.85458,81.05161 -0.85458,81.05162 -6.99422,11.29573 c -16.31096,26.35131 -54.74227,30.5787 -76.55441,8.42076 -10.11395,-10.27428 -12.68982,-18.62013 -12.68982,-41.10171 v -19.8117 l 6.95601,2.51217 c 3.8265,1.38177 7.39505,2.09974 7.92995,1.59165 0.53491,-0.50808 -5.26608,-8.71267 -12.89036,-18.22915 l -13.85952,-17.30406 -0.73523,34.53106 c -0.4111,19.33148 0.52212,38.95793 2.11975,44.59335 3.57779,12.62011 19.06983,29.18326 32.88953,35.16136 30.33394,13.12181 66.73972,-0.46009 81.46705,-30.39094 5.2211,-10.61105 5.59367,-16.09735 6.39744,-93.91179 0.73092,-70.7641 1.42862,-82.94724 4.86014,-84.77452 5.53868,-2.94933 11.73196,-17.90507 9.68687,-23.39405 -4.48796,-12.04559 -15.52388,-16.88823 -25.43698,-15.55371 z m 1.67576,12.34774 c 3.4155,-0.30719 7.16982,0.81664 9.53885,3.52792 2.33275,2.66952 2.39108,4.92878 0.22904,8.7654 -5.6128,9.96125 -20.87737,3.5678 -17.2683,-7.2327 1.00746,-3.01495 4.08477,-4.75344 7.50029,-5.06062 z" />
  </g>
</svg>
