<?xml version="1.0" encoding="UTF-8" standalone="no"?>
<!-- Created with Inkscape (http://www.inkscape.org/) -->

<svg
   version="1.1"
   id="svg254"
   width="512"
   height="512"
   viewBox="0 0 512 512"
   sodipodi:docname="graphw00lf.svg"
   inkscape:version="1.2.2 (b0a8486541, 2022-12-01)"
   inkscape:export-filename="../GIT Icons/graphw00lf.png"
   inkscape:export-xdpi="96"
   inkscape:export-ydpi="96"
   xmlns:inkscape="http://www.inkscape.org/namespaces/inkscape"
   xmlns:sodipodi="http://sodipodi.sourceforge.net/DTD/sodipodi-0.dtd"
   xmlns="http://www.w3.org/2000/svg"
   xmlns:svg="http://www.w3.org/2000/svg">
  <defs
     id="defs258" />
  <sodipodi:namedview
     id="namedview256"
     pagecolor="#1f1f1f"
     bordercolor="#ffffff"
     borderopacity="1"
     inkscape:showpageshadow="0"
     inkscape:pageopacity="0"
     inkscape:pagecheckerboard="1"
     inkscape:deskcolor="#505050"
     showgrid="false"
     inkscape:zoom="0.12109375"
     inkscape:cx="222.96774"
     inkscape:cy="264.25807"
     inkscape:window-width="1366"
     inkscape:window-height="705"
     inkscape:window-x="0"
     inkscape:window-y="0"
     inkscape:window-maximized="1"
     inkscape:current-layer="g260" />
  <g
     inkscape:groupmode="layer"
     inkscape:label="Image"
     id="g260">
    <path
       id="path2105"
       style="fill:#e10098;fill-opacity:1;stroke-width:0.813163"
       d="m 326.78718,6.144265 c -18.50584,1.7061236 -44.8518,24.051319 -60.06828,50.946226 -1.51141,2.671152 -2.28945,3.314464 -3.63515,3.003437 -11.49977,-2.657077 -47.5444,-4.557397 -60.25412,-3.176497 l -5.63615,0.610838 9.05217,1.50681 c 10.72041,1.784355 15.23191,3.135207 23.245,6.968972 5.9065,2.82586 8.06733,4.772515 3.70187,3.334303 -4.13897,-1.363654 -16.62566,-3.156656 -25.54618,-3.670287 -21.56931,-1.241805 -52.84327,5.301182 -73.88476,15.460005 -7.98975,3.857423 -19.22717,11.686073 -24.61236,17.144991 -3.26013,3.304757 -3.26691,3.328637 -0.83852,2.433257 3.96599,-1.462344 18.55541,-0.916839 18.51884,0.69232 -0.007,0.28227 -2.3236,1.36917 -5.14546,2.41803 -12.67961,4.71283 -24.326282,12.82579 -37.090075,25.83454 -9.41583,9.59653 -17.142917,20.22575 -23.059198,31.7243 -3.476472,6.75679 -9.683692,21.45891 -9.24276,21.88939 0.10855,0.10616 2.578704,-1.06723 5.488473,-2.60638 7.682277,-4.06362 17.206437,-6.79548 27.280395,-7.82416 4.859693,-0.50061 9.029953,-0.71479 9.266563,-0.4836 0.23637,0.23082 -1.62946,3.429 -4.14972,7.10638 -16.670786,24.32432 -25.173724,54.68978 -23.969187,85.58746 0.428832,10.99937 2.525868,31.21787 3.544651,34.15251 0.234663,0.67564 1.819441,-2.11304 3.606561,-6.34285 1.753555,-4.15035 3.543602,-7.89356 3.978192,-8.31793 0.901305,-0.88024 1.211269,-0.0595 2.634662,7.02493 1.562898,7.77927 6.361848,22.5404 10.843541,33.34821 5.80805,14.00644 11.610832,25.08003 20.905762,39.90483 15.41642,24.58809 20.68728,36.68688 21.47745,49.29689 0.4944,7.89009 -1.04869,15.1424 -4.40698,20.73892 -1.15453,1.92405 -1.9488,3.64069 -1.76755,3.81792 0.18124,0.17701 2.52991,-2.39253 5.2169,-5.71161 12.7739,-15.77845 23.4443,-34.63882 29.03366,-51.30767 l 3.20637,-9.55495 4.37363,6.34281 c 2.40658,3.48906 10.07435,13.74117 17.03714,22.78023 6.96278,9.03904 14.88853,19.97645 17.61361,24.30739 2.72516,4.33089 5.06296,7.87506 5.19786,7.87506 0.13489,0 -1.0422,-3.88733 -2.62037,-8.63866 -6.15307,-18.52526 -11.11567,-41.99196 -8.88067,-41.99196 0.95334,0 21.73621,14.67544 31.25381,22.06756 32.61777,25.33328 50.76267,60.7499 44.48427,86.81936 -0.63786,2.64821 -1.04376,4.92498 -0.90521,5.05998 0.48813,0.47674 6.35853,-6.71884 9.19985,-11.27557 3.62556,-5.81452 7.37092,-15.78159 9.44286,-25.12186 3.19687,-14.41182 2.95936,-40.72805 -0.54314,-60.34342 -0.68548,-3.83834 -1.11424,-7.10102 -0.95763,-7.25401 0.75185,-0.73424 30.39853,24.65181 41.31601,35.37935 18.21336,17.89635 27.80282,32.17946 32.95942,49.09326 1.76051,5.77447 2.28811,9.47449 2.62513,18.34126 0.23198,6.108 0.71423,10.80809 1.07198,10.4458 1.63362,-1.65496 6.59746,-12.62408 8.84254,-19.54263 6.50194,-20.03724 8.78117,-36.55744 8.75678,-63.48427 -0.0171,-19.77423 -0.17027,-21.986 -2.12965,-30.94035 -1.16044,-5.30378 -3.07889,-11.97738 -4.25928,-14.8288 -1.18043,-2.85149 -2.04674,-5.28194 -1.92477,-5.40106 0.12197,-0.11913 2.79776,1.45644 5.94107,3.49721 15.58919,10.12071 27.60309,27.70803 34.21243,50.08085 l 2.2583,7.63583 0.0476,-8.55212 c 0.19197,-32.73174 -10.44876,-67.80718 -27.73777,-91.43139 -6.93763,-9.47982 -18.11796,-20.58191 -27.75204,-27.56025 -4.07301,-2.95023 -13.51008,-8.55003 -20.97246,-12.44132 -25.59136,-13.34492 -34.02821,-20.16764 -40.31549,-32.59988 -3.94958,-7.80979 -5.30343,-14.61598 -4.60707,-23.1773 1.01397,-12.46632 5.32601,-19.96788 12.20136,-21.2276 7.00495,-1.2834 40.79592,12.69186 64.65631,26.74069 11.78114,6.93661 16.19924,8.53921 23.56424,8.54702 7.63944,0.007 13.98858,-1.62131 19.41451,-4.98874 3.0239,-1.87671 4.94553,-2.40179 9.91928,-2.71326 7.34192,-0.46016 13.71599,-3.02863 18.97619,-7.646 2.21259,-1.94226 5.33699,-3.65472 8.2613,-4.52551 2.58682,-0.77027 4.91791,-1.73273 5.17404,-2.13804 0.68013,-1.07479 -5.39797,-12.4734 -9.662,-18.12234 -2.01881,-2.67441 -5.4512,-6.29258 -7.62764,-8.03801 -4.90555,-3.93396 -9.52184,-8.33189 -18.51884,-17.63875 -3.84535,-3.97785 -11.14543,-11.13636 -16.22244,-15.90797 l -9.23322,-8.67429 -0.90997,-9.0052 c -1.39263,-13.80009 -2.91381,-20.50057 -5.49325,-24.18518 -3.58544,-5.12166 -18.59831,-19.96444 -25.83678,-25.54439 -9.11843,-7.029234 -19.38436,-13.637217 -27.44715,-17.66931 l -6.81295,-3.40557 -0.45259,-3.751761 c -0.54875,-4.524923 0.71252,-30.972059 1.87713,-39.34487 0.45884,-3.298395 1.82439,-10.476359 3.03486,-15.94868 2.42256,-10.95175 2.36738,-11.32751 -2.25352,-14.4368005 -2.37031,-1.5951539 -3.50477,-1.8187987 -7.33226,-1.4660735 z m 34.03617,118.930525 13.52106,17.83731 13.52587,17.83218 -24.97924,-12.8231 -24.98399,-12.82308 11.45815,-5.0091 z" />
    <path
       style="opacity:0.15;fill:#000000;fill-opacity:1;stroke-width:0.890673"
       d="m 188.17843,343.12449 c -7.782,-3.75719 -12.31125,-10.79197 -11.54826,-17.93664 l 0.43113,-4.03702 -23.46063,-11.19796 c -20.53844,-9.80316 -23.64718,-11.05125 -24.95816,-10.02025 -8.24558,6.4847 -22.1669,4.76712 -28.667563,-3.53692 -3.172861,-4.05305 -4.29512,-11.47978 -2.481771,-16.42352 1.345566,-3.66844 6.885614,-8.73569 11.022214,-10.08158 l 3.1365,-1.02048 v -23.89151 -23.89149 l -3.87451,-1.7785 c -7.62084,-3.49817 -11.149117,-8.81885 -11.149117,-16.81299 0,-6.15631 2.93013,-11.36787 8.307447,-14.77576 7.16562,-4.54121 19.08188,-3.82865 23.70382,1.41743 1.46096,1.65824 2.00944,1.4235 24.41338,-10.4485 l 22.91884,-12.14487 0.54821,-5.06135 c 0.62184,-5.74125 2.31792,-9.13512 6.17554,-12.35736 4.74435,-3.96293 8.48634,-5.16744 14.91005,-4.79941 10.96101,0.62798 18.46048,7.72852 18.46048,17.47845 v 4.94624 l 22.53753,11.89855 22.5375,11.89855 3.7909,-2.25722 c 5.42513,-3.23031 14.51451,-3.62015 20.37609,-0.8739 8.3674,3.92028 12.77986,12.26072 10.53185,19.90736 -1.50027,5.10322 -5.38024,9.46007 -10.34447,11.61587 l -3.88886,1.6888 v 23.70551 23.70551 l 3.73648,1.48329 c 6.26043,2.48521 11.29824,9.55708 11.28191,15.83703 -0.0365,14.03245 -18.68238,22.6055 -31.35542,14.41669 l -4.12503,-2.66544 -22.56196,11.9613 -22.56196,11.9613 0.0339,5.29093 c 0.0422,6.5925 -2.65376,11.40637 -8.43281,15.05707 -3.3247,2.10029 -5.13466,2.59527 -10.32872,2.82467 -4.48227,0.19797 -7.10962,-0.11388 -9.11456,-1.08188 z m -3.10115,-29.77117 c 3.45427,-2.05733 4.77702,-2.32335 11.55224,-2.32335 6.99855,0 7.95673,0.20939 11.23096,2.45444 2.67404,1.83351 3.96284,2.24778 5.09445,1.63755 0.83317,-0.44931 11.12762,-5.87007 22.87654,-12.04614 11.74895,-6.17606 21.36172,-11.57025 21.36172,-11.98703 0,-0.43942 -25.64382,-0.75781 -61.03345,-0.75781 -33.5684,0 -61.03346,0.2859 -61.03346,0.63533 0,0.50221 44.81961,24.67997 45.79522,24.70406 0.14019,0.003 2.01029,-1.0392 4.15578,-2.31705 z m 73.96137,-33.94815 c 1.03598,-1.82716 2.31218,-3.56043 2.83601,-3.85172 0.52381,-0.29128 0.95239,-1.08903 0.95239,-1.77274 0,-0.6837 -13.78288,-22.25527 -30.62866,-47.93678 l -30.62864,-46.69365 -6.22616,0.17294 -6.22617,0.17295 -29.3944,46.96458 -29.3944,46.96459 2.28985,2.75003 c 1.25942,1.51254 2.57863,3.60546 2.9316,4.65097 l 0.64174,1.90093 h 60.48161 60.48161 z m 12.23919,-34.63949 v -24.4439 l -2.11271,-0.57743 c -7.29268,-1.99316 -12.37825,-8.99966 -12.33499,-16.9942 l 0.0281,-5.20733 -22.90668,-11.40522 c -13.05941,-6.5023 -22.65561,-10.81661 -22.32268,-10.03597 0.88258,2.06942 58.83646,93.10793 59.27125,93.10793 0.20768,0 0.37762,-10.99975 0.37762,-24.44388 z m -120.6417,-20.75593 c 14.85192,-23.23354 28.07327,-43.90716 29.38075,-45.94137 l 2.37725,-3.69858 -6.9671,3.49524 c -3.83192,1.92239 -14.43525,7.19476 -23.56298,11.71642 l -16.59588,8.22121 0.52859,4.01553 c 0.97312,7.39293 -5.20797,16.63724 -12.02505,17.98444 l -2.73008,0.53953 v 24.19231 c 0,20.60117 0.19231,24.00867 1.29549,22.9552 0.71253,-0.68041 13.44707,-20.24638 28.29901,-43.47993 z"
       id="path372-3" />
    <path
       style="fill:#ffffff;fill-opacity:1;stroke-width:0.890673"
       d="m 183.31865,336.00414 c -7.782,-3.75719 -12.31125,-10.79197 -11.54826,-17.93664 l 0.43113,-4.03702 -23.46063,-11.19796 c -20.53844,-9.80316 -23.64718,-11.05125 -24.95816,-10.02025 -8.24558,6.4847 -22.1669,4.76712 -28.667566,-3.53692 -3.172861,-4.05305 -4.29512,-11.47978 -2.481771,-16.42352 1.345566,-3.66844 6.885615,-8.73569 11.022217,-10.08158 l 3.1365,-1.02048 v -23.89151 -23.89149 l -3.87451,-1.7785 c -7.620841,-3.49817 -11.14912,-8.81885 -11.14912,-16.81299 0,-6.15631 2.93013,-11.36787 8.30745,-14.77576 7.16562,-4.54121 19.08188,-3.82865 23.70382,1.41743 1.46096,1.65824 2.00944,1.4235 24.41338,-10.4485 l 22.91884,-12.14487 0.54821,-5.06135 c 0.62184,-5.74125 2.31792,-9.13512 6.17554,-12.35736 4.74435,-3.96293 8.48634,-5.16744 14.91005,-4.79941 10.96101,0.62798 18.46048,7.72852 18.46048,17.47845 v 4.94624 l 22.53753,11.89855 22.5375,11.89855 3.7909,-2.25722 c 5.42513,-3.23031 14.51451,-3.62015 20.37609,-0.8739 8.3674,3.92028 12.77986,12.26072 10.53185,19.90736 -1.50027,5.10322 -5.38024,9.46007 -10.34447,11.61587 l -3.88886,1.6888 v 23.70551 23.70551 l 3.73648,1.48329 c 6.26043,2.48521 11.29824,9.55708 11.28191,15.83703 -0.0365,14.03245 -18.68238,22.6055 -31.35542,14.41669 l -4.12503,-2.66544 -22.56196,11.9613 -22.56196,11.9613 0.0339,5.29093 c 0.0422,6.5925 -2.65376,11.40637 -8.43281,15.05707 -3.3247,2.10029 -5.13466,2.59527 -10.32872,2.82467 -4.48227,0.19797 -7.10962,-0.11388 -9.11456,-1.08188 z m -3.10115,-29.77117 c 3.45427,-2.05733 4.77702,-2.32335 11.55224,-2.32335 6.99855,0 7.95673,0.20939 11.23096,2.45444 2.67404,1.83351 3.96284,2.24778 5.09445,1.63755 0.83317,-0.44931 11.12762,-5.87007 22.87654,-12.04614 11.74895,-6.17606 21.36172,-11.57025 21.36172,-11.98703 0,-0.43942 -25.64382,-0.75781 -61.03345,-0.75781 -33.5684,0 -61.03346,0.2859 -61.03346,0.63533 0,0.50221 44.81961,24.67997 45.79522,24.70406 0.14019,0.003 2.01029,-1.0392 4.15578,-2.31705 z m 73.96137,-33.94815 c 1.03598,-1.82716 2.31218,-3.56043 2.83601,-3.85172 0.52381,-0.29128 0.95239,-1.08903 0.95239,-1.77274 0,-0.6837 -13.78288,-22.25527 -30.62866,-47.93678 l -30.62864,-46.69365 -6.22616,0.17294 -6.22617,0.17295 -29.3944,46.96458 -29.3944,46.96459 2.28985,2.75003 c 1.25942,1.51254 2.57863,3.60546 2.9316,4.65097 l 0.64174,1.90093 h 60.48161 60.48161 z m 12.23919,-34.63949 v -24.4439 l -2.11271,-0.57743 c -7.29268,-1.99316 -12.37825,-8.99966 -12.33499,-16.9942 l 0.0281,-5.20733 -22.90668,-11.40522 c -13.05941,-6.5023 -22.65561,-10.81661 -22.32268,-10.03597 0.88258,2.06942 58.83646,93.10793 59.27125,93.10793 0.20768,0 0.37762,-10.99975 0.37762,-24.44388 z M 145.77636,216.8894 c 14.85192,-23.23354 28.07327,-43.90716 29.38075,-45.94137 l 2.37725,-3.69858 -6.9671,3.49524 c -3.83192,1.92239 -14.43525,7.19476 -23.56298,11.71642 l -16.59588,8.22121 0.52859,4.01553 c 0.97312,7.39293 -5.20797,16.63724 -12.02505,17.98444 l -2.73008,0.53953 v 24.19231 c 0,20.60117 0.19231,24.00867 1.29549,22.9552 0.71253,-0.68041 13.44707,-20.24638 28.29901,-43.47993 z"
       id="path372" />
  </g>
</svg>
