<?xml version="1.0" encoding="UTF-8" standalone="no"?>
<!-- Created with Inkscape (http://www.inkscape.org/) -->

<svg
   version="1.1"
   id="svg254"
   width="512"
   height="512"
   viewBox="0 0 512.00002 512"
   sodipodi:docname="gtp-scan.svg"
   xml:space="preserve"
   inkscape:version="1.2.2 (b0a8486541, 2022-12-01)"
   inkscape:export-filename="../GIT Icons/gtp-scan.png"
   inkscape:export-xdpi="96"
   inkscape:export-ydpi="96"
   xmlns:inkscape="http://www.inkscape.org/namespaces/inkscape"
   xmlns:sodipodi="http://sodipodi.sourceforge.net/DTD/sodipodi-0.dtd"
   xmlns="http://www.w3.org/2000/svg"
   xmlns:svg="http://www.w3.org/2000/svg"><defs
     id="defs258" /><sodipodi:namedview
     id="namedview256"
     pagecolor="#000000"
     bordercolor="#eeeeee"
     borderopacity="1"
     inkscape:showpageshadow="0"
     inkscape:pageopacity="0"
     inkscape:pagecheckerboard="0"
     inkscape:deskcolor="#4d4d4d"
     showgrid="false"
     inkscape:zoom="0.63472222"
     inkscape:cx="144.15755"
     inkscape:cy="311.94748"
     inkscape:window-width="1366"
     inkscape:window-height="705"
     inkscape:window-x="0"
     inkscape:window-y="26"
     inkscape:window-maximized="1"
     inkscape:current-layer="g260" /><g
     inkscape:groupmode="layer"
     inkscape:label="Image"
     id="g260"><g
       id="g314"
       transform="matrix(1.3241199,0,0,1.2958974,-82.974692,-75.749754)"><path
         id="path372"
         style="fill:#666666;stroke-width:0.564094"
         d="m 273.73041,131.81671 -0.16281,5.03292 -0.16366,5.03372 5.67147,0.64519 c 16.17916,1.84027 31.21694,10.5086 40.2081,23.17776 4.78947,6.74864 8.65379,17.42549 9.49583,26.23444 l 0.38521,4.0265 h 5.36851 5.36854 v -1.90382 c 0,-6.34127 -2.46114,-16.66749 -5.63374,-23.63744 -10.07384,-22.13138 -32.59352,-37.37015 -56.81299,-38.44411 z m -0.28616,15.68617 v 5.2363 5.23713 l 4.98247,0.69888 c 9.58177,1.34307 16.65739,4.94724 23.57718,12.00951 5.95167,6.07428 10.39799,16.04161 10.39799,23.30956 v 1.97298 h 5.52714 5.52628 l -0.35754,-4.0265 c -2.06317,-23.23009 -21.19153,-41.71916 -45.57154,-44.04816 z m 0,16.10678 v 5.27048 5.2713 l 2.94147,0.33764 c 4.13201,0.47444 9.70852,3.16526 12.82837,6.18985 3.11988,3.02459 5.89545,8.43078 6.38482,12.43665 l 0.34831,2.85166 h 5.36261 5.36348 v -1.91684 c 0,-3.48544 -1.21149,-7.74377 -3.49199,-12.27962 -4.91661,-9.77895 -14.89647,-16.56168 -26.15614,-17.77548 z m -89.66028,16.52823 -3.05561,1.64022 c -3.33723,1.79214 -5.20223,3.6683 -7.14096,7.18161 l -1.2622,2.28621 -0.15022,87.73101 c -0.16677,97.38426 -0.42823,90.57945 3.65482,95.20391 2.46224,2.78874 6.10624,4.94258 9.46981,5.59674 1.37171,0.26682 22.6034,0.44606 47.18123,0.39786 l 44.68704,-0.0879 2.98677,-1.30987 c 3.72036,-1.63089 7.64899,-5.63087 9.09217,-9.25875 1.06584,-2.67924 1.09853,-5.33198 1.09853,-89.12877 0,-70.46786 -0.14175,-86.83728 -0.76702,-88.92131 -1.09759,-3.65825 -4.41839,-7.59185 -8.11362,-9.61021 l -3.15048,-1.72076 h -47.26514 z m 47.5723,17.4956 c 16.06263,0 16.8667,0.0492 17.43237,1.07394 0.80575,1.45957 0.7486,2.02832 -0.30713,3.05181 -0.77674,0.753 -3.16239,0.87299 -17.38455,0.87299 -15.2425,0 -16.55651,-0.0762 -17.43323,-1.01537 -1.18374,-1.26808 -1.19494,-1.99831 -0.0479,-3.11038 0.77761,-0.75387 3.19539,-0.87299 17.74038,-0.87299 z m -45.56739,22.77177 h 45.26021 45.25942 v 59.43003 59.42922 h -45.25942 -45.26021 v -59.42922 z m 45.52206,132.88892 c 0.62287,0.015 1.23139,0.20768 2.16019,0.58579 4.55859,1.85577 5.72098,7.18245 2.29274,10.50598 -1.94637,1.88698 -5.38147,2.52916 -7.56224,1.41322 -1.90067,-0.97258 -4.02746,-4.13251 -4.02746,-5.98401 0,-2.33118 2.29609,-5.16972 4.88764,-6.04096 0.98845,-0.33226 1.62622,-0.49491 2.24913,-0.48002 z" /><path
         id="path1380"
         style="fill:#ff0000;stroke-width:5.93977"
         d="m 427.41549,358.04503 c -2.52582,0.14365 -5.04833,1.00674 -7.09245,2.55853 -0.86899,0.67046 -1.60142,1.61049 -1.70695,2.76198 -0.67081,4.12594 -0.98074,8.30373 -1.35874,12.46631 -0.51376,5.8873 -0.8436,11.79705 -1.31139,17.65654 -0.36139,4.30111 -0.72906,8.61147 -1.4964,12.85967 -0.0571,0.28657 -0.16599,0.87348 -0.23595,1.1699 -0.61833,2.84789 -1.50452,5.89735 -3.79439,7.803 -1.29734,1.16679 -2.91149,1.85234 -4.56744,2.26924 -4.80082,1.24701 -9.73506,1.81787 -14.64412,2.40119 -6.53685,0.7543 -13.10151,1.19868 -19.65212,1.7938 -2.89129,0.33525 -5.86087,0.54661 -8.5909,1.66491 -1.59755,0.64787 -2.92286,2.06307 -3.24898,3.83537 -0.37174,2.07299 -0.26353,4.24177 0.24014,6.28211 0.62145,2.51143 2.38628,4.63933 4.6494,5.73979 2.1706,1.14979 4.62028,1.51732 7.02986,1.64475 6.46097,0.3639 12.9386,0.13667 19.39667,-0.18508 5.45399,-0.33203 10.92555,-0.68031 16.31294,-1.65994 3.64897,-0.74199 7.14477,-2.13195 10.53314,-3.68852 3.20057,-1.51576 6.22616,-3.47687 8.84045,-5.91975 2.96946,-2.77641 5.0244,-6.47537 6.17156,-10.41607 1.63187,-5.57301 2.05209,-11.42385 2.35691,-17.20837 0.33218,-7.62849 0.34931,-15.2696 0.23543,-22.90398 -0.11541,-4.52969 -0.21714,-9.09478 -1.07603,-13.55262 -0.50563,-2.4284 -1.38384,-5.05504 -3.52295,-6.4475 -1.03819,-0.66928 -2.24625,-0.98448 -3.46769,-0.92526 z" /><path
         id="path1230"
         style="fill:#ff0000;stroke-width:5.93977"
         d="m 257.11316,238.78529 c -35.00655,0.0767 -70.01389,0.24836 -105.0169,0.79306 -19.14049,0.33753 -38.28065,0.69487 -57.420972,1.04273 -1.191924,1.60144 -2.567081,3.06877 -3.589174,4.79754 -1.395187,2.36454 -1.768559,5.45194 -0.552103,7.97835 1.018002,2.14885 2.881291,3.95436 5.182545,4.48875 3.116578,0.7669 6.342614,0.8247 9.526664,1.0212 9.03353,0.39345 18.0755,0.5388 27.11488,0.7302 25.77953,0.39864 51.56233,0.48635 77.34416,0.60191 50.14676,0.15921 100.29429,0.18171 150.44076,-0.0772 14.00072,-0.10878 28.00347,-0.14129 42.00102,-0.49523 4.89984,-0.19819 9.79924,-0.45349 14.68986,-0.82588 2.59988,-0.26557 5.29885,-0.38161 7.72227,-1.48867 1.66078,-0.82485 2.98483,-2.23552 4.08859,-3.73145 1.27019,-1.76004 1.80963,-4.17217 0.97914,-6.25112 -0.88143,-2.21904 -2.74815,-3.86331 -4.73701,-5.00414 -2.33619,-1.07403 -4.93928,-1.21484 -7.44878,-1.48543 -7.14286,-0.5823 -14.30981,-0.74112 -21.46863,-0.97871 -21.30856,-0.65773 -42.62754,-0.81293 -63.94395,-0.96209 -24.97042,-0.161 -49.94155,-0.1862 -74.91237,-0.15385 z" /><path
         id="path1301"
         style="fill:#00ff00;stroke-width:5.93977"
         d="m 104.7167,103.19089 c -0.12727,18.555 -0.34587,37.10951 -0.37717,55.66507 0.007,12.0974 0.0143,24.1974 0.30608,36.29135 0.1904,4.86791 0.2638,9.7499 0.79184,14.59507 0.26606,2.07317 0.64272,4.40779 2.31961,5.79881 1.49069,1.25273 3.45905,1.60914 5.30009,1.95399 2.96234,0.49676 5.97266,0.24305 8.95851,0.30547 0.57966,0 1.15932,0 1.73899,0 0.005,-11.66087 -0.0477,-23.32252 0.15474,-34.98217 0.27217,-20.089 0.84148,-40.17175 1.33038,-60.25591 86.7416,0.19942 173.48319,0.39963 260.22478,0.60062 0.43318,28.0985 0.79229,56.1984 1.32732,84.29511 0.0912,3.14652 0.0572,6.30003 0.27502,9.44069 0.52314,0.41315 1.09292,0.78482 1.77815,0.76737 2.80444,0.12297 5.61647,-0.0513 8.41051,-0.29957 2.0062,-0.19531 4.13674,-0.86721 5.39947,-2.59774 1.61049,-2.17 2.0051,-4.9755 2.36766,-7.60785 0.67651,-5.98682 0.7213,-12.02386 0.86467,-18.04279 0.34433,-19.46686 0.38854,-38.94121 -0.0198,-58.40737 -0.2148,-8.69029 -0.64783,-17.37321 -0.96742,-26.06001 -0.0395,-0.98648 -0.0784,-1.97297 -0.11724,-2.95947 -100.01816,0 -200.03633,0 -300.0545,0 -0.004,0.49978 -0.008,0.99955 -0.0114,1.49933 z" /><path
         id="path1372"
         style="fill:#00ff00;stroke-width:5.93977"
         d="m 394.85847,288.61126 c -2.21434,0.0561 -4.25055,1.36769 -5.51811,3.20177 -1.63652,2.07484 -1.94496,4.82883 -2.19501,7.39679 -0.51504,6.46198 -0.54137,12.95198 -0.66355,19.43122 -0.24276,19.83119 -0.33837,39.66394 -0.50402,59.49591 -0.0233,3.08273 -0.0468,6.16547 -0.0701,9.2482 -87.00125,0 -174.00252,0 -261.00378,0 -0.0445,-16.94734 -0.006,-33.8951 -0.13182,-50.84209 -0.1182,-10.21694 -0.20374,-20.44275 -0.8737,-30.64002 -0.30287,-3.83769 -0.57048,-7.71948 -1.58534,-11.44125 -0.45994,-1.63563 -1.21457,-3.33449 -2.71664,-4.2051 -2.38286,-1.66759 -5.56424,-2.03496 -8.22053,-0.86221 -1.69533,0.7616 -3.34293,1.89646 -4.30924,3.56275 -1.10998,2.14991 -1.25239,4.64387 -1.52514,7.01794 -0.56389,6.43683 -0.82486,12.89649 -1.15546,19.34947 -0.51652,12.61596 -0.60246,25.24664 -0.62916,37.87274 0.007,12.65733 0.0862,25.31819 0.52529,37.9681 0.15261,3.27801 0.21205,6.5743 0.68782,9.82371 0.10599,0.78755 0.47322,1.62118 1.26904,1.85913 1.73472,0.46406 3.55098,0.43946 5.32954,0.56641 9.29239,0.39472 18.59502,0.44151 27.89386,0.55282 30.5394,0.25351 61.08008,0.26482 91.62028,0.28585 57.89952,0.0215 115.79904,0.005 173.69856,0.0101 0.34031,-8.86095 0.75292,-17.71946 1.0401,-26.58221 0.35077,-14.54774 0.36409,-29.10239 0.23777,-43.65338 -0.1236,-9.18575 -0.23924,-18.37392 -0.59564,-27.5535 -0.22234,-4.62806 -0.40332,-9.28623 -1.2737,-13.84322 -0.49451,-2.45048 -1.27531,-5.10637 -3.31789,-6.65788 -1.72832,-1.28937 -3.96052,-1.38947 -6.01341,-1.36209 z" /><path
         id="path1374"
         style="fill:#ff0000;stroke-width:5.93977"
         d="m 84.428049,357.95796 c -3.091404,0.0834 -5.80044,2.51839 -6.699518,5.50588 -1.00267,3.45627 -1.345092,7.06939 -1.714717,10.64371 -0.733856,8.1569 -1.010369,16.36445 -0.732078,24.55316 0.224464,6.0226 1.017892,12.04735 2.634191,17.8463 1.550214,5.50214 4.173647,10.83644 8.344029,14.71332 4.407924,4.17959 10.172321,6.44798 15.953014,7.70454 6.06843,1.33198 12.28537,1.63712 18.4614,2.01634 6.678,0.3218 13.40436,0.48893 20.05032,-0.39649 3.34936,-0.50446 6.81571,-1.2091 9.66507,-3.20374 1.85688,-1.28657 3.17494,-3.46969 3.15205,-5.81662 0.0491,-2.03065 -0.67241,-4.1759 -2.31904,-5.39256 -2.1712,-1.62388 -4.87917,-2.14697 -7.45194,-2.69741 -7.31195,-1.3612 -14.73478,-1.8899 -22.0988,-2.85751 -1.77956,-0.23323 -3.7611,-0.52345 -5.52742,-0.82197 -1.52705,-0.25973 -3.045,-0.54625 -4.59546,-0.89871 -0.90215,-0.20424 -1.9712,-0.47335 -2.92614,-0.75319 -2.96595,-0.894 -6.0831,-2.0569 -8.12442,-4.58003 -1.353478,-1.66287 -1.689387,-3.88601 -2.148202,-5.93746 -1.106386,-5.96818 -1.665493,-12.02487 -2.272872,-18.06354 -0.543094,-5.55611 -0.967534,-11.21297 -1.502717,-16.8144 -0.339949,-2.9295 -0.550281,-5.94461 -1.649071,-8.70068 -0.896757,-2.07875 -2.489096,-3.82176 -4.378907,-4.97427 -1.24559,-0.73273 -2.681739,-1.13385 -4.118772,-1.07467 z" /><path
         id="path1376"
         style="fill:#ff0000;stroke-width:5.93977"
         d="m 110.80158,70.810796 c -3.96768,0.09264 -7.98541,0.159674 -11.861099,1.133265 -2.89712,0.789638 -5.37267,2.654213 -7.699091,4.532804 -3.893182,3.278095 -7.408967,7.07774 -10.212624,11.39076 -1.838772,2.752979 -2.93694,5.939853 -3.703137,9.166636 -1.539858,6.549179 -2.16494,13.290109 -2.460678,20.010129 -0.260939,7.16951 -0.141261,14.38747 0.918193,21.48982 0.51936,3.03828 1.098724,6.17245 2.680092,8.83952 1.51008,2.41925 4.357698,3.49502 7.028379,3.72342 2.089714,0.15226 4.278322,-0.10758 6.159102,-1.10403 1.614528,-1.00635 2.088631,-3.05711 2.440106,-4.83532 0.751128,-4.32107 0.996413,-8.71386 1.339143,-13.08383 0.54736,-7.32935 0.857516,-14.63657 1.603872,-21.94257 0.470158,-3.93906 0.920835,-7.97838 2.531374,-11.626929 0.996498,-2.312014 2.848398,-4.189227 5.106088,-5.174584 3.37405,-1.504655 7.07318,-1.926399 10.68824,-2.380251 4.55674,-0.515684 9.05265,-0.860437 13.61922,-1.157902 5.06378,-0.305528 10.16557,-0.577269 15.2698,-0.544279 2.777,-0.0031 5.554,-0.0066 8.33101,-0.0094 0,-5.621974 0,-11.243948 0,-16.865922 -11.6194,-0.541145 -23.23358,-1.260923 -34.86314,-1.521339 -2.30468,-0.04696 -4.6098,-0.06358 -6.91485,-0.03996 z" /><path
         id="path1378"
         style="fill:#ff0000;stroke-width:5.93977"
         d="m 383.8322,70.884582 c -5.50777,0.0979 -11.02907,0.146902 -16.51188,0.7448 -1.78481,0.290573 -3.65099,0.418595 -5.30336,1.232655 -1.35017,0.672029 -1.98021,2.217584 -2.11386,3.682394 -0.4082,2.82826 -0.33588,5.899228 1.13174,8.414852 0.93119,1.65019 2.42687,3.000922 4.25043,3.459436 2.78312,0.762022 5.68603,0.835152 8.54286,1.050586 6.85986,0.39113 13.73022,0.552845 20.58867,0.974375 2.79169,0.19132 5.71409,0.402963 8.51654,0.934053 2.51937,0.451782 5.02308,1.389033 6.94585,3.182723 1.78673,1.630974 3.52471,3.437621 4.46213,5.744944 1.55195,3.6705 1.97437,7.71002 2.32309,11.66034 0.16986,2.08073 0.26895,4.21488 0.34089,6.27004 0.25366,7.34708 -6.6e-4,14.70697 0.46121,22.04711 0.17718,2.41094 0.24978,4.85857 0.83525,7.21038 0.64366,1.93711 2.6009,2.9803 4.42107,3.42512 3.1148,0.70845 6.49402,0.36497 9.35816,-1.11121 2.04148,-1.04397 3.51614,-3.08689 3.98892,-5.37807 0.70915,-3.25448 0.74165,-6.6125 0.89746,-9.9305 0.25899,-9.24073 0.54837,-18.50872 -0.15508,-27.7365 -0.50395,-5.87346 -1.39629,-11.88911 -4.16529,-17.131547 -1.82354,-3.299001 -4.20261,-6.240848 -6.75704,-8.960796 -3.01981,-3.125177 -6.37941,-6.018988 -10.29953,-7.855271 -2.33561,-1.153909 -4.96724,-1.217681 -7.49884,-1.432088 -8.07407,-0.505578 -16.17265,-0.55552 -24.25939,-0.497826 z" /></g></g></svg>
