<?xml version="1.0" encoding="UTF-8" standalone="no"?>
<!-- Created with Inkscape (http://www.inkscape.org/) -->

<svg
   version="1.1"
   id="svg870"
   width="512"
   height="512"
   viewBox="0 0 511.99998 511.99998"
   sodipodi:docname="h8mail.svg"
   inkscape:version="1.2.2 (b0a8486541, 2022-12-01)"
   xmlns:inkscape="http://www.inkscape.org/namespaces/inkscape"
   xmlns:sodipodi="http://sodipodi.sourceforge.net/DTD/sodipodi-0.dtd"
   xmlns="http://www.w3.org/2000/svg"
   xmlns:svg="http://www.w3.org/2000/svg">
  <defs
     id="defs874" />
  <sodipodi:namedview
     id="namedview872"
     pagecolor="#505050"
     bordercolor="#eeeeee"
     borderopacity="1"
     inkscape:pageshadow="0"
     inkscape:pageopacity="0"
     inkscape:pagecheckerboard="0"
     showgrid="false"
     inkscape:zoom="0.59264383"
     inkscape:cx="356.03172"
     inkscape:cy="292.75594"
     inkscape:window-width="1366"
     inkscape:window-height="695"
     inkscape:window-x="0"
     inkscape:window-y="24"
     inkscape:window-maximized="1"
     inkscape:current-layer="g876"
     inkscape:showpageshadow="0"
     inkscape:deskcolor="#505050" />
  <g
     inkscape:groupmode="layer"
     inkscape:label="Image"
     id="g876">
    <g
       id="g1590"
       transform="translate(-1.4922248e-5)">
      <path
         id="rect602"
         style="fill:#ffffff;stroke-width:5.06953"
         d="m 444.83197,9.2408829 -13.05859,4.7285161 c -8.33846,4.155852 -16.4978,8.658635 -24.73047,13.017578 -9.09141,4.868464 -18.17374,9.747904 -27.25976,14.626953 -15.60843,-6.17913 -31.68661,-11.202143 -48.10743,-14.714844 -29.42637,-6.417902 -59.68255,-8.839641 -89.76562,-7.705078 -37.14761,1.457844 -74.1695,8.641271 -108.82617,22.203125 -0.74518,0.2856 -1.48429,0.585818 -2.22656,0.878906 C 112.74331,32.720689 94.793214,22.83317 76.378849,13.854164 72.17114,11.832197 67.586573,10.151821 62.84174,10.496742 c -8.977123,0.381846 -17.455292,6.022567 -21.416016,14.066407 -1.480378,2.801829 -2.920295,5.710471 -3.478515,8.853515 -0.485508,3.74006 0.727976,7.392502 1.148437,11.076172 3.007652,18.641667 6.015785,37.284119 9.023438,55.925774 -9.970602,12.50479 -17.936539,26.70591 -22.660156,42.01954 -3.808223,12.27522 -5.481596,25.2599 -4.433594,38.08984 0.160805,0.59977 -0.08966,1.03729 -0.589844,1.38476 -7.764236,7.72541 -14.1054655,17.18349 -16.925781,27.85547 -2.2809313,8.90303 -1.4351139,18.37621 1.2324218,27.09571 2.2580791,7.21648 6.2048092,13.8113 11.0371092,19.59375 8.066397,9.77573 18.432847,17.38348 29.355469,23.67773 3.733381,2.10747 7.841852,3.96264 12.222656,3.83984 1.940251,-0.009 3.873952,-0.3158 5.732422,-0.86914 0.125647,43.92031 0.160789,87.84232 0.480469,131.76172 0.127074,6.31349 0.114769,12.67094 1.169922,18.91407 1.505149,7.60209 4.417053,14.85191 7.794921,21.79882 7.838383,15.4394 20.293636,28.65102 35.691411,36.69336 8.48966,4.51394 17.6796,7.78378 27.17773,9.33985 5.80624,0.68787 11.64186,1.24901 17.49609,1.1289 79.68488,-0.0104 159.37006,0.0422 239.05469,-0.0605 23.2948,-0.6784 46.12254,-11.4604 61.36133,-29.10743 13.23085,-15.13034 20.89577,-35.0646 20.97266,-55.18359 0.1166,-7.74236 -0.0318,-15.48572 0.0332,-23.22852 -0.01,-38.81008 0.0347,-77.62015 -0.082,-116.42968 -0.0477,-0.91745 -0.0819,-1.83625 -0.15821,-2.75196 9.30438,-6.23468 18.20627,-13.38312 24.91407,-22.4414 4.03471,-5.4589 7.39739,-11.48547 9.44726,-17.97461 1.17032,-3.93529 1.45784,-8.06782 1.34375,-12.1543 0.0847,-6.16139 -0.1269,-12.50791 -2.48633,-18.29101 -2.39807,-6.14354 -5.89131,-11.82312 -9.94726,-17.00586 -1.82487,-2.29393 -3.78247,-4.48227 -5.85938,-6.55078 1.62487,-19.43997 -2.85851,-39.10645 -11.41601,-56.54102 -4.37915,-8.97704 -9.84896,-17.41068 -16.13477,-25.167966 3.02841,-18.814301 6.30411,-37.592778 8.90235,-56.472656 0.68936,-5.78159 1.18721,-11.82077 -0.66993,-17.445313 -1.85797,-5.436611 -5.767,-10.037423 -10.50195,-13.216796 -3.52299,-2.291382 -7.73314,-3.5118165 -11.93945,-3.3710942 -1.63909,-0.037264 -3.2626,-0.080014 -4.90235,-0.1074219 z" />
      <path
         id="path1529"
         style="fill:#ffffff;stroke-width:4.81648"
         d="m 70.454,41.287937 c -1.95123,0.01629 -3.64291,1.520149 -4.11247,3.396509 -0.78089,2.948998 -0.34418,6.043987 -0.0655,9.034395 0.79497,6.520126 1.86199,13.003841 2.97337,19.47565 0.74819,3.949455 1.40437,7.93709 2.58889,11.782867 0.69992,2.044708 2.90443,3.574478 5.07262,3.122064 2.57328,-0.525168 4.75164,-2.132543 6.94303,-3.504165 6.49473,-4.363962 12.90687,-8.886771 18.88332,-13.95951 1.97209,-1.784818 4.11213,-3.517472 5.44805,-5.868103 0.69393,-1.208985 0.42921,-2.75279 -0.4955,-3.758545 -1.96824,-2.224119 -4.57014,-3.736909 -7.03392,-5.329245 -7.10295,-4.342027 -14.52248,-8.130935 -21.98437,-11.79778 -2.52886,-1.137582 -5.10018,-2.508264 -7.92449,-2.601923 -0.0977,0.0026 -0.19538,0.0052 -0.29306,0.0078 z" />
      <path
         id="path1607"
         style="fill:#ffffff;stroke-width:4.81648"
         d="m 439.52709,40.612527 c -2.22903,0.07254 -4.25656,1.160149 -6.30899,1.928911 -6.71358,2.94482 -13.12946,6.545343 -19.35815,10.416361 -2.5464,1.663798 -5.19712,3.247851 -7.3731,5.404701 -1.29648,1.297558 -1.30548,3.341226 -1.05234,5.044888 0.28058,2.17536 2.07906,3.613716 3.56155,5.019424 5.46629,4.84936 11.36979,9.172806 17.37487,13.311521 2.24895,1.462176 4.46609,3.039697 6.94536,4.079704 2.00454,0.588672 4.08798,-0.672587 5.25836,-2.272709 2.06811,-2.817815 2.89493,-6.313456 3.71722,-9.660637 1.15531,-5.361266 1.89659,-10.802375 2.80664,-16.208511 0.47603,-3.358015 1.16052,-6.7195 1.11277,-10.124855 -9.9e-4,-1.76514 -0.84139,-3.449679 -2.21713,-4.532116 -1.25007,-1.165326 -2.65251,-2.441193 -4.46706,-2.406682 z" />
      <path
         id="path1646"
         style="fill:#ffffff;stroke-width:4.81648"
         d="m 305.38513,48.075116 c -5.03988,0.100507 -10.1309,0.300117 -15.05365,1.480884 -2.66381,0.692613 -5.24685,2.087385 -7.01923,4.245767 -1.09296,1.278318 -0.92706,3.108952 -0.51388,4.624428 0.28669,0.85241 1.07584,1.326789 1.91529,1.486476 2.77897,0.943474 5.47903,2.216512 8.42063,2.565613 6.40501,0.928519 12.90845,0.908631 19.35921,0.599219 4.23668,-0.281932 8.53138,-0.572228 12.61887,-1.8099 1.84677,-0.585298 3.45074,-1.80044 4.7856,-3.187871 1.15801,-1.193012 1.49343,-3.201674 0.44344,-4.572149 -1.29577,-1.712784 -3.37854,-2.530931 -5.2755,-3.36871 -3.70375,-1.294256 -7.65883,-1.578404 -11.54116,-1.866451 -2.70976,-0.16563 -5.425,-0.22128 -8.13962,-0.197306 z" />
      <path
         id="path1568"
         style="fill:#ffffff;stroke-width:4.81648"
         d="m 204.14673,48.104311 c -5.04884,0.103932 -10.14764,0.310577 -15.08086,1.483896 -2.4456,0.635355 -4.76553,1.827806 -6.71925,3.440556 -0.99777,0.794603 -1.45882,2.191059 -0.9397,3.395869 0.88033,2.263324 3.10048,3.603795 5.16172,4.639435 2.04551,1.040318 4.29816,1.578774 6.57865,1.710797 6.78611,0.496593 13.60507,0.281641 20.39095,-0.114736 3.69651,-0.304998 7.446,-0.479423 11.04322,-1.454703 1.86752,-0.678642 3.77599,-1.778791 4.75485,-3.594781 0.87858,-1.667724 0.19268,-3.750777 -1.18766,-4.910827 -2.43176,-2.145392 -5.61496,-3.184135 -8.76312,-3.659044 -5.03333,-0.802096 -10.15046,-0.971271 -15.2388,-0.936462 z" />
      <path
         id="path1685"
         style="fill:#ffffff;stroke-width:4.81648"
         d="m 226.8376,94.045746 c -5.2465,0.307675 -10.40066,1.433662 -15.56126,2.371022 -25.55415,4.886662 -50.98839,10.719352 -75.7054,18.959832 -15.80261,5.32979 -31.3919,11.59325 -45.79808,20.11292 -8.38513,5.02665 -16.43648,10.82878 -23.03994,18.12651 -4.28553,4.93217 -8.10908,10.32181 -11.02012,16.19881 -0.94808,2.11538 -2.04605,4.41964 -1.6138,6.7996 0.24856,1.46961 1.91375,2.24395 3.25796,1.81655 2.60549,-0.76448 4.98273,-2.14156 7.44276,-3.2721 7.86809,-3.90316 16.02838,-7.18592 24.3309,-10.0178 2.95107,-1.07076 5.93088,-2.11163 8.76071,-3.47148 6.31742,-1.92496 12.74356,-3.46146 19.13991,-5.09211 6.3304,-1.56229 12.65707,-3.14132 19.06411,-4.49719 6.0498,-1.07673 12.04578,-2.44161 18.09665,-3.51086 6.54799,-1.00627 13.15534,-1.73282 19.66638,-2.89558 1.82718,-0.27654 3.63044,-0.5226 5.39825,-0.72001 6.96877,-0.72441 13.93074,-1.52762 20.90736,-2.17076 10.24106,-0.72619 20.43973,-0.88145 30.69583,-1.07662 21.22411,-0.29269 42.45381,-0.26542 63.67599,0.15813 8.22946,0.19468 16.39766,0.37074 24.61356,0.97779 1.75658,0.18378 3.57784,0.19358 5.23584,0.85903 4.34375,0.95481 8.79896,1.22087 13.19387,1.85323 7.16383,0.92199 14.30493,2.04795 21.37517,3.30904 6.05955,1.08945 12.01661,2.2709 18.04683,3.58868 6.63484,1.44546 13.44394,3.08837 20.00739,4.81904 14.56032,3.89949 29.01478,8.36869 42.88614,14.33877 4.97769,2.13243 9.77918,4.73285 14.95621,6.35853 0.92533,0.31179 1.97945,0.29635 2.76904,-0.3387 0.70753,-0.78696 0.7591,-1.97195 0.45971,-2.96819 -0.75611,-2.8133 -1.89128,-5.52891 -3.273,-8.08667 -3.0564,-5.19522 -7.12728,-9.68411 -11.23734,-14.04064 -4.18038,-4.24091 -8.24159,-8.68268 -13.11967,-12.1288 -5.27786,-3.65814 -11.11977,-6.3628 -16.82437,-9.25517 -13.92217,-7.05484 -28.37819,-13.03272 -43.21878,-17.81495 -23.47557,-7.57376 -47.64617,-12.64106 -71.82186,-17.321322 -4.70562,-0.828696 -9.41397,-1.860691 -14.2052,-1.980211 -2.60939,-0.06079 -5.27099,0.738904 -7.30536,2.408391 -1.20292,0.99512 -1.20844,2.88768 -0.26983,4.067362 1.97942,2.59393 4.6762,4.50816 6.81334,6.96117 1.34956,1.58798 2.86817,3.27186 3.22393,5.40641 0.18374,1.10116 -0.78115,1.9273 -1.768,2.10992 -1.38272,0.31746 -2.98847,0.45669 -4.26092,-0.28418 -0.55949,-1.38771 -1.65929,-2.74786 -3.20051,-2.98581 -2.3255,-1.44002 -4.07389,-3.61207 -6.12342,-5.39872 -2.95945,-2.67966 -6.01508,-5.60978 -9.96976,-6.647702 -2.75316,-0.65959 -5.62097,-0.66852 -8.43316,-0.53916 -2.51186,0.12028 -4.81088,1.372682 -6.64171,3.054062 -2.01844,1.78302 -3.94042,3.67477 -5.9579,5.4596 -0.57806,0.50611 -1.37456,1.21549 -2.0481,1.78681 -2.52988,2.07884 -5.05791,4.31435 -8.12991,5.53369 -1.03883,0.43773 -2.35784,0.39741 -3.11954,-0.54305 -0.72067,-0.58864 -0.92344,-1.6173 -0.46297,-2.43535 1.23079,-2.54468 3.35177,-4.49265 5.28583,-6.49011 2.51511,-2.49887 5.02997,-4.99798 7.54539,-7.496522 -2.60536,-1.1326 -5.11323,-2.51385 -7.80463,-3.431545 -1.59057,-0.477697 -3.26327,-0.588206 -4.91452,-0.523587 z" />
      <path
         id="path1082"
         style="fill:#8f6bc7;stroke-width:0.682311"
         d="m 277.10593,97.755988 c -0.0681,-0.009 -0.23122,0.058 -0.47189,0.20036 -0.67425,0.39883 -0.69391,0.7406 -0.0859,1.49155 0.43404,0.53609 0.94107,0.975492 1.1264,0.975492 0.18533,0 -10e-4,-0.41703 -0.41364,-0.926912 -0.41283,-0.50988 -0.52554,-1.18166 -0.25075,-1.49257 0.13738,-0.15547 0.16382,-0.23928 0.0958,-0.24792 z m -41.04309,1.97626 c -0.0348,-0.0356 -0.30764,0.17347 -0.84208,0.603102 -0.64867,0.52144 -1.17972,1.06477 -1.17972,1.20823 0,0.56854 0.55302,0.20253 1.43343,-0.94817 0.41914,-0.54782 0.62316,-0.827502 0.58837,-0.863162 z m 19.38774,0.881382 c -1.21129,0.15374 -0.38284,0.28222 1.84113,0.28637 2.22399,0.004 3.21515,-0.12166 2.20247,-0.27929 -1.01269,-0.15761 -2.83231,-0.16081 -4.0436,-0.007 z m 8.91743,1.19101 c -0.0348,0.0357 0.16923,0.31534 0.58838,0.86317 0.50871,0.66489 1.03877,1.20923 1.17872,1.20923 0.55467,0 0.19759,-0.56686 -0.92501,-1.4693 -0.53446,-0.42963 -0.8073,-0.63875 -0.84209,-0.6031 z m -16.30272,0.69114 c -0.18533,0 -0.88593,0.62138 -1.55682,1.38126 -0.6709,0.75988 -1.0679,1.38126 -0.88256,1.38126 0.18533,0 0.88592,-0.62138 1.55682,-1.38126 0.67089,-0.75988 1.06789,-1.38126 0.88256,-1.38126 z m 32.4771,0 c -0.0348,0.0357 0.16923,0.31534 0.58838,0.86316 0.50871,0.6649 1.03878,1.20924 1.17872,1.20924 0.55468,0 0.19759,-0.56788 -0.92501,-1.47031 -0.53445,-0.42964 -0.8073,-0.63775 -0.84209,-0.60209 z m -49.32475,1.38126 c -0.18534,0 -0.88593,0.62138 -1.55683,1.38126 -0.67089,0.75988 -1.06888,1.38227 -0.88355,1.38227 0.18533,0 0.88593,-0.62239 1.55683,-1.38227 0.67089,-0.75988 1.06888,-1.38126 0.88355,-1.38126 z m 37.5306,1.72733 1.28436,1.5543 c 1.20649,1.46064 1.74834,1.86829 1.74834,1.31548 0,-0.13109 -0.68236,-0.83052 -1.51635,-1.5543 z m -26.07408,1.72632 c -0.18533,0 -0.88593,0.62239 -1.55683,1.38227 -0.67089,0.75988 -1.06788,1.38126 -0.88256,1.38126 0.18534,0 0.88593,-0.62138 1.55683,-1.38126 0.67089,-0.75988 1.06789,-1.38227 0.88256,-1.38227 z m 43.25936,0 c -0.0348,0.0356 0.16923,0.31635 0.58838,0.86417 0.8804,1.1507 1.43342,1.51671 1.43342,0.94816 0,-0.14345 -0.53007,-0.68779 -1.17872,-1.20923 -0.53446,-0.42964 -0.80829,-0.63876 -0.84308,-0.6031 z m -11.45652,3.45466 c -0.0348,0.0357 0.16923,0.31534 0.58837,0.86316 0.50872,0.66489 1.03878,1.20924 1.17873,1.20924 0.55467,0 0.19759,-0.56788 -0.92502,-1.47031 -0.53445,-0.42964 -0.80729,-0.63775 -0.84208,-0.60209 z m -37.19397,1.38126 c -0.18533,0 -0.88593,0.62138 -1.55683,1.38126 -0.67089,0.75988 -1.06888,1.38227 -0.88355,1.38227 0.18533,0 0.88594,-0.62239 1.55683,-1.38227 0.67089,-0.75988 1.06888,-1.38126 0.88355,-1.38126 z m 41.91183,2.76353 c -0.0348,0.0356 0.16824,0.31533 0.58738,0.86315 0.88041,1.1507 1.43441,1.51672 1.43441,0.94817 0,-0.14345 -0.53105,-0.68779 -1.17971,-1.20923 -0.53445,-0.42964 -0.8073,-0.63775 -0.84208,-0.60209 z m -50.69105,24.3587 c -1.95841,0.13998 -0.52783,0.25597 3.1788,0.25804 3.70663,0.002 5.30809,-0.11321 3.55986,-0.255 -1.74822,-0.14215 -4.78025,-0.14295 -6.73866,-0.003 z m 48.50043,0 c -1.94598,0.13954 -0.35381,0.25399 3.53815,0.25399 3.89196,1e-5 5.48412,-0.11445 3.53814,-0.25399 -1.94598,-0.13954 -5.13031,-0.13954 -7.07629,0 z m -63.01236,0.72453 c -0.64866,0.17376 -0.1186,0.31572 1.17872,0.31572 1.29732,0 1.82837,-0.14196 1.17971,-0.31572 -0.64866,-0.17375 -1.70977,-0.17375 -2.35843,0 z m 82.21944,0 c -0.64866,0.17376 -0.11761,0.31572 1.17971,0.31572 1.29733,0 1.82739,-0.14196 1.17873,-0.31572 -0.64866,-0.17375 -1.70978,-0.17375 -2.35844,0 z m -92.66605,0.679 c -0.834,0.16464 -0.15164,0.29952 1.51634,0.29952 1.66799,0 2.35034,-0.13488 1.51635,-0.29952 -0.83399,-0.16467 -2.1987,-0.16467 -3.03269,0 z m 102.4384,0 c -0.83399,0.16464 -0.15163,0.29952 1.51635,0.29952 1.66799,0 2.35034,-0.13488 1.51635,-0.29952 -0.83399,-0.16467 -2.1987,-0.16467 -3.0327,0 z m -108.8276,0.70024 c -0.65571,0.17514 -0.28274,0.32995 0.82925,0.34405 1.11199,0.0141 1.64883,-0.12952 1.19255,-0.31875 -0.45627,-0.18928 -1.36608,-0.20046 -2.0218,-0.0253 z m 116.59,0 c -0.65572,0.17514 -0.28174,0.32995 0.83024,0.34405 1.11199,0.0141 1.64783,-0.12952 1.19156,-0.31875 -0.45627,-0.18928 -1.36608,-0.20046 -2.0218,-0.0253 z m -124.34549,0.68101 c -0.83831,0.16523 -0.31084,0.30603 1.17181,0.31369 1.48261,0.008 2.16859,-0.12763 1.52425,-0.30053 -0.64434,-0.1729 -1.85775,-0.17839 -2.69606,-0.0132 z m 131.41685,0 c -0.83831,0.16523 -0.31084,0.30603 1.17181,0.31369 1.48261,0.008 2.16859,-0.12763 1.52425,-0.30053 -0.64434,-0.1729 -1.85775,-0.17839 -2.69606,-0.0132 z m -137.49014,0.72149 c -0.46333,0.19164 -0.0836,0.3481 0.84307,0.3481 0.92666,0 1.30542,-0.15646 0.84209,-0.3481 -0.46333,-0.19163 -1.22184,-0.19163 -1.68516,0 z m 144.22189,0 c -0.46333,0.19164 -0.0846,0.3481 0.84209,0.3481 0.92666,0 1.30641,-0.15646 0.84308,-0.3481 -0.46333,-0.19163 -1.22184,-0.19163 -1.68517,0 z m -149.94966,0.67191 c -0.64866,0.17376 -0.1186,0.31572 1.17872,0.31572 1.29732,0 1.82837,-0.14196 1.17971,-0.31572 -0.64865,-0.17375 -1.70976,-0.17375 -2.35843,0 z m 155.00416,0 c -0.64866,0.17376 -0.11761,0.31572 1.17971,0.31572 1.29732,0 1.82739,-0.14196 1.17873,-0.31572 -0.64866,-0.17375 -1.70978,-0.17375 -2.35844,0 z m -160.38344,0.6881 c -0.65572,0.17515 -0.28175,0.32996 0.83024,0.34405 1.11199,0.0141 1.64782,-0.12851 1.19155,-0.31774 -0.45627,-0.18928 -1.36608,-0.20145 -2.02179,-0.0263 z m 166.1122,0.0212 c -0.46333,0.19164 -0.0846,0.34911 0.84208,0.34911 0.92666,0 1.30542,-0.15747 0.84209,-0.34911 -0.46333,-0.19163 -1.22084,-0.19163 -1.68417,0 z m -171.17953,0.69114 c -0.46333,0.19164 -0.0836,0.3481 0.84307,0.3481 0.92666,0 1.30541,-0.15646 0.84209,-0.3481 -0.46333,-0.19163 -1.22183,-0.19163 -1.68516,0 z m 176.57066,0 c -0.46333,0.19164 -0.0846,0.3481 0.84208,0.3481 0.92666,0 1.30641,-0.15646 0.84308,-0.3481 -0.46333,-0.19163 -1.22183,-0.19163 -1.68516,0 z m 5.50367,0.54238 c -0.23412,-0.01 -0.50111,0.0348 -0.74435,0.13459 v -0.001 c -0.53762,0.22052 -0.37739,0.38476 0.40771,0.41792 0.71043,0.03 1.10848,-0.13372 0.88454,-0.36328 -0.11197,-0.11475 -0.31378,-0.17833 -0.5479,-0.18821 z m -186.7912,0.14875 c -0.46333,0.19164 -0.0846,0.3481 0.84208,0.3481 0.92666,0 1.30542,-0.15646 0.84209,-0.3481 -0.46332,-0.19163 -1.22084,-0.19163 -1.68417,0 z m -4.36839,0.66888 c -0.65572,0.17515 -0.28175,0.32996 0.83024,0.34405 1.11199,0.0141 1.64783,-0.12851 1.19156,-0.31774 -0.45627,-0.18928 -1.36608,-0.20145 -2.0218,-0.0263 z m 194.76684,0 c -0.65571,0.17515 -0.28273,0.32996 0.82925,0.34405 1.11199,0.0141 1.64883,-0.12851 1.19255,-0.31774 -0.45627,-0.18928 -1.36608,-0.20145 -2.0218,-0.0263 z m -199.15991,0.71238 c -0.46333,0.19164 -0.0846,0.3481 0.84209,0.3481 0.92666,0 1.30641,-0.15646 0.84308,-0.3481 -0.46333,-0.19163 -1.22184,-0.19163 -1.68517,0 z m 203.52731,0 c -0.46333,0.19164 -0.0836,0.3481 0.84307,0.3481 0.92667,0 1.30542,-0.15646 0.84209,-0.3481 -0.46333,-0.19163 -1.22183,-0.19163 -1.68516,0 z m -207.5709,0.69114 c -0.46333,0.19163 -0.0846,0.3481 0.84209,0.3481 0.92666,0 1.3064,-0.15647 0.84307,-0.3481 -0.46333,-0.19164 -1.22184,-0.19164 -1.68516,0 z m 211.6145,0 c -0.46333,0.19163 -0.0836,0.3481 0.84307,0.3481 0.92666,0 1.30541,-0.15647 0.84208,-0.3481 -0.46333,-0.19164 -1.22183,-0.19164 -1.68515,0 z m -214.87129,0.54238 c -0.23412,-0.01 -0.50111,0.0338 -0.74435,0.13357 -0.53762,0.22052 -0.37837,0.38476 0.40673,0.41792 0.71043,0.03 1.10847,-0.13373 0.88453,-0.36327 -0.11197,-0.11476 -0.31279,-0.17834 -0.54691,-0.18822 z m 220.37595,0 c -0.23413,-0.01 -0.50111,0.0338 -0.74436,0.13357 -0.53761,0.22052 -0.37836,0.38476 0.40673,0.41792 0.71044,0.03 1.10848,-0.13373 0.88454,-0.36327 -0.11197,-0.11476 -0.31279,-0.17834 -0.54691,-0.18822 z m 6.73866,1.38126 c -0.23412,-0.01 -0.50111,0.0338 -0.74435,0.13357 -0.53762,0.22052 -0.37738,0.38476 0.40772,0.41792 0.71042,0.03 1.10847,-0.13372 0.88453,-0.36328 -0.11197,-0.11475 -0.31378,-0.17833 -0.5479,-0.18821 z m -237.89786,0.69114 c -0.23412,-0.01 -0.50111,0.0338 -0.74436,0.13357 -0.53761,0.22051 -0.37837,0.38476 0.40673,0.41792 0.71043,0.03 1.10848,-0.13374 0.88454,-0.36328 -0.11197,-0.11476 -0.31279,-0.17833 -0.54691,-0.18821 z m 266.87729,6.21717 c -0.23412,-0.01 -0.50111,0.0338 -0.74435,0.13357 -0.53762,0.22052 -0.37837,0.38477 0.40673,0.41792 0.71043,0.03 1.10848,-0.13373 0.88453,-0.36327 -0.11196,-0.11476 -0.31278,-0.17834 -0.54691,-0.18822 z m -294.50819,0.69114 c -0.23413,-0.01 -0.50112,0.0338 -0.74436,0.13357 -0.53762,0.22052 -0.37837,0.38375 0.40673,0.41691 0.71043,0.03 1.10848,-0.13272 0.88454,-0.36227 -0.11198,-0.11476 -0.3128,-0.17833 -0.54691,-0.18821 z m -4.71786,1.38126 c -0.23412,-0.01 -0.50111,0.0338 -0.74436,0.13357 -0.53762,0.22051 -0.37836,0.38476 0.40673,0.41792 0.71043,0.03 1.10848,-0.13374 0.88454,-0.36328 -0.11198,-0.11476 -0.31279,-0.17833 -0.54691,-0.18821 z m -4.71786,1.38125 c -0.23412,-0.01 -0.50111,0.0338 -0.74435,0.13358 -0.53762,0.22051 -0.37739,0.38476 0.40771,0.41792 0.71044,0.03 1.10848,-0.13373 0.88454,-0.36328 -0.11197,-0.11476 -0.31378,-0.17834 -0.5479,-0.18822 z m -21.17261,7.53469 c -0.37066,0 -1.12916,0.30158 -1.68516,0.66988 -0.55599,0.36831 -0.7073,0.66989 -0.33664,0.66989 0.37067,0 1.12917,-0.30158 1.68517,-0.66989 0.55599,-0.3683 0.7073,-0.66988 0.33663,-0.66988 z m -40.87526,23.4662 c -0.18533,0 -1.04858,0.77749 -1.91912,1.72734 -0.87055,0.94985 -1.43119,1.72631 -1.24586,1.72631 0.18533,0 1.04858,-0.77646 1.91913,-1.72631 0.87055,-0.94985 1.43118,-1.72734 1.24585,-1.72734 z m 442.87637,3.45365 c -0.0348,0.0357 0.16824,0.31635 0.58738,0.86418 0.50872,0.66489 1.03977,1.20822 1.17971,1.20822 0.55467,0 0.19759,-0.56686 -0.92501,-1.4693 -0.53445,-0.42963 -0.8073,-0.63875 -0.84208,-0.6031 z m -448.29317,2.0724 c -0.18533,0 -0.88593,0.62239 -1.55682,1.38227 -0.67089,0.75988 -1.06888,1.38125 -0.88355,1.38125 0.18533,0 0.88593,-0.62137 1.55683,-1.38125 0.67089,-0.75988 1.06888,-1.38227 0.88354,-1.38227 z m -11.14061,19.60475 c -0.0709,0.0726 -0.11908,0.31406 -0.13525,0.71643 -0.0293,0.72821 0.12948,1.13621 0.35342,0.90667 0.22394,-0.22955 0.24799,-0.82491 0.0533,-1.32357 -0.10757,-0.27554 -0.20063,-0.37216 -0.27148,-0.29953 z m 472.42639,3.45365 c -0.0709,0.0726 -0.11908,0.31507 -0.13526,0.71744 -0.0293,0.72821 0.13051,1.13622 0.35443,0.90667 0.22391,-0.22954 0.24802,-0.82592 0.0533,-1.32459 -0.10756,-0.27553 -0.20162,-0.37215 -0.27249,-0.29952 z m -472.40862,4.29859 c -0.0616,0.15652 -0.0997,0.49146 -0.0997,0.96638 0,0.94985 0.15264,1.33808 0.3396,0.86316 0.18695,-0.47492 0.18695,-1.2514 0,-1.72632 -0.0935,-0.23746 -0.17828,-0.25972 -0.23989,-0.10322 z m 472.42642,0 c -0.0616,0.15652 -0.0997,0.49146 -0.0997,0.96638 0,0.94985 0.15265,1.33808 0.33961,0.86316 0.18697,-0.47492 0.18697,-1.2514 0,-1.72632 -0.0935,-0.23746 -0.17832,-0.25972 -0.23988,-0.10322 z m -240.29483,4.60015 c -2.31664,0.13489 -0.42088,0.24488 4.21241,0.24488 4.63328,0 6.52905,-0.10999 4.21241,-0.24488 -2.31665,-0.13489 -6.10818,-0.13489 -8.42482,0 z m 25.62194,0.70125 c -1.21129,0.15375 -0.38284,0.28223 1.84114,0.28637 2.22399,0.004 3.21514,-0.12166 2.20246,-0.27929 -1.01269,-0.15761 -2.83231,-0.1608 -4.0436,-0.007 z m -46.51319,0.001 c -1.20466,0.15324 -0.21969,0.27827 2.18962,0.27827 2.40931,0 3.39527,-0.12503 2.19061,-0.27827 -1.20465,-0.15324 -3.17558,-0.15324 -4.38023,0 z m 61.67372,0.69417 c -1.02442,0.15878 -0.34586,0.29296 1.50746,0.29851 1.85328,0.005 2.69076,-0.12443 1.86187,-0.2884 -0.8289,-0.16391 -2.34492,-0.16892 -3.36933,-0.0101 z m -75.8263,0.008 c -0.834,0.16464 -0.15164,0.29952 1.51634,0.29952 1.66799,0 2.35034,-0.13488 1.51635,-0.29952 -0.83399,-0.16466 -2.1987,-0.16466 -3.03269,0 z m 87.27393,0.70226 c -0.64866,0.17375 -0.11761,0.31572 1.17971,0.31572 1.29733,0 1.82739,-0.14197 1.17873,-0.31572 -0.64866,-0.17375 -1.70978,-0.17375 -2.35844,0 z m 8.42383,0.68 c -0.83399,0.16466 -0.15163,0.29953 1.51635,0.29953 1.66798,0 2.35034,-0.13487 1.51635,-0.29953 -0.83399,-0.16466 -2.19871,-0.16466 -3.0327,0 z m 7.75055,0.70227 c -0.64866,0.17375 -0.11761,0.31572 1.17972,0.31572 1.29732,0 1.82738,-0.14197 1.17872,-0.31572 -0.64866,-0.17375 -1.70978,-0.17375 -2.35844,0 z m 6.0654,0.69012 c -0.64867,0.17376 -0.11761,0.31572 1.17971,0.31572 1.29732,0 1.82739,-0.14196 1.17872,-0.31572 -0.64866,-0.17375 -1.70978,-0.17375 -2.35843,0 z m 6.40203,0.70935 c -0.46333,0.19164 -0.0836,0.34911 0.84307,0.34911 0.92666,0 1.30541,-0.15747 0.84209,-0.34911 -0.46333,-0.19163 -1.22183,-0.19163 -1.68516,0 z m 5.74158,0.66989 c -0.6557,0.17514 -0.28273,0.32996 0.82926,0.34405 1.11199,0.0141 1.64882,-0.12952 1.19254,-0.31875 -0.45626,-0.18928 -1.36608,-0.20047 -2.0218,-0.0253 z m 5.04167,0.71238 c -0.46333,0.19164 -0.0846,0.3481 0.84208,0.3481 0.92666,0 1.30641,-0.15646 0.84308,-0.3481 -0.46333,-0.19163 -1.22183,-0.19163 -1.68516,0 z m 4.71786,0.69012 c -0.46333,0.19164 -0.0846,0.34911 0.84208,0.34911 0.92666,0 1.30541,-0.15747 0.84209,-0.34911 -0.46333,-0.19163 -1.22084,-0.19163 -1.68417,0 z m 5.50367,0.5434 c -0.23413,-0.01 -0.50111,0.0338 -0.74436,0.13357 -0.53761,0.22051 -0.37837,0.38375 0.40673,0.41691 0.71044,0.03 1.10848,-0.13272 0.88454,-0.36226 -0.11197,-0.11476 -0.31279,-0.17834 -0.54691,-0.18822 z m 3.25679,0.83887 c -0.46333,0.19164 -0.0836,0.3481 0.84307,0.3481 0.92667,0 1.30542,-0.15646 0.84209,-0.3481 -0.46333,-0.19163 -1.22183,-0.19163 -1.68516,0 z m 5.50466,0.54239 c -0.23413,-0.01 -0.5011,0.0338 -0.74435,0.13357 -0.53762,0.22052 -0.37837,0.38476 0.40673,0.41792 0.71043,0.03 1.10848,-0.13373 0.88453,-0.36327 -0.11197,-0.11476 -0.31279,-0.17834 -0.54691,-0.18822 z m 13.47832,2.76353 c -0.23412,-0.01 -0.50111,0.0338 -0.74435,0.13357 -0.53762,0.22052 -0.37837,0.38375 0.40673,0.41691 0.71043,0.03 1.10847,-0.13273 0.88453,-0.36227 -0.11196,-0.11476 -0.31278,-0.17833 -0.54691,-0.18821 z m 18.19618,4.14478 c -0.23412,-0.01 -0.50111,0.0338 -0.74435,0.13357 -0.53762,0.22051 -0.37837,0.38375 0.40673,0.41691 0.71043,0.03 1.10848,-0.13272 0.88453,-0.36226 -0.11196,-0.11476 -0.31278,-0.17834 -0.54691,-0.18822 z m 2.69606,0.69012 c -0.23413,-0.01 -0.50111,0.0338 -0.74435,0.13358 -0.53762,0.22052 -0.37837,0.38476 0.40673,0.41792 0.71043,0.03 1.10847,-0.13373 0.88453,-0.36328 -0.11197,-0.11476 -0.31279,-0.17834 -0.54691,-0.18822 z m -367.18136,1.29626 c -0.18533,0 1.00279,1.39887 2.63979,3.10859 1.637,1.70973 3.12773,3.10859 3.31306,3.10859 0.18533,0 -1.00279,-1.39886 -2.63979,-3.10859 -1.637,-1.70972 -3.12773,-3.10859 -3.31306,-3.10859 z m 372.57249,0.086 c -0.23412,-0.01 -0.50111,0.0338 -0.74435,0.13357 -0.53762,0.22052 -0.37837,0.38375 0.40673,0.41691 0.71043,0.03 1.10848,-0.13272 0.88453,-0.36226 -0.11196,-0.11476 -0.31278,-0.17834 -0.54691,-0.18822 z m 79.50759,0.60513 c -0.18533,0 -1.36559,1.08767 -2.623,2.41745 -1.25742,1.32979 -2.13507,2.41847 -1.94974,2.41847 0.18534,0 1.3656,-1.08868 2.62301,-2.41847 1.25741,-1.32978 2.13506,-2.41745 1.94973,-2.41745 z m -6.6666,6.21717 c -0.0348,-0.0356 -0.30863,0.17347 -0.84307,0.6031 -0.64866,0.52145 -1.17873,1.06477 -1.17873,1.20823 0,0.56855 0.55302,0.20253 1.43343,-0.94816 0.41914,-0.54783 0.62316,-0.82751 0.58837,-0.86317 z m -37.74088,41.44786 -1.51635,0.0799 c -1.14108,0.0603 -1.22415,0.15893 -0.33664,0.39667 1.08952,0.29184 1.17971,1.86499 1.17971,20.64398 0,11.18034 0.15131,20.32726 0.33664,20.32726 0.18533,0 0.33664,-9.32577 0.33664,-20.72393 z m -194.14786,0.085 c -0.23412,-0.01 -0.50111,0.0338 -0.74436,0.13357 -0.53761,0.22052 -0.37836,0.38476 0.40673,0.41792 0.71043,0.03 1.10848,-0.13374 0.88454,-0.36328 -0.11197,-0.11475 -0.31279,-0.17833 -0.54691,-0.18821 z m 168.36994,0.83887 c -0.46333,0.19163 -0.0836,0.34911 0.84307,0.34911 0.92666,0 1.30542,-0.15748 0.84209,-0.34911 -0.46333,-0.19164 -1.22183,-0.19164 -1.68516,0 z m -330.90056,2.01168 c -0.0986,-22.70133 -0.17967,-4.12684 -0.17967,41.27583 0,45.40267 0.0811,63.97615 0.17967,41.27481 0.0985,-22.70133 0.0985,-59.8493 0,-82.55064 z m 162.98967,1.14548 c -0.0879,-0.27578 -0.14991,1.41911 -0.15104,4.5536 -0.002,4.17933 0.10817,5.97886 0.24383,3.99806 0.13543,-1.98081 0.13704,-5.40093 0.003,-7.59945 -0.0335,-0.54962 -0.0665,-0.86028 -0.0958,-0.95221 z m 42.90594,0.95019 c -1.02441,0.15878 -0.34585,0.29196 1.50746,0.2975 1.85329,0.005 2.69077,-0.12443 1.86187,-0.2884 -0.82889,-0.16391 -2.34491,-0.16788 -3.36933,-0.009 z m 120.12716,0.38958 c -0.11052,-0.0652 -0.18855,0.49017 -0.18855,1.48751 0,1.32979 0.13849,1.87312 0.30801,1.20822 0.1695,-0.66489 0.1695,-1.75256 0,-2.41745 -0.0424,-0.16623 -0.0826,-0.25656 -0.11946,-0.27828 z m -119.68687,7.78969 c -0.23412,-0.01 -0.5011,0.0338 -0.74435,0.13357 -0.53762,0.22051 -0.37837,0.38476 0.40673,0.41792 0.71043,0.03 1.10847,-0.13373 0.88454,-0.36328 -0.11198,-0.11476 -0.31279,-0.17833 -0.54692,-0.18821 z m 2.69607,0 c -0.23413,-0.01 -0.50112,0.0338 -0.74436,0.13357 -0.53762,0.22051 -0.37837,0.38476 0.40673,0.41792 0.71044,0.03 1.10848,-0.13373 0.88454,-0.36328 -0.11197,-0.11476 -0.3128,-0.17833 -0.54691,-0.18821 z m -4.66159,0.60512 c -0.0348,-0.0356 -0.30863,0.17347 -0.84308,0.6031 -0.64865,0.52144 -1.17872,1.06578 -1.17872,1.20923 0,0.56856 0.55302,0.20254 1.43342,-0.94816 0.41914,-0.54782 0.62316,-0.82851 0.58838,-0.86417 z m 6.06539,0 c -0.0348,0.0357 0.16825,0.31635 0.58739,0.86417 0.88041,1.1507 1.43441,1.51672 1.43441,0.94816 0,-0.14345 -0.53106,-0.68779 -1.17972,-1.20923 -0.53444,-0.42963 -0.80729,-0.63875 -0.84208,-0.6031 z m -37.79616,2.84853 c -0.23413,-0.01 -0.50111,0.0338 -0.74436,0.13357 -0.53761,0.22052 -0.37837,0.38476 0.40673,0.41792 0.71043,0.03 1.10848,-0.13373 0.88454,-0.36328 -0.11197,-0.11475 -0.3128,-0.17833 -0.54691,-0.18821 z m 76.82831,0 c -0.23413,-0.01 -0.50111,0.0338 -0.74436,0.13357 -0.53761,0.22052 -0.37836,0.38476 0.40673,0.41792 0.71044,0.03 1.10848,-0.13373 0.88454,-0.36328 -0.11197,-0.11475 -0.3128,-0.17833 -0.54691,-0.18821 z m 14.15258,0 c -0.23413,-0.01 -0.5011,0.0338 -0.74435,0.13357 -0.53762,0.22052 -0.37837,0.38476 0.40673,0.41792 0.71043,0.03 1.10848,-0.13373 0.88454,-0.36328 -0.11198,-0.11475 -0.3128,-0.17833 -0.54692,-0.18821 z m 6.73867,0 c -0.23412,-0.01 -0.50111,0.0338 -0.74435,0.13357 -0.53762,0.22052 -0.37739,0.38476 0.40771,0.41792 0.71043,0.03 1.10848,-0.13373 0.88454,-0.36328 -0.11197,-0.11475 -0.31378,-0.17833 -0.5479,-0.18821 z m 29.54115,0.10625 c -1.20465,0.15324 -0.21969,0.27827 2.18962,0.27827 2.40931,0 3.39526,-0.12503 2.19061,-0.27827 -1.20465,-0.15323 -3.17557,-0.15323 -4.38023,0 z m -59.98066,0.0425 c -0.46332,0.19164 -0.0836,0.3481 0.84308,0.3481 0.92665,0 1.30541,-0.15646 0.84208,-0.3481 -0.46333,-0.19163 -1.22183,-0.19163 -1.68516,0 z m 97.2151,0.45739 -5.2233,0.13661 -5.22232,0.13761 4.88568,0.23882 4.88568,0.23779 v 17.93106 c 0,9.86175 0.15229,17.93004 0.33763,17.93004 0.18532,0 0.33663,-8.23709 0.33663,-18.30546 z m -42.51402,0.085 c -0.23412,-0.01 -0.50111,0.0338 -0.74435,0.13357 -0.53762,0.22051 -0.37739,0.38476 0.40771,0.41792 0.71043,0.03 1.10848,-0.13373 0.88454,-0.36328 -0.11197,-0.11476 -0.31378,-0.17833 -0.5479,-0.18821 z m -102.71087,0.49988 c -0.11052,-0.0652 -0.18856,0.49017 -0.18856,1.48751 0,1.32979 0.13948,1.87312 0.309,1.20822 0.1695,-0.66489 0.1695,-1.75256 0,-2.41745 -0.0424,-0.16623 -0.0836,-0.25656 -0.12044,-0.27828 z m 120.62668,1.14144 1.28337,1.55429 c 1.20649,1.46066 1.74933,1.86931 1.74933,1.3165 0,-0.13109 -0.68236,-0.83052 -1.51635,-1.5543 z m -133.77627,0.34607 c -0.0348,0.0357 0.16924,0.31534 0.58838,0.86316 0.8804,1.15069 1.43342,1.51671 1.43342,0.94816 0,-0.14345 -0.53007,-0.68778 -1.17872,-1.20923 -0.53446,-0.42964 -0.80829,-0.63775 -0.84308,-0.60209 z m 97.04629,0 c -0.0348,0.0357 0.16924,0.31534 0.58837,0.86316 0.88041,1.15069 1.43343,1.51671 1.43343,0.94816 0,-0.14345 -0.53006,-0.68778 -1.17872,-1.20923 -0.53445,-0.42964 -0.80829,-0.63775 -0.84308,-0.60209 z m -107.88482,5.61119 c -0.23413,-0.01 -0.50111,0.0338 -0.74436,0.13358 -0.53761,0.22052 -0.37836,0.38476 0.40673,0.41792 0.71044,0.03 1.10848,-0.13374 0.88454,-0.36328 -0.11197,-0.11476 -0.31279,-0.17834 -0.54691,-0.18822 z m 97.04629,0 c -0.23413,-0.01 -0.50111,0.0338 -0.74436,0.13358 -0.53761,0.22052 -0.37837,0.38476 0.40673,0.41792 0.71044,0.03 1.10848,-0.13374 0.88454,-0.36328 -0.11197,-0.11476 -0.31279,-0.17834 -0.54691,-0.18822 z m 34.59465,0.12953 c -0.64866,0.17375 -0.11761,0.31672 1.17971,0.31672 1.29732,0 1.82838,-0.14297 1.17972,-0.31672 -0.64866,-0.17375 -1.71077,-0.17375 -2.35943,0 z m -55.59943,0.0192 c -0.46333,0.19163 -0.0836,0.3481 0.84307,0.3481 0.92666,0 1.30541,-0.15647 0.84209,-0.3481 -0.46333,-0.19164 -1.22183,-0.19164 -1.68516,0 z m 47.53001,0.0364 c -0.17665,0.18108 -0.12091,0.66033 0.1234,1.06554 0.6645,1.10214 1.05297,0.88839 0.59726,-0.32887 -0.21949,-0.5863 -0.544,-0.91775 -0.72066,-0.73667 z m -120.82018,0.42095 c -0.0348,0.0356 0.16924,0.31534 0.58837,0.86316 0.50872,0.66489 1.03977,1.20924 1.17972,1.20924 0.55467,0 0.19759,-0.56787 -0.92501,-1.47031 -0.53446,-0.42964 -0.80829,-0.63775 -0.84308,-0.60209 z m 90.00357,3.10859 -0.20041,12.23096 -0.2004,12.23197 -4.87088,0.23781 v 0.001 l -4.87087,0.2378 5.2233,0.13762 5.22331,0.13661 -0.15203,-12.60739 z m -10.29064,1.29727 c -0.0709,0.0726 -0.11908,0.31507 -0.13525,0.71745 -0.0293,0.7282 0.12948,1.13621 0.35342,0.90667 0.22391,-0.22955 0.24799,-0.82491 0.0533,-1.32358 -0.10756,-0.27554 -0.20062,-0.37317 -0.27148,-0.30054 z m 19.54372,0 c -0.0709,0.0726 -0.11908,0.31507 -0.13525,0.71745 -0.0293,0.7282 0.13046,1.13621 0.3544,0.90667 0.22392,-0.22955 0.24799,-0.82491 0.0533,-1.32358 -0.10757,-0.27554 -0.20161,-0.37317 -0.27246,-0.30054 z m -51.07014,0.084 1.28337,1.55429 c 0.70611,0.85486 1.38846,1.5543 1.51635,1.5543 0.53931,0 0.14161,-0.55541 -1.28338,-1.79209 z m -45.11531,0.69114 -0.20633,10.67868 c -0.11314,5.8731 -0.0498,11.09292 0.14018,11.60055 0.25461,0.68006 1.63367,0.87017 5.24108,0.72047 l 4.89556,-0.20339 0.0286,-10.18993 0.0276,-10.18994 -0.21422,10.0169 -0.21521,10.01791 h -4.6991 -4.6991 l -0.15006,-11.22613 z m 126.84214,0.53529 c -1.2113,0.15375 -0.38284,0.28223 1.84114,0.28637 2.22398,0.004 3.21513,-0.12166 2.20245,-0.27928 -1.01269,-0.15762 -2.83231,-0.16082 -4.04359,-0.007 z m -59.40808,0.92792 c -0.0797,-0.34445 -0.13624,2.5909 -0.13624,7.86255 0,7.02887 0.0998,9.90465 0.22213,6.39021 0.12231,-3.51443 0.12231,-9.26599 0,-12.78042 -0.0306,-0.87861 -0.0593,-1.35752 -0.0859,-1.47234 z m -78.17585,0.68507 c -0.0802,-0.4096 -0.13783,2.39337 -0.13821,7.52254 -5e-4,6.8389 0.0998,9.72987 0.22311,6.42462 0.1235,-3.30524 0.12352,-8.9007 0.001,-12.43436 -0.0306,-0.8834 -0.0592,-1.37627 -0.0859,-1.5128 z m 117.26229,0.43107 c -0.0805,-0.32583 -0.13722,2.45085 -0.13722,7.43755 0,6.64892 0.10154,9.3686 0.22508,6.04414 0.12354,-3.32446 0.12354,-8.76483 0,-12.0893 -0.0309,-0.83112 -0.061,-1.28377 -0.0879,-1.39239 z m 21.99396,4.87033 c -1.01932,0.15827 -0.18566,0.28738 1.85299,0.28738 2.03864,0 2.8733,-0.12911 1.85397,-0.28738 -1.01932,-0.15829 -2.68763,-0.15829 -3.70696,0 z m -2.86388,0.49482 c -0.0348,-0.0356 -0.30863,0.17246 -0.84308,0.60209 -0.64866,0.52145 -1.17872,1.06579 -1.17872,1.20923 0,0.56856 0.55302,0.20254 1.43343,-0.94816 0.41913,-0.54782 0.62315,-0.8275 0.58837,-0.86316 z m -98.8282,0.62233 c -0.0608,0.15413 -0.10172,0.53408 -0.10859,1.10399 -0.0138,1.13982 0.12538,1.69008 0.30999,1.22239 0.18465,-0.46769 0.19652,-1.40027 0.0257,-2.07239 -0.0854,-0.33607 -0.16622,-0.40812 -0.22706,-0.25399 z m 13.44476,0.48369 c -0.0616,0.15651 -0.0997,0.49145 -0.0997,0.96638 0,0.94984 0.15265,1.33808 0.3396,0.86316 0.18696,-0.47492 0.18696,-1.25241 0,-1.72734 -0.0935,-0.23746 -0.17828,-0.25871 -0.23989,-0.1022 z m 82.87593,1.91858 c -0.0708,0.0726 -0.11907,0.31406 -0.13524,0.71643 -0.0293,0.72822 0.12948,1.13622 0.35342,0.90668 0.22391,-0.22955 0.24799,-0.82491 0.0533,-1.32358 -0.10757,-0.27553 -0.20063,-0.37216 -0.27149,-0.29953 z m 64.52971,3.8827 c -0.35902,0 -0.47793,0.46629 -0.26458,1.0362 0.21336,0.56991 0.50687,1.0362 0.65255,1.0362 0.14567,0 0.26556,-0.46629 0.26556,-1.0362 0,-0.56991 -0.2945,-1.0362 -0.65353,-1.0362 z m -60.05667,0.77614 c -0.23413,-0.01 -0.50111,0.0338 -0.74436,0.13357 -0.53762,0.22052 -0.37837,0.38476 0.40673,0.41792 0.71043,0.03 1.10848,-0.13373 0.88454,-0.36328 -0.11197,-0.11475 -0.31279,-0.17833 -0.54691,-0.18821 z m -94.46277,0.14774 c -0.46334,0.19163 -0.0846,0.34911 0.84208,0.34911 0.92665,0 1.30542,-0.15748 0.84209,-0.34911 -0.46333,-0.19164 -1.22084,-0.19164 -1.68417,0 z m -51.20144,6.85873 v 0.001 c -1.58511,0.14594 -0.45582,0.26658 2.50948,0.26917 2.9653,0.003 4.26184,-0.11668 2.88165,-0.26512 -1.38018,-0.14853 -3.80601,-0.15085 -5.39113,-0.005 z m 78.17585,0 v 0.001 c -1.58511,0.14594 -0.45582,0.26658 2.50948,0.26917 2.9653,0.003 4.26282,-0.11668 2.88264,-0.26512 -1.3802,-0.14853 -3.807,-0.15085 -5.39212,-0.005 z m 39.08842,0 v 0.001 c -1.58512,0.14594 -0.45583,0.26658 2.50947,0.26917 2.96531,0.003 4.26184,-0.11668 2.88166,-0.26512 -1.38019,-0.14853 -3.80602,-0.15085 -5.39113,-0.005 z m 84.56109,0.72149 c -0.64866,0.17375 -0.1186,0.31572 1.17873,0.31572 1.29732,0 1.82837,-0.14197 1.1797,-0.31572 -0.64865,-0.17375 -1.70977,-0.17375 -2.35843,0 z m -47.51224,0.0192 c -0.46333,0.19163 -0.0846,0.3481 0.84208,0.3481 0.92666,0 1.30542,-0.15647 0.84209,-0.3481 -0.46333,-0.19164 -1.22085,-0.19164 -1.68417,0 z m -40.94141,19.52279 c -8.44335,0 -14.51216,3.98585 -18.01848,11.83632 -2.12985,4.76862 -1.99523,11.95382 0.31394,16.71979 1.61671,3.33684 1.16465,5.01281 -1.18268,4.3836 -0.83958,-0.22505 -1.47263,0.0692 -1.7513,0.81357 -0.30219,0.80719 0.46981,2.11267 2.50947,4.24294 3.24343,3.38751 4.98737,3.68049 4.98737,0.83887 0,-1.00281 0.18123,-2.01116 0.40278,-2.24036 0.22156,-0.2292 2.19248,0.43675 4.38023,1.47941 13.74853,6.55238 28.84039,-4.19224 27.75036,-19.75654 -0.37286,-5.32396 -1.98983,-8.96159 -5.6794,-12.78043 -3.86518,-4.00062 -7.6698,-5.53717 -13.71229,-5.53717 z m 0.55284,0.61929 c 7.98342,0.21022 15.71349,6.90691 16.68476,15.25657 0.29187,2.50903 0.20725,3.1269 -0.3238,2.3618 -0.56454,-0.81337 -0.72146,-0.50599 -0.72954,1.43084 -0.0244,5.83892 -3.83516,12.18582 -8.94113,14.89228 -2.76115,1.4636 -9.63634,1.86576 -12.54245,0.73364 -5.9623,-2.32271 -10.21042,-8.48724 -10.35579,-15.02889 -0.0573,-2.57657 -0.30686,-3.37644 -0.9724,-3.11466 -1.22029,0.47999 -1.14391,-1.58765 0.1777,-4.82985 2.49569,-6.12251 7.06054,-9.9467 13.58494,-11.38096 1.13185,-0.24881 2.27722,-0.3508 3.41771,-0.32077 z m 87.39536,5.52908 1.63383,1.89935 c 1.52706,1.77555 2.07214,2.21649 2.07214,1.67471 0,-0.12373 -0.83366,-0.97826 -1.85298,-1.89935 z m -200.62294,5.18098 c -0.18533,0 -0.88593,0.62138 -1.55683,1.38126 -0.67089,0.75988 -1.06888,1.38227 -0.88355,1.38227 0.18533,0 0.88594,-0.62239 1.55683,-1.38227 0.67089,-0.75988 1.06888,-1.38126 0.88355,-1.38126 z m 25.54691,11.15429 c -0.90125,0.17497 -1.71047,0.74623 -2.45715,1.71923 -1.80969,2.35822 -1.76058,3.39558 0.25766,5.46432 0.9098,0.93257 2.27452,1.69495 3.03269,1.69495 2.00571,0 4.0742,-2.44452 4.0742,-4.81568 v -2.05418 l 9.2669,-0.22566 9.26691,-0.22667 -9.52457,-0.0698 c -5.49125,-0.0405 -10.10909,-0.39123 -10.90665,-0.82875 -1.11486,-0.61159 -2.10873,-0.83272 -3.00999,-0.65774 z m -29.72378,0.49179 c -0.081,-0.24244 -0.1376,2.50629 -0.13722,7.35051 0.001,6.45896 0.10227,9.0088 0.22607,5.66569 0.1237,-3.34312 0.12361,-8.62739 -0.001,-11.74322 -0.0311,-0.77896 -0.0609,-1.19218 -0.0879,-1.27298 z m 30.21541,0.44827 c 0.34015,0.0373 0.6924,0.14579 1.04644,0.34 1.61506,0.88599 1.74935,2.94464 0.28925,4.44128 -1.26633,1.29802 -2.42597,1.38185 -3.52433,0.25601 -2.00158,-2.05167 -0.1924,-5.2984 2.18864,-5.03729 z m 126.66345,4.02842 c -0.0556,0.21765 -0.092,0.73269 -0.0958,1.49256 -0.007,1.51972 0.12453,2.22286 0.2932,1.5624 0.16868,-0.66047 0.17504,-1.90425 0.0138,-2.76353 -0.0806,-0.42965 -0.15567,-0.50909 -0.21126,-0.29143 z m -126.19946,23.31239 c -0.39393,-0.009 -0.90851,0.0235 -1.58151,0.0739 -2.37816,0.17804 -2.9076,0.49133 -3.27554,1.93882 -0.38243,1.50443 -0.48007,1.37088 -0.75621,-1.0362 -0.22136,-1.92965 -0.35129,-1.25207 -0.43042,2.24543 l -0.11353,5.00795 h 4.38122 4.38023 l -0.0888,-4.66289 c -0.0735,-3.86104 -0.1743,-4.24744 -0.58541,-2.24542 -0.45772,2.22893 -0.50363,2.26656 -0.58542,0.47863 -0.0631,-1.38003 -0.16278,-1.77408 -1.34457,-1.80019 z m -182.53931,6.41956 c -0.0709,0.0726 -0.11907,0.31406 -0.13525,0.71643 h 10e-4 c -0.0293,0.72821 0.12947,1.13622 0.35342,0.90667 0.22392,-0.22955 0.24799,-0.82491 0.0533,-1.32357 -0.10757,-0.27554 -0.20161,-0.37216 -0.27247,-0.29953 z m 13.29075,32.8962 c -0.0348,0.0356 0.16924,0.31534 0.58838,0.86316 0.50871,0.66489 1.03878,1.20923 1.17872,1.20923 0.55468,0 0.19759,-0.56686 -0.92501,-1.4693 -0.53445,-0.42962 -0.8073,-0.63875 -0.84209,-0.60309 z m 10.10899,10.36196 c -0.0348,0.0356 0.16923,0.31534 0.58838,0.86316 0.8804,1.1507 1.43342,1.51671 1.43342,0.94816 0,-0.14344 -0.53105,-0.68677 -1.17971,-1.20822 -0.53445,-0.42963 -0.8073,-0.63876 -0.84209,-0.6031 z m 37.24728,16.1005 c -0.65572,0.17512 -0.28175,0.33007 0.83024,0.34406 1.11199,0.0141 1.64783,-0.12955 1.19156,-0.31876 -0.45628,-0.189 -1.36608,-0.20043 -2.0218,-0.0253 z" />
      <path
         style="fill:#585d5f;fill-opacity:1;stroke-width:6.29321"
         id="path1420"
         sodipodi:type="arc"
         sodipodi:cx="191.85811"
         sodipodi:cy="82.35569"
         sodipodi:rx="16.106491"
         sodipodi:ry="10.080586"
         sodipodi:start="4.7101026"
         sodipodi:end="4.7087761"
         sodipodi:open="true"
         sodipodi:arc-type="arc"
         d="M 191.82128,72.27513 A 16.106491,10.080586 0 0 1 207.96454,82.329299 16.106491,10.080586 0 0 1 191.90562,92.436233 16.106491,10.080586 0 0 1 175.7517,82.388767 16.106491,10.080586 0 0 1 191.79992,72.275169" />
      <path
         style="fill:#585d5f;fill-opacity:1;stroke-width:6.29321"
         id="path1420-3"
         sodipodi:type="arc"
         sodipodi:cx="320.173"
         sodipodi:cy="82.529968"
         sodipodi:rx="16.106491"
         sodipodi:ry="10.080586"
         sodipodi:start="4.7101026"
         sodipodi:end="4.7087761"
         sodipodi:open="true"
         sodipodi:arc-type="arc"
         d="M 320.13618,72.449408 A 16.106491,10.080586 0 0 1 336.27944,82.503577 16.106491,10.080586 0 0 1 320.22051,92.610511 16.106491,10.080586 0 0 1 304.0666,82.563045 16.106491,10.080586 0 0 1 320.11481,72.449448" />
      <path
         style="fill:#f7ab1c;stroke-width:0.682311"
         d="m 313.35416,425.23295 c -0.99601,-1.06562 -1.81092,-2.25088 -1.81092,-2.63391 0,-0.38303 0.7816,-2.35713 1.73689,-4.38691 2.18665,-4.64616 8.43178,-11.41892 12.46181,-13.51467 l 3.07883,-1.60109 2.81808,3.10881 c 1.54995,1.70984 2.81809,3.49077 2.81809,3.95762 0,1.65541 -3.85268,7.03674 -7.33196,10.24109 -3.09116,2.8469 -9.67763,6.76655 -11.37032,6.76655 -0.32427,0 -1.4045,-0.87187 -2.4005,-1.93749 z m 109.44116,-5.37345 c 0.0324,-0.80474 0.19203,-0.96842 0.40716,-0.41735 0.19468,0.49866 0.17074,1.09448 -0.0532,1.32403 -0.22394,0.22954 -0.38323,-0.17847 -0.35396,-0.90668 z m 1.40106,-5.12342 c 0,-0.94984 0.15297,-1.33841 0.33993,-0.86349 0.18695,0.47492 0.18695,1.25207 0,1.72699 -0.18696,0.47493 -0.33993,0.0863 -0.33993,-0.8635 z m 10.00258,-0.26483 c 0,-0.14565 0.60696,-0.42752 1.3488,-0.62637 0.74184,-0.19884 1.17885,-0.0797 0.97113,0.26483 -0.36275,0.60162 -2.31993,0.90663 -2.31993,0.36154 z m -11.70977,-3.09397 c -1.52185,-1.72369 -2.54827,-5.55095 -2.08283,-7.76626 0.30318,-1.44306 -0.0839,-2.215 -1.95497,-3.89896 -1.28314,-1.15481 -3.39484,-2.45887 -4.69265,-2.8979 -3.08453,-1.04346 -7.6565,-8.64292 -8.53737,-14.19071 -0.32881,-2.07078 -1.36281,-4.91901 -2.2978,-6.32939 -1.67034,-2.51966 -1.67696,-2.58086 -0.3796,-3.5123 4.12692,-2.96295 9.2012,-4.6069 15.13233,-4.90254 5.3864,-0.26849 5.95938,-0.1848 5.19534,0.75885 -0.47231,0.58334 -1.59573,1.25022 -2.49648,1.48195 -0.90076,0.23174 -1.9778,1.07264 -2.39343,1.86869 -0.64697,1.23913 -0.43683,1.78458 1.46061,3.79124 2.95986,3.13021 3.9737,3.02942 3.9737,-0.39502 0,-2.01604 0.34967,-2.93071 1.32486,-3.46567 1.09512,-0.60076 1.5176,-0.42529 2.43627,1.01189 0.61128,0.95627 1.5485,1.73868 2.0827,1.73868 1.1538,0 3.85563,5.89612 3.33685,7.28188 -0.1985,0.53021 -1.4623,1.43574 -2.80843,2.01226 -3.91811,1.67806 -7.72011,5.10418 -7.72011,6.95688 0,2.05863 -0.94679,2.69204 -2.02796,1.35671 -1.70974,-2.11168 -5.3853,-0.81565 -5.3853,1.89891 0,0.97266 0.43343,1.22307 1.85331,1.07073 1.22071,-0.13098 1.79368,0.10246 1.67858,0.68388 -0.0961,0.48549 0.28299,1.06275 0.84242,1.28279 0.55944,0.22005 1.01715,0.81477 1.01715,1.32161 0,1.32806 1.33755,1.98075 2.2153,1.08103 2.07616,-2.12811 9.68469,0.44578 11.16552,3.77718 0.3932,0.88458 1.86496,2.23046 3.27058,2.99084 1.94659,1.05302 2.21896,1.3898 1.14288,1.41305 -0.77705,0.0168 -2.2934,0.48066 -3.36967,1.03081 -1.07627,0.55016 -3.98169,1.39388 -6.45648,1.87493 -2.47479,0.48105 -4.35233,1.11893 -4.17231,1.4175 0.60334,1.00066 -0.20554,0.55615 -1.35301,-0.74354 z m 15.13355,-0.0952 c 0.98246,-2.11456 1.29376,-2.50645 1.29376,-1.62877 0,0.37065 -0.47164,1.27732 -1.04808,2.01484 -0.98824,1.26437 -1.00227,1.24232 -0.24568,-0.38607 z m -6.1195,-14.50675 c -0.89858,-0.59524 -0.89858,-0.66964 0,-0.66964 0.55599,0 1.4658,0.30134 2.02179,0.66964 0.89858,0.59524 0.89858,0.66964 0,0.66964 -0.55599,0 -1.4658,-0.30133 -2.02179,-0.66964 z m -9.84164,-1.49808 c -0.63227,-1.0463 3.72996,-1.28503 5.88429,-0.32203 l 2.27252,1.01582 -3.93885,-0.11595 c -2.16636,-0.0638 -4.06444,-0.32381 -4.21796,-0.57784 z M 37.66278,186.88488 c -0.23152,-1.39138 -0.60866,-5.7938 -0.83808,-9.78315 -1.26232,-21.95031 7.41352,-46.16502 23.85161,-66.57111 l 4.37858,-5.43554 -5.59559,-34.679521 -5.59558,-34.679517 1.46656,-3.10533 c 1.95876,-4.1475 5.81473,-6.457207 9.83673,-5.892133 1.87829,0.263888 13.32183,5.978158 33.79057,16.873135 l 30.95046,16.474123 8.09237,-3.229866 c 56.34662,-22.489324 124.20788,-27.830595 187.48856,-14.756984 15.60509,3.223964 31.70732,8.003186 46.12291,13.689495 l 9.18672,3.623755 31.5862,-16.952944 c 31.34069,-16.821191 31.61884,-16.953088 35.78704,-16.970294 3.95092,-0.01632 4.34833,0.13384 6.67988,2.523733 3.87879,3.97586 3.8136,5.141948 -2.4198,43.286179 l -5.45696,33.392879 3.2982,3.91019 c 19.79805,23.47162 28.90577,52.63696 24.47701,78.38188 l -0.45222,2.62875 -3.70662,-2.85647 c -2.03865,-1.57106 -5.70792,-4.08269 -8.15393,-5.58141 -4.26084,-2.61069 -4.49915,-2.9005 -5.68414,-6.91217 -3.16954,-10.73027 -14.2276,-24.10049 -27.27182,-32.97418 -8.19576,-5.5754 -28.04886,-15.57837 -39.7968,-20.0516 -23.26074,-8.85693 -56.70719,-17.61873 -91.28963,-23.914712 -7.32678,-1.33389 -13.44832,-2.425253 -13.60345,-2.425253 -0.15513,0 0.19005,-0.690889 0.76706,-1.535306 4.37879,-6.408035 -5.93576,-12.097996 -24.22336,-13.362673 -17.14239,-1.185482 -35.38146,3.94055 -35.38146,9.943847 0,1.035942 0.4721,2.574419 1.04911,3.418826 0.57701,0.844417 0.76202,1.535306 0.41113,1.535306 -0.3509,0 -7.41912,1.257013 -15.70716,2.793373 C 119.25649,114.82775 66.18229,140.62873 55.9894,173.38921 c -1.52387,4.89781 -1.62738,5.03217 -5.82406,7.55968 -2.34994,1.4153 -6.02963,3.89908 -8.17711,5.51951 l -3.90449,2.94625 z M 197.65931,89.648585 c 6.89903,-2.100059 9.92057,-7.359994 6.66494,-11.60242 -4.7124,-6.140769 -18.10355,-6.772382 -23.62356,-1.114237 -4.17963,4.284215 -1.53742,10.550359 5.367,12.728158 4.19477,1.323119 7.21705,1.32012 11.59162,-0.01145 z m 130.11021,-0.545977 c 8.8596,-3.794417 7.79005,-12.466017 -1.89343,-15.351534 -11.59251,-3.454367 -23.48253,4.986612 -17.191,12.204263 3.8178,4.37979 12.76243,5.854872 19.08443,3.147271 z M 93.17067,76.570311 c 14.03129,-10.481167 15.15309,-11.727484 13.6333,-15.146558 -0.72044,-1.620746 -4.58691,-3.890617 -24.78402,-14.549808 -9.77238,-5.157454 -10.23292,-5.324401 -12.12464,-4.395026 -3.80467,1.869158 -3.82503,2.657102 -0.57809,22.368203 1.62724,9.878407 2.96342,18.208006 2.96928,18.510233 0.006,0.302222 0.78895,1.347252 1.74018,2.322287 1.34625,1.379939 2.16418,1.683674 3.69106,1.370654 1.07886,-0.221176 8.03267,-4.937164 15.45293,-10.479985 z m 343.35446,6.986828 c 1.25558,-0.537745 2.59945,-1.584054 2.98639,-2.325137 0.84567,-1.619704 5.47037,-29.406287 5.47037,-32.86767 0,-1.580328 -0.5718,-3.118489 -1.62649,-4.375318 -2.96807,-3.536947 -5.58006,-2.874445 -20.61329,5.228346 -7.22792,3.895788 -13.68211,7.625934 -14.34263,8.289208 -1.74344,1.750716 -2.24255,5.904215 -0.95208,7.923 1.12887,1.765995 21.57462,17.305473 24.1761,18.374678 2.13119,0.875907 2.29927,0.867441 4.90163,-0.247107 z M 222.64165,60.443283 c 14.00396,-4.585407 3.61131,-11.448166 -17.2428,-11.386253 -15.14233,0.04497 -25.37728,3.534486 -22.78132,7.767115 2.38521,3.88901 10.75902,5.661035 25.14009,5.320023 8.27584,-0.196235 11.36795,-0.549588 14.88403,-1.700885 z m 99.82567,0.594342 c 7.24007,-1.780735 9.84262,-5.923841 5.2503,-8.358162 -4.94083,-2.619053 -10.68302,-3.598663 -20.89191,-3.564121 -7.75187,0.02627 -10.87894,0.336059 -15.1265,1.498754 -5.08555,1.392083 -8.46114,3.492971 -8.46114,5.266012 0,2.086961 5.08867,4.611716 11.79382,5.85153 4.33745,0.802016 23.30353,0.322246 27.43543,-0.694013 z"
         id="path1080" />
      <path
         style="fill:#389be5;stroke-width:0.682311"
         d="m 412.29616,426.19571 c -8.29686,-2.11072 -15.54889,-8.18163 -19.39349,-16.23494 -2.0639,-4.32327 -2.17236,-4.94707 -2.17236,-12.49462 0,-7.4624 0.12693,-8.21648 2.09292,-12.43436 1.15111,-2.4696 3.3164,-5.88905 4.81178,-7.59877 2.67182,-3.05483 2.74261,-3.0866 4.09324,-1.83689 1.90366,1.76143 3.49162,5.42077 3.49162,8.04622 0,2.29764 3.81826,10.01229 5.92074,11.96262 0.66268,0.61473 2.25522,1.56868 3.53898,2.11991 3.1198,1.33959 5.59745,4.11408 5.11424,5.72697 -0.56293,1.87905 0.6286,6.3871 2.30107,8.70584 l 1.46758,2.03467 -1.50316,5.41122 c -0.90223,3.24792 -1.9343,5.5808 -2.58158,5.83541 -0.93531,0.36789 -0.94678,0.50951 -0.0864,1.06724 1.44958,0.93967 -2.9352,0.74777 -7.09518,-0.31052 z m 17.94518,-2.2632 c 0.81675,-1.02922 0.77638,-1.10836 -0.34524,-0.67676 -0.83752,0.32227 -0.43579,-0.4579 1.17938,-2.29045 1.34725,-1.52856 2.44955,-3.22764 2.44955,-3.77572 0,-0.54808 0.82902,-1.40379 1.84225,-1.90158 1.99468,-0.97994 5.25508,-6.30727 4.56281,-7.45541 -0.23382,-0.38781 -1.34062,-1.19037 -2.45954,-1.78346 -1.11892,-0.5931 -3.2984,-2.42052 -4.84328,-4.06094 -3.10767,-3.29987 -7.20657,-4.60987 -9.86348,-3.15234 -1.20065,0.65865 -1.63288,0.52987 -2.72377,-0.81151 -0.71316,-0.87691 -1.30675,-2.0192 -1.31908,-2.53842 -0.015,-0.63368 -0.58158,-0.83446 -1.72334,-0.61074 -2.27099,0.445 -2.70241,-0.49429 -1.01939,-2.21942 1.62244,-1.66304 3.09784,-1.81334 3.63795,-0.37059 0.63414,1.69389 2.45202,1.23479 2.45202,-0.61924 0,-2.04101 3.76211,-5.57264 7.84934,-7.36849 3.31201,-1.45521 3.57512,-2.42978 1.8495,-6.85044 -0.68106,-1.74474 -1.51773,-2.77717 -2.25058,-2.77717 -0.64158,0 -1.52139,-0.79838 -1.95514,-1.77417 -0.56287,-1.26627 -1.21622,-1.71122 -2.28229,-1.55429 -1.1868,0.1747 -1.59688,0.84263 -1.99603,3.25116 -0.27629,1.6672 -0.66582,3.19883 -0.86561,3.40362 -0.19979,0.20479 -1.28203,-0.52993 -2.40498,-1.63272 -2.57541,-2.52914 -2.36864,-4.43491 0.64869,-5.97881 1.26474,-0.64714 2.49617,-1.50275 2.73649,-1.90134 0.57234,-0.94923 6.80155,0.92189 10.54947,3.16885 4.01863,2.40926 9.4939,8.63562 11.45498,13.02638 4.78901,10.72235 3.12802,23.25506 -4.25358,32.09461 -3.4671,4.15187 -14.01461,11.07524 -10.9071,7.15939 z m 4.23369,-26.36535 c 0.29419,-0.48792 -2.29635,-2.17341 -3.34047,-2.17341 -0.8981,0 -0.1264,2.019 0.87413,2.28701 1.91413,0.51273 2.09368,0.50447 2.46634,-0.1136 z m -4.65585,-1.4839 c 0.62306,-1.03336 -2.9116,-2.16623 -6.02687,-1.93165 -3.65926,0.27554 -3.47929,1.48586 0.29767,2.00189 4.86067,0.66409 5.28961,0.65883 5.7292,-0.0702 z m -196.45212,15.54423 v -1.72699 h 10.78292 10.78292 l -0.004,-10.88006 c -0.002,-5.98403 -0.31613,-12.03293 -0.69792,-13.442 -0.72832,-2.68801 -3.94386,-6.49067 -6.32288,-7.47737 -2.16857,-0.89941 31.13251,-0.79996 34.30363,0.10245 3.43537,0.9776 7.40786,5.0495 8.3616,8.57084 0.40976,1.51293 0.74586,8.1024 0.74793,14.66387 l 0.004,11.91626 h -28.9791 -28.9791 z m 53.95891,-4.51448 c 1.14731,-0.62939 1.30356,-1.4959 1.30356,-7.22907 0,-5.83019 -0.14302,-6.59242 -1.36244,-7.26137 -0.81788,-0.44867 -5.09471,-0.70663 -10.70015,-0.6454 -5.99759,0.0655 -9.86189,-0.18553 -10.80312,-0.70187 -2.1236,-1.16495 -4.10002,-0.63813 -5.65738,1.50801 -1.14729,1.58103 -1.23993,2.15895 -0.58299,3.63686 1.22968,2.76638 3.7961,3.63927 6.42818,2.18633 1.71168,-0.94488 3.50734,-1.15403 8.5473,-0.99556 l 6.38037,0.20061 0.10425,4.1059 c 0.0777,3.05918 0.41117,4.33595 1.30819,5.00828 1.45,1.08681 3.27099,1.15455 5.03423,0.18728 z m 57.33235,-3.64247 c -2.97963,-1.16077 -7.25308,-4.88157 -8.54282,-7.43806 -5.5444,-10.99001 1.97707,-24.264 13.74879,-24.264 8.67617,0 15.03209,5.78201 16.05117,14.60181 0.73189,6.33435 -2.99582,13.33553 -8.71425,16.36665 -2.76115,1.46359 -9.63679,1.86572 -12.54289,0.7336 z m 1.72089,-12.58984 c 5.12437,-2.61748 8.29571,-7.89563 8.29571,-13.80675 0,-2.92871 -0.082,-3.04809 -2.40086,-3.49399 -1.32048,-0.25393 -3.76929,-0.30358 -5.44181,-0.11035 -7.25975,0.83876 -12.64747,9.78556 -10.60267,17.60666 0.34813,1.33154 0.85907,1.5543 3.5651,1.5543 2.02944,0 4.38352,-0.62561 6.58453,-1.74987 z"
         id="path1078" />
      <path
         id="path1076"
         style="fill:#774cbc;stroke-width:0.682311"
         d="m 255.72009,139.12593 c -7.9811,5.2e-4 -15.8762,0.14587 -19.48844,0.43411 l -5.55994,0.44321 v 44.34495 44.34496 h 25.60911 25.60911 v -44.34293 -44.34394 l -6.16905,-0.44929 c -3.95338,-0.28789 -12.0197,-0.43164 -20.00079,-0.43107 z m -37.23544,0.75792 c -0.23412,-0.01 -0.5011,0.0338 -0.74435,0.13357 -0.53762,0.22051 -0.37837,0.38476 0.40673,0.41792 0.71043,0.03 1.10847,-0.13373 0.88453,-0.36328 -0.11196,-0.11476 -0.31278,-0.17833 -0.54691,-0.18821 z m 76.15406,0 c -0.23413,-0.01 -0.50111,0.0338 -0.74436,0.13357 -0.53762,0.22051 -0.37738,0.38476 0.40772,0.41792 0.71043,0.03 1.10848,-0.13373 0.88453,-0.36328 -0.11196,-0.11476 -0.31378,-0.17833 -0.54789,-0.18821 z m -86.37559,0.83887 c -0.46333,0.19164 -0.0846,0.3481 0.84209,0.3481 0.92666,0 1.3064,-0.15646 0.84307,-0.3481 -0.46332,-0.19163 -1.22183,-0.19163 -1.68516,0 z m 94.35023,0 c -0.46332,0.19164 -0.0836,0.3481 0.84308,0.3481 0.92665,0 1.30541,-0.15646 0.84208,-0.3481 -0.46333,-0.19163 -1.22183,-0.19163 -1.68516,0 z m -102.29723,0.72959 -5.54613,0.55149 c -10.72745,1.06628 -23.85055,2.74639 -34.41597,4.40687 -5.87085,0.92267 -10.79866,1.67775 -10.95108,1.67775 -0.1524,0 -0.2774,20.23917 -0.2774,44.97638 v 44.97639 l 1.51635,-0.3815 c 3.81247,-0.96019 26.27279,-4.07446 37.23444,-5.16276 l 12.13079,-1.20418 0.15499,-44.92073 z m 111.93829,10e-4 -0.0276,44.7649 c -0.0264,42.20785 0.0395,44.76591 1.15305,44.76591 2.52931,0 31.26178,3.55814 38.59976,4.78026 4.26262,0.70993 8.58421,1.32401 9.60354,1.36406 l 1.85298,0.0729 V 192.6449 c 0,-24.50605 -0.12499,-44.55644 -0.2774,-44.55644 -0.15242,0 -5.08022,-0.75509 -10.95108,-1.67776 -10.56429,-1.66029 -23.69052,-3.34125 -34.41202,-4.40687 z m -193.79247,13.12044 -9.43572,2.67549 c -14.74681,4.18124 -34.90252,11.43449 -40.43595,14.55127 -0.74133,0.41756 -1.49884,0.719 -1.68417,0.66988 -0.18535,-0.0491 -0.2569,20.0691 -0.15894,44.70722 l 0.1777,44.79627 4.5214,-2.10073 c 5.37363,-2.49749 29.20041,-10.6129 39.42209,-13.42704 l 7.23425,-1.99144 0.17967,-44.93996 z m 275.63776,0.0243 0.33762,44.83978 0.33664,44.83877 8.42383,2.34763 c 13.55095,3.77617 35.94118,11.80324 40.96707,14.68686 1.08236,0.62101 1.17457,-2.10452 1.49068,-44.01911 l 0.33762,-44.68091 -7.41391,-3.1693 c -9.94405,-4.25147 -19.97387,-7.74583 -33.35966,-11.6228 z M 33.20881,194.3712 c -0.0348,-0.0357 -0.30764,0.17346 -0.84208,0.60309 -0.64867,0.52145 -1.17972,1.06579 -1.17972,1.20923 0,0.56856 0.55401,0.20254 1.43441,-0.94815 0.41915,-0.54782 0.62218,-0.82852 0.58739,-0.86417 z m -13.28976,27.20318 c -0.0709,0.0726 -0.11908,0.31508 -0.13525,0.71745 -0.0293,0.72821 0.12948,1.13622 0.35342,0.90667 0.22394,-0.22955 0.24799,-0.82592 0.0533,-1.32459 -0.10757,-0.27554 -0.20063,-0.37216 -0.27148,-0.29953 z m 472.42639,0 c -0.0709,0.0726 -0.11908,0.31508 -0.13526,0.71745 -0.0293,0.72821 0.13046,1.13622 0.35443,0.90667 0.22391,-0.22955 0.24797,-0.82592 0.0533,-1.32459 -0.10756,-0.27554 -0.20162,-0.37216 -0.27249,-0.29953 z m -265.21188,7.5701 c -0.46332,0.19164 -0.0846,0.34911 0.84209,0.34911 0.92666,0 1.30542,-0.15747 0.84209,-0.34911 -0.46333,-0.19163 -1.22084,-0.19163 -1.68418,0 z m 56.61034,0 c -0.46333,0.19164 -0.0846,0.34911 0.84208,0.34911 0.92666,0 1.30542,-0.15747 0.84209,-0.34911 -0.46332,-0.19163 -1.22084,-0.19163 -1.68417,0 z m 14.50205,0.66989 c -0.65571,0.17515 -0.28273,0.32996 0.82926,0.34405 1.11199,0.0141 1.64882,-0.12952 1.19254,-0.31875 -0.45627,-0.18928 -1.36608,-0.20047 -2.0218,-0.0253 z m -82.73279,0.47863 -0.17276,127.10102 -0.17276,127.1 -35.5483,0.18821 -35.5483,0.18821 35.71909,-0.009 35.7181,-0.009 0.003,-127.28012 z m 82.88877,72.18868 1.28337,1.5543 c 1.20649,1.46065 1.74933,1.86829 1.74933,1.31548 0,-0.13109 -0.68236,-0.83052 -1.51635,-1.55429 z m 113.3885,4.7236 c -0.46333,0.19163 -0.0836,0.3481 0.84307,0.3481 0.92666,0 1.30542,-0.15647 0.84209,-0.3481 -0.46333,-0.19164 -1.22183,-0.19164 -1.68516,0 z m -119.11726,10.81937 c -0.0348,-0.0357 -0.30763,0.17245 -0.84208,0.60209 -0.64866,0.52144 -1.17971,1.06578 -1.17971,1.20923 0,0.56855 0.55302,0.20253 1.43342,-0.94816 0.41914,-0.54783 0.62316,-0.82751 0.58837,-0.86316 z m 86.20776,1.46625 c -0.23413,-0.01 -0.5011,0.0338 -0.74435,0.13358 -0.53762,0.22052 -0.37837,0.38476 0.40673,0.41792 0.71043,0.03 1.10848,-0.13374 0.88454,-0.36328 -0.11198,-0.11476 -0.3128,-0.17834 -0.54692,-0.18822 z m -55.11472,0.0617 c -0.4862,-0.16612 -1.20468,0.0266 -1.59631,0.42804 -0.5001,0.51262 -0.23645,0.60203 0.88454,0.30155 0.91129,-0.24427 1.21652,-0.55713 0.71177,-0.72959 z m -47.94168,1.92567 c -0.0348,0.0356 0.16924,0.31534 0.58838,0.86316 0.50872,0.66489 1.03977,1.20923 1.17971,1.20923 0.55467,0 0.19759,-0.56686 -0.92501,-1.4693 -0.53445,-0.42962 -0.80829,-0.63875 -0.84308,-0.60309 z m 9.43572,6.21717 c -0.0348,-0.0356 -0.30863,0.17347 -0.84308,0.6031 -0.64865,0.52145 -1.17872,1.06477 -1.17872,1.20823 0,0.56855 0.55302,0.20253 1.43342,-0.94816 0.41914,-0.54783 0.62316,-0.82751 0.58838,-0.86317 z m 6.40203,1.72734 1.28337,1.55429 c 1.20648,1.46066 1.74932,1.8683 1.74932,1.31549 0,-0.13109 -0.68235,-0.83052 -1.51635,-1.5543 z m 12.65598,3.36966 c -0.0709,0.0726 -0.11907,0.31507 -0.13525,0.71744 -0.0293,0.72821 0.13046,1.13622 0.35441,0.90668 0.22391,-0.22955 0.24799,-0.82593 0.0533,-1.32459 -0.10757,-0.27554 -0.20162,-0.37216 -0.27247,-0.29953 z m 0,3.45466 c -0.0709,0.0726 -0.11907,0.31406 -0.13525,0.71643 -0.0293,0.72821 0.13046,1.13622 0.35441,0.90667 0.22391,-0.22954 0.24799,-0.8249 0.0533,-1.32357 -0.10757,-0.27554 -0.20162,-0.37216 -0.27247,-0.29953 z m 85.34494,12.25727 c -0.23413,-0.01 -0.50112,0.0338 -0.74436,0.13358 -0.53761,0.22051 -0.37738,0.38476 0.40772,0.41791 0.71043,0.03 1.10847,-0.13373 0.88453,-0.36328 -0.11197,-0.11475 -0.31377,-0.17833 -0.54789,-0.18821 z m -105.56983,58.84458 c -0.65571,0.17515 -0.28274,0.32996 0.82925,0.34405 1.11199,0.0141 1.64882,-0.12851 1.19255,-0.31774 -0.45627,-0.18927 -1.36609,-0.20144 -2.0218,-0.0263 z" />
      <path
         style="fill:#d1573f;stroke-width:0.682311"
         d="m 282.02499,406.30836 c -0.4448,-0.45593 -0.80872,-2.63194 -0.80872,-4.83559 v -4.00662 h -6.94097 -6.94096 l 0.27537,-2.4178 0.27537,-2.41778 h 9.56351 c 6.5397,0 9.8192,0.2621 10.37222,0.82895 1.08673,1.11392 1.08673,11.73491 0,12.84884 -0.44479,0.45592 -1.74885,0.82895 -2.89791,0.82895 -1.14905,0 -2.45311,-0.37303 -2.89791,-0.82895 z M 227.2157,93.687921 c -0.83829,-1.095648 -0.81445,-1.120081 0.25445,-0.260821 1.1226,0.902439 1.4796,1.469715 0.92493,1.469715 -0.13995,0 -0.67067,-0.544003 -1.17938,-1.208894 z m 56.6963,0.948078 c 0,-0.143445 0.53072,-0.687448 1.17939,-1.208899 1.06889,-0.85926 1.09273,-0.834827 0.25444,0.260821 -0.8804,1.150696 -1.43383,1.516629 -1.43383,0.948078 z m -93.49888,-4.37967 c 1.02442,-0.158787 2.54077,-0.154538 3.36967,0.0094 0.82889,0.163967 -0.009,0.293881 -1.86258,0.2887 -1.85332,-0.0055 -2.53151,-0.139348 -1.50709,-0.29813 z m 128.37489,0.0082 c 0.83399,-0.164657 2.1987,-0.164657 3.0327,0 0.83399,0.164652 0.15163,0.299373 -1.51635,0.299373 -1.66798,0 -2.35034,-0.134721 -1.51635,-0.299373 z m -34.28804,-3.484604 c -0.83829,-1.095643 -0.81445,-1.120076 0.25445,-0.260816 1.1226,0.902439 1.4796,1.469715 0.92493,1.469715 -0.13994,0 -0.67067,-0.544003 -1.17938,-1.208899 z m -40.47636,-6.170968 c 0.4865,-0.199551 1.06777,-0.175014 1.29171,0.0545 0.22395,0.229544 -0.1741,0.392817 -0.88454,0.362819 -0.78509,-0.03316 -0.94478,-0.196835 -0.40717,-0.417348 z m 23.58765,0 c 0.48649,-0.199551 1.06776,-0.175014 1.2917,0.0545 0.22394,0.229544 -0.1741,0.392817 -0.88453,0.362819 -0.7851,-0.03316 -0.94479,-0.196835 -0.40717,-0.417348 z m -16.89044,-0.676371 c 0.46333,-0.191634 1.2215,-0.191634 1.68483,0 0.46333,0.191634 0.0842,0.348432 -0.84241,0.348432 -0.92666,0 -1.30575,-0.156798 -0.84242,-0.348432 z m 9.43506,0 c 0.46333,-0.191634 1.2215,-0.191634 1.68483,0 0.46333,0.191634 0.0842,0.348432 -0.84242,0.348432 -0.92666,0 -1.30574,-0.156798 -0.84241,-0.348432 z m -79.69253,-2.996488 c 0.67089,-0.759874 1.37144,-1.381591 1.55677,-1.381591 0.18533,0 -0.21195,0.621717 -0.88284,1.381591 -0.67089,0.759879 -1.37143,1.381597 -1.55677,1.381597 -0.18533,0 0.21195,-0.621718 0.88284,-1.381597 z"
         id="path1074" />
      <path
         id="path1072"
         style="fill:#5720ad;stroke-width:0.682311"
         d="m 230.64942,137.79914 c -8.36535,-0.0184 -16.70654,0.69617 -25.0423,1.3162 -2.42926,0.18562 -4.8585,0.37143 -7.28778,0.55685 -0.10205,29.9362 -0.20553,59.87239 -0.30664,89.80859 -8.19924,0.79436 -16.3973,1.60721 -24.562,2.70862 -7.45585,0.99946 -14.9229,1.96211 -22.32472,3.31482 0,-29.98568 0,-59.97135 0,-89.95703 -1.62514,0.36809 -3.27651,0.77286 -4.81566,1.10025 -9.94904,2.14326 -19.94515,4.07171 -29.84254,6.44858 -0.11649,29.94466 -0.23444,59.88932 -0.35156,89.83398 -6.30473,1.67663 -12.55477,3.54718 -18.76052,5.55821 -6.13394,1.97237 -12.22408,4.07752 -18.33714,6.11367 0.13072,47.05582 0.19892,94.11186 0.38192,141.16752 0.0823,9.82999 0.038,19.66555 0.43866,29.48905 0.10894,3.04043 0.44041,6.09201 1.39328,8.9954 3.5389,12.4884 10.11165,24.21924 19.50908,33.23931 7.01717,6.78597 15.55274,11.93197 24.73922,15.19895 3.97614,1.42299 8.04217,2.68135 12.21955,3.3407 7.38807,0.26193 14.78486,0.21966 22.17699,0.30202 19.09573,0.10869 38.19186,0.11804 57.28778,0.1772 0.11119,-84.88607 0.22673,-169.77213 0.3418,-254.6582 5.06906,-0.21486 10.11583,-0.74936 15.16406,-1.23633 0,-30.94661 0,-61.89323 0,-92.83984 -0.67382,0.007 -1.34765,0.0143 -2.02148,0.0215 z m 49.24023,2 c 0,30.22071 0,60.44141 0,90.66211 3.39968,0.49703 6.80354,1.00386 10.24381,1.09766 2.83002,0.1466 5.53736,0.12443 8.34188,0.2931 5.12574,0.20365 10.16004,0.9609 15.29352,1.24882 0.8153,0.25937 0.31012,-0.90016 0.44892,-1.3677 0.0243,-28.89618 -0.069,-57.79283 0.11032,-86.68862 -0.0431,-1.18015 0.13604,-2.3822 -0.014,-3.54628 -0.0403,-0.75882 -0.80669,-1.20903 -1.44979,-1.4608 -2.71609,-0.63962 -5.52333,-0.78051 -8.29253,-1.07106 -7.51845,-0.67504 -15.05904,-1.1847 -22.61148,-1.16668 -0.6902,-0.007 -1.3804,-0.0147 -2.0706,-0.022 0,0.67383 0,1.34766 0,2.02148 z m 81.54688,8.26368 c 0,30.3802 0,60.76041 0,91.14062 9.13074,1.784 18.32936,3.53406 27.31022,5.80421 1.70338,0.35364 3.40483,0.9148 5.13007,1.0442 0.57311,-0.17935 1.18097,-0.31113 1.44252,-0.91872 0.78405,-1.26188 0.61373,-2.85284 0.76573,-4.27961 0.29635,-8.352 0.21288,-16.71239 0.23068,-25.06844 -0.0375,-20.89645 -0.14939,-41.7927 -0.22102,-62.68906 -10.19034,-2.44451 -20.48348,-4.42198 -30.72461,-6.63672 -0.81662,-0.19374 -1.91997,-0.44595 -2.84624,-0.66193 -0.59803,-0.14717 -1.37059,-0.51396 -1.08735,0.44787 0,0.60586 0,1.21172 0,1.81758 z m -294.92188,22.5039 c -4.61564,1.72602 -8.85911,4.27695 -13.12498,6.71084 -9.84657,5.70261 -19.31165,12.48208 -26.44142,21.45713 -4.16445,5.30737 -7.48784,11.47784 -8.56788,18.19702 -0.52587,4.68135 0.0653,9.43685 1.2031,13.98765 1.34864,5.24717 4.19881,9.98067 7.46447,14.2517 6.4818,8.29495 15.02879,14.7137 23.98889,20.11199 1.8653,1.0359 3.67938,2.25759 5.73109,2.88589 1.40249,0.19595 2.68949,-0.63575 3.95962,-1.11198 2.76378,-1.25068 5.43575,-2.69243 8.15235,-4.04102 0.12798,-31.17316 0.25068,-62.34635 0.375,-93.51953 -0.91341,0.35677 -1.82682,0.71354 -2.74024,1.07031 z m 377.63868,1.75781 c -0.3166,1.46819 -0.1715,3.00639 -0.26233,4.50347 -0.34029,23.34415 -0.20524,46.69174 -0.23572,70.03755 0,5.375 0,10.75 0,16.125 3.43983,1.70513 6.75497,3.70837 10.37557,5.01712 1.76381,0.55288 3.49503,-0.49299 5.02342,-1.26549 4.48554,-2.5578 8.72158,-5.53486 12.85282,-8.62613 7.24439,-5.463 13.92176,-11.99237 18.19928,-20.08448 1.29909,-2.6044 2.75968,-5.20092 3.34578,-8.08008 0.54247,-3.32923 0.30551,-6.7208 0.3326,-10.07884 -0.0213,-3.17623 -0.2843,-6.43008 -1.63434,-9.35259 -3.63731,-8.81935 -9.94954,-16.31105 -17.29799,-22.29587 -6.59258,-5.45378 -14.04984,-9.71576 -21.4794,-13.90455 -2.20596,-1.16572 -4.36046,-2.48865 -6.73141,-3.29393 -0.65141,-0.10339 -1.30344,-0.20281 -1.95508,-0.30469 -0.17773,0.5345 -0.35547,1.06901 -0.5332,1.60351 z m -201.02539,120.8125 c -3.71126,0.55115 -7.41049,1.17993 -11.08594,1.93555 0,18.21875 0,36.4375 0,54.65625 4.47786,0 8.95573,0 13.43359,0 0,-9.20247 0,-18.40495 0,-27.60742 1.81742,-0.8378 4.18085,-1.06628 5.78218,0.34877 0.44039,0.42577 1.04654,0.79125 1.35439,1.28442 0.15648,8.65805 0.31063,17.31614 0.46499,25.97423 4.49024,0 8.98047,0 13.47071,0 -0.18369,-8.20383 -0.23017,-16.41212 -0.53722,-24.61231 -0.11763,-2.69207 -0.40035,-5.48215 -1.8076,-7.84696 -1.81993,-3.62395 -5.36987,-6.22701 -9.31192,-7.08098 -2.94238,-0.73104 -6.00259,-0.55839 -9.00147,-0.40506 -0.35226,-4.96237 -0.30411,-9.94382 -0.46148,-14.9148 -0.0154,-0.69311 -0.0309,-1.38623 -0.0463,-2.07934 -0.7513,0.11588 -1.5026,0.23177 -2.2539,0.34765 z m 193.50976,-0.0215 c -2.33662,0.34895 -4.69364,0.54353 -7.03125,0.86914 -1.77672,0.26699 -3.20095,1.70689 -3.58128,3.44252 -0.71235,3.002 -0.5079,6.1225 -0.55612,9.18365 0.0954,8.72596 0.12844,17.45345 0.32712,26.17782 0.16465,3.62214 0.12042,7.32343 1.1359,10.83539 0.57291,2.08319 2.13031,3.78229 4.07702,4.68026 3.0973,1.59685 6.69044,2.48133 10.16963,1.94013 1.50426,-0.23879 2.522,-1.71731 2.4249,-3.2002 -0.0358,-1.74095 0.45748,-3.43187 0.54971,-5.15723 0.0532,-1.59216 -1.20682,-2.85188 -2.61631,-3.37821 -0.84078,-0.37093 -1.85255,-0.87563 -2.1444,-1.7949 -0.15706,-1.56963 -0.2022,-3.14831 -0.26032,-4.64471 -0.33876,-10.38185 -0.21068,-20.92915 -0.23679,-31.37866 0,-2.62331 0,-5.24661 0,-7.86992 -0.7526,0.0983 -1.5052,0.19661 -2.25781,0.29492 z m -23.5332,0.86523 c -2.99959,-0.005 -6.2018,1.58077 -7.30348,4.50545 -1.22796,2.99916 -0.69278,6.95113 1.95973,9.0219 2.30926,1.58939 5.39396,1.82646 8.03711,1.0293 2.56114,-0.72799 4.13017,-3.30411 4.34961,-5.84961 0.34127,-3.03156 -0.85019,-6.51828 -3.68993,-7.97448 -1.02969,-0.52758 -2.20338,-0.7354 -3.35304,-0.73256 z m -125.37305,4.06641 c -5.48901,0.20162 -11.0774,2.75594 -14.1319,7.44564 -2.12188,3.18347 -2.75578,7.18556 -2.28411,10.93522 0.44922,3.07244 2.57646,5.4744 4.58593,7.6875 -3.22325,2.84919 -5.56152,6.88324 -5.7241,11.24688 -0.26904,4.90943 2.34008,9.74585 6.4077,12.44648 3.13192,2.14448 6.96101,3.15985 10.74256,3.02739 3.43228,-0.0915 6.95159,-0.39373 10.15703,-1.70816 3.47805,-1.4683 6.53837,-4.20302 7.80605,-7.82547 1.17689,-3.32182 1.22871,-6.98767 0.51506,-10.41564 -0.66421,-3.07281 -2.67116,-5.69235 -5.18525,-7.51456 -0.34265,-0.34727 0.61898,-0.76645 0.81331,-1.16401 3.32822,-3.59943 4.64849,-8.99077 3.28405,-13.70619 -1.30361,-3.62567 -4.092,-6.62381 -7.38763,-8.55627 -2.56951,-1.41899 -5.57147,-1.8238 -8.4668,-1.91515 -0.37721,-0.009 -0.75468,0.0128 -1.1319,0.0163 z m 37.10547,11.51172 c -4.93681,0.14832 -9.76674,1.26374 -14.61914,2.08008 0,12.69661 0,25.39323 0,38.08984 4.46029,0 8.92057,0 13.38086,0 0.12101,-9.37892 0.24332,-18.75783 0.36719,-28.13672 1.69689,-0.19013 3.86683,-0.27825 4.9375,1.32813 0.59799,1.00001 0.44623,2.24521 0.59959,3.36444 0.42467,7.13961 0.19978,14.29652 0.25783,21.44415 0,0.66667 0,1.33333 0,2 4.51562,0 9.03125,0 13.54687,0 -0.14181,-9.17382 -0.28417,-18.34763 -0.42382,-27.52148 1.64651,-0.61174 3.73161,-0.98923 5.17382,0.28711 1.02522,0.88377 0.79725,2.35264 0.97386,3.55936 0.44468,7.08192 0.21583,14.18301 0.27419,21.27384 0,0.80039 0,1.60078 0,2.40117 4.47786,0 8.95573,0 13.43359,0 -0.0409,-7.41032 0.0981,-14.82344 -0.10811,-22.2317 -0.19077,-3.70055 -0.2673,-7.55244 -1.81376,-10.989 -1.78344,-3.76457 -5.77951,-5.98817 -9.76651,-6.65017 -4.64105,-0.82324 -9.53104,0.0437 -13.6489,2.32269 -0.68112,0.25295 -1.33615,-0.37455 -1.96159,-0.57369 -3.23912,-1.74935 -6.97715,-2.15489 -10.60347,-2.04805 z m -36.65234,0.0898 c 2.40583,-0.10865 4.61031,2.33306 4.00009,4.72505 -0.34902,1.72129 -1.63051,3.03082 -2.8458,4.20855 -1.49733,-0.85163 -3.10979,-1.68351 -4.20328,-3.05203 -0.63672,-1.0784 -0.69089,-2.48241 -0.34257,-3.66556 0.50569,-1.37687 1.9709,-2.19001 3.39156,-2.21601 z m 94.26367,0.28321 c -2.85516,0.15451 -5.73777,0.21219 -8.55269,0.75037 -1.69125,0.26826 -3.38541,1.42481 -3.65434,3.21642 -0.27263,1.8887 0.23488,3.78425 0.56836,5.63477 0.25237,1.3743 1.12082,2.91456 2.66639,3.00958 1.10145,0.0355 2.10186,-0.5656 3.20405,-0.61775 0.70163,-0.10886 1.40859,-0.18486 2.2094,-0.25322 1.80318,-0.11148 3.65243,-0.35072 5.43812,0.006 1.31919,0.42395 2.56813,1.5407 2.7086,2.98042 -3.56079,0.0689 -7.16423,-0.21017 -10.6875,0.42578 -4.16092,0.8746 -7.95524,3.93082 -9.15212,8.09151 -0.89239,3.12586 -0.81936,6.54954 0.22829,9.62919 1.09671,3.20194 3.85713,5.58519 6.9786,6.73697 1.96106,0.83006 4.08207,1.15812 6.20204,1.17888 4.90542,0.1075 9.83594,-0.0451 14.69631,-0.75178 1.614,-0.29911 3.21054,-0.68431 4.81641,-1.02344 0.0702,-7.21803 0.34516,-14.437 0.19878,-21.65522 -0.0995,-4.16261 -0.56489,-8.58001 -3.04605,-12.07199 -2.08855,-3.03747 -5.71122,-4.58441 -9.2704,-5.02759 -1.83755,-0.25971 -3.69917,-0.30253 -5.55225,-0.25887 z m 23.46679,2.5664 c 0,12.64063 1e-5,25.28125 0,37.92188 4.47852,0 8.95704,0 13.43555,0 0,-13.30729 0,-26.61459 0,-39.92188 -4.47851,0 -8.95703,0 -13.43555,0 1e-5,0.66667 0,1.33334 0,2 z m -119.66796,17.07617 c 1.69366,0.29213 3.24726,1.16353 4.67773,2.0879 1.40601,0.97243 2.89921,2.59515 2.35156,4.44531 -0.48999,1.52264 -1.76315,2.91616 -3.43426,3.04613 -2.11178,0.37037 -4.74385,0.1129 -6.02863,-1.83324 -1.20569,-1.98007 -0.30621,-4.43667 0.90039,-6.1875 0.42578,-0.52034 0.79696,-1.45045 1.53321,-1.5586 z m 98.88476,4.95704 c 0.63802,0 1.27604,0 1.91406,0 0,1.66015 0,3.32031 0,4.98046 -2.00593,-0.0676 -4.06919,0.18574 -6.02929,-0.33203 -0.83772,-0.43351 -1.65938,-1.40448 -1.46252,-2.40131 0.64094,-1.41921 2.35608,-1.86239 3.76264,-2.11703 0.60044,-0.0936 1.20786,-0.12826 1.81511,-0.13009 z m 44.9082,86.51367 c -1.60384,0.27246 -2.97564,1.57854 -3.52343,3.08398 -0.26897,0.75218 -0.0749,1.58774 0.3652,2.2162 0.60556,0.59512 1.44885,0.9099 2.29041,0.69725 1.59629,-0.44167 2.9942,-1.79659 3.37368,-3.42517 0.10976,-0.6535 -0.10857,-1.31089 -0.4648,-1.83924 -0.56968,-0.5234 -1.2506,-0.86808 -2.04106,-0.73302 z m -10.68359,2.09179 c -1.4024,0.32735 -2.48876,1.78759 -2.44336,3.22852 0.11627,1.38071 1.5445,2.36336 2.88061,2.0766 1.66821,-0.2265 2.70214,-2.14685 2.0901,-3.68988 -0.29973,-1.06005 -1.41793,-1.89842 -2.52735,-1.61524 z" />
      <path
         id="path1070"
         style="fill:#585d5f;stroke-width:0.682311"
         d="m 424.56134,371.29347 c -0.21903,0.0855 -0.46869,0.25613 -0.69727,0.49219 -0.66063,0.68224 -0.58353,0.7616 0.37696,0.38672 0.66464,-0.25941 1.03952,-0.64474 0.83203,-0.85743 -0.10375,-0.10634 -0.29269,-0.10697 -0.51172,-0.0215 z m -23.33399,3.01172 c -0.15952,0.16351 0.0936,0.77052 0.5625,1.34961 1.2023,1.48494 1.5292,1.30903 0.55079,-0.29688 -0.45244,-0.7426 -0.95377,-1.21623 -1.11329,-1.05273 z m 21.65625,1.97265 c -0.0709,0.0726 -0.11856,0.31638 -0.13476,0.71876 -0.0293,0.72819 0.13153,1.13578 0.35547,0.90624 0.22394,-0.22954 0.24741,-0.82555 0.0527,-1.32421 -0.10757,-0.27554 -0.20259,-0.37341 -0.27344,-0.30079 z m -178.22851,1.3418 c -2.42381,-0.20117 -4.91425,0.57235 -7.19336,2.3457 -3.66753,2.85368 -4.14062,4.92551 -4.14062,18.13477 v 11.76563 h 10.7832 10.7832 l -0.0176,-10.53516 c -0.0191,-12.5047 -0.51099,-15.12675 -3.41993,-18.20313 -2.01374,-2.12964 -4.3711,-3.30664 -6.79492,-3.50781 z m 179.93555,9.44922 c -0.18533,0 -0.88576,0.62293 -1.55664,1.38281 -0.6709,0.75987 -1.06815,1.38086 -0.88282,1.38086 0.18533,0 0.88575,-0.62099 1.55664,-1.38086 0.6709,-0.75988 1.06815,-1.38281 0.88282,-1.38281 z m -7.71875,4.2207 c -0.31359,-0.40808 -2.26368,1.38533 -2.26368,2.08204 0,0.33341 0.55679,0.0614 1.23633,-0.60352 0.67956,-0.66489 1.14194,-1.3294 1.02735,-1.47852 z m -8.03907,0.61524 c -0.18533,0 -0.012,0.62293 0.38477,1.38281 0.39674,0.75988 0.87325,1.38086 1.05859,1.38086 0.18532,0 0.012,-0.62098 -0.38476,-1.38086 -0.39674,-0.75988 -0.87327,-1.38281 -1.0586,-1.38281 z m 13.65821,2.11328 c -0.81184,0.0369 -1.83352,0.75365 -1.48243,1.33594 0.23069,0.38261 0.57052,0.69531 0.75586,0.69531 0.18537,0 0.149,-0.30951 -0.0801,-0.68945 -0.22908,-0.37993 0.10841,-0.69141 0.74805,-0.69141 0.63965,0 0.97332,-0.19278 0.74219,-0.42969 -0.16515,-0.16928 -0.41298,-0.23299 -0.68359,-0.2207 z m 5.66992,0.75 c 0.009,0.069 0.18915,0.2249 0.54101,0.47656 0.75754,0.54182 0.62015,0.75184 -0.67382,1.0293 l -1.625,0.34766 1.68359,-0.11329 c 1.74557,-0.11723 2.12483,-1.27714 0.55664,-1.70312 -0.33015,-0.0897 -0.49167,-0.10614 -0.48242,-0.0371 z m -3.49805,0.67578 c -0.23412,-0.01 -0.50284,0.035 -0.74609,0.13477 -0.53761,0.22051 -0.37689,0.38291 0.4082,0.41601 0.71044,0.03 1.10871,-0.13179 0.88477,-0.36133 -0.11197,-0.11475 -0.31276,-0.17957 -0.54688,-0.18945 z m -11.06445,1.31836 c -0.37066,0 -0.22006,0.30161 0.33594,0.66992 0.55599,0.3683 1.31488,0.66992 1.68554,0.66992 0.37066,0 0.21811,-0.30162 -0.33789,-0.66992 -0.55599,-0.36831 -1.31292,-0.66992 -1.68359,-0.66992 z m 20.88281,0.30664 c -0.11308,-0.0484 -0.33098,-0.0183 -0.63086,0.0996 -0.57524,0.22628 -1.04492,0.53232 -1.04492,0.68164 0,0.55949 1.28392,0.24624 1.67969,-0.41016 0.11805,-0.19579 0.10918,-0.32268 -0.004,-0.37109 z m -18.15625,0.70898 1.87305,2.14844 c 1.44824,1.66065 1.78963,2.60241 1.49804,4.14453 l -0.37695,1.9961 0.75781,-1.97657 c 0.69468,-1.80869 0.56875,-2.15951 -1.49609,-4.14453 z m 8.98633,0.4336 c -0.36645,-0.005 -0.75808,0.0355 -1.08594,0.12305 -0.65572,0.17514 -0.2819,0.32965 0.83008,0.34375 1.11201,0.0141 1.64769,-0.12913 1.19141,-0.31836 -0.22814,-0.0946 -0.5691,-0.1438 -0.93555,-0.14844 z m -4.75586,0.0605 c -0.0733,-0.0843 -0.17394,-0.0788 -0.28516,0.0351 -0.22241,0.22802 -0.20524,0.74517 0.0391,1.15039 0.55674,0.9234 1.5056,0.94918 2.04493,0.0547 0.23611,-0.39159 -0.035,-0.50738 -0.63477,-0.27148 -0.60787,0.2391 -1.04492,0.0426 -1.04492,-0.46875 0,-0.24198 -0.0458,-0.41568 -0.11914,-0.5 z m 7.96289,0.54492 c -0.42227,0.002 0.14192,0.60192 1.25391,1.33203 2.6264,1.72446 3.1091,1.73441 1.10547,0.0234 -0.87506,-0.74723 -1.93713,-1.35747 -2.35938,-1.35547 z m 4.19727,3.10547 0.73828,1.54882 c 0.40699,0.85181 1.8695,2.15816 3.24804,2.9043 1.92484,1.04184 2.17677,1.36332 1.0918,1.38672 -0.77705,0.0168 -2.29287,0.4811 -3.36914,1.03125 -1.07627,0.55016 -3.98029,1.39395 -6.45508,1.875 -2.72371,0.52944 -4.34183,1.1567 -4.09765,1.58984 0.22187,0.39356 -0.25967,0.11961 -1.07032,-0.60937 -0.81064,-0.72897 -1.74454,-2.28241 -2.07617,-3.45313 -0.44101,-1.55684 -0.61956,-1.73818 -0.66406,-0.67187 -0.0334,0.80184 0.73208,2.65537 1.70117,4.11914 l 1.76172,2.66211 -1.76172,6.0332 c -0.96909,3.31837 -1.76172,6.20927 -1.76172,6.42383 0,0.69536 5.68299,-0.45182 7.26758,-1.4668 0.84642,-0.54214 1.45275,-1.51432 1.34766,-2.16211 -0.10508,-0.6478 0.16591,-1.10768 0.60351,-1.02148 0.96409,0.1899 4.25977,-3.68433 4.25977,-5.00781 0,-0.52003 0.82857,-1.35182 1.84179,-1.84961 1.99468,-0.97994 5.25477,-6.30889 4.5625,-7.45703 -0.23382,-0.38781 -1.39111,-1.20233 -2.57226,-1.81055 -1.18115,-0.60823 -2.69757,-1.7721 -3.37109,-2.58594 z m 6.09179,7.2832 c 0.0445,0.0536 0.0625,0.19464 0.0625,0.41406 0,0.37065 -0.47043,1.27615 -1.04687,2.01367 -0.98824,1.26437 -1.00269,1.24363 -0.2461,-0.38476 0.73685,-1.58592 1.09687,-2.2039 1.23047,-2.04297 z m -181.4082,4.11523 0.42969,3.20508 c 0.2357,1.76276 0.45724,3.86028 0.49414,4.66211 0.0586,1.27182 0.12744,1.23706 0.5332,-0.26953 0.38842,-1.44218 0.93331,-1.76206 3.30274,-1.93945 2.69416,-0.2017 2.84046,-0.11497 2.91406,1.72656 0.0637,1.594 0.17649,1.44878 0.63477,-0.82227 0.30668,-1.51975 0.57625,-3.61923 0.59765,-4.66406 0.0386,-1.88559 0.005,-1.89844 -4.43359,-1.89844 z m 166.95898,0.31836 c 0.0406,0.0155 0.0861,0.0805 0.13282,0.19922 0.18695,0.47492 0.18695,1.25164 0,1.72656 -0.18696,0.47493 -0.33985,0.0866 -0.33985,-0.86328 0,-0.71241 0.0851,-1.10906 0.20703,-1.0625 z m 11.98438,0.0996 c 0.17602,0.048 0.23472,0.16369 0.13086,0.33594 -0.20772,0.34451 -0.81549,0.62695 -1.34961,0.62695 -1.39487,0 -1.19471,-0.46881 0.37891,-0.89062 0.37091,-0.0994 0.66382,-0.12027 0.83984,-0.0723 z m -13.45899,5.36914 c 0.0709,-0.0726 0.16588,0.0253 0.27344,0.30078 0.19468,0.49866 0.17121,1.09272 -0.0527,1.32227 -0.22394,0.22954 -0.38477,-0.17804 -0.35547,-0.90625 0.0162,-0.40237 0.0639,-0.64417 0.13477,-0.7168 z" />
      <path
         id="path1070-6"
         style="fill:#585d5f;stroke-width:0.682311"
         d="m 319.65066,70.688355 c -4.46473,0.185784 -9.05102,1.829679 -12.09375,5.201172 -1.82169,2.032201 -2.48776,5.015877 -1.59765,7.609375 1.12632,3.646155 4.52241,6.055187 8.0188,7.17921 3.26578,0.888244 6.71183,0.858605 10.06345,0.607199 2.72682,-0.185782 5.46911,-0.964294 7.635,-2.68747 2.22007,-1.702507 4.27408,-4.105232 4.4838,-7.007461 0.14686,-3.321094 -2.07127,-6.257541 -4.78102,-7.950449 -3.45934,-2.202742 -7.66087,-3.096659 -11.72863,-2.951576 z m -127.84179,0.0039 c -4.43831,0.137365 -9.13104,1.511093 -12.19141,4.888672 -1.50957,1.778962 -2.6859,4.124037 -2.39258,6.513672 0.55753,3.248403 3.06117,5.833069 5.8325,7.42357 3.53624,1.897088 7.70709,2.285822 11.64992,1.898695 3.93933,-0.463972 8.03644,-1.749849 10.82422,-4.708984 1.2776,-1.443497 2.06816,-3.316632 2.29883,-5.222656 0.0444,-1.818366 -0.8647,-3.500428 -1.79297,-5.00586 -2.40287,-3.408132 -6.57637,-5.052907 -10.58277,-5.592449 -1.20689,-0.167837 -2.42813,-0.221326 -3.64574,-0.19466 z m 63.84961,6.892578 c -7.27372,0.197732 -14.61475,1.014364 -21.54133,3.33669 -3.17202,1.147747 -6.49921,2.596342 -8.56414,5.38792 -1.26513,1.721691 -1.71823,4.239192 -0.43412,6.078201 1.73783,2.636209 4.49093,4.434797 7.31326,5.740817 0.56872,0.257695 1.15586,0.470321 1.7439,0.679028 -3.47926,3.222591 -7.25471,6.185001 -10.22803,9.906561 -1.27792,1.73729 -0.78303,4.10474 -0.0142,5.95086 0.81753,1.92109 2.3681,3.74408 4.54492,4.04492 1.0816,0.28011 2.17996,0.0548 3.22851,-0.23632 1.39284,-0.0564 2.33785,-1.27003 3.40798,-2.01816 5.66358,-4.69732 11.06813,-9.69514 16.57835,-14.56974 3.58008,0 7.16016,0 10.74024,0 5.96355,5.2106 11.72968,10.66409 18.02691,15.47772 1.87965,1.63112 4.78967,2.08761 6.96332,0.77619 1.86929,-1.17756 3.20092,-3.22928 3.53711,-5.41016 0.32615,-2.65597 -1.46616,-4.92585 -3.17527,-6.7398 -2.49036,-2.62844 -5.32442,-4.90258 -7.84231,-7.504336 3.09035,-1.157882 5.87352,-3.167576 7.95508,-5.726563 0.91786,-1.128792 1.42703,-2.685724 0.84961,-4.089844 -1.03223,-2.632627 -3.24349,-4.636025 -5.59961,-6.101562 -4.86197,-2.667569 -10.39923,-3.779471 -15.85292,-4.456344 -3.86084,-0.450154 -7.75219,-0.598046 -11.63731,-0.526078 z" />
    </g>
  </g>
</svg>
