<?xml version="1.0" encoding="UTF-8" standalone="no"?>
<!-- Created with Inkscape (http://www.inkscape.org/) -->

<svg
   version="1.1"
   id="svg228"
   width="512"
   height="512"
   viewBox="0 0 512 512"
   sodipodi:docname="hashboy.svg"
   xml:space="preserve"
   inkscape:version="1.2.2 (b0a8486541, 2022-12-01)"
   inkscape:export-filename="../GIT Icons/hashboy.png"
   inkscape:export-xdpi="96"
   inkscape:export-ydpi="96"
   xmlns:inkscape="http://www.inkscape.org/namespaces/inkscape"
   xmlns:sodipodi="http://sodipodi.sourceforge.net/DTD/sodipodi-0.dtd"
   xmlns="http://www.w3.org/2000/svg"
   xmlns:svg="http://www.w3.org/2000/svg"><defs
     id="defs232" /><sodipodi:namedview
     id="namedview230"
     pagecolor="#505050"
     bordercolor="#eeeeee"
     borderopacity="1"
     inkscape:showpageshadow="0"
     inkscape:pageopacity="0"
     inkscape:pagecheckerboard="0"
     inkscape:deskcolor="#505050"
     showgrid="false"
     inkscape:zoom="0.7183407"
     inkscape:cx="296.51668"
     inkscape:cy="309.04555"
     inkscape:window-width="1366"
     inkscape:window-height="705"
     inkscape:window-x="0"
     inkscape:window-y="0"
     inkscape:window-maximized="1"
     inkscape:current-layer="g234" /><g
     inkscape:groupmode="layer"
     inkscape:label="Image"
     id="g234"><g
       id="g1207"
       transform="matrix(0.95009857,0,0,0.97231349,12.70085,7.0911383)"><path
         id="path4021-7-3"
         style="fill:#00ff00;fill-opacity:0.984314;stroke-width:2.74257"
         d="m 12.339844,27.089844 c -4.5611982,0 -9.1223961,0 -13.683594,0 0,26.596354 0,53.192708 0,79.789066 -2.4980886,6.28165 -2.6767981,13.15652 -2.5294795,19.82577 -0.042053,7.11626 -0.193134,14.45571 2.3084712,21.23375 1.08795709,2.93207 2.5757049,5.71795 4.4241333,8.24126 0,5.54232 0,11.08463 0,16.62695 10.011903,10.59888 20.200878,21.02968 30.388672,31.45898 0,11.5 0,23.00001 0,34.5 2.278832,1.73243 4.323826,3.75825 6.097656,6.00391 -0.04013,10.70162 0.324682,21.61588 3.697357,31.86875 4.500603,13.74779 13.161336,26.31706 25.139767,34.56895 7.205335,4.99696 15.49452,8.61642 24.223028,9.77977 4.648673,0.58737 9.358975,0.5399 14.019925,0.12433 -3.75536,5.71398 -6.767655,11.87387 -9.475257,18.14046 -1.89799,4.18581 -3.677171,8.51261 -4.179039,13.12126 -0.448833,3.42919 -0.175346,6.89127 -0.294438,10.33686 -0.433654,40.21193 -0.868118,80.42385 -1.301265,120.63579 9.816409,0.0111 19.632809,0.0249 29.449219,0.0371 5.4129,2.0418 11.29054,1.6481 16.96328,1.61133 26.09557,0 52.19115,0 78.28672,0 0.28328,-0.54293 0.56675,-1.08576 0.84961,-1.62891 60.62695,6.6e-4 121.25391,10e-4 181.88086,0.002 5.2955,2.01347 11.05323,1.68594 16.61094,1.62695 27.00533,0 54.01067,0 81.01601,0 0.28328,-0.54293 0.56675,-1.08576 0.84961,-1.62891 6.32813,0 12.65625,0 18.98438,0 -0.50568,-44.30337 -1.00722,-88.60679 -1.51368,-132.91015 -5.57358,-11.57101 -10.13189,-23.75664 -17.60302,-34.30209 -10.43202,-14.86403 -25.1855,-26.63714 -41.9768,-33.5465 -23.0412,-10.45433 -46.07957,-20.91359 -69.11353,-31.38383 -0.0703,-4.7626 -0.32474,-9.58337 0.55248,-14.29109 0.38135,-1.63662 0.7914,-3.31812 1.45786,-4.84333 8.43761,-7.09166 13.9235,-17.39053 15.69073,-28.22239 1.52484,-8.01823 2.12913,-16.17086 2.91313,-24.28454 0.60726,-7.65151 1.25522,-15.38515 0.2613,-23.0323 -0.76276,-5.26404 -2.34548,-10.45168 -5.01222,-15.07245 -0.27037,-10.02003 -0.0758,-20.10776 -1.74219,-30.02734 -2.24151,-14.397567 -7.37814,-28.541375 -16.15317,-40.270379 -8.59338,-11.500257 -20.1519,-20.507829 -32.66746,-27.392455 -8.03323,-4.325349 -16.8585,-7.205422 -25.93088,-8.251321 -11.63382,-1.515805 -23.39604,-1.14313 -35.09403,-0.931042 -10.36639,0.393089 -20.67796,2.751925 -30.0892,7.143104 -17.74638,7.937129 -32.97851,21.534924 -42.52285,38.504499 -2.57301,4.59805 -4.88273,9.346726 -6.89788,14.215171 -7.12842,-12.752453 -18.47749,-23.318036 -32.16918,-28.62896 -6.54467,-2.541099 -13.60139,-3.666256 -20.61167,-3.474312 -4.11742,0.03389 -8.24314,0.382712 -12.27774,1.224366 0.002,-12.214844 0.006,-24.429688 0.008,-36.644532 -44.41146,0 -88.822918,0 -133.234376,0 v 0.1 z M 262.67969,249.20898 c 0.5733,0.35545 0.003,0.98252 -0.48865,0.91812 -0.66097,0.0476 -0.69215,-0.73665 -0.0281,-0.7939 0.17184,-0.0342 0.34379,-0.1167 0.51677,-0.12422 z" /><path
         id="path4021-7"
         style="fill:#000000;fill-opacity:0.984314;stroke-width:2.74257"
         d="m 26.339494,41.08947 c -4.560819,0 -9.121639,1e-6 -13.682459,0 0,18.027464 0,36.054928 0,54.082391 0.562782,-0.963124 0.35947,0.219125 0.391647,0.741908 -0.03131,1.913223 0.02507,3.792067 -0.127969,5.644991 -0.378118,2.6922 -0.06925,5.45788 -0.21131,8.13951 -2.215515,4.08711 -2.7371073,8.95088 -2.563394,13.61195 -0.0182,5.41405 -0.2413534,10.86614 0.445051,16.24406 0.77815,4.43293 3.061337,8.51584 6.268045,11.37632 0,5.42903 0,10.85805 0,16.28707 10.017015,10.57612 20.223675,20.93702 30.389614,31.34481 0,11.32141 0,22.64281 0,33.96423 2.219619,2.19451 3.929368,4.90883 6.107177,7.14654 -0.01624,9.80928 -0.307568,19.79485 2.016614,29.3642 1.916871,7.52996 5.512937,14.48686 10.046134,20.52179 6.368248,8.18538 15.158029,14.05601 24.676019,16.80922 5.993029,1.55502 12.217337,1.10303 18.295257,0.52396 4.87826,-0.59359 9.57908,-2.43065 13.82972,-5.06872 3.37604,-1.99611 6.56882,-4.37021 9.44969,-7.13675 -0.0527,0.63717 0.65789,0.94532 0.94788,1.43465 2.5101,2.88952 5.0202,5.77903 7.5303,8.66855 -7.09178,5.44132 -13.28222,12.16439 -18.82523,19.39465 -4.59093,6.13015 -8.33119,12.97764 -11.28872,20.18875 -1.54223,3.40795 -3.33778,6.87446 -3.45594,10.76639 -0.15183,2.89036 6.9e-4,5.78746 -0.12241,8.67923 -0.37623,35.17986 -0.75255,70.3597 -1.12872,105.53956 6.07708,0.005 12.15417,0.008 18.23124,0.0235 2.81007,1.61286 6.07526,1.8105 9.18749,1.61165 24.76952,0 49.53904,0 74.30856,0 0.20465,-0.54309 0.4099,-1.08594 0.61396,-1.6293 64.62918,6.6e-4 129.25835,0.001 193.88751,0.002 2.81621,1.63914 6.10034,1.82405 9.22578,1.62733 25.54348,0 51.08696,0 76.63044,0 0.20466,-0.54309 0.4099,-1.08594 0.61397,-1.6293 4.62583,0 9.25165,10e-6 13.87748,0 -0.43739,-38.56388 -0.87241,-77.12779 -1.3092,-115.69169 -4.21791,-8.83602 -7.80059,-18.15793 -13.04321,-26.41967 -7.9894,-12.45704 -19.10648,-22.47857 -31.78267,-28.85991 -3.4754,-1.72685 -7.05887,-3.1797 -10.56533,-4.83017 -24.37657,-11.06613 -48.74901,-22.14292 -73.11953,-33.22472 -0.17235,-7.00219 -0.502,-14.03838 -0.16432,-21.05657 0.43754,-5.50102 2.13891,-10.79616 4.17498,-15.80941 4.38089,-2.93333 8.07994,-7.11096 10.52672,-12.03742 2.7029,-5.57586 3.65977,-11.89271 4.39369,-18.07487 1.101,-9.44362 2.06928,-18.92559 2.28074,-28.44861 0.0306,-6.02045 -0.99285,-12.28022 -4.19947,-17.31601 -0.35261,-0.67877 -0.9909,-1.21947 -1.20043,-1.95285 -0.43448,-5.74451 -0.21049,-11.5171 -0.4378,-17.27171 -0.29183,-11.23144 -2.04384,-22.53237 -6.10782,-32.913175 -2.97496,-7.693192 -7.28899,-14.76556 -12.67518,-20.71865 -6.84898,-7.620792 -15.11669,-13.583444 -23.79703,-18.456776 -6.70926,-3.65036 -14.00474,-6.053225 -21.47785,-6.877679 -9.99689,-1.337817 -20.09109,-0.974231 -30.1387,-0.914571 -8.00342,0.179083 -16.09009,1.2728 -23.59939,4.41654 -14.02818,5.4101 -26.8498,14.927137 -35.90002,27.84177 -4.11809,5.812003 -7.34673,12.303087 -10.18688,18.936738 -1.87245,4.537083 -3.13213,9.387813 -3.49402,14.353283 -0.72615,7.93813 -0.34159,15.92562 -0.5105,23.88719 -0.0207,2.58837 -0.12051,5.17521 -0.25642,7.75826 -3.6116,4.44999 -5.35365,10.41598 -5.43186,16.29024 -0.0698,1.36647 -0.0702,2.73628 -0.0469,4.10438 -2.61718,0 -5.23437,0 -7.85156,0 -0.0117,-9.04201 -0.10928,-18.08931 0.0318,-27.12802 0.42353,-2.0321 0.33135,-4.12063 0.12366,-6.17457 -0.48925,-7.13354 -1.09447,-14.35471 -3.28508,-21.15136 -3.93432,-12.541145 -12.31315,-23.385665 -23.08712,-29.636191 -5.72458,-3.39266 -12.15798,-5.514231 -18.70916,-5.568915 -6.6352,-0.258697 -13.45247,0.281974 -19.64018,3.09385 -3.49473,1.534229 -6.78534,3.588017 -9.85051,5.963145 0.002,-14.844685 0.006,-29.689371 0.007,-44.534057 -35.078042,0 -70.156085,0 -105.234129,0 v 0.100385 z m 131.717826,76.53176 c 1.76082,0.0178 3.73473,0.13747 5.05358,1.5782 2.3468,1.87589 4.245,4.6095 4.66645,7.80229 0.42121,2.23381 0.18642,4.53297 0.30622,6.79321 -0.17777,3.45652 -6.2e-4,6.92086 -0.0605,10.38087 0.005,7.30093 -0.007,14.60184 -0.0285,21.90274 -6.49482,0 -12.98964,0 -19.48446,0 0.0674,-13.25199 0.13483,-26.50399 0.20225,-39.75598 1.07138,-3.5011 3.30242,-6.74901 6.50742,-8.1891 0.8946,-0.39579 1.8711,-0.59884 2.83754,-0.51223 z m -47.18887,72.17914 c -0.10593,20.76733 -0.0937,41.53679 -0.42802,62.30167 -0.0935,2.19244 -0.003,4.43386 -0.47446,6.57725 -1.17221,3.17391 -3.43101,6.02317 -6.4999,7.08352 -2.63507,0.99119 -5.863392,0.63238 -7.888006,-1.59944 -1.814733,-1.74253 -3.547141,-3.86178 -3.980551,-6.53858 -1.237196,-5.86454 -0.594931,-11.91199 -0.744419,-17.86606 0,-2.59824 0,-5.19648 0,-7.79473 3.1606,-2.81061 5.392593,-6.92688 5.755492,-11.3818 0.583186,-4.84632 0.362056,-9.74677 0.47483,-14.61985 0.0135,-2.47052 0.01665,-4.94108 0.0159,-7.41164 4.596394,-4.71055 9.217704,-9.3924 13.792614,-14.12839 -0.008,1.79268 -0.0157,3.58536 -0.0235,5.37805 z m 151.96794,58.5056 c 0.9313,0.44413 1.20944,1.86701 0.48333,2.65083 -0.38918,0.57278 -1.04183,0.45184 -1.52963,0.12002 -0.35386,-0.36322 -0.80411,-0.89696 -0.77947,-1.478 -0.16708,-0.79452 0.44398,-1.59364 1.21099,-1.45383 0.20683,0.005 0.4113,0.11578 0.61478,0.16098 z" /><path
         id="path4021"
         style="fill:#e2bdbd;fill-opacity:0.984314;stroke-width:2.74257"
         d="m 474.65161,414.90099 c -20.8222,0.31734 -41.6454,0.6199 -62.46213,1.25009 -0.70293,0.0194 -1.40586,0.0386 -2.1088,0.0579 0.0406,7.38406 -0.0767,14.76743 -0.27654,22.14808 -0.13985,5.52551 -0.30225,11.0503 -0.44919,16.57559 22.26825,0 44.53648,0 66.80472,0 0,-13.35182 0,-26.70365 0,-40.05548 -0.50268,0.008 -1.00537,0.0159 -1.50806,0.0238 z" /><path
         id="path4019"
         style="fill:#e2bdbd;fill-opacity:0.984314;stroke-width:2.74257"
         d="m 131.27481,416.53756 c 0,12.79837 0,25.59673 0,38.3951 21.50913,0 43.01826,0 64.52739,0 0,-13.34019 0,-26.68037 0,-40.02056 -21.50913,0 -43.01826,0 -64.52739,0 0,0.54182 0,1.08364 0,1.62546 z" /><path
         id="path3963"
         style="fill:#e2bdbd;fill-opacity:0.984314;stroke-width:5.48513"
         d="m 343.97265,247.54708 c -5.21166,4.57985 -10.26279,9.37114 -15.39258,14.05862 -3.34932,2.98841 -6.97913,5.86743 -11.24961,6.99999 -2.45115,0.69464 -5.09462,0.93229 -7.54831,1.06602 -3.52925,0.16365 -7.17933,0.1265 -10.76511,0.10839 -3.42256,-0.0623 -6.97634,-0.0427 -10.17124,-1.57787 -2.69105,-1.26109 -5.27743,-2.65905 -7.79567,-4.3415 -3.86944,-2.56994 -7.60271,-5.45392 -10.99804,-8.68085 -1.89945,-1.67657 -3.75249,-3.44094 -5.81954,-4.86921 -0.36706,-0.17301 -0.81722,-0.44803 -1.20386,-0.33794 -0.41744,0.21386 -0.87796,0.37278 -1.06759,0.87801 -0.50444,1.17757 -0.39832,2.5451 -0.48337,3.81832 -0.14844,5.80543 0.0415,11.61564 0.30856,17.41365 0.18806,3.469 0.54524,7.04266 2.07984,10.15048 2.63265,5.77392 7.00968,10.34957 11.7716,14.0407 6.72642,5.14498 14.54506,8.79372 22.75313,9.71581 9.49058,1.10999 19.19176,-1.32428 27.53351,-6.31592 5.04349,-3.01495 9.64284,-6.91567 13.59807,-11.47396 2.17405,-2.50588 3.74728,-5.61733 4.4915,-8.97697 1.1016,-4.83715 1.29075,-9.84547 1.58982,-14.79892 0.33123,-6.40097 0.65097,-12.80271 0.97861,-19.20393 -0.8699,0.77569 -1.73981,1.55138 -2.60972,2.32708 z" /><path
         id="path1061"
         style="fill:#e2bdbd;fill-opacity:0.984314;stroke-width:5.48513"
         d="m 302.65986,75.85331 c -5.79084,0.127064 -11.61007,0.394669 -17.31709,1.546244 -8.56681,1.863485 -16.88356,5.718395 -23.59191,11.915027 -5.38509,4.911422 -9.60938,11.236489 -12.58986,18.156199 -1.43834,3.16839 -2.78119,6.47261 -3.12281,10.02853 -0.45167,4.12327 -0.41683,8.28629 -0.49738,12.43213 -0.0369,7.30817 0.12533,14.62346 0.64262,21.91099 0.23918,2.92881 0.47817,5.85809 0.71729,8.78708 -2.75342,0 -5.50683,0 -8.26024,0 0.8939,9.03038 1.65609,18.08841 2.52321,27.13772 0.31882,2.72713 0.48616,5.52971 1.38846,8.12076 0.51749,1.52366 1.76437,2.73539 3.26283,2.93234 1.50911,0.32608 3.13995,-0.16202 4.57455,0.55037 1.13826,0.8323 1.53412,2.38197 2.04269,3.69374 1.41617,4.33268 2.39225,8.82431 3.92641,13.11352 2.70878,7.93204 6.60742,15.48332 12.06069,21.55165 4.58653,5.14401 9.58975,9.83496 14.82573,14.16913 3.51843,2.87364 7.21532,5.62796 11.40122,7.19308 3.32676,1.18465 6.87603,0.75389 10.30437,0.55929 4.41082,-0.28248 8.83026,-1.36063 12.73663,-3.67606 4.97513,-2.90069 9.21641,-7.04186 13.34366,-11.18777 4.70146,-4.8589 9.43754,-9.73686 13.42941,-15.32502 2.90926,-4.06172 5.19382,-8.68283 6.4761,-13.66011 0.76144,-3.03181 1.37258,-6.10695 2.15949,-9.13217 0.6148,-2.30086 1.08076,-4.66265 1.90925,-6.88661 0.16752,-0.64546 0.78517,-0.79607 1.32248,-0.79287 2.16898,-0.0519 4.43296,0.0214 6.45586,-0.97704 0.87193,-0.39077 1.51585,-1.2546 1.64018,-2.28262 0.70721,-3.94057 1.01137,-7.95211 1.37968,-11.94337 0.37517,-4.94467 0.83005,-9.89531 0.81003,-14.86201 -0.0652,-2.25899 -0.17283,-4.76697 -1.58594,-6.56572 -1.12024,-1.40136 -2.86843,-1.75235 -4.46612,-2.02388 -0.48847,-0.0578 -0.27531,-0.76878 -0.3411,-1.13021 0.19556,-3.62886 0.47654,-7.38427 0.65674,-11.07095 0.40612,-8.13068 0.7847,-16.29949 0.17971,-24.43028 -0.41786,-5.61855 -1.57978,-11.20723 -3.80312,-16.31241 -2.19069,-5.32755 -5.39389,-10.109877 -9.19551,-14.196785 -6.21281,-6.665383 -13.82769,-11.806445 -22.12411,-14.713245 -3.87295,-1.367809 -7.92088,-2.016488 -11.97255,-2.303578 -3.75996,-0.295978 -7.53276,-0.360283 -11.30155,-0.325092 z" /><g
         id="g1059"
         transform="matrix(0.4221083,0,0,0.48612888,-264.04528,62.521987)"><path
           id="path1007"
           style="fill:#00ff00;fill-opacity:0.984314;stroke-width:4.99071"
           d="m 1114.7578,422.7832 c 0,7.4375 0,14.875 0,22.3125 7.0848,-6.20786 14.3451,-12.25113 20.8039,-19.12837 1.6718,-1.72776 3.3431,-3.45601 5.0145,-5.18413 -8.6061,0 -17.2123,0 -25.8184,0 0,0.66667 0,1.33334 0,2 z" /><path
           id="path676"
           style="fill:#ffff00;fill-opacity:0.984314;stroke-width:7.05793"
           d="m 794.86523,172.71875 c -1.99858,0.0432 -4.3807,0.0877 -5.73437,1.80469 -1.28779,1.7117 -1.33323,3.96096 -1.72973,5.98702 -0.30964,2.19516 -0.71939,4.39776 -0.74879,6.61649 0.10586,1.76763 1.88103,2.77794 3.45497,3.06114 3.41925,0.68727 6.93199,0.35899 10.39464,0.44082 1.16732,0 2.33464,0 3.50196,0 0.81538,-4.24008 1.98049,-8.42816 2.3719,-12.73865 0.10497,-1.37397 0.24216,-3.15792 -1.12519,-3.96697 -1.67317,-0.93577 -3.67335,-0.95172 -5.53801,-1.13502 -1.61408,-0.0996 -3.23121,-0.078 -4.84738,-0.0695 z" /><path
           id="path605"
           style="fill:#ffff00;fill-opacity:0.984314;stroke-width:7.05793"
           d="m 698.91992,127.37695 c 0,5.30729 0,10.61459 0,15.92188 2.86155,0.0465 5.73091,-0.0981 8.58734,0.0821 2.78574,0.26454 5.54173,1.7386 6.99967,4.16977 0.87628,2.13883 0.82317,4.511 0.97788,6.78209 0.27853,8.59595 0.16381,17.19886 0.22292,25.79802 0.0127,5.22267 0.0261,10.44533 0.0384,15.668 23.62631,20.8766 47.248,41.75843 70.8711,62.63867 0.033,14.71706 -0.0713,29.41546 0.0885,44.12678 0.0999,5.51284 0.0999,11.03559 0.52284,16.53533 0.0629,0.79195 0.30646,1.56256 0.96356,2.05508 0.32936,0.68474 0.99885,0.36352 1.58443,0.29065 2.13241,-0.62736 4.09472,-1.73307 6.10617,-2.6661 3.36514,-1.66244 6.70088,-3.38351 10.05287,-5.07221 0,-18.15234 0,-36.30469 0,-54.45703 22.28984,-20.12173 44.60714,-40.21377 67.14664,-60.05646 1.7475,-1.54351 3.49333,-3.0889 5.24203,-4.63104 0.0264,-12.86399 -0.0612,-25.72865 0.0648,-38.59216 0.1109,-2.96803 0.0174,-5.98322 0.6657,-8.89807 0.33672,-1.62114 2.03816,-2.35459 3.42806,-2.89061 2.01013,-0.76139 4.16937,-0.95469 6.30265,-0.9078 1.61182,0.0173 3.42665,-0.55662 4.15991,-2.11956 0.92864,-2.1047 0.60479,-4.48026 0.69297,-6.71756 9.1e-4,-3.01993 1.3e-4,-6.03986 3.9e-4,-9.05979 -64.90625,0 -129.8125,0 -194.71875,0 0,0.66667 0,1.33334 0,2 z m 87.06641,15.53711 c 2.43716,0.38109 4.98339,0.50711 7.26342,1.52278 1.20087,0.50622 1.00235,2.00253 0.8869,3.05284 -0.28273,2.37717 -1.11249,4.64508 -1.54095,6.98884 -0.23824,1.78153 1.06799,3.38888 2.68851,3.97077 2.28209,0.87174 4.73973,1.16478 7.14932,1.4724 2.33902,0.26346 5.00748,-0.0511 6.65045,-1.91974 1.95055,-2.22686 2.49647,-5.2522 3.20365,-8.03573 0.62363,-2.49596 1.0202,-5.08663 2.1069,-7.43692 2.51928,0.74453 5.16724,0.71879 7.76546,0.84448 1.43497,0.14301 3.32591,0.50902 3.74978,2.12946 0.62352,2.7368 -0.75566,5.38692 -0.82383,8.11199 -0.18309,2.00455 0.52581,4.25713 2.38867,5.26563 2.30819,1.30223 5.04976,0.97228 7.58594,1.17969 0.44492,2.43605 0.21951,4.93768 0.28515,7.40273 0,1.74857 0,3.49714 0,5.2457 -4.90625,0 -9.8125,0 -14.71875,0 -0.53966,3.95668 -1.31576,7.88635 -1.63494,11.86945 -0.14866,2.18635 0.0278,4.78592 1.90643,6.23798 1.63767,1.31232 3.84224,1.1333 5.79101,1.26953 0.46048,2.50061 0.23976,5.06685 0.30469,7.59687 0,1.68125 0,3.3625 0,5.04375 -2.90908,0.0651 -5.84335,-0.16913 -8.73278,0.24638 -1.77784,0.22249 -3.39698,1.41989 -3.98011,3.13644 -0.8375,2.50652 -1.21717,5.14214 -1.87795,7.69904 -0.42818,1.52851 -0.65085,3.18396 -1.53221,4.53338 -0.79652,0.43248 -1.79241,0.1554 -2.66785,0.17939 -2.6953,-0.19877 -5.45353,-0.0956 -8.08277,-0.7945 -0.83069,-0.11609 -0.99781,-0.99868 -0.96051,-1.69618 0.10566,-3.27884 0.74634,-6.51369 1.11675,-9.76893 0.15614,-1.17838 0.31283,-2.35669 0.46938,-3.53502 -4.42656,0.0447 -8.85836,-0.1022 -13.28125,0.10352 -1.8431,0.10377 -3.89245,0.72645 -4.82031,2.46484 -0.99058,1.9328 -1.18004,4.14744 -1.74813,6.22088 -0.54532,2.09575 -0.84497,4.26564 -1.59171,6.30256 -0.42329,1.16644 -1.86159,1.0708 -2.87373,1.16468 -2.6255,0.0332 -5.33011,-0.15002 -7.80398,-1.09172 -0.84898,-0.26475 -0.62889,-1.37801 -0.74026,-2.06124 -6.7e-4,-4.37076 0.31503,-8.73575 0.45898,-13.10352 -3.71093,0 -7.42187,0 -11.13281,0 0.0464,-3.75704 -0.10743,-7.5216 0.11981,-11.27348 0.10449,-0.56642 0.007,-1.49949 0.80065,-1.56773 3.2852,-0.85097 6.6847,-1.20286 10.06959,-1.31331 1.92428,-0.13011 3.5488,-1.5426 4.19662,-3.32038 0.97103,-2.51344 1.39673,-5.19985 1.84692,-7.84507 0.28755,-1.882 0.34748,-4.19955 -1.26992,-5.52573 -1.80979,-1.43189 -4.26492,-1.09481 -6.42133,-1.18666 -0.63398,0.13774 -0.92431,-0.2335 -0.86206,-0.85159 -0.24189,-3.66604 -0.08,-7.34674 -0.12872,-11.01878 -0.26503,-0.87911 0.40669,-0.8808 1.09765,-0.86447 3.85924,-0.25363 7.71876,-0.50276 11.57813,-0.75428 1.23881,-5.60109 2.47949,-11.20176 3.71875,-16.80274 1.34245,0.17058 2.6849,0.34115 4.02735,0.51172 z" /><path
           style="fill:#000000"
           d="m 851.75595,469.02039 c -23.8361,-4.28224 -44.6117,-19.86757 -55.1546,-41.37565 -5.4649,-11.14863 -7.0881,-18.00094 -7.7776,-32.83263 l -0.5927,-12.75 h 8.1437 8.1437 v 9.34004 c 0,11.17347 2.5325,22.08052 7.1918,30.97391 4.25,8.11226 16.382,20.24419 24.4942,24.49425 33.2175,17.40285 73.3073,1.099 85.5905,-34.8082 l 2.2235,-6.5 0.5392,-140.5 c 0.6041,-157.41776 -0.066,-144.03829 8.0437,-160.58264 9.4698,-19.318919 27.7478,-34.280137 48.9171,-40.04046 8.9298,-2.429875 29.02115,-2.437614 37.99995,-0.01464 15.7072,4.238686 31.4807,14.760499 41.0349,27.372669 9.5563,12.614841 14.5462,25.950111 15.6702,41.878031 l 0.5919,8.38703 h -8.1485 -8.1485 v -5.34004 c 0,-7.2434 -3.2593,-19.4677 -7.1918,-26.97391 -4.2501,-8.11226 -16.382,-20.244191 -24.4943,-24.494251 -33.21745,-17.402843 -73.30715,-1.098998 -85.59035,34.808211 l -2.2235,6.5 -0.5392,140.5 c -0.6003,156.42597 -0.016,143.93099 -7.456,159.5 -9.4042,19.6799 -28.3151,35.4893 -49.0048,40.96783 -7.3604,1.94899 -25.1385,2.7703 -32.2625,1.49045 z m 123.217,-1.41283 -2.4545,-2.45454 V 358.06211 250.9712 l 2.4545,-2.45454 2.4546,-2.45455 h 41.54535 41.5455 v -12 -12 h 8 8 v 12 12 h 41.5454 41.5455 l 2.4545,2.45455 2.4546,2.45454 v 82.09512 c 0,69.15629 -0.2248,82.5207 -1.4262,84.79545 -0.7844,1.48519 -12.6176,13.83784 -26.296,27.45034 l -24.8697,24.75 h -67.2495 -67.24945 z m 125.54545,-35.0909 c 0,-28.78065 -2.3261,-26.45455 26.4545,-26.45455 h 21.5455 v -72 -72 h -80 -79.99995 v 96 96 h 55.99995 56 z m -88,-10.45455 v -8 h 36 36 v 8 8 h -36 -36 z m 0,-32 v -8 h 36 36 v 8 8 h -36 -36 z m 0,-32 v -8 h 56 56 v 8 8 h -56 -56 z m 0,-32 v -8 h 56 56 v 8 8 h -56 -56 z m 0,-32 v -8 h 56 56 v 8 8 h -56 -56 z m 114.5,138 9.9624,-10 h -10.2312 -10.2312 v 10 c 0,5.5 0.1209,10 0.2687,10 0.1478,0 4.7519,-4.5 10.2313,-10 z m -338.49995,-74 v -8 h 8 8 v 8 8 h -8 -8 z m -13.5478,-18.64602 -2.4522,-2.64603 v -35.60397 -35.60398 l -31.8434,-28.26132 c -17.5138,-15.54373 -33.7127,-29.9871 -35.99742,-32.09639 l -4.15413,-3.83507 v -21.65361 -21.65361 h -5.54545 c -4.55444,0 -5.98411,-0.43865 -8,-2.45455 -2.43464,-2.43463 -2.45455,-2.60942 -2.45455,-21.54545 0,-18.93604 0.0199,-19.11083 2.45455,-21.54546 1.34999,-1.35 3.15,-2.45455 4,-2.45455 1.26515,0 1.54545,-1.45098 1.54545,-8 v -7.999999 h 8 7.99995 v 7.999999 8 h 24 24 v -15.999999 -16 h 8 8 v 16 15.999999 h 24 24 v -8 -7.999999 h 8 8 v 7.999999 8 h 24 24 v -11.999999 -12 h 8 8 v 12 c 0,10.156859 0.2374,11.999999 1.5455,11.999999 0.85,0 2.65,1.10455 4,2.45455 2.4346,2.43463 2.4545,2.60942 2.4545,21.54546 0,18.93603 -0.02,19.11082 -2.4545,21.54545 -2.0159,2.0159 -3.4456,2.45455 -8,2.45455 h -5.5455 l -0.014,20.25 c -0.01,11.1375 -0.2614,21.17243 -0.5642,22.29984 -0.3029,1.12741 -16.4956,16.20241 -35.9839,33.5 l -35.4332,31.45016 v 27.31574 c 0,17.35637 -0.3897,28.03924 -1.0645,29.3001 -1.2887,2.40708 -36.0769,19.88416 -39.58,19.88416 -1.3692,0 -3.538,-1.16968 -4.9062,-2.64602 z m 29.5478,-53.51875 v -27.14245 l 4.1541,-3.83507 c 2.2848,-2.10929 18.4836,-16.55266 35.9975,-32.09639 l 31.8433,-28.26132 V 170.76666 146.9712 l 2.4546,-2.45454 c 2.0159,-2.0159 3.4455,-2.45455 8,-2.45455 h 5.5454 v -8 -8 h -96 -95.99997 v 8 8 h 5.54547 c 4.5544,0 5.9841,0.43865 8,2.45455 l 2.4536,2.45454 v 23.79546 23.79545 l 31.8433,28.26132 c 17.5139,15.54373 33.7127,29.9871 35.9975,32.09639 l 4.1541,3.83507 v 31.16477 31.16477 l 8,-4.02232 8,-4.02232 v -27.14245 z m -33,-63.99389 c -7.2512,-1.52191 -6.9236,-1.03782 -5.4264,-8.01824 0.7459,-3.47771 1.3719,-6.6606 1.3913,-7.0731 0.019,-0.4125 -2.4399,-0.75 -5.4649,-0.75 h -5.5 v -7.95619 -7.95619 l 7.2121,-0.29381 7.2122,-0.29381 1.2442,-6 c 1.9727,-9.51281 1.9769,-9.5 -3.1685,-9.5 h -4.5 v -8 -8 h 6.3577 6.3576 l 1.6369,-8.16125 c 0.9003,-4.48868 1.8667,-8.39103 2.1476,-8.67189 0.5092,-0.50925 13.2705,1.57312 14.5728,2.37799 0.3773,0.23319 0.081,3.2435 -0.6582,6.68957 -0.7393,3.44607 -1.36,6.60308 -1.3793,7.01558 -0.019,0.4125 3.5008,0.75 7.8226,0.75 h 7.8576 l 1.6369,-8.16125 c 0.9003,-4.48868 1.8667,-8.39103 2.1476,-8.67189 0.5092,-0.50925 13.2705,1.57312 14.5728,2.37799 0.3773,0.23319 0.081,3.2435 -0.6582,6.68957 -0.7393,3.44607 -1.36,6.60308 -1.3793,7.01558 -0.019,0.4125 2.4399,0.75 5.4649,0.75 h 5.5 v 7.95619 7.95619 l -7.2122,0.29381 -7.2121,0.29381 -1.2442,6 c -1.9727,9.51281 -1.977,9.5 3.1685,9.5 h 4.5 v 8 8 h -6.3577 -6.3577 l -1.6369,8.16125 c -0.9003,4.48868 -1.8441,8.36845 -2.0973,8.62171 -0.4416,0.44151 -13.3811,-1.67398 -14.6797,-2.39997 -0.3461,-0.1935 -0.024,-3.17134 0.7149,-6.61741 0.7393,-3.44607 1.3599,-6.60308 1.3793,-7.01558 0.019,-0.4125 -3.5148,-0.75 -7.8536,-0.75 h -7.8887 l -0.6896,3.75 c -0.3792,2.0625 -1.1416,5.8875 -1.6941,8.5 -1.1131,5.2627 -1.3915,5.36432 -9.8389,3.59134 z m 32.6683,-38.34134 c 2.0968,-10.1099 2.4293,-9.6257 -6.3802,-9.29206 l -7.712,0.29206 -1.2444,6 c -2.0969,10.1099 -2.4293,9.6257 6.3802,9.29206 l 7.7119,-0.29206 z m 256.33165,14.5 v -8 h 8 8 v 8 8 h -8 -8 z m 0,-32 v -8 h 8 8 v 8 8 h -8 -8 z M 724.51845,78.062101 v -16 h 8 8 v 16 16 h -8 -8 z m 64,8 v -8 h 8 8 v 8 8 h -8 -8 z m 64,-12 v -20 h 8 8 v 20 20 h -8 -8 z m -160.00001,-4 v -8 h 8 8.00001 v 8 8 h -8.00001 -8 z m 128.00001,0 v -8 h 8 8 v 8 8 h -8 -8 z m 64,-39.999999 V -9.9378986 h 8 8 V 30.062102 70.062101 h -8 -8 z m -128,23.999999 v -8 h 8 8 v 8 8 h -8 -8 z m 32,-12 V 22.062102 h 8 8 v 19.999999 20 h -8 -8 z m -96.00001,-3.999999 v -8 h 8 8.00001 v 8 7.999999 h -8.00001 -8 z m 32.00001,0 v -8 h 8 8 v 8 7.999999 h -8 -8 z m 96,-20.000001 V -9.9378986 h 8 8 v 27.9999996 28 h -8 -8 z m 32,12.000001 v -8 h 8 8 v 8 8 h -8 -8 z m -96,-20.000001 V -9.9378986 h 8 8 V 10.062101 30.062102 h -8 -8 z M 692.51844,2.0621014 v -12 h 8 8.00001 v 12 11.9999996 h -8.00001 -8 z m 32.00001,0 v -12 h 8 8 v 12 11.9999996 h -8 -8 z m 64,-4 v -8 h 8 8 v 8 8 h -8 -8 z m 64,0 v -8 h 8 8 v 8 8 h -8 -8 z"
           id="path603" /><path
           id="path678"
           style="fill:#ff0000;fill-opacity:0.984314;stroke-width:7.05793"
           d="m 690.56836,-9.0488281 c 0,8.09114581 0,16.1822916 0,24.2734371 6.4375,0 12.875,0 19.3125,0 0,-8.7578121 0,-17.5156246 0,-26.273437 -6.4375,0 -12.875,0 -19.3125,0 0,0.666667 0,1.3333332 0,1.9999999 z" /><path
           id="path749"
           style="fill:#ff0000;fill-opacity:0.984314;stroke-width:4.99071"
           d="m 722.98242,-9.3515625 c 0,8.2135417 0,16.4270833 0,24.6406245 6.25521,1e-6 12.51042,0 18.76563,0 0,-8.8802078 0,-17.7604162 0,-26.640624 -6.25521,-1e-6 -12.51042,0 -18.76563,0 0,0.666666 0,1.333333 0,1.9999995 z" /><path
           id="path751"
           style="fill:#ff0000;fill-opacity:0.984314;stroke-width:4.99071"
           d="m 755.4668,-9.3515625 c 0,13.7916667 0,27.5833335 0,41.3750005 6.25455,-10e-7 12.50911,0 18.76367,0 0,-14.458334 0,-28.9166672 0,-43.375 -6.25456,0 -12.50912,-1e-6 -18.76367,0 0,0.666666 0,1.333333 0,1.9999995 z" /><path
           id="path753"
           style="fill:#ff0000;fill-opacity:0.984314;stroke-width:4.99071"
           d="m 786.96484,-9.3515625 c 0,5.5885417 0,11.1770833 0,16.765625 6.25521,0 12.51042,0 18.76563,0 0,-6.2552083 0,-12.5104167 0,-18.7656245 -6.25521,-1e-6 -12.51042,0 -18.76563,0 0,0.666666 0,1.333333 0,1.9999995 z" /><path
           id="path755"
           style="fill:#ff0000;fill-opacity:0.984314;stroke-width:4.99071"
           d="m 819.44922,-9.3515625 c 0,19.0416667 0,38.0833335 0,57.1250005 6.25521,0 12.51042,-10e-7 18.76562,0 0,-19.708334 0,-39.4166672 0,-59.125 -6.2552,-1e-6 -12.51041,0 -18.76562,0 0,0.666666 0,1.333333 0,1.9999995 z" /><path
           id="path757"
           style="fill:#ff0000;fill-opacity:0.984314;stroke-width:4.99071"
           d="m 850.94922,-9.3515625 c 0,5.5885417 0,11.1770833 0,16.765625 6.25521,0 12.51042,0 18.76562,0 0,-6.2552083 0,-12.5104167 0,-18.7656245 -6.2552,-1e-6 -12.51041,0 -18.76562,0 0,0.666666 0,1.333333 0,1.9999995 z" /><path
           id="path759"
           style="fill:#ff0000;fill-opacity:0.984314;stroke-width:4.99071"
           d="m 883.43359,-9.3515625 c 0,26.9166665 0,53.8333335 0,80.7500005 6.25521,0 12.51042,-10e-7 18.76563,0 0,-27.583334 0,-55.166667 0,-82.75 -6.25521,-1e-6 -12.51042,0 -18.76563,0 0,0.666666 0,1.333333 0,1.9999995 z" /><path
           id="path761"
           style="fill:#ff0000;fill-opacity:0.984314;stroke-width:4.99071"
           d="m 850.94922,22.148438 c 0,5.916666 0,11.833333 0,17.75 6.25521,0 12.51042,-10e-7 18.76562,0 0,-6.583334 0,-13.166667 0,-19.75 -6.2552,-10e-7 -12.51041,-10e-7 -18.76562,0 0,0.666666 0,1.333333 0,2 z" /><path
           id="path763"
           style="fill:#ff0000;fill-opacity:0.984314;stroke-width:4.99071"
           d="m 850.94922,54.632812 c 0,13.791016 0,27.582032 0,41.373047 6.25521,0 12.51042,0 18.76562,0 0,-14.457682 0,-28.915364 0,-43.373047 -6.2552,10e-7 -12.51041,0 -18.76562,0 0,0.666667 0,1.333334 0,2 z" /><path
           id="path767"
           style="fill:#ff0000;fill-opacity:0.984314;stroke-width:4.99071"
           d="m 819.44922,62.507812 c 0,5.587891 0,11.175782 0,16.763672 6.25521,0 12.51042,0 18.76562,0 0,-6.254557 0,-12.509114 0,-18.763672 -6.2552,0 -12.51041,10e-7 -18.76562,0 0,0.666667 0,1.333334 0,2 z" /><path
           id="path769"
           style="fill:#ff0000;fill-opacity:0.984314;stroke-width:4.99071"
           d="m 786.96484,22.148438 c 0,13.791666 0,27.583333 0,41.375 6.25521,-10e-7 12.51042,0 18.76563,0 0,-14.458334 0,-28.916667 0,-43.375 -6.25521,-10e-7 -12.51042,-10e-7 -18.76563,0 0,0.666666 0,1.333333 0,2 z" /><path
           id="path771"
           style="fill:#ff0000;fill-opacity:0.984314;stroke-width:4.99071"
           d="m 786.96484,78.255859 c 0,5.916667 0,11.833334 0,17.75 6.25521,0 12.51042,0 18.76563,0 0,-6.583333 0,-13.166666 0,-19.75 -6.25521,0 -12.51042,0 -18.76563,0 0,0.666667 0,1.333334 0,2 z" /><path
           id="path773"
           style="fill:#ff0000;fill-opacity:0.984314;stroke-width:4.99071"
           d="m 755.4668,46.757812 c 0,5.588542 0,11.177084 0,16.765626 6.25455,-10e-7 12.50911,0 18.76367,0 0,-6.255209 0,-12.510417 0,-18.765626 -6.25456,0 -12.50912,10e-7 -18.76367,0 0,0.666667 0,1.333334 0,2 z" /><path
           id="path775"
           style="fill:#ff0000;fill-opacity:0.984314;stroke-width:4.99071"
           d="m 722.98242,62.507812 c 0,11.166016 0,22.332032 0,33.498047 6.25521,0 12.51042,0 18.76563,0 0,-11.832682 0,-23.665364 0,-35.498047 -6.25521,10e-7 -12.51042,0 -18.76563,0 0,0.666667 0,1.333334 0,2 z" /><path
           id="path777"
           style="fill:#ff0000;fill-opacity:0.984314;stroke-width:4.99071"
           d="m 722.98242,31.007812 c 0,5.588542 0,11.177084 0,16.765626 6.25521,0 12.51042,-10e-7 18.76563,0 0,-6.255209 0,-12.510417 0,-18.765626 -6.25521,10e-7 -12.51042,0 -18.76563,0 0,0.666667 0,1.333334 0,2 z" /><path
           id="path779"
           style="fill:#ff0000;fill-opacity:0.984314;stroke-width:4.99071"
           d="m 691.48242,31.007812 c 0,5.588542 0,11.177084 0,16.765626 6.25521,0 12.51042,-10e-7 18.76563,0 0,-6.255209 0,-12.510417 0,-18.765626 -6.25521,10e-7 -12.51042,0 -18.76563,0 0,0.666667 0,1.333334 0,2 z" /><path
           id="path781"
           style="fill:#ff0000;fill-opacity:0.984314;stroke-width:4.99071"
           d="m 691.48242,62.507812 c 0,5.587891 0,11.175782 0,16.763672 6.25521,0 12.51042,0 18.76563,0 0,-6.254557 0,-12.509114 0,-18.763672 -6.25521,10e-7 -12.51042,0 -18.76563,0 0,0.666667 0,1.333334 0,2 z" /><path
           id="path958"
           style="fill:#ff0000;fill-opacity:0.984314;stroke-width:1.76448"
           d="m 882.85156,86.136719 c 0,8.322916 0,16.645831 0,24.968751 6.89779,0 13.79558,0 20.69336,0 -0.37089,-1.56606 -1.0117,-3.09596 -0.91528,-4.73295 -0.18035,-7.410354 -0.0905,-14.823954 -0.11597,-22.235801 -6.55403,0 -13.10807,0 -19.66211,0 0,0.666666 0,1.333333 0,2 z" /><path
           id="path960"
           style="fill:#ff0000;fill-opacity:0.984314;stroke-width:1.76448"
           d="m 818.81445,94.140625 c 0,5.654948 0,11.309895 0,16.964845 6.55404,0 13.10808,0 19.66211,0 0,-6.32162 0,-12.64323 0,-18.964845 -6.55403,0 -13.10807,0 -19.66211,0 0,0.666667 0,1.333333 0,2 z" /><path
           id="path962"
           style="fill:#ff0000;fill-opacity:0.984314;stroke-width:1.76448"
           d="m 754.7793,78.130859 c 0,10.991537 0,21.983071 0,32.974611 6.55338,0 13.10677,0 19.66015,0 0,-11.658204 0,-23.316407 0,-34.974611 -6.55338,0 -13.10677,0 -19.66015,0 0,0.666667 0,1.333334 0,2 z" /><path
           id="path964"
           style="fill:#ff0000;fill-opacity:0.984314;stroke-width:1.76448"
           d="m 690.74219,94.134766 c -0.0538,4.50457 0.10644,9.023734 -0.28907,13.515624 -0.24542,1.26746 -0.48979,2.53512 -0.73437,3.80273 6.89518,0 13.79036,1e-5 20.68555,0 0,-6.4375 0,-12.874995 0,-19.312495 -6.55209,0 -13.10417,0 -19.65625,0 -0.002,0.664714 -0.004,1.329427 -0.006,1.994141 z" /><path
           id="path989"
           style="fill:#ffff00;fill-opacity:0.984314;stroke-width:4.99071"
           d="m 786.96484,350.92383 c 0,5.58854 0,11.17708 0,16.76562 6.25521,0 12.51042,0 18.76563,0 0,-6.25521 0,-12.51041 0,-18.76562 -6.25521,0 -12.51042,0 -18.76563,0 0,0.66666 0,1.33333 0,2 z" /><path
           id="path991"
           style="fill:#ffff00;fill-opacity:0.984314;stroke-width:4.99071"
           d="m 998,61.527344 c -7.58977,0.104419 -15.29063,0.759981 -22.48018,3.353011 -6.89276,2.499664 -13.41923,5.992952 -19.41239,10.209444 -9.25024,6.526068 -16.88177,15.224107 -22.47447,25.045841 -2.26378,3.98585 -4.30094,8.1065 -6.07094,12.33493 -1.87846,4.49516 -2.54848,9.37397 -2.92286,14.19679 -0.41777,9.98075 -0.48514,19.9731 -0.63434,29.96083 -0.76197,61.99952 -0.80812,124.00462 -1.12697,186.00727 -0.11679,16.49211 -0.14773,32.98786 -0.65324,49.47392 -0.16871,4.57805 -0.35711,9.29608 -0.87072,13.9035 -0.3702,3.48009 -1.08626,6.98157 -2.78068,10.08026 -1.88946,3.70971 -3.72816,7.46618 -6.15784,10.86313 -8.01268,11.59175 -20.35896,20.04652 -34.0175,23.46542 -12.23345,3.13293 -25.50033,2.17758 -37.08992,-2.87772 -3.38874,-1.43723 -6.61944,-3.25232 -9.511,-5.53885 -5.56382,-4.33125 -10.67401,-9.28124 -15.02568,-14.83552 -4.54768,-5.85317 -7.08527,-12.98153 -8.80838,-20.11687 -1.70743,-7.19741 -2.36613,-14.61426 -2.23242,-22.00273 0,-1.54206 0,-3.08411 0,-4.62617 -6.25651,0 -12.51302,0 -18.76953,0 0.0135,5.53603 -0.0864,11.08317 0.45917,16.6004 0.58285,6.29976 1.33875,12.61416 2.88653,18.75897 2.19075,7.3289 5.72724,14.20075 9.88086,20.60157 4.40373,6.72264 9.69808,12.92802 16.09079,17.83954 9.24606,7.24245 20.04442,12.41012 31.34832,15.52046 4.50593,0.93049 9.13768,0.95681 13.72065,1.00078 6.98471,-0.0342 13.99356,-0.34184 20.90079,-1.4311 4.90966,-0.78386 9.47489,-2.88794 13.93299,-4.9992 6.36839,-3.17314 12.59412,-6.76454 18.05463,-11.35771 7.9831,-6.85476 14.32496,-15.46796 19.27214,-24.71535 2.10674,-4.08173 4.11085,-8.21544 6.17578,-12.31836 0.41132,-8.08391 1.0416,-16.15948 1.12881,-24.25642 0.48081,-26.55397 0.68856,-53.11203 0.9148,-79.66914 0.41153,-53.01195 0.6115,-106.02524 0.90835,-159.0379 0.0479,-9.18601 0.0958,-18.37202 0.14375,-27.55803 2.40735,-5.99986 4.56247,-12.16804 8.08356,-17.63531 3.52328,-5.57371 8.08099,-10.450363 13.1315,-14.667065 6.82682,-5.516251 14.84398,-9.615916 23.38274,-11.693087 4.60119,-1.006885 9.48371,-1.195623 14.0877,-1.10805 6.3536,0.20458 12.7716,0.875018 18.8323,2.881764 7.0815,2.588181 13.3685,6.982017 18.9635,11.972243 5.3376,4.879445 10.1973,10.452135 13.4343,16.963955 2.4861,5.23767 4.1024,10.85644 5.2035,16.53751 0.06,0.35503 0.2051,1.16342 0.284,1.69605 0.6961,3.96639 0.4073,8.0018 0.466,12.00551 -0.2121,0.8455 0.2237,1.04299 1,0.9 6.3164,0 12.6329,0 18.9493,0 -0.6401,-6.76589 -0.9779,-13.58882 -2.4566,-20.24232 -2.7559,-13.14373 -8.7601,-25.663636 -17.7099,-35.716867 -7.6783,-8.72447 -17.4215,-15.499375 -28.0126,-20.214897 -5.4321,-2.537768 -11.2235,-4.377396 -17.2014,-5.010112 -5.05,-0.566923 -10.1415,-0.596272 -15.2172,-0.54432 z" /><path
           id="path993"
           style="fill:#ffff00;fill-opacity:0.984314;stroke-width:4.99071"
           d="m 1058.6484,158.97461 c 0,5.58854 0,11.17708 0,16.76562 6.5834,0 13.1667,0 19.75,0 0,-6.2552 0,-12.51041 0,-18.76562 -6.5833,0 -13.1666,0 -19.75,0 0,0.66667 0,1.33333 0,2 z" /><path
           id="path995"
           style="fill:#ffff00;fill-opacity:0.984314;stroke-width:4.99071"
           d="m 1058.6484,190.47461 c 0,5.58854 0,11.17708 0,16.76562 6.5834,0 13.1667,0 19.75,0 0,-6.2552 0,-12.51041 0,-18.76562 -6.5833,0 -13.1666,0 -19.75,0 0,0.66667 0,1.33333 0,2 z" /><path
           id="path997"
           style="fill:#00ff00;fill-opacity:0.984314;stroke-width:4.99071"
           d="m 1011.4004,286.94141 c 0,5.58854 0,11.17708 0,16.76562 38.0827,0 76.1654,0 114.248,0 0,-6.25521 0,-12.51042 0,-18.76562 -38.0826,0 -76.1653,0 -114.248,0 0,0.66666 0,1.33333 0,2 z" /><path
           id="path999"
           style="fill:#00ff00;fill-opacity:0.984314;stroke-width:4.99071"
           d="m 1011.4004,318.44141 c 0,5.58854 0,11.17708 0,16.76562 38.0827,0 76.1654,0 114.248,0 0,-6.25521 0,-12.51042 0,-18.76562 -38.0826,0 -76.1653,0 -114.248,0 0,0.66666 0,1.33333 0,2 z" /><path
           id="path1001"
           style="fill:#00ff00;fill-opacity:0.984314;stroke-width:4.99071"
           d="m 1011.4004,350.92383 c 0,5.58854 0,11.17708 0,16.76562 38.0827,0 76.1654,0 114.248,0 0,-6.25521 0,-12.51041 0,-18.76562 -38.0826,0 -76.1653,0 -114.248,0 0,0.66666 0,1.33333 0,2 z" /><path
           id="path1003"
           style="fill:#00ff00;fill-opacity:0.984314;stroke-width:4.99071"
           d="m 1011.4004,382.42383 c 0,5.58854 0,11.17708 0,16.76562 24.9577,0 49.9154,0 74.873,0 0,-6.25521 0,-12.51041 0,-18.76562 -24.9576,0 -49.9153,0 -74.873,0 0,0.66666 0,1.33333 0,2 z" /><path
           id="path1005"
           style="fill:#00ff00;fill-opacity:0.984314;stroke-width:4.99071"
           d="m 1011.4004,414.9082 c 0,5.58854 0,11.17709 0,16.76563 24.9577,0 49.9154,0 74.873,0 0,-6.25521 0,-12.51042 0,-18.76563 -24.9576,0 -49.9153,0 -74.873,0 0,0.66667 0,1.33334 0,2 z" /><path
           id="path1015"
           style="fill:#ffff00;fill-opacity:0.984314;stroke-width:1.24768"
           d="m 1058.5254,222.0957 c 0,8.45964 0,16.91927 0,25.37891 6.6654,0 13.3307,0 19.9961,0 0,-9.1263 0,-18.2526 0,-27.37891 -6.6654,0 -13.3307,0 -19.9961,0 0,0.66667 0,1.33334 0,2 z" /></g></g></g></svg>
