<?xml version="1.0" encoding="UTF-8" standalone="no"?>
<!-- Created with Inkscape (http://www.inkscape.org/) -->

<svg
   version="1.1"
   id="svg254"
   width="512"
   height="512"
   viewBox="0 0 512 512"
   sodipodi:docname="hexinject.svg"
   inkscape:version="1.2.2 (b0a8486541, 2022-12-01)"
   inkscape:export-filename="../GIT Icons/hexinject.png"
   inkscape:export-xdpi="96"
   inkscape:export-ydpi="96"
   xmlns:inkscape="http://www.inkscape.org/namespaces/inkscape"
   xmlns:sodipodi="http://sodipodi.sourceforge.net/DTD/sodipodi-0.dtd"
   xmlns="http://www.w3.org/2000/svg"
   xmlns:svg="http://www.w3.org/2000/svg">
  <defs
     id="defs258">
    <rect
       x="-273.34216"
       y="123.44989"
       width="226.93134"
       height="200.06177"
       id="rect493" />
    <rect
       x="-273.34216"
       y="123.44989"
       width="226.93134"
       height="200.06177"
       id="rect493-3" />
    <rect
       x="-273.34216"
       y="123.44989"
       width="226.93134"
       height="200.06177"
       id="rect493-3-7" />
    <rect
       x="-273.34216"
       y="123.44989"
       width="226.93134"
       height="200.06177"
       id="rect493-3-7-3" />
    <rect
       x="-273.34216"
       y="123.44989"
       width="226.93134"
       height="200.06177"
       id="rect493-3-7-3-6" />
    <rect
       x="-273.34216"
       y="123.44989"
       width="226.93134"
       height="200.06177"
       id="rect493-3-7-3-6-9" />
    <rect
       x="-273.34216"
       y="123.44989"
       width="226.93134"
       height="200.06177"
       id="rect493-3-7-3-6-9-2" />
  </defs>
  <sodipodi:namedview
     id="namedview256"
     pagecolor="#505050"
     bordercolor="#eeeeee"
     borderopacity="1"
     inkscape:showpageshadow="0"
     inkscape:pageopacity="0"
     inkscape:pagecheckerboard="0"
     inkscape:deskcolor="#505050"
     showgrid="false"
     inkscape:zoom="0.69345021"
     inkscape:cx="367.72647"
     inkscape:cy="253.80337"
     inkscape:window-width="1366"
     inkscape:window-height="705"
     inkscape:window-x="0"
     inkscape:window-y="0"
     inkscape:window-maximized="1"
     inkscape:current-layer="g260" />
  <g
     inkscape:groupmode="layer"
     inkscape:label="Image"
     id="g260">
    <g
       id="g466"
       transform="translate(0,-1.4512204)">
      <path
         id="path1048-7"
         style="fill:#ffffff;stroke-width:6.89317"
         d="m 185.52344,12.052734 c -4.23908,0.03868 -8.24753,1.745437 -11.82561,3.898037 -10.00812,5.317755 -19.73124,11.146077 -29.54511,16.809102 -19.32103,11.277338 -38.5128,22.781971 -57.805008,34.107945 -2.790217,1.840926 -4.077899,5.35782 -3.794312,8.607445 -0.933815,26.116967 -1.867631,52.233937 -2.801447,78.350907 -22.782678,13.47179 -45.564343,26.9453 -68.347656,40.41602 0.0091,41.04297 0.02018,82.08593 0.0293,123.1289 23.141432,13.40859 46.282526,26.81776 69.423828,40.22657 0.02311,27.8151 0.04882,55.6302 0.07031,83.44531 31.733745,18.72536 63.356395,37.6405 95.253065,56.0855 2.78687,1.49696 5.64559,2.85356 8.47936,4.25825 7.05142,-2.06811 13.40967,-5.84792 19.68836,-9.56765 17.23734,-9.98676 34.19965,-20.45383 51.65734,-30.0593 10.96827,6.01408 21.68311,12.44565 32.47247,18.81039 12.49278,7.41065 24.96364,14.85822 37.4455,22.28726 35.05828,-20.49226 70.11522,-40.98681 105.17383,-61.47851 0.0113,-27.92709 0.0249,-55.85417 0.0371,-83.78125 23.13935,-13.4088 46.27844,-26.81806 69.41796,-40.22657 0.0134,-41.23177 0.0296,-82.46354 0.043,-123.69531 -22.7823,-13.24262 -45.56514,-26.4843 -68.34765,-39.72656 -1.00717,-28.26823 -2.01428,-56.536461 -3.02149,-84.804689 -28.81451,-16.968277 -57.4284,-34.281589 -86.52751,-50.759036 -3.80403,-2.051462 -7.54821,-4.32437 -11.68134,-5.662734 -3.80461,-1.109144 -7.93004,-0.782128 -11.60057,0.659573 -4.12795,1.568789 -7.84326,4.003255 -11.71897,6.084428 -17.42146,9.798527 -34.50502,20.174342 -51.70598,30.351597 -19.64787,-11.637587 -39.14864,-23.54301 -59.20703,-34.46875 -3.47339,-1.840371 -7.25452,-3.429177 -11.26172,-3.296875 z" />
      <path
         id="path1048"
         style="fill:#00ff00;stroke-width:6.89317"
         d="m 325.11615,38.374804 c -16.1423,9.588737 -32.22559,19.277178 -48.43533,28.751936 -5.59138,3.202636 -11.13276,6.521931 -16.97253,9.262678 -0.53014,0.240066 -0.92932,0.406976 -1.39223,0.584965 -1.1818,0.48957 -2.51884,0.865149 -3.75764,0.331226 -0.42276,-0.123376 -1.06912,-0.385313 -1.33184,-0.484282 -4.95654,-2.164653 -9.61694,-4.932462 -14.31979,-7.586005 -14.56774,-8.412381 -28.96337,-17.116982 -43.42916,-25.702137 -3.19284,-1.902098 -6.38557,-3.804387 -9.5785,-5.706356 -26.05939,15.448086 -52.11939,30.895154 -78.18141,46.338836 -0.0188,15.612578 0.10249,31.227345 -0.27303,46.837025 -0.17897,8.44189 -0.45464,16.82711 -0.89831,25.26905 -0.18735,3.89177 -0.3747,7.78352 -0.56204,11.67528 -22.567888,13.36266 -45.137493,26.72242 -67.705472,40.08493 -0.01203,16.11703 0.07788,32.23531 -0.223128,48.35053 -0.178937,11.89094 -0.550557,23.74123 -0.980177,35.61527 -0.120245,3.5022 -0.239512,7.00442 -0.360433,10.50658 23.097737,13.57861 46.195649,27.15693 69.29318,40.73589 0.47692,10.72676 1.06177,21.47208 1.30626,32.17525 0.35119,12.92681 0.45186,25.8586 0.42741,38.78972 0.005,4.41004 0.008,8.82008 0.0145,13.23011 16.90377,9.91515 33.78222,19.87115 50.82111,29.55433 6.9057,3.91894 13.7902,7.88243 20.83953,11.54093 2.38227,1.13313 4.79086,2.50356 7.47966,2.67288 1.79948,0.13483 3.3068,-0.96672 4.74839,-1.87194 1.0142,-0.61115 2.22977,-1.34361 3.33044,-1.98731 14.81922,-8.67016 29.74139,-17.16565 44.72633,-25.54747 4.80115,-2.59541 9.49503,-5.48937 14.6746,-7.29105 0.91977,-0.23919 1.91448,-0.71095 2.86423,-0.4524 5.75104,2.56702 11.23337,5.68426 16.74822,8.71209 17.11223,9.58514 33.97667,19.60106 50.93607,29.45086 0.50251,0.15395 1.00412,0.8962 1.50757,0.59435 25.96756,-15.0216 51.82435,-30.23285 77.72244,-45.37342 0.0375,-14.24198 -0.0328,-28.48575 0.31272,-42.72485 0.2009,-9.89485 0.5373,-19.74514 0.97706,-29.64204 0.16447,-3.95745 0.32893,-7.91489 0.49339,-11.87234 23.10562,-13.56409 46.21157,-27.12762 69.31715,-40.69175 -0.51569,-16.29418 -1.11689,-32.55147 -1.36548,-48.85149 -0.24738,-12.87682 -0.24893,-25.75612 -0.23329,-38.63476 0,-2.34526 0,-4.69052 0,-7.03578 -22.56572,-13.34684 -45.13228,-26.69228 -67.69809,-40.03896 -0.40311,-9.72161 -0.89949,-19.49929 -1.19308,-29.18796 -0.41563,-13.83912 -0.60192,-27.68462 -0.54584,-41.529887 0,-4.367987 0,-8.735975 0,-13.103961 C 378.1722,68.684835 352.12724,53.24218 326.08246,37.799246 c -0.3221,0.191852 -0.64419,0.383705 -0.96628,0.575558 z m 31.23052,38.286544 c 10.16062,6.01608 20.32123,12.032161 30.48185,18.048241 0.0243,16.351281 -0.10512,32.705761 0.35578,49.052771 0.1458,6.62111 0.51707,13.23322 0.95695,19.84073 0.0775,1.24877 0.15504,2.49754 0.23257,3.7463 -17.64686,10.15293 -35.25971,20.36936 -53.10791,30.16779 -3.04342,1.63788 -6.07457,3.30481 -9.18901,4.80516 -5.90873,-3.13119 -11.6539,-6.43733 -17.48397,-9.70866 -13.9993,-7.91853 -27.95047,-15.9219 -41.89202,-23.94032 0.22675,-25.04135 0.45233,-50.08271 0.67676,-75.12408 19.51107,-11.636238 39.02215,-23.272434 58.53326,-34.908591 10.14525,6.006886 20.29049,12.013773 30.43574,18.020659 z M 215.5696,76.032464 c 9.84713,5.803388 19.69426,11.606775 29.5414,17.410163 0.0394,25.093463 0.0786,50.186913 0.11801,75.280383 -16.93252,9.66019 -33.74977,19.53255 -50.96174,28.6949 -1.7743,0.92479 -3.48386,1.75929 -5.30328,2.66571 -1.36092,0.67636 -2.72184,1.35273 -4.08276,2.02909 -4.57763,-2.33511 -9.11337,-4.74947 -13.57052,-7.30668 -15.80265,-8.94918 -31.43331,-18.19375 -47.1221,-27.33895 0.31906,-17.79377 0.53861,-35.58959 0.95305,-53.38149 0.14381,-4.91591 0.25577,-9.79811 0.69869,-14.721668 0.22935,-1.676846 0.26205,-3.470615 1.09587,-4.985325 1.53257,-1.303654 3.3254,-2.283387 4.99915,-3.400342 15.11921,-9.527245 30.59068,-18.421093 45.9629,-27.525186 2.72105,-1.603514 5.44209,-3.207028 8.16314,-4.810541 9.83607,5.796645 19.67213,11.59329 29.50819,17.389936 z M 117.91153,184.92873 c 18.73568,10.91206 37.45002,21.86161 56.17105,32.79944 0.33216,5.61106 0.71614,11.21919 1.00316,16.83277 0.0628,1.58025 0.14509,3.36422 0.19618,5.02506 0.40546,12.12592 0.5408,24.34743 0.50293,36.52027 -9.5e-4,5.37605 -0.003,10.75208 -0.004,16.12813 -11.83996,6.98542 -23.62805,14.05881 -35.51056,20.97212 -6.06043,3.49824 -12.14232,6.96423 -18.33702,10.222 -1.43391,0.7235 -2.97842,1.57085 -4.53631,2.16249 -1.96029,0.16788 -3.83754,-0.65015 -5.64208,-1.30752 -5.94191,-2.43482 -11.5383,-5.61336 -17.139478,-8.72885 -12.058211,-6.81639 -23.877122,-14.04285 -35.799845,-21.1317 -1.269855,-0.75894 -2.53971,-1.51787 -3.809566,-2.27681 0.239836,-16.74016 0.373752,-33.48211 0.710713,-50.22071 0.181342,-6.81349 0.309729,-13.62475 0.915032,-20.43478 0.134042,-1.10066 0.207321,-2.23245 0.515176,-3.29541 4.164945,-2.89919 8.569373,-5.43633 12.898148,-8.08108 12.982419,-7.76124 26.045355,-15.39292 39.26771,-22.74183 2.21107,-1.21681 4.41784,-2.44619 6.69195,-3.54322 0.63557,0.36654 1.27115,0.73309 1.90673,1.09963 z m 139.37192,-0.90288 c 1.03263,0.28258 1.90251,1.00801 2.86035,1.48184 16.73113,9.70516 33.28877,19.70337 49.9029,29.60551 2.67877,1.60045 5.35754,3.2009 8.03632,4.80136 0.22847,23.65363 0.45713,47.30728 0.68597,70.96093 -17.24375,10.0485 -34.36062,20.32604 -51.9151,29.83184 -2.40867,1.30013 -4.87828,2.48406 -7.36313,3.63142 -1.05674,0.46859 -2.32194,1.0448 -3.49169,1.47546 -0.5919,0.25234 -1.16908,-0.30204 -1.73296,-0.46493 -6.19264,-2.86871 -12.15553,-6.20146 -18.1379,-9.47654 -13.89305,-7.64719 -27.4273,-15.83519 -41.07608,-23.92545 -0.60151,-0.35727 -1.20302,-0.71453 -1.80452,-1.0718 -0.0213,-23.44831 -0.0416,-46.89662 -0.0609,-70.34493 15.18019,-9.06503 30.30983,-18.21451 45.53698,-27.20082 4.43916,-2.57999 8.86589,-5.19282 13.46097,-7.49078 0.95523,-0.46739 2.13176,-1.01924 3.22217,-1.40511 0.60559,-0.20134 1.23096,-0.4134 1.87658,-0.408 z m 139.04368,0.17102 c 4.90548,2.3543 9.62262,5.07879 14.38046,7.7131 13.9443,7.86359 27.67686,16.04792 41.51853,24.09933 1.33971,0.7832 2.67942,1.56639 4.01913,2.34959 0.25812,24.60403 0.60494,49.20757 0.69704,73.81298 -15.66753,9.17079 -31.26003,18.47029 -47.01544,27.4907 -4.51545,2.54561 -9.07042,5.20107 -13.72143,7.56684 -5.46188,-2.81954 -10.75904,-5.9471 -16.08709,-9.00894 -14.70065,-8.54742 -29.26588,-17.32376 -43.89742,-25.98791 -0.0145,-14.23488 -0.14965,-28.47238 0.23779,-42.70402 0.16641,-7.86145 0.50127,-15.67684 0.96309,-23.54522 0.14799,-2.73762 0.296,-5.47524 0.44399,-8.21286 15.00429,-8.78124 29.93184,-17.69427 45.02484,-26.32356 4.4086,-2.47743 8.77952,-5.03081 13.29636,-7.30887 l 0.087,0.0365 z m -69.8464,124.12004 c 5.55661,2.77109 10.91786,5.91224 16.31566,8.97498 13.85498,7.96149 27.54593,16.20189 41.31364,24.312 1.13298,0.67048 2.26596,1.34097 3.39893,2.01145 0,23.98464 0,47.96928 0,71.95392 -16.11929,9.72721 -32.16191,19.58196 -48.37119,29.15991 -4.21621,2.46264 -8.3941,4.95839 -12.71789,7.27492 -1.71526,-0.90161 -3.32044,-1.79501 -5.04538,-2.7472 -17.97096,-10.03565 -35.74368,-20.41916 -53.59871,-30.65793 -0.69169,-0.19279 -0.30119,-1.0154 -0.41043,-1.54717 -0.23104,-24.6964 -0.46107,-49.39282 -0.69026,-74.08924 13.60942,-8.10148 27.15503,-16.31038 40.82613,-24.30827 5.93041,-3.40755 11.82756,-6.88501 17.91968,-9.99978 0.34274,-0.0879 0.71089,-0.51416 1.05982,-0.33759 z m -140.66273,0.0166 c 4.94042,2.417 9.6805,5.21712 14.46509,7.92248 13.90159,8.01282 27.60335,16.36344 41.39377,24.56372 1.19512,0.7143 2.39022,1.42858 3.58534,2.14288 -0.23479,25.14065 -0.46959,50.28132 -0.70442,75.42197 -17.51887,9.90542 -34.95824,19.95243 -52.58301,29.66996 -2.44322,1.33747 -4.88221,2.68379 -7.36277,3.95144 -9.83151,-5.68969 -19.52261,-11.61665 -29.24963,-17.48133 -10.31311,-6.2552 -20.62239,-12.51728 -30.93403,-18.77513 0,-24.03123 0,-48.06244 0,-72.09366 13.91146,-8.20677 27.76732,-16.5076 41.73413,-24.62028 5.92047,-3.39587 11.89995,-6.86626 17.97834,-10.04622 0.5229,-0.21615 1.04593,-0.64162 1.58528,-0.69458 l 0.087,0.0366 z" />
      <path
         sodipodi:type="star"
         style="fill:#b3b3b3;stroke-width:5.07"
         id="path845"
         inkscape:flatsided="true"
         sodipodi:sides="6"
         sodipodi:cx="-255.98112"
         sodipodi:cy="-1.0705464"
         sodipodi:r1="59.839317"
         sodipodi:r2="51.822369"
         sodipodi:arg1="0.54162067"
         sodipodi:arg2="1.0652194"
         inkscape:rounded="0"
         inkscape:randomized="0"
         d="m -204.70635,29.77814 -52.35313,28.980914 -51.27478,-30.848687 1.07836,-59.8296 52.35313,-28.980913 51.27478,30.848686 z"
         transform="matrix(0.94414422,0,0,0.94148747,425.38425,131.40888)" />
      <path
         sodipodi:type="star"
         style="fill:#0000ff;stroke-width:5.07"
         id="path845-0"
         inkscape:flatsided="true"
         sodipodi:sides="6"
         sodipodi:cx="-255.98112"
         sodipodi:cy="-1.0705464"
         sodipodi:r1="59.839317"
         sodipodi:r2="51.822369"
         sodipodi:arg1="0.54162067"
         sodipodi:arg2="1.0652194"
         inkscape:rounded="0"
         inkscape:randomized="0"
         d="m -204.70635,29.77814 -52.35313,28.980914 -51.27478,-30.848687 1.07836,-59.8296 52.35313,-28.980913 51.27478,30.848686 z"
         transform="matrix(0.94414422,0,0,0.94148747,567.9422,134.45564)" />
      <path
         sodipodi:type="star"
         style="fill:#ff0000;stroke-width:5.07"
         id="path845-0-9"
         inkscape:flatsided="true"
         sodipodi:sides="6"
         sodipodi:cx="-255.98112"
         sodipodi:cy="-1.0705464"
         sodipodi:r1="59.839317"
         sodipodi:r2="51.822369"
         sodipodi:arg1="0.54162067"
         sodipodi:arg2="1.0652194"
         inkscape:rounded="0"
         inkscape:randomized="0"
         d="m -204.70635,29.77814 -52.35313,28.980914 -51.27478,-30.848687 1.07836,-59.8296 52.35313,-28.980913 51.27478,30.848686 z"
         transform="matrix(0.94414422,0,0,0.94148747,355.67881,254.38987)" />
      <path
         sodipodi:type="star"
         style="fill:#ffff00;stroke-width:5.07"
         id="path845-0-9-3"
         inkscape:flatsided="true"
         sodipodi:sides="6"
         sodipodi:cx="-255.98112"
         sodipodi:cy="-1.0705464"
         sodipodi:r1="59.839317"
         sodipodi:r2="51.822369"
         sodipodi:arg1="0.54162067"
         sodipodi:arg2="1.0652194"
         inkscape:rounded="0"
         inkscape:randomized="0"
         d="m -204.70635,29.77814 -52.35313,28.980914 -51.27478,-30.848687 1.07836,-59.8296 52.35313,-28.980913 51.27478,30.848686 z"
         transform="matrix(0.94414422,0,0,0.94148747,497.56714,258.42244)" />
      <path
         sodipodi:type="star"
         style="fill:#00ffff;stroke-width:5.07"
         id="path845-0-9-3-6"
         inkscape:flatsided="true"
         sodipodi:sides="6"
         sodipodi:cx="-255.98112"
         sodipodi:cy="-1.0705464"
         sodipodi:r1="59.839317"
         sodipodi:r2="51.822369"
         sodipodi:arg1="0.54162067"
         sodipodi:arg2="1.0652194"
         inkscape:rounded="0"
         inkscape:randomized="0"
         d="m -204.70635,29.77814 -52.35313,28.980914 -51.27478,-30.848687 1.07836,-59.8296 52.35313,-28.980913 51.27478,30.848686 z"
         transform="matrix(0.94414422,0,0,0.94148747,637.33582,257.69504)" />
      <path
         sodipodi:type="star"
         style="fill:#0000ff;stroke-width:5.07"
         id="path845-0-9-3-6-0"
         inkscape:flatsided="true"
         sodipodi:sides="6"
         sodipodi:cx="-255.98112"
         sodipodi:cy="-1.0705464"
         sodipodi:r1="59.839317"
         sodipodi:r2="51.822369"
         sodipodi:arg1="0.54162067"
         sodipodi:arg2="1.0652194"
         inkscape:rounded="0"
         inkscape:randomized="0"
         d="m -204.70635,29.77814 -52.35313,28.980914 -51.27478,-30.848687 1.07836,-59.8296 52.35313,-28.980913 51.27478,30.848686 z"
         transform="matrix(0.94414422,0,0,0.94148747,425.502,381.676)" />
      <path
         sodipodi:type="star"
         style="fill:#ff0000;stroke-width:5.07"
         id="path845-0-9-3-6-0-6"
         inkscape:flatsided="true"
         sodipodi:sides="6"
         sodipodi:cx="-255.98112"
         sodipodi:cy="-1.0705464"
         sodipodi:r1="59.839317"
         sodipodi:r2="51.822369"
         sodipodi:arg1="0.54162067"
         sodipodi:arg2="1.0652194"
         inkscape:rounded="0"
         inkscape:randomized="0"
         d="m -204.70635,29.77814 -52.35313,28.980914 -51.27478,-30.848687 1.07836,-59.8296 52.35313,-28.980913 51.27478,30.848686 z"
         transform="matrix(0.94414422,0,0,0.94148747,566.06961,381.5174)" />
      <g
         id="g1074"
         transform="matrix(0.94414422,0,0,0.94148747,14.29908,14.979208)"
         style="fill:#000000">
        <path
           id="path372"
           style="fill:#000000;stroke-width:3.2431"
           d="m 181.59375,16 c -1.04504,0 -21.80785,11.813679 -46.14453,26.255859 L 91.199219,68.511719 89.599609,113.55664 88,158.60352 l -36,21.35156 -36,21.35156 0.01953,54.42969 0.01172,54.43164 36.769531,21.36328 36.761719,21.36523 0.03711,44.3711 0.03711,44.37109 45.58203,27.05274 c 25.06933,14.87929 45.8601,27.08072 46.20508,27.11523 0.34499,0.0346 16.72934,-9.54865 36.41211,-21.29883 19.68276,-11.75021 36.8601,-21.36523 38.16406,-21.36523 1.30396,0 18.52285,9.64375 38.26172,21.42969 L 330.1543,496 l 46.11914,-27.03906 46.11914,-27.03906 0.0195,-44.51368 0.0176,-44.51172 36.76367,-21.36523 36.76172,-21.36328 0.0254,-54.6875 L 496,200.79883 460,179.8125 424,158.82812 422.40039,113.74414 420.79883,68.660156 376.4668,42.326172 C 352.08644,27.844961 331.31784,16 330.31641,16 c -1.00144,0 -18.13067,9.729356 -38.06836,21.621094 l -36.25,21.621094 L 219.75,37.621094 C 199.81231,25.729356 182.63879,16 181.59375,16 Z m 0.0684,9.634766 35.75,21.474609 c 19.66327,11.810526 37.02896,21.478516 38.58594,21.478516 1.55698,0 18.91881,-9.66799 38.58203,-21.478516 l 35.75,-21.474609 40.43164,24.105468 40.43555,24.105469 0.88867,44.455077 0.88086,44.45508 35.91797,21.30664 35.91406,21.30078 0.88086,49.5586 0.88086,49.55859 -36.79297,21.94726 -36.79492,21.94336 -0.88672,44.56446 -0.88867,44.5625 -40.4043,23.84961 -40.40039,23.85546 -35.46289,-20.96093 c -19.50408,-11.52808 -37.04152,-20.95899 -38.96875,-20.95899 -1.92724,0 -18.90339,9.07221 -37.73047,20.16407 -18.827,11.09177 -34.95203,20.48577 -35.83203,20.875 -0.88,0.38925 -19.59987,-9.98657 -41.59961,-23.05274 l -40,-23.75195 -0.89258,-44.57617 -0.888672,-44.57032 -36.792969,-21.94336 -36.787109,-21.94726 0.880859,-49.55859 0.88086,-49.5586 35.912109,-21.30078 35.914063,-21.30664 0.886718,-44.45508 0.886721,-44.455077 40.43164,-24.105469 z m 0.24414,19.394531 -32.55078,19.310547 -32.55664,19.314453 -0.89258,39.365233 -0.89453,39.36524 31.29297,18.66015 c 17.21068,10.263 32.64114,18.73921 34.28906,18.83594 1.64792,0.0967 17.1265,-8.03935 34.39844,-18.08398 l 31.40625,-18.26368 -0.043,-40.07617 -0.0371,-40.078124 -32.20703,-19.173828 z m 148.17969,0 -32.20508,19.175781 -32.20117,19.173828 -0.043,40.050784 -0.0371,40.05859 31.19922,18.25 c 17.15975,10.04017 32.31682,18.27197 33.6875,18.28906 1.37065,0.0171 16.8941,-8.44505 34.49414,-18.80273 L 396.97854,162.39062 396.08596,123.02539 395.19729,83.654297 362.6426,64.339844 Z M 157.10547,98.035156 c 2.73778,0 5.2268,0.521086 7.4668,1.566406 2.23993,0.995558 4.15515,2.540198 5.74804,4.630858 1.59289,2.04089 2.81198,4.57879 3.65821,7.61524 0.89594,3.03638 1.3457,6.57157 1.3457,10.60351 0,4.032 -0.44976,7.58962 -1.3457,10.67578 -0.84623,3.08622 -2.06532,5.67496 -3.65821,7.76563 -1.59289,2.09066 -3.50811,3.68418 -5.74804,4.7793 -2.24,1.04527 -4.72902,1.56835 -7.4668,1.56835 -2.73778,0 -5.2268,-0.52308 -7.4668,-1.56835 -2.24,-1.09512 -4.15711,-2.68864 -5.75,-4.7793 -1.59289,-2.09067 -2.83642,-4.67941 -3.73242,-7.76563 -0.84622,-3.08616 -1.26953,-6.64378 -1.26953,-10.67578 0,-4.03194 0.42331,-7.56713 1.26953,-10.60351 0.896,-3.03645 2.13953,-5.57435 3.73242,-7.61524 1.59289,-2.09066 3.51,-3.6353 5.75,-4.630858 2.24,-1.04532 4.72902,-1.566406 7.4668,-1.566406 z m 47.33789,0 c 3.38489,0 6.34616,0.571915 8.88476,1.716797 2.53867,1.095107 4.60438,2.413977 6.19727,3.957027 l -5.74805,6.57032 c -0.99555,-0.896 -2.24104,-1.66735 -3.73437,-2.31446 -1.49333,-0.69688 -3.03602,-1.04492 -4.62891,-1.04492 -1.44355,0 -2.83764,0.27276 -4.18164,0.82031 -1.29422,0.49778 -2.46443,1.3444 -3.50976,2.53907 -0.99556,1.14489 -1.81584,2.66319 -2.46289,4.55468 -0.64712,1.89156 -1.02154,4.23198 -1.1211,7.01954 1.69245,-1.64267 3.56074,-2.9126 5.60156,-3.8086 2.09067,-0.896 4.03027,-1.34375 5.82227,-1.34375 2.09067,0 4.00778,0.29915 5.75,0.89649 1.792,0.59733 3.33468,1.49283 4.62891,2.6875 1.34394,1.19466 2.39011,2.71297 3.13671,4.55468 0.74667,1.84178 1.11915,4.00721 1.11915,6.4961 0,2.48889 -0.4722,4.7032 -1.41797,6.64453 -0.896,1.94133 -2.1396,3.61013 -3.73242,5.00391 -1.54312,1.39371 -3.33607,2.46231 -5.37696,3.20898 -2.04089,0.69689 -4.20632,1.04687 -6.49609,1.04687 -2.43911,0 -4.80398,-0.44775 -7.09375,-1.34375 -2.28978,-0.89594 -4.3291,-2.29008 -6.1211,-4.18164 -1.79193,-1.89149 -3.23692,-4.30725 -4.33203,-7.24414 -1.09511,-2.9866 -1.64257,-6.57062 -1.64257,-10.75195 0,-4.43022 0.5719,-8.26249 1.71679,-11.49805 1.14489,-3.23549 2.66313,-5.89761 4.55469,-7.98828 1.94133,-2.09066 4.13322,-3.6353 6.57226,-4.630858 2.43911,-1.04532 4.97702,-1.566406 7.61524,-1.566406 z m 104.6582,0.0625 c 2.73778,0 5.2268,0.523032 7.4668,1.56836 2.24,0.995554 4.15711,2.538244 5.75,4.628904 1.59289,2.04089 2.81198,4.57879 3.6582,7.61524 0.896,3.03639 1.34375,6.57156 1.34375,10.60351 0,4.032 -0.44775,7.59152 -1.34375,10.67774 -0.84622,3.08617 -2.06531,5.67496 -3.6582,7.76562 -1.59289,2.09067 -3.51,3.68223 -5.75,4.77735 -2.24,1.04528 -4.72902,1.56835 -7.4668,1.56835 -2.73772,0 -5.22685,-0.52307 -7.46679,-1.56835 -2.24,-1.09512 -4.15516,-2.68668 -5.74805,-4.77735 -1.59289,-2.09066 -2.83838,-4.67945 -3.73438,-7.76562 -0.84622,-3.08622 -1.26953,-6.64574 -1.26953,-10.67774 0,-4.03195 0.42331,-7.56712 1.26953,-10.60351 0.896,-3.03645 2.14149,-5.57435 3.73438,-7.61524 1.59289,-2.09066 3.50805,-3.63335 5.74805,-4.628904 2.23994,-1.045328 4.72907,-1.56836 7.46679,-1.56836 z m 44.80078,0 c 2.73778,0 5.2268,0.523032 7.4668,1.56836 2.24,0.995554 4.15516,2.538244 5.74805,4.628904 1.59289,2.04089 2.81393,4.57879 3.66015,7.61524 0.896,3.03639 1.34375,6.57156 1.34375,10.60351 0,4.032 -0.44775,7.59152 -1.34375,10.67774 -0.84622,3.08617 -2.06726,5.67496 -3.66015,7.76562 -1.59289,2.09067 -3.50805,3.68223 -5.74805,4.77735 -2.24,1.04528 -4.72902,1.56835 -7.4668,1.56835 -2.73772,0 -5.22684,-0.52307 -7.46679,-1.56835 -2.24,-1.09512 -4.15712,-2.68668 -5.75,-4.77735 -1.59289,-2.09066 -2.83643,-4.67945 -3.73243,-7.76562 -0.84617,-3.08622 -1.26953,-6.64574 -1.26953,-10.67774 0,-4.03195 0.42336,-7.56712 1.26953,-10.60351 0.896,-3.03645 2.13954,-5.57435 3.73243,-7.61524 1.59288,-2.09066 3.51,-3.63335 5.75,-4.628904 2.23995,-1.045328 4.72907,-1.56836 7.46679,-1.56836 z m -196.79687,8.449224 c -1.19467,0 -2.316,0.24831 -3.36133,0.74609 -0.99555,0.49778 -1.86661,1.36884 -2.61328,2.61328 -0.74667,1.19467 -1.34302,2.81263 -1.79102,4.85352 -0.448,2.04082 -0.67187,4.60518 -0.67187,7.6914 0,3.08622 0.22387,5.67307 0.67187,7.76367 0.448,2.04089 1.04435,3.70969 1.79102,5.00391 0.74667,1.24444 1.61773,2.13994 2.61328,2.6875 1.04533,0.54756 2.16666,0.82227 3.36133,0.82227 1.19466,0 2.28966,-0.27471 3.28515,-0.82227 1.04534,-0.54756 1.9409,-1.44306 2.6875,-2.6875 0.74667,-1.29422 1.34302,-2.96302 1.79102,-5.00391 0.448,-2.0906 0.67383,-4.67745 0.67383,-7.76367 0,-3.08622 -0.22583,-5.65058 -0.67383,-7.6914 -0.448,-2.04089 -1.04435,-3.65885 -1.79102,-4.85352 -0.7466,-1.24444 -1.64216,-2.1155 -2.6875,-2.61328 -0.99549,-0.49778 -2.09049,-0.74609 -3.28515,-0.74609 z m 151.99609,0.0625 c -1.19466,0 -2.31404,0.24831 -3.35937,0.74609 -0.99556,0.49778 -1.86662,1.36884 -2.61328,2.61328 -0.74667,1.19467 -1.34497,2.81263 -1.79297,4.85352 -0.448,2.04083 -0.67188,4.60518 -0.67188,7.6914 0,3.08622 0.22388,5.67496 0.67188,7.76563 0.448,2.04083 1.0463,3.70773 1.79297,5.00195 0.74666,1.24444 1.61772,2.13994 2.61328,2.6875 1.04533,0.54756 2.16471,0.82227 3.35937,0.82227 1.19467,0 2.2896,-0.27471 3.28516,-0.82227 1.04533,-0.54756 1.94279,-1.44306 2.68945,-2.6875 0.74667,-1.29422 1.34302,-2.96112 1.79102,-5.00195 0.448,-2.09067 0.67187,-4.67941 0.67187,-7.76563 0,-3.08622 -0.22387,-5.65057 -0.67187,-7.6914 -0.448,-2.04089 -1.04435,-3.65885 -1.79102,-4.85352 -0.74666,-1.24444 -1.64412,-2.1155 -2.68945,-2.61328 -0.99556,-0.49778 -2.09049,-0.7461 -3.28516,-0.74609 z m 44.80078,0 c -1.19466,0 -2.31604,0.24831 -3.36132,0.74609 -0.99556,0.49778 -1.86662,1.36884 -2.61329,2.61328 -0.74661,1.19467 -1.34301,2.81263 -1.79101,4.85352 -0.448,2.04083 -0.67188,4.60518 -0.67188,7.6914 0,3.08622 0.22388,5.67496 0.67188,7.76563 0.448,2.04083 1.0444,3.70773 1.79101,5.00195 0.74667,1.24444 1.61773,2.13994 2.61329,2.6875 1.04528,0.54756 2.16666,0.82227 3.36132,0.82227 1.19467,0 2.2896,-0.27471 3.28516,-0.82227 1.04533,-0.54756 1.94083,-1.44306 2.6875,-2.6875 0.74667,-1.29422 1.34497,-2.96112 1.79297,-5.00195 0.448,-2.09067 0.67187,-4.67941 0.67187,-7.76563 0,-3.08622 -0.22387,-5.65057 -0.67187,-7.6914 -0.448,-2.04089 -1.0463,-3.65885 -1.79297,-4.85352 -0.74667,-1.24444 -1.64217,-2.1155 -2.6875,-2.61328 -0.99556,-0.49778 -2.09049,-0.7461 -3.28516,-0.74609 z m -196.79687,10.01757 c 1.59289,0 2.9117,0.52108 3.95703,1.56641 1.09511,0.99555 1.64258,2.3652 1.64258,4.10742 0,1.74222 -0.54747,3.13631 -1.64258,4.18164 -1.04533,0.99556 -2.36414,1.49414 -3.95703,1.49414 -1.59289,0 -2.93815,-0.49858 -4.0332,-1.49414 -1.04534,-1.04533 -1.56836,-2.43942 -1.56836,-4.18164 0,-1.74222 0.52302,-3.11187 1.56836,-4.10742 1.09505,-1.04533 2.44031,-1.56641 4.0332,-1.56641 z m 151.99609,0.0625 c 1.59289,0 2.9117,0.52303 3.95703,1.56836 1.09511,0.99556 1.64258,2.36325 1.64258,4.10547 0,1.74222 -0.54747,3.13631 -1.64258,4.18164 -1.04533,0.99556 -2.36414,1.49414 -3.95703,1.49414 -1.59289,0 -2.93614,-0.49858 -4.03125,-1.49414 -1.04533,-1.04533 -1.56836,-2.43942 -1.56836,-4.18164 0,-1.74222 0.52303,-3.10991 1.56836,-4.10547 1.09511,-1.04533 2.43836,-1.56836 4.03125,-1.56836 z m 44.80078,0 c 1.59289,0 2.9117,0.52303 3.95704,1.56836 1.09506,0.99556 1.64257,2.36325 1.64257,4.10547 0,1.74222 -0.54751,3.13631 -1.64257,4.18164 -1.04534,0.99556 -2.36415,1.49414 -3.95704,1.49414 -1.59283,0 -2.93809,-0.49858 -4.0332,-1.49414 -1.04533,-1.04533 -1.56641,-2.43942 -1.56641,-4.18164 0,-1.74222 0.52108,-3.10991 1.56641,-4.10547 1.09511,-1.04533 2.44037,-1.56836 4.0332,-1.56836 z m -150.72851,7.77735 c -1.39378,0 -2.83675,0.34803 -4.33008,1.04492 -1.49333,0.69689 -2.9627,1.89154 -4.40625,3.58398 0.29867,1.89156 0.72198,3.48508 1.26953,4.7793 0.59733,1.24444 1.26896,2.2641 2.01563,3.06055 0.74666,0.74666 1.56884,1.29419 2.46484,1.64257 0.896,0.29867 1.81594,0.44727 2.76172,0.44727 0.94578,0 1.84323,-0.1486 2.68945,-0.44727 0.896,-0.2986 1.6674,-0.74647 2.31445,-1.34374 0.69689,-0.64712 1.24436,-1.4429 1.64258,-2.38868 0.39823,-0.99555 0.59766,-2.16576 0.59766,-3.50976 0,-2.43911 -0.64719,-4.18129 -1.94141,-5.22656 -1.29422,-1.09512 -2.98746,-1.64258 -5.07812,-1.64258 z m 52.82422,52.47656 -33.59961,20.13281 -33.59961,20.13086 v 38.31836 38.31836 L 220,312.60742 c 17.15975,10.32147 33.19554,18.80526 35.63672,18.84766 2.44118,0.0424 18.64139,-8.39771 36,-18.75196 l 31.5625,-18.82812 v -38.33008 -38.33789 l -33.59961,-20.13086 z m -148.7168,0.51367 -17.644531,10.30274 c -9.702585,5.66561 -24.117211,14.1807 -32.03711,18.91992 l -14.40039,8.61328 -0.898438,39.73047 -0.894531,39.72461 32.892578,19.60547 c 28.548782,17.01334 33.746512,19.07779 39.300782,15.61914 3.51998,-2.19189 18.32003,-11.03169 32.89258,-19.63868 l 26.49414,-15.65039 -0.89258,-39.76757 -0.89453,-39.76954 -31.96289,-18.84179 z m 297.59766,0 -17.64258,10.30274 c -9.7026,5.66561 -24.11722,14.1807 -32.03711,18.91992 l -14.40039,8.61328 -0.90039,39.62305 -0.89453,39.62109 32.69531,19.59766 32.69336,19.59961 33.09961,-19.50391 33.09375,-19.50781 -0.89453,-39.78907 -0.89258,-39.78711 -31.96289,-18.84179 z m 26.36914,52.35352 c 3.0862,0 5.87439,0.64718 8.36328,1.9414 2.48889,1.24445 4.55462,2.66297 6.19726,4.25586 l -6.04882,6.79492 c -1.14489,-1.04531 -2.41482,-1.89195 -3.8086,-2.53906 -1.344,-0.64711 -2.91112,-0.9707 -4.70312,-0.9707 -1.74222,0 -3.33575,0.37247 -4.7793,1.11914 -1.44355,0.69689 -2.71153,1.7185 -3.80664,3.0625 -1.04533,1.344 -1.86751,2.98642 -2.46484,4.92773 -0.59734,1.94134 -0.89649,4.13121 -0.89649,6.57032 0,5.02753 1.14577,8.93512 3.43555,11.72265 2.28977,2.73778 5.27545,4.10742 8.95898,4.10742 1.74222,0 3.33574,-0.39886 4.7793,-1.19531 1.49333,-0.79644 2.83658,-1.8425 4.03125,-3.13672 l 6.04883,6.64649 c -4.032,4.77864 -9.35808,7.16797 -15.97852,7.16797 -3.03644,0 -5.92433,-0.52303 -8.66211,-1.56836 -2.68798,-1.09511 -5.0773,-2.68863 -7.16797,-4.7793 -2.04086,-2.09067 -3.68329,-4.67942 -4.92773,-7.76562 -1.19467,-3.136 -1.79102,-6.7444 -1.79102,-10.82618 0,-4.03197 0.59635,-7.61595 1.79102,-10.75195 1.19467,-3.18578 2.83709,-5.87425 4.92773,-8.06445 2.09067,-2.19022 4.55525,-3.85707 7.39258,-5.00196 2.83733,-1.14488 5.87382,-1.71679 9.10938,-1.71679 z m -170.98047,0.20312 h 16.35156 c 2.53867,0 4.87909,0.19944 7.01953,0.59766 2.19022,0.34844 4.08094,0.99566 5.67383,1.9414 1.59289,0.94578 2.83838,2.18932 3.73438,3.73243 0.94574,1.54308 1.41796,3.48466 1.41796,5.82422 0,1.09508 -0.17499,2.19004 -0.52343,3.28515 -0.29867,1.09511 -0.7953,2.11672 -1.49219,3.0625 -0.69689,0.94578 -1.56795,1.79044 -2.61328,2.53711 -1.04534,0.74667 -2.29082,1.29413 -3.73438,1.64258 v 0.29883 c 3.48445,0.64711 6.12402,1.8926 7.91602,3.73437 1.792,1.84178 2.6875,4.40412 2.6875,7.68946 0,2.48885 -0.47219,4.62987 -1.41797,6.42187 -0.94578,1.792 -2.26654,3.2858 -3.95899,4.48047 -1.69241,1.14489 -3.68287,2.01595 -5.97265,2.61328 -2.24,0.54756 -4.67819,0.82031 -7.31641,0.82031 h -17.77148 z m -27.92578,0.37305 c 2.73774,0 5.22682,0.52303 7.46679,1.56836 2.24,0.99555 4.15715,2.53827 5.75,4.6289 1.59289,2.04089 2.81199,4.5788 3.65821,7.61524 0.896,3.03644 1.34375,6.57155 1.34375,10.60351 0,4.032 -0.44775,7.59152 -1.34375,10.67774 -0.84622,3.08622 -2.06532,5.67499 -3.65821,7.76562 -1.59285,2.09067 -3.51,3.68224 -5.75,4.77735 -2.23997,1.04533 -4.72905,1.56836 -7.46679,1.56836 -2.73778,0 -5.2268,-0.52303 -7.4668,-1.56836 -2.24,-1.09511 -4.15516,-2.68668 -5.74805,-4.77735 -1.59288,-2.09063 -2.83837,-4.6794 -3.73437,-7.76562 -0.84622,-3.08622 -1.26953,-6.64574 -1.26953,-10.67774 0,-4.03196 0.42331,-7.56707 1.26953,-10.60351 0.896,-3.03644 2.14149,-5.57435 3.73437,-7.61524 1.59289,-2.09063 3.50805,-3.63335 5.74805,-4.6289 2.24,-1.04533 4.72902,-1.56836 7.4668,-1.56836 z m -111.57813,0.25781 h 13.14063 l 15.1582,48.68164 h -11.64844 l -2.91211,-11.57226 h -14.70898 l -2.98633,11.57226 h -11.20117 z m -38.230467,0.37305 c 2.737764,0 5.226806,0.52302 7.466797,1.56836 2.239991,0.99555 4.15712,2.53828 5.75,4.6289 1.59288,2.04089 2.811985,4.5788 3.658203,7.61524 0.895997,3.03644 1.343747,6.57156 1.343747,10.60351 0,4.032 -0.44775,7.59152 -1.343747,10.67774 -0.846218,3.08622 -2.065323,5.675 -3.658203,7.76562 -1.59288,2.09067 -3.510009,3.68224 -5.75,4.77735 -2.239991,1.04533 -4.729033,1.56836 -7.466797,1.56836 -2.737764,0 -5.226806,-0.52303 -7.466797,-1.56836 -2.239991,-1.09511 -4.155163,-2.68668 -5.748047,-4.77735 -1.59288,-2.09062 -2.838379,-4.6794 -3.734375,-7.76562 -0.846217,-3.08622 -1.269531,-6.64574 -1.269531,-10.67774 0,-4.03195 0.423314,-7.56707 1.269531,-10.60351 0.895996,-3.03644 2.141495,-5.57435 3.734375,-7.61524 1.592884,-2.09062 3.508056,-3.63335 5.748047,-4.6289 2.239991,-1.04534 4.729033,-1.56836 7.466797,-1.56836 z m 299.060547,0.0605 c 2.73778,0 5.2268,0.52305 7.4668,1.56836 2.23998,0.99556 4.15711,2.54022 5.75,4.63086 1.59288,2.04089 2.81198,4.5788 3.6582,7.61524 0.896,3.03644 1.34375,6.56956 1.34375,10.60156 0,4.032 -0.44775,7.59151 -1.34375,10.67774 -0.84622,3.0862 -2.06532,5.67495 -3.6582,7.76562 -1.59289,2.09067 -3.51002,3.68419 -5.75,4.7793 -2.24,1.04533 -4.72902,1.56836 -7.4668,1.56836 -2.73778,0 -5.22486,-0.52303 -7.46484,-1.56836 -2.24,-1.09511 -4.15714,-2.68863 -5.75,-4.7793 -1.59289,-2.09067 -2.83838,-4.67942 -3.73438,-7.76562 -0.84622,-3.08623 -1.26758,-6.64574 -1.26758,-10.67774 0,-4.032 0.42136,-7.56512 1.26758,-10.60156 0.896,-3.03644 2.14149,-5.57435 3.73438,-7.61524 1.59286,-2.09064 3.51,-3.6353 5.75,-4.63086 2.23998,-1.04531 4.72706,-1.56836 7.46484,-1.56836 z m -110.34961,7.52149 v 10.97656 h 4.85352 c 2.68796,0 4.62955,-0.52302 5.82422,-1.56836 1.19463,-1.04533 1.79101,-2.51277 1.79101,-4.40429 0,-1.792 -0.62274,-3.06193 -1.86719,-3.8086 -1.19466,-0.79644 -3.08541,-1.19531 -5.67382,-1.19531 z m -38.90234,0.29883 c -1.19467,0 -2.31405,0.24831 -3.35938,0.74609 -0.99555,0.49778 -1.86661,1.37079 -2.61328,2.61524 -0.74667,1.19463 -1.34497,2.81067 -1.79297,4.85156 -0.448,2.04089 -0.67187,4.60521 -0.67187,7.6914 0,3.08622 0.22387,5.67496 0.67187,7.76563 0.448,2.04089 1.0463,3.70773 1.79297,5.00195 0.74667,1.24445 1.61773,2.1419 2.61328,2.68946 1.04533,0.54755 2.16471,0.82031 3.35938,0.82031 1.19466,0 2.2896,-0.27276 3.28515,-0.82031 1.04534,-0.54756 1.94279,-1.44501 2.68946,-2.68946 0.74666,-1.29422 1.34301,-2.96106 1.79101,-5.00195 0.448,-2.09067 0.67188,-4.67941 0.67188,-7.76563 0,-3.08619 -0.22388,-5.65051 -0.67188,-7.6914 -0.448,-2.04089 -1.04435,-3.65693 -1.79101,-4.85156 -0.74667,-1.24445 -1.64412,-2.11746 -2.68946,-2.61524 -0.99555,-0.49778 -2.09049,-0.74609 -3.28515,-0.74609 z m -105.38086,0.10742 c -0.59734,2.58844 -1.22008,5.2525 -1.86719,7.99023 -0.64711,2.688 -1.2943,5.2523 -1.94141,7.69141 l -1.11914,4.47852 h 10.22852 l -1.11914,-4.47852 c -0.64711,-2.43911 -1.32069,-5.00341 -2.01758,-7.69141 -0.69689,-2.73773 -1.31768,-5.40179 -1.86523,-7.99023 z m -44.427737,0.52344 c -1.194662,0 -2.314046,0.24831 -3.359375,0.74609 -0.995551,0.49778 -1.866619,1.36884 -2.613281,2.61328 -0.746662,1.19467 -1.344969,2.81263 -1.792969,4.85352 -0.447996,2.04089 -0.671875,4.60522 -0.671875,7.6914 0,3.08622 0.223879,5.67496 0.671875,7.76563 0.448,2.04089 1.046307,3.70773 1.792969,5.00195 0.746662,1.24445 1.61773,2.13995 2.613281,2.6875 1.045329,0.54756 2.164713,0.82227 3.359375,0.82227 1.194662,0 2.289605,-0.27471 3.285156,-0.82227 1.045329,-0.54755 1.942791,-1.44305 2.689453,-2.6875 0.746667,-1.29422 1.34302,-2.96106 1.791016,-5.00195 0.448,-2.09067 0.671875,-4.67941 0.671875,-7.76563 0,-3.08618 -0.223875,-5.65051 -0.671875,-7.6914 -0.447996,-2.04089 -1.044349,-3.65885 -1.791016,-4.85352 -0.746662,-1.24444 -1.644124,-2.1155 -2.689453,-2.61328 -0.995551,-0.49778 -2.090494,-0.74609 -3.285156,-0.74609 z m 299.060547,0.0625 c -1.19467,0 -2.31406,0.24831 -3.35937,0.74609 -0.99556,0.49778 -1.86662,1.36884 -2.61329,2.61328 -0.74666,1.19467 -1.34301,2.81263 -1.79101,4.85352 -0.448,2.04089 -0.67188,4.60323 -0.67188,7.68945 0,3.08622 0.22388,5.67496 0.67188,7.76563 0.448,2.04086 1.04435,3.70968 1.79101,5.0039 0.74667,1.24445 1.61773,2.13995 2.61329,2.6875 1.04531,0.54756 2.1647,0.82031 3.35937,0.82031 1.19467,0 2.29155,-0.27275 3.28711,-0.82031 1.04533,-0.54755 1.94083,-1.44305 2.6875,-2.6875 0.74667,-1.29422 1.34302,-2.96304 1.79102,-5.0039 0.44797,-2.09067 0.67187,-4.67941 0.67187,-7.76563 0,-3.08622 -0.2239,-5.64856 -0.67187,-7.68945 -0.448,-2.04089 -1.04435,-3.65885 -1.79102,-4.85352 -0.74667,-1.24444 -1.64217,-2.1155 -2.6875,-2.61328 -0.99556,-0.49778 -2.09244,-0.74609 -3.28711,-0.74609 z m -149.25195,9.38672 c 1.59288,0 2.9117,0.52302 3.95703,1.56836 1.09511,0.99552 1.64258,2.3652 1.64258,4.10742 0,1.74222 -0.54747,3.13438 -1.64258,4.17968 -1.04533,0.99556 -2.36415,1.49415 -3.95703,1.49414 -1.59289,10e-6 -2.93614,-0.49858 -4.03125,-1.49414 -1.04534,-1.0453 -1.56836,-2.43746 -1.56836,-4.17968 0,-1.74222 0.52302,-3.1119 1.56836,-4.10742 1.09511,-1.04534 2.43836,-1.56836 4.03125,-1.56836 z m -149.808597,0.63086 c 1.592884,-1e-5 2.911703,0.52306 3.957031,1.56835 1.095107,0.99556 1.642579,2.36325 1.642578,4.10547 10e-7,1.74222 -0.547471,3.13631 -1.642578,4.18164 -1.045328,0.99556 -2.364147,1.49414 -3.957031,1.49414 -1.59288,0 -2.936143,-0.49858 -4.03125,-1.49414 -1.045329,-1.04533 -1.568359,-2.43942 -1.568359,-4.18164 0,-1.74222 0.52303,-3.10991 1.568359,-4.10547 1.095107,-1.04529 2.43837,-1.56836 4.03125,-1.56835 z m 299.060547,0.0625 c 1.59289,0 2.91367,0.52107 3.95898,1.5664 1.09511,0.99556 1.64258,2.3652 1.64258,4.10742 0,1.74222 -0.54747,3.13631 -1.64258,4.18164 -1.04531,0.99556 -2.36609,1.49219 -3.95898,1.49219 -1.59289,0 -2.93614,-0.49663 -4.03125,-1.49219 -1.04533,-1.04533 -1.56836,-2.43942 -1.56836,-4.18164 0,-1.74222 0.52303,-3.11186 1.56836,-4.10742 1.09511,-1.04533 2.43836,-1.56641 4.03125,-1.5664 z m -110.34961,7.81835 v 12.61915 h 5.89844 c 5.87374,0 8.81055,-2.18988 8.81054,-6.57032 0,-2.14044 -0.72246,-3.68313 -2.16601,-4.6289 -1.39378,-0.94578 -3.60809,-1.41993 -6.64453,-1.41993 z m -89.4707,51.77149 -33.28711,19.61914 -33.28711,19.61719 v 38.86523 38.86328 L 148,446.01172 l 32.79883,19.79101 20.80078,-11.93359 c 11.43987,-6.56244 26.18637,-14.95845 32.77344,-18.65625 l 11.96875,-6.7207 0.0332,-40.19336 0.0254,-40.18555 -32.3125,-19.42578 z m 148.44336,0 -32.3125,19.42578 -32.30469,19.42578 0.0547,40.18555 0.0625,40.19336 32.65625,18.70703 32.66211,18.71289 9.68164,-5.94531 c 5.32436,-3.27013 20.12099,-12.22771 32.88086,-19.90625 l 23.20117,-13.96289 v -38.79883 -38.80078 l -33.29492,-19.61719 z m -24.91211,53.13672 c 2.48889,0 4.75403,0.37442 6.79492,1.12109 2.04089,0.69689 3.78301,1.71655 5.22656,3.06055 1.49333,1.29422 2.63715,2.86135 3.4336,4.70312 0.84622,1.84178 1.26953,3.90945 1.26953,6.19922 0,1.99111 -0.47219,4.03043 -1.41797,6.1211 -0.94578,2.04088 -2.24015,4.1066 -3.88281,6.19726 -1.59289,2.04089 -3.43473,4.1066 -5.5254,6.19727 -2.09066,2.04088 -4.28053,4.05771 -6.57031,6.04883 1.344,-0.14934 2.78697,-0.2735 4.33008,-0.37305 1.59289,-0.14934 3.01142,-0.22461 4.25586,-0.22461 h 11.27539 v 9.25976 h -35.61719 v -6.27343 c 3.38489,-2.83733 6.47221,-5.47496 9.25977,-7.91407 2.78755,-2.48888 5.17686,-4.80291 7.16797,-6.94336 1.99111,-2.14044 3.53379,-4.15727 4.6289,-6.04882 1.09511,-1.89156 1.64258,-3.68256 1.64258,-5.375 0,-2.33956 -0.67162,-4.10807 -2.01562,-5.30274 -1.344,-1.24444 -3.26112,-1.86523 -5.75,-1.86523 -1.89156,0 -3.63368,0.49663 -5.22657,1.49219 -1.54311,0.94577 -2.98607,2.06515 -4.33007,3.35937 l -5.89844,-5.89844 c 1.24444,-1.24444 2.46354,-2.33938 3.6582,-3.28515 1.24445,-0.94578 2.53882,-1.71712 3.88281,-2.31446 1.39378,-0.64711 2.83675,-1.1193 4.33008,-1.41796 1.54311,-0.34845 3.23635,-0.52344 5.07813,-0.52344 z m 46.4414,0 c 2.73778,0 5.2268,0.52302 7.4668,1.56836 2.24,0.99555 4.15711,2.53824 5.75,4.6289 1.59289,2.04089 2.81198,4.58075 3.6582,7.61719 0.896,3.03644 1.34375,6.56957 1.34375,10.60156 0,4.032 -0.44775,7.59152 -1.34375,10.67774 -0.84622,3.08622 -2.06531,5.67496 -3.6582,7.76562 -1.59289,2.09067 -3.51,3.68419 -5.75,4.7793 -2.24,1.04533 -4.72902,1.56641 -7.4668,1.56641 -2.73777,0 -5.22679,-0.52108 -7.46679,-1.56641 -2.24,-1.09511 -4.15516,-2.68863 -5.74805,-4.7793 -1.59289,-2.09066 -2.83838,-4.6794 -3.73437,-7.76562 -0.84623,-3.08622 -1.26954,-6.64574 -1.26954,-10.67774 0,-4.03199 0.42331,-7.56512 1.26954,-10.60156 0.89599,-3.03644 2.14148,-5.5763 3.73437,-7.61719 1.59289,-2.09066 3.50805,-3.63335 5.74805,-4.6289 2.24,-1.04534 4.72902,-1.56836 7.46679,-1.56836 z m -194.09179,1.54492 c 2.73776,0 5.2268,0.52303 7.46679,1.56836 2.24,0.99555 4.15713,2.53825 5.75,4.6289 1.59289,2.04089 2.81199,4.58076 3.65821,7.61719 0.896,3.03645 1.34375,6.56957 1.34375,10.60157 0,4.03198 -0.44775,7.59151 -1.34375,10.67773 -0.84622,3.08622 -2.06532,5.67497 -3.65821,7.76562 -1.59287,2.09067 -3.51,3.68419 -5.75,4.7793 -2.23999,1.04533 -4.72903,1.56836 -7.46679,1.56836 -2.73778,0 -5.2268,-0.52303 -7.4668,-1.56836 -2.24,-1.09511 -4.15516,-2.68863 -5.74805,-4.7793 -1.59288,-2.09065 -2.83837,-4.6794 -3.73437,-7.76562 -0.84622,-3.08622 -1.26953,-6.64575 -1.26953,-10.67773 0,-4.032 0.42331,-7.56512 1.26953,-10.60157 0.896,-3.03643 2.14149,-5.5763 3.73437,-7.61719 1.59289,-2.09065 3.50805,-3.63335 5.74805,-4.6289 2.24,-1.04533 4.72902,-1.56836 7.4668,-1.56836 z m 44.80078,0 c 2.73777,0 5.2268,0.52303 7.4668,1.56836 2.23998,0.99555 4.15515,2.53825 5.74804,4.6289 1.59289,2.04089 2.81394,4.58076 3.66016,7.61719 0.896,3.03645 1.34375,6.56957 1.34375,10.60157 0,4.03198 -0.44775,7.59151 -1.34375,10.67773 -0.84622,3.08622 -2.06727,5.67497 -3.66016,7.76562 -1.59289,2.09067 -3.50806,3.68419 -5.74804,4.7793 -2.24,1.04533 -4.72903,1.56836 -7.4668,1.56836 -2.73778,0 -5.2268,-0.52303 -7.4668,-1.56836 -2.24,-1.09511 -4.15711,-2.68863 -5.75,-4.7793 -1.59289,-2.09065 -2.83642,-4.6794 -3.73242,-7.76562 -0.84622,-3.08622 -1.26953,-6.64575 -1.26953,-10.67773 0,-4.032 0.42331,-7.56512 1.26953,-10.60157 0.896,-3.03643 2.13953,-5.5763 3.73242,-7.61719 1.59289,-2.09065 3.51,-3.63335 5.75,-4.6289 2.24,-1.04533 4.72902,-1.56836 7.4668,-1.56836 z m 149.29101,6.9668 c -1.19466,0 -2.31404,0.25027 -3.35937,0.74804 -0.99556,0.49778 -1.86662,1.36884 -2.61328,2.61328 -0.74667,1.19467 -1.34497,2.81263 -1.79297,4.85352 -0.448,2.04089 -0.67188,4.60323 -0.67188,7.68945 0,3.08622 0.22388,5.67496 0.67188,7.76563 0.448,2.04089 1.0463,3.70773 1.79297,5.00195 0.74666,1.24445 1.61772,2.1419 2.61328,2.68945 1.04533,0.54756 2.16471,0.82032 3.35937,0.82032 1.19467,0 2.2896,-0.27276 3.28516,-0.82032 1.04533,-0.54755 1.94279,-1.445 2.68945,-2.68945 0.74667,-1.29422 1.34302,-2.96106 1.79102,-5.00195 0.448,-2.09067 0.67187,-4.67941 0.67187,-7.76563 0,-3.08622 -0.22387,-5.64856 -0.67187,-7.68945 -0.448,-2.04089 -1.04435,-3.65885 -1.79102,-4.85352 -0.74666,-1.24444 -1.64412,-2.1155 -2.68945,-2.61328 -0.99556,-0.49777 -2.09049,-0.74804 -3.28516,-0.74804 z m -194.09179,1.54687 c -1.19467,0 -2.31405,0.24833 -3.35938,0.74609 -0.99555,0.49778 -1.86661,1.36884 -2.61328,2.61329 -0.74667,1.19466 -1.34497,2.81262 -1.79297,4.85351 -0.448,2.04089 -0.67187,4.60323 -0.67187,7.68946 0,3.08621 0.22387,5.67495 0.67187,7.76562 0.448,2.04089 1.0463,3.70968 1.79297,5.00391 0.74667,1.24444 1.61773,2.13994 2.61328,2.6875 1.04533,0.54755 2.16471,0.82031 3.35938,0.82031 1.19466,0 2.2896,-0.27276 3.28515,-0.82031 1.04534,-0.54756 1.94279,-1.44306 2.68946,-2.6875 0.74666,-1.29423 1.34301,-2.96302 1.79101,-5.00391 0.448,-2.09067 0.67188,-4.67941 0.67188,-7.76562 0,-3.08623 -0.22388,-5.64857 -0.67188,-7.68946 -0.448,-2.04089 -1.04435,-3.65885 -1.79101,-4.85351 -0.74667,-1.24445 -1.64412,-2.11551 -2.68946,-2.61329 -0.99555,-0.49776 -2.09049,-0.74609 -3.28515,-0.74609 z m 44.80078,0 c -1.19467,0 -2.316,0.24833 -3.36133,0.74609 -0.99556,0.49778 -1.86661,1.36884 -2.61328,2.61329 -0.74667,1.19466 -1.34302,2.81262 -1.79102,4.85351 -0.448,2.04089 -0.67187,4.60323 -0.67187,7.68946 0,3.08621 0.22387,5.67495 0.67187,7.76562 0.448,2.04089 1.04435,3.70968 1.79102,5.00391 0.74667,1.24444 1.61772,2.13994 2.61328,2.6875 1.04533,0.54755 2.16666,0.82031 3.36133,0.82031 1.19466,0 2.28961,-0.27276 3.28515,-0.82031 1.04534,-0.54756 1.94085,-1.44306 2.6875,-2.6875 0.74667,-1.29423 1.34497,-2.96302 1.79297,-5.00391 0.448,-2.09067 0.67188,-4.67941 0.67188,-7.76562 0,-3.08623 -0.22388,-5.64857 -0.67188,-7.68946 -0.448,-2.04089 -1.0463,-3.65885 -1.79297,-4.85351 -0.74665,-1.24445 -1.64216,-2.11551 -2.6875,-2.61329 -0.99554,-0.49776 -2.09049,-0.74609 -3.28515,-0.74609 z m 149.29101,8.5332 c 1.59289,0 2.9117,0.52303 3.95703,1.56836 1.09512,0.99556 1.64454,2.3652 1.64454,4.10743 0,1.74222 -0.54942,3.1363 -1.64454,4.18164 -1.04533,0.99555 -2.36414,1.49218 -3.95703,1.49218 -1.59288,0 -2.93614,-0.49663 -4.03125,-1.49218 -1.04533,-1.04534 -1.56836,-2.43942 -1.56836,-4.18164 0,-1.74223 0.52303,-3.11187 1.56836,-4.10743 1.09511,-1.04533 2.43837,-1.56836 4.03125,-1.56836 z m -194.09179,1.54688 c 1.59288,0 2.9117,0.52107 3.95703,1.56641 1.09511,0.99554 1.64258,2.3652 1.64258,4.10742 0,1.74222 -0.54747,3.13631 -1.64258,4.18164 -1.04533,0.99555 -2.36415,1.49219 -3.95703,1.49219 -1.59289,0 -2.93614,-0.49664 -4.03125,-1.49219 -1.04534,-1.04533 -1.56836,-2.43942 -1.56836,-4.18164 0,-1.74222 0.52302,-3.11188 1.56836,-4.10742 1.09511,-1.04534 2.43836,-1.56641 4.03125,-1.56641 z m 44.80078,0 c 1.59289,0 2.9117,0.52107 3.95703,1.56641 1.09511,0.99554 1.64258,2.3652 1.64258,4.10742 0,1.74222 -0.54747,3.13631 -1.64258,4.18164 -1.04533,0.99555 -2.36414,1.49219 -3.95703,1.49219 -1.59289,0 -2.9381,-0.49664 -4.0332,-1.49219 -1.04534,-1.04533 -1.56641,-2.43942 -1.56641,-4.18164 0,-1.74222 0.52107,-3.11188 1.56641,-4.10742 1.0951,-1.04534 2.44031,-1.56641 4.0332,-1.56641 z" />
      </g>
    </g>
  </g>
</svg>
