<?xml version="1.0" encoding="UTF-8" standalone="no"?>
<!-- Created with Inkscape (http://www.inkscape.org/) -->

<svg
   version="1.1"
   id="svg64"
   width="512"
   height="512"
   viewBox="0 0 512 512"
   sodipodi:docname="hikpwn.svg"
   inkscape:version="1.2.2 (b0a8486541, 2022-12-01)"
   inkscape:export-filename="../GIT Icons/hikpwn.png"
   inkscape:export-xdpi="96"
   inkscape:export-ydpi="96"
   xmlns:inkscape="http://www.inkscape.org/namespaces/inkscape"
   xmlns:sodipodi="http://sodipodi.sourceforge.net/DTD/sodipodi-0.dtd"
   xmlns="http://www.w3.org/2000/svg"
   xmlns:svg="http://www.w3.org/2000/svg"
   xmlns:rdf="http://www.w3.org/1999/02/22-rdf-syntax-ns#"
   xmlns:cc="http://creativecommons.org/ns#"
   xmlns:dc="http://purl.org/dc/elements/1.1/">
  <metadata
     id="metadata70">
    <rdf:RDF>
      <cc:Work
         rdf:about="">
        <dc:format>image/svg+xml</dc:format>
        <dc:type
           rdf:resource="http://purl.org/dc/dcmitype/StillImage" />
      </cc:Work>
    </rdf:RDF>
  </metadata>
  <defs
     id="defs68">
    <rect
       x="-441.1026"
       y="223.89288"
       width="193.25496"
       height="51.111832"
       id="rect11868" />
  </defs>
  <sodipodi:namedview
     pagecolor="#2b2b2b"
     bordercolor="#666666"
     borderopacity="1"
     objecttolerance="10"
     gridtolerance="10"
     guidetolerance="10"
     inkscape:pageopacity="0"
     inkscape:pageshadow="2"
     inkscape:window-width="1366"
     inkscape:window-height="705"
     id="namedview66"
     showgrid="false"
     inkscape:zoom="0.6986215"
     inkscape:cx="229.73813"
     inkscape:cy="277.68971"
     inkscape:window-x="0"
     inkscape:window-y="26"
     inkscape:window-maximized="1"
     inkscape:current-layer="svg64"
     inkscape:pagecheckerboard="0"
     inkscape:showpageshadow="0"
     inkscape:deskcolor="#2b2b2b" />
  <g
     id="g1959"
     transform="matrix(0.98790674,0,0,0.93928485,3.0972683,15.534109)">
    <path
       id="rect535-7"
       style="fill:#ffffff;stroke-width:4.6804"
       d="M 99.423828,-10.041016 C 86.404137,-5.8711426 73.023304,-2.3299468 60.9872,4.3330212 46.119123,12.439105 33.459693,24.263983 23.496073,37.892334 16.658598,47.333562 11.513883,57.946229 7.7770575,68.954656 6.1650568,73.490591 4.5816358,78.046464 3.2851562,82.681641 2.6555767,86.744105 3.104908,90.863998 2.9609527,94.952734 2.9770771,172.95481 2.9084666,250.95705 3.1004193,328.95896 c 0.049887,17.11973 0.2281193,34.24054 0.1553816,51.35971 -0.5530353,7.77 -0.1412564,15.56361 -0.2814322,23.34422 0.014751,19.18914 -0.069056,38.38016 0.1266802,57.56793 1.076049,19.7712 11.8395691,38.79002 28.3336311,49.77415 11.41094,7.75288 25.341789,11.63988 39.113757,11.11809 124.796063,0.007 249.592343,0.009 374.388263,-0.0307 18.69968,-0.0169 37.11488,-8.83055 49.05949,-23.18221 8.65002,-10.36283 13.90886,-23.47473 14.88855,-36.93237 0.33231,-4.1764 0.0729,-8.36683 0.14761,-12.55041 -0.002,-22.15352 0.0745,-44.30855 -0.0999,-66.46103 -0.37935,-6.03679 -0.14052,-12.12485 -0.16214,-18.22562 0.30902,-66.5162 0.24326,-133.03337 0.21417,-199.55006 -0.0635,-21.16404 -0.0616,-42.33412 -0.76141,-63.48873 -0.36927,-9.93596 -0.72613,-19.966465 -3.0467,-29.676868 C 503.91292,66.76029 501.68814,61.792054 499.16459,57.022148 495.76903,50.379261 492.1628,43.823249 487.86687,37.712764 477.12377,22.186837 462.377,9.3455097 445.20705,1.4021371 c -6.77126,-3.3659768 -13.80791,-6.4793537 -21.33986,-7.6267465 -10.667,-1.8985576 -21.5344,-1.9751558 -32.32918,-2.3933101 -24.07837,-0.6488167 -48.16777,-0.5736074 -72.25242,-0.7222275 -73.181,-0.3051159 -146.36226,-0.5418039 -219.543402,-0.810244 -0.10612,0.03646 -0.21224,0.07292 -0.31836,0.109375 z" />
    <g
       id="g1839"
       transform="translate(-0.00765659,11.700719)">
      <rect
         style="fill:#000000;stroke-width:4.6804"
         id="rect535"
         width="474.06683"
         height="169.21875"
         x="18.981985"
         y="325.21677"
         ry="48.845528" />
      <path
         id="path1009-3"
         style="fill:#ff0000;fill-opacity:1;stroke:none;stroke-width:2.41886"
         d="m 102.28033,-5.8369026 c -0.0941,0.0295 -0.18752,0.0584 -0.2816,0.08789 -8.635286,2.7450375 -17.423656,5.10385453 -25.745531,8.7382815 -8.542435,3.64643 -16.515293,8.6239821 -23.481104,14.7753911 -8.973026,7.88073 -16.868327,17.116639 -22.517866,27.679687 -3.668168,6.721937 -6.390547,13.90419 -8.783807,21.16407 -0.82272,2.47516 -1.730535,4.93613 -2.501342,7.41992 0.01094,69.723373 -0.02472,139.448513 0.02331,209.171873 0.0702,39.23183 0.141094,78.46309 0.522406,117.69336 0.09814,6.4197 0.09579,12.84541 0.384524,19.25977 0.05538,0.77625 0.127392,1.73218 0.932175,2.08593 1.366385,0.91884 3.035262,0.0775 4.338498,-0.55664 4.360612,-2.26321 8.050545,-5.55685 12.145474,-8.23632 7.933016,-5.42676 16.281708,-10.22862 24.848295,-14.57813 2.837005,-1.43423 5.920581,-2.92251 8.803235,-4.26172 12.409079,-5.73122 25.384582,-10.66555 38.403683,-14.82617 13.0161,-4.15419 26.18273,-7.59885 39.53589,-10.41211 19.39051,-4.07892 39.1571,-6.87167 59.00476,-8.10937 5.95296,-0.38564 12.06776,-0.67815 18.09197,-0.875 15.88785,-0.51725 31.98647,-0.4687 47.87886,0.0937 6.04886,0.21356 12.04173,0.50587 18.05507,0.88671 8.09105,0.51527 16.12162,1.17886 24.20355,2.0879 7.87028,0.86166 15.86536,2.05359 23.71414,3.52343 12.90154,2.37523 25.84917,5.32943 38.48525,8.84571 15.0784,4.20398 29.89721,9.21087 44.34242,15.30664 4.09919,1.72905 7.99857,3.48383 12.00952,5.38672 10.51604,5.01925 20.88553,10.75761 30.51515,17.43945 4.76412,3.30643 9.5228,6.98257 13.89136,10.91992 2.44931,2.1564 4.84943,4.41679 7.6147,6.16797 0.82639,0.5102 1.90846,0.47839 2.65476,-0.16016 1.35446,-1.33281 1.75551,-3.29811 2.27218,-5.06054 0.57284,-2.09557 0.40075,-4.29655 0.52241,-6.44532 0.36863,-17.49616 0.44239,-34.99689 0.56318,-52.49609 0.36227,-63.2079 0.30353,-126.41636 0.30491,-189.625 -0.0341,-23.92739 0.009,-47.85612 -0.36899,-71.78126 -0.20122,-10.050715 -0.37532,-20.116098 -1.25456,-30.134763 -0.58397,-6.37911 -1.55519,-12.87193 -4.44919,-18.662113 -1.7017,-3.45178 -3.49403,-6.85981 -5.27844,-10.269526 -7.2355,-13.442008 -17.17791,-25.600267 -29.7228,-34.402344 -4.5768,-3.2679141 -9.53161,-5.9626141 -14.62739,-8.3242191 -4.34167,-2.153449 -8.75443,-4.29429597 -13.52237,-5.322265 -7.00344,-1.575862 -14.20407,-1.933644 -21.35069,-2.3125 -15.75885,-0.6999995 -31.53642,-0.7760035 -47.30791,-0.9296885 -41.07608,-0.268 -82.15313,-0.329811 -123.22969,-0.496094 -43.21231,-0.152798 -86.42611,-0.30283 -129.6384,-0.457031 z" />
      <path
         id="path3159"
         style="fill:#ffffff;fill-opacity:1;stroke:none;stroke-width:2.42576"
         d="m 250.81452,74.366856 c -16.59424,0.322963 -33.14134,4.228908 -47.98701,11.646721 -16.26991,8.064335 -30.37104,20.226313 -41.13207,34.766193 -10.58172,14.24323 -18.0653,30.65969 -22.51396,47.78017 -2.20638,8.51953 -2.15184,17.38163 -2.19198,26.11624 -0.0418,12.25505 0.75403,24.62526 4.00153,36.49679 1.94776,7.35099 4.80507,14.41906 7.86265,21.3721 0.64933,1.51087 1.29865,3.02174 1.94798,4.53262 -4.04487,3.79321 -8.2413,7.43042 -12.14385,11.37092 -5.21257,5.27754 -9.73989,11.43154 -12.08114,18.5212 -2.29613,6.82763 -2.79927,14.1091 -2.67653,21.26358 0.14583,7.30253 1.7064,14.61528 4.94713,21.19141 2.54534,5.33236 6.11683,10.07713 9.30148,15.03334 0.2403,0.68289 0.77201,0.82326 1.44132,0.70742 78.76249,-0.5338 157.52556,-0.9742 236.28877,-1.38428 2.01945,-1.99443 4.19751,-3.83703 6.09422,-5.94979 3.29886,-4.01737 5.97402,-8.50823 8.36774,-13.10573 2.13547,-4.33285 4.55804,-8.69106 5.11366,-13.56671 0.64069,-5.34254 0.41822,-10.73797 0.48202,-16.10655 -0.0639,-5.42791 0.16093,-10.88198 -0.47539,-16.28459 -0.51797,-4.61162 -2.73891,-8.76264 -4.77122,-12.85856 -5.59394,-11.19576 -13.85499,-21.09349 -24.01574,-28.46942 -0.70049,-0.53066 -1.40098,-1.06132 -2.10146,-1.59197 1.51662,-7.58119 3.34519,-15.12058 4.12995,-22.82488 1.96467,-17.93905 0.32891,-36.28479 -4.92416,-53.56308 -3.83423,-12.66425 -9.85296,-24.63227 -17.39015,-35.51011 -10.69388,-15.41713 -24.98282,-28.457296 -41.70473,-37.14459 -15.64151,-8.187019 -33.3039,-12.431628 -50.96705,-12.459491 -0.96733,-0.008 -1.93468,0.01601 -2.90201,0.02104 z m 1.74276,51.460014 c 4.96004,0.0573 9.95307,-0.17906 14.88064,0.50453 4.45348,0.69069 8.44014,2.91796 12.47979,4.77497 10.04048,4.88697 18.99325,12.36802 25.51218,21.50487 1.30567,1.80535 2.6005,3.82619 3.6545,5.66924 2.74723,4.79187 4.89504,9.92467 6.35607,15.24692 0.33643,1.21973 0.69086,2.67304 0.96373,3.99927 0.89342,4.25248 1.21397,8.73873 1.33913,12.98527 0.11097,4.38493 -0.0158,8.80355 -0.35385,13.11832 -0.50989,5.97914 -1.24431,12.00358 -3.12977,17.72757 -0.25201,0.70067 -0.53479,1.44624 -0.79005,2.01493 -1.0158,2.27437 -2.08499,4.60379 -3.78312,6.46143 -1.67784,0.65286 -3.43072,1.20852 -5.08487,1.95872 -9.55535,4.17699 -17.95858,10.52474 -25.75708,17.34141 -5.66712,5.04508 -11.12233,10.31979 -16.68997,15.47251 -0.57736,0.47792 -1.08389,1.1364 -1.70513,1.50246 -3.56346,-0.0546 -7.12868,-0.03 -10.69083,-0.14588 -0.83667,-0.0445 -1.94534,-0.10287 -2.88379,-0.19222 -8.01275,-0.68908 -15.89604,-2.85817 -23.1138,-6.39111 -0.97874,-0.48293 -2.16468,-1.09455 -3.19729,-1.6786 -11.61681,-6.4695 -21.04197,-16.63527 -26.82675,-28.54418 -3.42958,-6.8302 -6.19006,-14.09168 -7.13093,-21.70859 -0.75962,-5.76039 -0.69555,-11.6063 -0.41727,-17.35114 0.56436,-11.57781 3.50399,-23.17228 9.47891,-33.18718 4.65627,-7.92199 11.16242,-14.68539 18.65333,-20.00712 5.46394,-4.02144 11.43496,-7.59074 18.09514,-9.21603 4.36841,-1.10804 8.87777,-1.52387 13.37062,-1.72482 0.59674,-0.0221 1.41796,-0.0563 2.05484,-0.0685 1.57149,-0.0441 3.14356,-0.0604 4.71562,-0.067 z" />
      <path
         id="path23340"
         style="fill:#ff0000;fill-opacity:1;stroke-width:2.42576"
         d="m 115.73832,412.36094 c -2.26376,0.002 -4.52752,0.003 -6.79128,0.006 0,22.43958 0,44.87918 0,67.31877 4.54833,-1.6e-4 9.09667,0.003 13.645,0.008 -0.29499,-9.20068 -0.58573,-18.4015 -0.8799,-27.60221 7.1117,0 14.2234,0 21.3351,0 -0.29417,9.20071 -0.58491,18.40153 -0.8799,27.60221 4.54833,-0.004 9.09667,-0.008 13.645,-0.008 0,-22.43959 0,-44.87919 0,-67.31877 -4.54959,-0.005 -9.09919,-0.008 -13.64878,-0.008 0.29644,8.74008 0.58821,17.48031 0.88368,26.22042 -7.11233,0 -14.22465,0 -21.33699,0 0.29478,-8.74016 0.58837,-17.48035 0.88557,-26.22042 -2.28583,-3.6e-4 -4.57167,9.6e-4 -6.8575,0.002 z" />
      <path
         id="path21928"
         style="fill:#ffffff;fill-opacity:1;stroke-width:2.42576"
         d="m 239.60485,412.43811 c -1.72162,0.11384 -3.68427,-0.0703 -5.11853,1.06178 -0.99807,0.88898 -0.94058,2.51625 -0.0151,3.43568 0.66498,2.67621 0.73922,5.4581 0.94869,8.19711 0.55052,9.8004 0.58897,19.62458 0.46363,29.46208 -0.12689,5.90614 -0.22962,11.75137 -0.8587,17.64837 -0.15542,0.92465 -0.14934,1.93865 -0.55551,2.78475 -0.99865,0.97567 -1.08483,2.75678 0.0605,3.65783 1.52686,1.07033 3.51053,0.88864 5.28654,0.98489 2.35636,-0.0254 4.76608,0.15549 7.07173,-0.42388 1.29897,-0.3333 2.26032,-1.74087 1.80733,-3.05504 -0.20008,-0.84591 -1.08853,-1.30559 -1.17628,-2.19855 -0.83411,-3.66759 -0.82534,-7.46085 -0.87326,-11.20269 0,-3.10662 0,-6.21324 0,-9.31985 5.23682,-0.0423 10.47873,0.10347 15.7118,-0.12689 2.76205,-0.12917 5.62718,-0.66782 7.87003,-2.38266 2.17525,-1.68406 4.35659,-3.48681 5.85209,-5.8227 1.82352,-3.06447 1.91047,-6.7334 2.19452,-10.18588 0.2912,-5.11565 -0.1958,-10.54415 -2.95142,-15.00101 -1.42259,-2.2183 -3.43304,-4.1794 -5.92051,-5.15341 -3.31704,-0.96405 -6.78923,-1.22966 -10.21264,-1.58538 -6.16236,-0.54571 -12.35267,-0.73093 -18.53736,-0.78566 -0.34919,0.004 -0.69838,0.008 -1.04756,0.0111 z m 14.19375,13.43966 c 3.28804,0.0732 6.66331,-0.0778 9.84915,0.86787 1.23367,0.33155 2.21944,1.34513 2.41198,2.61607 0.50266,2.71879 0.3437,5.56048 -0.32979,8.23719 -0.19341,0.55262 -0.25653,1.37472 -0.99376,1.42926 -2.16748,0.61423 -4.60403,0.74052 -6.7349,0.86346 -3.78354,0.12813 -7.5704,0.0396 -11.35538,0.0659 0,-4.69325 0,-9.38649 0,-14.07974 2.38424,0 4.76846,0 7.1527,0 z" />
      <path
         id="path23262"
         style="fill:#ffffff;fill-opacity:1;stroke-width:2.42576"
         d="m 277.85286,415.14713 c 1.12636,2.27689 2.36728,4.51484 3.05577,6.97388 2.36478,7.53369 4.35224,15.32901 6.30246,23.04344 2.15572,8.73343 4.29807,17.47814 5.9598,26.32035 0.16384,1.20044 0.50462,2.41449 0.42189,3.62556 -0.4134,1.4184 0.047,3.14224 1.43353,3.84693 1.90084,0.91847 4.09729,0.67528 6.1484,0.71503 1.73126,-0.0531 3.80625,0.005 5.04104,-1.4196 0.86945,-1.02698 0.75155,-2.47703 0.42197,-3.68983 0.16146,-3.16813 0.93971,-6.26815 1.56455,-9.36929 1.92245,-8.74056 4.12773,-17.42591 6.75188,-25.98536 0.15064,-0.78578 0.33977,-0.76461 0.48208,0.0942 2.16247,7.65066 4.08999,15.28242 5.89825,23.02346 0.82236,3.81754 1.79032,7.63865 2.00896,11.54966 0.0348,0.52936 0.021,1.07048 -0.36629,1.47062 -0.82621,1.14532 -0.47313,2.91337 0.8023,3.57938 1.75279,0.86978 3.79742,0.67723 5.70065,0.75451 2.0822,-0.0517 4.24292,0.13702 6.24904,-0.51993 1.3915,-0.42704 2.17577,-2.13233 1.48352,-3.4338 -0.25441,-0.50559 -0.67613,-0.93422 -0.54496,-1.54936 0.021,-1.21735 0.25666,-2.65825 0.4125,-3.70301 1.47117,-8.2062 3.63092,-16.26893 5.65316,-24.35256 2.33461,-8.99345 4.63322,-18.00114 7.3228,-26.89747 0.44209,-1.57828 1.66989,-3.17415 0.99835,-4.86417 -0.61213,-1.55275 -2.45717,-1.89312 -3.94401,-1.93526 -2.63039,-0.0622 -5.2843,-0.17128 -7.89962,0.16988 -1.33623,0.14096 -2.76423,1.03073 -2.82891,2.48875 -0.0704,0.83376 0.4225,1.54823 0.82193,2.21417 0.16095,2.52969 -0.46845,5.02962 -0.9247,7.50264 -1.67081,7.79075 -3.71727,15.49715 -5.81997,23.18196 -0.17932,0.65658 -0.36627,1.31095 -0.55632,1.96453 -2.1538,-8.37219 -4.4468,-16.72047 -6.0796,-25.21336 -0.43295,-2.47636 -0.90893,-5.02128 -0.42593,-7.52684 0.24572,-1.48542 -0.0758,-3.2836 -1.51193,-4.07155 -1.78371,-0.95243 -3.89916,-0.69088 -5.85081,-0.76652 -2.16397,0.0599 -4.40264,-0.17721 -6.498,0.47472 -1.49974,0.46466 -2.3595,2.08197 -2.13934,3.59007 0.12146,1.0417 0.35426,2.07866 0.12296,3.12753 -0.77495,5.54816 -2.09695,11.00396 -3.38402,16.45209 -1.16657,4.79292 -2.40304,9.57178 -3.8489,14.28967 -2.32612,-8.23609 -4.29458,-16.56912 -6.13479,-24.92455 -0.49767,-2.61573 -1.19494,-5.24354 -1.12009,-7.92252 -0.0182,-0.53305 0.6917,-0.61562 0.88128,-1.06679 0.89943,-1.14012 0.27738,-2.93379 -1.08,-3.38034 -1.99438,-0.71284 -4.17033,-0.54713 -6.2565,-0.62318 -3.37109,-0.01 -6.7422,-0.0193 -10.1133,-0.0296 0.46297,0.93061 0.92594,1.86123 1.38892,2.79184 z" />
      <path
         id="path23301"
         style="fill:#ffffff;fill-opacity:1;stroke-width:2.42576"
         d="m 389.07539,414.32634 c 0.16527,10.42884 0.48989,20.85613 0.49918,31.28677 -0.0108,1.99221 -0.0428,3.96855 -0.11885,5.90902 -0.01,0.444 -0.54727,-0.66352 -0.77652,-0.9058 -4.91428,-7.37581 -9.44084,-15.00055 -13.8146,-22.7035 -0.60384,-1.10536 -1.34559,-2.41105 -1.93704,-3.50911 -1.31492,-2.49069 -2.72501,-4.95088 -3.72456,-7.58863 0.40068,-1.44794 -0.20558,-3.15774 -1.63765,-3.78472 -2.08473,-0.87129 -4.41452,-0.59433 -6.62088,-0.66567 -2.17961,0 -4.35923,0 -6.53885,0 0,22.44022 0,44.88044 0,67.32066 3.46003,-0.048 6.92757,0.10824 10.3825,-0.10641 1.35523,-0.0723 2.96324,-0.62573 3.29845,-2.09996 0.24182,-1.03996 -0.36859,-1.99721 -1.02749,-2.73161 -0.7558,-2.71129 -0.76502,-5.56039 -0.93879,-8.35197 -0.26196,-6.40025 -0.21188,-12.95038 -0.19008,-19.41514 0.0282,-2.87627 0.045,-5.75488 0.22248,-8.62671 4.47515,6.05863 8.38801,12.50411 12.28258,18.94052 3.08752,5.26627 6.2222,10.52381 8.81477,16.05411 0.29238,0.765 0.85357,1.53599 0.53861,2.37625 -0.25682,1.48618 0.65742,3.0463 2.125,3.48086 2.25456,0.68372 4.65609,0.41017 6.9805,0.48006 1.92126,0 3.84253,0 5.76379,0 0,-22.44022 0,-44.88044 0,-67.32066 -4.54014,2.2e-4 -9.08027,-0.004 -13.62041,-0.004 0.0126,0.65513 0.0252,1.31026 0.0379,1.9654 z" />
      <path
         id="path23527"
         style="fill:#ff0000;fill-opacity:1;stroke-width:2.42576"
         d="m 163.03126,414.29245 c 0,21.79764 0,43.59527 0,65.39291 4.52752,0 9.05504,0 13.58256,0 0,-22.44022 0,-44.88044 0,-67.32066 -4.52752,0 -9.05504,0 -13.58256,0 0,0.64258 0,1.28517 0,1.92775 z" />
      <path
         id="path23566"
         style="fill:#ff0000;fill-opacity:1;stroke-width:2.42576"
         d="m 190.62402,412.36094 c -2.26376,0.002 -4.52752,0.003 -6.79128,0.006 0,22.43896 0,44.87792 0,67.31689 4.55464,0.005 9.10929,0.008 13.66392,0.008 -0.217,-5.82633 -0.53578,-11.67619 -0.6645,-17.46174 -0.007,-2.85788 -0.0561,-5.97253 1.7013,-8.40122 0.80499,-1.15824 1.62549,-2.32681 2.64173,-3.31309 1.95695,2.47949 3.3624,5.33411 4.85106,8.10352 2.48979,4.88105 4.88546,9.83386 6.7056,15.00591 0.24891,0.77995 0.59181,1.58313 0.28309,2.39072 -0.22573,1.4676 0.91075,2.82198 2.31048,3.15632 2.50809,0.63346 5.1319,0.45186 7.69682,0.48108 2.05526,-0.0786 4.18083,-0.0439 6.14687,-0.71452 1.18243,-0.38901 1.91077,-1.85933 1.26654,-2.96925 -0.33974,-0.62765 -0.99458,-1.01843 -1.32921,-1.66999 -3.64692,-5.47158 -6.85757,-11.21655 -10.08759,-16.93761 -3.15484,-5.66448 -6.3003,-11.33424 -9.45154,-17.00076 7.54379,-9.33237 15.08863,-18.66391 22.63317,-27.99568 -5.0972,0.0343 -10.19719,-0.0752 -15.29256,0.069 -1.71322,0.10492 -3.83027,0.22302 -4.83617,1.83238 -0.55014,0.87201 -0.49176,1.96341 -0.24699,2.9218 -0.58364,2.13712 -1.97093,3.94329 -3.19499,5.75794 -2.82588,3.91269 -6.00915,7.58997 -9.02205,11.31652 -0.92597,1.10613 -1.84423,2.22116 -2.83768,3.26858 -0.0285,-3.88707 0.20454,-7.7276 0.29472,-11.64326 0.13612,-4.50954 0.27573,-9.01896 0.40919,-13.52858 -2.28331,-3.5e-4 -4.56662,9.7e-4 -6.84993,0.002 z" />
      <path
         id="path1021"
         style="fill:#ffffff;fill-opacity:1;stroke-width:2.42576"
         d="m 249.83245,159.34978 c -5.18468,0.16367 -10.29453,1.76655 -14.65013,4.56659 -9.71478,6.03935 -16.6558,16.57642 -17.71296,27.99058 -0.71189,6.89864 1.24813,13.83735 4.51772,19.8811 4.08596,7.48633 10.45258,13.8125 18.18473,17.53094 5.26266,2.27722 11.21094,2.19121 16.78289,1.32857 3.45965,-0.56447 6.94774,-1.3455 10.02274,-3.08833 5.92027,-3.26677 10.80322,-8.26966 14.24342,-14.04411 1.97269,-3.21218 3.15846,-6.8431 3.73057,-10.55194 0.94437,-6.01552 0.94759,-12.22035 -0.30163,-18.19308 -1.14992,-5.24241 -4.03404,-9.98928 -7.65005,-13.91642 -6.88288,-7.38601 -17.00203,-11.86019 -27.1673,-11.5039 z" />
    </g>
  </g>
</svg>
