<?xml version="1.0" encoding="UTF-8" standalone="no"?>
<!-- Created with Inkscape (http://www.inkscape.org/) -->

<svg
   version="1.1"
   id="svg870"
   width="512"
   height="512"
   viewBox="0 0 512 512"
   sodipodi:docname="homepwn.svg"
   inkscape:version="1.2.2 (b0a8486541, 2022-12-01)"
   inkscape:export-filename="../GIT Icons/homepwn.png"
   inkscape:export-xdpi="96"
   inkscape:export-ydpi="96"
   xmlns:inkscape="http://www.inkscape.org/namespaces/inkscape"
   xmlns:sodipodi="http://sodipodi.sourceforge.net/DTD/sodipodi-0.dtd"
   xmlns="http://www.w3.org/2000/svg"
   xmlns:svg="http://www.w3.org/2000/svg">
  <defs
     id="defs874" />
  <sodipodi:namedview
     id="namedview872"
     pagecolor="#000000"
     bordercolor="#eeeeee"
     borderopacity="1"
     inkscape:pageshadow="0"
     inkscape:pageopacity="0"
     inkscape:pagecheckerboard="0"
     showgrid="false"
     inkscape:zoom="0.61733737"
     inkscape:cx="117.43984"
     inkscape:cy="246.21869"
     inkscape:window-width="1366"
     inkscape:window-height="705"
     inkscape:window-x="0"
     inkscape:window-y="26"
     inkscape:window-maximized="1"
     inkscape:current-layer="g876"
     inkscape:showpageshadow="0"
     inkscape:deskcolor="#505050" />
  <g
     inkscape:groupmode="layer"
     inkscape:label="Image"
     id="g876">
    <g
       id="g982"
       transform="matrix(1.0108248,0,0,0.99114215,-2.7542609,2.2752873)">
      <path
         id="path1206-3"
         style="fill:#ffffff;stroke:none;stroke-width:33.3202;stroke-dasharray:none;stroke-opacity:1;paint-order:stroke fill markers"
         d="m 265.35742,13.855469 c -17.0117,-0.0081 -34.02367,-0.02554 -51.0351,0.06592 -7.32045,0.09764 -14.65074,0.24824 -21.94424,0.915942 -5.88582,0.636189 -11.88645,2.41036 -16.40613,6.392273 -4.42399,3.801999 -7.67382,8.950241 -9.27859,14.551645 -1.36591,5.259584 -1.21125,10.747754 -1.42037,16.106888 -0.20471,11.298882 -0.35795,22.601282 -0.22481,33.901715 0.10557,4.659751 0.24219,9.355305 1.14567,13.94008 1.27483,5.898998 4.54196,11.518538 9.6267,14.905808 3.94069,2.73179 8.77564,3.98395 13.5422,3.9225 4.02008,0.19741 8.04291,0.3249 12.06694,0.40465 -0.0129,6.5182 -0.095,13.04402 0.3164,19.55273 -4.62129,-0.66236 -9.30532,-0.64734 -13.96273,-0.79832 -10.27068,-0.21904 -20.54425,-0.1675 -30.81656,-0.1841 -0.0156,-8.11631 0.10567,-16.25166 -0.57386,-24.34603 -1.19389,-9.44384 -6.27788,-18.550423 -14.3197,-23.813646 -5.7272,-3.90196 -12.7169,-5.657663 -19.6002,-5.643053 -11.81323,-0.464901 -23.638452,-0.21794 -35.457415,-0.302213 -12.073838,0.0338 -24.156087,-0.12655 -36.221369,0.405156 -5.369447,0.322284 -10.775354,1.562936 -15.423531,4.354524 -6.094615,3.493916 -10.967406,9.047861 -13.651692,15.539182 -1.624085,3.28055 -3.326516,6.75073 -3.153443,10.51272 0.0669,33.43882 -0.108333,66.87882 0.222854,100.31667 0.138684,8.16406 -0.01356,16.36416 1.018197,24.4806 1.785549,8.38395 8.42127,15.59861 16.697814,17.90641 4.147002,1.06681 8.464806,0.94492 12.708239,1.19008 10.691509,0.33168 21.390596,0.39737 32.086911,0.4614 15.707451,0.047 31.418935,-0.0366 47.119175,-0.5365 2.03146,-0.0753 4.06236,-0.19062 6.08513,-0.39639 -2.69099,6.22193 -4.35236,12.86492 -5.13086,19.5918 -4.74467,0.57784 -9.54561,2.14119 -13.10743,5.44921 -3.43812,3.06801 -6.08873,6.87383 -8.92485,10.47433 -2.00384,2.65452 -3.93204,5.36483 -5.87397,8.06474 -4.989848,-1.52099 -10.585615,-1.50102 -15.335941,0.81054 -3.819641,1.76648 -7.333743,4.1038 -11.013409,6.13182 -13.156031,7.67464 -26.231207,15.49433 -39.078777,23.67524 -5.064746,3.35694 -10.218093,6.96429 -13.634376,12.09919 -3.018766,4.62596 -4.374114,10.36514 -3.422365,15.83384 0.781058,5.28535 3.264958,10.28417 6.916506,14.17398 0.05988,16.58416 -0.197872,33.17582 0.391892,49.75297 0.305354,5.95836 1.252418,12.1528 4.618268,17.22125 3.859521,5.81771 10.524819,9.70539 17.511324,10.06875 0.857249,0.0688 2.002383,0.17851 2.972777,0.2281 6.441731,0.33417 12.895453,0.37933 19.344342,0.48786 14.999075,0.16834 29.999679,0.0981 44.999189,0.0395 9.00133,-0.0685 18.01412,-0.15982 26.9927,-0.83639 5.66984,-0.66907 11.17593,-3.34303 14.84442,-7.77776 3.66222,-4.2597 5.52539,-9.81369 5.9598,-15.35989 0.80357,-7.04602 0.56448,-14.1513 0.70817,-21.22824 0.0767,-10.81408 0.0214,-21.64203 0.0595,-32.44768 5.20671,-5.51043 7.74064,-13.41179 6.75586,-20.92382 5.0409,2.13983 10.34508,3.63821 15.74024,4.56054 0.0371,31.8149 -0.13337,63.63262 0.38514,95.44456 0.16747,5.17604 0.22079,10.39848 1.2157,15.49723 1.97121,8.21964 7.15551,15.35845 13.4633,20.84185 5.15454,4.43315 11.67063,7.52551 18.53627,7.773 7.80659,0.55314 15.63722,0.64014 23.46008,0.7638 12.40399,0.12003 24.81224,0.0897 37.21268,-0.2331 4.55169,-0.15857 9.11689,-0.31506 13.63739,-0.884 7.9447,-1.41226 14.95955,-6.1688 20.24407,-12.13249 5.21175,-5.90484 8.95586,-13.37126 9.41186,-21.32121 0.36158,-4.94056 0.40171,-9.89833 0.53008,-14.84907 0.30008,-16.31599 0.23196,-32.63573 0.28527,-48.95369 0.0171,-13.97317 0.0182,-27.94635 0.0146,-41.91953 7.7589,-1.26691 15.36467,-3.82371 22.17969,-7.71875 -4.11826,6.31143 -7.99803,12.77486 -12.02964,19.14104 -0.7414,1.25848 -1.6271,2.47685 -2.28023,3.75974 0.17923,16.08108 -0.40481,32.18745 0.703,48.24526 0.57014,5.86244 3.04238,11.66914 7.48373,15.63833 4.14774,3.88827 9.62451,6.21467 15.23837,6.90899 4.96797,6.19701 11.70351,10.90944 19.1048,13.73892 7.13176,2.50415 14.97119,2.12445 22.20837,0.28059 5.70938,-1.48379 11.10606,-4.28125 15.4466,-8.29686 4.64607,4.2012 10.30415,7.37973 16.47488,8.63353 7.72967,1.68428 15.97477,1.24349 23.39519,-1.55181 5.29483,-2.02695 9.97733,-5.42605 13.86816,-9.51925 1.00875,-1.03982 1.95975,-2.13507 2.86528,-3.26559 6.84269,-0.87365 13.60821,-4.05364 17.875,-9.60156 3.44389,-4.40443 5.11223,-10.00733 5.20179,-15.55758 0.66966,-10.43731 0.62254,-20.91873 7.4e-4,-31.35693 -0.25643,-4.225 -0.93205,-8.54081 -3.03892,-12.27693 -2.46941,-4.67705 -6.65684,-8.32687 -11.48807,-10.42148 -4.93537,-2.22173 -10.25554,-3.35979 -15.44418,-4.81759 -2.76159,-0.73075 -5.52543,-1.45183 -8.28019,-2.20817 -4.76688,-7.18191 -8.96829,-14.89828 -15.2449,-20.92234 -0.73925,-0.65861 -1.53371,-1.25723 -2.37424,-1.78078 8.66285,-9.15747 17.32498,-18.31562 25.98829,-27.47266 -5.2276,-4.34436 -10.1373,-9.04796 -15.12388,-13.66001 -6.79155,-6.46871 -15.32903,-10.77897 -24.10343,-13.88414 -8.60891,-3.0471 -17.99452,-3.51979 -26.96166,-1.99408 -4.76055,0.79654 -9.4436,2.08912 -13.90674,3.93276 -0.55202,-10.37742 -3.18889,-20.70448 -8.20043,-29.8406 -4.49875,-8.26753 -10.74962,-15.53942 -18.07886,-21.42697 3.9947,2.30387 8.50275,3.58191 13.04687,4.22851 0.26887,4.94837 2.60459,9.55079 5.73423,13.307 2.60023,3.1725 5.57053,6.01598 8.34871,9.02721 0.89248,0.93895 2.10657,1.73242 3.4569,1.52712 20.60847,0 41.21693,0 61.82539,0 3.84925,-5.29762 9.27888,-9.35032 12.41318,-15.18045 1.49148,-2.56611 2.43428,-5.64809 2.58878,-8.68479 6.73449,-0.92259 13.4637,-3.44746 18.40351,-8.24791 6.83571,-6.46461 10.45838,-15.88057 10.61751,-25.20861 0.38246,-9.82922 0.24779,-19.66913 0.29667,-29.50363 -0.0466,-10.40726 0.0991,-20.82096 -0.32485,-31.22191 -0.16637,-7.4624 -2.43941,-14.981 -7.04939,-20.91516 -5.43911,-7.135 -14.00161,-11.7812 -22.95752,-12.40587 -5.01988,-0.41055 -10.0627,-0.42076 -15.09608,-0.51432 -13.79524,-0.10572 -27.59117,-0.0512 -41.38673,-0.071 -11.2236,0.0135 -22.4518,0.002 -33.66931,0.40013 -5.72976,0.33331 -11.51226,1.68722 -16.4172,4.76383 -7.40166,4.40485 -12.89644,11.93123 -14.68171,20.37365 -0.43426,1.77885 -0.73503,3.58863 -0.9517,5.40625 -6.29255,0.0653 -12.64699,0.15549 -18.82656,1.46233 -6.40257,1.68106 -11.84816,6.38444 -14.68172,12.33847 -2.73182,5.17028 -4.74034,10.67636 -7.06733,16.03191 -0.96741,2.34348 -1.93314,4.68646 -2.88923,7.03448 -0.53013,-0.24339 -1.07274,-0.4593 -1.60742,-0.69141 -0.23448,-4.94458 -0.77162,-10.0558 -3.0879,-14.51171 -2.70113,-4.88391 -7.39259,-8.12876 -11.67242,-11.51188 -9.41877,-7.28424 -19.26112,-13.99234 -28.98383,-20.85726 0,-2.49284 0,-4.98568 0,-7.47852 22.8117,0.003 45.62887,7e-4 68.43223,-0.67472 4.48245,-0.16512 9.15774,-0.44116 13.18301,-2.63192 6.4387,-3.32246 11.06421,-9.83974 12.21875,-16.976565 0.6921,-3.437901 0.93281,-7.116474 1.00329,-10.68147 0.25536,-13.284065 0.0237,-26.57218 -0.25324,-39.854002 -0.20587,-5.678639 -0.33803,-11.577501 -2.78849,-16.824063 -2.30193,-5.082206 -5.9809,-9.608239 -10.68617,-12.642418 -3.48046,-2.216262 -7.50626,-3.400859 -11.56603,-3.973423 -6.50617,-1.026937 -13.11452,-0.905107 -19.67915,-1.109956 -12.1854,-0.199493 -24.37294,-0.16658 -36.55951,-0.156855 z m 38.73047,43.160156 c 0.17997,0.149195 0.53891,0.923343 0.0312,0.755859 -0.44785,-0.163839 -0.77842,-0.73649 -0.0312,-0.755859 z M 207.7793,57.125 c -0.0311,0.663258 -0.58503,0.346122 -0.0684,-0.01172 l 0.0156,-0.0078 z M 87.658203,154.28125 c 0.651262,0.60118 0.717082,1.83364 -0.0059,2.39063 -0.572837,-0.35158 -0.625894,-1.28961 -0.339386,-1.84766 0.104088,-0.17971 0.130727,-0.48015 0.345245,-0.54297 z m 329.246097,3.78906 c 8.62825,0 17.25651,0 25.88476,0 0,0.88477 0,1.76953 0,2.6543 -17.25586,0 -34.51172,0 -51.76758,0 0,-0.88477 0,-1.76953 0,-2.6543 8.62761,0 17.25521,0 25.88282,0 z M 188.42578,189.0293 c 2.95899,2.59375 5.91797,5.1875 8.87695,7.78125 -5.30309,2.32742 -10.14416,5.66746 -14.22616,9.77446 -4.1298,4.02468 -7.89439,8.48588 -10.76798,13.50093 -5.63243,2.31276 -10.8953,5.48254 -15.68554,9.23242 0.34115,-8.46244 0.31148,-16.93512 0.34621,-25.40312 0.007,-4.96784 4.3e-4,-9.93568 0.001,-14.90352 10.48503,0.006 20.97006,0.0117 31.45508,0.0176 z m 152.31445,13.90039 c 0.20555,3.75233 0.97113,7.47039 2.33425,10.97505 1.86532,4.87807 4.7871,9.38376 8.65013,12.91557 -4.80683,-3.27502 -10.00244,-5.99457 -15.47852,-7.96484 -0.34578,-1.14747 -0.71114,-2.28827 -1.07031,-3.43164 1.83203,-4.51563 3.66406,-9.03125 5.4961,-13.54688 0.0228,0.35091 0.0456,0.70183 0.0684,1.05274 z m -121.47656,40.3125 c 1.18084,0.19672 2.4285,0.5811 3.4538,0.89328 2.3899,0.77771 4.82537,1.48906 7.34894,1.63211 -4.53451,0 -9.06901,0 -13.60352,0 0.81549,-0.90767 1.58974,-1.89127 2.63477,-2.54883 l 0.099,0.014 z m 83.13086,9.375 c 0.33034,0.21058 0.70057,0.7102 0.59766,1.11523 -0.2284,0.15785 -0.66571,0.12775 -0.87891,-0.0137 0.10858,-0.34746 0.11393,-0.80734 0.28125,-1.10156 z m -31.40234,1.77734 c 1.21436,0.54954 1.3434,2.62147 0.0728,3.16162 -1.09028,0.45223 -1.97252,-0.95003 -1.67605,-1.91618 0.16476,-0.64852 0.85933,-1.49602 1.60324,-1.24544 z m -79.31641,42.83985 c -1.26731,2.42441 -2.28373,4.97887 -3.04687,7.60546 -2.98344,-1.81574 -5.35459,-4.51897 -6.95313,-7.60937 3.33333,10e-4 6.66667,0.003 10,0.004 z m 138.53516,-0.004 c -1.575,3.08738 -3.83779,5.89301 -6.84375,7.68164 -0.70069,-2.6466 -1.64338,-5.23287 -2.8711,-7.68164 3.23829,0 6.47657,0 9.71485,0 z m 40.08789,31.7832 c 0.82939,0.81836 1.6814,1.61349 2.55469,2.38477 -1.61396,0.11922 -3.22778,0.26633 -4.82813,0.51172 0.76435,-0.96438 1.50615,-1.94674 2.22266,-2.94727 z m -248.72266,44.95508 c 0.49669,0.074 0.14234,1.20266 -0.35628,0.75103 -0.31981,-0.13981 -0.56622,-0.67187 -0.0262,-0.7106 0.11978,-0.0453 0.25572,-0.0612 0.38244,-0.0404 z m 252.27149,18.88477 c 0.68056,0.20404 1.27724,0.8689 1.16944,1.58076 -0.39632,0.63063 -0.79265,1.26126 -1.18898,1.89189 -0.55803,-0.0151 -1.34519,0.28099 -1.70528,-0.24647 -0.10502,-0.79101 -0.4375,-1.63911 -0.4029,-2.39508 0.45576,-0.68643 1.32859,-0.99296 2.12772,-0.8311 z m 39.44726,4.3789 c 0.3729,7.9e-4 0.87529,0.2782 0.54883,0.70117 -0.19638,0.45279 -0.75065,0.66966 -1.0967,0.23294 -0.69653,-0.38175 0.004,-1.0396 0.54787,-0.93411 z m 25.69141,19.45899 c 0.7925,0.0843 0.43602,1.0144 0.56225,1.55201 -0.0654,0.5858 0.38887,1.48498 -0.3889,1.71309 -1.0475,0.28955 -1.82664,-1.11828 -1.45513,-1.98769 0.11933,-0.62249 0.58214,-1.29535 1.28178,-1.27741 z m -50.98438,0.0957 c 1.17168,0.61578 1.25696,2.62726 -0.0358,3.14786 -1.19907,0.26463 -1.94103,-1.25691 -1.47396,-2.23966 0.25607,-0.56233 0.88529,-1.05627 1.50976,-0.9082 z" />
      <g
         id="g944"
         transform="translate(-3.8169406,-0.00500209)">
        <path
           id="path1206"
           style="fill:#000000;stroke:none;stroke-width:33.3202;stroke-dasharray:none;stroke-opacity:1;paint-order:stroke fill markers"
           d="m 259.81275,31.845342 c -69.17428,0 -66.38199,-0.241129 -70.78982,6.105341 -1.78988,2.577087 -1.90829,4.186058 -2.16424,29.408088 -0.28547,28.131976 0.0446,31.011624 3.76492,32.912809 2.90146,1.48274 135.03688,1.53712 138.11045,0.0569 4.01332,-1.932874 4.32212,-4.454884 4.03276,-32.969716 -0.25594,-25.22203 -0.37437,-26.831001 -2.16424,-29.408088 -4.40784,-6.346471 -1.61553,-6.105341 -70.78983,-6.105341 z m -58.51153,15.459276 h 58.51153 58.51153 v 19.32738 19.327382 h -7.3134 -7.31341 v -8.169646 c 0,-9.139852 -0.98761,-12.376066 -4.25776,-13.951002 -3.10514,-1.495477 -76.14663,-1.495477 -79.25177,0 -3.27015,1.574936 -4.25776,4.81115 -4.25776,13.951002 v 8.169646 h -7.31555 -7.31341 V 66.631998 Z m 29.25577,30.922932 h 29.25576 29.25577 v 3.865914 3.865916 H 259.81275 230.55699 V 82.093464 Z M 91.591572,101.42084 c -38.548668,0 -38.964224,0.0204 -43.004031,2.17376 -2.98003,1.58843 -4.634265,3.33627 -6.137004,6.48624 l -2.057096,4.31249 v 59.66553 c 0,41.66912 0.306786,60.37421 1.015691,62.01881 0.558286,1.29516 2.016768,2.83798 3.242069,3.42809 3.119055,1.50217 90.761659,1.50217 93.880729,0 4.02583,-1.93888 4.25776,-3.9637 4.25776,-37.14429 v -31.36075 l 28.11365,0.0154 28.11151,0.0175 18.46243,16.17074 c 10.15382,8.89336 18.48523,16.51237 18.51387,16.93252 0.0286,0.42015 -0.86566,2.07537 -1.98638,3.67766 -1.98568,2.83894 -2.18085,2.8972 -7.62411,2.28102 -6.26534,-0.70921 -14.27632,1.02932 -20.70167,4.49417 -4.94733,2.66785 -12.60109,10.95513 -14.73182,15.94964 -1.43988,3.37514 -2.33529,4.13068 -6.8077,5.73757 -6.88017,2.47201 -14.28053,7.69354 -19.92383,14.05827 -9.1664,10.33822 -13.36362,21.31231 -13.54255,35.4193 l -0.11358,8.93801 -7.95624,0.002 c -4.37616,10e-4 -8.90117,0.4702 -10.05621,1.04199 -1.15504,0.57179 -6.36093,7.09525 -11.56902,14.49609 -5.20806,7.4008 -9.7631,13.45627 -10.12262,13.45627 -0.35954,0 -3.01187,-1.34975 -5.89272,-2.99904 -3.16519,-1.81209 -5.981918,-2.79439 -7.118423,-2.48023 -1.034373,0.28592 -13.952748,7.80053 -28.707201,16.69829 -29.105502,17.55229 -30.193346,18.50511 -27.862941,24.45202 0.609503,1.55537 2.29775,3.33989 3.7692,3.98413 l 2.663512,1.16677 v 31.24472 c 0,33.05738 0.233449,35.08793 4.25776,37.02609 1.535707,0.73961 16.119015,1.07265 46.940364,1.07265 30.821339,0 45.404669,-0.33304 46.940369,-1.07265 4.02429,-1.93816 4.25776,-3.96871 4.25776,-37.02609 v -31.24472 l 2.66351,-1.16677 c 3.53885,-1.54942 5.25072,-5.83594 3.80349,-9.52907 -0.83141,-2.12165 -4.61014,-4.86385 -16.95391,-12.30262 -9.94446,-5.99286 -15.65177,-9.97548 -15.26751,-10.65425 0.33757,-0.59627 3.69855,-5.48241 7.46983,-10.85783 l 6.85699,-9.77424 8.24767,-0.0328 8.24981,-0.035 1.80854,3.5879 c 2.76546,5.48668 11.92368,15.34601 17.67817,19.03186 7.49377,4.7999 15.44622,7.31088 25.32371,7.99671 l 8.63123,0.5998 v 59.34156 c 0,42.24159 0.30906,60.64191 1.07354,63.85106 1.37655,5.77841 7.95771,13.0176 13.15042,14.46762 5.24984,1.46596 67.87528,1.52562 73.34405,0.07 5.85702,-1.55892 12.2799,-8.34887 13.75469,-14.53986 0.76448,-3.20913 1.07355,-21.60728 1.07355,-63.84887 v -59.34156 l 8.71052,-0.60637 c 14.93473,-1.03696 25.73748,-6.18909 35.34134,-16.85591 9.88739,-10.98175 13.83334,-21.50735 13.85111,-36.94728 0.0132,-11.47696 -2.27199,-20.18283 -7.60268,-28.96371 -6.73212,-11.08927 -19.90914,-20.88735 -31.56358,-23.4713 -3.86186,-0.85622 -5.02273,-1.5217 -5.02273,-2.87426 0,-0.9675 -1.09392,-5.18115 -2.42994,-9.36488 l -2.42781,-7.60705 8.76409,-21.59965 8.76409,-21.60182 12.40685,-0.26927 12.40686,-0.26706 v 16.73332 c 0,15.43201 0.16013,17.06942 2.0571,21.0458 3.2813,6.87804 7.6023,8.66 20.9931,8.66 5.9275,0 10.77619,0.14256 10.77619,0.31523 0,0.17266 -1.02716,3.50984 -2.28425,7.4166 -1.25705,3.90674 -2.28637,7.71355 -2.28637,8.45861 0,0.74501 1.20225,2.6253 2.67209,4.17894 l 2.67207,2.82391 h 23.91161 23.9116 l 2.67208,-2.82391 c 1.46984,-1.55364 2.67208,-3.43393 2.67208,-4.17894 0,-0.74506 -1.02714,-4.55187 -2.28423,-8.45861 -1.25709,-3.90676 -2.28637,-7.24394 -2.28637,-7.4166 0,-0.17267 4.85083,-0.31523 10.77833,-0.31523 13.39076,0 17.70964,-1.78196 20.99095,-8.66 2.01493,-4.22356 2.05709,-4.99507 2.05709,-37.72439 0,-32.72933 -0.0421,-33.50302 -2.05709,-37.7266 -1.50274,-3.14995 -3.15483,-4.89782 -6.13487,-6.48624 -4.06997,-2.16987 -4.18607,-2.17375 -50.31957,-2.17375 -46.13354,0 -46.24749,0.004 -50.31743,2.17375 -6.12499,3.26476 -8.19411,8.25671 -8.19411,19.77395 v 8.97523 h -15.04251 c -9.30156,0 -15.91397,0.42069 -17.32675,1.1011 -2.34974,1.13166 -2.8079,2.11015 -14.63324,31.17249 -2.78899,6.85432 -5.24532,12.64727 -5.45773,12.87179 -0.21243,0.22453 -2.38129,-1.21025 -4.81918,-3.1873 -5.12643,-4.1574 -12.38403,-7.76506 -18.73457,-9.31454 l -4.43991,-1.08358 v -8.48707 c 0,-4.66727 -0.43723,-9.4837 -0.97282,-10.70459 -0.55814,-1.2722 -9.92552,-8.5138 -21.94236,-16.96098 l -20.96954,-14.73907 v -9.66042 -9.66259 h -7.3134 -7.31341 v 12.03555 c 0,6.61885 0.43722,13.03219 0.97284,14.2531 0.55813,1.27219 9.92547,8.51162 21.94236,16.9588 l 20.96738,14.73907 v 6.1732 6.17101 l -3.42635,0.66767 c -1.88564,0.36761 -6.28572,1.9314 -9.77549,3.47407 -5.35318,2.36642 -6.56675,2.60581 -7.76982,1.52579 -13.92948,-12.50447 -40.36353,-35.38768 -41.8512,-36.22926 -1.3686,-0.77422 -11.02841,-1.11424 -31.74142,-1.11424 h -29.77219 v -20.57089 c 0,-19.41244 -0.11602,-20.81669 -2.0571,-24.88545 -1.50274,-3.14997 -3.15695,-4.89781 -6.137,-6.48624 -4.03982,-2.15328 -4.45536,-2.17376 -43.004018,-2.17376 z m -36.569177,15.46147 h 36.569177 36.569168 v 38.65475 38.65696 H 91.591572 55.022395 v -38.65696 z m 38.23842,8.15432 c -11.260315,-0.59902 -22.655032,5.77697 -28.047222,17.9395 -3.17387,7.15892 -3.28908,17.55618 -0.274279,24.64247 3.638015,8.55116 11.540911,15.59948 20.009546,17.84756 4.858161,1.28964 13.377206,0.39109 18.3853,-1.94171 5.66844,-2.64042 12.36371,-9.75192 14.89466,-15.8183 4.56981,-10.95322 1.96988,-25.19847 -6.16914,-33.80156 -5.33396,-5.63806 -12.04268,-8.50854 -18.798865,-8.86796 z M 376.83796,140.0756 h 43.88258 43.88472 v 19.32738 19.32738 h -43.88472 -43.88258 v -19.32738 z m -284.522126,0.23861 c 8.494106,0.72077 13.446126,6.32739 13.446126,15.22285 0,6.0652 -1.49949,9.20379 -6.158432,12.88055 -2.776773,2.19136 -10.149153,3.03815 -13.497551,1.54986 -8.249457,-3.6667 -11.79107,-14.82017 -7.062697,-22.23666 3.568319,-5.59696 7.67507,-7.89158 13.272554,-7.4166 z m 284.522126,53.87981 h 43.88258 43.88472 v 3.86372 3.86591 h -43.88472 -43.88258 v -3.86591 z m -110.85392,8.6972 c 0.86792,-5.8e-4 1.14212,3.81937 1.14212,15.87958 0,15.19974 -0.0802,15.90799 -1.88781,16.51442 -3.03003,1.01654 -8.11338,6.23598 -10.24477,10.51852 -2.57178,5.16739 -2.72134,15.01144 -0.30214,19.90092 4.2771,8.64446 10.86893,12.97467 19.75027,12.97467 8.88135,0 15.47319,-4.33021 19.75027,-12.97467 2.41923,-4.88948 2.26965,-14.73353 -0.30214,-19.90092 -2.13142,-4.28254 -7.2169,-9.50198 -10.24691,-10.51852 -1.8076,-0.60643 -1.88782,-1.31468 -1.88782,-16.51442 0,-12.777 0.24471,-15.87958 1.24927,-15.87958 2.99601,0 14.33786,7.08249 17.9203,11.19058 5.3159,6.09587 9.07847,14.9906 9.8012,23.17141 0.78306,8.86366 2.36064,10.53142 10.7462,11.35912 12.93615,1.27688 23.66535,9.18154 29.55146,21.77039 3.22651,6.90062 3.4135,7.81235 3.4135,16.58228 0,8.76993 -0.18699,9.68382 -3.4135,16.58447 -6.33627,13.55158 -17.10508,20.95974 -31.75428,21.84263 l -8.06124,0.48378 -0.32571,-8.17621 c -0.427,-10.6673 -3.37157,-16.23978 -10.73118,-20.30371 l -4.89203,-2.69913 h -35.03278 c -22.35814,0 -35.96596,0.36894 -37.60844,1.0201 -9.20167,3.64817 -14.00325,11.47976 -14.00325,22.84524 v 7.05758 l -6.17129,-0.0963 c -8.02529,-0.12624 -12.08023,-1.18825 -18.63601,-4.88165 -6.82162,-3.84323 -12.05224,-9.84333 -15.72606,-18.04021 -2.61648,-5.83766 -2.8928,-7.33401 -2.8928,-15.63659 0,-8.30257 0.27632,-9.79668 2.8928,-15.6344 5.12207,-11.42809 14.35853,-19.42802 25.47585,-22.06154 5.56248,-1.31767 7.44425,-3.04111 8.8648,-8.12367 0.69197,-2.47584 2.82149,-5.76395 5.70629,-8.81324 6.7767,-7.16312 13.43181,-8.78901 22.97091,-5.61061 4.49105,1.49679 4.97269,1.49676 7.13984,-0.004 1.27829,-0.88529 3.70527,-3.89113 5.39345,-6.67888 1.68817,-2.78775 4.65512,-6.53635 6.59128,-8.33163 3.44306,-3.19254 13.49221,-8.81318 15.76035,-8.81542 z m -210.961645,6.76426 h 36.569177 36.569168 v 7.73183 7.72964 H 91.591572 55.022395 v -7.72964 z m 365.698145,7.73183 c 9.65178,0 9.87115,0.0474 10.4119,2.32479 0.3038,1.2794 0.80262,3.01927 1.10998,3.86592 0.49386,1.36034 -0.84583,1.53893 -11.52188,1.53893 -10.67605,0 -12.01574,-0.17859 -11.52189,-1.53893 0.30736,-0.84665 0.80834,-2.58652 1.11213,-3.86592 0.54073,-2.27738 0.75798,-2.32479 10.40976,-2.32479 z m -146.27883,30.92293 c 6.39136,0 9.60474,8.29728 5.06988,13.0907 -1.41456,1.49522 -3.28859,2.37076 -5.06988,2.37076 -1.78129,0 -3.65533,-0.87554 -5.06989,-2.37076 -1.41453,-1.49522 -2.24566,-3.47601 -2.24566,-5.35887 0,-3.97289 3.55698,-7.73183 7.31555,-7.73183 z m -80.45389,15.46146 v 7.73183 7.73183 h 7.3134 7.31341 v -7.73183 -7.73183 h -7.31341 z m 29.25576,0 v 7.73183 7.73183 h 7.31341 7.3134 v -7.73183 -7.73183 h -7.3134 z m 87.7673,0 v 7.73183 7.73183 h 7.3134 7.31555 v -7.73183 -7.73183 h -7.31555 z m 101.31413,31.2294 c -10.53932,-0.46528 -22.40404,3.48697 -30.00146,10.2646 l -3.20136,2.85456 4.99704,5.36762 c 2.74843,2.95251 5.27069,5.36763 5.60344,5.36763 0.33272,0 1.14357,-0.68487 1.8021,-1.52361 0.65854,-0.83872 3.27105,-2.63672 5.80702,-3.99506 9.0916,-4.86978 21.30765,-3.76358 29.74217,2.69474 l 3.95134,3.02531 5.04631,-5.33259 5.04418,-5.33478 -2.65494,-2.50213 c -4.4118,-4.15679 -15.00756,-9.23601 -21.71736,-10.41125 -1.43522,-0.25139 -2.91286,-0.40856 -4.41848,-0.47504 z m -152.35369,15.15719 c 38.73594,0 36.41275,-0.60632 36.41275,9.49842 v 5.96304 h -36.57132 -36.56917 v -6.1316 c 0,-9.89067 -2.20663,-9.32986 36.72774,-9.32986 z m 151.31229,8.09522 c -1.48694,-0.15693 -2.89729,-0.16559 -4.11205,0.0112 -3.89149,0.56381 -12.04902,4.73296 -12.04902,6.15788 10e-6,0.35951 2.14504,2.95014 4.76776,5.75728 4.94061,5.28804 5.70836,5.76687 6.65984,4.13955 0.75232,-1.28674 4.68449,-1.23144 7.03914,0.10076 1.65698,0.93734 2.51395,0.40881 6.96198,-4.29279 l 5.07417,-5.36106 -2.22423,-1.98111 c -2.51899,-2.24411 -7.6567,-4.06066 -12.11759,-4.5314 z M 98.810685,335.313 c 0.997192,-0.0231 21.222245,11.60009 22.874485,13.14542 0.2095,0.19597 -10.06784,0.35463 -22.83805,0.35463 H 75.629786 l 10.951894,-6.73361 c 6.023815,-3.70432 11.527343,-6.75019 12.229005,-6.76644 z m 124.432895,5.77041 h 36.56917 36.57132 V 387.47 433.85439 H 259.81275 223.24358 V 387.47 Z m 179.19666,7.71213 c -13.55124,-0.001 -27.10377,0.34315 -28.5315,1.03324 -1.15504,0.5583 -5.90637,7.12292 -10.55762,14.58803 l -8.45552,13.57228 v 20.64084 c 0,13.06789 0.37086,21.50308 1.01355,22.99408 1.36059,3.15643 4.46556,4.50075 10.39477,4.50075 4.17296,0 5.01614,0.30457 5.52415,1.99644 1.42128,4.73335 7.79739,10.42108 14.14468,12.61785 3.53757,1.22434 11.26589,0.25734 15.29108,-1.91325 3.93065,-2.11962 8.8755,-7.5025 9.83764,-10.7068 0.51601,-1.71847 1.34729,-1.99424 5.96343,-1.99424 4.61618,0 5.44525,0.27774 5.9613,1.99644 0.9617,3.20278 5.89964,8.57643 9.9512,10.82937 5.1765,2.87845 14.19453,2.87845 19.37099,0 4.05156,-2.25294 8.9895,-7.62659 9.9512,-10.82937 0.50801,-1.69187 1.35117,-1.99644 5.52417,-1.99644 5.92917,0 9.03417,-1.34432 10.39476,-4.50075 1.37378,-3.18721 1.35766,-34.23241 -0.0193,-37.42669 -1.24041,-2.87761 -2.9644,-3.64908 -15.42179,-6.8956 -5.27975,-1.37594 -11.04121,-2.9117 -12.80114,-3.41277 -2.75424,-0.78416 -4.15429,-2.45254 -10.05619,-11.97427 -3.77128,-6.08424 -7.80191,-11.52068 -8.95695,-12.08152 -1.42169,-0.69026 -14.97171,-1.03654 -28.52292,-1.03762 z m -144.6653,7.94854 c -9.29015,0.49706 -18.48025,3.92271 -25.36871,10.15514 l -3.8142,3.45 4.83633,5.17717 c 2.66052,2.8476 5.05627,5.16974 5.32487,5.15965 0.2686,-0.0101 2.30708,-1.31875 4.52775,-2.90928 10.45989,-7.4916 22.49766,-7.43642 33.33782,0.15323 l 4.38204,3.06909 5.14917,-5.44424 c 5.80795,-6.13911 6.037,-5.05126 -2.4128,-11.40291 -7.28253,-5.47428 -16.67211,-7.9049 -25.96227,-7.40785 z m -195.439139,7.53263 h 36.56917 36.571319 v 27.05701 27.05921 h -7.31555 -7.31341 v -15.89929 c 0,-16.98289 -0.5743,-19.90883 -4.25776,-21.68282 -1.35207,-0.65117 -8.30432,-1.07265 -17.684599,-1.07265 -9.380304,0 -16.33254,0.42148 -17.684597,1.07265 -3.683446,1.77399 -4.257762,4.69993 -4.257762,21.68282 v 15.89929 h -7.313405 -7.313406 v -27.05921 z m 323.705519,0 h 5.42345 v 3.86372 3.86591 h -7.82553 c -8.38826,0 -8.20911,0.19127 -4.76133,-5.07209 1.56799,-2.39367 2.27871,-2.65754 7.16341,-2.65754 z m 20.0524,0 h 9.07909 c 9.74472,0 9.62023,-0.0634 13.22327,6.52127 0.514,0.93933 -1.89254,1.20836 -10.82118,1.20836 h -11.48118 v -3.86591 z m -146.28097,15.98246 c -6.78691,0 -9.42939,0.89611 -14.12967,4.78532 -1.72708,1.42909 -1.61893,1.65915 3.16921,6.78397 2.72605,2.91772 5.25851,5.30413 5.62916,5.30413 0.37065,0 1.70326,-0.49519 2.96136,-1.1011 1.75393,-0.84471 2.95616,-0.80912 5.14917,0.15104 2.81134,1.2309 2.9475,1.15897 8.01196,-4.19427 4.9866,-5.27093 5.09348,-5.49415 3.35135,-6.935 -4.7156,-3.90015 -7.35146,-4.79409 -14.14254,-4.79409 z M 369.52241,387.47 h 36.13847 36.13632 l 11.40403,3.01874 11.40403,3.01873 v 8.57682 c 0,4.71774 -0.19434,8.57681 -0.43285,8.57681 -0.23849,0 -1.02308,-1.19589 -1.74211,-2.65754 -2.30694,-4.68965 -7.93695,-9.7695 -12.67042,-11.43137 -10.19738,-3.58015 -21.88453,1.39409 -26.85582,11.43137 -1.16574,2.35369 -1.83217,2.65754 -5.83916,2.65754 -4.00913,0 -4.67425,-0.30259 -5.83272,-2.65754 -3.66414,-7.44848 -12.27596,-12.88519 -20.15954,-12.72949 -6.35909,0.12557 -13.27533,3.80856 -16.79319,8.94238 -1.15473,1.68517 -2.68358,3.93246 -3.3985,4.99548 -1.15293,1.71431 -1.30276,0.59453 -1.32854,-9.90558 z m -277.930838,7.72964 h 7.313399 7.313409 v 11.59774 11.59555 H 98.904971 91.591572 V 406.79738 Z M 259.2942,402.382 c -0.76286,0.0595 -1.53807,0.24966 -2.30781,0.58668 -4.01743,1.75897 -6.06605,6.56568 -4.4999,10.56231 0.64819,1.65411 2.25439,3.62365 3.56778,4.37815 1.31338,0.75452 2.92284,1.39067 3.57635,1.41196 2.50882,0.0817 6.37536,-2.89766 7.50626,-5.78355 2.218,-5.6601 -2.50269,-11.57231 -7.84268,-11.15555 z m 132.17057,8.2791 c 1.7813,0 3.65536,0.87775 5.06988,2.37296 1.41456,1.49522 2.24353,3.476 2.24353,5.35887 0,1.88286 -0.82897,3.86366 -2.24353,5.35887 -1.41452,1.49522 -3.28858,2.37296 -5.06988,2.37296 -1.78129,0 -3.65532,-0.87774 -5.06988,-2.37296 -1.41456,-1.49521 -2.24353,-3.47601 -2.24353,-5.35887 0,-1.88287 0.82897,-3.86365 2.24353,-5.35887 1.41456,-1.49521 3.28859,-2.37296 5.06988,-2.37296 z m 51.19813,0 c 1.78126,0 3.65533,0.87775 5.06988,2.37296 1.41456,1.49522 2.24352,3.476 2.24352,5.35887 0,1.88286 -0.82896,3.86366 -2.24352,5.35887 -1.41455,1.49522 -3.28862,2.37296 -5.06988,2.37296 -1.7813,0 -3.65533,-0.87774 -5.06989,-2.37296 -1.41456,-1.49521 -2.24352,-3.47601 -2.24352,-5.35887 0,-1.88287 0.82896,-3.86365 2.24352,-5.35887 1.41456,-1.49521 3.28859,-2.37296 5.06989,-2.37296 z m -219.41932,38.65695 h 36.56917 36.57132 v 6.13161 c 0,4.713 -0.38844,6.50036 -1.67353,7.72963 -1.49149,1.42675 -5.27435,1.60023 -35.05636,1.60023 -38.73592,0 -36.4106,0.60633 -36.4106,-9.49842 z" />
        <path
           id="path4652"
           style="fill:#0056ff;fill-opacity:1;stroke-width:4.3819"
           d="m 98.614564,332.63396 c -1.765669,0.12553 -3.366913,1.0736 -4.939609,1.85861 -5.298623,2.81406 -10.567116,5.7319 -15.529508,9.17311 -1.102457,0.7658 -1.882941,1.9648 -2.194472,3.31202 -0.429419,1.26569 0.313963,2.54815 1.276946,3.26814 1.34782,1.35343 3.337031,1.11527 5.045713,1.24037 10.27853,0.36805 20.567276,0.28874 30.848786,0.10849 2.0586,-0.0829 4.13624,-0.0908 6.17441,-0.40883 1.33978,-0.36642 2.21083,-1.59202 3.19714,-2.52359 -0.35721,-1.72499 -0.64023,-3.75376 -2.19435,-4.76478 -3.43529,-2.57094 -7.24007,-4.51212 -10.95513,-6.57885 -3.07256,-1.64126 -6.15465,-3.32074 -9.422831,-4.4827 -0.427371,-0.11673 -0.864046,-0.20624 -1.307095,-0.20197 z" />
        <path
           id="path644"
           style="fill:#999999;stroke-width:5.45854"
           d="m 228.12689,77.790094 c 0,3.596238 0,7.192479 0,10.788716 21.11581,0 42.23163,0 63.34746,0 0,-4.240489 0,-8.480984 0,-12.721473 -21.11583,0 -42.23165,0 -63.34746,0 0,0.644252 0,1.288504 0,1.932757 z" />
        <path
           id="path642"
           style="fill:#999999;stroke-width:5.45854"
           d="m 52.198212,209.51206 c 0,6.17891 0,12.35783 0,18.53673 26.351921,0 52.703848,0 79.055758,0 0,-6.82316 0,-13.64633 0,-20.46948 -26.35191,0 -52.703837,0 -79.055758,0 0,0.64424 0,1.2885 0,1.93275 z" />
        <path
           id="path496"
           style="fill:#999999;stroke-width:5.45854"
           d="m 371.85863,192.08327 c 0,4.88411 0,9.76822 0,14.65234 32.45763,0 64.91526,0 97.37288,0 0,-5.52837 0,-11.05673 0,-16.5851 -32.45762,0 -64.91525,0 -97.37288,0 0,0.64425 0,1.28851 0,1.93276 z" />
        <path
           id="path636"
           style="fill:#999999;stroke-width:5.45854"
           d="m 220.79682,448.604 c 0.0824,3.66921 -0.25317,7.38601 0.42677,11.01145 0.46735,2.60962 1.8669,5.18785 4.22483,6.32863 1.41111,0.78907 3.06451,0.53344 4.60015,0.67619 13.41634,0.32562 26.83834,0.21944 40.25655,0.0954 7.17369,-0.12863 14.35997,-0.11223 21.51564,-0.7225 1.54346,-0.24533 3.33289,-0.2031 4.54716,-1.39022 1.17236,-1.5338 1.4254,-3.58135 1.79128,-5.45563 0.58735,-3.75779 0.6387,-7.57906 0.95807,-11.36747 0.042,-0.59538 0.28362,-1.38706 -0.56356,-1.10861 -25.91896,0 -51.83793,0 -77.75689,0 0,0.64426 0,1.28851 0,1.93277 z" />
        <path
           id="path638"
           style="fill:#999999;stroke-width:5.45854"
           d="m 255.62758,307.35792 c -8.60168,0.0854 -17.21853,0.20146 -25.78725,1.0644 -2.12196,0.28577 -4.32898,0.41185 -6.31216,1.32645 -1.44302,0.66364 -1.63906,2.48427 -1.91978,3.91931 -0.71988,4.45065 -0.79181,8.97974 -1.16429,13.47047 -0.30352,0.85247 0.68468,0.43542 1.15197,0.53031 25.7379,0 51.4758,0 77.2137,0 -0.068,-3.83152 0.12575,-7.67549 -0.20893,-11.49651 -0.23423,-1.68225 -0.30917,-3.5249 -1.25503,-4.96229 -1.2132,-1.51573 -3.20044,-1.86947 -4.94504,-2.26912 -5.09995,-0.93739 -10.29072,-1.11194 -15.45338,-1.32848 -7.10336,-0.24799 -14.21299,-0.27669 -21.31981,-0.25454 z" />
        <path
           id="path1571"
           style="fill:#ffffff;fill-opacity:1;stroke-width:4.3819"
           d="m 200.39263,47.90705 c 0,13.188933 0,26.377865 0,39.5668 5.75692,0 11.51383,0 17.27075,0 0.0398,-5.060634 -0.0936,-10.125423 0.0993,-15.183069 0.11866,-2.116026 0.34142,-4.430187 1.81485,-6.028289 0.41972,-0.466938 0.74702,-1.138501 1.22356,-1.479672 26.04109,0 52.0822,0 78.12329,0 1.0535,1.414687 2.38266,2.761087 2.62305,4.636045 0.60093,3.590729 0.36453,7.260302 0.42325,10.88868 0,2.388768 0,4.777537 0,7.166305 5.75692,0 11.51383,0 17.27075,0 0,-13.833187 0,-27.666371 0,-41.499557 -39.61627,0 -79.23255,0 -118.84882,0 0,0.644252 0,1.288505 0,1.932757 z" />
        <path
           id="path1649"
           style="fill:#ffffff;fill-opacity:1;stroke-width:4.3819"
           d="m 53.786002,117.64299 c 0,26.10292 0,52.20585 0,78.30877 25.304344,0 50.608688,0 75.913028,0 0,-26.74718 0,-53.49436 0,-80.24153 -25.30434,0 -50.608684,0 -75.913028,0 0,0.64425 0,1.2885 0,1.93276 z m 37.987768,9.18626 c 6.051681,-0.0333 12.23481,1.79226 16.98799,5.85295 3.41342,2.89227 6.11163,6.71818 7.84173,10.95855 1.64915,4.62526 2.10538,9.64161 1.98755,14.55437 -0.0461,1.35167 -0.17155,2.99764 -0.41166,4.45119 -0.40155,3.04398 -1.66812,5.88025 -3.36861,8.34938 -0.49309,0.73352 -1.21432,1.73014 -1.86442,2.5185 -1.8824,2.31516 -4.00709,4.41568 -6.34818,6.20543 -0.26693,0.19231 -0.8338,0.61872 -1.22918,0.87996 -2.4453,1.75697 -5.31497,2.69476 -8.214745,3.17 -3.083055,0.52429 -6.229249,0.6309 -9.339249,0.33837 -0.598246,-0.0649 -1.482347,-0.16544 -2.187275,-0.29505 -2.740259,-0.42039 -5.364588,-1.49105 -7.688581,-3.07724 -4.598262,-3.07341 -8.569045,-7.31986 -11.130446,-12.41668 -2.192374,-4.60706 -2.749241,-9.90237 -2.485267,-14.99785 0.230721,-4.29148 1.273212,-8.57225 3.378399,-12.27562 3.209914,-6.00472 8.592074,-10.66903 14.826035,-12.73238 2.980633,-1.02082 6.11692,-1.47814 9.245909,-1.48388 z" />
        <path
           id="path1766"
           style="fill:#ffffff;fill-opacity:1;stroke-width:4.3819"
           d="m 418.01249,216.44957 c -2.26052,0.0933 -4.63576,-0.10189 -6.76579,0.84179 -1.73333,0.84796 -2.43436,2.9461 -2.71061,4.80548 -0.22604,1.62771 0.77145,3.21634 2.19633,3.80133 1.67116,0.65499 3.50262,0.56356 5.25784,0.68593 4.49085,0.1164 9.00053,0.0964 13.47221,-0.396 1.19746,-0.14514 2.70929,-0.35832 3.21468,-1.71017 0.57644,-1.71422 0.18599,-3.6288 -0.39915,-5.28401 -0.64643,-1.72649 -2.46308,-2.42109 -4.08748,-2.54679 -3.37959,-0.3195 -6.78884,-0.1727 -10.17803,-0.19756 z" />
        <path
           id="path1805"
           style="fill:#b3b3b3;stroke-width:4.3819"
           d="m 391.18321,409.18363 c -2.48559,-0.0233 -4.39092,1.95649 -6.0033,3.7168 -1.47012,1.58768 -2.79017,3.73743 -2.36601,6.06212 0.42915,2.19389 1.78338,4.03876 3.17935,5.66183 1.9587,2.18668 5.0976,3.22083 7.83012,2.19187 3.05677,-1.14549 5.5814,-4.13682 5.94165,-7.597 0.33212,-3.09716 -1.38497,-6.05403 -3.73076,-7.78118 -1.41139,-1.12913 -3.01949,-2.23018 -4.85105,-2.25444 z" />
        <path
           id="path1844"
           style="fill:#b3b3b3;stroke-width:4.3819"
           d="m 442.52044,409.1421 c -1.6191,0.18153 -3.06864,1.12658 -4.36946,2.10452 -2.2912,1.94507 -4.14062,4.84932 -4.05877,8.05568 0.15881,2.28706 1.80914,4.02135 3.29836,5.5126 2.0426,1.96578 5.04943,2.97432 7.72707,1.9873 3.26408,-1.17719 5.97099,-4.53779 5.85068,-8.29641 -0.0737,-3.27106 -2.14603,-6.09283 -4.65587,-7.81791 -1.1042,-0.85117 -2.37059,-1.66266 -3.79201,-1.54578 z" />
        <path
           id="path2019"
           style="fill:#0056ff;fill-opacity:1;stroke-width:4.3819"
           d="m 264.81684,202.05203 c -2.17881,0.20994 -4.12382,1.42071 -6.02825,2.46746 -3.88645,2.31224 -7.64081,4.94331 -10.92854,8.14263 -1.70338,1.7595 -3.05316,3.85413 -4.63603,5.73004 -2.22543,2.7963 -4.53304,5.51752 -6.83818,8.24024 -5.04481,-1.25552 -10.16341,-2.61577 -15.38965,-2.34773 -3.04596,0.11953 -6.16519,0.888 -8.63633,2.85893 -3.66649,2.81779 -6.79429,6.39516 -9.34647,10.34521 -1.0531,1.55378 -1.76608,3.31147 -2.53504,5.02844 -1.20205,2.50824 -3.45366,4.30498 -5.97198,5.12183 -2.1084,0.64943 -4.26787,1.15282 -6.3061,2.08637 -8.47066,3.72908 -15.49807,10.69508 -20.12495,19.01322 -1.66416,3.01826 -3.23456,6.225 -3.52829,9.76396 -0.39818,4.21149 -0.26402,8.45473 -0.23623,12.68062 0.0527,3.58506 0.39157,7.25843 1.89046,10.5283 3.23188,7.44691 8.1728,14.23809 14.8026,18.61479 5.86505,3.96216 12.82298,5.81993 19.73602,6.06734 3.08592,0.18011 6.17188,0.35893 9.25772,0.54015 0.18521,-3.79704 0.3565,-7.63567 0.5482,-11.39645 0.0867,-1.34149 0.19634,-2.90928 0.42753,-4.32158 0.34475,-2.70638 1.61496,-5.13874 3.09689,-7.32954 1.27446,-2.09918 2.89001,-4.15507 5.2033,-4.97402 3.47782,-1.3176 7.21438,-1.52075 10.86588,-1.83094 3.72541,-0.26298 7.62983,-0.40878 11.38807,-0.51634 16.51506,-0.45198 33.03396,-0.72928 49.55075,-1.1019 1.1297,0.0115 2.29556,-0.11909 3.40311,-0.0204 2.79179,1.87786 5.77594,3.46601 8.35669,5.6736 2.97072,2.48097 5.10621,6.04652 5.86604,9.97499 1.02903,4.538 0.23203,9.26126 1.05423,13.82439 0.16172,1.22002 1.24203,1.98984 2.34773,2.07862 3.06622,0.28961 6.14225,-0.19655 9.18049,-0.60419 4.95165,-0.74474 9.93096,-1.89307 14.38247,-4.39063 6.11314,-3.31 11.20473,-8.5681 14.69446,-14.80256 2.5185,-4.26174 4.54279,-8.95793 5.12477,-13.98813 0.47197,-4.10577 0.35267,-8.27922 -0.15544,-12.3745 -1.18558,-8.88928 -5.52295,-17.22343 -11.91051,-23.12585 -6.08792,-5.71364 -13.88047,-9.17984 -21.90234,-10.39887 -2.39967,-0.50085 -4.84985,-1.04796 -7.02471,-2.2725 -0.70296,-0.67582 -0.91748,-1.75308 -1.26727,-2.66253 -1.15685,-3.39807 -1.33229,-7.04031 -2.31908,-10.4858 -1.62272,-5.97754 -4.08062,-11.76429 -7.61675,-16.75749 -1.64384,-2.37966 -3.78845,-4.3023 -6.10372,-5.9183 -3.50622,-2.48646 -7.16272,-4.78333 -11.05808,-6.52266 -1.2338,-0.52643 -2.84493,-1.10068 -3.96409,-0.009 -0.88047,1.17355 -0.88787,2.78715 -1.15819,4.20517 -1.07113,7.64472 -1.25292,15.45649 -0.27225,23.1229 0.32138,2.01905 0.57716,4.17819 1.72856,5.88799 0.459,0.60692 1.14744,0.95453 1.86065,1.04754 1.97777,1.3107 3.47894,3.26763 4.97533,5.12867 1.68917,2.2542 3.3781,4.59502 4.37073,7.29648 2.32824,7.30392 0.39894,15.8358 -4.69018,21.3284 -4.78161,5.2165 -12.17106,7.46819 -18.87872,6.05581 -6.10159,-1.23422 -11.60883,-5.66853 -14.05631,-11.74886 -1.66613,-4.0649 -1.97354,-8.66895 -1.27934,-13.00897 0.7703,-4.76599 3.50832,-8.89638 6.81654,-12.11842 2.10541,-2.02544 4.23441,-4.0236 6.34618,-6.04175 -0.0365,-7.54603 0.0887,-15.0947 -0.10028,-22.63878 -0.12376,-2.48729 -0.0847,-5.04 -0.78538,-7.44166 -0.34652,-0.9815 -1.18351,-1.80304 -2.2267,-1.70436 z m -63.1189,63.63378 c 2.00825,0 4.01652,0 6.02476,0 0,3.87684 0,7.75368 0,11.63052 -4.01651,0 -8.03301,0 -12.04952,0 0,-3.87684 0,-7.75368 0,-11.63052 2.00825,0 4.01651,0 6.02476,0 z m 29.32204,0 c 2.00826,0 4.0165,0 6.02476,0 0,3.87684 0,7.75368 0,11.63052 -4.01709,0 -8.0342,0 -12.0513,0 0,-3.87684 0,-7.75368 0,-11.63052 2.00885,0 4.0177,0 6.02654,0 z m 86.91616,0 c 2.00826,0 4.01651,0 6.02477,0 0,3.87684 0,7.75368 0,11.63052 -4.01651,0 -8.03302,0 -12.04952,0 0,-3.87684 0,-7.75368 0,-11.63052 2.00825,0 4.0165,0 6.02475,0 z" />
        <path
           id="path4574"
           style="fill:#0056ff;fill-opacity:1;stroke-width:4.3819"
           d="m 369.76978,385.79425 c -0.6089,6.3e-4 -1.21781,9.6e-4 -1.8267,0.002 0,9.1611 0,18.32219 0,27.48329 3.5304,-3.6876 6.9767,-7.46705 10.56737,-11.08903 2.09225,-2.09717 4.56997,-3.85134 7.4069,-4.56367 7.82923,-2.32337 16.7759,0.78926 21.82063,7.51646 1.60443,2.11237 2.74935,4.88341 5.23798,6.01527 1.92658,0.81488 4.06861,0.6849 6.09853,0.53391 1.99303,-0.14994 3.74587,-1.41237 4.89848,-3.09006 1.33324,-1.91933 2.52477,-3.9751 4.20519,-5.59255 4.54226,-4.6886 11.23193,-6.81413 17.47855,-5.7201 2.7969,0.46359 5.50029,1.5286 7.9115,3.09464 0.19747,0.12349 0.76165,0.51175 1.08746,0.75311 2.60654,1.88062 4.68197,4.44057 6.47164,7.16152 1.57348,2.25479 3.14717,4.50945 4.72077,6.76415 0,-7.62219 0,-15.24437 0,-22.86656 -6.34699,-1.5863 -12.66105,-3.32159 -19.03187,-4.79547 -7.06496,-1.56516 -14.32195,-1.46437 -21.5033,-1.58967 -18.03935,-0.0862 -36.07904,-0.008 -54.11853,-0.0179 -0.47487,2.8e-4 -0.94974,5.6e-4 -1.4246,8.4e-4 z" />
        <path
           id="path4613"
           style="fill:#0056ff;fill-opacity:1;stroke-width:4.3819"
           d="m 90.847023,138.95994 c -5.025926,0.091 -9.812886,3.13225 -12.437132,7.63044 -2.795817,4.59467 -3.294517,10.69131 -1.074432,15.65507 1.514359,3.4223 4.089633,6.31554 7.193955,8.17655 2.786477,1.51277 6.021168,1.04738 9.025264,0.86068 2.727709,-0.2144 5.666877,-0.60601 7.791282,-2.61336 1.79252,-1.73573 3.5209,-3.68983 4.47241,-6.08938 0.98131,-2.67455 0.89209,-5.61579 0.76659,-8.43352 -0.26474,-4.20855 -1.7518,-8.52767 -4.88555,-11.29015 -2.640063,-2.31184 -6.03255,-3.58124 -9.429479,-3.86533 -0.473879,-0.0353 -0.948141,-0.039 -1.422908,-0.031 z" />
        <path
           id="path4888"
           style="fill:#ffff00;fill-opacity:1;stroke-width:4.3819"
           d="m 61.116066,364.48105 c 0,18.35491 0,36.70982 0,55.06473 5.756911,0 11.513824,0 17.270737,0 0.03428,-7.89968 -0.08096,-15.80126 0.08609,-23.69954 0.147874,-3.62939 0.189042,-7.33303 1.17659,-10.84142 0.364842,-1.36537 1.259049,-2.72555 2.680011,-2.9383 2.889041,-0.39708 5.809569,-0.44072 8.717511,-0.56625 5.510319,-0.16229 11.193255,-0.15304 16.770715,-0.12164 2.72292,0.0871 5.52605,-0.003 8.14614,0.89739 1.46312,0.4575 2.3358,1.93416 2.64154,3.43649 0.10862,0.4319 0.1981,0.94014 0.28771,1.49794 0.41404,2.96468 0.45416,5.92396 0.54651,8.86929 0.20882,7.82203 0.41608,15.64413 0.62945,23.46604 5.65335,0 11.30669,0 16.96003,0 0,-18.99916 0,-37.99832 0,-56.99748 -25.30435,0 -50.608698,0 -75.913043,0 0,0.64426 0,1.2885 0,1.93275 z" />
        <path
           id="path4691"
           style="fill:#4d4d4d;fill-opacity:1;stroke-width:4.3819"
           d="m 90.438106,395.47502 c 0,8.02359 0,16.04716 0,24.07076 5.756918,0 11.513824,0 17.270734,0 0,-8.66784 0,-17.33568 0,-26.00352 -5.75691,0 -11.513816,0 -17.270734,0 0,0.64425 0,1.28851 0,1.93276 z" />
        <path
           id="path5005"
           style="fill:#ffffff;fill-opacity:1;stroke-width:4.3819"
           d="m 385.97271,362.56151 c -2.54117,0.027 -5.13507,0.88554 -6.9755,2.79928 -1.13475,1.17011 -2.22556,2.44515 -2.97768,3.92951 -0.57961,1.26797 0.0903,2.90499 1.36781,3.3125 1.87124,0.59927 3.8703,0.37943 5.80225,0.45041 3.11809,0.006 6.23619,8.4e-4 9.35429,0.003 -0.0493,-2.42341 0.10905,-4.85928 -0.10302,-7.27437 -0.13957,-1.54307 -1.31851,-2.83222 -2.76824,-3.05003 -1.21944,-0.22545 -2.46722,-0.18007 -3.69986,-0.16987 z" />
        <path
           id="path5044"
           style="fill:#ffffff;fill-opacity:1;stroke-width:4.3819"
           d="m 404.59518,364.48105 c 0,2.85825 0,5.71649 0,8.57474 5.57712,-0.041 11.15724,0.0954 16.7322,-0.0976 2.19084,-0.16227 4.44953,-0.1359 6.55257,-0.87824 1.00113,-0.3974 1.59592,-1.61389 1.21425,-2.68962 -0.62182,-1.75157 -2.07257,-2.98529 -3.38737,-4.15996 -2.08385,-1.84416 -4.83858,-2.44676 -7.4872,-2.57828 -4.53811,-0.20272 -9.08337,-0.0614 -13.62445,-0.10378 0,0.64426 0,1.2885 0,1.93275 z" />
        <path
           id="path5083"
           style="fill:#ffffff;fill-opacity:1;stroke-width:4.3819"
           d="m 274.35396,247.47183 c -3.48467,-0.0163 -6.90313,2.6099 -7.66755,6.2607 -0.93476,3.80942 0.73855,8.29692 4.18193,10.00258 4.13684,2.15194 9.72609,-0.22729 11.27103,-4.82717 1.3058,-3.75178 -0.3006,-8.32712 -3.61733,-10.25839 -1.25725,-0.77657 -2.71273,-1.18456 -4.16808,-1.17772 z" />
        <path
           id="path7430"
           style="fill:#00ff3a;fill-opacity:1;stroke-width:4.3819"
           d="m 375.27492,140.88703 c 0,13.18894 0,26.37788 0,39.56681 30.19106,0 60.38211,0 90.57316,0 0,-13.83319 0,-27.66637 0,-41.49956 -30.19105,0 -60.3821,0 -90.57316,0 0,0.64426 0,1.28851 0,1.93275 z" />
        <path
           id="path748"
           style="fill:#ff0000;stroke-width:5.45854"
           d="m 194.6175,265.96406 c 1e-5,4.33423 0,8.66848 0,13.0027 4.70935,0 9.41868,0 14.12802,0 0,-4.97848 0,-9.95697 0,-14.93546 -4.70934,0 -9.41867,0 -14.12802,0 1e-5,0.64426 0,1.28851 0,1.93276 z" />
        <path
           id="path819"
           style="fill:#00ffff;stroke-width:5.45854"
           d="m 223.93777,265.96406 c 0,4.33423 0,8.66848 0,13.0027 4.70993,0 9.41986,0 14.1298,0 0,-4.97848 0,-9.95697 0,-14.93546 -4.70994,0 -9.41987,0 -14.1298,0 0,0.64426 0,1.28851 0,1.93276 z" />
        <path
           id="path890"
           style="fill:#00ff00;stroke-width:5.45854"
           d="m 274.12862,246.49304 c -3.56213,0.15613 -7.08713,2.63565 -8.1461,6.31921 -1.28034,4.06297 -0.011,9.12342 3.51709,11.45605 3.369,2.18488 7.86701,1.36764 10.8985,-1.09746 2.40981,-1.86334 3.96024,-5.16706 3.26305,-8.32827 -0.72303,-3.76347 -3.4228,-7.15888 -7.01964,-8.07285 -0.81924,-0.2214 -1.66818,-0.30876 -2.5129,-0.27668 z" />
        <path
           id="path961"
           style="fill:#ffff00;stroke-width:5.45854"
           d="m 310.85572,265.96406 c 0,4.33423 0,8.66848 0,13.0027 4.70933,0 9.41866,0 14.128,0 -1e-5,-4.97848 0,-9.95697 0,-14.93546 -4.70934,0 -9.41867,0 -14.128,0 0,0.64426 0,1.28851 0,1.93276 z" />
      </g>
    </g>
  </g>
</svg>
