<?xml version="1.0" encoding="UTF-8" standalone="no"?>
<svg
   height="512"
   id="svg885"
   inkscape:version="1.2.2 (b0a8486541, 2022-12-01)"
   sodipodi:docname="httpx.svg"
   version="1.1"
   viewBox="0 0 512 512"
   width="512"
   xmlns:inkscape="http://www.inkscape.org/namespaces/inkscape"
   xmlns:sodipodi="http://sodipodi.sourceforge.net/DTD/sodipodi-0.dtd"
   xmlns="http://www.w3.org/2000/svg"
   xmlns:svg="http://www.w3.org/2000/svg"
   xmlns:rdf="http://www.w3.org/1999/02/22-rdf-syntax-ns#"
   xmlns:cc="http://creativecommons.org/ns#"
   xmlns:dc="http://purl.org/dc/elements/1.1/">
  <metadata
     id="metadata891">
    <rdf:RDF>
      <cc:Work
         rdf:about="">
        <dc:format>image/svg+xml</dc:format>
        <dc:type
           rdf:resource="http://purl.org/dc/dcmitype/StillImage" />
      </cc:Work>
    </rdf:RDF>
  </metadata>
  <defs
     id="defs889" />
  <sodipodi:namedview
     bordercolor="#ffffff"
     borderopacity="1"
     gridtolerance="10"
     guidetolerance="10"
     id="namedview887"
     inkscape:current-layer="g893"
     inkscape:cx="152.42967"
     inkscape:cy="253.7954"
     inkscape:pagecheckerboard="true"
     inkscape:pageopacity="0"
     inkscape:pageshadow="2"
     inkscape:window-height="695"
     inkscape:window-maximized="1"
     inkscape:window-width="1366"
     inkscape:window-x="0"
     inkscape:window-y="24"
     inkscape:zoom="0.65604027"
     objecttolerance="10"
     pagecolor="#4d4d4d"
     showgrid="false"
     inkscape:showpageshadow="0"
     inkscape:deskcolor="#4d4d4d" />
  <g
     id="g893"
     inkscape:groupmode="layer"
     inkscape:label="Image">
    <g
       id="g680"
       transform="matrix(0.97036211,0,0,0.93858013,7.3939872,15.723486)">
      <path
         id="path897-6"
         style="fill:#0000ff;fill-opacity:1;stroke-width:2.51787"
         d="M 122.28711,-7.2109375 C 112.33505,5.556978 102.37933,18.324181 92.425781,31.091797 89.673913,33.49608 87.673733,36.596025 85.239137,39.295332 68.864385,59.028171 52.490582,78.761797 36.115234,98.494141 80.062154,151.46275 124.007,204.43307 167.95312,257.40234 124.3665,309.91208 80.780144,362.42204 37.193359,414.93164 c 5.27952,5.56602 10.122953,11.52416 14.769863,17.62307 3.520513,4.47417 7.071769,8.99632 11.409825,12.71482 1.215751,2.5282 3.41667,4.36517 5.04813,6.60592 4.836499,6.04789 9.398396,12.55689 14.876387,18.14773 1.054064,1.07084 2.123765,2.13463 3.294233,3.07448 1.166393,2.23762 3.047054,3.99197 4.480115,6.05336 10.914788,14.00763 21.829928,28.015 32.744498,42.02281 43.84425,-52.84648 87.68882,-105.69269 131.5332,-158.53906 36.8328,44.21479 73.57622,88.49738 110.84549,132.34426 3.33854,3.86744 6.90673,7.85085 11.73574,9.84419 5.96637,2.6549 13.06721,2.63702 18.98687,-0.14626 5.91454,-2.55424 10.52934,-7.28312 14.47261,-12.25275 4.12504,-4.99891 8.04322,-10.16754 11.94786,-15.33687 0.62135,-0.88041 0.93291,-1.95918 1.47002,-2.86189 5.53747,-3.91577 9.53053,-9.49856 13.73699,-14.71813 3.83698,-4.87609 7.59875,-9.85728 11.49462,-14.63991 5.15612,-4.55683 9.20726,-10.1664 13.40733,-15.57306 1.65863,-2.13888 3.25645,-4.37925 4.11891,-6.97336 2.7448,-7.63013 0.93189,-16.64157 -4.45921,-22.68297 -3.5938,-4.12674 -7.00646,-8.40757 -10.52727,-12.59704 -36.41324,-43.88345 -72.82649,-87.7669 -109.23973,-131.65036 18.73616,-21.43669 36.85845,-43.40395 55.1017,-65.25977 25.97924,-31.2399 51.90158,-62.52763 77.84166,-93.800772 -9.76342,-11.040822 -19.5151,-22.091988 -29.25195,-33.15625 -1.78342,-3.23614 -4.53245,-5.771877 -6.74774,-8.694976 C 422.94493,33.580246 405.60581,12.682097 388.26758,-8.2167969 344.33684,44.756175 300.40697,97.729873 256.47656,150.70312 212.25658,97.410753 168.03606,44.118817 123.81641,-9.1738281 c -0.50977,0.6542968 -1.01954,1.3085937 -1.5293,1.9628906 z" />
      <path
         id="path897"
         style="fill:#000000;fill-opacity:1;stroke-width:2.51787"
         d="m 124.40315,29.122853 -5.54826,7.118745 -5.54829,7.11872 159.29527,192.013442 c 87.61262,105.60484 159.89637,192.00873 160.62595,192.00873 0.72957,0 3.54091,-2.84076 6.24582,-6.31108 l 4.91509,-6.31107 -159.99277,-192.8164 z m 263.86443,0.253573 -60.64456,73.131424 -60.64454,73.1314 5.5429,7.11406 5.54826,7.11403 L 338.90735,116.5387 399.74507,43.210055 394.009,36.29324 Z M 102.854,55.658469 96.549158,63.256158 90.244291,70.849183 249.60393,262.93774 c 87.64762,105.64693 159.96079,192.08856 160.69037,192.08856 0.72957,0 3.78485,-3.16068 6.79311,-7.02015 l 5.47315,-7.01541 -159.85329,-192.66613 z m 307.23639,0.01923 -60.70357,73.126741 -60.70894,73.12672 6.17607,7.77144 6.18143,7.76675 60.82161,-73.30515 60.82698,-73.309876 -6.29948,-7.588312 z M 79.915093,83.302743 73.615611,90.895744 67.310772,98.493432 226.67041,290.58201 c 87.64745,105.64676 159.96077,192.08385 160.69034,192.08385 0.72957,0 3.7849,-3.15599 6.79315,-7.01543 L 399.62166,468.6303 239.7684,275.96886 Z m 352.985407,0.169016 -60.63381,73.037491 -60.63382,73.03753 4.92583,6.31576 c 2.70763,3.47374 5.52145,6.31579 6.25654,6.31579 0.7351,0 28.45758,-32.7032 61.60505,-72.67596 l 60.26894,-72.680638 -5.89706,-6.677331 z m -243.10941,185.199921 -60.63382,73.0422 -60.628454,73.03749 4.920446,6.31579 c 2.707659,3.47356 5.526831,6.31576 6.261926,6.31576 0.735096,0 28.457572,-32.70787 61.605042,-72.68064 l 60.26895,-72.67594 -5.89706,-6.67733 z m 21.81207,26.15524 -60.61236,73.08916 -60.606974,73.08916 5.462407,7.01075 c 3.004505,3.85461 6.063377,7.01074 6.798497,7.01074 0.7351,0 28.4503,-32.69955 61.58892,-72.66185 l 60.25288,-72.65715 -6.44438,-7.44276 z m 23.0033,27.55929 -60.64456,73.13142 -60.64455,73.13143 5.5429,7.11405 5.5429,7.11404 60.84308,-73.32865 60.83772,-73.32864 -5.73607,-6.91682 z" />
    </g>
  </g>
</svg>
