<?xml version="1.0" encoding="UTF-8" standalone="no"?>
<!-- Created with Inkscape (http://www.inkscape.org/) -->

<svg
   version="1.1"
   id="svg870"
   width="512"
   height="512"
   viewBox="0 0 512 512"
   sodipodi:docname="ilo.svg"
   inkscape:version="1.1.2 (0a00cf5339, 2022-02-04)"
   xmlns:inkscape="http://www.inkscape.org/namespaces/inkscape"
   xmlns:sodipodi="http://sodipodi.sourceforge.net/DTD/sodipodi-0.dtd"
   xmlns="http://www.w3.org/2000/svg"
   xmlns:svg="http://www.w3.org/2000/svg">
  <defs
     id="defs874" />
  <sodipodi:namedview
     id="namedview872"
     pagecolor="#505050"
     bordercolor="#eeeeee"
     borderopacity="1"
     inkscape:pageshadow="0"
     inkscape:pageopacity="0"
     inkscape:pagecheckerboard="0"
     showgrid="false"
     inkscape:zoom="0.87304687"
     inkscape:cx="174.10291"
     inkscape:cy="256"
     inkscape:window-width="1366"
     inkscape:window-height="695"
     inkscape:window-x="0"
     inkscape:window-y="24"
     inkscape:window-maximized="1"
     inkscape:current-layer="g876" />
  <g
     inkscape:groupmode="layer"
     inkscape:label="Image"
     id="g876">
    <g
       id="g3950"
       transform="matrix(1.0393427,0,0,1.0344125,-8.281542,-8.7311359)">
      <path
         style="fill:#808080;stroke-width:4.66183"
         d="m 20.771919,128.77593 c -2.965872,-2.33296 -3.018004,-2.61545 -3.018004,-16.35364 0,-15.851123 0.992434,-18.508794 7.357503,-19.702888 4.064507,-0.762506 8.247801,0.803289 10.603369,3.968812 1.807483,2.428981 3.119943,17.070476 2.124957,23.705516 -1.467585,9.78656 -9.972474,13.9634 -17.067825,8.3822 z"
         id="path1115" />
      <path
         style="fill:#808080;stroke-width:4.66183"
         d="m 52.077801,109.61714 c -0.966158,-0.44155 -2.941017,-1.6539 -4.388576,-2.69412 -2.55333,-1.83481 -2.620588,-2.34216 -2.252297,-16.989612 0.432346,-17.195052 1.031768,-18.345041 9.562199,-18.345041 3.46927,0 5.40182,0.708969 7.226267,2.651004 2.271672,2.418084 2.49049,3.859785 2.49049,16.40884 0,12.791009 -0.181111,13.926889 -2.577182,16.163419 -2.924497,2.72977 -7.459534,3.99437 -10.060901,2.80551 z"
         id="path1191" />
      <path
         style="fill:#808080;stroke-width:4.66183"
         d="m 77.676667,84.233262 c -4.094343,-1.73692 -4.944209,-4.948582 -4.917417,-18.583017 0.02994,-15.235227 1.244294,-17.891464 8.629852,-18.876604 3.511391,-0.468375 5.218157,-0.04974 7.666826,1.880521 3.142228,2.476985 3.149889,2.518603 3.149889,17.112745 0,12.852645 -0.261012,14.865933 -2.148765,16.574326 -2.61394,2.365583 -8.973206,3.337436 -12.380385,1.892029 z"
         id="path1230" />
      <path
         style="fill:#808080;stroke-width:4.66183"
         d="m 129.20585,84.022368 c -3.71042,-1.881195 -4.92845,-6.811268 -4.92845,-19.948294 0,-11.719107 0.0105,-11.762932 3.52413,-14.719458 4.53571,-3.816551 9.0632,-3.791548 13.65885,0.07543 l 3.61376,3.040785 -0.37599,14.102745 c -0.29557,11.086023 -0.77107,14.497122 -2.22289,15.9464 -2.32546,2.321398 -9.9511,3.184789 -13.26941,1.50239 z"
         id="path1269" />
      <path
         style="fill:#808080;stroke-width:4.66183"
         d="m 182.69351,84.520737 c -5.21219,-1.916491 -5.72707,-3.547077 -5.72707,-18.137364 0,-16.389373 0.98394,-18.584129 8.80159,-19.632697 4.03644,-0.5414 5.20698,-0.201941 7.61822,2.209298 3.4469,3.446899 4.85068,12.284361 3.74914,23.60266 -0.60085,6.173693 -1.29154,8.104493 -3.64649,10.193518 -2.76085,2.449103 -7.03408,3.147593 -10.79539,1.764585 z"
         id="path1308" />
      <path
         style="fill:#808080;stroke-width:4.66183"
         d="m 156.70217,151.5446 c -3.51861,-1.70034 -3.90617,-3.2237 -4.619,-18.1557 l -0.63129,-13.22407 3.68185,-3.09807 c 4.41556,-3.71545 8.20937,-3.91766 13.39326,-0.71383 l 3.8578,2.38424 v 14.8138 14.8138 l -3.7226,2.26971 c -4.07296,2.48333 -8.07437,2.78783 -11.96002,0.91012 z"
         id="path1347" />
      <path
         style="fill:#808080;stroke-width:4.66183"
         d="m 127.55419,171.34295 c -2.51532,-2.03456 -2.73115,-3.1222 -3.09189,-15.58086 -0.38543,-13.31117 -0.36825,-13.41404 2.79147,-16.71208 4.32271,-4.51193 10.80089,-4.63758 14.83224,-0.28768 2.63451,2.84269 2.80884,3.82838 2.80884,15.88133 0,11.26616 -0.29269,13.22263 -2.37396,15.86854 -1.90959,2.42765 -3.34112,3.018 -7.31829,3.018 -3.15864,0 -5.92095,-0.78995 -7.64841,-2.18725 z"
         id="path1386" />
      <path
         style="fill:#808080;stroke-width:4.66183"
         d="m 103.64225,150.84052 c -2.72704,-2.20571 -2.86155,-2.92609 -3.22245,-17.25793 l -0.37662,-14.95613 3.81286,-2.32461 c 4.86971,-2.96894 9.01221,-2.95576 12.82171,0.0408 2.97895,2.34325 3.018,2.56324 3.018,17.00369 0,12.97816 -0.24858,14.85467 -2.20193,16.62243 -3.50452,3.17155 -10.46651,3.60971 -13.85157,0.87176 z"
         id="path1425" />
      <path
         style="fill:#808080;stroke-width:4.66183"
         d="m 75.751784,128.77593 c -2.96906,-2.33547 -3.018003,-2.60316 -3.018003,-16.50669 V 98.136526 l 3.659228,-3.079038 c 2.936588,-2.470975 4.434952,-2.953155 7.587254,-2.441607 7.5663,1.227842 8.225554,2.763167 8.225554,19.156359 0,14.44045 -0.03905,14.66044 -3.018004,17.00369 -1.659902,1.30568 -4.683009,2.37396 -6.718014,2.37396 -2.035006,0 -5.058112,-1.06828 -6.718015,-2.37396 z"
         id="path1464" />
      <path
         style="fill:#808080;stroke-width:4.66183"
         d="m 80.178971,173.77103 c -1.259955,-0.25824 -3.450559,-1.53879 -4.868009,-2.84566 -2.39017,-2.20372 -2.577181,-3.34784 -2.577181,-15.76698 0,-11.81277 0.279764,-13.7465 2.373962,-16.40884 3.223062,-4.09746 10.9213,-4.29087 14.607584,-0.367 2.284207,2.43143 2.49049,3.84289 2.49049,17.04096 0,10.95195 -0.383966,14.70861 -1.60711,15.72373 -2.196498,1.82293 -7.639692,3.19358 -10.419736,2.62379 z"
         id="path1503" />
      <path
         style="fill:#808080;stroke-width:4.66183"
         d="m 48.173853,196.28612 -3.106002,-2.44318 0.374352,-14.83278 c 0.334826,-13.26669 0.616225,-15.00944 2.66518,-16.5059 4.023857,-2.93882 7.634291,-3.20845 11.958133,-0.89304 l 4.077661,2.18358 0.318842,15.06773 0.318843,15.06774 -3.050493,2.39952 c -3.918344,3.08217 -9.605952,3.06385 -13.556516,-0.0437 z"
         id="path1542" />
      <path
         style="fill:#808080;stroke-width:4.66183"
         d="m 23.777413,219.63957 c -4.929012,-0.86308 -6.023498,-4.30205 -6.023498,-18.92636 0,-12.85089 0.143516,-13.68569 2.81147,-16.35364 3.507186,-3.50719 9.453319,-3.73277 13.54547,-0.51388 2.484815,1.95455 3.039364,3.56167 3.714304,10.76428 0.961475,10.26037 -0.150023,19.41086 -2.712134,22.32785 -1.991258,2.26708 -7.000134,3.4609 -11.335612,2.70175 z"
         id="path1581" />
      <path
         style="fill:#808080;stroke-width:4.66183"
         d="m 80.226713,219.5341 c -1.233697,-0.24597 -3.424301,-1.22118 -4.868009,-2.16714 -2.503267,-1.6402 -2.624923,-2.3798 -2.624923,-15.95792 0,-13.58967 0.12802,-14.36602 2.81147,-17.04947 3.715537,-3.71554 9.687916,-3.77299 13.918614,-0.1339 3.036558,2.61194 3.115336,2.99913 3.213761,15.79526 0.08089,10.51639 -0.283705,13.70558 -1.838547,16.08221 -1.927127,2.94569 -6.168604,4.31695 -10.612366,3.43096 z"
         id="path1620" />
      <path
         style="fill:#808080;stroke-width:4.66183"
         d="m 131.55586,219.67021 c -5.43626,-0.99859 -6.67826,-4.20479 -7.09356,-18.31191 -0.38481,-13.07095 -0.36313,-13.19904 2.79147,-16.49173 4.25812,-4.44452 9.94168,-4.5393 14.42852,-0.24064 3.14728,3.01529 3.21256,3.33985 3.21256,15.97192 0,11.77432 -0.22381,13.13845 -2.57718,15.70789 -2.68063,2.92674 -6.55346,4.13751 -10.76181,3.36447 z"
         id="path1659" />
      <path
         style="fill:#808080;stroke-width:4.66183"
         d="m 102.97842,242.13848 c -1.85611,-2.04784 -2.2378,-4.58568 -2.55562,-16.99229 l -0.37363,-14.58491 3.23716,-2.12993 c 4.05565,-2.66845 9.478,-2.73674 13.39731,-0.1687 2.99496,1.96237 3.01211,2.05774 3.01211,16.75445 0,14.6037 -0.0362,14.80929 -3.018,17.1548 -4.04773,3.18394 -10.79811,3.16747 -13.69933,-0.0334 z"
         id="path1698" />
      <path
         style="fill:#808080;stroke-width:4.66183"
         d="m 77.888143,265.0436 c -4.650592,-2.66045 -5.154362,-4.46642 -5.154362,-18.4779 0,-12.88904 0.142677,-13.72078 2.81147,-16.38958 3.491967,-3.49196 9.453518,-3.73261 13.505691,-0.54517 2.449734,1.92696 3.002606,3.56259 3.692391,10.92363 0.974906,10.4037 -0.06798,19.20171 -2.650442,22.35978 -2.271325,2.77758 -9.014886,3.95406 -12.204748,2.12924 z"
         id="path1737" />
      <path
         style="fill:#808080;stroke-width:4.66183"
         d="m 47.734337,287.71141 c -2.265359,-2.41136 -2.490489,-3.86774 -2.490489,-16.11109 0,-7.40305 0.504556,-14.40287 1.121235,-15.55514 1.404719,-2.62474 7.035419,-4.65948 10.541157,-3.80921 1.460405,0.3542 3.815013,1.69357 5.232462,2.97638 2.403277,2.175 2.577182,3.27158 2.577182,16.25074 0,13.0677 -0.162021,14.07056 -2.651005,16.40884 -3.718922,3.49374 -10.973883,3.41248 -14.330542,-0.16052 z"
         id="path1776" />
      <path
         style="fill:#808080;stroke-width:4.66183"
         d="m 23.480984,265.54864 c -5.26391,-2.09639 -5.727069,-3.58192 -5.727069,-18.36883 0,-13.54106 0.128994,-14.32121 2.81147,-17.00369 3.507186,-3.50718 9.453319,-3.73276 13.54547,-0.51388 2.484815,1.95456 3.039364,3.56168 3.714304,10.76429 0.958285,10.22633 -0.141353,19.34405 -2.712134,22.48783 -1.937219,2.369 -8.542225,3.86482 -11.632041,2.63428 z"
         id="path1815" />
      <path
         style="fill:#808080;stroke-width:4.66183"
         d="m 20.771919,309.75132 c -2.980762,-2.34467 -3.018004,-2.55566 -3.018004,-17.09808 0,-14.69711 0.0058,-14.72866 3.149888,-17.20713 2.460678,-1.93973 4.149815,-2.34964 7.719838,-1.87341 6.117804,0.81609 8.2533,3.7792 9.218379,12.79097 1.153151,10.76796 -0.220993,19.74359 -3.529161,23.05176 -3.440975,3.44098 -9.405374,3.58892 -13.54094,0.33589 z"
         id="path1854" />
      <path
         style="fill:#808080;stroke-width:4.66183"
         d="m 474.20134,60.240164 c -4.70363,-2.014162 -6.04613,-4.933305 -6.36997,-13.850902 -0.55716,-15.342607 -0.17095,-18.189609 2.88167,-21.242221 4.06283,-4.062835 10.62258,-3.884193 14.72814,0.401093 2.97617,3.106452 3.07784,3.648444 3.07784,16.40884 0,12.285839 -0.18161,13.366884 -2.63225,15.669143 -3.02959,2.846153 -8.35919,4.038391 -11.68543,2.614047 z"
         id="path1893" />
      <path
         style="fill:#808080;stroke-width:4.66183"
         d="m 471.75697,104.6235 c -3.38392,-2.45554 -3.61909,-3.11128 -4.10092,-11.434694 -1.08375,-18.721075 1.55655,-25.036681 10.46684,-25.036681 3.19672,0 5.03418,0.828462 7.46512,3.365821 l 3.22466,3.36582 -0.50856,13.286241 c -0.43372,11.331249 -0.84462,13.622303 -2.79248,15.570163 -3.59523,3.59523 -9.4953,3.97414 -13.75466,0.88333 z"
         id="path1932" />
      <path
         style="fill:#808080;stroke-width:4.66183"
         d="m 418.82975,104.01291 -3.82796,-3.23592 0.39172,-13.359933 c 0.36017,-12.283743 0.61541,-13.597766 3.16857,-16.312432 3.56051,-3.785742 9.89689,-4.00261 14.36054,-0.491502 l 3.12865,2.460998 -0.397,14.680292 c -0.44715,16.534697 -0.94553,17.647687 -8.4149,18.792307 -3.92275,0.60113 -5.13217,0.23673 -8.40962,-2.53381 z"
         id="path1971" />
      <path
         style="fill:#808080;stroke-width:4.66183"
         d="m 390.99938,125.52276 c -2.59761,-2.10463 -2.69982,-2.76601 -2.59605,-16.79718 0.10155,-13.730593 0.26366,-14.732316 2.70407,-16.708438 3.42601,-2.774214 10.47394,-2.731297 13.95586,0.08498 2.52136,2.039342 2.72949,3.104778 3.08022,15.767178 0.34563,12.47815 0.17624,13.83418 -2.08761,16.71219 -2.00453,2.54836 -3.38531,3.13216 -7.40808,3.13216 -3.16308,0 -5.91852,-0.7893 -7.64841,-2.19089 z"
         id="path2010" />
      <path
         style="fill:#808080;stroke-width:4.66183"
         d="m 367.51111,155.52703 c -5.34565,-0.98195 -6.68179,-4.27102 -7.04223,-17.33524 -0.27425,-9.94063 0.0435,-12.9377 1.71812,-16.20521 1.88986,-3.68749 2.51879,-4.03609 7.84339,-4.34737 9.03492,-0.5282 10.15693,1.37657 10.62539,18.03813 0.35882,12.76182 0.24041,13.60843 -2.29082,16.37824 -2.76337,3.02381 -6.60386,4.25214 -10.85385,3.47145 z"
         id="path2049" />
      <path
         style="fill:#808080;stroke-width:4.66183"
         d="m 390.88835,171.52573 c -2.59524,-2.93747 -3.47931,-10.44511 -2.54738,-21.6328 0.61166,-7.34281 1.37219,-10.42488 2.96565,-12.01835 2.86144,-2.86143 10.19343,-2.83793 13.75664,0.0441 2.52136,2.03934 2.72949,3.10478 3.08022,15.76717 0.34563,12.47816 0.17624,13.83418 -2.08761,16.7122 -2.06946,2.63089 -3.33857,3.13215 -7.93016,3.13215 -3.76785,0 -6.01669,-0.62284 -7.23736,-2.00447 z"
         id="path2088" />
      <path
         style="fill:#808080;stroke-width:4.66183"
         d="m 418.64482,149.87012 -3.61596,-3.04263 0.37819,-13.47702 c 0.34847,-12.41817 0.59635,-13.70897 3.15503,-16.4294 3.52027,-3.74282 9.89791,-4.0017 14.24989,-0.57843 2.94077,2.31321 3.01761,2.7016 3.00237,15.17674 -0.019,15.50948 -0.50673,17.57611 -4.65472,19.72112 -4.75268,2.45771 -8.44601,2.05329 -12.5148,-1.37038 z"
         id="path2127" />
      <path
         style="fill:#808080;stroke-width:4.66183"
         d="m 471.39187,328.43518 c -4.26223,-3.45135 -5.62685,-22.9112 -2.24332,-31.99044 1.07258,-2.87812 7.17176,-4.98053 11.85278,-4.0857 5.59977,1.07047 6.95917,4.98423 6.82317,19.64409 -0.11852,12.77529 -0.20525,13.20137 -3.21376,15.78919 -3.73023,3.2086 -9.69224,3.49855 -13.21887,0.64286 z"
         id="path2166" />
      <path
         style="fill:#808080;stroke-width:4.66183"
         d="m 470.70405,373.91016 c -4.44624,-4.91303 -4.39781,-28.22254 0.0689,-33.15819 3.12962,-3.45818 12.49371,-3.22522 14.84901,0.36942 4.13372,6.30886 3.54747,28.80312 -0.85764,32.90711 -3.34621,3.11746 -11.19165,3.05143 -14.06025,-0.11834 z"
         id="path2205" />
      <path
         style="fill:#808080;stroke-width:4.66183"
         d="m 475.18002,422.43774 c -4.21455,-0.82438 -6.28484,-4.37803 -7.32937,-12.5808 -1.27243,-9.99253 -0.22731,-19.18087 2.58894,-22.76115 1.68672,-2.14432 3.29273,-2.80944 6.78372,-2.80944 6.43721,0 8.73087,1.6073 10.24372,7.17832 1.43646,5.28968 0.57419,23.79641 -1.2692,27.24082 -0.81963,1.5315 -7.85217,5.16981 -8.44481,4.36895 -0.0635,-0.0858 -1.22134,-0.37231 -2.573,-0.6367 z"
         id="path2244" />
      <path
         style="fill:#808080;stroke-width:4.66183"
         d="m 472.8511,464.30376 c -3.87615,-1.95879 -5.29102,-7.05222 -5.34743,-19.25039 -0.0633,-13.68441 1.33618,-16.6179 8.50561,-17.82917 6.20883,-1.04898 10.32465,1.80808 11.7178,8.13407 1.59236,7.23052 0.0295,24.65153 -2.43243,27.11342 -2.55579,2.55579 -9.1037,3.51984 -12.44355,1.83207 z"
         id="path2283" />
      <path
         style="fill:#808080;stroke-width:4.66183"
         d="m 444.07086,349.36309 -3.65923,-3.07903 v -13.69521 c 0,-13.01338 0.13998,-13.83519 2.81147,-16.50669 3.54371,-3.54371 9.45276,-3.73321 13.64256,-0.4375 2.97896,2.34324 3.01801,2.56323 3.01801,17.00368 0,16.39319 -0.65925,17.92852 -8.22555,19.15636 -3.15231,0.51155 -4.65067,0.0294 -7.58726,-2.44161 z"
         id="path2322" />
      <path
         style="fill:#808080;stroke-width:4.66183"
         d="m 443.56152,395.76642 c -3.13135,-2.46841 -3.14989,-2.56607 -3.14989,-16.59067 0,-16.39379 0.99971,-18.68286 8.60231,-19.69701 3.57003,-0.47623 5.25916,-0.0663 7.71984,1.87341 3.13135,2.46841 3.14989,2.56606 3.14989,16.59067 0,16.39379 -0.99971,18.68285 -8.60231,19.69701 -3.57002,0.47623 -5.25916,0.0663 -7.71984,-1.87341 z"
         id="path2361" />
      <path
         style="fill:#808080;stroke-width:4.66183"
         d="m 443.42964,441.47391 c -2.97115,-2.3371 -3.01801,-2.59497 -3.01801,-16.6085 0,-12.5712 0.26023,-14.49476 2.22694,-16.46148 3.5258,-3.52579 9.9727,-4.24553 13.62545,-1.52115 2.99392,2.233 3.05249,2.53262 3.36578,17.2193 l 0.31885,14.94676 -3.0505,2.39952 c -3.88687,3.05741 -9.60034,3.06825 -13.46851,0.0256 z"
         id="path2400" />
      <path
         style="fill:#808080;stroke-width:4.66183"
         d="m 447.28412,486.5885 c -0.94497,-0.35854 -2.87786,-1.70701 -4.29531,-2.99659 -2.40484,-2.18791 -2.57718,-3.28323 -2.57718,-16.37958 0,-13.79783 0.051,-14.07497 3.01801,-16.40884 3.6707,-2.88737 8.66815,-3.04303 13.12741,-0.40888 l 3.32662,1.96508 v 15.0844 c 0,14.65119 -0.0788,15.13603 -2.74423,16.88248 -3.32664,2.17969 -7.52963,3.14434 -9.85532,2.26193 z"
         id="path2439" />
      <path
         style="fill:#808080;stroke-width:4.66183"
         d="m 418.07606,372.66968 c -4.67781,-2.58858 -5.15436,-4.37127 -5.15436,-19.28146 v -14.4245 l 3.32662,-1.96508 c 4.98359,-2.94388 10.62129,-2.54324 13.94128,0.99073 2.60351,2.77131 2.77684,3.77066 2.77684,16.00976 0,12.41937 -0.1392,13.18908 -2.86353,15.83359 -3.41176,3.3118 -8.85044,4.59471 -12.02685,2.83696 z"
         id="path2478" />
      <path
         style="fill:#808080;stroke-width:4.66183"
         d="m 416.06518,417.08978 c -3.10403,-2.87672 -3.14348,-3.09262 -3.14348,-17.20251 0,-14.07261 0.0457,-14.32522 3.018,-16.6632 4.09594,-3.22186 9.80093,-3.06062 13.81298,0.3904 3.17676,2.73254 3.21376,2.91686 3.21376,16.00976 0,12.67556 -0.12584,13.37125 -2.9251,16.17051 -4.39076,4.39076 -10.06818,4.91683 -13.97616,1.29504 z"
         id="path2517" />
      <path
         style="fill:#808080;stroke-width:4.66183"
         d="m 415.73317,462.79927 c -2.68248,-2.68248 -2.81147,-3.46263 -2.81147,-17.00369 0,-16.13507 0.73205,-17.68515 8.86747,-18.77634 3.59561,-0.48227 5.08609,-0.0633 7.6646,2.15467 2.95498,2.54177 3.24513,3.54152 3.77544,13.00897 0.73073,13.04547 -0.83642,19.34096 -5.40234,21.70209 -4.81945,2.49223 -8.88032,2.12767 -12.0937,-1.0857 z"
         id="path2556" />
      <path
         style="fill:#808080;stroke-width:4.66183"
         d="m 394.02237,351.13194 c -1.25995,-0.51569 -3.25831,-2.0134 -4.44079,-3.32824 -1.91358,-2.12778 -2.09367,-3.86124 -1.63798,-15.76639 0.49248,-12.86613 0.63139,-13.47847 3.64561,-16.07119 3.04581,-2.6199 7.77158,-3.43197 11.54516,-1.98392 3.85686,1.48002 5.20597,6.70618 5.19785,20.13542 l -0.008,12.94278 -3.78565,2.57718 c -3.9502,2.68921 -6.65723,3.07388 -10.51637,1.49436 z"
         id="path2595" />
      <path
         style="fill:#808080;stroke-width:4.66183"
         d="m 391.09881,394.94151 -3.67204,-3.08982 0.5655,-13.73074 c 0.54214,-13.1635 0.69285,-13.84029 3.64803,-16.38222 4.22162,-3.63129 9.42355,-3.46685 13.48718,0.42635 3.17695,3.04371 3.21256,3.23313 3.21256,17.08779 v 14.00996 l -3.85779,2.38424 c -5.18099,3.20203 -8.97739,3.00189 -13.38344,-0.70556 z"
         id="path2634" />
      <path
         style="fill:#808080;stroke-width:4.66183"
         d="m 391.24672,440.88252 -3.52412,-2.96535 v -13.54133 -13.54133 l 3.52412,-2.96535 c 4.50386,-3.78975 9.06534,-3.78975 13.5692,0 l 3.52412,2.96535 v 14.23269 14.23269 l -3.72259,2.26971 c -5.03768,3.07153 -9.15534,2.85994 -13.37073,-0.68708 z"
         id="path2673" />
      <path
         style="fill:#808080;stroke-width:4.66183"
         d="m 392.30425,484.83635 -4.00895,-2.70316 -0.32429,-13.59966 c -0.32039,-13.43565 -0.28672,-13.63889 2.79147,-16.85183 3.87341,-4.04297 10.06169,-4.41623 14.55956,-0.87821 2.96703,2.33387 3.018,2.61101 3.018,16.40884 0,13.1607 -0.16395,14.1889 -2.63224,16.50775 -4.14151,3.89074 -8.72298,4.27229 -13.40355,1.11627 z"
         id="path2712" />
      <path
         style="fill:#808080;stroke-width:4.66183"
         d="m 366.49267,372.91241 c -4.72162,-1.96383 -5.45069,-4.26003 -6.01655,-18.94899 l -0.54693,-14.19733 3.87433,-2.36198 c 5.33518,-3.2526 10.72138,-3.07282 14.27051,0.47631 2.76155,2.76155 2.83722,3.26417 2.52512,16.77386 -0.30878,13.36601 -0.43709,14.01054 -3.18528,16.00078 -3.61481,2.61785 -7.91664,3.50701 -10.9212,2.25735 z"
         id="path2751" />
      <path
         style="fill:#808080;stroke-width:4.66183"
         d="m 364.24766,417.2264 c -3.12796,-2.69056 -3.21917,-3.10756 -3.76207,-17.20058 l -0.5564,-14.44317 3.87433,-2.36199 c 4.86156,-2.96385 8.57213,-2.98955 13.324,-0.0923 l 3.72259,2.26971 V 399.096 c 0,12.58977 -0.20849,13.93052 -2.57718,16.57301 -1.41745,1.58129 -4.43172,3.19901 -6.69838,3.59492 -3.33937,0.58329 -4.72936,0.19674 -7.32689,-2.03756 z"
         id="path2790" />
      <path
         style="fill:#808080;stroke-width:4.66183"
         d="m 364.15557,462.96408 c -3.31997,-2.85537 -3.3502,-2.99338 -3.3502,-15.29409 0,-6.827 0.38002,-13.76492 0.84449,-15.41761 1.83111,-6.5155 14.58113,-7.23781 17.72316,-1.00406 0.88845,1.76267 1.44981,7.57269 1.46021,15.11286 0.0153,11.07391 -0.23042,12.53395 -2.5603,15.21541 -3.85153,4.43272 -9.88695,5.0259 -14.11736,1.38749 z"
         id="path2829" />
      <path
         style="fill:#808080;stroke-width:4.66183"
         d="m 339.90157,395.75305 -3.7226,-2.26971 v -14.20762 c 0,-12.2821 0.29675,-14.57409 2.18963,-16.91169 2.85032,-3.52 11.23346,-3.8143 14.87132,-0.52208 2.21143,2.00132 2.41109,3.39345 2.41109,16.81172 0,14.44045 -0.039,14.66044 -3.01801,17.00369 -3.78928,2.98065 -7.94848,3.01191 -12.73143,0.0957 z"
         id="path2868" />
      <path
         style="fill:#808080;stroke-width:4.66183"
         d="m 339.32886,441.42522 c -3.13881,-2.34181 -3.14989,-2.39973 -3.14989,-16.47039 v -14.12032 l 3.52412,-2.96535 c 4.25724,-3.58223 8.86005,-3.79275 12.92991,-0.59139 2.98076,2.34466 3.01801,2.55565 3.01801,17.09807 0,14.54242 -0.0372,14.7534 -3.01801,17.09807 -3.81561,3.00136 -9.24268,2.9815 -13.30414,-0.0487 z"
         id="path2907" />
      <path
         style="fill:#808080;stroke-width:4.66183"
         d="m 339.19697,487.29047 c -2.96906,-2.33547 -3.018,-2.60315 -3.018,-16.50668 v -14.13272 l 3.52412,-2.96536 c 4.22204,-3.55261 7.24671,-3.7226 12.22532,-0.68708 l 3.7226,2.26971 v 14.70756 c 0,13.89264 -0.14689,14.84554 -2.65101,17.19804 -3.44324,3.23475 -9.77093,3.28817 -13.80303,0.11653 z"
         id="path2946" />
      <path
         style="fill:#808080;stroke-width:4.66183"
         d="m 316.57871,372.26303 c -4.80239,-2.61505 -6.02732,-7.24127 -5.25854,-19.86016 0.79953,-13.12376 1.17861,-14.35906 4.93096,-16.06875 4.32475,-1.97049 8.97303,-1.56577 12.32818,1.0734 2.96017,2.32846 3.01801,2.63679 3.01801,16.08786 0,13.03321 -0.13955,13.85344 -2.81147,16.52536 -1.54631,1.54631 -3.5659,2.81147 -4.48798,2.81147 -0.92208,0 -2.36296,0.23849 -3.20195,0.52996 -0.839,0.29148 -2.87174,-0.20314 -4.51721,-1.09914 z"
         id="path2985" />
      <path
         style="fill:#808080;stroke-width:4.66183"
         d="m 316.00573,418.19191 c -4.35451,-3.13672 -5.42368,-7.84065 -4.66374,-20.51864 0.65055,-10.85312 0.91701,-11.85755 3.81184,-14.36904 2.4971,-2.16642 3.99482,-2.58188 7.57601,-2.10154 8.11057,1.08786 8.86748,2.66907 8.86748,18.52461 0,13.16267 -0.15061,14.08198 -2.69929,16.47634 -3.52918,3.31549 -9.7236,4.27081 -12.8923,1.98827 z"
         id="path3024" />
      <path
         style="fill:#808080;stroke-width:4.66183"
         d="m 314.76633,462.83774 c -3.20501,-2.76546 -3.21353,-2.81113 -3.13106,-16.77881 0.0814,-13.79325 0.13021,-14.04668 3.21376,-16.69904 3.82142,-3.28704 8.09199,-3.42309 13.02569,-0.41495 l 3.7226,2.26971 v 13.66812 c 0,7.51747 -0.32018,14.5025 -0.71151,15.52229 -0.91325,2.37989 -6.36822,5.20568 -10.04917,5.20568 -1.5711,0 -4.30274,-1.24785 -6.07031,-2.773 z"
         id="path3063" />
      <path
         style="fill:#808080;stroke-width:4.66183"
         d="m 287.21253,392.67717 c -2.45486,-1.71242 -2.57718,-2.52587 -2.57718,-17.13796 v -15.34022 l 3.72259,-2.31844 c 4.42753,-2.75748 9.22003,-2.23721 13.1172,1.42398 2.46829,2.31884 2.63224,3.34705 2.63224,16.50775 0,13.79783 -0.051,14.07497 -3.018,16.40884 -3.59798,2.83017 -10.16407,3.04596 -13.87685,0.45605 z"
         id="path3102" />
      <path
         style="fill:#808080;stroke-width:4.66183"
         d="m 289.18973,439.41339 -3.98168,-2.13358 -0.31768,-15.46303 c -0.31349,-15.2588 -0.28103,-15.48706 2.45788,-17.28165 4.96965,-3.25625 7.94037,-3.37897 12.20615,-0.50426 l 3.98028,2.6823 v 14.72115 c 0,14.39662 -0.0631,14.76597 -2.86354,16.75483 -4.54323,3.22662 -7.21326,3.51132 -11.48141,1.22424 z"
         id="path3141" />
      <path
         style="fill:#808080;stroke-width:4.66183"
         d="m 288.35794,485.14406 -3.72259,-2.31844 v -15.34819 c 0,-15.04904 0.055,-15.38425 2.82323,-17.19805 3.9098,-2.56179 10.00568,-2.3274 13.6308,0.52411 2.96703,2.33387 3.018,2.61101 3.018,16.40884 0,13.1607 -0.16395,14.1889 -2.63224,16.50775 -3.89717,3.66119 -8.68967,4.18146 -13.1172,1.42398 z"
         id="path3180" />
      <path
         style="fill:#808080;stroke-width:4.66183"
         d="m 258.93638,458.61593 c -3.17667,-3.77525 -3.20118,-3.92701 -2.70929,-16.77763 0.43827,-11.44996 0.79064,-13.26219 3.01028,-15.48184 3.37665,-3.37664 10.86957,-3.27314 14.3408,0.1981 2.26071,2.2607 2.46657,3.65547 2.46657,16.71152 0,16.39627 -0.60095,17.66027 -8.83777,18.58868 -4.64616,0.52369 -5.32997,0.25591 -8.27059,-3.23883 z"
         id="path3219" />
      <path
         style="fill:#808080;stroke-width:4.66183"
         d="m 259.78647,413.59358 c -3.18878,-2.74287 -3.21376,-2.87105 -3.21376,-16.48825 0,-16.62652 1.01745,-18.54605 9.8304,-18.54605 4.54119,0 5.86822,0.51082 7.84038,3.01801 2.05329,2.61033 2.37396,4.61442 2.37396,14.83648 0,13.44547 -1.15985,17.03498 -6.05587,18.74174 -5.14184,1.79246 -7.22676,1.49024 -10.77511,-1.56193 z"
         id="path3258" />
      <path
         style="fill:#808080;stroke-width:4.66183"
         d="m 231.26477,438.00055 c -1.89813,-2.09741 -2.182,-4.25397 -2.182,-16.57668 0,-12.91229 0.21517,-14.38077 2.4319,-16.5975 3.24551,-3.24551 9.7582,-3.39316 13.88591,-0.31482 3.10717,2.31726 3.15905,2.56248 3.47723,16.4362 0.30229,13.18066 0.16094,14.25637 -2.20414,16.77387 -3.44127,3.66306 -12.20277,3.82166 -15.4089,0.27893 z"
         id="path3297" />
      <path
         style="fill:#808080;stroke-width:4.66183"
         d="m 236.36068,486.54986 c -6.23678,-0.92777 -7.27791,-3.70938 -7.27791,-19.44472 0,-13.64403 0.12359,-14.39753 2.70408,-16.48655 3.63239,-2.94057 10.46134,-2.85241 14.32266,0.1849 2.96703,2.33387 3.01801,2.61101 3.01801,16.40884 0,13.09216 -0.17311,14.19332 -2.57718,16.39372 -2.98271,2.73001 -5.92081,3.57883 -10.18966,2.94381 z"
         id="path3336" />
      <path
         style="fill:#808080;stroke-width:4.66183"
         d="m 209.39926,461.02109 c -1.37626,-0.55451 -3.05143,-2.03426 -3.72259,-3.28834 -1.50581,-2.81362 -1.61827,-25.28855 -0.14592,-29.16112 2.24337,-5.90049 14.05465,-6.37416 16.94901,-0.6797 0.87974,1.73083 1.42127,7.84263 1.43177,16.15916 0.0165,13.09445 -0.0465,13.42536 -3.00112,15.74944 -3.15969,2.48542 -7.28594,2.92293 -11.51115,1.22056 z"
         id="path3375" />
      <path
         style="fill:#808080;stroke-width:4.66183"
         d="m 179.40671,484.0868 c -4.532,-4.532 -4.41658,-27.10878 0.16839,-32.93763 2.09854,-2.66787 2.93418,-2.91874 8.07622,-2.42466 8.2134,0.78921 8.78716,2.01828 8.78716,18.82327 0,12.57153 -0.24815,14.3469 -2.29083,16.38958 -3.07999,3.07999 -11.72277,3.16761 -14.74094,0.14944 z"
         id="path3414" />
      <path
         style="fill:#ffffff;stroke-width:4.66183"
         d="M 79.68346,459.77994 C 65.550928,457.32018 48.710097,446.0833 36.854272,431.2026 24.015712,415.08842 19.322044,399.47586 22.751149,384.29131 25.371252,372.68914 30.862965,361.84875 37.293667,355.58505 46.046807,347.05922 217.0112,203.0827 221.32947,200.60053 c 0.9938,-0.57125 2.03297,-0.54876 2.44898,0.053 0.39747,0.57492 9.75406,11.5879 20.79242,24.4733 17.81095,20.79123 44.39612,52.65139 56.46908,67.6736 l 4.26071,5.30154 -7.75548,6.81261 c -9.18803,8.071 -68.8471,58.19719 -132.04785,110.94801 -45.29648,37.80694 -47.98465,39.71745 -60.11925,42.72728 -7.344351,1.82166 -18.971695,2.3602 -25.69462,1.19008 z m 55.33501,-44.83842 c 0.88602,-1.40464 -0.71835,-4.15284 -7.30038,-12.50513 -16.31483,-20.70275 -28.966825,-35.33124 -30.557529,-35.33124 -0.883965,0 -3.733265,1.98315 -6.331776,4.40702 -4.327726,4.03686 -4.588575,4.59885 -3.105534,6.69079 0.890466,1.25607 9.592984,12.1318 19.338929,24.1683 l 17.7199,21.88453 4.55039,-3.75699 c 2.50272,-2.06634 5.06141,-4.56711 5.686,-5.55728 z m 35.56931,-28.36556 c 10.99447,-8.82037 20.30992,-16.55475 20.701,-17.18754 0.73868,-1.19519 -7.01659,-11.44659 -8.65943,-11.44659 -0.51349,0 -7.10585,4.89665 -14.64968,10.88144 -7.54383,5.98478 -14.21478,10.88143 -14.82432,10.88143 -1.49577,0 -26.48953,-29.51317 -44.53824,-52.59173 -0.64274,-0.82186 -11.242321,8.66559 -11.549118,10.33736 -0.160703,0.8757 4.693158,7.77741 10.786368,15.33714 26.8724,33.34012 40.65661,49.82551 41.66146,49.82551 0.59511,0 10.07749,-7.21666 21.07196,-16.03702 z M 89.177569,366.47997 c 2.925491,-2.23378 5.319075,-4.23351 5.319075,-4.44384 0,-0.21033 -2.250508,-3.28063 -5.001129,-6.82289 l -5.001129,-6.44047 -5.880302,4.68197 c -3.234167,2.57508 -5.880303,5.06896 -5.880303,5.54197 0,1.64935 8.335214,11.54468 9.724531,11.54468 0.7701,0 3.793765,-1.82764 6.719257,-4.06142 z M 220.78111,344.56303 c 10.95458,-4.28699 19.12672,-12.07483 24.02691,-22.89703 1.88994,-4.17396 2.51405,-7.78096 2.54264,-14.69508 0.0339,-8.19829 -0.39507,-10.06802 -4.07328,-17.75392 -5.69471,-11.89955 -12.96148,-19.59982 -23.33441,-24.7264 -8.04736,-3.97722 -8.79857,-4.12869 -18.52319,-3.73486 -12.55568,0.50848 -18.88361,3.30528 -27.98965,12.37077 -8.79714,8.75797 -11.75342,16.59626 -11.10347,29.43975 0.60319,11.91953 4.88008,21.12437 14.09284,30.33102 13.609,13.59997 29.04594,17.65942 44.36161,11.66575 z"
         id="path3574" />
      <path
         style="fill:#ffffff;stroke-width:4.66183"
         d="m 199.06248,329.3583 c -5.99048,-2.71954 -14.22388,-10.82872 -17.67702,-17.41031 -1.99126,-3.7953 -2.62193,-6.92273 -2.65609,-13.17129 -0.0408,-7.46444 0.26713,-8.57995 3.45774,-12.52544 5.93691,-7.34154 8.91832,-8.94376 17.55017,-9.4315 5.66233,-0.31995 8.79485,0.0696 11.40206,1.41781 9.08113,4.69603 17.48246,15.47502 19.75196,25.34194 4.17926,18.16987 -14.77463,33.521 -31.82882,25.77879 z"
         id="path3650" />
      <path
         style="fill:#ffffff;stroke-width:4.66183"
         d="m 353.93289,286.1656 c -1.88994,-0.22954 -8.23704,-1.48563 -14.10467,-2.79131 -12.97733,-2.88776 -12.81298,-2.75513 -36.77169,-29.67428 -40.89166,-45.94438 -55.05144,-62.65382 -56.95565,-67.21124 -2.65564,-6.35584 -3.25246,-29.08995 -1.09192,-41.59392 9.46979,-54.805867 48.46805,-94.283762 102.43499,-103.694808 10.09125,-1.759768 31.74751,-2.306506 32.64663,-0.824203 0.28659,0.472483 -15.48616,14.231195 -35.05055,30.574913 -56.27782,47.013418 -61.48549,51.523468 -61.22402,53.022428 0.18368,1.05302 68.65178,83.76217 102.88316,124.28239 1.78664,2.11488 3.62647,3.25544 4.58165,2.84028 0.87788,-0.38155 23.50218,-18.97452 50.27623,-41.31771 26.77405,-22.3432 48.88177,-40.42561 49.12828,-40.18315 0.73,0.71803 -2.13525,17.6066 -4.47526,26.37836 -6.7472,25.29256 -25.2183,51.60281 -47.28009,67.34578 -23.89505,17.05114 -57.76187,26.15425 -84.99709,22.84647 z"
         id="path3689" />
    </g>
  </g>
</svg>
