<?xml version="1.0" encoding="UTF-8" standalone="no"?>
<!-- Created with Inkscape (http://www.inkscape.org/) -->

<svg
   version="1.1"
   id="svg870"
   width="512"
   height="512"
   viewBox="0 0 511.99999 512"
   sodipodi:docname="interactsh.svg"
   inkscape:version="1.2.2 (b0a8486541, 2022-12-01)"
   inkscape:export-filename="../GIT Icons/interactsh.png"
   inkscape:export-xdpi="96"
   inkscape:export-ydpi="96"
   xmlns:inkscape="http://www.inkscape.org/namespaces/inkscape"
   xmlns:sodipodi="http://sodipodi.sourceforge.net/DTD/sodipodi-0.dtd"
   xmlns="http://www.w3.org/2000/svg"
   xmlns:svg="http://www.w3.org/2000/svg">
  <defs
     id="defs874" />
  <sodipodi:namedview
     id="namedview872"
     pagecolor="#505050"
     bordercolor="#eeeeee"
     borderopacity="1"
     inkscape:pageshadow="0"
     inkscape:pageopacity="0"
     inkscape:pagecheckerboard="0"
     showgrid="false"
     inkscape:zoom="0.611187"
     inkscape:cx="264.23991"
     inkscape:cy="306.78009"
     inkscape:window-width="1366"
     inkscape:window-height="695"
     inkscape:window-x="0"
     inkscape:window-y="24"
     inkscape:window-maximized="1"
     inkscape:current-layer="g876"
     inkscape:showpageshadow="0"
     inkscape:deskcolor="#505050" />
  <g
     inkscape:groupmode="layer"
     inkscape:label="Image"
     id="g876">
    <g
       id="g405"
       transform="matrix(0.90400978,0,0,0.89724993,24.563292,26.309682)">
      <path
         id="path978-3"
         style="fill:#ffffff;stroke-width:2.265"
         d="m 254.8457,-16.755859 c -11.65009,0.431703 -22.82707,5.479144 -31.59852,13.0254608 -5.48773,5.0271807 -10.99183,10.121186 -15.53167,16.0454302 -4.07261,6.064811 -5.47295,13.599388 -4.97528,20.806452 0,26.65612 0,53.31224 0,79.968356 -3.68757,1.47258 -7.3213,3.07692 -10.91406,4.76758 C 161.07594,87.132494 130.46086,56.270943 99.280814,25.981077 87.600843,14.733764 75.921535,3.4613201 63.54898,-7.0286661 57.702743,-11.701099 50.679507,-15.074241 43.195792,-15.937479 28.872589,-17.98652 13.923384,-13.291681 2.8983585,-4.0303537 -8.4565058,5.3820864 -15.982016,19.543567 -16.600118,34.358178 c -0.466907,8.929734 1.488834,18.208962 6.6459134,25.625166 4.0648105,5.797895 9.28648261,10.630882 14.0424887,15.838767 22.0946519,23.146863 44.5931439,45.905199 67.0439329,68.706379 19.343376,19.60618 38.733453,39.16138 58.141223,58.70393 -23.11075,-0.44713 -46.227224,-0.3339 -69.341018,-0.38296 -14.912369,-0.007 -29.824739,-0.005 -44.73711,-0.004 -7.2553606,9.3653 -17.0567537,16.49729 -23.6847873,26.38225 -7.7248027,11.39447 -10.4677777,26.23367 -6.5877107,39.51836 2.87251,10.08529 9.134474,18.90908 16.6787485,26.06424 4.8411325,4.84051 9.6823735,9.6809 14.5234375,14.52148 32.195964,0 64.391927,0 96.58789,0 1.39568,3.66935 2.9468,7.27851 4.62695,10.82617 -31.514918,31.69527 -63.158901,63.26483 -94.340272,95.28927 -10.549205,10.99071 -21.1581678,21.96793 -30.6981,33.8626 -4.676471,6.10295 -8.377974,13.26208 -9.062039,21.02262 -0.958665,9.46444 1.302258,19.00856 5.142366,27.62579 5.1872993,11.29092 14.3278911,20.86284 25.723346,25.95573 9.674491,4.57195 20.979471,6.1132 31.371313,3.22077 9.436895,-2.4945 17.77205,-7.96639 25.171928,-14.18512 10.083379,-8.33472 19.400982,-17.53543 28.809186,-26.6104 16.643372,-16.25109 33.071742,-32.7196 49.587492,-49.10069 14.26753,-14.19027 28.53506,-28.38054 42.8026,-42.5708 3.5668,1.68951 7.20177,3.23509 10.89257,4.63281 0,32.47852 0,64.95703 0,97.43555 9.32767,7.27425 16.49795,17.00611 26.34375,23.6582 11.29738,7.6659 25.97334,10.44288 39.18161,6.71844 10.06837,-2.74748 18.90995,-8.90799 26.07425,-16.37469 4.96973,-4.97624 9.94708,-9.94486 14.92969,-14.9082 -0.0314,-37.60163 0.13727,-75.20524 -0.36133,-112.80469 33.18582,33.09221 66.32986,66.23046 100.08837,98.73815 12.27011,11.67586 24.56716,23.38628 37.9675,33.77589 7.26451,5.46925 15.3034,10.30096 24.28202,12.25159 9.83787,2.10356 20.54798,0.61882 29.12914,-4.75245 5.17107,-3.09681 9.40266,-7.47062 13.39116,-11.93032 4.71802,-4.83005 9.15147,-10.13936 11.75851,-16.43633 4.54049,-10.22025 4.55833,-22.24276 0.40794,-32.59236 -3.53461,-9.19794 -9.69977,-17.0503 -16.03067,-24.4802 -7.0661,-8.17549 -14.66099,-15.86801 -22.16684,-23.63449 -23.45107,-23.98818 -47.30933,-47.57413 -70.95152,-71.37349 -7.45528,-7.46861 -14.91056,-14.93722 -22.36584,-22.40583 1.61266,-3.55572 3.08137,-7.17593 4.42969,-10.83985 32.61523,-0.005 65.23046,-0.009 97.8457,-0.0137 1.24303,-1.48103 2.5472,-3.02895 3.7835,-4.37404 6.39409,-7.07915 13.88671,-13.19648 19.36953,-21.07236 4.89031,-6.94725 8.04801,-15.14292 8.78685,-23.62372 0.80583,-8.39264 -0.77931,-16.97899 -4.48687,-24.54824 -3.41111,-7.11576 -8.44467,-13.33926 -14.13905,-18.7569 -4.45901,-4.37985 -8.80489,-8.88356 -13.30029,-13.22044 -1.5734,-1.22857 -3.64923,-0.83152 -5.49375,-0.89063 -30.78463,0 -61.56927,0 -92.3539,0 -1.34827,-3.67428 -2.82877,-7.3008 -4.44141,-10.86718 32.795,-32.90124 65.71004,-65.67678 98.25252,-98.826664 9.63224,-10.032792 19.35917,-20.099013 27.26331,-31.59155 5.14957,-7.798516 8.83398,-16.849718 9.0509,-26.288626 0.33279,-10.937759 -3.89469,-21.862655 -11.27996,-29.9048148 -4.13346,-4.74060757 -8.70063,-9.1029913 -13.5542,-13.0987873 -8.78243,-6.7129669 -20.18971,-10.2064709 -31.21676,-8.6778449 -9.6298,1.20151 -18.55229,5.712343 -26.22435,11.505395 -9.9637,7.3295583 -18.78746,16.037198 -27.76594,24.505597 -20.6643,19.890503 -40.86271,40.253269 -61.26937,60.406354 -12.67458,12.57625 -25.34915,25.152501 -38.02373,37.728751 -3.41395,-1.63096 -6.87139,-3.17165 -10.38086,-4.58594 0,-32.569661 0,-65.139322 0,-97.708984 -9.23067,-7.1962982 -16.32767,-16.8248145 -26.08336,-23.3892134 -8.31338,-5.6023776 -18.25903,-9.0004546 -28.34047,-8.8080516 z" />
      <path
         id="path978"
         style="fill:#000000;stroke-width:2.265"
         d="m 256.00485,17.211521 c -3.625,0 -8.64733,2.62967 -12.64006,6.619561 l -6.62428,6.619562 v 54.310805 54.324621 l -8.86464,1.49251 c -4.87933,0.82378 -16.51516,5.34128 -25.86096,10.03299 l -16.99632,8.52666 -69.86608,-69.899245 C 76.725956,50.794179 42.970036,18.75245 40.141906,18.026874 27.858626,14.875527 14.613596,28.097558 17.765956,40.373078 18.491696,43.199187 120.33207,146.63685 244.07008,270.23355 c 246.29188,246.01056 230.51215,231.94334 244.3515,218.11386 13.07061,-13.06128 13.72213,-12.15372 -64.68007,-90.67002 l -71.29049,-71.40559 6.56896,-11.22148 c 3.61828,-6.17429 8.41689,-17.63401 10.66246,-25.46941 l 4.0935,-14.24795 h 54.00377 54.01759 l 6.62428,-6.61956 c 8.5942,-8.58807 8.5942,-16.66024 0,-25.24831 l -6.62428,-6.61956 h -54.01759 -54.00377 l -4.0935,-14.24795 c -2.24557,-7.83541 -7.04418,-19.29513 -10.66246,-25.46942 l -6.56896,-11.23529 71.29049,-71.40558 C 502.14371,35.970958 501.49219,36.892362 488.42158,23.831082 475.36876,10.787549 476.26389,10.164586 397.70077,88.161058 l -71.45645,70.935712 -16.69208,-8.52665 c -9.17853,-4.68557 -20.64642,-9.18803 -25.48756,-10.00536 l -8.79549,-1.47869 V 84.761449 30.450644 l -6.62428,-6.619562 c -3.99274,-3.989891 -9.01507,-6.619561 -12.64006,-6.619561 z m 0,158.427239 c 10.4416,-4.8e-4 20.87737,1.58252 29.35979,4.75393 16.59319,6.20389 35.46725,23.5875 43.6179,40.17342 5.58201,11.35894 6.32003,15.41846 6.32003,34.38302 0,15.43368 -1.16929,24.5518 -4.14882,32.26864 -2.28391,5.9152 -4.84276,10.75161 -5.68388,10.75161 -1.992,0 -111.3819,-109.36625 -111.3819,-111.35789 0,-0.83516 5.64244,-3.63859 12.54325,-6.2188 8.4846,-3.17218 18.93203,-4.75344 29.37363,-4.75393 z m -225.792444,61.20677 -6.62428,6.61956 c -8.59419,8.58807 -8.59419,16.66024 0,25.24831 l 6.62428,6.61956 h 54.18355 54.197374 l 2.66907,11.88481 c 1.47066,6.53786 6.13206,17.99757 10.34439,25.46942 l 7.64765,13.58461 -71.138384,71.40559 c -49.47924,49.6566 -71.15221,72.89973 -71.15221,76.31152 0,7.41629 4.47024,15.70327 9.88802,18.32471 12.49217,6.04454 12.95466,5.68236 87.457054,-68.4482 l 71.45646,-71.10156 13.59428,7.65603 c 7.47717,4.20928 18.94506,8.8536 25.48757,10.3232 l 11.89328,2.66717 v 54.15879 54.1588 l 6.62428,6.61956 c 8.59417,8.58809 16.68594,8.58809 25.28012,0 l 6.62428,-6.61956 v -63.43171 c 0,-36.53249 -0.95738,-65.92419 -2.25419,-69.33265 -2.61406,-6.87056 -14.27678,-12.49287 -25.91628,-12.49287 -22.04468,0 -52.34049,-20.95873 -63.62902,-44.01525 -3.2433,-6.62438 -6.86633,-18.86753 -8.04871,-27.21068 -2.5754,-18.17268 -5.07667,-23.38552 -12.59857,-26.24331 -3.12084,-1.1857 -34.23878,-2.15585 -69.146944,-2.15585 z" />
    </g>
  </g>
</svg>
