<?xml version="1.0" encoding="UTF-8" standalone="no"?>
<!-- Created with Inkscape (http://www.inkscape.org/) -->

<svg
   version="1.1"
   id="svg834"
   width="512"
   height="512"
   viewBox="0 0 512 512"
   sodipodi:docname="iot.svg"
   inkscape:version="1.2.2 (b0a8486541, 2022-12-01)"
   inkscape:export-filename="../GIT Icons/iot.png"
   inkscape:export-xdpi="96"
   inkscape:export-ydpi="96"
   xmlns:inkscape="http://www.inkscape.org/namespaces/inkscape"
   xmlns:sodipodi="http://sodipodi.sourceforge.net/DTD/sodipodi-0.dtd"
   xmlns="http://www.w3.org/2000/svg"
   xmlns:svg="http://www.w3.org/2000/svg"
   xmlns:rdf="http://www.w3.org/1999/02/22-rdf-syntax-ns#"
   xmlns:cc="http://creativecommons.org/ns#"
   xmlns:dc="http://purl.org/dc/elements/1.1/">
  <sodipodi:namedview
     id="namedview296"
     pagecolor="#505050"
     bordercolor="#ffffff"
     borderopacity="1"
     inkscape:showpageshadow="0"
     inkscape:pageopacity="0"
     inkscape:pagecheckerboard="1"
     inkscape:deskcolor="#505050"
     showgrid="false"
     inkscape:zoom="0.68086649"
     inkscape:cx="255.55671"
     inkscape:cy="295.94642"
     inkscape:window-width="1366"
     inkscape:window-height="691"
     inkscape:window-x="0"
     inkscape:window-y="24"
     inkscape:window-maximized="1"
     inkscape:current-layer="svg834" />
  <metadata
     id="metadata840">
    <rdf:RDF>
      <cc:Work
         rdf:about="">
        <dc:format>image/svg+xml</dc:format>
        <dc:type
           rdf:resource="http://purl.org/dc/dcmitype/StillImage" />
      </cc:Work>
    </rdf:RDF>
  </metadata>
  <defs
     id="defs838" />
  <g
     id="g2203"
     transform="matrix(1.1467442,0,0,1.1400035,-41.741548,-40.047868)"
     style="fill:#ff0000;fill-opacity:1">
    <path
       id="path1355"
       style="fill:#ff0000;fill-opacity:1;stroke-width:2.09606"
       d="m 168.75781,117.66211 c -1.96366,0.19621 -3.598,1.47817 -5.17203,2.56356 -2.28634,1.68812 -4.35918,3.71073 -6.8143,5.14347 -1.24082,0.35891 -2.5017,0.89744 -3.46218,1.77069 -1.08151,1.21061 -0.49077,2.9633 0.15615,4.24153 2.14602,4.13714 4.89987,7.91897 7.51307,11.76708 10.57575,15.11408 21.64735,29.87374 32.33577,44.90863 3.99249,5.64108 8.05135,11.23983 11.84001,17.02105 -2.60642,4.31187 -6.19945,7.91523 -8.88785,12.17285 -5.62897,8.44847 -9.12611,18.23869 -10.43649,28.28959 -0.86441,5.97328 -0.79801,12.02 -0.77723,18.03952 0,1.33008 0,2.66015 0,3.99023 -11.14002,3.51209 -22.32482,6.88822 -33.39137,10.62714 -1.75435,0.64771 -3.49681,1.32784 -5.2473,1.98614 1.56327,4.4746 2.93003,9.02088 4.65399,13.43728 0.83714,1.91069 1.56251,3.95527 2.96636,5.53496 0.93507,1.08862 2.47064,0.77863 3.69753,0.49737 8.97424,-2.11268 17.6668,-5.22733 26.48681,-7.88172 2.51058,-0.75685 5.1175,-1.55374 7.69727,-2.21093 3.31924,3.27521 5.75394,7.29269 8.60516,10.95311 6.97895,8.77771 16.05785,15.81146 26.09695,20.7616 5.45442,2.69664 11.27186,4.63661 17.24794,5.77724 0.71392,0.15307 1.42783,0.30615 2.14174,0.45922 0.026,18.45812 -0.0649,36.91676 0.0786,55.37448 0.0943,4.23057 0.0289,8.48489 0.58953,12.68683 0.18204,1.43387 0.87486,3.15556 2.48181,3.39874 1.03302,0.15788 1.99591,-0.42197 3.03345,-0.41216 5.52803,-0.55922 11.09386,-0.27299 16.6397,-0.34477 0.62405,-0.009 0.15416,-1.1125 0.3,-1.6 0.0251,-18.69354 -0.0617,-37.38757 0.0726,-56.08076 0.0474,-3.43373 0.0755,-6.73127 0.31231,-10.16223 0.088,-1.09242 0.15421,-2.20339 0.4764,-3.25662 3.78239,-1.1031 7.67323,-1.90083 11.43369,-3.23374 9.35462,-3.38234 17.83085,-8.94753 25.1213,-15.671 4.17677,-3.86218 7.87308,-8.23096 11.01358,-12.97276 1.44237,-1.98494 2.90626,-3.99042 4.7244,-5.65179 5.98711,1.61027 11.82459,3.48612 17.74294,5.31571 15.17587,4.74008 30.24754,9.81281 45.51303,14.26039 1.3362,0.35737 2.8107,0.9873 4.13653,0.24506 2.65542,-1.39194 4.76526,-3.59431 6.90321,-5.65297 2.49989,-2.56865 5.00817,-5.1888 6.9328,-8.22874 0.73592,-1.12106 1.23885,-2.80911 0.17188,-3.88867 -0.78032,-0.80254 -2.0022,-0.87546 -2.99925,-1.29647 -21.73965,-7.07029 -43.51662,-14.03379 -65.31407,-20.92059 -2.14438,-0.68824 -4.30801,-1.31176 -6.47965,-1.90794 -0.0559,-7.36204 0.27265,-14.76063 -0.7212,-22.07928 -1.27702,-10.21461 -4.71108,-20.23643 -10.55768,-28.75215 -1.99576,-3.03919 -4.43291,-5.74242 -6.75148,-8.53055 -0.74447,-0.94483 -1.48346,-1.89864 -2.11027,-2.92708 3.67602,-6.03648 8.04694,-11.60885 12.20851,-17.31116 2.00093,-2.70739 4.00196,-5.41471 6.00243,-8.12244 -7.24759,-0.18557 -14.49271,-0.51196 -21.74256,-0.58225 -2.47523,0.0587 -5.30089,0.008 -7.22228,1.83225 -1.27129,1.35 -2.22417,2.96311 -3.44336,4.36133 -1.61208,1.99161 -3.32587,3.89668 -5.03711,5.80273 -5.03778,-1.72438 -9.99768,-3.6921 -15.11947,-5.1595 -6.31741,-1.80045 -12.95236,-1.48216 -19.44838,-1.48061 -5.93079,0.0587 -11.98404,0.14481 -17.66824,2.04584 -4.28002,1.37963 -8.42901,3.25732 -12.88501,4.02396 -3.93087,-4.66699 -7.5977,-9.68387 -11.33402,-14.59125 -14.10373,-18.80869 -27.75041,-37.95518 -41.78434,-56.81458 -0.56662,-0.89291 -1.38245,-1.67185 -2.52031,-1.56487 z m 88.53711,104.60547 c 2.14785,-0.004 4.13916,0.0491 6.30043,0.18806 5.98374,0.38043 12.00391,1.31203 17.57147,3.62507 3.90542,1.55313 7.80891,3.56116 11.30779,5.67906 2.35429,1.42998 4.64404,2.96844 6.83203,4.64257 0.47654,0.37684 1.21882,0.94999 1.77996,1.42213 2.47643,2.14068 5.05673,4.38038 6.51106,7.37475 0.64835,1.60061 -0.003,3.41972 -0.86916,4.80897 -0.71796,1.19703 -2.04446,2.21623 -3.51257,1.87469 -2.7327,-0.56697 -4.99144,-2.36308 -7.17048,-4.00643 -4.93338,-4.12119 -10.20767,-7.93411 -16.12943,-10.50926 -8.00676,-3.56029 -16.90372,-4.59972 -25.59506,-4.28247 -7.7871,0.26716 -15.54208,2.27012 -22.34434,6.10524 -5.05244,2.7575 -9.54485,6.40312 -13.81646,10.23192 -2.14436,1.71396 -4.50647,3.51379 -7.3304,3.7793 -2.04825,0.13719 -4.01864,-1.39403 -4.62859,-3.30665 -0.41496,-2.07101 0.85651,-3.99169 2.0112,-5.59511 2.78571,-3.57119 6.32677,-6.47033 9.9392,-9.1662 2.96063,-2.17034 6.08798,-4.10847 9.32499,-5.8383 0.34366,-0.16913 1.06814,-0.54853 1.55759,-0.79816 4.81058,-2.38558 9.87258,-4.39877 15.20913,-5.20201 1.27077,-0.21342 2.39921,-0.35865 3.63172,-0.50178 0.84108,-0.0945 1.96367,-0.20355 2.91642,-0.27147 2.16364,-0.1649 4.33384,-0.23926 6.5035,-0.25392 z m 1.05078,25.39648 c 3.07898,0.0245 6.15809,0.33982 9.16992,0.98438 0.33839,0.0822 1.06769,0.23694 1.55049,0.36958 5.28092,1.29076 10.04603,4.12961 14.29449,7.45203 2.57128,2.125 5.1417,4.48905 6.52612,7.58659 0.64382,1.61406 0.33075,3.52698 -0.52069,5.00483 -1.20422,1.95042 -3.82486,2.15717 -5.84725,1.62276 -3.01491,-0.69574 -5.47977,-2.66511 -7.83266,-4.56715 -4.68236,-3.54663 -10.12795,-6.53238 -16.09823,-6.91981 -3.6639,-0.21849 -7.19215,1.1115 -10.53087,2.46361 -3.55696,1.57166 -7.11977,3.37516 -9.94569,6.09693 -2.20782,2.44511 -5.01194,4.34016 -8.05664,5.57031 -1.29052,-0.52715 -2.60715,-1.11857 -3.70313,-2 -2.27783,-1.91742 -2.95645,-5.60933 -1.10156,-8.04296 2.37956,-3.21909 5.60156,-5.69216 8.82134,-8.0172 4.48574,-3.10374 9.37764,-5.87232 14.81153,-6.84063 2.78345,-0.55084 5.62736,-0.7751 8.46283,-0.76327 z m -0.76758,28.80469 c 3.79011,0.0658 7.3758,2.46229 9.11597,5.78813 1.12203,2.43476 0.91111,5.22794 0.5481,7.81148 -0.31135,2.06829 -1.53314,3.95549 -3.34062,5.02377 -2.84448,1.82653 -6.49668,2.99705 -9.79849,1.73789 -2.39611,-0.90501 -4.39147,-2.67151 -5.97528,-4.647 -1.24369,-1.73454 -1.09859,-4.00546 -0.9735,-6.03068 0.13718,-1.54634 0.74746,-3.35173 1.4353,-4.5023 1.77669,-3.18514 5.32855,-5.27797 8.98852,-5.18129 z" />
    <path
       id="path1916"
       style="fill:#ff0000;fill-opacity:1;stroke-width:2.09606"
       d="m 97.466797,256.51758 c -2.18701,-0.0605 -4.359798,0.99624 -5.560547,2.84375 -1.322849,1.80113 -1.883495,4.01155 -3.011215,5.91555 -1.367453,1.94817 -3.920054,2.19684 -6.009098,2.90122 -2.811412,0.85857 -5.548692,1.94892 -8.17802,3.26066 -1.269653,0.65157 -2.501778,-0.39629 -3.576393,-0.96871 -2.317379,-1.36793 -4.820704,-2.63496 -7.532208,-2.91391 -1.828552,-0.0582 -3.283624,1.2872 -4.633686,2.34975 -3.306984,2.86807 -6.352284,6.0775 -8.860161,9.67223 -0.864556,1.29702 -1.770677,2.95727 -1.026289,4.51628 1.345275,3.26203 3.473425,6.11389 5.340742,9.08529 -1.101371,4.06581 -1.969611,8.2009 -3.292925,12.2028 -0.566911,1.80788 -1.628567,3.49323 -3.261948,4.51092 -2.186423,1.46312 -4.567886,2.94126 -5.888948,5.29628 -0.766567,1.53965 -0.06087,3.27868 0.283032,4.83837 1.231582,4.26788 2.777594,8.46466 4.793601,12.42702 0.635742,1.24653 1.5371,2.5562 3.023438,2.79883 2.546008,0.57333 5.148113,0.0972 7.696076,-0.17957 2.126392,-0.11928 3.73788,1.52335 5.297789,2.72772 2.421531,2.11718 4.971359,4.12726 7.083636,6.5655 1.213944,1.28297 1.388958,3.10298 1.358463,4.78319 0.08534,2.27706 0.166936,4.64104 1.056223,6.76917 0.813253,1.50949 2.628735,1.97275 4.09961,2.60156 4.524552,1.60915 9.261099,2.48859 13.932743,3.54942 0.922485,0.28376 1.990704,0.28635 2.728637,-0.42133 1.681224,-1.60526 2.681775,-3.77073 3.746823,-5.80387 0.973174,-1.97286 2.018905,-4.22632 4.219038,-5.06646 2.45848,-1.0075 5.06884,-1.58558 7.53996,-2.56557 1.59525,-0.54474 3.11257,-1.28702 4.65,-1.96061 1.26728,-0.24591 2.37473,0.69663 3.43325,1.24936 2.10391,1.234 4.30362,2.50305 6.74564,2.8882 1.78211,0.11706 3.18582,-1.23492 4.50586,-2.24414 3.43354,-2.96082 6.63282,-6.23055 9.32813,-9.88281 0.88198,-1.23346 1.78712,-2.80803 1.125,-4.3457 -1.03876,-2.79806 -3.05162,-5.05725 -4.70117,-7.49609 -0.91722,-1.40203 -0.21311,-3.1069 0.072,-4.5927 0.96488,-3.77764 1.9764,-7.58491 2.51978,-11.43465 2.08549,-2.77225 5.82139,-3.53624 7.98047,-6.2207 1.57629,-1.92529 1.37902,-4.60349 0.74587,-6.85507 -1.26268,-4.47052 -3.07786,-8.75917 -4.63095,-13.13267 -0.22344,-0.60426 -0.4464,-1.2087 -0.66961,-1.81304 -3.24406,0.1572 -6.48242,0.515 -9.73104,0.52601 -2.53917,0.0335 -4.46855,-1.84707 -6.30508,-3.34619 -2.28975,-2.04771 -4.76595,-3.93717 -6.6963,-6.34584 -1.46364,-1.87827 -0.87705,-4.37344 -1.13815,-6.56583 -0.13737,-2.44367 -1.21389,-4.93784 -3.35013,-6.27011 -2.78664,-1.76998 -6.11626,-2.32208 -9.28429,-3.03991 -1.96804,-0.38851 -3.952804,-0.81308 -5.967663,-0.8136 z m -3.642578,36.51758 c 2.404413,0.0862 5.022151,-0.22869 7.184001,1.04583 2.13019,1.41718 3.92533,3.27437 5.74373,5.05963 1.29665,1.25888 2.19007,2.91835 2.35223,4.73319 0.21241,1.48284 0.28493,2.81986 0.37043,4.29611 0.0177,0.38168 0.0343,1.13634 0.0199,1.67105 -0.004,3.59858 -1.04982,7.34231 -3.62914,9.95821 -2.88127,2.97796 -6.840599,5.04489 -11.036766,5.12353 -5.777636,0.19511 -11.489493,-2.68641 -15.017667,-7.21568 -1.274283,-2.02144 -1.175637,-4.52642 -1.292569,-6.82655 0.01828,-2.82994 -0.18126,-5.68886 0.265229,-8.49451 0.433361,-2.10342 2.326229,-3.40628 3.745022,-4.85037 1.718437,-1.51358 3.312345,-3.37823 5.561205,-4.09029 1.866346,-0.47614 3.825143,-0.3759 5.734375,-0.41015 z" />
    <path
       id="path1955"
       style="fill:#ff0000;fill-opacity:1;stroke-width:2.09606"
       d="m 259.23828,405.05273 c -6.44687,0.19561 -13.14438,0.64847 -18.98452,3.6519 -5.04686,2.58602 -9.10256,6.71035 -12.66418,11.04858 -4.74617,5.96154 -7.67711,13.43562 -7.77607,21.0895 -0.0987,6.37139 1.493,12.76782 4.52178,18.37063 5.3259,9.61838 14.89182,16.70695 25.54557,19.30228 4.41275,0.81563 8.95255,0.45301 13.36623,-0.17067 3.89703,-0.58518 7.77144,-1.6338 11.19753,-3.631 8.08111,-4.52048 14.36699,-12.06315 17.63683,-20.70094 1.84056,-4.81574 2.52272,-10.05527 1.96064,-15.18111 -0.85631,-9.42526 -5.38658,-18.47547 -12.51905,-24.71371 -4.20343,-3.736 -9.25601,-6.46157 -14.58807,-8.2038 -2.48877,-0.76426 -5.10824,-0.91999 -7.69669,-0.86166 z" />
    <path
       id="path1994"
       style="fill:#ff0000;fill-opacity:1;stroke-width:2.09606"
       d="m 381.89258,214.99414 c -2.54508,0.004 -5.38947,0.80376 -6.7875,3.10205 -1.18848,1.94185 -1.40196,4.36815 -1.05532,6.58063 0.55454,3.04105 3.1031,5.26227 5.82578,6.43884 1.74732,0.84068 3.66745,1.18793 5.50233,1.7603 0.41404,0.31841 0.27718,1.02431 0.3842,1.49724 0.15772,3.0779 0.0551,6.16308 0.0856,9.24399 -3.5563,-0.0476 -7.12091,0.10956 -10.67139,-0.12067 -0.41533,-0.0745 -1.06445,-0.008 -1.04036,-0.61842 -0.46772,-2.21346 -0.9746,-4.47117 -2.20737,-6.40696 -1.64502,-2.8028 -4.71343,-5.09383 -8.09474,-4.77684 -2.85621,0.21108 -5.1376,2.35888 -6.41974,4.79203 -1.32198,2.15665 -1.05142,4.79355 -0.54506,7.15295 0.78601,3.51959 1.55751,7.0589 2.74233,10.4701 0.90836,2.64314 2.64635,5.16407 5.31087,6.25374 3.35433,1.41204 7.07434,1.40118 10.65195,1.5298 5.68307,0.0902 11.36728,0.0433 17.05085,0.068 8.25897,6.35595 16.61807,12.49365 24.66471,19.09852 0.46228,0.44902 1.14319,0.82115 1.44614,1.34861 -0.50378,2.6603 -1.32888,5.28409 -2.54114,7.70924 -2.15826,3.8891 -5.29392,7.10659 -8.2509,10.38743 -9.04157,9.64212 -18.47906,18.90177 -27.79563,28.27572 -8.26098,8.26589 -16.52196,16.53178 -24.78295,24.79766 -5.48241,0.0758 -10.98989,-0.23356 -16.44921,0.4004 -1.81688,0.30594 -3.97852,0.46364 -5.19336,2.0371 -1.3448,2.04361 -1.46274,4.59779 -1.60149,6.96755 -0.0246,2.74732 0.0288,5.62396 1.17085,8.17207 0.44564,1.03112 1.38923,1.81197 2.53419,1.88141 4.49921,0.55279 9.04587,0.56991 13.57027,0.75241 20.74985,0.52872 41.50882,0.61132 62.26443,0.53655 10.22858,-0.0902 20.46373,-0.0984 30.68262,-0.59186 1.61401,-0.15066 3.30467,-0.0691 4.8303,-0.68687 1.9163,-1.26703 2.13883,-3.77748 2.24805,-5.8711 0.0832,-4.23868 -0.33241,-8.46814 -0.49503,-12.70136 -0.14509,-0.48801 -1.13436,-0.1291 -1.60894,-0.28654 -6.74334,-0.32825 -13.48668,-0.65653 -20.23002,-0.98476 6.01136,-5.90648 11.8746,-11.96668 18.05249,-17.70095 3.4755,-3.18546 7.17952,-6.34247 11.70493,-7.90325 7.19042,-2.75662 13.27826,-8.10779 17.3004,-14.6377 1.76449,-2.68586 2.68175,-5.82176 3.10186,-8.98421 0.68775,-5.28139 0.54975,-10.73587 -0.8628,-15.89107 -1.02668,-3.4431 -2.9995,-6.53097 -5.21089,-9.33031 -4.88441,-6.08109 -12.15041,-10.13967 -19.87208,-11.19068 -5.59832,-0.82784 -11.32907,-0.11085 -16.71377,1.54175 -1.02283,0.28605 -2.04567,0.5721 -3.0685,0.85814 -9.0317,-6.81906 -18.06295,-13.63873 -27.09375,-20.45898 -0.26571,-6.42095 -0.32759,-12.85288 -0.79055,-19.26396 -0.31505,-3.31404 -0.66784,-6.9014 -2.83117,-9.59126 -2.20614,-2.6847 -5.77117,-3.48131 -8.98765,-4.26197 -3.26113,-0.71436 -6.56749,-1.43481 -9.92383,-1.39453 z m 64.4668,73.26172 c 3.1738,-0.0369 6.67072,0.85687 8.64295,3.53189 1.54732,2.13871 2.26765,4.87246 2.0667,7.49719 -0.31396,3.14868 -2.40974,5.85074 -4.87942,7.68756 -2.05526,1.36539 -4.66112,1.24561 -7.01969,1.10172 -2.71312,-0.22085 -5.49221,-1.50947 -6.83468,-3.98068 -1.44903,-2.55969 -1.71299,-5.587 -1.76159,-8.47195 -0.003,-1.98052 1.70196,-3.28641 2.94267,-4.59865 1.39191,-1.43716 3.17706,-2.63728 5.23969,-2.70285 0.53306,-0.0514 1.06816,-0.0623 1.60337,-0.0642 z m -26.11329,26.56445 c 2.26595,3.20633 5.17752,5.86286 7.88701,8.67704 0.53599,0.57003 1.05507,1.15616 1.54268,1.76827 -6.06491,6.82205 -12.62106,13.18472 -19.062,19.64696 -2.89535,2.88851 -5.7907,5.77703 -8.68605,8.66554 -7.01329,-0.0592 -14.03665,0.1734 -21.04101,-0.27148 8.96113,-9.53693 18.27605,-18.73343 27.5676,-27.94635 3.54072,-3.42402 6.98242,-6.9735 10.82015,-10.07041 0.27871,-0.093 0.76459,-0.8121 0.97162,-0.46957 z" />
    <path
       id="path2033"
       style="fill:#ff0000;fill-opacity:1;stroke-width:2.09606"
       d="m 310.54297,40.414062 c -2.51721,0.145342 -5.14633,0.210957 -7.47891,1.269627 -1.12179,0.476995 -1.77406,1.612568 -1.84826,2.799996 -0.7965,6.103963 -1.15226,12.255732 -1.61252,18.391911 -0.88526,13.167746 -1.69448,26.345587 -2.07633,39.539104 -0.12015,2.4314 0.0787,4.89394 -0.33201,7.30106 -0.19231,1.0735 -1.47098,1.27555 -2.28958,1.71366 -2.51881,0.93015 -4.77124,2.71835 -5.89058,5.20187 -1.68581,3.6923 -1.88988,7.8305 -2.12387,11.82238 -0.34182,8.83542 -0.0108,17.67915 0.15987,26.51508 0.16279,3.49957 0.0871,7.05655 0.89453,10.48633 0.43195,1.90872 1.75304,3.43562 3.25552,4.61597 1.22733,1.05509 2.45461,2.11024 3.68198,3.16528 33.3735,-0.33146 66.74801,-0.57072 100.12059,-0.98707 7.80618,-0.15442 15.62396,-0.17003 23.41302,-0.75369 2.53193,-0.2795 5.40475,-0.41382 7.31405,-2.33151 1.91439,-1.67568 2.37346,-4.31059 2.57108,-6.7174 0.46131,-6.18309 0.34126,-12.39173 0.38632,-18.58767 0.0116,-10.56367 0.003,-21.12735 0.005,-31.69102 -5.83999,-5.81042 -11.54965,-11.7538 -17.50889,-17.442976 -2.96498,-2.707905 -5.86625,-5.532459 -9.20791,-7.779682 -2.02969,-1.259449 -4.6349,-0.874165 -6.75481,-0.04648 -3.97885,1.645796 -7.20985,4.620485 -10.28334,7.556986 -2.26786,2.248339 -4.46711,4.582191 -6.96185,6.585202 -2.58902,-2.001162 -5.03464,-4.245458 -7.38179,-6.418436 -3.1114,-2.841277 -6.18367,-5.862918 -9.93461,-7.868676 -1.69745,-0.896658 -3.77823,-1.258464 -5.57422,-0.421875 -3.1275,1.41077 -5.66341,3.803782 -8.23125,6.023353 -6.6024,5.925917 -12.71377,12.405334 -19.72526,17.870564 -0.3533,0.13959 -0.25913,-0.89904 -0.39769,-1.24986 -0.85263,-6.35215 -1.12168,-12.764824 -1.54042,-19.155923 -0.88838,-14.595905 -1.44647,-29.234434 -2.63507,-43.827764 -0.19235,-1.357262 -0.0177,-3.041179 -1.26133,-3.955292 -1.76673,-1.257569 -4.05007,-1.321154 -6.13281,-1.544921 -1.53783,-0.09755 -3.07881,-0.12276 -4.61914,-0.07813 z m 97.84375,86.494138 c 1.28053,0.0992 2.51062,0.50405 3.75586,0.79297 0,9.55534 0,19.11068 0,28.66602 -2.12345,-0.0645 -4.33804,0.22709 -6.375,-0.51953 -0.35675,-5.53022 -0.19376,-11.07987 -0.0701,-16.61606 0.126,-3.24539 0.16516,-6.68648 0.77905,-9.96207 0.23361,-0.79355 0.32092,-1.8548 1.10742,-2.29883 0.25852,-0.0826 0.53505,-0.0724 0.80274,-0.0625 z m -60.31445,0.52344 c 0.85759,0.13725 1.93955,0.22591 2.48242,0.99219 0.59431,1.90044 0.42463,3.94051 0.49183,5.90859 -0.0515,7.19972 -0.27891,14.39694 -0.41761,21.59531 -1.88081,0.14017 -3.77685,0.41674 -5.66016,0.16016 -0.58311,-5.9238 -0.52048,-11.88882 -0.53906,-17.83516 0,-3.44557 0,-6.89114 0,-10.33671 1.19112,-0.32061 2.39591,-0.65106 3.64258,-0.48438 z m 20.99804,-0.0215 c 0.84631,0.038 1.65041,0.32812 2.47071,0.51172 -0.19934,9.33527 -0.39793,18.67055 -0.59571,28.00585 -1.88079,0.14057 -3.77681,0.41653 -5.66015,0.16016 -0.56477,-5.5871 -0.52834,-11.21541 -0.52853,-16.82538 0.004,-2.20515 0.021,-4.40599 0.1047,-6.53985 0.0359,-0.63525 0.0762,-1.59059 0.16702,-2.34304 0.16887,-0.89635 0.0836,-2.20708 1.14548,-2.56126 0.91071,-0.37051 1.92261,-0.44275 2.89648,-0.4082 z m 19.375,0.68554 c 1.1263,0 2.25261,0 3.37891,0 0,9.42383 0,18.84766 0,28.27149 -1.98832,-0.0873 -4.08781,0.26233 -5.98242,-0.49024 -0.4199,-0.28091 -0.19093,-0.97293 -0.33493,-1.40934 -0.13968,-1.70224 -0.2229,-3.34039 -0.28065,-4.98574 -0.2551,-7.1258 -0.12576,-14.25751 -0.15786,-21.38617 1.12565,0 2.2513,0 3.37695,0 z" />
    <path
       id="path2072"
       style="fill:#ff0000;fill-opacity:1;stroke-width:2.09606"
       d="m 140.58984,70.646484 c -11.27967,0.24083 -21.85125,8.426089 -24.97302,19.256298 -1.83995,6.129011 -0.94859,12.918858 2.10174,18.509718 3.02002,5.50919 7.88352,10.05967 13.69078,12.50138 4.46529,1.77749 9.45862,2.06785 14.16222,1.20132 4.46492,-0.86653 8.75045,-2.75956 12.36399,-5.52536 3.70699,-2.96744 5.80264,-7.37702 7.59885,-11.6603 2.25783,-5.721559 2.12109,-12.320946 -0.3937,-17.936308 -2.5061,-5.666158 -7.02813,-10.359621 -12.41415,-13.370369 -3.69181,-2.035467 -7.92127,-3.076784 -12.13671,-2.976379 z" />
  </g>
</svg>
