<?xml version="1.0" encoding="UTF-8" standalone="no"?>
<!-- Created with Inkscape (http://www.inkscape.org/) -->

<svg
   version="1.1"
   id="svg896"
   width="512"
   height="512"
   viewBox="0 0 512 512"
   sodipodi:docname="isaf.svg"
   inkscape:version="1.2.2 (b0a8486541, 2022-12-01)"
   inkscape:export-filename="../GIT Icons/isaf.png"
   inkscape:export-xdpi="96"
   inkscape:export-ydpi="96"
   xmlns:inkscape="http://www.inkscape.org/namespaces/inkscape"
   xmlns:sodipodi="http://sodipodi.sourceforge.net/DTD/sodipodi-0.dtd"
   xmlns="http://www.w3.org/2000/svg"
   xmlns:svg="http://www.w3.org/2000/svg">
  <sodipodi:namedview
     id="namedview14446"
     pagecolor="#505050"
     bordercolor="#eeeeee"
     borderopacity="1"
     inkscape:pageshadow="0"
     inkscape:pageopacity="0"
     inkscape:pagecheckerboard="0"
     showgrid="false"
     inkscape:zoom="0.92187499"
     inkscape:cx="244.61017"
     inkscape:cy="304.27119"
     inkscape:window-width="1366"
     inkscape:window-height="695"
     inkscape:window-x="0"
     inkscape:window-y="24"
     inkscape:window-maximized="1"
     inkscape:current-layer="svg896"
     inkscape:showpageshadow="0"
     inkscape:deskcolor="#505050" />
  <defs
     id="defs900" />
  <path
     id="path1534-3"
     style="fill:#ffffff;stroke-width:1.3133"
     d="m 228.828,8.3261388 c -6.41383,0.1163064 -12.87831,1.1364011 -18.79101,3.6679692 -7.99227,3.371732 -15.70371,7.678393 -22.00391,13.654297 -3.75211,3.562057 -6.91951,7.681534 -9.79492,11.951171 -3.486,5.180745 -5.63488,11.104337 -7.13672,17.109375 -1.2065,4.58991 -2.03504,9.296129 -2.0625,14.048828 -0.11297,5.948776 0.85651,11.885682 2.60742,17.570313 2.18905,7.576503 5.95087,14.693848 10.97852,20.814458 5.84255,7.22016 13.45431,12.96199 21.80859,17.08398 0.42123,0.26348 1.31461,0.48915 1.45313,0.77539 -3.93922,2.74481 -6.70347,6.94082 -7.95508,11.50977 -0.93577,3.20536 -1.24731,6.53807 -1.75391,9.82422 -1.76588,0.52474 -3.52297,1.07811 -5.28515,1.61523 -5.04685,-4.19328 -9.94989,-8.84893 -16.17188,-11.30664 -5.98736,-2.23366 -12.94128,-1.58108 -18.46093,1.58789 -4.24629,2.21052 -8.24066,4.86317 -12.16407,7.58399 -3.73097,2.71009 -7.23541,5.83475 -9.79882,9.67382 0.0645,-4.13397 0.0127,-8.28378 -0.44727,-12.39648 -0.74519,-5.98479 -2.74853,-11.77528 -5.64844,-17.07227 -3.12149,-5.8406 -7.05349,-11.26555 -11.61914,-16.09179 -5.86541,-5.92944 -12.9648,-10.610933 -20.585935,-14.05274 -6.254005,-2.707447 -13.080853,-4.06436 -19.90625,-4.056641 -5.305633,-0.121956 -10.622231,-0.08415 -15.919922,0.22461 -6.703717,0.568424 -13.305266,2.523792 -19.109375,5.904297 -11.960223,6.526424 -22.079812,16.482434 -28.275391,28.537114 -2.9984659,5.91147 -4.4321963,12.46724 -4.9824211,19.02148 -0.4010266,5.18277 -0.5435697,10.40778 -0.0625,15.58985 0.5822959,6.15708 2.2338385,12.23855 5.1367181,17.73437 3.841457,7.77125 9.276064,14.80143 16.044922,20.31445 5.748238,4.80092 12.433628,8.43778 19.501953,10.96875 0.647342,0.0189 0.584297,0.54608 0.578125,1.0293 0.347235,9.55689 0.12906,19.26819 0.787109,28.86914 0.326606,4.74555 1.114139,9.53846 3.189454,13.87305 2.32756,5.06463 6.364659,9.37566 11.423828,11.86914 4.615655,2.34877 9.820756,3.30626 14.970703,3.55859 0.562256,6.56355 1.496795,13.09958 2.792969,19.56055 1.038898,4.26342 3.501309,8.30195 7.298828,10.69336 3.104996,2.0921 6.83957,2.90761 10.480468,3.55664 2.237607,0.42534 4.490417,0.76789 6.732417,1.16992 0.6,1.68569 1.19654,3.37163 1.75782,5.07031 -3.77474,2.63672 -7.51388,5.71877 -9.494143,9.94532 -2.17481,4.7549 -1.988531,10.35064 -0.0039,15.13476 1.433963,4.39176 2.885663,8.78254 4.597663,13.07813 -6.583666,-2.73237 -13.486657,-4.87112 -20.621101,-5.56446 -7.442937,-0.77755 -14.991573,0.10558 -22.21289,1.94922 -5.889293,1.53797 -11.621087,3.74942 -16.84961,6.85352 -5.541476,3.26792 -10.797267,7.14643 -14.984374,12.03125 -4.708311,5.40972 -8.400548,11.61769 -11.449219,18.0625 -2.434593,5.44588 -3.902166,11.35291 -3.9375,17.32031 -0.05111,1.53852 -0.107586,3.28209 -0.111328,4.90234 -0.0035,4.64962 0.121752,9.3319 0.957031,13.91797 1.692536,8.5009 5.980144,16.29273 11.21289,23.16797 3.58221,4.65905 7.851454,8.80504 12.685547,12.19532 4.537802,3.23158 9.364737,6.11582 14.529297,8.26367 5.017914,2.01102 10.419582,3.07481 15.833985,3.15625 4.295969,0.17217 8.729137,0.15715 13.078125,0.0898 6.493298,0.042 13.071828,-0.83862 19.099607,-3.30664 8.34596,-3.53495 16.17121,-8.44983 22.48438,-14.93359 3.62512,-3.74606 6.77665,-7.93768 9.41016,-12.41602 1.67724,-2.86082 3.05123,-5.88754 4.1914,-8.99219 11.80567,-0.27797 23.63335,0.20511 35.42383,-0.58008 5.47773,-0.34213 11.04459,-1.8625 15.39844,-5.27539 4.75112,-3.64037 7.49754,-9.41266 7.98828,-15.26367 0.13604,-1.42493 0.11367,-2.8572 0.0547,-4.28515 2.134,-2.15286 4.06041,-4.49516 5.98828,-6.82618 0.87854,0.17034 1.75482,0.34647 2.63281,0.51954 2.58323,5.97712 4.65458,12.35219 8.92188,17.42773 1.84991,2.12965 4.07979,3.94668 6.58007,5.28711 -2.56558,5.2811 -4.16158,10.96828 -5.37304,16.68359 -1.46269,7.28633 -1.57164,14.88672 0.16992,22.13672 1.87134,8.30996 5.26046,16.37578 10.50781,23.17578 5.96673,7.89913 13.4889,14.78442 22.38672,19.34961 4.90687,2.56539 10.19098,4.38393 15.57617,5.68555 7.02446,1.62626 14.34205,1.76818 21.48828,0.94531 6.80093,-0.85397 13.49262,-2.67801 19.73438,-5.48242 5.78484,-2.66049 11.12713,-6.22104 15.9414,-10.34375 6.05977,-5.20661 10.87072,-11.70748 14.61329,-18.69336 3.22021,-6.05841 5.37551,-12.69706 5.97461,-19.52734 0.37036,-4.01038 0.30397,-8.0494 0.13281,-12.06836 -0.26858,-5.10783 -1.24502,-10.19747 -3.16797,-14.95899 -2.76948,-7.14688 -6.95212,-13.71255 -11.90039,-19.58203 -2.15917,-2.49963 -4.53772,-4.81328 -7.08789,-6.92383 2.89628,-1.667 5.56231,-3.78724 7.59375,-6.43554 5.98356,-0.26279 12.07182,-0.23869 18.11328,-0.28907 21.09636,-0.16506 42.19886,0.18907 63.28906,-0.45703 8.54233,-0.3474 17.23807,-1.11955 25.26953,-4.20703 7.21412,-2.8775 13.49106,-8.3597 16.60742,-15.46484 3.1521,-6.83231 3.76033,-14.44871 3.92774,-21.85742 0.30082,-9.29467 0.20161,-18.59586 0.49805,-27.89063 0.0156,-0.45419 0.0386,-1.0687 0.0605,-1.58594 9.81372,-3.64314 18.70358,-9.65763 25.66407,-17.39453 3.86762,-4.31044 7.25555,-9.0597 9.95117,-14.16797 2.96247,-5.83027 4.26122,-12.32807 4.76367,-18.78906 0.34723,-4.47132 0.50786,-8.96444 0.35937,-13.44726 -0.42586,-7.57415 -2.73531,-14.99301 -6.46484,-21.61329 -5.65668,-10.27484 -14.06552,-19.11634 -24.28516,-25.07617 4.54093,-1.57102 8.73523,-3.96545 12.65821,-6.68945 6.8457,-4.58858 12.95878,-10.33561 17.48047,-17.20313 4.34492,-6.38878 7.84739,-13.47168 9.33789,-21.06445 1.21791,-6.75501 0.94503,-13.65226 0.66211,-20.47266 -0.48489,-6.77496 -2.63211,-13.38009 -5.96289,-19.30859 -4.85152,-9.11824 -11.67717,-17.33018 -20.31446,-23.189455 -5.04864,-3.54808 -10.66755,-6.322732 -16.63867,-7.99414 -5.05543,-1.482743 -10.23381,-2.582354 -15.46484,-3.246094 -6.43844,-0.729261 -13.02277,-0.201664 -19.23633,1.626953 -8.88717,2.405301 -17.50185,6.103952 -24.94531,11.511726 -9.69861,7.21713 -16.86027,17.46274 -21.02735,28.66406 -11.72767,0.43397 -23.62158,0.14348 -35.39648,0.85156 -6.39216,0.34548 -12.95494,1.52881 -18.44727,4.94531 -4.40588,2.66037 -7.80413,6.77664 -9.83008,11.44141 -3.2005,-2.47134 -6.749,-4.46793 -10.32812,-6.35156 -3.72529,-1.88489 -7.5211,-3.65375 -11.42188,-5.1543 -6.31774,-2.18263 -13.61816,-2.00708 -19.54882,1.21289 -4.44118,2.20666 -8.06886,5.6223 -11.94141,8.63281 -1.93364,-0.35947 -3.87829,-0.66163 -5.80859,-1.03906 -1.23123,-4.55955 -1.83945,-9.37892 -1.94532,-14.02344 -0.0305,-1.19663 -0.0535,-2.39476 -0.0547,-3.59179 8.04914,-3.09552 15.63631,-7.50492 21.91796,-13.39063 6.42253,-5.95068 11.31684,-13.410667 14.64454,-21.433595 2.42515,-5.932903 3.78018,-12.279366 4.0039,-18.671876 0.60138,-11.286858 -1.53463,-22.887425 -7.22457,-32.783163 C 281.65062,26.57094 268.5537,16.121988 253.64441,10.992155 248.55759,9.2605604 243.18326,8.4617353 237.81238,8.3671544 234.81821,8.2965194 231.82272,8.2958714 228.828,8.3261388 Z M 436.82215,121.91794 c 1.2731,0.24938 0.82263,2.48634 -0.42579,2.26562 -0.71972,-0.21408 -1.33415,-1.05862 -1.03515,-1.78711 0.37018,-0.3849 0.92563,-0.6065 1.46094,-0.47851 z m 8.35546,0.0527 0.008,0.004 c 0.83085,0.41816 -0.40018,0.3882 -0.008,-0.004 z m -3.48437,6.16992 c 1.26141,0.1837 0.69855,2.38507 -0.49609,2.04297 -1.42612,-0.1557 -0.77989,-2.34186 0.49609,-2.04297 z M 79.783084,142.40817 c 0.480631,0.18806 0.815878,1.04468 0.107422,1.17774 -0.419963,0.24233 -1.12345,-0.17585 -0.734375,-0.63282 0.210627,-0.17337 0.409117,-0.4039 0.626953,-0.54492 z m 51.865236,29.18164 c 0.0596,0.21949 0.12009,0.43872 0.17968,0.65821 0.81744,3.45122 1.97407,6.80996 3.10547,10.16992 -2.56713,-0.44495 -5.13125,-0.91927 -7.71484,-1.26563 1.73907,-3.05989 3.26157,-6.24689 4.42969,-9.5625 z m 232.9082,1.58789 c 5.95155,0.0446 11.90467,-0.0143 17.85547,0.10743 4.54085,10.07152 11.55026,19.19624 20.70117,25.60546 1.80949,1.23749 3.70855,2.34285 5.64258,3.37891 -5.59633,2.17864 -10.79051,5.27051 -15.66992,8.71875 -6.94971,5.05608 -12.834,11.54429 -17.16406,18.91406 -1.29749,2.20968 -2.44078,4.50663 -3.42774,6.86719 -3.49265,-1.38178 -7.22859,-1.96983 -10.90234,-2.67969 -0.35036,-1.08162 -0.68445,-2.16944 -1.00586,-3.25976 4.32325,-4.34495 8.79861,-8.84315 11.18164,-14.56446 1.93591,-5.22465 1.12764,-11.14889 -1.41797,-16.03124 -2.77133,-6.32734 -5.89653,-12.56325 -10.03125,-18.14258 -0.67254,-0.84521 -1.39697,-1.64948 -2.16406,-2.41211 -0.0193,-2.14109 -0.0494,-4.28262 -0.0449,-6.42383 2.14857,-0.0577 4.29807,-0.0571 6.44726,-0.0781 z m -79.45703,55.74219 c 0.005,0.005 -0.0474,0.0961 -0.13086,0.28906 -0.6547,0.65522 -0.75721,0.58779 -0.0859,-0.0625 0.1476,-0.15156 0.21139,-0.23184 0.2168,-0.22656 z m 161.29297,15.90625 c 0.62676,0.27677 1.46821,0.57277 1.3789,1.40625 0.0479,0.74577 -0.92748,-0.004 -1.36718,0.004 -0.51075,-0.0544 -1.11643,-0.30508 -0.87891,-0.92188 0.10996,-0.35073 0.52384,-0.50983 0.86719,-0.48828 z m -29.72852,0.0801 c 0.98745,0.0314 0.80123,1.50115 -0.0156,1.6875 -0.48042,0.0337 -1.13956,-0.43449 -1.4375,-0.73633 -0.0464,-0.65791 0.90205,-1.02735 1.45312,-0.95117 z m 15.05664,0.082 c 0.85343,0.10384 1.01731,1.45412 0.28907,1.76563 -0.76001,0.0391 -1.64626,-0.75769 -1.12696,-1.49805 0.1905,-0.24544 0.54096,-0.32224 0.83789,-0.26758 z m -54.58203,46.5 c 0.24597,0.39458 0.49231,0.78902 0.73828,1.1836 4.64559,7.1733 10.9173,13.26587 18.02735,18.05859 4.28915,2.82652 8.96096,5.06512 13.79882,6.81641 0.20649,7.37044 0.30018,14.74401 0.26954,22.11718 -0.006,1.18518 -0.0551,2.62659 -0.084,3.6543 0.1966,0.77896 -0.3365,0.90798 -1.0039,0.91797 -1.11661,0.15606 -2.28829,0.28297 -3.30665,0.36523 -3.18668,0.26192 -6.38637,0.38909 -9.52343,0.45313 -9.30913,0.23739 -18.62219,0.20106 -27.9336,0.21289 2.39155,-4.36015 4.22401,-8.99068 6.07422,-13.5918 1.5937,-4.12637 2.9404,-8.52182 2.57031,-12.98633 -0.51527,-5.24148 -3.50371,-9.94223 -7.29882,-13.51953 -2.1475,-2.08873 -4.45983,-4.00658 -6.85157,-5.8164 0.18346,-0.72536 0.3609,-1.45212 0.53516,-2.17969 4.79035,-1.54276 9.74215,-2.91465 13.98828,-5.68555 z m -234.61523,72.85353 c 0.23897,0.18197 -0.0319,0.84653 0,1.22461 -0.0195,0.21513 -0.039,0.4294 -0.0586,0.64453 -0.34798,4.36748 -0.69146,8.7499 -0.625,13.13281 0.0193,0.55476 0.0851,1.10564 0.13477,1.6582 -1.8897,0.0303 -3.78001,0.0384 -5.66992,0.0469 -2.46485,-5.82347 -5.8492,-11.25746 -9.92578,-16.11719 5.23284,-0.007 10.52738,-0.28547 15.70507,-0.58398 0.22312,-0.0752 0.3598,-0.0665 0.43946,-0.006 z m -57.791017,14.14648 c 0.159402,-0.004 0.324141,0.0292 0.484375,0.0391 1.176908,0.20953 1.441234,1.81952 0.542969,2.50391 -0.733019,0.69916 -1.878142,-0.16701 -1.994141,-0.99805 -0.170597,-0.66204 0.120044,-1.60638 0.966797,-1.54492 z m -0.07422,20.70508 c 0.69201,0.42487 0.846132,1.53173 0.259766,2.09961 -0.453859,-0.34053 -1.230838,-0.57016 -1.00586,-1.28516 0.08066,-0.35581 0.323971,-0.80934 0.746094,-0.81445 z" />
  <path
     id="path537"
     style="fill:#ffff00;stroke-width:1.37492"
     d="m 77.701053,374.14841 c -2.071244,0.085 -4.199009,-0.11519 -6.220703,0.42578 -1.643965,0.52665 -2.828103,2.12561 -2.801661,3.85998 -0.0085,1.77383 0.02199,3.64817 0.774317,5.28846 0.62515,1.32558 2.178962,2.01212 3.591128,1.67851 1.80889,-0.18302 3.5803,-0.60961 5.371763,-0.90508 -1.321147,1.45282 -2.802444,2.85851 -3.633784,4.66234 -0.594745,1.73372 -0.643233,3.58546 -0.866216,5.38845 -2.806593,0.54328 -5.690368,0.23205 -8.529408,0.21737 -5.094874,-0.0691 -10.206426,0.0598 -15.271353,0.64234 -3.326151,0.46835 -6.792484,1.70021 -8.989996,4.36066 -1.46594,1.8596 -1.606465,4.33935 -1.956551,6.59191 -0.420748,3.88406 -0.657754,7.85261 0.144762,11.70562 -0.0763,0.83449 0.394999,1.02392 1.145514,0.88444 3.632162,0 7.264323,0 10.896485,0 0.04655,-3.30963 -0.104882,-6.6269 0.1042,-9.93126 0.03559,-0.53027 0.161729,-1.21406 0.826444,-1.24086 2.442622,-0.48251 4.958917,-0.34662 7.436865,-0.43397 4.656242,-0.0207 9.337965,-0.005 13.958663,0.62757 1.393137,0.23707 2.441202,1.31171 3.533851,2.12717 2.182453,1.77008 4.490457,3.65884 7.309112,4.2436 2.157075,0.3121 4.227075,-0.76875 5.995321,-1.88497 1.846255,-1.27227 3.389538,-3.03503 4.379725,-5.04691 0.137934,-0.72721 1.121267,-0.64169 1.692147,-0.55217 0.751756,0.004 0.789834,0.90659 1.326172,1.27735 1.350819,1.27825 3.45278,1.38781 5.16797,0.92968 1.82918,-0.53905 2.62913,-2.51678 2.74288,-4.26878 0.20574,-2.60588 0.22489,-5.24279 -0.0476,-7.8445 -0.16466,-1.68053 -1.10352,-3.45772 -2.85199,-3.89496 -1.70796,-0.36736 -3.80257,-0.34399 -5.046716,1.07402 -0.567824,0.60673 -1.197734,1.50083 -2.158762,1.22895 -0.448079,-0.21841 -0.272757,-1.03459 -0.41869,-1.49846 -0.253789,-2.72958 -0.342534,-5.69813 -2.102802,-7.96164 -0.307599,-0.43267 -0.656338,-0.83431 -1.014789,-1.22525 1.874751,0.22268 3.710722,0.88736 5.611328,0.79101 1.65772,-0.27901 2.768061,-1.918 2.737621,-3.54723 -0.007,-1.63267 0.24793,-3.35751 -0.34895,-4.91566 -0.930573,-2.02212 -3.338766,-2.75779 -5.414304,-2.72214 -5.688499,-0.17532 -11.381467,-0.14371 -17.072023,-0.13137 z m 7.517578,5.27539 c 0.759276,0.0739 0.15731,0.79628 -0.240924,0.95349 -0.301844,-0.014 -0.881447,-0.59936 -0.378217,-0.84216 0.1848,-0.11392 0.406764,-0.14649 0.619141,-0.11133 z m -0.08789,19.92578 c 0.545119,0.0807 0.653177,0.95136 0.451555,1.34687 -0.645499,0.60616 -1.823272,0.45077 -2.277726,-0.31367 0.267882,-0.71844 1.078406,-1.15232 1.826171,-1.0332 z" />
  <path
     id="path608"
     style="fill:#0000ff;stroke-width:1.37492"
     d="m 86.066287,414.71677 c -2.235298,0.64249 -4.245901,2.00148 -6.595404,2.28152 -2.733728,0.49073 -5.443457,-0.47243 -7.848345,-1.69723 -1.353606,-0.70943 -3.099093,-0.832 -4.357032,0.15203 -1.629769,1.43734 -3.907089,1.53541 -5.969121,1.61577 -1.474958,-0.007 -3.142018,0.1546 -4.413692,-0.72905 -0.881021,-0.9577 -2.139245,-2.07933 -3.535156,-1.52734 -0.850398,0.26063 -1.620505,0.71636 -2.439453,1.05273 -1.184105,-1.17558 -3.008876,-0.82283 -4.520297,-0.91037 -2.56938,-0.0123 -5.138815,-0.003 -7.708218,-0.006 0.534714,2.74435 0.853183,5.66888 2.537893,8.00374 1.321789,1.88823 3.193589,3.46466 5.368416,4.25718 2.467548,0.60289 5.043172,0.439 7.564366,0.5122 13.613312,0.0961 27.227803,0.0851 40.840871,-0.0343 2.338011,-0.0877 4.716801,0.053 7.016575,-0.43997 1.45555,-0.43508 3.15816,-1.09794 3.5918,-2.72266 0.63661,-2.25618 0.35624,-4.72513 -0.45442,-6.90177 -0.57856,-1.54863 -2.11353,-2.92414 -3.86198,-2.59324 -1.845234,0.36342 -3.358489,1.69552 -5.263002,1.88126 -2.00315,0.26612 -4.097291,0.35845 -6.069035,-0.15187 -1.179072,-0.37212 -1.722403,-1.77204 -2.982422,-2.01563 -0.310099,-0.12269 -0.58468,-0.13054 -0.902344,-0.0273 z" />
  <path
     id="path819"
     style="fill:#ffa907;fill-opacity:1;stroke-width:1.94442"
     d="m 274.57996,408.3945 c -2.0533,0.0596 -4.42802,-0.0195 -5.9707,1.58399 -0.47029,0.46748 -0.86638,1.02641 -1.06446,1.66406 -2.7284,0.51327 -5.6116,0.17812 -8.24609,1.15625 -2.11113,0.84445 -3.04619,3.2456 -3.15116,5.37158 -0.42397,7.31599 -0.44271,14.64904 -0.53283,21.97528 -0.0198,7.72183 -0.14978,15.45069 0.20157,23.16681 0.27431,2.43279 0.48872,5.05431 1.94921,7.11133 0.80512,1.137 2.20875,1.49991 3.52576,1.59971 2.26854,0.35769 4.60915,0.27103 6.83557,0.86318 1.47662,1.19931 3.40162,1.60688 5.2666,1.62333 3.74276,0.13974 7.50637,0.20593 11.23856,-0.14976 1.28935,-0.21513 2.69868,-0.53658 3.61984,-1.52045 2.85881,-1.0887 6.21674,-0.52432 8.83789,-2.28515 2.00379,-1.44647 2.42831,-4.09091 2.54656,-6.39496 0.55461,-8.58171 0.69609,-17.18461 0.83424,-25.7816 0.0435,-6.29649 0.11376,-12.60317 -0.28316,-18.89003 -0.20594,-2.26138 -0.52778,-4.9023 -2.5073,-6.34286 -2.17907,-1.51816 -4.96809,-0.9967 -7.45752,-1.19993 -0.50757,-0.0978 -1.21095,-0.0312 -1.56197,-0.39856 -0.32357,-1.75877 -2.1236,-2.68159 -3.76183,-2.85735 -3.41475,-0.42843 -6.88438,-0.28156 -10.31878,-0.29487 z m 3.59765,16.4375 c 0.38722,1.2726 1.03268,2.58592 2.31136,3.16225 0.52256,0.30679 1.12707,0.42161 1.66911,0.6815 -1.54201,0.46181 -2.89755,1.52821 -3.55427,3.02064 -0.20654,0.30217 -0.46494,1.27855 -0.76412,0.54055 -0.2313,-1.22505 -0.91629,-2.43243 -2.13669,-2.89322 -0.54177,-0.27217 -1.16738,-0.32831 -1.70117,-0.61523 1.01003,-0.54717 2.27834,-0.77011 2.96404,-1.79941 0.48999,-0.62488 0.78415,-1.3724 1.08284,-2.10099 l 0.0999,0.003 z m -3.0664,19.20117 c 4.88474,0.0415 9.77521,0.007 14.65429,0.26368 1.35506,0.0517 2.64987,0.65744 3.69727,1.48437 0.61551,1.28207 0.47464,2.78309 0.57241,4.17238 0.0344,4.19808 0.11684,8.40265 -0.0878,12.59709 0.0113,1.09476 -0.62795,2.19141 -1.73072,2.47858 -2.31171,0.91263 -4.85552,0.68995 -7.28862,0.82112 -5.73522,0.052 -11.47939,0.23899 -17.20926,-0.0894 -1.74117,-0.1941 -3.86958,-0.19747 -5.01523,-1.74745 -0.83031,-1.6011 -0.71926,-3.48722 -0.82444,-5.24246 -0.0477,-2.89453 0.0275,-5.97481 0.11294,-8.7047 0.12251,-1.34151 -0.0167,-2.77631 0.52834,-4.03397 0.77,-1.27984 2.44619,-1.38883 3.77398,-1.61559 2.92132,-0.367 5.87738,-0.35687 8.81682,-0.38365 z" />
  <path
     id="path5585"
     style="fill:#666666;fill-opacity:1;stroke-width:2.74983"
     d="m 430.33582,233.77145 c -5.8267,0.0893 -11.66769,0.13447 -17.47022,0.71441 -3.23078,0.39647 -6.27471,2.16029 -8.17694,4.81282 -2.57071,3.53377 -4.21184,7.62602 -5.96587,11.60009 -2.67652,6.31295 -5.20776,12.68637 -7.80885,19.03089 1.76745,0.60415 3.45964,1.56721 5.37132,1.59311 7.3459,0.56384 14.74681,0.077 22.02321,0.64126 0.60788,0.0371 1.25819,0.391 1.17517,1.0954 0.0432,0.93284 -0.0705,1.88589 -0.35485,2.7757 -1.6921,0.54186 -3.23176,1.85217 -3.58008,3.66015 -0.61,2.50595 1.21187,5.17552 3.70264,5.6955 2.50357,0.42664 5.06579,0.34474 7.5984,0.41681 5.34855,0.0394 10.70761,0.0883 16.04626,-0.27534 2.11358,0.0109 4.11331,-1.71556 4.1809,-3.87172 0.12042,-2.33125 -1.40446,-4.30703 -2.96122,-5.87646 -0.52975,-0.67562 -1.32211,-1.77645 -0.63729,-2.58488 1.56656,-0.64663 3.32121,-0.63592 4.98857,-0.82724 5.14164,-0.48184 10.32937,-0.47996 15.44276,-1.23877 2.03174,-0.32524 4.39504,-1.04636 5.24835,-3.1254 0.82383,-2.18208 -0.098,-4.49628 -0.73818,-6.60022 -2.05451,-5.7504 -4.54328,-11.34133 -7.23425,-16.82021 -1.64836,-3.37477 -3.76601,-6.86545 -7.2905,-8.52813 -2.98916,-1.40146 -6.33311,-1.7734 -9.58736,-2.04515 -4.65096,-0.27558 -9.31446,-0.26599 -13.97197,-0.24262 z m 11.28711,6.4004 c 1.22791,0.0188 2.45626,0.0184 3.68359,0.0645 0.63518,0.0341 1.5782,0.0713 2.3265,0.19306 2.21919,0.39375 4.3608,1.69102 5.42396,3.72988 1.72033,3.15147 2.80364,6.59707 4.04837,9.95206 0.41186,1.20243 0.91773,2.62768 1.33625,3.92897 0.75293,2.30667 1.5036,4.61734 2.1032,6.96947 -3.47129,0.57156 -7.00802,0.37397 -10.51161,0.47553 -14.71138,0.10182 -29.42492,0.1145 -44.13509,-0.119 -1.30944,-0.0393 -2.62269,-0.0394 -3.92752,-0.16513 2.20139,-6.33125 4.50976,-12.62962 7.03998,-18.83716 0.79272,-1.88592 1.91879,-3.88702 3.98001,-4.5801 3.18887,-1.14717 6.63395,-1.18748 9.98106,-1.37534 6.21372,-0.23432 12.43407,-0.21528 18.6513,-0.23669 z" />
  <path
     id="path6346"
     style="fill:#b3b3b3;fill-opacity:1;stroke-width:2.74983"
     d="m 412.5116,251.64841 c -2.37717,0.14705 -4.97622,0.23609 -6.97006,1.69545 -1.60244,1.38193 -2.23127,3.4982 -3.11642,5.35084 -0.81242,2.05508 -1.83205,4.34524 -1.11274,6.57285 0.56078,1.59092 2.27274,2.36084 3.86133,2.43945 3.83757,0.34851 7.7105,0.34005 11.55256,0.0637 1.52962,-0.0518 3.1332,-0.57511 4.04711,-1.87557 1.59275,-2.21244 1.76789,-5.05217 2.07298,-7.67223 0.19058,-1.82706 0.0649,-4.01759 -1.53593,-5.21897 -1.83516,-1.33686 -4.23944,-1.22903 -6.40215,-1.36948 -0.79867,-0.0251 -1.59821,-0.0119 -2.39668,0.014 z" />
  <path
     id="path6356"
     style="fill:#b3b3b3;fill-opacity:1;stroke-width:2.74983"
     d="m 416.86511,237.50583 c -2.48869,-0.0133 -5.21641,0.60942 -6.83586,2.6516 -1.73288,2.13084 -2.58135,4.81476 -3.38407,7.4009 -0.39209,1.52822 -0.84175,3.44665 0.39181,4.71898 1.55889,1.53636 3.91671,1.37589 5.94057,1.48637 2.92886,0.0125 5.89681,0.0436 8.77818,-0.54496 1.16153,-0.21426 1.92337,-1.23707 2.14283,-2.34861 0.76014,-3.1218 1.16159,-6.33193 1.33178,-9.53811 0.0624,-1.14248 -0.13892,-2.59234 -1.35938,-3.04492 -1.8613,-0.6559 -3.88428,-0.64988 -5.83649,-0.76953 -0.3894,-0.0152 -0.77976,-0.0115 -1.16937,-0.0117 z m -0.34961,7.27539 c 1.05854,0.33042 0.77233,2.22135 -0.37695,2.07813 -0.86128,-0.25897 -1.07962,-1.65693 -0.12627,-1.97023 0.15291,-0.0839 0.33031,-0.11465 0.50322,-0.1079 z" />
  <path
     id="path6348"
     style="fill:#b3b3b3;fill-opacity:1;stroke-width:2.74983"
     d="m 427.64246,252.05466 c -1.80524,0.0129 -3.88188,0.44354 -4.88477,2.10937 -1.12744,1.93979 -1.20925,4.25783 -1.64258,6.41211 -0.24034,1.88439 -0.74888,4.11842 0.59503,5.71631 1.37297,1.53331 3.59239,1.40775 5.46905,1.57363 3.75242,0.14551 7.53117,0.26368 11.27022,-0.15104 1.3311,-0.22745 2.64981,-0.52406 3.97625,-0.77757 -0.3371,-3.21146 -0.39585,-6.46103 -0.99805,-9.63867 -0.36447,-2.005 -1.69883,-3.88832 -3.70249,-4.50257 -2.69328,-0.84857 -5.56685,-0.66805 -8.35489,-0.75076 -0.57612,-0.009 -1.15178,-0.007 -1.72777,0.009 z" />
  <path
     id="path6354"
     style="fill:#b3b3b3;fill-opacity:1;stroke-width:2.74983"
     d="m 429.7323,237.58786 c -1.9693,0.0451 -4.29702,0.23894 -5.5625,1.96289 -1.03524,1.63438 -0.49272,3.65476 -0.81713,5.46422 -0.11778,1.94935 -0.85243,3.82818 -0.78514,5.78771 0.0557,1.5122 1.38194,2.72703 2.86594,2.80667 3.37631,0.38498 6.79569,0.36736 10.18376,0.15595 1.55005,-0.0238 3.16045,-0.62265 4.02598,-1.97318 1.11477,-1.55167 0.58299,-3.55521 0.38821,-5.30369 -0.43161,-2.33436 -0.75935,-4.74669 -1.77373,-6.91424 -0.81466,-1.50202 -2.72694,-1.60306 -4.23154,-1.81175 -1.42523,-0.14989 -2.86112,-0.20415 -4.29385,-0.17458 z m 1.97461,7.49023 c 1.13241,0.12679 0.59993,2.05831 -0.41495,1.75678 -0.68379,-0.18924 -1.03958,-1.17294 -0.33114,-1.57318 0.21563,-0.1478 0.48647,-0.21579 0.74609,-0.1836 z" />
  <path
     id="path6352"
     style="fill:#b3b3b3;fill-opacity:1;stroke-width:2.74983"
     d="m 444.58386,237.50388 c -1.98857,0.14058 -4.10062,0.18016 -5.89453,1.14453 -1.33588,0.81996 -1.21471,2.55167 -1.09617,3.91011 0.30125,2.81635 0.69839,5.65654 1.59877,8.35034 0.62606,1.89612 2.80349,2.55227 4.59897,2.72392 3.23734,0.30257 6.54027,0.39367 9.75177,-0.18251 1.72918,-0.24868 3.30932,-1.83951 3.03338,-3.66514 -0.38472,-2.27689 -1.28021,-4.43239 -2.01429,-6.61312 -0.72784,-2.01768 -1.81311,-4.21735 -3.97204,-4.98649 -1.91016,-0.7113 -3.99337,-0.73856 -6.00586,-0.68164 z m 2.44922,7.96093 c -0.0624,0.49607 -0.30774,1.21352 -0.92382,1.16407 -0.21465,-0.65523 0.19342,-1.3995 0.88671,-1.47852 0.0124,0.10482 0.0247,0.20964 0.0371,0.31445 z" />
  <path
     id="path6350"
     style="fill:#999999;fill-opacity:1;stroke-width:2.74983"
     d="m 447.46668,251.84177 c -1.9528,0.0959 -3.98903,-0.001 -5.84894,0.68181 -1.55104,0.6723 -1.8075,2.59421 -1.60821,4.08365 0.32271,2.52059 0.74136,5.04731 1.46291,7.4871 0.45047,1.64058 1.68449,3.15952 3.43564,3.4408 3.13006,0.42894 6.30653,0.36476 9.46016,0.40413 2.04665,-0.0495 4.12674,0.0814 6.14336,-0.32406 1.41571,-0.4363 2.38354,-1.90792 2.1353,-3.38257 -0.35915,-2.25549 -1.54006,-4.26906 -2.44885,-6.33612 -1.03111,-2.16801 -2.28195,-4.58417 -4.70896,-5.41781 -2.5101,-0.84851 -5.21425,-0.59612 -7.82159,-0.63874 -0.0669,6e-4 -0.13388,0.001 -0.20082,0.002 z" />
  <path
     id="path6435"
     style="fill:#ff2525;fill-opacity:1;stroke-width:0.972212"
     d="m 438.56043,110.10935 c -3.43862,0.005 -7.1007,0.28768 -10.01367,2.30859 -1.97526,1.3224 -3.3824,3.38285 -4.18555,5.57812 -3.85119,2.50002 -7.12061,5.99546 -9.11328,10.14844 -1.77905,4.01547 -1.59392,9.10907 1.29883,12.56836 1.31885,1.61019 3.11,2.81191 5.07421,3.48828 -0.46505,2.84475 -1.29736,5.69054 -2.59375,8.20508 -1.83917,3.83467 -3.98749,7.55432 -6.64257,10.88281 -1.40908,1.22717 -3.07188,2.20475 -4.13086,3.79297 -2.3587,3.10918 -2.99164,7.53886 -1.20118,11.06641 1.54403,3.20838 4.80345,5.4304 8.31446,5.88476 3.35269,0.56488 6.76621,0.627 10.15625,0.77539 7.48794,0.19251 14.97915,0.0638 22.46875,0.125 6.59357,-0.0185 13.21141,0.0332 19.77343,-0.68554 3.84423,-0.60381 7.66023,-2.87419 9.18165,-6.58789 1.72873,-3.90818 0.60332,-8.73786 -2.42579,-11.68946 -1.52227,-1.62441 -3.58497,-2.57799 -5.54296,-3.53125 -1.59606,-1.76602 -2.79361,-3.87251 -3.93555,-5.85937 -2.2126,-3.86414 -3.98612,-8.03348 -4.79297,-12.42969 4.15045,-0.90017 7.53507,-4.45248 8.25586,-8.63281 0.45385,-2.198 0.0492,-4.47135 -0.79492,-6.52344 -1.67566,-4.75165 -5.19969,-8.83541 -9.74024,-11.05273 -0.48279,-0.32817 -1.23134,-0.40568 -1.3125,-1.09766 -1.57649,-3.49346 -5.11741,-5.84532 -8.875,-6.32813 -3.0459,-0.481 -6.1488,-0.40186 -9.22265,-0.40624 z" />
  <path
     id="path7463"
     style="fill:#00ffff;fill-opacity:1;stroke-width:1.37492"
     d="m 231.53504,32.050748 c -2.14258,-0.03397 -3.82118,1.982758 -3.9672,4.021166 -0.40218,3.807597 -0.29589,7.648716 -0.41671,11.472019 -0.0512,2.419503 -0.0792,4.681875 -0.23483,7.105568 -0.17318,1.748823 -0.14908,3.639063 -1.06486,5.196169 -0.54681,0.707899 -1.32832,1.191414 -2.09179,1.634766 -1.02709,-1.063576 -2.19668,-2.378336 -3.83008,-2.220703 -1.76529,0.178452 -3.16942,1.421673 -4.57406,2.394049 -3.67009,2.879786 -7.25264,5.907658 -10.42781,9.333684 -1.15315,1.193955 -2.13081,2.853185 -1.64071,4.565235 0.52619,1.658406 1.42453,3.59354 3.30078,3.996094 2.17752,0.384217 4.21788,-0.788864 6.16086,-1.597138 2.77932,-1.294501 5.6444,-2.778995 8.30594,-4.074737 1.63659,-0.732994 3.2211,-1.628813 4.93451,-2.163314 0.5286,-0.268279 0.62343,0.332229 0.6723,0.715095 0.47964,2.94099 0.50623,5.945772 0.58578,8.860712 0.0612,3.996841 -0.01,7.953219 -0.20579,11.903922 -0.11945,1.924895 -0.17006,3.866868 -0.54344,5.763663 -1.62539,0.489822 -3.08419,1.825002 -3.22428,3.590472 -0.32167,1.74374 0.46331,3.70841 2.14811,4.43492 1.51999,0.69954 3.25669,0.44723 4.88251,0.55728 2.76934,-0.0245 5.56555,0.11017 8.31084,-0.31509 1.47662,-0.2299 2.79579,-1.3845 2.92969,-2.91992 0.2691,-1.88777 -0.31845,-4.10822 -2.12695,-5.037115 -0.44219,-0.304937 -1.20702,-0.216654 -1.22573,-0.920571 -0.25445,-1.41941 -0.24859,-2.841007 -0.31523,-4.203813 -0.25585,-6.367585 -0.1926,-12.744244 0.0253,-19.111944 2.72801,1.324262 5.74165,1.883441 8.64202,2.706355 4.07172,1.001926 8.12827,2.107518 12.26423,2.815129 1.05638,0.218706 1.95871,-0.464533 2.58594,-1.246093 0.95698,-1.238021 2.00228,-2.582616 2.17774,-4.185547 -0.0299,-1.954122 -1.81827,-3.160736 -3.31317,-4.082925 -6.27559,-3.706694 -13.00597,-6.57586 -19.30476,-10.242425 -1.13669,-0.758104 -2.52391,-1.3854 -3.19653,-2.635588 -0.19178,-0.505188 0.78578,-0.446752 1.11524,-0.654297 1.56354,-0.389173 2.84872,-1.776374 2.85277,-3.427993 0.0176,-2.400148 -0.70155,-4.731474 -1.17187,-7.067084 -0.8868,-3.69323 -1.70022,-7.418344 -2.927,-11.016641 -0.67008,-1.726965 -1.98223,-3.360764 -3.89062,-3.722657 -0.721,-0.162735 -1.46398,-0.214352 -2.20117,-0.220703 z m 0.83593,29.498047 c 0.0676,0.304863 0.28356,1.347762 -0.17968,1.181641 -0.30806,-0.187409 -0.77497,-0.876224 -0.46554,-1.090846 0.2095,-0.05739 0.43002,-0.08346 0.64522,-0.09079 z" />
  <path
     id="path7466"
     style="fill:#ff6600;fill-opacity:1;stroke-width:1.37492"
     d="m 87.10535,123.19138 c -0.209806,-0.008 -0.415327,-0.006 -0.611328,0.002 -2.647131,0.10583 -5.374709,0.53068 -7.730469,1.80078 -2.329878,1.61028 -4.127971,3.91978 -5.453125,6.40234 -0.82199,1.49922 -1.340407,3.17033 -1.267578,4.89454 -0.06628,1.5428 0.09373,3.10964 -0.167969,4.63476 -1.007988,1.56415 -2.467353,2.78608 -3.785156,4.08594 -2.703563,2.48632 -5.419894,5.00762 -8.519532,6.99805 -2.961814,1.84363 -6.599197,1.16535 -9.833984,2.04687 -3.526554,1.10844 -6.195756,3.92586 -8.265625,6.87305 -1.225916,1.87143 -2.390545,3.97005 -2.244141,6.28515 -0.0372,1.52545 0.155362,3.42094 1.681641,4.19532 1.280908,0.7485 2.711359,-0.10082 3.707031,-0.9375 2.288922,-1.67131 4.300629,-3.68078 6.519532,-5.43555 0.299431,-0.21862 0.668379,-0.50823 0.988281,-0.12891 1.570069,1.18489 3.093151,2.47274 4.388672,3.95703 0.478909,0.48449 -0.306305,0.9985 -0.554688,1.42383 -1.131384,1.376 -2.399456,2.61772 -3.667969,3.76367 -1.11468,1.1523 -2.397101,2.28511 -2.966796,3.82032 -0.208088,0.6021 -0.04673,1.28725 0.179687,1.83593 0.788303,0.92044 2.022169,1.13487 3.175781,1.11914 3.498594,0.007 7.304642,-0.55005 9.972657,-3.01953 3.21819,-2.97477 5.367465,-7.32299 5.160156,-11.75976 -0.09678,-1.18044 -0.515693,-2.49384 0.291015,-3.53711 1.73748,-2.46547 4.172122,-4.31917 6.376954,-6.3418 2.577094,-2.17618 5.122108,-4.64864 8.416015,-5.66992 3.300467,-0.64065 6.926897,-0.0787 9.945313,-1.83789 2.700185,-1.54267 4.621296,-4.1345 6.164062,-6.77539 1.226823,-2.09377 1.949403,-4.60764 1.326173,-7.01563 -0.23109,-1.34336 -1.417933,-2.65985 -2.875001,-2.39648 -1.757374,0.34224 -3.082963,1.69881 -4.443359,2.76953 -1.702444,1.37468 -3.176033,3.07932 -5.09961,4.15234 -1.192395,-0.65899 -2.122876,-1.74338 -3.15039,-2.63671 -0.618996,-0.62767 -1.311929,-1.22006 -1.802735,-1.94922 2.264816,-2.77059 5.06223,-5.08783 7.244141,-7.92969 0.301904,-0.47043 0.563259,-0.947 0.304687,-1.50391 -0.245761,-1.6529 -1.933704,-2.13284 -3.402343,-2.18554 z" />
  <path
     id="path7689"
     style="fill:#d45500;fill-opacity:1;stroke-width:1.94442"
     d="m 225.60535,327.29099 c -4.70381,0.12004 -9.43733,0.14988 -14.09411,0.89092 -2.38818,0.33315 -4.74771,1.98257 -5.25355,4.44501 -0.55164,2.6756 -0.37256,5.43459 -0.35138,8.14906 0.11137,1.8412 0.0168,3.99899 1.51154,5.34704 2.06287,1.90585 4.98645,2.52298 7.7207,2.54101 8.72063,0.20519 17.44669,0.0874 26.16602,-0.1289 2.05514,-0.12488 4.15101,-0.0264 6.17165,-0.45336 2.09322,-0.77407 4.23152,-2.39985 4.45393,-4.7826 0.28061,-2.75473 0.29611,-5.53651 0.23639,-8.30338 -0.0597,-2.05804 -0.53516,-4.4045 -2.39627,-5.59633 -2.08321,-1.41398 -4.70993,-1.40951 -7.12235,-1.68307 -5.66854,-0.42565 -11.36039,-0.47912 -17.04257,-0.4254 z" />
  <path
     id="path7671"
     style="fill:#ffff00;fill-opacity:1;stroke-width:1.94442"
     d="m 180.95691,295.46677 c -2.55702,0.0895 -5.19101,-0.0617 -7.66211,0.70508 -2.23605,0.66008 -3.16934,3.6788 -1.80859,5.52734 1.26578,1.72503 3.58845,2.07836 5.58858,2.08012 7.52065,0.18132 15.04704,0.15218 22.56767,-0.0137 1.95051,-0.15856 4.12571,0.005 5.80078,-1.17968 1.30794,-1.03238 1.35173,-2.92825 0.9668,-4.41211 -0.5149,-1.66282 -2.38366,-2.23085 -3.94361,-2.34551 -4.36903,-0.37619 -8.76325,-0.25792 -13.14427,-0.34142 -2.78845,-0.024 -5.57671,-0.0364 -8.36525,-0.0201 z" />
  <path
     id="path7673"
     style="fill:#ffff00;fill-opacity:1;stroke-width:1.94442"
     d="m 184.55652,305.54294 c -3.3889,0.0776 -6.79859,0.10548 -10.15674,0.60477 -1.5741,0.20784 -3.18114,1.21393 -3.4871,2.87191 -0.2988,1.7939 -0.24254,4.04046 1.3704,5.22058 1.70852,1.27811 3.95025,0.99178 5.95329,1.13582 7.38609,0.15758 14.77948,0.15089 22.16273,-0.11393 1.83013,-0.0989 3.99277,-0.0387 5.31758,-1.53165 0.94963,-1.26904 0.68934,-2.96581 0.63054,-4.44667 -0.0847,-1.72223 -1.64047,-3.03541 -3.3089,-3.13105 -4.45869,-0.5173 -8.95986,-0.52399 -13.44312,-0.6103 -1.6796,-0.006 -3.35913,-0.0214 -5.03868,5.2e-4 z" />
  <path
     id="path7675"
     style="fill:#ffff00;fill-opacity:1;stroke-width:1.94442"
     d="m 180.56043,316.13864 c -2.47497,0.079 -5.02433,-0.11148 -7.42188,0.61524 -1.50423,0.47064 -2.42138,2.01396 -2.35937,3.55078 -0.13725,1.6424 0.37777,3.49671 1.89453,4.35742 2.14259,1.26288 4.71882,0.91024 7.09505,1.04286 6.87115,0.068 13.74665,0.10237 20.61526,-0.11088 1.8247,-0.15418 3.93397,-0.048 5.36977,-1.37729 1.23642,-1.28912 0.77695,-3.25048 0.17187,-4.72266 -0.77646,-1.83696 -2.84897,-2.50713 -4.6771,-2.70785 -4.64676,-0.58043 -9.34256,-0.53415 -14.01701,-0.63127 -2.2237,-0.025 -4.44732,-0.023 -6.67112,-0.0163 z" />
  <path
     id="path7681"
     style="fill:#ffff00;fill-opacity:1;stroke-width:1.94442"
     d="m 221.22644,295.46677 c -2.55702,0.0895 -5.19101,-0.0617 -7.66211,0.70508 -2.2303,0.65888 -3.1653,3.66166 -1.82031,5.51367 1.26441,1.73497 3.59403,2.09291 5.6003,2.09379 7.52,0.18128 15.04574,0.15224 22.56572,-0.0137 1.94895,-0.15857 4.12151,0.006 5.79687,-1.17578 1.31179,-1.03108 1.35598,-2.9308 0.97266,-4.41601 -0.51489,-1.66282 -2.38366,-2.23085 -3.94361,-2.34551 -4.36903,-0.37619 -8.76325,-0.25792 -13.14427,-0.34142 -2.78845,-0.024 -5.57671,-0.0364 -8.36525,-0.0201 z" />
  <path
     id="path7679"
     style="fill:#ffff00;fill-opacity:1;stroke-width:1.94442"
     d="m 224.82605,305.54294 c -3.3889,0.0776 -6.79859,0.10548 -10.15674,0.60477 -1.5353,0.21047 -3.12747,1.15847 -3.45849,2.77609 -0.34078,1.78989 -0.29493,4.03319 1.27148,5.25976 1.82918,1.3466 4.22258,1.04924 6.35956,1.19564 7.33099,0.14936 14.66907,0.13824 21.99696,-0.12794 1.77874,-0.0853 3.86783,-0.0721 5.14739,-1.52082 0.94875,-1.26903 0.68937,-2.96592 0.63054,-4.44667 -0.0859,-1.71907 -1.64023,-3.03747 -3.3089,-3.13105 -4.45868,-0.51732 -8.95986,-0.5239 -13.44312,-0.6103 -1.67959,-0.006 -3.35913,-0.0214 -5.03868,5.2e-4 z" />
  <path
     id="path7677"
     style="fill:#ffff00;fill-opacity:1;stroke-width:1.94442"
     d="m 231.64636,316.25778 c -4.94946,0.087 -9.90667,0.16746 -14.84111,0.5821 -1.80601,0.18586 -4.00875,0.52563 -4.92451,2.31829 -0.58439,1.25807 -0.5519,2.74291 -0.29384,4.07937 0.39944,1.49651 2.01242,2.0566 3.39236,2.2327 2.0851,0.38118 4.22308,0.1895 6.33194,0.26889 6.41121,0.002 12.82573,0.0626 19.23436,-0.13376 1.84779,-0.15034 4.01878,-0.0635 5.42563,-1.47664 1.16363,-1.2418 0.95521,-3.10817 0.77869,-4.66392 -0.21968,-1.45023 -1.48082,-2.55839 -2.92188,-2.70703 -4.02501,-0.58697 -8.12428,-0.47108 -12.18164,-0.5 z" />
  <path
     id="path7683"
     style="fill:#ffff00;fill-opacity:1;stroke-width:1.94442"
     d="m 269.75379,295.4902 c -4.28289,0.0868 -8.58013,-0.0381 -12.85026,0.3486 -1.55555,0.11671 -3.40773,0.7229 -3.88213,2.39289 -0.41044,1.58411 -0.22892,3.64493 1.31051,4.57101 1.51621,0.87512 3.33998,0.86927 5.00781,1.27344 -0.0145,-0.56207 0.92198,-0.13169 1.35657,-0.2337 7.44605,0.12436 14.8986,0.17203 22.34193,-0.0841 1.87003,-0.0902 4.16088,-0.40828 5.15475,-2.22181 0.88365,-1.75444 0.40456,-4.34214 -1.52121,-5.18301 -2.11265,-0.89049 -4.47401,-0.7484 -6.72026,-0.86239 -3.3989,-0.0561 -6.79863,-0.0215 -10.19771,-9e-4 z" />
  <path
     id="path7685"
     style="fill:#ffff00;fill-opacity:1;stroke-width:1.94442"
     d="m 265.62097,305.63083 c -3.15793,0.0714 -6.35758,-0.0993 -9.47393,0.50096 -1.60957,0.28277 -3.03236,1.59525 -3.13744,3.27723 -0.25579,1.74112 -0.21132,3.88874 1.35551,5.02845 1.63431,1.15743 3.76016,0.86717 5.65085,0.99473 7.30377,0.0623 14.61302,-0.15912 21.89793,-0.68377 1.84158,-0.17755 3.95772,-0.21134 5.29497,-1.69573 0.9548,-1.00236 1.09989,-2.49423 1.13215,-3.81463 -0.0235,-1.68135 -1.53548,-2.88838 -3.09504,-3.14826 -3.27497,-0.57283 -6.62211,-0.40263 -9.93281,-0.46347 -3.23074,-0.005 -6.46145,-0.002 -9.69219,0.004 z" />
  <path
     id="path7687"
     style="fill:#ffff00;fill-opacity:1;stroke-width:1.94442"
     d="m 259.88855,316.02145 c -1.92518,0.10314 -4.06462,-0.0767 -5.73242,1.06446 -1.43303,1.04733 -1.38103,2.98506 -1.255,4.57024 0.0469,1.6328 1.16431,3.16136 2.77063,3.56257 2.30431,0.59664 4.71643,0.41437 7.07455,0.5216 6.88368,0.0764 13.77366,0.14429 20.65339,-0.12979 1.48528,-0.0763 3.10181,-0.37949 4.24471,-1.3879 1.2798,-1.40735 0.88859,-3.6155 0.006,-5.13477 -0.80705,-1.54858 -2.60377,-2.04699 -4.20958,-2.25563 -4.83733,-0.64366 -9.73183,-0.63414 -14.60269,-0.74912 -2.98287,-0.0403 -5.96627,-0.0922 -8.94945,-0.0617 z" />
  <path
     id="path7665"
     style="fill:#00ffff;fill-opacity:1;stroke-width:1.94442"
     d="m 199.28699,218.75388 c -1.81348,0.0553 -3.00865,1.69259 -3.62197,3.2355 -0.5217,0.98318 -0.68459,2.15879 -1.33897,3.05747 -1.40124,0.93618 -3.25038,0.61189 -4.71428,1.43714 -1.80358,0.7623 -2.94775,2.7791 -2.58455,4.7191 0.19634,1.35086 0.89068,2.59491 1.74219,3.6211 -0.0227,1.728 -0.5557,3.72809 0.63281,5.20312 1.14751,1.2897 3.16735,1.35867 4.56641,0.44922 1.26073,-0.8073 2.3494,-1.97013 3.87804,-2.27741 1.12555,-0.22288 2.29596,-0.17688 3.40733,-0.51485 1.93006,-0.37819 3.80799,-1.2319 5.08783,-2.76944 1.40375,-1.43854 2.48155,-3.29068 4.28491,-4.27416 1.34407,-0.45854 2.80981,-0.13315 4.18693,-0.46555 2.277,-0.2107 4.07286,-2.10821 4.59832,-4.26304 0.59429,-2.01798 -0.0417,-4.56402 -2.04102,-5.54297 -1.76754,-0.82129 -3.77798,-0.30302 -5.64554,-0.24927 -0.76886,-0.0338 -1.72844,0.34123 -2.31779,-0.33736 -0.99879,-0.90711 -2.54457,-1.41343 -3.76424,-0.62734 -0.51224,0.30449 -0.90402,0.90771 -1.58722,0.74593 -1.67292,-0.0344 -3.06489,-1.28526 -4.76919,-1.14719 z" />
  <path
     id="path7667"
     style="fill:#00ffff;fill-opacity:1;stroke-width:1.94442"
     d="m 241.07019,218.84177 c -1.60983,-0.11952 -3.00078,1.06195 -3.55469,2.50781 -0.62902,1.27592 -0.86034,2.78558 -1.80078,3.88477 -0.98646,0.65318 -2.01857,0.76951 -3.08712,1.22428 -1.62045,0.53658 -3.26774,1.71585 -3.46952,3.53939 -0.27063,2.55534 1.0884,4.9377 1.08203,7.48242 0.0603,1.55236 1.00141,3.14526 2.58984,3.50982 1.71506,0.46658 3.33748,-0.61475 4.50397,-1.76554 1.15013,-0.95656 2.67365,-1.18622 4.11908,-1.23061 2.32538,-0.38677 4.85662,-0.9459 6.43946,-2.85146 1.42929,-1.45181 2.42943,-3.38974 4.23633,-4.42588 1.83313,-0.695 3.94408,0.051 5.71999,-0.90862 2.58724,-1.24092 4.27941,-4.48138 3.16282,-7.25154 -0.50955,-1.3734 -1.73219,-2.52541 -3.25,-2.57812 -2.28089,-0.19342 -4.58583,0.18448 -6.85742,-0.10547 -0.91306,-0.97282 -2.41463,-1.23234 -3.59097,-0.59129 -0.70659,0.2571 -1.40868,0.97579 -2.18976,0.52768 -1.32864,-0.39394 -2.65371,-0.91714 -4.05326,-0.96764 z" />
  <path
     id="path7669"
     style="fill:#00ffff;fill-opacity:1;stroke-width:1.94442"
     d="m 290.45105,218.39841 -1.08789,0.63867 c -0.8191,0.48032 -1.63866,0.95985 -2.45703,1.44141 -1.42615,-0.75982 -2.88958,-1.70759 -4.54687,-1.76758 -1.87312,0.16455 -2.8492,2.04507 -3.51954,3.57812 -0.4013,0.77196 -0.53317,1.67199 -0.95507,2.42188 -1.46471,1.3626 -3.72627,0.89954 -5.30665,2.06836 -1.77077,1.01393 -2.84243,3.29892 -2.01757,5.2539 0.29461,0.99872 0.95956,1.82803 1.375,2.75977 0.18667,1.66593 -0.35083,3.5385 0.60351,5.04101 1.08465,1.58047 3.38861,1.50046 4.88477,0.58594 0.77961,-0.36954 1.36035,-1.03496 1.99805,-1.57422 1.93256,-0.75065 4.05392,-0.81061 6.02929,-1.42968 2.17427,-0.52377 3.98253,-1.95539 5.35938,-3.67383 1.17372,-1.37104 2.34607,-3.14476 4.33007,-3.28516 1.7138,-0.11738 3.54488,-0.0226 5.06641,-0.9707 2.9514,-1.63407 3.72337,-6.26602 1.27344,-8.64844 -1.27776,-1.20259 -3.15894,-0.85309 -4.75391,-0.85547 -1.27781,-0.002 -2.60132,0.3517 -3.85156,0.0391 -0.82487,-0.51414 -1.61224,-1.08756 -2.42383,-1.62304 z" />
  <path
     id="path7880"
     style="fill:#008787;fill-opacity:1;stroke-width:1.94442"
     d="m 231.69324,184.84372 c -7.31218,0.17979 -14.68604,0.71847 -21.77557,2.61889 -9.06874,2.61283 -17.75347,6.54264 -25.76877,11.51838 -4.67634,2.888 -8.97665,6.35322 -12.8757,10.22276 -8.32309,8.06696 -15.02706,17.79588 -19.5312,28.47875 -2.00837,4.58002 -3.52101,9.37343 -4.445,14.29008 -1.56342,8.29454 -2.15403,16.8202 -1.27211,25.22922 0.93816,7.52838 3.08072,14.87095 5.84866,21.92007 1.70487,4.19801 3.59324,8.34839 5.9877,12.20139 0.6546,1.09273 1.86941,2.21362 3.23433,1.80562 0.65994,-0.16726 1.33513,-0.61272 1.51758,-1.30664 0.5065,-1.79479 0.49457,-3.69886 0.693,-5.54767 0.46002,-5.31537 0.586,-10.65864 1.18468,-15.96145 0.1702,-0.86809 0.20515,-1.882 0.71607,-2.60417 8.3823,-2.69837 16.85891,-5.10524 25.29473,-7.57458 7.45151,-2.13132 14.81678,-4.3786 22.31691,-6.32788 0.78052,-0.45293 0.84492,0.24434 0.90985,0.88375 0.43302,2.23553 0.36672,4.67514 1.57171,6.68075 0.9385,1.50123 2.85896,1.78318 4.48192,1.58489 3.07925,-0.26686 6.03031,-1.2794 9.00913,-2.04593 8.40368,-2.34863 16.77709,-4.80602 25.19505,-7.10334 -0.0239,3.47672 0.21396,6.94643 0.63431,10.39656 0.004,0.71451 0.0539,1.35977 0.8812,0.85701 9.29088,-2.6102 18.53449,-5.39583 27.88488,-7.78873 0.43256,-0.0951 1.05493,-0.25535 1.53728,-0.35489 2.09908,-0.42499 4.3484,-0.92614 6.44702,-0.26348 1.24116,0.61605 1.44075,2.18356 1.75825,3.38983 0.67151,3.30714 0.58912,6.70436 0.77403,10.05999 0.31827,8.24682 0.40132,16.54475 0.70412,24.83272 0.16619,2.41804 0.0505,4.91586 0.8086,7.24599 0.42369,1.23319 1.73188,2.1826 3.0499,1.81226 1.80056,-0.53845 2.85498,-2.2666 4.00869,-3.62671 5.4175,-7.12924 9.61604,-15.12045 13.04614,-23.37122 2.12174,-5.3014 4.046,-10.76229 4.7373,-16.45787 0.67723,-6.54999 0.43646,-13.16021 -0.0384,-19.71601 -0.46997,-5.41988 -1.03447,-10.87969 -2.53692,-16.12561 -1.56575,-4.69739 -3.67183,-9.19478 -5.77493,-13.67026 -1.38327,-2.77195 -2.65792,-5.63207 -4.45854,-8.16489 -0.99884,-1.23349 -1.9987,-2.46615 -2.99805,-3.69922 -0.19336,0.57943 -0.38672,1.15885 -0.58008,1.73828 0.0211,-0.96185 0.35702,-2.01812 -0.31407,-2.84128 -4.52308,-6.28054 -10.40945,-11.45255 -16.62872,-16.00183 -7.35565,-5.3276 -15.41076,-9.75195 -24.03744,-12.64513 -5.20151,-1.79035 -10.52452,-3.36937 -16.02255,-3.8914 -5.0353,-0.57277 -10.10948,-0.74682 -15.17495,-0.677 z m -28.05859,34.81836 c 1.97923,0.0213 3.95677,0.12988 5.92773,0.31055 0.56403,0.0651 1.46491,0.1433 2.15727,0.24283 2.04741,0.28987 4.1422,0.54863 6.07711,1.30209 1.98573,1.90381 1.62834,5.59261 -0.7223,7.05571 -1.25943,0.838 -2.7502,1.31701 -4.26208,1.33882 -2.5733,0.3089 -4.64951,2.15856 -5.94711,4.3073 -0.78398,1.08115 -1.68178,2.09135 -2.70719,2.94856 -2.66041,0.33413 -5.44109,0.29305 -7.95117,1.3457 -1.07525,0.60666 -2.13388,1.31766 -3.4043,1.42578 -1.12435,0.10532 -2.65804,0.33421 -3.33984,-0.8125 -0.85534,-1.3764 -0.78614,-3.07263 -1.27343,-4.58277 -0.3455,-1.59691 -1.01889,-3.16606 -1.00782,-4.81176 0.82969,-1.52432 2.26029,-2.73536 3.85938,-3.39258 0.94347,0.19523 2.07167,0.0409 2.70703,-0.78515 1.06226,-1.29927 0.80794,-3.27682 2.13672,-4.42578 1.54027,-1.43659 3.80359,-1.29639 5.75984,-1.44122 0.66305,-0.0299 1.32666,-0.02 1.99016,-0.0256 z m 40.75781,0.0273 c 4.6605,0.0293 9.35883,0.40205 13.88476,1.5586 0.69632,0.25794 1.65728,0.33973 1.9043,1.17773 1.15329,2.00807 0.4776,4.69261 -1.32557,6.08075 -1.20164,1.03921 -2.81467,1.36828 -4.36171,1.36194 -2.40194,0.23963 -4.53595,1.90619 -5.4592,4.12176 -0.68466,1.38474 -1.79834,2.67337 -3.38461,2.97734 -0.86652,0.24028 -1.86031,0.36892 -2.61441,0.45246 -2.22786,0.21089 -4.5739,0.50285 -6.40919,1.90419 -1.90426,1.25919 -4.87298,0.93415 -6.06564,-1.14519 -0.8336,-1.36237 -0.3292,-3.01824 -0.77685,-4.49029 -0.28117,-1.42692 -1.23456,-2.80131 -0.74047,-4.30277 0.35693,-1.47257 1.82635,-2.30533 3.24877,-2.44239 1.64524,-0.25991 3.36781,-1.19488 3.82833,-2.90842 0.39291,-1.89711 2.04431,-3.39065 3.85546,-3.93787 1.44225,-0.34294 2.94051,-0.37608 4.41603,-0.40784 z m 41.75195,0.0918 c 2.99939,0.0216 6.17041,0.22992 9.04492,0.50781 1.95216,0.15773 3.8693,0.54603 5.77344,0.98438 0.99254,0.28836 1.95304,-0.10733 2.9043,-0.36133 -0.47834,1.43691 -0.95696,2.87372 -1.43555,4.31055 -0.14545,0.43296 -0.42952,1.20019 -0.70752,1.72961 -0.69154,1.56647 -2.20141,2.73623 -3.93697,2.8226 -1.33664,0.0342 -2.72587,0.12858 -3.88676,0.87357 -2.13075,1.19448 -3.47599,3.29161 -4.94531,5.16211 -0.4924,0.57438 -1.01565,1.21148 -1.8441,1.22306 -2.90856,0.70762 -6.16377,0.32247 -8.74575,2.09139 -1.23606,0.85177 -2.79391,1.18644 -4.25807,0.80407 -0.50504,-0.14165 -1.27832,-0.12151 -1.31419,-0.81188 -0.92897,-2.91899 -1.79931,-5.87969 -2.27149,-8.91016 0.11597,-1.51939 1.52348,-2.50232 2.68164,-3.29101 0.6413,-0.39638 1.3453,-0.77243 2.12113,-0.66081 1.42908,-0.0322 2.39836,-1.36456 2.582,-2.68685 0.39046,-1.53617 1.51473,-3.15854 3.22103,-3.31101 1.65095,-0.34707 3.33025,-0.50727 5.01725,-0.4761 z m -52.39844,26.45898 c 2.0598,0.0411 4.18052,0.003 6.16797,0.60157 0.73908,0.61593 0.51551,1.7123 0.75762,2.5542 0.98619,6.67173 1.7145,13.37874 2.52949,20.07275 0.17679,0.72611 -0.33159,1.30356 -0.95416,1.59012 -2.97677,1.56581 -6.26164,2.41621 -9.43976,3.47276 -2.82711,0.86543 -5.6337,1.807 -8.4967,2.54845 0.0305,-4.09237 0.63586,-8.1552 1.08926,-12.21625 0.71564,-5.49168 1.32168,-11.04343 2.31113,-16.52203 0.11657,-0.52325 0.21971,-1.0544 0.41601,-1.55469 1.82691,-0.47343 3.74184,-0.50523 5.61914,-0.54688 z m 41.83985,0.0254 c 1.77917,0.0272 3.62141,-0.005 5.31836,0.59766 0.67069,2.0319 0.87431,4.1821 1.15039,6.29492 0.0742,0.73351 0.18441,1.77486 0.25498,2.62673 0.34788,4.4864 0.57908,8.99867 0.35174,13.49626 -0.0332,1.07687 -0.41748,2.2387 -1.47586,2.711 -2.58413,1.32121 -5.41882,2.05377 -8.16378,2.96204 -2.67206,0.82189 -5.35925,1.60003 -8.07841,2.25085 0.11327,-1.56515 0.29719,-3.03405 0.4769,-4.53633 0.98704,-7.9257 1.99285,-15.85204 3.24094,-23.74122 0.22879,-0.86389 0.67599,-1.84604 1.51458,-2.2537 1.77797,-0.32001 3.60722,-0.35556 5.41016,-0.40821 z m -86.34766,1.41016 c 1.29798,0.0683 2.70249,-0.11362 3.91016,0.44336 0.67065,1.15062 0.677,2.56145 0.92301,3.84753 0.90178,6.64488 1.12344,13.35401 1.33285,20.04895 -1.41494,1.55387 -3.55155,2.06873 -5.43782,2.81785 -4.04666,1.3699 -8.10615,2.73821 -12.25987,3.74856 -0.77481,0.32742 -0.24572,-0.85473 -0.34089,-1.28651 0.66364,-7.1359 1.7926,-14.24264 2.8335,-21.30138 0.42406,-2.26155 0.58031,-4.62265 1.49414,-6.75586 0.32748,-0.52112 0.74003,-1.10848 1.23278,-1.42819 2.10398,-0.0487 4.20768,-0.11068 6.31214,-0.13431 z" />
  <path
     id="path7966"
     style="fill:#808080;fill-opacity:1;stroke-width:1.94442"
     d="m 161.24988,191.4863 c -2.31696,0.15106 -4.1662,1.85597 -5.61719,3.52539 -1.40928,1.6999 -2.62328,3.97964 -1.90006,6.23199 0.80141,2.66416 2.88585,4.87449 5.36295,6.07856 2.53187,0.92633 5.28029,-0.32672 7.21875,-1.96289 1.80257,-1.50154 3.13479,-3.86773 2.59766,-6.26954 -0.61882,-3.09256 -2.72289,-5.97768 -5.65625,-7.23046 -0.63828,-0.24535 -1.32014,-0.39087 -2.00586,-0.37305 z" />
  <path
     id="path7964"
     style="fill:#808080;fill-opacity:1;stroke-width:1.94442"
     d="m 232.9784,163.10544 c -2.56509,0.16112 -4.62815,2.05545 -6.12305,3.99805 -1.28519,1.71567 -2.08453,3.9925 -1.33226,6.10092 0.80744,2.71683 3.38663,4.70925 6.19596,4.93162 3.07917,0.4848 6.49667,-0.74979 8.15138,-3.48147 1.18312,-1.8819 1.8643,-4.39917 0.69781,-6.45537 -1.1745,-2.03021 -3.22154,-3.38403 -5.25051,-4.45981 -0.73004,-0.35075 -1.51733,-0.65774 -2.33933,-0.63394 z" />
  <path
     id="path7962"
     style="fill:#808080;fill-opacity:1;stroke-width:1.94442"
     d="m 304.6366,191.65036 c -1.66902,0.20245 -3.11335,1.24911 -4.35938,2.31641 -1.63715,1.5605 -3.13891,3.69856 -2.91015,6.06836 0.49458,2.5527 2.29524,4.6729 4.31266,6.21651 1.26424,0.84311 2.77203,1.90865 4.36312,1.34403 2.43992,-0.83982 4.54124,-2.54657 6.11133,-4.57226 1.21173,-1.57994 1.27807,-3.75199 0.82226,-5.61524 -0.61111,-1.70752 -2.07316,-2.93932 -3.46094,-4.02734 -1.41051,-1.00737 -3.12091,-1.76509 -4.8789,-1.73047 z" />
  <path
     id="path7958"
     style="fill:#808080;fill-opacity:1;stroke-width:1.94442"
     d="m 335.38855,260.68552 c -2.24161,0.1559 -4.2959,1.45688 -5.77539,3.09375 -1.18748,1.54474 -2.29486,3.35492 -2.36328,5.35351 0.19606,3.05684 2.69511,5.86338 5.74182,6.32807 2.54389,0.35578 5.45534,0.32125 7.52771,-1.4101 1.87497,-1.58312 3.2418,-4.259 2.30765,-6.70268 -0.96057,-2.53785 -2.85573,-4.74561 -5.21585,-6.08443 -0.68683,-0.35311 -1.44046,-0.61487 -2.22266,-0.57812 z" />
  <path
     id="path7954"
     style="fill:#808080;fill-opacity:1;stroke-width:1.94442"
     d="m 305.81238,329.57419 c -3.1497,-0.0625 -5.86913,2.11201 -7.44104,4.69407 -1.11159,1.51468 -1.52723,3.61267 -0.62789,5.33009 1.09173,2.17007 2.96963,4.00372 5.23104,4.92115 2.31935,0.95435 5.09542,0.47619 6.98681,-1.1627 1.80605,-1.32588 2.53523,-3.62609 2.47946,-5.79278 0.152,-2.96444 -1.25708,-6.20339 -4.09787,-7.42933 -0.79197,-0.3612 -1.66218,-0.5415 -2.53051,-0.5605 z" />
  <path
     id="path7883"
     style="fill:#808080;fill-opacity:1;stroke-width:1.94442"
     d="m 233.7948,358.31638 c -2.47702,0.17789 -4.69609,1.64324 -6.39062,3.38086 -1.02737,1.20298 -2.0176,2.66332 -2.03626,4.29865 0.22624,2.30961 1.94461,4.13314 3.63367,5.56936 1.46136,1.31807 3.51914,1.95366 5.45413,1.48512 2.93041,-0.65389 5.66947,-2.74232 6.67893,-5.62462 0.87206,-2.61583 -0.61768,-5.38882 -2.54843,-7.11409 -1.30851,-1.1671 -3.00428,-2.03302 -4.79142,-1.99528 z" />
  <path
     id="path7956"
     style="fill:#808080;fill-opacity:1;stroke-width:1.94442"
     d="m 161.13855,329.59177 c -2.51987,0.0991 -4.57446,1.91079 -6.09434,3.77196 -1.48073,1.80353 -1.8975,4.46088 -0.7583,6.54436 1.19295,2.27257 3.22004,4.25637 5.72764,4.96883 2.0737,0.45206 4.08131,-0.63619 5.78711,-1.69726 2.19643,-1.42758 3.62666,-4.14547 3.04102,-6.77344 -0.60285,-2.79661 -2.79378,-5.0573 -5.29509,-6.30686 -0.75143,-0.34464 -1.58092,-0.52762 -2.40804,-0.50759 z" />
  <path
     id="path7960"
     style="fill:#808080;fill-opacity:1;stroke-width:1.94442"
     d="m 130.63074,260.92575 c -3.4505,0.21615 -6.13578,3.42274 -6.51085,6.73365 -0.43194,2.96401 1.16005,6.22564 4.03155,7.31491 2.51142,0.92734 5.45549,0.86523 7.86211,-0.34348 2.07456,-1.14816 3.01285,-3.56972 3.38867,-5.79297 0.35468,-2.31148 -0.78584,-4.69786 -2.74426,-5.95089 -1.77271,-1.14628 -3.88152,-2.0329 -6.02722,-1.96122 z" />
  <path
     style="fill:#000000;stroke-width:1.3133"
     d="m 281.46707,486.20462 c -4.06434,0.35902 -9.86434,0.17263 -12.88888,-0.41423 -3.02456,-0.58684 -8.2937,-2.32192 -11.70922,-3.85587 -3.41551,-1.53393 -8.79173,-5.33419 -11.94711,-8.44501 -3.15541,-3.11083 -7.08467,-8.06321 -8.7317,-11.0053 -1.64703,-2.94208 -3.67578,-8.48426 -4.50834,-12.31595 -1.07314,-4.93904 -1.11303,-9.14004 -0.13717,-14.43392 0.75722,-4.10698 2.58173,-9.97397 4.05458,-13.03775 1.47285,-3.06378 5.22662,-8.08917 8.34171,-11.16753 3.1151,-3.07833 9.35628,-7.26598 13.86929,-9.30585 4.51303,-2.03989 9.56588,-3.70935 11.22857,-3.70991 2.93342,-9.1e-4 3.02306,-0.38166 3.02306,-12.83809 0,-7.06041 -0.31148,-12.83709 -0.69208,-12.83709 -0.38063,0 -4.31063,0.96124 -8.73332,2.13602 -5.27096,1.40016 -8.04122,2.80124 -8.04122,4.06691 0,1.06197 -0.66894,5.60121 -1.48659,10.08715 -0.94261,5.17188 -2.29461,8.55835 -3.69486,9.25502 -1.2146,0.60433 -6.77591,1.49694 -12.35862,1.98365 -10.15036,0.88497 -10.15036,0.88497 -15.11676,-11.10387 -4.96638,-11.98876 -4.96638,-11.98876 -13.36234,-13.55517 -4.61781,-0.86155 -9.61806,-1.89244 -11.11169,-2.29099 -2.15817,-0.57586 -4.08187,1.00347 -9.37018,7.69246 -3.65995,4.62938 -7.46762,8.41703 -8.46147,8.41703 -1.367,0 -1.72721,2.10296 -1.47925,8.63717 0.32768,8.63715 0.32768,8.63715 -27.02418,8.66502 -27.35189,0.0279 -27.35189,0.0279 -28.89845,5.80456 -0.85061,3.17719 -2.616,7.92873 -3.92308,10.559 -1.30701,2.63029 -4.66889,7.27051 -7.47066,10.31165 -2.80179,3.04115 -8.63493,7.24349 -12.962576,9.33851 -7.172493,3.47224 -9.056671,3.8079 -21.304245,3.79532 -12.066824,-0.0128 -14.159057,-0.3765 -20.535419,-3.57401 -3.904848,-1.95814 -9.559212,-5.91012 -12.565256,-8.78221 -3.006053,-2.87209 -7.066548,-8.48465 -9.02331,-12.47233 -2.975905,-6.06456 -3.557759,-9.0393 -3.557759,-18.18886 0,-9.75335 0.474555,-11.85945 4.379656,-19.43841 2.423293,-4.70303 6.852553,-10.63444 9.91565,-13.27843 3.044779,-2.6282 8.683524,-6.15534 12.53055,-7.83807 3.847026,-1.68272 10.612106,-3.42078 15.033517,-3.86229 5.699732,-0.56926 10.306412,-0.17303 15.831411,1.36158 4.285854,1.19039 10.038432,3.51902 12.783491,5.17468 2.74509,1.65566 7.48997,5.72268 10.54419,9.03786 3.05422,3.31512 6.78252,9.16693 8.2851,13.00399 1.50259,3.83704 2.73198,7.84753 2.73198,8.91222 0,1.66504 3.24114,1.88271 23.17683,1.55647 23.17684,-0.37929 23.17684,-0.37929 23.61763,-4.0646 0.24247,-2.02692 0.0914,-5.0148 -0.3353,-6.63972 -0.51433,-1.95783 -2.4207,-3.47298 -5.65151,-4.49174 -4.87541,-1.53733 -4.87541,-1.53733 -3.94109,-13.69846 0.5139,-6.68861 1.18853,-12.82931 1.49928,-13.64599 0.31078,-0.81666 -1.69489,-3.24403 -4.45693,-5.39415 -5.02186,-3.90927 -5.02186,-3.90927 -19.12951,-3.03184 -7.7592,0.48266 -14.55336,0.4873 -15.09811,0.0103 -0.54481,-0.47685 -2.50977,-5.13485 -4.36665,-10.35105 -1.85691,-5.21604 -3.37617,-9.87854 -3.37617,-10.36095 0,-0.4824 3.25714,-2.94335 7.23805,-5.46875 7.23808,-4.59163 7.23808,-4.59163 3.20816,-16.54903 -2.21647,-6.57657 -4.47615,-12.81594 -5.02155,-13.86525 -0.60729,-1.16854 -4.77675,-2.51337 -10.75919,-3.47039 -5.37215,-0.85943 -9.961276,-1.74762 -10.198047,-1.97381 -0.236791,-0.22625 -1.063011,-5.23098 -1.836074,-11.12171 -0.773014,-5.89073 -1.142266,-11.11759 -0.820261,-11.61528 0.321868,-0.49762 4.999602,-2.53071 10.394822,-4.51787 5.39523,-1.98716 10.40794,-4.1348 11.13934,-4.77252 0.79531,-0.69355 -9.19429,-1.09587 -24.856319,-1.00122 -26.18616,0.15821 -26.18616,0.15821 -26.547671,-27.34503 -0.361491,-27.50329 -0.361491,-27.50329 -8.061502,-29.55598 -4.235004,-1.12896 -10.640219,-3.9178 -14.233823,-6.1974 -3.593603,-2.27957 -8.566662,-6.79095 -11.051225,-10.02527 -2.484563,-3.23432 -5.499876,-8.65896 -6.700704,-12.05474 -1.530828,-4.32895 -2.038627,-9.31633 -1.699143,-16.6882 0.362465,-7.87115 1.31061,-12.12749 3.771978,-16.93262 1.808302,-3.53019 6.034415,-9.01805 9.391393,-12.19523 3.356979,-3.17717 9.126666,-7.22086 12.821512,-8.98596 5.751497,-2.74758 8.55416,-3.20926 19.48198,-3.20926 11.227594,0 13.676468,0.42812 20.343908,3.55647 4.168905,1.95606 10.118036,6.18739 13.220316,9.40297 3.10227,3.21557 7.23197,9.12486 9.17713,13.13174 2.88964,5.95249 3.53662,9.16395 3.53662,17.5549 0,8.36602 -0.64929,11.60699 -3.50271,17.48414 -1.92651,3.96796 -5.65594,9.49157 -8.2876,12.27471 -2.63172,2.78316 -7.68919,6.55757 -11.238887,8.38757 -3.549677,1.83002 -9.023563,4.05193 -12.1642,4.9376 -5.710229,1.61033 -5.710229,1.61033 -5.710229,24.5139 0,22.90355 0,22.90355 22.777777,22.90355 22.777779,0 22.777779,0 24.198799,-4.8139 1.42101,-4.81392 1.42101,-4.81392 -7.65946,-12.69227 -9.08047,-7.87838 -9.08047,-7.87838 -4.41611,-17.09042 2.5654,-5.06663 5.33496,-9.74377 6.15456,-10.39367 0.92071,-0.73008 5.4722,-0.45367 11.90972,0.72308 5.73077,1.04767 11.15799,1.90474 12.0605,1.90474 0.90255,0 4.461,-3.12093 7.90778,-6.93537 6.26684,-6.93539 6.26684,-6.93539 2.94342,-16.27121 -1.82788,-5.1347 -3.32343,-10.33578 -3.32343,-11.55798 0,-1.22215 3.07622,-4.3337 6.83604,-6.91449 3.75983,-2.58078 8.25624,-5.31059 9.99206,-6.06623 2.82607,-1.23023 4.12473,-0.55137 12.42162,6.49389 9.2656,7.86781 9.2656,7.86781 19.13036,4.66211 5.4256,-1.76312 10.94066,-3.2057 12.25568,-3.2057 1.64651,0 2.6266,-1.29893 3.14781,-4.17204 0.41622,-2.29463 1.20324,-7.31898 1.74875,-11.16524 0.99193,-6.99318 0.99193,-6.99318 7.70143,-8.35002 6.70953,-1.35683 6.70953,-1.35683 7.09387,-12.32882 0.38435,-10.97201 0.38435,-10.97201 -6.71793,-12.65574 -3.90623,-0.92601 -9.95746,-3.4012 -13.44714,-5.50039 -3.4897,-2.09918 -8.17174,-5.80462 -10.40454,-8.234313 -2.23279,-2.429688 -5.29779,-6.736427 -6.81108,-9.570532 -1.51328,-2.834108 -3.38475,-8.426134 -4.15879,-12.426726 -1.02407,-5.293034 -0.97419,-9.377284 0.18319,-14.998224 0.87484,-4.248431 2.68976,-9.760471 4.03324,-12.248978 1.34345,-2.488503 4.63698,-6.955387 7.31891,-9.926403 2.92459,-3.239817 8.47221,-7.093246 13.8608,-9.627815 8.02912,-3.776581 10.202,-4.225967 20.43326,-4.225967 9.73615,0 12.65462,0.539088 19.51024,3.603853 4.8362,2.161999 10.58866,6.174066 14.37803,10.027996 3.76006,3.824125 7.49816,9.37949 9.23609,13.726217 1.9633,4.910336 2.93401,10.245346 2.96359,16.28803 0.0305,6.265734 -0.84686,11.180444 -2.89888,16.235185 -1.61858,3.987074 -5.27743,9.783231 -8.1308,12.880349 -2.85335,3.097128 -8.12355,7.144708 -11.71156,8.994648 -3.58801,1.84995 -9.09326,4.08816 -12.23388,4.97385 -5.71024,1.61031 -5.71024,1.61031 -5.71024,14.4107 0,9.03676 0.83203,15.70102 2.82971,22.66563 2.8297,9.86522 2.8297,9.86522 11.75637,11.41534 4.90966,0.85255 10.43819,1.84273 12.28561,2.20039 2.6448,0.51191 5.18325,-0.84315 11.93907,-6.37359 8.58009,-7.02383 8.58009,-7.02383 19.14608,-1.9481 5.81128,2.79164 10.55119,5.79136 10.53313,6.66602 -0.018,0.87465 -0.62753,4.18983 -1.35439,7.36701 -0.72688,3.17718 -1.60639,6.98451 -1.95447,8.46075 -0.48494,2.05664 1.40912,4.40758 8.10215,10.05677 8.30424,7.00911 8.99707,7.33039 14.04903,6.51492 5.31403,-0.85784 5.31403,-0.85784 5.68047,-23.53571 0.36648,-22.67792 0.36648,-22.67792 31.51392,-23.02229 31.14746,-0.34432 31.14746,-0.34432 32.83766,-7.56036 0.92957,-3.96877 3.96345,-10.57644 6.74191,-14.68368 3.24194,-4.79239 7.60273,-9.073 12.17242,-11.94866 3.91638,-2.46453 10.95221,-5.48658 15.6352,-6.71565 7.1578,-1.8786 9.88708,-2.01004 17.12854,-0.82487 4.73772,0.77536 11.30244,2.65321 14.58825,4.17296 3.28584,1.51975 8.51665,5.18217 11.62409,8.1387 3.10742,2.95652 7.37257,8.84152 9.4781,13.07775 3.25965,6.5583 3.8284,9.2956 3.82931,18.43024 9e-4,9.25838 -0.54799,11.82702 -4.00642,18.75073 -2.28147,4.56732 -6.56405,10.27425 -9.94333,13.25033 -3.26471,2.8752 -8.56554,6.53094 -11.77964,8.12387 -4.42554,2.19337 -8.81139,3.02948 -18.07159,3.44521 -10.40699,0.46731 -13.20798,0.13621 -18.81019,-2.22316 -3.62032,-1.52466 -8.81717,-4.24633 -11.54858,-6.04816 -2.73139,-1.80184 -7.09124,-6.25179 -9.68856,-9.88878 -2.59732,-3.63701 -5.476,-9.35666 -6.39706,-12.71034 -1.67466,-6.09762 -1.67466,-6.09762 -28.93948,-6.09762 -27.26482,0 -27.26482,0 -27.26482,17.33007 0,16.43772 0.13717,17.33008 2.67028,17.33008 1.95834,0 3.92853,2.38721 7.38971,8.9539 2.59569,4.92465 4.71945,9.67368 4.71945,10.55337 0,0.87969 -3.2889,4.79339 -7.30867,8.69708 -7.30866,7.09762 -7.30866,7.09762 -3.98326,17.99034 1.82897,5.99101 3.7575,11.2846 4.2856,11.76355 0.52818,0.47895 5.16919,1.66014 10.31354,2.62487 9.35335,1.75402 9.35335,1.75402 10.46577,6.85022 0.61188,2.8029 0.93749,8.22703 0.72355,12.05362 -0.38892,6.95742 -0.38892,6.95742 -11.03601,10.34584 -10.64712,3.38839 -10.64712,3.38839 -12.30309,11.01449 -0.91087,4.19436 -2.28563,9.17376 -3.05519,11.06534 -1.32461,3.25578 -0.94025,3.76935 7.20336,9.62782 4.73136,3.4037 8.63009,7.14232 8.66383,8.30801 0.0332,1.16576 -1.70998,6.0759 -3.8749,10.91153 -3.93625,8.79206 -3.93625,8.79206 -9.741,8.76077 -3.1926,-0.0173 -9.73473,-0.40827 -14.53805,-0.86909 -8.73333,-0.83772 -8.73333,-0.83772 -15.15816,5.96807 -6.06754,6.42735 -6.37554,7.10032 -5.53852,12.10152 0.88635,5.29571 0.88635,5.29571 59.09076,5.29571 58.20441,0 58.20441,0 57.9383,-29.05732 -0.26604,-29.0573 -0.26604,-29.0573 -7.65582,-30.84462 -4.06435,-0.98306 -10.52033,-3.83478 -14.34664,-6.33726 -3.82633,-2.50247 -9.10183,-7.54104 -11.72338,-11.19683 -2.64893,-3.694 -5.80456,-10.4579 -7.10322,-15.22537 -1.98311,-7.28005 -2.10544,-9.86897 -0.8082,-17.10466 0.962,-5.36595 3.18543,-11.16907 5.99865,-15.65656 2.49674,-3.98267 7.47222,-9.31157 11.2707,-12.07133 3.74035,-2.71749 9.48417,-5.88846 12.76405,-7.04655 3.44845,-1.21765 10.21318,-2.13746 16.0403,-2.18113 8.28662,-0.0622 11.57868,0.57044 18.53002,3.56013 5.76202,2.47822 10.54391,5.82135 15.02047,10.50113 3.94126,4.1202 7.73132,9.81534 9.47825,14.24252 2.38954,6.05575 2.8106,9.33137 2.3509,18.28857 -0.40972,7.98311 -1.36146,12.39125 -3.54604,16.42512 -1.64232,3.03248 -5.17656,7.83023 -7.8539,10.66165 -2.67731,2.8314 -7.59649,6.67582 -10.93146,8.54314 -3.33496,1.86735 -8.82706,4.0653 -12.20464,4.88437 -6.14105,1.48922 -6.14105,1.48922 -6.49926,35.04507 -0.35817,33.55589 -0.35817,33.55589 -61.38386,33.55589 -61.02567,0 -61.02567,0 -61.44669,4.06198 -0.38589,3.72333 -1.30341,4.44005 -11.00406,8.5968 -10.58302,4.53479 -10.58302,4.53479 -15.78664,-1.17371 -5.2036,-5.70844 -5.2036,-5.70844 -4.86819,4.50747 0.33545,10.2159 0.33545,10.2159 5.37934,11.21348 2.77416,0.54858 7.91337,2.40164 11.42047,4.11773 3.50709,1.71609 8.91547,5.62391 12.01858,8.68401 3.10313,3.06012 7.29565,9.02538 9.3167,13.25615 2.96755,6.21208 3.67279,9.54686 3.66493,17.33006 -0.009,7.74473 -0.73574,11.17848 -3.70576,17.48173 -2.12693,4.51389 -6.36331,10.34549 -9.97877,13.73631 -3.4555,3.2408 -9.60809,7.30829 -13.67244,9.03887 -4.06434,1.73059 -10.71508,3.44023 -14.77943,3.79924 z m -3.35895,-13.2372 c 4.8033,0 8.73329,-0.54449 8.73329,-1.20984 0,-0.66549 2.56961,-1.38754 5.71023,-1.60464 5.71025,-0.39476 5.71025,-0.39476 6.07233,-28.3154 0.36206,-27.92066 0.36206,-27.92066 -5.71023,-27.92066 -4.50191,0 -6.07233,-0.49803 -6.07233,-1.92557 0,-1.51412 -1.86609,-1.92556 -8.73329,-1.92556 -6.86722,0 -8.73332,0.41144 -8.73332,1.92556 0,1.42634 -1.56751,1.92557 -6.04611,1.92557 -6.04614,0 -6.04614,0 -6.04614,28.24159 0,28.24159 0,28.24159 6.04614,28.24159 3.32536,0 6.04611,0.57772 6.04611,1.28372 0,0.72413 3.80682,1.28371 8.73332,1.28371 z m 0,-5.13484 c -18.1384,0 -18.1384,0 -18.1384,-12.83708 0,-12.83709 0,-12.83709 18.1384,-12.83709 18.13838,0 18.13838,0 18.13838,12.83709 0,12.83708 0,12.83708 -18.13838,12.83708 z m 0.22389,-10.26966 c 4.92648,0 5.82221,-0.39502 5.82221,-2.56742 0,-2.22509 -0.89577,-2.56742 -6.71793,-2.56742 -4.70255,0 -6.71792,0.51352 -6.71792,1.7116 0,0.94137 0.40306,2.09674 0.89577,2.56744 0.49272,0.47074 3.5157,0.85585 6.71791,0.85585 z m -0.22389,-23.10676 c -1.10846,0 -2.01539,-0.86645 -2.01539,-1.92556 0,-1.05905 -0.90698,-1.92557 -2.01538,-1.92557 -1.10846,0 -2.01536,-0.86657 -2.01536,-1.92556 0,-1.05906 0.90685,-1.92555 2.01536,-1.92555 1.10846,0 2.01538,-0.86658 2.01538,-1.92558 0,-1.05906 0.90687,-1.92555 2.01539,-1.92555 1.10844,0 2.01537,0.86644 2.01537,1.92555 0,1.05906 0.90686,1.92558 2.01537,1.92558 1.10846,0 2.01539,0.86643 2.01539,1.92555 0,1.05906 -0.90701,1.92556 -2.01539,1.92556 -1.10845,0 -2.01537,0.86658 -2.01537,1.92557 0,1.05906 -0.90699,1.92556 -2.01537,1.92556 z m -200.530042,-8.3441 c 26.535772,0 26.535772,0 26.535792,-4.09629 10e-6,-2.25297 -0.65732,-4.48442 -1.46062,-4.95881 -0.80335,-0.47433 -2.13351,-0.21962 -2.955895,0.56607 -0.822335,0.78569 -3.742375,1.42861 -6.488891,1.42861 -2.774803,0 -5.263893,-0.71302 -5.601848,-1.60464 -0.486611,-1.28372 -1.177049,-1.28372 -3.45271,0 -1.564461,0.88259 -4.372421,1.60464 -6.239909,1.60464 -1.867487,0 -4.581352,-0.70759 -6.030821,-1.5725 -2.079593,-1.24081 -2.982517,-1.24081 -4.281238,0 -0.905193,0.86485 -3.892988,1.5725 -6.639494,1.5725 -2.774822,0 -5.263913,-0.71302 -5.601868,-1.60464 -0.471779,-1.24465 -1.207381,-1.26795 -3.27899,-0.10326 -2.525314,1.41924 -2.670775,1.13478 -2.670775,-5.22221 0,-6.7232 0,-6.7232 12.908011,-6.63582 12.248081,0.0834 13.093796,0.26781 16.541802,3.61756 1.998586,1.94162 4.870493,3.53022 6.38202,3.53022 1.511537,0 3.957471,-1.15531 5.435403,-2.56741 1.477952,-1.41209 2.687174,-3.14511 2.687174,-3.85113 0,-0.706 1.209193,-1.28372 2.687164,-1.28372 1.477952,0 2.687184,0.57772 2.687184,1.28372 0,0.70599 1.209183,1.2837 2.687161,1.2837 2.32887,0 2.68717,-0.85584 2.68717,-6.41853 0,-5.56274 -0.35832,-6.41855 -2.68717,-6.41855 -1.477949,0 -2.687161,0.57772 -2.687161,1.28371 0,0.706 -1.209193,1.28371 -2.687184,1.28371 -2.19401,0 -2.687164,-0.85585 -2.687164,-4.66332 0,-3.18067 -0.922925,-5.42807 -2.902571,-7.06855 -1.59641,-1.3229 -2.637521,-2.65846 -2.313559,-2.96798 0.323952,-0.30951 2.839354,-0.0781 5.589745,0.51483 4.959845,1.06872 5.000733,1.04424 5.000733,-3.00386 0,-4.08146 0,-4.08146 -14.107641,-4.14084 -14.107642,-0.0596 -14.107642,-0.0596 -14.107642,3.36083 0,1.88112 0.34778,3.75254 0.772878,4.1587 0.425087,0.40615 2.627336,0.23035 4.893833,-0.39066 2.266498,-0.621 4.669975,-0.80502 5.341075,-0.40866 0.671031,0.39623 -0.321869,1.98653 -2.20666,3.53389 -2.293208,1.88261 -3.426836,4.12024 -3.426836,6.764 0,3.95067 0,3.95067 -11.084577,3.69963 -6.096512,-0.13807 -13.3416,0.25166 -16.100171,0.86591 -2.871391,0.63954 -5.660645,2.26858 -6.524452,3.81071 -0.829814,1.48152 -1.54189,6.04304 -1.582252,10.13669 -0.04713,4.83085 0.698053,8.5679 2.124717,10.64822 1.20891,1.76288 3.573359,3.39167 5.254253,3.61956 1.680885,0.22797 14.997264,0.41436 29.591935,0.41436 z M 233.07825,371.55443 c 1.38322,0 3.46513,-0.90775 4.62635,-2.01726 1.16126,-1.10949 2.11136,-2.73209 2.11136,-3.60575 0,-0.87374 -0.78964,-2.62031 -1.75478,-3.88136 -1.05179,-1.37423 -3.00862,-2.11542 -4.88446,-1.84998 -1.72133,0.24358 -3.94677,1.62496 -4.94538,3.06978 -1.54469,2.23487 -1.50616,3.04918 0.25814,5.45578 1.14059,1.55584 3.20556,2.82879 4.58881,2.82879 z m -4.01099,-24.39045 c 21.49736,0 21.49736,0 21.49736,-8.98597 0,-8.98596 0,-8.98596 -21.49736,-8.98596 -21.49734,0 -21.49734,0 -21.49734,8.98596 0,8.98597 0,8.98597 21.49734,8.98597 z m -68.3385,-3.85112 c 0.73477,0 2.50542,-0.59798 3.93479,-1.32889 1.46488,-0.74902 2.59884,-2.67773 2.59884,-4.42018 0,-1.73131 -1.30259,-3.96302 -2.96076,-5.0727 -2.51882,-1.68564 -3.37113,-1.72244 -5.71023,-0.24663 -1.51222,0.95408 -2.93282,2.89631 -3.15689,4.31599 -0.22404,1.41968 0.57488,3.51973 1.77545,4.6668 1.2006,1.14708 2.78404,2.08558 3.5188,2.08558 z m 144.8543,0 c 1.33472,0 3.14901,-0.83164 4.03185,-1.84795 0.88289,-1.01643 1.41035,-3.40915 1.1722,-5.31729 -0.27601,-2.21166 -1.54036,-3.85762 -3.48766,-4.54039 -2.28525,-0.80133 -3.72356,-0.43197 -5.71022,1.46614 -1.46058,1.39549 -2.65556,3.36246 -2.65556,4.37108 0,1.00862 0.95008,2.74166 2.11135,3.85113 1.16124,1.1095 3.20333,2.01728 4.53804,2.01728 z M 188.85318,324.05721 c 16.04856,0 16.21201,-0.0304 15.78711,-2.88835 -0.41386,-2.78402 -0.99955,-2.90141 -16.21645,-3.25001 -15.78712,-0.36167 -15.78712,-0.36167 -15.78712,2.88835 0,3.25001 0,3.25001 16.21646,3.25001 z m 40.12064,0 c 16.15196,0 16.21648,-0.012 16.21648,-3.03395 0,-3.02559 -0.0429,-3.03355 -15.78713,-2.88834 -15.29585,0.1411 -15.80047,0.2355 -16.21646,3.03394 -0.42496,2.85844 -0.26146,2.88835 15.78711,2.88835 z m 41.83802,0 c 16.04856,0 16.21203,-0.0304 15.78712,-2.88835 -0.41359,-2.78199 -1.01064,-2.90276 -16.21646,-3.28023 -15.78712,-0.39185 -15.78712,-0.39185 -15.78712,2.88834 0,3.28024 0,3.28024 16.21646,3.28024 z m 29.61421,-3.85112 c 2.21912,-2.47115 6.41574,-9.11434 9.32583,-14.76266 2.9101,-5.64831 6.27683,-14.0245 7.48161,-18.61377 1.65228,-6.29374 2.01404,-11.81396 1.47222,-22.4649 -0.4679,-9.19882 -1.6355,-16.59184 -3.34971,-21.21005 -1.44728,-3.8991 -4.32088,-10.25345 -6.38578,-14.1208 -3.75438,-7.03154 -3.75438,-7.03154 -4.82311,-3.28983 -0.58775,2.05795 -1.85011,4.21536 -2.80517,4.79424 -0.95507,0.57891 -3.07557,1.06144 -4.71227,1.07217 -1.70423,0.0116 -3.65604,1.25379 -4.56779,2.908 -0.87554,1.5886 -2.25724,3.31276 -3.07033,3.83147 -0.81305,0.51867 -3.10534,0.95196 -5.09389,0.96281 -1.98857,0.0103 -3.98925,0.59731 -4.44597,1.30331 -0.45668,0.706 -2.27054,1.28371 -4.03075,1.28371 -1.76019,0 -3.50681,-0.47365 -3.88134,-1.0527 -0.37452,-0.57904 -0.96089,-2.45641 -1.30299,-4.17204 -0.3421,-1.71562 -1.0249,-4.08559 -1.51758,-5.26656 -0.56226,-1.34786 0.1617,-3.15743 1.94443,-4.86074 1.56202,-1.49242 3.42262,-2.36948 4.13461,-1.94905 0.71205,0.42044 1.29455,-0.0953 1.29455,-1.14511 0,-1.05032 0.90865,-2.77776 2.01914,-3.8388 1.51247,-1.4451 4.53357,-1.84002 12.04011,-1.57393 6.05413,0.21459 10.96788,1.06899 12.41299,2.1584 1.31561,0.99167 -0.15768,-1.14842 -3.27381,-4.75589 -3.11621,-3.60745 -8.8549,-8.8873 -12.75265,-11.733 -3.89776,-2.84568 -10.76285,-6.9293 -15.25577,-9.07469 -4.49292,-2.1454 -12.02704,-4.8559 -16.7425,-6.02334 -5.21324,-1.29073 -13.59679,-2.09638 -21.38993,-2.05567 -7.04899,0.0371 -16.44403,0.95939 -20.87786,2.05021 -4.43383,1.09083 -12.2938,3.96292 -17.4666,6.38252 -5.1728,2.41958 -12.4668,6.88783 -16.20884,9.92944 -3.74206,3.0416 -9.2723,8.41854 -12.28942,11.94873 -3.01713,3.5302 -7.3077,9.88457 -9.53458,14.1208 -2.22693,4.23624 -5.03686,10.87943 -6.24433,14.76266 -1.20753,3.8832 -2.55171,11.7036 -2.98718,17.37862 -0.55742,7.26409 -0.11501,13.53364 1.49315,21.18119 1.2804,6.08758 4.46021,15.09539 7.23325,20.49078 4.94833,9.62781 4.94833,9.62781 5.62012,-4.38998 0.65164,-13.59732 0.7726,-14.04682 4.03075,-14.98457 1.84745,-0.53178 13.3969,-3.89965 25.6655,-7.48432 12.26856,-3.58466 22.665,-6.51757 23.10321,-6.51757 0.43825,0 0.98098,2.5447 1.20628,5.65488 0.40957,5.65484 0.40957,5.65484 19.89148,0.0199 10.71508,-3.09936 19.63312,-5.64405 19.81787,-5.65486 0.1847,-0.0103 0.33587,2.57989 0.33587,5.75707 0,3.17717 0.15116,5.76925 0.33586,5.76016 0.18469,-0.009 9.10278,-2.53419 19.81787,-5.61133 19.48198,-5.59481 19.48198,-5.59481 19.89028,20.87678 0.40832,26.47161 0.40832,26.47161 4.44304,21.97863 z M 186.40847,277.93094 c -9.79201,3.16894 -11.08499,3.33556 -11.08802,1.42907 -9.4e-4,-1.18694 0.9875,-9.23461 2.19868,-17.8836 2.20213,-15.72542 2.20213,-15.72542 9.97339,-15.72542 7.77125,0 7.77125,0 8.65502,8.02317 0.48606,4.41275 0.98764,10.8461 1.11469,14.29634 0.23084,6.27319 0.23084,6.27319 -10.85371,9.86044 z m 36.94399,1.19647 c -0.55174,0 -1.00316,-1.02609 -1.00316,-2.28016 0,-1.25407 0.60439,-7.17521 1.34318,-13.15802 0.73877,-5.98282 1.67304,-12.75527 2.07626,-15.04991 0.72895,-4.14847 0.77731,-4.17204 8.5482,-4.17204 7.81508,0 7.81508,0 8.74421,8.66503 0.51099,4.76577 1.27126,11.04974 1.68932,13.9644 0.76013,5.29937 0.76013,5.29937 -9.81737,8.66504 -5.81765,1.85112 -11.02895,3.36566 -11.58064,3.36566 z m 40.95133,0 c -1.3052,0 -1.64944,-1.0535 -1.15348,-3.5302 0.3888,-1.94161 1.43177,-9.74015 2.31762,-17.33007 1.61061,-13.79986 1.61061,-13.79986 9.39432,-13.79986 7.78369,0 7.78369,0 8.64831,5.50879 0.47554,3.02983 0.96602,9.46387 1.09003,14.29786 0.22544,8.7891 0.22544,8.7891 -9.10551,11.82128 -5.13201,1.66772 -10.16812,3.0322 -11.19134,3.0322 z m -72.1851,-37.22756 c -1.7602,0 -3.59538,-0.61068 -4.0782,-1.35704 -0.48286,-0.74636 -1.05178,-2.62381 -1.26447,-4.17206 -0.21269,-1.54825 -0.80696,-3.78126 -1.32072,-4.96223 -0.59789,-1.37437 0.0886,-3.12397 1.90597,-4.86074 1.56203,-1.49243 3.42263,-2.36949 4.13463,-1.94905 0.71204,0.42044 1.29454,-0.0953 1.29454,-1.14512 0,-1.05032 0.94372,-2.81133 2.09723,-3.9134 1.61903,-1.54687 4.36712,-1.90344 12.05278,-1.56388 5.47555,0.24185 10.88024,1.17303 12.01042,2.06923 1.13021,0.89623 2.05486,2.96157 2.05486,4.58979 0,1.62821 -0.95009,3.86816 -2.11136,4.97764 -1.16124,1.1095 -3.55841,2.01726 -5.32705,2.01726 -1.96739,0 -3.83373,1.12129 -4.80772,2.88835 -0.87554,1.58858 -2.25725,3.31275 -3.07032,3.83147 -0.81307,0.51867 -3.10536,0.95196 -5.09393,0.96282 -1.98855,0.0103 -3.98922,0.59731 -4.44594,1.3033 -0.45667,0.706 -2.27055,1.28371 -4.03074,1.28371 z m -0.26865,-2.56742 c 1.13312,0 2.28165,-0.63504 2.5524,-1.41105 0.27074,-0.77601 2.56805,-1.56707 5.10507,-1.75776 2.82501,-0.21234 5.15107,-1.271 6.00171,-2.73141 0.76386,-1.31165 2.29584,-3.09666 3.4043,-3.96678 1.10846,-0.87016 2.98808,-1.3037 4.17696,-0.96334 1.18882,0.34021 2.91919,-0.25352 3.84517,-1.3196 0.92598,-1.06594 1.30437,-2.88248 0.84076,-4.03661 -0.62323,-1.55176 -1.87388,-1.9014 -4.80077,-1.3421 -2.2056,0.4215 -4.34559,0.157 -4.8335,-0.59717 -0.60632,-0.93727 -1.30534,-0.94283 -2.27328,-0.0185 -0.96796,0.92482 -2.20513,0.9227 -4.02338,-0.008 -1.44406,-0.73844 -3.1066,-0.85573 -3.69449,-0.2608 -0.5879,0.59492 -1.28401,2.23704 -1.54674,3.64912 -0.31604,1.69788 -1.72529,2.705 -4.16115,2.9736 -2.55429,0.28171 -3.68338,1.14378 -3.68338,2.8126 0,1.32357 0.54785,2.72988 1.2175,3.12529 0.66965,0.39542 0.90145,1.87365 0.51516,3.28503 -0.47678,1.74173 -0.0402,2.56613 1.35772,2.56613 z m 41.88777,2.56742 c -1.90155,0 -3.84987,-1.10235 -4.73211,-2.67736 -0.82484,-1.47254 -1.1697,-2.99267 -0.76636,-3.37805 0.40334,-0.38537 0.12886,-1.78008 -0.61021,-3.09932 -0.90935,-1.62353 -0.87886,-3.22829 0.0943,-4.96606 0.79103,-1.41209 2.62609,-2.56742 4.07803,-2.56742 1.45194,0 2.6399,-0.77696 2.6399,-1.7266 0,-0.94958 1.11413,-2.69 2.47598,-3.86749 1.98495,-1.7163 4.40381,-2.02509 12.19664,-1.55708 5.34637,0.32116 10.58061,1.26571 11.63167,2.09911 1.05109,0.83334 1.91099,2.84748 1.91099,4.47569 0,1.62823 -0.95008,3.86818 -2.11137,4.97766 -1.16124,1.1095 -3.59463,2.01726 -5.40757,2.01726 -2.229,0 -3.68717,0.98241 -4.50367,3.0342 -0.66409,1.66879 -2.21008,3.4018 -3.43557,3.85112 -1.22555,0.4493 -3.6546,0.81692 -5.39799,0.81692 -1.74338,0 -3.54344,0.57772 -4.00016,1.28372 -0.45667,0.70599 -2.28494,1.28371 -4.06277,1.28371 z m -0.16433,-2.56742 c 1.09335,0 2.20938,-0.63504 2.48015,-1.41105 0.27075,-0.77601 2.56806,-1.56707 5.10508,-1.75776 2.82501,-0.21234 5.15107,-1.271 6.00169,-2.73141 0.76386,-1.31165 2.29585,-3.09666 3.4043,-3.96678 1.10846,-0.87016 2.9881,-1.3037 4.17698,-0.96334 1.18882,0.34021 2.91919,-0.25352 3.84515,-1.3196 0.92598,-1.06594 1.30438,-2.88248 0.84076,-4.03661 -0.62322,-1.55176 -1.8739,-1.9014 -4.80077,-1.3421 -2.2056,0.4215 -4.34559,0.157 -4.8335,-0.59717 -0.60632,-0.93727 -1.30534,-0.94283 -2.2733,-0.0185 -0.96796,0.92482 -2.20511,0.9227 -4.02336,-0.008 -1.44407,-0.73844 -3.1066,-0.85573 -3.69449,-0.2608 -0.5879,0.59492 -1.28568,2.23041 -1.55068,3.63439 -0.26493,1.40395 -1.68402,2.75979 -3.15346,3.01293 -1.46948,0.25311 -3.2055,0.94309 -3.85784,1.53309 -0.65232,0.59003 -0.71065,2.12257 -0.12886,3.4056 0.58125,1.28305 0.92585,3.3437 0.76581,4.57927 -0.16225,1.25247 0.58859,2.24649 1.69692,2.24649 z m -44.81366,74.45512 c 16.12302,0 16.12302,0 16.12302,-3.20928 0,-3.20927 0,-3.20927 -16.12302,-3.20927 -16.12301,0 -16.12301,0 -16.12301,3.20927 0,3.20928 0,3.20928 16.12301,3.20928 z m 40.30753,0 c 16.12303,0 16.12303,0 16.12303,-3.20928 0,-3.20927 0,-3.20927 -16.12303,-3.20927 -16.12301,0 -16.12301,0 -16.12301,3.20927 0,3.20928 0,3.20928 16.12301,3.20928 z m 41.31522,-0.28012 c 15.2169,-0.34857 15.80263,-0.46599 16.21648,-3.25002 0.42494,-2.85844 0.26146,-2.88835 -15.78712,-2.88835 -16.21648,0 -16.21648,0 -16.21648,3.25002 0,3.25 0,3.25 15.78712,2.88835 z m -81.62275,-11.2732 c 15.22728,0 16.12302,-0.14259 16.12302,-2.56742 0,-2.42478 -0.89577,-2.56742 -16.12302,-2.56742 -15.22729,0 -16.12301,0.14257 -16.12301,2.56742 0,2.4248 0.89576,2.56742 16.12301,2.56742 z m 40.30753,0 c 15.2273,0 16.12303,-0.14259 16.12303,-2.56742 0,-2.42478 -0.89577,-2.56742 -16.12303,-2.56742 -15.22728,0 -16.12301,0.14257 -16.12301,2.56742 0,2.4248 0.89577,2.56742 16.12301,2.56742 z m 41.65113,0 c 15.22728,0 16.12302,-0.14259 16.12302,-2.56742 0,-2.42478 -0.89578,-2.56742 -16.12302,-2.56742 -15.22729,0 -16.12303,0.14257 -16.12303,2.56742 0,2.4248 0.89578,2.56742 16.12303,2.56742 z M 432.17257,284.2623 c 13.03947,0 13.21191,-0.0397 13.21191,-3.07192 0,-1.68957 -0.94925,-3.42 -2.10961,-3.8454 -1.26545,-0.46386 -1.93748,-1.9316 -1.67949,-3.66753 0.40819,-2.74613 1.15487,-2.9269 14.60861,-3.53593 14.17845,-0.6418 14.17845,-0.6418 6.86289,-17.65101 -7.31559,-17.00914 -7.31559,-17.00914 -31.7456,-17.00914 -24.43003,0 -24.43003,0 -30.66372,15.08359 -3.42851,8.29597 -6.62217,16.09448 -7.09701,17.33007 -0.78784,2.05015 0.38214,2.24649 13.38801,2.24649 14.2514,0 14.2514,0 14.2514,3.85112 0,2.56742 -0.67173,3.85112 -2.01539,3.85112 -1.10845,0 -2.01537,1.05907 -2.01537,2.35347 0,1.29443 0.40306,2.73859 0.89578,3.20928 0.4927,0.47075 6.84106,0.85585 14.10764,0.85585 z m -0.89577,-16.68822 c -17.36584,0 -31.53385,-0.43328 -31.48452,-0.96281 0.0498,-0.52953 2.31663,-7.0283 5.03844,-14.44172 4.94873,-13.47895 4.94873,-13.47895 26.60747,-13.83087 21.65876,-0.35187 21.65876,-0.35187 26.53578,13.13739 2.6824,7.41914 4.87707,14.07627 4.87707,14.79366 0,0.84632 -11.08766,1.30435 -31.57424,1.30435 z m -20.31047,-1.2837 c 7.75847,0 8.65387,-0.2755 9.38673,-2.88836 0.44561,-1.58858 0.81846,-4.47693 0.82857,-6.41854 0.018,-3.4243 -0.2027,-3.53018 -7.35333,-3.53018 -7.20214,0 -7.41846,0.10722 -9.4051,4.64974 -1.11843,2.55736 -2.0334,5.44571 -2.0334,6.41853 0,1.31788 2.18653,1.76881 8.5766,1.76881 z m 20.08653,0 c 4.68017,0 8.80309,-0.28065 9.16207,-0.62365 0.359,-0.34301 0.30856,-3.08692 -0.11223,-6.09762 -0.7647,-5.47401 -0.7647,-5.47401 -8.31002,-5.85387 -7.50968,-0.37809 -7.54938,-0.36061 -8.39741,3.69066 -0.46859,2.23878 -0.85212,5.15364 -0.85212,6.47747 0,2.10009 1.08475,2.40696 8.50936,2.40696 z m 21.89113,0 c 8.449,0 8.71304,-0.098 7.812,-2.88836 -0.51295,-1.58858 -1.77839,-4.47693 -2.81222,-6.41854 -1.71063,-3.21276 -2.55168,-3.53018 -9.35298,-3.53018 -7.47331,0 -7.47331,0 -6.52843,5.45576 0.51973,3.00066 1.21308,5.88899 1.54099,6.41853 0.32782,0.52952 4.53113,0.96281 9.34064,0.96281 z m -37.79021,-14.1208 c 5.00816,0 7.39449,-0.51709 7.40451,-1.60463 0.009,-0.8826 0.38949,-3.77091 0.84756,-6.41856 0.83271,-4.8139 0.83271,-4.8139 -5.4577,-4.8139 -5.90804,0 -6.40886,0.27059 -8.23731,4.45175 -1.07077,2.44847 -1.94681,5.33681 -1.94681,6.41855 0,1.52817 1.64794,1.96679 7.38971,1.96679 z m 15.96631,0 c 6.48301,0 7.54642,-0.33917 7.54642,-2.40696 0,-1.32382 -0.37784,-4.21216 -0.83979,-6.41855 -0.78701,-3.75942 -1.20919,-4.01158 -6.71792,-4.01158 -5.51239,0 -5.87933,0.21962 -5.89654,3.5302 -0.0107,1.94161 -0.38296,4.82994 -0.82857,6.41855 -0.76967,2.74436 -0.43396,2.88834 6.73628,2.88834 z m 17.45762,0 c 7.30834,0 7.30834,0 5.16005,-6.41854 -2.14831,-6.41855 -2.14831,-6.41855 -8.67068,-6.41855 -6.52234,0 -6.52234,0 -5.68498,4.8139 0.46057,2.64765 1.07355,5.536 1.36229,6.41856 0.33545,1.02556 3.16231,1.60463 7.83332,1.60463 z m -317.02453,21.823 c 1.60917,0 3.65127,-0.69316 4.53804,-1.54046 0.88676,-0.84725 1.6123,-2.88148 1.6123,-4.52051 0,-1.9569 -1.18909,-3.49766 -3.4633,-4.48771 -2.45195,-1.0674 -4.11946,-1.11479 -5.71023,-0.16229 -1.2358,0.73987 -2.4445,2.61791 -2.68596,4.17326 -0.24151,1.55534 0.28598,3.6626 1.17219,4.68281 0.88621,1.02012 2.92781,1.8549 4.53696,1.8549 z m 203.65728,0 c 2.60368,0 4.43939,-0.89835 5.42255,-2.65351 1.15626,-2.06412 1.01064,-3.3472 -0.65552,-5.77669 -1.178,-1.71775 -3.32319,-3.12318 -4.76706,-3.12318 -1.44386,0 -3.58905,1.40543 -4.76707,3.12318 -1.6661,2.42949 -1.8117,3.71257 -0.6555,5.77669 0.98319,1.7552 2.81888,2.65351 5.42256,2.65351 z m -60.05818,-34.66015 c 1.13312,0 2.28163,-0.63504 2.5524,-1.41105 0.27073,-0.77601 2.56804,-1.56707 5.10506,-1.75776 2.82503,-0.21234 5.15108,-1.271 6.0017,-2.73141 0.76387,-1.31165 2.24812,-3.04019 3.29822,-3.84133 1.05012,-0.80118 2.90619,-1.20759 4.12462,-0.90312 1.21848,0.30447 2.99648,-0.34578 3.95124,-1.44496 0.9548,-1.09916 1.35676,-2.94274 0.89315,-4.09689 -0.62323,-1.55176 -1.8739,-1.90139 -4.80078,-1.34209 -2.17688,0.41595 -4.33754,0.16958 -4.80146,-0.54767 -0.55576,-0.85902 -1.49032,-0.79111 -2.73927,0.19924 -1.45622,1.15478 -2.37623,1.12221 -3.96809,-0.13993 -1.23024,-0.97552 -2.54212,-1.16986 -3.22854,-0.47817 -0.63597,0.64087 -1.3713,2.32047 -1.63403,3.73256 -0.31591,1.69787 -1.7253,2.70499 -4.16117,2.9736 -2.55429,0.28171 -3.68336,1.14377 -3.68336,2.81259 0,1.32357 0.54786,2.7299 1.21751,3.12528 0.66964,0.39542 0.9013,1.87365 0.51501,3.28504 -0.47677,1.74174 -0.0402,2.56613 1.35772,2.56613 z M 160.72876,205.95601 c 0.73477,0 2.50542,-0.59797 3.93479,-1.32887 1.45808,-0.74557 2.59884,-2.67751 2.59884,-4.4013 0,-1.68982 -0.9501,-3.98017 -2.11136,-5.08966 -1.16125,-1.1095 -2.77631,-2.01725 -3.58906,-2.01725 -0.81278,0 -2.5834,0.95606 -3.93479,2.12452 -1.35134,1.16854 -2.45706,3.14906 -2.45706,4.40128 0,1.2522 0.95009,3.18453 2.11135,4.29402 1.16124,1.10951 2.71253,2.01726 3.44729,2.01726 z m 144.45928,0 c 0.99387,0 2.97149,-1.11241 4.3946,-2.47215 1.65882,-1.58489 2.31521,-3.46679 1.82892,-5.24353 -0.4172,-1.52424 -2.18371,-3.39177 -3.92557,-4.15006 -2.54713,-1.10883 -3.69413,-0.92297 -5.85968,0.94944 -1.48095,1.28054 -2.69263,3.20411 -2.69263,4.27466 0,1.07058 1.00066,3.00284 2.22361,4.29403 1.22304,1.29112 3.03682,2.34757 4.03075,2.34757 z M 53.545137,178.99813 c 2.045978,0 4.88318,-0.59479 6.304897,-1.32172 1.421717,-0.72691 3.547301,-3.09986 4.723561,-5.2731 1.272507,-2.35102 1.797455,-5.25003 1.296199,-7.15802 -0.713293,-2.7151 0.351383,-4.25939 6.944467,-10.07352 6.759753,-5.96108 8.524314,-6.87449 13.377668,-6.92473 4.55399,-0.0476 6.235858,-0.79032 9.069204,-4.00749 1.913108,-2.17227 3.478387,-5.34946 3.478387,-7.06039 0,-1.71094 -0.424678,-3.11078 -0.943705,-3.11078 -0.519036,0 -2.934656,1.84369 -5.368009,4.09708 -4.424293,4.0971 -4.424293,4.0971 -8.47544,0.38881 -4.051147,-3.70827 -4.051147,-3.70827 0.938164,-8.59007 4.989312,-4.88178 4.989312,-4.88178 1.269323,-4.88178 -2.045988,0 -4.8832,0.59478 -6.304917,1.32171 -1.421707,0.72703 -3.547311,3.09986 -4.723551,5.2731 -1.244794,2.29981 -1.794981,5.25944 -1.316434,7.08106 0.687517,2.61734 -0.430356,4.2235 -6.827878,9.81048 -6.452491,5.63495 -8.48621,6.69354 -12.991667,6.76241 -4.255248,0.0648 -6.123466,0.91768 -9.185803,4.19232 -2.114288,2.26084 -3.844153,5.54569 -3.844153,7.29965 0,1.75395 0.424678,3.18901 0.943705,3.18901 0.519037,0 2.934657,-1.84368 5.368009,-4.09707 4.424284,-4.09711 4.424284,-4.09711 8.475431,-0.38881 4.051156,3.70826 4.051156,3.70826 -0.938165,8.59006 -4.989292,4.88179 -4.989292,4.88179 -1.269323,4.88179 z M 233.1741,176.43071 c 2.97419,0 4.40762,-0.82897 5.54025,-3.20406 1.26252,-2.64743 1.10457,-3.65097 -0.9088,-5.77668 -1.34027,-1.41495 -3.53838,-2.57263 -4.88476,-2.57263 -1.34635,0 -3.41178,1.40543 -4.5898,3.12318 -1.6661,2.42949 -1.8117,3.71257 -0.65551,5.77669 0.99303,1.77279 2.81806,2.6535 5.49862,2.6535 z M 442.13739,175.147 c 20.44877,0 26.18863,-0.35756 25.75878,-1.60463 -0.30426,-0.8826 -1.71498,-1.77146 -3.13503,-1.97538 -1.57932,-0.22677 -4.5847,-3.71617 -7.7395,-8.98596 -2.99929,-5.01003 -5.66671,-11.56976 -6.37426,-15.67562 -0.66923,-3.88323 -1.22014,-8.43573 -1.22442,-10.1167 -0.007,-2.77691 0.42218,-2.98966 4.69477,-2.32719 2.75557,0.42719 4.70254,0.19605 4.70254,-0.55826 0,-0.70812 -0.65329,-2.45367 -1.45173,-3.87912 -0.7985,-1.42542 -3.50017,-3.40943 -6.00383,-4.40892 -3.12118,-1.24598 -4.30903,-2.42241 -3.77887,-3.74244 0.63129,-1.57177 -0.62655,-1.92523 -6.85075,-1.92523 -7.01257,0 -7.55563,0.20586 -6.77114,2.56743 0.61228,1.843 0.24151,2.56741 -1.31407,2.56741 -1.19188,0 -3.65104,1.41792 -5.46488,3.15093 -1.81384,1.73301 -3.2979,4.06986 -3.2979,5.19299 0,1.65024 0.93028,1.87534 4.84815,1.17305 4.77174,-0.85533 4.83606,-0.81072 4.08165,2.83016 -0.42163,2.03455 -1.17373,6.52828 -1.67146,9.98607 -0.53288,3.70223 -3.05706,9.85336 -6.13973,14.96191 -2.87914,4.77125 -6.12248,9.00045 -7.20746,9.39824 -1.0849,0.3978 -1.97265,1.31905 -1.97265,2.04725 0,0.86446 9.13258,1.32399 26.31186,1.32399 z m -11.86833,-3.89662 c -5.57461,-0.045 -5.63097,-0.0874 -2.37336,-1.81026 2.26974,-1.20043 4.0959,-1.37667 5.71025,-0.55124 1.30534,0.66748 2.37336,1.48208 2.37336,1.81027 0,0.32817 -2.56961,0.57626 -5.71025,0.55123 z m 21.04951,0 c -6.33603,-0.0437 -6.46961,-0.11783 -3.2691,-1.81026 2.44829,-1.29483 4.05836,-1.40733 6.04613,-0.42243 1.4901,0.7383 2.96119,1.55287 3.26909,1.81027 0.30788,0.25735 -2.41285,0.44745 -6.04612,0.42242 z m -7.82102,-4.09516 c -2.43312,1.0592 -3.80379,0.9934 -5.61107,-0.26913 -2.25675,-1.57663 -2.22513,-1.7558 0.5613,-3.18058 2.32998,-1.19144 3.51333,-1.13464 5.61105,0.26914 2.60829,1.7455 2.59771,1.80541 -0.56128,3.18057 z m -11.48552,-4.23482 c -4.17642,2.06347 -4.24244,2.05272 -2.83432,-0.46109 0.79297,-1.4156 2.09573,-2.96002 2.89513,-3.43204 0.79933,-0.47208 2.07484,-0.26451 2.83432,0.46109 0.94551,0.90337 0.0319,1.98553 -2.89513,3.43204 z m 20.59068,0.62774 c -0.6447,-0.0252 -2.60351,-0.80368 -4.3529,-1.7304 -2.83365,-1.50107 -2.92261,-1.77955 -0.81542,-2.55213 1.30092,-0.47698 2.44989,-0.70918 2.55322,-0.51603 0.10392,0.19314 0.99776,1.36207 1.9876,2.59764 0.98985,1.23552 1.27222,2.226 0.62751,2.20098 z m -11.24907,-5.16918 c -0.36954,9.1e-4 -1.88101,-0.64351 -3.35896,-1.43222 -1.47794,-0.78873 -2.94534,-1.64359 -3.26087,-1.89978 -0.3155,-0.25617 0.59135,-1.30793 2.01536,-2.33728 1.42401,-1.02928 3.19371,-1.87146 3.93268,-1.87146 0.73893,0 2.51721,0.84817 3.95165,1.88473 2.58171,1.8657 2.58171,1.90379 0,3.76949 -1.43444,1.03655 -2.91038,1.88552 -3.27986,1.88652 z m -5.97769,-8.46697 c -1.30134,0.47711 -1.6992,0.0966 -1.19991,-1.14643 0.41096,-1.02305 1.28706,-1.86019 1.94694,-1.86019 0.65994,0 1.1999,0.5159 1.1999,1.14644 0,0.63053 -0.87609,1.46757 -1.94693,1.86018 z m 12.18834,0.8446 c -0.27907,0 -1.20131,-0.79906 -2.04967,-1.77566 -1.18937,-1.36926 -1.07327,-1.94762 0.50726,-2.52711 1.4094,-0.5167 2.04966,0.0384 2.04966,1.77563 0,1.38992 -0.2282,2.52714 -0.50725,2.52714 z m -6.77823,-5.13489 c -0.87013,0 -2.28665,-0.67317 -3.1477,-1.49578 -1.19173,-1.13861 -1.01978,-1.87708 0.71981,-3.09245 1.57955,-1.10354 3.04433,-1.20864 4.74255,-0.34022 1.9532,0.99869 2.13003,1.63296 0.86224,3.09246 -0.87707,1.0098 -2.30672,1.83599 -3.1769,1.83599 z m -3.91104,-6.84643 c -0.49257,0.47075 -0.89577,0.0861 -0.89577,-0.85586 0,-0.94137 0.40306,-1.3265 0.89577,-0.85585 0.49271,0.47075 0.49271,1.24096 0,1.71162 z m 8.50938,0.42786 c -0.73893,0 -1.34359,-0.57773 -1.34359,-1.28372 0,-0.706 0.60466,-1.28371 1.34359,-1.28371 0.73893,0 1.34359,0.57771 1.34359,1.28371 0,0.70599 -0.60466,1.28372 -1.34359,1.28372 z m -3.26074,-3.42293 c -1.05442,0.38656 -2.58138,-0.0622 -3.39325,-0.99644 -1.10942,-1.27723 -0.93678,-1.89708 0.69487,-2.49528 1.19395,-0.43778 2.72097,-0.47115 3.39325,-0.0742 0.67228,0.39702 1.22235,1.20362 1.22235,1.7924 0,0.58883 -0.86266,1.3869 -1.91714,1.7735 z m -10.17511,-5.56303 c -0.98528,0 -1.38837,-0.38511 -0.89577,-0.85586 0.49271,-0.47075 1.29883,-0.47075 1.79144,0 0.49272,0.47075 0.0901,0.85586 -0.89575,0.85586 z m 6.04613,0 c -0.36953,0 -0.67173,-0.28887 -0.67173,-0.64193 0,-0.35306 0.30234,-0.64179 0.67173,-0.64179 0.36953,0 0.67172,0.28886 0.67172,0.64179 0,0.35306 -0.30233,0.64193 -0.67172,0.64193 z m 6.71793,0 c -0.36953,0 -0.67173,-0.28887 -0.67173,-0.64193 0,-0.35306 0.30234,-0.64179 0.67173,-0.64179 0.36953,0 0.67172,0.28886 0.67172,0.64179 0,0.35306 -0.30233,0.64193 -0.67172,0.64193 z m 5.37434,0 c -1.10846,0 -2.01538,-0.55959 -2.01538,-1.24348 0,-0.68389 0.90699,-0.91092 2.01538,-0.50451 1.10846,0.40642 2.01537,0.966 2.01537,1.24347 0,0.27748 -0.90685,0.50452 -2.01537,0.50452 z m -8.19575,-2.95198 c -0.81279,0.25855 -2.16794,-0.32447 -3.01142,-1.29549 -0.8434,-0.97103 -1.13575,-2.1456 -0.64955,-2.61017 0.48619,-0.46453 2.03685,-0.84473 3.44581,-0.84473 1.66926,0 2.41041,0.74557 2.12734,2.14011 -0.23888,1.177 -1.09945,2.35162 -1.91223,2.61017 z M 232.42623,105.82673 c 6.49399,0 7.38973,-0.31123 7.38973,-2.56741 0,-1.42634 -0.89578,-2.56743 -2.01538,-2.56743 -1.6881,0 -2.01539,-2.710048 -2.01539,-16.68821 0,-10.477671 0.50962,-16.688214 1.36923,-16.688214 0.76955,0 1.01909,1.332472 0.57003,3.042392 -0.75085,2.858478 -0.15809,3.207683 9.8069,5.77669 5.83334,1.503864 10.99709,2.734297 11.475,2.734297 0.47789,0 1.50902,-1.142726 2.29133,-2.539385 1.29178,-2.306054 0.27754,-3.086997 -11.03727,-8.499111 -6.85286,-3.277847 -12.93607,-6.744243 -13.51827,-7.7031 -0.58221,-0.958859 -1.07133,-2.18886 -1.08697,-2.733341 -0.0152,-0.544476 1.09307,-1.278801 2.46378,-1.63182 2.42606,-0.624805 2.42548,-0.923075 -0.0222,-11.232451 -2.30082,-9.693131 -2.78993,-10.590597 -5.77195,-10.590597 -3.22967,0 -3.25812,0.111334 -3.25812,12.745393 0,9.875111 -0.47554,13.199684 -2.11136,14.762651 -1.16124,1.109498 -2.6427,2.017256 -3.29219,2.017256 -0.64943,0 -1.67159,-0.837809 -2.27137,-1.86181 -0.8603,-1.468767 -2.71807,-0.497811 -8.80005,4.599321 -4.24026,3.553624 -7.7003,7.135364 -7.68898,7.959427 0.0107,0.824068 0.52775,2.262596 1.14766,3.196743 0.87471,1.318198 3.57741,0.403488 12.0717,-4.085641 10.94459,-5.784087 10.94459,-5.784087 10.94459,10.817712 0,13.90135 -0.32783,16.601798 -2.01539,16.601798 -1.11967,0 -2.01537,1.14114 -2.01537,2.56743 0,2.25622 0.89578,2.56741 7.38971,2.56741 z m 0.14382,-41.078681 c -1.02934,0 -2.19696,-0.810022 -2.59459,-1.80006 -0.39766,-0.990036 -0.3615,-2.14537 0.0803,-2.567418 0.44172,-0.422048 1.60927,-0.767355 2.59457,-0.767355 0.98528,0 1.79144,1.155342 1.79144,2.567417 0,1.412079 -0.84228,2.567417 -1.87163,2.567417 z"
     id="path1534" />
</svg>
