<?xml version="1.0" encoding="UTF-8" standalone="no"?>
<!-- Created with Inkscape (http://www.inkscape.org/) -->

<svg
   version="1.1"
   id="svg309"
   width="512"
   height="512"
   viewBox="0 0 512 512"
   sodipodi:docname="ismtp.svg"
   inkscape:version="1.2.2 (b0a8486541, 2022-12-01)"
   xmlns:inkscape="http://www.inkscape.org/namespaces/inkscape"
   xmlns:sodipodi="http://sodipodi.sourceforge.net/DTD/sodipodi-0.dtd"
   xmlns="http://www.w3.org/2000/svg"
   xmlns:svg="http://www.w3.org/2000/svg">
  <defs
     id="defs313" />
  <sodipodi:namedview
     id="namedview311"
     pagecolor="#505050"
     bordercolor="#eeeeee"
     borderopacity="1"
     inkscape:showpageshadow="0"
     inkscape:pageopacity="0"
     inkscape:pagecheckerboard="0"
     inkscape:deskcolor="#505050"
     showgrid="false"
     inkscape:zoom="0.84285714"
     inkscape:cx="342.28814"
     inkscape:cy="264.57627"
     inkscape:window-width="1366"
     inkscape:window-height="705"
     inkscape:window-x="0"
     inkscape:window-y="26"
     inkscape:window-maximized="1"
     inkscape:current-layer="g315" />
  <g
     inkscape:groupmode="layer"
     inkscape:label="Image"
     id="g315">
    <g
       id="g1573"
       transform="matrix(0.93179819,0,0,0.95275201,17.455292,12.059949)">
      <path
         id="path490-3"
         style="fill:#ffffff;stroke-width:3.37303"
         d="M 14.943359,21.011719 C 9.2774387,28.665948 3.0797579,35.936348 -2.1171875,43.929688 c -4.3636846,7.452359 -5.9317854,16.165315 -6.358459,24.690835 -0.7995403,14.089957 -0.4952986,28.210126 -0.5837105,42.315417 0.028816,11.89908 -0.024772,23.81631 0.86272,35.68913 0.7155195,7.89275 2.6745308,15.87302 7.1068893,22.54453 2.6406783,4.08831 5.8032198,7.7995 8.7010758,11.70149 -3.9981449,5.22395 -8.2517699,10.33784 -11.2578125,16.22461 -3.7076902,7.77099 -4.7010554,16.48045 -4.995609,24.98925 -0.5799275,13.10999 -0.3460064,26.23715 -0.4169686,39.35567 0.029707,11.84872 -0.024753,23.71596 0.8709375,35.5379 0.7233327,7.92106 2.7147716,15.93128 7.195937,22.60546 2.6265075,4.0279 5.7321219,7.70836 8.6054687,11.55664 -3.9085709,5.10524 -8.05258204,10.10284 -11.0625,15.81446 -3.7479896,7.63553 -4.8499707,16.2303 -5.1558308,24.63891 -0.6331297,13.22786 -0.3751265,26.4756 -0.454619,39.71343 0.027054,11.9549 -0.024574,23.92808 0.862403,35.85664 0.7157905,7.92946 2.6923858,15.95113 7.1702781,22.63792 2.8952285,4.40769 6.3077595,8.44069 9.4514696,12.668 2.1833359,2.76655 4.3066679,5.82759 7.5779999,7.396 3.419305,1.78174 7.374989,2.16864 11.170955,1.90549 57.105433,-0.0252 114.211323,0.0787 171.316323,-0.18364 14.5865,-0.13075 29.18737,-0.25367 43.74273,-1.28959 6.22916,-0.54007 12.6521,-1.37531 18.21129,-4.43459 1.42623,-0.8057 2.77201,-1.7544 4.00544,-2.8324 6.29388,4.39099 13.96563,6.20882 21.49331,7.01139 8.56927,0.93458 17.19741,1.12612 25.80838,1.34265 24.11668,0.43075 48.23857,0.34437 72.35807,0.3719 37.50144,0.002 75.00287,0.0119 112.5043,0.0143 5.51468,-7.80848 11.83132,-15.02687 17.07395,-23.02947 3.42723,-5.42296 5.08091,-11.7657 5.93431,-18.0684 0.82575,-6.44194 0.9575,-12.94653 1.17684,-19.42999 0.28992,-12.38151 0.19684,-24.76761 0.25762,-37.15143 0.007,-21.02262 0.0903,-42.04753 -0.27344,-63.06777 -0.21855,-7.53146 -0.46081,-15.09517 -1.66273,-22.5456 -1.23734,-6.8608 -3.94162,-13.52028 -8.30254,-18.99803 -4.52533,-6.05372 -9.19156,-12.00168 -13.76456,-18.01985 -0.32408,-0.61703 -0.78924,-0.94839 -1.4996,-0.78321 -27.31849,6.5e-4 -54.63698,0.001 -81.95547,0.002 1.04547,-5.34068 0.9754,-10.81085 1.12402,-16.22803 0.10076,-10.02484 0.0811,-20.06487 -0.63235,-30.06889 -0.70872,-8.8903 -2.10515,-17.84029 -5.43953,-26.15817 -2.77768,-6.65726 -6.99172,-12.80846 -12.64199,-17.34765 6.93012,-5.54542 11.7035,-13.46576 14.18516,-21.92816 3.4e-4,-0.75127 0.61633,-0.18095 1.03763,-0.0836 1.16478,0.47784 2.41456,0.75445 3.60739,1.10084 4.14327,3.10951 7.45073,7.2151 10.62305,11.18723 3.8476,4.95743 7.00053,10.5306 8.66832,16.60878 0.58223,1.88136 1.10318,3.78196 1.53861,5.70282 0.0708,0.3451 0.24692,1.14018 0.33703,1.66506 0.0391,0.57891 0.47968,1.28945 -0.15258,1.66624 -4.55951,4.71357 -6.96176,11.2369 -7.20637,17.73815 -0.56762,8.206 1.32211,16.3503 3.80098,24.11819 2.97355,8.91018 7.48618,17.47274 14.10577,24.21887 5.07003,4.98816 12.22603,8.11262 19.40483,7.47596 7.21294,-0.51561 13.91324,-4.47246 18.40577,-10.05235 5.09795,-5.96262 8.27163,-13.22895 11.43348,-20.32816 3.15063,-7.4016 5.7919,-15.20804 6.06054,-23.31641 0.0998,-6.68022 -1.91866,-13.58794 -6.49521,-18.57806 -1.23631,-1.3962 -2.63804,-2.64568 -4.15518,-3.72858 -0.78222,-6.07428 -1.2781,-12.21003 -2.80053,-18.16094 -3.77706,-16.56538 -11.37479,-32.26504 -22.17079,-45.39726 -7.35324,-9.13723 -15.99457,-17.39951 -26.14639,-23.36414 -6.58948,-3.77015 -14.20266,-6.27895 -21.86862,-5.57766 -1.16747,0.11577 -2.32642,0.3091 -3.46875,0.57617 -0.0729,-11.522354 -0.29385,-23.068184 -1.54272,-34.531505 -0.99217,-8.267619 -2.71458,-16.593625 -6.5,-24.072579 C 402.61737,35.930263 396.05849,29.0835 387.75,25.685547 c -5.31956,-2.07711 -11.09146,-2.345734 -16.71432,-2.871039 -11.0562,-0.831228 -22.1446,-1.112233 -33.22426,-1.446743 -24.30783,-0.609162 -48.624,-0.770677 -72.93797,-0.948319 -44.79214,-0.248562 -89.58516,-0.150426 -134.37775,-0.183515 -38.316924,-0.0024 -76.633851,-0.0051 -114.950778,-0.0074 -0.200521,0.261067 -0.401042,0.522135 -0.601563,0.783203 z M 190.32227,80.085938 c -6.95199,3.395164 -11.92638,10.041705 -14.21181,17.333535 -2.18477,6.653107 -1.64107,14.139077 1.49936,20.400217 2.65421,5.87694 7.25673,10.94658 13.08354,13.78578 -20.40188,-0.0421 -40.80372,-0.1305 -61.20508,-0.2832 6.29947,-3.56523 11.36082,-9.30865 14.08594,-16.01563 2.11664,-5.29281 2.56018,-11.30732 0.8307,-16.77333 -2.00409,-6.788648 -6.23929,-12.939678 -11.95765,-17.12706 -0.84425,-0.600044 -1.7208,-1.154738 -2.62696,-1.65625 20.5629,-0.132508 41.12619,-0.187477 61.68946,-0.228516 -0.39584,0.188151 -0.79167,0.376302 -1.1875,0.564454 z m -86.09375,0.154296 c -0.64487,0.421448 -1.27397,0.866894 -1.88086,1.341797 -0.74856,-0.568355 -1.53174,-1.090631 -2.33985,-1.570312 1.55404,-0.01628 3.10808,-0.03255 4.66211,-0.04883 -0.14713,0.09245 -0.29427,0.184895 -0.4414,0.277343 z m -30.482426,0.179688 c -0.824201,0.519807 -1.624387,1.077693 -2.390625,1.679687 -0.761073,-0.593165 -1.557233,-1.140419 -2.375,-1.652343 1.618489,-0.02669 3.236979,-0.05339 4.855469,-0.08008 l -0.08624,0.05062 z m -2.289063,49.011718 c 0.581349,0.44431 1.17386,0.87409 1.783203,1.2793 -1.533285,-0.0178 -3.066422,-0.0457 -4.599609,-0.0703 0.802577,-0.49596 1.578658,-1.03396 2.332031,-1.60156 0.161459,0.13086 0.322917,0.26172 0.484375,0.39258 z m 30.955079,0.7832 c 0.42009,0.30391 0.84577,0.60038 1.2832,0.87891 -1.00909,-0.0134 -2.01823,-0.0231 -3.02734,-0.0352 0.5148,-0.32094 1.01593,-0.66433 1.50195,-1.02734 0.0807,0.0612 0.16146,0.1224 0.24219,0.18359 z m 88.25781,99.97071 c -7.02509,3.28829 -12.11135,9.90926 -14.45782,17.20261 -2.20489,6.50685 -1.85888,13.85542 1.11313,20.06579 2.84573,6.70354 8.21701,12.45636 15.04391,15.15933 -21.32789,-0.31766 -42.65858,-0.34243 -63.98828,-0.42578 6.75239,-3.46759 12.20556,-9.40988 15.11719,-16.41602 2.13371,-5.23047 2.64795,-11.18183 0.99961,-16.6209 -1.97627,-7.02239 -6.35044,-13.38914 -12.29022,-17.6411 -0.76824,-0.53598 -1.56195,-1.03711 -2.38322,-1.488 20.56158,-0.13223 41.12358,-0.18936 61.68555,-0.2207 -0.27995,0.12826 -0.5599,0.25651 -0.83985,0.38477 z m -86.26367,0.20898 c -0.70892,0.45272 -1.39688,0.93764 -2.05859,1.45703 -0.75058,-0.57106 -1.53695,-1.09458 -2.34766,-1.57617 1.5599,-0.0163 3.11979,-0.0325 4.67969,-0.0488 -0.0911,0.056 -0.18229,0.11198 -0.27344,0.16797 z m -30.693359,0.3125 c -0.812567,0.51507 -1.60111,1.06751 -2.357422,1.66211 -0.769171,-0.59105 -1.565694,-1.14747 -2.390625,-1.6582 1.625,-0.0267 3.25,-0.0534 4.875,-0.0801 l -0.08575,0.0514 z m -2.132813,49.0957 c 0.91103,0.68922 1.851252,1.34272 2.84375,1.91016 -2.306641,-0.0449 -4.613281,-0.0898 -6.919922,-0.13477 1.209335,-0.67009 2.362594,-1.43893 3.46875,-2.26757 0.202474,0.16406 0.404948,0.32812 0.607422,0.49218 z m 30.845702,0.69141 c 0.78357,0.57365 1.60033,1.10233 2.44922,1.57422 -1.79362,-0.0137 -3.58728,-0.0223 -5.380859,-0.041 0.928519,-0.51631 1.824869,-1.09116 2.677739,-1.72461 0.0846,0.0638 0.16927,0.12761 0.2539,0.19141 z m 278.58594,49.44922 c 13.67381,0.0387 27.34815,0.12168 41.01953,0.39648 -12.83804,12.98928 -25.86251,25.80459 -39.38281,38.08594 -13.08249,-12.28984 -25.91391,-24.84463 -38.66506,-37.47702 -0.45307,-0.42955 -1.10422,-0.94031 -0.0806,-0.77021 12.3691,-0.14864 24.73917,-0.19089 37.10899,-0.23519 z m 84.74609,42.51367 c -0.0744,6.66282 -0.14514,13.32569 -0.23828,19.98828 -4.07134,-4.02974 -8.19229,-8.06715 -12.8957,-11.36406 -0.36607,-0.35252 0.72142,-0.8483 0.94021,-1.25846 4.07057,-4.06258 8.13555,-8.13086 12.23284,-12.16654 -0.013,1.60026 -0.026,3.20052 -0.0391,4.80078 z m -160.84961,0.67188 c 2.41928,2.42447 4.83854,4.84896 7.25782,7.27343 -3.60092,2.99924 -6.88909,6.35015 -10.25975,9.6005 -0.65876,0.65618 -1.32271,1.30703 -1.97463,1.96982 -0.0546,-7.93288 -0.045,-15.86639 0.0586,-23.79883 1.63933,1.65169 3.27865,3.30338 4.91797,4.95508 z m -136.29492,6.90429 c 7.37435,0 14.7487,0 22.12305,0 -6.08866,3.18599 -10.84456,8.644 -13.50349,14.95012 -2.83793,6.3553 -3.34699,13.83271 -0.85198,20.38387 2.46268,6.95834 7.24305,13.24006 13.78125,16.80859 0.31423,0.20915 1.20848,0.5702 1.20079,0.68807 -20.99958,-0.32174 -42.00206,-0.33424 -63.00352,-0.40096 6.8062,-3.47359 12.28899,-9.47585 15.18262,-16.54251 2.17805,-5.38368 2.61833,-11.53143 0.78391,-17.08029 -2.23771,-7.39204 -7.1163,-14.04965 -13.72239,-18.10767 -0.20131,-0.20923 -1.51466,-0.68553 -0.8543,-0.65303 12.95466,-0.0371 25.90937,-0.0328 38.86406,-0.0462 z m -63.53711,0.21875 c -0.94719,0.56433 -1.86159,1.18492 -2.72656,1.86914 -0.9128,-0.69163 -1.87543,-1.31686 -2.873048,-1.8789 1.896488,-0.0137 3.792968,-0.0274 5.689458,-0.041 l -0.0871,0.0492 z m -30.710936,0.33203 c -1.0457,0.61576 -2.049868,1.30141 -3.005859,2.04883 -0.91499,-0.71214 -1.876555,-1.36494 -2.876953,-1.95117 1.946299,-0.0352 4.00882,-0.0947 5.882812,-0.0977 z M 414.3457,418.65234 c 2.97009,4.95326 6.74127,9.35644 10.54688,13.67774 -10.91641,0.0934 -21.83321,0.13854 -32.75,0.15039 5.96747,-2.02787 11.23898,-5.63542 16.16211,-9.49414 1.95647,-1.56375 3.8666,-3.18362 5.75195,-4.83203 0.0963,0.16601 0.19271,0.33203 0.28906,0.49804 z m -61.02148,1.61133 c 3.81198,3.43975 7.64107,6.88911 11.80664,9.89844 1.36726,0.89511 2.815,1.6678 4.32617,2.29101 -9.60623,-0.046 -19.21278,-0.0773 -28.81836,-0.20507 3.65119,-4.02275 7.30826,-8.07688 10.40013,-12.5546 0.32611,-0.41366 0.58065,-1.39319 1.06459,-0.55449 0.40694,0.3749 0.81389,0.74981 1.22083,1.12471 z m -281.738282,9.8125 c 0.899578,0.67878 1.825091,1.32652 2.802734,1.88867 -2.264614,-0.0472 -4.606457,-0.0694 -6.822266,-0.13867 1.184764,-0.67155 2.32506,-1.42133 3.410156,-2.24414 0.203126,0.16471 0.40625,0.32943 0.609376,0.49414 z m 30.851562,0.69727 c 0.78823,0.57396 1.60931,1.10305 2.46094,1.57812 -1.80925,-0.0145 -3.61854,-0.0236 -5.427737,-0.043 0.935777,-0.51819 1.837107,-1.09905 2.693357,-1.74023 0.0911,0.0684 0.18229,0.13672 0.27344,0.20508 z" />
      <rect
         style="fill:#ff0000;fill-opacity:1;stroke-width:30.048;paint-order:stroke fill markers"
         id="rect1421"
         width="361.28882"
         height="102.50934"
         x="23.214054"
         y="54.025993" />
      <rect
         style="fill:#ffff00;fill-opacity:1;stroke-width:30.24;paint-order:stroke fill markers"
         id="rect1421-7"
         width="365.92148"
         height="102.50934"
         x="22.827089"
         y="207.27969" />
      <rect
         style="fill:#00ff00;fill-opacity:1;stroke-width:23.6965;paint-order:stroke fill markers"
         id="rect1421-7-5"
         width="224.69441"
         height="102.50934"
         x="22.72061"
         y="359.11111" />
      <path
         id="path697"
         style="fill:#cea900;fill-opacity:1;stroke-width:35.6502;paint-order:stroke fill markers"
         d="m 280.51562,316.74414 c -1.30149,-0.0535 -2.21982,1.28381 -2.14453,2.50586 -0.48513,8.75169 -1.29401,17.4939 -1.38773,26.26532 -0.43901,20.91074 -0.42774,41.82906 -0.19726,62.74235 0.11853,8.34803 0.2011,16.70749 0.93847,25.02893 0.36716,4.80405 0.74783,9.60708 1.12113,14.41067 11.38575,-11.73836 22.67075,-23.57517 34.14552,-35.22668 4.62211,-4.61535 9.21555,-9.28344 14.18651,-13.52332 1.83039,0.96917 3.69958,2.1441 4.81933,3.93358 0.77192,1.43847 0.0594,3.06813 -0.76695,4.30449 -1.534,2.22436 -3.48035,4.12237 -5.21948,6.1824 -8.22891,9.28195 -16.73526,18.31447 -24.96909,27.59126 -1.78574,2.08368 -3.73522,4.15058 -4.77982,6.72655 -0.77991,2.236 0.2288,5.02141 2.47461,5.95507 2.46603,1.17968 5.27283,0.88454 7.92183,1.06619 13.94643,0.39488 27.89993,0.42505 41.85077,0.51494 32.82794,0.13652 65.65769,0.12635 98.484,-0.25511 6.54459,-0.11066 13.09985,-0.1007 19.63084,-0.56005 1.46181,-0.0792 2.93827,-0.80957 3.57935,-2.17807 0.89176,-0.97572 1.05358,-2.59646 0.10938,-3.5918 -1.48139,-2.43653 -3.54511,-4.43964 -5.34594,-6.63277 -8.7114,-10.02929 -17.97137,-19.57994 -26.3827,-29.86962 -2.04269,-2.61664 -4.26333,-5.23099 -5.38269,-8.40191 -0.33543,-1.47474 0.82233,-2.65689 1.57624,-3.77969 0.3806,-0.50547 0.95615,-1.05953 1.63329,-0.71857 2.41672,0.94845 4.39861,2.71246 6.39963,4.32112 5.66544,4.91484 10.83242,10.36618 16.06737,15.72783 9.68898,10.0881 19.34229,20.21051 29.01878,30.31064 0.41266,-25.10698 0.96187,-50.21202 1.24155,-75.32097 0.10944,-14.10985 0.22981,-28.23176 -0.45661,-42.32963 -0.18126,-2.72026 -0.33482,-5.48121 -1.05513,-8.11985 -0.54672,-1.78595 -2.13804,-3.26526 -4.04621,-3.37799 -1.84339,-0.20204 -3.20263,1.34738 -4.46973,2.44093 -6.23295,5.67464 -12.23615,11.59628 -18.32141,17.42768 -16.45487,15.91342 -32.64554,32.0997 -49.24593,47.86243 -6.00303,5.63464 -12.02199,11.27504 -18.47939,16.3915 -2.88872,2.18599 -5.82806,4.48598 -9.30936,5.63779 -1.65883,0.50873 -3.47909,0.64704 -5.16979,0.23283 -1.9439,-0.62513 -3.41018,-2.14488 -4.979,-3.38183 -8.75163,-7.70075 -16.97638,-15.97139 -25.34477,-24.08039 -22.02756,-21.56746 -43.80759,-43.38545 -65.68843,-65.10125 -0.47256,-0.64118 -1.2299,-1.20107 -2.05665,-1.13086 z" />
      <path
         id="path626"
         style="fill:#ffff00;stroke-width:35.6502;paint-order:stroke fill markers"
         d="m 340.99805,307.09961 c -11.42247,0.0613 -22.84765,0.0898 -34.26563,0.43555 -2.22829,0.0388 -4.58731,0.14679 -6.75387,0.88104 -2.67835,0.72731 -5.35669,1.45467 -8.03519,2.18146 8.6852,9.18113 17.21313,18.51575 26.22377,27.38338 16.90462,16.8797 34.00905,33.56437 51.48651,49.85233 3.1443,2.87138 6.25327,5.79277 9.57488,8.4596 1.32807,1.05691 3.22131,1.37109 4.7546,0.57464 2.55459,-1.13939 4.63676,-3.07115 6.81001,-4.78799 8.83419,-7.35536 17.14596,-15.30866 25.47339,-23.22559 13.71642,-13.16478 27.07651,-26.70103 40.04669,-40.60025 5.60578,-5.94276 11.21289,-11.88427 16.81765,-17.828 -5.10953,-0.73509 -10.19291,-1.65798 -15.31471,-2.29822 -9.84232,-0.54172 -19.70318,-0.55401 -29.55679,-0.71181 -29.08545,-0.3425 -58.1742,-0.41069 -87.26131,-0.31614 z" />
      <path
         id="path490"
         style="fill:#000000;stroke-width:3.37303"
         d="m 25.415989,40.228539 -7.249371,9.459572 c -6.895921,8.998372 -7.249372,11.717181 -7.249372,56.042489 0,44.32531 0.353451,47.05165 7.249372,56.05001 l 7.249371,9.45204 H 199.62565 c 121.38641,0 176.39362,-1.29372 181.40715,-4.27449 10.8642,-6.45927 13.749,-19.31982 13.749,-61.22756 0,-41.907762 -2.8848,-54.760795 -13.749,-61.220041 -5.01353,-2.980787 -60.02074,-4.28202 -181.40715,-4.28202 z M 203.97989,59.493853 c 127.47161,0 169.82347,1.139748 172.49682,4.62819 2.26383,2.954012 3.54107,17.976465 3.54107,41.608557 0,23.63209 -1.27724,38.66205 -3.54107,41.61608 -2.67934,3.49626 -44.97959,4.54967 -173.47724,4.31964 -93.46358,-0.1673 -171.597143,-1.18125 -173.627196,-2.25013 -2.633311,-1.38652 -3.691005,-13.87271 -3.691005,-43.58776 0,-34.425228 0.810958,-42.061088 4.671425,-43.994142 2.56891,-1.286322 80.702496,-2.340435 173.627196,-2.340435 z m 71.21334,34.677559 c -62.68514,0 -75.15941,0.921363 -78.24931,5.779593 -2.9327,4.611015 -2.9327,6.948165 0,11.559185 3.0899,4.85823 15.56417,5.77959 78.24931,5.77959 62.68514,0 75.1594,-0.92136 78.24931,-5.77959 2.93269,-4.61102 2.93269,-6.94817 0,-11.559185 -3.08991,-4.85823 -15.56417,-5.779593 -78.24931,-5.779593 z M 55.445773,96.376388 c -0.689155,-0.03949 -1.346922,0.07864 -1.926233,0.368738 -5.192476,2.600027 -5.569727,15.394824 -0.524831,17.835464 2.030053,0.9821 5.569904,-0.51547 7.866448,-3.3338 3.344317,-4.10413 3.450795,-6.26638 0.524831,-10.86684 -1.506963,-2.369378 -3.872809,-3.885061 -5.940215,-4.003573 z m 62.008887,0 c -0.68916,-0.03949 -1.34692,0.07864 -1.92623,0.368738 -5.19248,2.600027 -5.56973,15.394824 -0.52483,17.835464 2.03005,0.9821 5.5699,-0.51547 7.86644,-3.3338 3.34432,-4.10413 3.4508,-6.26638 0.52484,-10.86684 -1.50697,-2.369378 -3.87281,-3.885061 -5.94022,-4.003573 z m -30.070145,0.08276 c -1.971115,-0.06342 -4.071474,1.095214 -5.744149,3.725132 -2.73846,4.30564 -2.73846,6.79448 0,11.10012 4.460447,7.01311 11.955403,3.52988 11.955403,-5.55382 0,-5.67732 -2.926082,-9.165723 -6.211254,-9.271432 z M 420.42277,121.72982 c -2.25467,0.15027 -3.99659,1.22062 -5.01171,3.3639 -2.93514,6.19705 -0.49447,15.31442 4.10047,15.31442 7.38107,0 25.75466,20.29779 31.36779,34.65498 7.0935,18.14359 7.79913,34.70013 1.48216,34.70013 -8.38549,0 -1.9627,29.49121 8.52392,39.14019 4.71968,4.34267 9.49483,-0.39791 16.29234,-16.17985 6.57318,-15.26111 6.24541,-22.96034 -0.98042,-22.96034 -2.41138,1e-5 -4.45322,-6.69565 -5.40963,-17.76773 -0.93858,-10.86612 -4.85662,-23.9511 -10.08684,-33.66161 -11.14967,-20.70073 -30.50784,-37.2552 -40.27808,-36.60409 z m -395.006781,68.76812 -7.249371,9.45958 c -6.895921,8.99835 -7.249372,11.71717 -7.249372,56.04248 0,44.32531 0.353451,47.05166 7.249372,56.05001 l 7.249371,9.45204 H 135.9616 c 116.00715,10e-6 114.13279,0.26486 114.13279,-15.72079 0,-2.08377 -44.19878,-3.54452 -107.53514,-3.54452 -59.144633,0 -109.637646,-1.04656 -112.206556,-2.3329 -6.928253,-3.46918 -6.928253,-84.33097 0,-87.80015 2.56891,-1.28634 80.702496,-2.34044 173.627196,-2.34044 127.47161,1e-5 169.82347,1.13975 172.49682,4.62819 2.06118,2.6896 3.54107,15.5835 3.54107,30.8245 0,25.37883 0.2315,26.19631 7.38201,26.19631 7.16645,0 7.38201,-0.77589 7.38201,-26.7833 0,-30.82292 -3.57664,-43.80107 -13.749,-49.84899 -5.01353,-2.98076 -60.02074,-4.28202 -181.40715,-4.28202 z m 249.777241,53.94287 c -62.68514,0 -75.15941,0.92135 -78.24931,5.7796 -2.9327,4.61103 -2.9327,6.94815 0,11.55918 3.0899,4.85825 15.56417,5.77959 78.24931,5.77959 62.68514,0 75.1594,-0.92134 78.24931,-5.77959 2.93269,-4.61103 2.93269,-6.94815 0,-11.55918 -3.08991,-4.85825 -15.56417,-5.7796 -78.24931,-5.7796 z m -219.747457,2.20498 c -0.689155,-0.0395 -1.346922,0.0787 -1.926233,0.36874 -5.192476,2.60004 -5.569727,15.39482 -0.524831,17.83546 2.030053,0.98211 5.569904,-0.51548 7.866448,-3.3338 3.344317,-4.10413 3.450795,-6.26637 0.524831,-10.86684 -1.506963,-2.36937 -3.872809,-3.88506 -5.940215,-4.00357 z m 62.008887,0 c -0.68916,-0.0395 -1.34692,0.0787 -1.92623,0.36874 -5.19248,2.60004 -5.56973,15.39482 -0.52483,17.83546 2.03005,0.98211 5.5699,-0.51548 7.86644,-3.3338 3.34432,-4.10413 3.4508,-6.26637 0.52484,-10.86684 -1.50697,-2.36937 -3.87281,-3.88506 -5.94022,-4.00357 z m -30.070145,0.0828 c -1.971115,-0.0634 -4.071474,1.09522 -5.744149,3.72513 -2.73846,4.30564 -2.73846,6.79449 0,11.10013 4.460447,7.01311 11.955403,3.52987 11.955403,-5.55383 0,-5.67731 -2.926082,-9.16571 -6.211254,-9.27143 z m 296.122415,43.94895 c -99.81622,0 -103.335,0.25947 -110.86855,7.9921 l -7.77996,7.98457 v 74.57029 74.57781 l 7.77996,7.98459 c 7.53355,7.73263 11.05233,7.98454 110.86855,7.98454 H 486.5898 l 7.24937,-9.45202 c 7.17546,-9.36302 7.24358,-10.17875 7.24358,-81.09492 0,-70.91617 -0.0682,-71.72438 -7.24358,-81.08739 l -7.24937,-9.45957 z m -2.50295,19.26531 c 46.55584,0 84.57237,1.30041 84.47788,2.8898 -0.0945,1.58939 -18.08504,20.66207 -39.97244,42.38368 -21.88737,21.72164 -41.40812,39.4125 -43.38083,39.30577 -2.75895,-0.1495 -76.29666,-72.21047 -84.15492,-82.46458 -0.8885,-1.15942 36.47448,-2.11467 83.03031,-2.11467 z m -99.90514,10.84428 45.97031,46.26685 c 25.28318,25.44666 47.87217,46.617 50.19768,47.04951 10.59882,1.97126 16.92645,-2.91974 60.3883,-46.66571 25.42937,-25.59558 46.81586,-45.77311 47.52748,-44.84452 0.71157,0.92854 0.92822,28.16901 0.47868,60.53521 l -0.81896,58.8495 -22.14603,-23.6301 c -23.42111,-24.98676 -26.74603,-26.86428 -32.24439,-18.21928 -2.7881,4.38366 0.51122,9.65908 17.35348,27.73904 11.43902,12.27963 20.79652,22.85024 20.79652,23.48715 0,0.63695 -38.53413,1.15137 -85.63133,1.15137 -47.09717,0 -85.63132,-0.78514 -85.63132,-1.75341 0,-0.96824 9.4306,-11.71019 20.958,-23.8634 19.11518,-20.15314 20.4991,-22.53976 15.68098,-27.13701 -2.90553,-2.77231 -6.24214,-5.04211 -7.41083,-5.04211 -1.16869,0 -11.87621,10.40773 -23.79544,23.12592 l -21.67313,23.12589 -0.8593,-28.71734 c -0.47292,-15.79632 -0.47292,-42.83918 0,-60.09122 z m -255.682851,19.98023 -7.249371,9.45958 c -6.895921,8.99837 -7.249372,11.71717 -7.249372,56.04246 0,44.32532 0.353451,47.05167 7.249372,56.05004 l 7.249371,9.45202 H 139.54878 c 102.86124,4e-5 113.95451,-0.5953 112.33921,-6.08811 -0.9858,-3.35209 -1.7936,-7.68678 -1.7936,-9.63265 0,-2.08378 -44.19878,-3.54455 -107.53514,-3.54455 -59.144633,4e-5 -109.637646,-1.04653 -112.206556,-2.33288 -6.928253,-3.46918 -6.928253,-84.33098 0,-87.80016 2.56891,-1.28634 52.397542,-2.34044 110.730156,-2.34044 h 106.05874 v -9.63265 -9.63266 H 136.27879 Z M 223.8825,394.71022 c -17.07406,0 -24.24037,1.53725 -26.93858,5.77959 -2.9327,4.61104 -2.9327,6.94819 0,11.55919 2.69821,4.24237 9.86452,5.77959 26.93858,5.77959 h 23.25909 V 406.2694 394.71022 Z m -168.436727,2.20499 c -0.689155,-0.0393 -1.346922,0.0786 -1.926233,0.36874 -5.192476,2.60004 -5.569727,15.39483 -0.524831,17.83548 2.030053,0.9821 5.569904,-0.51551 7.866448,-3.33383 3.344317,-4.10413 3.450795,-6.26635 0.524831,-10.86683 -1.506963,-2.36936 -3.872809,-3.88504 -5.940215,-4.00356 z m 62.008887,0 c -0.68916,-0.0393 -1.34692,0.0786 -1.92623,0.36874 -5.19248,2.60004 -5.56973,15.39483 -0.52483,17.83548 2.03005,0.9821 5.5699,-0.51551 7.86644,-3.33383 3.34432,-4.10413 3.4508,-6.26635 0.52484,-10.86683 -1.50697,-2.36936 -3.87281,-3.88504 -5.94022,-4.00356 z m -30.070145,0.0828 c -1.971115,-0.0636 -4.071474,1.09523 -5.744149,3.72514 -2.73846,4.30564 -2.73846,6.79449 0,11.10013 4.460447,7.01312 11.955403,3.52987 11.955403,-5.55384 0,-5.67729 -2.926082,-9.1657 -6.211254,-9.27143 z" />
    </g>
  </g>
</svg>
