<?xml version="1.0" encoding="UTF-8" standalone="no"?>
<svg
   version="1.1"
   viewBox="0 0 512 512"
   id="svg326"
   sodipodi:docname="jadx.svg"
   inkscape:version="1.2.2 (b0a8486541, 2022-12-01)"
   xmlns:inkscape="http://www.inkscape.org/namespaces/inkscape"
   xmlns:sodipodi="http://sodipodi.sourceforge.net/DTD/sodipodi-0.dtd"
   xmlns="http://www.w3.org/2000/svg"
   xmlns:svg="http://www.w3.org/2000/svg">
  <defs
     id="defs330" />
  <sodipodi:namedview
     id="namedview328"
     pagecolor="#505050"
     bordercolor="#eeeeee"
     borderopacity="1"
     inkscape:showpageshadow="0"
     inkscape:pageopacity="0"
     inkscape:pagecheckerboard="0"
     inkscape:deskcolor="#505050"
     showgrid="false"
     inkscape:zoom="0.89257812"
     inkscape:cx="256"
     inkscape:cy="256"
     inkscape:window-width="1366"
     inkscape:window-height="695"
     inkscape:window-x="0"
     inkscape:window-y="24"
     inkscape:window-maximized="1"
     inkscape:current-layer="svg326" />
  <g
     id="g460"
     transform="matrix(1.0595242,0,0,1.0641246,-15.236341,-16.417068)">
    <g
       id="g296">
      <path
         d="m 21,247.06 128.77,117.32 180.27,-191 c 0,0 -40.776,-54.368 -45.068,-54.368 -4.2922,0 -263.97,128.05 -263.97,128.05 z"
         fill="#ffc730"
         id="path286" />
      <path
         d="M 325.84,167.84 149.76,354.4 28.11,243.56 c -0.9516,0.46905 -7.1145,3.5026 -7.1145,3.5026 l 128.77,117.32 180.27,-191 c 0,0 -2.365,-3.1208 -4.1969,-5.5387 z"
         opacity="0.3"
         id="path288" />
      <path
         d="m 101.12,54.592 -1.4308,186.71 230.35,-57.945 42.207,-46.499 z"
         opacity="0.3"
         id="path290" />
      <path
         d="m 101.12,44.607 -1.4308,186.71 230.35,-57.945 42.207,-46.499 z"
         fill="#ae7ac4"
         id="path292" />
      <path
         d="M 287.12,251.35 396.57,467.39 H 89.67 Z"
         fill="#3db47e"
         id="path294" />
    </g>
    <path
       d="m 281.13,261.34 62.237,-67.96 123.76,23.607 17.884,211.04 -185.28,27.184 z"
       fill="#00000f"
       fill-opacity="0.94118"
       opacity="0.3"
       id="path298" />
    <path
       d="m 287.12,251.35 62.237,-67.96 123.76,23.607 17.884,211.04 -185.28,27.184 z"
       fill="#367bf0"
       id="path300" />
    <path
       d="m 287.12,251.35 h 72.253 l -10.015,-67.96 z"
       fill="#72a2f4"
       id="path302" />
    <g
       id="g324">
      <path
         d="m 123.24,256.4 c 30.183,0 47.272,-18.643 47.272,-51.489 v -104.75 h -28.63 v 106.97 c 0,15.536 -7.324,23.969 -20.64,23.969 -6.4361,0 -14.87,-1.7755 -20.862,-4.6607 l -8.2116,22.194 c 9.3213,5.3265 19.974,7.7678 31.071,7.7678 z"
         opacity="0.3"
         id="path304" />
      <path
         d="m 123.24,246.41 c 30.183,0 47.272,-18.643 47.272,-51.489 V 90.171 h -28.63 v 106.97 c 0,15.536 -7.324,23.969 -20.64,23.969 -6.4361,0 -14.87,-1.7755 -20.862,-4.6607 l -8.2116,22.194 c 9.3213,5.3265 19.974,7.7678 31.071,7.7678 z"
         id="path306" />
      <path
         d="m 285.75,119.58 c -0.19936,-0.10016 -0.64974,-0.57531 -0.78204,-0.57531 -0.53653,0 -5.0637,2.0002 -12.575,5.5016 -2.9585,1.3791 -8.1826,3.9 -12.006,5.7142 l 2.8883,8.8482 16.643,50.965 h -42.615 l 14.974,-45.854 3.9063,-11.961 c -4.8704,2.3207 -8.4324,3.9819 -14.274,6.7927 -4.6519,2.2384 -11.731,5.7178 -16.881,8.2085 l -4.4251,12.134 -34.566,94.82 h 30.404 l 12.651,-38.618 h 59.037 l 0.5324,1.6518 22.576,-23.92 -20.427,-59.067 z"
         opacity="0.3"
         id="path308" />
      <path
         d="m 242.19,100.15 -17.16,47.071 c 5.15,-2.4907 12.229,-5.9701 16.881,-8.2085 5.8413,-2.8107 9.4034,-4.472 14.274,-6.7927 l 2.428,-7.4362 1.7747,5.4372 c 3.823,-1.8141 9.0471,-4.3351 12.006,-5.7142 7.5114,-3.5014 12.039,-5.5016 12.575,-5.5016 0.1323,0 0.58268,0.47519 0.78204,0.57531 l -6.7205,-19.43 z"
         opacity="0.3"
         id="path310" />
      <path
         d="m 242.19,90.166 -21.585,59.207 -34.565,94.819 h 30.403 l 12.651,-38.618 h 59.037 l 2.929,9.1001 22.706,-24.062 -22.953,-66.371 -11.782,-34.074 z m 16.423,24.634 4.664,14.286 16.643,50.965 h -42.614 l 14.974,-45.852 z"
         id="path312" />
      <path
         d="m 270.26,279.78 -18.347,20.074 c 17.962,7.1247 27.915,23.472 27.915,47.143 0,31.93 -17.357,49.929 -48.43,49.929 h -25.075 v -47.185 l -27.428,30.009 v 40.964 h 49.287 c 48.002,0 80.359,-30.002 80.359,-77.361 0,-30.817 -13.961,-52.726 -38.282,-63.573 z"
         opacity="0.3"
         id="path314" />
      <path
         d="m 270.26,269.8 -18.347,20.074 c 17.962,7.1247 27.915,23.472 27.915,47.143 0,31.93 -17.357,49.929 -48.43,49.929 h -25.075 v -47.185 l -27.428,30.009 v 40.964 h 49.287 c 48.002,0 80.359,-30.002 80.359,-77.361 0,-30.817 -13.961,-52.726 -38.282,-63.573 z"
         id="path316" />
      <path
         d="m 419.97,420.72 h 33.216 L 398.755,342.289 447.4,272.001 h -31.93 l -31.073,48.645 -30.858,-48.645 h -32.787 l 48.645,71.36 -52.502,77.36 h 31.93 l 34.93,-55.931 z"
         opacity="0.3"
         id="path318" />
      <path
         d="m 419.97,410.73 h 33.216 L 398.755,332.299 447.4,262.011 h -31.93 l -31.073,48.645 -30.858,-48.645 h -32.787 l 48.645,71.36 -52.502,77.36 h 31.93 l 34.93,-55.931 z"
         id="path320" />
      <path
         d="m 98.801,457.41 -9.1251,9.9852 h 306.89 L 391.507,457.41 Z"
         opacity="0.3"
         id="path322" />
    </g>
  </g>
</svg>
