<?xml version="1.0" encoding="UTF-8" standalone="no"?>
<svg
   inkscape:version="1.1.2 (0a00cf5339, 2022-02-04)"
   sodipodi:docname="jaeles.svg"
   viewBox="0 0 512 512"
   height="512"
   width="512"
   id="svg62"
   version="1.1"
   xmlns:inkscape="http://www.inkscape.org/namespaces/inkscape"
   xmlns:sodipodi="http://sodipodi.sourceforge.net/DTD/sodipodi-0.dtd"
   xmlns="http://www.w3.org/2000/svg"
   xmlns:svg="http://www.w3.org/2000/svg"
   xmlns:rdf="http://www.w3.org/1999/02/22-rdf-syntax-ns#"
   xmlns:cc="http://creativecommons.org/ns#"
   xmlns:dc="http://purl.org/dc/elements/1.1/">
  <metadata
     id="metadata68">
    <rdf:RDF>
      <cc:Work
         rdf:about="">
        <dc:format>image/svg+xml</dc:format>
        <dc:type
           rdf:resource="http://purl.org/dc/dcmitype/StillImage" />
      </cc:Work>
    </rdf:RDF>
  </metadata>
  <defs
     id="defs66" />
  <sodipodi:namedview
     inkscape:current-layer="g70"
     inkscape:window-maximized="1"
     inkscape:window-y="24"
     inkscape:window-x="0"
     inkscape:cy="245.46083"
     inkscape:cx="260.41966"
     inkscape:zoom="0.73535154"
     showgrid="false"
     id="namedview64"
     inkscape:window-height="695"
     inkscape:window-width="1366"
     inkscape:pageshadow="2"
     inkscape:pageopacity="0"
     guidetolerance="10"
     gridtolerance="10"
     objecttolerance="10"
     borderopacity="1"
     bordercolor="#666666"
     pagecolor="#797979"
     inkscape:pagecheckerboard="0" />
  <g
     id="g70"
     inkscape:label="Image"
     inkscape:groupmode="layer">
    <g
       id="g1010"
       transform="matrix(0.98551077,0,0,0.97906356,3.7070811,5.3638575)">
      <path
         id="path74-5"
         style="fill:#ffffff;stroke-width:0.752769"
         d="M 308.9375,1.3769531 C 288.20393,1.6633948 267.72729,10.972245 254.02937,26.566617 243.90482,37.868828 237.017,52.227925 235.3904,67.374831 c -0.99976,8.713681 -0.75538,17.602491 0.99881,26.205146 4.08015,19.133913 16.15996,36.298713 32.50246,46.979033 5.55444,3.66844 11.58909,6.60965 17.90325,8.71638 0,4.35352 0,8.70703 0,13.06055 -24.71858,6.28917 -46.63753,22.82518 -59.52378,44.83043 -8.40351,14.2979 -13.12613,30.76982 -13.38833,47.36293 -8.0451,1.88065 -16.14502,3.63161 -23.99043,6.25015 -4.83969,2.01089 -8.69592,5.99695 -11.03105,10.64047 -6.03158,-4.72432 -14.52661,-6.40544 -21.76316,-3.64814 -4.07692,1.48793 -7.68639,4.18164 -10.35794,7.59345 -8.25674,-16.57117 -22.73287,-29.99313 -40.00196,-36.73035 -17.035526,-6.75547 -36.511338,-7.28764 -53.813558,-1.17272 -14.963231,5.17351 -28.253884,15.12768 -37.283415,28.14913 -10.1805818,14.51619 -15.17223611,32.62158 -13.6694357,50.30415 1.2738897,16.04758 7.729963,31.67994 18.3697377,43.78746 12.839944,14.83185 31.447968,24.70629 51.048861,26.39013 19.829675,1.81026 40.36531,-4.44146 55.55138,-17.38741 13.58335,-11.31936 23.4168,-27.29281 26.61469,-44.74724 0.8246,-4.40162 1.26185,-8.87656 1.29113,-13.35486 4.64645,2.38279 10.12986,2.73521 15.18359,1.65625 3.64515,-0.797 7.04978,-2.59402 9.75366,-5.16691 2.2362,-1.99579 4.11623,-4.3973 5.48462,-7.06552 4.27486,3.31661 9.79741,5.25709 15.23231,4.57395 5.42381,-0.52047 10.71315,-1.89173 16.04052,-2.97378 2.62774,-0.58448 5.25554,-1.16866 7.88342,-1.75251 5.72853,10.98383 13.56322,20.84525 22.81888,29.06549 12.37822,10.91291 27.61589,18.64551 43.84839,21.76053 9.80002,1.91477 19.88507,2.41827 29.82341,1.44036 4.9071,-0.53853 9.74728,-1.58136 14.51127,-2.86013 6.4774,11.18935 12.60799,22.5744 18.87891,33.87891 -5.5346,5.90588 -10.27275,12.616 -13.52539,20.04882 -2.90205,6.45333 -5.09713,13.25822 -6.20454,20.25458 -0.83564,6.45885 -0.57713,12.99229 -0.3773,19.48208 0.65048,9.01055 3.71817,17.66627 7.62721,25.74599 6.68604,13.41159 17.28035,24.93958 30.3943,32.26839 8.83646,5.0272 18.68237,8.43467 28.83211,9.36715 8.60065,0.68539 17.3037,0.20204 25.76795,-1.47291 11.34801,-2.55218 21.94561,-8.03997 30.94151,-15.36605 13.96871,-11.48096 23.73227,-28.09654 26.47681,-46.00973 1.28862,-8.44317 1.22095,-17.0893 -0.0823,-25.52628 -2.82567,-17.66851 -12.47503,-34.0328 -26.21359,-45.43253 -11.99191,-10.04931 -27.22459,-16.10246 -42.82534,-17.15853 -6.65296,-0.49349 -13.34927,0.005 -19.91497,1.13105 -6.57217,-11.12693 -12.74099,-22.48446 -19.04882,-33.76172 14.60384,-13.87675 24.9435,-32.22295 29.09432,-51.946 1.42583,-7.38298 1.17758,-14.93992 1.17725,-22.42035 -0.1074,-8.3974 -0.99745,-16.86643 -3.67678,-24.86406 -0.59305,-1.81872 -1.25652,-3.61389 -1.96003,-5.39264 0.64315,-0.4132 1.25322,-0.93727 1.90039,-1.26562 7.17326,5.22377 15.42594,8.91667 24.0731,10.88753 14.4093,3.36161 29.96465,2.14635 43.45807,-4.04276 12.93209,-5.8187 23.94363,-15.76783 31.07713,-28.02081 3.916,-6.6176 6.88768,-13.85218 8.33341,-21.41964 0.99545,-6.37716 0.57746,-12.85185 0.57559,-19.27672 -0.14581,-5.33919 -1.11264,-10.66596 -3.02866,-15.65909 -3.09646,-9.06044 -8.22835,-17.40103 -14.8722,-24.29253 -7.05545,-7.55929 -15.60689,-13.87031 -25.31499,-17.56076 -5.84201,-2.340861 -12.05345,-3.92912 -18.37567,-3.980458 -4.78963,-0.09084 -9.58625,-0.125233 -14.37271,0.09038 -4.05089,0.211121 -8.07042,0.950663 -11.90978,2.265387 -10.08674,3.186651 -19.42917,8.756071 -26.91747,16.240911 -7.7337,7.35733 -14.01773,16.37511 -17.53034,26.49815 -2.14066,5.69501 -3.34656,11.75688 -3.31769,17.85056 -0.0724,4.63336 -0.0868,9.2738 0.14306,13.9025 0.21,2.80851 0.66356,5.60136 1.41079,8.31813 -0.58223,0.40679 -1.16639,0.81077 -1.75586,1.20703 -10.77424,-9.57863 -23.71675,-16.69473 -37.58098,-20.64996 -0.94859,-0.28503 -1.90013,-0.56133 -2.85652,-0.81879 0,-4.30794 0,-8.61589 0,-12.92383 16.32884,-5.33569 30.59425,-16.53153 39.89834,-30.94576 7.22829,-11.03335 11.73065,-23.967561 12.16492,-37.196637 C 386.35967,72.5499 385.66345,63.645175 382.96368,55.25782 380.48215,47.38138 376.74033,39.913852 372.08341,33.101824 367.30753,26.172381 361.27856,20.109328 354.33175,15.353427 341.14711,6.1312225 325.04525,1.0670075 308.9375,1.3769531 Z m 1.61719,46.5527349 c 8.96614,-0.059 17.77858,4.495251 22.99894,11.771789 5.19393,6.970226 7.42092,16.316927 5.05898,24.776513 -2.65819,9.947711 -10.7342,18.44475 -20.78226,21.02135 -4.17604,0.96812 -8.54572,1.13477 -12.78686,0.52918 -10.44966,-1.94906 -19.41716,-10.086516 -22.59854,-20.196872 -1.31657,-4.405883 -1.37432,-9.100858 -0.8029,-13.633662 0.97672,-6.682524 4.71108,-12.80334 9.7962,-17.174342 5.28344,-4.495784 12.16713,-7.105775 19.11644,-7.093956 z m 131.56445,95.593752 c 8.55674,0.0829 16.93494,5.46769 20.19203,13.44582 2.60768,6.02622 2.22032,13.43562 -1.20961,18.9741 -4.14749,7.02821 -12.29986,11.72923 -20.52336,11.12214 -7.35339,-0.64845 -13.95483,-5.52668 -17.43432,-11.93216 -1.86892,-3.46823 -2.7943,-7.46763 -2.47786,-11.40482 0.0226,-0.36078 0.12819,-1.14486 0.20641,-1.66367 1.16314,-7.99388 7.14247,-15.02327 14.81948,-17.50966 2.07018,-0.6825 4.24664,-1.0394 6.42723,-1.03175 z m -132.57031,62.5039 c 5.93842,-0.0237 11.86643,1.05327 17.44726,3.07227 0.30827,0.12793 1.08693,0.40508 1.57359,0.6055 9.23578,3.68579 17.41113,10.10081 22.92388,18.40438 1.8398,2.70371 3.43198,5.57907 4.72324,8.58387 -4.74527,-3.37972 -10.85105,-4.96202 -16.6074,-3.78897 -8.51031,1.56565 -16.15383,7.92076 -18.61966,16.30672 -1.33875,4.33522 -1.3756,9.05184 -0.17919,13.42366 -3.19587,0.63873 -6.19635,1.97517 -9.34571,2.77343 -2.29222,0.25277 -4.63658,-0.53247 -6.52539,-1.80859 -2.00881,-1.38502 -3.33683,-3.61549 -3.69531,-6.01953 -0.64172,-3.38947 -0.89227,-6.89385 -2.25193,-10.10522 -2.05626,-5.43502 -6.13728,-10.2617 -11.59668,-12.47101 -6.05422,-2.56756 -13.13609,-2.56928 -19.22561,-0.11518 -1.45988,0.62056 -2.85616,1.38931 -4.15625,2.29883 2.94659,-7.38056 8.05835,-13.72903 13.99075,-18.93925 6.20516,-5.41198 13.70821,-9.39626 21.78304,-11.11912 3.2038,-0.70621 6.48089,-1.07387 9.76137,-1.10179 z m 46.34179,70.19141 c -1.93663,4.2886 -4.44923,8.32057 -7.47265,11.92773 0.40724,-2.91845 0.23941,-5.92503 -0.58008,-8.75976 2.88643,-0.5927 5.65007,-1.7479 8.12695,-3.33984 l -0.0396,0.0918 z m -277.279292,3.45117 c 11.065604,0.12659 21.551662,7.11285 26.456372,16.94691 2.87328,5.51354 4.21449,12.04261 2.67839,18.15661 -0.9901,4.27003 -2.68218,8.38883 -4.98565,12.11583 -3.564862,5.22876 -9.012765,8.97582 -14.881584,11.19329 -7.909976,2.89389 -17.022727,1.98328 -24.314076,-2.18234 -6.498025,-3.65764 -11.597665,-9.76671 -13.866702,-16.88663 -1.904018,-5.75499 -1.963147,-12.0968 -0.116115,-17.87476 1.322256,-4.50925 3.725995,-8.70967 7.080823,-12.01493 3.228861,-3.4441 7.158094,-6.345 11.698331,-7.77783 3.290856,-1.12729 6.77279,-1.6865 10.250211,-1.67615 z M 409.00391,405.83789 c 4.48502,-0.0242 9.06975,0.64731 13.08593,2.74219 6.29598,2.99663 11.51613,8.30874 14.11762,14.80598 2.50778,5.67577 3.36007,12.19942 1.69655,18.23316 -0.47897,1.97839 -1.26218,4.10102 -2.07979,5.81437 -0.72654,1.54251 -1.58948,3.01888 -2.56055,4.41993 -0.24071,0.33171 -0.69222,0.96925 -1.04376,1.40112 -4.62749,5.92783 -11.77037,9.89317 -19.26396,10.49649 -2.86979,0.29548 -5.80081,0.70951 -8.66875,0.22108 -9.35227,-2.10717 -17.69736,-8.69014 -21.588,-17.49785 -1.38657,-3.04218 -2.01239,-6.3782 -2.03885,-9.71125 -0.0494,-1.54237 -0.003,-3.1651 0.0778,-4.5969 0.0342,-3.40682 0.89397,-6.77496 2.41335,-9.81933 3.28686,-6.79833 9.36707,-11.99594 16.30354,-14.83126 2.30538,-1.02537 4.79592,-1.5936 7.32032,-1.63638 0.74226,-0.0339 1.48557,-0.0387 2.22851,-0.0413 z" />
      <g
         id="g5574"
         transform="matrix(0.96419594,0,0,0.96428994,9.1658379,9.1417748)">
        <path
           inkscape:connector-curvature="0"
           id="path74"
           d="m 402.89261,504.90598 c -24.13556,-5.09823 -42.41466,-22.11324 -49.60387,-46.17349 -1.79969,-6.02308 -2.0889,-8.39668 -2.0889,-17.14464 0,-8.70601 0.29287,-11.13328 2.05406,-17.0243 3.63724,-12.16618 8.4067,-20.24878 17.06409,-28.91774 l 5.32016,-5.32726 -15.04914,-27.28646 c -11.03097,-20.00084 -15.36168,-27.18957 -16.21963,-26.92362 -16.92178,5.24545 -23.80352,6.30425 -36.67454,5.64257 -21.50095,-1.10532 -40.56809,-9.68987 -55.96448,-25.19671 -7.23587,-7.28777 -14.43964,-17.72876 -17.77866,-25.76796 -1.23566,-2.97506 -2.3092,-5.51003 -2.38564,-5.63325 -0.0765,-0.12323 -7.82184,1.53643 -17.21201,3.68813 -10.38925,2.38064 -17.83672,3.71761 -19.0238,3.41515 -4.57003,-1.16438 -7.80309,-5.00143 -7.80309,-9.26083 0,-3.33271 2.37275,-7.42204 5.04721,-8.69862 1.35353,-0.64607 9.6185,-2.82327 18.36658,-4.83823 l 15.9056,-3.66355 -0.21052,-7.84666 c -0.46881,-17.4739 4.75679,-35.08616 14.85877,-50.07966 12.62983,-18.74537 33.77749,-32.60638 55.41326,-36.32004 l 5.32461,-0.91395 v -18.06991 -18.06992 l -6.31146,-1.69085 c -19.71396,-5.28142 -36.23332,-20.09115 -43.51638,-39.012742 -2.98495,-7.754975 -4.08446,-14.001349 -4.08446,-23.203975 0,-13.411136 3.15621,-24.248113 10.21383,-35.069618 21.8265,-33.4667209 67.47703,-39.2021035 97.68676,-12.273034 8.17108,7.283736 15.4582,19.666679 18.66753,31.721586 2.32541,8.734731 2.32343,22.5215 -0.004,31.242142 -6.37493,23.881171 -25.32508,42.360041 -48.55401,47.346501 l -3.80908,0.81773 v 18.29003 18.29003 h 1.85072 c 3.81113,0 17.0425,3.90789 23.5223,6.94732 8.92588,4.18681 16.72403,9.4633 23.48698,15.89213 3.05404,2.90316 5.79964,5.27848 6.10132,5.27848 0.6641,0 19.9484,-13.2483 19.9484,-13.70454 0,-0.17685 -0.9537,-3.05286 -2.11933,-6.39115 -1.92089,-5.50128 -2.11769,-7.09346 -2.10179,-17.00435 0.0156,-9.73748 0.2455,-11.6189 2.09937,-17.18318 2.99454,-8.98788 7.09685,-15.52381 14.21667,-22.65042 7.11983,-7.12661 13.64954,-11.23284 22.62886,-14.23022 5.57481,-1.86093 7.41091,-2.0838 17.16681,-2.0838 9.75591,0 11.59201,0.22287 17.16681,2.0838 8.97932,2.99738 15.50903,7.10361 22.62886,14.23022 7.11982,7.12661 11.22213,13.66254 14.21666,22.65042 1.85388,5.56428 2.08374,7.4457 2.09938,17.18318 0.016,9.95471 -0.17644,11.49477 -2.14686,17.18317 -8.64454,24.95589 -31.80563,40.86155 -57.05867,39.18449 -12.60163,-0.83688 -23.39801,-5.00168 -32.5285,-12.54814 l -4.94606,-4.08798 -7.75624,5.33454 c -4.26593,2.934 -8.804,6.14331 -10.0846,7.13182 l -2.32837,1.79729 2.83663,6.61064 c 5.08514,11.85072 6.37314,18.75661 6.32294,33.90164 -0.0391,11.79886 -0.27319,14.13376 -2.10138,20.96129 -4.83056,18.04002 -16.32721,35.47035 -30.75055,46.6216 l -2.49743,1.93086 15.18925,27.33687 c 8.3541,15.03528 15.62288,27.2854 16.15286,27.22249 0.52998,-0.0629 3.07043,-0.70371 5.64546,-1.42399 2.57502,-0.72028 8.38491,-1.506 12.91087,-1.74604 30.77372,-1.63209 58.29763,19.03156 65.52107,49.19013 2.08158,8.69077 2.08158,21.34213 0,30.03289 -5.4405,22.71464 -22.62805,40.55465 -45.40199,47.1255 -7.34697,2.1198 -22.2418,2.71329 -29.51856,1.17619 z m 25.88884,-20.84438 c 11.75316,-3.83128 21.14188,-11.96067 26.3441,-22.8105 6.36209,-13.26889 6.34171,-26.10129 -0.0626,-39.45614 -5.19105,-10.82465 -14.28725,-18.67773 -26.42007,-22.80944 -6.90974,-2.35303 -19.54334,-2.5684 -25.75021,-0.43899 -15.87544,5.44645 -26.85231,16.7472 -30.84148,31.75146 -1.45473,5.47163 -1.45473,17.10809 0,22.57972 4.45229,16.74617 18.69034,29.73944 36.30364,33.12975 3.87695,0.74626 15.5914,-0.36967 20.42668,-1.94586 z M 328.37304,320.15859 c 23.68617,-6.11458 41.71525,-24.14278 48.06167,-48.05934 2.32581,-8.76482 2.32581,-23.25837 0,-32.02319 -6.34598,-23.9149 -24.35841,-41.92809 -48.06167,-48.06371 -22.14561,-5.73242 -44.61391,0.22268 -61.39777,16.27317 -13.96075,13.35074 -20.45232,28.52315 -20.45232,47.80214 0,19.24481 6.49503,34.45471 20.3855,47.73825 9.6968,9.27308 20.76921,15.04522 33.48607,17.45652 7.86461,1.49125 19.68812,1.01633 27.97852,-1.12384 z m -22.91866,-20.38678 c -20.32198,-3.59102 -36.78536,-22.43569 -36.77211,-42.09088 0.004,-7.36472 3.47647,-11.25514 9.9557,-11.15709 6.16329,0.0933 8.94882,3.35038 9.84903,11.51645 1.32823,12.04871 10.02431,20.70646 22.06133,21.96409 3.7567,0.39249 5.64503,0.10119 10.72539,-1.65456 5.38433,-1.86082 6.53927,-2.01897 9.11113,-1.24769 1.61985,0.48578 3.81917,1.9229 4.88736,3.19358 2.83683,3.37459 3.24285,6.32102 1.43482,10.41228 -1.26764,2.86843 -2.23755,3.78517 -5.71079,5.39769 -7.68595,3.56833 -17.84408,5.02637 -25.54186,3.66613 z m 38.50043,-33.6444 c -6.46988,-1.70474 -9.40189,-9.45839 -5.8079,-15.35887 1.5898,-2.61006 5.55401,-4.83457 8.61549,-4.83457 5.54193,0 10.79313,6.5581 9.74198,12.16654 -1.06395,5.67672 -7.01732,9.48459 -12.54957,8.0269 z M 457.15526,197.8754 c 7.38275,-1.89757 12.86961,-4.97212 17.98195,-10.07614 21.41235,-21.37746 9.61404,-57.13656 -20.54909,-62.28157 -10.88815,-1.85722 -22.60429,1.86392 -30.62703,9.72739 -6.81548,6.68019 -10.43534,14.11899 -11.37058,23.36644 -2.45366,24.2615 21.3473,45.23139 44.56475,39.26388 z M 324.88632,113.47946 c 14.94337,-4.39378 26.75809,-16.744112 30.74288,-32.136574 5.84212,-22.566964 -8.10903,-46.994183 -30.61861,-53.610476 -24.13582,-7.094299 -49.52804,7.40153 -55.9072,31.916105 -1.54206,5.926006 -1.54206,15.95189 0,21.877899 4.23803,16.286421 17.47728,29.093986 33.90959,32.803916 6.02488,1.36025 15.62315,0.98687 21.87334,-0.85087 z M 60.207538,375.9274 C 39.433186,372.16474 21.206005,357.985 12.424164,338.75458 -0.18584653,311.14123 8.0836356,278.14626 32.203247,259.83667 c 27.878397,-21.16294 68.073803,-16.37252 90.014073,10.72772 15.02132,18.55408 18.78888,44.07863 9.72599,65.89182 -6.66905,16.05148 -20.68519,29.85953 -36.510188,35.96811 -11.469505,4.42733 -23.511025,5.62482 -35.225584,3.50308 z m 21.977829,-20.02782 c 9.047939,-2.17636 18.412113,-8.03576 24.498873,-15.3296 5.91314,-7.08577 10.58796,-19.90208 10.58796,-29.02753 0,-11.19419 -5.2111,-23.36284 -13.55998,-31.66451 -14.338592,-14.2575 -34.581261,-17.61239 -52.697971,-8.73383 -7.512009,3.68145 -16.330146,12.61101 -19.91476,20.16638 -3.737984,7.87863 -5.367996,15.86914 -4.806262,23.56087 2.046918,28.02803 28.675262,47.57485 55.89214,41.02822 z M 155.0847,298.06881 c -8.55505,-7.84759 1.27143,-21.4806 11.14113,-15.45695 5.7542,3.51188 6.45169,10.88084 1.46304,15.45695 -2.27081,2.08303 -3.40238,2.5389 -6.30209,2.5389 -2.89971,0 -4.03127,-0.45587 -6.30208,-2.5389 z"
           style="fill:#000000;stroke-width:0.780684" />
        <path
           id="path2857"
           style="fill:#00ddff;fill-opacity:1;stroke-width:2.38485"
           d="m 69.494141,265.92773 c -4.983032,0.0533 -10.154215,0.11259 -14.779008,2.211 -8.422926,3.64024 -15.518055,9.9256 -20.892125,17.29635 -3.5781,4.8918 -6.237831,10.47936 -7.505494,16.4196 -2.615455,11.63517 -0.221457,24.16794 6.025715,34.27232 6.047053,9.93943 15.858333,17.61355 27.1202,20.67767 9.393922,2.68793 19.611211,1.6978 28.593028,-1.99603 11.645654,-4.75436 21.659473,-14.00257 26.340233,-25.78606 2.25138,-5.96758 4.40046,-12.21648 4.07733,-18.68779 -0.25894,-4.97329 -1.62814,-9.82654 -3.36074,-14.47151 -3.04927,-7.95676 -8.28705,-15.03529 -14.96566,-20.32188 -3.854471,-3.03783 -8.058946,-5.67187 -12.566024,-7.62668 -4.968168,-2.07348 -10.457849,-1.92645 -15.739401,-1.99144 -0.782682,-0.003 -1.565372,0.003 -2.348054,0.004 z" />
        <path
           id="path5375"
           style="fill:#00ddff;fill-opacity:1;stroke-width:2.38485"
           d="m 312.35742,25.072266 c -7.05875,0.125145 -14.1806,1.603236 -20.43057,4.967828 -6.23021,3.136703 -11.92426,7.520578 -16.01085,13.220604 -2.80525,3.872422 -4.98975,8.17196 -6.76237,12.603484 -2.07467,5.253697 -1.87735,11.00008 -1.86672,16.546721 0.0372,4.978789 0.47136,10.061784 2.43158,14.694953 4.90649,12.255536 15.30516,22.029204 27.58169,26.726304 3.68694,1.40961 7.5781,2.35353 11.53995,2.40889 6.9031,0.1577 13.8504,-1.03512 20.29268,-3.52425 9.05807,-3.62769 16.95551,-10.14285 22.07614,-18.465628 2.04293,-3.37082 3.84601,-6.921392 5.06644,-10.676953 1.49964,-4.995551 1.27314,-10.275749 1.26805,-15.431123 -0.0414,-4.456344 -0.48792,-8.994471 -2.25114,-13.133353 -1.97908,-4.980708 -4.81704,-9.604552 -8.34163,-13.640514 -4.84104,-5.541981 -10.69468,-10.340963 -17.46409,-13.319352 -5.38844,-2.267182 -11.31582,-3.048846 -17.12916,-2.977611 z" />
        <path
           id="path5414"
           style="fill:#00ddff;fill-opacity:1;stroke-width:2.38485"
           d="m 447.80273,124.08984 c -9.09091,0.23908 -17.98915,4.05002 -24.51842,10.36448 -3.94661,3.78159 -7.12472,8.36003 -9.36994,13.33842 -1.97061,4.54049 -1.7751,9.59837 -1.82509,14.4432 0.038,4.82567 -0.0272,9.88235 2.13434,14.32586 3.53429,7.42275 9.13972,13.90675 16.20895,18.15439 4.26122,2.62044 9.03298,4.50981 14.03761,5.00317 10.29742,1.12379 20.77127,-2.60742 28.68857,-9.13927 4.70584,-3.8964 8.64558,-8.79529 11.16547,-14.37697 2.29995,-5.72077 2.82343,-12.02013 2.39395,-18.12733 -0.38627,-4.90912 -1.53627,-9.87169 -4.21663,-14.06414 -4.76738,-8.12032 -12.29463,-14.70397 -21.23211,-17.81304 -4.31053,-1.51838 -8.89759,-2.24122 -13.4667,-2.10877 z" />
        <path
           id="path5453"
           style="fill:#00ddff;fill-opacity:1;stroke-width:2.38485"
           d="m 414.01758,395.84961 c -7.89395,0.17751 -15.69589,2.67233 -22.26259,7.05002 -6.96847,4.59871 -12.99166,10.75997 -17.04467,18.08648 -3.83676,7.06521 -5.19629,15.26343 -4.90843,23.23681 0.27452,6.75399 1.88556,13.55835 5.42631,19.37107 4.96877,8.38 12.43768,15.25041 21.15115,19.59346 5.86021,2.94187 12.44143,4.42819 18.9994,4.19865 13.44549,-0.43326 26.54947,-6.92241 35.14654,-17.25166 4.695,-5.55334 7.48641,-12.44777 9.23838,-19.43913 1.25894,-5.3154 2.03036,-10.92529 0.77714,-16.3189 -2.36749,-11.95084 -9.41926,-22.89707 -19.35578,-29.95361 -7.84385,-5.63428 -17.48289,-8.82441 -27.16745,-8.57319 z" />
        <path
           id="path5492"
           style="fill:#00ddff;fill-opacity:1;stroke-width:2.38485"
           d="m 310.03516,189.08008 c -15.23945,0.32364 -30.11268,6.49214 -41.58041,16.44473 -10.88238,9.3891 -18.88561,22.27892 -21.75046,36.41845 -1.83949,9.62141 -1.45727,19.59137 0.48126,29.16612 1.54032,7.37301 4.14826,14.6202 8.47793,20.83434 6.00304,8.7977 13.99121,16.17533 22.98643,21.84067 6.96925,4.37404 14.72007,7.64837 22.89302,8.86061 14.15476,2.27755 28.92082,-0.6304 41.49719,-7.39482 14.59817,-7.7888 26.5345,-20.76549 32.36126,-36.31978 4.23376,-11.23787 5.11186,-23.66024 2.86961,-35.43546 -2.72444,-14.35178 -10.39221,-27.67412 -21.34194,-37.3296 -10.75237,-9.57551 -24.63753,-15.51706 -38.97137,-16.79101 -2.63158,-0.25328 -5.2795,-0.33967 -7.92252,-0.29425 z m 36.77734,58.39258 c 2.36004,0.40773 4.31728,1.99522 6.00401,3.60695 1.22471,1.28833 2.52875,2.73489 2.82798,4.54561 -0.0653,2.49894 -1.38707,4.82681 -3.03346,6.64165 -1.58073,1.83264 -4.04934,2.41747 -6.32392,2.85618 -2.07759,0.47393 -3.9448,-0.9522 -5.31449,-2.34526 -1.83438,-1.98368 -3.41176,-4.64298 -2.99999,-7.44439 0.61952,-3.68503 3.63037,-6.88262 7.26993,-7.72626 0.51441,-0.10742 1.04442,-0.16164 1.56994,-0.13448 z m -67.92969,0.39062 c 3.11931,0.0606 5.70722,2.41654 6.92893,5.15265 1.31198,2.68401 1.28687,5.7525 2.25423,8.54778 2.07665,7.03852 6.70932,13.52391 13.31707,16.92697 4.58614,2.43452 10.00984,3.09058 15.08159,2.06879 4.25708,-0.64914 8.57513,-1.3775 12.89279,-0.9872 2.13428,0.18242 4.3201,1.08852 5.50211,2.95924 1.46491,1.92495 2.12786,4.64783 0.96958,6.88449 -1.5943,3.15279 -4.84746,4.97752 -7.96035,6.3549 -5.16997,2.26861 -10.87483,3.23004 -16.50548,2.97715 -0.3484,-0.0179 -1.13968,-0.0556 -1.65641,-0.10968 -15.32753,-1.30521 -29.79949,-11.14472 -36.11278,-25.25699 -1.02243,-2.25595 -1.79189,-4.61809 -2.4105,-7.01419 -0.0815,-0.33363 -0.26661,-1.04143 -0.36595,-1.53156 -0.81384,-3.85571 -1.3763,-8.00889 -0.0152,-11.80857 0.85156,-2.47841 3.08777,-4.29141 5.61463,-4.86065 0.80497,-0.20675 1.63259,-0.33427 2.46572,-0.30313 z" />
      </g>
    </g>
  </g>
</svg>
