<?xml version="1.0" encoding="UTF-8" standalone="no"?>
<!-- Created with Inkscape (http://www.inkscape.org/) -->

<svg
   height="512"
   id="svg870"
   inkscape:version="1.2.2 (b0a8486541, 2022-12-01)"
   sodipodi:docname="katana.svg"
   version="1.1"
   viewBox="0 0 512.00001 511.99999"
   width="512"
   xmlns:inkscape="http://www.inkscape.org/namespaces/inkscape"
   xmlns:sodipodi="http://sodipodi.sourceforge.net/DTD/sodipodi-0.dtd"
   xmlns:xlink="http://www.w3.org/1999/xlink"
   xmlns="http://www.w3.org/2000/svg"
   xmlns:svg="http://www.w3.org/2000/svg">
  <defs
     id="defs874">
    <linearGradient
       id="linearGradient4587"
       inkscape:collect="always">
      <stop
         id="stop4583"
         offset="0"
         style="stop-color:#5c33ff;stop-opacity:1" />
      <stop
         id="stop4585"
         offset="1"
         style="stop-color:#462fff;stop-opacity:1" />
    </linearGradient>
    <linearGradient
       gradientTransform="matrix(0.83504118,0,0,0.9767873,42.755261,7.0861127)"
       gradientUnits="userSpaceOnUse"
       id="linearGradient4589"
       inkscape:collect="always"
       x1="255.52814"
       x2="251.86917"
       xlink:href="#linearGradient4587"
       y1="20.721464"
       y2="504.92932">
      <stop
         id="stop1648"
         offset="0"
         style="stop-color:#5c33ff;stop-opacity:1" />
      <stop
         id="stop1650"
         offset="1"
         style="stop-color:#462fff;stop-opacity:1" />
    </linearGradient>
  </defs>
  <sodipodi:namedview
     bordercolor="#eeeeee"
     borderopacity="1"
     id="namedview872"
     inkscape:current-layer="g876"
     inkscape:cx="54.050727"
     inkscape:cy="242.8366"
     inkscape:pagecheckerboard="0"
     inkscape:pageopacity="0"
     inkscape:pageshadow="0"
     inkscape:window-height="705"
     inkscape:window-maximized="1"
     inkscape:window-width="1366"
     inkscape:window-x="0"
     inkscape:window-y="26"
     inkscape:zoom="0.63828929"
     pagecolor="#505050"
     showgrid="false"
     inkscape:showpageshadow="0"
     inkscape:deskcolor="#505050" />
  <g
     id="g876"
     inkscape:groupmode="layer"
     inkscape:label="Image">
    <g
       id="g1819"
       transform="matrix(0.95806406,0,0,0.98204773,10.735601,4.5997341)">
      <path
         id="path5906-7"
         style="fill:#ffffff;fill-opacity:1;stroke-width:2.03603"
         d="m 228.01953,6.1210938 c 0,37.0813802 0,74.1627602 0,111.2441362 -12.64648,0 -25.29297,0 -37.93945,0 0,15.75521 0,31.51042 0,47.26563 12.64648,0 25.29297,0 37.93945,0 0.0181,84.86168 -0.0948,169.72475 0.55125,254.58464 0.22391,23.40968 0.41832,46.82711 1.44835,70.21777 0.20907,3.59417 0.35191,7.22497 1.13658,10.74901 0.76943,3.09789 2.84938,6.00048 5.92011,7.1261 2.96512,1.17365 6.51855,0.46235 8.86092,-1.68373 2.83582,-2.08614 5.51175,-4.32021 8.2742,-6.42543 10.37683,-8.15418 20.72194,-16.34294 31.07812,-24.52344 0,-103.34831 0,-206.69661 0,-310.04492 12.21029,0 24.42058,0 36.63086,0 0,-15.75521 0,-31.51042 0,-47.26563 -12.21028,0 -24.42057,0 -36.63086,0 0,-37.748042 0,-75.496089 0,-113.2441362 -19.08984,-10e-8 -38.17968,0 -57.26953,0 0,0.6666666 0,1.3333333 0,2 z" />
      <path
         d="m 237.89686,449.6696 c -0.47425,-27.1101 -0.86327,-104.55478 -0.86447,-172.09931 l -0.002,-122.80824 h -18.96961 -18.9696 v -13.77288 -13.77288 h 18.9696 18.96961 V 70.594422 13.972556 h 19.62373 19.62373 v 56.621866 56.621868 h 18.31548 18.31549 v 13.77288 13.77288 h -18.31549 -18.31548 v 157.42568 157.4257 l -17.3343,13.71731 c -9.53386,7.54452 -17.97553,14.14766 -18.75925,14.67363 -1.00784,0.67638 -1.67738,-13.47251 -2.28725,-48.33477 z m 25.32431,-343.13184 c 2.86385,-2.11475 5.207,-4.19585 5.207,-4.62467 0,-0.42881 -2.71206,-2.791549 -6.02678,-5.250522 l -6.02679,-4.470858 -5.09333,3.942762 c -2.80133,2.168518 -5.09334,4.748858 -5.09334,5.734088 0,1.67151 8.58684,8.40114 10.81906,8.47904 0.55395,0.0193 3.35033,-1.69509 6.21418,-3.80984 z m 0.14713,-22.468148 c 2.80953,-1.847087 4.91643,-4.031434 4.68201,-4.854106 -0.23443,-0.82267 -3.11171,-3.249546 -6.39395,-5.393056 l -5.96771,-3.897293 -4.75036,4.238313 c -2.61269,2.331074 -4.75036,4.824287 -4.75036,5.540477 0,1.695617 7.97724,7.664834 10.28787,7.698221 0.98134,0.01423 4.08297,-1.485471 6.8925,-3.332556 z m 0.80806,-23.103547 c 2.33849,-1.60409 4.25075,-3.364988 4.24946,-3.913109 -0.002,-0.548119 -2.66916,-2.967407 -5.92861,-5.376195 l -5.92628,-4.379615 -5.1915,4.018747 c -2.85532,2.210311 -5.1915,4.906586 -5.1915,5.991722 0,2.733311 9.14873,8.600428 11.67307,7.485987 1.13495,-0.501057 3.97687,-2.223447 6.31536,-3.827537 z m -2.32609,-20.956189 c 2.80067,-1.671326 5.44165,-3.700326 5.86886,-4.508889 0.87623,-1.658453 -8.06668,-9.285865 -10.88741,-9.285865 -2.85541,0 -10.64379,6.140164 -10.64379,8.391296 0,1.907857 7.31218,8.360944 9.53693,8.41645 0.56832,0.01423 3.32475,-1.341667 6.12541,-3.012992 z"
         id="path1584"
         style="fill:url(#linearGradient4589);fill-opacity:1;stroke-width:5.75879" />
    </g>
  </g>
</svg>
