<?xml version="1.0" encoding="UTF-8" standalone="no"?>
<!-- Created with Inkscape (http://www.inkscape.org/) -->

<svg
   version="1.1"
   id="svg64"
   width="512"
   height="512"
   viewBox="0 0 512 512"
   sodipodi:docname="katanads.svg"
   inkscape:version="1.2.2 (b0a8486541, 2022-12-01)"
   inkscape:export-filename="../GIT Icons/katanads.png"
   inkscape:export-xdpi="96"
   inkscape:export-ydpi="96"
   xmlns:inkscape="http://www.inkscape.org/namespaces/inkscape"
   xmlns:sodipodi="http://sodipodi.sourceforge.net/DTD/sodipodi-0.dtd"
   xmlns="http://www.w3.org/2000/svg"
   xmlns:svg="http://www.w3.org/2000/svg"
   xmlns:rdf="http://www.w3.org/1999/02/22-rdf-syntax-ns#"
   xmlns:cc="http://creativecommons.org/ns#"
   xmlns:dc="http://purl.org/dc/elements/1.1/">
  <metadata
     id="metadata70">
    <rdf:RDF>
      <cc:Work
         rdf:about="">
        <dc:format>image/svg+xml</dc:format>
        <dc:type
           rdf:resource="http://purl.org/dc/dcmitype/StillImage" />
      </cc:Work>
    </rdf:RDF>
  </metadata>
  <defs
     id="defs68" />
  <sodipodi:namedview
     pagecolor="#3e3e3e"
     bordercolor="#ffffff"
     borderopacity="1"
     objecttolerance="10"
     gridtolerance="10"
     guidetolerance="10"
     inkscape:pageopacity="0"
     inkscape:pageshadow="2"
     inkscape:window-width="1366"
     inkscape:window-height="695"
     id="namedview66"
     showgrid="false"
     inkscape:zoom="0.77624611"
     inkscape:cx="198.39069"
     inkscape:cy="258.29437"
     inkscape:window-x="0"
     inkscape:window-y="24"
     inkscape:window-maximized="1"
     inkscape:current-layer="svg64"
     inkscape:pagecheckerboard="true"
     inkscape:showpageshadow="0"
     inkscape:deskcolor="#3d3d3d" />
  <g
     id="g736">
    <path
       id="path74-3"
       style="fill:#ffffff;stroke-width:2.04586"
       d="m 472.77675,11.326287 c -6.90589,0.232479 -13.3965,3.381165 -18.8082,7.557617 -9.03173,7.017351 -16.97078,15.340367 -24.4993,23.943845 -3.73626,4.490968 -7.02813,9.520107 -8.63514,15.20914 -5.27184,0.846356 -10.00787,3.601116 -14.22359,6.792108 -5.81819,4.35553 -11.207,9.256384 -16.60971,14.116774 -11.14927,10.18326 -22.06798,20.616824 -33.01701,31.017709 -22.08612,21.10818 -44.04028,42.36303 -66.18575,63.40946 -11.70543,11.12935 -23.47904,22.20319 -35.35421,33.1635 -10.91365,-10.08892 -21.19811,-20.86273 -32.39459,-30.6401 -5.16706,-4.45435 -10.72558,-8.79084 -17.31961,-10.81038 -1.8101,-0.553 -3.67574,-0.9308 -5.56162,-1.08706 -0.65181,-4.67695 -3.02922,-8.95035 -6.15871,-12.40227 -5.50179,-6.29564 -11.41111,-12.21156 -17.25556,-18.17992 C 151.26803,107.67127 125.27444,82.439512 99.13157,57.376556 86.217754,45.05803 73.269208,32.768557 59.917949,20.932016 56.351162,17.843573 52.585652,14.760526 48.041292,13.293017 41.40776,11.013172 33.801225,11.19243 27.518768,14.467701 20.686953,18.04745 15.733287,24.983248 14.457499,32.638715 c -1.620727,7.420809 -0.870133,15.06927 -0.318323,22.566913 0.792379,9.068463 1.837756,18.137937 3.738228,27.044782 2.208669,9.668368 5.752278,19.06814 10.816499,27.58704 3.024795,4.76107 7.080097,8.71546 10.863363,12.84703 7.157485,7.55696 14.54777,14.88669 21.917042,22.2303 24.208303,23.95895 48.890582,47.42144 73.518882,70.93562 18.3243,17.46932 36.6635,34.92574 54.99329,52.3905 -10.5283,9.99351 -21.0566,19.98701 -31.5849,29.98052 -5.3603,-4.76347 -11.50224,-8.96871 -18.54394,-10.63936 -6.75759,-1.63215 -14.05352,-0.8163 -20.28953,2.27967 -7.14538,3.42969 -12.96556,9.01279 -18.40086,14.69993 -4.283533,4.54378 -8.041955,9.81151 -9.777204,15.9065 -1.722744,5.80736 -1.53248,12.16914 0.590995,17.84498 2.00951,5.61599 5.624704,10.4871 9.686899,14.76328 -20.541633,19.73622 -41.204807,39.34381 -61.419541,59.42294 -6.960723,7.03865 -13.933031,14.11337 -20.034151,21.94001 -3.569863,4.77332 -6.251568,10.37466 -6.875157,16.37632 -1.517204,11.87788 2.572008,24.16209 10.262979,33.18475 4.816766,5.72727 11.07304,10.11881 17.889133,13.0824 7.047109,3.19579 15.088827,4.56563 22.700404,2.85243 8.348584,-1.72815 15.809769,-6.25388 22.550414,-11.35842 10.521017,-7.81438 19.998779,-16.92121 29.660249,-25.76284 16.95707,-15.75248 33.66427,-31.76863 50.51069,-47.64228 5.66753,4.71779 12.02933,8.93211 19.27244,10.63001 7.25594,1.70854 15.1125,0.72318 21.68837,-2.83559 6.81502,-3.52937 12.46857,-8.90663 17.62253,-14.54246 4.7772,-5.40427 8.48083,-12.05998 9.30962,-19.34375 0.84736,-6.94947 -0.97801,-14.07382 -4.58633,-20.00692 -1.73589,-2.93663 -3.83633,-5.63861 -6.10549,-8.17277 10.58718,-10.06254 21.17436,-20.12509 31.76155,-30.18764 10.60324,10.06255 21.20649,20.1251 31.80973,30.18764 -4.80495,5.33721 -8.88966,11.64999 -10.30681,18.815 -1.42608,7.02017 -0.23653,14.53284 3.29182,20.75251 3.76114,6.87189 9.48494,12.36805 15.4104,17.33711 5.26083,4.27227 11.46947,7.59836 18.22454,8.53075 6.41607,0.95641 13.037,-0.37236 18.81881,-3.26232 4.23959,-2.06866 8.09934,-4.84558 11.71599,-7.87096 21.76938,20.51618 43.42361,41.1554 65.45051,61.39172 6.75772,6.08496 13.56253,12.19304 21.16943,17.19072 6.19095,3.88338 13.39575,6.17055 20.70145,6.27818 13.56499,0.45492 27.22811,-5.64252 35.87745,-16.22938 5.1366,-6.15548 8.87897,-13.56442 10.46378,-21.47018 1.30085,-7.32243 -0.15231,-15.00438 -3.60804,-21.53634 -3.96381,-7.75912 -9.90352,-14.21537 -15.74069,-20.56262 -10.35927,-11.06288 -21.40356,-21.44244 -32.27604,-31.98106 -12.22415,-11.77528 -24.48872,-23.50309 -36.74466,-35.24477 4.70696,-4.98571 8.8841,-10.79692 10.58712,-17.56403 1.6807,-6.51366 1.02256,-13.62584 -1.95405,-19.6621 -3.20118,-6.75277 -8.55686,-12.11683 -14.03788,-17.02193 -5.03515,-4.53943 -10.67037,-8.67745 -17.22204,-10.62979 -5.60481,-1.7443 -11.71947,-1.81216 -17.33204,-0.0613 -6.44899,1.92504 -12.09343,5.86946 -17.05846,10.35432 -10.5045,-10.10517 -21.00901,-20.21034 -31.51353,-30.31551 4.61865,-4.74335 9.00678,-9.85232 12.04647,-15.79317 1.57076,-3.39414 2.30118,-7.17233 2.16773,-10.91301 5.90159,-0.13242 11.52475,-2.50343 16.41588,-5.71444 5.87369,-3.8098 11.1607,-8.44468 16.45269,-13.01853 12.85106,-11.28731 25.19324,-23.14405 37.62519,-34.89504 12.91931,-12.28928 25.82776,-24.59096 38.61386,-37.02173 10.19135,-9.97318 20.40422,-19.96831 29.6115,-30.89025 6.86488,-8.19122 12.92641,-17.24479 16.60837,-27.367348 3.30412,-9.040609 4.62477,-18.658205 5.61051,-28.195923 0.73524,-8.067096 1.78666,-16.153671 1.40143,-24.271269 -0.23927,-4.198466 -0.77785,-8.439038 -2.21169,-12.407654 -2.45488,-6.670989 -7.64986,-12.45956 -14.36896,-14.866529 -2.80849,-1.033364 -5.81146,-1.518106 -8.79867,-1.457061 z m -28.83699,70.394596 c 0.31562,0.05097 0.095,0.708574 -0.16059,0.387229 -0.11612,-0.229957 -0.12168,-0.333369 0.16059,-0.387229 z M 314.92538,219.80128 c 0.13663,0.20853 -0.002,0.68173 -0.27301,0.353 0.0129,-0.15171 0.11342,-0.32484 0.27301,-0.353 z" />
    <path
       id="path1967"
       style="fill:#d04500;fill-opacity:1;stroke:#000000;stroke-width:1.28767"
       d="m 397.71063,388.18457 c -2.12807,0.12698 -3.98515,1.34279 -5.86182,2.24694 -4.02656,2.16509 -8.07908,4.30537 -11.90891,6.81372 -0.70159,0.3895 -1.10071,1.07942 -1.48605,1.75834 0.27906,0.94021 0.81975,1.74494 1.5124,2.42617 3.18672,3.40562 6.5193,6.67578 9.95815,9.82115 1.5929,1.37984 3.41099,3.02084 5.66308,2.82867 2.14432,-0.32027 4.07142,-1.42954 6.00345,-2.36066 3.80214,-2.00102 7.5428,-4.13329 11.15291,-6.46924 0.71739,-0.39855 1.16579,-1.06954 1.56845,-1.76504 -0.26531,-0.94962 -0.77227,-1.78828 -1.48332,-2.4659 -3.43986,-3.62546 -7.09815,-7.0373 -10.81827,-10.36707 -1.28349,-1.02427 -2.51137,-2.53303 -4.30007,-2.46708 z" />
    <path
       id="path2006"
       style="fill:#d04500;fill-opacity:1;stroke:#000000;stroke-width:1.28767"
       d="m 369.70336,362.64549 c -4.95093,4.96144 -9.89733,9.92535 -14.84764,14.88759 3.08117,2.89384 6.00422,5.96664 9.23962,8.68799 1.25279,0.93544 2.4791,2.16192 4.09488,2.35434 1.75394,-0.23646 3.32415,-1.16007 4.937,-1.84114 4.08594,-1.95271 8.17172,-3.94133 12.02332,-6.3393 1.04458,-0.65555 2.13946,-1.69803 1.91462,-3.06361 -0.3316,-1.67615 -1.81174,-2.74778 -2.93143,-3.90502 -4.36564,-4.0427 -8.80643,-8.00247 -13.2063,-12.00738 -0.40803,0.40884 -0.81604,0.81768 -1.22407,1.22653 z" />
    <path
       id="path1928"
       style="fill:#d04500;fill-opacity:1;stroke:#000000;stroke-width:1.28767"
       d="m 424.22261,413.85334 c -2.10507,0.25105 -3.94098,1.44335 -5.82204,2.34185 -3.60391,1.92088 -7.20733,3.89957 -10.4794,6.36499 -0.85357,0.63767 -1.77199,1.5928 -1.59423,2.73633 0.47056,1.37632 1.65824,2.32506 2.5512,3.42128 3.26793,3.51589 6.5553,7.0351 10.17605,10.18641 1.07026,0.85665 2.3819,2.01327 3.84573,1.50418 2.77917,-1.33835 5.36438,-3.0488 8.0038,-4.64256 2.99208,-1.89257 6.05482,-3.71012 8.73545,-6.04898 0.50626,-0.41235 1.01252,-0.8247 1.51878,-1.23705 -4.51469,-4.43549 -8.85312,-9.06256 -13.60752,-13.24143 -0.91635,-0.8425 -2.0417,-1.5133 -3.32782,-1.38502 z" />
    <path
       id="path1075"
       style="fill:#d04500;fill-opacity:1;stroke:#000000;stroke-width:1.28767"
       d="m 451.07897,438.02362 c -5.92938,3.45765 -11.89543,6.87643 -17.48915,10.87627 -0.67671,0.4665 -1.35328,0.93322 -2.02993,1.39978 3.63096,3.40229 7.09616,6.99259 10.91312,10.18683 2.74696,2.26656 5.74335,4.3639 9.20715,5.32053 3.10683,0.96546 6.73043,0.64319 9.32864,-1.44652 3.909,-3.09204 4.77289,-9.21221 2.15449,-13.41036 -2.37879,-3.81324 -5.22507,-7.31012 -8.16424,-10.6938 -0.87687,-0.99561 -1.75392,-1.99105 -2.62999,-2.98737 -0.43003,0.25155 -0.86007,0.5031 -1.29009,0.75464 z" />
    <path
       id="path2201"
       style="fill:#ffff00;fill-opacity:1;stroke:#000000;stroke-width:1.28767"
       d="m 380.87344,322.62043 c -2.25635,0.24722 -4.09852,1.76049 -5.87221,3.0625 -5.32523,4.21194 -10.3055,8.84346 -15.3686,13.3669 -12.32414,11.2281 -24.42166,22.71841 -36.05404,34.67738 -3.17132,3.35929 -6.45403,6.64114 -9.23134,10.34914 -0.7339,0.95229 -1.32613,2.21951 -0.79404,3.41301 0.61868,1.46485 1.69458,2.84429 3.14939,3.51568 1.62819,0.6392 3.22878,-0.45815 4.52301,-1.35641 5.03979,-3.47007 9.51051,-7.68521 14.06273,-11.76123 12.33619,-11.28339 24.42277,-22.8434 36.29111,-34.62656 4.09551,-4.13221 8.26646,-8.20285 12.06868,-12.61588 0.86817,-1.1036 1.88615,-2.27217 2.05735,-3.72178 0.0865,-1.50264 -1.12752,-2.64265 -2.17692,-3.52829 -0.75987,-0.56592 -1.71161,-0.85807 -2.65512,-0.77446 z" />
    <path
       id="path2084"
       style="fill:#d04500;fill-opacity:1;stroke:#000000;stroke-width:1.28767"
       d="m 86.802463,413.84974 c -1.759144,0.0444 -2.947723,1.53321 -4.203717,2.57469 -3.151435,2.90604 -6.225151,5.90759 -9.122411,9.07259 -0.955011,1.07363 -2.030189,2.50377 -1.468794,4.02228 0.601308,1.35873 2.078739,1.94791 3.205523,2.78513 4.722223,3.04861 9.58101,5.87269 14.381918,8.79181 3.271191,-2.58725 6.598903,-5.12167 9.536755,-8.1018 1.976083,-2.00388 4.022943,-3.99401 5.554423,-6.37769 0.77823,-1.11873 0.51032,-2.6672 -0.39043,-3.62777 -1.62908,-1.78096 -3.83178,-2.87425 -5.894008,-4.05677 -3.03651,-1.62037 -6.059669,-3.29482 -9.242511,-4.60738 -0.752219,-0.2808 -1.547543,-0.51114 -2.356748,-0.47509 z" />
    <path
       id="path2123"
       style="fill:#d04500;fill-opacity:1;stroke:#000000;stroke-width:1.28767"
       d="m 113.47147,387.94323 c -1.28117,0.57026 -2.24766,1.67095 -3.32419,2.55064 -4.52764,4.08613 -8.83706,8.40957 -13.252493,12.61792 3.343913,2.44286 6.663073,4.9304 10.222683,7.05038 2.66449,1.61911 5.35521,3.28776 8.32749,4.26571 1.08166,0.4115 2.15881,-0.14341 3.00553,-0.80355 3.83392,-2.88877 7.40088,-6.12434 10.88569,-9.4283 1.2431,-1.32393 2.91416,-2.53871 3.21898,-4.45763 0.25303,-1.46373 -0.88368,-2.67232 -2.05915,-3.32657 -4.6422,-2.78169 -9.41293,-5.34381 -14.23623,-7.79 -0.78744,-0.34267 -1.6137,-0.89896 -2.48787,-0.78502 -0.10015,0.0355 -0.2003,0.0709 -0.30044,0.10642 z" />
    <path
       id="path2162"
       style="fill:#d04500;fill-opacity:1;stroke:#000000;stroke-width:1.28767"
       d="m 139.16086,363.27585 c -3.83896,2.96346 -7.21335,6.4717 -10.62054,9.91612 -1.76709,1.80365 -3.53417,3.60732 -5.30129,5.41094 2.11712,1.38084 4.23894,2.75784 6.50398,3.88309 3.62912,1.87021 7.23047,3.80851 10.95883,5.47137 1.4025,0.64675 3.13497,0.97111 4.50442,0.0615 3.09828,-2.00522 5.92122,-4.42468 8.59093,-6.97438 1.13447,-1.12412 2.25061,-2.26708 3.37853,-3.39794 -2.85544,-2.96166 -5.67661,-5.96709 -8.81215,-8.63348 -2.622,-2.29907 -5.36961,-4.44614 -8.05359,-6.67017 -0.38304,0.31099 -0.76608,0.62197 -1.14912,0.93295 z" />
    <path
       id="path3461"
       style="fill:#ffff00;fill-opacity:1;stroke:#000000;stroke-width:1.28767"
       d="m 128.90258,322.7339 c -0.9493,1.39395 -1.99765,2.90329 -1.89855,4.68097 0.005,1.81559 1.43891,3.10386 2.49365,4.40563 5.29517,5.9524 10.99942,11.51599 16.64117,17.12996 10.76058,10.5648 21.66018,20.99034 32.84566,31.09642 3.49407,3.08694 6.92713,6.27053 10.70934,9.00041 1.60198,1.0768 3.54798,2.26327 5.53911,1.61767 1.68094,-0.55864 3.39835,-1.99493 3.3113,-3.93745 0.0319,-1.14013 -0.57024,-2.13815 -1.32546,-2.9373 -4.49573,-5.12926 -9.3051,-9.96799 -14.07171,-14.83913 -11.68089,-11.7765 -23.53179,-23.39144 -35.83226,-34.50958 -3.94301,-3.49716 -7.85793,-7.05317 -12.13847,-10.13054 -1.67546,-1.18903 -3.57974,-1.98326 -5.37446,-2.96388 -0.29977,0.46227 -0.59954,0.92455 -0.89932,1.38682 z" />
    <path
       id="path2045"
       style="fill:#d04500;fill-opacity:1;stroke:#000000;stroke-width:1.28767"
       d="m 59.949673,438.38204 c -1.304149,0.39333 -2.168132,1.5821 -3.146688,2.47031 -2.769104,2.90353 -5.480643,5.89024 -7.811063,9.16899 -2.062896,2.96652 -2.914043,7.02439 -1.353024,10.40715 1.797221,3.9677 6.306417,6.17699 10.519556,5.84827 2.92634,-0.14758 5.673248,-1.41812 8.003978,-3.15521 3.520345,-2.5529 6.864893,-5.39693 9.751657,-8.66934 1.227528,-1.49071 2.398088,-3.02845 3.602844,-4.53796 -4.517932,-3.13971 -9.078996,-6.22238 -13.831142,-8.99245 -1.566833,-0.876 -3.077365,-1.89592 -4.761859,-2.52895 -0.331551,-0.0608 -0.650094,-0.16216 -0.974259,-0.0108 z" />
    <path
       id="path582"
       style="fill:#cccccc;stroke-width:4.61842"
       d="m 281.9082,277.70508 c -1.52992,0.42026 -2.66791,1.64789 -3.90283,2.58247 -3.70586,3.18596 -7.32353,6.49908 -10.6012,10.12922 -0.82107,0.8942 -1.65168,2.02225 -1.3319,3.30784 0.99545,1.51703 2.43702,2.67185 3.67428,3.98404 12.40951,12.20212 25.03952,24.17406 37.69095,36.12338 6.00537,5.60607 11.94168,11.29441 18.11275,16.71999 0.46215,0.39714 1.04299,0.77347 1.61566,0.88934 1.72599,-0.35061 2.91407,-1.76159 4.23453,-2.81205 3.75015,-3.36869 7.45966,-6.79806 10.89808,-10.48755 0.70747,-0.72473 1.35777,-1.65563 1.43632,-2.65312 -0.76866,-1.62496 -2.26159,-2.72066 -3.45659,-4.01536 -11.31753,-11.10896 -22.86223,-21.98252 -34.38779,-32.87417 -6.99027,-6.55776 -13.93794,-13.1639 -21.09236,-19.54299 -0.71588,-0.58472 -1.46323,-1.4047 -2.40922,-1.4594 -0.16023,0.0361 -0.32045,0.0722 -0.48068,0.10836 z" />
    <path
       style="fill:#000000;stroke-width:2.04586"
       d="m 45.236632,476.2206 c -8.872452,-5.13383 -13.90827,-16.02034 -11.567296,-25.00634 1.279619,-4.91191 13.898694,-18.27845 49.416735,-52.34383 l 47.698299,-45.74748 -10.42245,-9.89153 c -13.00856,-12.34591 -13.24785,-16.54669 -1.58499,-27.82493 11.84116,-11.45066 16.8424,-11.27158 29.64197,1.06144 l 9.97088,9.60742 30.45849,-28.90695 30.45848,-28.90694 -84.90196,-80.8524 C 81.542101,137.06777 47.937401,103.54819 45.354552,98.584381 38.60482,85.612526 36.528256,77.649084 34.424957,56.670338 32.273111,35.207376 33.881771,30.14533 42.070445,32.611916 47.589159,34.274259 180.29109,163.21794 180.29109,166.91803 c 0,1.64039 -1.65306,3.97216 -3.67348,5.18169 -3.16141,1.89258 -12.34299,-5.99525 -65.86639,-56.58536 L 48.558308,56.729852 49.749033,67.191511 c 2.502563,21.98742 3.979369,23.699449 95.393247,110.586929 l 85.41655,81.1871 6.89186,-6.33959 c 3.79054,-3.48677 6.89187,-7.27228 6.89187,-8.41223 0,-1.13997 -12.04077,-13.52552 -26.7573,-27.52345 -22.80544,-21.69191 -26.41659,-25.96423 -24.45047,-28.92728 4.84523,-7.30196 9.09234,-4.81576 34.67651,20.29911 14.03756,13.78008 26.57107,25.08898 27.85219,25.13088 1.28116,0.0419 38.75432,-35.02311 83.2737,-77.92225 68.4556,-65.964222 81.73676,-77.891867 86.08052,-77.307757 3.01533,0.405491 5.44975,2.250778 5.89555,4.468868 0.55842,2.778463 -34.04008,36.808109 -130.7534,128.603569 l -131.51274,124.82535 7.97289,7.38874 7.97289,7.38874 58.75047,-55.89596 c 32.3128,-30.74279 60.46472,-56.79891 62.55983,-57.9025 4.46191,-2.35027 9.84099,0.89128 9.84099,5.93037 0,1.75231 -5.21866,8.19109 -11.59703,14.30837 l -11.59703,11.12234 30.25113,29.10273 30.25113,29.10274 10.14262,-9.77292 c 12.83959,-12.37158 17.6123,-12.59465 29.64646,-1.38565 11.96265,11.14242 11.74269,15.49361 -1.41455,27.98064 l -10.41926,9.88849 46.64509,44.66769 c 52.42722,50.20472 55.41354,54.36764 48.55998,67.69187 -5.38033,10.4601 -15.98592,15.88768 -27.21489,13.92765 -7.26929,-1.26886 -14.22632,-7.04625 -55.98517,-46.49241 l -47.68441,-45.04349 -10.50196,9.32296 c -13.3002,11.80706 -18.75354,12.09686 -29.82942,1.58517 -11.302,-10.72628 -10.95343,-16.33353 1.77792,-28.60079 l 9.93104,-9.56906 -30.42455,-28.87475 -30.42454,-28.87474 -30.37943,28.88345 -30.37944,28.88345 9.922,9.56036 c 12.72168,12.25795 13.06874,17.86781 1.76888,28.59208 -11.08046,10.51603 -16.52774,10.22318 -29.85149,-1.60476 l -10.52406,-9.34259 -46.61229,44.12635 C 66.251154,482.64918 61.362406,485.55139 45.236632,476.2206 Z M 71.05095,458.37063 c 4.490709,-4.36465 7.753821,-8.27995 7.251357,-8.70067 -0.502464,-0.42074 -4.860228,-3.09735 -9.683922,-5.94805 l -8.770353,-5.18306 -6.454995,6.97733 c -7.301162,7.89197 -7.99512,11.88539 -2.979442,17.14533 5.406849,5.67015 11.744317,4.35249 20.637355,-4.29088 z m 389.95621,4.63718 c 5.48696,-4.71269 4.76995,-9.50958 -2.61456,-17.49163 l -6.45498,-6.97733 -8.77037,5.18306 c -4.82368,2.8507 -9.18145,5.52731 -9.68391,5.94805 -0.50248,0.42072 2.76064,4.33602 7.25134,8.70067 8.82138,8.57371 14.2448,9.81428 20.27248,4.63718 z M 105.73939,424.54216 c 0,-0.60157 -4.28865,-3.25297 -9.530324,-5.89202 l -9.530319,-4.79829 -7.270065,6.68748 c -3.998536,3.67812 -7.270065,7.31735 -7.270065,8.08721 0,0.76984 4.016342,3.66929 8.925205,6.44319 l 8.925204,5.04349 7.87518,-7.23866 c 4.331354,-3.98126 7.875184,-7.73085 7.875184,-8.3324 z m 333.39164,4.3684 c 0.31513,-0.89725 -2.74,-4.67884 -6.78919,-8.40353 l -7.36216,-6.77221 -8.94171,4.6737 c -4.91793,2.57052 -9.35279,4.9983 -9.85525,5.39506 -0.50248,0.39677 2.72311,4.25597 7.16797,8.57604 l 8.08152,7.85466 8.56294,-4.8462 c 4.7096,-2.66541 8.82074,-5.5803 9.13588,-6.47752 z m -313.65129,-22.19221 7.99247,-7.76808 -9.81137,-5.45695 -9.81137,-5.45696 -8.25223,7.64762 -8.252235,7.6476 8.922295,5.4495 c 4.90727,2.9972 9.43929,5.50706 10.07114,5.57742 0.63186,0.0704 4.74545,-3.36771 9.1413,-7.64015 z m 279.52008,2.19094 9.44142,-5.57716 -8.25254,-7.64787 -8.25254,-7.6479 -9.81136,5.45696 -9.81136,5.45695 7.99247,7.76808 c 4.39584,4.27244 8.27598,7.76807 8.62249,7.76807 0.3465,0 4.87865,-2.5097 10.07142,-5.57713 z M 166.29932,353.3732 c -32.43366,-30.82398 -34.31875,-32.26905 -37.98588,-29.1194 -3.68292,3.16321 -2.30458,4.79105 30.26862,35.74764 32.43365,30.82396 34.31874,32.26904 37.98587,29.11939 3.68293,-3.16321 2.30458,-4.79105 -30.26861,-35.74763 z m 217.21997,-29.07471 c -3.33298,-3.49531 -5.04819,-2.18718 -37.66633,28.72676 -32.4784,30.78149 -34.00104,32.57055 -30.68233,36.05089 3.33299,3.49532 5.0482,2.18718 37.66633,-28.72675 32.4784,-30.7815 34.00104,-32.57056 30.68233,-36.0509 z m -233.02973,58.69587 5.63504,-5.58212 -7.96101,-7.37771 -7.96101,-7.37774 -7.97728,7.75333 -7.97728,7.75333 9.12111,5.18766 c 5.01661,2.85321 9.65306,5.19615 10.30324,5.20652 0.65017,0.01 3.7179,-2.49309 6.81719,-5.56327 z m 227.80229,0.37319 9.36544,-5.20894 -8.4049,-7.97674 -8.40487,-7.97675 -7.46496,7.70474 -7.46493,7.70472 5.50677,5.48095 c 3.02871,3.01452 5.95569,5.48096 6.50437,5.48096 0.5487,0 5.21208,-2.34402 10.36308,-5.20894 z m -65.63918,-76.43461 -30.48315,-28.93034 -7.85715,7.45691 -7.85715,7.45693 30.36216,28.86701 30.36216,28.86703 7.97812,-7.39359 7.97813,-7.3936 z m 19.06657,-88.9272 c -0.7011,-1.73393 -1.27471,-3.70251 -1.27471,-4.37461 0,-0.67211 27.35466,-27.28186 60.78812,-59.13278 64.96309,-61.888145 68.34818,-66.060085 70.84035,-87.306839 l 1.22712,-10.461659 -7.41626,6.67512 c -5.50941,4.958825 -8.5502,6.333526 -11.82654,5.346637 -7.40179,-2.229572 -5.04062,-7.683835 9.79525,-22.626937 21.67886,-21.835548 26.5072,-19.653153 23.48962,10.617238 -3.86223,38.743562 -4.61443,39.815875 -75.13871,107.11561 -59.75946,57.02714 -67.05429,62.63123 -70.48424,54.14822 z"
       id="path74"
       inkscape:connector-curvature="0" />
  </g>
</svg>
