<?xml version="1.0" encoding="UTF-8" standalone="no"?>
<!-- Created with Inkscape (http://www.inkscape.org/) -->

<svg
   version="1.1"
   id="svg870"
   width="512"
   height="512"
   viewBox="0 0 512.00001 511.99999"
   sodipodi:docname="krbrelayx.svg"
   inkscape:version="1.1.2 (0a00cf5339, 2022-02-04)"
   xmlns:inkscape="http://www.inkscape.org/namespaces/inkscape"
   xmlns:sodipodi="http://sodipodi.sourceforge.net/DTD/sodipodi-0.dtd"
   xmlns="http://www.w3.org/2000/svg"
   xmlns:svg="http://www.w3.org/2000/svg">
  <defs
     id="defs874" />
  <sodipodi:namedview
     id="namedview872"
     pagecolor="#505050"
     bordercolor="#eeeeee"
     borderopacity="1"
     inkscape:pageshadow="0"
     inkscape:pageopacity="0"
     inkscape:pagecheckerboard="0"
     showgrid="false"
     inkscape:zoom="0.64720075"
     inkscape:cx="270.39524"
     inkscape:cy="257.26175"
     inkscape:window-width="1366"
     inkscape:window-height="695"
     inkscape:window-x="0"
     inkscape:window-y="24"
     inkscape:window-maximized="1"
     inkscape:current-layer="g876" />
  <g
     inkscape:groupmode="layer"
     inkscape:label="Image"
     id="g876">
    <g
       id="g1127"
       transform="matrix(0.97954305,0,0,0.96949565,5.2286969,7.8485665)">
      <path
         id="path978-3"
         style="fill:#ffffff;stroke-width:2.18209"
         d="m 220.63086,-1.2695312 c -5.23433,-0.052905 -10.05407,3.7206889 -11.71012,8.6086287 -0.8211,2.4366304 -0.81813,5.0448505 -0.91293,7.5866835 -0.0374,0.636789 -0.0683,1.584348 -0.19145,2.336508 -0.53113,2.60579 -1.26932,5.173215 -2.13081,7.690836 -0.41485,1.190871 -0.94294,2.595724 -1.42948,3.860578 -2.03524,5.173004 -4.24735,10.297932 -5.63498,15.696063 -1.92735,7.231951 -2.89362,14.835761 -1.88749,22.291694 0.60533,3.903047 2.02462,7.687488 4.19804,10.989556 0.67222,2.76754 0.81336,5.765123 1.00781,8.435546 0.43287,8.282904 0.23456,16.594458 -0.40617,24.861518 -0.28713,3.71677 -0.67504,7.42821 -1.28328,11.10723 -0.21386,1.3032 -0.49447,2.83525 -0.79543,4.21625 -0.3576,1.73383 -0.84898,3.6128 -1.33152,5.20367 -0.68097,2.22787 -1.47318,4.42034 -2.34571,6.58008 -1.52036,-3.14504 -2.3575,-6.54307 -3.36771,-9.86926 -1.95549,-6.40407 -4.52318,-12.59362 -7.08737,-18.77129 -2.14766,-5.37366 -3.75345,-10.982446 -4.48632,-16.730541 -1.451,-8.541397 -5.38256,-16.425414 -10.01705,-23.660772 -2.74719,-4.259104 -5.55117,-8.542021 -7.34069,-13.313697 -1.26344,-3.140553 -1.94415,-6.469128 -2.41959,-9.809524 -0.70807,-4.357811 -1.93299,-8.933082 -5.15591,-12.139475 -4.18608,-4.125838 -11.4489,-4.774603 -16.12346,-1.100046 -3.42359,2.51371 -5.28223,6.605769 -6.08783,10.677811 -0.18731,0.782043 -0.42407,1.831062 -0.60018,2.728538 -0.67602,3.360511 -1.14767,6.75824 -1.55803,10.160134 -4.82691,-6.379929 -9.9487,-12.573232 -15.72545,-18.121527 -2.97114,-3.006437 -6.98444,-5.391426 -11.33731,-5.198369 -5.634055,0.180422 -10.882147,4.704411 -11.588071,10.349439 -0.687444,4.342911 0.971311,8.59406 2.83397,12.431096 1.133648,2.325635 2.249648,4.761742 2.291969,7.398536 0.501318,5.563181 -0.825374,11.37955 -4.068892,15.964971 -2.147145,2.732897 -4.50965,5.318989 -6.247014,8.349319 -2.874568,4.619149 -4.888026,9.900516 -4.989987,15.390187 -0.122542,1.84222 -0.210212,3.68801 -0.407493,5.52424 -3.387918,4.62067 -7.577322,8.57498 -11.75413,12.46919 -4.339193,4.04819 -8.811579,8.08676 -12.208775,12.99833 -2.672237,4.05173 -4.016423,9.08591 -3.119362,13.90891 1.202495,7.52013 5.882533,14.14364 11.840832,18.72663 6.990489,5.36822 15.7553,8.29948 24.542132,8.54675 5.463852,0.12398 11.003271,-0.87719 15.943441,-3.25919 2.98898,5.36902 5.75832,10.80848 8.69306,16.21899 2.42532,4.68557 5.04844,9.33063 6.59185,14.40161 1.70105,5.95258 1.93824,12.18253 2.4964,18.31325 0.95401,12.15574 1.76263,24.38233 4.43887,36.31073 2.30047,10.53515 6.0171,20.7749 11.23295,30.22222 4.11459,7.51675 9.03889,14.54338 13.89843,21.58789 -1.91986,11.50794 -4.38896,23.01357 -4.60966,34.73427 -0.34454,12.03882 0.67753,24.05635 1.4197,36.06182 1.16264,16.77387 2.40146,33.54939 3.09431,50.31473 0.32706,8.04196 0.53055,16.10832 0.4355,24.19387 -0.0712,3.82208 -0.2731,7.75302 -0.74024,11.60742 -4.53804,2.00294 -7.87242,5.97504 -10.14126,10.2861 -2.51212,4.74328 -3.89148,10.2905 -2.94077,15.64163 1.1409,5.39802 4.91561,9.8294 9.24559,13.05339 5.64377,4.39995 12.63259,6.99176 19.76508,7.46493 3.63049,0.37888 7.26547,1.13404 10.92845,0.88174 2.89672,-0.30864 5.66875,-1.43061 8.09604,-3.00357 3.18608,-0.55981 6.1142,-2.39822 7.94907,-5.07043 2.57906,-3.58118 3.06048,-8.11122 3.43463,-12.3788 0.78042,-8.81587 0.81103,-17.67498 0.99576,-26.51771 0.29443,-19.97655 0.12863,-39.96021 0.74749,-59.9315 0.21199,-6.14765 0.47641,-12.44646 0.9237,-18.64083 0.23268,-3.29378 0.55323,-6.70955 0.94349,-10.04472 0.0951,-0.7626 0.21753,-1.8503 0.32009,-2.5567 0.28238,-2.00358 0.56421,-3.88722 0.91476,-5.91026 1.03955,-6.03886 2.28578,-11.9787 3.64796,-17.97639 1.61123,-6.65776 3.27606,-13.35254 5.95313,-19.67383 6.49413,1.79092 13.04608,3.46119 19.74857,4.25629 1.51254,0.19246 3.03128,0.33574 4.55221,0.44488 0.90412,9.69864 2.80321,19.41381 6.81311,28.34037 1.04455,2.34235 2.32743,4.59713 2.92983,7.11216 2.32381,8.46526 0.51328,17.82271 -4.37778,25.05654 -1.38825,2.08353 -2.92682,4.10847 -4.7965,5.78097 -1.40935,0.91875 -2.93926,1.66958 -4.16421,2.84819 -5.24833,4.57702 -7.7722,11.68413 -7.70553,18.53949 0.0241,6.09482 2.04976,12.38887 6.40264,16.7754 4.38227,4.3002 10.46695,6.31733 16.44091,7.09996 6.98116,0.93068 14.38985,0.11414 20.61769,-3.33042 5.83357,-3.41655 9.74449,-9.55686 11.14143,-16.09736 1.05933,-4.64831 1.44551,-9.42701 2.66753,-14.04196 0.13502,-0.98383 0.18371,0.19973 0.25481,0.57693 0.83828,6.22 1.51532,12.33898 2.04014,18.58611 0.72173,8.18982 1.19924,16.44129 1.40724,24.70084 0.264,7.97617 0.44269,15.98254 1.57405,23.89318 0.31254,1.86828 0.94045,3.68232 1.72906,5.38821 0.2182,3.23039 0.45884,6.56696 1.943,9.50635 2.44084,5.24956 7.49021,8.9973 13.03666,10.42353 5.69739,1.63636 11.68167,1.81543 17.57028,1.81589 6.68845,-0.17408 13.61664,-1.70213 19.02457,-5.82964 5.03395,-3.90712 8.12753,-10.16648 8.17223,-16.53995 0.25251,-6.54479 -2.61138,-13.27669 -7.93302,-17.20837 -1.8649,-1.47866 -4.11044,-2.40189 -5.98826,-3.84203 -1.72528,-2.12171 -2.29687,-4.87098 -3.29828,-7.35734 -1.40749,-4.02 -2.0393,-8.31123 -1.74715,-12.56483 0.1258,-6.15905 0.7549,-12.20522 1.29649,-18.3696 1.69882,-18.33757 3.81465,-36.6435 4.77449,-55.04105 0.96986,-17.64328 1.55922,-35.3597 0.27142,-53.00268 -0.13578,-1.54166 -0.3025,-3.08052 -0.50115,-4.61538 5.57314,-1.18839 11.1442,-2.46072 16.54492,-4.29882 3.10197,5.13099 6.81212,9.85901 10.47846,14.59197 6.33554,7.97497 13.24248,15.54293 19.50322,23.52381 6.0675,7.65111 11.86524,15.53307 16.9701,23.86468 1.37193,2.18595 2.74861,4.36767 4.1283,6.54883 0.0485,11.66994 0.32651,23.34482 -0.0301,35.0118 -0.0956,0.88646 0.0114,1.87064 -0.27172,2.69463 -4.34885,3.83286 -6.38844,9.67387 -6.7192,15.3432 -0.27247,4.01409 -0.21708,8.10276 0.6784,12.03948 1.29098,4.99737 5.08333,9.28199 9.94813,11.05347 4.02967,1.54458 8.32684,2.20284 12.57273,2.85432 6.70566,0.94004 13.78047,1.01661 20.15855,-1.54309 5.87214,-2.32841 10.63212,-7.31852 12.55543,-13.34947 1.55523,-4.86725 1.75272,-10.12948 0.87345,-15.14731 -0.57714,-4.03388 -2.81773,-7.78147 -6.09728,-10.19906 -0.64036,-0.47895 -1.31953,-0.90906 -2.03163,-1.27359 -1.08437,-11.95868 -0.82447,-24.08036 -3.15215,-35.92577 -0.85094,-4.78526 -2.36945,-9.43115 -4.38105,-13.85158 -0.96896,-2.17738 -2.18781,-4.28039 -2.58116,-6.66473 -0.68348,-3.54512 -0.48679,-7.18118 -0.4985,-10.77192 0.17563,-8.09278 0.70973,-16.3443 0.84483,-24.51356 0.3264,-15.22175 -0.72386,-30.5988 -4.73281,-45.33901 -2.47622,-9.42405 -6.34216,-18.43872 -11.06875,-26.94572 -2.4276,-4.41541 -5.00621,-8.74963 -7.23826,-13.27099 -2.98298,-5.7572 -5.81543,-11.65506 -9.79363,-16.81297 -7.81293,-10.34562 -18.19343,-18.50821 -29.3672,-24.95438 -4.06978,-2.32842 -8.25695,-4.44352 -12.47468,-6.48843 0.88763,-6.87933 1.94105,-13.75726 3.80223,-20.45013 0.27636,-1.01082 0.57024,-2.04182 0.84921,-2.93963 1.27798,-4.04326 2.78092,-8.10651 5.29387,-11.56142 8.23245,2.28205 16.46203,4.77886 24.96479,5.83279 5.23025,0.54719 10.64149,-0.22644 15.36937,-2.58585 3.31776,-1.48378 6.58136,-3.43206 8.70032,-6.46812 2.34548,-3.25904 3.05675,-7.56932 2.05537,-11.44093 4.7326,-3.00605 8.94175,-6.78725 12.72308,-10.91121 3.21071,-3.62512 6.09432,-7.7443 7.3608,-12.47553 1.15031,-4.6664 0.0693,-9.9011 -3.15236,-13.52483 -3.81757,-4.67075 -9.46327,-7.308688 -15.0455,-9.244742 -4.41411,-1.567179 -8.9052,-2.924133 -13.28683,-4.57811 -1.69367,-0.624844 -2.37015,-2.413103 -3.20564,-3.853536 -1.6448,-3.125643 -3.99526,-5.813281 -6.43536,-8.340568 -3.61798,-3.692552 -7.80081,-6.760916 -12.07069,-9.649818 -2.01428,-1.433418 -4.0335,-2.975758 -5.46953,-5.013448 -0.27225,-0.822403 0.23003,-1.684601 0.2533,-2.527088 0.89799,-5.338765 -0.0517,-10.804169 -1.69788,-15.902548 -1.50149,-4.542312 -3.59216,-8.883377 -6.05064,-12.981499 -2.25043,-3.503792 -6.00217,-6.215235 -10.24111,-6.489256 -3.03977,-0.219343 -6.1416,0.735675 -8.54688,2.603515 -1.30602,-7.743484 -2.61145,-15.487068 -3.91797,-23.2304682 -7.26994,8.7599162 -14.66313,17.4166342 -21.92187,26.1855472 -4.35707,6.843224 -6.97439,14.577571 -9.7909,22.132872 -3.57772,9.965407 -6.81182,20.08627 -8.9634,30.463575 -0.40154,2.10681 -0.42031,4.2801 -0.89927,6.367656 -1.24388,3.704242 -3.38859,7.008418 -5.28493,10.398346 -4.11741,6.98108 -8.73396,13.84894 -13.33423,20.60932 -0.8211,1.20949 -1.6387,2.42109 -2.46946,3.62393 -0.93827,-4.86211 -2.06242,-9.7577 -1.9002,-14.74124 0.1116,-4.3184 0.9996,-8.56412 1.71075,-12.811491 0.72188,-3.9533 1.57074,-8.037358 2.4185,-12.025158 0.84715,-3.988375 1.7792,-8.010505 2.87322,-11.992435 1.09694,-3.75004 2.14271,-7.589594 2.01331,-11.533937 -0.0658,-6.390055 -2.0465,-12.536145 -3.75469,-18.631366 -1.96785,-6.650365 -3.9065,-13.364402 -4.54124,-20.29848 -0.37527,-3.082933 -0.23587,-6.195589 -0.51101,-9.283793 -0.38465,-4.2876364 -1.9354,-8.7707494 -5.43707,-11.4968236 -4.30823,-3.4036768 -10.93896,-3.7257467 -15.32858,-0.2941043 -3.82851,2.6682483 -5.85886,7.051679 -7.6214,11.2201989 -2.88745,6.836122 -5.04235,13.945848 -7.39229,20.976523 -5.51628,0.348308 -11.03255,0.696615 -16.54883,1.044922 -1.31259,-5.882633 -0.59669,-11.97006 -1.96389,-17.845695 -1.20183,-5.780419 -3.9343,-11.4200108 -8.47565,-15.300057 -2.35898,-1.98323905 -5.36869,-3.2914348 -8.48624,-3.2214352 z" />
      <path
         style="fill:#000000;stroke-width:2.18209"
         d="m 168.76252,499.98567 c -6.95052,-0.80736 -15.71402,-7.17996 -15.71402,-11.42687 0,-5.53567 4.87406,-12.93264 7.81024,-11.85299 7.33087,2.69563 8.27353,-22.47762 3.36583,-89.8828 -2.73144,-37.51537 -2.72034,-45.64471 0.0846,-61.94526 l 3.22868,-18.76288 -8.06713,-11.74823 c -14.3695,-20.9265 -19.40488,-36.62501 -21.63851,-67.46138 -1.95285,-26.96005 -2.23347,-28.03322 -12.24243,-46.81695 -14.42173,-27.0651 -13.39528,-26.00495 -20.20709,-20.87055 -11.870462,8.94734 -34.615298,1.59449 -38.145734,-12.33158 -1.172982,-4.62693 0.675368,-7.30987 12.450518,-18.07239 7.605396,-6.95135 14.054432,-14.59905 14.331189,-16.99489 0.276759,-2.39584 0.631216,-6.96598 0.787687,-10.15587 0.156469,-3.189882 3.390444,-9.189539 7.18661,-13.332566 8.24684,-9.000355 10.68108,-25.754083 5.25603,-36.174688 -1.79351,-3.445021 -2.89569,-6.613654 -2.4493,-7.041403 1.16279,-1.114221 15.10914,14.706112 20.41467,23.157799 2.93037,4.668065 6.50181,7.375 10.28865,7.798179 5.61364,0.627321 5.85216,0.180645 7.41423,-13.884283 2.38773,-21.499451 4.69036,-25.59476 6.6848,-11.889131 1.08222,7.437001 4.46482,15.393318 10.09008,23.733198 5.41268,8.024705 8.83245,15.924266 9.48984,21.921174 0.56525,5.156511 3.17393,14.181571 5.79706,20.055691 2.6231,5.87412 5.78149,14.62023 7.01863,19.43578 2.46261,9.5857 11.21116,23.4068 14.60787,23.07775 3.81937,-0.36999 11.60442,-16.00316 14.51575,-29.14907 4.05401,-18.30559 4.09668,-53.333489 0.0707,-57.995939 -4.77304,-5.527549 -3.55684,-20.033532 2.92558,-34.893694 3.19287,-7.319304 5.83713,-16.450889 5.87612,-20.292413 0.067,-6.6039696 0.24924,-6.7586362 3.34371,-2.838246 1.80005,2.280486 3.27282,8.14467 3.27282,13.031523 0,4.886852 1.01183,11.671978 2.2485,15.078054 l 2.24848,6.192867 16.91948,-1.068023 16.91946,-1.06802 5.20903,-15.775974 c 6.62804,-20.0737644 9.95435,-23.6656543 9.95435,-10.74926 0,5.265644 1.55921,14.829778 3.4649,21.253632 5.92391,19.968595 6.10641,21.438097 3.6615,29.480298 -1.30953,4.307574 -3.80788,15.521711 -5.5519,24.920302 -2.83368,15.270823 -2.7781,18.954823 0.52244,34.636903 2.03137,9.6517 4.33007,18.15865 5.10819,18.90428 2.38818,2.28843 5.27288,-0.59605 15.60276,-15.60154 17.41129,-25.29216 24.00407,-37.006339 24.00407,-42.650908 0,-8.399864 12.89595,-46.581807 17.62186,-52.174337 l 4.18397,-4.95118 2.78805,16.561255 c 1.53344,9.108689 3.518,16.993546 4.41017,17.521899 1.96443,1.163393 11.05685,-20.958733 11.27794,-27.439563 0.11084,-3.246819 1.45856,-1.804799 4.54387,4.861499 2.7619,5.96755 3.88696,11.656467 3.03784,15.361033 -1.8092,7.89322 1.57029,13.262408 13.1549,20.899951 5.32484,3.510577 10.91295,9.231697 12.41807,12.713599 1.51439,3.503353 5.38894,7.263542 8.67548,8.419382 3.26639,1.14876 9.9452,3.43167 14.84178,5.07313 5.05559,1.69477 9.22714,4.59794 9.65324,6.71815 1.11627,5.55423 -16.25799,21.45809 -21.89803,20.04478 -5.29779,-1.32754 -5.64266,0.43977 -1.18727,6.08433 4.4335,5.61681 4.27191,6.29038 -2.18541,9.10965 -5.41974,2.36625 -10.22703,1.64971 -33.4592,-4.98727 -9.71868,-2.77643 -18.63236,14.32009 -22.3561,42.87916 l -1.47491,11.31164 10.95752,5.32069 c 19.34733,9.39459 32.70501,21.1174 39.61223,34.76399 3.49386,6.90287 7.2187,13.99248 8.27742,15.75471 13.87609,23.09676 18.25835,44.28505 16.56695,80.10163 -1.19656,25.33832 -0.89875,28.6098 3.4029,37.38077 3.54574,7.22967 4.98972,15.30378 5.82575,32.57465 0.9988,20.63372 1.53464,22.96248 5.28348,22.96248 3.25303,0 4.17195,1.58909 4.17195,7.21461 0,11.43673 -8.17464,14.89193 -26.19241,11.07075 -6.64964,-1.41025 -7.2447,-2.21561 -7.2447,-9.80478 0,-5.51249 1.24444,-8.93565 3.7337,-10.27053 3.15901,-1.69402 3.70973,-5.66085 3.57811,-25.77251 l -0.15565,-23.7703 -9.08615,-14.38444 c -4.99738,-7.91143 -16.23974,-22.55481 -24.98299,-32.5408 -8.74327,-9.986 -17.58946,-21.65344 -19.65822,-25.92762 -3.5451,-7.32441 -4.07672,-7.61452 -9.24579,-5.04557 -3.01643,1.49912 -11.32646,3.87756 -18.46672,5.28541 -9.8179,1.9358 -12.67872,3.31776 -11.73683,5.66974 4.02893,10.06071 3.69196,51.79087 -0.77271,95.69938 -4.53576,44.60776 -4.58334,47.39282 -0.99577,58.32225 2.79101,8.50274 5.41183,12.29233 10.11195,14.62135 4.62599,2.29227 6.34452,4.72558 6.34452,8.9833 0,7.79598 -6.79414,11.56107 -19.72288,10.92981 -12.13951,-0.59272 -15.94338,-2.81357 -15.94338,-9.30836 0,-2.5974 -0.67022,-5.36479 -1.48938,-6.14973 -0.81915,-0.78495 -1.69151,-12.23949 -1.93855,-25.45452 -0.24705,-13.21503 -2.10602,-34.60075 -4.13107,-47.52382 -2.02503,-12.92305 -4.70196,-31.18624 -5.94873,-40.58482 -1.24673,-9.39859 -2.85265,-18.93671 -3.56867,-21.19578 -1.20884,-3.81403 -1.51561,-3.73772 -4.29401,1.06801 -1.82525,3.15707 -3.02297,12.28302 -3.07114,23.40034 -0.044,10.148 -1.65528,23.40108 -3.63576,29.90461 -1.95624,6.42385 -4.05934,15.71519 -4.67357,20.64742 -0.75321,6.0481 -2.67962,9.93636 -5.91709,11.94302 -6.60434,4.09355 -20.96164,2.23456 -23.94097,-3.09988 -3.50877,-6.28242 -1.57444,-15.39994 3.7421,-17.63814 2.56501,-1.07984 7.3298,-6.50821 10.58843,-12.06305 7.45417,-12.70686 7.97865,-28.21088 1.37395,-40.61648 -2.50296,-4.70126 -5.15579,-14.75576 -5.89522,-22.34335 l -1.34434,-13.79562 h -8.18961 c -4.50432,0 -13.58102,-1.53418 -20.17049,-3.40933 -11.33792,-3.22638 -12.14079,-3.19971 -14.96163,0.4969 -4.30461,5.64105 -9.19113,22.37109 -13.3286,45.63331 -2.64197,14.85409 -3.66245,35.17618 -3.80779,75.82931 -0.14578,40.78094 -0.88954,55.53695 -2.79922,55.53713 -1.43035,1.3e-4 -3.35299,0.72114 -4.27251,1.60226 -0.91952,0.88111 -2.75856,1.4482 -4.08677,1.26019 -1.32818,-0.18799 -5.87627,-0.74391 -10.10685,-1.23533 z"
         id="path978" />
    </g>
  </g>
</svg>
