<?xml version="1.0" encoding="UTF-8" standalone="no"?>
<!-- Created with Inkscape (http://www.inkscape.org/) -->

<svg
   version="1.1"
   id="svg1252"
   width="512"
   height="512"
   viewBox="0 0 512 512"
   xmlns="http://www.w3.org/2000/svg"
   xmlns:svg="http://www.w3.org/2000/svg">
  <defs
     id="defs1256" />
  <g
     id="g1258">
    <g
       id="g1995"
       transform="matrix(0.98203374,0,0,0.97718062,4.5973672,6.3846622)">
      <path
         id="path1529"
         style="fill:#959595;stroke-width:1.59859"
         d="M 44.587891,6.0546875 C 41.065445,13.375882 37.347647,20.611298 34.269328,28.136038 28.626047,41.723855 23.584474,55.558263 19.005931,69.539308 16.016396,78.715779 13.218643,87.982714 11.482337,97.489471 9.0288744,110.33354 7.3305322,123.32064 6.289595,136.35395 c -0.5347795,6.6784 -0.7409498,13.38299 -0.5078253,20.08039 0.8303713,28.269 6.8027613,56.25271 16.3413273,82.82986 5.393911,15.01429 12.006085,29.57835 19.52441,43.64474 0.97666,1.68636 1.786988,3.52068 3.106399,4.97192 0.615031,0.61363 1.549669,0.74481 2.337374,0.39708 2.095785,-1.02556 3.825455,-2.64999 5.604133,-4.13332 1.206161,-1.0778 2.456235,-2.15519 3.517143,-3.36016 0.655645,-1.26642 -0.15146,-2.61731 -0.591729,-3.81871 -3.741737,-8.8969 -8.400078,-17.37176 -12.230688,-26.22957 -4.831632,-10.8986 -9.010687,-22.08955 -12.423342,-33.51352 -0.294947,-1.02921 -0.703933,-2.4438 -1.005859,-3.47461 -0.784138,-2.82036 -1.553364,-5.68563 -2.220483,-8.45928 -0.408059,-1.6331 -0.745679,-3.1057 -1.119591,-4.76701 -0.865449,-3.87228 -1.679532,-7.97945 -2.358171,-11.9819 -2.734208,-15.99569 -3.752156,-32.28092 -3.045896,-48.49298 0.05815,-1.05467 0.122025,-2.38031 0.183594,-3.53907 0.211054,-3.52586 0.51681,-7.2114 0.867187,-10.62109 1.930704,-18.44903 6.018682,-36.637696 11.710938,-54.281251 0.417277,-1.240645 0.918644,-2.798448 1.338943,-4.044315 4.190377,-12.428278 9.205018,-24.563667 14.69387,-36.471157 2.207763,-4.993748 4.50106,-9.95995 6.389062,-15.086091 0.494583,-1.097614 0.177262,-2.344745 -0.538175,-3.266995 C 53.568964,9.6321598 50.240523,7.5531558 47.313354,5.1110697 46.767496,4.6788642 46.221639,4.2466587 45.675781,3.8144531 c -0.36263,0.7467448 -0.72526,1.4934896 -1.08789,2.2402344 z M 463.89062,7.3632812 c -1.83014,0.1789361 -3.17121,1.60156 -4.60937,2.6015626 -1.66433,1.4404122 -3.41389,3.0279582 -4.14453,5.1660152 -0.27679,1.75486 0.62173,3.414221 1.17578,5.029297 2.59819,6.435457 5.98524,12.503833 9.15467,18.665183 4.76722,9.448122 8.90931,19.205265 12.54064,29.143411 3.43959,9.460213 6.46305,19.226709 8.80107,29.075083 1.6694,7.128407 3.24619,14.427617 3.713,21.801467 0.62155,9.43256 0.48845,18.89317 0.52875,28.34064 -0.0738,10.27127 0.11307,20.6319 -1.78871,30.77123 -1.44111,7.59751 -3.23505,15.12688 -5.21927,22.59978 -3.15656,11.89626 -7.48802,23.45633 -12.60327,34.64372 -5.355,11.79795 -11.30488,23.25822 -17.2732,34.76275 -1.08995,2.03844 -0.48138,4.52873 0.80843,6.32369 1.57621,2.2109 3.5008,4.19011 5.6582,5.83789 0.92561,0.74563 2.35811,1.05335 3.30324,0.17845 1.61649,-1.46987 2.71146,-3.41093 3.94426,-5.19465 6.97463,-10.87445 12.58154,-22.56542 17.58074,-34.45908 6.73021,-16.25311 12.26382,-33.0263 16.13902,-50.19266 1.82031,-8.00558 3.13355,-16.12843 3.79288,-24.31418 1.2537,-15.23079 1.18959,-30.56216 0.0646,-45.79879 -0.76571,-10.265 -2.14556,-20.50071 -4.54717,-30.518211 -4.15493,-17.744611 -10.13094,-35.048416 -17.54792,-51.688378 -3.36341,-7.518516 -7.15546,-14.834898 -10.84132,-22.197175 -1.61298,-3.024352 -3.03869,-6.198372 -5.19306,-8.8895448 -0.85878,-0.996269 -2.06548,-1.8163015 -3.4375,-1.6875 z M 88.4375,40.753906 c -1.868029,3.156811 -3.704242,6.335297 -5.255199,9.662853 -6.734799,13.947625 -12.828562,28.249027 -17.304225,43.094716 -6.328846,20.731295 -9.639931,42.524565 -8.373894,64.216735 1.019214,18.52443 5.421269,36.80886 12.564012,53.91508 3.435053,8.16636 7.386862,16.11299 11.687341,23.85671 1.897176,3.33615 4.006413,6.5979 6.652668,9.39258 0.786313,0.84868 2.073771,1.36791 3.146485,0.74414 1.734286,-1.03226 2.922307,-2.75 4.146546,-4.31338 1.445566,-2.01737 2.853718,-4.06145 4.285094,-6.08896 -3.470901,-6.20532 -7.085835,-12.33153 -10.436099,-18.60319 -3.911064,-7.44353 -7.255014,-15.18885 -9.917417,-23.16635 -0.589768,-1.7665 -1.210047,-3.73716 -1.744523,-5.6047 -0.866631,-2.9909 -1.635558,-6.01046 -2.293785,-8.99119 -0.655138,-2.96937 -1.203261,-5.90839 -1.672989,-8.94899 -1.189845,-7.66494 -1.742909,-15.62758 -1.663703,-23.46098 0.03805,-2.98648 0.14319,-5.87966 0.353492,-8.88743 0.138207,-2.05411 0.331168,-4.17625 0.556665,-6.28053 0.413438,-3.81794 0.994226,-7.8058 1.689936,-11.65616 0.351616,-1.96912 0.731245,-3.84292 1.208091,-5.82485 1.921729,-7.88879 4.498479,-15.784407 7.205828,-23.514907 2.889225,-8.108315 5.999118,-16.146064 9.583645,-23.974791 1.699546,-3.691074 3.683818,-7.435213 5.53441,-11.126205 0.91231,-1.79845 1.822801,-3.597823 2.737071,-5.395279 -3.793468,-3.763932 -7.594883,-7.517512 -11.390622,-11.279297 -0.432943,0.744792 -0.865885,1.489584 -1.298828,2.234375 z m 330.80273,1.376953 c -1.68892,0.309455 -2.95559,1.630657 -4.22335,2.695309 -2.21392,2.072631 -4.21359,4.361859 -6.32743,6.53516 2.90882,5.357581 5.9428,10.648706 8.74902,16.060985 4.4683,8.974116 8.15385,18.251385 11.54136,27.656398 1.8468,5.172259 3.61674,10.522689 5.14857,15.786099 1.81974,6.17825 3.32524,12.4653 4.0617,18.87224 0.49195,3.89056 0.81479,7.82821 1.00483,11.67984 0.45289,9.91349 0.15401,20.03067 -1.3458,29.9179 -1.50306,9.9468 -4.84975,19.50819 -8.69093,28.76873 -2.58645,6.12548 -5.48731,12.1209 -8.75976,17.91015 -0.97713,1.70549 -2.07553,3.57308 -3.17383,5.29688 -2.6086,4.03364 -5.24984,8.04614 -7.87305,12.07031 3.57433,3.81439 7.14817,7.62924 10.72071,11.44531 2.56081,-3.27194 5.33,-6.39557 7.52584,-9.93603 6.34465,-9.84652 11.99423,-20.17974 16.25931,-31.10498 6.96998,-17.64746 10.51687,-36.61692 10.5209,-55.5859 0.0623,-25.53719 -6.08928,-50.799792 -15.92526,-74.267559 -3.66158,-8.623623 -7.58143,-17.149923 -12.03808,-25.394533 -1.43648,-2.523824 -2.7845,-5.15208 -4.72788,-7.332488 -0.62456,-0.662293 -1.501,-1.219612 -2.44687,-1.073821 z M 202.02539,62.351562 c -4.76308,0.132941 -9.58075,0.259568 -14.23703,1.362516 -1.52897,0.399515 -3.39077,1.127336 -3.70828,2.877719 -0.57132,3.372386 -0.57046,6.81091 -0.75306,10.219416 -0.62218,17.880222 -0.73066,35.774047 -0.87585,53.663397 -0.1716,32.4242 -0.14475,64.85074 0.28516,97.27294 0.19081,11.22137 0.3084,22.44965 0.93491,33.65688 0.16295,1.64583 0.12061,3.35976 0.70571,4.9276 0.78842,1.39744 2.57133,1.57865 3.99825,1.86161 5.34339,0.787 10.76113,0.86459 16.15253,0.95276 5.46834,-0.005 10.96512,0.007 16.39282,-0.7358 2.17594,-0.25798 4.58203,-1.19323 5.51345,-3.3356 1.05278,-2.50546 1.06437,-5.28632 1.2626,-7.95698 0.45944,-10.38365 0.41745,-20.7815 0.56121,-31.17271 0.11849,-12.19596 0.23698,-24.39192 0.35547,-36.58789 3.96768,-0.209 7.92972,-0.60519 11.90338,-0.65295 0.40526,0.10558 1.24427,-0.16238 1.35316,0.35904 0.29971,2.69546 0.15627,5.42143 0.24401,8.12983 0.23186,25.38554 0.32399,50.77208 0.46625,76.15822 -2.01824,-0.007 -4.33734,-0.16986 -5.91142,1.34357 -1.91115,1.8298 -2.3374,4.59722 -2.77804,7.08612 -0.9361,6.71876 -1.04678,13.5168 -1.2555,20.28736 -0.39738,18.27433 -0.35415,36.55454 -0.39439,54.83217 7.1e-4,34.19165 -0.0614,68.38363 0.11063,102.57498 0.10105,11.2706 0.10173,22.54828 0.63385,33.8086 0.21541,2.86689 0.24149,5.81497 1.17492,8.56226 0.56447,1.80018 2.39295,2.68268 4.08299,3.14544 4.5291,1.22131 9.24386,1.50576 13.90562,1.80754 8.90468,0.43778 17.85201,0.40043 26.73059,-0.46341 3.10226,-0.38257 6.2989,-0.66993 9.19294,-1.93385 1.27759,-0.54005 2.19885,-1.72271 2.37657,-3.10167 0.67506,-3.78708 0.70286,-7.65325 0.89009,-11.48661 0.51065,-15.21061 0.55773,-30.43247 0.69232,-45.65 0.19387,-32.94037 0.25631,-65.88141 0.30846,-98.82226 -0.0186,-15.95867 0.0542,-31.92118 -0.3852,-47.87533 -0.21675,-5.6911 -0.33933,-11.41779 -1.3118,-17.04198 -0.46928,-2.33462 -1.13887,-5.01827 -3.33118,-6.32356 -1.65726,-0.98099 -3.65668,-0.70115 -5.49512,-0.74937 0,-28.2806 0,-56.5612 0,-84.84179 4.72916,0.2846 9.45832,0.5691 14.1875,0.85351 -0.0642,17.25499 -0.1848,34.50984 -0.22669,51.76484 0.0693,5.60102 -0.005,11.2462 0.92834,16.78707 0.54968,3.10719 1.74088,6.41682 4.52686,8.19223 3.08436,1.94378 6.8771,1.91645 10.39622,2.01083 6.11864,-0.0364 12.24489,0.0868 18.35654,-0.2595 2.87148,-0.24458 5.94266,-0.3845 8.45,-1.96398 1.62415,-0.99279 2.50651,-2.80049 2.7771,-4.63438 0.75439,-4.55065 0.77119,-9.18216 0.94373,-13.78081 0.39538,-16.36802 0.3621,-32.74261 0.4163,-49.11433 0.0248,-32.08567 0.0818,-64.17208 -0.17323,-96.25703 -0.1341,-10.225218 -0.1642,-20.458633 -0.74237,-30.670624 -0.187,-1.874104 -0.15934,-3.833366 -0.88523,-5.599705 -0.95216,-1.625589 -3.0127,-1.892014 -4.69126,-2.254496 -5.71698,-0.93783 -11.53056,-1.060965 -17.31223,-1.124738 -5.39364,0.03148 -10.82509,0.08041 -16.15471,0.994468 -1.6481,0.317329 -3.54817,0.842731 -4.32031,2.501953 -1.10964,2.3747 -1.1598,5.063219 -1.41287,7.627929 -0.5696,8.757462 -0.61128,17.53853 -0.74993,26.310819 -0.18588,14.654264 -0.3244,29.309084 -0.48955,43.963594 -4.20692,0.0845 -8.45313,-0.25555 -12.625,0.43164 -2.76288,0.44887 -5.66478,1.73735 -6.96874,4.36719 -0.84631,1.56882 -0.961,3.40184 -1.03711,5.12695 -1.82134,0.69347 -3.82732,0.62808 -5.74801,0.761 -6.83945,0.2064 -13.68378,0.16347 -20.52543,0.24682 -0.78894,-2.50093 -1.2315,-5.13983 -2.4206,-7.49556 -1.01038,-2.02477 -3.23931,-3.02005 -5.3852,-3.29381 -4.03472,-0.5622 -8.11945,-0.62555 -12.17794,-0.93816 -0.32921,-0.30678 -0.0574,-1.18351 -0.15622,-1.70872 -0.18451,-15.83753 -0.25104,-31.67679 -0.54233,-47.512845 -0.18235,-7.870308 -0.32528,-15.751952 -1.03646,-23.595831 -0.24626,-1.559596 -0.20443,-3.301248 -1.14168,-4.641272 -1.30263,-1.505563 -3.42586,-1.786712 -5.26652,-2.19076 -6.13227,-1.005698 -12.3827,-1.119539 -18.58399,-1.0625 z M 131.24414,81.28125 c -2.11872,3.565642 -4.34522,7.083686 -5.99219,10.902344 -3.92592,8.845426 -7.0051,18.053606 -9.49812,27.399006 -2.12822,7.93967 -3.35737,16.13133 -3.42053,24.35737 -0.20098,18.06276 4.74371,36.17223 14.25385,51.54328 1.85494,2.95856 3.64365,5.99277 5.92457,8.64956 0.733,0.90954 2.03748,1.42402 3.11719,0.81641 1.79453,-1.00852 3.02448,-2.75231 4.28159,-4.33565 1.513,-2.10173 2.97934,-4.23707 4.47427,-6.35185 -2.78748,-4.71481 -5.81199,-9.29578 -8.34531,-14.15636 -5.84728,-11.17889 -8.9409,-23.80724 -8.70016,-36.43302 0.123,-8.72213 1.73446,-17.38511 4.38726,-25.68211 0.42804,-1.34018 0.96042,-2.89121 1.47594,-4.29684 2.70136,-7.49649 6.46181,-14.538603 9.859,-21.7291 0.30749,-0.637252 0.61523,-1.274381 0.92288,-1.911556 -3.8171,-3.644588 -7.63852,-7.284635 -11.45704,-10.927734 -0.42773,0.71875 -0.85546,1.4375 -1.2832,2.15625 z m 74.32031,-0.02148 c 2.66927,0 5.33854,0 8.00782,0 -0.21491,56.32747 -0.42975,112.65494 -0.64454,168.98242 -5.1263,0.0376 -10.2526,0.0754 -15.3789,0.11328 0,-56.36524 0,-112.73047 0,-169.0957 2.67187,0 5.34375,0 8.01562,0 z m 113.6211,0 c 2.78711,0 5.57422,0 8.36133,0 -10e-6,56.01432 0,112.02864 0,168.04296 -5.57422,0 -11.14844,0 -16.72266,0 0,-56.01432 0,-112.02864 0,-168.04296 2.78711,0 5.57422,0 8.36133,0 z m 63.79101,1.558593 c -1.82943,0.27372 -3.39924,1.384652 -4.96597,2.299793 -1.67168,1.152239 -3.53636,2.163136 -4.78207,3.807629 -1.21177,1.665058 -0.71565,3.849139 -0.0466,5.624681 1.77871,4.587356 3.385,9.244514 4.6547,14.000434 2.35798,8.62149 4.1027,17.41313 5.19269,26.28504 0.12189,1.01665 0.26767,2.31487 0.36065,3.36114 1.25126,13.37106 0.35714,27.42021 -4.76606,40.04748 -0.4904,1.21712 -1.03292,2.41235 -1.60045,3.59528 -0.18429,0.35012 -0.51711,1.04841 -0.78013,1.5282 -1.71515,3.16682 -3.55033,6.26737 -5.31753,9.4054 2.98811,3.16622 5.74223,6.57224 9.0151,9.45635 0.83145,0.7983 2.09236,1.45314 3.2041,0.81363 1.52206,-0.90675 2.19315,-2.67999 3.02559,-4.1611 3.18468,-6.60221 5.73729,-13.49291 8.03515,-20.44758 3.64653,-10.83285 5.2456,-22.32967 4.83591,-33.7472 -0.29122,-7.78788 -1.27427,-15.54759 -2.79337,-23.18942 -2.03433,-9.74624 -4.54184,-19.39797 -7.55894,-28.886586 -0.94958,-2.804207 -1.79411,-5.685416 -3.25212,-8.277088 -0.49703,-0.870665 -1.39958,-1.648135 -2.46064,-1.516083 z M 230.77539,162.65625 c 0.85982,0.0354 1.776,-0.0508 2.5918,0.2168 0.38421,1.82861 0.23186,3.72904 0.18359,5.58593 -0.10737,0.42729 0.0763,1.26894 -0.60684,1.19362 -1.5743,0.12544 -3.19884,0.21221 -4.75449,-0.096 -0.39108,-1.80039 -0.23261,-3.67471 -0.19515,-5.50499 0.12235,-0.36365 -0.0805,-1.09714 0.35497,-1.24069 0.79418,-0.17202 1.61836,-0.13481 2.42612,-0.15471 z m 60.21094,0.0684 c 0.15011,-0.007 0.19264,-0.0273 0,0 z m 3.83984,-0.004 c 0.23474,0.0203 -0.22626,-0.0288 0,0 z m -4.43555,0.0625 c -0.0304,-0.018 0.0407,0.0279 -0.13671,0.11524 -0.0437,0.0618 0.0921,-0.0693 0.0859,-0.0137 0.006,-0.0167 0.14145,-0.0865 0.0234,-0.0469 -0.0769,0.12303 0.10725,-0.15434 0.0273,-0.0547 z m 5.09571,0.006 c -0.0919,-0.0414 0.17479,0.11475 -0.10742,0.0156 0.29124,0.15527 0.11562,0.0631 0.17968,0.0684 0.10216,0.0658 0.0646,0.0376 -0.0371,-0.043 -0.0228,-0.0383 -0.0317,-0.0441 -0.0351,-0.041 z m -4.90625,-0.004 c 0.26045,-0.0389 0.23712,-0.0506 0,0 z m 4.62695,-0.0117 c 0.32241,0.0522 -0.33826,-0.0718 0,0 z m 0.30664,0.0723 c 0.0272,0.006 -0.0167,-0.001 0,0 z m -5.26758,0.375 c 0.0632,-0.21102 0.0552,-0.27125 0,0 z m 5.34961,-0.125 c 0.0924,0.35209 -0.0621,-0.28996 0,0 z m 0.0703,0.39453 c 0.0352,0.21121 -0.0408,-0.32715 0,0 z m -5.4629,0.043 c 0.03,-0.17772 0.0231,-0.18157 0,0 z m 5.51172,0.42383 c 0.0174,0.17373 -0.0104,-0.17354 0,0 z m 0,4.49805 c -0.0104,0.17354 0.0174,-0.17373 0,0 z m -0.0488,0.47265 c -0.0372,0.30219 0.031,-0.19619 0,0 z m -5.44336,0.0859 c -0.0147,-0.16547 -0.0352,-0.1933 0,0 z m 0.0742,0.39453 c -0.0358,-0.21993 -0.0735,-0.26915 0,0 z m 5.30078,-0.0996 c -0.0719,0.33612 0.0976,-0.3767 0,0 z m -0.0664,0.22852 c -0.21959,0.1246 0.0381,-0.005 -0.0254,0.0566 -0.0839,0.10538 -0.0273,0.0635 0.0371,-0.0332 0.11403,-0.0607 0.0953,-0.0867 0,-0.0117 0.0871,-0.25032 0.0198,-0.0964 -0.0117,-0.0117 z m -5.18945,-0.002 c 0.0315,0.0517 -0.16773,-0.0969 -0.0566,-0.01 -0.0257,-0.0353 0.14242,0.14159 0.0918,0.0859 0.0948,0.13541 -0.0306,-0.0601 -0.006,-0.041 0.35423,0.17402 -0.27289,-0.14785 -0.0293,-0.0352 z m 5.17773,0.0293 c -0.027,0.007 -0.0401,0.0137 0,0 z m -4.75195,0.0977 c -0.25172,-0.0572 -0.24416,-0.0396 0,0 z m 4.43945,-0.0234 c -0.33969,0.0724 0.31929,-0.0519 0,0 z m -4.0918,0.0625 c -0.13712,-0.0217 -0.18936,-0.0158 0,0 z m 3.71485,-0.01 c -0.23817,0.0295 0.19814,-0.018 0,0 z m -3.22461,0.043 c -0.0227,-0.01 -0.21686,-0.006 0,0 z m 2.66601,0 c 0.21686,-0.006 0.0227,-0.01 0,0 z m -32.41406,3.45117 c 1.4056,6.5e-4 2.8112,0.001 4.2168,0.002 0,31.90169 0,63.80339 0,95.70508 -3.05075,0.26217 -6.10154,0.5236 -9.15234,0.78515 0.23479,-32.16406 0.46982,-64.32812 0.70507,-96.49218 1.41016,0 2.82032,0 4.23047,0 z m 0,118.96484 c 4.87305,0 9.7461,0 14.61914,0 0.3531,13.72044 0.2622,27.44679 0.35771,41.17031 0.16367,51.54009 0.20164,103.08046 0.28682,154.62071 -9.94726,-3.7e-4 -19.89453,2.8e-4 -29.84179,0.002 0,-65.26432 0,-130.52865 0,-195.79297 4.85937,0 9.71875,0 14.57812,0 z" />
      <path
         id="path1527"
         style="fill:#fe7b00;stroke-width:1.59859"
         d="M 44.587891,6.0546875 C 41.065445,13.375882 37.347647,20.611298 34.269328,28.136038 28.626047,41.723855 23.584474,55.558263 19.005931,69.539308 16.016396,78.715779 13.218643,87.982714 11.482337,97.489471 9.0288744,110.33354 7.3305322,123.32064 6.289595,136.35395 c -0.5347795,6.6784 -0.7409498,13.38299 -0.5078253,20.08039 0.8303713,28.269 6.8027613,56.25271 16.3413273,82.82986 5.393911,15.01429 12.006085,29.57835 19.52441,43.64474 0.97666,1.68636 1.786988,3.52068 3.106399,4.97192 0.615031,0.61363 1.549669,0.74481 2.337374,0.39708 2.095785,-1.02556 3.825455,-2.64999 5.604133,-4.13332 1.206161,-1.0778 2.456235,-2.15519 3.517143,-3.36016 0.655645,-1.26642 -0.15146,-2.61731 -0.591729,-3.81871 -3.741737,-8.8969 -8.400078,-17.37176 -12.230688,-26.22957 -4.831632,-10.8986 -9.010687,-22.08955 -12.423342,-33.51352 -0.294947,-1.02921 -0.703933,-2.4438 -1.005859,-3.47461 -0.784138,-2.82036 -1.553364,-5.68563 -2.220483,-8.45928 -0.408059,-1.6331 -0.745679,-3.1057 -1.119591,-4.76701 -0.865449,-3.87228 -1.679532,-7.97945 -2.358171,-11.9819 -2.734208,-15.99569 -3.752156,-32.28092 -3.045896,-48.49298 0.05815,-1.05467 0.122025,-2.38031 0.183594,-3.53907 0.211054,-3.52586 0.51681,-7.2114 0.867187,-10.62109 1.930704,-18.44903 6.018682,-36.637696 11.710938,-54.281251 0.417277,-1.240645 0.918644,-2.798448 1.338943,-4.044315 4.190377,-12.428278 9.205018,-24.563667 14.69387,-36.471157 2.207763,-4.993748 4.50106,-9.95995 6.389062,-15.086091 0.494583,-1.097614 0.177262,-2.344745 -0.538175,-3.266995 C 53.568964,9.6321598 50.240523,7.5531558 47.313354,5.1110697 46.767496,4.6788642 46.221639,4.2466587 45.675781,3.8144531 c -0.36263,0.7467448 -0.72526,1.4934896 -1.08789,2.2402344 z M 463.89062,7.3632812 c -1.83014,0.1789361 -3.17121,1.60156 -4.60937,2.6015626 -1.66433,1.4404122 -3.41389,3.0279582 -4.14453,5.1660152 -0.27679,1.75486 0.62173,3.414221 1.17578,5.029297 2.59819,6.435457 5.98524,12.503833 9.15467,18.665183 4.76722,9.448122 8.90931,19.205265 12.54064,29.143411 3.43959,9.460213 6.46305,19.226709 8.80107,29.075083 1.6694,7.128407 3.24619,14.427617 3.713,21.801467 0.62155,9.43256 0.48845,18.89317 0.52875,28.34064 -0.0738,10.27127 0.11307,20.6319 -1.78871,30.77123 -1.44111,7.59751 -3.23505,15.12688 -5.21927,22.59978 -3.15656,11.89626 -7.48802,23.45633 -12.60327,34.64372 -5.355,11.79795 -11.30488,23.25822 -17.2732,34.76275 -1.08995,2.03844 -0.48138,4.52873 0.80843,6.32369 1.57621,2.2109 3.5008,4.19011 5.6582,5.83789 0.92561,0.74563 2.35811,1.05335 3.30324,0.17845 1.61649,-1.46987 2.71146,-3.41093 3.94426,-5.19465 6.97463,-10.87445 12.58154,-22.56542 17.58074,-34.45908 6.73021,-16.25311 12.26382,-33.0263 16.13902,-50.19266 1.82031,-8.00558 3.13355,-16.12843 3.79288,-24.31418 1.2537,-15.23079 1.18959,-30.56216 0.0646,-45.79879 -0.76571,-10.265 -2.14556,-20.50071 -4.54717,-30.518211 -4.15493,-17.744611 -10.13094,-35.048416 -17.54792,-51.688378 -3.36341,-7.518516 -7.15546,-14.834898 -10.84132,-22.197175 -1.61298,-3.024352 -3.03869,-6.198372 -5.19306,-8.8895448 -0.85878,-0.996269 -2.06548,-1.8163015 -3.4375,-1.6875 z M 88.4375,40.753906 c -1.868029,3.156811 -3.704242,6.335297 -5.255199,9.662853 -6.734799,13.947625 -12.828562,28.249027 -17.304225,43.094716 -6.328846,20.731295 -9.639931,42.524565 -8.373894,64.216735 1.019214,18.52443 5.421269,36.80886 12.564012,53.91508 3.435053,8.16636 7.386862,16.11299 11.687341,23.85671 1.897176,3.33615 4.006413,6.5979 6.652668,9.39258 0.786313,0.84868 2.073771,1.36791 3.146485,0.74414 1.734286,-1.03226 2.922307,-2.75 4.146546,-4.31338 1.445566,-2.01737 2.853718,-4.06145 4.285094,-6.08896 -3.470901,-6.20532 -7.085835,-12.33153 -10.436099,-18.60319 -3.911064,-7.44353 -7.255014,-15.18885 -9.917417,-23.16635 -0.589768,-1.7665 -1.210047,-3.73716 -1.744523,-5.6047 -0.866631,-2.9909 -1.635558,-6.01046 -2.293785,-8.99119 -0.655138,-2.96937 -1.203261,-5.90839 -1.672989,-8.94899 -1.189845,-7.66494 -1.742909,-15.62758 -1.663703,-23.46098 0.03805,-2.98648 0.14319,-5.87966 0.353492,-8.88743 0.138207,-2.05411 0.331168,-4.17625 0.556665,-6.28053 0.413438,-3.81794 0.994226,-7.8058 1.689936,-11.65616 0.351616,-1.96912 0.731245,-3.84292 1.208091,-5.82485 1.921729,-7.88879 4.498479,-15.784407 7.205828,-23.514907 2.889225,-8.108315 5.999118,-16.146064 9.583645,-23.974791 1.699546,-3.691074 3.683818,-7.435213 5.53441,-11.126205 0.91231,-1.79845 1.822801,-3.597823 2.737071,-5.395279 -3.793468,-3.763932 -7.594883,-7.517512 -11.390622,-11.279297 -0.432943,0.744792 -0.865885,1.489584 -1.298828,2.234375 z m 330.80273,1.376953 c -1.68892,0.309455 -2.95559,1.630657 -4.22335,2.695309 -2.21392,2.072631 -4.21359,4.361859 -6.32743,6.53516 2.90882,5.357581 5.9428,10.648706 8.74902,16.060985 4.4683,8.974116 8.15385,18.251385 11.54136,27.656398 1.8468,5.172259 3.61674,10.522689 5.14857,15.786099 1.81974,6.17825 3.32524,12.4653 4.0617,18.87224 0.49195,3.89056 0.81479,7.82821 1.00483,11.67984 0.45289,9.91349 0.15401,20.03067 -1.3458,29.9179 -1.50306,9.9468 -4.84975,19.50819 -8.69093,28.76873 -2.58645,6.12548 -5.48731,12.1209 -8.75976,17.91015 -0.97713,1.70549 -2.07553,3.57308 -3.17383,5.29688 -2.6086,4.03364 -5.24984,8.04614 -7.87305,12.07031 3.57433,3.81439 7.14817,7.62924 10.72071,11.44531 2.56081,-3.27194 5.33,-6.39557 7.52584,-9.93603 6.34465,-9.84652 11.99423,-20.17974 16.25931,-31.10498 6.96998,-17.64746 10.51687,-36.61692 10.5209,-55.5859 0.0623,-25.53719 -6.08928,-50.799792 -15.92526,-74.267559 -3.66158,-8.623623 -7.58143,-17.149923 -12.03808,-25.394533 -1.43648,-2.523824 -2.7845,-5.15208 -4.72788,-7.332488 -0.62456,-0.662293 -1.501,-1.219612 -2.44687,-1.073821 z M 131.24414,81.28125 c -2.11872,3.565642 -4.34522,7.083686 -5.99219,10.902344 -3.92592,8.845426 -7.0051,18.053606 -9.49812,27.399006 -2.12822,7.93967 -3.35737,16.13133 -3.42053,24.35737 -0.20098,18.06276 4.74371,36.17223 14.25385,51.54328 1.85494,2.95856 3.64365,5.99277 5.92457,8.64956 0.733,0.90954 2.03748,1.42402 3.11719,0.81641 1.79453,-1.00852 3.02448,-2.75231 4.28159,-4.33565 1.513,-2.10173 2.97934,-4.23707 4.47427,-6.35185 -2.78748,-4.71481 -5.81199,-9.29578 -8.34531,-14.15636 -5.84728,-11.17889 -8.9409,-23.80724 -8.70016,-36.43302 0.123,-8.72213 1.73446,-17.38511 4.38726,-25.68211 0.42804,-1.34018 0.96042,-2.89121 1.47594,-4.29684 2.70136,-7.49649 6.46181,-14.538603 9.859,-21.7291 0.30749,-0.637252 0.61523,-1.274381 0.92288,-1.911556 -3.8171,-3.644588 -7.63852,-7.284635 -11.45704,-10.927734 -0.42773,0.71875 -0.85546,1.4375 -1.2832,2.15625 z m 251.73242,1.537109 c -1.82943,0.27372 -3.39924,1.384652 -4.96597,2.299793 -1.67168,1.152239 -3.53636,2.163136 -4.78207,3.807629 -1.21177,1.665058 -0.71565,3.849139 -0.0466,5.624681 1.77871,4.587356 3.385,9.244518 4.6547,14.000438 2.35798,8.62149 4.1027,17.41313 5.19269,26.28504 0.12189,1.01665 0.26767,2.31487 0.36065,3.36114 1.25126,13.37106 0.35714,27.42021 -4.76606,40.04748 -0.4904,1.21712 -1.03292,2.41235 -1.60045,3.59528 -0.18429,0.35012 -0.51711,1.04841 -0.78013,1.5282 -1.71515,3.16682 -3.55033,6.26737 -5.31753,9.4054 2.98811,3.16622 5.74223,6.57224 9.0151,9.45635 0.83145,0.7983 2.09236,1.45314 3.2041,0.81363 1.52206,-0.90675 2.19315,-2.67999 3.02559,-4.1611 3.18468,-6.60221 5.73729,-13.49291 8.03515,-20.44758 3.64653,-10.83285 5.2456,-22.32967 4.83591,-33.7472 -0.29122,-7.78788 -1.27427,-15.54759 -2.79337,-23.18942 -2.03433,-9.74624 -4.54184,-19.39797 -7.55894,-28.88659 -0.94958,-2.804207 -1.79411,-5.685416 -3.25212,-8.277088 -0.49703,-0.870665 -1.39958,-1.648135 -2.46064,-1.516083 z" />
      <path
         style="fill:#ffffff;stroke-width:2.01378"
         d="M 195.78602,165.93008 V 79.807203 h 9.94822 9.94822 l -0.76053,57.702327 c -0.4183,31.73629 -0.7611,70.49158 -0.76178,86.12289 l -10e-4,28.42055 h -9.18644 -9.18644 z"
         id="path1666" />
      <path
         style="fill:#ffffff;stroke-width:2.01378"
         d="M 309.46822,165.35593 V 79.807203 h 9.76059 9.7606 v 85.548727 85.54873 h -9.7606 -9.76059 z"
         id="path1705" />
      <path
         style="fill:#ffffff;stroke-width:0.71198"
         d="m 227.24015,170.89757 c -0.82881,-0.58052 -0.90231,-0.95849 -0.90231,-4.63985 0,-5.10343 0.1513,-5.28381 4.43193,-5.28381 4.24837,0 4.49979,0.291 4.49979,5.2083 0,4.8398 -0.41532,5.34736 -4.37553,5.34736 -1.83331,0 -3.05269,-0.21091 -3.65388,-0.632 z"
         id="path1744" />
      <path
         style="fill:#ffffff;stroke-width:0.71198"
         d="m 289.35618,170.89757 c -0.82792,-0.5799 -0.90231,-0.95962 -0.90231,-4.60593 0,-5.05018 0.22825,-5.31773 4.5364,-5.31773 4.15716,0 4.39532,0.29196 4.39532,5.38827 0,4.7776 -0.33688,5.16739 -4.46586,5.16739 -1.75155,0 -2.96967,-0.21603 -3.56355,-0.632 z"
         id="path1783" />
      <path
         style="fill:#ffffff;stroke-width:2.01378"
         d="m 255.49788,233.99265 c 0,-20.81715 0.3369,-43.35549 0.74866,-50.0852 l 0.74865,-12.23584 h 4.99287 4.99287 v 49.37712 49.37712 l -3.15784,0.0157 c -1.73681,0.009 -4.32049,0.32726 -5.74152,0.70808 l -2.58369,0.69241 z"
         id="path1822" />
      <path
         style="fill:#ffffff;stroke-width:2.01378"
         d="m 246.31144,390.42373 v -99.32839 h 16.07627 16.07627 v 99.32839 99.32839 h -16.07627 -16.07627 z"
         id="path1861" />
    </g>
  </g>
</svg>
