<?xml version="1.0" encoding="UTF-8" standalone="no"?>
<svg
   viewBox="0 0 512 512"
   height="512"
   width="512"
   id="svg885"
   version="1.1"
   sodipodi:docname="mainframe.svg"
   inkscape:version="1.1.2 (0a00cf5339, 2022-02-04)"
   xmlns:inkscape="http://www.inkscape.org/namespaces/inkscape"
   xmlns:sodipodi="http://sodipodi.sourceforge.net/DTD/sodipodi-0.dtd"
   xmlns="http://www.w3.org/2000/svg"
   xmlns:svg="http://www.w3.org/2000/svg"
   xmlns:rdf="http://www.w3.org/1999/02/22-rdf-syntax-ns#"
   xmlns:cc="http://creativecommons.org/ns#"
   xmlns:dc="http://purl.org/dc/elements/1.1/">
  <sodipodi:namedview
     id="namedview14777"
     pagecolor="#505050"
     bordercolor="#eeeeee"
     borderopacity="1"
     inkscape:pageshadow="0"
     inkscape:pageopacity="0"
     inkscape:pagecheckerboard="0"
     showgrid="false"
     inkscape:zoom="0.65186406"
     inkscape:cx="220.90495"
     inkscape:cy="310.64759"
     inkscape:window-width="1366"
     inkscape:window-height="695"
     inkscape:window-x="0"
     inkscape:window-y="24"
     inkscape:window-maximized="1"
     inkscape:current-layer="svg885" />
  <metadata
     id="metadata891">
    <rdf:RDF>
      <cc:Work
         rdf:about="">
        <dc:format>image/svg+xml</dc:format>
        <dc:type
           rdf:resource="http://purl.org/dc/dcmitype/StillImage" />
      </cc:Work>
    </rdf:RDF>
  </metadata>
  <defs
     id="defs889">
    <rect
       x="-264.96902"
       y="223.60079"
       width="223.72027"
       height="226.05978"
       id="rect21120" />
  </defs>
  <g
     id="g19312">
    <path
       id="path899-3"
       style="fill:#ffffff;stroke-width:2.07777"
       d="M 173.68914,7.6650245 C 137.61911,7.863151 101.54939,8.1135206 65.479629,8.3556084 c -0.497505,2.7616866 -1.005128,5.5211006 -1.488766,8.2851036 -8.626058,0.64822 -17.319243,0.318679 -25.907651,1.475639 -3.019807,0.380307 -6.126363,1.030141 -8.631955,2.876241 -2.583716,1.75232 -4.270619,4.727366 -4.437629,7.864317 -0.160082,2.414938 0.05281,4.836454 -0.01022,7.254824 0.27837,59.298815 0.327092,118.598397 0.453504,177.897667 0.169574,90.49347 0.297971,180.98701 0.44328,271.48052 13.055737,0 26.111464,0 39.167201,0 0,6.28228 0,12.56457 0,18.84685 57.134667,-0.37147 114.269347,-0.73926 171.404017,-1.10987 0.47624,-4.66452 0.95103,-9.3292 1.42666,-13.9938 5.16319,0.003 10.42931,0.0678 15.44252,-1.3493 1.0012,-0.30653 1.97743,-0.69599 2.91582,-1.1626 3.70464,2.87077 8.44713,3.83848 13.01423,4.12328 5.41287,0.30158 10.83902,0.24693 16.25859,0.26649 1.29993,-5.1e-4 2.59986,-9.7e-4 3.89979,-0.002 0.4824,4.0575 0.96534,8.11495 1.44736,12.17249 56.48032,0 112.96064,0 169.44096,0 0.47055,-6.62699 0.94241,-13.25388 1.41348,-19.88083 8.19169,-0.38373 16.38331,-0.76867 24.57502,-1.15161 0.25474,-96.47421 0.54634,-192.94835 0.72288,-289.42273 0.0366,-42.80771 0.0806,-85.61783 -0.51985,-128.422224 -0.16724,-9.040522 -0.32088,-18.089566 -0.99499,-27.108577 -0.24314,-3.190574 -0.74633,-6.622294 -2.95632,-9.090161 -2.45715,-2.870867 -6.19696,-4.069477 -9.74661,-4.875532 -3.76292,-0.798582 -7.62169,-0.969271 -11.45656,-0.992239 -0.37209,-2.922798 -0.68928,-5.860003 -1.00485,-8.78369 -0.46769,-2.168663 -2.7241,-3.6365991 -4.87794,-3.374643 C 429.72059,10.063179 403.97006,9.8529112 378.21923,9.700478 348.36276,9.5066712 318.50628,9.3147625 288.64981,9.1197648 c 0,3.7874582 0,7.5749152 0,11.3623742 -7.34535,0.007 -14.7618,-0.192256 -22.01527,1.170812 -2.50858,0.52738 -4.9859,1.317571 -7.22367,2.595144 -4.80574,-2.920914 -10.51027,-3.89392 -16.05384,-3.868767 -0.88865,-0.03787 -1.88496,-0.08207 -2.63179,-0.157538 -0.91991,-0.08762 -1.83885,-0.206064 -2.74246,-0.403674 -1.18055,-4.256315 -4.54629,-7.778743 -8.69264,-9.195317 -4.77962,-1.8616601 -9.96969,-2.0364621 -15.01945,-2.4156665 -12.54172,-0.688815 -25.10858,-0.4999583 -37.66354,-0.543905 -0.97269,4.594e-4 -1.94538,9.199e-4 -2.91806,0.00136 z M 144.34855,37.982394 c 5.96386,0.01326 11.92772,0.02657 17.89157,0.03985 -7.82986,3.106566 -15.66931,6.189484 -23.54549,9.174894 -3.32287,-2.964234 -6.54457,-6.04054 -9.74945,-9.133155 5.13426,-0.05755 10.26888,-0.06 15.40337,-0.08158 z m 218.53266,0.04553 c 2.54214,0.0094 5.08428,0.01929 7.62641,0.02846 -5.18908,2.769706 -10.48086,5.532631 -15.665,8.116253 -0.71019,0.349086 -1.42038,0.698172 -2.13058,1.047258 -1.22377,-0.999729 -2.40161,-2.021981 -3.52661,-3.022526 -2.19962,-1.941512 -4.33917,-3.950648 -6.47693,-5.96075 6.72336,-0.139261 13.44793,-0.209231 20.17271,-0.208692 z m 65.98949,5.035187 c 0.39959,12.090746 0.33512,24.317837 0.37141,36.468501 0.0126,15.696786 -0.006,31.393798 -0.12297,47.090188 -17.91235,-18.67224 -36.2091,-36.971329 -53.84055,-55.916221 -0.80831,-0.480731 0.0828,-0.692189 0.52593,-0.973245 11.79538,-6.672263 23.86747,-12.830225 35.95179,-18.948803 5.64915,-2.842832 11.34085,-5.601062 17.0918,-8.228871 0.008,0.169484 0.015,0.338967 0.0225,0.508451 z M 97.778926,51.517064 c 5.834594,5.742537 11.622264,11.547308 17.035194,17.699053 -5.82125,12.853761 -11.99685,25.654883 -18.097062,38.443513 -0.285973,0.59433 -0.571937,1.18865 -0.857911,1.78297 -0.05464,-19.834774 -0.157133,-39.672793 0.297384,-59.504012 0.540801,0.526159 1.081593,1.052318 1.622395,1.578476 z m 109.805554,4.355984 c 0.0939,18.688256 -0.24109,37.374569 -0.4743,56.060582 -14.80457,-13.903132 -29.6515,-27.708768 -44.16426,-41.913102 13.40247,-5.337999 26.90536,-10.417322 40.43191,-15.426027 1.39163,-0.508658 2.78184,-1.021308 4.17842,-1.516035 0.01,0.931533 0.0188,1.863067 0.0282,2.794582 z m 122.11848,14.210094 c -2.71945,5.484938 -5.43813,10.970265 -8.15905,16.454465 -0.0234,-7.970635 0.0299,-15.942048 0.22397,-23.910497 2.64503,2.485347 5.29006,4.970685 7.93508,7.456032 z M 140.54289,92.83633 c 19.03558,17.42996 38.13704,34.8131 56.25419,53.2222 0.49669,0.45094 -0.90397,0.23959 -1.22343,0.40564 -29.04411,3.82368 -58.08065,7.7056 -87.10233,11.6987 8.93155,-19.22261 18.0342,-38.35558 27.21354,-57.46606 1.37591,-2.837944 2.75058,-5.676637 4.15599,-8.499836 0.23401,0.213118 0.46802,0.426237 0.70204,0.639356 z m 214.08329,2.443607 c 8.94506,8.958543 17.56981,18.234333 26.23092,27.470003 7.4741,8.02098 14.96193,16.03129 22.28259,24.1953 0.36186,0.44269 -0.97202,0.2711 -1.34024,0.44931 -26.25049,4.16142 -52.49929,8.24591 -78.79861,12.07138 -0.82449,0.29274 -0.0201,-0.67116 0.0432,-1.05918 4.0991,-9.64169 8.7409,-19.03518 13.27324,-28.47415 5.75199,-11.91876 11.57014,-23.80967 17.10242,-35.83652 0.40215,0.394619 0.80431,0.789238 1.20646,1.183857 z m -153.6047,81.629243 c -12.68364,24.76212 -24.95218,49.79538 -37.74995,74.46347 -0.28659,0.43282 -0.7223,-0.75768 -1.07084,-0.99927 -6.88005,-8.84573 -13.57581,-17.84891 -20.27444,-26.79671 -8.22101,-11.07132 -16.43681,-22.21902 -24.37739,-33.45345 -0.51696,-0.73675 -1.03392,-1.4735 -1.55088,-2.21024 28.41433,-3.70382 56.82532,-7.43891 85.20983,-11.37375 -0.0622,0.12331 -0.12422,0.24662 -0.18633,0.36995 z m 203.80872,1.50068 c 1.18893,0.40465 2.44155,0.56183 3.68711,0.66213 -11.14171,23.67448 -22.06659,47.45476 -33.39282,71.04282 -13.75213,-18.38236 -27.07215,-37.11225 -40.03322,-56.04049 -1.29713,-1.91097 -2.59423,-3.82182 -3.86943,-5.74776 7.19224,-1.14993 14.48233,-2.12406 21.61819,-3.05261 7.18633,-0.86327 14.375,-1.786 21.60125,-2.21972 1.52037,0.0119 2.9947,0.50277 4.52204,0.50092 4.12443,0.17933 8.25054,-0.21199 12.34938,-0.63845 3.29797,-0.42871 6.62534,-0.99466 9.72871,-2.23448 1.29249,-0.57178 2.47802,-1.38917 3.48577,-2.3843 0.10101,0.0373 0.20202,0.0746 0.30302,0.11194 z m 24.01603,35.37153 c 0.48885,36.12398 0.34265,72.25244 0.20782,108.37831 0.11758,0.91758 -0.51673,-0.36078 -0.78054,-0.57126 -8.79265,-11.25506 -17.38283,-22.57919 -25.78336,-34.07488 -1.41308,-1.95819 -2.84146,-3.90596 -4.19472,-5.90701 9.33124,-21.39967 19.05501,-42.62176 28.70331,-63.87712 0.61556,-1.34824 1.22786,-2.69779 1.84561,-4.0448 z m -329.183286,5.574 c 10.667036,15.21561 21.109966,30.59152 31.330996,46.11486 3.07892,4.71582 6.12868,9.45137 9.10852,14.2315 -8.70737,6.9725 -17.71595,13.54972 -26.67915,20.18115 -5.15162,3.78597 -10.31829,7.54982 -15.478751,11.32387 0.01513,-30.16642 -0.06235,-60.33345 0.151023,-90.49929 0.01368,-1.17037 0.02727,-2.34075 0.04096,-3.51112 0.508798,0.71968 1.017607,1.43936 1.526406,2.15903 z M 327.34841,240.1317 c 9.72046,13.40531 19.42953,26.81796 29.13543,40.23407 -11.32305,9.46567 -23.08687,18.37732 -34.95687,27.13006 0.018,-25.04125 -0.0696,-50.08323 0.17128,-75.12371 1.88338,2.58653 3.76677,5.17305 5.65016,7.75958 z m -121.67618,29.97208 c 0.21072,13.36326 0.43365,26.72634 0.62675,40.0899 -7.08286,-9.42673 -14.13927,-18.90091 -21.20788,-28.35377 6.69726,-13.55619 13.39452,-27.11236 20.09178,-40.66853 0.16312,9.64413 0.32623,19.28828 0.48935,28.9324 z m 171.10101,35.49296 c 9.47815,10.62116 18.11886,21.96019 26.74688,33.28232 2.09033,2.77156 4.16954,5.5516 6.22433,8.34999 -22.64937,-3.60126 -45.32434,-7.39838 -67.93372,-11.24474 -2.15744,-0.37447 -4.31611,-0.74209 -6.47266,-1.12125 11.20135,-8.42718 22.53357,-16.73884 33.97036,-24.87949 2.32671,-1.63629 4.64739,-3.28171 6.99993,-4.88011 0.15496,0.16443 0.30992,0.32885 0.46488,0.49328 z m -215.96731,1.48551 c 1.1047,1.28652 2.35724,2.71827 3.51177,4.06793 8.96938,10.50234 17.70407,21.20592 26.38978,31.947 2.17355,2.69816 4.33058,5.40978 6.48009,8.12739 -19.33147,-3.06595 -38.60557,-6.48398 -57.88383,-9.86998 -7.3888,-1.31871 -14.7747,-2.65478 -22.15013,-4.04793 11.8896,-8.92505 23.91605,-17.6665 36.07877,-26.20963 2.30207,-1.59156 4.59747,-3.19331 6.9261,-4.7452 0.21581,0.24347 0.43163,0.48695 0.64745,0.73042 z m 188.36206,61.93243 c 17.89564,2.6449 35.74962,5.49417 53.58246,8.43499 2.36444,0.4046 4.86132,0.82959 7.27445,1.25595 -2.2669,5.54925 -4.77439,11.2255 -7.26693,16.7049 -3.35287,7.34998 -6.82204,14.68875 -10.32538,21.99622 -9.89213,-10.37495 -19.57218,-20.93799 -29.28354,-31.50144 -5.19675,-5.67992 -10.37103,-11.38095 -15.50935,-17.11449 0.50942,0.0746 1.01886,0.14925 1.52829,0.22387 z m -210.32279,3.16264 c 18.18133,2.62916 36.33535,5.33116 54.47938,8.16979 3.65125,0.57652 7.25061,1.15709 10.90029,1.77537 -4.94407,9.08752 -10.08278,18.01323 -15.31555,26.94622 -2.53895,4.30888 -5.11764,8.5942 -7.75,12.84581 -15.96956,-16.49409 -32.02465,-32.90481 -47.87026,-49.52028 -0.21434,-0.33245 -1.23623,-1.08232 -0.91578,-1.13834 2.1573,0.30715 4.31461,0.6143 6.47192,0.92143 z m -35.96757,15.16249 c 17.2272,17.46728 34.27254,35.11749 51.11128,52.96551 0.92054,0.9792 1.83137,1.96772 2.74785,2.95087 -9.77485,5.62157 -19.72436,10.92802 -29.70601,16.165 -8.88989,4.63068 -17.82073,9.11988 -26.9622,13.16989 -0.706825,0.31322 -1.412748,0.62835 -2.123991,0.93125 0,-30.3863 0,-60.7726 0,-91.1589 1.644357,1.65879 3.288711,3.31759 4.933071,4.97638 z m 239.05355,23.93137 c 9.27076,10.04761 18.54153,20.09522 27.81229,30.14283 -16.05733,7.2621 -32.12763,14.49148 -48.2165,21.6604 0,-24.63839 0,-49.27679 0,-73.91519 6.8014,7.37066 13.60281,14.74131 20.40421,22.11196 z m 87.05433,11.78924 c 0.0376,10.99625 -0.0481,21.99311 -0.29362,32.98674 -3.72285,-3.98287 -7.44571,-7.96574 -11.16857,-11.94861 3.81353,-8.49343 7.62958,-16.9857 11.43395,-25.48329 0.01,1.48172 0.0188,2.96344 0.0282,4.44516 z m -223.48079,23.76442 c -0.0957,0.29841 0.20979,1.59558 -0.20552,1.09846 -0.59764,-0.41486 -0.76322,-0.88085 -0.21345,-1.43151 0.41955,-0.93375 0.47793,-0.54872 0.41897,0.26475 z m 192.98834,24.78132 c 0.62929,0.64639 1.48252,1.38399 1.97624,1.97499 -7.87058,0.11064 -15.74205,0.11332 -23.61324,0.11762 5.49522,-2.40402 11.03827,-4.77669 16.56088,-7.02914 1.69204,1.64551 3.38408,3.29102 5.07612,4.93653 z m -220.29433,-4.0126 c 3.0638,2.44029 5.91993,5.13149 8.70675,7.8848 -7.95336,0.11183 -15.90769,0.13286 -23.86169,0.11004 4.93883,-2.76663 9.87375,-5.50689 14.85003,-8.23199 0.10164,0.0791 0.20328,0.1581 0.30491,0.23715 z" />
    <path
       id="path899"
       d="m 74.58374,485.29804 v -9.39015 H 54.991445 35.39915 L 35.053396,253.96004 C 34.86324,131.88873 34.603925,30.958651 34.477158,29.670979 34.313963,28.01343 39.756297,27.171473 53.114297,26.787714 70.586088,26.285774 72.035553,25.93936 72.706592,22.105269 l 0.724662,-4.1404 74.636606,-0.494514 c 77.12261,-0.510985 80.94929,-0.177203 80.94929,7.060824 0,3.468759 6.13723,5.539352 16.54642,5.58247 3.39575,0.01406 7.84949,1.387007 9.89726,3.050981 3.42763,2.785222 4.04983,2.785222 7.8373,0 2.9221,-2.148817 8.56952,-3.025406 19.49121,-3.025406 h 15.37709 V 24.495043 18.85086 l 76.64045,0.493493 76.64042,0.493494 0.72229,6.087178 c 0.69254,5.836246 1.13221,6.087176 10.66646,6.087176 5.56331,0 11.08808,1.120108 12.54098,2.54257 1.90043,1.860759 2.43974,61.001231 2.01091,220.543119 l -0.58589,218.00054 -11.98465,0.56283 -11.98474,0.56284 -0.69263,9.73852 -0.69263,9.73852 h -76.06424 -76.06422 l -0.72227,-6.08717 -0.7223,-6.08718 h -17.01055 c -15.0091,0 -17.44538,-0.49587 -20.70574,-4.2142 -3.41538,-3.89514 -3.87025,-3.96603 -6.00769,-0.93648 -1.70638,2.41857 -5.26686,3.2777 -13.58371,3.2777 h -11.27122 l -0.7154,7.02368 -0.71541,7.02365 -76.64046,0.49348 -76.64045,0.49355 z m 61.63642,-19.79358 c 19.32106,-10.24524 35.13894,-19.29504 35.15088,-20.11064 0.0184,-1.2602 -51.91755,-55.33388 -75.466272,-78.57245 l -7.491171,-7.39251 v 63.13455 63.13455 l 6.338686,-0.7829 c 3.486278,-0.4306 22.146827,-9.16536 41.467877,-19.4106 z m 72.0522,18.81336 c 0,-0.52526 -6.30671,-7.27589 -14.01493,-15.00143 -8.30226,-8.32093 -15.06678,-13.51819 -16.59547,-12.75049 -3.82825,1.92256 -48.75371,27.12302 -49.87168,27.97498 -0.5282,0.40252 17.36416,0.7319 39.76084,0.7319 22.39668,0 40.72124,-0.42973 40.72124,-0.95496 z m 212.95166,-3.25923 c -0.92574,-1.28768 -6.90665,-7.39827 -13.29089,-13.57909 -6.38421,-6.18082 -11.83714,-11.52868 -12.11759,-11.88412 -0.28042,-0.3554 -14.84624,5.74005 -32.36844,13.54549 l -31.85852,14.19171 45.65933,0.0334 c 35.89732,0.0264 45.29943,-0.46697 43.97611,-2.30761 z m 17.03386,-78.55175 -0.64043,-26.80325 -5.37417,12.17436 c -2.95578,6.69589 -10.02494,22.52261 -15.70918,35.17049 l -10.33504,22.99614 15.70919,16.80734 15.7092,16.80733 0.64043,-25.17459 c 0.35222,-13.84599 0.35222,-37.23603 0,-51.97782 z m -71.50318,50.8488 19.03131,-8.62172 -36.89488,-39.98265 -36.89485,-39.98266 v 56.55456 56.55453 l 17.86357,-7.95017 c 9.82495,-4.37259 26.42765,-11.82994 36.89485,-16.57189 z m -151.73746,-12.56607 -0.17012,-29.49941 -11.07688,18.70724 -11.07684,18.70722 10.43443,10.79218 c 5.73893,5.93568 10.80004,10.79217 11.24691,10.79217 0.44687,0 0.73593,-13.27474 0.64243,-29.4994 z m -14.23605,-33.06602 c 9.19109,-15.85314 16.71108,-29.69692 16.71108,-30.76396 0,-1.06703 -1.81517,-2.37484 -4.03372,-2.90626 -8.47966,-2.03114 -104.91623,-16.26676 -105.72793,-15.60717 -0.46965,0.38163 13.8031,15.79902 31.71724,34.26085 17.91414,18.46184 34.76404,35.83815 37.44423,38.61404 2.68017,2.77588 5.39167,5.08742 6.02553,5.13673 0.63386,0.0492 8.67247,-12.88106 17.86357,-28.73423 z m 209.34645,-5.44621 c 7.69984,-16.67584 13.26752,-30.56756 12.3726,-30.87049 -5.639,-1.90885 -99.00302,-16.40387 -98.47652,-15.28876 1.76945,3.7476 69.95752,78.06698 70.95171,77.33152 0.63386,-0.46889 7.45236,-14.49642 15.15221,-31.17227 z m -192.63537,-39.6937 c 0,-2.4347 -53.81049,-68.35458 -55.79794,-68.35458 -2.59965,0 -66.3658,46.50141 -66.3658,48.3972 0,1.14785 108.88387,20.22491 118.13002,20.69701 2.21855,0.11331 4.03372,-0.21954 4.03372,-0.73963 z M 405.7995,326.13433 c -15.79225,-20.59147 -26.94042,-33.32844 -28.72872,-32.82307 -3.45096,0.97525 -65.16564,46.41953 -64.15469,47.24099 0.99814,0.8111 110.11882,18.98873 114.78068,19.12053 2.81605,0.0797 -3.30682,-9.29838 -21.89727,-33.53845 z m 32.90038,-66.0871 c -0.0389,-49.0201 -0.93691,-87.24493 -2.01324,-85.68873 -1.89106,2.73411 -47.67249,103.56845 -49.07541,108.08933 -0.56789,1.83004 48.57888,66.0388 50.58249,66.08445 0.31694,0.008 0.54469,-39.81106 0.50616,-88.48505 z m -223.51259,9.94323 -1.15248,-68.25359 -20.05404,40.59101 -20.05403,40.59105 21.01664,28.12901 c 11.55912,15.47096 21.10207,27.91913 21.20652,27.66257 0.10445,-0.25654 -0.32875,-31.18059 -0.96261,-68.72005 z m -63.01809,11.9588 c 0.8989,-1.90349 -49.60466,-76.64402 -60.64303,-89.74598 -2.638742,-3.13205 -3.112573,7.0822 -3.112573,67.0967 v 70.79118 l 31.327053,-22.90469 c 17.22986,-12.59756 31.8227,-23.95432 32.42855,-25.23721 z m 206.42523,9.1537 10.87101,-9.04884 -27.78139,-38.39575 c -15.27977,-21.11765 -28.21034,-38.74693 -28.73459,-39.17616 -0.52425,-0.42921 -0.95318,26.84167 -0.95318,60.60197 v 61.38237 l 17.86357,-13.15736 c 9.82495,-7.23658 22.75553,-17.22938 28.73458,-22.20623 z M 185.11945,229.61133 c 10.3238,-20.60275 21.31246,-42.36142 24.41921,-48.35262 7.47851,-14.42187 7.36988,-16.85757 -0.69007,-15.47701 -5.35528,0.91728 -71.6376,9.79472 -100.38437,13.44486 -4.81886,0.61187 -8.4492,1.76334 -8.06741,2.55881 3.59225,7.4847 63.17096,87.69057 64.36895,86.65458 0.87071,-0.75297 10.02987,-18.22586 20.35369,-38.82862 z m 224.74017,-30.90412 c 5.5366,-11.84659 10.75944,-22.95576 11.60631,-24.68706 1.22201,-2.49829 -0.0439,-3.306 -6.1367,-3.91446 l -7.67645,-0.76663 8.64366,-0.29974 c 4.75403,-0.16488 8.64368,-1.23276 8.64368,-2.37311 0,-1.14034 -1.54324,-1.59217 -3.4294,-1.00402 -1.88616,0.58813 -8.7141,1.63898 -15.17318,2.33523 -7.00274,0.75484 -10.57905,1.85083 -8.85868,2.7148 1.75398,0.88084 -1.27003,1.95523 -7.71294,2.74032 -5.82891,0.71028 -11.6312,0.77255 -12.89401,0.13837 -2.52402,-1.26757 -58.09465,6.118 -60.79039,8.07929 -1.30382,0.9486 36.20386,54.64628 57.5757,82.42798 3.83478,4.98487 0.47707,11.04977 36.2024,-65.39097 z M 388.6806,171.25697 c -1.56054,-0.51309 -4.67226,-0.54427 -6.91493,-0.0695 -2.24267,0.47486 -0.96586,0.89466 2.83736,0.93282 3.80322,0.0381 5.63811,-0.35036 4.07757,-0.86342 z m -231.36443,-9.98066 c 30.92387,-4.13632 56.59554,-7.52056 57.04818,-7.52056 4.72614,0 -19.58209,-24.51453 -67.44227,-68.014655 l -9.91952,-9.015853 -3.67726,7.142876 c -6.37919,12.391187 -40.301751,84.213092 -40.301751,85.328112 0,0.58609 1.815171,0.73599 4.033714,0.33316 2.218533,-0.40287 29.335057,-4.11674 60.258907,-8.25306 z m 206.54208,1.84179 c 26.62246,-4.10673 50.76925,-7.91565 53.65952,-8.46428 4.82524,-0.91594 2.39821,-4.05715 -29.67498,-38.40735 C 355.80885,81.938343 348.8759,75.60135 348.8759,80.629288 c 0,0.985954 -8.81653,19.864332 -19.5923,41.951922 -19.41195,39.78964 -22.28473,48.04426 -16.71107,48.0175 1.58468,-0.008 24.66324,-3.37389 51.28572,-7.48061 z m 74.91171,-73.04359 c 0,-57.924554 -0.14888,-59.935286 -4.44055,-59.935286 -4.8559,0 -73.71823,35.53689 -73.84837,38.109963 -0.0439,0.872796 15.27881,17.308175 34.05102,36.523063 18.77221,19.21489 36.14597,37.22748 38.60835,40.02799 2.46239,2.80052 4.73638,5.11832 5.05331,5.15069 0.31694,0.0322 0.57624,-26.91202 0.57624,-59.87642 z m -328.41451,11.23787 c 8.08543,-16.997277 15.01344,-31.918203 15.39553,-33.157614 0.70164,-2.275904 -34.709867,-37.669235 -37.913621,-37.894168 -0.950805,-0.06676 -1.655476,26.638794 -1.565922,59.345668 l 0.162783,59.467024 4.610195,-8.4284 c 2.535652,-4.63561 11.225595,-22.33524 19.311035,-39.33251 z m 106.2193,-61.305166 c -0.87245,-0.708946 -67.70087,24.662861 -70.10356,26.615239 -0.50306,0.408754 15.01161,15.685339 34.47699,33.947967 l 35.3916,33.20477 0.61723,-46.477884 C 217.29648,61.73447 217.12455,40.45393 216.57475,40.007214 Z M 327.89573,95.231538 341.4068,67.991372 328.75347,56.088964 c -6.95936,-6.546325 -13.57674,-12.703105 -14.70528,-13.681737 -1.20332,-1.043478 -2.05191,15.545402 -2.05191,40.112938 0,23.040745 0.53735,41.455595 1.19419,40.921895 0.65677,-0.53368 7.27417,-13.22843 14.70526,-28.210522 z M 174.8502,43.379734 211.72982,28.576464 159.17709,28.421352 c -43.89893,-0.129569 -52.24923,0.267496 -50.70948,2.411288 2.74936,3.827958 27.01729,27.167002 28.35049,27.265346 0.63386,0.04676 17.74831,-6.576459 38.0321,-14.718252 z m 205.50601,0.338575 26.83718,-14.515576 -22.2438,-0.53607 c -12.23411,-0.294836 -31.99467,-0.294836 -43.91234,0 l -21.6685,0.53607 15.1295,14.515576 c 8.32121,7.983568 16.00504,14.515577 17.07513,14.515577 1.07011,0 14.02238,-6.532009 28.78283,-14.515577 z"
       style="fill:#121212;fill-opacity:1;stroke-width:2.07777" />
    <path
       id="path2035"
       style="fill:#333333;fill-opacity:1;stroke-width:2.15695"
       d="m 148.29331,26.903814 c -8.86497,0.07058 -17.73568,0.07499 -26.59224,0.494833 -5.88082,0.367437 -11.76018,0.762007 -17.64034,1.141507 7.13024,6.929425 14.19133,13.932946 21.37326,20.807065 3.09298,2.866902 6.14201,5.836313 9.66208,8.167081 1.31037,0.844065 2.97875,1.563914 4.50074,0.839522 8.71756,-3.227152 17.35008,-6.687661 26.00779,-10.077046 14.53904,-5.747269 29.0732,-11.512628 43.59574,-17.300117 1.73568,-0.944977 3.47137,-1.889956 5.20706,-2.834934 -2.14136,-0.245984 -4.27264,-0.638182 -6.42045,-0.790542 -17.80311,-0.154228 -35.60548,-0.438782 -53.40947,-0.458238 -2.09473,0.0036 -4.18945,0.0072 -6.28417,0.01087 z" />
    <path
       id="path2888"
       style="fill:#333333;fill-opacity:1;stroke-width:2.15695"
       d="m 358.81696,27.048361 c -10.40447,0.07048 -20.81506,0.282641 -31.19114,1.111943 -3.54994,0.248005 -7.09988,0.495982 -10.64977,0.744923 7.23403,6.655971 14.39528,13.394043 21.68002,19.992799 3.60907,3.181421 7.18903,6.423172 11.10388,9.218551 0.8823,0.631058 2.00969,1.203072 3.08416,0.711613 3.5988,-1.424514 7.02142,-3.263457 10.49001,-4.980502 12.65384,-6.420882 25.09972,-13.250365 37.63545,-19.903801 3.03,-1.619394 6.06034,-3.238151 9.0906,-4.857051 -7.20996,-0.505567 -14.4117,-1.146342 -21.62819,-1.544713 -9.86341,-0.465096 -19.74231,-0.530136 -29.61502,-0.493762 z" />
    <path
       id="path2927"
       style="fill:#333333;fill-opacity:1;stroke-width:2.15695"
       d="m 135.61314,77.016948 c -6.15409,12.461779 -12.33595,24.908232 -18.31565,37.457412 -7.63445,15.99383 -15.24364,32.0023 -22.600092,48.12924 -0.762811,1.81205 -1.706442,3.56098 -2.247973,5.45907 0.0436,0.8393 0.450752,1.6481 1.216997,2.02362 1.570262,0.6333 3.310586,0.24827 4.948269,0.17887 9.020619,-0.88157 17.998139,-2.16397 26.988209,-3.31308 25.04302,-3.35179 50.10617,-6.57097 75.08285,-10.4026 4.44782,-0.72142 8.91943,-1.33918 13.3186,-2.33074 0.76505,-0.15565 1.48163,-0.56544 1.81469,-1.30641 0.42843,-0.41736 0.0436,-1.02156 -0.037,-1.51961 -0.85773,-1.69253 -2.27725,-3.00547 -3.50567,-4.42026 -6.9414,-7.45888 -14.23001,-14.57534 -21.51032,-21.69092 -10.25166,-9.9853 -20.70241,-19.75694 -31.25466,-29.414477 -7.61487,-7.014055 -15.24731,-14.008305 -22.78375,-21.109116 -0.37151,0.753001 -0.74303,1.506001 -1.11455,2.259001 z" />
    <path
       id="path2966"
       style="fill:#333333;fill-opacity:1;stroke-width:2.15695"
       d="m 348.53944,78.990564 c -9.90419,20.930803 -19.94219,41.798626 -29.59099,62.851466 -3.03692,6.74155 -6.15759,13.45657 -8.746,20.39239 -0.7721,2.15565 -1.53014,4.43138 -1.34702,6.75418 0.11501,1.53546 1.4929,2.71471 2.98279,2.73405 2.40868,0.004 4.79419,-0.46291 7.18362,-0.7327 20.20518,-2.78994 40.36087,-5.93424 60.51443,-9.08312 12.40987,-1.98089 24.83224,-3.89798 37.1979,-6.15177 1.16605,-0.28313 2.48821,-0.3372 3.47667,-1.04981 0.44348,-0.63218 0.67417,-1.40947 0.39747,-2.16428 -0.82156,-1.97837 -2.25589,-3.61686 -3.49549,-5.33561 -4.214,-5.42431 -8.92432,-10.42268 -13.51643,-15.51363 -11.71013,-12.78079 -23.58563,-25.409 -35.62413,-37.872816 -3.89196,-3.982915 -7.73058,-8.029032 -11.82655,-11.798435 -2.1668,-1.75519 -4.41544,-3.405806 -6.61414,-5.12028 -0.33072,0.696789 -0.66142,1.393577 -0.99213,2.090365 z" />
    <path
       id="path3005"
       style="fill:#333333;fill-opacity:1;stroke-width:2.15695"
       d="m 178.82822,454.32882 c -3.2326,0.2492 -6.11444,1.91431 -8.97963,3.30604 -8.4724,4.38202 -16.76752,9.09838 -25.10336,13.73849 -5.09386,2.88292 -10.23158,5.70225 -15.18147,8.83483 -0.81942,0.65781 -1.59623,1.60043 -1.68118,2.67856 -0.019,1.19334 0.18122,2.53676 1.20896,3.28095 1.43699,1.40519 3.56476,1.29032 5.41244,1.47187 9.57215,0.55688 19.16515,0.54111 28.7499,0.5987 16.96955,0.0603 33.93925,0.01 50.90888,0.0256 -2.59115,-3.58204 -5.02018,-7.28481 -7.68666,-10.80948 -5.01183,-5.66466 -10.59295,-10.77199 -16.16496,-15.85693 -2.51586,-2.22863 -5.03549,-4.48652 -7.81952,-6.36517 -1.10508,-0.64137 -2.3899,-0.97138 -3.6634,-0.90347 z" />
    <path
       id="path3044"
       style="fill:#333333;fill-opacity:1;stroke-width:2.15695"
       d="m 85.87566,356.5932 c -0.04693,44.22749 -0.09211,88.45499 -0.137033,132.6825 3.438196,-0.68226 6.945752,-0.99745 10.346976,-1.86175 5.861277,-1.80322 11.412027,-4.47432 16.976157,-7.03742 15.16811,-7.15705 29.93216,-15.15173 44.69389,-23.12358 4.14665,-2.30131 8.38024,-4.50027 12.20879,-7.33082 1.79407,-1.32515 3.33017,-3.45942 2.99797,-5.81853 -0.28158,-2.40561 -2.24484,-4.0062 -3.72252,-5.71349 -11.23094,-12.11636 -22.73491,-23.96899 -34.21648,-35.84054 -16.3745,-16.86559 -32.75829,-33.7199 -49.142268,-50.57631 -0.0018,1.53998 -0.0037,3.07996 -0.0055,4.61994 z" />
    <path
       id="path3083"
       style="fill:#333333;fill-opacity:1;stroke-width:2.15695"
       d="m 395.15226,449.55351 c -0.90849,0.14465 -1.67249,0.73665 -2.54335,1.02367 -19.32645,8.51134 -38.70962,16.89348 -57.95256,25.59554 -2.09527,0.94033 -4.00772,2.72386 -4.36479,5.11615 -0.55204,3.25527 2.05411,6.56198 5.27005,6.87184 3.91694,0.64204 7.9024,0.42913 11.854,0.51505 17.57357,0.0866 35.15074,0.0322 52.71909,-0.44276 5.95757,-0.14053 11.90182,-0.57691 17.84197,-1.04215 4.7273,-0.3503 9.45453,-0.7017 14.18194,-1.0504 -11.62892,-11.74786 -23.26054,-23.49295 -34.89054,-35.23969 -0.15474,-0.58758 -0.66272,-1.06183 -1.20027,-1.26639 -0.3052,-0.0378 -0.6075,-0.15516 -0.91554,-0.0808 z" />
    <path
       id="path3122"
       style="fill:#333333;fill-opacity:1;stroke-width:2.15695"
       d="m 436.64303,371.57784 c -1.50451,2.90293 -3.14036,5.74022 -4.38839,8.77141 -9.06652,20.37653 -18.27592,40.68734 -27.07267,61.18535 -0.4289,1.21417 -1.15043,2.44203 -0.84595,3.77304 0.36634,2.03819 1.8489,3.58615 3.0118,5.20225 6.54803,8.39088 14.00827,15.97594 21.1779,23.80801 4.00857,4.32678 8.01794,8.65276 12.02551,12.98047 0.2818,-21.79597 0.68097,-43.59212 0.58572,-65.39095 -0.0422,-14.40484 -0.26244,-28.80909 -0.47804,-43.21166 -0.33555,-4.27527 -0.67171,-8.55049 -1.00845,-12.82565 -1.00247,1.90257 -2.00495,3.80515 -3.00743,5.70773 z" />
    <path
       style="fill:#b8b8b8;fill-opacity:1;stroke-width:2.15695"
       d="M 200.00982,117.50854 C 173.60673,92.765737 148.10585,68.053233 148.10585,67.209198 c 0,-1.15881 64.40444,-26.187669 67.38629,-26.187669 1.19394,0 1.19242,77.589001 -0.002,85.057761 l -0.82537,5.16292 z"
       id="path3366" />
    <path
       id="path4626"
       style="fill:#b8b8b8;fill-opacity:1;stroke-width:2.15695"
       d="m 433.77793,29.225823 c -1.94417,0.292388 -3.7236,1.230891 -5.53653,1.956907 -9.2712,4.111862 -18.31665,8.722811 -27.36903,13.303163 -11.08456,5.691798 -22.14576,11.443234 -32.97531,17.622327 -2.37961,1.426101 -4.85925,2.731208 -7.01981,4.492512 -0.63166,0.506583 -1.00359,1.343245 -0.97893,2.132265 0.68517,1.53315 2.00798,2.634585 3.05602,3.906527 9.99401,10.945654 20.22741,21.665005 30.44163,32.396886 12.33421,12.89688 24.68141,25.78345 37.25333,38.44272 1.79601,1.74984 3.50075,3.61038 5.4381,5.20135 0.7077,0.55684 1.63426,0.23524 2.45929,0.32059 0.39878,-1.09562 0.6593,-2.22883 0.6395,-3.403 0.28726,-8.97113 0.26117,-17.94964 0.31319,-26.92468 0.0456,-24.787439 -0.01,-49.576265 -0.37182,-74.361347 -0.11938,-3.777227 -0.0518,-7.569914 -0.40547,-11.333572 -0.51575,-2.156955 -2.75958,-3.854069 -4.94416,-3.752648 z" />
    <path
       id="path4665"
       style="fill:#b8b8b8;fill-opacity:1;stroke-width:2.15695"
       d="m 212.77762,164.68436 c -5.57424,0.31532 -11.1128,1.08141 -16.65779,1.71788 -25.61201,3.17605 -51.18237,6.70145 -76.75703,10.1757 -5.65601,0.81336 -11.33021,1.56524 -16.92015,2.77367 -0.87457,0.20479 -1.90495,0.52706 -2.19816,1.4916 -0.461429,1.30062 0.38304,2.60294 0.95973,3.72715 2.82895,4.91797 6.15246,9.52027 9.37806,14.17402 11.46812,16.1948 23.40897,32.03806 35.41549,47.82419 6.21713,8.1524 12.45807,16.28846 18.68474,24.43524 2.96622,-5.27719 5.96199,-10.53826 8.70759,-15.93841 10.08376,-19.51386 19.92691,-39.15401 29.73545,-58.8116 3.85515,-7.81498 7.7951,-15.59069 11.45178,-23.5045 0.74135,-1.8922 1.37975,-3.93577 1.19492,-5.99496 -0.12729,-1.08283 -0.98441,-2.05105 -2.10126,-2.0477 -0.2968,-0.0318 -0.59543,-0.0241 -0.89337,-0.0223 z" />
    <path
       id="path4704"
       style="fill:#b8b8b8;fill-opacity:1;stroke-width:2.15695"
       d="m 404.94973,167.31769 c -3.07499,0.0792 -6.3506,0.80701 -8.61483,3.06143 -2.07041,0.96402 -4.37476,1.24673 -6.59771,1.66228 -0.81948,0.11602 -1.48989,0.22635 -2.24656,0.31273 -2.96129,0.32459 -5.96707,0.68726 -8.94036,0.32862 -2.47255,-0.55235 -5.03062,-0.25154 -7.53532,-0.14872 -10.07692,0.7041 -20.09751,2.05801 -30.09363,3.50374 -6.73599,1.0313 -13.48723,2.05275 -20.12317,3.63623 -1.4396,0.43962 -3.08369,0.65251 -4.21857,1.73326 -0.91881,0.86584 -0.60015,2.25762 -0.0574,3.24247 1.97099,3.80721 4.42588,7.32936 6.75577,10.9146 9.61572,14.3831 19.67181,28.45778 29.74078,42.51536 6.71851,9.30741 13.41161,18.63392 20.2688,27.8368 0.65096,0.80479 1.23534,1.78369 2.03412,2.39097 0.75319,0.0394 1.56777,0.0532 2.1259,-0.54943 1.29245,-1.38009 2.04447,-3.17728 2.9803,-4.80862 4.90102,-9.4369 9.41544,-19.07381 13.99651,-28.67307 7.49864,-15.88566 15.05094,-31.7498 22.11119,-47.84251 1.82485,-4.27947 3.76419,-8.52531 5.19966,-12.96047 0.33219,-0.99328 0.47333,-2.21485 -0.26631,-3.04601 -0.92126,-0.71132 -2.14119,-0.75105 -3.20988,-1.12741 -4.34863,-1.11576 -8.79981,-2.07568 -13.30926,-1.98225 z" />
    <path
       id="path4743"
       style="fill:#b8b8b8;fill-opacity:1;stroke-width:2.15695"
       d="m 434.41011,177.03197 c -2.55583,4.98155 -5.00334,10.0182 -7.32943,15.11433 -10.96595,23.72717 -21.77331,47.53154 -32.50138,71.37058 -2.11785,4.79113 -4.33245,9.54177 -6.30924,14.39479 -0.80768,1.9372 -1.53892,4.16782 -0.69291,6.22479 0.97554,2.41134 2.65771,4.43155 4.09641,6.56594 6.42348,8.89276 13.09032,17.60174 19.72992,26.3289 7.2412,9.43992 14.44772,18.91333 22.0573,28.05411 1.7745,2.16211 3.54897,4.32423 5.32344,6.48636 0.14301,-34.62111 0.34235,-69.24202 0.44029,-103.86328 0.0159,-19.01452 0.0457,-38.03051 -0.2354,-57.04336 -0.0915,-3.24419 -0.0142,-6.51233 -0.59204,-9.71825 -0.43404,-3.08034 -0.86854,-6.16061 -1.30294,-9.24091 -0.89467,1.77534 -1.78934,3.55066 -2.68402,5.326 z" />
    <path
       id="path4782"
       style="fill:#b8b8b8;fill-opacity:1;stroke-width:2.15695"
       d="m 212.03216,203.16336 c -13.12203,26.60842 -26.24647,53.21564 -39.36699,79.82483 8.58994,11.68087 17.3289,23.24871 26.03091,34.84425 4.5327,5.94922 9.03029,11.93465 13.84724,17.65216 0.59058,0.62427 1.16585,1.43763 2.00902,1.66384 0.64358,0.0248 1.28711,0.0509 1.93067,0.0761 0.33277,-1.19135 0.5288,-2.40699 0.48855,-3.6481 0.10954,-12.59619 -0.0614,-25.19304 -0.16829,-37.7888 -0.34313,-30.63297 -0.81659,-61.26435 -1.23038,-91.89635 -0.0938,-2.30276 -0.18744,-4.60553 -0.28116,-6.90829 -1.08653,2.06009 -2.17306,4.12019 -3.25957,6.18029 z" />
    <path
       id="path4821"
       style="fill:#b8b8b8;fill-opacity:1;stroke-width:2.15695"
       d="m 110.7242,358.01336 c -0.9166,-0.0321 -1.85318,0.5087 -2.07503,1.44648 -0.42496,1.42488 0.70414,2.654 1.49547,3.70583 3.97209,4.75633 8.31373,9.17713 12.56131,13.67755 12.86436,13.43377 25.8437,26.75379 38.82571,40.07043 6.1489,6.22386 12.24932,12.50318 18.6074,18.50864 0.68641,0.58967 1.40334,1.40664 2.34212,1.43727 1.52762,-0.12052 2.31063,-1.6325 3.15674,-2.7246 3.8422,-5.55676 7.29323,-11.37878 10.80359,-17.15371 6.45354,-10.7919 12.81391,-21.6479 18.76423,-32.73505 1.09491,-2.19412 2.37942,-4.32565 3.10438,-6.68387 0.36811,-1.97172 -1.29158,-3.70167 -3.00378,-4.32527 -3.01445,-0.84847 -6.12927,-1.26899 -9.20321,-1.83742 -18.54685,-3.09417 -37.15395,-5.79815 -55.76702,-8.44757 -11.78383,-1.63748 -23.56531,-3.31785 -35.38922,-4.63086 -1.4046,-0.12755 -2.8108,-0.31067 -4.22269,-0.30785 z" />
    <path
       id="path4860"
       style="fill:#b8b8b8;fill-opacity:1;stroke-width:2.15695"
       d="m 326.98681,355.41523 c -0.62538,0.0155 -1.34953,0.23843 -1.73274,0.73069 -0.47264,0.70299 -0.53146,1.60151 -0.14041,2.35728 1.2075,2.13764 2.89595,3.94513 4.43013,5.84178 8.22464,9.65669 16.83427,18.96688 25.40779,28.30053 10.50523,11.36573 21.06392,22.6269 31.40971,34.14229 2.15807,2.39522 4.24227,4.93305 6.69029,7.06053 0.44166,0.36175 1.00898,0.46638 1.52563,0.67456 0.75914,-0.3655 1.45578,-0.8578 1.83128,-1.64735 2.59589,-4.64949 4.8388,-9.49159 7.17077,-14.28036 5.27569,-11.07351 10.49427,-22.17873 15.35242,-33.44862 1.58484,-3.74665 3.09788,-7.55525 4.041,-11.52663 0.25982,-1.04756 0.28355,-2.42755 -0.69533,-3.0869 -1.42054,-0.77873 -3.08295,-0.90653 -4.63353,-1.28965 -10.35817,-2.01991 -20.78044,-3.68402 -31.19444,-5.37876 -17.01865,-2.71427 -34.04985,-5.36777 -51.13401,-7.62667 -2.76933,-0.31774 -5.53899,-0.7629 -8.32856,-0.82272 z" />
    <path
       id="path5023"
       style="fill:#5d5d5d;fill-opacity:1;stroke-width:2.15695"
       d="m 85.804403,27.413689 c -0.528356,3.300674 -1.282456,6.568556 -1.630263,9.896003 -0.488575,10.351325 -0.532411,20.720596 -0.652702,31.082687 -0.158962,20.314788 -0.22178,40.632251 0.056,60.946241 0.121933,5.10024 0.09867,10.222 0.704983,15.29296 0.221811,1.79144 1.485286,3.53703 3.330827,3.79527 1.828243,0.38089 3.561816,-0.90753 4.334045,-2.52112 5.366107,-9.91484 10.225487,-20.10104 15.200087,-30.22126 7.62789,-15.64161 14.93787,-31.440475 22.29397,-47.21589 -3.12484,-3.965341 -6.10085,-8.073402 -9.66969,-11.652189 -10.04071,-10.619474 -20.739821,-20.559024 -31.172016,-30.76998 -0.727109,-0.704319 -1.45422,-1.408637 -2.181329,-2.112955 -0.204636,1.160078 -0.409274,2.320156 -0.61391,3.480233 z" />
    <path
       id="path5432"
       style="fill:#5d5d5d;fill-opacity:1;stroke-width:2.15695"
       d="m 90.437962,190.88184 c -2.130902,0.13836 -3.752553,2.20218 -3.724451,4.31069 -0.48265,6.63459 -0.481931,13.29262 -0.623569,19.94088 -0.484164,32.58906 -0.283692,65.18273 -0.3431,97.77415 -0.0028,7.63044 -0.0045,15.26089 -0.0082,22.89133 17.642608,-12.95204 35.460738,-25.66325 52.824708,-39.0007 4.52338,-3.54581 9.14581,-7.00209 13.2567,-11.04503 1.39621,-1.37209 2.27915,-3.4117 1.77612,-5.3883 -0.55977,-2.92457 -2.22492,-5.4529 -3.65526,-8.00114 -4.77959,-8.07458 -10.065,-15.82342 -15.21608,-23.65529 -9.73705,-14.67499 -19.53076,-29.31946 -29.84539,-43.58506 -2.98263,-4.04105 -5.965043,-8.10969 -9.413289,-11.76015 -1.323044,-1.34629 -3.043015,-2.68229 -5.028216,-2.48138 z" />
    <path
       id="path5471"
       style="fill:#5d5d5d;fill-opacity:1;stroke-width:2.15695"
       d="m 161.06685,290.49471 c -13.95126,9.70698 -27.94881,19.34999 -41.58805,29.5076 -7.57513,5.60699 -15.14619,11.236 -22.379183,17.29393 -1.32906,1.19293 -2.817502,2.59562 -2.879077,4.52385 0.03668,1.73992 1.361007,3.28185 2.982236,3.7722 3.299634,1.01989 6.699624,1.67101 10.066614,2.42131 17.14119,3.52378 34.35289,6.69255 51.57488,9.78443 15.25845,2.6974 30.52567,5.35784 45.84629,7.66683 3.45725,0.46773 6.90856,1.07116 10.39632,1.23766 1.72791,0.0571 3.7018,-0.46473 4.59238,-2.10826 0.67472,-1.07067 0.76278,-2.43598 0.23953,-3.59168 -0.7042,-1.64513 -1.92229,-2.98953 -2.92808,-4.44658 -6.74739,-9.05327 -13.86101,-17.81752 -20.94286,-26.60085 -11.06412,-13.5896 -22.4521,-26.90025 -33.5796,-40.43706 -0.46714,0.32554 -0.93427,0.65108 -1.4014,0.97662 z" />
    <path
       id="path5510"
       style="fill:#5d5d5d;fill-opacity:1;stroke-width:2.15695"
       d="m 311.18776,206.38415 c -0.0267,40.73862 -0.0567,81.47724 -0.084,122.21586 7.48673,-5.45685 14.95837,-10.93579 22.30744,-16.58179 9.8217,-7.52422 19.63681,-15.06282 29.26333,-22.84378 2.8292,-2.30982 5.52306,-4.78349 8.28547,-7.17397 -16.98561,-23.30971 -33.86647,-46.69814 -51.01104,-69.88738 -2.74276,-3.7983 -5.80996,-7.3351 -8.7575,-10.96782 -9.3e-4,1.74629 -0.003,3.49259 -0.004,5.23888 z" />
    <path
       id="path5549"
       style="fill:#5d5d5d;fill-opacity:1;stroke-width:2.15695"
       d="m 376.44128,292.10575 c -10.09433,7.0571 -20.21001,14.08424 -30.13075,21.39135 -10.04984,7.37429 -20.08778,14.77268 -29.90013,22.47145 -1.22221,1.06484 -2.65943,1.94124 -3.6205,3.27226 -0.39098,0.59426 -0.15423,1.39914 -0.2723,2.0846 -0.092,0.62601 0.9416,0.40987 1.3443,0.66576 3.74681,0.81737 7.54358,1.39149 11.31691,2.07335 33.82055,5.81923 67.693,11.33635 101.53733,17.01581 1.29956,0.24312 2.52402,-0.98777 2.36702,-2.30199 -0.25312,-1.81121 -1.37126,-3.34348 -2.2346,-4.90584 -3.91404,-6.36721 -8.30521,-12.41651 -12.70755,-18.44196 -7.82917,-10.60404 -15.87948,-21.05291 -24.48669,-31.02137 -3.91832,-4.44919 -7.91513,-8.8271 -11.8701,-13.24298 -0.44765,0.31319 -0.89528,0.62637 -1.34294,0.93956 z" />
    <path
       id="path5588"
       style="fill:#5d5d5d;fill-opacity:1;stroke-width:2.15695"
       d="m 310.54299,365.10846 c -0.55514,1.3228 -0.9534,2.71751 -0.93366,4.16776 -0.3836,18.40034 -0.3471,36.80754 -0.3673,55.21153 0.048,15.88516 0.071,31.77608 0.66146,47.65178 0.13123,1.66561 0.10875,3.3851 0.60478,4.99056 0.47787,1.26424 1.64802,2.2818 2.95993,2.51844 1.57611,0.10941 3.00354,-0.7654 4.4496,-1.27639 8.8327,-3.67153 17.54245,-7.63996 26.28998,-11.51351 12.85767,-5.76358 25.71738,-11.52529 38.44913,-17.5703 1.06988,-0.58615 2.23172,-1.0639 3.16862,-1.85511 0.75183,-0.74883 0.87954,-1.89335 1.03495,-2.87998 -0.47586,-2.25164 -2.21046,-3.85216 -3.57345,-5.5787 -7.39811,-8.7437 -15.06301,-17.24853 -22.70529,-25.77184 -13.2846,-14.76516 -26.62273,-29.48346 -40.29987,-43.87612 -1.49273,-1.50515 -2.95155,-3.06569 -4.59921,-4.39603 -1.30981,-0.79245 -2.88091,-0.88391 -4.29441,-1.41317 -0.5322,-0.1114 -0.4749,0.9642 -0.75866,1.35304 -0.0289,0.0794 -0.0577,0.15869 -0.0866,0.23804 z" />
    <path
       id="path5746"
       style="fill:#5d5d5d;fill-opacity:1;stroke-width:2.15695"
       d="m 211.84031,414.08439 c -5.80671,9.91213 -11.81067,19.70791 -17.33931,29.78398 -0.66921,1.36873 -1.56419,2.65915 -1.9075,4.1659 0.18982,1.57176 1.48227,2.64448 2.38723,3.82773 5.36822,6.14613 11.23952,11.81061 16.90327,17.671 1.10432,1.12718 2.20846,2.25454 3.31272,3.38179 0.27877,-11.03642 0.6901,-22.07239 0.60038,-33.11447 -0.0201,-10.44197 -0.41856,-20.87782 -0.64606,-31.31617 -1.10358,1.86674 -2.20715,3.73349 -3.31073,5.60024 z" />
    <path
       id="path5907"
       style="fill:#5d5d5d;fill-opacity:1;stroke-width:2.15695"
       d="m 314.51696,41.928596 c -2.25436,0.0607 -4.19634,2.106148 -4.2791,4.373455 -0.0664,0.636034 -0.16888,1.573634 -0.22155,2.329881 -0.41066,5.944919 -0.4715,11.908108 -0.5925,17.865039 -0.2603,17.171043 -0.0976,34.344569 -0.14461,51.516789 7e-4,6.24329 0.002,12.48659 9.3e-4,18.72989 4.93696,-9.05463 10.04117,-18.01745 14.78004,-27.18133 6.35576,-12.550686 12.70184,-25.111459 18.58745,-37.897289 0.43044,-1.049944 0.92911,-2.151822 1.00782,-3.279673 -0.24418,-2.1568 -1.93556,-3.630423 -3.29359,-5.133554 -5.61296,-5.826125 -11.49324,-11.386027 -17.5612,-16.72058 -2.02445,-1.705346 -4.07292,-3.565554 -6.61898,-4.402946 -0.53923,-0.163532 -1.10407,-0.213285 -1.66503,-0.199682 z" />
    <rect
       style="fill:#191919;fill-opacity:1;stroke-width:1.75534"
       id="rect9101"
       width="103.56299"
       height="5.3531504"
       x="301.88318"
       y="203.07996"
       ry="2.6765752"
       transform="matrix(0.99545483,-0.09523486,0.11760401,0.99306057,0,0)" />
    <path
       style="fill:#0023e1;fill-opacity:1;stroke-width:1.5252"
       d="m 92.942399,154.72465 v -9.75908 l 4.273124,-8.12345 c 2.350218,-4.46789 10.541357,-21.31873 18.202517,-37.446316 11.80284,-24.846237 14.66648,-30.174396 18.75745,-34.900493 2.65543,-3.067689 5.4424,-5.796479 6.19327,-6.063977 9.07889,-3.234323 67.7993,-26.598376 72.26581,-28.75358 0.58458,-0.282078 1.3339,1.471878 1.94301,4.548108 0.5453,2.75399 0.89432,5.10543 0.77559,5.225423 -0.11873,0.119994 -7.21078,2.769596 -15.7601,5.888006 -25.83703,9.424186 -48.06927,18.174566 -53.39773,21.016793 -2.77084,1.477985 -6.36956,4.335511 -7.99713,6.350058 -2.80735,3.474839 -18.47825,35.181068 -36.32596,73.496658 -4.479336,9.61627 -8.321007,17.6634 -8.537048,17.88252 -0.216042,0.21913 -0.392803,-3.99318 -0.392803,-9.36067 z"
       id="path9737" />
    <path
       style="fill:#0023e1;fill-opacity:1;stroke-width:1.5252"
       d="m 309.70594,149.46724 -0.008,-12.53481 6.36761,-11.55185 c 3.50218,-6.35351 11.25404,-21.45993 17.22636,-33.569819 15.13391,-30.686562 13.97547,-29.474481 42.03721,-43.983353 12.11155,-6.262077 24.39926,-12.695441 27.306,-14.296364 5.18561,-2.856023 5.45927,-2.905558 14.55018,-2.633736 l 9.26516,0.277034 -18.86802,9.434529 c -21.84118,10.921195 -40.13445,20.866403 -46.96508,25.532764 -6.73825,4.603241 -10.58021,9.255131 -14.97683,18.134104 -6.05208,12.222218 -27.17155,57.509171 -31.75438,68.091661 l -4.17237,9.63466 -0.008,-12.53482 z"
       id="path14872" />
    <path
       style="fill:#0023e1;fill-opacity:1;stroke-width:1.5252"
       d="m 91.386668,337.46573 c -1.51916,-0.97558 -2.76211,-2.08189 -2.76211,-2.45846 0,-0.3766 10.200899,-8.17823 22.668662,-17.33698 28.99475,-21.29936 35.2227,-26.1703 42.09895,-32.92601 11.16759,-10.97182 13.24704,-14.5579 43.51945,-75.05071 l 17.72984,-35.4292 0.24792,10.7735 0.24791,10.7735 -21.35053,43.24565 c -15.64659,31.69225 -21.82426,43.39814 -23.12369,43.81645 -0.97523,0.31394 -3.47116,2.01892 -5.54652,3.78883 -2.07535,1.76993 -10.88036,8.14486 -19.56667,14.16653 -16.07705,11.14517 -40.35882,29.09691 -47.470558,35.0954 l -3.930543,3.31526 z"
       id="path15028" />
    <path
       style="fill:#0023e1;fill-opacity:1;stroke-width:1.07848"
       d="m 313.04748,333.43419 c -0.37304,-2.1727 -0.67825,-4.25361 -0.67825,-4.62426 0,-0.37064 2.54176,-2.55543 5.64837,-4.85507 28.12535,-20.81964 51.64702,-39.53467 54.30499,-43.2078 2.23466,-3.08813 3.95083,-6.94091 4.51176,-10.12876 0.22719,-1.2912 0.9007,-2.90504 1.49671,-3.58632 3.07432,-3.51418 41.52263,-85.32405 43.10488,-91.71808 0.20758,-0.83887 0.82669,-1.76474 1.3758,-2.05749 0.84206,-0.44893 13.51638,-1.28747 13.51638,-0.89425 0,0.0731 -2.17377,4.54223 -4.8306,9.93133 -7.68611,15.59053 -43.40955,94.19333 -43.40955,95.51465 0,0.31306 -1.67251,2.19703 -3.71667,4.18662 -2.04416,1.98958 -4.54329,4.90959 -5.5536,6.48891 -1.35022,2.11066 -3.80362,4.23662 -9.25933,8.02359 -12.21785,8.48073 -27.99379,19.97562 -41.92327,30.54675 -7.22075,5.47985 -13.30431,10.04598 -13.519,10.14695 -0.21469,0.10097 -0.69557,-1.59409 -1.06862,-3.76677 z"
       id="path15323" />
    <path
       style="fill:#0023e1;fill-opacity:1;stroke-width:1.07848"
       d="m 124.599,474.9569 c 17.81922,-8.9856 40.20213,-21.04729 44.09119,-23.75981 1.41243,-0.98513 2.92374,-2.29016 3.35849,-2.90007 0.43477,-0.6099 2.10502,-2.01845 3.71167,-3.1301 1.60665,-1.11164 3.9323,-3.3948 5.16808,-5.07368 1.23579,-1.67887 2.45687,-3.05251 2.71352,-3.05251 1.15768,0 17.53545,-26.7534 28.81496,-47.06981 3.01514,-5.43078 4.644,-7.84336 4.64765,-6.88383 0.003,0.81249 -0.70539,7.17608 -1.5744,14.1413 l -1.58004,12.66406 -7.76467,13.10963 c -4.27057,7.2103 -8.70784,14.85398 -9.8606,16.98594 -2.03512,3.7638 -2.34429,4.02664 -10.6536,9.05668 -4.70671,2.8492 -9.24462,5.3832 -10.08424,5.63109 -3.83721,1.13291 -43.76539,23.27996 -46.40127,25.73751 -1.27215,1.18609 -2.33106,1.56355 -4.35506,1.55243 -1.47082,-0.009 -5.69686,0.21297 -9.39121,0.49121 l -6.71698,0.50592 z"
       id="path15581" />
    <path
       style="fill:#0023e1;fill-opacity:1;stroke-width:1.07848"
       d="m 320.00217,477.93383 c 0.6717,-0.32152 9.32745,-4.17944 19.235,-8.57318 9.90755,-4.39373 24.3338,-10.88258 32.05833,-14.41965 13.73308,-6.28839 14.13942,-6.52755 18.31905,-10.78228 4.13554,-4.20982 4.54207,-4.91445 12.50997,-21.6826 11.94283,-25.13331 18.04986,-38.89341 19.97799,-45.01353 l 1.69682,-5.38593 3.97451,-0.35718 c 2.18599,-0.19645 5.00497,-0.46362 6.2644,-0.5937 1.25943,-0.1301 2.28988,-0.16369 2.28988,-0.0747 0,0.089 -1.62565,3.61596 -3.61253,7.83763 -3.38504,7.19242 -19.90515,44.31713 -25.65419,57.65122 -2.48496,5.76352 -2.76733,6.13927 -7.09756,9.44493 -2.48032,1.89345 -4.74231,3.44263 -5.02668,3.44263 -0.89777,0 -57.50966,24.99317 -60.96995,26.9172 -1.96455,1.09234 -3.92188,1.4876 -8.8542,1.788 -4.14783,0.25262 -5.91082,0.184 -5.11084,-0.1989 z"
       id="path15737" />
    <g
       aria-label="Z"
       id="text21118"
       style="font-size:85.3333px;line-height:1.25;white-space:pre;shape-inside:url(#rect21120);fill:#ffffff"
       transform="matrix(0.4960589,0,0,0.5775918,229.47744,275.2055)">
      <path
         d="m -241.41676,291.14472 h 29.52532 q 2.304,0 3.072,-2.64533 h 1.36533 v 14.67733 h -1.36533 q -0.768,-2.64533 -3.072,-2.64533 h -49.66398 v -2.90134 l 33.02399,-44.62931 h -28.41599 q -2.304,0 -2.98667,2.64533 h -1.36533 v -14.67733 h 1.36533 q 0.68267,2.64534 2.98667,2.64534 h 48.98131 v 2.38933 z"
         style="font-family:Copperplate-Gothic;-inkscape-font-specification:Copperplate-Gothic"
         id="path23246" />
    </g>
  </g>
</svg>
