<?xml version="1.0" encoding="UTF-8" standalone="no"?>
<!-- Created with Inkscape (http://www.inkscape.org/) -->

<svg
   version="1.1"
   id="svg870"
   width="512"
   height="512"
   viewBox="0 0 512 512"
   sodipodi:docname="maskprocessor.svg"
   inkscape:version="1.1.2 (0a00cf5339, 2022-02-04)"
   xmlns:inkscape="http://www.inkscape.org/namespaces/inkscape"
   xmlns:sodipodi="http://sodipodi.sourceforge.net/DTD/sodipodi-0.dtd"
   xmlns="http://www.w3.org/2000/svg"
   xmlns:svg="http://www.w3.org/2000/svg">
  <defs
     id="defs874" />
  <sodipodi:namedview
     id="namedview872"
     pagecolor="#505050"
     bordercolor="#eeeeee"
     borderopacity="1"
     inkscape:pageshadow="0"
     inkscape:pageopacity="0"
     inkscape:pagecheckerboard="0"
     showgrid="false"
     inkscape:zoom="0.65478514"
     inkscape:cx="289.40791"
     inkscape:cy="272.60851"
     inkscape:window-width="1366"
     inkscape:window-height="695"
     inkscape:window-x="0"
     inkscape:window-y="24"
     inkscape:window-maximized="1"
     inkscape:current-layer="g876" />
  <g
     inkscape:groupmode="layer"
     inkscape:label="Image"
     id="g876">
    <g
       id="g20331"
       transform="matrix(0.9617097,0,0,0.97821178,9.8075536,5.5697885)">
      <path
         id="path2528-3"
         style="fill:#ffffff;stroke-width:1.01527"
         d="m 188.0625,2.6835938 c -16.09106,0.089618 -32.19111,-0.010943 -48.2718,0.6261561 -7.27629,0.5172627 -14.28816,2.9173275 -20.8532,5.9968907 -9.06329,4.3891784 -17.09517,10.9883884 -22.874681,19.2604674 -3.199318,4.315915 -5.747027,9.214555 -6.73326,14.534002 -1.474433,7.013941 -1.495959,14.215947 -1.748884,21.348126 -0.326942,14.976778 -0.204815,29.958394 -0.318588,44.937424 -0.05788,12.45242 -0.128429,24.90546 -0.392946,37.35553 -5.380124,0.4333 -10.894199,0.90477 -15.911653,3.04168 -3.97078,1.93378 -7.300578,4.89469 -10.782519,7.56029 -8.255153,6.60589 -16.241634,13.55464 -23.879087,20.86649 -3.036992,2.97002 -6.149791,6.13377 -7.588172,10.2267 -1.621006,4.18567 -1.654136,8.73434 -1.889104,13.15351 -0.241704,8.30973 -0.18842,16.62537 -0.242399,24.93797 -0.02224,13.40907 -0.05152,26.81913 0.100581,40.22742 0.104529,4.98133 0.241004,9.98755 1.024752,14.91528 0.553885,2.99079 1.53235,5.92441 3.038694,8.57066 -1.854345,3.01941 -3.026602,6.45708 -3.28125,9.99804 -0.604669,5.92849 -0.550548,11.89764 -0.694374,17.84917 -0.225587,16.33149 -0.125665,32.66518 -0.170988,48.99771 -0.02914,40.17604 -0.0048,80.35208 1.28e-4,120.52812 3.175824,4.69394 5.969725,9.86131 10.575292,13.34672 4.427544,3.68468 9.558475,6.80348 15.287218,7.86761 4.14419,0.5164 8.328978,0.20147 12.491775,0.33403 51.670545,0.26279 103.341955,0.15652 155.012895,0.11691 24.48792,-0.047 48.97662,-0.0577 73.46341,-0.31277 6.27315,-0.11036 12.56287,-0.18003 18.80613,-0.84273 3.8472,-0.57024 7.50895,-2.21106 10.51704,-4.67318 6.19471,-4.52025 11.97485,-9.57322 17.78755,-14.5662 5.66244,-4.96942 11.29353,-9.99751 16.48447,-15.46374 2.87392,-3.25536 4.87304,-7.29437 5.53712,-11.59751 0.95711,-5.23013 0.83814,-10.57095 1.0831,-15.86225 0.1803,-6.6652 0.27121,-13.33255 0.46963,-19.99728 22.80955,-0.20896 45.63284,0.54668 68.43164,-0.41404 17.78645,-1.3826 34.86761,-11.01078 44.88418,-25.83259 4.76929,-7.11199 7.71128,-15.54933 7.83066,-24.1479 0.15655,-3.83383 0.20248,-7.87334 0.16021,-11.78825 -0.1257,-9.59849 -0.5969,-19.16543 -0.85704,-28.74257 -0.0256,-0.79179 -0.0503,-1.5836 -0.0747,-2.37543 -8.19989,-3.46801 -16.0961,-7.65575 -24.49024,-10.65595 -5.38622,-1.73272 -11.37086,-1.55964 -16.61791,0.57969 -2.79844,1.00471 -5.46556,2.34573 -8.29225,3.27548 -5.57572,-1.87325 -10.88874,-4.89515 -16.86432,-5.28822 -4.72685,-0.15891 -9.14489,1.82002 -13.45667,3.49554 -1.59014,0.6445 -3.14596,1.38902 -4.80205,1.85518 -0.47635,-0.19062 -1.1732,-0.31226 -1.46776,-0.67812 -0.33435,-32.40234 -0.30143,-64.80692 -0.34589,-97.21055 -0.0322,-46.01624 0.0892,-92.0327 -0.0584,-138.048774 -0.0839,-12.917037 -0.17591,-25.845974 -1.02396,-38.739153 -0.49179,-6.079757 -1.21437,-12.355653 -4.11374,-17.825355 -1.58626,-2.964639 -3.83112,-5.569611 -5.91947,-8.086063 -3.89722,-4.773528 -8.47686,-9.019799 -13.72733,-12.27004 C 367.22608,9.1889622 360.46809,6.5612617 353.69005,4.1903763 351.42876,3.2789407 348.98727,2.7939544 346.54649,2.9672171 293.71856,2.8405074 240.89065,2.6562573 188.0625,2.6835938 Z m 75.21875,31.5136722 c 6.84766,0.02066 13.69542,0.02213 20.54297,0.06836 -1.88742,3.392437 -3.18856,7.13382 -3.52018,11.015711 -0.60344,5.52199 -0.62463,11.085057 -0.83033,16.630563 -0.11968,4.242803 -0.19256,8.486751 -0.25887,12.730679 -2.44998,-2.040664 -5.55669,-3.172999 -8.71654,-3.439825 -5.7309,-0.756444 -11.52667,-0.534711 -17.29123,-0.679022 -14.60856,-0.106521 -29.21854,-0.09808 -43.82668,0.04449 -3.77837,0.05993 -7.56728,0.171614 -11.31398,0.697405 -6.42035,-8.985733 -16.4823,-14.916975 -27.11088,-17.494277 -9.63123,-2.35471 -19.99682,-2.061044 -29.31407,1.451131 -6.48196,2.403952 -12.59884,5.998231 -17.52416,10.882024 -1.59258,1.601262 -3.04973,3.339876 -4.32824,5.202138 0.0404,-7.065756 0.0807,-14.131511 0.1211,-21.197266 1.70052,-3.392165 3.82401,-6.665961 6.83597,-9.039316 3.27602,-2.79132 7.25694,-4.638835 11.19518,-6.21797 1.08901,-0.599273 2.34997,-0.23391 3.52938,-0.336725 40.60348,-0.123231 81.20692,-0.26243 121.81056,-0.318098 z m 76.60742,0.794922 c 5.6097,-0.038 11.3259,1.565076 15.78316,5.037631 4.2188,2.99298 7.85426,7.006797 9.72856,11.88229 0.56448,0.72008 0.22477,1.644743 0.31905,2.480071 0.31356,91.53143 0.55549,183.06321 1.00982,274.59408 0.13649,16.36189 0.16874,32.72996 0.80411,49.08189 0.24241,4.69333 0.52277,9.55144 2.59762,13.85651 0.49321,1.1128 1.05351,2.19533 1.64831,3.25698 -2.51631,-0.0209 -5.06343,-0.0539 -7.50782,-0.13476 -0.52971,-34.01859 -0.52202,-68.04219 -0.70987,-102.06363 -0.0274,-6.57189 -0.0569,-13.14378 -0.0831,-19.71567 -1.414,-1.98584 -2.86865,-3.94235 -4.26954,-5.9375 2.11216,-3.39315 3.36978,-7.2727 3.81364,-11.2368 0.99283,-7.05174 0.79429,-14.19326 0.94303,-21.29438 0.1178,-15.26666 0.0836,-30.53465 -0.0471,-45.80099 -0.10014,-6.21326 -0.23507,-12.46066 -1.25424,-18.60279 -1.00872,-5.18126 -3.4827,-10.17164 -7.47563,-13.6951 -3.82612,-3.77714 -8.2912,-7.14886 -13.55385,-8.57868 -5.80076,-1.69398 -11.89751,-1.70508 -17.88329,-2.00817 -3.88391,-0.14885 -7.77054,-0.21307 -11.65586,-0.32215 -0.1155,-25.80879 -0.39161,-51.618144 -0.23293,-77.42716 0.063,-4.174393 0.12607,-8.232038 0.48847,-12.410785 0.20295,-2.461423 0.45632,-4.977858 1.57477,-7.221188 1.52303,-3.341146 3.97755,-6.233259 7.04399,-8.256835 5.55992,-3.674297 12.28477,-5.451802 18.91867,-5.482864 z M 160.33398,84.083984 c 3.87431,0.449588 7.84117,2.011988 10.33985,5.117188 1.82366,2.451947 2.16324,5.995915 0.50195,8.621094 -2.00847,3.414604 -5.96228,5.194754 -9.79555,5.509614 -0.50436,0.0274 -1.59328,0.31345 -0.78062,-0.38071 3.69795,-4.858666 3.95068,-11.928094 0.81751,-17.131195 -0.3554,-0.609344 -0.75155,-1.196553 -1.19446,-1.745756 l 0.0996,0.0087 z M 278.4375,153.05859 c -52.92578,0.13933 -105.85156,0.27865 -158.77734,0.41797 -0.17298,-12.63533 -0.1179,-25.27217 -0.0801,-37.9082 4.56803,6.74543 11.00723,12.20697 18.44869,15.53519 15.61994,7.13496 34.90316,5.59034 49.08451,-4.14066 4.13402,-2.83393 7.79218,-6.36996 10.71875,-10.44141 4.29307,0.66633 8.65451,0.45511 12.98241,0.56084 2.39452,0.0126 4.78905,0.0185 7.18361,0.0134 0.55062,4.10346 2.46838,8.11016 5.75289,10.71382 3.17695,2.63108 7.30418,3.74975 11.35007,4.06466 4.97675,0.46688 9.98266,0.2384 14.9732,0.31088 4.81968,-0.0358 9.71817,-0.0141 14.41884,-1.21142 4.95019,-1.42582 9.34163,-5.15412 10.96723,-10.11944 0.70031,-1.91785 0.95212,-3.99569 1.14519,-5.98897 0.77573,-0.44669 1.51842,-0.95321 2.20703,-1.52539 -0.125,13.23959 -0.25,26.47917 -0.375,39.71875 z M 74.652344,201.5625 c -3.031166,1.91848 -5.285906,5.00676 -6.111768,8.50541 -1.406176,5.48259 0.264934,11.61914 4.199658,15.67623 -3.383508,3.11905 -5.05124,7.85943 -4.619114,12.4144 0.328946,3.87308 2.031452,7.62157 4.759739,10.39419 -3.56125,3.1608 -5.552926,8.04767 -4.979129,12.80032 0.499616,4.59978 3.204047,8.79576 6.912723,11.49461 -5.348496,-0.02 -10.697082,-0.0505 -16.044922,-0.14063 -0.327591,-6.191 -0.365349,-12.43336 -0.460915,-18.68029 -0.154211,-13.88822 -0.124144,-27.7786 0.02524,-41.6666 0.05235,-3.49263 0.114763,-6.99074 0.476694,-10.46756 5.091585,-0.23236 10.265769,-0.31703 15.41164,-0.41422 0.08965,0.0387 0.881364,-0.10189 0.430157,0.0841 z m 225.515626,-0.0176 c 0,23.77865 0,47.55729 0,71.33594 -6.77149,0.005 -13.54297,0.0104 -20.31445,0.0156 3.46894,-2.20577 5.99385,-5.93292 6.44308,-10.05197 0.4544,-3.36012 0.20519,-6.90301 -1.15012,-10.03787 -0.74755,-1.6155 -1.88932,-3.07968 -3.12304,-4.30078 3.19949,-2.99213 5.01452,-7.44635 4.56819,-11.83007 -0.3098,-4.03395 -2.10139,-7.88177 -4.76936,-10.89649 3.65258,-3.68575 5.37715,-9.22101 4.24529,-14.31165 -0.77959,-3.87726 -2.89194,-7.51997 -6.02459,-9.96179 6.70833,0.013 13.41667,0.026 20.125,0.0391 z M 182.0332,224.26758 c 0.73084,0.27793 0.0259,0.82803 -0.44702,0.84142 -0.41007,-0.17126 -0.16876,-0.98693 0.44702,-0.84142 z m 34.2461,0.15234 c 0.0306,0.35405 -0.58773,-0.15755 0,0 z m -51.45118,2.58594 c 0.0956,0.55998 -0.92641,0.35455 -0.75555,0.0938 0.23579,-0.10709 0.50107,-0.12452 0.75555,-0.0938 z m -35.07812,0.043 c 0.22745,0.73348 -1.21047,0.50083 -0.54108,0.0817 0.18038,-0.0232 0.35711,-0.12001 0.54108,-0.0817 z m 112.63867,0.29492 c -0.14711,-0.0748 0.19192,-0.22743 0,0 z m -112.92578,19.45508 c 0.89051,0.30608 -0.57425,0.26181 0,0 z m 113.88672,0.35547 c -0.64241,0.32087 -0.51672,-0.59055 0,0 z m -85.40234,0.40429 c 0.49351,0.64256 0.36148,1.03776 -0.45011,1.16426 -0.91833,0.36973 -1.83665,0.73945 -2.75497,1.10918 -0.16718,-0.5916 -0.48813,-1.20362 0.0509,-1.7014 0.32001,-0.53223 0.53625,-1.28877 1.28766,-0.88858 0.62217,0.10551 1.24433,0.21103 1.8665,0.31654 z m -54.61719,2.30079 c 0.3407,0.17143 -0.48946,0.72721 -0.50224,0.26108 -0.25527,-0.2328 0.36524,-0.42928 0.50224,-0.26108 z m 123.57226,56.02734 c -1.1481,0.82469 -2.25676,1.7037 -3.33203,2.62109 -0.27327,-0.907 -0.64198,-1.78433 -1.08593,-2.62109 1.47265,0 2.94531,0 4.41796,0 z m -94.97656,0.17773 c -0.36809,0.75644 -0.67586,1.54245 -0.91992,2.34766 -0.98643,-0.84859 -2.00007,-1.66651 -3.05274,-2.43164 1.3405,-0.003 2.68099,-0.007 4.02149,-0.01 l -0.0462,0.0887 z m 159.375,0.2168 c 3.25934,0.12783 6.52298,0.18954 9.77539,0.45117 0.29933,0.0311 1.28539,0.12535 1.54297,0.14453 0.56524,0.1218 0.18008,1.13439 0.34774,1.62883 0.33291,7.17019 0.26938,14.35124 0.37118,21.52691 0.11328,14.89961 0.087,29.7998 0.0975,44.69973 -2.20734,-1.08608 -4.69015,-1.37709 -7.12075,-1.37566 -3.99438,-0.24009 -7.99566,-0.33489 -11.99644,-0.38996 6.7316,-4.58723 12.25296,-10.97893 15.72415,-18.35397 2.14355,-4.86589 2.30546,-10.28031 2.26514,-15.51166 -7.7e-4,-4.38991 0.0163,-8.88089 -1.4158,-13.08755 -1.15778,-3.75553 -3.39431,-7.04633 -5.69849,-10.18354 -2.81308,-3.66732 -6.15046,-6.92925 -9.87305,-9.66797 1.99349,0.0397 3.98698,0.0794 5.98047,0.11914 z m -222.919921,0.52539 c -3.950285,3.03948 -7.437125,6.70054 -10.177734,10.86914 0.02414,-3.62984 -0.04563,-7.299 0.03711,-10.9043 3.570784,-0.19422 7.057286,-0.28883 10.646485,-0.3457 -0.16862,0.12695 -0.33724,0.25391 -0.505861,0.38086 z m 146.121091,16.70117 c 0.49116,0.45749 0.76662,1.0713 0.70659,1.74114 -0.0611,0.5199 -0.53701,1.2508 -1.04947,1.16771 -0.75094,-0.86545 -1.50188,-1.7309 -2.25282,-2.59635 0.63014,-0.79545 1.77842,-0.82108 2.5957,-0.3125 z m -72.29297,0.19336 c 0.77233,0.40944 0.97668,1.37626 0.70158,2.15432 -0.14192,0.54649 -0.69681,1.06295 -1.24711,1.22578 -0.56993,0.0959 -1.09803,-0.45418 -1.65161,-0.61087 -0.7303,-0.14234 -0.69644,-1.04824 -0.3309,-1.53491 0.24012,-0.55553 0.38715,-1.21543 1.11909,-1.21948 0.50855,-0.24834 0.88821,-0.21784 1.40895,-0.0148 z m -0.48632,27.76953 c 0.49207,0.45424 1.02032,0.8879 1.03953,1.61112 -0.0537,0.73715 -0.85733,0.69806 -1.42624,0.55609 -0.5559,-0.16175 -1.37382,0.0599 -1.75449,-0.35827 -0.73688,-1.00882 0.58313,-2.34996 1.65863,-1.9308 0.16085,0.0406 0.32171,0.0812 0.48257,0.12186 z m 72.00195,0.1875 c 0.5962,0.33298 1.15618,0.75251 1.24674,1.47479 0.15129,0.72622 -0.85152,0.65685 -1.2832,0.94898 -0.5546,0.148 -1.22742,0.78525 -1.55775,0.005 -0.52883,-0.40406 -0.81131,-1.03668 -0.26001,-1.56583 0.24311,-0.54396 0.93186,-0.77604 1.46815,-0.8773 0.12869,0.005 0.25738,0.009 0.38607,0.0142 z m 239.17969,0.76758 c 0.78856,0.0209 0.77135,0.64361 0.71224,1.26366 0.0317,5.90459 0.0281,11.81082 -0.16732,17.7129 -0.0214,0.3567 -0.0468,1.15421 -0.11129,1.67926 -0.29603,4.22227 -1.94837,8.3067 -4.63175,11.57528 -3.67247,4.55235 -8.98871,7.5793 -14.61634,9.00718 -0.37499,0.0913 -1.14555,0.28504 -1.67578,0.39063 -8.65012,1.77035 -18.18166,-0.0776 -25.09085,-5.71433 -2.98316,-2.42876 -5.27318,-5.59729 -7.03258,-8.9958 -0.37779,-0.72598 -0.9967,-1.4024 -0.83044,-2.2792 -0.10669,-6.49453 -0.27374,-12.98811 -0.33519,-19.48333 4.96779,0.19799 9.71901,-1.5783 14.1991,-3.53073 1.39395,-0.58577 2.78994,-1.17458 4.23059,-1.63724 3.60547,1.21082 6.96627,2.86845 10.62662,4.03646 3.08371,0.99019 6.37655,1.61736 9.60473,1.01489 4.72918,-0.7778 9.06486,-2.92919 13.48897,-4.66085 0.52135,-0.13806 1.09374,-0.49624 1.62929,-0.37878 z m -394.62305,8.33203 c 3.339757,4.89585 7.696483,9.05628 12.572266,12.4043 -2.891294,0.12726 -5.811493,0.17026 -8.660157,0.7168 -1.424723,0.35292 -2.783871,0.96544 -3.988281,1.80468 -6.51e-4,-5.01562 -0.0013,-10.03125 -0.002,-15.04687 l 0.05421,0.084 z m 165.60937,9.34961 c 0.98491,0.81392 1.99214,1.60143 3.03516,2.33985 -1.48893,-0.006 -2.97786,-0.0117 -4.4668,-0.0176 0.4404,-0.83721 0.80733,-1.7135 1.08204,-2.61914 0.11653,0.099 0.23307,0.19791 0.3496,0.29687 z m -92.77539,0.17774 c 0.24363,0.74579 0.54137,1.47415 0.89649,2.17382 -1.44401,0.006 -2.88803,0.0104 -4.33203,0.0176 1.14899,-0.79439 2.25523,-1.64943 3.33008,-2.54101 0.0351,0.11653 0.0703,0.23307 0.10546,0.34961 z m -36.386714,34.61523 c -0.425115,6.46878 -0.440207,12.9562 -0.435547,19.4375 -3.360743,0.0464 -6.772064,0.87765 -9.595703,2.74609 0.05794,-7.39648 0.115885,-14.79296 0.173828,-22.18945 3.285807,0.002 6.571614,0.004 9.857422,0.006 z M 148.5,404.91211 c -1.51249,4.50598 -1.47414,9.322 -1.67367,14.01707 -0.12167,4.31171 -0.0838,8.68774 -0.13492,12.96144 -0.065,-3.81018 -0.0526,-7.73146 -0.32327,-11.5765 -0.1897,-3.12862 -0.47444,-6.3193 -1.76924,-9.21618 -1.01585,-2.39051 -2.55643,-4.59818 -4.6282,-6.18778 2.8431,6.5e-4 5.6862,10e-4 8.5293,0.002 z m 33.61328,0.0137 c -0.44756,6.46 -0.42652,12.94147 -0.44726,19.41406 -0.16899,-0.42362 -0.0285,-1.15853 -0.0804,-1.69997 -0.0526,-5.03517 -0.0891,-10.10102 -0.8747,-15.08518 -0.17462,-0.88852 -0.39024,-1.76983 -0.67188,-2.63086 0.69141,6.5e-4 1.38281,0.001 2.07422,0.002 z m 45.77344,0.0664 c 2.55729,0.01 5.11458,0.0195 7.67187,0.0293 -0.8033,2.89246 -0.85773,5.92208 -1.08313,8.89784 -0.26522,5.98857 -0.3506,11.98487 -0.3739,17.97912 -0.22153,-0.24908 -0.0402,-0.91136 -0.11123,-1.31632 -0.0898,-5.59633 -0.23395,-11.21844 -1.06502,-16.7602 -0.7288,-3.52176 -2.81768,-6.75363 -5.75734,-8.83169 0.23958,6.6e-4 0.47917,0.001 0.71875,0.002 z m 46.32812,0.26758 c 0.0407,1.54155 0.0842,3.08302 0.10547,4.625 -1.95922,-0.55729 -4.01103,-0.68685 -6.03906,-0.64258 -0.14203,-1.36257 -0.33872,-2.72593 -0.71094,-4.04688 2.21485,0.0215 4.42969,0.043 6.64453,0.0645 z" />
      <g
         id="g20285">
        <path
           id="path19950"
           style="fill:#954db1;fill-opacity:1;stroke-width:5.47513"
           d="m 97.800781,330.95703 c -2.878391,0.0397 -5.727309,1.45955 -7.313468,3.89424 -1.351402,1.73434 -2.198715,4.14626 -1.276947,6.27085 0.923728,2.09924 2.639674,3.86751 4.690882,4.89069 4.116687,1.97477 9.646342,0.97916 12.497222,-2.68562 2.03372,-2.5645 1.85081,-6.50361 -0.3238,-8.92579 -2.01281,-2.36162 -5.21688,-3.52622 -8.273889,-3.44437 z" />
        <path
           id="path20124"
           style="fill:#954db1;fill-opacity:1;stroke-width:5.47513"
           d="m 255.33789,330.36133 c -1.97835,0.15433 -3.72627,1.25077 -5.38644,2.24945 -2.59359,1.69366 -4.30396,4.91642 -3.61582,8.02763 0.78464,3.79913 4.59171,6.42102 8.34665,6.57431 3.36523,0.10894 6.93103,-1.03557 9.23802,-3.56677 1.88283,-2.09546 1.69443,-5.32674 0.33696,-7.64548 -1.28384,-2.38844 -3.60153,-4.00181 -6.05999,-5.01609 -0.89956,-0.39219 -1.86946,-0.67815 -2.85938,-0.62305 z" />
        <path
           id="path19672"
           style="fill:#ffff00;fill-opacity:1;stroke-width:5.47513"
           d="m 255.03516,316.2207 c -4.82872,0.19533 -9.64255,1.30805 -14.03074,3.34065 -5.34785,2.51818 -9.76112,7.18527 -11.47708,12.89568 -1.98977,6.36035 -0.59257,13.43147 2.85938,19.02539 2.65267,3.92036 6.97074,6.24666 11.18771,8.13159 2.44274,1.01041 4.89459,2.20106 7.58194,2.33096 4.37216,0.33697 8.80926,-0.0203 13.0722,-1.04698 4.44282,-1.09561 8.25433,-3.99043 11.21674,-7.39799 3.62397,-4.29292 6.15596,-9.81571 5.90726,-15.52186 -0.2522,-3.51186 -1.47949,-6.91809 -3.21647,-9.96235 -3.14475,-5.49644 -8.68261,-9.44126 -14.8047,-10.93591 -2.70416,-0.68856 -5.50988,-0.94876 -8.29624,-0.85918 z m 0.49218,9.19727 c 5.70158,-0.0361 11.64309,2.61278 14.6836,7.57617 1.61006,2.61954 2.29815,5.88953 1.37554,8.8748 -1.23344,4.42168 -4.67605,8.22408 -9.0792,9.636 -5.51722,1.91536 -11.95425,1.43624 -16.94072,-1.68796 -3.74213,-2.35346 -6.09238,-6.76837 -5.79728,-11.19871 0.19721,-4.53714 3.07119,-8.68414 6.9954,-10.85907 2.64894,-1.53429 5.70531,-2.3279 8.76266,-2.34123 z" />
        <path
           id="path19596"
           style="fill:#ffff00;fill-opacity:1;stroke-width:5.47513"
           d="m 95.378906,316.14453 c -4.145986,0.10151 -7.961077,1.95042 -11.604151,3.75438 -4.440669,2.28312 -8.626726,5.62033 -10.645246,10.31078 -1.920157,4.37691 -1.949474,9.34762 -1.156853,13.98953 0.928689,4.78221 4.110482,8.8451 8.023486,11.61775 3.516628,2.52438 7.504123,4.34578 11.595655,5.71623 3.105369,0.49222 6.274647,0.36479 9.404503,0.22315 5.55162,-0.3328 11.10942,-2.21598 15.33768,-5.90674 2.24689,-1.97519 4.25273,-4.27167 5.74414,-6.87109 1.6323,-3.11238 1.34565,-6.7408 1.40783,-10.14022 -0.0233,-3.68292 -0.0453,-7.63203 -2.11486,-10.84025 -3.61449,-5.82434 -9.97471,-9.46471 -16.54101,-10.96485 -3.09323,-0.6975 -6.285432,-0.93849 -9.451174,-0.88867 z m 4.373047,9.25 c 4.958437,0.25121 10.092607,2.45593 12.850347,6.73783 3.85532,5.93852 1.76027,14.78464 -4.27521,18.44269 -2.59106,1.1757 -5.4836,1.45732 -8.28925,1.69296 -2.824728,0.13823 -5.741906,0.23737 -8.47534,-0.60004 -2.776324,-1.23054 -5.237363,-3.22295 -7.019225,-5.68327 -1.197062,-1.90483 -0.915124,-4.2737 -1.005895,-6.42056 0.06365,-2.29177 -0.166475,-4.69937 0.70919,-6.87101 1.17042,-2.16103 3.160608,-3.78495 5.260904,-5.00317 3.099076,-1.73649 6.708802,-2.47515 10.244479,-2.29543 z" />
        <path
           id="path19711"
           style="fill:#ffff00;fill-opacity:1;stroke-width:5.47513"
           d="m 157.07031,70.953125 c -8.44312,0.48757 -16.63525,4.697804 -21.88672,11.335937 -2.7577,3.558939 -4.67518,8.04429 -4.29131,12.61668 0.51918,3.585304 1.93994,6.986148 3.63311,10.166528 1.02475,1.92438 2.39716,3.68812 4.23894,4.89156 3.51781,2.43953 7.37204,4.42059 11.42192,5.81244 6.61842,2.1231 13.92325,1.25268 20.26113,-1.39694 5.3537,-2.2654 10.37028,-5.98863 13.04481,-11.2641 2.59861,-5.256732 2.82225,-11.63953 0.45417,-17.020128 -2.87035,-6.729879 -9.10343,-11.62845 -16.0047,-13.755482 -3.50383,-1.099998 -7.20464,-1.550224 -10.87135,-1.386495 z m -9,20.515625 c 1.45925,0.212905 2.43557,2.286306 1.47883,3.47367 -1.26595,1.157894 -3.25896,0.932675 -4.72097,0.286268 -0.55373,-0.292224 -1.35865,-0.745128 -1.3184,-1.449391 1.06715,-1.319587 2.75036,-2.134587 4.42578,-2.3125 l 0.1,0.0014 z" />
        <path
           id="path19750"
           style="fill:#ffff00;fill-opacity:1;stroke-width:5.47513"
           d="m 193.46289,90.626953 c -0.002,2.878255 -0.003,5.756511 -0.006,8.634766 18.91077,-0.65652 37.76099,-1.37289 56.67951,-1.591478 3.4286,-0.09952 6.89637,-6.58e-4 10.27948,-0.64485 1.41095,-0.255438 2.88646,-1.276415 2.91601,-2.835938 0.13377,-1.650335 -1.42184,-2.781438 -2.86914,-3.146484 -3.46371,-0.930282 -7.08124,-1.018179 -10.63919,-1.283588 -14.45629,-0.720154 -28.93514,-0.749545 -43.40491,-0.982119 -4.31799,-0.05854 -8.63596,-0.117397 -12.95395,-0.1757 -6.5e-4,0.675131 -0.001,1.350261 -0.002,2.025391 z" />
        <path
           id="path19789"
           style="fill:#ffff00;fill-opacity:1;stroke-width:5.47513"
           d="m 243.0332,104.40039 c -1.77328,0.034 -3.93864,0.2741 -4.87109,2.01563 -0.75195,1.62083 -0.41952,3.5605 0.25781,5.14843 0.63325,1.54163 2.43031,1.86498 3.90403,2.01075 3.23327,0.27784 6.53458,0.29174 9.72488,-0.36231 2.10209,-0.45435 4.08534,-2.50116 3.66494,-4.76035 -0.39375,-2.00189 -2.49418,-2.96988 -4.29288,-3.38884 -2.74002,-0.64353 -5.58567,-0.70098 -8.38769,-0.66331 z" />
        <path
           id="path16624"
           style="fill:#64b76b;fill-opacity:1;stroke-width:5.47513"
           d="m 304.60156,187.39258 c -55.51167,0.17197 -111.02356,0.28534 -166.53505,0.50889 -23.2298,0.12051 -46.461542,0.17999 -69.687815,0.63468 -4.964582,0.15138 -9.943819,0.16958 -14.889115,0.66829 -1.832442,0.19039 -3.53445,1.15669 -4.862627,2.39908 -2.117835,2.21313 -2.524655,5.41676 -2.886166,8.32518 -0.666898,6.71487 -0.615835,13.47411 -0.706996,20.21461 -0.06637,14.20735 -0.08256,28.41563 0.0401,42.62269 0.113947,4.65835 0.04536,9.3469 0.732747,13.96642 0.307667,2.25864 1.472063,4.3097 3.075666,5.90382 1.18415,1.1583 2.481862,2.40196 4.126415,2.81618 3.456123,0.32623 6.940663,0.27499 10.410002,0.38082 24.11925,0.37818 48.241999,0.46314 72.363689,0.56407 47.39022,0.1404 94.78073,0.0965 142.17109,0.14154 9.97709,0.005 19.95418,0.0114 29.93127,0.0158 2.06967,-1.94335 4.13874,-3.88734 6.20898,-5.83008 0,-29.27344 0,-58.54688 0,-87.82031 -2.97362,-1.83738 -5.94757,-3.67424 -8.91992,-5.51368 -0.19076,6.6e-4 -0.38151,0.001 -0.57227,0.002 z m -50.95703,23.71094 c 5.07227,0.0567 10.18729,-0.008 15.20149,0.86379 1.23437,0.29434 2.65093,0.49175 3.55632,1.46042 0.62101,1.13082 0.13412,3.033 -1.32192,3.1695 -2.11499,0.43383 -4.36675,0.47634 -6.42319,0.574 -6.45806,0.20539 -13.06276,0.24927 -19.5814,0.29736 -5.95514,0.0252 -11.91204,-0.0289 -17.86294,-0.26742 -1.18203,-0.0632 -2.61391,-0.12815 -3.8881,-0.2628 -0.92594,0.044 -2.07211,-0.50213 -2.03377,-1.56532 0.0556,-1.01915 0.53748,-2.06764 1.29296,-2.74805 1.8601,-0.72947 3.91504,-0.70285 5.88196,-0.88082 6.18824,-0.32994 12.29958,-0.43909 18.50937,-0.57284 2.22294,-0.0393 4.44598,-0.0585 6.66922,-0.0678 z m -54.7168,0.0273 c 3.70377,0.0451 7.47712,0.13329 11.05862,1.16907 0.90242,0.18281 1.74871,0.86553 1.72654,1.85632 0.1104,1.36338 -0.88326,2.8478 -2.34473,2.8389 -4.69408,0.53608 -9.43305,0.52406 -14.15212,0.5073 -1.05951,-0.0139 -2.12313,-0.038 -3.07542,-0.0747 -1.35412,-0.10108 -2.76079,-0.048 -4.07226,-0.39648 -1.07964,-1.1091 -1.50636,-2.81371 -1.25195,-4.32422 2.28781,-1.0091 4.84111,-1.15988 7.30147,-1.39723 1.6002,-0.12267 3.20521,-0.17079 4.80985,-0.17894 z m -69.93554,0.38867 c 12.98478,0.0145 26.04495,0.0439 38.98047,0.36719 2.25199,0.10492 4.5253,0.0752 6.75767,0.3947 1.28104,0.32138 2.65518,1.66378 2.05492,3.06654 -0.36109,1.07844 -1.64693,1.02478 -2.56494,1.20804 -2.24469,0.27057 -4.54187,0.36615 -6.7184,0.44708 -8.26503,0.2678 -16.70773,0.27641 -25.04642,0.34614 -17.9805,0.0839 -35.96486,0.19102 -53.942202,-0.22438 -1.591061,-0.0621 -3.310826,-0.0551 -4.956424,-0.2698 -0.837572,-0.12525 -1.291192,-0.88926 -1.349833,-1.67731 -0.109633,-0.80452 -0.225007,-1.62686 -0.132812,-2.4375 1.618371,-0.81186 3.496199,-0.56269 5.246028,-0.72859 10.353355,-0.35753 20.815433,-0.40146 31.217963,-0.46519 3.48461,-0.0203 6.96932,-0.0176 10.45398,-0.0269 z m 133.97461,22.16602 c 2.88368,0.10584 5.92395,0.16321 8.54882,1.5039 0.98558,0.47927 1.55924,1.56876 1.6543,2.61524 -0.74851,1.43641 -2.47646,1.70503 -3.92578,1.89843 -4.21832,0.46565 -8.47358,0.48592 -12.7132,0.48319 -2.4819,-0.0948 -5.06999,-0.0302 -7.41571,-0.95584 -1.17561,-0.45266 -1.54879,-1.93236 -1.3164,-3.05469 0.64814,-1.02503 2.00788,-1.21515 3.09179,-1.52539 3.96986,-0.7742 8.03988,-0.94341 12.07618,-0.96484 z m -114.17578,0.21093 c 3.14015,0.0419 6.40744,-0.002 9.36132,1.20704 0.60679,0.48323 0.43429,1.43357 0.58162,2.12699 -0.0164,0.54806 0.20766,1.22886 -0.11091,1.7109 -1.89744,1.11916 -4.18865,1.17208 -6.32694,1.3807 -4.96522,0.29629 -9.98415,0.22419 -14.89963,-0.58969 -1.15908,-0.20866 -2.4323,-0.50304 -3.09775,-1.58244 -0.73912,-0.824 -0.64151,-2.43947 0.51963,-2.81014 3.21508,-0.91768 6.5864,-1.09928 9.90706,-1.32174 1.35372,-0.0771 2.70988,-0.10621 4.0656,-0.12162 z m -44.47461,0.28321 c 5.375,0.0502 10.7717,-0.0777 16.12327,0.50623 1.21992,0.21923 2.62317,0.27228 3.59548,1.12072 0.34507,0.876 0.1707,1.92213 -0.11106,2.79835 -0.66286,1.18193 -2.239,1.04314 -3.39885,1.20704 -7.62439,0.5024 -15.27364,0.4586 -22.910659,0.38459 -4.095492,-0.0653 -8.069095,-0.14597 -12.169559,-0.44346 -1.072259,-0.17105 -2.3956,0.0359 -3.195032,-0.843 -0.446686,-0.93768 -0.419341,-2.09104 -0.175781,-3.08204 0.708372,-0.80087 1.924234,-0.83529 2.912756,-1.0503 4.81312,-0.61327 9.680727,-0.51615 14.523131,-0.58688 1.602074,-0.0107 3.204204,-0.007 4.806304,-0.0113 z m 99.24609,0.0195 c 8.64983,0.0119 17.30082,0.0629 25.94727,0.32226 2.19394,0.10075 4.56744,0.11679 6.80859,0.43946 0.40692,0.16034 0.98543,0.19686 1.27148,0.51953 0.0219,1.16915 0.0165,2.43386 -0.52148,3.49805 -0.95035,0.88381 -2.38197,0.60604 -3.57204,0.76209 -1.43692,0.0713 -3.07867,0.13469 -4.54016,0.17573 -15.8311,0.4048 -31.67211,0.38906 -47.50499,0.0895 -2.49067,-0.0645 -4.83869,-0.12813 -7.31445,-0.23633 -0.96609,-0.087 -2.19891,-0.044 -3.23828,-0.29883 -1.16208,-0.21034 -1.23591,-1.54536 -1.32757,-2.48841 0.0177,-0.51682 -0.21305,-1.17519 0.058,-1.6112 1.72343,-0.77777 3.67249,-0.58398 5.51232,-0.75251 9.39401,-0.3663 18.9585,-0.39639 28.42127,-0.41936 z m -113.527344,22.6582 c 2.44162,0.0613 5.014047,0.0364 7.269532,1.0957 0.992692,0.40235 1.514723,1.76703 0.748046,2.61915 -0.693863,1.18866 -2.006346,1.74677 -3.308067,1.96618 -3.510972,0.64992 -7.181276,0.72944 -10.675097,-0.0649 -1.058442,-0.31179 -2.44165,-0.80725 -2.671132,-2.03413 0.05899,-1.29396 1.197336,-2.27188 2.253906,-2.85937 2.005371,-0.82091 4.260948,-0.65405 6.382812,-0.72266 z m 58.554684,0.72852 c 0.26998,0.0436 -0.18203,-0.0346 0,0 z m 0.29688,0.0625 c 0.23792,0.0566 -0.2995,-0.0807 0,0 z m 13.23242,0 c 0.0107,5.3e-4 0.0882,-0.0162 0,0 z m -12.04297,0.35351 c 0.13191,0.10447 -0.2028,-0.0156 0.0352,0.0977 -0.0601,0.0562 0.18647,0.11904 0.0722,0.0447 -0.0135,0.0702 -0.19279,-0.37719 -0.10732,-0.14237 z m -41.17773,-0.0254 c 0.14394,-0.047 0.18345,-0.0714 0,0 z m 40.94922,-0.008 c 0.17272,0.0675 -0.24791,-0.10994 0,0 z m 11.07226,0.0527 c -0.19513,0.27052 0.0569,0.0207 0,0 z m -52.33203,0.084 c 0.17943,-0.0714 0.15461,-0.0725 0,0 z m -0.23242,0.125 c 0.21448,-0.10954 0.2011,-0.12026 0,0 z m -0.13867,0.0918 c -0.0183,-0.003 -0.14372,0.12343 -0.14063,0.12109 -0.10072,0.13343 -0.0699,0.19655 -0.0957,0.28906 -0.11199,-0.18909 0.62032,-0.69804 0.23633,-0.41015 z m -0.23633,0.41601 c -0.0311,0.21025 -0.009,0.13875 0,0 z m 42.1543,-0.41797 c 0.0229,0.22905 -0.0133,-0.24453 0,0 z m -42.08399,0.17383 c -0.0273,0.0403 0.0195,-0.0419 0,0 z m 42.09375,0.0625 c 0.007,0.26027 0.002,-0.19132 0,0 z m -42.13672,0.043 c -0.003,-0.0126 0.0233,-0.0497 0,0 z m 165.14453,0.0664 c 0.0138,0.008 -0.0143,-0.0122 0,0 z m 0.10938,0.084 c 0.0904,0.1244 0.0308,0.007 0,0 z m 0.0488,0.0605 c 0.0101,0.0144 -9.3e-4,-0.0145 0,0 z m 0.002,0.008 c 0.0154,0.0481 0.003,-0.007 0,0 z m -0.0273,-0.0527 c 0.002,0.005 -0.005,-0.002 0,0 z m 0.0254,0.0313 c 0.003,-0.004 -0.006,-0.002 0,0 z m 0.002,0.008 c 0.005,-0.006 -0.009,-0.005 0,0 z m -123.17578,0.0957 c -0.003,0.14073 0.0146,-0.22489 0,0 z m 123.17969,-0.0566 c 0.0245,0.0777 -0.003,-0.0333 0,0 z m -165.35743,0.22852 c 0.0106,-0.20799 10e-4,-0.19712 0,0 z m 0.008,0.22265 c 0.002,-0.1294 -0.0159,-0.20173 0,0 z m 0.0234,0.27344 c 0.001,-0.0449 -0.0271,-0.22443 0,0 z m 165.38086,0.12305 c -0.004,0.0671 0.0108,-0.0581 0,0 z m -165.28711,0.4707 c -0.0279,-0.153 -0.0439,-0.18994 0,0 z m 0.0606,0.22851 c -0.056,-0.22066 -0.0521,-0.16715 0,0 z m 0.0644,0.18165 c -0.0612,-0.19419 -0.0912,-0.22738 0,0 z m 0.006,0.0137 c 0.0878,0.19041 0.0701,0.1105 0,0 z m 0.0703,0.13867 c -0.0406,-0.0743 0.001,0.0229 0,0 z m 0,0.002 c 0.0535,0.10662 0.14842,0.22831 0,0 z m 0.0781,0.12891 c 0.0733,0.11672 0.34518,0.40411 0,0 z m 0.1875,0.22461 c 0.0503,0.0614 0.0174,0.0167 0,0 z m 0.004,0.004 c 0.2014,0.18482 0.1663,0.12951 0,0 z m 41.35742,-0.24804 c -0.0395,0.18964 0.0493,-0.19583 0,0 z m -0.0684,0.26562 c -0.0478,0.17318 0.0678,-0.22114 0,0 z m -0.0586,0.18164 c -0.10759,0.30344 0.0991,-0.25267 0,0 z m -40.9375,0.0332 c -0.17695,-0.13912 -0.17881,-0.12227 0,0 z m 0.20117,0.12695 c -0.14921,-0.10118 -0.22693,-0.13488 0,0 z m 40.66601,0.006 c -0.10946,0.24448 0.13423,-0.26672 0,0 z m -0.0273,0.0664 c -0.0159,0.0305 0.055,-0.0902 0,0 z m -0.002,0.004 c -0.197,0.31109 -0.39702,0.40977 -0.20117,0.27344 0.10359,-0.109 0.13441,-0.13853 0.20117,-0.27344 z m -0.125,0.19336 c -0.0231,0.0209 -0.002,0.0123 0,0 z m -0.20313,0.17188 c -0.0253,0.009 -0.0683,0.0633 0,0 z m -0.008,0.004 c -0.12805,0.0673 -0.16844,0.10774 0,0 z m -0.11133,0.0664 c -0.21125,0.0957 -0.16519,0.0852 0,0 z m 123.20313,-0.49414 c -0.0765,0.0341 -0.14228,0.1056 0.0508,-0.0176 z m -0.0547,0.0293 c 0.003,-0.007 -0.0156,0.005 0,0 z m 0.002,0 c 0.006,-0.002 -0.003,-0.004 0,0 z m 0.002,-0.002 c 0.0106,-3.6e-4 -0.002,-0.005 0,0 z m -111.13281,0.0156 c 0.007,-0.0103 -0.0272,-0.0519 0,0 z m -51.98047,0.0547 c -0.14696,-0.0827 -0.18014,-0.0805 0,0 z m 52.02735,0.0332 c 0.0339,0.0549 -0.0466,-0.0869 0,0 z m 0.0332,0.0527 c 0.0642,0.0736 -0.0657,-0.0991 0,0 z m 0.0176,0.0195 c -0.0294,-0.0254 0.0348,0.0462 0,0 z m 0.004,0.004 c 0.12535,0.13223 -0.0317,-0.0315 0,0 z m 0.0137,0.0254 c 0.003,-0.006 -0.0121,-0.004 0,0 z m -12.375,0.36719 c -0.2481,0.10424 0.19962,-0.076 0,0 z m -0.24414,0.0879 c -0.15795,0.0565 0.20141,-0.063 0,0 z m -0.23047,0.0703 c -0.28301,0.0789 0.32905,-0.0765 0,0 z" />
        <path
           id="path19438"
           style="fill:#64b76b;fill-opacity:1;stroke-width:5.47513"
           d="m 71.433594,393.625 c 0.03418,20.79393 -0.09687,41.5889 0.144694,62.38194 0.08528,3.48094 0.02168,6.97434 0.324056,10.44423 0.291426,0.46308 0.167759,1.43708 0.784459,1.49828 2.897586,0.32799 5.82481,0.14223 8.735378,0.21866 24.239579,0.0603 48.479279,-0.046 72.718739,-0.12247 38.25627,-0.14677 76.51267,-0.31551 114.76793,-0.63531 5.69416,-0.0779 11.39266,-0.0644 17.08334,-0.26189 0.53125,-0.17138 1.41091,0.11546 1.50246,-0.63389 0.75171,-1.4326 0.4858,-3.10844 0.60296,-4.66559 0.20702,-12.96115 0.0576,-25.92502 -0.0651,-38.88637 -0.12107,-7.30679 -0.14347,-14.62031 -0.54571,-21.91813 -0.28634,-3.14048 -0.59181,-6.27937 -0.88324,-9.41946 -71.72331,0 -143.44662,0 -215.169926,0 0,0.66667 0,1.33333 0,2 z m 40.035156,6.44141 c 1.0113,0.15966 2.33714,-0.0467 3.03906,0.85156 0.60945,1.24831 0.41527,2.7023 0.56618,4.04829 0.54847,12.41675 0.53742,24.92099 0.54598,37.39233 -0.0468,4.36452 0.0726,8.74943 -0.41758,13.09337 -0.0899,1.13855 -0.47782,2.2932 -1.43798,2.99012 -0.72013,0.70169 -1.78763,1.51641 -2.80798,0.87593 -0.79582,-0.44634 -1.85033,-0.88407 -1.93118,-1.93322 -0.48001,-2.57323 -0.46239,-5.23388 -0.54635,-7.77659 -0.1568,-10.49852 -0.11476,-20.99941 -0.0744,-31.49876 0.0609,-4.56777 0.0468,-9.04633 0.48972,-13.58109 0.21723,-1.44711 0.25964,-3.05437 1.13899,-4.2803 0.41909,-0.25355 0.96668,-0.18237 1.43555,-0.18164 z m 88.79297,-0.008 c 0.18882,-0.004 -0.29803,-0.006 0,0 z m 0.23047,0.008 c 0.32569,0.0193 -0.24594,-0.0228 0,0 z m 0.22265,0.0273 c 0.33028,-0.0383 0.59878,0.60891 0.46094,0.29883 -0.16414,-0.19091 -0.10653,-0.17079 -0.20898,-0.22852 -0.0832,-0.0899 -0.16408,-0.0564 -0.19336,-0.0664 -0.054,-0.007 -0.31551,-0.06 -0.0586,-0.004 z m 0.22852,0.0527 c 0.0312,0.0275 -0.0332,-0.0129 0,0 z m 0.0781,0.0645 c 0.0152,0.0175 -0.014,-0.009 0,0 z m -2.71875,0.0586 c 0.14662,-0.0251 0.1917,-0.0513 0,0 z m -0.27929,0.0742 c 0.18488,-0.0492 0.18451,-0.0587 0,0 z m -0.23047,0.0801 c 0.14136,-0.0363 0.32383,-0.13519 0,0 z m -0.16797,0.0859 c 0.22586,-0.10186 0.19082,-0.10675 0,0 z m 0,0 c -0.16246,0.0791 -0.58149,0.49219 -0.0664,0.0488 l 0.0645,-0.0469 z m 3.66406,0.12695 c 0.16092,0.31688 -0.13158,-0.28711 0,0 z m -4.05664,0.20898 c 0.0247,0.009 0.0222,-0.0555 0,0 z m 0.0176,-0.0156 c -0.22562,0.28153 -0.11126,0.17109 0,0 z m 4.18164,0.15234 c 0.096,0.24011 -0.0953,-0.27404 0,0 z m -4.42969,0.22266 c 0.13334,-0.21082 0.11968,-0.21782 0,0 z m -0.13867,0.27539 c 0.0961,-0.17917 0.0752,-0.16409 0,0 z m 4.71289,-0.0645 c 0.0636,0.20309 -0.0704,-0.25388 0,0 z m -4.84961,0.40625 c 0.0652,-0.15419 0.0661,-0.18843 0,0 z m 4.98242,0.11132 c 0.0491,0.19441 -0.0334,-0.16162 0,0 z m -5.1289,0.32227 c 0.0388,-0.0943 0.0548,-0.19137 0,0 z m 5.25781,0.30859 c 0.0394,0.20354 -0.0123,-0.0928 0,0 z m -5.40234,0.21485 c 0.0182,-0.048 0.0491,-0.21537 0,0 z m -0.13672,0.60742 c 0.0123,-0.0365 0.0293,-0.16657 0,0 z m 54.05273,4.125 c 0.0469,0.003 0.19787,-0.0136 0,0 z m 0.67188,0.01 c 0.31212,0.0207 -0.264,-0.028 0,0 z m -86.01758,0.0274 c 0.6753,0.0997 1.71007,0.18 1.7793,1.05664 0.88546,3.78588 0.98841,7.70016 1.20766,11.56754 0.27393,6.75688 0.26746,13.6504 0.0502,20.46957 -0.0804,2.41169 -0.19506,5.0187 -0.36236,7.40788 -0.14473,2.13167 -0.30586,4.09913 -0.5713,6.23219 -0.22956,1.51417 -0.37654,3.06837 -0.92572,4.50837 -1.43838,1.50723 -4.40992,0.73501 -4.83486,-1.32696 -0.75922,-3.2029 -0.65913,-6.52896 -0.78174,-9.79843 -0.1462,-9.66316 -0.0772,-19.33665 0.32071,-28.95692 0.20323,-3.45949 0.26035,-6.95005 0.88448,-10.36579 0.78437,-0.79793 2.17268,-0.84142 3.23368,-0.79409 z m 84.78711,0.0156 c 0.1838,-0.0196 0.1631,-0.0288 0,0 z m -0.16406,0.0391 c 0.22013,-0.0451 0.21254,-0.0639 0,0 z m 0,0 c -0.069,0.0165 -0.19006,0.0436 -0.26172,0.12304 -0.0564,0.0267 -0.34949,0.44732 0.004,0.0137 0.0701,-0.0699 0.16672,-0.10325 0.25782,-0.13671 z m -0.27539,0.14062 c 7.2e-4,-0.0107 0.0353,-0.0205 0,0 z m -0.28125,0.42383 c 0.13681,-0.2351 0.105,-0.20913 0,0 z m 4.60156,0.0684 c 0.16571,0.0701 -0.26689,-0.12397 0,0 z m -4.70508,0.17383 c 0.0877,-0.19031 0.0751,-0.1927 0,0 z m 5.00195,-0.0293 c 0.29327,0.14937 -0.23459,-0.13308 0,0 z m 0.19336,0.11328 c 0.18544,0.22875 -0.019,-0.0133 0.10938,0.0957 -0.22111,-0.20844 -0.17102,-0.15537 -0.10938,-0.0957 z m 0.0781,0.10742 c 0.0227,0.0748 0.088,0.18482 0,0 z m 0.043,0.0996 c 0.0477,0.1654 0.071,0.17311 0,0 z m -5.4336,0.0332 c 0.0632,-0.16561 0.0449,-0.13432 0,0 z m -0.11328,0.40039 c 0.0213,-0.0546 0.0464,-0.2056 0,0 z m 5.6875,0.0566 c 0.0491,0.1944 -0.0334,-0.16163 0,0 z m -5.81055,0.44726 c 0.0147,-0.0308 0.0426,-0.21912 0,0 z m 5.99805,0.70117 c 0.021,0.148 -0.0228,-0.20829 0,0 z m -38.99414,4.76954 c 0.0256,0.005 0.17746,-0.0104 0,0 z m -84.90625,0.0469 c 1.07811,-0.0408 1.25678,1.26177 1.47558,2.05601 0.76282,4.00768 0.66003,8.11463 0.76856,12.17641 0.046,6.46188 0.0575,13.03044 -0.0801,19.42578 -0.14311,2.84547 -0.074,5.75557 -0.84127,8.52155 -0.44673,1.32448 -1.84501,2.66729 -3.33549,2.11326 -1.01971,-0.39506 -2.317,-0.93401 -2.49128,-2.16169 -0.52671,-2.52713 -0.52089,-5.25674 -0.6386,-7.74069 -0.18031,-8.22256 -0.41268,-16.4501 -0.21101,-24.67422 0.14589,-2.67224 0.1478,-5.43312 1.08451,-7.97343 0.35498,-1.16195 1.59524,-1.58291 2.69345,-1.65528 0.52245,-0.0604 1.04903,-0.11687 1.57563,-0.0877 z m 87.26953,0.002 c 0.21144,0.0246 -0.21019,-0.0305 0,0 z m -3.26562,0.0449 c 0.22736,-0.0347 0.18014,-0.0409 0,0 z m 3.49023,-0.008 c 0.26793,0.0467 -0.21923,-0.0485 0,0 z m -3.63476,0.0449 c -0.092,0.0353 -0.10607,0.0205 -0.25196,0.1211 0.0502,-0.0581 -0.29805,0.46539 0.002,0.0332 0.0427,-0.11473 0.66937,-0.27209 0.25,-0.1543 z m 3.82031,-0.002 c 0.29734,0.0507 0.54408,0.44592 0.32812,0.16797 -0.013,-0.0333 -0.13069,-0.11568 -0.15625,-0.11328 -0.10828,-0.0871 -0.10947,-0.0252 -0.17187,-0.0547 z m 0.28906,0.1211 c 0.007,0.009 0.0348,0.0121 0,0 z m 0.11719,0.14843 c 0.0999,0.1832 0.11946,0.16681 0,0 z m -4.36133,-0.21093 c -0.0116,0.008 -0.004,-0.004 0,0 z m -0.0762,0.0488 c -0.0482,0.0388 0.0335,-0.0355 0,0 z m 4.52344,0.29688 c 0.003,-0.004 -0.006,-0.002 0,0 z m -4.80274,0.16601 c 0.11804,-0.22923 0.0923,-0.20965 0,0 z m 4.83985,-0.0801 c 0.16861,0.31356 -0.14006,-0.29828 0,0 z m 0.10351,0.23046 c 0.11081,0.26553 -0.0863,-0.22463 0,0 z m -5.03711,0.0977 c 0.0862,-0.2068 0.0673,-0.20646 0,0 z m 5.1582,0.24609 c 0.0595,0.17339 -0.0758,-0.24994 0,0 z m 0.21875,0.86329 c 0.0329,0.14832 -0.0298,-0.15727 0,0 z m -5.67968,0.14062 c 0.0123,-0.0358 0.0293,-0.19331 0,0 z m -0.0918,0.5918 c 0.009,-0.0208 0.0174,-0.15627 0,0 z m 55.02148,4.69336 c 0.0486,0.003 0.20654,-0.0137 0,0 z m 0.51368,0.006 c 0.17052,0.01 -0.2099,-0.017 0,0 z m -0.7461,0.01 c 0.11654,-0.004 0.1925,-0.0209 0,0 z m -0.21093,0.0293 c 0.0398,0.002 0.22054,-0.0388 0,0 z m 1.4121,0.0195 c 0.13275,0.0193 -0.21295,-0.0406 0,0 z m -1.84179,0.0703 c 0.0535,-0.006 0.21153,-0.0595 0,0 z m 2.27148,0.0293 c 0.15989,0.0429 -0.23839,-0.0727 0,0 z m -2.47851,0.0332 c 0.14476,-0.038 0.18821,-0.0693 0,0 z m 2.66015,0.0254 c 0.20495,0.0686 -0.20421,-0.0768 0,0 z m -2.83593,0.041 c 0.0999,-0.0322 0.1821,-0.0743 0,0 z m -0.1836,0.082 c 0.20896,-0.0889 0.1535,-0.0769 0,0 z m 3.39844,0.0371 c 0.18786,0.0899 -0.21133,-0.10813 0,0 z m -3.54102,0.043 c 0.12045,-0.0604 0.16998,-0.0991 0,0 z m 3.70508,0.0449 c 0.19954,0.11133 -0.2139,-0.1282 0,0 z m -3.86133,0.0527 c 0.16985,-0.10111 0.15392,-0.10556 0,0 z m 3.99805,0.0332 c 0.22681,0.14675 -0.18668,-0.13145 0,0 z m -4.11914,0.0566 c 0.16633,-0.11205 0.15232,-0.12453 0,0 z m -0.004,0.004 c 0.006,-0.002 -0.003,-0.004 0,0 z m 4.26758,0.0449 c 0.19847,0.14984 -0.1842,-0.14995 0,0 z m -4.37891,0.0547 c 0.14729,-0.12104 0.13523,-0.13213 0,0 z m 0,0 c -0.0464,0.0335 -0.16355,0.18096 0,0 z m -0.0918,0.0977 c -0.18038,0.18576 -0.14487,0.19892 -0.1543,0.22656 -0.0295,0.0618 0.0937,-0.18112 0.1543,-0.22656 z m 4.59179,-0.0508 c 0.19396,0.17306 -0.21873,-0.20951 0,0 z m 0.0527,0.0449 c 0.12234,0.14319 0.13128,0.12918 0,0 z m 0.14062,0.16406 c 0.17582,0.21261 -0.13498,-0.18025 0,0 z m 0.0937,0.13086 c 0.11872,0.17213 -0.12449,-0.2069 0,0 z m 0.0332,0.0449 c 0.0883,0.17569 0.0972,0.16815 0,0 z m -5.13477,0.21094 c 0.0384,-0.15444 0.0355,-0.18827 0,0 z m 5.25,0.0234 c 0.0865,0.17655 -0.0789,-0.18096 0,0 z m 0.082,0.18945 c 0.10272,0.25093 -0.0699,-0.18888 0,0 z m 0.21094,0.59961 c 0.0838,0.25055 -0.0617,-0.21134 0,0 z M 94.265365,437.76 c 0.898168,0.0895 2.060557,-0.12916 2.714844,0.63085 0.802718,1.62975 0.717289,3.52259 0.845202,5.29495 0.07911,4.00852 0.154384,8.02948 -0.139546,12.03083 -0.115213,1.08088 -0.219187,2.4099 -1.313573,2.96701 -0.763717,0.56015 -1.785463,1.24076 -2.716003,0.61192 -0.919624,-0.55435 -2.044509,-1.03212 -2.566705,-2.02385 -0.622407,-2.09215 -0.454195,-4.31898 -0.52726,-6.47772 0.02473,-3.57818 -0.148327,-7.2184 0.663978,-10.72931 0.233745,-1.06705 0.899109,-2.24529 2.134766,-2.25586 0.300078,-0.0356 0.602236,-0.0487 0.904297,-0.0488 z m 87.128905,0.12304 c 1.26281,-0.0175 2.67047,0.44452 3.20209,1.69571 1.1288,2.46894 1.05028,5.2701 1.07078,7.92804 -0.10434,3.13843 -0.14468,6.31286 -0.79116,9.39661 -0.14821,0.95361 -0.74509,1.75275 -1.6118,2.17149 -0.64948,0.51273 -1.54677,0.65676 -2.25146,0.16311 -1.0438,-0.64904 -2.47208,-1.23906 -2.64579,-2.62449 -0.47192,-3.04163 -0.29899,-6.13864 -0.33076,-9.2062 0.0899,-2.72394 0.0257,-5.54009 0.94795,-8.14146 0.26235,-0.86465 1.07641,-1.45518 1.98689,-1.38224 0.1409,-0.01 0.2822,3.7e-4 0.42326,-5.7e-4 z m 52.69531,7.41797 c 0.14633,0.007 0.19196,-0.011 0,0 z m -0.27734,0.0117 c 0.0797,0.002 0.20325,-0.0158 0,0 z m 1.00781,0.01 c 0.21811,0.011 -0.27576,-0.0217 0,0 z m -1.29297,0.0195 c 0.14078,-0.0125 0.19628,-0.028 0,0 z m -85.78515,0.0234 c 0.87597,0.0331 1.99845,0.35718 2.12109,1.38282 0.71744,2.90954 0.53489,5.97739 0.0423,8.90891 -0.28229,1.23565 -0.51071,2.72038 -1.75664,3.36493 -0.90596,0.75172 -2.1978,0.66027 -3.1353,0.0211 -1.1638,-0.47487 -1.60555,-1.71622 -1.86025,-2.84666 -0.58933,-2.81406 -0.58424,-5.82606 0.34267,-8.5674 0.40504,-1.46142 2.01463,-2.01282 3.3594,-2.22665 0.29386,-0.0393 0.59053,-0.0491 0.8867,-0.037 z m 85.5332,0.0195 c 0.189,-0.0284 0.15754,-0.0334 0,0 z m 2.11914,-0.006 c 0.21805,0.0262 -0.27622,-0.0412 0,0 z m -2.35937,0.0644 c 0.14136,-0.0285 0.19145,-0.0581 0,0 z m 2.79492,0.0234 c 0.1572,0.0346 -0.22601,-0.0595 0,0 z m -3.02539,0.0469 c 0.16399,-0.0464 0.14676,-0.0512 0,0 z m 3.20312,0.002 c 0.19462,0.0564 -0.24271,-0.0797 0,0 z m 0.13086,0.0449 c 0.26828,0.099 -0.19317,-0.0777 0,0 z m 0.0781,0.0273 c 0.17939,0.097 0.17933,0.0731 0,0 z m 0.13672,0.0644 c 0.0811,0.0557 0.18305,0.0984 0,0 z m -3.75196,-0.0566 c 0.15895,-0.0578 0.17945,-0.0809 0,0 z m -0.20117,0.0957 c 0.14748,-0.065 0.17542,-0.0946 0,0 z m 4.10547,0.0566 c 0.14879,0.0971 -0.16075,-0.11623 0,0 z m 0.041,0.0254 c 0.23091,0.18722 -0.0611,-0.0576 0,0 z m 0.084,0.0664 c 0.0656,0.0763 0.14793,0.12872 0,0 z m 0.082,0.0781 c 0.0212,0.0223 -0.0459,-0.0556 0,0 z m 0.004,0.004 c 0.0137,0.0202 0.007,2.7e-4 0,0 z m 0.008,0.008 c 0.0228,0.0408 0.15413,0.157 0,0 z m -4.51953,-0.12891 c 0.15023,-0.0822 0.12737,-0.0747 0,0 z m -0.17969,0.1211 c 0.18462,-0.11512 0.14564,-0.10724 0,0 z m 4.80664,0.14062 c 0.12609,0.1615 -0.12679,-0.17929 0,0 z m 0.0352,0.043 c 0.10029,0.1674 0.11632,0.16651 0,0 z m -5.1836,0.0996 c 0.13944,-0.11853 0.13719,-0.13014 0,0 z m 5.31446,0.12109 c 0.0881,0.15686 -0.13221,-0.24953 0,0 z m -5.47266,0.0391 c 0.12079,-0.11462 0.12988,-0.144 0,0 z m 5.54297,0.0996 c 0.10524,0.21738 -0.081,-0.1776 0,0 z m -5.69531,0.0762 c 0.087,-0.0943 0.12598,-0.15832 0,0 z m 5.77734,0.11523 c 0.0882,0.2149 -0.0789,-0.21034 0,0 z m -5.92969,0.082 c 0.0995,-0.12322 0.10446,-0.14694 0,0 z m -0.14062,0.21094 c 0.0649,-0.0905 0.10531,-0.16587 0,0 z m 6.22461,0.17187 c 0.0563,0.18735 -0.0399,-0.15424 0,0 z m -6.36328,0.0625 c 0.0603,-0.0913 0.0947,-0.17477 0,0 z m 6.43164,0.20313 c 0.0507,0.21042 -0.0384,-0.18288 0,0 z m -6.80469,0.61914 c 0.0344,-0.0714 0.0679,-0.19587 0,0 z m 6.94141,0.0801 c 0.0346,0.19582 -0.0365,-0.24673 0,0 z m -7.36915,1.68554 c 0.0104,-0.0328 0.0208,-0.18063 0,0 z m -34.61718,2.35938 c 0.004,-0.0154 -0.009,-0.0939 0,0 z m 0.20508,2.76172 c -0.002,-0.0533 -0.0294,-0.1967 0,0 z m 24.03515,0.88672 c -0.023,0.16311 0.026,-0.14948 0,0 z m 46.05664,0.20117 c -0.008,-0.10269 -0.0273,-0.1892 0,0 z m -28.37109,0.26562 c -0.0365,0.1996 0.0297,-0.12979 0,0 z m -17.80469,0.19727 c -0.0349,0.17886 0.0494,-0.21907 0,0 z m 52.23633,-0.043 c -0.0419,0.18344 0.0261,-0.0935 0,0 z m -75.87305,0.14844 c -0.002,-0.034 -0.0557,-0.20034 0,0 z m 69.93164,0.13867 c -0.004,-0.0589 -0.0464,-0.21126 0,0 z m -28.58203,-0.0293 c -0.0346,0.15592 0.0593,-0.22014 0,0 z m -35.25586,0.14063 c -0.0175,0.13041 0.0299,-0.17725 0,0 z m 17.42774,0.13281 c -0.0729,0.27861 0.0707,-0.24081 0,0 z m 17.74023,0.043 c -0.0644,0.21625 0.0604,-0.18392 0,0 z m 17.11328,0.0898 c -0.0265,0.175 0.046,-0.23344 0,0 z m -23.35742,0.0469 c -0.0268,-0.0778 -0.0834,-0.18554 0,0 z m -17.35156,0.0879 c -0.005,-0.058 -0.0451,-0.21072 0,0 z m -17.43164,0.0488 c -0.046,-0.13028 -0.087,-0.1814 0,0 z m 75.42969,-0.0488 c -0.0523,0.19284 0.0577,-0.18549 0,0 z m -52.25782,0.0879 c -0.17782,0.49004 0.15869,-0.39297 0,0 z m 17.74805,-0.002 c -0.0737,0.20043 0.11229,-0.27668 0,0 z m -40.8457,0.11132 c -0.0881,-0.17612 -0.0836,-0.15806 0,0 z m 17.41992,0.0625 c -0.006,-0.0516 -0.0613,-0.21182 0,0 z m 52.44922,0.0469 c -0.0472,-0.12985 -0.0861,-0.18195 0,0 z m 0,0 c -0.0246,-0.0297 0.10721,0.20083 0,0 z m 0.0449,0.0898 c 0.11102,0.19267 0.0309,0.0349 0,0 z m 0.0547,0.0879 c -0.0502,-0.0598 -0.0289,-0.0354 0,0 z m -69.89844,-0.16992 c -0.0869,-0.15594 -0.0994,-0.1523 0,0 z m 22.92773,0.006 c -0.15882,0.33728 0.18229,-0.34297 0,0 z m 17.75391,-0.0156 c -0.1149,0.25719 0.086,-0.17455 0,0 z m 11.29102,0.10351 c -0.0193,-0.0974 -0.0608,-0.19408 0,0 z m -34.55665,0.0781 c -0.0183,-0.0847 -0.0663,-0.19434 0,0 z m 40.44727,0.0176 c -0.0451,0.19765 0.0512,-0.20233 0,0 z m -57.70312,0.0274 c -0.0372,-0.0593 -0.13492,-0.15984 0,0 z m 40.40624,0 c -0.14389,0.2624 0.146,-0.24904 0,0 z m 11.47266,0.0859 c -0.005,-0.0398 -0.0775,-0.21754 0,0 z m -51.78125,0.0293 c -0.10159,-0.12446 -0.0964,-0.10743 0,0 z m 17.22461,0.0234 c -0.0223,-0.0768 -0.0778,-0.19167 0,0 z m 57.58984,-0.006 c -0.0618,0.179 0.0818,-0.22173 0,0 z m -5.01171,0.0137 c -0.0219,-0.0376 -0.14986,-0.14457 0,0 z m -64.60743,0.0273 c -0.0909,0.25781 0.078,-0.19974 0,0 z m 35,0.008 c -0.16354,0.2472 0.1603,-0.22862 0,0 z m -22.91796,0.082 c -0.0568,-0.14357 -0.0876,-0.1697 0,0 z m 0,0 c 0.004,0.0205 0.006,0 0,0 z m 0.004,0.008 c 0.0973,0.19763 0.0307,0.0374 0,0 z m 0.0488,0.0898 c -0.0728,-0.11057 0.0185,0.0353 0,0 z m 0.002,0.004 c 0.0217,0.0665 0.2672,0.34372 0,0 z m 34.52149,-0.0918 c -0.0644,-0.17434 -0.0702,-0.16506 0,0 z m 0,0 c 0.07,0.19286 0.25081,0.35815 0.25,0.34375 -0.11131,-0.0911 -0.18848,-0.21542 -0.25,-0.34375 z m 0.1914,0.29687 c 0.004,0.0121 0.006,-0.003 0,0 z m 17.76758,-0.41406 c 0.16562,0.15939 0.0124,-0.003 0,0 z m -47.38867,0.0586 c -0.1088,0.17979 0.12498,-0.19631 0,0 z m -17.29297,0.11524 c -0.0746,0.16707 0.11866,-0.24682 0,0 z m -0.0176,0.041 c -0.17111,0.27447 -0.24726,0.30019 -0.13086,0.19727 0.0527,-0.0485 0.13843,-0.19122 0.13086,-0.19727 z m -0.0547,0.10352 c -0.007,0.007 0.002,0.003 0,0 z m 35.00782,-0.1211 c -0.17168,0.22008 0.1865,-0.22257 0,0 z m -5.13086,0.0605 c -0.0662,-0.11635 -0.1039,-0.15378 0,0 z m 39.79101,-0.0586 c -0.0612,0.15466 0.0457,-0.10387 0,0 z m -17.25,0.0469 c -0.0511,0.15303 0.0858,-0.23182 0,0 z m 12.65625,0.0215 c -0.12815,-0.11189 -0.11557,-0.089 0,0 z m -52.72851,0.0449 c -0.0188,-0.01 -0.0488,-0.0784 0,0 z m 22.52734,0.0391 c -0.19829,0.21639 0.2082,-0.2109 0,0 z m 17.49414,0.0254 c -0.0746,0.18907 0.0835,-0.19021 0,0 z m 17.19922,0.0566 c -0.0733,0.16258 0.0847,-0.17537 0,0 z m -56.96094,0.13086 c -0.14552,-0.14096 -0.20781,-0.17242 0,0 z m 17.46875,-0.0273 c -0.0858,-0.12568 -0.12091,-0.15537 0,0 z m 22.2461,-0.0586 c -0.0743,0.16443 0.0845,-0.16059 0,0 z m -0.0195,0.0469 c -0.19251,0.25911 -0.123,0.20833 0,0 z m -17.58594,-0.0195 c -0.1687,0.15746 0.15705,-0.14016 0,0 z m 34.76758,0.0937 c -0.10602,0.2065 0.12642,-0.22171 0,0 z m -0.0273,0.0566 c -0.24277,0.31477 -0.0288,0.0795 0,0 z m -22.14062,0.0176 c -0.12416,-0.0984 -0.12152,-0.0881 0,0 z m -47.6836,-0.0254 c -0.16473,0.12813 0.23149,-0.1677 0,0 z m 13.17579,0.0605 c -0.16476,-0.12857 -0.17616,-0.11755 0,0 z m 4.06835,-0.0234 c -0.1548,0.16784 0.14284,-0.14262 0,0 z m 13.39844,0.0976 c -0.0961,-0.12709 -0.13099,-0.14422 0,0 z m 4.1211,-0.004 c -0.15181,0.12605 0.16508,-0.12949 0,0 z m -17.65235,0.0371 c -0.1253,0.121 0.1499,-0.13509 0,0 z m 35.17774,0.10547 c -0.22442,0.19519 0.2307,-0.1897 0,0 z m -4.20313,0.0215 c -0.13465,-0.0918 -0.17146,-0.10178 0,0 z m -51.71875,0.01 c -0.0751,-0.0682 -0.15929,-0.12674 0,0 z m 17.24024,0.0371 c -0.15575,-0.10838 -0.20888,-0.12277 0,0 z m 17.23828,0.0117 c -0.14424,-0.15982 -0.11712,-0.11439 0,0 z m 3.60156,0.0176 c -0.16573,0.12295 0.20602,-0.14153 0,0 z m 35.01563,0.0137 c -0.15343,0.14113 0.16529,-0.14347 0,0 z m -52.60352,-0.006 c -0.18779,0.14342 0.1458,-0.10549 0,0 z m 49.82031,0.0566 c -0.027,-0.0249 -0.19165,-0.10532 0,0 z m -35.63086,0.10547 c -0.16207,-0.15333 -0.16762,-0.13892 0,0 z m 20.96094,-0.0508 c -0.25151,0.185 0.26971,-0.18396 0,0 z m -3.52734,0.0352 c -0.14294,-0.0874 -0.13233,-0.0692 0,0 z m -51.76758,0.0449 c -0.16755,-0.12905 -0.14963,-0.10196 0,0 z m 17.31055,-0.01 c -0.18336,-0.0962 -0.18983,-0.0872 0,0 z m 2.54687,0.008 c -0.17647,0.10445 0.23883,-0.13354 0,0 z m 17.59766,-0.0137 c -0.22362,0.14477 0.14325,-0.0849 0,0 z m 35.01562,0.0625 c -0.17275,0.14168 0.24467,-0.18352 0,0 z m -37.94726,0.0703 c -0.18978,-0.15386 -0.12176,-0.0861 0,0 z m 35.84765,-0.0293 c -0.0755,-0.0442 -0.18307,-0.0887 0,0 z m -50.61914,-0.0352 c -0.19972,0.10402 0.12601,-0.0582 0,0 z m 35.27149,0.041 c -0.28468,0.17336 0.29268,-0.16044 0,0 z m -2.8711,0.0469 c -0.2046,-0.0988 -0.16111,-0.0699 0,0 z m -32.56445,-0.01 c -0.1806,0.0801 0.22652,-0.0942 0,0 z m -19.28125,0.0664 c -0.19794,-0.12614 -0.19905,-0.11057 0,0 z m 36.84765,-0.0371 c -0.24785,0.13591 0.24878,-0.1269 0,0 z m -35.04296,0.006 c -0.24242,0.1252 0.26828,-0.12738 0,0 z m 15.72656,0.0215 c -0.10234,-0.0379 -0.19484,-0.0556 0,0 z m 1.63086,-0.01 c -0.22857,0.084 0.23138,-0.0786 0,0 z m 15.26367,0.0781 c -0.19656,-0.13591 -0.20497,-0.12077 0,0 z m 37.52148,-0.0508 c -0.26706,0.18187 0.2592,-0.16441 0,0 z m -17.49609,0.0273 c -0.31664,0.15208 0.32262,-0.13976 0,0 z m 15.97656,0.0293 c -0.20421,-0.0983 -0.16142,-0.0658 0,0 z m -51.41015,-0.0391 c -0.15957,0.0497 0.20755,-0.0562 0,0 z m 33.19726,0.0625 c -0.2244,-0.0883 -0.19069,-0.0645 0,0 z m -33.33008,-0.0273 c -0.22348,0.0537 0.24382,-0.0508 0,0 z m -18.61523,0.0801 c -0.1372,-0.0848 -0.3638,-0.16444 0,0 z m 36.29102,-0.041 c -0.18479,0.0842 0.27784,-0.11588 0,0 z m -35.04688,0 c -0.31044,0.12998 0.27693,-0.10428 0,0 z m 33.09375,0.0547 c -0.22278,-0.12586 -0.18653,-0.0902 0,0 z m 37.14453,-0.0312 c -0.35408,0.23003 -1.05376,0.10066 -0.48986,0.14827 0.0882,0.003 0.21628,-0.007 0.40197,-0.0955 -0.001,0.003 0.32939,-0.17072 0.0879,-0.0527 z m -53.69922,-0.0254 c -0.11986,-0.0236 -0.20017,-0.0192 0,0 z m 0.5586,0.006 c -0.25652,0.0296 0.21834,-0.0182 0,0 z m 35.58593,0.0332 c -0.33574,0.12322 0.30187,-0.0965 0,0 z m -35.79296,-0.0195 c 0.19357,-0.002 0.0859,-0.01 0,0 z m -0.0254,0.002 c -0.16579,-0.01 -0.17348,-0.002 0,0 z m 52.35156,0.0586 c -0.22001,-0.0847 -0.21887,-0.0684 0,0 z m -18.16992,0.0117 c -0.22475,-0.0686 -0.22982,-0.0537 0,0 z m -52.08204,0.0254 c -0.22859,-0.0951 -0.2809,-0.0868 0,0 z m 0,0 c 0.15875,0.0473 0.28273,0.0669 0.52344,0.043 0.37028,-0.0733 -0.31624,0.0607 -0.52344,-0.043 z m 34.32032,0.0195 c -0.22643,-0.10276 -0.23238,-0.087 0,0 z m -33.55078,-0.043 c -0.3581,0.11069 0.38596,-0.10113 0,0 z m 35.09179,-0.004 c -0.31384,0.11617 0.22158,-0.074 0,0 z m 17.58789,0.0254 c -0.34746,0.0897 0.34522,-0.0712 0,0 z m 17.05664,0.0332 c -0.25145,-0.0718 -0.25448,-0.056 0,0 z m -18.09961,0.008 c -0.27542,-0.0592 -0.19533,-0.0282 0,0 z m -17.90625,0.0352 c -0.25495,-0.0883 -0.18398,-0.0508 0,0 z m 1.0879,-0.0195 c -0.23909,0.0648 0.33064,-0.0792 0,0 z m 17.58007,-0.008 c -0.32188,0.0478 0.37471,-0.0376 0,0 z m -0.44726,0.0234 c -0.16349,-0.0279 -0.35458,-0.0187 0,0 z m 0.082,0.004 c 0.21556,-3e-4 0.32934,-0.0162 0,0 z m -18.10547,0.043 c -0.19116,-0.0525 -0.26153,-0.0448 0,0 z m 0.68945,-0.0195 c -0.32481,0.0612 0.2652,-0.0407 0,0 z m -0.51953,0.0352 c -0.26508,-0.0369 -0.2084,-0.0179 0,0 z m 0.3086,-0.01 c -0.35043,0.0368 0.30451,-0.0166 0,0 z m -0.29493,0.01 c 0.22784,0.0105 0.16943,-0.006 0,0 z" />
        <path
           id="path5133"
           style="fill:#954db1;fill-opacity:1;stroke-width:5.47513"
           d="m 123.26758,292.42578 c -15.01694,0.0766 -30.035906,0.0635 -45.050284,0.37855 -8.382477,0.25569 -16.764528,0.55152 -25.146984,0.81872 -2.876149,2.71707 -5.757552,5.42858 -8.634765,8.14453 0.04729,33.96143 0.02915,67.92301 0.134618,101.88432 0.09668,20.56617 0.182265,41.13395 0.603236,61.69651 0.116602,5.04156 0.373475,10.09146 1.043341,15.09245 0.326211,2.47575 1.113609,5.02971 3.014125,6.76071 0.968558,0.96933 1.938809,1.93696 2.905852,2.90781 31.790668,0.30509 63.580481,0.74671 95.372941,0.81632 42.9344,0.10084 85.86977,0.0502 128.80297,-0.30711 9.42288,-0.10669 18.84898,-0.14589 28.26748,-0.46349 2.38414,-0.10283 4.91004,-0.4053 6.9361,-1.76498 2.44338,-1.71402 3.167,-4.82689 3.63341,-7.60106 0.84731,-5.68802 0.98934,-11.45053 1.29126,-17.18573 0.62909,-14.14292 0.64161,-28.30421 0.73569,-42.4584 0.0871,-30.65044 -0.11233,-61.30278 -0.71557,-91.94766 -0.21123,-8.61962 -0.35196,-17.24566 -0.9206,-25.8508 -0.13761,-1.67671 -0.1475,-3.50781 -1.28845,-4.86795 -1.44506,-1.90483 -3.3918,-3.56415 -5.70703,-4.26758 -3.26749,-0.6074 -6.6132,-0.57899 -9.92222,-0.76484 -16.67171,-0.51036 -33.353,-0.57431 -50.03084,-0.71385 -41.77407,-0.267 -83.54937,-0.41054 -125.32428,-0.30647 z m 39.35937,17.9961 c 12.07801,-0.004 24.17199,0.20532 36.20833,0.66173 3.79294,0.19102 7.60629,0.24639 11.37175,0.76991 0.48034,0.20813 0.42955,0.95908 0.19727,1.3125 -1.64603,0.68166 -3.47546,0.74676 -5.22688,0.95895 -6.21313,0.35747 -12.37302,0.39513 -18.61667,0.48834 -12.46869,0.11445 -24.94146,0.1936 -37.40806,-0.10709 -1.43551,-0.0901 -2.91663,0.0129 -4.31908,-0.30327 -0.72331,-0.30204 -1.12786,-1.1106 -1.06017,-1.86506 1.15542,-0.90817 2.72769,-1.00627 4.12635,-1.2894 2.31932,-0.37507 4.66947,-0.46814 7.01427,-0.53091 1.41269,-0.0189 3.05972,-0.0665 4.56443,-0.072 1.04949,-0.008 2.09897,-0.016 3.14846,-0.0237 z M 98.699219,311.25 c 4.756031,0.0776 9.588861,0.31987 14.167971,1.70898 3.76617,1.46951 7.1585,3.81051 10.12668,6.5362 3.60195,3.35071 6.43119,7.52555 8.24271,12.09503 1.01768,2.95361 0.5197,6.12893 0.37329,9.17622 -0.43223,5.60026 -2.20762,11.27259 -5.98974,15.53297 -2.89607,3.35386 -6.68648,5.80125 -10.64161,7.72794 -0.32581,0.15409 -1.03105,0.49322 -1.51371,0.70077 -3.13586,1.3993 -6.528,2.13387 -9.93356,2.47697 -0.86986,0.094 -2.02422,0.17799 -3.00781,0.23047 -6.512007,0.35202 -13.307739,-0.32218 -19.119781,-3.49336 -4.757389,-2.57522 -8.710942,-6.45723 -11.899514,-10.78823 -2.283757,-3.05737 -3.479898,-6.8194 -3.672366,-10.61158 -0.426512,-4.96216 0.299087,-10.05752 2.439698,-14.57805 3.124382,-6.77267 8.96172,-12.20992 15.859233,-15.00318 3.566654,-1.17073 7.349388,-1.45576 11.076321,-1.64865 0.740265,-0.0279 1.779804,-0.0568 2.637889,-0.0596 0.284766,-9.6e-4 0.569532,-0.002 0.854299,-0.003 z m 157.250001,0.0332 c 1.57244,0.005 3.10141,0.0508 4.59961,0.14258 0.73105,0.0487 1.75065,0.12233 2.59497,0.21658 3.37488,0.36326 6.82703,0.91952 9.81271,2.63379 5.21569,2.64649 9.45046,6.89022 12.74174,11.67254 1.10502,1.52776 2.33984,3.36114 2.52492,5.39334 0.42209,3.67832 0.22336,7.39328 0.25549,11.08803 -0.0619,2.81668 0.007,5.85194 -1.60823,8.30274 -2.07714,3.53004 -4.8403,6.62105 -8.02318,9.18961 -3.72039,2.98397 -7.94297,5.6128 -12.71582,6.42666 -5.65211,1.04898 -11.45805,1.31837 -17.18329,0.80414 -2.74442,-0.19363 -5.40959,-0.9813 -7.88034,-2.17615 -0.51999,-0.24008 -1.07956,-0.52111 -1.67874,-0.83796 -5.64194,-3.04521 -10.71028,-7.36337 -14.05789,-12.87979 -1.2366,-1.75121 -1.79061,-3.87404 -1.84213,-5.99861 -0.15145,-3.94256 -0.14514,-7.89517 0.006,-11.83769 0.065,-2.23511 0.57175,-4.49196 1.85332,-6.3581 3.78037,-6.20733 9.51998,-11.25729 16.25643,-14.01922 3.50936,-1.17553 7.23668,-1.48292 10.91079,-1.68631 1.01582,-0.0483 2.31494,-0.0754 3.4336,-0.0762 z m -99.42774,14.46289 c 1.14772,0.0199 1.39434,1.39407 1.29073,2.29889 -0.0823,0.64927 -0.15875,1.63465 -0.99131,1.70437 -1.12027,0.44863 -2.496,0.37831 -3.3541,-0.55404 -0.42511,-0.40511 -0.8481,-0.82417 -1.16992,-1.31836 1.14696,-1.04567 2.60035,-2.13765 4.2246,-2.13086 z m 43.03711,0.043 c 1.32522,0.0911 2.89627,1.3575 2.37305,2.80078 -0.56524,1.29975 -2.25104,1.63316 -3.51758,1.39258 -1.30108,-0.19005 -2.52108,-1.71783 -1.72265,-2.96875 0.62377,-0.88 1.81397,-1.31142 2.86718,-1.22461 z m -21.64257,0.0664 c 0.90821,0.14126 1.80554,0.53529 2.49414,1.14258 -0.16262,0.88794 -0.53671,1.82064 -1.16966,2.47291 -1.38633,1.02159 -3.88351,0.66549 -4.3975,-1.15928 -0.35546,-1.64579 1.6806,-2.6925 3.07302,-2.45621 z m 0.10156,22.26562 c 1.95837,0.17853 2.41892,3.20065 0.77539,4.14258 -1.4763,1.09592 -4.09889,0.033 -4.00031,-1.91625 0.062,-1.57488 1.85099,-2.3312 3.22492,-2.22633 z m -21.89844,0.20703 c 0.87887,-0.006 1.92209,0.64772 1.68923,1.64724 -0.10956,1.06953 -0.48825,2.41162 -1.71267,2.64378 -1.58529,0.37521 -2.94974,-0.84791 -3.80468,-2.04102 0.93734,-1.17037 2.20421,-2.38265 3.82812,-2.25 z m 43.73828,0.0781 c 0.87804,-0.0342 1.69713,0.52286 2.05664,1.30273 -0.23004,1.31474 -1.00629,2.84835 -2.50195,2.97461 -1.37927,0.22813 -3.12549,-0.77195 -2.91016,-2.33398 0.13204,-1.22354 1.55547,-1.71108 2.5991,-1.90014 0.25055,-0.0327 0.50357,-0.0518 0.75637,-0.0432 z m -30.77734,14.97461 c 8.95017,0.0129 17.90106,0.0973 26.84765,0.36133 2.75288,0.0983 5.82088,0.1995 8.52735,0.41992 1.91073,0.21922 3.86472,0.25392 5.72656,0.76758 -0.0695,0.39649 0.2194,1.10208 -0.15839,1.31352 -1.6112,0.42784 -3.48097,0.51012 -5.00763,0.69624 -6.42526,0.43193 -12.87079,0.44045 -19.3076,0.5498 -12.14793,0.11354 -24.30017,0.19273 -36.44578,-0.11768 -1.47337,-0.10994 -3.01409,0.0512 -4.43087,-0.41606 -0.77633,-0.27372 -1.30015,-1.32747 -0.83918,-2.03363 2.50119,-1.46501 5.50912,-1.16769 8.2898,-1.34694 5.49314,-0.16199 11.22192,-0.18607 16.79809,-0.19408 z m -16.60547,22.71484 c 39.4748,0.0308 78.95031,0.13881 118.42305,0.56485 7.448,0.0841 15.00074,0.1794 22.38164,0.37265 1.28388,0.0487 2.53584,0.0751 3.74414,0.14453 0.38066,6.215 0.39194,12.4688 0.5045,18.73487 0.18319,18.83023 0.20259,37.66425 -0.14463,56.49269 -0.0755,3.37402 -0.12966,6.64433 -0.35792,10.00096 -0.89595,0.0535 -1.76226,0.0686 -2.73729,0.10214 -10.35724,0.25956 -20.88552,0.32351 -31.31026,0.42194 -43.58374,0.32517 -87.16921,0.39823 -130.75399,0.3112 -16.5926,-0.0605 -33.186695,-0.076 -49.777034,-0.37911 -4.143932,-0.0701 -8.378083,-0.33183 -12.588121,-0.51897 -1.226336,-0.0585 -2.452672,-0.11699 -3.679007,-0.17548 -0.320691,-8.56989 -0.736474,-17.18271 -0.982962,-25.71241 -0.278527,-12.14452 -0.267463,-24.37019 0.08062,-36.46728 0.283429,-7.53386 0.603848,-15.06632 0.902344,-22.59961 5.273446,-0.3699 10.540236,-0.89944 15.831353,-0.92482 18.145577,-0.32062 36.295057,-0.30747 54.442867,-0.35812 5.34023,-0.003 10.68046,-0.007 16.0207,-0.01 z" />
        <path
           id="path15569"
           style="fill:#712190;fill-opacity:1;stroke-width:5.47513"
           d="m 328.44727,270.74414 c -1.5294,-0.0457 -2.93056,1.12718 -3.125,2.65039 -0.19381,1.32813 -0.0179,2.70484 -0.52491,3.98239 -1.37096,4.57915 -4.05758,8.58311 -6.26758,12.77679 -0.53526,0.56034 0.35622,1.02517 0.59023,1.53411 1.25777,1.77322 2.78849,3.41301 3.46791,5.52297 1.09005,2.9277 1.7962,6.02164 1.81247,9.1564 0.0293,0.83287 0.0745,2.00862 0.0979,2.90341 0.42698,16.93533 0.49612,33.87724 0.61068,50.81689 0.13915,32.96699 0.0671,65.93439 0.0984,98.90157 0.002,6.02448 0.003,12.04896 0.006,18.07344 3.3764,-2.92748 6.66965,-5.95288 10.10547,-8.81055 2.00799,-1.54344 4.15245,-3.3098 5.16891,-5.75665 1.61215,-3.73243 1.80609,-7.86813 2.13382,-11.86639 0.59363,-10.68221 0.4968,-21.38733 0.52344,-32.08203 -0.045,-27.94731 -0.1947,-55.89437 -0.25924,-83.84165 -0.0597,-19.3132 -0.11714,-38.62641 -0.17826,-57.93961 -2.18767,-1.57609 -4.22486,-3.44736 -6.79466,-4.39284 -2.35942,-0.98691 -4.90638,-1.57397 -7.4651,-1.62864 z" />
        <path
           id="path16424"
           style="fill:#712190;fill-opacity:1;stroke-width:5.47513"
           d="m 333.54492,164.85742 c -1.76849,0.28677 -3.23174,1.45323 -4.72425,2.36988 -5.12764,3.42373 -9.81301,7.44706 -14.38677,11.56708 -0.98979,0.87507 -1.97943,1.7503 -2.96906,2.62554 4.32189,3.84707 8.64726,7.68795 12.97071,11.5332 5.74502,-4.58423 11.75966,-8.95393 16.59559,-14.53998 1.08584,-1.36332 2.43532,-2.9276 2.1798,-4.79791 -0.54703,-2.0676 -2.17443,-3.61028 -3.60685,-5.11045 -1.56294,-1.4352 -3.17784,-3.03787 -5.28133,-3.60657 -0.25546,-0.0346 -0.52067,-0.0817 -0.77784,-0.0408 z" />
        <path
           id="path16385"
           style="fill:#712190;fill-opacity:1;stroke-width:5.47513"
           d="m 339.94922,188.68164 c -1.41719,0.45692 -2.51579,1.56128 -3.69782,2.42845 -3.79231,3.05719 -7.3643,6.3754 -11.04046,9.5696 0,21.25651 0,42.51302 0,63.76953 2.73779,-0.42068 5.51301,-0.62899 8.22489,-1.19882 2.83473,-0.73087 5.59371,-2.04322 7.61015,-4.21459 0.73463,-0.68972 1.46896,-1.37975 2.20402,-2.06901 -0.0287,-15.78508 0.0692,-31.57076 -0.0762,-47.35538 -0.10555,-6.00353 -0.11461,-12.01598 -0.53078,-18.00769 -0.0727,-1.05385 -0.24917,-2.42522 -1.39658,-2.81827 -0.44256,-0.336 -0.79842,-0.28362 -1.29722,-0.10382 z" />
        <path
           id="path16463"
           style="fill:#712190;fill-opacity:1;stroke-width:5.47513"
           d="m 92.511719,164.8457 c -3.406027,0.15951 -6.82948,0.27137 -10.203438,0.7935 -3.507692,0.52897 -6.481262,2.62423 -9.177179,4.79944 -4.112343,3.34464 -8.130007,6.80404 -12.193602,10.20784 80.91602,-0.003 161.83203,-0.005 242.74805,-0.006 5.78405,-5.24066 11.56855,-10.48083 17.35156,-15.72265 -5.43659,0.0146 -10.87528,-0.11779 -16.31055,0.006 -1.86461,0.0586 -3.99176,0.50885 -5.02734,2.23242 -0.8886,1.17972 -0.88617,2.95347 -2.1836,3.81641 -2.31278,1.11141 -4.95699,0.76727 -7.44121,0.91868 -19.20828,0.31802 -38.42027,0.30379 -57.63066,0.35893 -37.34093,0.0247 -74.6827,-0.0104 -112.02221,-0.36378 -5.97548,-0.112 -11.95816,-0.072 -17.927,-0.38927 -1.73258,-0.28618 -3.015476,-1.70451 -3.629306,-3.28238 -0.670147,-1.55353 -1.961899,-2.95399 -3.70963,-3.19437 -0.867118,-0.18347 -1.761437,-0.18016 -2.643885,-0.17477 z" />
        <path
           id="path3749"
           style="fill:#ffffff;stroke-width:7.743"
           d="m 307.43945,21.671875 c -42.34634,0.03137 -84.69278,-0.0036 -127.03904,0.09013 -12.32515,0.074 -24.65577,0.04639 -36.97366,0.518239 -4.21598,0.236066 -8.50949,0.33086 -12.58952,1.526308 -2.83893,0.954362 -5.46198,2.455751 -8.02278,3.988372 -4.46989,2.743282 -8.13831,6.60905 -11.12583,10.887342 -1.77909,2.55091 -3.50119,5.141286 -5.25698,7.708361 0,39.928385 0,79.856773 0,119.785153 61.82552,0 123.65104,0 185.47656,0 0.26153,-29.25165 0.46409,-58.50388 0.76125,-87.755166 0.0826,-6.851637 0.17369,-13.693634 0.46383,-20.501553 0.0709,-1.650238 0.15265,-3.281452 0.26699,-4.852364 0.35809,-4.463948 0.65681,-9.035877 2.28592,-13.253106 1.5648,-4.009381 5.05048,-6.746235 8.00007,-9.70819 2.89496,-2.811808 5.78992,-5.623615 8.68483,-8.435477 -1.64388,6.51e-4 -3.28776,0.0013 -4.93164,0.002 z M 158.3457,65.648438 c 9.52328,-0.03681 19.22635,3.510615 25.86862,10.459631 2.80027,2.7967 4.57001,6.602618 7.96477,8.792075 1.20334,0.78844 2.77216,1.062872 4.11974,0.490481 3.32997,-0.447363 6.57858,-0.51354 9.93298,-0.680147 14.60434,-0.563003 29.28615,-0.773337 43.94044,-0.813453 5.52353,0.01474 11.06318,0.0023 16.53468,0.240664 1.38531,0.124458 2.92577,2.26e-4 4.14463,0.762702 0.54285,1.559481 0.32737,3.27044 0.34518,4.897405 -0.17119,3.682694 -0.14455,7.399431 -0.78084,11.040514 -0.16118,1.04455 -0.63448,2.15065 -1.70941,2.5287 -2.12649,0.82663 -3.98399,2.52236 -4.56758,4.78187 -0.6432,2.10574 -0.25683,4.19942 -0.71666,6.33285 -0.19776,0.86174 -0.29288,1.85144 -0.79248,2.57534 -2.3679,1.06041 -5.00335,1.29724 -7.54774,1.65387 -5.69428,0.585 -11.46745,0.8191 -17.16211,0.11718 -1.85125,-0.3049 -3.75938,-0.66315 -5.41992,-1.56835 -0.87874,-0.78567 -0.79984,-2.11605 -0.98587,-3.19128 -0.28613,-3.30563 -0.49529,-6.61769 -0.75046,-9.92591 -6.55785,-0.0374 -13.11774,0.0834 -19.67414,-0.0782 -3.22532,-0.1284 -6.45224,-0.3258 -9.65203,-0.76362 -0.53684,-0.0854 -1.40234,-0.20473 -2.06144,-0.35343 -2.09539,-0.4617 -4.17584,-1.76655 -6.38364,-1.14731 -1.87612,0.47576 -2.77795,2.33892 -3.67244,3.87188 -2.02994,3.22987 -4.72813,5.99728 -7.69107,8.38081 -0.30159,0.22967 -0.90237,0.70254 -1.32813,1.01172 -1.11471,0.80882 -2.26687,1.56586 -3.45898,2.25586 -0.30416,0.17787 -0.9642,0.54199 -1.41211,0.77344 -3.55317,1.88005 -7.50359,2.82186 -11.41707,3.61365 -3.05641,0.56312 -6.20001,0.71689 -9.2841,0.28869 -0.48924,-0.0718 -1.31433,-0.18967 -1.92832,-0.32601 -5.78035,-1.14058 -11.46623,-3.30555 -16.07433,-7.05427 -6.15349,-4.87071 -10.34385,-12.36605 -10.5872,-20.277919 -0.2742,-6.588048 2.35874,-13.112829 6.75681,-17.969659 5.8399,-6.5846 14.54922,-10.161685 23.24262,-10.648904 0.73496,-0.04771 1.47124,-0.06495 2.2076,-0.07089 z" />
        <path
           id="path3825"
           style="fill:#ffffff;stroke-width:7.743"
           d="m 451.64844,339.60938 c -5.65662,0.35716 -10.62059,3.72332 -16.27173,4.12655 -4.28747,0.25146 -8.22105,-1.77516 -12.17901,-3.10387 -2.53149,-0.93624 -5.30306,-1.25766 -7.95467,-0.67301 -2.7102,0.5316 -5.3298,1.42496 -7.98326,2.17572 -0.45474,0.12217 -1.25862,0.35044 -1.85493,0.48947 -3.71456,0.96245 -7.71907,1.3913 -11.42377,0.14451 -1.55054,-0.35135 -2.93775,-1.40011 -4.56473,-1.3603 -1.67892,0.0646 -2.71626,1.69765 -2.9378,3.21699 -0.60757,3.60513 -0.47034,7.28368 -0.54994,10.92642 0.0209,6.53686 -0.1303,13.081 0.20574,19.61179 0.16686,3.54255 0.81221,7.15277 2.65123,10.23793 3.01132,5.38499 6.87459,10.38721 11.86561,14.07719 3.38533,2.50307 7.11506,4.56298 11.05585,6.04662 4.95632,1.55618 10.21113,1.85493 15.37484,1.80611 5.81396,-0.13849 11.80146,-0.78029 17.06327,-3.43826 6.05335,-3.01112 11.41616,-7.41972 15.567,-12.75465 3.2493,-4.27727 5.50573,-9.38944 6.04924,-14.76024 0.67257,-6.30482 0.46497,-12.65908 0.51401,-18.9889 0,-4.78932 0,-9.57864 0,-14.36797 -3.52793,-1.00519 -7.00145,-2.21708 -10.57474,-3.0522 -1.33049,-0.28154 -2.69179,-0.42514 -4.05221,-0.3599 z" />
        <path
           id="path3864"
           style="fill:#a7a7a7;fill-opacity:1;stroke-width:7.743"
           d="m 337.26758,22.474609 c -4.67777,0.0095 -9.4908,0.284271 -13.82328,2.219556 -6.78009,2.944776 -13.08839,7.22736 -17.77883,12.992318 -2.10333,2.769842 -4.01124,5.683947 -6.03461,8.512736 -0.30896,37.201168 -0.61579,74.402351 -0.92578,111.603511 9.91022,0.77048 19.83105,1.41361 29.73207,2.29578 4.10367,0.45875 8.31274,0.73861 12.20208,2.23128 2.41283,1.07883 4.67161,2.66874 6.2735,4.79123 2.08352,2.9848 2.54782,6.71751 2.99206,10.24008 0.62891,6.11353 0.68449,12.14754 0.74245,18.28809 0.0367,14.00921 -0.19082,28.01775 -0.41875,42.02468 -0.10637,4.79286 -0.1882,9.47362 -0.52562,14.2614 -0.0596,0.87699 -0.11544,1.54092 -0.21561,2.44277 -0.25166,2.48675 -0.72513,5.07966 -2.32492,7.08633 -1.43904,2.02864 -2.88831,4.05008 -4.33031,6.07665 2.61435,3.20059 5.22932,6.40068 7.8457,9.5996 0.0376,43.31836 0.0737,86.63672 0.11133,129.95508 6.87913,0.73035 13.76416,1.50833 20.68867,1.60748 6.1806,0.14082 12.38281,-0.0988 18.49563,-1.06724 2.68469,-0.36738 5.36936,-0.73489 8.05398,-1.10274 -3.36207,-3.65913 -6.5897,-7.44486 -10.06493,-10.99799 -1.86847,-1.79516 -3.65579,-3.80774 -4.44299,-6.32987 -1.44463,-4.34709 -1.77007,-8.9601 -2.16751,-13.49509 -0.73691,-10.43965 -0.90551,-20.82453 -1.0922,-31.27883 -0.3791,-26.11435 -0.41265,-52.2321 -0.53357,-78.34852 -0.18915,-46.01093 -0.32495,-92.02212 -0.5684,-138.03279 -0.13967,-19.33442 -0.1942,-38.673694 -0.81725,-57.999915 -0.30177,-7.231734 -0.51472,-14.496728 -1.67447,-21.653711 -0.62681,-3.684074 -1.73512,-7.479796 -4.3802,-10.247473 -1.94183,-1.965406 -3.84171,-3.973814 -5.8311,-5.892216 -4.16684,-3.986547 -9.27007,-7.074636 -14.90484,-8.434028 -4.65834,-1.184487 -9.49633,-1.393531 -14.2823,-1.348158 z" />
        <path
           style="fill:#000000;stroke-width:1.01527"
           d="m 54.396362,497.0391 c -4.00669,-0.73948 -10.87703,-5.52671 -13.35382,-9.30488 l -2.44794,-3.73418 -0.018,-91.8139 c -0.0177,-90.19835 0.0207,-91.8755 2.17798,-95.31524 1.20777,-1.92572 2.80268,-4.24451 3.54424,-5.15284 1.06956,-1.31006 1.06956,-1.99292 0,-3.303 -5.97531,-7.31905 -5.74019,-5.22203 -5.74019,-51.19655 0,-40.18119 0.11694,-42.73669 2.10696,-46.04371 2.53975,-4.22056 30.95224,-28.69697 35.57583,-30.64742 1.80222,-0.76024 7.36982,-1.61407 12.37243,-1.89738 5.00261,-0.28331 9.42624,-0.80076 9.8303,-1.14991 0.40405,-0.34915 0.78665,-24.69952 0.85022,-54.11193 0.12939,-59.861015 0.0485,-59.146095 7.881328,-69.616985 6.85158,-9.1591 18.51857,-16.0088 31.11626,-18.26841 3.96071,-0.71043 37.29024,-0.94804 107.82684,-0.76872 l 102.09414,0.25955 7.09965,2.60381 c 9.92989,3.64179 17.24362,8.69613 22.66126,15.66063 8.87956,11.4149 8.25717,-0.46939 8.16211,155.851005 -0.0465,76.5589 0.16801,140.37704 0.47681,141.81807 0.42414,1.97937 1.86529,3.19094 5.89329,4.95451 6.822,2.98684 8.45375,2.93721 16.32703,-0.49673 3.57018,-1.55713 7.50229,-2.83114 8.73804,-2.83114 1.23575,0 5.16786,1.27401 8.73804,2.83114 3.57018,1.55713 7.5023,2.83115 8.73804,2.83115 1.23574,0 5.16786,-1.27402 8.73804,-2.83115 8.34887,-3.64134 9.72874,-3.55857 20.20672,1.21202 l 8.73804,3.97842 0.54613,16.04315 c 0.30036,8.82374 0.18296,18.80353 -0.26091,22.17731 -2.27362,17.2813 -19.87761,32.5087 -40.15253,34.73183 -3.90481,0.42815 -22.58238,0.65191 -41.50569,0.49723 -18.92332,-0.15467 -35.45621,-0.0798 -36.73975,0.16656 -2.28948,0.43931 -2.34228,0.88152 -2.78667,23.34177 -0.41778,21.11497 -0.63356,23.1873 -2.77696,26.66884 -2.42461,3.93832 -30.09263,28.07159 -35.79285,31.2201 -3.17856,1.75567 -7.07466,1.81338 -129.97835,1.92504 -69.68588,0.0634 -127.684618,-0.0663 -128.886098,-0.28807 z m 255.204158,-9.07427 c 6.02995,-3.53786 5.8448,-0.46757 5.8448,-96.92073 0,-86.92923 -0.054,-89.24987 -2.1347,-91.90506 -4.33872,-5.53638 1.54857,-5.30231 -131.90452,-5.24435 -92.038378,0.04 -123.585198,0.33433 -126.425788,1.17965 -2.16268,0.64358 -4.85466,2.50084 -6.28046,4.33301 l -2.4954,3.20664 v 88.59998 c 0,93.54478 -0.0514,92.53113 4.8699,96.05758 1.06234,0.76125 4.21045,1.6433 6.99579,1.96012 2.78534,0.31681 59.868168,0.54333 126.850708,0.50335 115.36494,-0.0689 121.93898,-0.16219 124.67967,-1.77019 z M 64.991242,473.90229 c -1.88673,-1.63014 -1.88673,-86.7016 0,-88.33174 1.90194,-1.64329 231.403738,-1.64329 233.305678,0 1.88673,1.63014 1.88673,86.7016 0,88.33174 -1.90194,1.64329 -231.403738,1.64329 -233.305678,0 z m 113.282698,-7.50192 c 55.01909,0.0466 101.87789,-0.15223 104.13067,-0.44193 l 4.09595,-0.52674 v -35.72253 c 0,-19.81731 -0.43223,-35.95334 -0.97078,-36.24093 -0.53394,-0.28512 -48.57951,-0.53095 -106.76793,-0.5463 l -105.797148,-0.0279 -0.2863,36.11325 c -0.15747,19.86229 -0.037,36.67455 0.26768,37.36058 0.35863,0.80746 1.38961,1.01817 2.92357,0.59753 1.30326,-0.35739 47.385188,-0.61164 102.404288,-0.565 z m -87.755138,-7.00433 c -1.3282,-1.14757 -1.7164,-3.58693 -1.7164,-10.78532 0,-10.04221 1.06455,-12.26829 5.86696,-12.26829 4.33584,0 5.05558,1.69671 5.05558,11.91777 0,10.19999 -1.04683,12.61882 -5.46127,12.61882 -1.11566,0 -2.80086,-0.66734 -3.74487,-1.48298 z m 17.476078,0 c -1.48372,-1.28193 -1.7164,-5.30278 -1.7164,-29.65962 0,-30.43981 0.13241,-31.1426 5.86697,-31.1426 4.95146,0 5.05558,0.64466 5.05558,31.29815 0,27.73844 -0.0943,29.07678 -2.11271,30.01014 -2.96331,1.37025 -5.09807,1.21794 -7.09344,-0.50607 z m 17.47609,0 c -1.45741,-1.25921 -1.71641,-4.64831 -1.71641,-22.46042 0,-22.43505 0.1897,-23.24236 5.46127,-23.24236 5.27159,0 5.46128,0.80731 5.46128,23.24236 0,22.31782 -0.37077,23.9434 -5.46128,23.9434 -1.11565,0 -2.80085,-0.66734 -3.74486,-1.48298 z m 17.47607,0 c -1.16964,-1.01058 -1.7164,-3.24377 -1.7164,-7.01045 0,-6.05757 1.68262,-8.49344 5.86698,-8.49344 3.90932,0 5.05557,1.84623 5.05557,8.14291 0,6.24112 -1.60729,8.84396 -5.46127,8.84396 -1.11566,0 -2.80086,-0.66734 -3.74488,-1.48298 z m 17.47608,0 c -1.47186,-1.27169 -1.7164,-4.95961 -1.7164,-25.88476 0,-26.33509 0.22138,-27.36774 5.86697,-27.36774 4.88862,0 5.05559,0.89225 5.05559,27.01722 0,26.38979 -0.26175,27.71826 -5.46128,27.71826 -1.11567,0 -2.80086,-0.66734 -3.74488,-1.48298 z m 17.47609,0 c -1.3282,-1.14757 -1.7164,-3.58693 -1.7164,-10.78532 0,-10.04221 1.06455,-12.26829 5.86697,-12.26829 4.33582,0 5.05557,1.69671 5.05557,11.91777 0,10.19999 -1.04683,12.61882 -5.46127,12.61882 -1.11566,0 -2.80086,-0.66734 -3.74487,-1.48298 z m 17.47608,0 c -1.48372,-1.28193 -1.71641,-5.30278 -1.71641,-29.65962 0,-30.43981 0.13241,-31.1426 5.86698,-31.1426 4.95145,0 5.05558,0.64466 5.05558,31.29815 0,27.73844 -0.0943,29.07678 -2.11271,30.01014 -2.96332,1.37025 -5.09807,1.21794 -7.09344,-0.50607 z m 17.47608,0 c -1.45741,-1.25921 -1.7164,-4.64831 -1.7164,-22.46042 0,-15.05749 0.36989,-21.29703 1.3107,-22.1099 2.07689,-1.79444 7.19969,-1.3759 8.48117,0.69293 0.6788,1.09588 1.13068,9.93199 1.13068,22.1099 0,21.57144 -0.3944,23.25047 -5.46128,23.25047 -1.11566,0 -2.80086,-0.66734 -3.74487,-1.48298 z m 17.47608,0 c -1.99283,-1.72182 -2.38074,-10.7806 -0.58572,-13.6785 1.28147,-2.06883 6.40427,-2.48738 8.48116,-0.69293 0.73886,0.63837 1.3107,3.69697 1.3107,7.01045 0,6.24112 -1.60729,8.84396 -5.46127,8.84396 -1.11566,0 -2.80086,-0.66734 -3.74487,-1.48298 z m 17.47608,0 c -1.4706,-1.27061 -1.71641,-4.92848 -1.71641,-25.54235 0,-14.78003 0.4361,-24.76339 1.13068,-25.88475 0.72288,-1.16702 2.28482,-1.8254 4.3306,-1.8254 2.04578,0 3.60772,0.65838 4.3306,1.8254 0.69458,1.12136 1.13068,11.10472 1.13068,25.88475 0,25.64167 -0.27961,27.02533 -5.46128,27.02533 -1.11566,0 -2.80085,-0.66734 -3.74487,-1.48298 z m 17.47608,0 c -1.43482,-1.23969 -1.7164,-4.30514 -1.7164,-18.68556 0,-18.52454 0.27325,-19.46749 5.6413,-19.46749 4.71469,0 5.28125,2.16274 5.28125,20.16042 0,17.51335 -0.55025,19.47561 -5.46127,19.47561 -1.11567,0 -2.80087,-0.66734 -3.74488,-1.48298 z M 85.563322,367.31651 c -8.18743,-2.79285 -16.45702,-10.05572 -19.5303,-17.15274 -6.29886,-14.54573 0.52758,-30.36829 16.37378,-37.95169 5.33597,-2.5536 6.76038,-2.79895 16.22589,-2.79481 9.130128,0.004 11.032378,0.30591 15.837698,2.51368 7.29384,3.3511 12.91307,8.56571 16.45787,15.27279 2.59742,4.91455 2.86502,6.36944 2.43018,13.21201 -0.7464,11.74502 -6.79025,20.09663 -18.54296,25.62335 -7.94207,3.73477 -20.447348,4.28086 -29.252158,1.27741 z m 26.014758,-9.56984 c 2.48163,-1.41893 5.86791,-4.35008 7.52507,-6.51368 2.70581,-3.53271 3.01303,-4.76577 3.01303,-12.09323 0,-7.32746 -0.30722,-8.56051 -3.01303,-12.09322 -7.50828,-9.80284 -23.119748,-12.7002 -34.013788,-6.31271 -2.16301,1.26824 -3.93275,2.05436 -3.93275,1.74693 0,-0.30744 -0.73186,-0.0342 -1.62636,0.60722 -0.89449,0.64141 -1.357,1.54276 -1.02779,2.00299 0.32921,0.46023 0.054,0.83678 -0.61156,0.83678 -0.66556,0 -2.15832,1.80486 -3.31723,4.01079 -3.5892,6.83184 -2.33046,17.54315 2.55791,21.76672 1.31265,1.13415 2.38665,2.38059 2.38665,2.76988 0,0.38928 0.31703,0.60161 0.70452,0.47186 0.38748,-0.12977 1.63089,0.48841 2.76314,1.37373 6.75925,5.28516 20.632538,5.97705 28.592188,1.42594 z m -21.445118,-5.07694 c -10.80726,-4.60229 -12.10291,-19.84281 -2.20461,-25.93252 12.344008,-7.59436 28.432488,-0.57639 28.432488,12.40255 0,8.8265 -7.16037,15.11717 -17.162498,15.07796 -3.01444,-0.0118 -7.09386,-0.70841 -9.06538,-1.54799 z m 14.623818,-8.92279 c 1.03719,-0.99023 1.88578,-3.0463 1.88578,-4.56907 0,-7.81679 -12.289578,-9.89055 -15.756558,-2.65879 -3.38602,7.06291 7.8894,12.93836 13.870778,7.22786 z m 38.89248,24.47278 c -1.7625,-1.52282 -1.68217,-4.05712 0.17071,-5.38575 1.06264,-0.76198 10.93369,-1.00091 34.01446,-0.82334 29.59406,0.22767 32.62571,0.39862 33.72255,1.90165 0.87877,1.20419 0.87875,2.09883 -1e-5,3.30301 -1.09715,1.50342 -4.13608,1.67387 -33.89327,1.90097 -24.5092,0.18705 -33.01992,-0.0373 -34.01444,-0.89654 z m 101.21703,-0.12814 c -9.19769,-2.9697 -16.10736,-8.26318 -20.88761,-16.00197 -2.05627,-3.32894 -2.46176,-5.45971 -2.46428,-12.94985 -0.003,-8.15722 0.28624,-9.41642 3.20612,-13.97033 3.64601,-5.6864 9.28139,-10.43457 16.12918,-13.58985 3.94313,-1.81689 6.34614,-2.16163 15.06772,-2.16163 8.72158,0 11.1246,0.34474 15.06773,2.16163 6.84779,3.15528 12.48317,7.90345 16.12918,13.58985 2.91987,4.55391 3.20885,5.81311 3.20612,13.97033 -0.002,7.53233 -0.40292,9.61316 -2.50489,13.01861 -6.67084,10.80755 -16.73556,16.43243 -30.24622,16.90375 -5.51549,0.19241 -10.21272,-0.16648 -12.70305,-0.97054 z m 23.98455,-10.33807 c 15.83136,-9.05193 14.45012,-31.31841 -2.37941,-38.3575 -6.43226,-2.69034 -15.69177,-2.64084 -21.79313,0.1165 -2.52923,1.14301 -4.94726,1.9981 -5.37344,1.90019 -1.14675,-0.26343 -6.01699,5.53551 -7.87393,9.37536 -2.57176,5.31804 -1.68195,14.66447 1.89866,19.94342 1.62423,2.39463 3.51479,4.65379 4.20121,5.02033 0.83494,0.44583 0.95311,0.22769 0.35705,-0.65901 -0.49006,-0.72899 0.29765,-0.39281 1.75049,0.7471 7.33716,5.75682 20.93326,6.64744 29.2125,1.91361 z m -21.50845,-5.11529 c -8.83354,-3.76043 -11.9353,-14.63452 -6.28038,-22.01759 9.74582,-12.72416 32.36121,-6.83705 32.49835,8.45979 0.10453,11.65488 -13.79892,18.84458 -26.21797,13.5578 z m 14.49142,-8.84202 c 6.14769,-5.0522 -1.97994,-14.58678 -9.48863,-11.13113 -4.95008,2.27811 -6.20922,5.35097 -3.94894,9.63711 2.32762,4.41384 8.98407,5.15391 13.43757,1.49402 z m -109.46217,9.31055 c -3.12377,-2.69896 -0.24923,-6.81876 4.36352,-6.25378 4.61701,0.5655 3.48996,7.38624 -1.22048,7.38624 -1.00779,0 -2.42215,-0.50962 -3.14304,-1.13246 z m 21.84511,0 c -3.12378,-2.69896 -0.24923,-6.81876 4.36351,-6.25378 4.61701,0.5655 3.48997,7.38624 -1.22048,7.38624 -1.00779,0 -2.42215,-0.50962 -3.14303,-1.13246 z m 21.8451,0 c -3.12377,-2.69896 -0.24923,-6.81876 4.36351,-6.25378 4.617,0.5655 3.48996,7.38624 -1.22049,7.38624 -1.00777,0 -2.42213,-0.50962 -3.14302,-1.13246 z m -43.69021,-22.64916 c -3.29174,-2.84409 -0.0245,-7.05354 4.68251,-6.03283 2.13509,0.46301 2.74483,1.19774 2.74483,3.30743 0,3.58082 -4.51835,5.23877 -7.42734,2.7254 z m 21.84511,0 c -3.29174,-2.84409 -0.0245,-7.05354 4.6825,-6.03283 2.13509,0.46301 2.74483,1.19774 2.74483,3.30743 0,3.58082 -4.51834,5.23877 -7.42733,2.7254 z m 21.8451,0 c -3.29174,-2.84409 -0.0245,-7.05354 4.68251,-6.03283 2.13508,0.46301 2.74482,1.19774 2.74482,3.30743 0,3.58082 -4.51834,5.23877 -7.42733,2.7254 z m -52.41259,-15.08592 c -1.7625,-1.52281 -1.68217,-4.05711 0.17071,-5.38575 1.06264,-0.76197 10.93369,-1.00091 34.01446,-0.82335 29.59406,0.22768 32.62571,0.39863 33.72255,1.90166 0.87877,1.20418 0.87875,2.09883 -1e-5,3.30301 -1.09715,1.50342 -4.13608,1.67386 -33.89327,1.90096 -24.5092,0.18706 -33.01992,-0.0373 -34.01444,-0.89653 z m 197.42497,144.64182 c 0.80693,-1.68549 1.0772,-30.16241 0.87607,-92.30509 l -0.29085,-89.86762 -2.83705,-2.45103 c -1.77677,-1.53501 -4.53213,-2.64746 -7.37272,-2.97665 l -4.53568,-0.52564 -0.024,3.19134 c -0.0256,3.40273 -3.36391,10.59945 -6.15107,13.26039 -1.53134,1.46199 -1.4395,1.89618 1.00147,4.73555 5.25137,6.10843 5.17358,4.6798 5.17358,95.01356 v 85.47179 l 6.49665,-5.55456 c 3.57314,-3.05501 7.02177,-6.65144 7.66358,-7.99204 z m 54.65184,-54.15667 c 0,-0.67676 -1.76214,-2.69396 -3.91586,-4.48267 -4.38342,-3.64051 -8.16356,-8.79104 -11.06738,-15.07955 -1.8341,-3.97193 -1.9783,-13.82406 -2.49284,-170.30968 l -0.54613,-166.093865 -2.63506,-5.66229 c -3.6723,-7.89117 -13.57725,-16.38549 -22.4868,-19.2843 -17.29351,-5.62662 -39.44723,1.3773 -47.50127,15.01756 -5.42773,9.19234 -5.51119,10.24402 -5.20948,65.641845 l 0.28251,51.87071 18.0222,0.47185 c 19.46018,0.50951 21.74477,1.03131 27.5215,6.28583 6.29714,5.7279 6.33841,6.05497 6.33841,50.24535 0,42.36844 -0.0697,43.05214 -5.02265,49.27359 l -2.71606,3.41165 3.59628,4.9978 3.5963,4.99782 0.27955,63.78474 c 0.15376,35.08161 0.50698,64.31559 0.78492,64.96439 0.75066,1.75229 43.17186,1.70236 43.17186,-0.0507 z m 39.91089,-0.22335 c 13.30938,-2.97223 23.6178,-11.47965 27.8039,-22.9463 1.83053,-5.01423 2.18953,-8.60918 2.18953,-21.92547 v -15.92785 l -5.42496,-2.37518 c -6.92097,-3.03017 -8.52957,-2.98551 -16.42014,0.45596 -3.57018,1.55713 -7.5023,2.83114 -8.73804,2.83114 -1.23574,0 -5.16786,-1.27401 -8.73804,-2.83114 -3.57018,-1.55713 -7.50229,-2.83115 -8.73804,-2.83115 -1.23575,0 -5.16786,1.27402 -8.73804,2.83115 -7.6535,3.33806 -9.5886,3.45748 -15.29157,0.94371 -2.3551,-1.03809 -4.83605,-1.88743 -5.51322,-1.88743 -0.88575,0 -1.12781,5.50086 -0.8627,19.60567 l 0.36852,19.60566 3.58997,6.29682 c 8.40971,14.75072 26.57639,22.15993 44.51283,18.15441 z M 309.6808,282.7263 l 2.48775,-2.14983 v -43.35844 -43.35844 l -2.48775,-2.14934 -2.48773,-2.14935 -123.66772,-0.24609 c -98.307238,-0.19564 -124.675658,0.004 -128.582858,0.9697 -8.81542,2.18057 -8.73438,1.74796 -8.73634,46.63663 -0.001,25.21454 0.40694,39.79547 1.16166,41.51057 1.56354,3.55318 4.45709,5.7383 8.25605,6.23477 1.72784,0.22579 59.037758,0.36534 127.355358,0.3101 l 124.21383,-0.10044 z M 81.780762,263.10328 c -4.68855,-4.05093 -0.70693,-7.95417 8.11389,-7.95417 6.80319,0 9.8303,1.45302 9.8303,4.71858 0,3.26555 -3.02711,4.71858 -9.8303,4.71858 -4.35956,0 -6.94425,-0.47241 -8.11389,-1.48299 z m 26.214118,0 c -0.94402,-0.81563 -1.7164,-2.27165 -1.7164,-3.23559 0,-4.24315 2.27113,-4.71858 22.54105,-4.71858 20.36005,0 23.33366,0.53684 23.33366,4.21252 0,4.81413 -1.8022,5.22464 -22.93736,5.22464 -16.27506,0 -19.78874,-0.24555 -21.22095,-1.48299 z m 52.42824,0 c -2.19219,-1.89406 -2.19219,-4.57712 0,-6.47119 1.51447,-1.3085 8.12336,-1.48298 56.17312,-1.48298 58.5025,0 57.88952,-0.0499 57.88952,4.71858 0,4.76853 0.61298,4.71858 -57.88952,4.71858 -48.04976,0 -54.65865,-0.17449 -56.17312,-1.48299 z M 81.780762,240.45411 c -0.94402,-0.81563 -1.7164,-2.27165 -1.7164,-3.23559 0,-4.25732 2.24215,-4.71857 22.937348,-4.71857 20.69522,0 22.93736,0.46125 22.93736,4.71857 0,4.25733 -2.24214,4.71858 -22.93736,4.71858 -16.275068,0 -19.788738,-0.24555 -21.220948,-1.48299 z m 52.428238,0 c -0.94402,-0.81563 -1.7164,-2.27165 -1.7164,-3.23559 0,-3.8141 2.79955,-4.71857 14.60502,-4.71857 11.82984,0 13.79361,0.62186 13.79361,4.36805 0,4.14931 -2.57646,5.0691 -14.19931,5.0691 -8.3314,0 -11.15472,-0.33542 -12.48292,-1.48299 z m 34.95217,0 c -0.94403,-0.81563 -1.71641,-2.27165 -1.71641,-3.23559 0,-4.55915 1.21785,-4.71857 36.04442,-4.71857 35.23101,0 36.04441,0.1144 36.04441,5.0691 0,4.27242 -0.78021,4.36805 -35.63872,4.36805 -28.55939,0 -33.24904,-0.20023 -34.7337,-1.48299 z m 78.64236,0 c -2.03711,-1.76007 -2.24369,-5.23367 -0.4057,-6.82171 0.8571,-0.74053 5.37992,-1.13245 13.06864,-1.13245 10.50684,0 11.87823,0.19422 12.88861,1.82538 3.52317,5.68786 0.22002,7.61177 -13.06864,7.61177 -8.3314,0 -11.15472,-0.33542 -12.48291,-1.48299 z M 81.780762,217.80495 c -0.94402,-0.81563 -1.7164,-2.27166 -1.7164,-3.23559 0,-4.70621 0.12889,-4.71858 49.151468,-4.71858 49.51394,0 49.15149,-0.0374 49.15149,5.0691 0,4.3674 -0.007,4.36805 -48.74579,4.36805 -40.474908,0 -46.334598,-0.18163 -47.840768,-1.48298 z m 104.856488,0 c -2.03711,-1.76007 -2.24369,-5.23367 -0.4057,-6.82171 0.85709,-0.74054 5.37991,-1.13246 13.06864,-1.13246 10.50684,0 11.87823,0.19423 12.8886,1.82539 3.52318,5.68786 0.22003,7.61176 -13.06863,7.61176 -8.3314,0 -11.15472,-0.33541 -12.48291,-1.48298 z m 34.54646,0.35052 c -1.83799,-1.58803 -1.63141,-5.06163 0.4057,-6.82171 1.45816,-1.25986 5.3963,-1.48298 26.17568,-1.48298 23.06431,0 24.52378,0.10411 25.58999,1.82539 1.58592,2.56033 1.40964,4.40477 -0.58573,6.12878 -1.4574,1.25921 -5.37994,1.48298 -25.99566,1.48298 -17.42753,0 -24.64916,-0.31959 -25.58998,-1.13246 z m 117.63869,41.29041 2.83705,-2.45019 0.31241,-33.95333 c 0.17532,-19.0523 -0.10822,-33.95331 -0.64605,-33.95331 -0.52717,0 -3.98548,2.72361 -7.68515,6.05247 l -6.72666,6.05246 v 30.87669 30.87668 l 4.53568,-0.52563 c 2.83963,-0.32907 5.59655,-1.44184 7.37272,-2.97584 z m -5.22944,-75.71091 c 9.72464,-8.17652 10.46931,-10.17378 5.41986,-14.53653 -5.05823,-4.37035 -7.35611,-3.72375 -16.90935,4.75807 l -8.46612,7.51664 5.273,4.69118 c 2.90015,2.58015 5.45234,4.7184 5.67151,4.75167 0.21917,0.0332 4.27417,-3.19821 9.0111,-7.18103 z m -24.45749,-9.95403 c 3.77078,-3.22903 6.85598,-6.20173 6.85598,-6.60601 0,-0.40427 -3.4406,-0.73505 -7.64578,-0.73505 -7.11864,0 -7.64579,0.14127 -7.64579,2.04906 0,1.12697 -0.81344,2.82566 -1.80767,3.77485 -1.72559,1.64745 -6.24698,1.72581 -99.58227,1.72581 -89.44751,0 -97.94472,-0.13301 -99.772048,-1.56183 -1.0986,-0.85902 -1.99745,-2.5577 -1.99745,-3.77487 0,-2.11275 -0.34969,-2.21302 -7.71759,-2.21302 -4.24468,0 -8.79119,0.47333 -10.10337,1.05185 -2.8064,1.2373 -13.85444,10.34413 -13.85444,11.42014 0,0.40702 53.193248,0.74002 118.207218,0.74002 h 118.20723 z m -18.25811,-68.21069 c 0.48855,-52.439795 0.76759,-59.914515 2.36509,-63.357015 2.54708,-5.48873 6.70228,-10.94383 11.22995,-14.74305 2.1303,-1.78756 3.87327,-3.748 3.87327,-4.35653 0,-0.83891 -20.79707,-1.04404 -86.01509,-0.84838 l -86.01509,0.25804 -6.49403,2.75491 c -8.27061,3.50856 -15.27368,9.55926 -18.98808,16.40582 l -2.91652,5.37587 -0.31018,57.094765 c -0.17059,31.40212 -0.0377,58.05272 0.29545,59.22354 l 0.60563,2.12878 90.90784,-0.24134 90.90786,-0.24135 z M 148.22425,122.0991 c -8.85949,-2.50252 -15.77304,-7.84691 -20.19875,-15.61424 -3.22171,-5.65424 -3.42304,-6.592045 -2.9802,-13.881805 0.76361,-12.57018 7.18649,-20.77481 20.33462,-25.97562 16.29096,-6.44398 37.83214,0.68662 44.88861,14.8591 1.29735,2.60566 2.63627,4.73756 2.97538,4.73756 0.3391,0 1.86627,-0.84934 3.3937,-1.88743 2.64694,-1.79894 4.43104,-1.88743 38.05012,-1.88743 30.61,0 35.49988,0.19604 36.98937,1.48298 1.30198,1.12492 1.7164,3.50114 1.7164,9.8416 0,9.139375 -1.17425,11.324575 -6.08542,11.324575 -2.53357,0 -2.65262,0.27228 -2.65262,6.06674 0,8.81316 -0.42477,9.03271 -17.47608,9.03271 -17.05131,0 -17.47608,-0.21955 -17.47608,-9.03271 v -6.06674 h -15.66841 c -14.28126,0 -15.84344,-0.16709 -17.64536,-1.88742 -2.83961,-2.71102 -3.36392,-2.45141 -6.32133,3.1299 -7.19739,13.58322 -25.34672,20.41816 -41.84395,15.75823 z m 22.49728,-8.84076 c 18.11054,-7.98737 18.04284,-30.885545 -0.11443,-38.703205 -9.97436,-4.29448 -19.62461,-3.25876 -28.75265,3.08592 -5.00307,3.47752 -7.02598,5.76109 -7.50478,8.47185 -0.18944,1.07248 -0.68477,2.24404 -1.10074,2.60344 -1.01916,0.88055 -0.96723,9.27926 0.0629,10.16926 0.81814,0.70688 0.97176,1.188645 1.22879,3.853505 0.075,0.77856 1.24243,2.37108 2.5941,3.53893 1.35166,1.16785 2.45757,2.44186 2.45757,2.83114 0,0.38929 0.31704,0.60162 0.70452,0.47186 0.38749,-0.12976 1.6309,0.48842 2.76314,1.37374 6.27226,4.90439 19.30388,5.98961 27.66161,2.30356 z M 143.6336,96.416215 c -2.93795,-2.53841 -0.65047,-6.41726 3.78447,-6.41726 3.23667,0 5.23053,3.09915 3.64287,5.66229 -1.29632,2.0928 -5.39656,2.50958 -7.42734,0.75497 z m 107.9148,15.387505 c 1.96487,-0.47223 2.73064,-1.30597 2.73064,-2.97301 0,-2.20347 -0.36046,-2.33038 -7.37272,-2.59579 l -7.37273,-0.27904 v 2.71698 c 0,1.49433 0.32768,3.00009 0.72818,3.34611 0.91063,0.78681 7.65217,0.65822 11.28663,-0.21525 z M 231.48533,96.604955 h 31.13072 l -0.34561,-2.59521 -0.34561,-2.59522 -32.22153,-0.47186 c -17.72184,-0.25952 -32.83592,-0.81542 -33.58684,-1.23533 -1.02846,-0.57512 -1.36532,0.40865 -1.36532,3.98742 0,4.70985 0.0242,4.74296 2.80174,3.83056 1.58253,-0.51985 16.34877,-0.92036 33.93245,-0.92036 z"
           id="path2528" />
      </g>
    </g>
  </g>
</svg>
