<?xml version="1.0" encoding="UTF-8" standalone="no"?>
<!-- Created with Inkscape (http://www.inkscape.org/) -->

<svg
   version="1.1"
   id="svg886"
   width="512"
   height="512"
   viewBox="0 0 512 512"
   sodipodi:docname="merlin.svg"
   inkscape:version="1.1.2 (0a00cf5339, 2022-02-04)"
   xmlns:inkscape="http://www.inkscape.org/namespaces/inkscape"
   xmlns:sodipodi="http://sodipodi.sourceforge.net/DTD/sodipodi-0.dtd"
   xmlns="http://www.w3.org/2000/svg"
   xmlns:svg="http://www.w3.org/2000/svg">
  <defs
     id="defs890" />
  <sodipodi:namedview
     id="namedview888"
     pagecolor="#000000"
     bordercolor="#eeeeee"
     borderopacity="1"
     inkscape:pageshadow="0"
     inkscape:pageopacity="0"
     inkscape:pagecheckerboard="0"
     showgrid="false"
     inkscape:zoom="0.84287128"
     inkscape:cx="269.31752"
     inkscape:cy="266.35146"
     inkscape:window-width="1366"
     inkscape:window-height="695"
     inkscape:window-x="0"
     inkscape:window-y="24"
     inkscape:window-maximized="1"
     inkscape:current-layer="g892" />
  <g
     inkscape:groupmode="layer"
     inkscape:label="Image"
     id="g892">
    <path
       style="fill:#002296;fill-opacity:1;stroke-width:0.346887"
       d="m 250.7232,499.91226 c -1.61456,-4.00253 -6.8801,-13.91409 -9.74321,-18.34014 -4.62881,-7.15548 -10.72066,-14.56075 -15.74522,-19.1399 l -2.50686,-2.28466 -0.2475,1.73267 c -0.40042,2.80333 -1.95202,6.93261 -4.01769,10.69241 -1.81671,3.30672 -5.76472,9.11553 -7.53376,11.08468 l -0.79842,0.88876 -0.213,-3.06168 c -0.42844,-6.15863 -2.60757,-10.968 -11.62894,-25.66508 -7.89143,-12.85629 -11.85237,-21.28682 -14.30841,-30.45442 l -1.13891,-4.25113 -1.55738,2.67781 c -3.0923,5.31704 -7.2586,10.74538 -12.02963,15.67365 l -1.70027,1.75626 v -2.16531 c 0,-7.67558 -3.43184,-16.04715 -12.43495,-30.33339 -2.14355,-3.4014 -5.21746,-8.55925 -6.83089,-11.46173 l -2.93352,-5.2773 -1.88187,3.72604 c -2.288,4.53012 -4.17224,9.66331 -4.75587,12.95626 l -0.43432,2.45056 -0.81831,-2.61769 c -0.45006,-1.43968 -2.50954,-6.30318 -4.57659,-10.80783 -5.55247,-12.1001 -7.4439,-17.85291 -8.14117,-24.76157 -1.61661,-16.01759 7.58464,-29.5746 27.81394,-40.9806 4.97007,-2.80235 6.98707,-3.29314 12.59787,-3.06525 3.32404,0.13507 3.54975,0.19206 4.59214,1.16015 1.01282,0.94058 1.1361,1.3181 1.61945,4.95936 2.67379,20.14266 13.57269,39.65571 32.02637,57.33925 4.35905,4.17715 4.36054,4.17913 4.01888,5.34866 -0.85928,2.94153 0.56345,7.12199 3.2835,9.64812 2.24427,2.08429 4.41952,2.889 7.78898,2.8814 3.54461,-0.009 5.72445,-0.93557 8.19458,-3.48707 4.92938,-5.09175 3.25683,-12.95055 -3.41517,-16.04697 -1.78696,-0.82927 -2.64029,-1.01848 -4.59281,-1.01848 -1.31893,0 -3.17234,0.24495 -4.11868,0.54448 l -1.72061,0.54448 -3.41578,-3.13528 c -9.61661,-8.82681 -18.26614,-20.40209 -23.32563,-31.21582 -4.51561,-9.65124 -6.87597,-18.59801 -7.27601,-27.57909 l -0.21589,-4.84724 -1.12572,-1.04689 -1.12574,-1.04688 -8.08762,-0.24361 c -8.55171,-0.25755 -11.9853,0 -15.58396,1.14917 -1.02438,0.32839 -7.89625,3.40059 -15.27082,6.82719 l -13.40834,6.23011 3.7e-4,-1.25449 c 2.4e-4,-0.68991 0.25311,-3.28528 0.56194,-5.76736 1.27318,-10.23298 3.81328,-19.29152 7.85144,-27.99978 1.06571,-2.29797 1.35507,-3.7581 0.74488,-3.7581 -0.0677,0 -1.82825,-0.30552 -3.9122,-0.67902 -9.2367,-1.6554 -17.6745,-4.77827 -24.77941,-9.171 -1.14134,-0.70563 -2.01023,-1.34328 -1.93088,-1.41697 0.0793,-0.0732 1.7421,-0.28211 3.69498,-0.46328 10.99703,-1.01973 23.67927,-4.2062 35.76663,-8.98662 4.79623,-1.89678 12.83226,-5.61148 15.02184,-6.94386 0.84661,-0.51518 0.86319,-0.57289 0.23378,-0.81417 -0.37259,-0.14276 -2.70218,-0.72065 -5.17687,-1.28406 -2.47468,-0.56351 -7.43739,-1.78298 -11.02821,-2.70998 l -6.52879,-1.68543 -1.89938,1.68249 c -3.69742,3.27517 -8.13029,4.88002 -13.4795,4.88002 -5.58496,0 -10.17063,-1.74894 -14.08279,-5.37117 -5.289118,-4.897 -7.12034,-12.37954 -4.64182,-18.96697 2.15446,-5.72609 7.41615,-10.22216 13.75838,-11.75636 2.68146,-0.64863 7.17188,-0.63426 9.95364,0.0321 7.11236,1.70303 13.09421,7.61921 14.33666,14.17931 0.22636,1.19508 0.52266,2.29324 0.65844,2.44028 0.31444,0.34063 7.32831,2.17872 15.62717,4.09543 21.58238,4.98481 42.67202,8.06408 67.87737,9.91093 8.07053,0.59129 45.13149,0.59468 53.27335,0.009 32.06024,-2.32263 58.96717,-6.70607 85.84927,-13.98599 7.24396,-1.96173 19.24554,-5.61514 20.61229,-6.27451 0.75429,-0.36393 -1.0384,-1.58341 -24.15011,-16.42743 l -24.96488,-16.03394 -20.26452,-47.63672 c -11.14549,-26.20018 -22.84576,-53.69155 -26.0006,-61.092 l -5.73607,-13.455264 h -1.15724 c -3.79011,0 -9.21783,-2.326922 -12.47078,-5.346434 -5.24176,-4.865456 -7.19965,-11.336219 -5.4035,-17.858343 0.9231,-3.352009 2.21277,-5.526171 4.81637,-8.119598 3.90018,-3.884923 8.94353,-5.928906 14.62905,-5.928906 5.70232,0 10.71815,2.039266 14.67286,5.965433 7.18533,7.133559 7.21991,17.841067 0.0819,25.363798 l -1.51582,1.597527 24.9666,58.716027 c 13.73162,32.29378 25.14527,58.87826 25.36365,59.07657 0.21843,0.19832 15.48307,10.06164 33.92145,21.91859 l 33.52438,21.55795 -1.70549,0.80997 c -14.58476,6.92672 -36.23786,14.28356 -56.23864,19.10757 -1.68279,0.40584 -3.19215,0.84857 -3.35413,0.98382 -0.16198,0.13525 1.37683,1.15059 3.41957,2.25634 15.89669,8.60482 34.50187,14.46357 51.20746,16.12515 1.96837,0.19572 3.62539,0.39912 3.68223,0.45193 0.0568,0.0527 -1.14866,0.85928 -2.67896,1.79208 -6.06921,3.69978 -13.58407,6.54241 -21.85997,8.26875 -2.3757,0.49553 -4.80429,1.00936 -5.39684,1.14184 -0.59259,0.13248 -1.12738,0.48186 -1.1885,0.77657 -0.0611,0.29461 0.60541,2.09447 1.4811,3.99966 2.98597,6.49631 5.34238,14.22522 6.7126,22.0172 0.76799,4.36735 1.37232,11.70016 0.96424,11.70016 -0.13023,0 -6.05395,-2.70202 -13.16384,-6.00445 -7.10987,-3.30251 -13.90633,-6.31094 -15.10321,-6.68542 -3.71361,-1.16176 -6.88162,-1.41439 -14.61123,-1.16498 l -7.18983,0.23199 -1.12365,1.04493 -1.12363,1.04491 -0.2159,4.84724 c -0.8734,19.60873 -11.45243,40.45185 -29.07937,57.29325 l -4.88733,4.66955 -1.50917,-0.56073 c -0.9315,-0.34616 -2.51767,-0.56082 -4.14403,-0.56082 -6.01121,0 -10.5565,3.97152 -10.95012,9.56781 -0.22133,3.14689 0.54018,5.2612 2.69757,7.48968 6.3747,6.58466 17.61544,3.74595 19.55916,-4.93944 0.28625,-1.27914 0.28331,-2.24455 -0.0106,-3.56051 l -0.4036,-1.80549 4.06761,-3.81876 c 18.29243,-17.17344 29.7138,-37.56258 32.34263,-57.73721 0.50092,-3.84405 0.75115,-4.49635 2.02104,-5.26774 0.80007,-0.48596 1.73131,-0.60138 4.81656,-0.59673 3.67827,0.009 3.92697,0.0527 6.49331,1.23653 6.02582,2.77921 13.87244,8.20818 19.10312,13.21712 12.82686,12.28305 15.38546,26.51069 8.0404,44.71038 -0.74201,1.83863 -2.77457,6.42681 -4.5168,10.1959 -1.74218,3.76919 -3.52089,7.90607 -3.95269,9.19307 -1.13279,3.37648 -1.18778,3.47314 -1.3322,2.34005 -0.25314,-1.98656 -1.64183,-6.7359 -2.68795,-9.19306 -1.47331,-3.46036 -3.9435,-8.35728 -4.21576,-8.35728 -0.12377,0 -1.17065,1.76762 -2.32643,3.92793 -1.15582,2.16041 -4.19301,7.26778 -6.74937,11.3498 -7.23391,11.55117 -10.27575,17.50479 -11.82754,23.14941 -0.83219,3.02692 -1.50056,8.59775 -1.1731,9.77756 0.19569,0.70509 0.15981,0.72824 -0.43047,0.27827 -1.06321,-0.81042 -6.24272,-6.67641 -8.42169,-9.53789 -1.12006,-1.47085 -3.04222,-4.32054 -4.27144,-6.33265 -1.25616,-2.05615 -2.30715,-3.44697 -2.3998,-3.17575 -0.0906,0.2654 -0.52886,1.91161 -0.97375,3.65831 -2.28216,8.95991 -6.31162,17.44449 -15.0273,31.64211 -5.65062,9.20468 -7.75648,13.14037 -9.25231,17.2919 -1.19979,3.32994 -2.23037,9.23862 -1.73991,9.9757 0.13798,0.20726 0.0759,0.26808 -0.14457,0.1416 -0.71847,-0.41245 -6.11269,-8.06347 -7.93446,-11.25414 -2.20156,-3.85592 -3.9772,-8.46251 -4.27218,-11.0835 -0.12054,-1.07101 -0.34517,-1.94726 -0.49919,-1.94726 -0.34815,0 -5.68964,5.38484 -8.44113,8.50967 -7.00694,7.95761 -14.65321,20.19046 -19.23283,30.76969 l -1.44711,3.34298 -0.006,-54.65741 -0.006,-54.65741 1.67348,-0.82454 c 3.50204,-1.72536 5.80441,-5.86769 5.42443,-9.75934 -0.36051,-3.69236 -2.59112,-6.67846 -6.23231,-8.34317 -4.67414,-2.13699 -9.73238,-1.21741 -13.2416,2.40742 -2.14919,2.22007 -2.87842,4.30374 -2.66658,7.61966 0.095,1.48791 0.42149,3.01021 0.78395,3.6559 0.9206,1.64006 3.01251,3.66503 4.77972,4.62687 l 1.55995,0.84901 v 54.62508 c 0,30.04376 -0.0405,54.62363 -0.0899,54.62185 -0.0494,0 -0.6481,-1.38679 -1.33024,-3.07784 z M 230.30668,371.45483 c 7.34966,-1.44619 11.16291,-5.19027 12.27252,-12.04998 0.90197,-5.5761 3.23425,-8.88095 7.5676,-10.72342 5.39364,-2.29323 10.88729,-1.49264 15.09058,2.19927 2.43489,2.13869 3.65448,4.58531 4.16108,8.3478 0.72007,5.34812 3.26985,8.79768 8.0656,10.91172 7.26512,3.20256 15.48206,1.78333 21.29354,-3.67779 2.00877,-1.88759 3.22401,-3.52013 5.99315,-8.05069 4.34585,-7.11029 4.97881,-8.28671 5.57604,-10.36305 0.56892,-1.97799 0.61592,-5.1021 0.10757,-7.14995 -1.0668,-4.29749 -4.79188,-8.61321 -9.10961,-10.55394 -8.36788,-3.76115 -36.10798,-6.32918 -56.38041,-5.21932 -15.47952,0.84741 -29.4876,2.97003 -34.43427,5.21762 -3.79604,1.72481 -6.94645,5.10854 -8.41758,9.04093 -0.85941,2.29726 -1.02817,6.48987 -0.3555,8.83181 0.82387,2.86827 8.26834,15.1222 10.82703,17.82181 2.57997,2.72203 6.91717,4.92791 10.90583,5.54672 2.77325,0.43022 4.12227,0.40466 6.83684,-0.12954 z m 32.52735,-53.18263 c 5.82381,-1.11719 8.93361,-2.8981 10.58177,-6.06001 0.97674,-1.87392 1.06851,-5.3174 0.19306,-7.24456 -1.0888,-2.39668 -0.57146,-3.97277 1.30283,-3.96902 0.44484,0 7.04502,1.77298 14.66706,3.93793 14.92271,4.23872 17.18948,4.64786 21.32826,3.84994 6.9122,-1.33274 12.74355,-6.98004 13.96935,-13.5286 0.62554,-3.34183 0.2398,-12.69256 -0.73894,-17.91214 -0.43094,-2.29825 -0.92332,-4.31357 -1.09415,-4.47857 -0.18249,-0.17616 -3.1772,0.13123 -7.25877,0.74503 -11.46627,1.72456 -24.3527,3.10232 -38.26424,4.09132 -7.95456,0.56555 -37.35509,0.7804 -46.61417,0.34071 -12.91393,-0.61327 -26.87431,-1.84346 -37.79528,-3.33057 -2.47469,-0.33696 -4.53537,-0.58888 -4.57929,-0.55975 -0.044,0.0294 -0.43443,2.00032 -0.86781,4.3803 -1.15006,6.31631 -1.1688,15.37475 -0.0388,18.74212 2.50663,7.4694 10.21263,12.3421 18.55304,11.73144 1.86403,-0.13651 6.56814,-1.31846 16.76807,-4.21308 14.84943,-4.21406 14.9985,-4.23925 15.89276,-2.68746 0.30105,0.52241 0.2207,1.13192 -0.35169,2.66798 -2.12296,5.69715 0.45288,10.53564 6.66276,12.51568 4.79557,1.52901 12.5778,1.96083 17.68415,0.98131 z m -38.76708,-25.23369 c -5.80155,-0.8893 -11.57423,-4.87467 -16.08143,-11.10218 -0.82677,-1.14238 -1.46457,-2.11288 -1.41732,-2.15683 0.23056,-0.21413 31.3556,4.9765 31.77376,5.29872 0.9908,0.76371 0.53252,1.87142 -1.40663,3.39998 -4.53257,3.57274 -8.99471,5.15409 -12.86838,4.56031 z m 60.17593,-0.01 c -0.85598,-0.15365 -2.47578,-0.66981 -3.59956,-1.14712 -2.45322,-1.04196 -7.12306,-4.29008 -7.33114,-5.09924 -0.23296,-0.90592 0.054,-1.67069 0.71901,-1.91591 0.76102,-0.2805 31.13874,-5.18724 31.28334,-5.05297 0.30275,0.28113 -3.20423,4.6977 -5.40116,6.802 -5.01152,4.80017 -11.00038,7.25117 -15.67049,6.41324 z M 121.6844,259.13635 c 3.79905,-1.0526 6.27146,-4.22352 6.26314,-8.03264 -0.006,-2.60036 -0.8682,-4.33242 -3.04238,-6.10977 -1.88176,-1.53829 -3.43592,-2.07562 -6.01164,-2.07848 -7.00416,-0.009 -11.23085,7.72828 -7.1094,13.01218 2.41365,3.09437 6.05435,4.27436 9.90028,3.20871 z M 285.25929,78.415134 c 3.61098,-1.516319 5.51823,-4.204315 5.55533,-7.82968 0.0207,-2.01738 -0.12907,-2.593481 -1.08618,-4.178587 -3.58924,-5.944507 -12.54816,-5.944507 -16.1374,0 -0.95097,1.574915 -1.10861,2.174066 -1.09946,4.178587 0.008,1.733576 0.20964,2.686663 0.77835,3.677259 1.69313,2.949209 4.96286,4.8326 8.38981,4.8326 1.22025,0 2.60116,-0.260946 3.59955,-0.680179 z M 216.17352,404.12541 c -4.8388,-2.29136 -3.08757,-8.77829 2.36852,-8.77337 5.34929,0.009 6.6463,6.93019 1.66693,8.90058 -1.53894,0.60897 -2.54807,0.57717 -4.03545,-0.12721 z m 77.35912,-0.0223 c -0.80674,-0.39109 -1.55119,-1.1555 -2.08657,-2.14263 -1.05469,-1.94467 -0.79763,-3.57015 0.82466,-5.21412 0.98279,-0.99596 1.43074,-1.18535 3.09798,-1.3097 1.6185,-0.12078 2.16276,-0.0107 3.20891,0.649 3.18314,2.00711 2.9895,6.36981 -0.35303,7.9534 -1.75718,0.83257 -3.06932,0.85044 -4.69195,0.0643 z m -39.06303,-15.7938 c -2.99053,-0.80766 -4.39423,-4.56487 -2.61478,-6.99881 1.03841,-1.42037 2.43314,-2.08938 4.30557,-2.06544 5.35021,0.0688 6.71432,7.03186 1.73967,8.88041 -1.60717,0.59717 -1.85147,0.61031 -3.43046,0.18384 z m 38.80751,-135.1927 c -3.1823,-0.83042 -6.27625,-2.50388 -8.78073,-4.74942 l -2.39348,-2.14593 -5.89088,0.51285 c -35.21044,3.06535 -72.68788,0.15938 -105.62837,-8.19031 -10.24712,-2.59741 -25.26614,-7.52094 -25.10566,-8.23015 0.0472,-0.20824 96.57964,-221.0023542 96.75733,-221.3083332 0.0224,-0.03863 17.13472,4.8391522 38.02721,10.8396622 l 37.98634,10.910029 9.7571,21.072393 9.7571,21.072415 2.9174,0.582888 c 8.1325,1.624771 13.98379,7.034529 15.66834,14.486071 0.66355,2.934995 0.66312,4.092117 -0.003,7.010507 -2.00125,8.778738 -9.97394,14.885648 -19.4324,14.885648 -5.24659,0 -10.12736,-1.88375 -13.85827,-5.34875 -3.88306,-3.60616 -5.85062,-7.990657 -5.85062,-13.037376 0,-4.645617 1.53914,-8.452234 4.90931,-12.141733 l 1.92043,-2.10243 -8.38354,-17.659142 c -4.61147,-9.712569 -8.51682,-17.776153 -8.67907,-17.919095 -0.50341,-0.443479 -56.07451,-16.315422 -56.31443,-16.084249 -0.21857,0.210609 -74.45238,169.744075 -74.58084,170.325995 -0.0941,0.4262 2.11887,1.09985 8.97951,2.73355 10.50169,2.50059 24.00233,4.5998 36.4914,5.67393 3.46456,0.298 6.67743,0.64479 7.13971,0.77075 0.57069,0.15553 4.51493,4.89754 12.28604,14.77077 l 11.44552,14.54174 5.53174,-0.0705 c 5.39893,-0.0688 14.75248,-0.59218 18.62184,-1.04214 l 1.9315,-0.22459 0.66734,-2.44349 c 0.93594,-3.42687 2.2613,-5.54394 5.1823,-8.27804 10.83505,-10.14186 29.20327,-5.38815 33.13496,8.57534 0.8692,3.08695 0.56971,7.72328 -0.70005,10.83775 -1.98452,4.8677 -6.44063,8.98707 -11.67865,10.79604 -3.03382,1.04769 -8.92757,1.33525 -11.8324,0.57726 z m 8.72271,-10.32069 c 7.65795,-3.3119 6.53104,-13.77777 -1.68048,-15.60719 -6.64959,-1.48149 -12.74334,4.6072 -10.60236,10.5936 1.71896,4.80624 7.40017,7.12521 12.28284,5.01359 z m -67.85415,-8.74944 c 0,-0.34295 -12.64594,-16.20501 -12.91931,-16.20501 -0.15306,0 -3.58555,-0.37894 -7.62775,-0.84195 -15.81721,-1.81201 -31.85286,-4.86779 -41.17571,-7.84665 l -1.92238,-0.61425 -3.09863,7.05311 c -1.70425,3.87925 -2.97464,7.15451 -2.82309,7.27851 0.38994,0.31883 9.7469,2.76349 15.92467,4.16054 6.63942,1.50141 16.16685,3.23507 23.79838,4.33038 10.86293,1.55901 29.84382,3.26696 29.84382,2.68532 z M 340.33241,99.141257 c 3.47696,-1.459956 5.48503,-4.191374 5.50048,-7.48182 0.0106,-2.378294 -0.7472,-4.237908 -2.36912,-5.809355 -1.91532,-1.855602 -3.68331,-2.541576 -6.55093,-2.541576 -2.96246,0 -4.80853,0.748059 -6.64828,2.694069 -1.62315,1.716779 -2.17062,3.098031 -2.17062,5.476229 0,2.389808 0.54734,3.759268 2.20207,5.509555 2.50102,2.645388 6.7122,3.548791 10.0364,2.152898 z m -209.078,110.484593 c -1.06581,-0.4162 -12.62134,-9.09213 -13.66425,-10.25915 -0.3131,-0.35046 -0.30901,-0.72314 0.0168,-1.52463 0.23712,-0.58344 0.56378,-1.06082 0.72588,-1.06082 0.1621,0 3.47096,1.20339 7.35303,2.67433 3.88204,1.47085 7.26395,2.67433 7.51535,2.67433 0.2514,0 0.52175,-0.18018 0.60078,-0.40038 0.24052,-0.67008 2.39145,0.31891 2.1972,1.01025 -0.11878,0.42281 0.36856,0.75396 1.98741,1.35044 2.11487,0.77924 2.13974,0.8038 1.78245,1.75563 -0.50296,1.33999 -0.71786,1.39153 -2.62851,0.63095 -0.9252,-0.36831 -1.89197,-0.66962 -2.14838,-0.66962 -0.25641,0 -0.83094,0.90574 -1.27675,2.01282 -0.44579,1.10709 -0.9126,2.07143 -1.03732,2.14299 -0.12474,0.0715 -0.76538,-0.0804 -1.42364,-0.33714 z m 0.66882,-3.8294 c 0.24865,-0.55752 0.38255,-1.07824 0.29754,-1.15711 -0.22068,-0.20502 -7.86137,-3.12189 -7.86137,-3.0012 0,0.206 6.55646,5.17187 6.82838,5.17187 0.15586,0 0.48683,-0.45612 0.73545,-1.01356 z m -9.9e-4,-11.19017 c -5.44237,-2.07893 -10.12851,-3.91649 -10.41365,-4.08354 -0.43775,-0.25647 -0.36368,-0.66445 0.47606,-2.62198 0.54695,-1.27513 1.3333,-2.65683 1.74747,-3.07052 1.50567,-1.50399 4.38055,-0.90645 14.12241,2.93509 3.93424,1.55143 5.46558,2.33148 6.29121,3.20479 0.6002,0.63488 1.09127,1.37955 1.09127,1.65487 0,0.27532 -0.49772,1.69918 -1.10604,3.16414 -0.7941,1.91242 -1.27629,2.65414 -1.70978,2.63029 -0.33206,-0.0188 -5.05659,-1.7342 -10.49895,-3.81314 z m 9.70254,-0.1431 c 1.11739,-1.93904 0.45218,-2.40062 -7.93076,-5.50339 -6.85321,-2.53658 -7.95245,-2.68881 -8.61928,-1.19375 -0.24863,0.55753 -0.33764,1.12157 -0.19776,1.2536 0.33479,0.31597 15.37168,6.04206 15.93791,6.06912 0.24051,0.0116 0.60497,-0.26996 0.80989,-0.62558 z m 6.13177,-18.04471 c -1.08886,-0.33205 -4.02783,-1.36964 -6.53102,-2.30575 -11.13504,-4.16456 -11.71489,-4.70038 -9.68907,-8.95356 0.91972,-1.931 1.89631,-2.28279 4.41606,-1.59073 3.01569,0.82819 3.18758,0.96103 2.75044,2.12565 -0.20661,0.55046 -0.41196,1.00079 -0.4563,1.00079 -0.0443,0 -0.84234,-0.24102 -1.77331,-0.53564 -1.83664,-0.58119 -2.50939,-0.37288 -2.86409,0.8868 -0.24443,0.86803 0.51255,1.53311 2.82731,2.48379 3.29817,1.35463 3.27823,1.35507 3.52551,-0.0813 0.2527,-1.46763 1.295,-2.65245 2.60132,-2.95697 1.03054,-0.24013 4.52971,0.76824 7.99327,2.3036 2.1833,0.96782 4.03902,2.52148 4.03902,3.38148 0,1.07618 -1.2423,3.61411 -2.06236,4.21317 -1.11175,0.8122 -2.18515,0.81855 -4.77678,0.0286 z m 3.40184,-3.14769 c 0.30944,-0.82044 0.23902,-1.02822 -0.53123,-1.56778 -1.03948,-0.72824 -6.23155,-2.66808 -7.14111,-2.66808 -0.90493,0 -1.48879,0.66945 -1.48879,1.70713 0,0.80908 0.27629,1.00998 2.60968,1.89813 5.36923,2.04347 5.99579,2.10376 6.55145,0.6306 z m 3.41149,-9.25972 c -2.12838,-0.47944 -5.37351,-1.68998 -5.37351,-2.00452 0,-0.16204 0.19083,-0.68357 0.42406,-1.15899 0.29158,-0.59424 0.60087,-0.79613 0.98989,-0.64596 1.73368,0.6691 4.39935,1.47889 4.86797,1.47889 0.29735,0 0.80868,-0.37993 1.13631,-0.84427 0.55674,-0.78916 0.55461,-0.88644 -0.0325,-1.48899 -0.73212,-0.75128 -8.01798,-3.68396 -9.15233,-3.68396 -0.97911,0 -1.71798,1.55419 -1.14609,2.4109 0.29783,0.44611 0.20471,0.75476 -0.42235,1.39983 l -0.8044,0.82757 -4.38573,-1.90716 c -2.41216,-1.04894 -4.47713,-1.99201 -4.58883,-2.09573 -0.17809,-0.16535 0.34824,-1.52641 2.14868,-5.55626 0.4553,-1.0191 0.53977,-1.05742 1.58433,-0.71921 0.60686,0.19643 1.18287,0.47659 1.28002,0.62263 0.0972,0.14598 -0.2271,1.11327 -0.72057,2.14952 -0.49347,1.03624 -0.89721,1.99889 -0.89721,2.13923 0,0.27604 3.74918,2.0658 4.32744,2.0658 0.19359,0 0.35198,-0.36894 0.35198,-0.81998 0,-1.47791 0.76515,-2.5087 2.14772,-2.89337 1.17431,-0.32678 1.71526,-0.22244 5.25004,1.01249 4.44613,1.55321 6.76876,2.77402 7.84919,4.12561 0.67425,0.84348 0.69906,1.06028 0.287,2.5072 -0.75847,2.66316 -2.4504,3.68038 -5.12107,3.07873 z m 3.28141,-25.91859 c -4.64362,-3.02041 -8.54728,-5.37975 -8.67478,-5.24281 -0.20345,0.21833 -0.56426,1.01776 -1.80389,3.9968 -0.27458,0.65981 -0.42541,0.70126 -1.40235,0.38493 -0.60208,-0.19492 -1.17147,-0.4698 -1.26532,-0.61076 -0.0939,-0.14106 0.41074,-1.59296 1.1213,-3.2265 0.71056,-1.63352 1.43354,-3.31331 1.60661,-3.73291 0.30753,-0.74556 0.3413,-0.7503 1.48904,-0.20618 1.39375,0.66071 18.55338,11.44477 18.79953,11.81461 0.25852,0.3885 -0.63351,2.36211 -1.05617,2.33683 -0.20407,-0.0125 -4.17034,-2.49362 -8.81397,-5.51401 z m 12.38771,-6.13256 c -1.14902,-0.47775 -1.90038,-1.24993 -3.74757,-3.85154 -2.80471,-3.95027 -4.28868,-5.17813 -7.87936,-6.51963 -4.0008,-1.4947 -5.09623,-1.34543 -5.09623,0.69428 0,0.49964 0.6697,0.95041 2.7178,1.82926 2.41819,1.03759 2.69149,1.24707 2.47922,1.90036 -0.43421,1.3364 -0.77897,1.37723 -3.43973,0.40779 -3.40454,-1.24045 -4.79369,-2.38855 -4.74685,-3.92292 0.0383,-1.25431 1.15344,-3.55344 2.0639,-4.25524 0.95895,-0.73904 4.04871,-0.23905 7.72546,1.25029 3.95193,1.60083 4.74383,2.24027 7.64225,6.17034 1.19026,1.61387 2.29419,2.85969 2.4532,2.76849 0.159,-0.0912 0.65383,-1.07171 1.09963,-2.17881 0.44581,-1.10709 0.84761,-2.01283 0.89292,-2.01283 0.63644,0 2.34954,0.8366 2.34954,1.14739 0,0.36473 -2.72676,6.84506 -2.97866,7.07902 -0.054,0.05 -0.74509,-0.1776 -1.53552,-0.50625 z m 5.77401,-21.57475 c -4.46843,-1.41867 -14.00348,-5.23029 -15.20529,-6.07823 -1.55312,-1.09575 -1.72301,-1.9671 -0.82044,-4.20754 0.91968,-2.282691 1.48743,-2.757042 3.22357,-2.692726 1.03295,0.03842 3.94961,0.834543 4.61482,1.259843 0.10273,0.0661 -0.65628,2.172723 -0.78261,2.172723 -0.0443,0 -0.84234,-0.24101 -1.77331,-0.53562 -1.27706,-0.404143 -1.81355,-0.442463 -2.18496,-0.15615 -0.86142,0.66391 -0.89418,1.61011 -0.0799,2.30806 0.61904,0.53055 4.81676,2.39527 5.39222,2.39527 0.0797,0 0.24533,-0.5837 0.36817,-1.29711 0.55968,-3.25062 2.85381,-3.682433 8.32761,-1.5676 3.56174,1.37608 5.42899,2.52685 6.00497,3.70085 0.51567,1.05108 -0.53847,3.9491 -1.76146,4.8426 -1.18607,0.86643 -2.22907,0.83811 -5.32337,-0.14437 z m 3.94178,-2.9701 c 0.30944,-0.82043 0.23885,-1.02866 -0.53269,-1.57162 -1.18686,-0.83517 -6.20657,-2.66415 -7.31187,-2.66415 -0.92466,0 -1.31656,0.54466 -1.31656,1.82961 0,0.80926 0.28703,0.95907 5.21934,2.72401 2.69145,0.96308 3.48271,0.8993 3.94178,-0.31785 z m -0.0858,-10.410928 c -7.58981,-2.559451 -12.64496,-4.765595 -13.97607,-6.099498 -1.0305,-1.032673 -1.07469,-2.126995 -0.16135,-3.995104 1.15592,-2.364347 2.7067,-2.651373 6.92712,-1.281998 1.41428,0.458898 2.64789,0.905375 2.74135,0.992208 0.24106,0.223862 -0.67505,2.184972 -1.02068,2.184972 -0.15754,0 -1.04221,-0.300878 -1.96593,-0.668568 -0.92372,-0.367776 -2.22989,-0.668643 -2.90262,-0.668643 -1.0236,0 -1.26228,0.144895 -1.46306,0.887778 -0.36443,1.34847 0.40649,1.758771 10.03143,5.338569 5.76497,2.14424 7.29263,2.275465 7.29263,0.626662 0,-1.008642 -0.30561,-1.209913 -5.15589,-3.395419 -0.0641,-0.0286 0.14082,-0.514731 0.45536,-1.079574 l 0.57189,-1.02705 1.88435,0.675526 c 2.53024,0.907083 4.65673,2.308696 5.25654,3.464836 0.58294,1.123519 0.14804,2.900602 -1.05848,4.325094 -1.04909,1.238584 -3.1924,1.158194 -7.45659,-0.279791 z m 12.14595,-19.460161 c -2.13393,-0.50517 -10.6882,-3.608387 -14.27543,-5.17867 -1.22815,-0.537685 -2.64544,-1.432699 -3.14955,-1.989154 -1.02733,-1.133795 -0.98326,-1.761001 0.30239,-4.303121 0.98169,-1.94109 1.95125,-2.27046 4.56178,-1.549731 2.87946,0.79497 3.06285,0.951924 2.52388,2.160322 l -0.44905,1.00686 -1.53626,-0.528849 c -1.84226,-0.634079 -2.61466,-0.424505 -2.94533,0.799078 -0.2915,1.078592 0.21751,1.482725 3.5759,2.839593 l 2.1859,0.883041 0.62055,-1.702309 c 1.11649,-3.062923 2.49661,-3.261153 8.14816,-1.1706 5.90816,2.185506 7.08848,3.631607 5.54161,6.789675 -1.10661,2.259298 -2.1284,2.648427 -5.10455,1.943865 z m 2.57427,-3.362371 c 0.41002,-1.03723 -0.47119,-1.722232 -3.90352,-3.03443 -3.99224,-1.526232 -5.73503,-1.310853 -5.4315,0.671333 0.0949,0.619523 0.7442,1.010253 3.35721,2.020516 3.7188,1.437789 5.50442,1.540169 5.97781,0.342581 z m 6.20166,-10.303994 c -0.23318,-0.564309 -6.23243,-5.493538 -6.68611,-5.493538 -0.1507,0 -0.27461,0.338473 -0.27536,0.752168 -7e-4,0.413684 -0.33541,1.261082 -0.74374,1.883102 -0.72295,1.10129 -0.79129,1.126037 -2.60832,0.945489 -1.95191,-0.19394 -8.33876,-2.5054 -10.05042,-3.637295 -1.27914,-0.845883 -1.31281,-2.264303 -0.1136,-4.7827 1.18641,-2.49141 2.07214,-2.806385 5.20545,-1.851132 5.60516,1.708862 10.6596,4.432404 14.86085,8.007635 l 2.38895,2.033024 -0.56402,1.333455 c -0.59634,1.409925 -1.05679,1.673635 -1.41372,0.809792 z m -9.25368,-5.378127 c 0.13192,-0.488106 0.0776,-1.1264 -0.12078,-1.41842 -0.42706,-0.628765 -5.41318,-2.682491 -7.14708,-2.94381 -1.05712,-0.159312 -1.26816,-0.06734 -1.65489,0.720901 -0.6489,1.322645 -0.16815,1.764736 3.48594,3.205608 3.99413,1.574958 5.10488,1.663935 5.43681,0.435721 z M 203.36955,43.38728 c -7.5066,-2.635313 -12.83013,-4.837413 -13.86526,-5.735425 -1.36326,-1.18268 -1.38324,-2.313583 -0.083,-4.69766 0.89211,-1.635699 1.11711,-1.82488 2.27796,-1.915309 0.70845,-0.05517 2.19059,0.213266 3.29363,0.596537 l 2.00555,0.69688 -0.41239,1.014628 c -0.35049,0.86237 -0.54767,0.982476 -1.31387,0.800359 -2.72502,-0.647717 -3.20478,-0.606568 -3.65619,0.313512 -0.58692,1.196318 0.16909,1.867576 3.56458,3.164962 l 2.60967,0.997127 V 37.62237 c 0,-1.218823 0.84366,-2.817364 1.63593,-3.099706 1.6837,-0.600037 4.6079,0.06766 9.24947,2.112077 3.52468,1.552441 4.2062,2.846369 2.95914,5.618221 -1.29421,2.876644 -2.7379,3.074768 -8.26524,1.134318 z m 5.64414,-2.217915 c 0.33693,-0.686784 0.29655,-0.950131 -0.22831,-1.488744 -0.82362,-0.845211 -7.16246,-3.180179 -7.91007,-2.913738 -0.31438,0.112039 -0.76089,0.589558 -0.99227,1.061166 -0.57224,1.166407 -0.0972,1.552505 3.67418,2.986335 3.74552,1.42399 4.89531,1.498786 5.45647,0.354981 z M 204.19,28.675468 c -5.68597,-2.158144 -10.4226,-4.002339 -10.52582,-4.0982 -0.15584,-0.144735 2.15713,-5.907872 2.50812,-6.249386 0.20152,-0.196086 2.33785,0.954506 2.33785,1.259118 0,0.163901 -0.32803,1.008695 -0.72895,1.87734 -0.40092,0.868634 -0.68035,1.624483 -0.62096,1.679654 0.29789,0.276643 6.1625,2.479404 6.60115,2.479404 0.27942,0 0.50804,-0.137958 0.50804,-0.306586 0,-0.168607 0.31581,-0.9908 0.70179,-1.827078 0.68679,-1.487997 0.72527,-1.512904 1.79978,-1.165041 1.2952,0.41933 1.33509,0.723793 0.36902,2.816864 -0.40093,0.868634 -0.6844,1.609148 -0.62993,1.645569 0.3282,0.219488 6.82704,2.513489 7.12065,2.513489 0.19662,0 0.35747,-0.137959 0.35747,-0.306576 0,-0.168617 0.31581,-0.99081 0.70179,-1.827089 0.68692,-1.488242 0.72512,-1.512957 1.80044,-1.164816 0.60426,0.195616 1.18304,0.482482 1.28618,0.637472 0.31198,0.468802 -2.16886,5.830058 -2.72891,5.89733 -0.28576,0.03436 -5.17172,-1.703323 -10.85771,-3.861468 z"
       id="path994" />
  </g>
</svg>
