<?xml version="1.0" encoding="UTF-8" standalone="no"?>
<svg
   version="1.1"
   viewBox="0 0 512 512"
   id="svg960"
   sodipodi:docname="mfoc.svg"
   inkscape:version="1.1.2 (0a00cf5339, 2022-02-04)"
   xmlns:inkscape="http://www.inkscape.org/namespaces/inkscape"
   xmlns:sodipodi="http://sodipodi.sourceforge.net/DTD/sodipodi-0.dtd"
   xmlns="http://www.w3.org/2000/svg"
   xmlns:svg="http://www.w3.org/2000/svg">
  <sodipodi:namedview
     id="namedview962"
     pagecolor="#505050"
     bordercolor="#eeeeee"
     borderopacity="1"
     inkscape:pageshadow="0"
     inkscape:pageopacity="0"
     inkscape:pagecheckerboard="0"
     showgrid="false"
     inkscape:zoom="0.87304688"
     inkscape:cx="256"
     inkscape:cy="256"
     inkscape:window-width="1366"
     inkscape:window-height="695"
     inkscape:window-x="0"
     inkscape:window-y="24"
     inkscape:window-maximized="1"
     inkscape:current-layer="svg960" />
  <defs
     id="defs946">
    <linearGradient
       id="a"
       x1="245.18"
       x2="245.18"
       y1="376.05"
       y2="7.2316"
       gradientUnits="userSpaceOnUse">
      <stop
         stop-color="#4aaee6"
         offset="0"
         id="stop941" />
      <stop
         stop-color="#367bf0"
         offset="1"
         id="stop943" />
    </linearGradient>
  </defs>
  <g
     id="g958"
     transform="matrix(1.0533514,0,0,1.0555287,-13.657958,-14.215347)">
    <rect
       x="21"
       y="101.03"
       width="470"
       height="309.92999"
       rx="30"
       ry="30"
       fill="url(#a)"
       id="rect948"
       style="fill:url(#a)" />
    <path
       d="m 176.45,153.85 c -61.6,0 -111.43,49.83 -111.43,111.43 -10e-7,61.6 49.828,111.43 111.43,111.43 27.832,0 53.259,-10.174 72.775,-27.008 -12.972,-13.399 -22.883,-29.774 -28.619,-47.99 h 10.504 c 5.3803,15.581 14.11,29.592 25.34,41.168 11.23,-11.575 19.959,-25.587 25.34,-41.168 h 10.506 c -5.7358,18.217 -15.647,34.591 -28.619,47.99 19.516,16.834 44.942,27.008 72.773,27.008 61.6,0 111.43,-49.83 111.43,-111.43 0,-61.6 -49.83,-111.43 -111.43,-111.43 -27.832,0 -53.258,10.174 -72.773,27.008 13.647,14.097 23.91,31.486 29.482,50.85 H 282.735 C 277.4635,214.98 268.362,199.96 256.45,187.681 244.538,199.96 235.438,214.98 230.167,231.708 h -10.422 c 5.5732,-19.364 15.835,-36.753 29.482,-50.85 C 229.711,164.024 204.282,153.85 176.45,153.85 Z m 65.42,59.258 h 16.363 a 5.0005,5.0005 0 1 1 0,10 H 246.87 v 13.521 h 4.7148 a 5.0005,5.0005 0 1 1 0,10 H 246.87 v 13.615 h 0.0391 l 7.9609,4.3164 v 27.055 c 0.0389,2.7518 -2.1512,5.0104 -4.8887,5.0703 -0.0368,5.9e-4 -7.8508,3e-5 -8.0352,0 h -0.0762 c -0.0651,0 -0.12886,-0.008 -0.19336,-0.01 a 5.0005,5.0005 0 0 1 -0.26757,-0.0137 c -0.0905,-0.008 -0.17858,-0.0222 -0.26758,-0.0352 a 5.0005,5.0005 0 0 1 -0.24219,-0.0371 c -0.0952,-0.0188 -0.18805,-0.0444 -0.28125,-0.0684 a 5.0005,5.0005 0 0 1 -0.18359,-0.0469 c -0.11222,-0.0335 -0.22134,-0.0741 -0.33008,-0.11524 a 5.0005,5.0005 0 0 1 -0.13867,-0.0508 c -0.0442,-0.0181 -0.0854,-0.0412 -0.12891,-0.0606 a 5.0005,5.0005 0 0 1 -0.77148,-0.42382 c -0.0148,-0.01 -0.0284,-0.0211 -0.043,-0.0312 a 5.0005,5.0005 0 0 1 -0.70313,-0.5879 c -0.0107,-0.0108 -0.0207,-0.0223 -0.0312,-0.0332 a 5.0005,5.0005 0 0 1 -0.57226,-0.70703 c -0.004,-0.005 -0.009,-0.009 -0.0117,-0.0137 -0.009,-0.0139 -0.0164,-0.029 -0.0254,-0.043 a 5.0005,5.0005 0 0 1 -0.41016,-0.77344 c -0.19942,-0.46972 -0.33211,-0.97405 -0.37891,-1.5039 v -0.002 a 5.0005,5.0005 0 0 1 -0.0195,-0.51367 v -44.986 h -5.4824 a 5.0005,5.0005 0 1 1 0,-10 h 5.4824 v -18.521 a 5.0005,5.0005 0 0 1 5,-5 z m -54.535,23.451 a 5.0005,5.0005 0 0 1 0.89453,0.0703 h 27.561 c 2.7613,2.8e-4 4.9997,2.2387 5,5 v 49.986 c 0.0394,2.7891 -2.2106,5.0723 -5,5.0723 -2.7894,0 -5.0394,-2.2832 -5,-5.0723 v -44.986 h -18.379 v 13.615 h 0.0254 l 7.9609,4.3164 v 27.055 c 0.0389,2.7518 -2.1512,5.0104 -4.8887,5.0703 -0.0367,5.9e-4 -7.8113,2e-5 -8.0215,0 h -0.0898 c -0.076,0 -0.14951,-0.009 -0.22461,-0.0117 a 5.0005,5.0005 0 0 1 -0.2168,-0.01 c -0.12044,-0.0105 -0.23765,-0.0299 -0.35547,-0.0488 a 5.0005,5.0005 0 0 1 -0.13867,-0.0215 c -0.15495,-0.0294 -0.30753,-0.0661 -0.45703,-0.10938 -0.24498,-0.071 -0.47722,-0.16757 -0.70508,-0.27344 a 5.0005,5.0005 0 0 1 -0.6582,-0.36132 c -0.0629,-0.0417 -0.12084,-0.0884 -0.18164,-0.13282 a 5.0005,5.0005 0 0 1 -0.48633,-0.40625 c -0.0962,-0.0909 -0.18669,-0.185 -0.27539,-0.2832 a 5.0005,5.0005 0 0 1 -0.32227,-0.39844 c -0.0948,-0.12923 -0.18147,-0.26215 -0.26367,-0.40039 a 5.0005,5.0005 0 0 1 -0.21875,-0.41211 c -0.31742,-0.66904 -0.50729,-1.4099 -0.49609,-2.2012 v -31.371 h 0.0137 v -13.615 h -18.893 v 13.594 l 0.0391,0.0215 7.9609,4.3164 v 27.055 c 0.0389,2.7518 -2.1512,5.0104 -4.8887,5.0703 -0.0371,5.9e-4 -8.074,0 -8.1113,0 -2.7894,0 -5.0394,-2.2812 -5,-5.0703 v -49.986 c 2.8e-4,-2.7613 2.2387,-4.9997 5,-5 h 28.096 a 5.0005,5.0005 0 0 1 0.72071,-0.0703 z m 139.68,0.0703 h 37.328 a 5.0005,5.0005 0 0 1 5,5 v 11.506 a 5.0005,5.0005 0 1 1 -10,0 v -6.5059 h -27.328 v 13.615 h 0.0391 l 7.9609,4.3164 v 22.055 h 20.352 v -10.469 a 5.0005,5.0005 0 1 1 10,0 v 15.469 a 5.0005,5.0005 0 0 1 -5,5 h -29.545 c -0.22766,0.037 -0.45836,0.0653 -0.69531,0.0703 -0.0371,5.9e-4 -8.074,0 -8.1113,0 -2.7894,0 -5.0394,-2.2812 -5,-5.0703 v -49.986 a 5.0005,5.0005 0 0 1 5,-5 z m -53.096,0.33985 h 35.367 c 3.3468,0 6.3066,2.8201 6.3066,6.2734 v 47.039 c 0,3.4533 -2.9598,6.2754 -6.3066,6.2754 h -27.553 c -0.32744,0.0755 -0.66695,0.1209 -1.0156,0.1289 -0.0371,5.9e-4 -8.074,0 -8.1113,0 -2.7894,0 -5.0394,-2.2812 -5,-5.0703 v -31.371 h 0.006 v -17.002 c 0,-3.4534 2.9598,-6.2734 6.3066,-6.2734 z m 3.5781,9.8828 v 13.393 h 0.14844 l 7.9609,4.3164 v 22.111 h 20.102 v -39.82 z"
       opacity="0.3"
       id="path950" />
    <path
       d="m 176.45,143.85 c -61.6,0 -111.43,49.83 -111.43,111.43 -10e-7,61.6 49.828,111.43 111.43,111.43 27.832,0 53.259,-10.174 72.775,-27.008 -12.972,-13.399 -22.883,-29.774 -28.619,-47.99 h 10.504 c 5.3803,15.581 14.11,29.592 25.34,41.168 11.23,-11.575 19.959,-25.587 25.34,-41.168 h 10.506 c -5.7358,18.217 -15.647,34.591 -28.619,47.99 19.516,16.834 44.942,27.008 72.773,27.008 61.6,0 111.43,-49.83 111.43,-111.43 0,-61.6 -49.83,-111.43 -111.43,-111.43 -27.832,0 -53.258,10.174 -72.773,27.008 13.647,14.097 23.91,31.486 29.482,50.85 H 282.735 C 277.4635,204.98 268.362,189.96 256.45,177.681 244.538,189.96 235.438,204.98 230.167,221.708 h -10.422 c 5.5732,-19.364 15.835,-36.753 29.482,-50.85 C 229.711,154.024 204.282,143.85 176.45,143.85 Z m 65.42,59.258 h 16.363 a 5.0005,5.0005 0 1 1 0,10 H 246.87 v 13.521 h 4.7148 a 5.0005,5.0005 0 1 1 0,10 H 246.87 v 13.615 h 0.0391 l 7.9609,4.3164 v 27.055 c 0.0389,2.7518 -2.1512,5.0104 -4.8887,5.0703 -0.0368,5.9e-4 -7.8508,3e-5 -8.0352,0 h -0.0762 c -0.0651,0 -0.12886,-0.008 -0.19336,-0.01 a 5.0005,5.0005 0 0 1 -0.26757,-0.0137 c -0.0905,-0.008 -0.17858,-0.0222 -0.26758,-0.0352 a 5.0005,5.0005 0 0 1 -0.24219,-0.0371 c -0.0952,-0.0188 -0.18805,-0.0444 -0.28125,-0.0684 a 5.0005,5.0005 0 0 1 -0.18359,-0.0469 c -0.11222,-0.0335 -0.22134,-0.0741 -0.33008,-0.11524 a 5.0005,5.0005 0 0 1 -0.13867,-0.0508 c -0.0442,-0.0181 -0.0854,-0.0411 -0.12891,-0.0605 a 5.0005,5.0005 0 0 1 -0.77148,-0.42382 c -0.0148,-0.01 -0.0284,-0.0211 -0.043,-0.0312 a 5.0005,5.0005 0 0 1 -0.70313,-0.5879 c -0.0107,-0.0108 -0.0206,-0.0223 -0.0312,-0.0332 A 5.0005,5.0005 0 0 1 237.7156,284.465 c -0.004,-0.005 -0.009,-0.009 -0.0117,-0.0137 -0.009,-0.0139 -0.0164,-0.029 -0.0254,-0.043 a 5.0005,5.0005 0 0 1 -0.41016,-0.77344 c -0.19942,-0.46972 -0.33211,-0.97405 -0.37891,-1.5039 v -0.002 a 5.0005,5.0005 0 0 1 -0.0195,-0.51367 v -31.371 -13.615 h -5.4824 a 5.0005,5.0005 0 1 1 0,-10 h 5.4824 v -18.521 a 5.0005,5.0005 0 0 1 5,-5 z m -54.535,23.451 a 5.0005,5.0005 0 0 1 0.89453,0.0703 h 27.561 c 2.7613,2.8e-4 4.9997,2.2387 5,5 v 49.986 c 0.0394,2.7891 -2.2106,5.0723 -5,5.0723 -2.7894,0 -5.0394,-2.2832 -5,-5.0723 v -44.986 h -18.379 v 13.615 h 0.0254 l 7.9609,4.3164 v 27.055 c 0.0389,2.7518 -2.1512,5.0104 -4.8887,5.0703 -0.0367,5.9e-4 -7.8113,2e-5 -8.0215,0 h -0.0898 c -0.076,0 -0.14951,-0.009 -0.22461,-0.0117 a 5.0005,5.0005 0 0 1 -0.2168,-0.01 c -0.12044,-0.0105 -0.23765,-0.0299 -0.35547,-0.0488 a 5.0005,5.0005 0 0 1 -0.13867,-0.0215 c -0.15495,-0.0294 -0.30753,-0.0661 -0.45703,-0.10938 -0.24498,-0.071 -0.47722,-0.16757 -0.70508,-0.27344 a 5.0005,5.0005 0 0 1 -0.6582,-0.36132 c -0.0629,-0.0417 -0.12084,-0.0884 -0.18164,-0.13282 a 5.0005,5.0005 0 0 1 -0.48633,-0.40625 c -0.0962,-0.0909 -0.18669,-0.185 -0.27539,-0.2832 a 5.0005,5.0005 0 0 1 -0.32227,-0.39844 c -0.0948,-0.12923 -0.18147,-0.26215 -0.26367,-0.40039 a 5.0005,5.0005 0 0 1 -0.21875,-0.41211 c -0.31742,-0.66904 -0.50729,-1.4099 -0.49609,-2.2012 v -31.371 h 0.0137 v -13.615 h -18.893 v 13.594 l 0.0391,0.0215 7.9609,4.3164 v 27.055 c 0.0389,2.7518 -2.1512,5.0104 -4.8887,5.0703 -0.0371,5.9e-4 -8.074,0 -8.1113,0 -2.7894,0 -5.0394,-2.2812 -5,-5.0703 v -31.371 -18.615 c 2.8e-4,-2.7613 2.2387,-4.9997 5,-5 h 28.096 a 5.0005,5.0005 0 0 1 0.72071,-0.0703 z m 139.68,0.0703 h 37.328 a 5.0005,5.0005 0 0 1 5,5 v 11.506 a 5.0005,5.0005 0 1 1 -10,0 v -6.5059 h -27.328 v 13.615 h 0.0391 l 7.9609,4.3164 v 22.055 h 20.352 v -10.469 a 5.0005,5.0005 0 1 1 10,0 v 15.469 a 5.0005,5.0005 0 0 1 -5,5 h -29.545 c -0.22766,0.037 -0.45836,0.0653 -0.69531,0.0703 -0.0371,5.9e-4 -8.074,0 -8.1113,0 -2.7894,0 -5.0394,-2.2812 -5,-5.0703 v -49.986 a 5.0005,5.0005 0 0 1 5,-5 z m -53.096,0.33985 h 35.367 c 3.3468,0 6.3066,2.8201 6.3066,6.2734 v 47.039 c 0,3.4533 -2.9598,6.2754 -6.3066,6.2754 h -27.553 c -0.32744,0.0755 -0.66695,0.1209 -1.0156,0.1289 -0.0371,5.9e-4 -8.074,0 -8.1113,0 -2.7894,0 -5.0394,-2.2812 -5,-5.0703 v -31.371 h 0.006 v -17.002 c 0,-3.4534 2.9598,-6.2734 6.3066,-6.2734 z m 3.5781,9.8828 v 13.393 h 0.14844 l 7.9609,4.3164 v 22.111 h 20.102 v -39.82 h -28.211 z"
       fill="#ffffff"
       id="path952" />
    <path
       d="m 51,101.03 c -16.62,0 -30,13.38 -30,30 v 10 c 0,-16.62 13.38,-30 30,-30 h 410 c 16.62,0 30,13.38 30,30 v -10 c 0,-16.62 -13.38,-30 -30,-30 z"
       fill="#ffffff"
       opacity="0.2"
       id="path954" />
    <path
       d="m 21,370.97 v 10 c 0,16.62 13.38,30 30,30 h 410 c 16.62,0 30,-13.38 30,-30 v -10 c 0,16.62 -13.38,30 -30,30 H 51 c -16.62,0 -30,-13.38 -30,-30 z"
       opacity="0.3"
       id="path956" />
  </g>
</svg>
