<?xml version="1.0" encoding="UTF-8" standalone="no"?>
<svg
   version="1.1"
   viewBox="0 0 512 512"
   id="svg940"
   sodipodi:docname="mfterm.svg"
   inkscape:version="1.1.2 (0a00cf5339, 2022-02-04)"
   xmlns:inkscape="http://www.inkscape.org/namespaces/inkscape"
   xmlns:sodipodi="http://sodipodi.sourceforge.net/DTD/sodipodi-0.dtd"
   xmlns="http://www.w3.org/2000/svg"
   xmlns:svg="http://www.w3.org/2000/svg">
  <sodipodi:namedview
     id="namedview942"
     pagecolor="#505050"
     bordercolor="#eeeeee"
     borderopacity="1"
     inkscape:pageshadow="0"
     inkscape:pageopacity="0"
     inkscape:pagecheckerboard="0"
     showgrid="false"
     inkscape:zoom="0.87304688"
     inkscape:cx="256"
     inkscape:cy="256"
     inkscape:window-width="1366"
     inkscape:window-height="695"
     inkscape:window-x="0"
     inkscape:window-y="24"
     inkscape:window-maximized="1"
     inkscape:current-layer="svg940" />
  <defs
     id="defs920">
    <linearGradient
       id="a"
       x1="21.002"
       x2="491"
       y1="-191.99"
       y2="-191.99"
       gradientTransform="translate(-0.0034936,447.99)"
       gradientUnits="userSpaceOnUse">
      <stop
         stop-color="#fd3535"
         offset="0"
         id="stop915" />
      <stop
         stop-color="#951212"
         offset="1"
         id="stop917" />
    </linearGradient>
  </defs>
  <g
     id="g938"
     transform="matrix(1.0305698,0,0,1.0123786,-23.527733,-3.1704402)">
    <path
       d="m 392.93,92.93 c -4.6962,0 -8.4957,3.8053 -8.4957,8.4986 0,4.6934 3.7995,8.4986 8.4957,8.4986 53.486,0 96.85,43.358 96.85,96.85 0,4.6934 3.8024,8.4986 8.4986,8.4986 4.6905,0 8.4986,-3.8053 8.4986,-8.4986 0,-62.876 -50.974,-113.85 -113.85,-113.85 z"
       fill="#ffffff"
       opacity="0.2"
       stroke="#000000"
       stroke-width="10"
       id="path922" />
    <path
       d="m 50.653,79.164 h 410.7 c 11.021,0 19.953,8.9323 19.953,19.953 v 313.76 c 0,11.021 -8.9323,19.958 -19.953,19.958 h -410.7 c -11.021,0 -19.958,-8.9375 -19.958,-19.958 V 99.117 c 0,-11.021 8.9375,-19.953 19.958,-19.953 z"
       fill="url(#a)"
       fill-rule="evenodd"
       id="path924"
       style="fill:url(#a)" />
    <path
       d="m 81.649,199.59 v 15.381 c -6.4424,1.0816 -11.88,3.2298 -15.986,6.7676 l -0.002,0.002 c -5.198,4.4892 -7.873,10.908 -7.873,18.375 0,6.9306 2.4888,12.918 7.3184,17.074 l 0.004,0.004 0.006,0.008 c 3.9314,3.3471 9.6279,5.5375 16.533,7.1289 v 22.809 c -2.3554,-0.31275 -4.7263,-0.54873 -7.002,-1.2383 -4.0485,-1.2919 -8.0907,-3.1844 -12.131,-5.7188 l -4.7285,-2.9668 v 18.865 l 1.8828,0.79883 c 4.5796,1.9426 9.1519,3.4122 13.711,4.4141 l 0.0117,0.004 0.0156,0.004 c 2.7479,0.57537 5.4942,0.81967 8.2402,1.0762 v 19.268 h 17.365 v -19.619 c 6.8332,-1.1101 12.568,-3.3347 16.859,-7.0156 l 0.002,-0.004 c 5.4084,-4.6526 8.1875,-11.28 8.1875,-19.002 0,-7.1999 -2.6548,-13.408 -7.7734,-17.719 l -0.002,-0.004 -0.004,-0.002 c -4.1519,-3.4863 -10.093,-5.7438 -17.27,-7.3359 v -20.906 c 1.6142,0.25422 3.2543,0.42046 4.8203,0.83594 l 0.004,0.002 h 0.004 c 3.4458,0.90389 6.7963,2.1727 10.051,3.8242 l 4.4883,2.2754 v -18.196 l -2.1309,-0.69532 c -3.5931,-1.1731 -7.2713,-2.0741 -11.033,-2.7226 -2.0152,-0.36944 -4.1159,-0.56202 -6.2031,-0.78125 v -14.99 z m 3.0918,26.93 v 0.002 h -0.01 c 0.003,-6.3e-4 0.006,-0.001 0.01,-0.002 z m -3.0918,4.123 v 16.4 c -1.6129,-0.6184 -2.9578,-1.2828 -3.7891,-1.9785 -1.6304,-1.407 -2.4082,-3.1088 -2.4082,-6.0078 0,-2.9382 0.84684,-4.8142 2.7402,-6.4648 l 0.002,-0.002 c 0.001,-8.8e-4 0.003,-0.002 0.004,-0.004 0.87535,-0.75811 2.0641,-1.3925 3.4512,-1.9434 z m 17.365,37.807 c 1.9285,0.72556 3.5557,1.5108 4.5449,2.3516 l 0.016,0.016 c 1.9207,1.6094 2.7637,3.435 2.7637,6.373 0,2.9948 -0.89143,4.9353 -2.9609,6.6895 l -0.008,0.008 -0.01,0.006 c -1.0296,0.88378 -2.5618,1.6265 -4.3457,2.2812 z m 28.213,48.859 v 15.1 h 72.57 v -15.1 h -3.0879 z"
       opacity="0.5"
       id="path926" />
    <path
       d="m 81.649,189.59 v 15.381 c -6.4424,1.0816 -11.88,3.2298 -15.986,6.7676 l -0.0019,0.002 c -5.198,4.4892 -7.873,10.908 -7.873,18.375 0,6.9306 2.4888,12.918 7.3184,17.074 l 0.0039,0.004 0.0059,0.008 c 3.9314,3.3471 9.6279,5.5375 16.533,7.1289 v 22.809 c -2.3554,-0.31275 -4.7263,-0.54873 -7.002,-1.2383 -4.0485,-1.2919 -8.0907,-3.1844 -12.131,-5.7188 l -4.7285,-2.9668 v 18.865 l 1.8828,0.79883 c 4.5796,1.9426 9.1519,3.4122 13.711,4.4141 l 0.01172,0.004 0.01562,0.004 c 2.7479,0.57537 5.4942,0.81967 8.2402,1.0762 v 19.268 h 17.365 v -19.619 c 6.8332,-1.1101 12.568,-3.3347 16.859,-7.0156 l 0.002,-0.004 c 5.4084,-4.6526 8.1875,-11.28 8.1875,-19.002 0,-7.1999 -2.6548,-13.408 -7.7734,-17.719 l -0.002,-0.004 -0.004,-0.002 c -4.1519,-3.4863 -10.093,-5.7438 -17.27,-7.3359 v -20.906 c 1.6142,0.25422 3.2543,0.42046 4.8203,0.83594 l 0.004,0.002 h 0.004 c 3.4458,0.90389 6.7963,2.1727 10.051,3.8242 l 4.4883,2.2754 v -18.196 l -2.1309,-0.69532 c -3.5931,-1.1731 -7.2713,-2.0741 -11.033,-2.7226 -2.0152,-0.36944 -4.1159,-0.56202 -6.2031,-0.78125 v -14.99 z m 3.0918,26.93 v 0.002 H 84.731 c 0.0033,-6.3e-4 0.0064,-0.001 0.0098,-0.002 z m -3.0918,4.123 v 16.4 c -1.6129,-0.6184 -2.9578,-1.2828 -3.7891,-1.9785 -1.6304,-1.407 -2.4082,-3.1088 -2.4082,-6.0078 0,-2.9382 0.84684,-4.8142 2.7402,-6.4648 l 0.002,-0.002 c 0.001,-8.8e-4 0.0029,-0.002 0.0039,-0.004 0.87535,-0.75811 2.0641,-1.3925 3.4512,-1.9434 z m 17.365,37.807 c 1.9285,0.72556 3.5557,1.5108 4.5449,2.3516 l 0.016,0.016 c 1.9207,1.6094 2.7637,3.435 2.7637,6.373 0,2.9948 -0.89143,4.9353 -2.9609,6.6895 l -0.008,0.008 -0.01,0.006 c -1.0296,0.88378 -2.5618,1.6265 -4.3457,2.2812 z m 28.213,48.859 v 15.1 h 72.57 v -15.1 h -3.0879 z"
       fill="#ffffff"
       id="path928" />
    <path
       d="m 392.93,102.51 c -4.6962,0 -8.4961,3.8047 -8.4961,8.498 0,4.6933 3.7999,8.5 8.4961,8.5 53.486,0 96.852,43.358 96.852,96.85 0,4.6934 3.8018,8.498 8.498,8.498 4.6905,0 8.498,-3.8047 8.498,-8.498 0,-62.876 -50.975,-113.85 -113.85,-113.85 z m 0,33.992 c -4.6962,0 -8.4961,3.8047 -8.4961,8.498 0,4.6933 3.7999,8.498 8.4961,8.498 34.716,0 62.859,28.143 62.859,62.861 0,4.6934 3.8047,8.5 8.498,8.5 4.6934,0 8.498,-3.8066 8.498,-8.5 0,-44.105 -35.756,-79.857 -79.855,-79.857 z m -113.95,12.18 c -28.157,0 -50.986,22.828 -50.986,50.988 v 131.02 c 0,28.16 22.829,50.984 50.986,50.984 H 410 c 28.16,0 50.988,-22.824 50.988,-50.984 v -70.002 c 0,-4.6934 -3.8076,-8.498 -8.498,-8.498 -4.6962,0 -8.498,3.8057 -8.498,8.502 v 70 c 0,18.771 -15.219,33.988 -33.992,33.988 H 278.98 c -18.773,0 -33.992,-15.218 -33.992,-33.988 v -131.02 c 0,-18.773 15.219,-33.992 33.992,-33.992 h 69.482 c 4.6934,0 8.5,-3.8047 8.5,-8.498 0,-4.6933 -3.8066,-8.502 -8.5,-8.502 H 278.98 Z m 113.95,21.811 c -4.6962,0 -8.4961,3.8066 -8.4961,8.5 0,4.6934 3.7999,8.498 8.4961,8.498 15.945,-0.003 28.867,12.922 28.867,28.867 0,4.6934 3.8066,8.498 8.5,8.498 4.6934,0 8.498,-3.8047 8.498,-8.498 0,-25.332 -20.536,-45.865 -45.865,-45.865 z m -116.9,9.2344 c -9.3838,0 -16.994,7.6085 -16.994,16.998 v 136.92 c 0,9.3896 7.6074,16.996 16.994,16.996 h 93.51 c 4.9693,0 8.5006,-1.4625 12.016,-4.9746 14.474,-14.471 28.943,-28.945 43.414,-43.416 3.5179,-3.515 4.9785,-7.0435 4.9785,-12.016 v -16.549 c 0,-9.3896 -7.6114,-16.998 -16.998,-16.998 h -39.186 v -9.3262 c 0,-6.3114 -5.1378,-11.447 -11.449,-11.447 h -35.65 c -6.3114,-0.003 -11.447,5.1339 -11.447,11.445 v 35.648 c 0,6.3114 5.1358,11.451 11.447,11.451 h 35.652 c 6.3114,0 11.451,-5.1397 11.451,-11.451 v -9.3262 h 39.184 v 16.549 c -14.474,14.474 -28.941,28.946 -43.412,43.414 h -93.51 v -72.363 -64.555 h 72.438 c 4.6934,0 8.498,-3.8047 8.498,-8.498 0,-4.6933 -3.8047,-8.5 -8.498,-8.5 h -72.438 z m 116.9,24.758 a 11.873,11.873 0 0 0 -11.873,11.873 11.873,11.873 0 0 0 11.873,11.873 11.873,11.873 0 0 0 11.873,-11.873 11.873,11.873 0 0 0 -11.873,-11.873 z"
       opacity="0.3"
       stroke-width="2.8741"
       id="path930" />
    <path
       d="m 392.93,92.93 c -4.6962,0 -8.4961,3.8047 -8.4961,8.498 0,4.6934 3.7999,8.5 8.4961,8.5 53.486,0 96.852,43.358 96.852,96.85 0,4.6934 3.8018,8.498 8.498,8.498 4.6905,0 8.498,-3.8047 8.498,-8.498 0,-62.876 -50.975,-113.85 -113.85,-113.85 z m 0,33.992 c -4.6962,0 -8.4961,3.8047 -8.4961,8.498 0,4.6933 3.7999,8.498 8.4961,8.498 34.716,0 62.859,28.143 62.859,62.861 0,4.6934 3.8047,8.5 8.498,8.5 4.6933,0 8.498,-3.8066 8.498,-8.5 0,-44.105 -35.756,-79.857 -79.855,-79.857 z m -113.95,12.18 c -28.157,0 -50.986,22.828 -50.986,50.988 v 131.02 c 0,28.16 22.829,50.986 50.986,50.986 H 410 c 28.16,0 50.988,-22.826 50.988,-50.986 v -70 c 0,-4.6934 -3.8076,-8.498 -8.498,-8.498 -4.6962,0 -8.498,3.8057 -8.498,8.502 v 70 c 0,18.771 -15.219,33.988 -33.992,33.988 H 278.98 c -18.773,0 -33.992,-15.218 -33.992,-33.988 v -131.02 c 0,-18.773 15.219,-33.992 33.992,-33.992 h 69.482 c 4.6934,0 8.5,-3.8047 8.5,-8.498 0,-4.6933 -3.8066,-8.502 -8.5,-8.502 z m 113.95,21.811 c -4.6962,0 -8.4961,3.8066 -8.4961,8.5 0,4.6934 3.7999,8.498 8.4961,8.498 15.945,-0.003 28.867,12.922 28.867,28.867 0,4.6934 3.8066,8.498 8.5,8.498 4.6934,0 8.498,-3.8047 8.498,-8.498 0,-25.332 -20.536,-45.865 -45.865,-45.865 z m -116.9,9.2344 c -9.3838,0 -16.994,7.6085 -16.994,16.998 v 136.92 c 0,9.3896 7.6074,16.996 16.994,16.996 h 93.51 c 4.9693,0 8.5006,-1.4625 12.016,-4.9746 14.474,-14.471 28.943,-28.945 43.414,-43.416 3.5179,-3.515 4.9785,-7.0435 4.9785,-12.016 v -16.549 c 0,-9.3896 -7.6114,-16.998 -16.998,-16.998 h -39.186 v -9.3262 c 0,-6.3114 -5.1378,-11.447 -11.449,-11.447 h -35.65 c -6.3114,-0.003 -11.447,5.1339 -11.447,11.445 v 35.648 c 0,6.3114 5.1358,11.451 11.447,11.451 h 35.652 c 6.3114,0 11.451,-5.1397 11.451,-11.451 v -9.3262 h 39.184 v 16.549 c -14.474,14.474 -28.941,28.946 -43.412,43.414 h -93.51 v -72.363 -64.555 h 72.438 c 4.6934,0 8.498,-3.8047 8.498,-8.498 0,-4.6933 -3.8047,-8.5 -8.498,-8.5 h -72.438 z m 116.9,24.758 a 11.873,11.873 0 0 0 -11.873,11.873 11.873,11.873 0 0 0 11.873,11.873 11.873,11.873 0 0 0 11.873,-11.873 11.873,11.873 0 0 0 -11.873,-11.873 z"
       fill="#ffffff"
       stroke-width="2.8741"
       id="path932" />
    <path
       d="m 50.652,79.164 c -11.02,10e-7 -19.957,8.9321 -19.957,19.953 v 10 c 0,-11.021 8.9365,-19.953 19.957,-19.953 h 410.7 c 11.021,0 19.953,8.9324 19.953,19.953 v -10 c 0,-11.021 -8.9321,-19.953 -19.953,-19.953 z"
       fill="#ffffff"
       fill-rule="evenodd"
       opacity="0.2"
       id="path934" />
    <path
       d="m 30.695,402.88 v 10 c 0,11.02 8.936,19.959 19.957,19.959 h 410.7 c 11.021,0 19.953,-8.938 19.953,-19.959 v -10 c 0,11.021 -8.9324,19.959 -19.953,19.959 h -410.7 c -11.021,0 -19.957,-8.9385 -19.957,-19.959 z"
       fill-rule="evenodd"
       opacity="0.3"
       id="path936" />
  </g>
</svg>
