<?xml version="1.0" encoding="UTF-8" standalone="no"?>
<!-- Generator: Adobe Illustrator 18.1.1, SVG Export Plug-In . SVG Version: 6.00 Build 0)  -->

<svg
   version="1.1"
   id="Layer_1"
   x="0px"
   y="0px"
   viewBox="0 0 512.00002 512.00002"
   enable-background="new 0 0 960 560"
   xml:space="preserve"
   inkscape:version="1.2.2 (b0a8486541, 2022-12-01)"
   sodipodi:docname="micro.svg"
   width="512"
   height="512"
   inkscape:export-filename="../GIT Icons/micro.png"
   inkscape:export-xdpi="96"
   inkscape:export-ydpi="96"
   xmlns:inkscape="http://www.inkscape.org/namespaces/inkscape"
   xmlns:sodipodi="http://sodipodi.sourceforge.net/DTD/sodipodi-0.dtd"
   xmlns="http://www.w3.org/2000/svg"
   xmlns:svg="http://www.w3.org/2000/svg"
   xmlns:rdf="http://www.w3.org/1999/02/22-rdf-syntax-ns#"
   xmlns:cc="http://creativecommons.org/ns#"
   xmlns:dc="http://purl.org/dc/elements/1.1/"><metadata
     id="metadata9"><rdf:RDF><cc:Work
         rdf:about=""><dc:format>image/svg+xml</dc:format><dc:type
           rdf:resource="http://purl.org/dc/dcmitype/StillImage" /></cc:Work></rdf:RDF></metadata><defs
     id="defs7" /><sodipodi:namedview
     pagecolor="#282828"
     bordercolor="#ffffff"
     borderopacity="1"
     objecttolerance="10"
     gridtolerance="10"
     guidetolerance="10"
     inkscape:pageopacity="0"
     inkscape:pageshadow="2"
     inkscape:window-width="1366"
     inkscape:window-height="695"
     id="namedview5"
     showgrid="false"
     fit-margin-top="0"
     fit-margin-left="0"
     fit-margin-right="0"
     fit-margin-bottom="0"
     inkscape:zoom="0.80728025"
     inkscape:cx="306.58498"
     inkscape:cy="239.69371"
     inkscape:window-x="0"
     inkscape:window-y="24"
     inkscape:window-maximized="1"
     inkscape:current-layer="Layer_1"
     inkscape:showpageshadow="0"
     inkscape:pagecheckerboard="true"
     inkscape:deskcolor="#464646" /><g
     id="g626"
     transform="matrix(0.94318012,0,0,0.93369494,14.540675,16.975934)"><path
       id="path474"
       style="fill:#ffffff;stroke-width:7.33612"
       d="M 253.45508,-7.9648438 C 207.661,-7.5390819 162.02393,5.0411069 122.54012,28.259835 88.056251,48.460038 58.234054,76.586123 36.153458,109.90524 14.289105,142.791 -0.09408456,180.6326 -5.4617898,219.76379 c -5.2249952,37.59825 -2.2349887,76.32461 8.8013945,112.64989 10.8017553,35.74233 29.2633573,69.15833 53.8698613,97.24935 23.669433,27.1013 52.926764,49.31204 85.444514,64.72874 32.30695,15.36588 67.75934,24.09518 103.51502,25.39401 33.80516,1.27944 67.84977,-4.00623 99.65129,-15.55347 32.12781,-11.62011 61.97461,-29.52705 87.2861,-52.48016 24.97556,-22.58659 45.58774,-49.98892 60.28183,-80.29251 16.22614,-33.33761 25.35623,-70.12221 26.4567,-107.1896 1.13297,-36.57376 -5.39621,-73.37727 -19.1541,-107.28974 C 486.50498,121.91029 464.69543,89.94138 437.15163,64.002294 410.49686,38.856614 378.56478,19.32039 344.00126,7.1324196 315.0016,-3.1134243 284.21215,-8.2619571 253.45508,-7.9648438 Z" /><path
       d="M 255.99999,5.999998 C 117.9186,5.999998 6.0000025,117.9186 6.0000025,255.99999 6.0000025,394.08138 117.9186,506 255.99999,506 394.08138,506 506,394.08138 506,255.99999 506,117.9186 394.08138,5.999998 255.99999,5.999998 Z M 374.70154,289.91471 c -2.42248,9.68993 -6.29845,17.44186 -11.62791,23.74031 -4.84496,6.29845 -9.68992,10.17442 -15.01938,12.11241 -5.32946,1.93798 -10.65891,2.90697 -16.47287,2.90697 -5.81395,0 -10.65891,-0.96899 -14.53488,-3.39147 -3.87597,-1.93799 -6.78294,-5.32946 -9.20542,-9.20543 -2.42248,-3.87597 -3.87597,-8.72093 -4.84497,-14.05038 -0.96899,-5.32946 -1.45348,-11.14341 -1.45348,-17.44186 0,-2.42248 0,-4.84496 0.48449,-8.23644 0.4845,-3.39147 0.96899,-7.75193 1.45349,-7.75193 h -0.96899 c -7.75194,19.37984 -18.41085,33.43023 -31.97674,44.57364 -13.56589,11.14341 -28.58527,16.47286 -45.05814,16.47286 -11.14341,0 -20.34884,-4.36046 -26.64729,-12.59689 -6.78294,-8.23644 -10.17442,-20.83334 -10.17442,-37.3062 0,-2.42249 0,-4.84497 0.4845,-7.75194 0.4845,-2.42248 0.4845,-3.39147 0.96899,-8.23644 h -3.39147 c -4.36046,9.68993 -8.23643,23.25582 -11.14341,35.36822 -2.90698,12.1124 -5.32946,23.25581 -6.78295,33.43023 -1.93798,10.17442 -2.90697,19.37985 -3.87596,27.13178 -0.969,7.75194 -1.45349,13.0814 -1.93799,15.98837 0.4845,2.42248 0.96899,4.84497 1.45349,7.75194 0.96899,2.90698 1.45349,5.81396 2.42248,8.23644 0.96899,2.42248 1.45349,5.32945 1.93798,7.75193 0.4845,2.42248 0.969,4.36047 0.969,5.81396 0,6.78294 -1.45349,12.1124 -4.36047,15.50387 -2.90697,3.39147 -6.29845,5.32946 -9.68992,5.32946 -4.36046,0 -8.23643,-1.45349 -11.14341,-3.87597 -3.39147,-2.90698 -4.84496,-7.26744 -4.84496,-13.08139 0,-8.23644 1.45349,-18.89535 4.36046,-31.49225 2.90698,-12.5969 7.26745,-28.58527 12.5969,-47.48062 2.90698,-8.72093 5.32946,-17.44186 8.23644,-26.16279 2.90697,-8.72093 5.32945,-16.95736 7.75193,-24.2248 2.42248,-7.26745 4.36047,-14.05039 6.29845,-19.86434 1.93799,-5.81396 2.90698,-10.17442 3.39148,-13.5659 0.48449,-1.45348 0.96899,-4.84496 1.45348,-9.68992 0.4845,-4.84496 0.969,-10.17442 1.93799,-16.47287 0.96899,-6.29844 1.45349,-13.08139 2.42248,-19.86434 0.96899,-7.26744 1.93798,-13.56589 2.42248,-19.37984 0.96899,-4.36046 1.45349,-9.20543 2.42248,-14.53488 0.96899,-5.32946 2.42248,-10.65892 4.36046,-15.01938 1.93799,-4.84496 4.84497,-8.72093 8.23644,-12.11241 3.39147,-3.39147 7.75194,-4.84496 13.08139,-4.84496 5.81396,0 9.68993,1.93799 11.62791,5.32946 1.93798,3.39147 2.90698,7.75194 2.42248,12.5969 -0.4845,4.84496 -0.96899,10.17442 -2.42248,15.50388 -1.45349,5.32945 -2.90698,10.17441 -4.36047,14.05038 -3.87596,12.1124 -7.75193,23.25582 -12.1124,32.46124 -4.36046,9.20543 -8.23643,19.37985 -11.6279,30.03876 -2.90698,7.26744 -3.87597,14.05039 -3.87597,19.86434 0,10.65891 3.39147,18.41085 9.68992,24.22481 6.78294,5.81395 14.53488,8.23643 23.74031,8.23643 7.26744,0 14.53488,-2.42248 21.31783,-7.75194 6.78294,-5.32946 13.08139,-11.62791 18.89534,-18.89535 5.81396,-7.26744 10.65892,-15.01938 14.53489,-23.74031 3.87597,-8.23643 6.78294,-15.98837 8.72093,-22.28682 0.48449,-0.96899 0.96899,-2.90697 1.45349,-6.78294 0.96899,-3.87597 1.45348,-8.23644 2.42248,-13.0814 0.96899,-4.84496 1.93798,-9.68992 2.90697,-15.01938 0.96899,-5.32945 1.93799,-9.68992 2.42248,-13.08139 0.969,-3.87597 1.45349,-7.75194 2.42248,-12.5969 0.969,-4.84496 2.42248,-9.20543 4.36047,-13.56589 1.93798,-4.36047 4.84496,-7.75194 7.75194,-10.65892 3.39147,-2.90697 7.26744,-4.36046 12.59689,-4.36046 6.29845,0 10.17442,1.93798 12.5969,5.32946 1.93799,3.39147 2.90698,7.75193 2.90698,12.5969 -0.4845,4.84496 -0.96899,9.68992 -2.42248,14.53488 -1.45349,4.84496 -2.42248,8.72093 -3.39147,11.62791 -3.87597,12.1124 -7.75194,22.77131 -11.62791,32.46123 -3.87597,9.68993 -7.26744,18.41086 -10.65891,25.1938 -2.90698,7.26744 -5.32946,12.5969 -7.26745,16.95737 -1.93798,4.36046 -2.90697,7.26744 -2.90697,8.72093 0,12.59689 2.90697,21.80232 8.23643,27.13178 5.32946,5.32945 11.14341,8.23643 17.44186,8.23643 10.65892,0 18.89535,-3.39147 25.1938,-9.68992 6.29845,-6.78295 11.14341,-18.89535 14.05039,-33.43023 h 3.87596 c 0.969,14.05039 -0.48449,25.67829 -2.90697,35.36821 z"
       id="path3"
       inkscape:connector-curvature="0"
       style="fill:#2e3192;stroke-width:4.84497" /></g></svg>
