<?xml version="1.0" encoding="UTF-8" standalone="no"?>
<!-- Created with Inkscape (http://www.inkscape.org/) -->

<svg
   version="1.1"
   id="svg870"
   width="512"
   height="512"
   viewBox="0 0 512 512"
   sodipodi:docname="mifare.svg"
   inkscape:version="1.2.2 (b0a8486541, 2022-12-01)"
   xmlns:inkscape="http://www.inkscape.org/namespaces/inkscape"
   xmlns:sodipodi="http://sodipodi.sourceforge.net/DTD/sodipodi-0.dtd"
   xmlns="http://www.w3.org/2000/svg"
   xmlns:svg="http://www.w3.org/2000/svg">
  <defs
     id="defs874" />
  <sodipodi:namedview
     id="namedview872"
     pagecolor="#505050"
     bordercolor="#eeeeee"
     borderopacity="1"
     inkscape:pageshadow="0"
     inkscape:pageopacity="0"
     inkscape:pagecheckerboard="0"
     showgrid="false"
     inkscape:zoom="0.83707865"
     inkscape:cx="217.42282"
     inkscape:cy="256.84564"
     inkscape:window-width="1366"
     inkscape:window-height="705"
     inkscape:window-x="0"
     inkscape:window-y="26"
     inkscape:window-maximized="1"
     inkscape:current-layer="g876"
     inkscape:showpageshadow="0"
     inkscape:deskcolor="#505050" />
  <g
     inkscape:groupmode="layer"
     inkscape:label="Image"
     id="g876">
    <path
       id="path1050-3"
       style="fill:#ffffff;stroke-width:1.85283"
       d="m 347.7863,8.3392501 c -15.77603,0.349605 -31.12139,7.9469239 -41.32658,19.9285229 -3.37671,3.96503 -6.37257,8.302821 -8.56125,13.040635 -1.54419,3.447038 -2.25407,7.559355 -0.67827,11.124392 2.25805,5.19042 8.41978,8.091619 13.89185,6.941224 1.63438,-0.321065 3.20742,-0.958602 4.60258,-1.869279 0.89977,2.746808 2.66079,5.213633 4.99719,6.918689 -18.35703,11.717987 -36.64382,23.546452 -54.96666,35.318248 -24.40639,15.719048 -48.82397,31.418378 -73.04515,47.423688 -8.67611,5.78192 -17.33158,11.61315 -25.62925,17.93267 -3.58036,2.81432 -7.15625,5.78983 -9.73562,9.58823 -2.27526,3.5257 -3.085,8.05171 -1.76711,12.08032 1.46002,5.31909 4.80141,9.81601 7.85523,14.31241 4.3497,6.24089 9.044,12.22956 13.61989,18.30361 -8.73017,4.56786 -17.5249,9.02497 -26.03067,14.00628 -9.03556,5.29566 -17.87727,11.01833 -25.84373,17.84578 -8.0125,6.86822 -15.04562,14.97879 -20.12153,24.26618 -4.19522,7.55829 -7.365451,15.67283 -9.61421,24.01404 -2.144946,9.01517 -1.720754,18.35165 -1.569334,27.54114 0.183408,7.19621 0.502873,14.50712 0.715609,21.62809 0.259029,10.6083 0.393137,21.22269 0.127031,31.83233 -0.101411,3.72768 -0.330596,7.64472 -0.699561,11.43076 -0.162896,1.66508 -0.340294,3.3292 -0.570752,4.98639 -4.563495,1.31166 -8.64883,4.12784 -11.556262,7.87856 -3.507481,4.33561 -6.179493,9.25979 -8.927374,14.09136 -3.082527,5.53959 -6.211617,11.17781 -7.752301,17.37569 -1.119392,4.70624 -0.525859,9.9942 2.410542,13.94569 1.90438,2.68296 4.666152,4.59438 7.570622,6.05768 15.682022,8.25257 31.61926,16.00495 47.54299,23.77664 15.54344,7.51291 31.14359,14.94559 47.14593,21.43813 3.44894,1.36453 7.1445,2.56459 10.90161,2.05633 5.13237,-0.49438 9.92224,-3.24635 13.14941,-7.23902 3.8742,-4.49625 6.55505,-9.84088 9.38196,-15.0183 2.84264,-5.41513 5.67941,-10.90578 7.35178,-16.81572 0.86942,-3.26389 1.17378,-6.72663 0.51856,-10.05706 0.54058,-1.35718 1.49175,-2.5078 2.26598,-3.73857 4.01549,-5.79029 8.60298,-11.15502 13.20406,-16.48153 5.28597,-6.1026 11.10738,-11.72448 16.20735,-17.99018 3.74389,-4.58783 7.29241,-9.38495 9.94785,-14.69904 3.61625,-7.16858 6.54966,-14.66036 9.28829,-22.20104 1.55041,-4.31341 2.96428,-8.67656 4.21432,-13.08655 3.61041,2.666 7.52992,5.08485 11.89553,6.26691 7.58769,1.97404 16.25087,0.16669 22.02072,-5.26191 3.74934,-3.5008 6.13338,-8.54328 6.0133,-13.71662 -0.0532,-4.33608 -0.60998,-8.64971 -1.17859,-12.94352 -0.79986,-5.71579 -1.87096,-11.3956 -3.04022,-17.0422 4.23253,0.1146 8.60295,-0.69051 12.18712,-3.04782 3.6571,-2.2861 6.8557,-5.39436 9.04579,-9.12391 2.46818,-4.50459 2.99391,-9.90723 1.89113,-14.88748 -1.32975,-6.97345 -4.48939,-13.39338 -7.27598,-19.86538 -1.25139,-2.82689 -2.50494,-5.65369 -3.668,-8.51838 7.99467,-5.76444 16.3128,-11.3001 24.52555,-16.84682 23.63675,-15.83098 47.69451,-31.1432 71.45226,-46.85891 8.56627,-5.71819 17.16904,-11.41612 25.23681,-17.83184 3.58401,-2.9196 7.11745,-6.07958 9.51927,-10.08037 2.08571,-3.58439 2.96914,-7.93051 2.02497,-12.00654 -0.84399,-4.41364 -3.226,-8.33273 -5.8962,-11.87347 -11.77397,-16.75619 -24.19832,-33.0401 -36.52841,-49.38725 -9.40467,-12.415286 -18.82885,-24.821304 -28.60727,-36.945977 -0.16343,-0.334564 0.95048,-0.176845 1.28802,-0.364262 4.31363,-0.910565 7.90156,-4.344286 9.21538,-8.526381 5.12291,0.798034 10.68396,-1.169833 13.97344,-5.221263 2.17566,-2.718905 3.06825,-6.416407 2.26348,-9.817411 -0.92376,-4.362598 -3.78686,-7.953729 -6.6101,-11.270187 -3.93714,-4.445668 -8.47602,-8.329208 -13.25145,-11.842358 -5.85525,-4.21225 -12.51771,-7.262814 -19.50424,-9.034944 C 358.23868,8.8708501 353.00819,8.2296939 347.7863,8.3392501 Z m 3.5494,68.6410129 c 1.75211,1.825028 3.23519,3.885713 4.8716,5.81199 3.75203,4.664495 7.42641,9.411701 11.05215,14.162662 -2.63177,-0.187445 -5.24795,0.552738 -7.52359,1.852741 -0.22361,0.02573 0.44942,-0.817505 0.51258,-1.121802 1.7535,-3.507919 1.26066,-7.962114 -1.18983,-11.015991 -2.4388,-3.195984 -6.73968,-4.380312 -10.60894,-3.983068 -3.68471,0.308151 -6.66954,2.702841 -9.78171,4.450866 -15.20627,9.162489 -30.15384,18.746879 -45.16498,28.223849 -27.57935,17.51255 -55.09102,35.13965 -82.3522,53.14791 -3.56813,2.42621 -7.21508,4.75805 -10.59556,7.44338 -3.65369,3.21711 -5.73418,8.49386 -4.3754,13.28928 1.34201,4.75094 5.57442,8.53714 10.41217,9.4296 0.70996,0.0423 -0.53492,0.59768 -0.72792,0.87978 -2.12583,1.66806 -4.04415,3.83566 -4.60277,6.55647 -0.13814,0.3275 -0.1146,1.15553 -0.272,1.2038 -5.80177,-7.78571 -11.55935,-15.60661 -17.10888,-23.57504 13.19141,-9.02894 26.61655,-17.64983 40.03242,-26.34268 36.1446,-23.32354 72.42358,-46.44186 108.92247,-69.207357 6.11815,-3.804189 12.25501,-7.579574 18.45369,-11.251256 z m 29.3405,37.745267 c 12.00461,16.05661 23.87129,32.22295 35.37814,48.64434 0.88466,1.28565 1.76242,2.57603 2.62477,3.87674 -0.55018,0.42272 -1.34929,1.07208 -2.02075,1.55608 -6.40938,4.65607 -13.05631,8.9734 -19.66106,13.34658 -13.54916,8.87001 -27.20535,17.64988 -40.81078,26.46721 -15.75889,10.18911 -31.52065,20.37322 -47.2251,30.64544 -0.66193,-3.84658 -2.21286,-7.51922 -4.49261,-10.68541 -3.14082,-4.54245 -7.13467,-8.55449 -11.85332,-11.44841 -6.3842,-3.87029 -14.1095,-5.5232 -21.50566,-4.40246 -0.36078,0.0112 -1.67166,0.38617 -0.81637,-0.0542 22.78691,-14.3987 45.36852,-29.11799 67.8998,-43.91149 13.6306,-8.98057 27.23853,-18.0025 40.59589,-27.38764 2.34148,-1.70912 4.74877,-3.38217 6.77164,-5.47054 2.64399,-3.03039 3.24971,-7.76123 1.13258,-11.24218 -2.29545,-4.19961 -7.18736,-6.44691 -11.85052,-6.42503 -0.87613,-0.0143 -1.75068,0.10888 -2.60303,0.30645 2.42526,-1.85002 5.12765,-3.73198 6.28432,-6.68314 0.71736,0.95589 1.43471,1.91179 2.15206,2.86768 z M 223.31056,216.13917 c -2.01276,3.69748 -1.24469,8.46215 1.28446,11.71899 2.478,3.36575 6.7929,5.2896 10.95055,4.7266 1.88493,-0.23884 3.70084,-0.93137 5.30653,-1.94083 -3.69548,4.03516 -7.07131,8.34791 -10.26404,12.78887 -0.33936,0.4579 -0.66889,0.92294 -1.00252,1.385 -6.56268,-8.25904 -12.96512,-16.64422 -19.30876,-25.07253 3.72286,0.72812 7.58116,-0.36226 10.75558,-2.33043 0.77107,-0.4275 1.53325,-0.87058 2.29688,-1.31118 z m 51.13945,22.30208 c 4.31464,-0.0138 8.50481,3.29593 9.23032,7.59915 -3.18193,7.95225 -7.14145,15.56238 -11.04021,23.17937 -6.4285,12.35602 -13.45363,24.40927 -19.29225,37.06478 -3.1444,7.07847 -5.30988,14.57149 -6.59864,22.20484 -1.5399,8.09249 -2.91534,16.22559 -4.98536,24.20594 -2.31717,9.38576 -5.17293,18.7958 -8.67378,27.8718 -1.36041,3.4772 -2.88678,6.94816 -4.63822,10.30723 -2.49971,4.845 -6.05584,9.0278 -9.52872,13.1904 -4.65207,5.25371 -9.71422,10.12828 -14.24859,15.48867 -4.52968,5.12562 -8.70577,10.54723 -13.01427,15.85597 -0.37719,0.43953 -0.7548,0.87866 -1.14248,1.309 -11.74251,-5.05257 -23.32386,-10.46971 -34.93742,-15.80986 -10.06479,-4.68952 -20.08685,-9.36734 -29.98767,-14.38926 -1.94059,-1.00206 -3.76676,-1.98584 -5.67069,-3.10443 0.45524,-6.57507 0.55301,-13.16897 0.76247,-19.75482 0.52621,-22.10708 0.26836,-44.22492 0.82355,-66.33153 0.0609,-1.88419 0.13913,-3.96257 0.22231,-5.92043 0.26798,-4.3519 0.37992,-8.76272 1.45497,-13.00923 1.08227,-3.58384 3.02362,-6.82331 4.85549,-10.06115 5.31794,-8.8327 12.28398,-16.69759 20.52234,-22.90301 5.35335,-3.9221 11.19185,-7.04408 16.93786,-10.29834 9.10439,-4.98125 18.33839,-9.74065 27.7928,-14.02371 0.61203,-0.53683 0.882,0.26995 1.25636,0.66886 3.66563,4.66424 7.09595,9.3241 10.54271,14.17192 0.37193,0.54301 0.80855,1.09486 1.14131,1.63247 -0.87506,0.74997 -1.76589,1.48099 -2.67513,2.18908 -3.11425,-2.91511 -6.63858,-5.74958 -10.93523,-6.57296 -4.34993,-0.85622 -9.21083,0.53168 -12.10516,3.98108 -3.50893,3.79474 -4.62111,9.84617 -2.08364,14.45599 1.38031,2.83603 3.93441,4.86019 6.56476,6.47327 2.29502,2.22463 3.68342,5.16576 5.21405,7.92512 2.96528,5.9032 4.95508,12.25029 6.47805,18.66317 -3.39234,4.15966 -7.62677,7.70329 -10.19674,12.4878 -1.99601,3.83444 -1.72967,8.78429 0.89258,12.26143 2.75974,3.7879 7.45874,6.21205 12.17947,5.80503 3.84702,-0.36668 7.32107,-2.50436 10.02252,-5.17989 3.79565,-3.84339 6.79897,-8.37741 9.69516,-12.91355 6.61946,-10.71403 12.52594,-21.84508 18.46427,-32.94395 3.06726,-5.72406 6.21898,-11.48556 9.47261,-17.07303 4.03667,-6.93685 8.31293,-13.86787 14.11213,-19.49077 0.43146,-0.41768 1.13836,-1.09716 1.70131,-1.60259 3.02858,-2.7431 6.25836,-5.31121 9.82877,-7.31263 0.48984,-0.26264 1.0431,-0.28507 1.58603,-0.29723 z m 19.16304,48.8533 c 1.26318,3.11195 2.45776,6.25273 3.53259,9.43491 -2.54244,-0.90523 -4.70681,-2.63197 -6.52903,-4.5894 0.48607,-1.47426 1.31901,-3.04134 2.00074,-4.27534 0.26873,-0.22571 0.61021,-1.58662 0.82559,-0.97986 0.0567,0.13656 0.11341,0.27312 0.17011,0.40969 z m -18.42887,39.3567 c 0.9532,4.57803 2.02297,9.27175 2.89182,13.71773 -0.0139,0.29852 0.48116,1.71813 0.0374,1.0693 -0.16015,-0.21974 -0.62851,-0.84411 -0.88362,-1.23007 -1.76727,-2.65249 -3.29854,-5.6599 -3.2557,-8.92786 -0.0347,-2.14265 0.34684,-4.2675 0.86265,-6.33961 0.11583,0.57017 0.23165,1.14034 0.34747,1.71051 z M 106.57253,427.00308 c 22.56218,10.37187 45.05786,20.88987 67.51426,31.4895 2.92255,1.38466 5.84004,2.78041 8.76057,4.16949 -2.17686,4.47394 -4.49268,8.88832 -7.14738,13.09896 -10.4989,-4.62 -20.85311,-9.5594 -31.25117,-14.40024 -16.95919,-7.96772 -33.86989,-16.04034 -50.657867,-24.36385 2.082146,-4.33213 4.334737,-8.58038 6.669147,-12.78116 2.03748,0.9291 4.07496,1.85819 6.11244,2.7873 z" />
    <path
       id="path4490"
       style="fill:#ffffff;fill-opacity:1;stroke-width:4.65213"
       d="m 98.005394,412.36746 c -2.286637,0.0328 -4.14628,1.67481 -5.309422,3.51708 -2.141866,3.3387 -3.739955,6.98744 -5.656599,10.45471 -1.631598,3.18554 -3.588751,6.22382 -4.855831,9.583 -0.802279,2.02721 -0.836039,4.49916 0.539241,6.29285 1.748135,2.31438 4.449713,3.59933 6.940877,4.94588 6.1169,3.06046 12.33334,5.91802 18.48697,8.90431 19.57746,9.34239 39.20701,18.57852 58.90743,27.65916 2.7502,1.20414 5.42363,2.60612 8.26083,3.59702 1.36862,0.31522 2.96637,0.9961 4.26052,0.11074 1.88873,-1.41078 3.15293,-3.46396 4.52444,-5.34405 4.10115,-6.05287 7.73559,-12.44358 10.58846,-19.18287 0.76213,-1.7238 1.52322,-3.44805 2.28728,-5.17098 -6.40304,-3.23869 -12.80799,-6.47294 -19.30404,-9.52189 -22.28894,-10.59242 -44.68101,-20.96332 -67.09593,-31.28547 -3.23793,-1.46074 -6.45202,-3.19324 -9.89536,-4.20992 -0.874137,-0.22557 -1.772565,-0.3902 -2.678866,-0.34957 z" />
    <path
       id="path4451"
       style="fill:#ffb79d;fill-opacity:1;stroke-width:4.65213"
       d="m 294.44062,268.76496 c -2.03646,0.23235 -3.32905,2.05421 -4.53576,3.52196 -3.6586,4.85187 -6.8394,10.1008 -9.17988,15.71801 -0.69736,1.94346 -1.62455,4.03901 -1.10779,6.13727 0.83949,2.73487 2.88392,4.8787 4.86642,6.85139 3.00666,2.80318 6.4532,5.36949 10.51405,6.35451 3.06374,0.9021 6.53133,1.46159 9.50788,-0.034 1.96888,-1.01861 4.12425,-2.42794 4.66885,-4.72782 0.50455,-2.538 -0.4849,-5.04959 -1.22407,-7.44009 -2.37886,-6.97612 -5.16095,-13.81395 -8.21478,-20.5205 -0.88274,-1.71935 -1.56743,-3.60881 -2.89813,-5.04572 -0.66478,-0.54984 -1.52529,-0.91226 -2.39679,-0.81506 z" />
    <path
       id="path4373"
       style="fill:#ffb79d;fill-opacity:1;stroke-width:4.65213"
       d="m 274.54528,299.48872 c -1.65043,0.0746 -2.52188,1.71902 -3.20382,3.00738 -2.11281,4.35241 -3.57549,8.98735 -4.95955,13.61337 -1.34972,4.78261 -2.68484,9.64269 -2.79256,14.64389 -0.19139,3.14148 0.11312,6.36812 1.42969,9.26045 1.81904,4.41366 4.79807,8.24655 8.10648,11.64267 3.01704,2.953 6.78759,5.36619 11.01062,6.04568 2.08525,0.33 4.60053,-0.10492 5.80046,-2.02178 0.99775,-1.50982 0.5676,-3.41117 0.49322,-5.1023 -0.79245,-7.55219 -2.22978,-15.01974 -3.7456,-22.45458 -1.11287,-5.12066 -2.09736,-10.27296 -2.80065,-15.46628 -0.76027,-3.44659 -2.44329,-6.63432 -4.43822,-9.51895 -1.10482,-1.46664 -2.32957,-3.14734 -4.207,-3.60282 -0.23152,-0.0304 -0.45904,-0.10089 -0.69307,-0.0467 z" />
    <path
       id="path4334"
       style="fill:#ffb79d;fill-opacity:1;stroke-width:4.65213"
       d="m 223.50485,264.31576 c -1.72795,0.30603 -3.06104,1.59593 -4.43571,2.59402 -3.75454,3.0727 -7.33787,6.39035 -10.46618,10.10675 -1.00363,1.21435 -1.95932,2.65081 -1.8012,4.3045 0.1926,3.58188 1.49255,7.04637 3.31294,10.10998 0.67597,1.13591 1.79502,2.45041 3.26823,2.10932 1.62498,-0.42466 2.47809,-2.06279 3.33996,-3.36757 2.67121,-4.51937 4.76329,-9.35779 6.689,-14.2342 1.04558,-2.85312 2.22215,-5.7235 2.54578,-8.76821 0.12881,-1.14552 -0.36438,-2.52245 -1.59804,-2.79403 -0.26524,-0.0978 -0.57592,-0.0843 -0.85478,-0.0606 z" />
    <path
       id="path1187"
       style="fill:#ffb79d;fill-opacity:1;stroke-width:4.65213"
       d="m 274.93571,227.96881 c -4.48153,0.0308 -8.7581,1.9032 -12.29704,4.56602 -5.47123,3.81007 -10.33746,8.47139 -14.38318,13.77228 -5.69343,7.40535 -10.35458,15.53022 -14.96393,23.63499 -5.83051,10.37504 -11.35938,20.91869 -17.30584,31.22909 -3.31346,5.68131 -6.66959,11.46292 -10.62221,16.77175 -1.66062,2.10802 -3.34006,4.37684 -5.75742,5.65995 -0.87992,0.45172 -2.05154,0.40428 -2.84881,-0.17824 -0.0971,-1.20959 0.68036,-2.2962 1.24964,-3.31176 2.24269,-3.5144 5.35433,-6.36682 7.62754,-9.86196 0.93075,-1.45298 2.04727,-2.93377 2.23619,-4.69972 -0.14865,-2.64388 -1.02189,-5.18129 -1.75222,-7.70811 -1.90044,-6.0266 -4.04337,-11.99576 -6.75701,-17.70791 -1.7932,-3.58201 -4.22176,-6.84241 -7.04089,-9.68029 -1.31305,-1.29958 -3.11438,-2.33257 -3.69325,-4.18935 -0.0724,-0.68385 -0.0297,-1.58013 0.53429,-2.04513 1.32972,-0.1695 2.5595,0.62516 3.68947,1.22859 3.10256,1.8956 5.7938,4.37091 8.67254,6.57622 0.61082,0.48719 1.22236,0.97348 1.83373,1.45999 3.93148,-2.92184 7.87288,-5.85348 11.41254,-9.25259 1.51439,-1.49474 3.18273,-2.91479 4.27022,-4.76799 0.34333,-0.67424 0.37671,-1.46402 -0.0337,-2.11618 -1.97868,-3.29543 -4.33131,-6.35028 -6.55682,-9.47947 -3.68502,-4.97502 -7.30895,-10.00157 -11.22739,-14.7971 -1.47991,-1.66999 -2.97961,-3.68677 -5.28879,-4.17399 -1.97131,-0.30171 -3.71547,0.925 -5.46794,1.61705 -9.38476,4.42773 -18.61803,9.17052 -27.81607,13.97243 -5.40841,2.83448 -10.8051,5.72513 -15.82337,9.22112 -10.73632,7.3965 -20.37162,16.64659 -27.24023,27.79581 -4.68497,7.65364 -8.02141,16.34069 -8.39572,25.38016 -0.62861,11.63577 -0.79532,23.2916 -0.90135,34.94254 -0.0793,14.16216 -0.23865,28.38492 -0.61331,42.50489 -0.2097,8.00745 -0.71421,16.00277 -1.09097,24.00324 2.19023,1.70397 4.27039,3.58266 6.74994,4.86893 7.21399,4.03171 14.69807,7.55408 22.14049,11.13636 15.6787,7.43112 31.45491,14.65505 47.32195,21.67611 2.42679,1.02119 4.80363,2.18718 7.30033,3.02555 1.09398,0.3041 2.02964,-0.62349 2.75461,-1.33156 5.36008,-5.51689 10.05557,-11.62294 15.10858,-17.41318 4.91597,-5.76837 9.97685,-11.41011 14.99378,-17.08908 3.43426,-4.00994 6.89217,-8.01883 9.94944,-12.32876 4.28642,-6.42607 7.24183,-13.62294 9.8958,-20.84538 5.30388,-14.79091 8.87907,-30.13373 11.90163,-45.53366 0.76683,-3.69561 1.55859,-7.44806 2.50894,-11.03657 0.91903,-3.51561 2.10255,-7.15476 3.48844,-10.59282 3.34251,-8.19668 7.576,-15.98606 11.66323,-23.8253 5.05754,-9.64257 10.27296,-19.21049 14.92504,-29.0592 1.90106,-4.19815 3.88099,-8.45343 4.64583,-13.03366 0.50109,-2.89298 -0.0198,-5.96818 -1.64395,-8.4369 -2.87507,-4.41736 -6.99039,-8.27676 -12.12776,-9.81066 -1.6928,-0.504 -3.45852,-0.76088 -5.2251,-0.73655 z" />
    <path
       id="path5084"
       style="fill:#ffffff;fill-opacity:1;stroke-width:4.65213"
       d="m 351.66262,65.419829 c -2.45019,0.182774 -4.56467,1.605749 -6.67156,2.741523 -9.80528,5.778133 -19.42212,11.870996 -29.07812,17.892794 -33.83998,21.270504 -67.54261,42.754724 -101.1304,64.419934 -10.3438,6.70771 -20.72272,13.36492 -30.92918,20.28158 -3.73574,2.64696 -7.52456,5.26204 -10.89763,8.37106 -0.97257,0.82744 -1.62662,2.05012 -1.49075,3.35186 0.25033,2.67162 1.82134,4.97274 3.27706,7.14177 8.66404,12.10793 17.59249,24.02251 26.50193,35.94899 6.76109,8.9528 13.43393,17.97729 20.4758,26.71229 2.10954,2.53445 4.13573,5.15882 6.49645,7.46715 0.74722,0.76864 2.0066,0.94935 2.8526,0.23742 1.71924,-1.46701 3.04439,-3.33454 4.47928,-5.06894 3.25477,-4.13441 6.25439,-8.43033 9.73934,-12.39328 4.58153,-5.27223 9.49095,-10.34779 15.21642,-14.38791 2.61426,-1.8817 5.61225,-3.23237 8.7928,-3.7853 5.21229,-0.94696 10.72681,-0.63666 15.69507,1.26819 2.96685,1.19545 5.5326,3.23464 7.74519,5.51457 3.31561,3.44938 5.05613,8.11136 5.69473,12.79194 0.19487,1.32498 0.2912,2.4548 0.40233,3.80154 0.2972,3.51748 0.59455,7.03493 0.89152,10.55242 30.36842,-19.75181 60.77849,-39.43935 91.08845,-59.27745 9.87775,-6.51266 19.80318,-12.96079 29.48052,-19.76855 2.97701,-2.17376 6.07094,-4.25434 8.63406,-6.92575 1.37695,-1.38734 2.25563,-3.55378 1.43185,-5.44803 -1.44584,-3.23345 -3.48722,-6.15338 -5.3879,-9.12864 -7.71835,-11.63324 -15.93669,-22.92347 -24.18759,-34.18202 -10.84838,-14.69756 -21.8416,-29.296816 -33.30299,-43.523992 -3.37979,-4.098777 -6.68867,-8.278447 -10.45034,-12.038468 -1.42916,-1.376671 -3.30643,-2.63424 -5.36894,-2.566701 z m -1.98393,28.529074 c -2.58841,2.750502 -5.69366,4.943412 -8.68872,7.220697 -9.72738,7.11311 -19.77272,13.77678 -29.80366,20.45004 -23.53066,15.464 -47.18801,30.7339 -70.87414,45.95801 -9.88261,6.31069 -19.71251,12.70686 -29.70805,18.83803 -0.80757,0.47241 -1.59625,0.9865 -2.45511,1.36268 -0.48038,-0.5533 -1.38068,-1.06162 -1.2958,-1.88517 0.94121,-2.00381 2.98081,-3.12651 4.70103,-4.38064 6.49909,-4.46602 13.24148,-8.86976 19.88688,-13.23179 27.96035,-18.25242 56.08013,-36.26051 84.30849,-54.09536 9.06772,-5.69772 18.11638,-11.42814 27.26157,-17.000501 2.19434,-1.270413 4.3965,-2.585919 6.80762,-3.404243 -0.0467,0.05608 -0.0934,0.112164 -0.14011,0.168247 z m 17.60692,14.577657 c -0.14914,0.24451 -0.74433,0.60305 -1.08505,0.88216 -8.48845,6.16755 -17.24016,11.96105 -25.92249,17.84927 -26.85436,18.02163 -53.89984,35.82182 -81.06234,53.40752 -11.69867,7.53275 -23.37356,15.10745 -35.25693,22.34667 -3.38465,1.95165 -6.76266,4.01635 -10.48756,5.25678 -0.49156,0.17338 -1.1965,0.34198 -0.48247,-0.22932 2.61401,-2.45162 5.64035,-4.40782 8.53775,-6.50098 25.35316,-17.65473 51.15742,-34.65024 77.06658,-51.47347 17.65404,-11.43324 35.37955,-22.82786 53.31161,-33.85509 4.16549,-2.50481 8.28034,-5.1136 12.61004,-7.32902 0.85313,-0.40641 1.84661,-0.38227 2.77086,-0.35452 z m 8.03099,21.49075 c -4.21829,3.77827 -9.02349,6.81084 -13.65977,10.03588 -20.57624,13.89951 -41.38685,27.44702 -62.21723,40.96074 -16.44636,10.61792 -32.92362,21.24942 -49.53925,31.5541 -4.92683,2.98238 -9.77691,6.17267 -15.10462,8.40673 -0.43454,0.22907 -0.94144,0.20105 -1.38431,0.01 4.4869,-3.60989 9.26882,-6.83238 13.97872,-10.1401 19.82075,-13.66079 39.98591,-26.92462 60.16541,-40.09425 16.8048,-10.91151 33.6343,-21.77836 50.70466,-32.24415 4.51021,-2.71166 8.97957,-5.5115 13.6695,-7.90563 1.28405,-0.57886 2.62727,-1.11785 4.04633,-1.21324 -0.21982,0.21 -0.43963,0.41999 -0.65944,0.62999 z" />
    <path
       style="fill:#000000;stroke-width:1.85283"
       d="m 126.61497,471.32976 c -25.52532,-12.40933 -47.826737,-23.66405 -49.558693,-25.01049 -4.805269,-3.73566 -3.756587,-8.73727 5.096597,-24.30796 6.7028,-11.78867 9.176288,-14.56014 14.225578,-15.93927 6.086138,-1.66232 6.117758,-1.73334 7.470428,-16.7835 0.74714,-8.31275 0.76869,-30.03657 0.0479,-48.27517 -1.11477,-28.20687 -0.83299,-34.62675 1.8861,-42.97161 9.74359,-29.90301 25.25574,-44.55045 72.57563,-68.52997 8.53082,-4.32302 12.54928,-7.33676 11.63396,-8.72518 -0.76907,-1.16656 -6.31374,-8.54249 -12.32149,-16.39092 -6.00775,-7.84843 -11.50633,-16.04209 -12.21907,-18.20812 -2.97773,-9.04923 -8.7189,-4.94803 148.60242,-106.154154 30.65508,-19.720668 33.76375,-21.301972 39.81049,-20.250627 6.00828,1.044657 9.67963,5.249281 43.73281,50.085131 20.44564,26.91961 37.94785,50.86073 38.89381,53.20249 4.05896,10.04803 2.36304,11.47636 -67.17205,56.57409 -36.51099,23.67959 -66.38363,44.00701 -66.38363,45.172 0,1.16502 3.03127,8.77952 6.73614,16.92111 8.02053,17.62544 8.40613,23.14691 2.00557,28.7198 -3.9538,3.44252 -6.17528,3.96792 -13.52896,3.19972 -7.47476,-0.78085 -8.66992,-0.48158 -7.9444,1.98923 3.71449,12.65026 7.3627,35.95325 6.26391,40.01076 -1.60773,5.9368 -8.61225,9.29096 -15.87459,7.60166 -2.91759,-0.67868 -8.56984,-4.26008 -12.56056,-7.95869 l -7.25586,-6.72475 -2.04389,8.83279 c -3.22759,13.94812 -11.40385,35.32685 -16.86223,44.09024 -2.74978,4.41474 -9.2163,12.33353 -14.37006,17.59731 -5.15374,5.26376 -13.31071,14.68811 -18.12659,20.94297 -7.01316,9.10866 -8.52595,12.35208 -7.59969,16.29365 0.83373,3.54781 -0.77517,8.65461 -5.76519,18.29919 -8.4475,16.32711 -11.54417,19.67347 -17.99036,19.44089 -2.74691,-0.0992 -25.87874,-10.33328 -51.40405,-22.74262 z m 61.78538,1.55823 c 4.11712,-7.82631 7.10527,-14.53122 6.64034,-14.89983 -1.56185,-1.23823 -97.063311,-45.80672 -98.133932,-45.797 -1.506951,0.0143 -16.204405,28.31057 -15.184092,29.23384 2.565119,2.32122 93.712794,45.52184 96.209304,45.59966 1.86211,0.058 5.79508,-5.25309 10.46838,-14.13667 z m 14.41224,-36.06851 c 4.62697,-6.08081 12.98417,-15.66468 18.57154,-21.29748 5.58737,-5.63278 12.26409,-14.10249 14.83713,-18.82153 7.32118,-13.42728 14.64706,-36.94774 18.78416,-60.30842 3.63301,-20.51428 4.50875,-22.72802 21.04902,-53.20959 9.49206,-17.49264 17.25829,-33.78676 17.25829,-36.2092 0,-11.21339 -11.50584,-20.22143 -22.5768,-17.6756 -2.9315,0.67412 -9.8664,5.55402 -15.41085,10.84421 -8.03496,7.6665 -13.60228,16.23727 -27.43257,42.23195 -19.52251,36.69348 -26.67049,46.34837 -31.54056,42.60241 -2.7354,-2.10401 -2.35018,-3.1193 3.64747,-9.61334 7.61455,-8.24472 7.55739,-7.96521 4.08966,-19.99674 -3.4415,-11.94053 -10.01375,-23.53711 -14.63987,-25.83172 -2.21569,-1.099 -3.31896,-2.96299 -2.67472,-4.51897 1.60436,-3.87486 5.18139,-3.24643 10.30777,1.81094 2.4861,2.45264 5.20516,4.45934 6.04235,4.45934 2.25355,0 15.12836,-10.80669 15.12836,-12.69824 0,-1.30566 -16.13316,-23.28651 -21.1305,-28.7895 -1.4173,-1.56073 -38.84753,17.37471 -51.90415,26.25761 -12.78432,8.69763 -24.54845,23.09324 -30.40528,37.20656 -2.56659,6.18471 -3.1284,16.27054 -3.29671,59.1835 -0.11163,28.45057 -0.83566,52.93594 -1.60909,54.41196 -1.10414,2.10713 7.3851,6.77948 39.51632,21.74921 22.50742,10.48606 41.83467,19.11125 42.94945,19.1671 1.11479,0.0558 5.8126,-4.87366 10.43958,-10.95446 z m 86.65092,-84.98154 c 0,-2.78688 -1.75613,-12.86108 -3.9025,-22.38711 -2.14638,-9.52602 -3.52793,-17.88175 -3.0701,-18.5683 0.4578,-0.68655 -1.20546,-3.61692 -3.6962,-6.51192 l -4.52856,-5.26367 -2.22012,5.26454 c -9.28878,22.02657 -9.90458,30.24931 -3.05118,40.7425 7.68066,11.75979 20.46866,15.96064 20.46866,6.72396 z m 18.8801,-49.65043 c 0.5489,-3.57258 -9.84401,-29.82857 -13.18283,-33.30425 -0.79811,-0.83083 -4.6359,3.76749 -8.52842,10.21846 -7.97416,13.21543 -7.80425,16.3325 1.27625,23.41397 7.66979,5.98131 19.49477,5.79141 20.435,-0.32818 z m -83.36407,-36.0274 c -0.81525,-1.969 -3.24536,-0.66675 -9.68323,5.18906 -8.88825,8.08465 -8.9283,8.26511 -4.34086,19.55765 1.69416,4.17039 2.24246,3.59829 8.46202,-8.82933 3.65775,-7.30878 6.16069,-14.4716 5.56207,-15.91738 z m 32.13148,-37.72458 c 14.32829,-9.61963 28.10001,-8.45969 37.66643,3.17253 4.25072,5.16866 5.25213,8.22819 5.17182,15.80112 l -0.0995,9.39135 8.76035,-5.87738 c 4.81809,-3.23255 32.14425,-20.97038 60.7247,-39.41739 57.89753,-37.36945 60.6252,-39.35072 60.6252,-44.03539 0,-2.9669 -62.4275,-87.483526 -71.87036,-97.30071 -2.12322,-2.207372 -5.28768,-4.013404 -7.03212,-4.013404 -2.77119,0 -166.7743,104.488574 -175.62713,111.894384 -1.85243,1.54965 -3.36806,3.79509 -3.36806,4.98987 0,1.82719 37.81358,52.80365 53.22461,71.75209 l 4.72011,5.80354 9.77424,-13.54403 c 5.37584,-7.44923 13.17422,-15.82668 17.32972,-18.61658 z m -25.38579,-7.74457 c 0,-2.92104 138.10727,-92.74732 142.82346,-92.89374 1.8091,-0.0562 3.54124,0.69276 3.84923,1.66429 0.65601,2.06947 -140.23547,93.6634 -144.07481,93.6634 -1.42883,0 -2.59788,-1.0953 -2.59788,-2.43395 z m -21.1707,-12.38909 c 0,-2.94048 150.41229,-101.44031 155.45563,-101.80255 1.60071,-0.11496 3.24305,0.65747 3.64968,1.71654 0.77056,2.00696 -149.55343,100.52394 -155.63567,101.99806 -2.23632,0.54201 -3.46964,-0.1377 -3.46964,-1.91205 z m -4.92567,-21.02283 c -0.71699,-1.07519 -0.11856,-2.97409 1.32988,-4.21976 6.61703,-5.6908 139.60776,-90.670418 142.16767,-90.843584 9.23403,-0.624643 -4.31617,9.472094 -68.32364,50.910364 -39.1658,25.35585 -71.80899,46.10296 -72.54042,46.10471 -0.73143,0.002 -1.9165,-0.87653 -2.63349,-1.95173 z M 324.75379,54.44441 c -1.65438,-3.995668 10.24074,-14.742054 18.63736,-16.837535 11.24705,-2.806839 25.36468,2.367649 31.97679,11.720334 2.40613,3.403426 2.6524,5.033431 0.99285,6.571503 -1.65955,1.538072 -3.75937,0.657609 -8.46568,-3.549656 -3.4423,-3.07729 -8.56673,-6.401147 -11.38761,-7.386347 -7.44874,-2.601482 -17.92277,0.604267 -22.82608,6.986286 -4.53777,5.90626 -7.20653,6.652221 -8.92763,2.495415 z m -18.52787,-5.454499 c -2.10377,-1.949776 5.85851,-14.185283 13.0273,-20.018841 15.0637,-12.257993 33.37939,-14.430951 51.16672,-6.070379 9.51968,4.474528 22.97249,17.384432 22.97249,22.045398 0,2.749655 -6.4132,4.270689 -7.32441,1.737147 -1.70314,-4.735402 -12.81396,-14.767315 -20.24903,-18.282763 -16.68866,-7.890728 -40.23888,-1.01943 -49.82466,14.537442 -4.16628,6.761498 -7.06508,8.557448 -9.76841,6.051996 z"
       id="path1050" />
    <path
       style="fill:#ffb79d;fill-opacity:1;stroke-width:4.65213"
       d=""
       id="path4412" />
  </g>
</svg>
