<?xml version="1.0" encoding="UTF-8" standalone="no"?>
<!-- Created with Inkscape (http://www.inkscape.org/) -->

<svg
   version="1.1"
   id="svg2643"
   width="512"
   height="512"
   viewBox="0 0 512.00001 512.00001"
   sodipodi:docname="mirage.svg"
   inkscape:version="1.2.2 (b0a8486541, 2022-12-01)"
   xmlns:inkscape="http://www.inkscape.org/namespaces/inkscape"
   xmlns:sodipodi="http://sodipodi.sourceforge.net/DTD/sodipodi-0.dtd"
   xmlns="http://www.w3.org/2000/svg"
   xmlns:svg="http://www.w3.org/2000/svg">
  <defs
     id="defs2647" />
  <sodipodi:namedview
     id="namedview2645"
     pagecolor="#505050"
     bordercolor="#eeeeee"
     borderopacity="1"
     inkscape:pageshadow="0"
     inkscape:pageopacity="0"
     inkscape:pagecheckerboard="0"
     showgrid="false"
     inkscape:zoom="0.72429342"
     inkscape:cx="219.52429"
     inkscape:cy="279.58282"
     inkscape:window-width="1366"
     inkscape:window-height="695"
     inkscape:window-x="0"
     inkscape:window-y="24"
     inkscape:window-maximized="1"
     inkscape:current-layer="g2649"
     inkscape:showpageshadow="0"
     inkscape:deskcolor="#505050" />
  <g
     inkscape:groupmode="layer"
     inkscape:label="Image"
     id="g2649">
    <g
       id="g515"
       transform="matrix(0.98486143,0,0,0.98256935,3.8761911,4.4616563)">
      <path
         style="fill:#ffffff;stroke-width:6.48593"
         id="path501"
         sodipodi:type="arc"
         sodipodi:cx="141.13336"
         sodipodi:cy="345.04263"
         sodipodi:rx="55.622532"
         sodipodi:ry="44.591103"
         sodipodi:start="4.7101026"
         sodipodi:end="4.7087761"
         sodipodi:open="true"
         sodipodi:arc-type="arc"
         d="M 141.00619,300.45165 A 55.622532,44.591103 0 0 1 196.7557,344.92589 55.622532,44.591103 0 0 1 141.29743,389.63354 55.622532,44.591103 0 0 1 85.511129,345.18895 55.622532,44.591103 0 0 1 140.9324,300.45182" />
      <path
         style="fill:#ffffff;stroke-width:6.08304"
         id="path499"
         sodipodi:type="arc"
         sodipodi:cx="374.15598"
         sodipodi:cy="336.83771"
         sodipodi:rx="41.752979"
         sodipodi:ry="36.754192"
         sodipodi:start="4.7101026"
         sodipodi:end="4.7087761"
         sodipodi:open="true"
         sodipodi:arc-type="arc"
         d="m 374.06051,300.08361 a 41.752979,36.754192 0 0 1 41.8483,36.65787 41.752979,36.754192 0 0 1 -41.62968,36.85026 41.752979,36.754192 0 0 1 -41.87591,-36.63343 41.752979,36.754192 0 0 1 41.60191,-36.87455" />
      <rect
         style="fill:#ffffff;stroke-width:4.64286"
         id="rect497"
         width="231.50772"
         height="175.85417"
         x="141.8994"
         y="233.52728"
         ry="0" />
      <path
         style="fill:#ffffff;stroke-width:5.57152"
         id="path443"
         sodipodi:type="arc"
         sodipodi:cx="254.64589"
         sodipodi:cy="190.27878"
         sodipodi:rx="55.576786"
         sodipodi:ry="66.519089"
         sodipodi:start="4.7101026"
         sodipodi:end="4.7087761"
         sodipodi:open="true"
         sodipodi:arc-type="arc"
         d="m 254.51882,123.75986 a 55.576786,66.519089 0 0 1 55.70366,66.34477 55.576786,66.519089 0 0 1 -55.41266,66.69295 55.576786,66.519089 0 0 1 -55.74042,-66.30054 55.576786,66.519089 0 0 1 55.3757,-66.73692" />
      <path
         id="path2996-6"
         style="fill:#ffffff;fill-opacity:1;stroke-width:1.65718"
         d="m 254.51172,56.382812 c -20.58723,0.48866 -40.6189,11.094706 -52.71432,27.740629 -3.03768,4.149834 -5.6877,8.59706 -9.13622,12.433767 -6.54743,8.201332 -10.42859,18.158292 -13.20225,28.185602 -4.50478,16.42979 -5.93889,33.58416 -5.42309,50.5742 0.31937,8.39991 1.22847,16.79495 3.04424,25.00916 -16.38428,0.072 -32.67319,6.62519 -44.47649,18.00011 -3.27581,3.1983 -6.16287,6.80574 -8.47664,10.75966 -2.71728,1.32763 -4.06695,4.17916 -5.85418,6.45237 -5.74815,7.85612 -11.33305,15.84151 -16.42281,24.14265 -2.094138,3.21458 -4.497464,6.47014 -6.92506,9.55835 -2.883692,3.67395 -5.902968,7.23796 -8.897556,10.82124 -0.744233,0.85435 -1.706782,1.98332 -2.467885,2.85788 -6.347848,7.29423 -13.09402,14.25262 -19.04982,21.88029 -3.309976,4.36395 -6.514213,8.96065 -8.244588,14.20812 -1.158481,3.45445 -1.63774,7.16052 -1.329504,10.77832 -4.056684,4.09622 -6.124438,9.59178 -8.492926,14.7307 -4.831831,10.88759 -8.448232,22.54263 -8.702387,34.53492 -0.07558,3.70547 0.18341,7.42384 0.869141,11.06836 -11.393879,0.40693 -22.787766,0.81365 -34.1816406,1.2207 -0.3377255,6.97997 -1.4471097,13.89297 -1.8496094,20.86719 -0.2470394,6.35933 2.0711113,12.98094 6.9253463,17.23421 3.1723197,2.85563 7.5148867,3.994 11.7027397,4.06753 13.703115,0.44723 27.415695,0.55227 41.12532,0.66102 23.637206,0.18458 47.274809,0.30941 70.912609,0.3849 0.40263,4.04227 2.28975,7.79925 4.83274,10.91734 2.42204,3.32305 5.82856,6.05807 9.87234,7.06313 3.81364,1.0675 7.82009,1.10228 11.69677,1.429 15.72052,0.95373 31.47508,1.08515 47.21847,1.34559 33.25418,0.45564 66.51435,0.39782 99.76869,-0.007 15.73288,-0.21926 31.47069,-0.51539 47.18108,-1.41776 3.94018,-0.29148 7.95291,-0.54711 11.72483,-1.80649 3.80059,-1.4327 6.95065,-4.25315 9.15725,-7.62619 2.13019,-2.90374 3.71084,-6.29553 4.09861,-9.9031 36.12605,-0.15579 72.25549,-0.19484 108.3759,-0.90529 4.20933,-0.17878 8.67865,-0.0867 12.46019,-2.23469 5.07861,-2.76013 8.37566,-8.1097 9.36489,-13.72079 0.77301,-3.97272 0.40052,-8.04003 -0.11296,-12.01884 -0.52556,-4.7793 -1.03705,-9.56009 -1.547,-14.3411 -11.41043,-0.39868 -22.8207,-0.80171 -34.23047,-1.21874 1.91951,-10.28084 0.74965,-20.91391 -1.92106,-30.9516 -2.88533,-10.78897 -7.86841,-20.91548 -13.89141,-30.28379 -0.16902,-0.72078 -0.005,-1.54401 -0.10159,-2.30172 -0.34517,-6.54694 -3.07372,-12.75753 -6.8613,-18.03267 -4.64258,-6.68684 -10.29439,-12.57718 -15.66905,-18.6656 -3.82141,-4.25359 -7.59862,-8.57504 -11.20673,-12.94253 -6.87139,-8.38444 -13.49645,-16.998 -19.25825,-26.19195 -7.27894,-11.30937 -14.56821,-22.61237 -21.85428,-33.91725 -0.4336,0.79296 -0.86719,1.58593 -1.30078,2.3789 -9.06707,-9.54361 -21.53756,-15.50271 -34.46094,-17.58203 -3.68906,-0.58399 -7.42756,-0.85224 -11.16211,-0.79492 3.33427,-11.49618 4.01396,-23.61296 3.27052,-35.51228 -1.02133,-15.55433 -4.48963,-30.92101 -9.93423,-45.51588 -4.64428,-12.3056 -10.70422,-24.160224 -18.69108,-34.644642 -6.76748,-8.8165 -15.02965,-16.729163 -24.99817,-21.811684 -8.90571,-4.611501 -18.92855,-6.9753 -28.95016,-6.966018 -0.53441,-0.0072 -1.06875,0.0046 -1.60313,0.0091 z m 1.63672,92.648438 c 8.18743,0.0625 16.62117,0.88786 24.07922,4.51241 4.86686,2.36102 9.00236,6.60295 10.45771,11.89771 2.04261,6.66503 1.3543,13.80656 -0.10013,20.5158 -1.51463,6.93391 -4.00433,13.61956 -6.96415,20.05845 -0.42962,0.90487 -0.96541,2.06234 -1.4567,3.0541 -3.69659,7.57544 -8.02551,14.82852 -12.71127,21.83067 -3.35333,4.9911 -6.99567,9.99446 -10.7207,14.79883 -0.91374,1.2002 -1.82536,2.4025 -2.73828,3.60351 -4.75715,-6.11149 -9.41459,-12.30736 -13.72266,-18.74609 -2.14482,-3.22204 -4.30761,-6.66136 -6.26947,-10.08362 -6.16295,-10.60202 -11.46132,-21.86918 -14.13951,-33.8913 -1.24267,-5.67088 -1.81966,-11.57659 -0.86445,-17.33758 0.10135,-0.62367 0.28968,-1.55628 0.46939,-2.29193 0.15011,-0.61766 0.23778,-0.91417 0.4202,-1.47853 1.70535,-5.23905 5.70117,-9.63956 10.70985,-11.91801 6.67083,-3.29986 14.21173,-4.25786 21.56975,-4.48256 0.66026,-0.0197 1.32079,-0.0288 1.9812,-0.0419 z m -43.45508,128.84961 c 3.64837,1.85348 7.40316,3.6296 11.42187,4.50586 -4.02799,0.004 -8.05599,-0.005 -12.08398,-0.006 0.40692,-1.46325 0.52759,-3.02586 0.66211,-4.5 z m 86.60352,0.16992 c 0.0379,1.45006 0.21601,2.89976 0.57421,4.30664 -3.96549,-0.002 -7.93099,-0.004 -11.89648,-0.006 4.00383,-0.82108 7.70516,-2.63439 11.32031,-4.48047 l 0.001,0.1 z m -21.51954,3.77539 c 0.58658,0.19858 1.17943,0.38095 1.78321,0.51953 -0.54537,-0.0429 -1.21264,0.0794 -1.68946,-0.0566 -0.009,-0.11871 -0.16201,-0.43444 -0.0937,-0.46289 z m -44.16015,0.42774 c -0.0392,0.27718 -1.56651,0.0986 -1.14752,0.0795 0.30945,0.0662 1.26209,-0.61167 1.14752,-0.0795 z m -88.38477,13.38281 c 0.97901,0.19228 1.6844,1.31851 1.16206,2.23822 -0.0951,0.44345 -0.59147,1.17556 -1.09468,0.8881 -0.54032,-0.30599 -1.31571,-0.34927 -1.70506,-0.82396 -0.6659,-1.03105 0.27614,-2.57972 1.52471,-2.31093 l 0.0997,0.008 z m 110.80664,19.32812 c 1.36484,0.005 2.6348,0.0351 3.8944,0.10604 3.09418,0.161 6.23539,0.53041 9.20561,1.05416 5.83172,1.02817 11.59234,2.73714 17.09559,5.0789 1.05446,0.44744 2.15551,0.92697 3.15011,1.42887 -0.99929,1.06813 -1.81441,2.31326 -2.60352,3.51953 -2.82931,1.67551 -5.1816,4.13828 -6.74219,7.03125 -1.1061,0.68364 -2.14028,1.48404 -3.08008,2.38282 -0.71099,-3.76537 -1.57588,-7.72212 -4.15374,-10.70026 -4.87397,-5.97393 -13.77131,-8.33144 -20.9007,-5.28239 -3.90864,1.54403 -7.16423,4.58281 -9.13306,8.27952 -4.27047,0.0139 -8.55414,1.5405 -11.77539,4.36328 -1.6787,-2.7766 -4.14756,-5.03293 -6.96093,-6.62695 -0.58192,-0.95903 -1.2519,-1.86656 -2.00391,-2.69922 4.1577,-2.0218 8.49183,-3.67792 12.93555,-4.95312 1.16306,-0.32521 2.56531,-0.70166 3.83722,-0.9914 5.64478,-1.31303 11.43883,-1.99327 17.23504,-1.99103 z m 121.92383,4.53125 c 1.03079,3.9345 3.52989,7.51134 7.02344,9.63282 0.95199,2.39449 2.40921,4.58052 4.21484,6.41601 -3.79166,2.15951 -7.58333,4.31901 -11.375,6.47852 0.0779,-7.50617 0.22186,-15.03366 0.13672,-22.52735 z m -239.88281,37.08008 c -0.44262,-0.19489 -1.3913,-0.76967 -0.44655,-0.99306 0.41697,-0.30809 0.29206,0.78907 0.44655,0.99306 z m 237.36328,-0.79101 c 0.68527,0.15777 0.80844,0.81432 0.3757,1.31806 -0.319,0.47854 -0.91119,0.89458 -1.51242,0.88701 -0.16081,-0.64453 -0.32161,-1.28906 -0.48242,-1.93359 0.42763,-0.4201 1.0767,-0.43298 1.61914,-0.27148 z m -44.75781,7.14062 c 4.76375,8.54434 8.46728,17.65513 11.30468,27.00977 -6.98112,0 -13.96224,0 -20.94335,0 5.01624,-7.7346 8.13883,-16.74989 8.55116,-25.98449 0.0527,-0.93462 0.0552,-1.87082 0.0719,-2.80653 0.33854,0.59375 0.67709,1.1875 1.01563,1.78125 z m -148.32813,-1.46484 c 0.1673,5.40418 1.16935,10.77618 3.01033,15.8618 1.51356,4.33111 3.50813,8.4979 5.97991,12.36476 -7.0568,-0.0587 -14.11362,-0.11939 -21.16993,-0.22266 2.23069,-7.33435 4.9917,-14.51427 8.41993,-21.375 0.37631,-0.72097 0.86377,-1.71677 1.30479,-2.53233 0.7817,-1.48723 1.59696,-2.95682 2.44521,-4.40712 0.003,0.10352 0.007,0.20703 0.01,0.31055 z m 55.92774,17.17968 c 3.86336,2.91814 8.92793,4.12393 13.70312,3.4043 4.92648,5.81147 13.77305,7.85799 20.72686,4.70591 1.86294,-0.80843 3.58364,-1.94353 5.06611,-3.33091 0.97561,0.92893 2.14577,1.6523 3.21875,2.42774 0.89834,1.51457 2.02802,2.88887 3.32031,4.08398 -18.72071,-0.0118 -37.44147,-0.01 -56.16211,-0.0703 1.52677,-1.39054 2.82586,-3.03374 3.81446,-4.84766 2.56549,-1.58835 4.71805,-3.827 6.24023,-6.42969 z" />
      <g
         id="g3351"
         style="fill:#000000;fill-opacity:1"
         transform="matrix(0.96138289,0,0,0.94951542,9.8894068,12.929522)">
        <path
           style="fill:#000000;fill-opacity:1;stroke-width:1.73448"
           d="m 147.34923,446.88668 c -7.18252,-9.30679 -9.90003,-9.0797 108.65076,-9.0797 118.55079,0 115.83329,-0.22708 108.65076,9.0797 -3.03052,3.92683 -214.271,3.92683 -217.30152,0 z M 10.41552,426.34266 c -1.263573,-0.86142 -1.986152,-3.76345 -1.6725754,-6.71743 l 0.5520756,-5.20081 25.0253078,-0.89933 c 24.606218,-0.88427 24.949922,-0.95232 20.523863,-4.06392 -11.900771,-8.36644 -12.790545,-28.9072 -2.282879,-52.70127 6.542444,-14.81502 5.652633,-14.28432 17.782735,-10.60644 3.961894,1.20127 3.896031,0.97812 -1.254432,-4.25003 -10.200142,-10.35399 -8.554364,-15.16577 13.543256,-39.59664 10.438521,-11.54069 22.230939,-26.24417 26.205369,-32.67437 3.97444,-6.4302 8.53586,-13.52656 10.1365,-15.76967 l 2.91025,-4.07836 3.63602,6.32669 c 4.46041,7.76114 7.16189,8.2626 4.7705,0.88557 -8.74711,-26.98349 31.80792,-53.12668 61.3143,-39.52533 10.11935,4.66465 12.25791,4.54482 8.0248,-0.44966 -19.11985,-22.55877 -16.04586,-98.19028 4.90723,-120.735625 1.16663,-1.25528 3.89276,-5.06363 6.05805,-8.46298 16.99003,-26.673178 51.81968,-33.795849 75.51047,-15.441914 31.47193,24.382224 49.76262,92.618949 34.31814,128.030089 -10.50591,24.08797 -10.54842,22.63926 0.52074,17.74323 28.18378,-12.46604 64.26031,6.92428 61.47559,33.04171 -1.18472,11.1112 -0.46681,11.71067 3.66138,3.0574 l 3.04637,-6.38558 10.65252,16.72786 c 5.85889,9.20031 19.05964,26.03591 29.33502,37.41242 21.00773,23.25901 22.55726,26.78285 17.36684,39.4947 l -3.27394,8.01821 4.09907,-4.14117 4.09908,-4.14117 2.56,4.21695 c 15.37865,25.33237 16.82758,54.41696 3.18863,64.00538 -4.42607,3.1116 -4.08236,3.17965 20.52387,4.06392 l 25.02528,0.89933 0.55211,5.20081 c 0.31361,2.95398 -0.40926,5.85601 -1.67258,6.71743 -2.90829,1.98264 -488.26071,1.98264 -491.16896,0 z m 366.00995,-30.60775 c 0,-22.33513 0.3549,-22.73653 19.91476,-22.52198 12.43151,0.13636 14.6854,-0.3151 16.68538,-3.34228 1.2718,-1.92499 5.29474,-4.93588 8.93991,-6.69089 7.818,-3.76407 7.32304,-4.23697 -7.51773,-7.18275 l -11.31867,-2.24666 5.37843,-3.10193 c 10.20161,-5.8836 10.80638,-16.58164 1.15876,-20.49771 -4.70842,-1.9112 -5.03634,-2.6166 -4.51204,-9.70574 0.63712,-8.61466 -0.36922,-9.47985 -4.18472,-3.59777 -2.52112,3.88664 -2.6286,3.6414 -2.71287,-6.18915 -0.10704,-12.49261 -1.44241,-13.59127 -9.43232,-7.76045 -7.36118,5.37199 -8.40737,4.86422 -5.90197,-2.86459 2.71921,-8.3883 2.32175,-10.61412 -1.89734,-10.62539 -2.06981,-0.006 -6.50505,-0.82898 -9.85609,-1.82993 l -6.09277,-1.81991 -0.14437,-11.02271 c -0.14201,-10.85019 -1.55123,-15.60303 -3.17063,-10.69358 -1.58889,4.81691 -11.81976,15.5529 -18.89794,19.83094 -6.50832,3.93362 -7.02781,4.01186 -5.86604,0.88354 1.52738,-4.11264 2.80105,-20.51952 1.59298,-20.51952 -0.46748,0 -2.77269,2.45725 -5.12268,5.46058 -4.09898,5.23857 -11.96032,10.72734 -15.36437,10.72734 -1.03579,0 -1.01564,-2.35701 0.0559,-6.53005 1.53277,-5.96971 0.44903,-27.64446 -1.38221,-27.64446 -0.42902,0 -2.64326,2.38123 -4.92052,5.29159 -4.11374,5.25745 -22.41356,16.29231 -27.01858,16.29231 -1.8858,0 -1.64419,-1.39018 1.11586,-6.42074 l 3.52278,-6.42076 -3.77573,1.22834 c -21.8333,7.10293 -27.7786,16.4756 -21.89808,34.52199 l 3.0692,9.41891 46.52394,0.0242 c 60.01462,0.0309 53.01313,-7.53812 52.9053,57.19475 l -0.089,53.44682 -4.09194,-14.88281 c -34.56098,-125.70194 -177.67909,-125.70194 -212.24007,0 l -4.09196,14.88274 -0.089,-53.44681 c -0.10795,-64.74888 -7.16758,-57.17074 53.25888,-57.17074 h 46.87762 l 1.85225,-7.3972 c 3.92271,-15.66601 -0.33122,-25.92534 -13.79388,-33.26704 -10.68887,-5.82903 -12.26949,-5.43525 -8.00034,1.99308 2.7683,4.81687 3.05948,6.29531 1.23985,6.29531 -4.58146,0 -22.88881,-11.05117 -26.98977,-16.29231 -2.27727,-2.91036 -4.47868,-5.29159 -4.89204,-5.29159 -1.79422,0 -2.82971,19.76941 -1.39513,26.63561 0.98662,4.72213 0.98562,7.5389 -0.003,7.5389 -3.36507,0 -11.24419,-5.51659 -15.32139,-10.72735 -2.34936,-3.00332 -4.65455,-5.46057 -5.12205,-5.46057 -1.19241,0 0.0564,16.3828 1.55625,20.41667 1.18441,3.18539 1.00602,3.20044 -4.12349,0.34793 -7.14549,-3.97365 -18.14865,-14.79891 -19.41981,-19.10586 -2.1041,-7.1292 -4.14014,-3.05807 -4.14014,8.27839 0,13.02081 -1.92444,15.09333 -14.48638,15.60118 -6.30602,0.25497 -6.92986,2.41984 -3.03272,10.52417 2.98259,6.20248 -0.71147,7.64395 -6.83172,2.66587 -5.39904,-4.39147 -6.18888,-3.22012 -5.43058,8.0536 l 0.72703,10.80878 -4.38082,-4.51348 c -6.1473,-6.33346 -7.65187,-5.6606 -7.00164,3.13127 0.5243,7.08914 0.19637,7.79454 -4.51205,9.70574 -9.615269,3.90295 -9.18249,14.5566 0.81538,20.07247 l 6.2127,3.42757 -11.564112,2.29646 c -15.197533,3.01801 -15.419239,3.26417 -7.039784,7.8167 4.41789,2.40022 8.465691,6.41362 10.545796,10.45616 l 3.37586,6.56079 5.83019,-3.33774 c 17.57261,-10.06016 25.61113,-4.69876 25.45677,16.97872 -0.0639,8.98103 0.23604,16.94216 0.66663,17.69141 0.43064,0.74927 54.56006,1.36272 120.28764,1.36322 l 119.50473,9.3e-4 z M 262.6903,296.11318 c 0,-2.25304 -1.21697,-5.96488 -2.70439,-8.24854 -4.66094,-7.15605 -2.02498,-14.86639 10.67973,-31.23873 57.26206,-73.79271 50.91492,-129.93114 -14.66565,-129.71316 -64.49433,0.21438 -71.2796,56.20873 -15.58474,128.61042 l 10.5925,13.76996 0.23678,13.39714 c 0.1303,7.36842 -0.29626,14.32462 -0.94775,15.45823 -0.81593,1.41975 0.92805,2.06112 5.60447,2.06112 5.9497,0 6.78902,-0.50644 6.78902,-4.09644 z M 307.04813,126.2601 c -1.6076,-11.52837 -6.57966,-25.29 -12.76612,-35.333885 -6.33633,-10.287236 -9.40339,-10.998049 -4.58811,-1.06333 9.65567,19.921235 5.68067,27.911795 -10.87293,21.856825 -25.48273,-9.32106 -47.92827,-4.91985 -67.69324,13.27354 -8.34583,7.68223 -8.1817,10.48375 0.2109,3.59985 24.83203,-20.36806 66.06893,-19.34753 89.82092,2.22288 6.17933,5.61177 7.19669,4.82466 5.88858,-4.55588 z"
           id="path2996" />
        <path
           style="fill:#000000;fill-opacity:1;stroke-width:0.32"
           d="m 205.19793,391.46908 c -3.80984,-4.03002 -7.30629,-11.47721 -8.92052,-19.00008 -0.81395,-3.7933 -0.81371,-13.10873 3.2e-4,-16.91992 1.22839,-5.7503 3.50775,-11.24809 6.53259,-15.75654 2.36732,-3.52845 3.67415,-4.18021 5.40185,-2.6941 1.08569,0.93387 1.15926,2.43364 0.17967,3.6629 -3.45556,4.33625 -5.78275,8.93696 -7.15138,14.13789 -0.82118,3.12055 -1.14678,10.97537 -0.6118,14.75907 0.99244,7.01913 3.646,12.98775 8.02202,18.04384 1.4703,1.69881 1.64103,2.82929 0.62278,4.12379 -1.03273,1.3129 -2.62928,1.17311 -4.07565,-0.35685 z m 98.73444,0.8 c -0.70303,-0.53386 -1.2294,-2.01834 -0.96348,-2.71722 0.11777,-0.30953 1.05803,-1.70244 2.08947,-3.09537 4.20309,-5.67616 6.24166,-11.67349 6.54722,-19.26154 0.41875,-10.39838 -1.88347,-17.90491 -7.73576,-25.22296 -2.02217,-2.52865 -2.23819,-3.58682 -0.98756,-4.83745 1.54361,-1.54362 2.92178,-0.94138 5.37943,2.35073 3.40953,4.56717 5.95234,10.26266 7.33097,16.42016 0.63348,2.82939 0.74355,4.20402 0.74019,9.24365 -0.005,7.73544 -0.98176,12.339 -3.97127,18.72 -1.22845,2.62207 -4.50415,7.68263 -5.42866,8.38664 -0.67399,0.51322 -2.33256,0.52061 -3.00055,0.0134 z m -6.31557,-6.54919 c -0.96403,-0.34598 -1.92,-1.50238 -1.92,-2.32256 0,-0.49251 0.61183,-1.68102 1.47851,-2.87211 3.40684,-4.68199 4.97579,-9.58079 4.97579,-15.53614 0,-6.12796 -1.63754,-11.02909 -5.28428,-15.81583 -1.9695,-2.58517 -2.15625,-3.3377 -1.14679,-4.62101 0.5113,-0.65002 0.94542,-0.84316 1.89518,-0.84316 1.08019,0 1.40629,0.19929 2.64707,1.61768 1.6081,1.8383 3.34063,4.81755 4.52904,7.7881 3.8374,9.59199 2.67544,21.27278 -2.93585,29.51323 -1.839,2.70065 -2.98973,3.54003 -4.23867,3.0918 z m -84.41087,-0.49552 c -1.10033,-0.5951 -3.4165,-3.88041 -5.01636,-7.11529 -4.27715,-8.64834 -4.2343,-19.63866 0.11042,-28.32 1.38878,-2.77497 3.36844,-5.63666 4.2114,-6.0878 0.99995,-0.53516 2.22174,-0.34495 3.03995,0.47326 1.15451,1.1545 0.99645,2.20603 -0.66349,4.41425 -1.87429,2.49334 -3.5077,5.91386 -4.33567,9.07928 -0.91839,3.51115 -0.92184,9.21757 -0.008,12.76101 0.8324,3.22659 3.1537,7.89126 5.00809,10.06372 0.78333,0.9177 1.42424,1.93801 1.42424,2.26735 0,1.00938 -0.67038,2.14004 -1.49034,2.51365 -0.98723,0.4498 -1.37291,0.44144 -2.28053,-0.0494 z m 51.91976,-6.61977 c -1.47693,-0.59866 -1.2112,0.50384 -4.47465,-18.56506 -1.15866,-6.77024 -2.16115,-12.36404 -2.22777,-12.43065 -0.0666,-0.0666 -0.43588,0.93668 -0.8206,2.22954 -3.80358,12.7819 -6.48748,21.33807 -6.88243,21.94083 -0.60926,0.92986 -2.65988,1.02195 -3.44472,0.15471 -0.28626,-0.31631 -1.56112,-3.98831 -2.83302,-8.16 -1.27191,-4.17169 -2.39581,-7.58489 -2.49757,-7.58489 -0.10176,0 -0.82418,1.692 -1.60536,3.76 -1.2185,3.22568 -1.6493,3.98892 -3.03156,5.37085 -2.04368,2.04321 -3.21551,2.38915 -8.09289,2.38915 -3.20415,0 -3.9557,-0.0936 -4.49506,-0.56 -1.08241,-0.93593 -1.16971,-1.88264 -0.25768,-2.79467 0.77432,-0.77432 0.95896,-0.80533 4.79532,-0.80533 5.39698,0 5.14429,0.23931 8.34685,-7.90495 1.37012,-3.48428 2.75337,-6.61105 3.07391,-6.94838 0.78,-0.82089 2.48251,-0.80545 3.15791,0.0286 0.2859,0.35308 1.5202,3.97268 2.74288,8.04356 1.22267,4.07088 2.3191,7.226 2.4365,7.01137 0.11741,-0.21463 1.82095,-5.71823 3.78565,-12.23023 1.96471,-6.512 3.78174,-12.16172 4.03785,-12.55492 0.9365,-1.43782 3.47524,-1.29065 4.18086,0.24236 0.20064,0.43591 1.49634,7.38056 2.87933,15.43256 1.38299,8.052 2.59698,14.64 2.69775,14.64 0.10077,0 1.1668,-2.82053 2.36896,-6.26785 2.08778,-5.98691 2.23442,-6.29107 3.2715,-6.78561 1.00895,-0.48114 1.15884,-0.47839 2.11924,0.0388 0.82619,0.44493 1.18602,0.98764 1.79387,2.70561 1.97364,5.57807 2.28254,5.82903 7.1747,5.82903 2.72131,0 3.46047,0.10379 3.98808,0.56 1.00374,0.8679 1.12551,1.7837 0.36564,2.74972 -0.65315,0.83035 -0.75322,0.85028 -4.2686,0.85028 -2.44308,0 -4.0771,-0.16264 -5.0853,-0.50617 -1.64497,-0.5605 -3.77228,-2.4862 -4.38765,-3.97182 -0.21916,-0.52911 -0.48997,-0.96202 -0.6018,-0.96202 -0.11183,0 -1.34204,3.24855 -2.73381,7.219 -2.23653,6.38041 -2.63404,7.27255 -3.42196,7.68 -1.00102,0.51765 -1.13774,0.52806 -2.05437,0.15652 z m 24.4665,-0.6309 c -1.23046,-1.23046 -1.18173,-2.16996 0.20687,-3.98856 2.07326,-2.71526 2.81516,-4.7819 2.96031,-8.24622 0.16317,-3.89462 -0.57063,-6.33254 -2.84515,-9.45243 -0.98996,-1.3579 -1.57742,-2.49398 -1.57742,-3.05056 0,-1.62295 2.09333,-2.93038 3.49272,-2.18145 0.97313,0.52081 3.04797,3.25382 4.00328,5.27317 1.3932,2.945 1.86404,5.64961 1.70283,9.78143 -0.16702,4.28038 -0.97651,6.85275 -3.18989,10.13675 -1.92196,2.8516 -3.17453,3.3069 -4.75355,1.72787 z m -70.57043,-0.8398 c -1.5532,-1.64686 -3.18639,-4.75159 -3.94442,-7.49838 -0.80486,-2.91654 -0.87532,-7.535 -0.16117,-10.56511 0.5399,-2.29077 2.60119,-6.38753 3.90512,-7.76133 1.15167,-1.21337 2.95341,-1.23043 3.89228,-0.0368 1.08256,1.37624 0.89806,2.16522 -1.12655,4.8176 -2.60915,3.41817 -3.15783,9.71641 -1.20737,13.85925 0.5386,1.144 1.50529,2.70562 2.14821,3.47027 1.40877,1.67553 1.52633,2.92143 0.38348,4.06427 -1.17971,1.17972 -2.56457,1.0552 -3.88958,-0.34972 z"
           id="path3227" />
      </g>
    </g>
  </g>
</svg>
