<?xml version="1.0" encoding="UTF-8" standalone="no"?>
<!-- Created with Inkscape (http://www.inkscape.org/) -->

<svg
   version="1.1"
   id="svg870"
   width="512"
   height="512"
   viewBox="0 0 512.00001 512.00001"
   sodipodi:docname="miranda.svg"
   inkscape:version="1.2.2 (b0a8486541, 2022-12-01)"
   inkscape:export-filename="../GIT Icons/miranda.png"
   inkscape:export-xdpi="96"
   inkscape:export-ydpi="96"
   xmlns:inkscape="http://www.inkscape.org/namespaces/inkscape"
   xmlns:sodipodi="http://sodipodi.sourceforge.net/DTD/sodipodi-0.dtd"
   xmlns="http://www.w3.org/2000/svg"
   xmlns:svg="http://www.w3.org/2000/svg">
  <defs
     id="defs874">
    <rect
       x="-392.5497"
       y="-105.51147"
       width="525.25209"
       height="165.69437"
       id="rect716" />
    <rect
       x="-437.07475"
       y="174.46882"
       width="339.42047"
       height="90.997488"
       id="rect23669" />
    <rect
       x="-473.63451"
       y="201.19317"
       width="210.88419"
       height="52.670435"
       id="rect9084" />
  </defs>
  <sodipodi:namedview
     id="namedview872"
     pagecolor="#505050"
     bordercolor="#eeeeee"
     borderopacity="1"
     inkscape:pageshadow="0"
     inkscape:pageopacity="0"
     inkscape:pagecheckerboard="0"
     showgrid="false"
     inkscape:zoom="0.59264389"
     inkscape:cx="178.85952"
     inkscape:cy="167.04804"
     inkscape:window-width="1366"
     inkscape:window-height="705"
     inkscape:window-x="0"
     inkscape:window-y="0"
     inkscape:window-maximized="1"
     inkscape:current-layer="g876"
     inkscape:showpageshadow="0"
     inkscape:deskcolor="#505050" />
  <g
     inkscape:groupmode="layer"
     inkscape:label="Image"
     id="g876">
    <g
       id="g1075"
       transform="matrix(0.92416345,0,0,0.96617438,19.413474,8.6367145)">
      <path
         id="rect462-3"
         style="fill:#00ff00;stroke-width:30.048;paint-order:stroke fill markers"
         d="m 461.98438,-2.7207031 c -138.23408,0.00793 -276.46832,0.010492 -414.702283,0.05121 C 26.787637,-2.2934576 6.8318043,8.8631158 -4.2174131,26.129246 -11.553759,37.373198 -15.051806,50.975384 -14.44726,64.360547 c 0.0011,129.700193 0.0015,259.400733 0.0432,389.100693 0.561942,20.16259 11.4807092,39.7513 28.398911,50.75378 11.324351,7.53257 25.112461,11.10445 38.666479,10.49396 137.51138,-0.002 275.02312,-10e-4 412.53429,-0.0413 20.06511,-0.56233 39.56241,-11.37029 50.59737,-28.1506 7.63074,-11.3821 11.27783,-25.27117 10.65427,-38.93039 0.002,-129.68449 -0.008,-259.3691 -0.043,-389.053517 C 525.83935,38.288161 514.82798,18.626078 497.79506,7.6484579 487.24099,0.73971188 474.59835,-2.9279192 461.98438,-2.7207031 Z" />
      <rect
         style="fill:#b3b3b3;stroke-width:30.048;paint-order:stroke fill markers"
         id="rect846"
         width="276.74207"
         height="58.204906"
         x="33.136105"
         y="32.098808"
         ry="0" />
      <path
         id="rect462"
         style="fill:#000000;stroke-width:30.048;paint-order:stroke fill markers"
         d="m 49.023438,17.28125 c -24.088203,0 -43.4804692,19.392267 -43.4804692,43.480469 V 451.23828 c 0,24.0882 19.3922662,43.48047 43.4804692,43.48047 H 462.97656 c 24.0882,0 43.48047,-19.39227 43.48047,-43.48047 V 60.761719 c 0,-24.088202 -19.39227,-43.480469 -43.48047,-43.480469 z M 243.1875,35.537109 h 9.34375 v 44.798829 h -9.02344 v -3.519532 c -0.768,1.237331 -1.47133,2.113002 -2.11133,2.625 -0.59733,0.469333 -1.45121,0.831891 -2.56054,1.087891 -1.152,0.298666 -2.85782,0.447265 -5.11914,0.447265 -3.66933,10e-7 -6.37958,-0.255578 -8.12891,-0.767578 -1.74933,-0.554665 -2.96577,-1.578936 -3.64844,-3.072265 -0.68266,-1.493331 -1.02343,-3.819236 -1.02343,-6.976563 V 58.064453 c 0,-3.413326 0.96087,-5.824424 2.88086,-7.232422 1.96266,-1.407996 5.1187,-2.111328 9.4707,-2.111328 2.048,0 3.64878,0.128766 4.80078,0.384766 1.19466,0.213333 2.15357,0.617512 2.87891,1.214843 0.72532,0.554666 1.47223,1.386763 2.24023,2.496094 z m -138.75195,2.623047 h 9.3457 v 7.552735 h -9.3457 z M 47.667969,38.800781 H 61.876953 L 72.117188,68.496094 82.228516,38.800781 h 13.375 v 41.535157 h -9.023438 v -30.71875 h -0.191406 l -10.496094,30.71875 h -8 L 57.076172,49.617188 h -0.25586 v 30.71875 h -9.152343 z m 91.519531,9.919922 h 3.32812 v 7.744141 h -3.19921 c -2.64533,0 -4.60868,0.406132 -5.88868,1.216797 -1.23732,0.810665 -1.85546,2.153921 -1.85546,4.03125 v 18.623047 h -9.34375 v -30.97461 h 8.89648 v 5.439453 c 0,-0.981331 0.40418,-1.942195 1.21484,-2.880859 0.81067,-0.938665 1.83494,-1.705402 3.07227,-2.302734 1.28,-0.597332 2.53806,-0.896485 3.77539,-0.896485 z m 21.12109,0 c 3.968,0 7.01902,0.299153 9.15235,0.896485 2.176,0.597332 3.73321,1.621602 4.67187,3.072265 0.93867,1.450664 1.40821,3.56261 1.40821,6.335938 v 21.310547 h -9.15235 v -2.814454 c -0.72533,1.237331 -1.70798,2.111049 -2.94531,2.623047 -1.23733,0.554666 -3.58308,0.832031 -7.03906,0.832031 -2.90133,10e-7 -5.07668,-0.255578 -6.52735,-0.767578 -1.408,-0.554665 -2.41048,-1.515528 -3.00781,-2.880859 -0.55467,-1.407998 -0.83203,-3.498156 -0.83203,-6.271484 0,-2.474662 0.2972,-4.416223 0.89453,-5.824219 0.64,-1.407998 1.64248,-2.41048 3.00781,-3.007813 1.408,-0.639998 3.32972,-0.958984 5.76172,-0.958984 h 10.4961 v -2.113281 c 0,-1.322665 -0.19218,-2.30336 -0.57618,-2.94336 -0.34133,-0.639998 -1.00304,-1.08775 -1.98437,-1.34375 -0.93867,-0.255998 -2.36908,-0.384765 -4.28906,-0.384765 -2.64533,0 -6.27091,0.255578 -10.87891,0.767578 v -5.886719 c 3.37066,-0.426665 7.31719,-0.640625 11.83984,-0.640625 z m 42.56055,0 c 3.968,0 6.73969,0.725118 8.31836,2.175781 1.62133,1.407998 2.43359,3.64871 2.43359,6.720704 v 22.71875 h -9.3457 V 58.832031 c 0,-1.194664 -0.12681,-2.090167 -0.38281,-2.6875 -0.21333,-0.597332 -0.68287,-1.023297 -1.4082,-1.279297 -0.68266,-0.255998 -1.74857,-0.384765 -3.19922,-0.384765 -1.83467,0 -3.17987,0.128767 -4.03321,0.384765 -0.85333,0.213333 -1.42985,0.617512 -1.72851,1.214844 -0.29867,0.597333 -0.44727,1.514622 -0.44727,2.751953 v 21.503907 h -9.34375 v -30.97461 h 9.21485 v 3.775391 c 0.72532,-2.943994 4.03389,-4.416016 9.92187,-4.416016 z m 70.52734,0 c 3.968,0 7.01902,0.299153 9.15235,0.896485 2.176,0.597332 3.73321,1.621602 4.67187,3.072265 0.93867,1.450664 1.40821,3.56261 1.40821,6.335938 v 21.310547 h -9.15235 v -2.814454 c -0.72533,1.237331 -1.70798,2.111049 -2.94531,2.623047 -1.23733,0.554666 -3.58308,0.832031 -7.03906,0.832031 -2.90133,10e-7 -5.07668,-0.255578 -6.52735,-0.767578 -1.40798,-0.554665 -2.41048,-1.515528 -3.00781,-2.880859 -0.55466,-1.407998 -0.83203,-3.498156 -0.83203,-6.271484 0,-2.474662 0.2972,-4.416223 0.89453,-5.824219 0.64,-1.407998 1.64249,-2.41048 3.00781,-3.007813 1.408,-0.639998 3.32972,-0.958984 5.76172,-0.958984 h 10.4961 v -2.113281 c 0,-1.322665 -0.19218,-2.30336 -0.57618,-2.94336 -0.34133,-0.639998 -1.00304,-1.08775 -1.98437,-1.34375 -0.93867,-0.255998 -2.36908,-0.384765 -4.28906,-0.384765 -2.64533,0 -6.27091,0.255578 -10.87891,0.767578 v -5.886719 c 3.37066,-0.426665 7.31719,-0.640625 11.83984,-0.640625 z m -168.96093,0.640625 h 9.3457 v 30.97461 h -9.3457 z m 132.16015,5.119141 c -1.96265,0 -3.36932,0.128767 -4.22265,0.384765 -0.85334,0.213333 -1.42985,0.617512 -1.72852,1.214844 -0.256,0.554666 -0.38476,1.493743 -0.38476,2.816406 v 11.839844 c 0,1.194664 0.12876,2.111955 0.38476,2.751953 0.29867,0.597333 0.8534,1.025251 1.66406,1.28125 0.81067,0.256 2.06874,0.382813 3.77539,0.382813 2.09067,0 3.62609,-0.10698 4.60743,-0.320313 0.98133,-0.213333 1.64304,-0.595724 1.98437,-1.15039 0.34133,-0.597332 0.51172,-1.473003 0.51172,-2.625 V 58.576172 c 0,-1.066665 -0.19217,-1.876975 -0.57617,-2.431641 -0.34133,-0.597332 -0.98126,-1.023297 -1.91992,-1.279297 -0.896,-0.255998 -2.26104,-0.384765 -4.09571,-0.384765 z m -76.79882,11.904297 c -1.45066,0 -2.47494,0.106979 -3.07227,0.320312 -0.59733,0.170666 -1.00346,0.555011 -1.2168,1.152344 -0.21333,0.554665 -0.32031,1.557149 -0.32031,3.007812 0,1.407998 0.10698,2.388694 0.32031,2.94336 0.21334,0.554665 0.61947,0.917225 1.2168,1.08789 0.64,0.17067 1.74947,0.25586 3.32812,0.25586 1.87734,0 3.2206,-0.06341 4.03125,-0.191406 0.59734,-0.08533 1.00347,-0.2141 1.2168,-0.384766 0.256,-0.170667 0.46801,-0.448032 0.63867,-0.832031 0.17062,-0.298666 0.25782,-0.746418 0.25782,-1.34375 v -6.015625 z m 113.08789,0 c -1.45067,0 -2.47494,0.106979 -3.07227,0.320312 -0.59733,0.170666 -1.00346,0.555011 -1.2168,1.152344 -0.21333,0.554665 -0.32031,1.557149 -0.32031,3.007812 0,1.407998 0.10698,2.388694 0.32031,2.94336 0.21334,0.554665 0.61947,0.917225 1.2168,1.08789 0.64,0.17067 1.74946,0.25586 3.32812,0.25586 1.87733,0 3.2206,-0.06341 4.03126,-0.191406 0.59733,-0.08533 1.00346,-0.2141 1.21679,-0.384766 0.256,-0.170667 0.46801,-0.448032 0.63867,-0.832031 0.17062,-0.298666 0.25782,-0.746418 0.25782,-1.34375 v -6.015625 z" />
      <rect
         style="fill:#00ff00;stroke-width:30.048;paint-order:stroke fill markers"
         id="rect568"
         width="477.02148"
         height="352.60675"
         x="17.489258"
         y="108.10997"
         ry="17.266336" />
      <rect
         style="fill:#000000;stroke-width:29.2222;paint-order:stroke fill markers"
         id="rect568-7"
         width="464.57947"
         height="342.4209"
         x="23.710266"
         y="113.2029"
         ry="21.327551" />
      <path
         d="m 370.14975,145.91499 c -3.65161,-4.5e-4 -7.34779,0.0729 -9.34744,0.2212 -39.79742,2.95057 -90.11525,22.92015 -141.39312,56.11465 -5.00923,3.24268 -9.26171,6.0939 -9.19894,6.16769 0.0253,0.0296 1.99628,-1.01222 4.38047,-2.31535 25.0373,-13.68468 52.15452,-25.35731 75.97884,-32.70534 19.43375,-5.99385 36.32607,-9.40401 54.19259,-10.94031 5.0716,-0.43609 19.40134,-0.36332 23.96876,0.12176 18.88114,2.00525 32.19599,7.01544 42.62192,16.03751 3.88809,3.36455 7.68396,8.06975 10.43318,12.93287 2.36328,4.18059 4.68719,10.82986 5.60257,16.03006 0.22799,1.29513 0.4576,2.594 0.51041,2.88607 0.0526,0.2921 0.13161,0.48943 0.17518,0.43891 0.0435,-0.0505 0.31769,-1.90405 0.60898,-4.1191 0.47897,-3.64275 0.53043,-4.62733 0.53942,-10.30696 0.0113,-6.72379 -0.16571,-8.76174 -1.15519,-13.34371 -1.69715,-7.85862 -4.92176,-14.59481 -9.55689,-19.96344 -8.54757,-9.90028 -21.6767,-15.59307 -39.28112,-17.03225 -1.82112,-0.14888 -5.42808,-0.22366 -9.07962,-0.22426 z m -195.97197,68.36637 v 72.6747 72.67472 h 12.56426 12.56431 V 331.96089 304.2914 l 8.65,-0.1165 c 6.14339,-0.0827 9.45362,-0.22254 11.42301,-0.48225 22.26975,-2.93675 34.71686,-14.71216 37.94622,-35.89803 0.56211,-3.68784 0.70839,-12.45905 0.27367,-16.42164 -1.31451,-11.98241 -5.84366,-20.84865 -13.83468,-27.08207 -2.13305,-1.66391 -6.84638,-4.32249 -9.67276,-5.45637 -4.48293,-1.79848 -10.16643,-3.1753 -16.51895,-4.00127 -2.48271,-0.3228 -5.80937,-0.3895 -23.14728,-0.4643 z m 207.21406,0 v 72.6747 72.67472 h 12.56435 12.56426 v -27.66989 -27.6699 l 8.74672,-0.11568 c 9.03777,-0.11927 11.23206,-0.29369 16.28518,-1.29563 11.26726,-2.23413 20.24519,-7.58402 25.86401,-15.41202 3.99639,-5.5676 6.39503,-12.0514 7.60962,-20.5701 0.49515,-3.47343 0.49714,-13.76027 0,-17.04405 -1.02468,-6.81461 -2.87594,-12.13562 -5.89141,-16.93194 -1.45341,-2.31173 -4.80536,-6.09501 -6.95416,-7.84924 -5.89056,-4.80883 -13.70267,-8.0303 -23.33758,-9.62365 -5.83322,-0.96467 -6.36785,-0.98596 -27.20651,-1.07794 z m -334.789925,0.0264 0.0048,47.03938 c 0,27.78951 0.07996,48.59956 0.191412,50.85187 1.063397,21.49047 8.214852,35.64033 21.938427,43.40693 6.244062,3.53368 12.322466,5.25717 22.422422,6.35778 2.135,0.23272 15.021594,-0.0716 17.300044,-0.40865 7.60549,-1.12465 13.27174,-2.91834 18.55652,-5.87423 13.33997,-7.4614 20.50619,-21.29116 21.83422,-42.13626 0.12876,-2.021 0.20028,-20.25921 0.20087,-51.18826 v -48.04864 h -12.56449 -12.56431 v 43.67543 c 0,27.11996 -0.075,44.86554 -0.19592,46.8151 -0.79782,12.85271 -3.61505,21.71294 -8.68701,27.31953 -1.62234,1.79326 -2.96014,2.88538 -4.96383,4.05205 -7.02849,4.09245 -18.12478,3.94848 -24.98324,-0.32458 -8.112404,-5.05435 -12.353461,-15.49354 -13.159654,-32.39263 -0.114738,-2.40497 -0.193752,-21.2382 -0.195928,-46.59085 l -0.0048,-42.5541 H 59.167212 Z m 152.704435,22.60775 6.81369,0.0994 c 7.49788,0.10962 9.21514,0.33953 12.86328,1.72271 6.64187,2.51818 10.86613,7.65296 12.33288,14.99067 0.78647,3.93453 0.69486,9.28977 -0.22164,12.95911 -1.9758,7.91043 -7.44873,12.63972 -16.61671,14.35947 -1.38417,0.25963 -3.80536,0.3951 -8.55109,0.47832 l -6.62041,0.11608 v -22.36289 z m 207.2141,0 6.81371,0.0999 c 5.40341,0.0791 7.19376,0.18129 8.65001,0.49495 7.41604,1.59723 12.52396,5.44303 15.0877,11.35907 1.65898,3.82809 2.39071,8.95579 1.95636,13.70855 -0.31028,3.39587 -0.64507,4.78897 -1.82041,7.57156 -0.85133,2.01536 -1.23336,2.63164 -2.64878,4.2759 -3.04843,3.54126 -6.8524,5.52881 -12.67372,6.62191 -1.39244,0.26147 -3.80411,0.39507 -8.64779,0.47833 l -6.71708,0.11519 v -22.36244 z m -80.80447,13.08133 c -3.57714,-0.0395 -5.63435,0.20426 -8.9932,0.98335 -5.73295,1.32983 -11.10087,4.4022 -15.45241,8.84441 -1.5486,1.58084 -3.92133,4.54522 -4.89434,6.11514 -0.28505,0.45991 -0.5832,0.83829 -0.66293,0.84099 -0.0798,0.002 -0.14499,-3.22458 -0.14499,-7.17164 v -7.17646 H 284.1636 272.75909 v 53.59912 0 53.59912 h 11.97572 11.97569 l 0.0721,-29.09826 c 0.0528,-21.31002 0.13508,-29.57848 0.30697,-30.8924 2.12662,-16.25544 7.46239,-25.14689 16.57292,-27.61687 2.32741,-0.63102 6.99673,-0.5817 9.02491,0.095 4.89959,1.63481 7.87281,5.40006 9.51079,12.045 1.38769,5.62938 1.44898,7.4594 1.44898,43.79016 v 31.67733 h 12.08634 12.08628 l -0.0626,-37.39606 c -0.0557,-33.43756 -0.0959,-37.6334 -0.3805,-39.63866 -1.48351,-10.45481 -4.36097,-17.78686 -9.16159,-23.3458 -3.74627,-4.33796 -8.29904,-7.05897 -14.2651,-8.52555 -1.95101,-0.47959 -3.03159,-0.59311 -6.60041,-0.69425 -0.58126,-0.0164 -1.1233,-0.0281 -1.63431,-0.0337 z M 67.39566,360.35787 c -0.06741,-0.0783 -0.814612,5.2829 -1.117473,8.01919 -0.129714,1.1718 -0.235237,4.45164 -0.23447,7.28857 0,5.88066 0.281182,8.6902 1.344397,13.50316 3.352667,15.17686 12.929213,26.14689 27.977809,32.04877 6.164827,2.41772 13.783677,4.07459 21.982617,4.78091 v 0 c 5.82467,0.50181 17.96398,0.17832 25.12855,-0.66971 34.7431,-4.11236 76.76359,-19.98458 120.52051,-45.52345 8.93245,-5.21342 22.07296,-13.36591 21.88861,-13.57977 -0.0364,-0.042 -1.88794,0.88784 -4.11511,2.06612 -25.70457,13.59886 -53.38947,24.97446 -77.91331,32.01456 -17.41343,4.99893 -32.96853,7.95428 -49.36278,9.37833 -4.48674,0.39017 -20.7047,0.3913 -24.64532,0 -15.28188,-1.50893 -26.20778,-4.64328 -36.061162,-10.34414 -13.492546,-7.80641 -22.020777,-20.17699 -24.824674,-36.00973 -0.283857,-1.60287 -0.539661,-2.94146 -0.568194,-2.97456 z"
         style="fill:#00ff00;stroke-width:0.208206"
         id="path1614" />
      <g
         id="g660"
         transform="matrix(1,0,0,0.85170314,-183.07102,134.94441)">
        <path
           style="fill:#ff0000;stroke-width:30.048;paint-order:stroke fill markers"
           id="path354"
           sodipodi:type="arc"
           sodipodi:cx="541.31512"
           sodipodi:cy="-88.285851"
           sodipodi:rx="22.897512"
           sodipodi:ry="26.426191"
           sodipodi:start="4.7101026"
           sodipodi:end="4.7087761"
           sodipodi:open="true"
           sodipodi:arc-type="arc"
           d="m 541.26277,-114.71197 a 22.897512,26.426191 0 0 1 22.94979,26.356936 22.897512,26.426191 0 0 1 -22.8299,26.49526 22.897512,26.426191 0 0 1 -22.96492,-26.339366 22.897512,26.426191 0 0 1 22.81466,-26.51273" />
        <path
           style="fill:#ffff00;stroke-width:30.048;paint-order:stroke fill markers"
           id="path354-3"
           sodipodi:type="arc"
           sodipodi:cx="588.53949"
           sodipodi:cy="-88.285851"
           sodipodi:rx="22.897512"
           sodipodi:ry="26.426191"
           sodipodi:start="4.7101026"
           sodipodi:end="4.7087761"
           sodipodi:open="true"
           sodipodi:arc-type="arc"
           d="m 588.48714,-114.71197 a 22.897512,26.426191 0 0 1 22.94978,26.356936 22.897512,26.426191 0 0 1 -22.82989,26.49526 22.897512,26.426191 0 0 1 -22.96493,-26.339366 22.897512,26.426191 0 0 1 22.81466,-26.51273" />
        <path
           style="fill:#00ff00;stroke-width:30.048;paint-order:stroke fill markers"
           id="path354-3-6"
           sodipodi:type="arc"
           sodipodi:cx="636.69263"
           sodipodi:cy="-88.285851"
           sodipodi:rx="22.897512"
           sodipodi:ry="26.426191"
           sodipodi:start="4.7101026"
           sodipodi:end="4.7087761"
           sodipodi:open="true"
           sodipodi:arc-type="arc"
           d="m 636.64027,-114.71197 a 22.897512,26.426191 0 0 1 22.94979,26.356936 22.897512,26.426191 0 0 1 -22.82989,26.49526 22.897512,26.426191 0 0 1 -22.96493,-26.339366 22.897512,26.426191 0 0 1 22.81466,-26.51273" />
      </g>
    </g>
  </g>
</svg>
