<?xml version="1.0" encoding="UTF-8" standalone="no"?>
<svg
   viewBox="0 0 400 400"
   height="400"
   width="400"
   id="svg869"
   version="1.1"
   sodipodi:docname="mitmproxy.svg"
   inkscape:version="1.1.2 (0a00cf5339, 2022-02-04)"
   xmlns:inkscape="http://www.inkscape.org/namespaces/inkscape"
   xmlns:sodipodi="http://sodipodi.sourceforge.net/DTD/sodipodi-0.dtd"
   xmlns="http://www.w3.org/2000/svg"
   xmlns:svg="http://www.w3.org/2000/svg"
   xmlns:rdf="http://www.w3.org/1999/02/22-rdf-syntax-ns#"
   xmlns:cc="http://creativecommons.org/ns#"
   xmlns:dc="http://purl.org/dc/elements/1.1/">
  <sodipodi:namedview
     id="namedview866"
     pagecolor="#505050"
     bordercolor="#eeeeee"
     borderopacity="1"
     inkscape:pageshadow="0"
     inkscape:pageopacity="0"
     inkscape:pagecheckerboard="0"
     showgrid="false"
     inkscape:zoom="0.79019183"
     inkscape:cx="219.56694"
     inkscape:cy="204.38075"
     inkscape:window-width="1366"
     inkscape:window-height="695"
     inkscape:window-x="0"
     inkscape:window-y="24"
     inkscape:window-maximized="1"
     inkscape:current-layer="svg869" />
  <metadata
     id="metadata875">
    <rdf:RDF>
      <cc:Work
         rdf:about="">
        <dc:format>image/svg+xml</dc:format>
        <dc:type
           rdf:resource="http://purl.org/dc/dcmitype/StillImage" />
      </cc:Work>
    </rdf:RDF>
  </metadata>
  <defs
     id="defs873" />
  <g
     id="g2545">
    <path
       id="path879"
       d="m 167.62531,393.85748 c -23.58779,-4.0827 -46.2072,-12.18264 -66.11721,-23.67637 -9.236598,-5.33215 -26.245836,-17.76592 -33.261618,-24.3143 -3.924882,-3.66341 -6.215749,-4.92734 -9.6428,-5.32022 -9.892047,-1.134 -16.352777,-6.24287 -19.169076,-15.15804 -3.09875,-9.80931 0.07383,-18.24658 9.312772,-24.76688 3.789108,-2.67413 5.646258,-3.23178 10.755281,-3.2296 7.848191,0.003 13.474731,2.83294 17.981342,9.04273 3.080812,4.24512 3.400417,5.44727 3.457083,13.00299 0.03431,4.57898 0.421839,8.90569 0.861105,9.61491 0.889107,1.43553 23.288121,18.12575 28.392001,21.15578 17.86819,10.60789 40.55049,18.79763 62.14492,22.43821 12.27034,2.06866 17.03254,2.34354 32.57281,1.88011 12.31514,-0.36723 21.77075,-1.27558 29.23876,-2.80878 12.07578,-2.47917 31.95236,-8.78949 38.18471,-12.12267 2.17138,-1.16129 4.33803,-2.11144 4.81479,-2.11144 0.47676,0 5.85851,-2.9888 11.95944,-6.64176 33.65906,-20.15357 58.87441,-49.43201 74.05843,-85.99187 4.97161,-11.97057 11.40876,-38.2214 11.40876,-46.52515 v -3.85454 h -54.65902 -54.65903 l -1.36988,4.6046 c -3.05346,10.26375 -8.08136,18.65569 -15.75925,26.30339 -11.4419,11.39689 -18.06014,15.34085 -31.745,18.91758 -30.08024,7.86188 -61.77631,-6.86126 -75.55715,-35.09706 -2.06324,-4.22739 -4.09766,-9.2707 -4.52091,-11.20734 l -0.76956,-3.52117 H 80.792378 c -53.335782,0 -54.744622,0.0538 -54.744622,2.08847 0,4.85494 2.469215,19.64655 4.579834,27.43512 l 2.275407,8.39661 h 34.45782 c 30.392071,0 34.535453,0.20184 35.115643,1.71054 1.59394,4.14484 9.21095,14.28581 16.6852,22.21397 8.57594,9.09674 20.74072,18.28445 30.66277,23.15873 3.28443,1.61349 6.72122,3.3193 7.63731,3.7907 0.9161,0.47138 6.04632,2.25143 11.40049,3.95564 9.32284,2.96745 10.63094,3.09934 30.90717,3.11637 22.66841,0.019 25.21546,-0.39111 41.80178,-6.73117 6.49592,-2.48306 20.34546,-9.98872 25.4193,-13.77582 0.84291,-0.62915 6.39171,-5.91598 12.33067,-11.7485 9.14537,-8.98149 10.67775,-10.97141 10.01191,-13.00121 -0.43239,-1.31814 -1.01419,-6.05321 -1.29286,-10.52238 -0.44999,-7.21627 -0.22127,-8.54567 2.04356,-11.87751 1.40266,-2.06347 4.6182,-5.20205 7.14568,-6.97461 3.95633,-2.77467 5.57767,-3.22285 11.65887,-3.22285 6.05009,0 7.72511,0.45756 11.67495,3.18929 5.21879,3.60932 10.59766,12.91468 10.5593,18.26738 -0.0279,3.89225 -3.28718,11.52133 -6.30136,14.74973 -2.64481,2.83277 -9.32471,6.45382 -11.90567,6.45382 -1.0738,0 -3.78954,2.40391 -6.03498,5.34203 -6.10359,7.98641 -15.53703,17.29514 -27.65806,27.29243 -4.0187,3.31458 -21.74238,12.95586 -29.18435,15.87563 -19.55117,7.67065 -23.60897,8.36085 -49.18297,8.36574 -21.07226,0.004 -24.24192,-0.24073 -32.57282,-2.5152 -30.59387,-8.35265 -54.95758,-24.33376 -74.043362,-48.56793 l -5.415361,-6.87614 -33.288022,-0.10801 c -18.308404,-0.0593 -34.50949,-0.43927 -36.00241,-0.84417 -2.191912,-0.59446 -3.20359,-2.18994 -5.255776,-8.28862 C 7.385665,244.33769 3.3541826,220.68953 3.2853889,200.34092 3.2055855,176.71933 8.8148078,147.79309 17.665231,126.186 c 5.630655,-13.74647 20.281253,-39.307757 26.14892,-45.622727 0.678926,-0.730679 2.918631,-3.444107 4.977136,-6.029832 3.157369,-3.966029 20.774123,-21.699577 26.115684,-26.288825 3.551673,-3.051454 15.035402,-11.457239 15.652538,-11.457239 0.360874,0 3.021367,-1.658924 5.912215,-3.686495 6.881666,-4.826645 27.854026,-14.98943 38.152066,-18.487724 23.32932,-7.9250903 49.67059,-12.0061788 71.48812,-11.0757559 14.42338,0.6150959 33.9251,3.4624997 45.51218,6.6451399 7.32257,2.011301 21.16064,6.646306 23.76524,7.960066 1.10657,0.558155 4.94349,2.331958 8.5265,3.941787 3.583,1.60983 7.24745,3.386151 8.14321,3.947383 0.89574,0.56123 2.85011,1.618924 4.34303,2.35043 2.72344,1.334435 21.78288,13.76454 22.80097,14.870224 0.29858,0.324277 2.25295,1.891874 4.34305,3.483547 2.09007,1.591675 5.65355,4.57606 7.91879,6.631965 3.20778,2.911327 5.30156,3.851434 9.46742,4.250864 10.21865,0.979778 17.46193,8.609505 18.22979,19.202402 0.83191,11.476353 -5.22261,19.993684 -16.31725,22.954699 -14.40744,3.845131 -29.91767,-11.126815 -26.14355,-25.236292 1.21915,-4.557777 1.73235,-3.80955 -8.4476,-12.316239 -4.94711,-4.133964 -21.08246,-14.352896 -28.13802,-17.820535 -3.88159,-1.90771 -8.27893,-4.099161 -9.77184,-4.869889 -6.12895,-3.164101 -26.76998,-9.345358 -38.23586,-11.450282 -19.47265,-3.57482 -37.4655,-3.930282 -56.22529,-1.110773 -8.65894,1.301399 -18.43078,3.256399 -21.71521,4.344445 -3.28442,1.088045 -7.554,2.314103 -9.48795,2.72457 -1.93396,0.410468 -3.795,1.196341 -4.13568,1.746385 -0.34068,0.550042 -1.35478,1.000078 -2.25354,1.000078 -0.89878,0 -4.30457,1.218863 -7.56842,2.708585 -3.26386,1.489722 -6.13794,2.708585 -6.38682,2.708585 -0.87776,0 -14.24639,7.946926 -22.82696,13.569381 -11.990791,7.857008 -26.034775,20.521502 -35.287212,31.821082 -2.090088,2.552528 -4.363367,5.246487 -5.051727,5.986581 -3.742899,4.02421 -13.349511,19.696269 -17.984003,29.338799 -1.718421,3.57533 -3.638469,7.42453 -4.266778,8.55377 -1.593624,2.86417 -5.152377,13.12826 -6.846283,19.74593 -0.780998,3.05116 -1.944998,7.1953 -2.586671,9.20918 -1.567622,4.92 -4.726803,30.08432 -3.936946,31.3596 0.846101,1.36609 107.64741,1.35849 108.4936,-0.008 0.34771,-0.56142 1.13572,-3.73865 1.75111,-7.06053 3.23159,-17.44376 17.63605,-35.30771 35.92848,-44.55734 7.71235,-3.89977 24.03004,-7.26249 31.8479,-6.56314 16.61719,1.48646 31.34648,7.94114 42.07764,18.43927 7.66988,7.50332 10.26386,10.93278 14.07246,18.60501 2.52579,5.08808 5.75313,14.73405 6.50718,19.44888 0.34119,2.13336 1.18591,2.16687 54.61971,2.16687 h 54.27313 l -0.33052,-7.04233 c -0.3956,-8.42878 -3.96919,-27.7663 -6.45706,-34.94075 l -1.78459,-5.14631 h -34.33819 -34.3382 l -5.32308,-7.8549 c -11.88069,-17.53126 -30.90853,-32.75055 -50.97687,-40.773261 -14.89091,-5.95294 -21.85154,-7.153244 -41.2589,-7.114771 -16.7158,0.03315 -19.43145,0.312603 -28.77264,2.960917 -21.51925,6.100927 -43.13714,19.619555 -56.07052,35.063415 -4.18436,4.99659 -4.39455,5.55418 -3.02431,8.02314 3.61598,6.51543 0.70219,18.64227 -5.86601,24.41363 -4.23465,3.72091 -12.375545,6.19911 -17.516805,5.33236 -6.467462,-1.09034 -13.621243,-6.3481 -16.383015,-12.04093 -4.313802,-8.89205 -1.509121,-20.93446 6.242535,-26.80346 1.312238,-0.99354 4.778073,-2.41732 7.701841,-3.16397 4.458316,-1.13852 6.189355,-2.40454 10.729646,-7.84727 18.436538,-22.101023 42.481478,-37.153001 72.015118,-45.08103 8.10026,-2.174439 11.81834,-2.481088 30.40128,-2.507356 19.67105,-0.02781 21.94222,0.178065 32.02993,2.90335 19.88234,5.371385 32.14098,11.10272 47.31232,22.120162 8.48542,6.16213 23.65316,21.032024 28.45929,27.900464 l 1.93992,2.77233 36.49384,0.28522 36.49383,0.28522 2.06555,5.95889 c 1.13605,3.27738 2.71812,8.23138 3.51572,11.00887 0.7976,2.7775 1.76693,5.56141 2.15408,6.18648 0.38715,0.62508 2.00647,7.61594 3.59852,15.53527 2.60199,12.94319 2.89341,16.75354 2.88278,37.6926 -0.0109,21.00398 -0.29444,24.63693 -2.88673,36.95672 -13.08674,62.19447 -50.72542,111.32902 -106.46201,138.97845 -36.53171,18.1224 -79.77007,24.45475 -119.74113,17.53635 z m -99.459955,-62.9893 c 3.118118,-2.17934 6.741616,-9.26155 6.741616,-13.17668 0,-6.33646 -8.461711,-14.3793 -15.12817,-14.3793 -9.873884,0 -17.350212,10.48055 -14.222451,19.93746 2.065703,6.2457 6.676232,9.31527 13.991683,9.31527 3.860746,0 7.103098,-0.63843 8.617322,-1.69675 z m -15.23881,-4.77949 c -7.660179,-6.01258 -2.542904,-18.87612 7.509162,-18.87612 8.789849,0 13.476533,11.4786 7.369881,18.05025 -3.478341,3.74319 -10.654816,4.14154 -14.879043,0.82587 z M 313.68382,267.58475 c 7.84313,-2.24456 12.1136,-10.10135 9.91631,-18.24396 -1.34273,-4.97587 -4.59011,-8.14188 -10.18625,-9.93107 -3.52125,-1.12579 -4.90453,-1.04665 -9.00262,0.51507 -2.66315,1.01488 -5.5716,2.95623 -6.46323,4.3141 -5.79488,8.82519 -2.47432,20.63254 6.53742,23.24601 4.50521,1.30654 4.96445,1.31153 9.19837,0.0999 z m -9.68143,-4.67233 c -1.49291,-0.7503 -3.67665,-3.14584 -4.85274,-5.32339 -2.04744,-3.79085 -2.05949,-4.12427 -0.28335,-7.84089 3.53083,-7.38835 12.0412,-8.98391 17.71584,-3.32142 4.37021,4.36084 3.34155,13.64377 -1.80622,16.30009 -3.74271,1.93128 -7.1822,1.99054 -10.77353,0.18561 z M 213.2812,242.66056 c 10.16638,-3.49026 20.3592,-10.85452 23.94367,-17.29919 8.4575,-15.20612 10.07049,-29.06806 4.75872,-40.89663 -1.12258,-2.49984 -2.04105,-4.86776 -2.04105,-5.26207 0,-2.12517 -9.67837,-12.41685 -15.00751,-15.95852 -15.86146,-10.5413 -35.80863,-10.23977 -50.4803,0.7631 -10.27778,7.70773 -15.88031,16.51396 -18.20195,28.61051 -3.10093,16.15687 5.22476,35.52966 19.08702,44.413 11.86844,7.60564 26.05478,9.71063 37.9414,5.6298 z m -17.85483,-2.8966 c -16.81372,-3.05281 -29.21516,-13.8818 -33.26185,-29.0444 -8.16387,-30.58928 19.60738,-57.6448 49.79324,-48.50995 22.17961,6.712 33.87136,31.06466 25.24153,52.57541 -2.78214,6.93478 -9.13987,14.79478 -15.1718,18.75672 -6.52826,4.28794 -19.95589,7.42877 -26.60112,6.22222 z m 17.30081,-9.22463 c 7.63612,-3.61939 12.20618,-7.68865 16.35775,-14.56531 3.55809,-5.89362 3.79939,-6.88389 3.78799,-15.54593 -0.01,-7.33103 -0.50989,-10.26333 -2.40989,-14.12678 -3.1674,-6.44052 -9.20976,-12.51081 -15.97328,-16.04707 -4.6094,-2.41 -6.88648,-2.87114 -14.17747,-2.87114 -7.27488,0 -9.56808,0.46232 -14.11488,2.8456 -20.45332,10.72097 -25.17503,35.54231 -9.93201,52.21113 9.1291,9.983 25.03396,13.51606 36.46179,8.0995 z M 191.6262,223.9815 c -5.14676,-1.82087 -8.94622,-4.92061 -12.74199,-10.39546 -3.2559,-4.69612 -3.51676,-5.72037 -3.49992,-13.7418 0.0161,-7.67923 0.36486,-9.18247 3.05869,-13.1842 6.13005,-9.10628 16.62353,-13.40436 27.31743,-11.18908 20.18657,4.18174 26.95723,28.92474 11.74243,42.91206 -7.06635,6.49625 -17.16396,8.6809 -25.87664,5.59848 z M 97.13597,158.14306 c 10.15371,-3.85216 12.52907,-17.49186 4.29106,-24.63972 -5.515668,-4.78575 -9.942313,-5.46234 -15.996838,-2.44505 -5.357097,2.66974 -8.3517,7.49013 -8.3517,13.44371 0,10.21059 10.420139,17.29732 20.057478,13.64106 z m -10.24796,-4.05664 c -4.889071,-1.91825 -7.536611,-9.3306 -5.047961,-14.13282 3.706656,-7.15253 11.287391,-8.77201 16.838819,-3.5973 2.808192,2.61762 3.372112,3.9604 3.372112,8.02946 0,4.12609 -0.51965,5.32248 -3.340593,7.69106 -3.231027,2.71291 -7.974714,3.51926 -11.822377,2.0096 z M 346.2893,90.783166 c 3.36844,-2.63023 6.46502,-8.12334 6.5268,-11.578097 0.12967,-7.25162 -7.90561,-15.331816 -15.24661,-15.331816 -8.6572,0 -15.993,8.899132 -14.52062,17.615088 0.85048,5.034427 6.17596,11.093099 10.53729,11.988038 4.02491,0.825901 9.75108,-0.388108 12.70314,-2.693213 z m -12.42849,-1.896475 c -4.23902,-1.800093 -6.51457,-5.500802 -6.51457,-10.594632 0,-3.976746 0.55134,-5.328752 3.04638,-7.470289 10.01403,-8.595248 24.19122,5.061229 15.4898,14.92086 -2.77585,3.145318 -8.49581,4.641291 -12.02161,3.144061 z"
       style="fill:#ffffff;stroke-width:1.08459663" />
    <path
       style="fill:#ff0b00;fill-opacity:1;stroke-width:1.7523"
       d="m 85.497952,153.953 c -3.033812,-2.14836 -5.291979,-6.61336 -5.291979,-10.46364 0,-4.09112 6.545172,-10.81614 10.526879,-10.81614 6.670312,0 11.824568,4.91766 11.924168,11.37679 0.0593,3.84844 -0.42705,5.0829 -2.994604,7.60034 -3.788035,3.71411 -10.60608,4.82249 -14.164464,2.30265 z"
       id="path1003" />
    <path
       style="fill:#ff0b00;fill-opacity:1;stroke-width:1.77193"
       d="m 332.35667,89.040951 c -4.90507,-2.708417 -7.53123,-9.742394 -5.51967,-14.783969 1.22991,-3.082537 6.70946,-6.638643 10.23779,-6.644107 5.98772,-0.0093 12.61618,6.340265 12.62434,12.093115 0.005,4.22399 -5.75382,9.617929 -10.86499,10.174806 -2.38885,0.260273 -5.12839,-0.09493 -6.47747,-0.839845 z"
       id="path2004" />
    <path
       style="fill:#ff0b00;fill-opacity:1;stroke-width:1.77123"
       d="m 303.44669,263.40026 c -1.51901,-0.86166 -3.70445,-3.42787 -4.85654,-5.7027 -1.79233,-3.53898 -1.91956,-4.56202 -0.88134,-7.08687 2.90864,-7.07349 10.83636,-9.99582 17.06396,-6.29015 5.45203,3.24416 6.8836,12.23663 2.72361,17.10833 -2.87375,3.3654 -9.86326,4.34614 -14.04969,1.97139 z"
       id="path2043" />
    <path
       style="fill:#ff0b00;fill-opacity:1;stroke-width:1.77325"
       d="m 55.988546,328.54764 c -0.841128,-0.32889 -2.791017,-1.75425 -4.333085,-3.1675 -5.760676,-5.27943 -2.4943,-15.52659 5.808342,-18.22172 10.224557,-3.31902 18.344918,10.01005 11.014218,18.07914 -2.818267,3.10214 -8.899354,4.71381 -12.489475,3.31008 z"
       id="path2082" />
    <path
       style="fill:#ff0b00;fill-opacity:1;stroke-width:1.66952"
       d="m 191.9721,225.30303 c -5.61597,-1.83561 -10.1594,-5.54068 -14.11001,-11.50635 -3.21226,-4.85075 -3.35011,-5.4126 -3.35011,-13.65451 0,-5.86352 0.46391,-9.49506 1.4595,-11.4254 5.81478,-11.2741 18.34505,-17.10233 30.21422,-14.05359 10.04956,2.58134 16.52863,8.66321 19.39227,18.20337 1.72504,5.74698 1.71123,8.42147 -0.0745,14.45091 -3.91639,13.2226 -20.64732,22.19677 -33.53124,17.98557 z"
       id="path2121" />
    <path
       style="fill:#ff0b00;fill-opacity:1;stroke-width:1.63935"
       d="m 189.14027,239.34071 c -15.55142,-4.98074 -26.29894,-17.25584 -29.01506,-33.13904 -4.48909,-26.25112 19.81253,-50.92598 45.89233,-46.59716 13.64307,2.26452 25.44079,10.99144 31.02847,22.95209 7.47195,15.99403 4.86387,32.36693 -7.24675,45.49326 -5.69832,6.17623 -11.76231,9.70962 -20.0028,11.65529 -7.82636,1.84788 -14.09394,1.7373 -20.65619,-0.36444 z m 26.16392,-8.05591 c 7.37509,-3.69581 13.26093,-9.54498 16.98936,-16.88352 2.06797,-4.07033 2.32795,-5.71939 2.27323,-14.41949 -0.0526,-8.35862 -0.3954,-10.52112 -2.29896,-14.50143 -2.86295,-5.98633 -10.39203,-13.56681 -16.86452,-16.97962 -4.63094,-2.4418 -5.88859,-2.66747 -14.86599,-2.66747 -12.05128,0 -16.34178,1.7684 -24.83293,10.23527 -7.18088,7.16036 -9.80883,13.51568 -9.8614,23.84837 -0.0463,9.11401 2.51521,16.12673 8.20696,22.46797 8.10895,9.03426 14.97796,12.12566 27.06239,12.17947 6.84782,0.0306 8.21877,-0.28631 14.19186,-3.27955 z"
       id="path2160" />
    <path
       style="fill:#ff0b00;fill-opacity:1;stroke-width:1.47132"
       d="m 190.51955,236.96891 c -13.58297,-4.5935 -22.97008,-15.91423 -25.34242,-30.56256 -3.92086,-24.21017 17.30472,-46.96662 40.08341,-42.97435 11.91617,2.08847 22.22056,10.13689 27.10097,21.16763 6.52617,14.75053 4.24821,29.85048 -6.32948,41.95627 -4.97704,5.69605 -10.27346,8.95471 -17.47089,10.74912 -6.83572,1.70421 -12.30997,1.60223 -18.04159,-0.33611 z m 22.85216,-7.42958 c 6.44157,-3.40847 11.5824,-8.80289 14.8389,-15.57086 1.80621,-3.75388 2.03328,-5.27474 1.98549,-13.29841 -0.046,-7.70877 -0.34535,-9.70314 -2.00796,-13.37399 -2.50057,-5.52091 -9.07664,-12.51203 -14.72987,-15.6595 -4.04476,-2.25195 -5.14322,-2.46008 -12.98428,-2.46008 -10.52586,0 -14.2733,1.63091 -21.68964,9.43951 -6.27195,6.60366 -8.56726,12.46487 -8.61318,21.99422 -0.0405,8.40541 2.19684,14.8729 7.16813,20.72114 7.08255,8.33186 13.08211,11.18292 23.63693,11.23254 5.98102,0.0282 7.17846,-0.26405 12.39548,-3.02457 z"
       id="path2160-3" />
  </g>
</svg>
