<?xml version="1.0" encoding="UTF-8" standalone="no"?>
<svg
   version="1.1"
   id="svg885"
   width="256"
   height="256"
   viewBox="0 0 256 256"
   sodipodi:docname="mitm6.svg"
   inkscape:version="1.2.2 (b0a8486541, 2022-12-01)"
   xmlns:inkscape="http://www.inkscape.org/namespaces/inkscape"
   xmlns:sodipodi="http://sodipodi.sourceforge.net/DTD/sodipodi-0.dtd"
   xmlns="http://www.w3.org/2000/svg"
   xmlns:svg="http://www.w3.org/2000/svg"
   xmlns:rdf="http://www.w3.org/1999/02/22-rdf-syntax-ns#"
   xmlns:cc="http://creativecommons.org/ns#"
   xmlns:dc="http://purl.org/dc/elements/1.1/">
  <metadata
     id="metadata891">
    <rdf:RDF>
      <cc:Work
         rdf:about="">
        <dc:format>image/svg+xml</dc:format>
        <dc:type
           rdf:resource="http://purl.org/dc/dcmitype/StillImage" />
      </cc:Work>
    </rdf:RDF>
  </metadata>
  <defs
     id="defs889" />
  <sodipodi:namedview
     pagecolor="#ffffff"
     bordercolor="#666666"
     borderopacity="1"
     objecttolerance="10"
     gridtolerance="10"
     guidetolerance="10"
     inkscape:pageopacity="0"
     inkscape:pageshadow="2"
     inkscape:window-width="1366"
     inkscape:window-height="705"
     id="namedview887"
     showgrid="false"
     inkscape:zoom="1.3865922"
     inkscape:cx="54.810636"
     inkscape:cy="124.76632"
     inkscape:window-x="0"
     inkscape:window-y="26"
     inkscape:window-maximized="1"
     inkscape:current-layer="g893"
     inkscape:pagecheckerboard="0"
     inkscape:showpageshadow="0"
     inkscape:deskcolor="#d1d1d1" />
  <g
     inkscape:groupmode="layer"
     inkscape:label="Image"
     id="g893">
    <path
       style="fill:#00ff05;fill-opacity:1;stroke:none;stroke-width:1.26476;stroke-opacity:1"
       d="M 58.839527,55.817162 C 55.15913,54.698461 47.868766,46.969109 46.326216,42.550362 43.436688,34.273102 45.502835,25.752094 51.909115,19.525903 62.381171,9.3482302 79.102484,12.500442 85.980618,25.948879 c 5.057855,9.889348 1.082861,22.379324 -9.003537,28.290347 -2.789636,1.634835 -4.29396,1.97299 -9.495254,2.134421 -3.399252,0.105501 -7.288286,-0.144917 -8.6423,-0.556485 z"
       id="path3774" />
    <path
       style="fill:#000000;fill-opacity:1;stroke-width:1.26476"
       d="M 105.65471,250.8922 C 65.032459,247.33285 42.196488,242.37923 23.078162,232.97957 10.697619,226.89259 3.9665592,219.92817 3.9665592,213.20537 c 0,-4.58022 2.9133987,-9.625 7.7514308,-13.4222 3.699966,-2.90398 11.563647,-7.58535 12.741731,-7.58535 0.252155,0 -0.03668,0.95749 -0.641846,2.12776 -2.055567,3.97503 -0.95952,7.48587 3.581823,11.47322 10.066273,8.83831 40.596015,16.25024 75.009652,18.21066 17.63057,1.00434 53.23766,0.38973 66.34971,-1.14527 26.43826,-3.09506 46.5918,-8.37926 56.58044,-14.83523 6.56418,-4.24263 9.06766,-9.03343 6.99346,-13.38307 -0.64207,-1.34644 -0.97468,-2.44807 -0.73913,-2.44807 1.54151,0 9.59608,5.15789 13.327,8.53418 12.44887,11.26558 8.39495,22.16676 -11.97563,32.20302 -16.19725,7.98014 -38.29484,13.43409 -67.4315,16.6429 -9.90403,1.09073 -51.8895,2.01258 -59.85899,1.31428 z"
       id="path985" />
    <path
       style="fill:#0020ff;fill-opacity:1;stroke:none;stroke-width:1.26476;stroke-opacity:1"
       d="M 105.65471,250.8922 C 65.056618,247.33496 42.240989,242.38827 23.078162,232.98865 10.565416,226.85098 3.9665592,219.98975 3.9665592,213.11716 c 0,-4.00306 2.8892923,-9.42302 6.6499668,-12.47452 3.923466,-3.18359 10.519822,-7.36622 12.694158,-8.04912 1.655297,-0.51989 1.66163,-0.50037 0.540895,1.66689 -1.409627,2.72592 -1.433198,4.64241 -0.08907,7.24167 6.980844,13.49946 50.284421,23.13878 103.888571,23.12545 34.94528,-0.009 62.04397,-3.32875 82.95706,-10.16368 10.36806,-3.38855 17.07213,-7.10037 19.94661,-11.0438 2.77386,-3.80538 3.18358,-5.82704 1.7782,-8.77416 -0.64207,-1.34644 -0.97468,-2.44807 -0.73913,-2.44807 1.54151,0 9.59608,5.15789 13.327,8.53418 12.44887,11.26558 8.39495,22.16676 -11.97563,32.20302 -16.26507,8.01355 -38.21199,13.43082 -67.4315,16.64445 -9.90304,1.08916 -51.89943,2.01016 -59.85899,1.31273 z"
       id="path1696" />
    <path
       style="fill:#00ff05;fill-opacity:1;stroke:none;stroke-width:1.26476;stroke-opacity:1"
       d="m 43.632151,171.03554 v -33.42257 l -3.437309,-2.89838 c -1.890519,-1.59411 -4.403106,-4.64688 -5.583526,-6.78392 l -2.146218,-3.88555 0.212236,-23.69987 0.212237,-23.699875 2.811464,-3.723757 c 2.929071,-3.879527 5.116949,-5.766153 9.373501,-8.082849 2.276079,-1.238793 4.166285,-1.373823 19.231361,-1.373823 9.188953,0 16.958044,0.250658 17.264646,0.557018 0.306602,0.30636 -0.220877,2.25358 -1.172176,4.327156 -1.696806,3.698582 -1.734482,4.228682 -1.9851,27.930089 -0.344918,32.619551 0.171713,35.883071 7.14193,45.115051 l 2.790893,3.69652 v 29.68366 29.68365 h -7.211925 c -3.96656,0 -7.228853,-0.0811 -7.24954,-0.18029 -0.02069,-0.0992 -1.439138,-9.19832 -3.152114,-20.22034 -1.712975,-11.02202 -3.318732,-20.24427 -3.568349,-20.49389 -0.249617,-0.24962 -0.64127,-0.26643 -0.87034,-0.0374 -0.4717,0.4717 -2.946164,14.47587 -5.352844,30.29429 l -1.618446,10.63759 h -7.845191 -7.84519 z"
       id="path2512" />
    <path
       style="fill:#00ff05;fill-opacity:1;stroke:none;stroke-width:1.26476;stroke-opacity:1"
       d="m 167.68671,174.78066 0.009,-29.82095 3.53768,-5.28321 c 5.36091,-8.00601 5.46146,-8.74857 5.43709,-40.151925 -0.0206,-26.544007 -0.0712,-27.52891 -1.60896,-31.337799 -1.053,-2.608154 -1.33057,-4.091384 -0.82421,-4.40433 2.50929,-1.550825 28.78504,-1.033821 34.3928,0.676716 5.76062,1.75716 9.9862,5.681753 12.8433,11.928458 l 1.95225,4.268364 -0.0279,20.703646 -0.0279,20.70364 -2.00089,4.45858 c -1.82409,4.0646 -7.26568,10.14414 -9.07969,10.14414 -0.34081,0 -0.61966,15.28364 -0.61966,33.96364 v 33.96362 l -7.17734,-0.24787 c -3.94754,-0.13633 -7.49403,-0.57242 -7.88109,-0.96907 -0.38706,-0.39666 -2.03484,-9.32142 -3.66173,-19.8328 -3.28875,-21.24858 -3.52566,-22.37691 -4.37813,-20.85176 -0.31325,0.56043 -1.91851,9.78145 -3.56726,20.49116 -1.64874,10.70971 -3.31687,19.79674 -3.70695,20.1934 -0.39009,0.39665 -3.61422,0.83461 -7.16475,0.97325 l -6.4555,0.25205 z"
       id="path3735" />
    <path
       style="fill:#00ff05;fill-opacity:1;stroke:none;stroke-width:1.26476;stroke-opacity:1"
       d="m 181.19817,55.626589 c -8.32576,-3.100196 -13.5209,-10.880999 -13.5209,-20.250354 0,-8.613694 3.97892,-15.289165 11.64336,-19.534193 3.33805,-1.848807 4.59645,-2.135686 9.27123,-2.113564 6.14728,0.02909 10.04046,1.541699 15.08779,5.86203 4.47846,3.833394 6.02757,7.400354 6.39947,14.735314 0.359,7.080432 -0.77424,10.627491 -4.89465,15.320374 -4.19765,4.780865 -8.04477,6.503621 -15.09991,6.761805 -4.04019,0.147852 -7.11751,-0.122747 -8.88639,-0.781412 z"
       id="path3813" />
    <path
       style="fill:#ff0400;fill-opacity:1;stroke:none;stroke-width:1.26476;stroke-opacity:1"
       d="m 103.49113,176.34182 v -36.0494 l -2.85953,-1.89235 c -3.196886,-2.1156 -5.475173,-4.85683 -8.034595,-9.6672 -1.724034,-3.24027 -1.726741,-3.2838 -1.726741,-27.76591 V 76.446413 l 1.889392,-4.02893 c 2.188281,-4.666281 5.877357,-8.615944 10.209734,-10.93093 2.92368,-1.562254 3.8694,-1.636495 23.56589,-1.849981 23.68801,-0.25675 24.56619,-0.0915 30.78904,5.793824 6.27184,5.931642 6.78394,7.900072 7.24759,27.858524 0.47072,20.26266 -0.43566,33.23927 -2.62083,37.52255 -0.81202,1.59171 -3.24534,4.29034 -5.40738,5.99695 l -3.93097,3.10294 -0.0402,36.26282 -0.0403,36.26281 -8.45776,-0.20318 -8.45777,-0.20319 -1.26634,-9.01491 c -1.63907,-11.66823 -4.86043,-31.7005 -5.38269,-33.47263 -0.32467,-1.1017 -0.52153,-1.17414 -0.97734,-0.35965 -0.4656,0.83198 -3.07405,16.7631 -6.30699,38.52003 l -0.53582,3.60596 -3.23895,0.48744 c -1.78142,0.26809 -5.75411,0.5115 -8.82819,0.5409 l -5.58925,0.0534 z"
       id="path3889" />
    <path
       style="fill:#ff0400;fill-opacity:1;stroke:none;stroke-width:1.26476;stroke-opacity:1"
       d="M 121.72724,52.004903 C 110.88117,48.459929 104.66782,40.14385 104.66782,29.172227 c 0,-4.58405 0.35129,-6.19886 2.1977,-10.102289 2.69008,-5.686987 6.53208,-9.6486455 11.77066,-12.1372576 5.56794,-2.6450766 14.5547,-2.7073052 19.7772,-0.1369468 11.95862,5.8856824 17.04501,21.1378004 10.99185,32.9603514 -2.34324,4.57663 -7.14106,9.175063 -11.64583,11.16185 -4.43538,1.956182 -11.83732,2.458028 -16.03216,1.086968 z"
       id="path5001" />
  </g>
</svg>
