<?xml version="1.0" encoding="UTF-8" standalone="no"?>
<!-- Created with Inkscape (http://www.inkscape.org/) -->

<svg
   version="1.1"
   id="svg834"
   width="512"
   height="512"
   viewBox="0 0 512 512"
   sodipodi:docname="modbus.svg"
   inkscape:version="1.2.2 (b0a8486541, 2022-12-01)"
   xmlns:inkscape="http://www.inkscape.org/namespaces/inkscape"
   xmlns:sodipodi="http://sodipodi.sourceforge.net/DTD/sodipodi-0.dtd"
   xmlns="http://www.w3.org/2000/svg"
   xmlns:svg="http://www.w3.org/2000/svg"
   xmlns:rdf="http://www.w3.org/1999/02/22-rdf-syntax-ns#"
   xmlns:cc="http://creativecommons.org/ns#"
   xmlns:dc="http://purl.org/dc/elements/1.1/">
  <sodipodi:namedview
     id="namedview858"
     pagecolor="#505050"
     bordercolor="#eeeeee"
     borderopacity="1"
     inkscape:showpageshadow="0"
     inkscape:pageopacity="0"
     inkscape:pagecheckerboard="0"
     inkscape:deskcolor="#505050"
     showgrid="false"
     inkscape:zoom="0.88671875"
     inkscape:cx="309.56828"
     inkscape:cy="246.97797"
     inkscape:window-width="1366"
     inkscape:window-height="705"
     inkscape:window-x="0"
     inkscape:window-y="26"
     inkscape:window-maximized="1"
     inkscape:current-layer="svg834" />
  <metadata
     id="metadata840">
    <rdf:RDF>
      <cc:Work
         rdf:about="">
        <dc:format>image/svg+xml</dc:format>
        <dc:type
           rdf:resource="http://purl.org/dc/dcmitype/StillImage" />
      </cc:Work>
    </rdf:RDF>
  </metadata>
  <defs
     id="defs838" />
  <g
     id="g1236">
    <path
       id="rect1070-3"
       style="fill:#ffffff;stroke-width:10.0147;paint-order:stroke fill markers"
       d="M 420.46067,6.0078591 C 309.5743,6.008631 198.68775,6.0065928 87.801493,6.0374132 67.417951,6.4113527 47.272868,14.58194 32.445636,28.586585 18.751531,41.405947 9.5141759,58.940853 6.9173523,77.537 6.0354025,83.565355 5.9284158,89.670771 6.0327496,95.752234 c 7.985e-4,109.483206 -0.0013,218.966606 0.029646,328.449696 0.3809187,20.52655 8.6588594,40.81442 22.8454354,55.66891 13.080916,13.8293 30.996439,23.04654 49.908724,25.38623 5.809991,0.76174 11.680797,0.79153 17.530231,0.71399 109.318184,-1.9e-4 218.636564,9.3e-4 327.954604,-0.0336 20.52922,-0.39798 40.80577,-8.70963 55.6461,-22.91343 13.59518,-12.89939 22.72321,-30.46973 25.21007,-49.06539 0.8647,-6.15837 0.89318,-12.39083 0.81305,-18.59726 -1.2e-4,-109.22606 8e-4,-218.45233 -0.0335,-327.678267 C 505.54192,67.247866 497.30404,47.063915 483.2233,32.239778 470.38583,18.618124 452.8755,9.4340572 434.31391,6.8739708 429.72753,6.2276245 425.09166,5.9481694 420.46067,6.0078591 Z" />
    <rect
       style="fill:#000000;stroke-width:10.0147;paint-order:stroke fill markers"
       id="rect1070"
       width="480.7095"
       height="480.73386"
       x="15.646926"
       y="15.622537"
       ry="74.071671" />
    <g
       id="g1212"
       transform="matrix(1.0752642,0,0,1.258018,-19.569785,-61.86526)">
      <path
         id="path1126"
         style="fill:#007eff;fill-opacity:1;stroke-width:2.13249"
         d="m 242.58201,88.860128 c 0,12.449302 0,24.898612 0,37.347922 -43.01172,0 -86.02344,0 -129.03515,0 0,27.73779 0,55.47559 0,83.21338 9.13265,0 18.26531,0 27.39796,0 0,-18.22035 0,-36.44072 0,-54.66108 33.87907,0 67.75812,0 101.63719,0 0,18.22036 0,36.44073 0,54.66108 9.13266,0 18.26531,0 27.39798,0 0,-18.22035 -10e-6,-36.44072 0,-54.66108 33.87906,0 67.75812,0 101.63718,0 0,18.22036 0,36.44073 0,54.66108 9.13354,0 18.2671,0 27.40064,0 0,-27.73779 0,-55.47559 0,-83.21338 -43.01261,0 -86.02523,0 -129.03782,0 0,-13.36185 -10e-6,-26.723685 0,-40.085521 -9.13267,0 -18.26532,0 -27.39798,0 0,0.912532 0,1.825066 0,2.737599 z" />
      <path
         id="path1535"
         style="fill:#36ff3e;fill-opacity:1;stroke-width:2.13249"
         d="m 86.765121,230.97736 c 0,17.51368 0,35.02736 0,52.54105 26.987159,0 53.974299,0 80.961449,0 0,-18.42621 0,-36.85243 0,-55.27865 -26.98715,0 -53.97429,0 -80.961449,0 0,0.91254 0,1.82506 0,2.7376 z" />
      <path
         id="path5940"
         style="fill:#36ff3e;fill-opacity:1;stroke-width:2.13249"
         d="m 214.5839,230.97736 c 0,17.51368 0,35.02736 0,52.54105 27.79807,0 55.59614,0 83.39419,0 0,-18.42621 0,-36.85243 0,-55.27865 -27.79805,0 -55.59612,0 -83.39419,0 0,0.91254 0,1.82506 0,2.7376 z" />
      <path
         id="path5979"
         style="fill:#36ff3e;fill-opacity:1;stroke-width:2.13249"
         d="m 344.83542,230.97736 c 0,17.51368 0,35.02736 0,52.54105 26.98715,0 53.97431,0 80.96146,0 0,-18.42621 0,-36.85243 0,-55.27865 -26.98715,0 -53.97431,0 -80.96146,0 0,0.91254 0,1.82506 0,2.7376 z" />
    </g>
    <g
       id="g1220"
       transform="matrix(1.0343387,0,0,1.157233,-10.264933,-72.877848)">
      <path
         id="path6018"
         style="fill:#ff2113;fill-opacity:1;stroke-width:2.13249"
         d="m 79.761571,353.79773 c -2.079691,0.20632 -3.089784,2.40769 -3.25334,4.26519 -0.671867,5.63714 -0.53255,11.3331 -0.643595,17.00039 -0.103981,21.71578 -0.03471,43.43195 -0.055,65.14792 5.480839,0 10.961693,0 16.442533,0 0.05322,-15.903 -0.13704,-31.80833 0.170416,-47.70942 0.08725,-0.53662 -0.137823,-2.65643 0.329102,-1.26749 4.399499,9.72503 8.077673,19.75924 12.928043,29.28579 1.72288,3.16363 3.61655,6.72307 7.13227,8.16996 2.59771,0.94601 5.97407,0.95475 7.97681,-1.21778 2.34355,-2.60409 3.60039,-5.95315 5.10569,-9.06634 3.96474,-8.87113 7.69772,-17.84181 11.53511,-26.76839 0.17561,16.19125 0.35772,32.38244 0.53585,48.57367 5.45673,0 10.91345,0 16.37018,0 -0.0345,-22.86187 0.0823,-45.7244 -0.0912,-68.58576 -0.12785,-4.75249 0.011,-9.5456 -0.72849,-14.25453 -0.23377,-1.81172 -1.60838,-3.68704 -3.59028,-3.60924 -1.37212,0.19311 -2.70414,0.64001 -4.13406,0.66873 -3.36122,0.25441 -6.73615,0.0905 -10.10346,0.13725 -6.56339,15.65545 -12.86722,31.42193 -19.73994,46.94633 -0.34478,0.38593 -0.6899,2.37108 -1.03439,1.552 -5.91103,-13.19736 -11.24007,-26.57011 -16.807448,-39.93164 -1.18074,-2.85553 -2.359273,-5.71197 -3.541947,-8.56669 -4.340074,-0.10649 -8.745909,0.32274 -13.029383,-0.54429 -0.533167,-0.17492 -1.173346,-0.3403 -1.773456,-0.22566 z" />
      <path
         id="path13790"
         style="fill:#ff2113;fill-opacity:1;stroke-width:2.13249"
         d="m 187.81822,380.32356 c -5.31477,0.24506 -11.05881,0.75765 -15.39763,4.16255 -2.70681,2.17536 -4.69359,5.18868 -5.93183,8.40528 -1.4424,5.00929 -1.64568,10.27297 -1.845,15.45133 -0.0723,5.76076 -0.0473,11.5982 1.20756,17.24822 1.76963,6.84193 7.52917,12.3219 14.22121,14.38769 5.23393,1.37103 10.75945,1.15912 16.07517,0.40682 4.57969,-0.64088 9.28796,-2.24739 12.42807,-5.79831 3.45351,-3.91454 4.17349,-9.32619 4.67654,-14.31995 0.46895,-5.9626 0.64697,-11.95198 0.57307,-17.93192 -0.009,-3.68783 -0.79259,-7.38841 -2.59387,-10.63048 -1.99837,-4.16522 -5.12064,-8.06378 -9.55354,-9.7638 -4.37775,-1.75315 -9.21963,-1.75341 -13.85975,-1.61743 z m 3.13205,15.24394 c 3.01162,0.14245 5.56068,2.61636 6.00316,5.5535 0.88733,5.31221 0.63697,10.75686 0.0363,16.08732 -0.32315,1.94273 -0.45984,4.04188 -1.41242,5.7833 -3.04945,1.57237 -6.58799,1.94952 -9.97769,1.90022 -1.38591,-0.0913 -2.13668,-1.51652 -2.82105,-2.54452 -1.86737,-4.03263 -2.44693,-8.53808 -2.67036,-12.93637 -0.14675,-3.65546 0.19036,-7.7029 2.83111,-10.50433 2.00061,-2.20741 5.00548,-3.57959 8.01094,-3.33912 z" />
      <path
         id="path13829"
         style="fill:#ff2113;fill-opacity:1;stroke-width:2.13249"
         d="m 255.97289,356.08885 c 0,7.96239 0,15.92479 0,23.88717 -6.7065,0.0239 -13.67344,-0.72522 -20.10775,1.61743 -4.36773,1.6368 -8.00258,5.05395 -10.10212,9.18515 -2.48512,5.56762 -3.2475,11.72817 -3.54939,17.76359 -0.18265,6.35791 0.35001,12.82878 2.34582,18.89916 1.52853,4.66151 4.72819,8.94344 9.31501,10.9462 4.552,2.17331 9.70074,2.04592 14.6248,2.13428 7.9757,0.0607 15.94457,-0.35656 23.91616,-0.54854 0,-28.87401 0,-57.74801 0,-86.62204 -5.48085,0 -10.96169,0 -16.44253,0 0,0.91254 0,1.82508 0,2.7376 z m -6.82672,39.33161 c 2.35091,0.18671 4.67263,0.61587 6.99819,0.99185 -0.16167,5.35919 -0.28761,10.70759 -0.47959,16.01923 -0.0751,1.21811 -0.13018,2.82754 -0.24258,4.19605 -0.097,1.46998 -0.23498,3.05517 -0.42605,4.33665 -0.18609,1.04807 -0.26235,2.18636 -0.77012,3.12884 -1.88227,1.06175 -4.18048,0.86858 -6.27213,0.90896 -2.9949,-0.0562 -6.25898,-1.21919 -7.70461,-4.02584 -2.04268,-3.8534 -1.94822,-8.38789 -1.71485,-12.62512 0.0588,-0.87061 0.13691,-1.71779 0.25399,-2.70266 0.25056,-2.54746 0.69575,-5.34744 2.77265,-7.09968 1.68195,-1.6542 3.73096,-3.33383 6.24653,-3.16502 0.44688,-0.0152 0.89237,0.0182 1.33857,0.0367 z" />
      <path
         id="path13868"
         style="fill:#ff2113;fill-opacity:1;stroke-width:2.13249"
         d="m 281.53556,356.08885 c 0,28.23596 0,56.4719 0,84.70786 3.5616,-0.44445 7.08975,-1.23271 10.67836,-1.40974 1.92136,-0.0488 3.89209,0.13195 5.59241,0.88362 6.5923,2.05242 13.85154,1.02733 20.08649,-1.71849 4.61835,-2.10125 9.0767,-5.42617 11.03179,-10.25139 1.47633,-4.21677 1.32858,-8.76377 1.56821,-13.16652 0.1055,-5.89802 0.48115,-11.82665 -0.16015,-17.70597 -0.47737,-4.18934 -2.60552,-8.03224 -5.31295,-11.19902 -3.03892,-3.48341 -7.67733,-4.94941 -12.14216,-5.45608 -4.94222,-0.60432 -9.93236,-0.58292 -14.89947,-0.83185 0,-8.86334 0,-17.72668 0,-26.59002 -5.48083,0 -10.96167,0 -16.44253,0 0,0.91254 0,1.82508 0,2.7376 z m 23.8694,39.59628 c 2.60132,-0.0498 5.72141,0.45753 7.08828,2.9598 1.8638,3.47029 1.83476,7.55133 1.90942,11.38906 -0.0966,4.26452 -0.16816,8.74211 -2.0638,12.65821 -0.55855,1.25075 -1.78614,2.03547 -3.1517,2.06571 -3.36617,0.36397 -6.85071,0.31887 -10.1344,-0.56088 -0.74935,-0.19303 -0.52488,-1.26383 -0.72905,-1.84169 -0.16337,-1.4657 -0.22093,-2.86049 -0.26213,-4.21975 -0.14572,-7.22576 -0.0598,-14.45375 -0.0835,-21.6805 2.47012,-0.30166 4.93219,-0.74159 7.42686,-0.76996 z" />
      <path
         id="path13907"
         style="fill:#ff2113;fill-opacity:1;stroke-width:2.13249"
         d="m 339.2492,382.86868 c 0.33817,14.02586 0.38838,28.06698 1.28871,42.07188 0.20393,4.78631 2.44031,9.52284 6.35517,12.38068 3.90791,2.89116 9.02208,4.12186 13.81424,3.26994 8.69923,-0.55814 17.42454,-0.30661 26.136,-0.38263 0,-20.04454 0,-40.08908 0,-60.13361 -4.97446,0 -9.94892,0 -14.92339,0 -0.20454,9.42362 -0.38195,19.00585 -0.61088,28.33041 -0.0771,1.96691 -0.12058,3.893 -0.22863,5.74875 -0.15648,2.92309 -0.26773,5.6475 -0.78582,8.55226 -0.11605,0.67916 -0.21198,1.512 -1.08106,1.53755 -3.45004,0.91971 -7.14719,1.10226 -10.6567,0.41685 -1.25609,-0.10115 -1.4121,-1.60245 -1.75441,-2.53852 -1.32674,-5.54346 -1.34333,-11.29133 -1.52401,-16.95866 -0.10809,-8.36232 -0.0534,-16.72583 -0.0904,-25.08864 -5.33169,0 -10.66339,0 -15.9951,0 0.0187,0.93125 0.0376,1.86249 0.0562,2.79374 z" />
      <path
         id="path13946"
         style="fill:#ff2113;fill-opacity:1;stroke-width:2.13249"
         d="m 417.35994,379.88779 c -4.70615,0.052 -9.55601,0.9631 -13.4855,3.68648 -5.89443,3.83828 -9.51156,11.07028 -8.51453,18.09226 0.61752,4.72677 3.11819,9.37561 7.34722,11.79962 4.55511,2.75242 9.95254,3.25737 15.03861,4.40981 1.54425,0.39998 3.1565,0.71565 4.58419,1.42632 0.88633,1.2492 -0.16695,2.83778 -0.99131,3.83637 -0.84939,1.07191 -2.06437,1.90236 -3.49107,1.78854 -4.76605,-0.0447 -9.52305,-0.58151 -14.23612,-1.26868 -1.81394,-0.15202 -3.69138,-1.38999 -5.45633,-0.36746 -2.0681,1.05092 -2.19611,3.65903 -2.1883,5.69798 -0.11372,3.7522 1.07943,7.92431 4.40706,10.0491 3.25696,2.1158 7.32726,1.99467 11.06319,2.00898 5.45576,-0.17947 10.98343,-0.69522 16.19444,-2.40089 4.79228,-1.82176 8.29538,-6.14305 10.06745,-10.8429 2.38566,-6.22479 1.66233,-13.77506 -2.66749,-18.99164 -2.94969,-3.46651 -7.5993,-4.55268 -11.79623,-5.73918 -2.62607,-0.7034 -5.30048,-1.29191 -7.81411,-1.99602 -0.86811,-0.27692 -1.82864,-0.46861 -2.56232,-1.01225 -0.1765,-1.12802 -0.62288,-2.55518 0.17147,-3.53162 1.83876,-1.07965 4.11428,-0.77455 6.15747,-0.71758 4.65422,0.32671 9.25919,1.59814 13.95563,1.20415 2.47173,-0.36153 3.57488,-3.10592 3.56557,-5.33706 0.0427,-2.91567 -0.68924,-6.11829 -2.88236,-8.18252 -2.905,-2.26757 -6.70967,-2.8416 -10.26403,-3.3287 -2.05885,-0.23329 -4.1311,-0.32266 -6.2026,-0.28311 z" />
    </g>
  </g>
</svg>
