<?xml version="1.0" encoding="UTF-8" standalone="no"?>
<!-- Created with Inkscape (http://www.inkscape.org/) -->

<svg
   version="1.1"
   id="svg228"
   width="512"
   height="512"
   viewBox="0 0 511.99999 511.99999"
   sodipodi:docname="monsoon.svg"
   inkscape:version="1.2.2 (b0a8486541, 2022-12-01)"
   inkscape:export-filename="../GIT Icons/monsoon.png"
   inkscape:export-xdpi="96"
   inkscape:export-ydpi="96"
   xmlns:inkscape="http://www.inkscape.org/namespaces/inkscape"
   xmlns:sodipodi="http://sodipodi.sourceforge.net/DTD/sodipodi-0.dtd"
   xmlns="http://www.w3.org/2000/svg"
   xmlns:svg="http://www.w3.org/2000/svg">
  <defs
     id="defs232" />
  <sodipodi:namedview
     id="namedview230"
     pagecolor="#505050"
     bordercolor="#eeeeee"
     borderopacity="1"
     inkscape:showpageshadow="0"
     inkscape:pageopacity="0"
     inkscape:pagecheckerboard="0"
     inkscape:deskcolor="#505050"
     showgrid="false"
     inkscape:zoom="0.66943357"
     inkscape:cx="363.74035"
     inkscape:cy="259.92123"
     inkscape:window-width="1366"
     inkscape:window-height="705"
     inkscape:window-x="0"
     inkscape:window-y="26"
     inkscape:window-maximized="1"
     inkscape:current-layer="g234" />
  <g
     inkscape:groupmode="layer"
     inkscape:label="Image"
     id="g234">
    <g
       id="g1509"
       transform="matrix(0.97664241,0,0,0.97663686,5.976222,5.9795145)">
      <path
         id="path9861"
         style="fill:#ffffff;fill-opacity:0.984314;stroke-width:12.7709"
         d="M 252.63281,0.04296875 C 214.3079,0.52509538 176.12377,9.7714896 141.83181,26.89356 110.02818,42.725894 81.587069,65.269463 58.930046,92.635066 36.312747,119.90049 19.449431,151.91351 9.7797249,185.99451 0.14550303,219.84613 -2.408293,255.69375 2.3654751,290.56619 7.14924,325.75617 19.361135,359.9146 37.989905,390.15197 c 17.766778,28.88798 41.336648,54.18752 68.918315,73.92474 28.33406,20.31444 60.85865,34.75659 94.94206,42.10445 35.15562,7.62226 71.92544,7.75431 107.11692,0.26896 32.44542,-6.85077 63.53822,-20.06643 90.94401,-38.7425 26.72564,-18.16105 49.9814,-41.41856 68.07128,-68.19724 19.02414,-28.08886 32.39831,-59.99162 39.03282,-93.26486 7.9703,-39.61581 6.31638,-81.11678 -4.72847,-119.98555 C 492.67032,152.19128 475.86935,120.17342 453.28856,92.909594 431.14354,66.076497 403.44769,43.854099 372.45216,28.052542 341.17642,12.036567 306.56145,2.5996452 271.48891,0.49274607 265.21199,0.11000159 258.92115,-0.03952895 252.63281,0.04296875 Z" />
      <path
         id="path570"
         style="fill:#aa4400;stroke-width:12.2854;paint-order:stroke fill markers"
         d="m 279.74805,331.89613 c -47.00418,0.005 -94.00839,0.0187 -141.01243,0.14441 -33.67452,0.0908 -67.349488,0.19441 -101.022677,0.52151 -4.496431,0.0837 -9.001259,0.0785 -13.490287,0.32594 -1.451302,0.28156 -2.825276,0.85608 -4.240234,1.27412 0.338594,2.4284 0.774253,4.87491 1.850518,7.09953 4.155553,10.10841 8.654433,20.08862 13.931254,29.66271 6.478777,11.85021 13.728032,23.28536 21.791378,34.11419 9.807181,13.06367 20.825555,25.2143 32.839123,36.26678 21.234375,19.50284 45.812235,35.36452 72.417555,46.41723 22.52992,9.38833 46.43023,15.42664 70.68015,18.03732 11.07195,0.95421 22.20721,0.77364 33.2988,0.29791 11.81509,-0.55558 23.65332,-1.54149 35.23973,-4.02525 31.09926,-6.34753 61.05019,-18.50157 87.61146,-35.96192 25.66371,-16.81519 48.11025,-38.45892 66.25588,-63.22543 6.10441,-8.30052 11.77603,-16.93331 16.75135,-25.96619 4.97128,-8.94608 9.61818,-18.07668 13.89105,-27.37948 1.92431,-4.17259 3.5387,-8.47759 5.00562,-12.83091 0.56094,-1.59098 1.12251,-3.18174 1.68418,-4.77247 -71.16081,-6.1e-4 -142.32162,-0.003 -213.48242,0 z" />
      <path
         style="fill:#008080;stroke-width:11.9893;paint-order:stroke fill markers"
         d="M 18.079855,330.07604 C 5.4690769,287.10004 4.1844277,243.8406 14.24424,200.91511 38.616342,96.918632 124.66225,20.006772 229.70159,8.3292349 332.98768,-3.153388 434.10615,53.735677 479.71051,148.98377 c 26.82996,56.0364 32.04743,120.15176 14.61411,179.58689 -1.77271,6.04371 -3.66557,10.26514 -4.20634,9.38098 -1.57739,-2.57911 -466.035673,-1.43024 -467.617651,1.15668 -0.770615,1.26015 -2.343715,-1.95391 -4.420774,-9.03228 z"
         id="path1127" />
      <path
         style="fill:#000000;stroke-width:1.71157"
         d="m 152.25436,443.3753 c -4.52394,-4.60043 -4.95837,-6.08398 -4.92772,-16.82841 0.0672,-23.56931 5.39368,-47.76452 14.6579,-66.58345 4.42233,-8.98328 4.38688,-9.09995 -1.8819,-6.19543 -4.41038,2.04347 -5.83547,4.90093 -2.44422,4.90093 1.13113,0 1.3845,1.20208 0.63663,3.02049 -0.68325,1.66125 -2.95321,7.8684 -5.04434,13.79364 l -3.80208,10.77315 -11.80414,-13.36214 c -6.49227,-7.3492 -12.30329,-14.73056 -12.91335,-16.40308 -2.10189,-5.76241 2.47096,-10.95888 18.01028,-20.46651 l 15.58406,-9.535 -0.0428,-9.80016 c -0.0236,-5.39009 0.32947,-9.80015 0.7844,-9.80015 0.45493,0 4.09575,3.26213 8.09073,7.24917 5.84449,5.83289 8.46994,7.24916 13.43828,7.24916 10.86318,0 18.16888,-13.52661 11.9653,-22.15394 -1.85787,-2.58373 -2.89756,-2.78825 -5.89143,-1.1589 -2.84461,1.54813 -3.426,3.04349 -2.6726,6.87411 0.72184,3.67022 0.21553,5.18721 -2.02277,6.06068 -4.35224,1.69833 -13.08007,-7.18592 -11.87118,-12.08393 1.32502,-5.36855 -4.91926,-12.74826 -10.78684,-12.74826 -3.54131,0 -6.42487,-2.07654 -11.67363,-8.40648 l -6.97061,-8.40644 6.61364,-3.03277 c 3.6375,-1.66801 7.90293,-2.52966 9.47873,-1.91474 5.25738,2.05157 14.42311,-1.03647 20.56761,-6.92942 5.4501,-5.227 7.08602,-5.82999 15.81737,-5.82999 13.00772,0 14.7936,-2.20212 11.05886,-13.63644 -1.54196,-4.72092 -5.81336,-13.3189 -9.49196,-19.10665 -6.86602,-10.80264 -8.22798,-16.78066 -4.65164,-20.41745 5.70971,-5.80623 11.98508,0.26842 23.35129,22.60438 8.20984,16.13332 9.96406,26.15825 6.04641,34.55363 -3.07563,6.59098 -11.10695,11.53647 -18.73485,11.53647 -3.96815,0 -4.45887,0.54 -3.52916,3.88348 3.72872,13.40965 6.04766,29.13646 7.07873,48.00765 l 1.17992,21.59563 -8.80107,10.22749 c -15.36767,17.85836 -23.15082,39.28212 -24.86879,68.45339 -1.28651,21.84485 -1.73353,23.42888 -7.46175,26.44112 -6.4849,3.41017 -6.29607,3.44811 -12.07136,-2.42483 z m 23.94642,-42.08675 c -0.0295,-1.71556 0.82912,-6.68424 1.90806,-11.04152 1.78759,-7.21917 2.16421,-7.64072 4.24325,-4.74938 3.3451,4.65203 2.80732,8.61688 -1.90807,14.06736 -3.43827,3.97424 -4.19922,4.28333 -4.24324,1.72354 z M 65.692752,342.7035 c -1.95953,-6.51098 -2.09249,-6.47246 22.34495,-6.47246 22.480498,0 23.612018,0.16542 23.612018,3.45198 0,3.28151 -1.13152,3.45199 -22.913548,3.45199 -12.60245,0 -22.97199,-0.19418 -23.04342,-0.43151 z m 154.584188,-2.96394 c 0,-3.14649 1.40013,-3.43124 19.09462,-3.88349 l 19.09463,-0.48802 0.52328,-8.34672 c 0.47111,-7.51464 0.2034,-8.24347 -2.6855,-7.31105 -1.97674,0.63798 -4.27572,-0.16328 -5.98758,-2.08683 -2.62293,-2.94726 -1.54491,-4.37446 19.21433,-25.43775 l 21.99316,-22.3153 8.50633,8.52005 c 7.38542,7.39732 8.50633,8.01686 8.50633,4.70146 0,-3.09224 0.96858,-3.81861 5.09189,-3.81861 5.0072,0 5.09191,0.14983 5.09191,9.00719 0,8.53122 0.46326,9.48423 8.76671,18.03422 7.6413,7.86822 8.4736,9.38619 6.48345,11.82472 -1.2558,1.53874 -3.67324,2.42805 -5.37211,1.97627 -2.67698,-0.71188 -3.08885,0.30778 -3.08885,7.64696 v 8.46838 h 12.72976 12.72975 v -8.46838 c 0,-7.33918 -0.41188,-8.35884 -3.08885,-7.64696 -1.69886,0.45178 -4.1263,-0.44979 -5.39429,-2.00344 -2.0367,-2.49554 0.2986,-5.47291 20.03373,-25.54166 l 22.3392,-22.71678 8.5146,8.52834 c 7.39146,7.40343 8.51456,8.02466 8.51456,4.70975 0,-2.92252 0.9958,-3.81861 4.2433,-3.81861 3.9348,0 4.2433,0.60017 4.2433,8.25742 0,7.71809 0.6073,8.86741 9.2989,17.59616 8.76562,8.80303 9.13872,9.51883 6.5045,12.47887 -1.7247,1.93794 -4.0231,2.74366 -6.0034,2.10453 -2.8889,-0.93242 -3.1566,-0.20359 -2.6855,7.31105 l 0.5233,8.34672 12.30542,0.5071 c 10.9121,0.44971 12.3054,0.88943 12.3054,3.88348 0,3.31681 -1.9614,3.37638 -111.17313,3.37638 -109.42468,0 -111.17315,-0.0534 -111.17315,-3.39545 z m 52.6163,-13.00147 v -9.49296 h 9.33515 9.33515 v 9.49296 9.49295 h 13.5784 13.5784 v -12.55392 -12.55395 l -13.5784,-13.72695 -13.5784,-13.72695 -13.5784,13.72695 -13.57839,13.72695 v 12.55395 c 0,12.24019 0.10604,12.55392 4.24324,12.55392 4.01181,0 4.24325,-0.5178 4.24325,-9.49295 z m 27.15681,-4.31497 c 0,-4.60266 0.56576,-5.17799 5.09189,-5.17799 4.52615,0 5.09191,0.57533 5.09191,5.17799 0,4.60264 -0.56576,5.17796 -5.09191,5.17796 -4.52613,0 -5.09189,-0.57532 -5.09189,-5.17796 z m 66.1947,4.31497 v -9.49296 h 8.3978 8.39779 l 0.51304,9.06147 0.51302,9.06145 14.0027,0.5013 14.0027,0.50129 v -12.62373 -12.62374 l -13.5795,-13.72814 -13.57961,-13.72814 -14.00156,14.16239 -14.00154,14.1624 0.33772,11.68817 c 0.18573,6.42851 0.37667,11.88238 0.42433,12.11969 0.0477,0.23732 1.99606,0.4315 4.32985,0.4315 4.01182,0 4.24326,-0.5178 4.24326,-9.49295 z m 25.45949,-4.31497 c 0,-4.76703 0.47148,-5.17799 5.94056,-5.17799 5.4691,0 5.9405,0.41096 5.9405,5.17799 0,4.767 -0.4714,5.17796 -5.9405,5.17796 -5.46908,0 -5.94056,-0.41096 -5.94056,-5.17796 z M 169.19026,313.6106 c -2.70833,-2.94827 -4.92423,-6.00922 -4.92423,-6.80209 0,-3.61248 3.28311,-2.81556 7.69567,1.86804 7.38793,7.84168 14.36924,6.01649 14.36924,-3.7567 0,-6.40975 3.02094,-7.88477 5.04747,-2.4645 5.21324,13.94366 -11.77901,22.48665 -22.18815,11.15525 z M 51.761752,309.02662 c -5.13226,-5.76692 -11.38746,-22.23433 -12.47871,-32.85129 -2.17977,-21.20744 7.11741,-48.40911 22.48715,-65.79298 5.95311,-6.73319 7.4495,-9.46654 5.99326,-10.9474 -3.22822,-3.28279 -2.18886,-5.17277 2.22513,-4.04619 3.10158,0.79158 6.83279,-0.68954 14.60387,-5.79713 15.908918,-10.45625 27.171328,-14.17857 45.913878,-15.17494 12.82297,-0.68168 18.26696,-0.2093 25.45951,2.20918 10.0945,3.39426 19.41006,8.87904 24.05334,14.16207 2.95963,3.36741 2.37694,4.03322 -27.63071,31.57198 -16.85975,15.47262 -30.44084,28.71604 -30.18021,29.42982 0.26066,0.7138 7.30836,8.93428 15.66156,18.26778 12.29065,13.73299 14.57294,17.09035 11.96505,17.60108 -2.11793,0.41476 -5.53843,-1.94964 -9.97849,-6.89758 -3.71577,-4.14077 -10.48521,-11.61206 -15.04322,-16.60282 l -8.28731,-9.07414 -27.473238,25.37544 c -15.11029,13.95651 -29.06266,26.78976 -31.00527,28.51833 -3.3949,3.02087 -3.63894,3.02277 -6.28559,0.0488 z m 70.607048,-3.7512 c -3.97621,-1.76241 -7.32448,-6.86294 -7.32448,-11.15765 0,-3.16328 9.2437,-14.21137 14.10302,-16.85596 2.95164,-1.60637 4.12641,-1.04135 8.08185,3.88696 4.21306,5.24931 4.37719,5.96238 1.82979,7.94978 -2.30961,1.80188 -0.1302,2.11428 12.4773,1.78846 l 15.27571,-0.39475 0.53194,5.61058 c 0.4525,4.77264 -0.17073,5.88226 -4.1729,7.42959 -6.44775,2.49288 -36.23922,3.76552 -40.80223,1.74299 z m 209.92995,-36.96664 c 0,-0.59453 4.29128,-8.89357 9.53617,-18.44234 5.24491,-9.54875 9.20421,-17.69899 8.79842,-18.11162 -0.40577,-0.41264 -3.18422,-0.0367 -6.17434,0.8353 -6.12382,1.78597 -6.03497,1.327 1.70296,-8.79692 6.03831,-7.9002 6.00442,-8.48982 -0.38078,-6.6276 l -5.18787,1.513 5.4835,-6.37997 c 14.70129,-17.10475 29.32334,-33.02797 29.84343,-32.49909 0.31904,0.32443 -2.50324,7.40872 -6.27172,15.74288 l -6.85178,15.15302 6.81629,-0.9297 c 7.58928,-1.03516 7.60956,-1.30239 -0.82234,10.82384 -8.96305,12.89011 -8.93504,12.71359 -1.80116,11.35265 l 6.32737,-1.20708 -11.59824,10.9882 c -24.02221,22.7587 -29.41991,27.63636 -29.41991,26.58543 z M 147.45391,257.5712 c -2.85531,-2.44319 -6.11551,-7.57849 -7.24491,-11.41178 l -2.05344,-6.96963 10.3403,-10.16311 c 11.41348,-11.21787 14.98805,-12.21355 23.9345,-6.66686 11.84938,7.34651 13.22586,23.42497 2.90399,33.92133 -4.88819,4.97082 -6.76949,5.73224 -14.16296,5.73224 -6.68323,0 -9.64807,-0.96011 -13.71748,-4.44219 z m 121.36364,-2.18608 c -0.5457,-0.89787 3.95483,-9.28836 10.00117,-18.64552 6.04633,-9.35714 10.9646,-16.23632 10.92952,-15.28702 -0.0351,0.94931 -3.65089,9.0851 -8.03508,18.07958 -7.61952,15.63194 -10.71625,19.43885 -12.89561,15.85296 z m 34.62708,-13.4087 c 0,-2.87103 22.14889,-40.86267 23.1997,-39.79411 0.50345,0.51197 -5.09999,13.53207 -15.90715,36.96169 -2.69926,5.85196 -7.29255,7.63598 -7.29255,2.83242 z m 88.25961,0.65934 c 0,-1.98302 23.60956,-42.75807 24.75776,-42.75807 0.7484,0 -3.5915,10.365 -12.105,28.91035 -4.6739,10.1814 -8.2935,15.96543 -9.99095,15.96543 -1.46399,0 -2.66181,-0.95298 -2.66181,-2.11771 z M 259.19728,208.21695 c 9.39981,-10.60214 17.09056,-19.82709 17.09056,-20.49989 0,-0.6728 -3.43703,-0.82933 -7.63785,-0.34782 -4.20081,0.48148 -7.63785,0.50214 -7.63785,0.0458 0,-0.45624 4.20082,-4.23828 9.33514,-8.4045 5.13435,-4.16623 9.33516,-8.11657 9.33516,-8.77853 0,-0.66195 -2.47181,-1.44695 -5.49291,-1.74441 -5.1853,-0.51056 -4.09161,-1.53156 19.53068,-18.23225 13.76299,-9.73029 25.41459,-17.69142 25.89243,-17.69142 0.47787,0 -4.49202,7.25271 -11.04418,16.11714 -6.55217,8.86441 -11.91302,16.63138 -11.91302,17.25991 0,0.62853 3.43704,1.14279 7.63785,1.14279 4.20082,0 7.58618,0.58252 7.52304,1.29449 -0.0631,0.71197 -5.92219,6.34302 -13.02015,12.51344 l -12.90536,11.21894 7.84106,0.863 7.84106,0.86299 -28.67432,16.82842 c -15.77085,9.25564 -29.15076,16.82842 -29.73309,16.82842 -0.58235,0 6.63195,-8.67446 16.03175,-19.27661 z m 179.07024,13.91348 c -1.0239,-1.6847 17.7354,-35.11213 18.9892,-33.83711 0.334,0.3396 -2.5063,8.07631 -6.3117,17.19268 -6.5613,15.71815 -10.2762,20.59555 -12.6775,16.64443 z M 216.88233,206.9974 c 0,-1.06796 2.29136,-1.94174 5.09191,-1.94174 6.06193,0 6.49854,-1.99979 1.27297,-5.83046 l -3.81892,-2.79951 4.15112,-3.02048 c 2.28311,-1.66126 5.72013,-4.35386 7.63785,-5.98355 3.42354,-2.90937 3.37652,-2.9641 -2.59526,-3.02048 -3.34511,-0.0316 -6.55846,-0.54193 -7.14082,-1.13413 -0.58233,-0.59218 0.48933,-4.1626 2.38149,-7.93422 1.89215,-3.77164 3.07609,-7.22787 2.63095,-7.68052 -0.44512,-0.45266 -3.13372,0.39931 -5.97466,1.89324 -7.71796,4.05858 -8.50531,3.51629 -9.06414,-6.24314 l -0.51302,-8.9594 -4.69167,7.23341 c -2.58041,3.97836 -5.25366,7.2285 -5.94054,7.2225 -0.6869,-0.006 -2.7365,-2.53027 -4.55467,-5.60947 -3.29997,-5.58875 -3.30691,-5.591 -3.96264,-1.28359 -0.36129,2.37324 -1.4346,5.09168 -2.38515,6.04098 -1.98034,1.97774 -0.13885,-12.92628 1.86817,-15.11995 0.66021,-0.72161 2.95496,1.86262 5.09946,5.74273 l 3.89909,7.05473 6.1512,-9.1947 6.15122,-9.1947 1.44765,10.74973 1.44765,10.74973 6.22162,-2.70801 c 3.42187,-1.4894 7.17633,-3.10892 8.34323,-3.59893 3.22508,-1.3543 2.56808,1.68329 -2.26673,10.47994 l -4.38837,7.98436 h 7.68279 c 4.22553,0 8.12406,0.72606 8.66342,1.61349 0.53933,0.88742 -1.8979,3.75719 -5.41608,6.37726 -3.51816,2.62007 -7.11721,5.384 -7.99791,6.14208 -0.94165,0.81057 0.41266,3.51594 3.28783,6.5677 4.50788,4.78476 4.61619,5.18935 1.38908,5.18935 -1.92499,0 -5.88681,0.48544 -8.80404,1.07874 -3.42604,0.69678 -5.30408,0.39123 -5.30408,-0.86299 z M 334.6548,170.57023 c -1.97148,-0.81004 -5.21757,-3.58399 -7.21352,-6.16433 -12.81118,-16.56211 10.65393,-36.56894 25.35562,-21.61871 5.45535,5.54755 6.51157,4.87752 2.19358,-1.3915 -3.13302,-4.54862 -13.42901,-9.52325 -16.15908,-7.80745 -2.46474,1.54903 -0.0621,-5.94533 3.47249,-10.83187 7.20411,-9.9594 24.76077,-13.9334 36.33057,-8.22352 l 5.43194,2.68075 -4.67426,-4.32981 c -2.57085,-2.3814 -7.33819,-4.83801 -10.59408,-5.45913 l -5.9198,-1.12934 2.95624,-5.10593 c 8.8731,-15.325546 30.6073,-22.491994 50.2837,-16.580145 9.323,2.80113 23.38372,17.099515 26.13822,26.580115 4.4453,15.29972 1.8559,30.17779 -7.6253,43.81254 -2.8809,4.14298 -2.879,4.21726 0.048,1.86359 4.9469,-3.97837 11.0691,-15.94766 13.1122,-25.63513 1.6866,-7.99724 2.3916,-9.02231 6.205,-9.02231 5.2523,0 16.7578,11.13838 18.4067,17.81927 1.97,7.98188 -0.7753,17.01205 -6.9815,22.96421 -9.5203,9.13061 -21.4481,9.65508 -31.132,1.36888 l -4.8582,-4.15699 -7.68302,4.36671 c -9.8346,5.58958 -21.7292,6.95586 -32.09841,3.687 -7.13752,-2.25007 -8.81143,-2.22199 -15.60377,0.26181 -6.17345,2.25748 -8.93975,2.42097 -14.66604,0.86669 -5.57547,-1.51333 -8.00146,-1.4147 -11.55301,0.46967 -5.06779,2.68886 -7.98269,2.84707 -13.17196,0.71493 z M 76.006422,168.46397 c 0,-1.91281 20.15227,-34.17396 21.34711,-34.17396 0.68899,0 -6.62654,16.80857 -12.06846,27.72921 -3.86779,7.76177 -9.27865,11.52002 -9.27865,6.44475 z m 62.800098,-19.58098 c 0,-2.36356 14.85912,-26.52425 19.05917,-30.98991 1.95589,-2.0796 -1.39148,6.22188 -8.87358,22.0064 -5.11467,10.79007 -10.18559,15.26254 -10.18559,8.98351 z m 109.08497,-25.71461 c -6.13645,-2.78807 -12.32286,-11.79714 -12.3325,-17.95939 -0.0152,-10.219673 9.70371,-20.985607 18.92583,-20.962992 3.45163,0.0091 4.01387,0.903959 4.22572,6.730176 0.13443,3.696232 1.0419,8.157827 2.01669,9.914686 1.40361,2.5297 1.76045,1.3292 1.71512,-5.770221 -0.17333,-27.129186 29.13394,-40.9815 49.61918,-23.452915 5.13113,4.390548 5.13248,4.396593 1.41314,6.324134 -2.04759,1.061174 -4.9162,3.871145 -6.37466,6.24438 l -2.65176,4.314979 4.27516,-3.883485 c 4.88224,-4.434938 11.23607,-5.003802 16.03473,-1.435607 1.8106,1.346325 2.91131,2.705543 2.44604,3.020482 -0.4653,0.314936 -3.13735,1.88195 -5.93789,3.482248 -2.80055,1.600298 -6.09962,5.483778 -7.33128,8.629956 l -2.23937,5.720329 5.33322,-6.472479 c 4.63989,-5.631025 6.27999,-6.47246 12.61605,-6.47246 5.60575,0 8.31327,1.047853 11.75753,4.55035 5.40308,5.494399 6.18414,15.109779 1.43725,17.693179 -1.6706,0.90919 -4.09102,3.65495 -5.37871,6.10169 -3.22748,6.13254 -13.08081,6.26009 -18.64115,0.24132 l -3.88688,-4.20731 -6.60701,4.44623 c -8.62525,5.80442 -21.90709,6.31442 -30.4806,1.17039 -5.73866,-3.44312 -6.01499,-3.45382 -10.09371,-0.39095 -5.88725,4.42096 -13.4361,5.34204 -19.86014,2.42328 z"
         id="path346" />
      <path
         style="fill:#ffff00;stroke-width:8.45655;paint-order:stroke fill markers"
         d="m 247.15885,223.41827 c 0.35366,-0.57224 7.03626,-8.47586 14.85021,-17.5636 7.81395,-9.08774 14.20718,-17.24412 14.20718,-18.12528 0,-1.33718 -1.17903,-1.49589 -7.12987,-0.95972 l -7.12986,0.6424 4.22511,-3.82975 c 2.3238,-2.10637 6.50885,-5.89503 9.30009,-8.41927 5.24412,-4.74246 5.6113,-6.68699 1.26267,-6.68699 -6.87818,0 -3.63342,-3.09014 22.08672,-21.03417 9.24294,-6.44847 16.98847,-11.54137 17.2123,-11.31755 0.22382,0.22382 -4.12019,6.76271 -9.65336,14.53085 -5.53316,7.76815 -9.91409,14.59923 -9.7354,15.18018 0.1787,0.58095 3.21926,1.29394 6.75682,1.58442 3.53755,0.29047 6.70717,0.80392 7.0436,1.14099 0.33643,0.33707 -4.97189,5.51908 -11.79626,11.51557 -6.82436,5.99649 -12.54701,11.24766 -12.71698,11.66925 -0.16998,0.4216 2.84369,1.18114 6.69703,1.68788 l 7.00607,0.92135 -8.80958,5.15554 c -24.61016,14.40235 -43.06452,24.94833 -43.65695,24.94833 -0.36441,0 -0.3732,-0.46819 -0.0195,-1.04043 z"
         id="path1337" />
      <path
         style="fill:#ffff00;stroke-width:8.45655;paint-order:stroke fill markers"
         d="m 335.50957,263.66142 c 0.21245,-0.62751 3.95121,-7.9981 8.30835,-16.37908 4.35714,-8.38099 7.62831,-15.5354 7.26927,-15.89871 -0.35904,-0.3633 -2.72278,-0.19546 -5.25274,0.37298 -2.52997,0.56845 -4.71925,0.91423 -4.86507,0.76841 -0.14582,-0.14583 2.09908,-3.50806 4.98867,-7.47162 2.88959,-3.96357 5.2538,-7.68089 5.2538,-8.2607 0,-0.64333 -1.695,-0.78317 -4.34895,-0.35878 l -4.34896,0.69542 7.24909,-8.21842 c 15.27967,-17.32285 23.96854,-26.71745 24.35395,-26.33203 0.22026,0.22026 -2.229,6.28392 -5.44281,13.4748 -3.2138,7.19088 -5.84328,13.49956 -5.84328,14.0193 0,0.52401 2.58804,0.64081 5.80952,0.26219 3.19524,-0.37554 5.80952,-0.28478 5.80952,0.2017 0,0.48647 -2.85195,4.972 -6.33766,9.96784 -7.79992,11.17911 -8.068,12.92344 -1.84848,12.02756 l 4.48917,-0.64663 -15.84414,15.33691 c -15.19907,14.71249 -20.26947,19.00913 -19.39925,16.43886 z"
         id="path1408" />
      <path
         style="fill:#ffffff;stroke-width:8.45655;paint-order:stroke fill markers"
         d=""
         id="path1485" />
    </g>
  </g>
</svg>
