<?xml version="1.0" encoding="UTF-8" standalone="no"?>
<!-- Created with Inkscape (http://www.inkscape.org/) -->

<svg
   version="1.1"
   id="svg870"
   width="512"
   height="512"
   viewBox="0 0 512.00002 511.99999"
   sodipodi:docname="narthex.svg"
   inkscape:version="1.2.2 (b0a8486541, 2022-12-01)"
   inkscape:export-filename="../GIT Icons/narthex.png"
   inkscape:export-xdpi="96"
   inkscape:export-ydpi="96"
   xmlns:inkscape="http://www.inkscape.org/namespaces/inkscape"
   xmlns:sodipodi="http://sodipodi.sourceforge.net/DTD/sodipodi-0.dtd"
   xmlns="http://www.w3.org/2000/svg"
   xmlns:svg="http://www.w3.org/2000/svg">
  <defs
     id="defs874" />
  <sodipodi:namedview
     id="namedview872"
     pagecolor="#505050"
     bordercolor="#eeeeee"
     borderopacity="1"
     inkscape:pageshadow="0"
     inkscape:pageopacity="0"
     inkscape:pagecheckerboard="0"
     showgrid="false"
     inkscape:zoom="0.77897458"
     inkscape:cx="163.03485"
     inkscape:cy="260.599"
     inkscape:window-width="1366"
     inkscape:window-height="705"
     inkscape:window-x="0"
     inkscape:window-y="0"
     inkscape:window-maximized="1"
     inkscape:current-layer="g876"
     inkscape:showpageshadow="0"
     inkscape:deskcolor="#505050" />
  <g
     inkscape:groupmode="layer"
     inkscape:label="Image"
     id="g876">
    <g
       id="g979"
       transform="matrix(0.95553345,0,0,0.93490649,11.386345,16.669123)">
      <path
         id="path1034-3"
         style="fill:#ffffff;stroke-width:2.02595"
         d="m 216.01758,-4.28125 c -8.12778,0.4077117 -15.75757,3.61078026 -23.03926,7.0051016 -6.7539,3.2205424 -13.30696,7.4460284 -17.71855,13.6159924 -1.81308,2.729722 -3.04363,5.83582 -3.64454,9.054687 -5.93721,-6.19803 -15.11151,-8.827496 -23.48631,-7.249777 -3.74253,0.68081 -7.34797,2.186985 -10.4004,4.466574 -7.55717,0.03015 -15.28289,0.184198 -22.50954,2.647405 -2.56985,0.895612 -4.83167,2.429201 -7.17266,3.776205 -2.98422,1.445899 -5.73182,3.325874 -8.283366,5.436136 -6.141538,5.085329 -11.698691,10.974812 -15.829394,17.826257 -3.586395,5.935889 -6.247645,12.536825 -7.112191,19.448498 -0.727005,6.297675 0.244337,12.836029 3.069256,18.533468 0.287803,2.498451 0.611663,5.014898 1.521732,7.376528 2.881351,8.175565 10.235608,14.532295 18.698973,16.334455 0.65735,0.23233 1.46766,0.15121 2.04181,0.51247 1.17465,1.18713 2.48592,2.2374 3.89178,3.13787 -3.53458,1.74881 -6.654207,4.31966 -9.023436,7.47266 -1.77117,1.64399 -3.578879,3.26149 -5.141105,5.11507 -2.382308,2.7195 -4.489612,5.66318 -6.595223,8.59782 -5.947248,-1.9518 -12.358536,-1.93438 -18.481598,-0.91361 -7.781774,1.07101 -15.619991,3.06494 -22.297106,7.34973 -4.731312,2.94354 -8.787329,6.85249 -12.298595,11.1557 -5.680192,6.67641 -10.476279,14.40521 -12.312156,23.07253 -0.205624,0.7019 -0.217556,1.51236 -0.487877,2.15932 -6.14526,4.89634 -11.5677332,10.71277 -16.0065664,17.19616 -3.21721447,4.89925 -5.3190835,10.55887 -5.7972754,16.41663 -0.7040643,6.77675 -0.2907298,13.67108 1.1558161,20.32584 1.36424737,5.75188 4.3868834,11.2672 9.1750974,14.85641 3.6763603,2.85697 8.2294783,4.44726 12.8432673,4.8633 4.814538,0.82175 9.76863,1.68759 14.635899,0.76799 0.691498,3.1716 1.957401,6.18465 3.440359,9.05872 1.205552,3.30688 2.107692,6.78325 4.101798,9.73551 5.642778,8.96689 15.395897,15.44046 26.016421,16.45417 0.774426,0.10549 1.603638,-0.037 2.230459,0.52354 7.504267,4.36907 17.254193,5.06846 25.051837,1.04084 3.682304,-1.85073 6.896554,-4.62628 9.258734,-8.00418 0.39001,-0.0328 0.39089,0.84044 0.6522,1.13385 1.81386,4.23695 4.47584,8.23916 8.30384,10.90452 5.84052,4.24398 13.80056,5.54768 20.60508,3.00131 0.57145,-0.40416 0.97701,-0.009 1.38974,0.42484 5.31469,4.74928 10.46411,9.69179 15.35714,14.8752 0.69692,0.76586 1.31829,1.46749 2.01427,2.28918 0.62742,6.67882 1.52165,13.43612 3.97974,19.71952 3.77096,8.58779 12.58918,14.63968 21.93964,15.1836 2.25899,0.26212 4.53617,0.26613 6.80718,0.29415 5.79726,6.02792 11.93093,11.73729 18.37263,17.07044 5.01965,4.03513 10.45123,7.51418 15.63323,11.32995 -0.33112,1.05943 -0.91227,2.04075 -1.21237,3.1225 -2.23885,6.70129 -1.472,14.11192 1.1107,20.60045 2.40311,6.44707 6.23136,12.60694 11.96032,16.58911 4.1539,2.96168 9.1108,4.637 14.13354,5.34809 -0.53119,0.75691 -1.03143,1.53606 -1.50196,2.33204 -7.15229,-1.59744 -14.73553,-1.28552 -21.70703,0.99218 -10.34192,-3.49372 -22.17591,-2.21599 -31.56323,3.3383 -1.12847,0.68963 -2.20654,1.45918 -3.23755,2.2867 -7.93723,-5.40433 -17.61761,-7.74075 -27.13025,-7.94141 -3.72707,-0.0827 -7.4633,0.14743 -11.14709,0.72462 -3.74279,-5.3217 -9.57941,-8.94136 -15.83848,-10.53033 -7.63581,-2.10276 -15.64079,-1.87983 -23.48431,-1.69198 -4.30375,0.20046 -8.63681,0.95306 -12.587369,2.72621 -5.060603,-2.28515 -10.68214,-3.00379 -16.193747,-2.85805 -5.798422,-0.002 -11.83029,0.18908 -17.168003,2.71633 -5.33711,2.39504 -9.879541,6.67739 -12.221635,12.07694 -4.241282,9.26147 -2.584549,20.80486 3.856823,28.65072 0.09437,4.071 0.110589,8.17229 -0.07183,12.18111 0.06419,1.06473 -0.79111,1.86688 -1.16137,2.81495 -4.031258,8.30204 -3.731967,18.52471 0.622145,26.64184 3.300253,6.01942 9.14606,10.71907 15.920169,12.12488 6.390527,1.56823 13.030202,1.15102 19.540241,0.87538 5.093399,-0.30174 10.261066,-1.06063 14.926036,-3.22996 6.41188,3.45303 14.09575,4.23292 21.14336,2.52987 2.27868,-0.5365 4.49376,-1.35475 6.55976,-2.4576 4.8134,2.71197 10.29989,4.13504 15.81224,4.29894 10.15127,0.65171 20.33189,-0.0549 30.43695,-1.04632 4.28384,-0.46784 8.5644,-1.1618 12.71175,-2.32293 7.06107,2.63368 14.71826,2.51598 22.14211,2.47684 7.47597,-0.0978 14.96151,-0.31318 22.40589,-1.03089 5.80687,-0.73791 11.6213,-2.80302 16.0106,-6.78189 6.02978,5.19692 13.72626,8.25292 21.59926,9.15655 7.95324,1.00134 16.07706,0.28811 23.8341,-1.66196 2.53479,-0.66521 5.02901,-1.49016 7.4514,-2.49068 6.39422,3.09697 13.69205,3.49701 20.67188,3.02717 4.7783,-0.27266 9.56943,-0.93516 14.125,-2.4471 7.47942,2.62868 15.58887,2.98526 23.41299,2.09398 4.23518,-0.56023 8.42369,-1.69103 12.24912,-3.61741 8.91703,4.62643 19.23681,6.33357 29.19358,5.18884 7.16566,-0.59462 14.38301,-1.56722 21.18532,-3.98767 0.54248,-0.35012 1.07271,0.25455 1.62289,0.34066 6.35341,2.38889 13.27377,2.52022 19.96397,2.01523 3.50475,-0.21963 7.02193,-0.60116 10.4151,-1.53949 5.25782,2.0637 11.01944,2.09416 16.57534,1.72557 5.82827,-0.29715 11.78783,-0.61014 17.31646,-2.64519 6.47654,-2.48631 12.06438,-7.52287 14.68059,-14.00818 3.94172,-9.01418 2.74001,-20.22527 -3.53138,-27.90227 -0.0295,-0.39828 0.43936,-0.80214 0.58177,-1.21631 3.74829,-6.96216 4.20092,-15.68823 0.82186,-22.8834 -3.67884,-8.15007 -11.70001,-14.27364 -20.63353,-15.28565 -6.83985,-0.96804 -13.77734,-0.30371 -20.58937,0.56386 -1.03947,0.17013 -2.06971,0.39893 -3.08503,0.67892 -10.02074,-4.60475 -21.96787,-4.24688 -31.98534,0.17375 -1.47216,0.6598 -2.89682,1.42612 -4.2588,2.29109 -16.74441,-8.9824 -38.455,-7.90361 -54.10892,2.92268 -0.44612,0.44198 -0.85187,-0.42545 -1.27975,-0.60041 -4.9883,-3.77938 -10.85097,-6.32833 -16.94531,-7.68946 -0.004,-3.08399 -3.2e-4,-6.16797 0.01,-9.25195 8.99654,-3.26589 15.91743,-11.88341 16.72989,-21.4794 0.94638,-9.37095 -3.99924,-19.19347 -12.38678,-23.62411 -2.31775,-1.29766 -4.89991,-2.00969 -7.45445,-2.65548 -1.75972,-0.74703 -3.6859,-1.08968 -5.3236,-2.1171 -4.29358,-2.13373 -9.13754,-2.69461 -13.5643,-4.46974 -1.8501,-0.65745 -3.78579,-1.09092 -5.7229,-1.33388 -7.07736,-3.56567 -14.64693,-6.10834 -22.36379,-7.87107 -0.74551,0.0172 -1.01346,-0.29585 -0.78968,-0.99589 0.27698,-2.74254 0.14921,-5.52457 -0.36267,-8.23263 5.70219,-0.13794 11.64506,-0.48832 16.78722,-3.21156 7.37753,-3.84805 12.47778,-11.99751 12.11799,-20.38914 -0.13957,-7.91277 -4.84667,-15.46868 -11.69232,-19.36023 3.32736,-1.78074 7.043,-2.66551 10.37921,-4.43193 5.46224,-2.71908 10.31459,-7.00841 12.97822,-12.56612 4.93646,-3.8169 10.62864,-6.47745 16.23966,-9.13399 4.5732,-2.08258 9.46179,-3.7842 14.16268,-5.27226 0.71088,-0.21833 1.42017,-0.44184 2.13281,-0.6543 6.33359,6.58808 14.16499,12.05503 23.10749,14.34034 7.86507,2.00097 16.58334,0.75229 23.37865,-3.75864 5.5247,-3.58618 9.57193,-9.06126 12.29027,-14.99295 2.54724,-5.48637 4.1848,-11.34344 5.57968,-17.21251 0.98072,-4.60272 1.05135,-9.35509 0.5314,-14.02067 -0.49203,-5.4132 -1.46254,-10.76896 -2.51444,-16.09776 4.05591,-0.39366 8.15574,-0.35734 12.17438,-1.10426 0.56977,-0.19017 1.06879,-0.14695 1.45304,0.36115 4.71992,3.93069 9.75664,7.61722 15.50276,9.90059 8.10975,3.31438 17.37254,4.23391 25.82403,1.68384 5.94435,-1.86214 11.17977,-5.88916 14.44113,-11.2041 3.40667,-5.34392 5.26969,-11.49899 6.63992,-17.63803 2.79753,-13.68955 1.58186,-28.00281 -2.36729,-41.34098 -3.27752,-10.80615 -8.61102,-21.1936 -16.62401,-29.25888 -8.2355,-8.22785 -19.42519,-13.71852 -31.13771,-14.22159 -5.96854,-0.26403 -12.03569,0.77759 -17.46094,3.31836 -7.85163,-2.91153 -16.4176,-2.91837 -24.64521,-2.08085 -4.80042,0.49947 -9.62412,1.20826 -14.20635,2.76835 -2.56179,-0.55878 -5.10621,-1.20725 -7.67578,-1.73438 0.0463,-1.37671 -0.005,-2.75688 -0.14649,-4.12695 6.81726,1.2465 14.13681,-0.41451 19.64809,-4.64695 5.13519,-3.8579 8.67478,-9.51056 10.73982,-15.532019 3.25403,-8.876324 4.43414,-18.680548 2.31322,-27.963642 -1.40936,-6.56213 -4.45793,-12.69101 -8.46404,-18.048694 -4.82012,-6.5716 -10.83175,-12.211005 -17.3777,-17.035202 -6.76838,-4.728791 -15.11978,-7.23109 -23.3826,-6.707326 -2.82424,0.123055 -5.63085,0.493683 -8.4221,0.927974 -8.06546,-6.856687 -17.50355,-12.252475 -27.76013,-15.010969 -5.88522,-1.4496173 -12.32025,-1.103126 -17.81799,1.559797 -4.12573,0.291153 -8.29108,0.663444 -12.23685,1.985307 -3.08731,0.948933 -6.08361,2.202969 -8.9155,3.756881 -3.88735,-1.813481 -8.10449,-2.95247 -12.39062,-3.21875 -4.1898,-3.727919 -9.8396,-5.8093767 -15.45313,-5.576172 -7.69862,-2.9228834 -16.10362,-3.0982102 -24.21953,-2.4770018 -1.60697,0.087283 -3.07327,0.2364814 -4.675,0.2680174 -6.50093,-4.0164252 -13.795,-6.6061522 -21.23437,-8.2441406 -3.92492,-2.5235534 -8.61083,-3.8213644 -13.27344,-3.71875 z m -67.97656,81.896484 c 0.44127,0.160696 0.0961,0.913401 -0.33399,0.550782 -0.51504,-0.140435 0.0695,-0.612411 0.33399,-0.550782 z M 323.5332,103.28125 c 0.3461,0.42963 -0.003,0.84176 -0.45508,0.47656 -0.30666,-0.21761 0.3187,-0.426 0.45508,-0.47656 z m 18.88282,47.88672 c 1.13398,0.22928 1.87065,1.88022 0.93359,2.71484 -0.52029,0.10103 -1.10849,-0.28912 -1.65315,-0.36615 -0.67206,-0.39989 -0.79312,-1.45257 -0.40154,-2.10455 0.37178,-0.0672 0.74172,-0.30353 1.1211,-0.24414 z m -29.35938,33.54492 c 0.16732,0.67869 -0.45908,1.69098 -1.2168,1.19727 -0.32275,-0.41938 0.75863,-0.68058 0.98173,-1.02957 0.0732,-0.0531 0.16992,-0.13433 0.23507,-0.1677 z m -160.35742,1.80664 c 0.32796,-0.0382 0.41734,0.63161 0.003,0.40858 -0.41266,0.0483 -0.29596,-0.32085 -0.003,-0.40858 z m 44.88867,20.92774 c 0.4179,0.24493 -0.0476,0.90807 -0.38086,0.50195 -0.21472,-0.19171 0.22189,-0.46715 0.38086,-0.50195 z m 30.91406,53.35546 c 2.17825,2.85929 5.07945,5.12275 8.27266,6.73585 1.65405,1.54512 3.48849,2.89129 5.42851,4.05517 -0.0721,2.20904 -0.13948,4.41823 -0.2207,6.62695 -6.3227,-5.32217 -12.35719,-10.97489 -18.45898,-16.54297 1.60878,-0.25601 3.19455,-0.66047 4.72656,-1.21484 0.084,0.11328 0.16797,0.22656 0.25195,0.33984 z m -156.416012,0.42579 c 0.51438,-0.062 0.555181,0.68243 0.03002,0.65788 -0.459291,0.0142 -1.269864,0.73803 -1.51635,0.21712 0.03807,-0.69966 0.894792,-0.98842 1.486329,-0.875 z m 105.343752,20.59375 c 0.4642,0.26864 -0.65128,0.43783 -0.25391,0.0859 0.0852,-0.0265 0.16358,-0.0766 0.25391,-0.0859 z m 97.18554,54.71875 c 0.3947,0.33759 -0.56973,0.8582 -0.50175,0.35147 0.0932,-0.13926 0.3038,-0.50434 0.50175,-0.35147 z m 9.74219,83.5664 c 3.34629,1.66832 6.75161,3.23509 10.2793,4.48242 -0.83864,1.26722 -1.54553,2.6217 -2.11719,4.0293 -0.53855,-0.16748 -1.35702,0.10069 -1.52538,-0.60627 -1.72522,-3.02161 -3.98774,-5.74464 -6.69532,-7.93475 z" />
      <path
         style="fill:#000000;stroke-width:2.02595"
         d="m 146.62838,492.73193 c -2.53332,-0.91031 -6.10485,-3.78094 -7.93674,-6.37916 -6.94692,-9.85303 4.22232,-21.33447 21.07858,-21.6678 5.23618,-0.10351 8.99911,-1.04093 8.5801,-2.13745 -0.42084,-1.10139 -6.37736,-1.70644 -13.65965,-1.38753 -11.84291,0.51866 -12.91335,0.23131 -12.91335,-3.46617 0,-8.29074 24.53787,-10.99712 34.39256,-3.79326 4.937,3.60897 5.53735,5.38413 5.53735,16.37312 0,10.68275 0.56014,12.46141 4.20315,13.34674 4.42219,1.0747 5.15594,2.90246 2.59479,6.46349 -1.95692,2.72092 -35.73072,4.85655 -41.87679,2.64802 z m 20.56485,-11.72844 c 5.97921,-2.97383 2.89807,-5.76116 -6.36844,-5.76116 -7.65879,0 -14.25536,3.80241 -11.32347,6.52711 2.14249,1.99108 13.10267,1.51655 17.69191,-0.76595 z m 105.63195,11.83272 c -7.44675,-2.79276 -11.25813,-9.81087 -11.25813,-20.73022 0,-8.43689 -0.68494,-10.24588 -4.20315,-11.10089 -5.07309,-1.23288 -5.69091,-8.63716 -0.79639,-9.54441 1.87372,-0.34728 4.47442,-3.69681 5.77933,-7.44334 3.31664,-9.52238 9.07741,-10.1158 10.89294,-1.12208 1.25389,6.21138 2.11181,6.96029 8.00072,6.9841 11.62254,0.047 16.33629,2.02896 15.63819,6.57532 -0.54135,3.52563 -2.27249,4.22736 -11.66893,4.73011 l -11.03326,0.59031 v 10.63972 10.6397 h 8.54445 c 4.69946,0 10.48405,-0.96468 12.85464,-2.14371 5.97961,-2.97403 12.22763,2.31805 8.14034,6.89486 -5.02705,5.62916 -21.94729,8.3846 -30.89075,5.03053 z m 114.83633,-1.36784 c -10.40172,-4.99364 -15.86674,-15.84258 -12.60591,-25.02469 8.53961,-24.0466 50.43425,-20.43265 50.43425,4.3506 v 6.4011 h -19.17149 c -17.48468,0 -18.92129,0.2802 -16.32778,3.18431 2.36339,2.64645 5.60154,2.98665 19.17148,2.01418 15.17373,-1.08742 16.32779,-0.90322 16.32779,2.60612 0,4.9644 -5.46484,7.48618 -19.21856,8.8685 -8.54435,0.85875 -13.02541,0.28082 -18.60978,-2.40012 z m 23.92659,-26.84845 c -1.59402,-3.86036 -11.50635,-5.581 -18.30757,-3.17792 -9.46181,3.34314 -6.40324,5.98814 6.92447,5.98814 10.04959,0 12.31278,-0.55875 11.3831,-2.81022 z M 76.022398,491.60546 c -2.25289,-2.09367 -1.79518,-8.55093 0.60611,-8.55093 1.2435,0 2.10157,-7.09152 2.10157,-17.36848 0,-13.63698 -0.67726,-17.61001 -3.15236,-18.49268 -1.7338,-0.61829 -3.15236,-2.90948 -3.15236,-5.09157 0,-3.38311 1.35371,-3.96738 9.19213,-3.96738 9.16929,0 9.21954,0.0391 20.229912,15.62438 6.07078,8.59342 11.3914,15.62439 11.82361,15.62439 0.4322,0 0.78583,-4.7313 0.78583,-10.51398 0,-8.87145 -0.65661,-10.67355 -4.20315,-11.53544 -2.51475,-0.61115 -4.20314,-2.66399 -4.20314,-5.11041 0,-3.68732 1.21645,-4.08894 12.38459,-4.08894 12.94684,0 17.74441,3.21471 11.72552,7.85691 -2.14936,1.65775 -3.12278,8.25187 -3.55284,24.06763 -0.58817,21.63096 -0.62928,21.78789 -5.84626,22.29823 -4.50115,0.44029 -6.98318,-1.93829 -17.32286,-16.60092 l -12.068922,-17.11484 -0.0151,12.20655 c -0.0138,11.04579 0.39844,12.20655 4.33419,12.20655 3.30833,0 4.18858,1.05175 3.67775,4.39436 -0.58069,3.79974 -2.10431,4.47229 -11.26015,4.97034 -5.82373,0.31682 -11.26155,-0.0494 -12.08406,-0.81377 z M 198.65817,490.0451 c -3.45009,-3.8633 -1.10612,-6.99057 5.23962,-6.99057 4.80355,0 5.1299,-0.66889 5.1299,-10.51398 0,-8.87145 -0.65661,-10.67355 -4.20315,-11.53545 -2.47739,-0.60209 -4.20314,-2.66398 -4.20314,-5.02191 0,-5.45196 13.19085,-8.00975 18.47281,-3.58201 3.12784,2.62196 4.12256,2.65204 7.67315,0.23204 7.84757,-5.34882 22.19024,-1.71634 22.19024,5.62002 0,4.43836 -3.44752,5.78407 -8.44737,3.29735 -8.93255,-4.44269 -24.00284,9.40026 -20.21648,18.57001 0.83477,2.02164 4.21812,2.93395 10.88069,2.93395 8.82524,0 9.61058,0.38353 8.99764,4.39436 -0.63283,4.14086 -1.77454,4.42652 -19.79185,4.95198 -14.92811,0.43536 -19.69074,-0.0812 -21.72206,-2.35576 z m 116.84929,1.47263 c -2.64373,-2.45688 -1.40084,-8.4632 1.75131,-8.4632 2.58294,0 3.15236,-3.38305 3.15236,-18.72917 0,-16.83287 -0.45946,-19.07488 -4.53753,-22.14376 -6.14447,-4.62384 -3.31326,-7.95328 6.76314,-7.95328 h 8.28226 v 9.76524 c 0,9.09609 2.21237,12.38572 5.25394,7.81219 2.59748,-3.90578 15.75708,-2.13499 21.11126,2.84081 4.33914,4.03246 5.15842,6.66907 5.15842,16.60091 0,8.9782 0.72555,11.80706 3.02833,11.80706 4.43423,0 6.12163,3.64965 3.2,6.92121 -3.50948,3.92981 -19.62231,3.74252 -23.20539,-0.26971 -2.36762,-2.65116 -2.0727,-3.61008 1.98509,-6.45457 3.90711,-2.73884 4.6458,-4.86927 4.09957,-11.82346 -0.84712,-10.78534 -5.52645,-14.10163 -13.81924,-9.79385 -4.81739,2.50246 -5.86613,4.50215 -6.40173,12.20655 -0.49649,7.14179 0.0664,9.21384 2.50294,9.21384 4.53559,0 6.26731,3.61546 3.31515,6.92121 -2.56676,2.87416 -18.95018,4.0416 -21.63988,1.54199 z m 118.3365,-1.68597 c -2.4672,-2.76271 -1.91241,-3.85539 4.26204,-8.39452 3.90415,-2.87012 8.57335,-6.315 10.37599,-7.6553 2.89755,-2.15439 2.6089,-2.9915 -2.48973,-7.22061 -3.17201,-2.63103 -7.33738,-5.60027 -9.25637,-6.5983 -5.02063,-2.61111 -2.12945,-7.56294 5.30129,-9.07966 7.89328,-1.61113 14.4743,1.50282 15.3549,7.26552 0.93698,6.1316 6.9769,5.71262 6.9769,-0.48399 0,-4.44085 0.90516,-4.93657 10.0039,-5.47872 7.9311,-0.47257 10.29348,0.10529 11.40143,2.78839 0.95751,2.31889 -0.17129,4.35125 -3.58511,6.45523 -2.74045,1.68892 -6.8808,4.49758 -9.20077,6.24148 -4.17241,3.13632 -4.15084,3.22582 1.98748,8.24924 3.4131,2.79317 7.91578,5.61648 10.00593,6.27399 2.42593,0.76317 3.56596,2.724 3.15236,5.42211 -0.55626,3.62886 -2.20831,4.31011 -11.68117,4.81694 -11.35055,0.60728 -11.37669,0.58878 -11.86983,-8.40252 -0.13785,-2.5125 -1.68669,-3.9061 -4.34139,-3.9061 -3.16776,0 -4.1448,1.36198 -4.20314,5.85915 -0.0721,5.56207 -0.56487,5.88867 -9.71716,6.44147 -6.91592,0.41771 -10.44291,-0.31548 -12.47755,-2.59381 z M 253.5307,405.44856 c -7.89047,-0.65529 -9.46185,-1.57482 -11.93241,-6.98271 -1.75385,-3.83908 -2.09728,-6.93977 -0.89533,-8.08346 1.07245,-1.02047 1.94992,-6.00013 1.94992,-11.06591 0,-9.54478 -0.85501,-10.54125 -20.73803,-24.16932 -6.3797,-4.37272 -24.26338,-21.59757 -23.84403,-22.9656 0.24693,-0.80563 -4.15579,-1.46479 -9.7839,-1.46479 -10.19205,0 -10.23809,-0.0293 -11.53551,-7.32392 -0.71646,-4.02817 -1.31306,-9.43036 -1.32577,-12.00484 -0.0171,-3.23972 -5.65201,-10.00464 -18.30523,-21.9718 -19.19334,-18.1527 -26.84583,-21.61706 -28.48741,-12.89652 -0.96212,5.11109 -1.55723,4.0218 -6.93538,-12.69481 -2.10306,-6.53683 -4.81018,-11.23003 -6.47767,-11.23003 -1.57556,0 -2.86467,0.93074 -2.86467,2.06832 0,1.13757 -0.95418,1.52027 -2.12039,0.85044 -1.1662,-0.66981 -4.05312,-0.64776 -6.41536,0.0488 -3.64892,1.07627 -3.883182,1.7392 -1.55737,4.40708 1.6645,1.90927 1.77823,2.60569 0.29015,1.77662 -1.34611,-0.74999 -3.001102,-0.25951 -3.677762,1.08988 -0.98747,1.96928 -1.47308,1.96928 -2.46056,0 -0.67666,-1.34942 -2.24134,-1.87278 -3.47707,-1.16303 -1.23574,0.70975 -1.65811,0.40526 -0.93861,-0.67662 0.71949,-1.0819 0.1563,-3.20568 -1.25148,-4.71951 -1.4078,-1.51383 -2.3199,-2.37262 -2.02687,-1.90842 0.29304,0.46421 -0.91092,2.89163 -2.67542,5.39426 -1.76451,2.50282 -2.35098,4.55043 -1.30328,4.55043 1.0477,0 2.41466,1.81151 3.03768,4.02556 1.65405,5.87812 -4.37362,7.23516 -8.40116,1.89141 -2.18941,-2.9049 -3.78224,-3.61771 -4.76889,-2.1341 -2.622,3.94267 -12.40964,-1.05272 -13.97326,-7.13163 -0.76959,-2.99197 -2.06624,-6.31883 -2.88146,-7.393 -2.89601,-3.81599 0.24129,-18.55635 4.38852,-20.619 8.34985,-4.1529 1.54328,-8.40644 -13.22125,-8.26221 -7.64377,0.0746 -19.75658,6.58101 -17.00771,9.13561 0.75752,0.70398 -0.92954,0.88597 -3.74902,0.4044 -2.81948,-0.48155 -5.73214,-0.94085 -6.47258,-1.02068 -2.34562,-0.25285 -3.36738,-14.59468 -1.39391,-19.56547 2.30452,-5.80464 14.34541,-17.63803 17.97658,-17.66677 1.64281,-0.0135 2.62697,-2.83776 2.62697,-7.53995 0,-5.23754 1.89311,-9.94784 6.23877,-15.52288 7.22695,-9.27144 11.07305,-11.51626 22.68848,-13.24237 6.64156,-0.98697 9.27453,-0.48045 12.36759,2.37912 4.45441,4.11819 16.9004,6.42103 14.40239,2.66481 -1.59126,-2.39276 12.786742,-23.44488 16.012212,-23.44488 1.0151,0 1.84702,-1.09858 1.84872,-2.44131 0.002,-1.47087 3.47102,-2.66288 8.72735,-2.9987 10.8934,-0.69598 12.62347,-1.68388 12.17679,-6.95307 -0.74545,-8.79326 0.34518,-11.26905 8.51482,-19.32939 10.00884,-9.874896 10.48516,-12.908906 2.26648,-14.436476 -4.46863,-0.83056 -5.94158,-2.09772 -5.41157,-4.65545 0.6264,-3.022747 -0.13726,-3.283601 -5.45939,-1.865091 -3.77827,1.007021 -5.71438,0.937571 -4.97228,-0.178337 0.66845,-1.005149 -0.25902,-1.827534 -2.06101,-1.827534 -1.80202,0 -3.39461,0.878871 -3.53909,1.953048 -0.14448,1.074174 -0.49913,2.831914 -0.78809,3.906094 -0.28897,1.07418 -0.64361,2.73789 -0.78809,3.69715 -0.14449,0.95924 -1.63311,2.23279 -3.30803,2.8301 -2.03542,0.72587 -2.6578,0.14746 -1.87674,-1.74409 0.64276,-1.55656 0.1217,-2.93997 -1.15781,-3.07424 -1.27953,-0.13427 -3.27212,-0.46385 -4.42799,-0.73239 -1.15587,-0.26855 -3.99299,-0.59813 -6.30472,-0.7324 -2.76191,-0.16039 -4.20315,-1.62754 -4.20315,-4.278619 0,-2.218973 -1.00376,-5.777494 -2.230592,-7.907831 -3.25733,-5.656234 1.193192,-16.843416 10.173522,-25.572967 4.09811,-3.98367 8.16238,-6.834527 9.03168,-6.335237 0.86931,0.499309 1.97575,-0.196281 2.45875,-1.545673 0.60191,-1.681659 5.88857,-2.453479 16.80523,-2.453479 12.49901,0 15.45954,-0.525431 13.755,-2.441311 -1.58308,-1.77933 -1.24747,-2.44131 1.23766,-2.44131 3.13074,0 4.4017,2.323322 3.5848,6.552984 -0.17738,0.918701 0.51968,2.676444 1.54918,3.906096 1.02947,1.229651 2.41223,4.282619 3.07275,6.784364 0.92463,3.501913 0.47253,4.288851 -1.96455,3.419744 -2.56358,-0.914216 -2.89643,0.0098 -1.75025,4.85952 1.04284,4.412473 0.39535,7.052139 -2.46045,10.030512 l -3.87574,4.042115 6.72576,-3.196762 c 3.69916,-1.758213 8.11247,-3.196755 9.80735,-3.196755 1.69488,0 3.39681,-0.812664 3.78212,-1.805923 0.3853,-0.993253 7.55553,-2.091842 15.93388,-2.44131 15.47139,-0.645317 16.1829,-0.960662 14.01475,-6.211474 -1.48371,-3.593236 -7.18158,-1.991798 -7.18158,2.018445 0,2.480603 -0.41829,2.47138 -3.15237,-0.06946 -4.93492,-4.586154 -3.94205,-14.775334 1.93282,-19.835194 4.76679,-4.105489 4.89193,-4.725888 1.99862,-9.908618 -2.88933,-5.175565 -2.77782,-5.745599 1.74493,-8.919839 6.18704,-4.342313 20.59331,-9.639541 20.59331,-7.572225 0,0.868217 3.51448,2.191302 7.80996,2.940185 4.29546,0.748885 10.52585,3.158843 13.84531,5.355461 4.91094,3.24975 8.10947,3.794919 17.16763,2.926105 7.21625,-0.692141 13.01304,-0.160943 16.47894,1.510122 2.94068,1.417821 6.03803,2.003058 6.88299,1.300522 0.84494,-0.702535 0.87312,-0.204521 0.0624,1.106719 -1.66376,2.691532 6.14153,5.165697 13.00363,4.121963 2.33914,-0.355759 6.57045,1.373042 9.40292,3.841823 l 5.14994,4.488702 6.7452,-5.274596 c 4.46317,-3.490085 9.35782,-5.339085 14.46753,-5.465221 4.24725,-0.104854 8.34342,-0.988804 9.10257,-1.964345 1.97666,-2.540128 15.98375,4.093894 23.27058,11.021379 5.42179,5.154425 7.09174,5.694106 13.87374,4.483656 12.47105,-2.225828 15.30908,-1.580382 22.91543,5.211574 12.83257,11.4586 15.86178,21.136949 10.8213,34.574207 -3.01788,8.045241 -7.26971,7.270871 -13.9462,-2.539982 -4.04382,-5.942253 -4.41533,-7.34102 -1.69182,-6.369775 1.91942,0.684501 2.95295,0.437178 2.29668,-0.5496 -1.42138,-2.137312 -9.51599,-1.578301 -13.82504,0.95476 -1.68491,0.990464 -3.57683,1.814303 -4.2043,1.830751 -0.62745,0.01647 -6.06132,3.670759 -12.07523,8.120697 -10.48372,7.75732 -10.72192,8.14034 -5.77953,9.29312 7.24919,1.690846 17.92991,12.875446 17.9029,18.747496 -0.0171,3.86808 -0.44572,4.2739 -2.05966,1.95305 -1.81086,-2.60407 -2.04437,-2.60407 -2.10158,0 -0.0532,2.41122 -0.38709,2.45615 -1.88821,0.25395 -1.47266,-2.1604 -2.26353,-1.97237 -4.10707,0.97652 -1.25576,2.00869 -2.31197,2.88539 -2.3471,1.94823 -0.0348,-0.93715 -1.66401,-0.49772 -3.61969,0.97652 -3.06458,2.31018 -3.31219,2.27576 -1.7925,-0.24914 0.9698,-1.61126 -0.29054,-0.9656 -2.80072,1.43478 l -4.56399,4.36434 5.447,9.98945 c 2.99586,5.4942 4.95553,10.44619 4.35486,11.00442 -0.60071,0.5582 -3.62885,-3.79171 -6.72924,-9.66653 -5.37211,-10.1794 -5.98402,-10.6559 -13.01807,-10.13723 -7.60592,0.56083 -11.64771,3.86691 -9.95984,8.1469 0.91136,2.31101 -2.36346,3.30637 -9.41321,2.86109 -1.7338,-0.10948 -5.46557,1.42299 -8.29282,3.40554 l -5.14045,3.60464 3.88345,8.0033 c 3.76444,7.75805 3.76589,8.24561 0.0466,15.90986 -2.11009,4.3486 -4.53264,8.30638 -5.38348,8.79505 -2.44704,1.40547 -8.3326,-1.29741 -7.04411,-3.23489 0.63954,-0.96163 0.30467,-1.74842 -0.74406,-1.74842 -2.72325,0 -8.84115,15.32421 -7.45657,18.67736 1.18831,2.87783 7.01375,3.98336 7.01375,1.33102 0,-2.37407 14.67394,-6.01978 16.0289,-3.98237 0.66055,0.99324 2.9985,0.29413 5.19549,-1.55361 2.54832,-2.14323 3.9945,-2.5011 3.9945,-0.98849 0,1.30405 0.8382,1.8896 1.86265,1.30118 2.48959,-1.42991 4.45032,5.90957 2.14987,8.04743 -1.00699,0.93583 0.26283,2.8503 2.87005,4.3272 2.57185,1.45683 3.97501,1.95513 3.11815,1.10732 -0.85687,-0.84782 -0.50464,-2.72096 0.78272,-4.16249 1.76433,-1.97567 1.63048,-2.62837 -0.54366,-2.65091 -2.27933,-0.0238 -2.22901,-0.41497 0.23991,-1.86565 2.67837,-1.57377 2.52042,-2.35848 -1.10688,-5.49901 -2.32711,-2.0148 -6.37373,-3.51658 -8.9925,-3.33727 -5.87829,0.40245 -7.46131,-1.75243 -5.80167,-7.89761 1.89593,-7.02011 12.48541,-11.3581 24.49856,-10.03588 10.38567,1.14309 10.74057,0.87767 13.56471,-10.14477 1.39248,-5.43472 12.44618,-13.90057 21.81297,-16.70618 8.22741,-2.46434 11.18578,-2.50594 20.15099,-0.28331 7.24068,1.79506 11.33955,1.98382 13.18265,0.60709 1.47112,-1.09886 7.5374,-2.26322 13.48057,-2.58746 8.31981,-0.45389 12.04625,0.31725 16.19762,3.35194 l 5.3918,3.94144 3.53101,-4.05242 c 5.39737,-6.1944 16.80562,-5.41283 25.5877,1.75299 13.74096,11.21206 20.30873,40.05371 13.35457,58.64515 -2.258,6.03666 -3.35704,6.80126 -9.40258,6.54121 -4.83458,-0.20794 -9.61134,-2.66355 -16.25971,-8.3587 -7.80244,-6.68421 -10.10555,-7.72007 -13.45744,-6.05296 -2.22419,1.1062 -7.81055,2.01128 -12.41417,2.01128 -4.60363,0 -12.54159,1.66167 -17.63988,3.69263 l -9.26967,3.69261 3.7606,17.26215 c 2.06833,9.4942 3.23921,19.47755 2.60196,22.18528 -4.54543,19.31369 -9.10332,23.62901 -19.24435,18.2202 -3.38982,-1.80801 -8.3555,-6.26045 -11.03482,-9.89431 -3.12813,-4.24257 -6.05446,-6.24621 -8.1771,-5.59879 -1.81807,0.55454 -8.03413,2.42475 -13.81345,4.15599 -20.66823,6.19134 -43.08228,19.42445 -43.08228,25.43548 0,1.23837 -3.67154,3.37766 -8.15894,4.75397 -9.25178,2.83757 -26.27739,16.65722 -28.48499,23.12121 -0.80721,2.36351 -2.46542,4.29733 -3.68491,4.29733 -1.46899,0 -1.40895,0.90515 0.17777,2.68201 2.80324,3.139 1.18167,8.27579 -3.0938,9.80051 -1.64441,0.5864 -2.95839,2.63183 -2.91994,4.54536 0.0604,3.02479 0.58503,2.90529 4.01462,-0.91523 3.10352,-3.45727 6.11365,-4.38798 14.1157,-4.36446 5.59406,0.0159 11.58957,0.88187 13.32338,1.92315 2.25162,1.35226 -0.15027,1.91954 -8.4063,1.98526 -11.34063,0.0902 -18.91417,3.09621 -18.91417,7.50701 0,2.03227 -2.81782,3.04603 -6.83012,2.45729 -0.8669,-0.12713 -1.57618,1.1389 -1.57618,2.81357 0,1.67467 0.9457,2.50166 2.10157,1.83777 3.33611,-1.91612 2.42951,1.45403 -2.10157,7.8122 -5.27145,7.39711 -5.31969,12.00205 -0.15256,14.57196 3.21407,1.59854 4.27015,1.31024 5.11389,-1.39608 0.58483,-1.87585 0.90611,-0.0335 0.71396,4.09376 -0.31484,6.76353 0.33468,7.77166 6.57939,10.2118 3.81078,1.48909 7.57743,2.54841 8.37031,2.35409 4.71247,-1.15508 24.40933,5.75842 27.04121,9.49132 1.66308,2.35881 4.56903,4.83981 6.45765,5.51332 2.7683,0.98721 2.64203,0.38609 -0.65149,-3.10132 -2.24692,-2.37921 -2.90673,-3.6855 -1.46624,-2.90288 1.44048,0.78261 4.74735,1.80387 7.34858,2.26942 2.60122,0.46549 5.04983,1.73949 5.44132,2.83099 0.39149,1.09153 1.57677,1.48781 2.63391,0.88061 1.05714,-0.60714 1.92209,-0.20078 1.92209,0.90307 0,1.10387 1.41856,1.50114 3.15235,0.88285 1.99616,-0.71187 3.15237,0.0268 3.15237,2.01433 0,1.72621 -1.655,3.1904 -3.67776,3.25379 -8.76794,0.27483 -18.87805,1.34572 -25.2083,2.67011 -5.97496,1.25007 -7.0598,0.83946 -8.75962,-3.31541 -1.89333,-4.62819 -21.96189,-20.95349 -25.75782,-20.95349 -2.59546,0 4.27717,6.25682 11.48345,10.45451 3.23023,1.88161 6.71832,5.48695 7.75128,8.01187 1.03298,2.52491 2.98315,5.22542 4.33372,6.00113 1.85331,1.06447 1.82456,1.7728 -0.1173,2.88808 -1.50118,0.86223 -8.55712,-1.72864 -16.94005,-6.22018 -11.93218,-6.39321 -15.09603,-7.33543 -18.66728,-5.55923 -4.3193,2.14826 -5.10222,3.97716 -4.40997,10.30171 0.20576,1.8798 -0.86746,3.26428 -2.38494,3.07662 -1.51749,-0.18769 -6.8483,-0.68082 -11.84622,-1.09588 z m 17.11438,-32.25299 c -0.83259,-3.53043 -0.59363,-3.81841 1.21535,-1.46479 1.94501,2.53057 2.25609,2.46406 2.2839,-0.48826 0.0171,-1.8798 -0.85772,-3.41784 -1.94538,-3.41784 -2.96243,0 -4.85509,3.71667 -3.52858,6.92921 1.81231,4.38902 3.13175,3.34781 1.97471,-1.55832 z M 236.34816,346.9553 c 0,-0.7364 -2.05627,-3.37302 -4.56947,-5.85915 -5.92991,-5.866 -4.32105,-5.73327 4.59366,0.37896 8.65342,5.9331 11.98931,3.9526 12.98158,-7.70703 0.6241,-7.33369 0.3239,-7.7552 -6.47181,-9.0866 -3.91945,-0.76787 -12.62105,-4.9973 -19.33688,-9.3987 -6.71583,-4.40142 -13.08673,-8.00258 -14.15755,-8.00258 -1.07079,0 -3.07376,-1.26181 -4.45102,-2.80403 -1.37727,-1.54223 -5.1969,-3.35367 -8.48807,-4.02546 -3.29117,-0.67177 -6.46706,-2.3914 -7.05753,-3.82142 -1.63838,-3.96782 -0.0539,-9.9142 2.50217,-9.39127 1.24969,0.25566 1.76834,-0.75534 1.15253,-2.24668 -1.29605,-3.13873 5.52449,-3.28087 8.214,-0.17125 0.99443,1.1498 1.42659,0.69064 1.05079,-1.11642 -0.3511,-1.68821 -9.76732,-11.15852 -20.92494,-21.04515 -18.61454,-16.49412 -20.56432,-17.71756 -23.65647,-14.84393 -4.12823,3.83648 -8.20061,10.68158 -7.01199,11.7862 0.48074,0.44676 6.38414,1.28612 13.11868,1.8652 6.73456,0.57908 13.11637,1.55359 14.18182,2.16556 3.69165,2.12031 -10.77164,8.27124 -20.85542,8.86934 l -10.13099,0.60099 20.39336,19.07225 c 11.21636,10.48975 21.14629,18.87204 22.06653,18.6273 3.26621,-0.86864 11.22596,4.52008 9.81362,6.64378 -0.84216,1.26636 -0.4762,1.60648 0.88648,0.82383 1.27646,-0.73314 3.40837,0.55546 4.73753,2.8635 1.67459,2.90784 1.70695,3.78886 0.10547,2.86901 -1.27122,-0.73011 -2.3113,-0.39671 -2.3113,0.74083 0,1.13757 1.88095,2.06832 4.17991,2.06832 2.31159,0 9.12187,4.76589 15.23641,10.66257 10.42491,10.05349 14.20887,12.57864 14.20887,9.48205 z m 18.91417,-4.52024 c 0,-1.07417 -0.94571,-1.95305 -2.10158,-1.95305 -1.15586,0 -2.10157,0.87888 -2.10157,1.95305 0,1.07418 0.94571,1.95305 2.10157,1.95305 1.15587,0 2.10158,-0.87887 2.10158,-1.95305 z m 6.9874,-36.61965 c 0.51187,-0.80563 1.277,-12.45068 1.70022,-25.87789 l 0.76946,-24.4131 -5.0695,-0.66561 c -5.87749,-0.77172 -11.16669,-5.01036 -9.01605,-7.22525 0.81187,-0.83612 -0.13069,-0.98551 -2.09462,-0.33196 -2.53749,0.84442 -3.23258,0.36931 -2.40212,-1.64187 0.64276,-1.55656 2.24956,-2.84356 3.57073,-2.86 1.39774,-0.0178 1.16373,-0.75847 -0.55967,-1.77236 -1.62899,-0.95834 -4.3397,-1.25105 -6.02381,-0.65048 -2.52738,0.90132 -2.6395,0.3582 -0.64203,-3.11026 1.74407,-3.02854 1.79171,-5.29324 0.17061,-8.10834 -1.70572,-2.96191 -1.59658,-3.92045 0.45145,-3.96549 1.53157,-0.0335 1.04041,-0.95674 -1.13447,-2.13206 -2.10945,-1.13998 -4.39492,-1.5527 -5.0788,-0.91714 -0.68389,0.63555 0.0962,1.169 1.73379,1.18545 2.45142,0.0244 2.42049,0.3643 -0.17509,1.92315 -2.10157,1.26215 -2.2767,1.9032 -0.52539,1.92314 3.10182,0.0354 3.59365,5.77675 0.52539,6.13318 -1.15587,0.13415 -3.28371,0.36693 -4.72853,0.51707 -1.44484,0.1502 -4.04554,-1.09973 -5.77934,-2.77749 -2.37703,-2.30016 -2.63546,-2.3374 -1.05079,-0.15136 1.64883,2.2745 1.3403,2.63415 -1.43216,1.66949 -2.64005,-0.91858 -3.34303,-0.30925 -2.77967,2.40939 1.91251,9.22887 -12.5545,4.91195 -17.05043,-5.0878 -3.83907,-8.53887 -4.00906,-10.59672 -1.89198,-22.90502 1.56046,-9.07234 1.44986,-9.39078 -2.56762,-7.39266 -2.30908,1.14845 -4.79552,1.5331 -5.52543,0.85477 -0.73001,-0.67839 -1.3272,-0.208 -1.3272,1.04517 0,1.25321 -1.18214,2.05885 -2.62697,1.7903 -3.76514,-0.69981 -2.07959,5.87957 2.62675,10.25331 3.25112,3.02135 3.8193,5.88737 3.16028,15.94107 -0.82156,12.53314 -3.97712,17.26094 -11.52082,17.26094 -6.67676,0 -3.94199,7.596 5.75806,15.99324 5.34939,4.63094 16.6117,14.79168 25.02735,22.57946 8.41567,7.78779 16.07001,14.1596 17.00967,14.1596 0.93963,0 5.41834,1.75774 9.95268,3.9061 8.38796,3.97419 16.86317,5.08984 18.54605,2.44131 z M 80.788028,262.28431 c -1.72152,-2.98937 -3.72772,-3.89219 -6.96641,-3.13499 -4.16447,0.97363 -4.23801,0.84729 -0.87085,-1.49604 5.77802,-4.02113 4.30573,-5.05019 -2.62697,-1.83612 -3.4676,1.60759 -6.30472,3.34985 -6.30472,3.87167 0,0.52182 0.9457,0.40556 2.10157,-0.2583 1.9042,-1.09369 3.02298,1.51313 2.32978,5.42849 -0.14823,0.83732 2.34047,0.004 5.53046,-1.8502 3.19,-1.85491 5.12399,-2.64416 4.29776,-1.75386 -0.82624,0.89032 -0.43135,3.4783 0.87751,5.7511 1.39577,2.42369 2.725,3.16983 3.21472,1.80454 0.4592,-1.28032 -0.25304,-4.21714 -1.58285,-6.52627 z m 58.887722,1.26126 c 0,-0.42217 -1.46768,-1.29096 -3.26153,-1.93069 -1.87022,-0.66694 -2.7138,-0.33952 -1.97753,0.76758 1.23417,1.8558 5.23906,2.7449 5.23906,1.16311 z m 12.2659,-11.56665 c 3.68031,-5.17258 5.83516,-8.91284 4.78852,-8.31169 -1.04663,0.60117 -2.41644,-0.15038 -3.04398,-1.67029 -1.25746,-3.04527 -4.46674,-2.99373 -10.85809,0.17444 -2.31173,1.14589 -5.29861,1.71639 -6.63752,1.26776 -4.19729,-1.40643 -5.42316,3.27016 -2.09468,7.99105 3.56351,5.05424 10.0492,11.4285 10.71881,10.53465 0.23944,-0.3197 3.4466,-4.81338 7.12694,-9.98592 z m 145.35216,0.30809 c 0,-0.98043 -1.91789,-0.82873 -4.26201,0.33714 -2.34409,1.16587 -3.67847,2.99721 -2.96526,4.06966 1.43719,2.16107 7.22727,-1.36939 7.22727,-4.4068 z m -215.501102,2.39587 c 0.665,-0.99997 0.4056,-2.27961 -0.57649,-2.84366 -0.98207,-0.56407 -1.78559,0.25408 -1.78559,1.81809 0,3.29317 0.6627,3.5809 2.36208,1.02557 z m 21.378742,-6.28167 c -3.173152,-1.71325 -3.375492,-2.44823 -1.05079,-3.8168 2.33017,-1.3718 2.24468,-1.70066 -0.44835,-1.72488 -1.830122,-0.0159 -3.901122,0.50316 -4.602212,1.15474 -1.85287,1.72191 3.183532,6.4764 6.878912,6.49387 2.31831,0.0116 2.11259,-0.54649 -0.77753,-2.10693 z m 216.18889,-1.66551 c 4.05235,-1.61827 4.03793,-1.68342 -0.40133,-1.81576 -2.53251,-0.0756 -5.18903,0.74159 -5.90339,1.81576 -1.53625,2.31003 0.52021,2.31003 6.30472,0 z m -132.61526,-2.47937 c 0.69678,0.64753 1.26687,0.25957 1.26687,-0.86207 0,-1.12168 -1.18213,-2.94015 -2.62697,-4.04101 -1.90285,-1.44988 -3.66346,-0.71355 -6.38727,2.67125 -3.7438,4.65236 -3.73786,4.66492 1.3601,2.86369 2.81621,-0.99507 5.69047,-1.27939 6.38727,-0.63186 z m -15.28494,-3.90058 c -2.07556,-1.91451 -2.31694,-1.69018 -1.17646,1.09331 0.7892,1.92613 1.96433,3.01007 2.61137,2.40875 0.64709,-0.60129 9.8e-4,-2.17724 -1.43491,-3.50206 z m -33.01056,-4.64136 c 2.00224,-4.84894 -0.20471,-5.51104 -2.88065,-0.86425 -1.291,2.24178 -1.46867,4.07337 -0.39509,4.07337 1.07285,0 2.54696,-1.4441 3.27576,-3.20912 z m 226.03375,1.33235 c 1.70032,-0.99931 2.57699,-2.29507 1.94816,-2.87946 -0.62883,-0.5844 -2.96572,0.21873 -5.19307,1.78473 -4.4309,3.11526 -1.73851,4.02361 3.24491,1.09473 z M 150.18362,233.3035 c 0,-0.94264 -1.41857,-2.808 -3.15237,-4.14522 -1.7338,-1.33724 -3.15236,-1.95616 -3.15236,-1.37541 0,0.58079 -0.57406,2.44613 -1.27563,4.14523 -0.91448,2.21466 -0.0224,3.08931 3.15235,3.08931 2.43541,0 4.42801,-0.77126 4.42801,-1.71391 z m -81.251142,-9.64429 c -0.75223,-2.67325 2.21864,-5.39103 12.07044,-11.04216 12.24856,-7.02591 12.81782,-7.67002 9.07548,-10.26843 -7.80962,-5.4224 -11.64496,-6.84703 -10.9589,-4.07065 0.73461,2.97287 -6.2201,9.95894 -13.36517,13.4254 -2.68819,1.30421 -6.41277,3.78763 -8.27685,5.51873 -3.11763,2.89522 -2.865,3.41481 3.15236,6.48342 8.39416,4.28071 9.51847,4.27445 8.30264,-0.0464 z m 32.914932,0.73171 c 0,-0.47368 -0.94571,-1.40443 -2.101572,-2.06832 -1.15587,-0.66387 -2.10157,-0.27629 -2.10157,0.86126 0,1.13757 0.9457,2.06832 2.10157,2.06832 1.155862,0 2.101572,-0.38757 2.101572,-0.86126 z m 263.74757,-1.09179 c 0.71436,-1.07418 0.2973,-1.95305 -0.92676,-1.95305 -1.22407,0 -2.2256,0.87887 -2.2256,1.95305 0,1.07417 0.41703,1.95305 0.92676,1.95305 0.50969,0 1.51123,-0.87888 2.2256,-1.95305 z m -8.2821,-6.6641 c -0.39024,-3.30403 0.29974,-4.40568 2.31048,-3.68864 4.36385,1.55623 1.38817,-3.94291 -3.74595,-6.92264 -3.62182,-2.10198 -4.09191,-2.0947 -2.70837,0.0421 1.31328,2.0282 0.90769,2.00772 -1.88166,-0.095 -2.50812,-1.89084 -3.55579,-2.00074 -3.55579,-0.37315 0,1.26911 -0.96112,1.75542 -2.13584,1.08071 -1.17472,-0.67469 -1.51436,-2.26458 -0.75476,-3.53309 0.75961,-1.26848 -0.30578,-0.8311 -2.36752,0.97197 -3.59652,3.14533 -3.59437,3.42268 0.0532,6.83566 2.91085,2.72382 12.21567,9.08119 15.00257,10.25025 0.18724,0.0785 0.09,-1.9772 -0.21613,-4.56827 z M 62.968288,209.62779 c 0.71436,-1.07417 0.35313,-1.95305 -0.80272,-1.95305 -1.15587,0 -2.68606,0.87888 -3.40042,1.95305 -0.71437,1.07417 -0.35313,1.95305 0.80273,1.95305 1.15586,0 2.68605,-0.87888 3.40041,-1.95305 z M 108.7642,195.92902 c 3.58477,-5.96327 3.6116,-6.32778 0.27786,-3.77487 -3.4288,2.62573 -3.60215,2.31808 -2.44873,-4.34579 0.9647,-5.57351 0.45716,-7.49225 -2.27772,-8.61052 -1.93542,-0.79141 -4.22827,-1.29942 -5.095162,-1.12889 -0.8669,0.17053 -1.57618,-0.42234 -1.57618,-1.31746 0,-0.89516 -1.45009,-1.62756 -3.22242,-1.62756 -2.21758,0 -2.54524,0.62934 -1.05079,2.01816 2.79593,2.59833 2.85902,11.6275 0.0701,10.02565 -1.15586,-0.66388 -2.13033,0.38285 -2.16548,2.32604 -0.0604,3.33427 -0.18448,3.34075 -2.206,0.11524 -2.83674,-4.52619 -5.39143,-4.32315 -6.7591,0.53726 -0.89019,3.16353 0.84829,4.90319 8.68658,8.69242 5.38973,2.60553 10.699432,4.50188 11.799332,4.21415 1.0999,-0.28777 3.78539,-3.4935 5.96775,-7.12384 z m 173.15811,1.60649 c 6.30402,-4.67755 4.67952,-21.36119 -2.04042,-20.95535 -1.92428,0.11622 -1.90608,0.39678 0.074,1.13928 1.44483,0.54179 2.62697,1.84258 2.62697,2.89065 0,1.04806 -1.18214,1.28531 -2.62697,0.52725 -2.08845,-1.09575 -2.09434,-0.84459 -0.0288,1.22522 2.06858,2.07275 2.0057,3.22607 -0.30847,5.65741 -1.59868,1.67964 -3.24075,4.73879 -3.64905,6.79813 -1.39577,7.03991 -5.89838,5.78803 -5.60124,-1.55734 0.15341,-3.7902 -0.93434,-8.2497 -2.41704,-9.90998 -1.48248,-1.66031 -1.94933,-3.01871 -1.03722,-3.01871 0.9121,0 1.07293,-0.54405 0.35739,-1.20904 -0.71555,-0.66494 -2.8098,0.19318 -4.65391,1.90694 -2.559,2.37815 -2.83152,4.02141 -1.15086,6.93978 1.21113,2.10311 2.20206,5.57488 2.20206,7.7151 0,5.90674 11.25007,7.04733 18.25369,1.85066 z m -99.25405,0.50895 c 1.71959,-2.58572 -2.04065,-4.28292 -6.20151,-2.79907 -2.80397,0.99995 -2.94914,1.58991 -0.71506,2.90601 3.65232,2.15157 5.4329,2.12405 6.91657,-0.10681 z m 238.55757,-0.0586 c 1.70033,-0.99931 2.3871,-2.47158 1.52615,-3.27166 -0.86095,-0.80012 -3.16405,0.0311 -5.11803,1.84683 -3.79835,3.52992 -1.52455,4.43188 3.59188,1.42483 z m -302.77421,-6.05519 c -4.00031,-2.29761 -4.94415,-0.66759 -1.57981,2.72835 1.643,1.65843 3.16823,2.02878 3.62052,0.87912 0.42984,-1.09257 -0.48848,-2.71594 -2.04071,-3.60747 z m 15.29788,-0.32232 c -0.71721,-4.54132 -1.42519,-5.03398 -4.81284,-3.3491 -5.69657,2.83324 -5.13034,8.67372 0.84089,8.67372 4.04485,0 4.67869,-0.8497 3.97195,-5.3246 z m 27.70198,1.41852 c 0.66532,-1.61126 0.39483,-2.92957 -0.60112,-2.92957 -0.99591,0 -2.35511,1.31831 -3.02044,2.92957 -0.66531,1.61127 -0.39484,2.92957 0.60111,2.92957 0.99591,0 2.35511,-1.3183 3.02045,-2.92957 z m -8.01722,-2.78176 c -0.66029,-0.99287 0.46603,-2.17517 2.50296,-2.62732 3.50962,-0.77906 3.50623,-0.90165 -0.0651,-2.34214 -2.07261,-0.83602 -4.31728,-1.00994 -4.98817,-0.38646 -1.40309,1.30396 0.64979,7.16118 2.50991,7.16118 0.68243,0 0.70054,-0.81235 0.04,-1.80523 z m 20.91746,-2.10085 c 0.71436,-1.07419 0.29731,-1.95305 -0.92676,-1.95305 -1.22408,0 -2.22561,0.87886 -2.22561,1.95305 0,1.07417 0.41704,1.95304 0.92676,1.95304 0.5097,0 1.51125,-0.87887 2.22561,-1.95304 z m 39.75802,-12.90378 c 4.64524,-1.65656 4.14944,-5.70542 -1.6739,-13.66954 l -4.99813,-6.83559 -1.36819,5.06604 c -0.75251,2.78632 -2.18709,4.59572 -3.18795,4.02086 -1.00087,-0.57487 -2.37304,0.29478 -3.04931,1.93257 -0.79774,1.93194 0.578,3.74316 3.91701,5.15701 2.83066,1.19856 4.64762,2.92957 4.03772,3.84668 -1.29567,1.94827 1.59352,2.1685 6.32275,0.48197 z m 51.66047,-7.39427 c 0,-0.42217 -1.46768,-1.29097 -3.26153,-1.93069 -1.87022,-0.66695 -2.7138,-0.33953 -1.97753,0.76757 1.23416,1.8558 5.23906,2.74491 5.23906,1.16312 z m -38.87914,-3.13854 c 0.71437,-1.07417 0.29731,-1.95305 -0.92675,-1.95305 -1.22408,0 -2.2256,0.87888 -2.2256,1.95305 0,1.07418 0.41702,1.95305 0.92675,1.95305 0.5097,0 1.51124,-0.87887 2.2256,-1.95305 z m 29.42133,-9.76316 c 0.7341,-2.14949 2.68958,-3.90818 4.34549,-3.90818 1.65589,0 3.01073,-0.87886 3.01073,-1.95304 0,-5.2436 -13.50181,3.30405 -15.29714,9.68424 -0.92827,3.29883 -0.49262,3.61582 2.75165,2.00224 2.12001,-1.05441 4.45517,-3.67578 5.18927,-5.82526 z m -66.19887,-3.96214 c 0,-0.97707 -1.41315,-1.27254 -3.1403,-0.65661 -1.72716,0.61593 -2.60751,1.921 -1.95635,2.90014 1.36194,2.04793 5.09665,0.40391 5.09665,-2.24353 z m 69.29888,-6.72226 c 1.51448,-1.69588 2.16883,-3.62685 1.45412,-4.29104 -1.63771,-1.52197 -7.25919,2.7364 -10.08117,7.63665 -1.88437,3.27213 -1.65721,3.48323 1.86377,1.73204 2.20533,-1.09684 5.24879,-3.38179 6.76328,-5.07765 z m -82.45989,2.38187 c -0.49597,-1.34272 -3.95087,-2.3565 -7.67748,-2.25284 -6.09535,0.16955 -6.65143,-0.27172 -5.53801,-4.39435 1.23417,-4.56979 -1.61193,-6.36552 -4.11752,-2.59793 -0.726,1.0917 -2.1122,1.52992 -3.0804,0.97383 -0.9682,-0.55607 -1.24478,0.82121 -0.61458,3.06068 1.29022,4.58513 7.14597,7.34455 15.97537,7.52812 3.8834,0.0807 5.64079,-0.72534 5.05264,-2.31751 z m 62.88905,-3.9061 c -0.58299,-1.34271 -1.06002,-0.24413 -1.06002,2.44132 0,2.68544 0.47699,3.78402 1.06002,2.44131 0.58299,-1.34273 0.58299,-3.53991 0,-4.88263 z m 8.71016,1.41311 c -0.64703,-0.6013 -1.82218,0.48264 -2.61138,2.40876 -1.14048,2.78348 -0.89909,3.00782 1.17647,1.09331 1.43625,-1.32482 2.08196,-2.90075 1.43491,-3.50207 z m 55.0468,-2.01663 c 0,-2.72074 -2.39864,-3.62169 -7.8809,-2.9601 -2.36908,0.28588 -3.54663,-2.25345 -2.87583,-6.20161 0.1368,-0.80564 -1.60928,-1.46479 -3.88035,-1.46479 -4.48969,0 -8.57829,5.45928 -8.31431,11.10163 0.0913,1.95042 0.6065,2.54909 1.14504,1.33035 0.94998,-2.14981 14.22829,-0.595 17.01203,1.992 1.82137,1.69263 4.79432,-0.66218 4.79432,-3.79748 z M 271.32346,114.148 c 0.45348,-3.84941 -0.074,-5.83516 -1.35452,-5.09966 -1.89632,1.08915 -3.01492,-1.5085 -2.33146,-5.41408 0.14502,-0.82799 -2.08439,-1.10978 -4.95399,-0.6262 -4.27317,0.72011 -5.1316,0.15124 -4.74313,-3.143276 0.30289,-2.56853 -0.88636,-4.22536 -3.29005,-4.58369 -2.77757,-0.41404 -3.4498,0.35997 -2.56434,2.95264 0.70663,2.069096 -0.019,3.948736 -1.76619,4.571616 -1.6314,0.58176 -3.3611,4.20137 -3.84378,8.04349 -0.80049,6.37217 -0.40705,6.99774 4.47978,7.12295 2.94653,0.0755 7.24876,0.83429 9.56049,1.6862 7.06918,2.60513 10.02898,1.0961 10.80719,-5.50999 z m -28.67058,-6.01486 c 0,-7.74927 -4.01947,-17.487526 -7.35551,-17.820746 -1.15586,-0.11541 0.2627,-0.958604 3.15237,-1.873673 l 5.25394,-1.663754 -5.25394,0.393662 c -3.68497,0.276112 -5.45449,1.70592 -5.9255,4.788005 -0.36935,2.4169 -2.05482,4.39436 -3.74549,4.39436 -3.43345,0 -7.69725,-8.412486 -4.78444,-9.439734 1.0153,-0.358079 1.84598,-1.632419 1.84598,-2.831919 0,-1.51542 -0.76953,-1.465757 -2.52189,0.162774 -3.43036,3.187923 -7.98599,2.957994 -7.98599,-0.403061 0,-5.630649 -7.56107,-0.726966 -11.71463,7.59744 l -4.25703,8.53179 9.56201,2.288306 c 5.25911,1.25858 10.98058,2.7814 12.71439,3.38406 1.73379,0.60264 3.73608,0.99511 4.44956,0.87211 0.71347,-0.12298 3.33094,1.78817 5.8166,4.24704 6.82482,6.75122 10.74957,5.79222 10.74957,-2.62666 z m 82.87212,-2.62841 c -0.5824,-1.4105 0.86583,-4.18333 3.21831,-6.161846 4.62842,-3.89263 5.5567,-6.898 2.13064,-6.898 -1.18065,0 -3.22386,2.19718 -4.54047,4.88262 -1.31664,2.685446 -3.84139,4.882626 -5.61055,4.882626 -2.49615,0 -2.30291,0.64232 0.86271,2.86746 5.06948,3.56338 5.24208,3.58209 3.93936,0.42717 z m 8.37859,-3.04234 c 0.62214,-0.93544 4.15003,-2.26191 7.83982,-2.947716 7.41799,-1.37874 27.79642,-14.818628 31.05892,-20.483835 1.14359,-1.985817 1.61253,-6.002516 1.04209,-8.926004 -0.57045,-2.923481 -0.25554,-4.866489 0.69978,-4.317798 0.95531,0.548685 1.83686,-0.918958 1.95898,-3.261437 0.12209,-2.342481 -0.23518,-3.154991 -0.79402,-1.805576 -0.55882,1.34941 -1.88103,1.956698 -2.93816,1.34952 -1.05714,-0.607154 -1.92208,0.266225 -1.92208,1.940884 0,1.674654 -1.00153,3.044833 -2.22561,3.044833 -1.22409,0 -1.6478,0.868807 -0.94163,1.930679 0.73053,1.098468 -0.0933,1.439538 -1.9111,0.791266 -1.75728,-0.626679 -2.98854,-1.715197 -2.73612,-2.418942 0.25246,-0.703738 -0.48678,-1.499245 -1.64263,-1.76779 -1.15586,-0.268543 -2.10157,0.610328 -2.10157,1.953049 0,3.381159 -6.03453,3.154881 -7.50472,-0.281422 -0.65999,-1.542615 -2.79235,-3.021952 -4.73855,-3.287407 -2.06025,-0.280995 -2.95809,0.390183 -2.14913,1.606608 0.88711,1.333956 -0.1923,1.704852 -2.98584,1.025954 -3.35835,-0.816161 -4.94714,0.219779 -6.83577,4.457088 -2.86667,6.431625 -1.4699,9.621221 3.72576,8.507965 4.34742,-0.931506 9.36568,2.376012 12.8634,8.478207 2.19501,3.829498 2.01051,4.394358 -1.43542,4.394358 -2.17481,0 -6.83711,1.33654 -10.36068,2.9701 -7.13052,3.30579 -12.93592,8.748206 -9.33166,8.748206 1.22917,0 2.74386,-0.76536 3.36594,-1.70079 z m -17.6956,-6.111406 c 0,-1.07418 -1.00153,-1.95305 -2.22561,-1.95305 -1.2241,0 -1.64112,0.87887 -0.92676,1.95305 0.71436,1.07417 1.7159,1.95305 2.22561,1.95305 0.50969,0 0.92676,-0.87888 0.92676,-1.95305 z M 200.54691,82.777308 c 0.12361,-4.695555 -3.70327,0.310535 -5.15065,6.738016 l -1.31941,5.85914 3.19781,-4.88262 c 1.75879,-2.685437 3.23132,-6.15698 3.27225,-7.714536 z m -28.09609,7.412776 c 0.89536,-1.346315 0.57991,-1.726605 -0.78296,-0.943847 -1.25537,0.721027 -3.71766,-0.593239 -5.47176,-2.920564 -3.16069,-4.193591 -3.18633,-4.195099 -2.85991,-0.167962 0.18113,2.234952 1.01342,3.670673 1.84949,3.190475 0.83605,-0.480206 2.11412,0.02014 2.84013,1.111828 1.6994,2.55535 2.58191,2.50152 4.42501,-0.26989 z m 8.41578,-2.823113 c -0.74793,-1.811336 -1.83274,-2.853903 -2.41068,-2.316816 -0.57793,0.537089 -0.43884,2.458528 0.30913,4.269864 0.74793,1.811335 1.83274,2.853905 2.41068,2.316815 0.57793,-0.53709 0.43884,-2.458527 -0.30913,-4.269863 z M 150.01769,76.332249 c -0.0913,-2.416897 -0.64485,-3.290293 -1.23027,-1.940878 -0.58543,1.34941 -1.91847,1.962918 -2.96239,1.36335 -1.04389,-0.599586 -1.33479,0.273792 -0.64643,1.940878 1.87443,4.539451 5.02844,3.650857 4.83911,-1.36335 z m 180.30144,-2.44131 c 3.98528,-6.098661 3.44915,-11.447981 -0.97631,-9.741566 -2.02276,0.779956 -4.8183,1.459897 -6.21227,1.510982 -1.39399,0.05127 -2.04746,0.825279 -1.45215,1.720421 0.59527,0.89515 0.30834,1.627543 -0.6377,1.627543 -0.94602,0 -2.80936,1.620963 -4.14071,3.602141 -2.1551,3.206953 -1.83045,3.497287 2.95917,2.646404 3.75408,-0.666923 4.92071,-0.26537 3.86051,1.328866 -0.90351,1.358578 -0.39122,2.067083 1.26381,1.74796 1.53073,-0.295154 3.93178,-2.294397 5.33565,-4.442751 z M 200.6214,56.428766 c 0,-0.473674 -0.94571,-1.40443 -2.10158,-2.068307 -1.15587,-0.663878 -2.10157,-0.276296 -2.10157,0.861263 0,1.137565 0.9457,2.068308 2.10157,2.068308 1.15587,0 2.10158,-0.387558 2.10158,-0.861264 z m 78.09007,295.771544 c 0,-2.68545 0.47698,-3.78404 1.06001,-2.44132 0.58299,1.34272 0.58299,3.5399 0,4.88262 -0.58299,1.34273 -1.06001,0.24413 -1.06001,-2.4413 z m 9.12527,-35.15487 c -1.53626,-2.31003 0.5202,-2.31003 6.30472,0 4.05233,1.61828 4.03792,1.68343 -0.40134,1.81577 -2.5325,0.0755 -5.18902,-0.7416 -5.90338,-1.81577 z"
         id="path1034" />
    </g>
  </g>
</svg>
