<?xml version="1.0" encoding="UTF-8" standalone="no"?>
<svg
   width="512"
   height="512"
   version="1.1"
   viewBox="0 0 135.47 135.47"
   id="svg866"
   sodipodi:docname="nbtscan.svg"
   inkscape:version="1.2.2 (b0a8486541, 2022-12-01)"
   xmlns:inkscape="http://www.inkscape.org/namespaces/inkscape"
   xmlns:sodipodi="http://sodipodi.sourceforge.net/DTD/sodipodi-0.dtd"
   xmlns="http://www.w3.org/2000/svg"
   xmlns:svg="http://www.w3.org/2000/svg">
  <sodipodi:namedview
     id="namedview868"
     pagecolor="#505050"
     bordercolor="#eeeeee"
     borderopacity="1"
     inkscape:showpageshadow="0"
     inkscape:pageopacity="0"
     inkscape:pagecheckerboard="0"
     inkscape:deskcolor="#505050"
     showgrid="false"
     inkscape:zoom="0.88671875"
     inkscape:cx="235.13656"
     inkscape:cy="256"
     inkscape:window-width="1366"
     inkscape:window-height="705"
     inkscape:window-x="0"
     inkscape:window-y="26"
     inkscape:window-maximized="1"
     inkscape:current-layer="svg866" />
  <defs
     id="defs840">
    <linearGradient
       id="b"
       x1="969.23"
       x2="969.23"
       y1="1072.3"
       y2="907.22"
       gradientTransform="matrix(0.09937,0,0,-0.10031,-28.887,203.06)"
       gradientUnits="userSpaceOnUse">
      <stop
         stop-color="#e43030"
         offset="0"
         id="stop832" />
      <stop
         stop-color="#fd3535"
         stop-opacity="0"
         offset="1"
         id="stop834" />
    </linearGradient>
    <filter
       id="a"
       x="-0.025696241"
       y="-0.36364718"
       width="1.0513925"
       height="1.7272944"
       color-interpolation-filters="sRGB">
      <feGaussianBlur
         stdDeviation="1.2931626"
         id="feGaussianBlur837" />
    </filter>
  </defs>
  <g
     id="g989"
     transform="translate(-0.45384345,0.0015)">
    <path
       d="m 14.931,17.074 v 36.527 h 7.0573 V 24.134 h 29.469 v -7.0591 z m 69.07,0 v 7.0591 h 29.469 v 29.467 h 7.0592 v -36.527 z m -69.07,69.072 v 36.527 h 36.527 v -7.0573 H 21.989 v -29.469 z m 98.536,0 v 29.469 H 83.998 v 7.0573 h 36.529 v -36.527 z"
       color="#000000"
       color-rendering="auto"
       dominant-baseline="auto"
       fill="#272a34"
       image-rendering="auto"
       shape-rendering="auto"
       solid-color="#000000"
       stop-color="#000000"
       stroke-width="0.88692"
       style="font-variant-ligatures:normal;font-variant-position:normal;font-variant-caps:normal;font-variant-numeric:normal;font-variant-alternates:normal;font-variant-east-asian:normal;font-feature-settings:normal;font-variation-settings:normal;text-indent:0;text-decoration-line:none;text-decoration-style:solid;text-decoration-color:#000000;text-transform:none;text-orientation:mixed;white-space:normal;shape-padding:0;shape-margin:0;inline-size:0;isolation:auto;mix-blend-mode:normal;fill:#181b22;fill-opacity:1"
       id="path842" />
    <path
       d="M 14.931,12.794 V 49.32 h 7.0572 V 19.854 h 29.469 v -7.0591 h -36.525 z m 69.07,0 v 7.0591 h 29.469 v 29.466 h 7.059 V 12.7941 H 84.001 Z m -69.07,69.072 v 36.526 h 36.525 v -7.0572 H 21.987 v -29.469 h -7.0572 z m 98.536,0 v 29.47 H 83.998 v 7.0572 h 36.528 v -36.525 h -7.059 z"
       color="#000000"
       color-rendering="auto"
       dominant-baseline="auto"
       fill="#272a34"
       image-rendering="auto"
       shape-rendering="auto"
       solid-color="#000000"
       stop-color="#000000"
       stroke-width="0.23466"
       style="font-variant-ligatures:normal;font-variant-position:normal;font-variant-caps:normal;font-variant-numeric:normal;font-variant-alternates:normal;font-variant-east-asian:normal;font-feature-settings:normal;font-variation-settings:normal;text-indent:0;text-decoration-line:none;text-decoration-style:solid;text-decoration-color:#000000;text-transform:none;text-orientation:mixed;white-space:normal;shape-padding:0;shape-margin:0;inline-size:0;isolation:auto;mix-blend-mode:normal"
       id="path844" />
    <g
       transform="matrix(0.96667,0,0,0.96667,7.7758,4.1467)"
       id="g856">
      <path
         d="M 4.5179,41.445 V 94.02 h 22.658 v -9.2849 l 5.8642,9.2849 h 38.24 c 6.1008,0 11.706,-1.5599 16.043,-4.9481 4.3365,-3.3882 7.0848,-8.8213 7.0848,-14.565 0,-4.1345 -1.6933,-7.9921 -4.2849,-11.083 h 5.1675 v 30.596 h 22.997 v -30.596 h 12.193 v -21.979 h -47.271 v 2.7732 c -3.9017,-2.1199 -8.3973,-2.7732 -13.509,-2.7732 h -38.056 l -0.03926,8.8431 -5.4784,-8.8431 z m 63.465,17.926 0.23346,0.23346 -0.31668,0.31668 c -0.0038,-0.04554 -0.04554,-0.1055 -0.04554,-0.14866 0,-0.13805 0.09522,-0.26055 0.12878,-0.40148 z"
         color="#000000"
         color-rendering="auto"
         dominant-baseline="auto"
         fill="none"
         image-rendering="auto"
         opacity="0.2"
         shape-rendering="auto"
         solid-color="#000000"
         stop-color="#000000"
         stroke="#000000"
         stroke-width="2.7371"
         style="font-variant-ligatures:normal;font-variant-position:normal;font-variant-caps:normal;font-variant-numeric:normal;font-variant-alternates:normal;font-variant-east-asian:normal;font-feature-settings:normal;font-variation-settings:normal;text-indent:0;text-decoration-line:none;text-decoration-style:solid;text-decoration-color:#000000;text-transform:none;text-orientation:mixed;white-space:normal;shape-padding:0;shape-margin:0;inline-size:0;isolation:auto;mix-blend-mode:normal"
         id="path848" />
      <path
         d="M 4.5179,41.445 V 94.02 h 22.658 v -9.2849 l 5.8642,9.2849 h 38.24 c 6.1008,0 11.706,-1.5599 16.043,-4.9481 4.3365,-3.3882 7.0848,-8.8213 7.0848,-14.565 0,-4.1345 -1.6933,-7.9921 -4.2849,-11.083 h 5.1675 v 30.596 h 22.997 v -30.596 h 12.193 v -21.979 h -47.271 v 2.7732 c -3.9017,-2.1199 -8.3973,-2.7732 -13.509,-2.7732 h -38.056 l -0.03926,8.8431 -5.4784,-8.8431 z"
         color="#000000"
         color-rendering="auto"
         dominant-baseline="auto"
         fill="#ffffff"
         image-rendering="auto"
         shape-rendering="auto"
         solid-color="#000000"
         stop-color="#000000"
         style="font-variant-ligatures:normal;font-variant-position:normal;font-variant-caps:normal;font-variant-numeric:normal;font-variant-alternates:normal;font-variant-east-asian:normal;font-feature-settings:normal;font-variation-settings:normal;text-indent:0;text-decoration-line:none;text-decoration-style:solid;text-decoration-color:#000000;text-transform:none;text-orientation:mixed;white-space:normal;shape-padding:0;shape-margin:0;inline-size:0;isolation:auto;mix-blend-mode:normal"
         id="path850" />
      <g
         stroke-width="1.4113"
         aria-label="NBT"
         id="g854">
        <path
           transform="matrix(0.27371,0,0,0.27371,-8.0439,-4.2897)"
           d="M 71.734,192.57 V 335.7 h 33.824 v -94.043 l 59.396,94.043 h 40.01 V 192.57 h -34.236 l -0.41211,93.221 -57.746,-93.221 h -40.836 z m 162.52,0 V 335.7 h 56.922 c 36.092,0 60.016,-18.766 60.016,-46.814 0,-17.736 -9.0755,-30.524 -25.162,-36.711 8.2495,-6.1871 12.994,-15.468 12.994,-25.986 0,-22.067 -18.356,-33.617 -53.623,-33.617 h -51.146 z m 124.98,0 v 31.35 h 44.135 V 335.7 H 438.43 V 223.92 h 44.547 v -31.35 h -123.74 z m -89.92,28.049 h 14.023 c 11.962,0 19.799,5.7755 19.799,14.438 0,5.156 -2.68,9.6932 -7.8359,13.199 h -25.986 v -27.637 z m 0,54.859 h 24.543 c 12.787,0 20.211,6.6002 20.211,16.912 0,10.106 -6.1866,15.262 -18.148,15.262 h -26.605 v -32.174 z"
           stroke-width="5.1561"
           id="path852" />
      </g>
    </g>
    <path
       d="M 21.971,111.78 6.029,86.016 l 123.25,-0.24348 -15.809,25.567 z"
       fill="url(#b)"
       fill-rule="evenodd"
       opacity="0.85"
       stroke-width="0.40474"
       id="path858"
       style="fill:url(#b)" />
    <path
       transform="matrix(1.0486,0,0,1.0486,-183.63,-16.967)"
       d="m 295.97,94.794 c -1.6157,0.004 -3.0124,0.94838 -3.6822,2.3106 l -105.17,0.28074 c -0.67744,-1.3579 -2.0795,-2.2947 -3.6947,-2.2904 -2.2674,0.006 -4.1122,1.8594 -4.1061,4.1269 0.006,2.2674 1.8613,4.1121 4.1287,4.1061 1.6152,-0.004 3.0118,-0.94838 3.6818,-2.3096 l 105.17,-0.28189 c 0.67675,1.3575 2.0778,2.2942 3.6928,2.2899 2.2674,-0.006 4.1126,-1.8594 4.1066,-4.1269 -0.006,-2.2674 -1.8599,-4.1121 -4.1273,-4.1061 z"
       color="#000000"
       color-rendering="auto"
       dominant-baseline="auto"
       filter="url(#a)"
       image-rendering="auto"
       shape-rendering="auto"
       solid-color="#000000"
       stop-color="#000000"
       style="font-variant-ligatures:normal;font-variant-position:normal;font-variant-caps:normal;font-variant-numeric:normal;font-variant-alternates:normal;font-variant-east-asian:normal;font-feature-settings:normal;font-variation-settings:normal;text-indent:0;text-decoration-line:none;text-decoration-style:solid;text-decoration-color:#000000;text-transform:none;text-orientation:mixed;white-space:normal;shape-padding:0;shape-margin:0;inline-size:0;isolation:auto;mix-blend-mode:normal"
       id="path860" />
    <path
       transform="matrix(1.0486,0,0,1.0486,-183.63,-16.967)"
       d="m 295.97,93.736 c -1.6157,0.004 -3.0124,0.94838 -3.6822,2.3106 l -105.17,0.28074 c -0.67744,-1.3579 -2.0795,-2.2947 -3.6947,-2.2904 -2.2674,0.006 -4.1122,1.8594 -4.1061,4.1269 0.006,2.2674 1.8613,4.1121 4.1287,4.1061 1.6152,-0.004 3.0118,-0.94838 3.6818,-2.3096 l 105.17,-0.28189 c 0.67675,1.3575 2.0778,2.2942 3.6928,2.2899 2.2674,-0.006 4.1126,-1.8594 4.1066,-4.1269 -0.006,-2.2674 -1.8599,-4.1121 -4.1273,-4.1061 z"
       color="#000000"
       color-rendering="auto"
       dominant-baseline="auto"
       fill="#fd3535"
       filter="url(#a)"
       image-rendering="auto"
       shape-rendering="auto"
       solid-color="#000000"
       stop-color="#000000"
       style="font-variant-ligatures:normal;font-variant-position:normal;font-variant-caps:normal;font-variant-numeric:normal;font-variant-alternates:normal;font-variant-east-asian:normal;font-feature-settings:normal;font-variation-settings:normal;text-indent:0;text-decoration-line:none;text-decoration-style:solid;text-decoration-color:#000000;text-transform:none;text-orientation:mixed;white-space:normal;shape-padding:0;shape-margin:0;inline-size:0;isolation:auto;mix-blend-mode:normal"
       id="path862" />
    <path
       d="m 126.73,81.326 c -1.6943,0.0041 -3.1589,0.99449 -3.8612,2.4229 l -110.28,0.29439 c -0.71038,-1.4239 -2.1806,-2.4063 -3.8744,-2.4018 -2.3776,0.0063 -4.3122,1.9498 -4.3058,4.3275 0.00627,2.3776 1.9518,4.312 4.3294,4.3058 1.6937,-0.0041 3.1582,-0.99449 3.8608,-2.4219 l 110.28,-0.29559 c 0.70965,1.4235 2.1788,2.4058 3.8723,2.4013 2.3776,-0.0063 4.3125,-1.9498 4.3062,-4.3275 -0.006,-2.3776 -1.9504,-4.312 -4.328,-4.3058 z"
       color="#000000"
       color-rendering="auto"
       dominant-baseline="auto"
       fill="#fd3535"
       image-rendering="auto"
       shape-rendering="auto"
       solid-color="#000000"
       stop-color="#000000"
       stroke-width="1.0486"
       style="font-variant-ligatures:normal;font-variant-position:normal;font-variant-caps:normal;font-variant-numeric:normal;font-variant-alternates:normal;font-variant-east-asian:normal;font-feature-settings:normal;font-variation-settings:normal;text-indent:0;text-decoration-line:none;text-decoration-style:solid;text-decoration-color:#000000;text-transform:none;text-orientation:mixed;white-space:normal;shape-padding:0;shape-margin:0;inline-size:0;isolation:auto;mix-blend-mode:normal"
       id="path864" />
  </g>
</svg>
