<?xml version="1.0" encoding="UTF-8" standalone="no"?>
<!-- Created with Inkscape (http://www.inkscape.org/) -->

<svg
   version="1.1"
   id="svg896"
   width="512"
   height="512"
   viewBox="0 0 512 512"
   sodipodi:docname="nemesis.svg"
   inkscape:version="1.1.2 (0a00cf5339, 2022-02-04)"
   xmlns:inkscape="http://www.inkscape.org/namespaces/inkscape"
   xmlns:sodipodi="http://sodipodi.sourceforge.net/DTD/sodipodi-0.dtd"
   xmlns="http://www.w3.org/2000/svg"
   xmlns:svg="http://www.w3.org/2000/svg">
  <defs
     id="defs900" />
  <sodipodi:namedview
     id="namedview898"
     pagecolor="#000000"
     bordercolor="#eeeeee"
     borderopacity="1"
     inkscape:pageshadow="0"
     inkscape:pageopacity="0"
     inkscape:pagecheckerboard="0"
     showgrid="false"
     inkscape:zoom="0.64305977"
     inkscape:cx="258.14086"
     inkscape:cy="308.68048"
     inkscape:window-width="1366"
     inkscape:window-height="695"
     inkscape:window-x="0"
     inkscape:window-y="24"
     inkscape:window-maximized="1"
     inkscape:current-layer="g902" />
  <g
     inkscape:groupmode="layer"
     inkscape:label="Image"
     id="g902">
    <g
       id="g14523"
       transform="translate(-0.65570629,-0.43253116)">
      <path
         style="fill:#ffffff;fill-opacity:1;stroke-width:2.23768"
         d="m 288.47935,392.17137 c -0.9601,-0.96009 -0.82471,-2.20609 1.00366,-9.23661 1.20131,-4.61937 1.7408,-8.22795 2.00256,-13.39499 l 0.35828,-7.07231 2.38443,-3.17198 c 1.31144,-1.7446 3.04776,-3.60663 3.85851,-4.13784 1.43032,-0.93719 1.50283,-0.93034 2.4429,0.23059 1.35677,1.67554 2.89251,8.94545 2.42082,11.45974 -1.14056,6.07971 -7.67027,20.6312 -10.67546,23.79031 -2.23536,2.34985 -2.76501,2.56378 -3.7957,1.53309 z"
         id="path14379" />
      <path
         style="fill:#e39155;fill-opacity:1;stroke-width:6.32912"
         d="m 116.42264,255.93568 c -5.57705,-3.40072 -9.90066,-8.96128 -9.90066,-12.73315 0,-1.42082 3.27366,-7.36436 7.2748,-13.20787 10.48136,-15.30762 13.22664,-23.50457 14.01003,-41.83175 l 0.66471,-15.55065 -3.28743,6.99779 c -1.80808,3.84879 -5.50538,9.29368 -8.21621,12.09977 -4.35176,4.50465 -5.0569,4.77773 -6.02298,2.33259 -3.93696,-9.96434 0.4729,-34.95233 7.54574,-42.75707 2.22072,-2.45053 2.98361,-6.74494 3.66513,-20.63169 0.77111,-15.71223 1.38804,-18.60827 5.92894,-27.83214 2.78755,-5.662316 5.63673,-10.295118 6.33151,-10.295118 0.69478,0 1.64992,1.924393 2.12253,4.276429 0.47261,2.352037 2.50113,6.709009 4.50782,9.682149 4.13351,6.12429 14.11926,13.49965 14.94078,11.0351 0.29649,-0.88947 -0.91501,-5.50361 -2.69223,-10.25365 -4.51641,-12.071182 -4.40041,-26.557922 0.26759,-33.416627 4.90931,-7.213276 9.99394,-10.558846 19.4347,-12.787581 8.05479,-1.90154 8.19092,-2.03118 10.5101,-10.008891 3.42729,-11.789461 10.83351,-20.584913 22.35642,-26.549949 9.11396,-4.718008 10.84055,-5.065054 25.19915,-5.065054 17.08212,0 16.63565,-0.365928 13.2814,10.885457 -2.02668,6.79823 -2.29519,7.022349 -9.41512,7.858831 -8.42455,0.989754 -10.41931,3.177133 -9.85074,10.801954 0.38672,5.186039 0.70778,5.464803 6.80758,5.910779 l 6.40172,0.46805 1.06928,11.972473 c 0.5881,6.584861 1.42654,13.425469 1.86319,15.201352 0.69824,2.839822 -0.29565,3.46965 -8.24853,5.227074 -11.21251,2.477734 -12.93011,3.833316 -12.93011,10.204832 0,7.41716 2.3166,8.52058 13.21806,6.29593 l 9.33039,-1.90405 1.08365,4.80185 c 0.596,2.64102 1.56373,10.53524 2.1505,17.54271 l 1.06687,12.74086 -8.27895,0.4772 c -7.95767,0.45868 -8.33139,0.68068 -9.63067,5.7208 -2.06488,8.01007 -0.77064,9.52952 8.11707,9.52952 9.27975,0 9.61591,1.08954 3.98796,12.92559 -5.59602,11.7689 -16.22164,23.04959 -27.24556,28.92528 -5.26302,2.80515 -9.88674,4.78268 -10.27492,4.39449 -0.38819,-0.38817 -1.13985,-5.35395 -1.67036,-11.03505 -1.05343,-11.28096 -2.31768,-12.27529 -10.7327,-8.44115 -4.05125,1.84588 -4.12755,2.14391 -3.41022,13.32144 l 0.73375,11.43334 -6.38212,2.53001 c -3.51016,1.39152 -10.76216,4.84198 -16.11557,7.66769 l -9.73345,5.13765 -2.48715,-6.216 c -2.89524,-7.2359 -4.88548,-7.69242 -9.96484,-2.2857 -3.46441,3.6877 -3.57526,4.36795 -1.79594,11.02064 l 1.89638,7.09036 -7.22353,9.58397 c -3.97294,5.27118 -8.31481,11.85825 -9.6486,14.63793 -2.81463,5.86583 -4.00505,6.09823 -10.60916,2.07125 z"
         id="path1357" />
      <path
         style="fill:#e39155;fill-opacity:1;stroke-width:6.32912"
         d="m 296.55097,207.29022 c -2.81218,-2.81218 -2.2455,-13.64991 1.24406,-23.7925 3.71574,-10.80002 3.6622,-10.10793 0.78201,-10.10793 -3.11099,0 -13.90743,9.88793 -17.96506,16.45329 l -3.25536,5.26731 -6.26358,-3.19545 c -3.44497,-1.7575 -9.27311,-5.96953 -12.95143,-9.36009 l -6.68786,-6.16465 4.10915,-9.2973 c 3.04813,-6.89664 4.71453,-9.04152 6.45369,-8.30671 12.3968,5.2378 12.33359,5.25577 13.55551,-3.85434 0.82832,-6.17562 0.7298,-6.32857 -6.26605,-9.72741 l -7.1076,-3.45314 -0.47373,-18.92676 -0.47373,-18.92677 5.44273,0.14581 c 5.43553,0.14561 5.44273,0.13655 5.44273,-6.851992 0,-6.869265 -0.12155,-7.036254 -6.61707,-9.091709 -7.73769,-2.448522 -8.51758,-4.358484 -7.84646,-19.216095 l 0.46794,-10.359498 7.46526,3.23778 c 8.78704,3.811058 10.73123,2.741966 11.00845,-6.053457 0.17531,-5.561855 -0.27718,-6.179959 -7.19499,-9.828476 -4.06013,-2.141351 -7.38408,-4.46342 -7.38656,-5.160153 -0.002,-0.696731 1.40459,-4.545518 3.12681,-8.552859 l 3.13131,-7.286075 17.5569,0.777533 c 16.53618,0.732329 18.27531,1.131953 29.91383,6.873723 8.47044,4.178824 15.41379,9.146783 22.07609,15.795433 8.34996,8.332849 9.71916,10.493154 9.71916,15.334764 0,7.185763 -2.3959,8.096667 -12.48344,4.746125 -4.36364,-1.449369 -8.29436,-2.274746 -8.73494,-1.834172 -1.60396,1.603959 4.23042,8.337653 9.93026,11.460927 3.21496,1.761665 10.86733,4.697666 17.00527,6.52445 14.38702,4.281893 26.18539,14.557853 33.29435,28.998211 5.61015,11.39584 7.58703,26.46633 4.64221,35.38925 l -1.83289,5.55368 -5.30981,-2.21858 c -2.9204,-1.22022 -7.056,-2.21858 -9.19024,-2.21858 -3.5276,0 -3.04956,0.813 5.25769,8.94163 11.4789,11.23208 13.66256,17.74249 10.04119,29.93697 -2.24933,7.57432 -9.301,17.10376 -12.65657,17.10376 -3.70787,0 -6.90989,-4.86764 -9.59561,-14.58703 -1.62608,-5.88465 -3.89992,-11.29722 -5.05296,-12.02793 -6.14422,-3.89379 -14.52407,-0.0292 -33.9753,15.6684 -16.12382,13.01235 -27.30831,17.22765 -32.34536,12.19061 z"
         id="path11497" />
      <path
         style="fill:#e39155;fill-opacity:1;stroke-width:6.32912"
         d="m 176.79733,352.90396 c -0.71589,-7.7173 -7.1777,-28.75014 -12.11738,-39.44144 -3.87918,-8.39598 -8.40634,-14.76265 -16.24744,-22.8492 l -10.86985,-11.21013 3.13003,-7.94093 c 4.30064,-10.91083 10.53546,-23.00429 12.47927,-24.20563 0.88672,-0.54803 4.22398,1.03447 7.41613,3.51666 9.30714,7.23715 9.57386,7.28468 14.48313,2.58131 2.49636,-2.39167 4.53883,-5.17361 4.53883,-6.18211 0,-1.0085 -3.20421,-4.33001 -7.12047,-7.38114 l -7.12047,-5.54751 5.95417,-3.89597 c 3.2748,-2.14279 9.55962,-5.30109 13.96628,-7.01845 l 8.01211,-3.12247 4.06172,6.13767 c 4.32692,6.53842 6.2179,7.19405 12.49727,4.33298 4.63855,-2.11346 4.94484,-4.60253 1.32121,-10.73683 -1.45179,-2.45769 -2.32651,-4.72565 -1.94383,-5.03991 0.38268,-0.31426 4.54458,-2.80261 9.24865,-5.52966 4.70407,-2.72706 10.21254,-6.13227 12.24105,-7.56715 l 3.68818,-2.60886 -1.05259,10.03452 c -0.57893,5.51898 -1.79184,13.8833 -2.69536,18.58737 -1.72685,8.99058 -4.44117,12.26361 -27.16033,32.75091 -5.49028,4.95093 -8.67706,9.41141 -10.55462,14.77312 -1.47931,4.22444 -5.25198,12.92914 -8.38371,19.34378 -5.65293,11.57878 -5.70047,11.84266 -6.58431,36.54404 -0.48965,13.68458 -1.0241,23.43834 -1.18767,21.67503 z"
         id="path13447" />
      <path
         style="fill:#e39155;fill-opacity:1;stroke-width:6.32912"
         d="m 314.45378,296.79146 c -1.46316,-12.02314 -5.81931,-23.37142 -11.53421,-30.048 -6.80937,-7.95521 -23.32457,-16.09436 -42.44611,-20.91862 -13.36257,-3.3713 -14.32769,-3.85129 -10.10793,-5.027 2.56586,-0.71491 8.68893,-1.27933 13.60682,-1.25427 4.9179,0.0251 8.94163,-0.44138 8.94163,-1.03654 0,-1.56301 -12.41907,-7.34227 -18.30933,-8.52032 L 249.588,228.98338 V 215.0158 c 0,-12.65408 0.25591,-13.87172 2.72136,-12.94819 7.75839,2.90618 21.00754,12.49844 35.13699,25.43883 19.47912,17.83986 31.08829,24.07848 46.41857,24.94472 9.74992,0.55092 11.58485,0.12205 22.45176,-5.24738 10.34309,-5.11062 12.54501,-5.67165 17.47668,-4.45292 4.14741,1.02491 6.32962,2.77024 8.23528,6.58658 2.45131,4.90902 2.68451,5.0206 4.27643,2.04606 2.05041,-3.83122 2.21041,-15.01147 0.26681,-18.64313 -1.08476,-2.02689 -0.0421,-4.12147 4.44752,-8.93459 l 5.86446,-6.28701 3.23749,4.76039 c 6.85012,10.07243 8.53716,22.02341 4.27294,30.26952 -2.89635,5.60092 -17.11888,18.54484 -25.4765,23.18616 l -6.47963,3.5984 V 272.468 c 0,-7.07571 -2.58576,-16.65974 -4.49479,-16.65974 -0.59423,0 -1.93192,3.18368 -2.97265,7.07485 -2.6956,10.07855 -5.99402,14.37301 -14.25444,18.55888 -3.9832,2.01844 -8.15864,4.77415 -9.27875,6.1238 -2.59378,3.12532 -4.76587,3.14541 -4.76587,0.0441 0,-5.14598 -9.33298,-19.3611 -12.71159,-19.3611 -0.7062,0 -1.284,3.00199 -1.284,6.67108 0,6.65352 -3.57006,22.74949 -6.01469,27.1178 -0.87774,1.56843 -1.58194,-0.10505 -2.2076,-5.2462 z"
         id="path13486" />
      <path
         style="fill:#e39155;fill-opacity:1;stroke-width:6.32912"
         d="m 327.9996,448.63637 c 0.60609,-2.13822 2.24138,-7.73645 3.63397,-12.44052 3.90096,-13.17718 3.45569,-41.71988 -0.98817,-63.3438 l -3.59007,-17.46936 3.38532,-10.52182 c 4.96613,-15.43512 11.87773,-27.44298 20.36586,-35.38264 4.12656,-3.8599 8.08523,-7.01801 8.79706,-7.01801 0.71183,0 -1.55981,5.82932 -5.04809,12.95405 -9.80347,20.02336 -10.52094,24.63463 -11.53398,74.12961 -0.99523,48.62445 -1.0675,49.00421 -11.09803,58.31496 -4.99977,4.64099 -5.02013,4.64502 -3.92387,0.77753 z"
         id="path13525" />
      <path
         style="fill:#e39155;fill-opacity:1;stroke-width:6.32912"
         d="m 358.44258,402.83119 c 0,-5.77003 1.2349,-9.3765 5.67233,-16.56571 3.86608,-6.26354 5.90982,-11.6614 6.41811,-16.95134 0.88145,-9.1734 -0.98371,-9.9924 -7.93657,-3.485 l -4.56918,4.27643 0.9116,-13.99559 c 0.82272,-12.63108 1.60402,-15.3601 8.01364,-27.99118 3.90612,-7.69757 8.45237,-15.74504 10.10278,-17.88325 l 3.00073,-3.88767 -0.89208,8.70645 c -0.53842,5.25483 0.19088,15.30893 1.83963,25.36078 1.62128,9.8844 2.3547,19.8377 1.80423,24.48554 -1.0104,8.5312 -9.72931,26.13825 -18.87452,38.11536 l -5.4907,7.19097 z"
         id="path13564" />
      <path
         style="fill:#e39155;fill-opacity:1;stroke-width:6.32912"
         d="m 273.69151,459.90934 c -2.56586,-0.29477 -8.51398,-1.66012 -13.21805,-3.0341 -4.70408,-1.37398 -13.45132,-2.9273 -19.43832,-3.45183 l -10.88546,-0.9537 5.44273,-3.03639 c 4.47067,-2.4941 9.60867,-3.18989 28.76871,-3.89585 29.16987,-1.07478 35.93757,-3.62437 42.14695,-15.878 4.86344,-9.59754 9.33541,-26.73019 10.92765,-41.86515 l 1.20651,-11.46849 1.12412,6.99779 c 2.94085,18.30715 0.67269,43.62848 -4.8709,54.37796 -7.42448,14.39668 -25.3058,24.0342 -41.20394,22.20776 z"
         id="path13603" />
      <path
         style="fill:#e39155;fill-opacity:1;stroke-width:6.32912"
         d="m 181.7872,447.34259 c -9.74926,-7.07935 -13.40735,-16.40185 -14.96633,-38.1411 -0.7297,-10.17532 -1.00136,-18.82594 -0.6037,-19.2236 1.35821,-1.35821 5.39095,8.29673 8.44504,20.21859 3.20404,12.50717 7.49663,21.40623 10.86762,22.5299 1.54328,0.51442 1.76798,-1.10832 0.97804,-7.06315 -0.56614,-4.26779 -0.16235,-12.8486 0.90138,-19.15513 l 1.92693,-11.42411 2.85907,9.2817 c 3.92769,12.75089 11.80341,25.2945 19.60707,31.22807 6.42034,4.88176 6.46682,4.98472 2.6795,5.93528 -2.11981,0.53204 -7.2367,3.04861 -11.37087,5.5924 -9.36789,5.76412 -13.62942,5.80831 -21.32375,0.22115 z"
         id="path13642" />
      <path
         style="fill:#e39155;fill-opacity:1;stroke-width:6.32912"
         d="m 145.83296,389.15512 c -7.60528,-8.26933 -9.75102,-13.96592 -9.81129,-26.04735 -0.0631,-12.65335 -2.28098,-39.46805 -3.98724,-48.20703 l -1.06267,-5.44272 4.89067,4.57679 c 2.68987,2.51724 5.58933,7.06581 6.44325,10.10793 2.65194,9.44766 9.04314,68.51127 7.41352,68.51127 -0.36757,0 -2.11638,-1.5745 -3.88624,-3.49889 z"
         id="path13681" />
      <path
         style="fill:#e39155;fill-opacity:1;stroke-width:6.32912"
         d="m 165.50868,478.90041 c -3.90112,-2.88963 -10.47703,-9.86326 -14.61312,-15.49693 -9.15155,-12.4651 -11.49814,-13.84807 -21.29254,-12.5488 -5.52931,0.73349 -7.75869,0.46394 -8.22833,-0.99488 -0.3543,-1.10053 -1.74779,-5.97816 -3.09663,-10.83917 -1.34884,-4.86102 -4.25808,-10.98409 -6.46496,-13.60683 -9.90867,-11.77577 -31.777365,-2.20649 -52.670515,23.04752 -12.476043,15.08007 -21.690111,20.43385 -34.955633,20.31077 l -8.636298,-0.0801 6.220262,-2.48528 c 7.799206,-3.11615 15.637055,-8.8496 18.894999,-13.82185 1.376552,-2.10088 3.847415,-10.54601 5.490809,-18.76696 1.643393,-8.22094 4.748449,-18.42128 6.900126,-22.6674 2.151678,-4.24613 3.625527,-8.00685 3.27522,-8.35716 -0.350306,-0.35031 -6.54558,2.13197 -13.767275,5.51617 -12.900016,6.04515 -27.372075,10.36355 -29.063277,8.67234 -1.550061,-1.55006 11.049972,-13.27128 30.040313,-27.94511 10.263432,-7.93055 22.343959,-17.73689 26.845615,-21.79187 11.444412,-10.30884 26.959569,-30.13643 33.440404,-42.73516 l 5.46984,-10.63336 1.08191,11.54554 1.0819,11.54554 -9.54122,13.93056 c -13.111798,19.14373 -19.044528,32.18739 -18.430331,40.52079 0.556374,7.54887 3.487559,10.15985 9.665201,8.60936 5.94299,-1.49159 16.99874,-12.15041 20.37968,-19.64798 l 2.85031,-6.32088 3.28124,11.34122 c 3.70958,12.82177 12.39754,27.07973 29.88795,49.04961 9.68903,12.17049 12.18057,16.50632 14.69105,25.56568 1.66276,6.00027 4.44928,13.70495 6.19229,17.12152 1.743,3.41656 2.94293,6.43808 2.66653,6.71448 -0.27641,0.27641 -3.69438,-1.8617 -7.59552,-4.75134 z"
         id="path13720" />
      <path
         style="fill:#e39155;fill-opacity:1;stroke-width:6.32912"
         d="m 269.02632,489.73966 c -12.04513,-3.27442 -16.82443,-3.75016 -34.29397,-3.41368 -23.33502,0.44945 -26.3867,-0.64978 -31.92115,-11.4982 -3.04829,-5.97514 -3.07658,-6.3389 -0.40877,-5.25549 14.33473,5.82137 15.62285,5.94327 26.83056,2.53903 13.98077,-4.24652 16.15198,-4.15144 36.30982,1.59011 18.21146,5.18716 26.1996,5.39758 35.16262,0.92624 6.00806,-2.99721 6.18688,-1.30665 0.82887,7.8361 -2.56494,4.37673 -5.9476,7.6857 -9.28045,9.07825 -6.5898,2.75339 -6.4207,2.76652 -23.22753,-1.80236 z"
         id="path13759" />
      <path
         style="fill:#e39155;fill-opacity:1;stroke-width:6.32912"
         d="m 345.51852,489.62125 c -0.55103,-0.55103 1.12746,-3.17521 3.72999,-5.83149 6.79015,-6.93042 12.73386,-18.21912 18.50891,-35.15339 2.77093,-8.12522 6.9815,-18.62191 9.35683,-23.32598 4.86353,-9.63166 17.95248,-27.99118 19.9556,-27.99118 0.72167,0 2.20064,2.97406 3.2866,6.60903 3.31733,11.10392 7.72307,18.52598 10.65133,17.94361 2.30687,-0.4588 2.62564,-2.77451 2.52876,-18.3703 -0.10382,-16.71326 -0.51792,-19.02913 -6.52767,-36.50611 -7.41379,-21.56011 -8.942,-30.83282 -7.42148,-45.03123 1.11326,-10.3955 2.77127,-11.97991 4.66029,-4.45346 1.79436,7.14932 15.86524,35.7939 21.32114,43.4042 2.85136,3.9773 14.69072,15.15714 26.30968,24.84411 32.79898,27.34516 48.00567,45.60912 48.05983,57.72211 0.029,6.49431 -2.82,11.37546 -6.63966,11.37546 -5.25607,0 -16.36171,-7.56573 -24.65558,-16.79665 -3.9638,-4.41164 -10.85822,-10.90735 -15.32093,-14.43492 -8.52672,-6.73999 -13.00197,-14.47997 -14.76042,-25.52832 -2.14324,-13.4659 -2.44008,-14.25395 -4.19081,-11.12556 -0.86985,1.55433 -2.53682,8.29799 -3.70437,14.9859 -2.67879,15.34449 -0.87141,28.10061 5.60826,39.58197 l 4.63853,8.21901 -7.77059,9.93584 c -4.27383,5.46472 -7.78449,11.11916 -7.80148,12.56544 -0.017,1.44627 -0.65602,3.01594 -1.42007,3.48815 -2.60158,1.60787 -3.37481,-7.00727 -1.46069,-16.27456 2.25101,-10.89831 0.92837,-16.05283 -5.3111,-20.69817 -9.50705,-7.07806 -17.36614,1.96353 -19.52563,22.46354 l -1.21159,11.50158 -3.4898,-5.44273 c -1.9194,-2.9935 -4.30968,-8.41679 -5.31175,-12.05175 -1.00208,-3.63497 -2.20165,-6.58852 -2.66572,-6.56345 -0.46408,0.0251 -3.91318,5.60873 -7.66466,12.40813 -3.75149,6.7994 -9.24502,15.19459 -12.20784,18.65598 -7.23688,8.45466 -16.36468,13.06441 -19.55391,9.87519 z"
         id="path13798" />
      <path
         style="fill:#ffffff;fill-opacity:1;stroke-width:2.23768"
         d="m 329.47377,236.40586 c -2.60496,-0.95686 -6.20316,-3.44874 -8.61737,-5.96784 l -1.87541,-1.95688 1.50722,-2.17493 c 4.76168,-6.87111 14.31254,-8.68958 19.89512,-3.78801 2.10658,1.8496 5.15158,6.71074 5.15996,8.23753 0.007,1.33314 -2.55226,3.62231 -5.76773,5.1584 -3.13371,1.49703 -7.05534,1.68422 -10.30179,0.49173 z"
         id="path13874" />
      <path
         style="fill:#ffffff;fill-opacity:1;stroke-width:2.23768"
         d="m 301.85587,344.46699 c -0.53829,-0.59481 -1.39568,-2.63593 -1.90531,-4.53584 -0.77871,-2.90306 -0.90971,-5.90786 -0.82082,-18.8271 0.11279,-16.3927 0.21312,-16.93674 2.69357,-14.60648 2.93902,2.76107 6.4751,13.91123 7.44946,23.49008 l 0.57257,5.62882 -1.63286,3.23467 c -1.6453,3.25933 -4.19258,6.69731 -4.96219,6.69731 -0.22864,0 -0.85613,-0.48666 -1.39442,-1.08146 z"
         id="path13950" />
      <path
         style="fill:#ffffff;fill-opacity:1;stroke-width:2.23768"
         d="m 284.53704,343.9294 c -1.6183,-3.02382 -4.31121,-18.65269 -4.50501,-26.14578 -0.14297,-5.52794 0.65462,-7.91026 3.51284,-10.4925 l 2.26153,-2.04315 1.00129,1.23655 c 2.74882,3.39465 7.10978,24.35039 6.25441,30.05438 -0.4087,2.72543 -3.09393,6.23967 -5.86114,7.67065 -1.93947,1.00294 -1.97948,0.99873 -2.66392,-0.28015 z"
         id="path13989" />
      <path
         style="fill:#ffffff;fill-opacity:1;stroke-width:2.23768"
         d="m 262.80375,339.59213 c -5.36397,-1.60663 -6.76908,-2.5549 -7.20155,-4.86017 -0.62955,-3.35577 0.20663,-15.51086 1.40303,-20.39511 2.87741,-11.74695 7.44866,-14.11669 11.17276,-5.79197 4.07478,9.10864 6.94824,28.9423 4.48881,30.98344 -1.35601,1.12539 -6.21385,1.15682 -9.86305,0.0638 z"
         id="path14028" />
      <path
         style="fill:#ffffff;fill-opacity:1;stroke-width:2.23768"
         d="m 229.95194,340.20086 c -3.41568,-3.77428 3.30401,-30.13763 9.47239,-37.16303 2.08464,-2.37427 3.4919,-2.47879 5.03123,-0.37367 2.40257,3.28565 3.98497,16.37622 3.21116,26.56471 -0.48969,6.44757 -0.92342,7.07495 -6.75163,9.76603 -4.96331,2.29173 -9.5263,2.79366 -10.96315,1.20596 z"
         id="path14067" />
      <path
         style="fill:#ffffff;fill-opacity:1;stroke-width:2.23768"
         d="m 217.57032,339.49628 c -0.9576,-0.58236 -2.51766,-2.1185 -3.4668,-3.41366 l -1.7257,-2.35484 0.28984,-7.14738 c 0.43453,-10.71552 3.44672,-20.27515 7.35803,-23.35178 l 1.5213,-1.19666 0.97674,1.20623 c 3.86812,4.77692 3.58662,18.07148 -0.6877,32.47888 -1.37125,4.62205 -1.98526,5.16603 -4.26571,3.77921 z"
         id="path14106" />
      <path
         style="fill:#ffffff;fill-opacity:1;stroke-width:2.23768"
         d="m 196.9514,345.68489 c -1.34383,-1.48491 -2.04008,-3.75663 -2.90033,-9.46314 -1.52244,-10.09926 -1.0669,-14.46537 2.55158,-24.45557 1.9929,-5.50215 4.8538,-9.34547 6.06505,-8.14776 0.54953,0.54338 0.54694,2.13946 -0.0129,7.97386 -0.73473,7.65635 -0.46288,11.68829 1.28929,19.12257 1.17759,4.99633 1.06588,7.04905 -0.56129,10.31436 -1.28301,2.57466 -4.0663,5.61884 -5.13731,5.61884 -0.23232,0 -0.81464,-0.43342 -1.29404,-0.96316 z"
         id="path14145" />
      <path
         style="fill:#ffffff;fill-opacity:1;stroke-width:2.23768"
         d="m 206.48485,388.2687 c -3.05786,-4.0501 -7.04938,-12.72111 -8.11379,-17.62607 l -0.89206,-4.11072 1.43746,-2.932 c 1.49661,-3.05264 8.50627,-10.64519 8.70734,-9.4314 0.0412,0.24839 0.10763,5.64721 0.14775,11.99739 0.0681,10.78663 0.17099,11.88919 1.56427,16.76886 0.82024,2.8727 1.49599,5.90346 1.50165,6.73503 0.0172,2.51773 -1.84693,1.91768 -4.35262,-1.40109 z"
         id="path14184" />
      <path
         style="fill:#ffffff;fill-opacity:1;stroke-width:2.23768"
         d="m 222.47989,388.69593 c -3.07085,-2.58396 -6.89067,-12.06949 -7.56336,-18.78168 -0.53233,-5.31174 2.4139,-16.11882 4.39432,-16.11882 0.91541,0 3.86345,3.1852 4.95722,5.35599 2.00106,3.97153 2.6631,28.28266 0.82028,30.12241 -0.80482,0.80348 -1.02465,0.75478 -2.60846,-0.5779 z"
         id="path14223" />
      <path
         style="fill:#ffffff;fill-opacity:1;stroke-width:2.23768"
         d="m 238.70523,385.69355 c -2.98482,-3.54725 -7.06831,-17.05107 -7.17925,-23.74127 -0.0526,-3.17355 0.11879,-3.85533 1.28095,-5.09502 2.94535,-3.14183 11.23055,-6.14078 12.97208,-4.69545 2.4048,1.99581 -0.63954,28.94735 -3.81767,33.79779 -1.15534,1.76327 -1.57758,1.72877 -3.25611,-0.26605 z"
         id="path14262" />
      <path
         style="fill:#ffffff;fill-opacity:1;stroke-width:2.23768"
         d="m 256.21129,387.69302 c -1.55952,-2.38013 -2.00071,-4.91144 -2.31462,-13.28014 -0.31954,-8.51861 0.50528,-20.4366 1.5494,-22.38754 0.47869,-0.89445 0.93138,-1.02026 2.59428,-0.721 6.68348,1.20277 8.88939,2.88523 8.88191,6.77428 -0.0131,6.79072 -6.78034,29.04608 -9.30699,30.60763 -0.29485,0.18223 -0.92664,-0.26472 -1.40398,-0.99323 z"
         id="path14301" />
      <path
         style="fill:#ffffff;fill-opacity:1;stroke-width:2.23768"
         d="m 272.24065,389.29457 c -1.34625,-3.50829 -0.57204,-26.40664 1.02181,-30.22126 1.39015,-3.32708 3.62088,-6.37748 4.66379,-6.37748 1.00456,0 4.8901,3.8903 6.04979,6.05719 1.25549,2.34591 -0.864,14.08279 -4.13561,22.9014 -2.21925,5.98195 -6.56111,10.34688 -7.59978,7.64015 z"
         id="path14340" />
    </g>
  </g>
</svg>
