<?xml version="1.0" encoding="UTF-8" standalone="no"?>
<!-- Created with Inkscape (http://www.inkscape.org/) -->

<svg
   version="1.1"
   id="svg228"
   width="512"
   height="512"
   viewBox="0 0 512 512"
   sodipodi:docname="netexec.svg"
   inkscape:version="1.2.2 (b0a8486541, 2022-12-01)"
   inkscape:export-filename="../GIT Icons/netexec.png"
   inkscape:export-xdpi="96"
   inkscape:export-ydpi="96"
   xmlns:inkscape="http://www.inkscape.org/namespaces/inkscape"
   xmlns:sodipodi="http://sodipodi.sourceforge.net/DTD/sodipodi-0.dtd"
   xmlns="http://www.w3.org/2000/svg"
   xmlns:svg="http://www.w3.org/2000/svg">
  <defs
     id="defs232" />
  <sodipodi:namedview
     id="namedview230"
     pagecolor="#505050"
     bordercolor="#ffffff"
     borderopacity="1"
     inkscape:showpageshadow="0"
     inkscape:pageopacity="0"
     inkscape:pagecheckerboard="1"
     inkscape:deskcolor="#505050"
     showgrid="false"
     inkscape:zoom="0.73363095"
     inkscape:cx="95.415822"
     inkscape:cy="269.20893"
     inkscape:window-width="1366"
     inkscape:window-height="691"
     inkscape:window-x="0"
     inkscape:window-y="24"
     inkscape:window-maximized="1"
     inkscape:current-layer="g234" />
  <g
     inkscape:groupmode="layer"
     inkscape:label="Image"
     id="g234">
    <path
       style="fill:#501f8e;fill-rule:evenodd;stroke:none;stroke-width:7.06768;stroke-linecap:round;stroke-linejoin:bevel;fill-opacity:1"
       id="path404"
       sodipodi:type="arc"
       sodipodi:cx="256"
       sodipodi:cy="256"
       sodipodi:rx="251.46614"
       sodipodi:ry="251.46614"
       sodipodi:start="4.7101026"
       sodipodi:end="4.7087761"
       sodipodi:open="true"
       sodipodi:arc-type="arc"
       d="M 255.42505,4.5345165 A 251.46614,251.46614 0 0 1 507.46528,255.34166 251.46614,251.46614 0 0 1 256.74173,507.46505 251.46614,251.46614 0 0 1 4.535213,256.82512 251.46614,251.46614 0 0 1 255.09148,4.5355004" />
    <path
       style="fill:#ffffff;stroke-width:0.628598"
       d="m 183.22348,485.79164 c -6.87357,-1.33114 -9.19563,-9.10243 -4.11539,-13.77308 l 1.35519,-1.24593 -10.93874,-17.71164 C 140.67369,406.34672 96.140636,327.00737 63.160512,263.56462 l -11.977509,-23.04074 12.603971,-0.29166 c 7.848125,-0.18155 12.558607,-0.51176 12.483739,-0.87496 -0.06611,-0.32083 -3.483188,-7.003 -7.593466,-14.8493 -4.110283,-7.84633 -7.336442,-14.3838 -7.169244,-14.52776 0.167191,-0.14401 32.390803,-0.41777 71.608017,-0.60842 l 71.30403,-0.34663 0.22358,-1.35914 c 0.12299,-0.74752 1.39732,-2.36984 2.83189,-3.60516 l 2.60832,-2.24601 -1.59637,-0.90071 c -0.87802,-0.49537 -1.98731,-1.83159 -2.46508,-2.96935 l -0.86871,-2.06866 -16.62448,0.30834 c -35.60965,0.66047 -46.09987,0.7318 -55.36901,0.37648 l -9.61622,-0.36861 4.47591,-8.89834 c 2.46176,-4.89408 4.33323,-9.0212 4.15887,-9.17136 -0.17436,-0.15019 -4.55036,-0.54969 -9.72442,-0.88786 -5.17406,-0.33817 -9.51711,-0.70934 -9.6512,-0.82481 -0.13409,-0.1154 2.78318,-6.08001 6.48284,-13.25452 19.76442,-38.32796 43.66349,-80.033216 63.89681,-111.503564 3.67021,-5.708561 6.67311,-10.487337 6.67311,-10.6195 0,-0.132155 -0.76207,-1.207286 -1.6935,-2.389178 -3.01016,-3.819605 -1.76613,-9.139065 2.73069,-11.676224 2.26181,-1.276147 6.79039,-1.283934 9.62554,-0.01659 8.36664,3.740133 5.1397,14.946902 -4.306,14.954285 l -2.78823,0.0024 -1.8933,4.520651 c -9.6324,22.999303 -33.96963,71.73563 -53.07054,106.27598 -6.05166,10.94323 -7.98645,14.96718 -7.36518,15.318 0.46342,0.2617 2.15914,0.40746 3.76824,0.32388 l 2.92566,-0.15203 6.54164,-12.2495 c 12.99528,-24.33421 36.10188,-63.704389 50.72067,-86.420352 l 5.68907,-8.840195 -1.71667,-2.178264 c -3.38582,-4.296257 -1.83176,-9.765932 3.39361,-11.944121 3.27058,-1.363347 4.98252,-1.438168 8.0071,-0.349951 9.14573,3.290404 6.45971,15.528267 -3.40825,15.528267 h -2.66288 l -4.96769,11.217462 c -10.29921,23.256555 -27.45278,57.866854 -40.69646,82.112104 -3.41726,6.25599 -6.64132,12.21598 -7.16457,13.24443 -1.11124,2.1841 -2.65934,1.76351 13.60586,3.69653 5.58857,0.66415 16.86266,2.1381 25.05352,3.27543 14.23136,1.97605 14.923,2.02068 15.58027,1.00554 2.65551,-4.10143 8.29574,-5.84883 12.85949,-3.98401 5.91233,2.4159 7.23544,9.5224 2.45914,13.20814 l -2.03744,1.57225 2.34018,2.01511 c 2.08646,1.79664 2.33989,2.35348 2.33765,5.13582 -0.002,3.49233 -1.71743,6.56313 -4.01516,7.1911 -1.64461,0.44947 -1.82027,1.20788 -0.38931,1.68071 1.83887,0.60763 3.72452,4.04531 3.72452,6.79007 0,6.23814 -7.19079,10.11993 -13.52321,7.30017 -2.21838,-0.98781 -4.7616,-3.79594 -4.7616,-5.25755 0,-0.83657 -0.4862,-0.9319 -3.21766,-0.6308 -10.17099,1.12115 -67.95636,4.90693 -98.73143,6.46833 -20.760334,1.05329 -24.215156,1.34259 -23.919036,2.00294 0.115454,0.25748 2.624773,4.8326 5.576249,10.16694 l 5.366317,9.69876 14.61707,9.2e-4 c 8.03937,5.7e-4 23.9144,0.15676 35.27784,0.34713 l 20.66078,0.34609 1.35481,-2.5042 c 1.86256,-3.44273 4.37853,-4.89811 8.46753,-4.89811 4.08359,0 6.55076,1.43101 8.60895,4.99336 l 1.49624,2.58968 0.0279,-4.96679 c 0.0218,-3.88507 -0.26715,-5.44081 -1.32688,-7.14342 -0.74514,-1.19716 -1.35482,-2.72278 -1.35482,-3.39026 0,-1.55508 3.54088,-4.62372 5.33523,-4.62372 4.77502,0 7.72121,4.3665 5.22874,7.74936 -0.74485,1.01096 -0.85534,2.68342 -0.50805,7.69017 l 0.44383,6.39823 8.46754,2.20038 c 4.65714,1.21021 8.82501,2.20272 9.26193,2.20558 1.35709,0.009 -7.78735,-22.71642 -10.04027,-24.95158 -2.16936,-2.15225 -2.38522,-3.51073 -0.94024,-5.91691 1.40644,-2.34194 4.86721,-3.15021 7.76682,-1.81393 1.68622,0.77709 3.00138,3.77423 2.46448,5.61634 -0.31619,1.08484 0.77618,4.71484 3.73354,12.40665 2.29928,5.98023 4.40886,11.08939 4.68795,11.35373 0.86282,0.81719 21.12332,-28.53183 21.77731,-31.54622 0.31526,-1.45312 0.8958,-2.97672 1.29008,-3.38582 0.39426,-0.40909 1.91786,-4.63688 3.3858,-9.39512 l 2.66892,-8.65146 -13.37519,-11.21343 c -8.95312,-7.50607 -13.86283,-11.21848 -14.85016,-11.2287 -1.93503,-0.02 -4.28294,-2.64427 -4.28294,-4.78695 0,-5.25922 9.84994,-6.26481 11.15735,-1.13908 0.29911,1.17273 4.43777,4.99836 13.88199,12.83211 l 13.45584,11.16122 h 7.42325 7.42325 l 13.63461,-11.43148 c 7.49904,-6.28729 13.63464,-11.88506 13.63464,-12.43947 0,-1.68556 2.892,-3.5446 5.51414,-3.5446 3.1216,0 5.3243,1.9603 5.3243,4.7384 0,2.58635 -1.05446,3.77721 -4.1791,4.71975 -1.70111,0.51314 -6.49767,4.12864 -15.19779,11.45565 l -12.7122,10.70589 2.60408,8.83499 c 1.43227,4.85924 2.99042,9.22873 3.46259,9.70995 0.47215,0.48124 0.95719,1.79432 1.07785,2.91793 0.14903,1.38809 3.5852,6.85676 10.71911,17.05956 5.77486,8.25911 10.65816,15.01758 10.85179,15.01885 0.1937,9.1e-4 2.30068,-5.05067 4.68235,-11.22646 3.19376,-8.28162 4.29353,-11.93945 4.19025,-13.93667 -0.11982,-2.31737 0.12171,-2.88528 1.67498,-3.93735 5.69945,-3.86045 12.63226,2.99419 7.31783,7.23531 -1.34017,1.06951 -2.80345,4.18553 -6.06974,12.92533 -2.3671,6.33383 -4.1894,11.6146 -4.04955,11.73502 0.13992,0.12049 4.16676,-0.80637 8.94871,-2.05956 8.23877,-2.15914 8.71685,-2.36797 9.12233,-3.98502 0.70711,-2.81995 0.64136,-11.81726 -0.0891,-12.20605 -0.37257,-0.19828 -0.67741,-1.50718 -0.67741,-2.90865 0,-2.08495 0.33858,-2.77746 1.86265,-3.80977 2.28736,-1.54931 6.00172,-1.24391 7.79033,0.64054 1.41438,1.49017 1.54501,4.49388 0.26501,6.09391 -0.93026,1.16283 -2.01404,11.36364 -1.20615,11.35258 0.2382,-0.004 0.94765,-1.06081 1.57658,-2.35007 0.90577,-1.8568 1.80551,-2.59627 4.32794,-3.55708 5.47933,-2.08711 10.6311,-0.37419 12.77935,4.24905 l 1.13107,2.43419 20.79221,-0.38405 c 11.43571,-0.21123 27.27201,-0.38454 35.19176,-0.38509 l 14.39954,-9.3e-4 5.64779,-10.06209 c 3.10629,-5.53415 5.56882,-10.14906 5.47228,-10.25537 -0.0965,-0.10627 -11.70889,-0.82307 -25.80527,-1.59285 -29.12096,-1.59025 -75.05329,-4.57423 -89.59579,-5.82058 -5.37557,-0.4607 -9.83439,-0.77508 -9.90841,-0.69864 -0.0741,0.0766 -0.76655,1.21847 -1.53892,2.53782 -3.27729,5.59828 -13.05325,5.71097 -16.49172,0.19012 -2.24285,-3.60114 -1.23078,-7.84055 2.47019,-10.34739 l 1.70285,-1.1534 -1.72164,-0.97138 c -5.33715,-3.01128 -5.79707,-10.41956 -0.83272,-13.41373 l 1.5094,-0.91038 -1.5094,-0.91036 c -6.36979,-3.84184 -3.58922,-13.31844 4.28082,-14.58981 4.03912,-0.65249 9.39151,1.90952 10.62017,5.0835 0.20682,0.53407 2.9562,0.31941 11.12842,-0.86879 5.9696,-0.86796 18.09873,-2.47223 26.9536,-3.56504 8.85492,-1.09281 16.25757,-2.12278 16.45038,-2.2888 0.19284,-0.16607 -1.6897,-4.01923 -4.18332,-8.56267 -15.29281,-27.86353 -31.64392,-60.56567 -43.43858,-86.87667 l -5.62195,-12.541161 -2.91836,-0.318417 c -1.60512,-0.175121 -3.62057,-0.651236 -4.47879,-1.058019 -4.021,-1.905878 -5.46545,-7.802182 -2.81572,-11.493993 1.7343,-2.41639 6.3102,-4.063731 9.74619,-3.508671 7.07315,1.142616 10.08349,9.041121 5.17495,13.577983 l -1.34219,1.240554 5.29462,8.130114 c 13.85304,21.271925 38.80423,63.78827 52.10919,88.79314 l 6.04786,11.36608 2.62341,-0.17062 c 5.34386,-0.34751 5.55545,0.58413 -3.63552,-16.00759 C 354.59122,118.25138 334.75488,78.585129 320.74158,46.865033 l -2.06155,-4.66648 -3.52167,-0.314001 c -2.96505,-0.264379 -3.8844,-0.654836 -5.81673,-2.470505 -1.9824,-1.862693 -2.29505,-2.562612 -2.29505,-5.137435 0,-5.10381 3.54605,-8.313514 9.18466,-8.313514 4.10726,0 7.12738,1.739629 8.70278,5.012935 1.1401,2.368811 1.20197,3.029764 0.47841,5.109322 -0.45707,1.313702 -1.42875,2.903234 -2.1593,3.532291 -1.31936,1.136118 -1.29237,1.199087 4.04958,9.445355 14.20488,21.927744 36.71172,60.161419 51.24235,87.048429 7.33139,13.56578 21.21209,40.18607 21.04422,40.35851 -0.0588,0.0605 -4.50233,0.39491 -9.87415,0.74296 -5.37183,0.34804 -9.86418,0.71653 -9.98299,0.81885 -0.11877,0.10227 1.8126,4.1702 4.29202,9.03974 2.47944,4.86954 4.30739,9.02651 4.0621,9.23772 -0.57009,0.49093 -56.31221,0.36939 -70.25472,-0.15312 l -10.55317,-0.39552 -0.88117,1.83184 c -0.48465,1.0075 -1.76485,2.4721 -2.8449,3.25469 l -1.96373,1.42284 1.97538,0.87962 c 1.24362,0.55377 2.43165,1.8295 3.207,3.44377 l 1.23163,2.56414 70.98867,0.27472 c 39.04375,0.15111 71.17475,0.43496 71.40221,0.63085 0.22749,0.19586 -2.97354,6.83326 -7.11338,14.74974 -4.13984,7.91648 -7.52698,14.62441 -7.52698,14.90655 0,0.28213 5.63937,0.51296 12.53195,0.51296 6.89257,0 12.53195,0.12068 12.53195,0.26805 0,0.47311 -20.12754,39.0981 -29.95272,57.47963 -26.67039,49.89663 -65.77095,118.5974 -88.13868,154.8621 l -11.14905,18.07597 1.96047,1.9227 c 3.5824,3.5134 2.39421,9.70919 -2.32207,12.10818 -4.31242,2.19355 -10.9304,0.78861 -13.07032,-2.77473 -3.5021,-5.83164 0.67075,-12.11782 8.044,-12.11782 h 3.06321 l 2.89974,-6.27058 c 24.58136,-53.15594 67.28056,-135.12228 105.51783,-202.55434 3.72938,-6.57682 6.57662,-12.12361 6.32726,-12.32617 -0.2494,-0.20257 -3.24542,-0.49637 -6.65782,-0.65287 l -6.20436,-0.28458 -4.2365,7.94425 c -34.91212,65.46714 -82.02934,148.10071 -110.39734,193.61355 -2.75143,4.41436 -2.91377,4.89471 -1.83329,5.4246 1.8082,0.88677 3.21765,3.69219 3.21765,6.4045 0,6.37771 -8.22381,10.28651 -14.29463,6.79424 -8.03965,-4.6248 -4.40623,-14.99893 5.25582,-15.0064 l 2.81575,-0.002 2.02113,-4.229 c 1.11162,-2.32595 4.5278,-9.47879 7.59153,-15.89519 21.58358,-45.20274 54.00327,-107.8357 87.18974,-168.44546 5.05474,-9.23168 9.01917,-16.93237 8.80984,-17.11261 -0.20936,-0.18028 -7.79698,-0.82573 -16.8615,-1.43438 -9.0645,-0.60867 -22.97541,-1.63574 -30.91314,-2.28244 -18.38828,-1.49806 -18.18049,-1.49976 -18.66217,0.15276 -1.29696,4.44976 -9.2906,6.56154 -14.1087,3.72727 -1.4659,-0.86231 -3.04371,-1.34374 -3.82636,-1.16749 -1.46921,0.33083 -1.65283,1.80682 -2.55343,20.52601 l -0.43092,8.95669 1.6043,-0.41844 c 0.88237,-0.23013 1.85383,-0.61693 2.15885,-0.85954 0.30499,-0.24261 2.08406,-3.95358 3.9535,-8.24659 2.42641,-5.57201 3.44524,-8.7901 3.56065,-11.24646 0.18904,-4.02567 1.75953,-5.60033 5.58521,-5.60033 5.15461,0 7.49225,5.03535 3.75023,8.07812 -1.24698,1.01397 -2.75686,3.60526 -4.38491,7.52542 -1.36566,3.2884 -2.25429,5.97893 -1.9747,5.97893 0.27957,0 1.31077,-0.78747 2.29157,-1.74994 4.93369,-4.84154 13.25243,0.98625 8.63034,6.04608 -1.15002,1.25895 -1.97708,1.54185 -4.57247,1.56413 -1.74267,0.0145 -4.80123,0.60655 -6.79674,1.31465 -3.42906,1.21678 -3.71193,1.47952 -5.15279,4.78513 -0.83852,1.9237 -1.73711,4.07714 -1.99691,4.78542 l -0.47233,1.28777 3.25422,-0.91376 c 1.78982,-0.50257 3.75699,-1.40664 4.37149,-2.00903 1.74639,-1.71198 4.28155,-2.32476 6.66183,-1.61024 2.45978,0.73837 3.39807,2.04551 3.39807,4.73401 0,2.89239 -2.48793,4.73961 -5.88565,4.36996 -1.64599,-0.17918 -4.49131,0.23008 -7.8493,1.12874 l -5.26741,1.40968 1.67404,2.41726 c 1.94878,2.81406 2.99905,3.83852 5.41149,5.27852 1.43701,0.85775 1.75576,1.51197 1.75576,3.60337 0,2.06579 -0.34193,2.78692 -1.78487,3.76428 -3.81763,2.58599 -9.05356,0.47043 -9.05356,-3.65788 0,-1.11007 -0.58071,-2.61758 -1.30221,-3.38056 l -1.30218,-1.37706 -0.65426,1.47049 c -0.35982,0.80875 -0.87549,4.2653 -1.14587,7.68122 -0.41493,5.24198 -0.32109,6.42039 0.60164,7.55479 1.6366,2.01199 1.32911,3.88765 -0.96056,5.85927 -2.00981,1.73063 -3.01326,1.87999 -6.71564,0.99952 -1.42149,-0.33807 -4.02741,6.12122 -3.59347,8.9071 0.2728,1.75137 0.0128,2.42208 -1.41076,3.64846 -3.05045,2.62673 -7.71255,1.79467 -9.2325,-1.64776 -0.91042,-2.06203 -0.27016,-4.18226 1.65721,-5.48774 2.01925,-1.36772 12.54275,-26.03296 12.54275,-29.39799 0,-1.62875 -0.25665,-2.25298 -0.84675,-2.05964 -0.46572,0.15257 -6.71476,1.93501 -13.88676,3.96092 -7.17199,2.02589 -13.04001,3.8988 -13.04001,4.16202 0,0.2632 1.84581,7.62888 4.10177,16.36817 2.85021,11.04124 4.48844,16.24657 5.36901,17.05957 1.89975,1.75395 2.31337,3.98934 1.10914,5.9946 -1.77751,2.95986 -6.13458,3.4311 -8.99001,0.97228 -1.56363,-1.34642 -1.69289,-1.79418 -1.30505,-4.52064 0.35077,-2.46591 -0.30672,-5.86291 -3.55114,-18.34767 -2.18989,-8.4268 -4.13023,-15.44943 -4.31188,-15.60585 -0.18163,-0.1564 -1.50271,0.065 -2.93569,0.49233 -2.40452,0.71685 -2.72642,1.08558 -4.17436,4.78174 l -1.56891,4.00499 2.33587,10.69406 c 1.67558,7.67111 2.72868,11.12409 3.72546,12.21526 2.91223,3.18805 0.6784,7.78024 -3.78466,7.78024 -1.30146,0 -2.92385,-0.25695 -3.60529,-0.57098 -1.8154,-0.83662 -2.83997,-3.78483 -1.98682,-5.71707 0.68846,-1.5593 -0.24047,-8.06066 -1.42625,-9.98198 -0.81154,-1.31492 -6.77469,14.8426 -6.77469,18.35646 0,2.33985 -0.32847,3.22571 -1.56783,4.2283 -1.74106,1.40846 -4.24407,1.62078 -6.88622,0.58415 -1.33385,-0.52332 -1.93052,-0.52332 -2.53827,0 -1.4333,1.23421 -5.18679,0.80485 -7.05924,-0.80753 -1.41907,-1.22194 -1.66947,-1.88116 -1.38488,-3.64569 0.25939,-1.60829 -0.59892,-4.63854 -3.38785,-11.96103 -2.0544,-5.39384 -3.83313,-9.72273 -3.95274,-9.61974 -0.11959,0.10299 -0.99656,3.95225 -1.94876,8.55392 -1.21573,5.87515 -1.53343,8.68492 -1.0669,9.43555 1.97644,3.18007 -0.59764,6.97874 -4.72897,6.97874 -3.72913,0 -5.75302,-1.60336 -5.75302,-4.55762 0,-1.47705 0.47082,-2.79691 1.26846,-3.55585 0.95046,-0.90437 2.00718,-4.90081 4.21525,-15.94179 2.87658,-14.38374 2.92102,-14.80175 1.86514,-17.54249 -1.05,-2.72543 -1.51655,-3.08144 -5.40161,-4.12202 -1.34153,-0.3593 -1.60588,0.39803 -5.52129,15.81731 -2.93048,11.54046 -4.01262,16.91836 -3.76542,18.71279 0.4453,3.23224 -1.55091,5.35657 -5.03344,5.35657 -4.8129,0 -7.4307,-5.09603 -4.16727,-8.11234 1.10341,-1.01985 2.43935,-5.18678 5.6924,-17.75512 2.33785,-9.03237 4.2039,-16.45591 4.14679,-16.49673 -0.24357,-0.17407 -27.42335,-7.80045 -27.80044,-7.80045 -1.377,0 0.24118,5.36712 5.10013,16.91598 4.08135,9.70065 6.02604,13.56102 7.45449,14.79779 5.37473,4.65356 -1.55498,11.41459 -7.32157,7.14336 -1.57,-1.16288 -1.85867,-1.80919 -1.75865,-3.93734 0.0659,-1.40035 -0.5151,-4.04738 -1.29096,-5.8823 -1.22421,-2.89523 -1.57284,-3.26146 -2.63772,-2.77073 -2.14074,0.98656 -4.69853,0.62249 -6.49505,-0.9245 -1.50753,-1.29812 -1.67131,-1.8052 -1.27184,-3.93734 1.41651,-7.56028 0.86933,-18.48837 -0.92575,-18.48837 -0.8703,0 -2.23197,2.54618 -2.452,4.58499 -0.25193,2.3341 -2.86803,4.74796 -5.14576,4.74796 -1.88606,0 -5.10064,-1.52058 -5.60442,-2.65103 -0.81594,-1.83102 -0.40515,-4.14315 0.96042,-5.40531 0.75966,-0.70214 1.67792,-1.27661 2.04062,-1.27661 0.57829,0 5.3844,-5.92013 5.3844,-6.63249 0,-0.77906 -9.49204,-2.9216 -12.35938,-2.78976 -2.65971,0.12232 -3.50728,-0.10426 -4.91117,-1.31321 -2.17649,-1.87417 -2.21159,-4.43342 -0.0899,-6.55738 2.13613,-2.13845 6.13712,-2.16752 8.24241,-0.0599 0.78088,0.78171 2.87812,1.84918 4.66054,2.37214 l 3.24078,0.95087 -0.42755,-1.46688 c -0.23517,-0.80679 -1.06206,-2.92718 -1.83756,-4.71199 -1.30231,-2.99725 -1.69033,-3.35186 -5.08002,-4.64271 -2.01849,-0.76869 -4.9652,-1.39762 -6.54825,-1.39762 -3.50567,0 -5.63781,-1.18586 -6.21735,-3.45799 -0.4935,-1.93478 0.99399,-4.93922 2.72928,-5.51262 2.6401,-0.87237 5.19898,-0.34854 7.16923,1.46765 1.09186,1.00648 2.15813,1.68108 2.36948,1.49911 0.74856,-0.6446 -4.477,-11.64411 -6.17586,-12.99987 -1.27527,-1.01771 -1.6997,-1.94599 -1.6997,-3.7175 0,-3.09944 1.80106,-4.69433 5.30113,-4.69433 3.61155,0 5.75124,1.99097 5.43186,5.05428 -0.16766,1.60872 0.80963,4.7315 3.47952,11.11758 3.2678,7.81619 3.94017,8.96161 5.61027,9.55729 1.04365,0.37225 1.96581,0.57587 2.04928,0.45246 0.0833,-0.1234 -0.15497,-6.65533 -0.5298,-14.51542 -0.6646,-13.93699 -0.71733,-14.2955 -2.12842,-14.46878 -0.79584,-0.0977 -2.47241,0.36065 -3.72572,1.01863 -4.83176,2.53653 -11.85134,0.92066 -13.84447,-3.18695 -1.1791,-2.43001 0.15936,-2.36749 -18.61394,-0.86948 -7.99092,0.63763 -22.10516,1.67108 -31.36499,2.29657 -9.25983,0.62551 -16.957192,1.24158 -17.105251,1.36909 -0.148054,0.12742 4.108272,8.21553 9.458521,17.97342 32.97899,60.14783 70.55522,133.00001 90.60431,175.66222 l 5.68316,12.09314 3.04831,0.0127 c 5.71562,0.0239 9.48613,3.32127 9.48111,8.29155 -0.004,3.1708 -1.84581,5.8147 -4.93105,7.07537 -9.59746,3.92169 -18.31838,-5.72354 -11.39283,-12.60031 l 1.89667,-1.88329 -7.42163,-11.95785 C 166.25188,402.12481 123.35449,326.85005 90.148256,265.0234 c -4.824631,-8.98297 -8.979245,-16.49366 -9.23247,-16.69045 -0.834802,-0.64869 -12.99253,0.16243 -12.990084,0.8666 0.0014,0.36178 2.925188,5.77633 6.49764,12.03234 17.196986,30.11501 43.527378,78.72296 62.246598,114.91204 16.99283,32.85149 24.96035,48.98575 45.44056,92.01712 0.81112,1.70428 1.1828,1.89575 3.68007,1.89575 5.48948,0 9.47948,3.31453 9.47948,7.87468 0,5.45057 -5.6052,9.10811 -12.04657,7.86066 z m 80.58077,-151.7848 c 5.79491,-15.10712 6.53241,-18.52765 3.99471,-18.52765 -0.81877,0 -1.36107,0.57635 -1.6294,1.7317 -0.83331,3.58774 -5.64387,5.3564 -8.93411,3.28472 -1.11177,-0.70004 -1.49042,-0.70004 -2.65109,0 -3.07113,1.85231 -8.50405,-0.0831 -8.50405,-3.02969 0,-0.96821 -0.56123,-1.64863 -1.742,-2.1119 -2.60882,-1.02354 -3.09319,0.22182 -1.60982,4.13905 0.6826,1.80263 3.42311,9.05226 6.09003,16.11031 2.66689,7.05804 5.31775,13.15075 5.89074,13.53935 2.31822,1.57211 3.33527,-0.12049 9.09499,-15.13589 z m 3.17789,-25.32799 c 0.22548,-0.12012 -9.10207,-44.20265 -9.82354,-46.42669 -0.22757,-0.70151 -1.01263,-1.02078 -2.51017,-1.02078 h -2.17902 l -4.58988,23.39471 c -2.52441,12.8671 -4.49543,23.46198 -4.38,23.54419 0.11538,0.0821 2.95113,0.92848 6.30154,1.88061 l 6.09165,1.73115 5.4242,-1.4874 c 2.9833,-0.81807 5.53264,-1.54516 5.66522,-1.61579 z m 10.89363,-10.87881 2.94962,-7.76288 -3.66744,-14.25708 -3.66745,-14.25705 -4.22144,-0.17372 c -3.10078,-0.1276 -4.22935,0.0274 -4.2512,0.58332 -0.0582,1.48459 9.13652,43.63024 9.5187,43.63024 0.21426,0 1.71691,-3.4933 3.33921,-7.76289 z M 240.98961,281.3352 c 2.05476,-10.59826 3.7359,-19.45728 3.7359,-19.68671 0,-0.22941 -1.37175,-0.41711 -3.04831,-0.41711 -1.67657,0 -3.04832,0.0799 -3.04832,0.17755 0,0.0977 -1.64665,6.53651 -3.65926,14.30857 l -3.65926,14.13109 2.46599,6.42753 c 1.77399,4.62375 2.60794,6.13303 2.97168,5.37809 0.27812,-0.57718 2.18683,-9.72074 4.24158,-20.31901 z m -20.41336,19.70262 c 0.17444,-0.24306 0.52476,-1.39468 0.77845,-2.55916 l 0.46126,-2.11726 -3.07104,0.29808 c -2.76814,0.26868 -3.25857,0.12286 -4.97225,-1.47816 -1.74095,-1.62655 -3.73059,-2.42027 -20.31797,-8.10542 -1.01951,-0.34943 -3.7183,4.12398 -3.19561,5.29693 0.23466,0.52656 5.98226,2.5022 14.38858,4.9458 14.64068,4.25588 15.41383,4.43641 15.92858,3.71919 z m 86.53182,-3.68449 c 16.41425,-4.56374 16.35195,-4.52424 13.4969,-8.55643 l -1.33939,-1.89161 -3.23055,1.1011 c -14.05912,4.79189 -16.2697,5.68243 -17.97795,7.24223 -1.67344,1.528 -2.20772,1.68156 -4.93114,1.41722 -2.59711,-0.25206 -3.00547,-0.15402 -2.72787,0.65465 0.17951,0.52307 0.52643,1.67291 0.77079,2.55516 0.24438,0.88225 0.59136,1.6041 0.77108,1.6041 0.17973,0 7.00536,-1.85689 15.16813,-4.12642 z m -89.75704,-22.96975 c -2.84989,-7.55454 -5.40105,-13.73316 -5.66926,-13.73029 -0.57597,0.006 -14.37445,19.43719 -14.37445,20.24207 0,1.01993 17.45041,6.58496 20.64864,6.58496 1.63928,0 3.18143,0.27995 3.42701,0.62212 0.24558,0.34216 0.60474,0.48587 0.79809,0.31938 0.19327,-0.16643 -1.98015,-6.48373 -4.83003,-14.03824 z m 77.28841,13.09891 c 1.96925,0.002 18.79019,-5.08794 20.43436,-6.18293 0.20449,-0.13617 -11.50158,-17.28604 -13.82567,-20.25502 -0.71292,-0.91074 -1.5783,0.87319 -6.08362,12.54116 -2.88887,7.48163 -5.40625,13.9616 -5.59417,14.39997 -0.27316,0.63713 -0.0582,0.66639 1.07131,0.14582 0.77713,-0.35815 2.57614,-0.6502 3.99779,-0.649 z m -88.07264,-33.0198 c 0.16788,-0.36866 -1.38669,-1.05598 -3.6364,-1.60779 -2.16125,-0.53014 -6.32378,-1.60654 -9.25008,-2.39206 l -5.32051,-1.4282 0.46116,13.53557 c 0.25365,7.44457 0.61631,14.00984 0.80592,14.5895 0.23906,0.73085 2.84332,-2.48767 8.49573,-10.49958 4.48305,-6.35443 8.28292,-11.84328 8.44418,-12.19744 z m 116.68191,8.53301 c 0.3594,-7.53134 0.58091,-13.75584 0.49223,-13.8322 -0.0888,-0.0764 -1.51875,0.21487 -3.17794,0.64721 -12.30242,3.20564 -14.87124,3.96892 -14.87124,4.4188 0,1.06149 16.57036,24.16924 16.733,23.33455 0.0938,-0.48125 0.46454,-7.03698 0.82395,-14.56836 z m -94.11572,5.57457 c 1.14805,-4.44383 2.00151,-8.14832 1.89658,-8.23221 -0.49268,-0.39382 -11.65875,-3.13388 -11.9054,-2.92149 -0.25247,0.2174 6.37039,18.01501 7.13189,19.1655 0.54146,0.81807 0.73488,0.27944 2.87693,-8.0118 z m 64.00403,-11.31333 c -0.097,-0.10062 -2.79875,0.50588 -6.00401,1.34775 -4.5099,1.18452 -5.82774,1.76876 -5.82774,2.5836 0,1.14321 3.17901,13.78173 3.8256,15.20915 0.21799,0.48122 2.14821,-3.58736 4.28937,-9.04132 2.14116,-5.45394 3.81372,-9.99858 3.71678,-10.09918 z m -46.74409,-3.75442 c 0.18608,-0.72185 1.57852,-7.59258 3.09421,-15.2683 2.26001,-11.44501 2.61693,-14.24455 1.98389,-15.56054 -1.30857,-2.72039 0.57087,-5.90871 3.90822,-6.62996 5.23357,-1.1311 8.99654,4.30107 5.57449,8.0472 -0.76131,0.83345 -1.70352,3.07616 -2.09374,4.98382 -0.6611,3.23182 -0.60716,3.55659 0.7903,4.75994 1.31443,1.13188 1.44623,1.68396 1.06636,4.46714 -0.29733,2.17835 0.019,5.26996 1.00983,9.84441 l 1.44329,6.66874 h 3.30981 c 2.88273,0 3.30983,-0.15403 3.30983,-1.19312 0,-1.89522 2.98346,-4.05667 5.5994,-4.05667 2.20475,0 4.77875,1.43583 5.38595,3.00443 0.21771,0.56237 1.55617,0.41909 5.6577,-0.60561 2.95489,-0.73823 5.73372,-1.51522 6.1752,-1.72665 1.13328,-0.54273 -21.4724,-32.71594 -23.90452,-34.0218 -0.99975,-0.53677 -2.07415,-1.32425 -2.38755,-1.74992 -0.77029,-1.04626 -0.73992,-4.40197 0.0515,-5.67517 0.61219,-0.98501 0.43997,-1.82884 -2.06538,-10.11906 -0.60206,-1.99213 -0.86858,-2.18741 -2.98558,-2.18741 -1.80191,0 -2.66534,-0.39696 -3.84047,-1.76562 l -1.51597,-1.76563 -0.89235,1.46655 c -0.82826,1.36122 -1.73055,1.73759 -5.26123,2.19467 -1.09244,0.14145 -1.6619,1.18609 -2.94063,5.39452 -1.37165,4.51432 -1.47403,5.51074 -0.75818,7.37848 1.09699,2.86228 0.38883,4.97906 -2.10211,6.28349 -1.44953,0.75907 -5.38177,5.82696 -13.6045,17.53358 -6.36113,9.05625 -11.30348,16.67386 -10.98299,16.928 0.32047,0.25413 2.93625,1.05399 5.8128,1.77745 l 5.23009,1.31538 1.98507,-1.82984 c 1.36128,-1.25486 2.61591,-1.82984 3.99283,-1.82984 2.36726,0 5.57748,1.98282 5.57748,3.44497 0,1.37184 0.59279,1.80482 2.47089,1.80482 1.07391,0 1.67432,-0.4134 1.90613,-1.31245 z m 9.16067,0.58332 c -0.007,-0.40103 -0.30586,-1.12288 -0.66705,-1.60411 -0.5117,-0.68182 -0.65895,-0.52087 -0.66703,0.72914 -0.007,0.88225 0.29445,1.6041 0.66703,1.6041 0.37257,0 0.67274,-0.32812 0.66705,-0.72913 z m 97.04833,-65.25815 c 10.33885,-0.72774 18.78827,-1.46832 18.7765,-1.64574 -0.0128,-0.17736 -1.1549,-2.15999 -2.54027,-4.40574 l -2.51883,-4.08316 -4.74183,0.16168 c -2.608,0.089 -11.29568,0.41555 -19.30599,0.72589 -8.01028,0.31033 -19.07598,0.5657 -24.59041,0.5675 l -10.02626,0.004 -1.01843,2.09887 c -0.56013,1.15439 -1.80842,2.72933 -2.77396,3.49986 l -1.75554,1.40073 1.79933,1.43592 c 0.98962,0.78977 2.06754,2.04345 2.39537,2.78595 l 0.59608,1.34999 13.45314,-1.28601 c 7.39923,-0.70731 21.91221,-1.88144 32.2511,-2.6092 z m -146.83652,2.43211 c 0.23131,-0.62751 1.34216,-1.80873 2.46855,-2.62488 l 2.04797,-1.48388 -2.07937,-1.50663 c -1.14365,-0.82867 -2.32895,-2.33798 -2.63401,-3.35404 l -0.55463,-1.8474 -7.40966,-0.12031 c -12.8802,-0.20907 -45.90368,-1.36549 -48.85664,-1.71084 l -2.83503,-0.33159 -2.41485,4.12917 c -1.32815,2.27105 -2.41483,4.35601 -2.41483,4.63329 0,0.27725 6.78249,0.96705 15.07221,1.53286 8.28971,0.56583 21.47365,1.62246 29.29766,2.34806 18.85237,1.74839 19.78641,1.76385 20.31263,0.33615 z m 43.23298,-15.2815 c -0.81676,-0.35292 -1.92727,-1.59342 -2.46778,-2.75665 -1.23571,-2.65935 -18.25007,-16.62081 -20.95895,-17.19825 -6.02933,-1.28525 -6.03731,-8.19261 -0.0106,-9.49503 2.45393,-0.53035 5.01864,0.817 6.42417,3.37489 1.21402,2.20936 14.26842,13.17689 14.61588,12.27937 0.44358,-1.14595 -4.55069,-11.69769 -6.21503,-13.13084 -5.01456,-4.318 2.25519,-10.74814 7.78907,-6.8895 1.26719,0.88359 1.57905,1.69303 1.6293,4.22901 0.068,3.428 5.53893,18.48276 6.40483,17.62442 0.27118,-0.26879 1.80929,-3.76985 3.41803,-7.7801 2.00031,-4.98645 2.87984,-8.0989 2.78223,-9.84591 -0.19032,-3.40487 1.77763,-5.32015 5.46611,-5.32015 3.47662,0 5.30114,1.59794 5.30114,4.64287 0,1.70052 -0.43854,2.66199 -1.66281,3.64569 -1.3334,1.07139 -6.46599,11.869 -6.46599,13.60277 0,0.19651 3.35298,-2.35184 7.4511,-5.66306 4.09812,-3.31118 7.45126,-6.45063 7.45143,-6.97652 5.3e-4,-1.63467 2.2643,-3.43942 4.74233,-3.78074 3.63578,-0.5008 6.09643,1.41114 6.09643,4.73691 0,2.04948 -0.34482,2.77379 -1.78487,3.74917 -0.98167,0.66494 -2.2772,1.20962 -2.87897,1.21044 -1.81812,0.002 -19.87829,14.86126 -20.69878,17.0297 -0.86618,2.2892 -3.36465,3.54102 -6.1366,3.07466 -2.51598,-0.4233 -4.15833,-0.43098 -6.77405,-0.0317 -1.11771,0.17062 -2.70048,0.0215 -3.51724,-0.33146 z"
       id="path350" />
  </g>
</svg>
