<?xml version="1.0" encoding="UTF-8" standalone="no"?>
<!-- Created with Inkscape (http://www.inkscape.org/) -->

<svg
   version="1.1"
   id="svg870"
   width="512"
   height="512"
   viewBox="0 0 512 512"
   sodipodi:docname="nimcrypt.svg"
   inkscape:version="1.1.2 (0a00cf5339, 2022-02-04)"
   xmlns:inkscape="http://www.inkscape.org/namespaces/inkscape"
   xmlns:sodipodi="http://sodipodi.sourceforge.net/DTD/sodipodi-0.dtd"
   xmlns="http://www.w3.org/2000/svg"
   xmlns:svg="http://www.w3.org/2000/svg">
  <defs
     id="defs874" />
  <sodipodi:namedview
     id="namedview872"
     pagecolor="#505050"
     bordercolor="#eeeeee"
     borderopacity="1"
     inkscape:pageshadow="0"
     inkscape:pageopacity="0"
     inkscape:pagecheckerboard="0"
     showgrid="false"
     inkscape:zoom="0.67827625"
     inkscape:cx="218.93734"
     inkscape:cy="254.32116"
     inkscape:window-width="1366"
     inkscape:window-height="695"
     inkscape:window-x="0"
     inkscape:window-y="24"
     inkscape:window-maximized="1"
     inkscape:current-layer="g876" />
  <g
     inkscape:groupmode="layer"
     inkscape:label="Image"
     id="g876">
    <g
       id="g1128"
       transform="matrix(0.98422935,0,0,1.0282307,3.9926611,-7.2294232)">
      <path
         id="path1372-6"
         style="fill:#00ff00;stroke-width:7.30647"
         d="m 252.10742,29.574219 c -12.91102,0.38489 -25.92702,3.954625 -36.59961,11.378906 -10.86424,7.498376 -19.01346,18.459303 -24.3066,30.462333 -2.70898,6.230703 -5.45581,12.573244 -6.43548,19.346846 -0.95771,7.019711 -0.35306,14.141346 0.58491,21.127976 1.8402,11.97834 6.12969,23.42161 11.08428,34.42687 3.42085,7.48388 7.3413,14.72297 11.14204,22.01629 1.51244,3.04532 2.39216,6.3974 2.51696,9.79777 0.0835,0.94141 0.16256,2.07397 0.21413,2.89834 0.0743,1.29955 0.12604,2.38032 0.15595,3.69191 0.0177,2.74627 0.0852,5.52208 -0.36138,8.2394 -0.44085,2.43514 -1.81073,4.66834 -3.82977,6.11061 -3.83005,2.84916 -8.88309,3.26549 -13.48022,2.67902 -0.74024,-0.0938 -1.45081,-0.21728 -2.07595,-0.34436 -6.67944,-1.39402 -12.76917,-4.85479 -18.03145,-9.11597 -4.89197,-4.01 -8.68618,-9.43244 -10.3763,-15.55856 -1.5146,-5.23939 -1.8857,-10.74003 -1.64877,-16.1691 0.0437,-0.86022 0.101,-1.99494 0.17788,-2.96313 1.07612,-12.33091 2.65368,-24.64392 4.24125,-36.95297 1.52465,-12.1507 3.14596,-24.331087 3.28626,-36.59437 -0.083,-5.730232 -1.75031,-11.313593 -4.09852,-16.501276 -3.61293,-8.109174 -9.02646,-15.480887 -15.95986,-21.056653 -5.00447,-3.858497 -11.02729,-6.181961 -17.17806,-7.452242 -8.88859,-1.971957 -18.17807,-2.23994 -27.14495,-0.631557 -6.502511,1.316562 -12.924811,4.175107 -17.443886,9.154663 -3.88992,4.496776 -5.070205,11.29259 -2.47955,16.714368 2.114397,4.648729 6.615309,7.907302 11.5082,9.1141 6.187186,1.758481 12.718686,1.078304 18.976786,1.746324 3.35565,0.356635 6.89671,1.468942 9.05467,4.22473 1.69862,2.029359 2.49692,4.719933 2.30063,7.348402 -0.0261,3.695625 -0.5829,7.360734 -1.25843,10.98633 -0.15224,0.80444 -0.36651,1.898446 -0.54257,2.814091 -0.38025,1.86434 -0.82612,3.9708 -1.26576,5.92211 -3.84612,16.8116 -8.60034,33.43312 -11.44736,50.45997 -1.02126,6.40539 -1.54808,12.91587 -1.14275,19.39953 -3.06114,-7.18057 -6.07514,-14.46509 -10.495125,-20.94149 -3.022006,-4.50183 -6.860851,-8.4406 -11.294886,-11.56295 -5.219469,-3.7493 -11.222426,-6.5267 -17.610379,-7.48189 -5.927653,-0.93722 -11.959875,-0.86454 -17.938441,-0.62054 -8.965177,0.51704 -18.056977,2.94304 -25.370761,8.31789 -6.866157,4.99762 -12.143639,11.93842 -15.932229,19.48596 -2.8340671,5.68435 -3.5127664,12.13109 -3.5663345,18.4002 -0.044374,6.15882 -0.1392133,12.38765 1.096828,18.45165 1.0663665,5.13454 3.3029985,9.93939 5.9889265,14.41527 2.800468,4.79917 6.345639,9.42095 11.26204,12.1931 5.040385,2.68197 11.683386,2.54491 16.271409,-1.01988 4.839451,-3.59284 7.052907,-9.98554 6.324644,-15.86587 -0.33109,-3.65609 -1.303966,-7.23444 -1.383071,-10.91695 -0.345232,-4.77583 -0.507274,-9.57812 -0.153402,-14.3584 0.858329,-1.0412 1.7484,-2.06912 2.720518,-3.0073 2.253314,-2.13771 5.524996,-3.67111 8.650513,-2.73838 3.127813,0.86134 5.41898,3.51276 6.648807,6.41819 7.26549,14.93934 11.179033,31.19934 17.663756,46.45639 -4.87807,-0.33878 -9.924793,1.94841 -12.619414,6.08202 -2.787839,4.12351 -3.178077,9.53462 -1.6815,14.20869 0.163589,0.66574 0.357954,1.32335 0.564586,1.97687 -7.3618,-2.20074 -14.964162,-3.78359 -22.660777,-4.04761 -6.487747,-0.16053 -12.879294,1.75679 -18.579542,4.76312 -8.829344,4.65044 -15.933937,12.37107 -20.031808,21.45209 -6.6072849,14.47405 -6.0390208,32.11798 1.905142,45.96012 5.21123,9.10167 13.476293,16.61003 23.393107,20.20995 6.122427,2.15986 12.676214,2.86472 19.141015,2.80526 9.02971,-0.14877 18.169456,-1.54837 26.453772,-5.27935 6.118061,-2.69801 11.534834,-6.77326 16.336122,-11.38702 5.150934,2.24486 10.423934,4.22288 15.792334,5.88328 12.303,3.72451 25.36629,4.93125 38.13735,3.66164 -4.19212,2.15244 -7.87659,5.20894 -11.08593,8.63868 -6.25757,6.77376 -10.38023,15.3686 -12.23756,24.37118 -3.76513,17.86798 1.01497,37.39959 12.89185,51.31632 9.11613,10.5664 21.52265,18.45916 35.23125,21.39432 15.81818,3.50709 32.82266,1.25798 47.19594,-6.21652 13.81195,-7.12189 25.21507,-18.34765 33.73651,-31.248 11.62732,-17.62621 18.34877,-38.17725 21.04926,-59.03677 1.11909,-8.66031 1.54884,-17.40575 1.35345,-26.13522 8.80114,7.85009 17.0829,16.27755 24.86719,25.13476 6.53608,7.47244 12.82774,15.4427 17.87735,24.08665 2.38317,4.09754 4.10608,8.66596 4.33753,13.43782 0.15009,2.33821 -0.0857,4.51174 -0.28715,6.83686 -0.93593,8.2762 -3.35181,16.27909 -4.99826,24.42309 -1.17263,5.66589 -2.25022,11.38012 -2.59193,17.16478 -0.53749,12.05681 3.40425,24.3473 11.1634,33.63066 6.18243,7.37706 14.74967,12.70167 24.10175,14.98029 14.7831,3.72532 31.32124,0.25552 43.06373,-9.55832 5.88206,-4.86676 10.16441,-11.35923 13.54212,-18.13771 2.85144,-5.80731 4.45522,-12.39418 3.56716,-18.86964 -0.7154,-5.68479 -3.17003,-10.92504 -5.12924,-16.25028 -5.95355,-15.80788 -11.95712,-31.59908 -17.93553,-47.39849 -3.28153,19.98113 -6.43013,39.98404 -9.72785,59.9623 -0.4732,2.31564 -1.00945,4.73506 -2.39519,6.69199 -2.04591,2.19282 -5.34606,2.87971 -8.21841,2.32856 -1.74187,-0.33247 -3.36452,-1.4991 -3.88717,-3.24849 -1.12052,-3.05958 -0.54882,-6.38493 -0.15126,-9.52583 1.07132,-6.8794 3.28108,-13.51034 4.68365,-20.32053 2.23886,-10.16209 3.3884,-20.7364 1.71499,-31.07599 -1.58187,-10.30463 -5.50393,-20.124 -10.60093,-29.17475 -2.28616,-4.10021 -4.79459,-8.07348 -7.42954,-11.95758 6.64228,1.87472 13.5422,2.72732 20.42773,2.98047 7.37947,0.21787 14.79925,-0.70651 21.85527,-2.89984 5.90487,-1.76476 11.58806,-4.19532 17.12325,-6.88922 3.79679,3.98915 8.78603,6.49294 13.50598,9.19743 5.32301,2.96596 10.91055,5.66753 16.95581,6.75027 4.98769,0.92419 10.08502,0.96485 15.14133,1.02119 4.92652,-0.0296 9.87086,-0.009 14.77334,-0.54856 5.53928,-0.66487 11.02276,-2.42448 15.59667,-5.68191 6.16898,-4.1593 11.51201,-9.76268 14.62022,-16.5821 2.61552,-5.53782 3.8485,-11.61673 4.34159,-17.69154 0.60262,-6.68891 0.72416,-13.40929 1.19493,-20.10708 -0.03,-0.61942 0.093,-1.34624 -0.19779,-1.88955 -5.91012,-7.09625 -11.18839,-14.74837 -17.74285,-21.28703 -4.55715,-4.43216 -10.31439,-7.89439 -16.69509,-8.74948 -8.46234,-1.26478 -17.025,0.33115 -25.20889,2.46968 -2.07496,0.55738 -4.13226,1.1798 -6.17393,1.84868 0.81654,-2.36031 1.72111,-4.71224 2.23455,-7.15921 0.61305,-4.07349 -0.68133,-8.35771 -3.24869,-11.54491 -2.30746,-2.39753 -5.44431,-3.99507 -8.72414,-4.52439 -1.473,-0.20661 -2.97775,-0.18276 -4.44336,0.0703 4.53475,-10.06856 7.9645,-20.57764 11.46165,-31.03732 2.07613,-5.95682 4.29572,-11.92684 7.56826,-17.34609 1.3798,-2.0665 2.67884,-4.39727 4.91736,-5.64784 3.25945,-1.61876 7.36616,-0.28058 9.5918,2.45312 3.93848,4.37219 5.08743,10.68339 4.12081,16.36511 -0.98574,5.29688 -3.08879,10.42785 -3.0487,15.886 -0.0917,3.39695 1.02719,6.81269 3.2178,9.42374 3.04696,3.80104 8.14201,5.90485 12.97807,5.07363 4.03936,-0.61215 7.56835,-2.95003 10.4703,-5.72504 7.74519,-7.17245 12.58029,-17.15492 14.2104,-27.52373 2.01433,-12.62107 -0.28854,-25.99467 -6.85103,-37.00557 -3.58746,-6.05829 -8.57686,-11.27046 -14.49719,-15.08522 -11.3897,-7.46119 -25.82182,-9.97899 -39.09355,-7.01624 -12.43824,2.70663 -23.95674,10.14317 -30.91201,20.88977 -3.42991,5.29066 -5.95505,11.08968 -8.63633,16.77734 -0.74449,1.62823 -1.47017,3.2652 -2.19295,4.9031 0.78794,-9.37214 -0.0391,-18.82272 -1.90453,-28.0238 -1.77951,-9.00069 -4.03603,-17.89759 -6.24105,-26.80074 -2.0545,-8.02915 -4.25016,-16.11657 -5.97747,-24.173503 -0.88837,-4.496097 -1.92165,-9.055632 -1.6216,-13.667647 0.33816,-3.078118 1.95944,-5.946573 4.18801,-8.056962 1.89367,-1.420345 4.31795,-1.790046 6.57918,-2.256247 6.30521,-1.016438 12.77728,-1.041291 18.95337,-2.806814 3.53655,-0.979305 7.12808,-2.491519 9.51587,-5.397696 3.12386,-3.595092 4.44277,-8.728435 3.18314,-13.352632 -1.35746,-5.732101 -5.94826,-10.310642 -11.31915,-12.482085 -7.46586,-3.341809 -15.77238,-4.187918 -23.87235,-4.117467 -12.02262,0.341758 -24.10301,4.51173 -33.18004,12.526103 -7.3753,6.432009 -12.58086,15.440911 -14.0146,25.150453 -1.69929,9.542431 -1.20649,19.289812 -0.6479,28.913057 1.04912,15.56758 3.72165,30.95853 5.52795,46.44369 0.29472,2.74931 0.54349,5.50358 0.72961,8.26245 0.0256,0.56226 0.0773,1.46501 0.11298,2.15783 0.10586,2.20026 0.13727,4.72709 0.0426,7.10028 -0.0514,1.15162 -0.14021,2.40325 -0.26147,3.42613 -0.42957,4.1265 -1.671,8.2037 -3.96653,11.68458 -2.14027,3.3104 -4.78926,6.27936 -7.66393,8.96712 -4.34839,3.8323 -9.55367,6.58985 -14.94406,8.6506 -3.27968,1.22175 -6.85263,2.42838 -10.37049,1.51763 -4.5794,-1.09225 -8.78572,-3.82663 -11.58444,-7.61941 -1.05279,-1.25075 -1.01191,-2.9816 -1.19265,-4.5218 -0.14335,-2.64235 -0.47396,-5.44621 -0.28072,-8.16988 0.23898,-5.24008 1.63482,-10.39585 3.94959,-15.09656 3.53631,-7.50142 8.11933,-14.45581 11.61056,-21.98033 5.31096,-10.99967 9.3112,-22.82193 10.13624,-35.07794 C 328.40474,92.679974 324.36125,75.030624 314.98745,60.550972 309.04506,51.207701 301.1712,42.851771 291.3726,37.528735 282.71348,32.837525 272.92604,30.606952 263.15956,29.883081 259.484,29.589436 255.79347,29.514023 252.1074,29.574209 Z M 116.56055,269.39453 c 11.14584,4.84336 23.22457,6.8581 35.14415,8.78857 1.67079,0.26796 3.34007,0.54419 5.01014,0.8169 -7.80503,2.97525 -16.37793,4.15579 -24.65184,2.7616 -2.56028,-0.39204 -5.30712,-1.03196 -7.61964,-1.6698 -2.39333,-0.6908 -4.79252,-1.3629 -7.20313,-1.99024 -0.0419,-2.95126 -0.33065,-5.90141 -0.88671,-8.80078 0.069,0.0312 0.13802,0.0625 0.20703,0.0937 z m 278.81445,2.81641 c -0.23672,1.33377 -0.44493,2.67271 -0.62305,4.01562 -6.86631,2.59607 -13.94229,4.86597 -21.26961,5.65635 -5.14542,0.50202 -10.47741,-0.11261 -15.17961,-2.3458 9.51108,-1.98469 19.06495,-3.83282 28.40067,-6.55902 3.06334,-0.87196 6.10042,-1.83923 9.08566,-2.95075 -0.13802,0.72787 -0.27604,1.45573 -0.41406,2.1836 z m -187.66992,44.21875 c 0.29549,1.60254 0.7883,3.25025 0.53579,4.88595 -0.38626,1.73173 -2.19258,2.43267 -3.6875,2.95052 -2.51441,0.79039 -5.07326,1.43479 -7.61978,2.1147 -6.05627,1.50322 -12.122,2.62501 -18.23828,3.80859 6.46907,-3.0049 12.74813,-6.40347 18.96494,-9.89499 3.22998,-1.85677 6.42125,-3.78004 9.62295,-5.68508 0.14063,0.60677 0.28125,1.21354 0.42188,1.82031 z m 9.81836,51.31836 c -3.02031,5.69646 -7.03598,10.80123 -11.30055,15.61057 -2.80392,3.01386 -5.78357,5.94529 -9.29516,8.12966 -3.34133,1.98414 -7.46419,2.48233 -11.24186,1.71326 -2.88248,-0.56085 -5.49143,-2.17216 -7.38152,-4.40601 -2.28373,-2.58005 -4.05133,-5.76706 -4.48208,-9.22131 0.0131,-0.48323 -0.1709,-1.14501 0.082,-1.52344 4.93093,-1.82781 10.09475,-2.9204 15.21891,-4.0534 9.70494,-2.08872 19.52123,-3.89367 28.89632,-7.23566 -0.16536,0.32877 -0.33073,0.65755 -0.49609,0.98633 z" />
      <g
         id="g1652"
         transform="matrix(1.1220557,0,0,1.3213691,-31.109715,-57.051147)"
         style="fill:#000000">
        <path
           style="fill:#000000;stroke-width:6.00051"
           d="m 346.4665,397.29286 c -14.59917,-2.1778 -24.32637,-12.50886 -24.32637,-25.83652 0,-2.77303 1.65862,-10.76543 3.68582,-17.76086 6.25459,-21.58329 4.68666,-28.66058 -10.1082,-45.62602 -14.84364,-17.02138 -44.43095,-40.47937 -51.05619,-40.47937 -3.0958,0 -3.14441,0.33499 -2.19294,15.11183 3.36596,52.27481 -32.30982,93.10341 -75.44287,86.33949 -9.46415,-1.48412 -17.48037,-5.24467 -24.70879,-11.59131 -16.29336,-14.30575 -14.41114,-39.61839 3.62322,-48.72618 2.79487,-1.41148 14.31549,-3.94475 25.60138,-5.62948 11.2859,-1.68473 22.89622,-4.22553 25.8007,-5.64624 7.28109,-3.56145 9.84842,-9.30686 7.56475,-16.92904 -2.08393,-6.95553 -1.17078,-8.48283 2.87997,-4.81694 3.95304,3.57744 6.49858,12.5273 5.33187,18.74633 -0.95429,5.08678 -7.48853,12.52326 -13.89875,15.81787 -1.87168,0.96198 -10.75112,3.00977 -19.73207,4.55065 -20.03534,3.43752 -25.84982,5.28591 -27.74042,8.81853 -3.72276,6.95604 -0.2958,16.51174 8.2627,23.03962 7.42328,5.662 19.90933,6.56998 29.1085,2.11674 8.74636,-4.23404 20.72587,-16.43478 25.27931,-25.74615 8.28708,-16.94631 7.48782,-52.87804 -1.30681,-58.75038 -3.94355,-2.63318 -11.08296,-0.49651 -27.86742,8.34014 -9.8915,5.20764 -22.96039,10.98061 -29.04199,12.82883 -15.23058,4.62861 -33.4452,4.58658 -49.02132,-0.11308 -6.28431,-1.89613 -11.42602,-3.7015 -11.42602,-4.01194 0,-1.70158 9.06069,-18.16391 9.97292,-18.11974 0.59648,0.0289 5.0652,1.01369 9.93047,2.18846 11.46353,2.76799 21.57388,2.73635 32.49399,-0.10173 11.5485,-3.00134 23.40049,-9.71713 23.9829,-13.58962 0.59206,-3.93681 -4.13229,-5.41309 -26.99038,-8.43403 -38.60836,-5.10248 -45.52014,-10.40368 -59.10897,-45.3354 -3.84023,-9.87178 -8.800261,-19.86138 -11.242872,-22.64336 -8.271764,-9.42102 -22.465899,-9.96957 -31.997551,-1.23659 -4.895647,4.48544 -5.276371,5.45422 -5.276371,13.4261 0,4.7255 0.5503,10.74803 1.222887,13.38339 1.810078,7.09231 -2.377065,6.32604 -7.467852,-1.36666 -3.425084,-5.17565 -4.075313,-7.72272 -4.075313,-15.96377 0,-8.47449 0.561957,-10.54231 4.139805,-15.23311 6.627601,-8.68923 14.406473,-11.98377 28.295357,-11.98377 9.324413,0 13.077705,0.68078 17.921125,3.25058 8.053565,4.27302 11.176455,8.47184 19.640055,26.40671 8.7743,18.59323 14.88581,27.5856 21.88403,32.19981 6.09615,4.01944 22.30779,7.08792 33.63868,6.36702 l 7.17025,-0.45619 -10.70819,-5.7215 c -18.50001,-9.88475 -28.51403,-22.9932 -30.65482,-40.12744 -1.13333,-9.07089 0.27937,-16.46045 8.38934,-43.88304 7.07016,-23.90667 7.14801,-30.89834 0.4222,-37.91857 -4.87171,-5.084969 -11.56035,-7.222143 -22.73574,-7.264588 -11.51284,-0.04373 -14.12162,-2.112468 -6.61772,-5.2478 7.42348,-3.101728 24.07667,-2.284601 32.22117,1.581006 6.75113,3.20427 13.74356,12.262837 15.11697,19.583732 0.60134,3.2054 -0.53221,14.70991 -2.9245,29.68104 -2.14855,13.44576 -3.90195,27.6871 -3.89644,31.64742 0.0227,16.35041 7.22886,27.23151 23.26152,35.12436 17.91782,8.82091 37.57811,5.88644 44.01975,-6.57034 1.6594,-3.20889 2.16826,-7.35757 1.76906,-14.42257 -0.47706,-8.44266 -1.38846,-11.20538 -6.12736,-18.57361 -10.47044,-16.27991 -16.01778,-29.33196 -16.84464,-39.63293 -0.6909,-8.607 -0.29784,-10.52383 3.911,-19.0732 9.58764,-19.47528 26.68771,-28.435927 51.54935,-27.012496 16.13561,0.923829 25.84073,4.928759 34.57708,14.268628 8.96726,9.586728 13.30185,21.460578 12.42821,34.044928 -0.71726,10.33177 -4.5508,19.38679 -14.35598,33.90949 -7.18552,10.64266 -9.34923,17.67363 -8.51915,27.68315 0.58712,7.07983 1.38831,8.83662 5.92695,12.99597 5.28517,4.8435 13.27404,7.9502 20.48302,7.9654 8.31054,0.0175 22.87433,-5.81297 29.84374,-11.94769 13.81665,-12.1619 15.6165,-20.75616 10.5327,-50.2936 -4.5416,-26.38724 -4.845,-41.12012 -0.99567,-48.347909 4.2606,-7.999987 14.39617,-13.502485 26.35398,-14.307302 10.15817,-0.683693 21.43496,1.840546 21.2076,4.747188 -0.0634,0.810879 -5.26941,1.836731 -11.56888,2.279672 -13.51538,0.950318 -18.97799,3.292287 -23.56173,10.101542 -4.73064,7.027479 -4.29424,13.121549 2.49889,34.895779 3.22914,10.35045 6.63696,22.71144 7.57292,27.46886 4.7553,24.17075 -5.11843,42.38625 -30.74323,56.71646 -5.08129,2.84162 -9.23871,5.52991 -9.23871,5.97396 0,0.44407 6.4686,0.48348 14.37467,0.0876 24.8097,-1.24236 33.14733,-7.55316 46.80182,-35.42462 4.26993,-8.71574 9.54005,-18.17598 11.71138,-21.02275 10.19447,-13.36563 33.12488,-16.32613 48.13027,-6.214 13.67462,9.21532 15.57792,29.85535 3.75819,40.75503 -2.1285,1.96282 -4.17497,3.2638 -4.54769,2.89108 -0.37272,-0.37273 0.32616,-3.59136 1.55307,-7.15251 6.36232,-18.46675 -10.0412,-35.62366 -28.09233,-29.38258 -7.25107,2.50701 -13.36517,10.96345 -19.30183,26.69641 -8.97401,23.78236 -17.04693,35.69784 -27.66998,40.84036 -3.56552,1.72604 -16.0783,4.708 -28.31853,6.74867 -24.16122,4.02812 -27.69593,5.7076 -23.97248,11.3903 3.54163,5.40522 15.97024,11.38504 25.68758,12.35918 12.0493,1.20792 25.98665,-2.07797 50.99239,-12.02206 21.60095,-8.5901 36.92391,-12.05268 45.8917,-10.37032 3.44706,0.64667 7.22865,3.29152 12.00094,8.39349 l 6.96792,7.44928 -0.60201,9.45445 c -0.67857,10.65676 -3.59129,15.78169 -11.67584,20.54366 -4.05832,2.39043 -7.65759,2.94865 -19.01213,2.94865 -12.3218,0 -15.1116,-0.51061 -23.19923,-4.24613 -12.9186,-5.96684 -13.52788,-7.16326 -5.74944,-11.28972 l 6.4497,-3.42155 7.34758,3.16083 c 14.81461,6.37308 25.93544,5.59308 27.82911,-1.9519 0.53099,-2.11567 0.22595,-5.46969 -0.67787,-7.45338 -4.09407,-8.9855 -15.16261,-7.29766 -44.56584,6.79584 -23.79131,11.4036 -33.87052,14.02877 -48.67845,12.6785 -13.08834,-1.19347 -19.0661,-3.49559 -43.03387,-16.57291 -11.23363,-6.12929 -20.69169,-10.87724 -21.01796,-10.55098 -0.32625,0.32626 7.73423,8.4444 17.91217,18.04031 20.59702,19.41917 31.94876,34.23651 35.44639,46.26794 2.64716,9.10593 2.05512,16.62138 -2.43929,30.96476 -4.04054,12.89489 -3.82179,19.58992 0.82033,25.10676 6.63858,7.8895 22.41242,7.70448 29.98076,-0.35164 1.76128,-1.8748 3.7529,-6.33381 4.42581,-9.90892 l 1.2235,-6.50018 2.27304,5.09643 c 2.59521,5.81878 1.66126,9.65297 -4.234,17.38205 -6.25348,8.19876 -18.60162,12.47316 -30.78346,10.65597 z M 284.98881,160.41248 c 4.39126,-4.83641 3.67759,-8.41993 -1.8017,-9.04656 -5.47032,-0.6256 -11.17405,2.40477 -11.17405,5.93674 0,2.55668 0.28714,2.5889 4.34977,0.48803 2.39237,-1.23714 5.12739,-2.24934 6.07781,-2.24934 3.33086,0 -1.61264,4.1955 -6.10648,5.18251 -4.50363,0.98916 -5.64265,2.89503 -2.47819,4.1466 3.12612,1.2364 7.58299,-0.54829 11.13284,-4.45798 z m -45.41091,2.61764 c 0,-0.74645 -1.9445,-1.78427 -4.3211,-2.30626 -5.43921,-1.19465 -9.27675,-5.18251 -4.98716,-5.18251 1.56606,0 4.13522,0.97406 5.70924,2.1646 3.65416,2.76386 5.07335,2.80036 5.07335,0.13048 0,-3.21084 -5.94389,-6.71806 -11.3855,-6.71806 -4.36542,0 -4.83208,0.41908 -4.83208,4.33938 0,2.81286 1.15268,5.14674 3.2767,6.63446 3.5551,2.49009 11.46655,3.13721 11.46655,0.93791 z"
           id="path1372" />
        <path
           style="fill:#000000;stroke-width:6.00051"
           d="m 392.22143,251.00392 c 2.25982,-10.5921 4.70367,-14.11945 12.53012,-18.08541 4.20092,-2.12876 7.40116,-3.29169 7.11165,-2.58428 -6.61149,16.15524 -9.51694,20.91264 -14.10927,23.10257 -6.59568,3.14526 -6.71171,3.09424 -5.5325,-2.43288 z"
           id="path1411" />
        <path
           style="fill:#000000;stroke-width:6.00051"
           d="m 58.820739,291.40598 c -23.881724,-11.20147 -19.35553,-43.27067 6.790754,-48.11416 6.432535,-1.1916 24.177146,2.39548 32.267549,6.52289 6.742348,3.43969 6.726728,3.41157 4.397138,7.9206 -4.107709,7.95064 -4.889755,8.21135 -15.667085,5.22289 -13.932273,-3.86331 -17.075852,-3.58946 -21.685773,1.88912 -5.398961,6.4163 -4.570485,11.24707 2.561247,14.93439 15.978744,8.26149 39.649751,-8.93498 39.649751,-28.80467 0,-4.17375 -1.4053,-9.36252 -3.83351,-14.15435 -2.10843,-4.16079 -3.21046,-7.56507 -2.44896,-7.56507 3.02633,0 14.29644,9.96258 16.72332,14.78312 7.36419,14.62758 -3.37712,36.77297 -22.273005,45.92031 -9.560274,4.62805 -28.127124,5.36344 -36.481426,1.44493 z"
           id="path1450" />
      </g>
    </g>
  </g>
</svg>
