<?xml version="1.0" encoding="UTF-8" standalone="no"?>
<!-- Created with Inkscape (http://www.inkscape.org/) -->

<svg
   version="1.1"
   id="svg834"
   width="512"
   height="512"
   viewBox="0 0 512 512"
   sodipodi:docname="nodexp.svg"
   inkscape:version="1.2.2 (b0a8486541, 2022-12-01)"
   inkscape:export-filename="../GIT Icons/nodexp.png"
   inkscape:export-xdpi="96"
   inkscape:export-ydpi="96"
   xmlns:inkscape="http://www.inkscape.org/namespaces/inkscape"
   xmlns:sodipodi="http://sodipodi.sourceforge.net/DTD/sodipodi-0.dtd"
   xmlns="http://www.w3.org/2000/svg"
   xmlns:svg="http://www.w3.org/2000/svg"
   xmlns:rdf="http://www.w3.org/1999/02/22-rdf-syntax-ns#"
   xmlns:cc="http://creativecommons.org/ns#"
   xmlns:dc="http://purl.org/dc/elements/1.1/">
  <metadata
     id="metadata840">
    <rdf:RDF>
      <cc:Work
         rdf:about="">
        <dc:format>image/svg+xml</dc:format>
        <dc:type
           rdf:resource="http://purl.org/dc/dcmitype/StillImage" />
      </cc:Work>
    </rdf:RDF>
  </metadata>
  <defs
     id="defs838" />
  <sodipodi:namedview
     pagecolor="#7b7b7b"
     bordercolor="#666666"
     borderopacity="1"
     objecttolerance="10"
     gridtolerance="10"
     guidetolerance="10"
     inkscape:pageopacity="0"
     inkscape:pageshadow="2"
     inkscape:window-width="1366"
     inkscape:window-height="705"
     id="namedview836"
     showgrid="false"
     inkscape:zoom="0.83972969"
     inkscape:cx="248.88962"
     inkscape:cy="292.95141"
     inkscape:window-x="0"
     inkscape:window-y="0"
     inkscape:window-maximized="1"
     inkscape:current-layer="svg834"
     inkscape:pagecheckerboard="0"
     inkscape:showpageshadow="0"
     inkscape:deskcolor="#7b7b7b" />
  <g
     id="g1301"
     transform="matrix(0.99881602,0,0,0.98898048,0.30294199,2.8206532)">
    <path
       id="path844-3"
       style="fill:#00ff00;fill-opacity:1;stroke-width:0.735273"
       d="m 257.94727,4.6894531 c -11.75135,0.2929799 -23.36295,3.0561733 -34.21289,7.4511719 -8.66243,3.536378 -16.95609,8.043933 -24.32227,13.789063 -6.62435,5.077839 -12.51696,11.004945 -18.21875,17.054687 -6.70015,7.227813 -12.84414,14.984422 -18.01172,23.357422 -3.28969,5.273681 -6.42643,10.649919 -9.24023,16.185547 -0.50381,1.32758 -1.31527,2.489733 -2.13282,3.640625 -2.28321,3.602804 -3.88151,7.565701 -5.68945,11.408203 -1.35455,3.080498 -2.484,6.254088 -3.59961,9.421878 -1.98175,3.40123 -2.95911,7.24691 -3.90039,11.01757 -1.05254,1.89867 -1.16988,4.1361 -2.17969,6.05274 -0.81197,2.04415 -0.86657,4.28593 -0.74218,6.44531 -0.66355,3.46825 -1.0529,6.98449 -1.81446,10.43555 -2.17717,11.47484 -3.09989,23.35581 -0.93359,34.9043 1.15683,6.32111 3.28971,12.44988 6.16992,18.20507 2.99143,6.66419 5.47151,13.54808 7.60547,20.52344 1.25108,3.87055 2.08255,7.9037 1.99414,11.98242 0.01,1.94483 -0.11039,3.73016 -0.23437,5.66407 -4.68093,1.57956 -9.53529,2.58643 -14.29297,3.9082 -4.38658,1.15831 -8.70265,2.57646 -12.88477,4.32422 -7.77552,3.06439 -15.43323,6.45135 -22.794921,10.39258 -7.458832,4.15328 -14.2495,9.57808 -19.525391,16.26367 -6.574199,7.98041 -11.770165,16.93392 -17.023437,25.7832 -5.56315,9.54901 -10.893617,19.24177 -15.628907,29.21875 -1.093379,2.59261 -1.830355,5.31946 -3.123046,7.83203 -4.25545,9.45236 -7.68736,19.23786 -11.029297,29.03321 -5.172814,15.30121 -10.031424,30.72219 -13.91211,46.39648 -1.149283,4.77523 -2.144561,9.66305 -1.80664,14.59766 0.588579,8.65847 3.813579,16.87111 7.470703,24.67382 3.335233,7.07451 8.279634,13.22623 12.884765,19.51563 6.331641,8.35227 12.577772,16.7976 19.6875,24.5332 5.705508,6.28736 11.694548,12.31613 17.53125,18.48438 0.509338,0.25877 1.225835,0.0404 1.816407,0.11328 119.969684,-0.003 239.940474,-0.007 359.910154,-0.01 7.5366,-6.30507 14.57606,-13.19189 20.96094,-20.63476 11.00422,-12.50888 21.14494,-25.81145 29.62305,-40.125 4.16358,-7.12526 7.97123,-14.71706 9.00781,-22.97657 0.53511,-4.21899 0.18175,-8.51133 -0.81641,-12.63867 -1.73054,-8.28846 -3.57036,-16.56055 -5.79687,-24.73437 -2.68089,-9.77329 -6.15733,-19.30615 -9.61328,-28.83203 -3.7525,-10.16153 -7.67444,-20.26727 -11.94141,-30.23047 -3.80929,-8.7694 -7.94636,-17.3968 -12.14844,-25.98828 -3.60438,-7.25479 -7.64234,-14.30551 -12.25976,-20.98243 -7.06842,-10.27066 -15.44652,-19.79997 -25.53907,-27.28125 -5.60507,-4.12078 -11.85076,-7.39786 -18.48828,-9.57226 -11.58223,-4.21277 -23.4674,-7.57831 -34.98242,-11.97461 -0.38038,-0.2432 -0.0851,-0.9591 -0.21484,-1.375 -0.0629,-1.59915 -0.0899,-3.20118 -0.0254,-4.80078 0.0298,-0.52252 0.0669,-1.34721 0.13281,-1.99024 0.19318,-2.0035 0.525,-4.02271 0.92773,-5.91601 2.13009,-10.00976 6.80395,-19.21222 10.81641,-28.56836 2.17891,-5.02571 3.73273,-10.34213 4.23047,-15.79883 0.47492,-5.07774 0.18827,-10.18618 -0.0703,-15.26758 -0.60132,-10.13382 -2.32503,-20.18597 -4.96289,-29.99414 -2.71119,-10.17821 -6.16877,-20.15388 -10.08399,-29.939451 -3.97973,-9.45966 -8.89024,-18.510385 -14.05859,-27.382813 -3.39728,-5.694299 -7.41332,-11.00165 -11.66992,-16.091797 C 327.30349,40.176758 314.08647,27.345935 298.66211,17.578125 289.25556,11.659629 278.86053,6.9134346 267.75391,5.265625 264.50833,4.8114314 261.22344,4.6532342 257.94727,4.6894531 Z M 308.20703,177.84961 c 0.19447,-0.018 -0.19317,0.7846 -0.19726,1.09961 -0.71734,2.54621 -1.50293,5.1669 -3.10352,7.32422 -0.63147,0.88792 -1.83742,0.84545 -2.77734,1.20117 -3.17791,0.87396 -6.40462,1.56956 -9.65625,2.11719 5.11131,-3.7895 10.08896,-7.7593 15.31054,-11.40235 0.22981,-0.23646 0.35901,-0.33383 0.42383,-0.33984 z m -104.70117,0.99805 c 0.0747,0.0106 0.20149,0.0942 0.40625,0.28125 0.36391,0.23569 0.72788,0.47133 1.0918,0.70703 4.77951,3.12623 9.40694,6.47187 13.99218,9.86718 -3.38141,-0.68489 -6.80878,-1.22741 -10.10156,-2.26953 -1.76703,-0.56763 -3.27731,-1.86406 -4.13672,-3.48047 -0.44566,-1.33513 -0.68017,-2.73967 -1.10547,-4.08789 -0.11397,-0.42702 -0.37074,-1.04949 -0.14648,-1.01757 z m 93.125,47.41601 c 0.43458,-0.0948 0.79341,0.0765 1.19336,0.21875 0.93514,0.5643 1.17996,2.02716 0.24805,2.71094 -0.67528,0.49365 -1.6924,0.53707 -2.33594,-0.043 -0.68879,-0.33104 -0.15355,-0.94204 0.0215,-1.42383 0.31915,-0.4506 0.29913,-1.31917 0.87305,-1.46289 z m -54.90625,8.89649 c 0.21881,-0.0494 0.45209,-0.0264 0.66797,0.0293 0.67391,0.14176 0.85801,0.9896 0.34765,1.42578 -0.3167,0.37747 -0.51939,1.31527 -1.18359,0.94336 -0.97211,-0.45032 -1.05099,-2.25316 0.16797,-2.39843 z" />
    <rect
       style="fill:#ff0001;fill-opacity:1;stroke-width:0.895513"
       id="rect2109"
       width="136.45872"
       height="48.440765"
       x="188.18083"
       y="156.5162" />
    <path
       style="fill:#000000;fill-opacity:1;stroke-width:0.735273"
       d="M 72.299408,488.64677 C 61.673954,477.54213 58.97785,474.32532 47.149971,458.64013 37.589134,445.96131 35.678999,442.95996 32.784235,436.0676 c -3.59562,-8.56107 -4.759532,-13.25853 -4.750659,-19.17331 0.01363,-9.08661 18.047835,-66.30067 26.187904,-83.08189 0.969731,-1.99915 1.763141,-3.89823 1.763141,-4.22018 0,-2.44382 13.94248,-28.23219 22.769314,-42.11472 11.636202,-18.30099 17.732613,-23.6665 36.218305,-31.87612 11.67513,-5.18502 17.44866,-7.27465 25.61813,-9.27205 12.61131,-3.08343 15.36613,-4.16422 17.39876,-6.82605 1.73357,-2.27018 2.00334,-3.39891 2.30427,-9.64105 0.23152,-4.80223 -0.0316,-8.86886 -0.82045,-12.67871 -1.36529,-6.59413 -7.00517,-22.47494 -10.39775,-29.27802 -6.13988,-12.31217 -7.31647,-26.79593 -3.67127,-45.1932 0.64066,-3.23333 1.2518,-6.87084 1.35812,-8.08333 0.10634,-1.2125 0.61022,-2.97938 1.11974,-3.9264 0.50954,-0.94702 0.71947,-2.54547 0.46652,-3.55211 -0.32061,-1.27595 -0.20427,-1.67246 0.38411,-1.30922 0.59005,0.36423 0.68589,0.0234 0.31852,-1.13273 -0.39373,-1.23911 -0.28991,-1.50833 0.41407,-1.07375 0.6813,0.42058 0.80063,0.21842 0.43414,-0.73555 -0.63616,-1.65587 2.47407,-11.49753 3.44427,-10.89863 0.39431,0.24341 0.49968,0.0915 0.23414,-0.3377 -0.77655,-1.25502 7.87114,-20.757412 9.20418,-20.757412 0.33847,0 0.6154,-0.376508 0.6154,-0.836677 0,-1.782587 10.03713,-18.982639 14.94935,-25.617876 7.4827,-10.107289 18.1236,-21.354286 26.98567,-28.522712 16.12018,-13.03943 40.37963,-21.161403 58.46825,-19.574951 21.84817,1.916182 49.71221,22.520053 72.80339,53.833979 4.68022,6.346825 14.38073,24.52525 17.78437,33.327159 8.38893,21.69428 12.50673,38.0605 13.4932,53.62876 0.99381,15.68423 0.34342,19.61984 -5.24701,31.75146 -8.44527,18.32695 -11.29486,29.29063 -10.72125,41.24905 0.3484,7.26138 0.37609,7.35337 2.84668,9.43613 1.84685,1.55693 7.36793,3.6798 21.25526,8.17263 10.31822,3.33815 20.88585,6.97344 23.48361,8.07843 16.90931,7.19257 34.01852,26.81196 46.6487,53.49273 1.00859,2.13049 3.88114,8.17249 6.38355,13.42666 7.54732,15.84681 20.65256,50.59465 24.94345,66.13639 1.88884,6.84138 5.90897,24.53279 6.34544,27.92424 1.07507,8.35444 -2.83543,17.71938 -14.7698,35.37075 -9.50385,14.05663 -25.21663,32.63332 -34.63579,40.94879 l -3.03196,2.6767 H 419.5238 407.6654 l -0.19152,-103.32685 -0.19147,-103.32685 -2.5295,-2.10923 -2.52951,-2.10921 -54.11959,0.0249 c -29.76575,0.0137 -57.76126,0.005 -62.21226,-0.0211 l -8.09273,-0.046 3.99649,-2.74923 c 16.36858,-11.26012 32.93316,-27.83552 43.46137,-43.48978 6.51079,-9.68073 13.25781,-24.2762 15.81613,-34.21401 3.211,-12.47306 4.26909,-32.4458 2.23143,-42.12114 -4.04407,-19.20256 -14.93786,-28.25113 -37.35805,-31.0302 -7.13837,-0.88484 -23.25377,-0.29886 -40.28644,1.46486 -7.08499,0.73365 -9.28509,0.67394 -27.22098,-0.73876 -15.52198,-1.22258 -30.8843,-1.30753 -37.90683,-0.20966 -15.55903,2.43246 -25.85044,10.3417 -30.77606,23.65228 -2.50034,6.75672 -2.95924,10.04139 -2.942,21.05837 0.0289,18.46508 3.00622,31.45816 10.94533,47.76517 4.66442,9.5808 10.81008,19.13215 16.53743,25.70185 5.82067,6.67679 16.13962,16.93036 20.96751,20.83466 2.83244,2.29061 5.31544,4.36306 5.51776,4.60544 0.20232,0.24238 3.31736,2.47523 6.9223,4.96189 l 6.55446,4.52118 -14.27933,0.0271 c -7.85363,0.0149 -36.03403,0.009 -62.62313,-0.0151 l -48.3438,-0.0423 -2.41965,2.15937 -2.41965,2.15927 -0.19147,103.30659 -0.19148,103.3066 -12.315463,0.005 -12.315448,0.005 -6.859841,-7.16921 z m 46.955612,-1.63175 v -8.7921 l 136.28882,0.15762 136.28882,0.15763 0.20731,8.63448 0.20724,8.63446 H 255.75112 119.25502 Z m 7.17309,-24.07204 -7.17309,-0.25727 v -81.54159 -81.54161 h 113.99041 c 78.71925,0 114.13793,0.23842 114.46718,0.77053 0.33161,0.53595 0.76399,0.53242 1.42028,-0.0116 0.63079,-0.5229 7.8637,-0.7174 21.82165,-0.58682 l 20.87812,0.19532 0.52591,5.14394 c 0.73281,7.16799 0.34999,156.62796 -0.40307,157.38024 -0.57793,0.57727 -250.18287,0.99923 -265.52739,0.44887 z m 132.83659,-4.14234 c 1.6964,-0.95357 4.90525,-2.82081 7.13074,-4.14945 2.22551,-1.32864 5.86724,-3.40016 8.09272,-4.60339 7.93698,-4.29117 7.69168,-3.6864 7.95291,-19.60847 0.18322,-11.16774 0.0145,-14.30512 -0.85875,-15.96803 -0.78124,-1.48772 -4.62753,-4.08371 -13.68177,-9.23429 -6.92724,-3.94063 -13.12184,-7.16478 -13.76574,-7.16478 -1.22538,0 -4.67395,1.8573 -16.63306,8.95796 -3.95475,2.34813 -7.37789,4.26932 -7.60694,4.26932 -0.22906,0 -1.03789,0.74404 -1.7974,1.65341 -1.25111,1.49798 -1.38323,3.08414 -1.40541,16.87289 -0.0275,17.14546 -0.26174,16.39142 6.07761,19.5699 5.55569,2.78557 7.15722,3.16382 9.76123,2.3054 4.51272,-1.48759 4.79,-2.65747 4.56767,-19.27207 l -0.19917,-14.88332 h -2.20711 -2.20711 l -0.36784,14.32956 -0.36785,14.32955 -1.83926,0.18766 c -1.04771,0.10692 -3.34319,-0.76335 -5.33384,-2.02218 l -3.49459,-2.20984 v -12.70325 -12.70324 l 3.86244,-2.27586 c 2.12434,-1.25171 7.32123,-4.2734 11.54865,-6.71483 l 7.68622,-4.43899 2.98146,1.7178 c 1.63981,0.9448 4.47127,2.57742 6.29212,3.62807 1.82087,1.05064 5.53974,3.14677 8.26417,4.65806 l 4.9535,2.7478 0.0125,13.35952 0.0125,13.35951 -5.63003,3.17458 c -5.83959,3.29274 -7.16978,4.06202 -12.82716,7.41835 -3.99546,2.37037 -4.8596,2.43351 -7.29239,0.53276 -1.01157,-0.79037 -2.40303,-1.44438 -3.0921,-1.45337 -1.48138,-0.0193 -5.00062,1.49086 -5.00062,2.14587 0,1.00425 9.33079,5.90182 11.26181,5.91115 1.13603,0.005 3.4535,-0.7702 5.14992,-1.72376 z m 11.36104,-19.15523 c 4.42873,-4.82433 2.45946,-10.71148 -3.96417,-11.85094 -9.59998,-1.70292 -11.66951,-2.28655 -11.66951,-3.2909 0,-0.58257 0.9524,-1.51519 2.11646,-2.07246 3.17298,-1.51902 7.87383,-0.3452 9.13387,2.28072 0.73595,1.53373 1.49585,2.0195 3.1591,2.0195 2.65762,0 3.36898,-1.45485 2.14937,-4.39584 -1.45864,-3.51737 -5.09153,-5.15719 -11.42532,-5.15719 -5.04704,0 -5.64247,0.16868 -8.05069,2.28068 -5.66866,4.97137 -1.88043,12.4163 6.31783,12.4163 4.24877,0 8.73846,1.54175 8.73846,3.00078 0,1.88447 -2.21868,2.88 -6.38902,2.86675 -4.03803,-0.0128 -5.15586,-0.53982 -6.39009,-3.01257 -0.62769,-1.25755 -1.4922,-1.75269 -3.0602,-1.75269 -3.04316,0 -3.37594,2.95231 -0.69194,6.13837 2.53014,3.00341 5.37761,3.81158 12.11704,3.43908 5.21277,-0.28812 5.64994,-0.44895 7.90881,-2.90959 z m 22.02364,-21.12551 c 2.3241,-2.18084 2.22367,-5.23475 -0.23573,-7.16706 -2.49387,-1.9594 -4.06424,-1.9248 -5.91655,0.13038 -2.40182,2.66486 -2.56612,3.32919 -1.38679,5.60712 1.76791,3.41478 4.80893,3.99144 7.53907,1.42956 z m -1.36413,-3.78044 c -0.16728,-1.43109 -0.0822,-2.46502 0.18902,-2.29758 0.83248,0.51391 1.25791,3.05263 0.6706,4.00181 -0.33433,0.54034 -0.67658,-0.13817 -0.85962,-1.70423 z m -4.90969,0.2343 c 0,-1.01042 0.16699,-1.42378 0.37108,-0.91856 0.20409,0.5052 0.20409,1.33191 0,1.83712 -0.20409,0.5052 -0.37108,0.0919 -0.37108,-0.91856 z m -60.29874,-12.73463 c 1.74112,-0.94154 7.80059,-4.38449 13.4655,-7.65099 l 10.29983,-5.93911 0.19919,-15.23832 c 0.17547,-13.42499 0.0519,-15.40085 -1.03826,-16.60409 -0.68059,-0.75116 -4.0542,-2.93422 -7.49691,-4.85122 -3.44272,-1.91699 -7.11383,-3.98975 -8.15803,-4.60612 -1.0442,-0.61635 -3.41743,-2.02175 -5.27385,-3.12309 -1.85641,-1.10135 -4.25081,-2.00246 -5.32087,-2.00246 -1.07008,0 -4.18612,1.37066 -6.92454,3.04589 -2.73841,1.67524 -6.70229,3.97801 -8.80861,5.11726 -5.66972,3.06664 -7.16578,3.9218 -7.57373,4.32928 -0.20232,0.20208 -1.02997,0.73386 -1.83925,1.18174 -1.38926,0.76885 -1.48249,1.68461 -1.67012,16.40434 -0.19662,15.42538 -0.18107,15.60472 1.47141,16.98013 0.91856,0.76457 2.66507,1.87479 3.88112,2.46718 1.21605,0.59236 6.50496,3.58004 11.75313,6.63926 5.24818,3.05922 9.61553,5.56221 9.70523,5.56221 0.0897,0 1.58764,-0.77034 3.32876,-1.71189 z m 68.64315,-1.2275 c 2.6444,-1.61667 4.96186,-2.9394 5.14993,-2.9394 0.18807,0 2.50553,-1.32272 5.14991,-2.93939 2.64438,-1.61666 5.01919,-2.93939 5.27736,-2.93939 0.25814,0 1.57659,-0.84354 2.92985,-1.87452 l 2.46048,-1.87452 v -35.8563 c 0,-33.23235 -0.0943,-35.93824 -1.28749,-36.97614 -1.83176,-1.59325 -14.90266,-8.66098 -16.01742,-8.66098 -0.51162,0 -1.13118,0.52307 -1.37679,1.16238 -0.24561,0.6393 -0.44657,9.40237 -0.44657,19.47349 0,10.07111 -0.17211,18.31112 -0.38247,18.31112 -0.21035,0 -1.69357,-0.82671 -3.29604,-1.83713 -1.60246,-1.01041 -3.57053,-1.83712 -4.37349,-1.83712 -1.2474,0 -6.89453,2.69555 -9.237,4.4091 -0.40464,0.29599 -2.2255,1.36366 -4.04636,2.37257 -8.44989,4.68201 -12.9495,7.45992 -13.79442,8.51621 -0.6654,0.83186 -0.91962,5.13846 -0.91962,15.57813 0,14.02854 0.0459,14.46998 1.65532,15.92817 1.41863,1.28528 5.20009,3.58612 21.88715,13.31724 3.70356,2.15975 5.27506,1.96329 10.66767,-1.33352 z m -11.21945,-21.01817 -3.86243,-2.54006 v -4.64271 -4.64272 l 4.45657,-2.33335 c 4.42587,-2.3173 4.47275,-2.3244 6.80525,-1.03084 1.29176,0.7164 2.5142,1.49199 2.71652,1.72356 0.20231,0.23157 0.94721,0.63454 1.65533,0.89551 1.0598,0.39056 1.28747,1.39225 1.28747,5.66453 0,4.2723 -0.22766,5.27395 -1.28747,5.66446 -0.70812,0.2609 -2.52241,1.24257 -4.03175,2.18148 -1.50934,0.9389 -2.99913,1.68304 -3.31066,1.65364 -0.31152,-0.0294 -2.30449,-1.19647 -4.42883,-2.5935 z m 77.28109,20.11676 c 1.93983,-1.12089 3.68454,-2.03799 3.87706,-2.03799 0.19256,0 1.66779,-0.83086 3.27831,-1.84633 3.42759,-2.16123 3.91558,-4.49177 1.08893,-5.2004 -1.01161,-0.25358 -1.83929,-0.75591 -1.83929,-1.11626 0,-0.36035 -0.33763,-0.65519 -0.75029,-0.65519 -0.41268,0 -1.98525,-0.77457 -3.49458,-1.7213 -1.50938,-0.94672 -4.73065,-2.81758 -7.15847,-4.15749 -10.33002,-5.70111 -9.93491,-5.26853 -9.90897,-10.84823 l 0.0232,-4.95102 3.83943,-2.342 3.83937,-2.34202 2.57497,1.54494 c 1.4162,0.84971 3.31729,1.90362 4.22452,2.34201 1.4423,0.6969 1.65037,1.36441 1.65533,5.31125 0.006,3.31093 0.29702,4.62583 1.09848,4.93301 0.60105,0.23039 3.99403,-1.2723 7.54097,-3.33973 3.54647,-2.0672 7.35866,-4.22861 8.47136,-4.80312 1.92913,-0.99596 2.0232,-1.29609 2.0232,-6.45206 0,-5.13003 -0.10964,-5.48548 -2.13675,-6.92725 -1.17517,-0.83585 -2.32812,-1.51973 -2.56196,-1.51973 -0.23389,0 -2.58887,-1.32273 -5.23326,-2.93939 -2.64439,-1.61667 -4.93383,-2.9394 -5.08766,-2.9394 -0.15384,0 -2.54822,-1.37731 -5.32089,-3.06069 -2.77263,-1.68338 -5.86887,-3.05781 -6.88044,-3.05431 -1.01157,0.004 -4.15669,1.42874 -6.98918,3.16718 -2.83244,1.73846 -6.80524,4.06014 -8.82843,5.1593 -6.67804,3.62808 -9.55241,5.28416 -10.48376,6.04014 -0.68193,0.55361 -0.91959,4.67483 -0.91959,15.94792 0,11.0517 0.251,15.51847 0.91959,16.36297 0.50581,0.63887 2.74051,2.15462 4.96599,3.36835 2.22554,1.21371 7.81818,4.36308 12.42816,6.99861 9.3204,5.32848 8.48798,5.27148 15.74484,1.07823 z m -226.42449,-3.75933 c 0.79816,-0.54258 3.76865,-2.23567 6.6011,-3.7624 8.15967,-4.39822 7.72488,-3.55231 7.72488,-15.02915 0,-11.08661 -0.49358,-9.9177 5.64094,-13.35925 3.21473,-1.80351 3.16726,-1.80925 7.5528,0.9138 l 3.72741,2.31438 v 9.78089 c 0,9.71704 0.0132,9.79304 2.01567,11.64773 1.1086,1.02677 2.22403,1.86686 2.47869,1.86686 0.25467,0 3.15501,1.5234 6.44519,3.38533 3.29019,1.86193 6.47863,3.19504 7.08543,2.96246 0.94293,-0.36141 1.10327,-3.31111 1.10327,-20.29598 v -19.8731 l -3.86244,-2.46733 c -3.50301,-2.23772 -10.51164,-6.25223 -19.83819,-11.36318 l -3.46883,-1.90092 -3.15249,1.61248 c -1.73387,0.88686 -4.64228,2.47663 -6.46315,3.53279 -1.82087,1.05617 -5.95919,3.42083 -9.19627,5.25478 -9.34154,5.29241 -8.46059,2.67034 -8.46059,25.18195 0,10.78251 0.22071,19.82501 0.49047,20.09446 0.75678,0.75589 1.98444,0.58542 3.57611,-0.4966 z m 222.85548,-18.927 c 2.40526,-1.41749 2.61636,-1.81885 2.60858,-4.96024 -0.008,-3.25841 -0.14539,-3.48348 -2.94279,-4.82214 -2.88877,-1.38238 -2.97997,-1.38238 -5.86875,0 -2.79834,1.33909 -2.93479,1.56292 -2.94279,4.82709 -0.008,3.07295 0.23599,3.57382 2.38257,4.89935 3.08113,1.90259 3.62214,1.90706 6.76318,0.0559 z M 247.70982,278.96481 c -5.02884,-2.54409 -18.50416,-11.05935 -19.57089,-12.36715 -0.20232,-0.24804 -2.18871,-1.90433 -4.41421,-3.68066 -6.63501,-5.29588 -19.18108,-18.3339 -24.45043,-25.40921 -13.7085,-18.40677 -20.07058,-35.89141 -20.94509,-57.56249 -0.94563,-23.43369 5.38203,-33.05823 24.06016,-36.59616 6.78946,-1.28603 18.39483,-1.14512 40.33573,0.48975 8.57473,0.63892 14.21374,0.63079 23.54247,-0.034 23.04696,-1.64224 38.23717,-1.77845 44.31635,-0.39738 11.33386,2.57485 17.40583,7.61846 20.6745,17.17305 1.47722,4.31799 1.67492,6.28942 1.63475,16.30215 -0.0491,12.29271 -1.01339,18.77774 -4.37001,29.39395 -6.25843,19.79412 -21.92649,41.4307 -41.29779,57.02963 -12.7006,10.22726 -27.00484,18.69111 -31.48371,18.62899 -1.22154,-0.0169 -4.83586,-1.35368 -8.03183,-2.97052 z m 17.21423,-37.42979 c 2.2255,-3.62122 4.34849,-6.58743 4.71778,-6.59161 0.36928,-0.005 3.11822,2.01398 6.10876,4.4848 2.99053,2.47082 5.52953,4.37224 5.6422,4.22539 0.11269,-0.14687 2.26184,-2.99514 4.77592,-6.32952 2.51407,-3.33438 4.72455,-6.0625 4.9122,-6.0625 0.18763,0 1.71223,0.99204 3.38797,2.20454 1.67576,1.2125 3.29716,2.20454 3.60313,2.20454 0.74443,0 5.37399,-6.48632 7.24712,-10.1537 1.67598,-3.28138 3.74349,-8.95236 3.26384,-8.95236 -0.17112,0 -1.69461,0.70498 -3.38554,1.56663 -8.97162,4.57168 -27.67161,9.99708 -40.27338,11.68448 -7.81976,1.04707 -21.30224,1.00616 -27.80095,-0.0843 -12.04312,-2.02089 -23.60457,-6.32403 -31.41836,-11.6938 -3.57954,-2.45993 -4.6625,-2.54213 -3.40619,-0.25853 0.41076,0.74665 1.97384,3.92034 3.47352,7.05262 1.49966,3.1323 2.94969,5.69507 3.22225,5.69507 0.27256,0 1.27312,-0.8267 2.22346,-1.83711 0.95034,-1.01042 1.95535,-1.83712 2.23335,-1.83712 0.42805,0 3.38354,6.49971 6.01458,13.22728 0.70608,1.80542 0.80935,1.73867 5.98333,-3.86681 l 5.26486,-5.70393 5.14991,8.06863 c 2.83245,4.43775 5.31544,8.07689 5.51777,8.08693 0.20232,0.0101 2.33811,-2.44469 4.74622,-5.45503 3.18574,-3.98243 4.62062,-5.27251 5.2677,-4.73611 0.48912,0.40547 2.49165,3.19725 4.45006,6.20395 1.95839,3.00669 3.89178,5.46108 4.29642,5.45418 0.40463,-0.007 2.55656,-2.97534 4.78207,-6.59655 z m -22.34017,-41.83847 c 3.29139,-1.26593 6.52986,-2.90378 7.1966,-3.63966 1.46208,-1.6137 1.36397,-1.68893 -9.13461,-7.00397 -9.29708,-4.70675 -11.1693,-5.84509 -17.65685,-10.73542 -8.79796,-6.63193 -22.06824,-14.99612 -26.73931,-16.85366 -5.10954,-2.03191 -5.31599,-1.86412 -6.04237,4.91084 -0.51525,4.80575 -0.20882,7.66745 1.47931,13.81491 0.55495,2.02083 1.40482,5.16231 1.88864,6.98107 0.61369,2.307 1.93535,4.33696 4.37125,6.71391 3.94199,3.8466 6.85071,4.91761 19.69787,7.25287 10.65346,1.9365 17.13136,1.56224 24.93947,-1.44089 z m 56.45394,0.36605 c 4.80263,-1.00984 9.76863,-2.4407 11.03553,-3.1797 4.39521,-2.5637 7.29629,-7.48502 9.49534,-16.10761 1.94198,-7.61437 2.77968,-16.74205 1.69715,-18.49158 -0.84438,-1.36465 -3.66298,-0.96543 -10.41647,1.47543 -5.1198,1.85042 -8.14029,3.63579 -15.22945,9.00191 -20.34583,15.40073 -18.8118,14.41087 -30.27417,19.53504 -6.22467,2.7827 -6.01383,3.16924 4.05527,7.43453 6.82211,2.88987 7.03164,2.92827 13.91557,2.55105 3.84405,-0.21064 10.9186,-1.20922 15.72123,-2.21907 z M 147.26978,128.68894 c 0.0353,-0.85606 0.20963,-1.03017 0.44448,-0.44397 0.21252,0.53047 0.1864,1.16427 -0.0581,1.40847 -0.24447,0.24418 -0.41835,-0.18985 -0.3864,-0.9645 z"
       id="path844"
       inkscape:connector-curvature="0" />
  </g>
</svg>
