<?xml version="1.0" encoding="UTF-8" standalone="no"?>
<!-- Created with Inkscape (http://www.inkscape.org/) -->

<svg
   version="1.1"
   id="svg870"
   width="512"
   height="512"
   viewBox="0 0 512 512"
   sodipodi:docname="nomore403.svg"
   inkscape:version="1.2.2 (b0a8486541, 2022-12-01)"
   inkscape:export-filename="../GIT Icons/nomore403.png"
   inkscape:export-xdpi="96"
   inkscape:export-ydpi="96"
   xmlns:inkscape="http://www.inkscape.org/namespaces/inkscape"
   xmlns:sodipodi="http://sodipodi.sourceforge.net/DTD/sodipodi-0.dtd"
   xmlns="http://www.w3.org/2000/svg"
   xmlns:svg="http://www.w3.org/2000/svg">
  <defs
     id="defs874" />
  <sodipodi:namedview
     id="namedview872"
     pagecolor="#505050"
     bordercolor="#eeeeee"
     borderopacity="1"
     inkscape:pageshadow="0"
     inkscape:pageopacity="0"
     inkscape:pagecheckerboard="0"
     showgrid="false"
     inkscape:zoom="0.63886275"
     inkscape:cx="112.70026"
     inkscape:cy="278.62009"
     inkscape:window-width="1366"
     inkscape:window-height="705"
     inkscape:window-x="0"
     inkscape:window-y="0"
     inkscape:window-maximized="1"
     inkscape:current-layer="g876"
     inkscape:showpageshadow="0"
     inkscape:deskcolor="#505050" />
  <g
     inkscape:groupmode="layer"
     inkscape:label="Image"
     id="g876">
    <g
       id="g1442"
       transform="translate(-4.7466687)">
      <g
         id="g463"
         transform="matrix(1.5679392,0,0,1.5159436,-16.416003,-177.89227)">
        <path
           id="path1048"
           style="fill:#000000;stroke-width:0.819028"
           d="m 79.636719,225.4043 c -2.153849,0.19752 -3.123967,3.07056 -3.013672,8.77343 l 0.08203,4.25586 -4.349609,0.0273 c -2.392351,0.015 -6.884579,0.41025 -9.984375,0.8789 -4.504925,0.68109 -5.875957,0.60863 -6.830078,-0.36523 -2.590212,-2.64383 -8.128264,-5.17995 -12.267578,-5.61719 -3.940961,-0.41627 -4.538177,-0.24299 -6.314454,1.82617 -2.607058,3.03694 -2.477076,4.59585 0.69336,8.28907 1.46079,1.70165 2.65625,3.30344 2.65625,3.56054 0,0.2571 -1.182737,1.99275 -2.628906,3.85742 -3.458935,4.45993 -6.199392,10.89068 -7.777344,18.25391 -1.048455,4.89241 -1.248278,9.71449 -1.109375,26.62109 0.160374,19.51985 0.06252,21.15982 -1.783203,30.05469 -2.910909,14.0282 -3.496504,20.85157 -2.347657,27.34571 l 0.970703,5.48632 -2.716796,1.54883 c -5.173831,2.94804 -3.333177,7.29297 3.089843,7.29297 3.180619,0 4.31873,0.48567 6.964844,2.96875 1.739715,1.63253 4.799148,4.06504 6.796875,5.40625 l 3.63086,2.43945 -0.494141,5.09766 c -0.552013,5.68369 0.55331,10.96158 2.583984,12.3418 4.170601,2.83465 8.45833,-2.96242 8.47461,-11.45703 l 0.0039,-2.21094 h 8.917969 c 4.950514,0 10.787536,-0.53362 13.123046,-1.20117 4.079835,-1.1661 4.292336,-1.13444 7.056641,1.05078 5.77128,4.56229 10.954381,5.14513 12.664063,1.42383 1.028103,-2.2378 -0.158492,-6.971 -2.320313,-9.25 -1.450995,-1.52966 -1.374931,-1.69383 3.818359,-8.0625 4.236945,-5.19589 6.126835,-8.49485 9.416015,-16.44532 4.23142,-10.22797 8.40902,-24.57973 9.19922,-31.60351 0.76462,-6.79631 1.05193,-7.73094 2.50586,-8.17383 0.82299,-0.25072 1.59985,-1.53433 1.86523,-3.08008 0.34999,-2.03851 0.96397,-2.76991 2.66406,-3.16601 4.54191,-1.05815 7.29827,-5.15199 8.78711,-13.05469 0.35953,-1.90836 1.6407,-2.87687 7.84571,-5.92969 4.07914,-2.00693 12.71048,-5.75532 19.17968,-8.32812 11.50303,-4.57474 11.76571,-4.73462 11.95899,-7.32813 0.10871,-1.45856 0.56923,-4.06993 1.02344,-5.80273 0.81649,-3.11503 1.03752,-3.25323 19.5332,-12.26563 10.28867,-5.01336 18.99707,-9.42266 19.35156,-9.79883 0.93234,-0.98936 -0.0247,-3.83891 -2.21484,-6.59179 -2.12729,-2.67385 -3.8775,-2.4555 -4.25196,0.53125 -0.20823,1.66094 -2.91752,3.35565 -16.70117,10.4414 -16.40074,8.43112 -21.12977,9.95789 -22.54883,7.28321 -0.47823,-0.90138 -2.07356,-0.46542 -7.32226,2 -7.48102,3.51399 -8.69336,3.76407 -8.69336,1.79492 0,-0.76177 1.46252,-2.08604 3.33203,-3.01953 1.83218,-0.91486 3.55478,-2.08636 3.82813,-2.60157 0.75273,-1.41877 -0.89728,-7.57337 -2.47657,-9.23828 -1.40751,-1.4838 -4.88781,-0.2238 -30.48437,11.0293 -1.74186,0.76577 -4.55274,6.0497 -4.55274,8.55859 0,1.38218 5.2032,3.95854 7.69336,3.8086 1.56992,-0.0945 2.11201,0.38028 2.50391,2.19922 0.27541,1.27646 0.39809,2.43319 0.27344,2.57031 -0.8698,0.95678 -10.03559,4.7181 -10.56641,4.33594 -0.36478,-0.26262 -0.67069,-3.1395 -0.67969,-6.39258 -0.0108,-3.82265 -0.51251,-7.18286 -1.41601,-9.5 -1.82015,-4.66804 -7.13628,-9.95071 -10.64258,-10.57422 -1.49722,-0.26625 -4.08835,-1.33729 -5.757811,-2.38086 -1.669477,-1.04358 -5.25586,-2.80039 -7.96875,-3.9043 l -4.93164,-2.00781 -0.410157,-4.24219 c -0.475766,-4.94163 -1.809058,-7.70633 -4.378906,-9.07031 -0.985291,-0.52296 -1.834785,-0.75529 -2.552734,-0.68945 z m 0.740234,1.53711 c 2.507585,0 5.806058,6.05408 5.335938,9.79297 -0.283669,2.25604 -0.639899,2.40617 -4.556641,1.93554 -2.588652,-0.31104 -2.823112,-0.58304 -3.296875,-3.84961 -0.490666,-3.3831 0.946392,-7.8789 2.517578,-7.8789 z m 125.361327,7.07226 c 0.41737,0 0.75781,0.39858 0.75781,0.88477 0,0.48619 -0.34044,0.88281 -0.75781,0.88281 -0.41737,0 -0.75976,-0.39662 -0.75976,-0.88281 0,-0.48619 0.34239,-0.88477 0.75976,-0.88477 z m -162.482421,0.77344 c 3.541492,0.13986 7.902214,2.1511 12.337891,5.86328 2.321237,1.94266 3.685547,2.63727 3.685547,1.87891 0,-1.58389 4.886582,-2.3319 15.09375,-2.3125 15.33115,0.0292 25.671113,4.47415 32.005863,13.75976 2.7052,3.96537 2.77132,4.78906 0.38671,4.78906 -2.55208,0 -6.50781,4.06948 -6.50781,6.69532 0,1.31976 -1.07371,3.26651 -2.845701,5.1582 -2.623916,2.80113 -2.845703,3.41499 -2.845703,7.875 0,3.57776 0.39031,5.3392 1.5,6.76758 1.482327,1.90803 2.308784,1.95984 6.869144,0.43359 1.2473,-0.41744 1.72904,0.10018 2.54492,2.72852 1.38449,4.46004 0.35609,5.45234 -8.394532,8.08789 -7.21844,2.17408 -19.365162,7.40297 -22.439454,9.66016 -1.481228,1.08753 -1.707031,2.00283 -1.707031,6.91992 0,6.35051 0.709885,9.13454 3.560547,13.96093 2.024021,3.42683 3.748841,4.12056 5.488281,2.20899 0.804387,-0.88398 1.075269,-0.88398 1.353516,0 0.770784,2.44877 1.569218,0.82664 2.054687,-4.17188 0.281877,-2.90231 0.799603,-5.48378 1.150391,-5.73632 1.01132,-0.7281 2.533,1.97466 3.115234,5.53515 l 0.533203,3.26953 0.56836,-2.84765 c 0.443705,-2.22293 1.919318,-3.99143 6.738281,-8.07813 3.393627,-2.87796 7.195167,-6.36154 8.447267,-7.74219 3.16353,-3.48826 6.9999,-6.47573 7.52734,-5.86132 0.24262,0.28262 0.44141,2.00491 0.44141,3.82812 0,1.82321 0.38485,3.46494 0.85742,3.64844 1.15773,0.44953 -0.96717,12.72605 -4.02344,23.24023 -4.00548,13.77969 -9.33667,24.79753 -15.398434,31.82227 -5.996335,6.94894 -11.077988,10.23329 -19.91211,12.86523 -8.377495,2.49591 -14.458032,2.15308 -26.785156,-1.50586 l -1.898438,-0.5625 1.898438,-0.74609 c 1.619204,-0.63595 1.53258,-0.68485 -0.583984,-0.33398 -6.030056,0.99961 -18.73323,-10.13106 -20.761719,-18.19141 -1.662387,-6.60564 -1.233915,-17.74764 1.136719,-29.53516 2.009851,-9.99364 2.130205,-11.72327 2.072265,-29.87109 -0.07141,-22.36852 0.620149,-29.49418 3.609375,-37.17383 2.720282,-6.98871 7.185778,-12.46806 9.494141,-11.64844 5.349468,1.89936 5.325846,-0.19163 -0.04102,-3.55078 -2.359466,-1.47679 -5.001046,-3.79721 -5.86914,-5.15625 l -1.578125,-2.4707 1.791015,-1.69531 c 1.374666,-1.30048 3.205183,-1.88861 5.330078,-1.80469 z m 165.095701,1.87891 c 0.23211,0 0.42188,0.52524 0.42188,1.16796 0,0.66274 -5.33865,3.89266 -12.33203,7.46094 -20.98391,10.70676 -24.69917,12.46896 -25.16211,11.92969 -0.98843,-1.15141 -0.23612,-1.83456 4.67382,-4.23633 2.81724,-1.37809 7.51202,-3.76913 10.4336,-5.31445 8.37649,-4.43055 21.50101,-11.00781 21.96484,-11.00781 z m -163.359372,3.53515 c -2.671685,0 -2.52639,1.54651 0.201171,2.14258 1.427355,0.31193 3.388566,1.33664 4.357422,2.27734 2.084754,2.02411 2.898438,2.19396 2.898438,0.60547 0,-1.43454 -5.327965,-5.02539 -7.457031,-5.02539 z m 106.847652,1.76758 c 0.98783,0 3.05469,4.75675 3.05469,7.0293 0,2.80469 -2.0302,2.13756 -2.96094,-0.97266 -1.03116,-3.44581 -1.0716,-6.05664 -0.0937,-6.05664 z m -2.25586,0.91602 v 2.12304 c 0,1.16697 0.19073,2.70065 0.42383,3.40821 0.31632,0.96023 -1.1087,1.87787 -5.61523,3.61914 -3.3208,1.2831 -9.16494,3.68791 -12.98828,5.34375 l -6.95313,3.00976 -0.8125,-2.08203 c -1.28319,-3.28068 -0.39497,-4.36502 5.56836,-6.80078 3.06826,-1.25324 8.90722,-3.70531 12.97656,-5.44922 z m -43.4121,6.45898 c 1.23762,0.28205 4.37523,2.32676 5.75781,4.00781 1.94817,2.36876 1.96958,2.50636 0.625,3.92383 -1.31993,1.39149 -1.53168,1.24839 -4,-2.71875 -1.43334,-2.30369 -2.71607,-4.47808 -2.85157,-4.83008 -0.14493,-0.37649 0.0562,-0.47683 0.46876,-0.38281 z m -31.449224,0.54687 c -4.25184,-0.0486 -8.360384,1.76358 -11.867187,5.35938 -4.536621,4.65176 -6.611328,9.73409 -6.611328,16.19922 0,8.84055 3.539102,15.74429 9.992187,19.49023 3.019945,1.75304 5.114534,2.30078 8.78711,2.30078 7.362136,0 13.242275,-4.18944 16.470703,-11.73632 4.750051,-11.10386 0.729645,-24.1871 -9.064453,-29.5 -2.553547,-1.38521 -5.155928,-2.08413 -7.707032,-2.11329 z m -1.36914,1.83985 c 2.917849,-0.27908 6.05072,0.36329 9.216796,2.20117 5.960952,3.46026 9.339844,10.08845 9.339844,18.31445 0,7.75656 -4.161212,15.03616 -10.24414,17.92188 -7.11953,3.37746 -15.099717,1.36527 -19.667969,-4.95899 -9.922757,-13.73699 -1.288544,-32.26917 11.355469,-33.47851 z m 90.933594,2.59375 c 0.42711,0.49752 1.73371,0.9043 2.90234,0.9043 1.81441,0 2.12305,0.35793 2.12305,2.44336 0,2.21694 -0.6047,2.75383 -6.55859,5.83203 -3.60729,1.86497 -8.75937,4.35575 -11.44922,5.53515 -6.90135,3.026 -10.82813,5.48923 -10.82813,6.79102 0,0.61453 -1.4508,1.7667 -3.22461,2.56054 -1.77382,0.79385 -8.00644,3.69556 -13.84961,6.44727 -8.76087,4.12575 -11.19006,5.67946 -13.84961,8.86133 -3.88651,4.64979 -4.26849,3.53279 -0.58398,-1.70508 2.83218,-4.02623 4.94922,-9.12005 4.94922,-11.91211 0,-1.41406 2.35249,-2.78803 13.08984,-7.63867 7.19961,-3.25245 13.60246,-6.58083 14.22852,-7.39844 1.79121,-2.33926 22.12661,-11.79727 23.05078,-10.7207 z m -49.74414,2.5 0.86523,1.88476 c 1.15558,2.51525 0.73251,9.62518 -0.54297,9.12305 -0.5217,-0.2054 -0.94726,-1.16313 -0.94726,-2.12695 0,-0.96384 -0.35704,-2.52769 -0.79297,-3.47656 -0.58869,-1.28131 -0.50868,-2.19873 0.3125,-3.56446 z m 30.93164,0.17383 c 1.922,0 1.20775,3.30449 -0.84375,3.90429 -1.05404,0.30815 -2.59943,1.35446 -3.43359,2.32618 -0.83418,0.97172 -3.22472,2.55113 -5.3125,3.50976 l -3.79493,1.74414 -0.76757,-2.35156 c -0.42189,-1.29259 -0.49847,-2.6291 -0.16993,-2.9707 0.88281,-0.91789 13.07201,-6.16211 14.32227,-6.16211 z m 16.00586,0.15429 c -0.57314,-0.28095 -2.39294,0.48706 -7.7832,2.9961 -9.0245,4.20068 -8.66797,3.99844 -8.66797,4.92187 0,0.44664 0.94013,0.25982 2.08789,-0.41601 1.14776,-0.67584 4.90437,-2.33425 8.34765,-3.6836 3.44329,-1.34934 6.25977,-2.79465 6.25977,-3.21289 0,-0.30112 -0.0531,-0.51181 -0.24414,-0.60547 z m -40.43945,1.10157 c 0.27211,0.0814 0.46484,0.59294 0.46484,1.34375 0,1.00107 -0.3424,1.82031 -0.75977,1.82031 -0.41737,0 -0.75781,-0.5748 -0.75781,-1.27539 0,-0.70059 0.34044,-1.51982 0.75781,-1.82031 0.10435,-0.0751 0.20422,-0.0955 0.29493,-0.0684 z m -12.67774,2.39843 c 3.03733,0.5635 4.57845,4.74896 1.32031,7.73438 -2.34666,2.15026 -4.01635,2.35212 -5.93164,0.7207 -2.00703,-1.70956 -1.3361,-5.98389 1.19727,-7.63281 1.22259,-0.79576 2.40162,-1.0101 3.41406,-0.82227 z m -26.123046,3.58399 c -1.642562,0.36851 -2.213595,3.33794 -0.83789,4.35351 1.361772,1.0053 1.69445,0.97274 2.767578,-0.27734 1.305393,-1.52064 1.122485,-2.75864 -0.3125,-2.11719 -0.89283,0.3991 -1.098512,0.16888 -0.761719,-0.85351 0.327819,-0.99513 0.08025,-1.31538 -0.855469,-1.10547 z m 31.128906,4.42187 c 0.425,0.15384 0.89872,0.79413 1.75781,2.04492 2.38056,3.46599 2.29771,4.4931 -0.45117,5.60938 -1.25211,0.50846 -2.27734,1.34204 -2.27734,1.85352 0,0.51149 -0.63173,0.93164 -1.4043,0.93164 -0.77257,0 -3.07643,1.03832 -5.12109,2.30859 -2.04467,1.27027 -4.41868,2.623 -5.27539,3.00586 -5.16063,2.30634 -6.417338,-8.49677 -1.537113,-13.21484 0.969913,-0.93768 1.717823,-0.88873 4.207033,0.27148 3.28488,1.53108 5.90899,0.94397 8.63672,-1.93164 0.66365,-0.69963 1.03984,-1.03274 1.46484,-0.87891 z m -5.83984,13.10742 c 0.95047,-0.50694 1.83398,0.66767 1.83398,2.96876 0,2.84617 -1.72896,5.84033 -2.51172,4.3496 -0.69542,-1.32441 -0.85746,-5.12301 -0.26562,-6.23046 0.30099,-0.56322 0.62653,-0.91891 0.94336,-1.0879 z m 22.30664,8.0293 c 0.51789,-0.19591 0.82002,0.4879 0.45312,2.22461 -0.29586,1.4004 -1.02722,3.42709 -1.625,4.50391 -0.59778,1.07681 -1.8212,2.417 -2.71875,2.97656 l -1.63281,1.01758 1.52344,-2.5332 c 0.83805,-1.3933 1.84942,-3.7027 2.24804,-5.13086 0.49865,-1.78656 1.23406,-2.86269 1.75196,-3.0586 z m -4.83399,2.74219 c 0.18006,0.13321 0.29883,0.44056 0.29883,0.96289 0,0.71027 -0.54675,1.8189 -1.21289,2.46289 -1.05744,1.0223 -1.17653,0.90433 -0.94727,-0.92773 0.21524,-1.71997 1.32117,-2.89768 1.86133,-2.49805 z m -3.30664,1.61523 c 1.08146,-0.0534 0.56467,2.3545 -0.81836,3.8125 -1.75192,1.84695 -2.40625,1.85077 -2.40625,0.0137 0,-1.37922 2.01156,-3.76618 3.22461,-3.82618 z m -19.13086,2.62305 c 2.75317,0 0.87886,1.55038 -3.253903,2.69141 -4.617808,1.27493 -15.722756,6.0811 -20.197266,8.74023 -3.547667,2.10831 -3.648944,2.12906 -4.283203,0.93359 -0.26367,-0.49696 1.718606,-2.0404 4.458984,-3.47265 5.958585,-3.11427 21.082188,-8.89258 23.275388,-8.89258 z m 15.90625,5.30469 c 0.41737,0 0.75782,1.16973 0.75782,2.59961 0,1.42987 -0.34045,2.84601 -0.75782,3.14648 -0.45161,0.32513 -0.75976,-0.72732 -0.75976,-2.59961 0,-1.73035 0.34238,-3.14648 0.75976,-3.14648 z m -93.449216,58.90234 c 0.869507,0.0662 1.381064,0.6808 2.058594,2.20703 l 1.125,2.53711 h -2.582031 c -2.595697,0 -4.790148,-1.86819 -3.982422,-3.39062 0.238448,-0.44942 1.305976,-1.01239 2.373047,-1.25 0.389142,-0.0867 0.717977,-0.12557 1.007812,-0.10352 z m 66.105469,13.2832 c 0.956362,0.14093 1.748942,0.97983 2.634766,2.55469 1.415237,2.51607 1.519578,4.95852 0.273437,6.41016 -1.014085,1.18128 -1.640943,1.21423 -4.40625,0.23437 -4.814615,-1.70603 -8.812544,-5.36328 -5.863281,-5.36328 0.529168,0 2.214895,-0.99108 3.746094,-2.20312 1.538302,-1.21768 2.658872,-1.77374 3.615234,-1.63282 z m -45.033203,5.84766 c 0.336733,0.0187 0.769921,0.11786 1.337891,0.25977 4.260723,1.06454 5.017578,1.93624 5.017578,5.77343 0,1.9596 -0.348456,4.32464 -0.775391,5.25391 -1.10871,2.41325 -3.177623,3.5158 -4.714844,2.51367 -1.728052,-1.12652 -2.927277,-6.58702 -2.357422,-10.73828 0.335755,-2.44593 0.48199,-3.11862 1.492188,-3.0625 z" />
        <g
           id="g372">
          <path
             id="path1185"
             style="fill:#00afff;fill-opacity:1;stroke-width:2.20777"
             d="m 41.281868,235.2682 c -1.889473,0.24461 -3.169685,1.85602 -4.64191,2.90942 -0.34363,0.37899 0.527884,0.94532 0.68232,1.38988 0.320236,0.44399 0.879838,1.20476 1.38259,1.72784 2.851428,2.82513 6.109428,5.18631 9.167201,7.77418 0.618433,0.50618 1.236865,1.01238 1.855298,1.51858 -2.306043,-0.18706 -4.609331,-0.46223 -6.917066,-0.59543 -1.543714,0.17719 -2.446705,1.62663 -3.444884,2.65224 -3.35869,4.0412 -5.23994,9.08794 -6.585131,14.11913 -0.429372,1.67018 -0.763909,3.40641 -1.00676,5.02146 -0.207382,1.45206 -0.353531,2.91453 -0.431243,4.2948 -0.585305,11.90073 -0.105421,23.96656 -0.745424,35.93588 -0.292018,5.53159 -0.883451,11.04935 -1.916287,16.49255 -0.779327,4.19484 -1.375626,8.42476 -1.636812,12.68645 -0.298048,4.5868 -0.477094,9.21998 0.110776,13.79052 0.514929,3.52149 1.952984,6.91292 4.281043,9.60887 2.652125,3.17649 5.712925,6.03713 9.143239,8.34503 2.150459,1.44977 4.595637,2.47682 7.179151,2.77847 0.51149,0.0756 0.431023,0.86691 0.685209,1.24962 1.286266,0.7498 2.830535,0.89933 4.237319,1.346 4.262812,1.07004 8.602861,2.19255 13.034604,1.95288 6.251381,-0.24052 12.402149,-2.05524 17.951799,-4.9242 4.600406,-2.40138 8.601908,-5.86689 11.820299,-9.94252 5.952921,-7.38975 9.956591,-16.15682 13.045691,-25.09161 1.89982,-5.55382 3.41709,-11.27644 4.63951,-17.0708 0.66625,-3.35661 1.4512,-6.73114 1.48379,-10.16926 0.0675,-1.43397 -0.69669,-2.70203 -0.80715,-4.11425 -0.26949,-1.52796 0.0712,-3.20368 -0.66022,-4.6194 -0.60688,-0.45105 -1.3168,0.2856 -1.83014,0.5977 -3.45927,2.84398 -6.62452,5.99352 -9.8684,9.05224 -2.668504,2.59382 -5.488599,5.03064 -8.098578,7.68483 -1.243923,1.36442 -2.280599,2.90077 -3.421324,4.3505 -0.73463,-1.83234 -1.204498,-3.78898 -2.16338,-5.52003 -0.203328,-0.35081 -0.764446,-0.94491 -1.099566,-0.39589 -0.519396,1.28738 -0.659106,2.72167 -0.915689,4.08767 -0.287263,1.92539 -0.624894,3.84238 -0.960029,5.76002 -0.783221,-0.27575 -1.561101,-0.61615 -2.347032,-0.85857 -0.669701,0.26428 -0.894414,1.12776 -1.657604,1.26064 -1.044432,0.40223 -2.11353,-0.19997 -2.807139,-0.97673 -2.075108,-2.2815 -3.414728,-5.14158 -4.481351,-8.01378 -0.864243,-3.05818 -0.500889,-6.27286 -0.612306,-9.4086 -0.0042,-1.48359 -0.01002,-2.96717 -0.01292,-4.45077 2.267432,-2.21871 5.112767,-3.67364 7.977355,-4.9459 6.391885,-2.99897 13.107396,-5.19211 19.699953,-7.68208 1.46747,-0.61387 3.06489,-1.07844 4.32438,-2.07536 1.12696,-1.40549 0.59706,-3.33919 0.0163,-4.85954 -0.29309,-0.66691 -0.51651,-1.51894 -1.1555,-1.92647 -0.94293,-0.16686 -1.82763,0.38562 -2.76874,0.4072 -1.4488,0.23092 -3.065808,0.3679 -4.39339,-0.34351 -1.717438,-1.24935 -1.94331,-3.54303 -2.14086,-5.49701 -0.219134,-2.46478 -0.539865,-5.16903 0.786885,-7.39344 1.13464,-1.99451 2.78969,-3.64022 3.808679,-5.71039 0.719888,-1.25364 1.052946,-2.68218 1.660116,-3.9771 1.13321,-2.12087 2.9024,-4.0495 5.19623,-4.85542 0.63416,-0.0554 1.46099,0.0753 1.92308,-0.44855 0.26523,-0.99464 -0.55733,-1.87528 -0.97913,-2.7076 -3.17468,-5.37251 -8.216797,-9.52427 -13.980614,-11.8056 -3.376467,-1.46476 -7.009641,-2.245 -10.670299,-2.49913 -6.229458,-0.57592 -12.519463,-0.68597 -18.751381,-0.0938 -1.374025,0.14683 -2.827995,0.32406 -3.971258,1.15316 -1.142912,0.58732 -2.390869,-0.0906 -3.301426,-0.81328 -3.308077,-2.25967 -6.472905,-5.10649 -10.542457,-5.81924 -1.437656,-0.27843 -2.907657,-0.3605 -4.369459,-0.34252 z m 33.690404,14.63803 c 3.5646,0.0234 7.098483,1.21443 9.937562,3.38942 5.388561,3.90475 8.381507,10.53663 8.684444,17.11873 0.390688,7.12354 -2.304721,14.58878 -7.860781,19.17821 -2.34842,2.04923 -5.314402,3.41052 -8.435184,3.60543 -3.371404,0.33042 -7.013116,0.41054 -10.029074,-1.38783 -4.843593,-2.5257 -8.58812,-7.08478 -10.096853,-12.36638 -2.299198,-7.10825 -1.327603,-15.36607 3.140124,-21.42752 2.336723,-3.22846 5.433218,-6.11157 9.253221,-7.39706 1.740314,-0.57432 3.583418,-0.74106 5.406541,-0.713 z" />
          <path
             style="fill:#00afff;fill-opacity:1;stroke-width:2.20777"
             d="m 79.368624,237.7016 c -0.848881,-0.62482 -1.049509,-1.43569 -1.049509,-4.24178 0,-4.31088 1.278207,-6.78386 3.021067,-5.84496 2.255986,1.21534 4.685347,6.97432 4.037717,9.57171 -0.275156,1.10355 -0.652421,1.28751 -2.640395,1.28751 -1.275655,0 -2.79165,-0.34761 -3.36888,-0.77248 z"
             id="path1890" />
          <path
             style="fill:#00afff;fill-opacity:1;stroke-width:2.20777"
             d="m 108.48865,253.86067 c -1.24223,-2.01395 -2.14866,-3.77239 -2.01428,-3.90765 0.39732,-0.39994 4.63237,2.81945 5.80768,4.41486 0.89848,1.21962 0.96528,1.61557 0.39025,2.31301 -1.17481,1.42491 -1.84303,0.97445 -4.18365,-2.82022 z"
             id="path1929" />
          <path
             style="fill:#00afff;fill-opacity:1;stroke-width:2.20777"
             d="m 114.72263,267.00352 c -0.14834,-0.27567 -0.59228,-1.90972 -0.98655,-3.63121 -0.57558,-2.51326 -0.58446,-3.42244 -0.045,-4.61416 0.60573,-1.33822 0.72468,-1.38904 1.20966,-0.5167 0.7943,1.4287 1.16638,6.42901 0.59124,7.94572 -0.27479,0.72467 -0.62098,1.09202 -0.76932,0.81635 z"
             id="path1968" />
          <path
             style="fill:#ffffff;fill-opacity:1;stroke-width:2.20777"
             d="m 68.997544,290.36208 c -3.236454,-1.15333 -6.923522,-4.98621 -8.960791,-9.31518 -1.58069,-3.35878 -1.722382,-4.1099 -1.722382,-9.13046 0,-5.23181 0.08916,-5.65218 2.042609,-9.63081 3.165484,-6.4472 7.554014,-9.6802 13.708206,-10.09876 2.756527,-0.18748 3.872815,0.0263 6.621828,1.26813 11.469451,5.18115 14.507046,21.57165 6.001242,32.38199 -0.959161,1.21903 -3.037225,2.79523 -4.961027,3.76291 -2.736476,1.37646 -3.928319,1.65774 -6.873649,1.62223 -1.959738,-0.0236 -4.594953,-0.41066 -5.856036,-0.86005 z M 84.088733,268.5949 c 1.19338,-1.08713 1.304695,-2.90896 0.177739,-2.90896 -0.446051,0 -0.811002,-0.38439 -0.811002,-0.8542 0,-1.4712 -2.34735,-0.69005 -2.926246,0.97378 -0.407536,1.17132 -0.307709,1.71073 0.478419,2.58513 1.204935,1.34022 1.791401,1.37911 3.08109,0.20425 z"
             id="path2007" />
          <path
             style="fill:#ffffff;fill-opacity:1;stroke-width:2.20777"
             d="m 152.40501,248.11159 c -0.49862,-1.31426 -0.82605,-3.2244 -0.7276,-4.24476 l 0.17899,-1.85521 1.20656,2.27794 c 1.35802,2.56391 1.80664,5.65402 0.86955,5.98938 -0.34149,0.12221 -1.02888,-0.8531 -1.5275,-2.16735 z"
             id="path2083" />
          <path
             style="fill:#ffab9a;fill-opacity:1;stroke-width:2.20777"
             d="m 47.136048,393.56094 c -1.344869,-0.78987 -2.265686,-4.13369 -2.278942,-8.27566 -0.01459,-4.55649 0.482116,-5.18189 3.413387,-4.29786 3.170786,0.95626 3.826187,1.8647 3.826187,5.30342 0,3.45634 -1.068748,6.41027 -2.622027,7.24704 -1.291782,0.6959 -1.194617,0.69495 -2.338605,0.023 z"
             id="path2122" />
          <path
             style="fill:#ffab9a;fill-opacity:1;stroke-width:2.20777"
             d="m 88.146831,382.46533 c -1.434217,-0.70733 -3.186276,-1.83321 -3.893465,-2.50197 l -1.285799,-1.21592 2.271459,-1.24632 c 6.4385,-3.53273 5.617331,-3.31679 7.139392,-1.87745 1.958597,1.85215 2.7477,5.14523 1.64051,6.84617 -1.072851,1.64818 -2.52326,1.64707 -5.872097,-0.005 z"
             id="path4603" />
          <path
             style="fill:#ffab9a;fill-opacity:1;stroke-width:2.20777"
             d="m 22.63941,364.20308 c -0.793334,-0.8824 -0.845634,-1.2284 -0.287929,-1.90482 0.374819,-0.45462 1.336539,-0.82657 2.137155,-0.82657 1.131288,0 1.656754,0.42447 2.358061,1.90484 l 0.902394,1.90482 H 25.67896 c -1.376953,0 -2.394739,-0.36105 -3.03955,-1.07827 z"
             id="path4642" />
          <path
             style="fill:#ffab9a;fill-opacity:1;stroke-width:2.20777"
             d="m 97.273181,282.98043 c -1.72996,-2.48616 -0.745401,-8.68359 1.784014,-11.2297 1.097175,-1.10442 1.101935,-1.10446 4.111625,-0.0396 3.54253,1.25332 5.16351,1.01096 7.96422,-1.19076 1.09769,-0.86292 2.09939,-1.56895 2.22599,-1.56895 0.47193,0 3.07723,4.36169 3.07723,5.15176 0,0.45166 -0.97319,1.43961 -2.16267,2.19545 -1.18947,0.75583 -2.16268,1.61608 -2.16268,1.91166 0,0.29557 -0.4039,0.5374 -0.89755,0.5374 -0.49367,0 -3.15418,1.22454 -5.91226,2.72119 -5.598805,3.03815 -6.807355,3.26572 -8.027919,1.51161 z"
             id="path4681" />
          <path
             style="fill:#ffab9a;fill-opacity:1;stroke-width:0.780565"
             d="m 106.96743,288.97111 c -0.15418,-0.23812 -0.37056,-0.99576 -0.48085,-1.68365 -0.40026,-2.49659 -0.18109,-4.01395 0.72765,-5.03773 1.72603,-1.9445 2.81131,2.72365 1.32534,5.70073 -0.42937,0.86023 -0.89255,1.45359 -1.13468,1.45359 -0.0864,0 -0.28327,-0.19482 -0.43746,-0.43294 z"
             id="path4720" />
          <path
             style="fill:#696969;fill-opacity:1;stroke-width:2.20777"
             d="m 104.34413,268.91187 c -2.83727,-2.24654 -1.15284,-7.16391 2.70928,-7.90922 1.29738,-0.25036 1.97072,-0.0566 2.83851,0.81694 1.75047,1.76202 1.48571,4.16909 -0.70062,6.36984 -2.13639,2.15049 -2.89988,2.26429 -4.84717,0.72244 z"
             id="path4759" />
          <path
             style="fill:#696969;fill-opacity:1;stroke-width:2.20777"
             d="m 107.2449,295.3332 c 0,-0.18395 0.6966,-1.3582 1.54801,-2.60946 2.39343,-3.51746 3.9733,-6.86715 4.92327,-10.43857 l 0.86858,-3.26542 13.02984,-6.53085 c 7.16642,-3.59196 13.6699,-7.05936 14.45217,-7.70531 1.90074,-1.56954 9.7329,-5.60349 15.68208,-8.07705 4.43641,-1.84458 5.05597,-1.96687 7.83322,-1.546 3.22219,0.48829 3.72763,1.11317 3.06148,3.78485 -0.27758,1.11327 -2.54122,2.42881 -13.53142,7.86397 -10.84643,5.36406 -13.48593,6.8929 -14.81358,8.58024 -1.26939,1.61333 -3.10079,2.73335 -8.5487,5.22814 -13.67908,6.26411 -18.65811,9.05367 -21.66644,12.13887 -1.56118,1.60109 -2.83851,2.76054 -2.83851,2.57659 z m 46.21537,-33.18659 c 4.45401,-1.94467 8.16436,-3.53576 8.24519,-3.53576 0.0808,0 0.14698,-0.36736 0.14698,-0.81635 0,-1.3645 -1.61348,-0.94613 -8.30514,2.15346 -7.36165,3.40993 -9.15987,4.48699 -8.71125,5.21765 0.40595,0.66118 -0.65726,1.03336 8.62422,-3.019 z"
             id="path5834" />
          <path
             style="fill:#696969;fill-opacity:1;stroke-width:1.10389"
             d="m 123.90798,258.58664 c -1.09465,-2.87936 -0.64865,-4.00189 2.16044,-5.43766 1.41292,-0.72216 22.06672,-9.5484 23.01072,-9.83345 0.48775,-0.14728 0.50569,0.009 0.59323,5.15783 0.0134,0.78515 -0.13519,0.96591 -1.33665,1.62657 -0.74342,0.40879 -3.54138,1.62195 -6.21768,2.69591 -2.67632,1.07396 -7.69202,3.15843 -11.14601,4.63216 -3.45399,1.47373 -6.32631,2.67951 -6.38293,2.67951 -0.0566,0 -0.36312,-0.68439 -0.68112,-1.52087 z"
             id="path5873" />
          <path
             style="fill:#696969;fill-opacity:1;stroke-width:1.10389"
             d="m 120.2111,260.5731 c -0.17758,-0.71222 0.26754,-2.0983 0.67384,-2.0983 0.43748,0 0.64743,1.34262 0.32228,2.06096 -0.37586,0.83037 -0.79447,0.84606 -0.99612,0.0374 z"
             id="path5912" />
          <path
             style="fill:#696969;fill-opacity:1;stroke-width:1.10389"
             d="m 171.08857,256.72529 c -0.10642,-0.27912 0.0776,-0.65637 0.50054,-1.0266 0.72534,-0.63484 14.97978,-8.06468 28.37647,-14.79067 7.24848,-3.6392 8.40041,-4.14115 8.55506,-3.72787 0.26125,0.69806 -0.57372,1.43721 -3.87615,3.43132 -3.35371,2.02508 -21.02195,11.15597 -27.42956,14.17552 -4.88289,2.30103 -5.86914,2.61306 -6.12636,1.9383 z"
             id="path5951" />
          <path
             style="fill:#696969;fill-opacity:1;stroke-width:1.10389"
             d="m 125.26941,299.36062 c 0.0508,-0.11225 0.56476,-1.12249 1.14217,-2.24498 0.57742,-1.12249 1.33677,-2.889 1.68745,-3.92556 0.74528,-2.20301 1.30432,-3.14953 1.86019,-3.14953 0.57954,0 0.50066,1.00942 -0.27106,3.46848 -0.75624,2.40971 -1.95215,4.39774 -3.24053,5.38692 -0.86382,0.66321 -1.35584,0.85726 -1.17822,0.46467 z"
             id="path5990" />
        </g>
      </g>
      <g
         id="g377"
         transform="matrix(0.59798002,0,0,0.72140534,206.97903,-7.4969138)">
        <path
           id="path6029"
           style="fill:#ff0000;fill-opacity:1;stroke-width:2.20777"
           d="m 288.14192,155.43799 c -3.29845,0.1052 -6.67915,0.06 -9.86198,1.04976 -1.39642,0.3773 -2.41963,1.45954 -3.17725,2.64701 -4.89262,7.12896 -9.45232,14.48349 -14.08256,21.78632 -7.9623,12.7195 -15.90756,25.45152 -23.54109,38.37467 -1.09437,1.96378 -2.37004,3.85016 -3.21009,5.94229 -0.42447,2.30966 -0.14211,4.68517 -0.0559,7.01663 0.35952,4.70916 0.76509,9.43985 1.77738,14.05951 0.20765,0.92871 0.58611,1.91075 1.28538,2.53729 1.88487,0.49444 3.86255,0.32298 5.79147,0.44833 13.72979,0.33332 27.46473,0.31037 41.19724,0.43357 0.0323,5.50602 0.0363,11.04712 0.89458,16.49821 0.17896,1.19319 0.65579,2.57341 1.94554,2.919 3.59481,1.13566 7.42329,0.96094 11.14541,0.97278 2.54538,-0.0759 5.12181,-0.0306 7.63006,-0.52368 0.65169,-0.2168 1.37015,-0.55872 1.5189,-1.30034 0.48257,-1.76514 0.40916,-3.63742 0.56371,-5.45382 0.21214,-4.31018 0.28681,-8.62393 0.42089,-12.93736 3.27387,-0.10317 6.54579,-0.21052 9.82129,-0.31308 0.42281,-5.70806 0.96988,-11.42726 0.67812,-17.15725 -0.1622,-2.44322 -0.17939,-4.97145 -1.04258,-7.29006 -0.6817,-1.64588 -2.62381,-1.9674 -4.16742,-2.26265 -1.81442,-0.30198 -3.65364,-0.38913 -5.48404,-0.54165 -0.10918,-17.69809 -0.0966,-35.39737 -0.334,-53.09437 -0.11062,-3.57124 -0.0355,-7.16457 -0.49605,-10.71294 -0.12192,-1.13836 -0.98643,-2.05812 -2.08943,-2.29722 -2.80031,-0.62545 -5.69656,-0.57331 -8.54884,-0.70529 -2.85873,-0.0815 -5.7189,-0.12226 -8.57877,-0.0957 z m -4.03002,34.80783 c 0.22844,10.70209 0.11208,21.40745 0.1412,32.1111 -6.9037,-0.0169 -13.80882,0.057 -20.71113,-0.11332 6.34101,-10.34834 12.80142,-20.62276 19.33693,-30.8476 0.40276,-0.60513 0.79889,-1.21478 1.21201,-1.81284 0.007,0.22089 0.014,0.44178 0.021,0.66266 z" />
        <path
           id="path7215"
           style="fill:#ff0000;fill-opacity:1;stroke-width:2.20777"
           d="m 367.1892,153.06202 c -4.8198,0.0714 -9.61156,1.14557 -13.99671,3.16273 -3.48144,1.52476 -6.8535,3.407 -9.63766,6.0386 -5.18887,4.75283 -10.08857,10.08576 -12.97493,16.60768 -2.18944,4.87781 -3.39853,10.14833 -4.11838,15.43333 -0.66034,7.06273 -0.6967,14.16737 -0.70138,21.25616 0.0604,5.59141 0.0826,11.20245 0.7211,16.7631 1.89919,14.46132 10.45285,28.06259 23.04799,35.41978 3.47578,1.97648 7.21176,3.60569 11.15506,4.32829 4.07166,0.55328 8.1983,0.30929 12.28668,0.11208 4.09263,-0.1865 7.98298,-1.63191 11.73468,-3.17976 4.59139,-1.89866 8.64855,-4.91334 12.10828,-8.46894 3.91635,-3.85991 7.13227,-8.4375 9.34348,-13.4912 2.00405,-4.47672 3.69848,-9.15289 4.26931,-14.05621 0.76716,-6.36557 0.77981,-12.79114 0.9152,-19.19344 0.0527,-8.6033 0.0237,-17.31563 -1.92523,-25.73998 -1.69018,-7.06018 -4.93084,-13.75355 -9.43303,-19.42941 -4.34577,-5.46755 -10.14461,-9.65118 -16.50063,-12.43867 -3.77958,-1.78907 -7.87667,-2.9524 -12.06646,-3.08118 -1.40769,-0.0738 -2.81837,-0.0723 -4.22737,-0.043 z m 1.58377,26.06074 c 4.63613,0.45305 9.12803,2.61973 12.21274,6.16452 2.9503,3.40449 5.09803,7.60158 5.7477,12.09854 0.9017,6.00479 0.72349,12.10402 0.63899,18.15721 -0.061,2.69021 -0.13392,5.30861 -0.24298,7.97018 -0.0596,0.99523 -0.10899,2.25742 -0.21056,3.35266 -0.17263,3.74062 -1.50815,7.35492 -3.58996,10.43881 -2.18675,3.23994 -4.94997,6.25734 -8.49291,7.992 -2.25761,0.99904 -4.79569,0.90514 -7.21166,0.93063 -2.35267,-0.0698 -4.86949,-0.13723 -6.88088,-1.53399 -2.33659,-1.49908 -4.25562,-3.56886 -5.90957,-5.78722 -0.18379,-0.24628 -0.61513,-0.86085 -0.87966,-1.25809 -1.83476,-2.84773 -3.42777,-6.00041 -3.80026,-9.41566 -0.46805,-7.7614 -0.2498,-15.54343 -0.19376,-23.31357 0.0338,-3.08548 0.0676,-6.17096 0.10139,-9.25645 1.61123,-3.40958 3.11633,-6.9496 5.63042,-9.80895 3.16023,-3.76249 7.75777,-6.50419 12.71343,-6.73564 0.12251,0.002 0.24501,0.003 0.36753,0.005 z" />
        <path
           id="path7254"
           style="fill:#ff0000;fill-opacity:1;stroke-width:2.20777"
           d="m 458.71008,154.42191 c -7.60549,0.15282 -15.43158,1.37167 -22.10249,5.25689 -6.80801,3.95964 -12.14897,10.40432 -14.77064,17.86987 -1.18252,3.36272 -2.19644,6.94092 -1.81139,10.54079 0.17531,1.90265 1.2833,3.97182 3.29014,4.3633 3.4336,0.70489 6.96836,0.68219 10.4586,0.6569 2.16843,-0.11516 4.41956,-0.0491 6.48391,-0.81632 1.81105,-0.99472 2.99942,-2.85565 3.79112,-4.72228 0.26583,-0.59891 0.20628,-1.33412 0.79999,-1.74488 1.5316,-1.53537 3.11144,-3.1082 5.03262,-4.13993 3.13371,-1.29025 6.58634,-1.5091 9.9364,-1.53356 3.26482,0.0752 6.67385,0.27666 9.64973,1.76208 3.32559,1.64906 5.86445,5.24802 5.50808,9.0772 -0.19865,2.8166 -2.23395,5.22087 -4.77324,6.27804 -3.3959,1.54615 -7.20174,1.59962 -10.84938,1.95577 -4.58889,0.35852 -9.2121,0.49949 -13.75248,1.30374 -1.6729,0.27533 -2.40606,2.04599 -2.7085,3.5327 -0.84205,4.09318 -0.78722,8.33003 -0.37062,12.47246 0.17554,1.80596 0.31725,3.94706 1.93085,5.09497 1.82803,1.2864 4.17448,1.25766 6.30667,1.49673 5.78704,0.46922 11.63057,0.47721 17.35946,1.50709 2.08367,0.37951 4.14673,1.22048 5.59136,2.83446 2.3186,2.22835 3.36894,5.73971 2.41521,8.85314 -1.15265,4.08354 -4.73945,6.97585 -8.55583,8.43948 -6.66607,2.62809 -14.53248,1.64351 -20.50482,-2.26268 -2.96131,-2.01499 -4.15427,-5.56657 -5.60431,-8.67867 -0.33154,-0.73692 -0.6637,-1.47356 -0.99622,-2.21003 -5.26165,0.0443 -10.52772,-0.10469 -15.78617,0.11524 -1.96609,0.14317 -4.30364,0.3778 -5.51839,2.16085 -1.15771,1.77455 -0.70925,4.00881 -0.53758,5.99185 0.91442,6.80724 3.78323,13.31973 8.02495,18.68642 2.86459,3.62978 6.89446,6.08339 10.93721,8.17428 4.10277,2.01849 8.4444,3.71546 12.99698,4.30963 5.42929,0.48254 10.89712,0.23345 16.32241,-0.18582 3.26496,-0.28062 6.54918,-0.69479 9.64502,-1.83036 7.9069,-2.61064 15.05258,-7.85106 19.42693,-15.03744 4.51257,-7.25991 6.00228,-16.17959 4.82436,-24.60283 -0.64927,-4.77414 -2.82591,-9.2306 -5.82716,-12.94903 -1.42655,-1.81635 -3.02126,-3.48809 -4.56257,-5.20426 2.86858,-3.15262 5.48331,-6.65221 6.90986,-10.72153 1.92244,-5.33545 1.95785,-11.17546 1.13727,-16.73234 -1.15694,-7.49496 -4.94587,-14.5422 -10.59568,-19.56889 -5.7849,-5.18075 -13.16307,-8.53291 -20.86147,-9.41333 -2.74853,-0.3417 -5.52285,-0.42621 -8.29019,-0.3797 z" />
      </g>
    </g>
  </g>
</svg>
