<?xml version="1.0" encoding="UTF-8" standalone="no"?>
<svg
   inkscape:version="1.2.2 (b0a8486541, 2022-12-01)"
   sodipodi:docname="nuclei.svg"
   viewBox="0 0 512 512"
   height="512"
   width="512"
   id="svg885"
   version="1.1"
   xmlns:inkscape="http://www.inkscape.org/namespaces/inkscape"
   xmlns:sodipodi="http://sodipodi.sourceforge.net/DTD/sodipodi-0.dtd"
   xmlns="http://www.w3.org/2000/svg"
   xmlns:svg="http://www.w3.org/2000/svg"
   xmlns:rdf="http://www.w3.org/1999/02/22-rdf-syntax-ns#"
   xmlns:cc="http://creativecommons.org/ns#"
   xmlns:dc="http://purl.org/dc/elements/1.1/">
  <metadata
     id="metadata891">
    <rdf:RDF>
      <cc:Work
         rdf:about="">
        <dc:format>image/svg+xml</dc:format>
        <dc:type
           rdf:resource="http://purl.org/dc/dcmitype/StillImage" />
      </cc:Work>
    </rdf:RDF>
  </metadata>
  <defs
     id="defs889" />
  <sodipodi:namedview
     inkscape:current-layer="g893"
     inkscape:window-maximized="1"
     inkscape:window-y="24"
     inkscape:window-x="0"
     inkscape:cy="210.32225"
     inkscape:cx="152.81841"
     inkscape:zoom="0.63474026"
     showgrid="false"
     id="namedview887"
     inkscape:window-height="691"
     inkscape:window-width="1366"
     inkscape:pageshadow="2"
     inkscape:pageopacity="0"
     guidetolerance="10"
     gridtolerance="10"
     objecttolerance="10"
     borderopacity="1"
     bordercolor="#666666"
     pagecolor="#949494"
     inkscape:pagecheckerboard="0"
     inkscape:showpageshadow="0"
     inkscape:deskcolor="#949494" />
  <g
     id="g893"
     inkscape:label="Image"
     inkscape:groupmode="layer">
    <g
       id="g565"
       transform="matrix(0.88477501,0,0,0.87673315,29.510034,31.563979)">
      <path
         id="path540"
         style="fill:#ffffff;fill-rule:evenodd;stroke-width:5.23396;stroke-linejoin:bevel;paint-order:markers stroke fill"
         d="m 310.66406,270.43945 c -0.85604,0.25021 -1.6001,0.72239 -2.13476,1.44532 -1.26403,1.64147 -2.24392,3.47302 -3.32951,5.23558 -1.90056,3.30403 -3.79312,6.63783 -6.25477,9.56686 -5.34213,6.67703 -11.50833,12.70363 -18.31531,17.87895 -3.66606,2.78924 -7.77649,5.0571 -12.25238,6.2305 -6.01606,1.67815 -12.42827,1.87458 -18.5316,0.85736 -4.3879,-0.72903 -8.62229,-2.28519 -13.06941,-2.64544 -1.66814,-0.21617 -3.50352,0.33865 -4.46343,1.79244 -1.29634,1.71422 -0.67737,4.03559 0.27606,5.75358 4.50958,8.8926 9.70554,17.4157 14.82801,25.96409 14.29956,23.5467 30.10913,46.23143 48.02603,67.17986 8.65668,10.04255 17.78823,19.75594 28.10271,28.12258 4.1014,3.24815 8.36977,6.38184 13.13789,8.58317 2.35958,0.97839 5.42187,0.69181 7.12152,-1.3715 2.06919,-2.37277 2.32319,-5.66118 2.75592,-8.64132 0.9139,-6.80655 1.30539,-13.68438 1.0471,-20.54957 -0.37307,-13.26329 -1.97925,-26.45909 -3.97518,-39.56572 -3.09418,-19.85372 -7.29549,-39.54994 -12.90834,-58.84846 -3.77119,-12.71706 -7.84889,-25.34488 -12.24912,-37.85843 -0.9108,-2.41603 -1.74273,-4.87905 -2.91205,-7.18414 -0.7246,-1.36908 -2.2665,-2.35094 -3.84522,-2.02795 -0.35138,0.0274 -0.70277,0.0548 -1.05416,0.0822 z" />
      <path
         id="path532"
         style="fill:#ffffff;fill-rule:evenodd;stroke-width:5.23396;stroke-linejoin:bevel;paint-order:markers stroke fill"
         d="m 113.7168,200.81836 c -4.23284,0.63407 -8.2692,2.14207 -12.33917,3.41431 -10.96526,3.65288 -21.859869,7.548 -32.513182,12.03681 -4.435548,1.88606 -8.434416,4.62809 -12.292504,7.48332 -2.937382,2.29629 -5.839557,4.76107 -7.965693,7.85486 -1.346774,1.92487 -1.893487,4.54782 -0.801444,6.71722 1.348137,2.99418 3.767529,5.31554 6.044002,7.61306 5.754476,5.58342 12.174114,10.45565 18.906007,14.79658 5.428228,3.38801 11.11711,6.32834 16.651877,9.53447 6.833753,3.8534 13.655007,7.72881 20.474167,11.60796 0.86081,0.0996 1.73019,0.28605 2.54033,-0.12862 0.8756,-0.32221 1.89061,-0.3942 2.51714,-1.16348 0.88296,-0.6371 1.06601,-1.80883 1.60574,-2.70811 5.18944,-10.84739 10.42471,-21.67776 15.58551,-32.53578 0.41512,-1.42276 0.30063,-2.9823 -0.3172,-4.33086 -3.62901,-10.68099 -6.92509,-21.4846 -11.06867,-31.98303 -0.91942,-2.17113 -1.79117,-4.39948 -3.09117,-6.37482 -0.92458,-1.1919 -2.414,-1.94465 -3.93574,-1.83389 z" />
      <path
         id="path542"
         style="fill:#ffffff;fill-rule:evenodd;stroke-width:5.23396;stroke-linejoin:bevel;paint-order:markers stroke fill"
         d="m 163.74023,326.91211 c -2.96069,7.82287 -5.97418,15.63147 -8.48692,23.61346 -4.84108,15.15018 -8.98711,30.52463 -12.40796,46.05734 -1.55636,7.34757 -3.09753,14.72922 -3.72949,22.22431 -0.17047,2.76592 -0.23673,5.61035 0.49156,8.30606 0.33135,1.27525 1.70471,2.0837 2.97656,1.75195 2.66181,-0.70405 5.06119,-2.12798 7.49166,-3.38226 9.50621,-5.21038 18.65947,-11.03908 27.69522,-17.02069 7.34398,-4.88269 14.63614,-9.85315 22.16664,-14.44666 0.93849,-0.38807 1.84341,-1.1743 1.881,-2.25812 -0.0179,-1.85357 -0.98828,-3.5284 -1.67877,-5.20227 -3.9368,-8.39335 -8.99937,-16.18293 -13.50483,-24.26981 -5.35367,-9.37336 -10.52776,-18.84858 -15.49234,-28.43385 -1.25325,-2.38737 -2.5065,-4.77475 -3.75975,-7.16212 -1.21419,0.0742 -2.42838,0.14844 -3.64258,0.22266 z" />
      <path
         id="path926"
         style="fill:#ffffff;stroke-width:5.19692"
         d="m 168.98438,-5.4121094 c -19.7636,0.3831017 -39.08267,10.0342814 -51.3756,25.4938964 -8.98153,10.682007 -14.89265,23.942059 -16.6485,37.799872 -1.881832,12.312621 -1.848114,24.80112 -2.058546,37.224122 -0.114602,13.199459 -0.0408,26.399549 -0.06189,39.599299 -12.148393,2.6504 -24.153288,6.06881 -35.689895,10.73525 -17.257832,6.71018 -33.842817,15.27209 -48.997292,25.93712 -10.2479752,7.34416 -19.6550397,16.18608 -26.245293,27.0232 -7.347705,11.88536 -11.503463,25.94788 -10.644475,39.97246 0.725449,13.11196 5.570576,25.76528 12.7640113,36.66814 7.6633862,11.77468 18.0347132,21.54517 29.2990387,29.83406 12.732736,9.52935 26.259266,17.97596 40.256092,25.51531 7.83272,4.16728 15.880674,7.97037 24.240235,10.9629 -6.259449,19.15877 -11.295875,38.82946 -13.284096,58.92671 -1.462161,15.14268 -1.062305,30.65298 2.995706,45.3901 3.132056,11.48743 8.755251,22.30931 16.51113,31.35675 5.695275,6.85603 12.596164,13.00948 20.946334,16.38391 7.3763,3.08383 15.4752,4.03344 23.41817,3.75115 6.45778,-0.16606 12.90346,-0.77718 19.2936,-1.70983 14.06759,-2.41581 27.42736,-7.84545 40.09818,-14.28574 13.68112,-7.0508 26.74791,-15.50914 38.00535,-26.05719 2.14527,-2.05459 4.21521,-4.19052 6.13867,-6.45508 12.33501,15.28988 25.74217,29.82468 40.96887,42.28705 11.5529,9.38247 24.5847,17.15132 38.82399,21.65659 11.69755,3.87385 24.23509,5.90092 36.52453,4.1898 11.10349,-1.51878 21.78118,-6.22462 30.25252,-13.58549 9.09196,-7.74982 15.75074,-18.02056 20.33655,-28.97913 5.20023,-12.20297 8.31038,-25.19902 10.29521,-38.28404 2.58247,-18.58313 1.71207,-37.48309 -0.8209,-56.0212 -0.27424,-2.08082 -0.56579,-4.15946 -0.88272,-6.23429 7.825,-0.78233 15.51201,-2.56707 23.0957,-4.59961 12.31073,-3.40079 24.38738,-7.67328 36.0779,-12.81747 11.00118,-4.89081 21.73701,-10.69846 30.90187,-18.58582 13.27099,-11.30471 23.62106,-26.28385 28.46652,-43.10358 3.29047,-11.42144 3.8432,-23.70491 0.99081,-35.27949 -3.08396,-12.81083 -9.8602,-24.46417 -18.16299,-34.58832 -10.61034,-12.88351 -23.6541,-23.55867 -37.49557,-32.79195 -11.75699,-7.78307 -24.15192,-14.57962 -36.87353,-20.64591 -4.53811,-2.15003 -9.12036,-4.20649 -13.7429,-6.16792 4.74536,-9.31437 7.51848,-19.46502 9.9496,-29.5848 3.64858,-15.6081 6.27289,-31.56098 6.23436,-47.629246 -0.0708,-11.960137 -1.56706,-24.093727 -6.11647,-35.234628 -2.72041,-6.744059 -6.69012,-12.985094 -11.74102,-18.224743 -6.74004,-7.099275 -14.99746,-12.681999 -23.88709,-16.731325 -12.91828,-5.678779 -27.4836,-7.323082 -41.39221,-5.108724 -15.0342,2.220846 -29.2457,8.212563 -42.4124,15.634555 -15.88877,9.040401 -30.42456,20.251804 -44.25,32.16211 C 266.02529,50.141256 257.25862,41.222523 248.25259,32.69259 239.0029,24.084686 229.1416,16.0901 218.50391,9.2539062 205.61713,1.254878 190.95354,-4.2781649 175.7341,-5.2500263 173.48764,-5.395608 171.2352,-5.4333018 168.98438,-5.4121094 Z M 174.93555,70.6875 c 8.93399,4.697254 16.47823,11.529923 23.87072,18.302257 7.0402,6.526692 14.0429,13.144083 21.85297,18.758083 0.82606,0.60131 1.66366,1.18718 2.49896,1.7756 -4.60925,4.93461 -9.20362,9.8785 -13.79492,14.83008 -12.0332,-0.49415 -24.0664,-0.98829 -36.09961,-1.48243 -0.39816,-4.52116 -0.77378,-9.04455 -1.0625,-13.57421 -0.0916,-1.67314 -0.20793,-3.56351 -0.27952,-5.32274 -0.2778,-6.533014 -0.25163,-13.32167 0.22093,-19.833515 0.28602,-3.78267 0.78626,-7.718084 1.60497,-11.509908 0.15318,-0.759494 0.3494,-1.509318 0.563,-2.253764 0.20833,0.103516 0.41666,0.207031 0.625,0.310547 z m 193.79492,16.751953 c -0.37449,5.901474 -1.43546,11.732972 -2.43484,17.553617 -2.27028,12.64551 -5.1622,25.16644 -7.73313,37.75107 -17.95979,-4.36243 -36.17943,-7.61864 -54.50977,-9.95898 10.4277,-10.22844 21.37134,-19.9765 33.21485,-28.54688 7.97524,-5.696588 16.38782,-11.199638 25.51668,-15.01675 1.33187,-0.548226 2.71641,-1.054482 3.98528,-1.491377 0.63097,-0.220471 1.302,-0.417251 1.78124,-0.568044 0.33657,-0.167042 0.13522,0.09564 0.17969,0.277344 z M 173.72461,188.87109 c 0.76172,0.004 1.43878,1.0153 0.74414,1.57813 -0.8283,0.76505 -2.23452,-0.78645 -1.33008,-1.47461 0.17715,-0.1013 0.38651,-0.11804 0.58594,-0.10352 z m -48.74023,54.71094 c -4.68403,10.15192 -9.3826,20.29661 -14.02149,30.46875 -8.67804,-5.2967 -17.917747,-9.57721 -26.800781,-14.50586 -1.693927,-0.95535 -3.558343,-2.01912 -5.289181,-3.06697 -6.17453,-3.74504 -12.203659,-7.80721 -17.570304,-12.659 -2.779153,-2.56035 -5.445511,-5.3415 -7.332083,-8.63899 0.0066,-0.44902 0.585065,-0.83903 0.849051,-1.22598 3.002367,-3.23089 6.69758,-5.71987 10.492908,-7.92273 0.812638,-0.44963 1.859947,-1.05599 2.779909,-1.53557 6.429442,-3.46645 13.322551,-6.2702 20.128294,-8.68904 7.180897,-2.52547 14.514507,-4.66244 21.824267,-6.60447 1.14914,-0.31262 2.30351,-0.60553 3.45503,-0.9092 3.82812,11.76302 7.65625,23.52604 11.48438,35.28906 z m 245.50585,-19.18164 c 4.83106,1.51439 9.71842,3.13356 14.4375,4.81445 5.69413,2.01617 11.5068,4.2644 17.06055,6.58008 14.86346,6.26426 29.43675,13.57151 42.29156,23.40217 4.88708,3.80256 9.56647,8.02737 13.06124,13.18022 0.83731,1.34454 1.81196,2.71314 2.06908,4.30433 -0.80964,1.86904 -2.60612,3.05674 -4.06785,4.39566 -5.01058,4.00483 -10.90242,6.70742 -16.79483,9.14092 -9.13629,3.64548 -18.71003,6.01938 -27.98479,9.26801 -4.22941,1.47025 -8.41117,3.09965 -12.43769,5.06455 -7.51983,-25.94333 -16.38237,-51.50474 -26.67084,-76.48168 -0.54404,-1.2934 -1.08253,-2.58905 -1.63775,-3.87769 0.22461,0.0697 0.44921,0.13932 0.67382,0.20898 z m -58.59179,57.94141 c 3.36276,9.03344 6.46155,18.18432 9.28556,27.35689 4.32675,14.06733 8.07761,28.40047 11.13241,42.74467 1.82265,8.59224 3.40215,17.23595 4.7207,25.91992 1.52593,10.18386 2.65147,20.62259 3.14235,30.98251 0.0801,1.55282 0.12884,3.25462 0.172,4.71708 0.10958,4.71863 0.0864,9.4431 -0.1913,14.15588 -0.0818,1.162 -0.1816,2.56684 -0.30462,3.8239 -0.24676,2.61067 -0.57409,5.21641 -1.05281,7.79524 -6.81723,-3.67512 -12.71431,-8.78392 -18.43897,-13.94207 -13.07256,-12.04601 -24.44187,-25.71908 -35.18077,-39.80991 -9.69549,-12.79067 -18.76121,-26.12109 -27.23768,-39.707 -5.97271,-9.59467 -11.67688,-19.35625 -17.11133,-29.26563 8.32039,2.73508 17.36019,3.67068 25.96875,1.79279 8.87536,-1.92048 16.89215,-6.69363 23.71733,-12.57221 7.96471,-6.92483 15.27969,-14.81856 20.32564,-24.15613 0.24417,-0.25391 0.54573,-1.5512 0.7177,-0.72157 0.11168,0.29521 0.22336,0.59042 0.33504,0.88564 z m -144.38086,55.70703 c 9.23559,17.70222 18.97506,35.14789 29.5,52.11719 -9.37466,4.54128 -17.51951,11.15808 -26.01393,17.03771 -5.63123,3.81917 -11.49772,7.47118 -17.31615,10.87244 -3.07388,1.74445 -6.19903,3.42635 -9.50391,4.69531 -0.12854,-2.94286 0.38587,-5.86465 0.65753,-8.78661 1.44295,-11.85241 4.2288,-23.49019 7.23538,-35.0291 3.92199,-14.78969 8.60426,-29.37727 13.99186,-43.69796 0.48307,0.93034 0.96615,1.86068 1.44922,2.79102 z" />
      <path
         d="M 170.57096,22.560353 C 157.58883,22.678178 146.1227,28.414046 137.7096,39.762839 128.35098,52.38709 126.80891,61.78614 126.82345,105.90204 l 0.0104,51.42467 -24.79566,5.32119 c -33.113435,7.1081 -72.986385,27.82437 -86.409687,44.90519 -15.35438413,19.53807 -13.8401251,39.95587 4.504613,60.86878 17.100119,19.49405 75.175113,52.81209 83.294764,47.7892 10.29885,-6.37095 4.7217,-13.05571 -22.076659,-26.46381 C -0.66651813,248.71123 8.4620539,206.31735 104.62504,181.64781 l 27.37263,-7.02722 11.50502,35.36969 11.50503,35.3697 -20.10843,43.56473 c -38.710451,83.86646 -47.214242,139.85583 -25.44498,167.55669 10.06039,12.80159 13.77844,14.03063 35.91516,11.9016 26.97225,-2.5941 73.54469,-31.30485 76.60887,-47.23067 2.35681,-12.24933 -8.27128,-10.89574 -27.15957,3.47299 -8.84062,6.72523 -23.9918,16.31341 -33.673,21.30508 -22.06703,11.37791 -39.72204,4.89234 -44.36639,-16.29869 -4.04662,-18.46377 12.11501,-81.97667 32.17146,-126.41898 l 15.24873,-33.79568 22.20855,44.19435 c 44.16774,87.88012 94.9311,153.21269 131.37442,169.06977 34.80667,15.14494 55.4428,5.0317 65.78359,-32.24197 7.43568,-26.8021 6.9591,-50.73728 -1.89721,-96.07599 -12.40874,-63.52486 -51.18968,-162.52065 -62.16164,-158.68126 -8.64412,3.02483 -5.72828,18.04257 11.33255,58.46206 31.56367,74.77877 46.1949,165.91647 32.44539,202.11398 -3.92679,10.33789 -8.6725,13.33345 -21.09255,13.33345 -31.27653,0 -92.91721,-72.07842 -137.15736,-160.38729 -31.71904,-63.31518 -31.58286,-57.70614 -2.4958,-99.16309 29.77266,-42.43412 29.02516,-42.2328 106.69035,-28.87053 166.29995,28.61182 235.809,107.94993 123.26814,140.69684 -28.16415,8.19515 -35.93931,13.9434 -30.57862,22.62523 3.85344,6.24079 51.55409,-7.54047 74.33627,-21.47772 21.60174,-13.21511 34.03517,-36.64494 29.76698,-56.09595 -10.2888,-46.8881 -106.78562,-95.70656 -211.6864,-107.0941 -48.96844,-5.3158 -49.48584,-6.62831 -16.13139,-40.82291 55.37017,-56.764842 104.82767,-76.859975 116.1054,-47.169745 4.6025,12.116738 3.42595,22.80644 -8.53239,77.218245 -2.72786,12.41208 -1.72394,14.52556 6.19892,12.99834 6.43617,-1.24065 11.61135,-10.12556 16.19226,-27.81441 10.06495,-38.865067 8.84757,-68.271069 -3.32774,-80.457681 -32.30442,-32.334431 -82.91102,-9.433962 -158.18903,71.572091 l -25.56673,27.50977 -36.75724,-1.51309 -36.74709,-1.51309 -2.59726,-28.59634 c -7.72351,-85.037636 19.88316,-103.937716 74.65078,-51.099712 15.24239,14.705367 29.34836,24.18639 33.57155,22.564296 9.74959,-3.744737 -10.37856,-30.265478 -40.69371,-53.618137 -14.46286,-11.141176 -28.95947,-16.63993 -41.9416,-16.522104 z m 8.17729,150.669007 c 12.85641,0 23.3753,1.32432 23.3753,2.94493 0,1.62062 -6.30175,11.56435 -14.00083,22.09718 -7.69908,10.53283 -15.48761,20.98786 -17.30827,23.22437 -3.14419,3.86235 -15.44149,-29.879 -15.44149,-42.36646 0,-3.52156 9.41357,-5.90002 23.37529,-5.90002 z m 76.00014,47.14943 c -5.27266,0.21713 -10.86165,1.95324 -16.90245,5.18918 -22.30792,11.94993 -20.9332,49.82829 2.21172,61.0211 17.43307,8.43057 23.76403,7.33883 37.61961,-6.52963 15.75332,-15.76795 16.25789,-32.23721 1.46096,-48.00245 -7.68277,-8.18554 -15.60207,-12.04008 -24.38984,-11.6782 z"
         style="fill:#000000;stroke-width:5.19692"
         id="path926-3" />
      <path
         id="path534"
         style="fill:#ffffff;fill-rule:evenodd;stroke-width:5.23396;stroke-linejoin:bevel;paint-order:markers stroke fill"
         d="m 172.79883,63.208984 c -2.55869,-0.0362 -4.63315,2.130874 -5.16911,4.517463 -1.41389,4.844349 -1.69852,9.918278 -2.14626,14.918559 -0.76224,10.407297 -0.88097,20.872174 -0.0979,31.281984 0.25128,3.86195 0.52265,7.72255 0.77071,11.58473 0.30518,0.70173 0.56885,1.42787 1.19634,1.90855 0.78838,0.91345 1.75833,1.83453 3.03603,1.86663 10.27403,0.96416 20.56931,1.79026 30.89163,1.95487 3.28611,0.0556 6.5776,0.13901 9.86088,0.14932 1.4723,-0.27331 2.92565,-1.01659 3.80777,-2.26237 5.22146,-5.7929 10.44292,-11.58581 15.66438,-17.37872 0.24757,-0.79498 0.66414,-1.57068 0.42222,-2.4215 -0.14596,-0.95958 0.0185,-2.01531 -0.62725,-2.82011 -0.41237,-0.98592 -1.50754,-1.37962 -2.25722,-2.07297 -7.71487,-5.774298 -14.93777,-12.162677 -22.21146,-18.473276 -7.40044,-6.429838 -14.8119,-12.907664 -22.97406,-18.368424 -2.46307,-1.577274 -4.95765,-3.244011 -7.7969,-4.055474 -0.77273,-0.202723 -1.57013,-0.32549 -2.36978,-0.329262 z" />
      <path
         id="path536"
         style="fill:#ffffff;fill-rule:evenodd;stroke-width:5.23396;stroke-linejoin:bevel;paint-order:markers stroke fill"
         d="m 367.50977,80.253906 c -6.83801,1.777769 -13.09156,5.203352 -19.17042,8.714181 -11.84779,6.998198 -22.93779,15.235623 -33.35444,24.213193 -5.1492,4.4622 -10.00426,9.24767 -14.72852,14.15382 -1.6662,1.6982 -3.33239,3.39639 -4.99858,5.09459 -0.0943,0.74578 -0.48647,1.50813 -0.39755,2.24371 0.40921,1.07568 0.69802,2.23557 1.18215,3.25885 0.60013,0.3961 1.08302,1.06504 1.75555,1.29263 5.2377,0.64682 10.46793,1.35688 15.66079,2.30504 14.30265,2.51319 28.59362,5.5668 42.92273,8.26897 1.58986,0.27204 3.33468,0.88117 4.85445,0.008 1.56049,-0.73857 2.34315,-2.37465 2.82984,-3.93937 1.65051,-4.74271 2.70037,-9.66603 3.86514,-14.54356 3.62409,-15.75341 6.58885,-31.655792 8.96557,-47.644222 -0.34932,-0.807884 -0.40031,-1.811716 -1.20915,-2.317781 -0.65811,-0.561656 -1.25092,-1.242783 -1.94815,-1.732865 -0.83247,-0.16248 -1.66154,-0.644237 -2.49981,-0.263906 -1.2432,0.296257 -2.4864,0.592513 -3.7296,0.88877 z" />
      <path
         id="path538"
         style="fill:#ffffff;fill-rule:evenodd;stroke-width:5.23396;stroke-linejoin:bevel;paint-order:markers stroke fill"
         d="m 365.56055,216.56055 c -2.4159,-0.0356 -4.66437,2.18223 -4.36914,4.64062 0.19422,1.65847 1.10698,3.11395 1.63137,4.67785 3.84471,9.61958 7.78362,19.20738 11.15963,29.00525 5.81916,16.41528 11.42096,32.91044 16.63055,49.52981 0.54712,1.61988 0.89135,3.33308 1.68782,4.8535 1.39225,2.2596 4.43101,2.85311 6.83825,2.10219 3.73064,-0.93492 7.13236,-2.80272 10.77897,-3.9906 6.36294,-2.3666 12.90697,-4.19179 19.345,-6.33283 9.14586,-3.13255 18.14565,-6.88175 26.38057,-11.98694 3.57446,-2.26454 7.16217,-4.81034 9.49315,-8.41682 1.35436,-2.19522 1.68601,-5.04144 0.56055,-7.4043 -1.62216,-3.92677 -4.49646,-7.15204 -7.31061,-10.26722 -6.34322,-6.85572 -13.81622,-12.60361 -21.85367,-17.33553 -9.42146,-5.76641 -19.20469,-10.97373 -29.43332,-15.16455 -10.73586,-4.50649 -21.64222,-8.63603 -32.7717,-12.06751 -2.80583,-0.81638 -5.64666,-1.70885 -8.58265,-1.8448 l -0.1,0.001 z" />
    </g>
  </g>
</svg>
