<?xml version="1.0" encoding="UTF-8" standalone="no"?>
<!-- Created with Inkscape (http://www.inkscape.org/) -->

<svg
   version="1.1"
   id="svg896"
   width="512"
   height="512"
   viewBox="0 0 512 512"
   sodipodi:docname="objection.svg"
   inkscape:version="1.1.2 (0a00cf5339, 2022-02-04)"
   xmlns:inkscape="http://www.inkscape.org/namespaces/inkscape"
   xmlns:sodipodi="http://sodipodi.sourceforge.net/DTD/sodipodi-0.dtd"
   xmlns="http://www.w3.org/2000/svg"
   xmlns:svg="http://www.w3.org/2000/svg">
  <defs
     id="defs900" />
  <sodipodi:namedview
     id="namedview898"
     pagecolor="#505050"
     bordercolor="#eeeeee"
     borderopacity="1"
     inkscape:pageshadow="0"
     inkscape:pageopacity="0"
     inkscape:pagecheckerboard="0"
     showgrid="false"
     inkscape:zoom="0.65478514"
     inkscape:cx="184.79344"
     inkscape:cy="315.37063"
     inkscape:window-width="1366"
     inkscape:window-height="695"
     inkscape:window-x="0"
     inkscape:window-y="24"
     inkscape:window-maximized="1"
     inkscape:current-layer="g902" />
  <g
     inkscape:groupmode="layer"
     inkscape:label="Image"
     id="g902">
    <g
       id="g11088">
      <path
         id="path1060"
         style="fill:#005a0b;fill-opacity:1;stroke-width:0.975083"
         d="m 136.45703,23.355469 c -5.14629,0.199917 -10.33885,0.433686 -15.37198,1.604661 -1.92509,0.409096 -3.60717,1.479182 -5.2524,2.507256 -2.34853,1.552292 -3.1203,4.453901 -3.52992,7.075583 -0.85282,6.071176 -0.86034,12.21853 -1.01313,18.336318 -0.2644,20.868118 -0.13623,41.738598 -0.1646,62.607823 1e-5,27.5681 0,55.1362 0,82.7043 15.45508,0 30.91016,0 46.36523,0 0,-38.97006 0,-77.94011 0,-116.91016 -3.95244,-0.04975 -7.91157,0.112656 -11.85926,-0.109727 -1.75254,-0.185521 -3.78026,-0.319305 -5.0548,-1.691054 -0.9549,-1.355754 -0.90915,-3.1632 -0.6914,-4.738281 0.28589,-1.855488 2.05519,-2.93549 3.74218,-3.341797 3.56941,-0.90886 7.28614,-0.496705 10.92696,-0.59375 0.97877,0 1.95755,0 2.93632,0 0,-14.527344 0,-29.054688 0,-43.582032 -1.45799,-0.853012 -2.78282,-1.961619 -4.34006,-2.627607 -2.91543,-0.974606 -6.03512,-1.054666 -9.07954,-1.21641 -2.53657,-0.102083 -5.07608,-0.08067 -7.6136,-0.02512 z" />
      <path
         id="path1064"
         style="fill:#07a800;fill-opacity:1;stroke-width:0.975083"
         d="m 281.62891,23.498047 c -2.5009,0.06777 -5.0221,-0.0069 -7.50391,0.339844 -0.77683,0.412573 -1.55197,0.828344 -2.32812,1.242187 0.64147,0.820312 1.17932,1.799689 1.88491,2.520816 2.02491,0.4539 4.12591,0.262795 6.18652,0.343935 4.21984,-1.43e-4 8.4464,0.08759 12.66099,-0.147954 0.5554,-0.14815 1.27414,-0.07759 1.43887,-0.762811 0.39259,-0.685564 0.78417,-1.371706 1.17636,-2.057502 -1.06435,-0.501449 -2.03431,-1.341522 -3.27366,-1.285089 -3.40929,-0.203791 -6.82759,-0.208918 -10.24196,-0.193426 z m -126.06446,9.199219 c -1.1568,0.352995 -1.42562,1.743429 -1.54254,2.802186 -0.48091,5.21795 -0.41163,10.46844 -0.4709,15.70367 -0.0231,6.534505 -0.0441,13.069018 -0.0686,19.603519 7.56947,0.03805 15.14129,-0.09135 22.70899,0.101562 0.87882,0.04605 2.04273,0.09922 3.02114,0.256423 2.39274,0.19436 4.61121,2.097399 4.82498,4.549327 0.28649,2.044824 -0.772,4.51685 -2.90081,5.067297 -1.59732,0.356147 -3.27598,0.370873 -4.81364,0.431976 -7.61003,0.129723 -15.22199,0.04222 -22.83285,0.06802 0,38.970054 0,77.940104 0,116.910164 52.14649,0 104.29297,0 156.43946,0 0.38482,-18.96436 0.91361,-37.92688 1.01337,-56.8958 0.20347,-25.30486 0.12046,-50.610936 -0.093,-75.915429 -0.0515,-4.726522 -0.0239,-9.457632 -0.16647,-14.180966 -0.70507,-1.572917 -1.41015,-3.145834 -2.11523,-4.71875 -0.60731,1.678901 -1.37135,3.323147 -1.88037,5.023784 -0.16067,13.876933 -0.14312,27.755704 -0.21955,41.633421 -0.0867,22.27115 -0.16468,44.54234 -0.24774,66.8135 -28.31098,-34.57495 -56.4775,-69.261464 -84.68988,-103.919611 -4.79848,-5.898707 -9.59863,-11.796061 -14.39605,-17.695625 -12.04591,-0.03187 -24.09289,0.07743 -36.13798,-0.08868 -2.8594,-0.122409 -5.7786,-0.02944 -8.56898,-0.748583 -1.71209,-0.573177 -3.08812,-1.931966 -4.04695,-3.426414 -0.26282,-0.747331 -0.84055,-1.313628 -1.60813,-1.520899 -0.43235,-0.347999 -0.77106,4.3e-4 -1.20828,0.145899 z" />
      <path
         id="path1066"
         style="fill:#37fe45;fill-opacity:1;stroke-width:0.975083"
         d="m 278.77734,24.353516 c -3.46531,0.09035 -6.97293,-0.09776 -10.39673,0.538645 -1.62688,0.27664 -3.01299,1.433802 -3.58373,2.980886 -0.60773,1.39407 -0.90273,2.905822 -1.00196,4.414062 -0.84177,2.316807 -2.86613,3.864376 -4.53711,5.566407 -13.16971,0.0344 -26.34064,-0.08738 -39.50939,0.107439 -4.10739,0.105231 -8.23059,0.103096 -12.3178,0.555261 -0.99895,0.09329 -2.10469,0.509851 -2.44959,1.5371 -0.14577,0.448155 -0.17785,1.083101 0.0197,1.510027 2.71388,3.667732 5.65536,7.162131 8.48498,10.740904 27.52863,34.13285 55.29107,68.076593 82.97,102.089433 4.40991,5.41372 8.81938,10.82781 13.22985,16.24109 0.12168,-34.7241 0.29956,-69.44806 0.37998,-104.172269 -0.0423,-9.065721 0.0601,-18.141373 -0.45812,-27.195862 -0.26198,-3.133865 -0.39444,-6.393763 -1.71483,-9.299842 -0.84544,-1.897927 -2.67497,-3.044769 -4.50218,-3.860624 -2.84216,-1.396286 -6.09501,-1.407681 -9.18986,-1.602291 -5.13787,-0.200718 -10.28236,-0.15445 -15.4232,-0.150366 z M 159.63672,66.826172 c -5.27616,0.104167 -10.57261,0.142574 -15.81562,0.796822 -3.57923,0.477292 -7.10763,3.021506 -7.87968,6.684068 -0.70538,3.137414 0.878,6.335218 3.20101,8.39034 1.48086,1.593245 3.67411,2.162828 5.77364,2.301134 4.9646,0.374377 9.95081,0.237004 14.92573,0.281212 6.24652,-0.03339 12.49963,0.08947 18.74049,-0.221942 2.39814,-0.157861 5.08349,-0.383102 6.83763,-2.239447 3.36533,-3.174859 3.52975,-8.964531 0.48712,-12.409737 -1.63548,-1.922228 -4.06893,-3.020453 -6.56399,-3.219657 -4.76585,-0.479344 -9.56686,-0.325879 -14.35008,-0.379425 -1.78545,-0.0089 -3.57083,0.0093 -5.35625,0.01663 z" />
      <path
         id="path1070"
         style="fill:#f7cda7;stroke-width:0.975083"
         d="m 74.361328,108.87891 c -6.821849,0.16103 -13.532125,3.23574 -18.009968,8.40218 -4.976704,5.5959 -7.180765,13.56116 -5.610978,20.90261 0.563443,2.59431 1.440725,5.17376 2.888844,7.41173 2.54683,3.34479 5.612437,6.24943 8.580891,9.2124 7.423285,7.22214 15.248467,14.01286 22.805508,21.09256 -5.749322,-0.53515 -11.732164,0.87066 -16.516818,4.13695 -4.583706,3.21955 -7.486418,8.50061 -8.39273,13.97085 -0.948193,5.69077 0.397834,11.88946 4.239626,16.29064 3.998542,4.73312 8.553765,8.96719 13.237369,13.01098 2.759397,2.29697 5.508924,4.68235 8.694283,6.37659 1.636334,0.84501 3.545335,0.73301 5.334674,0.76888 7.742861,-0.13205 15.150781,-4.33125 19.595951,-10.61221 3.59468,-4.9509 5.28325,-11.18811 4.83438,-17.27838 -0.14869,-1.97582 -0.31152,-4.30022 -1.95902,-5.6522 -2.4269,-1.76203 -4.58558,-3.8667 -6.82793,-5.85346 -3.31091,-3.02834 -6.5759,-6.10644 -9.864785,-9.15864 0,-20.92318 0,-41.84635 0,-62.76953 -4.514822,-3.37374 -8.823495,-7.31858 -14.261719,-9.14453 -2.818436,-0.93819 -5.81348,-1.17526 -8.767578,-1.10742 z m 269.210942,11.04492 c -6.01076,0.11378 -12.22017,2.46029 -16.05619,7.23493 -1.06185,1.37612 -2.05506,2.80469 -3.08835,4.20257 -0.32733,88.52149 -0.6565,177.04297 -0.98437,265.56445 -1.64277,3.25773 -3.15499,6.6428 -5.58383,9.41364 -3.0982,3.76409 -7.15856,6.62449 -11.53325,8.7225 -1.05554,0.50984 -2.0806,1.1432 -3.15479,1.57749 -44.85861,0.32964 -89.71719,0.66207 -134.57579,0.9934 4.55828,5.27012 8.89,10.75103 13.84234,15.66565 6.93991,6.94353 14.32055,13.46992 22.23969,19.27966 3.03749,2.11 6.06226,4.26631 9.30734,6.04833 0.71967,0.38096 1.59801,0.46868 2.29195,-0.008 0.73459,-0.0939 1.50002,0.33353 2.24835,0.43482 4.48405,0.99659 9.02232,1.7198 13.5508,2.48033 0.39359,-0.1182 1.10259,0.0949 1.61717,0.10205 9.33075,0.84846 18.72041,0.7659 28.07538,0.43816 8.0047,-0.37484 16.04335,-0.84331 23.92347,-2.37648 17.53219,-3.53131 34.51582,-9.81507 50.05369,-18.68177 6.3082,-3.58303 12.43097,-7.51934 18.08555,-12.07541 8.94508,-7.1361 17.31595,-14.99509 25.02193,-23.45326 3.98707,-4.37279 7.71024,-8.99513 10.93961,-13.95915 1.8774,-2.81345 3.8599,-5.80474 4.05275,-9.28923 0.17624,-2.5641 0.0659,-5.13983 0.31016,-7.7018 0.86162,-12.37194 2.15632,-24.75955 3.38758,-37.14631 1.22907,-13.05148 2.37097,-26.15318 2.03936,-39.27574 -0.23866,-9.9595 -1.69601,-19.9175 -4.74128,-29.41711 -3.45756,-11.06 -8.67661,-21.43784 -13.5844,-31.89882 -4.25347,-9.18941 -8.62224,-18.41629 -11.18591,-28.25091 -2.45977,-9.44016 -2.91095,-19.24042 -3.26459,-28.9439 -0.32909,-10.37535 -0.4248,-20.89271 -0.76647,-31.31982 -0.2145,-4.89228 -0.26702,-9.83324 -1.26869,-14.64503 -0.54143,-2.66209 -1.88979,-5.15155 -3.93424,-6.95667 -3.30178,-3.32621 -7.64838,-5.55681 -12.26152,-6.35624 -1.64798,-0.30343 -3.32843,-0.42923 -5.00345,-0.40193 z M 80.701172,229.98047 c -6.786468,0.19791 -13.482821,3.64989 -17.263129,9.34425 -2.743694,4.00378 -3.842162,8.97018 -3.497159,13.77786 0.110471,3.44717 1.252944,6.82865 3.248423,9.64115 3.078453,4.3717 7.041716,8.01169 10.862451,11.71731 3.461928,3.27268 6.915254,6.55559 10.450195,9.7499 -5.691569,-0.52891 -11.670847,0.85035 -16.220343,4.40608 -5.276142,3.97978 -8.38563,10.52762 -8.385576,17.11051 0.0386,3.08219 0.461048,6.22097 1.640537,9.08568 0.992513,1.93697 2.598522,3.47044 4.020627,5.09216 6.484068,7.00221 13.53765,13.44496 20.548758,19.90915 1.214891,1.01542 2.309055,2.22925 3.693822,3.00801 0.547627,0.11867 1.126225,0.48237 1.593951,-0.0113 0.383125,-0.34396 1.248845,-0.40755 1.213693,-0.99404 0.03613,-0.79707 0.06195,-1.62613 -0.501953,-2.2625 -0.660699,-0.54457 -0.258317,-0.60486 0.380859,-0.58399 5.271763,-0.43515 10.268352,-2.77925 14.221912,-6.25128 3.7098,-3.21989 7.17689,-7.1033 8.49007,-11.95063 0.85938,-2.94137 0.8848,-6.0266 0.95013,-9.06371 0.55506,-0.0242 0.76863,-0.77865 1.17721,-1.11484 0.68677,-0.43612 0.32755,-1.01315 0.0283,-1.58211 -0.57836,-1.22147 -1.76371,-2.01308 -2.68979,-2.96149 -5.39302,-4.82711 -10.80495,-9.63414 -16.165318,-14.49744 -2.486402,-2.17089 -5.104398,-4.26295 -8.11015,-5.67225 0.770815,-0.27159 -0.09305,-1.19227 0.27539,-1.41015 3.99256,-0.008 8.02409,-0.77863 11.579688,-2.64421 4.75788,-2.47249 8.70224,-6.47939 11.18665,-11.22257 2.26805,-4.39269 2.97638,-9.47087 2.56647,-14.36102 -0.30669,-3.02723 -2.64332,-5.2228 -4.67656,-7.25267 -4.65954,-4.43828 -9.37383,-8.82131 -14.002481,-13.29335 -4.609071,-3.83603 -10.616652,-5.93182 -16.616657,-5.71251 z" />
      <path
         style="fill:#f8caa7;fill-opacity:1;stroke-width:0.975083"
         d="m 270.09085,498.01135 c -3.42562,-6.86014 -10.77809,-15.84583 -16.78764,-20.51672 -3.13225,-2.43453 -12.34528,-7.61439 -20.47341,-11.51081 -19.6832,-9.43564 -20.83377,-10.37824 -9.73489,-7.97532 12.51486,2.70948 44.92549,2.89209 58.99625,0.33239 21.91921,-3.98746 42.74169,-12.26369 61.5437,-24.46153 13.79387,-8.94882 34.09459,-28.31436 42.58955,-40.62765 l 5.52851,-8.01347 0.70783,4.1038 c 0.38931,2.25709 4.22135,16.71106 8.51563,32.11993 6.26141,22.46731 7.55295,28.21119 6.52099,29.00095 -35.59795,27.24311 -73.9467,43.65729 -116.23515,49.75144 -18.7847,2.70705 -18.71595,2.7142 -21.17137,-2.20301 z M 107.47148,354.95653 c -1.75458,-0.74709 -7.0748,-5.06071 -11.82272,-9.58581 -8.056582,-7.6785 -8.448047,-8.22926 -5.866873,-8.25438 5.787129,-0.0564 11.576493,-2.24485 15.978473,-6.04026 5.7444,-4.95287 7.40223,-8.20215 8.2003,-16.07228 l 0.6473,-6.38333 7.87911,7.15104 c 13.33596,12.10367 16.04015,19.81586 10.55464,30.10127 -2.22072,4.16388 -3.74337,5.65535 -7.99432,7.83059 -5.91747,3.02801 -12.3332,3.48544 -17.57591,1.25316 z m 0.0245,-54.31399 c -2.69181,-1.01357 -7.09509,-4.46571 -12.526484,-9.82069 l -8.375552,-8.2577 5.230123,-0.14496 c 12.696363,-0.35189 22.285923,-10.65278 22.285923,-23.939 v -4.55907 l 8.62074,7.89525 c 10.30966,9.44204 11.95486,11.79787 12.73291,18.23276 0.78001,6.451 -1.54436,12.42393 -6.56308,16.86518 -6.08476,5.38464 -13.55156,6.6852 -21.40459,3.72823 z m 1.44167,-53.76117 c -3.62158,-1.21955 -5.15679,-2.41961 -16.939545,-13.24161 l -5.855649,-5.37818 h 4.876298 c 12.738646,0 23.057616,-10.38312 23.081616,-23.22512 l 0.01,-5.149 8.82932,7.90439 c 9.74727,8.72618 12.85771,13.65244 12.82404,20.31045 -0.0388,7.67932 -5.55777,15.76396 -12.53497,18.36237 -4.06207,1.51276 -10.48009,1.6999 -14.29074,0.4167 z"
         id="path1068" />
      <path
         style="fill:#ff0000;fill-opacity:1;stroke-width:0.975083"
         d="M 237.26333,502.41284 C 146.70739,495.71701 65.365096,437.09153 31.980629,354.4603 4.7791316,287.1328 10.063864,211.66483 46.325526,149.60976 l 6.115488,-10.46552 2.164885,4.17254 c 1.425669,2.7478 7.705813,9.18976 18.392181,18.86609 8.925012,8.08145 16.793775,15.36212 17.486136,16.17929 1.108011,1.30772 0.938459,1.36643 -1.41504,0.48995 -1.470643,-0.54768 -4.883805,-0.99578 -7.584818,-0.99578 -11.137574,0 -19.591477,8.43213 -19.591477,19.54101 0,7.20895 2.254079,10.8767 12.410686,20.19426 4.817007,4.41906 10.977992,10.10143 13.691079,12.6275 l 4.932892,4.59284 -3.662954,-1.45643 c -6.993483,-2.78068 -15.930836,-1.24634 -21.296468,3.65613 -8.70795,7.95628 -7.934621,22.55102 1.627204,30.70957 1.995221,1.70239 7.985578,7.14213 13.311903,12.08831 8.462752,7.85873 9.209261,8.79864 5.918509,7.45183 -5.404848,-2.21204 -13.372996,-1.23957 -18.429052,2.24915 -7.874264,5.43331 -10.917523,17.00099 -6.62442,25.17998 1.033659,1.96927 8.539314,9.64789 16.679235,17.06363 l 14.799851,13.48313 0.315941,25.60135 c 0.293048,23.74678 0.468475,25.9245 2.421685,30.06219 2.887418,6.11674 8.618668,12.07432 14.580588,15.15637 4.98591,2.5775 5.00388,2.57918 32.66106,3.06144 l 27.67239,0.48252 4.93884,5.7903 c 14.37957,16.85866 31.73992,29.75145 55.48057,41.20311 15.19718,7.3306 16.77207,8.35006 24.17405,15.64832 7.47488,7.37014 15.09667,18.71876 13.57359,20.21066 -0.63197,0.61901 -25.28613,0.58936 -33.80673,-0.0406 z m 163.57229,-83.07137 c -6.34093,-22.95721 -8.27657,-31.46162 -8.61204,-37.83786 -0.27424,-5.21239 0.67787,-18.95491 2.59952,-37.52088 1.66774,-16.11282 3.03048,-34.13511 3.0283,-40.04954 -0.008,-20.39906 -3.78676,-35.51528 -14.51095,-58.04091 -17.24397,-36.22008 -18.06469,-39.68378 -18.86513,-79.61654 -0.67571,-33.71091 -0.78507,-34.40457 -6.18175,-39.21286 -8.74011,-7.7872 -23.70291,-6.59465 -29.93279,2.38568 l -2.42701,3.49851 V 86.883216 c 0,-28.608909 0.35643,-46.063851 0.94061,-46.063851 0.51733,0 5.94839,1.746874 12.06904,3.881943 31.84726,11.109316 67.14004,33.566127 90.58859,57.641552 45.80475,47.0293 70.12721,109.37233 67.48766,172.98342 -2.26508,54.58659 -22.22835,104.47374 -58.2032,145.44679 -8.53608,9.72205 -24.85948,25.47233 -28.42459,27.42661 -1.0997,0.60281 -3.02382,-5.20769 -9.55626,-28.85821 z M 308.67374,293.17969 c -4e-5,-53.60848 0.11903,-75.6809 0.26462,-49.04981 0.14557,26.63107 0.14562,70.49254 9e-5,97.46995 -0.14554,26.97739 -0.26465,5.18834 -0.26471,-48.42014 z m -98.37129,52.52513 c -3.25277,-2.50622 -3.55916,-7.67191 -0.62548,-10.5455 1.88676,-1.84812 3.28408,-1.93009 32.89596,-1.93009 28.58649,0 31.09522,0.1346 33.16931,1.77971 3.24737,2.5757 3.04028,7.50517 -0.43841,10.43613 l -2.6822,2.25989 H 242.76 c -28.71837,0 -29.96101,-0.0765 -32.45755,-2.00014 z m -0.43971,-30.84913 c -2.93428,-2.6777 -2.87503,-7.64995 0.12403,-10.40972 2.15362,-1.98178 3.19573,-2.09831 18.7641,-2.09831 16.18772,0 16.52728,0.0426 18.90212,2.36876 1.33006,1.30281 2.41829,3.49391 2.41829,4.86911 0,1.37519 -1.08823,3.56628 -2.41829,4.8691 -2.37628,2.32762 -2.70675,2.36876 -19.02614,2.36876 -15.35181,0 -16.77095,-0.14882 -18.76411,-1.9677 z m -0.18577,-41.4595 c -2.65481,-2.60044 -2.6027,-7.82545 0.10195,-10.22471 1.92802,-1.7103 4.18642,-1.85794 32.41117,-2.11877 l 30.33874,-0.28035 2.72861,2.29899 c 3.24621,2.73508 3.66473,7.35662 0.93387,10.31237 -1.72701,1.86925 -2.97892,1.94256 -33.16932,1.94256 -30.06094,0 -31.45707,-0.0808 -33.34502,-1.93009 z m 0.70462,-29.92559 c -3.33185,-2.56715 -3.67278,-7.69911 -0.70462,-10.60648 1.81881,-1.78156 3.28408,-1.93009 19.04019,-1.93009 16.56892,0 17.13258,0.0655 19.21193,2.23355 2.64326,2.756 2.74552,6.47246 0.2609,9.48139 -1.82254,2.20711 -2.40056,2.28771 -18.50731,2.58051 -15.73459,0.28604 -16.76943,0.19173 -19.30109,-1.75888 z M 94.20222,119.39014 c -1.439971,-2.16434 -8.876592,-6.53232 -13.84923,-8.13453 l -5.159542,-1.66241 9.545921,-9.5153 c 5.250258,-5.233414 9.806826,-9.259738 10.125699,-8.947388 0.318881,0.312343 0.456742,7.033839 0.306357,14.936648 -0.150393,7.90281 -0.586533,13.89816 -0.969205,13.32298 z"
         id="path1062" />
      <path
         style="fill:#000000;fill-opacity:1;stroke-width:0.975083"
         d="m 118.05083,418.22851 c -8.62312,-2.6219 -16.21549,-9.17955 -20.061858,-17.32773 -1.951762,-4.13462 -2.129162,-6.3235 -2.425831,-29.93143 l -0.320085,-25.47059 5.246214,4.50705 c 2.88542,2.47888 6.90879,4.99823 8.94082,5.59857 l 3.69461,1.09154 v 17.74857 c 0,19.2292 0.47264,21.38978 5.53193,25.28791 2.60867,2.00996 2.85199,2.01531 91.69474,2.01531 98.26084,0 93.04347,0.32665 96.6001,-6.0479 1.64659,-2.95116 1.74083,-12.81524 1.74083,-182.21192 V 34.396046 l -2.72815,-3.5034 c -3.61549,-4.64291 -7.22382,-5.502125 -23.13406,-5.508685 -11.74484,-0.0048 -13.25191,0.188219 -15.02472,1.924717 -1.08375,1.061554 -1.97045,3.049183 -1.97045,4.416955 0,1.430192 -1.15889,3.622004 -2.72743,5.158421 l -2.72742,2.671562 -46.78025,0.667317 c -30.53085,0.43552 -47.93962,0.329943 -50.11798,-0.303946 -4.74319,-1.380236 -6.94488,-3.686101 -7.6513,-8.013298 -1.00221,-6.139115 -2.89118,-6.764043 -19.27576,-6.37698 -11.58656,0.273717 -14.60648,0.650371 -17.10709,2.133645 -6.1651,3.656935 -5.78511,-1.644837 -6.32299,88.218716 l -0.49262,82.29959 -8.65478,-7.85919 -8.654766,-7.85917 0.280346,-75.40545 0.280339,-75.405452 2.346612,-5.085915 C 101.38202,19.733598 109.29361,12.70536 116.24172,10.56467 c 4.8388,-1.4908165 13.10874,-1.6089754 95.91729,-1.3704409 l 90.62193,0.2610413 5.13673,2.2751566 c 6.39782,2.833709 13.15254,9.784392 15.63438,16.087957 1.83805,4.668379 1.88911,9.727901 1.88911,187.192336 v 182.39427 l -2.62425,4.82524 c -3.37334,6.20259 -8.89583,11.38774 -15.10984,14.18685 l -4.92613,2.21899 -91.13352,0.17067 c -50.12343,0.0939 -92.2419,-0.16633 -93.59659,-0.57823 z m 39.76199,-74.3418 c -17.48583,-4.07017 -21.06785,-26.4888 -5.71715,-35.78176 2.72727,-1.65102 4.90516,-2.11592 9.44171,-2.01548 12.22175,0.27062 19.568,7.37991 19.568,18.93684 0,5.6394 -2.20221,11.23105 -5.56022,14.1181 -4.64137,3.99039 -12.2364,6.02158 -17.73234,4.7423 z m -49.12051,-40.57287 -3.84707,-3.85906 4.13973,1.59283 c 3.22594,1.24123 4.13973,2.09306 4.13973,3.85905 0,1.24644 -0.1317,2.26624 -0.29266,2.26624 -0.16097,0 -2.02385,-1.73658 -4.13973,-3.85906 z m 45.31932,-32.34308 c -15.93316,-8.39241 -15.70148,-27.73059 0.42771,-35.70265 2.4998,-1.23555 4.76178,-1.53293 8.66131,-1.13871 6.33251,0.64018 10.35981,2.79179 14.40761,7.69732 2.50127,3.03129 3.08442,4.71066 3.4181,9.84367 0.78447,12.0676 -6.03727,19.88423 -17.91623,20.52915 -4.21595,0.22887 -6.93638,-0.1426 -8.9985,-1.22878 z m -45.40261,-22.14975 -3.85876,-3.34408 4.18722,1.56038 c 2.84127,1.0588 4.18722,2.13373 4.18722,3.34409 0,2.33941 -0.0261,2.3304 -4.51568,-1.56039 z"
         id="path1058" />
    </g>
  </g>
</svg>
