<?xml version="1.0" encoding="UTF-8" standalone="no"?>
<!-- Created with Inkscape (http://www.inkscape.org/) -->

<svg
   version="1.1"
   id="svg899"
   width="512"
   height="512"
   viewBox="0 0 512.00001 512"
   sodipodi:docname="od1n.svg"
   inkscape:version="1.1.2 (0a00cf5339, 2022-02-04)"
   xmlns:inkscape="http://www.inkscape.org/namespaces/inkscape"
   xmlns:sodipodi="http://sodipodi.sourceforge.net/DTD/sodipodi-0.dtd"
   xmlns="http://www.w3.org/2000/svg"
   xmlns:svg="http://www.w3.org/2000/svg">
  <defs
     id="defs903" />
  <sodipodi:namedview
     id="namedview901"
     pagecolor="#505050"
     bordercolor="#eeeeee"
     borderopacity="1"
     inkscape:pageshadow="0"
     inkscape:pageopacity="0"
     inkscape:pagecheckerboard="0"
     showgrid="false"
     inkscape:zoom="0.79019183"
     inkscape:cx="261.96171"
     inkscape:cy="242.34622"
     inkscape:window-width="1366"
     inkscape:window-height="695"
     inkscape:window-x="0"
     inkscape:window-y="24"
     inkscape:window-maximized="1"
     inkscape:current-layer="g905" />
  <g
     inkscape:groupmode="layer"
     inkscape:label="Image"
     id="g905">
    <path
       style="fill:#f4b000;stroke-width:2.76466;fill-opacity:1"
       d="M 149.28433,409.16419 C 38.463412,308.84112 33.843521,303.63886 33.717761,279.02954 c -0.05498,-10.75742 0.743072,-12.49133 5.749141,-12.49133 7.03221,0 7.148907,-0.97006 1.118502,-9.29735 -2.581975,-3.56539 -5.376878,-14.17425 -6.210894,-23.57527 -1.431272,-16.13269 -1.167565,-17.09277 4.694467,-17.09277 7.540903,0 7.521838,0.55856 0.461752,-13.51906 -3.340946,-6.66178 -5.775884,-17.24677 -5.812968,-25.26987 l -0.06383,-13.80623 h 35.992073 c 34.868166,0 36.046806,-0.18488 37.744596,-5.91695 3.72555,-12.57816 3.98548,-12.49135 -37.40561,-12.49135 H 30.747448 v -21.35881 -21.3588 l 6.539591,3.90921 c 4.715568,2.81889 6.791117,6.98421 7.441388,14.93373 0.891851,10.90274 1.01599,11.01558 11.241901,10.21774 9.586635,-0.74796 10.759083,-1.82626 16.09004,-14.79833 3.162458,-7.69535 5.297156,-14.30098 4.743762,-14.67916 C 76.250733,102.05677 65.661596,96.100738 53.272704,89.199318 L 30.747448,76.651293 V 42.736645 8.8219935 h 7.266214 7.266209 v 30.2373755 30.23738 l 13.805806,7.781965 13.805798,7.781966 1.453246,-37.361904 c 1.411418,-36.286298 1.641494,-37.386094 7.992831,-38.2022425 6.5175,-0.837505 6.539591,-0.71463 6.539591,36.3783055 0,20.470256 1.006225,36.824183 2.236048,36.342062 1.229817,-0.482121 8.423367,-6.916263 15.985659,-14.298089 L 120.84846,54.297307 V 31.55965 c 0,-22.5003275 0.0759,-22.7376565 7.26621,-22.7376565 6.95743,0 7.26624,0.682513 7.26624,16.0598985 0,17.951294 -0.0436,17.937819 20.12414,6.419388 9.54589,-5.452298 11.84717,-8.292791 11.84717,-14.623005 0,-6.626861 1.13706,-7.8562815 7.26622,-7.8562815 5.20395,0 7.26618,1.4196985 7.26618,5.0021455 0,4.728206 0.7416,4.800215 13.54115,1.314881 17.86053,-4.863456 18.43021,-4.774216 18.43021,2.887126 0,3.615914 -1.41185,6.57439 -3.13739,6.57439 -7.30154,0 -43.14363,14.703677 -58.05224,23.815079 -28.96842,17.704011 -62.307597,55.211045 -68.24197,76.773135 l -1.99039,7.23183 H 98.521439 114.6089 l 9.08031,-14.35969 C 146.39374,82.155729 188.87658,56.677544 237.83449,49.604642 l 10.89933,-1.574615 V 28.426012 c 0,-19.1577775 0.16522,-19.6040185 7.26617,-19.6040185 7.10082,0 7.26624,0.446241 7.26624,19.6040185 v 19.604015 l 10.89931,1.574615 c 48.76451,7.044962 87.81166,30.317709 113.12554,67.424698 l 10.49966,15.39124 h 15.57256 c 8.5649,0 15.57255,-1.03886 15.57255,-2.30861 0,-5.14212 -9.91205,-23.23677 -20.33905,-37.129305 C 386.73539,63.855377 346.18757,36.61177 310.49658,27.0703 c -9.97667,-2.667122 -12.35254,-4.486727 -12.35254,-9.460415 0,-7.250462 1.18798,-7.40125 17.43891,-2.213497 15.34707,4.899225 14.53241,4.972935 14.53241,-1.314877 0,-3.856979 1.93767,-5.2595175 7.26622,-5.2595175 6.25155,0 7.27207,1.1934965 7.30808,8.5467125 0.0348,7.518231 1.78583,9.416961 14.53393,15.778542 7.97064,3.977506 15.14535,7.23183 15.94379,7.23183 0.79844,0 1.45175,-7.100344 1.45175,-15.778542 0,-15.0772725 0.32305,-15.7785425 7.26622,-15.7785425 7.18859,0 7.26741,0.24587 7.377,23.0103765 l 0.11074,23.010374 14.09248,13.665757 c 7.7508,7.516168 14.89453,12.940042 15.87485,12.053051 0.98038,-0.886983 1.78248,-17.391244 1.78248,-36.67613 0,-33.310255 0.29079,-35.0634285 5.81295,-35.0634285 3.53896,0 5.87408,1.8003005 5.96921,4.6020765 0.0859,2.531143 0.0218,18.992769 -0.143,36.581399 -0.16436,17.588629 0.79887,32.593412 2.14106,33.343966 1.34223,0.750554 8.60015,-2.104258 16.1287,-6.344023 l 13.68832,-7.708663 V 39.059369 8.8219935 h 7.26619 7.26622 V 42.682793 76.543597 l -23.35737,12.817388 c -25.39421,13.935135 -25.13886,13.400415 -15.92558,33.351455 3.93215,8.51499 5.70804,9.70814 14.44973,9.70814 9.60034,0 9.99938,-0.39962 10.8603,-10.87518 0.64084,-7.79765 2.74436,-11.98146 7.43333,-14.78444 l 6.53959,-3.90921 v 21.3588 21.35881 h -39.23752 c -41.39111,0 -41.13115,-0.0868 -37.40563,12.49135 1.69781,5.73218 2.87646,5.91695 37.7446,5.91695 h 35.99205 l -0.0641,13.80623 c -0.0393,8.0231 -2.47205,18.60809 -5.81299,25.26987 -7.06006,14.07762 -7.07915,13.51906 0.46178,13.51906 5.862,0 6.12572,0.96008 4.69446,17.09277 -0.83401,9.40102 -3.62894,20.00988 -6.2109,23.57527 -6.03029,8.32729 -5.91359,9.29735 1.11861,9.29735 5.00624,0 5.81296,1.75316 5.81296,12.63247 0,24.70548 -6.45249,31.92066 -117.75538,131.67385 -56.68679,50.8045 -104.06368,92.35453 -105.28201,92.33347 -1.21831,-0.0197 -48.92926,-42.32729 -106.02433,-94.01381 z m 119.79485,9.59746 v -57.55217 h -13.07919 -13.07918 v 56.43729 c 0,54.15938 0.24938,56.6475 6.17695,61.64414 5.70418,4.80823 6.70531,4.89358 13.07919,1.11486 l 6.90223,-4.09192 z m -40.69079,-8.9017 c 0,-30.6805 -1.07358,-48.65047 -2.90649,-48.65047 -1.59854,0 -2.90646,-2.99726 -2.90646,-6.66053 v -6.66051 l 32.69797,0.74356 c 26.66526,0.60637 32.73082,1.47135 32.87626,4.6882 0.0981,2.16955 -0.91297,5.2821 -2.24679,6.91676 -1.33381,1.63469 -2.06799,24.45791 -1.63154,50.7183 l 0.79352,47.7461 13.80581,-11.80361 13.80578,-11.80361 v -42.19428 -42.19429 l -10.51086,-10.52661 -10.51091,-10.52657 h -34.07132 c -33.95902,0 -34.10641,0.0276 -44.71232,8.22389 l -10.641,8.22393 v 45.92013 45.92013 l 10.77162,10.28501 c 5.92434,5.65672 11.80998,10.28496 13.07918,10.28496 1.26915,0 2.30755,-21.89272 2.30755,-48.65049 z M 187.69763,382.2085 v -39.4854 l 28.85035,-25.23424 c 27.12764,-23.72741 31.46997,-30.20991 22.35587,-33.37438 -1.96214,-0.68123 -20.82586,13.88982 -41.91931,32.3801 l -38.35178,33.61874 v 24.01515 24.01508 l 11.9961,11.77513 c 6.59788,6.47635 13.13747,11.77518 14.53245,11.77518 1.39494,0 2.53632,-17.76842 2.53632,-39.48536 z m 154.64776,27.11774 11.02187,-9.73785 v -24.10391 -24.10394 l -38.42994,-34.36906 c -29.13441,-26.05581 -39.32832,-33.69452 -42.14405,-31.58015 -2.04275,1.53391 -3.71409,3.75879 -3.71409,4.94416 0,1.18536 12.55675,13.26099 27.9039,26.83473 l 27.90383,24.67957 -0.10071,38.58718 c -0.0711,27.22026 0.87718,38.58712 3.21826,38.58712 1.82533,0 8.2786,-4.38202 14.34062,-9.73785 z m -196.304,-129.0035 -0.48781,-101.88142 H 132.4744 119.39523 l -0.76497,91.90662 -0.76491,91.90666 12.14572,11.19729 c 6.68015,6.15852 13.12953,10.64719 14.33195,9.9748 1.20241,-0.6724 1.96672,-47.06913 1.69837,-103.10395 z m 247.3265,-9.76238 -0.76308,-92.11904 h -13.07918 -13.07919 l -0.7623,99.92248 c -0.4194,54.95737 -0.0463,101.61093 0.82905,103.67457 1.15764,2.7294 5.13811,0.60258 14.60456,-7.80348 L 394.13097,362.6794 Z M 82.570188,298.9602 c -21.9766,-20.01776 -34.383831,-25.02745 -34.383831,-13.88311 0,9.7491 9.000946,21.92918 31.544658,42.68629 l 22.225305,20.46394 0.88651,-14.99696 0.8865,-14.99695 z m 375.515652,0.27731 c 14.16553,-26.44227 0.74355,-26.70282 -28.355,-0.55044 l -21.14039,18.9999 v 15.77854 15.77854 l 21.88382,-19.65734 c 12.03607,-10.81154 24.46127,-24.4687 27.61157,-30.3492 z m -104.71858,20.34611 c 0,-5.50331 -6.26881,-12.77691 -27.49654,-31.90366 -27.31534,-24.61192 -27.53638,-24.74249 -33.54443,-19.82297 l -6.0479,4.95217 31.16272,28.28335 c 17.13947,15.55587 32.23442,27.68409 33.54439,26.95157 1.30996,-0.73252 2.38176,-4.53973 2.38176,-8.46046 z M 193.41083,301.18758 c 25.08897,-21.69195 29.55891,-26.75268 27.87361,-31.55709 -1.10397,-3.14711 -3.52942,-5.72205 -5.38984,-5.72205 -1.86047,0 -15.50546,10.92297 -30.32225,24.27332 -21.04027,18.95788 -26.93959,25.86833 -26.93959,31.55709 0,4.00605 1.10188,7.28377 2.44864,7.28377 1.34672,0 15.895,-11.62575 32.32943,-25.83504 z m 78.57485,13.14463 c 0,-1.1942 -3.19713,-4.8889 -7.10466,-8.21032 l -7.10465,-6.03901 -8.7202,6.23805 c -4.79613,3.43093 -8.79256,7.12555 -8.88103,8.21032 -0.0885,1.08478 7.03277,1.97232 15.82485,1.97232 8.79213,0 15.98569,-0.97708 15.98569,-2.17136 z M 103.40957,288.89112 c 0,-8.8589 -0.40297,-9.20413 -10.742865,-9.20413 H 81.923871 l 9.859758,9.20413 c 5.422859,5.06231 10.257151,9.20418 10.742851,9.20418 0.48571,0 0.88309,-4.14187 0.88309,-9.20418 z m 324.08792,-9.18236 c -0.66673,-0.97602 -5.19352,-1.24591 -10.05959,-0.5997 -7.97097,1.0585 -8.84745,2.10825 -8.84745,10.59644 v 9.42152 l 10.05963,-8.82183 c 5.53275,-4.85201 9.51409,-9.62041 8.84741,-10.59643 z m -258.7138,-6.25718 c -6.16173,-8.50866 -10.15093,-6.68623 -10.15093,4.63743 0,11.2907 2.78404,13.39658 9.58077,7.24697 5.27845,-4.77588 5.30574,-5.34506 0.57016,-11.8844 z m 184.58357,6.6737 c 0,-12.4944 -2.35316,-14.85534 -9.21023,-9.24059 -6.57329,5.38238 -6.67792,8.3476 -0.51201,14.51219 7.22917,7.2276 9.72224,5.87585 9.72224,-5.2716 z m -79.96563,-13.55283 14.27658,-13.11449 -7.84629,-7.40999 c -7.10417,-6.7092 -7.84019,-9.26177 -7.78242,-26.98933 0.0807,-24.77258 6.57373,-38.69977 22.11825,-47.44274 10.30047,-5.79348 14.83484,-6.39865 54.11315,-7.22199 23.57884,-0.49425 42.87064,-1.89646 42.87064,-3.11601 0,-1.21955 -1.27554,-5.25288 -2.83453,-8.96295 l -2.83456,-6.74559 H 255.99999 126.51758 l -2.83456,6.74559 c -1.559,3.71007 -2.83456,7.7434 -2.83456,8.96295 0,1.21955 19.39114,2.62176 43.0914,3.11601 40.97236,0.85445 43.66559,1.24271 54.76894,7.89578 16.12302,9.66084 21.30556,20.81412 21.30556,45.85151 0,18.75596 -0.67886,21.14522 -7.99286,28.13204 l -7.99283,7.63527 15.81261,12.88926 c 8.69686,7.08906 16.59355,12.88922 17.54816,12.88922 0.95456,0 8.16006,-5.90153 16.01219,-13.11454 z m -79.15548,-21.62051 -9.32537,-8.43746 -8.8066,7.63398 -8.80665,7.63398 9.36146,8.73894 9.36148,8.73899 8.77051,-7.93547 8.7705,-7.93549 z m 158.47609,-33.61255 -0.80825,-32.89807 -18.16088,-0.78282 c -28.29619,-1.21968 -47.23503,10.11303 -47.23503,28.26467 0,4.98448 1.74991,5.39011 23.25191,5.39011 21.31418,0 23.25187,0.43833 23.25187,5.25954 0,4.82121 -1.93769,5.2595 -23.25187,5.2595 -22.09771,0 -23.25191,0.29032 -23.25191,5.85096 0,3.7009 7.17673,12.39456 19.53002,23.65795 l 19.53,17.80699 13.97619,-12.45534 13.9762,-12.45539 z M 98.468861,264.8724 c 3.475839,-3.14491 -36.622605,-35.15082 -44.038501,-35.15082 -6.41653,0 -6.862331,0.79323 -5.309944,9.44864 0.932047,5.19674 5.093497,13.48047 9.247676,18.4083 6.912465,8.19988 8.855041,8.95969 22.906328,8.95969 8.444355,0 16.181851,-0.74964 17.194441,-1.66581 z m 355.163029,-7.29388 c 4.15422,-4.92783 8.31566,-13.21156 9.24768,-18.4083 1.61982,-9.03144 1.32126,-9.44864 -6.76246,-9.44864 -6.52381,0 -12.60905,3.79041 -26.62025,16.58129 -9.98975,9.11968 -17.25454,17.40342 -16.1439,18.40831 1.1106,1.00486 8.92829,1.82703 17.37264,1.82703 14.05125,0 15.99386,-0.75981 22.90629,-8.95969 z M 103.40957,237.61086 c 0,-7.05158 -0.94685,-7.88928 -8.91736,-7.88928 h -8.917386 l 6.208805,7.88928 c 3.414826,4.3391 7.427667,7.88927 8.917351,7.88927 1.48972,0 2.70859,-3.55017 2.70859,-7.88927 z m 316.30127,-0.14556 6.76067,-7.74379 h -8.94053 c -7.99627,-8e-5 -8.94053,0.83319 -8.94053,7.8892 0,9.79251 2.47231,9.76017 11.12039,-0.14557 z m -198.88434,0.44109 c 3.74186,-3.74101 4.74786,-8.69433 4.08357,-20.10679 l -0.8814,-15.14274 -14.53241,11.97977 -14.53246,11.97982 8.53661,8.12697 c 10.01613,9.53557 10.80773,9.68006 17.32609,3.16313 z m -51.8662,-15.91933 c -6.53815,-6.53681 -10.32754,-4.76764 -10.32754,4.82154 0,10.10473 3.02627,11.8625 9.82792,5.70848 5.61001,-5.07588 5.62562,-5.40522 0.49962,-10.5301 z M 103.40957,196.84964 V 177.12645 H 75.797962 48.186357 l 0.01177,7.23182 c 0.0088,6.74206 7.142712,19.93328 15.339523,28.36936 2.285574,2.35226 9.984647,3.68062 21.707286,3.74515 l 18.164634,0.10019 z m 98.09383,6.96828 c 8.39247,-6.99739 15.25905,-14.15087 15.25905,-15.89657 0,-5.80386 -19.90146,-11.07402 -38.73553,-10.25767 -17.08873,0.7407 -17.984,1.11552 -18.84797,7.89111 -0.68168,5.34614 2.11826,10.08305 11.2695,19.06574 6.69707,6.57377 12.9909,11.94499 13.98622,11.93611 0.99533,-0.008 8.67625,-5.74133 17.06873,-12.73872 z m 248.00629,6.83795 c 7.36938,-6.95684 14.30395,-20.62114 14.30395,-28.18544 0,-4.99712 -1.79219,-5.34398 -27.61157,-5.34398 h -27.61162 v 19.72319 19.72318 h 17.32568 c 14.1726,0 18.46635,-1.07685 23.59356,-5.91695 z m -218.22546,-80.2076 c -0.0131,-2.11922 -62.51833,-37.474047 -66.25362,-37.474047 -5.43796,0 -33.5589,35.032787 -30.40882,37.882967 2.54691,2.3044 96.67495,1.9062 96.66244,-0.40892 z m 146.18901,0.32293 c 4.26677,-3.86056 -27.9019,-38.739855 -34.30072,-37.190989 -5.79334,1.402317 -65.16819,34.940529 -65.26987,36.868039 -0.12512,2.37023 96.95985,2.68512 99.57059,0.32294 z M 248.73382,91.428195 v -30.47336 l -12.3526,1.846121 c -16.73918,2.501711 -35.06581,8.249263 -47.54401,14.910604 l -10.34872,5.524566 22.77007,12.992662 c 12.52357,7.145962 27.34782,15.774542 32.9428,19.174632 5.59501,3.40009 11.15366,6.25311 12.35259,6.34006 1.19893,0.087 2.17987,-13.55494 2.17987,-30.315285 z m 49.39805,11.130655 c 16.63746,-9.192135 30.69004,-17.90759 31.22794,-19.367677 1.90433,-5.169039 -46.39159,-21.774035 -63.33018,-21.774035 -1.57944,0 -2.7634,12.393975 -2.7634,28.927327 0,15.910025 1.03853,28.927325 2.30782,28.927325 1.26933,0 15.92032,-7.52084 32.55782,-16.71294 z"
       id="path1007" />
  </g>
</svg>
