<?xml version="1.0" encoding="UTF-8" standalone="no"?>
<!-- Created with Inkscape (http://www.inkscape.org/) -->

<svg
   version="1.1"
   id="svg254"
   width="512"
   height="512"
   viewBox="0 0 512 512"
   sodipodi:docname="offensivenim.svg"
   inkscape:version="1.2.2 (b0a8486541, 2022-12-01)"
   inkscape:export-filename="../GIT Icons/offensivenim.png"
   inkscape:export-xdpi="96"
   inkscape:export-ydpi="96"
   xmlns:inkscape="http://www.inkscape.org/namespaces/inkscape"
   xmlns:sodipodi="http://sodipodi.sourceforge.net/DTD/sodipodi-0.dtd"
   xmlns="http://www.w3.org/2000/svg"
   xmlns:svg="http://www.w3.org/2000/svg">
  <defs
     id="defs258" />
  <sodipodi:namedview
     id="namedview256"
     pagecolor="#505050"
     bordercolor="#eeeeee"
     borderopacity="1"
     inkscape:showpageshadow="0"
     inkscape:pageopacity="0"
     inkscape:pagecheckerboard="0"
     inkscape:deskcolor="#505050"
     showgrid="false"
     inkscape:zoom="0.63114805"
     inkscape:cx="224.98683"
     inkscape:cy="259.84395"
     inkscape:window-width="1366"
     inkscape:window-height="705"
     inkscape:window-x="0"
     inkscape:window-y="0"
     inkscape:window-maximized="1"
     inkscape:current-layer="g260" />
  <g
     inkscape:groupmode="layer"
     inkscape:label="Image"
     id="g260">
    <path
       id="path4919-3"
       style="fill:#ffffff;fill-opacity:1;stroke-width:7.56469"
       d="M 253.61657,6.0097796 C 204.66,6.4472152 155.89857,21.615655 115.47043,49.259036 84.034856,70.607775 57.540405,99.210496 38.778831,132.26277 20.309,164.65867 9.1827075,201.22757 6.6202839,238.4371 c -2.5552553,36.0241 2.8064942,72.59515 15.6732081,106.34448 12.796907,33.69976 32.958308,64.59309 58.750991,89.78636 25.285747,24.78791 55.893397,44.13117 89.173307,56.24128 32.5291,11.88644 67.54237,16.94059 102.1039,14.65508 33.45604,-2.17532 66.45729,-11.16255 96.3717,-26.30626 30.34439,-15.30759 57.51332,-36.87787 79.26406,-62.99571 21.0593,-25.21288 37.06905,-54.62329 46.78975,-86.00451 9.34298,-30.03206 12.95824,-61.84096 10.50729,-93.20094 -2.63373,-34.44835 -12.45753,-68.34493 -28.7923,-98.79696 C 459.92047,107.20984 436.80843,79.776949 409.02152,58.330722 381.16517,36.772835 348.72396,21.142397 314.45648,12.955169 294.56092,8.1686826 274.07928,5.8284772 253.61657,6.0097796 Z" />
    <path
       style="fill:#000000;fill-opacity:1;stroke-width:7.56469"
       id="path4919"
       sodipodi:type="arc"
       sodipodi:cx="255.99013"
       sodipodi:cy="256.00156"
       sodipodi:rx="229.81468"
       sodipodi:ry="229.80156"
       sodipodi:start="4.7101026"
       sodipodi:end="4.7087761"
       sodipodi:open="true"
       sodipodi:arc-type="arc"
       d="M 255.46468,26.200598 A 229.81468,229.80156 0 0 1 485.80402,255.39994 229.81468,229.80156 0 0 1 256.66799,485.80212 229.81468,229.80156 0 0 1 26.176683,256.75559 229.81468,229.80156 0 0 1 255.15984,26.201497" />
    <path
       style="fill:#ae0000;fill-opacity:0.55465198;stroke-width:4.39866"
       id="path5057"
       sodipodi:type="arc"
       sodipodi:cx="256"
       sodipodi:cy="394.30777"
       sodipodi:rx="124.23576"
       sodipodi:ry="25.846334"
       sodipodi:start="4.7101026"
       sodipodi:end="4.7087761"
       sodipodi:open="true"
       sodipodi:arc-type="arc"
       d="M 255.71595,368.4615 A 124.23576,25.846334 0 0 1 380.23534,394.2401 124.23576,25.846334 0 0 1 256.36645,420.15399 124.23576,25.846334 0 0 1 131.76491,394.39258 124.23576,25.846334 0 0 1 255.55115,368.4616" />
    <path
       style="fill:#ff0000;fill-opacity:1;stroke-width:4.45225"
       d="m 241.64215,384.85568 c -1.78904,-0.19351 -8.89871,-0.91176 -15.79928,-1.59612 -6.90056,-0.68437 -15.6831,-1.99975 -19.51675,-2.92307 -3.83364,-0.92332 -9.89778,-2.37473 -13.47586,-3.22536 -16.82261,-3.99931 -46.79409,-17.08981 -58.79678,-25.6804 -13.47708,-9.64581 -23.92173,-18.89387 -32.44106,-28.72439 -2.547593,-2.93969 -7.520932,-13.28068 -12.397357,-25.77766 -0.9022,-2.3121 -3.088856,-7.35291 -4.859238,-11.20182 -1.77038,-3.84889 -4.906073,-10.91863 -6.968203,-15.71051 -2.062133,-4.79188 -5.888106,-13.60572 -8.502166,-19.58631 -4.935573,-11.29188 -5.379324,-12.77447 -3.823463,-12.77447 0.511152,0 0.929369,0.37009 0.929369,0.82242 0,1.54452 17.307419,18.14441 26.556566,25.47092 10.890952,8.62705 12.088692,9.4523 23.678472,16.3147 13.42227,7.94743 21.73656,10.61139 49.78896,15.95273 l 6.6224,1.26094 10.10625,-4.9193 c 9.51894,-4.63341 15.50846,-7.52246 28.69364,-13.84032 3.06692,-1.46956 13.10411,-6.32248 22.30486,-10.78426 9.20076,-4.46178 17.89191,-8.65205 19.31366,-9.31171 2.32552,-1.07899 2.9319,-1.03912 6.04089,0.39727 5.0695,2.34216 12.96917,6.17971 20.26777,9.84583 10.90037,5.47529 11.78232,5.91454 19.43353,9.67874 4.08923,2.01179 10.9898,5.44198 15.33459,7.62263 4.3448,2.18066 11.03626,5.45385 14.86991,7.27376 3.83365,1.8199 7.49616,3.68984 8.13891,4.1554 0.79883,0.57861 3.00459,0.52888 6.97028,-0.15713 9.52351,-1.64745 27.68251,-5.88653 32.54204,-7.59668 4.95148,-1.74252 24.35465,-12.02139 28.94584,-15.33412 1.5752,-1.13657 7.46438,-5.36282 13.08707,-9.39167 9.68978,-6.94306 17.96755,-14.12855 25.89901,-22.48157 2.1874,-2.30368 3.37064,-3.09826 3.08901,-2.07441 -0.81431,2.96052 -7.28518,17.62145 -14.70755,33.32271 -1.97599,4.18001 -3.59273,7.96068 -3.59273,8.40148 0,0.44081 -1.50485,3.74188 -3.34413,7.33572 -1.83927,3.59384 -4.30262,8.77462 -5.47414,11.51284 -8.9659,20.95623 -11.08446,23.9503 -26.15389,36.96212 -12.99331,11.21919 -21.94227,17.12167 -38.38163,25.31545 -10.19152,5.07972 -27.26085,11.43889 -36.77646,13.70107 -3.57808,0.85063 -9.64221,2.31438 -13.47586,3.25279 -3.83364,0.9384 -12.19797,2.26706 -18.58738,2.95259 -11.68852,1.25406 -39.48799,2.19364 -45.5391,1.53917 z"
       id="path458" />
    <path
       style="fill:#ae0000;fill-opacity:1;stroke-width:4.45225"
       d="m 95.005489,258.8657 c -12.62002,-9.75192 -23.309575,-23.28323 -33.072735,-41.86491 -7.900701,-15.03697 -9.815051,-18.81112 -11.811389,-23.28621 -1.004969,-2.25279 -2.477584,-5.19913 -3.272477,-6.54739 -0.794893,-1.34827 -1.327207,-2.5568 -1.182921,-2.68563 0.236136,-0.21083 4.989836,1.51612 19.923596,7.23793 l 4.921363,1.88559 2.978276,-2.50117 c 4.07723,-3.42408 15.436882,-10.7745 24.107462,-15.59909 8.063596,-4.48685 9.776256,-6.65386 23.274436,-29.44883 2.02681,-3.42277 3.74752,-6.29327 3.8238,-6.37888 0.0763,-0.0856 1.44401,0.84786 3.03941,2.07441 5.16297,3.96928 17.02874,12.10549 22.33666,15.31597 5.56534,3.36617 7.25703,3.46985 15.36487,0.94172 10.37104,-3.23382 41.15278,-6.97463 57.39166,-6.97463 1.57778,0 3.865,-0.97169 5.73461,-2.43628 1.71052,-1.33996 8.94092,-6.76277 16.06754,-12.05069 l 12.95751,-9.61441 4.63367,3.9605 c 2.54851,2.17827 5.29106,4.57243 6.09456,5.32036 0.80348,0.74792 5.43395,4.51551 10.2899,8.37241 l 8.829,7.01255 15.3346,0.54187 c 15.41332,0.54467 20.42912,1.14454 43.85208,5.2446 l 12.71823,2.22624 3.36313,-2.42161 c 1.84973,-1.33188 4.69996,-3.28206 6.33386,-4.33373 1.63389,-1.05167 3.80995,-2.54524 4.83569,-3.31905 5.21529,-3.93438 14.44997,-10.11945 15.10893,-10.11945 0.41242,0 2.08779,2.33371 3.72306,5.18602 1.63526,2.85231 5.268,8.91996 8.07274,13.48366 2.80475,4.5637 5.78413,9.69786 6.62087,11.40925 0.83673,1.7114 2.02797,3.11161 2.64718,3.11161 0.61922,0 2.76945,1.22139 4.77828,2.7142 2.00884,1.4928 6.13287,4.3866 9.16451,6.43067 3.03165,2.04405 7.69067,5.49009 10.35337,7.65785 2.6627,2.16775 5.47073,3.94138 6.24006,3.94138 0.76932,0 4.47463,-1.17592 8.23401,-2.61317 7.82188,-2.99034 17.52299,-5.77388 17.52299,-5.02785 0,0.27747 -1.29209,3.69713 -2.87132,7.59925 -14.15146,34.96696 -25.56077,52.165 -42.11821,63.48777 -6.35369,4.34497 -8.91389,5.46757 -8.91389,3.90862 0,-0.37729 -3.35076,-3.73854 -7.44614,-7.46942 -16.57705,-15.1017 -42.63726,-26.39675 -78.52052,-34.03247 -14.06249,-2.99241 -18.9012,-3.69334 -39.03351,-5.65437 -17.23197,-1.67851 -53.60124,-1.8864 -66.91458,-0.38248 -4.60038,0.51967 -12.47017,1.33095 -17.48842,1.80281 -5.01826,0.47187 -14.0099,1.98823 -19.98144,3.36969 -5.97155,1.38147 -13.15753,3.02857 -15.96887,3.66022 -11.05338,2.48351 -33.77976,11.9424 -43.58354,18.13981 -6.31732,3.99344 -15.66114,12.04073 -20.10677,17.31678 l -4.025211,4.77708 z"
       id="path456" />
  </g>
</svg>
