<?xml version="1.0" encoding="UTF-8" standalone="no"?>
<svg
   inkscape:version="1.2.2 (b0a8486541, 2022-12-01)"
   sodipodi:docname="onelin3r.svg"
   viewBox="0 0 512 512"
   height="512"
   width="512"
   id="svg62"
   version="1.1"
   inkscape:export-filename="../GIT Icons/onelin3r.png"
   inkscape:export-xdpi="96"
   inkscape:export-ydpi="96"
   xmlns:inkscape="http://www.inkscape.org/namespaces/inkscape"
   xmlns:sodipodi="http://sodipodi.sourceforge.net/DTD/sodipodi-0.dtd"
   xmlns="http://www.w3.org/2000/svg"
   xmlns:svg="http://www.w3.org/2000/svg"
   xmlns:rdf="http://www.w3.org/1999/02/22-rdf-syntax-ns#"
   xmlns:cc="http://creativecommons.org/ns#"
   xmlns:dc="http://purl.org/dc/elements/1.1/">
  <metadata
     id="metadata68">
    <rdf:RDF>
      <cc:Work
         rdf:about="">
        <dc:format>image/svg+xml</dc:format>
        <dc:type
           rdf:resource="http://purl.org/dc/dcmitype/StillImage" />
      </cc:Work>
    </rdf:RDF>
  </metadata>
  <defs
     id="defs66" />
  <sodipodi:namedview
     inkscape:current-layer="g70"
     inkscape:window-maximized="1"
     inkscape:window-y="0"
     inkscape:window-x="0"
     inkscape:cy="255.30217"
     inkscape:cx="233.66639"
     inkscape:zoom="0.6932961"
     showgrid="false"
     id="namedview64"
     inkscape:window-height="705"
     inkscape:window-width="1366"
     inkscape:pageshadow="2"
     inkscape:pageopacity="0"
     guidetolerance="10"
     gridtolerance="10"
     objecttolerance="10"
     borderopacity="1"
     bordercolor="#666666"
     pagecolor="#777777"
     inkscape:pagecheckerboard="0"
     inkscape:showpageshadow="0"
     inkscape:deskcolor="#777777" />
  <g
     id="g70"
     inkscape:label="Image"
     inkscape:groupmode="layer">
    <path
       inkscape:connector-curvature="0"
       id="path74"
       d="m 60.727717,492.46841 c 4.85768,-5.775 39.808373,-46.95 77.668223,-91.5 37.85984,-44.55 68.71582,-81.13189 68.56885,-81.29308 -0.14697,-0.1612 -21.84477,1.99569 -48.21734,4.79308 -26.37256,2.79739 -48.06969,4.95428 -48.21582,4.79308 -0.14613,-0.16119 36.99613,-28.41808 82.53833,-62.79308 45.54221,-34.375 82.84031,-62.8375 82.88463,-63.25 0.0444,-0.4125 -2.25598,-0.75015 -5.11182,-0.75033 -6.82072,-4.4e-4 -99.03082,-3.97305 -99.40922,-4.28277 -0.27319,-0.22361 279.22264,-183.50958 284.6641,-186.675171 2.20463,-1.282556 2.14601,-1.041559 -0.48645,2 -1.64622,1.902054 -27.51885,31.628577 -57.49472,66.058943 l -54.50159,62.600658 18.32866,0.64933 c 10.08078,0.35714 34.73486,0.64934 54.78685,0.64934 22.83693,0 36.45817,0.36382 36.45817,0.9738 0,0.53558 -32.84973,24.88259 -72.9994,54.10446 -40.14968,29.22187 -73.18267,53.53366 -73.40666,54.0262 -0.22856,0.5026 8.88461,0.95425 20.76971,1.02935 11.64732,0.0736 36.17826,0.4111 54.51318,0.75 l 33.33624,0.61619 -178.64777,122 c -98.25626,67.1 -180.045115,122.9 -181.75302,124 -1.907991,1.22887 0.300097,-2.04844 5.726867,-8.5 z"
       style="fill:#ffff00;fill-opacity:1;stroke-width:1.10533" />
  </g>
</svg>
