<?xml version="1.0" encoding="UTF-8" standalone="no"?>
<!-- Generator: Adobe Illustrator 19.0.0, SVG Export Plug-In . SVG Version: 6.00 Build 0)  -->

<svg
   version="1.1"
   id="Layer_1"
   x="0px"
   y="0px"
   viewBox="0 0 512 512"
   style="enable-background:new 0 0 512 512;"
   xml:space="preserve"
   sodipodi:docname="owl.svg"
   inkscape:version="1.2.2 (b0a8486541, 2022-12-01)"
   xmlns:inkscape="http://www.inkscape.org/namespaces/inkscape"
   xmlns:sodipodi="http://sodipodi.sourceforge.net/DTD/sodipodi-0.dtd"
   xmlns="http://www.w3.org/2000/svg"
   xmlns:svg="http://www.w3.org/2000/svg"
   xmlns:rdf="http://www.w3.org/1999/02/22-rdf-syntax-ns#"
   xmlns:cc="http://creativecommons.org/ns#"
   xmlns:dc="http://purl.org/dc/elements/1.1/"><defs
   id="defs902">
	
	
	
	
	
	
	
</defs><sodipodi:namedview
   id="namedview900"
   pagecolor="#505050"
   bordercolor="#eeeeee"
   borderopacity="1"
   inkscape:pageshadow="0"
   inkscape:pageopacity="0"
   inkscape:pagecheckerboard="0"
   showgrid="false"
   inkscape:zoom="0.61733737"
   inkscape:cx="289.14498"
   inkscape:cy="297.24428"
   inkscape:window-width="1366"
   inkscape:window-height="695"
   inkscape:window-x="0"
   inkscape:window-y="24"
   inkscape:window-maximized="1"
   inkscape:current-layer="Layer_1"
   inkscape:showpageshadow="0"
   inkscape:deskcolor="#505050" />
<style
   type="text/css"
   id="style880">
	.st0{fill:#EC6500;}
	.st1{fill:#212121;}
</style>
<title
   id="owl">OWL</title>
<g
   id="g471"
   transform="matrix(0.91140661,0,0,0.90671359,22.697527,23.919981)"><path
     id="path883-6"
     style="fill:#ffffff;stroke-width:0.916314"
     class="st0"
     d="m 254.7207,-16.339844 c -19.42004,0.437737 -38.87687,1.921439 -57.95013,5.731226 -40.05784,7.5526105 -78.60928,22.756363 -113.242003,44.225798 -6.804603,4.203947 -13.523682,8.575958 -19.876854,13.440065 -8.792934,7.451955 -13.25666,19.52472 -11.731379,30.915565 0.714948,6.032452 3.072684,11.798464 6.46519,16.812851 3.352211,5.755129 6.111448,12.055479 11.052986,16.685079 2.420895,2.3036 5.189896,4.23042 8.151334,5.7734 -0.509108,8.03694 1.807621,16.19347 6.370305,22.81924 3.775567,6.45607 7.096844,13.7286 13.007468,18.69804 1.767517,1.51394 3.695793,2.8392 5.735503,3.95928 -0.20324,7.61247 2.13474,15.22746 6.41285,21.51202 1.03586,1.8148 2.03729,3.64887 3.07153,5.46455 -19.483561,0.0372 -38.96979,-0.0835 -58.451172,0.20507 -14.98891,1.48471 -28.439293,12.38494 -33.389079,26.54982 -4.180333,11.7873 -2.277854,25.45698 4.749669,35.77203 2.291659,3.47866 5.263488,6.42193 8.233487,9.31396 4.852515,4.87257 9.663597,9.78611 14.486001,14.68841 -14.600109,30.58472 -22.188803,64.37146 -22.920458,98.21518 -0.356369,21.80509 3.528932,43.78762 12.259368,63.82128 11.305207,26.26926 30.347217,49.13214 54.11341,65.03483 18.649494,12.53178 40.219774,20.76716 62.543144,23.48633 3.97901,0.48096 7.91827,1.37971 11.94204,1.39355 4.16218,0.0616 8.32473,-0.071 12.48711,0.005 55.58439,0.0343 111.16926,0.13633 166.75339,0.0367 21.68556,-0.91757 43.2157,-6.46184 62.45511,-16.5583 18.02515,-9.40258 33.98393,-22.66032 46.72045,-38.49174 15.9158,-19.68437 26.80377,-43.45321 30.99518,-68.4366 3.04891,-17.79801 2.74235,-36.01613 0.7293,-53.91039 -2.98718,-25.89029 -10.35769,-51.24625 -21.50773,-74.79341 7.05936,-7.28569 14.32688,-14.38128 21.07657,-21.95842 7.0133,-8.78943 9.66658,-20.69808 7.73202,-31.70955 -1.70227,-9.76372 -7.27314,-18.77627 -15.23019,-24.68133 -7.67364,-5.77365 -17.41678,-8.79413 -27.01668,-8.13709 -16.24128,-0.005 -32.48255,-0.009 -48.72383,-0.0136 3.12794,-5.4613 6.61986,-11.00136 7.9533,-17.2756 0.59008,-2.60164 0.81876,-5.27629 0.78498,-7.9412 5.99119,-3.47516 10.77972,-8.82502 13.9337,-14.96253 2.44528,-4.38473 4.99429,-8.71268 7.412,-13.11169 2.33296,-4.53515 3.6095,-9.62372 3.50337,-14.73281 0.025,-1.33388 -0.13274,-2.72132 -0.2104,-4.01328 7.1547,-3.37346 13.06758,-9.25224 16.53623,-16.35629 3.05902,-5.514248 6.48107,-10.891039 8.62393,-16.852697 2.31813,-6.78737 2.46199,-14.300025 0.30449,-21.148013 -2.68,-8.835793 -8.89209,-16.489869 -16.89233,-21.07063 C 430.59706,32.988181 416.53873,24.603634 401.85949,17.429004 370.31009,1.8514473 336.27008,-8.7703732 301.37146,-13.394085 c -15.45397,-2.086153 -31.05751,-3.048336 -46.65076,-2.945759 z" /><g
     id="g897"
     transform="matrix(0.90214648,0,0,0.93070363,24.947432,17.647121)">
	<path
   class="st0"
   d="m 257.7,0 c 49.2,-0.1 97.8,10.7 142.1,31.9 16.2,7.6 31.8,16.5 46.6,26.5 1.2,0.7 1.3,1.3 0.6,2.5 -2.4,4.2 -4.8,8.4 -7.2,12.5 -0.6,1.1 -1,1.3 -2.2,0.5 C 416,59.2 392.7,47 368.2,37.7 345.7,29.2 322.4,23.3 298.5,20.2 283.3,18.2 268.1,17.3 252.7,17.6 207.3,18.3 162.6,28.8 121.6,48.5 106.1,55.9 91.3,64.4 77.1,74.2 76,74.9 75.5,74.9 74.9,73.7 72.6,69.5 70.2,65.3 67.7,61.3 66.9,60 67.1,59.4 68.3,58.6 82.1,49.3 96.5,41.1 111.3,33.8 137.6,21 165.6,11.6 194.3,6.1 211.7,2.6 229.5,0.7 247.2,0.3 250.9,0 254.2,0 257.7,0 Z"
   id="path883" />
	<path
   class="st0"
   d="m 417.7,111.3 -0.5,0.8 c -2.5,4.4 -5.2,8.7 -7.6,13.1 -0.7,1.2 -1.1,1.1 -2.1,0.4 -24.9,-18.5 -52.8,-32.4 -82.6,-41.1 -31.5,-9.2 -64.6,-11.9 -97.3,-8.4 -28.2,3.2 -55.5,11.1 -81,23.4 -14.3,6.8 -27.8,14.8 -40.6,24.1 -1,0.7 -1.4,0.8 -2.2,-0.4 -2.4,-4.4 -5,-8.7 -7.6,-13 -0.5,-1 -0.4,-1.3 0.5,-1.9 29.2,-21 62.5,-36.1 97.6,-44.3 52.7,-12.3 108,-8.5 158.4,11.2 22.7,8.8 44.1,20.5 63.8,34.9 0.5,0.2 1.1,0.4 1.2,1.2 z"
   id="path885" />
	<path
   class="st0"
   d="m 256.1,112.5 c 44,0.2 84.2,12.5 121.1,36.1 4.1,2.6 8.1,5.5 12.1,8.2 1.2,0.8 1.1,1.4 0.5,2.5 -2.5,4.2 -5,8.4 -7.4,12.5 -0.7,1.3 -1.1,1.2 -2.2,0.5 -22.8,-17.2 -49.1,-29.6 -76.8,-36.4 -13.9,-3.3 -28.2,-5.3 -42.5,-5.5 -46.5,-1 -88.3,12.9 -126,39.8 -2.4,1.8 -2.4,1.8 -3.9,-0.8 -2.3,-3.8 -4.5,-7.8 -6.8,-11.6 -0.6,-1 -0.6,-1.4 0.5,-2.1 18.4,-13.3 38.7,-23.8 60.2,-31 16.1,-5.5 32.6,-9.1 49.5,-10.7 7,-1.1 14.3,-1.4 21.7,-1.5 z"
   id="path887" />
	<path
   class="st1"
   d="m 156.8,512 c -1.3,-0.7 -2.9,-0.5 -4.2,-0.6 -30,-2.7 -55.7,-14.6 -77.3,-35.2 C 57.1,458.7 44.7,436.1 39.9,411.4 37.7,399.6 37,387.4 38,375.5 c 1.1,-19.3 4.7,-38.6 11,-56.9 5.4,-16.1 12.8,-31.5 22,-45.8 0.6,-0.6 0.6,-1.7 -0.1,-2.3 -0.1,0 -0.1,-0.1 -0.2,-0.1 -12.8,-12.5 -25.6,-25.2 -38.4,-37.8 -2.7,-2.4 -2.9,-6.4 -0.5,-9.1 0.2,-0.2 0.5,-0.6 0.8,-0.7 1.3,-1 2.9,-1.6 4.6,-1.4 h 65.7 c 4.1,0 8.1,0 12.2,0 1,0 1.9,-0.2 2.7,-1 80.6,-65.3 196.7,-65.3 277.2,0.1 0.7,0.6 1.7,0.8 2.5,0.7 25.9,0 51.7,0 77.7,0 3.7,-0.1 6.8,2.7 6.9,6.4 0,0.8 -0.1,1.6 -0.4,2.4 -0.5,1.1 -1.2,2 -2.1,2.9 -12.6,12.4 -25.1,24.8 -37.7,37.1 -1.1,1.1 -1.1,1.7 -0.2,3 15,23.5 25.1,49.7 30,77 2.7,14.3 3.7,29 3.1,43.6 -1.2,29.1 -12.9,56.9 -33.1,78.3 -19.6,21 -43.9,33.8 -72.4,38.6 -5.7,1 -11.5,1.4 -17.2,1.6 -0.5,0 -0.8,0.1 -1.3,0.1 z M 257,381.8 c -0.5,-1.7 -0.7,-3.5 -0.8,-5.3 C 252.6,354.4 242.8,335.3 226,320 199.7,296.1 168.6,288 133.9,296.1 83.5,308 51.1,356.9 59.7,407.4 c 7.6,45.5 46.2,79.7 92.8,82.1 7.7,0.4 15.3,0.1 23.1,0 15.5,-0.1 31.1,-0.2 46.5,-0.4 l 47,-0.4 c 15.5,-0.1 31.1,-0.2 46.5,-0.4 13.7,-0.1 27.3,-0.1 40.8,-0.2 5.8,0 11.6,-0.5 17.4,-1.6 21.7,-4.1 40.4,-13.8 55.2,-30.1 22,-23.9 30.2,-52 24.9,-83.8 -3.4,-21 -13.9,-40.2 -29.8,-54.4 -25.4,-23 -55.5,-31.3 -89.2,-24.4 -42.8,9.3 -73.9,44.6 -77.9,88 z"
   id="path889" />
	<path
   class="st1"
   d="m 155.3,352.9 c 21.6,0 39.1,17.4 39.1,38.8 0,21.4 -17.6,38.7 -39.3,38.7 -21.7,0 -39.1,-17.5 -39.1,-38.8 0,-0.1 0,-0.1 0,-0.2 0.1,-21.5 17.7,-38.5 39.3,-38.5 z"
   id="path891" />
	<path
   class="st1"
   d="m 397.7,391.6 c 0,21.4 -17.5,38.7 -39.1,38.7 -21.6,0 -39.1,-17.3 -39.1,-38.7 0,-21.4 17.5,-38.7 39.1,-38.7 v 0 c 21.7,0 39.2,17.3 39.1,38.7 z"
   id="path893" />
	<path
   class="st1"
   d="m 257,475.7 c -0.5,-0.2 -0.7,-0.6 -1,-1 -8.8,-11.6 -17.6,-23.3 -26.5,-34.9 -0.7,-1 -0.6,-1.4 0.1,-2.3 8.7,-8.6 17.3,-17.3 25.9,-26 0.8,-0.8 1.2,-0.8 2.1,0 8.3,8.2 16.8,16.4 25.3,24.5 2.1,2 2.1,2 0.4,4.4 l -25.4,34 c -0.4,0.5 -0.6,1 -0.9,1.3 z"
   id="path895" />
</g></g>
<metadata
   id="metadata984"><rdf:RDF><cc:Work
       rdf:about=""><dc:title>OWL</dc:title></cc:Work></rdf:RDF></metadata></svg>
