<?xml version="1.0" encoding="UTF-8" standalone="no"?>
<svg
   width="512"
   height="512"
   version="1.1"
   viewBox="0 0 135.47 135.47"
   id="svg966"
   sodipodi:docname="patator.svg"
   inkscape:version="1.1.2 (0a00cf5339, 2022-02-04)"
   xmlns:inkscape="http://www.inkscape.org/namespaces/inkscape"
   xmlns:sodipodi="http://sodipodi.sourceforge.net/DTD/sodipodi-0.dtd"
   xmlns="http://www.w3.org/2000/svg"
   xmlns:svg="http://www.w3.org/2000/svg">
  <defs
     id="defs970" />
  <sodipodi:namedview
     id="namedview968"
     pagecolor="#505050"
     bordercolor="#eeeeee"
     borderopacity="1"
     inkscape:pageshadow="0"
     inkscape:pageopacity="0"
     inkscape:pagecheckerboard="0"
     showgrid="false"
     inkscape:zoom="0.87304688"
     inkscape:cx="256"
     inkscape:cy="256"
     inkscape:window-width="1366"
     inkscape:window-height="695"
     inkscape:window-x="0"
     inkscape:window-y="24"
     inkscape:window-maximized="1"
     inkscape:current-layer="svg966" />
  <g
     transform="matrix(1.0787716,0.09543929,-0.09576587,1.0750928,0.29175751,-14.012243)"
     stroke-linecap="round"
     id="g964">
    <rect
       transform="rotate(-36.366)"
       x="37.405998"
       y="93.337997"
       width="3.9122"
       height="14.521"
       rx="1.7053"
       ry="2.3735001"
       fill="#fd3535"
       stroke-width="4.1451"
       id="rect930" />
    <rect
       transform="rotate(-45)"
       x="3.6475999"
       y="86.644997"
       width="77.175003"
       height="9.8514996"
       rx="2.76"
       ry="4.9257002"
       fill="#4c4f5c"
       stroke-width="1.6074"
       id="rect932" />
    <path
       d="m 123.82,10.74 c -0.0847,0.2422 -0.2103,0.45911 -0.38806,0.63688 l -50.668,50.667 c -1.0812,1.0812 -3.505,0.39838 -5.4346,-1.5312 -0.99922,-0.99922 -1.6605,-2.1299 -1.9193,-3.1391 -0.42998,1.2309 0.30717,3.185 1.9193,4.7971 1.9296,1.9296 4.3534,2.6124 5.4346,1.5312 l 50.668,-50.667 c 0.52117,-0.52117 0.62879,-1.3555 0.38806,-2.2949 z"
       opacity="0.3"
       stroke-width="1.6074"
       id="path934" />
    <path
       d="m 117.82,5.5568 c -0.54405,0.00909 -1.0131,0.17434 -1.351,0.51221 l -50.667,50.668 c -0.5213,0.5213 -0.62902,1.3558 -0.38807,2.2955 0.08468,-0.2424 0.21018,-0.45954 0.38807,-0.63742 l 50.667,-50.668 c 1.0812,-1.0812 3.505,-0.39783 5.4346,1.5318 0.99944,0.99945 1.6612,2.1302 1.9198,3.1396 0.43035,-1.2308 -0.3075,-3.1853 -1.9198,-4.7977 -1.3266,-1.3266 -2.8867,-2.064 -4.0836,-2.044 z"
       fill="#ffffff"
       opacity="0.2"
       stroke-width="1.6074"
       id="path936" />
    <path
       d="m 22.435,86.215 c -0.07312,0.07312 -0.13966,0.14891 -0.20158,0.22595 a 4.4631,7.2552 45 0 1 6.6346,-0.60295 4.4631,7.2552 45 0 1 -0.60287,6.6342 c 0.07697,-0.06186 0.15269,-0.12831 0.22573,-0.20135 l 15.479,-15.479 a 4.4631,7.2552 45 0 1 -6.7124,0.6567 4.4631,7.2552 45 0 1 0.65634,-6.7124 z"
       fill="#1b3f7c"
       stroke-width="1.9393"
       id="path938" />
    <path
       d="m 32.627,97.702 a 9.7739,9.7739 0 0 0 1.9194,5.1231 9.7739,9.7739 0 0 0 10.025,3.6699 9.7739,9.7739 0 0 1 -6.3925,-3.8143 9.7739,9.7739 0 0 1 -1.516,-8.7232 z"
       fill="#951212"
       stroke-width="2.4726"
       id="path940" />
    <rect
       transform="rotate(-15)"
       x="-8.9403"
       y="108.56"
       width="17.396"
       height="28.148001"
       rx="4.2605"
       ry="4.2605"
       fill="#b22525"
       stroke-width="1.8198"
       id="rect942" />
    <rect
       transform="rotate(-45)"
       x="-49.970001"
       y="73.651001"
       width="44.390999"
       height="5.5489001"
       rx="1.7149"
       ry="1.7149"
       fill="#2656a8"
       stroke-width="0.91495"
       id="rect944" />
    <path
       d="m 78.508,38.861 c -0.7746,-0.01028 -1.4352,0.20565 -1.902,0.6725 l -64.412,64.412 c -1.4939,1.4939 -0.4174,4.9756 2.4137,7.8067 l 2.8482,2.8482 c 2.8311,2.8311 6.3133,3.9076 7.8072,2.4137 l 8.5807,-8.5806 c 0.15173,0.24571 0.33486,0.48167 0.55269,0.69949 l 5.6607,5.6607 c 0.08106,0.081 0.16486,0.15687 0.25044,0.22885 0.05086,0.0642 0.10502,0.12661 0.16408,0.18566 0.4744,0.4744 1.1272,0.68063 1.8135,0.63959 0.68711,0.0417 1.3402,-0.16469 1.8151,-0.63959 0.05905,-0.0591 0.11375,-0.12138 0.16462,-0.18566 0.08557,-0.072 0.16938,-0.14778 0.25044,-0.22885 l 5.6602,-5.6607 c 1.2349,-1.2349 1.4197,-3.038 0.41451,-4.0431 -1.00519,-1.0051 -2.8083,-0.82037 -4.0431,0.41452 l -4.2606,4.2606 -4.2606,-4.2606 c -0.21781,-0.21782 -0.45434,-0.40097 -0.70003,-0.55269 l 52.349,-52.349 c 1.4939,-1.4939 0.4174,-4.9761 -2.4137,-7.8072 l -2.8482,-2.8482 c -1.9464,-1.9464 -4.2005,-3.0636 -5.9047,-3.0862 z"
       fill="#fd3535"
       stroke-width="2.4726"
       id="path946" />
    <rect
       transform="rotate(-45)"
       x="-51.238998"
       y="88.155998"
       width="73.667999"
       height="5.5489001"
       rx="2.7744"
       ry="2.7744"
       fill="#b22525"
       stroke-width="1.1787"
       id="rect948" />
    <rect
       transform="rotate(-45)"
       x="-49.261002"
       y="85.307999"
       width="23.948"
       height="1.8038"
       rx="0.90192002"
       ry="0.90192002"
       fill="#b22525"
       stroke-width="0.38316"
       id="rect950" />
    <path
       d="m 78.508,38.861 c -0.7746,-0.01028 -1.4352,0.20565 -1.902,0.6725 l -64.412,64.412 c -0.74193,0.74194 -0.8487,1.9746 -0.42261,3.3739 0.10615,-0.22812 0.24581,-0.43364 0.42261,-0.61044 l 64.412,-64.412 c 0.46686,-0.46686 1.1274,-0.68274 1.902,-0.6725 1.7041,0.02263 3.9583,1.1398 5.9047,3.0862 l 2.8482,2.8482 c 1.4251,1.4251 2.4044,3.0149 2.8363,4.4334 0.7908,-1.6995 -0.34026,-4.7007 -2.8363,-7.1968 l -2.8482,-2.8482 c -1.9464,-1.9464 -4.2005,-3.0636 -5.9047,-3.0862 z"
       fill="#ffffff"
       opacity="0.2"
       stroke-width="2.4726"
       id="path952" />
    <path
       d="m 90.097,49.229 c -0.10615,0.22812 -0.24581,0.43363 -0.42261,0.61044 l -52.349,52.349 c 0.2457,0.15171 0.48222,0.33487 0.70003,0.55268 l 0.75508,0.75562 50.893,-50.893 c 0.74193,-0.74193 0.84869,-1.9745 0.42261,-3.3739 z m -78.325,55.327 c -0.7908,1.6994 0.34026,4.7002 2.8363,7.1962 l 2.8482,2.8482 c 2.8311,2.8311 6.3133,3.9076 7.8072,2.4137 l 8.5807,-8.5806 c 0.15173,0.24571 0.33486,0.48167 0.55269,0.69949 l 5.6607,5.6607 c 0.08106,0.081 0.16486,0.15687 0.25044,0.22885 0.05086,0.0642 0.10502,0.12661 0.16408,0.18566 0.4744,0.4744 1.1272,0.68063 1.8135,0.63959 0.68711,0.0417 1.3402,-0.16469 1.8151,-0.63959 0.05905,-0.0591 0.11375,-0.12138 0.16462,-0.18566 0.08557,-0.072 0.16938,-0.14778 0.25044,-0.22885 l 5.6602,-5.6607 c 1.106,-1.106 1.3667,-2.6659 0.68762,-3.702 -0.17192,0.33198 -0.40002,0.65101 -0.68762,0.9386 l -5.6602,5.6607 c -0.08106,0.0811 -0.16486,0.15689 -0.25044,0.22885 -0.05087,0.0643 -0.10556,0.12655 -0.16462,0.18567 -0.4749,0.4749 -1.128,0.68125 -1.8151,0.63958 -0.68631,0.041 -1.3391,-0.16519 -1.8135,-0.63958 -0.05905,-0.0591 -0.11322,-0.12144 -0.16408,-0.18567 -0.08557,-0.072 -0.16938,-0.1478 -0.25044,-0.22885 l -5.6607,-5.6607 c -0.21782,-0.21782 -0.40096,-0.45379 -0.55269,-0.69949 l -8.5807,8.5806 c -1.4939,1.4939 -4.9761,0.4174 -7.8072,-2.4137 l -2.8482,-2.8482 c -1.4251,-1.4251 -2.4044,-3.0145 -2.8363,-4.4328 z"
       opacity="0.3"
       stroke-width="2.4726"
       id="path954" />
    <rect
       transform="rotate(-45)"
       x="-42.344002"
       y="101.84"
       width="66.308998"
       height="16.469999"
       rx="7.1069002"
       ry="8.2351999"
       fill="#19a187"
       stroke-width="1.9266"
       id="rect956" />
    <path
       d="m 22.141,117.17 3.5047,13.079 c 0.61089,2.2799 2.9381,3.6234 5.2179,3.0126 l 8.5728,-2.297 c 2.2799,-0.61089 3.6234,-2.9381 3.0126,-5.2179 l -0.21312,-0.79603 c -0.50125,1.1412 -1.4964,2.0516 -2.7995,2.4008 l -8.5728,2.297 c -2.2799,0.61089 -4.6071,-0.73275 -5.2179,-3.0126 l -2.7045,-10.093 z"
       opacity="0.3"
       stroke-width="1.8198"
       id="path958" />
    <path
       d="m 97.321,65.635 c -0.23998,1.2496 -0.8169,2.4075 -1.7455,3.3361 l -36.837,36.837 c -2.784,2.784 -7.6226,2.4283 -10.849,-0.79773 -1.3831,-1.383 -2.237,-3.0628 -2.5438,-4.7496 -0.47966,2.497 0.39363,5.3629 2.5438,7.5131 3.226,3.226 8.0646,3.5818 10.849,0.79772 l 36.837,-36.837 c 1.5906,-1.5906 2.1544,-3.8516 1.7455,-6.0995 z"
       opacity="0.3"
       stroke-width="1.9266"
       id="path960" />
    <path
       d="m 88.456,58.214 c -1.6974,0.03862 -3.3087,0.65593 -4.5267,1.8739 l -36.837,36.837 c -1.5236,1.5236 -2.1049,3.6624 -1.7919,5.8156 0.20526,-1.3522 0.79702,-2.61 1.7919,-3.6049 l 36.837,-36.837 c 2.784,-2.784 7.6226,-2.4283 10.849,0.79772 1.4608,1.4608 2.3303,3.252 2.5891,5.0335 0.36944,-2.432 -0.51566,-5.1708 -2.5891,-7.2443 -1.8146,-1.8146 -4.1395,-2.7213 -6.3219,-2.6717 z"
       fill="#ffffff"
       opacity="0.2"
       stroke-width="1.9266"
       id="path962" />
  </g>
</svg>
