<?xml version="1.0" encoding="UTF-8" standalone="no"?>
<!-- Created with Inkscape (http://www.inkscape.org/) -->

<svg
   version="1.1"
   id="svg870"
   width="512"
   height="512"
   viewBox="0 0 512 512"
   sodipodi:docname="payloadmask.svg"
   inkscape:version="1.1.2 (0a00cf5339, 2022-02-04)"
   xmlns:inkscape="http://www.inkscape.org/namespaces/inkscape"
   xmlns:sodipodi="http://sodipodi.sourceforge.net/DTD/sodipodi-0.dtd"
   xmlns="http://www.w3.org/2000/svg"
   xmlns:svg="http://www.w3.org/2000/svg">
  <defs
     id="defs874" />
  <sodipodi:namedview
     id="namedview872"
     pagecolor="#505050"
     bordercolor="#eeeeee"
     borderopacity="1"
     inkscape:pageshadow="0"
     inkscape:pageopacity="0"
     inkscape:pagecheckerboard="0"
     showgrid="false"
     inkscape:zoom="0.65478514"
     inkscape:cx="251.99106"
     inkscape:cy="242.06414"
     inkscape:window-width="1366"
     inkscape:window-height="695"
     inkscape:window-x="0"
     inkscape:window-y="24"
     inkscape:window-maximized="1"
     inkscape:current-layer="g876" />
  <g
     inkscape:groupmode="layer"
     inkscape:label="Image"
     id="g876">
    <g
       id="g1597"
       transform="matrix(0.95351868,0,0,0.95930016,11.894531,10.409995)">
      <path
         id="path978-3"
         style="fill:#ffffff;stroke-width:0.942793"
         d="M 252.51172,-2.625 C 240.0084,-1.6008317 227.6289,0.49886562 215.21157,2.2282525 197.72751,4.8176581 180.24611,7.4805607 162.8904,10.833927 146.12463,14.307801 129.51507,18.722236 113.49,24.789009 102.67564,29.04728 92.295098,34.306039 81.944549,39.567828 71.076424,45.153418 60.513299,51.363696 50.143059,57.782689 37.224556,65.654224 24.2782,73.50848 11.822707,82.102151 5.0933756,87.114783 0.75920375,95.331086 0.8440089,103.76796 c -0.0502358,7.75692 2.706483,15.14376 5.3434849,22.32181 3.5892785,9.5538 7.1840002,19.10607 10.6945382,28.68901 4.081393,11.1177 8.551199,22.09107 13.430272,32.88295 9.735189,21.57727 20.979891,42.48868 33.85075,62.36056 12.680109,19.41813 27.363541,37.65537 44.677156,53.14788 16.50712,14.82298 35.42266,27.18407 56.22947,35.04896 5.23259,1.97658 10.52353,3.83144 15.9301,5.27415 3.41451,0.77887 7.06052,0.41074 10.2678,-0.98742 -3.21782,25.36415 -3.31126,51.33434 1.92729,76.44151 4.44822,21.08933 12.86127,41.47039 25.49263,58.99404 6.66201,9.16597 14.5182,17.54995 23.70128,24.22891 8.99867,6.39848 19.78711,9.82813 30.63733,11.36865 10.30131,1.43178 20.78208,1.42503 31.11398,0.31118 23.17964,-2.5405 45.46414,-10.94047 65.40558,-22.87417 23.38463,-13.97955 43.65489,-32.65166 61.41627,-53.19726 11.95284,-13.85723 22.8198,-28.62957 32.86747,-43.9173 9.53763,-14.59674 18.13351,-29.78251 26.32545,-45.16745 5.83946,-10.92619 11.52937,-21.93226 17.10641,-32.99364 3.34207,-7.19683 4.95732,-15.46669 3.16426,-23.30141 -1.20673,-5.54468 -4.24871,-10.68923 -8.64384,-14.29896 -7.57852,-6.87447 -15.82807,-12.94949 -23.95149,-19.1535 -16.44531,-12.39324 -33.20899,-24.36988 -50.34274,-35.79384 -12.59287,-8.28555 -25.80708,-15.63061 -39.54712,-21.83623 -23.44733,-10.69364 -48.09026,-18.45567 -72.82048,-25.56772 -1.58999,-0.46726 -3.18465,-0.91805 -4.77806,-1.37367 3.49517,-3.95662 5.25754,-9.36598 4.75812,-14.62268 -0.28092,-6.91031 -1.40232,-13.7476 -2.18791,-20.6103 -2.38202,-18.6029 -5.82582,-37.07711 -10.52815,-55.236863 C 297.05275,62.978654 290.59804,42.363045 284.12845,21.767099 282.50406,16.706482 280.60401,11.520961 276.87917,7.5939132 270.89477,1.0351966 262.00192,-2.5885323 253.1754,-2.633487 c -0.22123,0.00283 -0.44245,0.00566 -0.66368,0.00849 z m -30.91211,238.26172 c -0.66141,-0.53694 0.92019,-1.23831 0.47987,-0.69458 -0.15996,0.23152 -0.31991,0.46305 -0.47987,0.69458 z" />
      <path
         id="path1189"
         style="fill:#ff0000;stroke-width:6.21578"
         d="m 148.18945,146.46875 c -10.9156,-0.0415 -21.77648,2.74711 -31.51016,7.63859 -6.19054,3.19196 -12.14641,7.39637 -15.89139,13.39486 -3.485064,5.47976 -6.251968,11.38048 -8.816797,17.3355 -1.184539,2.88223 -2.348501,5.80033 -3.05496,8.84033 -0.420101,2.45431 1.087512,5.12968 3.530141,5.81106 2.227682,0.78869 4.658563,0.64067 6.910724,0.73007 6.607562,0.10599 13.306212,-0.0183 19.730072,-1.74004 7.41351,-1.90109 14.24981,-5.8546 19.70716,-11.20738 5.86428,-5.69852 10.11437,-12.84998 13.40303,-20.28346 1.96682,-4.60876 3.45051,-9.50458 3.69921,-14.5332 0.0406,-2.16263 -1.0647,-4.45104 -3.14861,-5.29036 -1.42061,-0.66332 -3.0177,-0.72367 -4.55842,-0.69597 z" />
      <path
         id="path1228"
         style="fill:#ff0000;stroke-width:6.21578"
         d="m 226.48438,113.07227 c -11.29237,0.47729 -22.134,5.04056 -31.13923,11.72898 -3.92802,2.93378 -7.55441,6.229 -11.33581,9.28075 -0.36134,0.37714 -1.40085,0.79027 -0.42681,1.09657 5.35649,3.47188 10.56598,7.1733 16.02976,10.47674 4.3078,2.51106 8.71648,4.93782 13.45223,6.54487 8.55641,2.73059 17.88793,1.97444 26.3595,-0.69506 9.13254,-2.85385 17.43161,-7.95087 24.68854,-14.12742 2.20793,-1.79776 4.41591,-3.59547 6.62377,-5.39332 -5.60443,-3.5632 -11.1033,-7.29518 -16.78389,-10.73608 -4.70704,-2.68297 -9.56451,-5.2139 -14.77242,-6.77332 -4.12202,-1.13808 -8.42755,-1.55973 -12.69564,-1.40271 z" />
      <path
         id="path1267"
         style="fill:#00ff00;stroke-width:6.21578"
         d="m 264.95117,282.53711 c -2.59399,0.10393 -5.27519,0.18553 -7.71868,1.14366 -2.59845,1.20318 -3.66476,4.43826 -3.00397,7.10634 0.74787,3.7289 2.92045,6.95789 5.06932,10.01971 3.8288,5.26291 8.27397,10.0744 13.13032,14.402 4.17862,3.60248 9.06195,6.32773 14.23742,8.21199 3.01375,1.21308 6.1604,2.16413 9.41601,2.39541 6.94957,0.70786 13.97066,0.73028 20.92954,0.13932 2.0776,-0.24811 4.25488,-0.51784 6.09239,-1.5864 1.78758,-1.16843 2.54683,-3.55557 1.85022,-5.56079 -0.81537,-3.04214 -2.58065,-5.70935 -4.20836,-8.36676 -4.72275,-7.42961 -10.39559,-14.40238 -17.56671,-19.59901 -4.18101,-3.08852 -9.00954,-5.25255 -14.07439,-6.4035 -6.70146,-1.58246 -13.62493,-1.82123 -20.48123,-1.94789 -1.22448,-0.0163 -2.44787,0.0164 -3.67188,0.0459 z" />
      <path
         id="path1343"
         style="fill:#00ff00;stroke-width:6.21578"
         d="m 361.26172,328.32617 c -3.76893,0.0263 -7.52739,0.58404 -11.13282,1.68488 -2.63091,0.69535 -5.26191,1.39031 -7.89257,2.08661 3.86119,5.65958 7.56659,11.42693 11.53098,17.01484 5.45101,7.26589 12.1001,13.71781 19.8539,18.49153 3.54315,2.16921 7.49386,3.78648 11.6633,4.14494 7.55946,0.90614 15.19978,1.04582 22.80066,0.71153 2.36295,-0.15966 4.78946,-0.32232 7.02225,-1.16558 1.94756,-0.87029 3.10943,-2.99558 2.99805,-5.09765 -0.0448,-3.12627 -1.70529,-5.91624 -3.28492,-8.50847 -3.6166,-5.68226 -8.17339,-10.71108 -13.03409,-15.34948 -3.84284,-3.61662 -7.98154,-7.04994 -12.7806,-9.31979 -5.59053,-2.44858 -11.67322,-3.47378 -17.69549,-4.19732 -3.33578,-0.36798 -6.6925,-0.54458 -10.04865,-0.49604 z" />
      <path
         style="fill:#000000;stroke-width:0.942793"
         d="m 275.58902,495.76323 c -9.75481,-1.42727 -17.71525,-4.39557 -23.52077,-8.77046 -16.22977,-12.23035 -29.8713,-33.13427 -37.58959,-57.60131 -16.3517,-51.83508 -5.67475,-123.54719 30.2574,-203.22488 2.94431,-6.52883 7.5277,-16.78504 10.1853,-22.79157 8.17727,-18.48162 9.50063,-20.07153 16.78811,-20.16933 4.37753,-0.0588 47.23019,11.89662 71.09709,19.83521 26.40261,8.78203 48.03858,18.53791 67.21537,30.3081 23.81397,14.61637 80.02994,56.15555 82.033,60.61594 1.98151,4.41243 1.37032,9.41699 -1.94109,15.89385 -18.87,36.90816 -29.9339,56.77049 -41.19203,73.94953 -43.40819,66.23753 -91.2099,103.75287 -142.20494,111.60414 -9.86512,1.51884 -22.195,1.65779 -31.12785,0.35078 z m 31.35569,-54.05839 c 8.5346,-1.12221 16.79987,-3.79577 26.46387,-8.56023 8.20278,-4.04406 24.51623,-14.79037 27.35559,-18.02019 l 1.87198,-2.12941 -1.87198,0.56598 c -1.0296,0.31129 -7.34753,1.04109 -14.03986,1.62179 -21.25154,1.844 -41.60253,-0.82481 -54.08137,-7.09216 -13.46241,-6.76135 -29.5155,-23.82926 -41.50658,-44.13045 -2.47068,-4.18294 -4.6485,-7.44671 -4.83959,-7.25283 -0.8456,0.85794 -0.0609,19.85732 1.15879,28.05457 2.78112,18.6922 9.52227,33.89531 19.40838,43.77117 8.38121,8.37251 18.33357,12.71188 32.12485,14.00693 0.51479,0.0484 4.09496,-0.32749 7.95592,-0.83517 z m 102.50617,-72.26477 c 8.09619,-1.22173 7.92799,-0.54865 2.57956,-10.32264 -4.06068,-7.42068 -14.81751,-18.5194 -21.38465,-22.06432 -6.99539,-3.77608 -14.74461,-5.54277 -24.26568,-5.53218 -8.09246,0.009 -16.80087,1.11697 -17.95101,2.28388 -1.19022,1.20759 7.99622,15.48328 13.77749,21.41017 12.35987,12.67114 27.44413,17.21297 47.24429,14.22509 z M 314.1309,322.9594 c 4.02692,-0.56157 7.68788,-1.38185 8.13548,-1.82283 0.45624,-0.44949 -0.54099,-3.23461 -2.26961,-6.33875 -11.05887,-19.85865 -26.52944,-29.753 -46.52107,-29.753 -6.75856,0 -16.80162,1.30591 -17.79513,2.31391 -0.21749,0.22066 0.91518,2.89604 2.51705,5.94531 8.82668,16.80219 22.38416,27.27572 38.40496,29.66888 7.51614,1.12275 9.39062,1.1213 17.52832,-0.0135 z M 174.70957,322.60206 C 145.32677,312.34035 117.67919,291.14802 93.659178,260.47557 70.698183,231.15545 47.2842,186.93276 32.338048,144.6565 30.984198,140.82706 27.307953,131.01483 24.168598,122.85156 17.796503,106.28214 17.352367,101.93352 21.567272,97.381493 23.463411,95.333685 48.340966,79.682704 73.883055,64.468558 85.668526,57.44854 109.60582,45.524907 119.7466,41.623032 c 12.99266,-4.999203 30.12788,-9.795462 48.2035,-13.492498 16.02852,-3.278338 79.58375,-12.78602 85.46967,-12.78602 4.04211,0 9.02161,2.389862 10.83717,5.201195 1.49901,2.321162 1.76841,3.140658 11.24598,34.209237 10.17097,33.341716 15.77251,57.788174 19.14858,83.569104 2.58201,19.7172 2.96652,24.21605 2.06968,24.21605 -0.42648,0 -3.03911,-1.00744 -5.80584,-2.23874 -16.63311,-7.4024 -32.21474,-5.37137 -43.98638,5.73351 -5.8498,5.51847 -9.8742,11.67507 -13.85527,21.19611 -1.63795,3.9173 -5.37794,12.35639 -8.3111,18.75354 l -5.333,11.63116 -3.27597,-0.70652 c -1.80178,-0.3886 -6.85613,-0.65788 -11.23189,-0.59842 -27.98964,0.38036 -49.34789,23.71951 -57.17427,62.47701 -0.94871,4.69816 -1.61772,8.65088 -1.4867,8.78381 0.131,0.13293 2.95873,-2.95966 6.28382,-6.87242 11.27838,-13.27171 28.07452,-27.08816 39.60205,-32.57653 5.62126,-2.67634 15.28511,-5.48121 16.08584,-4.66879 0.22095,0.22417 -0.8778,3.77896 -2.44167,7.89953 -7.20692,18.98921 -15.87867,48.91073 -19.19077,66.21694 -0.87465,4.57019 -1.84853,8.29114 -2.16418,8.2688 -0.31565,-0.0223 -4.69247,-1.47902 -9.72628,-3.23703 z M 116.93154,196.26659 c 16.80848,-4.53812 27.99049,-16.02511 34.10459,-35.03476 3.63355,-11.29727 3.75138,-11.03716 -4.99946,-11.03716 -21.76312,0 -37.4016,8.21788 -46.373333,24.36876 -2.272554,4.09106 -7.996464,20.01748 -7.996464,22.24967 0,1.40644 19.601717,0.98243 25.264667,-0.54651 z m 119.16495,-46.53884 c 7.33273,-1.93779 13.90407,-5.4125 21.94271,-11.60252 3.73226,-2.87398 6.78593,-5.3114 6.78593,-5.4165 0,-0.71597 -12.65026,-9.35226 -16.84783,-11.50195 -13.91143,-7.12443 -28.08348,-7.03367 -41.92202,0.26843 -5.12827,2.706 -16.98634,11.59738 -17.02397,12.76485 -0.0304,0.94355 10.87647,8.66249 15.89042,11.24585 10.60167,5.46233 21.13366,6.89538 31.17476,4.24184 z"
         id="path978" />
    </g>
  </g>
</svg>
