<?xml version="1.0" encoding="UTF-8" standalone="no"?>
<!-- Created with Inkscape (http://www.inkscape.org/) -->

<svg
   version="1.1"
   id="svg131"
   width="512"
   height="512"
   viewBox="0 0 512 512"
   sodipodi:docname="pe-bear.svg"
   inkscape:version="1.2.2 (b0a8486541, 2022-12-01)"
   inkscape:export-filename="../GIT Icons/pe-bear.png"
   inkscape:export-xdpi="96"
   inkscape:export-ydpi="96"
   xmlns:inkscape="http://www.inkscape.org/namespaces/inkscape"
   xmlns:sodipodi="http://sodipodi.sourceforge.net/DTD/sodipodi-0.dtd"
   xmlns="http://www.w3.org/2000/svg"
   xmlns:svg="http://www.w3.org/2000/svg">
  <defs
     id="defs135">
    <rect
       x="632.36568"
       y="19.618224"
       width="281.58462"
       height="143.81453"
       id="rect4195" />
    <rect
       x="793.688"
       y="-68.338737"
       width="329.48802"
       height="165.42313"
       id="rect3347" />
  </defs>
  <sodipodi:namedview
     id="namedview133"
     pagecolor="#000000"
     bordercolor="#ffffff"
     borderopacity="1"
     inkscape:showpageshadow="0"
     inkscape:pageopacity="0"
     inkscape:pagecheckerboard="1"
     inkscape:deskcolor="#505050"
     showgrid="false"
     inkscape:zoom="0.84265442"
     inkscape:cx="169.70183"
     inkscape:cy="270.57355"
     inkscape:window-width="1366"
     inkscape:window-height="705"
     inkscape:window-x="0"
     inkscape:window-y="0"
     inkscape:window-maximized="1"
     inkscape:current-layer="g137" />
  <g
     inkscape:groupmode="layer"
     inkscape:label="Image"
     id="g137">
    <path
       id="path249-7"
       style="fill:#00ff00;stroke-width:2.10005"
       d="M 70.867581,6.0057602 C 58.102969,6.1254635 45.225502,10.601533 36.123884,19.056562 c -7.04736,6.54946 -11.311895,15.312726 -13.352171,24.304257 -2.605565,11.372358 -2.11582,23.190184 0.03345,34.589725 2.770283,14.288811 8.292106,28.096996 16.068233,40.673126 4.628136,7.43329 10.140298,14.3665 16.232679,20.81187 0.03401,0.49414 -0.47422,1.05937 -0.64107,1.57985 -6.001208,12.56013 -11.869405,25.24446 -15.758186,38.53734 -4.583023,15.25394 -7.212835,30.98748 -8.346343,46.78125 -0.859703,12.89147 -0.768566,25.82426 -0.270772,38.72725 0.44536,10.48511 1.171333,21.00093 3.341378,31.31624 1.2564,6.06438 2.484676,12.04735 3.720389,18.11507 0.314489,1.53545 0.628907,3.07092 0.943354,4.60639 5.050827,-4.03683 10.106185,-8.0676 15.154821,-12.10617 0.86196,13.40374 4.280927,26.62418 9.634658,39.07517 3.688245,8.58737 8.739568,16.57398 13.137616,24.84704 1.325711,2.48585 2.628582,4.98192 3.802609,7.46719 1.603788,3.27006 2.959707,6.68608 3.41245,10.27715 0.605043,3.76905 0.931321,7.53499 1.438205,11.34893 1.328412,10.85993 2.634781,21.72225 3.957955,32.58276 7.328089,-9.92094 14.903311,-19.67983 22.389511,-29.49678 1.07793,-1.41373 2.14088,-2.8376 3.21231,-4.25582 5.4114,13.36263 11.75354,26.39905 18.93558,39.016 3.65976,6.37456 7.71741,12.54191 11.99694,18.57008 7.38954,10.64159 14.76845,21.28875 22.14777,31.93667 1.17668,-14.35227 2.29933,-28.70832 3.46818,-43.06112 13.35001,16.51804 30.16447,30.34404 48.17392,42.31358 8.90831,5.85004 18.12454,11.3287 27.81703,15.98573 3.53983,1.68384 7.58258,2.92794 11.58709,2.17691 4.51579,-0.76019 8.51006,-2.99576 12.50433,-4.97949 9.40348,-4.92138 18.25923,-10.68538 27.03895,-16.50491 11.23408,-7.59426 21.86838,-16.01984 31.20641,-25.60748 4.27919,-4.32966 8.34955,-8.84055 12.1549,-13.53883 1.14785,14.4542 2.29702,28.9083 3.44391,43.36255 9.33899,-13.62998 18.83875,-27.16071 28.13773,-40.81358 8.85244,-13.65767 16.08718,-28.17044 22.48989,-42.9511 0.85554,-1.98721 1.68404,-3.98416 2.49919,-5.98602 2.86426,3.97901 5.93366,7.82554 8.84068,11.7775 5.56289,7.39529 11.12349,14.79208 16.68834,22.18609 1.88814,-14.98426 3.60957,-29.97132 5.56728,-44.94693 1.23704,-6.64414 4.90945,-12.55571 8.02455,-18.54716 4.91884,-9.10716 10.4525,-17.98423 14.05151,-27.65174 4.33164,-11.17685 7.06274,-22.91451 7.80688,-34.78586 5.08395,4.07121 10.16813,8.14215 15.25189,12.21356 1.10655,-5.97317 2.30157,-11.79673 3.55592,-17.76367 1.36891,-6.57628 2.68042,-13.17762 3.26478,-19.86235 1.34324,-14.60085 1.66939,-29.27448 1.30139,-43.92186 -0.33607,-17.33281 -2.64768,-34.64124 -7.03411,-51.4919 -3.09489,-11.79773 -7.41163,-23.30067 -12.63262,-34.42422 -1.83571,-4.02207 -3.75324,-8.01153 -5.64053,-12.01291 5.85941,-6.43232 11.52803,-13.07976 15.97544,-20.45409 10.31689,-16.49177 16.74904,-35.181463 17.98827,-54.265558 0.63527,-10.922134 -0.6219,-22.137156 -5.25367,-32.270948 -3.38664,-7.304509 -8.79773,-13.901706 -15.96877,-18.308002 -8.99428,-5.7151242 -20.05735,-8.2092148 -30.87083,-7.8787054 -12.6545,0.2643131 -24.98711,3.5449173 -36.73636,7.7321424 -13.18916,4.71676 -25.61639,11.024334 -38.19649,16.960604 C 349.64637,24.179661 335.4916,17.01671 320.1654,12.607756 307.88621,9.0074181 294.861,6.9524372 281.98751,8.333171 c -8.7632,0.9004705 -17.31106,3.490141 -24.97828,7.54381 -0.56563,0.353271 -1.13106,0.630932 -1.69438,0.112942 -5.87174,-2.946884 -12.07477,-5.437295 -18.64261,-6.6532236 -13.37147,-2.6997449 -27.33931,-1.3830155 -40.42171,2.0041136 -14.44061,3.693043 -27.98867,9.813839 -41.13645,16.390826 -2.32329,1.135275 -4.64657,2.27055 -6.96985,3.405825 C 131.7007,23.095444 115.22269,14.745366 97.32571,9.8184288 88.750012,7.4415159 79.841836,5.8931299 70.867581,6.0057602 Z M 436.56711,41.63287 c 2.15007,0.153967 4.15815,1.036861 5.91512,2.160875 -4.59464,0.787285 -8.52443,3.350196 -12.11825,5.995939 -5.86036,4.465101 -10.24038,10.379343 -13.7601,16.568 -2.44424,4.326349 -4.4651,8.852011 -6.15224,13.47952 -3.28063,-2.018987 -7.65753,-2.662768 -11.29249,-1.089462 -4.29586,1.727644 -7.62452,5.711537 -7.75967,10.146456 -0.19622,2.748708 0.75621,5.40915 1.90132,7.900934 6.14262,14.647848 13.36985,28.991728 19.39757,43.612498 7.81092,18.96407 14.88672,38.21609 20.42781,57.87009 2.69445,9.63237 4.56744,19.45027 5.85178,29.32856 0.31828,1.00661 -0.21084,0.5353 -0.74248,0.0596 -4.40972,-3.39908 -8.862,-6.78715 -13.71771,-9.6259 -2.63964,-1.50031 -5.51384,-2.90728 -8.68287,-2.94749 -4.27803,-0.17646 -8.63875,1.74021 -10.97975,5.12213 -2.36051,3.27916 -2.67869,7.50129 -1.69228,11.26341 1.94704,8.6355 5.78035,16.76247 8.14705,25.29172 3.69196,12.25908 5.99202,24.94247 6.01741,37.69672 -1.92654,-2.69214 -3.85309,-5.38429 -5.77962,-8.07643 -3.25164,5.18412 -6.81482,10.18722 -10.31556,15.22597 -2.31241,3.93532 -3.86056,8.20091 -5.76486,12.31014 -1.88671,4.30763 -3.76411,8.61776 -5.63664,12.93083 0.6168,-4.48361 1.28662,-8.9662 1.72146,-13.46801 0.09,-2.5262 -0.0379,-5.06228 -0.27692,-7.57668 -0.5774,-3.19811 -2.87989,-6.15587 -6.04448,-7.52061 -2.62871,-0.62794 -5.57465,-1.24141 -8.12413,-0.0197 -3.12246,1.1668 -4.96672,3.9237 -6.85629,6.34966 -3.10438,4.05457 -5.08504,8.71712 -7.59849,13.08592 -2.39944,4.41855 -4.80298,8.8352 -7.25621,13.2281 -1.21302,-8.88224 -2.55817,-17.75616 -3.19944,-26.69528 -0.48407,-5.97665 -0.79311,-11.83401 -1.04062,-17.84725 -0.72844,-17.9887 -0.57854,-36.09013 -0.0702,-54.11945 0.36527,-13.98705 1.31659,-28.07073 1.72981,-42.10509 0.24583,-10.27095 0.11055,-20.63402 -1.9936,-30.7526 -1.83329,-8.4188 -5.37596,-16.48178 -10.21271,-23.78634 -0.84674,-1.32992 -1.72102,-2.64449 -2.60673,-3.95223 7.34066,-3.33662 14.32977,-7.3902 22.01383,-10.03773 2.79331,-0.57676 5.62052,-1.59418 7.54959,-3.64907 4.25047,-4.06564 4.67871,-11.0752 0.82492,-15.50138 -2.9616,-3.608401 -7.53306,-5.640249 -12.02646,-7.114359 -8.02094,-2.499694 -16.59963,-2.697883 -24.97671,-2.474515 -9.77128,0.367742 -19.42813,2.032939 -28.90545,4.208833 -1.83294,0.313597 -3.69593,0.96086 -5.57296,0.660666 -3.2022,-1.241638 -6.15735,-3.161036 -9.65241,-3.650907 -5.15961,-0.86752 -10.66832,1.411333 -13.56102,5.459979 -0.40265,0.559923 -0.76106,1.147893 -1.05684,1.763343 -6.01804,-1.724192 -12.33797,-2.685905 -18.64322,-2.464186 -4.95838,0.205955 -9.89143,1.152636 -14.61286,2.464186 -1.86374,-3.936733 -6.03432,-6.797547 -10.62496,-7.277642 -3.89987,-0.481144 -7.74952,0.817114 -11.07991,2.611148 -1.25858,0.581022 -2.56068,1.427713 -4.03648,1.143536 -3.36529,-0.408113 -6.62654,-1.337915 -9.94952,-1.959293 -6.69846,-1.389827 -13.48843,-2.445336 -20.34707,-2.810847 -9.00548,-0.564838 -18.20554,-0.278375 -26.92125,2.077996 -4.90428,1.442265 -9.7483,3.758052 -12.98696,7.580962 -3.42539,4.40098 -3.22691,11.03629 0.81502,15.04643 2.13159,2.2902 5.30122,3.39555 8.38765,4.06729 7.44555,2.67168 14.23828,6.6302 21.41031,9.84426 -4.69978,6.92974 -9.001,14.21554 -11.34768,22.16327 -3.42544,11.16297 -3.68125,22.88474 -3.50159,34.41263 0.26408,13.23202 1.24996,26.44015 1.63164,39.66909 0.7159,19.89808 0.88939,39.96223 0.10219,59.86142 -0.40192,9.77639 -1.06187,19.56592 -2.27851,29.21384 -0.60215,4.65218 -1.32715,9.28983 -1.94696,13.93986 -3.94524,-6.7724 -7.6717,-13.62486 -11.56328,-20.43504 -2.01541,-3.22992 -5.27504,-6.01456 -9.32609,-6.69064 -4.78847,-0.93834 -10.096,1.02174 -12.76626,4.86984 -2.46686,3.30464 -2.65089,7.59402 -1.80804,11.42315 0.35568,2.25321 0.71137,4.50642 1.06705,6.75963 -3.49582,-7.90463 -6.94025,-15.83301 -10.66893,-23.64498 -1.69679,-3.19401 -3.95571,-6.18017 -5.78676,-9.23264 -3.29103,-5.25013 -6.627857,-10.47652 -9.934813,-15.7185 0.425549,-2.97593 0.965332,-6.00715 1.580224,-8.86787 0.320486,-1.49319 0.66137,-3.00221 1.010175,-4.40055 0.462719,-1.90136 0.981381,-3.86458 1.490314,-5.65986 1.18268,-4.22746 2.56005,-8.42536 4.0133,-12.51976 1.84006,-5.36379 4.02216,-10.66651 5.04121,-16.23748 0.45658,-2.50095 0.62126,-5.14009 -0.37692,-7.55309 -1.50009,-4.01585 -5.39542,-7.30313 -10.003048,-7.79784 -4.364911,-0.64057 -8.654221,1.11702 -12.14812,3.42175 -4.762563,2.93476 -9.251131,6.23904 -13.559794,9.72618 1.461117,-11.39434 3.616346,-22.73114 6.980434,-33.77946 5.054157,-17.25143 11.270602,-34.16007 17.98745,-50.81928 3.195948,-7.92273 6.601198,-15.87336 10.118338,-23.61264 3.14787,-6.92842 6.52061,-13.76509 9.94669,-20.576847 1.51095,-3.002712 2.8868,-6.234603 2.6075,-9.616993 -0.39689,-5.75367 -6.02023,-10.70301 -12.21283,-10.723363 -2.24663,-0.02027 -4.49719,0.496818 -6.44859,1.54106 C 98.750406,72.428597 94.597469,64.321589 88.949103,57.155693 84.730415,51.903614 79.315596,47.327311 72.819368,44.676192 71.777776,44.25981 70.601119,43.9488 69.545023,43.74853 c 4.91669,-2.165248 10.619121,-1.937522 15.805074,-0.832605 4.306681,0.90905 8.420948,2.445694 12.458036,4.086162 1.123116,0.472596 2.478017,1.041918 3.673177,1.586522 7.32675,3.330983 14.37166,7.251237 20.81754,11.910791 0.72122,0.569464 1.56636,1.118721 2.17683,1.747496 -1.19728,3.577516 -1.42834,7.676229 0.59028,11.042129 2.95161,5.105555 10.23239,7.731182 16.01855,5.398979 3.93576,-1.560718 7.17142,-4.235528 10.75409,-6.352685 9.30893,-5.978649 18.45342,-12.343162 28.81389,-16.692712 8.93718,-3.846607 18.94482,-6.414055 28.72174,-6.021849 0.98631,0.04117 1.84809,0.09708 2.88981,0.192162 1.8841,0.184278 3.75835,0.459686 5.60773,0.844003 0.76588,0.157872 1.99762,0.45053 2.74016,0.64619 1.25972,0.338827 2.47219,0.703946 3.62503,1.093183 0.66609,0.221159 1.27302,0.449874 1.82496,0.649457 6.28423,2.339742 12.02909,5.769087 17.33035,9.658793 4.18809,2.993153 8.39367,6.08564 12.61934,9.088252 7.61433,-5.162998 14.60908,-11.160255 22.81893,-15.528616 8.75198,-4.6592 18.91337,-7.274403 29.02777,-6.583138 0.34028,0.03154 1.17372,0.09002 1.70276,0.131876 1.15109,0.115182 2.29942,0.238584 3.34296,0.404011 2.2981,0.333134 4.64432,0.828242 6.78903,1.381397 1.6685,0.430259 3.55134,0.985961 5.26751,1.567997 9.91112,3.334283 18.93456,8.54329 27.52316,14.158338 5.3624,3.437599 10.63804,6.997427 16.1138,10.277552 2.63766,1.553832 5.85058,2.250851 8.94293,1.776935 4.41214,-0.600233 8.49652,-3.411589 10.03304,-7.365415 1.36831,-3.11533 1.0644,-6.640029 0.0145,-9.795098 8.24528,-6.702114 17.9168,-11.739305 27.97311,-15.677905 6.18574,-2.33811 12.61069,-4.41944 19.31169,-4.893298 0.56455,-0.02512 1.12963,-0.04923 1.69436,-0.01456 z M 202.19925,161.3325 c 4.99823,4.24525 11.47157,6.84435 18.15676,7.64436 6.04479,0.85578 12.17161,0.39425 18.24798,0.18904 1.02141,1.90282 1.90292,3.88584 2.41457,5.96454 -3.94589,1.04176 -7.91823,1.71153 -11.94522,2.44644 -12.29824,2.14858 -24.72326,3.78869 -36.8135,6.85644 0.738,-8.33421 3.58937,-16.67717 9.12098,-23.34569 0.27539,-0.58032 0.48828,0.0729 0.81843,0.24487 z m 108.50641,0.18462 c 2.90368,3.73835 5.44524,7.78148 7.05327,12.16057 1.19998,3.44858 1.74976,7.06959 1.90938,10.68404 -10.36141,-2.4961 -21.02245,-3.64472 -31.4516,-5.85249 -5.40142,-1.05445 -10.78452,-2.20774 -16.1059,-3.41082 0.19264,-1.99661 0.51997,-4.00063 1.24774,-5.89484 6.04961,0.0765 12.21797,0.68829 18.26601,-0.30826 6.82345,-1.00565 13.5388,-3.48719 18.73327,-7.80961 0.11595,0.14381 0.23189,0.2876 0.34783,0.43141 z m -5.89893,50.5818 c 0.60751,0.023 0.11662,0.86966 0.18141,1.28449 0.0258,0.94549 -0.32039,0.01 -0.58587,-0.34064 -0.0451,-0.3127 -1.1365,-1.15722 -0.45147,-1.0283 0.28531,0.0282 0.57061,0.0563 0.85593,0.0844 z m -97.45072,0.37678 c -0.39029,0.85515 -0.38584,0.26091 -0.3822,-0.3278 0.47814,-0.012 0.89984,-0.2916 0.3822,0.3278 z m 31.67265,57.5599 c 1.80135,5.65668 2.90905,11.64596 6.27918,16.7396 2.73576,3.94236 8.09433,6.18095 13.06606,5.234 3.9443,-0.66521 7.32083,-3.22265 9.17956,-6.48752 1.85285,-3.15399 2.83222,-6.66602 3.89451,-10.10003 0.54024,-1.84586 1.03389,-3.70438 1.63353,-5.53489 4.72352,6.65333 9.01056,13.61266 14.36412,19.84915 0.37941,2.89663 0.56764,5.84001 0.62892,8.70002 0.20507,7.8773 -5.5e-4,15.67893 -0.92787,23.52233 -0.45613,3.5366 -1.52587,7.04877 -3.59046,10.07461 -3.28741,5.15513 -8.24789,9.54368 -14.31972,11.68697 -1.46107,0.48886 -2.96372,0.86462 -4.48266,1.16076 -0.53867,0.0977 -1.41375,0.25728 -2.09466,0.351 -3.28858,0.47079 -6.62985,0.70435 -9.95194,0.4346 -0.45064,-0.0431 -1.26617,-0.10821 -1.8648,-0.19241 -7.88137,-0.97209 -15.59963,-4.52331 -20.43656,-10.51739 -3.03082,-3.6997 -4.9524,-8.18019 -5.4663,-12.81114 -0.0361,-0.46567 -0.13526,-1.25598 -0.19981,-1.84801 -0.41498,-3.73837 -0.64748,-7.49277 -0.76279,-11.24911 -0.019,-1.36014 -0.0737,-2.94747 -0.0623,-4.39635 0.0279,-4.86366 0.0309,-9.74691 0.6528,-14.58242 0.14294,-0.74822 0.91861,-1.23563 1.33527,-1.87741 4.7635,-5.84574 8.7505,-12.18906 13.07334,-18.31461 l 0.0306,0.0921 z" />
    <g
       id="g4966"
       transform="matrix(1.0353974,0,0,0.96457513,-9.0602443,9.0765756)">
      <path
         id="path4416"
         style="opacity:1;fill:#aa4400;fill-opacity:1;fill-rule:evenodd;stroke-width:4.19571;stroke-linecap:round;stroke-linejoin:bevel"
         d="m 253.26953,110.52148 c -4.0996,0.10649 -8.26677,0.43285 -12.12673,1.92547 -3.20783,1.18935 -6.43035,2.49828 -9.24134,4.47763 -1.12328,0.73384 -1.86987,2.24037 -1.1788,3.51097 0.83877,1.51091 2.78485,1.49985 4.28298,1.33468 1.67735,-0.22229 3.28482,-0.4396 5.01304,-0.51415 12.37141,-0.70639 24.80669,-0.61128 37.22639,-0.9282 1.02693,0.0407 2.06124,-0.46278 2.4878,-1.42943 0.41894,-1.02833 -0.0213,-2.24678 -0.9261,-2.879 -2.42345,-1.70851 -5.28535,-2.65413 -8.07044,-3.59757 -4.98686,-1.63557 -10.2926,-1.86082 -15.4992,-1.91994 -0.65588,-0.005 -1.31175,0.0142 -1.9676,0.0195 z" />
      <path
         id="path4345"
         style="opacity:1;fill:#aa4400;fill-opacity:1;fill-rule:evenodd;stroke-width:8.39142;stroke-linecap:round;stroke-linejoin:bevel"
         d="m 429.48438,15.068359 c -10.3097,0.379562 -20.2227,3.769733 -29.60794,7.837136 -11.561,5.111158 -22.45143,11.834414 -31.95927,20.181239 -1.42932,1.377997 -2.64249,2.995409 -3.47967,4.799985 -7.28844,-5.035426 -14.69973,-9.934975 -22.60027,-13.968197 -10.96489,-5.682137 -22.88536,-9.982893 -35.29542,-10.76093 -10.51619,-0.662668 -21.17029,1.355191 -30.74089,5.756103 -6.55253,2.925634 -12.58707,6.865471 -18.38048,11.069666 -0.48773,0.338922 -0.97503,0.678428 -1.47122,1.00492 -5.49172,-3.739872 -10.84522,-7.753674 -16.8572,-10.643965 -10.69093,-5.403408 -22.83397,-8.159954 -34.81537,-7.111219 -12.4853,0.970793 -24.41813,5.47867 -35.40774,11.299031 -7.49137,3.964032 -14.55976,8.665923 -21.51149,13.499122 -1.89497,-4.478591 -5.86084,-7.561342 -9.67968,-10.345552 -6.65247,-4.722219 -13.56789,-9.10382 -20.84358,-12.806146 -8.99273,-4.514376 -18.664402,-8.03025 -28.748677,-8.903691 -8.065135,-0.699896 -16.501278,0.601623 -23.50455,4.829716 -6.08089,3.637997 -10.833928,9.283287 -13.731461,15.721776 -2.727839,5.966518 -4.230795,12.481885 -4.54736,19.027791 -0.271079,7.761573 1.105492,15.481838 2.987326,22.982886 1.950751,7.60377 4.834078,14.999888 8.935327,21.71034 3.472016,5.89739 7.102057,11.77156 11.701016,16.86882 2.415889,2.41243 6.229097,3.6599 9.490235,2.30859 3.885132,-1.47204 6.095145,-6.10908 4.972701,-10.07739 -1.361373,-7.51032 -4.513892,-14.485954 -6.146902,-21.922753 -0.505377,-2.132459 -0.902158,-4.080763 -1.294549,-6.261575 -0.304302,-1.741248 -0.59784,-3.693463 -0.820313,-5.527343 -0.11788,-0.997861 -0.255884,-2.26329 -0.34553,-3.369346 -0.263792,-3.026463 -0.384276,-6.068335 -0.261892,-9.105264 0.03252,-0.577537 0.07683,-1.494955 0.135942,-2.200566 0.08571,-0.9704 0.185546,-1.941073 0.354293,-2.900996 1.905104,1.803085 3.525079,3.884189 4.980468,6.060547 0.196425,0.295772 0.608352,0.92544 0.8729,1.358275 2.977747,4.823 5.406076,9.984143 7.246241,15.34485 0.259666,0.76099 0.619187,1.799284 0.903804,2.67487 1.462413,4.439685 2.791088,8.929264 4.310299,13.368667 0.760463,1.92005 2.105069,3.672764 3.973397,4.618574 -7.202855,16.55364 -13.609189,33.44689 -19.520387,50.50141 -4.699329,13.67103 -9.069304,27.46439 -12.763104,41.44357 -1.838782,6.93402 -3.353806,13.96398 -4.188101,21.09449 -1.528101,11.94627 -2.114398,23.98578 -2.498713,36.01554 -0.117049,4.00299 -0.323587,8.00848 -0.409952,12.009 0.228923,1.87513 1.388881,3.5139 2.709608,4.80271 1.218872,1.13656 2.9272,1.33342 4.434396,1.87929 1.51454,0.5107 3.158043,0.32472 4.606395,-0.30275 1.586466,-0.51155 2.962214,-1.61444 3.697124,-3.12291 3.355653,-5.22863 6.530116,-10.46048 10.124796,-15.51238 1.751282,-2.50047 3.616639,-4.93535 5.770829,-7.10485 -1.688002,6.19873 -3.447947,12.37955 -5.020534,18.60866 -3.340627,14.002 -4.358845,28.5019 -3.663293,42.86033 0.373991,7.81351 1.43368,15.58216 3.001243,23.24311 1.954594,9.84028 4.117503,19.68078 7.470284,29.15278 1.121675,2.89068 2.334345,5.92454 4.673237,8.0609 2.653714,2.49366 6.920557,3.01536 10.070497,1.16988 2.76473,-1.49639 4.17301,-4.58101 4.63523,-7.56816 0.67643,-4.68832 0.93961,-9.42605 1.12045,-14.1564 6.31955,14.80766 12.66504,29.63369 20.20576,43.87116 2.39829,4.37887 4.80501,8.81411 8.03582,12.64749 2.00741,2.27669 4.32077,4.42546 7.14168,5.63209 3.25456,1.27252 7.25725,0.19059 9.34742,-2.63202 1.78162,-2.25866 2.18887,-5.41638 1.22959,-8.10561 -0.71136,-2.27501 -1.58443,-4.57391 -2.10152,-6.85988 -0.37271,-1.42248 -0.6643,-2.73575 -0.9779,-4.14503 -0.1744,-0.86897 -0.42215,-2.01618 -0.6052,-2.93574 -1.78623,-8.88724 -3.18372,-17.96312 -4.55859,-26.94599 -0.22186,-0.95259 0.38194,0.39701 0.60073,0.67311 2.7452,4.54855 5.53517,9.08244 8.64501,13.39228 1.75556,2.39922 4.03308,4.83769 7.1329,5.26556 3.53645,0.5653 7.41267,-1.31556 8.85411,-4.6564 1.70424,-3.42838 1.77533,-7.35161 1.95333,-11.09675 0.16398,-7.63284 0.96836,-15.23169 1.85076,-22.80935 0.77341,-6.45794 1.62813,-12.99353 2.07742,-19.51702 1.11638,-14.84806 1.41604,-29.74203 1.68572,-44.62513 0.44407,-29.23851 -0.001,-58.47989 -0.38002,-87.71636 -0.0473,-4.62704 -0.0452,-9.34523 0.12859,-13.89049 0.0575,-1.63741 0.16433,-3.54245 0.2754,-5.14553 0.21722,-3.04503 0.62519,-6.14934 1.27862,-9.04858 1.4235,-6.55791 4.84133,-12.42205 8.22124,-18.13651 2.31816,-3.86192 4.69804,-7.6894 6.98647,-11.56687 1.02803,-2.01352 0.99894,-4.449 0.16309,-6.52471 -0.56179,-2.56177 -2.53087,-4.67061 -4.97133,-5.57423 -5.76528,-2.68716 -11.52967,-5.3838 -17.28356,-8.09832 7.30466,0.17991 14.50288,1.51439 21.74458,2.35048 5.47683,0.59206 10.98789,0.96042 16.49871,0.91204 2.20104,-0.0364 4.40249,-0.1611 6.58874,-0.42268 0.62827,3.37944 2.6984,6.64837 5.95536,8.00666 3.15141,1.41568 6.80149,1.00195 9.9356,-0.24422 3.27429,-1.15742 6.44873,-2.66598 9.89325,-3.27305 7.09544,-1.51237 14.59543,-0.79017 21.35372,1.80344 3.95123,1.24126 8.01117,2.66145 12.2126,2.39744 3.75647,-0.43898 6.9128,-3.57721 7.56475,-7.27462 0.0156,-0.77178 0.36248,-0.88159 1.01307,-0.525 2.81165,0.9216 5.80458,1.13686 8.73867,0.84527 5.68742,-0.46 11.16209,-2.24201 16.82676,-2.87338 2.81474,-0.38066 5.5952,-0.66816 8.37609,-0.86624 3.0241,-0.21205 6.05544,-0.3301 9.08716,-0.33224 -5.8107,2.7304 -11.66635,5.36895 -17.45898,8.13477 -2.15678,1.11161 -3.43352,3.3798 -3.92666,5.68682 -0.86695,2.4683 -0.28968,5.29373 1.29662,7.34222 2.92336,4.79063 5.98694,9.49608 8.78043,14.36549 0.44691,0.79804 1.03041,1.8319 1.50953,2.73388 2.98676,5.26817 4.65603,11.1968 5.31291,17.19618 0.79821,7.97279 0.75377,16.0829 0.68476,24.15028 -0.16111,12.74805 -0.49667,25.49376 -0.58068,38.24301 -0.27802,28.21075 -0.18379,56.44509 1.39514,84.62037 0.49935,8.04545 1.24458,16.07555 2.24865,24.07386 0.12982,1.19908 0.28154,2.65182 0.41978,3.94841 0.60474,5.99451 1.22211,11.92289 1.43235,17.95461 0.11397,4.44595 -0.0289,9.08055 1.73967,13.25518 1.39261,3.1154 4.50207,5.46864 7.95965,5.6014 3.24644,0.19557 6.31778,-1.53106 8.40885,-3.9214 2.82377,-3.04205 4.77961,-6.74444 6.91608,-10.27101 0.83144,-1.42559 1.64113,-2.86359 2.44394,-4.30547 -1.52838,9.17959 -3.11723,18.33554 -4.90107,27.42396 -1.00676,5.07244 -2.04157,10.14419 -3.42631,15.12895 -0.80867,2.92602 0.21176,6.20764 2.47235,8.21426 2.1639,2.05988 5.48527,2.67906 8.26747,1.62278 3.36181,-1.26545 5.51577,-4.33568 7.58194,-7.10403 3.73544,-5.24829 6.61529,-11.03319 9.6085,-16.71935 6.64248,-12.97937 12.53947,-26.32243 18.25063,-39.73259 0.15152,5.10133 0.34823,10.21957 1.0864,15.27457 0.37764,2.59505 1.61571,5.16951 3.87028,6.62935 2.86488,2.00437 6.97107,1.93672 9.74961,-0.1982 3.06762,-2.21645 4.36129,-5.94625 5.67056,-9.33512 2.79842,-7.67335 4.65073,-15.64815 6.44737,-23.60302 2.86632,-13.12926 4.87475,-26.5653 4.24234,-40.03823 -0.49631,-12.66559 -2.96826,-25.15414 -5.90233,-37.45326 -0.90949,-3.74739 -1.86653,-7.48319 -2.8654,-11.20773 3.95781,4.10556 7.49741,8.62285 10.3815,13.54805 1.80089,2.86272 3.51544,5.78807 5.41038,8.58653 1.19686,1.30334 2.93035,2.00274 4.62023,2.39863 1.76451,0.11312 3.4959,-0.37426 5.20457,-0.73767 1.69948,-0.59504 3.0056,-1.97835 4.01258,-3.4179 0.90975,-1.84208 0.99341,-3.93927 1.46906,-5.9099 0.79283,-4.04033 0.4851,-8.16809 0.35605,-12.25139 -0.43022,-9.71074 -1.52663,-19.37945 -2.78891,-29.01294 -1.46158,-10.5596 -3.67323,-21.0091 -6.54347,-31.27458 -5.89262,-21.65011 -13.60543,-42.75427 -21.83646,-63.61059 -2.79872,-7.0146 -5.67618,-13.99735 -8.56678,-20.97449 2.09132,-1.12604 3.55725,-3.180452 4.17887,-5.448856 1.9035,-5.037452 3.42394,-10.207377 5.16488,-15.301142 1.88647,-5.553611 4.22757,-11.198475 7.44615,-16.211663 1.58679,-2.443466 3.41739,-4.744922 5.57729,-6.708258 0.3192,1.653853 0.4489,3.428494 0.4919,5.000398 0.0347,1.658688 0.006,3.264287 -0.0501,4.85756 -0.26564,5.901578 -1.13348,11.767424 -2.42615,17.52876 -0.28446,1.246695 -0.63723,2.724635 -0.99112,4.051828 -2.09839,8.32337 -5.65025,16.221123 -7.39755,24.639583 -0.75104,4.39387 2.78985,8.99808 7.25752,9.30589 3.12621,0.35916 6.1532,-1.38224 7.98293,-3.83846 2.71353,-3.37213 5.042,-7.03282 7.41705,-10.64587 3.20021,-5.01748 6.29539,-10.118097 8.95738,-15.444187 5.62211,-11.757568 8.38925,-24.85888 8.11234,-37.882131 -0.21445,-7.423717 -1.73007,-15.040127 -5.84557,-21.338558 -3.50057,-5.438844 -8.21198,-10.02851 -13.41526,-13.832989 -4.19591,-2.996195 -9.17274,-5.090018 -14.38107,-5.198861 -0.77257,-0.03857 -1.54644,-0.03084 -2.31969,-0.035 z" />
      <path
         id="path4418"
         style="opacity:1;fill:#aa4400;fill-opacity:1;fill-rule:evenodd;stroke-width:4.19571;stroke-linecap:round;stroke-linejoin:bevel"
         d="m 307.41211,140.1875 c -2.48876,0.26046 -4.09954,2.44634 -5.44928,4.32392 -2.18879,3.27048 -5.79582,5.24418 -9.39481,6.59657 -3.34434,1.06626 -6.90619,0.96675 -10.37301,1.1795 -4.57631,0.22074 -9.17165,0.18997 -13.73017,0.68517 -1.90808,0.19043 -3.80486,0.9824 -4.9934,2.54025 -2.69049,3.04784 -3.77746,7.10939 -4.61588,10.9951 -0.98657,4.75076 -1.18981,9.61043 -1.61142,14.43144 0.55807,0.68827 1.00767,1.53953 1.63051,2.13047 8.73183,2.09112 17.47153,4.15142 26.27519,5.92147 10.98364,2.35206 22.11553,4.09082 32.92627,7.19099 2.41474,0.7383 4.89808,1.47781 6.94438,3.01493 1.23712,0.88632 3.09107,1.40026 4.35477,0.27982 1.47968,-1.32189 1.38972,-3.50027 1.50656,-5.31807 0.0689,-5.47757 -0.17138,-10.95501 -0.40526,-16.42664 -0.20386,-4.15569 -0.67204,-8.3736 -2.33457,-12.23057 -2.64266,-6.5499 -6.21373,-12.7649 -10.77773,-18.16796 -2.01594,-2.22117 -4.02033,-4.53269 -6.53614,-6.20498 -1.01524,-0.63365 -2.20456,-1.06032 -3.41601,-0.94141 z" />
      <path
         id="path4420"
         style="opacity:1;fill:#aa4400;fill-opacity:1;fill-rule:evenodd;stroke-width:4.19571;stroke-linecap:round;stroke-linejoin:bevel"
         d="m 203.87891,140.75977 c -2.83508,0.2598 -4.99885,2.35877 -7.02868,4.15059 -3.65998,3.22422 -6.49013,7.2775 -8.6753,11.61596 -3.13199,6.00556 -5.52165,12.45658 -6.43293,19.19298 -1.12477,7.67673 -0.73445,15.45502 -0.80841,23.185 0.9681,0.5944 1.9362,1.1888 2.9043,1.7832 3.21803,-1.63714 6.41324,-3.37326 9.89384,-4.39901 7.60566,-2.3985 15.45734,-3.89005 23.2719,-5.42526 9.29354,-1.79721 18.67604,-3.24189 27.80961,-5.77085 2.90736,-0.89737 6.0089,-1.76218 8.29236,-3.88211 2.11131,-2.07705 2.30751,-5.27632 2.13752,-8.06378 -0.4139,-5.49234 -2.53119,-10.69418 -5.11424,-15.50053 -1.1644,-2.15098 -3.16518,-3.85783 -5.5697,-4.42728 -3.56144,-0.89268 -7.27097,-0.78151 -10.91433,-0.93324 -4.70695,-0.16357 -9.4677,-0.10021 -14.10188,-1.04911 -2.59045,-0.51078 -4.95746,-1.89133 -6.72459,-3.84691 -2.17233,-2.20122 -3.81785,-5.18867 -6.84214,-6.33935 -0.66995,-0.23794 -1.38787,-0.33784 -2.09733,-0.2903 z" />
      <path
         id="path4422"
         style="opacity:1;fill:#aa4400;fill-opacity:1;fill-rule:evenodd;stroke-width:4.19571;stroke-linecap:round;stroke-linejoin:bevel"
         d="m 185.85938,258.15625 c -1.57294,0.16393 -2.41528,1.86489 -2.21743,3.31068 0.64094,3.67652 0.7164,7.42487 0.9656,11.14359 0.65116,12.48804 1.08301,25.11034 1.48554,37.61546 0.61481,18.29429 0.88528,36.59938 1.66972,54.88757 0.35397,6.43828 0.57008,12.92077 1.79091,19.26796 0.84714,4.68129 3.17809,8.9482 6.06207,12.67958 2.57062,3.27506 5.50234,6.42444 9.20648,8.41938 5.79828,2.84722 12.25506,3.96494 18.61739,4.7151 8.99281,0.93661 18.04755,1.02501 27.08102,1.071 12.65991,-0.0128 25.32913,-0.3167 37.95459,-1.28565 4.93718,-0.45955 9.9899,-0.76692 14.65364,-2.60006 6.91938,-2.55138 13.083,-7.53768 16.3231,-14.24221 3.164,-6.43947 3.81083,-13.70431 4.34487,-20.75388 0.92152,-14.4357 1.06955,-28.90506 1.43886,-43.36179 0.38551,-14.92322 0.75421,-29.81172 1.45371,-44.72189 0.33933,-6.93522 0.79071,-13.86988 0.86246,-20.81434 -0.0978,-1.44811 0.23254,-3.12695 -0.79605,-4.31878 -0.64393,-0.4162 -1.42091,-0.86402 -2.18438,-0.47659 -1.29676,0.44534 -1.77076,1.90004 -2.33906,3.0176 -1.91955,5.03546 -3.23955,10.27331 -4.6514,15.46722 -2.29392,8.71513 -4.26243,17.52833 -5.45551,26.46725 -2.8694,21.04204 -4.06748,42.26206 -6.34606,63.36844 -0.47176,4.17619 -0.95664,8.36663 -1.66303,12.45233 -0.61908,3.29039 -1.18406,6.69362 -2.83908,9.65101 -0.82454,1.35638 -2.08195,2.59851 -3.72265,2.8125 -5.03131,1.00655 -10.17905,1.20705 -15.28903,1.50555 -16.44516,0.74458 -33.1227,0.4874 -49.60596,-0.0646 -5.34648,-0.21929 -10.70497,-0.33803 -16.03324,-0.84777 -2.11667,-0.26296 -4.32203,-1.12645 -5.4864,-3.01932 -1.83727,-2.87001 -2.48673,-6.29597 -3.16856,-9.58307 -1.62104,-8.98657 -2.32888,-18.10391 -3.16128,-27.1882 -1.30881,-15.1822 -2.38005,-30.41508 -4.34386,-45.54394 -1.61306,-12.19335 -4.29087,-24.24004 -7.83004,-36.01614 -1.21037,-3.80614 -2.32387,-7.6774 -4.09973,-11.26744 -0.50391,-1.01435 -1.46417,-1.90955 -2.67721,-1.74654 z" />
      <path
         style="fill:#000000;stroke-width:2.1014"
         d="m 237.89273,493.54327 c -29.76828,-18.99307 -52.30829,-41.27922 -64.60033,-63.87276 -2.4507,-4.50449 -5.04942,-8.19745 -5.77493,-8.20658 -2.43531,-0.0306 -4.13518,7.40838 -5.30493,23.21524 l -1.16167,15.69802 -5.96845,-9.24044 c -10.31832,-15.97505 -23.55929,-45.21 -29.55979,-65.26554 -5.50709,-18.40643 -5.84071,-18.95944 -7.10631,-11.7793 -1.78178,10.1086 -4.64595,16.90658 -10.66048,25.30227 l -5.01888,7.00587 -1.25304,-11.10102 c -1.25141,-11.08653 -2.376963,-13.87288 -16.574553,-41.03056 -9.321749,-17.831 -14.35272,-41.1416 -12.562117,-58.20541 0.714331,-6.80735 0.715932,-12.37699 0.0044,-12.37699 -0.712353,0 -5.255814,3.40523 -10.096508,7.56716 l -8.801302,7.56718 -1.15107,-6.03874 c -3.039112,-15.94375 -3.835726,-54.97431 -1.54415,-75.65632 2.859901,-25.81161 7.752746,-44.13609 17.974547,-67.31769 l 7.304718,-16.56607 -8.613908,-10.26785 C 38.882651,88.952593 32.050327,35.235838 53.963786,17.149826 70.488768,3.5111338 94.674877,6.469541 133.6652,26.898772 l 18.1668,9.51861 18.76001,-9.838258 C 203.23378,9.4609209 228.23755,6.2916151 247.84479,16.787093 l 8.18071,4.379024 8.1807,-4.379024 c 19.54672,-10.4630799 44.13523,-7.3464418 77.18749,9.78365 l 18.69473,9.688991 21.30932,-10.868576 c 36.2485,-18.4881339 61.04547,-21.1529099 76.68945,-8.241332 21.87782,18.05658 14.98114,71.921976 -13.5653,105.949524 l -8.50852,10.14224 7.30472,16.56607 c 10.2218,23.1816 15.11464,41.50608 17.97454,67.31769 2.28551,20.62739 1.49669,59.7035 -1.52527,75.55735 l -1.13219,5.93977 -8.68619,-7.46819 c -4.77794,-4.10753 -9.32987,-7.46821 -10.11594,-7.46821 -0.78605,0 -0.84475,5.56964 -0.13055,12.37699 1.7906,17.06381 -3.24037,40.37441 -12.56212,58.20541 -14.19785,27.15818 -15.32315,29.94407 -16.575,41.03448 l -1.25348,11.10493 -6.21222,-8.86331 c -3.41671,-4.87482 -7.27239,-13.80244 -8.56816,-19.83911 l -2.35593,-10.97581 -5.71343,19.22734 c -5.92519,19.94006 -19.14775,49.16018 -29.49483,65.17976 l -5.96844,9.24044 -1.16167,-15.69802 c -1.16975,-15.80686 -2.86963,-23.24585 -5.30494,-23.21524 -0.72551,0.009 -3.32422,3.70209 -5.77492,8.20658 -7.92551,14.56758 -22.98761,32.22218 -38.01838,44.56212 -16.01014,13.144 -40.74459,29.03836 -45.07209,28.96335 -1.49561,-0.0258 -9.49405,-4.36964 -17.7743,-9.65271 z m 65.31649,-87.6395 c 17.59666,-7.92788 20.27784,-17.2732 20.55168,-71.63348 0.1192,-23.67772 0.89365,-50.13861 1.72082,-58.80196 0.82714,-8.66338 0.90413,-16.14052 0.17109,-16.61591 -1.79911,-1.16666 -9.41621,26.87794 -12.00674,44.20633 -1.15039,7.69526 -3.10593,27.55225 -4.34562,44.12667 -2.51127,33.5753 -4.62624,43.15256 -10.22359,46.2957 -2.13609,1.19948 -21.01212,2.13599 -43.05191,2.13599 -22.0398,0 -40.91584,-0.93651 -43.05189,-2.13599 -5.68418,-3.19191 -7.8342,-12.95908 -10.3146,-46.85731 -1.23537,-16.88329 -3.06619,-35.98356 -4.06845,-42.44505 -2.97284,-19.16536 -10.56198,-46.38393 -12.56982,-45.0819 -1.02539,0.66492 -1.26369,2.22867 -0.52958,3.47499 0.73412,1.24633 1.90341,29.02762 2.59843,61.73621 1.15179,54.20369 1.627,60.11743 5.36607,66.77901 9.3611,16.67785 18.24394,19.10353 67.69855,18.48664 25.71765,-0.32079 36.76074,-1.28445 42.05556,-3.66994 z M 150.1105,393.36461 c -2.44949,-7.45984 -4.46036,-19.18293 -12.16722,-70.93319 -1.08631,-7.29443 -0.94771,-7.19182 4.36175,3.22878 10.75617,21.11064 24.26384,44.12667 25.89707,44.12667 0.91314,0 1.66024,-4.67256 1.66024,-10.38346 0,-5.71092 1.47587,-20.48258 3.27968,-32.82592 3.86414,-26.44186 4.61584,-70.57301 2.06893,-121.46441 -2.10975,-42.15635 -0.33783,-52.7277 12.08445,-72.09623 8.17363,-12.7441 8.23232,-12.92231 4.25666,-12.92231 -1.61048,0 -9.12709,-3.39022 -16.70354,-7.53382 -7.57647,-4.1436 -15.2597,-7.61249 -17.07387,-7.70864 -1.84505,-0.0977 -0.58658,-1.47774 2.85599,-3.13169 8.23874,-3.958236 26.45243,-3.890695 43.09829,0.15994 11.98438,2.91626 14.32271,2.93591 19.61646,0.1651 5.95906,-3.119172 6.01018,-3.092402 6.01018,3.14664 0,7.2234 0.90317,7.47572 10.96677,3.06381 4.05067,-1.77583 11.11684,-3.22878 15.70261,-3.22878 4.58575,0 11.65192,1.45295 15.70259,3.22878 10.06361,4.41191 10.96678,4.15959 10.96678,-3.06381 0,-6.239042 0.0511,-6.265812 6.01017,-3.14664 5.29377,2.77092 7.63207,2.75126 19.61646,-0.1651 16.64585,-4.050548 34.85955,-4.118089 43.09829,-0.15994 3.44256,1.65395 4.70103,3.03389 2.85598,3.13169 -1.81415,0.0962 -9.49739,3.56504 -17.07385,7.70864 -7.57646,4.1436 -15.09307,7.53382 -16.70354,7.53382 -3.97567,0 -3.91698,0.17822 4.25665,12.92231 12.42228,19.36853 14.1942,29.93988 12.08444,72.09623 -2.49567,49.86805 -1.70878,94.57837 2.13779,121.46441 1.76596,12.34334 3.21082,27.115 3.21082,32.82592 0,5.7109 0.69239,10.38174 1.53862,10.37961 2.0256,-0.004 11.73064,-16.19122 22.56446,-37.63318 l 8.71689,-17.25224 -1.21561,9.68635 c -3.10318,24.72691 -9.47409,61.53727 -11.96167,69.11305 -1.51297,4.60773 -2.04523,8.37768 -1.1828,8.37768 5.02901,0 19.51539,-27.63877 35.82056,-68.34252 5.33522,-13.31872 9.84464,-24.21634 10.02095,-24.21692 0.17623,-6.1e-4 0.052,8.47494 -0.2765,18.83454 -0.59954,18.91436 2.06429,41.04694 4.21007,34.97953 17.03481,-48.1678 17.73801,-80.4802 2.69752,-123.95684 -2.62656,-7.59244 -4.10548,-13.80444 -3.28647,-13.80444 2.12433,0 16.84755,11.51902 20.91958,16.3669 1.88582,2.24511 5.74902,8.37724 8.58488,13.62691 l 5.15609,9.5449 1.42664,-5.964 c 1.76637,-7.38441 -0.41416,-33.88173 -4.4428,-53.98794 -4.65223,-23.21855 -17.93396,-62.97125 -31.3335,-93.78231 -6.66645,-15.328932 -11.79284,-27.870791 -11.39197,-27.870791 0.40089,0 3.03605,3.562509 5.85593,7.916695 3.45,5.327187 5.43522,6.911368 6.06922,4.843168 0.51821,-1.690433 2.54202,-8.401005 4.49739,-14.912377 4.44716,-14.809146 11.09695,-26.058927 18.35178,-31.046573 4.59325,-3.157812 5.90781,-3.32461 7.33048,-0.930148 6.09488,10.258093 3.42329,36.894147 -5.75787,57.406246 -2.81581,6.291 -4.71738,11.86025 -4.22569,12.37617 1.60659,1.68568 14.30282,-16.46318 20.24414,-28.938344 6.90414,-14.496839 9.34527,-32.266344 6.14427,-44.725431 -2.76761,-10.772293 -13.51129,-21.456307 -23.56642,-23.435559 -12.95848,-2.550742 -41.99331,9.371154 -58.66059,24.086416 -5.11653,4.5173 -5.71084,6.081494 -4.05097,10.662228 1.49139,4.115876 1.35052,4.968748 -0.60388,3.655647 -1.402,-0.941964 -9.06617,-6.241081 -17.03149,-11.775814 C 319.07895,24.871502 289.59488,23.829379 261.72948,45.44573 l -5.70453,4.425257 -5.70454,-4.425257 c -27.86539,-21.616351 -57.34948,-20.574228 -91.61931,3.238293 -7.96531,5.534733 -15.62948,10.83385 -17.03148,11.775814 -1.95439,1.313101 -2.09527,0.460229 -0.60388,-3.655647 1.65986,-4.580734 1.06557,-6.144928 -4.05098,-10.662228 C 127.42039,37.67126 110.2845,28.194021 97.657308,24.37481 53.410689,10.991998 37.686816,62.414669 71.827168,108.84856 c 4.591984,6.2455 8.775208,10.90835 9.296032,10.36189 0.520809,-0.54648 -1.356912,-6.14074 -4.172731,-12.43174 -9.21261,-20.582368 -11.852239,-47.147378 -5.711916,-57.484253 1.460739,-2.459061 2.930139,-2.136032 8.202776,1.803317 6.667464,4.981448 14.201812,18.620655 18.494612,33.480189 1.368061,4.735551 2.891469,9.934649 3.385369,11.553565 0.61436,2.013747 2.29603,0.993909 5.32406,-3.228778 7.60359,-10.60346 8.4316,-10.79809 3.68244,-0.865617 C 94.294265,125.57007 75.990934,177.60151 70.535893,205.1548 c -4.006832,20.23842 -6.162488,46.6479 -4.406742,53.98794 l 1.426625,5.964 5.156091,-9.5449 c 2.835859,-5.24967 6.699059,-11.3818 8.584873,-13.62691 4.072048,-4.84788 18.79527,-16.3669 20.9196,-16.3669 0.81899,0 -0.65993,6.212 -3.286488,13.80444 -15.040476,43.47664 -14.337293,75.78904 2.697528,123.95684 2.14577,6.06741 4.80962,-16.06517 4.21006,-34.97953 -0.32838,-10.3596 -0.47332,-18.83515 -0.32211,-18.83454 0.1512,5.8e-4 5.11526,11.86683 11.03116,26.36944 13.54251,33.1989 21.62363,50.28136 28.00281,59.1943 6.78892,9.48545 9.01354,8.79964 5.5612,-1.71437 z m 81.79044,-5.44075 c 1.62137,-1.70123 44.85089,-1.54687 49.09445,0.17521 5.76104,2.33798 12.05004,-3.03206 17.23502,-14.71654 4.04431,-9.11398 6.82502,-25.12095 4.36397,-25.12095 -0.33814,0 -6.50164,5.71582 -13.69665,12.70182 -7.19501,6.98601 -14.3037,12.20986 -15.79711,11.60857 -1.49337,-0.60119 -2.71524,-0.0512 -2.71524,1.2221 0,1.27338 -1.38477,1.7577 -3.07725,1.07625 -1.69246,-0.68146 -3.07723,-0.10954 -3.07723,1.27085 0,1.4713 -1.06111,1.81279 -2.56436,0.82533 -3.47819,-2.28484 -8.183,-2.26581 -11.2832,0.0457 -1.64905,1.2295 -2.56436,0.96734 -2.56436,-0.73444 0,-1.468 -1.37026,-2.09468 -3.07723,-1.40738 -1.69248,0.68145 -3.07724,0.2583 -3.07724,-0.94032 0,-1.19864 -1.23958,-1.89473 -2.75457,-1.54685 -2.67382,0.61393 -6.6164,-2.5478 -21.35522,-17.1258 -3.89008,-3.84761 -7.44213,-6.99567 -7.89346,-6.99567 -2.63212,0 -0.0531,15.63063 4.13699,25.07291 5.62047,12.66561 13.71711,19.19082 18.10269,14.58928 z m 43.69803,-30.79307 c 10.1177,-4.82219 18.53128,-14.91033 21.36549,-25.61799 2.8565,-10.79175 2.77681,-45.00832 -0.10915,-46.87979 -1.23801,-0.80283 -6.39988,-8.18914 -11.4708,-16.41404 -5.07094,-8.22492 -10.66401,-15.53582 -12.42904,-16.24649 -4.51295,-1.81707 -9.88224,5.92892 -13.02324,18.78794 -1.44732,5.92522 -3.20558,10.77313 -3.9073,10.77313 -0.70171,0 -2.45999,-4.84791 -3.9073,-10.77313 -3.14099,-12.85902 -8.51027,-20.60501 -13.02322,-18.78794 -1.76505,0.71067 -7.3581,8.02157 -12.42904,16.24649 -5.07094,8.2249 -10.23279,15.61121 -11.4708,16.41404 -2.88598,1.87147 -2.96566,36.08804 -0.10915,46.87979 4.72856,17.86441 20.93443,29.56945 40.93951,29.56945 6.56812,0 14.74782,-1.65126 19.57403,-3.95146 z M 211.61491,244.91584 c 0.68899,-3.6146 2.73937,-11.93774 4.55639,-18.49589 3.13649,-11.32053 3.49233,-11.74477 7.03168,-8.38393 3.34196,3.17335 4.33548,3.21035 9.59394,0.35718 5.04539,-2.73758 6.41552,-2.76108 9.79521,-0.16811 3.35347,2.57287 4.56561,2.57721 8.27112,0.0298 3.63065,-2.49604 5.16503,-2.51731 9.36761,-0.13001 4.23166,2.40391 5.75516,2.35938 9.64164,-0.28183 4.08754,-2.77783 5.20889,-2.72915 9.79714,0.42524 4.81525,3.31045 5.44555,3.31119 8.92175,0.0102 3.56584,-3.38596 3.95356,-2.77114 8.3056,13.16955 6.70647,24.56459 6.42949,24.10647 9.6977,16.03966 4.31826,-10.65901 8.92347,-30.49711 8.92347,-38.44057 0,-4.49921 -1.28451,-7.69896 -3.59011,-8.94308 -8.43574,-4.55199 -103.29409,-4.53814 -111.80622,0.0173 -5.18037,2.77178 -4.60603,15.39302 1.6453,36.15651 5.40577,17.95508 7.68998,19.95877 9.84778,8.63848 z m 7.57492,-56.12838 c 31.36158,-5.28044 34.78362,-6.68944 34.78362,-14.32209 0,-3.30346 -1.72589,-9.38139 -3.83533,-13.50653 -3.80885,-7.44851 -3.92067,-7.49524 -16.21523,-6.77594 -12.96866,0.75874 -20.01671,-1.69657 -24.68567,-8.59972 -3.68807,-5.45286 -6.91262,-4.97599 -13.2265,1.956 -8.74661,9.60287 -13.74387,23.65911 -13.79438,38.80063 l -0.0451,13.50852 6.45078,-3.5001 c 3.54794,-1.92507 17.30343,-5.32739 30.56777,-7.56077 z m 107.47465,-23.0894 c -3.84357,-10.55984 -14.19485,-24.07832 -18.43711,-24.07832 -1.51954,0 -3.50103,1.30047 -4.40334,2.88996 -4.03227,7.10309 -12.67595,10.43621 -25.12654,9.68909 -10.90735,-0.65452 -12.7106,-0.17802 -15.5782,4.11719 -1.78366,2.67156 -3.41717,8.96768 -3.63006,13.99138 l -0.38705,9.134 14.36044,3.4836 c 7.89823,1.91596 21.12872,4.59018 29.40108,5.94267 8.27237,1.35253 17.50408,3.81849 20.5149,5.47993 l 5.47424,3.02082 0.62803,-12.10352 c 0.39519,-7.61612 -0.64899,-15.61204 -2.81639,-21.5668 z m -60.12715,-29.62852 c 5.90887,-2.23648 12.48236,-2.99645 19.23422,-2.22366 l 10.25745,1.17397 -5.12872,-4.18706 c -7.64153,-6.23849 -16.36749,-7.27828 -26.25263,-3.12824 -8.07881,3.39169 -9.16659,3.39169 -17.24542,0 -9.77534,-4.10394 -18.56953,-3.11996 -26.04801,2.91452 l -4.92413,3.97331 10.05286,-0.94311 c 6.06948,-0.56942 13.30438,0.3363 18.2588,2.28574 10.57243,4.16001 11.15071,4.16358 21.79558,0.13451 z m -1.41856,-17.29451 c 16.43287,1.2576 18.25933,-0.35894 5.47335,-4.84427 -8.86718,-3.1106 -21.79778,-2.87742 -30.85525,0.5564 -10.72318,4.06534 -10.51807,7.83485 0.2828,5.19739 4.85378,-1.18525 16.14838,-1.59453 25.0991,-0.90952 z"
         id="path249" />
      <g
         id="g4945"
         transform="translate(7.6293945e-6,-1.5251285)">
        <path
           id="path4776"
           style="opacity:1;fill:#ff0000;fill-opacity:1;fill-rule:evenodd;stroke-width:4.19571;stroke-linecap:round;stroke-linejoin:bevel"
           d="m 240.10938,250.21289 c -2.11758,0.2016 -3.51286,2.02876 -4.87696,3.45703 -3.94787,5.01257 -7.49725,10.32349 -11.14387,15.55562 -3.75651,5.55245 -7.6084,11.05096 -11.03582,16.81548 -0.82683,2.02307 -0.82953,4.26487 -1.03693,6.41306 -0.51386,8.75936 -0.48019,17.54764 -0.10452,26.31193 0.21711,4.68054 0.55452,9.41287 2.01035,13.8985 3.24334,10.70223 11.04439,19.85772 20.97616,24.95286 5.47419,2.8922 11.58007,4.3929 17.7188,4.96732 5.36997,0.58374 10.75797,-0.44773 15.95372,-1.73508 4.76579,-1.25906 9.53648,-2.95103 13.45517,-6.0298 5.02765,-3.842 9.38752,-8.61572 12.57999,-14.08934 2.42461,-4.35086 4.14101,-9.11805 4.75963,-14.07314 0.9593,-7.39934 0.85366,-14.88062 0.91024,-22.32686 -0.0368,-4.89534 0.12607,-9.80242 -0.25382,-14.6876 -0.13777,-2.02932 -0.80858,-4.02734 -2.12058,-5.6032 -5.89211,-8.3557 -11.36467,-16.99663 -17.27203,-25.34045 -1.96714,-2.6091 -3.82512,-5.41142 -6.48047,-7.38086 -1.4892,-1.11754 -3.63139,-1.3589 -5.22459,-0.31316 -2.80095,1.77374 -4.57037,4.71978 -6.12307,7.56511 -2.43461,4.56725 -3.58638,9.6448 -5.19865,14.52646 -0.52028,1.63756 -1.04176,3.27505 -1.61385,4.89542 -2.68801,-7.42008 -4.17345,-15.36868 -8.32031,-22.1875 -1.55375,-2.50453 -3.71546,-5.05121 -6.7793,-5.56836 -0.25844,-0.033 -0.51934,-0.0395 -0.77929,-0.0234 z" />
        <rect
           style="fill:#2f2fff;fill-opacity:1;fill-rule:evenodd;stroke-width:2.13458;stroke-linecap:round;stroke-linejoin:bevel"
           id="rect303"
           width="200.90431"
           height="116.76088"
           x="155.54784"
           y="240.40347"
           ry="8.9749022" />
        <rect
           style="fill:#ffffff;fill-opacity:1;fill-rule:evenodd;stroke-width:1.7973;stroke-linecap:round;stroke-linejoin:bevel"
           id="rect303-3"
           width="185.37273"
           height="89.713829"
           x="163.31363"
           y="257.57584"
           ry="0" />
        <rect
           style="fill:#ff0000;fill-opacity:1;fill-rule:evenodd;stroke-width:2.84197;stroke-linecap:round;stroke-linejoin:bevel"
           id="rect3291"
           width="17.11936"
           height="12.79285"
           x="325.43839"
           y="242.40604"
           ry="2.8833981" />
        <g
           aria-label="X"
           id="text3345"
           style="font-size:133.333px;line-height:1.25;white-space:pre;shape-inside:url(#rect3347);fill:#ffffff"
           transform="matrix(0.27985503,0,0,0.19994001,105.65852,242.96852)">
          <path
             d="M 838.15419,52.97849 H 826.62085 L 815.55418,34.978481 804.48751,52.97849 H 793.6875 L 809.48751,28.445144 794.6875,5.378465 h 11.13334 l 10.26667,17.133343 10.06667,-17.133343 h 10.86668 l -14.93334,23.600013 z"
             style="font-weight:bold;font-size:66.6667px;-inkscape-font-specification:'sans-serif Bold';fill:#ffffff"
             id="path3353" />
        </g>
        <path
           id="rect3356"
           style="fill:#8b8bff;fill-opacity:1;fill-rule:evenodd;stroke-width:1.92044;stroke-linecap:round;stroke-linejoin:bevel"
           d="m 167.26143,242.67527 c -1.59459,0 -2.87831,1.04091 -2.87831,2.33389 v 7.58662 c 0,1.29298 1.28372,2.33388 2.87831,2.33388 h 7.89098 c 1.59459,0 2.87831,-1.0409 2.87831,-2.33388 v -7.58662 c 0,-1.29298 -1.28372,-2.33389 -2.87831,-2.33389 z m 15.0905,0 c -1.59458,0 -2.87831,1.04091 -2.87831,2.33389 v 7.58662 c 0,1.29298 1.28373,2.33388 2.87831,2.33388 h 7.89099 c 1.59458,0 2.8783,-1.0409 2.8783,-2.33388 v -7.58662 c 0,-1.29298 -1.28372,-2.33389 -2.8783,-2.33389 z m 14.95471,0 c -1.59458,0 -2.8783,1.04091 -2.8783,2.33389 v 7.58662 c 0,1.29298 1.28372,2.33388 2.8783,2.33388 h 7.89016 c 1.59458,0 2.87831,-1.0409 2.87831,-2.33388 v -7.58662 c 0,-1.29298 -1.28373,-2.33389 -2.87831,-2.33389 z" />
        <path
           id="rect4191"
           style="fill-rule:evenodd;stroke-width:3.16992;stroke-linecap:round;stroke-linejoin:bevel"
           d="m 168.00783,265.32865 v 74.20821 h 77.59295 v -74.20821 z m 7.13538,10.53982 h 13.89541 c 5.60698,0 9.69113,1.48807 12.25083,4.46444 2.60033,2.92676 3.90034,6.97004 3.90034,12.12908 0,3.07557 -0.52805,5.97753 -1.58444,8.70586 -1.05639,2.67873 -2.82468,4.83727 -5.30311,6.47428 -2.43782,1.637 -5.76953,2.45461 -9.99508,2.45461 h -3.96049 v 18.9003 h -9.20346 z m 38.27435,0 h 25.04783 v 9.22711 h -15.84558 v 11.68174 h 14.74839 v 9.22712 h -14.74839 v 13.69157 h 15.84558 v 9.30103 h -25.04783 z m -29.07089,9.22711 v 15.77532 h 3.04616 c 2.60034,0 4.65277,-0.62056 6.15609,-1.86072 1.54395,-1.28975 2.31591,-3.3485 2.31591,-6.17605 0,-5.15903 -2.43782,-7.73855 -7.31344,-7.73855 z" />
        <path
           id="rect4209"
           style="fill:#000000;fill-opacity:1;fill-rule:evenodd;stroke-width:1.6792;stroke-linecap:round;stroke-linejoin:bevel"
           d="m 252.02592,275.10273 v 16.26298 h 49.82265 v -16.26298 z m 0,19.26237 v 16.26214 H 341.8737 V 294.3651 Z m 0,19.13468 v 16.26299 h 26.31929 v -16.26299 z" />
      </g>
      <path
         id="path4429"
         style="opacity:1;fill:#d35f5f;fill-opacity:1;fill-rule:evenodd;stroke-width:4.19571;stroke-linecap:round;stroke-linejoin:bevel"
         d="m 275.4375,123.88477 c -6.32425,0.28705 -12.23149,2.80086 -18.17219,4.74529 -0.60393,0.14911 -1.20757,0.62907 -1.812,0.23182 -6.07621,-2.01085 -12.13622,-4.50494 -18.61045,-4.79681 -5.0749,-0.32085 -10.21316,1.06923 -14.44634,3.88349 -2.00004,1.27284 -3.77293,2.85447 -5.59769,4.35808 0.44075,1.17904 0.88151,2.35807 1.32226,3.53711 5.73411,-0.0827 11.46808,-0.34949 17.20313,-0.26172 3.02447,0.0114 5.96229,0.83263 8.76385,1.91363 4.18571,1.51507 8.56332,3.19578 13.09916,2.61979 5.67909,-0.66048 10.88374,-3.28087 16.47683,-4.32053 2.92585,-0.46649 5.90798,-0.29478 8.793,-0.20552 3.3108,0.0647 6.62854,0.38829 9.93747,0.1606 1.35068,-0.0435 2.70511,-1.17627 2.51443,-2.60758 -0.24255,-1.66974 -1.80055,-2.69892 -3.07107,-3.61117 -4.32907,-2.80245 -9.11681,-5.34839 -14.37109,-5.625 -0.67584,-0.0383 -1.35279,-0.0428 -2.0293,-0.0215 z" />
      <path
         id="path4847"
         style="opacity:1;fill:#ffffff;fill-opacity:1;fill-rule:evenodd;stroke-width:4.19571;stroke-linecap:round;stroke-linejoin:bevel"
         d="m 208.99414,347.1582 c -1.28762,0.34937 -1.88149,1.70734 -1.90601,2.9443 -0.14407,3.50184 0.5015,6.98486 1.19468,10.4035 1.69423,7.60606 4.50715,15.03214 8.77371,21.57845 2.15709,3.15267 4.70024,6.32321 8.27942,7.90383 1.66173,0.77851 3.63656,1.10111 5.35773,0.30893 1.18154,-0.54764 2.34369,-1.2014 3.67709,-1.27996 2.62325,-0.32647 5.23439,-0.34098 7.82141,-0.39865 8.48011,-0.0812 16.96261,-0.0705 25.44064,0.15288 3.51806,0.11243 7.19142,0.21668 10.75754,0.52849 1.84343,0.1977 3.66348,0.75268 5.53738,0.53597 3.95598,-0.26721 7.35862,-2.78618 9.75221,-5.8036 2.74389,-3.45691 4.81541,-7.41504 6.45287,-11.50082 2.03555,-5.4531 3.57968,-11.11013 4.4155,-16.87431 0.35987,-2.13284 0.24727,-4.29514 0.009,-6.43341 0.19576,-0.80214 -0.62848,-0.83744 -1.17571,-1.081 -0.74759,-0.28653 -1.49518,-0.57306 -2.24277,-0.8596 -6.6904,6.21766 -13.17571,12.67049 -20.20135,18.51587 -2.18523,1.71879 -4.33655,3.60585 -6.93732,4.66773 -1.02115,0.1828 -2.10478,0.20535 -3.03452,0.74496 -1.03783,0.4665 -1.82959,1.31949 -2.4772,2.21988 -1.33815,-0.31155 -2.84113,-0.37918 -4.03862,0.42101 -0.68843,0.39744 -1.19688,1.02294 -1.67232,1.6454 -2.19972,-0.69469 -4.41549,-1.51729 -6.7582,-1.50423 -2.36352,-0.0742 -4.68634,0.63726 -6.73789,1.77962 -0.81028,-1.84422 -2.94432,-2.9095 -4.8934,-2.32598 -0.41325,0.0553 -1.01172,0.39269 -1.18285,-0.21087 -1.14096,-1.81949 -3.33382,-2.73327 -5.43112,-2.68499 -1.67418,-0.29527 -2.93922,-1.58341 -4.25044,-2.56918 -7.46537,-6.37269 -14.18373,-13.57705 -21.76506,-19.8184 -0.68946,-0.5783 -1.4807,-1.12745 -2.42826,-1.01269 -0.11165,0.003 -0.22789,-0.0374 -0.33598,0.007 z" />
      <path
         id="path4918"
         style="opacity:1;fill:#ffffff;fill-opacity:1;fill-rule:evenodd;stroke-width:4.19571;stroke-linecap:round;stroke-linejoin:bevel"
         d="m 251.68555,195.25195 c -12.90592,0.0951 -25.8232,0.29642 -38.69822,1.25196 -3.64773,0.34148 -7.34829,0.55181 -10.89504,1.52807 -1.94596,0.66354 -4.18357,1.40073 -5.24073,3.31568 -1.30148,2.58542 -1.41327,5.56745 -1.51208,8.40621 -0.11548,5.72139 0.89147,11.3936 2.32051,16.91395 1.83284,7.15972 3.85239,14.28983 6.4904,21.19937 0.77301,1.73671 1.39773,3.70178 2.91577,4.94622 1.24865,1.02234 3.29363,0.46806 3.89914,-1.01677 1.19963,-2.90071 1.91296,-5.97677 2.74185,-8.99812 1.54975,-6.05235 2.87883,-12.04689 4.6131,-18.05039 0.68849,-2.21595 1.26055,-4.51284 2.42584,-6.53719 2.13111,1.40705 4.14644,3.44961 6.86587,3.49987 2.882,4.1e-4 5.38641,-1.66209 7.90203,-2.82598 1.05457,-0.44915 2.14715,-1.2069 3.33953,-1.01374 1.87728,0.74374 3.42234,2.11215 5.12189,3.17567 0.55442,0.39264 1.08518,0.85428 1.81321,0.74033 0.67841,0.0557 1.37184,0.18464 1.94268,-0.28325 2.38914,-1.12001 4.64594,-2.59531 7.208,-3.29756 1.81235,-0.55503 3.45253,0.63857 4.88589,1.57734 3.50483,2.00235 8.04127,1.28576 11.28164,-0.917 1.24764,-0.87505 2.85406,-1.4113 4.34682,-0.85725 2.86982,0.93579 5.36587,2.70206 8.01638,4.10419 0.6837,0.52511 1.58145,0.065 2.37025,0.10643 0.72161,-0.0481 1.15309,-0.81068 1.7482,-1.17031 1.05061,-0.81586 2.01836,-1.76254 3.18691,-2.41101 1.33992,1.9491 1.88847,4.30822 2.66016,6.51563 2.26667,7.33108 4.11113,14.79257 6.40625,22.14258 0.67698,1.83292 1.1176,3.88833 2.51172,5.33593 1.09581,1.09404 3.06341,0.78472 3.85328,-0.52018 1.20844,-1.91803 1.82008,-4.14159 2.59547,-6.25636 2.44202,-7.36558 4.60458,-14.83628 6.21853,-22.42951 1.09163,-5.62177 1.98278,-11.37353 1.48897,-17.11231 -0.24696,-2.39326 -0.88587,-5.08849 -3.05469,-6.4707 -2.53288,-1.79818 -5.6416,-2.41692 -8.66934,-2.76164 -8.92759,-1.0415 -17.92326,-1.30181 -26.90044,-1.57328 -8.73117,-0.22251 -17.46595,-0.29427 -26.19975,-0.25688 z" />
    </g>
  </g>
</svg>
