<?xml version="1.0" encoding="UTF-8" standalone="no"?>
<svg
   viewBox="0 0 512 512"
   height="512"
   width="512"
   id="svg869"
   version="1.1"
   sodipodi:docname="photon.svg"
   inkscape:version="1.1.2 (0a00cf5339, 2022-02-04)"
   xmlns:inkscape="http://www.inkscape.org/namespaces/inkscape"
   xmlns:sodipodi="http://sodipodi.sourceforge.net/DTD/sodipodi-0.dtd"
   xmlns="http://www.w3.org/2000/svg"
   xmlns:svg="http://www.w3.org/2000/svg"
   xmlns:rdf="http://www.w3.org/1999/02/22-rdf-syntax-ns#"
   xmlns:cc="http://creativecommons.org/ns#"
   xmlns:dc="http://purl.org/dc/elements/1.1/">
  <sodipodi:namedview
     id="namedview888"
     pagecolor="#505050"
     bordercolor="#eeeeee"
     borderopacity="1"
     inkscape:pageshadow="0"
     inkscape:pageopacity="0"
     inkscape:pagecheckerboard="0"
     showgrid="false"
     inkscape:zoom="0.61997226"
     inkscape:cx="360.5"
     inkscape:cy="360.5"
     inkscape:window-width="1366"
     inkscape:window-height="695"
     inkscape:window-x="0"
     inkscape:window-y="24"
     inkscape:window-maximized="1"
     inkscape:current-layer="svg869" />
  <metadata
     id="metadata875">
    <rdf:RDF>
      <cc:Work
         rdf:about="">
        <dc:format>image/svg+xml</dc:format>
        <dc:type
           rdf:resource="http://purl.org/dc/dcmitype/StillImage" />
      </cc:Work>
    </rdf:RDF>
  </metadata>
  <defs
     id="defs873" />
  <path
     id="path881"
     d="m 155.60619,483.26245 c 1.01948,-13.67608 2.26987,-37.17408 2.77864,-52.21777 0.50878,-15.04369 2.30242,-45.81487 3.98587,-68.38041 l 3.06081,-41.02825 13.85648,-28.33933 c 7.62106,-15.58663 13.85648,-28.73432 13.85648,-29.21709 0,-8.32565 -45.84946,27.07258 -65.76043,50.77054 -6.73173,8.0121 -26.13993,36.31458 -43.129342,62.89442 -30.373991,47.51999 -47.25548,70.14605 -30.491409,40.86732 4.698289,-8.20565 12.597379,-22.19255 17.553517,-31.082 4.95614,-8.88946 19.328928,-33.61338 31.939514,-54.94206 22.21998,-37.58132 23.76622,-39.49528 50.04869,-61.95026 14.91619,-12.74395 26.2075,-23.89761 25.0918,-24.78594 -1.11569,-0.8883 -8.41641,-3.41184 -16.22379,-5.60784 -7.80739,-2.19601 -27.86945,-8.04612 -44.58235,-13.00025 L 87.203552,218.23601 64.951737,185.39296 C 52.713231,167.32928 34.665639,141.01143 24.845976,126.90885 -3.744132,85.848947 5.7856444,93.056338 39.577696,138.05047 c 17.034303,22.68118 37.267774,48.09016 44.963275,56.46441 l 13.991825,15.22592 53.060284,12.89799 c 29.18315,7.0939 53.37374,12.59602 53.75685,12.22691 0.3831,-0.36908 -3.60867,-3.37581 -8.87062,-6.68159 -8.34974,-5.24567 -11.98202,-11.23136 -28.5444,-47.03876 l -18.97721,-41.02825 4.13103,-27.35217 c 2.27208,-15.043689 6.3234,-37.98221 9.00294,-50.974486 2.67955,-12.992279 5.67192,-30.071091 6.64971,-37.952911 0.97779,-7.881822 2.89325,-14.9947584 4.25658,-15.8065253 1.52409,-0.9074925 1.88797,2.6964663 0.9448,9.3574633 -5.35203,37.797716 -9.67383,78.652297 -10.41164,98.422499 l -0.85605,22.93852 18.89652,37.17535 c 14.32266,28.17714 20.62096,38.04583 26.02087,40.77165 l 7.12434,3.5963 21.91259,-44.5158 c 12.05191,-24.48368 22.67478,-43.64216 23.60641,-42.5744 0.93159,1.06776 10.89399,21.09342 22.13867,44.50146 19.89237,41.40997 20.60868,42.48814 26.50774,39.89865 4.22228,-1.85344 11.86418,-13.82101 25.17214,-39.42079 18.51502,-35.61627 19.10876,-37.32096 19.09338,-54.81802 -0.009,-9.93226 -2.32445,-36.521352 -5.14604,-59.086889 -2.82157,-22.56554 -4.9978,-44.944581 -4.83608,-49.73121 l 0.29407,-8.7029626 2.11218,9.9462426 c 5.65629,26.635553 15.5528,82.014398 18.30654,102.439839 l 3.08335,22.86991 -18.91731,41.19676 c -16.03988,34.93044 -20.22993,41.9783 -27.5467,46.33495 -4.74617,2.826 -8.6294,5.43634 -8.6294,5.80071 0,0.36439 22.1689,-4.5592 49.26419,-10.94131 l 49.26422,-11.60384 14.61439,-14.9872 c 8.03794,-8.24296 27.1052,-31.66417 42.37175,-52.04713 34.63096,-46.237224 35.16106,-46.895247 36.63384,-45.476331 0.66614,0.641761 -7.74229,14.234531 -18.68525,30.206181 -10.94303,15.97165 -26.28425,38.61091 -34.09162,50.30948 -7.80739,11.69857 -18.84098,26.15367 -24.51907,32.12245 -9.86515,10.37018 -12.07394,11.32979 -49.71663,21.59955 -21.66605,5.91098 -39.08749,11.51005 -38.7143,12.44238 0.37317,0.93233 12.56467,11.97702 27.09219,24.54375 25.85253,22.36316 26.94327,23.75553 51.34018,65.53812 54.38431,93.13964 56.75001,97.38774 52.98561,95.1463 -1.48206,-0.88248 -7.85402,-9.68938 -14.15994,-19.57092 -45.46662,-71.24759 -54.90089,-85.21801 -66.85862,-99.00534 -22.94231,-26.45256 -63.91616,-57.37891 -63.91616,-48.24281 0,0.69452 5.94767,13.84222 13.21706,29.21709 l 13.21706,27.95436 3.48718,49.73121 c 8.1866,116.75081 8.9637,136.64483 5.18839,132.82379 -0.56304,-0.56985 -4.05618,-33.48569 -7.76256,-73.14634 -3.70638,-39.66064 -7.82145,-77.14554 -9.1446,-83.29977 -1.32313,-6.15424 -3.07363,-15.20366 -3.88996,-20.10982 -1.45739,-8.75881 -2.1956,-9.24515 -40.77412,-26.86243 L 259.02174,282.83053 219.5254,299.7467 c -29.75719,12.74494 -39.72792,18.14249 -40.43553,21.88932 -0.51655,2.73522 -2.38187,12.74179 -4.14514,22.23681 -1.76328,9.49503 -6.22933,49.4052 -9.92455,88.68925 -3.69522,39.28405 -7.74212,72.35714 -8.99309,73.49576 -1.31038,1.19269 -1.48879,-8.46999 -0.4209,-22.79539 z m 144.9128,-215.70913 c -11.13943,-23.75204 -40.73975,-85.15407 -41.34239,-85.75941 -0.32564,-0.32709 -10.77282,20.74105 -23.21594,46.8181 -12.44314,26.07705 -22.20589,47.81552 -21.69502,48.30772 0.51088,0.49219 10.77584,-3.31698 22.81102,-8.4648 l 21.88213,-9.35974 23.22858,10.57871 c 12.77573,5.81825 23.50432,10.65858 23.84128,10.75625 0.33697,0.0977 -2.14237,-5.69688 -5.50966,-12.87683 z"
     style="fill:#ff242e;fill-opacity:1;stroke-width:2.53332" />
</svg>
