<?xml version="1.0" encoding="UTF-8" standalone="no"?>
<!-- Created with Inkscape (http://www.inkscape.org/) -->

<svg
   version="1.1"
   id="svg834"
   width="512"
   height="512"
   viewBox="0 0 512 512"
   sodipodi:docname="plc.svg"
   inkscape:version="1.2.2 (b0a8486541, 2022-12-01)"
   xml:space="preserve"
   xmlns:inkscape="http://www.inkscape.org/namespaces/inkscape"
   xmlns:sodipodi="http://sodipodi.sourceforge.net/DTD/sodipodi-0.dtd"
   xmlns="http://www.w3.org/2000/svg"
   xmlns:svg="http://www.w3.org/2000/svg"
   xmlns:rdf="http://www.w3.org/1999/02/22-rdf-syntax-ns#"
   xmlns:cc="http://creativecommons.org/ns#"
   xmlns:dc="http://purl.org/dc/elements/1.1/"><sodipodi:namedview
     id="namedview24"
     pagecolor="#505050"
     bordercolor="#eeeeee"
     borderopacity="1"
     inkscape:showpageshadow="0"
     inkscape:pageopacity="0"
     inkscape:pagecheckerboard="0"
     inkscape:deskcolor="#505050"
     showgrid="false"
     inkscape:zoom="0.65186406"
     inkscape:cx="202.49621"
     inkscape:cy="291.47181"
     inkscape:window-width="1366"
     inkscape:window-height="705"
     inkscape:window-x="0"
     inkscape:window-y="26"
     inkscape:window-maximized="1"
     inkscape:current-layer="svg834" /><metadata
     id="metadata840"><rdf:RDF><cc:Work
         rdf:about=""><dc:format>image/svg+xml</dc:format><dc:type
           rdf:resource="http://purl.org/dc/dcmitype/StillImage" /></cc:Work></rdf:RDF></metadata><defs
     id="defs838" /><g
     id="g472"
     transform="matrix(0.98039216,0,0,0.98039216,5.019607,5.019607)"><rect
       style="fill:#ffffff;stroke-width:36.778;paint-order:stroke fill markers"
       id="rect399"
       width="510"
       height="510"
       x="1"
       y="1"
       ry="17.974632" /><g
       id="g345"><g
         id="g9298"
         transform="matrix(0.95711339,0,0,0.96697368,10.97897,8.4547381)"><path
           id="path844-3"
           style="fill:#000000;fill-opacity:1;stroke-width:1.20433"
           d="m 176.53055,2.8240865 c -45.23193,0.05391 -90.464729,-0.04155 -135.695701,0.309601 -9.588393,0.109384 -19.18593,0.133232 -28.759456,0.721757 -2.5989492,0.207437 -5.3675732,0.497401 -7.5096902,2.134658 -1.157501,0.893329 -2.381363,1.706148 -3.529981,2.60345 -0.80521799,0.702295 -0.89013399,1.8098925 -0.77470599,2.7985035 0,163.833464 0,327.666924 0,491.500384 2.06219399,1.34398 3.89679599,3.05287 6.09913899,4.1669 2.941849,1.13876 6.1560022,1.07475 9.2568562,1.28329 11.087279,0.48589 22.188528,0.47977 33.284175,0.58787 44.329289,0.2705 88.659654,0.20573 132.989514,0.24379 80.55481,-0.003 161.1097,0.0438 241.66443,-0.0829 21.53481,-0.0662 43.07175,-0.0616 64.60345,-0.47042 5.06324,-0.13326 10.15066,-0.17745 15.17455,-0.87524 1.84006,-0.30326 3.5526,-1.14299 4.96483,-2.35144 1.16087,-0.83981 2.32219,-1.679 3.48259,-2.51947 0,-164.58984 0,-329.17968 0,-493.7695235 -2.07084,-1.341808 -3.905,-3.064212 -6.11886,-4.170331 -3.00332,-1.152517 -6.27833,-1.078945 -9.44033,-1.28802 -11.52016,-0.490781 -23.05414,-0.479523 -34.58253,-0.585397 -42.22932,-0.256312 -84.45966,-0.1963 -126.68953,-0.234623 -52.80625,-0.0095 -105.6125,-0.0088 -158.41875,-0.0029 z m 79.49023,20.5097665 c 78.125,0 156.25,0 234.375,0 0,17.434895 0,34.869791 0,52.304687 -156.25,0 -312.5,0 -468.749999,0 0,-17.434896 0,-34.869792 0,-52.304687 78.125001,0 156.249999,0 234.374999,0 z m -136.18555,4.58789 c -8.708,0.235944 -17.36845,5.032731 -21.566726,12.771754 -2.40325,4.271369 -3.019861,9.528007 -1.491161,14.202873 2.968254,9.611047 12.654987,16.414258 22.615267,16.615644 6.10028,0.210663 12.21826,-2.018743 16.77485,-6.075504 4.31391,-3.797373 7.47021,-9.207635 7.75387,-15.028807 0.23025,-4.942077 -1.67271,-9.851106 -4.92141,-13.546436 -2.87346,-3.334034 -6.55701,-6.011558 -10.67137,-7.592808 -2.71005,-0.989987 -5.61264,-1.419214 -8.49332,-1.346716 z m 163.16602,0 c -8.70801,0.235944 -17.36845,5.032731 -21.56673,12.771754 -2.4187,4.296933 -3.0253,9.591256 -1.46468,14.287028 2.99708,9.569879 12.65861,16.327627 22.58911,16.531554 6.09991,0.210041 12.21832,-2.018119 16.77452,-6.075569 4.28943,-3.775269 7.42992,-9.141637 7.74981,-14.924923 0.25423,-4.940972 -1.61495,-9.865934 -4.85354,-13.573321 -2.87978,-3.372598 -6.59069,-6.075463 -10.73517,-7.669807 -2.71005,-0.989987 -5.61265,-1.419214 -8.49332,-1.346716 z m 163.16602,0 c -8.70807,0.235662 -17.36851,5.032495 -21.56674,12.771754 -2.40155,4.268545 -3.0191,9.520583 -1.49422,14.193441 2.9593,9.60473 12.6319,16.405609 22.58121,16.623727 6.12101,0.222536 12.26225,-2.016697 16.83056,-6.09087 4.30165,-3.790607 7.44237,-9.187079 7.73512,-14.992192 0.23572,-4.948807 -1.66948,-9.86544 -4.92125,-13.566336 -2.87214,-3.3319 -6.55275,-6.009665 -10.66531,-7.589454 -2.71108,-0.993775 -5.61673,-1.422124 -8.49937,-1.35007 z m -381.029301,0.05078 c -8.169488,0.146388 -15.952998,4.741822 -20.455055,11.487323 -2.706389,4.14001 -3.520009,9.387378 -2.36011,14.17995 1.815581,7.938778 8.21007,14.468432 15.912821,16.92257 6.220167,2.043788 13.27093,1.427083 18.989702,-1.787479 6.684955,-3.635012 11.763542,-10.519793 12.396194,-18.203122 0.459328,-5.422289 -1.7126,-10.929105 -5.594656,-14.714671 -4.883814,-5.03139 -11.836263,-8.110643 -18.888896,-7.884571 z m 163.167971,0 c -8.28839,0.151328 -16.19182,4.872415 -20.65039,11.792969 -2.4871,3.980715 -3.25895,8.923449 -2.25082,13.494334 1.73858,8.32311 8.52226,15.173446 16.63418,17.492854 5.85863,1.758017 12.38045,1.17376 17.79912,-1.682605 6.84399,-3.504924 12.10905,-10.359344 12.91908,-18.101459 0.56908,-5.450485 -1.50304,-11.046933 -5.36719,-14.912109 -4.90125,-5.142652 -11.93549,-8.314281 -19.08398,-8.083984 z m 163.16406,0 c -8.17176,0.149725 -15.96983,4.741914 -20.45976,11.502924 -2.60205,3.969155 -3.45269,8.966639 -2.47969,13.596685 1.65291,8.267587 8.2816,15.125518 16.28298,17.564099 5.92539,1.876858 12.57701,1.369022 18.0956,-1.518718 6.87591,-3.481665 12.17602,-10.338808 13.00814,-18.096162 0.59138,-5.491322 -1.50618,-11.137342 -5.41211,-15.019531 -4.89971,-5.11024 -11.91068,-8.261322 -19.03516,-8.029297 z m -218.17969,0.09961 c -7.33613,0.254342 -14.53931,3.94535 -18.7844,9.977603 -2.57503,3.397438 -4.53573,7.526218 -4.3074,11.881772 0.091,4.214363 1.67213,8.35142 4.38781,11.572581 3.54911,4.457161 8.57326,7.552473 13.93554,9.350736 3.11646,1.183795 6.62983,1.693396 9.85122,0.60613 3.79815,-1.13449 7.48768,-2.744092 10.78195,-4.962371 4.53024,-3.077878 8.22942,-7.742293 9.18598,-13.232268 1.06895,-6.031963 -1.23089,-12.271449 -5.17753,-16.822967 -4.64528,-5.382336 -11.73563,-8.450584 -18.82316,-8.384828 -0.35015,-0.0073 -0.70001,0.0045 -1.05001,0.01361 z m 163.16602,0 c -7.33614,0.254342 -14.53931,3.94535 -18.78441,9.977603 -2.57363,3.396018 -4.53446,7.522139 -4.30739,11.875913 0.0894,4.205604 1.66105,8.335323 4.36693,11.553655 3.552,4.468334 8.58346,7.57462 13.95641,9.375521 3.11631,1.182721 6.63085,1.695936 9.8511,0.603702 3.8444,-1.145628 7.57877,-2.778619 10.90173,-5.040691 4.42636,-3.049519 8.04205,-7.611244 9.03711,-12.984375 1.07294,-5.707614 -0.90566,-11.649614 -4.44673,-16.140451 -4.64529,-5.943235 -12.18929,-9.357343 -19.70053,-9.236071 -0.29152,-0.0043 -0.58282,0.0095 -0.87422,0.01519 z M 66.028594,47.234243 c 1.682144,0.252184 2.739385,2.207145 2.470703,3.794922 -0.54523,1.012595 -1.9115,0.80383 -2.868019,0.720959 -1.191839,-0.196768 -2.474128,-0.742048 -3.167137,-1.746349 0.8317,-1.268474 2.03629,-2.436447 3.564453,-2.769532 z m 163.166016,0 c 1.68318,0.252154 2.7383,2.207369 2.4707,3.794922 -0.54523,1.012595 -1.9115,0.80383 -2.86802,0.720959 -1.19905,-0.1908 -2.42658,-0.741515 -3.16909,-1.719006 0.79351,-1.282932 2.04599,-2.462129 3.56641,-2.796875 z m 163.16797,0 c 1.68012,0.251055 2.73318,2.205098 2.4707,3.791016 -0.5248,0.999503 -1.85888,0.803276 -2.79687,0.740234 -1.21795,-0.190653 -2.51946,-0.735798 -3.24024,-1.753906 0.81795,-1.274316 2.03992,-2.444081 3.56641,-2.777344 z m -272.76172,0.08203 c 1.5543,0.174238 2.99732,1.305738 3.57031,2.742187 -0.20614,1.180793 -1.61648,1.362517 -2.58427,1.556583 -1.03312,0.140662 -2.18297,0.145737 -3.12862,-0.283145 -0.27031,-1.215086 -0.24979,-2.825963 0.83789,-3.642578 0.3986,-0.225268 0.83885,-0.397536 1.30469,-0.373047 z m 326.33203,0 c 1.55348,0.175582 3.00316,1.306105 3.57031,2.746093 -0.23198,1.221482 -1.69872,1.37538 -2.70382,1.569473 -0.99644,0.132751 -2.07201,0.09997 -2.9993,-0.28041 -0.28182,-1.215914 -0.26763,-2.841627 0.82812,-3.662109 0.3986,-0.225268 0.83885,-0.397536 1.30469,-0.373047 z m -163.16602,0 c 1.55348,0.175582 3.00316,1.306105 3.57032,2.746093 -0.23018,1.222499 -1.69929,1.37469 -2.70383,1.569473 -0.99644,0.132751 -2.072,0.09997 -2.9993,-0.28041 -0.28181,-1.215914 -0.26763,-2.841627 0.82813,-3.662109 0.39889,-0.227285 0.83819,-0.394377 1.30468,-0.373047 z m -108.55859,0.09961 c 0.87358,0.106569 1.82832,0.259186 2.53516,0.798828 0.16855,1.059503 0.005,2.175823 -0.29688,3.185547 -1.28707,0.450431 -2.69692,0.34297 -4.00195,0.0293 -0.30771,-1.138036 -0.76081,-2.612677 0.1289,-3.59961 0.45909,-0.35373 1.07165,-0.432785 1.63477,-0.414062 z m 163.16602,0 c 0.86626,0.117519 1.88223,0.243817 2.54101,0.830078 0.15524,1.049969 -0.003,2.152183 -0.30273,3.154297 -1.28762,0.449217 -2.69697,0.344968 -4.00196,0.0293 -0.30859,-1.147164 -0.77546,-2.656365 0.16407,-3.628906 0.45702,-0.333272 1.0498,-0.397123 1.59961,-0.384766 z m -81.35352,48.738281 c 77.69987,0 155.39974,0 233.09961,0 0,9.470056 0,18.940106 0,28.410156 -155.40039,0 -310.80078,0 -466.201171,0 0,-9.47005 0,-18.9401 0,-28.410156 77.700521,0 155.401041,0 233.101561,0 z m 0,48.925776 c 77.69987,0 155.39974,0 233.09961,0 0,73.94662 0,147.89323 0,221.83985 -155.40039,0 -310.80078,0 -466.201171,0 0,-73.94662 0,-147.89323 0,-221.83985 77.700521,0 155.401041,0 233.101561,0 z m -151.68164,28.42188 c -19.63565,0.0726 -39.275323,-0.0411 -58.906633,0.43393 -3.995328,0.16533 -8.046488,0.13807 -11.962455,1.0386 -2.148983,0.57879 -3.891056,2.38013 -4.326898,4.57372 -0.899651,3.44398 -0.844586,7.03971 -1.028582,10.57012 -0.411223,12.03124 -0.353951,24.07264 -0.408082,36.10939 -0.05314,26.35458 -0.07595,52.70972 0.09273,79.06389 0.08088,7.6289 0.09994,15.26857 0.659504,22.88027 0.226772,2.52027 0.48034,5.31484 2.271039,7.26758 1.925638,1.91306 4.805848,2.02786 7.348634,2.25942 7.164714,0.52707 14.355301,0.50477 21.535088,0.61299 24.908011,0.23868 49.817615,0.16777 74.726435,0.19345 24.70018,-0.0131 49.40111,0.0279 74.10049,-0.19818 7.29177,-0.10473 14.59671,-0.10343 21.86893,-0.69714 2.40973,-0.21667 5.18375,-0.63426 6.71535,-2.72914 1.62616,-2.25974 1.62203,-5.17606 1.89526,-7.83415 0.51701,-7.74154 0.47923,-15.50635 0.58397,-23.26113 0.16135,-22.36208 0.11004,-44.72504 0.10457,-67.08753 -0.0307,-15.10298 0.001,-30.20875 -0.37116,-45.30811 -0.14044,-3.7473 -0.22005,-7.52495 -0.90796,-11.22001 -0.41976,-2.18896 -1.80253,-4.36114 -4.03906,-5.00782 -2.91453,-0.96001 -6.028,-0.91211 -9.05854,-1.09397 -10.96405,-0.44367 -21.94035,-0.41144 -32.91137,-0.4918 -29.32699,-0.10999 -58.65413,-0.0766 -87.98126,-0.0744 z m 171.01563,0.008 c -7.42848,0.10627 -14.88109,-0.01 -22.27962,0.75539 -2.06651,0.18341 -4.38746,0.82255 -5.48992,2.74461 -1.39971,2.40655 -1.43236,5.28467 -1.66757,7.98304 -0.38385,6.39592 -0.29316,12.81035 -0.18094,19.21314 0.1062,2.92412 0.12562,6.07236 1.72937,8.6339 1.83109,2.76672 5.169,4.05204 8.36018,4.34828 5.20347,0.64112 10.45932,0.57338 15.69247,0.65648 9.8591,0.0622 19.71948,0.11239 29.57828,0.0148 4.27373,-0.0954 8.64035,-0.15208 12.75384,-1.44538 2.92237,-0.98778 5.50359,-3.23327 6.40246,-6.24641 1.25374,-3.70768 0.91727,-7.68585 0.95887,-11.53484 -0.0533,-5.45523 0.14957,-10.94139 -0.54769,-16.3649 -0.35608,-2.74933 -1.6111,-5.67499 -4.23791,-6.93689 -2.67874,-1.34561 -5.76297,-1.31933 -8.68551,-1.52501 -8.78117,-0.39807 -17.57522,-0.26963 -26.36288,-0.30992 -2.00781,0.002 -4.01562,0.01 -6.02343,0.0137 z m 163.16601,0 c -7.42852,0.10595 -14.881,-0.009 -22.27968,0.7549 -2.1209,0.18795 -4.53319,0.86702 -5.58116,2.90514 -1.30105,2.34534 -1.3352,5.11365 -1.56829,7.71937 -0.39746,6.39566 -0.29571,12.81044 -0.19449,19.21368 0.11002,2.91261 0.11339,6.03718 1.65928,8.6153 1.77171,2.80073 5.09677,4.13308 8.28094,4.44893 5.08556,0.65087 10.22719,0.58594 15.3446,0.67078 9.79189,0.0778 19.58502,0.10296 29.37685,0.0336 4.46952,-0.0959 9.03731,-0.10241 13.35062,-1.42032 2.92628,-0.96489 5.53952,-3.16893 6.47079,-6.17276 1.267,-3.60988 0.96258,-7.50248 0.99977,-11.26232 -0.0563,-5.54985 0.15378,-11.12959 -0.53471,-16.64927 -0.34527,-2.74979 -1.55724,-5.68744 -4.16361,-6.99038 -2.66486,-1.37814 -5.75325,-1.35909 -8.67472,-1.56551 -8.78097,-0.40367 -17.57512,-0.27408 -26.36275,-0.31484 -2.04115,0.002 -4.08229,0.01 -6.12344,0.0137 z m -73.58594,11.36914 c -2.47288,0.10515 -4.43487,1.84218 -6.37096,3.19092 -7.80726,5.89064 -15.08961,12.43861 -22.27801,19.05927 -3.07261,2.90991 -6.16794,5.82615 -8.85884,9.09942 -1.14922,1.4096 -1.86679,3.34089 -1.27148,5.13672 -1.86754,-0.2947 -3.78452,0.11578 -5.40842,1.07143 -4.136,2.43212 -7.8384,5.52034 -11.53261,8.56284 -5.71411,4.88411 -11.30305,9.9327 -16.50098,15.36735 -1.99328,2.17856 -4.10174,4.32351 -5.55799,6.91439 -0.93129,1.68489 -0.92244,3.77373 -0.0458,5.47801 1.27121,2.7369 3.51303,4.8505 5.56895,6.99984 5.30062,5.30783 10.95744,10.24378 16.59892,15.1822 3.55753,3.04199 7.12672,6.16624 11.27445,8.38683 1.7262,0.86365 3.66217,1.43304 5.60742,1.24609 -0.39993,1.48705 -0.17249,3.11518 0.73929,4.37314 1.51437,2.16987 3.46787,3.98861 5.29758,5.89019 6.21344,6.2144 12.78822,12.05972 19.50971,17.7168 3.23197,2.65792 6.48779,5.32 10.03936,7.54331 1.61801,1.0206 3.77282,1.45741 5.50379,0.45201 3.34821,-1.70295 6.21755,-4.17371 9.16795,-6.46535 6.69272,-5.39585 13.12524,-11.11153 19.35338,-17.03561 2.38581,-2.33583 4.8526,-4.72926 6.37616,-7.74135 0.67748,-1.53636 0.74911,-3.25968 0.55966,-4.90697 2.99313,0.69389 5.98648,-0.647 8.49412,-2.17736 4.4805,-2.91318 8.47766,-6.48948 12.53285,-9.95256 4.98988,-4.41871 10.04549,-8.77865 14.7367,-13.51851 1.85365,-2.06338 3.97374,-4.1064 4.80454,-6.83053 0.6518,-1.94067 0.20531,-4.07246 -0.86269,-5.77613 -1.76144,-2.98593 -4.39608,-5.31259 -6.83443,-7.72928 -5.38799,-5.09978 -10.98056,-9.97962 -16.63963,-14.77535 -3.3245,-2.75009 -6.67853,-5.60332 -10.64943,-7.37895 -1.74807,-0.7268 -3.70987,-1.08192 -5.58008,-0.66406 0.25106,-1.96473 0.0416,-4.03366 -1.00749,-5.75481 -1.83345,-3.06369 -4.52963,-5.47529 -7.04129,-7.96853 -5.06222,-4.76059 -10.28294,-9.35309 -15.60562,-13.82075 -3.52109,-2.88567 -7.06411,-5.78323 -10.94254,-8.18068 -0.96435,-0.56971 -2.04303,-0.98879 -3.1765,-0.99398 z m -231.28906,7.99024 c 27.98568,0 55.97135,-1e-5 83.95703,0 0,42.08723 0,84.17447 0,126.26171 -55.97135,0 -111.94271,0 -167.91406,0 0,-42.08724 0,-84.17448 0,-126.26171 27.985677,0 55.97135,-1e-5 83.95703,0 z m 165.53906,2.22851 c 0,0.76237 0,1.52474 0,2.28711 -10.88606,0 -21.77213,0 -32.6582,0 0.0859,-1.33529 0.17187,-2.67057 0.25781,-4.00586 10.80013,-0.16862 21.60026,-0.33724 32.40039,-0.50586 0,0.74154 0,1.48307 0,2.22461 z m 163.16602,0 c 0,0.76237 0,1.52474 0,2.28711 -10.88607,0 -21.77214,0 -32.6582,0 0.0859,-1.33529 0.17187,-2.67057 0.25781,-4.00586 10.80013,-0.16862 21.60026,-0.33724 32.40039,-0.50586 0,0.74154 0,1.48307 0,2.22461 z m -96.33399,14.80273 c -0.67122,0 -1.34244,1e-5 -2.01367,0 0.46027,-0.25116 0.92171,-1.3063 1.38055,-0.57276 0.21104,0.19092 0.42208,0.38184 0.63312,0.57276 z m 29.72657,18.64258 c -0.7456,3.7453 -0.68662,7.59088 -0.84368,11.39174 -0.16598,9.69024 -0.10192,19.38312 -0.056,29.07424 0.0989,4.51276 0.0978,9.04857 0.71939,13.52711 -0.052,0.3728 0.51743,1.31476 -0.0506,1.1342 -3.97664,-0.73659 -8.04383,-0.71615 -12.07339,-0.83924 -9.57535,-0.17186 -19.1532,-0.0919 -28.72957,-0.0853 -6.6458,0.0835 -13.31561,-0.0467 -19.93285,0.66641 -0.68492,0.22256 -1.0035,0.14838 -0.65216,-0.55327 0.83224,-3.52521 0.80205,-7.17844 0.9556,-10.77753 0.21626,-9.10835 0.16147,-18.22115 0.0754,-27.33087 -0.0889,-4.88646 -0.15515,-9.80519 -0.97683,-14.63402 -0.1115,-0.56553 -0.22249,-1.13218 -0.38056,-1.68673 3.99388,0.65371 8.06097,0.59977 12.09555,0.73764 11.10786,0.16811 22.21797,0.10131 33.32668,0.0742 5.03368,-0.0868 10.08801,-0.0815 15.09126,-0.70002 0.50184,-0.072 1.00352,-0.14819 1.49823,-0.26022 -0.0221,0.0872 -0.0443,0.17448 -0.0664,0.26172 z m 20.4082,26.13282 c 0.42805,0.4553 1.1385,0.91381 1.39648,1.36718 -0.65951,0.6038 -1.31729,1.21358 -1.98437,1.81055 -0.0351,-1.2334 -0.0357,-2.46778 0,-3.70117 0.19596,0.17448 0.39193,0.34896 0.58789,0.52344 z m -102.94531,1.0371 c 0.0675,0.76117 0.0161,1.25177 -0.59681,0.45881 -0.53676,-0.0817 1.01343,-1.42579 0.59681,-0.45881 z m -29.5,38.38672 c -8.63057,0.069 -17.27588,-0.11155 -25.89089,0.49839 -3.01301,0.19817 -6.17808,0.7225 -8.60716,2.65591 -1.96259,1.52103 -3.00622,3.9501 -3.18569,6.38618 -0.52179,4.55031 -0.31373,9.14154 -0.36565,13.71187 0.0294,4.85031 0.0112,9.7377 0.81361,14.53434 0.3323,2.15531 1.46373,4.47267 3.66875,5.19938 3.02712,0.97723 6.25347,0.9296 9.39669,1.1089 11.58458,0.42967 23.18058,0.29668 34.77072,0.2806 5.9263,-0.0577 11.87111,-0.0111 17.77266,-0.61775 2.60159,-0.2547 5.40022,-1.14549 6.90821,-3.43555 1.83503,-2.69778 1.86933,-6.09582 2.07231,-9.23322 0.21565,-5.39215 0.15195,-10.79141 0.15219,-16.18651 -0.0371,-3.51502 -0.31431,-7.33407 -2.58985,-10.19565 -2.33024,-2.8813 -6.1488,-3.88003 -9.68311,-4.23025 -6.41876,-0.68113 -12.88565,-0.43258 -19.32849,-0.48479 -1.9681,0.003 -3.9362,0.005 -5.9043,0.008 z m 163.16601,0 c -8.63057,0.069 -17.27588,-0.11155 -25.89089,0.49839 -3.013,0.19817 -6.17807,0.7225 -8.60715,2.65591 -1.9626,1.52103 -3.00622,3.9501 -3.18569,6.38618 -0.5218,4.55031 -0.31373,9.14154 -0.36566,13.71187 0.0295,4.84634 0.0109,9.72977 0.81197,14.52256 0.32827,2.13448 1.42592,4.43316 3.60124,5.17799 2.77984,0.96722 5.77111,0.92262 8.67399,1.10837 11.40878,0.46317 22.8308,0.32683 34.24617,0.32232 6.224,-0.0543 12.46434,0.002 18.66719,-0.57695 2.69573,-0.23782 5.65836,-1.03153 7.26645,-3.3929 1.9076,-2.72407 1.9342,-6.19722 2.1377,-9.38867 0.21662,-5.30705 0.142,-10.6213 0.15048,-15.93108 -0.0276,-3.5451 -0.26785,-7.39535 -2.52636,-10.30988 -2.29917,-2.90792 -6.11318,-3.93943 -9.64722,-4.29677 -6.4511,-0.69488 -12.9519,-0.44268 -19.42792,-0.49549 -1.9681,0.003 -3.9362,0.005 -5.9043,0.008 z m -82.15234,8 c 0.39714,0.0713 1.73692,-0.20775 0.86199,0.33707 -0.46199,0.72131 -0.91376,0.43027 -1.36284,-0.12782 -0.6623,-0.41255 0.32695,-0.12322 0.50085,-0.20925 z m -81.92969,12.51563 c 5.46485,0 10.92969,0 16.39453,0 0,1.50391 0,3.00781 0,4.51172 -8.92579,-0.0274 -17.85337,0.0967 -26.77734,-0.14063 -1.27002,-0.0401 -2.74353,-0.0921 -4.0918,-0.13672 -0.44122,-0.0271 -1.37444,-0.0696 -1.80469,-0.0937 -0.12818,-1.37628 -0.11059,-2.75994 -0.11718,-4.14062 5.46549,0 10.93099,0 16.39648,0 z m 163.16406,0 c 5.4655,0 10.93099,0 16.39649,0 0,1.50391 0,3.00781 0,4.51172 -8.92579,-0.0274 -17.85338,0.0967 -26.77735,-0.14063 -1.27002,-0.0401 -2.74353,-0.0921 -4.09179,-0.13672 -0.44123,-0.0271 -1.37445,-0.0696 -1.80469,-0.0937 -0.12767,-1.37631 -0.11396,-2.75987 -0.11719,-4.14062 5.46485,0 10.92969,0 16.39453,0 z M 256.02078,387.4356 c 77.69987,0 155.39974,0 233.09961,0 0,9.47005 0,18.94011 0,28.41016 -155.40039,0 -310.80078,0 -466.201171,0 0,-9.47005 0,-18.94011 0,-28.41016 77.700521,0 155.401041,0 233.101561,0 z m 0,48.92578 c 78.125,0 156.25,0 234.375,0 0,17.4349 0,34.86979 0,52.30469 -156.25,0 -312.5,0 -468.749999,0 0,-17.4349 0,-34.86979 0,-52.30469 78.125001,0 156.249999,0 234.374999,0 z m -136.65234,3.99805 c -8.61695,0.22078 -16.79126,5.41324 -21.047061,12.84198 -2.576861,4.58998 -3.183049,10.29881 -1.312316,15.25372 2.104236,5.7858 6.894057,10.20258 12.241137,13.0292 5.46435,2.86648 12.06325,3.42429 17.93269,1.51963 7.41142,-2.29866 13.85906,-8.14864 16.09113,-15.67991 1.5052,-5.14319 0.56931,-10.91745 -2.50177,-15.31286 -4.32363,-6.62921 -11.77273,-11.35699 -19.7733,-11.63333 -0.54342,-0.0247 -1.08669,-0.0247 -1.63051,-0.0184 z m 163.375,0.01 c -9.66468,0.3266 -18.98006,6.65648 -22.47643,15.73071 -1.61985,4.28756 -1.56756,9.19023 0.27848,13.39981 1.84518,4.57861 5.48217,8.22974 9.67656,10.73029 4.09801,2.60035 8.94149,4.11024 13.81804,3.88403 7.32904,-0.26069 14.28492,-4.10116 18.83689,-9.78118 2.86417,-3.45398 4.47109,-7.95408 4.21738,-12.45286 -0.32071,-7.12531 -4.63883,-13.70265 -10.57695,-17.49398 -4.06067,-2.65187 -8.90984,-4.15114 -13.77397,-4.01682 z m 163.16601,0 c -9.63085,0.32531 -18.91268,6.61078 -22.43958,15.63418 -1.62622,4.24388 -1.63033,9.10739 0.16529,13.30075 1.81615,4.66695 5.49997,8.39056 9.75291,10.92588 4.09844,2.59939 8.94117,4.11066 13.81803,3.88403 7.17025,-0.25549 13.99051,-3.93799 18.53928,-9.4193 3.00274,-3.47705 4.75561,-8.06261 4.51893,-12.6781 -0.26293,-7.09383 -4.5109,-13.66548 -10.37928,-17.49755 -4.1009,-2.73822 -9.03108,-4.2815 -13.97558,-4.14989 z m -381.775387,0.16796 c -5.546164,0.16253 -11.002227,2.40809 -15.009606,6.25464 -4.43317,4.00801 -7.481773,9.821 -7.3068,15.88794 0.131742,6.09225 3.435001,11.79151 8.08789,15.5957 4.023412,3.42693 9.119011,5.73421 14.451172,5.86719 9.615269,0.38057 19.359739,-5.13662 23.550261,-13.87463 2.245321,-4.75133 2.403706,-10.44605 0.307851,-15.27852 -2.776104,-6.71211 -9.053472,-11.57454 -15.967461,-13.46828 -2.63148,-0.74548 -5.37937,-1.08371 -8.113307,-0.98404 z m 163.166017,0 c -5.58494,0.16034 -11.07072,2.44201 -15.09133,6.32786 -4.39102,4.00713 -7.40302,9.793 -7.22508,15.82644 0.13449,6.08223 3.43337,11.77538 8.07846,15.57457 4.10705,3.50957 9.34848,5.83642 14.80121,5.88533 9.50336,0.24446 19.06821,-5.2509 23.20965,-13.88336 2.25975,-4.78195 2.40214,-10.51805 0.26914,-15.37072 -2.80877,-6.69892 -9.10476,-11.53189 -16.02464,-13.40444 -2.60327,-0.72363 -5.31628,-1.05496 -8.01741,-0.95568 z m 163.16601,0 c -5.54948,0.16207 -11.00932,2.4095 -15.01672,6.26127 -4.4578,4.03195 -7.51725,9.89573 -7.2942,15.99883 0.16067,6.07923 3.49587,11.74805 8.1462,15.53211 4.12057,3.49558 9.37361,5.80154 14.82797,5.82343 9.47028,0.20547 18.98483,-5.28329 23.10967,-13.88676 2.26256,-4.78567 2.40162,-10.52729 0.26314,-15.38238 -2.84431,-6.76179 -9.23203,-11.62125 -16.23723,-13.45196 -2.53884,-0.66933 -5.17261,-0.996 -7.79883,-0.89454 z M 119.77664,460.2694 c 1.16481,0.002 2.63212,0.19274 3.26758,1.29882 0.19224,1.07649 -0.87128,1.87975 -1.64438,2.44125 -1.14723,0.87354 -3.27603,0.90665 -3.89078,-0.61898 -0.34698,-0.85117 -0.4169,-1.95496 0.082,-2.74414 0.64705,-0.38843 1.45888,-0.34335 2.18555,-0.37695 z m -53.138671,0.0469 c 0.534584,0.0359 1.085546,0.089 1.583984,0.29492 0.322208,1.2196 0.28863,2.83929 -0.786631,3.67807 -1.100629,0.75827 -2.521278,0.28513 -3.453603,-0.51401 -0.63079,-0.51265 -1.436956,-1.16937 -1.410156,-2.05078 0.575738,-1.22106 2.149837,-1.28975 3.324219,-1.4082 0.247479,-0.009 0.494695,-0.008 0.742187,0 z m 163.169921,0 c 0.53342,0.0391 1.08546,0.0829 1.58203,0.29492 0.31327,1.24087 0.29364,2.91875 -0.85742,3.72461 -1.12173,0.70916 -2.49496,0.1959 -3.42383,-0.58789 -0.60913,-0.50964 -1.42419,-1.1709 -1.36523,-2.03906 0.58927,-1.20736 2.1405,-1.27485 3.31054,-1.39258 0.25139,-0.008 0.50252,-0.008 0.75391,0 z m 163.16211,0 c 0.53578,0.0324 1.09242,0.0838 1.58789,0.29688 0.32227,1.27881 0.28896,3.05507 -0.99102,3.79427 -1.37981,0.74163 -2.87678,-0.19722 -3.86836,-1.1556 -0.48925,-0.49151 -1.21929,-1.39103 -0.49027,-1.99881 0.98982,-0.9068 2.49244,-0.92522 3.76176,-0.93674 z m -110.00977,-0.002 c 1.19324,0.11192 2.79262,0.20216 3.36328,1.44922 -0.0992,1.08866 -1.14155,1.8191 -1.9707,2.40234 -1.05184,0.70795 -2.7505,0.74818 -3.45312,-0.45898 -0.45937,-0.94359 -0.60027,-2.15781 -0.20313,-3.12696 0.72929,-0.23842 1.50197,-0.28038 2.26367,-0.26562 z m 163.16602,0 c 1.19324,0.11192 2.79262,0.20216 3.36328,1.44922 -0.1073,1.08787 -1.1359,1.82098 -1.9707,2.40234 -1.05151,0.70767 -2.75024,0.74922 -3.45313,-0.45898 -0.45936,-0.94359 -0.60026,-2.15781 -0.20312,-3.12696 0.72929,-0.23842 1.50196,-0.28038 2.26367,-0.26562 z" /><g
           id="g7384"
           transform="translate(-601.41307,-7.139649)"><path
             id="path1025"
             style="fill:#3d3d3d;fill-opacity:1;stroke-width:2.38485"
             d="m 617.43164,26.517578 c 0,20.611979 0,41.223958 0,61.835938 159.98763,0 319.97526,0 479.96286,0 0,-21.278646 0,-42.557292 0,-63.835938 -159.9876,0 -319.97523,0 -479.96286,0 0,0.666667 0,1.333333 0,2 z m 377.38672,14.1875 c 4.52392,0.270363 9.09394,1.894987 12.43564,5.021733 3.8511,3.559005 5.4401,9.233018 4.2262,14.305264 -1.1406,5.201013 -5.059,9.547538 -9.9212,11.601595 -5.57525,2.511663 -12.38768,2.392064 -17.66254,-0.818287 -4.56164,-2.661931 -7.6891,-7.587161 -8.12888,-12.854445 -0.14817,-2.512988 -0.19502,-5.151779 0.77567,-7.520165 1.1679,-2.42461 3.27823,-4.238023 5.38232,-5.842022 3.7068,-2.693168 8.30659,-4.129173 12.89279,-3.893673 z m -55.53906,0.05273 c 6.0618,-0.05235 12.23752,2.743337 15.70564,7.80653 2.17556,3.189343 3.30567,7.230369 2.61356,11.069083 -0.8724,4.26716 -4.15479,7.547764 -7.66127,9.879438 -3.62231,2.447698 -7.97919,4.236882 -12.427,3.687532 -4.22178,-0.518037 -8.11601,-2.630779 -11.34131,-5.331367 -3.37909,-2.861315 -5.85199,-7.164512 -5.50748,-11.699555 0.26574,-4.391536 3.01276,-8.168364 6.18509,-11.018668 3.15606,-2.85981 7.40107,-4.312346 11.62746,-4.379293 0.26828,-0.01036 0.53688,-0.0096 0.80531,-0.0137 z m -163.04297,0.0293 c 6.151,0.05336 12.48563,2.882202 15.88862,8.143592 1.96814,3.07581 2.88413,6.883816 2.32622,10.506799 -0.79502,4.284695 -4.04201,7.612388 -7.53598,9.963003 -3.65953,2.506511 -8.07546,4.357253 -12.59246,3.799892 -4.27678,-0.525243 -8.20837,-2.688167 -11.47252,-5.423811 -3.17691,-2.686039 -5.52396,-6.671725 -5.32628,-10.933167 0.20508,-4.510969 2.70785,-8.683272 6.05048,-11.609493 3.47439,-3.007754 8.0951,-4.501988 12.66192,-4.446815 z m -108.4668,0.01367 c 5.57775,0.02566 11.3946,2.273819 14.80469,6.832031 3.39801,4.462116 3.81068,10.820546 1.33433,15.804822 -2.37902,5.01757 -7.40877,8.409994 -12.77221,9.492404 -6.36393,1.393301 -13.43826,-0.715337 -17.78296,-5.624638 -3.05468,-3.419587 -4.77488,-8.137432 -4.25572,-12.727275 0.63169,-4.869983 4.17642,-8.910129 8.3938,-11.177626 3.13389,-1.715699 6.708,-2.601588 10.27807,-2.599718 z m 163.1875,0 c 5.57737,0.02585 11.39462,2.274273 14.80469,6.832031 3.39752,4.462396 3.81042,10.820432 1.33433,15.804822 -2.37925,5.017041 -7.40874,8.410571 -12.77228,9.492089 -6.41091,1.405316 -13.54517,-0.74854 -17.87961,-5.733708 -2.99273,-3.409179 -4.67403,-8.077045 -4.159,-12.61789 0.63708,-4.904133 4.22335,-8.964571 8.48145,-11.225767 3.11347,-1.68371 6.65327,-2.553792 10.19042,-2.551577 z m -108.62695,0.171875 c 5.08785,0.22148 10.40066,1.95813 13.79636,5.925417 2.91682,3.354641 4.08675,8.029075 3.55829,12.396995 -0.89068,5.331666 -4.84582,9.814032 -9.63253,12.121658 -3.36209,1.601634 -7.20972,2.405664 -10.89986,1.612571 -3.27748,-0.718296 -6.46387,-1.992228 -9.26521,-3.848788 -3.729,-2.479708 -6.42005,-6.637525 -6.63226,-11.167329 -0.38765,-5.969061 3.15502,-11.802377 8.33953,-14.647358 3.24098,-1.842871 7.03342,-2.564594 10.73568,-2.393166 z m 163.1875,0 c 5.08777,0.221528 10.40071,1.95811 13.79636,5.925417 2.93492,3.380622 4.11034,8.09909 3.54225,12.495701 -0.94479,5.384893 -4.9945,9.881186 -9.86986,12.145288 -3.28229,1.504782 -7.00485,2.258379 -10.58323,1.50195 -3.30123,-0.710372 -6.50892,-1.9932 -9.32847,-3.860503 -3.729,-2.479708 -6.42005,-6.637525 -6.63226,-11.167329 -0.38855,-5.970136 3.15458,-11.802108 8.33953,-14.647358 3.24098,-1.842735 7.03343,-2.564843 10.73568,-2.393166 z m 163.63672,0.03711 c 2.6519,0.231237 5.4682,0.259728 7.8535,1.585937 2.3854,1.533429 4.2074,3.761538 6.1019,5.836271 1.5238,1.70504 2.8683,3.73552 2.9895,6.089492 0.3503,3.257343 -0.1169,6.64903 -1.7352,9.531454 -2.3443,4.373411 -6.7115,7.403425 -11.4506,8.668436 -3.6103,1.100456 -7.518,0.617921 -10.9924,-0.730056 -4.156,-1.490768 -8.2197,-3.929805 -10.5027,-7.831976 -2.5785,-4.212338 -2.4515,-9.743422 -0.076,-14.013926 2.6416,-4.975859 7.9146,-8.213544 13.4342,-8.93358 1.448,-0.208646 2.917,-0.263885 4.3779,-0.202052 z" /><path
             id="path1804"
             style="fill:#3d3d3d;fill-opacity:1;stroke-width:2.38485"
             d="m 617.43164,439.92578 c 0,20.61198 0,41.22396 0,61.83594 159.98763,0 319.97526,0 479.96286,0 0,-21.27865 0,-42.55729 0,-63.83594 -159.9876,0 -319.97523,0 -479.96286,0 0,0.66667 0,1.33333 0,2 z m 50.09961,12.99805 c 5.32683,0.141 10.33787,2.82319 13.92992,6.67214 1.76668,1.79999 3.67955,3.83262 3.84094,6.49252 0.51357,4.6954 -0.44801,9.74663 -3.55037,13.43115 -2.803,3.41615 -7.13012,5.17876 -11.39774,5.86658 -6.70173,1.05818 -13.9026,-1.66225 -18.05563,-7.06457 -2.90329,-3.64326 -4.16365,-8.71849 -2.64687,-13.20306 1.5019,-4.50943 5.12597,-8.0784 9.27428,-10.2514 2.65306,-1.34575 5.62951,-2.03147 8.60547,-1.94336 z m 163.18555,0 c 5.3275,0.14034 10.3394,2.82269 13.93187,6.67214 1.76567,1.80092 3.68001,3.83229 3.84094,6.49252 0.51357,4.6954 -0.44801,9.74663 -3.55037,13.43115 -2.82469,3.43874 -7.19428,5.2095 -11.49687,5.87975 -6.70937,1.02847 -13.89781,-1.73566 -18.02304,-7.16113 -2.85542,-3.63637 -4.08561,-8.66964 -2.58033,-13.11967 1.50071,-4.51001 5.12593,-8.0785 9.27428,-10.2514 2.65205,-1.34502 5.62862,-2.03225 8.60352,-1.94336 z m 163.1875,0 c 5.32751,0.14154 10.34,2.82096 13.9319,6.67214 1.7662,1.80002 3.6771,3.83345 3.839,6.49252 0.5119,4.66368 -0.4332,9.67348 -3.4838,13.35487 -2.7803,3.4342 -7.0983,5.22239 -11.36328,5.92969 -6.43076,1.03943 -13.32945,-1.37509 -17.57812,-6.3418 -3.12475,-3.54536 -4.71535,-8.61154 -3.42158,-13.24627 1.27276,-4.63613 4.85765,-8.35318 8.98085,-10.65226 2.76596,-1.52553 5.93634,-2.30185 9.09503,-2.20889 z m 54.9824,0.0195 c 3.6716,0.10901 7.2396,1.49998 10.2548,3.55148 4.3914,2.99341 7.2498,8.25612 6.9279,13.6134 -0.1893,4.88463 -3.0679,9.4207 -7.1393,12.03596 -5.6407,3.77243 -13.2276,4.45634 -19.3991,1.58719 -4.7753,-2.11785 -8.6105,-6.51865 -9.5118,-11.72948 -0.8088,-4.16994 0.1261,-8.75037 2.9608,-11.98757 2.9081,-3.41522 7.1725,-5.31057 11.4061,-6.5002 1.4659,-0.38946 2.9829,-0.59372 4.5006,-0.57078 z m -326.416,0.0312 c 5.32638,0.0559 10.3633,2.79774 13.79057,6.79142 3.56737,3.83622 4.37052,9.68108 2.67013,14.54017 -1.4754,4.52809 -5.08752,8.29977 -9.59152,9.88121 -6.92458,2.71146 -15.39403,1.43669 -20.90432,-3.66149 -3.34758,-3.01725 -5.2592,-7.53055 -5.05418,-12.03712 0.058,-4.02359 2.07654,-7.87331 5.1731,-10.40251 3.87375,-3.1834 8.86679,-5.19175 13.91622,-5.11168 z m 163.73438,0.0801 c 4.60657,0.0664 8.98355,2.27134 12.1569,5.54434 2.62954,2.5145 4.52851,5.90841 4.73741,9.58851 0.39809,5.32456 -2.50004,10.51611 -6.79074,13.54819 -5.43186,3.98379 -12.92674,4.91191 -19.15704,2.33948 -4.87205,-1.92705 -8.96046,-6.10928 -10.15261,-11.28788 -1.05511,-4.31616 -0.25649,-9.18309 2.66489,-12.61979 3.00178,-3.59393 7.47617,-5.62282 11.956,-6.66405 1.50465,-0.32356 3.0458,-0.48446 4.58519,-0.4488 z" /><path
             id="path1843"
             style="fill:#6d6d6d;fill-opacity:1;stroke-width:2.38485"
             d="m 618.79102,99.953125 c 0,12.451825 0,24.903645 0,37.355465 159.08138,0 318.16276,0 477.24418,0 0,-13.11849 0,-26.23698 0,-39.355465 -159.08142,0 -318.1628,0 -477.24418,0 0,0.666667 0,1.333333 0,2 z" /><path
             id="path3103"
             style="fill:#6d6d6d;fill-opacity:1;stroke-width:2.38485"
             d="m 618.79102,390.96875 c 0,12.45247 0,24.90495 0,37.35742 159.08138,0 318.16276,0 477.24418,0 0,-13.11914 0,-26.23828 0,-39.35742 -159.08142,0 -318.1628,0 -477.24418,0 0,0.66667 0,1.33333 0,2 z" /><path
             style="fill:#adadad;fill-opacity:1;stroke-width:2.38485"
             d="M 620.79152,263.13945 V 148.90837 H 857.41304 1094.0346 V 263.13945 377.37053 H 857.41304 620.79152 Z m 214.26333,76.94362 c 2.55781,-1.87032 2.63973,-4.25806 2.63973,-76.94362 0,-73.02658 -0.0708,-75.06521 -2.67514,-76.96952 -4.10155,-2.99913 -198.74723,-2.2081 -200.65808,0.81547 -1.39676,2.21011 -1.86549,145.41596 -0.49272,150.5354 0.44051,1.64281 1.80905,3.25469 3.04119,3.58196 1.23214,0.32727 45.72489,0.66602 98.87277,0.75278 81.48982,0.133 97.04617,-0.14472 99.27225,-1.77247 z m 82.36699,-0.31696 c 2.54283,-3.06167 2.63183,-29.48145 0.10784,-32.00981 -2.49666,-2.50097 -18.01359,-3.49971 -42.20983,-2.71686 -15.46666,0.50042 -21.34801,1.17243 -22.77822,2.60264 -2.32822,2.32822 -2.74229,27.58899 -0.5203,31.74082 1.32873,2.48273 3.15146,2.63039 32.47095,2.63039 27.22601,0 31.29375,-0.27759 32.92958,-2.24718 z m 163.18726,0 c 2.5428,-3.06167 2.6318,-29.48145 0.1078,-32.00981 -2.4966,-2.50097 -18.0136,-3.49971 -42.2098,-2.71686 -15.4667,0.50042 -21.348,1.17243 -22.7782,2.60264 -2.3282,2.32822 -2.7423,27.58899 -0.5203,31.74082 1.3287,2.48273 3.1514,2.63039 32.4709,2.63039 27.226,0 31.2938,-0.27759 32.9296,-2.24718 z M 975.59601,325.11295 c 10.85224,-8.3506 25.97009,-23.16364 25.94499,-25.42191 -0.063,-5.63464 -1.5195,-5.93667 -30.91252,-6.40884 -29.50977,-0.47403 -36.52504,0.30637 -38.98924,4.33733 -1.24441,2.03563 0.0261,3.84243 8.22127,11.6914 10.41603,9.97605 24.95587,21.82097 26.78731,21.82235 0.61775,4.8e-4 4.64445,-2.70867 8.94819,-6.02033 z m -43.78287,-34.77562 c 1.83904,-3.64805 2.301,-46.71225 0.56756,-52.90716 -1.53214,-5.47547 -4.85211,-6.59658 -10.51058,-3.54928 -6.62727,3.56901 -30.49539,26.63966 -30.47552,29.45726 0.008,1.2312 5.06439,6.9939 11.23491,12.806 19.86266,18.70893 25.52012,21.46038 29.18363,14.19318 z m 82.16766,0.0485 c 8.3888,-5.55649 28.3946,-24.75332 28.3946,-27.24642 0,-2.4931 -20.0058,-21.68992 -28.3946,-27.24648 -7.0809,-4.69018 -10.409,-5.067 -12.3712,-1.40069 -0.8296,1.55026 -1.4077,13.31373 -1.4077,28.64717 0,15.33344 0.5781,27.0969 1.4077,28.64717 1.9622,3.66631 5.2903,3.28949 12.3712,-1.40069 z m -18.91558,-58.03091 c 6.28628,-1.0392 7.71528,-4.4842 4.01261,-9.67328 -2.90361,-4.0692 -22.53339,-21.23263 -28.94126,-25.305 l -3.97735,-2.5277 -7.22331,5.57273 c -3.9728,3.06501 -12.07097,10.11364 -17.99592,15.66362 -9.24074,8.65595 -10.56095,10.4424 -9.28404,12.56282 0.81873,1.35957 2.96056,2.88382 4.75963,3.38723 4.17535,1.16834 51.9409,1.42861 58.64964,0.31958 z m -78.96304,-12.84648 c 1.31397,-0.70322 2.79868,-3.46211 3.29934,-6.13087 1.30612,-6.96221 -0.0695,-24.56157 -2.11226,-27.02289 -1.46674,-1.76731 -6.51871,-2.08911 -32.79701,-2.08911 -29.31948,0 -31.14222,0.14766 -32.47094,2.63039 -1.75811,3.28507 -1.82336,28.60138 -0.0808,31.36695 0.94171,1.4946 5.02546,2.26971 15.27798,2.89979 17.1199,1.05213 45.62951,0.0873 48.88373,-1.65426 z m 163.18722,0 c 1.314,-0.70322 2.7987,-3.46211 3.2994,-6.13087 1.3061,-6.96221 -0.07,-24.56157 -2.1123,-27.02289 -1.4667,-1.76731 -6.5187,-2.08911 -32.797,-2.08911 -29.3195,0 -31.1422,0.14766 -32.4709,2.63039 -1.7581,3.28507 -1.8234,28.60138 -0.081,31.36695 0.9417,1.4946 5.0254,2.26971 15.278,2.89979 17.1199,1.05213 45.6295,0.0873 48.8837,-1.65426 z"
             id="path3142" /><path
             id="path3662"
             style="fill:#696969;fill-opacity:1;stroke-width:2.38485"
             d="m 903.64844,194.50391 c -9.1862,0.0602 -18.37683,-0.11016 -27.55917,0.21611 -2.98177,0.17708 -6.00529,0.16668 -8.93497,0.80342 -1.80228,0.58494 -2.52638,2.56486 -3.17578,4.16601 -0.99145,2.87631 -1.31488,5.92369 -1.96552,8.88505 -0.40365,0.8343 0.10394,0.91747 0.84247,0.81027 14.26497,0 28.52995,0 42.79492,0 0,-4.96094 0,-9.92188 0,-14.88282 -0.66732,6.5e-4 -1.33463,0.001 -2.00195,0.002 z" /><path
             id="path4737"
             style="fill:#696969;fill-opacity:1;stroke-width:2.38485"
             d="m 1066.834,194.50391 c -9.1856,0.0602 -18.3755,-0.11015 -27.5572,0.21611 -2.9818,0.17708 -6.0053,0.16668 -8.935,0.80342 -1.8023,0.58494 -2.5264,2.56486 -3.1758,4.16601 -0.9914,2.87631 -1.3149,5.92369 -1.9655,8.88505 -0.4037,0.8343 0.1039,0.91747 0.8425,0.81027 14.2643,0 28.5286,0 42.7929,0 0,-4.96094 0,-9.92188 0,-14.88282 -0.6673,6.5e-4 -1.3346,0.001 -2.0019,0.002 z" /><path
             id="path4776"
             style="fill:#696969;fill-opacity:1;stroke-width:1.68634"
             d="m 1011.9961,254.16211 c 0.043,5.05318 -0.1001,10.11129 0.1109,15.16103 0.062,1.38167 0.3774,3.12602 1.8718,3.63777 1.4899,0.54833 2.8022,-0.64214 3.8771,-1.51332 2.4847,-2.08185 4.9464,-4.23656 7.0124,-6.74408 0.7189,-0.82235 1.0695,-2.08061 0.3778,-3.02578 -1.476,-1.98623 -3.4571,-3.53305 -5.3116,-5.15181 -2.6464,-2.21531 -5.2929,-4.4306 -7.9384,-6.64701 0,1.42773 0,2.85547 0,4.2832 z" /><path
             id="path4815"
             style="fill:#696969;fill-opacity:1;stroke-width:1.68634"
             d="m 966.41406,210.12305 c -1.3517,0.40281 -2.35021,1.51547 -3.45739,2.3417 -3.86432,3.28987 -7.58124,6.74893 -11.3805,10.11337 10.20053,0.0417 20.40104,0.0877 30.60156,0.12891 -4.36282,-3.8408 -8.57889,-7.85405 -13.08728,-11.52554 -0.75754,-0.5461 -1.68073,-1.40685 -2.67639,-1.05844 z" /><path
             id="path4854"
             style="fill:#696969;fill-opacity:1;stroke-width:1.68634"
             d="m 917.39453,252.50781 c -3.72265,3.66865 -7.44569,7.3369 -11.17187,11.00196 2.78149,2.32387 5.40239,4.84886 8.32812,6.99414 1.16533,0.74479 2.45636,1.80967 3.9208,1.51359 1.12782,-0.1439 1.67864,-1.32563 1.84287,-2.34172 0.72389,-4.79802 0.41134,-9.67071 0.48438,-14.5043 0,-2.00638 0,-4.01276 0,-6.01914 -1.13477,1.11849 -2.26953,2.23698 -3.4043,3.35547 z" /><path
             id="path4893"
             style="fill:#696969;fill-opacity:1;stroke-width:1.68634"
             d="m 955.42969,306.70898 c 3.5629,3.61345 7.11307,7.22674 10.67773,10.83985 2.82388,-2.42439 5.7785,-4.70212 8.49919,-7.24305 1.16104,-1.07759 2.3622,-2.64835 1.77688,-4.31873 -0.66317,-1.73199 -2.69549,-2.14191 -4.33857,-2.32103 -4.89178,-0.42481 -9.81086,-0.25536 -14.71534,-0.35724 -1.76546,-0.0157 -3.53092,-0.0314 -5.29638,-0.0471 1.13216,1.14909 2.26433,2.29818 3.39649,3.44726 z" /><path
             id="path4932"
             style="fill:#696969;fill-opacity:1;stroke-width:1.68634"
             d="m 862.95117,317.80469 c 0,4.472 0,8.94401 0,13.41601 14.47258,0.45172 28.94718,0.83605 43.42383,1.13086 0,-5.51562 0,-11.03125 0,-16.54687 -14.47461,0 -28.94922,0 -43.42383,0 0,0.66666 0,1.33333 0,2 z" /><path
             id="path4971"
             style="fill:#696969;fill-opacity:1;stroke-width:1.68634"
             d="m 1025.459,317.8125 c 0.08,2.90529 -0.1544,5.83736 0.2698,8.72187 0.2547,1.90254 1.6,3.5989 3.4548,4.15899 2.8781,0.87348 5.9333,0.71282 8.9048,0.87439 10.5844,0.31474 21.1707,0.55915 31.7573,0.78381 0,-5.51562 0,-11.03125 0,-16.54687 -14.7982,0 -29.5964,0 -44.3945,0 0,0.66927 0.01,1.33854 0.01,2.00781 z" /><path
             id="path5010"
             style="fill:#3334ff;fill-opacity:1;stroke-width:1.68634"
             d="m 645.63086,196.64453 c 0,45.2207 0,90.44141 0,135.66211 59.66992,0 119.33984,0 179.00976,0 10e-6,-45.88737 0,-91.77474 0,-137.66211 -59.66992,0 -119.33984,0 -179.00976,0 0,0.66667 0,1.33333 0,2 z" /></g></g></g></g><path
     style="fill:#000000;stroke-width:0.145528"
     d="m 184.48122,317.14247 c 1.69693,-0.26867 2.88199,-1.17521 3.48572,-2.66652 0.43435,-1.07286 0.38097,-3.95997 -0.10802,-5.84311 -1.69457,-6.52592 -6.76134,-12.66192 -16.75506,-20.29084 -4.80576,-3.66858 -10.42077,-7.37528 -21.66001,-14.29867 -15.01301,-9.24804 -19.96919,-12.80202 -23.55921,-16.89385 -3.84748,-4.38528 -3.76533,-8.01912 0.25173,-11.13488 0.49706,-0.38553 0.90278,-0.7451 0.90162,-0.79905 -10e-4,-0.0539 -0.42693,-0.29834 -0.94615,-0.5431 -1.20013,-0.56574 -3.28483,-2.12661 -4.16053,-3.11509 -2.19898,-2.48222 -3.25308,-5.47214 -2.73297,-7.75198 0.18498,-0.81085 0.72167,-1.8476 0.95643,-1.8476 0.057,0 0.0636,0.44721 0.0145,0.99378 -0.10963,1.22089 0.0957,2.87788 0.46047,3.71622 0.15017,0.34511 0.64048,1.05715 1.08959,1.5823 0.44912,0.52516 0.97115,1.18612 1.16008,1.46881 0.61977,0.92734 4.39945,3.61764 6.72699,4.78812 3.50336,1.76181 5.73554,1.95679 9.80901,0.85684 3.39365,-0.91639 4.69479,-1.18983 6.38623,-1.3421 5.73729,-0.5165 14.09984,2.19913 22.36369,7.26232 3.61916,2.21744 5.12094,3.03557 6.85292,3.73329 1.9363,0.78005 3.34413,1.07927 6.07283,1.29078 10.10933,0.7836 9.82789,0.77069 11.0279,0.50556 1.38946,-0.30699 3.06244,-0.97858 4.51957,-1.81433 l 1.26814,-0.72734 -0.82902,-0.0295 c -7.11636,-0.25316 -12.34099,-1.82452 -18.40182,-5.53453 -0.96192,-0.58882 -3.32301,-2.14614 -5.24685,-3.46072 -7.83848,-5.35607 -10.2642,-6.61405 -17.65609,-9.15646 -1.46579,-0.50416 -3.40486,-1.20089 -4.30905,-1.54829 l -1.64398,-0.63165 0.72786,-0.47726 c 1.15108,-0.75476 2.56695,-1.43564 3.60355,-1.7329 2.74045,-0.78588 6.76271,-0.27192 13.33585,1.70406 5.03512,1.51362 7.88015,2.87802 11.67657,5.59977 3.29061,2.35912 4.63781,3.01984 8.20409,4.02357 2.30754,0.64947 2.92655,0.96899 3.48364,1.7982 0.35724,0.53175 0.41753,1.7587 0.15465,3.14719 -0.0856,0.45193 -0.13614,0.83653 -0.11238,0.85466 0.1004,0.0766 1.92043,-0.92838 2.66196,-1.46994 0.82664,-0.60372 1.48527,-1.43537 1.67901,-2.12009 l 0.10976,-0.38792 2.95061,0.29515 c 4.79248,0.47938 4.98551,0.5919 4.79232,2.79344 -0.13508,1.53919 0.002,1.64602 0.99148,0.77055 0.8136,-0.72013 1.23166,-1.36533 1.35914,-2.09751 0.0705,-0.40492 0.26497,-0.7449 0.58935,-1.03025 0.42847,-0.37692 0.47907,-0.50853 0.44001,-1.14433 -0.0402,-0.65456 0.009,-0.77138 0.55568,-1.31428 0.94086,-0.93467 1.21936,-1.63013 1.21252,-3.02782 -0.005,-0.99927 -0.0984,-1.43092 -0.54134,-2.49923 -0.57597,-1.38912 -0.63083,-1.7044 -0.36301,-2.08641 0.34687,-0.49474 1.6766,-0.12179 2.26176,0.63436 0.45461,0.58746 0.62259,0.47966 0.5132,-0.32938 -0.14255,-1.05434 -0.9544,-2.20901 -2.26147,-3.21642 -2.1106,-1.62673 -3.30887,-1.79667 -5.78467,-0.82042 -1.44468,0.56967 -1.57201,0.59632 -2.53218,0.52986 -1.28133,-0.0887 -2.50745,-0.5261 -3.77889,-1.3481 -3.2304,-2.08847 -3.85359,-2.31079 -5.53893,-1.97605 -0.52644,0.10456 -1.12971,0.27629 -1.3406,0.38162 -0.35758,0.1786 -0.45859,0.15958 -1.4991,-0.28242 -1.79561,-0.76276 -3.51524,-1.66626 -4.99603,-2.62494 -1.76142,-1.14038 -5.40198,-4.21273 -5.85476,-4.94097 -0.4117,-0.66217 -2.87477,-3.29894 -5.4201,-5.80234 l -1.82985,-1.79971 0.0526,-0.86912 c 0.10297,-1.70148 -1.29948,-3.90907 -3.9661,-6.24298 -0.90966,-0.79617 -2.44858,-1.76703 -3.38989,-2.1386 -0.55734,-0.22 -0.52208,-0.14404 0.30481,0.65664 1.4129,1.36812 1.73132,2.23459 1.41591,3.85287 l -0.20747,1.06449 -0.58456,-0.80577 c -1.61523,-2.22645 -5.81278,-5.15116 -9.36494,-6.52517 l -0.8775,-0.33944 0.74039,0.74078 c 2.29003,2.29124 3.39819,3.94342 3.18659,4.75102 l -0.0951,0.36316 -1.10523,-0.32717 c -4.04753,-1.19817 -7.24126,-1.80779 -10.84939,-2.07095 -3.23888,-0.23622 -3.07637,-0.1939 -4.43335,-1.15434 -5.75701,-4.07467 -12.66996,-7.23745 -20.05197,-9.17406 -1.85073,-0.48552 -5.88075,-1.37712 -5.95801,-1.31815 -0.0332,0.0253 0.63793,0.34511 1.49138,0.7106 5.55299,2.37815 10.43445,5.43337 13.19953,8.26137 1.04049,1.06417 2.09394,2.29705 2.09394,2.4506 0,0.0292 -0.99316,0.0903 -2.20701,0.13573 -1.21386,0.0454 -2.49903,0.13594 -2.85595,0.20112 l -0.64894,0.11851 -1.93284,-1.49132 c -3.50846,-2.707 -7.73894,-4.84297 -13.7591,-6.94696 -3.27894,-1.14597 -9.887739,-2.73306 -11.376391,-2.73202 -0.155805,1.1e-4 0.616171,0.37607 1.715522,0.83547 4.908869,2.05133 9.070979,4.50285 12.347719,7.27289 1.46101,1.23509 4.41408,3.98515 4.52106,4.21024 0.025,0.0527 -0.83694,0.28284 -1.91552,0.51142 -8.9051,1.88724 -17.265052,4.72814 -22.865188,7.7701 -2.967699,1.61203 -5.82208,3.71988 -6.616655,4.88615 l -0.255491,0.375 0.396228,-0.19812 c 3.221398,-1.61079 4.359692,-2.03053 6.150695,-2.26803 0.599825,-0.0795 1.416039,-0.12646 1.813788,-0.10426 l 0.72319,0.0403 -1.661858,1.52575 c -7.83702,7.1952 -14.209112,15.51565 -17.381155,22.69568 -1.378422,3.1201 -2.459027,6.87514 -2.294159,7.97207 0.04701,0.31259 0.16345,0.20863 0.954387,-0.85185 1.68107,-2.25398 2.72818,-3.21216 4.679115,-4.28173 1.13016,-0.61959 2.824415,-1.36062 2.928766,-1.28097 0.04254,0.0325 -0.22077,0.93978 -0.58515,2.0162 -3.235216,9.5573 -4.636157,21.76151 -3.25321,28.34009 0.496603,2.36231 1.565876,4.71345 2.544298,5.59445 l 0.353017,0.31786 0.0054,-1.54407 c 0.01074,-2.99089 0.504598,-5.25128 1.490429,-6.82165 0.490026,-0.78057 1.924318,-2.25293 2.280986,-2.34152 0.118507,-0.0295 0.225043,0.30891 0.297297,0.94413 0.165019,1.4507 0.890279,4.55236 1.529465,6.54096 1.519533,4.72745 3.853404,8.77018 8.723208,15.11037 3.775891,4.91596 4.088526,5.59271 4.082317,8.83669 -0.0042,2.21912 -0.268827,3.75865 -1.077884,6.27181 -0.948287,2.94564 -2.212075,5.67732 -3.707184,8.01305 -0.476744,0.7448 -0.898419,1.41023 -0.937045,1.47875 -0.03862,0.0685 0.372743,-0.2417 0.914157,-0.68938 0.541413,-0.44765 1.808891,-1.38252 2.816621,-2.07747 11.609165,-8.00593 25.246915,-10.65415 41.974855,-8.1508 7.71648,1.15479 15.36876,3.12759 27.81666,7.17133 10.06657,3.27015 15.09562,4.37714 17.88148,3.93605 z m 10.01846,-83.10179 c -1.26944,-0.40716 -3.4124,-0.54686 -4.82969,-0.31484 -0.48521,0.0794 -0.90375,0.12797 -0.93009,0.10787 -0.116,-0.0885 0.83494,-1.34144 1.29673,-1.70848 1.15307,-0.9165 2.14901,-0.87596 3.59558,0.14636 0.98771,0.69803 2.62478,2.33928 2.19002,2.19562 -0.13192,-0.0436 -0.72707,-0.23553 -1.32255,-0.42653 z m -30.73821,-10.48841 c -1.83915,-0.4382 -2.43973,-0.64552 -3.11391,-1.07492 -0.73442,-0.46779 -2.07897,-0.78068 -4.48596,-1.04394 -2.63316,-0.288 -3.70767,-0.6469 -4.5886,-1.53266 -0.301,-0.30264 -0.54727,-0.60022 -0.54727,-0.66129 0,-0.17919 2.10202,-1.02475 3.21904,-1.29489 1.32177,-0.31965 2.63087,-0.24682 3.86794,0.21518 0.68168,0.25458 1.36826,0.72025 2.78059,1.88591 1.03147,0.85132 2.56681,2.07751 3.41187,2.72487 0.84507,0.64736 1.44173,1.17701 1.32592,1.17701 -0.11581,0 -0.95714,-0.17787 -1.86962,-0.39527 z"
     id="path844"
     inkscape:connector-curvature="0" /></svg>
