<?xml version="1.0" encoding="UTF-8" standalone="no"?>
<!-- Created with Inkscape (http://www.inkscape.org/) -->

<svg
   version="1.1"
   id="svg1262"
   width="512"
   height="512"
   viewBox="0 0 512.00001 512.00001"
   sodipodi:docname="powershell.svg"
   inkscape:version="1.1.2 (0a00cf5339, 2022-02-04)"
   xmlns:inkscape="http://www.inkscape.org/namespaces/inkscape"
   xmlns:sodipodi="http://sodipodi.sourceforge.net/DTD/sodipodi-0.dtd"
   xmlns="http://www.w3.org/2000/svg"
   xmlns:svg="http://www.w3.org/2000/svg">
  <defs
     id="defs1266" />
  <sodipodi:namedview
     id="namedview1264"
     pagecolor="#505050"
     bordercolor="#eeeeee"
     borderopacity="1"
     inkscape:pageshadow="0"
     inkscape:pageopacity="0"
     inkscape:pagecheckerboard="0"
     showgrid="false"
     inkscape:zoom="0.72597654"
     inkscape:cx="227.28007"
     inkscape:cy="251.38553"
     inkscape:window-width="1366"
     inkscape:window-height="695"
     inkscape:window-x="0"
     inkscape:window-y="24"
     inkscape:window-maximized="1"
     inkscape:current-layer="g1268" />
  <g
     inkscape:groupmode="layer"
     inkscape:label="Image"
     id="g1268">
    <g
       id="g6414"
       transform="matrix(6.4737429,0,0,-6.1968713,-997.69041,2888.529)">
      <g
         id="g266"
         transform="translate(193.37874,406.98792)">
        <path
           d="M 0,0 H 3.821 C 2.398,0.637 1.131,1.371 0,2.173 Z"
           style="fill:#4072c1;fill-opacity:1;fill-rule:nonzero;stroke:none"
           id="path268"
           inkscape:connector-curvature="0" />
      </g>
      <g
         id="g270"
         transform="translate(208.76844,423.44442)">
        <path
           d="m 0,0 h -15.39 v -14.283 c 1.131,-0.803 2.399,-1.536 3.822,-2.174 H 0 Z"
           style="fill:#4072c1;fill-opacity:1;fill-rule:nonzero;stroke:none"
           id="path272"
           inkscape:connector-curvature="0" />
      </g>
      <g
         id="g310"
         transform="translate(176.30944,447.06262)">
        <path
           d="m 0,0 c 0.023,-1.469 0.04,-2.933 -0.705,-4.247 -0.651,-1.151 -1.76,-1.971 -2.83,-2.705 -2.719,-1.865 -4.681,-4.319 -5.27,-7.613 -0.484,-2.708 -0.053,-5.56 1.215,-8.001 1.42,-2.734 4.184,-4.147 6.229,-6.321 2.478,-2.636 4.119,-6.853 3.106,-10.461 -0.502,-1.791 -0.815,-3.64 -0.683,-5.506 0.187,-2.652 1.396,-5.217 3.331,-7.038 1.269,-1.195 2.708,-1.999 3.705,-3.481 0.816,-1.212 1.355,-2.583 1.811,-3.963 0.216,-0.654 0.452,-1.299 0.68,-1.95 0.059,-0.168 0.45,-0.907 0.378,-1.078 l 1.598,3.58 c 0.086,0.191 0.162,0.387 0.228,0.586 0.27,0.815 0.368,1.684 0.289,2.539 -0.082,0.877 -0.409,1.683 -0.643,2.524 -0.156,0.56 -0.318,1.155 -0.303,1.741 0.006,0.248 0.05,0.497 0.168,0.715 0.45,0.826 1.539,0.848 2.124,1.544 0.805,0.958 0.501,2.119 0.404,3.249 -0.105,1.228 0.309,2.443 0.971,3.485 l 1.109,1.795 c -0.012,0.009 -1.35,1.053 -1.35,1.053 -8.926,7.646 -7.943,19.722 -7.943,19.722 0,0 -0.983,-12.076 7.943,-19.722 L 37.617,0.81 c 0,0 0.652,1.166 0.652,1.167 2.084,3.729 1.414,8.553 -1.51,11.638 -6.288,6.635 -16.596,4.34 -23.953,0.993 C 7.896,12.376 1.816,8.824 0.256,3.255 -0.038,2.206 -0.018,1.101 0,0"
           style="fill:#662272;fill-opacity:1;fill-rule:nonzero;stroke:none"
           id="path312"
           inkscape:connector-curvature="0" />
      </g>
      <g
         id="g314"
         transform="translate(218.90224,421.76132)">
        <path
           d="M 0,0 C -0.011,-0.111 -0.022,-0.223 -0.034,-0.334 -0.022,-0.223 -0.011,-0.111 0,0"
           style="fill:#56c0ef;fill-opacity:1;fill-rule:nonzero;stroke:none"
           id="path316"
           inkscape:connector-curvature="0" />
      </g>
      <g
         id="g318"
         transform="translate(218.77434,420.61242)">
        <path
           d="M 0,0 C -0.007,-0.056 -0.013,-0.111 -0.021,-0.167 -0.013,-0.111 -0.007,-0.056 0,0"
           style="fill:#56c0ef;fill-opacity:1;fill-rule:nonzero;stroke:none"
           id="path320"
           inkscape:connector-curvature="0" />
      </g>
      <g
         id="g322"
         transform="translate(219.72644,434.87932)">
        <path
           d="m 0,0 c 0,5.129 -2.234,9.752 -5.8,12.994 -3.228,2.935 -7.547,4.736 -12.303,4.763 v 10e-4 c -0.017,0 -0.035,0 -0.052,0 -0.018,0 -0.035,0 -0.053,0 V 17.757 C -28.215,17.701 -36.31,9.773 -36.31,0 c 0,-2.595 0.413,-5.111 0.51,-7.672 10e-4,0.014 0.002,0.024 0.002,0.024 0,0 -10e-4,-0.01 -0.002,-0.024 0.003,-0.084 0.009,-0.167 0.012,-0.251 0.048,-1.623 0.123,-3.249 0.272,-4.867 0.646,-4.298 2.561,-10.423 8.04,-14.898 2.598,-2.121 5.863,-3.286 9.216,-3.295 h 0.052 0.105 c 0.019,0 0.038,0 0.056,0.001 3.351,0.008 6.614,1.171 9.21,3.289 5.465,4.46 7.386,10.56 8.039,14.857 0.152,1.633 0.228,3.274 0.277,4.913 C -0.442,-5.275 0,-2.68 0,0"
           style="fill:#56c0ef;fill-opacity:1;fill-rule:nonzero;stroke:none"
           id="path324"
           inkscape:connector-curvature="0" />
      </g>
      <g
         id="g326"
         transform="translate(183.89934,438.95442)">
        <path
           d="m 0,0 v 0 c -0.242,-1.029 -0.397,-2.091 -0.455,-3.179 l 25.36,-13.039 -21.397,-9.894 c 0.508,-0.859 1.089,-1.709 1.753,-2.536 l 26.565,12.284 z"
           style="fill:#ffffff;fill-opacity:1;fill-rule:nonzero;stroke:none"
           id="path328"
           inkscape:connector-curvature="0" />
      </g>
      <g
         id="g330"
         transform="translate(211.00864,443.29112)">
        <path
           d="M 0,0 2.918,4.582 C 2.315,5.123 -0.354,9.878 -0.354,9.878 l -10.81,1.53 -2.933,-1.118 c -10.055,0 -14.155,-2.183 -14.155,-11.991 v -6.85 c 0,-2.639 0.932,-4.884 1.172,-7.509 l 4.179,5.206 c 1.99,2.48 5.278,3.073 8.455,2.927 5.853,0 11.301,2.989 14.446,7.927"
           style="fill:#662272;fill-opacity:1;fill-rule:nonzero;stroke:none"
           id="path332"
           inkscape:connector-curvature="0" />
      </g>
      <g
         id="g334"
         transform="translate(209.74014,418.14372)">
        <path
           d="m 0,0 c -1.098,0 -2.079,0.216 -2.918,0.642 -1.734,0.879 -2.811,2.5 -2.811,4.229 v 0.658 l 0.527,0.395 c 0.025,0.019 3.034,2.119 6.268,3.459 2.955,1.223 6.375,1.992 6.52,2.023 L 9.538,11.841 9.163,9.877 C 9.137,9.738 8.519,6.63 6.213,4.861 5.4,2.086 3.638,0.396 1.208,0.081 0.794,0.027 0.388,0 0,0"
           style="fill:#56c0ef;fill-opacity:1;fill-rule:nonzero;stroke:none"
           id="path336"
           inkscape:connector-curvature="0" />
      </g>
      <g
         id="g338"
         transform="translate(205.32504,423.01452)">
        <path
           d="m 0,0 c 0,0 2.886,2.014 5.984,3.298 2.883,1.193 6.303,1.955 6.303,1.955 0,0 -0.585,-3.061 -2.805,-4.461 z"
           style="fill:#2f172e;fill-opacity:1;fill-rule:nonzero;stroke:none"
           id="path340"
           inkscape:connector-curvature="0" />
      </g>
      <g
         id="g342"
         transform="translate(210.77914,419.52822)">
        <path
           d="m 0,0 c 2.692,0.349 4.066,2.763 4.343,6.341 0,0 -1.944,-0.228 -5.171,-1.239 C -3.1,4.391 -5.454,3.487 -5.454,3.487 -5.454,2.198 -4.582,1.048 -3.362,0.429 -2.335,-0.092 -1.123,-0.146 0,0"
           style="fill:#ffffff;fill-opacity:1;fill-rule:nonzero;stroke:none"
           id="path344"
           inkscape:connector-curvature="0" />
      </g>
      <g
         id="g346"
         transform="translate(197.81534,423.01452)">
        <path
           d="m 0,0 c 0,0 -2.886,2.014 -5.983,3.298 -2.883,1.193 -6.303,1.955 -6.303,1.955 0,0 0.584,-3.061 2.805,-4.461 z"
           style="fill:#2f172e;fill-opacity:1;fill-rule:nonzero;stroke:none"
           id="path348"
           inkscape:connector-curvature="0" />
      </g>
      <g
         id="g350"
         transform="translate(192.36214,419.52822)">
        <path
           d="m 0,0 c -2.693,0.349 -4.067,2.763 -4.343,6.341 0,0 1.944,-0.228 5.171,-1.239 C 3.1,4.391 5.453,3.487 5.453,3.487 5.453,2.198 4.581,1.048 3.361,0.429 2.335,-0.092 1.122,-0.146 0,0"
           style="fill:#ffffff;fill-opacity:1;fill-rule:nonzero;stroke:none"
           id="path352"
           inkscape:connector-curvature="0" />
      </g>
      <g
         id="g354"
         transform="translate(205.32504,413.19762)">
        <path
           d="m 0,0 v -2.985 h 8.582 c 0.787,0.969 1.46,1.972 2.035,2.985 z"
           style="fill:#ffffff;fill-opacity:1;fill-rule:nonzero;stroke:none"
           id="path356"
           inkscape:connector-curvature="0" />
      </g>
      <g
         id="g358"
         transform="translate(213.92664,447.87292)">
        <path
           d="m 0,0 c 0.295,-0.999 1.138,-9.379 -1.982,-12.498 2.591,0 6.065,-0.418 7.524,-4.761 0.258,1.433 0.475,4.762 0.528,6.15 C 6.223,-7.195 4.146,-3.026 0,0"
           style="fill:#7f3387;fill-opacity:1;fill-rule:nonzero;stroke:none"
           id="path360"
           inkscape:connector-curvature="0" />
      </g>
      <g
         id="g418"
         transform="translate(213.92664,447.87292)">
        <path
           d="m 0,0 c 0,0 -0.972,17.176 -18.294,12.998 0,0 14.289,0.294 18.294,-12.998"
           style="fill:#a81890;fill-opacity:1;fill-rule:nonzero;stroke:none"
           id="path420"
           inkscape:connector-curvature="0" />
      </g>
      <g
         id="g422"
         transform="translate(197.65124,453.96962)">
        <path
           d="m 0,0 c 0,0 9.029,5.555 16.275,-6.097 0,0 -4.116,4.994 -16.275,6.097"
           style="fill:#a81890;fill-opacity:1;fill-rule:nonzero;stroke:none"
           id="path424"
           inkscape:connector-curvature="0" />
      </g>
      <g
         id="g430"
         transform="translate(181.04094,402.83072)">
        <path
           d="m 0,0 c -0.001,-0.113 0.001,-0.227 0.004,-0.34 0.067,-2.281 1.122,-4.637 3.104,-5.766 -1.055,1.141 -1.614,2.684 -1.753,4.232 -0.191,2.132 0.492,4.125 0.804,6.204 0.32,2.121 0.453,4.286 0.251,6.425 -0.497,5.276 -4.087,10.246 -3.057,15.648 0.389,2.046 1.315,3.992 2.671,5.574 1.495,1.741 3.48,2.514 5.755,2.657 3.294,0.207 6.534,-0.906 9.825,-0.525 5.701,0.661 11.469,4.097 15.282,10.933 0,0 -9.817,-10.681 -18.979,-8.629 C 9.76,37.342 5.468,38.124 1.348,36.823 -2.73,35.534 -5.081,32.255 -5.071,27.978 -5.059,22.251 -1.802,17.415 -0.115,12.134 0.662,9.701 1.062,7.27 0.649,4.73 0.395,3.157 0.009,1.589 0,0"
           style="fill:#a81890;fill-opacity:1;fill-rule:nonzero;stroke:none"
           id="path432"
           inkscape:connector-curvature="0" />
      </g>
    </g>
  </g>
</svg>
