<?xml version="1.0" encoding="UTF-8" standalone="no"?>
<svg
   inkscape:version="1.2.2 (b0a8486541, 2022-12-01)"
   sodipodi:docname="pret.svg"
   viewBox="0 0 512 512"
   height="512"
   width="512"
   id="svg62"
   version="1.1"
   xmlns:inkscape="http://www.inkscape.org/namespaces/inkscape"
   xmlns:sodipodi="http://sodipodi.sourceforge.net/DTD/sodipodi-0.dtd"
   xmlns="http://www.w3.org/2000/svg"
   xmlns:svg="http://www.w3.org/2000/svg"
   xmlns:rdf="http://www.w3.org/1999/02/22-rdf-syntax-ns#"
   xmlns:cc="http://creativecommons.org/ns#"
   xmlns:dc="http://purl.org/dc/elements/1.1/">
  <metadata
     id="metadata68">
    <rdf:RDF>
      <cc:Work
         rdf:about="">
        <dc:format>image/svg+xml</dc:format>
        <dc:type
           rdf:resource="http://purl.org/dc/dcmitype/StillImage" />
      </cc:Work>
    </rdf:RDF>
  </metadata>
  <defs
     id="defs66" />
  <sodipodi:namedview
     inkscape:current-layer="g70"
     inkscape:window-maximized="1"
     inkscape:window-y="24"
     inkscape:window-x="0"
     inkscape:cy="333.09479"
     inkscape:cx="272.3223"
     inkscape:zoom="0.64996514"
     showgrid="false"
     id="namedview64"
     inkscape:window-height="691"
     inkscape:window-width="1366"
     inkscape:pageshadow="2"
     inkscape:pageopacity="0"
     guidetolerance="10"
     gridtolerance="10"
     objecttolerance="10"
     borderopacity="1"
     bordercolor="#666666"
     pagecolor="#999999"
     inkscape:pagecheckerboard="0"
     inkscape:showpageshadow="0"
     inkscape:deskcolor="#999999" />
  <g
     id="g70"
     inkscape:label="Image"
     inkscape:groupmode="layer">
    <g
       id="g845"
       transform="matrix(0.92363466,0,0,0.91663545,19.532451,21.377919)">
      <path
         id="path74-6-7"
         style="fill:#ffffff;fill-opacity:1;stroke-width:1.03383"
         d="m 256.20312,-15.412109 c -37.54975,0.34347 -75.10071,0.53068 -112.65098,0.807359 -31.99771,0.218931 -63.997121,0.432791 -95.993546,0.686781 -4.265618,0.314759 -8.020217,2.533419 -11.820313,4.2832034 -0.574091,0.2412832 -1.420417,0.6524306 -2.08789,0.984375 C 26.665072,-5.1643951 20.270495,-0.4389172 15.112459,5.4395413 9.2616591,11.897315 4.7057202,19.825849 3.4225106,28.537733 2.4348859,34.664855 2.5573437,40.94075 2.2704581,47.06322 1.7098139,68.315383 1.553028,89.575921 0.99414062,110.82812 c -0.0300163,0.88079 -0.0678152,1.96507 -0.11132812,2.92383 -5.3091185,4.38498 -9.8853438,9.9003 -12.2070315,16.45508 -3.072921,8.19801 -3.32356,17.06467 -3.551838,25.71371 -0.345449,14.05987 -0.213886,28.12533 -0.321617,42.18784 0.0058,6.34382 -0.0968,12.6943 0.127615,19.03341 0.58135,5.01257 3.546969,9.23726 5.7069653,13.66288 2.7140253,5.06962 6.1271877,9.84388 10.5330156,13.58185 0.2121221,70.64942 0.3361997,141.29931 0.7332285,211.94799 0.1465266,10.13101 0.1270417,20.28926 1.1669605,30.37769 1.4197787,10.10408 7.3372171,19.43858 15.7961371,25.12649 5.700562,3.92903 12.441495,6.18066 19.288049,6.99119 5.585977,5.00731 13.02078,7.69009 20.469168,8.01962 5.922433,0.45925 11.885402,0.68547 17.81574,0.25396 6.902058,-0.61537 13.888244,-2.58801 19.461186,-6.83999 2.600197,-0.0735 5.053419,-0.17491 7.662819,-0.20747 8.64817,-0.10942 17.29749,-0.0793 25.94613,-0.13466 83.59309,-0.30126 167.1866,0.0126 250.7797,0.14552 11.74285,0.0226 23.48569,0.0451 35.22854,0.0677 2.08411,2.34559 4.16708,4.69219 6.25195,7.03711 14.55404,-10e-6 29.10807,0 43.66211,0 2.85106,-2.56508 5.50361,-5.34012 8.05078,-8.20508 8.37144,-1.34453 16.69812,-4.42623 23.09819,-10.13088 6.8713,-5.99099 11.51645,-14.67664 12.0068,-23.84192 0.94643,-10.90856 0.7526,-21.87047 0.9188,-32.80831 0.33162,-37.24931 0.3098,-74.50052 0.44241,-111.75081 0.0887,-32.0447 0.17748,-64.0894 0.26622,-96.1341 5.09795,-4.21093 9.24239,-9.49926 12.40864,-15.28752 2.4526,-3.9681 4.55063,-8.39851 4.5721,-13.15732 0.17692,-4.13414 -0.11732,-8.27019 -0.047,-12.40589 -0.21082,-19.64873 -0.18782,-39.30645 -0.94724,-58.94356 C 525.83636,137.8 524.5559,130.9 520.8201,125.19371 c -2.82407,-4.51655 -6.64475,-8.29891 -10.61307,-11.80894 -0.35498,-8.46036 -0.39158,-17.125021 -3.18407,-25.222049 -2.72837,-7.590306 -8.26414,-13.971583 -14.97205,-18.356131 -5.22894,-3.518905 -11.42996,-5.565927 -17.73093,-5.809651 -8.42416,-0.665181 -16.88188,-0.616797 -25.32477,-0.828416 -5.77545,-0.09588 -11.55142,-0.154543 -17.32724,-0.223211 1.15689,-5.691795 1.3683,-11.528731 1.33776,-17.321003 -0.20392,-8.577814 -1.69322,-17.279826 -5.52526,-25.020793 C 423.88441,13.895441 417.71482,8.9194711 410.98223,5.5736685 405.05773,2.5965235 398.39978,1.2968877 391.79738,1.2626327 379.14317,0.69389659 366.47211,0.90664447 353.80938,0.80105516 330.23428,0.75425021 306.65912,0.76402564 283.08398,0.75976562 280.47988,-3.7671303 276.52101,-7.3351047 272.24414,-10.25 c -3.72669,-2.72451 -8.06786,-4.929671 -12.76819,-5.077634 -1.0886,-0.08453 -2.18151,-0.09068 -3.27283,-0.08447 z M 70.451172,48.613281 c -2.042086,2.74016 -3.584627,5.864899 -4.417969,9.183594 0.08203,-3.141276 0.164063,-6.282552 0.246094,-9.423828 1.475914,-0.02918 2.951782,-0.06073 4.427734,-0.08789 -0.08529,0.109375 -0.170573,0.21875 -0.255859,0.328124 z m -4.648438,20.191407 c 0.564424,2.870155 1.676408,5.616187 3.128096,8.14329 1.897635,7.099694 5.600575,13.988539 11.553827,18.478076 1.065249,0.866285 2.387385,1.379232 3.44746,2.226141 1.001934,1.200865 2.121096,2.304099 3.327649,3.298975 -7.311198,0 -14.622396,0 -21.933594,0 0.05537,-10.760832 0.223839,-21.520808 0.451172,-32.279295 l 0.01878,0.09822 z m 164.908206,0.839843 c 0.3145,0.444826 1.26511,0.676588 1.10358,1.280856 -0.16343,0.720834 -0.32687,1.441669 -0.4903,2.162504 -0.42967,0.05408 -1.29675,0.812715 -1.43528,0.108403 -0.30869,-1.062176 -0.61737,-2.124352 -0.92605,-3.186528 0.57224,-0.384213 1.06807,-0.468082 1.74805,-0.365235 z m 24.98828,78.304689 c 12.26823,0 24.53646,0 36.80469,0 0,5.04036 0,10.08073 0,15.12109 -24.50261,0 -49.00521,0 -73.50782,0 -0.0718,-5.04003 -0.0717,-10.08067 -0.0879,-15.12109 12.26368,0 24.52735,0 36.79102,0 z m -143.27149,16.83203 c 0.28225,5.01861 1.98167,9.91554 4.68946,14.13672 -2.62164,4.28465 -4.30804,9.17743 -4.64844,14.20117 -21.270833,0.003 -42.541667,0.005 -63.8125,0.008 -0.185153,-9.65719 -0.240246,-19.31619 -0.326172,-28.97461 21.352865,-0.15364 42.705729,-0.30729 64.058592,-0.46093 0.013,0.36328 0.026,0.72656 0.0391,1.08984 z m 360.75586,35.87109 c 0.99428,0.32232 1.45908,1.69109 0.70818,2.47795 -0.58585,0.71136 -1.78032,0.98304 -2.4866,0.26533 -1.07497,-0.80049 -0.43193,-2.65813 0.84277,-2.81577 0.32062,-0.0749 0.62151,0.0107 0.93565,0.0725 z m -45.8125,3.05274 c 0.7915,0.0332 0.73601,1.50051 -0.12743,1.23159 -0.37434,-0.0796 -1.26555,0.14141 -1.13233,-0.50894 0.14184,-0.48184 0.8338,-0.63784 1.25976,-0.72265 z M 255.69922,333.30273 c 63.47331,0 126.94661,0 190.41992,0 0,20.73112 0,41.46224 0,62.19336 -104.4529,0.17085 -208.90603,0.26575 -313.35856,0.60048 -14.57791,0.11872 -29.16879,0.08 -43.727268,0.92433 -4.522132,0.40886 -9.065363,1.4896 -13.013781,3.79746 -3.274937,-2.10776 -6.932666,-3.62165 -10.742187,-4.43359 0,-21.02735 0,-42.05469 0,-63.08204 63.473956,0 126.947916,0 190.421876,0 z M 76.871094,452.23828 c 4.580949,2.60556 9.860155,3.69994 15.085617,3.90854 6.51814,0.41019 13.052409,0.46801 19.580689,0.6045 1.65737,0.0258 3.31488,0.0394 4.97237,0.0553 -0.0858,0.77098 -1.03065,0.30694 -1.56209,0.43724 -16.471363,0.0816 -32.942809,0.21155 -49.414477,0.16432 0.0971,-0.46987 -0.279599,-1.32122 0.461091,-1.26308 3.701432,-0.79423 7.315769,-2.10814 10.544768,-4.10215 0.110678,0.0651 0.221355,0.13021 0.332032,0.19531 z" />
      <path
         id="path567"
         style="fill:#4d4d4d;fill-rule:evenodd;stroke-width:5.11136;stroke-linejoin:bevel;paint-order:markers stroke fill"
         d="m 310.15039,460.57422 c -30.98259,0.15663 -61.9641,0.47116 -92.94609,0.71296 -14.80744,0.15795 -29.62178,0.20657 -44.41743,0.87256 -4.95075,0.29508 -9.95218,0.55134 -14.78101,1.76214 -3.0052,0.75834 -6.01887,2.55303 -7.18524,5.56368 -1.01657,2.50461 -0.93865,5.26363 -1.50889,7.87557 -0.16868,1.21882 -0.4557,2.4442 -0.55244,3.65902 0.23115,0.79108 0.32824,1.65343 1.00759,2.20627 0.69991,0.71846 1.17465,1.73371 2.20849,2.01206 0.93129,0.58278 2.06791,0.23068 3.10627,0.32597 67.82695,0 135.65391,0 203.48086,0 0.75824,-0.35275 1.61824,-0.56433 2.08584,-1.32027 0.61288,-0.75933 1.51052,-1.35234 1.66752,-2.37794 0.45112,-0.97452 -0.005,-2.05022 -0.006,-3.07522 -0.31017,-2.93272 -0.44264,-5.8897 -0.8901,-8.80469 -0.60979,-2.92401 -2.72636,-5.4708 -5.52661,-6.53864 -3.71929,-1.6064 -7.82639,-1.86461 -11.8116,-2.22103 -10.74025,-0.73604 -21.51386,-0.61816 -32.27272,-0.65404 -0.55287,5.3e-4 -1.10573,0.001 -1.6586,0.002 z" />
      <path
         id="path565"
         style="fill:#ffffff;fill-rule:evenodd;stroke-width:5.11136;stroke-linejoin:bevel;paint-order:markers stroke fill"
         d="m 40.896484,307.37109 c -0.669944,0.74312 -1.51506,1.36918 -2.07656,2.18477 -0.334097,0.71041 -0.635313,1.42735 -0.509377,2.2293 0,35.5664 0,71.13281 0,106.69922 0.311845,0.78669 0.571129,1.60851 1.293044,2.12116 0.677547,0.65045 1.249821,1.45784 2.215398,1.67888 0.904213,0.4108 1.952516,0.12181 2.920854,0.20857 4.619488,0.0512 9.319678,-0.31668 13.85586,0.75701 1.452796,0.42694 3.079671,0.96028 3.970703,2.26562 0.578668,1.00254 0.568538,2.6267 -0.65455,3.14091 -1.89089,0.93052 -4.062891,1.06171 -6.13604,1.18051 -3.614892,0.13719 -7.323779,-0.27748 -10.850225,0.71281 -2.763813,0.87092 -4.91602,3.27274 -5.564495,6.08761 -1.047364,3.72947 -0.931876,7.6469 -1.01736,11.48401 -0.06974,10.64949 -0.01549,21.29923 -0.03319,31.94884 0.314992,0.78806 0.575255,1.61295 1.301991,2.12393 0.683882,0.64947 1.26075,1.46097 2.233657,1.67285 0.899241,0.41255 1.937486,0.0977 2.899416,0.1822 30.19938,-0.26447 60.39876,-0.52895 90.59814,-0.79343 0.77146,-0.24891 1.50559,-0.55074 2.07194,-1.14899 0.94784,-0.70234 1.85042,-1.62953 1.95383,-2.86416 0.97078,-5.4711 1.51902,-11.24351 4.50353,-16.07865 1.86856,-3.06348 4.74779,-5.34488 7.83454,-7.09449 1.1391,-0.66736 2.23792,-1.47427 3.40217,-2.0545 44.42846,-0.22953 88.85664,-0.53406 133.28553,-0.66599 21.3337,-0.0315 42.66936,-0.0907 64.00105,0.24674 1.21876,0.0494 2.27772,0.0322 3.49043,0.20349 3.24482,1.49965 6.05742,3.77248 8.77647,6.05947 2.15654,1.82457 4.1721,3.99805 5.01508,6.75786 1.13991,3.36539 1.60125,6.90776 2.39745,10.36083 0.31651,1.31541 0.46518,2.69702 0.88778,3.9706 0.33961,0.74611 0.90825,1.28549 1.54817,1.77459 0.83135,0.80735 1.93092,1.37006 3.11439,1.25832 27.32864,0.37802 54.66069,0.60339 81.98413,1.28013 3.43266,0.10111 6.86531,0.20223 10.29796,0.30334 0.80076,-0.30082 1.64127,-0.53981 2.17037,-1.26323 0.66732,-0.67957 1.50241,-1.24444 1.73042,-2.22438 0.43276,-0.89777 0.12315,-1.94587 0.2164,-2.91239 0,-15.075 0,-30.15 0,-45.225 -0.31078,-0.78625 -0.56967,-1.60712 -1.2904,-2.1199 -0.67622,-0.65048 -1.2468,-1.45857 -2.21287,-1.67655 -0.89354,-0.41505 -1.93099,-0.11405 -2.88891,-0.2088 -92.67082,-0.20689 -185.3417,-0.39525 -278.01246,-0.62832 -25.11012,-0.10172 -50.22305,-0.11214 -75.32867,-0.6475 -6.53275,-0.17491 -13.08795,-0.33509 -19.63158,-0.92441 -1.662073,-0.18475 -3.542956,-0.34853 -5.238626,-0.80624 0.130869,-0.40065 -0.205556,-1.11732 0.169194,-1.30193 3.969311,-0.85995 8.05126,-0.97955 12.091112,-1.25673 12.43269,-0.58412 24.90299,-0.7022 37.36734,-0.87523 35.19308,-0.3416 70.388,-0.43018 105.58227,-0.5814 75.13641,-0.28167 150.27282,-0.56524 225.40923,-0.84994 0.78465,-0.31299 1.6037,-0.57477 2.11392,-1.29638 0.61081,-0.66286 1.42068,-1.19307 1.63041,-2.1232 0.4724,-0.94887 0.1419,-2.05721 0.24004,-3.08042 0,-34.92578 0,-69.85156 0,-104.77734 -0.31184,-0.7867 -0.57113,-1.60852 -1.29304,-2.12117 -0.67762,-0.65029 -1.24931,-1.45907 -2.21673,-1.6757 -0.89448,-0.4141 -1.9318,-0.11041 -2.89023,-0.20313 -141.77161,0 -283.54323,0 -425.314844,0 -0.471354,0.19531 -0.942708,0.39062 -1.414062,0.58593 z" />
      <path
         id="path563"
         style="fill:#ffffff;fill-rule:evenodd;stroke-width:5.11136;stroke-linejoin:bevel;paint-order:markers stroke fill"
         d="m 434.76367,230.44531 c -0.66994,0.74312 -1.51506,1.36918 -2.07656,2.18477 -0.3341,0.7104 -0.63531,1.42735 -0.50938,2.2293 0,19.66731 0,39.33463 0,59.00195 0.31185,0.78669 0.57113,1.60851 1.29305,2.12117 0.67761,0.65028 1.24931,1.45907 2.21672,1.67569 0.89449,0.41411 1.9318,0.11041 2.89023,0.20314 10.48256,0 20.96511,0 31.44766,0 0.78669,-0.31185 1.60851,-0.57113 2.12117,-1.29305 0.65029,-0.67761 1.45907,-1.2493 1.6757,-2.21672 0.4141,-0.89449 0.1104,-1.9318 0.20313,-2.89023 0,-19.20065 0,-38.4013 0,-57.60195 -0.31184,-0.7867 -0.57113,-1.60852 -1.29304,-2.12117 -0.67762,-0.65029 -1.24931,-1.45907 -2.21673,-1.6757 -0.89448,-0.4141 -1.9318,-0.11041 -2.89023,-0.20313 -10.48255,-10e-6 -20.9651,0 -31.44766,0 -0.47135,0.19531 -0.9427,0.39062 -1.41406,0.58593 z" />
      <path
         id="path561"
         style="fill:#666666;fill-rule:evenodd;stroke-width:5.11136;stroke-linejoin:bevel;paint-order:markers stroke fill"
         d="m 399.37695,245.83008 c -0.67008,0.74368 -1.51472,1.37072 -2.07665,2.18668 -0.33438,0.70964 -0.63521,1.42599 -0.51022,2.22738 -0.0584,7.12033 0.15882,14.23889 0.57265,21.34675 0.40951,7.51613 0.95111,15.02455 1.43805,22.53606 0.33862,0.72514 0.62367,1.48651 1.30698,1.95827 0.74607,0.73039 1.50208,1.54484 2.58574,1.71301 1.51331,0.14847 3.06944,0.0201 4.59908,0.0631 3.47409,0 6.94818,0 10.42226,0 0.7867,-0.31185 1.60852,-0.57113 2.12117,-1.29305 0.65029,-0.67761 1.45907,-1.2493 1.6757,-2.21672 0.4141,-0.89449 0.11041,-1.9318 0.20313,-2.89023 0,-14.0724 0,-28.14479 0,-42.21719 -0.31184,-0.78669 -0.57113,-1.60851 -1.29304,-2.12117 -0.67761,-0.65028 -1.24931,-1.45907 -2.21672,-1.67569 -0.89449,-0.41411 -1.9318,-0.11041 -2.89024,-0.20314 -4.84127,0 -9.68255,0 -14.52382,0 -0.47136,0.19531 -0.94271,0.39063 -1.41407,0.58594 z" />
      <path
         id="path555"
         style="fill:#b3b3b3;fill-rule:evenodd;stroke-width:5.11136;stroke-linejoin:bevel;paint-order:markers stroke fill"
         d="m 246.29688,260.60742 c -10.94292,0.0501 -21.893,0.007 -32.83868,0.0215 -11.40599,0 -22.81198,0 -34.21797,0 -0.78669,0.31184 -1.60851,0.57113 -2.12116,1.29304 -0.65071,0.67744 -1.45586,1.25066 -1.68398,2.21325 -0.41058,0.97292 -0.12459,2.08858 -0.18837,3.12443 0.0608,2.00906 0.0115,4.16617 -1.211,5.86588 -1.04255,1.57419 -2.83315,2.95866 -4.8072,2.78465 -1.44942,-0.26783 -2.06798,-1.65602 -2.75053,-2.78666 -1.17659,-2.03672 -1.79042,-4.37416 -1.77506,-6.72474 -0.28379,-2.68321 -2.63489,-4.81858 -5.26,-5.16628 -3.62668,-0.70223 -7.3451,-0.51398 -11.01908,-0.58863 -6.65165,-0.0295 -13.3034,-0.0116 -19.9551,-0.0149 -0.78669,0.31184 -1.60851,0.57113 -2.12117,1.29304 -0.65028,0.67761 -1.45907,1.24931 -1.6757,2.21672 -0.4141,0.89449 -0.1104,1.9318 -0.20313,2.89024 0,8.94414 0,17.88828 0,26.83242 0.31184,0.78669 0.57113,1.60851 1.29304,2.12117 0.67762,0.65028 1.24931,1.45907 2.21673,1.67569 0.89448,0.41411 1.9318,0.11041 2.89023,0.20314 83.81979,0 167.63958,0 251.45937,0 0.7867,-0.31185 1.60852,-0.57113 2.12117,-1.29305 0.65029,-0.67761 1.45907,-1.2493 1.6757,-2.21672 0.4141,-0.89449 0.11041,-1.9318 0.20313,-2.89023 0,-8.94414 10e-6,-17.88828 0,-26.83242 -0.31184,-0.7867 -0.57112,-1.60852 -1.29304,-2.12117 -0.67761,-0.65029 -1.24931,-1.45907 -2.21672,-1.6757 -0.89449,-0.4141 -1.9318,-0.11041 -2.89024,-0.20313 -9.96953,0 -19.93906,0 -29.90859,0 -0.78669,0.31184 -1.60851,0.57113 -2.12117,1.29304 -0.6507,0.67744 -1.45586,1.25066 -1.68398,2.21325 -0.40892,0.96578 -0.12804,2.07345 -0.19294,3.10221 0.0607,2.45835 0.0841,5.18967 -1.59573,7.18049 -0.8987,1.15332 -2.65456,2.13555 -4.03081,1.18855 -2.09425,-1.3948 -3.76684,-3.5016 -4.56861,-5.89466 -0.53851,-1.70653 -0.0837,-3.54468 -0.34621,-5.26765 -0.2663,-0.73849 -0.56045,-1.45836 -1.21648,-1.9364 -0.67762,-0.65029 -1.24931,-1.45907 -2.21673,-1.6757 -0.89448,-0.4141 -1.9318,-0.11041 -2.89023,-0.20313 -21.25273,0 -42.50547,0 -63.7582,0 -0.7867,0.31184 -1.60852,0.57113 -2.12117,1.29304 -0.65082,0.67739 -1.45495,1.25105 -1.68634,2.21224 -0.4183,0.99076 -0.10414,2.12445 -0.17813,3.17714 0.14508,1.52975 -0.46721,2.97582 -1.28624,4.23212 -1.17262,1.73711 -2.63537,3.37821 -4.4957,4.38624 -0.58806,0.19349 -1.0917,-0.43919 -1.56641,-0.69922 -1.59234,-1.35766 -2.74529,-3.30435 -3.06957,-5.37816 -0.20367,-1.82661 0.088,-3.68028 -0.11357,-5.49993 -0.27791,-1.29957 -1.52704,-1.98364 -2.32272,-2.94222 -0.605,-0.56192 -1.43055,-0.89396 -2.26171,-0.80274 z" />
      <path
         id="path559"
         style="fill:#666666;fill-rule:evenodd;stroke-width:5.11136;stroke-linejoin:bevel;paint-order:markers stroke fill"
         d="m 93.207031,245.83008 c -0.669944,0.74312 -1.51506,1.36917 -2.07656,2.18476 -0.334097,0.71041 -0.635313,1.42736 -0.509377,2.2293 0,14.53906 0,29.07813 0,43.61719 0.311845,0.78669 0.571129,1.60851 1.293044,2.12117 0.677614,0.65028 1.249308,1.45907 2.216723,1.67569 0.894486,0.41411 1.931799,0.11041 2.890233,0.20314 4.328256,0 8.656506,0 12.984766,0 0.78669,-0.31185 1.60851,-0.57113 2.12117,-1.29305 0.65028,-0.67761 1.45907,-1.2493 1.67569,-2.21672 0.41411,-0.89449 0.11041,-1.9318 0.20314,-2.89023 0,-14.0724 0,-28.14479 0,-42.21719 -0.31185,-0.78669 -0.57113,-1.60851 -1.29304,-2.12117 -0.67762,-0.65028 -1.24931,-1.45907 -2.21673,-1.67569 -0.89448,-0.41411 -1.9318,-0.11041 -2.89023,-0.20314 -4.32826,0 -8.656511,0 -12.984766,0 -0.471354,0.19531 -0.942709,0.39063 -1.414063,0.58594 z" />
      <path
         id="path557"
         style="fill:#ffffff;fill-rule:evenodd;stroke-width:5.11136;stroke-linejoin:bevel;paint-order:markers stroke fill"
         d="m 40.896484,230.44531 c -0.669944,0.74312 -1.51506,1.36918 -2.07656,2.18477 -0.334097,0.7104 -0.635313,1.42735 -0.509377,2.2293 0,19.66731 0,39.33463 0,59.00195 0.311845,0.78669 0.571129,1.60851 1.293044,2.12117 0.677614,0.65028 1.249308,1.45907 2.216724,1.67569 0.894486,0.41411 1.931798,0.11041 2.890232,0.20314 10.482552,0 20.965104,0 31.447656,0 0.786694,-0.31185 1.608513,-0.57113 2.121169,-1.29305 0.650286,-0.67761 1.45907,-1.2493 1.675696,-2.21672 0.414103,-0.89449 0.110409,-1.9318 0.203135,-2.89023 0,-19.20065 0,-38.4013 0,-57.60195 -0.311845,-0.7867 -0.571129,-1.60852 -1.293044,-2.12117 -0.677614,-0.65029 -1.249308,-1.45907 -2.216724,-1.6757 -0.894486,-0.4141 -1.931798,-0.11041 -2.890232,-0.20313 -10.482552,-10e-6 -20.965104,0 -31.447656,0 -0.471354,0.19531 -0.942708,0.39062 -1.414063,0.58593 z" />
      <path
         id="path551"
         style="fill:#00ff00;fill-rule:evenodd;stroke-width:5.11136;stroke-linejoin:bevel;paint-order:markers stroke fill"
         d="m 194.75,121.20703 c -0.66994,0.74312 -1.51506,1.36918 -2.07656,2.18477 -0.3341,0.7104 -0.63531,1.42735 -0.50938,2.22929 0,20.18099 0,40.36198 0,60.54297 0.31185,0.7867 0.57113,1.60852 1.29305,2.12117 0.67761,0.65029 1.2493,1.45907 2.21672,1.6757 0.89449,0.4141 1.9318,0.11041 2.89023,0.20313 39.20196,0 78.40391,0 117.60586,0 0.7867,-0.31184 1.60852,-0.57113 2.12117,-1.29304 0.65029,-0.67762 1.45907,-1.24931 1.6757,-2.21673 0.4141,-0.89448 0.11041,-1.93179 0.20313,-2.89023 0,-19.71432 0,-39.42864 0,-59.14297 -0.31184,-0.78669 -0.57113,-1.60851 -1.29304,-2.12117 -0.67762,-0.65028 -1.24931,-1.45906 -2.21673,-1.67569 -0.89448,-0.4141 -1.93179,-0.11041 -2.89023,-0.20314 -39.20195,0 -78.4039,0 -117.60586,0 -0.47135,0.19532 -0.94271,0.39063 -1.41406,0.58594 z" />
      <path
         id="path553"
         style="fill:#ffffff;fill-rule:evenodd;stroke-width:5.11136;stroke-linejoin:bevel;paint-order:markers stroke fill"
         d="m 263.98438,98.128906 c -0.66995,0.74312 -1.51507,1.369177 -2.07657,2.184764 -0.33409,0.71041 -0.63531,1.42736 -0.50937,2.2293 0.0256,2.16372 -0.051,4.34751 0.0378,6.49882 0.28187,0.75922 0.55569,1.52374 1.23489,2.02152 0.65042,0.61448 1.16856,1.42184 2.0887,1.64307 0.90546,0.47406 1.9784,0.17527 2.96196,0.28889 12.36044,0.24173 24.72178,0.44081 37.08091,0.74496 1.96758,0.0629 4.1379,0.13899 6.18212,0.23367 3.91245,0.22903 7.86459,0.39603 11.69582,1.27688 1.60619,0.42387 3.37908,1.0502 4.15457,2.65414 1.20905,2.32667 1.88782,4.88398 2.84226,7.31928 0.26356,1.07049 1.09336,1.85151 1.99633,2.41838 0.89894,0.76739 2.06902,1.10075 3.23867,0.97851 31.46797,0 62.93594,0 94.40391,0 0.80688,1.23103 1.68869,2.42046 2.34961,3.74024 -0.75508,1.22917 -1.53927,2.44067 -2.33204,3.64648 -31.99349,0 -63.98697,0 -95.98046,0 -0.74221,0.30774 -1.55018,0.51547 -2.04304,1.20236 -0.63064,0.67836 -1.48249,1.20493 -1.71413,2.15711 -0.47395,0.90546 -0.17611,1.97838 -0.29011,2.96194 -0.31628,16.05107 -0.63255,32.10214 -0.94882,48.1532 -2.25911,2.35547 -4.51823,4.71094 -6.77734,7.06641 -31.20347,-0.0142 -62.40718,0.0528 -93.61046,-0.07 -10.30779,-0.10324 -20.62844,-0.11943 -30.91529,-0.85389 -1.08834,-0.0848 -1.96536,-0.16926 -3.07384,-0.30177 -2.533,-0.37369 -5.18793,-0.56983 -7.50002,-1.7607 -1.66696,-0.96036 -2.01136,-3.06247 -2.24805,-4.80664 -1.47135,-12.21999 -1.84886,-24.64258 -2.42173,-36.98161 -0.1887,-4.45825 -0.38801,-8.91602 -0.58608,-13.37386 -0.33625,-0.69996 -0.55749,-1.48064 -1.23311,-1.93565 -0.77806,-0.75722 -1.5422,-1.6447 -2.67617,-1.81469 -1.35448,-0.15873 -2.75639,0.003 -4.12918,-0.0315 -34.24676,0.37402 -68.49491,0.64318 -102.740128,1.14334 -11.983691,0.21686 -23.976266,0.3647 -35.940163,1.13259 -2.72601,0.21667 -5.527476,0.35452 -8.109375,1.32813 -2.63635,1.21743 -3.762662,4.20551 -4.112815,6.90746 -0.799217,5.56719 -0.732902,11.20901 -0.829268,16.81941 -0.107495,14.1879 -0.203153,28.39404 0.703802,42.56024 0.296438,3.18843 0.501041,6.45015 1.682329,9.46149 0.478353,1.27432 0.841701,2.61547 1.407374,3.84232 0.624263,1.00842 1.689677,1.59894 2.670937,2.21489 1.356195,0.56586 2.868229,0.21179 4.29872,0.3036 98.483317,-0.30895 196.966817,-0.57126 295.449917,-0.94256 41.28442,-0.19557 82.57011,-0.34551 123.85134,-0.92523 10.31242,-0.18454 20.63373,-0.26766 30.93033,-0.90748 1.82068,-0.15193 3.91264,-0.47187 4.99984,-2.12972 1.32404,-1.94705 1.35785,-4.40378 1.69029,-6.65702 0.81122,-7.54174 0.98766,-15.13339 1.25235,-22.70862 0.40996,-14.01512 0.6389,-28.03475 0.97751,-42.05167 -0.30507,-1.26284 -0.94704,-2.46454 -1.86523,-3.39258 -1.44908,-0.9307 -3.03793,-1.6422 -4.5567,-2.45951 -3.72718,-1.93158 -7.94703,-2.60083 -12.08448,-2.96686 -4.23757,-0.39824 -8.65117,0.14073 -12.71867,-1.37366 -1.28458,-0.49409 -2.79949,-1.22584 -3.00257,-2.75755 -0.2535,-0.98979 0.27949,-2.01988 1.22765,-2.39555 3.08308,-1.41281 6.53945,-0.84763 9.81034,-1.15866 1.79364,-0.0878 3.63481,-0.79798 4.67599,-2.32962 1.12983,-1.46313 1.18581,-3.4036 0.86675,-5.14952 -0.37652,-2.24249 -0.81183,-4.47674 -0.95836,-6.75065 -0.36068,-4.23294 -0.27351,-8.48514 -0.27753,-12.72873 -0.3118,-0.78795 -0.56996,-1.6117 -1.29305,-2.125081 -0.67761,-0.650285 -1.2493,-1.459069 -2.21672,-1.675695 -0.89449,-0.414104 -1.9318,-0.110409 -2.89023,-0.203135 -66.89597,0 -133.79193,0 -200.68789,0 -0.47136,0.195312 -0.94271,0.390625 -1.41406,0.585937 z m -114.9668,61.267574 c 2.30919,0.092 4.8071,0.0101 6.85742,1.24024 1.1556,0.87349 0.96115,2.55378 0.74571,3.81817 -0.0903,0.96922 -1.00706,1.502 -1.88317,1.63991 -3.54015,0.91512 -7.28721,0.82363 -10.87067,0.21135 -1.21862,-0.26455 -2.69814,-0.53164 -3.27332,-1.79956 -0.52506,-0.76252 -0.40686,-1.78974 0.26817,-2.42057 1.61534,-1.77861 4.11912,-2.35943 6.41758,-2.61532 0.57817,-0.0505 1.15805,-0.0703 1.73828,-0.0742 z m 213.61133,0.006 c 3.11192,0.013 6.53758,0.52608 8.84961,2.79883 0.57608,0.5033 0.69866,1.42555 0.0655,1.94052 -1.59959,1.82858 -4.19286,2.1476 -6.46528,2.43945 -3.14323,0.32705 -6.42569,0.26667 -9.4205,-0.82723 -0.92006,-0.56165 -1.67788,-1.59923 -1.71289,-2.69336 0.39717,-1.61093 2.13612,-2.3122 3.53087,-2.86208 1.65017,-0.58005 3.41178,-0.77502 5.15273,-0.79613 z m 44.60351,0.0293 c 0.0919,0.003 -0.0686,-0.006 0,0 z m 41.72852,0.0273 c 0.18957,0.004 -0.17053,-0.0106 0,0 z m -5.02735,0.32618 c 0.0897,-0.0113 0.19985,-0.0434 0,0 z m -42.91015,0.0371 c 0.0263,3.3e-4 0.17154,-0.0368 0,0 z m 42.13476,0.14062 c 0.10821,-0.0199 0.18482,-0.0508 0,0 z m 10.38086,0.0918 c 0.10111,0.0203 -0.19166,-0.0472 0,0 z m -41.80078,0.0234 c 0.18245,0.0515 -0.18909,-0.0582 0,0 z m 30.41016,0.17774 c 0.0983,-0.0228 0.17893,-0.068 0,0 z m -29.89258,0.004 c 0.11779,0.0441 -0.19365,-0.0803 0,0 z m 29.75586,0.0449 c 0.20265,-0.0697 0.15453,-0.0649 0,0 z m -0.0996,0.0488 c 0.0524,-0.0173 0.19671,-0.094 0,0 z m -29.42773,0.004 c 0.15482,0.0668 -0.16501,-0.0787 0,0 z m 29.29687,0.0645 c 0.0941,-0.0419 0.17757,-0.1 0,0 z m -43.03516,0.008 c 0.15719,-0.0429 0.18122,-0.0694 0,0 z m 0,0 c 0.0804,-0.0399 -0.22296,0.0995 0,0 z m -0.0996,0.043 c -0.0116,-1.3e-4 -0.25192,0.14386 0,0 z m -0.0937,0.0527 c -0.18227,0.10471 -0.0466,0.0425 0,0 z m 43.12305,-0.0391 c 0.12236,-0.0702 0.16398,-0.11058 0,0 z m 0,0 c 0.0863,-0.0651 -0.0517,0.0297 0,0 z m -0.0117,0.006 c -0.16215,0.10993 -0.0596,0.0529 0,0 z m -28.95312,-0.0254 c 0.17288,0.0864 -0.1711,-0.0922 0,0 z m 0.26758,0.14843 c 0.43271,0.36881 -0.36382,-0.37414 0,0 z m 0.13086,0.12891 c 0.13891,0.20113 0.16684,0.20499 0,0 z m -0.13086,-0.12891 c -0.15815,-0.098 -0.0961,-0.0505 0,0 z m -14.52735,-0.0234 c 0.008,-0.002 0.0101,-0.013 0,0 z m 0,0 c -0.15432,0.11236 -0.0926,0.0795 0,0 z m 42.85352,0.18359 c 0.1976,-0.15429 0.20964,-0.19736 0,0 z m 14.55273,0.0723 c 0.40335,0.1955 -0.39689,-0.22202 0,0 z m 0.0762,0.0352 c 0.14779,0.13214 0.23441,0.13368 0,0 z m 0.14453,0.0996 c 0.001,0.005 0.0193,0.0109 0,0 z m 0.008,0.006 c 0.11621,0.12821 0.24242,0.20463 0,0 z m 0.14062,0.12695 c 0.0212,0.0223 -0.0459,-0.0556 0,0 z m 0.004,0.004 c 0.14286,0.18126 0.16828,0.16597 0,0 z m -15.09961,-0.14844 c 0.1561,-0.15386 0.17581,-0.21087 0,0 z m -27.85547,0.0195 c 0.15495,0.24387 -0.17534,-0.29926 0,0 z m -15.3125,0.10157 c 0.0862,-0.10436 0.11686,-0.1643 0,0 z m 0,0 c -0.11961,0.16972 -0.0679,0.11052 0,0 z m 43,0.10742 c 0.15489,-0.19246 0.15815,-0.23899 0,0 z m -27.59375,-0.0391 c 0.13292,0.25758 -0.14843,-0.31364 0,0 z m 27.46484,0.27539 c 0.11896,-0.19187 0.12535,-0.24767 0,0 z m 15.56836,-0.10157 c 0.21632,0.28717 -0.18752,-0.27708 0,0 z m -42.95898,-0.004 c 0.1129,0.26942 -0.0731,-0.1924 0,0 z m -15.76172,0.23437 c 0.12676,-0.22341 0.11574,-0.23613 0,0 z m 58.82813,-0.0605 c 0.31771,0.54852 -0.20763,-0.38579 0,0 z m -42.98829,0.0449 c 0.0896,0.26934 -0.0656,-0.21818 0,0 z m 27.20118,0.15039 c 0.0467,-0.0914 0.0772,-0.18934 0,0 z m 15.88476,-0.002 c 0.15032,0.31723 -0.13454,-0.32231 0,0 z m -43.01758,0.10546 c 0.0501,0.18728 -0.0583,-0.26398 0,0 z m -16.05664,0.0977 c 0.0999,-0.22068 0.0839,-0.21795 0,0 z m 59.15625,0.006 c 0.10602,0.29796 -0.096,-0.30145 0,0 z m -16.07812,0.0762 c 0.0248,-0.0471 0.0726,-0.20802 0,0 z m -26.97266,0.0527 c 0.0409,0.22439 -0.0373,-0.23682 0,0 z m 43.11524,0.0957 c 0.0827,0.31738 -0.0703,-0.32258 0,0 z m -59.3418,0.125 c 0.0572,-0.15911 0.0454,-0.14302 0,0 z m 43.09766,0.0312 c 0.0218,-0.053 0.0605,-0.20833 0,0 z m -26.83594,0.004 c 0.0243,0.18974 -0.0168,-0.17034 0,0 z m 43.12695,0.084 c 0.0448,0.26913 -0.0399,-0.30251 0,0 z m -59.44531,0.10156 c 0.0168,-0.0379 0.0456,-0.20161 0,0 z m 43.06641,0.125 c 0.0174,-0.0513 0.0499,-0.21228 0,0 z m 16.40429,0.008 c 0.0273,0.31977 -0.0133,-0.27098 0,0 z m -59.5332,0.14257 c 0.0159,-0.0514 0.0361,-0.209 0,0 z m 59.53906,0.12696 c 4.7e-4,0.27596 0.0122,-0.32261 0,0 z m -0.0137,0.23828 c -0.0267,0.30619 0.0352,-0.29582 0,0 z m -43.10938,0.0215 c -0.005,0.24244 0.0104,-0.19379 0,0 z m 26.58594,0.10938 c 0.0147,-0.0718 0.0264,-0.20656 0,0 z m 16.48633,0.11718 c -0.0478,0.28388 0.0551,-0.26711 0,0 z m -16.52344,0.20508 c 0.0199,-0.12133 0.0125,-0.18836 0,0 z m 16.4668,0.0449 c -0.0773,0.29711 0.0953,-0.32183 0,0 z m -43.05859,0.17969 c -0.0189,0.20989 0.0345,-0.2943 0,0 z m -16.48047,0.0664 c 0.008,-0.12922 -0.0112,-0.1972 0,0 z m 59.46679,-0.0293 c -0.10489,0.30073 0.10944,-0.27279 0,0 z m -16.41015,0.0527 c 0.01,-0.1027 0.002,-0.20412 0,0 z m -43.04492,0.23632 c 0.002,-0.10315 -0.0157,-0.18878 0,0 z m 43.04687,0.0781 c 10e-4,-0.13616 -0.0106,-0.20057 0,0 z m -43.01758,0.1914 c -0.0178,-0.19331 -0.032,-0.19647 0,0 z m 43.03906,0.11133 c -0.0108,-0.16746 -0.0142,-0.14557 0,0 z m 16.10157,-0.0488 c -0.13122,0.25653 0.13757,-0.24793 0,0 z m -59.09766,0.16407 c -0.0266,-0.16211 -0.0325,-0.14946 0,0 z m 16.25,0.0488 c -0.069,0.24027 0.0717,-0.22242 0,0 z m 26.78906,0.12109 c -0.0219,-0.17559 -0.0386,-0.19362 0,0 z m 15.8711,-0.0176 c -0.15954,0.26087 0.2002,-0.29138 0,0 z m -58.84961,0.0742 c -0.0459,-0.19646 -0.0606,-0.18857 0,0 z m 16.14453,-0.0449 c -0.0787,0.21839 0.0739,-0.18953 0,0 z m -0.0566,0.13672 c -0.0967,0.22505 0.1083,-0.22905 0,0 z m -16.01367,0.12109 c -0.0815,-0.23698 -0.0954,-0.23118 0,0 z m 42.96484,0.01 c -0.0372,-0.18555 -0.0495,-0.1841 0,0 z m 15.625,-0.0371 c -0.21626,0.28657 0.21708,-0.2583 0,0 z m -42.63281,0.0195 c -0.1112,0.21769 0.0911,-0.16272 0,0 z m -15.87695,0.17578 c -0.097,-0.22411 -0.0836,-0.16384 0,0 z m 15.79492,-0.0312 c -0.10634,0.1768 0.13413,-0.21097 0,0 z m -0.0273,0.0469 c -0.13529,0.18168 -0.0221,0.0464 0,0 z m 27.19727,0.0977 c -0.0601,-0.21487 -0.0718,-0.20065 0,0 z m -42.87695,0.041 c -0.11462,-0.21311 -0.12533,-0.19753 0,0 z m 0,0 c 0.004,0.0161 0.006,-9.7e-4 0,0 z m 0.004,0.006 c 0.15409,0.21594 0.15009,0.18043 0,0 z m 0.11328,0.15039 c -0.37216,-0.20801 0.57583,0.53468 0,0 z m 0.0742,0.0742 c 0.1592,0.0932 0.0438,0.0108 0,0 z m 57.99414,-0.31641 c -0.14044,0.15793 0.18771,-0.18678 0,0 z m -0.0371,0.043 c -0.0806,0.0616 -0.1396,0.13723 0,0 z m -42.53711,0 c -0.008,0.0138 0.0122,-0.0144 0,0 z m -0.002,0.004 c -0.0806,0.0816 -0.12657,0.15919 0,0 z m -0.0781,0.0918 c -0.11992,0.10797 -0.12106,0.13539 0,0 z m 42.48046,0.0176 c -0.19221,0.15552 0.15557,-0.11321 0,0 z m -15.03906,0.13086 c -0.0949,-0.25422 -0.0711,-0.15811 0,0 z m 14.93555,-0.0547 c -0.19631,0.13762 0.15732,-0.10383 0,0 z m -0.0566,0.041 c -0.13208,0.0706 -0.15945,0.0998 0,0 z m -0.10938,0.0645 c -0.0163,0.0145 0.0605,-0.0305 0,0 z m -0.002,0.002 c -0.0894,0.0323 -0.15163,0.0842 0,0 z m -0.0918,0.0449 c -0.0555,0.0225 0.0777,-0.0277 0,0 z m -42.24609,-0.12304 c -0.16341,0.15379 0.13206,-0.11055 0,0 z m -0.10938,0.0898 c -0.40044,0.28965 0.10081,-0.0804 0,0 z m -0.12304,0.0859 c -0.31532,0.12824 -0.27443,0.13558 0,0 z m 27.91992,0.084 c -0.10346,-0.21911 -0.11575,-0.20676 0,0 z m 14.50781,-0.11914 c -0.23885,0.0996 0.12981,-0.0417 0,0 z m -0.0527,0.0234 c -0.14404,0.0344 -0.18875,0.0674 0,0 z m -56.80469,0.13672 c -0.0597,-0.031 -0.19717,-0.0671 0,0 z m 42.31836,0.0371 c 0.48739,0.59631 0.10222,-0.0292 0.0762,0.041 -0.017,-0.01 -0.26955,-0.22874 -0.0762,-0.041 z m -42.07227,0.0508 c -0.0337,-0.0174 -0.19544,-0.0607 0,0 z m 0.26368,0.0801 c -0.0161,-0.0125 -0.1557,-0.0396 0,0 z m 42.19921,0.082 c -0.21506,-0.11608 -0.26165,-0.11453 0,0 z m -41.91015,-0.004 c -0.0821,-0.0279 -0.19629,-0.0444 0,0 z m 54.5957,0.01 c -0.16689,0.0414 0.0957,-0.0193 0,0 z m -12.48437,0.0586 c -0.21923,-0.0846 -0.21465,-0.0683 0,0 z m 0.26953,0.0742 c -0.14531,-0.0439 -0.18185,-0.0453 0,0 z m 2.97461,0.45117 c -0.0385,-0.008 -0.16977,-0.007 0,0 z m 5.11328,0.004 c -0.0662,0.009 0.15783,-0.0108 0,0 z m -0.30274,23.47266 c 2.26228,-0.0125 4.86586,0.1485 6.5293,1.88476 1.11541,1.29604 0.44815,3.18063 -0.24805,4.51172 -2.29664,0.54892 -4.69554,0.5195 -7.04608,0.62586 -2.55512,-0.001 -5.26751,0.18293 -7.63556,-0.94422 -0.84491,-0.81955 -0.72614,-2.156 -0.64453,-3.23047 0.10629,-1.21847 1.35193,-1.68661 2.3412,-2.03678 2.15545,-0.68649 4.46065,-0.74456 6.70372,-0.81087 z m -42.57422,0.0332 c 1.89646,0.12267 3.99243,0.28628 5.52515,1.52048 1.02782,1.10769 1.758,2.81119 1.15259,4.28616 -1.04349,0.78097 -2.3779,1.07852 -3.60864,1.46018 -3.27709,0.84343 -6.86364,1.07845 -10.08448,-0.10844 -1.33981,-0.56161 -2.86622,-1.84207 -2.48733,-3.46038 0.6212,-1.9922 2.79986,-2.856 4.66462,-3.28104 1.58198,-0.36086 3.21815,-0.49047 4.83809,-0.41696 z m -256.07226,0.0391 c 1.85596,0.10632 3.85099,0.21272 5.47175,1.20287 0.88079,1.08864 0.72905,2.64813 0.49309,3.93971 -0.17538,0.77355 -0.84236,1.29768 -1.62011,1.3602 -3.79267,0.92794 -7.76814,0.82748 -11.61733,0.34484 -0.94877,-0.19658 -2.07459,-0.26543 -2.79418,-0.96744 -0.79894,-1.50597 0.0515,-3.51702 1.45355,-4.35781 1.94444,-1.12335 4.25986,-1.33776 6.45698,-1.5126 0.71853,-0.0381 1.43741,-0.0423 2.15625,-0.01 z m 212.01367,-0.0215 c 2.66004,0.0196 5.62755,0.47346 7.5338,2.50564 0.54287,0.68249 1.21981,1.32992 1.68105,2.10764 -0.8486,1.11 -2.06981,1.86043 -3.4261,2.1833 -3.12697,0.7583 -6.42515,0.77743 -9.59025,0.24582 -1.25519,-0.31866 -2.71183,-0.53929 -3.6067,-1.56194 -0.53219,-0.71085 -0.99004,-1.53527 -1.19531,-2.39453 0.60962,-1.24615 2.07656,-1.72679 3.27626,-2.23156 1.70659,-0.6027 3.52302,-0.84084 5.32725,-0.85437 z" />
      <path
         id="path549"
         style="fill:#ffffff;fill-rule:evenodd;stroke-width:5.11136;stroke-linejoin:bevel;paint-order:markers stroke fill"
         d="m 263.98438,36.587891 c -0.66995,0.743119 -1.51507,1.369176 -2.07657,2.184766 -0.33409,0.710405 -0.63531,1.427354 -0.50937,2.229296 0,14.539063 0,29.078125 0,43.617188 0.31184,0.786694 0.57113,1.608513 1.29304,2.121169 0.67762,0.650285 1.24931,1.459069 2.21673,1.675696 0.89448,0.414103 1.93179,0.110408 2.89023,0.203135 15.38424,0 30.76849,0 46.15273,0 0.71886,-0.257477 1.45921,-0.472709 1.9797,-1.065256 0.96444,-0.725772 1.94992,-1.63088 2.06541,-2.905136 0.96358,-5.774064 1.66647,-11.534411 2.89497,-17.222374 0.50878,-2.104586 1.19132,-4.572166 3.32945,-5.568953 2.60655,-1.28368 5.56798,-1.475589 8.40612,-1.83745 6.25174,-0.578133 12.44782,-0.772921 18.72758,-1.075121 12.24751,-0.512372 24.47442,-0.983751 36.73163,-1.043363 1.71223,-0.04323 3.44569,0.0157 5.14475,-0.09081 0.7578,-0.292384 1.52249,-0.574595 2.01191,-1.263438 0.60678,-0.662679 1.41509,-1.192699 1.61384,-2.123958 0.46383,-0.910815 0.12449,-1.972027 0.23331,-2.954537 -0.0172,-3.272501 0.24077,-6.66853 -0.86738,-9.806894 -0.85649,-2.46266 -3.02577,-4.663839 -5.74572,-4.774648 -3.70348,-0.369059 -7.3854,-0.33277 -11.10331,-0.446137 -28.28245,-0.575629 -56.57253,-0.40389 -84.85898,-0.439118 -9.70534,0 -19.41067,0 -29.11601,0 -0.47136,0.195313 -0.94271,0.390625 -1.41406,0.585938 z" />
      <path
         id="path547"
         style="fill:#ffffff;fill-rule:evenodd;stroke-width:5.11136;stroke-linejoin:bevel;paint-order:markers stroke fill"
         d="m 149.25391,20.947266 c -32.55469,0.146484 -65.109379,0.292968 -97.664066,0.439453 -1.543341,0.24083 -2.961166,1.089251 -3.939491,2.302772 -2.492255,2.527138 -5.060749,4.991025 -7.505421,7.557641 -0.825292,1.193513 -1.212976,2.671126 -1.078795,4.118065 -0.364494,29.735038 -0.728987,59.470077 -1.093481,89.205113 0.306285,0.79255 0.556463,1.62194 1.278805,2.14124 0.678425,0.65772 1.247304,1.47765 2.219881,1.6998 0.896133,0.42344 1.938846,0.11673 2.901314,0.20974 21.983203,0 43.966407,0 65.949614,0 1.52561,-0.20263 2.89709,-1.03453 3.93023,-2.15346 4.32286,-3.89969 8.60419,-7.86512 13.31476,-11.30101 7.85114,-6.03689 16.04416,-11.60645 24.18922,-17.233686 5.11596,-3.628082 10.32771,-7.228039 14.68983,-11.769817 2.27066,-2.362924 4.22193,-5.496363 3.83885,-8.905305 -0.32442,-3.125304 -2.68679,-5.893203 -5.73206,-6.686439 -3.82134,-1.220718 -7.88552,-1.177511 -11.85144,-1.378868 -5.03716,-0.17855 -10.17527,0.173849 -14.94142,1.931201 -4.52586,1.534937 -8.84216,3.604747 -13.26805,5.393872 -0.53704,0.215972 -1.15851,0.460573 -1.73854,0.675857 -1.18418,0.45047 -2.54899,0.922945 -3.84154,1.359299 8.26343,-4.474218 16.40274,-9.154563 24.59961,-13.748046 0.27164,-0.819512 0.73027,-1.633694 0.88899,-2.456424 -0.39399,-1.21114 -0.78797,-2.42228 -1.18196,-3.63342 -0.75519,-0.427132 -1.46961,-1.03643 -2.24961,-1.352749 -4.32772,0.5532 -8.73899,0.762047 -12.92031,2.112514 -6.02435,1.820769 -11.78795,4.453936 -17.25,7.566407 -2.18987,1.287915 -4.31993,2.726944 -6.09571,4.558593 -1.86062,-1.402501 -4.38104,-1.984583 -6.608418,-1.165294 -0.753577,0.241671 -1.463844,0.60038 -2.147436,0.995373 -0.836463,-2.411591 -1.767303,-4.811336 -2.275391,-7.31836 3.010133,-0.08568 6.022978,-0.415788 8.929655,-1.233216 4.9083,-1.374327 9.74676,-3.202742 14.07768,-5.922627 3.46765,-2.182659 6.22287,-5.280203 8.87812,-8.355402 1.94151,-2.23565 3.54598,-4.731351 5.38212,-7.047349 0.37334,-0.321175 1.03358,0.11936 1.5296,-0.0316 1.76166,-0.06681 3.34323,-1.016839 4.74775,-1.958639 1.61671,1.49344 3.97277,1.574714 6.02385,1.188385 4.03024,-0.646466 7.85296,-2.168603 11.6331,-3.654776 1.83104,-0.738287 3.63553,-1.539906 5.44266,-2.33439 0.12629,2.035892 1.86014,3.794451 3.90393,3.910044 1.86561,0.146509 3.65616,-0.603231 5.40321,-1.156711 0.97122,-0.33799 1.92337,-0.728626 2.87059,-1.128333 0.17194,1.044297 0.20561,2.147323 0.4609,3.156221 0.62544,0.655165 0.99736,1.662492 1.98347,1.816683 5.71395,2.121995 11.4649,3.959172 17.02047,6.521236 1.47865,0.688712 2.9433,1.413824 4.33008,2.275391 -0.81934,2.148395 -0.0671,4.531016 1.22656,6.322266 1.66269,2.498205 3.8276,4.631652 5.31428,7.253273 1.28484,2.016283 2.48021,4.089026 3.59198,6.205711 -2.45223,0.324502 -4.07775,3.089143 -3.34861,5.414724 0.56622,2.303988 1.10254,4.614573 1.43203,6.966612 0.71893,4.354043 1.33188,8.762906 1.12751,13.187023 -2.13914,-1.234048 -4.98496,-0.03321 -6.01532,2.102164 -1.44372,3.064302 -2.42953,6.313192 -3.63702,9.472062 0.16342,0.85235 0.004,1.82593 0.67186,2.48877 0.53994,0.68411 0.91373,1.55246 1.55872,2.12009 0.72384,0.34763 1.38057,0.94955 2.23723,0.79382 13.15884,0.22723 26.32464,0.82325 39.48433,0.34501 2.15649,-0.0886 4.3151,-0.2951 6.39111,-0.91456 0.88824,-0.20192 1.79079,-0.37118 2.49395,-0.99589 0.70392,-0.69531 1.33329,-1.52102 1.8503,-2.37826 0.49177,-1.41373 0.18092,-2.933 0.26758,-4.4 0,-26.543753 0,-53.087502 0,-79.631253 -0.31396,-0.787593 -0.57397,-1.611386 -1.29867,-2.123351 -0.6811,-0.649826 -1.25563,-1.460205 -2.22623,-1.673894 -0.89701,-0.412569 -1.93449,-0.10354 -2.89461,-0.191955 -31.75404,0.142884 -63.50809,0.285769 -95.26213,0.428654 z" />
      <path
         inkscape:connector-curvature="0"
         id="path74-6"
         d="m 60.297699,502.93988 c -4.151853,-0.30998 -5.430047,-0.9231 -7.667125,-3.67773 -2.37756,-2.92762 -3.443923,-3.38027 -9.322894,-3.95738 -8.267711,-0.81162 -12.385681,-3.01443 -15.260399,-8.16319 -2.232378,-3.9983 -2.238367,-4.3008 -2.57392,-129.88862 l -0.336342,-125.881 -5.120477,-2.98951 c -3.944873,-2.30318 -5.826985,-4.34094 -8.197816,-8.87581 l -3.077348,-5.88627 0.113241,-34.7954 c 0.129152,-39.68204 0.362985,-41.02801 8.216557,-47.29548 2.459289,-1.96262 5.232457,-4.17133 6.162598,-4.90824 1.479253,-1.17194 1.782582,-7.20794 2.420744,-48.17132 0.690058,-44.29377 0.846602,-47.04687 2.88882,-50.80656 3.347895,-6.16341 9.367268,-11.79476 15.870839,-14.84776 l 5.931226,-2.78433 103.531327,-0.6910498 103.53134,-0.69106 2.87898,2.1269198 c 2.54895,1.88309 2.87898,2.80769 2.87898,8.06564 v 5.93874 h 66.18224 c 62.83792,0 66.38223,0.0959 70.14011,1.89721 2.17685,1.04346 4.82288,2.79552 5.88009,3.89346 2.74317,2.84892 4.36426,13.56007 3.44567,22.76686 -0.68356,6.8511 -1.17803,8.16644 -4.25565,11.32051 -4.51305,4.62518 -7.80545,5.01337 -43.45337,5.12333 -16.99181,0.0524 -27.6565,0.46468 -28.06464,1.08489 -0.36204,0.55019 -0.94005,4.15706 -1.28444,8.01527 l -0.62617,7.01494 10.02232,0.12212 c 5.5123,0.0672 37.95072,0.40533 72.0854,0.75143 60.48143,0.61327 62.13805,0.68195 65.00705,2.69503 6.70837,4.70704 7.29776,6.3626 7.87632,22.12333 0.47344,12.89776 0.75955,14.64902 2.54634,15.58592 3.66737,1.92302 10.36602,8.11899 12.15957,11.24711 1.53289,2.67353 1.81052,7.91759 2.09915,39.65071 l 0.3326,36.56969 -2.96829,4.98995 c -1.92965,3.24391 -4.90722,6.22384 -8.50949,8.51623 l -5.54119,3.52627 -0.32602,126.24056 c -0.32256,124.88759 -0.34933,126.27777 -2.49734,129.7118 -2.87668,4.59893 -7.23765,6.84655 -15.2911,7.88096 -5.70762,0.73311 -7.0578,1.32906 -9.66998,4.26808 l -3.0361,3.416 h -11.43399 -11.43396 l -3.11809,-3.50668 -3.11808,-3.50669 -159.18201,-0.31837 c -87.55012,-0.1751 -164.52543,-0.0212 -171.056272,0.34186 -11.098773,0.61714 -11.948806,0.8139 -13.015628,3.01298 -1.882483,3.88039 -7.83361,4.85937 -22.763381,3.74465 z m 76.621231,-29.44606 c 1.78798,-11.02246 4.88173,-15.54524 14.23622,-20.81221 3.72188,-2.09557 4.0529,-2.10221 104.54349,-2.09657 l 100.80975,0.006 5.59918,3.01585 c 8.51445,4.5861 12.23307,11.29775 13.30669,24.01689 l 0.296,3.50669 47.20458,0.26089 47.20458,0.26091 v -24.0458 -24.04537 l -189.7732,-0.26135 C 95.432834,433.04509 90.515572,432.98953 88.327631,431.12977 c -2.590431,-2.20186 -2.921863,-6.35762 -0.731421,-9.17135 1.487528,-1.9108 4.847932,-1.94969 192.01859,-2.22174 l 190.50461,-0.27727 V 364.38127 309.30269 H 255.69864 41.277864 v 55.10501 55.10501 h 10.182807 c 9.38901,0 10.386918,0.1917 12.801231,2.45923 3.210012,3.01484 3.358956,6.6183 0.378537,9.15792 -1.767121,1.50576 -4.412828,2.01436 -12.534545,2.40958 l -10.294649,0.50095 -0.287747,22.52029 c -0.158266,12.38615 -0.05141,23.0988 0.237523,23.80589 0.41865,1.02467 10.003539,1.23263 47.222227,1.02459 l 46.696932,-0.26104 z m 222.03821,1.97465 c -0.39832,-5.17171 -0.94307,-6.54102 -3.38803,-8.51622 l -2.91339,-2.35363 -96.74989,0.0334 c -94.52167,0.0325 -96.80773,0.0785 -99.26117,1.99838 -2.51491,1.96791 -4.34954,7.07696 -4.39729,12.24548 l -0.0255,2.75523 H 255.82684 359.43176 Z M 76.481272,264.21678 V 233.1576 H 58.879571 41.277864 v 30.39124 c 0,16.71519 0.32003,30.69182 0.711179,31.05918 0.391147,0.36738 8.311915,0.66795 17.601707,0.66795 h 16.890522 z m 34.136628,7.51431 v -23.54485 h -8.53416 -8.53415 v 22.87692 c 0,12.58231 0.320029,23.1775 0.711168,23.54486 0.391149,0.36738 4.23151,0.66795 8.534162,0.66795 h 7.82298 z m 273.09314,8.01529 v -15.5296 h -17.06833 -17.06832 v 5.05509 c 0,4.03124 -0.53032,5.55316 -2.61845,7.51431 -6.03681,5.66979 -14.44987,0.42223 -14.44987,-9.01296 v -3.55644 h -34.13664 -34.13664 v 3.96049 c 0,5.41911 -1.80844,8.69475 -5.61862,10.17704 -5.9431,2.31202 -11.40159,-2.6435 -11.43398,-10.38038 l -0.0157,-3.75715 h -34.13661 -34.13665 v 4.58566 c 0,3.73248 -0.58015,5.13054 -3.11825,7.51432 -3.40605,3.19896 -5.00968,3.51603 -9.04631,1.78865 -2.96272,-1.26782 -4.90375,-5.43644 -4.90375,-10.53146 v -3.35717 h -17.06835 -17.06832 v 14.86165 c 0,8.17392 0.32004,15.16223 0.71118,15.52959 0.39114,0.36738 57.99671,0.66795 128.01241,0.66795 h 127.30125 z m 34.13665,-8.01529 v -23.54485 h -8.53417 -8.53416 v 22.87692 c 0,12.58231 0.32003,23.1775 0.71119,23.54486 0.39114,0.36738 4.23151,0.66795 8.53417,0.66795 h 7.82297 z m 52.27173,-7.51431 V 233.1576 h -17.6017 -17.60171 v 30.39124 c 0,16.71519 0.32002,30.69182 0.71117,31.05918 0.39114,0.36738 8.31191,0.66795 17.60172,0.66795 h 16.89051 z m 13.6208,-47.92695 c 2.85199,-1.70015 3.44752,-8.52835 3.44752,-39.52855 V 144.8985 l -2.61845,-2.45922 c -2.14774,-2.01717 -3.7298,-2.47444 -8.80086,-2.54378 -12.17982,-0.16656 -18.60575,-1.38004 -20.8029,-3.92841 -1.38559,-1.60709 -1.83775,-3.20147 -1.40121,-4.94089 1.06004,-4.22382 4.36292,-6.0748 10.83988,-6.0748 h 5.78291 l -0.30054,-11.77244 -0.30055,-11.77243 -102.73822,-0.25549 -102.73822,-0.25551 0.3283,4.26314 0.32829,4.26313 28.80279,0.50097 c 20.18914,0.35113 29.49842,0.87487 31.12885,1.7513 3.16707,1.70243 6.62007,6.4452 7.41694,10.18728 l 0.65801,3.09005 h 48.86066 48.86065 l 2.21096,2.63988 c 2.6787,3.19836 2.7815,6.12547 0.32039,9.1235 l -1.84312,2.24522 -49.07142,0.25954 -49.07143,0.25954 -0.53338,25.54868 c -0.3496,16.7454 -0.96123,26.23914 -1.77504,27.55251 -0.68292,1.1021 -2.75463,3.35639 -4.60382,5.00955 l -3.36217,3.00572 h -66.52486 c -65.961,0 -66.55038,-0.0179 -69.53669,-2.10855 -6.76242,-4.73427 -7.10753,-6.27496 -7.61764,-34.00802 l -0.46458,-25.257 -74.72796,0.52955 -74.727951,0.52953 -2.504573,2.60474 -2.504583,2.60475 0.293359,33.10847 c 0.263365,29.72239 0.486806,33.38561 2.184802,35.81825 l 1.891443,2.70978 226.930713,-0.0153 c 124.81191,-0.008 227.53958,-0.37828 228.2837,-0.82188 z m -83.93146,-15.01569 c -1.41393,-0.39946 -3.54713,-1.95452 -4.74046,-3.45568 -1.73714,-2.18523 -1.96546,-3.27486 -1.14523,-5.46537 1.38033,-3.68629 5.09392,-5.25085 12.50532,-5.26855 5.19664,-0.0124 6.6109,0.38766 8.86973,2.50916 3.34044,3.13733 3.07547,7.06445 -0.65076,9.6446 -2.97621,2.06083 -10.90145,3.14816 -14.8386,2.03584 z m -260.97241,-2.82871 c -2.98068,-3.02068 -3.05412,-3.36486 -1.43157,-6.70945 1.55542,-3.20625 5.19011,-4.66621 11.61684,-4.66621 9.00202,0 12.52422,2.78597 11.55619,9.14068 -0.4966,3.25996 -4.55668,4.85402 -12.4072,4.87128 -5.90532,0.013 -7.03481,-0.30603 -9.33426,-2.6363 z m 214.42325,0.19183 c -1.44015,-1.35258 -2.61844,-3.40193 -2.61844,-4.55413 0,-1.15219 1.17829,-3.20155 2.61844,-4.55412 2.22063,-2.08563 3.62984,-2.45924 9.27586,-2.45924 5.77138,0 7.05564,0.35831 9.64942,2.69222 3.56771,3.21027 3.74271,5.15837 0.78103,8.69462 -2.01088,2.40098 -2.88412,2.63989 -9.64943,2.63989 -6.47525,0 -7.77751,-0.31844 -10.05688,-2.45924 z m 85.23943,-0.096 c -2.11707,-1.98834 -2.56405,-3.15526 -2.01486,-5.26003 1.17212,-4.49218 3.21904,-5.61628 10.96981,-6.02424 6.13987,-0.32318 7.62826,-0.0597 10.13087,1.79348 3.5134,2.60164 3.75776,5.78217 0.72267,9.40609 -2.01088,2.40098 -2.88416,2.63989 -9.64943,2.63989 -6.55113,0 -7.76299,-0.30481 -10.15906,-2.55519 z M 138.43135,167.39743 c -2.94991,-3.52219 -2.79326,-4.98266 0.90728,-8.45819 2.74678,-2.57979 3.87337,-2.92865 9.45706,-2.92865 8.05481,0 11.9604,2.45895 11.9604,7.53022 0,4.93332 -2.99038,6.4965 -12.42779,6.4965 -7.0327,0 -7.87391,-0.22439 -9.89695,-2.63988 z m 214.95454,1.06695 c -2.66368,-2.50171 -3.17676,-6.17477 -1.24867,-8.93851 2.14366,-3.07271 5.40839,-3.89036 13.13184,-3.28881 4.56516,0.35556 6.46182,1.00818 7.95149,2.736 2.64526,3.06815 2.461,6.26203 -0.51267,8.88579 -2.05731,1.81523 -3.73437,2.17846 -10.05811,2.17846 -5.47377,0 -8.05595,-0.43842 -9.26388,-1.57293 z m 42.67081,0 c -2.66367,-2.50171 -3.17678,-6.17477 -1.24868,-8.93851 2.14366,-3.07271 5.40839,-3.89036 13.13184,-3.28881 4.56516,0.35556 6.46183,1.00818 7.95151,2.736 2.64528,3.06815 2.46099,6.26203 -0.51267,8.88579 -2.05733,1.81523 -3.73438,2.17846 -10.05811,2.17846 -5.47378,0 -8.05596,-0.43842 -9.26389,-1.57293 z m 42.73908,0.0642 c -2.6216,-2.46221 -3.02824,-5.21315 -1.24842,-8.4457 1.97474,-3.58654 4.94615,-4.47796 12.86955,-3.86084 9.39001,0.73135 12.70527,5.42675 7.89062,11.17544 -2.03055,2.42448 -2.85132,2.6399 -10.05814,2.6399 -5.56659,0 -8.31402,-0.43849 -9.45361,-1.5088 z M 316.50452,155.50963 v -31.56014 h -60.80588 -60.8059 v 26.91171 c 0,14.80144 0.30527,29.0035 0.67838,31.56014 l 0.67838,4.64843 h 60.12752 60.12751 z M 119.29773,117.68755 c 4.35456,-3.99511 14.401,-11.42095 22.32546,-16.50189 24.12757,-15.46987 28.29627,-19.80775 24.63992,-25.63981 -1.66427,-2.65457 -1.65851,-2.88906 0.0935,-3.81284 2.24011,-1.18109 5.09367,-6.08955 4.99953,-8.59976 -0.0495,-1.32043 -0.35224,-1.13274 -1.13085,0.70116 -1.40383,3.30651 -4.99508,6.84262 -8.87278,8.73656 -2.69425,1.31594 -4.13883,1.35481 -10.23061,0.27525 -8.58753,-1.52183 -11.76094,-0.7655 -23.46622,5.59277 -8.29561,4.50614 -16.96732,6.42236 -22.8203,5.04267 -3.53592,-0.8335 -3.5703,-2.61428 -0.0505,-2.61428 3.99189,0 9.51564,-2.43815 17.21659,-7.59933 3.76829,-2.5255 10.012,-5.93775 13.87494,-7.5828 5.21733,-2.22181 6.7138,-3.28188 5.81914,-4.12214 -2.78595,-2.61653 -15.74375,0.15972 -23.2995,4.99199 -2.22447,1.42268 -5.65701,3.22266 -7.62783,3.99999 -1.97084,0.77732 -3.82699,2.28843 -4.12481,3.35802 -0.64457,2.31496 -2.24867,2.54308 -3.10719,0.44187 -1.11533,-2.72981 -6.89986,-1.65755 -8.107518,1.50286 -0.809759,2.11917 -4.012708,-5.09987 -4.012708,-9.04413 0,-1.80956 -0.44346,-2.83963 -1.066766,-2.47783 -0.586729,0.34057 -1.066771,0.16732 -1.066771,-0.38501 0,-1.92008 4.530673,-4.02397 7.474669,-3.47097 1.686722,0.31684 4.326814,-0.14989 6.317904,-1.11693 1.88121,-0.91366 3.9879,-1.47025 4.68152,-1.23686 3.44329,1.15857 14.05209,-7.86679 18.77164,-15.96987 2.7403,-4.70485 6.18866,-7.43021 4.68568,-3.70324 -0.60758,1.50659 -0.08,1.3737 2.93288,-0.7387 5.99184,-4.20105 6.74777,-4.44968 4.72848,-1.55523 -1.00845,1.44547 -1.65811,2.62813 -1.44373,2.62813 3.44929,0 15.5065,-3.3482 17.95575,-4.98617 3.42598,-2.29121 15.08689,-7.03674 17.29092,-7.03674 0.71325,0 -0.83736,1.28435 -3.44581,2.85412 -2.60845,1.56976 -5.65709,3.82406 -6.7748,5.00954 -2.02284,2.14551 -2.01884,2.15543 0.87125,2.15543 1.59687,0 4.43368,-1.09621 6.304,-2.43603 1.8703,-1.33981 4.83855,-2.97325 6.59612,-3.62986 4.68828,-1.75148 12.26313,-3.91312 12.26313,-3.49953 0,0.19681 -2.0402,1.4876 -4.53376,2.86842 -2.49359,1.38083 -5.88665,3.84745 -7.54016,5.48138 l -3.00638,2.97079 4.01257,0.707 c 5.78221,1.01879 16.65366,5.2758 20.78644,8.13949 l 3.552,2.46125 -3.59485,-0.67526 -3.59488,-0.67526 5.8512,6.66238 c 5.80758,6.61271 10.69657,14.702 12.13203,20.07357 l 0.74781,2.79836 -2.7566,-2.58898 c -3.17496,-2.98194 -5.38835,-3.38708 -4.56524,-0.83564 1.83203,5.67892 2.72766,11.66048 2.73781,18.28483 0.0132,8.72789 -0.8423,12.90326 -2.22455,10.85523 -0.49635,-0.7354 -0.9098,-2.29631 -0.91879,-3.4687 -0.008,-1.17239 -0.7364,-2.69289 -1.61648,-3.37889 -1.31224,-1.02283 -1.60016,-0.95027 -1.60016,0.4033 0,0.90782 -0.92376,4.11904 -2.05279,7.13606 l -2.0528,5.48548 h 20.039 c 11.02145,0 22.26619,-0.28673 24.98835,-0.63715 l 4.94935,-0.63714 V 66.20352 23.75856 l -93.07568,0.006 c -54.75753,0.003 -95.710731,0.40456 -99.476287,0.97439 -5.177171,0.78344 -7.029611,1.60676 -9.69123,4.3073 l -3.290619,3.33872 -0.709768,25.90669 c -0.390438,14.24864 -0.709839,35.07613 -0.709839,46.28326 v 20.37663 H 76.329128 111.38037 Z M 315.81306,76.68376 c 0.77082,-10.19898 2.75134,-15.07675 7.42466,-18.28603 2.72377,-1.87045 5.12667,-2.12208 26.13588,-2.73685 12.725,-0.37237 27.8168,-0.7144 33.53735,-0.76008 l 10.40101,-0.083 V 47.46562 40.11344 L 357.30847,39.4519 c -19.80191,-0.36382 -48.84472,-0.66221 -64.53959,-0.66309 l -28.53609,-0.002 v 23.54484 23.54488 h 25.44274 25.44273 z M 107.95099,61.83111 c -0.36263,-0.55105 -1.32272,-1.00191 -2.13356,-1.00191 -0.81083,0 -1.77091,0.45086 -2.13353,1.00191 -0.37541,0.57049 0.54329,1.00191 2.13353,1.00191 1.59024,0 2.50895,-0.43142 2.13356,-1.00191 z m 29.16856,-10.608 c 5.70014,-1.16709 6.1508,-1.41831 4.40476,-2.45537 -2.63531,-1.56528 -5.04417,-1.08532 -8.17808,1.62946 -2.09118,1.81153 -2.40069,2.41406 -1.02713,1.99955 1.08127,-0.3263 3.24148,-0.85444 4.80045,-1.17364 z"
         style="fill:#000000;fill-opacity:1;stroke-width:1.03383" />
    </g>
  </g>
</svg>
