<?xml version="1.0" encoding="UTF-8" standalone="no"?>
<!-- Created with Inkscape (http://www.inkscape.org/) -->

<svg
   version="1.1"
   id="svg228"
   width="512"
   height="512"
   viewBox="0 0 512 512"
   sodipodi:docname="proxify.svg"
   inkscape:version="1.2.2 (b0a8486541, 2022-12-01)"
   inkscape:export-filename="../GIT Icons/proxify.png"
   inkscape:export-xdpi="96"
   inkscape:export-ydpi="96"
   xmlns:inkscape="http://www.inkscape.org/namespaces/inkscape"
   xmlns:sodipodi="http://sodipodi.sourceforge.net/DTD/sodipodi-0.dtd"
   xmlns="http://www.w3.org/2000/svg"
   xmlns:svg="http://www.w3.org/2000/svg">
  <defs
     id="defs232" />
  <sodipodi:namedview
     id="namedview230"
     pagecolor="#505050"
     bordercolor="#ffffff"
     borderopacity="1"
     inkscape:showpageshadow="0"
     inkscape:pageopacity="0"
     inkscape:pagecheckerboard="1"
     inkscape:deskcolor="#505050"
     showgrid="false"
     inkscape:zoom="0.68417855"
     inkscape:cx="216.3178"
     inkscape:cy="264.55083"
     inkscape:window-width="1366"
     inkscape:window-height="705"
     inkscape:window-x="0"
     inkscape:window-y="0"
     inkscape:window-maximized="1"
     inkscape:current-layer="g234" />
  <g
     inkscape:groupmode="layer"
     inkscape:label="Image"
     id="g234">
    <circle
       style="fill:#ffffff;fill-rule:evenodd;stroke-width:4.9427;stroke-linecap:round;stroke-linejoin:bevel"
       id="path422"
       cx="256"
       cy="256"
       r="250" />
    <path
       style="fill:#000000;stroke-width:0.880121"
       d="m 79.769934,408.11698 c -1.585042,-0.92041 -3.577255,-3.07761 -4.427291,-4.79379 -3.273018,-6.60813 -1.911693,-9.9544 8.858641,-21.77458 C 136.57101,324.07386 207.16651,279.86044 278.90521,259.607 c 5.58232,-1.57601 10.7206,-3.09446 11.4184,-3.37429 0.69778,-0.27987 -3.48896,-1.86874 -9.30389,-3.53082 C 207.20677,231.60384 141.33736,190.99592 85.479213,132.15284 76.616005,122.81605 74.650097,120.26002 74.188455,117.47295 c -1.018773,-6.15073 2.73923,-13.22518 7.928761,-14.92595 4.957866,-1.62481 7.48962,0.0679 20.603934,13.77561 67.61039,70.67002 150.48304,113.11946 243.00279,124.47216 12.69673,1.55797 66.33458,3.48152 84.79576,3.04095 l 11.21058,-0.26754 -17.03692,-28.74696 c -18.33794,-30.94215 -19.33025,-33.30397 -16.49087,-39.24939 2.17526,-4.55455 5.28393,-6.64342 9.88707,-6.64342 3.08998,0 4.64795,0.54474 6.57209,2.29782 2.804,2.55468 47.94953,76.75837 49.35408,81.12099 0.48862,1.51773 0.65389,4.02931 0.36725,5.58129 -0.56915,3.08105 -44.9334,77.89818 -48.44756,81.70324 -4.25516,4.6075 -11.31453,4.21288 -15.43013,-0.86252 -2.94553,-3.63247 -3.95076,-8.05542 -2.66397,-11.72032 0.49979,-1.42328 8.14014,-14.68434 16.97865,-29.46905 8.83851,-14.7847 16.27873,-27.47008 16.53374,-28.18974 0.39406,-1.11192 -1.86188,-1.25898 -15.0195,-0.97909 -8.51574,0.18115 -26.71123,0.5151 -40.43445,0.74209 -26.35297,0.43592 -40.90991,1.74845 -62.56492,5.64122 -41.76373,7.50755 -75.9053,19.49912 -114.63158,40.26203 -39.4201,21.13493 -72.85269,46.62188 -104.13267,79.38437 -15.464811,16.19776 -18.026167,17.61023 -24.800656,13.67624 z"
       id="path346" />
  </g>
</svg>
