<?xml version="1.0" encoding="UTF-8" standalone="no"?>
<!-- Created with Inkscape (http://www.inkscape.org/) -->

<svg
   version="1.1"
   id="svg870"
   width="512"
   height="512"
   viewBox="0 0 512 512"
   sodipodi:docname="pwndrop.svg"
   inkscape:version="1.2.2 (b0a8486541, 2022-12-01)"
   xmlns:inkscape="http://www.inkscape.org/namespaces/inkscape"
   xmlns:sodipodi="http://sodipodi.sourceforge.net/DTD/sodipodi-0.dtd"
   xmlns="http://www.w3.org/2000/svg"
   xmlns:svg="http://www.w3.org/2000/svg">
  <defs
     id="defs874" />
  <sodipodi:namedview
     id="namedview872"
     pagecolor="#505050"
     bordercolor="#eeeeee"
     borderopacity="1"
     inkscape:pageshadow="0"
     inkscape:pageopacity="0"
     inkscape:pagecheckerboard="0"
     showgrid="false"
     showguides="true"
     inkscape:guide-bbox="true"
     inkscape:zoom="0.7716717"
     inkscape:cx="140.60383"
     inkscape:cy="244.92281"
     inkscape:window-width="1366"
     inkscape:window-height="705"
     inkscape:window-x="0"
     inkscape:window-y="26"
     inkscape:window-maximized="1"
     inkscape:current-layer="g876"
     inkscape:showpageshadow="0"
     inkscape:deskcolor="#505050" />
  <g
     inkscape:groupmode="layer"
     inkscape:label="Image"
     id="g876">
    <g
       id="g423"
       transform="matrix(0.92207592,0,0,0.96396021,19.948566,9.22761)">
      <path
         id="path1821-9"
         style="fill:#ffffff;stroke-width:0.941177"
         d="m 97.179688,-3.4433594 c -3.411943,3.57676231 -6.834492,7.1434268 -10.25,10.7167969 0,47.7988285 -10e-7,95.5976525 0,143.3964825 1.227817,3.33945 2.455654,6.6789 3.685546,10.01758 9.598206,5.62042 19.198046,11.23807 28.796876,16.85742 -2.71167,4.62162 -5.45455,9.24245 -7.60424,14.16123 -1.97137,4.31282 -3.9904,8.60706 -5.86006,12.96471 -2.23945,5.53566 -4.06683,11.22612 -6.130553,16.82735 -1.920462,5.63292 -3.304394,11.4272 -4.869991,17.1639 -1.585644,5.92724 -2.574457,11.98673 -3.770255,17.9987 -0.950925,4.83483 -1.661686,9.7121 -2.186458,14.61073 -0.57084,4.96898 -1.312931,9.93369 -1.458438,14.93823 0.03985,12.50006 -0.0558,25.00372 0.163197,37.50117 1.22782,9.02176 2.168796,18.08726 3.722827,27.06054 1.650206,7.30607 2.970943,14.69666 5.038643,21.9013 1.759925,5.51921 3.519197,11.03862 5.279548,16.55769 2.7467,0.40851 5.49349,0.81638 8.24023,1.22461 1.75563,4.96184 4.14278,9.66231 6.27735,14.46484 -0.6644,0.54596 -1.3288,1.09191 -1.99414,1.63672 0.72959,4.70417 -0.292,9.56059 1.01953,14.19141 0.5749,1.34245 1.47116,2.55129 2.1607,3.84834 3.76197,6.4597 7.33727,13.05733 11.79185,19.07892 2.69057,3.79879 5.34657,7.71987 8.31093,11.34594 8.43256,8.73169 16.72163,17.60508 25.30506,26.18606 7.41272,5.09766 14.71843,10.35665 22.24821,15.2792 5.60365,3.02148 11.25693,5.99026 17.21594,8.25823 4.5194,1.89456 8.99648,3.99384 13.80495,5.06357 5.77604,1.47709 11.52504,3.08934 17.35555,4.33113 9.29391,0.94661 18.61326,2.32095 27.97868,1.81564 4.49332,-0.37502 8.96318,-0.9885 13.45024,-1.43198 3.17528,-0.35674 6.34461,-0.8222 9.42188,-1.70298 5.72365,-1.45747 11.49255,-2.77134 17.13983,-4.50183 6.10472,-2.64058 12.34377,-4.99491 18.30369,-7.95407 5.98919,-3.54403 12.13045,-6.84617 17.95545,-10.65702 5.66265,-4.44957 11.42991,-8.77586 16.95478,-13.39422 5.85068,-6.0725 11.81022,-12.04392 17.52218,-18.24657 4.69942,-6.43188 9.70067,-12.65717 14.09546,-19.31723 3.71332,-6.1796 7.42911,-12.35771 11.14087,-18.53824 0,-6.0944 0,-12.1888 0,-18.28321 1.60458,-3.54346 3.12408,-7.12825 4.41601,-10.79882 1.37045,7e-4 2.74089,0.002 4.11133,0.002 2.47506,-3.98799 6.09362,-7.21847 8.05065,-11.52889 2.44904,-10.52345 5.0732,-21.00825 7.30476,-31.57995 1.08115,-8.06198 2.30002,-16.10854 3.18561,-24.1939 -0.0172,-14.69091 0.0806,-29.38486 -0.11117,-44.07369 -1.27268,-8.7728 -2.278,-17.58845 -3.85809,-26.31296 -1.83601,-8.38938 -3.69411,-16.78306 -6.14353,-25.01901 -1.41681,-5.31406 -3.06757,-10.57208 -5.17671,-15.6552 -2.2282,-5.68889 -4.25113,-11.46839 -6.81444,-17.01841 -3.15467,-6.08553 -6.11581,-12.27309 -9.48591,-18.24494 9.03063,-5.2911 18.1643,-10.42234 26.86683,-16.24945 1.76315,-1.14925 3.52609,-2.29884 5.28942,-3.44782 0,-50.17773 0,-100.355468 0,-150.5332025 -3.61804,-3.7803794 -7.23605,-7.56078094 -10.85547,-11.3398437 -21.64843,-10e-8 -43.29687,0 -64.94531,0 -3.61941,3.77906282 -7.23743,7.5594652 -10.85547,11.3398437 0,6.1569015 0,12.3138025 0,18.4707035 -10.11133,0 -20.22265,0 -30.33398,0 0,-6.156901 0,-12.313802 0,-18.4707035 -3.61804,-3.7803794 -7.23606,-7.56078094 -10.85547,-11.3398437 -28.01758,-10e-8 -56.03516,0 -84.05273,0 -3.39121,3.53980793 -6.78203,7.0799856 -10.17188,10.6210937 0,6.3964845 0,12.7929685 0,19.1894535 -10.41797,0 -20.83594,0 -31.25391,0 0,-6.396485 0,-12.792969 0,-19.1894535 -3.39205,-3.5396188 -6.7838,-7.07953068 -10.17382,-10.6210937 -21.26693,0 -42.53386,0 -63.800786,0 -0.197265,0.2076822 -0.394531,0.4153645 -0.591796,0.6230468 z" />
      <path
         style="fill:#175283;fill-opacity:1;stroke-width:1.70585"
         id="path4154"
         sodipodi:type="arc"
         sodipodi:cx="256.31274"
         sodipodi:cy="310.23291"
         sodipodi:rx="143.01953"
         sodipodi:ry="185.79759"
         sodipodi:start="0"
         sodipodi:end="6.2501462"
         sodipodi:open="true"
         sodipodi:arc-type="arc"
         d="M 399.33228,310.23291 A 143.01953,185.79759 0 0 1 257.49404,496.02416 143.01953,185.79759 0 0 1 113.31273,313.30206 143.01953,185.79759 0 0 1 252.76918,124.49236 143.01953,185.79759 0 0 1 399.25422,304.09544" />
      <path
         style="fill:#000000;stroke-width:0.941177"
         d="m 255.07885,502.04262 -4.60592,-0.1111 -7.83008,-0.83721 -7.83007,-0.83721 -9.45599,-2.45518 -9.45598,-2.45517 -7.76504,-3.26778 -7.76504,-3.26779 -4.54959,-2.40661 -4.5496,-2.40661 -10.01026,-6.95218 -10.01025,-6.95218 -12.04079,-12.56096 -12.04079,-12.56096 -5.11839,-7.22397 -5.11839,-7.22397 -4.25837,-7.32186 -4.25837,-7.32186 v -1.49123 -1.49124 l 2.44165,-2.00486 2.44164,-2.00488 -4.72509,-10.38714 -4.7251,-10.38714 -1.3076,-3.78464 -1.3076,-3.78463 -1.03014,-2.74892 -1.03014,-2.74893 -1.31581,1.13993 -1.31581,1.13995 -2.12337,-0.31423 -2.12336,-0.31421 -1.68596,-5.28882 -1.68595,-5.28881 -2.18963,-10.09755 -2.18963,-10.09754 -1.55997,-12.01934 -1.55996,-12.01932 -0.0208,-18.75126 -0.0208,-18.75127 1.14052,-9.61603 1.14051,-9.61603 1.84023,-9.61604 1.84023,-9.61603 2.32037,-8.65443 2.32038,-8.65443 3.26581,-9.13523 3.26581,-9.13523 3.96034,-8.65443 3.96033,-8.65443 4.47405,-7.69282 4.47404,-7.69283 1.60112,-2.50623 1.60112,-2.50624 -18.35447,-10.74332 -18.35447,-10.74331 -0.54903,-1.49355 -0.54904,-1.49354 V 80.514105 12.868407 l 1.44759,-1.51109 1.44757,-1.5110911 h 26.00373 26.00373 l 1.10543,1.1539241 1.10542,1.153924 v 13.750925 13.750926 h 29.47791 29.47791 V 25.904999 12.154074 l 1.10543,-1.153924 1.10543,-1.1539241 h 36.13676 36.13676 l 1.44758,1.5110911 1.44758,1.51109 v 13.39376 13.393758 h 29.01731 29.01733 V 26.262167 12.868407 l 1.44758,-1.51109 1.44758,-1.5110911 h 26.58275 26.58276 l 1.44758,1.5110911 1.44758,1.51109 v 68.673886 68.673877 l -3.45444,2.25265 -3.45445,2.25266 -15.32747,8.95308 -15.32745,8.95306 3.93514,6.35559 3.93515,6.3556 4.66483,9.13523 4.66483,9.13522 4.06162,10.57765 4.06163,10.57763 2.4168,8.65443 2.41681,8.65443 1.81879,8.17362 1.81879,8.17363 1.60091,11.53925 1.60094,11.53924 v 21.15526 21.15527 l -1.57893,11.53924 -1.57892,11.53924 -3.29143,13.94325 -3.29145,13.94325 -0.94635,1.20199 -0.94634,1.20201 h -2.00593 -2.00593 l -1.07119,-1.1182 -1.0712,-1.11818 -0.82401,2.32019 -0.82402,2.3202 -1.93716,5.46315 -1.93715,5.46315 -4.17993,9.33723 -4.17991,9.33724 1.61005,1.27589 1.61005,1.27588 0.69088,0.0306 0.6909,0.0306 v 2.25728 2.25726 l -5.06183,8.4163 -5.06181,8.4163 -6.20695,8.3181 -6.20694,8.31808 -8.17822,8.42776 -8.1782,8.42777 -7.95827,6.20262 -7.95829,6.20262 -8.35504,4.8476 -8.35505,4.8476 -8.07237,3.39786 -8.07238,3.39786 -9.36575,2.35257 -9.36576,2.35255 -8.75125,0.95862 -8.75126,0.95862 -4.60592,-0.11113 z m -114.93497,-98.10606 0.70805,-0.33919 9.67244,-4.93799 9.67244,-4.93798 8.98999,-3.48239 8.98999,-3.48238 10.35489,-2.77931 10.3549,-2.77931 11.5148,-1.98718 11.51482,-1.9872 12.43599,-1.11972 12.43599,-1.11973 17.9631,0.58624 17.96311,0.58625 12.89659,2.01007 12.89659,2.01007 9.61669,2.37024 9.61669,2.37023 11.10997,3.85685 11.10997,3.85685 11.05421,5.63326 11.05422,5.63327 0.62564,-0.39245 0.62565,-0.39245 3.39516,-7.43776 3.39514,-7.43776 3.13323,-8.53709 3.13322,-8.5371 -1.62691,-1.32446 -1.62691,-1.32445 -12.89658,-6.6394 -12.8966,-6.6394 -9.67244,-3.52158 -9.67244,-3.52159 -12.89658,-3.30922 -12.8966,-3.30922 -12.70159,-1.9375 -12.7016,-1.93751 -15.09073,-0.84881 -15.09074,-0.84879 -15.60116,0.83397 -15.60116,0.83398 -13.16097,2.00712 -13.16097,2.0071 -13.9762,3.72221 -13.9762,3.72221 -9.15183,3.51733 -9.15182,3.51734 -12.14804,6.25034 -12.14804,6.25035 -1.1722,1.47438 -1.17221,1.47439 2.10685,6.3895 2.10684,6.38948 4.51765,9.94254 4.51766,9.94254 z m 56.91813,-89.26212 h 22.26567 l 1.43851,-1.6828 1.4385,-1.68281 10.21908,-18.48276 10.21908,-18.48275 v -1.95132 -1.9513 l -1.66749,-1.74066 -1.66749,-1.74065 -13.76236,-8.25764 -13.76235,-8.25762 -16.85311,-10.13026 -16.8531,-10.13028 -2.67432,0.97319 -2.67433,0.97317 -10.64137,19.23863 -10.64138,19.23864 v 2.11091 2.1109 l 9.77877,17.7591 9.77877,17.7591 1.89662,2.1636 1.89661,2.16361 z m 118.40868,-0.0292 21.70207,0.0292 1.46171,-1.202 1.4617,-1.202 10.22918,-18.56884 10.22917,-18.56882 -0.0399,-2.58644 -0.0399,-2.58644 -10.41968,-18.75127 -10.4197,-18.75127 -2.48149,-1.27671 -2.48149,-1.27673 -31.94176,19.22866 -31.94175,19.22867 -0.8107,2.53879 -0.81069,2.53878 10.78604,19.66542 10.78603,19.66541 1.51453,0.92316 1.51452,0.92315 21.70207,0.0292 z m -132.48184,-187.58488 8.51367,-5.83566 7.7434,-3.85792 7.7434,-3.85793 10.68758,-3.65921 10.68759,-3.65919 0.26615,-8.265564 0.26617,-8.265593 h -27.21082 -27.21081 v 21.618357 21.61836 z m 154.8649,5.79937 0.78944,0.0717 -0.55914,-1.52106 -0.55916,-1.52104 V 109.77431 89.659293 h -26.71436 -26.71436 l 1.9e-4,8.414029 2e-4,8.414018 9.90254,3.18895 9.90255,3.18895 10.13303,5.21538 10.13303,5.2154 6.4483,4.74598 6.44829,4.74598 0.78945,0.0717 z"
         id="path1821" />
      <path
         style="fill:#9ec5e6;fill-opacity:1;stroke-width:1.70585"
         id="path1945"
         sodipodi:type="arc"
         sodipodi:cx="186.37448"
         sodipodi:cy="288.32849"
         sodipodi:rx="5.8647351"
         sodipodi:ry="6.507772"
         sodipodi:start="0"
         sodipodi:end="6.2501462"
         sodipodi:open="true"
         sodipodi:arc-type="arc"
         d="m 192.23922,288.32849 a 5.8647351,6.507772 0 0 1 -5.8163,6.50755 5.8647351,6.507772 0 0 1 -5.91237,-6.40005 5.8647351,6.507772 0 0 1 5.71862,-6.61327 5.8647351,6.507772 0 0 1 6.00685,6.2908" />
      <path
         style="fill:#9ec5e6;fill-opacity:1;stroke-width:1.70585"
         id="path1945-7"
         sodipodi:type="arc"
         sodipodi:cx="312.96835"
         sodipodi:cy="287.91913"
         sodipodi:rx="5.8647351"
         sodipodi:ry="6.507772"
         sodipodi:start="0"
         sodipodi:end="6.2501462"
         sodipodi:open="true"
         sodipodi:arc-type="arc"
         d="m 318.83309,287.91913 a 5.8647351,6.507772 0 0 1 -5.8163,6.50755 5.8647351,6.507772 0 0 1 -5.91237,-6.40005 5.8647351,6.507772 0 0 1 5.71862,-6.61328 5.8647351,6.507772 0 0 1 6.00685,6.29081" />
      <path
         style="fill:#9ec5e6;fill-opacity:1;stroke-width:1.70585"
         id="path1945-3"
         sodipodi:type="arc"
         sodipodi:cx="202.10881"
         sodipodi:cy="263.68549"
         sodipodi:rx="14.056065"
         sodipodi:ry="14.784348"
         sodipodi:start="0"
         sodipodi:end="6.2501462"
         sodipodi:open="true"
         sodipodi:arc-type="arc"
         d="m 216.16488,263.68549 a 14.056065,14.784348 0 0 1 -13.93997,14.78384 14.056065,14.784348 0 0 1 -14.17025,-14.53962 14.056065,14.784348 0 0 1 13.70589,-15.02403 14.056065,14.784348 0 0 1 14.39665,14.29143" />
      <path
         style="fill:#9ec5e6;fill-opacity:1;stroke-width:1.70585"
         id="path1945-3-6"
         sodipodi:type="arc"
         sodipodi:cx="320.89114"
         sodipodi:cy="263.30405"
         sodipodi:rx="14.056065"
         sodipodi:ry="14.784348"
         sodipodi:start="0"
         sodipodi:end="6.2501462"
         sodipodi:open="true"
         sodipodi:arc-type="arc"
         d="m 334.94721,263.30405 a 14.056065,14.784348 0 0 1 -13.93997,14.78384 14.056065,14.784348 0 0 1 -14.17024,-14.53962 14.056065,14.784348 0 0 1 13.70588,-15.02403 14.056065,14.784348 0 0 1 14.39666,14.29143" />
    </g>
  </g>
</svg>
