<?xml version="1.0" encoding="UTF-8" standalone="no"?>
<!-- Created with Inkscape (http://www.inkscape.org/) -->

<svg
   version="1.1"
   id="svg138"
   width="512"
   height="512"
   viewBox="0 0 512 512"
   sodipodi:docname="qrgen.svg"
   inkscape:version="1.1.2 (0a00cf5339, 2022-02-04)"
   xmlns:inkscape="http://www.inkscape.org/namespaces/inkscape"
   xmlns:sodipodi="http://sodipodi.sourceforge.net/DTD/sodipodi-0.dtd"
   xmlns="http://www.w3.org/2000/svg"
   xmlns:svg="http://www.w3.org/2000/svg"
   xmlns:rdf="http://www.w3.org/1999/02/22-rdf-syntax-ns#"
   xmlns:cc="http://creativecommons.org/ns#"
   xmlns:dc="http://purl.org/dc/elements/1.1/">
  <metadata
     id="metadata144">
    <rdf:RDF>
      <cc:Work
         rdf:about="">
        <dc:format>image/svg+xml</dc:format>
        <dc:type
           rdf:resource="http://purl.org/dc/dcmitype/StillImage" />
      </cc:Work>
    </rdf:RDF>
  </metadata>
  <defs
     id="defs142" />
  <sodipodi:namedview
     pagecolor="#aeaeae"
     bordercolor="#666666"
     borderopacity="1"
     objecttolerance="10"
     gridtolerance="10"
     guidetolerance="10"
     inkscape:pageopacity="0"
     inkscape:pageshadow="2"
     inkscape:window-width="1366"
     inkscape:window-height="695"
     id="namedview140"
     showgrid="false"
     inkscape:zoom="0.87885424"
     inkscape:cx="272.5139"
     inkscape:cy="258.85976"
     inkscape:window-x="0"
     inkscape:window-y="24"
     inkscape:window-maximized="1"
     inkscape:current-layer="svg138"
     inkscape:pagecheckerboard="0" />
  <g
     id="g15618"
     transform="matrix(1.0344181,0,0,1.0199086,-9.0544042,-5.1081957)">
    <path
       style="fill:#ffc8aa;fill-opacity:1;stroke-width:1.99544"
       d="M 99.141419,500.6052 C 76.275678,495.64371 59.863168,479.23553 52.52411,454.0002 47.429156,436.48121 47.220572,431.71529 47.220572,332.8197 c 0,-51.62973 0.43367,-96.42623 0.963711,-99.54778 0.87785,-5.1699 1.891596,-6.59525 11.378451,-15.99835 5.728108,-5.67754 19.119255,-17.67576 29.758107,-26.66271 l 19.343369,-16.33993 0.56892,48.83703 0.56892,48.83702 24.39446,29.58397 c 32.87118,39.864 33.33828,40.39231 35.71209,40.39295 2.63798,7e-4 11.95181,-6.03581 38.95365,-25.24685 28.02712,-19.94049 45.14431,-31.35898 50.98612,-34.01172 11.30312,-5.1327 26.37025,-0.98006 32.70884,9.01484 3.7881,5.97324 4.18097,11.02704 1.32507,17.04542 -1.11697,2.35383 -19.38971,21.73113 -42.55644,45.1289 l -40.59897,41.00386 -3.6192,12.42404 c -9.42092,32.34025 -21.33104,54.19332 -39.12441,71.78671 -16.4069,16.22248 -32.53471,23.34569 -52.49198,23.18424 -5.00652,-0.0405 -12.36396,-0.78127 -16.349861,-1.64614 z"
       id="path983" />
    <path
       id="path10050"
       style="fill:#e5e5e5;fill-opacity:1;stroke-width:1.99544"
       d="m 359.53125,9.7695312 c -15.05981,0.00772 -34.98018,0.070292 -61.53906,0.1523438 L 191.72656,10.25 l -7.96484,2.685547 c -20.15129,6.795756 -35.25311,17.787047 -43.98438,32.009765 -0.96046,1.564538 -2.96904,5.916987 -4.46289,9.671876 l -2.71679,6.826171 -0.375,101.562501 -0.375,101.56055 16.28515,19.83984 16.28516,19.83789 L 164.70898,196.7832 165,89.320312 H 298.12109 431.24414 V 230.98242 372.64453 h -84.58008 -84.57812 l -13.73438,14.00781 c -10.52944,10.73912 -14.01537,15.05449 -14.93554,18.49024 -5.71317,21.33197 -7.80036,27.56821 -12.59375,37.62109 -3.02145,6.33671 -7.31509,14.62724 -9.53907,18.42188 -2.70466,4.61517 -3.59759,7.0894 -2.69726,7.47461 0.74026,0.31669 45.63654,0.47128 99.76953,0.34375 l 98.42383,-0.23047 9.10351,-3.0918 c 27.46085,-9.32217 45.91385,-29.80591 48.5625,-53.91016 1.65934,-15.10076 0.50842,-338.59019 -1.24609,-350.287105 C 461.55502,50.522904 460.06331,47.197142 453.10547,38.992188 442.68755,26.706958 428.67351,17.571761 411.77734,12.050781 406.13947,10.208552 404.71068,9.7463762 359.53125,9.7695312 Z M 210.98633,41.710938 c 1.786,0.260626 3.43769,1.293164 5.29101,3.146484 4.05919,4.05919 4.21546,7.266974 0.53321,10.949219 -1.87344,1.873444 -4.07067,2.792968 -6.67383,2.792968 -9.89532,0 -13.65811,-11.053263 -5.24414,-15.404297 2.38726,-1.234502 4.30774,-1.745001 6.09375,-1.484374 z m 123.54101,3.802734 v 4.835937 4.835938 h -36.91015 -36.90821 l 0.65821,-4.267578 c 0.36214,-2.346806 0.73588,-4.373241 0.83008,-4.503907 0.0942,-0.130666 16.40828,-0.386118 36.25195,-0.568359 z M 278.23438,396.20312 c 5.36397,-0.009 12.27377,0.0263 21.21484,0.084 21.37708,0.13786 39.01724,0.39812 39.19922,0.58008 0.74328,0.74332 0.76888,43.66371 0.0273,45.90429 -0.50086,1.51332 -2.12823,2.68882 -4.32617,3.12891 -3.8574,0.77052 -68.27005,0.69217 -72.27734,-0.0879 -5.0754,-0.98798 -5.48829,-2.86154 -5.48829,-24.94336 0,-18.35543 0.2387,-21.07179 2,-22.83398 1.37964,-1.38028 3.55846,-1.80377 19.6504,-1.83204 z" />
    <path
       style="fill:#e5e5e5;fill-opacity:1;stroke-width:1.99544"
       d="m 186.6066,141.09279 v -31.29074 h 38.11781 38.11781 v 31.29074 31.29074 H 224.72441 186.6066 Z m 65.99501,-1.13784 v -23.32583 h -27.8772 -27.87721 v 23.32583 23.32582 h 27.87721 27.8772 z"
       id="path12901" />
    <path
       style="fill:#e5e5e5;fill-opacity:1;stroke-width:1.99544"
       d="m 209.3635,141.1249 v -13.11732 h 15.9671 15.96709 l -0.32172,12.80075 -0.32173,12.80076 -15.64537,0.31657 -15.64537,0.31657 z"
       id="path12940" />
    <path
       style="fill:#e5e5e5;fill-opacity:1;stroke-width:1.99544"
       d="m 278.77205,116.62912 v -6.82707 h 21.05014 21.05013 v 6.82707 6.82707 h -21.05013 -21.05014 z"
       id="path12979" />
    <path
       style="fill:#e5e5e5;fill-opacity:1;stroke-width:1.99544"
       d="m 278.77205,150.76448 v -13.65414 h 6.82707 6.82707 v 7.96491 7.96492 h 14.22307 14.22306 v 5.68922 5.68923 h -21.05013 -21.05014 z"
       id="path13018" />
    <path
       style="fill:#e5e5e5;fill-opacity:1;stroke-width:1.99544"
       d="m 336.80215,141.09279 v -31.29074 h 38.11781 38.11782 v 31.29074 31.29074 h -38.11782 -38.11781 z m 65.99502,-1.13784 v -23.32583 h -27.87721 -27.8772 v 23.32583 23.32582 h 27.8772 27.87721 z"
       id="path13057" />
    <path
       style="fill:#e5e5e5;fill-opacity:1;stroke-width:1.99544"
       d="m 359.55906,141.1249 v -13.11732 h 15.96709 15.9671 l -0.32173,12.80075 -0.32172,12.80076 -15.64537,0.31657 -15.64537,0.31657 z"
       id="path13096" />
    <path
       style="fill:#e5e5e5;fill-opacity:1;stroke-width:1.99544"
       d="m 186.6066,199.69182 v -13.65414 h 6.82707 6.82707 v 13.65414 13.65414 h -6.82707 -6.82707 z"
       id="path13135" />
    <path
       style="fill:#e5e5e5;fill-opacity:1;stroke-width:1.99544"
       d="m 201.39858,220.17303 v -5.68923 h 14.22307 14.22306 v 5.68923 5.68922 h -14.22306 -14.22307 z"
       id="path13174" />
    <path
       style="fill:#e5e5e5;fill-opacity:1;stroke-width:1.99544"
       d="m 278.77205,205.38104 v -7.96491 h -31.29074 -31.29074 v -5.68923 -5.68922 h 23.89475 23.89475 v -6.25815 -6.25815 h 6.82707 6.82707 v 6.25815 6.25815 h 7.39599 7.39599 v 13.65414 13.65414 h -6.82707 -6.82707 z"
       id="path13213" />
    <path
       style="fill:#e5e5e5;fill-opacity:1;stroke-width:1.99544"
       d="M 293.56404,226.43118 V 214.4838 h 28.44613 28.44612 v 5.68923 5.68922 h -14.79198 -14.79199 v 6.25815 6.25815 h -13.65414 -13.65414 z"
       id="path13252" />
    <path
       style="fill:#e5e5e5;fill-opacity:1;stroke-width:1.99544"
       d="m 308.35603,185.46875 v -11.94737 h 6.25814 6.25815 v 11.94737 11.94738 h -6.25815 -6.25814 z"
       id="path13291" />
    <path
       style="fill:#e5e5e5;fill-opacity:1;stroke-width:1.99544"
       d="m 336.80215,191.7269 v -5.68922 h 21.61906 21.61906 v 5.68922 5.68923 h -21.61906 -21.61906 z"
       id="path13330" />
    <path
       style="fill:#e5e5e5;fill-opacity:1;stroke-width:1.99544"
       d="m 399.38363,204.2432 v -18.20552 h 6.82707 6.82708 v 18.20552 18.20552 h -6.82708 -6.82707 z"
       id="path13369" />
    <path
       style="fill:#e5e5e5;fill-opacity:1;stroke-width:1.99544"
       d="m 366.38613,220.17303 v -5.68923 h 6.82707 6.82707 v 5.68923 5.68922 h -6.82707 -6.82707 z"
       id="path13408" />
    <path
       style="fill:#e5e5e5;fill-opacity:1;stroke-width:1.99544"
       d="m 249.18808,220.17303 v -5.68923 h 14.22306 14.22307 v 5.68923 5.68922 h -14.22307 -14.22306 z"
       id="path13447" />
    <path
       style="fill:#e5e5e5;fill-opacity:1;stroke-width:1.99544"
       d="m 187.34401,294.73065 c -0.40558,-1.05691 -0.73741,-15.44858 -0.73741,-31.98149 v -30.05983 h 38.11781 38.11781 v 13.42657 c 0,14.84246 -0.52783,16.1574 -6.48572,16.1574 h -3.75489 v -10.80953 -10.80953 h -27.8772 -27.87721 v 23.84276 23.84276 l 7.60956,0.33645 7.60955,0.33645 -5.0494,3.35952 c -6.2854,4.18188 -18.41518,5.63605 -19.6729,2.35847 z"
       id="path13486" />
    <path
       style="fill:#e5e5e5;fill-opacity:1;stroke-width:1.99544"
       d="m 209.3635,263.26227 v -13.80302 l 4.26692,0.70527 c 2.34681,0.38791 9.51523,0.71092 15.92983,0.7178 l 11.66291,0.0125 v 8.07732 c 0,7.64274 -0.19896,8.26397 -3.69799,11.54627 -5.35343,5.02184 -9.91696,6.54684 -19.59129,6.54684 h -8.57038 z"
       id="path13525" />
    <path
       style="fill:#e5e5e5;fill-opacity:1;stroke-width:1.99544"
       d="m 286.73697,262.87825 c -7.91445,-1.81446 -7.96492,-1.89802 -7.96492,-13.1884 V 239.5164 h 6.82707 6.82707 v 5.1203 5.1203 h 29.01505 29.01505 v 4.99143 4.99144 l -27.98245,0.43182 c -23.30677,0.35967 -28.20252,0.71995 -29.29951,2.15613 -1.08318,1.41811 -2.2263,1.51586 -6.43736,0.55043 z"
       id="path13564" />
    <path
       style="fill:#e5e5e5;fill-opacity:1;stroke-width:1.99544"
       d="m 351.59414,240.65424 v -5.68922 h 30.72182 30.72182 v 5.68922 5.68923 h -30.72182 -30.72182 z"
       id="path13603" />
    <path
       style="fill:#e5e5e5;fill-opacity:1;stroke-width:1.99544"
       d="m 369.79966,289.58158 v -5.68922 h -9.10276 -9.10276 V 272.5139 261.13545 h 30.72182 30.72182 v 5.68923 5.68922 H 398.24579 383.4538 v 11.37846 11.37845 h -6.82707 -6.82707 z"
       id="path13642" />
    <path
       style="fill:#e5e5e5;fill-opacity:1;stroke-width:1.99544"
       d="m 336.80215,290.1505 v -5.1203 h 6.82707 6.82707 v 5.1203 5.12031 h -6.82707 -6.82707 z"
       id="path13681" />
    <path
       style="fill:#e5e5e5;fill-opacity:1;stroke-width:1.99544"
       d="m 399.38363,290.1505 v -5.1203 h 6.82707 6.82708 v 5.1203 5.12031 h -6.82708 -6.82707 z"
       id="path13720" />
    <path
       style="fill:#e5e5e5;fill-opacity:1;stroke-width:1.99544"
       d="m 317.60832,292.93498 c -1.73233,-4.96939 -1.6218,-7.90478 0.29765,-7.90478 2.72706,0 4.04657,6.77437 1.96062,10.0658 -0.70889,1.11856 -1.31829,0.53541 -2.25827,-2.16102 z"
       id="path13759" />
    <path
       style="fill:#5d5d5d;fill-opacity:1;stroke-width:1.99544"
       d="m 270.80714,420.43377 v -12.5163 h 27.30828 27.30828 v 12.5163 12.51629 h -27.30828 -27.30828 z"
       id="path13798" />
  </g>
</svg>
