<?xml version="1.0" encoding="UTF-8" standalone="no"?>
<!-- Created with Inkscape (http://www.inkscape.org/) -->

<svg
   version="1.1"
   id="svg891"
   width="512"
   height="512"
   viewBox="0 0 512 512"
   sodipodi:docname="qrljacker.svg"
   inkscape:version="1.1.2 (0a00cf5339, 2022-02-04)"
   xmlns:inkscape="http://www.inkscape.org/namespaces/inkscape"
   xmlns:sodipodi="http://sodipodi.sourceforge.net/DTD/sodipodi-0.dtd"
   xmlns="http://www.w3.org/2000/svg"
   xmlns:svg="http://www.w3.org/2000/svg">
  <defs
     id="defs895" />
  <sodipodi:namedview
     id="namedview893"
     pagecolor="#505050"
     bordercolor="#eeeeee"
     borderopacity="1"
     inkscape:pageshadow="0"
     inkscape:pageopacity="0"
     inkscape:pagecheckerboard="0"
     showgrid="false"
     inkscape:zoom="0.78236815"
     inkscape:cx="273.52852"
     inkscape:cy="247.32602"
     inkscape:window-width="1366"
     inkscape:window-height="695"
     inkscape:window-x="0"
     inkscape:window-y="24"
     inkscape:window-maximized="1"
     inkscape:current-layer="g897" />
  <g
     inkscape:groupmode="layer"
     inkscape:label="Image"
     id="g897">
    <g
       id="g2632"
       transform="matrix(1.2461823,0,0,1.2725024,-35.258431,-0.74786621)">
      <path
         id="path1605"
         style="fill:#fcc715"
         d="m 304.11328,36.769531 -2.99219,2.212891 c -10.09778,7.465615 -33.59889,15.725613 -55.07031,19.355469 -12.75923,2.157013 -31.22486,3.927012 -46.38086,4.445312 -8.8937,0.304144 -17.63242,0.77417 -19.41992,1.044922 L 177,64.320312 v 36.455078 c 0,31.7375 0.1941,36.45508 1.5,36.45508 H 190.07422 198 263 v 65 3.94531 3.94531 10.10938 13.5 13.5 19 4 4 49.0625 l 6.25,3.63672 c 11.1031,6.46285 28.78292,18.61915 33.5918,23.0957 1.1384,1.05973 1.70823,1.05973 3.14062,0 20.12932,-14.89246 36.31662,-24.9431 62.99805,-39.11523 26.87315,-14.27396 34.5725,-19.20494 42.51953,-27.22852 10.66712,-10.76986 16.16751,-22.82304 19.02539,-41.69531 C 431.73735,233.98302 432,217.17737 432,147.88867 V 63.535156 L 413.25,62.90625 C 366.63156,61.342481 332.72888,53.762773 308.80664,39.556641 Z" />
      <path
         id="path1601"
         style="fill:#e5b416"
         d="m 304.8789,38.355465 c -0.5726,0.133224 -0.56636,0.691323 0.25391,1.71289 1.05619,1.31539 1.62536,60.298465 0.60742,62.951175 -0.47687,1.24272 -1.81918,1.71094 -4.91797,1.71094 -6.43619,0 -16.25217,3.55298 -22.18359,8.03125 -7.5623,5.70959 -10.18007,11.62452 -10.52734,23.7832 -0.1968,6.8906 0.0795,9.50018 1.06836,10.11133 2.92483,1.80764 9.29328,3.4152 9.94531,2.50977 0.96389,-1.33849 3.45989,-1.71068 2.64648,-0.39454 -0.85172,1.37811 2.73019,0.86302 3.76172,-0.54101 0.40408,-0.55 0.742,-4.99193 0.75,-9.86914 l 0.0156,-8.86719 3.78906,-3.78906 c 2.88562,-2.88563 4.91072,-3.95765 8.48828,-4.49414 7.9738,-1.19574 7.55211,-2.58229 7.56641,24.95898 0.0148,28.54941 0.85989,26.57655 -11.33594,26.45117 -7.5994,-0.0781 -7.68923,-0.10946 -8.7207,-3.06836 -0.70323,-2.01728 -1.56887,-2.85085 -2.66407,-2.56445 -1.2488,0.32657 -1.62304,-0.31841 -1.62304,-2.79101 0,-2.04807 0.42412,-3.04866 1.17187,-2.76172 1.90397,0.73062 3.58186,-3.3617 2.33399,-5.69336 -1.56273,-2.91999 -5.98141,-3.76724 -7.66211,-1.46875 -0.73943,1.01122 -1.34375,1.35793 -1.34375,0.76953 0,-0.5884 -1.2375,-1.56024 -2.75,-2.1582 -5.71691,-2.26015 -5.57996,-2.4783 -5.33008,8.45898 0.19668,8.60889 -0.004,10.16884 -1.41406,10.74023 -0.007,0.11973 -0.001,-0.0517 -0.0215,0.52735 -0.0109,0.0567 -0.0128,0.0655 -0.0215,0.11133 0.0339,0.3535 0.021,0.83063 0.043,1.13867 -0.0487,-0.24528 -0.0237,-0.52188 -0.1211,-0.7461 -0.0233,0.10744 -0.0708,0.29108 -0.11914,0.46485 9.5e-4,0.0241 0.001,0.0482 0.002,0.0723 0.12478,0.16129 0.24493,0.32578 0.34766,0.49804 0.0592,0.0993 0.11434,0.87341 0.14844,1.08008 0.11685,0.70334 0.10356,1.41838 0.10156,2.12891 -0.0211,-0.0107 -0.0302,-0.01 -0.0449,-0.0137 0.019,0.0886 0.0365,0.17854 0.0352,0.28711 -2.3e-4,0.0185 -0.007,0.0309 -0.008,0.0488 0.0402,0.10521 0.0683,0.19742 0.01,0.20117 3e-5,0.0154 10e-4,0.23163 0.002,0.44531 0.0186,0.59086 -0.0321,1.17939 -0.11523,1.76367 -0.1397,0.73087 -0.23328,1.47032 -0.41211,2.19727 -0.007,0.0151 -0.0146,0.0299 -0.0215,0.0449 -2e-5,0.0995 1e-5,0.19928 0,0.29883 9e-5,0.2358 1e-5,0.47123 0,0.70703 0.003,0.0292 0.003,0.0617 0.008,0.0898 0.1875,1.14687 -0.005,2.39313 -0.0801,3.5293 -0.17693,0.90221 -0.33925,1.81089 -0.58594,2.69726 -0.21193,-0.0279 -0.40243,-0.045 -0.60156,-0.0664 -0.14726,0.29933 -0.33654,0.57259 -0.55664,0.81836 -0.0208,0.12489 -0.0385,0.25025 -0.0606,0.375 -0.0194,0.10986 -0.0423,0.3901 -0.0723,0.33789 0.004,-9.8e-4 0.004,10e-4 0.008,0 -0.003,0.50435 -0.002,1.02578 -0.0176,1.54297 0.2249,1.31522 0.14523,2.67175 0.25,3.99609 0,0.0824 0.0248,2.88303 -0.0508,1.42383 0.0886,1.05197 0.0749,2.1051 -0.006,3.1582 -0.012,0.31426 -0.006,0.6285 -0.0371,0.94141 -0.0276,0.27259 -0.0988,0.66889 -0.13086,0.8125 0.003,0.12105 -10e-4,-0.0153 0.002,0.12109 -0.0299,0.20339 -0.0674,0.40182 -0.10156,0.60156 l 0.2168,0.98829 c 0.64515,2.93732 0.54246,4.76177 -0.51172,5.81445 0.0151,0.1653 0.0391,0.33561 0.0547,0.5 0.0297,0.14897 0.0637,0.2969 0.0957,0.44531 0.0608,0.75303 0.1199,1.49891 0.0937,2.25391 v 0.69531 c 0,0.33075 -1e-5,0.66144 0,0.99219 -5e-5,0.14794 -7e-5,0.29542 0,0.44336 4e-5,0.16185 10e-4,0.58744 0,0.65234 -0.0471,-0.97839 -2e-4,-0.11295 -0.006,0.30274 0.0359,0.37332 0.0545,0.74719 0.0137,1.12695 -0.0505,0.39514 -0.0485,0.35249 -0.082,0.60547 -0.002,0.29 -0.0259,1.20859 -0.0469,1.78125 l 0.19336,-0.0117 -0.0254,2.54687 c 0.15985,0.63834 0.29609,1.28079 0.3125,1.94922 0.004,0.10074 0.0109,1.26743 -0.0117,1.08008 0.0474,0.4886 0.10352,0.97764 0.0859,1.13672 0.0164,0.17168 0.0313,0.34317 0.0352,0.51562 4.3e-4,0.0195 -1.4e-4,0.0391 0,0.0586 -0.008,-0.0515 -0.0145,-0.13298 -0.0137,-0.0996 0.006,0.20158 0.004,0.14653 0.01,0.27734 5.2e-4,-0.0502 0.005,-0.10028 0.004,-0.15039 6e-5,0.0703 -4.1e-4,0.1405 -0.002,0.21094 0.0415,0.84608 0.0616,0.49623 -0.17188,2.29102 -0.0429,0.17008 -0.054,0.20306 -0.0566,0.19726 8.8e-4,0.64474 -8.7e-4,1.28886 -0.004,1.93359 0,0.0476 0.009,0.18898 -0.002,0.14258 -0.0172,-0.0763 -0.0116,-0.15452 -0.0176,-0.23242 0.0778,1.00876 0.006,2.01605 -0.0254,3.02539 -0.023,0.70868 -0.0582,1.42192 -0.1289,2.13086 0.14977,3.42983 0.47502,5.64287 1.0039,6.29688 0.95336,1.1789 0.94467,1.33637 -0.041,0.74414 -0.3539,-0.21262 -0.60576,-0.19643 -0.80469,-0.041 0.0693,0.61934 0.11743,2.29238 0.12109,2.51563 0.008,0.44783 0.0116,0.34702 0.0176,0.23046 0.032,1.38155 0.0372,2.76121 0.0957,4.14258 0.0249,0.66489 0.0229,1.32902 0.0195,1.99414 0.34996,1.4607 0.64438,2.93738 0.65234,4.44141 -0.0114,0.26092 4.8e-4,0.6045 0,0.90039 0.23733,0.039 0.29861,0.0472 0.5293,0.084 0.0218,-0.002 0.0658,-0.002 0.0879,-0.004 -0.0706,-0.0152 -0.0203,-0.009 -0.16993,-0.0391 0.0867,0.01 0.17136,0.025 0.25782,0.0351 8.11327,-0.66244 38.39725,0.225 39.1914,1.41797 0.43559,0.65428 0.67012,21.32668 0.52149,45.93945 -0.14863,24.61278 -0.0442,44.75028 0.23242,44.75 0.27662,-2.7e-4 3.68303,-2.3625 7.57031,-5.25 6.13687,-4.5585 18.83348,-13.02159 30.42774,-20.28125 4.23205,-2.64987 13.03437,-7.40073 31,-16.73242 39.94975,-20.75065 51.97055,-35.13505 56.53515,-67.65234 1.1902,-8.47878 1.46485,-25.94354 1.46485,-93.25781 0,-45.55426 -0.3375,-82.837566 -0.75,-82.851566 -61.95009,-2.09958 -98.47799,-9.231789 -121.05664,-23.636719 -3.09392,-1.973881 -5.65894,-2.93493 -6.61329,-2.71289 z M 267.14648,177.68164 c -0.0653,-0.17104 -0.15924,-0.37232 -0.0273,-0.33594 -0.0685,-0.31881 -0.26368,-0.51285 -0.55078,-0.61718 1.9e-4,0.043 -1.8e-4,0.0859 0,0.1289 -0.0105,0.32884 10e-4,0.65816 0.0156,0.98633 0.19116,0.009 0.33817,0.0113 0.53711,0.0215 0.0112,-0.0592 0.0223,-0.11636 0.0254,-0.18359 z M 263,137.23047 c 0.0488,0.17244 0.1007,0.37806 0.125,0.48242 -0.0167,-0.11666 -0.0692,-0.34747 -0.10742,-0.48242 z m 3.38086,36.14648 c -10e-4,0.008 -8.8e-4,0.027 -0.002,0.0371 0.002,0.002 0.002,0.004 0.004,0.006 -8.1e-4,-0.0217 -10e-4,-0.0244 -0.002,-0.043 z m 0.20508,4.50586 c 0.01,0.21357 0.0168,0.42694 0.0234,0.64063 0.26528,-0.11762 0.4425,-0.32342 0.50782,-0.63867 -0.2061,7.6e-4 -0.33524,-0.002 -0.53125,-0.002 z m 48.05273,8.86719 c 2.66378,-0.0211 6.1749,-0.003 10.81836,0.0254 17.59483,0.10609 19.14845,0.26173 21.00391,2.11719 1.10207,1.10207 1.80278,2.20503 1.55664,2.45117 -1.96517,1.96518 -40.12051,2.38535 -42.04297,0.46289 -0.48111,-0.48112 -0.57008,-1.83711 -0.19727,-3.01172 0.49694,-1.56576 0.86999,-1.98155 8.86133,-2.04492 z m -48.50195,0.64062 c -0.002,0.0169 -0.004,0.0339 -0.006,0.0508 -10e-4,0.0248 -8.6e-4,0.0402 -0.002,0.0644 0.004,-0.028 0.004,-0.0339 0.006,-0.0508 3.6e-4,-0.0215 10e-4,-0.0288 0.002,-0.0644 z m -1.49024,3.25782 c -0.009,0.0248 -0.0125,0.0454 -0.0215,0.0703 0.007,-8e-5 0.013,7e-5 0.0195,0 0.002,-0.0176 0.002,-0.0352 0.004,-0.0527 -1.2e-4,-0.006 -0.002,-0.0116 -0.002,-0.0176 z m -0.002,0.0703 c -0.006,0.0618 -0.004,0.12233 -0.006,0.18359 0.002,-0.0475 0.0145,-0.0813 0.0156,-0.13086 4.5e-4,-0.0187 -0.004,-0.0343 -0.004,-0.0527 -0.002,2e-5 -0.004,-2e-5 -0.006,0 z m -0.006,0.18359 c -0.004,0.0794 -0.0175,0.14496 -0.0254,0.21875 0.0133,5.6e-4 0.0229,0.004 0.041,0 -0.0191,-0.0712 -0.0181,-0.14452 -0.0156,-0.21875 z m -0.0254,0.21875 c -0.12115,-0.005 -0.0631,-0.19489 0.0117,-0.40234 -0.0488,5.9e-4 -0.0977,9.3e-4 -0.14649,0.002 -0.084,0.0735 -0.17094,0.14318 -0.26172,0.20898 0.004,0.0918 0.007,0.18359 0.01,0.27539 0.0338,0.0761 0.0578,0.1557 0.0898,0.23242 -0.0172,-0.0537 -0.0687,-0.15488 -0.0898,-0.20898 0.009,0.30992 0.032,0.6192 0.0332,0.92969 0.003,0.0439 0.003,0.0397 0.002,0.0508 0.0619,-0.087 0.11288,-0.18948 0.16015,-0.29688 -0.0199,-0.0934 -0.0528,-0.31091 -0.0742,-0.38476 0.0394,0.0977 0.0742,0.19717 0.10743,0.29687 0.0766,-0.19931 0.12949,-0.43338 0.1582,-0.70312 z m 0.0391,10.04101 c -0.0174,-0.3609 -0.0134,0.1827 0.0215,1.72852 0.0111,-0.0869 0.028,-0.17416 0.0293,-0.26172 10e-4,-0.0813 -0.0311,-1.05858 -0.0508,-1.4668 z m 61.13086,2.56836 c 14.23395,0 19.52191,0.3267 20.23633,1.25 1.68355,2.17577 2.12969,4.40668 0.93359,4.67578 -0.63506,0.14294 -10.00388,0.47218 -20.81836,0.73047 -18.73779,0.44753 -19.69018,0.37841 -20.27148,-1.45312 -0.33546,-1.05706 -0.32651,-2.66002 0.0195,-3.5625 0.55359,-1.44262 2.95817,-1.64063 19.90039,-1.64063 z m -61.44141,7.34766 c 0.0234,0.25351 0.0663,0.5008 0.084,0.76953 0.0114,0.17196 -0.004,-0.34542 -0.0312,-0.51562 -0.0136,-0.0854 -0.0233,-0.11644 -0.0527,-0.25391 z m -0.01,8.79102 c 0.002,0.0239 0.016,0.21868 0.0293,0.45507 l 0.006,-0.002 c -0.021,-0.26668 -0.0372,-0.47387 -0.0352,-0.45312 z m 73.40039,1.17773 c 9.32138,0.0957 9.82691,0.65819 8.3418,2.49219 -0.98603,1.21771 -0.99163,1.40477 -0.0254,0.82422 0.6875,-0.41304 1.25,-0.28292 1.25,0.28906 0,0.57198 -1.01725,1.29362 -2.25977,1.60547 -3.14989,0.79057 -37.70993,1.1098 -38.92383,0.35937 -0.54545,-0.3372 -0.83991,-1.6872 -0.65429,-3 l 0.33789,-2.38672 19.41992,-0.15429 c 5.31907,-0.0419 9.40654,-0.0612 12.51367,-0.0293 z m -72.93359,3.98242 c 0.0251,0.18791 0.033,0.43031 0.0605,0.69727 -0.009,-0.17097 -0.0172,-0.3411 -0.0312,-0.51172 -0.005,-0.0622 -0.0373,-0.24735 -0.0293,-0.18555 z m -0.01,5.125 c 0.0322,-0.16389 0.0659,-0.30975 -0.0254,0.13477 10e-6,0.006 -1e-5,0.0117 0,0.0176 0.004,-0.034 0.0123,-0.0858 0.0254,-0.15235 z m 60.39258,7.80274 c 12.50286,-0.17568 19.80798,0.10195 20.62891,0.7832 1.75373,1.45549 2.45151,4.59407 1.0996,4.94531 -0.61204,0.15901 -10.00586,0.47678 -20.87695,0.70703 -21.03126,0.44542 -21.46167,0.35597 -20.55664,-4.35351 0.3188,-1.6589 1.94744,-1.8325 19.70508,-2.08203 z m -59.53125,20.60351 v 0.002 c 0.006,9.9e-4 0.0116,9e-4 0.0176,0.002 0.006,9.9e-4 -0.0221,-0.005 -0.0176,-0.004 z m -7.83789,23.41211 c -0.30632,0.51284 -0.62208,1.09065 -0.94922,1.71875 0.41948,-0.45476 0.7131,-1.06073 0.94922,-1.71875 z m 2.84179,1.94727 c -0.0628,0.0844 -0.12449,0.16963 -0.1875,0.2539 0.006,-9.6e-4 0.0117,-6e-4 0.0176,-0.002 0.0475,-0.0749 0.13528,-0.17903 0.16407,-0.23633 0.002,-0.005 0.003,-0.0106 0.006,-0.0156 z" />
      <path
         style="fill:#ffffff"
         d="m 34.83676,366.03795 c -0.36667,-0.36666 -0.66667,-14.76666 -0.66667,-32 v -31.33333 h 32 32 v 32 32 H 66.83676 c -17.23334,0 -31.63334,-0.3 -32,-0.66667 z m 54.33333,-31.8521 v -23.51878 l -22.75,0.26878 -22.75,0.26877 -0.26843,23.25 -0.26843,23.25 h 23.01843 23.01843 z m -36,0.0188 v -13.5 h 13.5 13.5 v 13.5 13.5 h -13.5 -13.5 z m 55,14 v -18.5 h 4.5 4.5 v -14 -14 h -4.5575 -4.5575 l 0.3075,-4.20573 c 0.30564,-4.18023 0.33175,-4.20599 4.3075,-4.25 l 4,-0.0443 0.30479,-4.75 0.30479,-4.75 h -4.51726 -4.51727 l -0.28752,-9.25 -0.28753,-9.25 -4,-0.0597 c -3.97038,-0.0592 -4.00228,-0.0907 -4.30751,-4.25 l -0.3075,-4.19027 h 9.05751 9.0575 v -4.5 -4.5 h 4.5 4.5 v 4.5 4.5 h 4.5 4.5 v 9 9 h 4.5 4.5 v 4.5575 4.5575 l -4.25,-0.3075 c -4.22934,-0.30601 -4.25149,-0.32816 -4.5575,-4.5575 l -0.3075,-4.25 h -4.4425 -4.4425 v 9.35221 9.35221 l 13.75,-0.10221 13.75,-0.10221 0.30479,-4.75 0.30479,-4.75 h 3.94521 c 3.88952,0 3.94543,0.0529 3.96052,3.75 0.0205,5.0182 0.77651,5.82462 5.48469,5.85038 3.96803,0.0217 4.00244,0.0549 4.30471,4.15372 l 0.30471,4.13185 -4.80471,0.30702 -4.80471,0.30703 -0.5,4.5 c -0.47389,4.26499 -0.65668,4.4922 -3.5,4.35072 -1.65,-0.0821 -3.31163,-0.1946 -3.6925,-0.25 -0.38088,-0.0554 -0.83088,-2.01322 -1,-4.35072 l -0.3075,-4.25 -13.75,-0.27822 -13.75,-0.27822 v 5.02822 5.02822 h 8.97178 8.97178 l 0.27822,13.75 0.27822,13.75 4.25,0.3075 c 4.21793,0.30518 4.25,0.33681 4.25,4.1925 0,3.85569 -0.0321,3.88732 -4.25,4.1925 l -4.25,0.3075 -0.29473,4.50365 -0.29473,4.50365 -4.45527,-0.35435 -4.45527,-0.35434 v -8.8993 -8.89931 h -4.5 -4.5 v -4.5 -4.5 h -4.5 -4.5 v 4.4425 4.4425 l 4.25,0.3075 c 4.22934,0.30601 4.25149,0.32816 4.5575,4.5575 l 0.3075,4.25 h -4.5575 -4.5575 v 5 5 h 4.5 4.5 v 4.5 4.5 h -9 -9 z m 27,-23 v -4.5 h -4.5 -4.5 v 4.5 4.5 h 4.5 4.5 z m -9,-55.5 v -5 h -4.5 -4.5 v 5 5 h 4.5 4.5 z m 19,92.58652 v -4.47152 l 4.25,-0.3075 c 4.21971,-0.30531 4.25217,-0.3374 4.55482,-4.50268 0.30195,-4.15577 0.34423,-4.19805 4.5,-4.5 4.16448,-0.30259 4.19743,-0.33589 4.50245,-4.55014 0.36305,-5.01604 1.37415,-5.47024 11.19273,-5.02791 l 6.5,0.29283 0.3075,4.2402 0.3075,4.2402 h -4.51998 -4.51997 l -0.28752,9.25 -0.28753,9.25 -13.25,0.27903 -13.25,0.27902 z m 64,-0.0704 v -4.51607 h 4.5 4.5 v -5 -5 h -8.9425 -8.9425 l -0.3075,-4.25 c -0.30601,-4.22934 -0.32816,-4.25149 -4.5575,-4.5575 -3.38233,-0.24472 -4.27552,-0.70407 -4.375,-2.25 -0.0687,-1.06837 -0.18125,-2.955 -0.25,-4.1925 -0.10853,-1.95349 -0.75096,-2.29017 -4.875,-2.55479 l -4.75,-0.30479 v -4.44521 -4.44521 h -4.4425 -4.4425 l -0.3075,4.25 c -0.30601,4.22934 -0.32816,4.25149 -4.5575,4.5575 l -4.25,0.3075 v -9.0575 -9.0575 h 9 9 v -9.5 -9.5 h -4.5 -4.5 v -4.5 -4.5 h -4.5 -4.5 v -4.5 -4.5 h -4.44521 -4.44521 l -0.30479,-4.75 c -0.32507,-5.06607 0.11817,-4.74062 -7.01586,-5.15146 -1.45329,-0.0837 -1.75459,-1.41674 -2,-8.84854 l -0.28893,-8.75005 -4.75,-0.30479 -4.75,-0.30479 v -17.94521 -17.94521 h 4.5 4.5 v 4.5 4.5 h 8.97744 8.97744 l 0.27256,18.25 0.27256,18.25 4.75,0.30479 4.75,0.30479 v -9.55479 -9.55479 h 4.5 4.5 v -9 -9 h -9 -9 v -18.5 -18.5 h -9 -9 v -13.4611 -13.46106 l 8.75,-0.28894 8.75,-0.28893 0.30703,-4.80471 0.30702,-4.80471 4.19298,0.30471 4.19297,0.30471 0.27822,13.75 0.27822,13.75 h 8.97178 8.97178 v 13.5 13.5 h -4.5 -4.5 v -9 -9 h -4.5 -4.5 v 14 14 h 13.5 13.5 v 9 9 h -4.5 -4.5 v 4.5 4.5 h 8.94521 8.94521 l 0.30479,4.75 0.30479,4.75 9.27876,0.28791 9.27876,0.2879 -0.27876,13.2121 -0.27876,13.21209 h -4 -4 l -0.5,-4.5 -0.5,-4.5 h -4.5 -4.5 l -0.30479,4.75 -0.30479,4.75 h -8.44521 c -6.03192,0 -8.47606,-0.3572 -8.55317,-1.25 -0.0594,-0.6875 -0.11364,-2.6 -0.12056,-4.25 -0.007,-1.65 -0.52085,-3.33061 -1.14204,-3.73469 -0.62119,-0.40408 -4.84194,-0.74158 -9.37944,-0.75 l -8.25,-0.0153 v 5 5 h 4.5 4.5 v 4.5 4.5 h 14 14 v -4.5 -4.5 h 4.5 4.5 v 4.5 4.5 h 4.5 4.5 v -4.5 -4.5 h 4.5 4.5 v 4.5 4.5 h 9.5 9.5 v -4.5 -4.5 h 4.51405 4.51404 l -0.26404,31.75 -0.26405,31.75 -4.5,0.5 c -4.47804,0.49756 -4.50149,0.52047 -4.80482,4.69518 -0.30195,4.15577 -0.34423,4.19805 -4.5,4.5 l -4.19518,0.30482 v 4.5 4.5 l 9.30563,0.28826 9.30563,0.28826 -0.30563,4.21174 -0.30563,4.21174 -27.25,0.26607 -27.25,0.26607 v -4.51607 z m 27.5,-9.51612 v -4.5 l -4.75,-0.30479 -4.75,-0.30479 v 5.10958 5.10958 l 4.75,-0.30479 4.75,-0.30479 z m -0.58245,-14.58421 c 0.26949,-0.2695 0.51187,-2.1608 0.53862,-4.20289 0.0486,-3.71182 0.05,-3.71299 4.79623,-4.01769 l 4.7476,-0.30479 v -8.83822 c 0,-6.16113 -0.37862,-8.97611 -1.25,-9.29344 -2.02942,-0.73905 -13.66714,-0.91983 -15.79235,-0.24532 -1.81393,0.57572 -1.95765,1.59525 -1.95765,13.88728 0,7.29627 0.23668,13.50262 0.52595,13.7919 0.60756,0.60755 7.66008,-0.0453 8.3916,-0.77683 z m -17.91755,-31.41579 v -14 h -14 -14 v 14 14 h 14 14 z m -16.25,4.28695 c -1.29594,-0.32109 -1.75,-1.45243 -1.75,-4.36027 0,-3.92373 0.003,-3.92668 4.0575,-3.92668 h 4.0575 l -0.3075,4.15556 c -0.31762,4.29228 -1.67414,5.21747 -6.0575,4.13139 z m 53.05479,-13.53695 0.30479,-4.75 h -14.05479 -14.05479 v 5.02822 5.02822 l 13.75,-0.27822 13.75,-0.27822 z m -55.30479,-45.75 v -4.5 l -9.25,-0.28753 -9.25,-0.28752 v 5.07505 5.07505 l 9.25,-0.28752 9.25,-0.28753 z M 34.56413,291.28912 c -0.29875,-0.77854 -0.39713,-2.69104 -0.21861,-4.25 0.293,-2.55874 0.73799,-2.86438 4.57457,-3.14197 l 4.25,-0.3075 v -4.385 -4.385 l -4.25,-0.3075 -4.25,-0.3075 v -18 -18 l 8.69365,-0.28811 8.69366,-0.28811 0.30634,4.78811 0.30635,4.78811 9.25,0.28753 9.25,0.28752 v -5.03752 -5.03753 h -9 -9 v -4.5 -4.5 h 9 9 v -4.5 -4.5 h -14 -14 v 4.5 4.5 h -4.5 -4.5 v -9 -9 h 18.5 18.5 v 4.5 4.5 h 9 9 v -4.5 -4.5 h 4.5 4.5 v 4.5 4.5 h -4.5 -4.5 v 4.5 4.5 h 5 5 v -4.5 -4.5 h 4 4 v 4.5 4.5 h 5 5 v -4.5 -4.5 h -4.5 -4.5 v -4.5 -4.5 h 4.5 4.5 v 4.5 4.5 h 4.5 4.5 v 4.5 4.5 h -4.5 -4.5 v 9 9 h -4.5 -4.5 v -4.5 -4.5 h -14 -14 v 5 5 h 9 9 v 4 4 h -9 -9 v 5 5 h 9 9 v 4.5 4.5 h -4.5 -4.5 v 4.5 4.5 h 9 9 v 4.53893 4.53894 l -8.75,-0.28894 -8.75,-0.28893 -0.3075,-4.25 -0.3075,-4.25 h -4.4425 -4.4425 v 4.5 4.5 h -4.5 -4.5 v -4.5 -4.5 h -9.5 -9.5 v 4.5 4.5 H 43.6387 c -6.43468,0 -8.66487,-0.34788 -9.07457,-1.41553 z m 36.60596,-26.13926 v -9.55479 l -4.75,0.30479 -4.75,0.30479 -0.3075,4.25 -0.3075,4.25 h -7.36071 c -9.94931,0 -10.52429,0.30633 -10.52429,5.60699 v 4.39301 h 14 14 z m 165.84778,7.30479 c -0.45425,-6.71466 -1.0592,-6.22453 8.07602,-6.5431 5.00969,-0.1747 8.66198,0.12287 9.04131,0.73664 0.35002,0.56636 0.45183,2.61075 0.22624,4.5431 l -0.41016,3.51336 h -8.3906 c -7.98959,0 -8.39786,-0.10753 -8.54281,-2.25 z m 19.40222,-7.41256 c -0.73296,-0.29559 -1.25,-2.31546 -1.25,-4.88325 v -4.37914 l -9.21447,-0.28752 -9.21446,-0.28753 -0.0355,-4 -0.0355,-4 -4.75,-0.30479 -4.75,-0.30479 v -4.44521 -4.44521 h 8.94521 8.94521 l 0.30479,4.75 0.30479,4.75 9.25,0.28753 c 9.05505,0.28146 9.24997,0.23931 9.24852,-2 l -10e-4,-2.28753 38.12442,0.87145 c 41.96694,0.9593 45.87799,0.62884 45.87799,-3.87641 0,-1.37375 -0.83835,-2.87335 -1.93426,-3.45986 -2.64413,-1.41509 -77.48735,-1.41509 -80.13148,0 -1.80867,0.96798 -1.93436,0.65957 -1.93577,-4.75 l -0.002,-5.78518 39.48953,0.87286 c 35.89251,0.79335 39.71836,0.72293 42.00151,-0.77306 2.80729,-1.8394 3.26609,-4.72906 1.04369,-6.57348 -1.12043,-0.92988 -12.13686,-1.13657 -46.50024,-0.87245 l -45.03146,0.34613 2.4e-4,-4.25 2.4e-4,-4.25 h 4.5 c 2.475,0 4.49979,-0.3375 4.49953,-0.75 -2.6e-4,-0.4125 17.88724,-0.61968 39.75,-0.4604 21.86277,0.15928 40.76297,0.0382 42.00047,-0.26905 2.49767,-0.62015 3.10352,-4.26704 1.05,-6.32055 -1.72365,-1.72365 -79.87635,-1.72365 -81.6,0 -0.93333,0.93333 -1.2,0.82222 -1.2,-0.5 0,-1.56458 -2.54902,-1.7 -32,-1.7 h -32 v -32.01408 -32.01404 l 31.75,0.26404 31.75,0.26405 0.27361,17.25 c 0.26049,16.42234 0.36845,17.25 2.25,17.25 1.83676,0 1.97639,-0.70649 1.97639,-10 0,-6.3154 0.38676,-10 1.04966,-10 0.57731,0 2.42902,0.71329 4.1149,1.5851 2.20376,1.1396 3.37021,1.28013 4.15034,0.5 1.65823,-1.65823 4.18236,-1.2981 6.15139,0.87765 1.97034,2.1772 1.43951,5.03725 -0.93491,5.03725 -2.4914,0 -2.06539,6.62709 0.46862,7.28975 1.1966,0.31292 2,1.36401 2,2.61663 0,2.08192 0.18176,2.09362 32.53212,2.09362 36.4018,0 38.32695,0.28838 40.33256,6.04165 0.75938,2.17838 1.13532,14.3108 1.13532,36.63969 0,36.48702 -0.38541,39.3741 -5.51672,41.32502 -1.58555,0.60282 -19.69728,0.99364 -46.04838,0.99364 h -43.4349 v 4 c 0,3.27648 -0.34696,4 -1.91821,4 -1.05502,0 -2.51752,0.18935 -3.25,0.42077 -0.73249,0.23143 -1.89429,0.19393 -2.58179,-0.0833 z m 89.52749,-72.89414 c 2.44526,-1.71272 2.88261,-4.3832 1.02251,-6.2433 -1.41906,-1.41906 -79.41453,-1.73071 -81.63008,-0.32618 -0.75546,0.47892 -1.18747,2.09236 -1,3.73469 l 0.33008,2.89149 20.5,0.53136 c 46.12933,1.19567 58.40037,1.07694 60.77749,-0.58806 z m -90.77749,-23.46176 v -23.01843 l -23.25,0.26843 -23.25,0.26843 -0.29685,20.49527 c -0.16327,11.2724 -0.0422,21.5099 0.26905,22.75 l 0.5659,2.25473 h 22.98095 22.98095 z m -37,0.51843 v -13.5 h 13.5 13.5 v 13.5 13.5 h -13.5 -13.5 z m -9,59.5 v -9 h 4.5 4.5 v -4.5 -4.5 h 13.5 13.5 v 4.5 4.5 h -13.5 -13.5 v 9 9 h -4.5 -4.5 z m 37,-4.5 v -4.5 h 4 c 3.99073,0 4.25,0.27452 4.25,4.5 0,4.22548 -0.25927,4.5 -4.25,4.5 h -4 z m -129,-18.5 v -4 h 4.5 4.5 v 4 4 h -4.5 -4.5 z m 28,-5 v -9 h 4 4 v 9 9 h -4 -4 z m -110.76405,-31.75 0.26405,-31.75 31.75,-0.26405 31.75,-0.26404 v 32.01404 32.01405 H 66.15604 34.142 Z m 54.76405,-0.25 v -23 h -23 -23 v 23 23 h 23 23 z m -36,0.5 v -13.5 h 13.5 13.5 v 13.5 13.5 h -13.5 -13.5 z m 55,27 v -4.5 h 4.5 4.5 v -4.5 -4.5 h -4.5 -4.5 v -13.5 -13.5 h 4.5 4.5 v 4.5 4.5 h 4.5 4.5 v 13.5 13.5 h 4.5 4.5 v 4.5 4.5 h -4.5 -4.5 v -4.5 -4.5 h -4.5 -4.5 v 4.5 4.5 h -4.5 -4.5 z M 329.0944,160.12406 c -3.26615,-3.47668 -3.52837,-12.77314 -0.42431,-15.04348 3.36117,-2.45839 6.64638,-2.86577 7.71478,-0.95668 0.61179,1.09324 1.90607,1.59085 3.61883,1.39133 2.56385,-0.29866 2.67816,-0.10459 2.97235,5.04585 0.42154,7.38034 -2.66079,12.12673 -7.88165,12.13671 -2.5566,0.005 -4.26662,-0.72864 -6,-2.57373 z m -202.92431,-9.91944 v -4.5 h -9.0575 -9.0575 l 0.3075,-4.25 0.30751,-4.25 8.75,-0.28893 8.74999,-0.28894 v 4.53894 4.53893 h 4.4425 4.4425 l 0.3075,-4.25 c 0.30601,-4.22934 0.32816,-4.25149 4.5575,-4.5575 l 4.25,-0.3075 v 9.0575 9.0575 h -9 -9 z m 55,-4.5575 v -9.0575 l 4.25,0.3075 4.25,0.3075 0.28893,8.75 0.28894,8.75 h -4.53894 -4.53893 z m 90.60828,-0.0833 -3.89171,-2.0524 0.58587,-8.30187 c 0.86682,-12.2829 4.04686,-18.20911 13.12145,-24.45258 6.90845,-4.75314 14.14903,-6.32325 26.94076,-5.84206 9.63958,0.36261 11.90113,0.7922 16.83628,3.19812 10.58215,5.15888 17.79907,15.74665 17.79907,26.11258 0,4.38179 -3.79263,6.24193 -6.73251,3.30205 -1.9069,-1.90689 -2.16803,-1.92584 -5.16731,-0.37485 -4.08764,2.1138 -5.09935,1.36904 -5.10392,-3.75721 -0.009,-9.72726 -6.97923,-14.63254 -20.84513,-14.66902 -9.63184,-0.0253 -13.96485,1.55619 -17.70758,6.46316 -2.20149,2.88631 -2.44355,4.16015 -2.44355,12.85927 0,5.31059 -0.23111,9.65561 -0.51357,9.65561 -0.28246,0 -1.40746,-0.55825 -2.5,-1.24055 -1.58107,-0.98739 -2.39179,-0.98739 -3.97286,0 -2.38396,1.48881 -1.69037,1.58629 -6.40529,-0.90024 z"
         id="path1599" />
    </g>
  </g>
</svg>
