<?xml version="1.0" encoding="UTF-8" standalone="no"?>
<!-- Created with Inkscape (http://www.inkscape.org/) -->

<svg
   version="1.1"
   id="svg896"
   width="512"
   height="512"
   viewBox="0 0 512.00001 512"
   sodipodi:docname="rbcd.svg"
   inkscape:version="1.2.2 (b0a8486541, 2022-12-01)"
   xmlns:inkscape="http://www.inkscape.org/namespaces/inkscape"
   xmlns:sodipodi="http://sodipodi.sourceforge.net/DTD/sodipodi-0.dtd"
   xmlns="http://www.w3.org/2000/svg"
   xmlns:svg="http://www.w3.org/2000/svg">
  <defs
     id="defs900" />
  <sodipodi:namedview
     id="namedview898"
     pagecolor="#505050"
     bordercolor="#eeeeee"
     borderopacity="1"
     inkscape:pageshadow="0"
     inkscape:pageopacity="0"
     inkscape:pagecheckerboard="0"
     showgrid="false"
     inkscape:zoom="0.86772068"
     inkscape:cx="236.82736"
     inkscape:cy="253.53781"
     inkscape:window-width="1366"
     inkscape:window-height="705"
     inkscape:window-x="0"
     inkscape:window-y="26"
     inkscape:window-maximized="1"
     inkscape:current-layer="g902"
     showguides="true"
     inkscape:guide-bbox="true"
     inkscape:showpageshadow="0"
     inkscape:deskcolor="#505050" />
  <g
     inkscape:groupmode="layer"
     inkscape:label="Image"
     id="g902">
    <g
       id="g992"
       transform="matrix(0.98033716,0,0,0.96019882,4.4143406,10.178464)">
      <path
         id="path1004-2"
         style="fill:#00ff00;fill-opacity:1;stroke-width:2.2168"
         d="m 289.36133,32.453125 c -5.06945,0.227655 -9.57154,3.836135 -11.52131,8.425826 -5.14376,9.893481 -8.83724,20.438136 -13.15277,30.698355 -2.31595,5.58496 -4.6802,11.007522 -7.57969,16.296329 -0.52854,0.896567 -1.0678,2.028875 -1.631,2.757224 -3.17055,-4.865175 -5.79397,-10.182037 -8.19531,-15.386718 -4.98514,-10.898376 -9.06752,-22.3766 -14.80499,-32.989855 -1.58281,-2.94402 -3.78143,-5.761642 -6.94188,-7.094849 -4.50444,-2.092169 -10.20214,-1.132549 -13.76089,2.336485 -2.28389,2.060786 -3.56251,4.916108 -4.68866,7.715364 -2.73218,6.743094 -4.80388,13.730145 -6.87125,20.699152 -3.12821,10.800341 -6.0399,21.68133 -8.14522,32.73214 -1.70049,8.867042 -1.66825,17.991492 -0.69993,26.942072 0.27911,2.21549 0.72176,4.40588 1.04759,6.61457 -1.79244,3.82539 -1.7212,8.14857 -1.89805,12.27682 -0.14993,7.92538 0.29607,15.85161 0.94687,23.74662 0.7223,7.06595 2.42663,14.10077 5.70882,20.43444 1.00767,2.11202 2.06963,4.37601 2.94548,6.43665 0.19363,0.65981 0.70013,1.29801 0.68218,1.97729 -1.86655,7.45047 -3.58935,14.93752 -5.5728,22.35865 -0.39017,1.41041 -0.82598,3.02739 -1.25196,4.51367 -1.57939,-1.40549 -3.21764,-2.74415 -4.89453,-4.03125 0.41341,-4.5948 -1.7996,-9.26889 -5.54112,-11.9477 -0.72256,-0.5556 -1.49802,-1.04088 -2.30263,-1.46832 0.4966,-3.5411 0.43828,-7.40809 -1.55913,-10.5138 -2.50453,-4.15775 -7.47685,-6.64403 -12.30795,-6.13849 -3.80403,0.24455 -7.27759,1.95533 -10.72276,3.43354 -0.52214,0.21557 -1.35803,0.56022 -2.00617,0.81887 -2.00458,0.80877 -4.04191,1.53731 -6.11102,2.16356 0.30808,-8.34766 -0.71125,-16.73015 -2.93406,-24.77964 -2.36542,-9.48193 -4.66559,-18.96706 -7.00149,-28.45865 -8.03327,10.04938 -15.79329,20.3137 -23.82212,30.36628 -5.54845,6.73024 -12.07289,12.80917 -19.764654,17.01016 -3.228438,1.77594 -6.769257,2.91791 -9.908677,4.86695 -5.944831,3.45865 -11.058499,8.25231 -15.123687,13.78396 -4.004761,1.71259 -6.690092,5.30312 -9.51367,8.45427 -5.808076,6.83704 -11.206903,14.01882 -16.282493,21.41311 -3.521597,5.35797 -6.235423,11.36205 -7.087054,17.75999 -1.024245,6.58291 -1.324336,13.25162 -2.268682,19.84556 -0.467578,3.38918 -0.896838,6.84236 -2.149827,10.04693 -1.571776,3.41887 -4.390235,6.02928 -6.342624,9.21226 -1.825741,2.57963 -3.275436,5.42751 -4.2477,8.43115 -2.451068,4.62875 -5.714181,8.75558 -8.416701,13.2322 -5.1869454,8.25711 -10.2776581,16.70839 -13.42878638,25.98608 -1.42146052,4.21623 -1.77418212,8.93281 -0.16639767,13.15119 1.86217725,5.01721 5.18479465,9.34496 8.79651365,13.23288 2.9880424,3.16219 6.4427404,6.03988 10.5488284,7.60743 3.364469,4.21421 9.012297,6.20968 14.30783,5.65274 6.056111,-0.4586 11.638198,-3.19664 16.812914,-6.19701 5.701904,-3.4128 11.075832,-7.3768 17.024501,-10.37084 9.35539,-4.97834 19.449167,-8.83907 30.005145,-10.20013 6.485921,-0.77908 13.330611,-0.56093 19.369141,2.16406 3.71239,1.71873 6.87912,4.58369 8.88497,8.15666 2.05558,3.36445 3.93645,6.99324 4.4532,10.95036 0.33209,2.59234 -0.15762,5.22678 -1.1833,7.61471 -1.23753,3.59207 -2.93073,7.06643 -3.59432,10.82905 -0.62925,5.26496 2.86297,10.57199 7.81201,12.34467 2.06806,0.82458 4.33036,1.09477 6.54346,0.95221 0.59693,0.51834 1.39374,0.83528 1.97837,1.30851 1.30502,3.60112 2.76826,7.14476 4.50771,10.55932 2.64157,5.38818 5.65559,10.64757 9.4897,15.28155 3.24928,3.48005 8.52725,4.94184 13.07109,3.55179 2.73682,2.59505 5.77138,5.1749 9.50195,6.13867 1.28202,0.36355 2.67846,0.37395 3.896,0.91654 6.0924,3.57341 11.64715,8.00004 17.86622,11.36786 12.6083,7.34277 25.94067,13.62157 40.03409,17.52158 3.60231,0.86191 7.51881,0.96248 10.98885,-0.48176 2.65788,3.08361 6.93574,4.54404 10.93967,3.96905 5.43017,-0.50752 10.58595,-2.44306 15.6653,-4.31571 11.59577,-4.45879 22.79062,-9.93409 33.55542,-16.12666 4.38728,-2.53983 8.59118,-5.38108 12.65016,-8.41535 0.47208,-0.35898 0.92367,-0.76666 1.55931,-0.6588 4.65312,-0.30989 8.67364,-3.02975 12.17507,-5.89837 1.75921,-1.43362 3.42133,-2.9832 5.02343,-4.58931 4.98548,1.33969 10.654,-0.63253 13.73046,-4.78074 3.12634,-3.76902 5.37028,-8.1623 7.59799,-12.49495 1.4585,-2.98473 2.76104,-6.04468 3.92936,-9.154 1.51304,-0.6687 2.91792,-1.59978 4.07227,-2.78906 4.07195,0.31187 8.36279,-1.19737 10.9721,-4.42046 2.79851,-3.29157 3.56161,-8.1751 1.80155,-12.13662 -0.97727,-2.90407 -3.50689,-5.0732 -4.08029,-8.13433 -0.97933,-5.01321 0.39973,-10.15929 2.45908,-14.72397 1.98871,-4.20029 4.90637,-8.12528 8.90615,-10.59048 4.00761,-2.16994 8.66392,-2.60806 13.13942,-2.7984 9.4161,-0.258 18.87139,1.5737 27.55589,5.20465 0.77093,0.34103 1.79587,0.79518 2.65506,1.20901 1.80574,0.86558 3.6704,1.82509 5.33787,2.73535 1.18282,0.6367 2.23533,1.24161 3.42895,1.91501 3.35337,1.92197 6.84731,3.97094 10.07037,6.23344 3.41436,2.43009 6.79053,4.97442 10.62557,6.71993 4.84081,2.24717 10.34358,3.69969 15.67535,2.59236 3.81308,-0.74399 7.38533,-2.8725 9.66972,-6.03987 4.88104,-1.11613 8.90011,-4.46766 11.98809,-8.28102 2.93532,-3.54035 5.50381,-7.36365 8.3185,-10.9983 1.21426,-1.62952 2.42745,-3.25983 3.64263,-4.88865 -4.96645,-10.56955 -9.15928,-21.67803 -15.88801,-31.34802 -1.31143,-2.11292 -3.42075,-4.1002 -3.50304,-6.78384 -0.61092,-4.85704 -3.65965,-9.38337 -8.02301,-11.64158 -1.24721,-3.90791 -2.89364,-7.86113 -5.94668,-10.71805 -0.54632,-0.58409 -1.28939,-1.00379 -1.82676,-1.55734 -1.2264,-3.56519 -1.89697,-7.28518 -2.60742,-10.97851 -0.0811,-0.49895 -0.22804,-1.28405 -0.31907,-1.84583 -1.36564,-8.11856 -2.052,-16.34499 -3.69194,-24.41759 -1.15256,-5.36865 -3.35758,-10.50203 -6.49348,-15.01223 -3.31771,-4.88835 -7.07142,-9.4615 -10.75659,-14.07326 -3.2933,-4.00929 -6.67721,-7.99235 -10.6299,-11.37213 -0.87457,-0.75833 -1.91849,-1.32294 -2.87642,-1.92725 -1.80926,-2.86174 -4.03818,-5.4366 -6.55937,-7.69239 -4.10432,-3.81427 -8.94193,-6.70892 -13.83256,-9.38841 -9.09086,-5.35404 -17.94361,-11.41862 -24.99609,-19.34697 -3.82334,-4.54091 -7.56712,-9.57265 -12.97616,-12.40046 -4.58963,-2.38175 -10.62777,-1.95241 -14.57979,1.48871 -2.95808,2.48971 -4.27136,6.36154 -4.6902,10.09851 -1.11961,7.61512 -1.4235,15.3173 -1.75077,22.99867 -4.93623,-1.13004 -9.73576,-2.95462 -14.03039,-5.65878 -8.1676,-4.58771 -16.33529,-9.17526 -24.50282,-13.76309 1.53239,9.99894 3.19583,19.98526 4.7754,29.95508 -3.62554,1.85027 -6.72619,5.1869 -7.36666,9.31617 -0.20526,1.20534 -0.20829,2.44429 -0.0259,3.65258 -1.18194,0.90575 -2.3282,1.85761 -3.44532,2.84179 -2.09242,-8.34561 -4.11695,-16.72272 -6.77929,-24.9082 2.36691,-7.5293 5.85814,-14.59091 8.69792,-21.93638 1.67489,-4.32902 3.15893,-9.05101 2.18294,-13.72573 -0.20883,-1.21637 -0.95101,-2.30704 -0.84699,-3.57684 -0.56497,-8.1404 -0.44881,-16.2962 -0.44277,-24.48251 0.0605,-10.57563 0.0687,-21.16042 -0.60781,-31.71902 -0.31689,-5.911552 -0.955,-11.837223 -2.54892,-17.555192 -2.03999,-7.855421 -4.49769,-15.59518 -7.02696,-23.304957 -2.43915,-7.292317 -5.00276,-14.559276 -8.13076,-21.588444 -1.49047,-3.213891 -3.74332,-6.296503 -7.07469,-7.760795 -1.79101,-0.855182 -3.78367,-1.301302 -5.77032,-1.240757 z m -75.5,156.767575 c 0.40069,0.4331 1.09788,1.18047 0.39845,1.66635 -0.56079,0.53608 -0.91058,1.41525 -1.78411,1.44281 -0.89368,0.004 -1.60412,-1.02335 -1.5156,-1.88996 0.0465,-1.24184 1.61337,-1.98575 2.63942,-1.33249 0.0873,0.0378 0.17456,0.0755 0.26184,0.11329 z" />
      <path
         style="fill:#000000;fill-opacity:1;stroke-width:2.2168"
         d="m 269.51047,453.31647 c 20.79603,-28.79288 32.98803,-54.1122 43.77234,-90.90269 2.1034,-7.17571 5.07278,-14.72545 6.5986,-16.77722 6.35738,-8.54865 8.01821,-35.04307 3.57256,-56.99111 -0.92693,-4.57626 -0.31067,-6.24929 2.69071,-7.30469 3.74143,-1.31565 3.66888,-1.81546 -1.86334,-12.8381 -5.332,-10.62366 -5.52992,-11.80561 -2.68467,-16.03322 4.27099,-6.34607 3.86066,-8.0152 -1.97041,-8.0152 -4.95672,0 -4.91898,-0.13149 2.22891,-7.76993 3.99907,-4.27345 9.27891,-8.44756 11.73301,-9.27581 5.2673,-1.77768 5.8435,-5.27406 1.11655,-6.77527 -2.47628,-0.78644 -1.95338,-1.58454 2.01251,-3.07181 4.73755,-1.77665 5.21554,-2.88136 4.12786,-9.54039 l -1.23012,-7.53109 6.72776,3.77995 c 3.70027,2.07897 11.41871,4.56805 17.1521,5.53129 l 10.42433,1.75136 0.7612,-18.11442 c 0.41865,-9.96294 1.39666,-18.96895 2.17335,-20.01335 0.7767,-1.0444 4.62233,2.20766 8.54592,7.22681 7.09081,9.07082 18.71004,18.08839 34.51423,26.78615 4.54497,2.5013 9.80738,7.18694 11.69426,10.41254 1.8869,3.2256 3.89005,5.24706 4.45145,4.49215 0.56142,-0.75491 6.31594,5.35739 12.78784,13.5829 11.48983,14.60307 11.82528,15.41165 14.2356,34.31558 2.56224,20.09549 5.64921,30.76682 8.90009,30.76682 1.04047,0 2.70944,2.89194 3.70882,6.42654 0.99937,3.53459 3.12875,6.42652 4.7319,6.42652 1.60317,0 2.91486,1.7904 2.91486,3.97868 0,2.18825 1.98523,6.52616 4.41163,9.63979 2.42639,3.11361 6.36619,9.9957 8.75514,15.29352 l 4.34352,9.63245 -5.87378,7.89832 c -4.20961,5.66057 -6.96094,7.43435 -9.71098,6.26068 -2.72773,-1.16415 -3.83723,-0.47267 -3.83723,2.39147 0,6.05024 -8.55126,5.02046 -17.82064,-2.14601 -4.39295,-3.39636 -14.43913,-9.34278 -22.32486,-13.21422 -18.87638,-9.26731 -44.61388,-10.39087 -56.36963,-2.46083 -13.94317,9.40558 -20.57871,31.60139 -12.92916,43.24781 3.27204,4.98167 3.2047,5.05683 -3.06919,3.4257 -5.12627,-1.33276 -6.20174,-0.92157 -5.35452,2.04723 0.66905,2.34454 0.13893,3.23967 -1.43681,2.42655 -1.45273,-0.7496 -3.45058,1.72395 -4.77727,5.91479 -1.25419,3.96176 -4.38378,10.67357 -6.95464,14.91508 -3.54714,5.85217 -4.67661,6.62703 -4.68382,3.21325 -0.0129,-6.08464 -0.57434,-5.84704 -10.66985,4.51517 -4.82995,4.95755 -9.59715,8.33607 -10.59375,7.50785 -0.99663,-0.82825 -5.00685,1.0288 -8.91166,4.1268 -12.10338,9.6026 -45.90238,25.36585 -54.84464,25.57858 -1.01853,0.0232 2.95226,-6.60741 8.82392,-14.73697 z M 478.2633,358.73561 c -0.62261,-2.18173 -1.54203,-3.41547 -2.04312,-2.74163 -0.50111,0.67382 -0.34406,2.45888 0.34898,3.96677 1.88502,4.10131 2.98678,3.30456 1.69414,-1.22514 z m -83.71549,-39.16699 c -1.03541,-1.39231 -6.79366,5.9354 -6.79366,8.64534 0,1.02702 1.72579,-0.2329 3.83509,-2.79969 2.10931,-2.56686 3.44066,-5.19739 2.95857,-5.84565 z m -4.63813,-2.49457 c 2.3779,-4.07715 2.31028,-4.16807 -0.72176,-0.97057 -3.1844,3.35818 -4.19708,5.46914 -2.62368,5.46914 0.39696,0 1.90241,-2.02436 3.34544,-4.49857 z m -0.24385,-6.67077 c 0,-0.4878 -1.93557,-3.09053 -4.30129,-5.78388 l -4.30131,-4.89698 3.64176,5.78388 c 3.42235,5.4354 4.96084,6.95412 4.96084,4.89698 z m 55.4233,-42.1183 c -4.52183,-6.74463 -8.90256,-13.29955 -9.73495,-14.56649 -0.83236,-1.26696 -0.25414,3.32276 1.28493,10.19936 1.53905,6.87659 3.42827,13.30992 4.19825,14.29627 1.47831,1.89371 10.42638,4.20507 11.71585,3.02629 0.4166,-0.38083 -2.94224,-6.21076 -7.46408,-12.95543 z m 13.39757,-0.34855 c 0,-6.8028 -7.68042,-19.32391 -9.96713,-16.24905 -3.06291,4.11865 3.36737,18.24112 9.48922,20.84066 0.26285,0.11163 0.47791,-1.9546 0.47791,-4.59161 z m -71.21048,0.45196 c -1.84,-0.64659 -4.85091,-0.64659 -6.69091,0 -1.83999,0.64657 -0.33455,1.17561 3.34546,1.17561 3.68001,0 5.18547,-0.52904 3.34545,-1.17561 z m -2.86753,-26.08768 c -1.84,-2.59828 -4.3702,-6.93618 -5.62264,-9.6398 -1.25247,-2.70362 -2.32779,-3.62568 -2.38962,-2.04905 -0.14544,3.70825 7.27381,16.413 9.58478,16.413 0.97512,0 0.26749,-2.12588 -1.57252,-4.72415 z m -7.68762,-26.56374 c -1.21997,-1.64048 -1.87083,-0.0766 -1.87083,4.49524 0,5.9204 0.291,6.31169 1.87083,2.51566 1.21997,-2.93137 1.21997,-5.37042 0,-7.0109 z M 233.86304,461.71828 c -11.72897,-4.25824 -27.15736,-12.34469 -37.85036,-19.83843 -4.41663,-3.0952 -8.89049,-5.80529 -9.94193,-6.02244 -1.05143,-0.2172 -2.95708,-0.57098 -4.23478,-0.78634 -1.2777,-0.21543 -5.36394,-3.98169 -9.08052,-8.36965 -6.69133,-7.90008 -6.75754,-7.91896 -6.76695,-1.92796 -0.01,5.92001 -0.11412,5.88428 -4.8765,-1.66167 -2.67684,-4.24151 -6.13965,-11.51799 -7.69512,-16.16995 -1.55547,-4.65199 -3.66235,-7.76486 -4.68196,-6.9175 -1.01962,0.84738 -1.85383,0.1901 -1.85383,-1.46033 0,-1.94761 -1.74329,-2.41265 -4.96633,-1.3249 -2.73149,0.92184 -4.63947,0.75808 -4.23998,-0.36397 0.39951,-1.12206 1.88328,-5.13593 3.29727,-8.91973 3.30206,-8.83616 1.58596,-17.7704 -5.49694,-28.61792 -14.16821,-21.69869 -50.263266,-19.58956 -86.695833,5.06586 -12.173611,8.2384 -20.42304,9.59061 -20.42304,3.34773 0,-1.2742 -1.169941,-1.71303 -2.599866,-0.97519 -3.241707,1.67273 -14.605353,-10.86595 -14.605353,-16.11557 0,-5.31172 6.91601,-18.73438 18.027729,-34.98841 2.701908,-3.95232 4.912563,-8.00481 4.912563,-9.0055 0,-1.00071 2.514758,-5.01109 5.588356,-8.91201 5.637404,-7.15475 6.538184,-10.64495 8.780353,-34.02055 1.106984,-11.54069 2.49751,-14.52166 13.618562,-29.19492 6.812134,-8.98801 12.80325,-15.78034 13.313599,-15.0941 0.510335,0.68626 3.326286,-1.97735 6.257667,-5.91911 2.931369,-3.94174 9.129663,-8.65317 13.773969,-10.46981 10.526424,-4.11746 21.643194,-13.06189 30.697634,-24.69899 l 6.95989,-8.94508 2.34774,9.56571 c 1.31089,5.34109 1.85298,14.41963 1.22745,20.55631 l -1.12028,10.99061 8.06203,-1.24068 c 4.43412,-0.68237 11.87139,-2.88077 16.52727,-4.88531 10.86328,-4.6771 10.36078,-4.90214 9.03016,4.04424 -0.62898,4.22889 -0.52145,7.56223 0.23895,7.40742 4.0215,-0.8187 8.07348,0.63577 8.07348,2.89798 0,1.41384 -1.50545,2.59602 -3.34545,2.62706 -1.84,0.0311 0.0956,2.27971 4.3013,4.99704 7.64802,4.9414 16.24937,13.71039 16.24937,16.5661 0,0.83376 -2.28398,1.51592 -5.07551,1.51592 -4.79598,0 -4.90126,0.25891 -1.91168,4.701 4.16572,6.18967 4.02691,7.82128 -1.61542,18.98673 -5.72802,11.33504 -5.8214,12.30086 -1.18927,12.30086 3.41527,0 3.46175,0.82236 0.95528,16.90113 -1.44905,9.29562 -2.13435,19.99579 -1.52286,23.77815 1.79203,11.08469 5.05077,22.10394 7.35524,24.87132 1.17734,1.41382 4.50146,10.75106 7.38691,20.74941 7.51251,26.03138 22.05393,56.48054 37.80182,79.15542 14.61025,21.03688 14.40216,22.1361 -2.99483,15.82002 z M 35.033626,357.5906 c 0.669741,-1.45717 -0.09764,-1.88811 -1.798878,-1.01027 -3.311847,1.70892 -3.917786,3.55146 -1.167947,3.55146 0.989372,0 2.324439,-1.14354 2.966825,-2.54119 z m 34.734197,-31.51942 c -0.530322,-1.76727 -0.964223,-0.32131 -0.964223,3.21328 0,3.53458 0.433901,4.98053 0.964223,3.21327 0.530322,-1.7673 0.530322,-4.65925 0,-6.42655 z m 50.891887,-4.37091 c -2.17727,-2.7276 -4.4438,-4.30694 -5.03674,-3.50966 -0.59291,0.79732 0.82096,3.51999 3.14196,6.05047 5.49033,5.98577 7.0411,3.90626 1.89478,-2.54081 z m 3.28109,-3.66883 c 0,-0.53377 -1.50547,-2.55813 -3.34546,-4.49856 -3.03205,-3.1975 -3.09967,-3.10658 -0.72177,0.97055 2.49737,4.282 4.06723,5.64374 4.06723,3.52801 z m 2.15553,-13.81045 c 2.3779,-4.07715 2.31028,-4.16807 -0.72177,-0.97055 -1.83999,1.94041 -3.34546,3.96477 -3.34546,4.49856 0,2.11572 1.56985,0.75399 4.06723,-3.52801 z M 67.373975,278.15621 c 2.966724,-1.56422 9.884126,-22.78434 8.176035,-25.08116 -0.237791,-0.31976 -4.555512,5.7072 -9.594964,13.3932 -9.108328,13.89178 -8.726473,17.0372 1.418929,11.68796 z m -7.583243,-13.70904 c 3.200873,-6.14502 3.998478,-14.85168 1.360545,-14.85168 -3.779041,0 -10.814842,15.8464 -8.448565,19.02826 2.07396,2.78883 4.073579,1.61056 7.08802,-4.17658 z m 70.363058,1.32842 c -2.36572,-0.6127 -6.2369,-0.6127 -8.60262,0 -2.36571,0.61273 -0.43013,1.11404 4.30131,1.11404 4.73144,0 6.66702,-0.50131 4.30131,-1.11404 z m 2.51078,-31.9189 c 1.66556,-4.33099 2.6794,-8.34366 2.25298,-8.91706 -0.42642,-0.57339 -1.95942,2.13686 -3.40664,6.02277 -1.44725,3.88591 -4.38777,9.16731 -6.53451,11.73641 -3.89878,4.66589 -3.89835,4.66796 0.37837,1.85175 2.35484,-1.55064 5.64425,-6.36288 7.3098,-10.69387 z m 3.09684,-18.23615 c -1.37176,-1.84457 -2.26216,-1.99634 -2.26216,-0.38558 0,3.43119 2.26079,6.47123 3.53662,4.75561 0.54324,-0.73046 -0.0303,-2.69698 -1.27446,-4.37003 z m 107.5193,231.2694 c -6.0868,-8.83647 -14.35477,-23.00697 -18.37326,-31.48999 -4.01851,-8.48302 -9.54283,-18.75301 -12.27631,-22.82218 -7.35152,-10.94386 -16.04284,-37.37186 -16.04457,-48.78735 -9.9e-4,-7.64582 -0.64166,-9.5845 -2.79875,-8.47145 -2.01574,1.04015 -3.15293,-1.10619 -4.07042,-7.68263 -1.32512,-9.49803 -0.0397,-36.44542 2.22577,-46.66035 0.79542,-3.58658 0.53797,-5.59895 -0.65777,-5.14121 -3.58336,1.37174 -2.56179,-3.03863 4.75046,-20.50901 3.98206,-9.51392 9.47386,-26.43002 12.20402,-37.59129 l 4.96389,-20.29324 5.85618,19.00793 c 8.81025,28.59626 12.05435,37.85867 10.70894,30.57569 -2.19934,-11.90557 -15.64854,-51.78074 -20.90453,-61.97932 -4.25075,-8.24804 -5.36043,-13.66148 -6.01343,-29.33576 -0.48725,-11.69609 -0.0597,-19.22124 1.0918,-19.22124 1.24629,0 1.24129,-3.17187 -0.0153,-9.28819 -1.04898,-5.10851 -1.35032,-14.73292 -0.66968,-21.38758 1.44021,-14.080905 14.90651,-60.702514 17.42392,-60.323286 0.94079,0.141724 5.68236,9.974316 10.53681,21.850204 10.43095,25.516392 18.62481,38.301502 24.54778,38.301502 6.13433,0 13.0884,-11.230995 23.62969,-38.162542 5.0659,-12.942682 9.89269,-23.532151 10.72619,-23.532151 1.93027,0 14.38142,36.535607 17.10489,50.191182 1.13496,5.690681 1.86745,23.910361 1.62778,40.488171 -0.23968,16.57781 0.32312,30.48118 1.25068,30.89636 0.92754,0.41519 0.0672,4.55754 -1.91171,9.20522 -9.4502,22.19409 -10.01563,24.1189 -8.30294,28.26507 0.95145,2.30333 4.31212,14.86259 7.46814,27.90948 3.15601,13.04689 7.92238,28.37418 10.59195,34.06062 3.78637,8.06536 4.21789,10.339 1.96223,10.339 -3.56059,0 -3.56377,-0.22069 0.16918,11.79265 4.02918,12.96703 3.0291,42.27382 -1.68141,49.27297 -1.80999,2.68937 -3.29091,7.24605 -3.29091,10.12587 0,7.10369 -13.12462,41.94407 -16.44629,43.65804 -1.46457,0.75574 -5.3808,8.23111 -8.70275,16.61197 -5.94668,15.00255 -30.87503,56.19316 -34.00791,56.19316 -0.88298,0 -6.5855,-7.22984 -12.67231,-16.06632 z m 32.01721,-165.56769 c 1.91942,-2.33578 3.46369,-6.09193 3.43171,-8.34702 -0.0449,-3.17236 -0.54873,-2.93678 -2.22624,1.04106 -3.40753,8.08033 -5.37319,8.9159 -21.07278,8.95778 -14.14305,0.0378 -14.87276,-0.2536 -17.60662,-7.02982 -1.56861,-3.88803 -2.88647,-5.8806 -2.92857,-4.42789 -0.14376,4.96349 5.68602,13.71423 9.97666,14.97518 8.09692,2.3795 26.83931,-0.8048 30.42584,-5.16929 z m 11.93474,-39.17692 c 3.80561,-13.28749 6.59515,-24.59496 6.19899,-25.12766 -0.71133,-0.95653 -14.64388,46.31756 -14.64388,49.6877 0,3.8549 1.83614,-1.48508 8.44489,-24.56004 z M 245.4028,191.02555 c -1.02031,-8.12081 -2.92175,-11.64425 -9.80414,-18.1675 -10.99513,-10.42138 -12.11741,-10.211 -4.85578,0.91024 3.2332,4.95166 7.82465,13.54996 10.20322,19.10733 2.37858,5.55737 4.63919,9.68138 5.02359,9.16448 0.3844,-0.5169 0.12918,-5.47345 -0.56689,-11.01455 z m 37.18252,-18.94264 4.7534,-8.60295 -9.53262,9.15187 c -8.36583,8.03166 -9.59691,10.39151 -10.05789,19.27959 l -0.52523,10.12772 5.30446,-10.67664 c 2.91747,-5.87215 7.44352,-14.54797 10.05788,-19.27959 z m -9.57513,-15.67213 c 0.0234,-2.47422 -0.85928,-4.49857 -1.96146,-4.49857 -2.47909,0 -7.60726,15.79982 -6.15424,18.96116 1.41506,3.07882 8.06187,-8.76612 8.1157,-14.46259 z m -24.80948,12.08275 c 0,-3.57873 -6.03486,-16.58132 -7.69586,-16.58132 -2.51543,0 -2.36038,1.53153 1.05404,10.41011 2.52343,6.56173 6.64182,10.38832 6.64182,6.17121 z m 38.49121,-71.849484 -1.65235,-23.135509 -0.23227,19.279591 c -0.12775,10.603772 0.33689,22.141692 1.03254,25.639822 2.20716,11.0991 2.55872,2.11136 0.85208,-21.783904 z m -60.0971,3.450414 c 0.50734,-8.966911 0.12789,-19.097786 -0.84322,-22.513056 -1.33792,-4.705325 -1.77004,-1.591701 -1.78378,12.853062 -0.01,10.484454 -0.68017,21.954584 -1.48933,25.489174 -1.14727,5.01163 -0.95765,5.77129 0.86135,3.45041 1.28291,-1.63687 2.74765,-10.31268 3.25498,-19.27959 z"
         id="path1004" />
      <path
         id="path2751"
         style="fill:#ff0000;fill-opacity:1;stroke-width:0.55348"
         d="m 74.509645,252.04043 c -1.106332,0.62343 -1.657929,1.76333 -2.432647,2.66483 -4.160254,5.64868 -8.158389,11.4083 -11.586081,17.43323 -1.181203,2.23822 -2.530007,4.50615 -2.803528,7.00026 -0.141833,1.18214 0.65541,2.4266 2.017135,2.69678 2.101517,0.41386 4.213002,-0.3844 6.09363,-1.14414 1.9741,-0.86287 3.880745,-2.09134 4.778929,-3.93057 2.020209,-3.66385 3.380588,-7.57942 4.664625,-11.48385 1.100308,-3.5765 2.142104,-7.2094 2.377127,-10.92283 0.04178,-0.79289 -0.20306,-1.64632 -0.869603,-2.18674 -0.523713,-0.11263 -1.065596,-0.58457 -1.575296,-0.44723 -0.221431,0.10676 -0.442861,0.2135 -0.664291,0.32026 z" />
      <path
         id="path2940"
         style="fill:#ff0000;fill-opacity:1;stroke-width:0.55348"
         d="m 284.96537,163.62127 c -1.83351,1.35344 -3.3302,3.0269 -4.96913,4.55703 -3.24977,3.25181 -6.56111,6.46562 -9.57088,9.8953 -2.14481,2.58357 -3.47878,5.64912 -3.93719,8.82247 -0.73715,4.69498 -0.76282,9.44857 -0.96419,14.17675 0.17508,1.81875 0.35016,3.6375 0.52523,5.45625 1.12547,-1.73245 2.38701,-3.4027 3.42552,-5.17491 5.571,-11.10375 11.09822,-22.2022 17.21233,-33.09373 0.49372,-1.03038 1.22727,-2.0235 1.38942,-3.14415 -0.0477,-0.48028 0.18976,-1.16219 -0.0276,-1.52237 -0.82516,-0.0893 -1.69401,-0.35434 -2.49229,-0.33815 -0.19707,0.12184 -0.39415,0.24368 -0.59123,0.36551 z" />
      <path
         id="path2940-1"
         style="fill:#ff0000;fill-opacity:1;stroke-width:0.55348"
         d="m 227.01335,163.03729 c 1.83352,1.35344 3.3302,3.02689 4.96913,4.55702 3.24977,3.25181 6.56112,6.46563 9.57088,9.8953 2.14482,2.58358 3.47878,5.64912 3.93719,8.82247 0.73715,4.69499 0.76282,9.44857 0.9642,14.17676 -0.17508,1.81875 -0.35016,3.63749 -0.52523,5.45624 -1.12548,-1.73245 -2.38702,-3.4027 -3.42553,-5.1749 -5.571,-11.10375 -11.09821,-22.2022 -17.21233,-33.09374 -0.49372,-1.03037 -1.22727,-2.02349 -1.38942,-3.14415 0.0477,-0.48028 -0.18976,-1.16218 0.0276,-1.52237 0.82516,-0.0892 1.69402,-0.35433 2.49229,-0.33815 0.19707,0.12184 0.39415,0.24368 0.59123,0.36552 z" />
      <path
         id="path2979"
         style="fill:#ff0000;fill-opacity:1;stroke-width:0.55348"
         d="m 433.54436,253.65748 c -0.5307,0.77116 -0.21056,1.74683 -0.16229,2.60425 0.9451,6.08906 2.43678,12.10446 4.14283,18.05977 0.6111,1.74617 0.98082,3.65774 2.29159,5.12575 1.70957,1.42237 3.99165,2.14696 6.17632,2.80934 2.04514,0.52233 4.20295,0.98117 6.34105,0.74342 1.22174,-0.13079 2.23378,-1.20651 1.92885,-2.29676 -0.85138,-2.65206 -2.531,-5.01739 -3.97682,-7.43938 -3.83451,-6.08219 -7.76548,-12.12274 -11.97455,-18.01029 -0.66263,-0.82001 -1.21135,-1.80578 -2.18985,-2.35198 -0.62521,-0.10882 -1.24978,-0.22041 -1.87467,-0.33063 -0.23415,0.36217 -0.4683,0.72434 -0.70246,1.08651 z" />
    </g>
  </g>
</svg>
