<?xml version="1.0" encoding="UTF-8" standalone="no"?>
<!-- Created with Inkscape (http://www.inkscape.org/) -->

<svg
   version="1.1"
   id="svg870"
   width="512"
   height="512"
   viewBox="0 0 512 512"
   sodipodi:docname="rootos.svg"
   inkscape:version="1.1.2 (0a00cf5339, 2022-02-04)"
   xmlns:inkscape="http://www.inkscape.org/namespaces/inkscape"
   xmlns:sodipodi="http://sodipodi.sourceforge.net/DTD/sodipodi-0.dtd"
   xmlns="http://www.w3.org/2000/svg"
   xmlns:svg="http://www.w3.org/2000/svg">
  <defs
     id="defs874" />
  <sodipodi:namedview
     id="namedview872"
     pagecolor="#505050"
     bordercolor="#eeeeee"
     borderopacity="1"
     inkscape:pageshadow="0"
     inkscape:pageopacity="0"
     inkscape:pagecheckerboard="0"
     showgrid="false"
     showguides="true"
     inkscape:guide-bbox="true"
     inkscape:zoom="0.68913043"
     inkscape:cx="141.48265"
     inkscape:cy="196.62461"
     inkscape:window-width="1366"
     inkscape:window-height="695"
     inkscape:window-x="0"
     inkscape:window-y="24"
     inkscape:window-maximized="1"
     inkscape:current-layer="g876" />
  <g
     inkscape:groupmode="layer"
     inkscape:label="Image"
     id="g876">
    <g
       id="g1474"
       transform="matrix(1.0355388,0,0,1.0538703,-9.0979328,-13.790797)">
      <rect
         style="fill:#ffffff;stroke-width:4.07"
         id="rect1204"
         width="475.04291"
         height="463.4104"
         x="18.478546"
         y="24.2948"
         ry="97.270828" />
      <g
         id="g12350"
         transform="matrix(0.93040668,0,0,0.91607795,21.131552,21.23118)">
        <path
           id="path1196"
           style="fill:#7fc7f9"
           d="m 296.41992,15.865234 c -0.19661,0.328776 -0.39323,0.657554 -0.58984,0.986328 -0.54395,0.910348 -1.08786,1.820724 -1.63281,2.730469 0.4022,0.495223 0.82481,0.996427 0.27539,1.5625 -2.27855,4.402601 -4.98992,8.562584 -7.56055,12.796875 -15.99068,25.957172 -29.30372,53.524912 -40.2793,81.955074 -11.5624,30.00269 -20.54679,61.00647 -26.69922,92.56836 -3.63526,18.47421 -6.13661,37.16082 -7.69531,55.92188 -0.31448,3.05935 -0.4555,6.13206 -0.4707,9.20703 h 93.85547 c -1.79097,6.60517 -3.49498,13.24792 -4.52539,20.02148 -1.88086,12.10138 -2.58752,24.34326 -3.43946,36.54883 -0.90906,13.7915 -1.62308,27.59586 -2.07226,41.41016 -0.153,3.65848 -0.18455,7.44082 -0.21875,11.14844 12.11552,2.53085 24.0896,5.74275 35.82031,9.69336 1.75139,0.60517 3.70452,1.26505 5.52148,1.92578 9.46212,3.40206 18.89625,7.24109 27.97461,11.72851 8.47212,4.17171 16.71486,8.79402 24.82422,13.62891 1.60324,0.97166 3.37035,2.06087 5.00196,3.13476 1.82323,1.25756 3.78694,2.37162 5.3789,3.92383 0.52235,0.61639 -0.2473,1.35509 -0.49414,1.9336 -2.77151,4.78611 -6.11437,9.2063 -9.26953,13.74023 -7.22849,-4.52629 -14.38481,-9.18627 -21.91406,-13.20703 -14.26035,-7.67841 -29.15146,-14.19517 -44.47656,-19.4375 -8.59452,-2.93678 -17.35684,-5.37557 -26.24024,-7.26758 -0.54313,-0.0458 -1.53809,-0.65422 -1.26758,0.31641 v 13.48437 c -0.78494,-0.18366 -1.19302,0.004 -0.93359,0.85157 0.77452,12.14614 1.064,24.39575 2.25976,36.54882 0.87114,8.89662 1.87676,17.79575 3.58204,26.57618 0.823,3.98205 1.95622,7.91107 2.65625,11.91015 -0.1625,0.96542 0.28674,2.05396 1.08398,2.63281 1.63646,0.99711 3.65263,0.86605 5.49414,1.04493 9.09555,0.34014 18.20161,0.12837 27.30078,0.0859 16.64588,-0.2133 33.29865,-0.29225 49.93164,-1.03125 9.9801,-0.4626 20.00634,-1.33135 29.69727,-3.88281 13.71064,-3.34944 26.45343,-10.11694 37.4707,-18.86914 7.11995,-5.67152 13.44415,-12.30847 19.04297,-19.47461 5.97893,-7.71452 10.69486,-16.40315 13.84766,-25.64258 3.81729,-11.16105 5.65088,-22.89072 6.72656,-34.60351 0.39423,-9.69882 0.42809,-19.40802 0.55664,-29.11328 0.42189,-43.93353 0.52773,-87.86937 0.56641,-131.80469 -7.3e-4,-30.69452 0.005,-61.39074 -0.30469,-92.08399 -0.12702,-6.5162 -0.0482,-13.04981 -0.71485,-19.54101 -1.27018,-14.08935 -3.7553,-28.260043 -9.45898,-41.289064 -4.41733,-10.181215 -10.8656,-19.39063 -18.43359,-27.47461 -5.95869,-6.404852 -12.43446,-12.425739 -19.89258,-17.05664 -8.30786,-5.252294 -17.3226,-9.423341 -26.8086,-12.03711 -6.47503,-1.839015 -13.1294,-2.936036 -19.78906,-3.849609 -2.40168,-0.314185 -4.76382,-0.958036 -7.20117,-0.927735 -13.35773,-0.457948 -26.72412,-0.594934 -40.08789,-0.791015 -18.79936,-0.225562 -37.59891,-0.422524 -56.39844,-0.632813 z m 57.25391,97.232426 c 0.29628,-0.006 0.68718,0.0829 0.93164,0.0254 h 11.69922 13 v 76 H 349.2793 l 0.52539,-75.48243 c 1.16667,-0.001 2.33333,-0.003 3.5,-0.006 -0.12959,-0.43154 0.0729,-0.53144 0.36914,-0.53711 z m 58.10156,238.37695 c 0.14518,0.82487 0.29037,1.64974 0.43555,2.47461 -0.58594,-0.1543 -1.17186,-0.30859 -1.75782,-0.46289 0.44077,-0.67057 0.88152,-1.34115 1.32227,-2.01172 z" />
        <path
           id="path1194"
           style="fill:#2f93f9"
           d="m 209.71037,16.965182 c -26.66934,0.106962 -53.33949,0.237421 -80.00586,0.669922 -6.47087,0.138726 -12.95354,0.16096 -19.39648,0.845703 -13.589334,1.270405 -27.258314,3.747849 -39.769534,9.392578 -10.48078,4.675748 -19.81594,11.603178 -28.07031,19.519531 -8.58721,8.146232 -16.09835,17.559222 -21.29102,28.238282 -6.16848,12.536889 -9.14764,26.378742 -10.66797,40.193362 -0.44651,3.57729 -0.6571196,7.17755 -0.7050796,10.78125 -0.39894,19.591 -0.36858,39.18712 -0.4375,58.78124 -0.0599,47.82864 0.11771,95.65608 0.27344,143.48438 0.10422,19.07517 0.12112,38.15398 0.5917996,57.22461 0.26333,7.98459 0.44287,16.00321 1.61914,23.91797 0.87902,6.13394 3.06528,11.96097 5.00976,17.8125 3.33169,9.55292 8.13538,18.61664 14.4375,26.54687 5.37064,6.78081 11.54234,12.91377 18.20508,18.42188 8.70749,7.1947 18.71099,12.84037 29.44727,16.37695 11.89896,3.99175 24.422114,5.73257 36.902344,6.60547 9.0036,0.40364 18.02053,0.4346 27.03125,0.57617 34.06458,0.35514 68.13108,0.46317 102.19727,0.34766 10.37163,-0.0631 20.74571,-0.0729 31.11328,-0.40039 -0.83649,-5.71444 -1.94619,-11.38348 -2.77539,-17.09961 -0.40603,-2.81279 -0.81228,-5.8115 -1.15821,-8.65235 -0.48747,-4.02964 -0.90582,-7.93294 -1.29296,-11.9707 -0.4761,-5.05702 -0.92602,-10.2119 -1.25586,-15.25586 -0.40465,-6.48786 -0.66647,-13.04759 -0.96875,-19.56836 -0.3286,-0.78887 -0.20502,-1.77242 -0.90821,-2.38086 -0.41845,-0.42612 -1.1335,-0.48109 -0.86718,-1.24414 v -16.7832 c -7.83301,-0.23424 -15.67604,-0.43183 -23.50586,0.006 -22.16355,1.12845 -44.12159,5.16431 -65.46875,11.15429 -21.56153,6.10955 -42.59569,14.27114 -62.29688,24.99024 -5.39653,2.96149 -10.64178,6.18929 -15.884764,9.41211 -3.07369,-4.65673 -6.36974,-9.17305 -9.17774,-14 -0.24988,-0.55613 -0.69789,-1.0624 -0.8418,-1.65235 0.26017,-0.71334 1.0854,-1.04093 1.60743,-1.54687 3.63455,-2.53058 7.57481,-4.58159 11.441404,-6.72852 4.96944,-2.69584 10.01856,-5.26592 15.0586,-7.71679 2.69848,-1.31892 5.661,-2.71027 8.36914,-3.97266 14.54022,-6.64912 29.8056,-12.24123 45.27929,-16.75977 11.51139,-3.33315 23.34319,-6.04839 35.24219,-8.0664 8.01725,-1.35659 16.19071,-2.42108 24.33984,-3.14844 6.07234,-0.53747 12.2787,-0.93106 18.41797,-1.10742 5.25601,-0.14779 10.65989,-0.19828 15.97461,-0.34375 1.49593,0.32229 3.10302,-0.88408 3.05664,-2.44727 -0.0905,-0.57651 0.0852,-0.98448 0.1211,-1.51562 0.61871,-20.95235 1.56436,-41.9398 3.07031,-62.82617 0.49222,-6.61507 1.07955,-13.32356 1.93555,-19.80079 0.12117,-0.93324 0.24349,-1.86561 0.36523,-2.79882 h -90.55469 c 0.49031,-8.17791 0.88143,-16.36239 1.51172,-24.53125 0.34511,-4.30146 0.73785,-8.78242 1.1836,-13.08399 1.04107,-10.15197 2.20651,-20.20999 3.78125,-30.28906 2.79523,-18.1709 6.57649,-36.21096 11.22265,-54.0332 7.71372,-29.54451 17.70809,-58.51986 30.04102,-86.527343 5.73582,-13.009857 12.03369,-25.87823 18.85547,-38.396484 3.89756,-7.155347 8.08982,-14.204801 12.29101,-21.248047 0.96961,-1.624866 1.93859,-3.248181 2.90821,-4.873047 0.97526,-0.0011 1.95052,-0.002 2.92578,-0.0039 0.5128,-0.886297 1.02804,-1.771181 1.54297,-2.65625 -0.8778,-0.586973 -1.60467,-1.557567 -2.75,-1.546875 -5.33474,-0.290031 -10.68201,-0.23617 -16.02344,-0.300782 -13.76509,-0.09087 -27.53165,-0.04413 -41.29688,-0.02148 z m -84.33008,97.361328 c 0.10825,-0.0433 0.26587,-0.0378 0.49024,0.0352 4.01536,0.007 8.02956,0.0127 12.04492,0.0195 4.25586,0.007 8.51172,0.0143 12.76758,0.0215 0.16691,23.82877 0.33293,47.65752 0.49805,71.48633 -0.84825,-0.22045 -1.00978,0.2402 -0.8711,1 0.009,1.37241 0.0179,2.74478 0.0274,4.11718 h -30.02344 v -75.5332 c 1.61849,0.002 3.23698,0.004 4.85547,0.008 -0.005,-0.46086 -0.11379,-1.02439 0.21093,-1.15429 z" />
      </g>
    </g>
  </g>
</svg>
