<?xml version="1.0" encoding="UTF-8" standalone="no"?>
<svg
   id="vector"
   width="512"
   height="512"
   viewBox="0 0 10666.667 10666.667"
   version="1.1"
   sodipodi:docname="roptool.svg"
   inkscape:version="1.2.2 (b0a8486541, 2022-12-01)"
   inkscape:export-filename="../GIT Icons/roptool.png"
   inkscape:export-xdpi="96"
   inkscape:export-ydpi="96"
   xmlns:inkscape="http://www.inkscape.org/namespaces/inkscape"
   xmlns:sodipodi="http://sodipodi.sourceforge.net/DTD/sodipodi-0.dtd"
   xmlns="http://www.w3.org/2000/svg"
   xmlns:svg="http://www.w3.org/2000/svg">
  <defs
     id="defs912">
    <rect
       x="564.58576"
       y="90.777725"
       width="634.24438"
       height="987.43253"
       id="rect734" />
    <rect
       x="-401.82082"
       y="131.38639"
       width="238.36752"
       height="153.76299"
       id="rect78704" />
    <rect
       x="7.4846837"
       y="35.999751"
       width="498.92427"
       height="453.50463"
       id="rect17454" />
    <rect
       x="7.4846835"
       y="35.999752"
       width="498.92426"
       height="453.50464"
       id="rect17454-7" />
    <rect
       x="-401.82083"
       y="131.38638"
       width="238.36752"
       height="153.76299"
       id="rect78704-5" />
  </defs>
  <sodipodi:namedview
     id="namedview910"
     pagecolor="#505050"
     bordercolor="#eeeeee"
     borderopacity="1"
     inkscape:pageshadow="0"
     inkscape:pageopacity="0"
     inkscape:pagecheckerboard="0"
     showgrid="false"
     inkscape:zoom="0.82311649"
     inkscape:cx="168.26294"
     inkscape:cy="275.78114"
     inkscape:window-width="1366"
     inkscape:window-height="705"
     inkscape:window-x="0"
     inkscape:window-y="26"
     inkscape:window-maximized="1"
     inkscape:current-layer="vector"
     inkscape:showpageshadow="0"
     inkscape:deskcolor="#505050" />
  <g
     aria-label="xor ecx,ecx
push ecx
push 0x20657865
push 0x2e646d63
 
mov ecx,esp
push 0x1
push ecx
"
     transform="matrix(31.942458,0,0,30.548948,-17646.31,-2994.3729)"
     id="text732"
     style="font-size:34.6667px;line-height:1.25;white-space:pre;shape-inside:url(#rect734);display:inline">
    <path
       d="m 565.86861,122.31971 5.96267,-8.94401 -5.58134,-8.25067 h 5.47734 l 1.768,2.77334 q 0.38133,0.728 0.86667,1.49066 0.48533,0.728 0.936,1.45601 h 0.13866 q 0.34667,-0.72801 0.69334,-1.49067 0.38133,-0.76267 0.728,-1.456 l 1.52533,-2.77334 h 5.33868 l -5.61601,8.84001 5.96267,8.35467 h -5.47734 l -1.976,-2.84267 q -0.48533,-0.728 -1.00533,-1.49066 -0.48534,-0.76267 -0.97067,-1.49067 h -0.13867 q -0.38133,0.728 -0.79733,1.49067 -0.416,0.728 -0.79733,1.49066 l -1.69867,2.84267 z"
       style="font-weight:bold;font-family:'Source Code Pro';-inkscape-font-specification:'Source Code Pro Bold';fill:#00ff00"
       id="path432" />
    <path
       d="m 595.78598,122.73571 q -1.69867,0 -3.29334,-0.58933 -1.56,-0.624 -2.808,-1.768 -1.21333,-1.144 -1.94134,-2.80801 -0.728,-1.69866 -0.728,-3.848 0,-2.14933 0.728,-3.81334 0.72801,-1.69866 1.94134,-2.84266 1.248,-1.14401 2.808,-1.73334 1.59467,-0.624 3.29334,-0.624 1.69867,0 3.25867,0.624 1.59467,0.58933 2.808,1.73334 1.248,1.144 1.976,2.84266 0.728,1.66401 0.728,3.81334 0,2.14934 -0.728,3.848 -0.728,1.66401 -1.976,2.80801 -1.21333,1.144 -2.808,1.768 -1.56,0.58933 -3.25867,0.58933 z m 0,-4.12533 q 1.768,0 2.63467,-1.31734 0.90133,-1.31733 0.90133,-3.57067 0,-2.25333 -0.90133,-3.57067 -0.86667,-1.31733 -2.63467,-1.31733 -1.768,0 -2.66934,1.31733 -0.86666,1.31734 -0.86666,3.57067 0,2.25334 0.86666,3.57067 0.90134,1.31734 2.66934,1.31734 z"
       style="font-weight:bold;font-family:'Source Code Pro';-inkscape-font-specification:'Source Code Pro Bold';fill:#00ff00"
       id="path434" />
    <path
       d="m 610.20734,122.31971 v -17.19468 h 4.16 l 0.416,3.744 h 0.104 q 1.28267,-2.11467 3.08534,-3.12 1.80267,-1.04 3.88267,-1.04 1.144,0 1.83733,0.17333 0.728,0.17334 1.49067,0.52 l -1.04,4.26401 q -0.79733,-0.24267 -1.456,-0.34667 -0.624,-0.13867 -1.59467,-0.13867 -1.59467,0 -3.15467,0.936 -1.52533,0.93601 -2.63467,3.25867 v 8.94401 z"
       style="font-weight:bold;font-family:'Source Code Pro';-inkscape-font-specification:'Source Code Pro Bold';fill:#00ff00"
       id="path436" />
    <path
       d="m 659.22607,122.73571 q -2.01066,0 -3.77867,-0.58933 -1.73333,-0.624 -3.016,-1.768 -1.28267,-1.144 -2.01067,-2.80801 -0.728,-1.69866 -0.728,-3.848 0,-2.11467 0.728,-3.77867 0.76267,-1.69867 2.01067,-2.84267 1.248,-1.17867 2.84267,-1.768 1.62934,-0.624 3.36267,-0.624 1.976,0 3.50134,0.624 1.52533,0.624 2.53067,1.73334 1.04,1.10933 1.56,2.63466 0.52,1.49067 0.52,3.25867 0,0.69334 -0.104,1.35201 -0.0693,0.624 -0.13867,0.936 h -11.71734 q 0.38133,1.872 1.69867,2.73867 1.31733,0.86666 3.432,0.86666 1.17867,0 2.21867,-0.312 1.07466,-0.312 2.21867,-0.90133 l 1.69866,3.08533 q -1.49066,0.93601 -3.29333,1.49067 -1.80267,0.52 -3.53601,0.52 z m -0.416,-14.14401 q -1.52533,0 -2.56533,0.79733 -1.00534,0.79734 -1.38667,2.42667 h 7.34934 q -0.38133,-3.224 -3.39734,-3.224 z"
       style="font-weight:bold;font-family:'Source Code Pro';-inkscape-font-specification:'Source Code Pro Bold';fill:#00ff00"
       id="path438" />
    <path
       d="m 680.47678,122.73571 q -2.04534,0 -3.77867,-0.58933 -1.73334,-0.624 -3.05067,-1.768 -1.28267,-1.144 -2.01067,-2.80801 -0.728,-1.69866 -0.728,-3.848 0,-2.14933 0.79733,-3.81334 0.832,-1.69866 2.184,-2.84266 1.38667,-1.14401 3.18934,-1.73334 1.80267,-0.624 3.77867,-0.624 2.04533,0 3.67467,0.65867 1.664,0.65866 2.77333,1.664 l -2.35733,3.15467 q -1.90667,-1.352 -3.81334,-1.352 -2.21867,0 -3.60533,1.31733 -1.38667,1.31734 -1.38667,3.57067 0,2.25334 1.31733,3.57067 1.352,1.31734 3.50134,1.31734 1.352,0 2.46133,-0.48534 1.14401,-0.48533 2.08001,-1.144 l 2.04533,3.224 q -1.56,1.31734 -3.432,1.94134 -1.872,0.58933 -3.64,0.58933 z"
       style="font-weight:bold;font-family:'Source Code Pro';-inkscape-font-specification:'Source Code Pro Bold';fill:#00ff00"
       id="path440" />
    <path
       d="m 690.66879,122.31971 5.96267,-8.94401 -5.58133,-8.25067 h 5.47733 l 1.76801,2.77334 q 0.38133,0.728 0.86666,1.49066 0.48534,0.728 0.936,1.45601 h 0.13867 q 0.34667,-0.72801 0.69333,-1.49067 0.38134,-0.76267 0.728,-1.456 l 1.52534,-2.77334 h 5.33867 l -5.616,8.84001 5.96267,8.35467 h -5.47734 l -1.976,-2.84267 q -0.48534,-0.728 -1.00534,-1.49066 -0.48533,-0.76267 -0.97066,-1.49067 h -0.13867 q -0.38133,0.728 -0.79733,1.49067 -0.41601,0.728 -0.79734,1.49066 l -1.69867,2.84267 z"
       style="font-weight:bold;font-family:'Source Code Pro';-inkscape-font-specification:'Source Code Pro Bold';fill:#00ff00"
       id="path442" />
    <path
       d="m 717.77816,129.84239 -1.28266,-2.98134 q 2.32267,-0.79733 3.432,-2.08 1.144,-1.248 1.07467,-2.84267 -0.13867,0.0347 -0.38134,0.0347 -0.728,0 -1.42133,-0.208 -0.65867,-0.24267 -1.17867,-0.69334 -0.52,-0.45067 -0.832,-1.10933 -0.312,-0.65867 -0.312,-1.52534 0,-1.62933 1.10933,-2.6 1.14401,-0.97067 2.77334,-0.97067 2.14934,0 3.224,1.59467 1.07467,1.56 1.07467,4.368 0,3.32801 -1.83733,5.61601 -1.83734,2.288 -5.44268,3.39734 z"
       style="font-weight:bold;font-family:'Source Code Pro';-inkscape-font-specification:'Source Code Pro Bold';fill:#00ff00"
       id="path444" />
    <path
       d="m 742.4262,122.73571 q -2.01067,0 -3.77867,-0.58933 -1.73333,-0.624 -3.016,-1.768 -1.28267,-1.144 -2.01067,-2.80801 -0.728,-1.69866 -0.728,-3.848 0,-2.11467 0.728,-3.77867 0.76267,-1.69867 2.01067,-2.84267 1.248,-1.17867 2.84267,-1.768 1.62933,-0.624 3.36267,-0.624 1.976,0 3.50133,0.624 1.52534,0.624 2.53067,1.73334 1.04,1.10933 1.56,2.63466 0.52,1.49067 0.52,3.25867 0,0.69334 -0.104,1.35201 -0.0693,0.624 -0.13866,0.936 h -11.71735 q 0.38134,1.872 1.69867,2.73867 1.31734,0.86666 3.43201,0.86666 1.17866,0 2.21866,-0.312 1.07467,-0.312 2.21867,-0.90133 l 1.69867,3.08533 q -1.49067,0.93601 -3.29334,1.49067 -1.80266,0.52 -3.536,0.52 z m -0.416,-14.14401 q -1.52533,0 -2.56533,0.79733 -1.00534,0.79734 -1.38667,2.42667 h 7.34934 q -0.38134,-3.224 -3.39734,-3.224 z"
       style="font-weight:bold;font-family:'Source Code Pro';-inkscape-font-specification:'Source Code Pro Bold';fill:#00ff00"
       id="path446" />
    <path
       d="m 763.6769,122.73571 q -2.04533,0 -3.77867,-0.58933 -1.73333,-0.624 -3.05067,-1.768 -1.28267,-1.144 -2.01067,-2.80801 -0.728,-1.69866 -0.728,-3.848 0,-2.14933 0.79734,-3.81334 0.832,-1.69866 2.184,-2.84266 1.38667,-1.14401 3.18934,-1.73334 1.80266,-0.624 3.77867,-0.624 2.04533,0 3.67467,0.65867 1.664,0.65866 2.77333,1.664 l -2.35733,3.15467 q -1.90667,-1.352 -3.81334,-1.352 -2.21867,0 -3.60534,1.31733 -1.38667,1.31734 -1.38667,3.57067 0,2.25334 1.31734,3.57067 1.352,1.31734 3.50134,1.31734 1.352,0 2.46133,-0.48534 1.144,-0.48533 2.08,-1.144 l 2.04534,3.224 q -1.56,1.31734 -3.432,1.94134 -1.87201,0.58933 -3.64001,0.58933 z"
       style="font-weight:bold;font-family:'Source Code Pro';-inkscape-font-specification:'Source Code Pro Bold';fill:#00ff00"
       id="path448" />
    <path
       d="m 773.86893,122.31971 5.96267,-8.94401 -5.58134,-8.25067 h 5.47734 l 1.768,2.77334 q 0.38133,0.728 0.86667,1.49066 0.48533,0.728 0.936,1.45601 h 0.13866 q 0.34667,-0.72801 0.69334,-1.49067 0.38133,-0.76267 0.728,-1.456 l 1.52533,-2.77334 h 5.33868 l -5.61601,8.84001 5.96267,8.35467 h -5.47734 l -1.976,-2.84267 q -0.48533,-0.728 -1.00533,-1.49066 -0.48534,-0.76267 -0.97067,-1.49067 h -0.13867 q -0.38133,0.728 -0.79733,1.49067 -0.416,0.728 -0.79733,1.49066 l -1.69867,2.84267 z"
       style="font-weight:bold;font-family:'Source Code Pro';-inkscape-font-specification:'Source Code Pro Bold';fill:#00ff00"
       id="path450" />
    <path
       d="m 567.08194,173.24077 v -23.57335 h 4.16 l 0.38134,1.73333 h 0.104 q 1.04,-0.936 2.392,-1.52533 1.352,-0.624 2.73867,-0.624 1.59467,0 2.87733,0.624 1.28267,0.624 2.18401,1.768 0.90133,1.144 1.352,2.77334 0.48533,1.59466 0.48533,3.57067 0,2.21867 -0.624,3.952 -0.624,1.69867 -1.664,2.912 -1.04,1.17867 -2.392,1.80267 -1.31734,0.624 -2.77334,0.624 -2.35733,0 -4.22934,-1.872 h -0.13866 l 0.24266,2.808 v 5.02667 z m 8.04267,-10.12267 q 1.45601,0 2.42667,-1.17867 0.97067,-1.21333 0.97067,-3.88267 0,-4.64534 -3.15467,-4.64534 -1.62933,0 -3.18934,1.59467 v 6.96801 q 0.72801,0.624 1.49067,0.90133 0.79734,0.24267 1.456,0.24267 z"
       style="font-weight:bold;font-family:'Source Code Pro';-inkscape-font-specification:'Source Code Pro Bold';fill:#00ff00"
       id="path452" />
    <path
       d="m 593.11664,167.2781 q -2.94667,0 -4.264,-1.872 -1.31734,-1.872 -1.31734,-5.13067 v -10.60801 h 5.09601 v 9.94934 q 0,1.73334 0.52,2.53067 0.52,0.79733 1.976,0.79733 0.97067,0 1.69867,-0.416 0.76267,-0.416 1.664,-1.56 v -11.30134 h 5.09601 v 17.19468 h -4.16001 l -0.38133,-2.46133 h -0.13867 q -1.144,1.31733 -2.53067,2.11466 -1.38667,0.76267 -3.25867,0.76267 z"
       style="font-weight:bold;font-family:'Source Code Pro';-inkscape-font-specification:'Source Code Pro Bold';fill:#00ff00"
       id="path454" />
    <path
       d="m 616.44734,167.2781 q -2.32267,0 -4.54133,-0.76267 -2.21867,-0.76266 -3.88267,-1.872 l 2.184,-3.18933 q 1.59467,1.00533 3.328,1.52533 1.73334,0.52 3.60534,0.52 1.42133,0 2.08,-0.416 0.65867,-0.416 0.65867,-1.04 0,-0.34667 -0.208,-0.624 -0.17334,-0.27733 -0.65867,-0.48533 -0.45067,-0.24267 -1.28267,-0.45067 -0.832,-0.208 -2.08,-0.48534 -3.50134,-0.76266 -5.02667,-2.04533 -1.52534,-1.31733 -1.52534,-3.328 0,-1.17867 0.55467,-2.18401 0.55467,-1.00533 1.56,-1.69866 1.04,-0.69334 2.496,-1.07467 1.45601,-0.416 3.29334,-0.416 2.32267,0 4.19467,0.76267 1.90667,0.728 3.25867,1.59466 l -2.288,3.05067 q -1.31734,-0.79733 -2.73867,-1.21333 -1.42134,-0.416 -2.87734,-0.416 -1.21333,0 -1.80266,0.38133 -0.58934,0.38134 -0.58934,0.97067 0,0.728 0.90134,1.04 0.90133,0.312 3.08533,0.79733 1.976,0.45067 3.29334,0.97067 1.31733,0.52 2.08,1.17867 0.76267,0.65867 1.07467,1.49067 0.312,0.832 0.312,1.872 0,1.17867 -0.55467,2.184 -0.55467,1.00534 -1.62933,1.768 -1.04,0.728 -2.63467,1.17867 -1.56,0.416 -3.64001,0.416 z"
       style="font-weight:bold;font-family:'Source Code Pro';-inkscape-font-specification:'Source Code Pro Bold';fill:#00ff00"
       id="path456" />
    <path
       d="m 629.48203,166.8621 v -24.30135 h 5.09601 v 5.96267 l -0.27734,3.29333 h 0.104 q 0.97067,-1.00533 2.35734,-1.768 1.38667,-0.79733 3.36267,-0.79733 2.912,0 4.22934,1.872 1.352,1.872 1.352,5.13067 v 10.60801 h -5.09601 v -9.94934 q 0,-1.73334 -0.55466,-2.53067 -0.55467,-0.79733 -1.97601,-0.79733 -1.04,0 -1.83733,0.45066 -0.76267,0.45067 -1.664,1.352 v 11.47468 z"
       style="font-weight:bold;font-family:'Source Code Pro';-inkscape-font-specification:'Source Code Pro Bold';fill:#00ff00"
       id="path458" />
    <path
       d="m 680.02611,167.2781 q -2.01067,0 -3.77867,-0.58933 -1.73334,-0.624 -3.016,-1.768 -1.28267,-1.144 -2.01067,-2.80801 -0.728,-1.69866 -0.728,-3.848 0,-2.11467 0.728,-3.77867 0.76266,-1.69867 2.01067,-2.84267 1.248,-1.17867 2.84266,-1.768 1.62934,-0.624 3.36267,-0.624 1.97601,0 3.50134,0.624 1.52534,0.624 2.53067,1.73333 1.04,1.10934 1.56,2.63467 0.52,1.49067 0.52,3.25867 0,0.69334 -0.104,1.352 -0.0693,0.624 -0.13867,0.936 h -11.71734 q 0.38133,1.87201 1.69867,2.73867 1.31733,0.86667 3.432,0.86667 1.17867,0 2.21867,-0.312 1.07467,-0.312 2.21867,-0.90133 l 1.69867,3.08533 q -1.49067,0.936 -3.29334,1.49067 -1.80267,0.52 -3.536,0.52 z m -0.416,-14.14401 q -1.52534,0 -2.56534,0.79733 -1.00533,0.79734 -1.38667,2.42667 h 7.34934 q -0.38133,-3.224 -3.39733,-3.224 z"
       style="font-weight:bold;font-family:'Source Code Pro';-inkscape-font-specification:'Source Code Pro Bold';fill:#00ff00"
       id="path460" />
    <path
       d="m 701.2768,167.2781 q -2.04533,0 -3.77867,-0.58933 -1.73333,-0.624 -3.05067,-1.768 -1.28267,-1.144 -2.01067,-2.80801 -0.728,-1.69866 -0.728,-3.848 0,-2.14934 0.79734,-3.81334 0.832,-1.69866 2.184,-2.84267 1.38667,-1.144 3.18933,-1.73333 1.80267,-0.624 3.77867,-0.624 2.04534,0 3.67467,0.65867 1.66401,0.65866 2.77334,1.664 l -2.35733,3.15467 q -1.90667,-1.352 -3.81334,-1.352 -2.21867,0 -3.60534,1.31733 -1.38667,1.31733 -1.38667,3.57067 0,2.25334 1.31734,3.57067 1.352,1.31733 3.50134,1.31733 1.352,0 2.46133,-0.48533 1.144,-0.48533 2.08,-1.144 l 2.04534,3.224 q -1.56,1.31734 -3.43201,1.94134 -1.872,0.58933 -3.64,0.58933 z"
       style="font-weight:bold;font-family:'Source Code Pro';-inkscape-font-specification:'Source Code Pro Bold';fill:#00ff00"
       id="path462" />
    <path
       d="m 711.46883,166.8621 5.96267,-8.94401 -5.58134,-8.25067 h 5.47734 l 1.768,2.77333 q 0.38133,0.72801 0.86667,1.49067 0.48533,0.728 0.936,1.456 h 0.13866 q 0.34667,-0.728 0.69334,-1.49066 0.38133,-0.76267 0.728,-1.45601 l 1.52533,-2.77333 h 5.33867 l -5.616,8.84001 5.96267,8.35467 h -5.47734 l -1.976,-2.84267 q -0.48533,-0.728 -1.00533,-1.49067 -0.48534,-0.76266 -0.97067,-1.49066 h -0.13867 q -0.38133,0.728 -0.79733,1.49066 -0.416,0.728 -0.79734,1.49067 l -1.69866,2.84267 z"
       style="font-weight:bold;font-family:'Source Code Pro';-inkscape-font-specification:'Source Code Pro Bold';fill:#00ff00"
       id="path464" />
    <path
       d="m 567.08194,217.78316 v -23.57335 h 4.16 l 0.38134,1.73333 h 0.104 q 1.04,-0.936 2.392,-1.52533 1.352,-0.624 2.73867,-0.624 1.59467,0 2.87733,0.624 1.28267,0.624 2.18401,1.768 0.90133,1.144 1.352,2.77334 0.48533,1.59466 0.48533,3.57067 0,2.21866 -0.624,3.952 -0.624,1.69867 -1.664,2.912 -1.04,1.17867 -2.392,1.80267 -1.31734,0.624 -2.77334,0.624 -2.35733,0 -4.22934,-1.872 h -0.13866 l 0.24266,2.808 v 5.02667 z m 8.04267,-10.12267 q 1.45601,0 2.42667,-1.17867 0.97067,-1.21334 0.97067,-3.88267 0,-4.64534 -3.15467,-4.64534 -1.62933,0 -3.18934,1.59467 v 6.96801 q 0.72801,0.624 1.49067,0.90133 0.79734,0.24267 1.456,0.24267 z"
       style="font-weight:bold;font-family:'Source Code Pro';-inkscape-font-specification:'Source Code Pro Bold';fill:#00ff00"
       id="path466" />
    <path
       d="m 593.11664,211.82049 q -2.94667,0 -4.264,-1.872 -1.31734,-1.872 -1.31734,-5.13067 v -10.60801 h 5.09601 v 9.94934 q 0,1.73334 0.52,2.53067 0.52,0.79733 1.976,0.79733 0.97067,0 1.69867,-0.416 0.76267,-0.416 1.664,-1.56 v -11.30134 h 5.09601 v 17.19468 h -4.16001 l -0.38133,-2.46134 h -0.13867 q -1.144,1.31734 -2.53067,2.11467 -1.38667,0.76267 -3.25867,0.76267 z"
       style="font-weight:bold;font-family:'Source Code Pro';-inkscape-font-specification:'Source Code Pro Bold';fill:#00ff00"
       id="path468" />
    <path
       d="m 616.44734,211.82049 q -2.32267,0 -4.54133,-0.76267 -2.21867,-0.76266 -3.88267,-1.872 l 2.184,-3.18933 q 1.59467,1.00533 3.328,1.52533 1.73334,0.52 3.60534,0.52 1.42133,0 2.08,-0.416 0.65867,-0.416 0.65867,-1.04 0,-0.34667 -0.208,-0.624 -0.17334,-0.27734 -0.65867,-0.48534 -0.45067,-0.24266 -1.28267,-0.45066 -0.832,-0.208 -2.08,-0.48534 -3.50134,-0.76266 -5.02667,-2.04533 -1.52534,-1.31734 -1.52534,-3.328 0,-1.17867 0.55467,-2.18401 0.55467,-1.00533 1.56,-1.69866 1.04,-0.69334 2.496,-1.07467 1.45601,-0.416 3.29334,-0.416 2.32267,0 4.19467,0.76266 1.90667,0.72801 3.25867,1.59467 l -2.288,3.05067 q -1.31734,-0.79733 -2.73867,-1.21333 -1.42134,-0.416 -2.87734,-0.416 -1.21333,0 -1.80266,0.38133 -0.58934,0.38133 -0.58934,0.97067 0,0.728 0.90134,1.04 0.90133,0.312 3.08533,0.79733 1.976,0.45067 3.29334,0.97067 1.31733,0.52 2.08,1.17867 0.76267,0.65867 1.07467,1.49067 0.312,0.832 0.312,1.872 0,1.17867 -0.55467,2.184 -0.55467,1.00534 -1.62933,1.768 -1.04,0.728 -2.63467,1.17867 -1.56,0.416 -3.64001,0.416 z"
       style="font-weight:bold;font-family:'Source Code Pro';-inkscape-font-specification:'Source Code Pro Bold';fill:#00ff00"
       id="path470" />
    <path
       d="m 629.48203,211.40449 v -24.30136 h 5.09601 v 5.96268 l -0.27734,3.29333 h 0.104 q 0.97067,-1.00533 2.35734,-1.768 1.38667,-0.79733 3.36267,-0.79733 2.912,0 4.22934,1.872 1.352,1.872 1.352,5.13067 v 10.60801 h -5.09601 v -9.94934 q 0,-1.73334 -0.55466,-2.53067 -0.55467,-0.79734 -1.97601,-0.79734 -1.04,0 -1.83733,0.45067 -0.76267,0.45067 -1.664,1.352 v 11.47468 z"
       style="font-weight:bold;font-family:'Source Code Pro';-inkscape-font-specification:'Source Code Pro Bold';fill:#00ff00"
       id="path472" />
    <path
       d="m 678.98611,211.82049 q -1.90667,0 -3.46667,-0.728 -1.56,-0.76267 -2.66934,-2.21867 -1.10933,-1.456 -1.73333,-3.60534 -0.58934,-2.14933 -0.58934,-4.95733 0,-2.80801 0.58934,-4.92267 0.624,-2.11467 1.73333,-3.53601 1.10934,-1.456 2.66934,-2.14933 1.56,-0.728 3.46667,-0.728 1.90667,0 3.46667,0.728 1.56,0.69333 2.66933,2.14933 1.10934,1.42134 1.69867,3.53601 0.624,2.11466 0.624,4.92267 0,2.808 -0.624,4.95733 -0.58933,2.14934 -1.69867,3.60534 -1.10933,1.456 -2.66933,2.21867 -1.56,0.728 -3.46667,0.728 z m 0,-3.952 q 0.832,0 1.52533,-0.38134 0.728,-0.38133 1.248,-1.248 0.52,-0.90133 0.832,-2.32267 0.312,-1.456 0.312,-3.60533 0,-2.14934 -0.312,-3.57067 -0.312,-1.42134 -0.832,-2.25334 -0.52,-0.86667 -1.248,-1.21333 -0.69333,-0.34667 -1.52533,-0.34667 -0.832,0 -1.56,0.34667 -0.69334,0.34666 -1.21334,1.21333 -0.52,0.832 -0.832,2.25334 -0.312,1.42133 -0.312,3.57067 0,2.14933 0.312,3.60533 0.312,1.42134 0.832,2.32267 0.52,0.86667 1.21334,1.248 0.728,0.38134 1.56,0.38134 z m 0,-4.99201 q -1.10934,0 -1.872,-0.69333 -0.72801,-0.728 -0.72801,-1.94134 0,-1.21333 0.72801,-1.90667 0.76266,-0.728 1.872,-0.728 1.10933,0 1.83733,0.728 0.76267,0.69334 0.76267,1.90667 0,1.21334 -0.76267,1.94134 -0.728,0.69333 -1.83733,0.69333 z"
       style="font-weight:bold;font-family:'Source Code Pro';-inkscape-font-specification:'Source Code Pro Bold';fill:#00ff00"
       id="path474" />
    <path
       d="m 690.66879,211.40449 5.96267,-8.94401 -5.58133,-8.25067 h 5.47733 l 1.76801,2.77333 q 0.38133,0.728 0.86666,1.49067 0.48534,0.728 0.936,1.456 h 0.13867 q 0.34667,-0.728 0.69333,-1.49067 0.38134,-0.76266 0.728,-1.456 l 1.52534,-2.77333 h 5.33867 l -5.616,8.84001 5.96267,8.35467 h -5.47734 l -1.976,-2.84267 q -0.48534,-0.728 -1.00534,-1.49067 -0.48533,-0.76266 -0.97066,-1.49067 h -0.13867 q -0.38133,0.72801 -0.79733,1.49067 -0.41601,0.728 -0.79734,1.49067 l -1.69867,2.84267 z"
       style="font-weight:bold;font-family:'Source Code Pro';-inkscape-font-specification:'Source Code Pro Bold';fill:#00ff00"
       id="path476" />
    <path
       d="m 712.19683,211.40449 v -2.912 q 2.35733,-1.976 4.29867,-3.67467 1.94133,-1.73334 3.328,-3.22401 1.38667,-1.49066 2.14933,-2.808 0.76267,-1.31733 0.76267,-2.496 0,-1.62934 -0.936,-2.46134 -0.936,-0.86666 -2.66933,-0.86666 -1.31734,0 -2.42667,0.69333 -1.07467,0.65867 -2.01067,1.56 l -2.73867,-2.73867 q 0.86667,-0.86666 1.69867,-1.52533 0.86666,-0.65867 1.80267,-1.07467 0.97066,-0.45067 2.01066,-0.65867 1.07467,-0.24266 2.35734,-0.24266 1.73333,0 3.15467,0.52 1.42133,0.48533 2.42667,1.42133 1.04,0.90134 1.59467,2.184 0.58933,1.28267 0.58933,2.87734 0,1.38667 -0.65867,2.84267 -0.65866,1.42133 -1.80267,2.87733 -1.10933,1.42134 -2.56533,2.87734 -1.456,1.42134 -3.05067,2.808 0.936,-0.104 2.01067,-0.17333 1.10933,-0.104 1.976,-0.104 h 5.23467 v 4.29867 z"
       style="font-weight:bold;font-family:'Source Code Pro';-inkscape-font-specification:'Source Code Pro Bold';fill:#00ff00"
       id="path478" />
    <path
       d="m 741.3862,211.82049 q -1.90667,0 -3.46667,-0.728 -1.56,-0.76267 -2.66934,-2.21867 -1.10933,-1.456 -1.73333,-3.60534 -0.58933,-2.14933 -0.58933,-4.95733 0,-2.80801 0.58933,-4.92267 0.624,-2.11467 1.73333,-3.53601 1.10934,-1.456 2.66934,-2.14933 1.56,-0.728 3.46667,-0.728 1.90667,0 3.46667,0.728 1.56,0.69333 2.66934,2.14933 1.10933,1.42134 1.69866,3.53601 0.624,2.11466 0.624,4.92267 0,2.808 -0.624,4.95733 -0.58933,2.14934 -1.69866,3.60534 -1.10934,1.456 -2.66934,2.21867 -1.56,0.728 -3.46667,0.728 z m 0,-3.952 q 0.832,0 1.52534,-0.38134 0.728,-0.38133 1.248,-1.248 0.52,-0.90133 0.832,-2.32267 0.312,-1.456 0.312,-3.60533 0,-2.14934 -0.312,-3.57067 -0.312,-1.42134 -0.832,-2.25334 -0.52,-0.86667 -1.248,-1.21333 -0.69334,-0.34667 -1.52534,-0.34667 -0.832,0 -1.56,0.34667 -0.69334,0.34666 -1.21334,1.21333 -0.52,0.832 -0.832,2.25334 -0.312,1.42133 -0.312,3.57067 0,2.14933 0.312,3.60533 0.312,1.42134 0.832,2.32267 0.52,0.86667 1.21334,1.248 0.728,0.38134 1.56,0.38134 z m 0,-4.99201 q -1.10933,0 -1.872,-0.69333 -0.728,-0.728 -0.728,-1.94134 0,-1.21333 0.728,-1.90667 0.76267,-0.728 1.872,-0.728 1.10933,0 1.83734,0.728 0.76266,0.69334 0.76266,1.90667 0,1.21334 -0.76266,1.94134 -0.72801,0.69333 -1.83734,0.69333 z"
       style="font-weight:bold;font-family:'Source Code Pro';-inkscape-font-specification:'Source Code Pro Bold';fill:#00ff00"
       id="path480" />
    <path
       d="m 762.77557,211.82049 q -1.69867,0 -3.29334,-0.624 -1.59467,-0.624 -2.84267,-1.94134 -1.248,-1.31733 -2.01067,-3.36266 -0.76266,-2.08001 -0.76266,-4.99201 0,-3.08534 0.79733,-5.33867 0.79733,-2.25334 2.11467,-3.70934 1.352,-1.456 3.05067,-2.14933 1.69867,-0.728 3.536,-0.728 2.35734,0 4.12534,0.79733 1.768,0.76267 2.87733,1.83734 l -2.66933,3.05066 q -0.69334,-0.624 -1.73334,-1.07466 -1.04,-0.48534 -2.14933,-0.48534 -1.00534,0 -1.94134,0.38134 -0.90133,0.34666 -1.62933,1.17866 -0.69334,0.79734 -1.144,2.11467 -0.45067,1.31734 -0.52,3.25867 1.17867,-1.144 2.6,-1.768 1.456,-0.624 2.704,-0.624 1.456,0 2.66934,0.416 1.248,0.416 2.14933,1.248 0.936,0.832 1.456,2.11467 0.52001,1.28267 0.52001,3.016 0,1.73334 -0.65867,3.08534 -0.624,1.352 -1.73334,2.32267 -1.07466,0.97067 -2.496,1.49067 -1.42133,0.48533 -3.016,0.48533 z m -0.104,-3.81334 q 0.65866,0 1.248,-0.208 0.624,-0.208 1.07467,-0.624 0.48533,-0.45066 0.76266,-1.10933 0.27734,-0.69334 0.27734,-1.62934 0,-1.69866 -0.90134,-2.42667 -0.90133,-0.76266 -2.35733,-0.76266 -0.97067,0 -2.01067,0.48533 -1.04,0.48534 -2.04534,1.664 0.208,1.31734 0.58934,2.21867 0.416,0.86667 0.936,1.42134 0.52,0.52 1.144,0.76266 0.624,0.208 1.28267,0.208 z"
       style="font-weight:bold;font-family:'Source Code Pro';-inkscape-font-specification:'Source Code Pro Bold';fill:#00ff00"
       id="path482" />
    <path
       d="m 782.39693,211.82049 q -2.87733,0 -4.888,-0.86667 -1.976,-0.90133 -3.328,-2.21867 l 2.288,-3.224 q 1.10933,0.90134 2.35733,1.56 1.28267,0.624 2.84267,0.624 1.872,0 3.05067,-0.86666 1.21334,-0.86667 1.21334,-2.56534 0,-1.664 -1.144,-2.53067 -1.10934,-0.86667 -2.87734,-0.86667 -0.55467,0 -1.00533,0.0693 -0.416,0.0347 -0.83201,0.17333 -0.416,0.13867 -0.86666,0.34667 -0.45067,0.208 -1.00534,0.52 l -2.25333,-1.456 0.58933,-11.12801 h 13.48535 v 4.29867 h -9.08268 l -0.38133,4.12533 q 0.76267,-0.27733 1.42133,-0.38133 0.65867,-0.13867 1.49067,-0.13867 1.52534,0 2.87734,0.416 1.38667,0.416 2.42667,1.24801 1.04,0.832 1.62933,2.11466 0.624,1.28267 0.624,3.05067 0,1.83734 -0.728,3.25867 -0.69333,1.42134 -1.90667,2.42667 -1.17867,0.97067 -2.73867,1.49067 -1.56,0.52 -3.25867,0.52 z"
       style="font-weight:bold;font-family:'Source Code Pro';-inkscape-font-specification:'Source Code Pro Bold';fill:#00ff00"
       id="path484" />
    <path
       d="m 800.07696,211.40449 q 0.13867,-2.73867 0.52,-5.02667 0.41601,-2.32267 1.14401,-4.40267 0.76266,-2.11467 1.94133,-4.09067 1.17867,-2.01067 2.912,-4.19467 h -11.05867 v -4.29867 h 16.53601 v 3.12 q -2.08,2.32267 -3.36267,4.368 -1.28267,2.01067 -2.01067,4.19467 -0.728,2.14934 -1.04,4.64534 -0.312,2.46134 -0.45066,5.68534 z"
       style="font-weight:bold;font-family:'Source Code Pro';-inkscape-font-specification:'Source Code Pro Bold';fill:#00ff00"
       id="path486" />
    <path
       d="m 824.55165,211.82049 q -1.90667,0 -3.432,-0.416 -1.52534,-0.45067 -2.6,-1.248 -1.07467,-0.79734 -1.664,-1.90667 -0.55467,-1.10933 -0.55467,-2.46133 0,-1.00534 0.312,-1.80267 0.34667,-0.832 0.90133,-1.49067 0.58934,-0.65867 1.31734,-1.17867 0.76266,-0.52 1.62933,-0.936 v -0.13867 q -1.38667,-0.97066 -2.32267,-2.184 -0.90133,-1.248 -0.90133,-3.016 0,-1.38667 0.55467,-2.496 0.55466,-1.144 1.52533,-1.94134 1.00534,-0.79733 2.392,-1.21333 1.38667,-0.416 3.01601,-0.416 1.664,0 2.98133,0.45066 1.352,0.416 2.288,1.21334 0.93601,0.76267 1.42134,1.90667 0.52,1.10933 0.52,2.46133 0,1.56 -0.936,2.77334 -0.90134,1.21333 -2.21867,2.04533 v 0.13867 q 0.86667,0.416 1.62933,0.97067 0.76267,0.52 1.31734,1.21333 0.55467,0.69334 0.86667,1.59467 0.312,0.86667 0.312,1.976 0,1.31734 -0.55467,2.42667 -0.55467,1.10933 -1.62934,1.94134 -1.04,0.79733 -2.6,1.28266 -1.56,0.45067 -3.57067,0.45067 z m 1.52534,-13.24268 q 1.664,-1.49067 1.664,-3.224 0,-1.28267 -0.79734,-2.04534 -0.79733,-0.79733 -2.32266,-0.79733 -1.21334,0 -2.08001,0.624 -0.832,0.624 -0.832,1.90667 0,1.352 1.21334,2.11467 1.21333,0.76266 3.15467,1.42133 z m -1.38667,9.70668 q 1.56,0 2.496,-0.65867 0.97067,-0.69333 0.97067,-2.08 0,-0.76267 -0.38133,-1.28267 -0.38134,-0.52 -1.10934,-0.936 -0.69333,-0.45067 -1.664,-0.79733 -0.97067,-0.38134 -2.14934,-0.83201 -0.936,0.69334 -1.56,1.56001 -0.58933,0.86666 -0.58933,1.94133 0,1.456 1.144,2.288 1.144,0.79734 2.84267,0.79734 z"
       style="font-weight:bold;font-family:'Source Code Pro';-inkscape-font-specification:'Source Code Pro Bold';fill:#00ff00"
       id="path488" />
    <path
       d="m 845.9757,211.82049 q -1.69867,0 -3.29333,-0.624 -1.59467,-0.624 -2.84267,-1.94134 -1.248,-1.31733 -2.01067,-3.36266 -0.76267,-2.08001 -0.76267,-4.99201 0,-3.08534 0.79733,-5.33867 0.79734,-2.25334 2.11467,-3.70934 1.352,-1.456 3.05067,-2.14933 1.69867,-0.728 3.53601,-0.728 2.35733,0 4.12533,0.79733 1.768,0.76267 2.87734,1.83734 l -2.66934,3.05066 q -0.69333,-0.624 -1.73333,-1.07466 -1.04,-0.48534 -2.14934,-0.48534 -1.00533,0 -1.94133,0.38134 -0.90134,0.34666 -1.62934,1.17866 -0.69333,0.79734 -1.144,2.11467 -0.45067,1.31734 -0.52,3.25867 1.17867,-1.144 2.6,-1.768 1.45601,-0.624 2.70401,-0.624 1.456,0 2.66933,0.416 1.248,0.416 2.14934,1.248 0.936,0.832 1.456,2.11467 0.52,1.28267 0.52,3.016 0,1.73334 -0.65867,3.08534 -0.624,1.352 -1.73333,2.32267 -1.07467,0.97067 -2.49601,1.49067 -1.42133,0.48533 -3.016,0.48533 z m -0.104,-3.81334 q 0.65867,0 1.248,-0.208 0.624,-0.208 1.07467,-0.624 0.48533,-0.45066 0.76267,-1.10933 0.27733,-0.69334 0.27733,-1.62934 0,-1.69866 -0.90133,-2.42667 -0.90134,-0.76266 -2.35734,-0.76266 -0.97067,0 -2.01067,0.48533 -1.04,0.48534 -2.04533,1.664 0.208,1.31734 0.58933,2.21867 0.416,0.86667 0.936,1.42134 0.52,0.52 1.144,0.76266 0.624,0.208 1.28267,0.208 z"
       style="font-weight:bold;font-family:'Source Code Pro';-inkscape-font-specification:'Source Code Pro Bold';fill:#00ff00"
       id="path490" />
    <path
       d="m 865.59705,211.82049 q -2.87733,0 -4.888,-0.86667 -1.976,-0.90133 -3.328,-2.21867 l 2.288,-3.224 q 1.10933,0.90134 2.35733,1.56 1.28267,0.624 2.84267,0.624 1.872,0 3.05067,-0.86666 1.21334,-0.86667 1.21334,-2.56534 0,-1.664 -1.14401,-2.53067 -1.10933,-0.86667 -2.87733,-0.86667 -0.55467,0 -1.00534,0.0693 -0.416,0.0347 -0.832,0.17333 -0.416,0.13867 -0.86666,0.34667 -0.45067,0.208 -1.00534,0.52 l -2.25333,-1.456 0.58933,-11.12801 h 13.48535 v 4.29867 h -9.08268 l -0.38133,4.12533 q 0.76266,-0.27733 1.42133,-0.38133 0.65867,-0.13867 1.49067,-0.13867 1.52534,0 2.87734,0.416 1.38666,0.416 2.42667,1.24801 1.04,0.832 1.62933,2.11466 0.624,1.28267 0.624,3.05067 0,1.83734 -0.728,3.25867 -0.69333,1.42134 -1.90667,2.42667 -1.17867,0.97067 -2.73867,1.49067 -1.56,0.52 -3.25867,0.52 z"
       style="font-weight:bold;font-family:'Source Code Pro';-inkscape-font-specification:'Source Code Pro Bold';fill:#00ff00"
       id="path492" />
    <path
       d="M 567.08194,262.32555 V 238.7522 h 4.16 l 0.38134,1.73333 h 0.104 q 1.04,-0.936 2.392,-1.52533 1.352,-0.624 2.73867,-0.624 1.59467,0 2.87733,0.624 1.28267,0.624 2.18401,1.768 0.90133,1.144 1.352,2.77333 0.48533,1.59467 0.48533,3.57067 0,2.21867 -0.624,3.95201 -0.624,1.69867 -1.664,2.912 -1.04,1.17867 -2.392,1.80267 -1.31734,0.624 -2.77334,0.624 -2.35733,0 -4.22934,-1.872 h -0.13866 l 0.24266,2.808 v 5.02667 z m 8.04267,-10.12267 q 1.45601,0 2.42667,-1.17867 0.97067,-1.21334 0.97067,-3.88267 0,-4.64534 -3.15467,-4.64534 -1.62933,0 -3.18934,1.59467 v 6.968 q 0.72801,0.62401 1.49067,0.90134 0.79734,0.24267 1.456,0.24267 z"
       style="font-weight:bold;font-family:'Source Code Pro';-inkscape-font-specification:'Source Code Pro Bold';fill:#00ff00"
       id="path494" />
    <path
       d="m 593.11664,256.36288 q -2.94667,0 -4.264,-1.872 -1.31734,-1.872 -1.31734,-5.13067 V 238.7522 h 5.09601 v 9.94934 q 0,1.73333 0.52,2.53067 0.52,0.79733 1.976,0.79733 0.97067,0 1.69867,-0.416 0.76267,-0.416 1.664,-1.56 V 238.7522 h 5.09601 v 17.19468 h -4.16001 l -0.38133,-2.46134 h -0.13867 q -1.144,1.31734 -2.53067,2.11467 -1.38667,0.76267 -3.25867,0.76267 z"
       style="font-weight:bold;font-family:'Source Code Pro';-inkscape-font-specification:'Source Code Pro Bold';fill:#00ff00"
       id="path496" />
    <path
       d="m 616.44734,256.36288 q -2.32267,0 -4.54133,-0.76267 -2.21867,-0.76267 -3.88267,-1.872 l 2.184,-3.18934 q 1.59467,1.00534 3.328,1.52534 1.73334,0.52 3.60534,0.52 1.42133,0 2.08,-0.416 0.65867,-0.416 0.65867,-1.04 0,-0.34667 -0.208,-0.624 -0.17334,-0.27734 -0.65867,-0.48534 -0.45067,-0.24266 -1.28267,-0.45066 -0.832,-0.208 -2.08,-0.48534 -3.50134,-0.76266 -5.02667,-2.04533 -1.52534,-1.31734 -1.52534,-3.32801 0,-1.17866 0.55467,-2.184 0.55467,-1.00533 1.56,-1.69867 1.04,-0.69333 2.496,-1.07466 1.45601,-0.416 3.29334,-0.416 2.32267,0 4.19467,0.76266 1.90667,0.728 3.25867,1.59467 l -2.288,3.05067 q -1.31734,-0.79733 -2.73867,-1.21333 -1.42134,-0.416 -2.87734,-0.416 -1.21333,0 -1.80266,0.38133 -0.58934,0.38133 -0.58934,0.97067 0,0.728 0.90134,1.04 0.90133,0.312 3.08533,0.79733 1.976,0.45067 3.29334,0.97067 1.31733,0.52 2.08,1.17867 0.76267,0.65867 1.07467,1.49067 0.312,0.832 0.312,1.872 0,1.17867 -0.55467,2.184 -0.55467,1.00533 -1.62933,1.768 -1.04,0.728 -2.63467,1.17867 -1.56,0.416 -3.64001,0.416 z"
       style="font-weight:bold;font-family:'Source Code Pro';-inkscape-font-specification:'Source Code Pro Bold';fill:#00ff00"
       id="path498" />
    <path
       d="m 629.48203,255.94688 v -24.30136 h 5.09601 v 5.96268 l -0.27734,3.29333 h 0.104 q 0.97067,-1.00533 2.35734,-1.768 1.38667,-0.79733 3.36267,-0.79733 2.912,0 4.22934,1.872 1.352,1.872 1.352,5.13067 v 10.60801 h -5.09601 v -9.94934 q 0,-1.73334 -0.55466,-2.53067 -0.55467,-0.79734 -1.97601,-0.79734 -1.04,0 -1.83733,0.45067 -0.76267,0.45067 -1.664,1.352 v 11.47468 z"
       style="font-weight:bold;font-family:'Source Code Pro';-inkscape-font-specification:'Source Code Pro Bold';fill:#00ff00"
       id="path500" />
    <path
       d="m 678.98611,256.36288 q -1.90667,0 -3.46667,-0.728 -1.56,-0.76267 -2.66934,-2.21867 -1.10933,-1.456 -1.73333,-3.60534 -0.58934,-2.14933 -0.58934,-4.95733 0,-2.80801 0.58934,-4.92268 0.624,-2.11466 1.73333,-3.536 1.10934,-1.456 2.66934,-2.14933 1.56,-0.728 3.46667,-0.728 1.90667,0 3.46667,0.728 1.56,0.69333 2.66933,2.14933 1.10934,1.42134 1.69867,3.536 0.624,2.11467 0.624,4.92268 0,2.808 -0.624,4.95733 -0.58933,2.14934 -1.69867,3.60534 -1.10933,1.456 -2.66933,2.21867 -1.56,0.728 -3.46667,0.728 z m 0,-3.952 q 0.832,0 1.52533,-0.38134 0.728,-0.38133 1.248,-1.248 0.52,-0.90133 0.832,-2.32267 0.312,-1.456 0.312,-3.60533 0,-2.14934 -0.312,-3.57067 -0.312,-1.42134 -0.832,-2.25334 -0.52,-0.86667 -1.248,-1.21333 -0.69333,-0.34667 -1.52533,-0.34667 -0.832,0 -1.56,0.34667 -0.69334,0.34666 -1.21334,1.21333 -0.52,0.832 -0.832,2.25334 -0.312,1.42133 -0.312,3.57067 0,2.14933 0.312,3.60533 0.312,1.42134 0.832,2.32267 0.52,0.86667 1.21334,1.248 0.728,0.38134 1.56,0.38134 z m 0,-4.99201 q -1.10934,0 -1.872,-0.69333 -0.72801,-0.728 -0.72801,-1.94134 0,-1.21333 0.72801,-1.90667 0.76266,-0.728 1.872,-0.728 1.10933,0 1.83733,0.728 0.76267,0.69334 0.76267,1.90667 0,1.21334 -0.76267,1.94134 -0.728,0.69333 -1.83733,0.69333 z"
       style="font-weight:bold;font-family:'Source Code Pro';-inkscape-font-specification:'Source Code Pro Bold';fill:#00ff00"
       id="path502" />
    <path
       d="m 690.66879,255.94688 5.96267,-8.94401 -5.58133,-8.25067 h 5.47733 l 1.76801,2.77333 q 0.38133,0.728 0.86666,1.49067 0.48534,0.728 0.936,1.456 h 0.13867 q 0.34667,-0.728 0.69333,-1.49067 0.38134,-0.76266 0.728,-1.456 l 1.52534,-2.77333 h 5.33867 l -5.616,8.84 5.96267,8.35468 h -5.47734 l -1.976,-2.84267 q -0.48534,-0.728 -1.00534,-1.49067 -0.48533,-0.76267 -0.97066,-1.49067 h -0.13867 q -0.38133,0.728 -0.79733,1.49067 -0.41601,0.728 -0.79734,1.49067 l -1.69867,2.84267 z"
       style="font-weight:bold;font-family:'Source Code Pro';-inkscape-font-specification:'Source Code Pro Bold';fill:#00ff00"
       id="path504" />
    <path
       d="m 712.19683,255.94688 v -2.912 q 2.35733,-1.97601 4.29867,-3.67467 1.94133,-1.73334 3.328,-3.22401 1.38667,-1.49066 2.14933,-2.808 0.76267,-1.31733 0.76267,-2.496 0,-1.62934 -0.936,-2.46134 -0.936,-0.86666 -2.66933,-0.86666 -1.31734,0 -2.42667,0.69333 -1.07467,0.65867 -2.01067,1.56 l -2.73867,-2.73867 q 0.86667,-0.86667 1.69867,-1.52533 0.86666,-0.65867 1.80267,-1.07467 0.97066,-0.45067 2.01066,-0.65867 1.07467,-0.24266 2.35734,-0.24266 1.73333,0 3.15467,0.52 1.42133,0.48533 2.42667,1.42133 1.04,0.90133 1.59467,2.184 0.58933,1.28267 0.58933,2.87734 0,1.38667 -0.65867,2.84267 -0.65866,1.42133 -1.80267,2.87733 -1.10933,1.42134 -2.56533,2.87734 -1.456,1.42133 -3.05067,2.808 0.936,-0.104 2.01067,-0.17333 1.10933,-0.104 1.976,-0.104 h 5.23467 v 4.29867 z"
       style="font-weight:bold;font-family:'Source Code Pro';-inkscape-font-specification:'Source Code Pro Bold';fill:#00ff00"
       id="path506" />
    <path
       d="m 742.4262,256.36288 q -2.01067,0 -3.77867,-0.58933 -1.73333,-0.624 -3.016,-1.76801 -1.28267,-1.144 -2.01067,-2.808 -0.728,-1.69867 -0.728,-3.848 0,-2.11467 0.728,-3.77867 0.76267,-1.69867 2.01067,-2.84267 1.248,-1.17867 2.84267,-1.768 1.62933,-0.624 3.36267,-0.624 1.976,0 3.50133,0.624 1.52534,0.624 2.53067,1.73333 1.04,1.10934 1.56,2.63467 0.52,1.49067 0.52,3.25867 0,0.69333 -0.104,1.352 -0.0693,0.624 -0.13866,0.936 h -11.71735 q 0.38134,1.872 1.69867,2.73867 1.31734,0.86667 3.43201,0.86667 1.17866,0 2.21866,-0.312 1.07467,-0.312 2.21867,-0.90134 l 1.69867,3.08534 q -1.49067,0.936 -3.29334,1.49067 -1.80266,0.52 -3.536,0.52 z m -0.416,-14.14401 q -1.52533,0 -2.56533,0.79733 -1.00534,0.79733 -1.38667,2.42667 h 7.34934 q -0.38134,-3.224 -3.39734,-3.224 z"
       style="font-weight:bold;font-family:'Source Code Pro';-inkscape-font-specification:'Source Code Pro Bold';fill:#00ff00"
       id="path508" />
    <path
       d="m 762.77557,256.36288 q -1.69867,0 -3.29334,-0.624 -1.59467,-0.624 -2.84267,-1.94134 -1.248,-1.31733 -2.01067,-3.36267 -0.76266,-2.08 -0.76266,-4.992 0,-3.08534 0.79733,-5.33867 0.79733,-2.25334 2.11467,-3.70934 1.352,-1.456 3.05067,-2.14933 1.69867,-0.728 3.536,-0.728 2.35734,0 4.12534,0.79733 1.768,0.76267 2.87733,1.83733 l -2.66933,3.05067 q -0.69334,-0.624 -1.73334,-1.07466 -1.04,-0.48534 -2.14933,-0.48534 -1.00534,0 -1.94134,0.38134 -0.90133,0.34666 -1.62933,1.17866 -0.69334,0.79734 -1.144,2.11467 -0.45067,1.31734 -0.52,3.25867 1.17867,-1.144 2.6,-1.768 1.456,-0.624 2.704,-0.624 1.456,0 2.66934,0.416 1.248,0.416 2.14933,1.248 0.936,0.832 1.456,2.11467 0.52001,1.28267 0.52001,3.016 0,1.73334 -0.65867,3.08534 -0.624,1.352 -1.73334,2.32267 -1.07466,0.97067 -2.496,1.49067 -1.42133,0.48533 -3.016,0.48533 z m -0.104,-3.81334 q 0.65866,0 1.248,-0.208 0.624,-0.208 1.07467,-0.624 0.48533,-0.45067 0.76266,-1.10933 0.27734,-0.69334 0.27734,-1.62934 0,-1.69867 -0.90134,-2.42667 -0.90133,-0.76266 -2.35733,-0.76266 -0.97067,0 -2.01067,0.48533 -1.04,0.48533 -2.04534,1.664 0.208,1.31734 0.58934,2.21867 0.416,0.86667 0.936,1.42134 0.52,0.52 1.144,0.76266 0.624,0.208 1.28267,0.208 z"
       style="font-weight:bold;font-family:'Source Code Pro';-inkscape-font-specification:'Source Code Pro Bold';fill:#00ff00"
       id="path510" />
    <path
       d="m 784.4076,255.94688 v -5.26934 h -10.60801 v -3.50134 l 9.18668,-13.24267 h 6.17067 v 12.86134 h 2.77334 v 3.88267 h -2.77334 v 5.26934 z m -5.68534,-9.15201 h 5.68534 v -3.70934 q 0,-1.04 0.0347,-2.392 0.0693,-1.38667 0.13867,-2.42667 h -0.13867 q -0.55467,0.936 -1.17867,1.872 -0.624,0.93601 -1.21333,1.87201 z"
       style="font-weight:bold;font-family:'Source Code Pro';-inkscape-font-specification:'Source Code Pro Bold';fill:#00ff00"
       id="path512" />
    <path
       d="m 804.37563,256.36288 q -1.69866,0 -3.29333,-0.624 -1.59467,-0.624 -2.84267,-1.94134 -1.248,-1.31733 -2.01067,-3.36267 -0.76267,-2.08 -0.76267,-4.992 0,-3.08534 0.79734,-5.33867 0.79733,-2.25334 2.11467,-3.70934 1.352,-1.456 3.05067,-2.14933 1.69866,-0.728 3.536,-0.728 2.35733,0 4.12534,0.79733 1.768,0.76267 2.87733,1.83733 l -2.66933,3.05067 q -0.69334,-0.624 -1.73334,-1.07466 -1.04,-0.48534 -2.14933,-0.48534 -1.00534,0 -1.94134,0.38134 -0.90133,0.34666 -1.62933,1.17866 -0.69334,0.79734 -1.14401,2.11467 -0.45066,1.31734 -0.52,3.25867 1.17867,-1.144 2.60001,-1.768 1.456,-0.624 2.704,-0.624 1.456,0 2.66934,0.416 1.248,0.416 2.14933,1.248 0.936,0.832 1.456,2.11467 0.52,1.28267 0.52,3.016 0,1.73334 -0.65867,3.08534 -0.624,1.352 -1.73333,2.32267 -1.07467,0.97067 -2.496,1.49067 -1.42134,0.48533 -3.01601,0.48533 z m -0.104,-3.81334 q 0.65867,0 1.24801,-0.208 0.624,-0.208 1.07466,-0.624 0.48534,-0.45067 0.76267,-1.10933 0.27733,-0.69334 0.27733,-1.62934 0,-1.69867 -0.90133,-2.42667 -0.90133,-0.76266 -2.35734,-0.76266 -0.97066,0 -2.01066,0.48533 -1.04,0.48533 -2.04534,1.664 0.208,1.31734 0.58934,2.21867 0.416,0.86667 0.936,1.42134 0.52,0.52 1.144,0.76266 0.624,0.208 1.28266,0.208 z"
       style="font-weight:bold;font-family:'Source Code Pro';-inkscape-font-specification:'Source Code Pro Bold';fill:#00ff00"
       id="path514" />
    <path
       d="m 823.06098,256.36288 q -1.62933,0 -2.98133,-0.624 -1.31734,-0.624 -2.288,-1.768 -0.936,-1.17867 -1.456,-2.84267 -0.52001,-1.664 -0.52001,-3.77867 0,-2.11467 0.62401,-3.77867 0.624,-1.664 1.62933,-2.808 1.04,-1.17867 2.35734,-1.80267 1.31733,-0.624 2.73866,-0.624 1.45601,0 2.46134,0.48533 1.00533,0.45067 1.872,1.352 h 0.13867 l -0.24267,-2.66933 v -5.85868 h 5.09601 v 24.30136 h -4.16001 l -0.38133,-1.768 h -0.104 q -0.97067,0.936 -2.21867,1.56 -1.248,0.624 -2.56534,0.624 z m 1.31734,-4.16 q 0.86667,0 1.59467,-0.34667 0.728,-0.38133 1.42133,-1.248 v -6.96801 q -0.69333,-0.624 -1.42133,-0.86667 -0.69334,-0.27733 -1.456,-0.27733 -1.42134,0 -2.46134,1.17867 -1.00533,1.17867 -1.00533,3.60533 0,2.56534 0.86666,3.74401 0.86667,1.17867 2.46134,1.17867 z"
       style="font-weight:bold;font-family:'Source Code Pro';-inkscape-font-specification:'Source Code Pro Bold';fill:#00ff00"
       id="path516" />
    <path
       d="m 845.9757,256.36288 q -1.69867,0 -3.29333,-0.624 -1.59467,-0.624 -2.84267,-1.94134 -1.248,-1.31733 -2.01067,-3.36267 -0.76267,-2.08 -0.76267,-4.992 0,-3.08534 0.79733,-5.33867 0.79734,-2.25334 2.11467,-3.70934 1.352,-1.456 3.05067,-2.14933 1.69867,-0.728 3.53601,-0.728 2.35733,0 4.12533,0.79733 1.768,0.76267 2.87734,1.83733 l -2.66934,3.05067 q -0.69333,-0.624 -1.73333,-1.07466 -1.04,-0.48534 -2.14934,-0.48534 -1.00533,0 -1.94133,0.38134 -0.90134,0.34666 -1.62934,1.17866 -0.69333,0.79734 -1.144,2.11467 -0.45067,1.31734 -0.52,3.25867 1.17867,-1.144 2.6,-1.768 1.45601,-0.624 2.70401,-0.624 1.456,0 2.66933,0.416 1.248,0.416 2.14934,1.248 0.936,0.832 1.456,2.11467 0.52,1.28267 0.52,3.016 0,1.73334 -0.65867,3.08534 -0.624,1.352 -1.73333,2.32267 -1.07467,0.97067 -2.49601,1.49067 -1.42133,0.48533 -3.016,0.48533 z m -0.104,-3.81334 q 0.65867,0 1.248,-0.208 0.624,-0.208 1.07467,-0.624 0.48533,-0.45067 0.76267,-1.10933 0.27733,-0.69334 0.27733,-1.62934 0,-1.69867 -0.90133,-2.42667 -0.90134,-0.76266 -2.35734,-0.76266 -0.97067,0 -2.01067,0.48533 -1.04,0.48533 -2.04533,1.664 0.208,1.31734 0.58933,2.21867 0.416,0.86667 0.936,1.42134 0.52,0.52 1.144,0.76266 0.624,0.208 1.28267,0.208 z"
       style="font-weight:bold;font-family:'Source Code Pro';-inkscape-font-specification:'Source Code Pro Bold';fill:#00ff00"
       id="path518" />
    <path
       d="m 865.45839,256.36288 q -2.84267,0 -4.88801,-0.832 -2.04533,-0.86667 -3.328,-2.288 l 2.35733,-3.22401 q 1.10934,0.97067 2.46134,1.59467 1.38667,0.624 2.912,0.624 1.80267,0 2.94667,-0.65866 1.17867,-0.69334 1.17867,-1.94134 0,-0.728 -0.312,-1.31733 -0.312,-0.58934 -1.07467,-0.97067 -0.76267,-0.416 -2.04533,-0.624 -1.28267,-0.24267 -3.22401,-0.24267 v -3.60534 q 3.25867,0 4.57601,-0.79733 1.352,-0.832 1.352,-2.14934 0,-1.144 -0.86667,-1.768 -0.86667,-0.65866 -2.392,-0.65866 -1.31734,0 -2.42667,0.52 -1.10933,0.52 -2.25334,1.42133 l -2.56533,-3.12 q 1.62933,-1.31734 3.46667,-2.04534 1.872,-0.76266 4.02134,-0.76266 1.80266,0 3.29333,0.416 1.49067,0.38133 2.56534,1.17866 1.07467,0.76267 1.664,1.87201 0.58933,1.10933 0.58933,2.56533 0,1.73334 -1.10933,2.94667 -1.10934,1.17867 -3.08534,1.94134 v 0.13866 q 2.08,0.55467 3.50134,1.90667 1.42133,1.31733 1.42133,3.46667 0,1.52534 -0.728,2.73867 -0.69333,1.17867 -1.90667,2.01067 -1.17866,0.79733 -2.77333,1.248 -1.59467,0.416 -3.328,0.416 z"
       style="font-weight:bold;font-family:'Source Code Pro';-inkscape-font-specification:'Source Code Pro Bold';fill:#00ff00"
       id="path520" />
    <path
       d="m 565.79927,345.03166 v -17.19469 h 3.84801 l 0.34666,2.11467 h 0.13867 q 0.48533,-1.04 1.352,-1.768 0.86667,-0.76267 2.35734,-0.76267 1.10933,0 1.872,0.728 0.79733,0.69334 1.10933,2.08001 0.48534,-1.17867 1.38667,-1.97601 0.936,-0.832 2.42667,-0.832 1.872,0 2.84267,1.49067 1.00533,1.456 1.00533,4.05601 v 12.06401 h -4.85334 v -11.71735 q 0,-0.79733 -0.208,-1.17866 -0.208,-0.38134 -0.728,-0.38134 -0.48533,0 -0.832,0.416 -0.34666,0.416 -0.728,1.248 v 11.61335 h -3.98667 v -11.71735 q 0,-1.56 -0.97067,-1.56 -0.48533,0 -0.832,0.416 -0.34666,0.416 -0.69333,1.248 v 11.61335 z"
       style="font-weight:bold;font-family:'Source Code Pro';-inkscape-font-specification:'Source Code Pro Bold';fill:#00ff00"
       id="path522" />
    <path
       d="m 595.78598,345.44766 q -1.69867,0 -3.29334,-0.58934 -1.56,-0.624 -2.808,-1.768 -1.21333,-1.144 -1.94134,-2.808 -0.728,-1.69867 -0.728,-3.848 0,-2.14934 0.728,-3.81334 0.72801,-1.69867 1.94134,-2.84267 1.248,-1.144 2.808,-1.73334 1.59467,-0.624 3.29334,-0.624 1.69867,0 3.25867,0.624 1.59467,0.58934 2.808,1.73334 1.248,1.144 1.976,2.84267 0.728,1.664 0.728,3.81334 0,2.14933 -0.728,3.848 -0.728,1.664 -1.976,2.808 -1.21333,1.144 -2.808,1.768 -1.56,0.58934 -3.25867,0.58934 z m 0,-4.12534 q 1.768,0 2.63467,-1.31733 0.90133,-1.31734 0.90133,-3.57067 0,-2.25334 -0.90133,-3.57067 -0.86667,-1.31734 -2.63467,-1.31734 -1.768,0 -2.66934,1.31734 -0.86666,1.31733 -0.86666,3.57067 0,2.25333 0.86666,3.57067 0.90134,1.31733 2.66934,1.31733 z"
       style="font-weight:bold;font-family:'Source Code Pro';-inkscape-font-specification:'Source Code Pro Bold';fill:#00ff00"
       id="path524" />
    <path
       d="m 613.74334,345.03166 -6.48267,-17.19469 h 5.13067 l 2.704,8.11201 q 0.416,1.31734 0.79734,2.63467 0.38133,1.31734 0.76266,2.66934 h 0.13867 q 0.38133,-1.352 0.728,-2.66934 0.38133,-1.31733 0.79734,-2.63467 l 2.704,-8.11201 h 4.888 l -6.30934,17.19469 z"
       style="font-weight:bold;font-family:'Source Code Pro';-inkscape-font-specification:'Source Code Pro Bold';fill:#00ff00"
       id="path526" />
    <path
       d="m 659.22607,345.44766 q -2.01066,0 -3.77867,-0.58934 -1.73333,-0.624 -3.016,-1.768 -1.28267,-1.144 -2.01067,-2.808 -0.728,-1.69867 -0.728,-3.848 0,-2.11467 0.728,-3.77867 0.76267,-1.69867 2.01067,-2.84267 1.248,-1.17867 2.84267,-1.76801 1.62934,-0.624 3.36267,-0.624 1.976,0 3.50134,0.624 1.52533,0.62401 2.53067,1.73334 1.04,1.10933 1.56,2.63467 0.52,1.49067 0.52,3.25867 0,0.69333 -0.104,1.352 -0.0693,0.624 -0.13867,0.936 h -11.71734 q 0.38133,1.872 1.69867,2.73867 1.31733,0.86667 3.432,0.86667 1.17867,0 2.21867,-0.312 1.07466,-0.312 2.21867,-0.90134 l 1.69866,3.08534 q -1.49066,0.936 -3.29333,1.49067 -1.80267,0.52 -3.53601,0.52 z m -0.416,-14.14402 q -1.52533,0 -2.56533,0.79734 -1.00534,0.79733 -1.38667,2.42667 h 7.34934 q -0.38133,-3.22401 -3.39734,-3.22401 z"
       style="font-weight:bold;font-family:'Source Code Pro';-inkscape-font-specification:'Source Code Pro Bold';fill:#00ff00"
       id="path528" />
    <path
       d="m 680.47678,345.44766 q -2.04534,0 -3.77867,-0.58934 -1.73334,-0.624 -3.05067,-1.768 -1.28267,-1.144 -2.01067,-2.808 -0.728,-1.69867 -0.728,-3.848 0,-2.14934 0.79733,-3.81334 0.832,-1.69867 2.184,-2.84267 1.38667,-1.144 3.18934,-1.73334 1.80267,-0.624 3.77867,-0.624 2.04533,0 3.67467,0.65867 1.664,0.65867 2.77333,1.664 l -2.35733,3.15467 q -1.90667,-1.352 -3.81334,-1.352 -2.21867,0 -3.60533,1.31734 -1.38667,1.31733 -1.38667,3.57067 0,2.25333 1.31733,3.57067 1.352,1.31733 3.50134,1.31733 1.352,0 2.46133,-0.48533 1.14401,-0.48534 2.08001,-1.144 l 2.04533,3.224 q -1.56,1.31733 -3.432,1.94133 -1.872,0.58934 -3.64,0.58934 z"
       style="font-weight:bold;font-family:'Source Code Pro';-inkscape-font-specification:'Source Code Pro Bold';fill:#00ff00"
       id="path530" />
    <path
       d="m 690.66879,345.03166 5.96267,-8.94401 -5.58133,-8.25068 h 5.47733 l 1.76801,2.77334 q 0.38133,0.728 0.86666,1.49067 0.48534,0.728 0.936,1.456 h 0.13867 q 0.34667,-0.728 0.69333,-1.49067 0.38134,-0.76267 0.728,-1.456 l 1.52534,-2.77334 h 5.33867 l -5.616,8.84001 5.96267,8.35468 h -5.47734 l -1.976,-2.84267 q -0.48534,-0.728 -1.00534,-1.49067 -0.48533,-0.76267 -0.97066,-1.49067 h -0.13867 q -0.38133,0.728 -0.79733,1.49067 -0.41601,0.728 -0.79734,1.49067 l -1.69867,2.84267 z"
       style="font-weight:bold;font-family:'Source Code Pro';-inkscape-font-specification:'Source Code Pro Bold';fill:#00ff00"
       id="path532" />
    <path
       d="m 717.77816,352.55433 -1.28266,-2.98134 q 2.32267,-0.79733 3.432,-2.08 1.144,-1.248 1.07467,-2.84267 -0.13867,0.0347 -0.38134,0.0347 -0.728,0 -1.42133,-0.208 -0.65867,-0.24267 -1.17867,-0.69333 -0.52,-0.45067 -0.832,-1.10934 -0.312,-0.65867 -0.312,-1.52533 0,-1.62934 1.10933,-2.60001 1.14401,-0.97066 2.77334,-0.97066 2.14934,0 3.224,1.59466 1.07467,1.56001 1.07467,4.36801 0,3.328 -1.83733,5.616 -1.83734,2.28801 -5.44268,3.39734 z"
       style="font-weight:bold;font-family:'Source Code Pro';-inkscape-font-specification:'Source Code Pro Bold';fill:#00ff00"
       id="path534" />
    <path
       d="m 742.4262,345.44766 q -2.01067,0 -3.77867,-0.58934 -1.73333,-0.624 -3.016,-1.768 -1.28267,-1.144 -2.01067,-2.808 -0.728,-1.69867 -0.728,-3.848 0,-2.11467 0.728,-3.77867 0.76267,-1.69867 2.01067,-2.84267 1.248,-1.17867 2.84267,-1.76801 1.62933,-0.624 3.36267,-0.624 1.976,0 3.50133,0.624 1.52534,0.62401 2.53067,1.73334 1.04,1.10933 1.56,2.63467 0.52,1.49067 0.52,3.25867 0,0.69333 -0.104,1.352 -0.0693,0.624 -0.13866,0.936 h -11.71735 q 0.38134,1.872 1.69867,2.73867 1.31734,0.86667 3.43201,0.86667 1.17866,0 2.21866,-0.312 1.07467,-0.312 2.21867,-0.90134 l 1.69867,3.08534 q -1.49067,0.936 -3.29334,1.49067 -1.80266,0.52 -3.536,0.52 z m -0.416,-14.14402 q -1.52533,0 -2.56533,0.79734 -1.00534,0.79733 -1.38667,2.42667 h 7.34934 q -0.38134,-3.22401 -3.39734,-3.22401 z"
       style="font-weight:bold;font-family:'Source Code Pro';-inkscape-font-specification:'Source Code Pro Bold';fill:#00ff00"
       id="path536" />
    <path
       d="m 762.04757,345.44766 q -2.32267,0 -4.54134,-0.76267 -2.21867,-0.76267 -3.88267,-1.872 l 2.184,-3.18934 q 1.59467,1.00534 3.328,1.52534 1.73334,0.52 3.60534,0.52 1.42134,0 2.08,-0.416 0.65867,-0.416 0.65867,-1.04 0,-0.34667 -0.208,-0.624 -0.17333,-0.27734 -0.65867,-0.48534 -0.45066,-0.24267 -1.28267,-0.45067 -0.832,-0.208 -2.08,-0.48533 -3.50133,-0.76267 -5.02667,-2.04533 -1.52533,-1.31734 -1.52533,-3.32801 0,-1.17867 0.55466,-2.184 0.55467,-1.00533 1.56001,-1.69867 1.04,-0.69333 2.496,-1.07467 1.456,-0.416 3.29333,-0.416 2.32267,0 4.19467,0.76267 1.90667,0.728 3.25867,1.59467 l -2.288,3.05067 q -1.31733,-0.79733 -2.73867,-1.21334 -1.42133,-0.416 -2.87733,-0.416 -1.21334,0 -1.80267,0.38134 -0.58933,0.38133 -0.58933,0.97067 0,0.728 0.90133,1.04 0.90133,0.312 3.08534,0.79733 1.976,0.45067 3.29333,0.97067 1.31734,0.52 2.08,1.17867 0.76267,0.65866 1.07467,1.49066 0.312,0.832 0.312,1.87201 0,1.17866 -0.55467,2.184 -0.55466,1.00533 -1.62933,1.768 -1.04,0.728 -2.63467,1.17867 -1.56,0.416 -3.64,0.416 z"
       style="font-weight:bold;font-family:'Source Code Pro';-inkscape-font-specification:'Source Code Pro Bold';fill:#00ff00"
       id="path538" />
    <path
       d="m 775.08226,351.41033 v -23.57336 h 4.16 l 0.38134,1.73334 h 0.104 q 1.04,-0.936 2.392,-1.52534 1.352,-0.624 2.73867,-0.624 1.59467,0 2.87734,0.624 1.28266,0.62401 2.184,1.76801 0.90133,1.144 1.352,2.77333 0.48533,1.59467 0.48533,3.57067 0,2.21867 -0.624,3.95201 -0.624,1.69866 -1.664,2.912 -1.04,1.17867 -2.392,1.80267 -1.31734,0.624 -2.77334,0.624 -2.35733,0 -4.22934,-1.872 h -0.13866 l 0.24266,2.808 v 5.02667 z m 8.04267,-10.12268 q 1.45601,0 2.42667,-1.17866 0.97067,-1.21334 0.97067,-3.88267 0,-4.64534 -3.15467,-4.64534 -1.62933,0 -3.18934,1.59467 v 6.968 q 0.72801,0.624 1.49067,0.90134 0.79734,0.24266 1.456,0.24266 z"
       style="font-weight:bold;font-family:'Source Code Pro';-inkscape-font-specification:'Source Code Pro Bold';fill:#00ff00"
       id="path540" />
    <path
       d="m 567.08194,395.95272 v -23.57336 h 4.16 l 0.38134,1.73334 h 0.104 q 1.04,-0.936 2.392,-1.52534 1.352,-0.624 2.73867,-0.624 1.59467,0 2.87733,0.624 1.28267,0.624 2.18401,1.76801 0.90133,1.144 1.352,2.77333 0.48533,1.59467 0.48533,3.57067 0,2.21867 -0.624,3.952 -0.624,1.69867 -1.664,2.91201 -1.04,1.17867 -2.392,1.80267 -1.31734,0.624 -2.77334,0.624 -2.35733,0 -4.22934,-1.87201 h -0.13866 l 0.24266,2.80801 v 5.02667 z m 8.04267,-10.12268 q 1.45601,0 2.42667,-1.17867 0.97067,-1.21333 0.97067,-3.88267 0,-4.64533 -3.15467,-4.64533 -1.62933,0 -3.18934,1.59466 v 6.96801 q 0.72801,0.624 1.49067,0.90134 0.79734,0.24266 1.456,0.24266 z"
       style="font-weight:bold;font-family:'Source Code Pro';-inkscape-font-specification:'Source Code Pro Bold';fill:#00ff00"
       id="path542" />
    <path
       d="m 593.11664,389.99005 q -2.94667,0 -4.264,-1.87201 -1.31734,-1.872 -1.31734,-5.13067 v -10.60801 h 5.09601 v 9.94935 q 0,1.73333 0.52,2.53066 0.52,0.79734 1.976,0.79734 0.97067,0 1.69867,-0.416 0.76267,-0.416 1.664,-1.56 v -11.30135 h 5.09601 v 17.19469 h -4.16001 l -0.38133,-2.46134 h -0.13867 q -1.144,1.31733 -2.53067,2.11467 -1.38667,0.76267 -3.25867,0.76267 z"
       style="font-weight:bold;font-family:'Source Code Pro';-inkscape-font-specification:'Source Code Pro Bold';fill:#00ff00"
       id="path544" />
    <path
       d="m 616.44734,389.99005 q -2.32267,0 -4.54133,-0.76267 -2.21867,-0.76267 -3.88267,-1.872 l 2.184,-3.18934 q 1.59467,1.00534 3.328,1.52534 1.73334,0.52 3.60534,0.52 1.42133,0 2.08,-0.416 0.65867,-0.416 0.65867,-1.04001 0,-0.34666 -0.208,-0.624 -0.17334,-0.27733 -0.65867,-0.48533 -0.45067,-0.24267 -1.28267,-0.45067 -0.832,-0.208 -2.08,-0.48533 -3.50134,-0.76267 -5.02667,-2.04534 -1.52534,-1.31733 -1.52534,-3.328 0,-1.17867 0.55467,-2.184 0.55467,-1.00533 1.56,-1.69867 1.04,-0.69333 2.496,-1.07467 1.45601,-0.416 3.29334,-0.416 2.32267,0 4.19467,0.76267 1.90667,0.728 3.25867,1.59467 l -2.288,3.05067 q -1.31734,-0.79734 -2.73867,-1.21334 -1.42134,-0.416 -2.87734,-0.416 -1.21333,0 -1.80266,0.38134 -0.58934,0.38133 -0.58934,0.97066 0,0.72801 0.90134,1.04001 0.90133,0.312 3.08533,0.79733 1.976,0.45067 3.29334,0.97067 1.31733,0.52 2.08,1.17866 0.76267,0.65867 1.07467,1.49067 0.312,0.832 0.312,1.872 0,1.17867 -0.55467,2.18401 -0.55467,1.00533 -1.62933,1.768 -1.04,0.728 -2.63467,1.17867 -1.56,0.416 -3.64001,0.416 z"
       style="font-weight:bold;font-family:'Source Code Pro';-inkscape-font-specification:'Source Code Pro Bold';fill:#00ff00"
       id="path546" />
    <path
       d="m 629.48203,389.57405 v -24.30136 h 5.09601 v 5.96267 l -0.27734,3.29334 h 0.104 q 0.97067,-1.00534 2.35734,-1.768 1.38667,-0.79734 3.36267,-0.79734 2.912,0 4.22934,1.872 1.352,1.87201 1.352,5.13068 v 10.60801 h -5.09601 v -9.94935 q 0,-1.73333 -0.55466,-2.53067 -0.55467,-0.79733 -1.97601,-0.79733 -1.04,0 -1.83733,0.45067 -0.76267,0.45066 -1.664,1.352 v 11.47468 z"
       style="font-weight:bold;font-family:'Source Code Pro';-inkscape-font-specification:'Source Code Pro Bold';fill:#00ff00"
       id="path548" />
    <path
       d="m 678.98611,389.99005 q -1.90667,0 -3.46667,-0.728 -1.56,-0.76267 -2.66934,-2.21867 -1.10933,-1.456 -1.73333,-3.60534 -0.58934,-2.14934 -0.58934,-4.95734 0,-2.808 0.58934,-4.92267 0.624,-2.11467 1.73333,-3.536 1.10934,-1.456 2.66934,-2.14934 1.56,-0.728 3.46667,-0.728 1.90667,0 3.46667,0.728 1.56,0.69334 2.66933,2.14934 1.10934,1.42133 1.69867,3.536 0.624,2.11467 0.624,4.92267 0,2.808 -0.624,4.95734 -0.58933,2.14934 -1.69867,3.60534 -1.10933,1.456 -2.66933,2.21867 -1.56,0.728 -3.46667,0.728 z m 0,-3.95201 q 0.832,0 1.52533,-0.38133 0.728,-0.38133 1.248,-1.248 0.52,-0.90134 0.832,-2.32267 0.312,-1.456 0.312,-3.60534 0,-2.14933 -0.312,-3.57067 -0.312,-1.42133 -0.832,-2.25333 -0.52,-0.86667 -1.248,-1.21334 -0.69333,-0.34666 -1.52533,-0.34666 -0.832,0 -1.56,0.34666 -0.69334,0.34667 -1.21334,1.21334 -0.52,0.832 -0.832,2.25333 -0.312,1.42134 -0.312,3.57067 0,2.14934 0.312,3.60534 0.312,1.42133 0.832,2.32267 0.52,0.86667 1.21334,1.248 0.728,0.38133 1.56,0.38133 z m 0,-4.992 q -1.10934,0 -1.872,-0.69334 -0.72801,-0.728 -0.72801,-1.94133 0,-1.21334 0.72801,-1.90667 0.76266,-0.728 1.872,-0.728 1.10933,0 1.83733,0.728 0.76267,0.69333 0.76267,1.90667 0,1.21333 -0.76267,1.94133 -0.728,0.69334 -1.83733,0.69334 z"
       style="font-weight:bold;font-family:'Source Code Pro';-inkscape-font-specification:'Source Code Pro Bold';fill:#00ff00"
       id="path550" />
    <path
       d="m 690.66879,389.57405 5.96267,-8.94401 -5.58133,-8.25068 h 5.47733 l 1.76801,2.77334 q 0.38133,0.728 0.86666,1.49067 0.48534,0.728 0.936,1.456 h 0.13867 q 0.34667,-0.728 0.69333,-1.49067 0.38134,-0.76267 0.728,-1.456 l 1.52534,-2.77334 h 5.33867 l -5.616,8.84001 5.96267,8.35468 h -5.47734 l -1.976,-2.84267 q -0.48534,-0.728 -1.00534,-1.49067 -0.48533,-0.76267 -0.97066,-1.49067 h -0.13867 q -0.38133,0.728 -0.79733,1.49067 -0.41601,0.728 -0.79734,1.49067 l -1.69867,2.84267 z"
       style="font-weight:bold;font-family:'Source Code Pro';-inkscape-font-specification:'Source Code Pro Bold';fill:#00ff00"
       id="path552" />
    <path
       d="m 712.92483,389.57405 v -4.12534 h 5.928 v -12.72268 h -4.888 v -3.15467 q 1.10933,-0.17333 1.976,-0.34667 0.90133,-0.208 1.62933,-0.45066 0.728,-0.24267 1.35201,-0.52 0.65866,-0.312 1.28266,-0.69334 h 3.74401 v 17.88802 h 4.992 v 4.12534 z"
       style="font-weight:bold;font-family:'Source Code Pro';-inkscape-font-specification:'Source Code Pro Bold';fill:#00ff00"
       id="path554" />
    <path
       d="m 567.08194,440.49511 v -23.57336 h 4.16 l 0.38134,1.73334 h 0.104 q 1.04,-0.936 2.392,-1.52534 1.352,-0.624 2.73867,-0.624 1.59467,0 2.87733,0.624 1.28267,0.624 2.18401,1.768 0.90133,1.14401 1.352,2.77334 0.48533,1.59467 0.48533,3.57067 0,2.21867 -0.624,3.952 -0.624,1.69867 -1.664,2.91201 -1.04,1.17866 -2.392,1.80266 -1.31734,0.62401 -2.77334,0.62401 -2.35733,0 -4.22934,-1.87201 h -0.13866 l 0.24266,2.80801 v 5.02667 z m 8.04267,-10.12268 q 1.45601,0 2.42667,-1.17867 0.97067,-1.21333 0.97067,-3.88267 0,-4.64533 -3.15467,-4.64533 -1.62933,0 -3.18934,1.59466 v 6.96801 q 0.72801,0.624 1.49067,0.90133 0.79734,0.24267 1.456,0.24267 z"
       style="font-weight:bold;font-family:'Source Code Pro';-inkscape-font-specification:'Source Code Pro Bold';fill:#00ff00"
       id="path556" />
    <path
       d="m 593.11664,434.53244 q -2.94667,0 -4.264,-1.87201 -1.31734,-1.872 -1.31734,-5.13067 v -10.60801 h 5.09601 v 9.94934 q 0,1.73334 0.52,2.53067 0.52,0.79734 1.976,0.79734 0.97067,0 1.69867,-0.416 0.76267,-0.416 1.664,-1.56 v -11.30135 h 5.09601 v 17.19468 h -4.16001 l -0.38133,-2.46133 h -0.13867 q -1.144,1.31733 -2.53067,2.11467 -1.38667,0.76267 -3.25867,0.76267 z"
       style="font-weight:bold;font-family:'Source Code Pro';-inkscape-font-specification:'Source Code Pro Bold';fill:#00ff00"
       id="path558" />
    <path
       d="m 616.44734,434.53244 q -2.32267,0 -4.54133,-0.76267 -2.21867,-0.76267 -3.88267,-1.872 l 2.184,-3.18934 q 1.59467,1.00533 3.328,1.52533 1.73334,0.52001 3.60534,0.52001 1.42133,0 2.08,-0.41601 0.65867,-0.416 0.65867,-1.04 0,-0.34666 -0.208,-0.624 -0.17334,-0.27733 -0.65867,-0.48533 -0.45067,-0.24267 -1.28267,-0.45067 -0.832,-0.208 -2.08,-0.48533 -3.50134,-0.76267 -5.02667,-2.04534 -1.52534,-1.31733 -1.52534,-3.328 0,-1.17867 0.55467,-2.184 0.55467,-1.00534 1.56,-1.69867 1.04,-0.69333 2.496,-1.07467 1.45601,-0.416 3.29334,-0.416 2.32267,0 4.19467,0.76267 1.90667,0.728 3.25867,1.59467 l -2.288,3.05067 q -1.31734,-0.79734 -2.73867,-1.21334 -1.42134,-0.416 -2.87734,-0.416 -1.21333,0 -1.80266,0.38134 -0.58934,0.38133 -0.58934,0.97066 0,0.728 0.90134,1.04 0.90133,0.312 3.08533,0.79734 1.976,0.45067 3.29334,0.97067 1.31733,0.52 2.08,1.17866 0.76267,0.65867 1.07467,1.49067 0.312,0.832 0.312,1.872 0,1.17867 -0.55467,2.18401 -0.55467,1.00533 -1.62933,1.768 -1.04,0.728 -2.63467,1.17866 -1.56,0.41601 -3.64001,0.41601 z"
       style="font-weight:bold;font-family:'Source Code Pro';-inkscape-font-specification:'Source Code Pro Bold';fill:#00ff00"
       id="path560" />
    <path
       d="m 629.48203,434.11643 v -24.30135 h 5.09601 v 5.96267 l -0.27734,3.29334 h 0.104 q 0.97067,-1.00534 2.35734,-1.768 1.38667,-0.79734 3.36267,-0.79734 2.912,0 4.22934,1.872 1.352,1.87201 1.352,5.13068 v 10.608 h -5.09601 v -9.94934 q 0,-1.73333 -0.55466,-2.53067 -0.55467,-0.79733 -1.97601,-0.79733 -1.04,0 -1.83733,0.45067 -0.76267,0.45066 -1.664,1.352 v 11.47467 z"
       style="font-weight:bold;font-family:'Source Code Pro';-inkscape-font-specification:'Source Code Pro Bold';fill:#00ff00"
       id="path562" />
    <path
       d="m 680.02611,434.53244 q -2.01067,0 -3.77867,-0.58934 -1.73334,-0.624 -3.016,-1.768 -1.28267,-1.144 -2.01067,-2.808 -0.728,-1.69867 -0.728,-3.84801 0,-2.11467 0.728,-3.77867 0.76266,-1.69866 2.01067,-2.84267 1.248,-1.17866 2.84266,-1.768 1.62934,-0.624 3.36267,-0.624 1.97601,0 3.50134,0.624 1.52534,0.624 2.53067,1.73334 1.04,1.10933 1.56,2.63467 0.52,1.49066 0.52,3.25867 0,0.69333 -0.104,1.352 -0.0693,0.624 -0.13867,0.936 h -11.71734 q 0.38133,1.872 1.69867,2.73867 1.31733,0.86666 3.432,0.86666 1.17867,0 2.21867,-0.312 1.07467,-0.312 2.21867,-0.90133 l 1.69867,3.08534 q -1.49067,0.936 -3.29334,1.49066 -1.80267,0.52001 -3.536,0.52001 z m -0.416,-14.14402 q -1.52534,0 -2.56534,0.79734 -1.00533,0.79733 -1.38667,2.42667 h 7.34934 q -0.38133,-3.22401 -3.39733,-3.22401 z"
       style="font-weight:bold;font-family:'Source Code Pro';-inkscape-font-specification:'Source Code Pro Bold';fill:#00ff00"
       id="path564" />
    <path
       d="m 701.2768,434.53244 q -2.04533,0 -3.77867,-0.58934 -1.73333,-0.624 -3.05067,-1.768 -1.28267,-1.144 -2.01067,-2.808 -0.728,-1.69867 -0.728,-3.84801 0,-2.14933 0.79734,-3.81333 0.832,-1.69867 2.184,-2.84267 1.38667,-1.144 3.18933,-1.73334 1.80267,-0.624 3.77867,-0.624 2.04534,0 3.67467,0.65867 1.66401,0.65867 2.77334,1.664 l -2.35733,3.15467 q -1.90667,-1.352 -3.81334,-1.352 -2.21867,0 -3.60534,1.31733 -1.38667,1.31734 -1.38667,3.57067 0,2.25334 1.31734,3.57067 1.352,1.31734 3.50134,1.31734 1.352,0 2.46133,-0.48534 1.144,-0.48533 2.08,-1.144 l 2.04534,3.22401 q -1.56,1.31733 -3.43201,1.94133 -1.872,0.58934 -3.64,0.58934 z"
       style="font-weight:bold;font-family:'Source Code Pro';-inkscape-font-specification:'Source Code Pro Bold';fill:#00ff00"
       id="path566" />
    <path
       d="m 711.46883,434.11643 5.96267,-8.944 -5.58134,-8.25068 h 5.47734 l 1.768,2.77334 q 0.38133,0.728 0.86667,1.49067 0.48533,0.728 0.936,1.456 h 0.13866 q 0.34667,-0.728 0.69334,-1.49067 0.38133,-0.76267 0.728,-1.456 l 1.52533,-2.77334 h 5.33867 l -5.616,8.84001 5.96267,8.35467 h -5.47734 l -1.976,-2.84266 q -0.48533,-0.72801 -1.00533,-1.49067 -0.48534,-0.76267 -0.97067,-1.49067 h -0.13867 q -0.38133,0.728 -0.79733,1.49067 -0.416,0.728 -0.79734,1.49067 l -1.69866,2.84266 z"
       style="font-weight:bold;font-family:'Source Code Pro';-inkscape-font-specification:'Source Code Pro Bold';fill:#00ff00"
       id="path568" />
  </g>
</svg>
