<?xml version="1.0" encoding="UTF-8" standalone="no"?>
<!-- Created with Inkscape (http://www.inkscape.org/) -->

<svg
   version="1.1"
   id="svg3122"
   width="512"
   height="512"
   viewBox="0 0 512 512"
   sodipodi:docname="scada-tools.svg"
   inkscape:version="1.2.2 (b0a8486541, 2022-12-01)"
   inkscape:export-filename="../GIT Icons/scada-tools.png"
   inkscape:export-xdpi="96"
   inkscape:export-ydpi="96"
   xmlns:inkscape="http://www.inkscape.org/namespaces/inkscape"
   xmlns:sodipodi="http://sodipodi.sourceforge.net/DTD/sodipodi-0.dtd"
   xmlns="http://www.w3.org/2000/svg"
   xmlns:svg="http://www.w3.org/2000/svg">
  <defs
     id="defs3126" />
  <sodipodi:namedview
     id="namedview3124"
     pagecolor="#505050"
     bordercolor="#eeeeee"
     borderopacity="1"
     inkscape:pageshadow="0"
     inkscape:pageopacity="0"
     inkscape:pagecheckerboard="0"
     showgrid="false"
     inkscape:zoom="0.75853273"
     inkscape:cx="320.35533"
     inkscape:cy="219.50272"
     inkscape:window-width="1366"
     inkscape:window-height="695"
     inkscape:window-x="0"
     inkscape:window-y="24"
     inkscape:window-maximized="1"
     inkscape:current-layer="g3128"
     inkscape:showpageshadow="0"
     inkscape:deskcolor="#505050" />
  <g
     inkscape:groupmode="layer"
     inkscape:label="Image"
     id="g3128">
    <g
       id="g2565">
      <path
         id="path3245-5"
         style="fill:#ffffff;stroke-width:1.15594"
         d="m 219.016,14.463981 c -2.30766,0.0063 -4.61617,0.01319 -6.92383,0.01953 -22.01852,0.05391 -44.0484,-0.02392 -66.04883,0.96289 -7.29758,0.423392 -14.72613,1.001276 -21.63281,3.539063 -4.64602,1.809374 -8.68854,4.856074 -12.16406,8.353515 -5.06968,4.533829 -9.64227,9.747222 -12.636724,15.863282 -4.36004,8.472686 -6.09956,18.067737 -6.00977,27.517578 -0.6403,31.153021 -0.46344,62.315341 -0.42968,93.472651 0.0736,32.90414 0.20292,65.80752 0.34375,98.71094 0.18678,2.8781 1.8111,5.3689 2.75976,8.03125 1.31367,3.15047 2.75097,6.25882 4.490244,9.20508 -22.035754,-0.0107 -44.077774,-0.0837 -66.107434,0.49414 -4.64497,0.15503 -9.44025,0.34676 -13.74218,2.27343 -5.93221,2.51051 -10.9452898,7.45004 -12.8027398,13.62891 -1.77566,5.54406 -1.27235,11.48996 -0.16406,17.11133 1.83968,10.24246 4.7176798,20.26089 7.1816398,30.36523 9.87717,38.94617 19.74798,77.8969 29.83984,116.78711 1.35663,5.09389 2.64264,10.21379 4.25977,15.23438 3.73348,10.10621 12.95021,18.13086 23.66797,20.25781 4.27355,0.78525 8.66851,0.65975 12.93945,0.86914 16.561604,0.46825 33.138594,0.5411 49.699224,0.01 4.25927,-0.18226 8.75602,-0.58214 12.41016,-2.96485 2.98427,-1.86845 5.37201,-4.63689 6.80859,-7.82031 6.5771,5.11505 14.43392,8.77148 22.75195,9.9668 7.28158,0.58156 14.59349,0.39511 21.89063,0.56445 34.44792,0.37003 68.89816,0.34555 103.34765,0.36328 54.75689,-0.0152 109.51469,-0.10712 164.27149,-0.16797 7.3156,-3.62934 15.119,-6.63287 21.3906,-11.97265 9.1062,-7.50631 14.746,-18.75647 15.8106,-30.3711 1.0907,-9.59362 -0.041,-19.55483 -4.0176,-28.42383 -3.9999,-8.76177 -10.8884,-16.21313 -19.4121,-20.87304 -6.5058,-3.69431 -13.7589,-5.97195 -21.1328,-7.23633 -0.3117,-8.86209 -0.4126,-17.76928 -1.7617,-26.55274 -1.2356,-7.07702 -4.2301,-14.00669 -9.3575,-19.19531 -3.2041,-3.43049 -6.7572,-6.56892 -10.6621,-9.20312 -5.5268,-3.46626 -12.1208,-4.70268 -18.5566,-5.20117 -2.6358,-0.23185 -5.2813,-0.36486 -7.9258,-0.45313 9.0752,-7.86046 16.4314,-17.61057 21.6582,-28.3418 0.5844,-1.21746 1.1435,-2.44673 1.6563,-3.69531 8.0926,-0.18176 16.2077,0.22707 24.2832,-0.45117 9.6478,-0.93528 19.1757,-4.46175 26.5429,-10.77539 3.733,-3.15967 7.2782,-6.57919 10.2754,-10.4375 3.796,-4.85752 5.8902,-10.79689 6.918,-16.79492 1.0578,-6.283 1.3017,-12.66397 1.5586,-19.01758 0.3945,-14.03299 0.5353,-28.07192 0.664,-42.10938 0.2957,-38.48449 -0.039,-76.97227 -0.7265,-115.451164 -0.2346,-13.498788 -0.4735,-26.997429 -0.7129,-40.496094 -4.8242,-7.113246 -8.7718,-14.941741 -15.0488,-20.978515 -6.5645,-6.307295 -14.7441,-11.233816 -23.793,-13.041016 -6.4206,-0.938383 -12.9296,-0.829262 -19.4004,-1.042968 -20.2795,-0.395256 -40.5633,-0.367878 -60.8457,-0.449219 -55.13475,-0.112865 -110.26948,-0.08971 -165.4043,-0.08398 z m 39.17578,292.207029 c 3.44765,0.007 6.89414,0.0142 10.3418,0.0215 4.96062,11.78462 12.92167,22.21676 22.52734,30.70703 -4.37171,0.17556 -8.78088,0.5216 -12.98047,1.8125 -3.82169,1.10746 -7.4896,2.73604 -10.86523,4.82227 -0.97985,-8.80099 -3.39025,-17.35731 -5.54492,-25.92774 -1.01742,-3.852 -2.13022,-7.68235 -3.47852,-11.43554 z" />
      <path
         style="fill:#000000;stroke-width:1.15594"
         d="m 75.374727,479.71803 c -4.207675,-1.21873 -8.37712,-4.92232 -10.001845,-8.88434 -1.110189,-2.70727 -7.496651,-27.46361 -34.338703,-133.1098 -8.960268,-35.26625 -9.072813,-37.13004 -2.403451,-39.80243 2.23688,-0.8963 31.849105,-1.17042 102.650172,-0.95022 98.82146,0.30735 99.52922,0.32582 102.82404,2.68404 5.27034,3.77216 8.03318,10.04069 12.72471,28.87056 5.01859,20.14261 5.04576,26.16902 0.16408,36.40191 -1.75505,3.6789 -3.49244,10.21909 -4.22038,15.88713 -0.68051,5.29871 -1.27692,9.90325 -1.32534,10.23232 -0.0484,0.32905 -4.17447,-14.59773 -9.16898,-33.17064 -5.72927,-21.30524 -9.88491,-34.62832 -11.25922,-36.09736 -2.15678,-2.30545 -3.01149,-2.32845 -86.54665,-2.32845 -46.402596,0 -84.642668,0.42936 -84.977927,0.95413 -0.335271,0.52477 5.414532,24.44283 12.777342,53.15124 7.362798,28.70841 13.765948,54.21438 14.229219,56.67994 0.46327,2.46555 2.062457,5.66316 3.55374,7.10578 2.651376,2.56485 3.233279,2.62295 26.270376,2.62295 12.95742,0 23.57152,0.38371 23.58688,0.85269 0.0154,0.46898 2.36579,9.28181 5.22318,19.58406 3.85006,13.8813 4.83183,18.95485 3.79171,19.59453 -1.93203,1.18822 -59.358063,0.93697 -63.552953,-0.27804 z m 103.559643,-0.0496 c -7.24575,-1.67001 -13.21249,-5.17941 -18.2858,-10.7549 -14.81181,-16.27803 -9.22615,-41.59095 11.33279,-51.35745 l 6.67744,-3.17212 41.89893,-0.34927 41.89893,-0.34928 0.4298,-18.97844 c 0.40031,-17.67669 0.64316,-19.42146 3.54067,-25.43694 3.74951,-7.78431 10.20114,-12.74598 18.97476,-14.59266 4.22536,-0.88935 26.00579,-1.16895 71.31122,-0.91544 71.85802,0.4021 68.38971,0.0588 76.79439,7.60058 7.28454,6.53661 8.31756,10.21576 8.98159,31.98833 l 0.60681,19.89619 8.34647,0.80557 c 23.51436,2.26953 36.10664,14.00993 36.17436,33.72716 0.0484,14.09372 -5.73376,23.61153 -17.83725,29.36121 l -6.70389,3.18462 -139.85784,0.18143 c -79.22264,0.10277 -141.77653,-0.26081 -144.28338,-0.8386 z m -65.31578,-47.58864 c -12.60167,-0.60697 -13.47504,-0.80749 -16.024212,-3.67912 -2.093731,-2.35858 -5.505263,-14.00139 -15.269126,-52.11018 -6.91516,-26.99017 -12.359873,-49.27922 -12.099349,-49.53124 0.260511,-0.25201 30.299547,-0.5121 66.753397,-0.57798 l 66.27973,-0.11978 2.08167,2.48688 c 1.14492,1.36777 2.54274,4.35699 3.10626,6.6427 0.56352,2.28573 4.06623,16.33578 7.78379,31.22237 3.71756,14.88658 6.43665,27.37854 6.04241,27.75991 -1.62712,1.57403 -7.88739,0.59319 -9.48267,-1.4857 -0.91969,-1.19852 -2.53032,-6.01624 -3.57917,-10.70606 -3.28084,-14.66988 -8.66736,-30.40076 -10.66344,-31.14175 -1.0255,-0.38069 -26.41394,-0.69214 -56.41876,-0.69214 -52.73885,0 -54.554205,0.0716 -54.554205,2.15176 0,1.18345 3.646881,16.33638 8.104174,33.67317 5.773271,22.45533 8.776701,32.172 10.442441,33.78341 2.04916,1.98227 4.06254,2.28202 16.2828,2.42419 13.46771,0.15665 13.95726,0.24884 14.31682,2.69607 0.44839,3.05192 -4.60329,8.36189 -7.66434,8.05617 -1.16058,-0.11589 -8.10778,-0.4996 -15.43822,-0.85269 z m 83.99775,-92.44865 c -0.38977,-1.40694 -0.71589,-3.1796 -0.72472,-3.93924 -0.0234,-2.0174 -4.43731,-3.97416 -7.11209,-3.15291 -1.67121,0.51311 -2.30616,1.7304 -2.30616,4.42119 0,4.74239 0.57789,5.22904 6.20933,5.22904 4.24069,0 4.58099,-0.2213 3.93364,-2.55808 z m -46.19389,-0.17741 c 0.34876,-0.87921 -0.29738,-2.41406 -1.43589,-3.41077 -1.77847,-1.55697 -6.22316,-1.81221 -31.55707,-1.81221 -34.039538,0 -36.203831,0.3475 -31.358263,5.03495 1.585412,1.53368 6.226177,1.78659 32.781993,1.78659 25.49495,0 31.04663,-0.28111 31.56923,-1.59856 z m -34.43463,67.63269 c -4.49805,-0.72822 -7.03573,-4.13036 -7.06534,-9.47211 l -0.0173,-3.12654 40.84084,0.13864 c 26.80689,0.0909 38.55322,0.46345 34.18355,1.08388 -3.66152,0.5199 -12.91682,3.19825 -20.56733,5.9519 -13.06634,4.70298 -14.80111,5.03937 -28.601,5.54593 -8.08001,0.29658 -16.52805,0.24182 -18.7734,-0.1217 z m -12.28745,-31.43908 c -1.12292,-1.08628 -1.84687,-3.76022 -1.84687,-6.82156 v -5.03495 h 44.04576 44.04575 l 1.70307,2.55808 c 0.93668,1.40695 2.06549,4.47665 2.50843,6.82155 l 0.80539,4.26347 h -44.70734 c -39.076,0 -44.93996,-0.22504 -46.55419,-1.78659 z m 230.31428,-34.20282 c -13.31171,-2.7595 -24.59958,-8.77822 -34.82138,-18.56682 -15.24449,-14.59844 -21.93882,-31.80739 -20.73676,-53.30736 1.05005,-18.78123 7.67223,-33.40278 21.05362,-46.48581 34.76005,-33.98498 93.77077,-24.17333 115.37392,19.18308 6.59084,13.22749 8.32483,21.54691 7.50053,35.9863 -0.7838,13.72976 -3.84407,22.61176 -11.71138,33.99055 -7.2422,10.47463 -17.38194,18.79472 -29.69165,24.36331 -15.05453,6.81023 -30.0149,8.35089 -46.9669,4.83675 z M 138.97498,288.65367 C 127.77572,286.10126 117.45646,277.53756 113.1334,267.2084 l -2.6406,-6.30928 -0.33257,-94.8051 c -0.19424,-55.36903 0.13015,-98.03519 0.77982,-102.570303 1.43316,-10.004406 5.17442,-17.128525 12.2075,-23.245526 11.20577,-9.746193 -2.63145,-9.037901 176.56468,-9.037901 132.67056,0 159.43237,0.259736 163.36336,1.585509 8.051,2.715306 14.26954,7.680947 19.01096,15.180668 l 4.49455,7.109245 0.95367,54.003928 c 0.52452,29.70217 0.68992,76.25925 0.36757,103.46018 -0.67807,57.21762 -0.62517,56.88965 -10.75684,66.69071 -7.17361,6.93951 -14.315,9.48325 -26.62363,9.48325 h -8.01361 V 274.68869 260.6236 l 5.68738,-0.72984 5.68739,-0.72984 0.77446,-33.24015 c 0.42597,-18.28208 0.77544,-61.64891 0.77664,-96.37073 0.002,-55.30031 -0.22476,-63.444006 -1.82739,-65.657418 l -1.82956,-2.526824 H 300.45786 c -128.83154,0 -151.65838,0.239821 -153.6007,1.61374 -2.22697,1.575263 -2.28136,3.891884 -2.28136,97.166472 0,90.19301 0.11764,95.66662 2.09745,97.58296 1.93613,1.87407 6.32049,2.07395 57.00089,2.59869 l 54.90342,0.56846 0.32895,14.49579 0.32892,14.4958 -57.91745,-0.11421 c -31.85461,-0.0629 -59.90895,-0.56808 -62.343,-1.12283 z m 45.08175,-58.32427 c -0.98998,-1.1539 -1.34016,-20.00469 -1.30274,-70.12627 0.0283,-37.70151 0.35001,-68.839451 0.71523,-69.195458 1.29224,-1.259609 31.44954,-1.805538 33.9089,-0.613842 2.3918,1.158966 2.41833,1.840298 2.72162,69.92088 0.28344,63.62396 0.15714,68.85648 -1.69373,70.17167 -2.97277,2.11238 -32.51819,1.97736 -34.34928,-0.15698 z m 64.76604,0.21382 c -2.01373,-1.94802 -2.01373,-66.94961 0,-68.89764 1.96529,-1.90116 33.99817,-1.90116 35.96345,0 0.99843,0.96584 1.41034,7.70349 1.41034,23.0691 v 21.70479 l -7.01958,10.75441 c -4.66991,7.15459 -8.30272,11.4204 -10.85297,12.74403 -4.47788,2.32413 -17.31946,2.73589 -19.50124,0.62531 z m 150.20027,-31.73121 c -9.37282,-4.99345 -17.96702,-10.13454 -19.09823,-11.42466 -1.78114,-2.03134 -2.05673,-4.90767 -2.05673,-21.46621 0,-15.86642 0.31431,-19.42461 1.84686,-20.90715 1.44126,-1.39423 4.47401,-1.78064 13.80949,-1.75947 13.74852,0.0311 20.66303,1.27653 22.80246,4.10691 1.12547,1.48894 1.50057,9.32005 1.50057,31.32794 0,16.13851 -0.39666,29.311 -0.88145,29.2722 -0.48481,-0.0388 -8.55014,-4.1561 -17.92297,-9.14956 z m -84.61986,-45.92075 v -36.95007 h 18.23452 18.23453 l -0.31157,33.1722 -0.31157,33.17221 -17.04149,3.75541 c -9.37284,2.06549 -17.43817,3.76552 -17.92297,3.77786 -0.4848,0.0124 -0.88145,-16.60508 -0.88145,-36.92761 z"
         id="path3245" />
      <path
         id="path3419"
         style="fill:#ff0000;stroke-width:7.12322"
         d="m 264.94044,158.92614 c -4.07082,0.0832 -8.17505,0.11393 -12.19293,0.83135 -1.3166,0.20228 -2.66918,0.81373 -3.24399,2.07553 -1.23593,2.56708 -1.56004,5.44122 -1.99883,8.21979 -1.19346,9.3318 -1.46679,18.75417 -1.43964,28.15233 0.0106,7.00156 0.47388,13.98965 0.98554,20.96989 0.2978,4.31411 0.59552,8.62823 0.89336,12.94233 4.54287,-0.0402 9.08961,0.0893 13.62984,-0.0841 3.15212,-0.14451 6.35511,-0.98718 8.8522,-2.96265 3.52453,-2.76103 6.03468,-6.51652 8.64209,-10.08009 2.39216,-3.5197 5.25833,-6.91831 6.29066,-11.12638 1.02677,-4.29708 0.93046,-8.74857 1.02714,-13.13448 0.0238,-7.67448 0.086,-15.35085 -0.0737,-23.02419 -0.13178,-2.77386 -0.0783,-5.63046 -0.98609,-8.29204 -0.5457,-1.70362 -2.10073,-2.90734 -3.83502,-3.28799 -3.2597,-0.86968 -6.66897,-0.93933 -10.02232,-1.10849 -2.1751,-0.0821 -4.35167,-0.10226 -6.52826,-0.0908 z" />
      <path
         id="path3458"
         style="fill:#ff0000;stroke-width:7.12322"
         d="m 389.79235,142.12047 c -2.84189,0.074 -5.75489,0.33366 -8.40318,1.41885 -1.98254,0.86859 -2.97583,2.95574 -3.34296,4.95765 -0.68307,3.63522 -0.88331,7.33881 -1.18948,11.0184 -0.34053,6.02058 -0.36432,12.07829 0.25791,18.08186 0.4948,3.64485 1.14831,7.26783 1.7054,10.9041 9.40277,5.17832 18.71268,10.52336 28.21892,15.51599 2.49415,1.26233 4.94142,2.65099 7.56247,3.64286 1.08579,0.44238 2.37233,-0.2526 2.67311,-1.35358 0.61296,-2.26005 0.6065,-4.63286 0.79405,-6.95388 0.59112,-11.77385 0.50973,-23.56842 0.41625,-35.35289 -0.10148,-4.41484 -0.0694,-8.85885 -0.75321,-13.23337 -0.33169,-2.04559 -1.15805,-4.27473 -3.15727,-5.25726 -2.78762,-1.33264 -5.90394,-1.76984 -8.93024,-2.27153 -5.24146,-0.77024 -10.55079,-1.19036 -15.85177,-1.1172 z" />
      <path
         id="path3497"
         style="fill:#ffff00;stroke-width:7.12322"
         d="m 312.5856,117.24074 c 0.0143,11.0538 -0.0985,22.1107 0.29276,33.16009 0.38075,11.16584 0.76371,22.35116 2.06163,33.45765 0.27773,1.80204 0.36563,3.68262 1.08219,5.3805 0.303,0.65087 0.98653,1.10669 1.69591,1.14684 2.95229,-0.37932 5.84152,-1.13451 8.75298,-1.7369 6.87164,-1.52886 13.74575,-3.05192 20.60041,-4.65114 1.74637,-0.39226 3.05607,-1.85269 3.4826,-3.53592 0.86548,-3.25574 0.79099,-6.65895 0.93188,-9.99769 0.19178,-11.10121 0.0867,-22.20493 0.11644,-33.30725 0,-7.26042 0,-14.52084 0,-21.78125 -13.0056,1e-5 -26.0112,0 -39.0168,0 0,0.62169 0,1.24338 0,1.86507 z" />
      <path
         id="path3573"
         style="fill:#00ff00;stroke-width:7.12322"
         d="m 182.21338,91.160731 c 0,46.882949 0,93.765889 0,140.648829 6.0494,0.34429 12.09551,0.93935 18.16205,0.77273 4.89425,-0.0325 9.77078,-0.46543 14.63307,-0.98512 1.77553,-0.17555 3.55111,-0.35061 5.32654,-0.52708 0.1972,-26.87209 0.46687,-53.74373 0.60917,-80.61617 0.0395,-15.62192 0.074,-31.24628 -0.26013,-46.86555 -0.12171,-3.01761 -0.0537,-6.069499 -0.72918,-9.033149 -0.31878,-1.753171 -0.63814,-3.506243 -0.9561,-5.259559 -12.2618,0 -24.52361,0 -36.78542,0 0,0.62169 0,1.243379 0,1.865069 z" />
      <path
         id="path3649"
         style="fill:#ff0000;stroke-width:3.56161"
         d="m 191.10936,331.15365 c -1.69884,-0.0163 -3.45589,0.84524 -4.13658,2.44445 -1.04043,2.31997 -1.06993,5.11176 -0.0272,7.43641 0.58542,1.35433 1.95706,2.16591 3.38842,2.3887 2.03484,0.39896 4.16551,0.30137 6.18491,-0.13021 1.51685,-0.32398 2.56408,-1.81738 2.43467,-3.32835 -0.0697,-1.60344 -0.44939,-3.18727 -0.85635,-4.73479 -0.96019,-2.37904 -3.5703,-3.71582 -6.03369,-4.02808 -0.31746,-0.031 -0.63475,-0.0597 -0.9542,-0.0481 z" />
      <path
         id="path3725"
         style="fill:#0000ff;stroke-width:3.56161"
         d="m 126.54338,333.25367 c -12.50992,0.10709 -25.02728,0.12877 -37.525008,0.73291 -1.363266,0.15113 -2.855662,-0.01 -4.077532,0.70779 -0.926321,0.86208 -0.990957,2.29441 -0.349322,3.3392 1.130707,1.93796 3.224028,3.24758 5.475323,3.47552 4.232075,0.54649 8.515185,0.44958 12.774319,0.53425 11.90755,0.0479 23.81621,0.0883 35.72321,-0.0529 3.7424,-0.12325 7.52225,-0.0504 11.2193,-0.71191 1.37798,-0.22778 2.9724,-1.05648 3.0656,-2.59725 0.11459,-1.68992 -1.43338,-2.82602 -2.62954,-3.76904 -2.01046,-1.46795 -4.64654,-1.38105 -7.025,-1.56025 -5.54763,-0.19672 -11.10139,-0.10793 -16.65135,-0.0983 z" />
      <path
         id="path3801"
         style="fill:#00ff00;stroke-width:3.56161"
         d="m 101.61065,364.56098 c 0.0961,3.21594 -0.37473,6.58758 0.89513,9.64408 0.92449,2.33783 3.39043,3.92524 5.92622,3.85461 10.49986,0.30338 21.00635,0.30914 31.50991,0.38793 19.2151,0.0821 38.43044,0.1 57.64564,0.15422 -0.67665,-3.38577 -1.10882,-6.85003 -2.42305,-10.07397 -0.76669,-2.00226 -1.80456,-3.88864 -2.70783,-5.83194 -30.282,0 -60.56402,0 -90.84602,0 0,0.62169 0,1.24338 0,1.86507 z" />
      <path
         id="path3840"
         style="fill:#ff0000;stroke-width:3.56161"
         d="m 108.65729,394.98675 c -0.0327,2.86631 -0.11619,5.89578 1.30093,8.49896 1.3079,2.61135 4.01794,4.3389 6.89875,4.77792 5.18296,0.90172 10.47532,0.64811 15.71185,0.57715 7.11166,-0.15025 14.23679,-0.86524 21.13754,-2.61857 7.16698,-1.77893 14.18904,-4.07863 21.17047,-6.45847 2.11939,-0.78993 4.32616,-1.42391 6.30484,-2.52944 0.69568,-0.51117 0.90038,-1.39704 1.34731,-2.09821 -0.78646,-0.52653 -1.42031,-1.40555 -2.44515,-1.42648 -3.74617,-0.33495 -7.51573,-0.31598 -11.27408,-0.41432 -17.8689,-0.28219 -35.74081,-0.13707 -53.61114,-0.17361 -2.18043,0 -4.36088,0 -6.54132,0 0,0.62169 0,1.24337 0,1.86507 z" />
    </g>
  </g>
</svg>
