<?xml version="1.0" encoding="UTF-8" standalone="no"?>
<!-- Created with Inkscape (http://www.inkscape.org/) -->

<svg
   version="1.1"
   id="svg870"
   width="512"
   height="512"
   viewBox="0 0 512 512"
   sodipodi:docname="scapy.svg"
   inkscape:version="1.2.2 (b0a8486541, 2022-12-01)"
   xmlns:inkscape="http://www.inkscape.org/namespaces/inkscape"
   xmlns:sodipodi="http://sodipodi.sourceforge.net/DTD/sodipodi-0.dtd"
   xmlns="http://www.w3.org/2000/svg"
   xmlns:svg="http://www.w3.org/2000/svg">
  <defs
     id="defs874" />
  <sodipodi:namedview
     id="namedview872"
     pagecolor="#505050"
     bordercolor="#eeeeee"
     borderopacity="1"
     inkscape:pageshadow="0"
     inkscape:pageopacity="0"
     inkscape:pagecheckerboard="0"
     showgrid="false"
     inkscape:zoom="0.86772068"
     inkscape:cx="146.93668"
     inkscape:cy="255.8427"
     inkscape:window-width="1366"
     inkscape:window-height="705"
     inkscape:window-x="0"
     inkscape:window-y="26"
     inkscape:window-maximized="1"
     inkscape:current-layer="g876"
     inkscape:showpageshadow="0"
     inkscape:deskcolor="#505050" />
  <g
     inkscape:groupmode="layer"
     inkscape:label="Image"
     id="g876">
    <path
       style="fill:#28fc4d;fill-opacity:1;stroke-width:2.71762"
       d="m 302.41929,489.53515 c -23.99487,-6.59272 -50.98561,-22.08754 -69.66265,-39.9919 -17.08322,-16.37646 -17.86429,-16.77965 -32.50601,-16.77965 -22.85093,0 -33.33714,-7.351 -33.33714,-23.3699 0,-7.80278 10.39638,-18.32498 18.10584,-18.32498 5.83738,0 7.21707,-4.0399 4.19419,-12.28111 -1.38279,-3.76988 -8.03012,-4.39685 -46.61785,-4.39685 -44.240562,0 -45.115894,-0.11591 -51.526774,-6.8228 -8.311748,-8.69553 -8.311748,-19.35374 0,-28.04925 6.359549,-6.65321 7.538746,-6.82283 47.435704,-6.82283 h 40.91402 l 1.68259,-20.82401 c 0.92542,-11.45321 4.18074,-28.58209 7.23404,-38.06417 5.22579,-16.2288 5.3121,-18.06463 1.47123,-31.2946 -2.24412,-7.72992 -5.09882,-18.43239 -6.34377,-23.78322 l -2.26356,-9.72881 -28.27552,-0.78766 c -26.87032,-0.74849 -28.54572,-1.14701 -33.71259,-8.01891 -6.21181,-8.2617 -6.62736,-11.82595 -2.4871,-21.33239 4.41816,-10.14456 13.29306,-12.94578 41.01515,-12.94578 25.01936,0 25.11626,-0.0268 25.11626,-6.94914 v -6.94915 H 128.5355 c -53.076028,0 -54.484889,-0.14852 -61.52738,-6.48592 -9.129722,-8.21566 -9.580321,-22.99045 -0.924785,-30.3229 5.142538,-4.35645 12.63757,-4.88606 69.147315,-4.88606 59.94225,0 63.52876,-0.2916 66.13006,-5.37658 4.84233,-9.465789 3.16264,-11.301377 -10.34159,-11.301377 -10.97889,0 -13.98087,-1.182146 -18.59883,-7.324011 -6.86435,-9.12954 -7.00775,-17.916135 -0.43118,-26.41887 4.74417,-6.133659 7.39009,-6.665544 40.51888,-8.145156 35.39535,-1.580843 35.47053,-1.598592 55.59025,-13.127136 93.27501,-53.446324 211.8791,3.237028 235.08327,112.35115 5.72169,26.90534 4.14898,64.83073 -3.68225,88.79574 l -5.51519,16.87756 5.35884,17.86818 c 18.04056,60.15346 2.77659,124.64921 -40.08827,169.38723 -33.41904,34.87942 -68.72302,50.13916 -115.26788,49.82328 -14.82475,-0.10069 -33.53013,-1.98974 -41.56747,-4.19802 z m 82.35427,-46.38185 c 83.37338,-32.4912 106.54503,-141.13047 44.04731,-206.51397 -7.63433,-7.98684 -19.17088,-17.30125 -25.63675,-20.69867 -17.04942,-8.95844 -23.71254,-16.26647 -23.71254,-26.0077 0,-11.99519 9.2305,-21.23697 21.21102,-21.23697 10.66446,0 35.59328,14.13904 49.32536,27.9762 12.20513,12.29854 14.48686,10.77695 14.48686,-9.66076 0,-20.0635 -6.73073,-45.61564 -16.70666,-63.42433 C 437.66263,105.51143 413.65431,83.359995 393.48934,73.487955 358.80567,56.508092 311.83977,60.161078 279.09406,82.385566 249.82887,102.2478 230.6437,133.10625 224.59592,170.04323 c -7.79387,47.60129 19.39616,105.49403 59.42479,126.52666 17.2131,9.04445 23.71251,16.24299 23.71251,26.26323 0,11.05361 -5.92234,19.84083 -14.97398,22.21754 -9.18969,2.41296 -35.26271,-10.7035 -52.10275,-26.21112 -6.66571,-6.13832 -13.43056,-11.16059 -15.033,-11.16059 -4.31398,0 -3.6123,29.38113 1.15942,48.54685 5.85536,23.51832 15.83193,40.98758 33.44521,58.56353 16.81615,16.7805 42.32396,30.8854 62.68984,34.66519 17.51138,3.25003 44.36693,0.51427 61.8556,-6.30122 z M 120.3475,426.45754 c -14.68453,-13.21434 -7.14952,-35.38882 12.0253,-35.38882 24.44199,0 26.44823,34.1908 2.36666,40.33296 -5.13134,1.30878 -8.87098,0.025 -14.39196,-4.94414 z M 11.35962,145.19524 c -12.8767568,-13.47131 -4.2554005,-34.87208 14.048284,-34.87208 9.623143,0 19.284681,10.69559 19.284681,21.34865 0,8.83886 -11.27043,20.34623 -19.927317,20.34623 -3.786191,0 -9.81873,-3.07026 -13.405648,-6.8228 z"
       id="path1120" />
  </g>
</svg>
