<?xml version="1.0" encoding="UTF-8" standalone="no"?>
<!-- Created with Inkscape (http://www.inkscape.org/) -->

<svg
   version="1.1"
   id="svg896"
   width="512"
   height="512"
   viewBox="0 0 512 512"
   sodipodi:docname="sctpscan.svg"
   inkscape:version="1.2.2 (b0a8486541, 2022-12-01)"
   inkscape:export-filename="../GIT Icons/sctpscan.png"
   inkscape:export-xdpi="96"
   inkscape:export-ydpi="96"
   xmlns:inkscape="http://www.inkscape.org/namespaces/inkscape"
   xmlns:sodipodi="http://sodipodi.sourceforge.net/DTD/sodipodi-0.dtd"
   xmlns="http://www.w3.org/2000/svg"
   xmlns:svg="http://www.w3.org/2000/svg">
  <defs
     id="defs900" />
  <sodipodi:namedview
     id="namedview898"
     pagecolor="#505050"
     bordercolor="#eeeeee"
     borderopacity="1"
     inkscape:pageshadow="0"
     inkscape:pageopacity="0"
     inkscape:pagecheckerboard="0"
     showgrid="false"
     inkscape:zoom="0.61733737"
     inkscape:cx="120.67956"
     inkscape:cy="257.55771"
     inkscape:window-width="1366"
     inkscape:window-height="705"
     inkscape:window-x="0"
     inkscape:window-y="26"
     inkscape:window-maximized="1"
     inkscape:current-layer="g902"
     inkscape:showpageshadow="0"
     inkscape:deskcolor="#505050" />
  <g
     inkscape:groupmode="layer"
     inkscape:label="Image"
     id="g902">
    <g
       id="g955"
       transform="matrix(0.98052735,0,0,0.99517597,4.9850003,1.2437577)">
      <path
         id="path1908-7"
         style="fill:#ffffff;fill-opacity:1;stroke-width:4.50764"
         d="M 147.32227,5.3535156 C 98.560246,53.255564 49.798573,101.15797 1.0351562,149.05859 c 0.054783,21.54024 -0.10870995,43.08326 0.3468515,64.62032 -0.059512,15.63494 -0.050138,31.27085 0.091099,46.90495 -0.60472012,24.02755 -0.3783248,48.0649 -0.4086538,72.09739 -0.025931,9.78006 -0.016917,19.56015 -0.019531,29.34023 31.0754411,30.66223 62.0540281,61.41976 93.3272891,91.87881 15.614949,15.00626 31.209819,30.0688 47.705849,44.11587 3.89283,3.2581 8.41163,6.07628 13.52835,6.78388 5.00667,0.83349 10.09604,0.90039 15.1498,1.24264 17.34644,0.83465 34.71672,0.97321 52.07996,1.12394 36.36618,0.18403 72.73013,-0.37966 109.095,-0.58222 10.74756,-0.0852 21.4951,-0.17201 32.24266,-0.25628 48.92998,-48.08239 97.86132,-96.1634 146.79101,-144.24609 0,-71.00195 0,-142.00391 0,-213.00586 -48.95302,-48.09972 -97.9081,-96.197357 -146.86132,-144.2968731 -72.06576,0 -144.13151,0 -216.19727,0 -0.19466,0.1914062 -0.38932,0.3828125 -0.58398,0.5742187 z" />
      <g
         id="g2034"
         transform="matrix(0.96782422,0,0,0.9660274,8.2418121,8.7097263)">
        <path
           id="path1908"
           style="fill:#ff0000;fill-opacity:1;stroke-width:4.66183"
           d="m 254.87891,172.97656 c -5.75335,0.17745 -10.98102,3.77533 -14.03064,8.52943 -3.69125,5.60413 -4.81084,13.10744 -1.99792,19.31833 1.26403,2.72986 3.26372,5.34715 6.11457,6.51301 5.73086,1.72731 12.06664,1.37424 17.59142,-0.9148 4.99779,-2.06979 9.46912,-6.06858 11.06085,-11.36003 1.15907,-3.75593 0.71878,-7.95291 -1.21881,-11.37582 -2.99972,-5.58495 -8.70829,-9.7205 -15.01166,-10.59488 -0.83168,-0.10022 -1.67023,-0.14391 -2.50781,-0.11524 z" />
        <g
           id="g1563"
           transform="matrix(0.96497606,0,0,0.94987345,12.300506,26.731799)">
          <path
             id="path1004"
             style="fill:#000000;stroke-width:4"
             d="M 144.57194,-13.105626 71.558275,59.89828 -1.4553971,132.90414 v 36.91601 c 0,10.95788 0.1305817,18.58839 0.51953121,24.16211 -0.12210671,0.49126 -0.19335931,1.00312 -0.19335931,1.53321 v 46.10156 c 0,0.66874 0.105638,1.31022 0.29687501,1.91406 -0.50342661,9.18169 -0.62304691,23.0175 -0.62304691,44.39453 v 60.90235 l 70.0000001,70.36718 c 38.499997,38.70224 73.599997,71.9462 77.999997,73.87696 4.4,1.93076 54.34599,3.13225 110.99219,2.66797 l 102.99414,-0.84571 73.00586,-73.01367 73.00781,-73.01367 V 240.89437 132.92172 L 433.53093,59.908046 360.51726,-13.105626 H 252.5446 Z m 10.05469,14.00000019 h 97.83594 97.83594 L 421.42155,72.017421 492.5446,143.14242 v 97.75195 97.75391 l -71.12305,71.12305 -71.12304,71.12304 h -97.625 -97.625 L 83.796556,410.04086 12.544603,339.18539 v -57.4375 c 0,-17.44889 -0.09004,-29.2664 -0.412109,-37.70898 0.309128,-0.74554 0.482421,-1.56198 0.482421,-2.42188 v -46.10156 c 0,-0.65847 -0.101476,-1.2929 -0.287109,-1.88867 0.166548,-4.46057 0.216797,-10.15247 0.216797,-17.48047 V 142.81234 L 83.585619,71.853358 Z M 158.80632,12.894374 91.675462,80.025233 24.544603,147.15609 v 93.73828 93.74024 l 67.130859,67.13086 67.130858,67.1289 h 93.38476 93.38282 l 35.48632,-34.72265 c 19.51673,-19.09812 35.48438,-37.09812 35.48438,-40 0,-11.9124 -15.72163,-3.77321 -39.97266,20.69531 -17.13268,17.28636 -26.63329,24.30924 -28.41015,21 -1.46831,-2.73456 -21.11325,-55.0339 -43.6543,-116.2207 l -40.98242,-111.24805 10.50976,-10.9707 c 13.78053,-14.38377 14.06088,-33.34538 0.69141,-46.71485 -30.63108,-30.63107 -73.66849,15.40512 -43.67187,46.71485 l 10.50976,10.9707 -41.05078,111.24805 c -22.57778,61.1868 -41.96438,113.66776 -43.08203,116.625 -1.28985,3.4128 -23.00766,-15.56096 -59.458987,-51.94727 L 40.544603,326.99789 V 240.99203 154.98617 L 103.49772,91.94125 166.45085,28.894374 h 86.00195 86 l 63.04688,62.953126 63.04492,62.95312 v 85.93164 85.93165 l -22.48242,22.71874 c -20.794,21.01329 -24.75555,31.51172 -11.89063,31.51172 2.83528,0 15.32879,-10.66644 27.76367,-23.70312 L 480.5446,333.48812 V 240.32211 147.15609 L 413.41374,80.025233 346.28288,12.894374 H 252.5446 Z m -10.7793,102.289066 c -2.05309,-0.0981 -5.39614,1.8727 -9.97656,6.17578 -12.33938,11.59225 -22.3309,44.75997 -19.08594,63.35547 1.36105,7.79956 6.84843,21.82968 12.19531,31.17968 9.61059,16.80588 21.38477,22.77293 21.38477,10.83789 0,-3.38908 -3.73478,-11.21155 -8.29883,-17.38476 -13.7877,-18.64886 -14.43738,-40.77971 -1.94726,-66.30859 8.51966,-17.41358 10.24532,-27.63959 5.72851,-27.85547 z m 209.03516,0 c -4.51681,0.21588 -2.79115,10.44189 5.72851,27.85547 12.49012,25.52889 11.84044,47.65973 -1.94726,66.30859 -4.56405,6.17321 -8.29883,13.99568 -8.29883,17.38476 0,22.18424 28.62745,-13.63615 33.58008,-42.01757 3.24496,-18.5955 -6.74656,-51.76322 -19.08594,-63.35547 -4.58042,-4.30308 -7.92347,-6.27391 -9.97656,-6.17578 z m -164.94727,18.65234 c -11.59875,-0.25442 -24.34816,29.02017 -20.49219,49.5625 1.18696,6.32338 4.78676,15.54609 8,20.49609 5.6714,8.73674 13.1103,11.47956 17.9668,6.62305 1.3079,-1.3079 -1.08535,-8.0579 -5.31836,-15 -9.77779,-16.0355 -9.70871,-25.04206 0.33594,-43.7832 7.10105,-13.24902 7.3154,-15.32945 1.80664,-17.44336 -0.75775,-0.29078 -1.52558,-0.43812 -2.29883,-0.45508 z m 120.85938,0 c -0.77325,0.017 -1.54108,0.1643 -2.29883,0.45508 -5.50876,2.11391 -5.29441,4.19434 1.80664,17.44336 10.04464,18.74114 10.11372,27.7477 0.33594,43.7832 -4.23301,6.9421 -6.62626,13.6921 -5.31836,15 8.26825,8.26825 22.02025,-6.09429 25.9668,-27.11914 3.85597,-20.54233 -8.89344,-49.81692 -20.49219,-49.5625 z m -60.28907,23.73242 c 10.52015,0.55527 19.95003,11.92465 13.42969,22.32617 -4.50855,7.19222 -15.72445,10.12608 -24.57031,6.42578 -6.83904,-2.86081 -6.31085,-19.35701 0.80859,-25.26562 3.19847,-2.65449 6.82532,-3.67142 10.33203,-3.48633 z m -0.14062,67.32617 c 1.15347,0 7.3898,15.27177 13.85938,33.93555 l 11.76367,33.93359 -11.56055,12.06641 c -6.35791,6.63622 -12.6857,12.06445 -14.0625,12.06445 -1.3768,0 -7.70459,-5.42823 -14.0625,-12.06445 l -11.56055,-12.06641 11.76367,-33.93359 c 6.46958,-18.66378 12.70591,-33.93555 13.85938,-33.93555 z m -31.125,86.2793 c 2.14352,-0.3475 6.70237,3.51093 10.93359,9.45313 l 8.79297,12.34765 -22.2207,22.95899 c -12.22084,12.62842 -22.25648,21.71359 -22.30078,20.18945 -0.13164,-4.52534 20.878,-60.94075 24.0332,-64.53516 0.19965,-0.22743 0.4555,-0.36442 0.76172,-0.41406 z m 62.25,0 c 0.30558,0.0505 0.56207,0.18663 0.76172,0.41406 1.59717,1.8195 7.7295,16.60392 13.62695,32.85547 5.89744,16.25154 10.04945,30.22203 9.22656,31.04492 -0.82288,0.82289 -10.8899,-8.4365 -22.37109,-20.57617 l -20.875,-22.07226 8.74414,-12.28125 c 4.20828,-5.90998 8.74767,-9.73854 10.88672,-9.38477 z m -31.125,31.78516 30.9668,30.96875 30.96875,30.96679 H 252.5446 190.60905 l 30.96875,-30.96679 z m -75.13281,77.93554 h 75.13281 75.13281 l 2.41602,9.62891 c 1.32911,5.2956 3.51657,12.4956 4.86133,16 2.18937,5.7054 -6.42652,6.37109 -82.41016,6.37109 -75.98364,0 -84.59953,-0.66569 -82.41016,-6.37109 1.34476,-3.5044 3.53222,-10.7044 4.86133,-16 z" />
          <rect
             style="fill:#000000;stroke-width:4.53242"
             id="rect1126-3"
             width="14.688"
             height="62.488472"
             x="563.04047"
             y="-6.0578904"
             ry="7.323523"
             transform="matrix(0.75907707,0.65100076,-0.71312968,0.70103214,0,0)" />
        </g>
        <path
           id="path1602"
           style="fill:#ff0000;fill-opacity:1;stroke-width:4.66183"
           d="m 255.8125,24.119141 c -31.98307,0.01872 -63.96615,0.03873 -95.94922,0.05664 -46.34864,45.6006 -92.70072,91.197709 -139.05078,136.796879 -0.05992,62.98372 -0.125642,125.96744 -0.185547,188.95117 46.597352,45.62402 93.197227,91.24546 139.794927,136.86914 63.90494,-0.0284 127.80989,-0.0595 191.71484,-0.0879 46.3369,-45.60974 92.6789,-91.2143 139.01562,-136.82422 0.0765,-62.67187 0.14618,-125.34375 0.22266,-188.01563 -46.53726,-45.9321 -93.06969,-91.869108 -139.60547,-137.80272 -31.98568,0.0179 -63.97135,0.03792 -95.95703,0.05664 z m 0.18555,18.251953 c 29.78646,0 59.57291,0 89.35937,0 42.62433,42.091877 85.17881,84.254396 127.70703,126.443356 0,57.74935 0,115.4987 0,173.24805 -34.78908,34.35297 -69.48543,68.7851 -104.39423,103.01657 -7.52345,7.35198 -15.0046,14.75426 -22.6585,21.96781 -1.26479,0.74495 -2.8133,0.59341 -4.22053,0.80318 -1.38345,0.10966 -2.69653,0.17918 -4.0136,0.21857 -10.34967,0.3098 -20.84789,0.32927 -31.25923,0.36441 -45.89802,0.0532 -91.79609,-0.008 -137.69414,-0.007 -0.7627,-0.049 -1.60479,0.0959 -2.31938,-0.0707 C 124.00648,426.60041 81.508124,384.84513 39.009766,343.08984 38.985026,284.9974 38.960286,226.90495 38.935547,168.8125 81.473253,126.63376 124.02905,84.473239 166.64258,42.371094 c 29.78515,0 59.57031,0 89.35547,0 z" />
      </g>
    </g>
  </g>
</svg>
