<?xml version="1.0" encoding="UTF-8" standalone="no"?>
<svg
   inkscape:version="1.2.2 (b0a8486541, 2022-12-01)"
   sodipodi:docname="sdnpwn.svg"
   viewBox="0 0 512 512"
   height="512"
   width="512"
   id="svg62"
   version="1.1"
   xmlns:inkscape="http://www.inkscape.org/namespaces/inkscape"
   xmlns:sodipodi="http://sodipodi.sourceforge.net/DTD/sodipodi-0.dtd"
   xmlns="http://www.w3.org/2000/svg"
   xmlns:svg="http://www.w3.org/2000/svg"
   xmlns:rdf="http://www.w3.org/1999/02/22-rdf-syntax-ns#"
   xmlns:cc="http://creativecommons.org/ns#"
   xmlns:dc="http://purl.org/dc/elements/1.1/">
  <metadata
     id="metadata68">
    <rdf:RDF>
      <cc:Work
         rdf:about="">
        <dc:format>image/svg+xml</dc:format>
        <dc:type
           rdf:resource="http://purl.org/dc/dcmitype/StillImage" />
      </cc:Work>
    </rdf:RDF>
  </metadata>
  <defs
     id="defs66" />
  <sodipodi:namedview
     inkscape:current-layer="g70"
     inkscape:window-maximized="1"
     inkscape:window-y="26"
     inkscape:window-x="0"
     inkscape:cy="255.77689"
     inkscape:cx="130.87649"
     inkscape:zoom="0.83666667"
     showgrid="false"
     id="namedview64"
     inkscape:window-height="705"
     inkscape:window-width="1366"
     inkscape:pageshadow="2"
     inkscape:pageopacity="0"
     guidetolerance="10"
     gridtolerance="10"
     objecttolerance="10"
     borderopacity="1"
     bordercolor="#666666"
     pagecolor="#000000"
     inkscape:pagecheckerboard="0"
     inkscape:showpageshadow="0"
     inkscape:deskcolor="#d1d1d1" />
  <g
     id="g70"
     inkscape:label="Image"
     inkscape:groupmode="layer">
    <g
       id="g2750"
       transform="translate(-0.29604094,-0.06782973)">
      <path
         style="fill:#ff0006;fill-opacity:1;stroke-width:2.09606"
         d="m 265.16916,282.76887 c -8.90079,-2.22798 -19.64646,-12.07834 -21.85587,-20.03487 -6.13807,-22.10452 7.6694,-42.11044 29.11811,-42.18982 20.38995,-0.0755 33.46659,20.23917 27.1111,42.11723 -4.05748,13.96742 -20.49316,23.58184 -34.37334,20.10746 z m 15.67199,-13.58363 c 9.23265,-5.2292 12.69492,-15.3863 8.55592,-25.10012 -3.48311,-8.17449 -13.14321,-13.55346 -21.96491,-12.23056 -6.68357,1.00226 -14.12262,7.97916 -15.32148,14.36962 -1.97171,10.51012 1.82114,18.85676 10.52706,23.16612 6.53154,3.23305 12.24677,3.16867 18.20341,-0.20506 z"
         id="path2212" />
      <path
         style="fill:#ffffff;fill-opacity:1;stroke-width:2.09606"
         d="M 370.51793,56.012146 C 347.7551,43.091947 328.27324,35.265153 303.58566,29.122246 285.91688,24.7258 259.87582,23.387522 234.95998,25.595499 c -32.93497,2.918614 -44.0533,6.180638 -80.18281,23.524973 -11.50602,5.523581 -21.79775,10.042874 -22.8705,10.042874 -2.36267,0 -6.44082,-5.840958 -5.02591,-7.198398 2.87852,-2.761612 31.46827,-17.179805 43.43796,-21.906343 31.33142,-12.372013 52.97986,-16.621907 85.45817,-16.776642 25.25597,-0.120327 39.576,1.685598 60.94488,7.685872 20.86558,5.858948 44.14679,16.149113 61.89031,27.355155 8.53832,5.392442 9.58821,7.49704 5.94967,11.926772 l -2.09163,2.546458 z"
         id="path985" />
      <path
         style="fill:#ffffff;fill-opacity:1;stroke-width:2.09606"
         d="m 224.10358,497.68134 c -27.63641,-3.12159 -57.74667,-13.81332 -87.30835,-31.00197 -4.30446,-2.50283 -9.08569,-5.5704 -10.62496,-6.81683 -2.72822,-2.20918 -2.74588,-2.34679 -0.70159,-5.46677 1.15339,-1.76031 2.9132,-3.20055 3.91069,-3.20055 0.99748,0 8.18879,3.5534 15.98067,7.89645 35.4712,19.77098 62.90077,27.55374 101.58853,28.82434 43.47478,1.42782 72.39015,-4.84761 109.79313,-23.82812 11.48681,-5.8291 21.91994,-10.44227 23.1847,-10.25149 1.26477,0.19078 2.89236,1.33063 3.61687,2.533 1.9336,3.20897 -4.37107,8.21398 -21.55171,17.10895 -37.1984,19.25882 -64.30698,25.67615 -107.1723,25.37057 -11.96334,-0.0853 -25.7854,-0.6107 -30.71568,-1.16758 z"
         id="path1283" />
      <path
         style="fill:#ff0006;fill-opacity:1;stroke-width:2.09606"
         d="m 352.58964,194.6296 c -7.17286,-1.68714 -10.94077,-3.50911 -15.18302,-7.34172 -20.8566,-18.84269 -7.94718,-54.05345 19.80158,-54.00927 13.1579,0.021 22.24081,6.074 28.93392,19.28221 l 2.94197,5.80571 17.01174,0.11914 c 20.68749,0.14488 22.85551,0.62489 23.38235,5.17693 0.22273,1.92446 -0.2977,3.84752 -1.19522,4.4165 -0.87436,0.55429 -10.24809,1.01604 -20.83052,1.0261 l -19.24079,0.0183 -2.24099,4.96963 c -3.94623,8.75117 -8.39039,13.74303 -15.0669,16.92374 -6.53696,3.11423 -14.09487,4.60514 -18.31412,3.61272 z m 12.00164,-12.21486 c 6.60942,-3.00224 10.83357,-8.3709 11.83365,-15.03993 1.98874,-13.26188 -6.50194,-23.43221 -19.64733,-23.53404 -7.60273,-0.0589 -12.22781,2.76858 -16.0669,9.82226 -5.12702,9.42002 -3.82634,16.86672 4.30685,24.65764 6.8738,6.58453 11.8155,7.61815 19.57373,4.09407 z"
         id="path1322" />
      <path
         style="fill:#ff0006;fill-opacity:1;stroke-width:2.09606"
         d="m 224.34263,128.24701 c -3.59975,-3.59975 -0.40627,-9.86718 4.64475,-9.11565 5.43522,0.80868 5.04467,10.54991 -0.42297,10.54991 -1.53313,0 -3.43294,-0.64541 -4.22178,-1.43426 z"
         id="path2251" />
      <path
         style="fill:#ff0006;fill-opacity:1;stroke-width:2.09606"
         d="m 249.31332,128.02115 c -0.81294,-0.97954 -1.30475,-3.29259 -1.09291,-5.14011 0.34041,-2.96883 0.87123,-3.35913 4.56843,-3.35913 4.08367,0 4.18327,0.11383 4.18327,4.78088 0,4.25237 -0.34163,4.82059 -3.09035,5.14011 -1.6997,0.19758 -3.75549,-0.44221 -4.56844,-1.42175 z"
         id="path2290" />
      <path
         style="fill:#ff0006;fill-opacity:1;stroke-width:2.09606"
         d="m 272.12249,128.64122 c -0.95184,-0.60348 -1.42825,-2.62091 -1.19522,-5.06138 0.37766,-3.95518 0.52365,-4.05793 5.76596,-4.05793 5.2423,0 5.38829,0.10275 5.76595,4.05793 0.4279,4.48137 -1.07753,6.06483 -5.76595,6.06483 -1.64343,0 -3.70026,-0.45155 -4.57074,-1.00345 z"
         id="path2329" />
      <path
         style="fill:#ff0006;fill-opacity:1;stroke-width:2.09606"
         d="m 266.42841,382.6263 c -0.37466,-0.97634 -0.5042,-3.02444 -0.28787,-4.55133 0.34501,-2.43519 1.05393,-2.77617 5.77181,-2.77617 5.35003,0 5.37849,0.0221 5.37849,4.18327 0,4.06848 -0.13969,4.19337 -5.09062,4.55133 -3.6521,0.26405 -5.28311,-0.13357 -5.77181,-1.4071 z"
         id="path2368" />
      <path
         style="fill:#ff0006;fill-opacity:1;stroke-width:2.09606"
         d="m 291.53073,382.63338 c -0.37615,-0.98023 -0.50692,-3.03152 -0.29059,-4.55841 0.32601,-2.30103 1.10928,-2.77617 4.57659,-2.77617 3.98407,0 4.18327,0.19921 4.18327,4.18327 0,3.84779 -0.31217,4.21335 -3.89268,4.55841 -2.61043,0.25157 -4.11796,-0.21192 -4.57659,-1.4071 z"
         id="path2407" />
      <path
         style="fill:#ff0006;fill-opacity:1;stroke-width:2.09606"
         d="m 316.63033,382.63338 c -0.37615,-0.98023 -0.50692,-3.03152 -0.29059,-4.55841 0.32601,-2.30103 1.10929,-2.77617 4.57659,-2.77617 3.98407,0 4.18327,0.19921 4.18327,4.18327 0,3.84779 -0.31217,4.21335 -3.89268,4.55841 -2.61043,0.25157 -4.11796,-0.21192 -4.57659,-1.4071 z"
         id="path2446" />
      <path
         style="fill:#ff0006;fill-opacity:1;stroke-width:2.09606"
         d="m 443.68214,168.38334 c -0.4694,-0.4694 -0.85346,-2.61004 -0.85346,-4.75698 0,-4.49813 3.10005,-6.24349 7.19598,-4.05141 1.89063,1.01183 2.41494,2.27451 2.13678,5.14589 -0.31628,3.26488 -0.88374,3.85552 -3.99723,4.16051 -1.99573,0.19549 -4.01267,-0.0286 -4.48207,-0.49801 z"
         id="path2485" />
      <path
         style="fill:#ff0006;fill-opacity:1;stroke-width:2.09606"
         d="m 468.06815,166.47884 c -2.08705,-5.64183 1.93937,-9.64229 6.9863,-6.94125 2.4387,1.30515 3.07078,4.14947 1.7101,7.69533 -1.1522,3.00259 -7.51068,2.45123 -8.6964,-0.75408 z"
         id="path2524" />
      <path
         style="fill:#ff0006;fill-opacity:1;stroke-width:2.09606"
         d="m 490.65033,167.3462 c -3.73944,-4.50576 2.03914,-10.38621 8.26461,-8.41032 3.0229,0.95943 4.49227,5.96953 2.4666,8.41032 -1.90579,2.29633 -8.82543,2.29633 -10.73121,0 z"
         id="path2563" />
      <path
         style="fill:#ff0006;fill-opacity:1;stroke-width:2.09606"
         d="m 61.613769,193.69777 c -0.785362,-0.9463 -1.254605,-3.23216 -1.042762,-5.07968 0.340415,-2.96882 0.871228,-3.35913 4.568435,-3.35913 3.883369,0 4.211044,0.29092 4.570737,4.05793 0.536777,5.62162 -4.710377,8.4608 -8.09641,4.38088 z"
         id="path2602" />
      <path
         style="fill:#ff0006;fill-opacity:1;stroke-width:2.09606"
         d="m 38.904606,193.69777 c -0.785362,-0.9463 -1.254605,-3.23216 -1.042763,-5.07968 0.340415,-2.96882 0.871229,-3.35913 4.568436,-3.35913 3.883369,0 4.211044,0.29092 4.570736,4.05793 0.536778,5.62162 -4.710377,8.4608 -8.096409,4.38088 z"
         id="path2641" />
      <path
         style="fill:#ff0006;fill-opacity:1;stroke-width:2.09606"
         d="m 13.984064,193.98406 c -1.843627,-1.84362 -1.843627,-6.04482 0,-7.88844 2.195761,-2.19576 6.702413,-1.70661 8.085437,0.8776 1.680955,3.14089 1.561536,4.36444 -0.64093,6.5669 -2.236876,2.23688 -5.459401,2.42905 -7.444507,0.44394 z"
         id="path2680" />
      <path
         style="fill:#ff0006;fill-opacity:1;stroke-width:2.09606"
         d="m 86.863526,248.16313 c -0.951839,-0.60348 -1.428246,-2.62091 -1.195219,-5.06138 0.359692,-3.76701 0.687367,-4.05793 4.570736,-4.05793 3.88337,0 4.211045,0.29092 4.570737,4.05793 0.392211,4.10759 -1.082855,6.06483 -4.570737,6.06483 -0.986055,0 -2.505038,-0.45155 -3.375517,-1.00345 z"
         id="path2719" />
      <path
         style="fill:#ff0006;fill-opacity:1;stroke-width:2.09606"
         d="m 109.57269,248.16313 c -0.95184,-0.60348 -1.42825,-2.62091 -1.19522,-5.06138 0.30661,-3.21105 0.97407,-4.14096 3.19828,-4.45579 5.49352,-0.7776 8.54377,0.78073 8.54377,4.36486 0,1.82811 -0.64542,3.96926 -1.43426,4.7581 -1.6484,1.6484 -6.784,1.87057 -9.11257,0.39421 z"
         id="path2758" />
      <path
         style="fill:#ff0006;fill-opacity:1;stroke-width:2.09606"
         d="m 134.97258,248.28847 c -3.84187,-2.63069 -2.22985,-9.84226 2.20006,-9.84226 3.46077,0 5.65604,2.08755 5.65604,5.37849 0,4.34738 -4.38633,6.83966 -7.8561,4.46377 z"
         id="path2797" />
      <path
         style="fill:#00ff15;fill-opacity:1;stroke-width:2.09606"
         d="m 121.31474,124.30279 v -5.37849 h 43.6255 43.6255 v 5.37849 5.37848 h -43.6255 -43.6255 z"
         id="path2836" />
      <path
         style="fill:#00ff15;fill-opacity:1;stroke-width:2.09606"
         d="m 342.43028,379.48207 v -4.78088 h 39.44223 39.44223 v 4.78088 4.78088 h -39.44223 -39.44223 z"
         id="path3245" />
      <path
         style="fill:#00ff15;fill-opacity:1;stroke-width:2.09606"
         d="m 87.848605,190.03984 v -5.37849 h 23.904385 23.90438 v 5.37849 5.37849 H 111.75299 87.848605 Z"
         id="path3284" />
      <path
         style="fill:#ff0006;fill-opacity:1;stroke-width:2.09606"
         d="m 409.66333,318.76454 c -3.21355,-0.48358 -4.85494,-5.40044 -2.67834,-8.02309 0.83314,-1.00387 3.45682,-1.77731 6.02902,-1.77731 3.50427,0 4.72887,0.55101 5.31268,2.39044 1.73184,5.45655 -1.76556,8.44795 -8.66336,7.40996 z"
         id="path3440" />
      <path
         style="fill:#ff0006;fill-opacity:1;stroke-width:2.09606"
         d="m 433.52116,318.38603 c -2.62025,-0.96929 -3.34535,-3.81477 -1.91918,-7.53131 1.0253,-2.6719 7.25587,-2.45314 8.73285,0.30663 2.69839,5.04198 -1.28795,9.26878 -6.81367,7.22468 z"
         id="path3516" />
      <path
         style="fill:#ff0006;fill-opacity:1;stroke-width:2.09606"
         d="m 456.19841,318.46138 c -2.23097,-0.89559 -2.69317,-1.86331 -2.39044,-5.00495 0.36266,-3.7635 0.55644,-3.89468 5.75378,-3.89468 5.35238,0 5.38029,0.0218 5.74944,4.48207 0.27525,3.32565 -0.085,4.48208 -1.39627,4.48208 -0.97197,0 -2.48352,0.23529 -3.359,0.52287 -0.87548,0.28758 -2.83636,0.0233 -4.35751,-0.58739 z"
         id="path3555" />
      <path
         style="fill:#0a00ff;fill-opacity:1;stroke-width:2.09606"
         d="m 182.27092,309.06178 c -10.30266,-2.15073 -17.92114,-8.36492 -23.19847,-18.92234 l -3.13662,-6.2749 -42.11134,0.004 -42.111343,0.004 -4.048036,7.82844 C 61.450883,303.71859 52.6344,308.9633 38.646735,308.9633 c -8.674171,0 -14.245047,-2.62666 -20.912858,-9.86038 -6.296785,-6.8312 -8.0102952,-12.1909 -7.312534,-22.87293 1.205373,-18.45305 12.099033,-28.47135 30.861487,-28.38162 3.794642,0.0181 8.697801,0.78585 10.895909,1.70599 5.049491,2.11376 11.978786,9.74192 15.927005,17.53336 l 3.050063,6.01901 h 42.171973 42.17198 l 2.59138,-5.33384 c 6.37712,-13.12602 16.58862,-20.27496 28.96065,-20.27496 25.16602,0 39.09762,30.49691 23.35825,51.13229 -5.84017,7.65685 -18.661,12.40933 -28.13912,10.43072 z M 48.323359,296.45727 c 4.451903,-2.30217 9.106654,-7.93829 10.804292,-13.08218 2.467394,-7.47628 -2.523827,-19.19633 -9.771209,-22.9441 -7.996015,-4.1349 -19.986593,-1.33101 -25.116486,5.87326 -6.110732,8.58173 -3.246159,24.2892 5.389929,29.5549 4.620204,2.81709 13.83247,3.11184 18.693474,0.59812 z m 149.147461,-1.72835 c 6.1796,-4.47649 10.45227,-12.9723 9.49393,-18.87783 -0.93091,-5.73652 -5.89778,-12.99037 -10.53774,-15.38978 -5.22275,-2.70079 -16.0632,-1.85916 -20.95941,1.62725 -10.47519,7.45899 -10.01602,26.0283 0.82661,33.42937 5.96793,4.07364 14.92458,3.73993 21.17661,-0.78901 z"
         id="path3594" />
      <path
         style="fill:#0a00ff;fill-opacity:1;stroke-width:2.09606"
         d="m 409.96016,266.70329 c -6.76176,-3.16275 -15.16034,-11.65744 -17.82073,-18.02464 -1.06599,-2.55127 -3.04275,-4.74983 -4.90843,-5.45916 -1.71802,-0.65319 -14.78686,-1.20381 -29.04188,-1.22359 l -25.9182,-0.036 -22.11156,-23.24522 -22.11155,-23.24522 -29.48392,-0.0256 c -16.21616,-0.0141 -30.35963,0.31047 -31.42995,0.72119 -1.07032,0.41072 -3.21756,3.25601 -4.77166,6.32288 -3.08455,6.08705 -12.02441,15.02492 -16.87157,16.86781 -4.0705,1.5476 -18.62337,1.4832 -22.84318,-0.10108 -4.69985,-1.76451 -14.46302,-11.63402 -15.83701,-16.00952 -3.73986,-11.90963 -2.32085,-24.69 3.65768,-32.94313 10.33231,-14.26333 36.04171,-14.28228 48.02967,-0.0354 1.65702,1.96926 3.36183,5.16973 3.78846,7.11217 1.43617,6.53887 1.93018,6.63621 36.95875,7.28253 l 32.38838,0.59761 22.11156,23.00224 22.11155,23.00224 27.09855,0.006 27.09854,0.006 1.34945,-4.0889 c 4.75387,-14.40433 22.16435,-23.84179 36.73388,-19.91182 12.87947,3.47409 22.35981,16.61732 22.34938,30.98442 -0.01,13.90954 -6.7665,23.33938 -20.64074,28.80809 -8.02985,3.16506 -12.51715,3.08306 -19.88547,-0.36341 z m 19.26521,-11.07375 c 4.90319,-2.32672 8.02174,-6.44441 10.07191,-13.29886 2.91449,-9.74416 -2.42104,-19.45153 -13.25231,-24.11102 -7.35344,-3.16336 -11.87088,-2.17773 -17.48438,3.81481 -6.24428,6.66591 -7.56458,9.44163 -7.56458,15.90333 0,7.79716 3.46879,13.27894 10.72107,16.94268 6.29297,3.17911 11.88332,3.41828 17.50829,0.74906 z M 204.6922,207.37697 c 6.52182,-3.9764 8.84235,-8.94097 8.39554,-17.96149 -0.46695,-9.4272 -3.6804,-14.70063 -10.97746,-18.01456 -6.19164,-2.81191 -9.60385,-2.80214 -15.87585,0.0454 -7.20819,3.27262 -11.67811,10.45419 -11.56074,18.57397 0.11255,7.78663 3.02567,13.01131 9.39005,16.8411 6.12842,3.68779 15.05947,3.91099 20.62846,0.51554 z"
         id="path4521" />
      <path
         style="fill:#0a00ff;fill-opacity:1;stroke-width:2.09606"
         d="m 116.49727,391.98891 c -12.64864,-3.89916 -21.453998,-16.39063 -21.453998,-30.43513 0,-19.14555 14.454158,-32.62978 32.932548,-30.72264 11.49418,1.1863 20.65767,8.67156 25.53949,20.86209 l 1.55558,3.88446 33.61993,-0.0961 33.61994,-0.0961 22.11155,-23.19783 22.11155,-23.19783 27.76871,-0.0128 27.76872,-0.0128 3.00595,-5.93197 c 7.00238,-13.81854 15.45654,-19.60446 28.70762,-19.64716 6.99088,-0.0225 9.39912,0.53768 14.64661,3.4071 13.5524,7.41072 18.75997,21.43864 13.9595,37.60355 -3.47041,11.68614 -15.70961,20.42506 -28.60611,20.42506 -12.11815,0 -22.39191,-6.96286 -28.02753,-18.99516 l -2.85917,-6.10445 h -26.4799 -26.4799 l -22.42141,23.30678 -22.42142,23.30677 h -34.35541 -34.35541 l -2.89355,6.27235 c -3.98733,8.64334 -10.98643,15.32463 -19.43417,18.55172 -7.97795,3.04762 -10.04886,3.14553 -17.55972,0.83018 z m 20.7124,-15.2304 c 10.65379,-8.12604 8.26082,-27.41992 -4.20003,-33.86367 -2.57519,-1.33168 -5.69598,-1.75945 -10.14468,-1.39053 -5.50341,0.45639 -7.10953,1.20096 -11.19399,5.18933 -7.72728,7.54548 -8.95522,16.40388 -3.51109,25.32924 3.92272,6.43108 8.97835,8.85089 17.49345,8.37298 5.71817,-0.32092 8.25522,-1.11946 11.55634,-3.63735 z M 362.32658,331.5885 c 14.91282,-7.21917 13.97316,-30.03545 -1.5033,-36.50193 -14.96705,-6.25364 -30.01233,8.11589 -25.6111,24.4608 3.38884,12.58522 15.17673,17.82006 27.1144,12.04113 z"
         id="path4560" />
    </g>
  </g>
</svg>
