<?xml version="1.0" encoding="UTF-8" standalone="no"?>
<svg
   inkscape:version="1.1.2 (0a00cf5339, 2022-02-04)"
   sodipodi:docname="sgn.svg"
   viewBox="0 0 512 512"
   height="512"
   width="512"
   id="svg885"
   version="1.1"
   xmlns:inkscape="http://www.inkscape.org/namespaces/inkscape"
   xmlns:sodipodi="http://sodipodi.sourceforge.net/DTD/sodipodi-0.dtd"
   xmlns="http://www.w3.org/2000/svg"
   xmlns:svg="http://www.w3.org/2000/svg"
   xmlns:rdf="http://www.w3.org/1999/02/22-rdf-syntax-ns#"
   xmlns:cc="http://creativecommons.org/ns#"
   xmlns:dc="http://purl.org/dc/elements/1.1/">
  <metadata
     id="metadata891">
    <rdf:RDF>
      <cc:Work
         rdf:about="">
        <dc:format>image/svg+xml</dc:format>
        <dc:type
           rdf:resource="http://purl.org/dc/dcmitype/StillImage" />
      </cc:Work>
    </rdf:RDF>
  </metadata>
  <defs
     id="defs889" />
  <sodipodi:namedview
     inkscape:current-layer="g893"
     inkscape:window-maximized="1"
     inkscape:window-y="24"
     inkscape:window-x="0"
     inkscape:cy="323.31474"
     inkscape:cx="256"
     inkscape:zoom="0.49023438"
     showgrid="false"
     id="namedview887"
     inkscape:window-height="695"
     inkscape:window-width="1366"
     inkscape:pageshadow="2"
     inkscape:pageopacity="0"
     guidetolerance="10"
     gridtolerance="10"
     objecttolerance="10"
     borderopacity="1"
     bordercolor="#666666"
     pagecolor="#bbbbbb"
     inkscape:pagecheckerboard="0" />
  <g
     id="g893"
     inkscape:label="Image"
     inkscape:groupmode="layer">
    <g
       id="g1108">
      <path
         style="fill:#ffffff;fill-opacity:1;stroke-width:2.52951"
         d="m 99.672721,219.80475 c -1.566145,-1.7324 -3.513365,-5.20969 -4.327156,-7.72729 -1.905266,-5.89428 -7.119422,-6.66617 -15.99775,-2.36824 -7.963902,3.85526 -11.718173,3.09692 -19.507659,-3.94041 -10.485446,-9.47297 -13.202858,-19.88142 -6.360992,-24.36438 4.067393,-2.66506 4.768064,-7.92518 1.425216,-10.6995 -1.199409,-0.99542 -4.282508,-2.85985 -6.851329,-4.14317 -4.274949,-2.13566 -4.664001,-2.89618 -4.59288,-8.97811 0.05795,-4.95596 1.27473,-8.5102 4.787447,-13.9843 5.561741,-8.66722 11.835291,-11.63063 19.192532,-9.06588 8.979814,3.13038 14.165524,0.52812 14.165524,-7.10844 0,-2.27903 1.474832,-5.85829 3.277404,-7.9539 2.687661,-3.1246 5.2773,-4.09833 14.391498,-5.41136 14.178294,-2.04259 20.233214,0.26941 23.921664,9.13422 2.93974,7.06535 6.48648,8.22954 15.60548,5.12238 10.9773,-3.74034 14.18796,-3.11448 22.12935,4.31377 10.826,10.12645 12.49137,19.29894 4.29989,23.68288 -1.84208,0.98585 -2.85171,3.0187 -2.85171,5.7418 0,3.47193 1.14645,4.88747 6.49884,8.02418 8.21185,4.81246 9.52043,9.08245 5.24818,17.12518 -7.32023,13.78073 -16.97042,19.28402 -25.8045,14.71574 -5.84827,-3.02426 -9.21063,-0.50503 -10.33856,7.74609 -1.29656,9.48479 -5.65829,11.98839 -22.13839,12.70731 -12.26194,0.53491 -13.55165,0.33007 -16.172099,-2.56857 z m 22.307039,-33.00192 c 6.08747,-2.87832 11.49485,-11.84479 11.52806,-19.11571 0.0495,-10.84547 -12.17361,-21.46223 -25.00613,-21.71981 -8.676309,-0.17415 -18.702051,4.79258 -22.685867,11.23853 -4.60344,7.44852 -3.420476,19.29589 2.519846,25.23621 8.366602,8.3666 21.556381,10.07619 33.644091,4.36078 z"
         id="path7576" />
      <path
         style="fill:#ffffff;fill-opacity:1;stroke-width:2.52951"
         d="M 437.87481,128.89001 V 40.90452 H 249.64355 61.412282 V 78.406534 115.90854 H 41.21889 21.025498 V 61.819104 7.7296616 H 248.92236 476.81921 V 112.30258 216.8755 h -19.4722 -19.4722 z"
         id="path985" />
      <path
         style="fill:#00ff15;fill-opacity:1;stroke-width:2.52951"
         d="m 131.66069,98.899707 c -7.07315,-7.243563 -7.16522,-12.389708 -0.34001,-19.004954 l 5.00106,-4.847218 130.94374,0.950913 130.94374,0.950914 3.96656,4.357304 c 5.63074,6.185429 5.20807,11.168331 -1.5032,17.721723 l -5.46977,5.341071 H 266.10229 137.00177 Z"
         id="path1949" />
      <path
         style="fill:#00ff15;fill-opacity:1;stroke-width:2.52951"
         d="m 260.74438,164.52038 c -6.10779,-6.30165 -6.24206,-12.58454 -0.3939,-18.4327 l 4.21621,-4.2162 h 65.88371 65.88372 l 4.90411,4.90411 c 5.622,5.622 6.10049,9.40702 2.02319,16.00423 -2.37154,3.83725 -4.06479,4.82369 -9.57682,5.5792 -3.68275,0.50478 -34.0636,0.91777 -67.51301,0.91777 h -60.8171 z"
         id="path2802" />
      <path
         style="fill:#00ff15;fill-opacity:1;stroke-width:1.26476"
         d="m 37.567337,285.92969 c -6.767056,-3.4323 -10.20197,-10.90867 -10.14689,-22.08554 0.06738,-13.67173 5.131355,-20.29484 16.188657,-21.17291 6.313711,-0.50138 9.988142,0.6757 12.964708,4.15314 6.359472,7.42962 7.27279,23.60869 1.867036,33.07381 -1.830166,3.2045 -2.854799,4.11687 -6.628317,5.90205 -5.672014,2.68332 -9.147769,2.71491 -14.245194,0.12945 z m 12.348594,-6.45706 c 3.38916,-2.85179 4.284425,-5.67217 4.284425,-13.49737 0,-13.13945 -2.502127,-18.44907 -8.694007,-18.44907 -3.912791,0 -7.377139,2.14915 -9.02798,5.60061 -0.959662,2.0064 -1.298459,4.53205 -1.328679,9.90503 -0.07375,13.11225 2.599587,18.39041 9.314567,18.39041 2.354359,0 3.711478,-0.48533 5.451674,-1.94961 z"
         id="path2841" />
      <path
         style="fill:#00ff15;fill-opacity:1;stroke-width:1.26476"
         d="m 39.86507,353.5841 c -3.390702,-0.86194 -5.862829,-2.88003 -7.611599,-6.21362 -1.317963,-2.51237 -1.517511,-4.35716 -1.711805,-15.82536 -0.26024,-15.36059 0.05436,-16.33819 6.556805,-20.37472 7.169745,-4.45077 13.613023,-3.83167 20.186077,1.93954 3.52414,3.09424 4.122308,5.67479 4.106082,17.71399 -0.02022,15.00073 -1.110543,18.14998 -7.40051,21.3753 -3.096365,1.58773 -10.479498,2.3116 -14.12505,1.38487 z m 11.388079,-6.36779 c 2.556235,-1.89444 3.541689,-6.17669 3.606339,-15.67119 0.06065,-8.90797 -0.664142,-12.42901 -3.154433,-15.32415 -1.477937,-1.7182 -2.239758,-1.98447 -5.677867,-1.98447 -6.555405,0 -8.55773,2.87002 -9.559937,13.70266 -0.570088,6.16197 0.708714,15.2159 2.495648,17.66922 0.722286,0.99164 2.093303,2.22136 3.046706,2.73272 2.244731,1.20396 6.858885,0.6425 9.243544,-1.12479 z"
         id="path2880" />
      <path
         style="fill:#00ff15;fill-opacity:1;stroke-width:1.26476"
         d="m 156.69827,353.54 c -3.64595,-0.86081 -5.99777,-2.94911 -8.1991,-7.2804 -2.58651,-5.08916 -3.58766,-12.40494 -2.72849,-19.93807 1.10202,-9.66243 3.36236,-13.4849 9.75724,-16.50058 5.17809,-2.44188 9.95292,-2.31272 14.20558,0.38423 9.94979,6.30997 12.13642,29.71359 3.65347,39.10321 -3.74714,4.14763 -10.15866,5.77335 -16.6887,4.23161 z m 8.89341,-5.34721 c 4.20191,-1.75567 4.98455,-3.81037 5.32293,-13.97451 0.5153,-15.47842 -1.48961,-19.98178 -8.89596,-19.98178 -4.5653,0 -6.88658,1.71793 -8.18726,6.05922 -1.05274,3.51373 -1.07611,17.91768 -0.0358,22.04922 1.46939,5.8355 6.20587,8.18358 11.79606,5.84785 z"
         id="path2919" />
      <path
         style="fill:#00ff15;fill-opacity:1;stroke-width:1.26476"
         d="m 41.00209,428.50413 c -2.836333,-0.33694 -4.733391,-1.01368 -5.891553,-2.10172 -4.412005,-4.14486 -7.054906,-16.75465 -5.601554,-26.72609 1.411929,-9.68723 4.87365,-14.31125 11.831003,-15.80333 9.950927,-2.13409 17.963044,2.46752 20.019246,11.49768 1.164068,5.1122 0.942951,17.69451 -0.39474,22.462 -1.473408,5.25119 -5.198123,9.80153 -8.420444,10.28693 -5.170338,0.77885 -7.554066,0.85826 -11.541958,0.38453 z m 10.125438,-6.59253 c 3.28968,-2.73019 5.129823,-12.76959 3.880364,-21.17037 -0.445604,-2.99603 -1.312153,-6.41801 -1.925664,-7.60441 -1.390733,-2.68939 -5.034184,-4.97183 -7.942148,-4.97538 -6.054299,-0.007 -10.124124,11.61532 -8.241343,23.53584 1.581346,10.01204 5.408864,14.31341 10.750555,12.08151 1.360633,-0.56851 2.925839,-1.40874 3.478236,-1.86719 z"
         id="path2958" />
      <path
         style="fill:#00ff15;fill-opacity:1;stroke-width:1.26476"
         d="m 82.687463,428.63142 c -5.269277,-1.37795 -10.557653,-5.90148 -11.708959,-10.01552 -0.303223,-1.08353 -0.546991,-7.00037 -0.541706,-13.14854 0.01046,-12.16622 0.37317,-13.5939 4.433459,-17.45066 3.022644,-2.87113 7.23627,-4.4063 12.165942,-4.43247 10.640179,-0.0565 15.795531,7.32111 15.795531,22.60433 0,10.48782 -2.855286,18.07862 -7.910929,21.03127 -2.529224,1.47715 -9.088416,2.23401 -12.233338,1.41159 z m 8.882547,-6.45298 c 3.32395,-3.10504 4.712124,-8.82178 4.308201,-17.74193 -0.392645,-8.67107 -2.109235,-13.38141 -5.519209,-15.14478 -5.138622,-2.65728 -9.906593,-0.21979 -12.020724,6.14526 -0.939169,2.82757 -1.145601,5.57214 -0.934113,12.41928 0.305494,9.8907 1.052333,12.15668 4.849056,14.71249 3.386968,2.27999 6.602422,2.14527 9.316789,-0.39032 z"
         id="path2997" />
      <path
         style="fill:#00ff15;fill-opacity:1;stroke-width:1.26476"
         d="m 122.70899,428.62771 c -8.50742,-2.75176 -12.22192,-8.577 -12.82534,-20.11327 -0.81542,-15.58926 5.39279,-24.82322 16.79656,-24.98287 7.1159,-0.0996 12.31854,3.87006 15.98883,12.19969 1.56477,3.55122 1.79781,16.59695 0.36937,20.67735 -1.41436,4.04017 -4.78009,8.23668 -8.21437,10.24197 -3.35059,1.95641 -9.21849,2.91403 -12.11505,1.97713 z m 7.91472,-5.4792 c 1.31125,-0.67808 2.81673,-2.59282 4.11104,-5.22865 1.81259,-3.69126 2.04029,-4.92899 2.02556,-11.01011 -0.0199,-8.22705 -1.09962,-12.25966 -4.17366,-15.58859 -4.50855,-4.88239 -10.30259,-3.59377 -13.49526,3.0014 -2.25947,4.66743 -2.84519,15.58686 -1.14906,21.42136 2.01086,6.91711 7.4653,10.10193 12.68138,7.40459 z"
         id="path3036" />
      <path
         style="fill:#00ff15;fill-opacity:1;stroke-width:1.26476"
         d="m 41.935414,503.59691 c -5.702761,-1.73471 -10.234989,-6.0519 -11.585763,-11.03607 -0.522305,-1.92724 -0.718078,-6.74139 -0.524632,-12.90093 0.286295,-9.11598 0.461654,-10.13028 2.425574,-14.02997 2.739244,-5.43923 5.665912,-7.05486 12.885945,-7.11351 6.42553,-0.0522 8.410888,0.51116 11.566984,3.28225 3.630543,3.18766 4.768054,7.56975 5.230747,20.15069 0.443967,12.07173 0.07376,13.36176 -5.018251,17.48636 -5.688546,4.60782 -9.777985,5.74374 -14.980604,4.16118 z m 9.733205,-7.25218 c 2.486089,-2.33556 3.477495,-8.07038 3.121463,-18.05621 -0.364404,-10.22064 -1.483532,-12.78067 -6.253918,-14.30598 -2.606684,-0.83347 -3.47588,-0.83062 -5.707548,0.0188 -3.496012,1.3306 -5.020799,4.15592 -5.995123,11.10855 -1.441689,10.28768 0.458219,20.17772 4.292516,22.34485 2.747863,1.55308 8.333954,0.96496 10.54261,-1.10997 z"
         id="path3075" />
      <path
         style="fill:#00ff15;fill-opacity:1;stroke-width:1.26476"
         d="m 154.44613,502.27692 c -4.73307,-3.08113 -7.10311,-5.75428 -7.73531,-8.72459 -0.30712,-1.44301 -0.55841,-7.4917 -0.55841,-13.44154 0,-9.17881 0.20401,-11.20033 1.34645,-13.34206 2.12519,-3.98408 4.01217,-5.64707 8.1749,-7.20455 13.2183,-4.9456 22.85506,4.05515 22.80417,21.29915 -0.0438,14.85206 -5.37524,22.37725 -16.43807,23.20205 -3.88205,0.28943 -4.69639,0.0976 -7.59373,-1.78846 z m 11.90444,-4.9081 c 3.68958,-1.75082 4.32239,-4.17188 4.32239,-16.53683 0,-9.60658 -0.16564,-11.10053 -1.47926,-13.34207 -2.00271,-3.41736 -5.89082,-4.76167 -9.98288,-3.45156 -4.64389,1.48678 -5.79273,4.21282 -6.10352,14.48277 -0.35239,11.64489 0.18114,14.63947 3.1344,17.59273 2.74209,2.74209 6.09722,3.15861 10.10887,1.25496 z"
         id="path3114" />
      <path
         style="fill:#ff1200;fill-opacity:1;stroke-width:1.26476"
         d="m 86.562031,285.2799 c -0.752126,-0.90478 -1.042812,-4.80119 -1.210577,-16.22683 -0.121429,-8.26988 -0.455327,-15.03615 -0.741995,-15.03615 -0.286669,0 -2.783612,0.95556 -5.548762,2.12347 -2.861276,1.20851 -5.300008,1.85275 -5.659886,1.49518 -1.733239,-1.72214 6.692828,-10.01898 13.891937,-13.6789 2.464422,-1.25287 3.288773,-1.40429 3.732891,-0.6857 1.808026,2.92545 1.849794,39.8406 0.04753,42.00883 -1.265924,1.52299 -3.245155,1.52303 -4.511139,10e-5 z"
         id="path3153" />
      <path
         style="fill:#ff1200;fill-opacity:1;stroke-width:1.26476"
         d="m 88.078557,351.69157 c -0.386838,-1.01746 -0.703342,-8.64408 -0.703342,-16.94803 0,-9.80317 -0.258538,-15.09809 -0.737201,-15.09809 -0.405461,0 -3.340148,1.30873 -6.521527,2.9083 -3.181378,1.59956 -6.095004,2.71629 -6.474724,2.48161 -2.196221,-1.35734 0.513513,-4.80901 7.795023,-9.92933 3.067808,-2.15727 6.196071,-4.61471 6.951696,-5.46099 2.213832,-2.47941 3.851894,-1.96812 4.89015,1.52639 1.353083,4.55414 1.317498,39.53745 -0.04189,41.17658 -1.550047,1.86903 -4.332643,1.51491 -5.15819,-0.65644 z"
         id="path3969" />
      <path
         style="fill:#ff1200;fill-opacity:1;stroke-width:1.26476"
         d="m 122.62166,352.35003 c -0.71798,-0.86426 -1.12049,-4.87483 -1.46573,-14.60415 -0.26176,-7.37697 -0.70528,-14.14289 -0.9856,-15.03537 -0.62995,-2.00563 -2.0771,-2.06397 -4.47181,-0.18029 -1.98497,1.56137 -5.58103,1.92807 -6.37113,0.64967 -0.60156,-0.97335 6.17562,-7.48157 12.46209,-11.9675 3.56211,-2.54186 4.82086,-3.10391 5.47886,-2.44635 1.32855,1.32766 1.20217,41.96611 -0.13554,43.58075 -1.26499,1.52687 -3.24422,1.52829 -4.51114,0.003 z"
         id="path4008" />
      <path
         style="fill:#ff1200;fill-opacity:1;stroke-width:1.26476"
         d="m 168.77799,428.07589 c -0.7582,-0.9122 -1.04096,-4.96216 -1.20845,-17.30862 -0.12026,-8.86479 -0.35249,-16.1178 -0.51607,-16.1178 -0.16358,0 -2.36389,1.13588 -4.88959,2.52418 -6.99771,3.84642 -8.7084,3.21462 -5.21517,-1.92612 1.92159,-2.82788 12.80301,-11.41594 14.46446,-11.41594 2.5212,0 2.86575,2.78306 2.86575,23.14761 0,15.80868 -0.20358,20.14756 -0.98979,21.09489 -1.26542,1.52473 -3.24465,1.52552 -4.51114,0.002 z"
         id="path4047" />
      <path
         style="fill:#ff1200;fill-opacity:1;stroke-width:1.26476"
         d="m 212.81327,500.24459 c -0.73526,-0.88593 -1.1381,-4.81544 -1.50073,-14.63895 -0.27264,-7.38538 -0.71643,-14.13572 -0.98621,-15.00076 -0.72851,-2.33594 -2.16641,-2.5188 -4.29489,-0.5462 -2.1233,1.96782 -5.25612,2.32684 -5.89,0.675 -0.8813,-2.29664 0.4125,-4.44527 3.51058,-5.83007 1.69431,-0.75733 4.94384,-3.08152 7.22116,-5.16487 4.40205,-4.02708 5.8092,-4.55408 6.74416,-2.52581 0.31998,0.69415 0.68906,10.02458 0.82019,20.73429 0.25373,20.72341 -0.0315,22.84492 -3.13179,23.29326 -0.81809,0.1183 -1.93971,-0.32985 -2.49247,-0.99589 z"
         id="path4086" />
      <path
         style="fill:#ff1200;fill-opacity:1;stroke-width:1.26476"
         d="m 122.24044,501.96752 c -0.33471,-0.51818 -0.7128,-7.83855 -0.84018,-16.26748 -0.12738,-8.42894 -0.39752,-15.32535 -0.60031,-15.32535 -0.20279,0 -2.65068,1.00157 -5.43976,2.2257 -5.91055,2.59416 -7.4622,2.10929 -4.80023,-1.50003 3.31639,-4.49664 15.96944,-14.45894 17.02435,-13.40403 0.78321,0.78321 1.1397,39.36547 0.39035,42.24726 -0.55149,2.12093 -1.01334,2.55947 -2.89099,2.74512 -1.26972,0.12554 -2.49743,-0.18588 -2.84323,-0.72119 z"
         id="path4125" />
      <path
         style="fill:#ff1200;fill-opacity:1;stroke-width:1.26476"
         d="m 88.078557,500.97843 c -0.386838,-1.01746 -0.720007,-5.96665 -0.740376,-10.99819 -0.04002,-9.88619 -0.781352,-18.50075 -1.668431,-19.38783 -0.304725,-0.30473 -2.769436,0.65751 -5.477134,2.13829 -5.69262,3.11318 -6.257683,3.21277 -6.891864,1.21465 -0.684064,-2.1553 1.222972,-4.59122 5.96467,-7.61888 2.278779,-1.45505 5.719883,-4.06027 7.646898,-5.78939 1.927015,-1.72912 3.753363,-3.14385 4.058551,-3.14385 1.380304,0 2.261709,2.45404 2.974576,8.28193 0.83735,6.84556 0.551431,33.84638 -0.38006,35.89111 -0.356359,0.78225 -1.374978,1.26209 -2.679219,1.26209 -1.595201,0 -2.274422,-0.44754 -2.807611,-1.84993 z"
         id="path4164" />
      <path
         style="fill:#ffffff;fill-opacity:1;stroke-width:2.52951"
         d="m 441.00567,377.68669 c -1.72198,-2.18913 -3.13328,-6.00219 -3.13626,-8.47348 -0.007,-5.92123 -3.1985,-10.79685 -16.15892,-24.68662 -10.5883,-11.34754 -10.73613,-11.61091 -8.90549,-15.86624 2.78412,-6.47172 2.39514,-20.60781 -0.75813,-27.55117 -8.94606,-19.69882 -35.07626,-29.65956 -58.85745,-22.43624 -10.38544,3.15448 -20.91506,10.74197 -24.68628,17.78856 -3.30025,6.16657 -7.21049,7.43979 -25.58285,8.33007 -17.03901,0.82566 -17.52751,0.94405 -23.53821,5.70462 l -6.13809,4.86145 -7.35177,-3.44338 C 253.0842,305.9153 250.1493,296.30728 256.9742,282.7192 c 8.32434,-16.57338 16.52508,-28.12757 20.52548,-28.91876 12.4225,-2.45689 14.46574,-2.41532 23.0262,0.46849 11.1569,3.75849 14.82591,3.75922 19.60002,0.004 3.41211,-2.68396 3.80048,-3.95139 3.80048,-12.40276 0,-8.57614 0.38061,-9.76884 4.27961,-13.41106 7.98723,-7.46118 13.53916,-9.05595 35.3421,-10.15185 l 20.23728,-1.0172 5.38414,4.22149 c 7.83768,6.14522 11.20329,11.01114 11.20329,16.19748 0,6.07711 2.25547,8.60485 10.34961,11.59896 l 6.74366,2.49455 8.42983,-5.20319 c 7.419,-4.57926 9.5553,-5.20319 17.81558,-5.20319 h 9.38574 l 9.4225,9.7361 c 19.10441,19.74023 20.06903,21.16576 20.06903,29.65797 0,8.70155 -0.94936,10.23646 -10.43192,16.86627 -11.77856,8.23507 -10.65382,13.9746 4.66238,23.79204 10.26374,6.57889 12.41128,9.49842 14.00664,19.04173 0.67384,4.03075 -0.63942,6.55461 -10.32886,19.85035 -6.10546,8.37785 -12.98427,16.20642 -15.28626,17.39683 -2.30197,1.1904 -7.98539,2.56153 -12.62981,3.04698 -7.98366,0.83444 -8.61522,0.66544 -11.57525,-3.09763 z"
         id="path4203" />
      <path
         style="fill:#ffffff;fill-opacity:1;stroke-width:2.52951"
         d="m 303.3257,491.3319 c -3.00061,-3.11786 -6.14592,-8.21624 -6.98959,-11.32975 -3.48625,-12.86578 -11.55248,-15.32048 -25.14186,-7.6511 -6.93473,3.91371 -9.00907,4.41472 -15.90937,3.8425 -7.01975,-0.58213 -8.69477,-1.39231 -14.52371,-7.0247 -3.62386,-3.50167 -9.76081,-10.13254 -13.63768,-14.73528 -6.39684,-7.59452 -7.04884,-9.04079 -7.04884,-15.63578 0,-6.39468 0.5494,-7.7278 4.57593,-11.1036 10.37088,-8.69483 11.48494,-10.21528 11.01931,-15.03893 -0.40338,-4.17874 -1.50016,-5.19931 -10.54689,-9.814 -11.25233,-5.73977 -15.86123,-11.82511 -14.49164,-19.13395 1.05752,-5.64348 16.42677,-32.46623 19.56541,-34.14598 1.4058,-0.75236 6.17334,-1.79307 10.59455,-2.3127 6.40581,-0.75287 9.77413,-0.29571 16.58332,2.25075 8.23503,3.0797 8.72033,3.10555 13.3883,0.71309 6.38487,-3.2724 6.959,-4.35308 6.98503,-13.14773 0.0177,-5.9852 0.79372,-8.37889 3.9213,-12.09581 5.81622,-6.91218 11.08608,-8.41667 33.17507,-9.47112 l 19.9818,-0.95387 6.81039,7.5748 c 5.23071,5.81781 6.8104,8.6857 6.8104,12.36413 0,6.24592 2.88057,8.92884 10.87355,10.12746 5.59229,0.83862 7.28132,0.44334 11.95997,-2.79897 4.71217,-3.26554 6.93278,-3.7755 16.44025,-3.7755 h 10.9922 l 11.28724,12.38476 c 13.41815,14.72288 14.77527,16.93077 14.84209,24.14641 0.0528,5.69989 -1.43975,7.71248 -12.65731,17.06753 -4.46787,3.72605 -5.8643,8.59822 -3.49633,12.19869 0.58284,0.88619 4.95415,4.08451 9.71402,7.10738 10.24631,6.50716 11.79392,8.32982 13.00006,15.31051 1.10743,6.40948 -0.43497,9.64246 -12.11706,25.39811 -7.08074,9.54978 -9.68146,11.97905 -14.15431,13.22113 -8.39316,2.33072 -15.81855,1.84077 -22.31263,-1.47226 -6.23368,-3.18018 -14.45705,-2.91196 -16.6073,0.5417 -0.59827,0.96092 -0.90173,5.55307 -0.67438,10.20479 0.35063,7.17398 -0.0903,8.99375 -2.90479,11.9897 -7.37115,7.84621 -10.72128,8.8521 -32.93782,9.88971 l -20.91304,0.97673 z m 36.46692,-53.28456 c 13.09504,-5.90118 21.54788,-18.38441 21.6041,-31.90511 0.0754,-18.12853 -13.47765,-32.23742 -35.14785,-36.58942 -16.5054,-3.31476 -35.9228,5.19805 -44.87146,19.67217 -3.686,5.96195 -4.32062,8.40979 -4.27519,16.48987 0.095,16.89947 9.76267,28.92457 28.06382,34.90717 6.60697,2.15979 27.58125,0.60024 34.62658,-2.57468 z"
         id="path7498" />
      <path
         style="fill:#ffffff;fill-opacity:1;stroke-width:2.52951"
         d="m 182.27128,291.95207 c -2.03589,-1.60142 -4.11146,-4.54463 -4.61238,-6.54046 -1.10712,-4.41114 -6.22812,-4.87855 -12.548,-1.14531 -4.018,2.37349 -4.43819,2.35752 -9.48851,-0.36059 -5.38836,-2.90005 -13.43654,-12.51452 -13.43654,-16.05149 0,-1.07618 1.62269,-3.3676 3.60597,-5.09204 4.7313,-4.11382 4.56588,-7.81419 -0.46565,-10.41609 -6.91885,-3.57788 -8.12669,-5.94667 -6.24115,-12.24003 0.91053,-3.03909 3.44112,-7.31239 5.62354,-9.49622 3.67157,-3.67395 4.58266,-3.90646 12.19462,-3.11206 9.1271,0.95252 9.86682,0.44403 11.18461,-7.68851 0.68541,-4.22992 1.68133,-5.39031 5.85243,-6.81891 2.76455,-0.94687 8.14055,-1.75821 11.94666,-1.80298 5.6897,-0.0669 7.54914,0.59722 10.45729,3.73517 1.9454,2.09912 3.53709,4.68305 3.53709,5.74206 0,3.0793 6.79411,4.02836 10.66786,1.49019 4.47733,-2.93366 11.94128,-1.01029 17.98371,4.63419 6.07271,5.67276 7.12918,10.88235 3.26639,16.10705 -4.06756,5.50167 -3.93236,6.29987 1.97809,11.67826 6.05915,5.5137 6.29267,8.67049 1.18648,16.03873 -5.08012,7.33061 -7.73769,8.56771 -16.03955,7.46643 l -6.92316,-0.91839 -1.37216,5.55625 c -1.57085,6.3608 -6.92078,9.68772 -18.06244,11.23234 -5.34004,0.74031 -7.29733,0.36054 -10.2952,-1.99759 z m 19.38269,-28.83517 c 5.18822,-5.7862 6.11269,-10.10495 3.50107,-16.35545 -2.94661,-7.05221 -7.86132,-9.91379 -17.17042,-9.99744 -9.75258,-0.0876 -16.13803,3.10932 -18.23707,9.13061 -2.15547,6.18319 -2.015,9.26363 0.65816,14.43294 3.13086,6.05442 9.6358,8.69224 19.37885,7.85832 6.55887,-0.56137 8.61501,-1.43947 11.86941,-5.06898 z"
         id="path7537" />
    </g>
  </g>
</svg>
