<?xml version="1.0" encoding="UTF-8" standalone="no"?>
<!-- Created with Inkscape (http://www.inkscape.org/) -->

<svg
   version="1.1"
   id="svg228"
   width="512"
   height="512"
   viewBox="0 0 512 512"
   sodipodi:docname="sherlock.svg"
   inkscape:version="1.2.2 (b0a8486541, 2022-12-01)"
   xmlns:inkscape="http://www.inkscape.org/namespaces/inkscape"
   xmlns:sodipodi="http://sodipodi.sourceforge.net/DTD/sodipodi-0.dtd"
   xmlns="http://www.w3.org/2000/svg"
   xmlns:svg="http://www.w3.org/2000/svg">
  <defs
     id="defs232" />
  <sodipodi:namedview
     id="namedview230"
     pagecolor="#505050"
     bordercolor="#ffffff"
     borderopacity="1"
     inkscape:showpageshadow="0"
     inkscape:pageopacity="0"
     inkscape:pagecheckerboard="1"
     inkscape:deskcolor="#505050"
     showgrid="false"
     inkscape:zoom="0.90509668"
     inkscape:cx="233.12427"
     inkscape:cy="265.71747"
     inkscape:window-width="1366"
     inkscape:window-height="691"
     inkscape:window-x="0"
     inkscape:window-y="24"
     inkscape:window-maximized="1"
     inkscape:current-layer="g234" />
  <g
     inkscape:groupmode="layer"
     inkscape:label="Image"
     id="g234">
    <g
       id="g401"
       transform="matrix(0.94400515,0,0,0.92100807,15.426819,20.223821)">
      <path
         id="path346-3"
         style="fill:#ffffff;stroke-width:0.857567"
         d="m 215.82227,11.984375 c -9.35321,0.271267 -18.30255,3.730017 -26.39063,8.240234 -3.98934,2.077916 -8.63833,1.917233 -12.85582,3.279781 -11.64491,3.254259 -22.30111,10.645029 -28.63911,21.040268 -1.25755,1.980549 -2.13428,4.188759 -3.37886,6.166063 -2.23861,1.942305 -4.67201,3.702547 -6.51548,6.053212 -4.38451,4.88438 -7.70922,10.766097 -9.37049,17.130598 -3.24907,3.822772 -6.98093,7.180412 -10.11259,11.112845 -7.06246,8.536881 -12.34569,18.338094 -17.44368,28.123424 -0.73511,1.38155 -1.470644,2.76288 -2.205454,4.14459 0.677104,4.47676 1.394894,9.06543 1.972654,13.42773 0.89028,6.49512 1.22444,13.04481 1.65298,19.58136 1.10716,18.43235 1.69454,36.92632 3.53542,55.32411 0.24938,2.55547 0.51762,5.10894 0.81746,7.65899 -6.7233,5.15378 -13.092495,10.76601 -19.154318,16.68059 -6.553225,6.67023 -12.437684,13.93166 -18.623321,20.92393 -6.815812,7.92784 -13.677492,15.83183 -19.987984,24.17282 -2.586563,3.62326 -4.368888,8.05233 -3.916811,12.57039 0.503928,6.80478 5.842753,12.97991 12.573507,14.27918 2.794448,0.62826 5.690208,0.31224 8.464179,-0.24756 3.080733,-0.24556 6.163611,-1.02737 8.78969,-2.70288 4.685647,-2.77786 8.461839,-6.76826 12.413493,-10.45613 11.370764,-10.95501 22.096695,-22.6163 34.260265,-32.72032 1.66344,-1.35519 3.368,-2.66112 5.12661,-3.89065 0.77435,1.54724 1.57528,3.08079 2.4004,4.60157 -0.22109,3.85747 -0.39708,7.71869 -0.73438,11.56836 -4.05898,3.37974 -6.3443,8.25784 -9.14891,12.61957 -2.30804,3.73837 -5.31613,6.96581 -7.94727,10.46901 -18.222379,23.16366 -36.173887,46.54012 -54.217673,69.84274 -2.535718,3.31422 -5.121278,6.59821 -7.574785,9.97042 -17.746422,31.81685 -35.766471,63.48276 -53.1020455,95.52567 -1.5016849,2.80082 -2.5099177,5.84713 -3.0424602,8.97696 -0.5810127,2.69471 -1.3133065,5.35338 -2.0254501,8.01555 2.6616419,1.24118 5.1520747,2.79911 7.57590711,4.44922 2.38799559,1.63902 4.96493059,3.11639 7.85072639,3.63883 2.8591317,0.63413 5.8190193,0.31392 8.6338943,-0.38138 5.220917,-1.18342 10.243356,-3.14289 15.055973,-5.46318 6.439093,-3.46948 11.533895,-8.83257 16.696213,-13.90481 3.471777,-3.48381 6.793096,-7.16827 10.734161,-10.13751 2.121558,-1.4295 4.716434,-1.72642 7.201209,-1.919 5.305262,-0.5065 10.649926,-0.58138 15.968713,-0.25288 0.564818,0.0463 1.321169,0.0855 1.914261,0.13952 13.182027,1.13644 26.046906,4.47869 38.726756,8.11975 11.48573,3.32733 22.84158,7.12721 34.11017,11.0138 10.65617,3.64866 21.23002,7.53144 31.88461,11.18316 8.36053,2.81947 16.79689,5.47921 25.4279,7.34485 12.37923,2.5814 25.09653,3.05457 37.70122,2.54214 12.74931,-0.4917 25.45022,-1.80181 38.12282,-3.23611 12.58472,-1.49393 25.14346,-3.12767 37.75658,-4.39541 3.64022,-0.41178 7.36123,-1.15733 10.46362,-3.21402 4.14398,-2.56449 7.1058,-7.01392 7.62839,-11.88635 0.52733,-4.29339 -0.75537,-8.68841 -3.22015,-12.20899 -10.24198,-17.26293 -20.7635,-34.35358 -31.13008,-51.54203 -1.97987,-3.08966 -4.341,-5.91594 -6.83727,-8.59859 4.29897,-9.19624 8.69139,-18.35262 12.66797,-27.69531 13.09042,3.30231 26.75791,4.9331 40.21959,3.29394 6.15281,-0.58699 12.46984,-1.90134 17.62611,-5.49316 5.01885,-3.45243 8.89646,-8.26872 12.3723,-13.20665 0.41175,-0.59826 0.79527,-1.21594 1.18825,-1.82655 -0.31727,7.84228 -0.5004,15.69758 -0.2832,23.54492 0.24009,7.80914 1.20577,15.59846 3.01218,23.20295 2.88586,12.49487 7.95626,24.74703 16.37454,34.55682 7.45425,8.69683 17.31386,15.26481 28.15912,18.92612 7.02471,2.45546 14.42614,4.01573 21.88504,4.05097 6.77207,-0.25234 13.10338,-3.31561 18.52777,-7.20147 8.06081,-5.91365 14.18337,-14.06096 19.13058,-22.66004 4.70156,-8.23733 8.1242,-17.12776 11.06311,-26.1234 4.54494,-3.77074 7.11815,-9.33984 8.75314,-14.89921 1.60494,-5.18407 3.23849,-10.57088 3.75677,-16.057 0.5846,-6.85832 -1.8802,-14.02379 -6.94454,-18.76161 -4.85896,-4.76935 -11.24201,-7.44355 -17.35267,-10.20148 -10.85525,-4.74114 -22.17983,-8.4738 -33.80517,-10.78614 -4.27428,-0.80633 -8.77634,-1.03822 -12.96754,0.32014 -4.53967,1.38139 -8.62268,4.26898 -11.36577,8.14897 -2.05141,-14.38422 -4.35823,-28.85587 -9.25483,-42.59078 -2.20194,-6.01185 -5.12603,-12.01879 -10.03151,-16.29556 -4.11827,-3.54306 -9.18647,-5.68394 -14.09925,-7.87136 -3.01305,-1.29236 -6.06513,-2.4898 -9.11441,-3.69347 -0.24266,-0.58032 -0.46504,-1.16908 -0.68164,-1.75976 7.04268,-0.73501 14.30677,-1.73825 20.55728,-5.29475 5.35234,-3.01711 9.90652,-7.98614 11.30321,-14.08826 1.25019,-5.36322 0.0148,-11.00261 -2.3352,-15.88726 -3.37621,-7.39249 -7.71377,-14.28576 -11.77846,-21.30822 -5.35128,-9.05953 -10.64624,-18.17441 -16.68433,-26.80042 -1.41701,-1.91549 -2.9469,-3.74804 -4.59961,-5.46484 1.29053,-2.35212 2.57951,-4.7051 3.87109,-7.05664 -0.53216,-2.29992 -1.06238,-4.60029 -1.59375,-6.90039 14.94655,2.58733 29.85746,5.3769 44.76117,8.19947 10.33905,1.98712 20.49836,4.03798 30.75232,6.36515 5.21269,1.14692 10.63053,2.59687 15.97479,1.42366 3.9322,-0.85321 7.43434,-3.11833 10.15676,-6.039 3.64289,-3.59689 6.24948,-8.53856 6.08934,-13.75592 -0.0603,-6.15241 -3.73306,-12.0625 -9.14754,-14.95187 -4.22772,-2.4424 -9.11342,-3.42794 -13.69013,-4.7778 -29.67629,-8.10889 -59.88227,-14.02074 -90.02757,-20.06916 C 382.58778,115.93991 378.07641,104.9043 372.62818,94.345326 364.80535,78.773122 355.87833,63.797884 347.18847,48.703351 342.26835,40.256387 337.33783,31.818644 332.4082,23.376953 319.1027,20.183891 305.91942,16.468472 292.51546,13.698519 287.2162,12.783121 281.799,13.148414 276.5046,13.897076 c -2.10058,0.226838 -4.40187,0.402676 -6.38546,0.540424 -4.08455,0.190191 -8.19744,0.444994 -12.27344,-0.0039 -2.40088,-0.237998 -4.59809,-1.334199 -6.95233,-1.802454 -5.1224,-1.242197 -10.45666,-0.414155 -15.52234,0.698745 -1.62308,0.333731 -3.2453,0.757114 -4.87298,1.013865 -3.5776,-1.306903 -7.36454,-2.027109 -11.16042,-2.29409 -1.17046,-0.07177 -2.34302,-0.09199 -3.51536,-0.06528 z" />
      <path
         style="fill:#000000;stroke-width:0.857567"
         d="m 228.20625,483.41198 c -12.75458,-1.26292 -22.73113,-3.99157 -48.81603,-13.3515 -59.59119,-21.38284 -85.9216,-27.78771 -109.623322,-26.66583 -16.460096,0.77911 -19.75117,2.40935 -33.150895,16.42132 -4.812917,5.03282 -10.564767,10.1517 -12.781872,11.37527 -4.049416,2.23478 -13.434621,5.30837 -14.0760433,4.6098 -0.188863,-0.20569 11.7940653,-22.03723 26.6287333,-48.51455 l 26.972118,-48.1406 32.868391,-42.51013 c 18.07762,-23.38057 33.13211,-42.63212 33.45443,-42.78119 0.32232,-0.14908 2.50528,-3.45483 4.85101,-7.34608 4.17237,-6.92141 4.30611,-7.04564 6.16072,-5.7222 1.86931,1.33392 1.90829,1.2892 2.7932,-3.20457 0.49359,-2.50655 1.136,-9.10636 1.42758,-14.66623 l 0.53013,-10.10889 -3.34895,-6.18899 c -1.84193,-3.40394 -4.33911,-8.91115 -5.5493,-12.23821 l -2.20034,-6.04924 -6.27811,3.74477 c -14.43238,8.60861 -20.56593,13.78649 -43.109054,36.39223 -13.282701,13.31959 -17.601414,17.15917 -19.311134,17.16866 -1.211227,0.007 -3.118912,0.27917 -4.239302,0.60544 -1.411621,0.41108 3.115764,-5.43182 14.745372,-19.02992 9.230356,-10.79271 18.837058,-21.78487 21.348218,-24.427 5.50008,-5.78695 17.86068,-16.354 22.8683,-19.55008 3.26907,-2.08646 3.58756,-2.58622 3.24317,-5.08896 -1.87222,-13.60495 -3.20032,-30.26352 -4.25249,-53.33997 -0.68453,-15.01279 -1.82887,-31.20805 -2.54302,-35.98946 l -1.29844,-8.69349 3.47273,-6.52067 c 5.79823,-10.88723 10.39203,-17.329958 17.57604,-24.650115 5.52313,-5.627794 6.96978,-7.645956 7.4408,-10.380362 0.84491,-4.90488 5.10055,-11.311939 9.77175,-14.711807 2.67278,-1.945338 4.55551,-4.1747 5.53237,-6.550946 4.36028,-10.606524 14.37271,-17.802224 27.21434,-19.55831 3.86652,-0.528745 7.60084,-1.823821 11.5729,-4.013521 10.64075,-5.865982 19.29408,-7.213827 27.22987,-4.241327 3.89143,1.45761 4.4782,1.456351 11.09363,-0.0238 8.68195,-1.942522 9.69036,-1.949278 14.55738,-0.09752 4.4162,1.680243 16.49629,1.762246 29.40626,0.199618 7.27286,-0.88031 7.68,-0.823768 24.50294,3.40307 l 17.10718,4.298254 11.85323,20.297016 c 24.50977,41.969362 31.32028,55.79788 37.63662,76.41947 l 2.17404,7.09773 19.51389,3.88685 c 33.14029,6.60103 55.77708,11.63857 73.53041,16.36333 18.26652,4.86136 18.26523,4.86053 14.00903,9.05541 -1.4863,1.46493 -2.22021,1.38872 -14.66214,-1.52231 -19.29811,-4.51519 -94.50735,-18.17567 -95.30215,-17.31004 -0.16006,0.17431 0.93624,5.61715 2.43623,12.0952 l 2.72723,11.77829 -3.22565,5.86583 c -3.11805,5.67022 -3.17882,5.93316 -1.82225,7.88524 0.77181,1.11067 3.36124,3.76017 5.75426,5.88777 3.47551,3.09005 7.16982,8.62651 18.36102,27.5165 14.45986,24.4073 15.62679,27.20305 12.57203,30.12006 -3.09753,2.95779 -6.7933,4.04899 -17.46223,5.15574 -15.77268,1.6362 -15.07206,1.15265 -14.64064,10.10431 0.28388,5.89006 0.88762,8.62086 3.01303,13.62787 l 2.65803,6.26177 11.20852,4.42149 c 6.91201,2.72662 12.23794,5.40591 13.89422,6.98967 5.2707,5.03996 10.26327,23.07308 13.81326,49.89292 2.83769,21.439 4.75036,31.35717 7.47791,38.77751 2.31999,6.31142 7.35416,15.40756 9.67488,17.4814 1.60223,1.43176 1.295,2.19972 3.80216,-9.50387 0.97611,-4.55641 2.25114,-9.51835 2.83343,-11.02655 0.92269,-2.38988 0.85156,-3.19809 -0.55345,-6.29086 l -1.61215,-3.54869 2.62679,-9.02425 c 3.07688,-10.57078 5.05118,-13.28603 9.65781,-13.28249 4.49039,0.003 20.86175,4.69026 29.89148,8.55733 19.47345,8.33968 20.30245,9.43234 16.79594,22.13738 -2.60805,9.44972 -3.84481,11.95619 -6.56545,13.30624 -1.46504,0.72695 -2.58452,2.9643 -4.5492,9.09177 -7.36345,22.96524 -19.6849,39.32348 -31.7554,42.15931 -1.42368,0.33448 -5.51365,0.003 -9.08882,-0.73477 -26.4535,-5.46516 -40.70848,-23.48309 -44.6877,-56.48428 -1.24866,-10.35532 -0.4673,-37.56982 1.37462,-47.87983 1.84055,-10.30199 1.206,-17.95684 -2.14471,-25.87392 -2.90074,-6.85381 -6.10371,-9.99756 -16.32958,-16.02781 l -6.08116,-3.58608 -3.14658,5.04916 c -1.73061,2.77702 -3.57147,7.11696 -4.09078,9.64428 -0.88502,4.30674 -0.75714,5.20677 2.03741,14.34037 1.63989,5.35988 2.97802,11.15402 2.97358,12.87588 -0.0123,4.74412 -3.53886,12.01897 -8.66257,17.86921 -5.17759,5.91164 -7.13142,6.68709 -19.26891,7.6477 -13.16407,1.04185 -29.9867,-2.05939 -48.42173,-8.92651 -3.35594,-1.25008 -6.38986,-2.27288 -6.74215,-2.27288 -1.09167,0 -8.93265,11.07633 -8.93265,12.61844 0,1.60296 4.44387,2.59571 11.61922,2.59571 2.19673,0 4.01472,0.30204 4.03993,0.67122 0.0253,0.36916 -3.95001,9.18729 -8.8338,19.59585 l -8.87971,18.92464 5.49604,5.49135 c 3.02276,3.02024 6.33402,6.98871 7.35834,8.8188 1.02425,1.83012 8.48206,14.17869 16.57283,27.44129 8.09084,13.2626 14.87836,24.59002 15.0834,25.17204 0.26039,0.73894 -1.81128,1.24106 -6.86646,1.66422 -3.98169,0.3333 -13.156,1.37178 -20.38739,2.30775 -36.39204,4.71023 -57.91547,6.01862 -73.54667,4.47086 z M 171.90729,54.073266 c 6.48283,-3.514433 9.45919,-5.604475 9.45919,-6.642388 0,-0.832939 1.52776,-2.938634 3.39504,-4.679324 l 3.39503,-3.164891 -3.18959,0.502886 c -4.29954,0.677883 -13.32389,5.236204 -16.23799,8.20203 -4.10486,4.177702 -8.2285,10.909642 -6.68269,10.909642 0.22101,0 4.65846,-2.307579 9.86101,-5.127955 z m 44.57985,-19.090618 c 8.91378,-2.578395 9.23415,-2.746346 6.78861,-3.558861 -5.25565,-1.746154 -14.60851,-0.657989 -20.96442,2.43912 l -3.27723,1.596931 4.93051,0.533367 c 2.71178,0.293352 5.20372,0.601068 5.53765,0.683815 0.33393,0.08275 3.47713,-0.679721 6.98488,-1.694372 z"
         id="path346" />
    </g>
  </g>
</svg>
