<?xml version="1.0" encoding="UTF-8" standalone="no"?>
<svg
   inkscape:version="1.2.2 (b0a8486541, 2022-12-01)"
   sodipodi:docname="shuffledns.svg"
   viewBox="0 0 512 512"
   height="512"
   width="512"
   id="svg885"
   version="1.1"
   xmlns:inkscape="http://www.inkscape.org/namespaces/inkscape"
   xmlns:sodipodi="http://sodipodi.sourceforge.net/DTD/sodipodi-0.dtd"
   xmlns="http://www.w3.org/2000/svg"
   xmlns:svg="http://www.w3.org/2000/svg"
   xmlns:rdf="http://www.w3.org/1999/02/22-rdf-syntax-ns#"
   xmlns:cc="http://creativecommons.org/ns#"
   xmlns:dc="http://purl.org/dc/elements/1.1/">
  <metadata
     id="metadata891">
    <rdf:RDF>
      <cc:Work
         rdf:about="">
        <dc:format>image/svg+xml</dc:format>
        <dc:type
           rdf:resource="http://purl.org/dc/dcmitype/StillImage" />
      </cc:Work>
    </rdf:RDF>
  </metadata>
  <defs
     id="defs889" />
  <sodipodi:namedview
     inkscape:current-layer="g893"
     inkscape:window-maximized="1"
     inkscape:window-y="24"
     inkscape:window-x="0"
     inkscape:cy="280.03836"
     inkscape:cx="326.06138"
     inkscape:zoom="0.64098361"
     showgrid="false"
     id="namedview887"
     inkscape:window-height="691"
     inkscape:window-width="1366"
     inkscape:pageshadow="2"
     inkscape:pageopacity="0"
     guidetolerance="10"
     gridtolerance="10"
     objecttolerance="10"
     borderopacity="0"
     bordercolor="#000000"
     pagecolor="#575757"
     inkscape:pagecheckerboard="0"
     inkscape:showpageshadow="0"
     inkscape:deskcolor="#000000" />
  <g
     id="g893"
     inkscape:label="Image"
     inkscape:groupmode="layer">
    <g
       id="g1021"
       transform="matrix(0.87537904,0,0,0.82708128,20.357047,45.018205)">
      <path
         id="path897"
         style="fill:#ffffff;stroke-width:4.60461"
         d="m 352.64062,9.4589844 c -6.89541,0.089237 -13.18508,5.0938906 -15.4099,11.5243106 -1.60412,5.282611 -2.15439,10.822225 -2.41345,16.317837 -0.2908,5.45913 -0.27704,10.926368 -0.40748,16.389952 -0.15121,3.164724 -0.30716,6.371831 -1.11721,9.447789 -0.38706,1.497829 -1.35961,2.777331 -2.66816,3.593249 -2.68656,1.824889 -5.77447,2.935148 -8.78092,4.110052 -9.63637,3.561571 -19.73988,5.798562 -29.14502,9.995321 -20.37263,8.721228 -38.68246,22.021795 -53.67891,38.302575 -4.05008,4.37956 -7.86025,8.97936 -11.42973,13.75837 -0.91426,-5.62387 -3.6309,-10.79617 -7.09047,-15.26611 -5.56004,-7.30316 -12.77288,-13.09739 -19.92242,-18.760922 -8.12107,-6.29337 -16.68707,-12.084776 -25.90508,-16.655205 -9.57848,-4.576053 -20.13461,-6.623855 -30.63792,-7.633572 -11.93185,-1.206892 -23.92807,-1.551874 -35.905,-2.051554 C 92.872986,71.984671 77.59376,71.525611 62.332041,72.129609 51.586368,72.606467 40.733628,73.776288 30.51733,77.309513 21.44715,80.533875 13.189313,86.123371 7.0557417,93.567714 -2.3041504,104.61591 -8.5983455,118.35173 -10.350219,132.75751 c -0.607854,6.34018 -0.154359,12.71481 -0.296736,19.07061 -0.0016,4.48373 -0.0053,8.96745 -0.0054,13.45118 33.452271,0.0926 66.9056,0.0251 100.356852,0.32654 7.51608,0.14031 14.948163,0.33636 22.461413,0.80455 6.1509,0.36637 12.41509,0.94227 18.56344,1.87272 1.67795,0.26169 3.36157,0.56473 4.94204,0.88859 7.55692,1.54861 15.15949,4.09857 21.16935,9.09964 6.65696,5.47603 11.43922,12.75065 16.55021,19.59319 6.56645,8.94435 13.10916,17.9062 19.68131,26.84641 -1.388,9.33402 -2.27043,18.73117 -3.41797,28.0957 -0.6401,4.88163 -1.38003,9.75775 -2.25209,14.55081 -2.15765,11.86845 -5.24137,23.83042 -10.12634,34.9748 -3.86079,8.80154 -9.19193,17.07941 -16.37129,23.54061 -3.59616,3.24985 -7.33965,6.37589 -11.50419,8.87909 -0.39298,0.22463 -1.09838,0.6459 -1.62011,0.92758 -0.80837,0.44747 -1.73109,0.91392 -2.44451,1.25538 -0.64479,0.30991 -1.18109,0.54679 -1.89125,0.8541 -2.26594,0.98038 -4.65056,1.76337 -6.95544,2.38431 -8.26379,2.24619 -16.83228,3.04449 -25.3469,3.66914 -6.13744,0.39298 -12.296806,0.61771 -18.396903,0.76435 -23.504864,0.57009 -47.039085,-0.19102 -70.524888,1.11975 -6.788005,0.43403 -13.7084668,1.13637 -20.0433974,3.77478 -5.7728894,2.55311 -10.6031997,7.61043 -12.1040188,13.83297 -1.4585548,5.71287 -0.4391358,11.66997 0.7739686,17.32712 2.5745226,11.27308 7.6938948,21.83949 14.0634434,31.44036 4.8338931,7.10724 10.7570912,13.70501 18.2569042,18.05387 7.553122,4.27332 16.238136,5.93804 24.789741,6.72129 10.085402,0.93898 20.228161,0.85347 30.346812,0.84488 14.085726,-0.10635 28.169638,-0.53781 42.234458,-1.3065 15.39135,-0.96422 30.84285,-2.70809 45.69934,-7.00143 12.63531,-3.73404 24.7144,-9.66405 34.91359,-18.06229 10.87226,-8.7655 19.9243,-19.52829 28.26088,-30.66997 7.5911,7.47341 14.93571,15.20596 22.81197,22.38317 11.40612,9.73441 24.42446,17.37149 37.77334,24.10698 9.17751,4.50938 18.69514,8.52088 28.71272,10.72572 3.0468,0.61965 6.16682,0.77081 9.24689,1.08491 1.99417,0.88993 2.86304,3.08126 3.71526,4.94227 2.70746,6.73997 2.75515,14.12927 2.88123,21.28246 0.12571,7.17112 0.18415,14.401 1.54885,21.46653 0.85289,4.02898 2.84937,7.93702 6.16911,10.47476 4.26824,3.43809 10.37579,4.63866 15.52195,2.57907 4.35148,-1.61381 7.75607,-4.88352 11.45625,-7.5618 20.54301,-15.74002 40.66114,-32.0203 60.85092,-48.20615 39.43379,-31.72014 78.77411,-63.55627 118.16893,-95.32479 -51.91589,-1.42904 -103.89486,-2.85829 -155.77148,-4.28125 -14.71557,-0.49311 -29.41926,-0.9152 -44.08229,-1.95148 -4.35555,-0.29593 -8.71625,-0.6564 -13.09154,-1.1286 -0.87129,-0.11047 -2.03001,-0.24679 -3.01172,-0.36719 -1.6782,-0.22693 -3.35365,-0.47252 -5.02734,-0.73047 -0.69429,-0.12227 -1.69283,-0.28715 -2.50391,-0.42578 -0.42437,-0.0788 -1.12121,-0.20554 -1.59317,-0.30618 -3.64228,-0.72005 -7.47458,-1.7468 -10.96933,-3.28366 -1.55427,-0.69553 -3.0443,-1.53309 -4.45117,-2.49219 -0.3031,-0.2227 -0.76821,-0.53612 -1.20368,-0.87813 -3.21684,-2.5213 -5.85343,-5.68795 -8.42073,-8.84464 -3.18122,-4.04381 -6.21002,-8.28908 -9.29656,-12.3321 -6.62945,-8.9091 -13.26224,-17.81571 -19.88958,-26.72638 1.51294,-10.03058 2.44939,-20.13332 3.44605,-30.22459 1.10511,-10.06935 2.50543,-20.2765 5.07524,-30.14333 2.60631,-10.00881 6.71127,-19.73441 12.94298,-28.04361 2.2842,-3.12537 4.79603,-6.17062 7.40281,-9.11519 1.44248,-1.63565 2.82246,-3.12345 4.30089,-4.71156 3.76528,-4.17795 8.35853,-8.09533 13.82405,-9.9543 7.0782,-2.53434 14.60833,-3.36577 22.04105,-4.16056 5.51639,-0.54787 11.06907,-0.9298 16.55017,-1.22796 23.03556,-1.20038 46.18411,-1.67386 69.28788,-2.33724 41.74268,-1.14731 83.48571,-2.28165 125.22849,-3.42541 C 503.87585,124.98291 458.75794,88.341601 413.4604,51.929265 397.30208,39.038978 381.16193,26.11184 364.53559,13.828674 361.07708,11.340162 357.01732,9.2591311 352.64062,9.4589844 Z" />
      <path
         style="fill:#000080;stroke:none;stroke-width:3.3979"
         d="M 181.21516,180.15061 C 169.77248,165.21118 157.93543,157.07575 142.49508,153.53885 128.7691,150.39467 87.244173,148.20139 40.077312,148.12931 l -34.9289556,-0.0534 0.8412447,-8.97059 C 7.9801199,117.8795 20.125334,99.634268 36.45973,93.331366 c 7.59954,-2.93241 12.943302,-3.544736 36.461334,-4.177998 31.974406,-0.860963 73.636546,1.709321 85.734166,5.289243 9.22799,2.73074 29.29427,15.235459 40.57197,25.283249 9.7276,8.66674 12.9176,15.5379 10.82372,23.31397 -2.06757,7.67835 -17.09134,46.0081 -18.65857,47.60311 -0.66164,0.67337 -5.24137,-4.04818 -10.17719,-10.49233 z"
         id="path1024" />
      <path
         style="fill:#000080;stroke:none;stroke-width:3.3979"
         d="m 351.41417,465.09047 c -1.67975,-31.23977 -6.69678,-39.63952 -25.8565,-43.29025 -20.83323,-3.96959 -50.87089,-20.58877 -69.42373,-38.41062 l -10.28409,-9.87889 12.64375,-28.48112 12.64376,-28.48111 7.66239,10.12179 c 16.0754,21.23511 25.02943,26.8686 48.17173,30.30758 14.64352,2.17604 62.62733,4.37488 126.24426,5.78509 l 49.02786,1.08681 -3.96671,3.27038 c -15.48558,12.76711 -137.187,110.14609 -141.04572,112.85723 l -4.83392,3.39634 z"
         id="path985" />
      <path
         style="fill:#0000ff;stroke:none;stroke-width:3.3979"
         d="M 43.024172,419.05814 C 31.737185,416.41326 28.685036,414.59181 22.25683,406.66468 15.585917,398.43826 11.297809,390.03472 8.0233049,378.77083 5.1870196,369.01435 5.8023608,365.72946 10.759969,364.16167 c 1.871271,-0.59178 26.920853,-1.65207 55.665737,-2.35621 28.744885,-0.70413 56.910724,-2.04309 62.590744,-2.97549 20.49379,-3.36408 32.67135,-9.79727 47.01906,-24.83935 16.42674,-17.22172 24.98857,-40.73463 30.77215,-84.50804 4.08648,-30.92889 7.18078,-48.7244 10.32525,-59.38155 6.37864,-21.61824 23.62473,-49.49689 40.60189,-65.63377 17.69255,-16.81687 31.09786,-24.536222 59.71074,-34.384072 20.05207,-6.901428 27.48858,-11.596153 30.75619,-19.416648 1.20265,-2.878353 2.64014,-13.667521 3.19441,-23.975929 0.64506,-11.996673 1.6234,-18.722484 2.71817,-18.686781 4.01653,0.130989 149.47353,117.62174 146.1401,118.04254 -1.35323,0.17083 -32.29738,1.07967 -68.76477,2.01965 -119.89378,3.09036 -126.14091,4.3308 -147.17189,29.22256 -18.22684,21.57284 -23.99033,37.5753 -29.06835,80.70905 -6.29169,53.44272 -13.08109,74.04406 -34.96547,106.09722 -11.26629,16.50127 -28.38208,34.28106 -38.87616,40.38436 -19.23743,11.18838 -40.81197,14.89723 -92.360581,15.87756 -27.282688,0.51885 -39.770734,0.16648 -46.023017,-1.29863 z"
         id="path1063" />
    </g>
  </g>
</svg>
