<?xml version="1.0" encoding="UTF-8" standalone="no"?>
<!-- Created with Inkscape (http://www.inkscape.org/) -->

<svg
   version="1.1"
   id="svg870"
   width="225"
   height="225"
   viewBox="0 0 225 225"
   xmlns="http://www.w3.org/2000/svg"
   xmlns:svg="http://www.w3.org/2000/svg">
  <defs
     id="defs874" />
  <g
     id="g876">
    <g
       id="g1265"
       transform="matrix(0.95914088,0,0,0.94861103,4.5972053,5.7825194)">
      <path
         id="path978-3"
         style="fill:#ffffff"
         d="M 110.13867,-1.5253906 C 78.787611,-0.82689752 47.845693,13.234889 27.105469,36.830078 13.826457,51.943498 4.4242511,70.527625 0.54922736,90.29515 c -2.34020726,12.53171 -2.43705196,25.41603 -0.99962631,38.05949 1.41853409,11.51871 4.88695875,22.74834 9.95901005,33.17629 7.2492099,15.1867 17.8112289,28.82461 30.9448019,39.37424 17.470687,14.18077 39.135189,23.26683 61.576567,25.29879 10.36718,0.80944 20.81501,0.0546 31.054,-1.67076 25.07674,-4.51866 48.57287,-17.6989 65.2136,-37.03519 16.98201,-19.51125 27.22797,-44.89351 28.0364,-70.78707 0.98941,-29.522394 -9.86963,-59.274418 -29.72148,-81.159456 -8.4103,-9.346529 -18.4731,-17.24446 -29.71768,-22.901493 -6.53591,-3.3815819 -13.25287,-6.4524312 -20.21065,-8.8630003 -11.74328,-3.92706612 -24.19641,-5.4312063 -36.5455,-5.3123813 z" />
      <path
         style="fill:#000000"
         d="M 102.88801,224.38254 C 64.8323,220.89577 30.649976,198.12613 13.299981,164.70587 4.2550314,147.28313 0.56947843,132.17698 0.56947843,112.52672 c 0,-19.650251 3.68555297,-34.756401 12.73050257,-52.179151 24.188412,-46.59269 78.78173,-70.0610295 129.588029,-55.7067405 10.73935,3.034184 28.52167,11.8092915 37.07164,18.2938835 38.57723,29.258266 54.31643,81.412678 38.20306,126.592008 -15.63024,43.8247 -54.85397,72.81464 -101.2747,74.85132 -5.225,0.22924 -11.525,0.23127 -14,0.005 z m 9.68555,-43.53013 c 1.84314,-1.73154 2.31445,-3.23205 2.31445,-7.3685 v -5.19418 l 7.47105,-0.47946 c 5.81727,-0.37333 8.3283,-1.04676 11.34371,-3.04227 6.742,-4.46164 7.63844,-7.6484 8.01466,-28.49128 l 0.32942,-18.25 h 6.26871 6.2687 l 1.77073,3.92678 c 6.14967,13.63753 23.293,16.08317 33.24952,4.74333 10.77478,-12.27179 2.7972,-31.281991 -13.62592,-32.469941 -4.41572,-0.3194 -6.67838,0.059 -9.76381,1.63313 -4.33713,2.21264 -9.74963,7.772941 -10.80592,11.100991 -0.57306,1.80558 -1.46568,2.06571 -7.08824,2.06571 h -6.43261 l -0.0239,-16.250001 c -0.0256,-17.41052 -0.75691,-22.639999 -3.72155,-26.610813 -3.91504,-5.243774 -6.9063,-6.608538 -15.3221,-6.990719 l -7.93245,-0.360234 v -7.894115 c 0,-8.95869 -1.36705,-11.314289 -7.19422,-12.396509 -1.81818,-0.337671 -14.206622,-0.475271 -27.529878,-0.305777 -23.676237,0.301201 -24.275573,0.359686 -26.5,2.585949 -2.259672,2.261537 -2.275899,2.477837 -2.275899,30.336578 v 28.05881 l 2.805764,2.413411 2.805763,2.41342 h 26.489691 26.489689 l 2.45454,-2.45455 c 2.4021,-2.402091 2.45455,-2.797411 2.45455,-18.499991 V 67.026723 h 5.54966 c 5.9037,0 10.80824,1.884342 11.82916,4.544806 0.34165,0.89032 0.62118,19.82742 0.62118,42.082431 v 40.46367 l -2.45455,2.45454 c -2.10606,2.10607 -3.38383,2.45455 -9,2.45455 h -6.54545 v -18.5 c 0,-17.16667 -0.14414,-18.64414 -2,-20.5 -1.90423,-1.90423 -3.33333,-2 -29.845009,-2 -27.029458,0 -27.900808,0.0616 -29.75,2.10309 -1.753533,1.93589 -1.928736,4.18093 -2.203691,28.23789 -0.164286,14.37413 -0.04034,27.16419 0.275437,28.42234 0.315776,1.25815 1.462692,3.17611 2.548702,4.26212 1.869242,1.86924 3.424631,1.97456 29.160113,1.97456 26.535728,0 27.240868,-0.052 29.499998,-2.17431 z m -51.248345,-3.85966 c -3.88673,-1.4378 -4.73996,-3.55191 -3.921889,-9.71755 0.977798,-7.36946 0.983047,-26.10031 0.0094,-33.38413 -0.665745,-4.9802 -0.507456,-5.88156 1.360982,-7.75 2.848394,-2.8484 7.203761,-2.71253 10.046474,0.3134 1.951687,2.07748 2.193778,3.12351 1.67793,7.25 -1.602895,12.82227 -1.804518,23.99184 -0.552823,30.62557 1.11641,5.91675 1.098135,7.32875 -0.122983,9.50186 -1.603022,2.85276 -5.455682,4.28592 -8.497048,3.16085 z m 15.74944,-5.21603 c 0.28809,-2.98793 0.595585,-3.25 3.813358,-3.25 3.217773,0 3.525268,0.26207 3.813358,3.25 0.307791,3.19226 0.240037,3.25 -3.813358,3.25 -4.053395,0 -4.121149,-0.0577 -3.813358,-3.25 z m 11.813358,0.27898 c 0,-3.48134 1.689392,-4.57474 5.565293,-3.60195 2.076745,0.52123 2.501643,1.15597 2.247764,3.35785 -0.270708,2.34783 -0.820336,2.7571 -4.063057,3.02549 -3.591653,0.29726 -3.75,0.17981 -3.75,-2.78139 z m 11,-0.01 c 0,-2.34497 0.532887,-3.11469 2.497757,-3.60784 3.79025,-0.9513 5.50224,0.15557 5.50224,3.55741 0,2.86994 -0.21302,3.03138 -4,3.03138 -3.7721,0 -3.999997,-0.16984 -3.999997,-2.98095 z m -23,-9.01898 c 0,-2.83333 0.222222,-3 4,-3 3.777778,0 4,0.16667 4,3 0,2.83333 -0.222222,3 -4,3 -3.777778,0 -4,-0.16667 -4,-3 z m 12,0.0604 c 0,-2.91213 0.197018,-3.0604 4.066422,-3.0604 3.846139,0 4.049282,0.14897 3.75,2.75 -0.274712,2.3875 -0.810739,2.79091 -4.066422,3.06037 -3.584047,0.29663 -3.75,0.17493 -3.75,-2.75 z m 11,-0.0604 c 0,-2.83333 0.222217,-3 3.999997,-3 3.77778,0 4,0.16667 4,3 0,2.83333 -0.22222,3 -4,3 -3.77778,0 -3.999997,-0.16667 -3.999997,-3 z m -22.28594,-5.61927 c -0.392733,-0.39274 -0.71406,-1.98906 -0.71406,-3.5474 0,-2.64625 0.268298,-2.83333 4.063358,-2.83333 3.981914,0 4.057078,0.0651 3.75,3.25 -0.270398,2.80444 -0.729573,3.29077 -3.349298,3.54739 -1.669767,0.16357 -3.357267,-0.0239 -3.75,-0.41666 z m 11.325766,-0.83274 c -0.66835,-0.80532 -0.907745,-2.38878 -0.537505,-3.5553 0.545261,-1.71797 1.339001,-2.04736 4.332619,-1.79799 2.994606,0.24945 3.726798,0.74194 4.002552,2.69221 0.543008,3.84041 -5.194028,5.79827 -7.797666,2.66108 z m 12.122681,0.59797 c -0.73562,-0.47968 -1.18562,-1.94625 -1,-3.25905 0.27871,-1.97118 1.0025,-2.44167 4.15565,-2.70134 3.77306,-0.31071 3.81441,-0.27527 3.5,3 -0.25896,2.69768 -0.78336,3.36263 -2.81816,3.57348 -1.375,0.14248 -3.10187,-0.13341 -3.83749,-0.61309 z M 76.888013,136.02672 v -11 h 15.5 15.499997 v 11 11 h -15.499997 -15.5 z M 168.19938,123.075 c -9.00548,-5.49102 -4.34642,-20.04828 6.41646,-20.04828 5.639,0 10.19421,4.68294 10.24037,10.52749 0.0368,4.65644 -1.88283,7.85988 -5.97924,9.97822 -3.87532,2.004 -6.84973,1.87658 -10.67759,-0.45743 z M 59.412275,95.867149 c -2.609288,-2.05247 -2.708277,-2.43685 -1.995841,-7.75 1.00447,-7.49107 1.015922,-26.132557 0.02071,-33.713084 -0.723586,-5.511558 -0.591485,-6.334988 1.323527,-8.25 2.749571,-2.749571 7.498037,-2.756647 10.239426,-0.01526 1.883535,1.883535 2.031971,2.776265 1.371743,8.25 -1.027681,8.520169 -1.060475,27.096804 -0.05879,33.304014 0.770978,4.77759 0.639353,5.36042 -1.750226,7.75 -3.149925,3.14993 -5.544351,3.26096 -9.150547,0.42433 z m 18.638246,-0.69447 c -0.735621,-0.47967 -1.185621,-1.94625 -1,-3.25905 0.282354,-1.99694 0.909308,-2.38691 3.837492,-2.38691 3.222222,0 3.5,0.2381 3.5,3 0,2.46426 -0.446456,3.04627 -2.5,3.25905 -1.375,0.14248 -3.101871,-0.13341 -3.837492,-0.61309 z m 11.221534,-0.58754 c -1.247037,-3.24973 0.05078,-5.05842 3.629653,-5.05842 2.913749,0 3.541731,0.39201 3.823797,2.38691 0.185621,1.3128 -0.264379,2.76841 -1,3.23469 -2.116795,1.34174 -5.847392,1.01618 -6.45345,-0.56318 z m 11.778465,0.56318 c -0.73562,-0.46628 -1.18562,-1.92189 -1,-3.23469 0.28235,-1.99694 0.90931,-2.38691 3.83749,-2.38691 2.92818,0 3.55514,0.38997 3.83749,2.38691 0.49144,3.47571 -3.35445,5.33943 -6.67498,3.23469 z m -23.978929,-11.8716 c 0.277982,-2.41592 0.741615,-2.75 3.816422,-2.75 3.074807,0 3.53844,0.33408 3.816422,2.75 0.300019,2.60744 0.102178,2.75 -3.816422,2.75 -3.9186,0 -4.116441,-0.14256 -3.816422,-2.75 z m 12,0 c 0.277982,-2.41592 0.741615,-2.75 3.816422,-2.75 3.074807,0 3.53844,0.33408 3.816422,2.75 0.300019,2.60744 0.102178,2.75 -3.816422,2.75 -3.9186,0 -4.116441,-0.14256 -3.816422,-2.75 z m 10.999999,0 c 0.27798,-2.41592 0.74161,-2.75 3.81642,-2.75 3.07481,0 3.53844,0.33408 3.81642,2.75 0.30002,2.60744 0.10218,2.75 -3.81642,2.75 -3.918597,0 -4.116438,-0.14256 -3.81642,-2.75 z m -23.183577,-8.75 c 0,-2.25 0.4,-2.5 4,-2.5 3.6,0 4,0.25 4,2.5 0,2.25 -0.4,2.5 -4,2.5 -3.6,0 -4,-0.25 -4,-2.5 z m 12,0 c 0,-2.25 0.4,-2.5 4,-2.5 3.6,0 4,0.25 4,2.5 0,2.25 -0.4,2.5 -4,2.5 -3.6,0 -4,-0.25 -4,-2.5 z m 11,0 c 0,-2.25 0.399997,-2.5 3.999997,-2.5 3.6,0 4,0.25 4,2.5 0,2.25 -0.4,2.5 -4,2.5 -3.6,0 -3.999997,-0.25 -3.999997,-2.5 z m -23,-17.999996 v -10.5 h 15.5 15.499997 v 10.5 10.5 h -15.499997 -15.5 z"
         id="path978" />
    </g>
  </g>
</svg>
