<?xml version="1.0" encoding="UTF-8" standalone="no"?>
<!-- Created with Inkscape (http://www.inkscape.org/) -->

<svg
   version="1.1"
   id="svg870"
   width="512"
   height="512"
   viewBox="0 0 512 512"
   sodipodi:docname="sippts.svg"
   inkscape:version="1.1.2 (0a00cf5339, 2022-02-04)"
   xmlns:inkscape="http://www.inkscape.org/namespaces/inkscape"
   xmlns:sodipodi="http://sodipodi.sourceforge.net/DTD/sodipodi-0.dtd"
   xmlns="http://www.w3.org/2000/svg"
   xmlns:svg="http://www.w3.org/2000/svg">
  <defs
     id="defs874" />
  <sodipodi:namedview
     id="namedview872"
     pagecolor="#505050"
     bordercolor="#eeeeee"
     borderopacity="1"
     inkscape:pageshadow="0"
     inkscape:pageopacity="0"
     inkscape:pagecheckerboard="0"
     showgrid="false"
     inkscape:zoom="0.87304687"
     inkscape:cx="247.4094"
     inkscape:cy="256"
     inkscape:window-width="1366"
     inkscape:window-height="695"
     inkscape:window-x="0"
     inkscape:window-y="24"
     inkscape:window-maximized="1"
     inkscape:current-layer="g876" />
  <g
     inkscape:groupmode="layer"
     inkscape:label="Image"
     id="g876">
    <g
       id="g2917"
       transform="matrix(0.9819928,0,0,0.9803038,4.6098452,5.0422279)">
      <path
         id="path1458"
         style="fill:#ffffff;stroke-width:4.66183"
         d="m 151.42383,105.25977 c -7.23612,0.14177 -14.60479,2.84867 -19.58382,8.22692 -4.18434,4.40968 -6.34524,10.55943 -6.08801,16.61087 0.0241,3.55334 1.08025,7.06795 2.99795,10.05771 2.97984,4.88014 7.25768,8.76637 10.60148,13.3719 0.4438,0.7933 1.36669,1.75094 0.84974,2.70525 -0.85407,1.25959 -2.05222,2.77928 -3.76322,2.58103 -3.61534,-0.34371 -6.71144,-2.8518 -10.41061,-2.76072 -1.28086,-0.0224 -2.44318,0.84134 -2.79696,2.07243 -1.24765,3.43059 -2.01312,7.01888 -2.75051,10.58824 -0.21383,1.45357 -0.65974,2.94121 -0.39979,4.4116 0.72573,1.77649 2.71095,2.49154 4.37465,3.11411 8.60323,2.75412 18.47085,1.99045 26.20152,-2.84067 5.41466,-3.33048 9.52565,-8.74435 11.11914,-14.91406 1.05085,-3.56873 1.48381,-7.48343 0.18107,-11.04905 -1.62584,-4.54711 -4.83738,-8.27253 -7.88209,-11.93241 -2.19043,-2.63477 -4.66169,-5.08906 -6.36734,-8.08495 -0.40154,-0.6364 -0.49485,-1.42484 -0.0625,-2.07227 0.51775,-1.33128 2.00259,-1.99027 3.36707,-1.77112 3.12955,0.34136 5.80122,2.58786 9.01379,2.49769 1.87332,-0.0325 3.32961,-1.57059 3.85378,-3.27588 0.8546,-2.68537 1.26606,-5.4964 1.59739,-8.28858 0.23962,-2.34958 0.0256,-5.0841 -1.87958,-6.73387 -2.15855,-1.84904 -5.14594,-2.04741 -7.84847,-2.34482 -1.43632,-0.14823 -2.88116,-0.20419 -4.32468,-0.16935 z" />
      <path
         id="path1497"
         style="fill:#ffffff;stroke-width:4.66183"
         d="m 197.7793,107.2832 c -6.15556,0.24786 -12.3111,0.496 -18.4668,0.74024 -3.72508,18.97611 -7.04775,38.0234 -10.49004,57.05247 -0.62571,3.48446 -1.25287,6.96867 -1.87715,10.45339 7.14909,0 14.29818,0 21.44727,0 3.66999,-21.00881 7.39921,-42.00802 10.98607,-63.03073 0.2788,-1.7709 0.55722,-3.54185 0.83424,-5.31302 -0.8112,0.0326 -1.6224,0.0651 -2.43359,0.0976 z" />
      <path
         id="path1536"
         style="fill:#ffffff;stroke-width:4.66183"
         d="m 230.26172,107.51758 c -6.66356,0.12497 -13.32555,0.32236 -19.98828,0.48437 -3.45719,20.10188 -6.84059,40.21671 -10.40159,60.30044 -0.44692,2.41101 -0.91806,4.81753 -1.3738,7.22691 7.06966,0 14.13932,0 21.20898,0 1.15683,-6.4265 2.19353,-12.87574 3.42774,-19.28759 0.35236,-1.35622 0.50056,-2.95427 1.5957,-3.94288 1.54121,-0.89851 3.40062,-0.9394 5.11109,-1.30511 5.84366,-0.85815 11.58882,-3.34076 15.66804,-7.70277 3.7766,-3.97627 6.10666,-9.18844 7.08704,-14.54808 1.0188,-6.09915 -0.90934,-12.74034 -5.47841,-16.99978 -1.80145,-1.88322 -4.11459,-3.32968 -6.71531,-3.75238 -3.33961,-0.59853 -6.76304,-0.48311 -10.1412,-0.47313 z m -0.33984,17.41211 c 1.36824,0.8381 1.29395,2.74944 0.87309,4.10282 -0.53402,1.85945 -2.05245,3.1692 -3.54497,4.2839 0.23405,-3.00138 1.07678,-5.91817 1.86133,-8.8125 0.27018,0.14192 0.54036,0.28385 0.81055,0.42578 z" />
      <path
         id="path1575"
         style="fill:#ffffff;stroke-width:4.66183"
         d="m 275.70312,107.39453 c -2.90614,0.0775 -5.86296,-0.0876 -8.71679,0.55859 -1.58508,0.35382 -2.83609,1.67822 -3.11532,3.27596 -1.10311,5.45232 -1.9818,10.94907 -2.95458,16.42645 -2.46336,14.18468 -4.77545,28.39671 -7.39134,42.55437 -0.36312,1.3374 -0.5786,2.99248 0.5282,4.05382 1.44665,1.33066 3.57863,1.13279 5.40374,1.24214 4.66839,0.0469 9.33727,0.0131 14.00586,0.0234 1.20824,-5.54056 2.40847,-11.0866 3.2182,-16.70244 0.35412,-1.97808 0.38431,-4.03683 1.04743,-5.946 0.54008,-0.99207 1.86006,-1.01292 2.82446,-1.31257 3.5678,-0.68123 7.22001,-1.13915 10.59559,-2.55876 5.08989,-1.96782 9.46555,-5.72864 12.07365,-10.53291 2.54352,-4.62815 4.27812,-9.97703 3.48008,-15.30494 -0.52167,-3.53388 -1.95784,-6.90782 -3.91926,-9.8776 -1.74455,-2.60912 -4.61751,-4.26148 -7.64898,-4.90397 -4.89732,-1.06102 -9.94577,-0.93757 -14.92855,-1.00306 -1.50079,0.002 -3.00159,0.005 -4.50239,0.007 z m 8.02149,17.51953 c 1.21996,0.78593 1.26048,2.48502 1.09312,3.78227 -0.27006,2.14663 -1.78966,4.0115 -3.78453,4.81148 0.49326,-3.01503 1.19848,-5.99481 2.02344,-8.93554 0.22266,0.11393 0.44531,0.22786 0.66797,0.34179 z" />
      <path
         id="path1614"
         style="fill:#ffffff;stroke-width:4.66183"
         d="m 329.42969,107.4043 c -4.34766,0.0958 -8.7262,1.5e-4 -13.03711,0.65234 -1.40548,0.21772 -3.08925,0.86929 -3.38339,2.44134 -0.8328,4.12954 -0.838,8.36901 -1.13106,12.55884 -0.047,0.82678 -0.0945,1.65353 -0.1418,2.48029 2.6607,0.27719 5.35213,0.32215 7.99023,0.77552 0.80188,-0.0635 0.45853,0.66498 0.39771,1.17665 -2.41397,14.76818 -5.21193,29.4507 -7.6106,44.23728 -0.26281,0.97475 -0.0481,2.15136 0.88478,2.68609 1.41668,0.83448 3.15334,0.77545 4.7424,0.96428 3.56255,0.19871 7.14348,0.23084 10.70454,-0.002 1.75953,-0.10518 3.76154,-0.71978 4.54409,-2.45639 0.75613,-1.81293 0.88076,-3.81179 1.29709,-5.7176 2.46145,-13.6169 4.76291,-27.26212 7.12202,-40.89773 2.62185,-0.44162 5.38162,-0.45542 7.84766,-1.54492 2.13461,-0.96096 3.10466,-3.27955 3.57031,-5.42969 0.85551,-3.9569 1.46435,-7.9627 2.21094,-11.9414 -8.66926,0.008 -17.33861,-0.0175 -26.00781,0.0176 z" />
      <path
         id="path1653"
         style="fill:#ffffff;stroke-width:4.66183"
         d="m 380.02344,105.23047 c -6.20519,0.0608 -12.56437,1.99679 -17.19653,6.24892 -4.12948,3.75285 -6.74634,8.99759 -7.78589,14.44053 -0.84753,4.55272 0.14413,9.30502 2.33642,13.34533 2.29441,4.4103 5.70136,8.07732 8.99527,11.74791 1.13276,1.40937 2.47351,2.76467 3.05307,4.51418 0.14784,1.03392 -0.91627,1.68438 -1.53417,2.34718 -0.61887,0.63352 -1.46215,1.15867 -2.37884,0.86249 -3.21202,-0.60106 -6.25404,-2.06225 -9.54402,-2.23896 -1.76105,-0.097 -3.41675,1.03897 -4.05469,2.66601 -0.95778,2.43653 -1.37953,5.0417 -1.98793,7.57907 -0.40201,2.19377 -1.08031,4.57481 -0.17344,6.73055 0.85484,1.96745 3.09585,2.6171 4.99329,3.12691 9.04083,2.49626 19.28517,1.09435 26.92646,-4.49027 2.8567,-2.1401 4.83514,-5.21184 6.60536,-8.25829 1.66785,-3.0622 3.22216,-6.3032 3.67121,-9.79719 0.27984,-3.43657 -1.03668,-6.77067 -2.54385,-9.79051 -1.86499,-3.71251 -4.50027,-6.96652 -7.38212,-9.93489 -1.89615,-2.125 -3.97563,-4.14208 -5.45147,-6.59519 -0.65543,-1.0266 0.0349,-2.26174 0.61593,-3.15027 1.09998,-1.39042 3.10179,-1.03786 4.59441,-0.63212 2.51996,0.69597 4.9767,2.2846 7.68489,1.79228 2.08805,-0.39168 3.26763,-2.44328 3.74218,-4.35113 0.70351,-2.75595 1.18424,-5.58436 1.34375,-8.42621 0.11794,-2.13428 -0.55822,-4.49606 -2.44921,-5.69922 -2.42557,-1.52444 -5.39422,-1.61462 -8.16284,-1.89225 -1.30262,-0.11096 -2.6098,-0.16408 -3.91724,-0.14486 z" />
      <path
         id="path1221"
         style="fill:#ffffff;stroke-width:4.66183"
         d="m 158.64648,249.6875 c -6.07385,0.51926 -12.20177,2.49167 -16.86189,6.54008 -5.30842,4.51607 -8.40728,11.03426 -10.37173,17.59896 -1.50665,4.83966 -2.58266,9.93497 -1.98229,15.02312 0.61943,5.30411 2.15498,10.45391 3.84776,15.50223 4.66893,13.47493 11.71019,26.08563 20.37572,37.39236 6.23991,8.06704 13.35395,15.44836 21.0609,22.12187 12.42303,10.72937 26.75684,19.2625 42.19061,24.87663 5.66411,1.98542 11.43814,4.17789 17.52674,4.17277 5.97461,0.10975 11.96787,-0.90527 17.54017,-3.07579 5.77593,-2.26377 11.3259,-5.54612 15.3572,-10.3386 2.0161,-2.37721 3.47706,-5.26954 3.86888,-8.38384 0.48125,-2.95425 1.26637,-5.9089 1.14549,-8.92217 -0.0613,-1.98489 -1.34514,-3.6935 -2.97813,-4.72324 -6.63022,-4.41377 -13.55182,-8.37414 -20.52427,-12.21791 -3.0452,-1.61512 -6.05336,-3.34219 -9.27523,-4.586 -1.99255,-0.71793 -4.16674,-0.004 -5.79688,1.21875 -3.86585,2.87024 -7.0236,6.54746 -10.51882,9.833 -2.04002,1.87704 -4.03758,3.91224 -6.54537,5.15905 -1.13465,0.52201 -2.32684,-0.22016 -3.39911,-0.58215 -5.33365,-2.37925 -10.18582,-5.69243 -14.918,-9.0831 -4.03444,-2.91638 -7.93296,-6.04393 -11.37984,-9.64735 -1.9209,-1.9537 -3.75034,-3.98186 -5.49667,-6.01148 -2.74255,-3.20872 -5.43761,-6.65224 -7.83203,-10.01563 -2.96584,-4.26255 -5.91205,-8.61885 -7.83985,-13.46679 -0.40639,-1.21746 -1.02693,-2.67909 -0.17177,-3.85551 1.72152,-2.64821 4.12068,-4.76186 6.34816,-6.97231 3.34734,-3.28864 7.16403,-6.21927 9.71229,-10.22101 0.68144,-1.02096 0.88797,-2.32814 0.37443,-3.46648 -1.47734,-3.79946 -3.50462,-7.35607 -5.42777,-10.94217 -3.35829,-6.02247 -6.7731,-12.03463 -10.73834,-17.68362 -1.45916,-1.88357 -2.7765,-4.23116 -5.18098,-5.00734 -0.68173,-0.20811 -1.39991,-0.26234 -2.10938,-0.23633 z" />
      <path
         style="fill:#01a4db"
         d="M 250.00155,471.65103 C 242.86317,468.39812 221.52219,454.6625 213.66283,448.26246 184.14441,424.22501 161.98439,401.83624 147.03975,380.95166 123.92649,348.65174 108.08834,318.40585 97.45979,286.26951 89.766463,263.00809 81.708606,229.31 79.58521,211.51772 77.395511,193.16988 73.483073,121.74212 73.495402,100.33862 l 0.0062,-10.679103 5.25,-1.058735 c 2.8875,-0.582304 16.05,-2.868061 29.249998,-5.07946 54.60578,-9.148121 86.52316,-19.952769 141.14197,-47.779271 l 7.14197,-3.6386 18.35803,8.860845 c 52.6381,25.406755 86.52368,36.15429 137.35803,43.566025 9.42865,1.374713 26.7315,4.885567 27.40698,5.561042 1.36948,1.369485 -3.44429,99.689877 -5.92056,120.926357 -2.77969,23.83853 -12.17107,60.9214 -22.0331,87 -14.9172,39.44621 -41.64788,82.43698 -68.83125,110.70083 -26.97008,28.04208 -52.58146,48.43839 -75.96509,60.49685 -9.32226,4.80729 -10.93496,5.04311 -16.65698,2.43563 z m 1.16458,-82.65904 c 13.07254,-4.92049 19.10337,-12.14152 19.59852,-23.46636 l 0.2369,-5.41824 -6.26038,-4.04483 c -3.44321,-2.22466 -10.96104,-6.6587 -16.70629,-9.85342 -8.11045,-4.50991 -10.84695,-5.59376 -12.23962,-4.8478 -0.98654,0.52843 -5.34498,4.86256 -9.68542,9.63142 -9.18014,10.08625 -8.72814,10.02328 -20.53321,2.86065 -17.3609,-10.53359 -30.40178,-24.39527 -40.03592,-42.55579 -3.32274,-6.26343 -2.42447,-8.50984 6.19951,-15.50394 9.15454,-7.42439 10.64721,-9.84046 8.5593,-13.85434 -6.50728,-12.50983 -16.02412,-28.22472 -17.95561,-29.64957 -2.09281,-1.54386 -2.9864,-1.59304 -8.38754,-0.46167 -3.32485,0.69645 -7.59985,2.16967 -9.5,3.27382 -6.74793,3.92112 -13.95482,20.01837 -13.95482,31.16936 0,11.25052 11.44212,38.38128 22.2413,52.73702 2.89228,3.84482 9.55281,11.26982 14.80118,16.5 14.93211,14.88039 27.65995,23.41712 44.87026,30.09509 19.23875,7.46506 26.28479,8.08119 38.75184,3.3886 z m 18.6059,-52.22427 c 4.51116,-4.2625 13.15828,-12.48491 19.21582,-18.27202 6.05753,-5.78711 21.4762,-20.34806 34.2637,-32.35766 12.7875,-12.0096 23.25,-22.22824 23.25,-22.70809 0,-0.47985 -9.40518,-0.9939 -20.90041,-1.14234 l -20.90041,-0.26989 20.30027,-25.5 20.30026,-25.5 -33.45859,-0.26337 c -18.40222,-0.14486 -34.88219,0.10552 -36.62214,0.55638 -2.77369,0.71874 -3.58058,1.79872 -6.5474,8.76338 -1.86111,4.36898 -6.01408,14.01861 -9.22883,21.44361 -10.48447,24.21562 -21.94275,51.15 -21.94275,51.57967 0,0.23118 9.93032,0.42033 22.06739,0.42033 h 22.06739 l -0.71255,2.25 c -0.39191,1.2375 -5.14723,12.50198 -10.56739,25.03218 -5.42016,12.5302 -9.85484,22.9927 -9.85484,23.25 0,1.21326 1.6569,-0.0883 9.27048,-7.28218 z M 147.05716,174.14402 c 8.68981,-4.04644 14.4951,-13.0303 14.42243,-22.31912 -0.0376,-4.8005 -3.56625,-10.91478 -9.89583,-17.14685 -3.34522,-3.29368 -6.08221,-6.70217 -6.08221,-7.57442 0,-1.78115 3.43858,-5.58591 5.04831,-5.58591 0.57656,0 2.91109,0.9 5.18783,2 2.27673,1.1 4.6838,2 5.34903,2 1.13457,0 3.41483,-9.87266 3.41483,-14.78491 0,-2.64135 -4.92252,-4.20145 -13.28212,-4.20951 -14.03261,-0.0135 -23.85747,9.31847 -23.98012,22.77719 -0.0657,7.20625 1.77527,10.84182 9.6344,19.02628 5.96161,6.2084 6.04081,6.36465 4.56395,9.00449 -1.98297,3.54448 -5.21303,3.86701 -11.10234,1.1086 -2.65538,-1.24371 -5.10119,-1.98805 -5.43515,-1.65409 -0.5398,0.5398 -3.39446,14.009 -3.39744,16.03022 -0.003,1.75981 6.89047,3.62509 13.49882,3.65282 5.29737,0.0222 8.22969,-0.54324 12.05561,-2.32479 z m 229,0 c 8.68981,-4.04644 14.4951,-13.0303 14.42243,-22.31912 -0.0376,-4.8005 -3.56625,-10.91478 -9.89583,-17.14685 -3.34522,-3.29368 -6.08221,-6.70217 -6.08221,-7.57442 0,-1.78115 3.43858,-5.58591 5.04831,-5.58591 0.57656,0 2.91109,0.9 5.18783,2 2.27673,1.1 4.6838,2 5.34903,2 1.13457,0 3.41483,-9.87266 3.41483,-14.78491 0,-2.64135 -4.92252,-4.20145 -13.28212,-4.20951 -14.03261,-0.0135 -23.85747,9.31847 -23.98012,22.77719 -0.0657,7.20625 1.77527,10.84182 9.6344,19.02628 5.96161,6.2084 6.04081,6.36465 4.56395,9.00449 -1.98297,3.54448 -5.21303,3.86701 -11.10234,1.1086 -2.65538,-1.24371 -5.10119,-1.98805 -5.43515,-1.65409 -0.5398,0.5398 -3.39446,14.009 -3.39744,16.03022 -0.003,1.75981 6.89047,3.62509 13.49882,3.65282 5.29737,0.0222 8.22969,-0.54324 12.05561,-2.32479 z m -183.7033,-29.8763 c 2.91975,-16.6375 5.54988,-31.4875 5.84474,-33 l 0.5361,-2.75 h -9.09752 c -8.61318,0 -9.12531,0.11979 -9.61937,2.25 -0.28702,1.2375 -2.79427,15.3 -5.57167,31.25 -2.77741,15.95 -5.28148,29.7875 -5.5646,30.75 -0.46432,1.57849 0.40052,1.75 8.82446,1.75 h 9.33923 z m 26.44803,28 c 0.28443,-1.2375 1.27838,-6.59318 2.20876,-11.9015 l 1.6916,-9.65151 4.64965,-0.66628 c 11.78537,-1.68879 17.8726,-5.59238 21.76888,-13.95985 4.71873,-10.1337 2.50135,-20.87579 -5.22333,-25.30441 -3.52681,-2.02195 -5.24592,-2.23511 -18.1459,-2.25 -8.85413,-0.0102 -14.25,0.3626 -14.25,0.98459 0,0.55057 -2.475,14.9501 -5.5,31.99896 -3.025,17.04886 -5.5,31.44839 -5.5,31.99896 0,0.593 3.62439,1.00104 8.89159,1.00104 8.40101,0 8.92013,-0.12414 9.40875,-2.25 z m 6.69966,-37.70078 c 0,-1.30804 2.16651,-11.47102 2.53258,-11.88024 0.16287,-0.18206 1.23467,0.17127 2.38177,0.78518 3.15675,1.68944 2.84772,7.30124 -0.54921,9.97326 -2.84671,2.23922 -4.36514,2.62945 -4.36514,1.1218 z m 47.30034,37.70078 c 0.28443,-1.2375 1.27838,-6.59318 2.20876,-11.9015 l 1.6916,-9.65151 4.64965,-0.66628 c 11.78537,-1.68879 17.8726,-5.59238 21.76888,-13.95985 4.71873,-10.1337 2.50135,-20.87579 -5.22333,-25.30441 -3.52681,-2.02195 -5.24592,-2.23511 -18.1459,-2.25 -8.85413,-0.0102 -14.25,0.3626 -14.25,0.98459 0,0.55057 -2.475,14.9501 -5.5,31.99896 -3.025,17.04886 -5.5,31.44839 -5.5,31.99896 0,0.593 3.62439,1.00104 8.89159,1.00104 8.40101,0 8.92013,-0.12414 9.40875,-2.25 z m 6.69966,-37.70078 c 0,-1.30804 2.16651,-11.47102 2.53258,-11.88024 0.16287,-0.18206 1.23467,0.17127 2.38177,0.78518 3.15675,1.68944 2.84772,7.30124 -0.54921,9.97326 -2.84671,2.23922 -4.36514,2.62945 -4.36514,1.1218 z m 55.20882,23.95078 c 1.50078,-8.525 3.46696,-19.64069 4.36929,-24.70153 l 1.6406,-9.20154 5.10403,-0.29846 c 5.64349,-0.33002 5.42816,0.0168 7.16005,-11.53225 l 0.63976,-4.26622 h -19.41473 -19.41472 l -1.14655,6.94263 c -0.6306,3.81844 -1.14655,7.39493 -1.14655,7.94774 0,0.55281 2.15676,1.14113 4.7928,1.30737 l 4.7928,0.30226 -3.70166,21 c -2.03591,11.55 -3.97571,22.70449 -4.31065,24.78776 l -0.609,3.78776 9.25792,-0.28776 9.25793,-0.28776 z"
         id="path1082" />
      <path
         style="fill:#3256c0"
         d="M 247.50155,506.20727 C 218.66293,492.04722 176.13606,458.12073 148.14674,426.94536 132.97101,410.04218 116.53891,387.09927 101.12531,361.29287 80.171273,326.21034 64.648381,283.50332 53.04673,229.01772 50.494198,217.03009 49.827134,211.424 47.037785,178.51772 45.451417,159.80315 41.883029,68.802913 42.703375,67.982566 43.195674,67.490268 70.698207,62.666565 88.501554,59.949968 124.27063,54.491996 163.44594,43.457716 196.50155,29.530238 c 13.12905,-5.531724 23.27012,-10.152086 39.84786,-18.155036 10.09133,-4.8716141 19.09133,-8.8473978 20,-8.8350743 0.90868,0.012323 4.35214,1.3718629 7.65214,3.0211987 9.33394,4.6650936 42.2158,19.8725266 50,23.1243536 42.2787,17.661806 63.68804,23.297122 133.90169,35.245284 11.49594,1.956247 21.10664,3.76175 21.35711,4.012227 0.84061,0.840608 -1.8741,71.778719 -3.82973,100.074529 -2.5763,37.27648 -3.37356,44.6763 -6.46443,60 -14.64557,72.60894 -35.8803,121.11484 -77.48638,177 -18.72243,25.14791 -42.35234,48.39045 -78.97826,77.68358 -10.48359,8.38469 -43.33115,26.95804 -47.32057,26.75698 -0.64869,-0.0327 -4.10443,-1.49565 -7.67943,-3.25101 z m 18.5,-22.22048 c 24.84536,-11.95785 60.52957,-40.64735 89.30884,-71.80278 14.08006,-15.24258 32.26322,-41.31979 49.01944,-70.30079 3.90942,-6.76158 14.56892,-29.91677 17.53092,-38.08165 9.05912,-24.97191 13.51808,-40.09127 18.95841,-64.28385 6.23398,-27.72187 7.79014,-44.5612 10.67358,-115.5 0.5589,-13.75 1.18348,-28.945574 1.38797,-33.767943 0.20448,-4.822369 0.0602,-8.960489 -0.32053,-9.195822 C 452.1794,80.818622 442.22294,79.011586 430.4347,77.038318 382.01892,68.933855 368.4172,65.842813 341.50668,56.829081 320.13141,49.669394 300.6733,41.604731 276.60119,29.928173 c -10.6702,-5.175748 -19.95458,-9.410452 -20.63195,-9.410452 -0.67737,0 -7.02221,2.87605 -14.09964,6.391222 -43.38663,21.548998 -78.72339,34.485836 -114.86805,42.053362 -10.64847,2.229445 -50.835708,9.163251 -63.879821,11.021663 l -4.879824,0.695236 0.677821,18.669258 c 1.001039,27.571658 4.414418,90.024118 5.611454,102.669258 2.826352,29.85676 14.048234,73.18946 28.067771,108.38219 10.946679,27.47907 32.225429,63.09106 54.444359,91.11781 17.98735,22.68906 59.58124,59.61509 82.95824,73.64828 25.42232,15.261 23.56462,14.80583 36,8.82079 z m -48.62756,-32.21907 c -1.24387,-1.58606 -1.2085,-1.62143 0.37756,-0.37756 0.9625,0.75485 1.75,1.54235 1.75,1.75 0,0.82304 -0.82119,0.29331 -2.12756,-1.37244 z m 76.12756,1.37244 c 0,-0.20765 0.7875,-0.99515 1.75,-1.75 1.58606,-1.24387 1.62143,-1.2085 0.37756,0.37756 -1.30637,1.66575 -2.12756,2.19548 -2.12756,1.37244 z m -81.12756,-5.37244 c -1.24387,-1.58606 -1.2085,-1.62143 0.37756,-0.37756 0.9625,0.75485 1.75,1.54235 1.75,1.75 0,0.82304 -0.82119,0.29331 -2.12756,-1.37244 z m 86.12756,1.37244 c 0,-0.20765 0.7875,-0.99515 1.75,-1.75 1.58606,-1.24387 1.62143,-1.2085 0.37756,0.37756 -1.30637,1.66575 -2.12756,2.19548 -2.12756,1.37244 z m -92.12756,-6.37244 c -1.24387,-1.58606 -1.2085,-1.62143 0.37756,-0.37756 1.66575,1.30637 2.19548,2.12756 1.37244,2.12756 -0.20765,0 -0.99515,-0.7875 -1.75,-1.75 z m 98.12756,1.37244 c 0,-0.20765 0.7875,-0.99515 1.75,-1.75 1.58606,-1.24387 1.62143,-1.2085 0.37756,0.37756 -1.30637,1.66575 -2.12756,2.19548 -2.12756,1.37244 z m -105.12756,-7.37244 c -1.24387,-1.58606 -1.2085,-1.62143 0.37756,-0.37756 1.66575,1.30637 2.19548,2.12756 1.37244,2.12756 -0.20765,0 -0.99515,-0.7875 -1.75,-1.75 z m 112.12756,1.37244 c 0,-0.20765 0.7875,-0.99515 1.75,-1.75 1.58606,-1.24387 1.62143,-1.2085 0.37756,0.37756 -1.30637,1.66575 -2.12756,2.19548 -2.12756,1.37244 z m -119.59501,-7.87244 -1.90499,-2.25 2.25,1.90499 c 2.11444,1.79022 2.70524,2.59501 1.90499,2.59501 -0.18976,0 -1.20226,-1.0125 -2.25,-2.25 z m 126.59501,1.93709 c 0,-0.1721 1.4625,-1.6346 3.25,-3.25 l 3.25,-2.93709 -2.93709,3.25 c -2.73778,3.02946 -3.56291,3.70965 -3.56291,2.93709 z m -137.5313,-11.93709 -5.9687,-6.25 6.25,5.9687 c 3.4375,3.28278 6.25,6.09528 6.25,6.25 0,0.7389 -0.98689,-0.16298 -6.5313,-5.9687 z m 154.0313,-3.75 c 5.47936,-5.5 10.18748,-10 10.46248,-10 0.275,0 -3.98312,4.5 -9.46248,10 -5.47936,5.5 -10.18748,10 -10.46248,10 -0.275,0 3.98312,-4.5 9.46248,-10 z m -165.5,-7.5 c -2.42903,-2.475 -4.19142,-4.5 -3.91642,-4.5 0.275,0 2.48739,2.025 4.91642,4.5 2.42903,2.475 4.19142,4.5 3.91642,4.5 -0.275,0 -2.48739,-2.025 -4.91642,-4.5 z m 182,-10 c 1.29175,-1.375 2.57363,-2.5 2.84863,-2.5 0.275,0 -0.55688,1.125 -1.84863,2.5 -1.29175,1.375 -2.57363,2.5 -2.84863,2.5 -0.275,0 0.55688,-1.125 1.84863,-2.5 z m -191.59501,-0.75 -1.90499,-2.25 2.25,1.90499 c 2.11444,1.79022 2.70524,2.59501 1.90499,2.59501 -0.18976,0 -1.20226,-1.0125 -2.25,-2.25 z m 104.59501,-57.12756 c 0,-0.20765 0.7875,-0.99515 1.75,-1.75 1.58606,-1.24387 1.62143,-1.2085 0.37756,0.37756 -1.30637,1.66575 -2.12756,2.19548 -2.12756,1.37244 z m 17,-16.12244 c 1.86578,-1.925 3.61733,-3.5 3.89233,-3.5 0.275,0 -1.02655,1.575 -2.89233,3.5 -1.86578,1.925 -3.61733,3.5 -3.89233,3.5 -0.275,0 1.02655,-1.575 2.89233,-3.5 z m 118.03063,1 c 0,-0.55 0.43621,-1.675 0.96937,-2.5 0.53316,-0.825 0.96937,-1.05 0.96937,-0.5 0,0.55 -0.43621,1.675 -0.96937,2.5 -0.53316,0.825 -0.96937,1.05 -0.96937,0.5 z M 107.12509,313.97906 c -0.96498,-2.51469 -0.68031,-3.16355 0.49853,-1.13634 0.58369,1.00375 0.8506,2.03566 0.59313,2.29313 -0.25747,0.25747 -0.74872,-0.26309 -1.09166,-1.15679 z m 297.40709,1.03866 c 0,-0.55 0.43621,-1.675 0.96937,-2.5 0.53316,-0.825 0.96937,-1.05 0.96937,-0.5 0,0.55 -0.43621,1.675 -0.96937,2.5 -0.53316,0.825 -0.96937,1.05 -0.96937,0.5 z m -103.03063,-9 c 1.29175,-1.375 2.57363,-2.5 2.84863,-2.5 0.275,0 -0.55688,1.125 -1.84863,2.5 -1.29175,1.375 -2.57363,2.5 -2.84863,2.5 -0.275,0 0.55688,-1.125 1.84863,-2.5 z m -64.00136,-13.25 c -7.5e-4,-0.4125 2.58675,-0.62283 5.75,-0.46741 10.03472,0.49306 11.01841,0.9129 2.50136,1.06758 -4.5375,0.0824 -8.25061,-0.18767 -8.25136,-0.60017 z m 80.00136,-1.75 c 1.29175,-1.375 2.57363,-2.5 2.84863,-2.5 0.275,0 -0.55688,1.125 -1.84863,2.5 -1.29175,1.375 -2.57363,2.5 -2.84863,2.5 -0.275,0 0.55688,-1.125 1.84863,-2.5 z m 18,-17 c 1.86578,-1.925 3.61733,-3.5 3.89233,-3.5 0.275,0 -1.02655,1.575 -2.89233,3.5 -1.86578,1.925 -3.61733,3.5 -3.89233,3.5 -0.275,0 1.02655,-1.575 2.89233,-3.5 z m 87.07895,-11.08333 c 0.048,-1.16495 0.28494,-1.4019 0.60416,-0.60417 0.28887,0.72187 0.25335,1.58438 -0.0789,1.91667 -0.33229,0.33229 -0.56864,-0.25834 -0.52522,-1.3125 z m -107.82895,-0.16288 c 5.9125,-0.1768 15.5875,-0.1768 21.5,0 5.9125,0.17679 1.075,0.32145 -10.75,0.32145 -11.825,0 -16.6625,-0.14466 -10.75,-0.32145 z m -10.25,-1.63135 c 0,-0.20765 0.7875,-0.99515 1.75,-1.75 1.58606,-1.24387 1.62143,-1.2085 0.37756,0.37756 -1.30637,1.66575 -2.12756,2.19548 -2.12756,1.37244 z m 12,-15 c 0,-0.20765 0.7875,-0.99515 1.75,-1.75 1.58606,-1.24387 1.62143,-1.2085 0.37756,0.37756 -1.30637,1.66575 -2.12756,2.19548 -2.12756,1.37244 z m 4,-5 c 0,-0.20765 0.7875,-0.99515 1.75,-1.75 1.58606,-1.24387 1.62143,-1.2085 0.37756,0.37756 -1.30637,1.66575 -2.12756,2.19548 -2.12756,1.37244 z M 83.580501,237.93439 c 0.04798,-1.16495 0.284941,-1.4019 0.604167,-0.60417 0.288871,0.72187 0.253344,1.58437 -0.07895,1.91667 -0.332292,0.33229 -0.568641,-0.25834 -0.52522,-1.3125 z m 244.921049,-6.79423 c 0,-0.20765 0.7875,-0.99515 1.75,-1.75 1.58606,-1.24387 1.62143,-1.2085 0.37756,0.37756 -1.30637,1.66575 -2.12756,2.19548 -2.12756,1.37244 z M 79.580501,216.93439 c 0.04798,-1.16495 0.284941,-1.4019 0.604167,-0.60417 0.288871,0.72187 0.253344,1.58437 -0.07895,1.91667 -0.332292,0.33229 -0.568641,-0.25834 -0.52522,-1.3125 z m 352.999999,0 c 0.048,-1.16495 0.28494,-1.4019 0.60416,-0.60417 0.28887,0.72187 0.25335,1.58437 -0.0789,1.91667 -0.33229,0.33229 -0.56864,-0.25834 -0.52522,-1.3125 z M 78.753737,210.01772 c 0.0111,-2.2 0.215885,-2.98225 0.455078,-1.73834 0.239193,1.24391 0.230112,3.04391 -0.02018,4 -0.250293,0.95609 -0.445997,-0.0617 -0.434898,-2.26166 z m 201.997813,0.76496 c 2.6125,-0.206 6.8875,-0.206 9.5,0 2.6125,0.206 0.475,0.37454 -4.75,0.37454 -5.225,0 -7.3625,-0.16854 -4.75,-0.37454 z m 152.982,-2.26496 c 0,-1.925 0.2058,-2.7125 0.45733,-1.75 0.25152,0.9625 0.25152,2.5375 0,3.5 -0.25153,0.9625 -0.45733,0.175 -0.45733,-1.75 z m -356.037047,-11.5 c 0.02038,-1.65 0.244498,-2.20394 0.498042,-1.23097 0.253543,0.97297 0.236869,2.32297 -0.03705,3 -0.273927,0.67703 -0.481372,-0.11903 -0.460992,-1.76903 z m 356.883997,0.91667 c 0.048,-1.16495 0.28494,-1.4019 0.60416,-0.60417 0.28887,0.72187 0.25335,1.58437 -0.0789,1.91667 -0.33229,0.33229 -0.56864,-0.25834 -0.52522,-1.3125 z m 1.07894,-14.41667 c 0,-1.375 0.22698,-1.9375 0.50439,-1.25 0.27741,0.6875 0.27741,1.8125 0,2.5 -0.27741,0.6875 -0.50439,0.125 -0.50439,-1.25 z m -358.999991,-1 c 0,-1.375 0.226973,-1.9375 0.504386,-1.25 0.277412,0.6875 0.277412,1.8125 0,2.5 -0.277413,0.6875 -0.504386,0.125 -0.504386,-1.25 z m 360.074101,-15 c 0,-1.925 0.2058,-2.7125 0.45733,-1.75 0.25152,0.9625 0.25152,2.5375 0,3.5 -0.25153,0.9625 -0.45733,0.175 -0.45733,-1.75 z m -361.074101,0 c 0,-1.375 0.226973,-1.9375 0.504386,-1.25 0.277412,0.6875 0.277412,1.8125 0,2.5 -0.277413,0.6875 -0.504386,0.125 -0.504386,-1.25 z m 362.162171,-19 c 0,-3.575 0.1815,-5.0375 0.40333,-3.25 0.22182,1.7875 0.22182,4.7125 0,6.5 -0.22183,1.7875 -0.40333,0.325 -0.40333,-3.25 z m -363.020402,-2 c 0,-3.025 0.187466,-4.2625 0.41659,-2.75 0.229125,1.5125 0.229125,3.9875 0,5.5 -0.229124,1.5125 -0.41659,0.275 -0.41659,-2.75 z m -0.97959,-20 c 0,-3.575 0.181495,-5.0375 0.403322,-3.25 0.221826,1.7875 0.221826,4.7125 0,6.5 -0.221827,1.7875 -0.403322,0.325 -0.403322,-3.25 z m 365.016132,-3 c 0,-4.125 0.17651,-5.8125 0.39226,-3.75 0.21574,2.0625 0.21574,5.4375 0,7.5 -0.21575,2.0625 -0.39226,0.375 -0.39226,-3.75 z M 72.811423,96.017721 c 0.0056,-3.3 0.192301,-4.529441 0.414862,-2.732091 0.222562,1.79735 0.217969,4.49735 -0.0102,6 -0.228179,1.50265 -0.410275,0.03209 -0.404662,-3.267909 z M 439.5805,91.841045 c -0.0434,-1.197172 -0.86645,-2.382471 -1.82895,-2.633998 -1.64009,-0.428601 -1.63812,-0.464609 0.0314,-0.573325 1.93949,-0.126296 3.21294,2.057102 2.3919,4.10101 -0.28346,0.705644 -0.55091,0.303485 -0.59433,-0.893687 z M 97.314054,84.834607 c 0.721875,-0.288871 1.584375,-0.253344 1.916667,0.07895 0.332293,0.332292 -0.258334,0.568641 -1.3125,0.52522 -1.164943,-0.04798 -1.4019,-0.284941 -0.604167,-0.604167 z m 317.999996,0 c 0.72187,-0.288871 1.58438,-0.253344 1.91667,0.07895 0.33229,0.332292 -0.25834,0.568641 -1.3125,0.52522 -1.16495,-0.04798 -1.4019,-0.284941 -0.60417,-0.604167 z m -312,-1 c 0.72187,-0.288871 1.58437,-0.253344 1.91667,0.07895 0.33229,0.332292 -0.25834,0.568641 -1.3125,0.52522 -1.16495,-0.04798 -1.4019,-0.284941 -0.60417,-0.604167 z m 305.9375,0.02083 c 0.6875,-0.277412 1.8125,-0.277412 2.5,0 0.6875,0.277413 0.125,0.504386 -1.25,0.504386 -1.375,0 -1.9375,-0.226973 -1.25,-0.504386 z m -299.9375,-1.02083 c 0.72187,-0.288871 1.58437,-0.253344 1.91667,0.07895 0.33229,0.332292 -0.25834,0.568641 -1.3125,0.52522 -1.16495,-0.04798 -1.4019,-0.284941 -0.60417,-0.604167 z m 292.9375,0.02083 c 0.6875,-0.277412 1.8125,-0.277412 2.5,0 0.6875,0.277413 0.125,0.504386 -1.25,0.504386 -1.375,0 -1.9375,-0.226973 -1.25,-0.504386 z m -270.9375,-4.02083 c 0.72187,-0.288871 1.58437,-0.253344 1.91667,0.07895 0.33229,0.332292 -0.25834,0.568641 -1.3125,0.52522 -1.16495,-0.04798 -1.4019,-0.284941 -0.60417,-0.604167 z m 248.9375,0.02083 c 0.6875,-0.277412 1.8125,-0.277412 2.5,0 0.6875,0.277413 0.125,0.504386 -1.25,0.504386 -1.375,0 -1.9375,-0.226973 -1.25,-0.504386 z m -243.9375,-1.02083 c 0.72187,-0.288871 1.58437,-0.253344 1.91667,0.07895 0.33229,0.332292 -0.25834,0.568641 -1.3125,0.52522 -1.16495,-0.04798 -1.4019,-0.284941 -0.60417,-0.604167 z m 240,0 c 0.72187,-0.288871 1.58438,-0.253344 1.91667,0.07895 0.33229,0.332292 -0.25834,0.568641 -1.3125,0.52522 -1.16495,-0.04798 -1.4019,-0.284941 -0.60417,-0.604167 z m -216,-6 c 0.72187,-0.288871 1.58437,-0.253344 1.91667,0.07895 0.33229,0.332292 -0.25834,0.568641 -1.3125,0.52522 -1.16495,-0.04798 -1.4019,-0.284941 -0.60417,-0.604167 z m 16,-5 c 0.72187,-0.288871 1.58437,-0.253344 1.91667,0.07895 0.33229,0.332292 -0.25834,0.568641 -1.3125,0.52522 -1.16495,-0.04798 -1.4019,-0.284941 -0.60417,-0.604167 z m 118.1875,-16.316886 c -0.825,-0.533156 -1.05,-0.969374 -0.5,-0.969374 0.55,0 1.675,0.436218 2.5,0.969374 0.825,0.533156 1.05,0.969374 0.5,0.969374 -0.55,0 -1.675,-0.436218 -2.5,-0.969374 z"
         id="path1080" />
      <path
         id="path1299"
         style="fill:#ffffff;stroke-width:4.66183"
         d="m 255.21484,19.070312 c -16.79573,7.858552 -33.47101,15.992291 -50.56076,23.202538 -21.92668,9.297629 -44.42722,17.432192 -67.65017,22.840431 -12.10945,2.636697 -24.42682,4.898652 -36.67106,7.140928 -10.222422,1.829987 -20.489725,3.646338 -30.695551,5.188539 -4.310448,0.644327 -8.682081,1.264381 -13.024018,1.897096 0.710941,17.956097 1.435469,35.912166 2.41339,53.856096 1.198647,22.1137 2.432981,44.23065 4.050045,66.31886 0.372631,5.16685 0.819279,10.33154 1.643126,15.44903 2.584804,16.91471 6.622791,33.57399 11.271838,50.02989 4.842121,16.86712 10.372239,33.55941 17.134054,49.76088 5.975046,14.31202 13.414086,27.96 21.314796,41.28807 8.03046,13.40511 16.63405,26.48728 26.12763,38.90564 11.0717,14.25988 23.54474,27.38118 36.63225,39.79627 11.46056,10.80413 23.43955,21.07654 36.05845,30.50724 8.65001,6.23022 17.6047,12.03422 26.74628,17.51491 3.57907,2.05882 7.10611,4.2982 11.0183,5.68054 2.74683,1.00195 5.79727,0.8641 8.53119,-0.10683 4.12285,-1.43602 7.96014,-3.56343 11.8031,-5.60838 11.01935,-6.10523 21.336,-13.39422 31.35227,-21.01194 15.16818,-11.65333 29.60889,-24.26269 43.13691,-37.78757 8.97867,-9.02536 17.58739,-18.46987 25.0646,-28.79182 8.7675,-11.95347 17.05028,-24.25933 25.01768,-36.758 5.06774,-7.97143 9.90429,-16.10197 14.08993,-24.57609 9.68939,-19.45288 17.24519,-39.91036 23.491,-60.70782 6.73301,-22.71612 11.90755,-45.93416 14.70825,-69.47357 1.4165,-12.02708 1.97348,-24.13348 2.66879,-36.21764 1.11836,-21.34086 2.07994,-42.69283 2.65411,-64.0552 0.13122,-5.325327 0.22414,-10.654864 -0.0431,-15.977728 -0.0873,-2.572811 -0.17467,-5.145618 -0.26186,-7.718432 C 435.6341,76.460732 418.0008,73.364613 400.41662,70.143187 392.89245,68.731096 385.35849,67.185623 377.94857,65.475231 363.86932,62.242478 349.80404,58.225116 336.11771,53.410226 332.57563,52.163974 328.89493,50.816327 325.32812,49.451873 309.8321,43.539653 294.4967,36.705509 279.4556,29.66447 c -7.78577,-3.656276 -15.59383,-7.332364 -23.38921,-10.996501 -0.28386,0.134114 -0.56771,0.268229 -0.85157,0.402343 z m 16.94727,22.064454 c 16.20368,7.68744 32.46587,15.302835 49.22061,21.728293 17.11342,6.677605 34.7635,11.934853 52.64284,16.121702 9.31036,2.163255 18.72077,3.970299 28.19905,5.167583 1.39068,0.210571 3.01626,0.455812 4.49333,0.700303 6.04546,0.968054 12.02039,2.154012 18.05026,3.427135 4.36287,0.874853 8.73723,1.724174 13.15758,2.253421 0.0653,1.049006 0.0923,2.002443 0.10549,3.111206 0.14218,10.419931 -0.39451,20.762081 -0.73375,31.165351 -0.79487,20.89723 -1.56176,41.7815 -3.07313,62.63051 -0.75479,10.23376 -1.74466,20.45587 -3.26541,30.60661 -0.35927,2.32161 -0.7551,4.82333 -1.18394,7.20582 -1.40824,8.02759 -3.21915,16.04678 -5.15001,24.01764 -1.07062,4.4413 -2.10305,8.89428 -3.06365,13.35904 -0.65467,2.07745 -1.44745,4.11141 -2.07178,6.20127 -2.5595,8.17522 -4.96298,16.40286 -7.8519,24.47122 -3.63176,10.22333 -7.54526,20.37717 -12.42278,30.07889 -6.64669,12.5931 -13.47946,25.10738 -21.13478,37.12193 -7.12236,11.13348 -14.94764,21.80426 -23.10473,32.19816 -7.55179,9.59171 -15.87169,18.56713 -24.77058,26.92211 -7.42655,7.01842 -15.26995,13.77459 -23.04156,20.48306 -2.48495,2.15419 -4.9217,4.36883 -7.25116,6.6889 -0.57013,0.50981 -1.25788,0.85335 -2.02344,0.89649 -1.85008,0.55999 -3.00508,2.23217 -3.94531,3.80859 -0.32934,0.53166 -0.8682,0.73665 -1.45076,0.83276 -2.80309,1.11342 -5.31777,2.83129 -7.86863,4.41785 -6.0715,4.03508 -12.32554,7.81168 -18.79512,11.17556 -3.11173,1.49844 -6.29839,2.97772 -9.70534,3.65136 -1.49106,0.15714 -2.88799,-0.60945 -4.25459,-1.0997 -2.28282,-0.94986 -4.48857,-2.07136 -6.67751,-3.21806 -0.60119,-0.33495 -1.4858,-0.8016 -2.19381,-1.19774 -6.21592,-3.42982 -12.15842,-7.32286 -18.04165,-11.28805 -1.59789,-1.03716 -3.22768,-2.03245 -4.94021,-2.86359 -1.64058,-1.08925 -3.24504,-2.38426 -4.70179,-3.55071 -6.33641,-5.12931 -12.34046,-10.64729 -18.5387,-15.93942 -8.93981,-7.80837 -17.31608,-16.23649 -25.52868,-24.7987 -3.13879,-3.30389 -6.26565,-6.66502 -9.24947,-10.02614 -1.66361,-1.86152 -3.28661,-3.75876 -4.88382,-5.67745 -0.28164,-0.35922 -0.75389,-0.92454 -1.07022,-1.3295 -7.57425,-9.70003 -14.39264,-19.88438 -21.02939,-30.25449 -2.39346,-3.79078 -4.78217,-7.62092 -7.05139,-11.41624 -5.94213,-9.89585 -11.6268,-19.96818 -16.45056,-30.46309 -1.03371,-2.27664 -2.2911,-4.44299 -3.32639,-6.71666 -0.59592,-1.41053 -1.15162,-2.85005 -1.65586,-4.20047 -4.00772,-10.86929 -7.546645,-21.90528 -10.968207,-32.97113 -2.570146,-8.33553 -5.003427,-16.84621 -7.088636,-25.3951 -3.462121,-14.03782 -6.163789,-28.43462 -7.780602,-42.88055 -0.959633,-8.18566 -1.472397,-16.59404 -2.078999,-24.8873 -0.681427,-9.59072 -1.429879,-19.1588 -1.898302,-28.72275 -1.046098,-20.56247 -1.565525,-41.1466 -2.232302,-61.723659 17.037556,-3.109408 34.062738,-6.265624 51.138148,-9.157499 27.76315,-4.995259 54.72387,-13.804954 80.72237,-24.650611 13.80307,-5.748545 27.3154,-12.168489 40.65213,-18.922734 3.09279,-1.547401 6.18558,-3.094802 9.27837,-4.642203 5.29622,2.516927 10.59245,5.033855 15.88867,7.550782 z" />
      <path
         id="path2222"
         style="fill:#ffae00;fill-opacity:1;stroke-width:2.33092"
         d="m 323.70703,209.03711 c -14.61983,0.0617 -29.24168,0.11261 -43.85808,0.4464 -2.47688,0.0738 -5.15145,-0.002 -7.29512,1.44909 -1.38878,0.86851 -2.29601,2.2714 -2.93981,3.74483 -4.41482,9.29433 -8.45462,18.76164 -12.58537,28.18478 -6.3357,14.655 -12.63915,29.3256 -18.79181,44.05809 -0.5757,1.64604 -1.52464,3.26858 -1.47512,5.05626 0.0658,1.43573 1.59531,2.39803 2.9414,2.05274 2.27684,-0.1555 4.56595,0.12938 6.8418,0.25781 3.78196,0.32822 7.72981,0.69183 11.58785,0.86199 6.99954,0.39415 14.01144,0.3817 21.01957,0.36262 -6.33374,15.41161 -13.09232,30.64662 -19.38281,46.07617 -0.52483,0.99961 -0.43161,2.35179 0.41018,3.13663 0.9817,0.96145 2.55625,0.624 3.51725,-0.19949 2.20777,-1.79612 4.11188,-3.93225 6.20973,-5.85271 11.6645,-11.15685 23.47862,-22.16223 35.24806,-33.22994 4.54389,-4.27405 9.01948,-8.61962 13.46314,-12.99061 1.54018,-1.57819 3.37078,-2.81996 4.93432,-4.37405 7.39686,-6.96473 14.6941,-14.03852 21.86026,-21.2407 1.01185,-0.99245 1.98071,-2.0323 2.64923,-3.29436 0.57072,-0.55743 -0.59749,-0.80614 -0.88371,-1.21143 -0.85154,-0.90912 -2.17478,-0.73219 -3.30578,-0.84738 -10.62669,-0.48172 -21.35271,-0.40683 -31.9308,-0.77487 -1.46001,-0.0547 -2.91998,-0.11038 -4.37891,-0.18945 2.92125,-2.96026 5.4882,-6.2507 8.02866,-9.53759 1.08421,-1.37575 2.02146,-2.85661 2.92728,-4.34942 0.79086,-1.08349 2.09201,-1.66431 2.78234,-2.84286 0.67152,-0.79833 0.84921,-1.86945 1.45117,-2.69982 1.57945,-1.05562 2.71069,-2.64525 3.959,-4.05446 1.26906,-1.61107 2.69225,-3.15794 3.58397,-5.01976 0.35336,-0.81534 1.2333,-1.27982 1.74186,-2.00825 4.57042,-5.35523 8.99705,-10.83607 13.28044,-16.42326 0.85389,-0.96495 1.27219,-2.17639 1.7238,-3.3595 -1.07596,-0.46857 -2.10974,-1.14766 -3.33238,-1.05566 -6.66509,-0.18097 -13.3347,-0.12139 -20.00161,-0.13184 z" />
      <path
         id="path2222-3"
         style="fill:#ffffff;fill-opacity:1;stroke-width:2.33092"
         d="m 323.26181,219.66883 c -14.82219,0.0902 -29.6479,0.0722 -44.46485,0.52539 -5.36132,11.34239 -10.22934,22.87325 -15.24999,34.38725 -4.40126,10.19087 -8.74559,20.35955 -13.04297,30.59322 4.01193,0.32285 8.00479,0.65683 12.02217,0.75406 10.65563,0.36923 21.31866,0.12589 31.97783,0.1893 -3.72609,9.10654 -7.49341,18.19563 -11.33008,27.25586 9.78153,-9.18091 19.56781,-18.35774 29.17578,-27.72071 3.09721,-2.80593 6.23915,-5.56335 9.22833,-8.48717 1.9124,-1.82403 3.81479,-3.65844 5.71112,-5.49915 -9.64656,-0.15588 -19.29153,-0.42374 -28.92427,-0.97431 -4.26809,-0.20632 -8.5362,-0.41228 -12.80424,-0.61944 5.2487,-5.63872 10.70894,-11.07565 15.96262,-16.70916 3.696,-3.9204 6.96644,-8.2272 9.88283,-12.75192 0.68448,-1.04535 2.03546,-1.53346 2.4358,-2.76939 0.96977,-1.95989 2.52023,-3.54345 4.15731,-4.95417 1.81536,-1.90408 3.3588,-4.04429 4.72732,-6.28476 1.50747,-2.09566 3.43305,-3.84479 4.99717,-5.89749 0.19725,-0.38448 1.3797,-1.22905 0.37211,-1.05087 -1.61133,0.004 -3.22266,0.009 -4.83399,0.0135 z" />
    </g>
  </g>
</svg>
