<?xml version="1.0" encoding="UTF-8" standalone="no"?>
<!-- Created with Inkscape (http://www.inkscape.org/) -->

<svg
   version="1.1"
   id="svg891"
   width="512"
   height="512"
   viewBox="0 0 512 511.99999"
   sodipodi:docname="sipvicious-simple.svg"
   inkscape:version="1.1.2 (0a00cf5339, 2022-02-04)"
   xmlns:inkscape="http://www.inkscape.org/namespaces/inkscape"
   xmlns:sodipodi="http://sodipodi.sourceforge.net/DTD/sodipodi-0.dtd"
   xmlns="http://www.w3.org/2000/svg"
   xmlns:svg="http://www.w3.org/2000/svg">
  <defs
     id="defs895" />
  <sodipodi:namedview
     id="namedview893"
     pagecolor="#505050"
     bordercolor="#eeeeee"
     borderopacity="1"
     inkscape:pageshadow="0"
     inkscape:pageopacity="0"
     inkscape:pagecheckerboard="0"
     showgrid="false"
     inkscape:zoom="0.71038681"
     inkscape:cx="157.66058"
     inkscape:cy="273.7945"
     inkscape:window-width="1366"
     inkscape:window-height="695"
     inkscape:window-x="0"
     inkscape:window-y="24"
     inkscape:window-maximized="1"
     inkscape:current-layer="g897" />
  <g
     inkscape:groupmode="layer"
     inkscape:label="Image"
     id="g897">
    <path
       style="fill:#ffffff;stroke-width:0.996722"
       d="m 257.98472,494.81775 c -7.42186,-0.71591 -9.21969,-1.33006 -13.59045,-4.64265 -8.25133,-6.25361 -12.43587,-19.39488 -10.39234,-32.63648 1.27282,-8.24732 4.83365,-14.71063 10.30895,-18.71179 5.64043,-4.12187 10.66954,-5.23408 21.65519,-4.78919 8.36824,0.33891 9.99522,0.71882 13.98619,3.2659 2.48396,1.58532 5.63938,4.72661 7.01198,6.98064 4.34946,7.14255 4.35321,7.13192 -3.15737,8.96066 -8.63212,2.10178 -8.79298,2.0907 -10.05006,-0.69257 -2.34395,-5.18962 -11.26685,-7.38365 -16.3539,-4.02119 -7.28022,4.81215 -8.59626,22.60665 -2.21424,29.93929 2.58474,2.96979 3.62083,3.44881 7.4595,3.44881 6.01301,0 10.00311,-2.53422 11.40105,-7.2411 0.61598,-2.07401 1.53814,-3.77098 2.04927,-3.77098 2.91016,0 14.63442,4.39717 14.63442,5.48862 0,0.70906 -0.55981,2.57976 -1.24402,4.15715 -5.07786,11.70642 -14.37691,15.91697 -31.50417,14.26488 z m 83.53541,-0.0535 c -15.39952,-1.78298 -23.82851,-12.4752 -23.93705,-30.3643 -0.048,-7.92009 0.28965,-9.7364 2.79116,-15.01647 3.02307,-6.38064 5.17328,-8.72834 11.54196,-12.60202 3.60909,-2.19525 5.05057,-2.41443 15.87789,-2.41443 10.71154,0 12.39143,0.24902 16.71413,2.47625 9.55825,4.92511 14.54548,14.37347 14.54548,27.55667 0,22.15512 -13.57609,33.138 -37.53357,30.36427 z m 15.20413,-16.14754 c 2.81272,-2.83742 3.37366,-4.24399 3.98346,-9.98835 1.07403,-10.11746 -0.87173,-16.56856 -5.95288,-19.73653 -4.26616,-2.65982 -9.33675,-2.55621 -13.51248,0.27624 -3.99246,2.708 -5.72145,7.10604 -5.79134,14.73152 -0.11134,12.15776 4.1223,18.01974 13.01463,18.01974 4.31603,0 5.42422,-0.44318 8.25861,-3.3025 z m 47.86162,16.25588 c -9.22718,-0.84061 -14.23437,-3.68197 -17.93606,-10.17797 -3.66165,-6.42576 -4.61901,-13.12845 -4.61901,-32.33803 0,-20.20207 -0.86045,-18.8255 11.43299,-18.29079 l 6.92583,0.30126 0.49618,21.36217 0.49618,21.36218 2.78434,2.41387 c 3.85136,3.33891 10.42741,3.33888 14.27866,-4e-5 l 2.78437,-2.41394 0.49619,-21.3621 0.49618,-21.36214 8.68323,-0.28937 8.68323,-0.28938 v 21.86655 c 0,21.48339 -0.0447,21.95712 -2.55353,27.03585 -1.5123,3.06148 -4.20026,6.39097 -6.59211,8.16542 -3.72055,2.76021 -5.60658,3.29445 -15.66358,4.43692 -1.36451,0.15486 -5.95139,-0.0344 -10.19309,-0.42074 z m 58.01998,-0.0535 c -9.33484,-0.88994 -14.02605,-3.9547 -17.54743,-11.46381 -3.73605,-7.96685 -3.66562,-8.08201 5.43213,-8.88261 8.46451,-0.74485 9.9192,-0.41655 9.96891,2.2499 0.0747,4.0083 4.79316,7.19886 10.64627,7.19886 7.80554,0 10.83893,-8.05333 4.31523,-11.45652 -1.56246,-0.81509 -6.35656,-2.42832 -10.65357,-3.58496 -14.27092,-3.8414 -19.57401,-8.71665 -19.57401,-17.99475 0,-5.90741 2.43406,-10.38817 7.46915,-13.74951 3.65549,-2.44036 5.17948,-2.76969 14.41344,-3.1145 16.38072,-0.61171 23.13013,2.55151 26.45633,12.39924 l 1.50804,4.46477 h -4.26692 c -2.34683,0 -6.31586,0.28343 -8.82008,0.62956 -4.32014,0.59738 -4.58713,0.4931 -5.21663,-2.03713 -0.71924,-2.89089 -4.87779,-5.60011 -8.59596,-5.60011 -5.07016,0 -8.61704,5.17467 -5.39553,7.87178 0.72868,0.61011 5.75059,2.26927 11.1598,3.68707 16.97257,4.44862 22.24816,8.9907 22.24816,19.15481 0,7.00407 -1.8312,11.23337 -6.57521,15.1861 -5.79141,4.82542 -13.71181,6.30595 -26.97212,5.04178 z m -429.88879,-0.5155 c -3.49658,-0.69022 -10.3268,-3.94989 -11.61034,-5.54095 -2.27615,-2.82146 -5.25992,-8.99238 -5.25992,-10.87829 0,-1.7395 0.6918,-1.97175 5.87305,-1.97175 3.23019,0 6.55704,-0.26467 7.39305,-0.58844 1.05923,-0.41001 1.94529,0.43839 2.9229,2.7987 1.86568,4.50453 5.57113,6.79961 10.97801,6.79961 3.70879,0 4.82202,-0.49113 6.9815,-3.0801 1.41301,-1.69404 2.56912,-3.6555 2.56912,-4.35874 0,-2.44077 -4.75177,-6.43199 -9.06268,-7.61218 -16.79447,-4.59773 -21.36355,-6.88218 -23.98852,-11.99368 -2.25386,-4.38893 -1.77175,-12.04927 0.99609,-15.82679 1.07938,-1.47314 3.93278,-3.78014 6.34086,-5.12665 3.79919,-2.12438 5.69098,-2.45544 14.30201,-2.50273 12.24738,-0.0673 17.87095,2.12466 21.87767,8.52752 3.97648,6.35463 3.23909,7.38438 -5.53069,7.72369 l -7.44835,0.28813 -1.13427,-3.03152 c -1.34187,-3.58626 -5.34481,-5.44446 -10.08573,-4.68188 -4.42596,0.71195 -6.11376,2.2944 -6.11376,5.73226 0,3.2648 2.89322,5.20426 9.4275,6.3198 6.40527,1.09351 17.64028,5.52161 20.60126,8.11968 3.38937,2.97394 4.70414,6.32583 4.70414,11.99273 0,12.04355 -7.75992,18.36995 -23.32066,19.01249 -4.91223,0.20272 -10.04773,0.14829 -11.41224,-0.12106 z m 135.62149,-0.1048 c -0.66303,-1.08221 -3.92436,-9.53486 -8.60045,-22.29046 -2.11939,-5.78134 -5.91899,-15.91744 -8.44351,-22.52468 -2.52456,-6.60725 -4.67136,-12.68891 -4.7707,-13.51482 -0.14234,-1.18426 1.2832,-1.56531 6.7452,-1.80288 3.8092,-0.1658 7.87723,-0.0603 9.04007,0.23401 2.28881,0.57951 2.54744,1.24571 10.8112,27.84761 2.52292,8.1214 4.89849,14.76393 5.27907,14.76117 0.3806,-0.003 1.76614,-3.71932 3.07898,-8.25904 6.00178,-20.75378 10.17214,-33.2083 11.39046,-34.01697 1.50816,-1.00103 33.5393,-0.93847 35.11198,0.0686 0.97622,0.62509 1.19711,7.36301 0.99238,30.26786 l -0.2633,29.46379 h -8.93131 -8.93132 l -0.49618,-29.03181 c -0.31405,-18.37639 -0.82311,-28.29695 -1.38696,-27.02963 -1.99718,4.48901 -4.01478,9.76824 -9.56488,25.02743 -3.2043,8.80965 -7.09004,19.39625 -8.63506,23.52578 l -2.80909,7.50823 -9.56154,0.28562 c -5.25887,0.15705 -9.7836,-0.077 -10.05495,-0.51979 z m 126.59735,-29.54841 0.26266,-30.28319 h 8.43514 8.43513 l 0.26266,30.28319 0.26266,30.28318 h -8.96039 -8.96044 z M 73.40418,464.4001 v -29.53236 h 7.93895 7.93894 v 29.53236 29.53236 h -7.93894 -7.93895 z m 24.809212,0 v -29.53236 h 17.804088 c 10.79892,0 18.04538,0.3939 18.41736,1.00109 0.33735,0.55061 1.44585,1.0011 2.46337,1.0011 3.25575,0 7.60424,4.66555 8.98485,9.63994 1.02251,3.68417 1.05668,5.86362 0.1597,10.17759 -2.18569,10.51209 -5.89513,13.22757 -18.98804,13.90007 -14.12658,0.72565 -12.96343,-0.38266 -12.96343,12.35195 v 10.99298 h -7.93895 -7.938948 z m 30.896028,-6.42372 c 2.50455,-3.12021 2.34354,-7.28198 -0.38069,-9.83882 -2.54528,-2.38889 -8.47573,-3.77971 -12.14998,-2.8494 -2.38196,0.60309 -2.48746,0.95232 -2.48746,8.23558 v 7.60578 l 6.583,-0.42287 c 5.37954,-0.34556 6.92159,-0.84468 8.43513,-2.73027 z m 102.895,-45.3258 c -1.62788,-1.75799 -8.13605,-10.20475 -14.46259,-18.77057 -12.25007,-16.58605 -23.58435,-30.09016 -25.25525,-30.09016 -1.55997,0 -0.49287,4.34683 4.48517,18.27002 2.50997,7.02019 4.136,12.76398 3.6134,12.76398 -1.27253,0 -4.91964,-3.7374 -4.91964,-5.04146 0,-0.57041 -2.76325,-6.73669 -6.14056,-13.70286 -6.94596,-14.32682 -11.85419,-20.29845 -16.68392,-20.29845 -1.73754,0 -2.9771,0.52682 -2.9771,1.26525 0,0.69592 2.58502,4.18725 5.7445,7.7585 5.70517,6.44882 11.31319,14.48688 14.51085,20.79861 l 1.66845,3.2933 -5.25576,-3.68457 c -13.10066,-9.18419 -30.5612,-25.73176 -30.5612,-28.96321 0,-2.70769 4.27552,-7.15941 8.6447,-9.00102 2.26053,-0.95283 3.26372,-2.03971 3.26372,-3.53603 0,-2.77504 0.47653,-2.98562 -19.52838,8.62901 -9.18119,5.33051 -18.25605,10.58901 -20.16636,11.68556 -1.91031,1.09652 -5.35783,3.10353 -7.66118,4.45995 -2.35972,1.38965 -4.71673,2.13653 -5.39935,1.71094 -0.80389,-0.50118 5.76845,-7.58453 19.53409,-21.05301 11.41007,-11.1637 20.53828,-20.48285 20.28488,-20.70919 -0.46691,-0.41709 -18.01515,1.45381 -49.58292,5.28632 -9.551546,1.15959 -24.95807,2.96219 -34.23671,4.00577 -9.27865,1.04357 -18.71207,2.20244 -20.9632,2.57525 -2.72203,0.45078 -4.33414,0.28407 -4.81311,-0.49773 -0.98889,-1.61411 -0.71751,-1.79218 7.56169,-4.96096 4.01423,-1.53644 13.99705,-5.35028 22.18409,-8.4752 8.18704,-3.12496 15.77866,-6.09809 16.87027,-6.60699 3.531092,-1.64617 29.5727,-11.77846 36.46954,-14.18963 6.5296,-2.28279 7.98308,-3.44512 5.45803,-4.36475 -0.68226,-0.2484 -10.39506,-1.37153 -21.58401,-2.49571 -11.18896,-1.12416 -29.27488,-2.95482 -40.19093,-4.06817 -10.91606,-1.11331 -25.20616,-2.56644 -31.7558,-3.22917 -9.3032,-0.94134 -11.90842,-1.52849 -11.90842,-2.68385 0,-1.04257 2.0493,-1.85365 6.94658,-2.74935 38.07994,-6.96451 53.76383,-9.79952 89.69344,-16.21295 11.69964,-2.08839 13.02325,-2.54495 11.46201,-3.95369 -0.71002,-0.64079 -61.80159,-28.36279 -95.69742,-43.42547 -17.0768,-7.58861 -21.83211,-9.97027 -21.83211,-10.93446 0,-1.43183 1.59812,-1.63455 5.9628,-0.75635 2.4514,0.49324 10.03914,1.84331 16.86168,3.00017 6.82253,1.15686 17.09354,2.93412 22.82447,3.94947 5.73093,1.01534 17.11836,2.98131 25.3054,4.36881 8.187039,1.3875 20.24432,3.48252 26.79396,4.65561 19.61915,3.5139 28.68611,4.89936 29.13041,4.45115 0.44,-0.44386 -3.92698,-4.51223 -17.26207,-16.0816 -7.90598,-6.85914 -26.486,-23.32275 -53.56879,-47.46695 -7.72023,-6.88255 -20.36331,-18.10998 -28.09572,-24.94987 -7.73244,-6.83988 -14.05898,-12.80892 -14.05898,-13.26453 0,-0.45561 0.60144,-0.82839 1.3365,-0.82839 0.73507,0 20.27232,10.85823 43.41613,24.12939 23.1438,13.27118 43.86588,25.13721 46.04909,26.36897 2.18321,1.23176 12.19614,7.02048 22.25092,12.86385 10.0548,5.84335 18.6075,10.42098 19.00603,10.17251 0.39856,-0.2485 -2.06026,-5.74573 -5.46404,-12.21611 -3.40377,-6.47036 -9.11203,-17.39547 -12.68499,-24.27802 -8.90449,-17.15245 -15.3742,-29.5556 -33.68121,-64.57076 C 104.30932,84.48368 96.491539,69.49231 95.572606,67.68763 94.436592,65.45656 94.2259,64.07948 94.914387,63.38495 c 0.688486,-0.69453 3.558602,2.11786 8.967693,8.78727 4.37532,5.39479 19.29152,23.57401 33.14713,40.39827 13.85557,16.82425 26.75494,32.53456 28.66524,34.91181 1.91031,2.37724 7.49239,9.11378 12.40461,14.97009 4.91223,5.85631 9.94235,11.95109 11.17804,13.54395 1.23571,1.59287 2.45664,2.68438 2.71316,2.4256 0.25647,-0.25879 -1.09945,-8.09859 -3.01335,-17.42176 -1.91388,-9.32317 -4.12872,-20.55518 -4.92187,-24.96 -0.79313,-4.40483 -2.10122,-10.93698 -2.90686,-14.51591 -1.41782,-6.29837 -2.89295,-13.6511 -6.5274,-32.53565 -1.82656,-9.49064 -10.74211,-53.46117 -11.62088,-57.31281 -0.81003,-3.55039 2.2229,-2.78518 3.96788,1.0011 0.82469,1.78946 3.60987,8.20899 6.18925,14.26563 2.57941,6.05664 5.48182,12.81404 6.44978,15.01646 0.96799,2.20241 2.96519,6.93259 4.43825,10.51152 1.47301,3.57892 3.27149,7.85861 3.99657,9.51042 0.72511,1.65181 2.74092,6.38199 4.47958,10.51152 3.34153,7.93643 5.08108,11.9953 7.93752,18.52029 0.96415,2.20242 2.88498,6.70736 4.26852,10.01097 3.18318,7.60067 12.31077,29.07026 14.04506,33.03621 0.72232,1.6518 2.00293,4.69264 2.8458,6.7574 1.33631,3.27363 3.61138,5.15995 3.62223,3.0033 0.002,-0.41296 0.69271,-4.80528 1.53474,-9.7607 3.89014,-22.89411 6.64744,-38.92755 8.43587,-49.05376 1.06968,-6.05664 2.82543,-16.19274 3.90162,-22.52468 1.0762,-6.33194 3.0854,-17.81953 4.46489,-25.52798 1.37948,-7.70845 3.20712,-18.52029 4.06136,-24.02633 1.8903,-12.18392 3.22017,-16.74518 4.73372,-16.23632 0.84984,0.28572 1.21243,19.07144 1.40116,72.59744 0.22421,63.56602 0.43206,72.14328 1.73665,71.63826 0.8151,-0.31554 1.482,-0.91419 1.482,-1.33032 0,-0.41614 2.28831,-4.98549 5.08511,-10.15414 2.79682,-5.16864 7.89012,-14.57821 11.31847,-20.91015 8.65534,-15.98586 11.81585,-21.92652 18.1083,-34.0373 3.00387,-5.78133 5.79627,-10.96201 6.20538,-11.51261 0.699,-0.94073 10.57718,-19.42206 20.6007,-38.54224 2.4535,-4.68013 4.89857,-9.07244 5.43352,-9.7607 1.23903,-1.59415 2.71434,-1.61405 2.71434,-0.0366 0,1.26579 -5.76163,20.08388 -11.42873,37.32749 -1.80959,5.50603 -6.49949,20.14708 -10.422,32.53566 -3.92256,12.38858 -8.8171,27.70536 -10.87676,34.0373 -2.05967,6.33194 -4.95009,15.22453 -6.42317,19.76129 -1.47305,4.53679 -2.53302,8.90493 -2.35548,9.707 0.33666,1.52068 5.9405,-3.53359 40.99712,-36.97651 10.38908,-9.91087 24.68712,-23.42568 31.77343,-30.03292 7.08633,-6.60725 16.71174,-15.72974 21.3898,-20.27222 8.02457,-7.79198 10.85738,-9.66653 10.85738,-7.18463 0,0.59093 -4.38844,7.01047 -9.75207,14.26563 -12.79808,17.31148 -39.6379,53.75784 -52.10487,70.7543 -5.45222,7.43315 -10.35145,14.08881 -10.88715,14.79038 -1.96767,2.57687 0.33741,2.39583 4.97009,-0.39036 7.30852,-4.39546 7.42062,-4.46209 19.35262,-11.50318 6.16415,-3.63748 16.11979,-9.55095 22.12361,-13.14106 59.79784,-35.75732 63.0154,-37.54176 63.0154,-34.94799 0,0.47204 -8.33245,8.24306 -18.51657,17.26892 -10.18412,9.02588 -25.06223,22.26709 -33.06246,29.42493 -8.00023,7.15785 -17.6241,15.71723 -21.38642,19.02085 -3.76228,3.30362 -11.37061,10.06103 -16.90738,15.01646 -5.53679,4.95543 -15.25404,13.63284 -21.59387,19.28315 l -11.52701,10.27327 5.35258,8.37019 c 9.07115,14.1851 10.54631,17.65816 11.18434,26.33192 0.55141,7.49612 0.75603,8.02423 4.93408,12.73349 14.75717,16.63328 17.34822,33.62922 5.12683,33.62922 -6.51704,0 -7.80281,1.23923 -7.80281,7.52035 0,4.70623 -0.33769,5.67097 -2.48092,7.08762 -1.36451,0.90189 -2.48092,2.39893 -2.48092,3.32667 0,2.76575 -2.12885,4.08948 -6.57665,4.08948 -3.63714,0 -4.60092,0.49689 -7.24849,3.7371 -1.67946,2.05541 -4.46387,6.44772 -6.18758,9.76069 -2.72392,5.23543 -3.1921,7.27979 -3.57811,15.62416 -0.44312,9.5795 -0.43735,9.60834 2.63747,13.14118 1.69488,1.94732 4.46581,4.11902 6.15768,4.82594 3.05758,1.27762 3.07191,1.31905 2.3832,6.87973 -0.38107,3.0769 -1.31669,6.81131 -2.07913,8.29872 -0.76248,1.48738 -1.38628,4.46205 -1.38628,6.61041 0,2.41401 -0.86839,5.20539 -2.27333,7.30766 l -2.27333,3.4016 -20.30305,0.0497 c -11.16669,0.0281 -21.41951,0.41305 -22.78401,0.85713 -3.77364,1.22816 -14.89049,6.8007 -15.4771,7.75822 -1.04364,1.70352 -3.64661,0.76693 -6.53373,-2.35095 z m 64.43462,-14.1119 c 3.04985,-2.81606 2.80297,-5.1956 -0.87809,-8.4623 -3.50223,-3.10804 -5.8204,-7.86396 -5.8204,-11.941 0,-2.55048 0.25399,-2.38455 3.72138,2.43011 4.15461,5.76919 5.79599,6.83492 7.86231,5.10493 1.1818,-0.98943 0.86715,-1.75758 -1.95483,-4.77248 -6.61374,-7.0659 -7.9249,-9.82817 -8.4294,-17.75868 -0.25926,-4.07252 -0.82227,-7.62354 -1.25146,-7.89115 -1.24552,-0.77656 -2.75433,5.29202 -3.83632,15.43004 -0.55123,5.16507 -1.28942,9.67 -1.64047,10.01097 -1.06559,1.035 0.32227,-20.86343 1.86406,-29.41298 2.93645,-16.28266 8.2857,-30.49636 15.96957,-42.43315 1.90919,-2.96594 4.26628,-7.62295 5.238,-10.34891 0.97168,-2.72598 3.25834,-6.71428 5.08144,-8.86292 l 3.31473,-3.90656 -2.57656,-1.1843 c -1.9709,-0.90591 -2.85018,-0.90829 -3.74051,-0.01 -0.64015,0.6458 -2.38419,1.17416 -3.87565,1.17416 -1.82423,0 -2.91435,0.64393 -3.33077,1.96744 -0.71937,2.28654 -4.8889,3.32715 -11.44551,2.85647 l -4.4433,-0.31897 5.00653,-1.76421 c 5.94738,-2.09577 9.63642,-4.52011 8.84464,-5.8125 -0.31424,-0.51294 -2.9313,-0.93262 -5.81572,-0.93262 -4.51576,0 -6.10936,0.58596 -11.47044,4.2175 -3.71838,2.51876 -6.84449,5.52565 -7.76141,7.46533 -0.84441,1.78634 -1.88159,3.03195 -2.30483,2.76807 -1.51551,-0.94485 1.31237,-6.37051 4.66481,-8.95 1.87855,-1.44545 3.15756,-3.04924 2.84224,-3.56396 -1.25269,-2.04465 -4.61558,-0.7186 -9.05146,3.5691 -2.56335,2.47771 -4.80403,4.50493 -4.97927,4.50493 -1.24524,0 0.12188,-3.53869 2.16227,-5.59703 4.47202,-4.51136 2.73631,-7.14821 -2.32775,-3.53622 -1.44874,1.03335 -6.20661,3.3004 -10.57307,5.03789 -6.73731,2.68094 -8.85183,4.13994 -13.97025,9.63944 -3.31724,3.56421 -5.77336,6.74279 -5.45803,7.06355 1.69583,1.72511 7.91699,3.40993 12.59118,3.40993 h 5.32511 l 0.63049,3.97745 c 0.52707,3.32513 1.51169,4.64864 6.00358,8.06989 6.88924,5.24716 10.75191,10.67524 12.27752,17.25322 1.90597,8.21769 2.57616,8.86197 4.40668,4.23618 2.5884,-6.54108 5.53611,-12.42812 6.53462,-13.05068 1.24871,-0.77851 1.18356,0.14266 -0.46567,6.5835 -4.58136,17.89182 -5.38019,35.09088 -2.4446,52.63355 2.1361,12.76512 8.65282,17.43354 15.50461,11.1071 z m -23.3919,-10.23274 c 1.58435,-8.9969 -2.68795,-41.37936 -6.22435,-47.17849 -2.60788,-4.27647 -4.1499,-5.43398 -5.83748,-4.38183 -1.184,0.73819 -1.21811,2.68722 -0.22235,12.7067 2.09331,21.0633 3.20203,27.7113 5.94242,35.63074 3.04173,8.79023 5.17083,9.87225 6.34176,3.22288 z m -12.08528,-2.35941 c 0,-2.80607 -4.87207,-19.18925 -7.18443,-24.15887 -1.93943,-4.16817 -10.61569,-15.77914 -12.26922,-16.41922 -3.02781,-1.1721 -3.37085,-0.51794 -3.37085,6.42814 0,7.49872 2.81925,16.37047 6.91504,21.7606 3.03937,3.99985 14.19651,15.26009 15.1204,15.26009 0.43397,0 0.78906,-1.29181 0.78906,-2.87074 z m -34.83155,-8.79517 c -9.33567,-12.78895 -14.10136,-16.39543 -26.93002,-20.37942 -4.56648,-1.41815 -3.8854,0.44335 1.4518,3.96816 2.78611,1.83999 8.45263,6.55903 12.59222,10.48678 12.07158,11.45367 15.10764,13.84698 16.18591,12.75922 0.63558,-0.64117 -0.5085,-3.01073 -3.29991,-6.83474 z m 77.00721,0.57041 c 0,-0.78001 -1.00477,-1.56218 -2.23283,-1.73812 -2.45812,-0.35217 -2.89144,0.75674 -1.02958,2.63494 1.48474,1.49784 3.26241,1.00918 3.26241,-0.89682 z m -77.58829,-32.54019 c 1.41241,-1.42485 3.09547,-4.20283 3.7401,-6.1733 1.02701,-3.13922 0.94809,-3.74789 -0.63762,-4.9176 -0.99534,-0.73421 -3.17574,-1.37986 -4.84527,-1.43474 -1.66954,-0.0547 -4.15195,-0.44336 -5.51645,-0.86329 -2.59319,-0.79805 -2.54382,-0.83616 3.47328,-2.67852 1.63741,-0.50133 2.96744,-1.3512 2.95558,-1.88854 -0.0341,-1.55045 -9.64619,-7.48411 -12.1236,-7.48411 -2.67305,0 -2.73131,0.32154 -0.6415,3.53907 0.9144,1.40782 1.14755,2.46751 0.54285,2.46751 -2.55743,0 -6.32288,-2.60569 -8.20506,-5.67794 -1.96182,-3.20216 -4.17437,-4.25422 -5.25106,-2.4968 -0.94265,1.53866 3.60785,9.28124 7.05051,11.99628 3.79518,2.99306 6.24479,7.00242 6.24479,10.2211 0,2.90068 5.23486,7.98147 8.22347,7.98147 1.33207,0 3.57755,-1.16577 4.98998,-2.59059 z m -8.41876,-3.88685 c -1.45895,-3.2302 0.45986,-5.75724 4.05168,-5.33604 1.81092,0.21242 2.66129,0.97986 2.89015,2.60845 0.69962,4.97861 -4.92668,7.18929 -6.94183,2.72759 z m 81.00068,-10.05577 c 3.5999,-5.74529 10.58705,-12.27239 13.879,-12.96521 1.39677,-0.29407 3.65602,-0.76828 5.02052,-1.05409 3.22489,-0.67543 3.12603,-1.54323 -0.45128,-3.96106 -1.60956,-1.08788 -3.47,-3.00246 -4.1343,-4.25465 -2.19357,-4.13479 -4.40397,-2.73885 -9.34389,5.90079 -5.32008,9.3046 -9.36724,17.76122 -9.38151,19.60293 -0.0186,2.41339 1.60497,1.21032 4.41146,-3.26871 z m -67.9868,-7.24281 c -0.0311,-0.96356 -0.8419,-4.90538 -1.80483,-8.7596 -1.89996,-7.60482 -3.6611,-8.90966 -5.83885,-4.32599 -1.07322,2.25887 -1.01194,3.36372 0.38867,7.00768 1.92618,5.01137 4.07674,7.82982 5.97433,7.82982 0.7341,0 1.31043,-0.78836 1.28068,-1.75191 z m -63.87814,-8.2461 c -5.9094,-11.34449 -7.84167,-19.58542 -7.86653,-33.54969 -0.0186,-9.73655 0.41127,-13.43604 2.26173,-19.52139 7.4783,-24.5927 24.81073,-42.23415 49.63657,-50.52155 8.58439,-2.86567 21.82519,-4.99975 23.09195,-3.72185 0.47559,0.47977 -2.78549,2.6407 -7.37163,4.88479 -9.90812,4.84825 -15.08884,9.84472 -19.60176,18.9046 -2.8138,5.64885 -3.45536,8.16676 -3.78967,14.87293 -0.3584,7.1901 -0.14792,8.45599 1.92566,11.57669 1.29901,1.95505 4.4281,4.55474 7.07897,5.88128 4.20017,2.10184 5.32468,2.26298 9.70062,1.39012 2.72235,-0.543 5.10275,-0.71184 5.28982,-0.37522 0.187,0.33662 -0.13459,3.43685 -0.71491,6.88942 -1.48117,8.81282 -0.56212,9.59355 11.46595,9.74036 6.25406,0.0763 10.42728,0.65413 13.03411,1.8046 3.7982,1.67625 3.89474,1.66336 10.17178,-1.35873 3.48544,-1.67809 6.3372,-3.3824 6.3372,-3.78734 0,-0.40494 -2.23283,-2.4179 -4.96184,-4.47321 -4.30573,-3.24278 -6.20972,-5.70031 -4.41638,-5.70031 1.32971,0 6.07714,2.98504 7.79772,4.90299 1.93704,2.15925 4.0622,2.72211 4.92993,1.30574 0.26918,-0.43941 -1.26269,-3.02975 -3.4042,-5.7563 -3.84806,-4.89937 -4.85119,-7.46011 -2.92234,-7.46011 0.54581,0 0.99238,0.35561 0.99238,0.79023 0,1.44847 13.04031,15.22732 14.41114,15.22732 2.02617,0 2.64631,-1.66726 1.18011,-3.17285 -5.9624,-6.12262 -8.84148,-10.04332 -7.99914,-10.89309 0.61217,-0.61756 1.9821,0.11731 3.81383,2.04617 3.00486,3.16397 5.46432,3.92136 5.46432,1.68275 0,-0.72993 -1.11642,-2.38517 -2.48092,-3.67834 -3.27804,-3.10662 -3.13635,-4.3869 0.40641,-3.67212 2.01795,0.40714 3.05438,0.14329 3.44215,-0.87595 0.40101,-1.05419 2.21397,-1.45851 6.54014,-1.45851 3.32865,0 5.98538,-0.44437 5.98538,-1.0011 0,-0.5506 -0.44656,-1.00109 -0.99237,-1.00109 -0.5458,0 -0.99237,-0.4505 -0.99237,-1.0011 0,-2.78261 10.87215,0.77763 17.76342,5.8169 2.40153,1.75612 4.8106,3.19297 5.35342,3.19297 0.61735,0 0.75784,-2.53071 0.37509,-6.75741 -0.49541,-5.47109 -1.07436,-7.16397 -3.04148,-8.89321 -2.51529,-2.2111 -11.92505,-4.3712 -19.0432,-4.37151 -4.45586,-1.8e-4 -17.57213,-2.39337 -21.25462,-3.87812 -2.3441,-0.9451 -2.28046,-1.00376 1.15314,-1.06373 1.99875,-0.035 7.13426,0.61527 11.41223,1.44483 10.62681,2.06064 23.71695,3.01543 24.47084,1.78487 1.32741,-2.16669 -5.08284,-6.10617 -15.2041,-9.34381 -11.41078,-3.65018 -11.51157,-3.69327 -10.65522,-4.55714 0.32541,-0.32828 3.72557,0.12222 7.55596,1.00109 13.02419,2.98834 14.01971,1.76053 5.33209,-6.57622 -32.81168,-31.48626 -95.08432,-25.96059 -125.96627,11.17745 -13.83024,16.63198 -19.69783,39.16294 -16.16398,62.06802 2.0378,13.20812 10.37212,30.95528 13.19819,28.10432 0.62681,-0.63233 -0.33207,-3.46731 -2.72932,-8.06944 z m 106.11136,-63.07527 c -0.84481,-1.64809 -1.99894,-4.23843 -2.56468,-5.75631 -0.88898,-2.38514 -0.35313,-2.09138 3.9469,2.16375 2.73655,2.70796 4.74597,5.29831 4.46538,5.7563 -1.15289,1.88182 -4.3873,0.68501 -5.8476,-2.16374 z m 42.83127,70.50325 c 0.32826,-0.86292 0.18452,-1.98498 -0.31967,-2.49345 -1.13046,-1.14044 -5.58573,1.78708 -4.76312,3.12977 0.92377,1.50787 4.43434,1.06836 5.08279,-0.63632 z m -115.4038,-8.48886 c 5.29879,-2.36453 5.92249,-3.95755 1.54947,-3.95755 -4.08304,0 -6.88137,1.64269 -6.88137,4.03961 0,2.40616 -0.25275,2.41007 5.3319,-0.082 z m 14.44083,-4.95864 c 0.56041,0 2.48107,-1.66759 4.26814,-3.70572 1.7871,-2.03817 4.25404,-4.76162 5.48209,-6.0521 5.60499,-5.88996 -0.71903,-19.67557 -10.41987,-22.71396 -3.4998,-1.09617 -2.68569,0.98883 2.1953,5.62244 5.02502,4.7703 6.07957,7.92942 4.55436,13.64342 -1.07737,4.03628 -7.66725,11.20372 -10.30091,11.20372 -0.72198,0 -2.36153,-1.12624 -3.64341,-2.50274 -2.93674,-3.15355 -3.96948,-3.16268 -3.96948,-0.0354 0,1.48453 0.83278,2.9171 2.09048,3.59612 1.61645,0.87271 1.96495,1.76193 1.53681,3.92142 -0.84848,4.27963 0.43146,4.46214 3.9696,0.56611 1.76989,-1.94893 3.67648,-3.54351 4.23689,-3.54351 z m -14.98995,-3.24334 c -0.47057,-3.32739 -3.79041,-3.61984 -3.79041,-0.3339 0,1.9376 0.50905,2.57614 2.05377,2.57614 1.55985,0 1.97748,-0.53922 1.73664,-2.24224 z m -0.9371,-4.76544 c 2.53404,0 3.7794,-1.95079 1.98759,-3.11344 -1.54106,-0.99994 -6.67284,-0.18615 -8.5745,1.35968 -1.98244,1.61151 0.44244,3.99597 2.78021,2.73384 0.99842,-0.53906 2.71143,-0.98008 3.8067,-0.98008 z m 122.18514,-1.15032 c 0.8187,-0.0125 4.04409,0.30502 7.1675,0.7023 5.53224,0.7038 5.70529,0.65259 6.6985,-1.98268 1.57526,-4.1797 1.23735,-6.86377 -1.53426,-12.18638 -4.95866,-9.52257 -10.91166,-17.54213 -14.46667,-19.48873 -1.81398,-0.99328 -7.78875,0.6703 -7.78875,2.16865 0,0.49674 1.31333,0.90315 2.91852,0.90315 1.60518,0 3.19453,0.4505 3.53187,1.0011 0.33731,0.55061 -0.12001,1.00109 -1.01653,1.00109 -2.20519,0 -1.31123,2.3161 1.14861,2.97568 2.68855,0.72091 7.76872,4.90471 6.9538,5.7268 -0.36289,0.36609 -3.00746,-0.31594 -5.87677,-1.51566 -6.37807,-2.6668 -7.6595,-2.71854 -7.6595,-0.30909 0,1.35432 1.1913,2.20857 4.30746,3.08872 2.3691,0.66915 5.6067,2.28823 7.19468,3.59795 l 2.8872,2.3813 -3.64022,0.036 c -5.18097,0.0514 -6.82744,0.92189 -8.26473,4.37026 -0.91558,2.19662 -0.98647,3.83768 -0.25708,5.94861 0.86627,2.50678 1.37158,2.8231 3.60754,2.2582 1.43012,-0.3613 3.27007,-0.66602 4.08877,-0.67712 z m -108.3056,-2.37617 c 1.12755,-1.06254 1.00437,-1.38423 -0.74428,-1.94413 -2.22374,-0.71197 -2.7813,-3.89828 -1.14023,-6.51614 0.60994,-0.97291 0.52029,-1.73462 -0.26329,-2.23711 -2.11238,-1.35471 -3.66899,-0.84151 -3.66899,1.2096 0,1.10121 -0.92223,2.93253 -2.04937,4.06963 -1.52633,1.53971 -1.89018,2.79859 -1.42567,4.93224 0.57886,2.6587 0.88696,2.82503 4.28223,2.31197 2.01216,-0.30408 4.26647,-1.12579 5.0096,-1.82606 z m -13.2061,-3.56841 c 1.13834,-1.85807 -1.24266,-3.41183 -2.98848,-1.95017 -0.84184,0.7048 -1.53064,1.67678 -1.53064,2.15996 0,1.25966 3.72479,1.08672 4.51912,-0.20992 z m 4.17279,-6.58994 c -1.89942,-1.9161 -9.1881,-2.24996 -9.1881,-0.42087 0,1.87622 7.48175,4.11608 9.22925,2.76303 1.05606,-0.8177 1.04859,-1.2428 -0.0413,-2.34216 z m 1.75484,-3.37767 c 0.62746,-1.02415 -1.15384,-3.97542 -2.38121,-3.9452 -0.34253,0.01 -1.29262,0.46748 -2.11133,1.02012 -1.2884,0.8697 -1.22954,1.20413 0.43779,2.48741 2.27842,1.75361 3.18836,1.85185 4.05475,0.43767 z m 6.42352,-1.55352 c 0,-2.56881 -3.93493,-7.4125 -6.02176,-7.4125 -2.62426,0 -2.40662,1.49035 0.81182,5.5595 2.90082,3.66749 5.20994,4.4888 5.20994,1.853 z m 93.13393,-8.9855 c 1.34178,-1.14301 -1.76555,-2.43138 -5.86405,-2.43138 -4.87474,0 -6.44293,-1.19197 -3.21311,-2.44227 0.92957,-0.35984 4.05553,-0.35614 6.94658,0.01 4.40621,0.55539 5.25642,0.4067 5.25642,-0.91922 0,-2.39529 -3.25674,-3.66542 -9.11419,-3.55465 -8.13612,0.15392 -10.27123,1.0516 -10.05018,4.22538 0.20901,2.99901 0.002,3.12258 -2.74771,1.63827 -2.41627,-1.30453 -3.77656,1.27182 -1.88529,3.57069 1.01213,1.23026 2.9496,1.38311 10.77899,0.8504 5.24981,-0.35721 9.70142,-0.78264 9.89254,-0.94544 z m 99.52088,123.95708 c -0.5098,-0.96356 -1.25631,-4.41904 -1.65896,-7.67886 -0.61306,-4.96375 -1.35514,-6.60886 -4.56605,-10.12294 -2.10868,-2.30777 -3.83398,-4.74626 -3.83398,-5.4188 0,-2.95628 -2.80238,0.29532 -8.38316,9.72722 -5.93191,10.0253 -6.06111,10.15938 -10.44721,10.84334 -2.44254,0.38086 -10.70401,0.71336 -18.35883,0.73882 -10.49767,0.035 -14.77131,-0.33512 -17.39106,-1.5059 -4.69109,-2.09645 -13.89317,-11.12482 -13.89317,-13.63085 0,-3.30446 17.31975,-26.81285 24.73004,-33.56647 5.71924,-5.21239 13.4769,-6.85109 20.02762,-4.23057 1.34512,0.53809 1.67549,-0.50884 2.14758,-6.80586 0.30701,-4.09302 1.30412,-8.89753 2.21616,-10.67677 1.19221,-2.32577 1.35565,-3.54025 0.58148,-4.32124 -1.55917,-1.57288 -1.32144,-7.98569 0.38017,-10.25519 0.83564,-1.1145 1.47044,-4.16982 1.48855,-7.16417 0.0279,-4.36681 0.52639,-5.7895 3.05634,-8.69627 1.66364,-1.91147 3.96556,-3.6165 5.11541,-3.78897 1.42067,-0.21305 2.52198,-1.57551 3.43676,-4.25159 0.74039,-2.16591 1.98802,-4.65351 2.77255,-5.528 1.26772,-1.41314 0.75966,-2.14441 -4.56684,-6.57351 -3.29631,-2.74095 -6.39223,-5.7289 -6.87982,-6.6399 -0.54605,-1.02019 -0.30081,-6.01873 0.6385,-13.01427 2.57433,-19.17279 4.19316,-25.80042 7.20106,-29.48162 4.39377,-5.37728 13.99528,-12.40973 16.94324,-12.40973 4.46317,0 16.14177,6.3409 20.4671,11.11263 8.2974,9.15374 9.40464,11.16736 9.40464,17.10367 0,3.02644 -0.42631,9.06559 -0.94734,13.42034 -0.52102,4.35471 -1.44737,12.42261 -2.05858,17.92865 -0.61117,5.50602 -1.32075,10.91195 -1.57677,12.01316 -0.37186,1.59915 0.70412,2.6499 5.34521,5.22 6.79338,3.76196 8.62017,6.54642 7.83828,11.94741 -0.30701,2.1206 -1.43344,10.61302 -2.50322,18.87207 -1.06977,8.25905 -2.47165,17.09955 -3.1153,19.64556 -1.42231,5.62626 -0.98703,14.44258 1.51129,30.61111 1.62556,10.52021 1.64587,14.85565 0.062,13.22953 -0.36845,-0.37823 -4.17949,-24.25652 -5.28068,-33.08636 -0.24964,-2.00059 0.46294,-7.40649 1.58323,-12.01313 1.12026,-4.60667 2.50822,-12.80722 3.08428,-18.22347 1.77492,-16.68768 -0.83234,-20.88162 -13.65589,-21.96615 -3.67197,-0.31065 -8.68232,-1.27853 -11.13412,-2.15111 -5.88407,-2.09404 -22.40052,-4.06552 -26.91006,-3.21209 -4.15998,0.78731 -6.55639,3.11467 -6.84067,6.64364 -0.38879,4.82659 -0.21925,4.99998 4.28371,4.37738 2.34608,-0.32441 7.59323,0.0125 11.66032,0.7471 4.06708,0.7353 11.33465,1.40138 16.15016,1.48022 7.0286,0.11512 10.09487,0.68725 15.54657,2.90124 7.24738,2.94321 7.91144,3.84405 7.9364,10.76626 0.0186,4.96437 -1.5499,4.81158 -2.34888,-0.22901 -0.79745,-5.03089 -4.56051,-7.22869 -13.01928,-7.60383 -3.27482,-0.14515 -10.35738,-1.20156 -15.73903,-2.34737 -12.72951,-2.71025 -20.90988,-2.72843 -25.25481,-0.056 -2.90131,1.78442 -3.24812,2.45456 -2.97711,5.75255 l 0.30671,3.7328 4.96184,0.14766 c 29.74972,0.88575 37.75605,1.64174 42.42375,4.00576 l 4.71375,2.38737 0.19538,7.74164 c 0.1073,4.25792 0.0806,10.66985 -0.0595,14.24874 -0.21553,5.50763 3.50179,31.25438 5.36983,37.19185 0.63995,2.03414 -3.70246,5.10335 -14.83523,10.4855 -7.89699,3.81783 -7.70705,3.9196 -8.84336,-4.73832 -0.51114,-3.89449 -0.2267,-5.13088 1.82555,-7.93708 1.33703,-1.82822 2.29947,-3.45669 2.13874,-3.61884 -0.62224,-0.62771 -8.19181,1.89924 -9.50292,3.17235 -1.15106,1.11767 -1.18099,2.38061 -0.17831,7.52159 0.66268,3.3981 1.44461,6.80849 1.73757,7.57865 0.77181,2.02904 -1.42399,1.72279 -2.52151,-0.35167 z m -2.94246,-24.93233 c 1.27377,-1.16286 1.81479,-3.07687 1.81479,-6.42016 v -4.76337 l 2.96324,1.12836 c 2.19382,0.83535 3.25293,0.83607 4.07891,0.003 0.82597,-0.83326 0.37863,-1.5187 -1.72278,-2.63977 -2.42535,-1.29386 -2.58571,-1.61396 -1.1018,-2.19913 0.95515,-0.37666 1.73664,-1.29686 1.73664,-2.04489 0,-0.99178 -1.10438,-1.24922 -4.07863,-0.95074 -2.24325,0.22525 -4.16008,0.54751 -4.25959,0.71635 -1.83306,3.11 -3.42897,18.82729 -1.9117,18.82729 0.36636,0 1.48278,-0.74554 2.48092,-1.65678 z m -50.40743,-3.36981 c 5.29473,-3.6048 12.66858,-11.67182 16.15554,-17.67422 1.38312,-2.38083 3.2538,-4.3431 4.15707,-4.36061 1.40488,-0.0281 1.36382,-0.24433 -0.28407,-1.50165 -3.17967,-2.4261 -5.18645,-1.71128 -7.81822,2.78487 -1.36968,2.34006 -5.86502,8.30909 -9.98958,13.26453 -9.5206,11.43841 -9.89915,12.71472 -2.22083,7.48708 z m 74.55526,-13.74394 c -0.41628,-3.03511 -0.92951,-10.89046 -1.43729,-21.99839 -0.10266,-2.24621 -6.05628,-4.53778 -10.29822,-3.96381 -2.82465,0.3822 -5.84625,-0.17895 -10.50645,-1.95073 -4.18352,-1.59065 -9.58206,-2.68929 -14.97661,-3.04777 -7.67392,-0.51001 -8.60247,-0.37288 -10.28915,1.5195 -2.14011,2.4011 -3.51268,11.17121 -1.74834,11.17121 0.61679,0 1.12144,-0.43463 1.12144,-0.96587 0,-0.53124 0.87737,-1.43958 1.94975,-2.01852 1.44312,-0.77914 4.33188,-0.52817 11.11766,0.96586 5.04239,1.11019 10.91469,2.01853 13.04959,2.01853 8.00525,0 17.20007,7.5372 19.13342,15.68406 0.75621,3.18656 2.21162,6.34004 2.92609,6.34004 0.26019,0 0.24127,-1.68935 -0.0419,-3.75411 z m -17.1231,-5.15816 c 2.79631,-1.07501 3.49137,-2.50739 1.74504,-3.59619 -0.54117,-0.3374 -3.43353,0.1655 -6.42747,1.11754 -4.48737,1.42697 -5.23946,1.97914 -4.28158,3.14345 1.20151,1.46048 3.96997,1.25515 8.96401,-0.6648 z m -3.17592,-5.62932 c 3.56151,-1.85791 4.12841,-5.10578 0.69499,-3.9818 -1.22806,0.40204 -3.90745,0.95239 -5.95421,1.22303 -2.81948,0.37278 -3.72138,0.95183 -3.72138,2.38908 0,2.40104 4.71455,2.59513 8.9806,0.36969 z m 35.67598,-46.43631 c 0,-2.66445 -5.15938,-6.76679 -10.71503,-8.51974 -2.56667,-0.80989 -9.497,-3.29871 -15.40073,-5.53072 -11.39778,-4.30919 -14.57786,-4.78522 -18.52128,-2.77241 -2.74973,1.40354 -5.32747,5.77317 -4.12267,6.98853 0.42997,0.43378 3.98829,0.23401 7.90734,-0.44399 6.36732,-1.10145 7.73204,-1.03226 12.82481,0.65035 3.13458,1.03566 7.35736,2.65569 9.38396,3.60009 2.02658,0.94438 5.89713,2.2525 8.60118,2.90691 2.70407,0.65438 5.69247,2.05481 6.64089,3.112 2.19171,2.44314 3.40153,2.44634 3.40153,0.01 z M 428.6761,278.94679 c 0.002,-0.41295 0.63825,-4.80526 1.41348,-9.76069 0.77519,-4.95544 1.71614,-14.23936 2.09094,-20.63096 l 0.68148,-11.62108 -5.38741,-6.39866 c -2.96306,-3.51927 -6.02085,-6.39867 -6.79508,-6.39867 -2.83607,0 -1.87788,3.14653 2.41526,7.93122 2.42042,2.69758 4.65477,6.18578 4.96519,7.75162 0.54115,2.72958 -0.57257,17.96034 -1.94765,26.63525 -0.76387,4.819 0.27198,13.24279 1.62824,13.24279 0.51236,0 0.93338,-0.33786 0.93555,-0.75082 z m -15.50123,-32.03511 c 1.821,-8.19122 3.58627,-19.21837 3.58747,-22.40955 0.002,-4.03212 -2.53234,-6.4327 -7.94183,-7.52411 -4.03636,-0.81438 -4.06363,2.03333 -0.0397,4.13257 l 2.93331,1.5302 -0.60544,13.51195 c -0.4059,9.05977 -0.26607,13.51197 0.42434,13.51197 0.56636,0 1.30512,-1.23887 1.64174,-2.75303 z"
       id="path999" />
  </g>
</svg>
