<svg width="384pt" height="384pt" version="1.1" viewBox="0 0 384 384" xmlns="http://www.w3.org/2000/svg" xmlns:xlink="http://www.w3.org/1999/xlink"><defs><filter id="d" x="0%" y="0%" width="100%" height="100%"><feColorMatrix in="SourceGraphic" values="0 0 0 0 1 0 0 0 0 1 0 0 0 0 1 0 0 0 1 0"/></filter><mask id="f"><g filter="url(#d)"><rect width="384" height="384" fill-opacity=".30196"/></g></mask></defs><g transform="matrix(1.5514 0 0 1.2808 -474.62 -179.54)"><path d="m356.96 352.07v39.601h-36.099v14.714h154.32v-14.714h-103.51v-39.601z" fill="#4c4f5c" style="paint-order:stroke fill markers"/><path d="m356.96 352.07v4.409h14.715v-4.409zm-36.099 39.601v4.409h36.099v-4.409zm50.812 0v4.409h103.51v-4.409z" fill="#fff" opacity=".1" style="paint-order:stroke fill markers"/><path d="m320.86 401.98v4.409h154.32v-4.409z" opacity=".5" style="paint-order:stroke fill markers"/><path d="m350.85 378.66v6.9088h-17.946v26.919h62.812v-26.919h-17.946v-6.9088z" fill="#4aaee6" style="paint-order:stroke fill markers"/><path d="m332.91 405.87v6.6135h62.811v-6.6135z" opacity=".3" style="paint-order:stroke fill markers"/><path d="m350.85 378.66v4.409h26.919v-4.409zm-17.946 6.9084v4.409h17.946v-4.409zm44.865 0v4.409h17.946v-4.409z" fill="#fff" opacity=".2" style="paint-order:stroke fill markers"/></g><g transform="matrix(1.0009 0 0 1.0009 -.17264 -26.09)"><path d="m41.301 70.707c-5.8672 0-10.594 4.7227-10.594 10.594v214.73c0 4.4883 3.6133 8.1055 8.1055 8.1055h306.38c4.4922 0 8.1055-3.6172 8.1055-8.1055v-186.74c0-8.8398-7.1133-15.953-15.953-15.953h-164.23c-4.3594 0-6.0859-0.51562-8.8789-3.1406l-16.477-16.328c-0.0547-0.05859-0.11328-0.11328-0.16797-0.16797l-0.0352-0.03125c-1.9024-1.8359-4.4922-2.9688-7.3594-2.9688z" fill="#2861bf" fill-rule="evenodd"/><use width="100%" height="100%" mask="url(#f)" xlink:href="#e"/><path d="m35.676 117.92c-8.8359 0-15.949 6.5938-15.949 14.785l10.98 167.99v5.082c0 4.1602 3.6133 7.5117 8.1055 7.5117h306.38c4.4922 0 8.1055-3.3516 8.1055-7.5117l10.98-173.07c0-8.1914-7.1133-14.785-15.949-14.785z" fill="#357af0" fill-rule="evenodd"/></g><g transform="matrix(.90215 0 0 .90215 18.574 28.602)"><path d="m113.4 149.74c-18.618 0-30.369 8.8656-28.964 22.069 2.2884 21.503 36.411 15.492 37.095 25.057 0.20201 2.825-2.7001 4.4072-9.4345 4.4072-6.332 0-14.072-1.0542-21.277-3.611l-3.5075 12.393c7.348 2.75 16.664 4.7172 25.189 4.7172 18.239 0 27.95-7.5693 27.305-19.77-1.2263-23.194-36.109-16.077-36.949-25.621-0.28902-3.2845 3.6207-5.0756 10.713-5.0756 5.8405 0 12.367 0.9428 17.57 2.5435l4.2715-13.14c-6.2653-2.514-14.5-3.9701-22.011-3.9701zm34.634 0.97091 2.6946 63.208h16.667l-0.87808-34.533 15.066 25.297h13.122l15.203-26.951-0.64368 36.186h16.667l2.2117-63.208h-17.438l-21.76 37.852-23.262-37.852zm95.115 0-3.1307 63.208h27.382c17.362 0 29.715-7.8432 31.002-19.805 0.83022-7.7163-3.0773-13.355-10.819-16.106 4.39-2.7662 7.1878-6.9439 7.6729-11.721 1.0328-10.171-7.8258-15.575-25.898-15.575h-26.21zm17.094 13.028h7.0964c6.0525 0 9.797 2.6413 9.4673 6.578-0.19499 2.3288-1.7076 4.3695-4.4138 5.9407h-12.988l0.83796-12.518zm-1.6436 24.554h12.119c6.3139 0 9.7233 2.8746 9.3259 7.3323-0.38607 4.3301-3.5942 6.525-9.4185 6.525h-12.954z" fill="#fff" stroke-width="1.8224"/></g><g transform="matrix(.53333 0 0 .53333 191.6 184.1)"><path d="m360.75 206.06c0 93.199-75.551 168.75-168.75 168.75s-168.75-75.551-168.75-168.75 75.551-168.75 168.75-168.75 168.75 75.551 168.75 168.75z" opacity=".3"/><path d="m360.75 192c0 93.199-75.551 168.75-168.75 168.75s-168.75-75.551-168.75-168.75 75.551-168.75 168.75-168.75 168.75 75.551 168.75 168.75z" fill="#1ea6ae"/><path d="m237.43 233.32h-9.5586l-3.3906-3.2696c11.859-13.793 18.996-31.699 18.996-51.18-1e-5 -43.434-35.207-78.641-78.645-78.641-43.434 0-78.641 35.207-78.641 78.641 0 43.437 35.207 78.648 78.641 78.648 19.48 0 37.387-7.1406 51.18-18.996l3.2696 3.3867v9.5547l60.492 60.375 18.027-18.023zm-72.598 0c-30.125 0-54.445-24.32-54.445-54.449 0-30.125 24.32-54.445 54.445-54.445 30.129 0 54.449 24.32 54.449 54.445 0 30.129-24.32 54.449-54.449 54.449z" opacity=".3"/><path d="m237.43 219.29h-9.5586l-3.3906-3.2695c11.859-13.793 18.996-31.699 18.996-51.18 0-43.434-35.207-78.641-78.645-78.641-43.434 0-78.641 35.207-78.641 78.641 0 43.438 35.207 78.648 78.641 78.648 19.48 0 37.387-7.1406 51.18-18.996l3.2695 3.3867v9.5547l60.492 60.375 18.027-18.023zm-72.598 0c-30.125 0-54.445-24.32-54.445-54.449 0-30.125 24.32-54.445 54.445-54.445 30.129 0 54.449 24.32 54.449 54.445 0 30.129-24.32 54.449-54.449 54.449z" fill="#fff"/></g></svg>
