<?xml version="1.0" encoding="UTF-8" standalone="no"?>
<!-- Created with Inkscape (http://www.inkscape.org/) -->

<svg
   version="1.1"
   id="svg870"
   width="512"
   height="512"
   viewBox="0 0 512 512"
   sodipodi:docname="smtpuserenum.svg"
   inkscape:version="1.2.2 (b0a8486541, 2022-12-01)"
   xmlns:inkscape="http://www.inkscape.org/namespaces/inkscape"
   xmlns:sodipodi="http://sodipodi.sourceforge.net/DTD/sodipodi-0.dtd"
   xmlns="http://www.w3.org/2000/svg"
   xmlns:svg="http://www.w3.org/2000/svg">
  <sodipodi:namedview
     id="namedview10"
     pagecolor="#505050"
     bordercolor="#eeeeee"
     borderopacity="1"
     inkscape:showpageshadow="0"
     inkscape:pageopacity="0"
     inkscape:pagecheckerboard="0"
     inkscape:deskcolor="#505050"
     showgrid="false"
     inkscape:zoom="0.4609375"
     inkscape:cx="109.55932"
     inkscape:cy="256"
     inkscape:window-width="1366"
     inkscape:window-height="705"
     inkscape:window-x="0"
     inkscape:window-y="26"
     inkscape:window-maximized="1"
     inkscape:current-layer="svg870" />
  <defs
     id="defs874" />
  <path
     style="fill:#ededed;fill-opacity:1;stroke-width:2.6743"
     d="m 250.07495,274.10907 c 3.80995,-40.76414 21.29202,-69.19315 61.56753,-100.11992 l 9.70314,-7.45085 10.12116,3.24631 c 24.12891,7.73921 43.10116,8.44311 65.01922,2.41228 7.54849,-2.07699 15.09697,-4.12509 16.77441,-4.55132 4.81284,-1.22295 34.88253,24.18885 48.83707,41.27205 12.70671,15.55559 22.62136,41.75702 24.54947,64.87686 l 1.01185,12.13293 H 368.31459 248.97037 Z"
     id="path4044" />
  <path
     style="fill:#eaeaea;fill-opacity:1;stroke-width:2.6743"
     d="m 127.83998,501.17193 c -12.86311,-4.44516 -24.63513,-14.65506 -29.712805,-25.76996 l -2.960758,-6.48102 H 60.164015 25.161612 v -11.4371 -11.4371 h 35.71507 35.715069 l 1.038906,-4.7301 c 1.338877,-6.09587 16.206293,-21.0221 24.758753,-24.8567 6.17164,-2.76714 6.46854,-3.2046 6.46854,-9.53092 v -6.63066 H 98.56468 c -28.524343,0 -30.532476,-0.18816 -34.389704,-3.22226 l -4.096432,-3.22226 0.459652,-130.33407 c 0.447816,-126.97818 0.535869,-130.3898 3.419769,-132.49796 2.470842,-1.8062 16.775128,-2.16387 86.540695,-2.16387 81.54732,0 83.65477,0.0742 86.63047,3.04989 2.96027,2.96027 3.04989,5.08316 3.04989,72.24305 v 69.19316 l -17.15564,0.71095 c -10.53837,0.43672 -19.25713,1.61356 -22.60387,3.05102 -8.32149,3.57418 -16.39826,11.4473 -18.17354,17.71528 -0.87127,3.0762 -2.0276,28.06699 -2.56965,55.53508 l -0.98554,49.94199 h -11.95437 -11.95437 v 5.92599 c 0,5.70795 0.38701,6.15591 10.51814,12.17471 11.20481,6.65666 16.76296,12.25129 21.6096,21.75153 l 3.00801,5.89615 h 86.12845 86.12847 v 11.4371 11.4371 l -85.77822,0.0453 -85.77822,0.0453 -5.29611,9.2455 c -7.94562,13.87079 -18.25199,21.10721 -34.28209,24.07053 -11.79387,2.18022 -13.84194,2.0782 -23.20009,-1.15576 z m 25.53768,-24.68777 c 15.39985,-7.85642 15.94952,-27.27359 1.03708,-36.63521 -3.9084,-2.4536 -6.85955,-2.99867 -13.81595,-2.55182 -7.80866,0.50162 -9.50741,1.22972 -14.48699,6.20929 -5.1145,5.1145 -5.64105,6.41114 -5.64105,13.89103 0,17.60835 16.75517,27.32673 32.90691,19.08671 z m -6.51551,-124.59704 c 5.78992,-2.68839 11.77817,-9.90435 13.30869,-16.03726 2.92705,-11.72896 -4.4525,-26.42613 -15.60939,-31.08778 -11.17806,-4.67049 -26.78429,-0.97867 -33.85353,8.00842 -9.10725,11.57799 -6.78539,28.7862 4.97095,36.84177 9.40037,6.44123 20.47085,7.24883 31.18328,2.27485 z M 206.63021,243.22891 V 231.02934 H 150.2072 93.784189 v 12.19957 12.19957 h 56.423011 56.42301 z m 0,-58.57638 v -11.30306 l -5.71855,-0.83417 c -3.1452,-0.45879 -28.53556,-1.28732 -56.42301,-1.84117 l -50.704461,-1.007 v 13.14423 13.14422 h 56.423011 56.42301 z"
     id="path1450" />
  <path
     style="fill:#fffa00;fill-opacity:1;stroke-width:2.6743"
     d="m 209.60168,399.01657 -3.56874,-2.88979 -0.0826,-46.15584 -0.0826,-46.15583 4.23228,-3.1707 c 4.1553,-3.11301 5.53774,-3.16708 76.00324,-2.97225 52.12838,0.14413 72.98548,0.7015 76.20863,2.03658 l 4.43767,1.83814 v 46.79686 c 0,38.00066 -0.4067,47.35327 -2.16371,49.75698 -2.08329,2.85009 -4.93756,2.97584 -76.78957,3.38288 -71.32145,0.40404 -74.78387,0.2948 -78.19459,-2.46703 z m 125.88648,-22.09545 c -10.06465,-9.49927 -20.8056,-19.46034 -23.86877,-22.13572 l -5.56942,-4.86432 -4.34273,3.55319 c -2.38851,1.95425 -6.45235,5.01527 -9.03077,6.80227 l -4.68804,3.24908 -9.03648,-6.00791 c -4.97006,-3.30435 -9.83667,-6.0101 -10.81469,-6.01276 -1.68912,-0.005 -41.64722,34.83995 -46.06308,40.16827 -1.94256,2.34396 2.71297,2.52515 64.81021,2.52233 l 66.90312,-0.003 z m 22.97798,-64.71168 c -1.14208,-1.14209 -43.56476,30.51947 -43.56476,32.51394 0,0.99371 9.77872,11.31941 21.73049,22.94599 l 21.73048,21.13924 0.40836,-37.94311 c 0.22461,-20.86871 0.0875,-38.26393 -0.30457,-38.65606 z m -119.20413,54.07414 c 12.24644,-10.74028 22.26626,-20.05423 22.26626,-20.69765 0,-1.1732 -44.7999,-33.73444 -46.41406,-33.73444 -0.4726,0 -0.85927,16.86972 -0.85927,37.48826 0,21.53433 0.5832,37.27194 1.37041,36.97995 0.75372,-0.27958 11.39022,-9.29583 23.63666,-20.03612 z m 80.2879,-34.70111 c 16.73388,-12.63213 30.42524,-23.61174 30.42524,-24.39914 0,-0.86983 -25.53221,-1.43162 -65.06438,-1.43162 -35.7854,0 -64.75942,0.30494 -64.3867,0.67766 2.8129,2.8129 66.06187,48.12061 67.17574,48.12061 0.78368,0 15.11623,-10.33538 31.8501,-22.96751 z"
     id="path2081" />
  <path
     style="fill:#ededed;fill-opacity:1;stroke-width:2.6743"
     d="m 344.55179,150.39488 c -26.64396,-7.63029 -48.46087,-28.65188 -54.73272,-52.737478 -13.58951,-52.187344 38.97034,-99.6225249 97.06096,-87.59737 19.57265,4.051671 43.40518,20.365307 52.55128,35.971932 9.01862,15.389128 11.92114,35.331714 7.53814,51.793044 -6.53172,24.531402 -29.54926,46.039132 -56.89309,53.161302 -11.6523,3.03504 -33.8693,2.74641 -45.52457,-0.59143 z"
     id="path5193" />
</svg>
