<?xml version="1.0" encoding="UTF-8" standalone="no"?>
<!-- Created with Inkscape (http://www.inkscape.org/) -->

<svg
   version="1.1"
   id="svg228"
   width="512"
   height="512"
   viewBox="0 0 512.00001 512.00001"
   sodipodi:docname="smuggler.svg"
   inkscape:version="1.2.2 (b0a8486541, 2022-12-01)"
   inkscape:export-filename="../GIT Icons/smuggler.png"
   inkscape:export-xdpi="96"
   inkscape:export-ydpi="96"
   xmlns:inkscape="http://www.inkscape.org/namespaces/inkscape"
   xmlns:sodipodi="http://sodipodi.sourceforge.net/DTD/sodipodi-0.dtd"
   xmlns="http://www.w3.org/2000/svg"
   xmlns:svg="http://www.w3.org/2000/svg">
  <defs
     id="defs232" />
  <sodipodi:namedview
     id="namedview230"
     pagecolor="#505050"
     bordercolor="#ffffff"
     borderopacity="1"
     inkscape:showpageshadow="0"
     inkscape:pageopacity="0"
     inkscape:pagecheckerboard="1"
     inkscape:deskcolor="#505050"
     showgrid="false"
     inkscape:zoom="0.65363186"
     inkscape:cx="310.57238"
     inkscape:cy="266.20489"
     inkscape:window-width="1366"
     inkscape:window-height="705"
     inkscape:window-x="0"
     inkscape:window-y="0"
     inkscape:window-maximized="1"
     inkscape:current-layer="g234" />
  <g
     inkscape:groupmode="layer"
     inkscape:label="Image"
     id="g234">
    <g
       id="g1050"
       transform="translate(-1.5003579e-4,-3.7603264e-4)">
      <path
         id="path3861"
         style="fill:#00ff00;fill-opacity:1;fill-rule:evenodd;stroke:none;stroke-width:3.51885;stroke-linejoin:bevel;paint-order:markers stroke fill"
         d="m 224.61133,8.328125 c -2.97737,-0.058365 -5.95496,-0.045842 -8.93164,0.039063 v -0.00195 c -8.88252,0.2099598 -17.893,0.5576665 -26.47461,3.015625 -5.60056,1.715603 -10.92512,5.048314 -13.92188,10.103516 -2.82669,4.663616 -3.62333,10.203637 -3.57812,15.546875 -5.51715,0.149671 -11.0337,1.54532 -15.80664,4.287109 -4.4909,2.592583 -8.4069,6.684541 -9.53906,11.791016 -0.88608,3.654152 -0.0394,7.780998 2.66015,10.533203 2.07965,2.215339 4.96707,3.595793 7.95117,4.203125 0.37165,6.026941 0.24706,12.068821 0.28516,18.103516 -6.9e-4,1.573179 -9.4e-4,3.147521 -0.002,4.720703 -21.87116,0.0082 -43.74408,0.01511 -65.615238,0.02344 8.367078,7.950112 16.734748,15.901194 25.101558,23.851564 -7.96667,0.0175 -15.94635,-0.0489 -23.89648,0.51758 -5.270559,0.42218 -10.741229,1.51159 -15.025391,4.73047 -5.030594,3.69923 -8.208892,9.34053 -9.873047,15.19336 -2.213019,7.4489 -3.105533,15.45748 -1.332031,23.08789 1.135867,5.09192 3.649419,9.75214 6.298828,14.22656 3.489341,5.71756 7.510218,11.10046 11.453125,16.52149 4.024416,5.42684 8.150945,10.77946 12.273438,16.13476 -0.932731,14.54578 -1.770107,29.09944 -2.832031,43.63672 -2.03038,23.60963 -6.753881,47.2667 -15.460938,69.48437 -4.202346,10.94998 -10.018181,21.32078 -14.523437,32.22657 -1.147082,2.41386 -1.86885,5.1855 -1.085938,7.81445 0.956171,3.67508 4.301589,6.51365 8.083984,7.17188 2.662998,0.52061 5.356277,0.46348 8.044922,0.66015 12.461678,0.5568 24.940336,0.51131 37.412106,0.56836 12.37517,0.0266 24.74983,-0.004 37.125,0.01 -1.19288,11.89978 -0.858,23.87164 -0.95507,35.81054 -0.004,17.04504 -0.01,34.08975 -0.0137,51.13477 -0.54297,1.09355 -1.07674,2.36463 -2.34765,2.80273 -2.46897,0.97134 -5.19467,0.89078 -7.76758,1.44922 -6.10261,1.11466 -12.21683,3.42684 -16.6875,7.77149 -4.06563,4.02426 -6.29114,10.07305 -4.88672,15.66601 0.16367,0.5685 0.39003,1.11708 0.64844,1.65039 -3.54531,2.51479 -5.26386,7.32992 -3.78906,11.41407 1.30874,3.85728 5.08067,6.51425 9.06836,7.25781 5.81318,1.25771 11.79168,1.45425 17.71679,1.75976 15.35324,0.607 30.73132,0.58873 46.08789,0.10547 6.8337,-0.24946 13.71043,-0.53293 20.43164,-1.85156 2.20489,-0.527 4.34942,-1.45597 6.0625,-2.93555 2.39149,2.11678 5.59803,3.01624 8.73047,3.41211 7.55156,1.17148 15.21618,1.27022 22.8418,1.51953 14.96052,0.36452 29.93863,0.28321 44.88672,-0.43359 4.96673,-0.28794 9.96895,-0.6492 14.8164,-1.79883 3.67494,-1.01354 7.10278,-3.61983 8.17774,-7.32031 1.17569,-3.84126 -0.23258,-8.30938 -3.44922,-10.80274 1.09313,-2.74661 0.72702,-5.80289 -0.21484,-8.53515 -1.88835,-5.57132 -6.39228,-9.90692 -11.42383,-12.89649 -4.83485,-2.88737 -10.40449,-4.42553 -16.00977,-4.98828 -1.40545,-0.26368 -2.93168,-0.96115 -3.38476,-2.40234 -0.1916,-0.54591 -0.8129,-1.02206 -0.50391,-1.61914 0.16798,-1.30842 -0.002,-2.64171 0.0566,-3.96094 v -82.00976 c 41.07489,-1.61624 82.16801,-2.93115 123.20313,-5.36719 14.97078,-0.94115 29.92983,-2.07304 44.89453,-3.10742 -6.01697,-28.89217 -12.1179,-57.75344 -17.97071,-86.67774 -2.35357,-11.87375 -4.5415,-23.74802 -6.08789,-35.78906 -1.28107,-9.79718 -2.06018,-19.87902 -2.26953,-29.77344 -0.22082,-11.13938 -0.30377,-22.28501 -0.0234,-33.42383 0.1466,-3.14974 0.24431,-6.33914 0.98243,-9.41992 0.35762,-1.54692 1.34133,-2.8352 2.48828,-3.91601 3.54421,-3.62451 7.61593,-7.05489 9.5664,-11.82618 1.60585,-4.00223 1.1314,-8.7748 -1.44531,-12.29101 -1.59119,-2.28043 -3.85144,-4.03291 -5.31836,-6.40625 -2.3242,-3.29821 -3.97162,-6.98075 -5.99805,-10.44727 -2.40089,-3.71527 -5.48596,-6.99702 -8.94335,-9.79297 -2.71563,-2.19212 -5.76989,-3.95249 -8.9668,-5.3789 -3.00236,-1.62859 -5.75386,-4.0448 -6.91602,-7.287114 -2.58897,-6.385404 -5.23094,-12.749749 -7.83203,-19.13086 -11.67373,10.626894 -23.34334,21.256343 -35.01562,31.884764 h -35.66992 c 6.15747,-5.96456 12.31581,-11.927388 18.47265,-17.892576 -20.73785,-6.49e-4 -41.47699,-0.0027 -62.21484,-0.0039 -0.19039,-7.786123 -0.52662,-15.573649 -0.35352,-23.363282 3.48993,-0.509422 7.08026,-1.876668 9.23438,-4.74414 3.05044,-4.017133 2.56796,-10.092099 -0.95508,-13.6875 -4.04109,-4.77848 -9.39525,-8.558843 -15.48047,-10.392578 -2.1502,-0.682928 -4.37682,-1.14685 -6.62695,-1.363282 -0.0632,-4.860348 -0.5422,-9.875032 -2.84571,-14.265625 -2.57247,-5.07461 -7.21902,-9.021854 -12.60351,-11.041015 -7.01759,-2.8023904 -14.69829,-3.2578348 -22.1875,-3.4960944 z M 189.9082,92.251953 c 0.12563,0.129911 0.25131,0.258761 0.37696,0.388672 3.83198,3.817909 9.41699,5.774243 14.84961,5.476563 -2.40721,3.758512 -3.71681,8.052972 -4.77344,12.332032 -0.12994,0.60273 -0.23923,1.28864 -0.71289,0.43945 -4.79065,-5.26394 -8.19296,-11.74758 -9.74024,-18.636717 z m 53.92188,0.193359 -0.0274,0.09375 -0.0195,0.06445 c -1.13789,3.345462 -2.97165,6.415511 -4.89453,9.380868 -2.09718,3.17417 -4.40073,6.21148 -6.53125,9.36328 -1.90493,-4.60517 -3.92004,-9.20224 -6.59765,-13.435555 -0.28893,-0.43349 0.83876,0.08953 1.17382,0.02734 6.09106,0.906396 12.62362,-1.104333 16.89649,-5.494141 z m -65.12305,44.671878 c 0.6642,0.26394 -0.35754,0.91622 0,0 z m 143.68359,20.69531 c 2.92473,0.34721 5.06459,2.68426 6.51954,5.01562 3.42732,5.45822 4.49879,12.24171 3.15429,18.49024 -0.73299,3.11804 -2.50123,6.06254 -5.22851,7.89062 -1.99197,1.51054 -4.27262,3.01101 -6.87696,3.07227 -1.75312,-0.19615 -2.6919,-1.87607 -3.51367,-3.20508 -1.50429,-2.87266 -2.1446,-6.10243 -2.51562,-9.28515 -0.49833,-5.37975 -0.45461,-10.88889 0.92187,-16.14844 0.56859,-1.95692 1.40178,-4.12778 3.30469,-5.1836 1.30429,-0.61826 2.80821,-0.71097 4.23437,-0.64648 z m -0.0215,65.60742 c 2.86531,0.33173 5.00576,2.58899 6.45117,4.86914 2.33355,3.6664 3.60276,7.94609 3.78711,12.25391 0.005,0.27594 0.0304,0.94132 0.0195,1.375 -0.0409,3.81735 -0.84731,7.84364 -3.44922,10.82031 -1.3678,1.52295 -3.09178,2.70393 -4.83984,3.77344 -1.44443,0.78203 -3.10392,1.55908 -4.79297,1.31055 -1.73039,-0.5446 -2.6226,-2.2775 -3.41015,-3.75 -1.87228,-4.09765 -2.36398,-8.65551 -2.47461,-13.09961 -0.0367,-2.32385 0.0287,-4.65338 0.28515,-6.96485 0.0565,-0.36078 0.14063,-1.13282 0.23633,-1.64843 0.41849,-2.36782 0.95264,-4.82254 2.33789,-6.84766 0.86094,-1.23041 2.30673,-1.94307 3.8125,-2.02539 0.67505,-0.0799 1.35813,-0.10778 2.03711,-0.0664 z m 51.51172,0 c 3.05486,0.43997 5.23359,2.93828 6.69531,5.41797 1.15443,1.88188 2.07828,4.17203 2.59961,6.14649 1.10293,4.20534 1.22981,8.71803 0.041,12.91796 -0.83897,2.8 -2.59211,5.35034 -5.07032,7.00196 -1.9934,1.50546 -4.30185,2.99247 -6.9121,2.97656 -1.77632,-0.34658 -2.71007,-2.07938 -3.52149,-3.49414 -0.71121,-1.36792 -1.18006,-2.84341 -1.54492,-4.33203 -0.0946,-0.39914 -0.25246,-1.14474 -0.35742,-1.67969 -1.10198,-5.84584 -0.97092,-11.8932 0.10547,-17.73242 0.52758,-2.28796 1.26193,-4.77949 3.20507,-6.30664 1.39201,-0.87108 3.15053,-1.00646 4.75977,-0.91602 z" />
      <path
         id="path3573"
         style="fill:#ff0000;fill-opacity:1;fill-rule:evenodd;stroke:none;stroke-width:2.4882;stroke-linejoin:bevel;paint-order:markers stroke fill"
         d="m 371.76217,278.11982 c -4.23733,0.0705 -8.5411,1.59495 -11.46365,4.6741 -2.69048,2.81156 -4.39553,6.4291 -5.32642,10.14312 -1.02577,4.94162 -1.13112,10.01832 -1.0553,15.04443 0.14964,4.05454 0.32303,8.17665 1.51098,12.08988 1.50616,4.44003 4.04654,8.65151 7.71953,11.69727 2.95734,2.45568 7.06682,3.13979 10.81641,2.53137 6.51621,-1.0742 12.3149,-5.01343 16.25554,-10.12359 1.80999,-2.44912 3.30065,-5.16973 4.15756,-8.08182 0.80258,-3.33028 0.54353,-6.78487 0.57709,-10.17729 -0.0289,-3.9499 -0.15688,-8.0295 -1.83,-11.69766 -2.16527,-5.09191 -5.14803,-10.17468 -9.97395,-13.25837 -3.34287,-2.17507 -7.41759,-2.98667 -11.38779,-2.84144 z" />
      <path
         id="path3719"
         style="fill:#0000ff;fill-opacity:1;fill-rule:evenodd;stroke:none;stroke-width:2.4882;stroke-linejoin:bevel;paint-order:markers stroke fill"
         d="m 372.26666,212.15849 c -5.40342,0.0573 -10.53597,2.94823 -13.64998,7.21338 -2.76069,3.73651 -4.31041,8.29735 -4.46085,12.90245 -0.20847,5.00266 -0.2486,10.02026 0.0385,15.02073 0.18609,3.353 0.95682,6.66478 2.32523,9.7464 1.83115,4.25406 4.65187,8.42199 8.97495,10.55133 3.26494,1.66324 7.18032,1.84503 10.65763,0.7348 6.58954,-2.05748 12.56541,-6.43928 15.8028,-12.49904 3.33268,-6.1629 3.8981,-13.43032 2.88971,-20.24068 -1.13426,-7.32582 -4.5834,-14.56351 -10.5922,-19.24636 -3.37684,-2.64023 -7.63044,-4.28072 -11.98579,-4.18301 z" />
      <path
         id="path3575"
         style="fill:#ffff00;fill-opacity:1;fill-rule:evenodd;stroke:none;stroke-width:2.4882;stroke-linejoin:bevel;paint-order:markers stroke fill"
         d="m 321.0878,212.10174 c -6.05029,0.14118 -11.71903,3.6689 -14.84105,8.67603 -2.07994,3.16599 -3.00565,6.89932 -3.3526,10.61088 -0.62424,6.0981 -0.62417,12.2739 0.13915,18.36009 0.54378,4.2782 2.17253,8.41009 4.56988,12.01673 2.01745,3.03339 4.9456,5.56861 8.50304,6.69346 3.93071,1.41629 8.26176,0.37641 11.91483,-1.32352 5.48279,-2.63886 10.24796,-6.86396 13.17125,-12.14191 1.3279,-2.32406 2.12597,-4.92773 2.21238,-7.59529 0.17419,-3.94239 0.17072,-7.89551 0.0215,-11.83873 -0.0837,-2.72025 -0.9328,-5.34916 -2.16578,-7.77045 -2.40926,-5.21667 -5.84033,-10.26382 -10.92303,-13.29828 -2.76984,-1.63386 -6.01552,-2.47834 -9.24951,-2.38901 z" />
      <path
         id="path3502"
         style="fill:#ff0000;fill-opacity:1;fill-rule:evenodd;stroke:none;stroke-width:2.4882;stroke-linejoin:bevel;paint-order:markers stroke fill"
         d="m 320.77081,146.88583 c -4.49538,0.1656 -9.27353,1.50398 -12.31817,4.92876 -3.38831,3.94878 -4.88172,9.07995 -5.68428,14.08603 -0.9765,6.71306 -0.67635,13.60051 0.77178,20.22697 1.22459,5.29857 3.46346,10.68715 7.81753,14.25756 2.32366,1.97982 5.39865,3.01281 8.47026,2.93286 5.62054,-0.12297 10.91412,-2.75558 15.09608,-6.30568 4.01564,-3.46434 7.23765,-8.07347 8.1452,-13.31201 1.43933,-7.89781 0.88281,-16.33534 -2.72325,-23.63014 -2.55408,-5.26266 -6.83303,-9.80356 -12.24759,-12.30652 -2.30128,-0.98066 -4.87159,-0.89983 -7.32756,-0.87783 z" />
      <path
         id="path3138"
         style="fill:#dcbda8;fill-opacity:1;fill-rule:evenodd;stroke:none;stroke-width:1.2441;stroke-linejoin:bevel;paint-order:markers stroke fill"
         d="m 394.27638,110.78256 c -3.27762,0.3743 -5.89719,2.58513 -8.20053,4.72413 -2.55824,2.43623 -4.982,5.32184 -5.72782,8.82382 -0.44244,1.99693 0.3199,4.41505 2.35232,5.26896 2.38985,0.96181 5.03734,-0.0687 7.09903,-1.32129 2.75889,-1.76962 5.06853,-4.18784 6.87352,-6.87934 1.44139,-2.25335 2.59212,-5.13755 1.52048,-7.76014 -0.66291,-1.48086 -2.15488,-2.93887 -3.917,-2.85614 z" />
      <path
         id="path3140"
         style="fill:#dcbda8;fill-opacity:1;fill-rule:evenodd;stroke:none;stroke-width:1.2441;stroke-linejoin:bevel;paint-order:markers stroke fill"
         d="m 407.63066,117.35694 c -2.205,0.35283 -4.07063,1.69293 -5.92732,2.82485 -4.70636,3.1436 -9.13428,6.74558 -12.90178,10.94102 -1.48992,1.78012 -3.15316,3.76932 -3.21167,6.18086 -0.0604,1.86992 1.66616,3.54974 3.58831,3.40167 2.49759,-0.15752 4.59556,-1.71041 6.55831,-3.0869 4.02439,-3.06989 7.67663,-6.60213 10.9886,-10.3965 1.53068,-1.87646 3.18159,-3.80839 3.8555,-6.16247 0.47309,-1.49504 -0.37633,-3.3323 -2.01802,-3.65268 -0.30737,-0.0554 -0.61986,-0.0836 -0.93193,-0.0499 z" />
      <path
         id="path3142"
         style="fill:#dcbda8;fill-opacity:1;fill-rule:evenodd;stroke:none;stroke-width:1.2441;stroke-linejoin:bevel;paint-order:markers stroke fill"
         d="m 411.81341,128.42838 c -3.95767,0.4675 -7.32808,2.89416 -10.12866,5.52363 -2.00388,1.98429 -4.01213,4.23144 -4.67141,7.01971 -0.42304,1.60204 0.42907,3.25164 1.78212,4.15463 1.37744,1.10638 3.22624,1.77774 4.99843,1.27515 2.76512,-0.78812 4.98944,-2.71251 7.13041,-4.5141 2.34083,-2.16599 4.8603,-4.31889 6.32756,-7.17951 0.83825,-1.57756 0.65372,-3.7372 -0.84816,-4.87379 -1.27137,-0.97572 -2.985,-1.46261 -4.59029,-1.40572 z" />
      <path
         id="path3144"
         style="fill:#dcbda8;fill-opacity:1;fill-rule:evenodd;stroke:none;stroke-width:1.2441;stroke-linejoin:bevel;paint-order:markers stroke fill"
         d="m 420.10741,138.38359 c -3.28064,0.22981 -5.95818,2.34733 -8.35876,4.35598 -1.94067,1.73587 -3.94215,3.48585 -5.3861,5.65631 -0.83043,1.15695 -0.71057,3.02346 0.67279,3.71917 1.4194,0.59422 3.0137,1.07347 4.54742,0.58731 3.79768,-0.8354 7.39938,-2.77583 9.82267,-5.80229 1.31772,-1.67525 2.77295,-3.67036 2.43824,-5.90375 -0.27956,-1.73412 -2.03178,-2.75116 -3.73626,-2.61273 z" />
      <path
         id="path1198"
         style="fill:#dcbda8;fill-opacity:1;fill-rule:evenodd;stroke:none;stroke-width:1.2441;stroke-linejoin:bevel;paint-order:markers stroke fill"
         d="m 248.29933,56.872685 c -21.67153,0.380754 -43.34169,0.859897 -65.00862,1.434064 -1.0744,0.04743 -2.15187,0.0462 -3.22405,0.130542 -0.57295,0.607976 -1.31261,1.135319 -1.78627,1.791313 -0.40229,5.547764 -0.73303,11.102883 -0.95331,16.660869 -0.2501,6.741517 -0.14218,13.606388 1.79949,20.132522 1.74841,6.282595 4.66782,12.245485 8.62165,17.484825 1.58276,2.22926 3.49337,4.20631 5.17644,6.35687 2.16516,3.16669 3.77649,6.75629 4.41589,10.52716 0.25527,1.60162 -0.17032,3.5428 1.13332,4.79328 0.9657,0.96993 2.7467,0.69536 3.47108,-0.43218 1.22388,-1.79776 0.87765,-4.10413 1.80188,-6.02268 0.61606,-1.65536 1.62277,-3.12857 2.78085,-4.46325 2.378,-3.39743 3.74027,-7.35667 4.92899,-11.27478 0.98862,-3.4571 1.88771,-7.02213 3.80344,-10.12086 0.27085,-0.69714 0.56781,0.26085 0.81717,0.5226 2.65329,4.35764 4.58852,9.0904 6.45708,13.8094 1.52025,3.83292 2.73959,7.76898 4.01585,11.68263 0.45315,1.53466 1.48752,2.86164 2.90117,3.66582 0.99531,0.59345 1.95167,1.41874 3.16454,1.49355 0.60519,-0.44199 1.33605,-0.78307 1.86635,-1.28519 0.63298,-1.77305 0.938,-3.52377 1.7431,-5.2501 0.49522,-1.18937 1.17157,-2.51166 1.70018,-3.54858 3.07509,-5.88419 6.96462,-11.29888 10.62919,-16.83379 2.92742,-4.44182 5.58458,-9.132754 6.99278,-14.269343 1.14099,-3.613792 0.80434,-7.441262 0.87086,-11.168484 0.0229,-6.532515 -1.23127,-12.973879 -2.19544,-19.413615 -0.28696,-1.666354 -0.50586,-3.348429 -0.89618,-4.995015 -0.64759,-0.454904 -1.23603,-1.064262 -1.91965,-1.425104 -1.03562,-0.02076 -2.07197,0.01325 -3.10778,0.01752 z m -32.24821,15.470121 c 6.938,0.01619 13.78921,0.13851 20.70297,0.738759 0.95751,0.08833 1.8236,0.171417 2.70146,0.280568 1.4767,0.184509 2.96228,0.383757 4.38849,0.81393 -0.38887,0.714687 -1.32808,0.408626 -1.95222,0.790817 -2.54222,1.156119 -3.86692,3.801458 -4.80917,6.242344 -0.56324,1.701359 -1.37004,3.522873 -3.1139,4.345652 -1.87917,1.149528 -4.19598,1.084902 -6.31067,0.805066 -1.77292,-0.228834 -3.33077,-1.361023 -4.10644,-2.932198 -1.00441,-2.02178 -1.6621,-4.218827 -2.97787,-6.088465 -0.85103,-1.387078 -2.33847,-2.838195 -4.14187,-2.470778 -1.67051,0.488193 -2.76587,1.997016 -3.63567,3.388139 -1.34571,2.015467 -1.62244,4.59259 -3.27825,6.419505 -2.08376,1.871187 -5.21146,2.163775 -7.87456,1.583526 -1.47096,-0.352623 -3.03341,-1.070109 -3.61961,-2.538976 -1.47944,-2.702693 -2.26091,-5.964852 -4.87083,-7.906528 -0.86428,-0.685462 -1.93289,-1.014073 -2.95222,-1.397832 -0.20951,-0.450062 0.80743,-0.313612 1.09958,-0.493109 4.15393,-0.848009 8.44644,-1.058404 12.61644,-1.297156 4.04032,-0.187811 8.06161,-0.267045 12.13434,-0.283264 z" />
      <path
         id="path3134"
         style="fill:#dcbda8;fill-opacity:1;fill-rule:evenodd;stroke:none;stroke-width:1.2441;stroke-linejoin:bevel;paint-order:markers stroke fill"
         d="m 213.31416,105.45307 c -0.81366,2.29621 -0.64555,4.77266 -0.68525,7.16534 0.0884,1.63715 -0.0439,3.42854 0.85148,4.88421 0.44987,0.51689 1.10207,0.8232 1.78916,0.81061 1.5569,-0.13441 2.36944,-1.67992 2.68353,-3.01279 0.59286,-2.83313 0.49745,-5.83573 -0.34848,-8.61043 -0.26175,-0.4244 -0.26741,-1.29714 -0.76155,-1.39639 -1.1763,0.0532 -2.35259,0.1063 -3.52889,0.15945 z" />
      <path
         id="path3132"
         style="fill:#dcbda8;fill-opacity:1;fill-rule:evenodd;stroke:none;stroke-width:1.2441;stroke-linejoin:bevel;paint-order:markers stroke fill"
         d="m 218.50008,119.08615 c -2.31871,0.18287 -4.16815,1.78687 -5.86124,3.20037 -3.32639,2.91833 -5.9998,6.45317 -8.45831,10.08063 -0.99071,1.39061 -2.02768,2.75474 -3.26967,3.94292 -0.0759,0.75676 -0.30813,1.53786 -0.28641,2.27942 0.75699,1.55987 1.7841,3.09843 1.81061,4.87931 0.18766,1.37645 1.62532,2.18284 2.95891,2.08371 1.49763,0.17109 2.66703,1.24383 3.93112,1.93658 1.69466,1.08053 3.89834,1.92748 5.86204,1.00296 2.09995,-1.04676 3.59744,-2.92414 5.05795,-4.6785 1.15268,-1.5758 2.46995,-3.23731 2.66584,-5.22942 0.0858,-1.73755 -1.499,-2.8836 -2.91113,-3.59502 -0.32549,-0.20717 0.87322,-0.19421 1.13868,-0.35717 1.67291,-0.35415 3.11135,-1.7661 3.13514,-3.49435 0.034,-2.44985 -1.05067,-4.73517 -1.72692,-7.05102 -0.46485,-1.23096 -0.68894,-2.48085 -1.26967,-3.67074 -0.54076,-0.94004 -1.71923,-1.36346 -2.77694,-1.32968 z" />
      <path
         id="path3136"
         style="fill:#dcbda8;fill-opacity:1;fill-rule:evenodd;stroke:none;stroke-width:1.2441;stroke-linejoin:bevel;paint-order:markers stroke fill"
         d="m 385.81229,99.932481 c -2.04535,0.367209 -3.61698,1.859139 -5.20792,3.063119 -4.10867,3.44509 -8.11249,7.08514 -11.36267,11.33997 -1.55015,2.14301 -3.2419,4.6011 -2.88549,7.36003 0.30905,1.62089 1.67793,2.84777 3.0664,3.65895 2.15303,1.11596 4.65067,0.25478 6.74062,-0.57063 3.57307,-1.64469 6.34566,-4.59181 8.54731,-7.73725 2.0075,-3.09113 3.42687,-6.56045 4.17971,-10.14725 0.37796,-2.09043 0.56602,-4.61845 -1.09869,-6.2518 -0.52317,-0.49696 -1.24514,-0.790618 -1.97927,-0.715139 z" />
      <path
         style="fill:#000000;stroke-width:3.09583"
         d="m 126.97848,491.0425 c 0,-1.8352 16.06892,-2.98221 41.7792,-2.98221 25.71027,0 41.77916,1.14701 41.77916,2.98221 0,1.83521 -16.06889,2.98222 -41.77916,2.98222 -25.71028,0 -41.7792,-1.14701 -41.7792,-2.98222 z m 96.41351,0 c 0,-1.8352 16.0689,-2.98221 41.77917,-2.98221 25.71028,0 41.77917,1.14701 41.77917,2.98221 0,1.83521 -16.06889,2.98222 -41.77917,2.98222 -25.71027,0 -41.77917,-1.14701 -41.77917,-2.98222 z m -93.19972,-13.05485 c 0,-5.91486 6.59348,-10.12427 17.67581,-11.28455 6.26753,-0.65622 10.75148,-3.35751 12.81376,-7.71946 2.83999,-6.00687 5.44994,-6.70998 24.90683,-6.70998 h 21.7344 v 14.91108 14.91111 h -38.56539 c -30.61433,0 -38.56541,-0.84698 -38.56541,-4.1082 z m 96.4135,-10.80291 v -14.91108 h 21.73439 c 19.4569,0 22.06683,0.70311 24.90681,6.70998 2.07964,4.39865 6.49353,7.03074 12.81378,7.6411 8.91122,0.86059 17.67581,7.33589 17.67581,13.05888 0,1.32672 -17.35443,2.41223 -38.5654,2.41223 h -38.56539 z m -64.27566,-63.66647 c 0,-42.26179 0.15281,-43.17451 12.35015,-73.80996 l 12.35018,-31.019 25.41178,-1.5391 c 19.26966,-1.16711 29.48989,-3.52189 42.28416,-9.74246 l 16.87235,-8.20333 v 83.55237 83.55241 h -22.49649 -22.49647 v -44.36814 c 0,-35.63132 -0.94121,-45.093 -4.77975,-48.04916 -2.62886,-2.02456 -6.96746,-2.90199 -9.64135,-1.94985 -4.05086,1.44244 -4.8616,9.45536 -4.8616,48.04918 V 446.3092 H 184.8266 162.33011 Z M 72.344187,355.6295 c 0,-0.66722 4.165688,-9.82869 9.257091,-20.35884 12.747429,-26.36447 20.412662,-57.94358 22.621762,-93.19692 l 1.86587,-29.77558 12.08135,15.30155 c 6.64475,8.41585 14.59541,16.19676 17.66818,17.29094 5.72817,2.03972 15.17628,-5.97067 33.28843,-28.22289 l 8.40366,-10.32456 7.07794,29.77084 c 3.89286,16.37398 7.65838,31.44836 8.36784,33.49862 0.84444,2.44045 8.01541,3.72779 20.7651,3.72779 15.23116,0 23.61716,-1.9402 38.48183,-8.9032 l 19.00665,-8.90318 -1.62195,-58.94233 c -0.89206,-32.41826 -2.28283,-61.96179 -3.09058,-65.65228 -2.03283,-9.28763 -13.22793,-8.69128 -24.47027,1.30348 -8.94742,7.95452 -9.01374,7.96396 -9.01374,1.28288 0,-3.70184 4.14047,-12.34041 9.20104,-19.19682 12.30906,-16.67709 14.24956,-23.51803 11.64876,-41.065623 l -2.1984,-14.832638 -35.83942,0.840486 -35.8394,0.840487 -0.95958,17.01569 c -0.96356,17.086186 3.63322,30.171268 14.72091,41.904248 2.7235,2.88199 5.19064,8.92099 5.48258,13.41999 0.29194,4.49901 1.58444,11.58548 2.87221,15.74773 1.98411,6.4129 -2.46713,13.89643 -29.17007,49.04138 -17.33132,22.81052 -32.87625,41.54803 -34.54433,41.63893 -1.66807,0.0908 -16.49165,-17.25051 -32.94126,-38.5364 -25.946993,-33.5755 -29.908431,-40.30141 -29.908431,-50.77972 0,-6.64296 2.251304,-15.0607 5.00292,-18.7061 4.513911,-5.98019 7.718792,-6.628 32.790061,-6.628 h 27.78714 l -12.5527,-11.92889 -12.5527,-11.92889 25.55905,-0.007 25.55905,-0.007 V 79.486511 c 0,-17.889275 -0.80335,-20.870085 -5.62412,-20.86818 -3.09328,0.0015 -5.62414,-1.071182 -5.62414,-2.383357 0,-4.95314 8.03785,-9.543105 16.71169,-9.543105 8.07946,0 8.99859,-1.02885 8.99859,-10.072613 0,-14.197015 6.55269,-17.857307 33.23833,-18.566743 28.78174,-0.765311 37.46491,3.469167 37.46491,18.270188 0,8.990816 1.03739,10.36902 7.80489,10.36902 4.29271,0 10.34804,2.348499 13.4563,5.218885 5.39118,4.978584 5.33972,5.261312 -1.11781,6.140299 -6.19985,0.843915 -6.72347,2.662316 -6.2253,21.61956 l 0.54394,20.698145 23.90119,0.002 23.9012,0.002 -9.23699,8.94666 -9.23699,8.94667 h 31.81399 31.81401 l 13.65285,-12.43384 13.6529,-12.433823 3.12235,7.620673 c 1.7173,4.19137 7.3147,9.34267 12.43866,11.44735 5.124,2.10467 11.2799,7.96109 13.67978,13.01425 2.39992,5.05319 6.34779,11.04228 8.77305,13.30912 3.74038,3.49606 3.16074,5.33105 -3.81969,12.09206 -7.95419,7.70419 -8.22279,9.21085 -8.03737,45.0851 0.15595,30.15242 2.46619,48.0233 12.31628,95.26786 l 12.12447,58.1533 -25.97485,1.83762 c -14.28619,1.01065 -48.75257,2.70567 -76.59196,3.76666 l -50.61708,1.92907 v -47.78771 -47.7877 l -25.63892,11.96216 c -23.10906,10.78182 -28.01617,11.96216 -49.73112,11.96216 -28.00168,0 -25.6906,-2.34152 -43.41559,43.98776 l -10.55388,27.58549 h -41.38508 c -22.761808,0 -41.385084,-0.54588 -41.385083,-1.2131 z M 334.86382,326.50058 c 15.32919,-13.36343 6.04228,-47.19569 -12.95515,-47.19569 -12.25531,0 -18.17211,8.57032 -18.17211,26.32182 0,25.53947 14.56853,35.30909 31.12726,20.87387 z m 51.42052,0 c 15.32919,-13.36343 6.04231,-47.19569 -12.95515,-47.19569 -12.25531,0 -18.17212,8.57032 -18.17212,26.32182 0,25.53947 14.56854,35.30909 31.12727,20.87387 z m -51.42052,-65.60886 c 15.32919,-13.36339 6.04228,-47.19569 -12.95515,-47.19569 -12.25531,0 -18.17211,8.57034 -18.17211,26.32182 0,25.53947 14.56853,35.30911 31.12726,20.87387 z m 51.42052,0 c 15.32919,-13.36339 6.04231,-47.19569 -12.95515,-47.19569 -12.25531,0 -18.17212,8.57034 -18.17212,26.32182 0,25.53947 14.56854,35.30911 31.12727,20.87387 z m -51.42052,-65.60883 c 15.32919,-13.36342 6.04228,-47.19569 -12.95515,-47.19569 -12.25531,0 -18.17211,8.57035 -18.17211,26.32182 0,25.53946 14.56853,35.30911 31.12726,20.87387 z m 51.42052,0 c 15.32919,-13.36342 6.04231,-47.19569 -12.95515,-47.19569 -12.25531,0 -18.17212,8.57035 -18.17212,26.32182 0,25.53946 14.56854,35.30911 31.12727,20.87387 z M 191.25415,137.14296 c 0,-4.21766 -12.38429,-12.9135 -18.3909,-12.9135 -2.82679,0 -4.10557,5.0365 -4.10557,16.16982 0,15.30146 -0.72438,16.74519 -13.48881,26.88381 l -13.4888,10.71398 -14.2926,-12.71826 c -15.79499,-14.05518 -14.94934,-10.59125 2.21626,9.07832 l 11.21412,12.84992 25.16814,-23.21774 c 13.84249,-12.76975 25.16816,-24.8506 25.16816,-26.84635 z m 228.24304,9.38106 c 6.62259,-7.40476 0.37491,-9.1166 -7.29546,-1.99891 -5.66793,5.25954 -6.04312,6.54431 -1.91114,6.54431 2.82774,0 6.97073,-2.04541 9.2066,-4.5454 z m -9.15539,-6.35457 c 6.94152,-5.82937 7.58766,-9.97557 1.55459,-9.97557 -5.49208,0 -15.68308,10.26397 -12.82463,12.91645 3.16392,2.93596 4.77148,2.5165 11.27004,-2.94088 z m -8.61696,-9.94445 c 5.06267,-4.90355 8.21057,-9.83822 6.9953,-10.96592 -2.35073,-2.18133 -21.42522,13.36051 -21.42522,17.45719 0,4.7165 5.33728,2.31553 14.42992,-6.49127 z m -4.78857,-13.91331 c 0,-5.68726 -4.49634,-4.96988 -11.06497,1.7654 -7.63469,7.82839 -3.28692,14.29815 4.95646,7.37553 3.35966,-2.82139 6.10851,-6.93481 6.10851,-9.14093 z m -14.64425,1.28976 c 2.75157,-3.6454 5.0029,-9.26448 5.0029,-12.48683 0,-5.220824 -1.04992,-4.92543 -9.64135,2.71262 -5.30274,4.71429 -9.64135,10.33337 -9.64135,12.48682 0,6.21821 8.80055,4.54643 14.2798,-2.71261 z m -176.0402,31.47984 c -4.40571,-4.08827 -1.94704,-7.53827 2.77859,-3.89893 4.07009,3.13448 5.69608,2.81084 9.40232,-1.87151 3.90597,-4.93469 3.78994,-5.92161 -0.90391,-7.68847 -4.75715,-1.79069 -4.68919,-2.05149 0.5829,-2.23666 4.0827,-0.14337 5.35171,-1.69976 4.01721,-4.92684 -1.0729,-2.59448 -1.95073,-5.27849 -1.95073,-5.96445 0,-4.60751 -7.57483,0.35508 -12.89034,8.44503 -5.17196,7.8714 -6.37057,8.5437 -6.38033,3.57866 -0.007,-3.36247 1.58942,-7.59963 3.54675,-9.41594 1.95734,-1.81629 4.52537,-7.68785 5.70675,-13.0479 1.18135,-5.36005 3.55696,-10.16876 5.27912,-10.68601 2.85157,-0.85648 14.57839,28.84078 14.43855,36.56452 -0.14631,8.08476 -17.90059,16.46219 -23.62688,11.1485 z m 9.72595,-41.94285 c -0.81484,-2.90161 -1.53511,-1.24965 -1.60061,3.67101 -0.0655,4.92067 0.60119,7.29471 1.48152,5.27565 0.88033,-2.01906 0.93391,-6.04506 0.11907,-8.94666 z M 195.39914,82.478363 c -0.92447,-3.280443 -2.95838,-5.96444 -4.5198,-5.96444 -1.56143,0 -2.83896,-1.342 -2.83896,-2.982221 0,-1.767242 11.78386,-2.982221 28.92404,-2.982221 17.14017,0 28.92405,1.214979 28.92405,2.982221 0,1.640221 -1.27753,2.982221 -2.83897,2.982221 -1.56142,0 -3.59534,2.683997 -4.5198,5.96444 -1.03453,3.671083 -4.38365,5.964439 -8.71016,5.964439 -4.3265,0 -7.6756,-2.293356 -8.71013,-5.964439 -0.92449,-3.280443 -2.78973,-5.96444 -4.14499,-5.96444 -1.35526,0 -3.2205,2.683997 -4.14496,5.96444 -1.03457,3.671083 -4.38365,5.964439 -8.71016,5.964439 -4.32651,0 -7.67563,-2.293356 -8.71016,-5.964439 z"
         id="path346" />
      <path
         id="path3154"
         style="fill:#803300;fill-opacity:1;fill-rule:evenodd;stroke:none;stroke-width:2.4882;stroke-linejoin:bevel;paint-order:markers stroke fill"
         d="m 270.15056,278.25036 c -9.97874,4.44747 -19.50366,10.01927 -30.08836,13.04736 -4.57485,1.34633 -9.42244,2.22863 -14.0606,2.85411 -12.18505,1.59055 -24.48526,1.95146 -36.74977,3.01254 -0.89432,0.12537 -1.86244,0.0647 -2.70109,0.39047 -0.61949,0.49626 -1.32227,0.94156 -1.52044,1.75244 -3.77355,9.1521 -7.29379,18.40201 -10.86775,27.63004 -2.94414,7.70466 -5.94276,15.39141 -8.71098,23.15857 -1.71133,4.99554 -3.00152,10.14606 -3.48235,15.40346 -0.80162,8.33073 -0.85074,16.70792 -1.01441,25.06794 -0.24575,18.45053 -0.39088,36.90221 -0.58615,55.3533 0.65976,0.65208 1.31951,1.30416 1.97927,1.95623 14.90446,0 29.8089,0 44.71336,0 0.65976,-0.64136 1.31951,-1.28271 1.97927,-1.92406 0.18487,-22.16523 0.28611,-44.33129 0.54858,-66.49579 0.1284,-6.55973 0.14982,-13.13231 0.72866,-19.67267 0.24554,-1.79508 0.30627,-3.73062 1.29156,-5.31659 1.158,-1.46187 3.27069,-1.36912 4.94572,-1.08342 2.5131,0.4583 5.2233,1.81818 6.03272,4.36549 0.93601,2.86511 1.07067,6.02074 1.30502,8.92262 0.19856,3.27851 0.30682,6.53438 0.38781,9.76902 0.34028,14.74793 0.36982,29.50067 0.52022,44.2512 0.0711,8.42068 0.14203,16.84135 0.21304,25.26203 0.65976,0.64072 1.31952,1.28145 1.97928,1.92217 14.84389,0 29.68778,0 44.53167,0 0.65976,-0.64577 1.31951,-1.29154 1.97927,-1.93731 -0.0211,-43.97698 0.0567,-87.95411 -0.076,-131.93096 -0.0636,-11.22572 -0.0426,-22.45324 -0.27386,-33.67709 0.13807,-0.62835 -0.31198,-0.92069 -0.83964,-1.13669 -0.65607,-0.31141 -1.29338,-0.8442 -1.96107,-1.01843 -0.0677,0.0247 -0.13533,0.0494 -0.20299,0.074 z" />
    </g>
  </g>
</svg>
