<?xml version="1.0" encoding="UTF-8" standalone="no"?>
<svg
   version="1.1"
   viewBox="0 0 512 512"
   id="svg1268"
   sodipodi:docname="spiderfoot.svg"
   inkscape:version="1.1.2 (0a00cf5339, 2022-02-04)"
   xmlns:inkscape="http://www.inkscape.org/namespaces/inkscape"
   xmlns:sodipodi="http://sodipodi.sourceforge.net/DTD/sodipodi-0.dtd"
   xmlns="http://www.w3.org/2000/svg"
   xmlns:svg="http://www.w3.org/2000/svg">
  <defs
     id="defs1272" />
  <sodipodi:namedview
     id="namedview1270"
     pagecolor="#505050"
     bordercolor="#eeeeee"
     borderopacity="1"
     inkscape:pageshadow="0"
     inkscape:pageopacity="0"
     inkscape:pagecheckerboard="0"
     showgrid="false"
     inkscape:zoom="0.65186406"
     inkscape:cx="72.867953"
     inkscape:cy="221.67198"
     inkscape:window-width="1366"
     inkscape:window-height="695"
     inkscape:window-x="0"
     inkscape:window-y="24"
     inkscape:window-maximized="1"
     inkscape:current-layer="svg1268" />
  <g
     id="g19229"
     transform="translate(0.004,-10.0004)">
    <path
       d="m 227.5,42.275 c -10.883,0 -19.703,8.6802 -19.703,19.387 0,10.707 8.8201,19.387 19.703,19.387 10.881,0 19.703,-8.6802 19.703,-19.387 0,-10.707 -8.8218,-19.387 -19.703,-19.387 z m 57.52,0 c -11.184,0 -19.703,8.9086 -19.703,19.387 0,11.003 8.519,19.387 19.703,19.387 11.184,0 19.705,-8.9077 19.705,-19.387 0,-11.002 -9.0541,-19.387 -19.705,-19.387 z M 169.26,57.701 c -1.1537,0.0012 -2.3331,0.0965 -3.5312,0.29297 -7.9883,1.5715 -14.379,7.8576 -15.977,15.717 -1.0644,6.2869 1.066,12.576 5.3262,16.768 3.1958,3.668 4.793,8.3823 4.793,13.098 v 10.479 c 0,4.7154 -1.5981,9.4316 -5.3262,13.1 -4.2602,4.7154 -6.3904,11.003 -4.793,18.338 1.5975,5.7636 5.8581,10.479 11.184,12.574 3.728,1.5715 7.4554,2.0964 10.65,1.5723 4.7933,-0.52413 9.5855,-6.1e-4 13.846,2.6191 0,0 20.77,11.528 21.303,15.719 0,4.7154 2.1311,9.4316 4.793,13.1 3.1958,3.668 5.3262,8.3834 5.3262,13.1 0,0 1.0643,7.3345 0.53125,12.051 0,2.0947 -2.6624,4.1892 -4.793,3.666 -9.5866,-2.6198 -26.094,-15.717 -26.094,-15.717 v -1.0488 c 0,-11.002 -9.053,-19.387 -19.703,-19.387 -1.5975,0 -3.7287,-6.9e-4 -5.3262,0.52344 -4.7933,1.5715 -10.119,0.52404 -14.379,-2.0957 0,0 -11.715,-4.7149 -12.248,-6.8106 -0.53219,-5.2395 -2.1303,-9.955 -5.3262,-13.623 -3.7271,-3.6671 -4.793,-8.3836 -4.793,-13.623 v -6.2871 c 0,-4.7154 2.1312,-9.4297 5.3262,-13.098 3.195,-3.6671 4.793,-7.861 4.793,-13.1 0,-12.051 -10.65,-21.48 -23.432,-19.385 -7.9883,1.5715 -14.379,7.8576 -15.977,15.717 -1.0653,6.2868 1.0649,12.576 4.793,16.768 3.195,3.668 4.793,8.3823 4.793,13.098 v 7.8594 c 0,4.7154 -1.599,9.4316 -5.3262,13.1 -4.2602,4.7154 -6.3903,11.526 -4.2598,18.861 1.5975,5.7627 6.3894,10.479 12.248,12.574 3.7271,1.0474 7.4554,1.5728 10.65,0.52539 4.7933,-1.0482 10.12,-0.52531 14.912,1.5703 l 5.3242,2.6211 c 4.2602,2.0947 7.4572,5.7621 9.0547,10.477 2.6628,7.336 10.118,13.1 18.639,13.1 1.5984,0 2.6623,6.9e-4 4.2598,-0.52344 4.7933,-1.0483 9.5846,-0.52226 13.846,2.0957 5.8568,3.1457 13.313,7.3344 17.574,9.9551 2.1297,1.0465 2.6638,4.7147 0.5332,6.2871 -4.2602,3.143 -11.717,6.2865 -17.043,8.9062 -3.7271,1.5724 -8.52,2.0978 -12.248,0.52539 -5.8577,-2.0947 -12.249,-1.5719 -19.172,3.1426 -3.1949,2.0965 -4.7912,4.7155 -6.3887,7.8594 -1.5975,5.2395 -4.7935,9.4301 -9.5859,12.051 l -3.7285,2.0957 c -4.7933,2.6197 -10.117,2.6196 -14.91,1.5723 -3.195,-0.52502 -6.9243,-0.52376 -10.652,0.52539 -5.8577,2.0947 -10.65,6.8095 -12.248,12.572 -2.1297,7.336 5.96e-4,14.147 4.2617,19.387 3.195,3.6671 5.3242,8.3832 5.3242,13.098 v 11.004 c 0,4.7163 -2.1293,9.4307 -5.3242,13.1 -3.1958,3.6671 -4.793,7.8582 -4.793,13.098 0,12.05 10.651,21.483 23.432,19.387 7.9883,-1.5724 14.379,-7.8586 15.977,-15.719 1.0653,-6.2868 -1.0659,-12.574 -5.3262,-16.766 -3.1949,-3.6689 -4.793,-8.3834 -4.793,-13.1 v -11.004 c 0,-4.7145 2.1293,-9.4306 5.3242,-13.098 1.5984,-2.0956 3.1973,-4.1908 4.2617,-6.8106 1.5984,-4.7145 4.7925,-8.382 9.0527,-10.479 2.6628,-1.5724 4.2598,-2.6211 4.2598,-2.6211 4.2602,-2.6198 9.5866,-2.6196 14.912,-1.5723 5.3255,1.0483 11.183,0.52611 17.574,-3.666 3.195,-2.0965 5.8565,-5.7645 6.3887,-9.4316 1.0644,-4.7163 3.7281,-8.3822 7.9883,-11.002 5.8577,-3.6671 13.314,-8.3836 18.639,-9.9551 2.1306,-0.52503 4.2608,1.0461 4.793,3.1426 0.53309,4.7145 -0.53125,12.576 -0.53125,12.576 0,4.7154 -2.1312,9.4288 -5.3262,13.098 -3.1958,3.6671 -4.793,7.8582 -4.793,13.098 0,2.6198 -11.184,8.9075 -19.705,13.1 -4.2593,2.0947 -9.5845,2.6195 -14.377,1.5703 -3.1958,-0.52324 -6.9224,-0.52161 -10.65,1.0508 -5.8577,2.0947 -10.651,6.8095 -12.248,12.572 -2.1297,7.3351 -4.5e-4,14.147 4.2598,18.861 3.1958,3.6689 5.3242,8.3834 5.3242,13.1 v 10.48 c 0,4.7154 -2.1284,9.4305 -5.3242,13.098 -3.1949,3.668 -4.793,7.8601 -4.793,13.1 0,4.7145 2.1302,9.4306 4.793,13.098 3.1958,3.6671 5.3242,8.3834 5.3242,13.1 v 9.9531 c 0,4.7162 -2.1284,9.4307 -5.3242,13.1 -3.1949,3.6671 -4.793,7.8573 -4.793,13.098 0,12.05 10.65,21.482 23.432,19.387 7.9883,-1.5724 14.377,-7.8595 15.977,-15.719 1.0644,-6.2869 -1.0668,-12.575 -5.3262,-16.766 -3.1958,-3.6689 -4.793,-8.3834 -4.793,-13.1 v -9.9531 c 0,-4.7163 2.1312,-9.4325 5.3262,-13.1 3.194,-3.6671 4.793,-7.8591 4.793,-13.098 0,-4.7163 -2.1302,-9.4316 -4.793,-13.1 -3.195,-3.6671 -5.3262,-8.3827 -5.3262,-13.623 v -10.479 c 0,-4.7154 2.1312,-9.4305 5.3262,-13.098 3.194,-3.6671 4.7929,-7.8619 5.3242,-13.1 0,-3.1439 14.911,-13.098 23.965,-16.242 2.6636,-1.0465 4.7929,1.0473 5.3242,3.668 0,4.7154 -1.0644,11.002 -1.0644,11.002 0,4.7154 -2.1293,9.4307 -5.3242,13.1 -3.1958,3.6671 -4.793,7.8582 -4.793,13.098 0,12.05 11.181,21.483 23.432,19.387 7.9874,-1.5724 14.379,-7.8586 15.977,-15.719 1.0644,-6.2869 -1.066,-12.574 -5.3262,-16.766 -3.195,-3.6689 -5.3242,-8.3842 -5.3242,-13.1 v -5.7637 c 0,-4.7145 2.1293,-9.429 5.3242,-13.621 3.1958,-3.6671 4.793,-7.8601 4.793,-13.1 0,-4.7163 -2.1302,-9.4307 -4.793,-13.1 -3.195,-3.6671 -5.3242,-8.3834 -5.3242,-13.621 v -5.2402 c 0,-5.2395 1.5971,-9.9559 5.3242,-13.623 0.53308,-0.52323 1.0664,-1.0471 1.0664,-1.5703 1.5966,-2.0965 4.2591,-3.1445 6.9219,-3.1445 h 11.717 c 2.6628,0 5.3264,1.5715 6.9238,3.668 l 0.53125,0.52539 c 3.1958,3.6671 5.3262,8.3816 5.3262,13.621 v 5.7637 c 0,4.7145 -2.1303,9.4299 -5.3262,13.621 -3.1949,3.6689 -4.793,7.8592 -4.793,13.1 0,4.7154 2.1311,9.4325 4.793,13.1 3.1958,3.668 5.3262,8.3816 5.3262,13.621 v 5.7637 c 0,4.7154 -1.5972,9.4307 -5.3262,13.1 -4.2593,4.1912 -6.3906,9.9555 -5.3262,16.766 1.5966,7.8601 7.9883,14.146 15.977,15.719 12.781,2.0965 23.432,-7.3362 23.432,-19.387 0,-4.7145 -2.1293,-9.4306 -4.793,-13.098 -3.194,-3.6689 -5.3242,-8.3842 -5.3242,-13.1 0,0 -1.0645,-6.2866 -1.0645,-11.002 0,-2.6206 2.6615,-4.1912 5.3242,-3.668 9.0536,3.1439 23.965,13.622 23.965,16.242 0,5.2377 2.1275,9.4325 5.3242,13.1 3.194,3.6671 5.3262,8.3823 5.3262,13.098 v 10.479 c 0,4.7163 -2.1321,9.4325 -5.3262,13.1 -3.1967,3.6671 -4.793,7.859 -4.793,13.098 0,4.7163 2.1293,9.4316 4.793,13.1 3.194,3.6671 5.3262,8.3823 5.3262,13.098 v 9.9551 c 0,4.7154 -1.598,9.4316 -4.793,13.1 -4.2602,4.1921 -6.3906,9.9555 -5.3262,16.766 1.5966,7.8601 7.9874,14.146 15.977,15.719 12.78,2.0947 23.432,-7.3362 23.432,-19.387 0,-4.7163 -2.1301,-9.4296 -4.791,-13.098 -3.1958,-3.668 -5.3281,-8.3842 -5.3281,-13.1 v -9.9551 c 0,-4.7154 2.1323,-9.4306 5.3281,-13.098 3.194,-3.668 4.791,-7.8601 4.791,-13.1 0,-4.7145 -2.1301,-9.4305 -4.791,-13.098 -3.1958,-3.6671 -5.3281,-8.3833 -5.3281,-13.1 v -10.479 c 0,-4.7154 1.5992,-9.4305 5.3281,-13.098 4.2602,-4.7145 6.3903,-11.529 4.2598,-18.863 -1.5993,-5.7636 -6.3904,-10.479 -12.248,-12.574 -3.7289,-1.5715 -7.4574,-1.571 -10.652,-1.0469 -4.7933,1.0474 -9.5856,0.52336 -14.379,-1.5723 -7.9874,-4.1912 -19.17,-10.48 -19.703,-13.1 -0.53309,-4.7163 -2.1302,-9.4307 -4.793,-13.1 -3.195,-3.6671 -5.3242,-8.3832 -5.3242,-13.098 0,0 -1.0663,-7.858 -0.5332,-12.574 0,-2.0947 2.6624,-3.6678 4.793,-3.1445 5.3246,1.5724 12.782,6.288 18.639,9.9551 3.728,2.6198 6.9221,6.2886 7.9883,11.004 1.0644,3.6671 3.1939,7.3341 6.3906,9.4297 5.8577,4.1912 12.248,4.7171 17.574,3.668 4.7924,-1.0474 10.118,-0.52335 14.91,1.5723 0,0 2.1292,1.0478 4.2598,2.6211 4.2602,2.0947 7.4553,6.2862 9.0527,10.477 1.0644,2.6206 2.132,4.716 4.2617,6.8125 3.1949,3.6671 5.3242,8.3832 5.3242,13.098 v 11.004 c 0,4.7163 -1.598,9.4305 -4.793,13.098 -4.2602,4.1921 -6.3906,9.9566 -5.3262,16.768 1.5975,7.8592 7.9894,14.146 15.979,15.719 12.78,2.0947 23.43,-7.3362 23.43,-19.387 -0.5313,-4.1912 -2.6615,-8.3837 -5.3242,-12.051 -3.1967,-3.668 -5.3242,-8.3834 -5.3242,-13.1 v -11 c 0,-4.7163 1.5962,-9.4325 5.3242,-13.1 4.7933,-4.7163 6.9225,-11.527 4.2598,-19.387 -1.5975,-5.7636 -6.3903,-10.48 -12.248,-12.576 -3.7271,-1.0474 -7.4554,-1.0456 -10.65,-0.52148 -5.3264,1.0474 -10.652,0.52335 -14.912,-1.5723 l -3.7266,-2.0977 c -4.7933,-2.618 -7.9876,-7.3345 -9.5859,-12.051 -1.0644,-3.1439 -3.1948,-6.2859 -6.3906,-7.8574 -6.9221,-4.1921 -13.314,-5.2392 -19.172,-3.1445 -4.2602,1.5724 -8.5191,1.049 -12.779,-0.52344 -5.3264,-2.0947 -12.783,-5.2411 -17.043,-8.9082 -2.1297,-1.5706 -1.5974,-4.7147 0.53321,-6.2871 4.7915,-2.6198 11.715,-6.8102 17.572,-9.9531 4.2602,-2.6206 9.0544,-3.145 13.848,-2.0977 1.0644,0.52323 2.6613,0.52344 3.7266,0.52344 8.5214,0 15.977,-5.2393 18.641,-13.098 1.5966,-4.1921 4.7925,-8.382 9.0527,-10.479 l 5.3242,-2.6191 c 4.2602,-2.6198 9.5857,-2.6196 14.912,-1.5723 3.195,0.52413 6.9232,0.52393 10.65,-0.52344 5.8577,-2.0965 10.651,-6.8126 12.248,-12.576 2.1297,-7.3351 4.7e-4,-14.146 -4.2598,-18.861 -3.1967,-3.668 -5.3242,-8.3842 -5.3242,-13.1 v -8.3828 c 0,-4.7154 1.5961,-9.4297 4.791,-13.098 4.2602,-4.1912 6.3897,-9.9566 5.3262,-16.768 -1.5993,-7.8592 -7.9892,-14.145 -15.977,-15.717 -12.782,-2.0956 -23.432,7.3334 -23.432,19.385 0,4.7154 2.1302,9.4325 4.793,13.1 3.1967,3.668 5.3262,8.3823 5.3262,13.098 v 6.8125 c 0,4.7154 -1.598,9.954 -4.793,13.621 -3.194,3.668 -5.3262,8.3836 -5.3262,13.623 0,2.0956 -12.248,6.8106 -12.248,6.8106 -4.2611,2.6198 -9.5856,3.144 -14.379,2.0957 -1.5966,-0.52323 -3.7287,-0.52344 -5.3262,-0.52344 -11.183,0 -19.703,8.9077 -19.703,19.387 v 1.0488 c 0,0 -17.042,13.097 -26.094,15.717 -2.1306,0.52413 -4.793,-1.0482 -4.793,-3.668 -0.53309,-4.7163 0.5332,-12.049 0.5332,-12.049 0,-4.7163 2.1293,-9.4325 5.3242,-13.1 3.1958,-3.668 4.793,-7.8601 4.793,-13.1 0,-4.1912 21.303,-15.717 21.303,-15.717 4.2602,-2.6198 9.0504,-3.1452 13.844,-2.6211 3.1967,0.52413 6.9252,10e-4 10.652,-1.5703 5.3246,-2.0965 10.117,-6.8134 11.184,-12.576 1.5975,-6.8119 3.5e-4,-13.623 -4.793,-18.338 -3.1958,-3.668 -5.3281,-8.3823 -5.3281,-13.098 v -10.479 c 0,-4.7154 1.6009,-9.4316 4.7949,-13.1 4.2602,-4.1912 6.3906,-9.9546 5.3262,-16.766 -1.5993,-7.8592 -7.9903,-14.147 -15.979,-15.719 -12.781,-2.0956 -23.43,7.3343 -23.43,19.385 0,4.7154 2.1274,9.4325 4.791,13.1 3.1958,3.668 5.3281,8.3842 5.3281,13.1 v 9.9531 c 0,4.7154 -1.6009,9.9557 -4.7949,13.1 -3.1967,3.6671 -5.3242,8.3835 -5.3242,13.623 0,4.7154 -21.834,16.242 -21.834,16.242 -2.6636,1.5724 -6.3906,-0.002 -6.3906,-3.1445 v -7.3359 c 0,-4.7154 1.5971,-9.4296 4.793,-13.098 4.2602,-4.1912 6.3904,-9.9546 5.3242,-16.766 -1.5975,-7.8592 -7.9883,-14.146 -15.977,-15.719 -11.716,-2.0956 -22.365,7.3353 -22.365,19.387 0,4.7154 2.1311,9.4306 4.793,13.098 3.1958,3.668 5.3242,8.3823 5.3242,13.098 v 5.7637 c 0,4.7154 -2.1284,9.4309 -5.3242,13.623 -3.1949,3.1439 -4.793,7.8588 -4.793,12.574 0,4.7154 2.1311,9.4316 4.793,13.1 3.1958,3.6671 5.3242,8.3833 5.3242,13.1 v 5.7637 c 0,4.7145 -2.1284,9.4306 -5.3242,13.098 -1.5975,1.5724 -3.7298,2.6191 -6.3926,2.6191 h -14.91 c -2.6618,0 -4.7923,-1.0468 -6.3906,-2.6191 -3.195,-3.6671 -5.3242,-8.3832 -5.3242,-13.098 v -5.7637 c 0,-4.7163 2.1293,-9.4325 5.3242,-13.1 3.1958,-3.668 4.793,-7.8601 4.793,-13.1 0,-4.7154 -2.1302,-9.4296 -4.793,-13.098 -3.195,-3.668 -5.3242,-8.3835 -5.3242,-13.623 v -5.7637 c 0,-4.7154 2.1293,-9.4305 5.3242,-13.098 3.1958,-3.668 4.793,-7.8601 4.793,-13.1 0,-12.05 -10.651,-21.48 -23.432,-19.385 -7.9883,1.5724 -14.379,7.8576 -15.977,15.717 -1.0635,6.2878 1.0658,12.575 4.793,16.768 3.1949,3.6671 4.793,8.3823 4.793,13.098 v 7.3359 c 0,3.143 -3.7277,5.2391 -6.3887,3.1426 0,0 -21.836,-11.525 -21.836,-16.24 0,-5.2395 -2.1312,-9.955 -5.3262,-13.623 -3.195,-3.6671 -4.791,-8.3842 -4.791,-13.1 v -9.9551 c 0,-4.7154 2.1284,-9.4296 5.3242,-13.098 3.195,-3.6671 4.793,-7.8601 4.793,-13.1 0,-10.921 -8.7476,-19.689 -19.9,-19.678 z M 62.95,156.494 c -10.65,0 -19.703,8.3836 -19.703,19.387 0,10.479 8.5199,19.385 19.703,19.385 11.183,0 20.237,-8.3816 19.705,-19.385 0,-10.479 -8.5219,-19.387 -19.705,-19.387 z m 386.09,0 c -11.183,0 -19.705,8.9077 -19.705,19.387 0,11.003 9.0541,19.385 19.705,19.385 11.182,0 19.703,-8.9058 19.703,-19.385 0,-11.003 -9.0521,-19.387 -19.703,-19.387 z M 50.7,216.752 c -10.65,0 -19.703,8.3836 -19.703,19.387 0,10.479 9.053,19.387 19.703,19.387 10.651,0 19.705,-8.3836 19.705,-19.387 0,-11.0034 -8.5219,-19.387 -19.705,-19.387 z m 60.184,0 c -11.183,0 -20.237,8.3836 -19.705,19.387 0,10.479 8.5219,19.387 19.705,19.387 10.651,0 19.703,-8.3836 19.703,-19.387 0,-10.48 -8.519,-19.387 -19.703,-19.387 z m 290.76,0 c -11.184,0 -19.703,8.9068 -19.703,19.387 0,11.003 9.0521,19.387 19.703,19.387 11.184,0 19.705,-8.9077 19.705,-19.387 0,-11.003 -8.521,-19.387 -19.705,-19.387 z m 59.646,0 c -10.651,0 -19.703,8.3836 -19.703,19.387 0,11.0034 9.0521,19.387 19.703,19.387 11.184,0 19.705,-8.9077 19.705,-19.387 0,-11.003 -9.0541,-19.387 -19.705,-19.387 z M 54.95,277.004 c -11.184,0 -19.705,8.3816 -19.705,19.385 0,10.478 8.521,19.387 19.705,19.387 10.65,0 19.703,-8.3836 19.703,-19.387 0,-10.48 -8.5199,-19.385 -19.703,-19.385 z m 402.61,0 c -11.182,0 -19.701,8.9049 -19.701,19.385 0,11.003 9.0502,19.387 19.701,19.387 11.184,0 19.705,-8.9086 19.705,-19.387 0,-11.003 -8.521,-19.385 -19.705,-19.385 z M 62.94,339.879 c -10.65,0 -19.703,8.9058 -19.703,19.385 0,10.48 8.5199,19.387 19.703,19.387 10.651,0 19.705,-8.3836 19.705,-19.387 0,-10.479 -8.5219,-19.385 -19.705,-19.385 z m 386.09,0 c -11.183,0 -19.705,8.9058 -19.705,19.385 0,11.003 9.0541,19.387 19.705,19.387 11.182,0 19.703,-8.9068 19.703,-19.387 0.53219,-10.479 -8.5208,-19.385 -19.703,-19.385 z M 227.49,392.27 c -11.184,0 -19.703,8.9077 -19.703,19.387 0,10.48 8.519,19.387 19.703,19.387 10.651,0 19.703,-8.3836 19.703,-19.387 0,-10.479 -8.5208,-19.387 -19.703,-19.387 z m 57.52,0 c -11.184,0 -19.703,8.9077 -19.703,19.387 0,11.003 9.0521,19.387 19.703,19.387 11.184,0 19.705,-8.9068 19.705,-19.387 0,-10.479 -9.0541,-19.387 -19.705,-19.387 z m -168.29,4.7148 c -11.183,0 -19.703,8.9077 -19.703,19.387 0,10.478 8.5199,19.385 19.703,19.385 10.651,0 19.705,-8.3816 19.705,-19.385 0,-10.479 -8.5219,-19.387 -19.705,-19.387 z m 279.06,0 c -11.184,0 -19.703,8.9077 -19.703,19.387 0,11.003 9.0521,19.385 19.703,19.385 11.184,0 19.705,-8.9067 19.705,-19.385 0,-10.479 -9.0541,-19.387 -19.705,-19.387 z m -168.29,53.969 c -11.184,10e-6 -19.703,8.9067 -19.703,19.385 0,10.479 8.519,19.387 19.703,19.387 10.651,0 19.703,-8.3836 19.703,-19.387 0,-10.478 -8.5208,-19.385 -19.703,-19.385 z m 57.52,0 c -11.184,0 -19.703,8.9067 -19.703,19.385 0,11.003 9.0521,19.387 19.703,19.387 11.184,0 19.705,-8.9077 19.705,-19.387 0,-10.478 -9.0541,-19.385 -19.705,-19.385 z"
       fill="#367bf0"
       stroke-width="0.89595"
       id="path1262"
       style="opacity:0.238193;fill:#00baff;fill-opacity:1" />
    <path
       id="path1266"
       style="opacity:1;fill:#0e8fff;fill-opacity:1"
       d="m 169.26435,57.699191 -0.006,0.002 c -1.1537,10e-4 -2.33315,0.0965 -3.53125,0.29297 -7.9883,1.5715 -14.37857,7.85739 -15.97657,15.71679 -1.0644,6.2869 1.06598,12.57558 5.32618,16.76758 3.1958,3.668 4.79296,8.38196 4.79297,13.097659 v 10.48047 c 0,4.7154 -1.59808,9.43121 -5.32618,13.09961 -4.2602,4.7154 -6.39037,11.00289 -4.79297,18.33789 1.5975,5.7636 5.8577,10.47922 11.1836,12.57422 3.728,1.5715 7.45577,2.09636 10.65039,1.57226 4.79329,-0.52413 9.5852,-5.7e-4 13.8457,2.61914 0,0 20.76974,11.52775 21.30274,15.71875 0,4.7154 2.13107,9.43121 4.79296,13.09961 3.19581,3.668 5.32618,8.38301 5.32618,13.09961 0,0 1.0643,7.33432 0.53125,12.05078 0,2.0947 -2.66237,4.18922 -4.79297,3.66602 -9.5866,-2.6198 -26.09375,-15.71679 -26.09375,-15.7168 v -1.04883 c 0,-11.002 -9.05313,-19.38672 -19.70313,-19.38672 -1.5975,0 -3.72867,-6.9e-4 -5.32617,0.52344 -4.7933,1.5715 -10.11891,0.52404 -14.37891,-2.0957 0,0 -11.71504,-4.71485 -12.24804,-6.81055 -0.53219,-5.2395 -2.13027,-9.95505 -5.32617,-13.62305 -3.7271,-3.6671 -4.79297,-8.38364 -4.79297,-13.62304 v -6.28711 c 0,-4.7154 2.13117,-9.42936 5.32617,-13.09766 3.195,-3.6671 4.79297,-7.86061 4.79297,-13.09961 0,-12.051 -10.64964,-21.479759 -23.43164,-19.384759 -7.9883,1.5715 -14.37856,7.857289 -15.97656,15.716789 -1.0653,6.28681 1.06486,12.57558 4.79296,16.76758 3.195,3.668 4.79297,8.38196 4.79297,13.09766 v 7.85937 c 0,4.7154 -1.59897,9.43121 -5.32617,13.09961 -4.2602,4.7154 -6.39026,11.52634 -4.25976,18.86133 1.5975,5.7627 6.38944,10.47922 12.24804,12.57422 3.7271,1.0474 7.45579,1.5728 10.65039,0.52539 4.7933,-1.0482 10.12011,-0.5253 14.91211,1.57031 l 5.32422,2.6211 c 4.2602,2.0947 7.45719,5.76166 9.05469,10.47656 2.6628,7.336 10.11767,13.10156 18.63867,13.10156 1.5984,0 2.66227,6.9e-4 4.25977,-0.52344 4.7933,-1.0483 9.58431,-0.52225 13.8457,2.09571 5.85681,3.1457 13.31322,7.33438 17.57422,9.95508 2.1297,1.0465 2.6638,4.7147 0.5332,6.2871 -4.2602,3.143 -11.71697,6.28655 -17.04297,8.90625 -3.7271,1.5724 -8.52006,2.09781 -12.24804,0.5254 -5.85771,-2.0947 -12.24888,-1.57194 -19.17188,3.14257 -3.1949,2.09649 -4.79117,4.71548 -6.38867,7.85938 -1.5975,5.2395 -4.79354,9.42988 -9.58594,12.05078 l -3.72851,2.0957 c -4.7933,2.6197 -10.11716,2.61957 -14.91016,1.57227 -3.195,-0.52502 -6.92466,-0.52376 -10.65234,0.52539 -5.85771,2.0947 -10.65005,6.80976 -12.24805,12.57226 -2.1297,7.336 6.2e-4,14.14668 4.26172,19.38672 3.195,3.6671 5.32422,8.38286 5.32422,13.09766 v 11.00391 c 0,4.7163 -2.12932,9.4303 -5.32422,13.09961 -3.1958,3.6671 -4.79297,7.85785 -4.79297,13.09765 0,12.05 10.65063,21.48272 23.43164,19.38672 7.98829,-1.5724 14.37856,-7.85835 15.97656,-15.71875 1.0653,-6.2868 -1.06587,-12.57362 -5.32617,-16.76562 -3.1949,-3.6689 -4.79297,-8.38301 -4.79297,-13.09961 v -11.00391 c 0,-4.7145 2.12932,-9.43026 5.32422,-13.09766 1.5984,-2.0956 3.19732,-4.19074 4.26172,-6.81054 1.5984,-4.7145 4.79253,-8.38347 9.05273,-10.48047 2.6628,-1.5724 4.25977,-2.6211 4.25977,-2.6211 4.2602,-2.6198 9.58671,-2.61956 14.91211,-1.57226 5.3255,1.0483 11.18322,0.52609 17.57422,-3.66602 3.195,-2.0965 5.85647,-5.76454 6.38867,-9.43164 1.0644,-4.7163 3.72808,-8.38215 7.98828,-11.00195 5.8577,-3.6671 13.31367,-8.38358 18.63867,-9.95508 2.1306,-0.52503 4.26077,1.04608 4.79297,3.14258 0.53309,4.7145 -0.53125,12.57617 -0.53125,12.57617 0,4.7154 -2.13117,9.43041 -5.32617,13.09961 -3.1958,3.6671 -4.79297,7.85786 -4.79297,13.09766 0,2.6198 -11.18408,8.90711 -19.70508,13.09961 -4.2593,2.0947 -9.58445,2.61951 -14.37695,1.57031 -3.1958,-0.52324 -6.92084,-0.52163 -10.64844,1.05078 -5.8577,2.0947 -10.65105,6.80977 -12.24805,12.57226 -2.1297,7.3351 -4.8e-4,14.14733 4.25977,18.86133 3.1958,3.66891 5.32422,8.38301 5.32422,13.09961 v 10.48047 c 0,4.7154 -2.12842,9.43016 -5.32422,13.09766 -3.1949,3.668 -4.79297,7.85971 -4.79297,13.09961 0,4.7145 2.13017,9.4303 4.79297,13.09765 3.1958,3.66711 5.32422,8.38301 5.32422,13.09961 v 9.95313 c 0,4.7162 -2.12842,9.43226 -5.32422,13.10156 -3.1949,3.6671 -4.79297,7.85696 -4.79297,13.09766 0,12.05 10.64964,21.48173 23.43164,19.38671 7.9883,-1.5724 14.37656,-7.85925 15.97656,-15.71874 1.0644,-6.28691 -1.06677,-12.57463 -5.32617,-16.76563 -3.1958,-3.6689 -4.79297,-8.38496 -4.79297,-13.10156 v -9.95313 c 0,-4.7163 2.13118,-9.4321 5.32617,-13.09961 3.19401,-3.6671 4.79297,-7.85875 4.79297,-13.09765 0,-4.7163 -2.13016,-9.43121 -4.79297,-13.09961 -3.19499,-3.6671 -5.32617,-8.38275 -5.32617,-13.62305 v -10.47852 c 0,-4.71539 2.13118,-9.4321 5.32617,-13.0996 3.19401,-3.6671 4.79292,-7.86151 5.32422,-13.09961 0,-3.1439 14.91085,-13.09819 23.96485,-16.24219 2.6636,-1.0465 4.79292,1.04727 5.32422,3.66797 0,4.71539 -1.06446,11.00195 -1.06446,11.00195 0,4.7154 -2.12932,9.43031 -5.32422,13.09961 -3.1958,3.6671 -4.79296,7.85981 -4.79296,13.09961 0,12.05 11.18064,21.48272 23.43164,19.38672 7.9874,-1.5724 14.38051,-7.85835 15.97851,-15.71875 1.0644,-6.2869 -1.06597,-12.57558 -5.32617,-16.76758 -3.195,-3.6689 -5.32422,-8.38381 -5.32422,-13.09961 v -5.76367 c 0,-4.7145 2.12932,-9.42909 5.32422,-13.62109 3.1958,-3.6671 4.79297,-7.85971 4.79297,-13.09961 0,-4.7163 -2.13017,-9.43031 -4.79297,-13.09961 -3.195,-3.6671 -5.32422,-8.3835 -5.32422,-13.6211 v -5.24023 c 0,-5.2395 1.59712,-9.95595 5.32422,-13.62305 0.53308,-0.52323 1.06641,-1.04711 1.06641,-1.57031 1.5966,-2.0965 4.25907,-3.14453 6.92187,-3.14453 h 11.7168 c 2.6628,0 5.32643,1.57147 6.92383,3.66797 l 0.53125,0.52539 c 3.1958,3.6671 5.32617,8.38169 5.32617,13.62109 v 5.76367 c 0,4.7145 -2.13027,9.43 -5.32617,13.6211 -3.1949,3.6689 -4.79297,7.85881 -4.79297,13.09961 0,4.7154 2.13107,9.43211 4.79297,13.09961 3.1958,3.668 5.32617,8.38169 5.32617,13.62109 v 5.76367 c 0,4.7154 -1.59717,9.43218 -5.32617,13.10156 -4.2593,4.1912 -6.39058,9.95513 -5.32618,16.76563 1.5966,7.8601 7.98787,14.14575 15.97657,15.71875 12.781,2.0965 23.43164,-7.33592 23.43164,-19.38672 0,-4.7145 -2.12926,-9.43029 -4.79297,-13.09766 -3.19399,-3.66891 -5.32422,-8.38576 -5.32422,-13.10156 0,0 -1.06445,-6.28656 -1.06445,-11.00195 0,-2.6206 2.66152,-4.19117 5.32422,-3.66797 9.0536,3.1439 23.96484,13.62219 23.96484,16.24219 0,5.2377 2.12752,9.43211 5.32422,13.09961 3.194,3.6671 5.32617,8.38391 5.32617,13.0996 v 10.47852 c 0,4.7163 -2.13207,9.43211 -5.32617,13.09961 -3.1967,3.6671 -4.79297,7.85866 -4.79297,13.09766 0,4.7163 2.12927,9.43121 4.79297,13.09961 3.194,3.6671 5.32617,8.38391 5.32617,13.0996 v 9.95508 c 0,4.71539 -1.59797,9.43121 -4.79297,13.09961 -4.2602,4.1921 -6.39057,9.95513 -5.32617,16.76563 1.5966,7.8601 7.98696,14.14575 15.97656,15.71875 12.78,2.0947 23.43164,-7.33592 23.43164,-19.38672 0,-4.7163 -2.13011,-9.42926 -4.79101,-13.09766 -3.1958,-3.668 -5.32813,-8.38381 -5.32813,-13.09961 v -9.95508 c 0,-4.71539 2.13233,-9.4322 5.32813,-13.0996 3.194,-3.668 4.79101,-7.85971 4.79101,-13.09961 0,-4.7145 -2.13011,-9.43016 -4.79101,-13.09766 -3.1958,-3.6671 -5.32813,-8.38291 -5.32813,-13.09961 v -10.47852 c 0,-4.71539 1.59923,-9.4321 5.32813,-13.0996 4.2602,-4.7145 6.39222,-11.52733 4.26172,-18.86133 -1.5993,-5.7636 -6.39045,-10.47922 -12.24805,-12.57422 -3.7289,-1.5715 -7.45774,-1.57098 -10.65235,-1.04688 -4.79329,1.0474 -9.58551,0.5234 -14.3789,-1.57226 -7.98741,-4.1912 -19.17013,-10.48156 -19.70313,-13.10156 -0.53309,-4.7163 -2.13016,-9.43031 -4.79297,-13.09961 -3.19499,-3.6671 -5.32421,-8.38286 -5.32421,-13.09766 0,0 -1.06631,-7.85822 -0.53321,-12.57422 0,-2.0947 2.66237,-3.66783 4.79297,-3.14453 5.3246,1.5724 12.78167,6.28798 18.63867,9.95508 3.728,2.6198 6.92209,6.2885 7.98828,11.0039 1.06441,3.6671 3.19393,7.33409 6.39063,9.42969 5.8577,4.1912 12.24822,4.71707 17.57422,3.66797 4.7924,-1.0474 10.11816,-0.52338 14.91015,1.57227 0,0 2.12917,1.04779 4.25977,2.62109 4.2602,2.0947 7.45533,6.28576 9.05273,10.47656 1.06441,2.6206 2.13202,4.716 4.26172,6.8125 3.1949,3.6671 5.32422,8.38481 5.32422,13.09961 v 11.00391 c 0,4.7163 -1.59797,9.43015 -4.79297,13.09765 -4.2602,4.1921 -6.39057,9.95618 -5.32617,16.76758 1.5975,7.8592 7.98892,14.14575 15.97852,15.71875 12.78,2.0947 23.42969,-7.33592 23.42968,-19.38672 -0.5313,-4.1912 -2.66151,-8.38348 -5.32421,-12.05078 -3.1967,-3.668 -5.32422,-8.38302 -5.32422,-13.09961 v -11 c 0,-4.7163 1.59622,-9.43211 5.32422,-13.09961 4.7933,-4.7163 6.92246,-11.52867 4.25976,-19.38867 -1.5975,-5.7636 -6.39034,-10.47822 -12.24805,-12.57422 -3.7271,-1.04741 -7.45579,-1.0456 -10.65039,-0.52148 -5.3264,1.0474 -10.6521,0.52339 -14.91211,-1.57227 l -3.72656,-2.09961 c -4.7933,-2.618 -7.98764,-7.33428 -9.58594,-12.05078 -1.0644,-3.1439 -3.19482,-6.28592 -6.39062,-7.85742 -6.9221,-4.1921 -13.31388,-5.23923 -19.17188,-3.14453 -4.26019,1.5724 -8.51939,1.049 -12.77929,-0.52344 -5.3264,-2.0947 -12.78297,-5.2411 -17.04297,-8.9082 -2.1297,-1.5706 -1.59741,-4.71471 0.5332,-6.28711 4.7915,-2.6198 11.71527,-6.81023 17.57227,-9.95312 4.2602,-2.6206 9.05405,-3.14496 13.84765,-2.09766 1.0644,0.52323 2.66322,0.52344 3.72852,0.52344 8.5214,0 15.97663,-5.23896 18.64062,-13.09766 1.5966,-4.1921 4.79254,-8.38152 9.05274,-10.47852 l 5.32422,-2.61914 c 4.2602,-2.6198 9.58581,-2.61956 14.91211,-1.57226 3.195,0.52413 6.92164,0.52393 10.64843,-0.52344 5.8577,-2.0965 10.65105,-6.81277 12.24805,-12.57617 2.1297,-7.3351 5.1e-4,-14.14633 -4.25976,-18.86133 -3.1967,-3.668 -5.32422,-8.3838 -5.32422,-13.09961 v -8.38281 c 0,-4.7154 1.59611,-9.42936 4.79101,-13.09766 4.2602,-4.1912 6.38966,-9.95617 5.32618,-16.76758 -1.5993,-7.8592 -7.98877,-14.144789 -15.97657,-15.716789 -12.782,-2.0956 -23.43164,7.333159 -23.43164,19.384759 0,4.7154 2.13017,9.43211 4.79297,13.09961 3.1967,3.668 5.32617,8.38196 5.32617,13.09766 v 6.8125 c 0,4.7154 -1.59797,9.95409 -4.79297,13.62109 -3.194,3.668 -5.32617,8.38365 -5.32617,13.62305 0,2.0956 -12.24804,6.81054 -12.24805,6.81055 -4.26109,2.6198 -9.58553,3.144 -14.3789,2.0957 -1.5966,-0.52323 -3.72867,-0.52344 -5.32617,-0.52344 -11.183,0 -19.70313,8.90742 -19.70313,19.38672 v 1.04883 c 0,0 -17.04175,13.0968 -26.09375,15.7168 -2.1306,0.52413 -4.79297,-1.04817 -4.79297,-3.66797 -0.53309,-4.71632 0.53321,-12.04883 0.53321,-12.04883 0,-4.7163 2.12932,-9.43211 5.32421,-13.09961 3.1958,-3.668 4.79297,-7.85971 4.79297,-13.09961 0,-4.1912 21.30274,-15.7168 21.30274,-15.7168 4.2602,-2.6198 9.05015,-3.14519 13.84375,-2.62109 3.1967,0.52413 6.92554,9.9e-4 10.65234,-1.57031 5.3246,-2.0965 10.1166,-6.81358 11.1836,-12.57618 1.5975,-6.8119 3.8e-4,-13.62289 -4.79297,-18.33789 -3.1958,-3.668 -5.32813,-8.3839 -5.32813,-13.09961 v -10.47851 c 0,-4.715389 1.60092,-9.431209 4.79492,-13.099609 4.2602,-4.1912 6.39058,-9.95423 5.32618,-16.76563 -1.5993,-7.8592 -7.98982,-14.14675 -15.97852,-15.71875 -12.781,-2.0956 -23.42969,7.33407 -23.42969,19.38477 0,4.7154 2.12742,9.43211 4.79102,13.09961 3.1958,3.668 5.32812,8.38382 5.32812,13.099609 v 9.95312 c 0,4.71541 -1.60092,9.95531 -4.79492,13.09961 -3.1967,3.6671 -5.32422,8.38355 -5.32422,13.62305 0,4.7154 -21.83398,16.24219 -21.83398,16.24219 -2.6636,1.5724 -6.39063,-0.002 -6.39063,-3.14453 v -7.33594 c 0,-4.7154 1.59707,-9.42926 4.79297,-13.09766 4.2602,-4.1912 6.39042,-9.95422 5.32422,-16.76562 -1.5975,-7.85921 -7.98786,-14.14575 -15.97656,-15.71875 -11.716,-2.095599 -22.36524,7.33501 -22.36524,19.38672 0,4.7154 2.13107,9.43025 4.79297,13.09765 3.1958,3.668 5.32422,8.38196 5.32422,13.09766 v 5.76367 c 0,4.7154 -2.12842,9.43095 -5.32422,13.62305 -3.1949,3.1439 -4.79297,7.85902 -4.79297,12.57422 0,4.7154 2.13107,9.4312 4.79297,13.09961 3.1958,3.6671 5.32422,8.38486 5.32422,13.10156 v 5.76367 c 0,4.7145 -2.12842,9.43026 -5.32422,13.09766 -1.5975,1.5724 -3.72978,2.61914 -6.39258,2.61914 h -14.91015 c -2.6618,0 -4.79233,-1.04684 -6.39063,-2.61914 -3.195,-3.6671 -5.32422,-8.38286 -5.32422,-13.09766 v -5.76367 c 0,-4.7163 2.12932,-9.43407 5.32422,-13.10156 3.1958,-3.66801 4.79297,-7.85971 4.79297,-13.09961 0,-4.7154 -2.13017,-9.42926 -4.79297,-13.09766 -3.195,-3.668 -5.32422,-8.38355 -5.32422,-13.62305 v -5.76367 c 0,-4.7154 2.12932,-9.43015 5.32422,-13.09765 3.1958,-3.668 4.79297,-7.85971 4.79297,-13.09961 0,-12.05001 -10.65064,-21.479769 -23.43164,-19.38477 -7.9883,1.5724 -14.38051,7.8573 -15.97851,15.7168 -1.0635,6.2878 1.06576,12.57458 4.79296,16.76758 3.1949,3.6671 4.79297,8.38195 4.79297,13.09765 v 7.33594 c 0,3.143 -3.72767,5.23908 -6.38867,3.14258 0,0 -21.83594,-11.52524 -21.83594,-16.24024 0,-5.2395 -2.13117,-9.95504 -5.32617,-13.62304 -3.195,-3.66711 -4.79101,-8.38382 -4.79101,-13.09961 v -9.95508 c 0,-4.715399 2.12841,-9.429259 5.32422,-13.097659 3.19499,-3.6671 4.79296,-7.85971 4.79296,-13.09961 0,-10.921 -8.74603,-19.69068 -19.89843,-19.67969 z" />
  </g>
</svg>
