<?xml version="1.0" encoding="UTF-8" standalone="no"?>
<!-- Created with Inkscape (http://www.inkscape.org/) -->

<svg
   version="1.1"
   id="svg366"
   width="512"
   height="512"
   viewBox="0 0 512 512"
   sodipodi:docname="spraykatz.svg"
   inkscape:version="1.2.2 (b0a8486541, 2022-12-01)"
   inkscape:export-filename="../GIT Icons/spraykatz.png"
   inkscape:export-xdpi="96"
   inkscape:export-ydpi="96"
   xmlns:inkscape="http://www.inkscape.org/namespaces/inkscape"
   xmlns:sodipodi="http://sodipodi.sourceforge.net/DTD/sodipodi-0.dtd"
   xmlns="http://www.w3.org/2000/svg"
   xmlns:svg="http://www.w3.org/2000/svg">
  <defs
     id="defs370" />
  <sodipodi:namedview
     id="namedview368"
     pagecolor="#505050"
     bordercolor="#eeeeee"
     borderopacity="1"
     inkscape:showpageshadow="0"
     inkscape:pageopacity="0"
     inkscape:pagecheckerboard="0"
     inkscape:deskcolor="#505050"
     showgrid="false"
     inkscape:zoom="0.69532167"
     inkscape:cx="196.31202"
     inkscape:cy="252.40117"
     inkscape:window-width="1366"
     inkscape:window-height="695"
     inkscape:window-x="0"
     inkscape:window-y="24"
     inkscape:window-maximized="1"
     inkscape:current-layer="g372" />
  <g
     inkscape:groupmode="layer"
     inkscape:label="Image"
     id="g372">
    <g
       id="g4206"
       transform="matrix(1.8746742,0,0,1.9594455,31.076905,20.86777)">
      <path
         id="path547-3"
         style="fill:#ffffff;stroke-width:1.26077"
         d="m 174.13867,-3.7988281 c -4.05669,0.074106 -7.55217,2.367726 -10.96675,4.28883365 -5.69564,3.07636045 -11.31613,6.29256095 -17.08989,9.22483825 -0.90122,0.4289002 -2.02049,1.0271632 -3.02891,1.4752782 -0.62282,0.153392 -1.28783,-0.192371 -1.9314,-0.214118 -6.96509,-1.021064 -14.02416,-1.0047016 -21.04698,-1.1400713 -8.40829,-0.059268 -16.83967,-0.00284 -25.210115,0.8650203 -1.296819,0.13139 -2.688639,0.686799 -3.92009,0.0036 C 88.615295,9.6674174 86.366678,8.4563214 84.07436,7.3392665 77.788225,4.1540609 71.639763,0.70168806 65.370671,-2.5119376 60.48851,-4.6263691 54.482189,-3.7881677 50.38289,-0.38804921 46.499728,2.3536589 43.505453,6.5017478 42.671098,11.233399 c -0.969744,4.731856 -0.709887,9.591049 -0.882583,14.3902 -0.09725,5.82514 -0.167737,11.686609 -0.448789,17.450187 -0.1201,2.173937 -0.22423,4.390715 -0.369023,6.486761 -4.679587,0.488494 -9.121652,3.505235 -10.892465,7.928815 -1.813874,4.231723 -1.078681,9.309964 1.566058,13.031093 0.66773,0.98025 1.434478,1.895358 2.287345,2.719779 -4.450842,1.641965 -7.87086,5.789606 -8.519252,10.503831 -0.772626,4.52995 1.149405,9.319827 4.692847,12.205829 1.169104,0.969743 2.489726,1.766664 3.912342,2.304012 -2.59615,2.229064 -4.495894,5.358044 -4.824219,8.804684 -0.571048,4.72367 1.497846,9.73454 5.461998,12.44125 3.612509,2.57135 8.490461,2.95901 12.597368,1.41905 3.127873,-1.04146 5.98328,-2.72114 8.844931,-4.32709 1.773438,1.70117 3.546875,3.40234 5.320313,5.10351 -4.372873,15.19303 -8.913418,30.33711 -13.384825,45.50067 -2.804927,10.57848 -3.74328,21.87771 -1.126605,32.59408 2.653681,11.2362 9.356723,21.23714 17.934096,28.84442 6.631568,6.04706 14.458699,10.98761 23.150061,13.41803 7.688767,1.58275 15.578594,1.45698 23.387714,1.65813 8.9628,0.10897 17.93386,0.20986 26.89112,-0.17353 5.0847,-0.35267 10.11151,-1.64589 14.67028,-3.94241 10.88187,-5.00158 20.35325,-13.02719 27.11882,-22.90484 3.78296,-5.6203 6.22607,-12.03776 7.76181,-18.6104 1.34223,-5.49424 2.12135,-11.17703 1.73272,-16.83873 0.73544,-2.25718 2.09292,-4.27381 3.17507,-6.38393 6.19865,-11.14069 13.0255,-21.91122 19.03223,-33.16936 1.30733,-2.53491 2.53319,-5.18388 2.80631,-8.05937 0.88891,-7.25415 -2.2372,-14.7225 -7.70075,-19.50104 -0.70385,-0.63286 -1.44716,-1.22147 -2.22149,-1.7657 1.38684,-4.81833 -0.0836,-10.4361 -3.9621,-13.698423 -0.71321,-0.43205 -0.15572,-0.583199 0.40546,-0.784001 5.51881,-2.322996 8.87369,-8.726906 7.72744,-14.58853 -0.80049,-4.383716 -4.00106,-8.151977 -8.06338,-9.90561 2.94625,-2.926643 4.77693,-7.088197 4.39102,-11.277774 -0.35194,-4.968156 -3.54484,-9.742911 -8.25039,-11.560117 -1.06348,-0.43955 -2.18759,-0.733366 -3.33008,-0.871094 -0.59758,-8.360312 -0.94057,-16.681837 -1.07462,-25.03397 -0.091,-4.563356 -0.004,-9.172119 -0.85897,-13.675014 C 190.71174,6.5554643 188.1663,2.5188593 184.55665,-0.18277612 181.61724,-2.4910953 177.91171,-3.9593942 174.13867,-3.7988281 Z M 66.539062,25.552734 c 0.381019,0.131092 0.519338,0.593678 0.03897,0.72809 -0.383776,0.538033 -1.090792,0.665203 -0.966706,-0.185121 0.04072,-0.722054 0.284911,-0.776913 0.927734,-0.542969 z M 168.12109,26.375 c -0.98879,-0.203283 -0.39206,-0.492202 0.20703,-0.78125 -0.069,0.260417 -0.13802,0.520833 -0.20703,0.78125 z m -25.3125,13.789062 c 2.48952,1.268382 4.95612,2.478832 7.3313,3.853285 3.64072,2.058558 6.99837,4.705347 9.4926,8.091208 2.23295,2.871059 4.03678,6.077757 5.32063,9.481289 -1.70097,0.953454 -3.3959,1.925046 -5.00195,3.033203 -0.72991,-3.819063 -2.66048,-7.450832 -5.70102,-9.922707 -4.4526,-3.673296 -10.72267,-4.726602 -16.26187,-3.370262 -4.68615,1.13537 -8.99179,4.258499 -11.00586,8.710938 -4.6414,-1.041119 -9.44807,-1.034629 -14.17578,-0.791016 -1.42767,0.113405 -2.85471,0.265995 -4.26172,0.537109 -2.1874,-4.168019 -6.19946,-7.328032 -10.792742,-8.397987 -6.185059,-1.635811 -13.302444,-0.07897 -17.820537,4.573769 -2.535305,2.564412 -3.836605,6.099393 -4.439453,9.580078 -1.891546,-1.475689 -3.945742,-2.726864 -6.039063,-3.892578 2.697221,-6.818087 7.723744,-12.554235 13.665763,-16.764836 1.290424,-0.907902 2.484595,-1.624825 3.863534,-2.428524 2.02519,-1.156146 4.140694,-2.145456 6.220703,-3.191406 15.950525,-0.0026 31.901045,-0.0052 47.851565,-0.0078 0.58463,0.302084 1.16927,0.604167 1.7539,0.90625 z M 82.615234,87.152344 c 1.612976,1.235062 3.425535,2.21216 5.355469,2.849609 0.502398,5.343785 3.775412,10.087307 7.98427,13.266067 4.605077,3.56897 10.732197,5.3611 16.499727,4.14065 1.52778,-0.25402 3.00482,-0.85521 4.54126,-0.99399 2.39619,0.59293 4.82034,1.28779 7.31612,1.12499 6.99937,0.0228 14.15865,-3.35998 17.92661,-9.37948 1.40885,-2.302734 2.2777,-4.930862 2.58748,-7.603549 2.55567,-0.432755 4.97904,-1.51215 7.08399,-3.013672 0.058,0.694874 0.38268,1.367921 0.0821,2.045391 -0.82673,3.698973 0.0858,7.64708 2.07802,10.82766 -3.13607,2.59491 -6.35169,5.20054 -10.06445,6.92578 -3.00769,1.09043 -6.26202,0.93984 -9.40696,1.16196 -8.2766,0.2615 -16.66451,0.34944 -24.98952,0.35952 -5.27993,-0.0459 -10.584779,-0.0645 -15.82613,-0.76566 -3.300407,-0.50766 -6.551707,-1.69482 -9.139538,-3.85169 -1.469701,-1.07829 -2.849291,-2.2721 -4.215978,-3.4764 1.88828,-3.468374 2.622772,-7.657927 1.570313,-11.503905 0.201505,-0.745125 0.346332,-1.506358 0.416015,-2.275391 0.06706,0.05404 0.134115,0.108073 0.201172,0.16211 z m 5.457032,48.728516 c 5.968129,1.32467 12.067194,2.05476 18.181844,2.10546 8.82054,0.27177 17.65069,0.18513 26.4695,-0.0904 5.02401,-0.24348 10.0414,-0.89242 14.91701,-2.1479 0.65271,2.38396 1.33966,4.75752 2.01758,7.13476 -3.7685,1.689 -6.59136,5.24334 -7.44205,9.27916 -0.99874,4.14471 -0.46088,8.43908 -0.87045,12.64696 -0.74296,11.63379 -3.36336,23.03068 -5.83664,34.38968 -0.10589,0.33057 -0.32047,1.7015 -0.35749,1.37289 -0.11801,-6.4944 -0.21039,-12.99463 -0.62398,-19.47761 -0.37088,-4.30547 -1.63246,-8.78181 -4.78442,-11.90076 -4.40278,-4.57065 -11.23942,-6.94981 -17.4804,-5.41924 -4.72906,1.1431 -8.80075,4.46332 -11.05162,8.75396 -1.829064,3.36942 -2.450393,7.23729 -2.528357,11.03003 -0.277496,4.08372 -0.403955,8.17597 -0.46209,12.26829 -1.636397,-7.81764 -3.098421,-15.69612 -4.201742,-23.56234 -0.775656,-4.82828 -0.919706,-9.72388 -1.49357,-14.57438 -0.437933,-3.06615 -0.954794,-6.20424 -2.36213,-8.99459 -1.216895,-2.32802 -3.095742,-4.32575 -5.401542,-5.5972 0.718133,-2.49559 1.426965,-4.99389 2.175781,-7.48047 0.378255,0.0879 0.75651,0.17578 1.134766,0.26367 z" />
      <path
         id="path3729"
         style="fill:#5f5fff;fill-opacity:0.983446;stroke-width:2.57797"
         d="m 190.88086,121.93359 c -1.73137,0.10805 -3.41073,0.8293 -4.8125,1.83008 -2.6426,2.17694 -4.41969,5.16992 -6.29545,7.98598 -4.07574,6.40831 -7.89934,12.97263 -11.83541,19.46715 1.92441,7.26342 3.68381,14.58025 6.13127,21.69192 0.2394,0.30752 0.2629,1.73745 0.66244,1.21246 1.8867,-2.32099 3.96307,-4.50515 5.49865,-7.08871 4.92107,-7.77548 9.57567,-15.7199 14.09647,-23.7342 1.86955,-3.42038 3.81351,-6.83286 5.17367,-10.49554 1.08452,-2.86981 -0.20405,-6.13845 -2.36399,-8.14301 -1.60646,-1.47589 -3.71296,-2.3891 -5.85671,-2.71441 -0.13272,-0.003 -0.26566,-0.0223 -0.39844,-0.0117 z" />
      <path
         id="path3727"
         style="fill:#5f5fff;fill-opacity:0.983446;stroke-width:2.57797"
         d="m 79.615234,120.11133 c -1.687236,0.26512 -2.436147,2.04225 -3.018962,3.44262 -1.913652,4.96861 -3.325653,10.1125 -4.899458,15.19437 -3.053314,10.27749 -6.128143,20.5516 -9.175257,30.83193 -1.818734,6.93381 -2.445597,14.17906 -1.938438,21.32608 0.295776,4.18347 1.188278,8.36857 3.115185,12.12047 3.045295,6.12265 7.331927,11.60598 12.368954,16.21628 2.888874,2.63326 6.184018,4.8354 9.752672,6.4314 0.793083,0.31289 1.610934,-0.078 2.416398,-0.1569 0.228744,-0.97737 0.483787,-1.97384 0.163085,-2.96395 -0.741225,-3.63473 -1.717379,-7.12598 -2.468933,-10.73281 -1.797294,-8.11021 -3.417719,-16.2398 -4.891921,-24.44531 -0.632449,-3.54184 -1.237381,-7.11351 -1.755356,-10.63918 -0.529065,-3.60582 -0.995908,-7.2571 -1.273437,-10.77735 -0.193471,-3.19415 -0.478299,-6.45941 0.225606,-9.61061 0.146672,0.14302 0.246511,1.08956 0.338725,1.55451 0.866741,6.10914 1.19402,12.28362 2.153552,18.38196 1.339682,9.12275 3.171491,18.16288 5.13438,27.16942 1.367078,6.2112 2.679941,12.43986 4.309846,18.58871 0.897824,2.84536 2.729984,5.65702 5.56938,6.84354 1.640365,0.58069 3.427908,0.38888 5.138445,0.51721 3.69716,0.10373 7.39668,0.1077 11.09491,0.16269 0.13642,-14.23695 0.16866,-28.47522 0.39297,-42.71112 0.10848,-2.26576 -0.0185,-4.58566 0.54261,-6.7985 0.44526,-0.98836 0.98182,-2.05392 1.86911,-2.69741 1.82833,-0.55938 3.92332,0.2369 5.17187,1.62109 0.85412,2.41284 0.89944,5.01972 1.10406,7.54805 0.34504,6.03439 0.19166,12.11605 0.33355,18.20425 0.12411,8.15966 0.40932,16.31555 0.65028,24.47231 5.33705,-0.19473 10.68727,-0.14968 16.01144,-0.59945 1.4833,-0.17964 3.34664,-0.2764 4.13114,-1.77751 1.24826,-2.45406 1.86609,-5.17073 2.63624,-7.80068 2.84519,-10.67259 5.15632,-21.47851 7.33257,-32.30464 1.62236,-8.18138 2.73274,-16.47284 3.0325,-24.81312 0.11132,-2.02764 0.17111,-4.0662 0.49674,-6.07374 1.23649,2.33187 0.99503,5.0801 0.9513,7.63141 -0.11601,2.60527 -0.38074,5.23035 -0.67201,7.70453 -1.66558,13.28656 -4.34764,26.42119 -7.22389,39.49121 -0.86782,4.07993 -1.9472,8.13193 -2.42259,12.28418 -0.0184,0.58297 0.1482,1.23004 0.43645,1.70193 0.69321,0.49737 1.53521,0.8314 2.38753,0.56259 2.24632,-0.73798 4.19092,-2.15933 6.15586,-3.43788 3.21321,-2.12418 6.13682,-4.69035 8.54005,-7.70765 3.83534,-4.68967 6.82364,-10.06643 8.85382,-15.77033 1.76108,-5.0705 1.43879,-10.52877 1.09949,-15.79589 -0.59377,-6.94441 -2.59898,-13.65715 -4.38342,-20.36384 -3.31095,-12.04905 -6.92075,-24.01657 -10.08443,-36.10608 -0.41635,-1.53814 -0.63917,-3.25109 -1.66941,-4.52035 -1.42613,-1.48974 -3.69929,-1.24871 -5.55984,-0.98693 -4.54356,0.73201 -8.90459,2.33579 -13.48051,2.91006 -4.32489,0.62593 -8.72274,0.76813 -13.02682,0.85513 -5.8431,0.0739 -11.68853,0.10132 -17.53049,-0.0595 -1.98371,-0.0637 -4.16781,-0.15505 -6.2248,-0.31328 -1.57899,-0.11644 -3.154004,-0.28076 -4.724418,-0.48165 -0.488811,-0.0784 -1.328748,-0.18114 -1.953179,-0.2902 -1.100056,-0.17782 -2.231442,-0.38451 -3.210368,-0.58809 -0.99908,-0.20413 -1.899171,-0.40827 -2.941826,-0.65802 -2.940229,-0.68725 -5.869611,-1.52509 -8.882908,-1.8133 -0.166715,0.003 -0.33458,-0.0147 -0.498047,0.0273 z" />
      <path
         id="path618"
         style="fill:#5f5fff;fill-opacity:0.983446;stroke-width:2.57797"
         d="m 89.261719,25.929688 c -5.077526,2.59352 -10.249134,5.083593 -14.848472,8.490845 -7.637267,5.472702 -13.886318,12.989261 -17.434731,21.720092 -1.243559,3.435366 -2.403377,6.923134 -3.126677,10.508936 -0.20802,0.903312 -0.05271,1.919653 0.650438,2.553787 4.10881,2.27372 8.400945,4.265559 12.235298,6.998754 0.622318,0.472057 1.250753,0.965989 1.713597,1.602586 -4.5742,-1.842624 -8.723127,-4.555507 -13.032211,-6.922395 -0.909185,-0.517405 -1.81837,-1.03481 -2.727555,-1.552215 0.433089,4.068646 0.62008,8.171728 1.318118,12.206648 0.374492,1.948306 2.266002,3.094066 4.086179,3.447649 3.274167,0.7538 6.745851,0.484914 9.994141,1.087891 -3.033792,1.043827 -6.300273,0.40371 -9.423828,0.810546 -1.402129,0.145879 -2.541908,1.415524 -2.44336,2.839844 0.0579,1.975549 1.311106,3.687394 2.571935,5.115753 0.925263,1.058863 2.424856,1.90682 3.828456,1.265107 2.070542,-0.689374 3.786464,-2.454966 5.925781,-2.75586 -1.112547,2.480002 -3.767073,3.572263 -5.550781,5.457032 -0.923938,0.857518 -0.813229,2.278272 -0.139509,3.251492 1.772455,2.71418 4.198661,4.9205 6.516462,7.15866 4.762812,4.32131 9.852063,8.57848 15.987153,10.77632 5.763748,2.05712 11.954988,2.43717 18.025337,2.47959 11.27013,0.0961 22.54478,-0.0347 33.80726,-0.45922 4.22633,-0.12 8.53638,-0.55534 12.44748,-2.27252 5.51758,-2.42451 10.11547,-6.42639 14.73746,-10.20428 3.12664,-2.62712 6.24834,-5.28493 8.93946,-8.36978 0.53877,-0.46081 0.94895,-0.91222 0.0919,-1.270972 -2.33742,-1.972821 -4.91845,-3.686644 -6.99503,-5.948996 -0.70787,-0.651242 0.32813,-0.114049 0.66761,-0.0088 2.30334,0.906688 4.43911,2.236268 6.81324,2.954618 0.54229,0.09764 1.15665,-0.341742 1.56354,-0.68992 1.08764,-1.325729 1.54352,-3.044073 2.09499,-4.640161 0.45129,-1.595242 0.78046,-3.222612 1.17697,-4.832163 -3.26893,-0.05869 -6.54889,0.137022 -9.80978,-0.140765 -0.87387,-0.09231 -1.75085,-0.239057 -2.57694,-0.546735 1.21137,-0.326287 2.49302,-0.441337 3.63832,-0.553974 0.68436,-0.05678 1.80272,-0.126066 2.57112,-0.180064 2.43475,-0.138784 4.86949,-0.277551 7.30424,-0.416353 0.51088,-3.441182 0.96684,-6.904513 0.86914,-10.392188 0,-1.541796 0,-3.083593 0,-4.62539 -3.08743,1.811696 -6.2501,3.743242 -9.28711,5.414062 -1.82423,0.9154 -3.63585,2.053348 -5.69336,2.320313 0.28255,-0.390147 0.93846,-0.838985 1.4072,-1.192699 3.5394,-2.548287 7.62249,-4.272857 11.01467,-7.031911 1.3687,-1.087041 2.32537,-2.816715 2.00346,-4.599491 -0.5575,-3.683564 -2.04086,-7.148634 -3.51889,-10.543046 -3.00874,-6.82909 -7.47119,-13.101898 -13.38428,-17.711168 -5.64157,-4.467431 -12.1915,-7.541071 -18.55341,-10.818169 -18.34245,0 -36.6849,-1e-6 -55.027347,0 -0.142578,0.07292 -0.285156,0.145833 -0.427734,0.21875 z M 143.28516,64.6875 c 1.18296,0.01603 2.54865,0.497292 2.88281,1.763672 0.85588,2.866224 0.68868,6.222725 -1.04297,8.738281 -0.69386,0.884061 -1.7137,1.60245 -2.82617,1.804688 -1.36724,-0.343141 -2.34549,-1.628576 -2.8126,-2.908979 -0.75895,-2.276786 -0.77181,-4.770846 -0.35146,-7.116412 0.17459,-1.060429 0.92943,-2.048224 2.05468,-2.167969 0.68867,-0.130578 1.39715,-0.147005 2.09571,-0.113281 z m -49.921879,0.0098 c 1.014423,0.05147 2.305952,0.106418 2.776083,1.192346 1.122276,2.230331 0.861865,4.922344 0.07371,7.220286 -0.510469,1.299372 -1.173603,2.612959 -2.20515,3.569563 -1.08427,0.825027 -2.532951,0.159372 -3.242862,-0.831291 -1.649775,-2.151013 -2.013371,-5.042127 -1.744155,-7.67164 0.195923,-1.144323 0.46167,-2.549575 1.555261,-3.170671 0.893372,-0.297372 1.853542,-0.324229 2.787109,-0.308593 z m 24.669919,8.251953 c 1.97651,0.04683 4.04577,-0.08148 5.92188,0.636719 -0.62687,1.603847 -1.94511,2.827569 -3.16963,3.995457 -1.07906,0.927679 -2.3137,1.976369 -3.80122,1.99343 -2.16222,-0.703069 -3.98012,-2.241223 -5.44804,-3.94081 -0.49757,-0.643462 -0.98133,-1.307315 -1.34283,-2.038312 2.54542,-0.626798 5.23484,-0.553827 7.83984,-0.646484 z M 101.81445,88.37894 c 0.78492,0.740387 0.91562,1.954668 1.72852,2.699219 1.25454,1.336118 3.15441,1.854699 4.92773,2 2.35706,-0.07496 4.57995,-0.99395 6.83489,-1.597252 0.798,-0.227745 1.58433,-0.505199 2.39753,-0.674232 2.38824,2.286786 6.11393,2.745302 9.11834,1.506399 1.53317,-0.59168 2.9179,-1.539298 4.07698,-2.699759 0.16906,0.74805 -0.29017,1.350201 -0.82036,1.813586 -1.51411,1.514059 -3.68158,2.429336 -5.82587,2.397751 -2.68942,-0.258499 -5.26933,-1.350545 -7.99244,-1.260165 -3.00559,0.253252 -5.92554,1.75649 -8.98608,1.117995 -1.93951,-0.495929 -3.69842,-1.739143 -4.88335,-3.344499 -0.37954,-0.569315 -0.64165,-1.300947 -0.57589,-1.959043 z" />
      <path
         id="path3731"
         style="fill:#ffaaaa;fill-opacity:0.983446;stroke-width:2.57797"
         d="m 59.894531,12.494141 c -1.507432,-0.08777 -2.780155,1.124031 -3.060547,2.554687 -0.626683,3.017693 -0.538425,6.12712 -0.679887,9.192871 -0.243833,9.183545 -0.416392,18.36889 -0.628706,27.553223 4.866862,-5.560182 9.455267,-11.439943 15.200798,-16.145684 3.744031,-3.217174 8.079378,-5.620716 12.037483,-8.545722 0.419501,-0.376506 0.849811,-0.903792 1.017759,-1.398402 -0.192523,-0.883319 -0.546171,-1.763302 -1.357585,-2.250711 -3.261557,-2.172591 -6.807898,-3.878235 -10.278441,-5.686567 -3.63974,-1.786978 -7.246664,-3.683737 -11.061421,-5.07643 -0.386909,-0.109936 -0.784501,-0.214872 -1.189453,-0.197265 z" />
      <path
         id="path3871"
         style="fill:#ffaaaa;fill-opacity:0.983446;stroke-width:2.57797"
         d="m 174.04297,12.513672 c -1.92899,0.434189 -3.68342,1.430283 -5.49084,2.20867 -5.12145,2.457106 -10.25541,4.916851 -15.15565,7.797189 -1.45444,0.966464 -2.79208,2.097778 -4.19921,3.13086 5.5258,3.78622 11.25569,7.300051 16.47957,11.507175 2.72661,2.164383 5.13071,4.706644 7.21188,7.493789 1.40502,1.772263 2.81116,3.54363 4.21675,5.315442 0.40483,-6.817275 0.90415,-13.631737 0.95797,-20.463786 0.0295,-4.558012 0.1536,-9.125473 -0.14352,-13.676839 -0.0834,-1.694573 -1.4481,-3.253306 -3.1875,-3.316406 -0.23015,-0.0035 -0.46211,-0.05056 -0.68945,0.0039 z" />
      <path
         style="fill:#000000;stroke-width:1.26077"
         d="M 89.520077,230.04827 C 82.083802,227.3841 75.222219,222.63897 68.884934,215.77804 57.0116,202.92361 54.34813,186.9512 60.679712,166.57266 c 1.91305,-6.15722 5.909894,-19.59114 8.881891,-29.85317 l 5.403632,-18.65824 -8.514113,-8.1675 -8.514112,-8.1675 -7.197273,4.12488 c -7.825281,4.48481 -9.638933,4.9639 -9.638933,2.54618 0,-0.86829 3.48881,-3.44562 7.752911,-5.72742 5.945739,-3.181674 7.553577,-4.625831 6.897754,-6.195558 -0.470329,-1.125772 -1.427644,-3.586152 -2.127354,-5.467525 -1.19214,-3.205399 -1.746878,-3.420677 -8.814618,-3.420677 -5.852426,0 -7.542404,-0.418064 -7.542404,-1.865823 0,-1.437804 1.652177,-1.865824 7.202162,-1.865824 h 7.20217 l -0.812651,-5.77108 c -0.446953,-3.174094 -0.81265,-6.444434 -0.81265,-7.26742 0,-0.822986 -2.012698,-2.55139 -4.472665,-3.8409 -4.394926,-2.303816 -6.047667,-5.510482 -2.840146,-5.510482 0.897884,0 2.947768,0.896715 4.5553,1.992699 1.607532,1.095983 3.316887,1.609092 3.798564,1.140242 1.226864,-1.194209 2.549398,-19.628165 2.681383,-37.374234 0.101967,-13.710026 0.341641,-15.153115 2.866148,-17.2571135 2.663709,-2.2200209 2.884512,-2.2214506 6.67284,-0.043203 2.15489,1.2390345 8.999556,4.8654325 15.210386,8.0586645 10.302194,5.296769 11.762108,5.717363 16.64889,4.796468 7.115376,-1.340868 37.081306,-1.291775 44.332516,0.07263 5.49021,1.033053 6.32911,0.767455 18.5296,-5.8666 7.02846,-3.821752 13.75321,-7.5267467 14.94388,-8.2333218 1.63406,-0.969701 2.809,-0.7172409 4.79213,1.0296852 2.28919,2.0165336 2.63877,3.8502796 2.71646,14.2494336 0.11962,16.006029 1.75358,39.642974 2.81168,40.672889 0.4692,0.45672 2.28845,-0.08504 4.04278,-1.203917 3.97906,-2.537774 5.8354,-2.584973 5.8354,-0.14837 0,1.037271 -2.0127,2.820184 -4.47265,3.96203 -3.8692,1.795969 -4.47502,2.674354 -4.49011,6.510257 -0.0103,2.438798 -0.3642,5.693608 -0.78801,7.232912 -0.73212,2.659222 -0.41275,2.798735 6.40697,2.798735 5.52808,0 7.17751,0.428778 7.17751,1.865824 0,1.447759 -1.68997,1.865823 -7.5424,1.865823 -7.06773,0 -7.62247,0.215278 -8.81462,3.420677 -0.69971,1.881372 -1.65702,4.341757 -2.12736,5.46752 -0.65582,1.56974 0.95202,3.013897 6.89776,6.195579 4.26411,2.28178 7.75291,4.85912 7.75291,5.72741 0,2.41955 -1.81423,1.9383 -9.67369,-2.5661 l -7.23206,-4.14481 -8.22007,8.18742 -8.22009,8.18743 3.44027,12.43882 c 1.89214,6.84136 3.79941,13.1183 4.23837,13.94875 0.45969,0.8697 3.68173,-3.22166 7.59895,-9.6492 7.38169,-12.1122 10.32195,-14.87255 15.84182,-14.87255 7.5447,0 13.71768,7.7868 11.22734,14.16254 -0.61753,1.58098 -6.56257,12.05531 -13.21119,23.27626 -10.25009,17.29918 -11.99168,21.02565 -11.45235,24.50448 0.91717,5.91578 -1.93058,18.59167 -5.69967,25.37046 -4.64801,8.3595 -13.82424,16.76656 -22.90798,20.98774 -7.82813,3.63772 -7.91583,3.64768 -31.30863,3.56029 -16.13957,-0.0604 -24.897956,-0.60335 -28.072213,-1.74057 z M 110.17496,205.0293 c -0.0913,-12.37148 0.38715,-23.90989 1.0633,-25.64092 1.61611,-4.13752 4.90876,-5.23987 8.60666,-2.8814 2.94363,1.87738 2.99284,2.26793 3.33418,26.46071 l 0.34645,24.5552 8.05029,-0.12389 c 4.42764,-0.0682 8.5681,-0.62793 9.201,-1.24398 1.46387,-1.4249 9.56902,-36.56835 11.39553,-49.41034 0.76115,-5.35155 1.38391,-12.80924 1.38391,-16.57264 0,-5.84477 0.3261,-6.78234 2.23632,-6.42965 1.63031,0.30102 2.34266,1.83939 2.62869,5.67679 0.54381,7.29585 -2.91185,30.26209 -7.34511,48.81532 -2.04233,8.54717 -3.53875,15.71023 -3.3254,15.91791 0.21337,0.20768 3.1219,-1.41841 6.46341,-3.61354 7.02397,-4.61421 13.12125,-12.44444 16.17526,-20.77254 3.9024,-10.64162 3.02359,-18.34805 -5.34126,-46.83807 -4.21202,-14.34579 -7.66701,-26.66022 -7.67777,-27.36542 -0.0647,-4.23467 -2.12038,-4.61687 -10.79893,-2.0077 -7.18162,2.15912 -11.96239,2.59135 -28.66263,2.59135 -18.796096,0 -22.418456,-0.43621 -36.668494,-4.41561 -2.47603,-0.69145 -3.063651,0.64039 -8.081325,18.31641 -2.976119,10.48414 -6.657294,22.70043 -8.180389,27.14732 -1.965274,5.73793 -2.772615,11.15479 -2.780848,18.65823 -0.01,9.09231 0.492862,11.57294 3.590547,17.71322 3.878554,7.68815 10.729604,15.09074 17.415756,18.81782 4.071869,2.26981 4.153288,2.26981 3.472929,0 -2.502991,-8.35045 -8.602796,-39.25778 -9.850611,-49.91246 -1.569147,-13.39851 -1.037028,-18.95952 1.814188,-18.95952 1.253987,0 1.942061,3.28218 2.580939,12.31126 0.761356,10.76009 4.62885,31.44062 10.016802,53.56257 1.85483,7.61558 3.67316,8.73604 13.554846,8.3525 l 5.54781,-0.21534 z m 7.60003,-1.21358 c 0,-15.90266 -0.44261,-24.06285 -1.27791,-23.56035 -0.77915,0.46873 -1.2779,9.96397 -1.2779,24.32912 0,14.87764 0.47094,23.56035 1.2779,23.56035 0.80839,0 1.27791,-8.93897 1.27791,-24.32912 z m 70.74772,-53.62338 c 5.3681,-9.00918 9.76018,-17.64119 9.76018,-19.18224 0,-5.91479 -7.08838,-9.41922 -11.7246,-5.79652 -1.09442,0.85516 -5.31242,7.11804 -9.37333,13.91749 l -7.38348,12.36267 2.28909,8.78334 c 1.259,4.83084 2.55187,9.24426 2.873,9.80761 0.76152,1.33584 1.94433,-0.39943 13.55914,-19.89235 z m -38.76878,-32.24807 c 3.18006,-1.4326 9.4174,-5.88092 13.86073,-9.88516 l 8.07882,-7.28042 -3.96851,-3.175609 c -6.594,-5.276514 -4.7339,-8.348846 2.52703,-4.173897 4.15762,2.39058 4.49552,2.255075 5.66251,-2.270819 0.76798,-2.978433 0.55551,-3.210782 -2.42832,-2.65557 -4.54646,0.845971 -9.70669,-0.612841 -9.70669,-2.744112 0,-1.294512 2.00428,-1.881804 7.34794,-2.153095 l 7.34795,-0.373045 0.3926,-5.279366 0.39259,-5.279363 -6.36938,3.854017 c -6.08918,3.684466 -9.12932,3.926051 -9.09653,0.72286 0.009,-0.814794 3.46332,-3.325072 7.67775,-5.578397 7.07018,-3.780211 7.59734,-4.357211 6.81856,-7.463294 -1.91866,-7.652273 -4.51165,-13.279825 -8.63336,-18.737048 -4.95488,-6.560316 -8.78395,-9.556082 -18.71959,-14.645703 L 143.972,27.257837 H 117.13604 90.300074 l -7.667419,3.911488 C 69.632383,37.801339 59.516153,49.979486 56.633491,62.467727 l -1.214126,5.259831 7.521441,4.020846 c 4.712127,2.519028 7.527105,4.833893 7.536603,6.197638 0.02089,3.001308 -1.423303,2.753512 -8.873916,-1.522578 l -6.44576,-3.699372 v 3.597639 c 0,6.65869 0.979695,7.532752 8.443094,7.532752 5.234662,0 6.891744,0.442931 6.891744,1.842126 0,2.165655 -5.096639,3.66399 -9.60788,2.824569 -3.570995,-0.664466 -4.111672,1.069114 -1.441858,4.623094 1.625234,2.163464 1.911469,2.177774 4.757001,0.237742 1.665239,-1.13533 3.762345,-2.064237 4.660229,-2.064237 2.874889,0 1.745468,4.496306 -1.562247,6.219413 -1.757113,0.915345 -3.194754,2.332699 -3.194754,3.14968 0,0.81698 2.745702,3.98533 6.101578,7.04079 13.782685,12.54886 17.12589,13.44515 48.84825,13.09579 22.24115,-0.24494 25.54047,-0.55435 30.70104,-2.87918 z M 106.27386,95.398415 c -3.35478,-1.178921 -6.389516,-4.390185 -6.389516,-6.761189 0,-3.088379 3.363916,-2.934118 4.203976,0.192787 0.77096,2.869667 5.30978,3.315831 10.46644,1.028847 2.51627,-1.115968 3.64188,-1.115968 4.78837,0 2.52187,2.454725 8.1636,1.719165 10.27637,-1.339818 2.33513,-3.380896 4.0977,-2.213919 3.01254,1.994569 -1.00197,3.885888 -7.16847,6.198875 -11.8789,4.455655 -1.82365,-0.674896 -4.53365,-0.888533 -6.02222,-0.474759 -5.12126,1.42354 -6.54525,1.575735 -8.45706,0.903908 z m 4.51427,-17.942051 c -2.25173,-2.604783 -2.95403,-4.325321 -2.10347,-5.153228 1.65974,-1.615554 15.24301,-1.615554 16.90275,0 1.91246,1.861539 -4.80312,9.063583 -8.45137,9.063583 -1.75864,0 -4.34465,-1.592999 -6.34791,-3.910355 z M 89.113454,76.924281 C 86.746503,74.620353 86.437736,66.34361 88.638803,64.201143 c 1.971168,-1.91869 6.462991,-1.91869 8.434161,0 3.807486,3.706127 0.65522,14.677811 -4.21708,14.677811 -0.953867,0 -2.637957,-0.879602 -3.74243,-1.954673 z m 49.838216,0 c -2.36695,-2.303928 -2.67572,-10.580671 -0.47465,-12.723138 1.97116,-1.91869 6.46299,-1.91869 8.43416,0 2.38664,2.3231 1.88168,10.253864 -0.80347,12.619201 -2.91759,2.570097 -4.59737,2.594494 -7.15604,0.103939 z M 70.065065,33.694032 c 1.992244,-1.600109 5.491204,-3.963466 7.775453,-5.251904 2.284248,-1.288437 4.147517,-2.641738 4.140598,-3.007335 -0.0067,-0.365596 -5.12059,-3.324332 -11.3637,-6.574968 -9.483428,-4.937793 -11.478845,-5.586214 -12.12749,-3.940884 -0.427008,1.08315 -0.776383,8.693508 -0.776383,16.911906 v 14.942542 l 4.36462,-5.085033 c 2.400545,-2.796769 5.994647,-6.394215 7.986902,-7.994324 z M 175.97141,14.501947 c -0.50576,-1.282921 -3.52272,-0.22163 -12.17016,4.281173 -6.32374,3.292823 -11.49143,6.266825 -11.48376,6.608893 0.008,0.342067 3.45573,2.757927 7.66237,5.368577 4.20664,2.610651 9.51398,7.008485 11.79408,9.772967 l 4.14564,5.026331 0.36215,-14.676083 c 0.19918,-8.071844 0.0595,-15.443681 -0.31032,-16.381858 z"
         id="path547" />
    </g>
  </g>
</svg>
