<?xml version="1.0" encoding="UTF-8" standalone="no"?>
<!-- Created with Inkscape (http://www.inkscape.org/) -->

<svg
   version="1.1"
   id="svg248"
   width="500"
   height="500"
   viewBox="0 0 500 500"
   sodipodi:docname="sqlcipher.svg"
   inkscape:version="1.2.2 (b0a8486541, 2022-12-01)"
   inkscape:export-filename="../GIT Icons/sqlcipher.png"
   inkscape:export-xdpi="96"
   inkscape:export-ydpi="96"
   xmlns:inkscape="http://www.inkscape.org/namespaces/inkscape"
   xmlns:sodipodi="http://sodipodi.sourceforge.net/DTD/sodipodi-0.dtd"
   xmlns="http://www.w3.org/2000/svg"
   xmlns:svg="http://www.w3.org/2000/svg">
  <defs
     id="defs252" />
  <sodipodi:namedview
     id="namedview250"
     pagecolor="#505050"
     bordercolor="#eeeeee"
     borderopacity="1"
     inkscape:showpageshadow="0"
     inkscape:pageopacity="0"
     inkscape:pagecheckerboard="0"
     inkscape:deskcolor="#505050"
     showgrid="false"
     inkscape:zoom="0.59505208"
     inkscape:cx="475.58862"
     inkscape:cy="277.28665"
     inkscape:window-width="1366"
     inkscape:window-height="705"
     inkscape:window-x="0"
     inkscape:window-y="0"
     inkscape:window-maximized="1"
     inkscape:current-layer="g254" />
  <g
     inkscape:groupmode="layer"
     inkscape:label="Image"
     id="g254">
    <g
       id="g886"
       transform="matrix(0.91944625,0,0,0.93127082,20.044159,17.179301)">
      <path
         id="rect1513-3"
         style="fill:#ffffff;fill-opacity:1;stroke-width:4.70286"
         d="M 243.4082,-0.734375 C 226.66583,-0.44132894 209.78092,1.5555004 193.91211,7.1132812 168.33508,15.660346 144.64369,30.41262 126.6392,50.594155 109.83188,69.402222 98.288319,92.679351 92.605089,117.20327 c -4.042343,16.76353 -5.713475,33.97772 -6.920516,51.14432 -0.304814,3.59743 -0.677767,7.05627 -1.217776,10.61335 -10.016928,-0.0976 -20.033851,-0.19564 -30.050781,-0.29297 0,107.36002 0,214.72005 0,322.08008 128.803384,0 257.606774,0 386.410154,0 1.72601,-106.47023 3.39449,-212.9414 4.96289,-319.41407 -11.66666,-4.1e-4 -23.33333,-0.001 -35,-0.002 0.0505,-15.95193 -0.0416,-32.00504 -2.77272,-47.76922 C 404.48576,112.0946 397.05372,91.144615 385.27839,72.790539 369.81431,48.314877 347.56435,28.076454 321.45507,15.486692 304.2528,7.0622503 285.53625,1.586839 266.41449,0.07438264 258.76632,-0.59631401 251.08335,-0.78284331 243.4082,-0.734375 Z m -1.08593,111.005855 c 4.92203,0.0195 9.84568,-0.016 14.76562,0.1543 0.3093,0.0121 1.03993,0.0558 1.50586,0.0977 3.01393,0.28418 5.57715,2.05767 8.32344,3.1664 6.69266,3.12674 12.95777,7.3608 17.81385,12.97561 2.30688,2.58531 4.42061,5.60506 6.08537,8.4908 2.26093,3.94722 4.06256,8.14659 5.60742,12.41992 1.59101,4.54718 2.66873,9.43326 3.04101,14.14649 0.19532,2.19199 0.2959,4.25223 0.3718,6.47462 0.12888,4.24741 0.10199,8.49727 0.11258,12.74608 -34.54312,-0.27972 -69.08609,-0.57609 -103.62891,-0.89063 0.4252,-6.27719 0.80956,-12.45777 1.44814,-18.72908 0.17681,-1.72977 0.37058,-3.39142 0.59288,-5.01896 1.05327,-7.50293 2.73279,-15.3301 6.68155,-22.00019 2.78003,-4.83109 6.46241,-9.08648 10.4415,-12.96466 4.10814,-3.92185 8.86279,-7.17419 14.08125,-9.43241 1.88173,-0.89509 3.91668,-1.54896 6.022,-1.49396 2.24352,-0.0981 4.49044,-0.0624 6.73464,-0.14199 z" />
      <path
         id="rect1513"
         style="fill:#000000;fill-opacity:1;stroke-width:4.70286"
         d="m 243.46173,13.266598 c -14.36474,0.242218 -28.85543,1.792951 -42.52542,6.27637 -23.01821,7.230825 -44.37702,19.8688 -60.9009,37.138019 -14.80326,15.524011 -25.4944,34.614674 -31.45753,54.955333 -5.18499,17.31185 -7.32201,35.3182 -8.580001,53.25886 -0.51444,6.98373 -1.09622,13.94981 -2.491559,20.83663 -0.497187,2.44142 -0.932704,4.89502 -1.400928,7.34179 -9.22996,-0.0892 -18.459935,-0.17982 -27.689904,-0.26815 V 486.74729 H 427.05125 c 1.59467,-96.35031 3.08607,-192.70323 4.49838,-289.05624 0.0116,-0.7862 0.0232,-1.57168 0.0349,-2.35789 -11.59849,-3.9e-4 -23.19703,-8.7e-4 -34.79553,-0.002 -0.10791,-13.69219 0.28984,-27.39853 -0.47737,-41.07795 -1.37512,-21.09223 -6.14044,-42.16067 -15.65074,-61.240641 C 370.47851,72.585857 355.3139,54.502933 336.67945,40.83722 320.8752,29.397384 302.63368,21.192943 283.49009,16.72745 270.37669,13.8443 256.86868,13.140169 243.46173,13.266598 Z m -1.41929,83.005037 c 5.69894,0.04536 11.40589,-0.09431 17.09756,0.237754 2.76216,0.170352 5.50281,0.764498 8.00899,1.927066 3.16422,1.311933 6.2499,2.797585 9.28688,4.367185 0.57675,0.3022 1.49937,0.79854 2.07661,1.12799 4.19109,2.3181 8.08491,5.13131 11.62604,8.31248 0.93271,0.84598 2.0065,1.86276 2.9414,2.82624 1.26677,1.28922 2.46995,2.63717 3.62259,4.02396 0.70849,0.86797 1.54729,1.92371 2.25654,2.90132 2.89469,3.89805 5.23916,8.15402 7.24332,12.54381 0.54993,1.19576 1.1707,2.5941 1.70573,3.8863 2.20764,5.25931 3.86982,10.74415 4.79032,16.35861 0.15587,0.93383 0.34157,2.22129 0.46086,3.15516 0.68335,5.56991 0.75441,11.34533 0.79869,17.01288 2.6e-4,6.7011 -0.0188,13.40257 0,20.1037 -44.19794,-0.32092 -88.39548,-0.70907 -132.59243,-1.14052 0.74528,-10.85986 1.34823,-21.71125 2.29511,-32.54201 0.5497,-5.58869 1.29602,-11.16993 2.5705,-16.64999 0.18503,-0.74664 0.41807,-1.75856 0.65181,-2.59922 1.57747,-6.018 3.97719,-11.85361 7.40858,-17.10404 3.99271,-6.1547 8.9763,-11.67373 14.51604,-16.5481 5.84814,-4.9373 12.68345,-8.749942 19.96369,-11.288884 0.99398,-0.294814 2.28002,-0.469321 3.1452,-0.568466 0.89354,-0.09236 1.71402,-0.13916 2.48054,-0.169825 2.52417,-0.09342 5.07956,-0.154462 7.64543,-0.1734 z" />
      <path
         style="fill:#f9f9f9;fill-opacity:1;stroke-width:9.16162"
         d="m 113.21769,183.50203 c 0.52071,-2.71541 1.45059,-12.20814 2.06638,-21.09494 2.8658,-41.3575 12.17855,-68.201905 31.63897,-91.200663 16.01708,-18.92932 40.19044,-33.442776 66.58152,-39.974882 19.28721,-4.773817 52.27064,-4.422112 70.83111,0.755273 22.24213,6.204368 41.41162,16.931536 56.44693,31.587443 27.82813,27.125924 40.96295,60.882259 40.96295,105.274359 v 19.59054 h -26.37291 -26.37292 v -15.17181 c 0,-19.45662 -2.50698,-31.1128 -10.08134,-46.87285 -8.22362,-17.11102 -21.3255,-30.001525 -38.92695,-38.298955 -13.21079,-6.227648 -14.51458,-6.477609 -33.78632,-6.477609 -18.96189,0 -20.69778,0.31709 -32.11799,5.866558 -8.03766,3.905788 -15.36877,9.380688 -21.93443,16.380726 -16.35003,17.43175 -22.09944,32.84432 -24.20306,64.88165 l -1.29301,19.69229 h -27.19284 -27.19285 z"
         id="path855" />
      <path
         id="path784"
         style="fill:#efef00;fill-opacity:1;stroke-width:9.16162"
         d="m 83.45566,207.59305 v 132.25511 132.25509 h 164.39538 164.39538 l 1.07621,-65.08296 c 0.59258,-35.79405 1.50262,-94.77521 2.03281,-131.06298 l 0.96859,-65.98001 h -46.08524 c -25.34976,0 -100.25198,-0.53633 -166.44016,-1.19212 z m 133.04212,31.71526 c 8.00328,0 16.00478,0.30137 20.80651,0.89704 28.26936,3.50675 48.71804,12.2127 56.27325,23.97234 3.09476,4.81695 2.98945,2.58012 2.98945,64.8115 0,41.62371 -0.16059,57.38533 -0.59791,58.26071 -1.25466,2.51185 -5.97979,2.51185 -7.23444,0 -0.38566,-0.77206 -0.59792,-4.70712 -0.59792,-11.03602 v -9.83208 l -3.81452,2.66753 c -9.10971,6.36815 -24.49839,11.62003 -41.43366,14.14026 -34.96791,5.20377 -74.12861,-0.61317 -93.83261,-13.93961 l -4.20913,-2.84457 0.0122,12.36977 c 0.005,12.20206 0.0208,12.40638 1.32732,14.96649 3.61792,7.08943 16.6546,14.28599 32.64469,18.02351 13.76566,3.2176 26.65226,4.36782 44.06437,3.93048 l 12.46,-0.31866 1.11207,1.28654 c 1.426,1.65365 1.39685,3.18624 -0.0837,4.7449 -1.08788,1.1452 -1.68617,1.28382 -7.2464,1.69966 -5.6487,0.42242 -17.91963,0.49513 -23.96337,0.14166 -35.5205,-2.07737 -63.55629,-14.34785 -67.95599,-29.75592 -1.19934,-4.20008 -1.19934,-120.14688 0,-124.34695 3.99791,-14.00093 26.07243,-24.92223 58.47348,-28.9415 4.80172,-0.59562 12.80322,-0.89704 20.80652,-0.89704 z m -1.66214,7.48324 c -16.71726,0.1315 -33.37645,2.48958 -46.53962,7.18816 -14.51195,5.18001 -23.43723,12.67335 -23.43723,19.67597 0,12.18625 24.52381,23.5603 56.91898,26.40381 8.40685,0.73791 29.18472,0.23351 37.63109,-0.92065 19.30809,-2.6387 34.7103,-8.11959 42.74902,-15.20254 10.41024,-9.17253 6.92515,-18.67645 -9.82929,-26.80512 -14.40444,-6.98855 -35.99932,-10.50867 -57.49295,-10.33963 z m 73.30112,42.70406 -3.81452,2.66753 c -9.10971,6.36813 -24.49841,11.62002 -41.43367,14.14025 -34.9679,5.20379 -74.12861,-0.61315 -93.8326,-13.9396 l -4.20913,-2.84458 0.0122,12.36979 c 0.005,12.20203 0.0208,12.40637 1.3273,14.96648 5.34437,10.47243 27.77369,19.20538 55.59167,21.64711 8.40685,0.73792 29.18472,0.22197 37.63109,-0.93245 24.2106,-3.3087 42.62073,-11.34837 47.40059,-20.71466 1.30659,-2.56031 1.32224,-2.76476 1.3273,-14.97829 z m -124.3249,19.00319 c 2.24954,0 2.85841,0.21774 4.34067,1.56983 1.48227,1.35207 1.72191,1.9021 1.72191,3.95408 0,2.02433 -0.24263,2.60934 -1.62625,3.87145 -1.73937,1.5866 -4.8343,2.24091 -6.80397,1.45179 -2.34483,-0.93942 -3.68299,-2.88853 -3.68299,-5.35865 0,-2.01869 0.2455,-2.57189 1.72191,-3.91867 1.48228,-1.35209 2.07914,-1.56983 4.32872,-1.56983 z m 124.3249,19.43991 -3.81452,2.66752 c -9.10971,6.36815 -24.49841,11.62003 -41.43367,14.14027 -34.9679,5.20375 -74.12861,-0.61317 -93.8326,-13.93961 l -4.20913,-2.84458 0.0122,12.36978 c 0.005,12.20203 0.0208,12.40637 1.3273,14.96648 5.34437,10.47245 27.77369,19.20535 55.59167,21.64711 8.40685,0.73792 29.18472,0.22173 37.63109,-0.93245 24.2106,-3.30869 42.62073,-11.34837 47.40059,-20.71466 1.30659,-2.5603 1.32224,-2.76475 1.3273,-14.97828 z m -124.3249,18.99138 c 2.24954,0 2.85841,0.22953 4.34067,1.58162 1.48227,1.3521 1.72191,1.90211 1.72191,3.95408 0,2.02434 -0.24263,2.60935 -1.62625,3.87146 -1.73937,1.58658 -4.8343,2.24091 -6.80397,1.45181 -2.34483,-0.93946 -3.68299,-2.88857 -3.68299,-5.35867 0,-2.01868 0.2455,-2.57187 1.72191,-3.91868 1.48228,-1.35205 2.07914,-1.58162 4.32872,-1.58162 z m 0,38.44309 c 2.24954,0 2.85841,0.21775 4.34067,1.56983 1.48227,1.35207 1.72191,1.90211 1.72191,3.95408 0,2.02433 -0.24263,2.60932 -1.62625,3.87145 -1.73937,1.58658 -4.8343,2.25274 -6.80397,1.46361 -2.34483,-0.93943 -3.68299,-2.88855 -3.68299,-5.35866 0,-2.0187 0.2455,-2.5837 1.72191,-3.93048 1.48228,-1.35208 2.07914,-1.56983 4.32872,-1.56983 z m 170.68517,7.44784 c 1.02639,0 2.10262,0.43687 2.91769,1.18032 l 1.29143,1.18033 v 21.88316 21.89498 h 11.27618 c 10.27098,0 11.37318,0.0796 12.49588,0.90885 0.93839,0.69309 1.23164,1.38468 1.23164,2.92719 0,1.54253 -0.29326,2.24592 -1.23164,2.93901 -1.1404,0.84233 -2.28815,0.90885 -15.42553,0.90885 h -14.18191 l -1.29144,-1.18032 -1.29144,-1.18033 v -24.55069 -24.5507 l 1.29144,-1.18033 c 0.81507,-0.7435 1.89133,-1.18032 2.9177,-1.18032 z m -71.63899,0.28325 c 3.84113,0 4.86512,0.18153 7.2225,1.29835 5.34737,2.53337 8.87118,7.17365 9.47055,12.47601 0.38332,3.39093 -0.85525,4.91014 -3.9939,4.91014 -2.79343,0 -3.77566,-0.95178 -4.32871,-4.14294 -0.7892,-4.55406 -3.63156,-6.89308 -8.37044,-6.89308 -5.12812,0 -8.16716,2.77015 -8.16716,7.44783 0,4.75665 2.62203,7.02827 8.93246,7.74292 6.97868,0.79031 11.74716,3.76879 14.44498,9.02946 2.84261,5.54307 1.41927,12.70966 -3.38404,17.09106 -4.28466,3.90833 -11.49886,5.49283 -16.94416,3.71803 -6.69692,-2.18276 -10.858,-6.87661 -11.56316,-13.03076 -0.30037,-2.62114 -0.21483,-2.93901 1.04032,-4.08392 2.9311,-2.67367 6.52378,-1.14629 7.25837,3.09244 0.79925,4.612 3.62223,6.95211 8.38239,6.95211 5.12809,0 8.1552,-2.77014 8.1552,-7.44784 0,-4.68308 -2.62554,-7.02706 -8.66939,-7.71931 -6.98758,-0.80032 -11.68511,-3.60508 -14.61239,-8.74618 -1.22436,-2.15031 -1.42297,-3.09424 -1.42297,-6.59801 0,-3.50374 0.19867,-4.43588 1.42297,-6.58619 1.81285,-3.18387 4.40171,-5.55815 7.89214,-7.21177 2.35733,-1.11682 3.39329,-1.29835 7.23444,-1.29835 z m 42.13917,0 c 3.84113,0 4.86513,0.18153 7.22249,1.29835 3.63877,1.7239 6.30087,4.22564 7.9878,7.50685 1.37791,2.6802 1.38263,2.71467 1.54254,16.92582 0.15043,13.36961 0.0982,14.40609 -0.9327,17.19729 l -1.10011,2.97442 1.06424,1.23933 c 1.47526,1.71078 1.36644,3.60438 -0.31089,5.1344 -1.67736,1.53005 -3.75661,1.62896 -5.63211,0.28325 l -1.35123,-0.96787 -3.18076,0.96787 c -3.87905,1.19197 -6.8161,1.21702 -10.41523,0.0827 -4.94558,-1.55877 -7.55029,-3.65458 -10.23584,-8.25045 -1.24801,-2.13577 -1.25557,-2.233 -1.25557,-17.76385 v -15.61567 l 1.44689,-2.50228 c 1.84695,-3.19596 4.45109,-5.56456 7.928,-7.21177 2.35735,-1.11682 3.38134,-1.29835 7.2225,-1.29835 z m 0,7.64848 c -3.3309,0 -5.01383,0.78386 -7.079,3.30491 -1.02434,1.25049 -1.09172,2.07081 -1.2436,14.38812 -0.0885,7.18307 -0.0288,13.76124 0.14351,14.61239 0.65877,3.25006 4.36522,5.8412 8.39435,5.878 l 2.05674,0.0236 -3.24056,-3.09245 c -3.74844,-3.56227 -4.14563,-5.08549 -1.85345,-7.17636 2.29738,-2.09558 3.95657,-1.73573 7.89212,1.71148 l 3.40797,2.9744 -0.15545,-13.98681 c -0.147,-13.26961 -0.21398,-14.07535 -1.24361,-15.33238 -2.06505,-2.52107 -3.74805,-3.3049 -7.079,-3.3049 z" />
    </g>
  </g>
</svg>
