<?xml version="1.0" encoding="UTF-8" standalone="no"?>
<!-- Created with Inkscape (http://www.inkscape.org/) -->

<svg
   version="1.1"
   id="svg870"
   width="512"
   height="512"
   viewBox="0 0 512 512"
   sodipodi:docname="subfinder.svg"
   inkscape:version="1.2.2 (b0a8486541, 2022-12-01)"
   inkscape:export-filename="../GIT Icons/subfinder.png"
   inkscape:export-xdpi="96"
   inkscape:export-ydpi="96"
   xmlns:inkscape="http://www.inkscape.org/namespaces/inkscape"
   xmlns:sodipodi="http://sodipodi.sourceforge.net/DTD/sodipodi-0.dtd"
   xmlns="http://www.w3.org/2000/svg"
   xmlns:svg="http://www.w3.org/2000/svg">
  <defs
     id="defs874" />
  <sodipodi:namedview
     id="namedview872"
     pagecolor="#505050"
     bordercolor="#eeeeee"
     borderopacity="1"
     inkscape:pageshadow="0"
     inkscape:pageopacity="0"
     inkscape:pagecheckerboard="0"
     showgrid="false"
     inkscape:zoom="0.59141146"
     inkscape:cx="191.91376"
     inkscape:cy="276.45727"
     inkscape:window-width="1366"
     inkscape:window-height="695"
     inkscape:window-x="0"
     inkscape:window-y="24"
     inkscape:window-maximized="1"
     inkscape:current-layer="g876"
     inkscape:showpageshadow="0"
     inkscape:deskcolor="#505050" />
  <g
     inkscape:groupmode="layer"
     inkscape:label="Image"
     id="g876">
    <g
       id="g1166"
       transform="matrix(0.95871067,0,0,0.94774402,10.566867,13.382321)">
      <path
         id="path978-3"
         style="fill:#ffffff;stroke-width:4.98584"
         d="M 252.7832,15.353516 C 214.38047,15.890971 176.17481,26.58386 143.06543,46.045533 124.68228,56.863185 107.64027,70.080617 93.091303,85.709141 80.157785,99.914044 69.21819,115.80039 59.214249,132.16302 c -6.90954,11.52459 -13.28369,23.45112 -17.849474,36.11649 -1.247113,3.62282 -2.261142,7.34194 -2.772978,11.14432 -3.85739,3.56098 -8.91316,5.34223 -13.178443,8.31865 -9.555089,6.21337 -17.6663723,14.99982 -22.0108304,25.62685 -4.22442453,10.1477 -5.4953887,21.3108 -5.0302107,32.22795 0.450643,8.36014 3.0058552,16.61401 7.5178556,23.67923 4.8919155,7.91885 11.6305195,14.43758 18.3075265,20.8329 6.693782,6.58715 12.444994,14.13734 17.033713,22.32995 1.616936,2.93085 2.7478,6.08661 3.883297,9.22424 4.518865,11.77883 10.449027,22.95462 16.707068,33.88764 4.872831,8.3179 10.516098,16.32775 13.60484,25.54564 1.889648,5.48327 2.822046,11.28597 2.736346,17.08579 0.07804,8.05474 0.650347,16.25664 3.468282,23.87565 2.841576,7.84212 7.832965,14.7197 13.589538,20.6825 9.916941,10.50473 21.760691,19.03405 34.339651,26.06482 13.18417,7.40392 27.11151,13.47507 41.46157,18.23236 8.58551,2.81833 17.33472,5.18507 26.22897,6.80076 10.71521,1.71924 21.5848,2.04079 32.4085,2.49973 22.11791,0.68259 44.29778,0.3309 66.32969,-1.83722 23.18245,-2.33943 46.33439,-6.95714 67.89783,-15.98366 14.9416,-6.25902 29.02997,-14.65723 41.33733,-25.21913 6.18137,-5.22446 12.09404,-10.81177 17.29247,-17.0265 5.15465,-6.39316 8.88159,-14.02611 10.19472,-22.16619 1.20908,-6.61827 0.98938,-13.44543 1.2695,-20.07164 0.45319,-8.9224 3.78905,-17.43379 8.17866,-25.12272 3.00094,-5.31412 6.3933,-10.3956 9.37331,-15.72265 5.27545,-9.24454 10.11086,-18.75525 14.19594,-28.58795 1.39581,-3.39009 2.54537,-6.88184 4.04452,-10.22778 2.5768,-5.28777 5.9937,-10.11449 9.55123,-14.77924 4.03059,-5.17018 8.65399,-9.8395 13.44556,-14.30013 6.9414,-6.73267 13.41831,-14.28083 17.1536,-23.3054 3.85663,-9.35205 4.456,-19.75354 3.22821,-29.70756 -0.92774,-7.161 -2.76136,-14.22815 -5.6247,-20.86275 -1.24705,-2.7957 -2.82824,-5.42871 -4.3924,-8.04788 -0.38535,-0.98046 -0.74376,-2.19202 -0.96502,-3.08103 -1.55091,-6.87416 -2.3487,-13.89528 -2.90803,-20.91269 -0.43164,-5.52656 -0.67604,-11.05891 -0.79922,-16.55633 -0.17056,-7.44525 -0.0881,-14.89742 0.27673,-22.29512 0.37849,-7.1019 0.91114,-14.22786 2.34088,-21.20607 0.0609,-0.51947 0.22048,-0.97925 0.7263,-1.21495 6.10234,-4.98544 9.7134,-12.49299 11.01034,-20.166271 1.79241,-10.159791 0.20745,-20.987368 -4.86289,-30.012612 -3.62227,-6.347575 -9.31731,-11.484129 -16.03249,-14.381134 -9.67938,-4.335079 -20.85801,-4.929137 -31.06866,-2.235275 -7.77832,2.077829 -15.0621,6.484121 -19.93416,12.968325 -6.33379,8.265527 -8.82026,19.116217 -7.56432,29.380269 0.57499,4.910191 1.9739,9.715828 4.05771,14.196318 C 429.44822,96.719388 420.16924,86.571271 410.21078,77.197131 392.86261,60.941461 373.07052,47.266943 351.59188,37.05175 331.93967,27.664727 310.9025,21.192479 289.37214,17.912299 277.27352,16.054314 265.02229,15.207428 252.7832,15.353516 Z m 1.42383,60.52539 c 4.4238,0.04361 8.75668,0.139999 13.18577,0.492636 5.65331,0.419411 11.42125,1.149606 16.9197,2.108927 35.08014,6.114169 68.28488,23.274971 93.00526,49.074041 3.6578,3.81654 7.17455,7.87614 10.39255,11.97688 1.49982,1.92149 3.09718,4.04654 4.55381,6.1084 1.6765,2.35599 3.26434,4.74459 4.78276,7.1356 8.45687,13.45633 15.02212,28.17384 18.73917,43.65084 2.82426,11.62074 4.31191,23.53833 4.85848,35.47611 0.0262,0.72213 0.068,1.82545 0.0894,2.60814 0.25747,8.52741 -0.0246,17.07172 -0.86474,25.56179 -0.1877,1.90366 -0.42808,4.00704 -0.69726,5.98046 -1.30431,9.82263 -3.40445,19.76271 -6.71947,29.20012 -0.50081,1.43994 -1.05567,2.8855 -1.56179,4.18465 -0.84492,2.12048 -1.68542,4.06008 -2.65545,6.13501 -1.83464,3.885 -3.90598,7.65363 -6.04376,11.37866 -0.7876,1.33554 -1.69569,2.86225 -2.56146,4.25238 -2.06031,3.32199 -4.19662,6.54892 -6.44543,9.6931 -13.33404,18.65088 -29.97308,35.2833 -49.03672,48.25905 -10.16994,6.89263 -21.16416,12.62843 -32.82327,16.54956 -3.84252,1.32701 -7.68491,2.48686 -11.65656,3.55451 -5.76612,1.54838 -11.829,2.85422 -17.72348,3.89248 -5.85063,1.01825 -11.86943,1.81083 -17.70621,2.32822 -6.03368,0.52731 -12.08885,0.7911 -18.19994,0.73046 -2.02599,-0.013 -4.05112,-0.0805 -6.07545,-0.16015 -1.01445,-0.0613 -2.3003,-0.10821 -3.41722,-0.20234 -6.0796,-0.41179 -12.12564,-1.3278 -18.04176,-2.7918 -1.40351,-0.34948 -2.9945,-0.77021 -4.50516,-1.21865 -22.18618,-6.4771 -42.77088,-17.97099 -60.4685,-32.77421 -1.91737,-1.60053 -3.7402,-3.19119 -5.61897,-4.89064 -5.11391,-4.62809 -10.00833,-9.61742 -14.60648,-14.82637 -1.74504,-1.97963 -3.59124,-4.17058 -5.30231,-6.29706 -1.76549,-2.19587 -3.42669,-4.34918 -5.12167,-6.66242 -3.22,-4.38351 -6.26973,-8.95819 -9.05002,-13.55736 -3.41644,-5.64244 -6.54652,-11.53648 -9.28978,-17.47641 -7.591569,-16.45139 -12.641712,-34.334 -14.126359,-52.48426 -0.09059,-1.22018 -0.184475,-2.38138 -0.23816,-3.52383 -0.07499,-1.25813 -0.116637,-2.30482 -0.157011,-3.58052 -0.105717,-3.39293 -0.07192,-6.96404 0.06059,-10.24538 0.09347,-2.05004 0.21708,-4.1786 0.385721,-6.1252 0.21323,-2.61052 0.511186,-5.32084 0.850149,-7.81915 1.332204,-9.93334 3.628704,-19.72937 6.705536,-29.26463 1.210792,-3.73411 2.607624,-7.59741 4.099354,-11.30405 5.91115,-14.74854 13.86575,-28.86571 23.47682,-41.60806 9.62662,-12.71061 21.04581,-24.09836 34,-33.41406 0.58854,-0.4076 1.40568,-1.00143 2.00177,-1.4098 22.10541,-15.236124 48.0552,-24.810426 74.74432,-27.678096 1.9024,-0.201642 4.00724,-0.400108 5.99377,-0.544285 4.01825,-0.300452 7.81829,-0.423365 11.86951,-0.473293 z m -0.80273,4.076172 c -34.82154,0.544912 -69.45914,12.611914 -96.75404,34.310222 -13.47284,10.6763 -25.30237,23.37468 -35.30846,37.33822 -10.37944,14.80195 -17.95144,31.62604 -21.686038,49.33632 -3.554625,16.24286 -4.186734,32.97337 -3.602516,49.54423 0.276192,8.0923 0.68602,16.2185 2.156826,24.19514 0.937723,4.65645 2.923918,9.28741 6.563588,12.46913 3.97933,3.64402 9.5279,5.39784 14.88334,4.9041 5.95738,-0.43237 11.45997,-2.99438 16.81849,-5.43592 11.20571,-5.3227 21.30439,-12.63294 32.28818,-18.36457 -10.48044,8.53813 -20.70748,17.43504 -30.0455,27.2244 -4.61116,4.95317 -9.08891,10.14994 -12.29629,16.1467 -2.77538,5.15717 -4.04604,11.27339 -2.7395,17.04884 1.39336,6.19041 5.16682,11.50361 9.24899,16.22965 7.57417,8.91483 16.54347,16.50948 25.68441,23.7578 10.51828,8.1713 21.8333,15.49695 34.2586,20.41969 8.04257,3.29866 16.29339,6.08809 24.65964,8.44305 11.17138,2.99418 22.74885,4.38112 34.30854,4.31715 19.97302,-0.0326 39.84219,-3.88136 58.67396,-10.43372 17.83429,-6.29435 34.84242,-15.24168 49.53605,-27.20874 12.57035,-10.34205 23.4445,-22.71514 32.28626,-36.37246 9.10776,-14.21038 15.67718,-30.03419 19.3227,-46.51442 4.39164,-19.47767 5.05773,-39.63009 3.63144,-59.49348 -1.27817,-16.49733 -4.74269,-32.96694 -11.62315,-48.07739 -6.75337,-14.97263 -16.57382,-28.3846 -27.7566,-40.34543 -9.47364,-10.18132 -19.9387,-19.5092 -31.60582,-27.1167 C 323.67591,92.711174 299.87046,84.015318 275.34939,81.107569 268.07163,80.227772 260.73438,79.852964 253.4043,79.955078 Z" />
      <path
         id="path504"
         style="fill:#cccccc;stroke-width:6.06182"
         d="m 252.70117,56.695312 c -30.00206,0.321856 -59.97855,7.893964 -86.29468,22.367773 -27.87793,15.42538 -51.07523,38.727665 -67.599479,65.871645 -16.366516,26.85656 -26.349946,57.69801 -28.072304,89.142 -0.763217,15.80539 1.262962,31.65943 5.047107,46.99369 4.631117,18.55215 11.967153,36.48008 22.174153,52.67325 13.957603,22.29324 32.178203,41.87853 53.245713,57.60851 17.4286,12.94699 36.92977,23.36346 57.88426,29.26305 9.673,2.7245 19.65427,4.32699 29.69204,4.78562 15.22501,0.73085 30.50617,-0.5085 45.51537,-3.0826 15.10352,-2.64069 30.03112,-6.62865 44.15183,-12.6551 11.17055,-4.83751 21.67069,-11.13279 31.54452,-18.2295 17.64715,-12.77415 33.26196,-28.33237 46.22384,-45.83544 10.34569,-14.06691 19.23542,-29.36594 24.91405,-45.93219 2.89612,-8.41171 5.06455,-17.07336 6.54086,-25.84429 1.19539,-8.4623 1.52278,-17.0182 1.77411,-25.5519 0.22874,-11.26031 0.22326,-22.54615 -0.70016,-33.77758 -0.48822,-5.95856 -1.79139,-11.8094 -3.08027,-17.6355 -4.08874,-17.88454 -10.72949,-35.24383 -20.23966,-50.96108 -9.3277,-15.48313 -21.2359,-29.33057 -34.63361,-41.42808 -22.77182,-20.468047 -50.73543,-35.013036 -80.45765,-42.277858 -15.56297,-3.820646 -31.60594,-5.674851 -47.63004,-5.49442 z m 0.54492,43.341798 c 7.08681,-0.0176 14.20435,0.20251 21.20508,0.8125 3.94958,0.35759 8.03546,0.8338 11.9693,1.78627 1.89894,0.42455 3.78312,0.91141 5.66351,1.411 0.67259,0.19473 1.64866,0.46475 2.4375,0.68945 1.57392,0.46987 2.94979,0.88454 4.49811,1.38988 1.70929,0.56093 3.67586,1.24348 5.47393,1.90757 12.82732,4.75527 25.04847,11.21307 36.0059,19.42268 14.57095,10.87468 27.2595,24.31643 37.08719,39.62369 3.52516,5.5184 6.66093,11.29199 9.26886,17.30071 0.47511,1.10259 1.03364,2.43249 1.50035,3.64242 1.62506,4.138 2.99387,8.50934 3.99574,12.75992 2.02506,8.51133 3.19788,17.31533 3.74805,25.97657 0.35261,5.70815 0.44331,11.41201 0.2793,17.1582 -0.0763,2.69804 -0.2209,5.55566 -0.41414,8.25023 -0.36766,5.17909 -0.96665,10.40377 -1.75969,15.47828 -0.33406,2.0716 -0.73984,4.42242 -1.1543,6.48633 -0.76004,3.83451 -1.65822,7.65134 -2.74186,11.48739 -1.57819,5.58074 -3.57696,11.26887 -6.08652,16.59622 -7.62038,16.37304 -18.65076,31.15092 -32.24039,43.05083 -2.0836,1.82889 -4.34222,3.6885 -6.46053,5.32455 -11.73009,9.08216 -24.9357,16.18302 -38.8164,21.37695 -1.37845,0.51279 -2.97546,1.09138 -4.45025,1.59403 -7.73551,2.63139 -15.59391,4.75737 -23.56834,6.27184 -0.721,0.12727 -1.50443,0.24865 -2.26617,0.35422 -3.19679,0.46159 -6.58884,0.76903 -9.69571,1.0221 -2.51088,0.18048 -4.86954,0.33282 -7.39639,0.44413 -5.8752,0.25734 -11.76018,0.34919 -17.63877,0.15548 -2.91225,-0.11757 -5.99797,-0.27661 -8.94448,-0.74386 -1.65705,-0.27178 -3.24224,-0.61808 -4.92314,-1.02828 -8.95107,-2.21292 -17.71046,-5.16557 -26.28923,-8.5326 -5.16599,-2.02396 -10.20359,-4.39753 -14.91809,-7.33341 -9.31332,-5.72266 -18.03619,-12.37107 -26.31215,-19.50083 -0.93275,-0.80298 -1.77707,-1.56027 -2.71838,-2.40009 -2.95457,-2.67028 -5.97364,-5.56079 -8.71289,-8.55468 -0.26618,-0.29688 -0.79757,-0.8914 -1.16018,-1.3069 -1.96506,-2.39049 -4.20943,-4.8637 -4.70505,-8.0349 -0.36637,-2.77923 1.3377,-5.24694 2.88126,-7.38932 3.55538,-4.64895 7.75068,-8.75613 11.85704,-12.91005 11.05801,-10.92481 23.07808,-20.82955 35.42462,-30.25605 15.73956,-11.93938 32.10565,-23.08083 49.19695,-32.99935 6.63905,-3.86868 13.47015,-7.39122 20.35519,-10.79824 3.22842,-1.70497 6.57862,-3.22707 9.5936,-5.30051 0.86189,-0.56647 1.49388,-1.4966 1.43831,-2.55649 -0.18571,-0.57927 -0.45655,-1.26822 -1.07705,-1.52241 -1.34703,-0.76346 -2.95161,-0.15998 -4.39632,-0.08 -10.62424,1.30715 -21.31582,2.11555 -31.8665,3.97563 -17.82311,2.9888 -35.26917,8.12628 -51.92868,15.11987 -15.4121,6.43791 -30.15661,14.36181 -44.48114,22.92547 -5.27399,3.05992 -10.64472,6.14435 -16.37228,8.44188 -1.73501,0.60315 -3.53839,1.37877 -5.41016,1.18945 -0.54656,-0.29418 -0.61662,-1.07926 -0.82992,-1.61422 -0.96715,-4.04958 -1.13456,-8.23513 -1.45852,-12.37189 -0.54237,-8.16878 -0.93697,-16.20683 -0.67835,-24.42209 0.0558,-1.88731 0.15124,-3.95804 0.27148,-5.91406 0.0954,-1.38795 0.21664,-3.03866 0.34738,-4.42938 0.81237,-8.9365 2.42307,-17.81144 4.99637,-26.41242 0.28334,-0.91664 0.64788,-2.10085 0.98189,-3.11314 4.61102,-14.11604 12.04629,-27.22747 21.33513,-38.78463 1.0474,-1.30706 2.22675,-2.7372 3.3318,-4.02195 3.33475,-3.89274 6.8588,-7.62151 10.52501,-11.20333 0.51064,-0.49394 1.25324,-1.19777 1.85292,-1.77228 12.9104,-12.1836 28.04323,-22.04468 44.53416,-28.64962 9.07857,-3.64266 18.5258,-6.38629 28.15172,-8.13073 6.03152,-0.91955 12.18949,-1.16482 18.22871,-1.29721 1.14511,-0.022 2.29035,-0.0316 3.43561,-0.0408 z" />
      <path
         id="path978"
         style="fill:#000000;stroke-width:4.98584"
         d="M 257.47304,33.336776 C 205.5686,32.908914 153.52383,52.30825 112.37469,91.622645 88.496237,114.43643 56.214206,167.61858 56.214206,184.13543 c 0,4.11382 -6.677875,10.91117 -14.837607,15.11583 -17.937898,9.24338 -25.119553,21.48882 -25.119553,42.8201 0,12.18509 4.609637,20.31339 19.266449,33.92556 10.600185,9.84469 21.900594,25.95603 25.109799,35.80168 3.209209,9.84568 12.523653,28.40289 20.690708,41.2356 10.493828,16.48875 14.847366,29.56401 14.847366,44.57955 0,17.44275 2.906744,24.05049 16.232592,36.90013 18.0829,17.43673 52.97069,34.30959 85.00652,41.10923 11.62087,2.46662 43.60559,3.68461 71.07615,2.7121 59.13132,-2.09334 98.63433,-14.83221 128.01704,-41.28421 16.79825,-15.1227 19.32499,-20.22417 19.32499,-39.0387 0,-15.45602 4.24388,-28.31704 14.84736,-44.9781 8.16705,-12.83271 17.47174,-31.38992 20.68095,-41.2356 3.2092,-9.84565 14.50964,-25.95699 25.10982,-35.80168 15.19824,-14.115 19.27616,-21.54147 19.27616,-35.13094 0,-9.47809 -3.30265,-21.58384 -7.33588,-26.89744 -10.64547,-14.02501 -10.77537,-104.45265 -0.15583,-108.5132 8.96828,-3.42933 9.90832,-23.653595 1.49254,-32.039738 -7.70422,-7.677093 -25.2585,-7.677093 -32.96269,0 -8.28522,8.256038 -7.50138,23.93192 1.70716,34.071378 5.93695,6.53737 7.36861,18.0483 6.23353,50.16902 -0.97889,27.70411 -2.84315,38.33537 -5.57018,31.71894 C 438.427,139.09294 425.18319,117.09426 401.74219,94.004242 361.14609,54.015999 309.37748,33.764635 257.47304,33.336776 Z m -6.81887,24.583884 c 74.03285,-1.582526 147.08999,40.784068 176.26611,114.03462 16.63697,41.76935 15.77214,102.66207 -1.99981,140.446 -18.2661,38.83449 -53.87217,75.42151 -90.97669,93.47515 -33.96258,16.52493 -86.38822,23.04174 -119.1691,14.81448 C 139.65969,401.83866 78.572261,330.32132 72.42729,254.03765 67.418065,191.8532 100.65967,123.68532 153.12202,88.550877 183.14787,68.442339 217.00288,58.639993 250.65417,57.92066 Z m 5.34584,40.010784 c -35.99916,0 -71.99762,13.477946 -99.59049,40.419056 -29.90369,29.19732 -42.27597,58.01835 -42.54229,99.12291 -0.11817,18.24222 1.21271,34.60214 2.95582,36.34605 1.7431,1.74391 13.99511,-3.6727 27.22667,-12.03433 32.50131,-20.53913 71.28561,-34.42158 105.80454,-37.87221 l 28.62165,-2.86764 -21.20773,10.04158 c -43.28995,20.49941 -116.14501,78.73156 -116.14501,92.83356 0,7.64873 29.66433,34.17847 49.8489,44.57955 8.11481,4.18153 23.25484,9.70917 33.64557,12.27737 41.24397,10.19403 98.57534,-5.68176 130.46559,-36.12247 29.07487,-27.75324 42.6182,-60.28331 42.88372,-103.02095 0.28219,-45.42799 -10.81048,-72.46308 -42.37644,-103.28342 -27.59288,-26.94111 -63.59135,-40.419056 -99.5905,-40.419056 z" />
      <path
         id="path433"
         style="fill:#1616ff;fill-opacity:0.424931;stroke-width:6.06182"
         d="m 254.98633,96.853516 c -19.88593,0.198575 -39.74957,4.407694 -57.90675,12.550484 -20.382,9.07674 -38.49479,23.02462 -52.83265,40.08901 -7.15558,8.54151 -13.5483,17.76358 -18.67052,27.67067 -4.89434,9.50289 -8.26271,19.76334 -10.12487,30.28334 -2.71668,15.08489 -2.69262,30.47682 -2.4751,45.75011 0.15289,5.34084 0.20242,10.72048 1.13174,15.99649 0.43529,2.07071 1.01589,4.50327 3.01682,5.60326 1.78009,0.92213 3.77392,0.0144 5.50387,-0.59137 6.00592,-2.37154 11.70709,-5.43823 17.36077,-8.53975 6.4378,-3.54425 12.58781,-7.5861 19.08121,-11.03361 17.11989,-9.22408 35.23059,-16.62074 53.92524,-21.97981 3.67387,-1.03149 7.52166,-2.08664 11.33425,-2.83155 11.80014,-2.30895 23.70609,-4.04201 35.62893,-5.57802 3.23156,-0.40684 6.41513,-0.77455 9.6115,-1.08958 1.13904,-0.22243 -0.16513,0.30869 -0.56146,0.5598 -7.41346,4.01307 -15.01941,7.60859 -22.41635,11.66665 -12.57744,6.74511 -24.66638,14.37311 -36.32595,22.59756 -15.92082,11.21222 -31.41025,23.08416 -45.87413,36.13638 -6.63668,6.06881 -13.15987,12.33136 -18.73161,19.41254 -2.17608,2.90341 -4.40726,5.94097 -5.32225,9.50902 -0.48392,1.73584 -0.11024,3.58282 0.78403,5.11916 2.1481,3.84076 5.25832,7.02219 8.29687,10.16211 7.94363,7.87241 16.66214,14.93378 25.73363,21.46114 6.41062,4.52913 12.99691,8.89992 20.14891,12.17937 7.44892,3.23755 15.1683,5.8099 22.91906,8.21617 5.14199,1.53694 10.30385,3.09963 15.61003,3.96316 6.96023,0.9094 14.00628,0.78233 21.00622,0.54799 9.59153,-0.4276 19.19528,-1.23737 28.62911,-3.07523 11.39605,-2.45648 22.57391,-5.99409 33.24615,-10.69502 15.07074,-6.63878 29.0631,-15.8246 40.83255,-27.36976 10.345,-10.09188 19.49728,-21.53014 26.18834,-34.38045 5.60684,-10.74759 9.73025,-22.27828 12.09753,-34.17061 2.97803,-14.75294 3.94851,-29.88447 3.27555,-44.90961 -0.67955,-14.09797 -2.83411,-28.2347 -7.67357,-41.53989 -4.11633,-11.58699 -10.30658,-22.38858 -17.93823,-32.01432 -6.35305,-8.05001 -13.51034,-15.44298 -21.07528,-22.35552 -14.15764,-12.80758 -30.68604,-23.11525 -48.72813,-29.46138 -15.59058,-5.533647 -32.17882,-8.070426 -48.70546,-7.858934 z" />
    </g>
  </g>
</svg>
