<?xml version="1.0" encoding="UTF-8" standalone="no"?>
<svg
   width="512"
   height="512"
   version="1.1"
   viewBox="0 0 135.46 135.46"
   id="svg1092"
   sodipodi:docname="swaks.svg"
   inkscape:version="1.1.2 (0a00cf5339, 2022-02-04)"
   xmlns:inkscape="http://www.inkscape.org/namespaces/inkscape"
   xmlns:sodipodi="http://sodipodi.sourceforge.net/DTD/sodipodi-0.dtd"
   xmlns="http://www.w3.org/2000/svg"
   xmlns:svg="http://www.w3.org/2000/svg">
  <sodipodi:namedview
     id="namedview1094"
     pagecolor="#505050"
     bordercolor="#eeeeee"
     borderopacity="1"
     inkscape:pageshadow="0"
     inkscape:pageopacity="0"
     inkscape:pagecheckerboard="0"
     showgrid="false"
     inkscape:zoom="0.61733737"
     inkscape:cx="256.74778"
     inkscape:cy="328.02162"
     inkscape:window-width="1366"
     inkscape:window-height="695"
     inkscape:window-x="0"
     inkscape:window-y="24"
     inkscape:window-maximized="1"
     inkscape:current-layer="svg1092" />
  <defs
     id="defs1032">
    <linearGradient
       id="a"
       x1="64.856"
       x2="88.935"
       y1="95.339"
       y2="63.465"
       gradientTransform="translate(-9.0593,-12.719)"
       gradientUnits="userSpaceOnUse">
      <stop
         stop-color="#316fd8"
         offset="0"
         id="stop1027" />
      <stop
         stop-color="#4a88f1"
         offset="1"
         id="stop1029" />
    </linearGradient>
  </defs>
  <g
     id="g1205"
     transform="matrix(1.1057311,0,0,1.0814955,-7.1601398,2.9885052)">
    <path
       d="m 78.23,18.927 5.353,-4.9243 10.301,8.1619 c 2.9097,3.0564 -5.2176,9.0307 -8.7009,0.20276 -4.6685,4.5108 5.6094,10.246 11.923,15.656 l 10.799,-12.416 -23.41,-19.433 -7.8429,-3.4344 -2.5396,2.2251 c 0.4267,0.76442 1.1174,1.4846 0.61776,2.4162 -0.66916,2.7462 -0.77422,5.8339 0.83954,8.2855 0.72448,1.2075 1.6568,2.278 2.6604,3.2604 z"
       opacity="0.3"
       stroke-width="1.0354"
       id="path1034" />
    <path
       d="m 122.85,100.35 -29.052,-51.332 0.42056,-10.907 9.3202,24.191 c 3.1914,5.4436 7.3846,2.5569 8.7355,4.8613 l 10.201,21.071 c 2.5484,6.4308 1.5693,10.014 0.37433,12.116 z"
       opacity="0.3"
       stroke-width="1.0354"
       id="path1036" />
    <path
       d="m 83.648,62.743 c -1.5273,0 -2.7937,1.2663 -2.7937,2.7936 v 5.3542 c 0,2.5241 1.6361,4.7659 4.0397,5.5374 a 1.2812,1.2812 0 0 0 0.0038,0 l 1.8215,0.58096 -9.9769,2.4924 c -1.9086,0.47602 -3.2621,2.2042 -3.2621,4.1758 0,1.9716 1.3537,3.7004 3.2621,4.1763 v -0.0022 l 8.2045,2.0522 -6.8844,1.9651 c -1.767,0.50309 -3.0281,2.0867 -3.1165,3.924 -0.08884,1.8312 1.0002,3.5309 2.7026,4.2118 l 5.2351,2.0937 -3.2686,1.6342 c -1.554,0.77552 -2.4911,2.4205 -2.3714,4.1512 a 1.2812,1.2812 0 0 0 0.0022,0.005 c 0.12818,1.7288 1.2843,3.2262 2.9333,3.7749 l 1.4071,0.46885 c -0.42548,0.50202 -0.73207,1.1094 -0.73207,1.7779 v 3.0224 c 0,1.5274 1.2664,2.7932 2.7937,2.7932 1.5273,0 2.7932,-1.2657 2.7932,-2.7932 v -1.8669 l 2.2013,-2.2073 -0.0055,0.004 c 0.68914,-0.68403 0.96922,-1.6767 0.74709,-2.6156 -0.22012,-0.94696 -0.92207,-1.7042 -1.831,-2.0086 a 1.2812,1.2812 0 0 0 -0.0022,0 l -2.6721,-0.89271 3.0504,-1.5263 c 1.5156,-0.75776 2.4495,-2.3449 2.3774,-4.0341 -0.07203,-1.6878 -1.1318,-3.1895 -2.7041,-3.8165 l -4.4015,-1.7613 7.8812,-2.2502 c 1.8665,-0.53306 3.1557,-2.2692 3.1225,-4.2123 -0.03408,-1.9423 -1.3791,-3.632 -3.2626,-4.1017 l -7.8697,-1.967 9.3809,-2.3433 a 1.2812,1.2812 0 0 0 0.0019,0 c 1.7408,-0.43773 3.0343,-1.9203 3.234,-3.7034 a 1.2812,1.2812 0 0 0 0.0019,-0.0041 c 0.19509,-1.7869 -0.82429,-3.561 -2.5836,-4.4144 a 1.2812,1.2812 0 0 0 -0.16814,-0.06803 l -6.3395,-2.0357 a 1.2812,1.2812 0 0 0 -0.0022,0 C 86.49846,71.07589 86.44047,70.9981 86.44047,70.88833 v -5.3542 c 0,-1.5274 -1.2657,-2.7936 -2.7932,-2.7936 z"
       color="#000000"
       color-rendering="auto"
       dominant-baseline="auto"
       image-rendering="auto"
       opacity="0.3"
       shape-rendering="auto"
       solid-color="#000000"
       stop-color="#000000"
       stroke-width="1.0354"
       style="font-variant-ligatures:normal;font-variant-position:normal;font-variant-caps:normal;font-variant-numeric:normal;font-variant-alternates:normal;font-variant-east-asian:normal;font-feature-settings:normal;font-variation-settings:normal;text-indent:0;text-decoration-line:none;text-decoration-style:solid;text-decoration-color:#000000;text-transform:none;text-orientation:mixed;white-space:normal;shape-padding:0;shape-margin:0;inline-size:0;isolation:auto;mix-blend-mode:normal"
       id="path1038" />
    <path
       d="m 11.767,35.685 c 6.4274,3.1804 11.253,6.0275 28.328,6.6376 l 54.547,1.3909 6.241,-13.059 c -21.868,0.22968 -43.369,-1.9424 -64.987,-3.3489 -9.0451,0 -18.408,3.8261 -24.129,8.3795 z"
       opacity="0.3"
       stroke-width="1.0354"
       id="path1040" />
    <path
       d="m 39.017,45.652 c 2.7272,4.7236 3.5876,7.1193 3.5876,17.672 l -1.591,26.827 -12.345,5.4007 2.1732,-32.84 c 0.56694,-9.4931 4.6035,-12.629 8.1744,-17.059 z"
       opacity="0.3"
       stroke-width="1.0354"
       id="path1042" />
    <path
       d="m 83.648,60.003 c -1.5273,0 -2.7937,1.2662 -2.7937,2.7936 v 5.3542 c 0,2.5241 1.6361,4.7659 4.0397,5.5374 a 1.2812,1.2812 0 0 0 0.0038,0 l 1.8215,0.58096 -9.9769,2.4924 c -1.9086,0.47602 -3.2621,2.2042 -3.2621,4.1758 0,1.9716 1.3537,3.7004 3.2621,4.1763 v -0.0022 l 8.2045,2.0522 -6.8844,1.9651 c -1.767,0.50308 -3.0281,2.0867 -3.1165,3.924 -0.08884,1.8312 1.0002,3.5309 2.7026,4.2118 l 5.2351,2.0937 -3.2686,1.6342 c -1.554,0.77552 -2.4911,2.4205 -2.3714,4.1512 a 1.2812,1.2812 0 0 0 0.0022,0.005 c 0.12818,1.7288 1.2843,3.2262 2.9333,3.7749 l 1.4071,0.46888 c -0.42548,0.50202 -0.73207,1.1094 -0.73207,1.7779 v 3.0224 c 0,1.5274 1.2664,2.7932 2.7937,2.7932 1.5273,0 2.7932,-1.2657 2.7932,-2.7932 v -1.8669 l 2.2013,-2.2073 -0.0055,0.004 c 0.68914,-0.68402 0.96922,-1.6767 0.74709,-2.6156 -0.22012,-0.94696 -0.92207,-1.7042 -1.831,-2.0086 a 1.2812,1.2812 0 0 0 -0.0022,0 l -2.6721,-0.89272 3.0504,-1.5263 c 1.5156,-0.75777 2.4495,-2.3449 2.3774,-4.0341 -0.07203,-1.6878 -1.1318,-3.1895 -2.7041,-3.8165 l -4.4015,-1.7609 7.8812,-2.2502 c 1.8665,-0.53307 3.1557,-2.2692 3.1225,-4.2123 -0.03408,-1.9423 -1.3791,-3.632 -3.2626,-4.1017 l -7.8697,-1.967 9.3809,-2.3433 a 1.2812,1.2812 0 0 0 0.0019,0 c 1.7408,-0.43772 3.0343,-1.9203 3.234,-3.7034 a 1.2812,1.2812 0 0 0 0.0019,-0.0041 c 0.19509,-1.7869 -0.82429,-3.561 -2.5835,-4.4144 a 1.2812,1.2812 0 0 0 -0.16814,-0.06803 l -6.3395,-2.0348 a 1.2812,1.2812 0 0 0 -0.0022,0 c -0.09912,-0.03138 -0.15711,-0.10917 -0.15711,-0.21894 v -5.3536 c 0,-1.5274 -1.2657,-2.7936 -2.7932,-2.7936 z"
       color="#000000"
       color-rendering="auto"
       dominant-baseline="auto"
       fill="#999999"
       image-rendering="auto"
       shape-rendering="auto"
       solid-color="#000000"
       stop-color="#000000"
       stroke-width="1.0354"
       style="font-variant-ligatures:normal;font-variant-position:normal;font-variant-caps:normal;font-variant-numeric:normal;font-variant-alternates:normal;font-variant-east-asian:normal;font-feature-settings:normal;font-variation-settings:normal;text-indent:0;text-decoration-line:none;text-decoration-style:solid;text-decoration-color:#000000;text-transform:none;text-orientation:mixed;white-space:normal;shape-padding:0;shape-margin:0;inline-size:0;isolation:auto;mix-blend-mode:normal"
       id="path1044" />
    <path
       d="m 39.017,42.912 c 2.7272,4.7236 3.5876,7.1193 3.5876,17.672 l -1.591,26.827 -12.345,5.4007 2.1732,-32.84 c 0.56694,-9.4931 4.6035,-12.629 8.1744,-17.059 z"
       fill="#cccccc"
       stroke-width="1.0354"
       id="path1046" />
    <path
       d="m 11.383,58.444 7.6394,-2.0475 c 8.9437,10.221 0.36629,19.223 10.301,24.709 0.70617,0.30913 3.5794,0.11425 5.1254,-0.22142 2.7302,-0.35641 0.46364,-2.5496 1.2619,-3.1372 2.3724,-1.2584 3.4283,3.0418 4.2632,5.1456 -3.6495,1.4271 -1.3977,2.9976 0.54245,2.7814 0.58607,4.2495 -3.0432,10.502 -4.5652,15.753 l -8.6386,-1.3425 -14.133,-31.661 z"
       opacity="0.3"
       stroke-width="1.0354"
       id="path1048" />
    <path
       d="m 122.85,97.611 -29.052,-51.332 0.42056,-10.907 9.3202,24.191 c 3.1914,5.4436 7.3846,2.5569 8.7355,4.8613 l 10.201,21.071 c 2.5484,6.4308 1.5693,10.014 0.37433,12.116 z"
       fill="#999999"
       stroke-width="1.0354"
       id="path1050" />
    <path
       d="m 78.23,16.187 5.353,-4.9243 10.301,8.1619 c 2.9097,3.0564 -5.2176,9.0307 -8.7009,0.20276 -4.6685,4.5108 5.6094,10.246 11.923,15.656 l 10.799,-12.416 -23.41,-19.433 -7.8429,-3.4344 -2.5396,2.2251 c 0.4267,0.76442 1.1174,1.4846 0.61776,2.4162 -0.66916,2.7462 -0.77422,5.8339 0.83954,8.2855 0.72448,1.2075 1.6568,2.278 2.6604,3.2604 z"
       fill="#cccccc"
       stroke-width="1.0354"
       id="path1052" />
    <path
       d="m 11.767,32.945 c 6.4274,3.1804 11.253,6.0275 28.328,6.6376 l 54.547,1.3909 6.241,-13.059 c -21.868,0.22968 -43.369,-1.9424 -64.987,-3.3489 -9.0451,0 -18.408,3.8261 -24.129,8.3795 z"
       fill="#999999"
       stroke-width="1.0354"
       id="path1054" />
    <path
       d="m 12.481,55.934 7.6394,-2.0475 c 8.9437,10.221 0.36629,19.223 10.301,24.709 0.70617,0.30913 3.5794,0.11425 5.1254,-0.22142 2.7302,-0.35641 0.46363,-2.5496 1.2619,-3.1372 2.3724,-1.2584 3.4283,3.0418 4.2632,5.1456 -3.6495,1.4271 -1.3977,2.9976 0.54245,2.7814 0.58607,4.2495 -3.0432,10.502 -4.5652,15.753 l -8.6386,-1.3425 -14.133,-31.661 z"
       fill="#808080"
       stroke-width="1.0354"
       id="path1056" />
    <path
       d="m 112.1,103.26 3.6582,-58.869 -5.1511,-9.6232 2.2058,25.83 c -0.48735,6.2912 -5.5209,5.5308 -5.7273,8.1938 l 0.0488,23.41 c 0.52276,6.8975 2.9712,9.6911 4.9655,11.059 z"
       opacity="0.3"
       stroke-width="1.0354"
       id="path1058" />
    <path
       d="m 112.1,100.52 3.6582,-58.869 -5.1511,-9.6232 2.2058,25.83 c -0.48735,6.2912 -5.5209,5.5308 -5.7273,8.1938 l 0.0488,23.41 c 0.52276,6.8975 2.9712,9.6911 4.9655,11.059 z"
       fill="#cccccc"
       stroke-width="1.0354"
       id="path1060" />
    <g
       transform="matrix(0.96833,0,0,0.96833,27.649,-9.2919)"
       shape-rendering="auto"
       id="g1076">
      <path
         d="M 11.768,111.98 83.641,45.258"
         color="#000000"
         color-rendering="auto"
         dominant-baseline="auto"
         fill="#d41919"
         image-rendering="auto"
         solid-color="#000000"
         stop-color="#000000"
         style="font-variant-ligatures:normal;font-variant-position:normal;font-variant-caps:normal;font-variant-numeric:normal;font-variant-alternates:normal;font-variant-east-asian:normal;font-feature-settings:normal;font-variation-settings:normal;text-indent:0;text-decoration-line:none;text-decoration-style:solid;text-decoration-color:#000000;text-transform:none;text-orientation:mixed;white-space:normal;shape-padding:0;shape-margin:0;inline-size:0;isolation:auto;mix-blend-mode:normal"
         id="path1062" />
      <path
         d="m 83.329,37.506 a 13.229,13.229 0 0 0 -8.8711,3.5332 l -71.873,66.723 a 13.229,13.229 0 0 0 -0.69531,18.695 13.229,13.229 0 0 0 18.697,0.69531 l 71.871,-66.723 a 13.229,13.229 0 0 0 0.69531,-18.695 13.229,13.229 0 0 0 -9.8242,-4.2285 z"
         color="#000000"
         color-rendering="auto"
         dominant-baseline="auto"
         fill="#e6e6e6"
         image-rendering="auto"
         solid-color="#000000"
         stop-color="#000000"
         style="font-variant-ligatures:normal;font-variant-position:normal;font-variant-caps:normal;font-variant-numeric:normal;font-variant-alternates:normal;font-variant-east-asian:normal;font-feature-settings:normal;font-variation-settings:normal;text-indent:0;text-decoration-line:none;text-decoration-style:solid;text-decoration-color:#000000;text-transform:none;text-orientation:mixed;white-space:normal;shape-padding:0;shape-margin:0;inline-size:0;isolation:auto;mix-blend-mode:normal"
         id="path1064" />
      <path
         d="m 96.661,49.938 a 13.229,13.229 0 0 1 -4.2044,8.9042 l -71.871,66.722 a 13.229,13.229 0 0 1 -18.697,-0.69556 13.229,13.229 0 0 1 -3.5094,-8.2067 13.229,13.229 0 0 0 3.5094,9.7942 13.229,13.229 0 0 0 18.697,0.69556 l 71.871,-66.722 a 13.229,13.229 0 0 0 4.2044,-10.492 z"
         color="#000000"
         color-rendering="auto"
         dominant-baseline="auto"
         image-rendering="auto"
         opacity="0.5"
         solid-color="#000000"
         stop-color="#000000"
         stroke-width="0.26458"
         style="font-variant-ligatures:normal;font-variant-position:normal;font-variant-caps:normal;font-variant-numeric:normal;font-variant-alternates:normal;font-variant-east-asian:normal;font-feature-settings:normal;font-variation-settings:normal;text-indent:0;text-decoration-line:none;text-decoration-style:solid;text-decoration-color:#000000;text-transform:none;text-orientation:mixed;white-space:normal;shape-padding:0;shape-margin:0;inline-size:0;isolation:auto;mix-blend-mode:normal"
         id="path1066" />
      <path
         d="m 96.662,48.351 a 13.229,13.229 0 0 1 -4.2043,8.9043 l -71.871,66.723 a 13.229,13.229 0 0 1 -18.697,-0.69555 13.229,13.229 0 0 1 -3.5093,-8.2066 13.229,13.229 0 0 0 3.5093,9.7941 13.229,13.229 0 0 0 18.697,0.69555 l 71.871,-66.723 a 13.229,13.229 0 0 0 4.2043,-10.492 z"
         color="#000000"
         color-rendering="auto"
         dominant-baseline="auto"
         image-rendering="auto"
         opacity="0.2"
         solid-color="#000000"
         stop-color="#000000"
         style="font-variant-ligatures:normal;font-variant-position:normal;font-variant-caps:normal;font-variant-numeric:normal;font-variant-alternates:normal;font-variant-east-asian:normal;font-feature-settings:normal;font-variation-settings:normal;text-indent:0;text-decoration-line:none;text-decoration-style:solid;text-decoration-color:#000000;text-transform:none;text-orientation:mixed;white-space:normal;shape-padding:0;shape-margin:0;inline-size:0;isolation:auto;mix-blend-mode:normal"
         id="path1068" />
      <path
         d="m 83.512,32.031 a 13.229,13.229 0 0 0 -8.8711,3.5332 l -71.873,66.723 a 13.229,13.229 0 0 0 -0.69531,18.695 13.229,13.229 0 0 0 18.697,0.69531 l 71.871,-66.723 a 13.229,13.229 0 0 0 0.69531,-18.695 13.229,13.229 0 0 0 -9.8242,-4.2285 z"
         color="#000000"
         color-rendering="auto"
         dominant-baseline="auto"
         fill="#bf1717"
         image-rendering="auto"
         solid-color="#000000"
         stop-color="#000000"
         style="font-variant-ligatures:normal;font-variant-position:normal;font-variant-caps:normal;font-variant-numeric:normal;font-variant-alternates:normal;font-variant-east-asian:normal;font-feature-settings:normal;font-variation-settings:normal;text-indent:0;text-decoration-line:none;text-decoration-style:solid;text-decoration-color:#000000;text-transform:none;text-orientation:mixed;white-space:normal;shape-padding:0;shape-margin:0;inline-size:0;isolation:auto;mix-blend-mode:normal"
         id="path1070" />
      <path
         transform="matrix(0.28292,0,0,0.28292,-39.337,-2.4241)"
         d="m 481.16,163.54 a 46.759,46.759 0 0 1 -14.678,29.27 l -254.03,235.84 a 46.759,46.759 0 0 1 -66.088,-2.457 46.759,46.759 0 0 1 -12.219,-26.812 46.759,46.759 0 0 0 12.219,36.812 46.759,46.759 0 0 0 66.088,2.457 l 254.03,-235.84 a 46.759,46.759 0 0 0 14.678,-39.27 z"
         color="#000000"
         color-rendering="auto"
         dominant-baseline="auto"
         image-rendering="auto"
         opacity="0.3"
         solid-color="#000000"
         stop-color="#000000"
         style="font-variant-ligatures:normal;font-variant-position:normal;font-variant-caps:normal;font-variant-numeric:normal;font-variant-alternates:normal;font-variant-east-asian:normal;font-feature-settings:normal;font-variation-settings:normal;text-indent:0;text-decoration-line:none;text-decoration-style:solid;text-decoration-color:#000000;text-transform:none;text-orientation:mixed;white-space:normal;shape-padding:0;shape-margin:0;inline-size:0;isolation:auto;mix-blend-mode:normal"
         id="path1072" />
      <path
         transform="matrix(0.28292,0,0,0.28292,-39.337,-2.4241)"
         d="m 434.61,121.78 a 46.759,46.759 0 0 0 -0.39258,0.002 46.759,46.759 0 0 0 -31.355,12.488 l -254.04,235.84 a 46.759,46.759 0 0 0 -14.676,39.268 46.759,46.759 0 0 1 14.676,-29.268 l 254.04,-235.84 a 46.759,46.759 0 0 1 31.355,-12.488 46.759,46.759 0 0 1 34.725,14.947 46.759,46.759 0 0 1 12.221,26.811 46.759,46.759 0 0 0 -12.221,-36.811 46.759,46.759 0 0 0 -34.332,-14.949 z"
         color="#000000"
         color-rendering="auto"
         dominant-baseline="auto"
         fill="#ffffff"
         image-rendering="auto"
         opacity="0.2"
         solid-color="#000000"
         stop-color="#000000"
         style="font-variant-ligatures:normal;font-variant-position:normal;font-variant-caps:normal;font-variant-numeric:normal;font-variant-alternates:normal;font-variant-east-asian:normal;font-feature-settings:normal;font-variation-settings:normal;text-indent:0;text-decoration-line:none;text-decoration-style:solid;text-decoration-color:#000000;text-transform:none;text-orientation:mixed;white-space:normal;shape-padding:0;shape-margin:0;inline-size:0;isolation:auto;mix-blend-mode:normal"
         id="path1074" />
    </g>
    <path
       d="m 95.816,37.353 c -0.31304,-0.0037 -0.63335,0.10872 -0.87411,0.3505 l -0.04151,0.04243 -0.0348,0.04413 c -3.037,3.8324 -4.3165,7.9923 -3.4897,11.951 l 0.01877,0.09673 0.03906,0.08912 c 0.04451,0.10793 0.12104,0.26222 0.26902,0.41075 0.12564,0.12585 0.2876,0.22879 0.46846,0.29194 l 0.09247,0.03563 0.10022,0.01281 c 3.8077,0.55865 8.4515,-0.05152 11.979,-3.5796 0.38319,-0.38332 0.44218,-0.96789 0.21813,-1.4079 l -0.0289,-0.05517 -0.0958,-0.14768 -0.0866,-0.08317 c -1.3366,-1.268 -2.0048,-2.7677 -2.2616,-4.4868 l -0.0255,-0.16718 -0.0772,-0.14766 c -0.11988,-0.23736 -0.30653,-0.42784 -0.54483,-0.54824 l -0.16718,-0.08317 -0.18249,-0.01951 c -1.8977,-0.21818 -3.3154,-1.0276 -4.4462,-2.2489 L 96.51661,37.56557 96.35288,37.4824 C 96.18826,37.39888 96.00351,37.35471 95.8157,37.35256 Z m 0.26139,2.4968 c 1.146,0.96006 2.5103,1.6654 4.1347,1.9723 0.3162,1.5298 1.0113,2.9626 2.0783,4.2408 -2.6588,2.3136 -5.8772,2.82 -8.8429,2.5307 -0.37437,-2.8126 0.4902,-5.7651 2.63,-8.7437 z m -0.01315,2.7531 -1.5853,1.5853 0.93182,0.93182 -0.93182,0.93097 1.5853,1.5853 0.93182,-0.93097 0.93098,0.93097 1.5853,-1.5853 -0.93097,-0.93097 0.93097,-0.93182 -1.5853,-1.5853 -0.93098,0.93182 z m 6.6442,4.0277 c 0.0863,0.08839 0.12053,0.19899 0.21129,0.28514 l -0.15025,-0.17907 -0.0611,-0.1027 c -4.8e-4,-9.06e-4 4.7e-4,-0.0024 0,-0.0035 z"
       color="#000000"
       color-rendering="auto"
       dominant-baseline="auto"
       fill="#ffffff"
       image-rendering="auto"
       shape-rendering="auto"
       solid-color="#000000"
       stop-color="#000000"
       stroke-width="1.0354"
       style="font-variant-ligatures:normal;font-variant-position:normal;font-variant-caps:normal;font-variant-numeric:normal;font-variant-alternates:normal;font-variant-east-asian:normal;font-feature-settings:normal;font-variation-settings:normal;text-indent:0;text-decoration-line:none;text-decoration-style:solid;text-decoration-color:#000000;text-transform:none;text-orientation:mixed;white-space:normal;shape-padding:0;shape-margin:0;inline-size:0;isolation:auto;mix-blend-mode:normal"
       id="path1078" />
    <g
       id="g1090">
      <path
         d="M 94.2,67.73 C 94.2,82.349 82.349,94.2 67.73,94.2 53.111,94.2 41.26,82.349 41.26,67.73 c 0,-14.619 11.851,-26.47 26.47,-26.47 14.619,0 26.47,11.851 26.47,26.47 z"
         fill="url(#a)"
         stroke-width="0.15686"
         id="path1080"
         style="fill:url(#a)" />
      <path
         d="m 67.73,41.26 c -14.619,0 -26.47,11.851 -26.47,26.47 0,0.44364 0.0115,0.88457 0.03307,1.3229 0.68933,-14.005 12.262,-25.148 26.437,-25.148 14.176,0 25.748,11.143 26.437,25.148 0.02157,-0.43828 0.03256,-0.87922 0.03256,-1.3229 0,-14.619 -11.851,-26.47 -26.47,-26.47 z"
         fill="#ffffff"
         opacity="0.2"
         stroke-width="0.26457"
         id="path1082" />
      <path
         d="m 41.293,66.407 c -0.02157,0.43828 -0.03307,0.87922 -0.03307,1.3229 0,14.619 11.851,26.47 26.47,26.47 14.619,0 26.47,-11.851 26.47,-26.47 0,-0.44364 -0.01098,-0.88457 -0.03256,-1.3229 -0.68933,14.005 -12.262,25.147 -26.437,25.147 -14.176,0 -25.748,-11.143 -26.437,-25.147 z"
         opacity="0.3"
         stroke-width="0.26457"
         id="path1084" />
      <path
         d="m 55.181,58.99 c -0.59382,0 -1.0719,0.47806 -1.0719,1.0719 v 18.511 c 2e-6,0.59382 0.47806,1.0719 1.0719,1.0719 h 25.098 c 0.59382,0 1.0719,-0.47806 1.0719,-1.0719 v -18.511 c 0,-0.59382 -0.47806,-1.0719 -1.0719,-1.0719 z"
         opacity="0.2"
         stroke-width="0.21438"
         id="path1086" />
      <path
         d="m 55.181,58.461 c -0.59382,0 -1.0719,0.47806 -1.0719,1.0719 v 16.395 c 2e-6,0.59382 0.47806,1.0719 1.0719,1.0719 h 25.098 c 0.59382,0 1.0719,-0.47806 1.0719,-1.0719 v -16.395 c 0,-0.59382 -0.47806,-1.0719 -1.0719,-1.0719 z m 1.11,0.89854 a 1.2088,1.2088 0 0 1 0.703,0.22024 l 10.736,7.5505 10.736,-7.5505 a 1.2088,1.2088 0 0 1 1.6836,0.29267 1.2088,1.2088 0 0 1 -0.29267,1.684 l -11.431,8.0408 a 1.2089,1.2089 0 0 1 -1.3909,0 l -11.433,-8.0408 a 1.2088,1.2088 0 0 1 -0.29267,-1.684 1.2088,1.2088 0 0 1 0.98102,-0.51291 z"
         fill="#ffffff"
         stroke-width="0.21438"
         id="path1088" />
    </g>
  </g>
</svg>
