<?xml version="1.0" encoding="UTF-8" standalone="no"?>
<!-- Created with Inkscape (http://www.inkscape.org/) -->

<svg
   version="1.1"
   id="svg870"
   width="512"
   height="512"
   viewBox="0 0 512 512"
   sodipodi:docname="termineter.svg"
   inkscape:version="1.2.2 (b0a8486541, 2022-12-01)"
   xmlns:inkscape="http://www.inkscape.org/namespaces/inkscape"
   xmlns:sodipodi="http://sodipodi.sourceforge.net/DTD/sodipodi-0.dtd"
   xmlns="http://www.w3.org/2000/svg"
   xmlns:svg="http://www.w3.org/2000/svg">
  <defs
     id="defs874" />
  <sodipodi:namedview
     id="namedview872"
     pagecolor="#505050"
     bordercolor="#eeeeee"
     borderopacity="1"
     inkscape:pageshadow="0"
     inkscape:pageopacity="0"
     inkscape:pagecheckerboard="0"
     showgrid="false"
     inkscape:zoom="0.64505455"
     inkscape:cx="84.488978"
     inkscape:cy="158.12616"
     inkscape:window-width="1366"
     inkscape:window-height="705"
     inkscape:window-x="0"
     inkscape:window-y="26"
     inkscape:window-maximized="1"
     inkscape:current-layer="g876"
     inkscape:showpageshadow="0"
     inkscape:deskcolor="#505050" />
  <g
     inkscape:groupmode="layer"
     inkscape:label="Image"
     id="g876">
    <g
       id="g881">
      <path
         id="path3824-6"
         style="fill:#ffffff;fill-opacity:1;stroke-width:6.09579"
         d="m 143.83448,21.159672 c -21.50754,13.029701 -43.04217,26.018144 -64.356417,39.362812 -2.849433,1.840007 -5.621623,4.162669 -6.858568,7.423194 -1.643799,4.025163 -1.292964,8.460689 -1.420437,12.712461 -0.05101,9.857923 0.634282,19.705651 1.079695,29.590711 1.239661,25.0632 2.518023,50.1247 3.868595,75.18223 0.636171,11.19434 1.185833,22.42964 1.998011,33.62654 0.304332,3.86754 0.677372,7.95888 1.18403,11.80014 0.528123,4.46866 1.383215,9.08261 3.973076,12.86511 0.814507,1.29018 1.964947,2.30074 3.044366,3.35245 0.703184,0.75549 0.642471,1.81301 0.577329,2.76138 0,17.19625 0,34.3925 0,51.58875 7.914147,19.87242 15.82763,39.74511 23.74219,59.61736 -1.20961,20.16212 -2.74899,40.25107 -3.34699,60.43075 -0.0191,3.53908 0.67746,7.27327 2.99329,10.06663 2.52274,3.28718 5.69407,5.98888 8.59971,8.92172 10.51742,10.14365 21.3564,19.94563 32.06226,29.88839 12.02531,11.09394 24.05771,22.1802 36.09352,33.26275 48.51955,0.0201 97.03911,0.0403 145.55866,0.0604 23.58732,-21.68606 47.38554,-43.15288 70.61492,-65.21076 2.83275,-2.85174 5.88281,-5.56596 8.12879,-8.92669 1.55371,-2.93518 1.16083,-6.36513 1.17767,-9.565 -0.12506,-13.93049 -1.31967,-27.82164 -2.13918,-41.77539 -0.37385,-5.71571 -0.74866,-11.43137 -1.12193,-17.14712 7.95079,-19.89941 15.90104,-39.79903 23.85162,-59.69853 -0.0235,-25.09096 0.0274,-50.19017 1.02578,-75.26484 1.60141,-44.02435 4.30746,-87.99842 6.24691,-132.007556 0.35018,-8.72479 0.42963,-17.536639 0.37787,-26.308012 -0.0195,-0.572674 -0.78645,-0.80323 -1.12636,-1.227827 C 430.60382,58.963646 420.5487,52.86411 410.71153,46.38429 390.93591,33.565757 371.02129,20.989599 351.14096,8.3265582 c -62.04025,0 -124.0805,0 -186.12076,0 -7.06191,4.2777048 -14.12381,8.5554088 -21.18572,12.8331138 z m 202.03128,81.388368 c 1.06546,0.22719 2.27928,0.8679 2.443,2.06616 0.2841,1.48766 -1.2532,2.73009 -2.6694,2.58018 -1.49797,0.004 -2.63379,-1.61076 -2.19052,-3.02927 0.27175,-1.03304 1.33614,-1.82524 2.41692,-1.61707 z M 132.84825,237.79962 c 0.76481,0.15349 1.23544,0.93977 1.47504,1.62312 0.14763,0.64625 -0.0523,1.29991 -0.42658,1.81781 -0.84202,0.86061 -2.33172,0.92427 -3.19148,0.0615 -0.66451,-0.62611 -0.81777,-1.70333 -0.33101,-2.48628 0.34093,-0.59086 0.99343,-0.9014 1.49295,-1.34459 0.32702,0.10946 0.65405,0.21891 0.98108,0.32837 z m 101.15337,83.75494 c 1.52588,-0.0851 2.67213,1.60877 2.19009,3.015 -0.31702,1.13485 -1.63639,1.79259 -2.74102,1.38789 -1.29038,-0.27086 -2.21554,-1.78117 -1.6604,-3.02671 0.32472,-0.87288 1.29254,-1.41862 2.21133,-1.37618 z" />
      <path
         id="path3824"
         style="fill:#752f0a;fill-opacity:1;stroke-width:6.09579"
         d="m 172.38775,34.698607 c -21.44819,13.071277 -42.97471,26.009503 -64.31396,39.255203 -3.01733,1.912972 -6.10252,3.730109 -9.025403,5.785041 -1.019296,0.882244 -0.786363,2.390591 -0.87701,3.608502 -0.08967,8.5942 0.261379,17.185627 0.524363,25.773937 1.036481,29.95414 2.65507,59.88367 4.06877,89.82139 0.43,8.86331 0.85704,17.72677 1.28897,26.59 4.30764,-0.0472 8.64895,0.15728 12.9105,-0.61471 2.27439,-0.40234 4.47492,-1.12818 6.71303,-1.6877 0,-35.87485 0,-71.74969 0,-107.62454 1.6274,-1.52177 3.21491,-3.09969 5.09394,-4.31682 9.38677,-6.50131 19.00353,-12.662678 28.61663,-18.821698 11.9384,-7.590455 23.89615,-15.150563 35.84252,-22.728541 43.68898,0 87.37796,0 131.06694,0 20.94327,14.522919 41.88747,29.044497 62.83267,43.564649 0.26342,36.77127 0.52614,73.54256 0.79052,110.31383 3.99859,0.22898 7.98978,0.62881 11.99411,0.7301 2.10679,-0.0454 4.33638,-0.0134 6.27366,-0.94804 1.02212,-0.47106 1.45633,-1.59147 1.46321,-2.65768 0.77169,-9.34675 1.22078,-18.71725 1.77143,-28.07912 1.46854,-27.0094 2.85225,-54.02722 3.96569,-81.05498 0.41567,-10.70242 0.7795,-21.406783 1.17583,-32.109931 -23.79267,-15.022296 -47.58286,-30.04851 -71.37562,-45.070652 -56.77952,-0.0021 -113.55904,-0.0054 -170.33854,-0.0095 -0.15409,0.09374 -0.30816,0.187464 -0.46225,0.281196 z" />
      <path
         id="path1115"
         style="fill:#ffd3c0;fill-opacity:1;stroke-width:6.09579"
         d="m 316.59554,84.849663 c -7.11051,13.714486 -14.14316,27.469377 -21.32065,41.148807 -1.96614,3.61146 -3.81209,7.31816 -6.24044,10.6491 -0.81035,1.12552 -1.93258,2.18726 -3.40073,2.23096 -2.07555,0.20207 -4.40777,0.43301 -6.24305,-0.76053 -1.35857,-1.02989 -1.07111,-2.94859 -0.78967,-4.41394 0.5322,-2.5104 1.4964,-4.94996 2.4171,-7.25435 4.05834,-9.66454 8.86746,-18.98769 13.46456,-28.40128 2.33416,-4.732973 4.66698,-9.466608 7.00233,-14.198995 -34.95106,0 -69.90212,0 -104.85318,0 -20.07478,12.517675 -40.14753,25.038615 -60.22148,37.557615 -0.0387,10.29676 -0.12744,20.59436 0.0838,30.88999 0.37613,23.84538 1.1609,47.68143 1.81424,71.52015 6.71521,0.30558 13.42674,0.74559 20.15149,0.75635 28.55684,0.35286 57.11615,0.44702 85.67468,0.5781 43.70922,0.14748 87.41858,0.2506 131.12786,0.37915 -0.0205,-20.54829 0.0466,-41.0968 -0.0456,-61.64492 -0.0876,-11.26498 -0.16147,-22.53415 -0.61428,-33.79114 -0.11281,-2.36848 -0.15152,-4.83871 -1.28533,-6.98918 -1.73392,-3.37671 -4.85711,-5.71677 -7.77304,-8.01839 -5.01822,-3.74199 -10.15301,-7.35128 -15.55561,-10.51937 -1.18541,-0.59984 -2.53947,-1.60826 -3.90556,-1.0082 -1.30347,0.81016 -1.88273,2.33679 -2.67822,3.58407 -4.15151,7.55126 -7.8471,15.34166 -11.57333,23.10823 -5.35852,11.2581 -10.46105,22.63494 -15.8058,33.85565 -3.26298,6.84532 -6.52586,13.75736 -10.04164,20.51583 -0.66275,1.24685 -1.29076,2.61193 -2.58087,3.33357 -2.39696,1.65413 -5.88122,0.84792 -7.59521,-1.41806 -0.92839,-1.20698 -1.49397,-2.77895 -1.35902,-4.30049 1.61926,-4.72751 3.66299,-9.29689 5.57166,-13.91205 5.79286,-13.68143 11.93122,-27.21333 17.951,-40.79416 3.87749,-8.87413 7.8002,-17.73817 11.16358,-26.82331 0.73486,-2.19069 1.66454,-4.376287 1.82571,-6.704291 0.0144,-1.581138 -1.39609,-2.598573 -2.42362,-3.592952 -3.28854,-2.892397 -7.18302,-4.952528 -10.83062,-7.33916 -0.42789,-0.01363 -0.58095,0.980448 -0.89946,1.367907 -0.0705,0.13643 -0.14107,0.272859 -0.21161,0.409289 z" />
      <path
         id="path3487"
         style="fill:#000000;fill-opacity:1;stroke-width:6.09579"
         d="m 170.51758,234.1543 c -8.63738,0.0709 -17.39068,0.0124 -25.95313,0.29687 -3.36316,0.14298 -6.64469,0.23932 -9.96575,0.58944 -2.75716,0.34164 -5.82456,1.24699 -7.32136,3.79337 -1.06519,1.74262 -1.19386,3.88413 -0.77788,5.84314 1.18648,11.13669 2.73267,22.1877 4.27623,33.29469 0.69006,4.50835 1.30781,9.04315 2.2039,13.50956 1.04307,1.90853 3.37951,2.79924 5.47002,2.44637 31.70495,0.003 63.4099,0.007 95.11484,0.01 4.12249,-16.98275 8.47026,-33.91595 12.22826,-50.98596 0.25547,-1.42389 0.60087,-3.04384 -0.30806,-4.31777 -0.91837,-1.74176 -2.59603,-3.17138 -4.6134,-3.33824 -3.49348,-0.63143 -7.06362,-0.43401 -10.59351,-0.64393 -19.91347,-0.5956 -39.84031,-0.47536 -59.76016,-0.4973 z" />
      <path
         id="path3785"
         style="fill:#000000;fill-opacity:1;stroke-width:6.09579"
         d="m 344.14258,235.76367 c -0.39176,4.49592 -0.68657,8.96437 -1.15621,13.4099 -0.65755,5.31241 -3.30688,10.59392 -7.9102,13.52565 -4.74728,2.91448 -10.73094,3.60152 -16.08162,2.1731 -4.82789,-1.3985 -8.86832,-5.13849 -10.68353,-9.82049 -1.40725,-3.4153 -1.64375,-7.157 -1.59633,-10.80908 -0.0664,-3.36282 -0.1322,-6.72564 -0.19907,-10.08845 -9.80771,0.10508 -19.62665,-0.25512 -29.42508,0.29786 -2.4454,0.17731 -4.97533,0.36345 -7.24288,1.36229 -2.41578,1.26483 -3.79934,4.17079 -3.23902,6.84316 0.49323,4.66057 1.6343,9.21877 2.5828,13.80004 2.77234,12.58854 5.9266,25.08874 8.86911,37.63805 24.50432,-0.27343 49.01096,-0.38365 73.51306,-0.8265 6.51087,-0.15943 13.04595,-0.24564 19.51173,-1.09366 2.81042,-0.36936 5.83486,-1.49678 7.29161,-4.09742 1.315,-2.32226 1.53141,-5.04527 2.08208,-7.60874 1.63846,-9.07817 2.71653,-18.24999 3.55912,-27.43297 0.48304,-5.977 0.45105,-11.97752 0.61271,-17.96805 -13.44392,-0.40141 -26.88795,-0.7993 -40.33203,-1.19531 -0.0521,0.63021 -0.10417,1.26041 -0.15625,1.89062 z" />
      <path
         id="path3448"
         style="fill:#ffd3c0;fill-opacity:1;stroke-width:6.09579"
         d="m 401.86292,238.14498 c -2.03811,0.13872 -4.32891,0.73772 -5.545,2.51567 -0.75809,1.80099 -0.90622,3.79137 -1.30683,5.69067 -2.93801,16.98764 -4.55722,34.0998 -7.78589,51.03007 -0.28951,1.59652 -0.68083,3.17636 -1.40873,4.63544 -0.076,0.80954 -0.91543,0.46537 -1.48209,0.5334 -25.86169,-0.0201 -51.72358,0.0488 -77.58511,-0.0552 -7.6589,-0.0524 -15.31864,-0.11351 -22.9747,-0.34117 -2.81611,-0.0992 -5.79676,-0.20815 -8.66749,-0.45982 -1.11898,-0.10956 -2.24686,-0.21018 -3.33757,-0.49511 -1.31573,-3.23752 -2.23168,-6.61973 -3.24889,-9.95888 -0.38386,-1.37041 -0.85113,-2.95879 -1.23367,-4.34742 -2.82373,-10.24989 -5.3171,-20.59198 -8.42025,-30.76308 -0.28971,-1.07903 -0.8488,-2.30437 -2.06249,-2.53162 -1.22654,-0.29582 -2.35907,0.65867 -2.86399,1.72451 -1.47005,3.03464 -2.24304,6.34496 -3.17377,9.571 -1.39349,5.12873 -2.5865,10.31436 -3.94061,15.40294 -2.42866,8.99839 -5.06453,17.95403 -8.30087,26.6985 -1.93578,4.96882 -4.17541,9.85261 -5.45915,15.04654 -0.28635,1.14613 -0.36833,2.69674 0.79052,3.38567 1.31872,0.72268 2.90093,0.68715 4.35822,0.90468 9.39481,0.8727 18.83852,0.90644 28.26114,1.25894 0.21801,0.39971 0.0324,1.19078 0.0941,1.74218 0,3.55515 0,7.1103 0,10.66545 -13.189,-0.0261 -26.3787,0.0626 -39.5672,-0.0713 -2.42593,-0.048 -4.75274,-0.082 -7.20042,-0.26262 -1.50083,-0.16284 -3.1108,-0.15832 -4.46563,-0.8965 -0.84342,-0.98444 -1.29415,-2.28826 -1.54821,-3.55106 -0.41681,-3.01368 0.74162,-5.94337 1.69445,-8.74402 2.33229,-6.20754 5.1051,-12.23693 7.66733,-18.35072 0.57125,-1.33613 1.14392,-2.67167 1.71614,-4.00738 -32.18704,-0.27031 -64.37409,-0.53913 -96.56115,-0.80774 -1.10372,-1.65421 -2.56439,-3.13656 -3.09536,-5.1055 -1.49063,-4.68129 -2.19003,-9.56672 -2.98071,-14.40289 -1.6158,-10.66419 -2.84611,-21.35219 -4.25684,-32.04963 -0.37487,-2.75161 -0.66612,-5.52885 -1.093,-8.26452 -0.70938,-1.40804 -1.41874,-2.81609 -2.12812,-4.22413 -0.54896,1.5421 -1.18325,3.06816 -1.67886,4.62029 -0.27369,16.77101 -0.55037,33.54198 -0.82479,50.31299 8.30391,20.76086 16.61142,41.52029 24.91761,62.28023 -0.94938,14.93756 -2.01815,29.86848 -2.8512,44.81276 -0.20969,4.98549 -0.57197,9.98922 -0.19015,14.97446 0.15923,1.77321 0.58863,3.72376 2.11095,4.83797 14.64674,13.39578 29.3767,26.7007 44.07804,40.03731 5.9018,5.34825 11.80484,10.69516 17.70588,16.04427 41.46645,-0.0177 82.9329,-0.0389 124.39935,-0.0585 21.10907,-19.39119 42.21901,-38.78143 63.32888,-58.17176 -0.0171,-6.74668 0.0608,-13.49683 -0.28807,-20.23724 -0.57805,-13.84152 -1.70767,-27.64999 -2.68159,-41.46738 7.87739,-19.72156 15.75696,-39.44224 23.63276,-59.16443 0.25404,-15.04958 0.59081,-30.098 0.771,-45.14868 -0.0207,-3.60662 0.12534,-7.24018 -0.38611,-10.82069 -0.21384,-1.62173 -1.07016,-3.41637 -2.80175,-3.81407 -0.69335,-0.18424 -1.41877,-0.16362 -2.13008,-0.15287 z M 244.06337,363.63585 c 2.04172,0.15605 3.46142,1.83821 4.88655,3.12147 2.46455,2.44842 4.91499,4.91105 7.37321,7.36583 2.51285,-2.75108 4.8976,-5.62275 7.50527,-8.2849 1.14634,-1.15214 2.65085,-2.19785 4.36205,-1.95043 5.43107,0.77118 10.82563,1.79628 16.23387,2.7168 7.95212,1.42057 15.89511,2.89201 23.82447,4.43481 2.72165,0.53388 5.51026,1.0921 8.22824,1.67461 1.03738,0.22877 2.07553,0.45459 3.10326,0.72405 0.45914,2.3935 -0.0238,4.85564 -0.52255,7.20608 -0.36753,1.39342 -0.74768,2.83713 -1.59243,4.02667 -1.26621,0.0447 -2.50349,-0.0785 -3.6869,-0.17155 -11.7397,-1.12268 -23.33216,-3.35461 -34.96615,-5.22721 -2.25326,-0.37441 -4.50635,-0.74984 -6.75975,-1.12349 -3.23623,3.41993 -6.35502,6.95377 -9.6843,10.28392 -1.64636,1.51252 -3.37172,3.23792 -5.6496,3.67288 -2.17734,0.27232 -4.04538,-1.20842 -5.65915,-2.46775 -3.34487,-2.80729 -6.27886,-6.05946 -9.4056,-9.10002 -0.78354,-0.78376 -1.56708,-1.56752 -2.35063,-2.35128 -14.2183,2.44578 -28.46352,4.73601 -42.63592,7.43713 -0.80453,0.1431 -1.59554,0.35345 -2.39764,0.50431 -0.77466,-1.97264 -0.93064,-4.12645 -1.24117,-6.20863 -0.20763,-1.95353 -0.38313,-3.92661 -0.23234,-5.89036 3.09005,-1.28474 6.39479,-1.94438 9.63405,-2.74076 11.78313,-2.65724 23.59961,-4.75141 35.49884,-6.84903 2.03548,-0.30129 4.06398,-0.86193 6.13432,-0.80315 z m 12.04467,47.96754 c 6.26509,0.12708 12.53019,0.25415 18.79527,0.38122 0.23221,4.46582 0.46486,8.93163 0.69808,13.3974 -12.70438,-10e-6 -25.40878,0 -38.11316,0 0,-4.71869 0,-9.43737 0,-14.15607 6.2066,0.12582 12.41321,0.25164 18.61981,0.37745 z" />
      <path
         style="fill:#000000;stroke-width:0.480172"
         d="m 160.48888,463.37016 c -32.24564,-29.69666 -40.71055,-37.77905 -41.40248,-39.53151 -0.48821,-1.23653 0.0434,-13.06416 1.91694,-42.65419 l 1.39325,-22.00366 -11.9403,-29.98807 -11.940296,-29.98808 V 269.4998 239.79495 l -2.675892,-0.8492 C 90.321448,237.19437 90.464703,238.44163 86.09507,154.10052 82.889413,92.226069 82.604432,85.696813 82.796778,78.532529 82.959875,72.45759 82.987133,72.323525 84.268086,71.296264 86.067553,69.853173 102.95614,59.464646 138.28939,38.066609 L 168.25242,19.92082 h 89.75616 89.75617 l 19.06176,12.112108 c 37.90632,24.086191 55.9626,35.871946 60.57642,39.539644 l 1.79458,1.426578 -0.002,7.306877 c -0.002,7.85576 -0.39874,16.602021 -3.3361,73.553593 -3.36831,65.30753 -4.30431,92.82101 -4.31064,126.71187 l -0.003,18.54909 -11.99971,30.03745 -11.99971,30.03746 0.75565,11.39684 c 2.02288,30.50951 2.65382,41.77525 2.65733,47.44673 l 0.004,6.17864 -2.7517,2.91875 c -3.55328,3.76901 -20.62361,19.67505 -48.14463,44.86091 l -21.94387,20.08182 -68.26387,-0.0308 -68.26388,-0.0308 z m 162.64069,11.24396 c 7.97805,-6.64718 51.3441,-46.5211 57.3419,-52.72436 2.42043,-2.50334 4.30124,-4.88603 4.50637,-5.70887 0.36252,-1.45417 0.15641,-5.5485 -2.00007,-39.73235 l -1.26135,-19.99446 11.95554,-29.87123 11.95554,-29.87125 0.35377,-28.54631 0.35376,-28.5463 h -4.08761 c -2.97756,0 -4.28066,0.19435 -4.79849,0.71568 -1.08302,1.09034 -1.58229,4.09105 -4.41018,26.50569 -3.16111,25.05572 -4.37139,32.82604 -5.38317,34.56095 -0.42247,0.72442 -1.53132,1.70006 -2.4641,2.16807 -1.59118,0.79834 -5.05235,0.85093 -56.01197,0.85093 -44.08043,0 -54.65626,-0.12123 -56.12164,-0.64329 -1.29455,-0.46119 -2.06741,-1.15984 -2.73041,-2.46823 -1.34773,-2.65963 -3.73352,-11.13466 -8.34689,-29.65048 -2.2448,-9.00956 -4.43813,-17.57345 -4.87409,-19.03088 l -0.79263,-2.64987 -0.68438,1.92718 c -2.01659,5.67853 -9.08971,33.18484 -9.97325,38.78443 -0.5345,3.38751 -2.78643,9.39966 -8.17356,21.82152 -2.73419,6.30462 -4.97125,11.64741 -4.97125,11.87286 0,0.9599 2.53252,1.1487 18.30472,1.36468 l 16.62979,0.22773 v 7.65081 7.65079 h -25.55835 -25.55834 l -2.16257,-2.42158 c -1.18941,-1.33187 -2.29886,-3.04627 -2.46543,-3.80978 -0.35722,-1.63744 1.52251,-6.81191 7.35956,-20.25931 3.8144,-8.7876 3.85132,-8.91084 2.79573,-9.33434 -0.58834,-0.23605 -21.95863,-0.53816 -47.48954,-0.67135 l -46.41985,-0.24218 -1.74207,-1.3829 c -3.16256,-2.51053 -3.28473,-3.12589 -7.77641,-39.16862 -1.74716,-14.01981 -3.14833,-23.64082 -3.4581,-23.74478 -0.91384,-0.30667 -1.13388,5.60946 -1.13739,30.58036 l -0.003,24.21808 12.27877,30.87808 12.27878,30.87809 -1.77471,27.53154 c -0.97609,15.14235 -1.89746,28.8493 -2.0475,30.45988 l -0.27278,2.92833 15.73034,14.45949 c 17.22738,15.8356 44.97933,41.06102 47.48308,43.16024 l 1.58025,1.32494 h 60.793 60.79299 z m -86.78973,-55.76769 v -8.1905 h 19.86004 19.86003 v 8.1905 8.19051 H 256.19988 236.33984 Z M 253.32855,393.714 c -1.66161,-0.92294 -3.5704,-2.89388 -8.19824,-8.46512 -2.56845,-3.09203 -4.97187,-5.53283 -5.60586,-5.69303 -1.16015,-0.29315 -8.78193,0.97262 -32.32619,5.36847 -7.73691,1.44453 -14.12072,2.56751 -14.18625,2.49551 -0.46266,-0.50834 -2.41149,-14.25232 -2.10578,-14.85096 0.27481,-0.53815 3.44596,-1.32875 11.30284,-2.81795 26.66736,-5.05453 39.27823,-7.32308 40.87722,-7.35337 3.73093,-0.0706 6.03539,1.48664 9.81601,6.63341 1.43958,1.95977 2.80575,3.56323 3.03594,3.56323 0.23017,0 1.49568,-1.35505 2.81221,-3.01121 1.31654,-1.65617 3.28493,-3.87845 4.3742,-4.93839 1.92054,-1.86884 2.07218,-1.92423 5.00891,-1.82945 3.53537,0.1141 12.69814,1.60131 32.33266,5.24796 18.0719,3.35643 21.05675,4.02271 21.05489,4.6999 -0.002,0.843 -1.38504,8.92585 -1.9698,11.51469 l -0.51692,2.28853 h -2.52053 c -1.3863,0 -7.34077,-0.86861 -13.23217,-1.93025 -17.60553,-3.17253 -29.8096,-5.29667 -30.43171,-5.29667 -0.93227,0 -3.84422,2.79634 -6.22688,5.97962 -2.89516,3.868 -6.28331,7.42115 -7.88704,8.27112 -1.52947,0.81061 -4.0666,0.86877 -5.40751,0.12396 z M 229.64173,287.55312 c 0.429,-1.13599 11.96222,-47.09429 11.96222,-47.66781 0,-0.14648 -24.89182,-0.26632 -55.31517,-0.26632 h -55.31517 l 0.29075,1.80673 c 0.40771,2.53342 6.01459,45.73826 6.01459,46.34649 0,0.49471 7.15346,0.58723 67.60775,0.87437 l 24.29851,0.11542 z m 119.26113,0.80297 c 21.11381,-0.27027 24.84364,-0.42292 25.39816,-1.03948 0.72478,-0.80588 6.41869,-46.55754 5.86374,-47.11625 -0.42071,-0.42356 -30.88897,-0.43861 -31.90702,-0.0157 -0.71339,0.2963 -0.71984,0.59144 -0.0735,3.37256 2.50659,10.78657 -5.63574,23.71894 -17.05768,27.09252 -3.5711,1.05475 -9.7237,0.99647 -13.0975,-0.12409 -11.17549,-3.71177 -17.70746,-13.99685 -16.79937,-26.4518 l 0.33092,-4.53865 -15.11967,0.16237 c -9.22034,0.099 -15.3052,0.35035 -15.59515,0.64416 -0.38275,0.38786 6.29611,28.69493 10.99817,46.61359 l 0.47411,1.80673 20.91832,-0.0445 c 11.50509,-0.0246 32.05503,-0.18711 45.66652,-0.36136 z m -18.96569,-33.81591 c 3.82651,-3.54981 4.06775,-10.51582 0.46304,-13.37048 -2.64591,-2.09537 -9.51844,-1.79024 -11.64132,0.51687 -2.25925,2.45531 -2.52826,9.06841 -0.47574,11.69543 1.5302,1.95849 3.52214,2.65078 7.16425,2.4899 2.62871,-0.11611 3.43825,-0.35624 4.48977,-1.33172 z M 122.47784,169.75882 c 0.15805,-31.05603 0.4609,-54.25203 0.71784,-54.98098 0.24444,-0.69353 1.0905,-1.80534 1.88012,-2.47072 2.65021,-2.23319 20.8711,-14.064483 44.50562,-28.898647 l 23.4492,-14.717841 66.00264,0.256734 66.00264,0.256734 14.87315,10.116354 c 26.74738,18.192911 40.40482,27.672076 45.79386,31.783956 l 3.16453,2.41456 0.35241,54.73905 c 0.19381,30.10649 0.38489,54.76399 0.42463,54.79446 0.0397,0.0304 3.76439,0.17554 8.27701,0.32239 l 8.20477,0.26698 0.28202,-2.49045 c 0.86597,-7.64708 6.14131,-109.55551 6.79967,-131.355442 L 413.49214,80.38599 378.63379,58.223457 343.77544,36.060924 329.41879,35.759186 c -7.89615,-0.165954 -46.19361,-0.32856 -85.10546,-0.361345 l -70.74881,-0.05961 -26.87642,16.229118 c -30.61677,18.487703 -46.67255,28.36501 -47.647332,29.312002 -0.71733,0.696885 -0.457408,9.980584 1.159742,41.422749 0.87057,16.92642 4.39511,86.46674 4.8172,95.04479 l 0.31464,6.39464 8.43606,-0.13132 8.43606,-0.13134 z m 251.15662,7.10646 c -0.0278,-25.76996 -0.1894,-48.78262 -0.35893,-51.13925 l -0.30823,-4.28476 -10.28893,-7.19501 c -10.5738,-7.3942 -16.61881,-11.26716 -16.99497,-10.88844 -0.63006,0.63432 -11.46134,23.66933 -20.34827,43.27488 -11.40506,25.16082 -17.93989,39.18875 -19.05152,40.89681 -1.62093,2.49059 -7.08087,3.30112 -10.03257,1.48933 -1.73683,-1.06609 -3.41436,-4.21166 -3.4312,-6.43394 -0.006,-0.76277 0.83023,-3.36446 1.8578,-5.78153 2.66499,-6.26867 20.66174,-46.32888 29.24602,-65.10075 3.99884,-8.74457 7.37698,-16.367027 7.50697,-16.938791 0.18654,-0.820516 -0.33753,-1.493047 -2.48697,-3.191493 -2.51135,-1.984408 -8.52027,-5.683744 -10.35305,-6.373752 -0.97219,-0.36601 -1.71324,0.977633 -15.01613,27.226736 -9.88412,19.50319 -13.03734,25.40078 -14.48017,27.08278 -1.09162,1.27256 -3.75478,1.96252 -6.1685,1.59811 -2.55895,-0.38634 -5.68545,-2.95248 -6.14094,-5.0403 -0.54602,-2.50284 2.13206,-8.92262 12.50969,-29.98786 5.61799,-11.403786 10.21454,-20.819853 10.21454,-20.924585 0,-0.104737 -23.09626,-0.189504 -51.32502,-0.188376 l -51.32502,0.0019 -29.31149,18.426581 -29.3115,18.42657 v 50.62855 c -1e-5,27.84583 0.14355,50.77322 0.31903,50.94987 0.17547,0.17666 53.15152,0.32119 117.72454,0.32119 h 117.40548 z"
         id="path978" />
      <path
         id="path9191"
         style="fill:#ff0000;fill-opacity:1;stroke-width:6.09579"
         d="m 324.54042,232.77206 c -4.87999,0.13199 -9.91435,2.59765 -12.26391,7.01109 -3.166,5.68259 -2.80529,13.34833 1.46265,18.38006 3.45429,3.98514 9.33883,5.29757 14.30863,3.81929 5.4465,-1.47792 10.01143,-6.07219 11.1051,-11.65738 1.36801,-5.94668 -1.47318,-12.66424 -6.86947,-15.60355 -2.33737,-1.34266 -5.04929,-2.02083 -7.743,-1.94951 z" />
    </g>
  </g>
</svg>
