<?xml version="1.0" encoding="UTF-8" standalone="no"?>
<svg
   viewBox="0 0 512 512"
   height="512"
   width="512"
   id="svg885"
   version="1.1"
   sodipodi:docname="urlcrazy.svg"
   inkscape:version="1.1.2 (0a00cf5339, 2022-02-04)"
   xmlns:inkscape="http://www.inkscape.org/namespaces/inkscape"
   xmlns:sodipodi="http://sodipodi.sourceforge.net/DTD/sodipodi-0.dtd"
   xmlns="http://www.w3.org/2000/svg"
   xmlns:svg="http://www.w3.org/2000/svg"
   xmlns:rdf="http://www.w3.org/1999/02/22-rdf-syntax-ns#"
   xmlns:cc="http://creativecommons.org/ns#"
   xmlns:dc="http://purl.org/dc/elements/1.1/">
  <sodipodi:namedview
     id="namedview10614"
     pagecolor="#505050"
     bordercolor="#eeeeee"
     borderopacity="1"
     inkscape:pageshadow="0"
     inkscape:pageopacity="0"
     inkscape:pagecheckerboard="0"
     showgrid="false"
     inkscape:zoom="0.921875"
     inkscape:cx="246.23729"
     inkscape:cy="256.54237"
     inkscape:window-width="1366"
     inkscape:window-height="695"
     inkscape:window-x="0"
     inkscape:window-y="24"
     inkscape:window-maximized="1"
     inkscape:current-layer="svg885" />
  <metadata
     id="metadata891">
    <rdf:RDF>
      <cc:Work
         rdf:about="">
        <dc:format>image/svg+xml</dc:format>
        <dc:type
           rdf:resource="http://purl.org/dc/dcmitype/StillImage" />
      </cc:Work>
    </rdf:RDF>
  </metadata>
  <defs
     id="defs889" />
  <path
     id="path897"
     d="m 355.40466,491.01909 c -1.0579,-0.67043 -5.44871,-9.58402 -14.6481,-29.73649 -7.22552,-15.82849 -13.34925,-29.0445 -13.60828,-29.36892 -0.25902,-0.32441 -5.49316,5.66698 -11.63139,13.3142 -12.06411,15.02992 -12.81119,15.60031 -15.95834,12.18427 -1.46786,-1.59327 -1.8079,-3.32226 -4.62243,-23.5038 -1.67092,-11.9812 -5.79537,-41.56159 -9.16544,-65.73419 -3.37008,-24.17261 -6.65922,-47.73373 -7.3092,-52.35806 -4.25146,-30.2474 -4.98342,-36.29684 -4.61449,-38.13787 0.25729,-1.28391 1.16393,-2.4861 2.45761,-3.25877 1.80901,-1.08046 2.25733,-1.09474 3.81485,-0.12158 0.97071,0.6065 18.92153,20.37579 39.89072,43.93175 20.9692,23.55596 44.99144,50.54341 53.38278,59.97212 13.99024,15.71976 15.27217,17.36863 15.44009,19.85937 0.35555,5.27357 -0.53701,5.82655 -15.36468,9.51886 -7.30909,1.82006 -13.53768,3.41514 -13.84134,3.5446 -0.30364,0.12948 1.54761,3.67499 4.11395,7.87892 22.31834,36.5599 25.21408,41.6345 25.21408,44.18585 0,1.67398 -0.47358,3.09814 -1.37311,4.12929 -2.14424,2.45791 -29.10966,24.68177 -29.93244,24.66914 -0.40374,-0.006 -1.41392,-0.44211 -2.24484,-0.96869 z M 25.666737,345.93796 c -5.07851,-1.49774 -9.41088,-5.75336 -11.9198,-11.70863 l -1.63908,-3.89056 V 183.20117 36.063589 l 1.37688,-3.227243 c 2.15945,-5.061526 4.82265,-8.379399 8.5819,-10.691531 l 3.46736,-2.132601 H 255.91428 486.29453 l 3.46737,2.132601 c 7.96594,4.899467 11.83254,15.559469 9.41759,25.963832 -1.41568,6.099178 -4.25353,10.386195 -8.84662,13.364165 l -3.83984,2.489591 H 266.84597 47.198897 V 183.20117 302.43996 h 99.780593 c 62.1729,0 99.7806,0.27197 99.7806,0.7216 0,0.39688 1.23386,9.59775 2.74193,20.4464 1.50807,10.84863 2.74389,20.49868 2.74625,21.44458 l 0.004,1.71978 -112.13874,-0.0768 c -63.201683,-0.0433 -113.145913,-0.3739 -114.446923,-0.75761 z m 344.430753,-21.11874 -19.55755,-21.99708 67.8773,-0.20879 67.87729,-0.20878 3.93975,2.50184 c 13.35497,8.48071 12.67348,31.85615 -1.16248,39.87427 -2.73937,1.5875 -3.43668,1.61238 -51.09702,1.82255 l -48.31975,0.21308 z m 43.3751,-64.65893 -1.32693,-1.76905 V 186.1213 c 0,-71.95616 0.005,-72.27866 1.26485,-74.28388 1.69882,-2.70494 4.90165,-2.76799 7.00165,-0.13781 l 1.49796,1.87613 v 72.16285 c 0,71.84782 -0.005,72.17163 -1.26485,74.17679 -1.68949,2.69008 -5.24748,2.81157 -7.17268,0.24491 z m -309.67283,-35.7023 c -3.70479,-1.17013 -8.051923,-4.26772 -10.110633,-7.20442 -5.0279,-7.17218 -5.58145,-11.26348 -5.59253,-41.33474 -0.01,-27.38542 -0.05,-27.11404 4.22614,-28.71867 3.31922,-1.24552 6.36216,-0.33909 8.238773,2.45421 l 1.56248,2.32569 0.004,22.68082 c 0.002,13.24287 0.26568,23.86364 0.63372,25.52337 0.98971,4.4632 3.22991,7.24213 6.54794,8.12258 6.15442,1.6331 10.99018,-1.49119 12.28627,-7.93795 0.40816,-2.03143 0.66762,-12.05868 0.66762,-25.81096 0,-21.52744 0.0536,-22.5743 1.25329,-24.48454 2.6254,-4.18029 9.04168,-4.41254 11.92091,-0.43152 1.08526,1.50055 1.18881,3.36886 1.4725,26.56781 0.26844,21.95322 0.43479,25.25091 1.38345,27.42496 1.46416,3.35546 4.28335,5.03617 8.4556,5.04097 4.2942,0.004 6.97963,-1.83881 8.71492,-5.98346 1.20098,-2.86845 1.29894,-4.56906 1.58523,-27.51665 0.16782,-13.45258 0.52851,-24.89163 0.80154,-25.42011 1.95155,-3.77754 8.51854,-4.14608 11.3233,-0.63548 l 1.60642,2.01072 0.19202,20.4303 c 0.29293,31.16544 -1.00032,39.90187 -6.91794,46.73364 -3.354,3.87212 -5.25231,5.0587 -9.9414,6.21413 -8.95081,2.20555 -17.71738,-0.53387 -22.37596,-6.99218 l -2.2306,-3.09234 -3.03137,3.55135 c -4.41555,5.17296 -7.6086,6.70013 -14.58666,6.97647 -3.18869,0.12629 -6.82861,-0.096 -8.0887,-0.494 z m 98.00948,0.0341 c -8.24167,-2.19681 -13.74612,-9.69306 -15.4091,-20.98489 -0.39255,-2.66558 -0.66794,-14.41893 -0.66794,-28.50859 v -23.97316 l 1.60001,-1.85722 c 3.11854,-3.61981 8.27975,-3.3752 10.89421,0.51634 l 1.54219,2.2955 0.004,22.68082 c 0.002,13.24287 0.26569,23.86364 0.63374,25.52337 0.98969,4.4632 3.22989,7.24213 6.54791,8.12257 6.15443,1.63311 10.99019,-1.49118 12.28629,-7.93794 0.40815,-2.03143 0.6676,-12.05868 0.6676,-25.81096 0,-21.38976 0.0601,-22.58471 1.23011,-24.4476 2.43981,-3.88481 7.88919,-4.50958 11.16702,-1.28031 l 1.53592,1.51317 0.2085,24.2636 c 0.19705,22.93006 0.2808,24.46015 1.5239,27.84 1.64145,4.46289 4.11695,6.22488 8.74571,6.22488 4.36247,0 6.95226,-1.72968 8.69048,-5.80419 1.32818,-3.11333 1.39039,-4.13624 1.68426,-27.69198 0.16783,-13.45258 0.52853,-24.89164 0.80155,-25.42011 1.06301,-2.05761 4.24423,-3.41879 7.06084,-3.02116 2.11137,0.29806 3.18531,0.96326 4.47597,2.77241 l 1.69806,2.38026 v 22.19881 c 0,12.35806 -0.29857,24.63556 -0.67349,27.69567 -1.92078,15.67684 -9.47595,23.48175 -22.69971,23.45004 -7.109,-0.0171 -12.75005,-2.87198 -16.2837,-8.24122 l -1.83351,-2.78591 -2.90309,3.57161 c -4.14173,5.09544 -7.7533,6.88051 -14.49066,7.16224 -3.02514,0.12651 -6.64168,-0.0742 -8.03674,-0.44608 z m 97.12969,-0.32606 c -4.02055,-1.24444 -6.53197,-2.9536 -9.14038,-6.22054 -5.49194,-6.87843 -6.42174,-13.13437 -6.42174,-43.20734 V 151.8869 l 1.67828,-2.3523 c 2.91578,-4.08685 9.14272,-3.87188 11.37371,0.39266 0.74216,1.41864 0.94058,6.13682 1.09775,26.10173 0.18021,22.8946 0.26703,24.53043 1.43397,27.01828 1.7159,3.65818 4.58341,5.57838 8.4345,5.64811 4.20431,0.0761 6.79727,-1.37908 8.47375,-4.75556 1.33983,-2.69843 1.38709,-3.48129 1.68367,-27.88263 l 0.30512,-25.10627 1.83084,-1.83398 c 3.35883,-3.36461 7.36799,-3.36136 10.49836,0.008 l 1.70722,1.83785 0.30515,25.10008 c 0.27764,22.8385 0.40881,25.31456 1.45584,27.4806 1.71234,3.54242 4.30095,5.13558 8.34442,5.13558 4.17209,0 6.99936,-1.81126 8.79165,-5.63228 1.16081,-2.47478 1.26213,-4.26654 1.54728,-27.36267 l 0.30514,-24.71449 2.07056,-2.31566 c 1.86553,-2.08633 2.37563,-2.27893 5.15113,-1.94491 2.50325,0.30126 3.41104,0.83397 4.84398,2.8426 l 1.76341,2.47186 -0.24504,25.71625 c -0.26874,28.20089 -0.47348,30.03772 -4.11593,36.92511 -3.49005,6.59926 -8.67158,9.73781 -17.13026,10.37618 -8.15201,0.6152 -13.60435,-1.82358 -18.13629,-8.11225 l -1.99756,-2.77189 -1.26563,2.11628 c -1.85189,3.09662 -5.90309,6.34057 -9.6664,7.74031 -3.84472,1.43 -10.62521,1.49884 -14.9765,0.15203 z m 83.16584,-0.117 c -2.2525,-1.531 -2.91417,-3.34304 -2.91417,-7.98076 0,-4.7099 0.67293,-6.48521 3.03917,-8.01777 4.57939,-2.96594 10.78592,-0.2584 11.86772,5.17718 1.34997,6.78308 -1.95162,12.0429 -7.52122,11.98221 -1.54473,-0.0168 -3.5569,-0.53921 -4.4715,-1.16086 z"
     style="fill:#ffffff;stroke-width:0.682984" />
</svg>
