<?xml version="1.0" encoding="UTF-8" standalone="no"?>
<!-- Created with Inkscape (http://www.inkscape.org/) -->

<svg
   version="1.1"
   id="svg870"
   width="512"
   height="512"
   viewBox="0 0 512 512"
   sodipodi:docname="wacker.svg"
   inkscape:version="1.2.2 (b0a8486541, 2022-12-01)"
   inkscape:export-filename="../GIT Icons/wacker.png"
   inkscape:export-xdpi="96"
   inkscape:export-ydpi="96"
   xmlns:inkscape="http://www.inkscape.org/namespaces/inkscape"
   xmlns:sodipodi="http://sodipodi.sourceforge.net/DTD/sodipodi-0.dtd"
   xmlns="http://www.w3.org/2000/svg"
   xmlns:svg="http://www.w3.org/2000/svg">
  <defs
     id="defs874">
    <rect
       x="-264.75141"
       y="84.765188"
       width="361.08508"
       height="165.36354"
       id="rect6661" />
    <rect
       x="-264.7514"
       y="84.76519"
       width="361.08508"
       height="165.36354"
       id="rect6661-6" />
    <rect
       x="-264.7514"
       y="84.76519"
       width="361.08508"
       height="165.36354"
       id="rect6661-5" />
  </defs>
  <sodipodi:namedview
     id="namedview872"
     pagecolor="#505050"
     bordercolor="#eeeeee"
     borderopacity="1"
     inkscape:pageshadow="0"
     inkscape:pageopacity="0"
     inkscape:pagecheckerboard="0"
     showgrid="false"
     inkscape:zoom="0.61911357"
     inkscape:cx="217.24609"
     inkscape:cy="278.62416"
     inkscape:window-width="1366"
     inkscape:window-height="695"
     inkscape:window-x="0"
     inkscape:window-y="24"
     inkscape:window-maximized="1"
     inkscape:current-layer="g876"
     inkscape:showpageshadow="0"
     inkscape:deskcolor="#505050" />
  <g
     inkscape:groupmode="layer"
     inkscape:label="Image"
     id="g876">
    <path
       style="fill:#ffffff;fill-opacity:0.983446;stroke-width:10.582"
       id="path477"
       sodipodi:type="arc"
       sodipodi:cx="256"
       sodipodi:cy="256"
       sodipodi:rx="250"
       sodipodi:ry="250"
       sodipodi:start="4.7101026"
       sodipodi:end="4.7087761"
       sodipodi:open="true"
       sodipodi:arc-type="arc"
       d="M 255.42841,6.0006534 A 250,250 0 0 1 505.99914,255.3455 250,250 0 0 1 256.73741,505.99891 250,250 0 0 1 6.0013458,256.82031 250,250 0 0 1 255.09678,6.0016316" />
    <g
       id="g423"
       transform="matrix(0.92360132,0,0,0.86055517,19.552791,35.700946)">
      <path
         style="fill:#000000;stroke-width:2.42458"
         d="m 73.638902,408.97383 c -2.288947,-1.91845 -4.161705,-4.91507 -4.161705,-6.65915 0,-2.59686 6.698088,-3.17101 36.993863,-3.17101 34.09607,0 36.86442,0.30428 35.34167,3.8845 -3.72876,8.7668 -6.23111,9.43379 -35.39368,9.43379 -22.485621,0 -29.510277,-0.74749 -32.780148,-3.48813 z m 299.225118,-1.44521 c -2.26747,-2.71331 -4.12269,-5.70993 -4.12269,-6.65915 0,-0.9492 16.68464,-1.7258 37.07697,-1.7258 30.36782,0 37.07698,0.57379 37.07698,3.17101 0,8.0932 -7.51331,10.14728 -37.11596,10.14728 -26.75123,0 -29.08488,-0.34976 -32.9153,-4.93334 z M 56.235421,383.60565 44.317823,374.85927 H 256.18623 468.05465 l -11.9176,8.74638 -11.9176,8.74639 H 256.18623 68.153019 Z m -30.9705,-18.67539 c -7.372888,-5.31544 -7.430649,-5.56385 -7.430649,-31.95283 0,-23.03858 0.674774,-27.22065 5.04509,-31.26819 l 5.045064,-4.67247 H 256.18623 c 225.28948,0 228.32456,0.0581 233.08002,4.46236 4.0902,3.78811 4.8303,8.52867 4.89824,31.37406 0.0792,26.64236 0.008,26.96429 -7.20379,32.16295 l -7.28383,5.25123 H 256.18623 32.695596 Z M 101.25746,333.5924 c 0,-21.42187 -0.69149,-25.81879 -4.239806,-26.96004 -2.331903,-0.74999 -5.293055,0.0304 -6.580341,1.73445 -2.710751,3.58814 -3.289735,47.13477 -0.656051,49.34216 0.971046,0.8139 3.950445,1.47981 6.620888,1.47981 4.42747,0 4.85531,-2.25544 4.85531,-25.59638 z m 22.51101,-1.07061 c 0,-24.01649 -0.30741,-25.49631 -5.2967,-25.49631 -4.90966,0 -5.35225,1.69215 -6.05679,23.15695 -0.85044,25.91046 0.0307,29.66335 6.71088,28.58508 4.10323,-0.66232 4.64261,-3.71153 4.64261,-26.24572 z m 23.8352,0.0304 c 0,-24.04691 -0.30705,-25.52673 -5.29671,-25.52673 -4.95589,0 -5.34483,1.68874 -6.04453,26.24545 -0.74686,26.21127 -0.73995,26.24452 5.29672,25.52673 5.89367,-0.70079 6.04452,-1.35576 6.04452,-26.24545 z m 22.51102,1.24086 c 0,-25.68716 -1.87623,-30.80031 -9.38524,-25.57704 -2.87034,1.99663 -3.85653,7.95907 -3.85653,23.31657 0,23.56539 1.21713,27.65619 8.22841,27.65619 4.62678,0 5.01336,-1.95825 5.01336,-25.39572 z m 22.51102,-1.27127 c 0,-24.0165 -0.30742,-25.49632 -5.29671,-25.49632 -4.90965,0 -5.35224,1.69216 -6.05679,23.15696 -0.85044,25.91045 0.0307,29.66334 6.71088,28.58508 4.10322,-0.66232 4.64262,-3.71153 4.64262,-26.24572 z m 96.42388,13.04955 c 3.49173,-5.23817 3.42499,-6.45415 -0.6396,-11.65351 -8.52975,-10.91105 -26.26496,-6.32479 -26.26496,6.79202 0,12.22293 19.63274,15.77046 26.90456,4.86149 z m 43.06832,3.28469 c 6.02297,-4.56851 6.21026,-11.35857 0.46016,-16.68397 -8.76283,-8.11565 -24.74891,-2.85185 -24.74891,8.14914 0,10.80458 14.55407,15.91874 24.28875,8.53483 z m 45.02204,0 c 9.33874,-7.08355 2.79042,-20.74326 -9.9441,-20.74326 -12.68863,0 -18.6932,12.27092 -9.96165,20.35759 5.45071,5.04814 13.55197,5.20512 19.90575,0.38567 z m 45.70349,0.18557 c 8.72972,-7.31689 2.40608,-20.92883 -9.7228,-20.92883 -7.28065,0 -15.2474,6.17738 -15.2474,11.82276 0,10.52997 16.21582,16.44348 24.9702,9.10598 z M 58.207704,268.7365 c 3.389948,-101.59602 6.247073,-165.61088 7.46529,-167.26299 2.172233,-2.945858 13.329489,-2.415967 16.491308,0.78322 2.432593,2.46136 8.499736,123.69631 8.499736,169.84349 v 16.05768 l -16.552219,8.6e-4 -16.55222,8.6e-4 z m 363.500736,3.36372 c 0,-46.14718 6.06714,-167.38213 8.49972,-169.84349 3.13645,-3.173527 14.31225,-3.738355 16.45557,-0.83168 0.78799,1.06862 2.65571,35.77942 4.1505,77.13511 1.49478,41.35567 3.0148,82.93341 3.37784,92.39494 l 0.66007,17.2028 h -16.57187 -16.57183 z"
         id="path978" />
      <path
         id="path1343"
         style="fill:#0000ff;stroke-width:4.20325"
         d="m 412.58715,327.35983 c -5.97747,0.11506 -11.74375,3.32383 -14.58083,8.07887 -1.87597,3.14908 -1.67636,7.12748 0.31312,10.19278 2.00532,3.16029 5.35625,5.5517 9.08846,6.85905 5.44479,1.88427 11.98468,0.69672 16.20652,-2.93979 3.29094,-2.72281 4.99914,-6.94833 4.23918,-10.94376 -0.68939,-4.13633 -3.6309,-7.93445 -7.80888,-9.77301 -2.2977,-1.0464 -4.89028,-1.53499 -7.45757,-1.47414 z" />
      <path
         id="path1267"
         style="fill:#00ff00;stroke-width:4.20325"
         d="m 366.22702,327.33294 c -2.50228,-0.006 -5.16327,0.28761 -7.18805,1.74194 -1.96397,1.41415 -3.79142,3.03227 -5.21848,4.90847 -1.96915,2.63584 -1.90976,6.05581 -1.10124,9.03453 1.33,4.73429 5.51548,8.91056 10.88785,9.94777 7.26894,1.47204 15.43278,-2.26443 18.23017,-8.55268 1.26857,-2.58667 1.38818,-5.6568 0.0251,-8.23458 -1.42927,-2.76298 -3.8474,-4.99535 -6.39744,-6.93859 -1.865,-1.40463 -4.32646,-1.87238 -6.69854,-1.89203 -0.84621,-0.0225 -1.69285,-0.0219 -2.53933,-0.0148 z" />
      <path
         id="path1191"
         style="fill:#ffff00;stroke-width:4.20325"
         d="m 321.22956,327.30774 c -4.55866,0.17089 -9.26291,1.98562 -11.86894,5.49111 -3.89345,5.0257 -3.31376,12.55567 1.58208,16.87413 3.83196,3.3779 9.70372,4.37755 14.79703,3.19704 5.05855,-1.13135 9.7388,-4.40517 11.39805,-8.97852 1.53942,-4.17167 0.15479,-9.00937 -3.26369,-12.10186 -3.23786,-3.05398 -7.99758,-4.64571 -12.64453,-4.4819 z" />
      <path
         id="path1152"
         style="fill:#ff0000;stroke-width:4.20325"
         d="m 275.9035,326.6122 c -2.46597,0.15134 -4.87221,0.88014 -7.06186,1.89783 -3.53684,1.64203 -6.14569,4.73152 -7.06911,8.22052 -0.94411,3.49799 -0.97125,7.46514 1.20181,10.61021 2.18021,3.15608 6.1631,4.83876 10.05532,5.60788 4.68058,0.92215 9.77931,-0.31966 13.33183,-3.22254 2.57936,-2.12444 4.84495,-4.6612 6.18739,-7.59501 0.71408,-1.45749 0.57094,-3.14337 -0.19693,-4.55825 -1.59165,-3.02934 -4.20529,-5.54285 -7.10105,-7.5955 -2.06766,-1.40871 -4.4475,-2.43511 -6.91912,-3.11145 -0.79255,-0.18308 -1.60992,-0.27571 -2.42828,-0.25369 z" />
      <g
         aria-label="WPA-3"
         transform="matrix(1.5651813,0,0,2.7117715,511.21207,-137.76584)"
         id="text6659"
         style="font-size:64px;line-height:1.25;white-space:pre;shape-inside:url(#rect6661)">
        <path
           d="m -264.23995,103.06022 h 10.368 l 8.064,30.336 8.064,-30.336 h 9.28 l 8.704,30.336 7.424,-30.336 h 10.112 l -13.312,41.536 h -9.856 l -7.936,-30.144 -8.192,30.144 h -9.856 z"
           style="font-weight:bold;font-family:Play;-inkscape-font-specification:'Play Bold'"
           id="path992" />
        <path
           d="m -197.23191,103.06022 h 16.64 q 6.08,0 9.6,0.832 3.584,0.832 5.184,2.944 1.664,2.048 1.664,5.76 v 7.872 q 0,4.096 -1.792,6.4 -1.728,2.304 -5.568,3.264 -3.776,0.96 -10.24,0.96 h -5.504 v 13.504 h -9.984 z m 16.32,21.184 q 3.904,0 5.504,-0.896 1.6,-0.96 1.6,-3.2 v -6.656 q 0,-2.048 -1.536,-2.688 -1.472,-0.64 -5.696,-0.64 h -6.208 v 14.08 z"
           style="font-weight:bold;font-family:Play;-inkscape-font-specification:'Play Bold'"
           id="path994" />
        <path
           d="m -146.09586,103.06022 h 12.16 l 14.976,41.536 h -10.112 l -3.712,-10.944 h -15.168 l -3.648,10.944 h -9.856 z m 11.136,23.936 -5.248,-15.616 h -0.256 l -5.248,15.616 z"
           style="font-weight:bold;font-family:Play;-inkscape-font-specification:'Play Bold'"
           id="path996" />
        <path
           d="m -116.27191,122.70822 h 19.712001 v 7.168 h -19.712001 z"
           style="font-weight:bold;font-family:Play;-inkscape-font-specification:'Play Bold'"
           id="path998" />
        <path
           d="m -77.039878,145.23622 q -5.376,0 -13.952,-0.96 v -7.424 l 2.048,0.384 q 1.216,0.256 1.344,0.32 l 2.176,0.384 q 0.768,0.128 3.264,0.384 1.92,0.192 3.904,0.192 3.712,0 5.12,-0.896 1.472,-0.896 1.472,-3.392 v -4.8 q 0,-3.008 -6.464,-3.008 h -7.552 v -6.4 h 7.552 q 4.992,0 4.992,-3.648 v -4.032 q 0,-1.344 -0.512,-2.048 -0.512,-0.768 -1.856,-1.088 -1.28,-0.32 -3.84,-0.32 -3.648,0 -11.264,0.768 v -6.656 q 8.704,-0.576 12.288,-0.576 7.808,0 11.264,1.792 3.52,1.792 3.52,6.336 v 6.848 q 0,1.856 -1.152,3.2 -1.088,1.28 -2.816,1.728 5.632,1.984 5.632,6.208 v 6.784 q 0,5.312 -3.648,7.616 -3.648,2.304 -11.52,2.304 z"
           style="font-weight:bold;font-family:Play;-inkscape-font-specification:'Play Bold'"
           id="path1000" />
      </g>
    </g>
  </g>
</svg>
