<?xml version="1.0" encoding="UTF-8" standalone="no"?>
<!-- Created with Inkscape (http://www.inkscape.org/) -->

<svg
   version="1.1"
   id="svg870"
   width="512"
   height="512"
   viewBox="0 0 512 512"
   sodipodi:docname="waybackmachine.svg"
   inkscape:version="1.2.2 (b0a8486541, 2022-12-01)"
   xmlns:inkscape="http://www.inkscape.org/namespaces/inkscape"
   xmlns:sodipodi="http://sodipodi.sourceforge.net/DTD/sodipodi-0.dtd"
   xmlns="http://www.w3.org/2000/svg"
   xmlns:svg="http://www.w3.org/2000/svg">
  <defs
     id="defs874" />
  <sodipodi:namedview
     id="namedview872"
     pagecolor="#000000"
     bordercolor="#eeeeee"
     borderopacity="1"
     inkscape:pageshadow="0"
     inkscape:pageopacity="0"
     inkscape:pagecheckerboard="0"
     showgrid="false"
     inkscape:zoom="0.83812503"
     inkscape:cx="187.91946"
     inkscape:cy="267.26323"
     inkscape:window-width="1366"
     inkscape:window-height="705"
     inkscape:window-x="0"
     inkscape:window-y="26"
     inkscape:window-maximized="1"
     inkscape:current-layer="g876"
     inkscape:showpageshadow="0"
     inkscape:deskcolor="#505050" />
  <g
     inkscape:groupmode="layer"
     inkscape:label="Image"
     id="g876">
    <g
       id="g3903">
      <rect
         style="fill:#ffffff;stroke-width:39.6632;paint-order:stroke fill markers"
         id="rect3832"
         width="500"
         height="457.35327"
         x="6"
         y="27.323364"
         ry="24.84087" />
      <g
         id="g9221"
         transform="matrix(0.98524656,0,0,0.97402919,5.7289017,6.5692413)">
        <path
           id="path7717"
           style="fill:#ff0022;fill-opacity:1;stroke-width:4.85608"
           d="m 442.44531,38.777344 c 0,69.470706 0,138.941406 0,208.412106 8.88933,0 17.77865,0 26.66797,0 0.0303,-14.63192 -0.0751,-29.26467 0.0882,-43.89595 0.0317,-1.97407 0.079,-4.01013 0.15598,-5.85209 0.0491,-0.89571 0.0749,-1.6573 0.13997,-2.47968 0.13294,-1.44064 0.17253,-2.93027 0.67644,-4.29962 0.6795,-0.65762 1.64843,0.0134 2.24805,0.45312 1.21034,1.45215 1.36262,3.45249 1.65463,5.24974 0.26209,2.09082 0.37491,4.23557 0.44145,6.25392 0.31421,10.81038 -0.10311,21.62396 -0.27114,32.43345 -0.0795,4.04571 -0.16159,8.09136 -0.23901,12.13711 9.8724,0 19.74479,0 29.61719,0 -0.24787,-3.99899 -0.5645,-7.96535 -0.74658,-11.92311 -0.48422,-10.91635 -0.70726,-21.78165 -1.0581,-32.69854 -0.27682,-6.70924 -0.53002,-13.4309 -1.29986,-20.1048 -0.24516,-3.14219 -2.02411,-5.88372 -3.96632,-8.26165 -1.2312,-1.53012 -2.79965,-2.7246 -4.28852,-3.98651 2.81834,-2.45205 5.64033,-4.89988 8.45899,-7.35156 0.2573,-33.67707 0.50933,-67.354174 0.76562,-101.031249 -9.15364,0 -18.30729,0 -27.46093,0 0.1578,24.848075 0.40149,49.695699 0.49361,74.544129 -7.7e-4,7.23024 0.0279,14.52123 -0.28053,21.69188 -0.0557,1.3637 -0.17025,2.96321 -0.27363,4.17219 -0.25308,2.01757 -0.34064,4.15848 -1.32813,5.98047 -0.53331,0.72664 -1.59349,0.80456 -2.41992,0.77539 -0.69507,-1.00545 -0.38911,-2.31884 -0.53214,-3.46834 -0.30676,-10.38752 -0.36628,-20.9486 -0.44906,-31.40501 -0.18091,-28.50367 -0.0886,-57.008144 -0.1235,-85.512191 -8.3e-4,-3.944402 -0.003,-7.888803 -0.003,-11.833205 -8.88932,0 -17.77864,0 -26.66797,0 0,0.666666 0,1.333333 0,2 z" />
        <path
           id="path7039"
           style="fill:#ff0022;fill-opacity:1;stroke-width:4.85608"
           d="m 9.234375,48.033203 c 0.1879633,44.726385 0.3203389,89.453047 0.5561511,134.179207 0.111423,12.607 0.1042581,25.2195 0.5982379,37.81883 0.223699,3.50583 0.257415,7.09585 1.341667,10.46993 1.650579,4.43816 4.831392,8.39899 9.122952,10.5117 5.02203,2.51803 10.712255,3.15338 16.239406,3.59158 8.751034,0.52698 17.531348,0.68475 26.293674,0.35403 6.457999,-0.30262 12.972528,-0.74212 19.248014,-2.39329 3.663803,-0.97955 7.13098,-2.86547 9.799117,-5.57691 0.891352,-0.8637 1.374662,-2.00798 1.820312,-3.13867 0.504259,-1.07567 1.356075,-1.9053 2.216784,-2.6878 1.258561,-1.62266 1.307148,-3.79453 1.568372,-5.7497 0.647902,-7.92835 0.707685,-15.88926 0.904297,-23.83789 0.607706,-34.68105 0.977654,-69.36587 1.280851,-104.05077 0.13459,-17.066744 0.14978,-34.134102 0.21524,-51.201184 -9.289059,0 -18.578122,0 -27.867184,0 -0.05884,35.713252 -0.05472,71.426664 -0.166915,107.139794 -0.09761,20.13565 -0.173183,40.27302 -0.592285,60.40506 -0.111806,3.13504 -0.02828,6.35211 -1.020097,9.36726 -0.116847,0.48158 -0.924791,0.32684 -0.934015,-0.1804 -0.651479,-1.58478 -0.795305,-3.47319 -0.829657,-5.05789 -0.379619,-12.53186 -0.426946,-25.19352 -0.554257,-37.78075 -0.268573,-37.95891 -0.182014,-75.91906 -0.241596,-113.878599 -0.0056,-6.671492 -0.01049,-13.342984 -0.01665,-20.014475 -9.704427,0 -19.408854,0 -29.113281,0 0.539474,59.656924 1.083393,119.313814 1.626953,178.970704 -0.719974,0.0351 -1.469938,-0.071 -2.09375,-0.45117 -0.382448,-6.22684 -0.448071,-12.42485 -0.59576,-18.68047 -0.72769,-35.33482 -0.773337,-70.6785 -1.195225,-106.01728 -0.200707,-14.978841 -0.360742,-29.960644 -0.832195,-44.93351 -0.105905,-1.949064 -0.06238,-3.922433 -0.411977,-5.847259 -0.297794,-1.029496 -1.388356,-1.434537 -2.341658,-1.654956 -5.519691,-1.07127 -11.168282,-1.125129 -16.76564,-1.434398 -2.422562,-0.11552 -4.845084,-0.231858 -7.2677015,-0.346193 0.0026,0.701823 0.00521,1.403646 0.00781,2.105469 z" />
        <path
           id="path7522"
           style="fill:#ff0022;fill-opacity:1;stroke-width:4.85608"
           d="m 140.66992,48.773438 c -6.10195,0.199586 -12.31013,0.417084 -18.1875,2.230468 -3.96765,1.224631 -7.6472,3.617858 -9.97344,7.106643 -2.30423,3.423532 -3.76661,7.414144 -4.13675,11.529892 -0.66357,6.396354 -0.6597,12.837421 -0.81582,19.260285 -0.24133,15.377704 -0.42297,30.756314 -0.63649,46.134434 8.85352,0 17.70703,0 26.56055,0 0.32274,-14.92048 0.53558,-29.84361 0.95898,-44.761722 0.21393,-6.191058 0.39855,-12.489103 0.89324,-18.704925 0.10981,-0.668708 0.005,-1.443664 0.51887,-1.970857 0.68515,1.092813 0.46195,2.511786 0.61825,3.673021 0.6328,12.551326 0.90956,25.064332 1.21405,37.633313 0.27827,12.67647 0.55011,25.35308 0.82591,38.0296 -4.70387,-0.0331 -9.48498,-0.0474 -14.04883,1.25196 -4.83962,1.32928 -9.40614,4.0707 -12.44332,8.11572 -2.95732,4.09046 -3.75338,9.24133 -4.25106,14.14404 -0.65582,7.61121 -0.57808,15.26392 -0.45097,22.89557 0.19792,5.47813 0.3842,11.06003 2.05941,16.32514 1.14269,3.61236 3.4831,6.83477 6.65408,8.92743 2.72199,1.83401 5.74314,3.18887 8.8049,4.346 2.11994,0.79184 4.50331,0.75701 6.5921,-0.11867 2.641,-0.94601 4.96491,-2.66016 7.68981,-3.37635 1.09343,-0.31308 1.90073,0.72876 2.94235,0.84777 3.90572,0.91011 7.95017,1.00308 11.94449,1.03397 3.62019,0 7.24037,0 10.86055,0 0,-53.33854 0,-106.67708 0,-160.015623 -2.85636,-2.840639 -5.4811,-5.932356 -8.60624,-8.489174 -1.49642,-1.153047 -3.09103,-2.472618 -5.0568,-2.589536 -1.76408,-0.464038 -2.71325,-2.265674 -4.45405,-2.780217 -1.93435,-0.713202 -4.04378,-0.6758 -6.07627,-0.678182 z m -3.73633,122.244142 c 0.46897,0.0704 0.44918,0.79403 0.59949,1.14067 0.31736,1.98398 0.36116,4.10775 0.45402,6.00813 0.20396,5.98177 0.20804,12.22661 0.0111,18.20191 -0.10246,1.9945 -0.11941,4.19295 -0.49235,6.25671 -0.10163,0.78464 -0.82221,1.31123 -1.59803,1.18767 -0.76998,0.14493 -1.13295,-0.60677 -1.26689,-1.23121 -0.72209,-2.98407 -0.62602,-6.08974 -0.70739,-9.13925 -0.0264,-2.94142 0.006,-6.02456 0.0665,-8.87385 0.0532,-1.69235 0.10551,-3.19386 0.22225,-4.89536 0.23402,-2.61637 0.33712,-5.33516 1.39298,-7.77847 0.24635,-0.56229 0.65622,-0.97624 1.31836,-0.87695 z" />
        <path
           id="path7561"
           style="fill:#ff0022;fill-opacity:1;stroke-width:4.85608"
           d="m 172.47852,62.658203 c 0.29751,33.452702 0.5231,66.906117 0.88102,100.358237 0.22001,16.48326 0.37143,32.97125 1.01384,49.44425 0.17914,3.11103 0.20885,6.24925 0.73787,9.326 1.3878,5.31293 5.82573,9.51162 11.00888,11.12509 4.93287,1.62167 10.48621,1.00702 15.01832,-1.49604 0.80364,-0.39596 1.6242,-0.76325 2.47288,-1.05246 0.37923,4.72582 0.19595,9.48986 -0.29657,14.20063 -0.23381,1.56379 -0.32899,3.41767 -1.63117,4.50836 -0.82408,-0.27474 -1.19813,-1.26137 -1.53125,-2.00586 -1.04817,-2.79522 -0.58235,-5.82829 -0.6875,-8.7418 0.0655,-0.69887 0.0967,-1.36338 -0.8,-1.1 -8.6233,0 -17.24661,0 -25.86992,0 0.0662,3.25286 -0.16079,6.52003 0.17774,9.76172 0.74538,6.49926 4.40718,12.55473 9.756,16.30574 3.77895,2.71225 8.30047,4.3164 12.92759,4.71965 6.00675,0.5654 12.13036,0.20581 17.99219,-1.25195 3.12406,-0.75787 5.97489,-2.30175 8.72427,-3.92204 2.41218,-1.40697 4.26399,-3.71808 5.02518,-6.41311 1.22355,-4.13083 1.32549,-8.48208 1.58042,-12.75329 0.81527,-19.3528 0.9245,-38.72653 1.12537,-58.09348 0.3628,-40.64336 0.28859,-81.28877 0.38113,-121.93324 10e-4,-1.001329 0.004,-2.002657 0.005,-3.003985 -8.82942,0 -17.65885,0 -26.48828,0 -0.20038,31.945731 -0.32684,63.891985 -0.58458,95.837315 -0.172,17.07059 -0.34332,34.14305 -0.84901,51.20761 -0.0822,1.97625 -0.13122,4.09072 -0.32031,6.11328 -0.27757,0.41137 -0.33534,-0.87776 -0.46316,-1.17542 -0.83101,-4.7908 -0.92561,-9.671 -1.14846,-14.518 -0.49588,-14.65007 -0.59446,-29.42454 -0.74875,-44.13599 -0.26449,-31.10942 -0.48314,-62.219224 -0.72948,-93.328795 -8.89909,0 -17.79817,0 -26.69726,0 0.006,0.672526 0.0117,1.345052 0.0176,2.017578 z" />
        <path
           id="path7600"
           style="fill:#ff0022;fill-opacity:1;stroke-width:4.85608"
           d="m 242.61719,42.828125 c -1.3483,0.240715 -1.8112,1.768298 -1.94066,2.960793 -0.53739,4.574663 -0.52631,9.192781 -0.67247,13.791535 -0.37656,21.11314 -0.33527,42.230817 -0.38112,63.346497 -0.0238,39.83294 -0.006,79.66589 -0.0116,119.49883 8.12781,-0.0405 16.26793,0.0714 24.37608,-0.59771 6.48211,-0.52784 12.9914,-1.18122 19.31802,-2.74318 2.057,-0.48952 4.01338,-1.34951 5.72139,-2.60226 2.72509,-1.7718 4.84147,-4.45026 5.82735,-7.55731 1.48875,-4.58992 1.69428,-9.46218 1.96142,-14.24348 0.39133,-9.48475 0.52357,-18.98425 0.31385,-28.47546 -0.13431,-1.98435 0.0209,-4.03673 -0.56499,-5.95833 -1.11608,-2.797 -2.97138,-5.23487 -4.89376,-7.52528 -1.07579,-1.24082 -2.1856,-2.4551 -3.17264,-3.76965 3.00804,-2.255 6.02455,-4.4984 9.04101,-6.74218 -0.22371,-26.08795 -0.38863,-52.17649 -0.65843,-78.263997 -0.15588,-7.602463 -0.1433,-15.22802 -0.97021,-22.795483 -0.44965,-3.428749 -1.0002,-7.157553 -3.43386,-9.805757 -1.9295,-2.036558 -4.66786,-2.955283 -7.17773,-4.046875 -3.79748,-1.202563 -7.77825,-1.669659 -11.70795,-2.235784 -10.18733,-1.299103 -20.44346,-2.089759 -30.71197,-2.301325 -0.0872,0.02213 -0.17448,0.04427 -0.26172,0.06641 z m 26.98633,20.78125 c 0.41323,0.188585 0.41628,0.850329 0.58203,1.244141 0.33904,4.00579 0.27734,8.037245 0.33524,12.055444 0.096,20.423011 -0.1557,40.84646 -0.53575,61.26566 -0.16172,7.88069 -0.32974,15.75652 -0.674,23.59711 -0.11566,1.4658 -0.0747,2.97355 -0.37549,4.40796 -0.1991,0.51077 -0.90409,0.83107 -1.25586,0.27539 -0.38047,-3.53251 -0.43053,-7.08134 -0.55519,-10.5864 -0.50963,-17.96965 -0.61928,-35.94845 -0.63275,-53.92454 0.0149,-8.643929 0.044,-17.289048 0.26997,-25.930468 0.0964,-2.79021 0.14973,-5.744763 0.63672,-8.560547 0.25026,-1.22336 0.30126,-2.575602 0.99414,-3.644531 0.3726,-0.164261 0.80706,-0.196373 1.21094,-0.199219 z m -1.5879,125.605465 c 1.03863,0.93872 0.98488,2.49179 1.1964,3.77539 0.36126,4.02614 0.32045,7.96965 0.34764,12.02771 0.007,2.50998 -0.0254,5.16328 -0.0851,7.58167 -0.14271,3.0618 -0.14077,6.16967 -0.83768,9.16843 -0.1214,0.40384 -0.81527,1.30396 -0.91636,0.45763 -0.61074,-1.62447 -0.80804,-3.57291 -0.98034,-5.15536 -0.0982,-1.09446 -0.16554,-2.12156 -0.21875,-3.27148 -0.0572,-1.38066 -0.0975,-2.99201 -0.0949,-4.46524 -0.004,-4.22361 0.10802,-8.31119 0.36551,-12.54254 0.21651,-2.56788 0.30719,-5.19672 1.12196,-7.66214 l 0.0763,0.0646 z" />
        <path
           id="path7639"
           style="fill:#ff0022;fill-opacity:1;stroke-width:4.85608"
           d="m 337.42383,64.417969 c -7.2464,0.245862 -14.66218,2.100511 -20.55926,6.46591 -2.49722,1.811033 -4.50677,4.202145 -6.10813,6.824099 -0.82686,1.31458 -1.79787,2.585174 -2.53477,3.927173 -0.24996,24.958859 -0.50216,49.917699 -0.75097,74.876569 9.23633,0 18.47266,0 27.70899,0 0.29914,-16.32448 0.46514,-32.65175 0.88245,-48.97382 0.20446,-6.45865 0.3589,-12.932163 0.86104,-19.402848 -0.0368,-1.033254 0.45141,-2.151154 1.48001,-2.519047 0.5414,-0.195103 1.21405,0.04893 1.26889,0.679998 0.44259,1.267204 0.66221,2.822464 0.84159,3.998919 0.19633,1.438814 0.34874,2.893439 0.47839,4.408244 0.813,10.373264 0.92036,20.688904 1.06438,31.086714 0.14455,16.0012 0.10586,32.00339 0.16036,48.00504 -5.90643,0.34218 -11.84487,0.34893 -17.71485,1.15235 -3.95168,0.57401 -8.10852,1.78959 -10.84817,4.87531 -2.99102,3.34173 -3.97192,7.90333 -4.60263,12.21413 -0.95553,7.19143 -1.04435,14.46079 -1.22752,21.70313 -0.10687,7.46757 -0.30756,14.96781 0.52422,22.40383 0.52719,4.24227 1.53383,8.7488 4.62477,11.90684 2.2666,2.2491 5.11679,3.80598 7.95659,5.21096 3.67649,1.63521 7.86442,2.69474 11.8601,1.68215 2.85344,-0.61959 5.33165,-2.2256 8.00649,-3.31029 0.60856,-0.25111 1.38909,-0.47841 1.87412,0.13229 1.78687,1.15304 3.98641,1.32977 6.03467,1.68362 6.24218,0.82034 12.55094,0.81927 18.82897,1.16208 0.89312,0.039 1.78622,0.0781 2.67933,0.1172 -0.19903,-42.78939 -0.33545,-85.57911 -0.58426,-128.36825 -0.11407,-11.58831 -0.10554,-23.1829 -0.61433,-34.762444 -0.26104,-4.075446 -0.37558,-8.333243 -2.2683,-12.05136 -2.14717,-4.728647 -5.64662,-8.949671 -10.29555,-11.376005 -4.82671,-2.56361 -10.34759,-3.455124 -15.74972,-3.731891 -1.09141,-0.05172 -2.1848,-0.04526 -3.2769,-0.0206 z m 1.25195,131.787111 c 0.63152,2.75608 0.58218,5.68302 0.72656,8.44726 0.21904,8.45422 0.44251,16.9211 0.0449,25.37305 -0.0181,0.87701 -0.10932,2.04801 -1.11524,2.3457 -0.72047,0.30239 -1.7541,-0.13034 -1.64844,-1.02343 -0.49753,-4.68444 -0.38413,-9.40872 -0.35475,-14.11237 0.0667,-4.13296 0.20108,-8.14561 0.46315,-12.28131 0.21751,-2.62459 0.28496,-5.29008 0.90723,-7.85828 0.21706,-0.36491 0.59793,-0.80441 0.97656,-0.89062 z" />
        <path
           id="path7678"
           style="fill:#ff0022;fill-opacity:1;stroke-width:4.85608"
           d="m 402.86133,71.177734 c -5.08473,0.142191 -10.28931,0.757688 -14.95648,2.899314 -3.28702,1.661856 -6.86219,3.409337 -8.77212,6.730172 -2.04337,3.544813 -2.41565,7.725289 -2.84184,11.714099 -0.61321,7.249529 -0.86916,14.525291 -1.14392,21.794051 -0.45218,16.30119 -0.42758,32.61144 -0.34731,48.91736 0.13266,18.34772 0.35655,36.6989 1.05348,55.03457 0.2168,4.24688 0.29467,8.51629 0.91444,12.72879 1.37327,5.61193 5.74385,10.09276 10.80859,12.63672 3.9499,1.9752 8.37242,2.78072 12.73656,3.18025 8.28791,0.67012 17.00559,-1.14206 23.74967,-6.17774 2.78166,-1.94578 5.16503,-4.60678 6.22731,-7.87959 1.48003,-4.40691 1.57731,-9.11649 1.74323,-13.71839 0.18044,-8.81382 0.0577,-17.63078 0.094,-26.44593 0,-0.63334 0,-1.26667 0,-1.9 -8.88672,0 -17.77343,0 -26.66015,0 -0.0938,8.35148 0.0524,16.70936 -0.33233,25.05488 -0.23303,3.20417 -0.33527,6.48465 -1.35517,9.5584 -0.19503,0.21535 -0.24823,-0.96284 -0.35547,-1.31055 -0.61868,-4.55642 -0.69672,-9.15908 -0.83066,-13.70962 -0.33493,-16.51518 -0.18773,-33.03527 -0.12475,-49.55244 0.12303,-18.30029 0.17659,-36.60256 0.5738,-54.89951 0.14676,-4.75899 0.21102,-9.54759 0.71923,-14.322293 0.10805,-0.30511 0.0269,-1.557739 0.40457,-0.859886 0.7257,1.837751 0.71549,3.87189 0.8931,5.817688 0.46032,8.877131 0.34812,17.771111 0.39791,26.656921 0,11.12891 0,22.25781 0,33.38672 8.96354,0 17.92708,0 26.89063,0 -0.21882,-16.43454 -0.3385,-32.8707 -0.64524,-49.30389 -0.1852,-6.46495 -0.24706,-12.965756 -1.24986,-19.368599 -0.59616,-3.709544 -1.8053,-7.59856 -4.76001,-10.12053 -2.09056,-1.79293 -4.5617,-3.102995 -7.07899,-4.189801 -4.99577,-1.907187 -10.44236,-2.404238 -15.75223,-2.351166 z" />
        <path
           id="path7756"
           style="fill:#313131;fill-opacity:1;stroke-width:4.85608"
           d="m 101.41016,252.78711 c -12.872078,0.0434 -25.746664,0.003 -38.614068,0.40988 -8.576468,0.27605 -17.165408,0.48992 -25.715112,1.26209 -4.512199,0.49007 -9.246093,1.08197 -13.144286,3.59498 -3.343404,2.12109 -5.281008,5.81927 -6.247488,9.55871 -1.48322,5.74924 -1.761461,11.71664 -2.144825,17.6164 -0.696477,11.80837 -0.744506,23.64158 -0.930558,35.46585 -0.567049,44.28371 -0.419227,88.5719 -0.493448,132.85808 -0.005,5.58451 -0.0096,11.16903 -0.01491,16.75354 8.46875,0 16.9375,0 25.40625,0 0.162474,-45.09904 0.2681,-90.19833 0.484046,-135.29715 0.120022,-18.43683 0.162214,-36.8767 0.656579,-55.30832 0.131987,-3.27021 0.195511,-6.7005 0.568691,-10.01415 -0.115825,-0.69403 0.466055,-0.8521 1.024282,-0.96535 4.051891,-1.0823 8.274084,-1.08126 12.428511,-1.3955 0,67.66016 0,135.32031 0,202.98047 7.696615,0 15.393229,0 23.089844,0 0,-67.61133 0,-135.22266 0,-202.83398 3.145027,0.003 6.295151,0.0653 9.42833,-0.26057 0.950805,-0.0876 2.193165,-0.0669 2.602596,0.9897 1.159148,2.47981 1.32236,5.27499 1.628564,7.95809 0.36421,4.04888 0.519945,8.12248 0.638395,12.12767 0.402663,15.09986 0.3726,30.20695 0.462303,45.31087 0.171327,45.56957 0.416625,91.13881 0.624578,136.70822 7.598966,0 15.197916,0 22.796876,0 0,-68.10742 0,-136.21484 0,-204.32226 -4.57467,-4.40062 -9.14907,-8.80153 -13.72656,-13.19922 -0.26953,6.5e-4 -0.53906,0.001 -0.80859,0.002 z" />
        <path
           id="path8757"
           style="fill:#313131;fill-opacity:1;stroke-width:4.85608"
           d="m 156.94141,273.25977 c -6.79248,0.13018 -13.60802,1.50082 -19.80579,4.31594 -2.5832,1.15106 -4.69029,3.21886 -5.97172,5.73164 -1.52033,2.56191 -2.26663,5.49487 -2.52281,8.44402 -0.63621,6.72758 -0.62194,13.49462 -0.7654,20.24533 -0.24241,19.75969 -0.38657,39.52047 -0.58467,59.28064 7.70572,0 15.41145,0 23.11718,0 0.20579,-20.81855 0.33352,-41.63804 0.60789,-62.45581 0.13151,-5.27058 0.15266,-10.47067 0.75667,-15.72203 0.26349,-1.62362 0.37691,-3.40552 1.36786,-4.77919 0.90916,-0.76016 2.22408,-0.4821 3.32344,-0.56094 1.24873,0.0734 2.61485,-0.20911 3.7686,0.36779 1.01339,1.0269 1.13697,2.59066 1.42666,3.93652 0.77013,5.12508 0.82354,10.37321 0.98552,15.50068 0.30894,15.43745 0.3216,30.87895 0.46124,46.3185 0.0831,11.5397 0.16626,23.0794 0.24939,34.61909 -6.47713,0.35514 -12.97081,0.48928 -19.43139,1.08944 -3.41906,0.3379 -6.98912,0.99135 -9.75333,3.18112 -2.39744,1.64765 -4.40689,3.96733 -5.23929,6.7949 -1.28341,4.18206 -1.28913,8.61144 -1.41285,12.94562 -0.0851,9.87193 0.19359,19.74278 0.4324,29.61092 0.1869,4.3737 0.17926,8.79274 1.03283,13.1023 0.60619,3.17322 2.79462,5.7863 5.3853,7.59992 1.96777,1.48946 4.27525,2.44073 6.66402,3.01279 2.26266,0.61897 4.62297,1.01172 6.96618,0.6625 4.6797,-0.57852 9.27752,-1.98805 13.44511,-4.1994 1.51645,-0.78171 2.8154,-1.89626 4.19813,-2.88018 -0.067,1.98093 0.90569,4.04857 2.76172,4.90624 2.53866,1.18911 5.42973,1.10214 8.1707,1.19858 3.25489,0.0185 6.5099,0.004 9.76484,0.008 -0.029,-33.87993 0.004,-67.75998 -0.0789,-101.63982 -0.0963,-20.45466 -0.20741,-40.91127 -0.70047,-61.36088 -0.16649,-4.36236 -0.11932,-8.76089 -0.95542,-13.06408 -0.64032,-3.70072 -1.76098,-7.6225 -4.71313,-10.16392 -3.0724,-2.65231 -7.1157,-3.69206 -10.94461,-4.73224 -3.9214,-0.9642 -7.9707,-1.37496 -12.00586,-1.31445 z m 6.09961,152.0957 c -0.11985,5.95597 -0.15583,11.8844 -0.47291,17.79957 -0.16841,1.92211 -0.15048,3.92599 -0.86499,5.7434 -0.83951,1.14558 -2.36578,1.53917 -3.70493,1.75645 -2.01399,0.22279 -4.30833,-0.11203 -5.80874,-1.57872 -0.77436,-1.42144 -0.72882,-3.12409 -0.91011,-4.69612 -0.0688,-0.84796 -0.0936,-1.59196 -0.14457,-2.5031 -0.24285,-6.26837 -0.30504,-12.67358 -0.39047,-19.00698 0.003,-4.83049 -0.19335,-9.69508 0.49789,-14.49106 0.29158,-1.49367 0.65502,-3.39972 2.29101,-3.96875 2.40929,-0.76474 4.98414,-0.60413 7.47686,-0.80989 0.79482,-0.0412 1.58965,-0.0825 2.38447,-0.12371 -0.11784,7.29297 -0.23568,14.58594 -0.35351,21.87891 z" />
        <path
           id="path8796"
           style="fill:#313131;fill-opacity:1;stroke-width:4.85608"
           d="m 219.71484,276.80664 c -6.10647,0.22109 -12.43247,1.78746 -17.18654,5.80613 -2.96741,2.53049 -5.29061,5.91759 -6.29978,9.70364 -0.90653,4.10681 -0.87922,8.3431 -1.05043,12.52545 -0.31243,14.08753 -0.23321,28.18016 -0.25174,42.27025 0.0369,22.66757 -0.04,45.33632 0.23668,68.00268 0.16293,7.83659 0.22028,15.69491 1.09283,23.49263 0.49264,3.55425 1.0501,7.40121 3.51219,10.19271 2.64131,2.87161 6.24827,4.68009 9.92486,5.84789 2.6519,0.72481 5.43536,0.7224 8.16367,0.86083 5.53752,0.15494 11.09988,0.0961 16.60875,-0.52901 3.74624,-0.4459 7.65825,-1.54707 10.32881,-4.37166 2.13769,-2.23208 3.61286,-5.01432 4.82975,-7.83025 1.572,-4.04894 1.49969,-8.47324 1.64839,-12.74781 0.0772,-7.29804 0.10025,-14.60055 -0.13114,-21.89586 -0.16498,-2.62606 -0.13049,-5.35294 -1.09817,-7.83934 -0.52917,-1.38087 -1.8924,-2.18912 -3.29883,-2.41992 -5.31927,-1.07805 -10.7778,-0.66739 -16.16719,-0.77012 -0.5268,0.0735 -1.34683,-0.14686 -1.7039,0.0967 -0.0362,9.87381 0.0876,19.74911 -0.0964,29.62176 -0.15165,4.42541 -0.19589,8.87255 -0.79225,13.26579 -0.327,1.72259 -2.15872,2.90811 -3.87144,2.73555 -2.49896,-0.13924 -5.07577,-0.98661 -6.91959,-2.727 -0.67792,-0.61055 -0.35666,-1.61562 -0.50655,-2.41693 -0.39677,-10.76547 -0.38848,-21.54087 -0.48622,-32.31197 -0.13169,-29.7638 -0.0975,-59.52935 0.26232,-89.29151 0.10473,-6.40922 0.14993,-12.78928 0.45757,-19.16369 -0.0269,-1.30127 0.31237,-2.58053 1.03386,-3.66964 1.47627,-2.35655 4.20809,-4.19374 7.07017,-3.90383 1.24207,0.13608 2.51304,1.13967 2.43398,2.48205 0.46776,5.45873 0.57191,10.94076 0.76417,16.41419 0.40877,14.74062 0.47292,29.60711 0.65908,44.39737 0.0556,5.02119 0.11235,10.04236 0.16709,15.06357 7.65495,0 15.30989,0 22.96484,0 -0.21931,-26.14388 -0.4359,-52.28778 -0.65625,-78.43165 -3.01088,-2.47732 -5.87118,-5.14512 -9.01245,-7.45901 -3.13593,-2.3436 -6.96644,-3.47344 -10.7849,-4.08532 -3.90596,-0.68557 -7.87771,-1.05402 -11.84523,-0.91465 z" />
        <path
           id="path8835"
           style="fill:#313131;fill-opacity:1;stroke-width:4.85608"
           d="m 265.52539,259.69531 c 0.2647,3.10048 0.64291,6.19262 0.83008,9.29883 0.023,0.70809 0.0628,1.77664 0.0792,2.54797 0.33867,16.40855 0.38671,32.82154 0.48711,49.23287 0.19786,44.49126 0.10064,88.98309 0.12944,133.47463 4.6e-4,6.94349 10e-4,13.88698 10e-4,20.83047 8.07487,0 16.14974,0 24.22461,0 -0.11551,-41.37774 -0.29504,-82.75534 -0.35861,-124.1332 0.004,-12.48436 -0.0608,-24.97185 0.28049,-37.45274 0.074,-1.99537 0.16086,-4.19217 0.36511,-6.2575 0.19783,-1.80224 0.34655,-3.89229 1.91352,-5.08575 2.53297,-2.05944 6.37314,-1.5269 8.83785,0.37674 0.78575,0.60993 1.54806,1.24961 2.32492,1.87081 0.23944,56.89388 0.48038,113.78775 0.71876,170.68164 7.26367,0 14.52734,0 21.79101,0 -0.20432,-61.22983 -0.41253,-122.45964 -0.62109,-183.68946 -2.88477,-1.96065 -5.6379,-4.12496 -8.64147,-5.90376 -2.81296,-1.69633 -6.15614,-2.10577 -9.38236,-2.07261 -5.36067,-0.0695 -10.78045,0.98376 -15.57909,3.42142 -0.62976,0.2898 -1.25952,0.57961 -1.88927,0.86941 -0.52201,-1.15489 -0.45519,-2.45654 -0.56055,-3.69336 -0.006,-0.39538 -0.0363,-1.20017 -0.0518,-1.75227 -0.12523,-7.55783 0.58324,-15.09401 0.95019,-22.6364 0.041,-0.70508 0.082,-1.41016 0.12305,-2.11524 -8.72657,0 -17.45313,0 -26.17969,0 0.069,0.72917 0.13802,1.45834 0.20703,2.1875 z" />
        <path
           id="path8874"
           style="fill:#313131;fill-opacity:1;stroke-width:4.85608"
           d="m 339.83398,292.91602 c 0,53.96028 0,107.92057 0,161.88086 7.29948,0 14.59896,-10e-6 21.89844,0 0,-54.62696 0,-109.25391 0,-163.88086 -7.29948,0 -14.59896,0 -21.89844,0 0,0.66666 0,1.33333 0,2 z" />
        <path
           id="path8913"
           style="fill:#313131;fill-opacity:1;stroke-width:4.85608"
           d="m 349.8125,269.45898 c -3.49819,0.17184 -7.25467,1.3122 -9.48242,4.17579 -1.45267,1.81141 -1.64669,4.5723 -0.20357,6.44541 1.57517,2.16039 4.25476,3.09906 6.74918,3.73108 3.15779,0.7225 6.26393,-0.63878 9.10087,-1.87962 2.29063,-1.0858 4.57702,-3.05333 4.73917,-5.75234 0.18629,-2.4938 -1.73807,-4.60722 -3.90518,-5.55039 -2.17754,-0.99955 -4.62547,-1.25974 -6.99805,-1.16993 z" />
        <path
           id="path8952"
           style="fill:#313131;fill-opacity:1;stroke-width:4.85608"
           d="m 408.34375,282.57812 c -4.10443,0.15503 -8.20057,1.13523 -11.81305,3.12089 -1.22542,0.55749 -2.54036,1.24165 -3.81781,1.44357 -0.27468,-2.03813 -2.27661,-3.22098 -4.11126,-3.664 -4.26826,-1.06005 -8.7119,-0.85272 -13.07428,-0.90533 -1.95508,-0.004 -3.91016,-0.009 -5.86524,-0.0127 0,64.17317 0,128.34635 0,192.51953 8.09375,0 16.1875,0 24.28125,0 0.0781,-36.44085 0.0874,-72.88189 0.21748,-109.32259 0.10532,-19.58602 0.17611,-39.17383 0.58927,-58.75629 0.0306,-1.07443 0.0593,-2.27221 0.11306,-3.30979 0.0419,-1.09469 0.0869,-2.29734 0.71691,-3.22852 1.48763,-0.60028 3.15761,-0.47934 4.73275,-0.63443 1.34423,0.009 2.9661,-0.21865 4.00944,0.81412 1.20901,1.67386 1.34246,3.83557 1.64728,5.81516 0.58823,5.48049 0.73007,10.9969 0.95037,16.50124 0.41959,16.72747 0.53482,33.58041 0.66768,50.35803 0.20873,31.24994 0.16859,62.50085 0.24608,93.75126 0.005,2.67061 0.008,5.34121 0.014,8.01181 7.49935,0 14.99869,0 22.49804,0 -0.20073,-43.58429 -0.34679,-87.16888 -0.60026,-130.75291 -0.10935,-14.24738 -0.13493,-28.49868 -0.59062,-42.74016 -0.19499,-3.53139 -0.18559,-7.11378 -0.97959,-10.57666 -0.45741,-2.17552 -2.35419,-3.59118 -4.09299,-4.76226 -4.53211,-2.81414 -9.99486,-3.78187 -15.26762,-3.68228 -0.15695,0.004 -0.31391,0.008 -0.47087,0.0123 z" />
        <path
           id="path8991"
           style="fill:#313131;fill-opacity:1;stroke-width:4.85608"
           d="m 470.61328,280.24219 c -4.75805,0.14366 -9.59812,0.46029 -14.1451,1.97233 -3.77576,1.26658 -7.56764,3.26106 -9.73966,6.7347 -2.07426,3.29659 -2.84806,7.21434 -3.31092,11.02706 -0.49897,6.7359 -0.53427,13.49617 -0.66601,20.24693 -0.33185,25.80536 -0.22114,51.61427 -0.005,77.42014 0.20377,17.74809 0.36993,35.50057 1.02617,53.23858 0.17633,3.32647 0.2055,6.67686 0.71325,9.97375 0.38136,1.63313 1.75554,2.78481 2.93416,3.88065 3.67628,3.04481 7.90911,5.40692 12.36632,7.09842 4.82944,1.81187 10.12231,1.83899 15.19228,1.32541 6.36755,-0.76031 12.72114,-2.51446 18.24023,-5.84961 3.37809,-2.03002 6.26138,-5.09337 7.45281,-8.90993 1.40055,-4.49075 1.57542,-9.23829 1.89547,-13.89844 0.33706,-6.25048 0.53249,-12.50813 0.80211,-18.76195 -7.42513,0 -14.85026,0 -22.27539,0 -0.40674,6.55012 -0.65427,13.11179 -1.20519,19.65193 -0.24703,2.4792 -0.5481,5.23667 -1.22645,7.79925 -0.25977,1.42832 -1.30689,2.55176 -2.58716,3.16647 -2.75023,1.39909 -6.19825,1.39283 -8.88548,-0.16393 -0.49394,-0.30163 -1.35998,-0.35698 -1.13981,-1.13125 -0.42532,-10.07104 -0.94101,-20.13855 -1.27818,-30.21309 -0.11181,-4.70776 -0.29338,-9.53747 -0.13253,-14.29177 -0.1295,-0.67927 0.82525,-0.47874 1.24553,-0.64182 4.4182,-0.51152 8.87966,-0.39384 13.3198,-0.45213 7.37525,-0.0153 14.75054,-0.003 22.1258,-0.007 -0.0418,-22.76948 -3.7e-4,-45.53923 -0.10836,-68.30851 -0.10182,-12.781 -0.19938,-25.56562 -0.67036,-38.33903 -0.14797,-2.78289 -0.0933,-5.66041 -1.19553,-8.27749 -2.4886,-6.40218 -8.42169,-11.019 -14.90525,-12.91638 -4.4927,-1.23188 -9.20451,-1.39779 -13.8373,-1.37343 z m 0.11719,14.79883 c 1.77016,0.13576 3.60395,0.0371 5.31055,0.58398 1.29665,0.63664 1.57233,2.24452 1.9018,3.51229 0.84473,4.17079 0.93238,8.53884 1.11187,12.71818 0.37131,13.94299 0.26271,27.89294 0.31679,41.83945 0.0194,13.67656 0.0388,27.35313 0.0582,41.02969 -4.72055,0.032 -9.50416,-0.12663 -14.14649,0.86719 -0.6841,0.21072 -0.32695,-0.80256 -0.48047,-1.19141 -0.43003,-8.5333 -0.31331,-17.08276 -0.28235,-25.62377 0.15297,-18.12669 0.58561,-36.25003 1.14368,-54.36842 0.15685,-4.08761 0.28066,-8.2821 0.6836,-12.39453 0.0567,-0.55668 0.16404,-1.45337 0.26762,-2.13681 0.28615,-1.478 0.43972,-3.1267 1.44331,-4.32022 0.72595,-0.60916 1.78655,-0.49136 2.67188,-0.51562 z" />
      </g>
    </g>
  </g>
</svg>
