<?xml version="1.0" encoding="UTF-8" standalone="no"?>
<svg
   viewBox="0 0 512 512"
   height="512"
   width="512"
   id="svg834"
   version="1.1"
   sodipodi:docname="xspear.svg"
   inkscape:version="1.1.2 (0a00cf5339, 2022-02-04)"
   xmlns:inkscape="http://www.inkscape.org/namespaces/inkscape"
   xmlns:sodipodi="http://sodipodi.sourceforge.net/DTD/sodipodi-0.dtd"
   xmlns="http://www.w3.org/2000/svg"
   xmlns:svg="http://www.w3.org/2000/svg"
   xmlns:rdf="http://www.w3.org/1999/02/22-rdf-syntax-ns#"
   xmlns:cc="http://creativecommons.org/ns#"
   xmlns:dc="http://purl.org/dc/elements/1.1/">
  <sodipodi:namedview
     id="namedview866"
     pagecolor="#505050"
     bordercolor="#eeeeee"
     borderopacity="1"
     inkscape:pageshadow="0"
     inkscape:pageopacity="0"
     inkscape:pagecheckerboard="0"
     showgrid="false"
     inkscape:zoom="0.63215346"
     inkscape:cx="187.45448"
     inkscape:cy="242.82079"
     inkscape:window-width="1366"
     inkscape:window-height="695"
     inkscape:window-x="0"
     inkscape:window-y="24"
     inkscape:window-maximized="1"
     inkscape:current-layer="svg834" />
  <metadata
     id="metadata840">
    <rdf:RDF>
      <cc:Work
         rdf:about="">
        <dc:format>image/svg+xml</dc:format>
        <dc:type
           rdf:resource="http://purl.org/dc/dcmitype/StillImage" />
      </cc:Work>
    </rdf:RDF>
  </metadata>
  <defs
     id="defs838" />
  <g
     id="g2170"
     transform="matrix(0.96283758,0,0,0.9255121,22.230843,15.362733)">
    <path
       id="path1152-5"
       style="fill:#ffffff;fill-opacity:1;stroke-width:2.0426"
       d="m 382.88086,-7.5527344 c -5.24362,0.1468228 -9.96886,3.1595031 -13.4216,6.93694603 -9.0224,9.44966277 -15.78091,20.90199637 -25.4866,29.73297637 -6.29625,5.612311 -14.34764,8.922288 -20.25613,15.014202 -2.857,2.763086 -4.50351,6.640342 -4.82981,10.575641 -4.69257,1.02966 -9.38239,2.078135 -14.02972,3.297132 -4.57876,1.002925 -9.42863,1.145876 -14.01325,1.046618 -4.99651,-0.101722 -9.98078,-0.51483 -14.94141,-1.109375 -0.84539,-0.107607 -1.97862,-0.254181 -2.93489,-0.381594 -4.15448,-0.565889 -8.1805,-1.285357 -12.31957,-2.033702 -6.78425,-1.187987 -13.37385,-3.345831 -19.62992,-6.21245 -5.64075,-2.521865 -11.19023,-5.246796 -16.69445,-8.052276 C 208.05663,32.672785 193.35151,21.28718 177.90625,11.257812 173.90977,8.7659612 170.00719,5.7415084 165.2553,4.8949681 160.1654,3.906771 154.908,5.8539988 150.98834,9.0810577 c -4.61535,3.8889493 -7.90019,9.0319773 -11.86145,13.5309743 -0.48405,0.425139 -0.74935,0.92874 -0.60378,1.579752 0.3157,14.691232 -0.11863,29.41398 1.05602,44.075058 0.46278,4.717485 1.2595,9.396014 2.2197,14.035892 -4.28364,0.494783 -8.73175,1.380664 -12.2993,3.945987 -4.5406,3.241847 -7.50395,8.841073 -6.96425,14.474899 0.22379,3.10569 1.42621,6.11375 3.30847,8.58497 -4.44806,4.3368 -8.18281,9.3195 -12.22956,14.01401 -0.68151,0.73376 -1.35195,1.59802 -2.41696,1.71994 -2.8421,0.71093 -5.79582,1.51961 -8.74279,1.01914 -2.15431,-0.28444 -3.82047,-1.77396 -5.714618,-2.69663 -4.016754,-2.23484 -8.651443,-3.89703 -13.305301,-3.14739 -7.193415,1.09202 -13.280797,7.60604 -13.484108,14.94668 -0.226247,3.499 0.787579,6.97822 2.412868,10.0505 -5.948628,4.01026 -11.641949,8.50265 -16.408203,13.89063 -5.730726,6.67312 -10.065219,14.43274 -13.584287,22.46241 -3.354218,7.85888 -5.460614,16.20106 -6.730888,24.63703 -2.863728,16.377 -5.72702,32.75408 -8.591075,49.13103 6.537344,-7.30224 13.078126,-14.61359 19.613281,-21.91016 1.931702,5.46045 5.042213,10.46797 8.966797,14.71875 0.96047,1.06938 1.952713,2.10918 2.941406,3.15235 0.03491,4.77495 -1.00978,9.87288 -4.33789,13.48242 -2.076308,2.17891 -4.509782,3.97347 -6.69791,6.035 -12.492667,11.04297 -24.984853,22.08648 -37.477871,33.12906 12.532657,-1.70691 25.065097,-3.41542 37.597656,-5.12305 -1.059527,8.89779 0.22823,18.25704 4.622931,26.14811 2.399969,4.24851 5.748076,8.12959 10.111356,10.42601 1.576592,0.75036 3.278373,1.2352 5.011807,1.44151 5.246757,9.83068 12.409113,18.53796 20.503643,26.15621 2.835778,2.75879 5.398267,5.77791 7.995421,8.75483 3.49916,3.64187 8.053915,6.46214 13.106405,7.21005 7.17165,7.49319 15.33032,13.94021 23.47211,20.33194 8.57225,6.63463 17.50879,12.82341 25.64176,20.0075 3.06274,2.81775 5.60473,6.13675 7.9457,9.56168 2.77254,3.74187 6.50058,7.03435 11.10059,8.21997 0.52026,0.0228 0.83773,0.33482 1.09598,0.7676 3.06005,3.88311 6.32426,7.85489 10.76734,10.2049 5.8196,2.92039 13.44711,2.22994 18.31423,-2.22857 0.43502,-0.65107 0.82638,0.40007 1.24282,0.62526 6.91854,6.72922 14.96885,12.1098 22.82169,17.66158 0.59075,0.50632 1.38466,0.93165 1.70663,1.64515 0.51417,4.36707 0.4085,8.78515 0.32175,13.17599 -0.0719,2.09526 0.0541,4.27862 -0.87586,6.22397 -0.88566,2.17768 -2.58041,3.91383 -4.53877,5.1661 -16.75062,12.40613 -33.4893,24.82483 -50.22886,37.24631 22.71393,-3.06359 45.44261,-6.01974 68.1543,-9.09766 11.08851,-2.2851 21.1034,-7.88036 31.96108,-10.9226 5.85505,-1.7614 11.75692,-3.09951 17.75019,-4.18038 7.98128,-1.43532 15.97924,-3.51406 23.07706,-7.54895 7.54145,-4.03589 14.70512,-8.81475 21.19604,-14.38518 1.37945,-0.33669 2.79777,-0.49158 4.16908,-0.87529 7.18808,-1.64642 13.95082,-5.07739 19.56334,-9.85518 3.32979,2.4083 7.57615,3.55161 11.65652,2.9198 5.87316,-0.79834 11.3052,-5.01448 13.00631,-10.77485 1.65989,-4.81373 0.74919,-9.9825 0.0267,-14.87195 -0.0799,-0.57797 -0.45615,-1.25142 0.11314,-1.6983 1.61099,-2.10316 3.51712,-3.95805 5.31736,-5.89599 2.09037,-2.16116 4.23086,-4.27309 6.35258,-6.40332 5.12059,2.07155 11.23988,1.26721 15.69841,-1.97817 3.29108,-2.27765 6.09128,-5.20043 8.61388,-8.28892 4.02975,-5.0892 7.2593,-10.80077 9.70441,-16.80719 1.44481,-3.82586 2.16468,-7.9278 2.08486,-12.01751 5.44688,-0.59676 10.45827,-4.14138 12.77626,-9.1157 1.89211,-3.88317 2.05025,-8.46339 0.77731,-12.56025 -0.7231,-2.48198 -1.86178,-4.81833 -3.1024,-7.07796 2.13541,-5.81491 0.55226,-12.83456 -4.03015,-17.04573 -2.65989,-2.55614 -6.1519,-4.04876 -9.6925,-4.92302 -0.62811,-8.10918 -0.21941,-16.436 -2.72104,-24.27883 -0.53619,-1.60096 -1.19184,-3.16012 -1.92154,-4.68211 4.64469,-2.41574 8.88885,-5.60002 12.45062,-9.44079 0.87182,-0.8538 1.64883,-1.95909 2.93024,-2.17835 5.94732,-2.10447 10.6572,-6.57601 14.70859,-11.26319 3.80272,-4.45813 6.64437,-9.61487 9.41906,-14.74487 2.76501,-4.51249 6.15794,-8.87181 7.19852,-14.1853 1.3943,-6.33559 -0.15829,-13.38614 -4.57026,-18.22861 -1.17847,-1.40089 -2.69102,-2.49677 -3.86488,-3.88561 -1.52948,-2.92736 -2.49258,-6.15682 -4.45761,-8.84931 -5.00989,-8.11522 -12.08982,-14.98066 -20.50498,-19.50293 -2.33729,-1.31171 -4.03538,-3.42043 -5.97993,-5.2113 -0.5344,-0.50157 -1.0561,-1.01721 -1.60086,-1.50779 0.30646,-1.89835 0.63091,-3.83483 1.01851,-5.62698 0.24162,-1.02941 0.37101,-2.11 1.0479,-2.96286 3.69993,-6.47972 3.2455,-15.06504 -1.15176,-21.10078 -1.87282,-2.69371 -4.50209,-4.71539 -7.07072,-6.6965 -0.73554,-0.70685 -1.39129,-1.4943 -1.97869,-2.32772 2.76773,-4.3308 5.36206,-8.96428 6.09213,-14.12889 0.92329,-5.77934 -0.38251,-11.78269 -3.22584,-16.8613 -2.60814,-4.84703 -6.00618,-9.20706 -9.37839,-13.53636 -2.39925,-2.95151 -4.94703,-5.78482 -7.66954,-8.4422 0.35281,-5.924 -2.83657,-11.86848 -7.93723,-14.891836 -0.99038,-0.628935 -2.0401,-1.158132 -3.09793,-1.66285 0.0262,-2.834639 -0.72345,-5.626747 -2.00852,-8.142591 -0.73549,-1.471277 -1.65041,-2.853621 -2.71023,-4.111315 -0.21167,-2.151032 -0.91935,-4.243845 -1.88476,-6.15625 1.79593,-5.08059 2.19492,-10.894411 -0.0682,-15.897026 -0.33218,-0.837962 -1.02004,-1.455212 -0.92334,-2.428979 -0.19847,-3.85453 -0.24311,-7.945227 0.21187,-11.873157 0.65303,-4.803169 2.27404,-9.401675 3.6033,-14.044879 2.00109,-6.674905 4.15227,-13.356877 5.10408,-20.28135 C 402.62836,9.3779714 401.28176,3.3119937 397.42773,-1 c -3.60751,-4.1313812 -9.0361,-6.6831254 -14.54687,-6.5527344 z M 167.23828,197.81055 c 9.83329,4.45568 19.74419,8.90311 29.5293,13.36328 -3.17169,2.02795 -5.62432,4.92222 -8.3393,7.48513 -1.46237,1.52956 -3.0473,3.00729 -4.10601,4.85862 -6.38791,-8.86942 -12.77312,-17.74064 -19.13477,-26.62891 0.68359,0.30729 1.36719,0.61459 2.05078,0.92188 z m 179.89453,13.83984 c -3.30752,4.77147 -6.61736,9.54156 -9.92578,14.3125 -1.38118,-3.7241 -4.02057,-6.85336 -7.11943,-9.28392 -1.68071,-1.45584 -3.47165,-2.77915 -5.29072,-4.05592 10.63671,-4.94741 21.27477,-9.89058 31.91601,-14.82813 -3.19336,4.61849 -6.38672,9.23698 -9.58008,13.85547 z m -70.5,69.29297 c 0.36941,0.31073 0.92256,0.67267 1.18555,0.95312 -0.95098,0.0782 -1.89696,0.21934 -2.82813,0.42774 0.38856,-0.59277 0.74097,-1.20843 1.0625,-1.83984 0.19336,0.15299 0.38672,0.30598 0.58008,0.45898 z m -29.60351,1.79102 c 0.61999,0.88023 1.31292,1.71094 2.08203,2.46484 -1.02338,-0.3158 -1.59798,-1.32905 -2.40767,-1.97694 -0.66812,-0.28202 -0.44295,-0.88131 0.0728,-0.8639 0.0843,0.12533 0.16853,0.25066 0.2528,0.376 z" />
    <g
       id="g1944">
      <path
         id="path1368"
         style="fill:#ff001d;fill-opacity:1;stroke-width:6.43831"
         d="m 119.4707,157.07812 c -1.16897,0.10562 -2.07865,1.28097 -1.86718,2.4375 0.34918,1.74287 0.57257,3.58835 1.66797,5.05811 9.53318,14.06854 19.43173,27.88409 29.24648,41.75728 13.7552,19.34617 27.54727,38.66664 41.65391,57.76079 11.45746,-0.006 22.91648,0.16952 34.37292,-0.014 2.72295,-0.10931 5.54691,-0.0538 8.13293,-1.02114 2.16611,-0.92205 3.47733,-3.64779 2.44532,-5.84961 -0.84441,-2.02824 -2.84406,-3.16044 -4.37033,-4.61722 -8.29329,-7.13531 -16.94722,-13.85391 -25.00272,-21.26364 -0.44991,-0.43024 -0.90426,-0.85589 -1.34375,-1.29687 1.07697,-1.00705 2.22938,-2.04734 3.61599,-2.58027 1.45936,-0.022 2.71686,0.91472 3.95042,1.58613 5.08483,3.16838 9.7183,6.98748 14.47149,10.61909 4.39104,3.41265 8.77817,6.83032 13.16523,10.24809 -0.0505,4.26518 0.15582,8.5441 -0.19627,12.79873 -0.0922,1.02564 -0.70473,1.90371 -1.57367,2.43257 -0.96494,0.77877 -2.1947,1.68125 -3.08031,2.24582 -2.76277,1.84644 -6.00191,3.06056 -9.35316,3.06062 -2.89631,0.13588 -5.96711,0.0158 -8.6267,1.34668 -1.85701,0.92308 -2.99126,3.19414 -2.27341,5.20347 0.63025,1.96776 2.18064,3.43425 3.44533,5.00696 2.30244,2.59923 4.97993,4.85747 7.1074,7.61219 -13.13635,10.96225 -26.5177,21.62616 -39.8571,32.33925 -18.51395,14.84325 -37.09594,29.61691 -55.53352,44.56114 -1.42641,1.17768 -2.24219,3.07893 -1.86914,4.92187 0.50524,2.97263 2.95175,5.04363 5.15428,6.86132 1.783,1.42777 3.55111,2.91667 5.49931,4.10468 0.9372,0.66517 2.26048,1.04251 3.28539,0.33505 5.08097,-3.67952 9.95294,-7.64597 14.92805,-11.46965 22.59207,-17.58861 45.02523,-35.37528 67.62534,-52.95239 5.82176,-4.46767 11.5743,-9.05487 17.75661,-13.02136 0.79566,-0.49678 1.59802,-1.00163 2.48149,-1.32835 1.79834,1.83961 3.86108,3.8818 6.59961,3.98633 2.88067,0.0879 5.26943,-1.79072 7.45252,-3.42978 1.37964,-0.9453 2.62098,-2.08736 4.06896,-2.93155 2.17051,2.02215 4.93351,3.77847 8.01563,3.61914 3.23766,-0.12643 5.95373,-2.05907 8.63841,-3.65092 0.51121,-0.44275 0.9758,-0.17529 1.37917,0.26593 30.4083,24.43965 60.6928,49.03572 91.09483,73.481 1.8666,1.44553 3.64857,3.01133 5.56743,4.38263 2.44417,1.46966 5.52318,0.80882 7.90805,-0.4513 3.2859,-1.76011 6.11555,-4.14801 9.17816,-6.22077 1.11189,-0.79156 2.22369,-1.58326 3.33551,-2.37493 -27.14124,-22.44458 -54.36201,-44.79537 -81.25363,-67.53915 -5.39898,-4.59962 -10.82807,-9.16885 -16.02176,-14.00187 1.90889,-3.25902 4.42237,-6.0992 6.64258,-9.14062 1.06853,-1.40487 2.25084,-2.94837 3.36328,-4.40625 -3.5996,-0.96873 -7.25609,-1.73178 -10.82838,-2.79493 -4.52816,-1.95684 -8.60548,-4.80712 -12.50618,-7.79452 0.93461,-0.028 2.13548,0.0425 3.17237,0.0524 13.78779,0.31921 27.57551,0.64192 41.36336,0.95893 3.8019,-4.63792 7.52047,-9.3486 10.9163,-14.29493 12.77764,-18.03717 25.16796,-36.34292 37.51745,-54.67466 6.36914,-9.51006 12.76293,-19.00765 18.82869,-28.7152 0.81928,-1.46658 1.9458,-3.05497 1.51422,-4.82525 -0.19198,-0.886 -0.50535,-1.80215 -1.32772,-2.28489 -1.47292,-1.14059 -3.48967,-1.23471 -5.19849,-0.6177 -3.68573,1.0618 -7.17082,2.70022 -10.69833,4.18515 -15.50605,6.75312 -30.80752,13.95862 -46.16167,21.04437 -21.43146,9.93751 -42.83744,19.93266 -64.25569,29.89991 -0.0597,6.9177 0.12735,13.84024 -0.14048,20.75437 -0.0918,0.32049 0.15548,1.42647 -0.39017,0.84061 -1.8647,-1.35786 -3.82894,-2.81886 -6.16075,-3.19459 -1.94285,-0.28595 -3.80096,1.08121 -4.40625,2.89258 -0.3769,0.98707 -0.48009,2.04977 -0.67578,3.08203 -0.69557,-2.19625 -3.00003,-3.8349 -5.32741,-3.42279 -1.5711,0.18281 -2.89219,1.11011 -4.30345,1.7392 -0.70583,-2.92153 -0.79863,-5.94681 -0.97071,-8.93555 -0.0445,-1.21461 -0.0935,-2.68246 -0.13975,-3.9948 -0.14148,-3.7648 -0.29559,-7.5292 -0.43251,-11.29426 -33.66982,-15.19112 -67.28447,-30.49932 -101.02631,-45.52631 -8.16517,-3.62198 -16.3252,-7.26247 -24.57789,-10.68168 -1.17681,-0.49651 -2.45696,-0.57614 -3.69268,-0.79983 -0.36618,-0.0725 -0.74776,-0.13748 -1.11914,-0.0684 z m 194.19532,71.09961 c 1.66431,1.06194 3.16515,2.44616 4.38867,3.97266 -3.71931,3.86442 -7.84535,7.30865 -11.93794,10.7658 -7.28299,6.03849 -14.65102,11.9736 -21.9605,17.98029 -0.20188,-3.52219 -0.0175,-7.05555 -0.0293,-10.58203 8.86782,-6.89187 17.51224,-14.09136 26.75933,-20.47878 0.88553,-0.58864 1.77895,-1.16659 2.69966,-1.69895 z" />
      <path
         style="fill:#000000;fill-opacity:1;stroke-width:2.0426"
         d="m 240.42435,501.02725 c 1.89026,-1.40247 4.70646,-5.14338 6.25823,-8.31314 2.42475,-4.95295 2.82279,-7.51993 2.83121,-18.25853 0.0127,-15.94251 -1.18491,-18.35457 -13.1234,-26.43519 -14.59712,-9.88014 -22.28471,-17.44277 -26.75998,-26.32498 -2.19046,-4.34752 -4.27043,-8.95122 -4.62212,-10.23042 -0.85794,-3.12049 -4.25228,-2.96412 -4.99328,0.23003 -0.65085,2.80543 -3.03537,19.65465 -3.03537,21.44807 0,1.97291 -2.31265,-0.14623 -7.38114,-6.76349 -2.71679,-3.54697 -5.16356,-6.70036 -5.43729,-7.00754 -0.27371,-0.30718 -1.02793,0.34278 -1.67606,1.44435 -1.01472,1.72466 -1.81875,1.09217 -5.78829,-4.55321 -4.62514,-6.57778 -10.15372,-11.53014 -25.69644,-23.0182 -17.51238,-12.94386 -29.11552,-22.98736 -34.1422,-29.55296 -2.86593,-3.74331 -5.42532,-6.80602 -5.68752,-6.80602 -0.26221,0 -0.15169,1.546 0.24564,3.43555 0.64558,3.07029 0.489,3.31673 -1.473,2.318 -1.20745,-0.61464 -3.01381,-2.28844 -4.01412,-3.71955 -1.00032,-1.43109 -5.5274,-6.18018 -10.060183,-10.55354 -10.60671,-10.23368 -19.14223,-25.3284 -20.53223,-36.31042 -1.57237,-12.42295 -3.8178,-11.80998 -4.70123,1.28337 -0.58622,8.68834 -0.60471,8.72947 -2.77791,6.17677 -6.42785,-7.55037 -6.01447,-23.36191 0.86244,-32.98794 4.39352,-6.14986 3.89197,-7.28548 -2.81112,-6.36493 l -5.67277,0.77907 3.94195,-3.47853 c 6.34901,-5.60261 10.33134,-15.07915 10.36272,-24.65961 0.0264,-8.08828 0.0219,-8.09977 -5.57625,-13.79543 -7.75352,-7.8886 -9.85221,-15.0128 -9.01562,-30.6042 0.68799,-12.82166 -0.2713,-14.46245 -5.00579,-8.56203 l -2.50655,3.12382 0.77658,-3.40781 c 2.33017,-10.22534 8.06527,-21.90205 14.64504,-29.81736 4.37734,-5.26585 15.45478,-13.35931 23.49614,-17.16689 l 6.78966,-3.21489 -3.64286,-2.46724 c -3.22904,-2.18699 -8.5883,-8.90842 -8.5883,-10.77121 0,-0.38108 2.5236,0.82939 5.608,2.68993 6.53611,3.94264 14.023703,4.46185 23.942253,1.6602 6.2343,-1.76095 6.6185,-2.0944 17.0261,-14.77656 6.85541,-8.35361 15.32386,-14.3691 24.78102,-17.60293 4.10529,-1.40379 7.46415,-2.76443 7.46415,-3.02364 0,-0.2592 -2.28402,-1.45742 -5.07563,-2.6627 -3.46564,-1.49628 -7.91678,-2.22214 -14.03261,-2.28833 -7.22087,-0.0782 -8.37829,-0.316515 -5.97134,-1.229665 1.64212,-0.623 7.20824,-1.12404 12.36915,-1.11341 l 9.38346,0.0192 -0.55717,-3.07436 c -0.30645,-1.6909 -1.76112,-8.44166 -3.23259,-15.001701 -2.10934,-9.403723 -2.7134,-16.02837 -2.85497,-31.309891 l -0.17955,-19.382539 3.34501,-4.188172 c 1.83974,-2.303492 3.90513,-4.188171 4.58972,-4.188171 0.68461,0 9.00703,5.389786 18.49429,11.977296 22.72311,15.777901 30.67182,20.580325 46.42117,28.046631 16.28021,7.717966 21.34504,9.279118 39.54345,12.188638 17.30735,2.76707 33.31861,2.97491 42.30205,0.549127 3.59159,-0.969821 9.20528,-2.29207 12.47487,-2.938301 3.26958,-0.64624 6.84326,-1.632401 7.94149,-2.191449 2.10504,-1.071556 6.19593,-10.919053 5.1834,-12.477352 -0.32583,-0.501457 3.92454,-3.741116 9.44526,-7.199222 10.63606,-6.662305 15.4734,-11.524148 29.3003,-29.448773 4.7301,-6.131884 9.20349,-10.9575941 9.94088,-10.7237981 3.78656,1.200527 3.57229,4.1196941 -1.52921,20.8348771 -4.63507,15.186822 -5.15971,18.113148 -5.06689,28.262066 0.0654,7.14734 0.5883,11.474832 1.4184,11.738027 2.09371,0.663819 1.54368,3.9573 -1.66578,9.9745 -1.63937,3.073527 -2.98292,5.675407 -2.98568,5.781947 -0.002,0.10655 1.66038,0.54165 3.69584,0.96688 3.82335,0.79873 3.46954,2.28567 -0.71517,3.00556 -1.96522,0.33807 -1.43608,1.02245 2.98566,3.86161 4.08501,2.62295 5.28313,4.05759 4.99462,5.98045 -0.20879,1.391345 0.25336,4.353935 1.02697,6.583525 1.07165,3.08855 2.58389,4.5623 6.35092,6.18929 5.08292,2.19533 4.95777,2.57676 -0.72841,2.22013 -4.51427,-0.28311 -4.11343,1.54871 1.16246,5.31252 6.79165,4.84512 13.11524,11.46975 19.06573,19.97332 6.27293,8.9644 6.30636,11.6028 0.26176,20.66863 -2.87827,4.31688 -3.50998,6.2815 -2.94344,9.15395 0.85607,4.34032 6.56427,12.17088 10.79358,14.8067 3.17113,1.9763 3.88497,4.87075 1.7112,6.93837 -0.71401,0.67914 -2.04033,5.9602 -2.94742,11.73569 l -1.64922,10.50092 3.24598,2.38928 c 1.78528,1.3141 4.85823,4.10729 6.82877,6.2071 1.97053,2.0998 5.48793,4.74823 7.8164,5.88538 6.32386,3.08838 13.79734,11.44528 16.27216,18.19564 1.29353,3.52825 3.52547,6.91072 5.46952,8.28891 4.01585,2.84701 4.15045,5.82373 0.49777,11.00887 -1.53253,2.17553 -4.08529,6.48502 -5.67277,9.57667 -3.60281,7.01659 -10.68068,14.25773 -13.93624,14.25773 -1.44358,0 -4.68637,2.35239 -7.83591,5.68435 -4.08395,4.3205 -7.43349,6.48184 -13.96051,9.00832 -4.72308,1.82819 -8.82092,3.54611 -9.10635,3.81758 -0.28541,0.27149 1.76565,4.52224 4.55795,9.44615 5.01668,8.84638 5.0844,9.11881 5.71036,22.97497 0.71501,15.82694 1.36538,16.97223 11.19636,19.71645 4.58049,1.27858 4.70972,1.41671 1.67836,1.79418 -1.80634,0.22492 -3.28424,0.82422 -3.28424,1.3318 0,0.50757 1.88098,3.89396 4.17993,7.5253 4.58868,7.2481 5.7201,11.7447 1.746,6.93921 -2.59468,-3.1375 -17.41251,-10.67101 -18.65834,-9.48607 -0.40847,0.38855 0.74501,3.91409 2.56332,7.83455 2.21927,4.78495 3.50447,9.83916 3.90975,15.37543 0.5511,7.52857 0.28351,8.86597 -3.07037,15.34597 -2.02077,3.90426 -5.39298,8.62731 -7.49381,10.49564 -3.7925,3.37283 -3.81334,3.37678 -2.92599,0.55716 0.49153,-1.56192 1.16625,-6.29025 1.49938,-10.50743 0.75855,-9.60277 -0.96938,-10.06161 -5.02695,-1.33483 -2.03726,4.38164 -6.37337,9.71889 -14.07358,17.32306 -16.82169,16.61185 -17.94728,18.59482 -16.27298,28.66906 0.55329,3.32924 0.78997,6.25865 0.52591,6.5098 -0.26405,0.25116 -2.44841,-2.14928 -4.85412,-5.33431 -2.40571,-3.18504 -4.84723,-5.79097 -5.42559,-5.79097 -0.57836,0 -1.93286,1.66131 -3.00996,3.6918 -4.34364,8.18819 -12.4168,13.72716 -22.1697,15.21053 -3.35328,0.51002 -6.3896,1.94022 -8.61706,4.0589 -4.69801,4.46856 -16.32239,11.86351 -22.80042,14.50471 -2.93784,1.1978 -8.71881,2.74246 -12.84658,3.43258 -12.47892,2.08635 -24.85578,5.64622 -35.82279,10.3035 -5.72206,2.42994 -12.70852,4.71777 -15.52545,5.08407 l -5.12169,0.66599 z m -48.68409,-161.1648 c 27.51338,-21.85827 50.65486,-39.7493 51.42553,-39.75783 0.77067,-0.009 3.06491,1.31605 5.09832,2.9435 l 3.69714,2.95897 5.25693,-4.09727 5.25694,-4.09728 3.63077,2.90589 c 3.82215,3.05906 6.2287,2.77569 9.64117,-1.13526 0.84745,-0.97126 2.38094,-1.76593 3.40772,-1.76593 2.21334,0 1.97391,-0.18857 57.31213,45.14208 23.84188,19.53023 43.89691,35.50953 44.56672,35.50953 1.73799,0 10.57799,-7.15989 10.51875,-8.51955 -0.0272,-0.62477 -21.28174,-18.43574 -47.23224,-39.57993 -25.95052,-21.14419 -47.46485,-39.14323 -47.80966,-39.99785 -0.34479,-0.85464 1.57231,-4.03464 4.26022,-7.06663 2.6879,-3.03204 4.8871,-5.86325 4.8871,-6.29163 0,-0.42835 -2.0451,-0.77884 -4.54468,-0.77884 -3.74951,0 -5.94363,-1.09754 -12.5398,-6.27263 l -7.99508,-6.27265 0.0727,-7.07463 0.0728,-7.07464 16.05974,-12.84994 16.05975,-12.84995 3.27432,2.21993 c 1.8009,1.22096 4.21616,3.2113 5.36726,4.42297 2.03258,2.1395 1.57626,2.62457 -15.82402,16.8204 -9.85431,8.03955 -17.91756,14.8987 -17.91832,15.2426 -7.5e-4,0.3439 9.80716,0.47292 21.79535,0.28673 l 21.79675,-0.33855 35.07189,-50.55119 c 19.28954,-27.80317 34.73288,-50.87368 34.31851,-51.26781 -0.41437,-0.39413 -17.54029,7.10867 -38.05756,16.67289 -20.5173,9.56423 -48.4516,22.56364 -62.07623,28.88758 l -24.77207,11.49808 -0.009,12.21134 c -0.004,6.71624 -0.28833,12.21133 -0.62981,12.21133 -0.34147,0 -2.7492,-1.27792 -5.35046,-2.83984 -2.60128,-1.56191 -5.27769,-2.83985 -5.9476,-2.83985 -0.77859,0 -1.21799,6.76148 -1.21799,18.74298 0,15.90313 -0.27142,18.74297 -1.7914,18.74297 -1.51776,0 -1.7914,-2.77833 -1.7914,-18.18925 v -18.18926 l -4.8899,2.93609 c -2.68944,1.61486 -5.17791,2.66215 -5.52991,2.32734 -0.35201,-0.33482 -0.91145,-6.45899 -1.24319,-13.60928 L 246.8155,216.23766 218.61346,203.46703 C 156.41114,175.30052 120.567,159.23282 119.9343,159.23282 c -0.36649,0 -0.031,1.15013 0.7453,2.55586 1.75662,3.18045 67.6011,94.9613 70.08425,97.69065 1.59641,1.75469 4.30856,1.98789 23.12024,1.98789 11.72143,0 21.27841,-0.38337 21.23776,-0.85195 -0.0405,-0.46857 -4.83049,-4.59636 -10.64405,-9.17286 -5.81358,-4.5765 -13.87231,-11.16329 -17.90832,-14.63728 l -7.33819,-6.31634 3.2642,-3.24069 c 5.84702,-5.80489 6.3534,-5.62935 23.7726,8.24111 l 16.09329,12.81465 -0.004,8.56959 -0.004,8.56955 -5.53432,4.25978 c -5.10575,3.92991 -6.12589,4.25976 -13.17432,4.25976 -7.23544,0 -7.57325,0.11871 -6.37885,2.2415 0.69367,1.2328 3.92773,4.77777 7.18682,7.87768 l 5.9256,5.6362 -34.34128,27.62036 c -18.88737,15.19122 -41.74725,33.49887 -50.79939,40.68366 l -16.45844,13.06331 5.13987,4.25669 c 2.82693,2.34118 5.73796,4.25807 6.46896,4.25978 0.73101,10e-4 23.84004,-17.881 51.35342,-39.73927 z"
         id="path1152" />
    </g>
  </g>
</svg>
