<?xml version="1.0" encoding="UTF-8" standalone="no"?><svg xmlns="http://www.w3.org/2000/svg" xmlns:cc="http://creativecommons.org/ns#" xmlns:dc="http://purl.org/dc/elements/1.1/" xmlns:inkscape="http://www.inkscape.org/namespaces/inkscape" xmlns:rdf="http://www.w3.org/1999/02/22-rdf-syntax-ns#" xmlns:sodipodi="http://sodipodi.sourceforge.net/DTD/sodipodi-0.dtd" xmlns:svg="http://www.w3.org/2000/svg" xmlns:xlink="http://www.w3.org/1999/xlink" height="293" id="svg869" inkscape:version="1.1.2 (0a00cf5339, 2022-02-04)" sodipodi:docname="xsser.svg" version="1.1" viewBox="0 0 293 293" width="293">
  <sodipodi:namedview bordercolor="#eeeeee" borderopacity="1" id="namedview1063" inkscape:current-layer="svg869" inkscape:cx="141.46078" inkscape:cy="130.14392" inkscape:pagecheckerboard="0" inkscape:pageopacity="0" inkscape:pageshadow="0" inkscape:window-height="695" inkscape:window-maximized="1" inkscape:window-width="1366" inkscape:window-x="0" inkscape:window-y="24" inkscape:zoom="1.5021831" pagecolor="#505050" showgrid="false"/>
  <metadata id="metadata875">
    <rdf:RDF>
      <cc:Work rdf:about="">
        <dc:format>image/svg+xml</dc:format>
        <dc:type rdf:resource="http://purl.org/dc/dcmitype/StillImage"/>
      </cc:Work>
    </rdf:RDF>
  </metadata>
  <defs id="defs873">
    <linearGradient id="linearGradient6823" inkscape:collect="always">
      <stop id="stop6819" offset="0" style="stop-color:#ff3300;stop-opacity:1;"/>
      <stop id="stop6821" offset="1" style="stop-color:#ff3300;stop-opacity:0;"/>
    </linearGradient>
    <radialGradient cx="145.87596" cy="128.4063" fx="145.87596" fy="128.4063" gradientTransform="matrix(2.1847115,0.01711622,-0.0175022,2.2339776,-171.19147,-169.44055)" gradientUnits="userSpaceOnUse" id="radialGradient6827" inkscape:collect="always" r="116.93668" xlink:href="#linearGradient6823"><stop id="stop6819" offset="0" style="stop-color:#ff3300;stop-opacity:1;"/><stop id="stop6821" offset="1" style="stop-color:#ff3300;stop-opacity:0;"/></radialGradient>
  </defs>
  <path d="m 86.163994,290.76895 c 0,-0.52482 2.437604,-5.97178 5.416885,-12.10434 5.61345,-11.55476 16.353331,-38.5117 25.239761,-63.35144 l 5.12485,-14.32525 -3.98039,-16.26696 c -2.1892,-8.94683 -5.1548,-20.85579 -6.59023,-26.46436 l -2.60984,-10.1974 4.44978,-8.01225 c 2.4474,-4.40673 7.11478,-12.48791 10.37198,-17.95816 3.25719,-5.47026 5.62095,-10.24132 5.25278,-10.60235 -0.36815,-0.36104 -2.4768,0.0175 -4.68587,0.8411 -2.20907,0.82364 -6.86804,1.49752 -10.35326,1.49752 h -6.33676 l -14.739771,26.58609 -14.739783,26.58608 -13.364747,9.89438 c -13.758759,10.18605 -25.699415,17.44089 -31.562196,19.17637 -6.252326,1.8508 -3.369862,-1.68981 5.942018,-7.29873 5.106421,-3.0758 14.966463,-9.99338 21.911208,-15.37241 12.42108,-9.62071 12.783016,-10.08476 22.216024,-28.48464 5.274075,-10.28751 11.123253,-21.14985 12.998165,-24.13852 1.874923,-2.98868 3.408945,-5.67446 3.408945,-5.96843 0,-0.29397 -7.520371,-0.9534 -16.711936,-1.46539 -24.781684,-1.38042 -37.167457,-5.29374 -44.75959,-14.141957 -5.019418,-5.849852 -4.910958,-9.361549 0.451535,-14.620325 5.341881,-5.238554 11.761158,-5.537187 29.081632,-1.35291 6.536216,1.579019 21.410129,4.24676 33.053136,5.92831 l 21.16909,3.057371 5.32207,-3.225606 5.32208,-3.225597 -7.87996,-4.225828 c -4.33397,-2.324205 -9.49775,-5.678694 -11.47506,-7.454419 -4.899,-4.399559 -11.51213,-19.056795 -12.79668,-28.362361 -0.580999,-4.20888 -1.922644,-8.142163 -2.981445,-8.74063 C 93.417755,34.765472 57.911285,2.6524028 58.614958,1.962341 59.455101,1.1384449 64.198405,4.5405394 87.0645,22.367564 l 16.49831,12.862526 1.62951,9.643522 c 3.0526,18.06554 9.79586,27.234873 24.42271,33.209405 5.55766,2.270103 5.57064,2.267043 5.57064,-1.313687 0,-1.974 1.08858,-4.186497 2.41903,-4.916659 1.65387,-0.907655 1.88881,-1.648915 0.74276,-2.343518 -2.61406,-1.584326 -1.9752,-5.954236 1.29473,-8.856248 1.74348,-1.547311 2.97635,-4.499583 2.98393,-7.145447 0.0236,-8.255223 1.86938,-19.804828 3.16501,-19.804828 0.70322,0 1.27859,5.130107 1.27859,11.400237 0,10.276695 0.36601,11.737432 3.71376,14.821652 3.96429,3.652218 4.72201,7.169174 2.09883,9.741625 -1.16293,1.140422 -1.16293,1.857665 0,2.562486 0.88822,0.538331 1.61494,2.623138 1.61494,4.632906 0,4.412344 1.68359,4.076053 16.81782,-3.359295 12.01352,-5.902167 13.96844,-9.267379 15.29082,-26.321561 l 0.87566,-11.292893 17.14176,-16.38868 c 26.21086,-25.0593593 24.5917,-20.5034121 -3.23579,9.104822 -9.35727,9.956061 -9.08742,9.368901 -11.11696,24.190576 -2.35808,17.221299 -2.60715,17.563556 -18.58056,25.533954 -7.81449,3.89926 -14.21121,7.477995 -14.21495,7.952743 -0.004,0.474751 2.21303,2.035506 4.92614,3.468357 4.77514,2.521832 5.45234,2.505608 21.16846,-0.507098 35.30338,-6.767521 65.44803,-9.26163 73.89122,-6.113621 4.51963,1.685121 7.39299,9.004701 5.47595,13.949384 -1.6335,4.213286 -15.31869,11.394256 -27.78136,14.577576 -5.45976,1.39458 -15.54301,2.16926 -28.23487,2.16926 -10.85821,0 -19.74222,0.45643 -19.74222,1.01428 0,0.55786 1.57413,3.34393 3.49808,6.19128 1.92394,2.84736 7.36092,11.40471 12.08215,19.01633 14.54079,23.44276 16.84029,26.27285 39.94847,49.16604 12.33341,12.21868 21.71149,22.21578 20.84015,22.21578 -3.46997,0 -15.56158,-9.32143 -31.80369,-24.51747 -16.18655,-15.14408 -18.01907,-17.47949 -34.90937,-44.48939 -17.27604,-27.62674 -17.97651,-28.50772 -22.70168,-28.55158 -2.68157,-0.0249 -7.19379,-0.99513 -10.02716,-2.15609 -2.83335,-1.16095 -5.15155,-1.58721 -5.15155,-0.94723 0,0.63998 5.94532,9.8156 13.21185,20.39026 7.30542,10.63127 12.96667,20.33516 12.66339,21.70623 -3.32373,15.02572 -6.72628,41.72784 -6.07052,47.63948 1.06378,9.59015 18.81983,62.01967 26.31777,77.71037 5.70922,11.94754 6.35535,14.70417 2.96476,12.64922 -4.24377,-2.57207 -12.78213,-22.32987 -27.08762,-62.68093 l -10.32925,-29.13544 1.74689,-10.92579 c 0.9608,-6.00918 2.95527,-16.49794 4.43214,-23.30834 l 2.68523,-12.38255 -14.08588,-20.89902 c -7.74724,-11.49447 -14.38067,-20.60995 -14.74095,-20.25664 -0.36027,0.35332 0.0963,5.82459 1.0147,12.1584 1.56864,10.81864 1.04479,33.73998 -1.04896,45.89705 -0.7767,4.50991 -1.48139,5.26173 -5.02439,5.36051 l -4.12098,0.11494 -2.62081,-17.00197 c -2.29495,-14.8881 -2.39232,-18.96417 -0.78328,-32.78382 1.01065,-8.68002 1.51359,-16.09953 1.11763,-16.48782 -0.84248,-0.82619 -7.03651,9.60275 -16.31621,27.47166 l -6.59988,12.70867 3.55766,14.96999 c 1.9567,8.23349 4.83637,19.77151 6.39926,25.64006 l 2.84161,10.67008 -6.02944,16.28019 c -3.3162,8.95406 -6.6213,16.90292 -7.34467,17.66409 -0.72337,0.76116 -1.31522,2.21671 -1.31522,3.23455 0,1.01786 -1.58625,5.3117 -3.52499,9.54185 -1.93874,4.23019 -6.05521,13.26339 -9.14772,20.0738 -3.092501,6.8104 -7.161222,14.78575 -9.041616,17.72299 -3.295661,5.14797 -6.51028,8.23893 -6.51028,6.25987 z M 138.15669,94.40145 c 0,-3.165583 -1.67628,-3.887111 -4.99009,-2.147922 -3.06316,1.607642 -3.06603,1.652634 -0.17605,2.759897 4.30522,1.649477 5.16614,1.547485 5.16614,-0.611975 z m 17.68906,-1.86147 c -1.90828,-2.254853 -4.31951,-1.379413 -4.31951,1.568266 0,1.252412 1.08662,1.684133 3.00232,1.192855 2.34683,-0.601836 2.6344,-1.204666 1.31719,-2.761121 z" id="path885" style="fill:url(#radialGradient6827);stroke-width:1.47106838;fill-opacity:1"/>
</svg>