<?xml version="1.0" encoding="UTF-8" standalone="no"?>
<!-- Created with Inkscape (http://www.inkscape.org/) -->

<svg
   version="1.1"
   id="svg870"
   width="512"
   height="512"
   viewBox="0 0 512 512"
   sodipodi:docname="yersinia.svg"
   inkscape:version="1.1.2 (0a00cf5339, 2022-02-04)"
   xmlns:inkscape="http://www.inkscape.org/namespaces/inkscape"
   xmlns:sodipodi="http://sodipodi.sourceforge.net/DTD/sodipodi-0.dtd"
   xmlns="http://www.w3.org/2000/svg"
   xmlns:svg="http://www.w3.org/2000/svg">
  <defs
     id="defs874" />
  <sodipodi:namedview
     id="namedview872"
     pagecolor="#505050"
     bordercolor="#eeeeee"
     borderopacity="1"
     inkscape:pageshadow="0"
     inkscape:pageopacity="0"
     inkscape:pagecheckerboard="0"
     showgrid="false"
     inkscape:zoom="0.81848149"
     inkscape:cx="184.48798"
     inkscape:cy="273.06665"
     inkscape:window-width="1366"
     inkscape:window-height="695"
     inkscape:window-x="0"
     inkscape:window-y="24"
     inkscape:window-maximized="1"
     inkscape:current-layer="g876" />
  <g
     inkscape:groupmode="layer"
     inkscape:label="Image"
     id="g876">
    <g
       id="g1014"
       transform="matrix(0.6856452,-0.72861438,0.66634087,0.74640092,-77.223653,210.88937)">
      <path
         style="fill:#6eb5e3;stroke-width:1.06667"
         d="m 271.73332,520.84719 c 1.32,-0.25425 3.48,-0.25425 4.8,0 1.32,0.25424 0.24,0.46226 -2.4,0.46226 -2.64,0 -3.72,-0.20802 -2.4,-0.46226 z m -41.93377,-17.64722 -3.1329,-3.46667 3.46667,3.1329 c 3.23142,2.9203 3.95696,3.80044 3.1329,3.80044 -0.18358,0 -1.74358,-1.56 -3.46667,-3.46667 z m -44.03115,-36 c 0,-1.46667 0.24212,-2.06667 0.53802,-1.33333 0.2959,0.73333 0.2959,1.93333 0,2.66666 -0.2959,0.73334 -0.53802,0.13334 -0.53802,-1.33333 z m 173.90619,-12.26666 c 0.0218,-1.76 0.2608,-2.35087 0.53124,-1.31304 0.27045,1.03784 0.25267,2.47784 -0.0396,3.2 -0.29219,0.72217 -0.51346,-0.12696 -0.49172,-1.88696 z M 79.733328,428.09354 c 0.733334,-0.2959 1.933334,-0.2959 2.666667,0 0.733333,0.29591 0.133333,0.53802 -1.333333,0.53802 -1.466667,0 -2.066667,-0.24211 -1.333334,-0.53802 z m 246.666652,-3.96296 c 0,-0.2215 0.84,-1.0615 1.86667,-1.86667 1.69179,-1.32679 1.72952,-1.28907 0.40273,0.40273 -1.39346,1.7768 -2.2694,2.34185 -2.2694,1.46394 z m -161.06666,-2.88546 c -15.13053,-1.65923 -16.87087,-2.46121 -27.02404,-12.45322 -12.26182,-12.0672 -21.61403,-30.16339 -24.17945,-46.7864 -0.76074,-4.92926 -1.02788,-43.76205 -0.81363,-118.27218 l 0.31898,-110.93333 2.40939,-7.8172 c 12.69429,-41.186316 50.81578,-66.660453 92.75012,-61.97894 14.71598,1.64288 18.11839,3.17126 26.64179,11.967609 12.1944,12.584929 19.42113,25.517851 23.63565,42.298281 2.23044,8.88065 2.26119,10.48781 2.26119,118.1783 0,120.10268 0.14701,117.12229 -6.57597,133.32 -10.72381,25.83696 -33.84503,45.18483 -60.69058,50.78597 -10.74181,2.24121 -19.18539,2.73815 -28.73345,1.69111 z m 36.81444,-51.11678 c 20.88085,-7.18406 34.65223,-25.82207 34.65223,-46.89785 0,-33.74085 -32.27278,-57.92181 -64.1543,-48.06877 -30.53596,9.43717 -43.85736,42.75428 -28.85374,72.16379 2.82427,5.53602 13.23469,15.9359 18.78801,18.769 12.92414,6.59339 27.73857,8.10369 39.5678,4.03383 z m 39.34708,-98.54902 c 4.81807,-2.01312 7.03848,-5.52216 7.03848,-11.12335 0,-3.88799 -0.60686,-5.27618 -3.62667,-8.29599 -5.04342,-5.04342 -10.7972,-5.1003 -16.18611,-0.16 -3.15942,2.89641 -3.79164,4.21164 -3.84335,7.99542 -0.075,5.48393 2.35849,9.52344 6.93664,11.51484 4.31228,1.87575 5.33951,1.88308 9.68101,0.0691 z m -21.3386,-39.09214 c 3.26213,-2.86419 4.53433,-5.75781 10.81168,-24.59101 8.08055,-24.24309 8.21688,-26.38129 2.02857,-31.8147 -5.71958,-5.02185 -13.39297,-4.1823 -18.3064,2.0029 -0.72045,0.90693 -4.48882,11.22107 -8.37418,22.92033 -6.51204,19.60853 -6.97047,21.58443 -5.86442,25.27612 2.72292,9.08831 12.80549,12.26399 19.70475,6.20636 z m -49.57163,-12.83591 c 6.19238,-6.19238 4.29442,-16.4001 -3.66793,-19.72697 -4.74169,-1.98122 -9.4812,-0.92904 -13.3808,2.97056 -2.54566,2.54567 -3.13589,4.04396 -3.13589,7.96051 0,4.0646 0.57131,5.39592 3.62667,8.45128 3.05536,3.05536 4.38668,3.62667 8.45128,3.62667 3.96526,0 5.40921,-0.5846 8.10667,-3.28205 z m 11.15793,-50.05435 c 5.89062,-6.52022 5.46425,-9.77458 -3.62834,-27.69426 -6.95987,-13.71651 -7.7821,-14.87156 -11.7033,-16.44051 -7.45006,-2.98092 -13.84286,-0.0212 -15.87853,7.35137 -1.36717,4.95151 -0.62937,7.19716 7.83104,23.83542 7.53438,14.81714 9.67728,17.09193 16.17913,17.17501 2.57531,0.033 4.22797,-0.93736 7.2,-4.22703 z m 38.63078,-49.49026 c 2.79951,-2.79951 3.62667,-4.51456 3.62667,-7.51964 0,-5.43021 -2.44718,-9.58671 -6.88377,-11.69201 -10.25523,-4.866427 -20.83988,5.65948 -15.9831,15.8944 2.17396,4.58127 5.94573,6.84337 11.50687,6.90121 3.27931,0.0341 4.83731,-0.68794 7.73333,-3.58396 z m 62.29333,301.89058 c 0,-0.22149 0.84,-1.06149 1.86667,-1.86666 1.69179,-1.3268 1.72952,-1.28907 0.40273,0.40273 -1.39346,1.7768 -2.2694,2.34184 -2.2694,1.46393 z m 137.88696,-24.86979 c 1.03783,-0.27044 2.47783,-0.25266 3.2,0.0396 0.72216,0.29219 -0.12697,0.51346 -1.88697,0.49172 -1.76,-0.0218 -2.35087,-0.2608 -1.31303,-0.53124 z m 50.99724,-70.28302 c 0.0512,-1.24262 0.30394,-1.49536 0.64444,-0.64445 0.30813,0.76999 0.27024,1.69001 -0.0842,2.04445 -0.35444,0.35444 -0.60655,-0.27556 -0.56024,-1.4 z M 69.108463,297.87581 c 3.689656,-0.20888 9.449656,-0.20717 12.799999,0.004 3.350342,0.211 0.331533,0.3819 -6.708467,0.3798 -7.039999,-0.002 -9.781189,-0.17475 -6.091532,-0.38363 z m 248.533317,0 c 3.68966,-0.20888 9.44966,-0.20717 12.8,0.004 3.35034,0.211 0.33153,0.3819 -6.70847,0.3798 -7.04,-0.002 -9.78119,-0.17475 -6.09153,-0.38363 z M 69.108463,161.34249 c 3.689656,-0.20889 9.449656,-0.20717 12.799999,0.004 3.350342,0.211 0.331533,0.3819 -6.708467,0.3798 -7.039999,-0.002 -9.781189,-0.17474 -6.091532,-0.38363 z m 248.533317,0 c 3.68966,-0.20889 9.44966,-0.20717 12.8,0.004 3.35034,0.211 0.33153,0.3819 -6.70847,0.3798 -7.04,-0.002 -9.78119,-0.17474 -6.09153,-0.38363 z M 264.39725,91.999994 c -1.32679,-1.691793 -1.28906,-1.729521 0.40273,-0.402725 1.7768,1.39346 2.34185,2.269392 1.46394,2.269392 -0.22149,0 -1.06149,-0.84 -1.86667,-1.866667 z M 68.350873,81.511106 c 0.05118,-1.242605 0.303937,-1.495359 0.644444,-0.644444 0.308129,0.77 0.270234,1.69 -0.08421,2.044444 -0.354445,0.354444 -0.60655,-0.275556 -0.560235,-1.4 z m 52.101717,-28.977776 -2.58593,-2.933333 2.93333,2.585935 c 2.74165,2.416946 3.4225,3.280731 2.58593,3.280731 -0.19106,0 -1.51106,-1.32 -2.93333,-2.933333 z m 18.13333,-17.066665 -2.58593,-2.933334 2.93333,2.585935 c 2.74165,2.416946 3.4225,3.280732 2.58594,3.280732 -0.19107,0 -1.51107,-1.32 -2.93334,-2.933333 z"
         id="path1028" />
      <path
         style="fill:#4b9ad4;stroke-width:1.06667"
         d="m 180.79999,431.92073 c -9.26083,-1.98113 -30.38128,-10.96169 -29.00839,-12.33458 0.34461,-0.34462 3.06327,-0.042 6.04145,0.67243 7.74015,1.85683 26.8585,1.6361 35.76694,-0.41295 27.92764,-6.42369 50.42059,-25.20942 61.15736,-51.07759 6.72298,-16.19771 6.57597,-13.21732 6.57597,-133.32 0,-107.69049 -0.0308,-109.29765 -2.26119,-118.1783 -4.2247,-16.82091 -11.42064,-29.677472 -23.75902,-42.448859 -7.55901,-7.824273 -7.56809,-7.840833 -3.31312,-6.040485 2.34666,0.992913 5.41053,2.255915 6.80859,2.806674 9.05883,3.568678 24.44442,17.297808 32.81042,29.27796 4.12864,5.91224 8.85308,16.22888 11.30319,24.6825 l 2.41113,8.31913 v 114.66666 c 0,126.60074 0.47959,116.89563 -6.6153,133.86666 -15.43212,36.91372 -57.46969,58.17367 -97.91803,49.52075 z m -30.4,-143.25681 c 0,-0.22149 0.84,-1.06149 1.86667,-1.86667 1.69179,-1.32679 1.72952,-1.28906 0.40273,0.40273 -1.39346,1.7768 -2.2694,2.34185 -2.2694,1.46394 z m 81.41384,-17.15368 c -4.57815,-1.9914 -7.01159,-6.03091 -6.93664,-11.51484 0.0517,-3.78378 0.68393,-5.09901 3.84335,-7.99542 5.38891,-4.9403 11.14269,-4.88342 16.18611,0.16 3.01981,3.01981 3.62667,4.408 3.62667,8.29599 0,5.60119 -2.22041,9.11023 -7.03848,11.12335 -4.3415,1.814 -5.36873,1.80667 -9.68101,-0.0691 z m -77.78717,-52.20359 c -3.05536,-3.05536 -3.62667,-4.38668 -3.62667,-8.45128 0,-3.91655 0.59023,-5.41484 3.13589,-7.96051 3.8996,-3.8996 8.63911,-4.95178 13.3808,-2.97056 7.96235,3.32687 9.86031,13.53459 3.66793,19.72697 -2.69746,2.69745 -4.14141,3.28205 -8.10667,3.28205 -4.0646,0 -5.39592,-0.57131 -8.45128,-3.62667 z m 6.84,-95.23531 c 0.76999,-0.30813 1.68999,-0.27024 2.04444,0.0842 0.35445,0.35446 -0.27556,0.60655 -1.4,0.56024 -1.24261,-0.0512 -1.49536,-0.30394 -0.64444,-0.64444 z m 44.87357,-1.94131 c -3.83075,-2.08178 -6.61755,-8.23062 -5.70158,-12.58003 3.11387,-14.785984 23.96134,-12.14363 23.96134,3.03702 0,5.64251 -5.64797,11.163 -11.36,11.1036 -2.25867,-0.0235 -5.36357,-0.72575 -6.89976,-1.56059 z"
         id="path1026" />
      <path
         style="fill:#5c8ba4;stroke-width:1.06667"
         d="m 263.26665,545.40465 c 0.77,-0.30813 1.69,-0.27024 2.04445,0.0842 0.35444,0.35444 -0.27556,0.60655 -1.4,0.56023 -1.24261,-0.0512 -1.49536,-0.30393 -0.64445,-0.64443 z m 4.26667,-24.53333 c 0.76999,-0.30813 1.68999,-0.27024 2.04444,0.0842 0.35445,0.35444 -0.27556,0.60655 -1.4,0.56023 -1.24261,-0.0512 -1.49535,-0.30393 -0.64444,-0.64444 z m 11.73333,0 c 0.76999,-0.30813 1.69,-0.27024 2.04445,0.0842 0.35444,0.35444 -0.27557,0.60655 -1.4,0.56023 -1.24262,-0.0512 -1.49536,-0.30393 -0.64445,-0.64444 z m 38.06666,-17.40468 c 1.06186,-1.17334 2.17065,-2.13334 2.46398,-2.13334 0.29334,0 -0.33545,0.96 -1.39731,2.13334 -1.06186,1.17333 -2.17064,2.13333 -2.46398,2.13333 -0.29333,0 0.33546,-0.96 1.39731,-2.13333 z M 185.7684,462.93331 c 0,-1.46667 0.24212,-2.06667 0.53802,-1.33334 0.2959,0.73334 0.2959,1.93334 0,2.66667 -0.2959,0.73333 -0.53802,0.13333 -0.53802,-1.33333 z m 150.31579,-11.28889 c 0.0512,-1.24261 0.30394,-1.49536 0.64444,-0.64445 0.30813,0.77 0.27024,1.69001 -0.0842,2.04445 -0.35444,0.35444 -0.60655,-0.27556 -0.56023,-1.4 z M 123.59726,431.19997 c -1.32679,-1.69179 -1.28906,-1.72952 0.40273,-0.40273 1.02667,0.80518 1.86667,1.64518 1.86667,1.86667 0,0.87791 -0.87594,0.31286 -2.2694,-1.46394 z m 151.60272,-1.73606 c 0,-0.22149 0.84,-1.06149 1.86667,-1.86667 1.6918,-1.32679 1.72952,-1.28906 0.40273,0.40273 -1.39346,1.7768 -2.2694,2.34185 -2.2694,1.46394 z m 4.26667,-4.26667 c 0,-0.22149 0.84,-1.06149 1.86667,-1.86666 1.69179,-1.3268 1.72952,-1.28907 0.40273,0.40273 -1.39346,1.7768 -2.2694,2.34184 -2.2694,1.46393 z M 139.59726,410.93331 c -1.32679,-1.6918 -1.28907,-1.72953 0.40273,-0.40273 1.02667,0.80517 1.86667,1.64517 1.86667,1.86666 0,0.87791 -0.87594,0.31287 -2.2694,-1.46393 z m -4.26667,-4.26667 c -1.32679,-1.6918 -1.28906,-1.72952 0.40274,-0.40273 1.02666,0.80517 1.86666,1.64517 1.86666,1.86667 0,0.87791 -0.87593,0.31286 -2.2694,-1.46394 z m 280.40272,-9.50643 c 0.73333,-0.2959 1.93333,-0.2959 2.66666,0 0.73334,0.2959 0.13334,0.53802 -1.33333,0.53802 -1.46667,0 -2.06667,-0.24212 -1.33333,-0.53802 z m -1,-24.55555 c 0.76999,-0.30813 1.69,-0.27024 2.04445,0.0842 0.35444,0.35444 -0.27557,0.60655 -1.4,0.56023 -1.24262,-0.0512 -1.49536,-0.30393 -0.64445,-0.64443 z M 310.39998,356.3296 c 0,-0.55204 0.47451,-1.29698 1.05445,-1.6554 0.60465,-0.3737 0.78347,0.0545 0.41921,1.00371 -0.7091,1.84791 -1.47366,2.18601 -1.47366,0.65169 z m 37.41755,-71.08517 c 0.0512,-1.24261 0.30393,-1.49536 0.64443,-0.64445 0.30813,0.77 0.27024,1.69001 -0.0842,2.04445 -0.35444,0.35444 -0.60655,-0.27556 -0.56023,-1.4 z m 0,-136.53332 c 0.0512,-1.24262 0.30393,-1.49536 0.64443,-0.64445 0.30813,0.76999 0.27024,1.68999 -0.0842,2.04445 -0.35444,0.35444 -0.60655,-0.27557 -0.56023,-1.4 z M 121.59999,68.799996 c 1.37787,-1.466667 2.74521,-2.666667 3.03854,-2.666667 0.29333,0 -0.594,1.2 -1.97187,2.666667 -1.37787,1.466666 -2.74521,2.666666 -3.03854,2.666666 -0.29333,0 0.59401,-1.2 1.97187,-2.666666 z m 70.68696,-6.605857 c 1.03784,-0.270446 2.47784,-0.25266 3.2,0.03952 0.72217,0.292185 -0.12696,0.513459 -1.88696,0.491721 -1.76,-0.02174 -2.35087,-0.260798 -1.31304,-0.531245 z m 11.73334,0 c 1.03783,-0.270446 2.47783,-0.25266 3.2,0.03952 0.72216,0.292185 -0.12697,0.513459 -1.88697,0.491721 -1.76,-0.02174 -2.35087,-0.260798 -1.31303,-0.531245 z m -78.78831,-4.860809 -2.03199,-2.4 2.4,2.031987 c 2.2554,1.909566 2.88559,2.768013 2.03199,2.768013 -0.20241,0 -1.28241,-1.08 -2.4,-2.4 z m 85.30855,-32.266665 c 0.002,-7.039999 0.17474,-9.78119 0.38363,-6.091532 0.20888,3.689656 0.20717,9.449656 -0.004,12.799999 -0.21056,3.350342 -0.38146,0.331533 -0.37936,-6.708467 z m -77.28794,5.066666 -2.58593,-2.933333 2.93333,2.585935 c 1.61334,1.422265 2.93333,2.742264 2.93333,2.933333 0,0.836559 -0.86378,0.155707 -3.28073,-2.585935 z"
         id="path1024" />
      <path
         style="fill:#3487c7;stroke-width:1.06667"
         d="m 259.19998,410.26391 c 0,-0.22149 0.84,-1.06149 1.86667,-1.86667 1.6918,-1.32679 1.72953,-1.28906 0.40273,0.40274 -1.39346,1.77679 -2.2694,2.34184 -2.2694,1.46393 z m -75.19999,-63.2602 c -12.07228,-2.69407 -19.215,-9.72902 -21.24818,-20.92759 -1.01692,-5.60108 1.81575,-14.72974 6.0766,-19.58263 8.62361,-9.82188 24.26839,-10.77126 34.55514,-2.09692 10.21766,8.61607 10.59951,26.86145 0.7551,36.08016 -4.88256,4.57223 -14.67551,7.74615 -20.13866,6.52698 z"
         id="path1022" />
      <path
         style="fill:#467b97;stroke-width:1.06667"
         d="m 119.89865,427.46664 -2.03199,-2.4 2.4,2.03199 c 1.32,1.11759 2.4,2.19759 2.4,2.4 0,0.8536 -0.85844,0.22341 -2.76801,-2.03199 z m 135.03467,-12.93606 c 0,-0.2215 0.84,-1.0615 1.86666,-1.86667 1.6918,-1.32679 1.72953,-1.28907 0.40273,0.40273 -1.39346,1.7768 -2.26939,2.34185 -2.26939,1.46394 z m 8.53333,-8.53334 c 0,-0.22149 0.84,-1.06149 1.86667,-1.86666 1.69179,-1.3268 1.72952,-1.28907 0.40273,0.40273 -1.39346,1.7768 -2.2694,2.34184 -2.2694,1.46393 z M 112.51225,247.99998 c 5e-5,-56.31999 0.12945,-79.20356 0.28755,-50.85238 0.15809,28.35119 0.15805,74.43119 -1.1e-4,102.4 -0.15815,27.96881 -0.28749,4.77238 -0.28744,-51.54762 z m 173.86666,0 c 5e-5,-56.31999 0.12945,-79.20356 0.28755,-50.85238 0.15809,28.35119 0.15805,74.43119 -1.1e-4,102.4 -0.15815,27.96881 -0.2875,4.77238 -0.28744,-51.54762 z M 87.893265,314.13331 c 0.0015,-8.8 0.166706,-12.25805 0.367136,-7.68457 0.200431,4.57347 0.199209,11.77347 -0.0027,16 -0.201974,4.22651 -0.365963,0.48457 -0.364469,-8.31543 z m 0.02648,-63.46666 c 0,-12.61333 0.154296,-17.77333 0.34288,-11.46666 0.188584,6.30666 0.188584,16.62666 0,22.93333 -0.188584,6.30666 -0.34288,1.14666 -0.34288,-11.46667 z m -0.0084,-68.79999 c 0.001,-11.14667 0.159087,-15.56174 0.351249,-9.81127 0.192162,5.75048 0.191324,14.87048 -0.0018,20.26667 -0.193187,5.39619 -0.350411,0.69126 -0.349386,-10.4554 z M 260.13059,86.666661 c -1.3268,-1.691793 -1.28907,-1.729521 0.40273,-0.402725 1.02666,0.805167 1.86666,1.645167 1.86666,1.866667 0,0.877903 -0.87593,0.312856 -2.26939,-1.463942 z"
         id="path1020" />
      <path
         style="fill:#326d8c;stroke-width:1.06667"
         d="m 267.53332,545.40465 c 0.76999,-0.30813 1.68999,-0.27024 2.04444,0.0842 0.35445,0.35444 -0.27556,0.60655 -1.4,0.56023 -1.24261,-0.0512 -1.49535,-0.30393 -0.64444,-0.64443 z m 8.53333,0 c 0.76999,-0.30813 1.69001,-0.27024 2.04445,0.0842 0.35444,0.35444 -0.27556,0.60655 -1.4,0.56023 -1.24262,-0.0512 -1.49536,-0.30393 -0.64445,-0.64443 z m 59.93333,-27.40741 c 0,-0.2215 0.84,-1.0615 1.86667,-1.86667 1.69179,-1.32679 1.72952,-1.28907 0.40273,0.40273 -1.39346,1.7768 -2.2694,2.34185 -2.2694,1.46394 z M 211.2842,462.31109 c 0.0512,-1.24262 0.30394,-1.49536 0.64444,-0.64445 0.30813,0.76999 0.27024,1.69 -0.0842,2.04445 -0.35446,0.35444 -0.60655,-0.27557 -0.56024,-1.4 z m 124.79999,-6.4 c 0.0512,-1.24262 0.30394,-1.49536 0.64444,-0.64445 0.30813,0.76999 0.27024,1.69 -0.0842,2.04445 -0.35444,0.35444 -0.60655,-0.27557 -0.56023,-1.4 z m -138.4842,-21.4464 c 1.02666,-0.26829 2.70666,-0.26829 3.73333,0 1.02667,0.2683 0.18667,0.48782 -1.86667,0.48782 -2.05333,0 -2.89333,-0.21952 -1.86666,-0.48782 z m 176.79999,-16.66515 c 0,-0.18358 1.56,-1.74358 3.46666,-3.46667 l 3.46667,-3.1329 -3.1329,3.46667 c -2.92029,3.23143 -3.80043,3.95696 -3.80043,3.1329 z m -13.33334,-19.9329 c 1.06186,-1.17333 2.17065,-2.13333 2.46398,-2.13333 0.29334,0 -0.33545,0.96 -1.39731,2.13333 -1.06185,1.17334 -2.17064,2.13334 -2.46398,2.13334 -0.29333,0 0.33546,-0.96 1.39731,-2.13334 z m 112,-22.4 c 1.06185,-1.17333 2.17064,-2.13333 2.46398,-2.13333 0.29333,0 -0.33546,0.96 -1.39732,2.13333 -1.06185,1.17334 -2.17064,2.13334 -2.46397,2.13334 -0.29334,0 0.33545,-0.96 1.39731,-2.13334 z m -53,-2.86198 c 0.77,-0.30813 1.69001,-0.27024 2.04445,0.0842 0.35444,0.35444 -0.27556,0.60655 -1.4,0.56023 -1.24261,-0.0512 -1.49536,-0.30393 -0.64445,-0.64443 z m -237.86665,-1.06667 c 0.76999,-0.30812 1.68999,-0.27024 2.04445,0.0842 0.35444,0.35445 -0.27557,0.60655 -1.4,0.56024 -1.24262,-0.0512 -1.49536,-0.30394 -0.64445,-0.64444 z m 8.53333,0 c 0.77,-0.30812 1.69,-0.27024 2.04445,0.0842 0.35444,0.35445 -0.27556,0.60655 -1.4,0.56024 -1.24261,-0.0512 -1.49536,-0.30394 -0.64445,-0.64444 z m 95.34128,-19.00468 c 0.0218,-1.76 0.2608,-2.35087 0.53124,-1.31303 0.27044,1.03783 0.25266,2.47783 -0.0396,3.2 -0.2922,0.72216 -0.51347,-0.12697 -0.49173,-1.88697 z m -173.90619,-0.53333 c 0,-1.46667 0.24211,-2.06667 0.53802,-1.33333 0.2959,0.73333 0.2959,1.93333 0,2.66666 -0.29591,0.73334 -0.53802,0.13334 -0.53802,-1.33333 z m 70.03158,-4.99532 c 0.76999,-0.30813 1.68999,-0.27024 2.04445,0.0842 0.35444,0.35444 -0.27557,0.60655 -1.4,0.56024 -1.24262,-0.0512 -1.49536,-0.30394 -0.64445,-0.64444 z m -13.23468,-7.00468 -2.03199,-2.4 2.4,2.03199 c 2.25541,1.90957 2.88559,2.76801 2.03199,2.76801 -0.20241,0 -1.28241,-1.08 -2.4,-2.4 z m 141.63198,-26.13333 c 0.20149,-17.15449 0.62125,-15.15883 1.1223,5.33558 0.15421,6.3079 -0.0796,11.4679 -0.51961,11.46667 -0.44,-0.001 -0.71121,-7.56225 -0.60269,-16.80225 z m -148.37975,12.97778 c 0.0512,-1.24262 0.30393,-1.49536 0.64443,-0.64445 0.30813,0.76999 0.27024,1.69001 -0.0842,2.04445 -0.35445,0.35444 -0.60655,-0.27556 -0.56023,-1.4 z m 49.15086,-1.51112 c 0,-1.46666 0.24212,-2.06666 0.53802,-1.33333 0.2959,0.73333 0.2959,1.93333 0,2.66667 -0.2959,0.73333 -0.53802,0.13333 -0.53802,-1.33334 z m 0,-5.33333 c 0,-1.46667 0.24212,-2.06667 0.53802,-1.33333 0.2959,0.73333 0.2959,1.93333 0,2.66666 -0.2959,0.73334 -0.53802,0.13334 -0.53802,-1.33333 z m -49.15086,-1.68888 c 0.0512,-1.24262 0.30393,-1.49536 0.64443,-0.64445 0.30813,0.76999 0.27024,1.69 -0.0842,2.04445 -0.35445,0.35444 -0.60655,-0.27557 -0.56023,-1.4 z m 21.04912,-20.3731 c 0.76999,-0.30813 1.68999,-0.27024 2.04444,0.0842 0.35445,0.35444 -0.27556,0.60655 -1.4,0.56023 -1.24261,-0.0512 -1.49536,-0.30393 -0.64444,-0.64443 z m 6.4,0 c 0.76999,-0.30813 1.68999,-0.27024 2.04444,0.0842 0.35445,0.35444 -0.27556,0.60655 -1.4,0.56023 -1.24261,-0.0512 -1.49536,-0.30393 -0.64444,-0.64443 z m 0,-24.53333 c 0.76999,-0.30813 1.68999,-0.27024 2.04444,0.0842 0.35445,0.35444 -0.27556,0.60655 -1.4,0.56023 -1.24261,-0.0512 -1.49536,-0.30394 -0.64444,-0.64444 z m 121.19696,-27.00469 c 0,-14.95999 0.15003,-21.07999 0.33339,-13.59999 0.18335,7.48 0.18335,19.71999 0,27.19999 -0.18336,7.48 -0.33339,1.36 -0.33339,-13.6 z m -90.59697,-14.93333 c 1.06186,-1.17333 2.17065,-2.13333 2.46398,-2.13333 0.29334,0 -0.33545,0.96 -1.39731,2.13333 -1.06186,1.17334 -2.17065,2.13334 -2.46398,2.13334 -0.29333,0 0.33546,-0.96 1.39731,-2.13334 z m 90.56265,-54.39999 c 0,-9.09334 0.1636,-12.81334 0.36355,-8.26667 0.19994,4.54667 0.19994,11.98667 0,16.53333 -0.19995,4.54667 -0.36355,0.82667 -0.36355,-8.26666 z m -134.73509,-3.46667 c 0.24737,-0.14667 2.12737,-1.70667 4.17778,-3.46667 l 3.728,-3.2 -3.1329,3.46667 c -1.72309,1.90667 -3.60309,3.46667 -4.17778,3.46667 -0.57468,0 -0.84248,-0.12 -0.5951,-0.26667 z m 47.70578,-0.46198 c 0.76999,-0.30813 1.68999,-0.27024 2.04444,0.0842 0.35445,0.35444 -0.27556,0.60654 -1.4,0.56023 -1.24261,-0.0512 -1.49536,-0.30394 -0.64444,-0.64444 z M 112.08421,144.44444 c 0.0512,-1.24261 0.30393,-1.49536 0.64443,-0.64445 0.30813,0.77 0.27024,1.69 -0.0842,2.04445 -0.35445,0.35444 -0.60655,-0.27556 -0.56023,-1.4 z m 173.95086,-0.44445 c 0,-1.46667 0.24211,-2.06667 0.53801,-1.33333 0.29591,0.73333 0.29591,1.93333 0,2.66666 -0.2959,0.73334 -0.53801,0.13334 -0.53801,-1.33333 z M 263.33059,89.866661 c -1.3268,-1.691793 -1.28907,-1.729521 0.40273,-0.402725 1.02666,0.805167 1.86666,1.645167 1.86666,1.866666 0,0.877903 -0.87593,0.312857 -2.26939,-1.463941 z M 138.66666,85.997269 c 0,-0.221499 0.84,-1.061499 1.86666,-1.866666 1.6918,-1.326796 1.72953,-1.289068 0.40274,0.402725 -1.39347,1.776798 -2.2694,2.341844 -2.2694,1.463941 z m 118.26393,-2.530607 c -1.3268,-1.691793 -1.28907,-1.729521 0.40273,-0.402726 1.02666,0.805167 1.86666,1.645167 1.86666,1.866667 0,0.877903 -0.87593,0.312856 -2.26939,-1.463941 z m 24.53333,-9.6 c -1.3268,-1.691793 -1.28907,-1.729521 0.40273,-0.402725 1.7768,1.39346 2.34184,2.269392 1.46394,2.269392 -0.2215,0 -1.0615,-0.84 -1.86667,-1.866667 z m -133.7977,-28.266665 -3.1329,-3.466666 3.46667,3.132897 c 1.90667,1.723093 3.46667,3.283093 3.46667,3.466666 0,0.824065 -0.88014,0.09852 -3.80044,-3.132897 z m -34.6803,-1.6 -2.58593,-2.933333 2.93334,2.585935 c 2.74164,2.416946 3.42249,3.280731 2.58593,3.280731 -0.19106,0 -1.51106,-1.319999 -2.93334,-2.933333 z m 72.60922,-18.182759 0.52848,-13.550572 0.30691,12.711275 c 0.1688,6.991202 -0.069,13.088959 -0.52848,13.550572 -0.45947,0.461613 -0.59758,-5.258461 -0.30691,-12.711275 z m 92.88906,4.493872 c 0.0512,-1.242606 0.30393,-1.49536 0.64443,-0.644445 0.30813,0.77 0.27024,1.69 -0.0842,2.044445 -0.35444,0.354443 -0.60655,-0.275557 -0.56023,-1.4 z M 126.79726,23.733332 c -1.32679,-1.691793 -1.28906,-1.729521 0.40273,-0.402725 1.7768,1.39346 2.34185,2.269391 1.46394,2.269391 -0.2215,0 -1.0615,-0.84 -1.86667,-1.866666 z"
         id="path1018" />
      <path
         style="fill:#004362;stroke-width:1.06667"
         d="m 262.39998,544.93134 c -30.36403,-3.37043 -57.70226,-23.92576 -69.33308,-52.13077 -3.66554,-8.88903 -6.40024,-21.1346 -6.40024,-28.65925 v -5.28193 l -7.73334,-1.25605 c -4.25333,-0.69081 -11.4487,-2.37387 -15.9897,-3.74014 l -8.25638,-2.4841 -1.94293,4.44377 c -1.06861,2.44408 -4.55325,10.61062 -7.74363,18.14786 -6.30866,14.90418 -7.96715,16.69591 -15.45438,16.69591 -5.33534,0 -11.15324,-5.65896 -11.13077,-10.82667 0.009,-2.0313 3.35191,-11.38093 7.74681,-21.66569 l 7.73125,-18.09238 -12.7609,-12.68282 -12.7609,-12.68283 -4.31923,2.21367 c -2.37558,1.21751 -7.919233,4.18372 -12.319232,6.59158 -6.772164,3.706 -8.705967,4.30228 -12.599749,3.88508 -8.724087,-0.93478 -12.955934,-8.55916 -9.277868,-16.71565 1.593293,-3.53329 3.605362,-5.09439 14.408296,-11.17891 l 12.556391,-7.07212 -2.505796,-7.20542 c -1.378187,-3.96297 -3.384832,-12.18722 -4.459209,-18.2761 l -1.953414,-11.0707 -15.400901,-5.14761 c -16.922513,-5.65619 -20.955772,-8.37835 -21.917784,-14.79298 -0.733959,-4.89397 2.61612,-10.20962 7.840059,-12.43998 3.883225,-1.65796 4.252279,-1.60307 15.709976,2.33658 6.453333,2.21894 12.333332,4.2632 13.066666,4.54282 1.031428,0.39327 1.333333,-3.26108 1.333333,-16.13907 V 297.59998 H 75.165735 c -14.502529,0 -19.213729,-1.1569 -22.226332,-5.45799 -2.339975,-3.34079 -2.188863,-9.25847 0.342428,-13.40988 2.767777,-4.53926 7.235143,-5.65216 22.718164,-5.65951 l 12.533333,-0.006 V 250.58184 228.0971 l -3.466667,0.74936 c -1.906666,0.41216 -7.62061,2.1011 -12.697654,3.75322 -9.558114,3.11028 -12.104609,3.08124 -16.687706,-0.19031 -5.424222,-3.87198 -5.052395,-13.87166 0.662161,-17.80773 1.571093,-1.08213 9.456534,-4.26427 17.5232,-7.07144 l 14.666666,-5.10394 V 181.74648 161.06666 H 75.165735 c -14.502529,0 -19.213729,-1.15691 -22.226332,-5.458 -2.339975,-3.34079 -2.188863,-9.25846 0.342428,-13.40987 2.783144,-4.56446 7.23352,-5.65222 23.155123,-5.65951 l 12.970291,-0.006 1.296444,-7.73333 c 1.094222,-6.52706 4.118731,-16.89412 6.768417,-23.2 0.501334,-1.1931 -2.491994,-3.36321 -11.770381,-8.533329 C 72.755126,89.85254 69.345093,86.473332 69.337316,80.850185 c -0.0099,-7.161024 4.862527,-11.516856 12.882746,-11.516856 3.62436,0 6.655564,1.33857 16.188577,7.14882 l 11.729231,7.148821 3.25133,-4.215488 c 1.78822,-2.318517 6.31729,-7.220207 10.0646,-10.892645 l 6.81327,-6.677158 -11.0002,-11.751435 C 105.98604,35.906437 104.74571,33.724257 106.54636,27.714242 c 1.53695,-5.12991 6.21003,-8.493323 11.85363,-8.531569 3.40491,-0.02307 5.00428,1.276919 18.18047,14.777304 l 14.44713,14.802603 7.54851,-2.899315 c 7.27591,-2.794612 19.35551,-6.013098 24.89056,-6.631838 l 2.66666,-0.298096 0.53334,-16.362385 c 0.53216,-16.3262734 0.53993,-16.3680587 3.52614,-18.933332 2.9342,-2.5205913 4.99479,-3.03480235 10.34052,-2.5804276 7.87025,0.6689528 9.6,4.6935431 9.6,22.3361856 0,13.565971 0.0576,13.910406 2.4,14.361766 12.37748,2.38499 16.24968,3.335817 23.15325,5.685316 4.37428,1.488708 8.10341,2.283622 8.28694,1.766476 1.64588,-4.637489 13.78904,-24.280392 15.84135,-25.625118 5.77513,-3.784003 14.59691,-1.389603 17.44553,4.735043 2.32145,4.991241 1.26841,9.233226 -5.24018,21.109039 -3.50888,6.402423 -6.38888,12.125891 -6.4,12.718818 -0.0111,0.592926 2.62253,3.186851 5.85256,5.764276 5.14493,4.105435 9.21771,8.385963 15.59216,16.387533 1.71258,2.149712 1.86128,2.101368 13.51803,-4.394785 9.11813,-5.081422 12.78284,-6.568407 16.18801,-6.568407 9.33026,0 14.16569,6.007982 11.82665,14.694513 -1.40446,5.215749 -2.33412,6.001667 -16.06431,13.580324 -6.16,3.400144 -11.30327,6.252544 -11.42949,6.338664 -0.12623,0.0861 0.94367,3.06107 2.37754,6.61098 1.43387,3.54991 3.43736,10.84663 4.4522,16.21495 l 1.84516,9.76056 12.84397,0.006 c 7.06417,0.003 14.62212,0.4998 16.79543,1.10341 8.52782,2.36846 11.27423,12.61047 5.20405,19.40714 l -3.11114,3.48305 -15.55553,0.36668 -15.55552,0.36669 v 15.83703 c 0,8.71037 0.36,16.04956 0.8,16.30931 0.44,0.25975 5.12,-1.18943 10.4,-3.2204 11.72749,-4.51103 17.61536,-4.88549 21.36908,-1.35906 4.1226,3.87299 5.41028,9.48261 3.23093,14.07526 -2.13957,4.5088 -4.64881,5.86893 -21.93334,11.88888 l -13.33334,4.64382 -0.28498,26.81256 -0.28498,26.81256 12.55165,0.006 c 6.9034,0.003 14.32981,0.4998 16.50312,1.1034 8.52782,2.36846 11.27423,12.61048 5.20405,19.40715 l -3.11114,3.48305 -15.55553,0.36668 -15.55552,0.36668 v 16.54744 c 0,12.80956 0.30119,16.4277 1.33333,16.01734 0.73334,-0.29156 6.20563,-2.50291 12.16063,-4.91412 12.16433,-4.92539 13.03424,-5.05599 17.99575,-2.7016 7.02938,3.33567 8.78291,13.39802 3.26099,18.7127 -1.46034,1.40553 -9.14061,4.68366 -18.30531,7.81318 l -15.78939,5.3917 -1.80688,10.69109 c -0.99379,5.88009 -2.99635,14.1114 -4.45014,18.29177 l -2.64327,7.6007 12.29137,6.77489 c 13.26953,7.31402 16.20865,10.38401 16.2156,16.93753 0.002,2.06947 -0.69941,4.76689 -1.5591,5.99428 -1.87731,2.68024 -7.92801,5.71037 -11.39812,5.70808 -1.378,-9.2e-4 -8.20829,-3.13803 -15.1784,-6.97136 l -12.67294,-6.9697 -1.58874,2.43802 c -0.8738,1.34092 -6.12226,6.85588 -11.66322,12.25549 l -10.0745,9.81746 6.46951,12.14929 c 7.23576,13.58827 7.92013,17.48724 4.0695,23.18473 -2.85988,4.23155 -7.22653,5.66002 -12.75296,4.17191 -4.69994,-1.26556 -7.04322,-4.16517 -14.17548,-17.54086 -2.81542,-5.28 -5.25467,-9.76639 -5.42056,-9.96975 -0.16589,-0.20336 -3.34181,0.84652 -7.05761,2.33308 -3.7158,1.48655 -11.22048,3.51961 -16.67706,4.5179 l -9.92106,1.81508 0.73802,7.05185 c 3.61251,34.51755 32.52812,58.771 67.15498,56.32734 20.96152,-1.47928 40.84713,-14.34078 49.86208,-32.24953 5.18235,-10.29504 6.00194,-13.68537 7.74882,-32.05393 2.55994,-26.91793 8.434,-41.01001 23.9112,-57.36378 15.40483,-16.27732 32.92616,-24.30163 57.58443,-26.37217 20.52812,-1.72373 29.7785,-5.30794 39.94973,-15.47918 8.82624,-8.82623 12.97725,-17.63658 14.54577,-30.87286 1.06158,-8.95826 2.55004,-12.58836 5.89583,-14.37897 5.87674,-3.14513 15.51373,-0.51373 16.88787,4.61127 2.09934,7.82964 -1.34777,25.32869 -7.4807,37.97531 -8.82976,18.2077 -26.90884,33.34788 -46.50183,38.94259 -3.35969,0.95935 -12.00516,2.19434 -19.21216,2.74443 -16.39876,1.25169 -25.13397,3.90554 -35.35343,10.74073 -17.4136,11.64692 -25.4165,26.58075 -27.4092,51.14702 -1.43118,17.64376 -3.46714,26.29547 -8.911,37.8669 -15.65518,33.27654 -50.71789,52.54443 -88.07235,48.39804 z M 216.99362,432.90667 c 25.15209,-4.25684 50.01446,-23.6948 61.38433,-47.99165 1.765,-3.77173 4.292,-10.92058 5.61556,-15.88636 l 2.40647,-9.02868 v -112 c 0,-103.09794 -0.14805,-112.57617 -1.86273,-119.2492 -10.34301,-40.252043 -44.20427,-66.868002 -85.0706,-66.868002 -26.1946,0 -50.3527,11.167267 -66.88308,30.917216 -3.22075,3.848039 -8.1008,11.679936 -10.96656,17.599996 -9.63084,19.89534 -8.95671,10.41227 -9.36465,131.73333 -0.2489,74.02123 0.003,109.96142 0.81623,116.12214 2.52324,19.13211 10.26325,35.62532 23.10851,49.24197 20.74609,21.99195 48.83221,30.82242 80.81652,25.40924 z m -37.2603,-61.7186 c -18.78309,-3.00682 -34.14441,-16.28563 -39.67486,-34.2962 -2.45908,-8.00824 -2.21135,-22.13605 0.5226,-29.80512 10.09399,-28.31485 40.89737,-41.23415 67.7284,-28.40608 24.35209,11.64289 34.53017,40.60807 22.88549,65.12848 -9.2311,19.43808 -30.47226,30.73893 -51.46163,27.37892 z m 18.39849,-25.98275 c 12.05609,-6.23444 17.17225,-21.03423 11.4442,-33.10521 -5.82407,-12.2733 -21.74089,-17.95364 -33.40548,-11.92165 -18.54347,9.5892 -18.50528,35.4295 0.0663,44.85964 4.76323,2.41864 6.6224,2.7856 12.07803,2.38398 3.54651,-0.26109 7.96414,-1.25862 9.81695,-2.21676 z m 9.33484,-111.43646 c -8.62743,-5.27483 -8.66151,-8.21122 -0.38617,-33.27652 7.71919,-23.38081 9.78505,-26.62568 16.95137,-26.62568 2.27393,0 5.27768,0.5209 6.67499,1.15755 3.22211,1.4681 6.09315,6.27722 6.09315,10.20629 0,4.6555 -12.77254,42.16813 -15.33561,45.04029 -2.04358,2.29003 -7.84555,5.46866 -9.96346,5.45854 -0.45885,-0.002 -2.27427,-0.88441 -4.03427,-1.96047 z m -36.47088,-61.07939 c -1.87233,-0.54163 -4.33333,-2.29834 -5.46888,-3.90379 -3.29505,-4.65858 -13.7178,-26.05124 -14.54261,-29.84866 -2.21455,-10.19576 7.21908,-17.32726 16.54278,-12.50579 2.41154,1.24706 4.69458,4.7013 9.69378,14.66667 7.82722,15.60276 8.52011,17.76877 7.20624,22.5272 -0.9134,3.30806 -7.37446,10.38366 -9.26421,10.14535 -0.41958,-0.0529 -2.29478,-0.53935 -4.1671,-1.08098 z"
         id="path1016" />
    </g>
  </g>
</svg>
